<svg width="112" height="32" viewBox="0 0 112 32" fill="none" xmlns="http://www.w3.org/2000/svg">
    <path d="M58.7803 0.377484H66.0293V20.707H58.7803V0.377484Z" fill="#1B3686"/>
    <path d="M77.6105 25.8601V31.6565H58.7803V23.6052H66.0293V25.8601H77.6105Z" fill="#1B3686"/>
    <path d="M98.7921 20.1474L100.444 25.054L91.9439 25.0541L93.6168 20.1165L98.7921 20.1474Z" fill="#1B3686"/>
    <path fill-rule="evenodd" clip-rule="evenodd"
          d="M86.0494 31.8046H80.3875L82.629 26.0082L92.4834 0.525573H99.904L111.032 29.3014L112 31.8046H106.381C105.752 31.8046 105.244 31.6615 104.858 31.3752C104.472 31.0747 104.179 30.6954 103.979 30.2374L102.134 24.7845L100.483 19.8469L97.5878 11.2811C97.3733 10.7372 97.1446 10.1003 96.9015 9.37043C96.6584 8.62621 96.4154 7.82473 96.1723 6.966C95.9578 7.83904 95.7291 8.64767 95.486 9.3919C95.2429 10.1361 95.0142 10.7802 94.7997 11.324L91.9258 19.8469L88.4086 30.2374C88.2513 30.6382 87.9653 31.0031 87.5507 31.3323C87.1504 31.6472 86.6499 31.8046 86.0494 31.8046Z"
          fill="#1B3686"/>
    <path fill-rule="evenodd" clip-rule="evenodd"
          d="M54.1508 23.6052C53.7259 24.4534 53.232 25.248 52.6692 25.9889C52.2921 26.4853 51.8842 26.9576 51.4452 27.4058C50.0298 28.837 48.3212 29.9605 46.3195 30.7763C44.3321 31.5921 42.1231 32 39.6924 32C37.2618 32 35.0456 31.5921 33.0439 30.7763C31.0422 29.9605 29.3265 28.837 27.8967 27.4058C26.4812 25.9603 25.3803 24.2643 24.5939 22.3179C23.8218 20.3714 23.4358 18.2676 23.4358 16.0063C23.4358 13.745 23.8218 11.6411 24.5939 9.69464C24.733 9.35024 24.882 9.0139 25.0409 8.68564H33.1726C32.4291 9.54436 31.8572 10.5963 31.4569 11.8414C31.0565 13.0723 30.8564 14.4606 30.8564 16.0063C30.8564 17.5663 31.0565 18.9689 31.4569 20.214C31.8572 21.4448 32.4291 22.4896 33.1726 23.3484C33.9304 24.2071 34.8526 24.8654 35.9392 25.3234C37.0402 25.7671 38.2912 25.9889 39.6924 25.9889C41.0793 25.9889 42.3161 25.7671 43.4027 25.3234C44.3784 24.9122 45.2157 24.3395 45.9147 23.6052H54.1508ZM55.9062 16.0063C55.9062 17.6571 55.6966 19.224 55.2775 20.707H47.7114C47.7726 20.5461 47.8305 20.3818 47.8851 20.214C48.2854 18.9689 48.4856 17.5663 48.4856 16.0063C48.4856 14.4606 48.2854 13.0723 47.8851 11.8414C47.4847 10.5963 46.9057 9.54436 46.1479 8.68564C45.4044 7.82691 44.4893 7.16856 43.4027 6.71057C42.3161 6.25259 41.0793 6.0236 39.6924 6.0236H26.6785C27.0548 5.53403 27.4608 5.06888 27.8967 4.62817C29.3265 3.19696 31.0422 2.07346 33.0439 1.25768C35.0456 0.441889 37.2618 0.0339937 39.6924 0.0339937C42.1231 0.0339937 44.3321 0.449045 46.3195 1.27914C48.3212 2.09493 50.0298 3.21843 51.4452 4.64964C52.8607 6.08084 53.9545 7.76966 54.7266 9.7161C55.513 11.6625 55.9062 13.7593 55.9062 16.0063Z"
          fill="#1B3686"/>
    <path fill-rule="evenodd" clip-rule="evenodd"
          d="M19.0018 7.4709C19.2449 7.29915 19.4737 7.04154 19.6881 6.69805L21.4897 3.32756C20.932 2.81232 20.2958 2.35434 19.5809 1.9536C18.8803 1.53855 18.1225 1.1879 17.3075 0.901659C16.4926 0.601107 15.6275 0.37927 14.7125 0.23615C13.8117 0.0787165 12.8824 0 11.9244 0C10.2087 0 8.68594 0.264775 7.35624 0.79432C6.02654 1.30955 4.90416 2.00369 3.9891 2.87673C3.07404 3.74976 2.38059 4.74445 1.90876 5.8608C1.88585 5.915 1.8635 5.96926 1.84171 6.0236H9.94609C10.5121 5.81488 11.2001 5.71052 12.0102 5.71052C12.7966 5.71052 13.4972 5.81786 14.112 6.03254C14.7268 6.23291 15.2701 6.4619 15.7419 6.71952C16.2281 6.97713 16.657 7.21328 17.0287 7.42796C17.4148 7.62833 17.7722 7.72852 18.1011 7.72852C18.4728 7.72852 18.7731 7.64264 19.0018 7.4709ZM7.97819 8.93073C7.97819 8.84756 7.98053 8.76586 7.98519 8.68564H1.22245C1.20816 8.88812 1.20102 9.09147 1.20102 9.29569C1.20102 10.7555 1.40119 11.9864 1.80153 12.9882C2.20187 13.9757 2.72374 14.8058 3.36714 15.4785C4.02484 16.1369 4.76833 16.6736 5.59761 17.0886C6.42688 17.4893 7.2776 17.8328 8.14977 18.1191C9.02194 18.391 9.87266 18.6415 10.7019 18.8705C11.5312 19.0995 12.2675 19.3642 12.911 19.6648C13.5687 19.9653 14.0977 20.3446 14.498 20.8026C14.8983 21.2606 15.0985 21.8545 15.0985 22.5844C15.0985 23.8439 14.7339 24.767 14.0047 25.3538C13.2755 25.9263 12.2533 26.2126 10.9378 26.2126C9.9656 26.2126 9.12202 26.0766 8.40713 25.8047C7.69224 25.5327 7.05598 25.2322 6.49837 24.903C5.95505 24.5738 5.46178 24.2733 5.01854 24.0013C4.58961 23.7294 4.16067 23.5934 3.73173 23.5934C3.40288 23.5934 3.09548 23.6793 2.80953 23.8511C2.53787 24.0085 2.31625 24.2089 2.14468 24.4522L0 27.8441C0.614807 28.4595 1.33685 29.0177 2.16612 29.5186C2.9954 30.0196 3.88186 30.4561 4.82552 30.8282C5.76918 31.186 6.74143 31.4651 7.74228 31.6655C8.75743 31.8658 9.75113 31.966 10.7234 31.966C12.4963 31.966 14.0762 31.7012 15.4631 31.1717C16.8643 30.6278 18.0367 29.8908 18.9804 28.9605C19.9383 28.0159 20.6675 26.9138 21.168 25.6544C21.6684 24.3949 21.9186 23.0424 21.9186 21.5969C21.9186 20.2945 21.7184 19.1853 21.3181 18.2694C20.9177 17.3391 20.3887 16.5519 19.731 15.9079C19.0876 15.2638 18.3441 14.7343 17.5006 14.3192C16.6713 13.9042 15.8206 13.5464 14.9484 13.2458C14.0762 12.931 13.2184 12.6519 12.3748 12.4086C11.5455 12.1509 10.802 11.8719 10.1443 11.5713C9.50092 11.2708 8.97905 10.913 8.57871 10.4979C8.17837 10.0829 7.97819 9.56046 7.97819 8.93073Z"
          fill="#1B3686"/>
</svg>
