<?xml version="1.0" encoding="utf-8"?>
<!-- Generator: Adobe Illustrator 24.3.0, SVG Export Plug-In . SVG Version: 6.00 Build 0)  -->
<svg version="1.0" id="Layer_1" xmlns="http://www.w3.org/2000/svg" xmlns:xlink="http://www.w3.org/1999/xlink" x="0px" y="0px"
	 viewBox="0 0 339.28 237.45" style="enable-background:new 0 0 339.28 237.45;" xml:space="preserve">
<style type="text/css">
	.st0{fill-rule:evenodd;clip-rule:evenodd;fill:#00B041;}
</style>
<g id="OIPjWg_1_">
	<g>
		<path class="st0" d="M275.65,83.65c-0.1,0.79-0.2,1.58-0.3,2.37c-0.72,5.64-3.11,10.49-7.04,14.57
			c-3.99,4.16-8.84,6.76-14.54,7.71c-9.14,1.53-19.71-2.22-25.07-10.6c-0.83-1.3-1.37-2.78-2.04-4.18
			c-0.17-0.36-0.11-0.66,0.17-0.99c0.99-1.15,1.93-2.33,2.89-3.5c0.1-0.12,0.15-0.27,0.3-0.54c0.36,0.99,0.58,1.76,0.9,2.48
			c3.04,6.84,8.25,10.98,15.61,12.23c10.66,1.82,20.85-5.36,23.28-15.54c0.38-1.59,0.55-3.25,0.62-4.88
			c0.08-2.12,0.03-4.26-0.1-6.39c-0.24-4.05-1.72-7.66-4.18-10.85c-3.6-4.66-8.32-7.5-14.18-8.18c-5.82-0.67-10.99,1.09-15.49,4.79
			c-4.69,3.86-8.75,8.34-12.65,12.98c-1.81,2.16-3.55,4.38-5.32,6.57c-0.11,0.13-0.23,0.25-0.42,0.46
			c-0.02-0.27-0.03-0.42-0.03-0.57c0-2.15-0.01-4.31,0.01-6.46c0-0.3,0.09-0.65,0.27-0.88c3.11-4.03,6.34-7.96,9.96-11.54
			c2.68-2.65,5.59-5.03,8.77-7.05c2.92-1.86,6.15-2.91,9.57-3.36c13.58-1.78,25.41,7.82,28.2,19.6c0.33,1.37,0.44,2.79,0.65,4.19
			c0.05,0.31,0.11,0.62,0.17,0.93C275.65,79.25,275.65,81.45,275.65,83.65z"/>
		<path class="st0" d="M206.93,193.97c0.39,0.31,0.67,0.52,0.95,0.75c4.09,3.32,8.74,5.43,13.97,6.1c3.48,0.45,6.96,0.38,10.27-1
			c3.69-1.54,5.54-4.46,5.88-8.34c0.18-2.05,0.11-4.12,0.14-6.18c0-0.17-0.04-0.34-0.06-0.58c-0.14,0.07-0.23,0.09-0.28,0.15
			c-2.33,2.65-5.37,4.03-8.73,4.69c-5.47,1.09-10.77,0.5-15.73-2.13c-5.3-2.81-8.36-7.39-9.83-13.11c-0.58-2.25-0.83-4.54-0.83-6.86
			c0-10.18,0-20.35,0-30.53c0-0.89,0-0.89,0.91-0.89c3.51,0,7.01,0.02,10.52-0.02c0.71-0.01,0.87,0.21,0.87,0.89
			c-0.02,10.34-0.07,20.68,0.02,31.01c0.04,4.75,2.86,9.56,8.85,10.6c3.46,0.6,6.76,0.05,9.61-2.18c2.15-1.69,3.23-4,3.58-6.66
			c0.14-1.04,0.15-2.1,0.15-3.15c0.01-9.86,0.01-19.71,0.01-29.57c0-0.93,0-0.93,0.94-0.93c3.42,0,6.83,0.01,10.25-0.01
			c0.52,0,0.71,0.14,0.71,0.7c-0.02,18.25,0.04,36.49-0.05,54.74c-0.02,4.99-1.5,9.61-4.91,13.44c-2.85,3.2-6.49,5.09-10.58,6.17
			c-2.42,0.64-4.89,0.92-7.39,1.04c-6.94,0.32-13.14-1.61-18.58-5.96c-0.49-0.39-0.71-0.81-0.7-1.45c0.03-3.37,0.01-6.74,0.02-10.11
			C206.88,194.46,206.9,194.3,206.93,193.97z"/>
		<path class="st0" d="M103.28,190.33c-0.33,0-0.58,0-0.82,0c-3.37,0-6.74-0.02-10.11,0.02c-0.72,0.01-0.87-0.22-0.87-0.89
			c0.02-14.37,0.01-28.74,0.01-43.12c0-6.92,0-13.84,0-20.77c0-0.9,0-0.91,0.9-0.91c8.37,0,16.74-0.14,25.1,0.06
			c6.04,0.14,11.58,1.98,15.96,6.43c2.75,2.79,4.37,6.2,5.1,10.01c0.93,4.84,0.83,9.67-0.8,14.36c-2.46,7.05-7.56,11.21-14.67,13.07
			c-2.4,0.63-4.85,0.88-7.34,0.88c-3.85-0.01-7.7,0-11.55,0c-0.9,0-0.9,0.01-0.9,0.91c0,6.35,0,12.7,0,19.05
			C103.28,189.71,103.28,189.98,103.28,190.33z M110,158.5c1.63,0,3.25,0.05,4.88-0.02c1.39-0.06,2.8-0.13,4.15-0.41
			c3.71-0.78,6.41-2.85,7.65-6.52c1-2.94,1.01-5.94,0.14-8.91c-0.84-2.88-2.71-4.86-5.51-5.98c-1.75-0.7-3.58-0.97-5.43-1
			c-3.98-0.05-7.97-0.01-11.96-0.02c-0.51,0-0.66,0.19-0.66,0.69c0.01,7.15,0.02,14.29,0,21.44c0,0.58,0.19,0.74,0.75,0.74
			C106.02,158.48,108.01,158.5,110,158.5z"/>
		<path class="st0" d="M183.42,184.74c-2.7,2.82-5.95,4.38-9.64,5.11c-2.74,0.54-5.5,0.51-8.26,0.22c-3.36-0.35-6.55-1.24-9.52-2.87
			c-5.5-3.03-8.86-7.73-10.55-13.71c-0.74-2.63-1.08-5.33-1.09-8.06c-0.01-2.63-0.07-5.28,0.15-7.9
			c0.86-10.17,6.61-18.63,17.82-21.29c5.86-1.39,11.74-1.27,17.45,0.71c7.7,2.68,12.4,8.16,14.39,16.02
			c0.58,2.31,0.85,4.67,0.85,7.06c-0.01,9.56,0,19.11,0,28.67c0,0.97,0,0.97-0.97,0.97c-3.28,0-6.55-0.01-9.83,0.01
			c-0.6,0-0.85-0.13-0.82-0.8C183.46,187.52,183.42,186.13,183.42,184.74z M183.54,163.03c-0.14-1.94-0.1-3.9-0.44-5.8
			c-0.84-4.62-3.44-7.92-7.89-9.59c-2.79-1.05-5.67-1.13-8.58-0.61c-5.41,0.96-9.58,5.19-10.39,10.61
			c-0.45,3.03-0.44,6.08-0.12,9.11c0.53,5.05,3.1,8.78,7.73,10.96c2.88,1.36,5.93,1.48,9.06,1.06c4.93-0.67,8.62-3.83,9.96-8.62
			C183.51,167.79,183.44,165.42,183.54,163.03z"/>
		<path class="st0" d="M118.24,76.87c-7.2,0-14.34,0-21.57,0c-0.02-0.3-0.04-0.54-0.04-0.78c0-1.15,0-2.29,0-3.44
			c0-0.94,0-0.94,0.98-0.94c5.82,0,11.64,0,17.47,0c2.52,0,5.04,0.02,7.56-0.01c0.6-0.01,0.79,0.17,0.78,0.77
			c-0.02,8.96-0.01,17.92-0.03,26.89c0,0.37-0.17,0.82-0.41,1.1c-2.61,3.06-5.92,5.17-9.55,6.79c-3.43,1.53-7.03,2.4-10.77,2.81
			c-6.35,0.69-12.54,0.11-18.39-2.59c-10.24-4.75-16.66-12.68-18.99-23.72c-1.37-6.5-1.24-13.03,1.15-19.33
			c3.14-8.29,8.83-14.35,16.59-18.52c4.11-2.21,8.51-3.53,13.16-4.05c3.41-0.38,6.81-0.24,10.21,0.02c3.34,0.26,6.61,0.88,9.76,2.05
			c0.64,0.24,0.93,0.53,0.89,1.27c-0.07,1.57-0.02,3.15-0.02,4.82c-0.64-0.32-1.17-0.61-1.72-0.87c-2.86-1.38-5.89-2.13-9.03-2.38
			c-2.28-0.18-4.56-0.3-6.85-0.27c-6.82,0.09-12.92,2.32-18.32,6.45c-5.12,3.91-8.69,8.93-10.48,15.16
			c-0.91,3.15-1.07,6.38-0.94,9.65c0.17,4.16,1.05,8.12,2.92,11.83c4.1,8.11,10.61,13.14,19.51,15.04c3.6,0.77,7.23,0.69,10.86,0.27
			c4.28-0.49,8.35-1.63,12.01-3.96c1-0.64,1.93-1.4,2.82-2.18c0.27-0.23,0.47-0.7,0.47-1.06c0.03-6.69,0.02-13.39,0.02-20.08
			C118.31,77.38,118.27,77.15,118.24,76.87z"/>
		<path class="st0" d="M196.39,101.91c0,1.67,0.02,3.24-0.02,4.82c0,0.18-0.31,0.46-0.52,0.52c-1.6,0.44-3.2,1.04-4.83,1.21
			c-6.72,0.72-12.8-1.06-18.15-5.17c-5.63-4.33-9.1-10.02-10.01-17.07c-0.39-3-0.26-6.08-0.21-9.12c0.12-6.1,2.35-11.42,6.33-16
			c3.97-4.56,8.92-7.53,14.89-8.56c8.08-1.4,15.31,0.61,21.52,5.98c4.8,4.15,7.68,9.44,8.71,15.7c0.19,1.19,0.29,2.41,0.29,3.62
			c0.02,9.95,0.01,19.9,0.01,29.84c0,0.29,0,0.58,0,0.92c-1.74,0-3.4,0-5.15,0c0-0.35,0-0.67,0-0.98c0-9.95,0.07-19.9-0.02-29.84
			c-0.09-10.46-7.64-18.45-16.91-20.19c-11.21-2.09-21.99,5.57-24.22,16.53c-0.22,1.09-0.36,2.22-0.37,3.33
			c-0.04,2.93-0.27,5.87,0.32,8.77c1.54,7.64,6,12.93,13.16,15.88c4.76,1.96,9.59,1.81,14.41,0.07
			C195.85,102.09,196.08,102.01,196.39,101.91z"/>
		<path class="st0" d="M114.28,80.87c0,0.28,0,0.51,0,0.73c0,4.77-0.01,9.53,0.01,14.3c0,0.52-0.16,0.85-0.56,1.16
			c-2.23,1.75-4.82,2.69-7.54,3.3c-3.07,0.69-6.21,1.03-9.34,0.82c-9.21-0.61-16.03-5.07-20.43-13.15
			c-1.93-3.54-2.71-7.38-2.78-11.41c-0.07-3.9,0.43-7.67,2.14-11.21C78.92,58.91,84,54.57,90.7,52.07
			c4.03-1.51,8.22-1.85,12.49-1.58c3.63,0.23,7.18,0.78,10.57,2.11c0.96,0.37,1.89,0.82,2.81,1.27c0.2,0.1,0.42,0.39,0.42,0.59
			c0.03,1.83,0.02,3.66,0.02,5.64c-0.28-0.19-0.48-0.31-0.67-0.45c-2.83-2.14-6.06-3.29-9.55-3.67c-2.34-0.25-4.71-0.49-7.05-0.4
			c-8.25,0.35-14.7,3.92-18.86,11.19c-1.44,2.52-2.05,5.3-2.11,8.22c-0.07,3.38,0.27,6.68,1.73,9.77c2.9,6.14,7.67,9.96,14.42,11.02
			c4.76,0.75,9.43,0.08,13.96-1.56c0.46-0.17,0.63-0.43,0.63-0.91c-0.02-2.15-0.03-4.31,0-6.46c0.01-0.67-0.18-0.91-0.89-0.91
			c-3.74,0.03-7.47,0-11.21,0.03c-0.62,0-0.83-0.15-0.81-0.8c0.05-1.42,0.02-2.83,0.02-4.31C102.52,80.87,108.35,80.87,114.28,80.87
			z"/>
		<path class="st0" d="M237.27,79.76c0.3,1.35,0.49,2.49,0.8,3.6c0.87,3.05,2.38,5.72,4.66,7.97c4.8,4.73,11.52,3.41,15.26-0.41
			c2.07-2.11,3.21-4.66,3.26-7.63c0.04-2.24,0.15-4.5-0.05-6.72c-0.44-4.79-4.06-8.79-8.76-9.86c-4.14-0.94-7.74,0.21-10.85,3
			c-4.13,3.72-7.72,7.96-11.29,12.2c-4.06,4.82-7.99,9.74-11.97,14.62c-0.04,0.05-0.07,0.12-0.24,0.15
			c-0.01-0.18-0.04-0.36-0.04-0.55c0-2.22-0.02-4.45,0.02-6.67c0.01-0.38,0.15-0.82,0.37-1.12c3.68-4.9,7.67-9.53,11.82-14.03
			c2.26-2.46,4.53-4.92,6.93-7.26c2.71-2.64,5.85-4.67,9.6-5.48c4.47-0.96,8.6,0.06,12.31,2.67c3.82,2.68,6.23,6.33,7.1,10.94
			c0.15,0.8,0.21,1.64,0.21,2.46c-0.02,2.47,0.09,4.96-0.17,7.41c-0.71,6.47-5.58,12-11.96,13.82c-6.98,1.99-14.09-0.82-18.2-7.17
			c-1.25-1.94-2.16-4.03-2.69-6.27c-0.07-0.32,0.03-0.78,0.23-1.04c1.08-1.39,2.22-2.74,3.33-4.11
			C237.06,80.15,237.12,80,237.27,79.76z"/>
		<path class="st0" d="M196.39,91.85c0,1.77,0.02,3.42-0.02,5.06c-0.01,0.25-0.29,0.55-0.52,0.71c-1.37,0.93-2.93,1.4-4.54,1.65
			c-7.02,1.08-13.67-2.06-17.28-8.16c-1.52-2.57-2.32-5.36-2.3-8.36c0.01-1.47,0.01-2.93,0-4.4c-0.05-5.56,2.22-10.03,6.5-13.47
			c9.56-7.68,24.34-2.7,26.71,9.87c0.21,1.14,0.3,2.32,0.31,3.48c0.02,9.83,0.01,19.66,0.01,29.49c0,0.92,0,0.92-0.94,0.93
			c-1.15,0-2.29-0.03-3.44,0.01c-0.59,0.02-0.73-0.2-0.73-0.75c0.02-2.64,0.01-5.27,0.01-7.91c0-7.17,0-14.35,0-21.52
			c0-2.55-0.55-4.96-2.04-7.07c-2.35-3.31-5.56-4.94-9.64-5.02c-4.78-0.08-9.84,3.1-11.23,8.67c-0.22,0.9-0.32,1.85-0.35,2.78
			c-0.06,1.62-0.02,3.25-0.02,4.88c0,5.87,4.09,10.7,9.91,11.53c3.18,0.46,6.19-0.22,8.93-1.94
			C195.89,92.18,196.08,92.05,196.39,91.85z"/>
		<path class="st0" d="M168.38,55.58c-1.3,1.41-2.44,2.66-3.56,3.87c-1.33-0.5-2.61-1.16-3.97-1.47c-8.15-1.85-15.42-0.3-21.28,5.97
			c-2.62,2.8-4.07,6.23-4.63,10c-0.27,1.78-0.37,3.6-0.37,5.4c-0.04,9.44-0.02,18.88-0.02,28.32c0,0.97,0,0.97-0.97,0.97
			c-1.17,0-2.34-0.02-3.51,0.01c-0.49,0.01-0.67-0.17-0.63-0.63c0.01-0.11,0-0.23,0-0.34c0-9.83,0.01-19.66,0-29.49
			c0-5.67,1.39-10.92,4.68-15.58c3.89-5.51,9.26-8.75,15.84-9.99c5.12-0.97,10.16-0.65,15.03,1.27
			C166.14,54.33,167.19,54.98,168.38,55.58z"/>
		<path class="st0" d="M162.57,62.76c-0.78,1.55-1.51,3.01-2.23,4.44c-1.02-0.24-2.03-0.58-3.06-0.7c-4.9-0.58-9.64,0.96-12.19,5.68
			c-0.93,1.72-1.37,3.59-1.37,5.54c-0.01,9.97,0,19.94,0,29.91c0,0.3,0,0.59,0,0.95c-1.71,0-3.37,0-5.1,0
			c-0.01-0.24-0.04-0.48-0.04-0.72c0-10.13-0.09-20.26,0.03-30.39c0.09-8.17,5.72-14.54,13.39-15.92c3.07-0.55,6.1-0.37,9.08,0.57
			C161.59,62.27,162.07,62.54,162.57,62.76z"/>
		<path class="st0" d="M223.48,29.13c1.71,0,3.35,0,5.06,0c0.01,0.28,0.04,0.52,0.04,0.76c0,8.76,0,17.51,0.01,26.27
			c0,0.45-0.14,0.74-0.46,1.07c-1.38,1.4-2.72,2.85-4.07,4.28c-0.17,0.18-0.33,0.36-0.57,0.64
			C223.48,51.08,223.48,40.14,223.48,29.13z"/>
		<path class="st0" d="M232.6,54.46c0-0.38,0-0.62,0-0.87c0-7.86,0-15.72,0-23.59c0-0.92,0-0.92,0.95-0.92c1.05,0,2.11,0,3.16,0
			c0.98,0,0.99,0,0.99,1.02c0,1.51,0,3.03,0,4.54c0,5.2-0.01,10.41,0.01,15.61c0,0.54-0.16,0.85-0.64,1.15
			c-1.32,0.83-2.58,1.75-3.86,2.63C233.05,54.15,232.89,54.26,232.6,54.46z"/>
	</g>
</g>
</svg>
