<?xml version="1.0" encoding="UTF-8"?>
<svg width="2500" height="728" viewBox="6.49 12.327 87.019 25.347" xmlns="http://www.w3.org/2000/svg">
<path d="M6.58 29.745c0-1.259-.022-2.313-.09-3.256h2.381l.113 1.618h.066c.539-.854 1.527-1.866 3.369-1.866 1.438 0 2.56.81 3.032 2.022h.046c.382-.606.83-1.056 1.346-1.369.607-.428 1.305-.653 2.202-.653 1.82 0 3.66 1.235 3.66 4.741v6.444H20.01v-6.042c0-1.818-.629-2.898-1.954-2.898-.943 0-1.64.676-1.931 1.462a3.951 3.951 0 0 0-.135.919v6.56h-2.695v-6.336c0-1.524-.606-2.604-1.887-2.604-1.031 0-1.727.81-1.977 1.572-.111.27-.157.586-.157.898v6.47H6.58v-7.682zM33.206 34.8c0 .987.045 1.952.156 2.627h-2.493l-.179-1.212h-.068c-.674.854-1.82 1.458-3.232 1.458-2.202 0-3.437-1.593-3.437-3.256 0-2.765 2.446-4.155 6.491-4.133v-.179c0-.72-.293-1.91-2.225-1.91-1.079 0-2.201.338-2.942.808l-.539-1.797c.809-.495 2.224-.966 3.952-.966 3.505 0 4.517 2.226 4.517 4.604l-.001 3.956zm-2.696-2.717c-1.955-.046-3.818.381-3.818 2.043 0 1.078.698 1.573 1.573 1.573 1.099 0 1.909-.721 2.156-1.506a2.03 2.03 0 0 0 .09-.606v-1.504h-.001zM35.114 29.745c0-1.259-.023-2.313-.088-3.256h2.423l.134 1.642h.068c.471-.855 1.662-1.89 3.481-1.89 1.91 0 3.885 1.235 3.885 4.696v6.489h-2.762v-6.175c0-1.572-.585-2.766-2.089-2.766-1.099 0-1.865.787-2.156 1.619-.09.246-.112.584-.112.896v6.425h-2.785l.001-7.68zM56.995 22.095V34.35c0 1.123.046 2.338.09 3.077h-2.469l-.113-1.728h-.046c-.65 1.212-1.977 1.975-3.57 1.975-2.606 0-4.671-2.223-4.671-5.59-.024-3.662 2.266-5.842 4.896-5.842 1.504 0 2.582.629 3.076 1.441h.047v-5.587h2.761v-.001zm-2.761 8.953c0-.223-.022-.493-.068-.719-.247-1.076-1.121-1.953-2.38-1.953-1.774 0-2.764 1.573-2.764 3.616 0 1.997.989 3.458 2.742 3.458 1.121 0 2.11-.765 2.379-1.955.068-.246.092-.517.092-.808v-1.639zM58.949 37.427V26.489h2.787v10.938h-2.787zM63.688 30.016c0-1.482-.021-2.539-.088-3.526h2.403l.088 2.087h.091c.539-1.549 1.818-2.087 2.989-2.087.269 0 .425-.046.649 0v2.427a3.812 3.812 0 0 0-.807-.09c-1.328 0-2.226.854-2.472 2.087a4.962 4.962 0 0 0-.089.856v5.658h-2.764v-7.412zM71.102 37.427V26.489h2.783v10.938h-2.783z" fill="#0D2B5B"/>
<path d="M91.221 14.921c-1.379-1.573-2.845-.861-4.01-.282-.49.242-4.027 2.247-4.027 2.247-1.938.799-3.447-.073-4.039-.807a1.738 1.738 0 0 1-.153-.221l-.138-.239a10.756 10.756 0 0 0-.776-1.161 6.556 6.556 0 0 0-.558-.637c-1.326-1.339-3.445-2.276-6.987-.574-1.677.972-7.14 4.093-7.14 4.093-2.053.845-3.623-.184-4.133-.939a.549.549 0 0 1-.06-.091l-.067-.114-.346-.566a9.512 9.512 0 0 0-.502-.721 7.25 7.25 0 0 0-.559-.636c-1.317-1.331-3.425-2.266-6.936-.596-2.123 1.212-7.061 4.035-7.061 4.035l-.002.002-3.614 2.065 1.87 2.296c.787.75 2.266 1.98 4.554.943 0 0 6.315-3.657 6.34-3.668 5.399-2.963 8.063-.132 9.241 1.755.041.059.074.123.111.18l.002.003c.015.023.024.044.037.066l.133.218c.574.87 1.479 1.432 2.558 1.406.595-.012.999-.206 1.587-.533l6.11-3.544.013-.006c5.467-2.999 8.176.017 9.333 1.904.09.163.192.319.297.464.573.777 1.363 1.286 2.367 1.261.663-.013 1.406-.411 1.517-.484l7.325-4.228c.002.002-.746-1.129-2.287-2.891z" fill="#FDD213"/>
</svg>
