<?xml version="1.0" encoding="UTF-8"?>
<svg width="738.84" height="741.24" version="1.1" viewBox="0 0 56.965997 57.151002" xmlns="http://www.w3.org/2000/svg" xmlns:cc="http://creativecommons.org/ns#" xmlns:dc="http://purl.org/dc/elements/1.1/" xmlns:rdf="http://www.w3.org/1999/02/22-rdf-syntax-ns#">
<metadata>
<rdf:RDF>
<cc:Work rdf:about="">
<dc:format>image/svg+xml</dc:format>
<dc:type rdf:resource="http://purl.org/dc/dcmitype/StillImage"/>
<dc:title/>
</cc:Work>
</rdf:RDF>
</metadata>
<path d="m28.483 1.652c-14.819 0-26.834 12.054-26.834 26.917 0 14.873 12.015 26.934 26.834 26.934 14.825 0 26.84-12.061 26.84-26.934 0-10.421-5.92-19.443-14.561-23.917-0.082-0.075-0.15-0.141-0.236-0.219 0 0-6e-3 0.04-6e-3 0.101a26.47 26.47 0 0 0 -3.275 -1.387c0.086-0.366 0.201-0.908 0.248-1.309 0.051-0.49-0.34-1.003-1.145-0.81-0.557 0.124-1.988 0.625-3.24 1.049-1.506-0.261-3.045-0.425-4.625-0.425z" clip-rule="evenodd" fill="#5e5642" fill-rule="evenodd" stroke="#dad6cc" stroke-linejoin="round" stroke-miterlimit="2.613" stroke-width=".353"/>
<path d="m1.649 28.569c0-14.863 12.015-26.917 26.834-26.917 14.825 0 26.84 12.054 26.84 26.917 0 14.873-12.016 26.934-26.84 26.934-14.82 0-26.834-12.061-26.834-26.934z" clip-rule="evenodd" fill="#fff" fill-rule="evenodd" stroke="#5e5642" stroke-linejoin="round" stroke-miterlimit="2.613" stroke-width=".095"/>
<path d="m38.343 2.355c10.557 3.992 18.066 14.225 18.066 26.214 0 15.473-12.504 28.018-27.926 28.018-15.422 0-27.92-12.545-27.92-28.018 0-15.468 12.498-28.01 27.92-28.01 1.66 0 3.293 0.144 4.877 0.424l0.965-0.386a28.854 28.854 0 0 0 -5.842 -0.597c-15.728 0-28.483 12.789-28.483 28.569 0 15.784 12.756 28.582 28.483 28.582 15.733 0 28.483-12.798 28.483-28.582 0-12.344-7.803-22.864-18.738-26.859z" clip-rule="evenodd" fill="#5e5642" fill-rule="evenodd"/>
<path d="m14.899 33.902c0.275-0.34 0.851-0.818 1.609-1.193 1.08-0.548 4.16-0.905 5.866-0.882 1.011 0.011 1.689 0.473 2.161 0.945 0.471 0.473-0.339 0.542-0.742 0.202-0.408-0.334-0.856-0.449-1.327-0.449s-0.971 0.184-1.235 0.38c-0.271 0.207-0.339 0.484-1.012 0.68-0.815 0.231-1.758-0.507-1.758-0.507 0.661 1.251 1.798 1.21 2.431 1.055 0.46-0.121 0.604-0.334 1.281-0.346 1.08-0.017 1.552 0.611 1.552 0.611-1.351-0.069-3.637 0.778-4.724 1.015-1.35 0.3-2.631 0.34-2.631 0.34 0.873 1.084 2.16 1.084 3.108 1.084 0.942 0 3.976-0.225 5.798-0.069 2.287 0.19 4.114 1.695 4.114 3.926 0 2.23-1.545 3.447-1.545 3.447 1.953-0.605 2.764-2.162 2.764-2.162 1.041 4.024-1.121 7.241-3.098 8.555-1.643 1.095-6.574 2.226-10.36 0.409-4.189-2.012-5.775-3.972-5.775-3.972 9.107 0.744 13.561-1.788 13.561-1.788-8.229 0.479-13.969-1.608-17.681-3.239a24.723 24.723 0 0 1 -3.194 -7.754v6e-3c6.809 5.142 12.848 6.024 12.848 6.024-7.355-3.995-11.015-8.468-13.446-12.929a24.917 24.917 0 0 1 1.495 -7.379l0.017-0.04c2.729 7.284 5.729 9.453 5.729 9.453-2.971-6.775-2.948-11.625-2.677-15.281a24.987 24.987 0 0 1 3.907 -4.364l0.022-0.026c-1.148 6.503 0.23 10.729 0.23 10.729 0-5.142 2.879-11.262 5.171-14.38a24.279 24.279 0 0 1 4.448 -1.715h5e-3c-2.091 2.638-3.011 5.197-3.011 5.197 4.293-4.098 11.4-6.56 12.48-6.837 1.08-0.265 4.189-1.418 5.068-1.617 0.805-0.193 1.195 0.32 1.145 0.81-0.068 0.637-0.34 1.695-0.34 1.695 2.385 0.583 3.418 1.758 3.418 1.758-0.09-0.317-0.045-0.858-0.045-0.858 3.287 2.934 4.184 4.332 4.275 6.992 0.092 2.663 1.258 3.07 1.93 3.43 0.678 0.36 2.346 1.314 2.881 1.764 0.4 0.34 0.229 0.72 0 0.991-0.225 0.268-0.225 0.36-0.266 0.674-0.201 1.384-0.816 1.943-1.668 2.254-0.855 0.314-1.803-0.179-1.803-0.179-0.943 1.038-1.121 0.36-1.166-0.043-0.041-0.407-0.541-0.09-0.896 0.043-0.361 0.135-0.494-0.36-0.494-0.36-1.713-0.225-2.459 0.79-2.459 0.79 1.486 0.202 2.234 1.216 2.297 1.623 0.07 0.415 0.742 0.135 0.742 0.135s0.062-0.135 0.34-0.268c0.27-0.136 0.338-0.069 0.27 0.268s-0.139 0.611-0.139 0.611l0.748 0.476c-0.277 1.831-1.08 1.752-1.488 1.554-2.592-1.3-7.217-1.554-7.217-1.554 0.27-0.407 0.918-0.928 0.918-0.928-11.871 0-13.876 1.446-14.485 2.21-0.42 0.53-0.058 1.352-0.058 1.352-1.414 0.271-4.999 1.179-6.373 2.443-1.321 1.211-1.763 4.053-1.81 5.102-0.011 0.218 0.202 0.212 0.294 0.086zm20.68-30.688c0.133-0.149 0-0.271-0.355-0.043-0.363 0.222-1.949 1.179-3.018 2.975-0.131 0.228-0.053 0.564 0.518 0.369a9.676 9.676 0 0 1 1.729 -0.415c0.316-0.047 0.316-0.269 0.094-0.355-0.225-0.095-0.277-0.182-0.18-0.544 0.085-0.361 0.718-1.401 1.212-1.987zm-2.971 4.868c-2.339 1.9-6.189 6.443-8.004 10.699-0.138 0.318 0 0.366 0.448 0.093 0.454-0.274 1.758-0.902 2.385-1.084 0 0-0.679 2.358-0.902 3.657-0.178 1.07 0.707 0.986 1.259 0.859 0.552-0.124 2.838-0.225 3.24-0.273 0 0-2.114-0.499-2.338-1.357-0.224-0.854 0.379-2.762 0.81-4.056 0.092-0.277-0.046-0.678-0.494-0.502-0.454 0.179-1.08 0.314-1.396 0.502 0 0 1.982-4.877 5.038-8.399l-0.046-0.139 10.486 2.173c-0.23 1.779-0.879 1.62-1.172 1.534-0.316-0.092-0.402-0.225-1.352-0.314-0.299-0.028-1.682-0.184-0.941 0.401 1.189 0.954 2.201 2.891 2.201 2.891 0.137-0.631-0.184-1.533-0.357-1.848-0.178-0.32 0.047-0.406 0.266-0.363 0.229 0.043 0.355 0.13 0.77 0.363 0.402 0.222 0.672 0.182 0.766-0.363 0.074-0.47 0.051-1.43-0.043-2.297-0.01-0.063-0.113-0.095-0.137-3e-3z" clip-rule="evenodd" fill="#5e5642" fill-rule="evenodd"/>
<path d="m46.095 46.63c-1.059-3.551-3.977-5.816-5.598-7.782-0.66-0.801-1.637-1.926-1.637-1.926 0.947 0.542 2.746 0.813 2.746 0.813-0.494-0.41-1.621-1.759-2.068-2.306-1.254-1.504-3.426-3.188-5.039-3.92-3.172-1.441-6.476-1.625-6.924-1.712-0.454-0.092-1.396 0.086-0.816-0.819 0.587-0.903 4.005-3.564 4.005-3.564-0.718 0-3.867 0.277-4.815 0.406-0.942 0.138-1.161-0.179-1.212-0.807 0 0-1.896 1.79-0.988 2.703 0.138 0.136 0.54 0.182 1.04-0.043 0.489-0.228 1.478-0.544 1.839-0.585 0 0-0.811 1.261-0.988 1.803-0.179 0.542-0.225 0.813 0.626 1.084 0.855 0.265 5.177 1.625 7.826 3.43 2.654 1.805 5.4 4.11 7.43 8.348 2.023 4.249 0.908 7.466 0.592 8.053a24.764 24.764 0 0 0 4.006 -3.193zm5.917-8.993c-2.602-2.122-7.172-5.909-12.744-7.211 0 0 7.951 3.188 10.791 11.212a25.065 25.065 0 0 0 1.953 -4.001z" clip-rule="evenodd" fill="#5e5642" fill-rule="evenodd"/>
<path d="m36.401 52.533c0.85-1.988 1.787-6.716 0.799-10.376 0 0 0.182 8.612-5.707 11.455a25.669 25.669 0 0 0 4.896 -1.073zm17.283-24.298c-0.764-0.31-5.471-1.647-5.471-1.647 1.576-0.086 2.207-1.256 2.207-1.256-1.482 0.4-3.734 0.582-5.619 0.311 0 0 4.361 1.894 8.705 6.029v-0.041c0.115-0.997 0.184-2.018 0.184-3.061 0-0.128 0-0.197-6e-3 -0.335z" clip-rule="evenodd" fill="#5e5642" fill-rule="evenodd"/>
</svg>
