<?xml version="1.0" encoding="UTF-8"?>
<svg width="2427.1" height="1306.7" version="1.1" viewBox="0 0 187.13549 100.75169" xmlns="http://www.w3.org/2000/svg" xmlns:cc="http://creativecommons.org/ns#" xmlns:dc="http://purl.org/dc/elements/1.1/" xmlns:rdf="http://www.w3.org/1999/02/22-rdf-syntax-ns#">
<metadata>
<rdf:RDF>
<cc:Work rdf:about="">
<dc:format>image/svg+xml</dc:format>
<dc:type rdf:resource="http://purl.org/dc/dcmitype/StillImage"/>
<dc:title/>
</cc:Work>
</rdf:RDF>
</metadata>
<path d="m91.33 1.8275c-14.819 0-26.834 12.054-26.834 26.917 0 14.873 12.015 26.934 26.834 26.934 14.825 0 26.84-12.061 26.84-26.934 0-10.421-5.92-19.443-14.561-23.917-0.082-0.075-0.15-0.141-0.236-0.219 0 0-6e-3 0.04-6e-3 0.101a26.47 26.47 0 0 0 -3.275 -1.387c0.086-0.366 0.201-0.908 0.248-1.309 0.051-0.49-0.34-1.003-1.145-0.81-0.557 0.124-1.988 0.625-3.24 1.049-1.506-0.261-3.045-0.425-4.625-0.425z" clip-rule="evenodd" fill="#5e5642" fill-rule="evenodd" stroke="#dad6cc" stroke-linejoin="round" stroke-miterlimit="2.613" stroke-width=".353"/>
<path d="m91.33 57.326c15.733 0 28.483-12.798 28.483-28.582 0-12.344-7.803-22.864-18.738-26.859l0.115 0.646c10.557 3.992 18.066 14.225 18.066 26.214 0 15.473-12.504 28.018-27.926 28.018-15.422 0-27.92-12.545-27.92-28.018 0-15.468 12.498-28.01 27.92-28.01 1.66 0 3.293 0.144 4.877 0.424l0.965-0.386a28.854 28.854 0 0 0 -5.842 -0.597c-15.728 0-28.483 12.789-28.483 28.569-1e-3 15.783 12.755 28.581 28.483 28.581zm-17.256 38.076c0.345-0.029 0.862-0.062 1.224-0.062 0.626 0 2.723 0 2.723 1.9 0 0.818-0.344 2.191-2.447 2.191-0.661 0-1.27-0.092-1.5-0.133zm-2.143-5.062c0.667 0.467 0.667 1.051 0.667 1.453v7.258c0 0.404 0 0.98-0.667 1.453h3.51c0.874 0 4.241-0.092 4.241-3.24 0-1.912-1.374-3.004-3.718-3.004-0.477 0-1.414 0.076-1.891 0.105v-2.859h3.034c0.506 0 1.075 0.023 1.523 0.506v-1.711a3.204 3.204 0 0 1 -0.523 0.039zm13.348 1.32 1.58 4.008h-3.138zm-1.356-1.32c0.591 0.277 0.39 0.826 0.333 0.977l-2.896 7.344c-0.271 0.697-0.563 1.348-1.315 1.844h2.734c-0.678-0.484-0.545-1.072-0.344-1.586l0.908-2.275h3.896l1.098 2.727c0.127 0.334 0.241 0.83-0.437 1.135h3.115c-0.712-0.381-1-0.928-1.236-1.498l-3.482-8.666h-2.374zm15.565 4.008v-2.555c0-0.477-0.018-0.986-0.666-1.453h2.805c-0.65 0.467-0.662 0.977-0.662 1.453v7.258c0 0.479 0.012 0.98 0.662 1.453h-2.805c0.648-0.473 0.666-0.975 0.666-1.453v-3.545h-5.573v3.545c0 0.479 0.018 0.98 0.667 1.453h-2.804c0.648-0.473 0.667-0.975 0.667-1.453v-7.258c0-0.477-0.018-0.986-0.667-1.453h2.804c-0.649 0.467-0.667 0.977-0.667 1.453v2.555zm7.057-4.008c-0.66 0.467-0.66 1.051-0.66 1.453v7.258c0 0.404 0 0.98 0.66 1.453h-2.805c0.668-0.473 0.668-1.049 0.668-1.453v-7.258c0-0.402 0-0.986-0.668-1.453zm1.885 1.846c0.391-0.525 0.592-0.842 0.592-1.135 0-0.348-0.275-0.588-0.523-0.711h2.781l-3.516 4.572 1.666 2.209c1.316 1.758 2.051 2.656 3.311 3.383l-1.547 0.068c-1.145 0.059-1.725-0.824-2.447-1.826l-2.574-3.512z" clip-rule="evenodd" fill="#5e5642" fill-rule="evenodd" stroke="#dad6cc" stroke-linejoin="round" stroke-miterlimit="2.613" stroke-width=".353"/>
<path d="m64.496 28.744c0-14.863 12.015-26.917 26.834-26.917 14.825 0 26.84 12.054 26.84 26.917 0 14.873-12.016 26.934-26.84 26.934-14.82 0-26.834-12.061-26.834-26.934z" clip-rule="evenodd" fill="#fff" fill-rule="evenodd" stroke="#5e5642" stroke-linejoin="round" stroke-miterlimit="2.613" stroke-width=".095"/>
<path d="m101.19 2.5305c10.557 3.992 18.066 14.225 18.066 26.214 0 15.473-12.504 28.018-27.926 28.018-15.422 0-27.92-12.545-27.92-28.018 0-15.468 12.498-28.01 27.92-28.01 1.66 0 3.293 0.144 4.877 0.424l0.965-0.386a28.854 28.854 0 0 0 -5.842 -0.597c-15.728 0-28.483 12.789-28.483 28.569 0 15.784 12.756 28.582 28.483 28.582 15.733 0 28.483-12.798 28.483-28.582 0-12.344-7.803-22.864-18.738-26.859z" clip-rule="evenodd" fill="#5e5642" fill-rule="evenodd"/>
<path d="m77.746 34.078c0.275-0.34 0.851-0.818 1.609-1.193 1.08-0.548 4.16-0.905 5.866-0.882 1.011 0.011 1.689 0.473 2.161 0.945 0.471 0.473-0.339 0.542-0.742 0.202-0.408-0.334-0.856-0.449-1.327-0.449s-0.971 0.184-1.235 0.38c-0.271 0.207-0.339 0.484-1.012 0.68-0.815 0.231-1.758-0.507-1.758-0.507 0.661 1.251 1.798 1.21 2.431 1.055 0.46-0.121 0.604-0.334 1.281-0.346 1.08-0.017 1.552 0.611 1.552 0.611-1.351-0.069-3.637 0.778-4.724 1.015-1.35 0.3-2.631 0.34-2.631 0.34 0.873 1.084 2.16 1.084 3.108 1.084 0.942 0 3.976-0.225 5.798-0.069 2.287 0.19 4.114 1.695 4.114 3.926 0 2.23-1.545 3.447-1.545 3.447 1.953-0.605 2.764-2.162 2.764-2.162 1.041 4.024-1.121 7.241-3.098 8.555-1.643 1.095-6.574 2.226-10.36 0.409-4.189-2.012-5.775-3.972-5.775-3.972 9.107 0.744 13.561-1.788 13.561-1.788-8.229 0.479-13.969-1.608-17.681-3.239a24.723 24.723 0 0 1 -3.194 -7.754v6e-3c6.809 5.142 12.848 6.024 12.848 6.024-7.355-3.995-11.015-8.468-13.446-12.929a24.917 24.917 0 0 1 1.495 -7.379l0.017-0.04c2.729 7.284 5.729 9.453 5.729 9.453-2.971-6.775-2.948-11.625-2.677-15.281a24.987 24.987 0 0 1 3.907 -4.364l0.022-0.026c-1.148 6.503 0.23 10.729 0.23 10.729 0-5.142 2.879-11.262 5.171-14.38a24.279 24.279 0 0 1 4.448 -1.715h5e-3c-2.091 2.638-3.011 5.197-3.011 5.197 4.293-4.098 11.4-6.56 12.48-6.837 1.08-0.265 4.189-1.418 5.068-1.617 0.805-0.193 1.195 0.32 1.145 0.81-0.068 0.637-0.34 1.695-0.34 1.695 2.385 0.583 3.418 1.758 3.418 1.758-0.09-0.317-0.045-0.858-0.045-0.858 3.287 2.934 4.184 4.332 4.275 6.992 0.092 2.663 1.258 3.07 1.93 3.43 0.678 0.36 2.346 1.314 2.881 1.764 0.4 0.34 0.229 0.72 0 0.991-0.225 0.268-0.225 0.36-0.266 0.674-0.201 1.384-0.816 1.943-1.668 2.254-0.855 0.314-1.803-0.179-1.803-0.179-0.943 1.038-1.121 0.36-1.166-0.043-0.041-0.407-0.541-0.09-0.896 0.043-0.361 0.135-0.494-0.36-0.494-0.36-1.713-0.225-2.459 0.79-2.459 0.79 1.486 0.202 2.234 1.216 2.297 1.623 0.07 0.415 0.742 0.135 0.742 0.135s0.062-0.135 0.34-0.268c0.27-0.136 0.338-0.069 0.27 0.268s-0.139 0.611-0.139 0.611l0.748 0.476c-0.277 1.831-1.08 1.752-1.488 1.554-2.592-1.3-7.217-1.554-7.217-1.554 0.27-0.407 0.918-0.928 0.918-0.928-11.871 0-13.876 1.446-14.485 2.21-0.42 0.53-0.058 1.352-0.058 1.352-1.414 0.271-4.999 1.179-6.373 2.443-1.321 1.211-1.763 4.053-1.81 5.102-0.011 0.218 0.202 0.212 0.294 0.086zm20.68-30.688c0.133-0.149 0-0.271-0.355-0.043-0.363 0.222-1.949 1.179-3.018 2.975-0.131 0.228-0.053 0.564 0.518 0.369a9.676 9.676 0 0 1 1.729 -0.415c0.316-0.047 0.316-0.269 0.094-0.355-0.225-0.095-0.277-0.182-0.18-0.544 0.085-0.361 0.718-1.401 1.212-1.987zm-2.971 4.868c-2.339 1.9-6.189 6.443-8.004 10.699-0.138 0.318 0 0.366 0.448 0.093 0.454-0.274 1.758-0.902 2.385-1.084 0 0-0.679 2.358-0.902 3.657-0.178 1.07 0.707 0.986 1.259 0.859 0.552-0.124 2.838-0.225 3.24-0.273 0 0-2.114-0.499-2.338-1.357-0.224-0.854 0.379-2.762 0.81-4.056 0.092-0.277-0.046-0.678-0.494-0.502-0.454 0.179-1.08 0.314-1.396 0.502 0 0 1.982-4.877 5.038-8.399l-0.046-0.139 10.486 2.173c-0.23 1.779-0.879 1.62-1.172 1.534-0.316-0.092-0.402-0.225-1.352-0.314-0.299-0.028-1.682-0.184-0.941 0.401 1.189 0.954 2.201 2.891 2.201 2.891 0.137-0.631-0.184-1.533-0.357-1.848-0.178-0.32 0.047-0.406 0.266-0.363 0.229 0.043 0.355 0.13 0.77 0.363 0.402 0.222 0.672 0.182 0.766-0.363 0.074-0.47 0.051-1.43-0.043-2.297-0.01-0.063-0.113-0.095-0.137-3e-3z" clip-rule="evenodd" fill="#5e5642" fill-rule="evenodd"/>
<path d="m108.94 46.806c-1.059-3.551-3.977-5.816-5.598-7.782-0.66-0.801-1.637-1.926-1.637-1.926 0.947 0.542 2.746 0.813 2.746 0.813-0.494-0.41-1.621-1.759-2.068-2.306-1.254-1.504-3.426-3.188-5.039-3.92-3.172-1.441-6.476-1.625-6.924-1.712-0.454-0.092-1.396 0.086-0.816-0.819 0.587-0.903 4.005-3.564 4.005-3.564-0.718 0-3.867 0.277-4.815 0.406-0.942 0.138-1.161-0.179-1.212-0.807 0 0-1.896 1.79-0.988 2.703 0.138 0.136 0.54 0.182 1.04-0.043 0.489-0.228 1.478-0.544 1.839-0.585 0 0-0.811 1.261-0.988 1.803-0.179 0.542-0.225 0.813 0.626 1.084 0.855 0.265 5.177 1.625 7.826 3.43 2.654 1.805 5.4 4.11 7.43 8.348 2.023 4.249 0.908 7.466 0.592 8.053a24.764 24.764 0 0 0 4.006 -3.193zm5.917-8.993c-2.602-2.122-7.172-5.909-12.744-7.211 0 0 7.951 3.188 10.791 11.212a25.065 25.065 0 0 0 1.953 -4.001z" clip-rule="evenodd" fill="#5e5642" fill-rule="evenodd"/>
<path d="m99.248 52.708c0.85-1.988 1.787-6.716 0.799-10.376 0 0 0.182 8.612-5.707 11.455a25.669 25.669 0 0 0 4.896 -1.073zm17.283-24.298c-0.764-0.31-5.471-1.647-5.471-1.647 1.576-0.086 2.207-1.256 2.207-1.256-1.482 0.4-3.734 0.582-5.619 0.311 0 0 4.361 1.894 8.705 6.029v-0.041c0.115-0.997 0.184-2.018 0.184-3.061 0-0.128 0-0.197-6e-3 -0.335z" clip-rule="evenodd" fill="#5e5642" fill-rule="evenodd"/>
<path d="m159.71 78.144-4.131-9.42h-4.074c0.529 0.381 1.127 1.02 1.367 1.58l-3.459 7.846c-0.357 0.812-0.627 1.193-1.482 1.988h4.092c-0.518-0.588-0.568-1.09-0.357-1.584 0 0 0.219-0.508 0.363-0.848h4.107l0.369 0.848c0.24 0.535 0.24 0.863-0.346 1.584h5.119c-0.843-0.744-1.189-1.135-1.568-1.994zm-6.746-2.547 1.127-2.543 1.115 2.543zm-112.99-5.075c1.672 0 2.046 0.547 2.85 1.545l1.695-3.896c-0.621 0.387-1.2 0.691-1.948 0.691-0.873 0-1.31-0.334-2.723-0.334-3.598 0-6.022 2.369-6.022 5.896 0 3.598 2.189 5.926 5.844 5.926 2.023 0 3.458-0.928 4.419-2.27l-0.828-1.875c-0.902 1.291-1.862 2.156-3.287 2.15-1.822 0-2.891-1.781-2.891-3.932 1e-3 -2.067 0.989-3.901 2.891-3.901zm14.986 7.506-3.494-4.227 3.281-3.135c0.988-0.939 1.448-1.314 2.437-1.943h-5.351c0.644 0.709 0.712 0.975 0.253 1.424 5e-3 0-3.195 3.057-3.195 3.057v-2.693c0-0.818 0.298-1.291 0.775-1.787h-4.688c0.488 0.496 0.782 0.969 0.782 1.787v7.846c0 0.812-0.294 1.281-0.782 1.781h4.688c-0.477-0.5-0.775-0.969-0.775-1.781v-2.848l2.632 3.164c0.454 0.549 0.299 0.832-0.225 1.465h5.993c-1.05-0.721-1.464-1.055-2.331-2.11zm13.974-9.304h-4.683c0.477 0.496 0.775 0.969 0.775 1.787v0.047l-3.689 4.375v-4.422c0-0.818 0.293-1.291 0.776-1.787h-4.683c0.477 0.496 0.776 0.969 0.776 1.787v7.846c0 0.812-0.299 1.281-0.776 1.781h4.683c-0.482-0.5-0.776-0.969-0.776-1.781v-0.086l3.689-4.381v4.467c0 0.812-0.299 1.281-0.775 1.781h4.683c-0.477-0.5-0.775-0.969-0.775-1.781v-7.846c0-0.819 0.299-1.291 0.775-1.787zm7.579-0.645c2.045 0 3.04-0.848 3.04-1.869 0-0.455-0.288-0.99-0.758-1.418h-2.035c0.518 0.502 0.661 0.963 0.661 1.176 0 0.203-0.229 0.611-0.908 0.611-0.684 0-0.908-0.408-0.908-0.611 0-0.213 0.133-0.674 0.661-1.176h-2.04c-0.46 0.428-0.758 0.963-0.758 1.418 0 1.021 0.994 1.869 3.045 1.869zm-56.633 0.645c0.299 0.49 0.391 0.836 0.086 1.592-6e-3 0-1.327 3.199-2.046 4.934l-2.115-4.934c-0.287-0.641-0.292-1.027 0.046-1.592h-4.925c0.685 0.623 1.046 1.137 1.477 1.994-6e-3 0 3.252 7.178 3.838 8.48-0.782 1.828-1.454 2.549-2.344 2.549-1.138 0-1.615-0.744-2.27-1.967l-1.137 2.428c0.632 0.662 1.729 1.592 3.338 1.592 2.643 0 3.688-1.955 4.7-4.324l3.735-8.773c0.402-0.924 0.764-1.453 1.241-1.979z" clip-rule="evenodd" fill="#fff" fill-rule="evenodd" stroke="#5e5642" stroke-linejoin="round" stroke-miterlimit="2.613" stroke-width=".095"/>
<path d="m9.7875 68.464c-0.983-0.984-2.488-1.51-4.35-1.51h-5.39c0.638 0.629 0.874 1.096 0.874 1.994v9.189c0 0.904-0.236 1.367-0.874 2h5.051c-0.638-0.633-0.867-1.096-0.867-2v-1.734h1.206c1.753 0 3.27-0.561 4.275-1.568 0.839-0.842 1.281-1.982 1.281-3.291 0-1.223-0.419-2.283-1.206-3.08zm-4.723 5.603h-0.833v-4.789h0.62c1.649 0 2.724 0.535 2.724 2.248 0 1.735-0.799 2.541-2.511 2.541zm24.214 4.289c-1.811 0-2.885-1.781-2.885-3.932 0-2.068 0.994-3.902 2.885-3.902 1.683 0 2.052 0.547 2.861 1.545l1.684-3.896c-0.615 0.387-1.196 0.691-1.942 0.691-0.874 0-1.31-0.334-2.724-0.334-3.597 0-6.016 2.369-6.016 5.896 0 3.598 2.19 5.926 5.838 5.926 2.023 0 3.459-0.928 4.424-2.27l-0.833-1.875c-0.902 1.292-1.856 2.157-3.292 2.151zm106-9.632h-4.689c0.482 0.496 0.781 0.969 0.781 1.787v2.682h-3.385v-2.682c0-0.818 0.289-1.291 0.777-1.787h-4.689c0.482 0.496 0.781 0.969 0.781 1.787v7.846c0 0.812-0.299 1.281-0.781 1.781h4.689c-0.488-0.5-0.777-0.969-0.777-1.781v-3.025h3.385v3.025c0 0.812-0.299 1.281-0.781 1.781h4.689c-0.482-0.5-0.781-0.969-0.781-1.781v-7.846c0-0.819 0.299-1.291 0.781-1.787zm-12.826 9.42-4.143-9.42h-4.068c0.535 0.381 1.121 1.02 1.369 1.58l-3.455 7.846c-0.361 0.812-0.631 1.193-1.488 1.988h4.092c-0.518-0.588-0.574-1.09-0.361-1.584l0.373-0.848h4.107l0.363 0.848c0.24 0.535 0.24 0.863-0.34 1.584h5.113c-0.837-0.744-1.187-1.135-1.562-1.994zm-6.746-2.547 1.127-2.543 1.109 2.543zm-33.452-6.873h-4.683c0.477 0.496 0.776 0.969 0.776 1.787v0.047l-3.688 4.375v-4.422c0-0.818 0.298-1.291 0.775-1.787h-4.688c0.488 0.496 0.782 0.969 0.782 1.787v7.846c0 0.812-0.294 1.281-0.782 1.781h4.688c-0.477-0.5-0.775-0.969-0.775-1.781v-0.086l3.688-4.381v4.467c0 0.812-0.299 1.281-0.776 1.781h4.683c-0.477-0.5-0.775-0.969-0.775-1.781v-7.846c-1e-3 -0.819 0.298-1.291 0.775-1.787zm63.954 8.595v-6.809c0-0.818 0.299-1.291 0.775-1.787h-9.314c0.482 0.496 0.775 0.969 0.775 1.787v4.664c0 1.982-0.355 2.824-2.207 3.586v2.777c0.92-0.824 2.275-1.4 3.523-1.4h4.223c1.5 0 2.707 0.756 3.521 1.4v-2.865c-0.796-0.239-1.296-0.517-1.296-1.353zm-3.133 0.461c0 0.168-0.045 0.213-0.166 0.213h-2.604c0.379-0.738 0.455-1.584 0.455-2.818v-4.082c0-0.127 0.045-0.225 0.217-0.225h2.098zm29.219-9.056-1.338 3.119a3.495 3.495 0 0 0 -0.955 -1.816c-0.85-0.848-2.16-1.303-3.781-1.303h-4.883c0.477 0.496 0.775 0.969 0.775 1.787v7.846c0 0.812-0.299 1.281-0.775 1.781h4.682c-0.482-0.5-0.781-0.969-0.781-1.781v-1.418h0.982c1.518 0 2.834-0.484 3.713-1.359 0.725-0.738 1.115-1.73 1.115-2.871 0-0.232-0.018-0.451-0.053-0.664 0.879-0.656 1.701-1.182 2.645-1.182l1.436 6e-3v7.488c0 0.812-0.293 1.281-0.775 1.781h4.682c-0.477-0.5-0.775-0.969-0.775-1.781v-7.488h1c0.953 0 1.166 0.156 1.74 1.037l1.393-3.182zm-6.389 6.07h-0.668v-3.949h0.488c0.822 0 1.379 0.168 1.725 0.508 0.287 0.295 0.432 0.727 0.432 1.332 0 1.464-0.615 2.109-1.977 2.109zm-69.029 3.418c-2.107 0-3.63-2.006-3.63-4.703 0-2.352 1.2-4.67 3.63-4.67 1.926 0 2.586 0.762 3.322 1.742l1.844-4.203c-0.678 0.438-1.32 0.68-2.113 0.68-0.867 0-1.811-0.393-3.201-0.393-4.183 0-6.987 2.756-6.987 6.844 0 3.973 2.534 6.877 6.786 6.877 2.408 0 4.051-1.096 5.098-2.6l-0.908-2.006c-0.927 1.395-1.954 2.432-3.841 2.432z" clip-rule="evenodd" fill="#fff" fill-rule="evenodd" stroke="#5e5642" stroke-linejoin="round" stroke-miterlimit="2.613" stroke-width=".095"/>
<path d="m109.48 70.868c0.955 0 1.168 0.156 1.742 1.037l1.391-3.182h-10.4l-1.477 3.459c0.941-0.727 1.814-1.32 2.82-1.32l1.615 6e-3v7.488c0 0.812-0.293 1.281-0.775 1.781h4.689c-0.484-0.5-0.777-0.969-0.777-1.781v-7.488z" clip-rule="evenodd" fill="#fff" fill-rule="evenodd" stroke="#5e5642" stroke-linejoin="round" stroke-miterlimit="2.613" stroke-width=".095"/>
<path d="m5.4375 75.906h-1.706v2.23c0 0.871 0.213 1.303 0.356 1.5h-3.062c0.138-0.197 0.391-0.629 0.391-1.5v-9.189c0-0.869-0.253-1.291-0.391-1.492h4.413c3.138 0 5.062 1.568 5.062 4.088 0 2.984-2.442 4.363-5.063 4.363zm-0.586-7.136h-1.12v5.793h1.333c1.534 0 3.011-0.611 3.011-3.037 0-2.215-1.604-2.756-3.224-2.756zm16.951 1.74-3.735 8.768c-1.086 2.555-2.051 4.02-4.24 4.02-1.316 0-2.259-0.715-2.741-1.193l0.586-1.252c0.569 0.98 1.305 1.391 2.224 1.391 1.27 0 2.068-1.084 2.89-3.057l-3.942-8.676c-0.258-0.576-0.511-1.061-0.798-1.291h3.085c-0.109 0.283-0.109 0.52 0.212 1.291l2.58 6.02 2.494-6.02c0.27-0.629 0.339-0.922 0.212-1.291h1.874c-0.287 0.368-0.465 0.731-0.701 1.29zm7.481-0.485c-2.35 0-3.384 2.215-3.384 4.398 0 3.178 1.885 4.422 3.384 4.422 1.477 0 2.419-0.709 3.167-1.678l0.379 0.842c-0.925 1.234-2.338 1.84-3.85 1.84-3.528 0-5.344-2.445-5.344-5.426 0-3.223 2.121-5.4 5.522-5.4 1.282 0 2.051 0.346 2.724 0.346 0.414 0 0.66-0.041 0.965-0.18l-0.839 1.926c-0.603-0.75-1.517-1.09-2.724-1.09zm10.688 0c-2.355 0-3.385 2.215-3.385 4.398 0 3.178 1.885 4.422 3.385 4.422 1.471 0 2.419-0.709 3.166-1.678l0.374 0.842c-0.925 1.234-2.333 1.84-3.844 1.84-3.528 0-5.344-2.445-5.344-5.426 0-3.223 2.12-5.4 5.522-5.4 1.281 0 2.045 0.346 2.723 0.346 0.409 0 0.661-0.041 0.96-0.18l-0.839 1.926c-0.603-0.75-1.511-1.09-2.718-1.09zm8.418 0.485c0-0.75 0.195-1.113 0.321-1.291h-2.775c0.121 0.178 0.316 0.541 0.316 1.291v7.846c0 0.744-0.195 1.102-0.316 1.281h2.775c-0.126-0.18-0.321-0.537-0.321-1.281z" clip-rule="evenodd" fill="#5e5642" fill-rule="evenodd"/>
<path d="m55.801 79.638c-0.287-0.215-0.753-0.715-1.23-1.281l-3.786-4.594 3.413-3.252c0.748-0.721 0.995-0.969 1.443-1.291h-2.85c0.212 0.305 0.282 0.662-0.356 1.291l-3.937 3.754 3.402 4.092c0.568 0.691 0.568 0.98 0.356 1.281zm9.418 0c0.126-0.18 0.298-0.537 0.298-1.281v-5.828l-4.683 5.559v0.27c0 0.744 0.196 1.102 0.328 1.281h-2.781c0.121-0.18 0.321-0.537 0.321-1.281v-7.846c0-0.75-0.201-1.113-0.321-1.291h2.781c-0.132 0.178-0.328 0.541-0.328 1.291v5.787l4.683-5.557v-0.23c0-0.75-0.172-1.113-0.298-1.291h2.74c-0.126 0.178-0.299 0.541-0.299 1.291v7.846c0 0.744 0.173 1.102 0.299 1.281h-2.74zm11.291-12.055c-1.799 0-2.551-0.686-2.551-1.326 0-0.34 0.178-0.732 0.454-0.963h0.937c-0.161 0.248-0.247 0.449-0.247 0.768 0 0.352 0.425 1.014 1.408 1.014 0.977 0 1.391-0.662 1.391-1.014 0-0.318-0.092-0.52-0.252-0.768h0.942c0.27 0.23 0.448 0.623 0.448 0.963-1e-3 0.64-0.731 1.326-2.53 1.326zm2.034 12.055c0.115-0.18 0.299-0.537 0.299-1.281v-5.828l-4.688 5.559v0.27c0 0.744 0.201 1.102 0.321 1.281h-2.781c0.133-0.18 0.322-0.537 0.322-1.281v-7.846c0-0.75-0.189-1.113-0.322-1.291h2.781c-0.121 0.178-0.321 0.541-0.321 1.291v5.787l4.688-5.557v-0.23c0-0.75-0.184-1.113-0.299-1.291h2.735c-0.126 0.178-0.304 0.541-0.304 1.291v7.846c0 0.744 0.178 1.102 0.304 1.281h-2.735zm18.329-11.289c-2.757 0-4.13 2.588-4.13 5.16 0 3.736 2.372 5.199 4.13 5.199 1.736 0 2.852-0.824 3.725-1.965l0.449 0.986c-1.086 1.457-2.742 2.16-4.523 2.16-4.131 0-6.292-2.883-6.292-6.381 0-3.787 2.494-6.348 6.481-6.348 1.518 0 2.414 0.398 3.213 0.398 0.5 0 0.781-0.041 1.137-0.195l-0.994 2.266c-0.711-0.876-1.764-1.28-3.196-1.28zm14.229 2.588c-0.432-0.553-1.057-0.57-1.627-0.57h-1.672v7.99c0 0.744 0.195 1.102 0.322 1.281h-2.781c0.127-0.18 0.322-0.537 0.322-1.281v-7.99h-1.408c-0.781 0-1.527-0.098-2.477 0.57l0.748-1.717h9.314zm8.664 8.701c0.127-0.18 0.236-0.59-0.074-1.281l-0.494-1.146h-4.752l-0.506 1.146c-0.303 0.691-0.189 1.102-0.068 1.281h-2.08c0.23-0.232 0.477-0.537 0.816-1.281l3.545-8.064-0.035-0.074c-0.211-0.496-0.447-0.785-0.695-0.998h2.562l4.006 9.137c0.344 0.744 0.592 1.049 0.822 1.281h-3.047zm-2.936-7.83-1.896 4.295h3.77zm14.711 7.83c0.125-0.18 0.322-0.537 0.322-1.281v-3.521h-4.379v3.521c0 0.744 0.211 1.102 0.32 1.281h-2.781c0.127-0.18 0.322-0.537 0.322-1.281v-7.846c0-0.75-0.195-1.113-0.322-1.291h2.781c-0.109 0.178-0.32 0.541-0.32 1.291v3.178h4.379v-3.178c0-0.75-0.197-1.113-0.322-1.291h2.779c-0.109 0.178-0.32 0.541-0.32 1.291v7.846c0 0.744 0.211 1.102 0.32 1.281zm12.44 0h-4.223c-0.781 0-2.08 0.287-3.029 0.951v-1.506c1.816-0.836 2.207-1.949 2.207-3.908v-4.664c0-0.75-0.195-1.113-0.322-1.291h7.412c-0.127 0.178-0.32 0.541-0.32 1.291v6.809c0 0.744 0.311 1.377 1.299 1.707v1.562c-0.944-0.664-2.243-0.951-3.024-0.951zm-0.414-9.272h-2.707a0.593 0.593 0 0 0 -0.602 0.588v4.221c0 1.527-0.219 2.623-0.875 3.32h3.58c0.34 0 0.604-0.271 0.604-0.611zm13.462 9.272c0.127-0.18 0.23-0.59-0.068-1.281l-0.494-1.146h-4.764l-0.5 1.146c-0.299 0.691-0.189 1.102-0.068 1.281h-2.082c0.232-0.232 0.484-0.537 0.822-1.281l3.547-8.064-0.047-0.074c-0.207-0.496-0.438-0.785-0.689-0.998h2.562l4.006 9.137c0.338 0.744 0.586 1.049 0.822 1.281h-3.047zm-2.935-7.83-1.891 4.295h3.764zm12.123 4.634h-1.477v1.914c0 0.744 0.219 1.102 0.322 1.281h-2.775c0.121-0.18 0.316-0.537 0.316-1.281v-7.846c0-0.75-0.195-1.113-0.316-1.291h3.93c2.695 0 4.334 1.326 4.334 3.488 0 2.548-2.086 3.735-4.334 3.735zm-0.494-6.097h-0.982v4.951h1.162c1.293 0 2.477-0.531 2.477-2.611-1e-3 -1.891-1.267-2.34-2.657-2.34zm15.101 0.592c-0.432-0.553-1.051-0.57-1.621-0.57h-1.492v7.99c0 0.744 0.188 1.102 0.314 1.281h-2.775c0.127-0.18 0.316-0.537 0.316-1.281v-7.99h-1.225c-0.787 0-1.533-0.098-2.477 0.57l0.748-1.717h8.957z" clip-rule="evenodd" fill="#5e5642" fill-rule="evenodd"/>
<path d="m185.13 71.698a1.787 1.787 0 0 0 1.785 -1.793 1.78 1.78 0 0 0 -1.785 -1.785 1.783 1.783 0 0 0 -1.793 1.785c0 0.496 0.201 0.943 0.523 1.268a1.8 1.8 0 0 0 1.27 0.525zm1.418-0.369a2.008 2.008 0 0 1 -2.842 0 2.002 2.002 0 0 1 0 -2.842 2.015 2.015 0 0 1 2.842 0c0.363 0.363 0.588 0.863 0.588 1.418 0 0.559-0.225 1.061-0.588 1.424z" fill="#5e5642"/>
<path d="m184.45 68.788h0.771c0.234 0 0.672 0.039 0.672 0.633 0 0.34-0.174 0.525-0.375 0.576v0.018c0.295 0.07 0.316 0.318 0.322 0.566 6e-3 0.328 0 0.426 0.07 0.559h-0.299c-0.07-0.109-0.07-0.186-0.07-0.496-6e-3 -0.219 0-0.502-0.361-0.502h-0.432v0.998h-0.299v-2.352zm0.299 1.088h0.461c0.125 0 0.367-0.057 0.367-0.426 0-0.299-0.154-0.398-0.402-0.398h-0.426z" clip-rule="evenodd" fill="#5e5642" fill-rule="evenodd"/>
</svg>
