<svg xmlns="http://www.w3.org/2000/svg" width="71.295" height="96" fill="none"><g fill-rule="evenodd"><path d="M10.794 96h48.82c9.426 0 14.956-10.263 9.562-17.745l-20.34-28.208a5.53 5.53 0 0 1-.45-5.761L10.794 96z" fill="url(#A)"/><path d="M60.5 0H11.68C2.254 0-3.276 10.264 2.12 17.745l20.34 28.208a5.53 5.53 0 0 1 .45 5.761l15.676-21.58L60.5 0z" fill="url(#B)"/><path d="M60.233 0L2.2 78.227C-3.125 85.394 1.808 95.16 10.7 96l58.034-78.227c5.324-7.167.39-16.933-8.5-17.773z" fill="#ffdd87"/></g><defs><linearGradient id="A" x1="71.295" y1="93.191" x2="22.273" y2="44.104" gradientUnits="userSpaceOnUse"><stop stop-color="#2965ff"/><stop offset="1" stop-color="#2519ab"/></linearGradient><linearGradient id="B" x1="0" y1="2.809" x2="49.022" y2="51.896" gradientUnits="userSpaceOnUse"><stop stop-color="#2965ff"/><stop offset="1" stop-color="#2519ab"/></linearGradient></defs></svg>