<?xml version="1.0" encoding="UTF-8"?>
<svg width="8.3651mm" height="8.3718mm" version="1.1" viewBox="0 0 29.639997 29.663752" xmlns="http://www.w3.org/2000/svg" xmlns:cc="http://creativecommons.org/ns#" xmlns:dc="http://purl.org/dc/elements/1.1/" xmlns:rdf="http://www.w3.org/1999/02/22-rdf-syntax-ns#">
<metadata>
<rdf:RDF>
<cc:Work rdf:about="">
<dc:format>image/svg+xml</dc:format>
<dc:type rdf:resource="http://purl.org/dc/dcmitype/StillImage"/>
<dc:title/>
</cc:Work>
</rdf:RDF>
</metadata>
<g transform="translate(617.31 -8.7581)">
<g transform="matrix(1.25 0 0 -1.25 -592.2 8.7581)">
<path d="m0 0h-16.471c-2 0-3.621-1.661-3.621-3.71v-16.312c0-2.029 1.591-3.679 3.565-3.709h16.518c2 0 3.622 1.66 3.622 3.709l7e-3 16.312c0 2.049-1.62 3.71-3.62 3.71m-14.514-21.83-0.898-0.01c-1.088 0-1.97 0.894-1.97 1.997l-5e-3 0.157v15.064l6e-3 0.812c0.041 1.067 0.852 1.925 1.913 1.925h1.827c1.656 0 2.998-1.44 2.998-3.137 0-0.84-0.329-1.602-0.862-2.156l-4.661-4.73 4.369-4.449c0.563-0.581 0.903-1.343 0.903-2.178 0-1.82-1.62-3.295-3.62-3.295m13.431 0.015-8.145 3e-3s0.941 2.035 0.941 3.295c0 1.537-0.513 2.909-1.317 3.817l-2.786 2.84 2.843 2.938c0.847 0.795 1.409 2.207 1.409 3.816 0 1.274-0.352 2.402-0.919 3.221h1.973c1.656 0 2.999-1.44 2.999-3.137 0-0.84-0.329-1.602-0.862-2.156l-4.572-4.681 9.496-9.683c-0.301-0.189-0.68-0.273-1.06-0.273m1.989 3.023-6.805 6.936 3.241 3.294c0.659 0.825 1.078 2.067 1.078 3.456 0 1.282-0.357 2.439-0.929 3.258l1.45-0.044c1.088 0 1.97-0.894 1.97-1.997z" fill="#00529c"/>
</g>
</g>
</svg>
