<?xml version="1.0" encoding="UTF-8"?>
<svg width="35.56mm" height="8.3718mm" version="1.1" viewBox="0 0 126.00036 29.663752" xmlns="http://www.w3.org/2000/svg" xmlns:cc="http://creativecommons.org/ns#" xmlns:dc="http://purl.org/dc/elements/1.1/" xmlns:rdf="http://www.w3.org/1999/02/22-rdf-syntax-ns#">
<defs>
<clipPath id="a">
<path d="m0 0h595.28v841.89h-595.28v-841.89z"/>
</clipPath>
<clipPath id="b">
<path d="m0 0h595.28v841.89h-595.28v-841.89z"/>
</clipPath>
</defs>
<metadata>
<rdf:RDF>
<cc:Work rdf:about="">
<dc:format>image/svg+xml</dc:format>
<dc:type rdf:resource="http://purl.org/dc/dcmitype/StillImage"/>
<dc:title/>
</cc:Work>
</rdf:RDF>
</metadata>
<g transform="translate(617.31 -8.7581)">
<g transform="matrix(1.25 0 0 -1.25 -708.82 347.27)">
<g clip-path="url(#b)">
<g transform="translate(100.48 264.86)">
<path d="m0 0h5.432c2.2 0 3.84-0.964 3.84-2.995 0-1.489-0.761-2.318-2.081-2.758v-0.034c1.574-0.322 2.386-1.168 2.386-2.606 0-2.826-2.488-3.418-4.603-3.418h-4.974v11.811zm3.147-4.671h0.88c1.032 0 2.099 0.254 2.099 1.253 0 1.082-1.016 1.184-2.066 1.184h-0.913v-2.437zm0-4.907h0.931c1.151 0 2.352 0.17 2.352 1.371 0 1.286-1.235 1.404-2.319 1.404h-0.964v-2.775z" fill="#00529c"/>
</g>
</g>
</g>
<g transform="matrix(1.25 0 0 -1.25 -566.08 16.203)">
<path d="m0 0h3.858l4.552-11.811h-3.452l-0.88 2.521h-4.433l-0.931-2.521h-3.198l4.484 11.811zm1.929-2.437h-0.034l-1.523-4.62h2.962l-1.405 4.62z" fill="#00529c"/>
</g>
<g transform="matrix(1.25 0 0 -1.25 -555.02 16.203)">
<path d="m0 0h4.01l3.994-8.021h0.033l-0.05 8.021h2.877v-11.811h-3.91l-4.128 8.072h-0.033l0.1-8.072h-2.893v11.811z" fill="#00529c"/>
</g>
<g transform="matrix(1.25 0 0 -1.25 -540.11 16.203)">
<path d="m0 0h3.147v-4.823h0.034l3.553 4.823h3.79l-4.365-5.499 4.704-6.312h-4.011l-3.671 5.364h-0.034v-5.364h-3.147v11.811z" fill="#00529c"/>
</g>
<g transform="matrix(1.25 0 0 -1.25 -708.82 347.27)">
<g clip-path="url(#a)">
<g transform="translate(149.73 264.86)">
<path d="m0 0h5.432c2.199 0 3.841-0.964 3.841-2.995 0-1.489-0.761-2.318-2.081-2.758v-0.034c1.574-0.322 2.385-1.168 2.385-2.606 0-2.826-2.487-3.418-4.602-3.418h-4.975v11.811zm3.147-4.671h0.88c1.033 0 2.098 0.254 2.098 1.253 0 1.082-1.014 1.184-2.064 1.184h-0.914v-2.437zm0-4.907h0.931c1.15 0 2.352 0.17 2.352 1.371 0 1.286-1.235 1.404-2.318 1.404h-0.965v-2.775z" fill="#00529c"/>
</g>
<g transform="translate(160.01 264.86)">
<path d="m0 0h5.618c2.098 0 3.807-0.948 3.807-2.979 0-1.573-0.744-2.622-2.267-2.977v-0.034c1.014-0.271 1.082-1.168 1.675-2.606l1.15-3.215h-3.282l-0.677 2.131c-0.643 2.031-1.05 2.54-2.217 2.54h-0.66v-4.671h-3.147v11.811zm3.147-4.907h0.829c1.016 0 2.302 0.034 2.302 1.371 0 1.099-1.1 1.302-2.302 1.302h-0.829v-2.673z" fill="#00529c"/>
</g>
</g>
</g>
<path d="m-495.24 16.203h3.9338v14.764h-3.9338v-14.764z" fill="#00529c"/>
<g transform="matrix(1.25 0 0 -1.25 -592.2 8.7581)">
<path d="m0 0h-16.471c-2 0-3.621-1.661-3.621-3.71v-0.039-16.273c0-2.029 1.591-3.679 3.565-3.709h16.518c2 0 3.622 1.66 3.622 3.709l7e-3 16.312c0 2.049-1.62 3.71-3.62 3.71m-14.514-21.83-0.898-0.01c-1.088 0-1.97 0.894-1.97 1.997l-5e-3 0.157v15.064l6e-3 0.812c0.041 1.067 0.852 1.925 1.913 1.925h1.827c1.656 0 2.998-1.44 2.998-3.137 0-0.84-0.329-1.602-0.862-2.156l-4.661-4.73 4.369-4.449c0.563-0.581 0.903-1.343 0.903-2.178 0-1.82-1.62-3.295-3.62-3.295m13.431 0.015-8.145 3e-3s0.941 2.035 0.941 3.295c0 1.537-0.513 2.909-1.317 3.817l-2.786 2.84 2.843 2.938c0.847 0.795 1.409 2.207 1.409 3.816 0 1.274-0.352 2.402-0.919 3.221h1.973c1.656 0 2.999-1.44 2.999-3.137 0-0.84-0.329-1.602-0.862-2.156l-4.572-4.681 9.496-9.683c-0.301-0.189-0.68-0.273-1.06-0.273m1.989 3.023-6.805 6.936 3.241 3.294c0.659 0.825 1.078 2.067 1.078 3.456 0 1.282-0.357 2.439-0.929 3.258l1.45-0.044c1.088 0 1.97-0.894 1.97-1.997l-5e-3 -14.903z" fill="#00529c"/>
</g>
</g>
</svg>
