<?xml version="1.0" encoding="UTF-8" standalone="no"?>
<!-- Generator: Adobe Illustrator 23.0.3, SVG Export Plug-In . SVG Version: 6.00 Build 0)  -->

<svg
   xmlns:dc="http://purl.org/dc/elements/1.1/"
   xmlns:cc="http://creativecommons.org/ns#"
   xmlns:rdf="http://www.w3.org/1999/02/22-rdf-syntax-ns#"
   xmlns:svg="http://www.w3.org/2000/svg"
   xmlns="http://www.w3.org/2000/svg"
   xmlns:xlink="http://www.w3.org/1999/xlink"
   xmlns:sodipodi="http://sodipodi.sourceforge.net/DTD/sodipodi-0.dtd"
   xmlns:inkscape="http://www.inkscape.org/namespaces/inkscape"
   version="1.1"
   id="Слой_1"
   x="0px"
   y="0px"
   width="184.08438"
   height="163.15578"
   viewBox="0 0 184.08438 163.15578"
   enable-background="new 0 0 360.15 168"
   xml:space="preserve"
   sodipodi:docname="icon.svg"
   inkscape:version="0.92.4 5da689c313, 2019-01-14"><metadata
   id="metadata22"><rdf:RDF><cc:Work
       rdf:about=""><dc:format>image/svg+xml</dc:format><dc:type
         rdf:resource="http://purl.org/dc/dcmitype/StillImage" /><dc:title></dc:title></cc:Work></rdf:RDF></metadata><defs
   id="defs20"><linearGradient
     inkscape:collect="always"
     id="linearGradient852"><stop
       style="stop-color:#000000;stop-opacity:1;"
       offset="0"
       id="stop848" /><stop
       style="stop-color:#000000;stop-opacity:0;"
       offset="1"
       id="stop850" /></linearGradient><linearGradient
     inkscape:collect="always"
     xlink:href="#SVGID_1_"
     id="linearGradient40"
     gradientUnits="userSpaceOnUse"
     gradientTransform="matrix(1,0,0,-1,0,18.7087)"
     x1="6.2265"
     y1="0.55320001"
     x2="11.8687"
     y2="14.4491" /><radialGradient
     inkscape:collect="always"
     xlink:href="#linearGradient852"
     id="radialGradient856"
     cx="9.4775"
     cy="8.3999996"
     fx="9.4775"
     fy="8.3999996"
     r="9.4775"
     gradientTransform="matrix(1,0,0,0.88630968,0,0.95499868)"
     gradientUnits="userSpaceOnUse" /></defs><sodipodi:namedview
   pagecolor="#ffffff"
   bordercolor="#666666"
   borderopacity="1"
   objecttolerance="10"
   gridtolerance="10"
   guidetolerance="10"
   inkscape:pageopacity="0"
   inkscape:pageshadow="2"
   inkscape:window-width="1920"
   inkscape:window-height="1146"
   id="namedview18"
   showgrid="false"
   fit-margin-top="0"
   fit-margin-left="0"
   fit-margin-right="0"
   fit-margin-bottom="0"
   inkscape:zoom="0.69693185"
   inkscape:cx="180.075"
   inkscape:cy="79.155768"
   inkscape:window-x="0"
   inkscape:window-y="0"
   inkscape:window-maximized="1"
   inkscape:current-layer="Слой_1" />
<g
   id="g15"
   transform="scale(9.7116532)">
	
	<g
   id="g13">
		
			<linearGradient
   id="SVGID_1_"
   gradientUnits="userSpaceOnUse"
   x1="6.2265"
   y1="0.55320001"
   x2="11.8687"
   y2="14.4491"
   gradientTransform="matrix(1,0,0,-1,0,18.7087)">
			<stop
   offset="0"
   style="stop-color:#785DA7"
   id="stop6" />
			<stop
   offset="1"
   style="stop-color:#2AC5F4"
   id="stop8" />
		</linearGradient>
		<path
   d="M 15.461,8.04 C 16.8,7.439 17.836,6.476 18.431,5.281 H 9.101 L 8.853,6.131 6.545,4.23 9.922,2.456 9.712,3.18 h 9.243 C 18.918,1.256 17.169,0 13.48,0 H 4.888 l -3.22,11.068 h 8.462 l 0.248,-0.851 2.308,1.901 -3.377,1.774 0.211,-0.724 H 1.057 L 0,16.8 h 9.072 c 4.512,0 7.408,-1.704 8.253,-4.608 0.594,-2.04 -0.163,-3.48 -1.864,-4.152 z"
   id="path11"
   style="clip-rule:evenodd;fill:url(#linearGradient40);fill-rule:evenodd"
   inkscape:connector-curvature="0" />
	</g>
</g>
<g
   transform="scale(9.7116532)"
   id="g38"
   style="fill:none;fill-opacity:1">
	
	<g
   id="g36"
   style="fill:none;fill-opacity:1">
		
			<linearGradient
   gradientTransform="matrix(1,0,0,-1,0,18.7087)"
   y2="14.4491"
   x2="11.8687"
   y1="0.55320001"
   x1="6.2265"
   gradientUnits="userSpaceOnUse"
   id="linearGradient32"
   style="fill-opacity:1;fill:url(#radialGradient856)">
			<stop
   id="stop28"
   style="stop-color:#785DA7;fill-opacity:1;fill:url(#radialGradient856)"
   offset="0" />
			<stop
   id="stop30"
   style="stop-color:#2AC5F4;fill-opacity:1;fill:url(#radialGradient856)"
   offset="1" />
		</linearGradient>
		<path
   inkscape:connector-curvature="0"
   style="clip-rule:evenodd;fill:none;fill-rule:evenodd;fill-opacity:1"
   id="path34"
   d="M 15.461,8.04 C 16.8,7.439 17.836,6.476 18.431,5.281 H 9.101 L 8.853,6.131 6.545,4.23 9.922,2.456 9.712,3.18 h 9.243 C 18.918,1.256 17.169,0 13.48,0 H 4.888 l -3.22,11.068 h 8.462 l 0.248,-0.851 2.308,1.901 -3.377,1.774 0.211,-0.724 H 1.057 L 0,16.8 h 9.072 c 4.512,0 7.408,-1.704 8.253,-4.608 0.594,-2.04 -0.163,-3.48 -1.864,-4.152 z" />
	</g>
</g></svg>