<?xml version="1.0" encoding="UTF-8" standalone="no"?>
<!-- Generator: Adobe Illustrator 23.0.3, SVG Export Plug-In . SVG Version: 6.00 Build 0)  -->

<svg
   xmlns:dc="http://purl.org/dc/elements/1.1/"
   xmlns:cc="http://creativecommons.org/ns#"
   xmlns:rdf="http://www.w3.org/1999/02/22-rdf-syntax-ns#"
   xmlns:svg="http://www.w3.org/2000/svg"
   xmlns="http://www.w3.org/2000/svg"
   xmlns:xlink="http://www.w3.org/1999/xlink"
   xmlns:sodipodi="http://sodipodi.sourceforge.net/DTD/sodipodi-0.dtd"
   xmlns:inkscape="http://www.inkscape.org/namespaces/inkscape"
   version="1.1"
   id="Слой_1"
   x="0px"
   y="0px"
   width="349.83868"
   height="163.15578"
   viewBox="0 0 349.83869 163.15578"
   enable-background="new 0 0 360.15 168"
   xml:space="preserve"
   sodipodi:docname="logo (2).svg"
   inkscape:version="0.92.3 (2405546, 2018-03-11)"><metadata
   id="metadata22"><rdf:RDF><cc:Work
       rdf:about=""><dc:format>image/svg+xml</dc:format><dc:type
         rdf:resource="http://purl.org/dc/dcmitype/StillImage" /><dc:title></dc:title></cc:Work></rdf:RDF></metadata><defs
   id="defs20"><linearGradient
     inkscape:collect="always"
     xlink:href="#SVGID_1_"
     id="linearGradient40"
     gradientUnits="userSpaceOnUse"
     gradientTransform="matrix(1,0,0,-1,0,18.7087)"
     x1="6.2265"
     y1="0.55320001"
     x2="11.8687"
     y2="14.4491" /><linearGradient
     inkscape:collect="always"
     xlink:href="#SVGID_1_"
     id="linearGradient42"
     gradientUnits="userSpaceOnUse"
     gradientTransform="matrix(1,0,0,-1,0,18.7087)"
     x1="6.2265"
     y1="0.55320001"
     x2="11.8687"
     y2="14.4491" /></defs><sodipodi:namedview
   pagecolor="#ffffff"
   bordercolor="#666666"
   borderopacity="1"
   objecttolerance="10"
   gridtolerance="10"
   guidetolerance="10"
   inkscape:pageopacity="0"
   inkscape:pageshadow="2"
   inkscape:window-width="640"
   inkscape:window-height="480"
   id="namedview18"
   showgrid="false"
   fit-margin-top="0"
   fit-margin-left="0"
   fit-margin-right="0"
   fit-margin-bottom="0"
   inkscape:zoom="0.69693185"
   inkscape:cx="180.075"
   inkscape:cy="79.155771"
   inkscape:window-x="0"
   inkscape:window-y="0"
   inkscape:window-maximized="0"
   inkscape:current-layer="Слой_1" />
<g
   id="g15"
   transform="scale(9.7116532)">
	<g
   id="g4">
		<path
   d="M 25.605,6.652 C 25.509,6.992 25.364,7.273 25.172,7.497 24.98,7.721 24.756,7.898 24.5,8.029 24.244,8.16 23.961,8.251 23.651,8.303 23.341,8.355 23.018,8.38 22.684,8.38 22.556,8.38 22.425,8.378 22.293,8.372 22.161,8.367 22.033,8.36 21.909,8.352 21.785,8.344 21.671,8.336 21.566,8.325 21.461,8.315 21.372,8.302 21.299,8.286 21.152,8.26 21.056,8.214 21.011,8.147 20.966,8.08 20.968,7.959 21.018,7.785 l 1.333,-4.69 c 0.05,-0.175 0.115,-0.296 0.195,-0.362 0.08,-0.067 0.199,-0.113 0.355,-0.139 0.07,-0.01 0.159,-0.021 0.267,-0.031 0.108,-0.01 0.227,-0.019 0.355,-0.027 0.128,-0.008 0.26,-0.014 0.395,-0.02 0.135,-0.005 0.264,-0.008 0.388,-0.008 0.365,0 0.689,0.027 0.972,0.081 0.283,0.054 0.513,0.143 0.692,0.266 0.179,0.123 0.298,0.288 0.357,0.493 0.06,0.206 0.046,0.463 -0.042,0.772 l -0.039,0.139 c -0.071,0.252 -0.192,0.478 -0.363,0.679 -0.17,0.201 -0.373,0.352 -0.607,0.455 0.176,0.103 0.3,0.252 0.37,0.447 0.07,0.196 0.067,0.427 -0.008,0.694 z M 24.989,4.207 C 25.049,3.996 25.015,3.84 24.886,3.74 24.758,3.64 24.495,3.59 24.1,3.59 c -0.031,0 -0.073,0 -0.127,0 -0.054,0 -0.111,0 -0.17,0 -0.059,0 -0.116,0.001 -0.171,0.004 -0.055,0.003 -0.095,0.004 -0.121,0.004 l -0.379,1.334 h 0.864 c 0.154,0 0.286,-0.017 0.396,-0.05 0.11,-0.034 0.202,-0.077 0.276,-0.131 0.075,-0.054 0.135,-0.118 0.182,-0.193 0.047,-0.075 0.082,-0.153 0.105,-0.235 z m -0.631,2.33 C 24.41,6.352 24.397,6.191 24.318,6.055 24.239,5.919 24.044,5.851 23.736,5.851 h -0.864 l -0.41,1.443 c 0.031,0 0.076,0 0.135,0 0.059,0 0.121,0.001 0.184,0.004 0.063,0.001 0.124,0.002 0.184,0.002 0.059,0 0.101,0 0.127,0 0.396,0 0.687,-0.059 0.872,-0.177 0.185,-0.118 0.308,-0.286 0.37,-0.501 z m 3.034,1.62 1.543,-5.431 C 28.963,2.628 28.928,2.58 28.83,2.58 h -1.033 c -0.093,0 -0.153,0.049 -0.181,0.146 l -1.543,5.431 c -0.012,0.041 -0.009,0.077 0.008,0.108 0.017,0.031 0.046,0.046 0.087,0.046 h 1.034 c 0.041,0 0.08,-0.016 0.117,-0.046 0.037,-0.031 0.061,-0.067 0.073,-0.108 z M 31.776,8.118 C 31.751,8.206 31.684,8.26 31.576,8.28 31.51,8.295 31.424,8.308 31.318,8.318 31.212,8.328 31.1,8.339 30.981,8.349 30.862,8.359 30.743,8.367 30.623,8.372 30.503,8.377 30.392,8.38 30.289,8.38 30.042,8.38 29.81,8.359 29.593,8.318 29.376,8.277 29.198,8.197 29.059,8.079 28.92,7.96 28.831,7.792 28.79,7.573 28.749,7.354 28.779,7.07 28.878,6.721 l 1.133,-3.988 c 0.012,-0.041 0.037,-0.077 0.077,-0.108 0.039,-0.031 0.08,-0.046 0.121,-0.046 h 1.01 c 0.041,0 0.073,0.015 0.095,0.046 0.022,0.031 0.027,0.067 0.016,0.108 l -1.133,3.988 c -0.057,0.201 -0.059,0.338 -0.005,0.413 0.053,0.075 0.17,0.112 0.35,0.112 h 1.327 c 0.041,0 0.073,0.015 0.095,0.046 0.022,0.031 0.027,0.067 0.016,0.108 z m 3.834,0 C 35.585,8.206 35.518,8.26 35.41,8.28 35.344,8.295 35.258,8.308 35.152,8.318 35.046,8.328 34.934,8.339 34.815,8.349 34.696,8.359 34.577,8.367 34.457,8.372 34.337,8.377 34.226,8.38 34.123,8.38 33.876,8.38 33.644,8.359 33.427,8.318 33.21,8.277 33.032,8.197 32.893,8.079 32.754,7.96 32.665,7.792 32.624,7.573 32.583,7.354 32.613,7.07 32.712,6.721 l 1.133,-3.988 c 0.012,-0.041 0.037,-0.077 0.077,-0.108 0.039,-0.031 0.08,-0.046 0.121,-0.046 h 1.01 c 0.041,0 0.073,0.015 0.095,0.046 0.022,0.031 0.027,0.067 0.016,0.108 l -1.133,3.988 c -0.057,0.201 -0.059,0.338 -0.005,0.413 0.054,0.075 0.17,0.112 0.35,0.112 h 1.327 c 0.041,0 0.073,0.015 0.095,0.046 0.022,0.031 0.027,0.067 0.016,0.108 z m -13.358,6.915 c -0.025,0.088 -0.092,0.141 -0.2,0.162 -0.066,0.015 -0.152,0.028 -0.258,0.039 -0.106,0.01 -0.218,0.021 -0.337,0.031 -0.119,0.01 -0.238,0.018 -0.358,0.023 -0.12,0.005 -0.231,0.008 -0.334,0.008 -0.247,0 -0.479,-0.021 -0.696,-0.062 -0.217,-0.041 -0.395,-0.121 -0.534,-0.239 -0.138,-0.118 -0.228,-0.287 -0.269,-0.505 -0.041,-0.219 -0.012,-0.503 0.088,-0.852 L 20.487,9.65 c 0.012,-0.041 0.037,-0.077 0.077,-0.108 0.04,-0.031 0.08,-0.046 0.121,-0.046 h 1.011 c 0.041,0 0.073,0.015 0.095,0.046 0.022,0.031 0.027,0.067 0.016,0.108 l -1.133,3.988 c -0.057,0.201 -0.059,0.338 -0.005,0.413 0.053,0.075 0.17,0.112 0.35,0.112 h 1.327 c 0.041,0 0.073,0.015 0.095,0.046 0.022,0.031 0.027,0.067 0.016,0.108 z m 2.018,0.038 c -0.012,0.041 -0.036,0.077 -0.073,0.108 -0.037,0.031 -0.076,0.046 -0.117,0.046 h -1.034 c -0.041,0 -0.07,-0.016 -0.087,-0.046 -0.017,-0.031 -0.019,-0.067 -0.008,-0.108 L 24.494,9.64 c 0.028,-0.097 0.088,-0.146 0.18,-0.146 h 1.034 c 0.098,0 0.133,0.049 0.105,0.146 z M 29.933,14.932 31.436,9.64 C 31.448,9.599 31.442,9.564 31.419,9.536 31.396,9.508 31.364,9.494 31.323,9.494 h -0.91 c -0.041,0 -0.081,0.014 -0.12,0.042 -0.039,0.028 -0.064,0.063 -0.076,0.104 l -0.927,3.263 c -0.013,0.046 -0.033,0.069 -0.058,0.069 -0.015,0 -0.03,-0.02 -0.044,-0.062 L 28.263,9.732 C 28.24,9.65 28.211,9.589 28.175,9.551 28.14,9.512 28.083,9.493 28.006,9.493 h -0.779 c -0.082,0 -0.16,0.028 -0.232,0.085 -0.073,0.056 -0.12,0.126 -0.144,0.208 L 25.35,15.07 c -0.012,0.041 -0.007,0.077 0.016,0.108 0.022,0.031 0.053,0.046 0.095,0.046 h 0.91 c 0.041,0 0.082,-0.016 0.121,-0.046 0.039,-0.031 0.065,-0.067 0.077,-0.108 l 0.888,-3.124 c 0.012,-0.041 0.03,-0.062 0.056,-0.062 0.021,0 0.038,0.021 0.052,0.062 l 0.895,3.039 c 0.033,0.103 0.076,0.168 0.129,0.197 0.054,0.028 0.122,0.043 0.204,0.043 h 0.756 c 0.082,0 0.161,-0.028 0.236,-0.085 0.075,-0.056 0.124,-0.125 0.148,-0.208 z m 4.561,0.101 c -0.026,0.093 -0.093,0.147 -0.2,0.162 -0.14,0.021 -0.325,0.042 -0.555,0.065 -0.23,0.023 -0.554,0.035 -0.97,0.035 -0.247,0 -0.478,-0.021 -0.694,-0.062 -0.216,-0.041 -0.394,-0.121 -0.532,-0.239 -0.14,-0.118 -0.231,-0.287 -0.271,-0.505 -0.042,-0.219 -0.013,-0.503 0.086,-0.852 l 0.728,-2.561 c 0.099,-0.35 0.231,-0.633 0.396,-0.848 0.165,-0.216 0.351,-0.383 0.558,-0.502 0.206,-0.118 0.43,-0.198 0.672,-0.239 0.242,-0.041 0.485,-0.062 0.732,-0.062 0.206,0 0.386,0.004 0.541,0.012 0.154,0.008 0.29,0.017 0.405,0.027 0.115,0.01 0.214,0.02 0.296,0.031 0.082,0.01 0.155,0.02 0.219,0.031 0.098,0.016 0.135,0.067 0.11,0.155 l -0.204,0.717 c -0.012,0.041 -0.037,0.077 -0.077,0.108 -0.04,0.031 -0.08,0.046 -0.121,0.046 h -1.566 c -0.18,0 -0.318,0.037 -0.414,0.112 -0.096,0.075 -0.172,0.212 -0.229,0.413 l -0.2,0.702 h 1.998 c 0.041,0 0.073,0.016 0.095,0.046 0.022,0.031 0.027,0.067 0.016,0.108 l -0.208,0.733 c -0.012,0.041 -0.037,0.077 -0.077,0.108 -0.04,0.031 -0.08,0.047 -0.121,0.047 h -1.998 l -0.232,0.817 c -0.057,0.201 -0.059,0.338 -0.005,0.413 0.053,0.075 0.17,0.112 0.35,0.112 h 1.566 c 0.041,0 0.073,0.015 0.095,0.046 0.022,0.031 0.027,0.067 0.016,0.108 z"
   id="path2"
   inkscape:connector-curvature="0"
   style="clip-rule:evenodd;fill:#022632;fill-rule:evenodd" />
	</g>
	<g
   id="g13">
		
			<linearGradient
   id="SVGID_1_"
   gradientUnits="userSpaceOnUse"
   x1="6.2265"
   y1="0.55320001"
   x2="11.8687"
   y2="14.4491"
   gradientTransform="matrix(1,0,0,-1,0,18.7087)">
			<stop
   offset="0"
   style="stop-color:#785DA7"
   id="stop6" />
			<stop
   offset="1"
   style="stop-color:#2AC5F4"
   id="stop8" />
		</linearGradient>
		<path
   d="M 15.461,8.04 C 16.8,7.439 17.836,6.476 18.431,5.281 H 9.101 L 8.853,6.131 6.545,4.23 9.922,2.456 9.712,3.18 h 9.243 C 18.918,1.256 17.169,0 13.48,0 H 4.888 l -3.22,11.068 h 8.462 l 0.248,-0.851 2.308,1.901 -3.377,1.774 0.211,-0.724 H 1.057 L 0,16.8 h 9.072 c 4.512,0 7.408,-1.704 8.253,-4.608 0.594,-2.04 -0.163,-3.48 -1.864,-4.152 z"
   id="path11"
   style="clip-rule:evenodd;fill:url(#linearGradient40);fill-rule:evenodd"
   inkscape:connector-curvature="0" />
	</g>
</g>
<g
   transform="scale(9.7116532)"
   id="g38">
	<g
   id="g26">
		<path
   style="clip-rule:evenodd;fill:#022632;fill-rule:evenodd"
   inkscape:connector-curvature="0"
   id="path24"
   d="M 25.605,6.652 C 25.509,6.992 25.364,7.273 25.172,7.497 24.98,7.721 24.756,7.898 24.5,8.029 24.244,8.16 23.961,8.251 23.651,8.303 23.341,8.355 23.018,8.38 22.684,8.38 22.556,8.38 22.425,8.378 22.293,8.372 22.161,8.367 22.033,8.36 21.909,8.352 21.785,8.344 21.671,8.336 21.566,8.325 21.461,8.315 21.372,8.302 21.299,8.286 21.152,8.26 21.056,8.214 21.011,8.147 20.966,8.08 20.968,7.959 21.018,7.785 l 1.333,-4.69 c 0.05,-0.175 0.115,-0.296 0.195,-0.362 0.08,-0.067 0.199,-0.113 0.355,-0.139 0.07,-0.01 0.159,-0.021 0.267,-0.031 0.108,-0.01 0.227,-0.019 0.355,-0.027 0.128,-0.008 0.26,-0.014 0.395,-0.02 0.135,-0.005 0.264,-0.008 0.388,-0.008 0.365,0 0.689,0.027 0.972,0.081 0.283,0.054 0.513,0.143 0.692,0.266 0.179,0.123 0.298,0.288 0.357,0.493 0.06,0.206 0.046,0.463 -0.042,0.772 l -0.039,0.139 c -0.071,0.252 -0.192,0.478 -0.363,0.679 -0.17,0.201 -0.373,0.352 -0.607,0.455 0.176,0.103 0.3,0.252 0.37,0.447 0.07,0.196 0.067,0.427 -0.008,0.694 z M 24.989,4.207 C 25.049,3.996 25.015,3.84 24.886,3.74 24.758,3.64 24.495,3.59 24.1,3.59 c -0.031,0 -0.073,0 -0.127,0 -0.054,0 -0.111,0 -0.17,0 -0.059,0 -0.116,0.001 -0.171,0.004 -0.055,0.003 -0.095,0.004 -0.121,0.004 l -0.379,1.334 h 0.864 c 0.154,0 0.286,-0.017 0.396,-0.05 0.11,-0.034 0.202,-0.077 0.276,-0.131 0.075,-0.054 0.135,-0.118 0.182,-0.193 0.047,-0.075 0.082,-0.153 0.105,-0.235 z m -0.631,2.33 C 24.41,6.352 24.397,6.191 24.318,6.055 24.239,5.919 24.044,5.851 23.736,5.851 h -0.864 l -0.41,1.443 c 0.031,0 0.076,0 0.135,0 0.059,0 0.121,0.001 0.184,0.004 0.063,0.001 0.124,0.002 0.184,0.002 0.059,0 0.101,0 0.127,0 0.396,0 0.687,-0.059 0.872,-0.177 0.185,-0.118 0.308,-0.286 0.37,-0.501 z m 3.034,1.62 1.543,-5.431 C 28.963,2.628 28.928,2.58 28.83,2.58 h -1.033 c -0.093,0 -0.153,0.049 -0.181,0.146 l -1.543,5.431 c -0.012,0.041 -0.009,0.077 0.008,0.108 0.017,0.031 0.046,0.046 0.087,0.046 h 1.034 c 0.041,0 0.08,-0.016 0.117,-0.046 0.037,-0.031 0.061,-0.067 0.073,-0.108 z M 31.776,8.118 C 31.751,8.206 31.684,8.26 31.576,8.28 31.51,8.295 31.424,8.308 31.318,8.318 31.212,8.328 31.1,8.339 30.981,8.349 30.862,8.359 30.743,8.367 30.623,8.372 30.503,8.377 30.392,8.38 30.289,8.38 30.042,8.38 29.81,8.359 29.593,8.318 29.376,8.277 29.198,8.197 29.059,8.079 28.92,7.96 28.831,7.792 28.79,7.573 28.749,7.354 28.779,7.07 28.878,6.721 l 1.133,-3.988 c 0.012,-0.041 0.037,-0.077 0.077,-0.108 0.039,-0.031 0.08,-0.046 0.121,-0.046 h 1.01 c 0.041,0 0.073,0.015 0.095,0.046 0.022,0.031 0.027,0.067 0.016,0.108 l -1.133,3.988 c -0.057,0.201 -0.059,0.338 -0.005,0.413 0.053,0.075 0.17,0.112 0.35,0.112 h 1.327 c 0.041,0 0.073,0.015 0.095,0.046 0.022,0.031 0.027,0.067 0.016,0.108 z m 3.834,0 C 35.585,8.206 35.518,8.26 35.41,8.28 35.344,8.295 35.258,8.308 35.152,8.318 35.046,8.328 34.934,8.339 34.815,8.349 34.696,8.359 34.577,8.367 34.457,8.372 34.337,8.377 34.226,8.38 34.123,8.38 33.876,8.38 33.644,8.359 33.427,8.318 33.21,8.277 33.032,8.197 32.893,8.079 32.754,7.96 32.665,7.792 32.624,7.573 32.583,7.354 32.613,7.07 32.712,6.721 l 1.133,-3.988 c 0.012,-0.041 0.037,-0.077 0.077,-0.108 0.039,-0.031 0.08,-0.046 0.121,-0.046 h 1.01 c 0.041,0 0.073,0.015 0.095,0.046 0.022,0.031 0.027,0.067 0.016,0.108 l -1.133,3.988 c -0.057,0.201 -0.059,0.338 -0.005,0.413 0.054,0.075 0.17,0.112 0.35,0.112 h 1.327 c 0.041,0 0.073,0.015 0.095,0.046 0.022,0.031 0.027,0.067 0.016,0.108 z m -13.358,6.915 c -0.025,0.088 -0.092,0.141 -0.2,0.162 -0.066,0.015 -0.152,0.028 -0.258,0.039 -0.106,0.01 -0.218,0.021 -0.337,0.031 -0.119,0.01 -0.238,0.018 -0.358,0.023 -0.12,0.005 -0.231,0.008 -0.334,0.008 -0.247,0 -0.479,-0.021 -0.696,-0.062 -0.217,-0.041 -0.395,-0.121 -0.534,-0.239 -0.138,-0.118 -0.228,-0.287 -0.269,-0.505 -0.041,-0.219 -0.012,-0.503 0.088,-0.852 L 20.487,9.65 c 0.012,-0.041 0.037,-0.077 0.077,-0.108 0.04,-0.031 0.08,-0.046 0.121,-0.046 h 1.011 c 0.041,0 0.073,0.015 0.095,0.046 0.022,0.031 0.027,0.067 0.016,0.108 l -1.133,3.988 c -0.057,0.201 -0.059,0.338 -0.005,0.413 0.053,0.075 0.17,0.112 0.35,0.112 h 1.327 c 0.041,0 0.073,0.015 0.095,0.046 0.022,0.031 0.027,0.067 0.016,0.108 z m 2.018,0.038 c -0.012,0.041 -0.036,0.077 -0.073,0.108 -0.037,0.031 -0.076,0.046 -0.117,0.046 h -1.034 c -0.041,0 -0.07,-0.016 -0.087,-0.046 -0.017,-0.031 -0.019,-0.067 -0.008,-0.108 L 24.494,9.64 c 0.028,-0.097 0.088,-0.146 0.18,-0.146 h 1.034 c 0.098,0 0.133,0.049 0.105,0.146 z M 29.933,14.932 31.436,9.64 C 31.448,9.599 31.442,9.564 31.419,9.536 31.396,9.508 31.364,9.494 31.323,9.494 h -0.91 c -0.041,0 -0.081,0.014 -0.12,0.042 -0.039,0.028 -0.064,0.063 -0.076,0.104 l -0.927,3.263 c -0.013,0.046 -0.033,0.069 -0.058,0.069 -0.015,0 -0.03,-0.02 -0.044,-0.062 L 28.263,9.732 C 28.24,9.65 28.211,9.589 28.175,9.551 28.14,9.512 28.083,9.493 28.006,9.493 h -0.779 c -0.082,0 -0.16,0.028 -0.232,0.085 -0.073,0.056 -0.12,0.126 -0.144,0.208 L 25.35,15.07 c -0.012,0.041 -0.007,0.077 0.016,0.108 0.022,0.031 0.053,0.046 0.095,0.046 h 0.91 c 0.041,0 0.082,-0.016 0.121,-0.046 0.039,-0.031 0.065,-0.067 0.077,-0.108 l 0.888,-3.124 c 0.012,-0.041 0.03,-0.062 0.056,-0.062 0.021,0 0.038,0.021 0.052,0.062 l 0.895,3.039 c 0.033,0.103 0.076,0.168 0.129,0.197 0.054,0.028 0.122,0.043 0.204,0.043 h 0.756 c 0.082,0 0.161,-0.028 0.236,-0.085 0.075,-0.056 0.124,-0.125 0.148,-0.208 z m 4.561,0.101 c -0.026,0.093 -0.093,0.147 -0.2,0.162 -0.14,0.021 -0.325,0.042 -0.555,0.065 -0.23,0.023 -0.554,0.035 -0.97,0.035 -0.247,0 -0.478,-0.021 -0.694,-0.062 -0.216,-0.041 -0.394,-0.121 -0.532,-0.239 -0.14,-0.118 -0.231,-0.287 -0.271,-0.505 -0.042,-0.219 -0.013,-0.503 0.086,-0.852 l 0.728,-2.561 c 0.099,-0.35 0.231,-0.633 0.396,-0.848 0.165,-0.216 0.351,-0.383 0.558,-0.502 0.206,-0.118 0.43,-0.198 0.672,-0.239 0.242,-0.041 0.485,-0.062 0.732,-0.062 0.206,0 0.386,0.004 0.541,0.012 0.154,0.008 0.29,0.017 0.405,0.027 0.115,0.01 0.214,0.02 0.296,0.031 0.082,0.01 0.155,0.02 0.219,0.031 0.098,0.016 0.135,0.067 0.11,0.155 l -0.204,0.717 c -0.012,0.041 -0.037,0.077 -0.077,0.108 -0.04,0.031 -0.08,0.046 -0.121,0.046 h -1.566 c -0.18,0 -0.318,0.037 -0.414,0.112 -0.096,0.075 -0.172,0.212 -0.229,0.413 l -0.2,0.702 h 1.998 c 0.041,0 0.073,0.016 0.095,0.046 0.022,0.031 0.027,0.067 0.016,0.108 l -0.208,0.733 c -0.012,0.041 -0.037,0.077 -0.077,0.108 -0.04,0.031 -0.08,0.047 -0.121,0.047 h -1.998 l -0.232,0.817 c -0.057,0.201 -0.059,0.338 -0.005,0.413 0.053,0.075 0.17,0.112 0.35,0.112 h 1.566 c 0.041,0 0.073,0.015 0.095,0.046 0.022,0.031 0.027,0.067 0.016,0.108 z" />
	</g>
	<g
   id="g36">
		
			<linearGradient
   gradientTransform="matrix(1,0,0,-1,0,18.7087)"
   y2="14.4491"
   x2="11.8687"
   y1="0.55320001"
   x1="6.2265"
   gradientUnits="userSpaceOnUse"
   id="linearGradient32">
			<stop
   id="stop28"
   style="stop-color:#785DA7"
   offset="0" />
			<stop
   id="stop30"
   style="stop-color:#2AC5F4"
   offset="1" />
		</linearGradient>
		<path
   inkscape:connector-curvature="0"
   style="clip-rule:evenodd;fill:url(#linearGradient42);fill-rule:evenodd"
   id="path34"
   d="M 15.461,8.04 C 16.8,7.439 17.836,6.476 18.431,5.281 H 9.101 L 8.853,6.131 6.545,4.23 9.922,2.456 9.712,3.18 h 9.243 C 18.918,1.256 17.169,0 13.48,0 H 4.888 l -3.22,11.068 h 8.462 l 0.248,-0.851 2.308,1.901 -3.377,1.774 0.211,-0.724 H 1.057 L 0,16.8 h 9.072 c 4.512,0 7.408,-1.704 8.253,-4.608 0.594,-2.04 -0.163,-3.48 -1.864,-4.152 z" />
	</g>
</g></svg>