<svg xmlns="http://www.w3.org/2000/svg" width="106.998" height="84.75" xmlns:v="https://vecta.io/nano"><style><![CDATA[.B{fill-rule:evenodd}]]></style><g fill="#fff"><path d="M-276.686 89.316h770.798v1.417h-770.798"/><path d="M12.986 52.657l-.162-.664-.151-.668-.141-.672-.13-.675-.119-.679-.108-.683-.097-.686-.086-.69-.074-.693-.064-.696-.053-.699-.04-.702-.029-.705-.019-.708-.006-.728.055-2.157.164-2.147.271-2.117.374-2.084.475-2.049.573-2.009.669-1.967.761-1.924.851-1.876.938-1.827 1.022-1.774 1.105-1.719 1.183-1.662 1.26-1.601 1.333-1.538 1.404-1.472 1.473-1.404 1.538-1.333 1.601-1.259 1.662-1.183 1.72-1.104 1.774-1.022 1.826-.938 1.876-.851 1.924-.761 1.967-.668 2.01-.573 2.048-.474 2.084-.374 2.117-.27 2.147-.164 2.174-.055 2.174.055 2.147.164 2.117.27 2.084.374 2.048.474 2.01.573 1.967.668 1.924.761 1.876.851 1.827.938 1.775 1.022 1.719 1.104 1.662 1.183 1.602 1.259 1.537 1.333 1.472 1.404 1.404 1.472 1.333 1.538 1.26 1.601 1.183 1.662 1.104 1.719 1.022 1.774.938 1.827.85 1.876.761 1.924.668 1.967.573 2.009.475 2.049.373 2.084.27 2.117.164 2.147.055 2.157-.006.728-.019.708-.029.705-.04.702-.052.699-.064.696-.074.693-.087.69-.097.686-.108.683-.119.679-.13.675-.141.672-.151.668-.162.664-.172.66-.183.656-.193.651-.203.647-.213.643-.223.638-.232.633-.242.629-.252.624-.262.619-.271.614-.255.554h4.76v4.226h8.434l-4.196 7.409 5.501 6.792H85.685v-2.563h-6.047l-.221.169-.69.505-.7.492-.71.479-.72.464-.73.45-.74.436-.75.421-.759.406-.767.391-.777.376-.785.361-.794.345-.802.329-.809.313-.818.297-.826.281-.833.264-.84.247-.847.23-.854.213-.86.195-.867.177-.873.16-.88.142-.884.123-.891.105-.896.087-.902.067-.906.048-.911.029-.915.01-.915-.01-.911-.029-.906-.048-.901-.067-.896-.087-.89-.105-.885-.123-.88-.142-.873-.16-.867-.177-.86-.195-.854-.213-.847-.23-.84-.247-.833-.264-.825-.281-.818-.297-.81-.313-.802-.329-.793-.345-.786-.361-.776-.376-.768-.391-.759-.406-.749-.421-.74-.436-.73-.45-.72-.464-.711-.479-.7-.492-.689-.505-.222-.169h-6.79v2.563H-.017l5.962-6.803-4.533-7.398h9.118v-4.226h5.156l-.256-.554-.271-.614-.262-.619-.252-.624-.242-.629-.232-.633-.223-.638-.213-.643-.203-.647-.193-.651-.183-.656" class="B"/></g><g fill="#254aa5" class="B"><path d="M22.972 52.867l.052-.973c.648-.061 1.161.019 1.541.242s.644.565.793 1.023a1.8 1.8 0 0 1-.21 1.617c-.378.579-1.003 1.009-1.872 1.292-.92.299-1.706.326-2.36.079-.568-.213-.951-.623-1.149-1.232-.161-.494-.125-.963.104-1.407.164-.315.464-.605.901-.87l.543.799c-.274.152-.461.336-.562.554a.89.89 0 0 0-.04.67c.106.326.335.546.686.659s.853.064 1.508-.149c.678-.22 1.13-.478 1.35-.771a.96.96 0 0 0 .176-.923.85.85 0 0 0-.472-.521c-.239-.112-.57-.142-.99-.089zm-1.498-2.044c.635-.146 1.082-.377 1.345-.691s.352-.65.269-1.007-.309-.619-.679-.783-.88-.169-1.534-.019c-.64.147-1.087.371-1.341.673a1.1 1.1 0 0 0-.251 1.007c.086.371.31.639.672.801s.869.169 1.518.019zm.255.933c-.658.152-1.222.181-1.692.083s-.847-.277-1.128-.542-.473-.623-.576-1.07c-.149-.648-.026-1.233.376-1.756s1.058-.889 1.972-1.1c.924-.213 1.696-.164 2.315.148.548.273.896.734 1.046 1.385.152.656.043 1.225-.323 1.71-.42.551-1.084.932-1.99 1.141zm1.743-5.379l-5.664.167-.058-1.974c-.013-.506.065-.765.16-.984s.267-.403.513-.549.546-.224.895-.234c.444-.013.805.082 1.081.286s.417.399.497.787c.139-.205.167-.307.335-.442s.534-.185 1.022-.287l.94-.196.069 1.156-1.068.136c-.339.043-.93.26-1.07.603-.04.098-.056.256-.049.473l.006.194 2.365-.07.026.935zm-3.297-.839l-.022-.696c-.013-.425.013-.522-.026-.637s-.118-.207-.234-.276-.268-.1-.455-.095c-.181.006-.326.046-.433.121a.55.55 0 0 0-.217.3c-.026.088-.086.171-.074.59l.022.735 1.436-.043zM50.956 74.07h-2.789l.191.455c.577.621.728.474 1.559.494-.95.367-1.193.747-1.728 1.787 1.748-.108 2.448-.026 3.455-1.32-.322-.347-.282-.964-.689-1.417zm-4.822 0h-.967c-.006.022-.013.045-.016.07-.196.229-.603 1.272-.799 1.501.581.198 1.604-.253 1.892-.896-.063-.029-.081-.392-.11-.674zm-1.858 0h-1.065l-1.138.949c.388.23.833.281 1.303.248.571-.175.904-.758.899-1.197zm4.108 1.114c-.168.836-1.597 1.118-2.3 1.017.256-.229.512-.266.767-.495l-.588-.165c.324-.293.538-1.054.861-1.347.567.042 1.061.684 1.26.989zM27.072 62.242h.936c1.567-.183 1.332-2.241.636-2.829-.349.446-.534.849-.754 1.253-.224-.759-.706-1.285-1.292-1.575-.036.256.036.525 0 .781-.202-.17-.512-.354-.714-.525-.013.516.04 1.032.242 1.548-.536-.006-.877-.019-1.414.202.682.69 1.166 1.066 2.361 1.145zm-1.93-5.387c.626.276 1.215.666 1.696 1.373a1.4 1.4 0 0 1 .417-.821c.673.821 1.308 1.34.485 2.316-.494-.539-1.044-1.009-1.791-1.225l-.27.391c-.675-.455-.904-1.111-.538-2.033zm.431 2.235l.31 1.535c-.253-.164-.696.036-.943 0-.709-.187-1.163-.671-1.441-1.36.704-.333 1.393-.447 2.06-.242l.013.067zM12.649 74.07h-.099v-6.476h-.029-.971-4.384v.061l.467.763h3.917v.932H8.203l.505.824h2.841v.932h-2.27l.505.824h1.765v.932H9.164l-.722.824h3.108v.931H7.626l-.461.526-.252.39h10.262l-4.528-1.461zm8.791-6.336c.022-.129.026-.224.033-.271 0-.244-.142-.372-.379-.508h1.652v.785c-.428 0-.868-.006-1.306-.006zm5.447-.556l.06.013h.019c.047-.001.09.013.129.034l.379.088v-.358h-.569-.13-2.945v2.133c.006.115.122.251.305.338.162.061.271.17.271.271 0 .074-.074.137-.169.137h-1.896c-.096 0-.17-.063-.17-.137.006-.095.108-.196.271-.271.183-.081.304-.23.304-.372v-.911h-.514v-.003h-.421c-.115 0-.197.102-.305.102-.074 0-.136-.074-.136-.17-.142.292-.447.474-.785.474h-.508a1.46 1.46 0 0 1-.508-.102c.217.589.637.981 1.05.981.655 0 .755-.277.855.446l-2.005-.038c-.346 0-.678-.415-.779-.983-.142-.501-.435-.369-.618-.369-.095.006-.074-.737-.093-.68 0-.075.157-.06.204-.203l1.384.013c.541-.01.425-.676.003-.657h-1.769v-.515h8.973.13.53l-.002-.002c-.217-.079-.413-.227-.617-.371l-.576-.406c-.352-.244-.528-.373-.65-.373-.128-.006-.23.019-.305.068-.197.108-.346.169-.44.169-.116-.006-.204-.047-.204-.102 0-.128.068-.237.17-.271l.575-.271c.251-.088.421-.135.515-.135.298 0 .508.047.609.135l.604.469c.159-.345.603-.605 1.13-.605h.914c.285-.006.488.019.611.068l.338.136c.068.054.102.115.102.169 0 .04-.013.074-.034.101l-.169.271c-.054.082-.115.136-.169.136-.068.006-.142-.048-.203-.136a1.01 1.01 0 0 0-.78-.338c-.372-.006-.677.271-.677.609.002.103.026.203.063.29.006.019.016.036.063.05.26-.002.389-.273.613-.273.074-.006.136.088.136.203 0 .095-.103.209-.271.305-.064.037-.13.072-.198.1l-.002.002h.71v.515h-.732v2.133c.006.115.121.251.305.338.162.061.271.17.271.271 0 .074-.074.137-.169.137h-1.896c-.095 0-.17-.063-.17-.137.006-.095.108-.196.271-.271a.56.56 0 0 0 .262-.222c-.287.191-.683.291-1.142.291-.86-.006-1.557-.549-1.557-1.219-.006-.596.588-1.084 1.32-1.084h.842l-.006-.013zm.586.786l-.542-.264c-.108-.068-.23-.102-.339-.102h-.203c-.318 0-.576.304-.576.677 0 .413.379.745.847.745.296 0 .575-.079.812-.225v-.831zm18.216.108c-.318.003-.575-.21-.575-.474s.257-.477.575-.474.575.23.575.508c0 .244-.258.437-.575.44zm0 1.762c-.318 0-.575-.198-.575-.441 0-.264.243-.474.542-.474.338 0 .609.197.609.44 0 .264-.257.475-.575.475zm-2.899-2.879v2.099c0 .142-.121.291-.304.372-.163.075-.264.176-.271.271 0 .074.074.137.17.137h1.896c.095 0 .169-.063.169-.137 0-.102-.108-.21-.271-.271-.183-.088-.298-.223-.305-.338v-2.133h.732v-.515h-13.66v.515h4.337v.508h-2.484l-.022.498c.824-.016.844 1.028-.016 1.105-.912-.022-.949-.684-.706-.881l-.002-.329-.568.016c-.81.304-.967 1.401.158 1.904.321.216 1.284.192 1.882.081.449-.141.886-.446.886-.987 0-.46-.076-.879-.516-1.001h1.387v1.185c0 .142-.122.291-.305.372-.162.075-.264.176-.271.271 0 .074.074.137.17.137h1.896c.094 0 .169-.063.169-.137 0-.102-.108-.21-.271-.271-.183-.088-.297-.223-.304-.338v-2.133h4.02v.779h-2.578c-.352 0-.751.395-.643.901 0 .413.318.969.711.969h.338c.092.242 2.059-.064 1.81-1.104-.013-.064-.372-.206-.605-.104-.101.045-.194.318-.304.346-.217.055-.337.08-.484.064-.446-.047-.383-.555-.147-.648l1.903-.019v.914c0 .142-.122.291-.305.372-.162.075-.264.176-.271.271 0 .074.074.137.17.137h1.896c.095 0 .169-.063.169-.137 0-.102-.108-.21-.271-.271-.183-.088-.297-.223-.305-.338v-2.133h1.321zm9.502.779l.002-.779h-1.652c.237.135.385.264.379.508-.001.048-.016.142-.033.271h1.304zM37.53 48.816l.138-.154-.143-.387.006.54zm-.484 2.156l-.496-1.058.505-.566.016-2.555-.336-1.603-1.593-.526-.073-.738-1.998 13.259h3.941l.036-6.213zm4.058 3.257l-.632-.731-1.641.342a19.08 19.08 0 0 1-1.268-1.912l.058 5.258h3.941l-.458-2.956zm8.154-3.076l.107.09.34.026h.315.249c.066-.026.118-.026.183-.026.022 0 .067.006.11.016.013-.061.016-.12.016-.173.022-.034.048-.069.083-.107.125-.026.31-.059.306-.348l.091-1.717c.071-.694.079-1.375.19-1.671l-.048-.104-.169-1.196c-.461.35-.837.444-1.229.447-.01.142-.006.244.026.282.148.262.185.615.238 1 .109.787-.077 1.963-.08 2.559-.032.19-.265.271-.545.635l-.146.229-.038.058zm-16.353 6.613h8.796v.568a.57.57 0 0 1-.569.568h-7.659a.57.57 0 0 1-.569-.568zm20.688 23.748c-8.32-.103-16.028-2.821-22.341-7.367h-1.942c6.726 5.252 15.147 8.424 24.282 8.534zm0-1.783c-7.005-.091-13.554-2.125-19.135-5.584h-1.221c5.866 3.86 12.854 6.146 20.355 6.242zm-.001-12.775h-.214v2.133c-.088.463.055.663.214.742v-2.875zm0-3.169h-38.94v8.753h38.94v-1.012h-1.921c-.06 0-.118-.002-.176-.003v-.708c.082.013.106.001.187.001l.227.277.914.029c.372 0 .677-.183.677-.406-.006-.224-.291-.521-.643-.521h-.204c-.542 0-.319.04-.359-.093l.001-1.047-.001-.905-.933-.01c-.115 0-.196.102-.305.102-.074 0-.135-.074-.135-.17-.143.292-.447.474-.786.474a53.61 53.61 0 0 0-.508 0c-.156 0-.325-.034-.508-.102.217.589.637.981 1.05.981h.867c.161-.003.333-.08.498-.218v.626c-.439.204-.878.191-1.316.191-.4 0-.834-.055-1.199-.191-.482-.204-.678-.415-.779-.983-.143-.501-.321-.408-.504-.408-.094.006-.15.065-.15-.05l.013-.757c1.077-.026 1.128.013 1.736.013.297.006.656-.061.656-.4-.006-.352-.288-.293-.565-.293h-2.073v-.515h6.242v-2.654zM38.627 42.327c1.042 3.55 2.894 8.062 5.497 9.794l2.567.044c.515.006 1.284-.194 1.843-.213.026-.001.047.002.065.006l-.142.222c.297.002.401-.159.399.138.139.136 1.01-.013 1.344-.138.076.006.226-.003.187.022-.368.24-.956.652-1.506.646-.986-.013-1.842.349-2.22.744.44-.162 1.069-.259 1.555-.303.676.042 1.56-.604 2.08-.912l-.163.334c.022.042.333.049.48.002.01.061-.074.075-.06.166.137.093.468.087.777.019.026.056.038.073.056-.013.283-.069.536-.188.585-.327.067-.185.206-.51.247-.785.405.016.885.006 1.376-.003l-.001-6.579c-.482 1.008-.79 2.34-.648 2.446-.13.267-.175 1.047-.251 1.779-.062.607-.168 1.179-.17 1.456.002.289-.061.51-.187.536a.61.61 0 0 0-.111.157c-.001-.013-.002-.026-.003-.04-.579.141-1.209.365-1.417.147-.026-.013-.013-.06-.01-.096l.197-.29c.264-.155.482-.468.515-.658.002-.595.315-1.781.206-2.569-.054-.385-.193-.728-.341-.989-.155-.185.393-1.856-.408-2.08-.107.812-.242.571-.434.822-.426.123-.853.273-1.252-.013-.208.08-.639-.704-.619-.831l.013-1.479c-.246.112-.521.857-.636 1.047-.933.389-1.244-.395-1.239-1.49-.31.314-.57.92-1.054.219.127-.309-.036-.585-.242-.829.113.001.209-.04.289-.11H43.16c-.016.001-.034.002-.051.003-.24.31-.291.791-.418 1.178-.189.281-.82.294-1.11.105-.063-.178.282-.384.219-.562-.208.114-.189.342-.322.514-.09-.019-.329.013-.417-.209-.754.363-1.037-.225-1.213-.855a2.95 2.95 0 0 1 .088-.174l-1.306-.001zm-3.857 0l-2.389 14.851h-.001c-.173 0-.314.142-.314.314 0 .165.13.301.292.313v.528c0 .559.416 1.015.924 1.015h8.043c.508 0 .924-.457.924-1.015v-.543c.127-.04.219-.159.219-.298 0-.148-.104-.273-.243-.306l-.397-2.21a17.86 17.86 0 0 0 1.178 1.052l-.342 1.644a19.14 19.14 0 0 0 3.926 2.278l1.252-1.117a17.36 17.36 0 0 0 3.472.934l.526 1.593c.578.068 1.163.114 1.755.13l-.001-3.549c-8.371-.278-15.11-7.183-15.122-15.616H34.77zm-21.044 0c0 7.233 1.922 14.032 5.279 19.915H12.55v4.226H5.016l3.427 5.592-4.007 4.573h15.282V74.07h19.092c-.08.09-.577.298-.456.331.793.214 1.609.385 2.273.383-.067.251-.6.496-.667.747.774.098 2.111.186 3.09.14-.116.412-.41.219-.801.521.759-.002 1.403.073 2.229-.076-.117.287-.359.408-.476.695.916-.072 1.837.022 2.65-.271-.05.197-.4.477-.451.674 2.98-.162 4.214-.067 6.093-1.466.298.258.599.464.888.644-.916.591-1.706 1.157-1.775 1.817.233.161.686.019.919.181.184-.616.662-1.056 1.266-1.462v-.922c-.892-.568-1.688-1.181-1.794-1.937h1.793v-.817H13.848V63.072h39.744v-.829H36.206l-2.659-.013a28.82 28.82 0 0 1-1.335-1.476v-.013c-4.214-4.983-6.752-11.41-6.752-18.412h-.754c0 7.673 2.97 14.673 7.817 19.915h-1.952c.181-.449-.163-1.119-.32-1.595l-.827.829c.139-.751.147-1.288-.206-1.965l-.189-.81-.479.142c.251-.86-.96-1.532-1.116-2.492l-.729 1.171c-.419-.682-1.056-.928-1.964-1.482-.296 1.207-.595 1.91.23 2.622-1.003.104-1.391-.177-2.366.266l.571.71c.222.464 1.025.85 1.452 1.149l-1.31.076 1.149.785a3.44 3.44 0 0 0 .914.595h-2.938a37.15 37.15 0 0 1-5.768-19.915h-.657c0 7.292 2.071 14.115 5.652 19.915h-1.316c-3.466-5.843-5.462-12.652-5.462-19.915"/><path d="M18.638 41.222l1.607.016.003-.519c.003-.348-.016-.584-.065-.71a.63.63 0 0 0-.262-.309c-.127-.082-.282-.123-.468-.125a.87.87 0 0 0-.476.118c-.13.082-.217.183-.263.303s-.069.377-.072.769l-.003.456zm4.698.985l-5.667-.06.016-1.509c.006-.561.037-.928.094-1.1.089-.274.28-.5.566-.676s.657-.263 1.109-.258c.41.003.753.086 1.028.243s.467.353.577.587.162.633.155 1.2l-.006.615 2.137.022-.01.935zm-2.771-4.703c.609.157 1.096.158 1.46.006s.591-.4.679-.743.01-.668-.234-.973-.678-.536-1.305-.697c-.614-.158-1.096-.165-1.448-.019a1.06 1.06 0 0 0-.662.752c-.092.356-.019.685.22.985s.669.531 1.29.691zm-.197.912c-.631-.162-1.126-.388-1.486-.681s-.602-.614-.724-.966-.128-.743-.019-1.172c.16-.621.527-1.066 1.102-1.336s1.302-.291 2.179-.064c.886.227 1.525.613 1.917 1.156.348.478.44 1.027.28 1.651-.162.629-.508 1.068-1.036 1.32-.606.286-1.343.317-2.213.093zm3.831-3.886l-5.359-1.845.643-1.868c.164-.478.331-.692.497-.864s.392-.282.674-.332.59-.016.921.097c.419.144.724.36.91.65a1.14 1.14 0 0 1 .187.912c.203-.142.265-.229.469-.296s.566.016 1.058.092l.948.149-.344 1.106-1.047-.25c-.333-.08-.962-.085-1.214.186-.072.078-.143.22-.213.425l-.063.183 2.237.77-.304.885zm-2.789-1.949l.226-.659c.139-.401.199-.482.202-.604s-.037-.236-.122-.341-.215-.189-.393-.25c-.17-.058-.32-.071-.447-.039a.55.55 0 0 0-.309.205c-.056.073-.142.129-.278.526l-.24.695 1.359.468zm3.383-5.213l-2.157-.248 1.562 1.416.595-1.168zm2.791-.7l-.479.94-1.328-.138-.871 1.71.958.864-.468.92-4.155-3.92.466-.915 5.877.54zm.088-.087l-3.949-2.564-.751 1.157-.805-.522 2.01-3.096.805.522-.749 1.154 3.949 2.564zm1.313-2.015l-4.586-3.331.55-.757 4.585 3.331zm-.829-3.714c.478.39.914.597 1.311.622s.712-.088.946-.341a.96.96 0 0 0 .227-.921c-.082-.361-.369-.74-.86-1.142-.482-.393-.912-.603-1.295-.629s-.692.092-.934.355a.97.97 0 0 0-.245.926c.08.355.363.731.851 1.13zm-.587.688c-.495-.404-.839-.805-1.031-1.204s-.266-.773-.218-1.123.219-.683.512-.999c.423-.458.954-.679 1.594-.664s1.303.304 1.99.866c.695.567 1.097 1.164 1.206 1.788.098.551-.067 1.054-.492 1.514s-.938.688-1.527.678c-.674-.013-1.351-.299-2.033-.856zm5.236-1.437l-3.643-4.341.7-.587 3.889 1.676-2.432-2.898.669-.561 3.643 4.341-.723.607-3.809-1.629 2.376 2.831zm4.352-6.371l.734 1.324.762-.422c.333-.185.538-.32.613-.407a.55.55 0 0 0 .124-.34c.006-.138-.032-.285-.12-.443s-.198-.276-.325-.344-.258-.088-.393-.065-.38.134-.731.328l-.664.368zm-1.092-1.971l.635 1.146.541-.3.593-.351a.59.59 0 0 0 .23-.358c.026-.139-.006-.292-.1-.457-.081-.146-.178-.248-.293-.303s-.224-.069-.328-.042-.371.162-.804.402l-.474.263zm-1.276-.371l1.627-.902c.443-.245.778-.379 1.004-.396s.456.039.695.176.428.334.571.593a1.51 1.51 0 0 1 .199.736c.001.252-.057.47-.175.656.289-.048.558-.006.809.126s.461.346.625.643c.199.36.281.715.246 1.058s-.155.613-.359.803c-.142.132-.513.364-1.112.696l-1.384.767-2.748-4.957zm7.859-.058l-1.35-1.735.167 2.189 1.183-.455zm2.416 1.474l-.953.366-.84-1.057-1.732.665.104 1.34-.932.357-.342-5.939.928-.355 3.767 4.624zm.381-.154l-1.035-5.571.898-.167 2.561 3.373-.691-3.72.859-.16 1.035 5.571-.927.172-2.515-3.292.676 3.634-.859.159zM39.939 39.79c.043.149.013.022.041.152.102.455.134.489.016.995s.05.456-.303.894-.488.472-.488.472.153-.106-.085-.489c-.118-.191-.361-1.358-.063-2.252l.88.227zm9.281-12.275l-.631 1.918-2.795.257.703-1.038c.637-.356 1.33-.668 1.987-.934.05-.019.688-.182.737-.202zm-7.652 11.947c.118-.177.003-.379.252-.618.098-.123.458-.304.693-.203-.112.247-.022.502-.222.721-.245.201-.556.016-.724.1zm-3.86-6.836l.043-.072-.019-.122-.026.193zm-.306 4.258l.267-.75-.279-.313.013 1.063zm-.475-4.726l-.083-.013-1.178 7.813 1.07-.352c.098-.608.226-1.205.385-1.791l.013-2.28-.581-.651.484-1.039-.111-1.686zm1.416-.523l-.215-.006c-.113.16-.263.292-.435.386l.089.49.561-.87zM53.593 5.979l-1.241.043-1.81 2.581-.088-2.515-.935.032.198 5.664.935-.033-.06-1.712.727-.973 1.372 2.614.901-.032v-.551l-1.65-2.853 1.65-2.236v-.029zM34.77 42.327l1.663-10.341c-.371-.224-.619-.633-.618-1.094.002-.701.577-1.272 1.278-1.27a1.27 1.27 0 0 1 .983.472l3.724-.252 1.205-1.079-.341-1.639c1.207-.908 2.524-1.676 3.926-2.28l1.251 1.116c1.108-.425 2.27-.739 3.472-.933l.516-1.565c.477-.189 1.072-.309 1.766-.348l-.001 4.51c-.042.375-.065.8-.065 1.25l.039.997a279.21 279.21 0 0 0-15.812.72c-.115-.252-.369-.432-.664-.432-.405-.001-.737.328-.738.732s.327.737.732.738c.287.001.537-.166.658-.408l15.85.006v.584l-3.154-.068c-.344.213-.445.486-1.097 1.009.003-.179-.201-.417-.32-.362-.428.197-.995.381-1.448.875.167-.573.167-1.023.311-1.536-1.598.026-3.413.022-5.122-.124l-.05.006a15.69 15.69 0 0 0-3.48 5.873c-.046.208-.148.392-.122.631.294-.443.61-.7 1.112-.956-.136-.264-.01-.892.132-1.265.323-1.019 1.065-1.665 1.664-2.02-.226.625-.652 1.422-.325 2.103.35.147.742.212 1.091.36h.387c.229-.73.279-1.48-.097-2.373 1.242.301 1.567 1.171 1.649 2.47.314-.056.729-.215 1.042-.27.201-.04.382.49.632.171.239-.304.605-.153 1.051-.179.656-.038 1.088-.337 1.627-.641 1.241-.699 2.092-1.876 2.993-1.856.513-.079.884.802 1.524 1.421l.001.569c-.623-.519-1.026-1.282-1.41-1.397-1.23-.368-2.542 2.464-5.655 2.434.022.288-.086.763-.332.846.447.019 1.408.685 1.515 1.161-.497.845-.969.308-1.084 1.023-.414.148-.275 2.118-.837 2.61h-2.632c.448-.035.862-.041 1.257-.224.698-.891 1.361-1.701 1.555-2.489-.503-.183-1.073-.518-1.119-.799.809.31 1.731.05 2.389-.172-.229-.584-1.101-1.039-2.237-.759l.929-.551c.029-.557-.166-.837-.587-.837-.722.52-1.411.863-2.029.571-.153-.068-.31-.425-.472-.403-.799.11-.899-.253-1.234-.434-.619.318-1.225.806-1.385 1.425-.038.393-.019.481-.095.855-.068.427.133.783.322 1.159.013.678-.07 1.374-.151 1.995-.089.198-.248.443-.368.662l-1.306-.001-.148-.518-.006.497v.019h-3.701zm-10.062 0c0-16.015 12.929-29.105 28.883-29.37l.002.898c-2.26.039-4.458.341-6.565.875l-.325-.001v.086l-.408.112-.448-.002-.001.133-.214.066-.413-.002v.134l-.283.094-.345-.002v.121l-.221.078-.356-.002c-.016.006-.035.013-.051.019l-.001.133-.123.046a43.76 43.76 0 0 1-.305-.001c-.001.032-.001.074-.001.12l-.264.106-.314-.002c-.016.006-.033.016-.05.022v.131c-.036.016-.072.029-.108.046l-.092-.001c-.001.013 0 .026 0 .039l-.36.159-.268-.002v.124c-4.122 1.899-7.726 4.741-10.533 8.247a10.61 10.61 0 0 0-.339.432l-.443.591.013-.002c-3.342 4.683-5.312 10.407-5.312 16.578h-.754zm-8.69 0c0-20.8 16.833-37.796 37.572-38.061v.657c-20.378.265-36.915 16.965-36.915 37.404zm-2.292 0c0-22.063 17.862-40.087 39.865-40.353V3.14c-21.36.265-38.699 17.767-38.699 39.187"/><path d="M90.846 46.584c.033-.281-.2-.551-.48-.583-.29-.034-.587.165-.621.455s.211.542.501.576c.281.033.567-.167.601-.448zm-3.559-1.67l-1.333-.054-.112-.176 1.852-1.393c-.002.051.054.365-.06.88-.053.24-.274.618-.347.743zM60.107 74.07h-3.005l-.197.18-.687.687c.526.421 1.15.822 2.117 1.155.544.152.988.172 1.512.302-.575-1.041-.6-1.007-1.622-1.375.894-.019 1.056.126 1.677-.494l.205-.455zm4.248.262l.913-.077c.366.266 1.03.498 1.396.764-.418.23-.896.281-1.402.248-.633-.18-.935-.492-.907-.935zm-2.095.066c.44-.037.83.109 1.271.072.211.229.619.474.83.704-.459.145-1.125.245-1.627.258-.323-.046-.618-.229-.853-.715.11-.046.269-.273.379-.319zm-2.386.786c.102.473.469.858 1.1 1.155a3.65 3.65 0 0 0 1.374.055l-.824-.688.632-.165-1.044-.88c-.611.043-1.023.216-1.237.522zm20.554-12.942h.936c1.195-.079 1.679-.455 2.361-1.145-.536-.222-.878-.209-1.414-.202.202-.516.256-1.033.242-1.548-.202.171-.512.355-.714.525-.036-.256.036-.525 0-.781-.587.29-1.068.817-1.292 1.575-.221-.404-.406-.807-.754-1.253-.696.587-.932 2.645.635 2.829zm2.866-5.387c-.627.276-1.215.666-1.697 1.373-.049-.328-.189-.601-.417-.821-.672.821-1.308 1.34-.484 2.316.494-.539 1.044-1.009 1.791-1.225l.269.391c.676-.455.904-1.111.539-2.033zm-.431 2.235l-.31 1.535c.253-.164.696.036.943 0 .709-.187 1.162-.671 1.44-1.36-.704-.333-1.393-.447-2.06-.242l-.013.067zm12.36 14.979h-.063l-4.183 1.461h9.483l-.232-.39-.426-.526h-3.626v-.931h2.872l-.667-.824h-2.205v-.932h1.632l.466-.824h-2.098v-.932h2.626l.466-.824h-3.092v-.932h3.62l.432-.763v-.061h-4.052-.897-.055v6.476zM76.49 68.411v.35c-.186-.096-.308-.198-.296-.35zm-12.604-.437l-.22-.11-.067-.047c-.034-.013-.062-.029-.084-.05-.13-.115-.326-.169-.542-.169-.352 0-.643.304-.643.677 0 .433.379.779.846.779.259 0 .502-.064.711-.183v-.897zm-.118-1.537c.147-.42.092-.672-1.074-.672h-6.092c-1.071-.084-.655.589-.778.674h7.941-.01zM78.8 68.416l-1.244-.006v1.015c0 .19-.197.339-.44.339-.298 0-.671-.237-1.015-.643-.284-.346-.44-.63-.44-.813 0-.17.135-.305.305-.305h.508v-1.016c0-.115-.061-.101-.136-.101-.04 0-.074.013-.102.034.061.006.102-.019.102.067 0 .129-.135.237-.304.237-.244 0-.441-.094-.441-.338.006-.38.365-.786.813-.786.637.006 1.151.433 1.151.955v.948l1.243.006-.006-1.569h11.246v.515h-.732v2.167c0 .068.088.169.237.271.149.088.237.189.237.271s-.058.152-.136.167l.003.003h-.043c.468 0 .733.379.733.847s-.573.846-1.117.846h-1.732c-.052 0-.102-.001-.152-.003v-.42a1.27 1.27 0 0 0 .22.016h1.083c.373 0 .678-.183.678-.406-.006-.224-.291-.407-.644-.407h-.203c-.204 0-.346.203-.542.203-.203-.006-.372-.23-.372-.508 0-.094.074-.169.169-.169h.219l.01-.006c-.086-.019-.146-.086-.146-.164 0-.061.074-.142.203-.271.109-.088.169-.19.169-.271v-1.253h-1.405c-.413 0-.745.38-.745.847-.006.393.271.711.609.711.203 0 .373-.169.575-.169.095 0 .17.06.17.135.006.04-.019.108-.068.203l-.102.239h-.913c-.712 0-1.287-.563-1.287-1.254a1.27 1.27 0 0 1 .079-.44l.263-.406c.172-.169.396-.271.64-.271h2.184v-.508h-3.978v2.133c.006.115.122.251.304.338.163.061.271.17.271.271 0 .074-.074.137-.169.137h-1.896c-.095 0-.17-.063-.17-.137.006-.095.108-.196.271-.271a.55.55 0 0 0 .27-.238c-.25.18-.753.308-1.151.306-.86-.003-1.558-.549-1.558-1.219.003-.596.645-1.084 1.321-1.084h.915c.055-.002.107.016.152.05l.356.092v-.378h-3.243v2.133c.006.115.122.251.304.338.163.061.271.17.271.271 0 .074-.074.137-.169.137h-1.896c-.095 0-.169-.063-.169-.137.006-.095.108-.196.27-.271.183-.099.223-.087.304-.329l.006-.681zm4.963-3.432c.415 0 .753.266.753.591s-.339.591-.753.591-.754-.266-.754-.591.338-.591.754-.591zM61.999 47.452c-.332.573-1.023 1.389-1.168 1.643-.091.239-.392.873-.456 1.198-.122.065-.182.076-.207.063.006-.022.013-.046.013-.068l.029-.037c.001-.026-.029.003-.046.038-.666.078-1.406.232-1.556-.022-.032-.019.045-.11.026-.139 1.011-.848 1.543-1.849 1.787-3.165-.204-.066-.477-.433-.807-.747-.126-.12-.191-.22-.305-.348.443-.016.882-.121 1.29-.242l.249.566.438.566.31.146.054.256c.04.016.309.257.349.294zm9.21-.936c-.177.733-.401 1.45-.666 2.145l.637.713.029-2.858zm-.047 4.46a19.11 19.11 0 0 1-1.781 2.864l-1.565-.326-.553 3.672h3.835l.065-6.21zm4.522 6.79h-8.557v.568c0 .313.248.568.553.568h7.451c.304 0 .553-.255.553-.568zm7.079 10.003c-.056 0-.116-.026-.183-.069-.108-.068-.23-.102-.339-.102h-.203c-.318 0-.576.304-.576.677 0 .413.379.745.846.745.262 0 .571-.097.813-.227v-.702l-.359-.322zM53.594 81.514l.49.003c8.507 0 16.395-2.735 22.831-7.371h1.942c-6.846 5.345-15.448 8.537-24.773 8.537-.164 0-.328-.001-.491-.002l.001-1.167zm0-1.783l.49.003c7.189 0 13.914-2.048 19.626-5.587h1.22c-5.994 3.945-13.159 6.245-20.846 6.245-.164 0-.328-.001-.491-.003zm-.001-15.945h38.265l1.308.006v8.746H53.593v-1.012h.211c.544 0 .983-.379.983-.846s-.379-.847-.847-.847h-.143l-.001-.001c.258-.013.013.103-.203-.003l-.001-2.875h1.148v2.167c0 .115-.101.244-.271.338-.129.075-.21.156-.204.203 0 .095.061.171.136.171h1.76c.115 0 .21-.076.204-.171 0-.081-.108-.176-.271-.237-.163-.073-.264-.176-.271-.27v-2.201h2.581c.298 0 .522.01.522.385-.074.206-.285.371-.562.375l-1.543.016-.019.735c.176 0 .442-.123.584.418.095.549.144.711.544.949.658.255 1.98.266 2.436 0l-.07-.687c-.245.198-.577.313-.943.313-.589 0-.696-.494-.689-.981.257.047-.07.068.013.068h.508c.508 0 1.115-.366 1.112-.813-.002-.393-.197-.636-.514-.779h4.106v.302l-.545-.118-.782.038.035.019c-.871-.019-1.867.292-1.95.952-.081 1.102.867 1.48 1.818 1.48.253 0 .923-.163 1.118-.209-.162.079-.263.181-.27.276 0 .074.074.137.169.137h1.852c.094 0 .169-.063.169-.137 0-.102-.108-.21-.271-.271-.183-.088-.253-.223-.26-.338v-2.133h4.432v.779h-2.566c-.887 0-.983.552-.987.925-.01 1.11 1.603 1.377 2.431.978.336-.162.425-.936.385-1.111l-.486.032c0-.071.036.3-.243.369-.315.077-.522.37-.806.006-.409-.528.169-.78.075-.79h2.196v.914c0 .142-.123.291-.305.372-.162.075-.264.176-.27.271 0 .074.074.137.169.137h1.896c.095 0 .17-.063.17-.137 0-.102-.108-.21-.271-.271-.183-.088-.297-.223-.305-.338v-2.133h1.321v2.099c0 .142-.122.291-.305.372-.162.075-.264.176-.271.271 0 .074.074.137.17.137h1.896c.095 0 .17-.063.17-.137 0-.102-.108-.21-.271-.271-.183-.088-.298-.223-.304-.338v-2.133h.731v-.515h-.684l.001-.001c.106-.039.445-.292.445-.406s-.06-.21-.135-.203c-.224 0-.353.271-.576.271-.122 0-.305-.068-.542-.203l-1.286-1.016c-.101-.088-.312-.135-.609-.135-.095 0-.264.047-.515.135l-.575.271c-.101.034-.17.142-.17.271 0 .054.088.095.204.102.095 0 .244-.061.44-.169.075-.047.176-.074.305-.068.122 0 .297.129.65.373l.576.406c.124.088.242.196.367.274.075.047.152.083.235.097l.006.001h-6.753c.084-.765-.333-1.264-1.476-1.251h-7.551c-1.456-.013-1.393.639-1.373 1.251h-1.012v-2.654zM84.72 42.329c-.056.198-.088.407-.096.622-.029.794.392 1.682.485 1.875l-.492-.019-.117 1.295 4.224.33c-.151 1.306-.518 2.972-.813 4.251l-2.628-.607c-.032-.039-.306-.581-.134-1.308.108-.451.364-.904.938-.753.527.139.683.691.516 1.325-.095.36-.274.563-.279.583l.566.149c.002-.01.34-.379.517-1.052.26-.984.101-1.964-.91-2.242-.963-.264-1.706.54-1.94 1.427a3.41 3.41 0 0 0 .022 1.684l-.81-.213-.327 1.238 1.863.491c.05.013.678.711.501 1.383-.224.848-.539.932-1.094.785-.478-.126-.662-.53-.486-1.203.074-.282.332-.662.347-.68l-.585-.154c-.002.01-.408.32-.617 1.109-.241.916-.09 1.884.952 2.159 1.014.268 1.706-.259 2.024-1.468.231-.876-.296-1.669-.327-1.709l1.502.414c-.414 1.44-.716 2.528-1.346 3.888l.802.444a43.81 43.81 0 0 0 2.577-9.734c.033-.237.061-.477.086-.72 1.139-.217 1.599-.672 1.696-1.028l-.52-.624c-.239.32-.262.409-1.111.894a11.5 11.5 0 0 0 .029-.469c1.28-.546 1.607-1.29 1.701-1.641l-.734-.607c-.109.23-.221.444-.931 1.407l.026-1.523-.916-.001-.022 2.65-.916-.037c.144-.154.674-.787.714-2.013.006-.2-.013-.403-.058-.599h-1.416c.243.183.317.437.316.457l-1.865 1.383c-.013-.032-.155-.442-.145-.711.034-.412.172-.878.506-1.129l-1.277.001zm-2.014-.002a28.43 28.43 0 0 1-5.01 16.142c-.013.006-.013.013-.013.016-.75 1.091-1.573 2.13-2.463 3.105h-.06l-.001.066-.334.359h-.094l-.001.1-.096.099-4.094-.022v.048h-.627v-.052l-.399-.002c0 .016-.001.034-.001.054h-2.536l.001-.067-.2-.001-.001.068h-1.681l.001-.077c-.086 0-.143-.001-.2-.001l-.001.078H53.591v.829h40.377v10.182H53.591v.817h2.352c-.411.783-1.342 1.413-2.254 1.998-.032-.019-.064-.04-.096-.061v.922c.078-.053.157-.105.239-.155.738.424 1.337.792 1.567 1.617.216-.162.637-.019.854-.181-.14-.632-.993-1.177-1.915-1.742.553-.328 1.145-.67 1.684-1.103 1.542 1.006 3.297 2.06 5.431 1.934-.054-.197-.52-.615-.573-.812.876.292 2.191.254 3.176.326-.126-.287-.416-.519-.541-.805.889.149 1.818.156 2.634.159-.125-.412-.47-.302-.596-.714a22.79 22.79 0 0 0 3.206-.113c-.071-.25-.852-.633-.924-.884a21.71 21.71 0 0 0 3.94-.384h15.931v2.563h15.044l-3.703-4.573 3.167-5.592h-6.99v-4.226h-6.06c3.357-5.882 5.278-12.682 5.278-19.915h-1.166c0 7.262-1.996 14.072-5.463 19.915h-1.316a37.79 37.79 0 0 0 5.652-19.915h-.657a37.15 37.15 0 0 1-5.768 19.915h-2.67a3.43 3.43 0 0 0 .914-.595l1.149-.785-1.311-.076c.427-.299 1.23-.685 1.453-1.149l.571-.71c-.975-.443-1.362-.162-2.366-.266.825-.713.526-1.416.231-2.622-.908.554-1.546.799-1.964 1.482L81 56.349c-.157.961-1.367 1.632-1.116 2.492l-.479-.142-.19.81c-.354.678-.345 1.214-.206 1.965l-.827-.829c-.157.476-.502 1.146-.32 1.595h-2.221c4.847-5.242 7.817-12.242 7.817-19.915h-.753zm-14.889.001l-.514 1.752c-.502.393.295 1.98.61 1.883l-.006.825c-.21.029-.815 2.12-.958 2.525-.179.614-.029.708-.149 1.032-.253-.029-.197.164-.197.264l-.16.319c0-.01.001-.016.001-.026-.655.162-1.382.414-1.564.177-.035-.016.022-.107.01-.138.134-.209.527-.528.545-.644.429-.934.781-2.068.79-3.098-.22-.032-.507-.426-.902-.688-.222-.146-.467-.297-.63-.47-.11-.118-.491-.231-.492-.378-.003.104.084.803-.585 1.067v.358c0 .084-.063.154-.141.154s-.142-.069-.142-.154v-.333l-.13.001v.267c0 .085-.063.154-.142.154s-.141-.069-.141-.154v-.281c-.096-.019-.176-.062-.213-.197-.001.053-.093.167-.205.192v.351c0 .084-.063.154-.142.154s-.141-.069-.141-.154v-.357c-.045-.003-.087-.01-.13-.016v.306c0 .085-.063.154-.141.154s-.142-.069-.142-.154v-.364c-.518-.15-.807-.511-.801-1.183.029-.09.622-.296.99-.396-.324-.002-.703-.002-1.112.172-1.468.306-3.11.742-4.232.435-.953-.261-1.594-.217-2.685-.296.108-1.102 1.39-.76.425-2.825-.003.483-.058 1.117-.061 1.6-.263.179-.516.569-.735 1.025l.001 6.579c.755-.016 1.534-.038 2.1-.001.243-.177.25-.353.492-.531.066-1.702.041-3.508.108-5.212.667.164 1.659.251 2.311.038l-.029 4.084c-.079.059-.204.183-.222.204l-.823.937c.006.048.341.095.515.063-.013.066-.105.071-.121.17.23.233 1.419.143 1.635-.163.01-.013.016-.022.026-.037l1.4.115.993.53 1.257-.298c.212.175.583.216.848.348l-.145.214c.016.046.351.051.519-.002-.002.067-.095.084-.098.184.257.202 1.425-.038 1.601-.367.074-.139.197-.349.3-.565l1.311-1.217a15.8 15.8 0 0 1-3.358 3.971c-1.804.369-3.587-.01-5.247.326-.583.118-.74.583-1.524.724-.387.013-1.003.155-1.389.165.904.111 1.526.409 2.464.287.324-.23.401-.472.961-.672 1.346-.482 2.617-.407 3.985-.23-2.612 1.956-5.851 3.117-9.352 3.117-.175 0-.349-.002-.523-.01l.001 3.549c.149.006.3.006.45.006a19.14 19.14 0 0 0 2.329-.136l.526-1.593a17.41 17.41 0 0 0 3.474-.934l1.252 1.117c1.402-.605 2.718-1.373 3.925-2.28l-.341-1.642a17.6 17.6 0 0 0 1.935-1.842l-.53 3.026c-.101.053-.168.157-.168.278 0 .113.059.213.149.268v.573c0 .559.405 1.015.9 1.015h7.823c.495 0 .9-.457.9-1.015v-.531c.15-.022.267-.154.267-.31 0-.164-.128-.3-.289-.313l-2.336-14.852h-.513l2.179 14.858h-3.835l-.04-7.252c.002-.006.006-.013.01-.022l-.01-.013-.026-4.759 1.445-.476c.087-.724.135-1.459.138-2.204v-.133h-4.461l-.029 1.108c-.016.637-.11 1.248-.026 1.696.162.847.446 1.408.495 2.115.064.908-.348 1.884-.514 2.524-.46-.537-.62-1.129-.65-1.858-.032-.777.245-1.91.342-3.151.064-.809.054-1.65.045-2.433"/><path d="M78.979 20.09c.006.006.177.56.736.068.613-.539.162-1.144.149-1.158l-1.065-1.117-.894-.815-2.84 3.143-.955-.884 2.728-3.256-1.661-1.322-2.512 3.417-1.031-.762.643-.954c-.036 0-.922-.038-1.808-.636-.852-.575-1.259-1.469-.566-2.497.445-.66 1.373-1.102 1.437-1.108l-1.615-.871-1.899 3.813-1.221-.603L68.4 10.72c-1.351-.65-2.788-1.131-4.221-1.567l-.437 1.495c.04-.032.84-.546 1.713-.302 1.203.338 1.72 1.037 1.437 2.046-.291 1.039-1.261 1.175-2.173.92-.786-.22-1.09-.63-1.1-.633l.163-.583a2.65 2.65 0 0 0 .675.357c.67.187 1.076.006 1.209-.467.155-.553.075-.869-.769-1.106-.67-.187-1.367.434-1.391.48l-.519 1.856-1.233-.345.225-.807s-.821.241-1.684-.001c-.884-.247-1.677-1.003-1.398-1.962.292-1.007 1.275-1.15 2.255-.876.67.187 1.034.53 1.044.533l-.158.563c-.019-.006-.22-.187-.579-.288-.631-.177-1.185-.029-1.332.496-.16.572.29.834.739.949.723.182 1.269-.084 1.309-.114l.646-2.618c-1.216-.321-2.377-.526-3.627-.718l.145-.854c3.22.488 6.451 1.417 9.506 2.747 2.767 1.286 5.42 2.87 7.484 4.588.262.189.661.522 1.097.902l-.512-1.564.933-.202c.216.291.642 1.058.286 2.394a.29.29 0 0 1 .032.029c.052-.345.499-1.034.971-.906.398.108.552.24 1.121.852l-.67.542c-.482-.583-.915-.452-.749.128l.563.534c.492.482 1.064 1.112 1.633 1.776-.214-1.094-.304-1.341-.397-1.57l.944-.13c.197.311.582 1.112.088 2.456l.925 1.151-.707.55-.681-.831c-.006.006.297.936-.142 1.322-1.195 1.052-2.256-.214-2.302-.295-.706.621-.979 1.424-.472 1.946l-.94-.109c-.458-.531-.624-.97-.468-1.504a17.46 17.46 0 0 1 .694-1.791l-.552-.628.807-.775 1.145 1.302zM56.346 8.563c.372 0 .676.303.676.676a.68.68 0 0 1-.676.675c-.372 0-.676-.304-.676-.675s.304-.676.676-.676zm17.68 5.333l-.961 1.391c-.003.006-.843.531-1.456.144-.579-.367-.834-.914-.432-1.492a3.61 3.61 0 0 1 1.219-1.094l1.63 1.052zm11.207 18.579c.003.016.013.238-.419.307-.39.063-.549-.128-.623-.336-.096-.268.062-.484.335-.528.454-.072.589.172.597.195l.11.362zm-2.539-8.423s-.209.016-.354-.189c-.121-.172-.148-.405.062-.56.404-.3.638-.016.82.236.342.473.084 1.076-.474 1.49-.728.54-1.009.123-1.338-.323l-1.117-1.506-.819.644.601.809c-.308.329-.297.533-.356.978a1.8 1.8 0 0 0 .37 1.432l.853 1.15.697-.518-.805-1.084c-.15-.203-.207-.413-.156-.651.039-.181.026-.169.168-.299l.247.332s1.215 1.544 2.453.591c.95-.731 1.121-2.419.389-3.406-.492-.664-1.244-1.68-2.496-.693-.53.419-.335 1.116.042 1.613.219.289.417.56.653.537l.561-.583zm6.672 12.543l-.874.163-.188-1.074-4.166.946-.264-1.249 2.287-.583-.331-.949c-.026.013-.224.29-.789.368-1.064.148-1.59-.441-1.905-1.343-.359-1.029-.085-1.848.935-2.294 1.419-.619 2.012.95 2.012.95l1.083 3.012.821-.209c-.536-2.033-1.032-3.799-1.915-5.695l-3.839 1.76-.532-1.128 3.768-1.962-.442-.894.793-.439c1.762 3.319 2.847 6.942 3.547 10.62zM55.42 26.716l.476 2.643 1.831-.006-.867-1.836-1.351-.793c-.029-.003-.06-.006-.089-.006zm5.005 1.278l.557 1.395 1.687.084.139-.163c-.752-.504-1.548-.946-2.383-1.316zm-2.063 3.808c.233 1.15.371 2.46.342 3.831.975-.27 2.396-.548 3.417-.554.994.034 1.938.068 2.789.306.707.197 1.278.403 1.701.602.35.163 1.003.501 1.53 1.08.88.966 1.223 2.51 1.391 3.19l-.223-1.679c-.658-2.673-2.007-5.08-3.844-7.02-.779-.035-2.01.029-2.79.058l.123.263c-.441.051-.588-.124-1.066-.303l-.323.026c.065.564.134 1.259.013 1.767-.988-.342-1.533-.979-2.036-1.629-.286.006-.74.056-1.026.062zm-2.093.043c.46-.019.981.026 1.441.006.314 1.199.419 2.348.366 3.792l-1.678.151c.119-1.478.114-2.718-.13-3.949zm15.059 3.408l-.784.878a17.35 17.35 0 0 1 .748 2.502zm.278-.497c.019.041.037.083.054.125l-.068.075-.022.369.022 4.318 1.429.47-1.224-8.349-.192 2.991zm-.514-3.106a1.28 1.28 0 0 1-.793-.537l-.721.107a19.08 19.08 0 0 1 1.247 1.958l.268-1.528zM53.593 11.098l.313.54-.313.013V11.1zm39.683 31.229c0-21.585-17.606-39.19-39.192-39.19l-.493.003V1.974l.493-.002c22.228 0 40.358 18.128 40.358 40.356h-1.166zm-1.783 0c0-20.603-16.805-37.407-37.408-37.407l-.493.003v-.657l.493-.003c20.966 0 38.066 17.099 38.066 38.064h-.657zm-2.61 0l.013-1.554.904-.054v1.609l-.916-.001zm-4.162.002c.238-.848.91-1.494 2.034-1.458 1.082.035 1.668.698 1.847 1.457h-1.416c-.131-.098-.313-.176-.559-.184-.262-.01-.468.063-.629.184zm-2.014-.002c0-7.279-2.742-13.937-7.245-18.996l.013.001-.431-.463a28.26 28.26 0 0 0-.844-.871h-.019c-.022-.019-.043-.041-.065-.063v-.019l-.152-.147c-.006 0-.013-.001-.022-.001-1.589-1.505-3.35-2.831-5.247-3.947v-.041h-.07l-.357-.205v-.026h-.045a29.17 29.17 0 0 0-2.03-1.04c0-.01-.001-.016 0-.026h-.056l-.371-.168v-.034h-.076l-.351-.152v-.05h-.12l-.506-.207v-.022c-.022-.001-.041 0-.062-.001-.327-.129-.658-.252-.991-.369v-.035c-.034 0-.067 0-.1-.001l-.526-.177v-.054h-.167l-.459-.142v-.06c-.071 0-.139 0-.205-.001l-.421-.12v-.082l-.307-.001c-2.354-.623-4.825-.955-7.37-.955l-.511.006-.002-.898.493-.003c16.179 0 29.376 13.195 29.376 29.375h-.754zm-13.961.001l.058-1.838c.095-2.022-.7-3.383-2.762-4.222-1.106-.451-2.555-.738-3.321-.746-2.852-.022-4.9 1.009-8.067.609-.417-.042-.763-.234-1.058-.48v-.569c.21.203.449.379.732.483.442.055.925.152 1.326.062.229-1.292.156-2.48-.055-3.771l-2.003-.043v-.584l.221-.002c.085.233.186.368.29.368s.204-.136.289-.374l16.297-.456v-.041a.74.74 0 0 0 .662.419c.405.001.736-.328.737-.732s-.328-.737-.732-.738a.74.74 0 0 0-.694.482c-5.34-.271-10.682-.364-16.022-.296.026-.304.04-.635.04-.98 0-1.496-.259-2.717-.577-2.717-.222 0-.415.597-.511 1.466l.001-4.51c.789-.045 1.708.016 2.728.199.406.072.825.159 1.254.256-.283.364-.561.781-.817.984l.026.043h-.029l.142.431a17.48 17.48 0 0 1 3.468.933l1.159-1.035.129-.01c.18.034.308.066.256.054a19.15 19.15 0 0 1 3.638 2.152l-.342 1.642a17.77 17.77 0 0 1 1.048.926l3.996.078a1.28 1.28 0 0 1 .884-.618c.022-.001.047.001.069.003.263.042 1.068-.003 1.307.715a1.26 1.26 0 0 1 .118.54c-.001.403-.192.762-.487.995l1.718 10.921h-.513l-.189-1.289a18.28 18.28 0 0 1 .049 1.29h-4.461zm-.928 0l.338-1.172c.139-1.037-.279-1.545-.407-2.308.473.019.643 1.496.662 3.318l.002.162"/></g><path d="M56.519 20.685a.91.91 0 0 1 .903.912.91.91 0 0 1-.909.906.91.91 0 0 1-.904-.912.91.91 0 0 1 .91-.906zm-4.201.476c.562.001 1.019.463 1.017 1.027s-.462 1.022-1.024 1.02-1.021-.464-1.019-1.027.462-1.023 1.026-1.02zm-.92-2.201c.563.002 1.02.464 1.017 1.028s-.462 1.022-1.025 1.019-1.021-.462-1.019-1.027.463-1.023 1.026-1.021zm2.615.395c.639.002 1.159.527 1.156 1.168s-.525 1.161-1.164 1.159-1.159-.527-1.157-1.167.525-1.161 1.166-1.159zm-.902-.358a1.03 1.03 0 0 1-1.026-1.026 1.03 1.03 0 0 1 1.026-1.027 1.03 1.03 0 0 1 1.027 1.027 1.03 1.03 0 0 1-1.027 1.026zm3.203-.847c.562.002 1.019.464 1.017 1.028s-.463 1.021-1.025 1.019-1.021-.464-1.019-1.027.463-1.022 1.026-1.021zm-2.286 5.399c-.002-.006-.006-.013-.01-.019h.006a1.02 1.02 0 0 1-.052-.32c0-.368.198-.691.495-.866v-.043c.137-.072.294-.114.46-.113a.98.98 0 0 1 .277.042 1.01 1.01 0 0 1 .782.981 1.01 1.01 0 0 1-1.007 1.007c-.033 0-.065-.001-.097-.003.039.106.059.221.059.341a1.01 1.01 0 0 1-1.821.591.97.97 0 0 1-.198-.592c.001-.174.047-.338.127-.479l.003-.007a1.01 1.01 0 0 1 .882-.52l.092.003" fill="#fff" class="B"/><path d="M53.111 18.996a1.03 1.03 0 0 1-1.026-1.026 1.03 1.03 0 0 1 1.026-1.027 1.03 1.03 0 0 1 1.027 1.027 1.03 1.03 0 0 1-1.027 1.026zm-1.713-.037c.563.002 1.02.464 1.017 1.028s-.462 1.022-1.025 1.019-1.021-.462-1.019-1.027.463-1.023 1.026-1.021zm.92 2.201c.562.001 1.019.463 1.017 1.027s-.462 1.022-1.024 1.02-1.021-.464-1.019-1.027.462-1.023 1.026-1.02zm3.996-3.012c.562.002 1.019.464 1.017 1.028s-.463 1.021-1.025 1.019-1.021-.464-1.019-1.027.463-1.022 1.026-1.021zm.205 2.536a.91.91 0 0 1 .903.912.91.91 0 0 1-.909.906.91.91 0 0 1-.904-.912.91.91 0 0 1 .91-.906zm-2.506-1.331c.639.002 1.159.527 1.156 1.168s-.525 1.161-1.164 1.159-1.159-.527-1.157-1.167.525-1.161 1.166-1.159zm.013 4.193c-.002-.006-.006-.013-.01-.019h.006a1.02 1.02 0 0 1-.052-.32c0-.368.198-.691.495-.866v-.043c.137-.072.294-.114.46-.113a.99.99 0 0 1 .277.042 1.01 1.01 0 0 1 .782.981 1.01 1.01 0 0 1-1.007 1.007c-.033 0-.065-.001-.097-.003a1 1 0 0 1 .059.341 1.01 1.01 0 0 1-1.821.591.97.97 0 0 1-.198-.592c.001-.174.047-.338.127-.479l.003-.007a1.01 1.01 0 0 1 .882-.52l.092.003zm-.879-.064c-.172-.022-.638.194-.791.135l-.504-.193-.501 1.562-1.731.389c.054-.122 1.146-2.233.829-2.132-.086 0-.625.08-.76.09.08-.16.401-.375.329-.501-2.162.269-3.526.718-4.264 1.243a.43.43 0 0 0-.09.066c.071-.546.354-1.016.354-1.016-1.211.607-2.678 1.356-3.769 2.17-.019-.29.022-.508.068-.793.037-.224-3.349 2.415-3.991 3.276.232-1.238.292-1.047.368-1.33-1.776 1.454-3.747 3.3-4.69 5.171l-.243-.785-2.849 3.811c-.232-1.826.221-3.727 1.679-4.892l-.928-.102c1.21-1.435 2.795-2.987 4.787-3.89-.423-.165-1.46-.071-1.946-.019 2.007-1.465 4.568-2.793 6.96-3.209l-.585-.295c.834-.794 2.073-1.075 3.425-1.213l-.635-.248 2.766-.86c-.527-.312-4.776.348-5.127.942-.132.079.773-1.192.773-1.192-1.694.476-3.548 1.504-4.75 2.691-.035-.266-.013-.744-.05-1.009-1.012.707-1.934 1.946-2.526 3.15-.113-.32.092-.955-.022-1.274l-3.169 5.085.069-3.606c2.291-2.902 5.131-5.349 8.359-7.189 1.328-.306 3.3-.478 4.854-.558-.24-.131-1.062-.222-.975-.382 1.311-.164 3.627.254 5.271.581.059-1.011-1.039-1.912-2.208-2.466 1.762-.457 3.588-.749 5.462-.86.817.85 1.634 2.29 1.651 3.383.419-1.108 1.726-2.586 2.745-3.308 1.473.139 2.916.391 4.318.746l-2.159 2.216c1.828-.395 3.652-.551 5.48-.174 0 0-1.674.694-1.385.694 1.074.016 7.753 1.271 7.153 1.561-.022-.091-.058-.177-.106-.264a28.84 28.84 0 0 1 4.011 3.278 5.45 5.45 0 0 0-.931.162c.096.308.665.642.761.949-1.618-.827-3.662-1.69-5.35-2.333.557.54 1.25.948 1.614 1.681-1.802-.849-3.477-1.923-5.364-2.605.289.405.65.857.939 1.261-1.5-.684-3.183-1.309-4.462-.906 1.086.49 3.462 1.1 4.576 1.668-.438.026-1.188.181-1.021.245 1.568.599 3.137 1.198 4.526 1.951-.732-.152-1.565-.197-2.332-.129 1.91.442 3.678 1.382 4.633 2.403-.428-.173-1.065-.345-1.507-.363 1.847.904 2.9 1.866 3.821 2.773-.249 0-.666-.042-.916-.042.77.596 1.457 1.12 1.457 2.027-.586-.704-1.417-1.074-2.158-1.315-.058.114.176.37.118.485-.442-.308-1.01-.512-1.452-.819-.193-.811-.528-1.455-1.028-1.955l.518 2.139c-1.129-1.594-2.542-2.613-3.98-3.585.474.693.956 1.555.96 2.249-3.909-3.829-5.423-3.896-7.248-4.561.596.539 1.423 1.195 2.019 1.734-.749-.247-3.909-.676-4.466-1.368-.155-.193.759 1.393 1.011 1.698-.541-.144-1.526-.349-1.893-.305-.082-.343-.521-1.693-.583-1.491-.107.348-.883.893-1.122.793-.107.496-.245 1.379-1.167 1.459-1.349.116-1.614-1.035-1.45-1.713.047-.189.424-.589.523-.666zm3.062 3.654c.146.022.918.12 1.068.144l.398.066c.935.16 1.906.361 2.747.669.22.44.342.9.72 1.386-1.087.026-2.349-.079-3.436-.054-.331-.599-.624-1.171-.813-1.819-.026-.092-.662-.306-.685-.391zm3.175 4.615c.659-.086 1.356-.05 2.016-.136.079.605.156 1.126.013 1.75-.866-.278-1.489-.92-2.028-1.614zm2.322-.169c.609.215.538.353 1.105.28-.049-.098-.085-.157-.134-.255-.506.002-.43.04-.971-.026zm-14.131.097h2.955v.029l-.092-.001c-.344.213-.445.486-1.097 1.009.003-.179-.201-.417-.32-.362-.428.197-.995.381-1.448.875.134-.573.134-1.024.311-1.536l-.308-.013zm.989-2.245c.831-.037 2.723.002 4.347-.071-.037-.733.022-1.617.183-2.448-1.548.013-2.413.19-3.863.593 0 0-.554 1.27-.667 1.925" fill="#00a650" class="B"/></svg>