<?xml version="1.0" encoding="UTF-8"?>
<svg version="1.1" viewBox="0 0 43.884 35.355" xmlns="http://www.w3.org/2000/svg" xmlns:cc="http://creativecommons.org/ns#" xmlns:dc="http://purl.org/dc/elements/1.1/" xmlns:rdf="http://www.w3.org/1999/02/22-rdf-syntax-ns#">
<metadata>
<rdf:RDF>
<cc:Work rdf:about="">
<dc:format>image/svg+xml</dc:format>
<dc:type rdf:resource="http://purl.org/dc/dcmitype/StillImage"/>
<dc:title/>
</cc:Work>
</rdf:RDF>
</metadata>
<g transform="translate(-520.76 -88.936)" fill-rule="evenodd">
<path d="m520.76 88.936h43.884v35.355h-43.884z" fill="#a20e37"/>
<path d="m547.07 96.601h5.0538v19.646h-5.0538v-4.8338c-4.425 1.65-8.57 1.8012-12.395-1.985-1.5862-1.6688-2.4625-3.9325-2.0862-7.9 0.045-0.585-0.2275-3.045-0.94375-4.6112h4.4888c2.0875 3.3725-0.65 7.3175 2.5688 10.066 4.37 2.8725 8.19-0.54875 8.3675-3.6638zm-5.02 2.1162c2.385 0 4.3312 1.9425 4.3312 4.325 0 2.3812-1.9462 4.3238-4.3312 4.3238-2.3862 0-4.3325-1.9425-4.3325-4.3238 0-2.3825 1.9462-4.325 4.3325-4.325" fill="#fbbc09"/>
</g>
</svg>
