<?xml version="1.0" encoding="UTF-8"?>
<svg version="1.1" viewBox="0 0 180.36 35.355" xmlns="http://www.w3.org/2000/svg" xmlns:cc="http://creativecommons.org/ns#" xmlns:dc="http://purl.org/dc/elements/1.1/" xmlns:rdf="http://www.w3.org/1999/02/22-rdf-syntax-ns#">
<metadata>
<rdf:RDF>
<cc:Work rdf:about="">
<dc:format>image/svg+xml</dc:format>
<dc:type rdf:resource="http://purl.org/dc/dcmitype/StillImage"/>
<dc:title/>
</cc:Work>
</rdf:RDF>
</metadata>
<g transform="translate(-520.76 -88.936)">
<path d="m520.76 88.936h180.36v35.355h-180.36v-35.355z" fill="#a20e37" fill-rule="evenodd"/>
<path d="m598.58 115.16h0.82125l-0.16375 0.89h-0.82l0.1625-0.89z" fill="#fff"/>
<path d="m600.1 115.16h0.82125l-0.1625 0.89h-0.82125l0.1625-0.89z" fill="#fff"/>
<path d="m601.62 115.16h0.82l-0.1625 0.89h-0.82125l0.16375-0.89z" fill="#fff"/>
<path d="m604.3 116.07c-0.12375 0.01-0.28 0.015-0.47 0.015-0.2775 0-0.46375-0.0525-0.55875-0.1575-0.095-0.10375-0.12-0.28375-0.0738-0.53875l0.365-1.98h-0.39625l0.11375-0.6125h0.3975l0.15875-0.875h0.765l-0.16 0.875h0.46125l-0.115 0.6125h-0.46125l-0.3375 1.8338c-0.0125 0.0675 1e-3 0.11625 0.04 0.14875 0.0387 0.03 0.1075 0.045 0.205 0.045l0.18375-0.0112-0.1175 0.645z" fill="#fff"/>
<path d="m604.79 116.05 0.81-4.3912h0.38125 0.3825l-0.28625 1.5562 0.0738-0.0838c0.24125-0.27875 0.535-0.4175 0.88-0.4175 0.3125 0 0.53875 0.0987 0.68 0.2975 0.14 0.1975 0.17625 0.47125 0.11125 0.8225l-0.40875 2.2162h-0.38-0.3825l0.37-2.0075c0.0362-0.20625 0.0263-0.36125-0.0325-0.46-0.0587-0.1-0.1675-0.15-0.32875-0.15-0.19625 0-0.36125 0.0662-0.49625 0.19875-0.13625 0.1325-0.225 0.31625-0.2675 0.5525l-0.3425 1.8662h-0.38-0.38375z" fill="#fff"/>
<path d="m609.32 116.13c-0.37875 0-0.66875-0.1-0.87-0.29875-0.20125-0.20125-0.3025-0.49-0.3025-0.86625 2e-3 -0.08 7e-3 -0.165 0.0163-0.25625 9e-3 -0.0925 0.0212-0.18375 0.0375-0.2775 0.0987-0.54125 0.29875-0.9625 0.5975-1.2675 0.3-0.305 0.665-0.45625 1.0962-0.45625 0.36375 0 0.63875 0.0987 0.82625 0.29875 0.18625 0.19875 0.28 0.4925 0.28 0.87875 0 0.0937-6e-3 0.1975-0.0163 0.30625-0.0113 0.11-0.0288 0.22375-0.0525 0.34125l-0.02 0.10375h-1.985l-4e-3 0.0425c-8e-3 0.06-0.0113 0.11625-0.0113 0.17 1e-3 0.1975 0.0475 0.345 0.135 0.44375 0.09 0.0987 0.2225 0.1475 0.4025 0.1475 0.13 0 0.2475-0.0312 0.35375-0.0937 0.1075-0.0625 0.1825-0.145 0.2275-0.24625h0.7725c-0.135 0.31625-0.33625 0.5675-0.60375 0.7525s-0.56 0.2775-0.88 0.2775m0.9175-2.0512 3e-3 -0.11375c0-0.1875-0.0388-0.3275-0.11875-0.4175-0.0788-0.0913-0.19875-0.13625-0.36-0.13625-0.20375 0-0.37375 0.0888-0.5075 0.26625-0.0788 0.10375-0.145 0.2375-0.2 0.40125h1.1838z" fill="#fff"/>
<path d="m612.67 116.05 0.59875-3.25h0.37125 0.37125l-0.085 0.46625 0.10625-0.135c0.24125-0.27875 0.535-0.4175 0.8775-0.4175 0.31375 0 0.54 0.0987 0.68 0.2975 0.14 0.1975 0.1775 0.47125 0.11125 0.8225l-0.40875 2.2162h-0.38-0.3825l0.37-2.0075c0.0375-0.20625 0.0263-0.36125-0.0325-0.46-0.0588-0.1-0.1675-0.15-0.32875-0.15-0.195 0-0.36125 0.0662-0.49625 0.19875-0.135 0.1325-0.225 0.31625-0.2675 0.5525l-0.34125 1.8662h-0.38-0.38375z" fill="#fff"/>
<path d="m616.71 116.13c-0.23625 0-0.42375-0.0625-0.56-0.18875-0.135-0.12625-0.20375-0.3025-0.20375-0.5275 0-0.0362 2e-3 -0.0762 7e-3 -0.1225 4e-3 -0.0462 0.0113-0.09 0.0188-0.135 0.0512-0.27125 0.17-0.4975 0.35875-0.68 0.1875-0.18375 0.41875-0.29625 0.6925-0.3375l0.64375-0.1025c0.06-0.01 0.1175-0.0263 0.17-0.0512 0.0675-0.0288 0.12-0.0725 0.155-0.12875 0.035-0.0575 0.0525-0.12375 0.0512-0.19875-2e-3 -0.08-0.0263-0.14125-0.0725-0.1825-0.0662-0.0588-0.18375-0.0875-0.3575-0.0875-0.13 0-0.2425 0.0387-0.335 0.11625-0.0925 0.0763-0.16375 0.19-0.215 0.34125h-0.7225c0.075-0.3725 0.23875-0.655 0.49-0.84875 0.2525-0.1925 0.5825-0.28875 0.9925-0.28875 0.37625 0 0.64625 0.0812 0.81375 0.24375 0.12375 0.12125 0.185 0.28125 0.18375 0.485 1e-3 0.0687-6e-3 0.145-0.0213 0.22375l-0.32875 1.7712c-0.0263 0.14375-0.0337 0.25375-0.0237 0.33 0.0112 0.0775 0.0425 0.13 0.0937 0.16v4e-3l-0.0213 0.115h-0.41375-0.41375c-0.0125-0.1275-0.0113-0.25375 5e-3 -0.37875-0.3 0.3125-0.62875 0.46875-0.9875 0.46875m1.12-1.2688 0.0712-0.395c-0.0725 0.0463-0.1525 0.08-0.24 0.1025l-0.3075 0.0675c-0.20375 0.0462-0.34875 0.105-0.43625 0.17375-0.0875 0.07-0.14375 0.17125-0.16875 0.305-4e-3 0.0187-4e-3 0.0187 0 0-4e-3 0.0187-6e-3 0.04-9e-3 0.0588-1e-3 0.0212-2e-3 0.0387-2e-3 0.0575 0 0.0912 0.0263 0.1625 0.0788 0.2125s0.12625 0.0738 0.22 0.0738c0.24125 0 0.455-0.10625 0.64125-0.3225 0.0325-0.035 0.0625-0.085 0.0913-0.14875 0.03-0.0662 0.05-0.1275 0.0612-0.185" fill="#fff"/>
<path d="m619.03 116.05 0.59875-3.25h0.37125 0.3725l-0.0875 0.46 0.11625-0.155c0.22125-0.26125 0.48625-0.39125 0.79875-0.39125 0.2825 0 0.48625 0.0888 0.6125 0.26875 0.055 0.0738 0.0912 0.16125 0.10875 0.26125l0.105-0.13875c0.21-0.26125 0.4675-0.39125 0.77-0.39125 0.31 0 0.535 0.0987 0.67375 0.295 0.0962 0.13375 0.14375 0.3025 0.14125 0.5075 3e-3 0.0963-9e-3 0.19875-0.0287 0.30875l-0.41125 2.225h-0.38-0.38375l0.38375-2.1062c0.035-0.17375 0.0263-0.30125-0.0238-0.385-0.05-0.0838-0.1425-0.12625-0.2775-0.12625-0.17375 0-0.31625 0.055-0.42375 0.165-0.10875 0.11-0.18375 0.27375-0.22375 0.4925l-0.35875 1.96h-0.38125-0.38375l0.38375-2.0812c0.0338-0.1825 0.0238-0.31625-0.0275-0.40375-0.0525-0.0888-0.15-0.1325-0.28875-0.1325-0.17125 0-0.30875 0.055-0.41375 0.165-0.10625 0.11-0.17875 0.27375-0.22 0.4925l-0.3575 1.96h-0.38125-0.38375z" fill="#fff"/>
<path d="m625.09 116.13c-0.3775 0-0.6675-0.1-0.86875-0.29875-0.20125-0.20125-0.3025-0.49-0.3025-0.86625 1e-3 -0.08 7e-3 -0.165 0.0162-0.25625 9e-3 -0.0925 0.0213-0.18375 0.0375-0.2775 0.0987-0.54125 0.2975-0.9625 0.5975-1.2675s0.66375-0.45625 1.0962-0.45625c0.36375 0 0.63875 0.0987 0.825 0.29875 0.18625 0.19875 0.28 0.4925 0.28 0.87875 0 0.0937-5e-3 0.1975-0.0163 0.30625-0.0113 0.11-0.0275 0.22375-0.0512 0.34125l-0.02 0.10375h-1.985l-5e-3 0.0425c-8e-3 0.06-0.0113 0.11625-0.0113 0.17 2e-3 0.1975 0.0475 0.345 0.13625 0.44375 0.0888 0.0987 0.2225 0.1475 0.40125 0.1475 0.13 0 0.24875-0.0312 0.355-0.0937s0.18125-0.145 0.22625-0.24625h0.7725c-0.13375 0.31625-0.33625 0.5675-0.60375 0.7525-0.26625 0.185-0.56 0.2775-0.88 0.2775m0.9175-2.0512 2e-3 -0.11375c0-0.1875-0.0388-0.3275-0.1175-0.4175-0.0788-0.0913-0.2-0.13625-0.36125-0.13625-0.20375 0-0.3725 0.0888-0.5075 0.26625-0.0775 0.10375-0.14375 0.2375-0.2 0.40125h1.1838z" fill="#fff"/>
<path d="m631.64 112.8-1.5788 3.2262c-0.29125 0.6-0.51875 0.98-0.6825 1.1412s-0.4 0.2425-0.71 0.2425c-0.14125 0-0.26-7e-3 -0.355-0.0213l0.125-0.68125c0.0163 9e-3 0.0663 0.0125 0.15 0.0125 0.20625 0 0.34875-0.045 0.425-0.135 0.0512-0.0575 0.11625-0.1875 0.195-0.38875l-0.45875-3.3962h0.42625 0.42625l0.17625 2.425 1.0562-2.425h0.4025 0.4025z" fill="#fff"/>
<path d="m632.78 116.13c-0.37375 0-0.67-0.11125-0.8875-0.3325-0.2175-0.2225-0.3275-0.525-0.32875-0.90625 0-0.0662 2e-3 -0.14 0.0113-0.2225 9e-3 -0.0825 0.0187-0.1625 0.0337-0.2375 0.0975-0.52875 0.30875-0.9475 0.6325-1.2588 0.32375-0.31 0.71375-0.465 1.17-0.465 0.375 0 0.67125 0.11125 0.88875 0.33625 0.2175 0.22625 0.32625 0.53125 0.32625 0.91875 0 0.0662-5e-3 0.1425-0.0138 0.22625-9e-3 0.0825-0.02 0.165-0.035 0.2425-0.095 0.52125-0.305 0.935-0.63 1.24-0.32375 0.30625-0.7125 0.45875-1.1675 0.45875m0.13375-0.71875c0.23125 0 0.42-0.0862 0.5675-0.2575 0.1475-0.17125 0.2525-0.42875 0.31625-0.77375 0.01-0.0562 0.0187-0.1125 0.0237-0.1675 6e-3 -0.0563 9e-3 -0.10625 9e-3 -0.1525 0-0.20125-0.0488-0.3575-0.14375-0.4675-0.0962-0.11125-0.2325-0.16625-0.4075-0.16625-0.23125 0-0.42 0.0875-0.5675 0.26125-0.1475 0.175-0.25375 0.4375-0.31875 0.78875-9e-3 0.0525-0.0163 0.10625-0.0225 0.16-6e-3 0.055-9e-3 0.105-6e-3 0.15 0 0.19875 0.0462 0.3525 0.1425 0.46125 0.095 0.10875 0.23 0.16375 0.4075 0.16375" fill="#fff"/>
<path d="m636.18 112.8-0.37125 2.0075c-0.0388 0.20625-0.0288 0.36125 0.0287 0.46 0.0588 0.1 0.16875 0.15 0.32875 0.15 0.19375 0 0.36-0.0662 0.49375-0.2 0.13625-0.1325 0.22375-0.315 0.26625-0.55125l0.34375-1.8662h0.3825 0.385l-0.59875 3.25h-0.36875-0.37l0.0837-0.475c-0.03 0.0475-0.0662 0.0962-0.10875 0.14375-0.24 0.27875-0.5325 0.4175-0.87625 0.4175-0.3125 0-0.53875-0.10875-0.6775-0.3275-0.0888-0.1425-0.1325-0.32125-0.1325-0.53875 0-0.11125 0.0125-0.23375 0.0375-0.3675l0.38875-2.1025h0.38125 0.38375z" fill="#fff"/>
<path d="m642.38 114.86c-0.1225 0.39125-0.325 0.70125-0.60625 0.92875-0.28125 0.23-0.60125 0.34375-0.9625 0.34375-0.3475 0-0.615-0.0975-0.80125-0.2925s-0.28-0.47625-0.28-0.845c0-0.0838 5e-3 -0.17375 0.015-0.27125 0.01-0.0962 0.0238-0.19375 0.0413-0.29 0.0987-0.54125 0.29875-0.9625 0.6-1.2675s0.66875-0.45625 1.1038-0.45625c0.37125 0 0.65 0.10875 0.83625 0.3275 0.155 0.18 0.23125 0.41875 0.23 0.7175l-0.0113 0.2h-0.7725c-7e-3 -0.185-0.0437-0.31875-0.11-0.40125-0.065-0.0825-0.1675-0.125-0.305-0.125-0.19875 0-0.36375 0.0875-0.49375 0.26125-0.13125 0.175-0.22875 0.43625-0.295 0.785-0.01 0.065-0.0187 0.13125-0.0263 0.19875-7e-3 0.0662-0.0113 0.1275-0.0113 0.18375 0 0.18125 0.0363 0.3225 0.1075 0.42125 0.07 0.1 0.17125 0.15 0.3 0.15 0.1475 0 0.2825-0.0525 0.405-0.1575s0.21-0.24125 0.26375-0.41125h0.7725z" fill="#fff"/>
<path d="m643.39 116.13c-0.2375 0-0.42375-0.0625-0.56-0.18875-0.135-0.12625-0.20375-0.3025-0.20375-0.5275 0-0.0362 3e-3 -0.0762 6e-3 -0.1225 5e-3 -0.0462 0.0125-0.09 0.02-0.135 0.05-0.27125 0.17-0.4975 0.3575-0.68 0.18875-0.18375 0.42-0.29625 0.6925-0.3375l0.645-0.1025c0.06-0.01 0.1175-0.0263 0.17-0.0512 0.0675-0.0288 0.11875-0.0725 0.155-0.12875 0.035-0.0575 0.0525-0.12375 0.0512-0.19875-2e-3 -0.08-0.0263-0.14125-0.0725-0.1825-0.0662-0.0588-0.185-0.0875-0.3575-0.0875-0.13 0-0.2425 0.0387-0.335 0.11625-0.0925 0.0763-0.16375 0.19-0.21625 0.34125h-0.72125c0.075-0.3725 0.23875-0.655 0.49-0.84875 0.25125-0.1925 0.5825-0.28875 0.9925-0.28875 0.37625 0 0.64625 0.0812 0.8125 0.24375 0.125 0.12125 0.18625 0.28125 0.18375 0.485 3e-3 0.0687-5e-3 0.145-0.02 0.22375l-0.32875 1.7712c-0.0263 0.14375-0.0337 0.25375-0.0237 0.33 0.0113 0.0775 0.0425 0.13 0.0937 0.16v4e-3l-0.0213 0.115h-0.41375-0.41375c-0.0125-0.1275-0.0113-0.25375 5e-3 -0.37875-0.3 0.3125-0.62875 0.46875-0.9875 0.46875m1.12-1.2688 0.0713-0.395c-0.0725 0.0463-0.1525 0.08-0.24 0.1025l-0.30875 0.0675c-0.2025 0.0462-0.3475 0.105-0.435 0.17375-0.0888 0.07-0.14375 0.17125-0.16875 0.305-4e-3 0.0187-4e-3 0.0187 0 0-4e-3 0.0187-6e-3 0.04-9e-3 0.0588-1e-3 0.0212-3e-3 0.0387-3e-3 0.0575 0 0.0912 0.0263 0.1625 0.0788 0.2125s0.12625 0.0738 0.22 0.0738c0.24125 0 0.455-0.10625 0.64125-0.3225 0.0325-0.035 0.0625-0.085 0.0912-0.14875 0.03-0.0662 0.05-0.1275 0.0612-0.185" fill="#fff"/>
<path d="m645.72 116.05 0.6-3.25h0.37 0.3725l-0.0862 0.46625 0.1075-0.135c0.24125-0.27875 0.53375-0.4175 0.8775-0.4175 0.3125 0 0.54 0.0987 0.67875 0.2975 0.14 0.1975 0.1775 0.47125 0.1125 0.8225l-0.40875 2.2162h-0.38-0.38375l0.37-2.0075c0.0375-0.20625 0.0263-0.36125-0.0312-0.46-0.0588-0.1-0.16875-0.15-0.32875-0.15-0.19625 0-0.36125 0.0662-0.49625 0.19875-0.13625 0.1325-0.225 0.31625-0.2675 0.5525l-0.3425 1.8662h-0.38-0.38375z" fill="#fff"/>
<path d="m650.63 116.05 0.81-4.3912h0.4075 1.5188c0.32375 0 0.5725 0.0762 0.745 0.2275 0.1725 0.15125 0.25875 0.36875 0.26125 0.65375-2e-3 0.0525-5e-3 0.1075-0.0113 0.16625-5e-3 0.0587-0.0125 0.11875-0.0237 0.1775-0.055 0.29625-0.2175 0.53625-0.49 0.71625-0.0425 0.0312-0.0875 0.0575-0.135 0.0813 0.055 0.0238 0.105 0.0537 0.14875 0.0888 0.1975 0.155 0.295 0.375 0.295 0.66375 0 0.0462-3e-3 0.0937-8e-3 0.145s-0.0113 0.10125-0.0213 0.15125c-0.0762 0.41375-0.265 0.7375-0.56625 0.97-0.30125 0.23375-0.68 0.35-1.1388 0.35h-1.385-0.4075zm1.4838-3.6238-0.175 0.9475h0.96125c0.19 0 0.3375-0.0387 0.44375-0.115 0.105-0.0762 0.1725-0.195 0.2025-0.35375 4e-3 -0.0263 6e-3 -0.05 0.01-0.0737 2e-3 -0.0225 4e-3 -0.0463 4e-3 -0.0725 0-0.11625-0.0375-0.2-0.11375-0.2525-0.0775-0.0525-0.19875-0.08-0.36625-0.08h-0.96625zm-0.31625 1.6975-0.21125 1.1588h0.94c0.2275 0 0.40375-0.0475 0.53-0.14125 0.1275-0.0937 0.2075-0.2375 0.24375-0.4325 6e-3 -0.0337 0.0113-0.065 0.015-0.0925 4e-3 -0.0275 5e-3 -0.0538 3e-3 -0.0775 0-0.13875-0.0425-0.24375-0.1275-0.3125-0.085-0.0687-0.21375-0.1025-0.3875-0.1025h-1.005z" fill="#fff"/>
<path d="m654.26 116.05 2.24-4.3912h0.47125 0.47125l0.54875 4.3912h-0.445-0.4475l-0.0875-0.92h-1.4512l-0.435 0.92h-0.43125-0.43375zm2.51-3.4238-0.855 1.7788h1.0288l-0.17625-1.7788h2e-3z" fill="#fff"/>
<path d="m659.23 116.05h-0.38125-0.38125l0.81-4.3912h0.42875 0.43l1.0112 3.11 0.575-3.11h0.38125 0.38l-0.81 4.3912h-0.40375-0.40875l-1.0525-3.1575-0.57875 3.1575z" fill="#fff"/>
<path d="m662.5 116.05 0.81-4.3912h0.40875 0.4075l-0.3325 1.8075 1.86-1.8075h0.525 0.525l-1.93 1.8238 1.19 2.5675h-0.5275-0.53l-0.8275-1.915-0.49625 0.47125-0.26625 1.4438h-0.4075-0.40875z" fill="#fff"/>
<path d="m669.21 112.8-0.37125 2.0075c-0.0388 0.20625-0.03 0.36125 0.0287 0.46 0.0588 0.1 0.16875 0.15 0.32875 0.15 0.19375 0 0.36-0.0662 0.49375-0.2 0.13625-0.1325 0.22375-0.315 0.26625-0.55125l0.34375-1.8662h0.3825 0.385l-0.59875 3.25h-0.36875-0.37l0.0838-0.475c-0.03 0.0475-0.0663 0.0962-0.10875 0.14375-0.24 0.27875-0.5325 0.4175-0.87625 0.4175-0.3125 0-0.53875-0.10875-0.6775-0.3275-0.0888-0.1425-0.1325-0.32125-0.1325-0.53875 0-0.11125 0.0125-0.23375 0.0362-0.3675l0.39-2.1025h0.38125 0.38375z" fill="#fff"/>
<path d="m671.75 112.8h0.35875 0.35875l-0.0825 0.46625 0.0575-0.0687c0.2875-0.32375 0.60375-0.48375 0.9475-0.48375 0.295 0 0.52625 0.1 0.69125 0.30125 0.16625 0.20125 0.24875 0.48 0.24875 0.83625-1e-3 0.0813-8e-3 0.1725-0.0163 0.275-0.01 0.10125-0.0237 0.20125-0.0412 0.29875-0.0913 0.49-0.2825 0.8975-0.57375 1.2238-0.2925 0.325-0.6125 0.4875-0.9625 0.4875-0.35125 0-0.6-0.1525-0.745-0.46l-5e-3 -0.0113-0.30625 1.6575h-0.38125-0.3825l0.83375-4.5225zm0.9025 2.6325c0.19375 0 0.365-0.0888 0.5175-0.26625 0.15-0.1775 0.2525-0.41125 0.30625-0.70125 0.0113-0.065 0.0213-0.12875 0.0287-0.1925 8e-3 -0.0662 0.01-0.12625 8e-3 -0.1825 0-0.2-0.0425-0.35625-0.12875-0.46625-0.0863-0.11125-0.20875-0.16625-0.36625-0.16625-0.18875 0-0.35875 0.0887-0.51125 0.26625-0.1525 0.1775-0.255 0.40375-0.305 0.68125h2e-3c-0.0612 0.3275-0.0538 0.58125 0.025 0.76 0.0775 0.17875 0.21875 0.2675 0.42375 0.2675" fill="#fff"/>
<path d="m675.81 116.13c-0.37375 0-0.67-0.11125-0.8875-0.3325-0.2175-0.2225-0.3275-0.525-0.32875-0.90625 0-0.0662 2e-3 -0.14 0.0112-0.2225 8e-3 -0.0825 0.0188-0.1625 0.0338-0.2375 0.0975-0.52875 0.30875-0.9475 0.6325-1.2588 0.32375-0.31 0.71375-0.465 1.17-0.465 0.375 0 0.67125 0.11125 0.88875 0.33625 0.2175 0.22625 0.32625 0.53125 0.32625 0.91875 0 0.0662-5e-3 0.1425-0.0138 0.22625-9e-3 0.0825-0.02 0.165-0.035 0.2425-0.095 0.52125-0.305 0.935-0.63 1.24-0.32375 0.30625-0.7125 0.45875-1.1675 0.45875m0.13375-0.71875c0.23125 0 0.42-0.0862 0.5675-0.2575 0.1475-0.17125 0.2525-0.42875 0.31625-0.77375 0.01-0.0562 0.0187-0.1125 0.0237-0.1675 6e-3 -0.0563 9e-3 -0.10625 9e-3 -0.1525 0-0.20125-0.0487-0.3575-0.14375-0.4675-0.0963-0.11125-0.2325-0.16625-0.4075-0.16625-0.23125 0-0.42 0.0875-0.5675 0.26125-0.1475 0.175-0.25375 0.4375-0.31875 0.78875-0.01 0.0525-0.0162 0.10625-0.0225 0.16-6e-3 0.055-9e-3 0.105-6e-3 0.15 0 0.19875 0.0462 0.3525 0.1425 0.46125 0.095 0.10875 0.23 0.16375 0.4075 0.16375" fill="#fff"/>
<path d="m677.84 116.05 0.59875-3.25h0.37125 0.3725l-0.0863 0.46625 0.10625-0.135c0.2425-0.27875 0.535-0.4175 0.87875-0.4175 0.3125 0 0.53875 0.0987 0.67875 0.2975 0.14 0.1975 0.1775 0.47125 0.1125 0.8225l-0.41 2.2162h-0.38-0.3825l0.37-2.0075c0.0375-0.20625 0.0262-0.36125-0.0312-0.46-0.06-0.1-0.16875-0.15-0.33-0.15-0.195 0-0.36 0.0662-0.49625 0.19875-0.135 0.1325-0.22375 0.31625-0.2675 0.5525l-0.34125 1.8662h-0.38-0.38375z" fill="#fff"/>
<path d="m681.75 114.84 0.17125-2.105 0.19625-1.0612h0.4175 0.42125l-0.1975 1.0612-0.6075 2.105h-0.20125-0.2zm-0.26375 0.34h0.80375l-0.15625 0.86375h-0.805l0.1575-0.86375z" fill="#fff"/>
<path d="m554.6 95.873h5.0538v19.646h-5.0538v-4.8338c-4.425 1.65-8.57 1.8012-12.395-1.985-1.5862-1.6688-2.4625-3.9325-2.0862-7.9 0.045-0.585-0.2275-3.045-0.94375-4.6113h4.4888c2.0875 3.3725-0.65 7.3175 2.5688 10.066 4.37 2.8725 8.19-0.54875 8.3675-3.6638v-6.7188zm-5.02 2.1162c2.385 0 4.3312 1.9425 4.3312 4.325 0 2.3812-1.9462 4.3238-4.3312 4.3238-2.3862 0-4.3325-1.9425-4.3325-4.3238 0-2.3825 1.9462-4.325 4.3325-4.325" fill="#fbbc09" fill-rule="evenodd"/>
<path d="m567 102.14c1.9438 0 3.5288 1.6112 3.5288 3.5888 0 2.4275-2.3588 3.9962-4.6025 3.2612v-1.6325c1.2288 0.73 2.8262-0.0162 2.8262-1.4975 0-1.055-0.845-1.915-1.8812-1.915-1.0375 0-1.8825 0.86-1.8825 1.915 0 2.2025-0.0488 4.4075-0.0488 6.6125h-1.4688v-6.7438l0.015-0.335c0.0388-1.7788 1.6138-3.2325 3.5138-3.2538" fill="#fff" fill-rule="evenodd"/>
<path d="m571.05 102.44h1.5525v3.525c-0.11375 2.0662 3.11 2.2188 3.0338 0v-3.525h1.555v3.6175c0.15375 4.4912-6.3712 4.1838-6.1412 0v-3.6175z" fill="#fff" fill-rule="evenodd"/>
<path d="m578.02 109.12h1.5525v-3.5262c-0.11375-2.0662 3.11-2.2188 3.0338 0v3.5262h1.5562v-3.6188c0.1525-4.4912-6.3725-4.1838-6.1425 0v3.6188z" fill="#fff" fill-rule="evenodd"/>
<path d="m599.38 109.37c1.9438 0 3.5288-1.6112 3.5288-3.5888 0-2.4275-2.3588-3.9962-4.6025-3.2625v1.6325c1.2288-0.72875 2.8262 0.0175 2.8262 1.4988 0 1.055-0.845 1.9138-1.8812 1.9138s-1.8825-0.85875-1.8825-1.9138c0-2.2025-0.0475-4.4088-0.0475-6.6138h-1.47v6.745l0.0163 0.33375c0.0375 1.78 1.6125 3.2325 3.5125 3.255" fill="#fff" fill-rule="evenodd"/>
<path d="m584.59 104.06v-1.605h3.0788v6.495c0.015 2.0162-1.3712 3.5888-3.3738 3.7525v-1.4575c0.98625-0.405 1.7488-0.985 1.7725-2.3212v-4.8638h-1.4775z" fill="#fff" fill-rule="evenodd"/>
<path d="m588.23 106.22c-0.16-1.9038 1.2362-3.2425 2.5675-3.655 1.8862-0.555 4.245 0.43 4.33 3.0975v3.3712h-1.4362l0.0113-3.4212c-0.1-1.5638-2.4675-2.2175-3.44-0.73625-0.40625 0.775-0.49875 1.9825 0.60875 2.6088 0.53125 0.19125 1.1288 0.28375 1.8725 0.16v1.4562c-1.1838 0.35875-2.36 0.27125-3.5212-0.8-0.5825-0.6-0.86375-1.2938-0.9925-2.0812" fill="#fff" fill-rule="evenodd"/>
<path d="m605.3 109.12h1.5525v-3.5262c-0.11375-2.0662 3.1088-2.2188 3.0338 0v3.5262h1.555v-3.6188c0.15375-4.4912-6.3725-4.1838-6.1412 0v3.6188z" fill="#fff" fill-rule="evenodd"/>
<path d="m612.13 106.22c-0.16-1.9038 1.2362-3.2425 2.5675-3.655 1.8862-0.555 4.245 0.43 4.33 3.0975v3.3712h-1.4362l0.0113-3.4212c-0.1-1.5638-2.4675-2.2175-3.44-0.73625-0.40625 0.775-0.49875 1.9825 0.60875 2.6088 0.53125 0.19125 1.1288 0.28375 1.8725 0.16v1.4562c-1.1838 0.35875-2.36 0.27125-3.5212-0.8-0.5825-0.6-0.86375-1.2938-0.9925-2.0812" fill="#fff" fill-rule="evenodd"/>
<path d="m634.07 109.12h1.5525v-3.5262c-0.11375-2.0662 3.1088-2.2188 3.0338 0v3.5262h1.555v-3.6188c0.15375-4.4912-6.3725-4.1838-6.1412 0v3.6188z" fill="#fff" fill-rule="evenodd"/>
<path d="m640.9 106.22c-0.16-1.9038 1.2375-3.2425 2.5675-3.655 1.8862-0.555 4.245 0.43 4.33 3.0975v3.3712h-1.435l0.01-3.4212c-0.1-1.5638-2.4675-2.2175-3.44-0.73625-0.40625 0.775-0.49875 1.9825 0.60875 2.6088 0.53125 0.19125 1.1288 0.28375 1.8725 0.16v1.4562c-1.1838 0.35875-2.36 0.27125-3.5212-0.8-0.5825-0.6-0.86375-1.2938-0.9925-2.0812" fill="#fff" fill-rule="evenodd"/>
<path d="m625.04 99.216c0.67875 0 1.23 0.55125 1.23 1.23 0 0.68-0.55125 1.2312-1.23 1.2312-0.68 0-1.2312-0.55125-1.2312-1.2312 0-0.67876 0.55125-1.23 1.2312-1.23" fill="#fff" fill-rule="evenodd"/>
<path d="m624.25 102.51h1.7375v6.6075h-1.7375v-6.6075z" fill="#fff" fill-rule="evenodd"/>
<path d="m619.88 100.21h1.665v2.3225h2.0275v1.5975h-2.0275v1.09c-0.06 1.9412 0.54625 2.3638 1.93 2.71l-5e-3 1.3062c-2.67 0.23-3.615-1.3775-3.59-4.0162v-5.01z" fill="#fff" fill-rule="evenodd"/>
<path d="m630.04 102.48c1.8962 0 3.4438 1.5462 3.4438 3.4438 0 1.8962-1.5475 3.4438-3.4438 3.4438s-3.4438-1.5475-3.4438-3.4438c0-1.8975 1.5475-3.4438 3.4438-3.4438m0 1.6538c0.985 0 1.79 0.80375 1.79 1.79 0 0.985-0.805 1.79-1.79 1.79-0.98625 0-1.79-0.805-1.79-1.79 0-0.98625 0.80375-1.79 1.79-1.79" fill="#fff" fill-rule="evenodd"/>
<path d="m662.94 106.22c-0.16-1.9038 1.2362-3.2425 2.5675-3.655 1.8862-0.555 4.2438 0.43 4.33 3.0975v3.3712h-1.4362l0.0113-3.4212c-0.1-1.5638-2.4675-2.2175-3.44-0.73625-0.4075 0.775-0.49875 1.9825 0.6075 2.6088 0.5325 0.19125 1.13 0.28375 1.8725 0.16v1.4562c-1.1825 0.35875-2.3588 0.27125-3.52-0.8-0.5825-0.6-0.86375-1.2938-0.9925-2.0812" fill="#fff" fill-rule="evenodd"/>
<path d="m670.73 109.12h1.5525v-3.5262c-0.11375-2.0662 3.1088-2.2188 3.0325 0v3.5262h1.5562v-3.6188c0.1525-4.4912-6.3725-4.1838-6.1412 0v3.6188z" fill="#fff" fill-rule="evenodd"/>
<path d="m658.95 109.37c1.9425 0 3.5288-1.6112 3.5288-3.5888 0-2.4275-2.3588-3.9962-4.6038-3.2625v1.6325c1.23-0.72875 2.8275 0.0175 2.8275 1.4988 0 1.055-0.845 1.9138-1.8825 1.9138-1.0362 0-1.8812-0.85875-1.8812-1.9138 0-2.2025-0.0488-4.4088-0.0488-6.6138h-1.47v6.745l0.0162 0.33375c0.0388 1.78 1.6138 3.2325 3.5138 3.255" fill="#fff" fill-rule="evenodd"/>
<path d="m648.63 99.159h1.5138v5.5913c-0.0913 2.2425 0.8975 2.8062 2.4988 3.025l-5e-3 1.4575c-2.9812 0.2575-4.035-1.5375-4.0075-4.4825v-5.5913z" fill="#fff" fill-rule="evenodd"/>
<path d="m677.67 99.08h1.6988v5.1888c0.49375-1.3525 1.6688-2.3088 3.0338-2.3088 0.0975 0 0.19375 5e-3 0.29 0.015v1.6288c-1.1 0.24-1.9188 1.1338-1.9188 2.1938 0 1.0588 0.81875 1.9525 1.9188 2.1925v1.4225c-0.0963 9e-3 -0.1925 0.015-0.29 0.015-1.365 0-2.54-0.9575-3.0338-2.31v1.9975h-1.6988v-10.035z" fill="#fff" fill-rule="evenodd"/>
</g>
</svg>
