<svg xmlns="http://www.w3.org/2000/svg" width="637" height="505"><path d="M372.7 504c137.75.66 263.48-112.34 263.48-249.8C636.17 103.86 510.44-.05 372.7 0H254.14C114.74-.05 0 103.9 0 254.2 0 391.7 114.74 504.66 254.14 504z" fill="#0079be"/><path d="M254.7 20.83c-127.38.04-230.6 103.3-230.63 230.72.03 127.4 103.25 230.65 230.63 230.7 127.4-.04 230.65-103.28 230.67-230.7C485.35 124.12 382.1 20.87 254.7 20.83zM108.5 251.55c.12-62.27 39-115.37 93.85-136.47V388c-54.84-21.1-93.73-74.16-93.85-136.44zM307 388.05V115.07c54.86 21.05 93.8 74.18 93.9 136.48-.1 62.32-39.05 115.4-93.9 136.5z" fill="#fff"/></svg>