<?xml version="1.0" encoding="UTF-8" standalone="no"?>
<svg
   xmlns:dc="http://purl.org/dc/elements/1.1/"
   xmlns:cc="http://creativecommons.org/ns#"
   xmlns:rdf="http://www.w3.org/1999/02/22-rdf-syntax-ns#"
   xmlns:svg="http://www.w3.org/2000/svg"
   xmlns="http://www.w3.org/2000/svg"
   xmlns:xlink="http://www.w3.org/1999/xlink"
   xmlns:sodipodi="http://sodipodi.sourceforge.net/DTD/sodipodi-0.dtd"
   xmlns:inkscape="http://www.inkscape.org/namespaces/inkscape"
   width="117.95505"
   height="39.679649"
   viewBox="0 0 117.95505 39.679649"
   version="1.1"
   id="svg97"
   sodipodi:docname="logo (1).svg"
   inkscape:version="0.92.3 (2405546, 2018-03-11)">
  <metadata
     id="metadata101">
    <rdf:RDF>
      <cc:Work
         rdf:about="">
        <dc:format>image/svg+xml</dc:format>
        <dc:type
           rdf:resource="http://purl.org/dc/dcmitype/StillImage" />
        <dc:title>AGgroup_Color@2x</dc:title>
      </cc:Work>
    </rdf:RDF>
  </metadata>
  <sodipodi:namedview
     pagecolor="#ffffff"
     bordercolor="#666666"
     borderopacity="1"
     objecttolerance="10"
     gridtolerance="10"
     guidetolerance="10"
     inkscape:pageopacity="1"
     inkscape:pageshadow="2"
     inkscape:window-width="640"
     inkscape:window-height="480"
     id="namedview99"
     showgrid="false"
     fit-margin-top="0"
     fit-margin-left="0"
     fit-margin-right="0"
     fit-margin-bottom="0"
     inkscape:zoom="2.1271186"
     inkscape:cx="59"
     inkscape:cy="19.679648"
     inkscape:window-x="964"
     inkscape:window-y="127"
     inkscape:window-maximized="0"
     inkscape:current-layer="svg97" />
  <!-- Generator: Sketch 52.4 (67378) - http://www.bohemiancoding.com/sketch -->
  <title
     id="title2">AGgroup_Color@2x</title>
  <desc
     id="desc4">Created with Sketch.</desc>
  <defs
     id="defs15">
    <rect
       id="path-1"
       x="0"
       y="0"
       width="117.9554"
       height="39.679298" />
    <rect
       id="path-3"
       x="0"
       y="0"
       width="117.9554"
       height="39.679298" />
    <rect
       id="path-5"
       x="0"
       y="0"
       width="117.9554"
       height="39.679298" />
    <rect
       id="path-7"
       x="0"
       y="0"
       width="117.9554"
       height="39.679298" />
    <rect
       id="path-9"
       x="0"
       y="0"
       width="117.9554"
       height="39.679298" />
    <rect
       id="path-11"
       x="0"
       y="0"
       width="117.9554"
       height="39.679298" />
    <rect
       id="path-13"
       x="0"
       y="0"
       width="117.9554"
       height="39.679298" />
    <rect
       id="path-15"
       x="0"
       y="0"
       width="117.9554"
       height="39.679298" />
    <rect
       id="path-17"
       x="0"
       y="0"
       width="117.9554"
       height="39.679298" />
  </defs>
  <g
     id="done"
     style="fill:none;fill-rule:evenodd;stroke:none;stroke-width:1">
    <g
       id="Marketing"
       transform="translate(-210,-40)">
      <g
         id="logo"
         transform="translate(210,40)">
        <g
           id="AGgroup_Color">
          <g
             id="Clipped">
            <mask
               id="mask-2"
               fill="white">
              <use
                 xlink:href="#path-1"
                 id="use17"
                 x="0"
                 y="0"
                 width="100%"
                 height="100%" />
            </mask>
            <g
               id="SVGID_1_" />
            <polygon
               id="Shape"
               mask="url(#mask-2)"
               points="0,36.291228 4.0495774,36.291228 17.592184,7.7101754 31.06947,36.291228 34.989809,36.291228 18.050488,0 17.161625,0 "
               style="fill:#c11718;fill-rule:nonzero" />
          </g>
          <g
             id="g91">
            <mask
               id="mask-4"
               fill="white">
              <use
                 xlink:href="#path-3"
                 id="use23"
                 x="0"
                 y="0"
                 width="100%"
                 height="100%" />
            </mask>
            <g
               id="g26" />
            <g
               id="Group"
               mask="url(#mask-4)">
              <g
                 id="g34">
                <mask
                   id="mask-6"
                   fill="white">
                  <use
                     xlink:href="#path-5"
                     id="use28"
                     x="0"
                     y="0"
                     width="100%"
                     height="100%" />
                </mask>
                <g
                   id="SVGID_3_" />
                <path
                   d="M 37.630762,36.291228 V 0 h 7.531631 c 5.432214,0 9.374327,0.43578947 11.827744,1.3073684 3.522089,1.2336842 6.275423,3.3719299 8.26,6.4147369 1.983524,3.0428067 2.975637,6.6694737 2.975637,10.8796487 0,3.63579 -0.786667,6.834035 -2.358244,9.597193 -1.571578,2.763158 -3.614101,4.802807 -6.12406,6.118597 -2.510309,1.315789 -6.029238,1.973684 -10.556083,1.973684 z m 3.481702,-3.429474 h 4.198131 c 5.020619,0 8.502673,-0.312631 10.445107,-0.936842 2.731911,-0.887368 4.880143,-2.484912 6.444697,-4.794386 1.563851,-2.308772 2.346655,-5.131579 2.346655,-8.467368 0,-3.5 -0.848477,-6.491228 -2.544024,-8.9722808 C 60.307482,7.2094737 57.944673,5.508421 54.916357,4.5880702 52.644506,3.8978947 48.899411,3.5526316 43.681071,3.5526316 H 41.112816 V 32.861754 Z"
                   id="path32"
                   mask="url(#mask-6)"
                   inkscape:connector-curvature="0"
                   style="fill:#c11718;fill-rule:nonzero" />
              </g>
              <g
                 id="g43">
                <mask
                   id="mask-8"
                   fill="white">
                  <use
                     xlink:href="#path-7"
                     id="use36"
                     x="0"
                     y="0"
                     width="100%"
                     height="100%" />
                </mask>
                <g
                   id="g39" />
                <path
                   d="m 77.878595,27.228772 h 2.23884 v 7.664561 c 0,1.512983 -0.304483,2.625965 -0.913798,3.338948 -0.817572,0.964912 -2.049548,1.447368 -3.695577,1.447368 -0.877977,0 -1.616179,-0.109474 -2.213554,-0.329123 -0.59878,-0.219298 -1.103792,-0.541403 -1.515036,-0.966315 -0.411244,-0.424913 -0.716077,-0.941755 -0.913095,-1.550176 h 2.476946 c 0.219494,0.252281 0.502203,0.442807 0.848125,0.571579 0.345572,0.128772 0.754358,0.193333 1.226358,0.193333 0.603696,0 1.089392,-0.09333 1.456738,-0.279649 0.367345,-0.186316 0.626875,-0.427719 0.777887,-0.723508 0.151011,-0.29579 0.226517,-0.805965 0.226517,-1.529474 -0.395089,0.394737 -0.809494,0.678596 -1.242863,0.851228 -0.433369,0.172631 -0.924684,0.258947 -1.473244,0.258947 -1.201773,0 -2.217065,-0.432982 -3.045523,-1.299298 -0.827757,-0.866316 -1.242864,-1.962807 -1.242864,-3.289474 0,-1.42 0.438988,-2.560351 1.316965,-3.421052 0.7965,-0.778597 1.745065,-1.16772 2.848154,-1.16772 0.515899,0 1.002649,0.09474 1.460953,0.28386 0.458303,0.189123 0.91766,0.500351 1.378774,0.933333 v -0.987368 z m -2.329446,1.866667 c -0.708,0 -1.292381,0.237193 -1.753494,0.711228 -0.460762,0.474386 -0.690792,1.070526 -0.690792,1.788772 0,0.745614 0.235298,1.356842 0.707298,1.834035 0.472,0.476842 1.064809,0.715438 1.778077,0.715438 0.696762,0 1.271661,-0.232982 1.724345,-0.698947 0.452685,-0.465965 0.679203,-1.077193 0.679203,-1.834035 0,-0.745614 -0.227572,-1.351579 -0.683066,-1.817544 -0.455494,-0.465965 -1.042684,-0.698947 -1.761571,-0.698947 z"
                   id="path41"
                   mask="url(#mask-8)"
                   inkscape:connector-curvature="0"
                   style="fill:#310f0f;fill-rule:nonzero" />
              </g>
              <g
                 id="g52">
                <mask
                   id="mask-10"
                   fill="white">
                  <use
                     xlink:href="#path-9"
                     id="use45"
                     x="0"
                     y="0"
                     width="100%"
                     height="100%" />
                </mask>
                <g
                   id="g48" />
                <path
                   d="m 81.8625,27.228772 h 1.925929 v 1.126667 c 0.208607,-0.444211 0.485696,-0.781404 0.831267,-1.011579 0.345572,-0.230176 0.724155,-0.345263 1.13575,-0.345263 0.290786,0 0.595268,0.07684 0.913798,0.230175 l -0.699571,1.932631 C 85.70628,29.029825 85.489595,28.96421 85.319268,28.96421 c -0.345572,0 -0.637762,0.213685 -0.876572,0.641404 -0.238809,0.427719 -0.358214,1.266316 -0.358214,2.516491 l 0.0081,0.43579 V 36.17614 H 81.8625 Z"
                   id="path50"
                   mask="url(#mask-10)"
                   inkscape:connector-curvature="0"
                   style="fill:#310f0f;fill-rule:nonzero" />
              </g>
              <g
                 id="g61">
                <mask
                   id="mask-12"
                   fill="white">
                  <use
                     xlink:href="#path-11"
                     id="use54"
                     x="0"
                     y="0"
                     width="100%"
                     height="100%" />
                </mask>
                <g
                   id="g57" />
                <path
                   d="m 91.986619,26.998246 c 0.844964,0 1.639357,0.211228 2.382827,0.633333 0.743471,0.422105 1.323988,0.995088 1.740852,1.718596 0.416863,0.723509 0.62547,1.504913 0.62547,2.34386 0,0.844211 -0.210012,1.633684 -0.629685,2.368421 -0.419672,0.734737 -0.991762,1.308772 -1.716268,1.722807 -0.724505,0.414035 -1.522761,0.621053 -2.395119,0.621053 -1.283952,0 -2.380017,-0.456491 -3.288196,-1.369123 -0.908179,-0.912632 -1.362268,-2.021754 -1.362268,-3.326316 0,-1.397895 0.513089,-2.563158 1.539268,-3.495088 0.89975,-0.811578 1.934357,-1.217543 3.103119,-1.217543 m 0.03687,2.113684 c -0.698167,0 -1.279387,0.242456 -1.743661,0.727719 -0.464273,0.485263 -0.696762,1.105965 -0.696762,1.862807 0,0.778597 0.229679,1.409123 0.688685,1.891579 0.459006,0.482456 1.039875,0.723509 1.743661,0.723509 0.703785,0 1.288869,-0.24386 1.756654,-0.73193 0.467084,-0.48807 0.700274,-1.115789 0.700274,-1.883158 0,-0.767368 -0.228976,-1.391228 -0.687982,-1.870877 -0.459708,-0.48 -1.046196,-0.719649 -1.760869,-0.719649"
                   id="path59"
                   mask="url(#mask-12)"
                   inkscape:connector-curvature="0"
                   style="fill:#310f0f;fill-rule:nonzero" />
              </g>
              <g
                 id="g70">
                <mask
                   id="mask-14"
                   fill="white">
                  <use
                     xlink:href="#path-13"
                     id="use63"
                     x="0"
                     y="0"
                     width="100%"
                     height="100%" />
                </mask>
                <g
                   id="g66" />
                <path
                   d="m 98.563012,27.228772 h 2.271848 v 4.309123 c 0,0.838947 0.0576,1.421403 0.17349,1.747368 0.11519,0.326316 0.30097,0.579649 0.55699,0.760702 0.25602,0.181053 0.57068,0.271228 0.94435,0.271228 0.37367,0 0.6922,-0.08912 0.95348,-0.267368 0.26129,-0.178246 0.45479,-0.44 0.58157,-0.785264 0.0934,-0.257543 0.13978,-0.808771 0.13978,-1.652982 v -4.382807 h 2.24691 V 31.02 c 0,1.562456 -0.12361,2.631579 -0.3705,3.207368 -0.30167,0.701755 -0.74628,1.240351 -1.33347,1.61579 -0.58719,0.375438 -1.33347,0.563158 -2.23884,0.563158 -0.98228,0 -1.77667,-0.219298 -2.38283,-0.657895 -0.606153,-0.438596 -1.032849,-1.049825 -1.280088,-1.834035 -0.175595,-0.542807 -0.263393,-1.529474 -0.263393,-2.960702 v -3.724912 z"
                   id="path68"
                   mask="url(#mask-14)"
                   inkscape:connector-curvature="0"
                   style="fill:#310f0f;fill-rule:nonzero" />
              </g>
              <g
                 id="g79">
                <mask
                   id="mask-16"
                   fill="white">
                  <use
                     xlink:href="#path-15"
                     id="use72"
                     x="0"
                     y="0"
                     width="100%"
                     height="100%" />
                </mask>
                <g
                   id="g75" />
                <path
                   d="m 110.91789,27.228772 v 0.986667 c 0.40598,-0.405614 0.84497,-0.709825 1.31697,-0.912983 0.472,-0.203158 0.97666,-0.30421 1.51433,-0.30421 1.16876,0 2.16193,0.441403 2.9795,1.323859 0.81757,0.882456 1.22636,2.014737 1.22636,3.396491 0,1.332281 -0.42248,2.446667 -1.26745,3.342807 -0.84496,0.896141 -1.84656,1.344562 -3.00443,1.344562 -0.5159,0 -0.99598,-0.09193 -1.44059,-0.275439 -0.4446,-0.183509 -0.88605,-0.483859 -1.32504,-0.900351 v 4.218597 h -2.23076 v -12.22 z m 2.36246,1.842105 c -0.708,0 -1.29519,0.241404 -1.76157,0.723509 -0.46638,0.482105 -0.69957,1.112982 -0.69957,1.891579 0,0.795088 0.23319,1.437895 0.69957,1.928421 0.46638,0.490526 1.05357,0.73614 1.76157,0.73614 0.68588,0 1.26359,-0.249473 1.73278,-0.748421 0.46919,-0.498947 0.70378,-1.134737 0.70378,-1.90807 0,-0.767719 -0.23038,-1.396491 -0.69149,-1.887368 -0.46112,-0.490878 -1.04269,-0.73579 -1.74507,-0.73579 z"
                   id="path77"
                   mask="url(#mask-16)"
                   inkscape:connector-curvature="0"
                   style="fill:#310f0f;fill-rule:nonzero" />
              </g>
              <g
                 id="g88">
                <mask
                   id="mask-18"
                   fill="white">
                  <use
                     xlink:href="#path-17"
                     id="use81"
                     x="0"
                     y="0"
                     width="100%"
                     height="100%" />
                </mask>
                <g
                   id="g84" />
                <polygon
                   id="polygon86"
                   mask="url(#mask-18)"
                   points="13.866054,23.725263 12.205976,27.228772 22.915179,27.228772 21.263179,23.725263 "
                   style="fill:#c11718;fill-rule:nonzero" />
              </g>
            </g>
          </g>
        </g>
      </g>
    </g>
  </g>
</svg>
