<?xml version="1.0" encoding="UTF-8"?>
<svg width="498.92" height="278.2" version="1.1" viewBox="0 0 498.92499 278.2" xml:space="preserve" xmlns="http://www.w3.org/2000/svg" xmlns:cc="http://creativecommons.org/ns#" xmlns:dc="http://purl.org/dc/elements/1.1/" xmlns:rdf="http://www.w3.org/1999/02/22-rdf-syntax-ns#"><metadata><rdf:RDF><cc:Work rdf:about=""><dc:format>image/svg+xml</dc:format><dc:type rdf:resource="http://purl.org/dc/dcmitype/StillImage"/><dc:title/></cc:Work></rdf:RDF></metadata>
<style type="text/css">
	.st0{fill:#FFA817;}
	.st1{fill:#FF0005;}
	.st2{fill:#FFFFFF;}
	.st3{fill:#EC1C24;}
	.st4{fill:#2E3191;}
	.st5{display:none;fill:none;stroke:#808080;stroke-miterlimit:10;}
	.st6{display:none;}
	.st7{display:inline;fill:#FFFFFF;}
	.st8{display:inline;fill:#0064A7;}
	.st9{fill:#0064A7;}
	.st10{fill:#231F20;}
	.st11{fill:#0073A5;}
	.st12{fill:#A6A8AB;}
	.st13{fill:#00477A;}
	.st14{fill:#06326E;}
	.st15{fill:#FAB31E;}
	.st16{fill:#E40520;}
	.st17{fill:#0066B2;}
	.st18{fill:#F9A533;}
	.st19{fill:#009BDD;}
	.st20{filter:url(#Adobe_OpacityMaskFilter);}
	.st21{mask:url(#mask-2_2_);fill:#803F90;}
	.st22{fill:#DD0046;}
	.st23{filter:url(#Adobe_OpacityMaskFilter_1_);}
	.st24{mask:url(#mask-4_2_);fill:#DD0046;}
</style>
			<path d="m0 36.1h23.7l19 72.3 18.3-68.9h19.3l18.6 68.9 18.6-72.3h23.7l-30.7 103.9h-21.4l-18.8-70.2-18.3 70.2h-21.4z"/>
			<path d="m152.5 96.3c1.1 16.6 15.9 25.9 30.1 25.7 12.1 0 20.2-5.5 25-14h25.5c-4.9 11.5-12.3 20.2-21 26.1-8.7 6.1-18.9 9.1-29.7 9.1-32 0-54.9-25.9-54.9-54.9 0-29.5 23.1-55.4 54.5-55.4 15.5 0 29.1 5.9 38.8 15.9 12.7 13.1 17.4 29.3 15.3 47.5zm59.2-18.9c-0.9-9.8-11.4-23.6-29.5-23.5-18.4 0-28.4 13.2-29.3 23.5z"/>
			<path d="m232.5 0h24.8v49c10.2-12.7 25.2-16.1 34.6-16.1 24.6 0 51.8 18 51.8 54.7 0 35.2-24.6 55.6-53 55.6-16.3 0-28.9-7.9-34.4-18.2v15h-23.8zm86.5 87.8c0-17-13.1-31.8-31.2-31.8-19.3 0-31.4 15.1-31.4 32 0 17.4 12.1 32.2 30.8 32.2 20.2 0 31.8-16.1 31.8-32.2z"/>
			<g fill="#ffa817">
				<path class="st0" d="m30.6 138h23.3v15.1c7.4-10.4 19.5-18.4 36.7-18.4 36.3 0 51.6 30.8 51.6 56 0 29.5-21 54.3-51.5 54.3-20.2 0-31.2-10.4-35.4-17v50.1h-24.7zm86.8 51.8c0-14.9-10.8-32-31.8-32-9.1 0-16.8 3.6-22.5 9.5-5.5 5.7-8.9 13.8-8.9 22.9 0 8.9 3.4 16.8 9.1 22.5s13.6 9.3 22.5 9.3c18.9 0 31.6-14.9 31.6-32z"/>
				<path class="st0" d="m249.3 241.9h-24.8v-14.9c-6.6 12.1-20.4 18.2-35 18.2-33.3 0-52.8-25.9-52.8-55.2 0-32.7 23.6-55.1 52.8-55.1 18.9 0 30.5 10 35 18.4v-15.3h24.8zm-87.8-51.5c0 12.9 9.3 31.6 31.6 31.6 13.8 0 22.9-7.2 27.6-16.6 2.5-4.5 3.6-9.5 4-14.6 0.2-4.9-0.8-10-2.8-14.6-4.4-9.8-14-18.4-28.9-18.4-20.1 0-31.4 16.3-31.4 32.4z"/>
				<path class="st0" d="m279.4 237.9-39.2-99.9h26.5l25.3 69.1 25-69.1h26.5l-54.7 140.2h-26.5z"/>
			</g>
			<path class="st1" d="m426.1 74.6c-2.3-2.3-6.2-2.3-8.5 0l-59.7 59.7-4.2 4.2v6 67.6c0 3.3 2.7 6 6 6h67.6c3.3 0 7.9-1.9 10.2-4.2l59.7-59.7c2.3-2.3 2.3-6.2 0-8.5z" fill="#ff0005"/>
		<g fill="#fff">
			<path class="st2" d="m363.9 144.2h6.1v5.9c2.5-4 6.9-6.9 12.8-6.9 11.5 0 17 9.6 17 18 0 9.5-6.9 17.6-16.9 17.6-7 0-11.1-3.8-12.6-6.5v17.7h-6.4zm29.5 16.7c0-5.5-3.9-11.7-11.7-11.7-3.3 0-6.2 1.3-8.3 3.5-2 2.1-3.3 5.1-3.3 8.4s1.2 6.2 3.3 8.3 5.1 3.4 8.3 3.4c6.8-0.1 11.7-5.3 11.7-11.9z"/>
			<path class="st2" d="m401.8 132.1h6.4v45.7h-6.4z"/>
			<path class="st2" d="m442.9 177.7h-6.1v-5.2c-1.6 3.5-5.4 6.2-11.4 6.2-10.8-0.1-13.6-7.9-13.6-14.9v-19.7h6.4v18.2c0 6 2.3 10.4 9 10.4 6.3-0.1 9.2-4.1 9.2-9.8v-18.8h6.4z"/>
			<path class="st2" d="m461.5 152.9c0-2.6-1.6-4.6-4.9-4.5-3.1 0-4.9 2.1-4.8 4.3 0.1 2.7 2.5 3.9 6.1 4.9 5.1 1.4 10.7 2.9 10.9 10.1 0.1 6.5-5.3 11-12 11-5.3 0-11.9-3-12.2-10.7h6.4c0.2 4.1 3.5 5.4 5.9 5.4 3.1 0 5.5-2.2 5.5-5-0.1-3.3-2.6-4.4-8.6-6.4-4.7-1.4-8.4-3.6-8.5-8.7 0-6.4 5.2-10.2 11.3-10.2 4.6 0 10.7 2.3 11.2 9.8h-6.3z"/>
		</g>
</svg>
