<?xml version="1.0" encoding="UTF-8"?>
<svg width="44.39" height="29.29" version="1.1" viewBox="0 0 44.389999 29.29" xmlns="http://www.w3.org/2000/svg" xmlns:cc="http://creativecommons.org/ns#" xmlns:dc="http://purl.org/dc/elements/1.1/" xmlns:rdf="http://www.w3.org/1999/02/22-rdf-syntax-ns#">
<metadata>
<rdf:RDF>
<cc:Work rdf:about="">
<dc:format>image/svg+xml</dc:format>
<dc:type rdf:resource="http://purl.org/dc/dcmitype/StillImage"/>
<dc:title>Recurso 2</dc:title>
</cc:Work>
</rdf:RDF>
</metadata>
<defs>
<style>.cls-1{fill:#c92130;}.cls-1,.cls-2{fill-rule:evenodd;}.cls-2{fill:#fff;}.cls-3{fill:#2a68ad;}</style>
</defs>
<title>Recurso 2</title>
<polygon class="cls-1" points="0 0 44.39 0 44.39 29.27 0 29.27" fill="#c92130" fill-rule="evenodd"/>
<path class="cls-2" d="m26.41 9.21a1 1 0 0 0 -0.41 0.79 56.61 56.61 0 0 0 -0.09 7.48l-0.2 1.19a1.74 1.74 0 0 0 0.28 1.13c0.14 0.15 0.18-0.08 0.12-0.17-0.32-0.76-0.18-1 0.11-1 0.06 0.43 0.15 0.54 0.25 0.33a3.76 3.76 0 0 0 -0.08 -1.5c0.52-2 0.24-3.12 0.73-6 0.08-0.12 0.17-0.2 0.26 0.07a15.1 15.1 0 0 1 0 2.69c-1.33 5.65 0 5.74 0.22 9.12-0.28 1.33 0.41 3 0.44 4.69a1.8 1.8 0 0 0 -0.49 1.26h4.28c-0.17-0.14 0-0.27-0.53-0.42s-1.38-0.55-1.33-1c0.86-3 0.29-3.56 0.83-5.65a13.67 13.67 0 0 0 0.18 -7.81 12.79 12.79 0 0 1 0.24 -3l1.12-1c0.1-0.66 0-1.28-2.28-2.06l-0.09-0.6c0.34 0 0.6 0.06 0.63-0.32a2 2 0 0 1 0 -0.59c0-0.26 0.56 0.1-0.13-0.8 0.17-1.71-1.64-1.35-2.05-1.15-0.79 0.48-0.76 1.47 0 2.38a1.91 1.91 0 0 1 -0.09 1.17 5.93 5.93 0 0 0 -1.92 0.81zm2.53 8.79a0.18 0.18 0 0 1 0.21 0 27.07 27.07 0 0 0 0.13 4.33 30.93 30.93 0 0 0 -0.14 5.7c-0.18 0.45-0.34 0.45-0.46 0a50.15 50.15 0 0 0 0.07 -5.08c0.1-1.41 0.19-3.49 0.19-4.94z" fill="#fff" fill-rule="evenodd"/>
<path class="cls-2" d="m32.41 10.74-1 0.67a9.82 9.82 0 0 0 0.06 2.49c-0.21 1.61 0.21 2.22 0.32 3.5s0 1.06-0.09 1.5c0.08 0.19 0.19 0 0.28-0.12l0.06-0.2c0.44 0.09 0.12 0.83-0.06 1.16-0.06 0.09 0 0.23 0.1 0.12a2 2 0 0 0 0.36 -1.24l-0.22-1.24a11 11 0 0 0 0.14 -3.49 15.76 15.76 0 0 0 0 -3.15z" fill="#fff" fill-rule="evenodd"/>
<path class="cls-2" d="m32.68 10.65v1.44a10.12 10.12 0 0 0 1.57 1.44c1.01 1.28 1.75 1.47 2.75 2.25s0.79 0.72 1 1.12c0.2 0.08 0.13-0.14 0.11-0.28l-0.11-0.18c0.38-0.25 0.67 0.49 0.78 0.86 0 0.1 0.17 0.16 0.15 0a2 2 0 0 0 -0.62 -1.12l-1-0.72a11.29 11.29 0 0 0 -2.37 -2.57 15.57 15.57 0 0 0 -2.21 -2.24z" fill="#fff" fill-rule="evenodd"/>
<path class="cls-2" d="m32.24 9.18 0.5 1h0.24a9.93 9.93 0 0 0 2.12 -0.09c1.61 0.21 2.22-0.21 3.5-0.32s1.06 0 1.5 0.09c0.2-0.08 0-0.19-0.12-0.28l-0.19-0.06c0.09-0.44 0.82-0.12 1.16 0.06 0.09 0.05 0.23 0 0.11-0.11a2 2 0 0 0 -1.24 -0.35l-1.23 0.22a11.06 11.06 0 0 0 -3.5 -0.14 12.87 12.87 0 0 0 -2.85 -0.05z" fill="#fff" fill-rule="evenodd"/>
</svg>
