<svg xmlns="http://www.w3.org/2000/svg" viewBox="0 0 156.55 29.29"><defs><style>.cls-1{fill:#c92130;}.cls-1,.cls-2{fill-rule:evenodd;}.cls-2{fill:#fff;}.cls-3{fill:#2a68ad;}</style></defs><title>Recurso 2</title><g id="Capa_2" data-name="Capa 2"><g id="Layer_1" data-name="Layer 1"><polygon class="cls-1" points="0 0 44.39 0 44.39 29.27 0 29.27 0 0 0 0"/><path class="cls-2" d="M26.41,9.21A1,1,0,0,0,26,10a56.61,56.61,0,0,0-.09,7.48l-.2,1.19a1.74,1.74,0,0,0,.28,1.13c.14.15.18-.08.12-.17-.32-.76-.18-1,.11-1,.06.43.15.54.25.33a3.76,3.76,0,0,0-.08-1.5c.52-2,.24-3.12.73-6,.08-.12.17-.2.26.07a15.1,15.1,0,0,1,0,2.69c-1.33,5.65,0,5.74.22,9.12-.28,1.33.41,3,.44,4.69a1.8,1.8,0,0,0-.49,1.26l4.28,0c-.17-.14,0-.27-.53-.42s-1.38-.55-1.33-1c.86-3,.29-3.56.83-5.65a13.67,13.67,0,0,0,.18-7.81,12.79,12.79,0,0,1,.24-3l1.12-1c.1-.66,0-1.28-2.28-2.06l-.09-.6c.34,0,.6.06.63-.32a2,2,0,0,1,0-.59c0-.26.56.1-.13-.8.17-1.71-1.64-1.35-2.05-1.15-.79.48-.76,1.47,0,2.38a1.91,1.91,0,0,1-.09,1.17,5.93,5.93,0,0,0-1.92.81ZM28.94,18a.18.18,0,0,1,.21,0,27.07,27.07,0,0,0,.13,4.33,30.93,30.93,0,0,0-.14,5.7c-.18.45-.34.45-.46,0a50.15,50.15,0,0,0,.07-5.08c.1-1.41.19-3.49.19-4.94Z"/><path class="cls-2" d="M32.41,10.74l-1,.67a9.82,9.82,0,0,0,.06,2.49c-.21,1.61.21,2.22.32,3.5s0,1.06-.09,1.5c.08.19.19,0,.28-.12l.06-.2c.44.09.12.83-.06,1.16-.06.09,0,.23.1.12a2,2,0,0,0,.36-1.24l-.22-1.24a11,11,0,0,0,.14-3.49,15.76,15.76,0,0,0,0-3.15Z"/><path class="cls-2" d="M32.68,10.65l0,1.44h0a10.12,10.12,0,0,0,1.57,1.44C35.26,14.81,36,15,37,15.78s.79.72,1,1.12c.2.08.13-.14.11-.28L38,16.44c.38-.25.67.49.78.86,0,.1.17.16.15,0a2,2,0,0,0-.62-1.12l-1-.72a11.29,11.29,0,0,0-2.37-2.57,15.57,15.57,0,0,0-2.21-2.24Z"/><path class="cls-2" d="M32.24,9.18l.5,1c.12,0,.12,0,.24,0a9.93,9.93,0,0,0,2.12-.09c1.61.21,2.22-.21,3.5-.32s1.06,0,1.5.09c.2-.08,0-.19-.12-.28l-.19-.06c.09-.44.82-.12,1.16.06.09.05.23,0,.11-.11a2,2,0,0,0-1.24-.35l-1.23.22a11.06,11.06,0,0,0-3.5-.14,12.87,12.87,0,0,0-2.85-.05Z"/><path class="cls-3" d="M51.93,23.41a3.36,3.36,0,0,0,.73,2.29,2.9,2.9,0,0,0,4,0,3.36,3.36,0,0,0,.72-2.29,3.4,3.4,0,0,0-.73-2.31,2.54,2.54,0,0,0-2-.84,2.47,2.47,0,0,0-2,.85,3.38,3.38,0,0,0-.74,2.3Zm-2.86,5.43V11.75h3v6.16c0,.34,0,.68,0,1s-.06.66-.11,1a5.49,5.49,0,0,1,1.68-1.71,4,4,0,0,1,2.07-.53,4.46,4.46,0,0,1,3.61,1.53,6.34,6.34,0,0,1,1.3,4.26,6.5,6.5,0,0,1-1.31,4.23,4.27,4.27,0,0,1-3.45,1.59,4.6,4.6,0,0,1-2.19-.48,4.15,4.15,0,0,1-1.54-1.5l0,1.55Zm21.36-6.53a2.31,2.31,0,0,0-.74-1.55A2.49,2.49,0,0,0,68,20.24a2.55,2.55,0,0,0-1.69.52,2.46,2.46,0,0,0-.82,1.55Zm3.11,1.9H65.42A2.72,2.72,0,0,0,66.27,26a2.61,2.61,0,0,0,1.79.58,3.11,3.11,0,0,0,1.48-.33,2.71,2.71,0,0,0,1-1l2.53,1.26A5.76,5.76,0,0,1,71,28.58a6.14,6.14,0,0,1-3,.69,5.53,5.53,0,0,1-4.16-1.57,5.75,5.75,0,0,1-1.53-4.21,5.76,5.76,0,0,1,1.6-4.19A5.51,5.51,0,0,1,68,17.66,5.42,5.42,0,0,1,72.1,19.2a5.73,5.73,0,0,1,1.5,4.19c0,.1,0,.2,0,.32s0,.28,0,.5Zm2.38,4.63V18H79v1.7a6,6,0,0,1,1.83-1.56,4.72,4.72,0,0,1,2.17-.5,4.64,4.64,0,0,1,2.11.43,3.16,3.16,0,0,1,1.35,1.29,3.23,3.23,0,0,1,.34,1,10.67,10.67,0,0,1,.11,1.78v6.66H83.76V23.49a4.93,4.93,0,0,0-.47-2.63,1.81,1.81,0,0,0-1.58-.64,2.65,2.65,0,0,0-1.2.27,2.48,2.48,0,0,0-.91.76,2.5,2.5,0,0,0-.41.89,6.24,6.24,0,0,0-.13,1.51v5.19Zm21.93-5.43a3.38,3.38,0,0,0-.74-2.3,2.44,2.44,0,0,0-2-.85,2.5,2.5,0,0,0-2,.84,3.41,3.41,0,0,0-.74,2.31,3.36,3.36,0,0,0,.72,2.29,2.56,2.56,0,0,0,2,.81,2.54,2.54,0,0,0,2-.81,3.36,3.36,0,0,0,.72-2.29Zm2.87,5.43h-3l0-1.55a4.15,4.15,0,0,1-1.54,1.5,4.6,4.6,0,0,1-2.19.48,4.3,4.3,0,0,1-3.47-1.6,6.47,6.47,0,0,1-1.32-4.22,6.4,6.4,0,0,1,1.3-4.26,4.47,4.47,0,0,1,3.6-1.53,4,4,0,0,1,2.11.54,4.33,4.33,0,0,1,1.53,1.61V18h3V28.84Zm5.61,0L101.93,18h3.63l1.83,5.63a11.68,11.68,0,0,1,.35,1.26,10.19,10.19,0,0,1,.19,1.15q.13-.86.27-1.44a10.28,10.28,0,0,1,.3-1.08L110.35,18h3.57l-4.45,10.82Zm8.79-15.26A1.84,1.84,0,0,1,117,11.75a1.78,1.78,0,0,1,1.3.54,1.8,1.8,0,0,1,0,2.59,1.78,1.78,0,0,1-1.3.54,1.72,1.72,0,0,1-1.29-.55,1.78,1.78,0,0,1-.54-1.29Zm.27,15.26V18h3.13V28.84Zm14.29-5.43a3.38,3.38,0,0,0-.73-2.3,2.45,2.45,0,0,0-2-.85,2.57,2.57,0,0,0-2,.83,3.38,3.38,0,0,0-.73,2.3,3.39,3.39,0,0,0,.72,2.3,2.52,2.52,0,0,0,2,.82,2.56,2.56,0,0,0,2-.81,3.36,3.36,0,0,0,.71-2.29Zm2.87,5.43h-3l0-1.55a4,4,0,0,1-1.54,1.5,4.53,4.53,0,0,1-2.18.48,4.29,4.29,0,0,1-3.47-1.6A6.42,6.42,0,0,1,121,23.45a6.4,6.4,0,0,1,1.3-4.28,4.45,4.45,0,0,1,3.6-1.53,3.92,3.92,0,0,1,2.07.54,5.42,5.42,0,0,1,1.67,1.7c0-.26-.06-.55-.08-.87s0-.68,0-1.1V11.75h3V28.84Zm10.53-6.53a2.36,2.36,0,0,0-.75-1.55,2.47,2.47,0,0,0-1.67-.52,2.57,2.57,0,0,0-1.69.52,2.5,2.5,0,0,0-.81,1.55Zm3.1,1.9h-8.12a2.77,2.77,0,0,0,.85,1.74,2.62,2.62,0,0,0,1.8.58,3.14,3.14,0,0,0,1.48-.33,2.76,2.76,0,0,0,1-1l2.54,1.26a5.86,5.86,0,0,1-2.14,2.12,6.14,6.14,0,0,1-3,.69,5.55,5.55,0,0,1-4.16-1.57A5.75,5.75,0,0,1,135,23.49a5.77,5.77,0,0,1,1.61-4.19,5.48,5.48,0,0,1,4.1-1.64,5.42,5.42,0,0,1,4.08,1.54,5.73,5.73,0,0,1,1.5,4.19c0,.1,0,.2,0,.32s0,.28,0,.5Zm1.33,2.73,2.41-1.24a1.53,1.53,0,0,0,.65,1,2.27,2.27,0,0,0,1.31.36,2.19,2.19,0,0,0,1.21-.28.85.85,0,0,0,.44-.78c0-.52-.52-1-1.56-1.31l-.77-.27A7.81,7.81,0,0,1,148.56,23a2.45,2.45,0,0,1-.74-1.8,3.11,3.11,0,0,1,1.25-2.57,5.19,5.19,0,0,1,3.29-1,5.09,5.09,0,0,1,2.51.58,3.49,3.49,0,0,1,1.55,1.65L154.12,21a1.65,1.65,0,0,0-.65-.92,2,2,0,0,0-1.16-.31,2,2,0,0,0-1.12.28.86.86,0,0,0-.43.75q0,.81,2.13,1.5l.39.12a6.26,6.26,0,0,1,2.53,1.37,2.69,2.69,0,0,1,.74,2,3,3,0,0,1-1.24,2.56,5.43,5.43,0,0,1-3.36.95,6.13,6.13,0,0,1-2.86-.62,3.15,3.15,0,0,1-1.58-1.71Z"/><path class="cls-3" d="M56.34,14V11.47h-.52V10h.52V9.55a1.71,1.71,0,0,1,.45-1.27,1.69,1.69,0,0,1,1.27-.44,3,3,0,0,1,.43,0,3.35,3.35,0,0,1,.44.07v1.5h-.08l-.2,0a.33.33,0,0,0-.28.11.57.57,0,0,0-.09.37V10h.65v1.47h-.65V14Zm5.91-2a.64.64,0,0,0,.13.42.46.46,0,0,0,.36.15.47.47,0,0,0,.37-.15.6.6,0,0,0,.13-.42.59.59,0,0,0-.14-.42.46.46,0,0,0-.36-.15.44.44,0,0,0-.36.16.59.59,0,0,0-.13.41Zm1,2v-.6a2,2,0,0,1-.6.57,1.4,1.4,0,0,1-.7.18,1.38,1.38,0,0,1-1.15-.59A2.37,2.37,0,0,1,60.39,12a2.55,2.55,0,0,1,.44-1.56A1.4,1.4,0,0,1,62,9.87a1.47,1.47,0,0,1,.67.16,1.86,1.86,0,0,1,.56.5V10h1.86v4ZM67,14V10h1.88v.56a1.58,1.58,0,0,1,.56-.51,1.3,1.3,0,0,1,.68-.18h.14v1.94a1.82,1.82,0,0,0-.3-.13.77.77,0,0,0-.25,0,.75.75,0,0,0-.57.2.73.73,0,0,0-.2.56V14ZM72,14V10h1.85v.56a1.56,1.56,0,0,1,.5-.52,1.19,1.19,0,0,1,.63-.17,1.14,1.14,0,0,1,.7.21,1.44,1.44,0,0,1,.45.64,1.65,1.65,0,0,1,.56-.63,1.37,1.37,0,0,1,.74-.22,1.21,1.21,0,0,1,.94.39,1.53,1.53,0,0,1,.34,1.05V14H76.8V12a1.22,1.22,0,0,0,0-.42.21.21,0,0,0-.2-.11.25.25,0,0,0-.22.13.73.73,0,0,0-.08.4v2H74.41V12a.94.94,0,0,0-.06-.41.2.2,0,0,0-.2-.12.26.26,0,0,0-.23.13.84.84,0,0,0-.07.4v2Zm10.33-2a.64.64,0,0,0,.14.42.51.51,0,0,0,.72,0,.61.61,0,0,0,.14-.42.64.64,0,0,0-.14-.42.46.46,0,0,0-.36-.15.44.44,0,0,0-.36.16.6.6,0,0,0-.14.41Zm1.06,2v-.6a2.14,2.14,0,0,1-.61.57,1.38,1.38,0,0,1-.7.18,1.39,1.39,0,0,1-1.15-.59A2.43,2.43,0,0,1,80.43,12a2.49,2.49,0,0,1,.45-1.56A1.38,1.38,0,0,1,82,9.87a1.55,1.55,0,0,1,.68.16,2,2,0,0,1,.56.5V10h1.85v4Zm6.72-2.28a1,1,0,0,0-.32-.2.8.8,0,0,0-.34-.07.72.72,0,0,0-.47.15.57.57,0,0,0-.17.42.53.53,0,0,0,.17.4.6.6,0,0,0,.44.16.84.84,0,0,0,.34-.08,1.35,1.35,0,0,0,.35-.22v1.59a3.16,3.16,0,0,1-.58.21,2.13,2.13,0,0,1-.55.07,2.27,2.27,0,0,1-.83-.15,1.92,1.92,0,0,1-.67-.43,2.33,2.33,0,0,1-.47-.7,2.17,2.17,0,0,1-.16-.84,2.33,2.33,0,0,1,.08-.59,1.86,1.86,0,0,1,.24-.54,2.13,2.13,0,0,1,.76-.76,2.15,2.15,0,0,1,1-.26,2.46,2.46,0,0,1,.53.06,3.84,3.84,0,0,1,.6.16v1.62Zm3.8-3a.86.86,0,0,1-.29.68,1.07,1.07,0,0,1-.76.25,1.09,1.09,0,0,1-.76-.25.84.84,0,0,1-.29-.68.83.83,0,0,1,.28-.67,1.17,1.17,0,0,1,.77-.25,1.15,1.15,0,0,1,.77.25.87.87,0,0,1,.28.67Zm-2,5.23V10h1.94v4Zm5.61-2a.64.64,0,0,0,.14.42.51.51,0,0,0,.72,0,.61.61,0,0,0,.14-.42.64.64,0,0,0-.14-.42.46.46,0,0,0-.36-.15.44.44,0,0,0-.36.16.6.6,0,0,0-.14.41Zm1.06,2v-.6a2.14,2.14,0,0,1-.61.57,1.38,1.38,0,0,1-.7.18,1.39,1.39,0,0,1-1.15-.59A2.43,2.43,0,0,1,95.6,12a2.49,2.49,0,0,1,.45-1.56,1.38,1.38,0,0,1,1.16-.6,1.55,1.55,0,0,1,.68.16,1.86,1.86,0,0,1,.56.5V10h1.85v4Zm3.28-.28.51-1.24a3,3,0,0,0,.59.33,1.13,1.13,0,0,0,.46.11.37.37,0,0,0,.23-.05.23.23,0,0,0,.08-.17c0-.1-.11-.18-.34-.22l-.18,0a1.62,1.62,0,0,1-.82-.41,1,1,0,0,1-.26-.72,1.24,1.24,0,0,1,.52-1,2.25,2.25,0,0,1,1.37-.4,4.09,4.09,0,0,1,.8.08,3.21,3.21,0,0,1,.72.24l-.47,1.2a3.12,3.12,0,0,0-.49-.27,1,1,0,0,0-.37-.09.48.48,0,0,0-.22.05.19.19,0,0,0-.08.15c0,.1.15.19.46.25l.17,0a1.82,1.82,0,0,1,.86.41.93.93,0,0,1,.27.7,1.33,1.33,0,0,1-.54,1.09,2.27,2.27,0,0,1-1.43.42,3.8,3.8,0,0,1-1-.11,4.32,4.32,0,0,1-.89-.32Z"/></g></g></svg>