<svg width="379" height="152" viewBox="0 0 379 152" fill="none" xmlns="http://www.w3.org/2000/svg">
<path d="M100.887 133.979C89.3884 145.485 75.4794 151.237 59.1595 151.237C42.8397 151.237 28.8689 145.485 17.2471 133.979C5.74905 122.351 0 108.371 0 92.0412V0H32.8252V92.0412C32.8252 99.3402 35.3597 105.588 40.4288 110.784C45.6215 115.856 51.8651 118.392 59.1595 118.392C66.454 118.392 72.6358 115.856 77.7049 110.784C82.8976 105.588 85.4939 99.3402 85.4939 92.0412C85.4939 84.7423 82.8976 78.5567 77.7049 73.4845C72.6358 68.2887 66.454 65.6907 59.1595 65.6907C52.7305 65.6907 47.0433 67.7938 42.0979 72V35.4433C47.6615 33.7113 53.3487 32.8454 59.1595 32.8454C75.4794 32.8454 89.3884 38.6598 100.887 50.2887C112.508 61.7938 118.319 75.7113 118.319 92.0412C118.319 108.371 112.508 122.351 100.887 133.979Z" fill="#36CC93"/>
<path d="M155.416 50.2887C167.037 38.6598 181.008 32.8454 197.328 32.8454C213.648 32.8454 227.557 38.6598 239.055 50.2887C250.677 61.7938 256.487 75.7113 256.487 92.0412V151.237H223.662V92.0412C223.662 84.7423 221.066 78.5567 215.873 73.4845C210.804 68.2887 204.622 65.6907 197.328 65.6907C190.157 65.6907 183.975 68.2887 178.783 73.4845C173.714 78.5567 171.179 84.7423 171.179 92.0412C171.179 99.3402 173.714 105.588 178.783 110.784C183.975 115.856 190.157 118.392 197.328 118.392C203.881 118.392 209.568 116.289 214.39 112.082V148.825C208.579 150.433 202.892 151.237 197.328 151.237C181.008 151.237 167.037 145.485 155.416 133.979C143.917 122.351 138.168 108.371 138.168 92.0412C138.168 75.7113 143.917 61.7938 155.416 50.2887Z" fill="#36CC93"/>
<path d="M378.406 118.206V151.237H273.254L322.028 65.6907H280.672V32.8454H378.406L329.817 118.206H378.406Z" fill="#36CC93"/>
</svg>
