<svg width="793" height="198" viewBox="0 0 793 198" fill="none" xmlns="http://www.w3.org/2000/svg">
<path d="M100.887 133.979C89.3884 145.485 75.4794 151.237 59.1595 151.237C42.8397 151.237 28.8689 145.485 17.2471 133.979C5.74905 122.351 0 108.371 0 92.0412V0H32.8252V92.0412C32.8252 99.3402 35.3597 105.588 40.4288 110.784C45.6215 115.856 51.8651 118.392 59.1595 118.392C66.454 118.392 72.6358 115.856 77.7049 110.784C82.8976 105.588 85.4939 99.3402 85.4939 92.0412C85.4939 84.7423 82.8976 78.5567 77.7049 73.4845C72.6358 68.2887 66.454 65.6907 59.1595 65.6907C52.7305 65.6907 47.0433 67.7938 42.0979 72V35.4433C47.6615 33.7113 53.3487 32.8454 59.1595 32.8454C75.4794 32.8454 89.3884 38.6598 100.887 50.2887C112.508 61.7938 118.319 75.7113 118.319 92.0412C118.319 108.371 112.508 122.351 100.887 133.979Z" fill="#36CC93"/>
<path d="M155.416 50.2887C167.037 38.6598 181.008 32.8454 197.328 32.8454C213.648 32.8454 227.557 38.6598 239.055 50.2887C250.677 61.7938 256.487 75.7113 256.487 92.0412V151.237H223.662V92.0412C223.662 84.7423 221.066 78.5567 215.873 73.4845C210.804 68.2887 204.622 65.6907 197.328 65.6907C190.157 65.6907 183.975 68.2887 178.783 73.4845C173.714 78.5567 171.179 84.7423 171.179 92.0412C171.179 99.3402 173.714 105.588 178.783 110.784C183.975 115.856 190.157 118.392 197.328 118.392C203.881 118.392 209.568 116.289 214.39 112.082V148.825C208.579 150.433 202.892 151.237 197.328 151.237C181.008 151.237 167.037 145.485 155.416 133.979C143.917 122.351 138.168 108.371 138.168 92.0412C138.168 75.7113 143.917 61.7938 155.416 50.2887Z" fill="#36CC93"/>
<path d="M378.406 118.206V151.237H273.254L322.028 65.6907H280.672V32.8454H378.406L329.817 118.206H378.406Z" fill="#36CC93"/>
<path d="M422.555 50.2887C434.176 38.6598 448.147 32.8454 464.467 32.8454C480.787 32.8454 494.696 38.6598 506.194 50.2887C517.816 61.7938 523.626 75.7113 523.626 92.0412C523.626 108.371 517.816 122.351 506.194 133.979C494.696 145.485 480.787 151.237 464.467 151.237C458.656 151.237 452.969 150.371 447.405 148.639V112.082C452.351 116.289 458.038 118.392 464.467 118.392C471.761 118.392 477.943 115.856 483.012 110.784C488.205 105.588 490.801 99.3402 490.801 92.0412C490.801 84.7423 488.205 78.5567 483.012 73.4845C477.943 68.2887 471.761 65.6907 464.467 65.6907C457.172 65.6907 450.929 68.2887 445.736 73.4845C440.667 78.5567 438.133 84.7423 438.133 92.0412V198H405.307V92.0412C405.307 75.7113 411.056 61.7938 422.555 50.2887Z" fill="#002B1A"/>
<path d="M559.464 50.2887C571.086 38.6598 585.056 32.8454 601.376 32.8454C617.696 32.8454 631.605 38.6598 643.103 50.2887C654.725 61.7938 660.536 75.7113 660.536 92.0412V151.237H627.711V92.0412C627.711 84.7423 625.114 78.5567 619.922 73.4845C614.852 68.2887 608.671 65.6907 601.376 65.6907C594.205 65.6907 588.024 68.2887 582.831 73.4845C577.762 78.5567 575.227 84.7423 575.227 92.0412C575.227 99.3402 577.762 105.588 582.831 110.784C588.024 115.856 594.205 118.392 601.376 118.392C607.929 118.392 613.616 116.289 618.438 112.082V148.825C612.627 150.433 606.94 151.237 601.376 151.237C585.056 151.237 571.086 145.485 559.464 133.979C547.966 122.351 542.217 108.371 542.217 92.0412C542.217 75.7113 547.966 61.7938 559.464 50.2887Z" fill="#002B1A"/>
<path d="M747.008 159.031C742.68 170.784 735.448 180.124 725.31 187.052C715.295 194.103 704.292 197.691 692.299 197.814V164.969C697.615 164.722 702.437 163.052 706.764 159.959C711.092 156.866 714.182 152.784 716.037 147.711L719.004 139.918L670.972 32.8454H706.95L735.139 95.567L757.949 32.8454H793L747.008 159.031Z" fill="#002B1A"/>
</svg>