<?xml version="1.0" encoding="UTF-8"?>
<svg xmlns="http://www.w3.org/2000/svg" xmlns:xlink="http://www.w3.org/1999/xlink" width="437.11pt" height="117.63pt" viewBox="0 0 437.11 117.63" version="1.1">
<defs>
<clipPath id="clip1">
  <path d="M 352 7 L 437.109375 7 L 437.109375 103 L 352 103 Z M 352 7 "/>
</clipPath>
<clipPath id="clip2">
  <path d="M 19 63 L 103 63 L 103 117.628906 L 19 117.628906 Z M 19 63 "/>
</clipPath>
</defs>
<g id="surface1">
<path style=" stroke:none;fill-rule:evenodd;fill:rgb(77.598572%,1.998901%,32.199097%);fill-opacity:1;" d="M 70.480469 18.546875 C 76.210938 14.230469 81.355469 6.640625 87.566406 1.773438 C 92.914063 4.605469 97.773438 7.925781 102.167969 11.714844 C 93.339844 21.5625 83.8125 30.378906 73.898438 40.292969 C 69.992188 44.199219 65.976563 51.972656 57.746094 49.300781 C 54.605469 48.28125 50.5 42.988281 47.804688 40.292969 C 38.378906 30.867188 28.230469 20.773438 19.847656 11.714844 C 24.140625 7.824219 29.113281 4.617188 34.445313 1.773438 C 40.617188 7.199219 45.734375 13.679688 52.152344 18.859375 C 52.71875 14.320313 51.398438 10.730469 52.152344 6.742188 C 53.902344 -2.472656 68.84375 -2.304688 70.480469 7.675781 C 71.035156 11.050781 70.09375 13.65625 70.480469 18.546875 "/>
<path style=" stroke:none;fill-rule:evenodd;fill:rgb(2.69928%,16.499329%,35.699463%);fill-opacity:1;" d="M 203.746094 21.964844 C 183.324219 20.5 174.683594 34.855469 173.925781 52.097656 C 173.1875 68.878906 180.289063 85.808594 196.914063 87.507813 C 202.839844 88.117188 207.652344 87.121094 211.824219 85.335938 C 211.222656 83.894531 209.097656 82.449219 207.164063 80.675781 C 206.160156 79.75 201.835938 76.851563 201.882813 75.703125 C 201.917969 74.929688 203.910156 73.648438 204.679688 72.910156 C 205.742188 71.886719 207.125 71.03125 207.785156 70.421875 C 208.917969 69.390625 212.132813 64.777344 213.378906 64.832031 C 213.703125 64.847656 215.03125 66.839844 215.554688 67.316406 C 218.558594 70.0625 220.554688 71.414063 223.316406 73.839844 C 232.917969 52.078125 226.703125 23.609375 203.746094 21.964844 M 239.160156 87.507813 C 242.40625 91.40625 246.613281 94.347656 250.34375 97.761719 C 246.75 101.726563 242.636719 105.167969 238.851563 108.945313 C 234.589844 105.644531 230.8125 101.867188 226.734375 98.382813 C 214.371094 106.808594 192.734375 106.183594 180.449219 101.488281 C 167.394531 96.5 158.203125 85.449219 154.355469 71.667969 C 145.082031 38.453125 162.003906 7.019531 195.359375 4.566406 C 228.023438 2.164063 248.179688 21.421875 249.722656 50.855469 C 250.492188 65.507813 246.726563 78.421875 239.160156 87.507813 "/>
<path style=" stroke:none;fill-rule:evenodd;fill:rgb(2.69928%,16.499329%,35.699463%);fill-opacity:1;" d="M 280.164063 102.039063 L 280.164063 36.253906 C 291.648438 53.988281 304.21875 75.328125 315.890625 94.34375 C 317.316406 96.664063 319.308594 100.710938 320.867188 102.039063 L 342.605469 102.039063 L 342.605469 7.363281 L 322.414063 7.363281 C 321.6875 28.386719 322.308594 50.75 322.105469 72.289063 C 308.5625 50.832031 296.007813 28.386719 282.03125 7.363281 L 260.285156 7.363281 C 259.894531 7.492188 259.648438 7.765625 259.664063 8.296875 L 259.664063 102.039063 "/>
<g clip-path="url(#clip1)" clip-rule="nonzero">
<path style=" stroke:none;fill-rule:evenodd;fill:rgb(2.69928%,16.499329%,35.699463%);fill-opacity:1;" d="M 373.359375 61.726563 L 373.359375 85.335938 C 386.089844 84.117188 406.328125 88.550781 412.5 80.675781 C 414.628906 77.957031 416.023438 71.992188 414.054688 67.316406 C 409.566406 56.671875 388.023438 62.242188 373.671875 60.792969 C 373.308594 60.847656 373.332031 61.285156 373.359375 61.726563 M 373.359375 25.382813 L 373.359375 44.640625 C 384.179688 43.132813 401.535156 47.464844 409.085938 42.464844 C 412.203125 40.398438 414.199219 35.140625 412.1875 30.351563 C 408.03125 20.433594 386.941406 25.980469 373.671875 24.449219 C 373.308594 24.5 373.332031 24.941406 373.359375 25.382813 M 352.855469 7.363281 C 381.558594 9.285156 421.695313 0.617188 431.757813 21.03125 C 437.132813 31.925781 432.757813 48.449219 421.820313 51.164063 C 427.386719 53.863281 431.9375 56.636719 434.554688 61.726563 C 438.519531 69.433594 437.457031 80.511719 434.246094 86.886719 C 423.453125 108.320313 383.121094 101.222656 352.546875 102.421875 L 352.546875 8.296875 C 352.519531 7.855469 352.496094 7.414063 352.855469 7.363281 "/>
</g>
<path style=" stroke:none;fill-rule:evenodd;fill:rgb(2.69928%,16.499329%,35.699463%);fill-opacity:1;" d="M 6.179688 83.472656 C 11.390625 77.191406 18.066406 72.371094 23.574219 66.386719 L 0.898438 66.386719 C -0.320313 60.945313 -0.171875 53.882813 0.585938 48.058594 L 23.265625 48.058594 C 18.679688 42.285156 11.539063 36.382813 6.179688 30.351563 C 8.664063 24.554688 12.214844 19.820313 16.117188 15.441406 C 24.605469 23.820313 34.832031 33.84375 44.699219 43.710938 C 49.027344 48.039063 55.449219 51.867188 53.398438 59.550781 C 52.449219 63.09375 47.566406 66.933594 44.699219 69.804688 L 21.089844 93.410156 C 20.234375 94.265625 16.714844 98.0625 16.429688 98.070313 C 15.011719 98.105469 11.789063 92.632813 10.839844 91.238281 C 8.898438 88.394531 7.445313 85.894531 6.179688 83.472656 "/>
<path style=" stroke:none;fill-rule:evenodd;fill:rgb(2.69928%,16.499329%,35.699463%);fill-opacity:1;" d="M 115.835938 30.039063 C 110.527344 36.539063 104.007813 41.820313 98.441406 48.058594 L 121.117188 48.058594 C 122.386719 53.722656 122.019531 60.597656 121.117188 66.386719 L 98.75 66.386719 C 102.976563 71.996094 111.449219 77.710938 115.523438 83.472656 C 113.183594 89.207031 109.460938 93.558594 105.894531 98.070313 C 97.039063 89.667969 87.363281 79.539063 77.9375 70.113281 C 73.910156 66.085938 65.582031 61.304688 68.617188 53.339844 C 69.722656 50.441406 74.445313 46.578125 77.316406 43.707031 C 86.6875 34.339844 97.101563 24.375 105.585938 15.441406 C 109.921875 19.386719 112.859375 24.730469 115.835938 30.039063 "/>
<g clip-path="url(#clip2)" clip-rule="nonzero">
<path style=" stroke:none;fill-rule:evenodd;fill:rgb(2.69928%,16.499329%,35.699463%);fill-opacity:1;" d="M 102.167969 101.800781 C 97.585938 105.292969 93.183594 108.96875 87.566406 111.429688 C 81.148438 106.457031 76.597656 99.621094 70.480469 94.34375 L 70.480469 117.019531 C 64.730469 117.71875 57.847656 117.941406 52.152344 117.019531 L 52.152344 94.652344 C 46.433594 98.976563 40.167969 107.105469 34.449219 111.429688 C 28.742188 109.054688 24.339844 105.382813 19.847656 101.800781 C 27.90625 92.722656 37.957031 83.378906 47.183594 74.152344 C 51.148438 70.1875 56.457031 61.097656 64.578125 64.523438 C 67.703125 65.839844 71.640625 70.652344 74.519531 73.53125 C 83.980469 82.988281 93.289063 92.234375 102.167969 101.800781 "/>
</g>
</g>
</svg>
