<?xml version="1.0" encoding="UTF-8" standalone="no"?>
<!-- Created with Inkscape (http://www.inkscape.org/) -->

<svg
   xmlns:dc="http://purl.org/dc/elements/1.1/"
   xmlns:cc="http://creativecommons.org/ns#"
   xmlns:rdf="http://www.w3.org/1999/02/22-rdf-syntax-ns#"
   xmlns:svg="http://www.w3.org/2000/svg"
   xmlns="http://www.w3.org/2000/svg"
   xmlns:sodipodi="http://sodipodi.sourceforge.net/DTD/sodipodi-0.dtd"
   xmlns:inkscape="http://www.inkscape.org/namespaces/inkscape"
   width="112.62205mm"
   height="33.845406mm"
   viewBox="0 0 112.62205 33.845406"
   version="1.1"
   id="svg8"
   sodipodi:docname="qnb-finansbank.svg"
   inkscape:version="0.92.3 (2405546, 2018-03-11)">
  <defs
     id="defs2">
    <clipPath
       id="clipPath2271"
       clipPathUnits="userSpaceOnUse">
      <path
         style="clip-rule:evenodd"
         inkscape:connector-curvature="0"
         id="path2269"
         d="m 6.8111,179.4713 c -0.0097,5.6554 0.4453,11.4452 1.4587,17.3971 h 81.5017 l -62.6289,62.6292 c 5.053,10.4057 12.1878,20.8117 20.7652,31.2171 l 95.1213,-95.1213 c 4.4337,-4.4334 6.6504,-10.2779 6.6504,-16.1221 0,-5.8442 -2.2167,-11.6883 -6.6504,-16.122 L 47.9078,68.2279 C 39.3304,78.6336 32.1956,89.0396 27.1426,99.4453 l 62.6289,62.6293 H 8.2698 c -1.0134,5.9519 -1.4684,11.7416 -1.4587,17.3967" />
    </clipPath>
    <linearGradient
       id="linearGradient2281"
       spreadMethod="pad"
       gradientUnits="userSpaceOnUse"
       y2="179.47"
       x2="149.67999"
       y1="179.47"
       x1="6.8099999">
      <stop
         id="stop2273"
         offset="0"
         style="stop-opacity:1;stop-color:#003a73" />
      <stop
         id="stop2275"
         offset="0.35"
         style="stop-opacity:1;stop-color:#003a73" />
      <stop
         id="stop2277"
         offset="0.73"
         style="stop-opacity:1;stop-color:#0062af" />
      <stop
         id="stop2279"
         offset="1"
         style="stop-opacity:1;stop-color:#0062af" />
    </linearGradient>
    <clipPath
       id="clipPath2291"
       clipPathUnits="userSpaceOnUse">
      <path
         style="clip-rule:evenodd"
         inkscape:connector-curvature="0"
         id="path2289"
         d="m 178.4511,351.1114 c 5.6555,0.01 11.4452,-0.445 17.3971,-1.4584 v -81.502 l 62.6292,62.6292 c 10.4057,-5.0531 20.8117,-12.1881 31.2174,-20.7652 l -95.1216,-95.1214 c -4.4334,-4.4336 -10.2779,-6.6503 -16.1221,-6.6503 -5.8439,0 -11.6883,2.2167 -16.122,6.6503 L 67.2077,310.015 c 10.4057,8.5771 20.8117,15.7121 31.2174,20.7652 l 62.6293,-62.6292 v 81.502 c 5.9519,1.0134 11.7416,1.4683 17.3967,1.4584" />
    </clipPath>
    <linearGradient
       id="linearGradient2301"
       spreadMethod="pad"
       gradientUnits="userSpaceOnUse"
       y2="279.67999"
       x2="289.69"
       y1="279.67999"
       x1="67.209999">
      <stop
         id="stop2293"
         offset="0"
         style="stop-opacity:1;stop-color:#ab004c" />
      <stop
         id="stop2295"
         offset="0.35"
         style="stop-opacity:1;stop-color:#ab004c" />
      <stop
         id="stop2297"
         offset="0.61"
         style="stop-opacity:1;stop-color:#760030" />
      <stop
         id="stop2299"
         offset="1"
         style="stop-opacity:1;stop-color:#1a1a18" />
    </linearGradient>
    <clipPath
       id="clipPath2311"
       clipPathUnits="userSpaceOnUse">
      <path
         style="clip-rule:evenodd"
         inkscape:connector-curvature="0"
         id="path2309"
         d="m 350.0915,179.4713 c 0.01,-5.6551 -0.4453,-11.4448 -1.4587,-17.3967 h -81.502 L 329.76,99.4453 C 324.707,89.0396 317.5719,78.6336 308.9948,68.2279 l -95.1214,95.1214 c -4.4336,4.4337 -6.6503,10.2778 -6.6503,16.122 0,5.8442 2.2167,11.6887 6.6503,16.1221 l 95.1214,95.1213 c 8.5771,-10.4054 15.7122,-20.8114 20.7652,-31.2171 l -62.6292,-62.6292 h 81.502 c 1.0134,-5.9519 1.4683,-11.7417 1.4587,-17.3971" />
    </clipPath>
    <linearGradient
       id="linearGradient2321"
       spreadMethod="pad"
       gradientUnits="userSpaceOnUse"
       y2="179.47"
       x2="350.09"
       y1="179.47"
       x1="207.22">
      <stop
         id="stop2313"
         offset="0"
         style="stop-opacity:1;stop-color:#0062af" />
      <stop
         id="stop2315"
         offset="0.27"
         style="stop-opacity:1;stop-color:#0062af" />
      <stop
         id="stop2317"
         offset="0.65"
         style="stop-opacity:1;stop-color:#003a73" />
      <stop
         id="stop2319"
         offset="1"
         style="stop-opacity:1;stop-color:#003a73" />
    </linearGradient>
    <clipPath
       id="clipPath2331"
       clipPathUnits="userSpaceOnUse">
      <path
         style="clip-rule:evenodd"
         inkscape:connector-curvature="0"
         id="path2329"
         d="M 178.4511,7.8313 C 172.796,7.8216 167.0063,8.2766 161.0544,9.2897 v 81.502 L 98.4251,28.1628 C 88.0194,33.2158 77.6134,40.3506 67.2077,48.9277 l 95.1214,95.1216 c 4.4337,4.4337 10.2781,6.6504 16.122,6.6504 5.8442,0 11.6887,-2.2167 16.1221,-6.6504 L 289.6948,48.9277 C 279.2891,40.3506 268.8831,33.2158 258.4774,28.1628 L 195.8482,90.7917 V 9.2897 C 189.8963,8.2766 184.1066,7.8216 178.4511,7.8313" />
    </clipPath>
    <linearGradient
       id="linearGradient2341"
       spreadMethod="pad"
       gradientUnits="userSpaceOnUse"
       y2="150.7"
       x2="178.45"
       y1="7.8299999"
       x1="178.45">
      <stop
         id="stop2333"
         offset="0"
         style="stop-opacity:1;stop-color:#003a73" />
      <stop
         id="stop2335"
         offset="0.35"
         style="stop-opacity:1;stop-color:#003a73" />
      <stop
         id="stop2337"
         offset="0.73"
         style="stop-opacity:1;stop-color:#0062af" />
      <stop
         id="stop2339"
         offset="1"
         style="stop-opacity:1;stop-color:#0062af" />
    </linearGradient>
  </defs>
  <sodipodi:namedview
     id="base"
     pagecolor="#00ffff"
     bordercolor="#666666"
     borderopacity="1.0"
     inkscape:pageopacity="0"
     inkscape:pageshadow="2"
     inkscape:zoom="0.70710678"
     inkscape:cx="194.11791"
     inkscape:cy="-147.82887"
     inkscape:document-units="mm"
     inkscape:current-layer="layer1"
     showgrid="false"
     inkscape:window-width="1920"
     inkscape:window-height="1001"
     inkscape:window-x="-9"
     inkscape:window-y="-9"
     inkscape:window-maximized="1"
     fit-margin-top="0"
     fit-margin-left="0"
     fit-margin-right="0"
     fit-margin-bottom="0" />
  <metadata
     id="metadata5">
    <rdf:RDF>
      <cc:Work
         rdf:about="">
        <dc:format>image/svg+xml</dc:format>
        <dc:type
           rdf:resource="http://purl.org/dc/dcmitype/StillImage" />
        <dc:title></dc:title>
      </cc:Work>
    </rdf:RDF>
  </metadata>
  <g
     inkscape:label="Layer 1"
     inkscape:groupmode="layer"
     id="layer1"
     transform="translate(-53.049504,-77.460265)">
    <g
       transform="matrix(0.09456063,0,0,-0.09456063,53.049504,111.30567)"
       inkscape:label="qnb-finansbank-seeklogo.com"
       id="g2257">
      <g
         id="g2259">
        <g
           id="g2261">
          <path
             inkscape:connector-curvature="0"
             id="path2263"
             style="fill:#878786;fill-opacity:1;fill-rule:evenodd;stroke:none"
             d="m 73.3277,203.6795 -54.4305,54.4309 2.1183,4.3625 c 5.6784,11.6929 13.3863,22.5655 21.6363,32.5743 l 4.7696,5.7864 100.4238,-100.4239 c 5.5644,-5.5644 8.6457,-13.0753 8.6457,-20.9384 0,-7.863 -3.0813,-15.3739 -8.6457,-20.9381 L 47.4214,58.1091 42.6518,63.8957 c -8.25,10.0086 -15.9579,20.8812 -21.6363,32.5744 l -2.1183,4.3622 54.4305,54.4309 H 2.52 l -0.9649,5.6681 C 0.5117,167.0601 0,173.255 0,179.4713 c 0,6.2167 0.5117,12.4115 1.5551,18.5403 l 0.9649,5.6679 z m 129.3319,80.9152 54.4309,54.4309 4.3622,-2.1186 c 11.6932,-5.6781 22.5655,-13.3861 32.5743,-21.636 l 5.7864,-4.7699 -100.4239,-100.4238 c -5.5641,-5.5641 -13.0753,-8.6454 -20.9384,-8.6454 -7.863,0 -15.3739,3.0813 -20.9381,8.6454 l -100.4238,100.4238 5.7864,4.7699 c 10.0088,8.2499 20.8811,15.9579 32.5743,21.636 l 4.3622,2.1186 54.4309,-54.4309 v 70.8078 l 5.6681,0.9652 c 6.1288,1.0434 12.3237,1.5551 18.54,1.5551 6.2167,0 12.4115,-0.5117 18.5403,-1.5551 l 5.6682,-0.9652 z m 80.9152,-129.3315 54.4306,-54.4309 -2.1183,-4.3622 C 330.2087,84.7769 322.5008,73.9043 314.2508,63.8957 l -4.7696,-5.7866 -100.4238,100.4241 c -5.5644,5.5642 -8.6457,13.0754 -8.6457,20.9381 0,7.8631 3.0813,15.374 8.6457,20.9384 l 100.4238,100.4239 4.7696,-5.7864 c 8.25,-10.0088 15.9579,-20.8814 21.6363,-32.5743 l 2.1183,-4.3625 -54.4306,-54.4309 h 70.8078 l 0.9649,-5.6679 c 1.0434,-6.1288 1.5551,-12.3236 1.5551,-18.5403 0,-6.2163 -0.5117,-12.4112 -1.5551,-18.54 l -0.9649,-5.6681 z M 154.243,74.3479 99.8121,19.9174 95.4499,22.0357 C 83.7567,27.714 72.8844,35.422 62.8756,43.672 l -5.7864,4.7695 100.4238,100.4239 c 5.5642,5.5641 13.0751,8.6457 20.9381,8.6457 7.8631,0 15.3743,-3.0816 20.9384,-8.6457 L 299.8134,48.4415 294.027,43.672 C 284.0182,35.422 273.1459,27.714 261.4527,22.0357 l -4.3622,-2.1183 -54.4309,54.4305 V 3.5402 l -5.6682,-0.9649 c -6.1288,-1.0435 -12.3236,-1.5551 -18.5403,-1.5551 -6.2163,0 -12.4112,0.5116 -18.54,1.5551 l -5.6681,0.9649 z" />
          <g
             id="g2265">
            <g
               clip-path="url(#clipPath2271)"
               id="g2267">
              <path
                 inkscape:connector-curvature="0"
                 id="path2283"
                 style="fill:url(#linearGradient2281);fill-rule:evenodd;stroke:none"
                 d="m 6.8111,179.4713 c -0.0097,5.6554 0.4453,11.4452 1.4587,17.3971 h 81.5017 l -62.6289,62.6292 c 5.053,10.4057 12.1878,20.8117 20.7652,31.2171 l 95.1213,-95.1213 c 4.4337,-4.4334 6.6504,-10.2779 6.6504,-16.1221 0,-5.8442 -2.2167,-11.6883 -6.6504,-16.122 L 47.9078,68.2279 C 39.3304,78.6336 32.1956,89.0396 27.1426,99.4453 l 62.6289,62.6293 H 8.2698 c -1.0134,5.9519 -1.4684,11.7416 -1.4587,17.3967" />
            </g>
          </g>
          <g
             id="g2285">
            <g
               clip-path="url(#clipPath2291)"
               id="g2287">
              <path
                 inkscape:connector-curvature="0"
                 id="path2303"
                 style="fill:url(#linearGradient2301);fill-rule:evenodd;stroke:none"
                 d="m 178.4511,351.1114 c 5.6555,0.01 11.4452,-0.445 17.3971,-1.4584 v -81.502 l 62.6292,62.6292 c 10.4057,-5.0531 20.8117,-12.1881 31.2174,-20.7652 l -95.1216,-95.1214 c -4.4334,-4.4336 -10.2779,-6.6503 -16.1221,-6.6503 -5.8439,0 -11.6883,2.2167 -16.122,6.6503 L 67.2077,310.015 c 10.4057,8.5771 20.8117,15.7121 31.2174,20.7652 l 62.6293,-62.6292 v 81.502 c 5.9519,1.0134 11.7416,1.4683 17.3967,1.4584" />
            </g>
          </g>
          <g
             id="g2305">
            <g
               clip-path="url(#clipPath2311)"
               id="g2307">
              <path
                 inkscape:connector-curvature="0"
                 id="path2323"
                 style="fill:url(#linearGradient2321);fill-rule:evenodd;stroke:none"
                 d="m 350.0915,179.4713 c 0.01,-5.6551 -0.4453,-11.4448 -1.4587,-17.3967 h -81.502 L 329.76,99.4453 C 324.707,89.0396 317.5719,78.6336 308.9948,68.2279 l -95.1214,95.1214 c -4.4336,4.4337 -6.6503,10.2778 -6.6503,16.122 0,5.8442 2.2167,11.6887 6.6503,16.1221 l 95.1214,95.1213 c 8.5771,-10.4054 15.7122,-20.8114 20.7652,-31.2171 l -62.6292,-62.6292 h 81.502 c 1.0134,-5.9519 1.4683,-11.7417 1.4587,-17.3971" />
            </g>
          </g>
          <g
             id="g2325">
            <g
               clip-path="url(#clipPath2331)"
               id="g2327">
              <path
                 inkscape:connector-curvature="0"
                 id="path2343"
                 style="fill:url(#linearGradient2341);fill-rule:evenodd;stroke:none"
                 d="M 178.4511,7.8313 C 172.796,7.8216 167.0063,8.2766 161.0544,9.2897 v 81.502 L 98.4251,28.1628 C 88.0194,33.2158 77.6134,40.3506 67.2077,48.9277 l 95.1214,95.1216 c 4.4337,4.4337 10.2781,6.6504 16.122,6.6504 5.8442,0 11.6887,-2.2167 16.1221,-6.6504 L 289.6948,48.9277 C 279.2891,40.3506 268.8831,33.2158 258.4774,28.1628 L 195.8482,90.7917 V 9.2897 C 189.8963,8.2766 184.1066,7.8216 178.4511,7.8313" />
            </g>
          </g>
        </g>
        <path
           inkscape:connector-curvature="0"
           id="path2345"
           style="fill:#00193e;fill-opacity:1;fill-rule:evenodd;stroke:none"
           d="M 928.2526,342.6316 H 827.0929 v -89.6834 -94.1349 h 106.956 c 61.9297,0 79.2043,75.8324 29.4449,92.0871 -4,1.3065 -8.9161,1.3919 -2.605,3.9895 4.8957,2.0152 8.5422,5.5134 12.4015,10.0863 26.8441,31.8078 -0.8297,77.6554 -45.0377,77.6554 z M 875.6821,78.3771 h 30.0853 c 6.148,0 11.1781,-5.0686 11.1781,-11.2637 v -1.0358 c 0,-6.7646 -5.4927,-12.2996 -12.206,-12.2996 h -23.8958 c 0,-7.8919 3.7951,-13.1042 9.8108,-13.1042 h 15.3124 c 6.5475,0 15.1708,-4.7243 15.1708,-11.2638 v -1.036 c 0,-6.7644 -5.4927,-12.2996 -12.2057,-12.2996 h -33.2499 v 19.5704 5.029 13.1042 z m 237.7735,12.5558 h 16.5756 V 50.5162 l 37.008,40.4167 h 20.4202 l -30.0282,-32.794 33.5724,-55.1418 c -5.6855,-3.6842 -18.2183,-1.4811 -19.9398,1.3816 l -25.1416,41.1911 -15.891,-17.3549 V 2.9971 h -16.5756 z M 795.0453,24.5089 785.2535,12.9152 c 0,0 11.293,-12.9152 33.6396,-12.9152 22.3467,0 35.1284,13.0955 35.0819,27.3923 -0.1074,33.0205 -47.554,21.5575 -47.3363,40.9689 0.1346,12.0132 16.039,11.173 16.039,11.173 0,0 11.834,1.6821 24.5086,-9.6111 13.0856,18.7058 -17.1933,23.9082 -25.2896,23.4277 -22.3466,0 -33.0395,-10.6925 -33.0395,-24.9896 0,-14.2971 7.8744,-21.9053 28.3539,-27.3926 0,0 19.2228,-3.1238 19.2228,-15.1379 0,-12.0144 -17.661,-11.4137 -17.661,-11.4137 0,0 -11.0531,-1.2013 -23.7276,10.0919 z m 183.0585,46.063 -11.5925,-29.9665 h 22.7236 z m 9.0927,20.361 12.735,-32.1554 21.2774,-56.1067 H 1009.98 c -4.0283,0 -7.5903,3.3973 -8.2395,5.2764 L 994.6287,26.699 H 978.654 961.2377 L 952.1249,2.6708 h -16.0257 l 21.2774,56.1067 12.735,32.1554 z M 655.4191,70.5719 643.8266,40.6054 h 22.7236 z m 9.0927,20.361 12.7349,-32.1554 21.2775,-56.1067 h -11.2289 c -4.0283,0 -7.5904,3.3973 -8.2395,5.2764 L 671.944,26.699 H 655.9693 638.553 L 629.4402,2.6708 h -16.0257 l 21.2774,56.1067 12.7349,32.1554 z M 519.6696,90.9414 V 2.9971 h -2.5021 c -7.4616,0 -13.3571,6.4743 -13.3571,10.7594 v 65.8917 11.2932 z m -96.5948,26.6445 h 96.5946 v -4.5655 c 0,-6.9284 -4.3654,-12.4951 -13.216,-12.4951 H 443.0183 V 68.8218 h 47.5163 V 51.7612 H 443.0183 V 2.9971 h -19.9435 z m 603.8768,-26.653 h 8.6434 c 4.2772,0 11.7434,-1.0576 14.9003,-5.4482 l 36.2886,-56.1192 v 61.5674 h 15.0069 V 2.9971 h -9.368 c -4.2772,0 -6.2461,2.3074 -8.081,4.2355 l -41.1905,61.1705 V 2.9971 h -16.1997 z m -323.4237,0 h 8.6434 c 4.2772,0 11.7433,-1.0576 14.9003,-5.4482 l 36.2886,-56.1192 v 61.5674 h 15.0069 V 2.9971 h -9.3683 c -4.2769,0 -6.2458,2.3074 -8.081,4.2355 L 719.7276,68.4031 V 2.9971 h -16.1997 z m -171.5638,0 h 8.6436 c 4.2772,0 11.7434,-1.0576 14.9001,-5.4482 l 36.2888,-56.1192 v 61.5674 h 15.0069 V 2.9971 h -9.3682 c -4.2769,0 -6.2459,2.3074 -8.081,4.2355 L 548.1638,68.4031 V 2.9971 h -16.1997 z m 374.0306,0 H 860.853 V 48.0294 2.9965 h 47.8933 c 29.4009,0 37.6016,36.2769 13.9788,44.0532 -1.8987,0.6251 -4.2327,0.6659 -1.2365,1.9086 2.3241,0.9638 4.0552,2.6374 5.8873,4.8251 12.7443,15.2164 -0.394,37.1495 -21.3812,37.1495 z M 510.9403,347.074 c 57.5975,0 95.1529,-43.3006 95.1529,-96.715 0,-26.1079 -9.1483,-49.797 -25.1408,-67.1964 l 24.1744,-24.4633 c 0,0 -8.8905,-8.1694 -20.4244,-8.1694 -11.5336,0 -19.1027,7.8092 -19.1027,7.8092 l -7.0382,7.1759 c -13.6159,-7.5651 -29.6932,-11.8707 -47.6212,-11.8707 -56.8766,0 -95.1531,43.3006 -95.1531,96.7147 0,53.4144 37.5554,96.715 95.1531,96.715 z m -6.7328,-126.1409 34.2873,-34.9585 c -8.1128,-4.1576 -17.3894,-6.4477 -27.5545,-6.4477 -36.9779,0 -62.2343,30.244 -62.2343,70.8321 0,40.9411 24.9137,70.8324 62.2343,70.8324 37.3207,0 62.2341,-29.8913 62.2341,-70.8324 0,-17.7945 -4.8546,-33.6013 -13.4237,-45.7412 l -14.9355,15.1137 c 0,0 -17.3007,18.8626 -40.6077,1.2016 z m 127.4749,121.6985 h 18.9825 c 9.3928,0 17.7207,-5.7246 21.7508,-9.7549 L 766.3791,210.3542 V 342.6316 H 796.038 V 158.8133 h -18.6055 c -9.3929,0 -12.2545,4.8237 -16.2845,8.8537 l -99.43,127.8689 V 158.8133 H 631.6824 Z M 858.329,316.3859 h 69.4454 c 12.9498,0 23.5452,-10.5954 23.5452,-23.5452 v -2.1654 c 0,-14.1406 -11.5699,-25.7105 -25.7106,-25.7105 h -56.4074 c 0,-16.4968 7.994,-27.3926 20.6645,-27.3926 h 38.3287 c 13.7908,0 31.955,-9.8745 31.955,-23.5451 v -2.1654 c 0,-14.1406 -11.5696,-25.7105 -25.7103,-25.7105 H 858.329 v 40.909 10.512 27.3926 z" />
      </g>
    </g>
  </g>
</svg>
