<svg width="501" height="156" viewBox="0 0 501 156" fill="none" xmlns="http://www.w3.org/2000/svg">
<path d="M259.937 71.3302C259.937 79.0729 257.405 85.813 252.342 91.5504L258.451 97.9005L251.764 104L245.407 97.3992C240.508 100.24 235.362 101.66 229.969 101.66C221.713 101.66 214.64 98.7361 208.751 92.8873C202.917 86.9828 200 79.7971 200 71.3302C200 62.8634 202.917 55.7056 208.751 49.8568C214.585 43.9523 221.658 41 229.969 41C238.279 41 245.352 43.9523 251.186 49.8568C257.02 55.7056 259.937 62.8634 259.937 71.3302ZM229.969 92.3024C232.941 92.3024 235.83 91.6618 238.637 90.3806L228.07 79.435L234.757 73.3355L245.82 84.7825C248.902 80.8833 250.443 76.3992 250.443 71.3302C250.443 65.37 248.462 60.3846 244.499 56.374C240.536 52.3634 235.693 50.3581 229.969 50.3581C224.245 50.3581 219.401 52.3634 215.438 56.374C211.476 60.3846 209.494 65.37 209.494 71.3302C209.494 77.2905 211.476 82.2759 215.438 86.2865C219.401 90.2971 224.245 92.3024 229.969 92.3024Z" fill="black"/>
<path d="M317.297 92.8873C311.518 98.7361 304.445 101.66 296.079 101.66C287.714 101.66 280.614 98.7361 274.779 92.8873C269 86.9828 266.111 79.7971 266.111 71.3302C266.111 62.8634 269 55.7056 274.779 49.8568C280.614 43.9523 287.714 41 296.079 41C304.445 41 311.518 43.9523 317.297 49.8568C323.131 55.7056 326.048 62.8634 326.048 71.3302C326.048 79.7971 323.131 86.9828 317.297 92.8873ZM281.467 86.37C285.485 90.3249 290.355 92.3024 296.079 92.3024C301.859 92.3024 306.702 90.3249 310.61 86.37C314.572 82.3594 316.554 77.3462 316.554 71.3302C316.554 65.3143 314.572 60.3289 310.61 56.374C306.702 52.3634 301.859 50.3581 296.079 50.3581C290.3 50.3581 285.429 52.3634 281.467 56.374C277.559 60.3289 275.605 65.3143 275.605 71.3302C275.605 77.2905 277.559 82.3037 281.467 86.37Z" fill="black"/>
<path d="M351.767 101.66C346.208 101.66 341.475 100.407 337.567 97.9005C333.715 95.3382 331.018 91.8011 329.477 87.2891L337.65 82.443C339.962 89.0159 344.75 92.3024 352.015 92.3024C355.538 92.3024 358.207 91.6061 360.023 90.2135C361.839 88.821 362.748 86.9549 362.748 84.6154C362.748 82.2759 361.784 80.4655 359.858 79.1844C357.932 77.9032 354.519 76.5106 349.621 75.0066C344.612 73.5027 340.567 71.7202 337.485 69.6592C333.742 66.9854 331.871 63.0584 331.871 57.878C331.871 52.6976 333.687 48.6034 337.32 45.5955C340.897 42.5318 345.273 41 350.446 41C355.015 41 359.032 42.1419 362.5 44.4257C366.022 46.6538 368.719 49.8011 370.591 53.8674L362.582 58.5464C360.161 53.0875 356.115 50.3581 350.446 50.3581C347.695 50.3581 345.493 51.0265 343.842 52.3634C342.191 53.6446 341.365 55.3992 341.365 57.6273C341.365 59.7997 342.191 61.5265 343.842 62.8077C345.493 64.0332 348.548 65.3422 353.006 66.7348C355.758 67.6817 357.354 68.2387 357.794 68.4058C358.51 68.6287 359.941 69.1857 362.087 70.0769C363.848 70.8011 365.252 71.5809 366.298 72.4164C370.591 75.8143 372.572 79.8249 372.242 84.4483C372.242 89.7401 370.343 93.9456 366.545 97.065C362.858 100.129 357.932 101.66 351.767 101.66Z" fill="black"/>
<path d="M373.785 42.0862H415.889V51.2772H399.625V100.574H390.131V51.2772H373.785V42.0862Z" fill="black"/>
<path d="M422.91 100.574V42.0862H432.404V100.574H422.91Z" fill="black"/>
<path d="M501 71.3302C501 79.0729 498.468 85.813 493.405 91.5504L499.514 97.9005L492.827 104L486.47 97.3992C481.571 100.24 476.425 101.66 471.031 101.66C462.776 101.66 455.703 98.7361 449.814 92.8873C443.98 86.9828 441.063 79.7971 441.063 71.3302C441.063 62.8634 443.98 55.7056 449.814 49.8568C455.648 43.9523 462.721 41 471.031 41C479.342 41 486.415 43.9523 492.249 49.8568C498.083 55.7056 501 62.8634 501 71.3302ZM471.031 92.3024C474.004 92.3024 476.893 91.6618 479.7 90.3806L469.133 79.435L475.82 73.3355L486.883 84.7825C489.965 80.8833 491.506 76.3992 491.506 71.3302C491.506 65.37 489.524 60.3846 485.562 56.374C481.599 52.3634 476.755 50.3581 471.031 50.3581C465.307 50.3581 460.464 52.3634 456.501 56.374C452.538 60.3846 450.557 65.37 450.557 71.3302C450.557 77.2905 452.538 82.2759 456.501 86.2865C460.464 90.2971 465.307 92.3024 471.031 92.3024Z" fill="black"/>
<path d="M156 144.529C156 150.864 150.864 156 144.529 156C138.194 156 133.059 150.864 133.059 144.529C133.059 138.194 138.194 133.059 144.529 133.059C150.864 133.059 156 138.194 156 144.529Z" fill="black"/>
<path d="M104.444 79.1916H147.971C147.367 87.1237 145.558 95.0558 142.542 102.385C138.823 111.422 133.294 119.555 126.459 126.483C119.523 133.411 111.38 138.833 102.333 142.548C93.2861 146.263 83.6359 148.171 73.8852 148.171V104.695C77.9061 104.695 81.927 103.892 85.6464 102.385C89.3657 100.779 92.7835 98.57 95.6987 95.6583C98.5133 92.8469 100.825 89.4331 102.333 85.6176C103.238 83.5091 103.841 81.3001 104.243 79.0912H104.545L104.444 79.1916Z" fill="black"/>
<path d="M43.6503 68.8794C44.0508 66.6769 44.6515 64.4743 45.5525 62.3719C47.0542 58.6676 49.3569 55.2637 52.1601 52.3604C55.0635 49.5571 58.3673 47.2545 62.1717 45.7528C65.9761 44.251 69.8806 43.4501 73.8852 43.4501V0C64.174 0 54.5629 1.90219 45.5525 5.60646C36.5421 9.31073 28.4328 14.8171 21.5248 21.6249C14.6169 28.5329 9.21062 36.6422 5.50635 45.6526C2.40277 53.1613 0.500577 60.9703 0 68.8794H43.6503Z" fill="black"/>
<path d="M73.8852 148.171C54.2625 148.171 35.4409 140.362 21.5248 126.446L52.1601 95.8104C57.9668 101.617 65.7758 104.821 73.8852 104.821L73.8852 148.171Z" fill="black"/>
<path d="M73.8852 0C93.5078 0 112.329 7.809 126.246 21.725L95.6102 52.3604C89.8035 46.5537 81.9945 43.35 73.8852 43.35L73.8852 0Z" fill="black"/>
<path d="M43.6503 79.2914C44.0508 81.4939 44.6515 83.6964 45.5525 85.7989C47.0543 89.5032 49.3569 92.9071 52.1601 95.8104L21.5248 126.446C14.6169 119.538 9.21062 111.428 5.50635 102.418C2.40278 95.0095 0.600699 87.2005 0.100122 79.2914H43.7504H43.6503Z" fill="black"/>
<path d="M147.77 68.8794C147.17 60.9702 145.368 53.0611 142.364 45.7527C138.66 36.7423 133.154 28.633 126.346 21.725L95.7104 52.3603C98.5136 55.2637 100.816 58.5675 102.318 62.3719C103.219 64.4743 103.82 66.6768 104.22 68.8794H147.87H147.77Z" fill="black"/>
<path d="M87.9013 74.0854C87.9013 81.7943 81.5941 88.1016 73.8852 88.1016C66.1763 88.1016 59.869 81.7943 59.869 74.0854C59.869 66.3765 66.1763 60.0693 73.8852 60.0693C81.5941 60.0693 87.9013 66.3765 87.9013 74.0854Z" fill="black"/>
<path d="M104.52 79.2914C104.12 81.594 103.519 83.7966 102.618 85.9991C101.117 89.8035 98.8139 93.2074 95.9106 96.1108L126.346 126.546C133.254 119.638 138.66 111.529 142.364 102.518C145.368 95.1096 147.27 87.3006 147.77 79.3915H104.42L104.52 79.2914Z" fill="black"/>
<path d="M0 68.8794C0.600693 60.9703 2.40277 53.0611 5.40623 45.7527C9.1105 36.7423 14.6169 28.633 21.4247 21.725L51.8598 52.1601C48.9564 55.0634 46.6538 58.4674 45.1521 62.2718C44.251 64.4743 43.6503 66.6768 43.2499 68.9795H0V68.8794Z" fill="black"/>
</svg>
