<?xml version="1.0" encoding="UTF-8"?>
<svg width="1e3" height="1000.1" version="1.1" viewBox="0 0 999.99999 1000.126" xml:space="preserve" xmlns="http://www.w3.org/2000/svg" xmlns:cc="http://creativecommons.org/ns#" xmlns:dc="http://purl.org/dc/elements/1.1/" xmlns:rdf="http://www.w3.org/1999/02/22-rdf-syntax-ns#"><metadata><rdf:RDF><cc:Work rdf:about=""><dc:format>image/svg+xml</dc:format><dc:type rdf:resource="http://purl.org/dc/dcmitype/StillImage"/><dc:title/></cc:Work></rdf:RDF></metadata><path d="m470.21 759.13c0-39.861 0.43279-146.41-0.54977-159.53 0.85657-158.54-114.42-270.38-187.24-261.66-50.392 4.3731-92.625 24.921-115.3 84.032-21.017 55.089-2.2271 128.36 67.649 145.56 74.718 18.466 118.35 33.829 149.92 55.504 38.689 26.535 70.273 77.234 71.112 136.16" fill="#0060af"/><path d="m500.04 1000.1c-131.75 0-267.14-32.449-402.36-96.628l-3.318-1.6316-1.5869-3.3811c-60.68-128.09-92.769-268.18-92.769-405.25 0-136.86 30.773-270.96 91.498-398.87l1.668-3.3992 3.3811-1.6951c125.08-59.255 259.64-89.271 400.06-89.271 130.81 0 270.51 33.414 403.93 96.799l3.4262 1.5238 1.5778 3.4622c61.843 130.45 94.455 270.51 94.455 405.3 0 134.27-31.314 268.49-93.229 398.85l-1.6319 3.4264-3.4442 1.5873c-123.17 58.308-262.08 89.171-401.66 89.171m-389.85-114.19c131.36 61.789 262.37 92.995 389.85 92.995 135.17 0 269.61-29.547 389.27-85.556 59.445-126.33 89.577-256.34 89.577-386.29 0-130.47-31.449-266.18-90.939-392.79-129.48-60.869-264.71-93.148-391.34-93.148-135.95 0-266.25 28.834-387.56 85.718-58.227 123.98-87.864 253.9-87.864 386.37 0 132.72 30.8 268.49 89 392.7" fill="#0060af"/><path d="m438.99 759.19c0.24349-51.095-28.275-96.276-65.549-120.56-33.063-21.459-77.45-35.561-149.06-53.719-22.135-5.662-45.289-18.24-52.457-34.271-18.961 19.105-22.406 62.059-19.07 87.161 3.8771 29.051 37.824 76.927 88.937 78.803 31.214 1.2529 70.679-6.7178 89.604-10.738 32.648-7.0512 84.303 13.398 92.525 53.259" fill="#0060af"/><path d="m496.61 90.839c-86.665 0-161.53 57.154-161.26 156.05 0.27061 83.167 67.154 127.69 91.02 159.49 36.065 47.921 55.586 104.64 57.614 191.43 1.5778 69.074 1.4967 137.28 1.8483 161.46h19.133c-0.33338-25.291-1.1992-97.701-0.20775-163.59 1.2983-86.818 21.522-141.38 57.605-189.3 24.074-31.801 90.903-76.323 91.047-159.49 0.32457-98.9-74.493-156.05-161.09-156.05" fill="#0060af"/><path d="m518.61 759.13c0-39.861-0.45104-146.41 0.51394-159.53-0.84751-158.54 114.35-270.38 187.24-261.66 50.392 4.3731 92.58 24.921 115.32 84.032 20.999 55.089 2.1008 128.36-67.695 145.56-74.754 18.466-118.33 33.829-149.99 55.504-38.644 26.535-68.019 77.234-68.921 136.16" fill="#0060af"/><path d="m549.82 759.19c-0.27061-51.095 28.239-96.276 65.404-120.56 33.198-21.459 77.64-35.561 149.18-53.719 22.18-5.662 45.307-18.24 52.349-34.271 19.052 19.105 22.487 62.059 19.151 87.161-3.9582 29.051-37.814 76.927-88.838 78.803-31.205 1.2529-70.877-6.7178-89.721-10.738-32.522-7.0512-84.321 13.398-92.58 53.259" fill="#0060af"/><path d="m576.55 924.15-11.09-80.921 26.769-4.0573c6.5188-0.89289 14.453 0.24253 17.627 4.3276 3.5074 4.2644 4.5803 7.7903 5.2566 13.38 1.0098 6.9156-0.99182 14.913-8.7819 18.898v0.24253c8.7008 0 13.957 6.2483 15.481 16.797 0.22529 2.2268 0.8836 7.6097 0.22529 12.1-1.7672 10.684-8.1417 14.12-18.898 15.626zm17.23-14.489c3.1737-0.45315 6.3925-0.62196 8.9081-2.2274 3.85-2.5156 3.4984-7.8982 2.9664-11.892-1.3435-8.7821-3.6336-12.118-12.947-10.739l-5.8516 0.90151 3.7057 24.407zm-5.6081-37.391c3.5434-0.57473 8.3491-1.0008 10.351-4.3636 1.0459-2.245 2.3894-4.0305 1.5058-9.0256-1.091-5.9238-3.0565-9.593-10.576-8.1688l-7.0057 1.1274 2.759 20.738" fill="#0060af"/><path d="m692.51 875.48c0.20743 1.5059 0.45104 3.1829 0.54097 4.6882 2.1639 14.76-0.54097 26.977-17.131 30.34-24.524 4.7249-29.222-10.513-33.541-31.845l-2.2992-11.541c-3.3811-20.413-4.8328-35.867 19.078-40.628 13.479-2.4614 22.388 2.903 26.093 16.319 0.57681 2.0015 1.2983 3.9855 1.5688 5.9959l-14.67 3.0297c-1.695-5.0402-3.9401-14.047-10.54-13.29-11.847 1.4242-7.9344 16.166-6.7172 22.324l4.409 22.153c1.3254 6.6992 3.9582 17.401 14.21 15.336 8.322-1.668 4.6975-14.633 3.9582-19.944" fill="#0060af"/><path d="m716.05 899.96-5.0762-83.744 19.71-6.0138 41.322 72.834-15.517 4.6428-9.7917-18.51-17.23 5.1751 2.2271 21.044zm11.974-39.14 12.452-3.6064-16.536-33.884" fill="#0060af"/><path d="m229.24 836.65c6.1672-19.746 11.694-34.281 35.227-27.825 12.596 3.5164 20.404 9.07 20.034 23.703-0.0609 3.2553-1.136 6.5729-1.8393 9.7918l-14.652-4.048c1.9205-8.0788 3.1377-14.489-6.8163-17.555-11.505-3.1558-14.309 10.793-15.896 16.815l-5.9598 21.955c-1.8934 6.5189-4.1655 17.293 5.9598 20.07 8.3671 2.2539 13.443-5.9595 16.473-17.952l-10.252-2.7138 3.5434-12.704 24.101 7.7543-11.442 42.313-11.09-3.0115 2.4975-8.9442h-0.3158c-5.1032 7.3126-11.333 8.0788-16.788 7.0327-24.101-6.519-21.585-22.27-15.833-43.314" fill="#0060af"/><path d="m318.94 872.39-7.2581 34.425-16.338-3.5346 17.411-80.381 27.851 6.2936c16.302 3.5164 21.224 10.774 18.916 25.715-1.3164 8.5744-5.545 17.816-15.869 17.068l-0.10818-0.14041c8.7278 3.0565 9.4671 7.4562 7.9434 15.067-0.65796 3.2362-5.1934 22.883-2.0648 26.057l0.10818 2.4074-16.906-4.4089c-0.70328-5.4454 1.6861-15.237 2.6328-20.657 0.95572-4.7963 2.4794-11.559-2.3894-14.101-3.8139-2.029-5.2294-1.9294-9.5392-2.9215zm2.786-12.451 11 2.9662c6.6811 0.9647 10.396-2.4974 11.712-10.567 1.1902-7.4026-0.35163-10.297-6.3475-11.73l-11.793-2.3889" fill="#0060af"/><path d="m423.73 840.86 16.157 1.8758-6.9606 56.505c-3.3811 17.915-10.306 25.751-30.015 23.298-20.052-2.5338-24.813-11.667-23.596-29.727l7.0057-56.46 16.283 1.8665-6.9876 55.198c-0.73934 5.9959-2.1279 14.877 8.5385 15.95 9.4581 0.72153 11.604-5.545 12.668-13.335" fill="#0060af"/><path d="m457.7 925.63 4.8598-80.804 31.043 1.3438c14.67 0.72089 18.51 12.703 18.051 24.137-0.42398 6.9514-2.5967 14.715-8.6557 18.925-4.968 3.5792-11.352 4.4265-17.275 4.1386l-10.116-0.56133-2.0196 33.865zm18.366-45.145 8.2229 0.45985c6.6811 0.24253 11.108-2.3982 11.685-12.208 0.32457-9.422-3.2368-11.018-11.892-11.397l-6.5188-0.22338" fill="#0060af"/></svg>
