<svg xmlns="http://www.w3.org/2000/svg" width="540" height="81" viewBox="0 0 180 27"><title>Logo</title><g fill="none" fill-rule="evenodd"><path d="M115.539 26.905h64.385V.025H115.54v26.88zM179.229.714v25.502h-62.995V.714h62.994zM.084.025H112.76v26.88H.084V.025z" fill="#003F63"/><path d="M179.228.714v25.502h-62.994V.714h62.994M38.991 15.285c0 2.637-1.418 3.946-4.625 3.946h-5.053V9.336h4.878c3.887 0 4.8 1.868 4.8 3.908v2.04zm2.08-.077v-1.694c0-5.41-4.295-5.622-7.191-5.622h-6.646v12.803h7.229c5.675 0 6.608-3.042 6.608-5.487zM52.323 17.538c0 .75-.059 1.424-.914 1.732-.505.192-1.224.25-2.43.25-1.204 0-1.923-.116-2.35-.385-.292-.173-.409-.462-.409-1.078 0-.77.195-1.213.584-1.386.369-.173.836-.212 2.312-.212h3.207v1.079zm1.963 3.157V15.67c0-.944 0-1.617-.077-2.098-.098-.501-.273-.848-.681-1.156-.933-.731-3.246-.75-4.392-.75-.855 0-3.207.096-4.062.828-.292.25-.37.539-.37.885 0 .231.04.54.06.944h1.903c.04-.232.078-.79.292-1.001.252-.251.7-.347 2.001-.347 1.497 0 2.547.058 2.974.288.408.232.389.713.389 1.079v.885H47.93c-1.185 0-2.545.02-3.304 1.04-.33.442-.485 1-.485 1.732 0 2.118 1.321 2.83 4.703 2.83 1.768 0 2.915-.269 3.615-.866l.175.732h1.652zM66.063 20.695v-4.89c0-1.694-.078-2.06-.487-2.368-.388-.29-1.165-.462-2.35-.462-1.05 0-2.119.135-3.13.404v7.316h-1.943v-8.952h1.749l.135.635c.39-.212.681-.366 1.09-.482.64-.192 1.457-.288 2.545-.288 1.244 0 2.196.192 2.934.52.72.308 1.108.885 1.264 1.56.097.462.136.865.136 1.886v5.12h-1.943M80.443 20.156c-.893.442-2.35.635-4.256.635-1.321 0-2.41-.096-3.264-.308-.914-.212-1.361-.635-1.42-1.405-.019-.405 0-.77.059-1.252h1.866c.058.462.058.597.077.693.078.423.04.655.545.809.485.153 1.263.212 2.254.212 1.244 0 2.099-.136 2.682-.386.407-.173.602-.5.602-1.116 0-.712-.155-1.001-.893-1.117-.234-.038-.467-.038-.7-.057-.136-.02-.564-.02-1.244-.039-.33 0-.7-.02-1.147-.038-1.924-.096-3.984-.173-3.984-2.426 0-2.021 1.264-2.734 4.704-2.734.874 0 1.963.058 2.604.135.757.097 1.32.23 1.73.462.446.25.601.654.601 1.367 0 .192 0 .385-.038.693h-1.885l-.078-.405c-.097-.48-.136-.577-.291-.693-.272-.211-1.108-.308-2.274-.308-1.186 0-1.846.058-2.39.251-.506.173-.72.5-.72 1.135 0 .444.156.77.369.905.506.308 3.168.27 4.081.289.973.02 1.614.096 2.178.289.99.346 1.38.982 1.38 2.29 0 1.06-.35 1.714-1.148 2.119M92.395 20.695l-4.664-4.236h-.7v4.236h-1.943V7.892h1.943v7.296h.7l3.868-3.445h2.273l-4.509 3.946 5.617 5.006h-2.585M104.62 15.343H98.38c.077-1.117.31-1.618.757-1.945.448-.327 1.283-.481 2.507-.481 1.692 0 2.488.366 2.78 1.136.117.327.194.636.194 1.29zm1.788 2.56h-1.924c-.06.27-.098.963-.35 1.213-.292.288-.875.424-2.45.424-1.534 0-2.39-.212-2.818-.635-.33-.328-.524-1.002-.524-2.061v-.23h8.124c.019-.444.038-.559.038-.906 0-1.482-.214-2.31-.855-2.945-.738-.75-2.157-1.117-4.1-1.117-2.488 0-4.023.559-4.664 1.79-.37.714-.584 1.714-.584 2.966 0 1.944.525 3.176 1.672 3.792.719.385 1.963.597 3.536.616 1.322 0 2.372-.058 3.538-.404 1.127-.347 1.399-.982 1.399-1.501 0-.136 0-.578-.038-1.002z" fill="#FFF"/><path d="M132.061 11.127c0 1.886-1.068 2.271-3.284 2.271h-4.897V9.336h5.15c1.963 0 3.031.173 3.031 1.79zm2.565 5.968c0-1.58-.913-2.753-3.089-3.08v-.04c1.69-.442 2.604-1.308 2.604-2.675 0-2.253-1.109-3.408-4.257-3.408H121.8v12.803h8.415c2.837 0 4.411-1.271 4.411-3.6zm-2.08.134c0 1.83-1.3 2.002-3.322 2.002h-5.344v-4.389h5.596c2.391 0 3.07.77 3.07 2.387zM145.198 17.538c0 .75-.058 1.424-.914 1.732-.504.192-1.223.25-2.429.25-1.204 0-1.924-.116-2.35-.385-.292-.173-.409-.462-.409-1.078 0-.77.194-1.213.583-1.386.37-.173.835-.212 2.313-.212h3.206v1.079zm1.963 3.157V15.67c0-.944 0-1.617-.078-2.098-.097-.501-.272-.848-.679-1.156-.933-.731-3.246-.75-4.393-.75-.855 0-3.207.096-4.061.828-.292.25-.37.539-.37.885 0 .231.039.54.058.944h1.905c.039-.232.078-.79.291-1.001.253-.251.7-.347 2.002-.347 1.496 0 2.547.058 2.974.288.407.232.388.713.388 1.079v.885h-4.392c-1.185 0-2.546.02-3.304 1.04-.33.442-.485 1-.485 1.732 0 2.118 1.322 2.83 4.703 2.83 1.768 0 2.916-.269 3.614-.866l.175.732h1.652zM158.453 20.695v-4.89c0-1.694-.078-2.06-.486-2.368-.39-.29-1.166-.462-2.352-.462-1.05 0-2.118.135-3.13.404v7.316h-1.942v-8.952h1.748l.137.635c.389-.212.68-.366 1.088-.482.641-.192 1.457-.288 2.546-.288 1.243 0 2.196.192 2.935.52.718.308 1.107.885 1.262 1.56.098.462.137.865.137 1.886v5.12h-1.943M171.084 20.695l-4.664-4.236h-.7v4.236h-1.943V7.892h1.943v7.296h.7l3.868-3.445h2.273l-4.508 3.946 5.616 5.006h-2.585" fill="#003F63"/></g></svg>