<?xml version="1.0" encoding="UTF-8"?>
<svg enable-background="new 0 0 25 25.004" version="1.1" viewBox="0 0 25 25.004" xml:space="preserve" xmlns="http://www.w3.org/2000/svg">
<style type="text/css">
	.st0{fill:#FFB819;}
	.st1{fill:#231F20;}
	.st2{fill:#FFFFFF;}
	.st3{fill:#C11524;}
	.st4{fill-rule:evenodd;clip-rule:evenodd;fill:#006BB1;}
	.st5{fill-rule:evenodd;clip-rule:evenodd;fill:#F37121;}
	.st6{fill:#003887;}
	.st7{fill:#009DDF;}
	.st8{fill:url(#SVGID_1_);}
	.st9{fill:url(#SVGID_2_);}
	.st10{fill:url(#SVGID_3_);}
	.st11{fill:url(#SVGID_4_);}
	.st12{fill:url(#SVGID_5_);}
	.st13{fill:url(#SVGID_6_);}
	.st14{fill:#009BDE;}
	.st15{fill:#022169;}
	.st16{fill:#002F87;}
	.st17{fill:#F5921B;}
	.st18{fill:#0071BB;}
	.st19{fill:#2C9940;}
	.st20{fill:#226DBB;}
	.st21{fill:#D81928;}
	.st22{fill:#FF7404;}
	.st23{fill-rule:evenodd;clip-rule:evenodd;fill:#5269AF;}
	.st24{fill-rule:evenodd;clip-rule:evenodd;fill:#F9913C;}
	.st25{fill:#F14A43;}
	.st26{fill:#F46E40;}
	.st27{fill:#FA983C;}
	.st28{fill-rule:evenodd;clip-rule:evenodd;fill:#1A5EAB;}
	.st29{fill-rule:evenodd;clip-rule:evenodd;fill:#F8883E;}
	.st30{fill:#80726C;}
	.st31{fill:#FCFCFC;}
	.st32{fill:#CF4D16;}
	.st33{fill:#DF6210;}
	.st34{fill:#F14942;}
	.st35{fill-rule:evenodd;clip-rule:evenodd;fill:none;stroke:#FFFFFF;stroke-width:0.0623;}
	.st36{fill:#EB8341;}
	.st37{fill:#35A15B;}
	.st38{fill:#6B787F;}
	.st39{fill:url(#SVGID_7_);}
	.st40{fill:url(#SVGID_8_);}
	.st41{fill:#A40B34;}
	.st42{fill:#7C0023;}
	.st43{fill:url(#SVGID_9_);}
	.st44{fill:#6D8DA6;}
	.st45{fill:#242021;}
	.st46{fill:#231300;}
	.st47{fill:#5EBB57;}
	.st48{fill:#B04A4A;}
	.st49{fill:#E05145;}
	.st50{fill:#CF0A2C;}
	.st51{fill:#002856;}
	.st52{fill:#007078;}
</style>
<path class="st49" d="m25 15.116c-0.851 1.677-1.338 3.515-2.538 5.043-3.573 4.552-9.857 6.132-15.168 3.725-5.329-2.415-8.221-8.21-7.027-14.084 1.111-5.465 6.041-9.571 11.755-9.79 5.872-0.226 11.068 3.555 12.608 9.167 0.087 0.317-0.08 0.743 0.37 0.914v5.025zm-12.63-3.845c1.045 2.216 2.09 4.433 3.222 6.834 1.209-2.344 2.323-4.502 3.436-6.66 0.137 0.048 0.275 0.096 0.412 0.144-0.376 2.078 0.745 4.293-0.789 6.304h3.078c-1.554-1.713-1.533-8.205-0.01-9.414-2.014-0.225-1.977-0.208-2.821 1.594-0.886 1.894-1.852 3.751-2.916 5.893-1.081-2.25-2.03-4.096-2.861-5.994-0.785-1.793-0.73-1.817-2.978-1.233 1.493-0.018 1.26 0.872 1.221 1.64-0.089 1.727-0.183 3.454-0.306 5.18-0.037 0.52 0.061 1.058-0.278 1.555-0.16 0.235-0.885-0.028-0.539 0.542 0.341 0.562 0.974 0.326 1.483 0.291 0.401-0.028 0.38-0.383 0.28-0.68-0.676-2.01 0.055-3.986 0.366-5.996zm-8.9 2.545c1.406 0.278 2.889 0.348 4.329-0.175 1.225-0.445 2.108-1.29 2.022-2.623-0.091-1.435-0.963-2.482-2.46-2.621-1.429-0.133-2.881-0.029-4.322-0.029 1.146 0.6 1.17 1.535 1.128 2.51-0.018 0.417-0.052 0.842 0.01 1.251 0.067 0.445-0.351 1.238 0.584 1.18 0.874-0.054 0.441-0.811 0.501-1.261 0.07-0.528-0.032-1.077 0.03-1.607 0.063-0.534-0.364-1.336 0.471-1.522 0.835-0.185 1.675 0.011 2.22 0.792 0.964 1.379 0.305 3.214-1.37 3.634-1.023 0.256-2.093 0.321-3.143 0.471zm3.039 4.143c-1.393-0.487-1.246-1.552-1.238-2.568 4e-3 -0.427 0.188-1.021-0.599-0.997-0.671 0.02-0.512 0.537-0.498 0.905 0.039 1.037-0.279 1.917-1.257 2.66h3.592z"/>
</svg>
