<svg xmlns="http://www.w3.org/2000/svg" width="249" height="58" viewBox="0 0 248.076 57.356"><path d="M52.778 56.315h11.998V0H52.778zM128.75 23.75v-5.037h-11.2v37.6h11.347V36.61c0-5.718 6.45-8.226 10.875-6.958.044.013.088 0 .134 0V18.7c-4.646 0-8.917 2.02-11.146 5.036zM90.154 47.606c-5.878 0-10.642-4.518-10.642-10.092s4.764-10.092 10.642-10.092 10.642 4.518 10.642 10.092-4.765 10.092-10.642 10.092zM100.69 21.32c-3.237-2.294-7.188-3.647-11.457-3.647-10.958 0-19.84 8.884-19.84 19.842s8.883 19.842 19.84 19.842a19.75 19.75 0 0 0 11.457-3.646v2.605h9.8v-37.6h-9.8zm67.264-3.618c-4.498 0-8.754 1.396-11.6 5.248v-4.235h-11.2v37.6h11.347V35.748c0-5.718 3.835-8.518 8.452-8.518 4.948 0 7.792 2.956 7.792 8.44v20.645h11.245V32.403c0-8.752-6.958-14.702-16.027-14.702zM241 42.977a7.07 7.07 0 0 0-7.067 7.067 7.07 7.07 0 0 0 7.067 7.066 7.07 7.07 0 0 0 7.066-7.066 7.07 7.07 0 0 0-7.066-7.067zm-32.29 4.63c-5.878 0-10.642-4.518-10.642-10.092s4.764-10.092 10.642-10.092 10.64 4.518 10.64 10.092-4.764 10.092-10.64 10.092zm10.535-26.287c-3.237-2.294-7.188-3.647-11.457-3.647-10.958 0-19.842 8.884-19.842 19.842s8.884 19.842 19.842 19.842a19.75 19.75 0 0 0 11.457-3.646v2.605h9.8v-37.6h-9.8zm16.926-1.92h.547c.343 0 .49.167.49.423s-.095.445-.49.445h-.547zm.008 1.327h.546l.46 1.05h.547l-.51-1.138c.33-.145.496-.43.496-.816 0-.533-.408-.9-1-.9h-1.043v2.837h.504zM0 56.315h12.506V0H0zM44.604.005H32.462c-.248 12.713-7.592 23.687-18.24 29.118L32.88 56.315h15.234L31.155 31.58c8.468-8.307 13.278-19.505 13.45-31.576zm192 18.213c1.19 0 2.152.978 2.152 2.18s-.963 2.18-2.152 2.18-2.15-.977-2.15-2.18.963-2.18 2.15-2.18zm0 4.88c1.473 0 2.67-1.21 2.67-2.698s-1.196-2.698-2.67-2.698-2.662 1.2-2.662 2.698 1.19 2.698 2.662 2.698z" fill="#020302" fill-rule="evenodd"/></svg>