<svg xmlns="http://www.w3.org/2000/svg" height="100" width="180"><g transform="matrix(4 0 0 4 0 0)" fill-rule="nonzero"><rect width="45" height="25" rx="4.321" fill="#ffb3c7"/><path d="M40.794 14.646a1.07 1.07 0 1 0 0 2.151 1.07 1.07 0 1 0 0-2.151zm-3.507-.832c0-.813-.69-1.473-1.54-1.473s-1.54.66-1.54 1.473.69 1.473 1.54 1.473 1.54-.66 1.54-1.473zm.006-2.862h1.698v5.724h-1.698v-.366a2.96 2.96 0 0 1-1.684.524c-1.653 0-2.993-1.352-2.993-3.02s1.34-3.02 2.993-3.02a2.96 2.96 0 0 1 1.684.524v-.366zm-13.592.746v-.746h-1.74v5.724h1.743v-2.672c0-.902.968-1.386 1.64-1.386l.02.001v-1.666c-.7 0-1.324.298-1.665.745zm-4.332 2.117c0-.813-.69-1.473-1.54-1.473s-1.54.66-1.54 1.473.69 1.473 1.54 1.473 1.54-.66 1.54-1.473zm.006-2.862h1.698v5.724h-1.698v-.366a2.96 2.96 0 0 1-1.684.524c-1.653 0-2.993-1.352-2.993-3.02s1.34-3.02 2.993-3.02a2.96 2.96 0 0 1 1.684.524v-.366zm10.223-.154c-.678 0-1.32.213-1.75.8v-.645h-1.69v5.724h1.712V13.67c0-.87.578-1.297 1.275-1.297.746 0 1.176.45 1.176 1.285v3.02h1.696v-3.64c0-1.332-1.05-2.238-2.418-2.238zm-17.374 5.878H14V8.402h-1.778zm-7.81.002h1.882V8.4H4.414zm6.584-8.28c0 1.792-.692 3.46-1.926 4.7l2.602 3.58H9.35l-2.828-3.89.73-.552c1.2-.915 1.905-2.313 1.905-3.837h1.842z" fill="#0a0b09"/></g></svg>