<svg xmlns="http://www.w3.org/2000/svg" fill="none" width="229.16" height="37" xmlns:v="https://vecta.io/nano"><path fill="#162645" d="M14.325 0c3.694 0 6.802 1.198 9.325 3.594s3.775 5.339 3.775 8.826-1.262 6.43-3.785 8.828-5.63 3.594-9.324 3.594H7.569V37H0V0h14.315zm0 18.024c1.6 0 2.944-.528 4.005-1.585 1.06-1.093 1.6-2.432 1.6-4.018 0-1.62-.53-2.96-1.6-4.017S15.925 6.82 14.315 6.82H7.569v11.205h6.747zM65.57 37L55.75 8.65 45.659 37h-8.172L50.925 0h9.38l13.492 37zm49.855-37l-13.164 22.57V37h-7.514V22.57L81.637 0h8.557l8.337 15.434L106.868 0zm19.07 30.023h14.645V37h-22.215V0h7.57zM220.987 37l-7.734-12.844h-5.76V37h-7.568V0h15.358c3.547 0 6.564 1.198 9.05 3.594s3.73 5.286 3.73 8.67c0 2.3-.677 4.422-2.03 6.396-1.353 1.938-3.144 3.4-5.375 4.387L229.16 37zM207.495 6.82v10.94h7.79c1.426 0 2.65-.53 3.675-1.586 1.024-1.092 1.536-2.396 1.536-3.91s-.512-2.802-1.536-3.86-2.25-1.585-3.675-1.585h-7.79zm-20.57.18V0h-25v7zm0 15v-7h-25v7zm0 15v-7h-25v7z"/></svg>