<svg width="191" height="48" viewBox="0 0 191 48" fill="none" xmlns="http://www.w3.org/2000/svg">
<path d="M53.3694 39C53.0664 39 52.8185 38.9036 52.6257 38.7108C52.4328 38.518 52.3364 38.27 52.3364 37.9671V10.6972C52.3364 10.3942 52.4328 10.1463 52.6257 9.95347C52.8185 9.76065 53.0664 9.66424 53.3694 9.66424H57.4185C57.694 9.66424 57.9281 9.76065 58.1209 9.95347C58.3138 10.1463 58.4102 10.3942 58.4102 10.6972V24.6627L64.7731 18.2171C64.9935 18.0242 65.1863 17.859 65.3516 17.7212C65.5444 17.5835 65.8336 17.5147 66.2193 17.5147H70.8882C71.1636 17.5147 71.384 17.6111 71.5493 17.8039C71.7146 17.9692 71.7972 18.1757 71.7972 18.4237C71.7972 18.5338 71.7696 18.6578 71.7146 18.7955C71.6595 18.9332 71.5631 19.0434 71.4253 19.1261L63.451 27.1417L72.4583 37.4299C72.7062 37.6503 72.8301 37.8706 72.8301 38.091C72.8301 38.3389 72.7337 38.5593 72.5409 38.7521C72.3756 38.9174 72.1691 39 71.9211 39H67.1283C66.7151 39 66.4121 38.9311 66.2193 38.7934C66.054 38.6557 65.8612 38.4904 65.6408 38.2976L58.4102 30.1993V37.9671C58.4102 38.27 58.3138 38.518 58.1209 38.7108C57.9281 38.9036 57.694 39 57.4185 39H53.3694ZM83.382 39C82.9689 39 82.6521 38.9036 82.4317 38.7108C82.2389 38.4904 82.0736 38.2425 81.9359 37.9671L74.1681 18.7955C74.113 18.6853 74.0855 18.5614 74.0855 18.4237C74.0855 18.1757 74.1681 17.9692 74.3334 17.8039C74.5262 17.6111 74.7466 17.5147 74.9945 17.5147H79.0023C79.3604 17.5147 79.6221 17.6111 79.7874 17.8039C79.9802 17.9967 80.1041 18.1757 80.1592 18.341L85.2413 31.9759L90.3235 18.341C90.4061 18.1757 90.53 17.9967 90.6953 17.8039C90.8881 17.6111 91.1498 17.5147 91.4804 17.5147H95.4882C95.7361 17.5147 95.9427 17.6111 96.108 17.8039C96.3008 17.9692 96.3972 18.1757 96.3972 18.4237C96.3972 18.5614 96.3834 18.6853 96.3559 18.7955L88.5468 37.9671C88.4366 38.2425 88.2713 38.4904 88.051 38.7108C87.8306 38.9036 87.5138 39 87.1007 39H83.382ZM100.9 39C100.625 39 100.391 38.9036 100.198 38.7108C100.005 38.518 99.9086 38.27 99.9086 37.9671V18.5476C99.9086 18.2446 100.005 17.9967 100.198 17.8039C100.391 17.6111 100.625 17.5147 100.9 17.5147H105.032C105.335 17.5147 105.583 17.6111 105.776 17.8039C105.969 17.9967 106.065 18.2446 106.065 18.5476V37.9671C106.065 38.27 105.969 38.518 105.776 38.7108C105.583 38.9036 105.335 39 105.032 39H100.9ZM100.776 14.2092C100.501 14.2092 100.267 14.1128 100.074 13.92C99.881 13.7272 99.7846 13.4793 99.7846 13.1763V9.87083C99.7846 9.56784 99.881 9.31993 100.074 9.12711C100.267 8.90675 100.501 8.79657 100.776 8.79657H105.115C105.418 8.79657 105.666 8.90675 105.858 9.12711C106.079 9.31993 106.189 9.56784 106.189 9.87083V13.1763C106.189 13.4793 106.079 13.7272 105.858 13.92C105.666 14.1128 105.418 14.2092 105.115 14.2092H100.776ZM121.576 39C119.868 39 118.409 38.7245 117.197 38.1736C115.985 37.5952 115.062 36.7137 114.428 35.5293C113.822 34.3448 113.519 32.8574 113.519 31.067V22.3902H110.296C109.993 22.3902 109.746 22.2938 109.553 22.101C109.36 21.9081 109.264 21.6602 109.264 21.3572V18.5476C109.264 18.2446 109.36 17.9967 109.553 17.8039C109.746 17.6111 109.993 17.5147 110.296 17.5147H113.519V10.6972C113.519 10.3942 113.616 10.1463 113.809 9.95347C114.029 9.76065 114.277 9.66424 114.552 9.66424H118.601C118.904 9.66424 119.152 9.76065 119.345 9.95347C119.538 10.1463 119.634 10.3942 119.634 10.6972V17.5147H124.799C125.075 17.5147 125.309 17.6111 125.502 17.8039C125.694 17.9967 125.791 18.2446 125.791 18.5476V21.3572C125.791 21.6602 125.694 21.9081 125.502 22.101C125.309 22.2938 125.075 22.3902 124.799 22.3902H119.634V30.5711C119.634 31.6179 119.813 32.4442 120.171 33.0502C120.557 33.6287 121.218 33.9179 122.155 33.9179H125.171C125.446 33.9179 125.681 34.0143 125.873 34.2071C126.066 34.3999 126.163 34.6341 126.163 34.9095V37.9671C126.163 38.27 126.066 38.518 125.873 38.7108C125.681 38.9036 125.446 39 125.171 39H121.576ZM137.659 39.4132C136.061 39.4132 134.643 39.0551 133.403 38.3389C132.191 37.5952 131.241 36.5347 130.552 35.1574C129.891 33.7526 129.561 32.0586 129.561 30.0753V18.5476C129.561 18.2446 129.657 17.9967 129.85 17.8039C130.043 17.6111 130.277 17.5147 130.552 17.5147H134.932C135.235 17.5147 135.483 17.6111 135.676 17.8039C135.869 17.9967 135.965 18.2446 135.965 18.5476V29.8274C135.965 32.9125 137.315 34.455 140.014 34.455C141.309 34.455 142.328 34.0556 143.072 33.2568C143.843 32.4304 144.229 31.2873 144.229 29.8274V18.5476C144.229 18.2446 144.325 17.9967 144.518 17.8039C144.711 17.6111 144.959 17.5147 145.261 17.5147H149.641C149.917 17.5147 150.151 17.6111 150.344 17.8039C150.536 17.9967 150.633 18.2446 150.633 18.5476V37.9671C150.633 38.27 150.536 38.518 150.344 38.7108C150.151 38.9036 149.917 39 149.641 39H145.592C145.289 39 145.041 38.9036 144.848 38.7108C144.656 38.518 144.559 38.27 144.559 37.9671V36.3557C143.843 37.3473 142.92 38.1048 141.791 38.6281C140.661 39.1515 139.284 39.4132 137.659 39.4132ZM156.825 39C156.549 39 156.315 38.9036 156.122 38.7108C155.929 38.518 155.833 38.27 155.833 37.9671V18.5476C155.833 18.2446 155.929 17.9967 156.122 17.8039C156.315 17.6111 156.549 17.5147 156.825 17.5147H160.667C160.943 17.5147 161.177 17.6111 161.37 17.8039C161.59 17.9967 161.7 18.2446 161.7 18.5476V19.9524C162.251 19.1811 163.009 18.5201 163.973 17.9692C164.964 17.4182 166.135 17.129 167.485 17.1015C170.68 17.0464 172.87 18.2584 174.054 20.7375C174.688 19.6632 175.597 18.7955 176.781 18.1344C177.993 17.4458 179.315 17.1015 180.748 17.1015C182.18 17.1015 183.475 17.432 184.632 18.0931C185.789 18.7267 186.698 19.7183 187.359 21.068C188.047 22.3902 188.392 24.098 188.392 26.1914V37.9671C188.392 38.27 188.295 38.518 188.102 38.7108C187.91 38.9036 187.675 39 187.4 39H183.31C183.034 39 182.8 38.9036 182.607 38.7108C182.414 38.518 182.318 38.27 182.318 37.9671V26.522C182.318 25.3926 182.153 24.5112 181.822 23.8776C181.492 23.2165 181.051 22.7483 180.5 22.4728C179.977 22.1974 179.384 22.0596 178.723 22.0596C178.145 22.0596 177.58 22.1974 177.029 22.4728C176.506 22.7483 176.065 23.2165 175.707 23.8776C175.376 24.5112 175.211 25.3926 175.211 26.522V37.9671C175.211 38.27 175.115 38.518 174.922 38.7108C174.729 38.9036 174.481 39 174.178 39H170.129C169.826 39 169.578 38.9036 169.385 38.7108C169.193 38.518 169.096 38.27 169.096 37.9671V26.522C169.096 25.3926 168.931 24.5112 168.6 23.8776C168.27 23.2165 167.829 22.7483 167.278 22.4728C166.755 22.1974 166.176 22.0596 165.543 22.0596C164.964 22.0596 164.4 22.2111 163.849 22.5141C163.298 22.7896 162.843 23.2441 162.485 23.8776C162.155 24.5112 161.989 25.3788 161.989 26.4807V37.9671C161.989 38.27 161.893 38.518 161.7 38.7108C161.507 38.9036 161.273 39 160.998 39H156.825Z" fill="#464748"/>
<path fill-rule="evenodd" clip-rule="evenodd" d="M2.92235 12.6691C1.18966 12.6691 0.318663 14.7611 1.53936 15.9907L9.02355 23.53C9.02997 23.5364 9.02997 23.5469 9.02355 23.5533C9.01315 23.5638 9.02057 23.5816 9.03532 23.5816H13.6976C15.4345 23.5816 16.3036 21.481 15.0744 20.2538L8.04781 13.2388C7.68244 12.874 7.18727 12.6691 6.67099 12.6691H2.92235ZM8.77589 10.9088C8.77589 11.4262 8.98164 11.9223 9.34779 12.2879L16.3628 19.2914C17.5909 20.5175 19.6884 19.6477 19.6884 17.9123V14.1871C19.6884 13.6727 19.485 13.1792 19.1226 12.8142L12.1076 5.74758C10.8821 4.51302 8.77589 5.38091 8.77589 7.12047V10.9088Z" fill="#1F6EC6"/>
<path fill-rule="evenodd" clip-rule="evenodd" d="M2.92235 36.0804C1.18966 36.0804 0.318663 33.9885 1.53936 32.7588L9.02349 25.2197C9.02992 25.2132 9.02992 25.2027 9.02349 25.1963C9.01309 25.1858 9.02051 25.168 9.03528 25.168H13.6975C15.4344 25.168 16.3035 27.2686 15.0744 28.4958L8.04777 35.5108C7.68241 35.8756 7.18723 36.0804 6.67095 36.0804H2.92235ZM8.77585 37.8408C8.77585 37.3234 8.9816 36.8272 9.34775 36.4617L16.3628 29.4582C17.5909 28.2321 19.6883 29.1019 19.6883 30.8373V34.5624C19.6883 35.0768 19.485 35.5703 19.1226 35.9353L12.1076 43.0019C10.882 44.2365 8.77585 43.3686 8.77585 41.629V37.8408Z" fill="#1F6EC6"/>
<path fill-rule="evenodd" clip-rule="evenodd" d="M38.2144 12.6691C39.9471 12.6691 40.8181 14.761 39.5974 15.9907L32.1133 23.5298C32.1068 23.5363 32.1068 23.5468 32.1133 23.5532C32.1237 23.5637 32.1162 23.5816 32.1015 23.5816H27.4385C25.7016 23.5816 24.8325 21.4809 26.0616 20.2538L33.0882 13.2387C33.4536 12.8739 33.9488 12.6691 34.465 12.6691H38.2144ZM32.3613 10.9076C32.3613 11.425 32.1555 11.9211 31.7894 12.2867L24.7743 19.2902C23.5462 20.5163 21.4488 19.6465 21.4488 17.9111V14.187C21.4488 13.6727 21.6521 13.1792 22.0145 12.8141L29.0296 5.74752C30.2551 4.51296 32.3613 5.38085 32.3613 7.12042V10.9076Z" fill="#FFD700"/>
<path fill-rule="evenodd" clip-rule="evenodd" d="M38.2144 36.0805C39.9471 36.0805 40.8181 33.9885 39.5974 32.7588L32.1132 25.2197C32.1068 25.2132 32.1068 25.2027 32.1132 25.1963C32.1236 25.1858 32.1162 25.168 32.1014 25.168H27.4384C25.7015 25.168 24.8324 27.2686 26.0616 28.4958L33.0882 35.5108C33.4536 35.8756 33.9487 36.0805 34.465 36.0805H38.2144ZM32.3612 37.8419C32.3612 37.3245 32.1555 36.8284 31.7893 36.4628L24.7743 29.4593C23.5462 28.2332 21.4488 29.103 21.4488 30.8384V34.5625C21.4488 35.0768 21.6521 35.5703 22.0145 35.9354L29.0295 43.002C30.2551 44.2365 32.3612 43.3687 32.3612 41.6291V37.8419Z" fill="#1F6EC6"/>
</svg>
