<?xml version="1.0" encoding="UTF-8"?>
<svg version="1.1" viewBox="0 0 81.92 81.919" xmlns="http://www.w3.org/2000/svg" xmlns:cc="http://creativecommons.org/ns#" xmlns:dc="http://purl.org/dc/elements/1.1/" xmlns:rdf="http://www.w3.org/1999/02/22-rdf-syntax-ns#">
<metadata>
<rdf:RDF>
<cc:Work rdf:about="">
<dc:format>image/svg+xml</dc:format>
<dc:type rdf:resource="http://purl.org/dc/dcmitype/StillImage"/>
<dc:title/>
</cc:Work>
</rdf:RDF>
</metadata>
<g transform="translate(-.013439 -.040316)">
<path d="m40.973 3.2592c5.0964 0 10.039 0.99744 14.69 2.9646 4.4938 1.9007 8.5303 4.6224 11.997 8.0895s6.1889 7.5036 8.0895 11.997c1.9671 4.6508 2.9646 9.5931 2.9646 14.69 0 5.0964-0.99744 10.039-2.9646 14.689-1.9007 4.4937-4.6224 8.5303-8.0895 11.997s-7.5036 6.1888-11.997 8.0895c-4.6508 1.9671-9.593 2.9646-14.69 2.9646-5.0964 0-10.039-0.99744-14.689-2.9646-4.4937-1.9007-8.5303-4.6224-11.997-8.0895s-6.1888-7.5036-8.0895-11.997c-1.9671-4.6508-2.9646-9.593-2.9646-14.689 0-5.0964 0.99744-10.039 2.9646-14.69 1.9007-4.4937 4.6224-8.5303 8.0895-11.997s7.5036-6.1888 11.997-8.0895c4.6507-1.9671 9.593-2.9646 14.689-2.9646zm0-3.2188c-22.621 0-40.96 18.338-40.96 40.96 0 22.621 18.338 40.96 40.96 40.96s40.96-18.338 40.96-40.96-18.338-40.96-40.96-40.96z" fill="#71b03e"/>
<g transform="translate(19.957,26.716)" fill="#424242">
<path d="m18.526 28.465h-18.507c0.36051-6.5297 3.5252-8.8531 8.4525-11.938 3.0445-1.9229 6.77-4.0059 6.77-8.132 0-3.1647-2.2433-5.3679-5.4881-5.3679-4.2463 0-5.7097 3.6053-5.7898 7.1305h-3.149l-0.034442-0.7611c0-5.6083 3.6453-9.3338 9.1335-9.3338 5.3678 0 8.853 3.2448 8.853 8.2521 0 5.5281-4.3264 8.1722-8.4925 10.696-2.6039 1.5623-5.5683 3.0931-6.3294 6.2979h14.582v3.156h-8e-5zm23.393-6.8709h-3.8806l0.0014 6.8709h-3.1698l-0.0014-6.8709h-12.458l0.0014-3.4626 12.528-18.069h3.1006v18.389h3.8806l-0.0014 3.1421zm-7.049-16.619-9.0826 13.477h9.0826v-13.477z"/>
</g>
</g>
</svg>
