<?xml version="1.0" encoding="UTF-8"?>
<svg version="1.1" viewBox="0 0 168.9 34.837" xmlns="http://www.w3.org/2000/svg" xmlns:cc="http://creativecommons.org/ns#" xmlns:dc="http://purl.org/dc/elements/1.1/" xmlns:rdf="http://www.w3.org/1999/02/22-rdf-syntax-ns#">
<metadata>
<rdf:RDF>
<cc:Work rdf:about="">
<dc:format>image/svg+xml</dc:format>
<dc:type rdf:resource="http://purl.org/dc/dcmitype/StillImage"/>
<dc:title/>
</cc:Work>
</rdf:RDF>
</metadata>
<g transform="translate(-2,-8)" fill-rule="evenodd">
<path d="m13.776 37.945-11.58-0.013 0.013-11.58 11.58 0.013z"/>
<path d="m41.776 38.418h-5.178v-18.04h18.628v18.04h-5.175v-14.538h-8.275zm15.958-13.443v17.862h4.766v-6.112c1.597 1.707 4.2 1.837 4.83 1.837 4.546 0 7.335-2.857 7.335-7.016 0-4.327-2.758-7.061-7.243-7.061-1.128 0-3.325 0.18-5.139 2.06h-0.099l0.035-1.57h-4.485zm4.55 6.523c0-3.66 2.285-4.377 3.725-4.377 1.413 0 3.702 0.717 3.702 4.377 0 2.267-0.969 4.434-3.702 4.434-2.789 0-3.726-2.167-3.726-4.434zm24.203 5c-1.756 1.628-3.451 2.064-5.33 2.064-5.141 0-5.334-3.815-5.334-5.386v-8.201h4.768v7.582c0 2.601 0.913 3.376 2.667 3.376 3.012 0 3.229-2.658 3.229-3.613v-7.345h4.762v13.094h-4.762v-1.571zm11.598-3.941h2.917c2.257 0 2.73 0.664 2.73 1.542 0 0.57-0.314 1.34-2.666 1.34h-2.98v-2.882zm-4.762-7.582v13.095h9.465c3.452 0 5.834-0.67 5.834-3.343 0-2.068-1.162-2.972-3.796-3.433v-0.079c1.723-0.23 3.23-1.293 3.23-3.069 0-3.17-3.764-3.17-5.234-3.17h-9.499zm4.762 2.63h2.571c1.352 0 2.509 0.205 2.509 1.289 0 1.185-1.817 1.213-2.6 1.213h-2.48v-2.503zm16.56 1.599c0-1.934 2.062-2.083 2.912-2.083 0.535 0 2.512 0.025 2.57 1.726v0.357c-0.092 1.292-1.345 1.027-4.858 1.47-2.888 0.385-5.923 1.109-5.923 4.098 0 1.084 0.466 3.79 5.547 3.79 1.945 0 4.075-0.492 5.33-1.783h0.095l0.406 1.29h5.013v-0.227c-0.906-0.184-0.964-1.063-0.935-2.475l0.094-5.983c0.03-1.52-0.123-4.899-7.309-4.899-1.72 0-7.272 0.155-7.491 4.719h4.549zm5.517 3.454c0 2.63-2.32 3.275-3.486 3.275-0.87 0-2.441-0.285-2.441-1.524 0-1.469 1.786-1.75 2.791-1.877 1.849-0.262 1.694-0.187 3.136-0.701v0.827zm5.266-5.054v-2.63h15.302v2.63h-5.266v10.466h-4.77v-10.466z" fill="#74b027"/>
<path d="m2 38.12h11.941v-11.78h-11.941z" fill="#363636"/>
<path d="m26.219 14.226v17.668h-2.43c-1.054-8.736-6.619-14.224-15.477-15.265v-2.403h17.908zm-24.219-6.226v14.656h3.157c8.305 0 12.52 4.155 12.52 12.35v3.113h14.856v-30.119h-30.533z" fill="#74b027"/>
<text fill="#363636" font-family="Arial-BoldMT, Arial" font-size="27px" font-weight="bold"><tspan x="141" y="38">24</tspan></text>
</g>
</svg>
