<?xml version="1.0" encoding="UTF-8"?>
<svg viewBox="0 0 272 82" xmlns="http://www.w3.org/2000/svg">
<g fill="none" fill-rule="evenodd">
<g fill-rule="nonzero">
<path d="m40.973 3.2592c5.0964 0 10.039 0.99744 14.69 2.9646 4.4938 1.9007 8.5303 4.6224 11.997 8.0895 3.4671 3.4671 6.1889 7.5036 8.0895 11.997 1.9671 4.6508 2.9646 9.5931 2.9646 14.69 0 5.0964-0.99744 10.039-2.9646 14.689-1.9007 4.4937-4.6224 8.5303-8.0895 11.997-3.4671 3.4671-7.5036 6.1888-11.997 8.0895-4.6508 1.9671-9.593 2.9646-14.69 2.9646-5.0964 0-10.039-0.99744-14.689-2.9646-4.4937-1.9007-8.5303-4.6224-11.997-8.0895s-6.1888-7.5036-8.0895-11.997c-1.9671-4.6508-2.9646-9.593-2.9646-14.689 0-5.0964 0.99744-10.039 2.9646-14.69 1.9007-4.4937 4.6224-8.5303 8.0895-11.997s7.5036-6.1888 11.997-8.0895c4.6507-1.9671 9.593-2.9646 14.689-2.9646zm0-3.2188c-22.621 0-40.96 18.338-40.96 40.96 0 22.621 18.338 40.96 40.96 40.96s40.96-18.338 40.96-40.96-18.338-40.96-40.96-40.96z" fill="#71B03E"/>
<g transform="translate(19.957 26.716)" fill="#424242">
<path d="m18.526 28.465h-18.507c0.36051-6.5297 3.5252-8.8531 8.4525-11.938 3.0445-1.9229 6.77-4.0059 6.77-8.132 0-3.1647-2.2433-5.3679-5.4881-5.3679-4.2463 0-5.7097 3.6053-5.7898 7.1305h-3.149l-0.034442-0.7611c0-5.6083 3.6453-9.3338 9.1335-9.3338 5.3678 0 8.853 3.2448 8.853 8.2521 0 5.5281-4.3264 8.1722-8.4925 10.696-2.6039 1.5623-5.5683 3.0931-6.3294 6.2979h14.582v3.156h-8.04e-5zm23.393-6.8709h-3.8806l0.0014485 6.8709h-3.1698l-0.0014485-6.8709h-12.458l0.0014485-3.4626 12.528-18.069h3.1006v18.389h3.8806l-0.0014484 3.1421zm-7.049-16.619-9.0826 13.477h9.0826v-13.477z"/>
</g>
</g>
<path d="m100.04 28.154h21.684v27.846h-3.705v-24.726h-14.274v24.726h-3.705v-27.846zm27.339 7.683h3.315v2.73h0.078c0.546-1.118 1.404-1.9305 2.574-2.4375s2.457-0.7605 3.861-0.7605c1.56 0 2.9185 0.286 4.0755 0.858s2.119 1.3455 2.886 2.3205 1.3455 2.0995 1.7355 3.3735 0.585 2.626 0.585 4.056c0 1.456-0.1885 2.8145-0.5655 4.0755s-0.949 2.366-1.716 3.315-1.729 1.6965-2.886 2.2425-2.5025 0.819-4.0365 0.819c-0.52 0-1.079-0.052-1.677-0.156s-1.196-0.273-1.794-0.507-1.1635-0.5525-1.6965-0.9555-0.9815-0.9035-1.3455-1.5015h-0.078v10.374h-3.315v-27.846zm9.555 17.706c1.118 0 2.067-0.221 2.847-0.663s1.404-1.027 1.872-1.755 0.806-1.56 1.014-2.496 0.312-1.898 0.312-2.886c0-0.936-0.1235-1.8525-0.3705-2.7495s-0.624-1.6965-1.131-2.3985-1.157-1.261-1.95-1.677-1.7225-0.624-2.7885-0.624c-1.118 0-2.067 0.221-2.847 0.663s-1.417 1.0205-1.911 1.7355-0.8515 1.5275-1.0725 2.4375-0.3315 1.833-0.3315 2.769c0 0.988 0.117 1.9435 0.351 2.8665s0.6045 1.7355 1.1115 2.4375 1.1635 1.2675 1.9695 1.6965 1.781 0.6435 2.925 0.6435zm13.455-17.706h3.315v16.458l9.516-16.458h4.251v20.163h-3.315v-16.458l-9.516 16.458h-4.251v-20.163zm22.074 0h9.321c0.884 0 1.7355 0.064999 2.5545 0.195s1.5535 0.3705 2.2035 0.7215 1.17 0.8515 1.56 1.5015 0.585 1.482 0.585 2.496c0 1.092-0.26 1.976-0.78 2.652s-1.248 1.235-2.184 1.677v0.039c1.17 0.234 2.0995 0.78 2.7885 1.638s1.0335 1.963 1.0335 3.315c0 0.858-0.1495 1.651-0.4485 2.379s-0.7215 1.352-1.2675 1.872-1.196 0.9295-1.95 1.2285-1.573 0.4485-2.457 0.4485h-10.959v-20.163zm10.335 17.355c1.092 0 1.9175-0.3185 2.4765-0.9555s0.8385-1.4365 0.8385-2.3985c0-0.91-0.299-1.638-0.897-2.184s-1.599-0.819-3.003-0.819h-6.474v6.357h7.059zm-1.365-9.087c1.43 0 2.4245-0.26 2.9835-0.78s0.8385-1.209 0.8385-2.067c0-0.832-0.273-1.4755-0.819-1.9305s-1.547-0.6825-3.003-0.6825h-5.694v5.46h5.694zm17.667 12.324c-0.91 0-1.768-0.097499-2.574-0.2925s-1.5145-0.52-2.1255-0.975-1.092-1.04-1.443-1.755-0.5265-1.5795-0.5265-2.5935c0-1.144 0.195-2.08 0.585-2.808s0.9035-1.3195 1.5405-1.7745 1.365-0.7995 2.184-1.0335 1.6575-0.429 2.5155-0.585c0.91-0.182 1.7745-0.3185 2.5935-0.4095s1.5405-0.221 2.1645-0.39 1.118-0.416 1.482-0.741 0.546-0.7995 0.546-1.4235c0-0.728-0.1365-1.313-0.4095-1.755s-0.624-0.78-1.053-1.014-0.91-0.39-1.443-0.468-1.0595-0.117-1.5795-0.117c-1.404 0-2.574 0.2665-3.51 0.7995s-1.443 1.5405-1.521 3.0225h-3.315c0.052-1.248 0.312-2.301 0.78-3.159s1.092-1.5535 1.872-2.0865 1.6705-0.9165 2.6715-1.1505 2.0735-0.351 3.2175-0.351c0.91 0 1.8135 0.064999 2.7105 0.195s1.7095 0.3965 2.4375 0.7995 1.313 0.9685 1.755 1.6965 0.663 1.677 0.663 2.847v10.374c0 0.78 0.0455 1.352 0.1365 1.716s0.3965 0.546 0.9165 0.546c0.234 0 0.572-0.064999 1.014-0.195v2.574c-0.572 0.338-1.365 0.507-2.379 0.507-0.858 0-1.5405-0.2405-2.0475-0.7215s-0.7605-1.2675-0.7605-2.3595c-0.91 1.092-1.9695 1.8785-3.1785 2.3595s-2.5155 0.7215-3.9195 0.7215zm0.741-2.886c1.092 0 2.028-0.1495 2.808-0.4485s1.417-0.676 1.911-1.131 0.858-0.949 1.092-1.482 0.351-1.0335 0.351-1.5015v-3.393c-0.416 0.338-0.962 0.572-1.638 0.702s-1.3845 0.247-2.1255 0.351-1.4885 0.208-2.2425 0.312-1.43 0.286-2.028 0.546-1.0855 0.6305-1.4625 1.1115-0.5655 1.1375-0.5655 1.9695c0 0.546 0.1105 1.0075 0.3315 1.3845s0.507 0.6825 0.858 0.9165 0.7605 0.403 1.2285 0.507 0.962 0.156 1.482 0.156zm19.5-14.781h-7.215v-2.925h17.745v2.925h-7.215v17.238h-3.315v-17.238zm12.402-0.624h3.315c-0.026-0.832 0.058499-1.6575 0.2535-2.4765s0.5135-1.5535 0.9555-2.2035 1.0075-1.1765 1.6965-1.5795 1.5145-0.6045 2.4765-0.6045c0.728 0 1.417 0.117 2.067 0.351s1.2155 0.572 1.6965 1.014 0.8645 0.9685 1.1505 1.5795 0.429 1.2935 0.429 2.0475c0 0.962-0.1495 1.807-0.4485 2.535s-0.741 1.404-1.326 2.028-1.3195 1.2415-2.2035 1.8525-1.911 1.2805-3.081 2.0085c-0.962 0.572-1.885 1.183-2.769 1.833s-1.677 1.404-2.379 2.262-1.2805 1.8655-1.7355 3.0225-0.7475 2.5545-0.8775 4.1925h18.057v-2.925h-14.196c0.156-0.858 0.4875-1.6185 0.9945-2.2815s1.118-1.2805 1.833-1.8525 1.5015-1.1115 2.3595-1.6185 1.716-1.0205 2.574-1.5405c0.858-0.546 1.69-1.118 2.496-1.716s1.521-1.2675 2.145-2.0085 1.1245-1.5795 1.5015-2.5155 0.5655-2.015 0.5655-3.237c0-1.3-0.2275-2.444-0.6825-3.432s-1.0725-1.8135-1.8525-2.4765-1.6965-1.17-2.7495-1.521-2.1775-0.5265-3.3735-0.5265c-1.456 0-2.756 0.247-3.9 0.741s-2.0995 1.1765-2.8665 2.0475-1.3325 1.9045-1.6965 3.1005-0.507 2.496-0.429 3.9zm33.189 8.463v-13.533h-0.078l-9.204 13.533h9.282zm3.12 0h3.744v2.925h-3.744v6.474h-3.12v-6.474h-12.129v-3.198l12.597-17.979h2.652v18.252z" fill="#424242"/>
</g>
</svg>
