<svg xmlns="http://www.w3.org/2000/svg" viewBox="0 0 1315.58 1089"><defs><style>.cls-1{fill:#00af7e;}.cls-2{fill:#141a23;}</style></defs><g id="Слой_2" data-name="Слой 2"><g id="Layer_1" data-name="Layer 1"><polygon class="cls-1" points="1200.52 264.43 1112.25 499.41 917.9 499.41 827.67 264.43 1200.52 264.43"/><polygon class="cls-2" points="511.95 499.41 467.81 616.9 237.42 616.9 282.54 499.41 511.95 499.41"/><polygon class="cls-2" points="379.53 851.88 291.22 1086.94 56.89 1086.94 147.17 851.88 379.53 851.88"/><polygon class="cls-2" points="1143.41 1086.94 909.19 1086.83 688.49 499.41 600.22 264.43 372.77 264.43 474.3 0 726.1 0 827.67 264.43 917.9 499.41 1143.41 1086.94"/><polygon class="cls-1" points="600.22 264.43 511.95 499.41 88.27 499.41 0 264.43 600.22 264.43"/><polygon class="cls-1" points="820.89 851.88 88.27 851.88 0 616.9 732.62 616.9 820.89 851.88"/><polygon class="cls-1" points="1200.52 616.9 1112.25 851.88 1053.25 851.88 963.02 616.9 1200.52 616.9"/><path class="cls-2" d="M1257.93,1089c-16.28,0-29.87-5.53-41.08-16.58-11-11.2-16.58-24.79-16.58-40.93s5.53-29.72,16.58-40.77c11.21-11.2,24.8-16.73,41.08-16.73s29.87,5.53,40.92,16.73c11.21,11,16.73,24.64,16.73,40.77s-5.52,29.73-16.73,40.93C1287.8,1083.47,1274.21,1089,1257.93,1089Zm34.65-22.41c9.41-9.55,14-21.2,14-35.1s-4.63-25.54-14-35-20.91-14.34-34.65-14.34-25.24,4.78-34.65,14.34-14,21.06-14,35,4.63,25.55,14,35.1a47.33,47.33,0,0,0,34.65,14.19C1271.67,1080.78,1283.17,1076,1292.58,1066.59Zm-28.21-32.93h-17.61v25.89h-9.87v-59h23.21q22.15,0,22.15,15.21,0,11.2-10.94,14.14,9.35,2.13,9.34,12.27V1047c0,2.13.31,3.56.93,4.27s2.09,1.06,4.41,1.06h1.06v7.21h-6.13q-10.15,0-10.14-8.54V1039.8Q1270.78,1033.67,1264.37,1033.66Zm-4.53-25.35h-13.08V1027h13.88q11.2,0,11.2-9.87Q1271.84,1008.32,1259.84,1008.31Z"/></g></g></svg>