<svg xmlns="http://www.w3.org/2000/svg" viewBox="0 0 5573.77 1096.65"><defs><style>.cls-1{fill:#00af7e;}.cls-2{fill:#141a23;}</style></defs><g id="Слой_2" data-name="Слой 2"><g id="Слой_1-2" data-name="Слой 1"><polygon class="cls-1" points="1200.52 264.43 1112.25 499.41 915.94 499.41 827.67 264.43 1200.52 264.43"/><polygon class="cls-2" points="147.17 851.88 379.53 851.88 291.22 1086.94 56.89 1086.94 147.17 851.88"/><polygon class="cls-2" points="282.54 499.41 511.95 499.41 467.81 616.9 237.42 616.9 282.54 499.41"/><polygon class="cls-2" points="1143.41 1086.94 909.19 1086.83 688.49 499.41 600.22 264.43 372.77 264.43 474.29 0 726.1 0 827.67 264.43 917.9 499.41 1143.41 1086.94"/><polygon class="cls-1" points="600.22 264.43 511.95 499.41 88.27 499.41 0 264.43 600.22 264.43"/><polygon class="cls-1" points="732.62 616.9 820.89 851.88 88.27 851.88 0 616.9 732.62 616.9"/><polygon class="cls-1" points="1200.52 616.9 1112.25 851.88 1053.25 851.88 963.02 616.9 1200.52 616.9"/><path class="cls-2" d="M1257.93,1089c-16.28,0-29.88-5.53-41.08-16.58-11-11.21-16.58-24.8-16.58-40.93s5.53-29.72,16.58-40.78c11.2-11.2,24.8-16.72,41.08-16.72s29.87,5.52,40.92,16.72c11.2,11.06,16.73,24.65,16.73,40.78s-5.53,29.72-16.73,40.93C1287.8,1083.47,1274.21,1089,1257.93,1089Zm34.65-22.41c9.41-9.56,14-21.21,14-35.1s-4.63-25.54-14-35-20.91-14.34-34.65-14.34-25.25,4.78-34.66,14.34-14,21.06-14,35,4.63,25.54,14,35.1a47.34,47.34,0,0,0,34.66,14.19C1271.67,1080.78,1283.17,1076,1292.58,1066.59Zm-28.21-32.93h-17.61v25.88h-9.87v-59h23.21q22.15,0,22.15,15.21,0,11.21-10.94,14.14,9.33,2.14,9.34,12.28v4.8c0,2.14.31,3.56.93,4.27s2.09,1.07,4.41,1.07h1.06v7.2h-6.13q-10.15,0-10.14-8.53V1039.8Q1270.78,1033.67,1264.37,1033.66Zm-4.53-25.35h-13.08V1027h13.87q11.22,0,11.21-9.87Q1271.84,1008.32,1259.84,1008.31Z"/><path class="cls-2" d="M1614.61,1085.07H1462.17l304.89-822.54h166.7l315.85,822.54h-166.7l-72.38-191.93H1682.61Zm115.16-323.53h231.4L1842.73,445.69Z"/><path class="cls-2" d="M2649.12,1085.07V926c-20.83,106.39-77.86,170-186.44,170C2350.82,1096,2239,1006.1,2239,807.6c0-191.92,111.87-281.86,223.73-281.86,108.58,0,165.61,62.52,186.44,167.8v-431h142.57v822.54Zm-123.93-88.84c71.29,0,119.55-65.8,119.55-188.63,0-118.45-48.26-184.25-119.55-184.25s-128.31,65.8-128.31,184.25C2396.88,930.43,2453.91,996.23,2525.19,996.23Z"/><path class="cls-2" d="M3180.05,1085.07h-98.71L2845.55,536.71h156.83l140.38,357.53,142.57-357.53h138.19Z"/><path class="cls-2" d="M3698.73,525.74c114.06,0,220.44,72.39,246.76,186.45L3815,760.44c-18.65-100.9-64.71-142.57-125-142.57-73.48,0-121.73,68-121.73,191.92,0,132.7,58.13,191.93,122.83,191.93,66.9,0,102-51.55,123.93-153.54l130.51,48.25C3924.65,1018.17,3815,1096,3698.73,1096c-159,0-289.53-117.34-289.53-286.24C3409.2,643.09,3539.7,525.74,3698.73,525.74Z"/><path class="cls-2" d="M4706.41,683.67c0,29.61,27.42,45,115.16,63.61,140.38,29.61,187.54,80.06,187.54,171.09,0,95.41-60.32,177.66-212.77,177.66-114.06,0-193-42.77-233.6-129.41l97.61-54.83c27.42,52.64,77.87,75.67,139.28,75.67,58.13,0,81.16-18.64,81.16-48.26,0-31.8-27.42-50.44-115.15-69.09-127.22-26.32-187.54-74.57-187.54-176.57,0-109.67,89.93-167.8,200.7-167.8,92.12,0,178.76,34,219.34,129.42l-97.61,49.35c-27.42-52.64-68-72.38-116.25-72.38C4732.73,632.13,4706.41,653,4706.41,683.67Z"/><path class="cls-2" d="M5222.82,1085.07H5080.25V262.53h142.57v454c20.84-121.73,77.87-190.83,186.44-190.83,85.55,0,164.51,58.13,164.51,172.19v387.14H5431.2V751.67c0-25.23-7.68-48.26-21.94-71.29s-37.28-34-69.09-34c-87.74,0-117.35,88.84-117.35,131.61Z"/><path class="cls-2" d="M4135.75,744.18l-130.67-48.31q9.89-43.89,34.05-76.3a206.89,206.89,0,0,1,58.18-53.25q34-20.85,76.86-30.75a399.26,399.26,0,0,1,90.05-9.89q124.05,0,177.86,39.54t53.81,130.65v269h0v120.78H4352.64l.52-86.74V973.67l-45.76,56.09a172.78,172.78,0,0,1-83.46,56.49c-1.22.37-2.44.73-3.66,1.07q-33,9.32-62.58,9.33-71.39,0-114.75-39t-43.36-107.05q0-61.5,26.89-91.69t74.13-46.67q47.21-16.46,112-29.64T4353.16,742V718.93q0-43.92-22-64.78t-72.47-20.86q-61.5,0-84,25.82T4135.75,744.18Zm19.77,181.18q0,30.75,18.65,49.42t52.71,18.65q14.27,0,33.48-6.57a126,126,0,0,0,36.78-20.32q17.58-13.72,32.95-34.59t23.07-49.41V794.81c-78.35,24.16-130.86,35.76-157.58,54.8S4155.52,893.89,4155.52,925.36Z"/></g></g></svg>