<svg xmlns="http://www.w3.org/2000/svg" height="43.671" width="60.033" xmlns:v="https://vecta.io/nano"><path d="M35.164 5.883v-.77a4.85 4.85 0 0 0-1.516-3.6A4.865 4.865 0 0 0 30.044.001a4.932 4.932 0 0 0-3.661 1.513 4.85 4.85 0 0 0-1.516 3.6v.6a4.939 4.939 0 0 0 1.516 3.055 4.932 4.932 0 0 0 3.661 1.513 4.865 4.865 0 0 0 3.6-1.513 5.259 5.259 0 0 0 1.52-2.886zM.414 14.22q.04.08.086.17l14.386 26.013a8.363 8.363 0 0 0 .543.8q.343.486.6.8a3.808 3.808 0 0 0 3.695 1.627h-.376q.372-.285.944-.8a.082.082 0 0 1-.029-.057 8.464 8.464 0 0 0 .829-.828 12.862 12.862 0 0 0 1.258-2.227l3.09-6.7-10.267-18.532h1.23a1.724 1.724 0 0 1 1.888.457l8.434 15.134 1.23-2.57-7.293-13.02h1.916a2 2 0 0 1 1.687 1.513l4.833 8.994.086-.228.944-1.97-4.6-9.137a3.113 3.113 0 0 0-2.946-1.57l-20.737-.058q-2.718.277-1.43 2.2m59.145.228q1.373-2.027-1.23-2.313H37.852a2.469 2.469 0 0 0-2.059 1.57l-5.234 11.05v.03L23.724 39.72a12.862 12.862 0 0 1-1.259 2.222q-.2.228-.372.428-.23.228-.43.457-.572.514-.944.8h22.852a4.009 4.009 0 0 0 1.287-.257 4.374 4.374 0 0 0 1.115-.742 4.178 4.178 0 0 0 .772-.857 5.253 5.253 0 0 1 .257-.542z" fill="#ffcd00"/></svg>