<svg xmlns="http://www.w3.org/2000/svg" style="width: 12.9375rem; height: 2.75rem;" viewBox="0 0 207 44" class="r-logo"><path class="r-logo__icon" fill="#ffcd00" d="M35.14,6.042V5.271a4.85,4.85,0,0,0-1.516-3.6A4.865,4.865,0,0,0,30.02.16a4.932,4.932,0,0,0-3.661,1.513,4.85,4.85,0,0,0-1.516,3.6v0.6a4.939,4.939,0,0,0,1.516,3.055,4.932,4.932,0,0,0,3.661,1.513,4.865,4.865,0,0,0,3.6-1.513A5.259,5.259,0,0,0,35.14,6.042ZM0.39,14.379q0.039,0.08.086,0.171L14.862,40.563a8.363,8.363,0,0,0,.543.8q0.343,0.486.6,0.8A3.808,3.808,0,0,0,19.7,43.79H19.324q0.372-.285.944-0.8a0.082,0.082,0,0,1-.029-0.057,8.464,8.464,0,0,0,.829-0.828,12.862,12.862,0,0,0,1.258-2.227l3.089-6.71L15.148,14.636h1.23a1.724,1.724,0,0,1,1.888.457L26.7,30.227l1.23-2.57-7.293-13.02h1.916a2,2,0,0,1,1.687,1.513l4.833,8.994,0.086-.228,0.944-1.97-4.6-9.137a3.113,3.113,0,0,0-2.946-1.57L1.82,12.181q-2.718.277-1.43,2.2m59.145,0.228q1.373-2.027-1.23-2.313H37.828a2.469,2.469,0,0,0-2.059,1.57l-5.234,11.05v0.029L23.7,39.878A12.862,12.862,0,0,1,22.441,42.1q-0.2.228-.372,0.428-0.229.228-.429,0.457-0.572.514-.944,0.8H43.548a4.009,4.009,0,0,0,1.287-.257,4.374,4.374,0,0,0,1.115-.742,4.178,4.178,0,0,0,.772-0.857,5.253,5.253,0,0,1,.257-0.542Z"></path><path class="r-logo__text" fill="#4e5f65" d="M113.205,33.99l-2.912-10.132h-5.174l3.986,12.913h3.421l-0.367,1.277a8,8,0,0,1-.566,1.5,1.2,1.2,0,0,1-.707.568,4.668,4.668,0,0,1-1.159.114q-1.554-.028-2.431-0.114a5.584,5.584,0,0,1-.905-0.113v2.384a2.9,2.9,0,0,0,.622.17q0.622,0.113,1.781.284a22.5,22.5,0,0,0,2.743.142,6.727,6.727,0,0,0,2.12-.255,3.342,3.342,0,0,0,1.668-1.249,9.825,9.825,0,0,0,1.357-2.98l4.552-14.644h-5.117L113.205,33.99m-9.867-7.18a3.721,3.721,0,0,0-1.075-2.1A4.329,4.329,0,0,0,100,23.745a22.494,22.494,0,0,0-3.9-.227,22.725,22.725,0,0,0-3.93.227,4.328,4.328,0,0,0-2.262.965,3.719,3.719,0,0,0-1.074,2.1,20.723,20.723,0,0,0-.255,3.6,20.092,20.092,0,0,0,.2,3.491,3.581,3.581,0,0,0,.961,2.043A4.336,4.336,0,0,0,92,36.885a29.2,29.2,0,0,0,4.1.227,28.576,28.576,0,0,0,4.071-.227,4.335,4.335,0,0,0,2.262-.937,3.583,3.583,0,0,0,.961-2.043,20.063,20.063,0,0,0,.2-3.491,20.789,20.789,0,0,0-.254-3.6m-5.909-.454a0.8,0.8,0,0,1,.65.426,2.742,2.742,0,0,1,.283,1.192q0.057,0.823.056,2.327v0.227q0,1.419-.056,2.214a2.578,2.578,0,0,1-.226,1.135,0.82,0.82,0,0,1-.65.4,6.137,6.137,0,0,1-1.272.057H95.987a6.136,6.136,0,0,1-1.272-.057,0.9,0.9,0,0,1-.679-0.4,2.8,2.8,0,0,1-.254-1.135q-0.057-.795-0.028-2.214V30.3a20.5,20.5,0,0,1,.056-2.327,2.74,2.74,0,0,1,.283-1.192,0.882,0.882,0,0,1,.679-0.426,6.863,6.863,0,0,1,1.216-.085h0.226a6.864,6.864,0,0,1,1.216.085m42.834,10.416h4.976V18.012h-4.976v18.76M130.4,23.518q-2.207,0-3.761.142t-2.4.255a5.108,5.108,0,0,0-.848.17v2.27l0.848-.085q0.849-.057,2.347-0.142,1.47-.057,3.421-0.028a5.8,5.8,0,0,1,1.47.142,0.959,0.959,0,0,1,.707.539,3.447,3.447,0,0,1,.2,1.362v0.71h-4.5a19.963,19.963,0,0,0-2.177.057,4.8,4.8,0,0,0-1.668.426,2.422,2.422,0,0,0-1.046,1.192,5.785,5.785,0,0,0-.367,2.3,4.708,4.708,0,0,0,.593,2.469,3.167,3.167,0,0,0,1.612,1.277,7.812,7.812,0,0,0,2.347.482q1.327,0.057,2.827.057,2.291,0,3.93-.142t2.516-.284q0.876-.142.905-0.142v-8.4a5.869,5.869,0,0,0-.453-2.526,2.967,2.967,0,0,0-1.328-1.391,6.191,6.191,0,0,0-2.177-.6,24.217,24.217,0,0,0-3-.113m-1.866,7.748a4.269,4.269,0,0,1,1.046-.057h2.8v3.235q-0.029,0-.622.057-0.623.057-1.668,0.057a6.745,6.745,0,0,1-1.329-.057,0.853,0.853,0,0,1-.735-0.454,2.446,2.446,0,0,1-.226-1.22,2.964,2.964,0,0,1,.169-1.164,0.705,0.705,0,0,1,.566-0.4M68.986,19.176v17.6h5.457V30.216h3.873l2.177,6.556h5.966l-2.94-6.982A3.028,3.028,0,0,0,85.243,28.2a8.123,8.123,0,0,0,.537-3.349,8.918,8.918,0,0,0-.452-3.15A3.492,3.492,0,0,0,84,20a5.4,5.4,0,0,0-2.12-.709,21.145,21.145,0,0,0-2.8-.114H68.986m10.942,4a5.408,5.408,0,0,1,.17,1.618,4.478,4.478,0,0,1-.17,1.447,0.814,0.814,0,0,1-.678.539,6.37,6.37,0,0,1-1.5.085H74.443V22.5h3.223a7.083,7.083,0,0,1,1.555.085,0.946,0.946,0,0,1,.707.6m90.926-3.15a5.129,5.129,0,0,0-2.12-.738,21.152,21.152,0,0,0-2.8-.114H155.84v17.6H161.3V30.613H166.1a25.559,25.559,0,0,0,2.912-.142,4.711,4.711,0,0,0,2.036-.709,2.894,2.894,0,0,0,1.188-1.646,9.475,9.475,0,0,0,.395-3.037,9.462,9.462,0,0,0-.452-3.264,3.473,3.473,0,0,0-1.329-1.788m-3.9,4.967a5.275,5.275,0,0,1-.17,1.589,0.876,0.876,0,0,1-.679.568,6.359,6.359,0,0,1-1.5.085H161.3V22.5h3.223a7.08,7.08,0,0,1,1.555.085,0.949,0.949,0,0,1,.707.653,6.469,6.469,0,0,1,.17,1.76m22.137,3.15a5.885,5.885,0,0,0-.452-2.526,2.974,2.974,0,0,0-1.329-1.391,6.185,6.185,0,0,0-2.177-.6,24.217,24.217,0,0,0-3-.113q-2.205,0-3.76.142t-2.4.255a5.108,5.108,0,0,0-.849.17v2.27l0.849-.085q0.847-.057,2.346-0.142,1.47-.057,3.421-0.028a5.8,5.8,0,0,1,1.47.142,0.958,0.958,0,0,1,.707.539,3.447,3.447,0,0,1,.2,1.362v0.71h-4.5a19.956,19.956,0,0,0-2.177.057,4.8,4.8,0,0,0-1.668.426,2.418,2.418,0,0,0-1.046,1.192,5.783,5.783,0,0,0-.368,2.3,4.717,4.717,0,0,0,.594,2.469,3.169,3.169,0,0,0,1.611,1.277,7.818,7.818,0,0,0,2.347.482q1.329,0.057,2.827.057,2.29,0,3.93-.142t2.517-.284q0.876-.142.9-0.142v-8.4m-8.821,3.122a4.272,4.272,0,0,1,1.046-.057h2.8v3.235q-0.029,0-.622.057-0.621.057-1.668,0.057a6.754,6.754,0,0,1-1.329-.057,0.853,0.853,0,0,1-.735-0.454,2.446,2.446,0,0,1-.226-1.22,2.961,2.961,0,0,1,.17-1.164,0.7,0.7,0,0,1,.565-0.4m15.805-7.407H190.9l3.986,12.913h3.421l-0.367,1.277a8,8,0,0,1-.566,1.5,1.2,1.2,0,0,1-.707.568,4.668,4.668,0,0,1-1.159.114q-1.554-.028-2.431-0.114a5.584,5.584,0,0,1-.905-0.113v2.384a2.9,2.9,0,0,0,.622.17q0.623,0.113,1.781.284a22.5,22.5,0,0,0,2.743.142,6.727,6.727,0,0,0,2.12-.255,3.342,3.342,0,0,0,1.668-1.249,9.825,9.825,0,0,0,1.357-2.98l4.552-14.644H201.9L198.985,33.99Z"></path></svg>