<?xml version="1.0" encoding="UTF-8"?>
<svg width="118.75" height="182.92" version="1.1" viewBox="0 0 118.74533 182.924" xml:space="preserve" xmlns="http://www.w3.org/2000/svg" xmlns:cc="http://creativecommons.org/ns#" xmlns:dc="http://purl.org/dc/elements/1.1/" xmlns:rdf="http://www.w3.org/1999/02/22-rdf-syntax-ns#"><metadata><rdf:RDF><cc:Work rdf:about=""><dc:format>image/svg+xml</dc:format><dc:type rdf:resource="http://purl.org/dc/dcmitype/StillImage"/><dc:title/></cc:Work></rdf:RDF></metadata><g transform="matrix(1.3333 0 0 -1.3333 -361.25 182.92)"><path d="m297.9 4.6988c-3.592-2.141-6.855-3.4188-10.275-3.4188-8.86 0-16.262 7.2559-16.689 15.978l17.258 10.284 26.831-11.997-17.125-10.846" fill="#7caed6"/><path d="m308.17 48.877-12.817 5.646c-5.729 2.5618-11.137 4.6922-11.137 10.998 0 3.2644 0.993 4.9777 2.558 6.6828l27.117-11.952-6.724-3.8801c-1.851-1.1379-3.133-2.1344-3.133-3.5602-2e-3 -1.5453 1.758-2.8574 4.136-3.9347" fill="#9fd792"/><path d="m320.76 108.04-13.145-7.975c-1.165-0.7046-2.726-1.8429-2.726-3.5925 0-1.9886 3.034-3.5136 5.729-4.7976l-16.444 7.2562c-4.846 2.1329-9.678 4.5539-9.678 10.395 0 2.455 0.711 4.441 1.849 6.147l35.549 21.723c4.261-2.416 8.394-7.3 8.394-13.854 0-7.011-3.552-11.707-9.528-15.302" fill="#7caed6"/><path d="m348.72 82.346-3.265-1.8473-27.155 11.987 31.566 19.002c4.261-2.458 8.435-7.295 8.435-13.842 0-7.0129-3.455-11.847-9.581-15.3" fill="#9fd792"/><path d="m325.79 59.292 16.064-7.0555c6.018-2.6976 7.867-5.8609 7.867-9.8586 0-2.2722-1.281-4.5523-3.126-6.1179l-27.012 11.997 4.571 2.5621c3.864 2.1364 5.148 3.4184 5.148 4.8418-2e-3 1.4746-0.903 2.4485-3.512 3.6313" fill="#7caed6"/><path d="m354.42 0c-6.833 5.266-14.124 8.8238-22.986 12.846l-40.96 18.121c-10.292 4.5887-17.116 10.7-17.116 20.988 0 10 4.844 14.844 11.136 18.822l2.274 1.4257c-1.563-1.705-2.558-3.4183-2.558-6.6828 0-6.3043 5.407-8.4367 11.137-10.998l47.651-20.999c8.291-3.5598 15.875-9.6797 15.875-20.107 2e-3 -5.7289-2.179-10.855-4.453-13.415" fill="#35af3f"/><path d="m349.58 38.115-2.989-1.8574c1.844 1.566 3.126 3.8461 3.126 6.1227 0 3.9914-1.855 7.1566-7.867 9.8543l-50.955 22.426c-10.285 4.5485-16.691 10.422-16.691 20.666 0 9.4317 4.697 15.592 12.135 20.138-1.14-1.705-1.849-3.692-1.849-6.146 0-5.84 4.834-8.262 9.678-10.395l49.531-21.847c9.003-3.9895 16.296-10 16.296-20.996 2e-3 -8.5727-4.01-13.98-10.415-17.965" fill="#2f6fb1"/></g></svg>
