<?xml version="1.0" encoding="UTF-8"?>
<svg width="480" height="182.92" version="1.1" viewBox="0 0 480 182.924" xml:space="preserve" xmlns="http://www.w3.org/2000/svg" xmlns:cc="http://creativecommons.org/ns#" xmlns:dc="http://purl.org/dc/elements/1.1/" xmlns:rdf="http://www.w3.org/1999/02/22-rdf-syntax-ns#"><metadata><rdf:RDF><cc:Work rdf:about=""><dc:format>image/svg+xml</dc:format><dc:type rdf:resource="http://purl.org/dc/dcmitype/StillImage"/><dc:title/></cc:Work></rdf:RDF></metadata><g transform="matrix(1.3333 0 0 -1.3333 0 182.92)"><g transform="scale(.1)"><path d="m705.84 776.11h-37.485c-25.05 0-35.441 16-35.441 39.11v165.43h72.926v46.698h-72.926v88h-52.551v-299.38c0-63.102 31.653-90.059 87.91-90.059h37.547v50.203" fill="#2f6fb1"/><path d="m200.3 868.36v-2.125c0-107.17 87.547-145.57 169.5-145.57 80.074 0 160.68 38.355 160.68 123.13 0 82.383-67.679 104.66-131.13 119.1l-22.156 4.82c-56.926 12.433-106.18 22.902-106.18 65.245 0 60.33 62.032 67.22 88.622 67.22 58.605 0 92.668-28.25 98.359-81.05l0.203-1.94h55.324l-0.039 2.26c-3.156 83-58.426 130.39-151.56 130.39-74.243 0-149.22-37.25-149.22-120.85 0-74.521 62.312-94.267 131.73-109.44l13.672-3.016c58.648-12.457 114.02-24.301 114.02-74.426 0-62.172-62.985-71.406-100.63-71.406-31.715 0-60.352 8.082-80.703 22.785-22.922 16.625-35.012 41.696-35.012 72.762v2.129h-55.492" fill="#2f6fb1"/><path d="m851.77 770.69c-16.364 0-54.575 3.949-54.575 40.828 0 35.519 29.039 45.828 57.231 50.851 8.625 1.457 17.82 2.692 26.59 3.785 22.578 2.938 43.945 5.731 58.382 14.258 0 0 1.196 0.707 0 0v-45.687c-0.019-24.789-23.855-64.035-87.628-64.035zm170.23 3.746-2.93-1.075c-6.54-2.386-10.86-2.691-13.96-2.691-12.653 0-13.239 6.863-13.239 30.621v150.93c0 55.847-36.656 82.907-112.19 82.907-45.789 0-123.11-12.96-126.51-100.36l-0.039-2.27h52.406l0.145 2.067c1.941 36.472 24.644 53.726 71.183 53.726 42.934 0 63.102-14.766 63.102-46.82 0-26.633-27.016-30.418-64.215-35.664-10.652-1.5-21.445-3.059-32.891-5.266-51.132-9.801-101.13-25.051-101.13-92.469 0-52.754 37.179-84.59 99.293-84.59 41.738 0 75.656 14.766 101.62 42.774 2.043-34.633 23.894-42.774 42.547-42.774 15.102 0 26.492 2.958 35.802 8.571l1.05 0.644v41.739" fill="#2f6fb1"/><path d="m1068.5 1027.3v-297.71h52.65v167.82c0 56.055 31.58 89.836 84.63 89.836 35.32 0 57.4-22.074 57.4-56.968v-200.67h52.65v194.98c0 73.797-33.86 109.54-103.28 109.54-42.27 0-73.84-16.55-94.37-49.457v42.647h-49.68" fill="#2f6fb1"/><path d="m1509.3 769.68c-61.18 0-88.72 53.179-88.72 106.26 0 33.394 8.36 111.34 85.97 111.34 83.64 0 90.18-83.558 90.18-109.05 0.02-52.653-22.87-108.55-87.43-108.55zm85.73 369.52v-148.1c-22.24 31.445-62.48 43.035-93.59 43.035-82.86 0-136.27-60.636-136.27-154.82 0-43.238 12.26-82.097 34.23-109.68 24.38-30.621 60.08-47.168 103.16-47.168 43.03 0 76.33 15.879 92.47 42.972v-35.843h52.69v409.6h-52.69" fill="#2f6fb1"/><path d="m1810.7 769.68c-16.4 0-54.41 3.969-54.41 40.828 0 35.539 28.77 45.828 56.98 50.871 8.61 1.457 17.6 2.691 26.64 3.766 22.62 2.957 43.94 5.75 58.24 14.257 0 0 1.21 0.727 0 0v-45.668c0.02-24.789-23.64-64.054-87.45-64.054zm170.26 3.765-2.88-1.074c-6.6-2.387-10.94-2.711-13.99-2.711-12.9 0-13.43 6.844-13.43 30.617v150.92c0 55.892-36.66 82.952-111.93 82.952-46.01 0-123.23-12.96-126.65-100.37l-0.1-2.269h52.61l0.1 2.066c1.95 36.473 24.47 53.707 71.1 53.707 43 0 62.97-15.129 62.97-46.8 0-26.633-26.86-30.442-64.06-35.684-10.71-1.48-21.51-3.039-32.95-5.246-50.99-9.82-100.97-25.051-100.97-92.469 0-52.754 36.96-84.609 99.15-84.609 41.78 0 75.74 14.765 101.5 42.793 2.08-34.629 23.9-42.793 42.57-42.793 15.33 0 26.67 2.957 35.94 8.586l1.04 0.609v41.777" fill="#2f6fb1"/><path d="m2185.5 1034.1-2.1 0.04c-49.17 1.6-82.18-18.09-106.91-64.261v57.471h-49.61v-297.71h52.43v132.73c0 79.246 33.31 116.49 104.01 116.49h2.18v55.248" fill="#2f6fb1"/><path d="m2337 769.68c-61.36 0-88.74 53.179-88.74 106.26 0 33.394 8.35 111.34 85.97 111.34 83.52 0 90.04-83.558 90.04-109.05 0.02-52.653-22.91-108.55-87.27-108.55zm85.63 369.52v-148.1c-22.3 31.445-62.36 43.035-93.91 43.035-82.44 0-136.11-60.636-136.11-154.82 0-43.238 12.15-82.097 34.49-109.68 24.36-30.621 59.88-47.168 103-47.168 43.15 0 76.37 15.918 92.51 42.996v-35.867h52.79v409.6h-52.77" fill="#2f6fb1"/><path d="m308.93 315.8-0.18-1.981c-5.43-70.679-49.274-114.91-114.61-114.91-45.14 0-80.074 16.449-103.62 49.461-21.043 28.91-32.301 69.699-32.301 118.24 0 44.153 11.562 83.965 32.18 112.5 23.614 32.262 59.336 49.25 103.16 49.25 59.296 0 100.77-31.488 111.24-84.609l0.324-1.762h58.32l-0.402 2.469c-5.953 41.941-25.762 76.289-57.231 99.738-29.609 22.137-68.328 33.84-111.67 33.84-59.8 0-109.74-21.847-144.57-63.262-31.875-38.093-49.574-92.367-49.574-152.13 0-131.61 72.703-213.45 189.59-213.45 50.242 0 93.054 15.168 123.65 43.77 30.094 28.187 48.688 70.09 53.75 120.49l0.242 2.332h-58.304" fill="#2f6fb1"/><path d="m417.7 568.82v-410.29h52.613v168.13c0 56.399 31.774 89.871 84.61 89.871 35.523 0 57.472-21.726 57.472-56.703v-201.3h52.637v195.67c0 73.43-33.68 109.16-103.08 109.16-31.285 0-72.844-11.828-91.617-45.121v150.59h-52.633" fill="#2f6fb1"/><path d="m821.36 198.91c-16.507 0-54.621 3.949-54.621 41.149 0 35.519 28.86 45.472 57.274 50.429 8.566 1.543 17.578 2.692 26.265 3.813 22.864 2.91 44.25 5.75 58.504 14.289 0 0 1.176 0.691 0 0v-45.32c-0.019-24.79-23.691-64.36-87.422-64.36zm-46.214 162.13 0.039 2.109c1.965 36.415 24.465 53.383 71.082 53.383 43.117 0 63.023-14.781 63.023-46.531 0-26.941-26.812-30.789-64.156-35.988-10.488-1.481-21.305-3.043-32.688-5.25-51.191-9.821-101.2-25.051-101.2-92.141 0-53.043 37.184-84.609 99.293-84.609 41.578 0 75.742 14.437 101.46 42.468 2.023-34.609 24.059-42.468 42.711-42.468 15.023 0 26.344 2.629 35.641 8.238l1.074 0.609v41.719l-2.957-1.019c-6.582-2.43-10.895-2.668-13.953-2.668-12.516 0-13.082 6.808-13.082 30.929v150.93c0 55.547-36.778 82.563-112.36 82.563-45.808 0-123.09-13-126.51-100.02l-0.019-2.269h52.594" fill="#2f6fb1"/><path d="m2337 198.91c-61.36 0-88.74 53.512-88.74 106.2 0 33.371 8.35 111.42 85.97 111.42 83.52 0 90.04-83.621 90.04-109.11 0.02-52.332-22.91-108.51-87.27-108.51zm138.42-40.14v409.65h-52.79v-148.1c-22.3 31.489-62.36 43.035-93.91 43.035-82.44 0-136.11-60.613-136.11-154.8 0-42.891 12.15-82.063 34.49-109.7 24.36-30.582 59.88-46.84 103-46.84 43.15 0 76.37 15.609 92.51 42.687v-35.949h52.81" fill="#2f6fb1"/><path d="m1529.4 416.53c43.99 0 78.76-33.535 82.1-78.633h-163.55c3.83 39.711 30.22 78.633 81.45 78.633zm80.22-165.33c-8.97-33.82-34.49-52.289-72.83-52.289-27.11 0-49.86 8.449-65.39 24.59-15.77 16.68-24.16 40.5-23.71 67.578h219.44l0.18 2.102c2.11 52.922-14.17 103.18-43.52 133.7-23.41 24.219-54.07 36.472-91.49 36.472-81.17 0-140.12-64.968-140.12-154.8 3.14-99.61 55.31-156.52 142.95-156.52 67.1 0 113.23 36.047 127 99.168h-52.51" fill="#2f6fb1"/><path d="m2020.5 416.53c43.82 0 78.9-33.535 82.24-78.633h-163.9c3.89 39.711 30.6 78.633 81.66 78.633zm80.17-166.02c-9.11-33.391-34.91-51.602-72.8-51.602-27.12 0-49.64 8.449-65.19 24.59-16.2 16.68-24.49 40.5-24.06 67.578h219.61l0.14 2.102c2.08 52.922-14.14 103.18-43.5 133.7-23.23 24.219-54.24 36.472-91.48 36.472-81.39 0-140.04-64.968-140.04-154.8 3.04-99.61 55.11-156.52 142.9-156.52 67.01 0 112.88 35.778 126.79 98.481h-52.37" fill="#2f6fb1"/><path d="m1090.3 158.55v133.03c0 79.57 33.11 116.47 104.03 116.47h2.19v55.246l-2.11 0.039c-49.35 1.602-82.54-18.062-106.9-63.852v57.473h-49.78v-298.38h52.57" fill="#2f6fb1"/><path d="m1771.7 158.77v132.83c0 79.57 32.91 116.46 103.99 116.46h2.17v55.247l-2.09 0.042c-49.53 1.598-82.54-18.066-106.93-63.855v57.313h-49.73v-298.02h52.59" fill="#2f6fb1"/><path d="m1365.7 205.33h-37.34c-25.22 0-35.59 16-35.59 39.453v165.09h72.93v46.68h-72.93v87.949h-52.59v-298.99c0-63.453 31.82-90.422 88.12-90.422h37.4v50.238" fill="#2f6fb1"/><path d="m2979 46.988c-35.92-21.41-68.55-34.188-102.75-34.188-88.6 0-162.62 72.559-166.89 159.78l172.58 102.84 268.31-119.97-171.25-108.46" fill="#7caed6"/><path d="m3081.7 488.77-128.17 56.46c-57.29 25.618-111.37 46.922-111.37 109.98 0 32.644 9.93 49.777 25.58 66.828l271.17-119.52-67.24-38.801c-18.51-11.379-31.33-21.344-31.33-35.602-0.02-15.453 17.58-28.574 41.36-39.347" fill="#9fd792"/><path d="m3207.6 1080.4-131.45-79.75c-11.65-7.046-27.26-18.429-27.26-35.925 0-19.886 30.34-35.136 57.29-47.976l-164.44 72.562c-48.46 21.329-96.78 45.539-96.78 103.95 0 24.55 7.11 44.41 18.49 61.47l355.49 217.23c42.61-24.16 83.94-73 83.94-138.54 0-70.11-35.52-117.07-95.28-153.02" fill="#7caed6"/><path d="m3487.2 823.46-32.65-18.473-271.55 119.87 315.66 190.02c42.61-24.58 84.35-72.95 84.35-138.42 0-70.129-34.55-118.47-95.81-153" fill="#9fd792"/><path d="m3257.9 592.92 160.64-70.555c60.18-26.976 78.67-58.609 78.67-98.586 0-22.722-12.81-45.523-31.26-61.179l-270.12 119.97 45.71 25.621c38.64 21.364 51.48 34.184 51.48 48.418-0.02 14.746-9.03 24.485-35.12 36.313" fill="#7caed6"/><path d="m3544.2 0c-68.33 52.66-141.24 88.238-229.86 128.46l-409.6 181.21c-102.92 45.887-171.16 107-171.16 209.88 0 100 48.44 148.44 111.36 188.22l22.74 14.257c-15.63-17.05-25.58-34.183-25.58-66.828 0-63.043 54.07-84.367 111.37-109.98l476.51-209.99c82.91-35.598 158.75-96.797 158.75-201.07 0.02-57.289-21.79-108.55-44.53-134.15" fill="#35af3f"/><path d="m3495.8 381.15-29.89-18.574c18.44 15.66 31.26 38.461 31.26 61.227 0 39.914-18.55 71.566-78.67 98.543l-509.55 224.26c-102.85 45.485-166.91 104.22-166.91 206.66 0 94.317 46.97 155.92 121.35 201.38-11.4-17.05-18.49-36.92-18.49-61.46 0-58.4 48.34-82.62 96.78-103.95l495.31-218.47c90.03-39.895 162.96-100 162.96-209.96 0.02-85.727-40.1-139.8-104.15-179.65" fill="#2f6fb1"/></g></g></svg>
