<svg width="209" height="84" viewBox="0 0 209 84" fill="none" xmlns="http://www.w3.org/2000/svg">
<path d="M20.5799 28.0364H20.2272C9.07498 28.0364 0 18.9198 0 7.70972V0H36.4266C51.8932 0 65.558 10.7504 68.9136 25.5661C69.5528 28.3908 69.8173 31.21 69.7181 33.9793C66.7923 28.5293 62.522 23.8879 57.3481 20.4762C57.3481 20.4762 57.3371 20.4706 57.3371 20.4651C56.9294 20.1494 56.5216 19.8503 56.1029 19.5512C54.775 17.6903 53.1605 16.0065 51.3037 14.5665C47.0279 11.2489 41.7383 9.42669 36.4266 9.42669H9.52129C10.3423 14.6219 14.8329 18.6041 20.2272 18.6041H20.5799V28.0364Z" fill="#7EE16B"/>
<path d="M19.1358 83.9999H-0.000488281V76.2902C-0.000488281 70.8568 2.10433 65.7558 5.92828 61.9175C9.74671 58.0737 14.8269 55.9635 20.2267 55.9635H36.4317C39.2362 55.9635 41.9802 55.4928 44.592 54.5734C48.8788 53.0558 52.6366 50.3529 55.4026 46.8359C55.7663 48.2704 55.9536 49.7658 55.9536 51.3056C55.9536 54.817 54.9563 58.107 53.2151 60.9261C51.4685 61.9341 49.6226 62.7871 47.6996 63.4683C44.085 64.7477 40.2997 65.3958 36.4317 65.3958H20.2322C17.334 65.3958 14.612 66.5256 12.5623 68.586C10.9258 70.231 9.87344 72.3135 9.5208 74.5732H19.1413" fill="#7EE16B"/>
<path d="M199.87 46.8231V33.3477C199.87 27.8091 195.401 23.3173 189.891 23.3173H188.464V46.8231H162.341L186.712 0.980153H181.257C176.893 0.980153 172.882 3.40052 170.827 7.272L148.539 49.1161V57.7175L194.261 57.7452C194.856 57.7452 195.054 58.5483 194.525 58.8252L188.464 61.9933V71.564C188.464 77.5401 193.285 82.392 199.236 82.392H199.875V57.7175H209V56.0005C209 50.9327 204.917 46.8286 199.875 46.8286L199.87 46.8231ZM131.441 52.118C138.362 46.6126 141.822 39.1245 141.822 29.6424C141.822 21.3899 139.083 14.5497 133.607 9.11635C128.207 3.68853 121.325 0.974609 112.961 0.974609C104.596 0.974609 97.7143 3.68853 92.3145 9.11635C86.8376 14.5442 84.0991 21.3843 84.0991 29.6424H84.5014C89.8571 29.6424 94.8767 26.6515 97.1303 21.7665C97.9292 20.0385 99.0202 18.46 100.409 17.031C103.753 13.7466 107.935 12.1016 112.955 12.1016C117.975 12.1016 122.157 13.7466 125.501 17.031C128.769 20.3929 130.405 24.5967 130.405 29.6424C130.405 34.688 128.769 38.8918 125.501 42.2538L86.7164 74.0121V82.3809H141.69C141.69 76.366 136.835 71.4865 130.852 71.4865H113.104L104.249 75.7013C103.704 75.9506 103.197 75.297 103.566 74.8262L131.43 52.1069L131.441 52.118Z" fill="url(#paint0_linear_274_405)"/>
<path d="M37.1762 18.6156C36.9338 18.61 36.6858 18.6045 36.4379 18.6045H20.2329V28.0312H36.4379C49.6178 28.0312 60.3403 38.4714 60.3403 51.2988C60.3403 64.1262 49.6178 74.5609 36.4379 74.5609H10.4362L0.0112305 83.9931H36.4379C54.7862 83.9931 69.7183 69.3269 69.7183 51.2988C69.7183 33.2707 55.1884 18.9977 37.1707 18.61L37.1762 18.6156Z" fill="url(#paint1_linear_274_405)"/>
<defs>
<linearGradient id="paint0_linear_274_405" x1="94.6673" y1="10.2961" x2="155.196" y2="55.0083" gradientUnits="userSpaceOnUse">
<stop offset="0.35" stop-color="#004DD8"/>
<stop offset="1" stop-color="#7EE16B"/>
</linearGradient>
<linearGradient id="paint1_linear_274_405" x1="50.7969" y1="62.6751" x2="15.2985" y2="49.0902" gradientUnits="userSpaceOnUse">
<stop offset="0.08" stop-color="#004DD8"/>
<stop offset="0.89" stop-color="#7EE16B"/>
</linearGradient>
</defs>
</svg>
