<?xml version="1.0" encoding="UTF-8"?>
<svg class="icon" width="383.53" height="486.4" version="1.1" viewBox="0 0 383.52518 972.79999" xmlns="http://www.w3.org/2000/svg" xmlns:cc="http://creativecommons.org/ns#" xmlns:dc="http://purl.org/dc/elements/1.1/" xmlns:rdf="http://www.w3.org/1999/02/22-rdf-syntax-ns#">
<metadata>
<rdf:RDF>
<cc:Work rdf:about="">
<dc:format>image/svg+xml</dc:format>
<dc:type rdf:resource="http://purl.org/dc/dcmitype/StillImage"/>
<dc:title/>
</cc:Work>
</rdf:RDF>
</metadata>
<path d="m489.95 406.76c-19.911 0-34.133 5.6889-48.356 14.222-11.378-34.133-42.667-59.733-79.644-59.733-17.067 0-34.133 5.6889-48.356 14.222-11.378-34.133-42.667-59.733-79.644-59.733-14.222 0-28.444 2.8444-42.667 11.378v-147.91c0-48.356-36.978-88.178-85.333-88.178-48.356 0-88.178 39.822-88.178 88.178v398.22l-54.044-54.044c-34.133-34.133-96.711-28.444-125.16 0-28.444 28.444-48.356 88.178-5.6889 130.84l247.47 244.62c5.6889 5.6889 11.378 8.5333 17.067 14.222 45.511 36.978 96.711 59.733 204.8 59.733 250.31 0 273.07-133.69 273.07-301.51v-176.36c-2.8444-48.356-36.978-88.178-85.333-88.178zm36.978 261.69c0 139.38 0 253.16-224.71 253.16-96.711 0-153.6-19.911-196.27-65.422l-233.24-227.56c-19.911-19.911-14.222-48.356 2.8444-65.422s48.356-17.067 65.422 0l76.8 76.8 51.2 51.2v-503.47c0-22.756 19.911-42.667 42.667-42.667s39.822 19.911 39.822 42.667v344.18c0 11.378 11.378 22.756 22.756 22.756s22.756-11.378 22.756-22.756v-122.31c0-22.756 17.067-42.667 39.822-42.667 0 0 39.822 0 39.822 42.667v159.29c0 11.378 11.378 22.756 22.756 22.756 14.222 0 22.756-11.378 22.756-22.756v-110.93c0-22.756 17.067-42.667 39.822-42.667 0 0 42.667 2.8444 42.667 42.667v139.38c0 11.378 11.378 22.756 22.756 22.756 14.222 0 22.756-11.378 22.756-22.756v-96.711c0-22.756 17.067-42.667 39.822-42.667 0 0 39.822-2.8444 39.822 42.667-2.8444 0-2.8444 130.84-2.8444 167.82zm-543.29-358.4v-76.8c-8.5333-17.067-11.378-34.133-11.378-54.044 0-73.956 59.733-133.69 133.69-133.69s133.69 59.733 133.69 133.69c0 11.378 0 19.911-2.8444 28.444 17.067 0 31.289 8.5333 42.667 19.911 2.8444-14.222 5.6889-31.289 5.6889-48.356 0-99.556-79.644-179.2-179.2-179.2-99.556 0-179.2 79.644-179.2 179.2-2.8444 51.2 19.911 96.711 56.889 130.84z"/>
</svg>
