<?xml version="1.0" encoding="UTF-8"?>
<svg width="522.49" height="514.33" version="1.1" viewBox="0 0 40.285214 39.655792" xmlns="http://www.w3.org/2000/svg" xmlns:cc="http://creativecommons.org/ns#" xmlns:dc="http://purl.org/dc/elements/1.1/" xmlns:rdf="http://www.w3.org/1999/02/22-rdf-syntax-ns#">
<metadata>
<rdf:RDF>
<cc:Work rdf:about="">
<dc:format>image/svg+xml</dc:format>
<dc:type rdf:resource="http://purl.org/dc/dcmitype/StillImage"/>
<dc:title/>
</cc:Work>
</rdf:RDF>
</metadata>
<path d="m6.3553 4.7708c-1.419 1.718-1.644 3.362-0.747 5.08l2.54 3.287-4.855 1.792c-2.241 0.299-3.362 1.942-3.287 4.631-0.075 2.614 0.523 5.304 1.718 8.217 1.121 1.793 2.316 2.689 3.511 2.689l5.229-1.494v5.826c-0.149 1.42 0.373 2.466 1.494 3.138 1.867 1.195 4.93 1.719 9.263 1.719 3.361-0.299 5.005-2.092 5.079-5.454v-2.764l5.005 1.942c1.718 0.522 3.137 0.299 4.333-0.747 2.54-2.092 4.108-5.378 4.631-10.084 0.149-1.719-0.747-2.913-2.689-3.362l-3.735-1.494 3.361-4.184 0.971-2.315c0-0.747-0.448-1.793-1.195-3.062-1.27-2.018-3.511-3.885-6.424-5.901-2.241-1.195-3.959-0.822-5.304 1.046l-2.465 2.838-3.511-4.631c-1.195-1.494-2.913-1.793-5.08-1.195-3.212 1.195-5.827 2.614-7.843 4.482zm6.872 5.453-0.822-1.345c3.063-2.39 6.499-3.137 10.159-2.39l-1.569 1.942-0.971 2.39-0.971-1.569c-0.523-0.896-1.569-1.046-3.137-0.598zm-1.568 6.797-1.419 0.448c-0.971 0.299-1.494 1.27-1.494 2.914 0.149 1.419 0.299 2.315 0.523 2.688l-1.494 0.673c-1.644-2.914-1.419-6.35 0.598-10.384l1.718 2.54zm5.826-1.717c1.569-1.27 2.465-2.689 2.764-4.108 0.374 3.212 2.913 5.229 7.544 6.051-2.838 2.091-3.735 4.93-2.689 8.591-2.988-1.868-6.2-1.868-9.413 0 0.896-4.333-0.224-7.172-3.287-8.815 1.719 0.148 3.362-0.375 5.081-1.719zm13.969 1.568-2.839-0.224 1.494-2.092c0-1.195-0.971-2.689-2.838-4.333l0.897-1.345c1.568 1.27 2.689 2.465 3.287 3.511l2.241 5.304zm-0.149 6.051 1.569 0.822c-1.345 3.734-3.511 6.2-6.574 7.544v-2.166c0.075-1.419-0.224-2.315-0.896-2.764l1.868 0.598c0.747 0.299 1.494 0 2.316-0.822 0.895-0.597 1.418-1.718 1.717-3.212zm-17.705 5.005c0.598-0.224 1.195-0.821 1.793-1.568v2.241c-0.299 1.643 1.344 2.465 4.855 2.465v1.568c-3.063 0.374-6.2-0.971-9.562-3.959z" clip-rule="evenodd" fill="#c20274" fill-rule="evenodd"/>
</svg>
