<?xml version="1.0" encoding="UTF-8"?>
<svg width="2279.4" height="514.33" version="1.1" viewBox="0 0 175.74728 39.655792" xmlns="http://www.w3.org/2000/svg" xmlns:cc="http://creativecommons.org/ns#" xmlns:dc="http://purl.org/dc/elements/1.1/" xmlns:rdf="http://www.w3.org/1999/02/22-rdf-syntax-ns#">
<metadata>
<rdf:RDF>
<cc:Work rdf:about="">
<dc:format>image/svg+xml</dc:format>
<dc:type rdf:resource="http://purl.org/dc/dcmitype/StillImage"/>
<dc:title/>
</cc:Work>
</rdf:RDF>
</metadata>
<path d="m6.3553 4.7708c-1.419 1.718-1.644 3.362-0.747 5.08l2.54 3.287-4.855 1.792c-2.241 0.299-3.362 1.942-3.287 4.631-0.075 2.614 0.523 5.304 1.718 8.217 1.121 1.793 2.316 2.689 3.511 2.689l5.229-1.494v5.826c-0.149 1.42 0.373 2.466 1.494 3.138 1.867 1.195 4.93 1.719 9.263 1.719 3.361-0.299 5.005-2.092 5.079-5.454v-2.764l5.005 1.942c1.718 0.522 3.137 0.299 4.333-0.747 2.54-2.092 4.108-5.378 4.631-10.084 0.149-1.719-0.747-2.913-2.689-3.362l-3.735-1.494 3.361-4.184 0.971-2.315c0-0.747-0.448-1.793-1.195-3.062-1.27-2.018-3.511-3.885-6.424-5.901-2.241-1.195-3.959-0.822-5.304 1.046l-2.465 2.838-3.511-4.631c-1.195-1.494-2.913-1.793-5.08-1.195-3.212 1.195-5.827 2.614-7.843 4.482zm6.872 5.453-0.822-1.345c3.063-2.39 6.499-3.137 10.159-2.39l-1.569 1.942-0.971 2.39-0.971-1.569c-0.523-0.896-1.569-1.046-3.137-0.598zm-1.568 6.797-1.419 0.448c-0.971 0.299-1.494 1.27-1.494 2.914 0.149 1.419 0.299 2.315 0.523 2.688l-1.494 0.673c-1.644-2.914-1.419-6.35 0.598-10.384l1.718 2.54zm5.826-1.717c1.569-1.27 2.465-2.689 2.764-4.108 0.374 3.212 2.913 5.229 7.544 6.051-2.838 2.091-3.735 4.93-2.689 8.591-2.988-1.868-6.2-1.868-9.413 0 0.896-4.333-0.224-7.172-3.287-8.815 1.719 0.148 3.362-0.375 5.081-1.719zm13.969 1.568-2.839-0.224 1.494-2.092c0-1.195-0.971-2.689-2.838-4.333l0.897-1.345c1.568 1.27 2.689 2.465 3.287 3.511l2.241 5.304zm-0.149 6.051 1.569 0.822c-1.345 3.734-3.511 6.2-6.574 7.544v-2.166c0.075-1.419-0.224-2.315-0.896-2.764l1.868 0.598c0.747 0.299 1.494 0 2.316-0.822 0.895-0.597 1.418-1.718 1.717-3.212zm-17.705 5.005c0.598-0.224 1.195-0.821 1.793-1.568v2.241c-0.299 1.643 1.344 2.465 4.855 2.465v1.568c-3.063 0.374-6.2-0.971-9.562-3.959z" clip-rule="evenodd" fill="#c20274" fill-rule="evenodd"/>
<path d="m53.772 11.913v4.465h2.688c1.513 0 2.538-0.164 3.082-0.497 0.539-0.328 0.808-0.904 0.808-1.729 0-0.834-0.265-1.416-0.794-1.744-0.534-0.333-1.564-0.497-3.096-0.497h-2.688zm-0.123 8.296v5.176h2.978c1.696 0 2.835-0.194 3.417-0.576 0.582-0.383 0.875-1.053 0.875-2.012 0-0.969-0.289-1.645-0.865-2.021-0.576-0.378-1.72-0.566-3.426-0.566h-2.979zm-4.736 8.961v-21.042h8.573c2.58 0 4.48 0.417 5.695 1.256 1.214 0.84 1.819 2.151 1.819 3.924 0 1.515-0.401 2.698-1.205 3.542-0.803 0.85-1.952 1.322-3.445 1.406 1.876 0.184 3.233 0.676 4.069 1.475 0.841 0.806 1.262 2.013 1.262 3.632 0 1.138-0.26 2.141-0.775 3.02a4.79 4.79 0 0 1 -2.146 1.958 8.825 8.825 0 0 1 -2.169 0.631c-0.789 0.134-2.032 0.198-3.729 0.198zm28.801-7.001c-0.109-0.545-0.712-0.76-1.555-0.732-1.917 0.062-3.837 0.363-4.353 1.345-0.842 1.603 0.856 2.934 2.655 2.932 1.799-2e-3 3.697-1.338 3.253-3.545zm0.201 5.697c-1.016 1.285-3.525 1.194-4.949 1.194-1.555 0-2.802-0.428-3.735-1.282-0.934-0.854-1.227-1.889-1.227-3.29 0-5.004 4.075-6.98 8.37-6.578l1.57 0.365c0-1.187-0.104-1.948-1.473-2.366-0.611-0.187-1.297-0.21-1.889-0.166-0.739 0.056-1.515 0.45-1.526 0.713l-3.337-1.498 0.756-0.708c1.474-1.379 2.714-1.857 4.806-1.857 2.39 0 4.093 0.417 5.122 1.247 1.028 0.83 1.545 2.21 1.545 4.153v0.174l-0.084 7.118-0.032 3.984-3.904-0.043zm7.786 0.683v-15.642h4.526v1.456a5.625 5.625 0 0 1 1.971 -1.371c0.73-0.303 1.555-0.452 2.465-0.452 1.633 0 2.846 0.537 3.641 1.614 0.795 1.078 1.191 2.728 1.191 4.948v9.448h-4.525v-9.215c0-1.058-0.178-1.833-0.535-2.329-0.354-0.492-0.92-0.74-1.689-0.74-0.908 0-1.555 0.229-1.943 0.69-0.381 0.462-0.574 1.257-0.574 2.379v9.215h-4.528zm34.704 0v-15.642h4.525v1.456a5.927 5.927 0 0 1 1.928 -1.356 5.549 5.549 0 0 1 2.25 -0.467c0.939 0 1.758 0.208 2.453 0.626 0.691 0.417 1.262 1.043 1.709 1.877 0.701-0.834 1.445-1.46 2.24-1.877a5.44 5.44 0 0 1 2.564 -0.626c1.629 0 2.836 0.537 3.625 1.609 0.78501 1.073 1.178 2.722 1.178 4.953v9.448h-4.525v-9.215c0-1.077-0.17799-1.857-0.531-2.339-0.354-0.487-0.92399-0.73-1.709-0.73-0.77 0-1.332 0.243-1.684 0.735-0.354 0.492-0.531 1.267-0.531 2.334v9.215h-4.525v-9.215c0-1.077-0.18-1.857-0.531-2.339-0.35399-0.487-0.91999-0.73-1.695-0.73-0.77 0-1.33 0.243-1.684 0.735-0.35199 0.492-0.53099 1.267-0.53099 2.334v9.215h-4.526zm29.608-9.437h6.064c-0.11301-1.028-0.43801-1.818-0.959-2.369-0.52501-0.552-1.217-0.83-2.08-0.83-0.85501 0-1.541 0.273-2.057 0.82-0.521 0.551-0.843 1.341-0.968 2.379zm-0.03 2.767c0.039 1.321 0.352 2.33 0.93801 3.035 1.568 1.872 4.336 0.93 5.979-0.283 0.24-0.178 0.406-0.259 0.518-0.101l1.572 2.226-0.375 0.397c-1.385 1.469-3.824 2.087-5.781 2.087-2.27 0-4.066-0.725-5.398-2.175-1.326-1.451-1.992-3.408-1.992-5.872 0-2.588 0.70499-4.674 2.117-6.249 1.41-1.574 3.262-2.364 5.553-2.364 2.279 0 4.084 0.76 5.42 2.285 1.336 1.524 2.002 3.606 2.002 6.244 0 0.074-0.012 0.203-0.025 0.377-0.016 0.174-0.02 0.304-0.02 0.393zm18.139 1.518-2.736 5.152h-4.715l5.121-8.281-4.584-7.361h5.066l2.082 4.321 2.209-4.321h4.834l-4.715 7.451 5.063 8.191h-5.031zm-56.121-1.228c-0.109-0.545-0.71299-0.76-1.555-0.732-1.916 0.062-3.836 0.363-4.352 1.345-0.84199 1.603 0.85501 2.934 2.654 2.932s3.696-1.338 3.253-3.545zm0.201 5.697c-1.016 1.285-3.523 1.194-4.949 1.194-1.555 0-2.801-0.428-3.734-1.282-0.93401-0.854-1.227-1.889-1.227-3.29 0-5.004 4.074-6.98 8.369-6.578l1.57 0.365c0-1.187-0.10401-1.948-1.473-2.366-0.61099-0.187-1.297-0.21-1.889-0.166-0.74 0.056-1.516 0.45-1.527 0.713l-3.336-1.498 0.756-0.708c1.473-1.379 2.715-1.857 4.805-1.857 2.391 0 4.094 0.417 5.123 1.247 1.027 0.83 1.545 2.21 1.545 4.153v0.174l-0.086 7.118-0.031 3.984-3.904-0.043z" clip-rule="evenodd" fill="#5463aa" fill-rule="evenodd"/>
</svg>
