<svg xmlns:rdf="http://www.w3.org/1999/02/22-rdf-syntax-ns#" style="width:100%;enable-background:new 0 0 130 32;height:100%" xmlns="http://www.w3.org/2000/svg" xml:space="preserve" viewBox="0 0 130 32" version="1.1" y="0px" x="0px" xmlns:cc="http://creativecommons.org/ns#" xmlns:dc="http://purl.org/dc/elements/1.1/"><style type="text/css"><![CDATA[
	.st0{fill:#868686;}
	.st1{fill:#F3C000;}
	.st2{fill:#009286;}
]]></style><polygon points="0.1 0.1 23.9 0.1 20 10.6 12 31.9 0.1 20" class="st2"/><path class="st2" d="m0 0h24v20s-1.5 1.1-5.9 5.5-6.1 6.5-6.1 6.5l-12-12v-20z"/><polyline points="11.9 7.9 24 20 12 32" class="st1"/><path class="st0" d="m35 16l0.8-3.1h4l0.8 3.1h3.1l-3.8-13.9h-3.9l-3.8 13.9h2.8zm4.2-5.2h-2.8l1.3-6 1.5 6z"/><path class="st0" d="m49 9.9h1.7c1.5 0 1.9 0.8 1.9 2 0 1.9-1.4 2-2 2h-1.6v-4zm0-5.7h1.8c1 0 1.7 0.8 1.7 1.8 0 1.3-0.9 1.8-1.5 1.8h-2v-3.6zm2.2 11.8c1.2 0 4.3-0.2 4.3-3.7 0-1.9-0.5-3.2-2.6-3.5 1.6-0.3 2.4-1.5 2.4-3.1 0-3-1.8-3.6-4-3.6h-5.2v13.9h5.1z"/><polygon points="61.6 16 61.6 5.8 61.7 5.8 65.5 16 69.3 16 69.3 2.1 66.6 2.1 66.6 11.7 66.6 11.7 62.9 2.1 58.9 2.1 58.9 16" class="st0"/><rect transform="matrix(-.7069 .7073 -.7073 -.7069 131.74 -38.588)" height="2.6" width="2.6" y="6.7" x="72.5" class="st0"/><path class="st0" d="m79.5 16l0.8-3.1h4l0.8 3.1h3.1l-3.9-13.9h-3.8l-3.8 13.9h2.8zm4.2-5.2h-2.8l1.3-6 1.5 6z"/><polygon points="93.3 16 93.3 5.3 93.4 5.3 95.9 16 98.7 16 101.4 5.3 101.4 5.3 101.4 16 104.2 16 104.2 2.1 99.7 2.1 97.4 11.6 97.4 11.6 95.2 2.1 90.5 2.1 90.5 16" class="st0"/><path class="st0" d="m110.9 4.2h1.3c0.9 0 1.5 0.5 1.5 1.8 0 0.9-0.3 2-1.5 2h-1.3v-3.8zm0 6h0.8c2.2 0 2.1 1.4 2.1 3.1 0 0.9-0.1 1.8 0.3 2.7h2.8c-0.3-0.6-0.3-3.2-0.3-4.1 0-2.5-1.9-2.7-2.5-2.7 1.9-0.3 2.6-1.6 2.6-3.4 0-2.4-1.3-3.6-3.3-3.6h-5.4v13.8h2.9v-5.8z"/><path class="st0" d="m124.5 14.2c-1.6 0-1.8-1.5-1.8-5.1s0.2-5.1 1.8-5.1 1.8 1.5 1.8 5.1-0.1 5.1-1.8 5.1zm0 2c4.8 0 4.8-3.5 4.8-7.2s0-7.2-4.8-7.2-4.8 3.5-4.8 7.2c0 3.7 0 7.2 4.8 7.2z"/></svg>
