<?xml version="1.0" encoding="UTF-8"?>
<svg width="700.93" height="664.63" version="1.1" viewBox="0 0 18.028036 17.103045" xmlns="http://www.w3.org/2000/svg" xmlns:cc="http://creativecommons.org/ns#" xmlns:dc="http://purl.org/dc/elements/1.1/" xmlns:rdf="http://www.w3.org/1999/02/22-rdf-syntax-ns#">
<metadata>
<rdf:RDF>
<cc:Work rdf:about="">
<dc:format>image/svg+xml</dc:format>
<dc:type rdf:resource="http://purl.org/dc/dcmitype/StillImage"/>
<dc:title/>
</cc:Work>
</rdf:RDF>
</metadata>
<defs>
<clipPath id="e">
<rect x="21.628" y="-1.235" width="18.037" height="18.338" fill="#f00" stroke-width=".025733"/>
</clipPath>
<clipPath id="d">
<rect x="21.628" y="-1.235" width="18.037" height="18.338" fill="#f00" stroke-width=".025733"/>
</clipPath>
<clipPath id="c">
<rect x="21.628" y="-1.235" width="18.037" height="18.338" fill="#f00" stroke-width=".025733"/>
</clipPath>
<clipPath id="b">
<rect x="21.628" y="-1.235" width="18.037" height="18.338" fill="#f00" stroke-width=".025733"/>
</clipPath>
<clipPath id="a">
<rect x="21.628" y="-1.235" width="18.037" height="18.338" fill="#f00" stroke-width=".025733"/>
</clipPath>
</defs>
<path transform="translate(-21.633)" d="m33.606 6.652c-0.75 0.239-1.475 0.53-2.169 0.873 0.609 0.35 1.249 0.656 1.914 0.913a13.95 13.95 0 0 1 3.769 -0.879 12.218 12.218 0 0 1 -3.514 -0.907zm-5.264 2.887c0.467 0.329 0.951 0.635 1.452 0.918a13.819 13.819 0 0 1 1.644 -1.107 15.776 15.776 0 0 1 -1.603 -0.912c-0.521 0.337-1.02 0.706-1.493 1.101zm5.342-4.736a17.612 17.612 0 0 1 4.188 -0.635c-2.937-0.181-5.473-1.816-6.851-4.168l-1.534 0.84a10.21 10.21 0 0 0 4.197 3.963zm-0.078 5.419c-0.72 0.306-1.404 0.678-2.043 1.109 0.685 0.291 1.393 0.538 2.121 0.741a10.355 10.355 0 0 1 4.17 -1.115 15.882 15.882 0 0 1 -4.248 -0.735zm-3.813-3.805c0.57-0.323 1.161-0.615 1.77-0.874a11.914 11.914 0 0 1 -3.627 -3.854l-1.535 0.841a13.618 13.618 0 0 0 3.392 3.887zm-2.856 2.021c0.448-0.391 0.917-0.758 1.405-1.102a15.227 15.227 0 0 1 -3.397 -4.007l-1.536 0.841a17.029 17.029 0 0 0 3.528 4.268zm-26.121 12.945v1.754h-0.816v-3.91h0.816v1.481h1.525v-1.481h0.817v3.91h-0.817v-1.754zm5.876 0.305c0-1.045-0.703-1.525-1.481-1.525s-1.481 0.479-1.481 1.525 0.703 1.525 1.481 1.525c0.779 0 1.481-0.48 1.481-1.525zm3.153 1.449h-0.762v-1.759c0-0.212-0.011-0.572-0.496-0.572-0.337 0-0.599 0.229-0.599 0.67v1.661h-0.762v-2.897h0.729v0.425h0.011c0.103-0.174 0.321-0.501 0.871-0.501 0.566 0 1.007 0.332 1.007 0.97v2.003zm2.527-2.898v0.431h-0.011c-0.093-0.191-0.311-0.507-0.85-0.507-0.637 0-1.204 0.49-1.204 1.492 0 1.013 0.55 1.498 1.247 1.498 0.458 0 0.648-0.212 0.773-0.436l0.011 0.011v0.349c0 0.468-0.196 0.665-0.604 0.665-0.441 0-0.501-0.147-0.534-0.294h-0.828c0.033 0.616 0.665 0.872 1.263 0.872 1.427 0 1.465-0.833 1.465-1.334v-2.745h-0.728zm3.681 2.19h1.944v0.708h-2.761v-3.91h0.817zm3.937-0.142c-0.06 0.207-0.278 0.315-0.49 0.315-0.615 0-0.659-0.49-0.681-0.708h1.988v-0.136c0-1.323-0.79-1.596-1.362-1.596-1.269 0-1.388 1.116-1.388 1.465 0 1.193 0.626 1.585 1.443 1.585 0.496 0 1.073-0.229 1.274-0.926h-0.784zm4.117-0.599c0-1.045-0.703-1.525-1.481-1.525-0.779 0-1.481 0.479-1.481 1.525s0.703 1.525 1.481 1.525 1.481-0.48 1.481-1.525zm3.044 1.449h-0.762v-1.759c0-0.212-0.011-0.572-0.496-0.572-0.337 0-0.599 0.229-0.599 0.67v1.661h-0.762v-2.897h0.73v0.425h0.011c0.104-0.174 0.321-0.501 0.871-0.501 0.566 0 1.007 0.332 1.007 0.97zm2.527-2.898v0.431h-0.011c-0.093-0.191-0.311-0.507-0.85-0.507-0.637 0-1.204 0.49-1.204 1.492 0 1.013 0.55 1.498 1.247 1.498 0.458 0 0.648-0.212 0.773-0.436l0.011 0.011v0.349c0 0.468-0.196 0.665-0.604 0.665-0.441 0-0.501-0.147-0.534-0.294h-0.828c0.033 0.616 0.665 0.872 1.263 0.872 1.427 0 1.465-0.833 1.465-1.334v-2.745h-0.728zm2.864 2.898h1.655c0.801 0 1.013-0.136 1.236-0.354 0.207-0.201 0.338-0.495 0.338-0.806 0-0.387-0.125-0.768-0.604-0.947 0.163-0.082 0.479-0.24 0.479-0.801 0-0.403-0.245-1.002-1.204-1.002h-1.9zm6.11-2.135c0-0.713-0.746-0.839-1.154-0.839-0.594 0-1.209 0.125-1.296 1.013h0.735c0.022-0.169 0.087-0.403 0.468-0.403 0.196 0 0.501 0.016 0.501 0.337 0 0.164-0.147 0.212-0.267 0.229l-0.686 0.104c-0.485 0.071-0.844 0.359-0.844 0.926 0 0.599 0.447 0.844 0.882 0.844 0.517 0 0.762-0.24 0.937-0.419 0.016 0.164 0.027 0.207 0.071 0.343h0.822v-0.115c-0.093-0.033-0.169-0.109-0.169-0.452zm3.191 2.135h-0.762v-1.759c0-0.212-0.011-0.572-0.496-0.572-0.337 0-0.599 0.229-0.599 0.67v1.661h-0.763v-2.897h0.729v0.425h0.011c0.104-0.174 0.321-0.501 0.871-0.501 0.566 0 1.007 0.332 1.007 0.97v2.003zm2.255-1.776 1.023-1.122h-0.936l-0.959 1.1v-2.292h-0.762v4.09h0.762v-1.707l1.007 1.707h0.915zm2.837 1.776h1.655c0.801 0 1.013-0.136 1.236-0.354 0.207-0.201 0.338-0.495 0.338-0.806 0-0.387-0.125-0.768-0.604-0.947 0.163-0.082 0.479-0.24 0.479-0.801 0-0.403-0.245-1.002-1.204-1.002h-1.9zm5.358-0.85c-0.06 0.207-0.278 0.315-0.49 0.315-0.615 0-0.659-0.49-0.681-0.708h1.988v-0.136c0-1.323-0.79-1.596-1.361-1.596-1.269 0-1.389 1.116-1.389 1.465 0 1.193 0.626 1.585 1.443 1.585 0.496 0 1.073-0.229 1.274-0.926h-0.784zm1.209-2.048h0.729v0.501h0.011c0.158-0.294 0.333-0.577 0.795-0.577 0.049 0 0.098 6e-3 0.147 0.011v0.773c-0.065-0.011-0.147-0.011-0.218-0.011-0.594 0-0.703 0.37-0.703 0.691v1.509h-0.762v-2.897zm4.634 2.898h-0.762v-1.759c0-0.212-0.011-0.572-0.496-0.572-0.337 0-0.599 0.229-0.599 0.67v1.661h-0.763v-4.09h0.763v1.568h0.011c0.098-0.24 0.425-0.452 0.838-0.452 0.566 0 1.007 0.332 1.007 0.97v2.004zm2.946-2.135c0-0.713-0.746-0.839-1.154-0.839-0.594 0-1.209 0.125-1.296 1.013h0.735c0.022-0.169 0.087-0.403 0.468-0.403 0.196 0 0.501 0.016 0.501 0.337 0 0.164-0.147 0.212-0.267 0.229l-0.687 0.104c-0.484 0.071-0.844 0.359-0.844 0.926 0 0.599 0.446 0.844 0.882 0.844 0.518 0 0.763-0.24 0.937-0.419 0.017 0.164 0.027 0.207 0.071 0.343h0.822v-0.115c-0.093-0.033-0.169-0.109-0.169-0.452v-1.568zm3.218-1.955h-0.762v1.568h-0.011a0.93 0.93 0 0 0 -0.838 -0.452c-0.637 0-1.204 0.49-1.204 1.492 0 0.795 0.359 1.558 1.22 1.558 0.316 0 0.654-0.114 0.839-0.441h0.011v0.365h0.745z" clip-path="url(#a)"/>
<path transform="translate(-21.633)" d="m38.415 10.939v1.75c-3.167 0-5.932 1.689-7.394 4.185l-1.534-0.84c1.759-3.037 5.101-5.094 8.928-5.095z" clip-path="url(#b)" fill="#c6c7c9"/>
<path transform="translate(-21.633)" d="m26.402 14.344 1.535 0.841c2.069-3.542 5.991-5.937 10.479-5.937v-1.75c-5.149 0-9.646 2.763-12.014 6.846z" clip-path="url(#c)" fill="#c6c7c9"/>
<path transform="translate(-21.633)" d="m24.944 13.545c2.66-4.556 7.701-7.637 13.471-7.637v-1.75c-6.43 0-12.048 3.449-15.006 8.546z" clip-path="url(#d)" fill="#c6c7c9"/>
<path transform="translate(-21.633)" d="m5.908 21.688c0 0.37-0.109 0.882-0.697 0.882s-0.697-0.512-0.697-0.882c0-0.371 0.109-0.882 0.697-0.882s0.697 0.511 0.697 0.882zm5.184 0.016c0-0.675 0.316-0.882 0.599-0.882 0.425 0 0.653 0.381 0.653 0.85 0 0.397-0.131 0.838-0.648 0.838-0.451 0-0.604-0.435-0.604-0.806zm7.749-0.305c0.043-0.381 0.234-0.61 0.593-0.61 0.245 0 0.545 0.142 0.588 0.61zm4.482 0.289c0 0.37-0.109 0.882-0.697 0.882s-0.697-0.512-0.697-0.882c0-0.371 0.109-0.882 0.697-0.882s0.697 0.511 0.697 0.882zm5.075 0.016c0-0.675 0.316-0.882 0.599-0.882 0.425 0 0.653 0.381 0.653 0.85 0 0.397-0.131 0.838-0.648 0.838-0.451 0-0.604-0.435-0.604-0.806zm4.928-0.288h1.04c0.294 0 0.588 0.131 0.588 0.474 0 0.397-0.229 0.571-0.626 0.571h-1.002zm0-1.514h0.937c0.371 0 0.599 0.098 0.599 0.419 0 0.311-0.256 0.436-0.577 0.436h-0.958v-0.855zm4.58 2.195c0 0.354-0.343 0.571-0.681 0.571-0.147 0-0.354-0.082-0.354-0.348 0-0.316 0.234-0.387 0.518-0.436 0.315-0.049 0.441-0.098 0.517-0.158zm9.813-0.681h1.04c0.294 0 0.588 0.131 0.588 0.474 0 0.397-0.229 0.571-0.626 0.571h-1.002zm0-1.514h0.937c0.37 0 0.599 0.098 0.599 0.419 0 0.311-0.256 0.436-0.577 0.436h-0.958v-0.855zm3.425 1.497c0.043-0.381 0.234-0.61 0.593-0.61 0.245 0 0.545 0.142 0.588 0.61zm9.192 0.698c0 0.354-0.343 0.571-0.681 0.571-0.147 0-0.354-0.082-0.354-0.348 0-0.316 0.234-0.387 0.517-0.436 0.316-0.049 0.441-0.098 0.518-0.158zm1.933-0.387c0-0.458 0.164-0.888 0.648-0.888 0.523 0 0.653 0.468 0.653 0.931 0 0.43-0.19 0.833-0.675 0.833-0.49 0-0.626-0.533-0.626-0.876z" clip-path="url(#e)" fill="#fff"/>
</svg>
