<svg xmlns="http://www.w3.org/2000/svg" version="1.2" width="2500" height="625" viewBox="0 0 320 80.000001"><path d="M69.04 29.614V14.65H54.202L43.847 4.185 33.492 14.508H18.496v14.948L7.999 39.921l10.655 10.465V65.35h14.838l10.355 10.465L54.202 65.35h14.98V50.544l10.513-10.465L69.04 29.614zM17.155 43.063l-2.399-2.383c-.3-.3-.458-.9 0-1.358l2.541-2.541c.3-.3.9 0 .758.458l.142 5.383c0 .6-.6.742-1.042.442m43.029-24.072h3.457c.442 0 1.042.3.9.9v3.583c0 .458-.6.6-.758.3l-3.899-3.883c-.442-.3-.142-.9.3-.9m-19.194-5.54l2.399-2.384c.458-.3 1.058-.458 1.358 0l2.541 2.384c.3.458 0 .9-.442.9h-5.398c-.6 0-.742-.6-.458-.9m-18.295 9.881v-3.299c.158-.6.458-1.042 1.058-1.042h3.441c.6 0 .758.6.458.9l-3.899 3.883c-.458.3-1.058 0-1.058-.442m4.799 37.836h-3.441c-.458 0-.9-.3-.9-.9l-.158-3.441c0-.6.6-.758.9-.442l4.057 3.883c.3.3 0 .9-.458.9m19.352 5.225l-2.399 2.399c-.458.442-1.058.442-1.358 0l-2.541-2.399c-.3-.442 0-.884.3-.884h5.54c.6 0 .758.584.458.884m2.699-5.982H37.549c-1.657.158-2.999-.3-4.199-1.642l-8.697-8.666c-1.357-1.2-1.957-2.699-1.799-4.641V33.64c0-1.642.6-3.141 1.642-4.183l9.155-9.124c.9-.9 2.099-1.342 3.741-1.342h12.296c1.657-.158 2.999.3 4.057 1.5l8.855 8.824c1.184 1.042 1.784 2.383 1.784 4.025v12.865c.158 1.642-.442 2.999-1.784 3.899l-8.398 8.524c-1.358 1.342-2.857 1.942-4.657 1.784m15.138-.6c-.142.458-.442 1.058-1.042 1.058h-3.457c-.6 0-.742-.6-.442-.9l3.899-3.899c.442-.442 1.042-.142 1.042.316v3.425zm5.414-16.748c-.3.3-.916 0-.758-.3v-5.525c-.158-.6.6-.758.9-.458l2.399 2.399c.3.442.442 1.042 0 1.342l-2.541 2.541zm0 0" fill="#bb994f"/><path d="M59.443 48.761L44.29 22.274c-.6-1.042-1.5-1.042-2.241 0L27.353 48.603c-.3.742 0 1.642 1.342 1.642h29.549c1.042 0 1.642-.442 1.2-1.484m-4.041-1.657H33.794c-.9 0-1.2-.742-.9-1.342l10.797-19.147c.458-.742 1.2-.6 1.657 0l10.939 19.289c.3.758-.142 1.2-.884 1.2" fill="#bb994f"/><path d="M53.886 44.12l-7.94-14.206c-.3-.458-.9-.458-1.2 0L36.79 43.963c-.142.458 0 .9.6 1.042h15.895c.6-.142.9-.3.6-.884m-3.441-2.557h-8.255c-.3 0-.442-.142-.3-.442l4.057-7.166c.3-.316.442-.316.6 0l4.199 7.166c.158.3 0 .442-.3.442" fill="#bb994f"/><path d="M282.751 28.714v8.666c-.758-4.625-3.757-8.666-9.755-8.666h-10.797v15.99h-10.797v-2.383h7.956v-5.54h-7.956V34.54h9.597v-5.825h-17.095v5.825c-.9-3.883-3.757-5.825-8.555-5.825H223.51v14.648c-6.74 2.699-11.097 1.799-11.239-3.441 0-5.383 3.883-6.724 10.039-4.925l-.6-5.982c-7.498-1.5-13.354 0-16.795 5.982-.6-3.141-2.399-6.14-7.798-6.282h-11.996v15.848h-10.797v-2.241h7.94v-5.54h-7.94v-2.383h9.597v-5.683h-45.302v11.965l-5.84-11.965h-8.555v15.848h-11.239v-2.241h7.94V36.94h-7.94v-2.399h9.439v-5.683h-16.937v14.506c-6.156 2.541-11.097 2.099-11.097-3.725 0-4.941 4.641-6.44 10.197-4.499l-.758-6.124c-10.039-2.099-16.937 1.799-17.095 11.065 0 7.782 8.398 12.565 18.752 9.566v.6h25.492V39.04l5.698 11.207h8.84V34.241h7.056v16.006h7.798V34.399h6.456v15.848h25.492V34.399h2.399c1.342 0 2.399.442 2.399 1.942-.158 1.784-1.657 2.241-4.199 1.784l3.441 12.123h8.098l-3.441-8.966c1.642-.458 2.841-1.5 3.441-2.999 0 12.265 10.655 13.764 19.052 11.223v.742h7.34V34.4h2.399c1.815 0 2.257 1.042 2.257 1.942.158 1.5-1.642 2.241-4.199 1.784l3.599 12.123h7.64l-3.283-8.966c2.399-.6 3.899-1.799 4.641-3.899v12.865h30.449c4.199 0 7.34-2.983 8.398-7.924v7.924h7.798V34.401h7.64v15.848h7.798V34.401h6.014v-5.683H282.75zm-10.797 15.848h-2.399v-9.723h2.699c1.5 0 2.399 1.642 2.399 4.799.142 3.425-.9 4.925-2.699 4.925" fill="#006341"/></svg>