<?xml version="1.0" encoding="UTF-8" standalone="no"?>
<!-- Svg Vector Icons : http://www.onlinewebfonts.com/icon -->

<svg
   xmlns:dc="http://purl.org/dc/elements/1.1/"
   xmlns:cc="http://creativecommons.org/ns#"
   xmlns:rdf="http://www.w3.org/1999/02/22-rdf-syntax-ns#"
   xmlns:svg="http://www.w3.org/2000/svg"
   xmlns="http://www.w3.org/2000/svg"
   xmlns:sodipodi="http://sodipodi.sourceforge.net/DTD/sodipodi-0.dtd"
   xmlns:inkscape="http://www.inkscape.org/namespaces/inkscape"
   version="1.1"
   x="0px"
   y="0px"
   viewBox="0 0 1000 1000"
   enable-background="new 0 0 1000 1000"
   xml:space="preserve"
   id="svg8"
   sodipodi:docname="icon.svg"
   inkscape:version="0.92.3 (2405546, 2018-03-11)"><defs
   id="defs12" /><sodipodi:namedview
   pagecolor="#ffffff"
   bordercolor="#666666"
   borderopacity="1"
   objecttolerance="10"
   gridtolerance="10"
   guidetolerance="10"
   inkscape:pageopacity="0"
   inkscape:pageshadow="2"
   inkscape:window-width="1920"
   inkscape:window-height="1124"
   id="namedview10"
   showgrid="false"
   inkscape:zoom="0.3337544"
   inkscape:cx="1336.9163"
   inkscape:cy="1062.5816"
   inkscape:window-x="0"
   inkscape:window-y="0"
   inkscape:window-maximized="1"
   inkscape:current-layer="svg8" />
<metadata
   id="metadata2"> Svg Vector Icons : http://www.onlinewebfonts.com/icon <rdf:RDF><cc:Work
     rdf:about=""><dc:format>image/svg+xml</dc:format><dc:type
       rdf:resource="http://purl.org/dc/dcmitype/StillImage" /><dc:title></dc:title></cc:Work></rdf:RDF></metadata>
<g
   id="g6"><path
     d="M459.4,698.2l132.9-335.6l138.5,335.6H459.4L459.4,698.2L459.4,698.2z M181.1,698.2l132.9-335.6l138.6,335.6H181.1L181.1,698.2L181.1,698.2z M871.7,621.6h103.7l-5.7,19.2h-89.1L871.7,621.6L871.7,621.6L871.7,621.6z M851.5,574.3h132.9l-3.4,20.4H860.5L851.5,574.3L851.5,574.3L851.5,574.3z M831.1,527H990l-2.2,20.4H840.2L831.1,527L831.1,527L831.1,527z M812,479.7h178v20.2H819.9L812,479.7L812,479.7L812,479.7z M791.8,432.4h193.7l2.2,20.3H799.6L791.8,432.4L791.8,432.4L791.8,432.4z M771.4,385.1h205.1l4.5,20.3H780.5L771.4,385.1L771.4,385.1L771.4,385.1z M500,10h20.2l21.6,2.2l20.2,1.1l19.1,3.4l20.3,3.4l19.2,4.5l19.2,5.6l19.2,5.6l9,3.4l9.1,3.4l18,7.8l18,7.9l16.9,9l16.8,9l17,10.1l15.8,11.3l15.7,11.3l14.6,11.3l14.7,12.4l14.7,13.5l13.5,13.5l13.5,13.6l12.4,14.7l5.6,7.8l5.5,7.8l12.4,15.9l10.2,15.7l10.2,15.9l10,16.8l7.9,18.1l9.1,16.9l6.7,18L963,340l6.8,18H760.2L630.7,55L495.5,396.4l-142-338L103.5,703.9l113.8,141.9h579l105.8-154.4l-10-23.7h68.7l-6.8,18l-7.9,16.9l-7.8,16.8l-7.9,15.8l-10,16.9l-9.1,15.7l-11.2,14.8l-10.2,14.5L878.5,812l-12.4,14.7l-12.4,12.4l-13.5,13.5L826.7,865l-13.6,12.3l-14.6,11.4l-14.7,11.1l-14.7,10.1l-15.7,10.2l-15.7,9l-16.9,9.1l-16.9,7.8l-16.9,6.9l-18,6.7l-16.9,6.7l-18,5.6l-19.2,4.6l-18,4.5l-19.2,3.3l-9,1.2l-10.2,1.1l-19.2,2.2l-19.2,1.2H500h-24.8l-24.8-2.3l-24.8-3.4l-24.8-4.5l-23.6-5.7l-22.5-5.5l-22.6-7.9l-22.6-9l-21.4-10.1l-21.3-10.2l-10.2-6.7l-10.1-5.5l-20.3-12.4L207,893.1l-19.1-14.6l-9-7.9l-7.9-7.8l-9-7.9l-7.8-7.9l-17-16.9l-15.8-18l-6.7-9.1l-6.8-10.2l-14.6-19.1l-5.6-9l-6.8-10.2l-5.6-10.2l-5.7-11.2l-11.3-20.2l-10.1-22.6L40.4,669l-7.9-23.7l-6.7-22.5l-3.4-12.4l-2.2-11.2l-2.2-12.4l-2.3-12.4l-3.4-23.7l-1.1-25.9L10,512.3v-12.4l1.1-24.7l1.1-24.9l3.4-24.8l4.5-24.8l5.6-23.7l6.7-22.5l7.9-22.5l7.9-22.5l10.1-21.4l11.3-21.5l5.7-10.1l5.6-10.1l12.4-20.3l14.6-19.2l13.5-19.1l8-9.1l7.9-7.9l7.9-9l9.1-7.9l16.8-16.9l16.9-15.8l10.2-6.8l8.9-6.7l19.2-14.6l10.2-5.6l10.1-6.8l10.1-5.7l10.2-5.6l21.3-11.2l21.4-10.1l22.6-9.1l22.6-6.7l22.5-6.8l12.4-3.4l11.3-2.3l12.4-2.2l12.4-2.3l24.8-3.4l24.8-1.2l12.4-1L500,10L500,10L500,10z"
     id="path4" /></g>
<path
   style="fill:#ff0000;fill-opacity:1;stroke-width:2.118644"
   d="M 456.36333,987.4646 C 388.72219,979.05129 336.8674,964.37064 285.81248,939.17973 233.01405,913.12858 196.22245,886.64776 153.64207,844.04983 98.818776,789.20394 61.659935,728.63254 36.972369,653.8704 17.403025,594.60792 11.876374,560.41729 12.01689,499.48326 12.08993,467.80968 13.195136,447.15515 15.644627,431.68665 33.183558,320.9286 81.38541,226.54318 159.00616,150.96631 200.57744,110.48968 233.19182,87.330223 285.79945,60.93048 314.13041,46.713338 328.9968,40.901817 362.08367,31.109687 452.34835,4.3956638 549.63426,4.4560007 640.01477,31.282062 785.83613,74.563658 906.58608,188.07225 958.7739,330.92523 c 5.08309,13.91386 9.24197,25.59289 9.24197,25.95339 0,0.36053 -46.55974,0.65549 -103.46612,0.65549 H 761.08365 L 696.81786,207.01354 C 661.4717,124.22723 631.90672,56.0941 631.11791,55.606592 630.32909,55.119081 599.74384,130.46794 563.15064,223.0485 c -36.5932,92.58055 -67.00977,168.33938 -67.5924,168.35296 -0.58262,0.0136 -32.48627,-74.815 -70.89697,-166.28574 -38.41072,-91.47073 -70.41557,-166.310422 -71.1219,-166.310422 -1.20702,0 -246.7562,632.158902 -249.24306,641.668712 -0.89961,3.4401 11.45787,20.2011 55.62365,75.44476 l 56.7802,71.02212 290.38243,-0.0956 290.38243,-0.0956 51.90678,-76.24636 c 31.8314,-46.75743 51.82365,-78.06267 51.69183,-80.94258 -0.11822,-2.58293 -1.79947,-8.27144 -3.73606,-12.64115 l -3.5211,-7.94491 h 32.8365 32.8365 l -4.03328,10.06356 c -39.09136,97.53835 -110.96797,182.89222 -201.5047,239.28792 -52.63971,32.78949 -129.92649,59.45024 -195.1696,67.32541 -24.07947,2.90652 -84.95244,3.98415 -102.40856,1.81292 z"
   id="path26"
   inkscape:connector-curvature="0" /><path
   style="fill:#ff0000;fill-opacity:1;stroke-width:2.118644"
   d="m 462.01305,694.55534 c 14.65401,-40.7079 130.37387,-327.47663 131.40397,-325.63596 1.0624,1.89842 125.47777,302.30291 134.58089,324.94948 0.84491,2.10193 -26.55572,2.6483 -132.81328,2.6483 -81.21319,0 -133.59999,-0.77174 -133.17158,-1.96182 z"
   id="path28"
   inkscape:connector-curvature="0" /><path
   style="fill:#ff0000;fill-opacity:1;stroke-width:2.118644"
   d="m 184.66912,692.80954 c 1.33154,-4.72083 126.49304,-320.63896 128.37657,-324.03322 1.19266,-2.14926 21.86204,46.94683 125.69594,298.56612 l 12.03933,29.17472 h -133.5788 c -126.20385,0 -133.52106,-0.2047 -132.53304,-3.70762 z"
   id="path30"
   inkscape:connector-curvature="0" /><path
   style="fill:#ff0000;fill-opacity:1;stroke-width:1.059322"
   d="m 776.88552,395.95941 c -2.30384,-5.01034 -4.18879,-9.3006 -4.18879,-9.5339 0,-0.2333 45.73059,-0.42419 101.62353,-0.42419 95.86794,0 101.65477,0.105 102.17518,1.85382 0.65653,2.20628 3.82841,16.08386 3.82841,16.75005 0,0.25516 -44.83115,0.46393 -99.62477,0.46393 h -99.62477 z"
   id="path32"
   inkscape:connector-curvature="0" /><path
   style="fill:#ff0000;fill-opacity:1;stroke-width:1.059322"
   d="m 796.62106,443.46955 c -1.6709,-4.51537 -3.25982,-8.80562 -3.53094,-9.5339 -0.39209,-1.05324 19.25269,-1.32416 96.0187,-1.32416 h 96.51164 v 3.02258 c 0,1.66241 0.30626,5.95267 0.68057,9.5339 l 0.68056,6.51132 h -93.66127 -93.66127 z"
   id="path34"
   inkscape:connector-curvature="0" /><path
   style="fill:#ff0000;fill-opacity:1;stroke-width:1.059322"
   d="m 819.40226,496.96531 c -0.50133,-1.31091 -2.15797,-5.44501 -3.68141,-9.18688 -1.52343,-3.74186 -2.76988,-6.95956 -2.76988,-7.15042 0,-0.19086 39.80402,-0.34702 88.45339,-0.34702 h 88.45339 v 9.53389 9.5339 h -84.77199 -84.77198 z"
   id="path38"
   inkscape:connector-curvature="0" /><path
   style="fill:#ff0000;fill-opacity:1;stroke-width:1.059322"
   d="m 839.50914,544.6348 c -0.51246,-1.31091 -2.38751,-5.60117 -4.16676,-9.5339 l -3.23501,-7.15042 h 78.63731 78.6373 l -0.97269,9.5339 -0.9727,9.53389 H 913.93875 840.4409 Z"
   id="path40"
   inkscape:connector-curvature="0" /><path
   style="fill:#ff0000;fill-opacity:1;stroke-width:1.059322"
   d="m 856.71826,584.88904 -4.2619,-9.79873 65.16148,-0.27298 c 35.83881,-0.15013 65.37235,-0.0621 65.6301,0.19566 0.45465,0.45464 -1.49122,14.08288 -2.54451,17.82096 -0.48955,1.73738 -4.26567,1.85382 -60.12281,1.85382 h -59.60046 z"
   id="path42"
   inkscape:connector-curvature="0" /><path
   style="fill:#ff0000;fill-opacity:1;stroke-width:1.059322"
   d="m 877.15756,632.18375 c -2.10388,-4.43018 -3.82524,-8.48208 -3.82524,-9.00424 0,-0.54639 21.52418,-0.94937 50.70858,-0.94937 h 50.70857 l -2.69981,9.00424 -2.6998,9.00423 H 925.16633 880.9828 Z"
   id="path44"
   inkscape:connector-curvature="0" /></svg>