<svg width="105" height="32" viewBox="0 0 105 32" fill="none" xmlns="http://www.w3.org/2000/svg">
<path d="M71.5 0L71.5 32" stroke="#D5D7DD"/>
<path d="M84 22H85.0501V18.2857H87.7103C89.5304 18.2857 90.8605 16.9286 90.8605 15.1429C90.8605 13.3571 89.5304 12 87.7103 12H84V22ZM85.0501 17.2857V13H87.7103C88.9704 13 89.8105 13.8571 89.8105 15.1429C89.8105 16.4286 88.9704 17.2857 87.7103 17.2857H85.0501Z" fill="#141618"/>
<path d="M96.3926 22H97.3727V17.6429C97.3727 16.1429 96.2526 15 94.7125 15C93.1024 15 92.1923 16.2857 92.1923 16.2857L92.8223 16.9286C92.8223 16.9286 93.5224 15.9286 94.7125 15.9286C95.6926 15.9286 96.3926 16.6429 96.3926 17.6429L93.8024 18.0714C92.5423 18.2857 91.8423 19 91.8423 20.1429C91.8423 21.1429 92.8223 22.1429 94.2224 22.1429C95.6926 22.1429 96.3926 21.0714 96.3926 21.0714V22ZM96.3926 18.9286C96.3926 20.2857 95.4825 21.2143 94.2224 21.2143C93.3124 21.2143 92.8223 20.7143 92.8223 20.1429C92.8223 19.5 93.2424 19.0857 94.0824 18.9286L96.3926 18.5V18.9286Z" fill="#141618"/>
<path d="M98.9795 24.8571C98.9795 24.8571 99.3296 25 99.8196 25C100.8 25 101.36 24.4286 101.92 23L105 15.1429H103.95L101.78 20.7143L99.6096 15.1429H98.5595L101.29 22L100.94 23C100.688 23.7143 100.31 24.0714 99.6796 24.0714C99.3296 24.0714 98.9795 23.9286 98.9795 23.9286V24.8571Z" fill="#141618"/>
<path d="M13.1679 21.9353L7.44475 15.3014L12.9353 9H8.70105L3.72237 14.6176V9H0V21.9353H3.72237V15.9481L8.9337 21.9353H13.1679Z" fill="#141618"/>
<path d="M20.0241 22C23.6069 22 26.3056 20.3369 26.3056 17.565V9H22.5833V17.3063C22.5833 18.2857 22.0016 19.1173 20.0241 19.1173C18.0466 19.1173 17.465 18.2857 17.465 17.3063V9H13.7426V17.565C13.7426 20.3369 16.4413 22 20.0241 22Z" fill="#141618"/>
<path d="M38.0635 9V16.022L31.782 9H28.9902V21.9353H32.7125V14.9133L38.9941 21.9353H41.7858V9H38.0635Z" fill="#141618"/>
<path d="M54.9287 21.9353H59L53.463 9H48.7169L43.1799 21.9353H47.2513L48.0655 19.9026H54.1144L54.9287 21.9353ZM49.1822 17.1308L51.09 12.3817L52.9977 17.1308H49.1822Z" fill="#141618"/>
</svg>
