<?xml version="1.0" encoding="UTF-8" standalone="no"?>
<svg
   xmlns:dc="http://purl.org/dc/elements/1.1/"
   xmlns:cc="http://creativecommons.org/ns#"
   xmlns:rdf="http://www.w3.org/1999/02/22-rdf-syntax-ns#"
   xmlns:svg="http://www.w3.org/2000/svg"
   xmlns="http://www.w3.org/2000/svg"
   viewBox="0 0 360.84412 57.965145"
   height="57.965145"
   width="360.84412"
   xml:space="preserve"
   id="svg2"
   version="1.1"><metadata
     id="metadata8"><rdf:RDF><cc:Work
         rdf:about=""><dc:format>image/svg+xml</dc:format><dc:type
           rdf:resource="http://purl.org/dc/dcmitype/StillImage" /><dc:title></dc:title></cc:Work></rdf:RDF></metadata><defs
     id="defs6" /><g
     transform="matrix(1.3333333,0,0,-1.3333333,-5.6358641,89.681277)"
     id="g10"><g
       transform="scale(0.1)"
       id="g12"><g
         transform="scale(10)"
         id="g14"><text
           id="text18"
           style="font-variant:normal;font-weight:bold;font-size:63.1875px;font-family:Arial;-inkscape-font-specification:Arial-BoldMT;writing-mode:lr-tb;fill:#040606;fill-opacity:1;fill-rule:nonzero;stroke:none"
           transform="matrix(1,0,0,-1,0,23.7887)"><tspan
             id="tspan16"
             y="0"
             x="0 37.4697 77.351501">PAY</tspan></text>
</g><g
         transform="scale(10)"
         id="g20"><text
           id="text24"
           style="font-variant:normal;font-weight:bold;font-size:63.1875px;font-family:Arial;-inkscape-font-specification:Arial-BoldMT;writing-mode:lr-tb;fill:#67b4e0;fill-opacity:1;fill-rule:nonzero;stroke:none"
           transform="matrix(1,0,0,-1,119.432,23.7887)"><tspan
             id="tspan22"
             y="0"
             x="0 42.146061 84.292122">EER</tspan></text>
</g><path
         id="path26"
         style="fill:#040606;fill-opacity:1;fill-rule:nonzero;stroke:none"
         d="m 2655.7,391.66 c 0,10.004 -3.08,16.809 -9.19,20.207 -6.14,3.43 -15.98,5.145 -29.48,5.145 h -20.81 v -50.028 h 22 c 10.32,0 18.07,1.024 23.22,3.086 9.5,3.758 14.26,10.965 14.26,21.59 z m -35.49,41.977 c 17.15,0 29.73,-1.653 37.72,-4.965 14.3,-5.957 21.43,-17.617 21.43,-35.027 0,-12.336 -4.51,-21.457 -13.48,-27.278 -4.76,-3.086 -11.41,-5.281 -19.99,-6.648 10.84,-1.723 18.72,-6.25 23.73,-13.598 5,-7.262 7.51,-14.383 7.51,-21.375 v -10.078 c 0,-3.223 0.09,-6.648 0.33,-10.293 0.25,-3.621 0.67,-6.035 1.2,-7.195 l 0.86,-1.711 h -22.79 c -0.14,0.48 -0.22,0.929 -0.35,1.367 -0.14,0.48 -0.2,0.969 -0.34,1.582 l -0.51,4.426 v 10.937 c 0,15.926 -4.36,26.461 -13.04,31.59 -5.13,2.949 -14.16,4.473 -27.08,4.473 h -19.19 v -54.375 h -24.34 v 138.168 z m 2.41,38.914 c -29.83,0 -55.3,-10.625 -76.46,-31.887 -21,-21.156 -31.53,-46.672 -31.53,-76.633 0,-30.164 10.46,-55.875 31.37,-77.144 21.05,-21.242 46.55,-31.867 76.62,-31.867 30.06,0 55.56,10.625 76.61,31.867 21.05,21.269 31.54,46.98 31.54,77.144 0,29.961 -10.49,55.477 -31.54,76.633 -21.1,21.262 -46.69,31.887 -76.61,31.887 z M 2748.6,364.23 c 0,-34.894 -12.28,-64.66 -36.85,-89.328 -24.58,-24.675 -54.27,-37.031 -89.13,-37.031 -34.87,0 -64.49,12.356 -88.96,37.031 -24.34,24.582 -36.51,54.356 -36.51,89.328 0,34.637 12.3,64.204 36.84,88.774 24.49,24.445 54.01,36.68 88.63,36.68 34.86,0 64.55,-12.235 89.13,-36.68 24.57,-24.453 36.85,-54.078 36.85,-88.774 v 0" /><g
         transform="scale(10)"
         id="g28" /></g></g></svg>