<svg xmlns="http://www.w3.org/2000/svg" width="1894" height="462" viewBox="0 0 1893.785 461.333"><defs><clipPath id="A"><path d="M0 760h2000V0H0z"/></clipPath></defs><g transform="matrix(1.333333 0 0 -1.333333 -586.179438 434.348708)"><path d="M439.635-20.238h1420.34v346H439.635z" fill="#0057d9"/><g clip-path="url(#A)" transform="translate(140.635 -227.238)"><g fill="#fff"><path d="M741.04 340.4c14.747 0 25.853 4.667 33.32 14s11.2 24.732 11.2 46.2-3.733 36.773-11.2 45.92c-7.28 9.333-18.387 14-33.32 14-14.747 0-25.853-4.667-33.32-14-7.28-9.333-10.92-24.828-10.92-46.48 0-21.28 3.64-36.587 10.92-45.92 7.467-9.148 18.573-13.72 33.32-13.72m0-37.24c-28.56 0-50.867 8.12-66.92 24.36s-24.08 40.508-24.08 72.8c0 31.734 7.84 55.813 23.52 72.24 15.867 16.612 38.36 24.92 67.48 24.92 28.56 0 50.867-8.12 66.92-24.36 16.24-16.053 24.36-40.227 24.36-72.52 0-31.733-7.933-55.907-23.8-72.52-15.68-16.614-38.173-24.92-67.48-24.92m208.405 110.6c-7.466 3.92-14.746 5.88-21.84 5.88-12.506 0-21.653-3.173-27.44-9.52s-8.68-17.08-8.68-32.2c0-13.067 2.707-23.053 8.12-29.96 5.414-6.72 14.467-10.08 27.16-10.08 6.907 0 12.414.933 16.52 2.8s6.16 4.48 6.16 7.84zm41.44 93.24V344.04c0-8.773-3.08-16.24-9.24-22.4s-14.28-10.827-24.36-14-20.813-4.76-32.2-4.76c-24.08 0-42.746 5.693-56 17.08-13.066 11.387-19.6 31.08-19.6 59.08 0 23.52 5.694 41.72 17.08 54.6 11.574 13.067 28.467 19.6 50.68 19.6 13.254 0 23.987-2.427 32.2-7.28V507zm172.315-58.24l-55.72-143.92c-13.63-35.093-31.73-52.64-54.32-52.64-9.7 0-18.1 1.68-25.2 5.04v33.88c5.6-2.052 11.1-3.08 16.52-3.08 5.6 0 10.27 1.587 14 4.76 3.92 3.173 7 8.4 9.24 15.68l-56.84 140.28h47.6l29.96-92.96 29.96 92.96zm54.42-145.88c-8.96 0-16.8.933-23.52 2.8-6.72 1.68-14.2 4.2-22.4 7.56v36.68c15.12-11.387 30.98-17.08 47.6-17.08 6.34 0 10.92 1.027 13.72 3.08 2.98 2.24 4.48 5.228 4.48 8.96 0 4.293-2.34 7.467-7 9.52-4.67 2.052-12.14 4.292-22.4 6.72-10.83 2.24-19.8 6.72-26.88 13.44-6.9 6.72-10.36 16.52-10.36 29.4 0 11.013 2.8 20.067 8.4 27.16s12.6 12.227 21 15.4a72.34 72.34 0 0 0 26.6 5.04c11.2 0 20.25-1.027 27.16-3.08 7.1-1.867 14-4.853 20.72-8.96v-32.76c-9.52 5.227-16.9 8.96-22.12 11.2-5.23 2.24-11.3 3.36-18.2 3.36s-12.04-1.12-15.4-3.36c-3.36-2.053-5.04-5.04-5.04-8.96 0-4.667 1.86-8.12 5.6-10.36 3.73-2.053 9.7-4.2 17.92-6.44 9.33-2.427 16.7-4.853 22.12-7.28 5.4-2.24 10.26-6.253 14.56-12.04 4.3-5.6 6.44-13.533 6.44-23.8-.38-16.053-6.44-27.813-18.2-35.28-11.76-7.28-26.7-10.92-44.8-10.92m129.48 0c-8.96 0-16.8.933-23.52 2.8-6.72 1.68-14.2 4.2-22.4 7.56v36.68c15.12-11.387 30.98-17.08 47.6-17.08 6.34 0 10.92 1.027 13.72 3.08 2.98 2.24 4.48 5.228 4.48 8.96 0 4.293-2.34 7.467-7 9.52-4.67 2.052-12.14 4.292-22.4 6.72-10.83 2.24-19.8 6.72-26.88 13.44-6.9 6.72-10.36 16.52-10.36 29.4 0 11.013 2.8 20.067 8.4 27.16s12.6 12.227 21 15.4a72.34 72.34 0 0 0 26.6 5.04c11.2 0 20.25-1.027 27.16-3.08 7.1-1.867 14-4.853 20.72-8.96v-32.76c-9.52 5.227-16.9 8.96-22.12 11.2-5.23 2.24-11.3 3.36-18.2 3.36s-12.04-1.12-15.4-3.36c-3.36-2.053-5.04-5.04-5.04-8.96 0-4.667 1.86-8.12 5.6-10.36 3.73-2.053 9.7-4.2 17.92-6.44 9.33-2.427 16.7-4.853 22.12-7.28 5.4-2.24 10.26-6.253 14.56-12.04 4.3-5.6 6.44-13.533 6.44-23.8-.38-16.053-6.44-27.813-18.2-35.28-11.76-7.28-26.7-10.92-44.8-10.92m148.5 118.72c-14.93 0-23.8-9.333-26.6-28h52.36c-1.3 10.08-4 17.267-8.12 21.56-3.92 4.293-9.8 6.44-17.64 6.44m1.68 31.92c44.24 0 66.08-28.84 65.52-86.52h-93.52c3.55-19.6 16.7-29.4 39.48-29.4 6.9 0 13.63.933 20.16 2.8 6.72 2.053 13.82 4.667 21.28 7.84V312.4c-15.3-6.347-32.48-9.52-51.52-9.52-14.37 0-26.97 2.893-37.8 8.68-10.82 5.974-19.22 14.468-25.2 25.48-5.97 11.013-8.96 23.987-8.96 38.92 0 24.64 6.07 43.68 18.2 57.12 12.32 13.627 29.78 20.44 52.36 20.44"/><path d="M1619.8 377.64c0-14.187 3-24.64 8.96-31.36 6.16-6.534 14.37-9.8 24.64-9.8 8.96 0 16.7 1.96 23.24 5.88v62.72c0 4.107-2.24 7.28-6.72 9.52s-10 3.36-16.52 3.36c-11.76 0-20.35-3.547-25.76-10.64-5.23-6.907-7.84-16.8-7.84-29.68m34.16 75.04c42.37 0 63.56-13.16 63.56-39.48V252.48h-40.88v58.8c-8.6-5.6-19.8-8.4-33.6-8.4-20.72 0-36.68 6.253-47.88 18.76s-16.8 30.333-16.8 53.48c0 27.813 6.63 47.693 19.88 59.64s31.83 17.92 55.72 17.92M562 207L379 322l183 115v-50l-103-65 103-65z"/></g><path d="M299 323l183 115-183 115v-50l103-65-103-65z" fill="#70c3f2"/></g></g></svg>