<svg width="254" height="51" viewBox="0 0 254 51" fill="none" xmlns="http://www.w3.org/2000/svg">
<g clip-path="url(#clip0_1_2819)">
<path d="M60.256 20.2555C59.5004 16.5083 57.9121 13.0773 55.707 10.1319C54.2651 8.21207 52.5535 6.50038 50.6336 5.05856C47.6883 2.85342 44.2495 1.2651 40.51 0.509489C38.8754 0.170237 37.1792 0.000610352 35.4443 0.000610352C33.7095 0.000610352 32.0133 0.170237 30.3864 0.509489C26.6392 1.2651 23.2004 2.85342 20.2551 5.06627C19.2296 5.8373 18.2581 6.67772 17.3791 7.59525C16.5927 8.38941 15.8679 9.23754 15.1894 10.1319C12.9766 13.0773 11.3959 16.5161 10.6403 20.2555C10.3011 21.8901 10.1315 23.5864 10.1315 25.3212C10.1315 27.056 10.0389 28.7214 9.85388 30.3792C9.46837 33.895 8.68192 37.2876 7.5408 40.5105C7.03192 41.9523 6.44594 43.3633 5.79827 44.7357C4.83449 46.7944 3.70878 48.7682 2.45972 50.6341H14.1871C15.4284 48.1976 16.5002 45.6609 17.3791 43.0394C18.2658 43.957 19.2373 44.8051 20.2551 45.5684C23.2004 47.7813 26.6392 49.3696 30.3864 50.1252C32.0133 50.4645 33.7095 50.6341 35.4443 50.6341C37.1792 50.6341 38.8754 50.4645 40.51 50.1252C44.2572 49.3696 47.6883 47.789 50.6336 45.5761C52.5458 44.142 54.2574 42.4303 55.6993 40.5105C57.9121 37.5651 59.5004 34.1264 60.256 30.3792C60.5953 28.7523 60.7649 27.056 60.7649 25.3212C60.7649 23.5864 60.5953 21.8901 60.256 20.2555ZM49.7701 30.3792C48.2511 34.6969 44.8278 38.1203 40.51 39.6392C38.9217 40.2021 37.2254 40.5105 35.4443 40.5105C33.6633 40.5105 31.967 40.2021 30.3864 39.6469C26.0609 38.128 22.6375 34.7046 21.1186 30.3792C20.5635 28.7985 20.2551 27.0946 20.2551 25.3212C20.2551 23.5478 20.5635 21.8439 21.1263 20.2555C22.6453 15.9301 26.0686 12.5144 30.3864 10.9955C31.967 10.4403 33.671 10.1319 35.4443 10.1319C37.2177 10.1319 38.9217 10.4403 40.51 11.0032C44.8278 12.5144 48.2434 15.9378 49.7623 20.2555C50.3252 21.8439 50.6336 23.5401 50.6336 25.3212C50.6336 27.1023 50.3252 28.7985 49.7701 30.3792Z" fill="#E20A13"/>
<path d="M35.4365 0.000630212C33.7017 0.000630212 32.0054 0.170257 30.3785 0.509509C26.6313 1.26512 23.1926 2.85344 20.2472 5.06629C19.2218 5.83732 18.2503 6.67774 17.3713 7.59526C16.5848 8.38942 15.8601 9.23756 15.1816 10.1319C12.9687 13.0773 11.3881 16.5161 10.6325 20.2556C10.2932 21.8901 10.1236 23.5864 10.1236 25.3212C10.1236 27.056 10.0311 28.7215 9.84604 30.3792C9.46053 33.8951 8.67408 37.2876 7.53295 40.5105C7.02407 41.9523 6.43809 43.3633 5.79043 44.7357C4.90374 43.3941 4.10958 41.9754 3.41566 40.5105C1.91215 37.357 0.871263 33.9567 0.362384 30.3792C0.115654 28.7292 0 27.0329 0 25.3212C0 23.6095 0.123365 21.9133 0.362384 20.2556C0.871263 16.6857 1.91215 13.2855 3.40795 10.1319C4.10958 8.66699 4.90374 7.25601 5.79043 5.899C7.06263 3.96372 8.51216 2.15951 10.1236 0.51722C10.2932 0.339883 10.4629 0.170257 10.6479 -0.00708008H35.4442L35.4365 0.000630212Z" fill="#12100B"/>
<path d="M35.4365 50.6344H14.1715C15.4129 48.198 16.4846 45.6613 17.3636 43.0398C18.2503 43.9573 19.2217 44.8055 20.2395 45.5688C23.1848 47.7816 26.6236 49.3699 30.3708 50.1256C31.9977 50.4648 33.694 50.6344 35.4288 50.6344H35.4365Z" fill="#12100B"/>
<path d="M70.8806 25.3212C70.8806 27.0329 70.7572 28.7291 70.5182 30.3792C70.0093 33.9567 68.9684 37.357 67.4649 40.5105C65.7687 44.0803 63.4941 47.3187 60.757 50.1098C60.5874 50.2871 60.4177 50.4567 60.2327 50.6341H35.4364C37.1712 50.6341 38.8675 50.4645 40.5021 50.1252C44.2493 49.3696 47.6803 47.789 50.6257 45.5761C52.5378 44.142 54.2495 42.4303 55.6913 40.5105C57.9042 37.5651 59.4925 34.1264 60.2481 30.3792C60.5874 28.7523 60.757 27.056 60.757 25.3212C60.757 23.5864 60.5874 21.8901 60.2481 20.2555C59.4925 16.5083 57.9042 13.0773 55.699 10.1319C54.2572 8.21207 52.5455 6.50038 50.6257 5.05856C47.6803 2.85342 44.2416 1.2651 40.5021 0.509489C38.8675 0.170237 37.1712 0.000610352 35.4364 0.000610352H60.2327C60.41 0.170237 60.5797 0.339863 60.757 0.52491C63.5019 3.31603 65.7764 6.56207 67.4727 10.1319C68.9685 13.2854 70.0093 16.6857 70.5182 20.2555C70.7649 21.9133 70.8806 23.6018 70.8806 25.3212Z" fill="#12100B"/>
<path d="M95.1604 37.2336C93.6107 37.2336 92.1997 36.9869 90.9275 36.4857C89.6553 35.9846 88.5758 35.2675 87.6737 34.3269C86.7793 33.3862 86.0854 32.2297 85.5997 30.8572C85.1139 29.4848 84.8672 27.9273 84.8672 26.1771V24.45C84.8672 22.7229 85.1139 21.1731 85.6151 19.8007C86.1163 18.4283 86.8102 17.2717 87.7046 16.3311C88.599 15.3904 89.6861 14.6656 90.9583 14.1568C92.2305 13.6479 93.6261 13.3934 95.1604 13.3934C96.6948 13.3934 98.1212 13.6402 99.3934 14.1413C100.666 14.6425 101.745 15.3673 102.647 16.3156C103.542 17.264 104.235 18.4205 104.721 19.7853C105.207 21.15 105.454 22.6997 105.454 24.45V26.1771C105.454 27.9042 105.207 29.454 104.706 30.8264C104.205 32.1988 103.511 33.3631 102.616 34.3114C101.722 35.2598 100.635 35.9846 99.3625 36.4857C98.0903 36.9869 96.6948 37.2336 95.1681 37.2336H95.1604ZM95.1604 33.5173C96.9723 33.5173 98.445 32.9005 99.5707 31.6745C100.696 30.4486 101.267 28.6135 101.267 26.1848V24.4577C101.267 23.2626 101.12 22.2063 100.82 21.2888C100.519 20.3712 100.103 19.6079 99.563 18.9988C99.0233 18.3897 98.3756 17.9271 97.62 17.6032C96.8644 17.2794 96.0471 17.1175 95.1681 17.1175C93.3331 17.1175 91.8527 17.7343 90.7347 18.9603C89.6167 20.1862 89.0616 22.0212 89.0616 24.45V26.1771C89.0616 28.5904 89.6321 30.4177 90.7733 31.6514C91.9144 32.8928 93.3793 33.5096 95.1681 33.5096L95.1604 33.5173Z" fill="#12100B"/>
<path d="M119.756 37.2338C118.23 37.2338 116.842 36.987 115.593 36.5013C114.344 36.0155 113.28 35.2985 112.408 34.3424C111.537 33.394 110.851 32.2375 110.365 30.8728C109.879 29.5158 109.633 27.9506 109.633 26.1772V24.4501C109.633 22.6999 109.879 21.1501 110.365 19.7854C110.851 18.4284 111.537 17.2718 112.424 16.3158C113.31 15.3674 114.374 14.6426 115.623 14.1415C116.873 13.6403 118.253 13.3936 119.756 13.3936C121.105 13.3936 122.324 13.594 123.426 13.995C124.521 14.3959 125.469 14.9279 126.264 15.6064C127.058 16.2772 127.705 17.0637 128.207 17.958C128.708 18.8524 129.039 19.8085 129.217 20.8263H124.837C124.66 20.3174 124.429 19.8394 124.143 19.3844C123.858 18.9295 123.503 18.5363 123.079 18.2048C122.663 17.8732 122.17 17.6111 121.622 17.4106C121.067 17.2101 120.45 17.1099 119.764 17.1099C117.991 17.1099 116.564 17.719 115.469 18.9373C114.374 20.1555 113.827 21.9905 113.827 24.4424V26.1695C113.827 27.3877 113.973 28.4517 114.274 29.3693C114.575 30.2868 114.984 31.0501 115.5 31.6592C116.017 32.2683 116.649 32.7232 117.374 33.0394C118.106 33.3478 118.9 33.502 119.764 33.502C121.113 33.502 122.216 33.1011 123.079 32.3069C123.943 31.5127 124.529 30.4487 124.837 29.1225H129.217C129.039 30.2945 128.7 31.3739 128.207 32.3609C127.705 33.3478 127.058 34.1959 126.248 34.913C125.439 35.63 124.498 36.1929 123.411 36.6092C122.331 37.0179 121.113 37.2261 119.764 37.2261L119.756 37.2338Z" fill="#12100B"/>
<path d="M130.736 13.7021H148.986V17.218H141.854V36.9255H137.868V17.218H130.736V13.7021Z" fill="#12100B"/>
<path d="M161.13 37.2338C159.58 37.2338 158.169 36.987 156.897 36.4859C155.625 35.9847 154.545 35.2676 153.643 34.327C152.749 33.3863 152.055 32.2298 151.569 30.8574C151.083 29.4849 150.836 27.9274 150.836 26.1772V24.4501C150.836 22.723 151.083 21.1732 151.584 19.8008C152.085 18.4284 152.779 17.2718 153.674 16.3312C154.568 15.3905 155.655 14.6658 156.928 14.1569C158.2 13.648 159.595 13.3936 161.13 13.3936C162.664 13.3936 164.09 13.6403 165.363 14.1415C166.635 14.6426 167.714 15.3674 168.616 16.3158C169.511 17.2641 170.205 18.4207 170.69 19.7854C171.176 21.1501 171.423 22.6999 171.423 24.4501V26.1772C171.423 27.9043 171.176 29.4541 170.675 30.8265C170.174 32.1989 169.48 33.3632 168.585 34.3116C167.691 35.2599 166.604 35.9847 165.332 36.4859C164.06 36.987 162.664 37.2338 161.137 37.2338H161.13ZM161.13 33.5174C162.942 33.5174 164.414 32.9006 165.54 31.6747C166.666 30.4487 167.236 28.6137 167.236 26.1849V24.4578C167.236 23.2627 167.09 22.2064 166.789 21.2889C166.488 20.3714 166.072 19.608 165.532 18.9989C164.993 18.3898 164.345 17.9272 163.589 17.6034C162.834 17.2795 162.016 17.1176 161.137 17.1176C159.302 17.1176 157.822 17.7344 156.704 18.9604C155.586 20.1863 155.031 22.0214 155.031 24.4501V26.1772C155.031 28.5905 155.601 30.4179 156.742 31.6515C157.884 32.8929 159.349 33.5097 161.137 33.5097L161.13 33.5174Z" fill="#12100B"/>
<path d="M176.427 13.7017H184.392C187.514 13.7017 189.781 14.3571 191.207 15.6755C192.634 16.994 193.351 18.8907 193.351 21.3657C193.351 23.6865 192.595 25.5447 191.092 26.9402C189.588 28.3358 187.352 29.0297 184.392 29.0297H180.405V36.9251H176.419V13.694L176.427 13.7017ZM180.413 17.2176V25.5138H184.399C185.988 25.5138 187.183 25.136 187.985 24.3881C188.779 23.6402 189.18 22.6302 189.18 21.3657C189.18 20.0395 188.794 19.0141 188.038 18.297C187.275 17.58 186.065 17.2176 184.407 17.2176H180.421H180.413Z" fill="#12100B"/>
<path d="M208.617 31.058H199.828L197.9 36.9333H193.721L202.017 13.7021H206.667L214.963 36.9333H210.583L208.625 31.058H208.617ZM200.984 27.5421H207.453L205.795 22.4687L204.238 17.6884L202.68 22.4687L200.992 27.5421H200.984Z" fill="#12100B"/>
<path d="M222.288 29.1378L213.66 13.7095H218.17L224.339 25.059L230.245 13.7095H234.555L226.258 29.1378V36.9329H222.272V29.1378H222.288Z" fill="#12100B"/>
<path d="M245.218 37.2338C242.319 37.2338 240.175 36.5785 238.78 35.26C237.384 33.9492 236.598 31.906 236.421 29.1457H240.669C240.777 30.7495 241.185 31.8752 241.879 32.5306C242.581 33.1859 243.691 33.5175 245.218 33.5175C246.745 33.5175 247.978 33.2168 248.718 32.6154C249.459 32.014 249.829 31.2815 249.829 30.4102C249.829 29.539 249.505 28.8759 248.865 28.4133C248.225 27.9429 247.415 27.5651 246.444 27.2644C245.472 26.9637 244.424 26.6784 243.29 26.4009C242.165 26.1233 241.108 25.7455 240.137 25.2598C239.165 24.774 238.356 24.1109 237.716 23.2705C237.076 22.4301 236.752 21.3044 236.752 19.8857C236.752 18.9604 236.929 18.0969 237.284 17.3182C237.639 16.5317 238.163 15.8455 238.857 15.2595C239.551 14.6735 240.43 14.2186 241.494 13.9025C242.558 13.5787 243.792 13.4167 245.21 13.4167C248.04 13.4167 250.114 14.0336 251.432 15.2595C252.751 16.4932 253.499 18.3513 253.668 20.8572H249.42C249.312 19.5233 248.934 18.5749 248.31 17.9967C247.678 17.4184 246.637 17.1331 245.172 17.1331C243.707 17.1331 242.581 17.403 241.918 17.9504C241.255 18.4978 240.923 19.1532 240.923 19.9319C240.923 20.7569 241.247 21.3815 241.887 21.8133C242.527 22.245 243.337 22.6074 244.308 22.8927C245.28 23.178 246.336 23.4633 247.462 23.7408C248.587 24.0184 249.644 24.4039 250.615 24.8974C251.587 25.3985 252.396 26.077 253.036 26.956C253.676 27.835 254 29.007 254 30.4873C254 31.482 253.823 32.3918 253.468 33.2245C253.113 34.0572 252.574 34.7665 251.857 35.3602C251.139 35.9616 250.23 36.4242 249.119 36.7558C248.009 37.0873 246.706 37.257 245.203 37.257L245.218 37.2338Z" fill="#12100B"/>
</g>
<defs>
<clipPath id="clip0_1_2819">
<rect width="254" height="51" fill="white"/>
</clipPath>
</defs>
</svg>
