<svg xmlns="http://www.w3.org/2000/svg" width="119" height="56" fill="none" xmlns:v="https://vecta.io/nano"><path fill="#0a0a0a" d="M0 0h119v56H0z"/><path fill-rule="evenodd" d="M84.67 0c0 3.21-2.583 5.81-5.768 5.81S73.134 3.21 73.134 0H0v56h119V0H84.67zM57.404 19.279c3.655 0 6.823 1.435 9.503 4.305 2.68 2.85 4.021 6.343 4.021 10.478s-1.35 7.637-4.049 10.507c-2.68 2.85-5.838 4.276-9.475 4.276-1.612 0-3.12-.33-4.526-.99-1.406-.68-2.4-1.35-2.98-2.012l-.844-1.047v3.375h-7.788V7.667h7.788v15.66c.075-.113.188-.254.338-.424s.477-.481.984-.935a10.83 10.83 0 0 1 1.687-1.246c.6-.377 1.377-.708 2.333-.99a10.104 10.104 0 0 1 3.008-.454zM51.05 39.697c1.35 1.473 2.98 2.209 4.893 2.209 1.93 0 3.56-.736 4.892-2.21 1.35-1.472 2.024-3.35 2.024-5.635s-.675-4.154-2.024-5.607c-1.331-1.473-2.962-2.21-4.892-2.21-1.912 0-3.543.737-4.893 2.21-1.33 1.453-1.996 3.323-1.996 5.607s.666 4.163 1.996 5.636zM88.08 7.7v40.467h7.98V7.7h-7.98zM37.247 34.266v6.883h-3.15v7.018h-7.34v-7.018H8.34v-1.425L20.156 7.7h7.715l-9.494 26.566h8.567l1.255-8.712h5.9v8.712h3.149zm37.672 13.9V13.529H82.9v34.639h-7.98zm26.319 0V7.7h7.981v40.467h-7.981z" fill="#00e281"/></svg>