<?xml version="1.0" encoding="UTF-8"?>
<svg width="81.787" height="54.627" version="1.1" viewBox="0 0 81.787027 54.626694" xmlns="http://www.w3.org/2000/svg" xmlns:cc="http://creativecommons.org/ns#" xmlns:dc="http://purl.org/dc/elements/1.1/" xmlns:rdf="http://www.w3.org/1999/02/22-rdf-syntax-ns#">
<metadata>
<rdf:RDF>
<cc:Work rdf:about="">
<dc:format>image/svg+xml</dc:format>
<dc:type rdf:resource="http://purl.org/dc/dcmitype/StillImage"/>
<dc:title/>
</cc:Work>
</rdf:RDF>
</metadata>
<path d="m56.278 42.113c3.3-2.9 6.6-6.5 8.9-10.8 3.8-1.3 8.8-2.7 11.7-2.3 2.5 0.4 1.8 2.8 1.3 4.5-4 5.5-11.1 12.4-17.7 16.9-1.5 0.8-4.2 1.7-4.7-0.6-0.4-1.7-0.1-4.4 0.5-7.7zm10.3-35.5c2.9-9.4-14.6-8.3-17.5 1-2.6 8.3-8 31.3-6.1 42 1.3 7.7 11.4 4.8 14.8 2.6-10.2 2.3 6.5-38.3 8.8-45.6zm-47 41.4c0.2-0.5 0.4-1.3 0.7-2.1 6-1 12.3-2.8 18.5-4.8-0.6 2.4-1.2 4.4-1.7 5.9-2.8 9.3-20.4 10.4-17.5 1zm22-9.1c-11.3 3.9-23.3 7.3-33.2 6.6-9-0.6-10.2-8.8-6.2-15.3-1.2 7.6 16.8 0.2 19.4-0.7 6.7-2.5 14.7-5.7 22.9-8.4-0.8 3.6-1.5 7.4-2 11.2-0.4 2.2-0.7 4.4-0.9 6.6zm-14.3-12.9c4-12.4 6.9-24.9 1.1-23.6 3.5-2.2 13.5-5.1 14.9 2.6 0.7 3.9 0.4 9.5-0.4 15.3-5.4 1.8-10.7 3.9-15.6 5.7zm2-10.8c1.1-4.5 1.6-8.3 1.1-10.5-0.7-2.2-3.2-1.2-4.3-0.7-7.9 6-17.4 16.2-22.4 23.6-0.6 1.6-1 4.3 1.2 4.6 3.5 0.5 10.3-1.8 14-3.1 2.7-5.5 6.5-10.1 10.4-13.9zm50.4 16c3.9-6.5 2.7-14.6-6.2-15.3-2.9-0.2-6-0.1-9.1 0.3-1.7 4.8-3.8 10.7-5.5 16.3l1.5-0.6c2.5-1 20.5-8.3 19.3-0.7z" clip-rule="evenodd" fill="#d70084" fill-rule="evenodd"/>
</svg>
