<?xml version="1.0" encoding="UTF-8"?>
<svg viewBox="0 0 157.2 60.5" xmlns="http://www.w3.org/2000/svg">
<g clip-rule="evenodd" fill-rule="evenodd">
<path d="M59.3 45.1c3.3-2.9 6.6-6.5 8.9-10.8C72 33 77 31.6 79.9 32c2.5.4 1.8 2.8 1.3 4.5-4 5.5-11.1 12.4-17.7 16.9-1.5.8-4.2 1.7-4.7-.6-.4-1.7-.1-4.4.5-7.7zM69.6 9.6c2.9-9.4-14.6-8.3-17.5 1-2.6 8.3-8 31.3-6.1 42 1.3 7.7 11.4 4.8 14.8 2.6-10.2 2.3 6.5-38.3 8.8-45.6zM22.6 51c.2-.5.4-1.3.7-2.1 6-1 12.3-2.8 18.5-4.8-.6 2.4-1.2 4.4-1.7 5.9-2.8 9.3-20.4 10.4-17.5 1zm22-9.1c-11.3 3.9-23.3 7.3-33.2 6.6-9-.6-10.2-8.8-6.2-15.3-1.2 7.6 16.8.2 19.4-.7 6.7-2.5 14.7-5.7 22.9-8.4-.8 3.6-1.5 7.4-2 11.2-.4 2.2-.7 4.4-.9 6.6zM30.3 29c4-12.4 6.9-24.9 1.1-23.6C34.9 3.2 44.9.3 46.3 8c.7 3.9.4 9.5-.4 15.3-5.4 1.8-10.7 3.9-15.6 5.7zm2-10.8c1.1-4.5 1.6-8.3 1.1-10.5-.7-2.2-3.2-1.2-4.3-.7-7.9 6-17.4 16.2-22.4 23.6-.6 1.6-1 4.3 1.2 4.6 3.5.5 10.3-1.8 14-3.1 2.7-5.5 6.5-10.1 10.4-13.9zm50.4 16c3.9-6.5 2.7-14.6-6.2-15.3-2.9-.2-6-.1-9.1.3-1.7 4.8-3.8 10.7-5.5 16.3l1.5-.6c2.5-1 20.5-8.3 19.3-.7z" fill="#D70084"/>
<path d="M153 56.2c0 .3-.1.5-.3.7-.2.2-.4.3-.7.3h-1.4c-.3 0-.5-.1-.7-.3-.2-.2-.3-.4-.3-.7V31.3c0-.3.1-.5.3-.7.2-.2.4-.3.7-.3h1.4c.3 0 .5.1.7.3.2.2.3.4.3.7v24.9zm-8.5 0c0 .3-.1.5-.3.7-.2.2-.4.3-.7.3h-1.4c-.3 0-.5-.1-.7-.3-.2-.2-.3-.4-.3-.7V31.3c0-.3.1-.5.3-.7.2-.2.4-.3.7-.3h1.4c.3 0 .5.1.7.3.2.2.3.4.3.7v24.9zm-8.2-22.7c0 .3-.1.5-.3.7-.2.2-.4.3-.7.3h-2.2c-.3 0-.5-.1-.7-.3-.2-.2-.3-.4-.3-.7v-2.2c0-.3.1-.5.3-.7.2-.2.4-.3.7-.3h2.2c.3 0 .5.1.7.3.2.2.3.4.3.7v2.2zm-.4 22.7c0 .3-.1.5-.3.7-.2.2-.4.3-.7.3h-1.4c-.3 0-.5-.1-.7-.3-.2-.2-.3-.4-.3-.7V38.5c0-.3.1-.5.3-.7.2-.2.4-.3.7-.3h1.4c.3 0 .5.1.7.3.2.2.3.4.3.7v17.7zm-23-7.2c.1 1.6.7 2.9 1.7 3.9s2.3 1.4 3.8 1.4c1.7 0 3-.5 3.9-1.6.9-1.1 1.5-2.5 1.6-4.3v-2.1c-.1-1.8-.7-3.3-1.6-4.3-.9-1.1-2.3-1.6-3.9-1.6s-2.9.5-3.8 1.5c-1 1-1.5 2.4-1.7 4.1-.1.4-.1.9-.1 1.5s0 1.1.1 1.5zm5.8-11.9c1.2 0 2.3.2 3.3.6 1 .4 1.9 1 2.7 1.8.8.8 1.4 1.7 1.8 2.8.5 1.1.7 2.4.8 3.8v2.4c-.1 1.4-.3 2.6-.8 3.8-.5 1.1-1.1 2.1-1.8 2.8-.8.8-1.6 1.4-2.7 1.8-1 .4-2.1.6-3.3.6-1.5 0-2.8-.3-3.7-.8-.9-.5-1.7-1.1-2.2-1.8v1.2c0 .3-.1.5-.3.7-.2.2-.4.3-.7.3h-1.4c-.3 0-.5-.1-.7-.3-.2-.2-.3-.4-.3-.7V31.3c0-.3.1-.5.3-.7.2-.2.4-.3.7-.3h1.4c.3 0 .5.1.7.3.2.2.3.4.3.7v8.4c.5-.6 1.2-1.2 2.1-1.8 1-.5 2.3-.8 3.8-.8zm-21 10.4V36.8l-8.2 10.7h8.2zm1.1 9.7c-.3 0-.5-.1-.7-.3-.2-.2-.3-.4-.3-.7V51H85.9c-.3 0-.5-.1-.7-.3-.2-.2-.3-.4-.3-.7v-1.4c0-.2 0-.4.1-.6.1-.2.2-.5.4-.7l11.9-15.7c.2-.3.4-.5.7-.7.2-.2.5-.2.8-.2h1.5c.3 0 .5.1.7.3.2.2.3.4.3.7v15.8h3.3c.3 0 .5.1.7.3.2.2.3.4.3.7v1.4c0 .3-.1.5-.3.7-.2.2-.4.3-.7.3h-3.3v5.2c0 .3-.1.5-.3.7-.2.2-.4.3-.7.3h-1.5z" fill="#201600"/>
</g>
</svg>
