<?xml version="1.0" encoding="utf-8"?>
<!-- Generator: Adobe Illustrator 16.0.3, SVG Export Plug-In . SVG Version: 6.00 Build 0)  -->
<!DOCTYPE svg PUBLIC "-//W3C//DTD SVG 1.1//EN" "http://www.w3.org/Graphics/SVG/1.1/DTD/svg11.dtd">
<svg version="1.1" id="Layer_1" xmlns="http://www.w3.org/2000/svg" xmlns:xlink="http://www.w3.org/1999/xlink" x="0px" y="0px"
	 width="276.661px" height="276.262px" viewBox="0 0 276.661 276.262" enable-background="new 0 0 276.661 276.262"
	 xml:space="preserve">
<path fill="#FFFFFF" d="M140.4,276.262c-45.854,0-89.049-5.785-124.916-16.729L4.138,256.07V23.93l11.347-3.462
	C51.352,9.522,94.547,3.738,140.4,3.738c45.852,0,89.046,5.785,124.913,16.73l11.348,3.462V256.07l-11.348,3.463
	C229.444,270.477,186.25,276.262,140.4,276.262"/>
<path fill="#FFCB05" d="M260.638,35.793C227.033,25.541,185.438,19.762,140.4,19.762c-45.037,0-86.634,5.778-120.24,16.032v208.413
	c33.606,10.255,75.203,16.032,120.24,16.032c45.038,0,86.633-5.777,120.237-16.032V35.793z"/>
<path d="M160.207,240.932c-1.25-0.046-2.485-0.287-3.671-0.719l-61.924-22.538c-3.013-1.097-5.42-3.302-6.774-6.208
	s-1.498-6.166-0.4-9.18l53.107-145.93c1.787-4.912,6.495-8.085,11.715-7.895c1.25,0.046,2.485,0.287,3.671,0.719l61.925,22.538
	c3.013,1.097,5.42,3.302,6.774,6.208c1.355,2.906,1.498,6.166,0.4,9.18l-53.106,145.93
	C170.137,237.949,165.427,241.122,160.207,240.932"/>
<path fill="#FFFFFF" d="M159.428,235.9c-0.405-0.071-0.811-0.18-1.202-0.323L96.3,213.039c-1.775-0.646-3.193-1.944-3.991-3.657
	c-0.799-1.713-0.882-3.633-0.236-5.409l53.105-145.927c1.177-3.233,4.482-5.147,7.862-4.551c0.405,0.071,0.81,0.179,1.202,0.323
	l61.926,22.538c1.775,0.646,3.193,1.944,3.99,3.657c0.8,1.713,0.883,3.634,0.237,5.409L167.29,231.35
	C166.113,234.583,162.808,236.496,159.428,235.9"/>
<path d="M138.854,213.811c1.381-3.792-0.574-7.984-4.366-9.364c-3.792-1.381-7.985,0.574-9.364,4.366
	c-1.381,3.792,0.574,7.984,4.366,9.364C133.281,219.558,137.474,217.603,138.854,213.811"/>
<path fill="#FF0000" d="M106.697,183.015c-0.776,2.134,0.324,4.492,2.457,5.269l55.135,20.066c2.133,0.776,4.492-0.323,5.269-2.456
	l15.652-43.014l-58.391-35.157L106.697,183.015z"/>
<path d="M210.524,81.301L155.39,61.234c-2.134-0.777-4.492,0.323-5.269,2.456l-21.705,59.645l58.392,35.157l26.173-71.923
	C213.756,84.436,212.657,82.077,210.524,81.301"/>
<path fill="#FFFFFF" d="M160.902,45.655l-0.284-0.354l-2.12-2.679c-1.123-1.024-2.912-1.185-4.243-0.381l-22.821,13.88
	c-8.006-5.23-16.771-9.45-26.187-12.47l-2.464-0.79c-1.566-0.503-3.31,0.104-4.074,1.417L55.41,118.567
	c-0.92,1.579-0.07,3.515,1.811,4.124l3.19,1.032c60.911,19.717,98.367,43.736,105.468,67.632c0.247,0.833,0.422,1.662,0.621,2.439
	c4.255,16.754,1.326,23.616,1.326,23.616l4.812-2.227l3.684-21.075l1.245,0.039c0.458-1.602,0.878-3.215,1.275-4.833
	c0.371,0.91,0.89,1.791,1.436,1.449c1.038-0.648,7.396-30.754,8.167-54.429C189.909,100.896,180.643,70.387,160.902,45.655"/>
<path fill="#00678F" d="M182.252,135.917c-4.728-31.769-19.272-58.634-44.81-76.798l17.978-10.856
	c0.153,0.138,0.298,0.279,0.449,0.418C175.229,72.934,183.645,102.27,182.252,135.917 M103.729,48.704l-40.532,69.545
	c59.289,19.192,101.272,44.101,109.405,71.468c0.281,0.944,0.522,1.892,0.723,2.842c1.543-5.403,2.756-10.967,3.591-16.672
	C185.377,118.085,154.133,64.87,103.729,48.704"/>
<path fill="#FFFFFF" d="M115.18,127.593c-15.507-2.016-26.483-16.273-24.467-31.78c2.016-15.508,16.272-26.484,31.778-24.469
	c15.509,2.017,26.484,16.274,24.468,31.781C144.943,118.632,130.687,129.609,115.18,127.593"/>
<path fill="#00678F" d="M122.372,116.272v6.607h-5.575v-6.71c-5.11-0.62-9.602-2.633-12.234-4.904l2.479-4.439
	c2.631,1.703,5.987,3.355,10.117,3.923v-8.466c-6.35-1.188-11.357-3.408-11.357-9.448c0-5.574,3.871-9.446,10.996-10.169v-6.607
	h5.575v6.711c3.718,0.464,6.866,1.703,9.034,2.994v6.091c-3.098-2.014-6.092-3.2-9.447-3.614v8.157
	c5.782,1.135,11.15,3.458,11.15,9.808C133.109,111.781,129.238,115.601,122.372,116.272 M117.158,95.571v-7.433
	c-3.354,0.258-5.523,1.497-5.523,3.768C111.635,94.281,113.906,95.003,117.158,95.571 M127.276,106.877
	c0-2.375-2.014-3.149-5.317-3.769v7.795C125.263,110.593,127.276,109.303,127.276,106.877"/>
<path d="M146.783,211.728c-0.479-0.175-1.003,0.149-1.038,0.657c-0.083,1.221-0.32,2.447-0.761,3.657
	c-0.439,1.208-1.047,2.302-1.768,3.289c-0.3,0.413-0.105,0.998,0.373,1.173l15.307,5.57c1.615,0.589,3.402-0.244,3.99-1.86
	l1.064-2.925c0.588-1.616-0.245-3.402-1.86-3.99L146.783,211.728z"/>
<path d="M120.388,202.12l-15.307-5.571c-1.615-0.588-3.401,0.245-3.99,1.86l-1.064,2.926c-0.588,1.615,0.245,3.402,1.86,3.99
	l15.308,5.571c0.479,0.174,1.004-0.149,1.038-0.658c0.083-1.221,0.321-2.448,0.76-3.656c0.441-1.209,1.048-2.302,1.769-3.291
	C121.061,202.88,120.866,202.294,120.388,202.12"/>
</svg>
