<?xml version="1.0" encoding="UTF-8"?>
<svg width="13.479mm" height="20.987mm" version="1.1" viewBox="0 0 47.760841 74.365951" xmlns="http://www.w3.org/2000/svg" xmlns:cc="http://creativecommons.org/ns#" xmlns:dc="http://purl.org/dc/elements/1.1/" xmlns:rdf="http://www.w3.org/1999/02/22-rdf-syntax-ns#">
<defs>
<clipPath id="a">
<rect x="-.49978" y=".24331" width="48.267" height="74.366" fill="#f00" stroke-width=".97412"/>
</clipPath>
</defs>
<metadata>
<rdf:RDF>
<cc:Work rdf:about="">
<dc:format>image/svg+xml</dc:format>
<dc:type rdf:resource="http://purl.org/dc/dcmitype/StillImage"/>
<dc:title/>
</cc:Work>
</rdf:RDF>
</metadata>
<path transform="translate(-.0056422 -.24331)" d="m24.044-0.015275c5.0952 0 6.6963 3.6546 8.0395 7.3035 0.56423 1.5495 13.805 37.809 14.203 38.897 0.10597 0.3036 0.03437 0.80195-0.43248 0.98239-0.46971 0.17758-7.3493 2.8526-7.7302 2.9958-0.38093 0.14607-0.80768-0.06587-0.94515-0.4468-0.1432-0.3752-2.9987-8.2801-3.3195-9.1623h-19.625c-0.30932 0.88214-3.1992 8.8042-3.3281 9.1623-0.13175 0.36374-0.54132 0.61005-0.94802 0.4468-0.4067-0.16039-7.312-2.8355-7.7245-2.9958-0.39525-0.15466-0.57568-0.60432-0.43821-0.98239 0.4869-1.3576 13.527-37.036 14.192-38.897 1.2946-3.5944 2.95-7.3035 8.0567-7.3035m-23.297 64.88c-0.41243 0-0.7418 0.34369-0.7418 0.76185v8.4749c0 0.41816 0.32937 0.75612 0.7418 0.75612h46.573c0.42102 0 0.75039-0.33796 0.75039-0.75612v-8.4749c0-0.41816-0.32937-0.76185-0.75039-0.76185h-46.573m23.251-53.04-6.6333 19.92h13.375l-6.6562-19.92zm99.536 32.662c-0.97666 0.32937-1.6211 0.40957-2.3887 0.40957-1.5867 0-2.466-0.62724-2.466-2.254 0-1.6955 1.117-2.2626 3.3109-2.2626 0.53559 0 1.0626 0.07733 1.3089 0.16325v1.2144c0 1.3089 0.0716 2.1681 0.23486 2.7295m5.6394 1.9419c-1.1714-1.7786-1.4779-2.8269-1.4779-5.0695v-4.5539c0-2.4517-0.28641-3.3367-0.9337-4.2303-0.90219-1.2659-2.4058-1.8158-5.1697-1.8158-1.9562 0-3.8551 0.21194-5.6938 0.68166l0.66447 3.2364c1.243-0.17471 2.5462-0.32364 3.4656-0.32364 2.9357 0 3.2708 0.42389 3.2708 2.6264v0.822c-0.65301-0.17471-1.3862-0.30073-2.2369-0.30073-4.4193 0-6.7536 2.1624-6.7536 5.7425 0 3.3567 2.4946 5.1869 5.5334 5.1869 1.1342 0 2.3199-0.20908 3.2594-0.59287 0.56709-0.24631 0.8134-0.39238 1.5466-0.86782 0.44108 0.64156 1.3261 1.2974 1.687 1.4206zm43.715-1.9419c-0.98239 0.32937-1.6154 0.40957-2.3887 0.40957-1.5924 0-2.4832-0.62724-2.4832-2.254 0-1.6955 1.1313-2.2626 3.3309-2.2626 0.53559 0 1.0654 0.07733 1.306 0.16325v1.2144c0 1.3089 0.0687 2.1681 0.23486 2.7295m5.6451 1.9419c-1.18-1.7786-1.4807-2.8269-1.4807-5.0695v-4.5539c0-2.4517-0.29214-3.3367-0.94515-4.2303-0.89074-1.2659-2.3972-1.8158-5.1697-1.8158-1.9533 0-3.8637 0.21194-5.7024 0.68166l0.65588 3.2364c1.2459-0.17471 2.5519-0.32364 3.4971-0.32364 2.9185 0 3.2651 0.42389 3.2651 2.6264v0.822c-0.65301-0.17471-1.3805-0.30073-2.2483-0.30073-4.425 0-6.7679 2.1624-6.7679 5.7425 0 3.3567 2.5004 5.1869 5.5535 5.1869 1.1485 0 2.3228-0.20908 3.2536-0.59287 0.57569-0.24631 0.81341-0.39238 1.5466-0.86782 0.4468 0.64156 1.3318 1.2974 1.6956 1.4206zm34.409 1.6211s-2.423-5.164-3.0159-6.3383c-0.66733-1.3232-1.286-2.2369-2.6493-2.5662v-0.07447c0.91365-0.17471 1.6411-0.72748 2.4374-2.4173 0.75326-1.6469 0.97666-2.002 1.4206-2.3944 0.43534-0.38952 1.0311-0.24918 1.0311-0.24918l0.2234-3.0445c-0.63297-0.08592-1.3347-0.08879-2.0593-0.04869-1.2029 0.0716-1.8244 0.41816-2.4173 1.0139-0.46399 0.45539-0.77904 1.137-1.1686 1.9189-0.41243 0.8535-0.73894 1.5409-1.1686 2.4087-0.42675 0.89074-0.62723 1.2917-1.7757 1.2917h-0.74753v-13.487h-4.425v23.987h4.425v-6.8968l0.60433-0.01146c1.2688 0 1.4922 0.31792 2.1624 1.6554 0.78477 1.5953 2.2884 5.2528 2.2884 5.2528zm-124.66 0h5.1067l-7.7245-23.586c-0.8134-0.27209-1.8187-0.44107-2.8927-0.44107-1.1714 0-1.5896 0.15466-2.5061 0.44107l-8.1741 23.586h4.9005s0.66161-2.0679 1.4406-4.6312h8.4663c0.75612 2.5605 1.3834 4.6312 1.3834 4.6312m-8.6066-8.5866s1.4149-4.7344 1.6354-5.4704c0.56136-1.9075 1.4149-4.9377 1.4149-4.9377h0.14034s0.79049 3.1391 1.306 4.9033c0.19476 0.7017 1.5466 5.5048 1.5466 5.5048zm57.033-2.698c-1.5609 0-2.8297 1.2745-2.8297 2.8355 0 1.5724 1.2688 2.8383 2.8297 2.8383 1.5638 0 2.8269-1.2659 2.8269-2.8383 0-1.5609-1.2631-2.8355-2.8269-2.8355m-37.256-12.702h-4.4365v23.984h4.4365zm88.143 10.508c2.4517 0.05155 2.7553 0.5585 2.7553 2.6149v10.864h4.3964v-11.244c0-2.4517-0.28641-3.3367-0.93943-4.2303-0.90219-1.2659-2.6751-1.8158-5.6738-1.8158-2.9672 0-4.8575 0.31505-7.2891 1.0397v16.251h4.4422v-13.272c1.1657-0.16898 1.3719-0.20622 2.3085-0.20622m-77.17-10.935c-2.7724 0-4.2818 0.54991-5.1697 1.813-0.65302 0.89646-0.94229 1.8015-0.94229 4.2589v2.0908h-2.2025v3.5859h2.2025v12.665h4.3993l-0.0115-12.665h4.3849v-3.5859h-4.3849l0.0115-1.9218c0-2.1996 0.33509-2.6264 3.2737-2.6264 0.31792 0 0.67593 0.01719 1.0568 0.04583l0.69312-3.4455c-1.0855-0.1432-2.1968-0.21481-3.3109-0.21481m35.297 0.2234c1.5094-0.08879 4.8833-0.21481 6.9999-0.21481 0.38665 0 0.78762 0.0029 1.1886 0.02291 4.1615 0 6.5473 3.0302 6.5473 6.5874 0 2.4202-1.1084 4.0269-3.7062 4.9835 3.056 0.67593 4.657 3.0617 4.657 5.9802 0 2.1423-0.60432 3.8436-1.7127 5.0036-1.4378 1.4149-3.6145 2.2082-6.513 2.2082-2.5777 0-5.8141-0.08019-7.461-0.17758zm6.9999 3.9295c-0.73321 0-1.6411 0.01432-2.5405 0.04582v5.7597h2.5433c1.0082 0 1.8187-0.28068 2.3715-0.822 0.527-0.50981 0.80195-1.2316 0.80195-2.0879 0-1.8416-0.9967-2.8841-2.8498-2.8956zm0.0916 16.506h0.19189c2.3113 0 3.7262-1.2287 3.7434-3.7033-0.0229-0.88787-0.36374-1.707-0.97379-2.2999-0.66734-0.6702-1.6125-1.0196-2.7209-1.0196h-2.8727v6.997c0.81054 0.01719 1.7041 0.02005 2.6321 0.02578" clip-path="url(#a)" fill="#ee2a23" stroke-width="2.8641"/>
</svg>
