<svg xmlns="http://www.w3.org/2000/svg" width="185" height="24" fill="#00122c" xmlns:v="https://vecta.io/nano"><path d="M137.26 18.918c1.008 0 1.825-.832 1.825-1.857s-.817-1.858-1.825-1.858-1.825.832-1.825 1.858.817 1.857 1.825 1.857zM32.267 18.43c-.816-.342-1.537-.831-2.065-1.466-.576-.635-1.009-1.369-1.345-2.2s-.48-1.76-.48-2.737.144-1.906.432-2.737.72-1.613 1.297-2.2a5.99 5.99 0 0 1 2.017-1.466c.817-.342 1.681-.538 2.69-.538.864 0 1.585.098 2.257.342a6.96 6.96 0 0 1 1.777.978c.528.391.913.929 1.201 1.515.336.587.528 1.271.624 1.955H37.31c-.096-.587-.384-1.075-.817-1.466s-.961-.587-1.585-.587c-1.057 0-1.825.391-2.353 1.124s-.769 1.76-.769 3.031.24 2.249.769 3.031c.48.782 1.297 1.124 2.353 1.124.72 0 1.297-.195 1.729-.538.432-.391.72-.929.864-1.711h3.362a5.36 5.36 0 0 1-.528 1.955 5.41 5.41 0 0 1-1.201 1.613 5.44 5.44 0 0 1-1.777 1.075 7.21 7.21 0 0 1-2.353.391 6.23 6.23 0 0 1-2.738-.489zM46.244 7.089c.48-.684 1.009-1.222 1.585-1.564s1.297-.538 2.209-.538a4.36 4.36 0 0 1 1.825.391c.528.244 1.009.587 1.393 1.026s.672.978.913 1.564.336 1.271.336 2.004v8.603h-3.458v-8.114c0-.733-.192-1.32-.576-1.76s-.961-.684-1.681-.684a2.41 2.41 0 0 0-1.873.831c-.48.538-.768 1.271-.768 2.2v7.528H42.69V.148h3.458v6.941h.096zm13.928 11.339c-.817-.342-1.537-.831-2.113-1.466a6.11 6.11 0 0 1-1.297-2.248c-.288-.88-.432-1.76-.432-2.737s.144-1.906.48-2.737.768-1.564 1.297-2.2a5.99 5.99 0 0 1 2.017-1.466c.768-.342 1.633-.538 2.594-.538 1.057 0 1.969.196 2.738.587.816.391 1.441.929 2.017 1.613.528.684.961 1.564 1.249 2.493.288.978.432 2.053.432 3.226H59.74c.144 1.027.48 1.857 1.009 2.444s1.297.88 2.305.88c.672 0 1.201-.147 1.633-.44.384-.293.72-.684.864-1.173h3.41c-.096.586-.336 1.124-.624 1.662-.336.538-.721.978-1.201 1.369s-1.105.733-1.777.929c-.672.244-1.441.342-2.257.342-1.105 0-2.065-.196-2.93-.538zm.528-9.971c-.48.489-.768 1.222-.96 2.053h5.763c-.048-.831-.336-1.515-.816-2.053s-1.153-.782-1.921-.782c-.913.049-1.585.293-2.065.782zm13.593 9.973c-.816-.342-1.537-.831-2.065-1.466-.576-.635-1.009-1.369-1.345-2.2s-.48-1.76-.48-2.737.144-1.906.432-2.737.72-1.613 1.297-2.2a5.99 5.99 0 0 1 2.017-1.466 6.78 6.78 0 0 1 2.69-.538c.864 0 1.585.098 2.257.342s1.249.587 1.777.978.913.929 1.201 1.515c.336.587.528 1.271.624 1.955h-3.362c-.096-.587-.384-1.075-.817-1.466s-.961-.587-1.585-.587c-1.057 0-1.825.391-2.353 1.124s-.769 1.76-.769 3.031.24 2.249.769 3.031c.48.782 1.297 1.124 2.353 1.124.721 0 1.297-.195 1.729-.538.432-.391.72-.929.865-1.711h3.314a5.36 5.36 0 0 1-.528 1.955c-.288.587-.672 1.124-1.201 1.613a5.44 5.44 0 0 1-1.777 1.075 7.21 7.21 0 0 1-2.354.391c-.96.049-1.873-.147-2.69-.489zm13.881-4.302v4.448h-3.41V.148h3.41v10.216l4.611-4.986h4.13l-4.803 5.035 5.379 8.163h-4.178l-3.65-6.012-1.489 1.564zm13.111 4.302c-.816-.342-1.536-.831-2.161-1.466-.576-.635-1.057-1.369-1.393-2.2s-.48-1.76-.48-2.737.144-1.906.48-2.737.816-1.613 1.393-2.2c.576-.635 1.297-1.124 2.161-1.466.817-.342 1.729-.538 2.738-.538s1.921.196 2.738.538a6.55 6.55 0 0 1 2.161 1.466c.576.635 1.057 1.369 1.393 2.2s.48 1.76.48 2.737-.144 1.906-.48 2.737-.817 1.613-1.393 2.2c-.576.636-1.297 1.124-2.161 1.466-.817.342-1.729.538-2.738.538a7.01 7.01 0 0 1-2.738-.538zm5.188-3.324c.576-.782.864-1.808.864-3.128s-.288-2.346-.864-3.128a2.9 2.9 0 0 0-2.45-1.222c-1.057 0-1.873.391-2.449 1.222-.577.782-.865 1.857-.865 3.128s.288 2.346.865 3.128 1.392 1.173 2.449 1.173 1.873-.391 2.45-1.173zm14.408 1.906h-.096c-.432.587-.96 1.075-1.489 1.418-.576.342-1.296.489-2.209.489-1.441 0-2.546-.44-3.362-1.271-.769-.88-1.153-2.004-1.153-3.47V5.379h3.41v8.212c0 .782.192 1.369.529 1.76s.912.635 1.633.635c.816 0 1.441-.293 1.921-.831s.72-1.271.72-2.151V5.379h3.458v13.198h-3.314v-1.564h-.048zm6.676-11.635V1.223h3.362v4.155h2.21v2.297h-2.21v6.99c0 .489.096.831.337 1.027s.528.293.96.293h.673c.096 0 .24 0 .336-.049v2.64c-.192 0-.336.049-.577.049-.192 0-.432.049-.672.049h-.913c-.432 0-.816-.049-1.248-.147a2.84 2.84 0 0 1-1.105-.489 2.68 2.68 0 0 1-.816-.978c-.193-.391-.337-.929-.337-1.564V7.675h-1.777V5.377h1.777zm16.522 13.003c-.72-.342-1.345-.831-1.873-1.466a6.01 6.01 0 0 1-1.153-2.2c-.24-.831-.384-1.76-.384-2.786a10.27 10.27 0 0 1 .384-2.786c.288-.831.673-1.613 1.153-2.2.528-.635 1.153-1.124 1.873-1.466s1.585-.538 2.546-.538c1.44 0 2.641.391 3.554 1.124s1.489 1.809 1.729 3.177h-1.537c-.192-.978-.577-1.76-1.249-2.248-.624-.489-1.441-.733-2.449-.733-.769 0-1.393.147-1.97.44-.528.293-1.008.684-1.344 1.222-.337.489-.625 1.124-.769 1.809-.192.684-.24 1.417-.24 2.2s.096 1.515.288 2.2.432 1.271.817 1.809c.336.538.816.929 1.344 1.222s1.201.44 1.922.44c1.104 0 2.017-.342 2.689-.978s1.057-1.515 1.201-2.591h1.489c-.144 1.515-.673 2.688-1.633 3.617-.913.88-2.161 1.32-3.746 1.32-1.057-.049-1.922-.244-2.642-.587zm12.824 0c-.769-.342-1.393-.831-1.921-1.466s-.913-1.369-1.201-2.2-.432-1.76-.432-2.786a8.68 8.68 0 0 1 .432-2.786c.288-.831.672-1.613 1.201-2.2.528-.635 1.152-1.124 1.921-1.466a6.09 6.09 0 0 1 2.545-.538 6.09 6.09 0 0 1 2.546.538c.72.342 1.393.831 1.921 1.466s.913 1.369 1.201 2.2.384 1.76.384 2.786a10.27 10.27 0 0 1-.384 2.786c-.288.831-.673 1.613-1.201 2.2a5.21 5.21 0 0 1-1.921 1.466c-.721.342-1.585.538-2.546.538-.912 0-1.777-.196-2.545-.538zm4.467-1.222c.576-.293 1.008-.684 1.392-1.222a4.74 4.74 0 0 0 .817-1.809c.192-.684.288-1.417.288-2.2a8.11 8.11 0 0 0-.288-2.2 6.85 6.85 0 0 0-.817-1.809c-.384-.538-.816-.929-1.392-1.222s-1.201-.44-1.922-.44-1.393.147-1.921.44a4.16 4.16 0 0 0-1.393 1.222c-.385.538-.672 1.124-.864 1.809a8.11 8.11 0 0 0-.288 2.2c0 .782.096 1.515.288 2.2s.48 1.271.864 1.809a4.15 4.15 0 0 0 1.393 1.222c.528.293 1.201.44 1.921.44s1.393-.147 1.922-.44zm7.925-11.925v2.004h.048a5.77 5.77 0 0 1 1.585-1.662c.624-.44 1.441-.635 2.401-.635.817 0 1.537.196 2.162.587s1.056 1.026 1.344 1.809h.049a4.77 4.77 0 0 1 1.729-1.809c.721-.44 1.537-.635 2.449-.635a3.92 3.92 0 0 1 1.537.293c.48.196.913.44 1.249.782s.624.782.816 1.32.288 1.124.288 1.76v9.532h-1.537V9.241c0-.978-.24-1.711-.768-2.2s-1.201-.684-1.969-.684a3.9 3.9 0 0 0-1.345.244c-.432.196-.816.44-1.105.733s-.576.733-.768 1.173a4.12 4.12 0 0 0-.288 1.564v8.505h-1.585V9.241c0-.978-.24-1.711-.769-2.2-.48-.489-1.104-.684-1.873-.684a3.18 3.18 0 0 0-1.345.293 4.63 4.63 0 0 0-1.2.782c-.337.342-.625.733-.817 1.222-.192.44-.288.978-.288 1.515v8.407h-1.585V5.233h1.585zM15.409 12.024l6.148-10.949c.144-.244.144-.489 0-.733C21.413.147 21.173 0 20.932 0H8.253c-.24 0-.48.147-.624.342L1.096 11.633c-.144.244-.144.538 0 .733l6.532 11.291c.144.244.384.342.624.342h12.68c.24 0 .48-.147.624-.342.144-.244.144-.489 0-.733l-6.148-10.9zm-.817-1.466L9.501 1.466h10.23l-5.139 9.092zM8.205 2.2l5.523 9.825-5.523 9.825-5.667-9.825L8.205 2.2zm1.297 20.334l5.091-9.092 5.091 9.092H9.501z"/></svg>