<?xml version="1.0" encoding="UTF-8" standalone="no"?>
<svg
   xmlns:dc="http://purl.org/dc/elements/1.1/"
   xmlns:cc="http://creativecommons.org/ns#"
   xmlns:rdf="http://www.w3.org/1999/02/22-rdf-syntax-ns#"
   xmlns:svg="http://www.w3.org/2000/svg"
   xmlns="http://www.w3.org/2000/svg"
   xmlns:sodipodi="http://sodipodi.sourceforge.net/DTD/sodipodi-0.dtd"
   xmlns:inkscape="http://www.inkscape.org/namespaces/inkscape"
   width="639.95001"
   height="647.79999"
   viewBox="0 0 639.95001 647.79999"
   version="1.1"
   id="svg30"
   sodipodi:docname="icon.svg"
   inkscape:version="0.92.5 (2060ec1f9f, 2020-04-08)">
  <metadata
     id="metadata34">
    <rdf:RDF>
      <cc:Work
         rdf:about="">
        <dc:format>image/svg+xml</dc:format>
        <dc:type
           rdf:resource="http://purl.org/dc/dcmitype/StillImage" />
        <dc:title>Boost Logo White</dc:title>
      </cc:Work>
    </rdf:RDF>
  </metadata>
  <sodipodi:namedview
     pagecolor="#ffffff"
     bordercolor="#666666"
     borderopacity="1"
     objecttolerance="10"
     gridtolerance="10"
     guidetolerance="10"
     inkscape:pageopacity="0"
     inkscape:pageshadow="2"
     inkscape:window-width="1920"
     inkscape:window-height="1009"
     id="namedview32"
     showgrid="false"
     inkscape:zoom="0.27348746"
     inkscape:cx="1521.8765"
     inkscape:cy="-89.299074"
     inkscape:window-x="0"
     inkscape:window-y="0"
     inkscape:window-maximized="1"
     inkscape:current-layer="Boost-Logo-White" />
  <!-- Generator: Sketch 43.2 (39069) - http://www.bohemiancoding.com/sketch -->
  <title
     id="title2">Boost Logo White</title>
  <desc
     id="desc4">Created with Sketch.</desc>
  <defs
     id="defs6" />
  <g
     id="Page-1"
     style="fill:none;fill-rule:evenodd;stroke:none;stroke-width:1"
     transform="translate(-0.21,-0.21)">
    <g
       id="Boost-Logo-White"
       style="fill-rule:nonzero">
      <path
         d="M 557.28,319.34 C 507.34,236.28 425.9,234.02 413.9,234.31 c 0.08,-11.57 -2.34,-93.65 -84.49,-143.02 -1.26,-0.87 -31.52,-21.23 -78.17,-21.23 -30.19,0 -60.48,8.45 -89.9,25.05 -52.3,27.8 -70.73,84.52 -75.13,101.25 -2.57,9.77 -3.76,18.44 -4.75,34.75 l 0.01,187.93 c 0,1.04 -0.11,14.44 3.1,27.02 2.31,9.06 3.43,13.76 7.27,23.39 6.72,16.91 20.11,36.98 34.11,51.13 l 2.83,2.84 c 17.73,17.44 30.58,24.6 41.83,29.73 9.43,4.31 21.06,7.98 30.19,10.26 13.03,3.25 25.9,3.32 26,3.32 h 190.61 l 0.18,-0.01 c 15.85,-0.97 24.49,-2.17 34.27,-4.73 16.73,-4.4 73.46,-22.83 101.12,-74.9 53.76,-95.25 4.58,-167.38 4.3,-167.75 z"
         id="Shape"
         inkscape:connector-curvature="0" />
      <path
         d="m 498.15,354.78 c -13.88,-27.02 -38.02,-44.16 -71.74,-50.94 -2.55,-0.52 -5.42,-0.82 -8.19,-1.12 l -3.71,-0.42 c -2.22,-0.27 -5.36,-0.58 -10.63,-0.58 l -2.89,0.03 -54.58,-0.07 0.08,-54.3 c 0.13,-7.12 -0.23,-11 -0.55,-13.6 l -0.42,-3.75 c -0.28,-2.66 -0.59,-5.62 -1.12,-8.21 -6.78,-33.73 -23.92,-57.86 -50.93,-71.74 -20.74,-10.66 -39.73,-11.02 -39.92,-11.02 l -3.03,-0.02 c -5.28,0 -9.33,0.26 -13.97,0.89 -88.77,11.98 -87.77,97.29 -87.68,100.92 v 158.28 c 0,31.75 8.68,56.91 25.79,74.78 17.61,16.83 42.72,25.46 74.45,25.46 l 159.05,0.01 c 9.01,0 88.64,-2.46 100.14,-87.67 0.74,-5.42 0.97,-10 0.88,-16.92 -0.01,-0.24 -0.37,-19.25 -11.03,-40.01 z"
         id="path9"
         inkscape:connector-curvature="0"
         style="fill:#ffffff" />
      <path
         d="M 544.06,0.21 H 96.32 C 43.24,0.21 0.21,43.24 0.21,96.32 V 551.9 c 0,53.09 43.03,96.11 96.11,96.11 h 447.74 c 53.08,0 96.1,-43.02 96.1,-96.11 V 96.31 c 0,-53.07 -43.03,-96.1 -96.1,-96.1 z m 8.92,486.89 c -27.66,52.07 -84.4,70.49 -101.12,74.9 -9.77,2.56 -18.42,3.76 -34.27,4.73 l -0.18,0.01 H 226.8 c -0.1,0 -12.97,-0.07 -26,-3.32 -9.13,-2.28 -20.76,-5.95 -30.19,-10.26 -11.24,-5.13 -24.09,-12.29 -41.83,-29.73 l -2.83,-2.84 c -14,-14.15 -27.39,-34.22 -34.11,-51.13 -3.84,-9.63 -4.96,-14.33 -7.27,-23.39 -3.21,-12.58 -3.1,-25.98 -3.1,-27.02 L 81.46,231.12 c 0.99,-16.31 2.19,-24.99 4.75,-34.75 4.4,-16.73 22.82,-73.45 75.13,-101.25 29.41,-16.6 59.7,-25.05 89.89,-25.05 46.65,0 76.91,20.37 78.17,21.23 82.16,49.36 84.58,131.44 84.49,143.02 12,-0.29 93.44,1.97 143.38,85.03 0.29,0.36 49.47,72.49 -4.29,167.75 z"
         id="path26"
         inkscape:connector-curvature="0"
         style="fill:#ffffff" />
    </g>
  </g>
</svg>
