<?xml version="1.0" encoding="UTF-8" standalone="no"?>
<svg
   xmlns:dc="http://purl.org/dc/elements/1.1/"
   xmlns:cc="http://creativecommons.org/ns#"
   xmlns:rdf="http://www.w3.org/1999/02/22-rdf-syntax-ns#"
   xmlns:svg="http://www.w3.org/2000/svg"
   xmlns="http://www.w3.org/2000/svg"
   xmlns:sodipodi="http://sodipodi.sourceforge.net/DTD/sodipodi-0.dtd"
   xmlns:inkscape="http://www.inkscape.org/namespaces/inkscape"
   width="48.000004"
   height="26"
   viewBox="0 0 48.000004 26"
   version="1.1"
   id="svg6"
   sodipodi:docname="exxogatee_icon.svg"
   style="fill:none"
   inkscape:version="0.92.5 (2060ec1f9f, 2020-04-08)">
  <metadata
     id="metadata12">
    <rdf:RDF>
      <cc:Work
         rdf:about="">
        <dc:format>image/svg+xml</dc:format>
        <dc:type
           rdf:resource="http://purl.org/dc/dcmitype/StillImage" />
        <dc:title></dc:title>
      </cc:Work>
    </rdf:RDF>
  </metadata>
  <defs
     id="defs10" />
  <sodipodi:namedview
     pagecolor="#ffffff"
     bordercolor="#666666"
     borderopacity="1"
     objecttolerance="10"
     gridtolerance="10"
     guidetolerance="10"
     inkscape:pageopacity="0"
     inkscape:pageshadow="2"
     inkscape:window-width="1920"
     inkscape:window-height="1080"
     id="namedview8"
     showgrid="false"
     inkscape:zoom="1.2482014"
     inkscape:cx="139"
     inkscape:cy="13"
     inkscape:window-x="0"
     inkscape:window-y="125"
     inkscape:window-maximized="1"
     inkscape:current-layer="svg6" />
  <path
     d="M 0,8.97982 V 25.8964 C 0,25.9536 0.04637141,26 0.10357281,26 H 9.7146138 c 0.0572,0 0.10357,-0.0464 0.10357,-0.1036 V 13.9727 c 0,-0.0572 0.04637,-0.1036 0.10357,-0.1036 H 38.078204 c 0.0572,0 0.1036,0.0464 0.1036,0.1036 v 11.9237 c 0,0.0572 0.0464,0.1036 0.1036,0.1036 h 9.611 c 0.0572,0 0.1036,-0.0464 0.1036,-0.1036 V 8.97982 c 0,-0.0572 -0.0464,-0.10358 -0.1036,-0.10358 h -8.9641 c -0.0849,0 -0.1337,-0.09666 -0.0833,-0.16504 l 6.302,-8.546159 C 45.201404,0.0966607 45.152604,0 45.067704,0 h -9.0179 c -0.0315,0 -0.0612,0.0143245 -0.0809,0.0389265 l -7.0287,8.7983935 c -0.0197,0.0246 -0.0494,0.03892 -0.0809,0.03892 h -9.7186 c -0.0315,0 -0.0612,-0.01432 -0.0809,-0.03892 l -7.0287,-8.7983931 C 12.011404,0.0143249 11.981704,0 11.950204,0 H 2.9323338 c -0.08496,0 -0.13378,0.0966604 -0.08335,0.16504 l 6.30204,8.54616 c 0.05043,0.06838 0.00161,0.16504 -0.08335,0.16504 H 0.10357281 C 0.04637141,8.87624 0,8.92262 0,8.97982 Z"
     id="path4"
     inkscape:connector-curvature="0"
     style="fill:#000000" />
</svg>
