<svg xmlns="http://www.w3.org/2000/svg" width="278" height="26" viewBox="0 0 278 26" fill="none">
<path fill-rule="evenodd" clip-rule="evenodd" d="M209.927 2.74612C207.735 3.24396 206.275 4.44601 205.226 6.61735C204.701 7.70415 198.717 22.553 198.529 23.2356C198.443 23.55 198.63 23.5692 201.293 23.5204L204.149 23.468L204.903 21.5241L205.658 19.58L213.405 19.5779L221.152 19.5757L221.936 21.5693L222.719 23.5629H225.6C227.184 23.5629 228.445 23.4987 228.401 23.4205C228.357 23.3423 226.912 19.7323 225.191 15.3986C223.469 11.0648 221.804 7.00752 221.49 6.38229C220.016 3.44598 217.998 2.48164 213.379 2.50632C212.03 2.51353 210.477 2.62138 209.927 2.74612ZM70.2689 3.13896C67.5545 3.92824 65.6784 5.99173 65.1844 8.73153C65.081 9.30531 65 12.7856 65 16.6585V23.5629H77.5363H90.0726V21.1895V18.8162H80.1707H70.2689V17.1074V15.3986H80.1707H90.0726V13.2151V11.0316H80.146H70.2195L70.3361 10.1421C70.4791 9.05221 70.8178 8.48489 71.5877 8.04515C72.1246 7.73852 72.9667 7.70396 81.1246 7.65308L90.0726 7.59725V5.23226V2.86726L80.5795 2.88416C73.5763 2.89669 70.8721 2.96352 70.2689 3.13896ZM91.0422 2.95346C91.0422 3.00093 92.9253 5.31694 95.2271 8.10022C98.8666 12.5012 99.3817 13.2012 99.1788 13.4716C99.0505 13.6427 97.1248 15.9832 94.8997 18.6728L90.8538 23.5629L93.9913 23.5494L97.1286 23.5357L100.581 19.2886C102.479 16.9526 104.074 15.0369 104.124 15.0312C104.173 15.0253 105.804 16.9428 107.748 19.2918L111.281 23.5629H114.362C117.277 23.5629 117.429 23.545 117.175 23.2306C116.422 22.298 109.638 14.0983 109.281 13.6897L108.866 13.2151L112.412 8.94304C114.362 6.59342 116.286 4.26526 116.689 3.76913L117.42 2.86726H114.338H111.256L107.766 7.09183C105.846 9.41543 104.22 11.3322 104.154 11.3515C104.087 11.3707 102.479 9.47258 100.581 7.13322L97.1286 2.87998L94.0854 2.87371C92.4115 2.87011 91.0422 2.90599 91.0422 2.95346ZM117.811 2.95346C117.811 3.00093 119.694 5.31694 121.996 8.10022C125.636 12.5012 126.151 13.2012 125.948 13.4716C125.819 13.6427 123.894 15.9832 121.669 18.6728L117.623 23.5629L120.76 23.5494L123.898 23.5357L127.35 19.2886C129.248 16.9526 130.842 15.0369 130.892 15.0312C130.942 15.0253 132.573 16.9428 134.517 19.2918L138.05 23.5629H141.131C144.046 23.5629 144.197 23.545 143.943 23.2306C143.191 22.298 136.407 14.0983 136.05 13.6897L135.635 13.2151L139.181 8.94304C141.131 6.59342 143.055 4.26526 143.458 3.76913L144.189 2.86726H141.107H138.025L134.534 7.09183C132.615 9.41543 130.989 11.3322 130.923 11.3515C130.856 11.3707 129.248 9.47258 127.35 7.13322L123.898 2.87998L120.854 2.87371C119.181 2.87011 117.811 2.90599 117.811 2.95346ZM150.576 3.13896C147.861 3.92824 145.985 5.99173 145.491 8.73153C145.388 9.30531 145.307 12.7856 145.307 16.6585V23.5629L154.709 23.5606C161.98 23.5589 164.317 23.5008 165.02 23.3045C167.468 22.62 169.37 20.862 170.012 18.6907C170.354 17.5338 170.379 16.9384 170.379 10.1572V2.86726L160.886 2.88416C153.883 2.89669 151.179 2.96352 150.576 3.13896ZM177.708 3.13896C174.993 3.92824 173.117 5.99173 172.623 8.73153C172.52 9.30531 172.439 12.7856 172.439 16.6585V23.5629H184.975H197.512V17.4871V11.4113H192.334H187.156V13.6897V15.9682H189.699H192.243V17.3922V18.8162H184.964H177.685L177.742 14.108C177.805 8.89443 177.841 8.72203 179.027 8.04515C179.564 7.73852 180.406 7.70396 188.564 7.65308L197.512 7.59725V5.23226V2.86726L188.019 2.88416C181.015 2.89669 178.311 2.96352 177.708 3.13896ZM225.432 5.24061V7.61396H230.791H236.151V15.5884V23.5629H238.786H241.42V15.5884V7.61396H246.78H252.14V5.24061V2.86726H238.786H225.432V5.24061ZM258.196 3.13896C255.482 3.92824 253.606 5.99173 253.112 8.73153C253.008 9.30531 252.927 12.7856 252.927 16.6585V23.5629H265.464H278V21.1895V18.8162H268.098H258.196V17.1074V15.3986H268.098H278V13.2151V11.0316H268.073H258.147L258.264 10.1421C258.406 9.05221 258.745 8.48489 259.515 8.04515C260.052 7.73852 260.894 7.70396 269.052 7.65308L278 7.59725V5.23226V2.86726L268.507 2.88416C261.504 2.89669 258.799 2.96352 258.196 3.13896ZM165.11 12.284C165.11 19.1638 165.707 18.6924 156.889 18.7841L150.576 18.8498L150.586 14.4185C150.593 11.4998 150.67 9.7665 150.813 9.34062C151.065 8.58894 151.727 8.01876 152.596 7.80421C152.934 7.72105 155.888 7.64415 159.16 7.63333L165.11 7.61396V12.284ZM216.225 8.10705C216.593 8.39451 217.051 9.30892 217.933 11.522L219.139 14.5442L213.506 14.5943C210.408 14.622 207.836 14.6055 207.791 14.5578C207.674 14.4357 209.945 8.77254 210.289 8.32882C210.702 7.79491 211.592 7.62801 213.778 7.67358C215.422 7.70795 215.799 7.77478 216.225 8.10705Z" fill="#000000"/>
<path d="M-3.8147e-06 8.97982V25.8964C-3.8147e-06 25.9536 0.0463676 26 0.103569 26H9.71461C9.77181 26 9.81818 25.9536 9.81818 25.8964V13.9727C9.81818 13.9155 9.86455 13.8691 9.92175 13.8691H38.0782C38.1354 13.8691 38.1818 13.9155 38.1818 13.9727V25.8964C38.1818 25.9536 38.2282 26 38.2854 26H47.8964C47.9536 26 48 25.9536 48 25.8964V8.97982C48 8.92262 47.9536 8.87624 47.8964 8.87624H38.9323C38.8474 8.87624 38.7986 8.77958 38.849 8.7112L45.151 0.165041C45.2014 0.0966607 45.1526 0 45.0677 0H36.0498C36.0183 0 35.9886 0.0143245 35.9689 0.0389265L28.9402 8.83732C28.9205 8.86192 28.8908 8.87624 28.8593 8.87624H19.1407C19.1092 8.87624 19.0795 8.86192 19.0598 8.83732L12.0311 0.0389269C12.0114 0.0143249 11.9817 0 11.9502 0H2.93233C2.84737 0 2.79855 0.0966604 2.84898 0.16504L9.15102 8.7112C9.20145 8.77958 9.15263 8.87624 9.06767 8.87624H0.103569C0.0463676 8.87624 -3.8147e-06 8.92262 -3.8147e-06 8.97982Z" fill="#000000"/>
</svg>