<?xml version="1.0" encoding="utf-8"?>
<!-- Generator: Adobe Illustrator 22.1.0, SVG Export Plug-In . SVG Version: 6.00 Build 0)  -->
<svg version="1.1" id="Group_13451" xmlns="http://www.w3.org/2000/svg" xmlns:xlink="http://www.w3.org/1999/xlink" x="0px"
	 y="0px" viewBox="0 0 37 37" style="enable-background:new 0 0 37 37;" xml:space="preserve">
<style type="text/css">
	.st0{fill:#FFFFFF;}
	.st1{fill:#FFCC00;}
	.st2{fill:#00678F;}
	.st3{fill:#FF0000;}
</style>
<rect id="Rectangle_4491" class="st0" width="37" height="37"/>
<path id="Path_2325" class="st1" d="M1.9,1.9h33.3v33.3H1.9V1.9z"/>
<path id="Path_1250" class="st2" d="M18.5,25c8.7,0,15.7-2.9,15.7-6.5s-7-6.5-15.7-6.5S2.8,14.9,2.8,18.5S9.8,25,18.5,25"/>
<path id="Path_1251" class="st1" d="M22.5,16.9l0.4-1.6h-5.4l-0.4,1.6h1.8L18,20.4h1.9l0.9-3.5H22.5z"/>
<path id="Path_1252" class="st0" d="M17,15.3h-2.7l-1.7,3.8v-3.8H10l-1.6,6.5h1.8l1.1-4.2v4.2h1.4l2-4.2l-1,4.2h1.7L17,15.3z"/>
<path id="Path_1253" class="st0" d="M28.6,15.3h-1.7L26,18.7l-0.8-3.4h-1.9l-1.6,6.5h1.7l0.9-3.5l0.9,3.5H27L28.6,15.3z"/>
<path id="Path_1254" class="st3" d="M17.9,20.8l-0.2,0.9h1.8l0.2-0.9H17.9z"/>
</svg>
