<?xml version="1.0" encoding="UTF-8"?>
<svg fill="none" viewBox="0 0 250 250" xmlns="http://www.w3.org/2000/svg">
<path d="m101.04 103.07c-8.6286 0-15.636-6.997-15.636-15.615 0-8.6371 7.0069-15.634 15.636-15.634 8.628 0 15.615 6.9965 15.615 15.634 0 8.6177-6.987 15.615-15.615 15.615zm23.964-103.07c-69.055 0-125 55.953-125 124.99 0 59.909 42.167 109.98 98.424 122.16v-112.17l0.0077-8e-3c0.1259-5.414 4.4392-9.776 9.8062-9.978v-8e-3h15.789c0.734 0 1.332-0.579 1.371-1.303l7e-3 -123.67-0.401-0.022389zm86.142 193.18c-8.619 0-15.626-6.997-15.626-15.634 0-8.608 7.007-15.605 15.626-15.605 8.618 0 15.625 6.997 15.625 15.605 0 8.637-7.007 15.634-15.625 15.634zm-36.627 0c-8.619 0-15.616-6.997-15.616-15.634 0-8.608 6.997-15.605 15.616-15.605 8.628 0 15.625 6.997 15.625 15.605 0 8.637-6.997 15.634-15.625 15.634zm-36.646 0c-8.619 0-15.635-6.997-15.635-15.634 0-8.608 7.016-15.605 15.635-15.605 8.638 0 15.635 6.997 15.635 15.605 0 8.637-6.997 15.634-15.635 15.634zm2.558-192.23v128.96l-0.031 0.031c-0.047 5.578-4.594 10.084-10.192 10.084h-15.384c-0.772 0-1.39 0.618-1.39 1.38v108.06c3.812 0.347 7.653 0.54 11.562 0.54 69.046 0 125-55.972 125-125.01 0-63.799-47.813-116.44-109.57-124.05" fill="#00985F"/>
</svg>
