<?xml version="1.0" encoding="UTF-8"?>
<!DOCTYPE svg  PUBLIC '-//W3C//DTD SVG 1.1//EN'  'http://www.w3.org/Graphics/SVG/1.1/DTD/svg11.dtd'>
<svg enable-background="new 0 0 304 55" version="1.1" viewBox="0 0 304 55" xml:space="preserve" xmlns="http://www.w3.org/2000/svg">
<title>megafon-logo-green</title>
<desc>Created with Sketch.</desc>
	<g fill="#00B956">
			<path d="m30.3 0.7v27.8c0 1.3-1 2.2-2.2 2.2h-3.3c-0.2 0-0.3 0.2-0.3 0.3v23.3c0.8 0 1.6 0.2 2.5 0.2 14.9 0 27-12.1 27-27 0-13.7-10.3-25.2-23.7-26.8zm-0.6 41.6c-1.9 0-3.3-1.6-3.3-3.3 0-1.9 1.6-3.3 3.3-3.3 1.9 0 3.3 1.6 3.3 3.3 0.2 1.8-1.4 3.3-3.3 3.3zm7.9 0c-1.9 0-3.3-1.6-3.3-3.3 0-1.9 1.6-3.3 3.3-3.3 1.9 0 3.3 1.6 3.3 3.3s-1.3 3.3-3.3 3.3zm8 0c-1.9 0-3.3-1.6-3.3-3.3 0-1.9 1.6-3.3 3.3-3.3 1.9 0 3.3 1.6 3.3 3.3s-1.4 3.3-3.3 3.3z"/>
			<path d="m27 0.6c-14.9 0-27 12.1-27 27 0 13.1 9.1 23.8 21.3 26.3v-24.3c0-1.1 1-2 2-2.2h3.3c0.2 0 0.3-0.2 0.3-0.3l0.1-26.5zm-5.2 22.2c-1.9 0-3.3-1.6-3.3-3.3 0-1.9 1.6-3.3 3.3-3.3 1.9 0 3.3 1.6 3.3 3.3s-1.5 3.3-3.3 3.3z"/>
		<g transform="translate(67 10)">
			<polygon points="230.3 5.3 230.3 15.5 216.7 15.5 216.7 5.3 209.8 5.3 209.8 32.3 216.7 32.3 216.7 21.4 230.3 21.4 230.3 32.3 237 32.3 237 5.3"/>
			<path d="m117.9 8.4c-1.1-2.4-3.3-3.7-5.5-3.7s-4.5 1.3-5.5 3.7l-10.9 24h7.2l2.4-5.7h14l2.4 5.7h7.2l-11.3-24zm-10.4 12.9l4.1-9.9c0.2-0.3 0.3-0.3 0.5-0.3s0.5 0 0.5 0.3l4.1 9.9h-9.2z"/>
			<path d="m37.5 0.5c-3.2 0-5.2 1.7-6.7 5.1l-8.7 20.3-8.8-20.4c-1.4-3.3-3.5-5.1-6.7-5.1-3 0-6 2-6 6.7v25.1h6.7v-24.2l8.9 20.1c1.1 2.9 3.2 4.6 5.9 4.6 2.9 0 4.8-1.7 5.9-4.6l8.9-20.1v24.5h6.7v-25.1c-0.1-4.7-3.1-6.9-6.1-6.9z"/>
			<path d="m55.4 26.6c-0.3 0-0.7-0.3-0.7-0.7v-4.8h16.8v-5.5h-16.8v-4.1c0-0.3 0.3-0.7 0.7-0.7h16.7v-5.7h-20c-2.4 0-4 1.9-4 4v18.9c0 2 1.7 4 4 4h20v-5.7h-16.7v0.3z"/>
			<path d="m83.4 32.3v-20.6c0-0.3 0.3-0.7 0.7-0.7h16.7v-5.7h-20c-2.4 0-4 1.9-4 4v22.9l6.6 0.1z"/>
			<path d="m205.4 18.9c0-9.4-4.1-13.8-14.3-13.8h-2.4c-10.2 0-14.3 4.5-14.3 13.8 0 9.2 4.1 13.8 14.3 13.8h2.2c10.4-0.2 14.5-4.6 14.5-13.8zm-14.5 8.1h-2.2c-5.5 0-7.8-2.5-7.8-8.1 0-5.4 1.9-8.1 7.8-8.1h2.2c5.7 0 7.8 2.7 7.8 8.1 0 5.5-2.1 8.1-7.8 8.1z"/>
			<path d="m155.7 1.1h-13.4c-10 0-14 5.1-14 13.8 0 1.4 0.2 2.7 0.3 3.8 1.1 6.2 4.8 10 14.1 10h3v3.5h6.7v-3.5h2.9c9.4 0 13.1-3.8 14.1-10 0.2-1.1 0.3-2.4 0.3-3.8-0.1-8.7-4.2-13.8-14-13.8zm-10.2 22h-3c-4.6 0-6.2-1.7-7.2-4.5-0.3-1-0.3-2.4-0.3-3.8 0-5.7 2.7-8.1 6.5-8.1h4.1v16.4h-0.1zm17.2-4.2c-1 2.7-2.7 4.5-7.2 4.5h-3v-16.5h4.1c3.8 0 6.5 2.4 6.5 8.1-0.1 1.5-0.1 2.7-0.4 3.9z"/>
		</g>
	</g>
</svg>
