<?xml version="1.0" encoding="UTF-8"?>
<svg viewBox="0 0 580 254" xmlns="http://www.w3.org/2000/svg">
<path d="M551.762 0H580v114.527h-27.27v-6.897c-1.914-.394-3.212-.337-4.554 1.233-5.35 6.26-12.7 7.901-20.626 7.73-16.496-.352-28.738-9.301-33.757-25.31-4.368-13.911-3.965-27.837 2.354-41.23 7.338-15.54 25.134-23.173 41.783-18.161 3.712 1.12 6.049 2.69 8.555 5.573 1.589 1.826 2.882 2.19 5.277 2.19V0zm-29.78 85.808c2.541 5.804 7.53 8.419 13.867 8.436h.068c6.14 0 11.117-2.359 13.98-7.884 4.207-8.114 4.223-16.461.499-24.68-2.692-5.941-7.732-8.787-14.45-8.755-6.385.018-10.834 2.053-13.91 8.328-3.387 6.898-3.434 16.835-.054 24.555zM353.408 32.013c6.146-1.88 12.31-2.822 18.448-2.822 7.023 0 14.014 1.232 20.909 3.699 10.667 3.817 16.264 11.832 17.696 22.657.296 2.246.456 4.527.458 6.793.039 16.365.023 51.155.023 51.155h-25.988v-6.283c-2.345-.826-3.534-.005-5.256 1.425-5.759 4.781-11.84 6.805-19.282 6.91-8.316.117-16.011-1.593-22.475-6.968-13.323-11.082-13.667-35.424 7.305-44.44 6.562-2.823 13.501-3.453 20.544-3.51 5.877-.05 11.756-.01 17.754-.01.655-6.17-1.87-10.191-6.883-11.376-7.715-1.824-13.534.533-15.83 6.51h-28.208c.271-2.008 1.363-6.268 2.623-9.023 3.536-7.723 10.119-12.257 18.162-14.717zm8.369 61.945c2.26.958 4.715 1.49 7.191 1.49 3.196 0 6.427-.886 9.334-2.89 5.54-3.817 5.68-9.537 5.389-15.576 0 0-10.432-.198-15.484.086-2.33.13-5.01.553-7.095 1.892-2.79 1.788-4.229 4.042-4.188 7.252.041 3.446 1.856 6.477 4.853 7.746zm-89.418-64.15c-14.824 2.083-25.939 9.304-32.021 22.97-3.95 8.867-4.633 18.168-3.256 27.607 1.956 13.425 8.45 24.07 21.205 30.33 10.057 4.931 20.806 5.75 31.787 3.77 10.042-1.806 18.461-6.353 24.5-14.536 3.427-4.644 5.49-9.981 5.822-15.867h-26.302c-.948 0-1.56.526-1.958 1.46-.794 1.863-1.841 3.82-3.424 5.071-4.788 3.788-16.606 3.945-20.88-4.572-4.147-8.264-4.151-16.86-1.03-25.313 3.053-8.271 10.433-10.256 18.293-8.427 2.814.656 4.961 2.367 6.027 4.982.545 1.337 1.421 1.781 3.088 1.781l25.34-.024c-.757-10.01-6.558-18.877-15.662-24.01-7.271-4.099-15.008-5.84-23.007-5.84-2.811 0-5.655.215-8.522.619zm195.978 2.846c-4.537.751-8.575 2.857-11.484 6.419-1.276 1.564-2.513 2.217-4.738 1.535v-8.926h-27.34v81.967h28.237s-.14-25.27.167-36.386c.327-12.001 7.034-18.817 19.281-20.017 4.137-.407 8.484-.469 12.541-.593V31.137c-6.145.26-11.28.625-16.664 1.517zM14.292 31.137h187.43c7.88 0 14.292 6.224 14.292 13.879v114.387c0 7.655-6.412 13.88-14.292 13.88H14.292C6.411 173.282 0 167.057 0 159.402V45.016c0-7.655 6.41-13.879 14.292-13.879zM27.45 146.624h161.113v-88.83H27.45v88.83zm331.97-7.58c6.146-1.883 12.31-2.824 18.448-2.824 7.022 0 14.011 1.232 20.909 3.7 10.665 3.817 16.265 11.832 17.695 22.656a52.91 52.91 0 0 1 .46 6.793c.038 16.367.02 51.155.02 51.155h-25.987v-6.281c-2.344-.827-3.534-.006-5.255 1.425-5.76 4.78-11.842 6.805-19.284 6.91-8.316.116-16.01-1.595-22.474-6.969-13.322-11.083-13.667-35.423 7.304-44.44 6.564-2.823 13.502-3.453 20.546-3.509 5.875-.049 11.754-.01 17.753-.01.655-6.17-1.87-10.19-6.883-11.377-7.716-1.826-13.532.533-15.83 6.51h-28.206c.269-2.009 1.361-6.27 2.621-9.022 3.536-7.724 10.117-12.258 18.164-14.717zm8.366 61.945c2.262.957 4.715 1.488 7.19 1.488 3.198 0 6.43-.885 9.337-2.89 5.54-3.816 5.683-9.533 5.389-15.576 0 0-10.432-.194-15.483.088-2.329.13-5.01.552-7.094 1.892-2.79 1.788-4.229 4.04-4.192 7.252.043 3.445 1.859 6.477 4.853 7.746zm-75.644-64.769h.004c16.24.001 27.981 8.453 33.966 23.753 5.082 12.997 4.451 32.89-3.842 46.443-8.858 14.474-25.903 18.562-39.852 14.452-3.63-1.068-6.775-3.02-9.046-5.973-1.187-1.544-2.414-2.152-4.682-1.537v38.38h-28.252V138.322h27.294v6.964c1.966.392 3.248.335 4.571-1.274 4.372-5.313 10.505-7.36 17.233-7.72a49.28 49.28 0 0 1 2.606-.072zm-20.731 57.088c2.709 4.506 7.808 6.705 12.955 6.705 5.477 0 11.008-2.49 13.766-7.34 2.945-5.17 3.696-17.27 1.103-24.05-2.047-5.363-5.773-9.039-11.812-9.802-6.52-.826-12.492.597-15.992 6.39-4.354 7.212-5.041 19.738-.02 28.097zm218.615-53.195c-2.005 0-2.747.65-3.541 2.311 0 0-14.487 33.908-15.025 35.16-.539 1.25-1.528 2.323-3.156 2.323-1.252 0-2.44-.306-3.42-2.161l-17.153-35.926c-.525-1.099-1.162-1.707-2.831-1.707h-26.137l34.306 70.857c.65 1.309.865 2.684.189 4.199l-16.852 38.581h25.242c1.961 0 2.882-.402 3.686-2.131l50.249-111.506h-25.557z" fill="#00b900" fill-rule="evenodd"/>
</svg>
