<svg xmlns="http://www.w3.org/2000/svg" width="440" height="86.422" xmlns:v="https://vecta.io/nano"><g clip-path="url(#A)" transform="scale(3.1428571)"><path d="M123.595 27.468h-4.384V17.211c0-2.783-1.753-4.99-4.65-4.99-2.973 0-4.726 2.218-4.726 4.99v10.257h-4.386V17.176c0-5.565 3.583-9.148 9.111-9.148 5.488 0 9.034 3.583 9.034 9.148zm-34.847-17.18c-1.462-1.48-3.523-2.262-5.96-2.262-1.219-.015-2.43.208-3.565.654-.934.374-1.781.937-2.487 1.654A7.23 7.23 0 0 0 74.27 8.68c-1.126-.447-2.329-.669-3.54-.654-2.455 0-4.531.782-6.006 2.262s-2.256 3.572-2.256 6.034v11.14h4.381V16.355c0-1.152.365-2.193 1.027-2.929.693-.776 1.685-1.186 2.854-1.186 1.076 0 2.004.37 2.685 1.069.643.66 1.04 1.604 1.109 2.656v.358 11.14h4.402v-11.14-.356c.078-1.071.466-1.99 1.124-2.657.693-.693 1.638-1.069 2.743-1.069 1.139 0 2.105.416 2.794 1.186.657.74 1.02 1.78 1.02 2.93v11.106h4.381V16.322c0-2.467-.773-4.555-2.234-6.033M48.043.021h-4.388v27.452h4.388zm9.4 5.801H53.06v-5.8h4.384zm0 2.707v18.975l-4.384-.029V8.523zm42.962-2.708H96.02v-5.8h4.385zm0 21.653H96.02V8.522h4.385zm39.596-14.682h-7.699v8.768c0 1.03.609 1.64 1.715 1.64h5.984v4.269h-6.861c-3.278 0-5.223-1.906-5.223-5.146V.017h4.385v8.506h7.699zM0 0h4.384v10.257c0 2.783 1.753 4.99 4.65 4.99 2.973 0 4.726-2.218 4.726-4.99V0h4.384v10.293c0 5.565-3.583 9.148-9.11 9.148C3.546 19.441 0 15.858 0 10.293zm38.681 27.469h-4.384V17.212c0-2.783-1.753-4.99-4.65-4.99-2.973 0-4.726 2.218-4.726 4.99v10.257h-4.385V17.176c0-5.565 3.583-9.148 9.11-9.148 5.489 0 9.034 3.583 9.034 9.148z"/></g><defs><clipPath id="A"><path fill="#fff" d="M0 0h140v27.498H0z"/></clipPath></defs></svg>