<svg id="Layer_1" data-name="Layer 1" xmlns="http://www.w3.org/2000/svg" viewBox="0 0 122.88 122.86"><defs><style>.cls-1{fill:#df714d;}.cls-2{fill:#fff;}</style></defs><title>freecharge</title><path class="cls-1" d="M122.88,61.67C122.56,96.3,95,123.2,60.2,122.86,26.54,122.53-.26,94.48,0,60,.26,26.67,28.55-.36,62.75,0,96,.3,123.19,28.22,122.88,61.67Z"/><path class="cls-2" d="M64.72,46.94c1.44-3.83,1.75-7.89,3.91-9.5,2.81-2.1,7.09-2.23,11.38-3.37l1.6-7.67c-12.48-3.94-23.08,1.33-26.44,12.81-2,6.82-2,6.82-9.07,8.29-.33,2.7-.67,5.46-1.06,8.56h8.5L42.34,78.61l8,.44L43,93.67l24-22.8L66.65,70H57.81c5.19-5,9.37-9.41,13.89-13.4,3-2.62,3.65-5.75,3.83-9.63Z"/></svg>