<?xml version="1.0" encoding="UTF-8" standalone="no"?>
<!-- Generator: Adobe Illustrator 16.0.0, SVG Export Plug-In . SVG Version: 6.00 Build 0)  -->

<svg
   xmlns:dc="http://purl.org/dc/elements/1.1/"
   xmlns:cc="http://creativecommons.org/ns#"
   xmlns:rdf="http://www.w3.org/1999/02/22-rdf-syntax-ns#"
   xmlns:svg="http://www.w3.org/2000/svg"
   xmlns="http://www.w3.org/2000/svg"
   xmlns:sodipodi="http://sodipodi.sourceforge.net/DTD/sodipodi-0.dtd"
   xmlns:inkscape="http://www.inkscape.org/namespaces/inkscape"
   version="1.1"
   id="Layer_1"
   x="0px"
   y="0px"
   viewBox="0 0 2622.8464 600.69019"
   enable-background="new 0 0 3000 3000"
   xml:space="preserve"
   sodipodi:docname="logo.svg"
   width="2622.8464"
   height="600.69019"
   inkscape:version="0.92.3 (2405546, 2018-03-11)"><metadata
   id="metadata31"><rdf:RDF><cc:Work
       rdf:about=""><dc:format>image/svg+xml</dc:format><dc:type
         rdf:resource="http://purl.org/dc/dcmitype/StillImage" /><dc:title></dc:title></cc:Work></rdf:RDF></metadata><defs
   id="defs29" /><sodipodi:namedview
   pagecolor="#ffffff"
   bordercolor="#666666"
   borderopacity="1"
   objecttolerance="10"
   gridtolerance="10"
   guidetolerance="10"
   inkscape:pageopacity="0"
   inkscape:pageshadow="2"
   inkscape:window-width="790"
   inkscape:window-height="480"
   id="namedview27"
   showgrid="false"
   fit-margin-top="0"
   fit-margin-left="0"
   fit-margin-right="0"
   fit-margin-bottom="0"
   inkscape:zoom="0.078666667"
   inkscape:cx="1311.424"
   inkscape:cy="300.34519"
   inkscape:window-x="2843"
   inkscape:window-y="341"
   inkscape:window-maximized="0"
   inkscape:current-layer="Layer_1" />
<g
   id="g24"
   transform="translate(-188.576,-1199.655)">
	<path
   d="m 2456.492,1423.44 c -47.768,-12.74 -82.822,-3.499 -102.154,27.06 -11.189,17.292 -18.678,36.071 -22.48,56.354 -3.795,20.228 -3.619,40.465 0.533,60.638 4.664,24.069 24.568,34.704 48.664,27.826 12.861,-3.721 23.877,-10.497 33.063,-20.229 9.176,-9.74 15.316,-21.142 18.316,-34.215 10.525,-38.192 16.156,-77.661 24.058,-117.434 z m -230.576,363.384 c 4.746,-20.92 8.799,-39.698 12.564,-55.255 35.139,1.395 67.969,5.447 100.752,3.269 52.154,-3.443 80.275,-34.003 85.557,-86.425 0.877,-9.223 2.623,-18.437 4.543,-31.565 l -16.158,15.059 c -14.217,13.405 -30.881,22.296 -49.938,26.653 -19.072,4.377 -37.943,3.592 -56.584,-2.345 -28.279,-7.719 -44.73,-27.669 -52.717,-55.514 -19.943,-69.584 11.088,-167.77 70.275,-209.205 22.215,-15.233 46.514,-25.555 72.9,-30.957 46.199,-9.657 92.924,-3.24 140.525,5.198 -5.891,44.361 -11.494,87.31 -17.551,130.259 -7.377,52.698 -15.371,105.913 -22.48,158.99 -11.348,84.91 -66.242,137.7 -152.059,143.886 -40.664,3.962 -80.566,-0.072 -119.629,-12.048 z"
   id="path2"
   inkscape:connector-curvature="0"
   style="fill:#e1734f" />
	<path
   d="m 1642.689,1657.609 c 7.035,-51.471 13.617,-99.082 20.035,-146.758 2.445,-18.52 5.445,-37.169 6.055,-55.791 0.961,-27.06 -15.391,-39.072 -41.555,-31.611 -11.697,2.917 -21.982,8.401 -30.91,16.535 -8.891,8.106 -15.334,17.854 -19.332,29.22 -10.377,36.514 -18.658,73.48 -24.844,110.955 -4.145,20.994 -5.363,42.515 -8.809,63.573 -0.959,5.014 -6.684,12.916 -10.598,13.193 -21.271,1.311 -42.618,0.609 -66.75,0.609 l 50.594,-371.029 -48.858,-7.119 c 0.987,-13.119 2.695,-26.155 5.114,-39.071 2.835,-5.078 7.137,-7.977 12.889,-8.809 37.253,-2.963 74.496,-4.976 115.496,-7.635 l -24.834,175.664 15.898,-13.599 c 13.441,-11.512 28.684,-19.72 45.727,-24.558 16.998,-4.884 34.262,-5.964 51.775,-3.286 41.961,5.28 63.232,36.356 57.676,83.386 -4.635,39.155 -10.248,78.225 -15.539,117.398 -3.582,27.235 -7.986,54.296 -10.885,81.614 -1.311,12.279 -5.271,17.551 -18.549,17.551 -19.385,-1.559 -38.1,-0.432 -59.796,-0.432 z"
   id="path4"
   inkscape:connector-curvature="0"
   style="fill:#e17450" />
	<path
   d="m 190.496,1742.297 50.593,-104.455 c 3.961,-8.336 8.079,-16.506 13.701,-27.991 h -63.334 c 29.682,-59.188 57.702,-114.896 87.836,-174.094 h -66.583 l 9.398,-68.874 c 6.85,-0.536 12.565,-1.33 18.372,-1.403 30.734,-0.527 36.015,-4.58 44.436,-35.148 2.834,-10.349 5.373,-20.726 8.346,-30.983 17.588,-59.133 57.186,-92.684 118.34,-98.574 26.331,-2.52 52.689,0 83.857,0 -5.973,28.021 -10.876,51.129 -16.156,75.641 -30.734,-2.446 -62.993,-13.35 -87.218,13.6 -18.548,20.643 -19.684,47.167 -20.902,75.031 h 76.25 c -2.825,29.774 -8.189,54.794 -31.639,75.53 -35.139,30.817 -66.575,65.438 -102.941,101.711 h 67.627 l 3.527,5.115 -192.375,196.216 z"
   id="path6"
   inkscape:connector-curvature="0"
   style="fill:#e17450" />
	<path
   d="m 1928.145,1525.863 c -15.195,0.582 -30.264,2.271 -45.221,5.078 -14.318,3.489 -27.586,9.324 -39.781,17.578 -6.537,4.229 -10.877,10.036 -13.119,17.478 -2.217,7.441 -1.781,14.697 1.338,21.807 6.592,16.211 21.438,16.332 35.758,14.642 31.601,-3.776 60.767,-39.441 61.025,-76.583 z m 7.117,-49.725 c 10.379,-43.908 -1.578,-61.487 -43.918,-59.022 -29.516,1.736 -58.598,9.999 -88.797,15.547 0,-14.578 -0.525,-32.784 0.527,-50.953 0,-3.518 5.973,-8.771 10.201,-9.741 45.184,-15.658 91.346,-19.591 138.521,-11.863 50.945,9.325 71.598,38.905 64.563,90.468 -5.723,41.749 -11.789,83.451 -17.596,125.181 -0.869,6.509 -0.777,13.166 -1.219,20.985 l 45.578,6.851 c 0.887,1.846 1.93,3.074 1.83,4.117 -4.801,45.22 -4.801,45.589 -50.373,46.983 -24.613,0.813 -49.291,0 -75.381,0 l 3.176,-35.11 c -7.295,5.945 -11.697,9.307 -15.928,12.888 -22.129,19.361 -47.887,29.046 -77.273,29.092 -59.115,0.692 -88.363,-39.976 -69.418,-96.174 5.021,-15.667 13.248,-29.33 24.715,-41.12 11.43,-11.771 24.891,-20.386 40.381,-25.833 29.277,-9.066 59.033,-16.156 89.24,-21.233 7.018,-0.924 14.081,-1.275 21.171,-1.063 z"
   id="path8"
   inkscape:connector-curvature="0"
   style="fill:#e1734f" />
	<path
   d="m 2634.982,1467.709 h 100.41 c 6.73,-31.261 -5.373,-50.16 -32.256,-55.69 -25.287,-5.263 -66.391,18.271 -67.895,55.69 z m -9.943,53.142 c -9.656,48.58 11.346,78.354 56.824,78.087 31.613,0 63.178,-7.035 96.607,-11.079 0,12.399 0.711,28.759 0,44.962 -1.449,5.725 -4.92,9.656 -10.348,11.9 -45.119,15.926 -91.207,19.813 -138.338,11.586 -48.664,-9.472 -75.207,-35.156 -81.246,-84.429 -8.078,-65.873 5.697,-127.175 54.371,-175.673 38.748,-38.554 86.701,-48.811 139.039,-36.893 40.861,9.251 65.346,40.216 69.398,83.433 0.102,1.347 0.102,2.649 0,3.979 -1.91,21.253 1.229,44.87 -7.109,63.241 -11.17,24.504 -38.119,8.78 -57.525,10.092 -40.345,2.888 -80.644,0.794 -121.673,0.794 z"
   id="path10"
   inkscape:connector-curvature="0"
   style="fill:#e1734f" />
	<path
   d="m 764.333,1471.744 h 101.889 c 6.768,-29.857 -3.49,-49.347 -28.205,-55.33 -32.665,-7.81 -63.658,14.929 -73.684,55.33 z m 143.793,121.045 c 0,12.131 0.785,28.112 0,43.927 -1.496,5.613 -4.911,9.528 -10.293,11.772 -44.5,15.925 -90.016,19.747 -136.566,11.512 -56.307,-10.294 -83.718,-43.918 -84.512,-107.538 -0.609,-53.197 11.605,-103.993 49.106,-144.938 40.918,-44.795 91.945,-58.321 149.297,-43.927 43.918,11.079 66.233,45.968 67.23,97.78 1.043,58.781 -2.751,62.631 -60.555,62.631 -33.44,0 -67.009,0 -100.568,0 -7.903,0 -15.898,0.987 -23.709,1.422 -13.618,38.721 5.89,74.209 45.58,75.548 34.705,1.643 69.677,-4.847 104.99,-8.189 z"
   id="path12"
   inkscape:connector-curvature="0"
   style="fill:#e1744f" />
	<path
   d="m 1044.276,1470.978 h 102.673 c 5.807,-31.815 -3.36,-48.941 -28.639,-55.182 -31.178,-7.801 -60.148,12.897 -74.034,55.182 z m 145.022,120.232 c 0,12.39 0.692,28.381 -0.433,43.928 -1.191,5.678 -4.432,9.796 -9.676,12.278 -49.199,15.741 -99.331,22.241 -150.1,8.79 -46.301,-12.122 -68.181,-45.783 -71.236,-91.262 -3.961,-57.278 7.819,-111.287 46.116,-155.814 39.892,-46.282 91.714,-60.971 150.727,-46.744 9.122,1.985 17.708,5.364 25.703,10.202 7.986,4.792 14.984,10.801 20.994,17.957 6.001,7.137 10.673,15.113 14.024,23.801 3.36,8.742 5.197,17.754 5.521,27.124 0.083,22.674 -1.089,45.304 -3.537,67.876 -0.609,12.307 -7.339,15.113 -18.603,15.03 -48.932,-0.563 -97.863,0 -146.768,-0.563 -16.073,0 -19.59,7.063 -18.981,20.468 1.662,35.756 22.574,58.496 58.671,57.563 32.739,-0.626 64.452,-6.756 97.578,-10.634 z"
   id="path14"
   inkscape:connector-curvature="0"
   style="fill:#e17450" />
	<path
   d="m 1470.34,1366.347 c -5.965,23.441 -11.31,44.611 -15.724,62.162 -24.742,-1.274 -47.5,-5.586 -69.196,-2.447 -16.055,3.269 -29.358,11.135 -39.977,23.617 -11.595,14.3 -19.646,30.337 -24.105,48.183 -4.468,17.856 -4.902,35.757 -1.348,53.843 4.284,28.454 20.431,41.702 49.172,43.383 10.729,0.581 21.429,0.129 32.073,-1.395 10.35,-1.606 20.56,-5.134 31.953,-8.005 0,18.705 0.71,36.432 -0.517,54.083 -1.58,5.707 -5.143,9.584 -10.618,11.698 -39.024,11.697 -78.521,16.185 -118.515,4.837 -16.175,-3.711 -29.968,-11.614 -41.324,-23.735 -11.319,-12.159 -18.271,-26.451 -20.847,-42.839 -11.522,-64.405 0,-124.996 42.773,-175.673 48.739,-57.562 113.56,-63.868 186.2,-47.712 z"
   id="path16"
   inkscape:connector-curvature="0"
   style="fill:#e1734f" />
	<path
   d="m 600.883,1406.241 -1.08,-1.229 -1.053,1.099 1.597,1.227 z m -31.732,251.368 h -74.302 c 10.442,-77.46 20.829,-153.968 31.437,-232.849 l -48.904,-7.118 c 1.662,-13.793 2.446,-26.331 5.161,-38.721 1.698,-4.976 5.105,-8.162 10.202,-9.482 37.151,-2.65 74.395,-4.395 112.866,-6.398 -2.105,14.929 -3.675,26.331 -5.254,36.976 26.34,-24.152 53.4,-45.248 93.782,-40.863 -4.459,24.577 -8.78,48.036 -12.972,70.896 -1.957,1.126 -3.185,2.456 -4.228,2.271 -48.673,-5.013 -71.329,23.1 -80.285,61.469 -10.358,43.927 -15.63,89.536 -23.007,134.321 -1.578,9.731 -2.566,19.047 -4.496,29.498 z"
   id="path18"
   inkscape:connector-curvature="0"
   style="fill:#e1734f" />
	<path
   d="m 2103.014,1421.344 -48.709,-6.592 c 1.662,-14.135 2.52,-27.854 5.42,-41.204 0.719,-3.351 7.754,-7.284 12.039,-7.635 35.941,-2.373 71.863,-4.053 110.492,-5.982 -2.623,16.636 -4.811,30.042 -7.82,48.063 26.359,-32.434 51.998,-56.493 95.656,-50.584 -4.201,23.967 -8.779,47.26 -12.371,70.239 -64.469,8.808 -85.639,32.94 -94.688,105.424 -5.012,40.326 -11.078,80.533 -16.783,121.627 h -75.004 c 10.645,-78.161 20.984,-154.678 31.768,-233.356 z"
   id="path20"
   inkscape:connector-curvature="0"
   style="fill:#e1744f" />
	<path
   d="m 191.373,1743.34 -2.797,2.281 c 0.702,-1.063 1.311,-2.188 1.92,-3.324 z"
   id="path22"
   inkscape:connector-curvature="0"
   style="fill:#e17450" />
</g>
</svg>