<?xml version="1.0" encoding="UTF-8" standalone="no"?>
<svg
   xmlns:dc="http://purl.org/dc/elements/1.1/"
   xmlns:cc="http://creativecommons.org/ns#"
   xmlns:rdf="http://www.w3.org/1999/02/22-rdf-syntax-ns#"
   xmlns:svg="http://www.w3.org/2000/svg"
   xmlns="http://www.w3.org/2000/svg"
   xmlns:sodipodi="http://sodipodi.sourceforge.net/DTD/sodipodi-0.dtd"
   xmlns:inkscape="http://www.inkscape.org/namespaces/inkscape"
   width="323.53436"
   height="223.43211"
   viewBox="0 0 323.53436 223.43211"
   version="1.1"
   id="svg18"
   sodipodi:docname="Hawex шсщтsvg.svg"
   style="fill:none"
   inkscape:version="0.92.5 (2060ec1f9f, 2020-04-08)">
  <metadata
     id="metadata24">
    <rdf:RDF>
      <cc:Work
         rdf:about="">
        <dc:format>image/svg+xml</dc:format>
        <dc:type
           rdf:resource="http://purl.org/dc/dcmitype/StillImage" />
        <dc:title></dc:title>
      </cc:Work>
    </rdf:RDF>
  </metadata>
  <defs
     id="defs22" />
  <sodipodi:namedview
     pagecolor="#ffffff"
     bordercolor="#666666"
     borderopacity="1"
     objecttolerance="10"
     gridtolerance="10"
     guidetolerance="10"
     inkscape:pageopacity="0"
     inkscape:pageshadow="2"
     inkscape:window-width="1920"
     inkscape:window-height="1043"
     id="namedview20"
     showgrid="false"
     inkscape:zoom="0.36719577"
     inkscape:cx="468.74023"
     inkscape:cy="-85.977"
     inkscape:window-x="1920"
     inkscape:window-y="0"
     inkscape:window-maximized="1"
     inkscape:current-layer="svg18" />
  <path
     d="M 228.626,52.889621 C 142.889,59.270221 43.2911,119.59412 3.75977,153.78912 9.78358,125.18112 43.9185,94.182221 60.233,82.258721 H 24.4667 c 8.1572,-11.9215 30.8719,-36.705 56.4731,-40.4696 l -32.0014,-13.176 c 20.3303,-11.2938 58.0426,-9.7252 74.3566,-7.5292 L 100.706,0.37678052 C 210.828,-4.3271295 281.42,36.143121 289.891,58.730521 c -3.765,-2.2587 -23.804,-6.3807 -29.451,-6.3806 -12.675,-0.7365 -18.873,-1.0794 -31.814,0.5397 z m -26.031,-3.0565 c -9.428,-19.0896 16.099,-33.1471 37.06,-3.9052 -14.863,0.4458 -22.129,0.6839 -37.06,3.9052 z"
     id="path10"
     inkscape:connector-curvature="0"
     style="clip-rule:evenodd;fill:#1c72be;fill-rule:evenodd" />
  <path
     d="m 322.839,115.20012 c -26.354,-43.886499 -176.686,-7.229 -196.673,40.828 -13.201,7.526 -32.4089,16.628 -51.9213,25.874 -33.3522,15.804 -67.5939,32.03 -74.2447,41.53 C 104.475,66.259021 337.898,21.083021 322.839,115.20012 Z"
     id="path12"
     inkscape:connector-curvature="0"
     style="fill:#1c72be" />
</svg>
