<svg width="945" height="309" viewBox="0 0 945 309" fill="none" xmlns="http://www.w3.org/2000/svg">
<path d="M309.155 168.691V307.208H275.77V250.183H223.838V307.208H190.453V168.691H223.838V222.953H275.77V168.691H309.155Z" fill="#1C72BE"/>
<path d="M326.613 251.962C326.613 240.649 328.696 230.718 332.861 222.167C337.156 213.617 342.948 207.04 350.236 202.436C357.525 197.832 365.66 195.53 374.641 195.53C382.32 195.53 389.023 197.109 394.749 200.265C400.607 203.422 405.097 207.566 408.221 212.696V197.109H441.605V307.211H408.221V291.623C404.967 296.754 400.412 300.897 394.554 304.054C388.828 307.211 382.125 308.79 374.445 308.79C365.595 308.79 357.525 306.488 350.236 301.884C342.948 297.148 337.156 290.505 332.861 281.954C328.696 273.272 326.613 263.275 326.613 251.962ZM408.221 252.159C408.221 243.741 405.878 237.098 401.192 232.231C396.637 227.364 391.04 224.93 384.402 224.93C377.764 224.93 372.103 227.364 367.417 232.231C362.861 236.966 360.584 243.544 360.584 251.962C360.584 260.381 362.861 267.09 367.417 272.089C372.103 276.956 377.764 279.389 384.402 279.389C391.04 279.389 396.637 276.956 401.192 272.089C405.878 267.222 408.221 260.579 408.221 252.159Z" fill="#1C72BE"/>
<path d="M622.145 197.108L592.664 307.21H555.766L538.585 235.782L520.819 307.21H484.115L454.439 197.108H487.825L503.248 275.837L521.6 197.108H556.937L575.484 275.442L590.712 197.108H622.145Z" fill="#1C72BE"/>
<path d="M737.566 250.384C737.566 253.541 737.373 256.829 736.981 260.25H661.426C661.946 267.09 664.094 272.352 667.87 276.035C671.775 279.587 676.526 281.363 682.122 281.363C690.452 281.363 696.241 277.811 699.494 270.707H735.031C733.208 277.943 729.888 284.454 725.071 290.242C720.387 296.03 714.465 300.568 707.306 303.857C700.146 307.145 692.142 308.79 683.293 308.79C672.62 308.79 663.118 306.488 654.787 301.884C646.458 297.28 639.95 290.702 635.264 282.152C630.579 273.602 628.236 263.604 628.236 252.159C628.236 240.715 630.514 230.718 635.07 222.167C639.755 213.617 646.262 207.04 654.593 202.436C662.922 197.832 672.487 195.53 683.293 195.53C693.832 195.53 703.207 197.766 711.404 202.239C719.608 206.711 725.982 213.091 730.54 221.378C735.224 229.666 737.566 239.334 737.566 250.384ZM703.4 241.505C703.4 235.716 701.45 231.112 697.545 227.693C693.639 224.272 688.755 222.562 682.9 222.562C677.305 222.562 672.554 224.206 668.648 227.495C664.875 230.784 662.532 235.453 661.621 241.505H703.4Z" fill="#1C72BE"/>
<path fill-rule="evenodd" clip-rule="evenodd" d="M228.626 53.0405C142.889 59.4211 43.2911 119.745 3.75977 153.94C9.78358 125.332 43.9185 94.3331 60.233 82.4096H24.4667C32.6239 70.4881 55.3386 45.7046 80.9398 41.94L48.9384 28.764C69.2687 17.4702 106.981 19.0388 123.295 21.2348L100.706 0.52766C210.828 -4.17625 281.42 36.294 289.891 58.8814C286.126 56.6227 266.087 52.5007 260.44 52.5008C247.765 51.7643 241.567 51.4214 228.626 53.0405ZM202.595 49.984C193.167 30.8944 218.694 16.8369 239.655 46.0788C224.792 46.5246 217.526 46.7627 202.595 49.984Z" fill="#1C72BE"/>
<path d="M322.839 115.351C296.485 71.4645 146.153 108.122 126.166 156.179C112.965 163.705 93.7571 172.807 74.2447 182.053C40.8925 197.857 6.6508 214.083 0 223.583C104.475 66.4099 337.898 21.2339 322.839 115.351Z" fill="#1C72BE"/>
<path d="M784.016 306.735H739.829L791.84 253.68L736.729 197.457H780.915L813.937 231.142C849.58 200.492 877.851 164.066 944.806 164.066C900.167 189.87 836.033 253.68 836.033 253.68L784.016 306.735Z" fill="#1C72BE"/>
<path d="M888.054 306.735H843.861L822.809 285.259L844.859 262.675L888.054 306.735Z" fill="#1C72BE"/>
</svg>
