<?xml version="1.0" encoding="UTF-8"?>
<svg version="1.1" viewBox="0 0 35.47 28.481" xmlns="http://www.w3.org/2000/svg" xmlns:cc="http://creativecommons.org/ns#" xmlns:dc="http://purl.org/dc/elements/1.1/" xmlns:rdf="http://www.w3.org/1999/02/22-rdf-syntax-ns#" xmlns:xlink="http://www.w3.org/1999/xlink">
<metadata>
<rdf:RDF>
<cc:Work rdf:about="">
<dc:format>image/svg+xml</dc:format>
<dc:type rdf:resource="http://purl.org/dc/dcmitype/StillImage"/>
<dc:title/>
</cc:Work>
</rdf:RDF>
</metadata>
<defs>
<path id="a" d="m151.19 38.6-2.2-2.2a4.94 4.94 0 0 0-6.9 0l-5.69 5.69a4.94 4.94 0 0 0 0 6.9l3.5 3.5a7.17 7.17 0 0 1 2.11-4.71l9.18-9.18z"/>
<path id="b" d="m168.99 42.17a4.78 4.78 0 0 1 0.09 6.82l-13.09 13.09a4.96 4.96 0 0 1-6.9 0l-5.69-5.69a4.96 4.96 0 0 1 0-6.91l13-13.08a4.86 4.86 0 0 1 6.83 0l-3.99 3.98c-1.21 1.3-1.05 3.42 0.41 4.88s3.66 1.62 4.88 0.4l3.98-3.98 0.48 0.49zm-5.03-5.04 2.93 2.93-3.58 3.57c-0.81 0.81-2.11 0.81-2.92 0a2.06 2.06 0 0 1 0-2.92l3.57-3.58z"/>
</defs>
<use transform="translate(.0043105 -.99569)" x="-135" y="-34" width="100%" height="100%" fill="#ffbb0a" xlink:href="#a"/>
<use transform="translate(.0043105 -.99569)" x="-135" y="-34" width="100%" height="100%" fill="#7f7f7f" xlink:href="#b"/>
</svg>
