<?xml version="1.0" encoding="UTF-8"?>
<svg version="1.1" viewBox="0 0 122.48 32.294" xmlns="http://www.w3.org/2000/svg" xmlns:cc="http://creativecommons.org/ns#" xmlns:dc="http://purl.org/dc/elements/1.1/" xmlns:rdf="http://www.w3.org/1999/02/22-rdf-syntax-ns#" xmlns:xlink="http://www.w3.org/1999/xlink">
<metadata>
<rdf:RDF>
<cc:Work rdf:about="">
<dc:format>image/svg+xml</dc:format>
<dc:type rdf:resource="http://purl.org/dc/dcmitype/StillImage"/>
<dc:title/>
</cc:Work>
</rdf:RDF>
</metadata>
<defs>
<path id="a" d="m151.19 38.6-2.2-2.2a4.94 4.94 0 0 0-6.9 0l-5.69 5.69a4.94 4.94 0 0 0 0 6.9l3.5 3.5a7.17 7.17 0 0 1 2.11-4.71l9.18-9.18z"/>
<path id="b" d="m168.99 42.17a4.78 4.78 0 0 1 0.09 6.82l-13.09 13.09a4.96 4.96 0 0 1-6.9 0l-5.69-5.69a4.96 4.96 0 0 1 0-6.91l13-13.08a4.86 4.86 0 0 1 6.83 0l-3.99 3.98c-1.21 1.3-1.05 3.42 0.41 4.88s3.66 1.62 4.88 0.4l3.98-3.98 0.48 0.49zm-5.03-5.04 2.93 2.93-3.58 3.57c-0.81 0.81-2.11 0.81-2.92 0a2.06 2.06 0 0 1 0-2.92l3.57-3.58z"/>
<path id="c" d="m246.52 58.69-5.77-14.55a6.73 6.73 0 0 1-0.57-1.78c0-0.41 0.08-0.82 0.32-1.14 0.25-0.33 0.49-0.65 0.9-0.81 0.4-0.17 0.73-0.33 1.14-0.33 0.64 0 1.21 0.24 1.54 0.65 0.32 0.41 0.65 1.06 0.89 1.87l3.98 11.54 3.82-10.73c0.33-0.89 0.57-1.54 0.81-2.03 0.25-0.49 0.49-0.81 0.74-0.97 0.24-0.17 0.65-0.25 1.13-0.25 0.33 0 0.73 0.08 1.06 0.25 0.32 0.16 0.57 0.4 0.73 0.73 0.16 0.32 0.24 0.65 0.24 0.97-0.08 0.25-0.08 0.49-0.24 0.9-0.16 0.4-0.24 0.81-0.41 1.21l-6.17 16.01a28.14 28.14 0 0 1-1.54 3.33 5.1 5.1 0 0 1-2.03 1.87 7.7 7.7 0 0 1-3.42 0.65 9.16 9.16 0 0 1-3.08-0.41c-0.74-0.32-1.06-0.81-1.06-1.62 0-0.57 0.16-0.97 0.49-1.22 0.32-0.32 0.81-0.41 1.46-0.41 0.24 0 0.49 0 0.73 0.09 0.33 0.08 0.57 0.08 0.81 0.08 0.57 0 0.98-0.08 1.3-0.25 0.33-0.16 0.57-0.4 0.82-0.81 0.32-0.41 0.65-0.97 0.97-1.79l0.41-1.05zm-14.31-7.89v0.03l0.08-0.03h-0.08zm-2.92 0.81c-1.3 0.25-2.2 0.49-2.76 0.65-0.57 0.16-0.98 0.41-1.47 0.81-0.48 0.41-0.73 0.9-0.73 1.63s0.25 1.3 0.81 1.79c0.57 0.48 1.22 0.73 2.12 0.73 0.89 0 1.78-0.16 2.6-0.57a3.54 3.54 0 0 0 1.7-1.54c0.41-0.73 0.65-1.87 0.65-3.5v-0.78c-0.72 0.23-1.67 0.47-2.92 0.78zm0 7.96a9.96 9.96 0 0 1-3.58 0.65 6.51 6.51 0 0 1-3.17-0.73 5.07 5.07 0 0 1-2.84-4.63c0-1.3 0.41-2.35 1.22-3.25a5.86 5.86 0 0 1 3.33-1.79l2.19-0.48c1.22-0.25 2.2-0.49 3.09-0.65 0.9-0.17 1.79-0.41 2.76-0.73a5.28 5.28 0 0 0-0.73-2.69c-0.4-0.56-1.38-0.89-2.76-0.89-1.22 0-2.11 0.16-2.68 0.49-0.57 0.32-1.14 0.81-1.54 1.46-0.41 0.65-0.74 1.14-0.9 1.3-0.16 0.24-0.57 0.33-1.14 0.33a2.1 2.1 0 0 1-1.38-0.49c-0.4-0.33-0.57-0.73-0.57-1.3 0-0.81 0.33-1.63 0.9-2.44s1.54-1.38 2.76-1.95c1.22-0.49 2.76-0.73 4.63-0.73 2.11 0 3.74 0.24 4.88 0.73a4.34 4.34 0 0 1 2.51 2.28c0.49 1.05 0.74 2.43 0.74 4.22v5.28c0 0.9 0.16 1.79 0.4 2.76 0.33 0.98 0.41 1.55 0.41 1.87 0 0.49-0.24 0.9-0.65 1.3-0.41 0.41-0.98 0.57-1.54 0.57-0.49 0-0.98-0.24-1.47-0.65a7.22 7.22 0 0 1-1.54-1.78 13.11 13.11 0 0 1-3.33 1.94zm-17.71-12.1c-0.41-0.9-0.9-1.55-1.55-2.03a3.6 3.6 0 0 0-2.27-0.73c-1.3 0-2.44 0.48-3.33 1.54-0.9 1.06-1.3 2.52-1.3 4.47 0 1.87 0.4 3.33 1.3 4.39a4.09 4.09 0 0 0 3.33 1.54c0.81 0 1.54-0.24 2.19-0.65a5.23 5.23 0 0 0 1.63-2.03c0.32-0.98 0.57-2.03 0.57-3.33a7.7 7.7 0 0 0-0.57-3.17zm-8.7-3.09a9.14 9.14 0 0 1 2.77-2.36 7.58 7.58 0 0 1 7.23 0.41 8.1 8.1 0 0 1 2.92 3.25 11.1 11.1 0 0 1 1.06 5.12c0 1.46-0.25 2.76-0.65 3.98a8.47 8.47 0 0 1-1.71 3.01 7.07 7.07 0 0 1-2.52 1.87c-0.97 0.4-2.03 0.65-3.17 0.65a6.25 6.25 0 0 1-3.41-0.82c-0.89-0.57-1.79-1.3-2.6-2.35v7.07c0 2.03-0.73 3.08-2.27 3.08-0.9 0-1.47-0.24-1.79-0.81-0.33-0.57-0.33-1.38-0.33-2.44v-21.2c0-0.89 0.17-1.54 0.57-2.03 0.41-0.4 0.9-0.65 1.63-0.65 0.65 0 1.22 0.25 1.62 0.65 0.41 0.49 0.65 1.14 0.65 1.95v1.62zm-16 8.94-3.5 4.95a5.9 5.9 0 0 1-1.3 1.47c-0.32 0.32-0.81 0.4-1.3 0.4-0.57 0-1.13-0.16-1.54-0.57-0.41-0.4-0.65-0.81-0.65-1.3 0-0.48 0.32-1.21 0.97-2.11l4.31-6.09-3.82-5.04c-0.65-0.81-0.97-1.54-0.97-2.19 0-0.49 0.16-0.9 0.57-1.22 0.4-0.33 0.89-0.57 1.54-0.57 0.57 0 0.97 0.16 1.38 0.49 0.41 0.32 0.81 0.81 1.3 1.46l3.09 4.14 3-4.14c0.49-0.65 0.9-1.14 1.3-1.46 0.33-0.33 0.82-0.41 1.39-0.41 0.65 0 1.13 0.16 1.54 0.49 0.41 0.32 0.65 0.73 0.65 1.3 0 0.32-0.08 0.73-0.24 1.05-0.17 0.33-0.41 0.74-0.74 1.14l-3.81 5.04 4.3 6.09c0.65 0.98 0.98 1.63 0.98 2.12 0 0.48-0.25 0.89-0.65 1.3-0.41 0.32-0.9 0.56-1.55 0.56-0.57 0-0.97-0.16-1.38-0.48-0.57-0.25-0.97-0.73-1.46-1.47l-3.41-4.95z"/>
</defs>
<g transform="translate(.0043105 -.99569)">
<use x="-135" y="-34" width="100%" height="100%" fill="#ffbb0a" xlink:href="#a"/>
<use x="-135" y="-34" width="100%" height="100%" fill="#7f7f7f" xlink:href="#b"/>
<use x="-135" y="-34" width="100%" height="100%" fill="#676767" xlink:href="#c"/>
</g>
</svg>
