<svg xmlns="http://www.w3.org/2000/svg" width="60" height="20" viewBox="0 0 60 20">
    <g fill="none" fill-rule="evenodd">
        <path fill="#E14C9A" d="M49 5.21C49 2.331 46.793 0 44.07 0c-.74 0-1.44.17-2.07.48L47.451 9A5.335 5.335 0 0 0 49 5.21"/>
        <path fill="#3D3F40" d="M0 0v15.666C0 18.05 1.796 20 4 20V4.334l-.002-.065C3.961 1.905 2.186 0 0 0M15.164 15.658v.001H10.16v-3.487h5.004c.921 0 1.668.78 1.668 1.743 0 .963-.747 1.743-1.668 1.743m2.133-7.43l.008-.022a6.324 6.324 0 0 0 .358-2.104c0-3.346-2.578-6.06-5.771-6.097-.018 0-.14-.005-.185-.005H6.002c0 2.376 1.81 4.328 4.131 4.343h1.694c.922 0 1.669.78 1.669 1.743 0 .963-.747 1.744-1.669 1.744v.002h-3.76c-1.123.006-2.033.941-2.064 2.109l-.001-.01v.028L6 10.002l.002.042v5.611c0 2.384 1.837 4.318 4.112 4.344h.003l.043.001.043-.001h5.155C18.491 19.892 21 17.203 21 13.904c0-2.582-1.536-4.786-3.703-5.676M32.5 15.656c-2.967 0-5.372-2.532-5.372-5.654 0-3.123 2.405-5.655 5.372-5.655s5.372 2.532 5.372 5.655c0 3.122-2.405 5.654-5.372 5.654M32.499 0C27.249 0 23 4.472 23 10s4.248 10 9.499 10C37.751 20 42 15.528 42 10S37.751 0 32.499 0M60 .397A5.915 5.915 0 0 0 57.873 0c-2.088 0-3.928 1.082-5.007 2.723h-.001L48.41 9.622S42 19.573 42 19.602c.663.256 1.38.397 2.13.397 2.089 0 3.928-1.082 5.007-2.723h.001v-.002l1.902-2.908 1.904 3.026C54.028 18.969 55.828 20 57.864 20c.752 0 1.472-.14 2.135-.398l-6.146-9.545C54.983 8.287 60 .426 60 .397"/>
    </g>
</svg>
