<?xml version="1.0" encoding="UTF-8"?>
<svg class="icon" width="1223.7" height="501.76" version="1.1" viewBox="0 0 1223.6801 1003.52" xmlns="http://www.w3.org/2000/svg" xmlns:cc="http://creativecommons.org/ns#" xmlns:dc="http://purl.org/dc/elements/1.1/" xmlns:rdf="http://www.w3.org/1999/02/22-rdf-syntax-ns#">
<metadata>
<rdf:RDF>
<cc:Work rdf:about="">
<dc:format>image/svg+xml</dc:format>
<dc:type rdf:resource="http://purl.org/dc/dcmitype/StillImage"/>
<dc:title/>
</cc:Work>
</rdf:RDF>
</metadata>
<path d="m238.08 378.88v153.6s245.76-122.88 307.2-30.72v92.16s-337.92-81.92-358.4 184.32c0 0 0 215.04 194.56 225.28 0 0 286.72-30.72 327.68-30.72v-512c-10.24 0-40.96-225.28-471.04-81.92zm307.2 317.44v163.84s-194.56 51.2-225.28-51.2v-51.2s10.24-92.16 225.28-61.44zm204.8-337.92v634.88h143.36v-512s184.32-51.2 194.56 20.48v481.28h163.84l-10.24-522.24s-10.24-133.12-153.6-133.12c-143.36 0-337.92 30.72-337.92 30.72zm563.2-225.28h153.6v409.6h10.24l194.56-204.8h163.84l-256 276.48v20.48l256 348.16h-163.84l-204.8-266.24h-10.24v266.24h-153.6v-849.92z" fill="#651c80"/>
<path d="m-611.84 993.28h522.24s61.44 0 81.92-20.48v-20.48h-81.92v-20.48h153.6s20.48-10.24 20.48-30.72h-174.08v-30.72h194.56s10.24 0 10.24-30.72h-573.44v-30.72h593.92v-30.72h-593.92v-30.72h604.16v-30.72h-604.16v-30.72h604.16v-30.72h-604.16v-30.72h593.92s10.24-30.72-20.48-30.72h-573.44v-30.72h563.2s0-30.72-20.48-30.72h-225.28v-20.48h174.08s0-30.72-30.72-30.72h-143.36v-30.72h81.92s40.96-10.24 61.44-30.72h-460.8v-30.72h501.76s20.48-20.48 20.48-30.72h-522.24v-30.72h552.96s10.24-10.24 10.24-30.72h-563.2v-30.72h563.2v-30.72h-563.2v-30.72h563.2v-20.48h-563.2v-30.72h552.96s0-30.72-10.24-30.72h-174.08v-30.72h163.84s0-30.72-20.48-30.72h-133.12v-30.72h81.92s0-30.72-61.44-30.72h-552.96z" fill="#dea014"/>
</svg>
