<svg xmlns="http://www.w3.org/2000/svg" width="120" height="120" xmlns:v="https://vecta.io/nano"><path d="M11.359 26.12l14.532 25.975v15.844L11.376 93.863l-.017-67.743z" fill="#5b57a2"/><path d="M67.156 42.643l13.617-8.346 27.868-.026-41.485 25.414V42.643z" fill="#d90751"/><path d="M67.079 25.967l.077 34.39-14.566-8.95V0l14.49 25.967z" fill="#fab718"/><path d="M108.641 34.271l-27.869.026-13.693-8.33L52.59 0l56.05 34.271z" fill="#ed6f26"/><path d="M67.156 94.007V77.322l-14.566-8.78.008 51.458 14.558-25.993z" fill="#63b22f"/><path d="M80.739 85.737L25.89 52.095 11.359 26.12l97.223 59.583-27.844.034z" fill="#1487c9"/><path d="M52.599 120l14.556-25.993 13.583-8.27 27.843-.034L52.599 120z" fill="#017f36"/><path d="M11.376 93.863l41.333-25.32-13.896-8.526-12.922 7.922-14.515 25.924z" fill="#984995"/></svg>