<?xml version="1.0" encoding="UTF-8"?>
<svg width="62.215" height="67.637" version="1.1" viewBox="0 0 62.214531 67.636805" xml:space="preserve" xmlns="http://www.w3.org/2000/svg" xmlns:cc="http://creativecommons.org/ns#" xmlns:dc="http://purl.org/dc/elements/1.1/" xmlns:rdf="http://www.w3.org/1999/02/22-rdf-syntax-ns#" xmlns:xlink="http://www.w3.org/1999/xlink"><metadata><rdf:RDF><cc:Work rdf:about=""><dc:format>image/svg+xml</dc:format><dc:type rdf:resource="http://purl.org/dc/dcmitype/StillImage"/><dc:title/></cc:Work></rdf:RDF></metadata><path d="m53.916 46.174-4.9073-7.9789-4.8128 7.9789zm-0.009333-24.746h-9.7708l4.8692 7.8191zm-22.876-12.42-4.8409 7.9363h9.7217zm-22.771 12.42 4.8313 7.8675 4.8068-7.8675zm-0.00533 24.813 9.6517-0.05933-4.8136-7.9087zm-8.2545-29.296h20.737l9.7543-15.937 0.6164-1.0076 0.6168 1.0076 9.7539 15.937h20.736l-0.6176 1.0028-9.752 15.834 9.7547 15.947 0.61333 1.0028h-20.735l-9.7535 15.9-0.6168 1.0053-0.6164-1.0053-9.7539-15.9h-20.735l0.61293-1.0028 9.7543-15.947-9.7516-15.834zm23.451 4.6329-7.8573 12.208 7.8573 12.314h15.313l7.8577-12.314-7.8577-12.208zm7.6493 37.024 4.8125-7.8697h-9.7127zm-0.5556-30.013c1.5308 0 2.9232 0.58853 3.9323 1.538v-0.0027c1.0072 0.94667 1.6328 2.2552 1.6328 3.6964 0 1.4388-0.6256 2.7461-1.6328 3.6937v0.0027c-1.0068 0.9468-2.3996 1.5349-3.9323 1.5349-1.5325 0-2.9245-0.58813-3.9315-1.5349h0.0027c-1.0099-0.94907-1.6361-2.2579-1.6361-3.6967 0-1.4375 0.6248-2.7452 1.6331-3.6937l0.0027-0.0027-0.0027 0.0027 0.0027-0.0027c1.0088-0.948 2.3996-1.5353 3.9284-1.5353" fill="#853a93" fill-rule="evenodd"/></svg>
