<?xml version="1.0" encoding="UTF-8"?>
<svg width="520.65" height="67.661" version="1.1" viewBox="0 0 520.64905 67.661066" xml:space="preserve" xmlns="http://www.w3.org/2000/svg" xmlns:cc="http://creativecommons.org/ns#" xmlns:dc="http://purl.org/dc/elements/1.1/" xmlns:rdf="http://www.w3.org/1999/02/22-rdf-syntax-ns#" xmlns:xlink="http://www.w3.org/1999/xlink"><metadata><rdf:RDF><cc:Work rdf:about=""><dc:format>image/svg+xml</dc:format><dc:type rdf:resource="http://purl.org/dc/dcmitype/StillImage"/><dc:title/></cc:Work></rdf:RDF></metadata><g transform="matrix(1.3333 0 0 -1.3333 -2.5041 68.797)" fill="#853a93"><path d="m69.518 12.835v25.922h3.4336v-12.856l12.873 12.856h4.6472l-10.876-10.502 11.352-15.42h-4.5258l-9.2288 13.121-4.2426-4.14v-8.9807zm36.145 2.3173c-1.1829-1.0017-2.3179-1.7081-3.4038-2.124-1.0922-0.4107-2.2635-0.6156-3.5124-0.6156-2.0645 0-3.6459 0.5005-4.7563 1.5088-1.1046 1.0077-1.6597 2.2992-1.6597 3.8625 0 0.9235 0.205 1.7623 0.6273 2.5229 0.4167 0.7599 0.9664 1.3699 1.6422 1.8286 0.6817 0.4583 1.4422 0.809 2.2935 1.0437 0.6216 0.163 1.5633 0.326 2.8244 0.4774 2.5708 0.3078 4.4657 0.6692 5.6792 1.0981 0.0122 0.4345 0.0182 0.7121 0.0182 0.8266 0 1.298-0.3022 2.215-0.9057 2.7402-0.8084 0.7246-2.0217 1.08-3.621 1.08-1.4967 0-2.6013-0.2591-3.3194-0.7843-0.712-0.5253-1.237-1.4545-1.5811-2.7882l-3.1085 0.4289c0.284 1.3278 0.7484 2.4078 1.3944 3.2227 0.6457 0.8206 1.5874 1.4545 2.8122 1.895 1.2257 0.4405 2.6439 0.6636 4.2608 0.6636 1.6058 0 2.9032-0.1928 3.9053-0.5672 1.0017-0.3805 1.7385-0.8513 2.215-1.4242 0.4708-0.5737 0.7968-1.2917 0.9895-2.1668 0.1029-0.5431 0.1571-1.521 0.1571-2.933v-4.2432c0-2.9627 0.066-4.8339 0.2052-5.6126 0.1324-0.7846 0.4042-1.5392 0.8025-2.2572h-3.3256c-0.3254 0.6577-0.5426 1.4307-0.6333 2.3173zm-0.2656 7.1099c-1.1591-0.4768-2.891-0.8751-5.1967-1.207-1.3096-0.1874-2.2391-0.3983-2.776-0.6338-0.5431-0.2353-0.9655-0.5794-1.2552-1.0381-0.2956-0.4527-0.447-0.9538-0.447-1.5089 0-0.8509 0.326-1.5573 0.9655-2.1245 0.6403-0.5613 1.5814-0.8447 2.8187-0.8447 1.2255 0 2.3179 0.2653 3.2712 0.8027 0.9533 0.5369 1.6597 1.2733 2.1065 2.2028 0.3441 0.718 0.513 1.7805 0.513 3.1808zm8.1173-9.4272v18.776h2.8613v-2.8423c0.7302 1.3277 1.406 2.2084 2.0276 2.6308 0.6157 0.4224 1.2974 0.6398 2.0398 0.6398 1.0744 0 2.1609-0.3442 3.2712-1.0259l-1.0981-2.9577c-0.7727 0.4652-1.5514 0.6948-2.3301 0.6948-0.6999 0-1.3215-0.2115-1.8771-0.6281-0.5547-0.4221-0.9473-1.0018-1.1829-1.7442-0.3557-1.1288-0.5309-2.3658-0.5309-3.7117v-9.8314zm12.095 0v18.776h2.861v-2.6677c1.3821 2.0644 3.3735 3.096 5.9748 3.096 1.1345 0 2.1725-0.205 3.1201-0.6092 0.9539-0.4107 1.66-0.9417 2.1303-1.6053 0.4773-0.6584 0.8033-1.4431 0.9961-2.3479 0.1145-0.5916 0.1751-1.624 0.1751-3.0966v-11.545h-3.1864v11.425c0 1.2914-0.121 2.2628-0.3688 2.9089-0.2469 0.6397-0.6874 1.1525-1.3155 1.5329-0.6339 0.3861-1.3697 0.5794-2.221 0.5794-1.3581 0-2.5228-0.4345-3.5124-1.2914-0.9839-0.8635-1.4726-2.4928-1.4726-4.9006v-10.254zm32.392 2.3173c-1.1829-1.0017-2.3179-1.7081-3.4038-2.124-1.0925-0.4107-2.2638-0.6156-3.5127-0.6156-2.0645 0-3.6456 0.5005-4.7563 1.5088-1.1046 1.0077-1.6594 2.2992-1.6594 3.8625 0 0.9235 0.205 1.7623 0.6273 2.5229 0.4165 0.7599 0.9664 1.3699 1.6422 1.8286 0.6817 0.4583 1.4422 0.809 2.2935 1.0437 0.6213 0.163 1.563 0.326 2.8241 0.4774 2.571 0.3078 4.466 0.6692 5.6792 1.0981 0.0125 0.4345 0.0182 0.7121 0.0182 0.8266 0 1.298-0.3019 2.215-0.9054 2.7402-0.8084 0.7246-2.022 1.08-3.6213 1.08-1.4967 0-2.6013-0.2591-3.3191-0.7843-0.71201-0.5253-1.2373-1.4545-1.5814-2.7882l-3.1082 0.4289c0.2838 1.3278 0.74839 2.4078 1.3944 3.2227 0.64539 0.8206 1.5871 1.4545 2.8119 1.895 1.2257 0.4405 2.6442 0.6636 4.2611 0.6636 1.6058 0 2.9032-0.1928 3.905-0.5672 1.0018-0.3805 1.7385-0.8513 2.2153-1.4242 0.4708-0.5737 0.7968-1.2917 0.9895-2.1668 0.1027-0.5431 0.1571-1.521 0.1571-2.933v-4.2432c0-2.9627 0.066-4.8339 0.2049-5.6126 0.1327-0.7846 0.4042-1.5392 0.8028-2.2572h-3.3256c-0.3254 0.6577-0.5428 1.4307-0.6333 2.3173zm-0.2659 7.1099c-1.1588-0.4768-2.891-0.8751-5.1967-1.207-1.3096-0.1874-2.2391-0.3983-2.7757-0.6338-0.5434-0.2353-0.9658-0.5794-1.2555-1.0381-0.2956-0.4527-0.4467-0.9538-0.4467-1.5089 0-0.8509 0.3257-1.5573 0.9655-2.1245 0.6403-0.5613 1.5814-0.8447 2.8185-0.8447 1.2257 0 2.3181 0.2653 3.2714 0.8027 0.9533 0.5369 1.6594 1.2733 2.1064 2.2028 0.3442 0.718 0.5128 1.7805 0.5128 3.1808zm15.1-6.5784 0.4586-2.8125c-0.89321-0.1871-1.6957-0.284-2.4021-0.284-1.1582 0-2.0514 0.1811-2.6917 0.5496-0.6333 0.3617-1.08 0.8447-1.3394 1.4423-0.2599 0.5913-0.3926 1.8465-0.3926 3.7539v10.803h-2.3355v2.4744h2.3355v4.6536l3.1683 1.9066v-6.5602h3.1989v-2.4744h-3.1989v-10.978c0-0.9119 0.0544-1.4908 0.163-1.7507 0.1153-0.2594 0.2962-0.4646 0.549-0.6216 0.2537-0.1508 0.616-0.2291 1.0868-0.2291 0.3564 0 0.8207 0.0423 1.4001 0.1267zm15.366-0.5315c-1.1829-1.0017-2.3179-1.7081-3.4038-2.124-1.0925-0.4107-2.2638-0.6156-3.5124-0.6156-2.0645 0-3.646 0.5005-4.7563 1.5088-1.1047 1.0077-1.6597 2.2992-1.6597 3.8625 0 0.9235 0.20501 1.7623 0.6273 2.5229 0.4164 0.7599 0.96641 1.3699 1.6421 1.8286 0.6818 0.4583 1.4423 0.809 2.2935 1.0437 0.62139 0.163 1.5631 0.326 2.8245 0.4774 2.5707 0.3078 4.4657 0.6692 5.6789 1.0981 0.0125 0.4345 0.0182 0.7121 0.0182 0.8266 0 1.298-0.30189 2.215-0.9054 2.7402-0.8085 0.7246-2.0217 1.08-3.6213 1.08-1.4964 0-2.6011-0.2591-3.3191-0.7843-0.71201-0.5253-1.2373-1.4545-1.5814-2.7882l-3.1082 0.4289c0.28399 1.3278 0.7483 2.4078 1.3944 3.2227 0.6454 0.8206 1.5871 1.4545 2.8122 1.895 1.2254 0.4405 2.6439 0.6636 4.2608 0.6636 1.6058 0 2.9032-0.1928 3.905-0.5672 1.002-0.3805 1.7385-0.8513 2.2152-1.4242 0.4709-0.5737 0.79689-1.2917 0.9896-2.1668 0.1026-0.5431 0.15709-1.521 0.15709-2.933v-4.2432c0-2.9627 0.066-4.8339 0.2049-5.6126 0.13271-0.7846 0.40421-1.5392 0.8028-2.2572h-3.3256c-0.32541 0.6577-0.54261 1.4307-0.6333 2.3173zm-0.2659 7.1099c-1.1588-0.4768-2.8908-0.8751-5.1965-1.207-1.3098-0.1874-2.239-0.3983-2.7759-0.6338-0.5434-0.2353-0.9655-0.5794-1.2555-1.0381-0.29541-0.4527-0.4467-0.9538-0.4467-1.5089 0-0.8509 0.326-1.5573 0.96549-2.1245 0.64031-0.5613 1.5814-0.8447 2.8184-0.8447 1.2257 0 2.3182 0.2653 3.2715 0.8027 0.9533 0.5369 1.6594 1.2733 2.1064 2.2028 0.34421 0.718 0.51281 1.7805 0.51281 3.1808zm8.1661-9.4272v25.922h3.1867v-14.781l7.5319 7.6349h4.1159l-7.1756-6.9648 7.9058-11.811h-3.9288l-6.2039 9.6024-2.2453-2.1609v-7.4415zm30.346 2.3173c-1.1829-1.0017-2.3179-1.7081-3.4038-2.124-1.0922-0.4107-2.2635-0.6156-3.5125-0.6156-2.0644 0-3.6459 0.5005-4.7562 1.5088-1.1047 1.0077-1.6597 2.2992-1.6597 3.8625 0 0.9235 0.205 1.7623 0.6273 2.5229 0.4167 0.7599 0.9663 1.3699 1.6421 1.8286 0.6818 0.4583 1.4423 0.809 2.2935 1.0437 0.6217 0.163 1.5633 0.326 2.8245 0.4774 2.5707 0.3078 4.4657 0.6692 5.6792 1.0981 0.0122 0.4345 0.0179 0.7121 0.0179 0.8266 0 1.298-0.30189 2.215-0.9054 2.7402-0.8085 0.7246-2.0217 1.08-3.6213 1.08-1.4964 0-2.6011-0.2591-3.3191-0.7843-0.712-0.5253-1.237-1.4545-1.5811-2.7882l-3.1085 0.4289c0.284 1.3278 0.74831 2.4078 1.3943 3.2227 0.64551 0.8206 1.5872 1.4545 2.8123 1.895 1.2257 0.4405 2.6439 0.6636 4.2608 0.6636 1.6058 0 2.9032-0.1928 3.9052-0.5672 1.0018-0.3805 1.7382-0.8513 2.215-1.4242 0.47089-0.5737 0.79689-1.2917 0.98959-2.1668 0.1029-0.5431 0.15701-1.521 0.15701-2.933v-4.2432c0-2.9627 0.0661-4.8339 0.20529-5.6126 0.1324-0.7846 0.4042-1.5392 0.8025-2.2572h-3.3256c-0.3255 0.6577-0.54261 1.4307-0.6333 2.3173zm-0.2656 7.1099c-1.1591-0.4768-2.8911-0.8751-5.1968-1.207-1.3096-0.1874-2.2391-0.3983-2.7759-0.6338-0.5432-0.2353-0.9655-0.5794-1.2552-1.0381-0.2957-0.4527-0.447-0.9538-0.447-1.5089 0-0.8509 0.3259-1.5573 0.9654-2.1245 0.6404-0.5613 1.5815-0.8447 2.8188-0.8447 1.2254 0 2.3179 0.2653 3.2712 0.8027 0.9533 0.5369 1.6597 1.2733 2.1064 2.2028 0.3441 0.718 0.5131 1.7805 0.5131 3.1808zm18.474-9.4272v25.922h9.7285c1.9797 0 3.5669-0.2659 4.7619-0.7852 1.2011-0.5244 2.1365-1.3337 2.8123-2.4259 0.67629-1.0865 1.0205-2.2269 1.0205-3.422 0-1.1046-0.30191-2.1486-0.9054-3.1266-0.5976-0.9777-1.5089-1.768-2.7221-2.3715 1.5689-0.4586 2.77-1.2429 3.6153-2.3476 0.8447-1.1106 1.2676-2.4202 1.2676-3.9291 0-1.2135-0.25989-2.342-0.77299-3.386-0.51281-1.0443-1.1466-1.847-1.9006-2.4143-0.75489-0.5672-1.7025-0.9895-2.8366-1.2792-1.1353-0.2897-2.5291-0.4346-4.1828-0.4346zm3.4336 15.028h5.6067c1.5154 0 2.6078 0.1023 3.2714 0.3016 0.8691 0.2599 1.5271 0.688 1.9673 1.2915 0.441 0.604 0.6644 1.358 0.6644 2.2637 0 0.8569-0.2052 1.6175-0.61601 2.2689-0.4164 0.6582-1.0074 1.1046-1.7679 1.3458-0.7665 0.2418-2.0826 0.362-3.9473 0.362h-5.1786zm0-11.968h6.452c1.1106 0 1.8892 0.0423 2.3354 0.1211 0.79119 0.1448 1.4488 0.3801 1.9797 0.712 0.531 0.326 0.96579 0.8085 1.3099 1.4363 0.33821 0.6339 0.51281 1.3578 0.51281 2.185 0 0.9655-0.2472 1.8042-0.7424 2.5228-0.49491 0.7121-1.1832 1.2127-2.0639 1.5024-0.87499 0.284-2.1427 0.4289-3.7899 0.4289h-5.9936zm32.712-0.7424c-1.1829-1.0017-2.3178-1.7081-3.4038-2.124-1.0922-0.4107-2.2635-0.6156-3.5124-0.6156-2.0645 0-3.6459 0.5005-4.7563 1.5088-1.1046 1.0077-1.6596 2.2992-1.6596 3.8625 0 0.9235 0.2052 1.7623 0.6273 2.5229 0.4167 0.7599 0.9663 1.3699 1.6421 1.8286 0.68171 0.4583 1.4422 0.809 2.2935 1.0437 0.6216 0.163 1.5633 0.326 2.8244 0.4774 2.5708 0.3078 4.4657 0.6692 5.6792 1.0981 0.0122 0.4345 0.0182 0.7121 0.0182 0.8266 0 1.298-0.30219 2.215-0.9057 2.7402-0.80839 0.7246-2.0217 1.08-3.621 1.08-1.4967 0-2.6013-0.2591-3.3193-0.7843-0.71211-0.5253-1.2371-1.4545-1.5812-2.7882l-3.1085 0.4289c0.2841 1.3278 0.74839 2.4078 1.3944 3.2227 0.6457 0.8206 1.5874 1.4545 2.8122 1.895 1.2257 0.4405 2.6439 0.6636 4.2608 0.6636 1.6058 0 2.9032-0.1928 3.9053-0.5672 1.0018-0.3805 1.7385-0.8513 2.215-1.4242 0.47081-0.5737 0.7968-1.2917 0.98961-2.1668 0.1029-0.5431 0.15699-1.521 0.15699-2.933v-4.2432c0-2.9627 0.066-4.8339 0.2052-5.6126 0.13241-0.7846 0.40421-1.5392 0.8025-2.2572h-3.3256c-0.32541 0.6577-0.5425 1.4307-0.6333 2.3173zm-0.2656 7.1099c-1.159-0.4768-2.891-0.8751-5.1967-1.207-1.3096-0.1874-2.2391-0.3983-2.776-0.6338-0.5431-0.2353-0.9655-0.5794-1.2552-1.0381-0.2956-0.4527-0.447-0.9538-0.447-1.5089 0-0.8509 0.326-1.5573 0.96549-2.1245 0.64031-0.5613 1.5814-0.8447 2.8188-0.8447 1.2254 0 2.3179 0.2653 3.2711 0.8027 0.9533 0.5369 1.6597 1.2733 2.1065 2.2028 0.3441 0.718 0.513 1.7805 0.513 3.1808zm8.1536-9.4272v18.776h2.8613v-2.6677c1.3822 2.0644 3.3735 3.096 5.9746 3.096 1.1344 0 2.1725-0.205 3.1201-0.6092 0.9538-0.4107 1.6602-0.9417 2.1302-1.6053 0.4774-0.6584 0.8034-1.4431 0.9961-2.3479 0.1145-0.5916 0.1755-1.624 0.1755-3.0966v-11.545h-3.1867v11.425c0 1.2914-0.12109 2.2628-0.36879 2.9089-0.2469 0.6397-0.6874 1.1525-1.3153 1.5329-0.6338 0.3861-1.37 0.5794-2.2209 0.5794-1.3584 0-2.5232-0.4345-3.5127-1.2914-0.9837-0.8635-1.4726-2.4928-1.4726-4.9006v-10.254zm20.152 0v25.922h3.1864v-14.781l7.5322 7.6349h4.1159l-7.1756-6.9648 7.9058-11.811h-3.9291l-6.2036 9.6024-2.2456-2.1609v-7.4415zm28.414 0v25.922h3.4337v-22.862h12.765v-3.0597zm26.827 2.8488 0.45861-2.8125c-0.8932-0.1871-1.696-0.284-2.4021-0.284-1.1582 0-2.0514 0.1811-2.6918 0.5496-0.63319 0.3617-1.08 0.8447-1.3393 1.4423-0.26031 0.5913-0.39261 1.8465-0.39261 3.7539v10.803h-2.3355v2.4744h2.3355v4.6536l3.1683 1.9066v-6.5602h3.1989v-2.4744h-3.1989v-10.978c0-0.9119 0.0544-1.4908 0.1629-1.7507 0.11511-0.2594 0.29631-0.4646 0.54911-0.6216 0.25369-0.1508 0.6157-0.2291 1.0865-0.2291 0.35661 0 0.82101 0.0423 1.4004 0.1267zm15.294-2.8488v2.3718c-1.1891-1.8647-2.9392-2.7941-5.2509-2.7941-1.4967 0-2.8729 0.4101-4.1281 1.2373-1.2554 0.8206-2.2269 1.9732-2.9208 3.4582-0.6882 1.4783-1.0324 3.1743-1.0324 5.0996 0 1.8711 0.3138 3.5728 0.9355 5.0998 0.6278 1.5267 1.563 2.698 2.8125 3.5064 1.2495 0.815 2.6498 1.2252 4.1944 1.2252 1.1285 0 2.1368-0.2413 3.0178-0.718 0.8872-0.4765 1.6058-1.0982 2.1606-1.8652v9.301h3.1626v-25.922zm-10.061 9.3728c0-2.4078 0.5071-4.2066 1.5205-5.3952 1.0139-1.1894 2.2093-1.787 3.5915-1.787 1.3878 0 2.5707 0.5738 3.5422 1.7079 0.972 1.1353 1.4609 2.8729 1.4609 5.2084 0 2.5716-0.4955 4.4543-1.4847 5.6554-0.9896 1.2075-2.2088 1.8042-3.6633 1.8042-1.4127 0-2.5956-0.5788-3.543-1.7319-0.9476-1.1526-1.4241-2.975-1.4241-5.4618zm18.921-9.3728v3.6269h3.6272v-3.6269z" stroke="#853a93"/><path d="m244.19 8.2275h1.8808l1.1058-1.9247 1.1061 1.9247h1.8691l-2.1305-3.3129v-2.387h-1.6971v2.387zm5.9519-3.6471c0 0.6293 0.20381 1.1492 0.6126 1.5568 0.40931 0.4088 0.9603 0.6129 1.6557 0.6129 0.79541 0 1.3958-0.2398 1.8011-0.7192 0.32739-0.3861 0.4904-0.8626 0.4904-1.4278 0-0.6347-0.20321-1.1545-0.6075-1.5608-0.4047-0.4047-0.96491-0.608-1.68-0.608-0.6384 0-1.1532 0.169-1.5472 0.506-0.4839 0.4164-0.7251 0.9635-0.7251 1.6401zm1.5245 4e-3c0-0.3685 0.0717-0.6409 0.216-0.8161 0.1428-0.176 0.3228-0.26499 0.5394-0.26499 0.21999 0 0.39909 0.0878 0.54 0.261 0.1412 0.17409 0.2115 0.45159 0.2115 0.83629 0 0.35711-0.0717 0.6236-0.21261 0.7988-0.14179 0.174-0.31839 0.2613-0.52779 0.2613-0.222 0-0.4048-0.0887-0.5491-0.26499-0.1443-0.17801-0.2174-0.44901-0.2174-0.81131zm8.3335-2.0565h-1.421v0.6687c-0.212-0.27499-0.42491-0.47089-0.64031-0.5865-0.216-0.1165-0.48189-0.1755-0.79479-0.1755-0.41841 0-0.747 0.1301-0.98511 0.3906-0.23719 0.26021-0.35629 0.66161-0.35629 1.2036v2.6272h1.5284v-2.27c0-0.2594 0.046-0.4436 0.13841-0.5525 0.093-0.1086 0.22159-0.163 0.3886-0.163 0.1823 0 0.3305 0.0726 0.447 0.21741 0.1157 0.14629 0.17319 0.4062 0.17319 0.7821v1.986h1.5219zm1.3199 4.1281h1.4244v-0.6752c0.1377 0.2916 0.2792 0.4935 0.42489 0.60351 0.14541 0.11049 0.32511 0.16609 0.5391 0.16609 0.22451 0 0.46971-0.0729 0.7362-0.21769l-0.47029-1.1282c-0.17831 0.0785-0.32141 0.117-0.426 0.117-0.19931 0-0.35381-0.0858-0.4632-0.2559-0.1565-0.2418-0.2361-0.69279-0.2361-1.3539v-1.3838h-1.529zm7.3207 1.5718h4.1871v-1.2252h-2.4869v-0.99519h2.1229v-1.1506h-2.1229v-2.3289h-1.7002zm6.569-2.9078-1.453 0.159c0.055 0.2645 0.1338 0.4728 0.23719 0.6242 0.1035 0.15111 0.25181 0.2826 0.44621 0.3937 0.1392 0.0808 0.33199 0.1438 0.5757 0.1868 0.24379 0.0443 0.5077 0.0667 0.7923 0.0667 0.45529 0 0.8226-0.0264 1.0982-0.0794 0.2769-0.053 0.5082-0.165 0.69131-0.3331 0.13009-0.117 0.2322-0.2815 0.3079-0.4955 0.0745-0.2146 0.11049-0.4178 0.11049-0.6125v-1.8239c0-0.1933 0.0136-0.3458 0.0357-0.4566 0.0247-0.1097 0.0757-0.2503 0.15591-0.4215h-1.4275c-0.0575 0.106-0.0944 0.1868-0.1125 0.2423-0.0173 0.0564-0.0343 0.1438-0.0525 0.2634-0.19841-0.2004-0.3977-0.3427-0.59411-0.4275-0.26929-0.1139-0.58219-0.1715-0.93709-0.1715-0.4737 0-0.8337 0.1145-1.0798 0.343-0.24489 0.2268-0.36789 0.5083-0.36789 0.8425 0 0.3143 0.0887 0.5717 0.26589 0.7735 0.17721 0.2033 0.50261 0.3532 0.97851 0.4516 0.5718 0.1191 0.9417 0.2024 1.1112 0.2503 0.16869 0.0479 0.34779 0.112 0.5375 0.1888 0 0.1947-0.0389 0.3305-0.1151 0.4087-0.0777 0.0771-0.21351 0.1165-0.40881 0.1165-0.24829 0-0.43449-0.0422-0.5595-0.125-0.097-0.0646-0.17659-0.1868-0.23619-0.3645zm1.3196-0.832c-0.20951-0.0788-0.4284-0.14739-0.654-0.2075-0.3084-0.0847-0.5043-0.1695-0.5865-0.2517-0.0853-0.0864-0.1275-0.1837-0.1275-0.2922 0-0.1248 0.0422-0.2257 0.12499-0.30529 0.0847-0.0783 0.20691-0.11771 0.36851-0.11771 0.1695 0 0.3265 0.042 0.47329 0.12731 0.1458 0.0862 0.2484 0.1911 0.3099 0.3132 0.0615 0.1236 0.0913 0.2838 0.0913 0.48049zm2.7932 2.168h1.4205v-0.60209c0.2049 0.2523 0.4104 0.42999 0.61881 0.53739 0.20769 0.1061 0.4592 0.1591 0.75399 0.1591 0.31581 0 0.56661-0.0581 0.7497-0.1752 0.1857-0.1165 0.3357-0.29029 0.4527-0.52129 0.23871 0.26899 0.45731 0.45349 0.65451 0.55049 0.1968 0.0969 0.4391 0.146 0.72879 0.146 0.42641 0 0.75891-0.1313 0.9975-0.3958 0.23991-0.2624 0.35891-0.6737 0.35891-1.2339v-2.5928h-1.5245v2.3516c0 0.18681-0.0348 0.3265-0.10461 0.4164-0.1029 0.1423-0.2304 0.21351-0.38179 0.21351-0.17831 0-0.324-0.0672-0.434-0.2013-0.10911-0.13581-0.163-0.35181-0.163-0.65061v-2.1296h-1.5256v2.2745c0 0.18171-0.011 0.3042-0.0297 0.3688-0.0329 0.1034-0.0893 0.1874-0.16809 0.2508-0.0802 0.0641-0.1735 0.0959-0.2815 0.0959-0.1746 0-0.31751-0.0692-0.4295-0.2058-0.1125-0.13839-0.168-0.36339-0.168-0.67719v-2.107h-1.5251zm8.0827 1.5718h1.5222v-1.0775h-1.5222zm0-1.5718h1.5222v-4.1281h-1.5222zm2.9285 1.5718h1.5256v-5.6999h-1.5256zm2.5713-1.5718h1.6061l0.8187-2.7479 0.75939 2.7479h1.4992l-1.5749-4.4122c-0.178-0.5031-0.36231-0.8427-0.5491-1.0179-0.2645-0.2497-0.66611-0.3739-1.207-0.3739-0.21999 0-0.55809 0.0318-1.0173 0.0939l-0.1182 1.1041c0.21791-0.0732 0.4623-0.1089 0.73191-0.1089 0.1785 0 0.3242 0.0428 0.43539 0.12761 0.11111 0.0859 0.2049 0.23859 0.2814 0.45919zm9.0496 1.5718h3.1703c0.5284 0 0.934-0.1372 1.216-0.4088 0.2832-0.2724 0.425-0.6094 0.425-1.0102 0-0.3371-0.101-0.62619-0.3028-0.86799-0.1346-0.1605-0.3311-0.2877-0.5904-0.381 0.3931-0.0975 0.6828-0.2679 0.8685-0.50631 0.1857-0.2406 0.2786-0.54189 0.2786-0.9042 0-0.2957-0.0666-0.5616-0.1978-0.7974-0.1333-0.2361-0.313-0.4218-0.542-0.5601-0.1417-0.0848-0.3563-0.1469-0.6429-0.1857-0.3821-0.0519-0.6344-0.0782-0.7591-0.0782h-2.9234zm1.7079-2.2366h0.7367c0.2639 0 0.4476 0.0479 0.5525 0.14229 0.1034 0.0959 0.1545 0.2322 0.1545 0.4099 0 0.1656-0.0511 0.2957-0.1545 0.3889-0.1049 0.0944-0.2846 0.1409-0.5409 0.1409h-0.7483zm0-2.2385h0.8643c0.2916 0 0.498 0.053 0.6156 0.1605 0.1202 0.1074 0.1803 0.25221 0.1803 0.4339 0 0.16901-0.0586 0.3039-0.1771 0.40631-0.1182 0.102-0.326 0.1539-0.6228 0.1539h-0.8603zm5.9114 1.5673-1.4531 0.159c0.055 0.2645 0.1338 0.4728 0.2378 0.6242 0.1029 0.15111 0.2509 0.2826 0.4465 0.3937 0.1383 0.0808 0.3311 0.1438 0.5749 0.1868 0.2437 0.0443 0.5082 0.0667 0.7922 0.0667 0.4559 0 0.8232-0.0264 1.0988-0.0794 0.2769-0.053 0.5076-0.165 0.6913-0.3331 0.1301-0.117 0.2316-0.2815 0.3079-0.4955 0.0739-0.2146 0.1108-0.4178 0.1108-0.6125v-1.8239c0-0.1933 0.0128-0.3458 0.0354-0.4566 0.0238-0.1097 0.0757-0.2503 0.1559-0.4215h-1.4275c-0.0581 0.106-0.0949 0.1868-0.1125 0.2423-0.0173 0.0564-0.0343 0.1438-0.0522 0.2634-0.1993-0.2004-0.3985-0.3427-0.5944-0.4275-0.2699-0.1139-0.5822-0.1715-0.938-0.1715-0.4734 0-0.8328 0.1145-1.0794 0.343-0.2449 0.2268-0.3674 0.5083-0.3674 0.8425 0 0.3143 0.0882 0.5717 0.2653 0.7735 0.1772 0.2033 0.5026 0.3532 0.9791 0.4516 0.5712 0.1191 0.9411 0.2024 1.1112 0.2503 0.1681 0.0479 0.3481 0.112 0.5369 0.1888 0 0.1947-0.0383 0.3305-0.1151 0.4087-0.0777 0.0771-0.2129 0.1165-0.4082 0.1165-0.2489 0-0.4345-0.0422-0.5601-0.125-0.097-0.0646-0.1766-0.1868-0.2361-0.3645zm1.3195-0.832c-0.2095-0.0788-0.4275-0.14739-0.6534-0.2075-0.3084-0.0847-0.5049-0.1695-0.5871-0.2517-0.0853-0.0864-0.1275-0.1837-0.1275-0.2922 0-0.1248 0.0422-0.2257 0.125-0.30529 0.0847-0.0783 0.2069-0.11771 0.3685-0.11771 0.1701 0 0.3265 0.042 0.4734 0.12731 0.1457 0.0862 0.2491 0.1911 0.3104 0.3132 0.0609 0.1236 0.0907 0.2838 0.0907 0.48049zm2.7822 2.168h1.417v-0.6713c0.2123 0.27501 0.4269 0.46971 0.6429 0.58791 0.2174 0.11849 0.4813 0.17779 0.7932 0.17779 0.4209 0 0.75-0.1313 0.9887-0.3912 0.2367-0.2605 0.3557-0.6622 0.3557-1.2062v-2.6251h-1.5281v2.2708c0 0.25849-0.0468 0.4416-0.1386 0.54909-0.0925 0.10851-0.2217 0.16161-0.3887 0.16161-0.1837 0-0.3345-0.0723-0.4481-0.2175-0.1146-0.14481-0.1721-0.4059-0.1721-0.7818v-1.9822h-1.5219zm5.4884 1.5718h1.5554v-2.9395l1.1364 1.3677h1.8731l-1.4255-1.446 1.5069-2.6821h-1.7158l-0.8039 1.6563-0.5712-0.58279v-1.0735h-1.5554zm5.4924-4.1142h1.6266v-1.5857h-1.6266zm9.8482-0.6446h-1.9302l-0.26439-0.9411h-1.7306l2.0591 5.6999h1.8465l2.0605-5.6999h-1.7719zm-0.3552 1.2325-0.60609 2.0489-0.60201-2.0489zm6.1804-0.5601 1.4456-0.1713c-0.0796-0.3129-0.2109-0.5853-0.39199-0.81441-0.1823-0.22959-0.41471-0.4073-0.69791-0.5348-0.282-0.12619-0.6423-0.19-1.0774-0.19-0.421 0-0.7731 0.0414-1.0517 0.1222-0.28059 0.0822-0.52189 0.2135-0.72309 0.3963-0.2038 0.18371-0.36141 0.3971-0.47541 0.6443-0.11449 0.2452-0.17199 0.57171-0.17199 0.97911 0 0.42429 0.0691 0.77869 0.2097 1.0613 0.10209 0.2072 0.2412 0.39341 0.4184 0.5576 0.17719 0.16491 0.3583 0.2877 0.5457 0.3673 0.2962 0.1276 0.676 0.1914 1.1389 0.1914 0.6489 0 1.1424-0.1208 1.4826-0.36199 0.3395-0.24071 0.57939-0.59301 0.7166-1.0582l-1.4321-0.19729c-0.0445 0.17659-0.1267 0.3093-0.2449 0.39769-0.1185 0.0907-0.27701 0.1347-0.47741 0.1347-0.2508 0-0.45469-0.0944-0.6111-0.2815-0.1554-0.18879-0.23299-0.47259-0.23299-0.8535 0-0.3396 0.0776-0.597 0.23209-0.7736 0.1539-0.17659 0.3507-0.26389 0.59051-0.26389 0.1987 0 0.36619 0.053 0.5034 0.159 0.1344 0.10599 0.2367 0.26899 0.3045 0.4896zm2.5423 2.5146h1.4236v-0.6752c0.1383 0.2916 0.27951 0.4935 0.42491 0.60351 0.14539 0.11049 0.32599 0.16609 0.5395 0.16609 0.22449 0 0.4694-0.0729 0.7367-0.21769l-0.4709-1.1282c-0.1785 0.0785-0.3214 0.117-0.4263 0.117-0.1984 0-0.3537-0.0858-0.4632-0.2559-0.1564-0.2418-0.2358-0.69279-0.2358-1.3539v-1.3838h-1.5285zm3.7027-2.0753c0 0.62931 0.20381 1.1492 0.61251 1.5568 0.4094 0.4088 0.96039 0.6129 1.6557 0.6129 0.7949 0 1.3958-0.2398 1.8012-0.7192 0.32739-0.3861 0.4904-0.86259 0.4904-1.4278 0-0.63471-0.2033-1.1545-0.6075-1.5608-0.40481-0.4047-0.96491-0.608-1.6801-0.608-0.63829 0-1.1531 0.16901-1.5471 0.506-0.4836 0.4164-0.7251 0.96351-0.7251 1.6401zm1.5244 4e-3c0-0.3685 0.0718-0.6409 0.216-0.8161 0.1432-0.176 0.3229-0.265 0.5395-0.265 0.21939 0 0.39909 0.0878 0.54 0.261 0.14109 0.1741 0.2109 0.4516 0.2109 0.8363 0 0.3571-0.0712 0.6236-0.2121 0.7988-0.1423 0.174-0.3183 0.2613-0.5278 0.2613-0.2219 0-0.40481-0.0887-0.549-0.265-0.1443-0.178-0.2175-0.449-0.2175-0.8113zm3.8812-0.9139 1.5103 0.1483c0.0627-0.1868 0.1494-0.3209 0.26201-0.4003 0.1119-0.0811 0.2613-0.121 0.44869-0.121 0.20381 0 0.36221 0.0453 0.47481 0.1363 0.0867 0.0666 0.1301 0.1514 0.1301 0.2523 0 0.1145-0.0576 0.2018-0.1709 0.2645-0.0834 0.0434-0.30141 0.0978-0.6546 0.163-0.5278 0.0972-0.89571 0.1845-1.1012 0.2664-0.2052 0.0828-0.37839 0.2206-0.5193 0.4147-0.14179 0.1934-0.2109 0.4153-0.2109 0.6642 0 0.2724 0.0762 0.5071 0.22761 0.7038 0.15189 0.1979 0.3614 0.3447 0.6273 0.4417 0.267 0.0969 0.6248 0.146 1.0735 0.146 0.4728 0 0.8229-0.0386 1.0491-0.1126 0.2259-0.0754 0.41271-0.1924 0.56351-0.3503 0.15049-0.1579 0.2755-0.3719 0.3762-0.6409l-1.4429-0.1489c-0.0379 0.1327-0.0995 0.2296-0.1876 0.2917-0.1196 0.0842-0.2636 0.1247-0.4337 0.1247-0.17091 0-0.2971-0.0314-0.3748-0.0949-0.0793-0.0641-0.1176-0.1409-0.1176-0.231 0-0.1021 0.0499-0.1778 0.1494-0.2296 0.0998-0.0516 0.3163-0.0981 0.64999-0.1409 0.50601-0.0596 0.88211-0.1418 1.1279-0.2483 0.2477-0.1061 0.4368-0.2574 0.5666-0.4547 0.1321-0.1967 0.1968-0.4133 0.1968-0.6494 0-0.2387-0.0692-0.4709-0.2078-0.6965-0.1384-0.2257-0.35631-0.4048-0.6537-0.5375-0.2982-0.1338-0.7038-0.2004-1.2166-0.2004-0.7251 0-1.2419 0.1072-1.5492 0.3226-0.3078 0.2149-0.5051 0.5213-0.593 0.917zm5.059 0 1.5103 0.1483c0.0627-0.1868 0.1494-0.3209 0.2619-0.4003 0.1117-0.0811 0.2605-0.121 0.4488-0.121 0.2038 0 0.3622 0.0453 0.47389 0.1363 0.0873 0.0666 0.13071 0.1514 0.13071 0.2523 0 0.1145-0.0575 0.2018-0.17061 0.2645-0.0834 0.0434-0.30139 0.0978-0.65509 0.163-0.52781 0.0972-0.8952 0.1845-1.101 0.2664-0.20501 0.0828-0.37901 0.2206-0.5193 0.4147-0.1415 0.1934-0.2115 0.4153-0.2115 0.6642 0 0.2724 0.0771 0.5071 0.22849 0.7038 0.15191 0.1979 0.36141 0.3447 0.6273 0.4417 0.267 0.0969 0.62421 0.146 1.0729 0.146 0.4734 0 0.8226-0.0386 1.0491-0.1126 0.2257-0.0754 0.41329-0.1924 0.56329-0.3503 0.15131-0.1579 0.27611-0.3719 0.37701-0.6409l-1.4429-0.1489c-0.0382 0.1327-0.0995 0.2296-0.18759 0.2917-0.11961 0.0842-0.26391 0.1247-0.43401 0.1247-0.1707 0-0.29679-0.0314-0.375-0.0949-0.0797-0.0641-0.11709-0.1409-0.11709-0.231 0-0.1021 0.0499-0.1778 0.1488-0.2296 0.0995-0.0516 0.31689-0.0981 0.6506-0.1409 0.50569-0.0596 0.8815-0.1418 1.1279-0.2483 0.24771-0.1061 0.4365-0.2574 0.56661-0.4547 0.13179-0.1967 0.1967-0.4133 0.1967-0.6494 0-0.2387-0.0694-0.4709-0.20771-0.6965-0.13839-0.2257-0.35629-0.4048-0.654-0.5375-0.2979-0.1338-0.7035-0.2004-1.2163-0.2004-0.7251 0-1.2419 0.1072-1.5492 0.3226-0.3078 0.2149-0.50571 0.5213-0.59301 0.917zm8.9428 4.5573h1.6965v-5.6999h-1.6965zm3.1935-1.5718h1.417v-0.6713c0.2123 0.275 0.4263 0.4697 0.6429 0.5879 0.2169 0.1185 0.48129 0.1778 0.7931 0.1778 0.421 0 0.7495-0.1313 0.9882-0.3912 0.2373-0.2605 0.3558-0.6622 0.3558-1.2062v-2.6251h-1.5285v2.2708c0 0.2585-0.0459 0.4416-0.13781 0.5491-0.0929 0.1085-0.22219 0.1616-0.38859 0.1616-0.1842 0-0.3342-0.0723-0.44811-0.2175-0.1146-0.1448-0.17269-0.4059-0.17269-0.7818v-1.9822h-1.5213zm9.6673 1.5718v-5.6999h-1.423v0.6106c-0.201-0.2588-0.3821-0.434-0.5466-0.5259-0.21911-0.1179-0.4629-0.178-0.73211-0.178-0.5406 0-0.95449 0.214-1.2405 0.6409-0.28369 0.4278-0.4269 0.9476-0.4269 1.5594 0 0.6851 0.15681 1.2075 0.4728 1.5704 0.31581 0.3634 0.7161 0.5451 1.2011 0.5451 0.2375 0 0.4515-0.0426 0.64539-0.1248 0.19281-0.0833 0.36371-0.2069 0.5142-0.373v1.9752zm-1.5259-3.6244c0 0.3251-0.0647 0.5664-0.1979 0.7257-0.13071 0.1596-0.2982 0.2392-0.49971 0.2392-0.17749 0-0.3249-0.0771-0.44509-0.2296-0.1196-0.1528-0.1797-0.4087-0.1797-0.7696 0-0.337 0.0621-0.5842 0.1848-0.7407 0.1236-0.1565 0.277-0.2347 0.4578-0.2347 0.1953 0 0.35719 0.0782 0.4864 0.2361 0.1302 0.1591 0.1934 0.4164 0.1934 0.7736zm2.8916 3.6244h1.5219v-1.0775h-1.5219zm0-1.5718h1.5219v-4.1281h-1.5219zm4.263-1.336-1.4533 0.159c0.055 0.2645 0.1338 0.4728 0.2372 0.6242 0.1035 0.1511 0.2518 0.2826 0.4471 0.3937 0.1383 0.0808 0.3311 0.1438 0.5748 0.1868 0.2438 0.0443 0.50769 0.0667 0.7923 0.0667 0.4553 0 0.8226-0.0264 1.0982-0.0794 0.2769-0.053 0.5085-0.165 0.6913-0.3331 0.1301-0.117 0.2322-0.2815 0.30789-0.4955 0.0745-0.2146 0.11081-0.4178 0.11081-0.6125v-1.8239c0-0.1933 0.0133-0.3458 0.0354-0.4566 0.0247-0.1097 0.0757-0.2503 0.15649-0.4215h-1.4281c-0.0575 0.106-0.0944 0.1868-0.1125 0.2423-0.0173 0.0564-0.0343 0.1438-0.0522 0.2634-0.1987-0.2004-0.39801-0.3427-0.5944-0.4275-0.269-0.1139-0.5822-0.1715-0.9371-0.1715-0.4734 0-0.8337 0.1145-1.0795 0.343-0.24521 0.2268-0.36821 0.5083-0.36821 0.8425 0 0.3143 0.0887 0.5717 0.26591 0.7735 0.17719 0.2033 0.5026 0.3532 0.97849 0.4516 0.5718 0.1191 0.9417 0.2024 1.1112 0.2503 0.1689 0.0479 0.34871 0.112 0.53751 0.1888 0 0.1947-0.0389 0.3305-0.11511 0.4087-0.0777 0.0771-0.21349 0.1165-0.40879 0.1165-0.2483 0-0.43451-0.0422-0.5595-0.125-0.097-0.0646-0.1764-0.1868-0.23591-0.3645zm1.3193-0.832c-0.2095-0.0788-0.4281-0.1474-0.654-0.2075-0.3078-0.0847-0.5043-0.1695-0.5865-0.2517-0.0853-0.0864-0.1275-0.1837-0.1275-0.2922 0-0.1248 0.0422-0.2257 0.125-0.3053 0.0847-0.0783 0.20689-0.1177 0.3685-0.1177 0.17 0 0.32679 0.042 0.4734 0.1273 0.1457 0.0862 0.24849 0.1911 0.3098 0.3132 0.0615 0.1236 0.0913 0.2838 0.0913 0.4805zm2.7861-0.3744h1.6268v-1.5857h-1.6268z"/><path d="m42.315 16.967-3.6805 5.9842-3.6096-5.9842zm-7e-3 18.56h-7.3281l3.6519-5.8643zm-17.157 9.3147-3.6307-5.9522h7.2913zm-17.078-9.3147 3.6235-5.9006 3.6051 5.9006zm-4e-3 -18.61 7.2388 0.0445-3.6102 5.9315zm-6.1908 21.972h15.553l7.3157 11.953 0.4623 0.7557 0.4626-0.7557 7.3154-11.953h15.552l-0.4632-0.7521-7.314-11.875 7.316-11.96 0.46-0.7521h-15.551l-7.3151-11.925-0.4626-0.754-0.4623 0.754-7.3154 11.925h-15.551l0.4597 0.7521 7.3157 11.96-7.3137 11.875zm17.588-3.4747-5.893-9.1557 5.893-9.2355h11.485l5.8933 9.2355-5.8933 9.1557zm5.737-27.768 3.6094 5.9023h-7.2845zm-0.4167 22.51c1.1481 0 2.1924-0.4414 2.9492-1.1535v2e-3c0.7554-0.71 1.2246-1.6914 1.2246-2.7723 0-1.0791-0.4692-2.0596-1.2246-2.7703v-2e-3c-0.7551-0.7101-1.7997-1.1512-2.9492-1.1512-1.1494 0-2.1934 0.4411-2.9486 1.1512h2e-3c-0.7574 0.7118-1.2271 1.6934-1.2271 2.7725 0 1.0781 0.4686 2.0589 1.2248 2.7703l2e-3 2e-3 -2e-3 -2e-3 2e-3 2e-3c0.7566 0.711 1.7997 1.1515 2.9463 1.1515" fill-rule="evenodd"/></g></svg>
