<svg width="179.6" height="188.9" xmlns="http://www.w3.org/2000/svg">

 <g>
  <title>background</title>
  <rect fill="none" id="canvas_background" height="190.9" width="181.6" y="-1" x="-1"/>
 </g>
 <g>
  <title>Layer 1</title>
  <g id="g3025">
   <path d="m71.649997,84.95c-10.6,-14.6 -25.3,-27.4 -42,-36.3c-2.5,-1.4 -5.4,-2.1 -8.3,-2.1c-6.5,0 -12.4,3.5 -15.5,9.3c-4.6,8.5 -1.3,19.2 7.2,23.7c25.7,13.8 42.3,40 44.3,70.4c0,0 0,-0.1 0,-0.1c-0.3,-3.4 0.3,-6.7 1.8,-9.8c0.2,-0.4 0.5,-0.9 0.8,-1.4c8,-13.2 12.3,-28.4 12.3,-44c0,-3.3 -0.3,-6.5 -0.6,-9.7" fill="#1476C6" id="path34"/>
   <path d="m173.449997,51.95c-3.1,-13.6 -7.7,-26.8 -13.7,-39.4c-3.2,-6.7 -10.1,-11.1 -17.5,-11.1c-2.9,0 -5.7,0.6 -8.3,1.9c-9.7,4.6 -13.8,16.2 -9.2,25.8c9.8,20.8 14.7,42.7 14.7,65.5c0,22.8 -4.9,44.7 -14.5,65.1c-0.1,0.3 -1.8,3.9 -1.8,8.1c0,1.2 0.1,2.9 0.5,4.5c1.3,5.5 4.8,10.5 10.6,13.2c2.6,1.2 5.4,1.9 8.3,1.9c7.1,0 13.6,-3.9 17,-10.1c3.9,-7.3 7.8,-16.8 11.2,-29.1c1.1,-3.7 2,-7.2 2.8,-10.9c3.1,-13.9 4.8,-28.1 4.8,-42.7c-0.1,-14.4 -1.8,-28.9 -4.9,-42.7" fill="#47AE33" id="path36"/>
   <path d="m91.549997,31.65c-0.3,-0.6 -0.7,-1.1 -1.1,-1.6c-1.3,-1.7 -2.8,-3.1 -4.6,-4.2c-2.9,-1.9 -6.4,-3 -10,-3c-3,0 -4.5,0.4 -6.6,1.2c-2.2,0.9 -4.5,2.1 -6.6,4.3c-2.1,2.2 -3.3,4.4 -4.2,6.8c-1.8,4.7 -1.5,10.8 1.5,15.8c6.4,10.3 10.2,22.1 11.6,34.2c0.4,3.2 0.6,6.5 0.6,9.7c0,15.6 -4.2,30.8 -12.3,44c-0.3,0.5 -0.5,0.9 -0.8,1.4c-1.6,3.1 -2.1,6.6 -1.8,9.9c0.5,5.6 3.6,10.9 8.8,14.1c1.3,0.8 2.8,1.4 4.2,1.9c1.7,0.5 3.5,0.8 5.3,0.8c6.5,0 12.4,-3.3 15.8,-8.9c10.2,-16.7 16.1,-35.7 17.4,-55.2c0.2,-2.6 0.3,-5.3 0.3,-7.9c0.1,-22.6 -6,-44.4 -17.5,-63.3" fill="#ED114C" id="path38"/>
   <path d="m124.849997,159.75c9.7,-20.4 14.6,-42.3 14.6,-65.1c0,-7.8 -0.5,-13.5 -0.9,-17.2c-12.7,-20.3 -31.1,-38.5 -52.7,-51.7c0,0 0.5,0.3 0.5,0.4c1.5,1.1 2.7,2.2 4.1,3.9c0.3,0.4 0.8,1 1.1,1.6c11.5,19 17.5,40.7 17.5,63c0,2.7 -0.1,5.3 -0.3,7.9c9.2,17.5 14.2,37.4 14.2,58.3c0,1.7 0,4.3 0,6.3c0.1,-2.2 0.6,-4.5 1.4,-6.5c0.3,-0.3 0.4,-0.6 0.5,-0.9" fill="#FBBF16" id="path40"/>
  </g>
 </g>
</svg>