<svg xmlns="http://www.w3.org/2000/svg" width="723" height="771" viewBox="0 32.251 52.029 55.443"><defs><clipPath id="A"><path d="M0 32.285h52.03V89.16H0z" fill="#f9f9f9" fill-opacity="1"/></clipPath><clipPath id="B"><path d="M0 32.285h52.03V89.16H0z" fill="#f9f9f9" fill-opacity="1"/></clipPath><clipPath id="C"><path d="M0 32.285h52.03V89.16H0z" fill="#f9f9f9" fill-opacity="1"/></clipPath><clipPath id="D"><path d="M0 32.285h52.03V89.16H0z" fill="#f9f9f9" fill-opacity="1"/></clipPath></defs><g transform="translate(0 -.041)"><path d="M112.604 56.57c.545.45 1.676 1.398 1.676 3.196 0 1.747-.992 2.575-1.983 3.357-.308.303-.666.64-.666 1.16 0 .515.358.8.615 1l.854.663c1.04.878 1.983 1.68 1.983 3.3 0 2.226-2.15 4.467-6.218 4.467-3.424 0-5.08-1.625-5.08-3.377 0-.85.425-2.06 1.82-2.887 1.465-.896 3.45-1.02 4.512-1.087-.328-.426-.706-.87-.706-1.604 0-.407.116-.637.237-.926l-.754.047c-2.5 0-3.924-1.866-3.924-3.7 0-1.086.492-2.296 1.506-3.17 1.353-1.112 2.96-1.3 4.234-1.3h4.87l-1.514.85h-1.46m-1.682 10.496c-.188-.02-.305-.02-.542-.02-.213 0-1.485.047-2.48.38-.52.188-2.035.754-2.035 2.436 0 1.675 1.634 2.884 4.16 2.884 2.27 0 3.48-1.1 3.48-2.552-.001-1.208-.784-1.846-2.58-3.126m.7-4.487c.54-.546.6-1.3.6-1.728 0-1.697-1.016-4.354-2.977-4.354-.62 0-1.28.3-1.656.78-.404.5-.52 1.14-.52 1.753 0 1.584.92 4.2 2.955 4.2.594.001 1.228-.286 1.6-.66m-13.636 4.155c-3.76 0-5.77-2.928-5.77-5.574 0-3.103 2.53-5.75 6.123-5.75 3.476 0 5.65 2.72 5.65 5.58.003 2.793-2.15 5.743-6 5.743m2.955-1.916c.563-.754.707-1.695.707-2.62 0-2.08-.994-6.053-3.923-6.053a3.33 3.33 0 0 0-2.13.799c-.92.83-1.086 1.875-1.086 2.9 0 2.342 1.16 6.2 4.018 6.2.923 0 1.87-.45 2.414-1.2M85.417 66.72c-3.758 0-5.768-2.928-5.768-5.574 0-3.103 2.527-5.75 6.123-5.75 3.474 0 5.65 2.72 5.65 5.58 0 2.793-2.153 5.743-6.004 5.743m2.953-1.916c.567-.754.7-1.695.7-2.62 0-2.08-.993-6.053-3.923-6.053-.78 0-1.562.3-2.128.8-.924.83-1.1 1.875-1.1 2.9 0 2.342 1.162 6.2 4.022 6.2.922 0 1.866-.45 2.4-1.2m-10.246 1.095l-3.17.73c-1.286.197-2.44.38-3.657.38-6.115 0-8.443-4.502-8.443-8.022 0-4.302 3.304-8.292 8.956-8.292a12.65 12.65 0 0 1 3.387.468c1.664.464 2.44 1.037 2.93 1.37l-1.84 1.75-.775.18.553-.885c-.753-.735-2.126-2.087-4.744-2.087-3.497 0-6.136 2.664-6.136 6.54 0 4.17 3.015 8.094 7.843 8.094 1.42 0 2.153-.288 2.814-.56V62l-3.346.18 1.773-.954h4.698l-.577.555a.51.51 0 0 0-.221.354c-.02.2-.04.842-.04 1.062v2.707m61.606.513h-1.682L135.573 55.7h1.323l2.014 9.602 2.102-9.602h1.705l2.123 9.602 1.967-9.602h1.304l-2.43 10.707h-1.684l-2.123-9.557-2.168 9.557m16.215-7.43c0-1.748-.773-2.412-2.543-2.412-1.367 0-2.2.753-2.388 2l-1.2-.185c.24-1.75 1.613-2.92 3.627-2.92 2.368 0 3.7 1.016 3.7 3.383v5.464c0 .93.066 1.568.2 2.102h-1.24c-.1-.287-.154-.82-.154-1.127-.507.748-1.7 1.37-2.826 1.37-1.975 0-3.52-1.2-3.52-3.583 0-2.192 1.57-3.407 3.804-3.407 1.086 0 1.97.198 2.543.465v-1.15m0 2.3c-.598-.3-1.434-.53-2.562-.53-1.506 0-2.567.75-2.567 2.322 0 1.657.992 2.454 2.365 2.454 1.216 0 2.32-.885 2.765-1.836v-2.4m3.632-10.13h1.213V66.43h-1.213zm3.802 0h1.22V66.43h-1.22zm7.258 14.355c1.307 0 2.257-.774 2.496-2.787l1.238.178c-.3 2.586-1.793 3.76-3.734 3.76-2.55 0-4.05-1.86-4.05-5.686 0-3.43 1.28-5.506 3.916-5.506 2.765 0 3.867 2.297 3.867 5.417v.398h-6.52c-.001 2.942 1.102 4.225 2.787 4.225m2.436-5.33v-.043c-.07-1.992-.867-3.54-2.566-3.54-1.662 0-2.566 1.394-2.656 3.584h5.222m6.946 6.17c-.27.108-.756.196-1.284.196-1.594 0-2.104-.793-2.104-2.32v-7.4h-1.393V55.72h1.393v-3.45l1.242-.487v3.937H180v1.107h-2.144v7.255c0 1.016.193 1.307 1.06 1.307a2.46 2.46 0 0 0 1.085-.244v1.215m-159.78-9.2c-3.154-4.35-7.544-8.158-12.52-10.82a5.23 5.23 0 0 0-7.085 2.144 5.24 5.24 0 0 0 2.145 7.084c7.676 4.107 12.63 11.94 13.2 20.995v-.02a5.46 5.46 0 0 1 .542-2.937c.062-.13.135-.27.228-.42a25.26 25.26 0 0 0 3.661-13.125c0-.973-.07-1.94-.18-2.9" clip-path="url(#D)" fill="#3158a6"/><path d="M50.6 47.3a56.78 56.78 0 0 0-4.084-11.759 5.82 5.82 0 0 0-5.229-3.3c-.86 0-1.697.188-2.48.562a5.8 5.8 0 0 0-2.737 7.71c2.938 6.195 4.4 12.74 4.4 19.538s-1.46 13.335-4.34 19.43c-.043.1-.547 1.17-.547 2.416a6.03 6.03 0 0 0 .147 1.343c.388 1.73 1.554 3.186 3.158 3.944a5.74 5.74 0 0 0 2.469.557 5.82 5.82 0 0 0 5.071-3.002c1.154-2.164 2.32-5.014 3.337-8.676a52.46 52.46 0 0 0 .84-3.26 57.41 57.41 0 0 0 1.434-12.751 57.97 57.97 0 0 0-1.429-12.751" clip-path="url(#C)" fill="#449f27"/><path d="M26.183 41.255a5.49 5.49 0 0 0-.337-.484c-1.036-1.356-2.64-2.157-4.347-2.168-.884 0-1.337.1-1.972.363-.653.26-1.344.615-1.97 1.275-.554.58-.98 1.267-1.254 2.02-.524 1.396-.462 3.232.453 4.702 1.92 3.087 3.05 6.6 3.466 10.198.1.96.18 1.927.18 2.9 0 4.642-1.265 9.18-3.66 13.124-.613 1.01-.883 2.193-.768 3.37.158 1.736 1.13 3.295 2.617 4.202a5.64 5.64 0 0 0 1.259.554c2.407.746 5.012-.247 6.31-2.406 3.446-5.68 5.264-12.2 5.257-18.843.005-6.63-1.806-13.133-5.234-18.807" clip-path="url(#B)" fill="#f8002e"/><path d="M36.126 79.5a45.11 45.11 0 0 0 4.342-19.431 44.5 44.5 0 0 0-.281-5.121c-3.788-6.06-9.28-11.475-15.712-15.44.004.001.15.1.16.105a5.53 5.53 0 0 1 1.212 1.164 5.8 5.8 0 0 1 .337.485c3.428 5.673 5.238 12.176 5.234 18.805a37.51 37.51 0 0 1-.076 2.373c2.748 5.227 4.246 11.17 4.246 17.4l-.004 1.875a6.19 6.19 0 0 1 .425-1.944c.037-.092.074-.185.117-.273" clip-path="url(#A)" fill="#fbbb08"/></g></svg>