<?xml version="1.0" encoding="UTF-8"?>
<svg viewBox="0 0 241.6 257.9" xmlns="http://www.w3.org/2000/svg">
<g>
<title>background</title>
<rect x="-1" y="-1" width="243.6" height="259.9" fill="none"/>
</g>
<g>
<title>Layer 1</title>
<g fill="#1476C6">
<path d="m137.25 240.65c-0.5 0.3-1 0.6-1.6 0.9-1.6 0.7-3.2 0.9-4.6 0.9-1.5 0-3.9-0.1-6.3-1.9-3.4-2.4-4.9-6.5-4.9-10.1 0-7.4 6-11 10.9-11 1.7 0 3.5 0.4 4.9 1.3 2.4 1.6 3 3.6 3.3 4.7l-11.2 4.5-3.7 0.3c1.2 6.1 5.3 9.6 9.8 9.6 2.4 0 4.2-0.9 5.8-1.7l-2.4 2.5zm-4.5-14.2c0.9-0.3 1.4-0.6 1.4-1.3 0-1.9-2.1-4.1-4.7-4.1-1.9 0-5.5 1.5-5.5 6.6 0 0.8 0.1 1.7 0.1 2.5l8.7-3.7"/>
<path d="m118.75 241.65h-8.4c1.1-1.4 1.3-1.6 1.3-2.5v-7.8c0-3.7 0.1-9 0.2-14 0-2.4 0.2-5.5 0.3-7.7h-3.7l3.6-1.7h6.8c-1.5 0.9-2 1.1-2.1 2.8-0.4 3.7-0.4 9.5-0.4 16.3v11c0 1.9 0.3 2.2 1.9 2.3 0.8 0.1 1.6 0.2 2.4 0.2l-1.9 1.1"/>
<path d="m103.05 221.75c1.1 0.9 3.4 2.8 3.4 6.5 0 3.5-2 5.2-4 6.8-0.6 0.6-1.3 1.3-1.3 2.3s0.7 1.6 1.2 2l1.7 1.3c2.1 1.8 4 3.4 4 6.7 0 4.5-4.3 9-12.6 9-6.9 0-10.3-3.3-10.3-6.8 0-1.7 0.9-4.2 3.7-5.8 3-1.8 7-2.1 9.1-2.2-0.7-0.9-1.4-1.8-1.4-3.2 0-0.8 0.2-1.3 0.5-1.9-0.5 0-1.1 0.1-1.5 0.1-5.1 0-7.9-3.8-7.9-7.5 0-2.2 1-4.6 3.1-6.4 2.7-2.2 6-2.6 8.5-2.6h9.8l-3.1 1.7h-2.9zm-3.4 21.2h-1.1c-0.4 0-3 0.1-5 0.8-1.1 0.4-4.1 1.5-4.1 4.9s3.3 5.8 8.4 5.8c4.6 0 7-2.2 7-5.2 0-2.4-1.6-3.7-5.2-6.3m1.4-9c1.1-1.1 1.2-2.6 1.2-3.5 0-3.4-2.1-8.8-6-8.8-1.2 0-2.6 0.6-3.3 1.6-0.8 1-1.1 2.3-1.1 3.5 0 3.2 1.9 8.5 6 8.5 1.1 0 2.4-0.6 3.2-1.3"/>
<path d="m73.55 242.35c-7.6 0-11.6-5.9-11.6-11.3 0-6.3 5.1-11.6 12.4-11.6 7 0 11.4 5.5 11.4 11.3-0.1 5.6-4.5 11.6-12.2 11.6m5.9-3.9c1.1-1.5 1.4-3.4 1.4-5.3 0-4.2-2-12.2-7.9-12.2-1.6 0-3.1 0.6-4.3 1.6-1.9 1.7-2.2 3.8-2.2 5.8 0 4.7 2.3 12.5 8.1 12.5 1.9 0 3.8-0.9 4.9-2.4"/>
<path d="m48.15 242.35c-7.6 0-11.6-5.9-11.6-11.3 0-6.3 5.1-11.6 12.4-11.6 7 0 11.4 5.5 11.4 11.3-0.1 5.6-4.5 11.6-12.2 11.6m5.9-3.9c1.1-1.5 1.4-3.4 1.4-5.3 0-4.2-2-12.2-7.9-12.2-1.6 0-3.2 0.6-4.3 1.6-1.9 1.7-2.2 3.8-2.2 5.8 0 4.7 2.3 12.5 8.1 12.5 1.9 0 3.8-0.9 4.9-2.4"/>
<path d="m33.35 240.65-6.4 1.5c-2.6 0.4-4.9 0.8-7.4 0.8-12.4 0-17.1-9.1-17.1-16.2 0-8.7 6.7-16.7 18.1-16.7 2.4 0 4.7 0.4 6.8 0.9 3.4 0.9 4.9 2.1 5.9 2.8l-3.7 3.5-1.6 0.4 1.1-1.8c-1.5-1.5-4.3-4.2-9.6-4.2-7.1 0-12.4 5.4-12.4 13.2 0 8.4 6.1 16.3 15.8 16.3 2.9 0 4.3-0.6 5.7-1.1v-7.2l-6.8 0.4 3.6-1.9h9.5l-1.2 1.1c-0.3 0.3-0.4 0.4-0.4 0.7 0 0.4-0.1 1.7-0.1 2.1v5.4"/>
<path d="m157.75 241.65h-3.4l-5-21.6h2.7l4.1 19.4 4.2-19.4h3.4l4.4 19.4 4-19.4h2.6l-4.9 21.6h-3.4l-4.3-19.2-4.4 19.2"/>
<path d="m190.55 226.65c0-3.5-1.6-4.9-5.1-4.9-2.8 0-4.4 1.5-4.8 4l-2.5-0.3c0.5-3.5 3.3-5.9 7.3-5.9 4.8 0 7.5 2.1 7.5 6.8v11c0 1.9 0.1 3.2 0.4 4.2h-2.5c-0.2-0.6-0.3-1.7-0.3-2.3-1 1.5-3.4 2.8-5.7 2.8-4 0-7.1-2.4-7.1-7.2 0-4.4 3.2-6.9 7.7-6.9 2.2 0 4 0.4 5.1 0.9v-2.2zm0 4.7c-1.2-0.6-2.9-1.1-5.2-1.1-3 0-5.2 1.5-5.2 4.7 0 3.3 2 5 4.8 5 2.5 0 4.7-1.8 5.6-3.7v-4.9"/>
<path d="m197.85 241.65h2.5v-30.8h-2.5v30.8z"/>
<path d="m205.55 241.65h2.5v-30.8h-2.5v30.8z"/>
<path d="m220.15 239.85c2.6 0 4.6-1.6 5-5.6l2.5 0.4c-0.6 5.2-3.6 7.6-7.5 7.6-5.1 0-8.2-3.8-8.2-11.5 0-6.9 2.6-11.1 7.9-11.1 5.6 0 7.8 4.6 7.8 10.9v0.8h-13.2c0.1 5.9 2.3 8.5 5.7 8.5m4.9-10.7c-0.1-4.1-1.7-7.2-5.2-7.2-3.4 0-5.2 2.8-5.4 7.2h10.6"/>
<path d="m239.15 241.55c-0.5 0.2-1.5 0.4-2.6 0.4-3.2 0-4.2-1.6-4.2-4.7v-15h-2.8v-2.2h2.8v-7l2.5-1v8h4.3v2.2h-4.3v14.6c0 2.1 0.4 2.6 2.1 2.6 0.9 0 1.6-0.2 2.2-0.5v2.6"/>
</g>
<path d="m92.25 85.05c-10.6-14.6-25.3-27.4-42-36.3-2.5-1.4-5.4-2.1-8.3-2.1-6.5 0-12.4 3.5-15.5 9.3-4.6 8.5-1.3 19.2 7.2 23.7 25.7 13.8 42.3 40 44.3 70.4v-0.1c-0.3-3.4 0.3-6.7 1.8-9.8 0.2-0.4 0.5-0.9 0.8-1.4 8-13.2 12.3-28.4 12.3-44 0-3.3-0.3-6.5-0.6-9.7" fill="#1476C6"/>
<path d="m194.05 52.05c-3.1-13.6-7.7-26.8-13.7-39.4-3.2-6.7-10.1-11.1-17.5-11.1-2.9 0-5.7 0.6-8.3 1.9-9.7 4.6-13.8 16.2-9.2 25.8 9.8 20.8 14.7 42.7 14.7 65.5s-4.9 44.7-14.5 65.1c-0.1 0.3-1.8 3.9-1.8 8.1 0 1.2 0.1 2.9 0.5 4.5 1.3 5.5 4.8 10.5 10.6 13.2 2.6 1.2 5.4 1.9 8.3 1.9 7.1 0 13.6-3.9 17-10.1 3.9-7.3 7.8-16.8 11.2-29.1 1.1-3.7 2-7.2 2.8-10.9 3.1-13.9 4.8-28.1 4.8-42.7-0.1-14.4-1.8-28.9-4.9-42.7" fill="#47AE33"/>
<path d="m112.15 31.75c-0.3-0.6-0.7-1.1-1.1-1.6-1.3-1.7-2.8-3.1-4.6-4.2-2.9-1.9-6.4-3-10-3-3 0-4.5 0.4-6.6 1.2-2.2 0.9-4.5 2.1-6.6 4.3s-3.3 4.4-4.2 6.8c-1.8 4.7-1.5 10.8 1.5 15.8 6.4 10.3 10.2 22.1 11.6 34.2 0.4 3.2 0.6 6.5 0.6 9.7 0 15.6-4.2 30.8-12.3 44-0.3 0.5-0.5 0.9-0.8 1.4-1.6 3.1-2.1 6.6-1.8 9.9 0.5 5.6 3.6 10.9 8.8 14.1 1.3 0.8 2.8 1.4 4.2 1.9 1.7 0.5 3.5 0.8 5.3 0.8 6.5 0 12.4-3.3 15.8-8.9 10.2-16.7 16.1-35.7 17.4-55.2 0.2-2.6 0.3-5.3 0.3-7.9 0.1-22.6-6-44.4-17.5-63.3" fill="#ED114C"/>
<path d="m145.45 159.85c9.7-20.4 14.6-42.3 14.6-65.1 0-7.8-0.5-13.5-0.9-17.2-12.7-20.3-31.1-38.5-52.7-51.7 0 0 0.5 0.3 0.5 0.4 1.5 1.1 2.7 2.2 4.1 3.9 0.3 0.4 0.8 1 1.1 1.6 11.5 19 17.5 40.7 17.5 63 0 2.7-0.1 5.3-0.3 7.9 9.2 17.5 14.2 37.4 14.2 58.3v6.3c0.1-2.2 0.6-4.5 1.4-6.5 0.3-0.3 0.4-0.6 0.5-0.9" fill="#FBBF16"/>
</g>
</svg>
