<?xml version="1.0" encoding="UTF-8"?>
<svg version="1.1" viewBox="0 0 885.83 163.59" xmlns="http://www.w3.org/2000/svg" xmlns:cc="http://creativecommons.org/ns#" xmlns:dc="http://purl.org/dc/elements/1.1/" xmlns:rdf="http://www.w3.org/1999/02/22-rdf-syntax-ns#">
<metadata>
<rdf:RDF>
<cc:Work rdf:about="">
<dc:format>image/svg+xml</dc:format>
<dc:type rdf:resource="http://purl.org/dc/dcmitype/StillImage"/>
<dc:title/>
</cc:Work>
</rdf:RDF>
</metadata>
<g transform="translate(-366.14 31.164)">
<g transform="matrix(4.3367 0 0 4.3367 -1068 -595.77)">
<path d="m447.59 136.02h6.9175v-3.3025h-17.896v3.2788h7.0588v12.289h-7.5625v3.3675h19.036v-3.3675h-7.5538v-12.265"/>
<path d="m411.04 152.49h2.9375v-0.88625h12.675v0.89375h2.965v-20.458h-18.578zm2.9925-17.601h12.536v13.895h-12.536zm10.716 10.476 1.2275-1.025c-0.8675-1.1312-1.8675-2.0475-1.8675-2.0475l0.84375 6e-3v-2.3738h-3.2738v-1.5688h3.7588v-2.305h-10.3v2.25h3.7588v1.5812h-3.2675v2.4162h3.2675v3.1138h-4.0612v2.2788h10.794v-2.34c-0.58875 6e-3 -0.18625-0.0112-0.88 0.0137zm-1.4175 0.045-1.5988-5e-3v-3.1062s1.6088-1e-3 1.62-1e-3c0.0113 0 0 0 0 0l-1.2662 1.2838s0.855 0.92125 1.5225 1.8312l-0.2775-2e-3" fill-rule="evenodd"/>
<path d="m393.49 143.14h-4.3212l-1e-3 -4.985h4.3212zm3.4588-4.985h4.4312l2e-3 4.985h-4.4312zm-0.025-6.2488c0-0.24 0.24875-0.20875 0.24875-0.45125 0-0.14125-0.16125-0.28-0.24875-0.2825l-3.4375-0.0837v3.875h-7.6425v12.491h3.2975v-1.1375h4.345v6.6488h3.4375v-6.6238h4.3438v1.1h3.3825v-12.479h-7.7262v-3.0575" fill-rule="evenodd"/>
<path d="m472.8 132.09c0-0.22375 0.25125-0.24375 0.25125-0.435 0-0.13125-0.16625-0.30625-0.25125-0.3075 0 0-1.7488-0.0775-3.4475-0.0775v1.9312h-7.9525v2.7912h4.1025s0.0688 0.14875 0.4025 0.62125c0.04 0.0563 0.56125 1.1212 0.67875 1.4062h-4.34v14.512h3.015l-9e-3 -8.3138s0.6525 0.52125 1.03 1.5038c0 0 0.47625-0.0712 0.75125-0.51375v5.39h2.3912v-0.48875h3.5288v0.48875h2.215c0.5325 1.0862 0.455 2.105 0.455 2.105 0.17625-0.01 0.475 4e-3 0.65125 0 2.275-0.035 3.7062-0.9325 3.7062-2.535v-12.134h-4.0838l0.93125-2.0675h4.0812v-2.7662h-8.1075v-1.1112zm-4.575 8.765c-0.68375 0.90125-2.9962 2.3675-2.9962 2.3675l4e-3 0.055-7e-3 -2.4125c2.785-0.015 3.0225-0.0388 3-0.01zm4.6175 6.9112-3.4 1e-3 5e-3 -1.79 3.3925 1e-3 2e-3 1.7775v0.01zm4.1712-6.92c0 0.84-1e-3 1.7225-1e-3 2.3162 0 0-1.6088-1.3512-3.1725-2.3225l3.1738 6e-3zm-3.755 2.79-3.9375 7e-3s0.265-0.15125 1.0175-0.98c0.3975-0.035 0.55-0.25125 0.34625-0.555 0 0-0.25125-0.205-1.2488-1.2625l3.8412-7e-3s-0.5475 0.82625-1.4088 1.5825c0.7575 0.485 1.1512 0.95125 1.39 1.215zm0.2125-7.5925-0.95625 1.9912h-2.6462l-0.88-1.9912zm3.5425 12.741c0 0.11-0.2775 0.49-0.50875 0.4975-0.4225 0.0125-0.97 5e-3 -1.2712-0.01v-4.115l0.6975 0.61125c0.61625-0.8375 1.0825-1.5062 1.0825-1.5062v4.5225" fill-rule="evenodd"/>
<path d="m498.93 134.7h4.1838v1.59h-4.1838zm-0.015 13.255v-5.2938l0.66749-4e-3c0.0188 0.27875 0.52876 2.505 1.385 4.3862 0 0-1.1438 0.54125-2.0525 0.91125zm0.015-9.4075h4.1838v1.5412h-4.1838zm4.1213 6.1025c-0.3275-0.74125-0.5625-1.9938-0.5625-1.9938l3.2862-0.04 0.055-10.424h-9.7138v17.071c-0.45625 0.21375-1.4162 0.6825-1.4162 0.6825 0.92125 1.6725 1.0788 2.5762 1.0788 2.5762 0.10875 0.11625 0.115 0.1275 0.1825 0.1275 0.0625 0 0 0.12375 0.4525-0.26875 1.1062-0.54625 3.9775-2.2038 4.61-2.5788 0.9075-0.53875 0.1125-0.0662 0.3575-0.28375-0.27125-1.0512-0.185-2.185-0.185-2.185 1.4762 2.6925 3.2488 4.4625 4.1912 5.2138 0.94125-1.415 2.1738-2.58 2.1738-2.58-2.7825-1.2775-3.3438-3.1038-3.3438-3.1038 0.695-0.4725 1.7425-1.2625 2.0888-1.5075 0.11249-0.0788 0.38375-0.3475 0.46625-0.3725 0.055-0.0162 0.12749-0.12 0.0687-0.195-0.35376-0.4525-1.4625-1.8875-1.4625-1.9475l-2.3275 1.8088zm-8.3025 1.6162c-0.97251 0.68-1.6712 0.935-1.6712 0.935l-1e-3 -2.29h2.6038v-2.6488h-2.6038v-1.65h2.135v-2.7025h-5.2988l1.0425-1.4875h4.6488l0.0538-2.7575-3.1712-4e-3c0.25375-0.5375 0.51125-0.7975 0.60875-0.85375 0.17875-0.1 0.36375-0.36375 0.1125-0.61875-1.3012-0.41-2.055-0.78875-2.9088-1.105-0.8425 2.2588-2.2338 4.895-4.1012 6.9375 1.0212 1.165 1.2925 2.5438 1.2925 2.5438 0.7975-0.7925 1.11-1.145 1.11-1.145v1.1888l1.6238 4e-3v1.6238h-2.5138v2.675h2.5675v3.71c-1.0425 0.555-2.5262 1.1888-2.5262 1.1888v1e-3c0.775 1.6125 1.0525 2.3688 1.1812 2.655 0.32626 0.3075 0.63751-0.145 0.90125-0.30625 2.4225-1.4788 4.7863-2.7488 5.5313-3.2412l0.0775 0.04s-0.44-1.2412-0.69375-2.6925" fill-rule="evenodd"/>
<path d="m522.47 135.52h10.289v-3.1162h-10.289z"/>
<path d="m514.43 139.1c1.5-1.0538 3.1775-2.7888 3.3975-2.9762 0.2775-0.2375 1.54-1.6288 1.54-1.6288 0.61875-0.43375 0.57125-0.3175 0.89375-0.41625 0.32125-0.0987 0.30875-0.32125 0.33125-0.3675 0.10375-0.20625-0.11375-0.39125-1.0112-1.3175-0.3425-0.3525-1.3588-1.275-1.3588-1.275-1.4588 2.2062-3.8875 4.2525-5.195 5.2288 0.80375 0.80375 1.4025 2.7525 1.4025 2.7525"/>
<path d="m521.98 138.88c0.11375-0.16 0.39875-0.30625 0.39875-0.30625 0.23625-0.0763 0.36-0.32125 0.37875-0.465 0.0125-0.105-0.15375-0.28125-1.21-1.1512 0 0-0.1375-0.0925-1.0112-1.1-1.9288 2.75-4.6838 5.4088-7.1738 7.03 0.83125 0.725 1.395 2.8825 1.395 2.8825h0.0275l1.5912-1.2412 0.0612 0.02v8.03h3.0838v-10.625c0.84125-0.8825 2.1812-2.595 2.1812-2.595v2.6062l5.7088 0.01v7.1675c-0.0175 0.5175-0.5925 0.56875-0.5925 0.56875s-1.8225 6e-3 -1.8562 6e-3c1.1988 1.4675 0.99875 2.74 1.0312 3.2525h0.33125c1.9412-0.0913 4.2138-0.15625 4.3462-2.815v-8.185h2.7212v-3.09h-11.412"/>
<path d="m385.86 162.04h0.92125v4.8675h-0.92125zm0.92125 0zm0.84875 4.8675v-4.8675h0.97251l1.7675 3.3975v-3.3975h0.86501v4.8675h-0.92751l-1.8138-3.4575v3.4575zm7.0675-3.625c0.14125 0.26625 0.21251 0.64625 0.21251 1.1412 0 0.35875-0.0475 0.66875-0.1425 0.92875-0.1725 0.4725-0.4775 0.71-0.915 0.71h-0.85501v-3.1775h0.85501c0.42124 0 0.70374 0.1325 0.84499 0.3975zm-2.6-1.2425v4.8675h1.9112c0.67124 0 1.1662-0.3025 1.4875-0.90875 0.2375-0.44875 0.35626-0.99625 0.35626-1.6438 0-0.25625-0.0288-0.52375-0.085-0.80625-0.0563-0.28125-0.16126-0.54375-0.31625-0.78625-0.1925-0.29875-0.445-0.505-0.755-0.6175-0.18375-0.0662-0.4125-0.10125-0.6875-0.105zm4.6712 4.2c0.275 0.52875 0.7975 0.7925 1.5662 0.7925 0.76876 0 1.2888-0.26375 1.5625-0.7925 0.14626-0.2875 0.22-0.69125 0.22-1.2088v-2.9912h-0.9425v2.9912c0 0.335-0.0363 0.57875-0.10875 0.73375-0.11249 0.2725-0.35625 0.40875-0.73125 0.40875-0.3775 0-0.62249-0.13625-0.735-0.40875-0.0725-0.155-0.10875-0.39875-0.10875-0.73375v-2.9912h-0.9425v2.9912c0 0.5175 0.0738 0.92125 0.22 1.2088zm4.0187-0.835h0.88501c0.0275 0.2225 0.0838 0.38875 0.165 0.49875 0.15125 0.2 0.40875 0.3 0.775 0.3 0.21875 0 0.39625-0.0263 0.5325-0.0787 0.25874-0.10125 0.38874-0.29 0.38874-0.565 0-0.16125-0.065-0.285-0.19374-0.37375-0.12876-0.085-0.33-0.16125-0.605-0.2275l-0.47-0.115c-0.46125-0.115-0.78-0.23875-0.95625-0.37375-0.3-0.22375-0.44875-0.575-0.44875-1.0538 0-0.435 0.14375-0.7975 0.4325-1.0862 0.29-0.2875 0.71375-0.4325 1.2738-0.4325 0.4675 0 0.8675 0.13625 1.1975 0.4075 0.33 0.2725 0.5025 0.6675 0.51875 1.1838h-0.89125c-0.0163-0.2925-0.1325-0.5-0.34875-0.62375-0.145-0.0812-0.32375-0.12125-0.53875-0.12125-0.23875 0-0.43 0.0525-0.5725 0.1575-0.1425 0.10625-0.21375 0.25375-0.21375 0.4425 0 0.17375 0.07 0.30375 0.21125 0.39 0.09 0.0575 0.2825 0.125 0.5775 0.20125l0.765 0.20125c0.335 0.0888 0.5875 0.20625 0.75875 0.35375 0.265 0.22875 0.3975 0.56 0.3975 0.99375 0 0.445-0.155 0.81375-0.465 1.1088-0.31 0.29375-0.74875 0.44-1.315 0.44-0.5775 0-1.0325-0.145-1.3638-0.43375-0.33125-0.29-0.49625-0.6875-0.49625-1.1938zm3.9563-3.365h3.595v0.86125h-1.3275v4.0062h-0.93375v-4.0062h-1.3338v-0.86125zm6.5937 0.93125c0.17875 0.10125 0.26875 0.29875 0.26875 0.59375 0 0.27375-0.0925 0.45625-0.2775 0.54875-0.10375 0.0525-0.26125 0.0788-0.46999 0.0788h-1.05v-1.3075h1.0775c0.20125 0 0.35125 0.0288 0.45125 0.0863zm-2.435-0.93125v4.8675h0.90625v-1.9088h0.9575c0.2725 0 0.45875 0.0512 0.55875 0.155 0.0987 0.10375 0.15 0.31 0.155 0.62125l5e-3 0.4525c2e-3 0.1425 0.015 0.2825 0.04 0.41875 0.0112 0.0663 0.0312 0.15375 0.06 0.26125h1.0212v-0.1225c-0.0888-0.06-0.145-0.15125-0.16875-0.2775-0.0163-0.0788-0.025-0.23-0.025-0.4525v-0.32625c0-0.34125-0.0425-0.595-0.1275-0.76125s-0.23-0.295-0.435-0.385c0.245-0.0925 0.42-0.25 0.52625-0.47375 0.1075-0.22375 0.16-0.45125 0.16-0.6825 0-0.19125-0.0275-0.36125-0.0838-0.51125-0.0562-0.15-0.1325-0.28625-0.22875-0.41-0.1175-0.14875-0.25875-0.2625-0.42625-0.34-0.1675-0.0762-0.4075-0.11875-0.71875-0.125h-2.1762zm4.3575 0h0.92126v4.8675h-0.92126zm0.9225 0zm3.2038 3.0275h-1.1262l0.57125-1.915zm-1.6837 1.84 0.30749-1.0012h1.635l0.28625 1.0012h1.005l-1.5712-4.8675h-1.0488l-1.5838 4.8675h0.97zm3.7962 0v-4.8675h0.92625v3.9925h2.1988v0.875zm7.8188-1.84h-1.1262l0.57251-1.915zm-1.6825 1.84 0.30625-1.0012h1.6363l0.285 1.0012h1.0062l-1.5725-4.8675h-1.0475l-1.5838 4.8675h0.97zm3.78 0v-4.8675h0.9725l1.7675 3.3975v-3.3975h0.865v4.8675h-0.92875l-1.8125-3.4575v3.4575h-0.86374zm7.0675-3.625c0.14125 0.26625 0.2125 0.64625 0.2125 1.1412 0 0.35875-0.0475 0.66875-0.1425 0.92875-0.17249 0.4725-0.4775 0.71-0.915 0.71h-0.855v-3.1775h0.855c0.42125 0 0.70375 0.1325 0.845 0.3975zm-2.6-1.2425v4.8675h1.9112c0.67125 0 1.1662-0.3025 1.4875-0.90875 0.23751-0.44875 0.355-0.99625 0.355-1.6438 0-0.25625-0.0275-0.52375-0.0837-0.80625-0.0563-0.28125-0.16125-0.54375-0.31625-0.78625-0.1925-0.29875-0.445-0.505-0.755-0.6175-0.18374-0.0662-0.41249-0.10125-0.6875-0.105h-1.9112zm5.9725 2.4725c0-0.84875 0.20749-1.5038 0.6225-1.9638 0.36124-0.40125 0.82124-0.60125 1.38-0.60125 0.74624 0 1.2925 0.26875 1.6375 0.805 0.19 0.3025 0.2925 0.605 0.3075 0.90875h-0.9275c-0.0613-0.23375-0.1375-0.41-0.2325-0.52875-0.16875-0.21125-0.41875-0.31625-0.75-0.31625-0.33625 0-0.6025 0.14875-0.7975 0.4475-0.195 0.2975-0.2925 0.72-0.2925 1.2662 0 0.545 0.10376 0.955 0.30875 1.2262 0.20626 0.2725 0.46751 0.4075 0.785 0.4075 0.325 0 0.57251-0.11625 0.74376-0.35 0.0937-0.125 0.17249-0.31375 0.23499-0.56375h0.9175c-0.08 0.53-0.285 0.96125-0.615 1.2938s-0.75375 0.49875-1.27 0.49875c-0.6375 0-1.14-0.22375-1.505-0.67375-0.365-0.45125-0.5475-1.07-0.5475-1.8562zm5.7288 1.2225c-0.22-0.2975-0.32875-0.72-0.32875-1.2688 0-0.5475 0.10875-0.97 0.32875-1.2675 0.2175-0.2975 0.51125-0.44625 0.87875-0.44625 0.36749 0 0.65874 0.15 0.875 0.4475 0.215 0.29875 0.32375 0.72125 0.32375 1.2662 0 0.54875-0.10875 0.97125-0.32375 1.2688-0.21626 0.2975-0.50751 0.44625-0.875 0.44625-0.3675 0-0.66125-0.14875-0.87875-0.44625zm2.3325-3.2762c-0.335-0.37875-0.82001-0.5675-1.4538-0.5675-0.635 0-1.1188 0.18875-1.455 0.5675-0.44875 0.4475-0.67375 1.1162-0.67375 2.0075 0 0.875 0.225 1.5438 0.67375 2.0088 0.33625 0.37875 0.82 0.5675 1.455 0.5675 0.63374 0 1.1188-0.18875 1.4538-0.5675 0.4475-0.465 0.67125-1.1338 0.67125-2.0088 0-0.89125-0.22375-1.56-0.67125-2.0075zm3.52 3.4088 0.80125-3.8275h1.3338v4.8675h-0.86375v-3.2925c0-0.095 1e-3 -0.2275 3e-3 -0.3975 2e-3 -0.17125 4e-3 -0.3025 4e-3 -0.395l-0.84 4.085h-0.90125l-0.83375-4.085c0 0.0925 1e-3 0.22375 4e-3 0.395 1e-3 0.17 2e-3 0.3025 2e-3 0.3975v3.2925h-0.86375v-4.8675h1.3488l0.80625 3.8275zm5.1362 0 0.80126-3.8275h1.3338v4.8675h-0.865v-3.2925c0-0.095 1e-3 -0.2275 4e-3 -0.3975 1e-3 -0.17125 2e-3 -0.3025 2e-3 -0.395l-0.84 4.085h-0.9l-0.835-4.085c0 0.0925 1e-3 0.22375 4e-3 0.395 1e-3 0.17 2e-3 0.3025 2e-3 0.3975v3.2925h-0.86375v-4.8675h1.3488l0.8075 3.8275zm6.2762-3.8275v0.86125h-2.3488v1.0338h2.1562v0.845h-2.1562v1.2525h2.4575v0.875h-3.3638v-4.8675zm3.2875 0.93125c0.17875 0.10125 0.26875 0.29875 0.26875 0.59375 0 0.27375-0.0925 0.45625-0.2775 0.54875-0.10375 0.0525-0.26125 0.0788-0.46999 0.0788h-1.05v-1.3075h1.0775c0.20125 0 0.35125 0.0288 0.45125 0.0863zm-2.435-0.93125v4.8675h0.90625v-1.9088h0.9575c0.2725 0 0.45875 0.0512 0.55875 0.155 0.0987 0.10375 0.15 0.31 0.155 0.62125l5e-3 0.4525c2e-3 0.1425 0.0163 0.2825 0.04 0.41875 0.0113 0.0663 0.0312 0.15375 0.06 0.26125h1.0212v-0.1225c-0.0888-0.06-0.145-0.15125-0.16875-0.2775-0.0162-0.0788-0.025-0.23-0.025-0.4525v-0.32625c0-0.34125-0.0425-0.595-0.1275-0.76125s-0.23-0.295-0.435-0.385c0.245-0.0925 0.42-0.25 0.5275-0.47375 0.10625-0.22375 0.15875-0.45125 0.15875-0.6825 0-0.19125-0.0275-0.36125-0.0838-0.51125s-0.1325-0.28625-0.22875-0.41c-0.11625-0.14875-0.25875-0.2625-0.42625-0.34-0.1675-0.0762-0.4075-0.11875-0.71875-0.125h-2.1762zm4.7862 4.3288c0.365 0.45 0.86624 0.67375 1.505 0.67375 0.51626 0 0.93876-0.16625 1.2688-0.49875 0.33125-0.3325 0.53624-0.76375 0.61624-1.2938h-0.91875c-0.0625 0.25-0.14 0.43875-0.235 0.56375-0.17 0.23375-0.41749 0.35-0.74375 0.35-0.31625 0-0.57875-0.135-0.78375-0.4075-0.20625-0.27125-0.30875-0.68125-0.30875-1.2262 0-0.54625 0.0975-0.96875 0.2925-1.2662 0.19375-0.29875 0.46-0.4475 0.7975-0.4475 0.33125 0 0.58125 0.105 0.75 0.31625 0.0937 0.11875 0.17125 0.295 0.23125 0.52875h0.9275c-0.0137-0.30375-0.11625-0.60625-0.3075-0.90875-0.345-0.53625-0.89-0.805-1.6375-0.805-0.5575 0-1.0175 0.2-1.3788 0.60125-0.41625 0.46-0.62375 1.115-0.62375 1.9638 0 0.78625 0.1825 1.405 0.54875 1.8562zm4.945-4.3288h-0.92125v4.8675h0.92125zm-0.92125 0zm4.125 3.0275h-1.1262l0.5725-1.915zm-1.6825 1.84 0.30625-1.0012h1.635l0.28625 1.0012h1.0062l-1.5725-4.8675h-1.0475l-1.5837 4.8675zm3.795 0v-4.8675h0.9275v3.9925h2.1975v0.875zm7.8862-3.9462c0.16 0.0725 0.24125 0.2225 0.24125 0.44875 0 0.205-0.0613 0.3475-0.1825 0.4275-0.12125 0.0812-0.28 0.12125-0.475 0.12125h-1.09v-1.0738h0.97625c0.215 0 0.39124 0.025 0.52999 0.0762zm0.0475 1.885c0.19125 0.095 0.28625 0.26875 0.28625 0.5225 0 0.29875-0.0987 0.50125-0.295 0.6075-0.10875 0.0575-0.26 0.0863-0.455 0.0863h-1.09v-1.2988h1.1062c0.1925 2e-3 0.34125 0.03 0.4475 0.0825zm-2.4388-2.8062v4.8675h2.0112c0.2275 0 0.4375-0.0225 0.63125-0.0662 0.19374-0.0438 0.36124-0.125 0.50375-0.245 0.12749-0.1025 0.23249-0.23 0.31625-0.3825 0.13249-0.22875 0.19875-0.4875 0.19875-0.77625 0-0.27875-0.0575-0.5175-0.1725-0.7125-0.115-0.19625-0.28625-0.34-0.51375-0.43 0.14875-0.0838 0.26125-0.17625 0.3375-0.2775 0.13624-0.18 0.205-0.41875 0.205-0.71625 0-0.28875-0.0688-0.53625-0.205-0.7425-0.2275-0.3375-0.6125-0.51-1.1562-0.51875h-2.1563zm6.7762 3.0275h-1.1262l0.5725-1.915zm-1.6825 1.84 0.3075-1.0012h1.635l0.28499 1.0012h1.0063l-1.5725-4.8675h-1.0475l-1.5838 4.8675zm4.6437 0v-3.4575l1.8138 3.4575h0.9275v-4.8675h-0.865v3.3975l-1.7675-3.3975h-0.97251v4.8675zm3.6188 0v-4.8675h0.9125v2.0038l1.7125-2.0038h1.1987l-1.8187 2.0038 1.9125 2.8638h-1.1925l-1.37-2.1275-0.4425 0.49875v1.6288zm7.2338-1.1725c-0.21875-0.2975-0.32875-0.72-0.32875-1.2688 0-0.5475 0.11-0.97 0.32875-1.2675s0.5125-0.44625 0.87875-0.44625c0.3675 0 0.66 0.15 0.875 0.4475 0.21625 0.29875 0.32375 0.72125 0.32375 1.2662 0 0.54875-0.1075 0.97125-0.32375 1.2688-0.215 0.2975-0.5075 0.44625-0.875 0.44625-0.36625 0-0.66-0.14875-0.87875-0.44625zm2.3338-3.2762c-0.33499-0.37875-0.82-0.5675-1.455-0.5675-0.63375 0-1.1188 0.18875-1.4538 0.5675-0.45 0.4475-0.675 1.1162-0.675 2.0075 0 0.875 0.225 1.5438 0.675 2.0088 0.335 0.37875 0.82 0.5675 1.4538 0.5675 0.635 0 1.12-0.18875 1.455-0.5675 0.4475-0.465 0.67125-1.1338 0.67125-2.0088 0-0.89125-0.22375-1.56-0.67125-2.0075zm1.3788 4.4488v-4.8612h3.1462v0.855h-2.225v1.12h1.9488v0.845h-1.9488v2.0412zm5.2875-2.395c0-0.84875 0.20751-1.5038 0.62376-1.9638 0.36125-0.40125 0.82124-0.60125 1.3787-0.60125 0.74751 0 1.2925 0.26875 1.6375 0.805 0.19125 0.3025 0.29375 0.605 0.3075 0.90875h-0.9275c-0.06-0.23375-0.13751-0.41-0.23126-0.52875-0.16874-0.21125-0.41874-0.31625-0.75-0.31625-0.33749 0-0.60374 0.14875-0.7975 0.4475-0.19499 0.2975-0.2925 0.72-0.2925 1.2662 0 0.545 0.10251 0.955 0.30875 1.2262 0.20626 0.2725 0.46751 0.4075 0.78376 0.4075 0.32625 0 0.57375-0.11625 0.74375-0.35 0.095-0.125 0.1725-0.31375 0.235-0.56375h0.91875c-0.08 0.53-0.28625 0.96125-0.61625 1.2938s-0.7525 0.49875-1.2688 0.49875c-0.63875 0-1.14-0.22375-1.505-0.67375-0.36625-0.45125-0.54875-1.07-0.54875-1.8562zm5.5575 2.395h-0.91875v-4.8675h0.91875v1.855h1.7338v-1.855h0.92125v4.8675h-0.92125v-2.1738h-1.7338zm3.4675-4.8675h0.92125v4.8675h-0.92125zm0.92125 0zm0.84875 4.8675v-4.8675h0.9725l1.7675 3.3975v-3.3975h0.86375v4.8675h-0.92751l-1.8125-3.4575v3.4575zm6.8062-1.84h-1.1262l0.57251-1.915zm-1.6825 1.84 0.30626-1.0012h1.635l0.28624 1.0012h1.0062l-1.5725-4.8675h-1.0475l-1.5838 4.8675h0.97" fill-rule="evenodd"/>
<path d="m348.91 141.79v-2.8962h-9.4388v8.695h5.7862v2.9h-5.7862v8.6975h9.4388v-2.8988h-6.5338v-2.9h5.8012v-8.6975h-5.8012v-2.9zm-18.211 7.2625c0-10.416 8.4612-18.861 18.898-18.861 10.438 0 18.899 8.445 18.899 18.861s-8.4612 18.861-18.899 18.861c-10.436 0-18.898-8.445-18.898-18.861zm18.898 15.938c8.82 0 15.97-7.135 15.97-15.938s-7.15-15.938-15.97-15.938c-8.8188 0-15.969 7.135-15.969 15.938s7.15 15.938 15.969 15.938zm0.77375-8.695v2.8975h9.4175v-8.6962h-5.785v-2.8988h5.785v-8.6975h-9.4175v2.8988h6.5125v2.8988h-5.8012v8.6988h5.8012v2.8988h-6.5125" fill="#ab1416" fill-rule="evenodd"/>
<path d="m383.89 157.98h151.08v-0.9275h-151.08z" fill="#ab1416"/>
</g>
</g>
</svg>
