<svg xmlns="http://www.w3.org/2000/svg" viewBox="0 0 520 120.21" fill="black"><path d="M17 59.04h12.15c9.4 0 14.1-3.08 14.1-9s-5-9-14.85-9H17v18zm0-43.54v16.78h10.66c8 0 12.17-3 12.17-8.4s-4.27-8.4-12.28-8.4H17zM0 68.04v-9h7.15V15.5H0v-9h28.62c13.14 0 21.14 6.05 21.14 16.56 0 6.9-4.06 11.15-9.18 13.17 7.37 2 12.6 7.22 12.6 14.34 0 11.22-8.75 17.47-23.06 17.47H0zm105.1-32c-1.07-3.6-3.74-5.74-7.26-5.74-8.22 0-16 6.05-16 17.1v11.64H97.6v9H62.37v-9h10V31.86h-7.9v-9H81.7v7.65c2.88-5.3 8.76-9.13 16.55-9.13 8.76 0 14.2 5 15.8 12.1l-9 2.55m48.1 13.77a37.53 37.53 0 0 0-11.64-1.91c-6 0-11.75 1.9-11.75 7.33 0 4 3.63 5.95 8.65 5.95 6.94 0 14.74-3.72 14.74-10.1V49.8zm0-8.07v-2.55c0-6.37-5.13-9-10.68-9a19.62 19.62 0 0 0-13.35 5.42l-6.2-6.7a27.61 27.61 0 0 1 19.55-7.54c11.43 0 20.3 6.05 20.3 17.52v20.15h6.62v9h-16.23V63.3c-2.45 3.93-9.08 6.27-15.6 6.27-9.4 0-17.5-4.78-17.5-14.23 0-11.15 11-15.4 21-15.4a44.44 44.44 0 0 1 12.07 1.8zM198.32.04h10.58v13.8h-10.58zm28.1 59v9H180.5v-9h19V31.86H185v-9h23.92v36.18h17.5zm11.3 0h6.94V31.86h-6.52v-9H254v5.84c2.78-4.46 8.54-7.32 15.6-7.32 10.1-.04 17.4 6.33 17.4 16.66v21h6.94v9h-23.6v-9h7.26V40.56c0-7.86-4.8-10.1-9.18-10.1-7.15 0-14.3 5.3-14.3 13.5v15.08h7.26v9h-23.6v-9m69.05-27.2H295v-9h11.85V6.48h9.4v16.35h22.1v9h-22.13v19c0 7 4.9 9.88 10.57 9.88 5.34 0 9.83-3 13.14-6.27l6.3 6.48a26.12 26.12 0 0 1-19.44 8.6c-11.42 0-20-6.27-20-18.37v-19.3m90.7 4.2c-1.07-3.6-3.74-5.74-7.26-5.74-8.22 0-16 6.05-16 17.1v11.64H390v9h-35.22v-9h10V31.86h-7.9v-9h17.2v7.65c2.88-5.3 8.76-9.13 16.55-9.13 8.76 0 14.2 5 15.8 12.1l-9 2.55m25.37 4.74h28a13.79 13.79 0 0 0-13.58-10.83c-7.26 0-12.82 4.46-14.42 10.83zm37.9 20.4c-4.7 4.9-13 8.4-22.32 8.4-15.27 0-26-10.2-26-24.1s10.42-24.1 24.83-24.1 24.35 10.94 24.35 25.8v1.6h-39.2c1.6 7.54 7.9 12.1 16.13 12.1 6.84 0 12.7-2.76 15.92-6.26l6.3 6.58zm20.53-20.4h28a13.79 13.79 0 0 0-13.58-10.83c-7.26 0-12.82 4.46-14.42 10.83zm37.9 20.4c-4.7 4.9-13 8.4-22.32 8.4-15.27 0-26-10.2-26-24.1s10.4-24.1 24.83-24.1S520 32.28 520 47.14v1.6h-39.2c1.6 7.54 7.9 12.1 16.13 12.1 6.83 0 12.7-2.76 15.9-6.26l6.3 6.58zM255.1 108.3l-2.4 4.63h-3l10.78-20.2h2.66l4.36 20.2h-2.8l-1-4.63zm6.2-11.92l-5 9.55h6.94zm178.78 14.77a5.26 5.26 0 0 0 2.64-.6 3.86 3.86 0 0 0 1.55-1.54 4.07 4.07 0 0 0 .5-1.93 2.4 2.4 0 0 0-.48-1.51 4.74 4.74 0 0 0-1.65-1.22l-2.55-1.08a8.54 8.54 0 0 1-3.12-2.11 4.2 4.2 0 0 1-1-2.78 5.54 5.54 0 0 1 .91-3.15 5.84 5.84 0 0 1 2.53-2.09 9 9 0 0 1 3.73-.73 10 10 0 0 1 3.08.48 6.58 6.58 0 0 1 2.31 1.36l-.44 2.72a7.67 7.67 0 0 0-5.24-2.08 4.67 4.67 0 0 0-3 .91 2.82 2.82 0 0 0-1.16 2.31 1.81 1.81 0 0 0 .57 1.35 8 8 0 0 0 2.09 1.26l2.5 1.1a7.6 7.6 0 0 1 2.86 2.15 4.6 4.6 0 0 1 .83 2.77 7.38 7.38 0 0 1-.79 3.4 6.07 6.07 0 0 1-2.55 2.53 9.18 9.18 0 0 1-4.51 1 8.71 8.71 0 0 1-5.95-1.9l.47-2.9a8.59 8.59 0 0 0 5.8 2.28m21.87-11.3a5.93 5.93 0 0 1 1.45 4.14 9.1 9.1 0 0 1-.09 1.41 13 13 0 0 1-.29 1.32h-11a4.23 4.23 0 0 0 1.14 3.38 4.61 4.61 0 0 0 3.34 1.19 9.12 9.12 0 0 0 2.67-.37 10 10 0 0 0 2.37-1.1l-.35 2.2a9.3 9.3 0 0 1-5.33 1.52 6.82 6.82 0 0 1-3.5-.86 5.71 5.71 0 0 1-2.25-2.39 7.43 7.43 0 0 1-.78-3.43 9.14 9.14 0 0 1 .94-3.88 8.59 8.59 0 0 1 2.84-3.37 7.86 7.86 0 0 1 4.69-1.36 5.35 5.35 0 0 1 4.17 1.6m-7.7 1.82a6.07 6.07 0 0 0-1.89 2.94h8.5a5.6 5.6 0 0 0 0-.64 3.62 3.62 0 0 0-.88-2.58 3.25 3.25 0 0 0-2.49-.94 4.81 4.81 0 0 0-3.26 1.22m18.2-.75a3.91 3.91 0 0 0-2.93 1.25 6.57 6.57 0 0 0-1.58 3.62l-1.15 7.24h-2.6l2.25-14.3h2.52l-.38 2.43a5.08 5.08 0 0 1 4.22-2.52 7 7 0 0 1 1.14.09l-.35 2.28a7 7 0 0 0-1.14-.09m7.83 12.1h-2.43l-3.4-14.3h2.6l2.43 11.15 5.94-11.15h2.73l-7.88 14.3zm9.47.01h-2.6l2.2-14.3h2.64zm.3-17a1.42 1.42 0 0 1-.4-1 1.75 1.75 0 0 1 .58-1.32 1.9 1.9 0 0 1 1.35-.56 1.35 1.35 0 0 1 1 .41 1.42 1.42 0 0 1 .4 1 1.78 1.78 0 0 1-.59 1.3 1.87 1.87 0 0 1-1.35.57 1.34 1.34 0 0 1-1-.41m5.8 16.65a6.23 6.23 0 0 1-2.25-2.39 6.84 6.84 0 0 1-.82-3.32 9.12 9.12 0 0 1 1-4.28 8.14 8.14 0 0 1 3-3.21 8.69 8.69 0 0 1 4.64-1.22 6.5 6.5 0 0 1 4.19 1.29l-.44 2.66a5.12 5.12 0 0 0-3.9-1.58 5.44 5.44 0 0 0-3 .86 5.93 5.93 0 0 0-2.07 2.27 6.44 6.44 0 0 0-.73 3 4.51 4.51 0 0 0 1.11 3.18 3.92 3.92 0 0 0 3 1.22 6.94 6.94 0 0 0 2.4-.44 6.41 6.41 0 0 0 2.14-1.29l-.4 2.7a8.16 8.16 0 0 1-2.28 1.08 8.94 8.94 0 0 1-2.43.32 6.05 6.05 0 0 1-3.22-.88m22.84-12.8a5.93 5.93 0 0 1 1.45 4.18 9.07 9.07 0 0 1-.09 1.41 12.92 12.92 0 0 1-.29 1.32h-11a4.24 4.24 0 0 0 1.14 3.38 4.61 4.61 0 0 0 3.34 1.19 9.12 9.12 0 0 0 2.67-.37 10 10 0 0 0 2.37-1.1l-.35 2.2a9.3 9.3 0 0 1-5.33 1.52 6.82 6.82 0 0 1-3.5-.86 5.7 5.7 0 0 1-2.25-2.39 7.43 7.43 0 0 1-.78-3.43 9.14 9.14 0 0 1 .94-3.88 8.59 8.59 0 0 1 2.84-3.37 7.86 7.86 0 0 1 4.69-1.36 5.35 5.35 0 0 1 4.17 1.6m-7.7 1.82a6.07 6.07 0 0 0-1.89 2.94h8.5a5.54 5.54 0 0 0 0-.64 3.62 3.62 0 0 0-.88-2.58 3.25 3.25 0 0 0-2.49-.94 4.81 4.81 0 0 0-3.26 1.22M377 82.23h-11.08a1.54 1.54 0 0 0-1.52 1.3l-4.48 28.42a.92.92 0 0 0 .91 1.07h5.7a1.08 1.08 0 0 0 1.06-.91l1.27-8.06a1.54 1.54 0 0 1 1.52-1.3h3.5c7.3 0 11.52-3.53 12.62-10.54.5-3.06 0-5.47-1.4-7.15-1.58-1.85-4.37-2.83-8.08-2.83m1.28 10.38c-.6 4-3.64 4-6.58 4H370l1.17-7.43a.92.92 0 0 1 .91-.78h.77c2 0 3.9 0 4.86 1.14a3.7 3.7 0 0 1 .54 3.09m-80.3-10.4h-11.1a1.54 1.54 0 0 0-1.52 1.3l-4.48 28.42a.92.92 0 0 0 .91 1.07h5.3a1.54 1.54 0 0 0 1.52-1.3l1.22-7.68a1.54 1.54 0 0 1 1.52-1.3h3.5c7.3 0 11.5-3.53 12.62-10.54.5-3.06 0-5.47-1.4-7.15-1.58-1.85-4.37-2.83-8.08-2.83m1.28 10.38c-.6 4-3.64 4-6.58 4H291l1.17-7.43a.92.92 0 0 1 .91-.78h.77c2 0 3.9 0 4.86 1.14a3.7 3.7 0 0 1 .54 3.09m31.83-.12h-5.3a.92.92 0 0 0-.91.78l-.23 1.48-.37-.54c-1.15-1.67-3.7-2.23-6.27-2.23a12.2 12.2 0 0 0-11.85 10.68 10 10 0 0 0 2 8.15 8.3 8.3 0 0 0 6.68 2.7 10.16 10.16 0 0 0 7.35-3l-.24 1.48a.92.92 0 0 0 .91 1.07h4.78a1.54 1.54 0 0 0 1.52-1.3l2.86-18.2a.92.92 0 0 0-.91-1.07m-7.4 10.33a5.92 5.92 0 0 1-6 5.07 4.11 4.11 0 0 1-4.4-5.16 5.94 5.94 0 0 1 5.95-5.11 4.47 4.47 0 0 1 3.54 1.45 4.57 4.57 0 0 1 .9 3.75m86.44-10.33h-5.3a.92.92 0 0 0-.91.78l-.23 1.48-.37-.54c-1.15-1.67-3.7-2.23-6.27-2.23-5.86 0-10.87 4.44-11.85 10.68a10 10 0 0 0 2 8.15 8.3 8.3 0 0 0 6.68 2.7 10.16 10.16 0 0 0 7.35-3L401 112a.92.92 0 0 0 .91 1.07h4.78a1.54 1.54 0 0 0 1.52-1.3l2.8-18.2a.92.92 0 0 0-.91-1.07m-7.4 10.33a5.92 5.92 0 0 1-6 5.07 4.11 4.11 0 0 1-4.4-5.16 5.94 5.94 0 0 1 5.95-5.11 4.47 4.47 0 0 1 3.54 1.45 4.57 4.57 0 0 1 .9 3.75M359.34 92.5H354a1.54 1.54 0 0 0-1.27.68l-7.35 10.87-3.12-10.4a1.54 1.54 0 0 0-1.48-1.1h-5.24a.92.92 0 0 0-.87 1.22l5.87 17.24-5.52 7.8a.92.92 0 0 0 .76 1.46h5.33a1.54 1.54 0 0 0 1.27-.66l17.72-25.65a.92.92 0 0 0-.76-1.45m57.04-9.47l-4.55 28.94a.92.92 0 0 0 .91 1.07h4.58a1.54 1.54 0 0 0 1.52-1.3l4.5-28.42a.92.92 0 0 0-.91-1.07h-5.12a.92.92 0 0 0-.91.78"/></svg>