<svg xmlns="http://www.w3.org/2000/svg" width="1010" height="228" viewBox="-1.055 -1.055 155.851 35.156"><path d="M25.943 17.083v8.93H8.126l8.07 8.086h17.803V17.083zm-.03-1.122L33.97 7.9v-8.965h-8.056v9.23H15.846l-7.79 7.787z" fill="#fb4f14"/><path d="M-1.15 25.145V34.1h8.052v-9.298h8.992v-7.715H6.9zm8.055-9.18v-8.93h17.818l-8.07-8.088H-1.148v17.02h8.054z" fill="#004165"/><path d="M153.12 25.935l-.7-2.13-.04-.133v2.264h-.482V23.35h.802l.688 2.177.698-2.177h.802v2.586h-.48v-2.1l.02-.164-.04.133-.715 2.13h-.556zm-3.67-2.586h2.087v.407h-.817v2.18h-.47v-2.18h-.8zM44.424 7.04h13.3v3.034H47.76v5.178h8.74v3.033h-8.74v7.727h-3.336zm51.756-.01h7.077c5.967 0 10.087 4.1 10.087 9.432v.06c0 5.34-4.12 9.492-10.087 9.492H96.18V7.034zm7.077 15.944c3.988 0 6.6-2.688 6.6-6.402v-.05c0-3.715-2.602-6.45-6.6-6.45h-3.742v12.906h3.742zm33.942-9.633l.43-.235c1.317-.644 2.834-1.017 4.246-1.017 4.33 0 6.386 1.597 6.386 5.52v8.33h-3.136v-1.564c-.868 1.275-2.14 1.89-4.114 1.89-3.33 0-5.086-1.814-5.086-4.412 0-2.653 1.896-4.52 5.356-4.52 1.46 0 3.056.295 3.898.565v-.238c0-1.867-.922-2.732-3.386-2.732a6.42 6.42 0 0 0-3.433.972l-1.162-2.56zm4.57 10.466c1.732 0 3.357-1.573 3.357-3.52-.923-.353-2.246-.542-3.383-.542-1.978 0-2.9 1.086-2.9 2.087 0 1.3 1.28 1.975 2.927 1.975m-27.06-10.466l.43-.235c1.316-.644 2.835-1.017 4.248-1.017 4.328 0 6.383 1.597 6.383 5.52v8.33h-3.137v-1.564c-.864 1.275-2.138 1.89-4.113 1.89-3.325 0-5.086-1.814-5.086-4.412 0-2.653 1.895-4.52 5.358-4.52 1.46 0 3.057.295 3.896.565v-.238c0-1.867-.92-2.732-3.383-2.732a6.43 6.43 0 0 0-3.436.972zm4.57 10.466c1.73 0 3.354-1.573 3.354-3.52-.92-.353-2.245-.542-3.384-.542-1.972 0-2.897 1.086-2.897 2.087 0 1.3 1.277 1.975 2.927 1.975m15.34-.7l1.025 2.52c-.623.406-1.676.65-2.65.65-3.056 0-4.52-1.57-4.52-4.464v-6.685h-1.9v-2.704h1.9v-2.87h3.142v2.87h3.08v2.704h-3.08v6.7c0 1.16.593 1.707 1.51 1.707.627 0 1.007-.136 1.494-.436m-43.856 0l1.028 2.518c-.623.407-1.675.65-2.65.65-3.058 0-4.52-1.57-4.52-4.464v-6.685h-1.9V12.41h1.9V9.54h3.14v2.87h3.08v2.704h-3.08v6.7c0 1.16.595 1.707 1.515 1.707.62 0 1-.136 1.487-.436m-10.846-7.16c-.73-.65-1.872-1.08-2.74-1.08-1.256 0-1.884.62-1.884 1.354 0 .595.258 1.307 2.182 1.807 3.527.895 4.714 1.913 4.714 4.224 0 2.325-1.634 4.03-5.152 4.03-2.042 0-3.92-.62-5.467-1.976l1.738-2.383c1.06 1.138 2.45 1.6 3.73 1.6 1.365 0 1.96-.58 1.96-1.352 0-.704-.586-1.248-2.476-1.733-3.284-.86-4.353-2.202-4.353-4.354 0-1.785 1.384-3.977 5.01-3.977 1.66 0 3.253.54 4.418 1.514zm-8.622-.605l-.405-.08a5.6 5.6 0 0 0-.945-.07c-1.516 0-3.086.813-3.086 3.384v7.386h-3.14V12.42h3.14v1.828c.537-1.005 1.867-2.153 3.68-2.153.242 0 .567.03.756.08v3.153zM58.74 12.415h3.138V25.94H58.74z" fill="#181512"/></svg>