<?xml version="1.0" encoding="utf-8"?>
<svg id="master-artboard" viewBox="0 0 760.596923828125 246.278564453125" version="1.1" xmlns="http://www.w3.org/2000/svg" x="0px" y="0px" style="enable-background:new 0 0 336 235.2;" width="760.596923828125px" height="246.278564453125px"><rect id="ee-background" x="0" y="0" width="760.596923828125" height="246.278564453125" style="fill: white; fill-opacity: 0; pointer-events: none;"/><defs><clipPath id="clipPath20" clipPathUnits="userSpaceOnUse"><path id="path18" d="M 0,2834.646 H 2834.646 V 0 H 0 Z"/></clipPath></defs><g transform="matrix(0.259291410446167, 0, 0, 0.259291410446167, -110.54720497131348, -367.91046142578125)"><metadata id="metadata8"/><g transform="matrix(1.3333333,0,0,-1.3333333,0,3779.5333)" id="g10"><path id="path12" style="fill:#2b394c;fill-opacity:1;fill-rule:nonzero;stroke:none" d="m 942.104,1623.056 h 58.179 v -222.079 h -58.179 z"/><g id="g14"><g clip-path="url(#clipPath20)" id="g16"><g transform="translate(1041.1359,1556.2953)" id="g22"><path id="path24" style="fill:#2b394c;fill-opacity:1;fill-rule:nonzero;stroke:none" d="m 0,0 c 0,24.525 -1.334,45.87 -1.777,66.761 h 50.185 l 2.664,-25.433 h 0.889 c 11.547,17.713 30.2,29.065 52.85,29.065 41.302,0 57.734,-33.607 57.734,-83.108 v -142.603 h -58.179 v 138.969 c 0,19.075 -4.441,36.786 -21.316,36.786 -9.771,0 -17.766,-6.812 -21.762,-19.983 -1.777,-4.54 -3.109,-11.807 -3.109,-20.435 V -155.318 H 0 Z"/></g><g transform="translate(1312.9246,1683.0034)" id="g26"><path id="path28" style="fill:#2b394c;fill-opacity:1;fill-rule:nonzero;stroke:none" d="m 0,0 v -59.947 h 42.635 v -42.236 H 0 v -101.275 c 0,-25.887 10.659,-32.245 22.207,-32.245 5.773,0 10.214,0.454 15.099,1.363 l 0.445,-46.324 c -7.996,-2.27 -19.987,-4.086 -35.53,-4.086 -16.876,0 -31.533,4.086 -41.747,14.079 -11.991,11.806 -18.653,28.611 -18.653,63.579 v 104.909 h -25.759 v 42.236 h 25.759 v 45.868 z"/></g><g transform="translate(1480.3506,1532.6802)" id="g30"><path id="path32" style="fill:#2b394c;fill-opacity:1;fill-rule:nonzero;stroke:none" d="M 0,0 C 0,28.611 -7.107,50.865 -24.427,50.865 -43.524,50.865 -51.074,22.253 -51.519,0 Z m -51.962,-41.782 c 0.888,-34.514 20.43,-47.23 46.187,-47.23 16.432,0 31.089,3.632 41.303,7.266 l 7.996,-42.69 c -15.101,-5.904 -37.751,-9.991 -59.958,-9.991 -59.067,0 -91.487,39.964 -91.487,109.45 0,74.479 37.749,118.986 87.046,118.986 46.633,0 73.724,-37.694 73.724,-104.908 0,-15.896 -0.443,-24.525 -1.777,-30.883 z"/></g><g transform="translate(1565.6101,1556.2953)" id="g34"><path id="path36" style="fill:#2b394c;fill-opacity:1;fill-rule:nonzero;stroke:none" d="m 0,0 c 0,22.253 -0.887,46.324 -1.777,66.761 h 50.628 l 3.111,-32.245 h 1.334 c 9.769,23.615 27.09,35.877 43.077,35.877 5.775,0 8.882,0 12.436,-0.908 V 10.446 c -3.554,0.908 -7.552,0.908 -12.436,0.908 -12.433,0 -28.867,-8.628 -35.529,-31.789 -1.333,-4.996 -2.22,-12.717 -2.22,-22.253 v -112.63 H 0 Z"/></g><g transform="translate(1754.351,1525.8678)" id="g38"><path id="path40" style="fill:#32ac4c;fill-opacity:1;fill-rule:nonzero;stroke:none" d="m 0,0 h 0.887 c 3.998,12.717 7.105,21.799 11.102,30.882 l 27.98,66.307 h 62.622 L 50.185,4.088 105.698,-124.89 H 40.856 L 9.769,-33.606 0,-52.681 V -124.89 H -58.181 V 189.379 H 0 Z"/></g><g transform="translate(1974.6226,1509.0649)" id="g42"><path id="path44" style="fill:#32ac4c;fill-opacity:1;fill-rule:nonzero;stroke:none" d="m 0,0 c -19.541,-0.454 -46.188,-6.812 -46.188,-37.694 0,-22.253 11.993,-30.427 20.876,-30.427 9.325,0 19.984,5.902 23.982,19.073 0.887,3.18 1.33,6.812 1.33,10.446 z M 7.995,-108.087 4.884,-86.288 H 3.998 c -11.99,-17.257 -28.867,-25.432 -47.965,-25.432 -32.865,0 -57.29,28.156 -57.29,67.668 0,58.131 50.185,82.2 99.48,82.654 v 4.996 c 0,17.257 -10.212,29.974 -30.644,29.974 -17.321,0 -31.531,-4.542 -44.411,-12.717 l -10.659,39.966 c 11.993,7.266 37.306,16.803 67.506,16.803 66.173,0 76.832,-47.231 76.832,-92.193 v -82.654 c 0,-17.711 0.89,-35.878 3.554,-50.864 z"/></g><g transform="translate(2070.9883,1454.5663)" id="g46"><path id="path48" style="fill:#32ac4c;fill-opacity:1;fill-rule:nonzero;stroke:none" d="m 0,0 c 8.435,-5.448 24.426,-11.807 39.079,-11.807 15.1,0 23.539,6.813 23.539,19.981 0,11.355 -6.218,18.621 -25.313,29.976 -35.531,20.435 -43.97,43.598 -43.97,64.033 0,39.966 27.98,69.939 71.504,69.939 18.211,0 32.421,-4.542 43.967,-9.99 L 98.593,118.534 c -8.438,4.994 -18.654,9.082 -30.2,9.082 -14.657,0 -21.762,-9.082 -21.762,-19.075 0,-9.99 4.884,-15.44 25.313,-27.703 31.977,-18.619 43.97,-41.78 43.97,-67.213 0,-45.415 -31.977,-69.938 -76.835,-69.938 -18.207,0 -39.526,4.995 -49.738,12.715 z"/></g><g transform="translate(2214.8752,1454.5663)" id="g50"><path id="path52" style="fill:#32ac4c;fill-opacity:1;fill-rule:nonzero;stroke:none" d="m 0,0 c 8.435,-5.448 24.426,-11.807 39.079,-11.807 15.1,0 23.539,6.813 23.539,19.981 0,11.355 -6.218,18.621 -25.312,29.976 -35.532,20.435 -43.971,43.598 -43.971,64.033 0,39.966 27.98,69.939 71.504,69.939 18.211,0 32.421,-4.542 43.967,-9.99 L 98.594,118.534 c -8.439,4.994 -18.655,9.082 -30.201,9.082 -14.657,0 -21.762,-9.082 -21.762,-19.075 0,-9.99 4.884,-15.44 25.313,-27.703 31.977,-18.619 43.97,-41.78 43.97,-67.213 0,-45.415 -31.977,-69.938 -76.835,-69.938 -18.207,0 -39.526,4.995 -49.738,12.715 z"/></g><g transform="translate(2449.8003,1509.0649)" id="g54"><path id="path56" style="fill:#32ac4c;fill-opacity:1;fill-rule:nonzero;stroke:none" d="m 0,0 c -19.542,-0.454 -46.188,-6.812 -46.188,-37.694 0,-22.253 11.993,-30.427 20.875,-30.427 9.326,0 19.985,5.902 23.983,19.073 0.886,3.18 1.33,6.812 1.33,10.446 z M 7.995,-108.087 4.884,-86.288 H 3.998 c -11.99,-17.257 -28.867,-25.432 -47.965,-25.432 -32.865,0 -57.29,28.156 -57.29,67.668 0,58.131 50.185,82.2 99.48,82.654 v 4.996 c 0,17.257 -10.213,29.974 -30.644,29.974 -17.321,0 -31.531,-4.542 -44.411,-12.717 l -10.659,39.966 c 11.993,7.266 37.306,16.803 67.506,16.803 66.173,0 76.832,-47.231 76.832,-92.193 v -82.654 c 0,-17.711 0.89,-35.878 3.554,-50.864 z"/></g><g transform="translate(325.0687,1253.413)" id="g58"><path id="path60" style="fill:#5bc23c;fill-opacity:1;fill-rule:nonzero;stroke:none" d="m 0,0 v -73.856 c 0,0 119.866,-108.969 248.207,-108.969 128.341,0 237.812,108.969 237.812,108.969 V -1.211 C 486.03,-0.539 369.888,-72.932 249.72,-72.797 126.901,-72.659 0,0 0,0"/></g><g transform="translate(811.0361,1525.0642)" id="g62"><path id="path64" style="fill:#32ac4c;fill-opacity:1;fill-rule:nonzero;stroke:none" d="m 0,0 v 2.949 h -0.074 c -3.723,130.985 -110.998,236.045 -242.884,236.045 -131.886,0 -239.161,-105.06 -242.883,-236.045 h -0.178 v -236.45 c 0,0 107.507,-66.301 253.707,-66.301 C -93.68,-299.802 0,-232.301 0,-232.301 V -8.134 c 0.022,1.359 0.103,2.703 0.103,4.067 C 0.103,-2.703 0.022,-1.359 0,0"/></g><g transform="translate(577.059,1397.3453)" id="g66"><path id="path68" style="fill:#ffffff;fill-opacity:1;fill-rule:nonzero;stroke:none" d="m 0,0 c 49.399,0 89.445,40.046 89.445,89.445 0,49.399 -40.046,89.445 -89.445,89.445 -49.399,0 -89.445,-40.046 -89.445,-89.445 C -89.445,40.046 -49.399,0 0,0"/></g><g transform="translate(702.3066,1244.4764)" id="g70"><path id="path72" style="fill:#ffffff;fill-opacity:1;fill-rule:nonzero;stroke:none" d="m 0,0 c -5.654,77.442 -59.553,138.186 -125.248,138.186 -66.402,0 -120.74,-62.064 -125.4,-140.699 -74.391,20.376 -127.214,50.799 -127.214,50.799 V 8.197 c 0,0 132.749,-74.154 252.522,-74.154 119.773,0 234.602,70.299 234.602,70.299 l 0.052,43.944 C 109.314,48.286 51.373,14.915 0,0"/></g><g transform="translate(960.6224,1271.3256)" id="g74"><path id="path76" style="fill:#4f4c4d;fill-opacity:1;fill-rule:nonzero;stroke:none" d="m 0,0 c 0,-1.72 0.264,-3.31 0.53,-4.766 2.118,-8.077 9.136,-13.638 17.477,-13.638 12.314,0 19.465,10.063 19.465,24.76 0,12.843 -6.754,23.834 -19.068,23.834 C 10.461,30.19 3.045,24.497 0.795,15.756 0.397,14.3 0,12.58 0,10.991 Z m -11.519,17.081 c 0,8.21 -0.265,14.829 -0.531,20.921 h 10.461 l 0.53,-10.99 h 0.264 c 4.768,7.812 12.314,12.447 22.775,12.447 15.492,0 27.143,-13.109 27.143,-32.574 0,-23.039 -14.034,-34.425 -29.129,-34.425 -8.475,0 -15.89,3.707 -19.73,10.063 H 0 v -34.824 h -11.519 z"/></g><g transform="translate(1058.219,1277.9463)" id="g78"><path id="path80" style="fill:#4f4c4d;fill-opacity:1;fill-rule:nonzero;stroke:none" d="m 0,0 c -12.711,0.264 -27.143,-1.986 -27.143,-14.432 0,-7.548 5.032,-11.124 10.989,-11.124 8.343,0 13.639,5.298 15.492,10.727 0.398,1.19 0.662,2.515 0.662,3.707 z m 1.722,-32.705 -0.927,8.077 H 0.397 c -3.574,-5.032 -10.46,-9.533 -19.596,-9.533 -12.976,0 -19.596,9.136 -19.596,18.405 0,15.492 13.77,23.966 38.531,23.833 v 1.325 c 0,5.296 -1.456,14.829 -14.565,14.829 -5.959,0 -12.183,-1.854 -16.684,-4.766 l -2.648,7.68 c 5.296,3.442 12.976,5.693 21.052,5.693 19.597,0 24.364,-13.373 24.364,-26.217 v -23.967 c 0,-5.56 0.264,-10.989 1.059,-15.359 z"/></g><g transform="translate(1091.4647,1309.328)" id="g82"><path id="path84" style="fill:#4f4c4d;fill-opacity:1;fill-rule:nonzero;stroke:none" d="m 0,0 14.034,-37.869 c 1.458,-4.238 3.047,-9.269 4.106,-13.109 h 0.264 c 1.192,3.84 2.517,8.738 4.104,13.373 L 35.22,0 H 47.536 L 30.057,-45.682 C 21.716,-67.662 16.021,-78.917 8.077,-85.802 2.384,-90.834 -3.31,-92.818 -6.224,-93.349 l -2.912,9.799 c 2.912,0.926 6.752,2.779 10.195,5.693 3.178,2.515 7.151,7.018 9.799,12.976 0.528,1.192 0.926,2.119 0.926,2.781 0,0.661 -0.265,1.589 -0.795,3.045 L -12.711,0 Z"/></g><g transform="translate(1149.6027,1291.9824)" id="g86"><path id="path88" style="fill:#4f4c4d;fill-opacity:1;fill-rule:nonzero;stroke:none" d="M 0,0 C 0,6.619 -0.133,12.048 -0.53,17.346 H 9.666 l 0.529,-10.33 h 0.397 c 3.575,6.093 9.535,11.786 20.126,11.786 8.739,0 15.36,-5.296 18.141,-12.844 h 0.264 c 1.986,3.575 4.503,6.356 7.151,8.342 3.84,2.913 8.077,4.502 14.167,4.502 8.474,0 21.053,-5.562 21.053,-27.806 V -46.741 H 80.107 v 36.28 c 0,12.314 -4.501,19.73 -13.903,19.73 -6.621,0 -11.783,-4.901 -13.77,-10.594 -0.53,-1.589 -0.927,-3.707 -0.927,-5.826 v -39.59 H 40.12 V -8.343 C 40.12,1.853 35.617,9.269 26.746,9.269 19.463,9.269 14.167,3.443 12.314,-2.384 11.652,-4.106 11.386,-6.092 11.386,-8.077 V -46.741 H 0 Z"/></g><g transform="translate(1300.6993,1283.5083)" id="g90"><path id="path92" style="fill:#4f4c4d;fill-opacity:1;fill-rule:nonzero;stroke:none" d="M 0,0 C 0.133,7.414 -3.045,18.935 -16.154,18.935 -27.937,18.935 -33.102,8.077 -34.028,0 Z m -34.161,-8.343 c 0.264,-15.756 10.328,-22.244 21.98,-22.244 8.341,0 13.373,1.456 17.743,3.309 l 1.986,-8.341 c -4.105,-1.853 -11.122,-3.973 -21.318,-3.973 -19.729,0 -31.513,12.978 -31.513,32.31 0,19.33 11.386,34.558 30.057,34.558 20.921,0 26.481,-18.405 26.481,-30.19 0,-2.384 -0.264,-4.237 -0.397,-5.429 z"/></g><g transform="translate(1326.3984,1291.9824)" id="g94"><path id="path96" style="fill:#4f4c4d;fill-opacity:1;fill-rule:nonzero;stroke:none" d="M 0,0 C 0,6.619 -0.133,12.048 -0.53,17.346 H 9.797 L 10.461,6.752 h 0.264 c 3.178,6.091 10.593,12.05 21.185,12.05 8.872,0 22.642,-5.296 22.642,-27.276 V -46.741 H 42.901 V -9.799 C 42.901,0.529 39.06,9.136 28.07,9.136 20.391,9.136 14.432,3.707 12.447,-2.781 11.917,-4.237 11.652,-6.224 11.652,-8.21 V -46.741 H 0 Z"/></g><g transform="translate(1413.4015,1327.7325)" id="g98"><path id="path100" style="fill:#4f4c4d;fill-opacity:1;fill-rule:nonzero;stroke:none" d="m 0,0 v -18.405 h 16.684 v -8.871 H 0 v -34.56 c 0,-7.944 2.252,-12.445 8.74,-12.445 3.045,0 5.296,0.397 6.752,0.794 l 0.53,-8.74 c -2.25,-0.926 -5.826,-1.589 -10.327,-1.589 -5.429,0 -9.799,1.722 -12.58,4.9 -3.31,3.443 -4.501,9.136 -4.501,16.683 v 34.957 h -9.931 v 8.871 h 9.931 v 15.36 z"/></g><g transform="translate(1505.0388,1277.9463)" id="g102"><path id="path104" style="fill:#4f4c4d;fill-opacity:1;fill-rule:nonzero;stroke:none" d="m 0,0 c -12.711,0.264 -27.143,-1.986 -27.143,-14.432 0,-7.548 5.032,-11.124 10.989,-11.124 8.343,0 13.639,5.298 15.492,10.727 0.398,1.19 0.662,2.515 0.662,3.707 z m 1.722,-32.705 -0.927,8.077 H 0.397 c -3.575,-5.032 -10.46,-9.533 -19.596,-9.533 -12.976,0 -19.596,9.136 -19.596,18.405 0,15.492 13.77,23.966 38.531,23.833 v 1.325 c 0,5.296 -1.456,14.829 -14.565,14.829 -5.959,0 -12.183,-1.854 -16.684,-4.766 l -2.648,7.68 c 5.296,3.442 12.976,5.693 21.052,5.693 19.597,0 24.364,-13.373 24.364,-26.217 v -23.967 c 0,-5.56 0.266,-10.989 1.061,-15.359 z"/></g><g transform="translate(1580.7885,1247.6252)" id="g106"><path id="path108" style="fill:#4f4c4d;fill-opacity:1;fill-rule:nonzero;stroke:none" d="m 0,0 c -3.043,-1.589 -9.797,-3.709 -18.403,-3.709 -19.332,0 -31.914,13.109 -31.914,32.707 0,19.727 13.508,34.028 34.429,34.028 6.885,0 12.976,-1.72 16.154,-3.31 l -2.65,-9.004 c -2.781,1.589 -7.147,3.045 -13.504,3.045 -14.699,0 -22.641,-10.858 -22.641,-24.231 0,-14.828 9.531,-23.966 22.244,-23.966 6.619,0 10.989,1.722 14.299,3.178 z"/></g><g transform="translate(1639.3236,1247.6252)" id="g110"><path id="path112" style="fill:#4f4c4d;fill-opacity:1;fill-rule:nonzero;stroke:none" d="m 0,0 c -3.043,-1.589 -9.797,-3.709 -18.403,-3.709 -19.332,0 -31.913,13.109 -31.913,32.707 0,19.727 13.507,34.028 34.428,34.028 6.885,0 12.976,-1.72 16.154,-3.31 l -2.65,-9.004 c -2.781,1.589 -7.147,3.045 -13.504,3.045 -14.699,0 -22.641,-10.858 -22.641,-24.231 0,-14.828 9.531,-23.966 22.244,-23.966 6.619,0 10.989,1.722 14.299,3.178 z"/></g><g transform="translate(1692.829,1283.5083)" id="g114"><path id="path116" style="fill:#4f4c4d;fill-opacity:1;fill-rule:nonzero;stroke:none" d="M 0,0 C 0.131,7.414 -3.047,18.935 -16.154,18.935 -27.941,18.935 -33.102,8.077 -34.031,0 Z m -34.163,-8.343 c 0.266,-15.756 10.33,-22.244 21.979,-22.244 8.342,0 13.376,1.456 17.742,3.309 l 1.987,-8.341 c -4.104,-1.853 -11.12,-3.973 -21.315,-3.973 -19.729,0 -31.516,12.978 -31.516,32.31 0,19.33 11.389,34.558 30.058,34.558 20.921,0 26.483,-18.405 26.483,-30.19 0,-2.384 -0.266,-4.237 -0.397,-5.429 z"/></g><g transform="translate(1730.0422,1271.3256)" id="g118"><path id="path120" style="fill:#4f4c4d;fill-opacity:1;fill-rule:nonzero;stroke:none" d="m 0,0 c 0,-1.72 0.266,-3.31 0.532,-4.766 2.118,-8.077 9.134,-13.638 17.477,-13.638 12.316,0 19.463,10.063 19.463,24.76 0,12.843 -6.75,23.834 -19.066,23.834 C 10.461,30.19 3.047,24.497 0.795,15.756 0.397,14.3 0,12.58 0,10.991 Z m -11.518,17.081 c 0,8.21 -0.266,14.829 -0.528,20.921 h 10.46 l 0.529,-10.99 h 0.266 c 4.764,7.812 12.312,12.447 22.773,12.447 15.49,0 27.143,-13.109 27.143,-32.574 0,-23.039 -14.036,-34.425 -29.13,-34.425 -8.474,0 -15.887,3.707 -19.729,10.063 H 0 v -34.824 h -11.518 z"/></g><g transform="translate(1807.9131,1327.7325)" id="g122"><path id="path124" style="fill:#4f4c4d;fill-opacity:1;fill-rule:nonzero;stroke:none" d="m 0,0 v -18.405 h 16.682 v -8.871 H 0 v -34.56 c 0,-7.944 2.249,-12.445 8.737,-12.445 3.047,0 5.299,0.397 6.753,0.794 l 0.529,-8.74 c -2.249,-0.926 -5.824,-1.589 -10.326,-1.589 -5.431,0 -9.797,1.722 -12.578,4.9 -3.313,3.443 -4.501,9.136 -4.501,16.683 v 34.957 h -9.932 v 8.871 h 9.932 v 15.36 z"/></g><g transform="translate(1871.4783,1277.9463)" id="g126"><path id="path128" style="fill:#4f4c4d;fill-opacity:1;fill-rule:nonzero;stroke:none" d="m 0,0 c -12.713,0.264 -27.146,-1.986 -27.146,-14.432 0,-7.548 5.033,-11.124 10.992,-11.124 8.34,0 13.635,5.298 15.491,10.727 0.397,1.19 0.663,2.515 0.663,3.707 z m 1.72,-32.705 -0.925,8.077 H 0.397 c -3.575,-5.032 -10.46,-9.533 -19.598,-9.533 -12.975,0 -19.598,9.136 -19.598,18.405 0,15.492 13.774,23.966 38.533,23.833 v 1.325 c 0,5.296 -1.458,14.829 -14.565,14.829 -5.959,0 -12.181,-1.854 -16.682,-4.766 l -2.65,7.68 c 5.296,3.442 12.976,5.693 21.053,5.693 19.598,0 24.365,-13.373 24.365,-26.217 v -23.967 c 0,-5.56 0.263,-10.989 1.057,-15.359 z"/></g><g transform="translate(1901.5439,1291.9824)" id="g130"><path id="path132" style="fill:#4f4c4d;fill-opacity:1;fill-rule:nonzero;stroke:none" d="M 0,0 C 0,6.619 -0.131,12.048 -0.529,17.346 H 9.797 L 10.461,6.752 h 0.266 c 3.174,6.091 10.591,12.05 21.183,12.05 8.872,0 22.642,-5.296 22.642,-27.276 V -46.741 H 42.899 V -9.799 C 42.899,0.529 39.061,9.136 28.072,9.136 20.389,9.136 14.433,3.707 12.447,-2.781 11.915,-4.237 11.652,-6.224 11.652,-8.21 V -46.741 H 0 Z"/></g><g transform="translate(2020.7214,1247.6252)" id="g134"><path id="path136" style="fill:#4f4c4d;fill-opacity:1;fill-rule:nonzero;stroke:none" d="m 0,0 c -3.043,-1.589 -9.797,-3.709 -18.403,-3.709 -19.332,0 -31.913,13.109 -31.913,32.707 0,19.727 13.507,34.028 34.428,34.028 6.885,0 12.976,-1.72 16.154,-3.31 l -2.65,-9.004 c -2.781,1.589 -7.147,3.045 -13.504,3.045 -14.699,0 -22.641,-10.858 -22.641,-24.231 0,-14.828 9.531,-23.966 22.244,-23.966 6.619,0 10.989,1.722 14.299,3.178 z"/></g><g transform="translate(2074.2268,1283.5083)" id="g138"><path id="path140" style="fill:#4f4c4d;fill-opacity:1;fill-rule:nonzero;stroke:none" d="M 0,0 C 0.131,7.414 -3.047,18.935 -16.154,18.935 -27.941,18.935 -33.102,8.077 -34.031,0 Z m -34.163,-8.343 c 0.266,-15.756 10.33,-22.244 21.978,-22.244 8.343,0 13.377,1.456 17.743,3.309 l 1.987,-8.341 c -4.104,-1.853 -11.12,-3.973 -21.315,-3.973 -19.729,0 -31.517,12.978 -31.517,32.31 0,19.33 11.39,34.558 30.059,34.558 20.921,0 26.483,-18.405 26.483,-30.19 0,-2.384 -0.266,-4.237 -0.397,-5.429 z"/></g><g transform="translate(2126.4092,1257.1582)" id="g142"><path id="path144" style="fill:#4f4c4d;fill-opacity:1;fill-rule:nonzero;stroke:none" d="m 0,0 c 3.444,-2.251 9.535,-4.634 15.359,-4.634 8.474,0 12.447,4.237 12.447,9.533 0,5.562 -3.309,8.607 -11.918,11.785 -11.518,4.104 -16.949,10.461 -16.949,18.14 0,10.328 8.343,18.802 22.113,18.802 6.488,0 12.181,-1.853 15.757,-3.973 l -2.913,-8.474 c -2.514,1.589 -7.15,3.709 -13.106,3.709 -6.889,0 -10.727,-3.973 -10.727,-8.741 0,-5.296 3.838,-7.679 12.181,-10.858 11.124,-4.237 16.817,-9.797 16.817,-19.33 0,-11.255 -8.74,-19.201 -23.968,-19.201 -7.016,0 -13.504,1.723 -18.005,4.371 z"/></g><g transform="translate(2184.6748,1309.328)" id="g146"><path id="path148" style="fill:#4f4c4d;fill-opacity:1;fill-rule:nonzero;stroke:none" d="m 0,0 14.036,-37.869 c 1.458,-4.238 3.047,-9.269 4.104,-13.109 h 0.266 c 1.192,3.84 2.515,8.738 4.104,13.373 L 35.223,0 H 47.535 L 30.059,-45.682 C 21.716,-67.662 16.022,-78.917 8.077,-85.802 2.384,-90.834 -3.31,-92.818 -6.222,-93.349 l -2.912,9.799 c 2.912,0.926 6.754,2.779 10.195,5.693 3.178,2.515 7.151,7.018 9.797,12.976 0.532,1.192 0.929,2.119 0.929,2.781 0,0.661 -0.266,1.589 -0.794,3.045 L -12.709,0 Z"/></g><g transform="translate(2240.4326,1257.1582)" id="g150"><path id="path152" style="fill:#4f4c4d;fill-opacity:1;fill-rule:nonzero;stroke:none" d="m 0,0 c 3.444,-2.251 9.535,-4.634 15.359,-4.634 8.474,0 12.447,4.237 12.447,9.533 0,5.562 -3.309,8.607 -11.918,11.785 -11.518,4.104 -16.949,10.461 -16.949,18.14 0,10.328 8.343,18.802 22.113,18.802 6.488,0 12.181,-1.853 15.757,-3.973 l -2.912,-8.474 c -2.515,1.589 -7.151,3.709 -13.107,3.709 -6.889,0 -10.727,-3.973 -10.727,-8.741 0,-5.296 3.838,-7.679 12.181,-10.858 11.124,-4.237 16.817,-9.797 16.817,-19.33 0,-11.255 -8.74,-19.201 -23.968,-19.201 -7.016,0 -13.504,1.723 -18.005,4.371 z"/></g><g transform="translate(2308.499,1327.7325)" id="g154"><path id="path156" style="fill:#4f4c4d;fill-opacity:1;fill-rule:nonzero;stroke:none" d="m 0,0 v -18.405 h 16.682 v -8.871 H 0 v -34.56 c 0,-7.944 2.249,-12.445 8.737,-12.445 3.047,0 5.299,0.397 6.753,0.794 l 0.529,-8.74 c -2.249,-0.926 -5.824,-1.589 -10.326,-1.589 -5.431,0 -9.797,1.722 -12.578,4.9 -3.313,3.443 -4.501,9.136 -4.501,16.683 v 34.957 h -9.932 v 8.871 h 9.932 v 15.36 z"/></g><g transform="translate(2378.1545,1283.5083)" id="g158"><path id="path160" style="fill:#4f4c4d;fill-opacity:1;fill-rule:nonzero;stroke:none" d="M 0,0 C 0.131,7.414 -3.047,18.935 -16.154,18.935 -27.941,18.935 -33.102,8.077 -34.031,0 Z m -34.163,-8.343 c 0.267,-15.756 10.33,-22.244 21.979,-22.244 8.342,0 13.376,1.456 17.743,3.309 l 1.986,-8.341 c -4.104,-1.853 -11.12,-3.973 -21.315,-3.973 -19.729,0 -31.516,12.978 -31.516,32.31 0,19.33 11.39,34.558 30.058,34.558 20.921,0 26.483,-18.405 26.483,-30.19 0,-2.384 -0.266,-4.237 -0.397,-5.429 z"/></g><g transform="translate(2403.8503,1291.9824)" id="g162"><path id="path164" style="fill:#4f4c4d;fill-opacity:1;fill-rule:nonzero;stroke:none" d="M 0,0 C 0,6.619 -0.131,12.048 -0.529,17.346 H 9.666 l 0.529,-10.33 h 0.397 c 3.575,6.093 9.534,11.786 20.126,11.786 8.74,0 15.36,-5.296 18.141,-12.844 h 0.266 c 1.986,3.575 4.501,6.356 7.147,8.342 3.842,2.913 8.077,4.502 14.171,4.502 8.474,0 21.052,-5.562 21.052,-27.806 v -37.737 h -11.39 v 36.28 c 0,12.314 -4.501,19.73 -13.901,19.73 -6.619,0 -11.784,-4.901 -13.77,-10.594 -0.528,-1.589 -0.926,-3.707 -0.926,-5.826 v -39.59 h -11.39 v 38.398 c 0,10.196 -4.501,17.612 -13.372,17.612 -7.283,0 -12.579,-5.826 -14.434,-11.653 -0.66,-1.722 -0.926,-3.708 -0.926,-5.693 V -46.741 H 0 Z"/></g></g></g></g></g></svg>