<?xml version="1.0" encoding="utf-8"?>
<!-- Generator: Adobe Illustrator 22.1.0, SVG Export Plug-In . SVG Version: 6.00 Build 0)  -->
<svg version="1.1" id="Слой_1" xmlns="http://www.w3.org/2000/svg" xmlns:xlink="http://www.w3.org/1999/xlink" x="0px" y="0px"
	 viewBox="0 0 200 62" style="enable-background:new 0 0 200 62;" xml:space="preserve">
<style type="text/css">
	.st0{fill:#58595B;}
	.st1{fill:#04858C;}
</style>
<g>
	<path class="st0" d="M92,0C81.9,0,71.3,10.6,71.3,23.6c0,7.7,3.8,14.6,9.5,18.9l0-4.7c-3.7-3.6-6-8.7-6-14.2
		c0-11.1,9-20.1,20.2-20.1c11.1,0,20.2,9,20.2,20.1c0,5.6-2.3,10.5-6,14.2l0,4.7c5.8-4.3,9.5-11.2,9.5-18.9C118.8,10.6,108.2,0,95,0
		"/>
	<path class="st1" d="M85.7,21.7c-1.6,0-2.9-1.3-2.9-2.9c0-1.6,1.3-2.9,2.9-2.9c1.6,0,2.9,1.3,2.9,2.9
		C88.7,20.3,87.3,21.7,85.7,21.7 M88.1,42.8h-4.8V23.1h4.8V42.8z"/>
	<path class="st1" d="M95.4,42.8h-4.8V23.5h4.8v1.7c1.5-1.1,3.8-2.2,6-2.2c4.9,0,5.4,3.8,5.4,6.6v13.1h-4.8V29.9
		c0-2.7-0.9-2.7-1.4-2.7c-1.1,0-4.1,1.4-5.3,2.7V42.8z"/>
	<path class="st1" d="M93.5,20.1c0,0,0.1,0,0.2-0.1c0.1,0,0.1-0.1,0.1-0.1l0,0l0,0h0l0,0l0,0l0,0l0,0h0l0,0c1.2-0.7,2-1.8,2.4-3
		c0.3-1.2,0.2-2.6-0.5-3.8l0,0c-0.6-1-1.4-1.7-2.4-2.1c-1-0.4-2.1-0.5-3.2-0.3l-0.4-1.6c1.4-0.4,2.9-0.2,4.2,0.3
		c1.3,0.5,2.4,1.5,3.1,2.7l0,0l0.1,0.1c0.9,1.6,1.1,3.4,0.6,5c-0.4,1.6-1.5,3-3,3.9l0,0l-0.1,0.1c-0.1,0-0.2,0.1-0.2,0.1
		c0,0-0.1,0.1-0.3,0.1L93.5,20.1z"/>
	<path class="st1" d="M151.5,35.3c-2.4,0-2.4,0.6-2.4,1.6c0,0,0,1.8,1.5,1.8c0.1,0,0.3,0,0.4,0c1.6-0.3,2.9-1,3.9-1.9v-1.4H151.5z
		 M150,42.6c-3.2,0-5.6-2.4-5.6-5.7c0-1.7,0.4-3,1.4-4c1.1-1.1,2.8-1.7,5.1-1.7h4.1v-1.5c0-2.7-0.6-2.8-1.6-2.8h0
		c-2.7,0-5.7,1.5-5.7,1.5l-0.7,0.4l-1.5-3.8l0.7-0.3c0.2-0.1,4.5-2,7.5-2c4.1,0,6.1,1,6.1,6.8v12.8h-4.7v-1.2
		C153.5,42.2,151.9,42.6,150,42.6"/>
	<path class="st1" d="M167.8,42.4H163V23.2h4.7v1.7c1.5-1.1,3.8-2.2,6-2.2c4.9,0,5.4,3.8,5.4,6.6v13.1h-4.8V29.6
		c0-2.7-0.9-2.7-1.4-2.7c-1.1,0-4,1.4-5.3,2.7V42.4z"/>
	<polygon class="st1" points="199.8,42.4 193.9,42.4 188,34.7 187.3,35.5 187.3,42.4 182.6,42.4 182.6,14.5 187.3,14.5 187.3,29.2 
		193.2,22.7 199.2,22.7 191.4,31.1 	"/>
	<path class="st1" d="M11.8,42.6l-0.2,0C3,42.6,0,35.6,0,29.5c0-6.1,3-13.3,11.5-13.3l0.3,0c2.9,0,6.1,0.6,6.2,0.6l0.6,0.1v4.2
		L17.7,21c0,0-3.5-0.6-6.3-0.6c-4.7,0-6.3,4.7-6.3,9.1c0,4.4,1.7,9.1,6.3,9.1c2.8,0,6.3-0.6,6.3-0.6l0.9-0.2v4.2L18,42
		C17.9,42,14.7,42.6,11.8,42.6"/>
	<path class="st1" d="M29.2,38.9L29.2,38.9c1.4,0,2.4-0.7,3.2-2c0.6-1.1,0.9-2.6,0.9-4.1c0-2.2-0.9-6.2-4.1-6.2h-0.1
		c-1.4,0-2.4,0.7-3.1,2.1c-0.6,1.1-0.9,2.7-0.9,4.2C25,34.8,25.9,38.9,29.2,38.9L29.2,38.9z M29.2,42.7L29.2,42.7
		c-6.5,0-8.9-5.4-9-10c-0.1-3,1-5.9,2.7-7.6c1.6-1.6,3.6-2.4,6.1-2.4h0.1c2.5,0,4.6,0.8,6.1,2.4c1.8,1.8,2.8,4.7,2.7,7.6
		C38,37.3,35.6,42.7,29.2,42.7"/>
	<path class="st1" d="M67.1,42.4h-4.8V29.6c0-2.7-0.9-2.7-1.4-2.7c-1,0-3.3,1.1-4.7,2.2v13.3h-4.8V29.6c0-2.7-0.9-2.7-1.4-2.7
		c-1,0-3.1,1-4.6,2.1v13.4h-4.7V23.2h4.7v1.3c1.3-0.8,3.3-1.8,5.3-1.8c2.2,0,3.8,0.8,4.6,2.4c1.2-0.9,3.7-2.4,6.3-2.4
		c4.9,0,5.4,3.8,5.4,6.6V42.4z"/>
	<path class="st1" d="M128.8,27l2.7,0c3.2-0.1,4.7-1.1,4.6-3.4c0-2.5-1.9-2.8-4.8-2.9l-2.4,0V27z M128.8,38.3h2.5
		c2.4,0,4.1-0.5,5-1.4c0.5-0.5,0.8-1.2,0.8-2.1c0-3.3-4.1-3.8-6.6-3.8l-0.2,0c-0.5,0-1,0-1.4,0V38.3z M131.8,42.5
		c-0.2,0-0.4,0-0.7,0l-7.1,0l0-26h7.1c4.6,0.1,9.8,0.9,9.9,6.7c0.1,2.2-0.9,4.1-2.8,5.6c2.5,1.3,3.7,3.4,3.7,6.1
		C141.9,40.5,136.5,42.5,131.8,42.5"/>
	<polygon class="st0" points="8,59 6,59 2.6,54.8 2.6,59 1.1,59 1.1,49.8 2.6,49.8 2.6,53.5 5.7,49.8 7.7,49.8 4,54.1 	"/>
	<path class="st0" d="M11.6,57.9L11.6,57.9c0.5,0,1-0.3,1.2-0.8c0.2-0.4,0.4-1,0.4-1.5c0-0.8-0.3-2.4-1.6-2.4c-0.6,0-1,0.3-1.3,0.8
		c-0.2,0.4-0.4,1-0.4,1.6C10,56.4,10.3,57.9,11.6,57.9L11.6,57.9z M11.6,59.1L11.6,59.1c-2.3,0-3.2-1.9-3.2-3.6c0-1.1,0.3-2.1,1-2.7
		c0.5-0.6,1.3-0.8,2.2-0.8c0.9,0,1.7,0.3,2.2,0.8c0.6,0.6,1,1.7,1,2.7C14.7,57.2,13.8,59.1,11.6,59.1"/>
	<polygon class="st0" points="23.7,59 22.1,59 21.9,54.9 20.5,58.7 20.4,59 20.3,59 19,59 19,58.8 17.5,54.9 17.3,59 15.9,59 
		16.2,52 18,52 19.8,56.8 21.5,52 23.3,52 	"/>
	<path class="st0" d="M26.4,54.5h2.7v0c0-0.5-0.2-1.1-1.3-1.1h0C26.9,53.3,26.5,53.9,26.4,54.5 M27.8,59c-0.5,0-2.9-0.2-3-3.3
		c0-2.3,1.2-3.7,3.1-3.7c0.9,0,1.7,0.3,2.1,0.9c0.5,0.6,0.7,1.6,0.5,2.7l0,0.2h-4.2c0,0.9,0.2,1.3,0.5,1.6c0.3,0.3,0.7,0.5,1.3,0.5
		c1,0,1.8-0.6,1.8-0.6l0.3-0.2v1.4l-0.1,0.1c-1,0.5-2,0.6-2.2,0.6C27.9,59,27.9,59,27.8,59"/>
	<path class="st0" d="M33.3,57.6c0.4,0.2,0.8,0.3,1.2,0.3c0.5,0,0.8-0.1,1.1-0.4c0.4-0.4,0.6-1,0.5-2c0-2.1-0.8-2.1-1-2.1h0
		c-0.8,0-1.5,0.5-1.8,0.8V57.6z M33.3,62h-1.6V52h1.6v0.6c0.5-0.3,1.1-0.6,1.8-0.6c1.1,0,2.5,0.6,2.5,3.4c0,2.5-1.1,3.7-3.3,3.7
		c-0.5,0-0.8-0.1-1.1-0.1V62z"/>
	<polygon class="st0" points="45.8,61 44.5,61 44.5,59 38.9,59 38.9,52 40.4,52 40.4,57.7 43.1,57.7 43.1,52 44.7,52 44.7,57.7 
		45.8,57.7 	"/>
	<rect x="82.1" y="49.8" class="st0" width="1.5" height="9.2"/>
	<polygon class="st0" points="91,59 89.5,59 89.5,56.1 86.8,56.1 86.8,59 85.3,59 85.3,52.3 86.8,52.3 86.8,54.8 89.5,54.8 
		89.5,52.3 91,52.3 	"/>
	<path class="st0" d="M94,57.7h2.4v-4.2h-1.7v0.9c0,0.8-0.1,1.7-0.3,2.4C94.3,57.1,94.2,57.4,94,57.7 M98.5,61h-1.3l-0.1-2h-4.1
		l-0.1,2h-1.3l-0.1-3.3l0.6,0c0.2-0.4,0.4-0.8,0.6-1.2c0.2-0.8,0.4-1.6,0.4-2.5v-1.8H98v5.5l0.7,0L98.5,61z"/>
	<path class="st0" d="M99.5,61.9l-0.4-1.3l0.2-0.1c0.2,0,0.6-0.2,1-0.5c0.4-0.3,0.7-0.7,0.9-1.2c0-0.1,0.1-0.2,0.1-0.2
		c0-0.1-0.1-0.2-0.1-0.2l-2.5-6.1h1.7l1.4,3.9c0.1,0.2,0.2,0.5,0.2,0.7c0.1-0.2,0.2-0.5,0.2-0.8l1.3-3.9h1.6l-1.8,4.8
		c-0.8,2.1-1.4,3.3-2.3,4.1c-0.7,0.6-1.3,0.8-1.5,0.8L99.5,61.9z"/>
	<path class="st0" d="M108.7,59.1c-2,0-3.4-1.4-3.4-3.4c0-2.1,1.5-3.6,3.6-3.6c0.7,0,1.4,0.2,1.7,0.3l0.1,0.1l-0.4,1.3l-0.2-0.1
		c-0.2-0.1-0.6-0.3-1.3-0.3c-1.3,0-2.1,0.9-2.1,2.2c0,1.3,0.8,2.2,2,2.2c0.6,0,1-0.2,1.4-0.3l0.2-0.1l0.3,1.2l-0.1,0.1
		C110.3,58.9,109.6,59.1,108.7,59.1"/>
	<polygon class="st0" points="114.7,59 113.2,59 113.2,53.6 111.2,53.6 111.2,52.3 116.7,52.3 116.7,53.6 114.7,53.6 	"/>
	<path class="st0" d="M120.6,53.4c-0.7,0-1.4,0.5-1.6,1.3c0,0.1-0.1,0.3-0.1,0.4v1.1c0,0.2,0,0.3,0,0.4c0.2,0.7,0.8,1.2,1.6,1.2
		c1.1,0,1.8-0.9,1.8-2.3C122.3,54.5,121.8,53.4,120.6,53.4 M119,61.6h-1.5v-7.1c0-0.8,0-1.4-0.1-2.1l0-0.2h1.4l0,0.8
		c0.5-0.6,1.3-0.9,2.1-0.9c1.7,0,2.9,1.4,2.9,3.4c0,2.5-1.6,3.6-3.1,3.6c-0.7,0-1.4-0.2-1.8-0.7V61.6z"/>
	<path class="st0" d="M125.8,51.6c-0.5,0-0.9-0.4-0.9-0.9c0-0.5,0.4-0.9,0.9-0.9c0.5,0,0.9,0.4,0.9,0.9c0,0.2-0.1,0.5-0.2,0.6
		C126.3,51.5,126.1,51.6,125.8,51.6 M126.6,59H125v-6.7h1.6V59z"/>
	<path class="st0" d="M47.3,51.6c-0.5,0-0.9-0.4-0.9-0.9c0-0.5,0.4-0.9,0.9-0.9c0.5,0,0.9,0.4,0.9,0.9c0,0.2-0.1,0.5-0.2,0.6
		C47.9,51.5,47.6,51.6,47.3,51.6 M48.1,59h-1.6v-6.7h1.6V59z"/>
	<path class="st0" d="M134.1,59.1h-0.2l-0.2-1.3l0.2,0c0.2,0,0.4-0.1,0.5-0.2c0.5-0.4,0.6-1.1,0.6-2.6v-2.8h4.8V59h-1.5v-5.5h-1.8
		V55c0,1.8-0.2,3.1-1.1,3.7C135.1,59,134.7,59.1,134.1,59.1"/>
	<path class="st0" d="M143,57.8c0.2,0,0.4,0,0.7,0c0.4,0,1.8-0.1,1.8-1.2c0-1-1.1-1.1-1.8-1.1c-0.2,0-0.4,0-0.6,0V57.8z M143.4,59.1
		c-0.7,0-1.4-0.1-1.7-0.1l-0.2,0v-6.7h1.5v2.1c0.3,0,0.6,0,0.9,0c2,0,3.2,0.8,3.2,2.3c0,0.7-0.2,1.2-0.7,1.6
		C145.5,58.9,144.3,59.1,143.4,59.1"/>
	<path class="st0" d="M165.7,51.7c-1.1,0-1.8-0.6-1.9-1.8l0-0.2h1.2l0,0.2c0,0.2,0.1,0.8,0.7,0.8c0.2,0,0.6,0,0.7-0.8l0-0.2h1.2
		l0,0.2C167.6,51,166.8,51.7,165.7,51.7 M168.6,59h-1.5v-2.9c0-0.7,0-1.2,0-1.8c-0.2,0.4-0.4,0.8-0.7,1.3c-0.3,0.5-0.6,1-1,1.6
		c-0.3,0.6-0.7,1.2-1,1.7l-0.1,0.1h-1.6v-6.7h1.5v2.9c0,0.7,0,1.2,0,1.7c0.2-0.4,0.4-0.8,0.7-1.2l2.1-3.4h1.7V59z"/>
	<path class="st0" d="M74.7,51.7c-1.1,0-1.8-0.6-1.9-1.8l0-0.2H74l0,0.2c0,0.2,0.1,0.8,0.7,0.8c0.2,0,0.6,0,0.7-0.8l0-0.2h1.2l0,0.2
		C76.6,51,75.8,51.7,74.7,51.7 M77.7,59h-1.5v-2.9c0-0.7,0-1.2,0-1.8c-0.2,0.4-0.4,0.8-0.7,1.3c-0.3,0.5-0.6,1-1,1.6
		c-0.3,0.6-0.7,1.2-1,1.7L73.4,59h-1.6v-6.7h1.5v2.9c0,0.7,0,1.2,0,1.7c0.2-0.4,0.4-0.8,0.7-1.2l2.1-3.4h1.7V59z"/>
	<path class="st0" d="M52.6,51.7c-1.1,0-1.8-0.6-1.9-1.8l0-0.2H52l0,0.2c0,0.2,0.1,0.8,0.7,0.8c0.2,0,0.6,0,0.7-0.8l0-0.2h1.2l0,0.2
		C54.5,51,53.8,51.7,52.6,51.7 M55.6,59h-1.5v-2.9c0-0.7,0-1.2,0-1.8c-0.2,0.4-0.4,0.8-0.7,1.3c-0.3,0.5-0.6,1-1,1.6
		c-0.3,0.6-0.7,1.2-1,1.7L51.4,59h-1.6v-6.7h1.5v2.9c0,0.7,0,1.2,0,1.7c0.2-0.4,0.4-0.8,0.7-1.2l2.1-3.4h1.7V59z"/>
	<path class="st0" d="M174.7,57.8c0.2,0,0.4,0,0.8,0c0.7,0,1.4-0.2,1.7-0.6c0.3-0.3,0.4-0.7,0.4-1.2c0-0.6-0.2-1-0.6-1.3
		c-0.4-0.3-0.9-0.4-1.6-0.4c-0.2,0-0.4,0-0.7,0V57.8z M175.1,59.1c-0.9,0-1.5-0.1-1.8-0.1l-0.2,0v-9.2h5.4v1.3h-3.8v2
		c0.3,0,0.7,0,0.9,0c0.9,0,1.8,0.2,2.4,0.6c0.8,0.5,1.2,1.3,1.2,2.3c0,0.8-0.3,1.5-0.8,2.1C177.7,58.7,176.5,59.1,175.1,59.1"/>
	<path class="st0" d="M183.7,55.8c-1.5,0-2.3,0.4-2.3,1.2c0,0.6,0.3,0.9,0.9,0.9c0.8,0,1.2-0.5,1.4-0.9c0-0.1,0.1-0.2,0.1-0.3V55.8z
		 M182,59.1c-1.4,0-2.2-1-2.2-2c0-1.6,1.4-2.5,3.8-2.6c0-0.8-0.4-1.2-1.3-1.2c-0.5,0-1.1,0.2-1.6,0.4l-0.2,0.1l-0.4-1.1l0.1-0.1
		c0.6-0.4,1.4-0.6,2.2-0.6c1.7,0,2.6,1,2.6,2.8v2.4c0,0.6,0,1.1,0.1,1.5l0,0.2h-1.5l-0.1-0.6C183.4,58.9,182.7,59.1,182,59.1"/>
	<polygon class="st0" points="192.5,59 191,59 191,56.1 188.3,56.1 188.3,59 186.8,59 186.8,52.3 188.3,52.3 188.3,54.8 191,54.8 
		191,52.3 192.5,52.3 	"/>
	<path class="st0" d="M199.9,59h-1.7l-0.1-0.1c-0.2-0.3-0.4-0.8-0.6-1.3c-0.4-1-1-1.4-1.9-1.4h0V59h-1.5v-6.7h1.5V55l2.4-2.8h2
		l-2.9,2.9c0.8,0.2,1.4,0.8,1.9,2l0.1,0.3c0.2,0.4,0.3,0.9,0.6,1.3L199.9,59z"/>
	<path class="st0" d="M161.2,59h-1.5v-2.9c0-0.7,0-1.2,0-1.8c-0.2,0.4-0.4,0.8-0.7,1.3c-0.3,0.5-0.6,1-1,1.6c-0.3,0.6-0.7,1.2-1,1.7
		L157,59h-1.6v-6.7h1.5v2.9c0,0.7,0,1.2,0,1.7c0.2-0.4,0.4-0.8,0.7-1.2l2.1-3.4h1.7V59z"/>
	<path class="st0" d="M70.3,59h-1.5v-2.9c0-0.7,0-1.2,0-1.8c-0.2,0.4-0.4,0.8-0.7,1.3c-0.3,0.5-0.6,1-1,1.6c-0.3,0.6-0.7,1.2-1,1.7
		L66,59h-1.6v-6.7h1.5v2.9c0,0.7,0,1.2,0,1.7c0.2-0.4,0.4-0.8,0.7-1.2l2.1-3.4h1.7V59z"/>
	<polygon class="st0" points="153.8,59 152.3,59 152.3,56.1 149.6,56.1 149.6,59 148.1,59 148.1,52.3 149.6,52.3 149.6,54.8 
		152.3,54.8 152.3,52.3 153.8,52.3 	"/>
	<polygon class="st0" points="62.9,59 61.3,59 61.3,56.1 58.7,56.1 58.7,59 57.1,59 57.1,52.3 58.7,52.3 58.7,54.8 61.3,54.8 
		61.3,52.3 62.9,52.3 	"/>
	<path class="st0" d="M131.6,55.8c-1.5,0-2.3,0.4-2.3,1.2c0,0.6,0.3,0.9,0.9,0.9c0.8,0,1.2-0.5,1.4-0.9c0-0.1,0.1-0.2,0.1-0.3V55.8z
		 M129.8,59.1c-1.4,0-2.2-1-2.2-2c0-1.6,1.4-2.5,3.8-2.6c0-0.8-0.4-1.2-1.3-1.2c-0.5,0-1.1,0.2-1.6,0.4l-0.2,0.1l-0.4-1.1l0.1-0.1
		c0.6-0.4,1.4-0.6,2.2-0.6c1.7,0,2.6,1,2.6,2.8v2.4c0,0.6,0,1.1,0.1,1.5l0,0.2h-1.5l-0.1-0.6C131.2,58.9,130.6,59.1,129.8,59.1"/>
</g>
</svg>
