<svg width="149" height="123" viewBox="0 0 149 123" fill="none" xmlns="http://www.w3.org/2000/svg">
<g id="LogoFinal(c) 1">
<path id="Vector" d="M69.7317 20.7434C69.7189 20.7331 69.7087 20.7204 69.6959 20.7127C71.1533 19.7821 72.6796 18.9487 74.2776 18.2099C79.1379 15.9627 84.8035 14.8379 91.2822 14.8379H134.537V40.5177H91.2822C87.6492 40.5177 84.6476 41.093 82.2775 42.2408C81.8505 42.4479 81.4338 42.6652 81.0273 42.9004C80.6259 40.4589 80.0097 38.0686 79.189 35.7243C77.5706 31.1252 75.3488 27.1167 72.5211 23.6884C71.6493 22.6326 70.7212 21.6535 69.7317 20.7434ZM112.47 64.1703C112.467 71.6813 112.462 79.1922 112.459 86.7031C103.514 87.0943 96.3445 86.9486 91.2822 86.7134C88.3241 86.5753 85.072 86.4194 81.6843 84.4918C79.0765 83.009 76.9033 81.1198 75.1673 78.8241C74.4028 77.8526 73.7202 76.807 73.1219 75.6924C70.5371 78.9621 67.4256 81.6157 63.7874 83.6533C60.8906 85.2766 57.5311 86.3503 53.7088 86.8719C53.6884 86.8744 53.6654 86.877 53.6449 86.8795C55.1457 90.1953 56.9482 93.2477 59.0498 96.0394C62.7621 100.917 67.2671 104.77 72.5594 107.59C77.8518 110.412 84.0928 111.821 91.2822 111.821C105.725 111.841 120.168 111.861 134.611 111.884C134.626 109.806 134.641 107.73 134.657 105.652C134.657 91.8238 134.657 77.9983 134.657 64.1703C127.26 64.1703 119.864 64.1703 112.47 64.1703ZM78.1126 44.9175C77.7726 41.9698 77.1104 39.0989 76.1286 36.3047C74.6227 32.0226 72.5543 28.2901 69.9209 25.0996C69.1104 24.1179 68.2463 23.2053 67.3259 22.3591C65.3418 20.5261 63.1022 19.0024 60.6094 17.7881C56.9584 16.0113 52.4254 15.1242 47.0077 15.1242H13.8395V39.5846H47.4602C49.6411 39.5846 51.4282 39.9477 52.8216 40.6763C52.9648 40.7504 53.1029 40.8271 53.2384 40.9089C54.4349 41.6145 55.4065 42.5374 56.1505 43.6827C57.4288 45.687 58.0706 48.0108 58.0706 50.6516C58.0706 53.111 57.4672 55.2968 56.263 57.209C55.4346 58.5767 54.325 59.6479 52.9341 60.4225C51.8194 61.0412 50.4311 61.4119 48.7667 61.5346C48.35 61.5678 47.9128 61.5832 47.4602 61.5832H13.8395V84.2668H47.0077C48.9073 84.2668 50.7072 84.1492 52.41 83.914C55.969 83.4283 59.0958 82.4287 61.7931 80.9178C65.6998 78.732 68.9545 75.7793 71.5598 72.0647C71.6186 71.988 71.6723 71.9088 71.726 71.8321C73.8327 68.7362 75.469 65.2952 76.6348 61.5141C77.8007 57.7356 78.3862 53.7936 78.3862 49.6955C78.3862 48.0798 78.2941 46.4871 78.1126 44.9175Z" fill="url(#paint0_linear_309_42)"/>
<g id="Layer_4">
<g id="Group">
<path id="Vector_2" d="M81.5846 104.593C80.3165 104.593 79.2478 104.182 78.3811 103.359C77.5144 102.535 77.0823 101.464 77.0823 100.143C77.0823 98.8234 77.5144 97.7522 78.3811 96.9341C79.2478 96.1161 80.314 95.707 81.5846 95.707C83.0599 95.707 84.2129 96.3027 85.0439 97.494L83.809 98.1894C83.5687 97.8545 83.2542 97.5809 82.863 97.3662C82.4718 97.1514 82.0474 97.0441 81.5821 97.0441C80.7333 97.0441 80.0276 97.3355 79.4677 97.9184C78.9052 98.5013 78.6265 99.2426 78.6265 100.143C78.6265 101.042 78.9078 101.786 79.4677 102.374C80.0302 102.962 80.7333 103.256 81.5821 103.256C81.986 103.256 82.3696 103.18 82.7326 103.024C83.0957 102.87 83.3897 102.689 83.6147 102.484V101.147H81.0554V99.823H85.1206V103.039C84.1874 104.077 83.0087 104.593 81.5846 104.593Z" fill="#181818"/>
<path id="Vector_3" d="M96.2218 104.428H94.5114L93.8824 102.781H89.9451L89.3136 104.428H87.6031L90.9729 95.8506H92.8495L96.2218 104.428ZM93.4554 101.457L91.9112 97.3666L90.3669 101.457H93.4554Z" fill="#181818"/>
<path id="Vector_4" d="M107.886 104.428H106.38V98.0619L103.744 104.428H103.099L100.479 98.0619V104.428H98.9728V95.8506H101.095L103.424 101.495L105.766 95.8506H107.888V104.428H107.886Z" fill="#181818"/>
<path id="Vector_5" d="M117.402 104.428H111.524V95.8506H117.402V97.1748H113.03V99.399H117.312V100.723H113.03V103.103H117.402V104.428Z" fill="#181818"/>
<path id="Vector_6" d="M123.947 104.58C122.472 104.58 121.311 104.125 120.462 103.218L121.298 102.06C122.034 102.85 122.939 103.243 124.011 103.243C124.586 103.243 125.015 103.128 125.304 102.896C125.591 102.663 125.736 102.39 125.736 102.073C125.736 101.748 125.565 101.487 125.223 101.295C124.88 101.104 124.463 100.95 123.975 100.838C123.487 100.725 122.996 100.592 122.502 100.439C122.009 100.286 121.592 100.022 121.247 99.6541C120.904 99.286 120.733 98.8105 120.733 98.2276C120.733 97.5067 121.022 96.9085 121.6 96.433C122.178 95.9575 122.932 95.7197 123.857 95.7197C125.177 95.7197 126.25 96.1185 127.074 96.9162L126.212 98.0359C125.56 97.384 124.732 97.0593 123.729 97.0593C123.285 97.0593 122.929 97.1565 122.668 97.3482C122.408 97.5399 122.277 97.8007 122.277 98.1254C122.277 98.3401 122.369 98.5191 122.553 98.6648C122.737 98.8105 122.975 98.9281 123.267 99.0176C123.558 99.1071 123.883 99.1965 124.238 99.2809C124.594 99.3678 124.949 99.4726 125.304 99.5953C125.66 99.7206 125.984 99.8714 126.276 100.053C126.567 100.232 126.805 100.482 126.989 100.799C127.173 101.116 127.265 101.495 127.265 101.932C127.265 102.704 126.987 103.338 126.429 103.834C125.872 104.333 125.044 104.58 123.947 104.58Z" fill="#181818"/>
</g>
<g id="Group_2">
<path id="Vector_7" d="M15.0002 104.984H13.4202V95.9805H17.3754C18.2856 95.9805 19.0015 96.2515 19.5282 96.7909C20.0548 97.3303 20.3182 98.0026 20.3182 98.8028C20.3182 99.5953 20.0548 100.263 19.5282 100.807C19.0015 101.352 18.283 101.623 17.3754 101.623H15.0002V104.984ZM17.1581 100.232C17.6081 100.232 17.9762 100.102 18.2651 99.8408C18.5541 99.58 18.6972 99.2323 18.6972 98.8003C18.6972 98.3682 18.5541 98.0231 18.2651 97.7598C17.9762 97.499 17.6081 97.3686 17.1581 97.3686H14.9977V100.232H17.1581Z" fill="#3A7BD4"/>
<path id="Vector_8" d="M32.5725 104.984H30.7777L30.1155 103.256H25.9839L25.3217 104.984H23.5269L27.0653 95.9805H29.0366L32.5725 104.984ZM29.6706 101.865L28.0497 97.5732L26.4287 101.865H29.6706Z" fill="#3A7BD4"/>
<path id="Vector_9" d="M40.5341 104.984H38.954V101.244L35.4565 95.9775H37.2666L39.7517 99.8378L42.2087 95.9775H44.0189L40.5367 101.244V104.984H40.5341Z" fill="#3A7BD4"/>
</g>
</g>
</g>
<defs>
<linearGradient id="paint0_linear_309_42" x1="13.8383" y1="63.3614" x2="134.656" y2="63.3614" gradientUnits="userSpaceOnUse">
<stop stop-color="#3A7BD4"/>
<stop offset="1" stop-color="#01D0FE"/>
</linearGradient>
</defs>
</svg>
