<?xml version="1.0" encoding="UTF-8" standalone="no"?>
<svg
   xmlns:dc="http://purl.org/dc/elements/1.1/"
   xmlns:cc="http://creativecommons.org/ns#"
   xmlns:rdf="http://www.w3.org/1999/02/22-rdf-syntax-ns#"
   xmlns:svg="http://www.w3.org/2000/svg"
   xmlns="http://www.w3.org/2000/svg"
   xmlns:sodipodi="http://sodipodi.sourceforge.net/DTD/sodipodi-0.dtd"
   xmlns:inkscape="http://www.inkscape.org/namespaces/inkscape"
   width="43.932201"
   height="38.3587"
   viewBox="0 0 43.932201 38.3587"
   version="1.1"
   id="svg27"
   sodipodi:docname="paymtech_icon.svg"
   style="fill:none"
   inkscape:version="0.92.5 (2060ec1f9f, 2020-04-08)">
  <metadata
     id="metadata31">
    <rdf:RDF>
      <cc:Work
         rdf:about="">
        <dc:format>image/svg+xml</dc:format>
        <dc:type
           rdf:resource="http://purl.org/dc/dcmitype/StillImage" />
        <dc:title></dc:title>
      </cc:Work>
    </rdf:RDF>
  </metadata>
  <sodipodi:namedview
     pagecolor="#ffffff"
     bordercolor="#666666"
     borderopacity="1"
     objecttolerance="10"
     gridtolerance="10"
     guidetolerance="10"
     inkscape:pageopacity="0"
     inkscape:pageshadow="2"
     inkscape:window-width="1920"
     inkscape:window-height="960"
     id="namedview29"
     showgrid="false"
     inkscape:zoom="1.7093596"
     inkscape:cx="104.71758"
     inkscape:cy="-50.701729"
     inkscape:window-x="0"
     inkscape:window-y="27"
     inkscape:window-maximized="1"
     inkscape:current-layer="svg27" />
  <path
     d="m 10.983,32.8789 c 0,1.516 -0.54,2.8129 -1.61996,3.8906 -1.06169,1.0595 -2.3522,1.5892 -3.87152,1.5892 -1.51932,0 -2.81898,-0.5297 -3.89898,-1.5892 C 0.530847,35.6918 0,34.3949 0,32.8789 V 5.47981 C 0,3.96373 0.530847,2.67597 1.59254,1.61654 2.67254,0.538848 3.9722,0 5.49152,0 H 38.4406 c 1.5194,0 2.8099,0.538848 3.8716,1.61654 1.08,1.05943 1.62,2.34719 1.62,3.86327 V 24.6591 c 0,1.5161 -0.54,2.813 -1.62,3.8907 -1.0617,1.0594 -2.3522,1.5892 -3.8716,1.5892 H 21.9661 c -1.5193,0 -2.819,-0.5298 -3.899,-1.5892 -1.0617,-1.0777 -1.5925,-2.3746 -1.5925,-3.8907 0,-1.516 0.5308,-2.8038 1.5925,-3.8632 1.08,-1.0777 2.3797,-1.6166 3.899,-1.6166 h 10.1227 c 1.294,0 2.343,-1.0467 2.343,-2.338 v -4.6487 c 0,-1.2913 -1.049,-2.33807 -2.343,-2.33807 H 13.3261 c -1.294,0 -2.3431,1.04677 -2.3431,2.33807 z"
     id="path2"
     inkscape:connector-curvature="0"
     style="fill:url(#paint0_linear_5_36)" />
  <defs
     id="defs25">
    <linearGradient
       id="paint0_linear_5_36"
       x1="21.966101"
       y1="0"
       x2="21.966101"
       y2="64.799896"
       gradientUnits="userSpaceOnUse">
      <stop
         stop-color="#077BF7"
         id="stop20" />
      <stop
         offset="1"
         stop-color="#077BF7"
         stop-opacity="0"
         id="stop22" />
    </linearGradient>
  </defs>
</svg>
