<svg width="203" height="39" viewBox="0 0 203 39" fill="none" xmlns="http://www.w3.org/2000/svg">
<path d="M10.983 32.8789C10.983 34.3949 10.443 35.6918 9.36304 36.7695C8.30135 37.829 7.01084 38.3587 5.49152 38.3587C3.9722 38.3587 2.67254 37.829 1.59254 36.7695C0.530847 35.6918 0 34.3949 0 32.8789V5.47981C0 3.96373 0.530847 2.67597 1.59254 1.61654C2.67254 0.538848 3.9722 0 5.49152 0H38.4406C39.96 0 41.2505 0.538848 42.3122 1.61654C43.3922 2.67597 43.9322 3.96373 43.9322 5.47981V24.6591C43.9322 26.1752 43.3922 27.4721 42.3122 28.5498C41.2505 29.6092 39.96 30.139 38.4406 30.139H21.9661C20.4468 30.139 19.1471 29.6092 18.0671 28.5498C17.0054 27.4721 16.4746 26.1752 16.4746 24.6591C16.4746 23.1431 17.0054 21.8553 18.0671 20.7959C19.1471 19.7182 20.4468 19.1793 21.9661 19.1793H32.0888C33.3828 19.1793 34.4318 18.1326 34.4318 16.8413V12.1926C34.4318 10.9013 33.3828 9.85453 32.0888 9.85453H13.3261C12.0321 9.85453 10.983 10.9013 10.983 12.1926V32.8789Z" fill="url(#paint0_linear_5_36)"/>
<path d="M53.9322 27.1658V2.96884C53.9322 2.87159 53.9407 2.77721 53.9579 2.68568C53.9808 2.59416 54.0466 2.51121 54.1553 2.43685C54.2697 2.36248 54.447 2.30528 54.6872 2.26524C54.9332 2.21948 55.2822 2.19659 55.7341 2.19659H66.8029C67.4379 2.19659 68.0471 2.27954 68.6306 2.44543C69.214 2.6056 69.7603 2.83441 70.2694 3.13187C70.7785 3.42933 71.2419 3.78685 71.6595 4.20443C72.0771 4.62201 72.4346 5.08536 72.732 5.59447C73.0295 6.10358 73.2583 6.64987 73.4185 7.23335C73.5844 7.81682 73.6673 8.42604 73.6673 9.06099V11.6351C73.6673 12.2644 73.5844 12.8736 73.4185 13.4628C73.2583 14.0463 73.0295 14.5926 72.732 15.1017C72.4346 15.6108 72.0771 16.0741 71.6595 16.4917C71.2419 16.9093 70.7785 17.2668 70.2694 17.5643C69.7603 17.8617 69.2112 18.0934 68.622 18.2593C68.0385 18.4195 67.4321 18.4995 66.8029 18.4995H60.8824C60.4305 18.4995 60.0815 18.5224 59.8355 18.5682C59.5953 18.6082 59.418 18.6654 59.3036 18.7398C59.1949 18.8142 59.1291 18.8971 59.1062 18.9886C59.089 19.0802 59.0805 19.1745 59.0805 19.2718V27.1658C59.0805 27.2631 59.069 27.3575 59.0461 27.449C59.029 27.5405 58.9632 27.6235 58.8488 27.6978C58.7401 27.7722 58.5628 27.8323 58.3168 27.878C58.0765 27.9181 57.7305 27.9381 57.2786 27.9381H55.7341C55.2822 27.9381 54.9332 27.9181 54.6872 27.878C54.447 27.8323 54.2697 27.7722 54.1553 27.6978C54.0466 27.6235 53.9808 27.5405 53.9579 27.449C53.9407 27.3575 53.9322 27.2631 53.9322 27.1658ZM59.0805 12.579C59.0805 12.6762 59.089 12.7706 59.1062 12.8622C59.1291 12.9537 59.1949 13.0366 59.3036 13.111C59.418 13.1854 59.5953 13.2454 59.8355 13.2912C60.0815 13.3312 60.4305 13.3512 60.8824 13.3512H66.8029C67.0374 13.3512 67.2577 13.3055 67.4636 13.214C67.6753 13.1224 67.8583 12.9994 68.0128 12.845C68.1672 12.6905 68.2902 12.5104 68.3817 12.3044C68.4732 12.0928 68.519 11.8697 68.519 11.6351V9.06099C68.519 8.82646 68.4704 8.60623 68.3731 8.40029C68.2759 8.18864 68.1472 8.00559 67.987 7.85114C67.8268 7.69669 67.6438 7.57371 67.4379 7.48218C67.2319 7.39066 67.0203 7.34489 66.8029 7.34489H60.8824C60.4305 7.34489 60.0815 7.36777 59.8355 7.41354C59.5953 7.45358 59.418 7.51078 59.3036 7.58515C59.1949 7.65951 59.1291 7.74246 59.1062 7.83398C59.089 7.92551 59.0805 8.01989 59.0805 8.11714V12.579Z" fill="#011D3C"/>
<path d="M73.2554 21.9317C73.2554 21.3769 73.3269 20.8449 73.47 20.3358C73.613 19.8267 73.8132 19.349 74.0706 18.9028C74.3337 18.4566 74.6483 18.0505 75.0144 17.6844C75.3805 17.3183 75.7867 17.0065 76.2329 16.7491C76.6791 16.486 77.1567 16.2829 77.6658 16.1399C78.1806 15.9969 78.7126 15.9254 79.2618 15.9254H83.552C83.8495 15.9254 84.1412 15.9426 84.4272 15.9769C84.7133 16.0055 84.9936 16.0512 85.2681 16.1142V15.9254C85.2681 15.6909 85.2224 15.4706 85.1309 15.2647C85.0393 15.053 84.9163 14.87 84.7619 14.7155C84.6074 14.5611 84.4244 14.4381 84.2127 14.3466C84.0068 14.2551 83.7866 14.2093 83.552 14.2093H77.4599C77.3626 14.2093 77.2683 14.2007 77.1767 14.1836C77.0852 14.1607 77.0023 14.0949 76.9279 13.9862C76.8535 13.8718 76.7935 13.6945 76.7477 13.4542C76.7077 13.2082 76.6876 12.8593 76.6876 12.4074V10.8629C76.6876 10.411 76.7077 10.0649 76.7477 9.82466C76.7935 9.57868 76.8535 9.40135 76.9279 9.29267C77.0023 9.17826 77.0852 9.11248 77.1767 9.09531C77.2683 9.07243 77.3626 9.06099 77.4599 9.06099H83.552C84.187 9.06099 84.7962 9.14394 85.3797 9.30983C85.9632 9.47 86.5095 9.69881 87.0186 9.99627C87.5277 10.2937 87.991 10.6512 88.4086 11.0688C88.8262 11.4864 89.1837 11.9498 89.4812 12.4589C89.7786 12.968 90.0074 13.5171 90.1676 14.1063C90.3335 14.6898 90.4164 15.2962 90.4164 15.9254V21.9317C90.4164 22.4809 90.3449 23.0129 90.2019 23.5277C90.0589 24.0368 89.8558 24.5145 89.5927 24.9607C89.3353 25.4068 89.0235 25.813 88.6574 26.1791C88.2913 26.5452 87.8852 26.8598 87.439 27.1229C86.9928 27.3804 86.5123 27.5806 85.9975 27.7236C85.4884 27.8666 84.9592 27.9381 84.4101 27.9381H79.2618C78.7126 27.9381 78.1806 27.8666 77.6658 27.7236C77.1567 27.5806 76.6791 27.3804 76.2329 27.1229C75.7867 26.8598 75.3805 26.5452 75.0144 26.1791C74.6483 25.813 74.3337 25.4068 74.0706 24.9607C73.8132 24.5145 73.613 24.0368 73.47 23.5277C73.3269 23.0129 73.2554 22.4809 73.2554 21.9317ZM78.4037 21.9317C78.4037 22.1091 78.4266 22.2778 78.4724 22.438C78.5181 22.5924 78.5782 22.7269 78.6526 22.8413C78.7327 22.9557 78.8242 23.0472 78.9272 23.1158C79.0301 23.1845 79.1417 23.2188 79.2618 23.2188H84.4101C84.5302 23.2188 84.6418 23.1845 84.7447 23.1158C84.8477 23.0472 84.9364 22.9557 85.0107 22.8413C85.0908 22.7269 85.1537 22.5924 85.1995 22.438C85.2453 22.2778 85.2681 22.1091 85.2681 21.9317C85.2681 21.7544 85.2453 21.5885 85.1995 21.4341C85.1537 21.2739 85.0908 21.1366 85.0107 21.0222C84.9364 20.9078 84.8477 20.8163 84.7447 20.7476C84.6418 20.679 84.5302 20.6447 84.4101 20.6447H79.2618C79.1417 20.6447 79.0301 20.679 78.9272 20.7476C78.8242 20.8163 78.7327 20.9078 78.6526 21.0222C78.5782 21.1366 78.5181 21.2739 78.4724 21.4341C78.4266 21.5885 78.4037 21.7544 78.4037 21.9317Z" fill="#011D3C"/>
<path d="M96.2512 27.0972L91.0771 9.83324C91.0485 9.74171 91.0285 9.65019 91.0171 9.55866C91.0114 9.46714 91.0543 9.38419 91.1458 9.30983C91.2373 9.23546 91.3975 9.1754 91.6263 9.12964C91.8551 9.08387 92.1955 9.06099 92.6474 9.06099H94.1919C94.6438 9.06099 94.9984 9.08387 95.2558 9.12964C95.5133 9.1754 95.7106 9.23546 95.8479 9.30983C95.9852 9.38419 96.0767 9.46714 96.1225 9.55866C96.1682 9.65019 96.2054 9.74171 96.234 9.83324L99.0827 19.3404L101.94 9.83324C101.969 9.74171 102.006 9.65019 102.052 9.55866C102.097 9.46714 102.186 9.38419 102.318 9.30983C102.455 9.23546 102.652 9.1754 102.91 9.12964C103.167 9.08387 103.522 9.06099 103.974 9.06099H105.518C105.97 9.06099 106.31 9.08387 106.539 9.12964C106.768 9.1754 106.925 9.23546 107.011 9.30983C107.103 9.38419 107.143 9.46714 107.131 9.55866C107.126 9.65019 107.108 9.74171 107.08 9.83324L99.5976 34.8883C99.569 34.9798 99.5318 35.0713 99.486 35.1629C99.4403 35.2544 99.3487 35.3373 99.2114 35.4117C99.0799 35.4861 98.8854 35.5461 98.628 35.5919C98.3706 35.6377 98.0159 35.6605 97.564 35.6605H96.0195C95.5676 35.6605 95.2272 35.6377 94.9984 35.5919C94.7696 35.5461 94.6094 35.4861 94.5179 35.4117C94.4321 35.3373 94.3921 35.2544 94.3978 35.1629C94.4092 35.0713 94.4293 34.9798 94.4579 34.8883L96.2598 28.7447C96.3341 28.493 96.3684 28.2184 96.3627 27.9209C96.3627 27.6178 96.3255 27.3432 96.2512 27.0972Z" fill="#011D3C"/>
<path d="M108.865 27.1658V9.83324C108.865 9.73599 108.87 9.64161 108.882 9.55008C108.899 9.45856 108.953 9.37561 109.045 9.30125C109.142 9.22688 109.291 9.16968 109.491 9.12964C109.697 9.08387 109.989 9.06099 110.366 9.06099H111.01C111.17 9.06099 111.33 9.06957 111.49 9.08673C111.656 9.1039 111.825 9.16682 111.996 9.27551C112.174 9.38419 112.357 9.5558 112.546 9.79034C112.74 10.0191 112.943 10.3481 113.155 10.7771C113.263 10.554 113.418 10.3566 113.618 10.185C113.824 10.0134 114.053 9.8647 114.305 9.73885C114.556 9.61301 114.825 9.50718 115.111 9.42137C115.397 9.33557 115.68 9.26692 115.961 9.21544C116.247 9.15824 116.515 9.1182 116.767 9.09531C117.025 9.07243 117.251 9.06099 117.445 9.06099C117.639 9.06099 117.863 9.07243 118.114 9.09531C118.372 9.1182 118.641 9.15824 118.921 9.21544C119.207 9.26692 119.493 9.33557 119.779 9.42137C120.065 9.50718 120.334 9.61301 120.585 9.73885C120.837 9.8647 121.063 10.0134 121.263 10.185C121.469 10.3566 121.627 10.554 121.735 10.7771C121.844 10.554 121.998 10.3566 122.199 10.185C122.405 10.0134 122.633 9.8647 122.885 9.73885C123.137 9.61301 123.406 9.50718 123.692 9.42137C123.978 9.33557 124.261 9.26692 124.541 9.21544C124.827 9.15824 125.096 9.1182 125.348 9.09531C125.605 9.07243 125.831 9.06099 126.026 9.06099H127.742C128.377 9.06099 128.986 9.14394 129.569 9.30983C130.153 9.47 130.699 9.69881 131.208 9.99627C131.717 10.2937 132.181 10.6512 132.598 11.0688C133.016 11.4864 133.373 11.9498 133.671 12.4589C133.968 12.968 134.197 13.5171 134.357 14.1063C134.523 14.6898 134.606 15.2962 134.606 15.9254V27.1658C134.606 27.2631 134.595 27.3575 134.572 27.449C134.555 27.5405 134.489 27.6235 134.374 27.6978C134.266 27.7722 134.088 27.8323 133.842 27.878C133.602 27.9181 133.256 27.9381 132.804 27.9381H131.26C130.808 27.9381 130.459 27.9181 130.213 27.878C129.973 27.8323 129.795 27.7722 129.681 27.6978C129.572 27.6235 129.506 27.5405 129.483 27.449C129.466 27.3575 129.458 27.2631 129.458 27.1658V15.9254C129.458 15.6909 129.412 15.4706 129.32 15.2647C129.229 15.053 129.106 14.87 128.951 14.7155C128.797 14.5611 128.614 14.4381 128.402 14.3466C128.196 14.2551 127.976 14.2093 127.742 14.2093H126.026C125.791 14.2093 125.568 14.2551 125.356 14.3466C125.15 14.4381 124.97 14.5611 124.816 14.7155C124.661 14.87 124.538 15.053 124.447 15.2647C124.355 15.4706 124.309 15.6909 124.309 15.9254V27.1658C124.309 27.2631 124.298 27.3575 124.275 27.449C124.258 27.5405 124.192 27.6235 124.078 27.6978C123.969 27.7722 123.792 27.8323 123.546 27.878C123.305 27.9181 122.959 27.9381 122.507 27.9381H120.963C120.511 27.9381 120.162 27.9181 119.916 27.878C119.676 27.8323 119.499 27.7722 119.384 27.6978C119.276 27.6235 119.21 27.5405 119.187 27.449C119.17 27.3575 119.161 27.2631 119.161 27.1658V15.9254C119.161 15.6909 119.115 15.4706 119.024 15.2647C118.932 15.053 118.809 14.87 118.655 14.7155C118.5 14.5611 118.317 14.4381 118.106 14.3466C117.9 14.2551 117.68 14.2093 117.445 14.2093H115.729C115.494 14.2093 115.271 14.2551 115.06 14.3466C114.854 14.4381 114.674 14.5611 114.519 14.7155C114.365 14.87 114.242 15.053 114.15 15.2647C114.059 15.4706 114.013 15.6909 114.013 15.9254V27.1658C114.013 27.2631 114.001 27.3575 113.978 27.449C113.961 27.5405 113.896 27.6235 113.781 27.6978C113.672 27.7722 113.495 27.8323 113.249 27.878C113.009 27.9181 112.663 27.9381 112.211 27.9381H110.666C110.215 27.9381 109.866 27.9181 109.62 27.878C109.379 27.8323 109.202 27.7722 109.088 27.6978C108.979 27.6235 108.913 27.5405 108.89 27.449C108.873 27.3575 108.865 27.2631 108.865 27.1658Z" fill="#011D3C"/>
<path d="M137.197 21.0737V2.96884C137.197 2.87159 137.206 2.77721 137.223 2.68568C137.246 2.59416 137.312 2.51121 137.42 2.43685C137.535 2.36248 137.712 2.30528 137.952 2.26524C138.198 2.21948 138.547 2.19659 138.999 2.19659H140.544C140.996 2.19659 141.342 2.21948 141.582 2.26524C141.828 2.30528 142.005 2.36248 142.114 2.43685C142.228 2.51121 142.294 2.59416 142.311 2.68568C142.334 2.77721 142.346 2.87159 142.346 2.96884V8.28875C142.346 8.38599 142.354 8.48038 142.371 8.5719C142.394 8.66343 142.46 8.74637 142.569 8.82074C142.683 8.8951 142.86 8.95517 143.101 9.00093C143.347 9.04097 143.696 9.06099 144.148 9.06099H146.722C146.819 9.06099 146.913 9.07243 147.005 9.09531C147.096 9.11248 147.179 9.17826 147.254 9.29267C147.328 9.40135 147.385 9.57868 147.425 9.82466C147.471 10.0649 147.494 10.411 147.494 10.8629V12.4074C147.494 12.8593 147.471 13.2082 147.425 13.4542C147.385 13.6945 147.328 13.8718 147.254 13.9862C147.179 14.0949 147.096 14.1607 147.005 14.1836C146.913 14.2007 146.819 14.2093 146.722 14.2093H144.148C143.696 14.2093 143.347 14.2322 143.101 14.2779C142.86 14.318 142.683 14.3752 142.569 14.4495C142.46 14.5239 142.394 14.6069 142.371 14.6984C142.354 14.7899 142.346 14.8843 142.346 14.9815V21.0737C142.346 21.3082 142.391 21.5313 142.483 21.743C142.574 21.9489 142.697 22.1291 142.852 22.2835C143.006 22.438 143.187 22.561 143.392 22.6525C143.604 22.744 143.827 22.7898 144.062 22.7898H147.58C147.677 22.7898 147.771 22.8012 147.863 22.8241C147.954 22.8413 148.037 22.9071 148.112 23.0215C148.186 23.1301 148.243 23.3075 148.283 23.5535C148.329 23.7937 148.352 24.1398 148.352 24.5917V26.1362C148.352 26.5881 148.329 26.937 148.283 27.183C148.243 27.4233 148.186 27.6006 148.112 27.715C148.037 27.8237 147.954 27.8895 147.863 27.9123C147.771 27.9295 147.677 27.9381 147.58 27.9381H144.062C143.432 27.9381 142.823 27.858 142.234 27.6978C141.651 27.5319 141.104 27.3003 140.595 27.0028C140.086 26.7054 139.623 26.3478 139.205 25.9303C138.788 25.5127 138.43 25.0493 138.133 24.5402C137.835 24.0311 137.603 23.4848 137.438 22.9013C137.277 22.3121 137.197 21.7029 137.197 21.0737Z" fill="#011D3C"/>
<path d="M150.085 15.0673C150.085 14.5125 150.157 13.9805 150.3 13.4714C150.443 12.9623 150.643 12.4846 150.9 12.0384C151.164 11.5922 151.478 11.1861 151.844 10.82C152.21 10.4539 152.616 10.1421 153.063 9.88472C153.509 9.62159 153.986 9.41851 154.496 9.27551C155.01 9.1325 155.542 9.06099 156.092 9.06099H161.24C161.795 9.06099 162.327 9.1325 162.836 9.27551C163.345 9.41851 163.823 9.62159 164.269 9.88472C164.715 10.1421 165.121 10.4539 165.487 10.82C165.853 11.1861 166.165 11.5922 166.422 12.0384C166.686 12.4846 166.889 12.9651 167.032 13.4799C167.175 13.9891 167.246 14.5182 167.246 15.0673C167.246 15.6165 167.175 16.1485 167.032 16.6633C166.889 17.1724 166.686 17.6501 166.422 18.0963C166.165 18.5424 165.853 18.9486 165.487 19.3147C165.121 19.6808 164.715 19.9954 164.269 20.2585C163.823 20.516 163.342 20.7162 162.827 20.8592C162.318 21.0022 161.789 21.0737 161.24 21.0737H156.95C156.652 21.0737 156.36 21.0594 156.074 21.0308C155.788 20.9965 155.508 20.9478 155.234 20.8849V21.0737C155.234 21.3082 155.279 21.5313 155.371 21.743C155.462 21.9489 155.585 22.1291 155.74 22.2835C155.894 22.438 156.074 22.561 156.28 22.6525C156.492 22.744 156.715 22.7898 156.95 22.7898H164.758C164.855 22.7898 164.95 22.8012 165.041 22.8241C165.133 22.8413 165.215 22.9071 165.29 23.0215C165.364 23.1301 165.421 23.3075 165.461 23.5535C165.507 23.7937 165.53 24.1398 165.53 24.5917V26.1362C165.53 26.5881 165.507 26.937 165.461 27.183C165.421 27.4233 165.364 27.6006 165.29 27.715C165.215 27.8237 165.133 27.8895 165.041 27.9123C164.95 27.9295 164.855 27.9381 164.758 27.9381H156.95C156.32 27.9381 155.711 27.858 155.122 27.6978C154.539 27.5319 153.992 27.3003 153.483 27.0028C152.974 26.7054 152.511 26.3478 152.093 25.9303C151.675 25.5127 151.318 25.0493 151.021 24.5402C150.723 24.0311 150.491 23.4848 150.325 22.9013C150.165 22.3121 150.085 21.7029 150.085 21.0737V15.0673ZM155.234 15.0673C155.234 15.2447 155.256 15.4134 155.302 15.5736C155.348 15.728 155.408 15.8625 155.482 15.9769C155.562 16.0913 155.654 16.1828 155.757 16.2515C155.86 16.3201 155.971 16.3544 156.092 16.3544H161.24C161.36 16.3544 161.472 16.3201 161.575 16.2515C161.677 16.1828 161.766 16.0913 161.841 15.9769C161.921 15.8625 161.984 15.728 162.029 15.5736C162.075 15.4134 162.098 15.2447 162.098 15.0673C162.098 14.89 162.075 14.7241 162.029 14.5697C161.984 14.4095 161.921 14.2722 161.841 14.1578C161.766 14.0434 161.677 13.9519 161.575 13.8832C161.472 13.8146 161.36 13.7803 161.24 13.7803H156.092C155.971 13.7803 155.86 13.8146 155.757 13.8832C155.654 13.9519 155.562 14.0434 155.482 14.1578C155.408 14.2722 155.348 14.4095 155.302 14.5697C155.256 14.7241 155.234 14.89 155.234 15.0673Z" fill="#011D3C"/>
<path d="M168.962 21.0737V15.9254C168.962 15.2904 169.042 14.6812 169.203 14.0977C169.368 13.5143 169.6 12.968 169.898 12.4589C170.195 11.9498 170.553 11.4864 170.97 11.0688C171.388 10.6512 171.851 10.2937 172.36 9.99627C172.869 9.69881 173.416 9.47 173.999 9.30983C174.588 9.14394 175.197 9.06099 175.827 9.06099H182.777C182.874 9.06099 182.969 9.07243 183.06 9.09531C183.152 9.11248 183.235 9.17826 183.309 9.29267C183.383 9.40135 183.44 9.57868 183.481 9.82466C183.526 10.0649 183.549 10.411 183.549 10.8629V12.4074C183.549 12.8593 183.526 13.2082 183.481 13.4542C183.44 13.6945 183.383 13.8718 183.309 13.9862C183.235 14.0949 183.152 14.1607 183.06 14.1836C182.969 14.2007 182.874 14.2093 182.777 14.2093H175.827C175.592 14.2093 175.369 14.2551 175.157 14.3466C174.952 14.4381 174.771 14.5611 174.617 14.7155C174.462 14.87 174.339 15.053 174.248 15.2647C174.156 15.4706 174.111 15.6909 174.111 15.9254V21.0737C174.111 21.3082 174.156 21.5313 174.248 21.743C174.339 21.9489 174.462 22.1291 174.617 22.2835C174.771 22.438 174.952 22.561 175.157 22.6525C175.369 22.744 175.592 22.7898 175.827 22.7898H182.777C182.874 22.7898 182.969 22.8012 183.06 22.8241C183.152 22.8413 183.235 22.9071 183.309 23.0215C183.383 23.1301 183.44 23.3075 183.481 23.5535C183.526 23.7937 183.549 24.1398 183.549 24.5917V26.1362C183.549 26.5881 183.526 26.937 183.481 27.183C183.44 27.4233 183.383 27.6006 183.309 27.715C183.235 27.8237 183.152 27.8895 183.06 27.9123C182.969 27.9295 182.874 27.9381 182.777 27.9381H175.827C175.197 27.9381 174.588 27.858 173.999 27.6978C173.416 27.5319 172.869 27.3003 172.36 27.0028C171.851 26.7054 171.388 26.3478 170.97 25.9303C170.553 25.5127 170.195 25.0493 169.898 24.5402C169.6 24.0311 169.368 23.4848 169.203 22.9013C169.042 22.3121 168.962 21.7029 168.962 21.0737Z" fill="#011D3C"/>
<path d="M185.694 27.1658V2.96884C185.694 2.87159 185.703 2.77721 185.72 2.68568C185.743 2.59416 185.809 2.51121 185.917 2.43685C186.032 2.36248 186.209 2.30528 186.449 2.26524C186.695 2.21948 187.044 2.19659 187.496 2.19659H189.041C189.493 2.19659 189.839 2.21948 190.079 2.26524C190.325 2.30528 190.502 2.36248 190.611 2.43685C190.725 2.51121 190.791 2.59416 190.808 2.68568C190.831 2.77721 190.843 2.87159 190.843 2.96884V9.2326C191.397 9.1182 191.969 9.06099 192.559 9.06099H195.991C196.626 9.06099 197.235 9.14394 197.819 9.30983C198.402 9.47 198.948 9.69881 199.457 9.99627C199.967 10.2937 200.43 10.6512 200.847 11.0688C201.265 11.4864 201.623 11.9498 201.92 12.4589C202.217 12.968 202.446 13.5171 202.606 14.1063C202.772 14.6898 202.855 15.2962 202.855 15.9254V27.1658C202.855 27.2631 202.844 27.3575 202.821 27.449C202.804 27.5405 202.738 27.6235 202.624 27.6978C202.515 27.7722 202.338 27.8323 202.092 27.878C201.851 27.9181 201.505 27.9381 201.053 27.9381H199.509C199.057 27.9381 198.708 27.9181 198.462 27.878C198.222 27.8323 198.044 27.7722 197.93 27.6978C197.821 27.6235 197.756 27.5405 197.733 27.449C197.716 27.3575 197.707 27.2631 197.707 27.1658V15.9254C197.707 15.6909 197.661 15.4706 197.57 15.2647C197.478 15.053 197.355 14.87 197.201 14.7155C197.046 14.5611 196.863 14.4381 196.652 14.3466C196.446 14.2551 196.225 14.2093 195.991 14.2093H192.559C192.324 14.2093 192.101 14.2551 191.889 14.3466C191.683 14.4381 191.503 14.5611 191.349 14.7155C191.194 14.87 191.071 15.053 190.98 15.2647C190.888 15.4706 190.843 15.6909 190.843 15.9254V27.1658C190.843 27.2631 190.831 27.3575 190.808 27.449C190.791 27.5405 190.725 27.6235 190.611 27.6978C190.502 27.7722 190.325 27.8323 190.079 27.878C189.839 27.9181 189.493 27.9381 189.041 27.9381H187.496C187.044 27.9381 186.695 27.9181 186.449 27.878C186.209 27.8323 186.032 27.7722 185.917 27.6978C185.809 27.6235 185.743 27.5405 185.72 27.449C185.703 27.3575 185.694 27.2631 185.694 27.1658Z" fill="#011D3C"/>
<defs>
<linearGradient id="paint0_linear_5_36" x1="21.9661" y1="0" x2="21.9661" y2="64.7999" gradientUnits="userSpaceOnUse">
<stop stop-color="#077BF7"/>
<stop offset="1" stop-color="#077BF7" stop-opacity="0"/>
</linearGradient>
</defs>
</svg>
