<svg xmlns="http://www.w3.org/2000/svg" width="1024" height="312" viewBox="-1.66 -1.66 192.534 58.668" fill="#20285d"><path d="M27.67 6.02l-3.914 5.3s-3.3 4.137-1.506 10.644l2.267 7.454s.64 2.232.64 4.343v.53s-.887.653-1.5 0c-.025-.22-.1-2.112-.66-3.846-.573-1.8-2.696-6.745-8.325-6.745-5.318 0-6.84 4.53-6.84 6.516s1.074 5.5 4.778 5.5c2.174 0 2.8-1.75 2.8-1.75s-.635.316-1.432.316-1.935-.56-1.935-1.944c0-1.256.55-1.773 1.492-2.18.72-.3 1.5-.243 1.794-.243 1.216 0 5.826.527 5.826 6.06 0 3.895-3.15 3.762-3.15 3.762s-1.594.157-1.594-1.854c-.8.264-.845 1.35-.845 1.35s-.214 2.4 2.648 2.4c4.104 0 5.122-3.72 5.166-3.8.873-.6 1.477.024 1.477.024s-.566 5.66-5.068 5.66c7.864 2.508 7.864 7.1 7.864 7.1s.001-4.594 7.865-7.1c-4.5 0-5.07-5.66-5.07-5.66s.605-.622 1.48-.024c.044.093 1.062 3.8 5.165 3.8 2.86 0 2.65-2.4 2.65-2.4s-.056-1.086-.845-1.35c0 2-1.594 1.854-1.594 1.854s-3.15.133-3.15-3.762c0-5.534 4.6-6.06 5.828-6.06.292 0 1.074-.047 1.794.243.94.406 1.492.922 1.492 2.18 0 1.385-1.142 1.944-1.935 1.944s-1.432-.316-1.432-.316.635 1.75 2.807 1.75c3.705 0 4.78-3.523 4.78-5.5s-1.524-6.516-6.84-6.516c-5.63 0-7.752 4.935-8.325 6.745-.55 1.734-.634 3.627-.66 3.846-.604.653-1.5 0-1.5 0v-.53c0-2.1.64-4.343.64-4.343l2.266-7.454c1.792-6.506-1.505-10.644-1.505-10.644l-3.924-5.3zm27.67 21.653C55.34 12.414 42.925 0 27.67 0S0 12.414 0 27.673s12.414 27.675 27.67 27.675 27.67-12.415 27.67-27.675m-3.32 0c0 13.43-10.924 24.354-24.347 24.354S3.32 41.1 3.32 27.673 14.245 3.32 27.67 3.32s24.35 10.925 24.35 24.353m28.548 2.18c0-1.284-.54-2.547-1.76-3.25.85-.684 1.242-1.7 1.242-2.693 0-3.024-2.195-4.184-4.95-4.184h-5.22V34.18h5.57c2.88 0 5.115-1.16 5.115-4.33M77.5 23.928c0 1.5-1.078 1.78-2.34 1.78H72.5V22.2h2.65c1.242 0 2.36.228 2.36 1.74m.455 5.944c0 1.615-1.18 1.843-2.505 1.843H72.5V28.02h2.963c1.325 0 2.505.25 2.505 1.865m12-10.15h-2.34L82.06 34.18h2.816l1.367-3.77h5.094l1.4 3.77h2.816L89.95 19.725zm-2.858 8.4l1.7-4.66 1.72 4.66h-3.417zm20.96-8.4h-2.6v9.05l-5.736-9.05H97.57V34.18h2.6v-9.05l5.736 9.05h2.134V19.725zm14.642 0h-2.88l-4.785 7.166 5.116 7.3h3.085l-5.384-7.3 4.846-7.145zm-7.954 0h-2.6V34.18h2.6V19.725zm27.565 0h-9.6V34.18h2.6v-6.214h6.234v-2.444h-6.234v-3.23h7v-2.57zm12.78 4.308c0-3.003-2.154-4.308-4.95-4.308h-5.22V34.18h2.6v-5.985h1.036c.93 0 1.18.33 1.615 1.076l2.94 4.9h3.024l-3.396-5.364c-.186-.3-.456-.705-.705-.9 1.885-.54 3.045-2 3.045-3.894m-2.6 0c0 1.512-1.015 1.865-2.32 1.865h-2.63V22.23h2.63c1.263 0 2.32.33 2.32 1.8m8.864-4.308h-2.6V34.18h2.6V19.725zm12.385 10.273c-.87 1.078-1.74 1.8-3.2 1.8-2.734 0-3.54-2.6-3.54-4.846s.808-4.845 3.54-4.845c1.4 0 2.238.683 3.108 1.678l1.843-1.803c-1.388-1.677-2.734-2.444-4.95-2.444-4.307 0-6.192 3.52-6.192 7.414 0 3.874 1.906 7.415 6.192 7.415 2.444 0 3.5-.787 5.032-2.6l-1.843-1.76zm14.953-10.272h-2.88l-4.784 7.166 5.115 7.3h3.086l-5.385-7.3 4.846-7.145zm-7.953 0h-2.6V34.18h2.6V19.725z"/></svg>