<?xml version="1.0" encoding="UTF-8"?>
<svg width="55.379" height="26.055" version="1.1" viewBox="0 0 55.379044 26.055229" xmlns="http://www.w3.org/2000/svg" xmlns:cc="http://creativecommons.org/ns#" xmlns:dc="http://purl.org/dc/elements/1.1/" xmlns:rdf="http://www.w3.org/1999/02/22-rdf-syntax-ns#">
<metadata>
<rdf:RDF>
<cc:Work rdf:about="">
<dc:format>image/svg+xml</dc:format>
<dc:type rdf:resource="http://purl.org/dc/dcmitype/StillImage"/>
<dc:title>logo-maxpay</dc:title>
</cc:Work>
</rdf:RDF>
</metadata>
<defs>
<style>.logo-maxpay-a{fill:#61bc00;}.logo-maxpay-b{fill:#fff;}.logo-maxpay-c{fill:#8f8f8f;}</style>
</defs>
<title>logo-maxpay</title>
<path class="logo-maxpay-a" d="m51.565 3.8152a13 13 0 0 0 -18.4 0l-4.19 4.17 3.72 3.72 4.17-4.17a7.75 7.75 0 1 1 0 11l-4.61-4.61-0.87-0.87-9.2-9.2a13 13 0 1 0 0 18.4l0.21-0.21 2.09 2.09v-7.9h-7.9l2.1 2.1-0.21 0.21a7.75 7.75 0 1 1 0 -11l4.6 4.61 0.88 0.87 9.2 9.2a13.018 13.018 0 1 0 18.41 -18.41z" fill="#61bc00"/>
</svg>
