<svg xmlns="http://www.w3.org/2000/svg" viewBox="0 0 392 83"><path d="M349.36 81V27.85h7.83v5.12h.2a15.9 15.9 0 0 1 6.33-4.77 20.78 20.78 0 0 1 8.64-1.85c5.76 0 10.38 1.77 13.86 5.32 3.49 3.54 5.23 8.35 5.23 14.43V81h-8.24V48.7c0-9.9-4.02-14.84-12.06-14.84-4.15 0-7.44 1.17-9.89 3.5-2.45 2.35-3.67 5.6-3.67 9.73V81h-8.23z"></path><path d="M299.43 50.32h31.65a19.39 19.39 0 0 0-4.03-11.63c-2.54-3.28-6.46-4.92-11.75-4.92-5.16 0-9.07 1.75-11.75 5.26a18.76 18.76 0 0 0-4.12 11.29zm31.85 14.23l6.72 4.42a26.4 26.4 0 0 1-8.58 9.67c-3.72 2.57-8.3 3.87-13.72 3.87-7.23 0-13.2-2.56-17.88-7.68-4.68-5.11-7.03-11.91-7.03-20.4 0-8.5 2.3-15.3 6.88-20.41 4.59-5.11 10.47-7.67 17.63-7.67 7.17 0 12.98 2.5 17.43 7.52 4.46 5.01 6.68 11.87 6.68 20.55v2.41h-40.18c.07 5.08 1.49 9.4 4.27 12.94 2.78 3.54 6.78 5.31 12 5.31 2.41 0 4.54-.31 6.38-.95a11.68 11.68 0 0 0 4.52-2.7 21.8 21.8 0 0 0 2.67-3.11c.6-.9 1.23-1.96 1.9-3.16l.3-.6z"></path><polygon points="265.763 48.91 285.249 27.854 274.3 27.854 251.898 52.218 251.699 52.218 251.699 7.525 243.46 7.525 243.46 80.997 251.699 80.997 251.699 62.547 259.432 54.024 259.634 54.024 277.716 80.997 287.66 80.997"></polygon><path d="M188.11 81V27.85h7.83v5.12h.2a15.92 15.92 0 0 1 6.33-4.77 20.78 20.78 0 0 1 8.64-1.85c5.76 0 10.38 1.77 13.87 5.32 3.48 3.54 5.22 8.35 5.22 14.43V81h-8.24V48.7c0-9.9-4.01-14.84-12.05-14.84-4.15 0-7.45 1.17-9.9 3.5-2.44 2.35-3.66 5.6-3.66 9.73V81h-8.24z"></path><path d="M152.75 57.04c-4.55 1.26-7.65 2.63-9.3 4.1a7.31 7.31 0 0 0-2.46 5.72c0 5.55 3.52 8.33 10.56 8.33 4.82 0 8.53-1.1 11.14-3.27 2.61-2.16 3.92-4.82 3.92-7.97V50.72h-.2c-.94 1.94-5.5 4.04-13.66 6.32zM167.41 81v-5.81h-.2c-1 1.73-2.9 3.39-5.72 4.95-2.81 1.58-6.33 2.36-10.55 2.36-5.9 0-10.4-1.43-13.51-4.3a14.11 14.11 0 0 1-4.67-10.83c0-4.42 1.39-7.88 4.17-10.39 2.78-2.5 7.42-4.6 13.91-6.26 5.56-1.4 9.5-2.71 11.8-3.92 2.32-1.2 3.47-3 3.47-5.4 0-2.21-1-4.06-3.01-5.53-2.01-1.46-4.72-2.2-8.14-2.2-7.1 0-11.42 3.5-12.96 10.53l-7.63-2.2c.8-4.62 3-8.38 6.58-11.29 3.58-2.9 8.15-4.36 13.71-4.36 5.96 0 10.81 1.5 14.56 4.51 3.76 3 5.63 7.09 5.63 12.24V81h-7.44z"></path><path d="M112.37 69.67c-2.75 3.6-6.77 5.41-12.06 5.41-3.88 0-7.13-1.16-9.74-3.5-2.62-2.34-3.92-5.08-3.92-8.23V46.91c0-3.35 1.24-6.38 3.72-9.08 2.47-2.7 5.79-4.06 9.94-4.06 5.3 0 9.31 1.8 12.06 5.41 2.74 3.61 4.11 8.7 4.11 15.24 0 6.56-1.37 11.64-4.11 15.25m-10.75-43.32c-6.1 0-11.02 2.2-14.77 6.62h-.2V7.52h-8.24V81h7.44v-5.12h.2c1.4 1.68 3.46 3.2 6.17 4.57a20.57 20.57 0 0 0 9.4 2.05c7.03 0 12.67-2.55 16.93-7.67 4.25-5.11 6.38-11.91 6.38-20.4 0-8.42-2.2-15.21-6.59-20.36a21 21 0 0 0-16.72-7.72"></path><path d="M63.35 7.52A7.53 7.53 0 1 1 48.3 7.5a7.53 7.53 0 0 1 15.06.02"></path><path d="M25.72 38.18c-8.9-3.8-12.8-6-12.8-10.93 0-5.53 4.5-10.03 10.04-10.03 6.15 0 9.85 3.01 11.04 8.95l9.41-2.34c-2.25-10.13-9.86-16.3-20.45-16.3A19.77 19.77 0 0 0 3.2 27.24c0 11.84 10.37 16.28 18.7 19.84 8.65 3.7 13.96 6.3 13.96 12.75a12.9 12.9 0 0 1-12.9 12.88c-6.91 0-12.09-4.61-13.53-11.9L0 63.18c2.5 11.46 11.6 19.25 22.96 19.25a22.62 22.62 0 0 0 22.61-22.58c0-13.16-11-17.87-19.85-21.66"></path></svg>