<?xml version="1.0" encoding="UTF-8"?>
<svg style="" data-name="Layer 1" viewBox="0 0 88 152" xmlns="http://www.w3.org/2000/svg" xmlns:xlink="http://www.w3.org/1999/xlink">
<rect class="" width="100%" height="100%" fill="none" style=""/>
<defs>
<style>.cls-1{fill:url(#f);}.cls-2{fill:url(#e);}.cls-3{fill:url(#d);}.cls-4{fill:url(#c);}.cls-5{fill:url(#a);}.cls-6{fill:url(#b);}.cls-7{fill:#24292f;}</style>
<linearGradient id="f" x1="27.31" x2="54.83" y1="65.84" y2="92.32" gradientUnits="userSpaceOnUse">
<stop stop-color="#f9a01b" offset="0"/>
<stop stop-color="#faab18" offset=".09"/>
<stop stop-color="#fcb715" offset=".27"/>
<stop stop-color="#fdbf14" offset=".5"/>
<stop stop-color="#fdc113" offset="1"/>
</linearGradient>
<linearGradient id="e" x1="35.38" x2="66.2" y1="61.63" y2="91.28" gradientUnits="userSpaceOnUse">
<stop stop-color="#fdc113" offset="0"/>
<stop stop-color="#fdbf14" offset=".5"/>
<stop stop-color="#fcb715" offset=".73"/>
<stop stop-color="#faab18" offset=".91"/>
<stop stop-color="#f9a01b" offset="1"/>
</linearGradient>
<linearGradient id="d" x1="58.32" x2="58.32" y1="43.55" y2="173.09" gradientUnits="userSpaceOnUse">
<stop stop-color="#f9a01b" offset="0"/>
<stop stop-color="#fcb616" offset=".58"/>
<stop stop-color="#fdc113" offset="1"/>
</linearGradient>
<linearGradient id="c" x1="29.52" x2="31.12" y1="16.09" y2="107.37" gradientUnits="userSpaceOnUse">
<stop stop-color="#fdc113" offset="0"/>
<stop stop-color="#fcb616" offset=".42"/>
<stop stop-color="#f9a01b" offset="1"/>
</linearGradient>
<linearGradient id="a" x1="24.65" x2="56.79" y1="67.26" y2="88.35" gradientUnits="userSpaceOnUse">
<stop stop-color="#22282e" stop-opacity=".18" offset="0"/>
<stop stop-color="#22282e" stop-opacity=".04" offset=".27"/>
<stop stop-color="#22282e" stop-opacity="0" offset="1"/>
</linearGradient>
<linearGradient id="b" x1="788.81" x2="820.94" y1="2508.2" y2="2529.3" gradientTransform="translate(852.36 2593) rotate(180)" xlink:href="#a"/>
</defs>
<title>SP2.0 Logotype-Horizontal-Color on Light</title>
<g class="currentLayer" style="">
<title>Layer 1</title>
<path class="cls-1" d="m44.028 91a21.11 21.11 0 0 1-6.45 15.16l-15.56-15.16a21.06 21.06 0 0 1 0-30.32l15.56-15.2a21 21 0 0 0 0 30.31 21.18 21.18 0 0 1 6.45 15.21z"/>
<path class="cls-2" d="m72.448 76.21a21.1 21.1 0 0 1-6.44 15.16l-15.56 15.16a21 21 0 0 0 0-30.32 21 21 0 0 1 0-30.31l15.56 15.15a21.12 21.12 0 0 1 6.44 15.16z"/>
<path class="cls-3" d="m81.568 76.21-15.56-15.16a21.06 21.06 0 0 1 0 30.32l-15.56 15.16-15.54 15.16a21.06 21.06 0 0 0 0 30.31l15.56-15.16 15.54-15.15 15.56-15.16a21 21 0 0 0 0-30.32z"/>
<path class="cls-4" d="m53.158 1.2565e-6 -15.57 15.17-15.57 15.15-15.55 15.15a21 21 0 0 0 0 30.32l15.55 15.21a21.08 21.08 0 0 1 0-30.33l15.56-15.2 15.55-15.15a21.08 21.08 0 0 0 0.03-30.32z"/>
<path class="cls-5" d="m44.028 91a21.11 21.11 0 0 1-6.45 15.16l-15.56-15.16a21.06 21.06 0 0 1 0-30.32l15.56-15.2a21 21 0 0 0 0 30.31 21.18 21.18 0 0 1 6.45 15.21z"/>
<path class="cls-6" d="m43.998 61a21.11 21.11 0 0 1 6.45-15.15l15.56 15.15a21.08 21.08 0 0 1 0 30.33l-15.56 15.2a21 21 0 0 0 0-30.32 21.15 21.15 0 0 1-6.45-15.21z"/>
</g>
</svg>
