<svg id="Layer_1" data-name="Layer 1" xmlns="http://www.w3.org/2000/svg" xmlns:xlink="http://www.w3.org/1999/xlink" viewBox="0 0 542 152"><defs><style>.cls-1{fill:url(#linear-gradient);}.cls-2{fill:url(#linear-gradient-2);}.cls-3{fill:url(#linear-gradient-3);}.cls-4{fill:url(#linear-gradient-4);}.cls-5{fill:url(#linear-gradient-5);}.cls-6{fill:url(#linear-gradient-6);}.cls-7{fill:#24292f;}</style><linearGradient id="linear-gradient" x1="27.31" y1="65.84" x2="54.83" y2="92.32" gradientUnits="userSpaceOnUse"><stop offset="0" stop-color="#f9a01b"/><stop offset="0.09" stop-color="#faab18"/><stop offset="0.27" stop-color="#fcb715"/><stop offset="0.5" stop-color="#fdbf14"/><stop offset="1" stop-color="#fdc113"/></linearGradient><linearGradient id="linear-gradient-2" x1="35.38" y1="61.63" x2="66.2" y2="91.28" gradientUnits="userSpaceOnUse"><stop offset="0" stop-color="#fdc113"/><stop offset="0.5" stop-color="#fdbf14"/><stop offset="0.73" stop-color="#fcb715"/><stop offset="0.91" stop-color="#faab18"/><stop offset="1" stop-color="#f9a01b"/></linearGradient><linearGradient id="linear-gradient-3" x1="58.32" y1="43.55" x2="58.32" y2="173.09" gradientUnits="userSpaceOnUse"><stop offset="0" stop-color="#f9a01b"/><stop offset="0.58" stop-color="#fcb616"/><stop offset="1" stop-color="#fdc113"/></linearGradient><linearGradient id="linear-gradient-4" x1="29.52" y1="16.09" x2="31.12" y2="107.37" gradientUnits="userSpaceOnUse"><stop offset="0" stop-color="#fdc113"/><stop offset="0.42" stop-color="#fcb616"/><stop offset="1" stop-color="#f9a01b"/></linearGradient><linearGradient id="linear-gradient-5" x1="24.65" y1="67.26" x2="56.79" y2="88.35" gradientUnits="userSpaceOnUse"><stop offset="0" stop-color="#22282e" stop-opacity="0.18"/><stop offset="0.27" stop-color="#22282e" stop-opacity="0.04"/><stop offset="1" stop-color="#22282e" stop-opacity="0"/></linearGradient><linearGradient id="linear-gradient-6" x1="788.81" y1="2508.25" x2="820.94" y2="2529.34" gradientTransform="translate(852.36 2593) rotate(180)" xlink:href="#linear-gradient-5"/></defs><title>SP2.0 Logotype-Horizontal-Color on Light</title><path class="cls-1" d="M44.12,91a21.11,21.11,0,0,1-6.45,15.16L22.11,91a21.06,21.06,0,0,1,0-30.32L37.67,45.48a21,21,0,0,0,0,30.31A21.18,21.18,0,0,1,44.12,91Z"/><path class="cls-2" d="M72.54,76.21A21.1,21.1,0,0,1,66.1,91.37L50.54,106.53a21,21,0,0,0,0-30.32,21,21,0,0,1,0-30.31L66.1,61.05A21.12,21.12,0,0,1,72.54,76.21Z"/><path class="cls-3" d="M81.66,76.21,66.1,61.05a21.06,21.06,0,0,1,0,30.32L50.54,106.53,35,121.69h0A21.06,21.06,0,0,0,35,152l15.56-15.16h0L66.1,121.69l15.56-15.16a21,21,0,0,0,0-30.32Z"/><path class="cls-4" d="M53.25,0,37.68,15.17v0L22.11,30.32,6.56,45.47a21,21,0,0,0,0,30.32L22.11,91a21.08,21.08,0,0,1,0-30.33L37.67,45.47,53.22,30.32h0A21.08,21.08,0,0,0,53.25,0Z"/><path class="cls-5" d="M44.12,91a21.11,21.11,0,0,1-6.45,15.16L22.11,91a21.06,21.06,0,0,1,0-30.32L37.67,45.48a21,21,0,0,0,0,30.31A21.18,21.18,0,0,1,44.12,91Z"/><path class="cls-6" d="M44.09,61a21.11,21.11,0,0,1,6.45-15.15L66.1,61a21.08,21.08,0,0,1,0,30.33L50.54,106.53a21,21,0,0,0,0-30.32A21.15,21.15,0,0,1,44.09,61Z"/><path class="cls-7" d="M139.75,88.08l6.35-8.9a24.1,24.1,0,0,0,17.48,7.42c6.43,0,9.57-3,9.57-6.11,0-9.73-31.67-3-31.67-23.75,0-9.15,7.92-16.74,20.86-16.74,8.75,0,16,2.64,21.45,7.67l-6.52,8.58a23.59,23.59,0,0,0-16-6c-5,0-7.83,2.22-7.83,5.52,0,8.75,31.58,2.89,31.58,23.43,0,10.06-7.17,17.64-22,17.64C152.45,96.82,144.86,93.28,139.75,88.08Z"/><path class="cls-7" d="M215.37,95.84V91.71c-2.72,3.22-7.42,5.11-12.61,5.11-6.35,0-13.86-4.28-13.86-13.19,0-9.32,7.51-12.87,13.86-12.87,5.27,0,10,1.73,12.61,4.87V70.27c0-4-3.46-6.68-8.74-6.68A16.73,16.73,0,0,0,195,68.29l-4-7A26.15,26.15,0,0,1,208.45,55c9.07,0,17.4,3.63,17.4,15.09V95.84Zm0-9.57v-5c-1.73-2.31-5-3.46-8.41-3.46-4.12,0-7.5,2.14-7.5,6,0,3.71,3.38,5.85,7.5,5.85C210.34,89.73,213.64,88.58,215.37,86.27Z"/><path class="cls-7" d="M237.07,85.94V65.15h-6.6V56h6.6V45.11h10.55V56h8.09v9.15h-8.09v18c0,2.48,1.32,4.38,3.63,4.38a5.71,5.71,0,0,0,3.63-1.16l2.23,7.92c-1.57,1.4-4.37,2.55-8.75,2.55C241,96.82,237.07,93,237.07,85.94Z"/><path class="cls-7" d="M259.09,75.88c0-12.21,8.82-20.87,21.11-20.87,8.16,0,13.11,3.55,15.75,7.18l-6.84,6.43a9.66,9.66,0,0,0-8.42-4.29c-6.35,0-10.8,4.62-10.8,11.55s4.45,11.63,10.8,11.63a10.07,10.07,0,0,0,8.42-4.29L296,89.57c-2.64,3.71-7.59,7.25-15.75,7.25C267.91,96.82,259.09,88.17,259.09,75.88Z"/><path class="cls-7" d="M328.53,95.84V71.59c0-5.53-2.89-7.26-7.42-7.26A11.6,11.6,0,0,0,312,69V95.84H301.56v-55H312V61.2a18.39,18.39,0,0,1,14-6.19C334.8,55,339,59.79,339,67.55V95.84Z"/><path class="cls-7" d="M345.6,75.88c0-11.55,8.5-20.87,20.62-20.87,11.88,0,20,8.91,20,21.94v2.31H356.57c.66,5,4.7,9.24,11.46,9.24,3.39,0,8.09-1.49,10.64-4l4.62,6.76c-4,3.63-10.22,5.52-16.41,5.52C354.76,96.82,345.6,88.66,345.6,75.88Zm20.62-12.54c-6.52,0-9.32,4.87-9.81,8.82H376C375.79,68.37,373.15,63.34,366.22,63.34Z"/><path class="cls-7" d="M392.53,95.84v-55H403v55Z"/><path class="cls-7" d="M412.4,95.84v-55h25.74c12,0,18.47,8.09,18.47,17.74S450,76.29,438.14,76.29h-14V95.84Zm32.25-37.28c0-4.62-3.46-7.43-8.08-7.43H424.12V66h12.45C441.19,66,444.65,63.09,444.65,58.56Z"/><path class="cls-7" d="M484.65,95.84V91.71c-2.72,3.22-7.42,5.11-12.62,5.11-6.35,0-13.85-4.28-13.85-13.19,0-9.32,7.5-12.87,13.85-12.87,5.28,0,10,1.73,12.62,4.87V70.27c0-4-3.46-6.68-8.74-6.68a16.73,16.73,0,0,0-11.63,4.7l-4-7A26.15,26.15,0,0,1,477.73,55c9.07,0,17.4,3.63,17.4,15.09V95.84Zm0-9.57v-5c-1.73-2.31-5-3.46-8.41-3.46-4.12,0-7.5,2.14-7.5,6,0,3.71,3.38,5.85,7.5,5.85C479.62,89.73,482.92,88.58,484.65,86.27Z"/><path class="cls-7" d="M504.45,102a9.07,9.07,0,0,0,3.3.66c2.72,0,4.53-.74,5.52-2.89l1.49-3.38L498.59,56h11.22L520.2,83.71,530.59,56h11.3l-18.72,46.35c-3,7.51-8.25,9.48-15.09,9.65a28.65,28.65,0,0,1-5.2-.58Z"/></svg>