<?xml version="1.0" encoding="UTF-8" standalone="no"?>
<svg
   width="29.799999"
   height="48"
   viewBox="0 0 29.799999 48"
   fill="none"
   version="1.1"
   id="svg64"
   sodipodi:docname="logo.svg"
   inkscape:version="1.2.2 (732a01da63, 2022-12-09, custom)"
   xmlns:inkscape="http://www.inkscape.org/namespaces/inkscape"
   xmlns:sodipodi="http://sodipodi.sourceforge.net/DTD/sodipodi-0.dtd"
   xmlns="http://www.w3.org/2000/svg"
   xmlns:svg="http://www.w3.org/2000/svg">
  <sodipodi:namedview
     id="namedview66"
     pagecolor="#ffffff"
     bordercolor="#000000"
     borderopacity="0.25"
     inkscape:showpageshadow="2"
     inkscape:pageopacity="0.0"
     inkscape:pagecheckerboard="0"
     inkscape:deskcolor="#d1d1d1"
     showgrid="false"
     inkscape:zoom="8.1488372"
     inkscape:cx="111.42694"
     inkscape:cy="23.991153"
     inkscape:window-width="1850"
     inkscape:window-height="1016"
     inkscape:window-x="0"
     inkscape:window-y="0"
     inkscape:window-maximized="1"
     inkscape:current-layer="svg64" />
  <g
     clip-path="url(#clip0_202_560)"
     id="g57">
    <path
       d="M 5.19779e-7,12.5943 C 5.62595e-7,10.7191 1.33157,9.94064 2.97413,10.8557 l 12.92647,7.201 c 1.6426,0.9151 2.9741,3.177 2.9741,5.0523 v 22.7651 c 0,1.8753 -1.3315,2.6537 -2.9741,1.7387 L 2.97413,40.4117 C 1.33156,39.4967 -4.28163e-8,37.2347 0,35.3594 Z"
       fill="#051b30"
       id="path25" />
    <path
       d="m 0.63982,12.2857 c 0,-1.8753 1.33157,-2.65371 2.97413,-1.7387 l 12.92645,7.2011 c 1.6426,0.915 2.9742,3.177 2.9742,5.0523 v 22.7651 c 0,1.8752 -1.3316,2.6536 -2.9742,1.7386 L 3.61395,40.1031 C 1.97138,39.188 0.63982,36.926 0.63982,35.0508 Z"
       fill="#061b31"
       id="path27" />
    <path
       d="m 0.63982,12.2857 c 0,-1.8753 1.33157,-2.65371 2.97413,-1.7387 l 12.92645,7.2011 c 1.6426,0.915 2.9742,3.177 2.9742,5.0523 v 22.7651 c 0,1.8752 -1.3316,2.6536 -2.9742,1.7386 L 3.61395,40.1031 C 1.97138,39.188 0.63982,36.926 0.63982,35.0508 Z"
       fill="#061b31"
       id="path29" />
    <path
       d="M 16.9932,18.0394 0.63982,34.3359 v 0.7149 c 0,1.8752 1.33156,4.1372 2.97413,5.0523 l 12.92645,7.201 c 1.6426,0.915 2.9742,0.1366 2.9742,-1.7386 V 22.8004 c 0,-1.6996 -1.0937,-3.7167 -2.5214,-4.761 z"
       fill="#083163"
       id="path31" />
    <path
       d="m 7.03145,26.9966 c 0,1.8752 1.32112,4.1555 2.95081,5.0932 l 9.42314,5.4215 -0.0267,-5.1094 -5.4088,-3.234 -2.7044,-2.9645 V 15.5012 L 7.03144,13.1375 Z"
       fill="#061628"
       fill-opacity="0.47"
       id="path33" />
    <path
       d="m 10.8414,2.40802 c 0,-1.875261 1.3211,-2.635361 2.9508,-1.697732 L 26.1661,7.82953 c 1.6297,0.93762 2.9509,3.21797 2.9509,5.09317 v 22.7651 c 0,1.8753 -1.3212,2.6354 -2.9509,1.6978 L 13.7922,30.2663 c -1.6297,-0.9376 -2.9508,-3.2179 -2.9508,-5.0932 z"
       fill="#051b30"
       id="path35" />
    <path
       d="m 11.4609,2.09934 c 0,-1.875259 1.3211,-2.635358 2.9508,-1.69773 l 12.374,7.11924 c 1.6296,0.93763 2.9508,3.21795 2.9508,5.09315 v 22.7652 c 0,1.8752 -1.3212,2.6353 -2.9508,1.6977 L 14.4117,29.9576 C 12.782,29.02 11.4609,26.7397 11.4609,24.8645 Z"
       fill="#245eff"
       id="path37" />
    <path
       d="m 126.83,16.6547 v 2.1733 c -1.194,-1.3454 -3.531,-2.3285 -5.763,-2.432 -6.127,-0.2587 -11.32,4.9674 -11.268,11.3319 0,6.261 4.881,11.3837 10.852,11.3837 2.389,0 4.933,-0.9832 6.179,-2.432 v 2.1215 h 4.725 V 16.6547 Z m -6.179,17.6964 c -5.763,-0.0517 -8.36,-7.2441 -4.517,-11.2801 2.388,-2.6907 6.646,-2.6907 8.983,0 3.842,4.036 1.246,11.2284 -4.466,11.2801 z"
       fill="#06192c"
       id="path39" />
    <path
       d="m 150.244,10.8723 -0.156,7.9557 c -1.194,-1.3454 -3.531,-2.3285 -5.764,-2.432 -6.127,-0.207 -11.319,4.9674 -11.267,11.3319 -0.052,6.261 4.881,11.3837 10.852,11.3837 2.389,0 4.933,-0.9832 6.179,-2.432 v 2.0698 h 4.725 l 0.156,-27.8771 z m -6.335,23.5306 c -5.764,-0.1035 -8.36,-7.2959 -4.517,-11.3319 2.388,-2.6907 6.646,-2.6907 8.983,0 3.842,4.036 1.246,11.2284 -4.466,11.3319 z"
       fill="#06192c"
       id="path41" />
    <path
       d="m 193.906,27.9866 c -0.052,-10.297 -12.099,-15.0057 -18.485,-6.9337 -3.22,-4.243 -10.333,-6.1057 -13.916,-1.1383 v -3.0529 h -4.517 c 0,5.6918 0,16.4546 0,22.0946 h 4.465 l 0.052,-11.2284 c 0.052,-3.5186 2.492,-6.054 5.816,-6.0023 3.115,-0.0517 5.763,2.8977 5.815,6.0023 v 11.2284 h 4.569 V 27.7279 c 0.052,-3.4668 2.493,-6.0023 5.816,-5.9505 3.116,-0.0518 5.764,2.8976 5.816,5.9505 v 11.2284 h 4.569 z"
       fill="#06192c"
       id="path43" />
    <path
       d="m 196.587,38.9046 h 4.569 l 0.052,-22.043 h -4.673 z"
       fill="#06192c"
       id="path45" />
    <path
       d="m 212.101,21.3117 -0.052,10.5558 v 7.0889 h -4.621 V 21.3117 h -2.975 v -4.45 h 2.975 v -6.6232 h 4.621 l 0.052,6.6232 2.899,-10e-5 v 4.45 z"
       fill="#06192c"
       id="path47" />
    <path
       d="m 201.467,11.6355 c 0,1.5006 -1.142,2.6907 -2.596,2.6907 -1.402,0 -2.544,-1.1901 -2.544,-2.6907 0,-1.5006 1.142,-2.69068 2.544,-2.69068 1.454,0 2.596,1.19008 2.596,2.69068 z"
       fill="#245efe"
       id="path49" />
    <path
       d="m 51.1372,16.189 c -2.3885,0 -4.9328,0.9831 -6.2309,2.4837 v -2.1215 h -4.7771 l -0.1038,29.3711 h 4.777 l 0.1039,-9.2427 c 1.1943,1.3454 3.5309,2.3285 5.8155,2.432 6.231,0.2587 11.4234,-4.9674 11.4234,-11.4354 0,-6.3128 -4.9328,-11.4872 -11.008,-11.4872 z m 4.5694,16.1959 c -2.3885,2.6906 -6.6983,2.6906 -9.0868,0 -3.8943,-4.0878 -1.2462,-11.332 4.5694,-11.4354 5.7636,0.1034 8.4117,7.3476 4.5174,11.4354 z"
       fill="#245efe"
       id="path51" />
    <path
       d="m 80.7342,16.9652 v 2.1732 c -1.1942,-1.3453 -3.5308,-2.3285 -5.7636,-2.432 -6.1271,-0.2587 -11.3195,4.9675 -11.2676,11.332 0,6.261 4.8809,11.3836 10.8522,11.3836 2.3885,0 4.9328,-0.9831 6.179,-2.4319 v 2.1215 h 4.7252 V 16.9652 Z m -6.179,17.6964 c -5.7636,-0.0518 -8.3598,-7.2442 -4.5174,-11.2802 2.3885,-2.6907 6.6463,-2.6907 8.9829,0 3.8424,4.036 1.2462,11.2284 -4.4655,11.2802 z"
       fill="#245efe"
       id="path53" />
    <path
       d="m 108.341,16.9652 h -4.57 l 0.052,10.9697 c 0,3.4151 -2.648,6.2093 -5.8671,6.2093 -3.2194,0 -5.8156,-2.7425 -5.8156,-6.1576 V 16.9652 h -4.5174 v 10.9697 c 0,5.9505 4.3616,10.7627 9.8656,11.0214 2.5445,0.0518 4.4655,-0.4139 6.2825,-2.3802 l 0.078,0.7805 c 0,1.6558 -0.597,2.8416 -1.687,4.0317 -2.8042,3.2081 -7.6851,2.225 -9.4505,-1.6041 l -4.2059,1.6041 c 4.6732,10.9697 19.6794,7.4511 19.8354,-4.3982 0,-6.1576 0,-13.9191 0,-20.0249 z"
       fill="#245efe"
       id="path55" />
  </g>
  <defs
     id="defs62">
    <clipPath
       id="clip0_202_560">
      <rect
         width="215"
         height="48"
         fill="#ffffff"
         id="rect59"
         x="0"
         y="0" />
    </clipPath>
  </defs>
</svg>
