<?xml version="1.0" encoding="utf-8"?>
<!-- Generator: Adobe Illustrator 24.0.2, SVG Export Plug-In . SVG Version: 6.00 Build 0)  -->
<svg version="1.2" baseProfile="tiny" id="Layer_1" xmlns="http://www.w3.org/2000/svg" xmlns:xlink="http://www.w3.org/1999/xlink"
	 x="0px" y="0px" viewBox="0 0 93.5 25.9" xml:space="preserve">
<linearGradient id="Logo_1_" gradientUnits="userSpaceOnUse" x1="19.5344" y1="42.32" x2="69.4833" y2="-17.2068">
	<stop  offset="0" style="stop-color:#E14A55"/>
	<stop  offset="1" style="stop-color:#8E278F"/>
</linearGradient>
<path id="Logo_7_" fill-rule="evenodd" fill="url(#Logo_1_)" d="M89.1,9.7c-0.9,0.4-1.8,0.7-2.7,0.9l-1.6,0.4
	c-0.8,0.2-1.4,0.5-1.8,0.9c-0.3,0.5-0.5,1-0.5,1.5c0,0.6,0.2,1.2,0.6,1.7c0.4,0.4,1,0.6,1.8,0.6c1.3,0,2.3-0.4,3-1.1
	c0.7-0.7,1.1-1.8,1.1-3.1V9.7L89.1,9.7L89.1,9.7z M90.2,18.3c-1,0.5-2,0.8-3.1,0.9c-0.9,0.1-1.9,0.2-2.9,0.2c-1.6,0-3.1-0.5-4.3-1.4
	c-1.2-0.9-1.9-2.4-1.9-4.5c0-2,0.6-3.4,1.7-4.2c1.1-0.8,2.6-1.4,4.3-1.7c0.3,0,0.6,0,0.8-0.1c0.4-0.1,0.7-0.1,1.1-0.2
	c2-0.3,3-0.9,3-1.8c0-0.7-0.4-1.2-1.1-1.4c-0.6-0.2-1.3-0.3-2-0.3c-0.6,0-1.2,0.1-1.7,0.3c-0.5,0.2-0.9,0.6-1.1,1.1h-4.6
	c0.2-1.4,0.8-2.7,1.9-3.6c1.2-1.1,3-1.6,5.3-1.6c2.6,0,4.5,0.4,5.8,1.3c1.3,0.9,2,2.2,2,3.9v6.4c0,1.9-0.3,3.3-1,4.4
	C92,17,91.2,17.8,90.2,18.3z M67.7,19.1v-9c0-1.8,0.3-3.4,0.8-4.6c0.5-1.2,1.2-2.2,2.2-3c0.9-0.7,1.9-1.2,3.1-1.5
	c1.2-0.3,2.4-0.5,3.6-0.5H78v5h-1.6c-1.3,0-2.3,0.3-3,1c-0.6,0.7-1,1.7-1,3.1v9.6L67.7,19.1L67.7,19.1z M62.5,9.7
	c-0.9,0.4-1.8,0.7-2.7,0.9l-1.6,0.4c-0.8,0.2-1.4,0.5-1.8,0.9c-0.3,0.5-0.5,1-0.5,1.5c0,0.6,0.2,1.2,0.6,1.7c0.4,0.4,1,0.6,1.8,0.6
	c1.3,0,2.3-0.4,3-1.1c0.7-0.7,1.1-1.8,1.1-3.1L62.5,9.7L62.5,9.7L62.5,9.7z M63.6,18.3c-1,0.5-2,0.8-3.1,0.9
	c-0.9,0.1-1.9,0.2-2.9,0.2c-1.6,0-3.1-0.5-4.3-1.4c-1.2-0.9-1.9-2.4-1.9-4.5c0-2,0.6-3.4,1.7-4.2s2.6-1.4,4.3-1.7
	c0.3,0,0.6,0,0.8-0.1c0.4-0.1,0.7-0.1,1.1-0.2c2-0.3,3-0.9,3-1.8c0-0.7-0.4-1.2-1.1-1.4c-0.6-0.2-1.3-0.3-2-0.3
	c-0.6,0-1.2,0.1-1.7,0.3c-0.5,0.2-0.9,0.6-1.1,1.1H52c0.2-1.4,0.8-2.7,1.9-3.6c1.2-1.1,3-1.6,5.3-1.6c2.6,0,4.5,0.4,5.8,1.3
	c1.3,0.9,2,2.2,2,3.9v6.4c0,1.9-0.3,3.3-1,4.4C65.4,17,64.6,17.8,63.6,18.3L63.6,18.3z M46.4,9.8c0-1.8-0.3-3.2-1-4.2
	c-0.7-1-1.7-1.5-3-1.5c-1.2,0-2.2,0.5-2.9,1.5c-0.6,0.9-1,2.3-1,4.2c0,1.8,0.3,3.1,1,4c0.7,1,1.7,1.5,3,1.5c1.1,0,2.2-0.5,2.8-1.5
	C46,12.8,46.4,11.5,46.4,9.8L46.4,9.8z M38.5,23.5c0,0.6-0.2,1.2-0.7,1.7c-0.4,0.5-1,0.7-1.7,0.7h-2.3V8.5c0-3.3,0.9-5.5,2.8-6.7
	c1.8-1.2,4-1.8,6.1-1.8c1.2,0,2.4,0.2,3.5,0.7c1.1,0.4,2,1,2.8,1.9c1.4,1.8,2.1,4.2,2.1,7c0,2.9-0.7,5.3-2.1,7.1
	c-1.4,1.8-3.1,2.7-5.3,2.7c-1,0-2.1-0.2-3-0.6c-0.9-0.5-1.7-1.2-2.2-2.2L38.5,23.5L38.5,23.5L38.5,23.5z M28.7,9.7
	c-0.9,0.4-1.8,0.7-2.7,0.9l-1.6,0.3c-0.8,0.2-1.4,0.5-1.8,0.9c-0.3,0.5-0.5,1-0.5,1.5c0,0.6,0.2,1.2,0.6,1.7c0.4,0.4,1,0.6,1.8,0.6
	c1.3,0,2.3-0.4,3-1.1c0.7-0.7,1.1-1.8,1.1-3.1L28.7,9.7L28.7,9.7z M29.8,18.3c-1,0.5-2,0.8-3.1,0.9c-0.9,0.1-1.9,0.2-2.9,0.2
	c-1.6,0-3.1-0.5-4.3-1.4c-1.2-0.9-1.9-2.4-1.9-4.5c0-2,0.6-3.4,1.7-4.2c1.1-0.8,2.6-1.4,4.3-1.7c0.3,0,0.6,0,0.8-0.1
	c0.3-0.1,0.7-0.1,1.1-0.2c2-0.3,3-0.9,3-1.8c0-0.7-0.4-1.2-1.1-1.4c-0.6-0.2-1.3-0.3-2-0.3c-0.6,0-1.2,0.1-1.7,0.3
	c-0.5,0.2-0.9,0.6-1.1,1.1h-4.6c0.2-1.4,0.8-2.7,1.9-3.6c1.2-1.1,3-1.6,5.3-1.6c2.6,0,4.5,0.4,5.8,1.3c1.3,0.9,2,2.2,2,3.9v6.4
	c0,1.9-0.3,3.3-1,4.4C31.6,17,30.8,17.8,29.8,18.3L29.8,18.3z M4.7,23.5c0,0.6-0.2,1.2-0.7,1.7c-0.4,0.5-1,0.7-1.7,0.7H0V8.5
	C0,5.2,0.9,3,2.8,1.8C4.6,0.6,6.8,0,8.9,0c1.2,0,2.4,0.2,3.5,0.7c1.1,0.4,2,1,2.8,1.9c1.4,1.8,2.1,4.2,2.1,7c0,2.9-0.7,5.3-2.1,7.1
	c-1.4,1.8-3.1,2.7-5.3,2.7c-1,0-2.1-0.2-3-0.6c-0.9-0.5-1.7-1.2-2.2-2.2L4.7,23.5L4.7,23.5z M12.5,9.8c0-1.8-0.3-3.2-1-4.2
	c-0.7-1-1.7-1.5-3-1.5c-1.2,0-2.2,0.5-2.9,1.5c-0.6,0.9-1,2.3-1,4.2c0,1.8,0.3,3.1,1,4c0.7,1,1.7,1.5,3,1.5c1.1,0,2.2-0.5,2.8-1.5
	C12.2,12.8,12.5,11.5,12.5,9.8L12.5,9.8z"/>
<g>
</g>
<g>
</g>
<g>
</g>
<g>
</g>
<g>
</g>
<g>
</g>
</svg>
