<svg xmlns="http://www.w3.org/2000/svg" width="1200" height="900" fill="none" xmlns:v="https://vecta.io/nano"><rect width="1200" height="900" rx="124" fill="#d20032"/><path d="M466.888 219.591l-24.942 30.089L465.9 369.787l24.941-30.089-23.953-120.107zM733.584 208l33.09 39.707-26.669 132.684h-278.55l-26.67-132.684L467.875 208l66.428 66.342L600.73 208l66.427 66.342L733.584 208zm-22.965 131.698l24.941 30.089 23.953-120.107-24.941-30.089-23.953 120.107zm-211.876.987l-27.657 33.048h259.041l-27.657-33.048H498.743zm309.13 291.756V499.756h39.758v132.685h-39.758zm-92.85-91.745l35.313-40.94h49.388l-44.449 46.366 42.968 86.319h-43.956l-26.67-57.217-12.347 13.071v44.146h-39.757v-179.05h39.757v87.305h-.247zm-511.169 91.745v-179.05h39.758v179.05h-39.758zm119.52-26.636c8.149 0 16.051-2.713 21.484-9.865s8.396-18.743 8.396-29.841-2.963-22.69-8.396-29.842-13.335-9.865-21.484-9.865-16.051 2.713-21.484 9.865-8.396 18.743-8.396 29.842 2.964 22.689 8.396 29.841c5.186 7.152 13.088 9.865 21.484 9.865zm0 29.842c-19.261 0-37.782-4.932-50.376-17.51s-19.508-33.048-19.508-52.285 6.914-39.707 19.508-52.285 31.115-17.51 50.376-17.51 37.782 4.932 50.376 17.51 19.509 33.048 19.509 52.285-6.915 39.707-19.509 52.285c-12.841 12.824-31.114 17.51-50.376 17.51zm272.13-29.842c8.149 0 16.051-2.713 21.484-9.865s8.396-18.743 8.396-29.841-2.964-22.69-8.396-29.842-13.335-9.865-21.484-9.865-16.052 2.713-21.484 9.865-8.396 18.743-8.396 29.842 2.963 22.689 8.396 29.841 13.335 9.865 21.484 9.865zm0 29.842c-19.262 0-37.782-4.932-50.376-17.51s-19.509-33.048-19.509-52.285 6.915-39.707 19.509-52.285 31.114-17.51 50.376-17.51 37.782 4.932 50.376 17.51 19.508 33.048 19.508 52.285-6.914 39.707-19.508 52.285c-12.594 12.824-31.115 17.51-50.376 17.51zm305.466-89.525v86.319h-39.757V499.756h38.029l.74 12.825h.988c1.729-1.973 3.457-3.7 5.68-5.426 11.359-8.878 19.014-10.851 31.855-10.851s24.694 2.959 33.09 10.851 12.347 20.47 12.347 32.308v92.731h-39.757v-88.785-1.233c0-4.686-2.223-9.372-5.927-12.331-3.951-2.96-9.63-3.453-15.557-3.453s-10.618 1.726-15.557 6.412c-5.186 4.686-6.174 8.879-6.174 13.318zm-424.986 43.899v-43.899h39.758v43.653h-.247c-.988 12.578-6.421 25.156-15.558 33.294-10.124 8.879-25.188 12.331-40.745 12.331s-30.621-3.452-40.745-12.331c-9.137-8.138-14.57-20.716-15.558-33.294V453.391h39.758v46.365h73.095v26.636h-73.095v63.629c.247 4.44 1.728 8.879 4.692 11.838s7.408 4.193 11.853 4.193c4.692 0 8.89-1.233 11.853-4.193 3.21-2.959 4.692-7.398 4.939-11.838zm614.146-24.416c0-10.851-2.72-22.196-7.9-29.348-5.19-7.152-12.6-9.865-20.25-9.865-7.91 0-15.31 2.713-20.25 9.865-5.19 7.152-7.91 18.743-7.91 29.842s2.72 22.689 7.91 29.841c5.18 7.152 12.59 9.865 20.25 9.865 7.9 0 15.31-2.713 20.25-9.865 4.93-7.152 7.9-18.497 7.9-29.348v-.987zm0-50.805v-15.044h39.75v126.026c0 16.524-1.97 33.788-17.53 50.065-11.36 11.592-31.61 16.277-50.37 16.277-18.77 0-37.79-3.206-50.13-13.811-10.62-9.371-16.301-24.416-17.783-39.213h37.533c.74 6.166 2.97 12.085 6.92 16.031 5.43 5.425 13.33 7.152 21.48 7.152s16.05-1.973 21.48-7.399c5.44-5.426 8.4-14.058 8.4-22.443v-15.044c-.25.246-.49.493-.49.74-8.89 12.578-22.23 17.51-35.81 17.51-16.55 0-32.35-4.932-43.21-17.51-10.87-12.578-16.55-33.048-16.55-52.285s5.927-39.707 16.55-52.285c10.86-12.578 26.66-17.51 43.21-17.51 13.83 0 26.92 4.932 35.81 17.51.49.74.49.987.74 1.233zm-966.038 66.343c-.493-.247-1.234-.247-1.728-.493h-.247c-12.347-3.453-23.46-7.153-31.856-13.318-10.618-7.892-16.298-17.511-16.298-29.349s5.927-23.922 16.545-31.568c10.619-7.892 25.435-9.865 41.487-9.865s31.361 3.206 41.98 11.098 16.298 19.977 16.298 32.062h-37.535c0-4.686-1.976-9.372-5.433-12.332-3.704-2.959-7.902-4.192-13.335-4.192s-10.865.74-14.323 2.959c-3.704 2.22-5.432 5.426-5.432 8.632s1.975 5.673 5.432 7.399c.988.493 1.976.986 3.211 1.233l35.559 10.852.741.246c6.667 1.973 12.594 4.439 17.533 7.892 11.359 7.892 17.039 18.497 17.039 30.335s-4.939 23.183-15.804 32.062-28.646 11.098-45.685 11.098-33.09-3.206-44.202-11.098S71 604.819 71 592.734h40.005v1.727c0 4.192 2.469 7.892 6.42 10.605s11.112 4.439 15.31 4.439h1.729c5.433-.247 10.371-.987 13.829-2.96 3.951-2.219 7.655-4.932 7.655-10.111 0-3.7-1.729-6.906-7.655-8.632-1.482-.494-2.717-.74-3.951-.987l-20.25-5.672z" fill-rule="evenodd" fill="#ffe600"/></svg>