<?xml version="1.0" encoding="UTF-8" standalone="no"?>
<svg
   id="Layer_1"
   data-name="Layer 1"
   viewBox="0 0 245.7064 238.04274"
   version="1.1"
   sodipodi:docname="icon.svg"
   width="245.70641"
   height="238.04274"
   inkscape:version="1.4.2 (2aeb623e1d, 2025-05-12)"
   xmlns:inkscape="http://www.inkscape.org/namespaces/inkscape"
   xmlns:sodipodi="http://sodipodi.sourceforge.net/DTD/sodipodi-0.dtd"
   xmlns="http://www.w3.org/2000/svg"
   xmlns:svg="http://www.w3.org/2000/svg">
  <sodipodi:namedview
     id="namedview10"
     pagecolor="#ffffff"
     bordercolor="#000000"
     borderopacity="0.25"
     inkscape:showpageshadow="2"
     inkscape:pageopacity="0.0"
     inkscape:pagecheckerboard="0"
     inkscape:deskcolor="#d1d1d1"
     showgrid="false"
     inkscape:zoom="0.84479167"
     inkscape:cx="429.69174"
     inkscape:cy="179.33416"
     inkscape:window-width="1862"
     inkscape:window-height="1016"
     inkscape:window-x="1978"
     inkscape:window-y="27"
     inkscape:window-maximized="1"
     inkscape:current-layer="_1573723684768" />
  <defs
     id="defs1">
    <style
       id="style1">
      .cls-1 {
        fill: #210e5f;
      }

      .cls-1, .cls-2, .cls-3, .cls-4 {
        fill-rule: evenodd;
      }

      .cls-1, .cls-2, .cls-3, .cls-4, .cls-5 {
        stroke-width: 0px;
      }

      .cls-2, .cls-5 {
        fill: #211060;
      }

      .cls-3 {
        fill: #fff;
      }

      .cls-4 {
        fill: #1dcea0;
      }
    </style>
  </defs>
  <g
     id="Layer_1-2"
     data-name="Layer_1"
     transform="translate(-49.1275,-95.90461)">
    <g
       id="_1573723684768"
       data-name=" 1573723684768">
      <path
         class="cls-4"
         d="m 112.19,180.98 c 1.42,-1.5 2.37,-4.35 6.33,-9.58 8.78,-11.71 22.79,-22.16 41.47,-26.59 41.39,-9.89 74.86,18.2 84.36,48.59 13.06,41.47 -12.5,76.28 -41.62,88.15 -18.36,7.44 -39.49,6.73 -56.9,-1.27 -17.57,-8.15 -23.9,-17.09 -33.16,-31.02 H 62.18 c 0.79,9.89 13.06,30.23 17.41,35.93 71.46,94.09 216.11,42.1 215.24,-71.61 C 294.36,152.09 248.14,105.17 192.2,97.1 c -34.03,-4.83 -64.65,5.54 -85.86,20.97 -9.97,7.2 -20.65,17.65 -27.7,27.7 -3.72,5.22 -6.81,10.68 -9.97,17.01 -1.66,3.4 -2.77,5.86 -4.27,9.97 -2.14,5.46 -2.53,7.52 -2.29,8.23 h 50.09 z"
         id="path1" />
      <path
         class="cls-1"
         d="m 97.24,235.02 13.06,-0.32 0.55,-39.57 H 50 c -1.19,8.15 -1.11,32.05 -0.08,39.88 h 47.32 z"
         id="path5" />
    </g>
  </g>
</svg>
