<?xml version="1.0" encoding="UTF-8" standalone="no"?>
<svg
   id="Layer_1"
   data-name="Layer 1"
   viewBox="0 0 861.74249 285.3754"
   version="1.1"
   sodipodi:docname="logo.svg"
   width="861.74249"
   height="285.3754"
   inkscape:version="1.4.2 (2aeb623e1d, 2025-05-12)"
   xmlns:inkscape="http://www.inkscape.org/namespaces/inkscape"
   xmlns:sodipodi="http://sodipodi.sourceforge.net/DTD/sodipodi-0.dtd"
   xmlns="http://www.w3.org/2000/svg"
   xmlns:svg="http://www.w3.org/2000/svg">
  <sodipodi:namedview
     id="namedview10"
     pagecolor="#ffffff"
     bordercolor="#000000"
     borderopacity="0.25"
     inkscape:showpageshadow="2"
     inkscape:pageopacity="0.0"
     inkscape:pagecheckerboard="0"
     inkscape:deskcolor="#d1d1d1"
     showgrid="false"
     inkscape:zoom="0.84479167"
     inkscape:cx="429.69174"
     inkscape:cy="179.33416"
     inkscape:window-width="1862"
     inkscape:window-height="1016"
     inkscape:window-x="1978"
     inkscape:window-y="27"
     inkscape:window-maximized="1"
     inkscape:current-layer="_1573723684768" />
  <defs
     id="defs1">
    <style
       id="style1">
      .cls-1 {
        fill: #210e5f;
      }

      .cls-1, .cls-2, .cls-3, .cls-4 {
        fill-rule: evenodd;
      }

      .cls-1, .cls-2, .cls-3, .cls-4, .cls-5 {
        stroke-width: 0px;
      }

      .cls-2, .cls-5 {
        fill: #211060;
      }

      .cls-3 {
        fill: #fff;
      }

      .cls-4 {
        fill: #1dcea0;
      }
    </style>
  </defs>
  <g
     id="Layer_1-2"
     data-name="Layer_1"
     transform="translate(-49.1275,-95.90461)">
    <g
       id="_1573723684768"
       data-name=" 1573723684768">
      <path
         class="cls-4"
         d="m 112.19,180.98 c 1.42,-1.5 2.37,-4.35 6.33,-9.58 8.78,-11.71 22.79,-22.16 41.47,-26.59 41.39,-9.89 74.86,18.2 84.36,48.59 13.06,41.47 -12.5,76.28 -41.62,88.15 -18.36,7.44 -39.49,6.73 -56.9,-1.27 -17.57,-8.15 -23.9,-17.09 -33.16,-31.02 H 62.18 c 0.79,9.89 13.06,30.23 17.41,35.93 71.46,94.09 216.11,42.1 215.24,-71.61 C 294.36,152.09 248.14,105.17 192.2,97.1 c -34.03,-4.83 -64.65,5.54 -85.86,20.97 -9.97,7.2 -20.65,17.65 -27.7,27.7 -3.72,5.22 -6.81,10.68 -9.97,17.01 -1.66,3.4 -2.77,5.86 -4.27,9.97 -2.14,5.46 -2.53,7.52 -2.29,8.23 h 50.09 z"
         id="path1"
         sodipodi:nodetypes="cccccccccccccccccc" />
      <path
         class="cls-2"
         d="m 432.44,153.12 c 29.52,0 50.57,31.26 38.46,62.44 -12.27,31.49 -44.47,25.56 -81.51,25.48 v -86.25 l 43.05,-1.66 z m -86.89,179.63 43.21,0.79 0.71,-48.51 c 44.63,-3.8 66.15,7.68 98.92,-20.18 46.45,-39.49 39.88,-124.63 -27.22,-150.51 -16.78,-6.49 -36.95,-4.91 -55.79,-4.91 -11.24,0 -34.42,0.08 -59.74,0.87 l -0.08,222.44 z"
         id="path2" />
      <path
         class="cls-2"
         d="m 614.92,200.28 c 29.04,-7.12 50.96,12.27 56.5,34.34 6.96,27.62 -12.82,50.49 -33.79,55.71 -60.06,14.96 -82.38,-75.49 -22.71,-90.05 z m 64.65,-26.27 c -14.48,-7.99 -22,-15.11 -43.52,-17.01 -49.22,-4.43 -94.17,28.88 -98.44,82.14 -5.06,61.96 55.31,107.54 111.1,91.87 6.01,-1.66 17.25,-7.12 20.65,-7.44 l 0.79,9.97 c 7.36,0.87 14.96,0.4 22.32,0.4 13.69,0 10.05,0.95 20.89,-1.35 l -0.55,-174.41 c -3.09,-1.74 -4.35,-0.4 -5.06,-0.08 -0.08,0 -3.17,1.9 -3.72,2.29 L 679.58,174 Z"
         id="path3" />
      <path
         class="cls-2"
         d="m 771.76,380.15 c 6.57,1.35 39.88,1.82 44.23,-0.47 4.43,-2.53 11,-21.6 12.9,-26.19 4.04,-9.34 7.91,-18.52 12.03,-27.93 l 69.95,-168 -38.38,-0.32 c -7.83,0 -7.68,1.98 -10.29,8.39 -1.98,4.75 -3.64,8.63 -5.62,13.22 l -31.18,72.33 c -0.32,0.63 -1.19,2.77 -1.5,3.24 l -1.98,2.77 -39.25,-91.4 c -4.51,-11.08 -3.56,-8.55 -32.52,-8.55 -24.77,0 -21.05,-7.04 2.53,50.25 l 42.65,99.71 c 3.56,8.07 3.4,7.04 -0.16,15.04 -3.56,8.07 -24.14,52.78 -23.42,57.92 z"
         id="path4" />
      <path
         class="cls-1"
         d="m 97.24,235.02 13.06,-0.32 0.55,-39.57 H 50 c -1.19,8.15 -1.11,32.05 -0.08,39.88 h 47.32 z"
         id="path5" />
    </g>
  </g>
</svg>
