<?xml version="1.0" encoding="UTF-8"?>
<!DOCTYPE svg  PUBLIC '-//W3C//DTD SVG 1.1//EN'  'http://www.w3.org/Graphics/SVG/1.1/DTD/svg11.dtd'>
<svg class="icon" height="512" version="1.1" viewBox="0 0 1024 1024" xmlns="http://www.w3.org/2000/svg">
<path d="m170.57 548.2l-3.39 19.213h101.71l4.52-19.213h-102.84zm258.8 19.213l3.392-19.213h-115.27l-4.52 19.213h116.4zm64.419-97.19l-15.821 77.978-4.522 19.213-15.821 77.98h-160.48l-3.39 18.081h187.6l24.863-115.27 15.821-77.978h224.9l-16.951 77.978h-179.69l-40.686 193.25h-232.81l-3.39 18.081h261.06l24.863-114.14 15.824-77.98h151.44l-15.824 77.98h-107.36l-23.733 114.14-16.951 77.98h-350.34l40.684-192.12h-146.92l16.951-77.98 3.392-19.213 16.951-77.978h145.79l40.684-192.12h160.48l20.34-97.193h297.23l-16.953 77.98h-253.15l-3.392 19.213-15.821 77.978h-160.48l-4.52 18.083h188.73l3.39-18.083 16.953-77.978h224.9l-16.953 77.978h-179.69l-20.343 96.061h-232.81l-4.522 18.083h160.48z" fill="#007F3E"/>
</svg>
