<?xml version="1.0" encoding="utf-8"?>
<!-- Generator: Adobe Illustrator 22.0.1, SVG Export Plug-In . SVG Version: 6.00 Build 0)  -->
<svg version="1.1" id="Слой_1" xmlns="http://www.w3.org/2000/svg" xmlns:xlink="http://www.w3.org/1999/xlink" x="0px" y="0px"
	 viewBox="0 0 140 80" style="enable-background:new 0 0 140 80;" xml:space="preserve">
<style type="text/css">
	.st0{fill:#0072B8;}
</style>
<g>
	<path class="st0" d="M122,21.6c2.6,0,5.3,0.5,7.7,1.9c0.2,0.2,0.7,0.2,1,0.5l-1.7,1.4l-2.4-2.4l-4.1,3.8l-2.4-2.6l-7.7,7l4.8,5.3
		l-1.9,1.7l4.8,5.3l-1.9,1.7l7,7.7l4.1-3.8l3.4,4.1c-0.7,0.5-1.7,1-2.4,1.7c-2.6,1.4-5.5,2.4-8.9,2.4c-9.6,0-17.5-7.9-17.5-17.5
		C105,29.5,112.7,21.6,122,21.6L122,21.6z"/>
	<polygon class="st0" points="118.9,38.2 123.2,34.3 126.8,38.6 123,42.2 	"/>
	<polygon class="st0" points="122,45.3 126.1,41.5 129.9,45.8 125.9,49.4 	"/>
	<polygon class="st0" points="116,31 120.3,27.1 123.9,31.4 119.9,35 	"/>
	<polygon class="st0" points="123.7,29 126.8,26.2 129.5,29.3 126.6,31.9 	"/>
	<polygon class="st0" points="129.2,41.8 132.6,38.9 135.2,42 131.8,44.9 	"/>
	<polygon class="st0" points="131.8,48.2 135.2,45.3 138.1,48.5 135,51.3 	"/>
	<polygon class="st0" points="133.3,33.6 135.4,31.7 137.4,33.8 135.2,35.8 	"/>
	<polygon class="st0" points="130.7,27.4 132.8,25.7 134.7,27.6 132.6,29.5 	"/>
	<polygon class="st0" points="135.9,39.8 138.1,38.2 140,39.8 137.8,42 	"/>
	<polygon class="st0" points="126.6,35 129.9,32.4 132.6,35.5 129.2,38.4 	"/>
</g>
<g>
	<path class="st0" d="M7.9,36.2L7.9,36.2L5.3,46.3H3.1L0,32.2h2.2l2.2,10.5h0.2l2.6-10.5h1.9l2.6,10.5H12l2.2-10.5h2.4l-3.1,14.1
		h-2.2L7.9,36.2z"/>
	<path class="st0" d="M24.9,43.9v1.7c-0.7,0.5-2.2,0.7-3.4,0.7c-3.4,0-4.8-2.2-4.8-5.3c0-2.9,1.7-5.3,4.6-5.3c2.4,0,4.1,1.7,4.1,4.8
		v0.7h-6.7c0,2.4,1,3.4,2.9,3.4C22.8,44.9,24,44.6,24.9,43.9z M18.9,40.3h4.6c0-2.2-1-2.9-2.2-2.9C19.9,37.2,19.2,38.2,18.9,40.3z"
		/>
	<path class="st0" d="M29.2,36.7c0.5-0.2,1.7-0.7,2.6-0.7c2.4,0,3.8,1.7,3.8,5c0,3.8-1.9,5.5-4.8,5.5c-1,0-2.6-0.2-4.1-1V31.4L29,31
		L29.2,36.7L29.2,36.7z M29.2,44.6c0.5,0.2,1.4,0.2,1.9,0.2c1.7,0,2.6-0.7,2.6-4.3c0-2.6-0.7-3.4-2.2-3.4c-0.7,0-1.4,0.2-2.2,0.5
		C29.2,38.2,29.2,44.6,29.2,44.6z"/>
	<path class="st0" d="M44.8,43.2L44.8,43.2l4.3-11.3h2.4v14.1h-2.2V35.8h-0.2l-4.1,10.3h-1.2L39.8,36h-0.2v10.1h-1.9V31.9H40
		L44.8,43.2z"/>
	<path class="st0" d="M53.9,41c0-3.4,1.9-5.3,4.6-5.3c2.6,0,4.6,1.9,4.6,5.3c0,3.4-1.9,5.3-4.6,5.3C55.9,46.3,53.9,44.4,53.9,41z
		 M60.9,41c0-2.6-1-3.8-2.4-3.8c-1.4,0-2.4,1-2.4,3.8c0,2.6,1,3.8,2.4,3.8C59.7,44.9,60.9,43.9,60.9,41z"/>
	<path class="st0" d="M64.7,37.2c0.7-0.5,2.9-1.7,5-1.7c2.4,0,3.1,1,3.1,2.9v7.2h-2.2v-7c0-1.7-0.7-1.9-1.9-1.9
		c-0.7,0-1.9,0.2-2.4,0.7v7.9h-2.2C64.7,46.1,64.7,37.2,64.7,37.2z"/>
	<path class="st0" d="M83.4,43.9v1.7c-0.7,0.5-2.2,0.7-3.4,0.7c-3.4,0-4.8-2.2-4.8-5.3c0-2.9,1.7-5.3,4.6-5.3c2.4,0,4.1,1.7,4.1,4.8
		v0.7h-6.7c0,2.4,1,3.4,2.9,3.4C81.3,44.9,82.2,44.6,83.4,43.9z M77.2,40.3h4.6c0-2.2-1-2.9-2.2-2.9C78.4,37.2,77.4,38.2,77.2,40.3z
		"/>
	<path class="st0" d="M91.3,36.2h2.2l-3.8,10.1c-1,2.6-2.2,4.3-4.6,4.3v-1.7c1.4,0,2.2-1,2.6-2.6l-3.8-10.1h2.2l2.6,7.4l0,0
		L91.3,36.2z"/>
</g>
</svg>
