<svg xmlns="http://www.w3.org/2000/svg" fill="none" viewBox="0 0 84.87 47" style="max-height: 500px" width="84.87" height="47">
<path fill="#EA1E1E" d="M32.2481 0H40.4817L24.3576 16.1241L24.0159 16.4695L41.1676 33.7927H32.4194L19.7502 20.781L8.40509 32.2482L0 32.0766L32.2481 0ZM71.1434 0.171402H48.5435L42.8829 6.00352H72.0434V1.07141C72.0434 0.574348 71.6405 0.171402 71.1434 0.171402ZM72.0435 6.00396H65.8684V30.7047L72.0435 24.1864V6.00396ZM52.8321 18.8686L59.0072 12.5219V47L52.8321 40.6533V18.8686Z" clip-rule="evenodd" fill-rule="evenodd"/>
<rect fill="#EA1E1E" height="47" width="2" x="82.0435"/>
<path fill="black" d="M100.826 7.24812V14.9895L94.0435 21.9368V7.24812H100.826ZM122.48 37.8165L124.66 40H115.068L114.681 39.6526L103.878 28.5368L100.826 31.6632V40H94.0435V28.785L104.943 17.6195V17.5699L115.068 7.24812H124.66L122.48 9.4812L108.674 23.6241L122.48 37.8165Z"/>
<path fill="black" d="M129.501 38.0647L140.014 18.6617L144.277 26.5023L137.349 39.3549L137.01 40H128.484L129.501 38.0647ZM164.478 38.0647L165.495 40H156.969L156.63 39.3549L150.235 27.5444L147.086 21.7383L146.99 21.5398L142.726 13.6496L143.066 13.0045L145.827 7.84361L146.166 7.14887H147.813L148.104 7.84361L150.913 13.0045L164.478 38.0647Z"/>
<path fill="black" d="M176.188 33.0526H194.839V40H169.406V7H176.188V33.0526Z"/>
<path fill="black" d="M211.411 7.34737C220.179 7.34737 227.349 14.6917 227.349 23.6737C227.349 32.7053 220.179 40 211.411 40C202.594 40 195.473 32.7053 195.473 23.6737C195.473 14.6917 202.594 7.34737 211.411 7.34737ZM220.663 23.6737C220.663 18.4632 216.497 14.1955 211.411 14.1955C206.276 14.1955 202.109 18.4632 202.109 23.6737C202.109 28.9338 206.276 33.2015 211.411 33.2015C216.497 33.2015 220.663 28.9338 220.663 23.6737Z"/>
<path fill="black" d="M232.231 40V21.9865L239.013 28.9338V40H232.231ZM251.366 7.1985H258.149V40H256.501L251.706 35.0872L243.664 26.8496L239.013 22.0857L232.231 15.1383V10.9699V7.84361V7H233.878L251.366 24.8647V7.1985Z"/>
<path fill="black" d="M303.899 7.74436C307.532 9.03459 310.051 12.5083 310.051 16.5774C310.051 18.9594 309.228 21.2421 307.629 22.9293C306.709 23.9714 305.546 24.7654 304.287 25.3113C304.287 25.3113 304.238 25.3609 303.027 25.6586C301.816 25.9564 301.622 25.9564 301.622 25.9564H290.674V40H283.892V18.9594H290.674H300.944C302.252 18.9594 303.269 17.9173 303.269 16.5774C303.269 15.2872 302.252 14.1955 300.944 14.1955C300.896 14.1955 300.847 14.1955 300.799 14.1955L300.75 14.2451H299.636V14.1955H283.892V8.53835V7.24812H301.38C301.38 7.24812 302.107 7.34737 302.785 7.44662C303.463 7.59549 303.899 7.74436 303.899 7.74436Z"/>
<path fill="black" d="M306.908 38.0647L317.42 18.6617L321.683 26.5023L314.755 39.3549L314.416 40H305.89L306.908 38.0647ZM341.884 38.0647L342.901 40H334.375L334.036 39.3549L327.641 27.5444L324.493 21.7383L324.396 21.5398L320.133 13.6496L320.472 13.0045L323.233 7.84361L323.572 7.14887H325.219L325.51 7.84361L328.32 13.0045L341.884 38.0647Z"/>
<path fill="black" d="M359.663 7.14887H368.044L366.59 9.23308L356.078 23.9218L355.787 24.3684H355.739V24.418L355.497 24.7158V40H348.715V24.7654L348.472 24.418V24.3684H348.424L348.133 23.9218L337.621 9.23308L336.168 7.14887H344.548L344.936 7.69474L352.106 17.7188L359.275 7.69474L359.663 7.14887Z"/>
</svg>