<?xml version="1.0" encoding="utf-8"?>
<svg version="1.1" xmlns="http://www.w3.org/2000/svg" xmlns:xlink="http://www.w3.org/1999/xlink" x="0px" y="0px" viewBox="0 0 200 200" enable-background="new 0 0 200 200" xml:space="preserve">
<path fill="#24053c" d="m100.83 40c-10.139 0-19.671 3.3289-26.783 9.5332-7.2636 6.3556-11.35 14.831-11.35 24.213 0 5.2963 1.2096 10.288 3.3281 14.525 2.1185 3.9344 4.8429 7.2645 8.7773 10.291 6.6583 5.2963 14.83 8.6249 23.455 11.803 0.45397 0.15132 1.0588 0.30281 1.6641 0.60546 6.2043 2.2699 11.501 4.3894 14.83 6.8106 3.0265 2.1185 4.0859 4.5382 4.0859 8.1699 0 3.3291-1.2098 5.9019-3.9336 7.8691-2.8752 2.1185-7.5669 3.3301-12.863 3.3301-4.5397 0-9.2308-1.0592-13.619-3.1777-4.5397-2.1185-8.7773-5.4484-11.955-9.3828l-3.9336-4.9942-15.738 18.613 3.1777 3.4805c11.049 11.8 26.03 18.31 41.918 18.31 10.744 0 20.884-3.1784 28.299-8.7773 4.0858-3.1778 7.2634-6.9612 9.5332-11.35 2.2699-4.691 3.4805-9.8346 3.4805-15.434 0-10.29-3.4797-18.311-10.895-24.213-6.053-5.145-14.226-8.3232-22.852-11.652-0.90794-0.45397-1.967-0.75501-2.875-1.209-6.2043-2.2699-11.954-4.5398-15.586-6.9609-2.4212-1.8159-4.0859-3.7832-4.0859-7.2637 0.15132-7.7175 7.5663-10.441 13.922-10.441 6.8096 0 14.981 3.4793 22.547 9.6836l4.2383 3.4805 14.527-18.914-4.0859-3.1797c-11.2-9.079-24.06-13.769-37.23-13.769z" />
</svg>