<?xml version="1.0" encoding="UTF-8"?>
<svg class="icon" width="505.5" height="287.91" version="1.1" viewBox="0 0 505.49701 575.8269" xmlns="http://www.w3.org/2000/svg" xmlns:cc="http://creativecommons.org/ns#" xmlns:dc="http://purl.org/dc/elements/1.1/" xmlns:rdf="http://www.w3.org/1999/02/22-rdf-syntax-ns#">
<metadata>
<rdf:RDF>
<cc:Work rdf:about="">
<dc:format>image/svg+xml</dc:format>
<dc:type rdf:resource="http://purl.org/dc/dcmitype/StillImage"/>
<dc:title/>
</cc:Work>
</rdf:RDF>
</metadata>
<path d="m-77.877 138.7s129.6-179 341.33-67.795c0 0 108.19-74.373 244.46-70.783 15.39 0.586 123.6-0.61 160.46 52.336 17.875 26.762 16.091 60.046-14.834 85.631 0 0-146.88-117.14-508.43-5.374 0 0-52.337-28.526-119.57-23.746-63.054 4.739-103.42 29.73-103.42 29.73z" fill="#6eb730"/>
<path d="m550.3 445.93 113.07-198.85s-57.481-138.01-363.03-102.55c-272.78 31.965-431.14 192.19-431.14 192.19s180.34-102.9 410.16-47.954c190.62 45.599 270.94 157.16 270.94 157.16z" fill=""/>
<path d="m614.31 575.83 143.94-303.31s-73.173-210.51-462.14-156.43c-347.25 48.758-548.85 293.16-548.85 293.16s229.57-156.96 522.14-73.145c242.66 69.554 344.92 239.73 344.92 239.73z" fill="#00428e"/>
</svg>
