<svg width="32" height="32" viewBox="0 0 37 32" fill="none" xmlns="http://www.w3.org/2000/svg">
    <path d="M22.5591 0H14.2409L0 24.8163L4.18083 32H32.6192L36.8 24.8163L22.5591 0Z" fill="#FF1400"/>
    <path d="M29.5272 25.0775L28.3948 26.9932C18.4654 25.1646 8.40526 26.9932 8.31816 26.9932L6.53259 23.7714C6.57614 23.7279 12.499 17.1102 16.5492 6.26935H20.2074C19.9461 8.31561 18.9444 10.8408 18.7702 11.1455C16.5927 16.0653 14.241 19.9401 12.4119 22.5523C15.504 22.2911 19.7719 22.117 24.3882 22.5088C24.1269 22.1605 23.9092 21.8122 23.6914 21.551C22.6027 21.4639 20.9042 21.2898 17.8557 21.3768L16.1572 18.3728C16.2008 18.2857 19.1186 13.7578 20.8606 7.8367C21.601 9.70881 22.4285 11.4503 23.2124 13.0176C22.6027 14.6285 21.9494 16.1959 21.209 17.4585C23.2995 17.502 24.9544 17.6762 25.9996 17.8503C28.09 21.2027 29.832 23.2489 30.1804 23.6408C30.224 23.6843 30.224 23.7279 30.224 23.7714L29.5272 25.0775Z"
          fill="white"/>
</svg>
