<svg width="178" height="32" viewBox="0 0 178 32" fill="none" xmlns="http://www.w3.org/2000/svg">
    <path d="M62.6332 14.1542H60.8542L60.4539 14.8209V24.3765L60.8542 25.0431H62.6332L62.989 24.3765V14.8209L62.6332 14.1542Z"
          fill="black"/>
    <path d="M78.066 19.3098C78.5552 18.7765 78.8221 18.1098 78.8221 17.3098C78.8221 15.7987 77.8436 14.1542 75.0417 14.1542H67.2587L66.8584 14.8209V24.332L67.2587 24.9987H75.3086C77.7102 24.9987 79.2223 23.7542 79.2223 21.7098C79.2223 20.732 78.8221 19.8876 78.066 19.3098ZM69.4379 16.5098H74.9973C75.8868 16.5098 76.3315 16.8209 76.3315 17.3987C76.3315 18.1542 75.6199 18.2876 74.9973 18.2876H69.4379V16.5098ZM75.2641 22.6876H69.4379V20.6431H75.2641C75.9312 20.6431 76.6873 20.8209 76.6873 21.6653C76.7318 22.5098 75.9312 22.6876 75.2641 22.6876Z"
          fill="black"/>
    <path d="M93.8099 24.3765V23.3098L93.4541 22.6431H85.0929V20.7765H92.1643L92.5646 20.1098V19.0876L92.1643 18.4209H85.0929V16.5542H93.4541L93.8099 15.8876V14.8209L93.4541 14.1542H82.9581L82.5578 14.8209V24.3765L82.9581 25.0431H93.4541L93.8099 24.3765Z"
          fill="black"/>
    <path d="M109.732 24.5097L107.375 21.5764C108.575 20.9097 109.154 19.7542 109.154 18.1986C109.154 16.6875 108.531 14.1097 104.217 14.1097H97.6347L97.2344 14.7764V24.2875L97.6347 24.9542H99.3692L99.7695 24.2875V22.1986H104.217C104.439 22.1986 104.617 22.1986 104.795 22.1986L107.063 24.9542H109.42L109.732 24.5097ZM104.217 19.8875H99.7695V16.5097H104.217C106.619 16.5097 106.619 17.6653 106.619 18.1986C106.619 19.0431 106.352 19.8875 104.217 19.8875Z"
          fill="black"/>
    <path d="M57.0294 22.5987H48.935V14.8209L48.5792 14.1542H46.8003L46.4 14.8209V24.3765L46.8003 25.0431H57.0294L57.4297 24.3765V23.2653L57.0294 22.5987Z"
          fill="black"/>
    <path d="M149.359 24.4209L143.177 14.1542H141.131L134.949 24.4209L135.305 25.0431H137.439L138.863 22.6876H145.445L146.868 25.0431H149.003L149.359 24.4209ZM140.33 20.2876L142.154 17.3098L143.977 20.2876H140.33Z"
          fill="black"/>
    <path d="M126.721 18.4209C125.031 18.4209 123.875 18.2876 123.341 17.9765C123.119 17.8432 123.03 17.7543 123.03 17.3543C123.03 17.0876 123.03 16.332 126.677 16.332C129.39 16.332 130.101 16.732 130.235 17.0876L130.413 17.3987H131.035H132.014H132.414L132.77 16.8209C132.369 14.2876 129.345 13.932 126.632 13.932C123.741 13.932 120.406 14.332 120.406 17.3098C120.406 19.7098 122.096 20.5987 126.588 20.6432C130.457 20.6432 130.457 21.3098 130.457 21.7098C130.457 22.0209 130.457 22.7765 126.588 22.7765C123.652 22.7765 122.941 22.332 122.763 21.932L122.585 21.6209H121.962H120.984H120.584L120.228 22.1987C120.628 24.7765 123.786 25.132 126.588 25.132C129.568 25.132 132.992 24.732 132.992 21.7098C133.126 19.3543 131.391 18.4654 126.721 18.4209Z"
          fill="black"/>
    <path d="M163.324 14.1542H161.189L156.43 21.8876L151.716 14.1542H149.537L149.181 14.7765L155.407 25.0431H157.453L163.679 14.7765L163.324 14.1542Z"
          fill="black"/>
    <path d="M177.6 24.3765V23.3098L177.244 22.6431H168.883V20.7765H175.954L176.31 20.1098V19.0876L175.954 18.4209H168.883V16.5542H177.2L177.6 15.8876V14.8209L177.2 14.1542H166.704L166.303 14.8209V24.3765L166.704 25.0431H177.2L177.6 24.3765Z"
          fill="black"/>
    <path d="M22.5591 0H14.2409L0 24.8163L4.18083 32H32.6192L36.8 24.8163L22.5591 0Z" fill="#FF1400"/>
    <path d="M29.5272 25.0775L28.3948 26.9932C18.4654 25.1646 8.40526 26.9932 8.31816 26.9932L6.53259 23.7714C6.57614 23.7279 12.499 17.1102 16.5492 6.26935H20.2074C19.9461 8.31561 18.9444 10.8408 18.7702 11.1455C16.5927 16.0653 14.241 19.9401 12.4119 22.5523C15.504 22.2911 19.7719 22.117 24.3882 22.5088C24.1269 22.1605 23.9092 21.8122 23.6914 21.551C22.6027 21.4639 20.9042 21.2898 17.8557 21.3768L16.1572 18.3728C16.2008 18.2857 19.1186 13.7578 20.8606 7.8367C21.601 9.70881 22.4285 11.4503 23.2124 13.0176C22.6027 14.6285 21.9494 16.1959 21.209 17.4585C23.2995 17.502 24.9544 17.6762 25.9996 17.8503C28.09 21.2027 29.832 23.2489 30.1804 23.6408C30.224 23.6843 30.224 23.7279 30.224 23.7714L29.5272 25.0775Z"
          fill="white"/>
</svg>
