<?xml version="1.0" encoding="utf-8" standalone='no'?>
<!-- Generator: Adobe Illustrator 19.2.1, SVG Export Plug-In . SVG Version: 6.00 Build 0)  -->
<svg version="1.1" id="Layer_1" xmlns="http://www.w3.org/2000/svg" xmlns:xlink="http://www.w3.org/1999/xlink" x="0px" y="0px"
	 width="21.187px" height="25px" viewBox="0 0 21.187 25" style="enable-background:new 0 0 21.187 25;" xml:space="preserve">
<style type="text/css">
	.st0{fill:#FFB819;}
	.st1{fill:#231F20;}
	.st2{fill:#FFFFFF;}
	.st3{fill:#C11524;}
	.st4{fill-rule:evenodd;clip-rule:evenodd;fill:#006BB1;}
	.st5{fill-rule:evenodd;clip-rule:evenodd;fill:#F37121;}
	.st6{fill:#003887;}
	.st7{fill:#009DDF;}
	.st8{fill:url(#SVGID_1_);}
	.st9{fill:url(#SVGID_2_);}
	.st10{fill:url(#SVGID_3_);}
	.st11{fill:url(#SVGID_4_);}
	.st12{fill:url(#SVGID_5_);}
	.st13{fill:url(#SVGID_6_);}
	.st14{fill:#009BDE;}
	.st15{fill:#022169;}
	.st16{fill:#002F87;}
	.st17{fill:#F5921B;}
	.st18{fill:#0071BB;}
	.st19{fill:#2C9940;}
	.st20{fill:#226DBB;}
	.st21{fill:#D81928;}
	.st22{fill:#FF7404;}
	.st23{fill-rule:evenodd;clip-rule:evenodd;fill:#5269AF;}
	.st24{fill-rule:evenodd;clip-rule:evenodd;fill:#F9913C;}
	.st25{fill:#F14A43;}
	.st26{fill:#F46E40;}
	.st27{fill:#FA983C;}
	.st28{fill-rule:evenodd;clip-rule:evenodd;fill:#1A5EAB;}
	.st29{fill-rule:evenodd;clip-rule:evenodd;fill:#F8883E;}
	.st30{fill:#80726C;}
	.st31{fill:#FCFCFC;}
	.st32{fill:#CF4D16;}
	.st33{fill:#DF6210;}
	.st34{fill:#F14942;}
	.st35{fill-rule:evenodd;clip-rule:evenodd;fill:none;stroke:#FFFFFF;stroke-width:0.0623;}
	.st36{fill:#EB8341;}
	.st37{fill:#35A15B;}
	.st38{fill:#6B787F;}
	.st39{fill:url(#SVGID_7_);}
	.st40{fill:url(#SVGID_8_);}
	.st41{fill:#A40B34;}
	.st42{fill:#7C0023;}
	.st43{fill:url(#SVGID_9_);}
	.st44{fill:#6D8DA6;}
	.st45{fill:#242021;}
	.st46{fill:#231300;}
	.st47{fill:#5EBB57;}
	.st48{fill:#B04A4A;}
	.st49{fill:#E05145;}
	.st50{fill:#CF0A2C;}
	.st51{fill:#002856;}
	.st52{fill:#007078;}
</style>
<g>
	<g>
		<path class="st14" d="M19.093,6.352c0.305-1.945-0.002-3.268-1.054-4.467C16.881,0.565,14.789,0,12.112,0h-7.77
			C3.795,0,3.329,0.398,3.244,0.938L0.008,21.455c-0.064,0.405,0.249,0.771,0.659,0.771h4.797l-0.331,2.1
			C5.077,24.68,5.351,25,5.709,25h4.043c0.479,0,0.886-0.348,0.961-0.821l0.04-0.205l0.762-4.83l0.049-0.267
			c0.075-0.473,0.482-0.821,0.961-0.821h0.605c3.917,0,6.984-1.591,7.88-6.194c0.374-1.923,0.181-3.528-0.809-4.657
			C19.9,6.864,19.527,6.582,19.093,6.352L19.093,6.352"/>
		<path class="st15" d="M19.093,6.352c0.305-1.945-0.002-3.268-1.054-4.467C16.881,0.565,14.789,0,12.112,0h-7.77
			C3.795,0,3.329,0.398,3.244,0.938L0.008,21.455c-0.064,0.405,0.249,0.771,0.659,0.771h4.797l1.205-7.641l-0.037,0.24
			c0.085-0.54,0.547-0.938,1.094-0.938h2.28c4.478,0,7.984-1.819,9.008-7.08C19.044,6.651,19.07,6.5,19.093,6.352"/>
		<path class="st16" d="M7.963,6.377c0.051-0.325,0.26-0.591,0.541-0.726c0.128-0.061,0.27-0.095,0.42-0.095h6.091
			c0.722,0,1.394,0.047,2.009,0.146C17.2,5.731,17.371,5.764,17.537,5.8c0.166,0.037,0.327,0.078,0.484,0.124
			c0.078,0.023,0.155,0.047,0.23,0.072c0.302,0.1,0.583,0.219,0.842,0.356c0.305-1.945-0.002-3.268-1.054-4.467
			C16.881,0.565,14.789,0,12.112,0h-7.77C3.795,0,3.329,0.398,3.244,0.938L0.008,21.455c-0.064,0.405,0.249,0.771,0.659,0.771h4.797
			l1.205-7.641L7.963,6.377z"/>
	</g>
</g>
</svg>
