<?xml version="1.0" encoding="UTF-8"?>
<svg width="262.45" height="324.81" version="1.1" viewBox="0 0 262.44555 324.81106" xml:space="preserve" xmlns="http://www.w3.org/2000/svg" xmlns:cc="http://creativecommons.org/ns#" xmlns:dc="http://purl.org/dc/elements/1.1/" xmlns:rdf="http://www.w3.org/1999/02/22-rdf-syntax-ns#"><metadata><rdf:RDF><cc:Work rdf:about=""><dc:format>image/svg+xml</dc:format><dc:type rdf:resource="http://purl.org/dc/dcmitype/StillImage"/><dc:title/></cc:Work></rdf:RDF></metadata><defs><clipPath id="f"><path d="m0 595h842v-595h-842z"/></clipPath><clipPath id="e"><path d="m325.92 228.95c-10.015-0.448-17.769-8.938-17.317-18.957 0.454-10.012 8.94-17.772 18.959-17.32 10.018 0.456 17.771 8.943 17.32 18.963-0.44 9.734-8.471 17.333-18.118 17.333-0.28 0-0.561-6e-3 -0.844-0.019"/></clipPath><radialGradient id="a" cx="0" cy="0" r="1" gradientTransform="matrix(17.253 0 0 -17.253 330.06 215.72)" gradientUnits="userSpaceOnUse"><stop stop-color="#fff" offset="0"/><stop stop-color="#ca953e" offset="1"/></radialGradient><clipPath id="j"><path d="m325.91 229.2c-10.15-0.455-18.01-9.06-17.548-19.214 0.46-10.149 9.059-18.011 19.211-17.55 10.155 0.459 18.013 9.061 17.556 19.213-0.447 9.868-8.59 17.57-18.369 17.571-0.283 0-0.565-7e-3 -0.85-0.02m2.191-34.569c-0.015 0.417 0.595 0.523 0.595 0.523 5.438 1.069 3.851 4.64 1.923 6.46-0.808 0.767-8.383 7.305-8.383 7.305-7.227 6.223-6.647 11.076-6.647 11.076 0.348 5.975 5.58 7.456 9.537 7.114 0.465-0.042 0.721-0.32 0.64-0.709-0.086-0.418-0.7-0.448-0.7-0.448-1.261-0.079-2.386-0.206-3.243-0.782-3.191-2.145-2.245-5.797 2.003-9.858 0.537-0.513 1.104-1.051 1.689-1.598 0 0 0.855-0.749 2.551-2.369 3.275-3.012 5.065-4.641 5.065-4.641 5.766-4.8 3.798-9.187 1.59-10.715-1.675-1.161-3.54-1.71-5.98-1.84-0.021-3e-3 -0.045-5e-3 -0.07-5e-3 -0.224 0-0.553 0.139-0.57 0.487m1.351 17.727c-1.871 0.394-2.251 2.09-2.251 2.09-0.153 0.591-0.189 1.348-0.066 2.306 0.259 2.01 0.8 2.954 1.415 4.509 0.829 2.09-1.19 3.316-0.856 4.086 0.454 1.038 1.897-0.283 3.509-0.376 1.387-0.083 2.217-0.014 3.295-0.155 1.434-0.191 3.146-0.677 3.909-1.574 0.7-0.818-0.369-1.817-1.655-1.193-0.939 0.461-2.12 0.18-1.429-0.803 0.838-0.923 1.24-0.955 2.09-1.176 2.34-0.62 2.392-2.859 0.805-4.025-1.806-1.323-3.636-0.776-4.367 1.819-0.367 1.292-1.277 1.951-2.217 1.578-0.927-0.359-0.376-2.064 0.328-3.641 1.23-3.136-1.258-3.459-2.204-3.459-0.143 0-0.251 8e-3 -0.306 0.014m-6.859-17.138c-2.032 0.198-4.459 0.838-6.573 2.666-1.944 1.685-3.147 3.995-3.734 6.021-0.6 2.082-0.846 4.514 0.137 4.323 0.306-0.061 0.831-1.396 1.4-2.368 0.592-1.008 1.074-1.561 1.523-1.9 0.207-0.154 0.896 1.391 1.91 2.268 0.585 0.484 1.225 0.648 1.332-0.797 0.124-1.769-0.196-3.882 0.322-3.882 0.484 0 1.573 0.367 3.972 0.567 0.899 0.082 1.412-0.087 0.554-1.304-0.432-0.6-1.003-1.457-2.362-2.432 2.035-1.903 4.48-1.677 4.524-2.484 0.026-0.468-0.882-0.725-2.079-0.725-0.295 0-0.606 0.015-0.926 0.047"/></clipPath><radialGradient id="d" cx="0" cy="0" r="1" gradientTransform="matrix(38.574 0 0 -38.574 328.96 216.23)" gradientUnits="userSpaceOnUse"><stop stop-color="#4dc6f4" offset="0"/><stop stop-color="#3b98da" offset=".2191"/><stop stop-color="#1c63b7" offset=".37565"/><stop stop-color="#1c63b7" offset=".57303"/><stop stop-color="#1c63b7" offset="1"/></radialGradient><clipPath id="i"><path d="m403.47 434.96c-40.085-1.796-71.126-35.775-69.317-75.878 1.819-40.077 35.784-71.129 75.885-69.322 40.098 1.824 71.128 35.799 69.321 75.893-1.76 38.969-33.914 69.38-72.526 69.383-1.118 0-2.235-0.025-3.363-0.076"/></clipPath><radialGradient id="c" cx="0" cy="0" r="1" gradientTransform="matrix(69.054 0 0 -69.054 420.03 382)" gradientUnits="userSpaceOnUse"><stop stop-color="#fff" offset="0"/><stop stop-color="#ca953e" offset="1"/></radialGradient><clipPath id="h"><path d="m403.42 435.95c-40.625-1.826-72.084-36.267-70.236-76.909 1.839-40.621 36.264-72.087 76.892-70.242 40.644 1.842 72.096 36.27 70.267 76.901-1.788 39.507-34.383 70.324-73.528 70.327-1.129 1e-3 -2.256-0.025-3.395-0.077m8.773-138.36c-0.061 1.669 2.381 2.088 2.381 2.088 21.763 4.28 15.407 18.575 7.691 25.86-3.228 3.069-33.548 29.24-33.548 29.24-28.928 24.899-26.61 44.33-26.61 44.33 1.396 23.919 22.338 29.842 38.176 28.475 1.859-0.163 2.883-1.286 2.561-2.836-0.346-1.677-2.806-1.799-2.806-1.799-5.041-0.315-9.547-0.821-12.975-3.133-12.774-8.576-8.987-23.204 8.02-39.445 2.143-2.059 4.417-4.212 6.757-6.399 0 0 3.419-3.004 10.21-9.484 13.108-12.063 20.271-18.574 20.271-18.574 23.081-19.21 15.206-36.78 6.365-42.896-6.703-4.643-14.165-6.836-23.931-7.354-0.09-0.014-0.187-0.021-0.29-0.021-0.897 0-2.209 0.558-2.272 1.948m5.407 70.947c-7.49 1.576-9.01 8.357-9.01 8.357-0.615 2.381-0.758 5.405-0.267 9.239 1.036 8.042 3.203 11.825 5.664 18.052 3.318 8.362-4.762 13.266-3.428 16.349 1.818 4.161 7.594-1.132 14.045-1.503 5.55-0.326 8.874-0.052 13.188-0.615 5.737-0.765 12.594-2.713 15.651-6.304 2.796-3.274-1.476-7.275-6.625-4.779-3.758 1.841-8.489 0.725-5.721-3.203 3.354-3.712 4.966-3.824 8.364-4.719 9.366-2.474 9.574-11.445 3.221-16.104-7.228-5.294-14.549-3.102-17.478 7.284-1.471 5.169-5.111 7.802-8.873 6.308-3.715-1.433-1.506-8.257 1.315-14.57 4.925-12.558-5.046-13.846-8.828-13.846-0.571 0-1.001 0.03-1.218 0.054m-27.453-68.589c-8.134 0.786-17.85 3.352-26.311 10.669-7.783 6.734-12.598 15.989-14.945 24.105-2.401 8.326-3.388 18.059 0.552 17.296 1.221-0.246 3.323-5.593 5.6-9.481 2.371-4.031 4.3-6.25 6.094-7.603 0.827-0.612 3.588 5.569 7.644 9.076 2.344 1.938 4.906 2.6 5.335-3.187 0.495-7.084-0.786-15.532 1.286-15.532 1.938 0 6.3 1.463 15.899 2.266 3.6 0.32 5.649-0.356 2.216-5.219-1.729-2.407-4.008-5.827-9.448-9.733 8.142-7.618 17.931-6.718 18.103-9.953 0.105-1.866-3.522-2.895-8.306-2.895-1.182 0-2.435 0.062-3.719 0.191"/></clipPath><radialGradient id="b" cx="0" cy="0" r="1" gradientTransform="matrix(154.39 0 0 -154.39 415.64 384.04)" gradientUnits="userSpaceOnUse"><stop stop-color="#4dc6f4" offset="0"/><stop stop-color="#3b98da" offset=".2191"/><stop stop-color="#1c63b7" offset=".37565"/><stop stop-color="#1c63b7" offset=".57303"/><stop stop-color="#1c63b7" offset="1"/></radialGradient><clipPath id="g"><path d="m0 595h842v-595h-842z"/></clipPath></defs><g transform="matrix(1.3333 0 0 -1.3333 -411.12 581.37)"><g clip-path="url(#f)"><g transform="translate(477.36 203.85)"><path d="m0 0 0.56 13.818c0 1.048-0.276 1.842-0.803 2.37-0.839 0.84-2.181 0.832-3.152 0.825h-14.693l1.142-1.942h13.1c0.478 0 0.651 0 0.651-0.81l-0.545-14.261h-15.783l1.151-1.907h21.065v1.907z" fill="#706d6e"/></g><g transform="translate(444.89 220.36)"><path d="m0 0c3.331 0 5.857-0.988 5.857-2.297 0-1.287-2.571-2.297-5.857-2.297s-5.86 1.01-5.86 2.297c0 1.309 2.526 2.297 5.86 2.297m-0.034-6.576c5.467 0 9.744 1.876 9.744 4.275 0 2.4-4.277 4.276-9.744 4.276-5.463 0-9.752-1.876-9.752-4.276 0-2.399 4.289-4.275 9.752-4.275" fill="#706d6e"/></g><g transform="translate(444.87 209.21)"><path d="m0 0c-0.843 0-1.653-0.05-2.431-0.143v1.965h5.147v-2.002c-0.864 0.119-1.772 0.18-2.716 0.18m0.021-8.176c-3.568 0-6.251 1.326-6.251 3.084 0 1.765 2.683 3.094 6.251 3.094 3.566 0 6.25-1.329 6.25-3.094 0-1.758-2.684-3.084-6.25-3.084m-12.424 11.91 1.154-1.912h5.296v-2.779c-2.528-0.917-4.146-2.42-4.146-4.148 0-2.87 4.437-5.11 10.099-5.11 5.661 0 10.091 2.24 10.091 5.11 0 1.66-1.489 3.109-3.851 4.039v2.888h5.149v1.912z" fill="#706d6e"/></g><g transform="translate(499.38 201.69)"><path d="m0 0h-8.624c-1.778 0.059-2.147 0.223-2.151 1.916h10.775zm0 6.683v-2.795h-10.775v2.789l-4.711 6e-3c-0.221 0-0.815 0-0.815-0.48 0-0.157 0.062-0.523 0.648-0.523 0.259 0 0.492-0.025 0.672-0.073 0.199-0.044 0.411-0.143 0.47-0.766-5e-3 0.032-5e-3 -1.872-5e-3 -1.872 0-3.113 0.685-4.725 4.398-4.907h13.859v8.621z" fill="#706d6e"/></g><g transform="translate(483.26 216.78)"><path d="m0 0c0.261 0 0.493-0.029 0.664-0.076 0.209-0.048 0.416-0.149 0.48-0.794 0-2.636 1.155-3.57 4.418-3.57h14.675v1.996h-13.383c-1.551 0-1.976 0.205-1.976 0.965v0.462h15.045v5.357h-19.769l1.119-2.013h14.915v-1.338l-16.02 0.01c-0.228 0-0.818 0-0.818-0.478 0-0.162 0.067-0.521 0.65-0.521" fill="#706d6e"/></g><g transform="translate(481.55 211.64)"><path d="m0 0 1.125-2.016h9.445v-2.851h3.941v2.851h9.112v2.016z" fill="#706d6e"/></g><g transform="translate(424.64 201.7)"><path d="m0 0h-8.836c-2.019 0-2.151 0.304-2.151 2.416v3.327h10.987zm-15.707 7.712c-0.217 0-0.809 0-0.809-0.48 0-0.155 0.058-0.523 0.646-0.523 0.265 0 0.496-0.024 0.67-0.068 0.211-0.05 0.421-0.153 0.477-0.819v-2.981c0-2.511 0.524-4.764 4.415-4.764h14.056v9.631z" fill="#706d6e"/></g><g transform="translate(427.78 213.38)"><path d="m0 0 0.548 4.465c0 1.043-0.273 1.841-0.802 2.367-0.846 0.836-2.178 0.83-3.149 0.823h-15.527l1.142-1.949h13.929c0.475 0 0.652 0 0.652-0.812l-0.546-4.894h-17.222l1.1-2.03h22.681v2.03z" fill="#706d6e"/></g><g transform="translate(361.85 214.92)"><path d="m0 0c2.209-2.731 5.22-4.308 7.947-4.132l0.297 0.02v1.644l-0.277 0.032c-3.792 0.468-5.993 3.559-6.039 8.49l-3e-3 0.32h-5.071c-0.222 0-0.815 0.01-0.815-0.469 0-0.158 0.063-0.522 0.649-0.522 0.263 0 0.495-0.026 0.671-0.073 0.207-0.05 0.416-0.15 0.473-0.794-0.025-3.831-2.395-6.7-5.762-6.948l-0.288-0.022v-1.678h0.307c2.436 0 5.514 0.477 7.911 4.132" fill="#706d6e"/></g><g transform="translate(363.33 201.61)"><path d="m0 0c-1.468 0-2.147 0.769-2.147 2.426v4.514h-4.729c-0.225 0-0.819 7e-3 -0.819-0.475 0-0.157 0.065-0.525 0.651-0.525 0.264 0 0.493-0.023 0.672-0.071 0.216-0.05 0.435-0.161 0.483-0.882-1e-3 0.018-1e-3 -1.579-1e-3 -1.579 0-0.548 0.123-5.359 4.422-5.359h13.969v1.951z" fill="#706d6e"/></g><g transform="translate(387.75 211.62)"><path d="m0 0c-1.949 0-3.528 1.484-3.528 3.313 0 1.824 1.579 3.309 3.528 3.309 1.944 0 3.528-1.485 3.528-3.309 0-1.829-1.584-3.313-3.528-3.313m-7.2 3.154c0-2.854 3.223-5.176 7.18-5.176 3.963 0 7.182 2.322 7.182 5.176 0 1.505-0.897 2.866-2.324 3.811h3.082v1.931h-5.861v2.122h-4.731c-0.224 0-0.816 8e-3 -0.816-0.474 0-0.154 0.06-0.523 0.644-0.523 0.267 0 0.501-0.025 0.68-0.072 0.206-0.046 0.422-0.153 0.472-0.838v-0.215h-6.934l1.145-1.931h2.607c-1.429-0.945-2.326-2.306-2.326-3.811" fill="#706d6e"/></g><g transform="translate(389.3 201.6)"><path d="m0 0c-1.936 0-2.151 0.775-2.151 2.422v4.51h-4.726c-0.221 0-0.813 6e-3 -0.813-0.471 0-0.159 0.062-0.524 0.649-0.524 0.265 0 0.496-0.024 0.669-0.076 0.213-0.048 0.435-0.153 0.48-0.852v-1.591c0-3.506 1.529-5.359 4.421-5.359h13.999v1.941z" fill="#706d6e"/></g><g transform="translate(371.02 221.48)"><path d="m0 0c-0.224 0-0.818 4e-3 -0.818-0.478 0-0.157 0.063-0.521 0.651-0.521 0.261 0 0.498-0.027 0.668-0.072 0.2-0.046 0.404-0.142 0.47-0.73v-12.439h3.734v14.24z" fill="#706d6e"/></g><g transform="translate(405.04 215.73)"><path d="m0 0v1.94h-3.13v3.805h-4.71c-0.224 0-0.812 0.011-0.812-0.471 0-0.157 0.058-0.521 0.649-0.521 0.264 0 0.5-0.027 0.668-0.072 0.177-0.041 0.36-0.12 0.44-0.56v-12.609h3.765v8.488z" fill="#706d6e"/></g></g><g clip-path="url(#e)"><path d="m325.92 228.95c-10.015-0.448-17.769-8.938-17.317-18.957 0.454-10.012 8.94-17.772 18.959-17.32 10.018 0.456 17.771 8.943 17.32 18.963-0.44 9.734-8.471 17.333-18.118 17.333-0.28 0-0.561-6e-3 -0.844-0.019" fill="url(#a)"/></g><g clip-path="url(#j)"><path d="m325.91 229.2c-10.15-0.455-18.01-9.06-17.548-19.214 0.46-10.149 9.059-18.011 19.211-17.55 10.155 0.459 18.013 9.061 17.556 19.213-0.447 9.868-8.59 17.57-18.369 17.571-0.283 0-0.565-7e-3 -0.85-0.02m2.191-34.569c-0.015 0.417 0.595 0.523 0.595 0.523 5.438 1.069 3.851 4.64 1.923 6.46-0.808 0.767-8.383 7.305-8.383 7.305-7.227 6.223-6.647 11.076-6.647 11.076 0.348 5.975 5.58 7.456 9.537 7.114 0.465-0.042 0.721-0.32 0.64-0.709-0.086-0.418-0.7-0.448-0.7-0.448-1.261-0.079-2.386-0.206-3.243-0.782-3.191-2.145-2.245-5.797 2.003-9.858 0.537-0.513 1.104-1.051 1.689-1.598 0 0 0.855-0.749 2.551-2.369 3.275-3.012 5.065-4.641 5.065-4.641 5.766-4.8 3.798-9.187 1.59-10.715-1.675-1.161-3.54-1.71-5.98-1.84-0.021-3e-3 -0.045-5e-3 -0.07-5e-3 -0.224 0-0.553 0.139-0.57 0.487m1.351 17.727c-1.871 0.394-2.251 2.09-2.251 2.09-0.153 0.591-0.189 1.348-0.066 2.306 0.259 2.01 0.8 2.954 1.415 4.509 0.829 2.09-1.19 3.316-0.856 4.086 0.454 1.038 1.897-0.283 3.509-0.376 1.387-0.083 2.217-0.014 3.295-0.155 1.434-0.191 3.146-0.677 3.909-1.574 0.7-0.818-0.369-1.817-1.655-1.193-0.939 0.461-2.12 0.18-1.429-0.803 0.838-0.923 1.24-0.955 2.09-1.176 2.34-0.62 2.392-2.859 0.805-4.025-1.806-1.323-3.636-0.776-4.367 1.819-0.367 1.292-1.277 1.951-2.217 1.578-0.927-0.359-0.376-2.064 0.328-3.641 1.23-3.136-1.258-3.459-2.204-3.459-0.143 0-0.251 8e-3 -0.306 0.014m-6.859-17.138c-2.032 0.198-4.459 0.838-6.573 2.666-1.944 1.685-3.147 3.995-3.734 6.021-0.6 2.082-0.846 4.514 0.137 4.323 0.306-0.061 0.831-1.396 1.4-2.368 0.592-1.008 1.074-1.561 1.523-1.9 0.207-0.154 0.896 1.391 1.91 2.268 0.585 0.484 1.225 0.648 1.332-0.797 0.124-1.769-0.196-3.882 0.322-3.882 0.484 0 1.573 0.367 3.972 0.567 0.899 0.082 1.412-0.087 0.554-1.304-0.432-0.6-1.003-1.457-2.362-2.432 2.035-1.903 4.48-1.677 4.524-2.484 0.026-0.468-0.882-0.725-2.079-0.725-0.295 0-0.606 0.015-0.926 0.047" fill="url(#d)"/></g><g clip-path="url(#i)"><path d="m403.47 434.96c-40.085-1.796-71.126-35.775-69.317-75.878 1.819-40.077 35.784-71.129 75.885-69.322 40.098 1.824 71.128 35.799 69.321 75.893-1.76 38.969-33.914 69.38-72.526 69.383-1.118 0-2.235-0.025-3.363-0.076" fill="url(#c)"/></g><g clip-path="url(#h)"><path d="m403.42 435.95c-40.625-1.826-72.084-36.267-70.236-76.909 1.839-40.621 36.264-72.087 76.892-70.242 40.644 1.842 72.096 36.27 70.267 76.901-1.788 39.507-34.383 70.324-73.528 70.327-1.129 1e-3 -2.256-0.025-3.395-0.077m8.773-138.36c-0.061 1.669 2.381 2.088 2.381 2.088 21.763 4.28 15.407 18.575 7.691 25.86-3.228 3.069-33.548 29.24-33.548 29.24-28.928 24.899-26.61 44.33-26.61 44.33 1.396 23.919 22.338 29.842 38.176 28.475 1.859-0.163 2.883-1.286 2.561-2.836-0.346-1.677-2.806-1.799-2.806-1.799-5.041-0.315-9.547-0.821-12.975-3.133-12.774-8.576-8.987-23.204 8.02-39.445 2.143-2.059 4.417-4.212 6.757-6.399 0 0 3.419-3.004 10.21-9.484 13.108-12.063 20.271-18.574 20.271-18.574 23.081-19.21 15.206-36.78 6.365-42.896-6.703-4.643-14.165-6.836-23.931-7.354-0.09-0.014-0.187-0.021-0.29-0.021-0.897 0-2.209 0.558-2.272 1.948m5.407 70.947c-7.49 1.576-9.01 8.357-9.01 8.357-0.615 2.381-0.758 5.405-0.267 9.239 1.036 8.042 3.203 11.825 5.664 18.052 3.318 8.362-4.762 13.266-3.428 16.349 1.818 4.161 7.594-1.132 14.045-1.503 5.55-0.326 8.874-0.052 13.188-0.615 5.737-0.765 12.594-2.713 15.651-6.304 2.796-3.274-1.476-7.275-6.625-4.779-3.758 1.841-8.489 0.725-5.721-3.203 3.354-3.712 4.966-3.824 8.364-4.719 9.366-2.474 9.574-11.445 3.221-16.104-7.228-5.294-14.549-3.102-17.478 7.284-1.471 5.169-5.111 7.802-8.873 6.308-3.715-1.433-1.506-8.257 1.315-14.57 4.925-12.558-5.046-13.846-8.828-13.846-0.571 0-1.001 0.03-1.218 0.054m-27.453-68.589c-8.134 0.786-17.85 3.352-26.311 10.669-7.783 6.734-12.598 15.989-14.945 24.105-2.401 8.326-3.388 18.059 0.552 17.296 1.221-0.246 3.323-5.593 5.6-9.481 2.371-4.031 4.3-6.25 6.094-7.603 0.827-0.612 3.588 5.569 7.644 9.076 2.344 1.938 4.906 2.6 5.335-3.187 0.495-7.084-0.786-15.532 1.286-15.532 1.938 0 6.3 1.463 15.899 2.266 3.6 0.32 5.649-0.356 2.216-5.219-1.729-2.407-4.008-5.827-9.448-9.733 8.142-7.618 17.931-6.718 18.103-9.953 0.105-1.866-3.522-2.895-8.306-2.895-1.182 0-2.435 0.062-3.719 0.191" fill="url(#b)"/></g><g clip-path="url(#g)"><g transform="translate(314.05 253.47)"><path d="m0 0c0.295-4.513 3.001-7.134 7.169-7.134 4.512 0 6.323 3.089 6.323 5.328 0 2.789-0.777 4.168-6.839 6.785-6.653 2.879-8.198 5.326-8.198 9.237 0 4.129 3.302 8.037 9.399 8.037 3.616 0 5.033-0.941 8.123-1.281l0.261-6.834h-1.727c-0.552 4.634-3.125 6.4-6.781 6.4-3.523 0-5.329-2.153-5.329-5.076 0-2.707 0.949-3.946 6.397-6.181 6.751-2.756 8.808-5.286 8.808-9.153 0-5.245-3.779-8.981-10.826-8.981-2.529 0-6.229 0.735-8.114 1.452l-0.477 7.401z" fill="#706d6e"/></g><g transform="translate(337.6 246.58)"><path d="m0 0h1.318c1.663 0 1.93 0.191 1.93 1.924v19.683c0 1.727-0.267 1.919-1.93 1.919h-1.318v1.51c1.688-0.079 3.424-0.157 5.127-0.157s3.426 0.078 5.127 0.157v-1.51h-1.318c-1.664 0-1.929-0.192-1.929-1.919v-8.179h13.05v8.179c0 1.727-0.265 1.919-1.92 1.919h-1.328v1.51c1.702-0.079 3.435-0.157 5.128-0.157 1.703 0 3.434 0.078 5.132 0.157v-1.51h-1.319c-1.658 0-1.929-0.192-1.929-1.919v-19.683c0-1.733 0.271-1.924 1.929-1.924h1.319v-1.5c-1.698 0.068-3.429 0.146-5.132 0.146-1.693 0-3.426-0.078-5.128-0.146v1.5h1.328c1.655 0 1.92 0.191 1.92 1.924v9.684h-13.05v-9.684c0-1.733 0.265-1.924 1.929-1.924h1.318v-1.5c-1.701 0.068-3.424 0.146-5.127 0.146s-3.439-0.078-5.127-0.146z" fill="#706d6e"/></g><g transform="translate(369.19 246.58)"><path d="m0 0h1.318c1.664 0 1.931 0.191 1.931 1.963v19.644c0 1.727-0.267 1.919-1.931 1.919h-1.318v1.51c1.698-0.079 3.425-0.157 5.127-0.157 1.703 0 3.425 0.078 5.133 0.157v-1.51h-1.324c-1.663 0-1.924-0.192-1.924-1.919v-19.644c0-1.772 0.261-1.963 1.924-1.963h1.324v-1.5c-1.708 0.068-3.43 0.146-5.133 0.146-1.702 0-3.429-0.078-5.127-0.146z" fill="#706d6e"/></g><g transform="translate(389.29 267.08)"><path d="m0 0h-0.114v-18.585c0-1.732 0.261-1.92 1.92-1.92h1.319v-1.515c-1.398 0.08-2.835 0.148-4.218 0.148-1.397 0-2.834-0.068-4.222-0.148v1.515h1.319c1.653 0 1.919 0.188 1.919 1.92v19.684c0 1.726-0.266 1.919-1.919 1.919h-1.319v1.504c1.128-0.074 2.294-0.146 3.465-0.146s2.337 0.072 3.463 0.146c0.193-0.482 0.572-1.17 0.985-1.697l13.866-18.398h0.079v16.672c0 1.726-0.265 1.919-1.918 1.919h-1.324v1.504c1.431-0.074 2.829-0.146 4.227-0.146 1.392 0 2.785 0.072 4.222 0.146v-1.504h-1.319c-1.659 0-1.919-0.193-1.919-1.919v-23.493h-1.663z" fill="#706d6e"/></g><g transform="translate(415.56 246.58)"><path d="m0 0h1.318c1.648 0 1.919 0.191 1.919 1.924v19.683c0 1.727-0.271 1.919-1.919 1.919h-1.318v1.51c1.692-0.079 3.429-0.157 5.122-0.157 1.692 0 3.43 0.078 5.132 0.157v-1.51h-1.328c-1.654 0-1.92-0.192-1.92-1.919v-8.179h13.041v8.179c0 1.727-0.261 1.919-1.919 1.919h-1.325v1.51c1.708-0.079 3.435-0.157 5.13-0.157 1.701 0 3.427 0.078 5.121 0.157v-1.51h-1.31c-1.662 0-1.929-0.192-1.929-1.919v-19.683c0-1.733 0.267-1.924 1.929-1.924h1.31v-1.5c-1.694 0.068-3.42 0.146-5.121 0.146-1.695 0-3.422-0.078-5.13-0.146v1.5h1.325c1.658 0 1.919 0.191 1.919 1.924v9.684h-13.041v-9.684c0-1.733 0.266-1.924 1.92-1.924h1.328v-1.5c-1.702 0.068-3.44 0.146-5.132 0.146-1.693 0-3.43-0.078-5.122-0.146z" fill="#706d6e"/></g><g transform="translate(444.55 245.07)"><path d="m0 0c1.398 0.079 2.829 0.147 4.223 0.147 1.392 0 2.823-0.068 4.227-0.147v1.511h-1.325c-1.21 0-1.585 0.408-1.585 1.096 0 0.748 0.459 1.851 0.866 2.904l1.808 4.517h9.579l2.333-6.368c0.157-0.413 0.349-0.788 0.349-1.132 0-0.757-0.609-1.017-1.588-1.017h-1.281v-1.511c1.693 0.079 3.396 0.147 5.087 0.147 1.656 0 3.358-0.068 5.049-0.147v1.511h-0.973c-1.201 0-1.663 0.379-2.265 1.844l-9.427 23.566h-1.958l-9.537-23.039c-0.832-2.031-1.472-2.371-2.75-2.371h-0.832zm17.154 11.692h-8.258l4.189 10.549z" fill="#706d6e"/></g><g transform="translate(479.53 267.08)"><path d="m0 0h-0.109v-18.585c0-1.732 0.261-1.92 1.911-1.92h1.327l-9e-3 -1.515c-1.39 0.08-2.826 0.148-4.218 0.148s-2.83-0.068-4.216-0.148v1.515h1.314c1.657 0 1.924 0.188 1.924 1.92v19.684c0 1.726-0.267 1.919-1.924 1.919h-1.314v1.504c1.126-0.074 2.296-0.146 3.463-0.146 1.171 0 2.331 0.072 3.47 0.146 0.183-0.482 0.569-1.17 0.978-1.697l13.873-18.398h0.079v16.672c0 1.726-0.271 1.919-1.929 1.919h-1.314v1.504c1.435-0.074 2.824-0.146 4.221-0.146 1.387 0 2.784 0.072 4.218 0.146v-1.504h-1.314c-1.659 0-1.924-0.193-1.924-1.919v-23.493h-1.658z" fill="#706d6e"/></g></g></g></svg>
