<?xml version="1.0" encoding="UTF-8" standalone="no"?>
<svg
   xmlns:dc="http://purl.org/dc/elements/1.1/"
   xmlns:cc="http://creativecommons.org/ns#"
   xmlns:rdf="http://www.w3.org/1999/02/22-rdf-syntax-ns#"
   xmlns:svg="http://www.w3.org/2000/svg"
   xmlns="http://www.w3.org/2000/svg"
   viewBox="0 0 3171.3867 1055.0667"
   height="1055.0667"
   width="3171.3867"
   xml:space="preserve"
   id="svg2"
   version="1.1"><metadata
     id="metadata8"><rdf:RDF><cc:Work
         rdf:about=""><dc:format>image/svg+xml</dc:format><dc:type
           rdf:resource="http://purl.org/dc/dcmitype/StillImage" /></cc:Work></rdf:RDF></metadata><defs
     id="defs6" /><g
     transform="matrix(1.3333333,0,0,-1.3333333,0,1055.0667)"
     id="g10"><g
       transform="scale(0.162168)"
       id="g12"><path
         id="path14"
         style="fill:#211d1d;fill-opacity:1;fill-rule:nonzero;stroke:none"
         d="m 1074.56,1102.62 h 26.84 L 952.633,783.715 h -25.481 l 55.504,115.551 -94.625,203.354 h 26.844 l 62.328,-136.479 c 4.098,-8.645 9.555,-22.297 16.375,-40.946 h 2.731 c 3.179,10.914 8.641,24.563 16.381,40.946 l 61.87,136.479" /><path
         id="path16"
         style="fill:#211d1d;fill-opacity:1;fill-rule:nonzero;stroke:none"
         d="m 1385.26,1003.44 85.98,99.18 h 32.75 l -89.17,-102.807 c 14.11,-2.282 25.48,-7.286 34.58,-12.293 4.55,-2.274 8.64,-5 12.73,-9.094 8.66,-7.735 12.75,-11.379 18.21,-22.75 5.46,-10.918 7.73,-13.188 11.37,-27.289 2.27,-6.828 3.64,-11.379 4.09,-14.567 l 4.1,-16.371 c 2.27,-7.742 3.64,-12.742 4.09,-15.472 h -25.94 l -1.35,5.007 c -7.74,31.387 -15.47,52.317 -22.3,62.774 -13.19,20.023 -37.3,30.488 -71.42,31.394 h -10.47 v -99.175 h -25.02 v 220.643 h 25.02 v -99.18 h 12.75" /><path
         id="path18"
         style="fill:#211d1d;fill-opacity:1;fill-rule:nonzero;stroke:none"
         d="m 1807.41,1057.13 c -16.38,-19.11 -24.57,-42.31 -24.57,-69.153 v -33.211 c 2.27,-4.09 5.46,-8.645 16.84,-20.93 15.46,-16.828 39.58,-33.664 71.42,-34.57 51.41,0 84.61,37.757 84.61,92.804 0,27.76 -7.73,50.05 -23.19,67.33 -15.02,17.75 -35.49,26.39 -61.42,26.39 -25.93,0 -47.31,-9.55 -63.69,-28.66 z M 1782.84,922.473 V 783.715 h -25.02 v 318.905 h 22.74 l 2.28,-44.58 c 21.84,33.21 52.77,50.04 92.36,50.04 32.3,0 58.23,-11.38 77.34,-34.57 19.55,-22.75 29.1,-50.05 29.1,-81.44 0,-31.386 -9.55,-58.683 -29.1,-81.433 -19.11,-22.289 -45.04,-33.66 -77.34,-33.66 -38.22,0 -69.16,15.007 -92.36,45.496" /><path
         id="path20"
         style="fill:#211d1d;fill-opacity:1;fill-rule:nonzero;stroke:none"
         d="m 2386.05,980.246 c -20.47,7.731 -43.21,11.824 -68.23,11.824 -42.31,0 -63.69,-15.922 -63.69,-47.765 0,-30.934 16.83,-45.496 56.41,-45.496 21.38,0 39.58,6.82 53.68,20.019 14.56,13.652 21.83,30.024 21.83,49.59 z m -130.1,114.644 c 20.01,8.64 40.03,13.19 60.05,13.19 27.3,0 50.04,-7.28 67.78,-21.38 18.2,-14.11 27.3,-32.75 27.3,-55.96 V 881.977 h -20.47 l -3.19,35.488 c -17.29,-26.848 -44.12,-40.488 -80.98,-40.488 -52.31,0 -78.24,22.289 -78.24,67.328 0,19.105 8.18,35.027 24.56,48.222 16.38,13.193 38.21,20.013 65.06,20.013 21.83,0 47.31,-5 59.59,-9.1 l 8.64,-3.18 v 26.84 c 0,18.66 -7.27,33.21 -22.29,43.67 -14.55,10.48 -30.47,15.48 -47.76,15.48 -23.66,0 -43.68,-5 -60.05,-15.02 v 23.66" /><path
         id="path22"
         style="fill:#211d1d;fill-opacity:1;fill-rule:nonzero;stroke:none"
         d="m 2751.35,1190.88 c 7.73,-7.74 7.73,-21.38 0,-29.12 -7.74,-7.73 -20.94,-7.73 -29.58,0 -7.73,7.74 -7.73,21.38 0,29.12 8.64,8.64 21.84,8.64 29.58,0 z m -40.95,-88.26 V 881.977 h -25.02 v 220.643 z m -36.85,59.14 c -7.73,-7.73 -21.38,-7.73 -29.11,0 -8.65,7.74 -8.65,21.38 0,29.12 7.73,8.64 21.38,8.64 29.11,0 7.73,-7.74 7.73,-21.38 0,-29.12" /><path
         id="path24"
         style="fill:#211d1d;fill-opacity:1;fill-rule:nonzero;stroke:none"
         d="m 3129.84,1009.82 v 92.8 h 25.02 V 881.977 h -25.02 V 986.613 H 3009.73 V 881.977 h -25.02 v 220.643 h 25.02 v -92.8 h 120.11" /><path
         id="path26"
         style="fill:#211d1d;fill-opacity:1;fill-rule:nonzero;stroke:none"
         d="m 3587.93,894.258 c -18.19,-11.367 -38.22,-17.281 -60.51,-17.281 -31.84,0 -58.23,11.371 -79.61,33.66 -20.93,22.293 -31.39,49.59 -31.39,81.433 0,33.67 10.46,61.42 31.85,83.25 21.38,21.85 47.77,32.76 79.15,32.76 22.29,0 42.32,-5.91 60.06,-17.74 v -28.66 c -16.38,15.92 -36.4,24.11 -60.06,24.11 -24.11,0 -44.12,-8.64 -60.5,-26.39 -16.38,-17.28 -24.57,-39.57 -24.57,-67.33 0,-25.929 8.19,-48.226 24.11,-65.968 16.38,-17.739 36.85,-26.836 60.96,-26.836 22.29,0 42.32,7.734 60.06,23.207 l 0.45,-28.215" /><path
         id="path28"
         style="fill:#211d1d;fill-opacity:1;fill-rule:nonzero;stroke:none"
         d="m 3912.74,903.813 c 29.56,0 51.4,15.015 51.4,40.945 0,25.933 -20.93,40.945 -51.4,40.945 h -45.04 v -81.89 z m 2.27,104.177 c 21.38,0 39.12,-5.45 53.23,-16.83 14.1,-11.371 21.38,-26.836 21.38,-46.402 0,-38.672 -32.3,-62.781 -74.61,-62.781 h -72.34 v 220.643 h 25.03 v -94.63 h 47.31" /><path
         id="path30"
         style="fill:#211d1d;fill-opacity:1;fill-rule:nonzero;stroke:none"
         d="m 4284.84,1003.44 85.99,99.18 h 32.75 l -89.17,-102.807 c 14.1,-2.282 25.48,-7.286 34.58,-12.293 4.55,-2.274 8.64,-5 12.74,-9.094 8.64,-7.735 12.73,-11.379 18.19,-22.75 5.47,-10.918 7.74,-13.188 11.38,-27.289 2.27,-6.828 3.64,-11.379 4.09,-14.567 l 4.1,-16.371 c 2.27,-7.742 3.64,-12.742 4.09,-15.472 h -25.93 l -1.36,5.007 c -7.74,31.387 -15.47,52.317 -22.3,62.774 -13.19,20.023 -37.3,30.488 -71.42,31.394 h -10.47 v -99.175 h -25.02 v 220.643 h 25.02 v -99.18 h 12.74" /><path
         id="path32"
         style="fill:#211d1d;fill-opacity:1;fill-rule:nonzero;stroke:none"
         d="m 4657.41,881.977 v 220.643 h 25.02 V 953.402 c 0,-11.828 0,-20.015 -0.45,-24.109 h 1.82 c 6.82,10.457 13.19,18.645 18.65,25.473 l 116.92,147.854 h 21.83 V 881.977 h -25.02 v 158.773 c 0,5.91 0.46,13.2 0.91,22.29 h -1.82 c -9.1,-13.19 -14.1,-20.47 -15.46,-21.84 L 4673.79,881.977 h -16.38" /><path
         id="path34"
         style="fill:#211d1d;fill-opacity:1;fill-rule:nonzero;stroke:none"
         d="m 5269.73,1196.34 c -8.64,-32.75 -39.12,-48.23 -69.6,-48.23 -30.94,0 -62.33,15.48 -70.06,48.23 l 20.01,5 c 4.55,-21.38 21.39,-31.84 50.05,-31.84 27.74,0 44.58,10.46 50.03,31.84 z M 5115.5,881.977 v 220.643 h 25.02 V 953.402 c 0,-11.828 0,-20.015 -0.45,-24.109 h 1.82 c 6.82,10.457 13.19,18.645 18.65,25.473 l 116.92,147.854 h 21.84 V 881.977 h -25.03 v 158.773 c 0,5.91 0.47,13.2 0.92,22.29 h -1.82 c -9.1,-13.19 -14.1,-20.47 -15.47,-21.84 L 5131.89,881.977 h -16.39" /><path
         id="path36"
         style="fill:#211d1d;fill-opacity:1;fill-rule:nonzero;stroke:none"
         d="m 5900.68,1102.62 h 167.87 V 881.977 h -25.02 V 1080.33 H 5925.7 V 881.977 h -25.02 v 220.643" /><path
         id="path38"
         style="fill:#211d1d;fill-opacity:1;fill-rule:nonzero;stroke:none"
         d="m 6355.15,1102.62 h 140.1 V 881.977 h -25.04 v 198.353 h -90.02 V 942.488 c 0,-36.859 -28.25,-61.883 -67.83,-61.883 v 21.844 c 25.03,0 42.79,15.465 42.79,39.574 v 160.597" /><path
         id="path40"
         style="fill:#211d1d;fill-opacity:1;fill-rule:nonzero;stroke:none"
         d="m 6912.41,980.246 c -20.47,7.731 -43.22,11.824 -68.26,11.824 -42.3,0 -63.7,-15.922 -63.7,-47.765 0,-30.934 16.84,-45.496 56.43,-45.496 21.39,0 39.58,6.82 53.7,20.019 14.56,13.652 21.83,30.024 21.83,49.59 z M 6782.3,1094.89 c 20.04,8.64 40.02,13.19 60.06,13.19 27.26,0 50.01,-7.28 67.77,-21.38 18.19,-14.11 27.32,-32.75 27.32,-55.96 V 881.977 h -20.47 l -3.21,35.488 c -17.27,-26.848 -44.15,-40.488 -80.97,-40.488 -52.35,0 -78.25,22.289 -78.25,67.328 0,19.105 8.2,35.027 24.54,48.222 16.41,13.193 38.24,20.013 65.06,20.013 21.83,0 47.36,-5 59.63,-9.1 l 8.63,-3.18 v 26.84 c 0,18.66 -7.27,33.21 -22.32,43.67 -14.55,10.48 -30.46,15.48 -47.73,15.48 -23.68,0 -43.66,-5 -60.06,-15.02 v 23.66" /><path
         id="path42"
         style="fill:#211d1d;fill-opacity:1;fill-rule:nonzero;stroke:none"
         d="M 7259.03,1079.88 V 881.977 h -25.04 v 197.903 h -61.42 v 22.74 h 147.45 v -22.74 h -60.99" /><path
         id="path44"
         style="fill:#211d1d;fill-opacity:1;fill-rule:nonzero;stroke:none"
         d="m 7588.88,881.977 h -25.04 v 220.643 h 25.04 z m -32.32,287.063 c 0,10.92 9.07,19.57 19.98,19.57 10.98,0 20.04,-8.65 20.04,-19.57 1.36,-25.93 -41.38,-25.93 -40.02,0" /><path
         id="path46"
         style="fill:#211d1d;fill-opacity:1;fill-rule:nonzero;stroke:none"
         d="m 8011.46,1003.44 86.02,99.18 h 32.75 l -89.17,-102.807 c 14.06,-2.282 25.47,-7.286 34.53,-12.293 4.56,-2.274 8.7,-5 12.77,-9.094 8.63,-7.735 12.76,-11.379 18.19,-22.75 5.49,-10.918 7.77,-13.188 11.34,-27.289 2.29,-6.828 3.7,-11.379 4.13,-14.567 l 4.07,-16.371 c 2.29,-7.742 3.64,-12.742 4.14,-15.472 h -25.96 c -8.21,32.3 -15.48,53.226 -21.4,63.691 -11.78,20.473 -32.74,32.301 -62.28,35.031 -5,0.453 -10.49,0.453 -16.41,0.453 h -5.42 v -99.175 h -25.04 v 99.175 h -4.99 c -35.95,0 -60.99,-10.007 -75.11,-29.57 -7.71,-10.465 -15.48,-31.391 -23.19,-62.781 0,-0.453 0,-0.91 -0.43,-1.817 l -1.36,-5.007 h -25.96 l 3.64,15.472 c 2.29,7.731 3.64,13.188 4.07,16.371 l 4.13,14.567 c 4.07,14.101 6.36,16.371 11.84,27.289 5.43,11.371 9.99,15.015 17.7,22.75 11.41,10.465 27.32,17.742 47.79,21.387 l -89.17,102.807 h 32.75 l 86.02,-99.18 h 12.27 v 99.18 h 25.04 v -99.18 h 12.7" /><path
         id="path48"
         style="fill:#211d1d;fill-opacity:1;fill-rule:nonzero;stroke:none"
         d="m 8529.2,1009.82 v 92.8 h 24.97 V 881.977 H 8529.2 V 986.613 H 8409.07 V 881.977 h -25.03 v 220.643 h 25.03 v -92.8 h 120.13" /><path
         id="path50"
         style="fill:#211d1d;fill-opacity:1;fill-rule:nonzero;stroke:none"
         d="m 8828.52,881.977 v 220.643 h 24.97 V 953.402 c 0,-11.828 0,-20.015 -0.43,-24.109 h 1.79 c 6.84,10.457 13.19,18.645 18.68,25.473 l 116.92,147.854 h 21.83 V 881.977 h -25.04 v 158.773 c 0,5.91 0.49,13.2 0.92,22.29 h -1.78 c -9.13,-13.19 -14.12,-20.47 -15.48,-21.84 L 8844.86,881.977 h -16.34" /><path
         id="path52"
         style="fill:#211d1d;fill-opacity:1;fill-rule:nonzero;stroke:none"
         d="m 9440.79,1196.34 c -8.64,-32.75 -39.1,-48.23 -69.56,-48.23 -30.96,0 -62.35,15.48 -70.12,48.23 l 20.04,5 c 4.57,-21.38 21.4,-31.84 50.08,-31.84 27.74,0 44.58,10.46 50,31.84 z M 9286.56,881.977 v 220.643 h 25.04 V 953.402 c 0,-11.828 0,-20.015 -0.44,-24.109 h 1.79 c 6.85,10.457 13.2,18.645 18.69,25.473 l 116.91,147.854 h 21.83 V 881.977 h -25.03 v 158.773 c 0,5.91 0.49,13.2 0.92,22.29 h -1.85 c -9.06,-13.19 -14.06,-20.47 -15.42,-21.84 L 9302.96,881.977 h -16.4" /><path
         id="path54"
         style="fill:#211d1d;fill-opacity:1;fill-rule:nonzero;stroke:none"
         d="m 10071.7,1102.62 h 167.9 V 881.977 h -25 v 198.353 h -117.8 V 881.977 h -25.1 v 220.643" /><path
         id="path56"
         style="fill:#211d1d;fill-opacity:1;fill-rule:nonzero;stroke:none"
         d="m 10563.5,1057.13 c -16.3,-19.11 -24.5,-42.31 -24.5,-69.153 v -33.211 c 2.3,-4.09 5.4,-8.645 16.8,-20.93 15.5,-16.828 39.6,-33.664 71.4,-34.57 51.4,0 84.6,37.757 84.6,92.804 0,27.76 -7.7,50.05 -23.2,67.33 -15,17.75 -35.5,26.39 -61.4,26.39 -25.9,0 -47.3,-9.55 -63.7,-28.66 z M 10539,922.473 V 783.715 h -25.1 v 318.905 h 22.8 l 2.3,-44.58 c 21.8,33.21 52.8,50.04 92.3,50.04 32.3,0 58.3,-11.38 77.4,-34.57 19.5,-22.75 29.1,-50.05 29.1,-81.44 0,-31.386 -9.6,-58.683 -29.1,-81.433 -19.1,-22.289 -45.1,-33.66 -77.4,-33.66 -38.2,0 -69.1,15.007 -92.3,45.496" /><path
         id="path58"
         style="fill:#211d1d;fill-opacity:1;fill-rule:nonzero;stroke:none"
         d="m 11037.1,925.652 c 16.3,-17.746 36.4,-26.386 60.5,-26.386 24.1,0 44.6,8.64 61,25.929 16.8,17.743 24.9,40.035 24.9,67.782 0,26.853 -8.6,49.143 -25.9,66.423 -16.8,17.75 -36.8,26.39 -60,26.39 -23.2,0 -43.2,-8.64 -60.1,-26.39 -16.8,-17.74 -25,-40.04 -25,-67.783 0,-25.929 8.2,-48.222 24.6,-65.965 z m -18.7,149.218 c 21.4,22.3 47.8,33.21 79.2,33.21 32.3,0 58.7,-11.38 80,-33.67 21.4,-22.28 31.9,-50.04 31.9,-82.34 0,-32.297 -10.5,-59.59 -31.9,-81.89 -21.3,-22.289 -47.7,-33.203 -80,-33.203 -31.8,0 -58.2,10.914 -79.6,33.203 -20.9,22.3 -31.4,49.593 -31.4,80.98 0,33.67 10.5,61.42 31.8,83.71" /><path
         id="path60"
         style="fill:#211d1d;fill-opacity:1;fill-rule:nonzero;stroke:none"
         d="m 11629.8,894.258 c -18.2,-11.367 -38.2,-17.281 -60.5,-17.281 -31.8,0 -58.2,11.371 -79.6,33.66 -20.9,22.293 -31.4,49.59 -31.4,81.433 0,33.67 10.5,61.42 31.8,83.25 21.4,21.85 47.8,32.76 79.2,32.76 22.3,0 42.3,-5.91 60.1,-17.74 v -28.66 c -16.4,15.92 -36.4,24.11 -60.1,24.11 -24.1,0 -44.1,-8.64 -60.5,-26.39 -16.4,-17.28 -24.5,-39.57 -24.5,-67.33 0,-25.929 8.1,-48.226 24.1,-65.968 16.3,-17.739 36.8,-26.836 60.9,-26.836 22.3,0 42.3,7.734 60.1,23.207 l 0.4,-28.215" /><path
         id="path62"
         style="fill:#211d1d;fill-opacity:1;fill-rule:nonzero;stroke:none"
         d="M 11940.5,1079.88 V 881.977 h -25 v 197.903 h -61.4 v 22.74 h 147.4 v -22.74 h -61" /><path
         id="path64"
         style="fill:#211d1d;fill-opacity:1;fill-rule:nonzero;stroke:none"
         d="m 12270.3,881.977 h -25 v 220.643 h 25 z m -32.3,287.063 c 0,10.92 9.1,19.57 20.1,19.57 10.9,0 20,-8.65 20,-19.57 1.3,-25.93 -41.4,-25.93 -40.1,0" /><path
         id="path66"
         style="fill:#211d1d;fill-opacity:1;fill-rule:nonzero;stroke:none"
         d="m 12594.2,1057.13 c -16.4,-19.11 -24.6,-42.31 -24.6,-69.153 v -33.211 c 2.3,-4.09 5.5,-8.645 16.9,-20.93 15.5,-16.828 39.6,-33.664 71.4,-34.57 51.4,0 84.7,37.757 84.7,92.804 0,27.76 -7.8,50.05 -23.2,67.33 -15.1,17.75 -35.6,26.39 -61.5,26.39 -25.9,0 -47.3,-9.55 -63.7,-28.66 z m -24.6,-134.657 V 783.715 h -24.9 v 318.905 h 22.7 l 2.2,-44.58 c 21.9,33.21 52.8,50.04 92.4,50.04 32.3,0 58.2,-11.38 77.3,-34.57 19.6,-22.75 29.1,-50.05 29.1,-81.44 0,-31.386 -9.5,-58.683 -29.1,-81.433 -19.1,-22.289 -45,-33.66 -77.3,-33.66 -38.2,0 -69.1,15.007 -92.4,45.496" /><path
         id="path68"
         style="fill:#1a468e;fill-opacity:1;fill-rule:nonzero;stroke:none"
         d="M 10516.2,3599.3 V 1771.69 h -443.6 v 1829.66 h -491.22 v 388.2 H 11011.1 V 3599.3 h -494.9" /><path
         id="path70"
         style="fill:#1a468e;fill-opacity:1;fill-rule:nonzero;stroke:none"
         d="M 2663.7,3991.6 V 1771.69 H 2219.98 V 3601.81 H 1333.24 V 1771.69 H 887.969 V 3991.6 H 2663.7" /><path
         id="path72"
         style="fill:#1a468e;fill-opacity:1;fill-rule:nonzero;stroke:none"
         d="m 3549.26,2966.47 h 165.69 c 83.17,0 189.71,0 282.89,69.94 79.89,63.26 119.78,163.12 119.78,259.62 0,123.14 -59.89,206.36 -123.11,252.92 -89.85,63.3 -202.99,69.89 -306.17,69.89 h -139.08 z m 202.29,1025.13 c 249.65,0 422.68,-26.65 585.75,-169.76 179.72,-159.75 226.33,-376.12 226.33,-535.86 0,-86.45 -13.33,-326.1 -183.04,-495.85 -123.14,-123.15 -306.22,-196.41 -562.47,-196.41 h -268.86 v -822.03 h -443.4 V 3991.6 h 645.69" /><path
         id="path74"
         style="fill:#1a468e;fill-opacity:1;fill-rule:nonzero;stroke:none"
         d="m 9138.2,1851.14 c -133.08,-69.86 -309.5,-129.85 -549.25,-129.85 -389.54,0 -625.84,133.12 -812.18,309.6 -256.41,246.39 -356.18,522.61 -356.18,848.91 0,402.75 166.43,692.35 356.18,868.78 222.98,209.77 499.23,292.95 815.51,292.95 156.44,0 342.92,-26.65 545.92,-136.49 v -506 c -203,233.05 -456.07,249.7 -535.87,249.7 -446.14,0 -735.72,-366.19 -735.72,-775.63 0,-492.67 379.55,-759.03 752.31,-759.03 206.45,0 389.47,89.88 519.28,243.02 v -505.96" /><path
         id="path76"
         style="fill:#1a468e;fill-opacity:1;fill-rule:nonzero;stroke:none"
         d="m 11455.9,1772 h 443.488 V 3992.37 H 11455.9 Z" /><path
         id="path78"
         style="fill:#1a468e;fill-opacity:1;fill-rule:nonzero;stroke:none"
         d="m 12786.1,2966.72 h 165.7 c 83.2,0 189.8,0 283,69.96 79.9,63.26 119.8,163.14 119.8,259.67 0,123.16 -59.9,206.4 -123.2,252.97 -89.8,63.31 -203,69.91 -306.3,69.91 h -139 z m 202.4,1025.34 c 249.6,0 422.7,-26.65 585.8,-169.79 179.8,-159.79 226.4,-376.2 226.4,-535.98 0,-86.47 -13.3,-326.16 -183.1,-495.96 -123.2,-123.16 -306.2,-196.44 -562.6,-196.44 h -268.9 v -822.2 h -443.4 v 2220.37 h 645.8" /><path
         id="path80"
         style="fill:#fbc707;fill-opacity:1;fill-rule:nonzero;stroke:none"
         d="m 5769.13,2871.52 c 0,0.93 -0.13,1.86 -0.13,2.78 0,123.97 100.5,224.56 224.51,224.56 123.97,0 224.5,-100.59 224.5,-224.56 0,-123.42 -99.78,-223.62 -223.08,-224.38 v -303.09 c 290.72,0.8 526.1,236.6 526.1,527.47 0,291.37 -236.18,527.57 -527.52,527.57 -291.36,0 -527.56,-236.2 -527.56,-527.57 0,-0.92 0.13,-1.85 0.13,-2.78 h 303.05" /><path
         id="path82"
         style="fill:#1a468e;fill-opacity:1;fill-rule:nonzero;stroke:none"
         d="m 6770.83,3262.77 c 56.55,-115.12 88.3,-244.48 88.3,-381.38 0,-478.82 -388.24,-867.01 -867.03,-867.01 -478.87,0 -867.06,388.19 -867.06,867.01 0,461.59 360.83,838.9 815.74,865.42 l 216.24,331.07 c -53.97,7.4 -108.97,11.56 -164.92,11.56 -667.21,0 -1208.01,-540.85 -1208.01,-1208.05 0,-667.11 540.8,-1207.96 1208.01,-1207.96 667.18,0 1207.98,540.85 1207.98,1207.96 0,260.15 -82.51,500.91 -222.43,698.1 l -206.82,-316.72" /></g></g></svg>