<?xml version="1.0" encoding="UTF-8" standalone="no"?>
<svg
   xmlns:dc="http://purl.org/dc/elements/1.1/"
   xmlns:cc="http://creativecommons.org/ns#"
   xmlns:rdf="http://www.w3.org/1999/02/22-rdf-syntax-ns#"
   xmlns:svg="http://www.w3.org/2000/svg"
   xmlns="http://www.w3.org/2000/svg"
   xmlns:sodipodi="http://sodipodi.sourceforge.net/DTD/sodipodi-0.dtd"
   xmlns:inkscape="http://www.inkscape.org/namespaces/inkscape"
   width="74.913071"
   height="39.489521"
   viewBox="0 0 74.913071 39.489521"
   version="1.1"
   id="svg6"
   sodipodi:docname="gate-icon-original.svg"
   style="fill:none"
   inkscape:version="0.92.5 (2060ec1f9f, 2020-04-08)">
  <metadata
     id="metadata12">
    <rdf:RDF>
      <cc:Work
         rdf:about="">
        <dc:format>image/svg+xml</dc:format>
        <dc:type
           rdf:resource="http://purl.org/dc/dcmitype/StillImage" />
        <dc:title></dc:title>
      </cc:Work>
    </rdf:RDF>
  </metadata>
  <defs
     id="defs10" />
  <sodipodi:namedview
     pagecolor="#ffffff"
     bordercolor="#666666"
     borderopacity="1"
     objecttolerance="10"
     gridtolerance="10"
     guidetolerance="10"
     inkscape:pageopacity="0"
     inkscape:pageshadow="2"
     inkscape:window-width="1920"
     inkscape:window-height="960"
     id="namedview8"
     showgrid="false"
     inkscape:zoom="1.7794872"
     inkscape:cx="97.226318"
     inkscape:cy="19.857"
     inkscape:window-x="0"
     inkscape:window-y="27"
     inkscape:window-maximized="1"
     inkscape:current-layer="svg6" />
  <path
     d="m 39.064418,23.674722 c -1.854,9.1821 -9.9497,15.8148 -19.3366,15.8148 C 8.833558,39.489522 0,30.648522 0,19.744422 0,8.841022 8.833558,0 19.727818,0 c 5.1894,0 10.2799,2.111062 13.9492,5.784032 3.6699,3.67179 -1.909,9.25659 -5.5795,5.58359 -2.2492,-2.25114 -5.1882,-3.4696 -8.3697,-3.4696 -6.5381,0 -11.83705,5.3034 -11.83705,11.8464 0,6.5436 5.29895,11.8471 11.83705,11.8471 5.0676,0 9.5638,-3.2264 11.1999,-8.0024 h -11.1999 c -5.1702,0 -5.1702,-7.8675 0,-7.8675 h 19.8367 c 1.0821,0 3.4093,-2.4487 5.2217,-4.7326 C 48.829018,5.894212 53.506718,0 63.129618,0 h 7.8914 c 5.1894,0 5.1894,7.898022 0,7.898022 h -7.8914 c -5.7422,0 -9.1298,4.1571 -12.0414,7.8236 h 15.9865 c 5.1701,0 5.1701,7.8675 0,7.8675 h -16.1288 c 3.2313,4.0545 6.5076,8.0024 12.1837,8.0024 2.6252,0 5.2621,6e-4 7.8914,6e-4 5.1894,0 5.1894,7.8974 0,7.8974 -2.6293,0 -5.2662,0 -7.8914,0 -9.6229,0 -14.3006,-5.8936 -18.3434,-10.989 -1.4213,-1.7911 -3.2196,-4.8258 -5.7218,-4.8258 z"
     id="path4"
     inkscape:connector-curvature="0"
     style="fill:#ee2737" />
</svg>
