<svg width="195" height="40" viewBox="0 0 195 40" fill="none" xmlns="http://www.w3.org/2000/svg">
<path d="M90.8034 32.8709H98.265V29.9756H90.8034V26.4832H99.2517V23.4959H87.1072V39.5803H99.5503V36.5931H90.8034V32.8709ZM111.523 31.2621L112.258 30.2441L117.125 23.4959H113.107L112.258 24.7173L109.481 28.712L105.783 23.4959H101.559L107.207 31.4004L101.261 39.5803H105.531L109.342 33.9967L112.258 38.1931L113.222 39.5803H117.515L112.258 32.2819L111.523 31.2621ZM111.673 4.20801L114.221 10.366H109.124L111.673 4.20801ZM107.93 13.192H115.391L116.815 16.6388H120.717L120.649 16.4846L113.532 0.554385H109.858L102.696 16.6388H106.506L107.93 13.192ZM90.3672 15.8458C91.6988 16.5579 93.1991 16.9142 94.8668 16.9142C96.0304 16.9142 97.1851 16.7384 98.3335 16.3856C99.4812 16.0334 100.492 15.5282 101.364 14.8694V8.34398H97.9663V13.0537C97.109 13.5132 96.1451 13.743 95.0735 13.743C94.0634 13.743 93.1645 13.5255 92.3763 13.0889C91.5881 12.6517 90.9715 12.0433 90.5276 11.2621C90.0837 10.4808 89.8624 9.59233 89.8624 8.59658C89.8624 7.58501 90.0837 6.68948 90.5276 5.90823C90.9715 5.12698 91.5916 4.52156 92.3874 4.09255C93.1832 3.66413 94.0938 3.44962 95.1192 3.44962C96.7424 3.44962 98.1273 4.05504 99.2745 5.26471L101.663 3.05929C100.882 2.15497 99.9175 1.46574 98.7697 0.991012C97.622 0.515701 96.3442 0.278927 94.9359 0.278927C93.2529 0.278927 91.7374 0.635263 90.3906 1.34676C89.0432 2.05944 87.9909 3.04757 87.2331 4.31175C86.4759 5.57475 86.0977 7.00362 86.0977 8.59658C86.0977 10.1895 86.4759 11.6178 87.2331 12.882C87.9909 14.1456 89.0355 15.1331 90.3672 15.8458V15.8458ZM120.58 3.58735H125.722V16.6388H129.442V3.58735H134.585V0.554385H120.58V3.58735ZM128.787 31.3893C128.24 31.8429 127.456 32.0826 126.435 32.1101C126.37 32.1113 126.305 32.1125 126.24 32.1125H123.209V26.5289H126.24C126.305 26.5289 126.37 26.5301 126.435 26.5318C127.456 26.5588 128.24 26.7985 128.787 27.2533C129.369 27.7356 129.66 28.4284 129.66 29.3321C129.66 30.2212 129.369 30.9063 128.787 31.3893V31.3893ZM130.154 24.2086C129.105 23.7333 127.87 23.4959 126.446 23.4959H119.49V39.5803H123.209V35.146H126.446C127.87 35.146 129.105 34.9122 130.154 34.4451C131.202 33.978 132.009 33.3034 132.576 32.4231C133.142 31.5422 133.425 30.5119 133.425 29.3321C133.425 28.1377 133.142 27.1038 132.576 26.2306C132.009 25.3579 131.202 24.6833 130.154 24.2086V24.2086ZM193.897 32.3194C193.338 31.6911 192.668 31.2322 191.887 30.9409C191.107 30.6496 190.104 30.3583 188.879 30.0676C187.701 29.8074 186.825 29.5431 186.252 29.2747C185.678 29.0068 185.39 28.5972 185.39 28.0457C185.39 27.4942 185.639 27.0499 186.137 26.7129C186.634 26.3759 187.403 26.2077 188.444 26.2077C189.928 26.2077 191.413 26.6285 192.898 27.4713L194.046 24.6452C193.311 24.1857 192.453 23.8329 191.474 23.5885C190.495 23.343 189.493 23.2205 188.467 23.2205C186.998 23.2205 185.754 23.4426 184.736 23.8863C183.719 24.3311 182.957 24.9324 182.452 25.6908C181.947 26.4486 181.695 27.2949 181.695 28.2297C181.695 29.3016 181.973 30.1597 182.532 30.8032C183.091 31.4467 183.76 31.9132 184.54 32.2045C185.322 32.4958 186.324 32.7865 187.549 33.0778C188.344 33.2618 188.976 33.43 189.442 33.583C189.909 33.7365 190.292 33.9393 190.59 34.1919C190.889 34.4451 191.038 34.7627 191.038 35.146C191.038 35.6665 190.785 36.0838 190.28 36.3979C189.776 36.712 188.996 36.8685 187.939 36.8685C186.989 36.8685 186.041 36.7156 185.092 36.4096C184.143 36.1031 183.324 35.6975 182.635 35.1912L181.372 37.995C182.092 38.5465 183.045 38.9942 184.231 39.3389C185.417 39.6841 186.646 39.8558 187.916 39.8558C189.385 39.8558 190.633 39.6342 191.658 39.19C192.683 38.7452 193.452 38.1444 193.965 37.386C194.478 36.6276 194.734 35.789 194.734 34.87C194.734 33.7975 194.454 32.9471 193.897 32.3194V32.3194ZM177.24 30.9409C176.46 30.6496 175.457 30.3583 174.233 30.0676C173.054 29.8074 172.178 29.5431 171.604 29.2747C171.03 29.0068 170.743 28.5972 170.743 28.0457C170.743 27.4942 170.992 27.0499 171.489 26.7129C171.987 26.3759 172.756 26.2077 173.797 26.2077C175.281 26.2077 176.766 26.6285 178.251 27.4713L179.398 24.6452C178.664 24.1857 177.806 23.8329 176.827 23.5885C175.847 23.343 174.845 23.2205 173.82 23.2205C172.35 23.2205 171.107 23.4426 170.089 23.8863C169.07 24.3311 168.31 24.9324 167.804 25.6908C167.3 26.4486 167.047 27.2949 167.047 28.2297C167.047 29.3016 167.327 30.1597 167.885 30.8032C168.444 31.4467 169.113 31.9132 169.894 32.2045C170.675 32.4958 171.676 32.7865 172.901 33.0778C173.698 33.2618 174.328 33.43 174.795 33.583C175.262 33.7365 175.645 33.9393 175.943 34.1919C176.242 34.4451 176.391 34.7627 176.391 35.146C176.391 35.6665 176.139 36.0838 175.633 36.3979C175.128 36.712 174.347 36.8685 173.291 36.8685C172.343 36.8685 171.394 36.7156 170.445 36.4096C169.496 36.1031 168.677 35.6975 167.989 35.1912L166.725 37.995C167.445 38.5465 168.398 38.9942 169.583 39.3389C170.77 39.6841 171.998 39.8558 173.269 39.8558C174.738 39.8558 175.986 39.6342 177.01 39.19C178.036 38.7452 178.805 38.1444 179.318 37.386C179.831 36.6276 180.087 35.789 180.087 34.87C180.087 33.7975 179.808 32.9471 179.249 32.3194C178.691 31.6911 178.021 31.2322 177.24 30.9409V30.9409ZM156.28 32.8709H163.741V29.9756H156.28V26.4832H164.728V23.4959H152.584V39.5803H165.027V36.5931H156.28V32.8709ZM149.025 13.6515H140.278V9.92874H147.739V7.03409H140.278V3.54164H148.726V0.554385H136.582V16.6388H149.025V13.6515ZM145.007 31.4004C144.46 31.8616 143.675 32.1054 142.655 32.133C142.59 32.1347 142.525 32.1359 142.459 32.1359H139.429V26.5289H142.459C142.525 26.5289 142.59 26.5301 142.655 26.5318C143.675 26.5588 144.46 26.7985 145.007 27.2533C145.59 27.7356 145.88 28.4284 145.88 29.3321C145.88 30.2212 145.59 30.9104 145.007 31.4004V31.4004ZM148.784 32.4231C149.358 31.5575 149.645 30.5271 149.645 29.3321C149.645 28.1377 149.361 27.1038 148.795 26.2306C148.229 25.3579 147.422 24.6833 146.373 24.2086C145.325 23.7333 144.089 23.4959 142.666 23.4959H135.709V39.5803H139.429V35.0997H142.85L145.949 39.5803H149.943L146.339 34.4099C147.396 33.9504 148.21 33.2882 148.784 32.4231" fill="#3F4444"/>
<path d="M39.3381 24.0422C37.4841 33.2243 29.3884 39.857 20.0015 39.857C9.10724 39.857 0.273682 31.016 0.273682 20.1119C0.273682 9.2085 9.10724 0.367478 20.0015 0.367478C25.1909 0.367478 30.2814 2.47854 33.9507 6.15151C37.6206 9.8233 32.0417 15.4081 28.3712 11.7351C26.122 9.48396 23.183 8.2655 20.0015 8.2655C13.4634 8.2655 8.16445 13.5689 8.16445 20.1119C8.16445 26.6555 13.4634 31.959 20.0015 31.959C25.0691 31.959 29.5653 28.7326 31.2014 23.9566H20.0015C14.8313 23.9566 14.8313 16.0891 20.0015 16.0891H39.8382C40.9203 16.0891 43.2475 13.6404 45.0599 11.3565C49.1027 6.26169 53.7804 0.367478 63.4033 0.367478H71.2947C76.4841 0.367478 76.4841 8.2655 71.2947 8.2655H63.4033C57.6611 8.2655 54.2735 12.4226 51.3619 16.0891H67.3484C72.5185 16.0891 72.5185 23.9566 67.3484 23.9566H51.2196C54.4509 28.0111 57.7272 31.959 63.4033 31.959C66.0285 31.959 68.6654 31.9596 71.2947 31.9596C76.4841 31.9596 76.4841 39.857 71.2947 39.857C68.6654 39.857 66.0285 39.857 63.4033 39.857C53.7804 39.857 49.1027 33.9634 45.0599 28.868C43.6386 27.0769 41.8403 24.0422 39.3381 24.0422Z" fill="#EE2737"/>
</svg>
