<svg xmlns="http://www.w3.org/2000/svg" width="529.166" height="136.914" viewBox="0 0 529.166 136.914">
  <g id="Group_9" data-name="Group 9" transform="translate(-34.978 -19.011)">
    <circle id="Ellipse_1" data-name="Ellipse 1" cx="68.457" cy="68.457" r="68.457" transform="translate(34.978 19.011)" fill="#ad0f0a"/>
    <path id="Path_1" data-name="Path 1" d="M86.334,134.62a1.5,1.5,0,0,0-1.445,1.106H74.974a11.486,11.486,0,0,1-11.042-8.439L43.629,73.2a1.507,1.507,0,1,0-.75.282l20.292,54.051a12.275,12.275,0,0,0,11.8,8.992h9.915a1.5,1.5,0,1,0,1.445-1.907Z" fill="#fff"/>
    <path id="Path_2" data-name="Path 2" d="M130.795,134.62a1.5,1.5,0,0,0-1.445,1.106H119.318a11.417,11.417,0,0,1-10.872-7.88L103.581,113,97.8,130.555a1.508,1.508,0,1,0,.76.251l5.017-15.24,4.106,12.531a12.218,12.218,0,0,0,11.634,8.43H129.35a1.5,1.5,0,1,0,1.445-1.907Z" fill="#fff"/>
    <path id="Path_3" data-name="Path 3" d="M163.244,74.338l-19.261,51.3a1.506,1.506,0,1,0,.75.281l19.261-51.3a1.507,1.507,0,1,0-.75-.281Z" fill="#fff"/>
    <path id="Path_4" data-name="Path 4" d="M99.718,55.758a1.5,1.5,0,0,0,1.445-1.106h7.784a11.38,11.38,0,0,1,10.942,8.1l3.953,12.925,3.05-12.328A11.419,11.419,0,0,1,138,54.652H154.09a1.507,1.507,0,1,0,0-.8H138a12.218,12.218,0,0,0-11.884,9.3l-2.354,9.514-3.105-10.153a12.177,12.177,0,0,0-11.708-8.665h-7.783a1.5,1.5,0,1,0-1.446,1.907Z" fill="#fff"/>
    <path id="Path_5" data-name="Path 5" d="M51.158,55.758A1.5,1.5,0,0,0,52.6,54.652H69.161a11.419,11.419,0,0,1,11.106,8.694l3.05,12.329L86.408,65.57a1.506,1.506,0,1,0-.766-.234L83.4,72.669l-2.354-9.515a12.22,12.22,0,0,0-11.884-9.3H52.6a1.5,1.5,0,1,0-1.446,1.907Z" fill="#fff"/>
    <path id="Path_6" data-name="Path 6" d="M81.6,88.771a1.958,1.958,0,1,0,2.816-1.142l7.2-23.553a6.86,6.86,0,0,1,6.6-4.881h6.86a1.958,1.958,0,1,0,0-.8h-6.86a7.657,7.657,0,0,0-7.363,5.449l-7.2,23.552A1.96,1.96,0,0,0,81.6,88.771Z" fill="#fff"/>
    <path id="Path_7" data-name="Path 7" d="M45.661,68.173,67.55,126.329a7.723,7.723,0,0,0,3.568,4.612c0,.024-.014.046-.018.07a1.979,1.979,0,1,0,.331-.821,6.967,6.967,0,0,1-3.12-4.109L46.422,67.925a6.9,6.9,0,0,1,6.652-8.73H65.286a1.958,1.958,0,1,0,0-.8H53.074a7.7,7.7,0,0,0-7.413,9.78Z" fill="#fff"/>
    <path id="Path_8" data-name="Path 8" d="M139.718,126.354l21.8-58.227a7.7,7.7,0,0,0-7.427-9.734H141.872a1.958,1.958,0,1,0,0,.8H154.09a6.9,6.9,0,0,1,6.666,8.685l-21.8,58.227a6.915,6.915,0,0,1-6.654,5.077h-9.11a1.958,1.958,0,1,0,0,.8h9.11A7.707,7.707,0,0,0,139.718,126.354Z" fill="#fff"/>
    <path id="Path_9" data-name="Path 9" d="M118.373,65.26a1.958,1.958,0,1,0-1.695,2.522l7.627,24.938L130.371,68.2a1.96,1.96,0,1,0-.778-.193l-5.37,21.707-6.779-22.165A1.959,1.959,0,0,0,118.373,65.26Z" fill="#fff"/>
    <path id="Path_10" data-name="Path 10" d="M51.96,66.331a2.26,2.26,0,1,0-2.995-1.114,2.236,2.236,0,0,0,.971,1.033,3.3,3.3,0,0,0,.1.717l21.889,58.156a3.167,3.167,0,0,0,3.045,2.32h8.388a2.261,2.261,0,1,0,0-.8H74.974a2.379,2.379,0,0,1-2.284-1.767L50.8,66.719c-.018-.068-.016-.137-.029-.205A2.243,2.243,0,0,0,51.96,66.331Z" fill="#fff"/>
    <path id="Path_11" data-name="Path 11" d="M104.851,91.061c-.051-.022-.108-.029-.16-.049a2.288,2.288,0,1,0-.007.869,2.3,2.3,0,0,1,1.135,1.346l10.5,32.041a3.153,3.153,0,0,0,3,2.175h8.506a2.261,2.261,0,1,0,0-.8h-8.506a2.355,2.355,0,0,1-2.24-1.625l-10.5-32.041A3.092,3.092,0,0,0,104.851,91.061Z" fill="#fff"/>
    <path id="Path_12" data-name="Path 12" d="M154.156,64.957a2.276,2.276,0,1,0,.614-1.934,3.189,3.189,0,0,0-.68-.087H138a3.152,3.152,0,0,0-3.066,2.4l-8.2,33.145a2.283,2.283,0,0,1-1.23,1.546,2.231,2.231,0,0,0-.508-1.08,2.281,2.281,0,1,0,.5,1.933c.1-.036.212-.058.312-.1a3.076,3.076,0,0,0,1.706-2.1l8.2-33.144A2.35,2.35,0,0,1,138,63.737H154.09c.07,0,.134.02.2.026A2.224,2.224,0,0,0,154.156,64.957Z" fill="#fff"/>
    <path id="Path_13" data-name="Path 13" d="M97.087,66.327A2.26,2.26,0,1,0,94.1,65.2a2.237,2.237,0,0,0,.8.935L84.966,98.6a2.347,2.347,0,0,1-2.318,1.667,2.313,2.313,0,0,1-2.224-1.79L73.3,69.682a2.258,2.258,0,1,0-.778.193l7.122,28.8a3.091,3.091,0,0,0,2.98,2.4h.1a3.086,3.086,0,0,0,3.011-2.235l9.9-32.379A2.238,2.238,0,0,0,97.087,66.327Z" fill="#fff"/>
    <path id="Path_14" data-name="Path 14" d="M113.632,124.087a1.959,1.959,0,0,0-2.077-1.337L103.58,98.406,96.187,121.26h-.023l-1.524,4.615a8.407,8.407,0,0,1-7.805,5.287l-4.053.01a1.553,1.553,0,0,0-1.506-1.226,1.577,1.577,0,0,0,0,3.153,1.561,1.561,0,0,0,1.478-1.088l4.083-.01a9.147,9.147,0,0,0,8.6-5.855l.391-1.183.007,0,.34-1.053.876-2.652h-.019l6.552-20.281L110.794,123a1.958,1.958,0,1,0,2.838,1.087Z" fill="#fff"/>
    <g id="Group_1" data-name="Group 1">
      <path id="Path_15" data-name="Path 15" d="M249.368,110.468a3.88,3.88,0,0,1-3.541,2.714h-3.94a3.792,3.792,0,0,1-3.49-2.728l-6.056-24.33c-.373-1.5-.707-2.728-.74-2.728s-.363,1.229-.731,2.73l-5.956,24.326a3.772,3.772,0,0,1-3.479,2.73h-4.123a3.862,3.862,0,0,1-3.531-2.717L203.636,72.14a2.059,2.059,0,0,1,2.092-2.717h4a3.722,3.722,0,0,1,3.448,2.738l5.651,24.309c.35,1.506.665,2.738.7,2.738s.374-1.226.756-2.724l6.211-24.337A3.818,3.818,0,0,1,230,69.423h3.387a3.788,3.788,0,0,1,3.488,2.728L243,96.847c.372,1.5.7,2.729.737,2.729s.353-1.231.711-2.735l5.871-24.683a3.741,3.741,0,0,1,3.461-2.735h3.816a2.049,2.049,0,0,1,2.081,2.715Z" fill="#ad0f0a"/>
    </g>
    <g id="Group_2" data-name="Group 2">
      <path id="Path_16" data-name="Path 16" d="M279.3,72.051a4.393,4.393,0,0,1,3.809-2.628h4.246a4.365,4.365,0,0,1,3.8,2.633l14.394,38.493a1.823,1.823,0,0,1-1.827,2.633h-4.367a4.205,4.205,0,0,1-3.716-2.661l-1.5-4.421a4.2,4.2,0,0,0-3.716-2.662h-10.74a4.263,4.263,0,0,0-3.745,2.652l-1.564,4.441a4.261,4.261,0,0,1-3.745,2.651H266.5a1.812,1.812,0,0,1-1.813-2.628Zm1.02,21.566a1.862,1.862,0,0,0,1.871,2.649H287.9a1.885,1.885,0,0,0,1.9-2.659l-3.689-10.739c-.5-1.462-.941-2.659-.975-2.659s-.485,1.193-1,2.65Z" fill="#ad0f0a"/>
    </g>
    <g id="Group_3" data-name="Group 3">
      <path id="Path_17" data-name="Path 17" d="M317.018,72.234a2.819,2.819,0,0,1,2.811-2.811h4a2.819,2.819,0,0,1,2.811,2.811V102.28a2.82,2.82,0,0,0,2.811,2.812h12.893a2.82,2.82,0,0,1,2.812,2.811v2.468a2.82,2.82,0,0,1-2.812,2.811H319.829a2.819,2.819,0,0,1-2.811-2.811Z" fill="#ad0f0a"/>
    </g>
    <g id="Group_4" data-name="Group 4">
      <path id="Path_18" data-name="Path 18" d="M355.487,72.234a2.82,2.82,0,0,1,2.812-2.811h4a2.82,2.82,0,0,1,2.812,2.811V102.28a2.82,2.82,0,0,0,2.811,2.812h12.893a2.819,2.819,0,0,1,2.811,2.811v2.468a2.819,2.819,0,0,1-2.811,2.811H358.3a2.82,2.82,0,0,1-2.812-2.811Z" fill="#ad0f0a"/>
    </g>
    <g id="Group_5" data-name="Group 5">
      <path id="Path_19" data-name="Path 19" d="M394.306,72.234a2.819,2.819,0,0,1,2.811-2.811h27.1a2.82,2.82,0,0,1,2.812,2.811V74.7a2.82,2.82,0,0,1-2.812,2.811H406.739a2.819,2.819,0,0,0-2.811,2.811v3.755a2.82,2.82,0,0,0,2.811,2.812h15.583a2.819,2.819,0,0,1,2.811,2.811v1.854a2.82,2.82,0,0,1-2.811,2.812H406.739a2.819,2.819,0,0,0-2.811,2.811v5.1a2.82,2.82,0,0,0,2.811,2.812h17.973a2.819,2.819,0,0,1,2.811,2.811v2.468a2.819,2.819,0,0,1-2.811,2.811h-27.6a2.819,2.819,0,0,1-2.811-2.811Z" fill="#ad0f0a"/>
    </g>
    <g id="Group_6" data-name="Group 6">
      <path id="Path_20" data-name="Path 20" d="M450.748,80.323a2.819,2.819,0,0,0-2.811-2.811H441.5a2.819,2.819,0,0,1-2.811-2.811V72.234a2.819,2.819,0,0,1,2.811-2.811h28.124a2.819,2.819,0,0,1,2.811,2.811V74.7a2.819,2.819,0,0,1-2.811,2.811h-6.44a2.819,2.819,0,0,0-2.811,2.811v30.048a2.819,2.819,0,0,1-2.811,2.811h-4a2.819,2.819,0,0,1-2.811-2.811Z" fill="#ad0f0a"/>
    </g>
    <g id="Group_7" data-name="Group 7">
      <path id="Path_21" data-name="Path 21" d="M492.781,80.323a2.819,2.819,0,0,0-2.811-2.811h-6.439A2.819,2.819,0,0,1,480.72,74.7V72.234a2.819,2.819,0,0,1,2.811-2.811h28.123a2.819,2.819,0,0,1,2.811,2.811V74.7a2.819,2.819,0,0,1-2.811,2.811h-6.439a2.82,2.82,0,0,0-2.812,2.811v30.048a2.819,2.819,0,0,1-2.811,2.811h-4a2.82,2.82,0,0,1-2.812-2.811Z" fill="#ad0f0a"/>
    </g>
    <g id="Group_8" data-name="Group 8">
      <path id="Path_22" data-name="Path 22" d="M543.336,68.38c13.482,0,20.808,10.113,20.808,23.107,0,12.624-7.326,22.738-20.808,22.738s-20.81-10.114-20.81-22.738C522.526,78.493,529.852,68.38,543.336,68.38Zm0,37.754c8.642,0,11.186-7.355,11.186-14.647,0-7.661-2.544-15.016-11.186-15.016s-11.188,7.355-11.188,15.016C532.148,98.779,534.7,106.134,543.336,106.134Z" fill="#ad0f0a"/>
    </g>
  </g>
</svg>
