<?xml version="1.0" encoding="utf-8"?>
<!-- Generator: Adobe Illustrator 16.0.0, SVG Export Plug-In . SVG Version: 6.00 Build 0)  -->
<!DOCTYPE svg PUBLIC "-//W3C//DTD SVG 1.1//EN" "http://www.w3.org/Graphics/SVG/1.1/DTD/svg11.dtd">
<svg version="1.1" id="Слой_1" xmlns="http://www.w3.org/2000/svg" xmlns:xlink="http://www.w3.org/1999/xlink" x="0px" y="0px"
	 width="200.01px" height="120px" viewBox="0 0 200.01 120" enable-background="new 0 0 200.01 120" xml:space="preserve">
<g>
	<g>
		<path d="M33.822,35.471H7.879l3.505,46.121l5.707,2.285v-7.821l1.715,0.086v8.752l5.709,2.284v-5.391l1.714,0.064v6.343
			l6.755,2.335v-4.233h1.686v4.233l6.752-2.335v-6.343l1.72-0.064v5.391l5.698-2.284v-8.752l1.718-0.086v7.821l5.709-2.285
			l3.51-46.121H33.822z M33.822,77.622l-5.542-3.981l5.542-2.386l5.549,2.386L33.822,77.622z M50.34,61.584l-1.501,0.979v-4.547
			l-5.698,2.281v5.983v1.04v3.541l-1.633,1.242l-7.686-3.206l-7.68,3.206l-1.628-1.242v-3.541v-1.04v-5.983l-5.709-2.281v4.547
			l-1.5-0.979L16.14,41.13l17.741,4.907l17.628-4.907L50.34,61.584z"/>
		<polygon points="29.07,63.837 29.46,66.885 33.822,68.565 38.193,66.885 38.578,63.837 33.822,64.672 		"/>
		<g>
			<g>
				<g>
					<polygon points="49.56,47.347 38.071,51.028 43.33,54.365 					"/>
				</g>
			</g>
			<g>
				<g>
					<polygon points="18.09,47.347 29.578,51.028 24.313,54.365 					"/>
				</g>
			</g>
		</g>
	</g>
	<g>
		<path fill="#DB1F26" d="M70.88,50.684h4.167v12.283h6.66v4.095H70.88V50.684z"/>
		<path fill="#DB1F26" d="M87.516,57.118h6.638v3.586h-6.638v2.448h7.218v3.909H83.327V50.684h11.406v3.886h-7.218V57.118z"/>
		<path fill="#DB1F26" d="M96.425,56.075c0-3.772,3.378-5.623,6.778-5.623c3.396,0,6.801,1.878,6.801,5.623v5.595
			c0,3.749-3.377,5.626-6.782,5.626c-3.401,0-6.797-1.877-6.797-5.626V56.075z M100.565,61.67c0,1.208,1.336,1.782,2.656,1.782
			c1.323,0,2.645-0.6,2.645-1.782v-5.595c0-1.27-1.365-1.854-2.709-1.854c-1.3,0-2.592,0.648-2.592,1.854V61.67z"/>
		<path d="M120.764,55.376c-1.161-2.702-6.021-2.24-6.021,0.467v5.943c0,2.919,6.11,2.894,6.11,0v-0.762h-3.727v-3.305h7.061v4.066
			c0,7.286-12.817,7.338-12.817,0v-5.943c0-3.586,3.187-5.392,6.384-5.392c2.221,0,4.511,0.898,5.764,3.469L120.764,55.376z"/>
		<path d="M130.013,50.684h3.262l5.876,16.378h-3.56l-1.437-3.746h-4.879c-0.507,1.391-0.835,2.29-1.365,3.746h-3.632
			L130.013,50.684z M131.519,54.297l-0.462,2.354l-0.924,3.545h3.142l-1.04-3.563l-0.462-2.336H131.519z"/>
		<path d="M152.268,57.371l-0.779,2.29l-2.246,5.251h-2.549l-2.266-5.278l-0.784-2.239h-0.231l0.371,3.169v6.498h-3.403V50.684
			h3.559l3.98,9.417l4.025-9.417h3.561v16.378h-3.396v-6.521l0.421-3.17H152.268z"/>
		<path d="M157.963,50.684h3.399v16.378h-3.399V50.684z"/>
		<path d="M173.995,62.531c-0.188-1.065-0.466-3.124-0.489-3.473v-8.375h3.403v16.378h-3.636l-4.992-8.603l-0.996-2.221l-0.23,0.046
			l0.439,2.797v7.98h-3.426V50.684h3.352l5.188,8.932l1.155,2.962L173.995,62.531z"/>
		<path d="M188.708,55.376c-1.156-2.702-6.018-2.24-6.018,0.467v5.943c0,2.919,6.108,2.894,6.108,0v-0.762h-3.727v-3.305h7.059
			v4.066c0,7.286-12.817,7.338-12.817,0v-5.943c0-3.586,3.19-5.392,6.385-5.392c2.226,0,4.511,0.898,5.763,3.469L188.708,55.376z"/>
	</g>
</g>
</svg>
