<?xml version="1.0" encoding="UTF-8" standalone="no"?>
<!-- Created with Inkscape (http://www.inkscape.org/) -->

<svg
   xmlns:dc="http://purl.org/dc/elements/1.1/"
   xmlns:cc="http://creativecommons.org/ns#"
   xmlns:rdf="http://www.w3.org/1999/02/22-rdf-syntax-ns#"
   xmlns:svg="http://www.w3.org/2000/svg"
   xmlns="http://www.w3.org/2000/svg"
   xmlns:sodipodi="http://sodipodi.sourceforge.net/DTD/sodipodi-0.dtd"
   xmlns:inkscape="http://www.inkscape.org/namespaces/inkscape"
   width="415.4375"
   height="145.15625"
   id="svg2"
   version="1.1"
   inkscape:version="0.48.1 "
   sodipodi:docname="New document 1">
  <title
     id="title3015">BDO</title>
  <defs
     id="defs4" />
  <sodipodi:namedview
     id="base"
     pagecolor="#ffffff"
     bordercolor="#666666"
     borderopacity="1.0"
     inkscape:pageopacity="0.0"
     inkscape:pageshadow="2"
     inkscape:zoom="0.98994949"
     inkscape:cx="246.18762"
     inkscape:cy="187.47693"
     inkscape:document-units="px"
     inkscape:current-layer="layer1"
     showgrid="false"
     fit-margin-top="0"
     fit-margin-left="0"
     fit-margin-right="0"
     fit-margin-bottom="0"
     inkscape:window-width="1680"
     inkscape:window-height="988"
     inkscape:window-x="-8"
     inkscape:window-y="-8"
     inkscape:window-maximized="1" />
  <metadata
     id="metadata7">
    <rdf:RDF>
      <cc:Work
         rdf:about="">
        <dc:format>image/svg+xml</dc:format>
        <dc:type
           rdf:resource="http://purl.org/dc/dcmitype/StillImage" />
        <dc:title>BDO</dc:title>
      </cc:Work>
    </rdf:RDF>
  </metadata>
  <g
     inkscape:label="Layer 1"
     inkscape:groupmode="layer"
     id="layer1"
     transform="translate(-95.96875,-382.9375)">
    <path
       style="fill:#0b2972;fill-opacity:1;stroke:none"
       d="m 95.96875,386.9375 0.75,136.625 92.9375,-0.53125 c 9.77813,-0.99094 20.77989,-3.32672 28.46875,-9.3125 4.22191,-3.28677 8.43089,-7.63658 11.1875,-13.21875 l 0,22.78125 68.1875,-0.5 c 55.13558,-3.6968 73.8087,-41.7464 73.53125,-66.6875 -0.28926,-26.00177 -17.53216,-65.95963 -79.59375,-68.90625 l -62.125,-0.25 0,83.09375 c -3.67147,-8.11246 -11.56403,-16.00784 -28.53125,-20.71875 12.86946,-7.34173 18.66625,-18.79371 17.3125,-30.8125 -1.28788,-11.43397 -6.15415,-26.99456 -36,-31.0625 l -86.125,-0.5 z m 68.4375,18.03125 c 17.11433,3.08026 20.5201,12.77031 20.5625,20.09375 0.0461,7.95997 -4.45228,18.37686 -20.5625,19.1875 l -36.625,-0.125 0,-38.90625 36.625,-0.25 z m 97.96875,0.125 19.96875,0.28125 c 39.43252,-0.48228 52.17496,27.45586 52.03125,50 -0.11937,18.72519 -7.64854,49.86119 -52.03125,49.75 l -20.46875,-0.25 0.5,-99.78125 z m -87.25,57.09375 c 17.43699,1.77491 23.95771,11.92992 24.375,21.21875 0.36773,8.18538 -3.46778,20.27079 -23.875,21.84375 l -47.71875,0 0,-42.5625 47.21875,-0.5 z"
       id="path2996"
       inkscape:connector-curvature="0" />
    <path
       style="fill:#ffb20c;fill-opacity:1;stroke:none"
       d="m 430.6875,382.9375 c -44.57053,0 -80.6875,32.51335 -80.6875,72.59375 0,40.0804 36.11697,72.5625 80.6875,72.5625 44.57053,0 80.71875,-32.4821 80.71875,-72.5625 0,-40.0804 -36.14822,-72.59375 -80.71875,-72.59375 z m 0.4375,16.375 c 25.7175,0 46.5625,24.9497 46.5625,55.71875 0,30.76905 -20.845,55.71875 -46.5625,55.71875 -25.7175,0 -46.5625,-24.9497 -46.5625,-55.71875 0,-30.76905 20.845,-55.71875 46.5625,-55.71875 z"
       id="path3006"
       inkscape:connector-curvature="0" />
  </g>
</svg>
