<?xml version="1.0" encoding="UTF-8" standalone="no"?>
<svg
   xmlns:dc="http://purl.org/dc/elements/1.1/"
   xmlns:cc="http://creativecommons.org/ns#"
   xmlns:rdf="http://www.w3.org/1999/02/22-rdf-syntax-ns#"
   xmlns:svg="http://www.w3.org/2000/svg"
   xmlns="http://www.w3.org/2000/svg"
   xmlns:sodipodi="http://sodipodi.sourceforge.net/DTD/sodipodi-0.dtd"
   xmlns:inkscape="http://www.inkscape.org/namespaces/inkscape"
   width="293.87653"
   height="286.06107"
   viewBox="0 0 293.87653 286.06107"
   data-svgdocument=""
   id="_F7g1IQfhRjaDej3rFYLh6"
   class="fl-svgdocument"
   x="0"
   y="0"
   data-bbox="111.16971056477632 65.07713035010238 292.5135266526413 285.4274824309541"
   version="1.1"
   sodipodi:docname="dropayment-logo-original.svg"
   inkscape:version="0.92.5 (2060ec1f9f, 2020-04-08)">
  <metadata
     id="metadata26">
    <rdf:RDF>
      <cc:Work
         rdf:about="">
        <dc:format>image/svg+xml</dc:format>
        <dc:type
           rdf:resource="http://purl.org/dc/dcmitype/StillImage" />
        <dc:title></dc:title>
      </cc:Work>
    </rdf:RDF>
  </metadata>
  <sodipodi:namedview
     pagecolor="#ffffff"
     bordercolor="#666666"
     borderopacity="1"
     objecttolerance="10"
     gridtolerance="10"
     guidetolerance="10"
     inkscape:pageopacity="0"
     inkscape:pageshadow="2"
     inkscape:window-width="1920"
     inkscape:window-height="1163"
     id="namedview24"
     showgrid="false"
     inkscape:zoom="0.4609375"
     inkscape:cx="-209.24759"
     inkscape:cy="95.138603"
     inkscape:window-x="1920"
     inkscape:window-y="0"
     inkscape:window-maximized="1"
     inkscape:current-layer="g21" />
  <defs
     id="_MaIzexQ6ap5dgz2x3BfdL"
     transform="matrix(0.8334775567054749, 0, 0, 0.8334775567054749, 45.44513702392578, 44.05232620239258)">
    <radialGradient
       id="go_en5cjdnjk_2222"
       x1="0%"
       y1="50%"
       x2="100%"
       y2="50%"
       gradientTransform="scale(0.81524143,1.2266305)"
       cx="61.244498"
       cy="40.118812"
       fx="61.244498"
       fy="40.118812"
       r="36.21958"
       gradientUnits="userSpaceOnUse">
      <stop
         offset="32%"
         stop-color="rgb(124, 80, 226)"
         stop-opacity="0.93"
         id="stop2" />
      <stop
         offset="67%"
         stop-color="rgb(243, 243, 246)"
         stop-opacity="0.82"
         id="stop4" />
      <stop
         offset="85%"
         stop-color="rgb(0,0,0)"
         stop-opacity="1"
         id="stop6" />
    </radialGradient>
    <radialGradient
       id="go_en5cjdnjk_3527"
       x1="0%"
       y1="50%"
       x2="100%"
       y2="50%"
       gradientTransform="scale(0.81524143,1.2266305)"
       cx="61.244498"
       cy="40.118812"
       fx="61.244498"
       fy="40.118812"
       r="36.21958"
       gradientUnits="userSpaceOnUse">
      <stop
         offset="32%"
         stop-color="rgb(124, 80, 226)"
         stop-opacity="0.93"
         id="stop9" />
      <stop
         offset="64%"
         stop-color="rgb(243, 243, 246)"
         stop-opacity="0.82"
         id="stop11" />
      <stop
         offset="82%"
         stop-color="rgb(0, 0, 0)"
         stop-opacity="1"
         id="stop13" />
    </radialGradient>
  </defs>
  <path
     text="Dropayment"
     space="preserve"
     offset="0.5"
     font-scale="contain"
     font-size="48"
     data-fl-textpath=""
     font-weight="400"
     font-style="normal"
     letter-spacing="6"
     d="M 8.9139203,273.55875 H 0.63399132 V 230.95452 H 8.9139203 q 4.6281377,0 7.1260647,2.9544 2.497926,2.9544 2.497926,10.67642 v 0 15.34259 q 0,7.72202 -2.497926,10.67642 -2.497927,2.9544 -7.1260647,2.9544 z M 13.719576,261.0184 v 0 -17.46013 q 0,-8.71104 -4.8056557,-8.71104 v 0 H 5.503046 v 34.88221 h 3.4108743 q 4.8056557,0 4.8056557,-8.71104 z m 29.40199,-21.23872 v 0 l 1.217263,0.0634 -0.367715,5.17337 q -0.849548,-0.43111 -1.635698,-0.43111 v 0 q -4.628138,0 -4.691537,9.62399 v 0 19.34942 h -4.691537 v -32.86612 h 2.865642 l 1.344062,5.60448 q 1.217263,-6.51743 5.95952,-6.51743 z m 29.396918,12.78127 v 0 9.12948 q 0,7.24018 -2.218971,10.01706 -2.21897,2.76421 -6.327235,2.76421 -4.108265,0 -6.339915,-2.76421 -2.21897,-2.77688 -2.21897,-10.01706 v 0 -9.12948 q 0,-7.24018 2.21897,-10.01707 2.23165,-2.7642 6.339915,-2.7642 4.108265,0 6.327235,2.7642 2.218971,2.77689 2.218971,10.01707 z m -4.691538,9.97903 v 0 -10.82858 q 0,-8.15313 -3.829308,-8.15313 v 0 q -3.956107,0 -3.956107,8.15313 v 0 10.82858 q 0,8.15313 3.956107,8.15313 v 0 q 3.829308,0 3.829308,-8.15313 z m 19.11104,21.97414 v -43.82149 h 2.865642 l 1.217263,5.30017 q 1.394782,-6.21312 6.213117,-6.21312 v 0 q 3.220682,0 4.919772,2.73884 1.71178,2.73885 1.71178,10.04243 v 0 9.12948 q 0,7.30358 -1.71178,10.04242 -1.69909,2.73885 -4.919772,2.73885 v 0 q -4.45062,0 -5.845401,-5.71861 v 0 15.76103 z m 4.450621,-28.23798 v 0.84955 q 0,5.47769 0.69739,8.64764 0.697391,3.15728 1.610339,4.04487 0.912947,0.87491 2.434527,0.87491 v 0 q 3.284076,0 3.284076,-7.5445 v 0 -12.04584 q 0,-7.5445 -3.220677,-7.5445 v 0 q -1.394781,0 -2.345768,0.84955 -0.938308,0.84955 -1.673738,3.76591 -0.72275,2.92904 -0.786149,8.10241 z m 25.803453,7.11339 q 0,-5.78201 1.6991,-7.87418 1.71177,-2.10485 4.86905,-2.10485 3.16996,0 4.99586,2.43453 v 0 -6.39064 q 0,-5.8454 -3.6518,-5.8454 v 0 q -3.10655,0 -5.9088,3.60107 v 0 l -1.63569,-3.41087 q 1.39478,-1.71178 3.56303,-2.86564 2.15557,-1.15387 4.41258,-1.15387 v 0 q 7.91221,0 7.91221,10.71446 v 0 23.06461 h -2.86564 l -0.97635,-3.95611 q -0.67203,2.43453 -2.21897,3.65179 -1.54694,1.21727 -3.49963,1.21727 v 0 q -3.28408,0 -4.99585,-2.10486 -1.6991,-2.09217 -1.6991,-7.87417 v 0 z m 7.6713,7.25286 v 0 q 1.76249,0 2.7642,-1.28067 1.00171,-1.28066 1.12851,-4.62813 v 0 -1.64838 q -0.1268,-3.58839 -1.12851,-4.98317 -1.00171,-1.40747 -2.7642,-1.40747 v 0 q -3.04316,0 -3.04316,5.78201 v 0 2.38381 q 0,5.782 3.04316,5.782 z m 31.40033,7.91221 q -0.72275,3.34748 -2.45989,5.10997 -1.73713,1.7625 -4.32382,1.7625 -2.58669,0 -5.45233,-2.73884 v 0 l 1.64838,-3.16996 q 2.25701,2.01609 3.89271,2.01609 v 0 q 2.56132,0 3.41087,-4.99585 v 0 l 0.48184,-2.80224 -8.02634,-33.04364 h 4.67886 l 5.23677,23.86344 4.56474,-23.86344 h 4.75494 z m 25.56507,-21.97414 v 16.97829 h -4.69154 v -32.86612 h 2.86565 l 1.21726,5.17337 q 1.15386,-6.08632 6.02292,-6.08632 v 0 q 4.62814,0 5.8454,5.95952 v 0 q 1.28066,-5.95952 6.02292,-5.95952 v 0 q 3.10656,0 4.7803,2.80224 1.67373,2.80225 1.67373,10.21995 v 0 20.75688 h -4.69153 v -22.39258 q 0,-7.6079 -2.85297,-7.6079 v 0 q -4.19702,0 -4.32382,13.02219 v 0 16.97829 h -4.69153 v -22.39258 q 0,-7.6079 -2.78957,-7.6079 v 0 q -4.26042,0 -4.38722,13.02219 z m 54.7718,8.45744 q -0.41844,5.30017 -2.48525,7.36698 -2.07949,2.06682 -5.99756,2.06682 -3.93075,0 -6.21312,-2.76421 -2.28237,-2.77688 -2.28237,-10.01706 v 0 -9.12948 q 0,-7.24018 2.28237,-10.01707 2.28237,-2.7642 6.42868,-2.7642 4.13362,0 6.26383,2.73884 2.13021,2.73885 2.13021,10.04243 v 0 6.51743 H 224.2504 v 3.4616 q 0,8.15313 3.89271,8.15313 v 0 q 1.88929,0 2.92904,-1.33139 1.02707,-1.34406 1.45818,-4.99585 v 0 z M 224.2504,251.7114 v 0 3.4616 h 7.78542 v -3.4616 q 0,-8.15313 -3.82931,-8.15313 v 0 q -3.95611,0 -3.95611,8.15313 z m 31.58799,4.86906 v 16.97829 h -4.69153 v -32.86612 h 2.86564 l 1.21726,5.23677 q 1.28066,-6.14972 6.39064,-6.14972 v 0 q 3.16995,0 4.84369,2.80224 1.67374,2.80225 1.67374,10.21995 v 0 20.75688 h -4.69154 v -22.39258 q 0,-7.6079 -2.97976,-7.6079 v 0 q -4.50134,0 -4.62814,13.02219 z m 27.57103,-12.10924 h -3.04316 v -3.77859 h 3.22067 l 1.64838,-8.08973 h 2.80224 v 8.08973 h 4.32383 v 3.77859 h -4.32383 v 22.87441 q 0,3.23336 1.7625,3.23336 v 0 q 1.15386,0 2.43453,-0.97635 v 0 l 0.91295,3.58839 q -2.06682,1.28067 -4.26043,1.28067 v 0 q -5.47768,0 -5.47768,-8.08974 v 0 z"
     id="path17"
     inkscape:connector-curvature="0"
     style="font-style:normal;font-weight:400;font-size:48px;font-family:'Pathway Gothic One';letter-spacing:6;text-anchor:middle;fill:#7c50e2;stroke:#000000;stroke-width:1.26798296" />
  <g
     transform="matrix(2.4450359,0,0,2.4450359,24.812498,-11.694404)"
     id="g21"
     style="fill:url(#go_en5cjdnjk_2222);stroke:#000000;stroke-width:1">
    <path
       d="m 78.633,51.866 -8.848,-6.113 c -0.254,-0.175 -0.586,-0.178 -0.842,-0.007 l -9.082,6.042 -6,-16.914 L 40.821,5.727 C 40.675,5.405 40.325,5.224 39.98,5.3 39.633,5.374 39.386,5.68 39.386,6.033 V 21.321 L 28.055,10.775 c -0.24,-0.224 -0.596,-0.267 -0.882,-0.103 -0.285,0.162 -0.432,0.49 -0.361,0.811 l 9.834,45.249 c 0.003,0.015 0.012,0.026 0.016,0.04 0.007,0.026 0.018,0.051 0.028,0.077 0.025,0.063 0.058,0.121 0.099,0.175 0.01,0.013 0.013,0.028 0.023,0.041 l 12.09,13.921 -27.591,14.079 c -0.298,0.152 -0.46,0.483 -0.396,0.812 0.064,0.328 0.339,0.574 0.673,0.603 l 14.078,1.201 c 0.001,0 0.001,0 0.002,0 l 15.195,1.28 3.506,3.928 c 0.145,0.16 0.35,0.25 0.561,0.25 0.047,0 0.096,-0.005 0.145,-0.015 0.26,-0.051 0.475,-0.235 0.562,-0.485 l 2.979,-8.435 16.107,-10.763 c 0.018,-0.012 0.025,-0.029 0.043,-0.042 0.01,-0.009 0.025,-0.01 0.035,-0.019 0.018,-0.017 0.023,-0.041 0.041,-0.059 0.053,-0.057 0.096,-0.116 0.129,-0.185 0.016,-0.033 0.029,-0.065 0.041,-0.102 0.023,-0.076 0.031,-0.153 0.031,-0.234 0,-0.023 0.012,-0.045 0.008,-0.068 l -1,-8.914 -1.176,-10.455 5.35,-0.132 c 0.324,-0.008 0.607,-0.225 0.701,-0.535 0.092,-0.309 -0.026,-0.645 -0.293,-0.83 z M 72.596,64.298 73.442,71.832 66.35,70.078 61.057,55.155 Z M 52.176,35.273 37.759,54.795 28.785,13.504 Z M 50.288,71.963 62.618,71.564 35.571,86.168 24.33,85.209 Z m 4.357,18.981 -2.285,-2.56 4.174,-2.789 z m 7.406,-38.812 7.301,-4.855 6.533,4.514 z"
       id="path19"
       inkscape:connector-curvature="0"
       style="fill:url(#go_en5cjdnjk_3527);stroke:#000000;stroke-width:1" />
  </g>
</svg>
