<svg width="161" height="28" viewBox="0 0 161 28" fill="none" xmlns="http://www.w3.org/2000/svg">
<path fill-rule="evenodd" clip-rule="evenodd" d="M7.08044 27.9967H0V0H17.5402V17.5402H7.08044V27.9967ZM7.08044 7.08045V10.4597H10.4597V7.08045H7.08044Z" fill="black"/>
<path d="M20.9195 7.3663e-06H27.9999V28H10.4597V20.9196H20.9195V7.3663e-06Z" fill="black"/>
<path d="M45.184 5C47.8834 5 49.8589 5.52761 51.1104 6.58282C52.3865 7.6135 53.0245 9.22086 53.0245 11.4049C53.0245 13.5644 52.3865 15.1595 51.1104 16.1902C49.8344 17.1963 47.8712 17.6994 45.2209 17.6994H42.0552V23H39V5H45.184ZM45.5521 14.9755C47.1718 14.9755 48.3006 14.6687 48.9386 14.0552C49.6012 13.4417 49.9325 12.4724 49.9325 11.1472C49.9325 9.92025 49.5521 9.04908 48.7914 8.53374C48.0307 8.01841 46.8037 7.76074 45.1104 7.76074H42.0552V14.9755H45.5521Z" fill="black"/>
<path d="M60.6712 18.9141L58.8675 23H55.6282L63.5791 5H66.8184L74.7325 23H71.4932L69.6896 18.9141H60.6712ZM68.4748 16.0798L65.1988 8.68098L61.9227 16.0798H68.4748Z" fill="black"/>
<path d="M85.7945 23H82.7025V15.8957L76.0031 5H79.3528L84.2485 13.1718L89.181 5H92.4939L85.7945 15.8957V23Z" fill="black"/>
<path d="M96.2892 23V5H99.3444V20.1288H107.553V23H96.2892Z" fill="black"/>
<path d="M112.352 5H115.407V23H112.352V5Z" fill="black"/>
<path d="M135.369 5H138.387V23H135.111L124.915 9.8589V23H121.86V5H124.915L135.369 18.4356V5Z" fill="black"/>
<path d="M144.896 5H147.951V13.7607L156.197 5H160.025L152.81 12.8773L160.135 23H156.528L150.565 15.1227L147.951 17.9571V23H144.896V5Z" fill="black"/>
</svg>
