<svg xmlns="http://www.w3.org/2000/svg" width="60.626" height="68.25" fill="none" xmlns:v="https://vecta.io/nano"><g clip-path="url(#A)"><path d="M60.626 54.049L30.313 42.603V29.886l30.313 11.446z" fill="#945dae"/><g fill="#662480"><path d="M17.629 47.478l12.684-4.875V29.886l-12.684 4.875zm0 20.772l12.684-4.875V50.658l-12.684 4.875zm24.938-54.685l9.029 3.391V8.054l-9.029 3.391z"/></g><g fill="#945dae"><path d="M51.596 8.054v8.902l-12.469-4.663V3.391L30.313 0v8.902V21.62l30.313 11.446V20.348v-8.902zm-42.567.424l8.814 3.391v2.755L9.029 17.38z"/></g><path d="M21.284 3.391v8.902L9.029 16.957V8.478L0 11.87v8.478.424 1.696l17.629-6.783v10.81l12.684-4.875V8.902 0z" fill="#662480"/></g><defs><clipPath id="A"><path fill="#fff" d="M0 0h212.19v68.25H0z"/></clipPath></defs></svg>