<?xml version="1.0" encoding="UTF-8"?>
<svg width="48.8" height="14" version="1.1" viewBox="0 0 48.8 14.000001" xml:space="preserve" xmlns="http://www.w3.org/2000/svg" xmlns:cc="http://creativecommons.org/ns#" xmlns:dc="http://purl.org/dc/elements/1.1/" xmlns:rdf="http://www.w3.org/1999/02/22-rdf-syntax-ns#"><metadata><rdf:RDF><cc:Work rdf:about=""><dc:format>image/svg+xml</dc:format><dc:type rdf:resource="http://purl.org/dc/dcmitype/StillImage"/><dc:title/></cc:Work></rdf:RDF></metadata>
<style type="text/css">
	.st0{fill:#0B91EE;}
</style>
<g transform="translate(-.6 -1.5)" fill="#0b91ee">
	<path class="st0" d="m3.2 8.8v0.5c0 1.3 0.2 1.9 0.9 1.9s0.9-0.6 0.9-1.6h2.3c0 2.1-1.2 3.1-3.3 3.1-3.2 0-3.4-2.2-3.4-4.7 0-2.3 0.7-4 3.4-4 3.1 0 3.3 2 3.3 4.8h-4.1zm1.8-1.4c0-1.2-0.2-1.8-0.9-1.8-0.8 0-1 0.7-1 1.8h1.9z"/>
	<path class="st0" d="m8.6 1.5h4c2.8 0 3.3 2 3.3 3.4 0 2-0.9 3.4-3.6 3.4h-1.1v4.3h-2.6zm2.6 4.9h0.7c1 0 1.3-0.7 1.3-1.4 0-0.9-0.3-1.5-1.3-1.5h-0.7z"/>
	<path class="st0" d="m16.5 6.8c0-1.1 0.4-1.8 0.9-2.3 0.6-0.5 1.3-0.6 2.3-0.6 2.1 0 3 0.7 3 2.5v4.3c0 0.6 0 1.4 0.3 1.8h-2.4c-0.1-0.3-0.1-0.6-0.1-1-0.3 0.7-1.1 1.2-2 1.2-1.4 0-2.2-0.7-2.2-2.6 0-1 0.4-1.8 1-2.1s1.6-0.5 2.3-0.7c0.8-0.2 0.9-0.3 0.9-1 0-0.5-0.2-0.8-0.8-0.8-0.7 0-0.9 0.4-0.9 1.1h-2.3zm2.9 4.3c0.5 0 1-0.3 1-1.1v-1.5c-0.8 0.4-1.1 0.4-1.4 0.6s-0.4 0.5-0.4 0.9c0.1 0.6 0.3 1.1 0.8 1.1z"/>
	<path class="st0" d="m23.5 4.2h2.6l1 5.9 1-5.9h2.5l-2.3 8.5c-0.5 2.1-1.1 2.6-3 2.6h-1.1v-1.8c0.2 0 0.4 0.1 0.6 0.1 0.5 0 0.9-0.2 1.1-0.9z"/>
	<path class="st0" d="m30.7 9.8h2.4v2.8h-2.4v-2.8z"/>
	<path class="st0" d="m34.7 1.5h2.5v3.6c0.4-0.9 1.2-1.1 1.9-1.1 2.1 0 2.4 1.9 2.4 4.5 0 3.1-0.9 4.4-2.6 4.4-1.1 0-1.6-0.7-1.8-1.2v1h-2.4zm3.3 9.4c0.9 0 1-1.3 1-2.6 0-1.5 0-2.5-1-2.5-0.9 0-0.9 1.2-0.9 2.6 0 1.7 0.2 2.5 0.9 2.5z"/>
	<path class="st0" d="m47.1 4.2h2.3v8.1c0 1.9-0.8 3.2-3.5 3.2-2.4 0-3.2-1.1-3.2-2.3h2.3c0 0.2 0.1 0.4 0.3 0.5s0.4 0.2 0.6 0.2c0.8 0 1-0.5 1-2.1v-0.5c-0.3 1-1.1 1.2-2 1.2-1.8 0-2.4-1.8-2.4-4.1 0-2 0.3-4.3 2.5-4.3 1.1 0 1.7 0.6 2 1.4zm-1.1 6.4c0.7 0 0.9-0.5 0.9-2.4 0-1.5-0.2-2.3-0.9-2.3-0.8 0-0.9 1-0.9 2.3 0 1.7 0.2 2.4 0.9 2.4z"/>
</g>
</svg>
