<?xml version="1.0" encoding="UTF-8"?>
<svg width="94.934" height="138.16" version="1.0" viewBox="-4.6442871 -4.6442871 85.559061 124.57032" xmlns="http://www.w3.org/2000/svg" xmlns:cc="http://creativecommons.org/ns#" xmlns:dc="http://purl.org/dc/elements/1.1/" xmlns:rdf="http://www.w3.org/1999/02/22-rdf-syntax-ns#">
<metadata>
<rdf:RDF>
<cc:Work rdf:about="">
<dc:format>image/svg+xml</dc:format>
<dc:type rdf:resource="http://purl.org/dc/dcmitype/StillImage"/>
<dc:title/>
</cc:Work>
</rdf:RDF>
</metadata>
<path d="m3.8774 36.083c1.5625-0.68847 3.125-1.2256 4.6875-1.5625 2.8711-13.711 15.015-23.994 29.57-23.994 14.565 0 26.714 10.298 29.58 24.004 4.4678 0.84961 8.1641 2.6562 11.045 5.3467 0.11719-2.6318 0.0098-5.166-0.30273-7.5537-1.8408-20.713-19.209-36.968-40.386-36.968-21.802 0-39.551 17.28-40.474 38.882-0.12695 1.8652-0.16601 3.8086-0.09765 5.8398 1.831-1.543 3.9209-2.9297 6.377-3.9941" fill="#e3001b"/>
<path d="m61.802 39.155h-48.584c-2.3389 0-4.7607 0.54199-7.2559 1.6602-2.4072 1.0498-4.3799 2.3193-5.9619 3.8379-3.0127 3.623-4.5557 8.9209-4.6631 15.894v37.979c0.10742 6.9873 1.6504 12.28 4.6631 15.884 1.582 1.543 3.5547 2.8125 5.9619 3.8721 2.4951 1.0938 4.917 1.6455 7.2559 1.6455h48.584c12.549-0.11231 18.931-6.9971 19.131-20.605v-39.57c-0.20019-13.628-6.582-20.488-19.131-20.596" fill="#e3001b"/>
</svg>
