<?xml version="1.0" encoding="UTF-8" standalone="no"?>
<svg
   xmlns:dc="http://purl.org/dc/elements/1.1/"
   xmlns:cc="http://creativecommons.org/ns#"
   xmlns:rdf="http://www.w3.org/1999/02/22-rdf-syntax-ns#"
   xmlns:svg="http://www.w3.org/2000/svg"
   xmlns="http://www.w3.org/2000/svg"
   height="42.837502"
   width="42.05978"
   xml:space="preserve"
   viewBox="0 0 42.05978 42.837502"
   y="0px"
   x="0px"
   id="Layer_1"
   version="1.1"><metadata
   id="metadata53"><rdf:RDF><cc:Work
       rdf:about=""><dc:format>image/svg+xml</dc:format><dc:type
         rdf:resource="http://purl.org/dc/dcmitype/StillImage" /><dc:title></dc:title></cc:Work></rdf:RDF></metadata><defs
   id="defs51" />
<style
   id="style2"
   type="text/css">
	.st0{fill:#F69220;}
	.st1{fill:#606060;}
</style>
<path
   style="fill:#f69220"
   id="path4"
   d="m 13.84083,34.6375 c -0.9,0 -1.8,-0.5 -2.3,-1.3 l -11.19999968,-19.3 c -0.7,-1.3 -0.3,-2.9 0.99999998,-3.7 1.3,-0.7 2.9,-0.3 3.7,1 l 11.1999997,19.2 c 0.7,1.3 0.3,2.9 -1,3.7 -0.5,0.3 -0.9,0.4 -1.4,0.4 z"
   class="st0" />
<path
   style="fill:#606060"
   id="path6"
   d="m 42.04083,24.1375 c 0,-1.4 -0.5,-2.7 -1.3,-4.1 -1.2,-2.2 -2.6,-3.6 -4.5,-4.5 -1.6,-0.8 -3.4,-1.2 -5.2,-1 0.6,-1.3 1,-2.6 1.1,-4 0.2,-2 -0.5,-3.8 -1.7,-6 -0.8,-1.4 -1.8,-2.4 -2.9,-3.2 -1.2,-0.7 -2.4,-1.2 -3.8,-1.3 -1.4,-0.1 -2.8,0 -4.3,0.3 -0.5,0.1 -1,0.3 -1.5,0.4 -0.2,0.1 -0.4,0.2 -0.6,0.3 -0.9,0.3 -3.2,1.6 -4,2.1 l -3.8999997,2.3 h -0.1 c -1.4,0.9 -1.9,2.7 -1.1,4.2 0.6,1 1.6,1.5 2.5999997,1.5 0.5,0 1,-0.1 1.5,-0.4 h 0.1 l 6.3,-3.6 c 0.6,-0.3 1.2,-0.5 1.8,-0.6 0.6,-0.1 1.2,0 1.8,0.1 0.6,0.2 1.1,0.5 1.7,0.9 0.5,0.4 0.9,0.9 1.3,1.5 0.3,0.6 0.6,1.2 0.7,1.9 0.1,0.7 0.1,1.3 0,1.9 -0.1,0.6 -0.3,1.1 -0.7,1.6 -0.3,0.5 -0.8,0.9 -1.3,1.2 l -3.8,2.3 -1.6,0.9 -1,0.6 c -1.4,0.8 -1.8,2.5 -1,3.9 0.5,0.9 1.5,1.4 2.5,1.4 0.5,0 1,-0.1 1.4,-0.4 l 2.1,-1.2 5.4,-2.9 c 0.6,-0.3 1.1,-0.5 1.7,-0.5 0.6,0 1.2,0.1 1.7,0.3 0.6,0.2 1.1,0.5 1.6,0.9 0.5,0.4 0.9,0.9 1.3,1.5 0.3,0.6 0.5,1.2 0.6,1.8 0.1,0.6 0.1,1.3 -0.1,1.9 -0.1,0.6 -0.4,1.1 -0.8,1.7 -0.4,0.5 -0.9,0.9 -1.5,1.3 l -9.3,5.3 h -0.5 l -1.7,1 -3.3,1.8 c -1.4,0.8 -2,2.6 -1.2,4 0.5,1 1.5,1.6 2.6,1.6 0.5,0 1,-0.1 1.4,-0.4 l 8,-4.3 6.5,-3.5 c 1.4,-0.8 2.7,-1.8 3.8,-2.9 1.1,-1.1 1.9,-2.3 2.4,-3.5 0.6,-1.4 0.9,-2.7 0.8,-4.1 z"
   class="st1" />


</svg>