<?xml version="1.0" encoding="UTF-8"?>
<svg class="icon" width="511.93" height="490.16" version="1.1" viewBox="0 0 511.93149 980.31055" xmlns="http://www.w3.org/2000/svg" xmlns:cc="http://creativecommons.org/ns#" xmlns:dc="http://purl.org/dc/elements/1.1/" xmlns:rdf="http://www.w3.org/1999/02/22-rdf-syntax-ns#">
<metadata>
<rdf:RDF>
<cc:Work rdf:about="">
<dc:format>image/svg+xml</dc:format>
<dc:type rdf:resource="http://purl.org/dc/dcmitype/StillImage"/>
<dc:title/>
</cc:Work>
</rdf:RDF>
</metadata>
<path d="m542.62 753.57c155.06-201.87 92.16-418.38-5.8514-528.09-115.57-130.19-302.81-172.62-463.73-103.86-160.91 70.217-256 235.52-238.45 415.45 14.629 149.21 137.51 302.81 269.17 332.07 4.3886-32.183 13.166-64.366 14.629-98.011 2.9257-73.143 5.8514-147.75 1.4629-220.89-5.8514-98.011-19.017-106.79-119.95-117.03 48.274-17.554 89.234-27.794 133.12-8.7771 36.571 16.091 55.589 46.811 58.514 84.846 14.629 146.29-2.9257 286.72-52.663 425.69-11.703 35.109-14.629 33.646-48.274 23.406-236.98-71.68-384.73-315.98-337.92-555.89 46.811-250.15 269.17-421.3 519.31-400.82 355.47 29.257 561.74 406.67 394.97 721.19-11.703 21.943-24.869 35.109-51.2 32.183-23.406-2.9257-46.811-1.4628-73.143-1.4628z" fill="#c01c22"/>
<path d="m220.79 844.26c30.72-130.19 81.92-250.15 190.17-337.92l-1.4629-7.3143c-38.034 2.9257-74.606 4.3886-112.64 7.3143-2.9257-35.109 26.331-90.697 99.474-184.32-165.3-57.051-317.44-10.24-471.04 52.663 143.36-156.53 453.49-187.25 615.86-59.977-67.291 35.109-128.73 74.606-174.08 143.36 68.754-2.9257 134.58-4.3886 201.87 23.406-168.23 76.069-267.7 209.19-348.16 362.79zm163.84 100.94c0 11.703 0 23.406 2.9257 32.183h-36.571l-2.9257-16.091h-1.4629c-10.24 10.24-29.257 19.017-54.126 19.017-36.571 0-57.051-19.017-57.051-39.497 0-33.646 40.96-49.737 108.25-49.737 0-10.24 0-30.72-39.497-30.72-17.554 0-35.109 4.3886-46.811 8.7771l-8.7772-19.017c13.166-5.8514 36.571-11.703 62.903-11.703 57.051 0 71.68 26.331 71.68 54.126v52.663zm-39.497-35.109c-32.183 0-68.754 4.3886-68.754 27.794 0 14.629 13.166 21.943 27.794 21.943 21.943 0 39.497-11.703 39.497-27.794v-21.943zm231.13 67.291h-40.96v-78.994c0-19.017-8.7771-35.109-36.571-35.109-20.48 0-40.96 11.703-40.96 33.646v80.457h-40.96v-96.549c0-14.629 0-26.331-1.4629-38.034h35.109l1.4629 20.48h1.4628c8.7772-11.703 29.257-23.406 58.514-23.406 30.72 0 62.903 13.166 62.903 55.589zm191.63 2.9257h-48.274l-55.589-61.44-16.091 13.166v48.274h-40.96v-196.02h40.96v121.42s10.24-11.703 14.629-16.091l48.274-45.349h48.274l-67.291 55.589z" fill="#c01c22"/>
</svg>
