<svg xmlns="http://www.w3.org/2000/svg" xmlns:xlink="http://www.w3.org/1999/xlink" viewBox="0 0 1949.463 1337.8" width="2500" height="1715"><path d="M175.73 1241.9c0 4.3-3.6 7.8-7.9 7.8H15.63c3.8 37.6 32.1 71.9 71.9 71.9 27.2 0 47.4-10.4 62.6-32.1 2.2-3 5.5-4.9 9.7-3.1a7.33 7.33 0 0 1 4.3 5.5c.4 2.5-.3 3.9-1 5.3-15.3 26.7-45.8 39.8-75.7 39.8-51.2 0-87.7-45.8-87.7-94.8s36.5-94.8 87.7-94.8c51.2-.1 88.2 45.6 88.3 94.5m-16.3-7.4c-3.3-37.6-32.1-71.9-71.9-71.9s-68.1 34.3-71.9 71.9zm201-83.4c4.4 0 7.6 3.8 7.6 7.6 0 4.4-3.3 7.6-7.6 7.6h-40.8v160.1c0 3.8-3.3 7.6-7.6 7.6-4.4 0-7.6-3.8-7.6-7.6v-160.1h-39.2c-4.4 0-7.6-3.3-7.6-7.6 0-3.8 3.3-7.6 7.6-7.6h39.2v-58.6c0-3.7 2.5-7.1 6.1-7.7 5.1-.8 9.1 2.7 9.1 7.5v58.8zm248.9 77.4v97c0 4.4-3.8 7.6-7.6 7.6-4.4 0-7.6-3.3-7.6-7.6v-97c0-32.7-18.5-65.4-55-65.4-46.8 0-67 40.9-64.3 82.8 0 1.1.5 6 .5 6.5v72.8c0 3.7-2.5 7.1-6.1 7.7-5.1.8-9.1-2.7-9.1-7.5v-318.6c0-3.8 3.3-7.6 7.6-7.6 4.4 0 7.6 3.8 7.6 7.6v180.3c13.1-23.4 36.5-39.2 63.7-39.2 44.7 0 70.3 39.2 70.3 80.6m272.9 13.4c0 4.3-3.6 7.8-7.9 7.8h-152.3c3.8 37.6 32.1 71.9 71.9 71.9 27.2 0 47.4-10.4 62.6-32.1 2.2-3 5.5-4.9 9.7-3.1a7.33 7.33 0 0 1 4.3 5.5c.4 2.5-.3 3.9-1 5.3-15.3 26.7-45.8 39.8-75.7 39.8-51.2 0-87.7-45.8-87.7-94.8s36.5-94.8 87.7-94.8c51.3-.1 88.3 45.6 88.4 94.5m-16.4-7.4c-3.3-37.6-32.1-71.9-71.9-71.9s-68.1 34.3-71.9 71.9zm203.2-76.3c0 4.9-2.7 7.6-7.1 8.2-44.7 6.5-64.8 43-64.8 85.5v72.8c0 3.7-2.5 7.1-6.1 7.7-5.1.8-9.1-2.7-9.1-7.5V1159c0-3.7 2.5-7.1 6.1-7.7 5.1-.8 9.1 2.7 9.1 7.5v33.8c12.5-21.2 37.6-41.4 63.7-41.4 3.8-.1 8.2 2.7 8.2 7m250 83.7c0 4.3-3.6 7.8-7.9 7.8h-152.2c3.8 37.6 32.1 71.9 71.9 71.9 27.2 0 47.4-10.4 62.6-32.1 2.2-3 5.5-4.9 9.7-3.1a7.33 7.33 0 0 1 4.3 5.5c.4 2.5-.3 3.9-1 5.3-15.3 26.7-45.8 39.8-75.7 39.8-51.2 0-87.7-45.8-87.7-94.8s36.5-94.8 87.7-94.8c51.2-.1 88.2 45.6 88.3 94.5m-16.3-7.4c-3.3-37.6-32.1-71.9-71.9-71.9s-68.1 34.3-71.9 71.9zm262-74.4v166.3c0 4.4-3.8 7.6-7.6 7.6-4.4 0-7.6-3.3-7.6-7.6v-31.6c-12.5 25.1-34.9 43-63.2 43-45.2 0-70.3-39.2-70.3-80.6v-97.5c0-3.8 3.3-7.6 7.6-7.6 4.4 0 7.6 3.8 7.6 7.6v97.5c0 32.7 18.5 65.4 55 65.4 51.2 0 63.2-47.9 63.2-100.8v-62.1c0-4.4 4.4-8.9 9.8-7.3 3.3 1.1 5.5 4.3 5.5 7.7m385 67.8v97.5c0 4.4-3.8 7.6-7.6 7.6-4.4 0-7.6-3.3-7.6-7.6v-97.5c0-32.7-18.5-64.8-55-64.8-45.8 0-63.2 49-63.2 87.1v75.2c0 4.4-3.8 7.6-7.6 7.6-4.4 0-7.6-3.3-7.6-7.6v-97.5c0-32.7-18.5-64.8-55-64.8-46.3 0-65.4 36.5-63.7 85 0 1.1.5 3.3 0 3.8v73.3c0 3.7-2.5 7.1-6.2 7.7-5.1.8-9.1-2.7-9.1-7.5V1159c0-3.7 2.5-7.1 6.1-7.7 5.1-.8 9.1 2.7 9.1 7.5v27.8c13.1-23.4 36.5-38.7 63.7-38.7 31 0 55 19.6 64.8 48.5 12.5-28.3 37-48.5 68.6-48.5 44.7 0 70.3 38.6 70.3 80" fill="#3c3c3b"/><g transform="translate(-.169)"><g opacity=".6"><defs><path id="A" d="M720.6 306.4h508.7v266H720.6z"/></defs><clipPath id="B"><use xlink:href="#A"/></clipPath><path d="M975 306.4L720.6 422.1 975 572.4l254.3-150.3z" clip-path="url(#B)" fill="#010101"/></g><g opacity=".45"><defs><path id="C" d="M720.6 0H975v572.4H720.6z"/></defs><clipPath id="D"><use xlink:href="#C"/></clipPath><path d="M720.6 422.1L975 572.4V0z" clip-path="url(#D)" fill="#010101"/></g><g opacity=".8"><defs><path id="E" d="M975 0h254.4v572.4H975z"/></defs><clipPath id="F"><use xlink:href="#E"/></clipPath><path d="M975 0v572.4l254.3-150.3z" clip-path="url(#F)" fill="#010101"/></g><g opacity=".45"><defs><path id="G" d="M720.6 470.3H975v358.4H720.6z"/></defs><clipPath id="H"><use xlink:href="#G"/></clipPath><path d="M720.6 470.3L975 828.7V620.6z" clip-path="url(#H)" fill="#010101"/></g><g opacity=".8"><defs><path id="I" d="M975 470.3h254.5v358.4H975z"/></defs><clipPath id="J"><use xlink:href="#I"/></clipPath><path d="M975 620.6v208.1l254.5-358.4z" clip-path="url(#J)" fill="#010101"/></g></g></svg>