<?xml version="1.0" encoding="UTF-8"?>
<svg id="Layer_2" data-name="Layer 2" xmlns="http://www.w3.org/2000/svg" viewBox="0 0 424.57 136.6">
  <defs>
    <style>
      .cls-1 {
        fill: #24272d;
      }

      .cls-2 {
        fill: #fad900;
      }
    </style>
  </defs>
  <g id="Layer_1-2" data-name="Layer 1">
    <g>
      <g id="R">
        <path class="cls-1" d="M415.15,18.81c-1.29,0-2.5-.24-3.63-.73-1.13-.49-2.13-1.17-2.99-2.03-.86-.87-1.53-1.87-2.02-3-.49-1.13-.73-2.35-.73-3.65s.25-2.5.73-3.63c.49-1.13,1.16-2.13,2.02-2.99.86-.86,1.86-1.53,2.99-2.02,1.13-.49,2.35-.73,3.63-.73s2.52.25,3.65.73c1.13.49,2.13,1.16,3,2.02.87.86,1.54,1.86,2.03,2.99.49,1.13.73,2.35.73,3.63s-.25,2.52-.73,3.65c-.49,1.13-1.17,2.13-2.03,3-.87.87-1.87,1.54-3,2.03-1.13.49-2.35.73-3.65.73ZM415.19,16.92c1.36,0,2.61-.34,3.75-1.03,1.14-.69,2.05-1.6,2.74-2.74.69-1.14,1.03-2.39,1.03-3.75s-.34-2.66-1.03-3.8c-.69-1.14-1.6-2.05-2.74-2.72-1.14-.67-2.39-1.01-3.75-1.01s-2.66.34-3.8,1.01c-1.14.67-2.05,1.58-2.72,2.72-.67,1.14-1.01,2.41-1.01,3.8s.34,2.61,1.01,3.75c.67,1.14,1.58,2.05,2.72,2.74,1.14.69,2.41,1.03,3.8,1.03ZM412.18,13.65V5.13h3.58c.92,0,1.63.26,2.13.77.5.51.77,1.2.81,2.06,0,.51-.12.99-.36,1.42-.24.44-.61.8-1.11,1.08l1.58,3.19h-1.83l-1.4-2.9h-1.79v2.9h-1.61ZM413.79,9.25h2.04c.36,0,.65-.12.88-.37.23-.25.34-.55.34-.92,0-.42-.1-.74-.3-.96-.2-.22-.5-.33-.92-.33h-2.04v2.58Z"/>
      </g>
      <path class="cls-1" d="M138.44,55.23h-44.92c-10.78,0-16.6-5.85-16.65-16.38-.07-10.78,6.02-16.66,16.65-16.64l74.49-.05V0h-76.08c-22.22-.43-39.44,16.66-39.1,38.84-.18,15.64,8.56,30.27,23.25,35.8,4.76,1.85,10.04,2.77,15.85,2.77h45.44c11.98,0,17.97,5.9,17.97,17.7.09,11.2-6.5,19.42-17.97,19.29l-80.32.05v22.15c5.58,0,81.38,0,81.38,0,23.99.01,41.43-18.23,40.95-41.48.35-24.17-17.08-39.89-40.95-39.89Z"/>
      <rect class="cls-1" y="0" width="22.43" height="136.59"/>
      <path class="cls-2" d="M393.01,0h-28.38s-48.08,57.1-48.08,57.1c-5.45,6.47-5.45,15.92,0,22.39l48.08,57.1h28.38s-51.47-61.13-51.47-61.13c-3.49-4.14-3.49-10.2,0-14.34L393.01,0Z"/>
      <path class="cls-1" d="M192.38,136.6h28.38s47.44-56.35,47.44-56.35c5.81-6.91,5.81-16.99,0-23.9L220.76,0h-28.38s51.47,61.13,51.47,61.13c3.49,4.14,3.49,10.2,0,14.34l-51.47,61.13Z"/>
      <g>
        <polygon class="cls-1" points="292.45 51.45 335.77 0 307.39 0 278.26 34.6 292.45 51.45"/>
        <polygon class="cls-1" points="278.26 102.01 307.39 136.6 335.77 136.6 292.45 85.16 278.26 102.01"/>
      </g>
    </g>
  </g>
</svg>