<?xml version="1.0" encoding="UTF-8" standalone="no"?>
<svg
   width="94.24852"
   height="117.89754"
   viewBox="0 0 94.24852 117.89754"
   fill="none"
   version="1.1"
   id="svg116"
   sodipodi:docname="icon.svg"
   inkscape:version="1.2.2 (1:1.2.2+202212051552+b0a8486541)"
   xmlns:inkscape="http://www.inkscape.org/namespaces/inkscape"
   xmlns:sodipodi="http://sodipodi.sourceforge.net/DTD/sodipodi-0.dtd"
   xmlns="http://www.w3.org/2000/svg"
   xmlns:svg="http://www.w3.org/2000/svg">
  <defs
     id="defs120">
    <linearGradient
       id="linearGradient1811"
       inkscape:swatch="solid">
      <stop
         style="stop-color:#000000;stop-opacity:1;"
         offset="0"
         id="stop1809" />
    </linearGradient>
    <linearGradient
       id="linearGradient996"
       inkscape:swatch="solid">
      <stop
         style="stop-color:#000000;stop-opacity:1;"
         offset="0"
         id="stop994" />
    </linearGradient>
    <clipPath
       clipPathUnits="userSpaceOnUse"
       id="clipPath3837">
      <rect
         style="fill:none;fill-opacity:1;stroke:none;stroke-width:0.983599"
         id="rect3839"
         width="94.918037"
         height="118.83738"
         x="0.45460141"
         y="-0.24753854" />
    </clipPath>
    <clipPath
       clipPathUnits="userSpaceOnUse"
       id="clipPath3841">
      <rect
         style="fill:none;fill-opacity:1;stroke:none;stroke-width:0.983599"
         id="rect3843"
         width="94.918037"
         height="118.83738"
         x="0.45460141"
         y="-0.24753854" />
    </clipPath>
    <clipPath
       clipPathUnits="userSpaceOnUse"
       id="clipPath3845">
      <rect
         style="fill:none;fill-opacity:1;stroke:none;stroke-width:0.983599"
         id="rect3847"
         width="94.918037"
         height="118.83738"
         x="0.45460141"
         y="-0.24753854" />
    </clipPath>
    <clipPath
       clipPathUnits="userSpaceOnUse"
       id="clipPath3849">
      <rect
         style="fill:none;fill-opacity:1;stroke:none;stroke-width:0.983599"
         id="rect3851"
         width="94.918037"
         height="118.83738"
         x="0.45460141"
         y="-0.24753854" />
    </clipPath>
    <clipPath
       clipPathUnits="userSpaceOnUse"
       id="clipPath3853">
      <rect
         style="fill:none;fill-opacity:1;stroke:none;stroke-width:0.983599"
         id="rect3855"
         width="94.918037"
         height="118.83738"
         x="0.45460141"
         y="-0.24753854" />
    </clipPath>
    <clipPath
       clipPathUnits="userSpaceOnUse"
       id="clipPath3857">
      <rect
         style="fill:none;fill-opacity:1;stroke:none;stroke-width:0.983599"
         id="rect3859"
         width="94.918037"
         height="118.83738"
         x="0.45460141"
         y="-0.24753854" />
    </clipPath>
    <clipPath
       clipPathUnits="userSpaceOnUse"
       id="clipPath3861">
      <rect
         style="fill:none;fill-opacity:1;stroke:none;stroke-width:0.983599"
         id="rect3863"
         width="94.918037"
         height="118.83738"
         x="0.45460141"
         y="-0.24753854" />
    </clipPath>
    <clipPath
       clipPathUnits="userSpaceOnUse"
       id="clipPath3865">
      <rect
         style="fill:none;fill-opacity:1;stroke:none;stroke-width:0.983599"
         id="rect3867"
         width="94.918037"
         height="118.83738"
         x="0.45460141"
         y="-0.24753854" />
    </clipPath>
    <clipPath
       clipPathUnits="userSpaceOnUse"
       id="clipPath3869">
      <rect
         style="fill:none;fill-opacity:1;stroke:none;stroke-width:0.983599"
         id="rect3871"
         width="94.918037"
         height="118.83738"
         x="0.45460141"
         y="-0.24753854" />
    </clipPath>
    <clipPath
       clipPathUnits="userSpaceOnUse"
       id="clipPath3873">
      <rect
         style="fill:none;fill-opacity:1;stroke:none;stroke-width:0.983599"
         id="rect3875"
         width="94.918037"
         height="118.83738"
         x="0.45460141"
         y="-0.24753854" />
    </clipPath>
    <clipPath
       clipPathUnits="userSpaceOnUse"
       id="clipPath3877">
      <rect
         style="fill:none;fill-opacity:1;stroke:none;stroke-width:0.983599"
         id="rect3879"
         width="94.918037"
         height="118.83738"
         x="0.45460141"
         y="-0.24753854" />
    </clipPath>
    <clipPath
       clipPathUnits="userSpaceOnUse"
       id="clipPath3881">
      <rect
         style="fill:none;fill-opacity:1;stroke:none;stroke-width:0.983599"
         id="rect3883"
         width="94.918037"
         height="118.83738"
         x="0.45460141"
         y="-0.24753854" />
    </clipPath>
  </defs>
  <sodipodi:namedview
     id="namedview118"
     pagecolor="#505050"
     bordercolor="#eeeeee"
     borderopacity="1"
     inkscape:showpageshadow="0"
     inkscape:pageopacity="0"
     inkscape:pagecheckerboard="0"
     inkscape:deskcolor="#505050"
     showgrid="false"
     inkscape:zoom="2.4260985"
     inkscape:cx="15.8691"
     inkscape:cy="58.736279"
     inkscape:window-width="1920"
     inkscape:window-height="1136"
     inkscape:window-x="2907"
     inkscape:window-y="27"
     inkscape:window-maximized="1"
     inkscape:current-layer="svg116" />
  <path
     d="m 45.7929,59.6881 c 0,32.5825 22.0043,58.9959 49.148,58.9959 V 0.692307 c -27.1437,0 -49.148,26.413293 -49.148,58.995793 z"
     fill="#cade3d"
     id="path92"
     clip-path="url(#clipPath3881)"
     transform="translate(-0.692383,-0.692307)" />
  <path
     d="m 37.1197,15.7362 c -11.8356,9.418 -19.6592,25.7174 -19.6592,44.2469 0,18.5295 7.8236,34.8289 19.6592,44.2469 z"
     fill="#cade3d"
     id="path94"
     clip-path="url(#clipPath3877)"
     transform="translate(-0.692383,-0.692307)" />
  <path
     d="m 8.20913,30.1902 c -4.74773,8.436 -7.516747,18.5822 -7.516747,29.4979 0,10.9158 2.769017,21.0619 7.516747,29.498 z"
     fill="#cade3d"
     id="path96"
     clip-path="url(#clipPath3873)"
     transform="translate(-0.692383,-0.692307)" />
  <path
     d="m 186.773,26.5748 c 7.844,0 14.443,3.0593 19.798,9.1778 5.43,6.1185 8.145,13.9366 8.145,23.4543 0,9.5176 -2.677,17.3357 -8.032,23.4542 -5.355,6.1185 -12.03,9.1778 -20.024,9.1778 -7.241,0 -13.124,-2.7194 -17.649,-8.158 V 118.692 H 149.779 V 28.0478 h 19.232 v 7.025 c 4.375,-5.6653 10.295,-8.498 17.762,-8.498 z M 172.744,69.631 c 2.489,2.5682 5.619,3.8524 9.39,3.8524 3.771,0 6.901,-1.2842 9.39,-3.8524 2.489,-2.6438 3.734,-6.1185 3.734,-10.4241 0,-4.2301 -1.245,-7.6671 -3.734,-10.3109 -2.489,-2.6437 -5.619,-3.9656 -9.39,-3.9656 -3.771,0 -6.901,1.3219 -9.39,3.9656 -2.488,2.6438 -3.733,6.0808 -3.733,10.3109 0,4.3056 1.245,7.7803 3.733,10.4241 z"
     fill="#000000"
     id="path98"
     clip-path="url(#clipPath3869)"
     transform="translate(-0.692383,-0.692307)" />
  <path
     d="m 266.072,28.0478 h 19.232 l -0.113,62.3181 h -19.232 v -6.685 c -4.45,5.4386 -10.295,8.158 -17.536,8.158 -7.994,0 -14.669,-3.0593 -20.024,-9.1778 -5.355,-6.1185 -8.032,-13.9366 -8.032,-23.4542 0,-9.5177 2.677,-17.3358 8.032,-23.4543 5.43,-6.1185 12.068,-9.1778 19.911,-9.1778 7.467,0 13.388,2.8327 17.762,8.498 z M 243.559,69.631 c 2.489,2.5682 5.619,3.8524 9.39,3.8524 3.771,0 6.901,-1.2842 9.39,-3.8524 2.489,-2.6438 3.733,-6.1185 3.733,-10.4241 0,-4.2301 -1.244,-7.6671 -3.733,-10.3109 -2.489,-2.6437 -5.619,-3.9656 -9.39,-3.9656 -3.771,0 -6.901,1.3219 -9.39,3.9656 -2.489,2.6438 -3.734,6.0808 -3.734,10.3109 0,4.3056 1.245,7.7803 3.734,10.4241 z"
     fill="#000000"
     id="path100"
     clip-path="url(#clipPath3865)"
     transform="translate(-0.692383,-0.692307)" />
  <path
     d="m 336.786,28.0478 h 20.477 L 317.554,118.692 H 297.077 L 313.255,81.7547 289.837,28.0478 h 20.477 l 13.123,32.5187 z"
     fill="#000000"
     id="path102"
     clip-path="url(#clipPath3861)"
     transform="translate(-0.692383,-0.692307)" />
  <path
     d="m 429.843,26.5748 c 7.843,0 14.443,3.0593 19.798,9.1778 5.43,6.1185 8.145,13.9366 8.145,23.4543 0,9.5176 -2.677,17.3357 -8.032,23.4542 -5.355,6.1185 -12.03,9.1778 -20.024,9.1778 -7.241,0 -13.124,-2.7194 -17.649,-8.158 V 118.692 H 392.849 V 28.0478 h 19.232 v 7.025 c 4.374,-5.6653 10.295,-8.498 17.762,-8.498 z M 415.814,69.631 c 2.489,2.5682 5.619,3.8524 9.39,3.8524 3.771,0 6.901,-1.2842 9.39,-3.8524 2.489,-2.6438 3.734,-6.1185 3.734,-10.4241 0,-4.2301 -1.245,-7.6671 -3.734,-10.3109 -2.489,-2.6437 -5.619,-3.9656 -9.39,-3.9656 -3.771,0 -6.901,1.3219 -9.39,3.9656 -2.489,2.6438 -3.733,6.0808 -3.733,10.3109 0,4.3056 1.244,7.7803 3.733,10.4241 z"
     fill="#000000"
     id="path104"
     clip-path="url(#clipPath3857)"
     transform="translate(-0.692383,-0.692307)" />
  <path
     d="M 464.568,90.3659 V 0.760751 H 483.8 V 90.3659 Z"
     fill="#000000"
     id="path106"
     clip-path="url(#clipPath3853)"
     transform="translate(-0.692383,-0.692307)" />
  <path
     d="m 536.24,28.0478 h 19.233 l -0.113,62.3181 h -19.233 v -6.685 c -4.45,5.4386 -10.295,8.158 -17.535,8.158 -7.995,0 -14.67,-3.0593 -20.024,-9.1778 -5.355,-6.1185 -8.033,-13.9366 -8.033,-23.4542 0,-9.5177 2.678,-17.3358 8.033,-23.4543 5.43,-6.1185 12.067,-9.1778 19.911,-9.1778 7.466,0 13.387,2.8327 17.761,8.498 z M 513.727,69.631 c 2.489,2.5682 5.619,3.8524 9.39,3.8524 3.771,0 6.901,-1.2842 9.39,-3.8524 2.489,-2.6438 3.733,-6.1185 3.733,-10.4241 0,-4.2301 -1.244,-7.6671 -3.733,-10.3109 -2.489,-2.6437 -5.619,-3.9656 -9.39,-3.9656 -3.771,0 -6.901,1.3219 -9.39,3.9656 -2.489,2.6438 -3.733,6.0808 -3.733,10.3109 0,4.3056 1.244,7.7803 3.733,10.4241 z"
     fill="#000000"
     id="path108"
     clip-path="url(#clipPath3849)"
     transform="translate(-0.692383,-0.692307)" />
  <path
     d="m 600.62,26.5748 c 7.014,0 12.519,2.2284 16.517,6.6851 3.997,4.4567 5.996,10.4996 5.996,18.1289 V 90.3659 H 603.9 V 55.6944 c 0,-3.6258 -0.716,-6.3074 -2.149,-8.0447 -1.433,-1.8129 -3.998,-2.7193 -7.693,-2.7193 -7.618,0 -11.426,4.1167 -11.426,12.3503 V 90.3659 H 563.399 V 28.0478 h 19.233 v 7.025 c 4.6,-5.6653 10.596,-8.498 17.988,-8.498 z"
     fill="#000000"
     id="path110"
     clip-path="url(#clipPath3845)"
     transform="translate(-0.692383,-0.692307)" />
  <path
     d="m 662.169,26.5748 c 10.181,0 18.327,3.5503 24.436,10.6508 6.109,7.0249 8.673,15.7117 7.693,26.0603 h -45.366 c 0.453,4.5322 1.923,7.9691 4.412,10.3108 2.565,2.2661 5.657,3.3991 9.277,3.3991 2.64,0 4.94,-0.6043 6.901,-1.8128 1.961,-1.2842 3.319,-3.0215 4.073,-5.2121 h 19.798 c -2.037,7.3271 -5.883,12.8035 -11.54,16.4293 -5.581,3.6258 -11.992,5.4387 -19.232,5.4387 -9.805,0 -17.799,-3.097 -23.984,-9.2911 -6.184,-6.194 -9.277,-13.9743 -9.277,-23.3409 0,-9.2911 3.055,-17.0337 9.164,-23.2277 6.184,-6.2696 14.066,-9.4044 23.645,-9.4044 z m -0.114,14.8431 c -6.561,0 -10.747,3.3992 -12.557,10.1975 h 24.776 c -0.679,-3.097 -2.074,-5.552 -4.186,-7.3649 -2.037,-1.8884 -4.714,-2.8326 -8.033,-2.8326 z"
     fill="#000000"
     id="path112"
     clip-path="url(#clipPath3841)"
     transform="translate(-0.692383,-0.692307)" />
  <path
     d="m 747.411,70.8773 3.281,15.5229 c -1.961,1.3597 -4.789,2.606 -8.485,3.7391 -3.695,1.1331 -7.353,1.6996 -10.973,1.6996 -6.713,0 -12.369,-2.0773 -16.97,-6.2318 -4.525,-4.2301 -6.788,-10.6885 -6.788,-19.3753 V 46.1767 H 696.842 V 28.0478 h 10.634 V 15.2443 l 19.232,-4.1923 v 16.9958 h 20.93 v 18.1289 h -20.93 v 18.9221 c 0,5.8919 2.64,8.8378 7.92,8.8378 2.112,0 6.373,-1.0198 12.783,-3.0593 z"
     fill="#000000"
     id="path114"
     clip-path="url(#clipPath3837)"
     transform="translate(-0.692383,-0.692307)" />
</svg>
