<svg width="751" height="119" viewBox="0 0 751 119" fill="none" xmlns="http://www.w3.org/2000/svg">
<path d="M45.7929 59.6881C45.7929 92.2706 67.7972 118.684 94.9409 118.684V0.692307C67.7972 0.692307 45.7929 27.1056 45.7929 59.6881Z" fill="#CADE3D"/>
<path d="M37.1197 15.7362C25.2841 25.1542 17.4605 41.4536 17.4605 59.9831C17.4605 78.5126 25.2841 94.812 37.1197 104.23V15.7362Z" fill="#CADE3D"/>
<path d="M8.20913 30.1902C3.4614 38.6262 0.692383 48.7724 0.692383 59.6881C0.692383 70.6039 3.4614 80.75 8.20913 89.1861V30.1902Z" fill="#CADE3D"/>
<path d="M186.773 26.5748C194.617 26.5748 201.216 29.6341 206.571 35.7526C212.001 41.8711 214.716 49.6892 214.716 59.2069C214.716 68.7245 212.039 76.5426 206.684 82.6611C201.329 88.7796 194.654 91.8389 186.66 91.8389C179.419 91.8389 173.536 89.1195 169.011 83.6809V118.692H149.779V28.0478H169.011V35.0728C173.386 29.4075 179.306 26.5748 186.773 26.5748ZM172.744 69.631C175.233 72.1992 178.363 73.4834 182.134 73.4834C185.905 73.4834 189.035 72.1992 191.524 69.631C194.013 66.9872 195.258 63.5125 195.258 59.2069C195.258 54.9768 194.013 51.5398 191.524 48.896C189.035 46.2523 185.905 44.9304 182.134 44.9304C178.363 44.9304 175.233 46.2523 172.744 48.896C170.256 51.5398 169.011 54.9768 169.011 59.2069C169.011 63.5125 170.256 66.9872 172.744 69.631Z" fill="black"/>
<path d="M266.072 28.0478H285.304L285.191 90.3659H265.959V83.6809C261.509 89.1195 255.664 91.8389 248.423 91.8389C240.429 91.8389 233.754 88.7796 228.399 82.6611C223.044 76.5426 220.367 68.7245 220.367 59.2069C220.367 49.6892 223.044 41.8711 228.399 35.7526C233.829 29.6341 240.467 26.5748 248.31 26.5748C255.777 26.5748 261.698 29.4075 266.072 35.0728V28.0478ZM243.559 69.631C246.048 72.1992 249.178 73.4834 252.949 73.4834C256.72 73.4834 259.85 72.1992 262.339 69.631C264.828 66.9872 266.072 63.5125 266.072 59.2069C266.072 54.9768 264.828 51.5398 262.339 48.896C259.85 46.2523 256.72 44.9304 252.949 44.9304C249.178 44.9304 246.048 46.2523 243.559 48.896C241.07 51.5398 239.825 54.9768 239.825 59.2069C239.825 63.5125 241.07 66.9872 243.559 69.631Z" fill="black"/>
<path d="M336.786 28.0478H357.263L317.554 118.692H297.077L313.255 81.7547L289.837 28.0478H310.314L323.437 60.5665L336.786 28.0478Z" fill="black"/>
<path d="M429.843 26.5748C437.686 26.5748 444.286 29.6341 449.641 35.7526C455.071 41.8711 457.786 49.6892 457.786 59.2069C457.786 68.7245 455.109 76.5426 449.754 82.6611C444.399 88.7796 437.724 91.8389 429.73 91.8389C422.489 91.8389 416.606 89.1195 412.081 83.6809V118.692H392.849V28.0478H412.081V35.0728C416.455 29.4075 422.376 26.5748 429.843 26.5748ZM415.814 69.631C418.303 72.1992 421.433 73.4834 425.204 73.4834C428.975 73.4834 432.105 72.1992 434.594 69.631C437.083 66.9872 438.328 63.5125 438.328 59.2069C438.328 54.9768 437.083 51.5398 434.594 48.896C432.105 46.2523 428.975 44.9304 425.204 44.9304C421.433 44.9304 418.303 46.2523 415.814 48.896C413.325 51.5398 412.081 54.9768 412.081 59.2069C412.081 63.5125 413.325 66.9872 415.814 69.631Z" fill="black"/>
<path d="M464.568 90.3659V0.760751H483.8V90.3659H464.568Z" fill="black"/>
<path d="M536.24 28.0478H555.473L555.36 90.3659H536.127V83.6809C531.677 89.1195 525.832 91.8389 518.592 91.8389C510.597 91.8389 503.922 88.7796 498.568 82.6611C493.213 76.5426 490.535 68.7245 490.535 59.2069C490.535 49.6892 493.213 41.8711 498.568 35.7526C503.998 29.6341 510.635 26.5748 518.479 26.5748C525.945 26.5748 531.866 29.4075 536.24 35.0728V28.0478ZM513.727 69.631C516.216 72.1992 519.346 73.4834 523.117 73.4834C526.888 73.4834 530.018 72.1992 532.507 69.631C534.996 66.9872 536.24 63.5125 536.24 59.2069C536.24 54.9768 534.996 51.5398 532.507 48.896C530.018 46.2523 526.888 44.9304 523.117 44.9304C519.346 44.9304 516.216 46.2523 513.727 48.896C511.238 51.5398 509.994 54.9768 509.994 59.2069C509.994 63.5125 511.238 66.9872 513.727 69.631Z" fill="black"/>
<path d="M600.62 26.5748C607.634 26.5748 613.139 28.8032 617.137 33.2599C621.134 37.7166 623.133 43.7595 623.133 51.3888V90.3659H603.9V55.6944C603.9 52.0686 603.184 49.387 601.751 47.6497C600.318 45.8368 597.753 44.9304 594.058 44.9304C586.44 44.9304 582.632 49.0471 582.632 57.2807V90.3659H563.399V28.0478H582.632V35.0728C587.232 29.4075 593.228 26.5748 600.62 26.5748Z" fill="black"/>
<path d="M662.169 26.5748C672.35 26.5748 680.496 30.1251 686.605 37.2256C692.714 44.2505 695.278 52.9373 694.298 63.2859H648.932C649.385 67.8181 650.855 71.255 653.344 73.5967C655.909 75.8628 659.001 76.9958 662.621 76.9958C665.261 76.9958 667.561 76.3915 669.522 75.183C671.483 73.8988 672.841 72.1615 673.595 69.9709H693.393C691.356 77.298 687.51 82.7744 681.853 86.4002C676.272 90.026 669.861 91.8389 662.621 91.8389C652.816 91.8389 644.822 88.7419 638.637 82.5478C632.453 76.3538 629.36 68.5735 629.36 59.2069C629.36 49.9158 632.415 42.1732 638.524 35.9792C644.708 29.7096 652.59 26.5748 662.169 26.5748ZM662.055 41.4179C655.494 41.4179 651.308 44.8171 649.498 51.6154H674.274C673.595 48.5184 672.2 46.0634 670.088 44.2505C668.051 42.3621 665.374 41.4179 662.055 41.4179Z" fill="black"/>
<path d="M747.411 70.8773L750.692 86.4002C748.731 87.7599 745.903 89.0062 742.207 90.1393C738.512 91.2724 734.854 91.8389 731.234 91.8389C724.521 91.8389 718.865 89.7616 714.264 85.6071C709.739 81.377 707.476 74.9186 707.476 66.2318V46.1767H696.842V28.0478H707.476V15.2443L726.708 11.052V28.0478H747.638V46.1767H726.708V65.0988C726.708 70.9907 729.348 73.9366 734.628 73.9366C736.74 73.9366 741.001 72.9168 747.411 70.8773Z" fill="black"/>
</svg>
