<?xml version="1.0" encoding="UTF-8"?>
<svg width="205px" height="50px" viewBox="0 0 205 50" version="1.1" xmlns="http://www.w3.org/2000/svg" xmlns:xlink="http://www.w3.org/1999/xlink">
    <title>USD Coin/ondark</title>
    <g id="USDC-v3" stroke="none" stroke-width="1" fill="none" fill-rule="evenodd">
        <g id="USDC-HP" transform="translate(-165.000000, -197.000000)">
            <g id="hero/intro-on-light" transform="translate(160.000000, 197.000000)">
                <g id="Lockup" transform="translate(4.994743, 0.000000)">
                    <path d="M135.640324,25 C135.640324,17.1215686 141.443069,11.7416667 148.706402,11.7416667 C153.010029,11.7416667 156.029735,13.617549 158.07052,16.1818627 C158.329245,16.5068627 158.232578,16.9876471 157.869735,17.1898039 L156.44101,17.9857843 C156.114147,18.1678431 155.70601,18.0869608 155.471402,17.7954902 C153.956598,15.9130392 151.493461,14.5854902 148.706402,14.5854902 C143.21101,14.5854902 138.945324,18.8891176 138.945324,25 C138.945324,31.0719608 143.21101,35.4145098 148.706402,35.4145098 C151.495814,35.4145098 153.960814,34.1169608 155.475225,32.2070588 C155.707775,31.9138235 156.11601,31.8302941 156.443951,32.0104902 L157.890127,32.804902 C158.259049,33.007549 158.354833,33.4968627 158.088265,33.822451 C155.965912,36.4134314 153.011402,38.2583333 148.706402,38.2583333 C141.443069,38.2583333 135.640324,32.8777451 135.640324,25 L135.640324,25 Z M169.42552,18.7743137 C175.074833,18.7743137 178.610324,23.1168627 178.610324,28.4971569 C178.610324,33.877451 175.074833,38.2583333 169.42552,38.2583333 C163.776206,38.2583333 160.240814,33.877451 160.240814,28.4971569 C160.240814,23.1168627 163.776206,18.7743137 169.42552,18.7743137 Z M169.42552,21.3490196 C165.467088,21.3490196 163.238461,24.7309804 163.238461,28.4971569 C163.238461,32.3016667 165.467088,35.6836275 169.42552,35.6836275 C173.383853,35.6836275 175.574343,32.3016667 175.574343,28.4971569 C175.574343,24.7309804 173.383853,21.3490196 169.42552,21.3490196 Z M201.362088,25.6533333 C201.362088,22.3866667 199.709441,21.3490196 197.211598,21.3490196 C194.944245,21.3490196 192.792088,22.7326471 191.716206,24.2314706 L191.716206,37.0285294 C191.716206,37.4530392 191.372088,37.7971569 190.947676,37.7971569 L189.602284,37.7971569 C189.177873,37.7971569 188.833755,37.4530392 188.833755,37.0285294 L188.833755,20.0040196 C188.833755,19.5795098 189.177873,19.2354902 189.602284,19.2354902 L190.947676,19.2354902 C191.372088,19.2354902 191.716206,19.5795098 191.716206,20.0040196 L191.716206,21.9253922 C193.022873,20.3883333 195.559343,18.7743137 198.326206,18.7743137 C202.207578,18.7743137 204.244245,20.7343137 204.244245,24.7692157 L204.244245,37.0285294 C204.244245,37.4530392 203.900127,37.7971569 203.475716,37.7971569 L202.130716,37.7971569 C201.706206,37.7971569 201.362088,37.4530392 201.362088,37.0285294 L201.362088,25.6533333 Z M115.210912,12.1642157 C123.165912,12.1642157 128.354049,17.7362745 128.354049,25 C128.354049,32.3012745 123.165912,37.7966667 115.210912,37.7966667 L107.217676,37.7966667 C106.793265,37.7966667 106.449147,37.4526471 106.449147,37.0282353 L106.449147,12.9328431 C106.449147,12.5083333 106.793265,12.1642157 107.217676,12.1642157 L115.210912,12.1642157 Z M115.210912,15.0080392 L109.638559,15.0080392 L109.638559,34.9529412 L115.210912,34.9529412 C121.436696,34.9529412 125.049049,30.4954902 125.049049,25 C125.049049,19.4654902 121.551892,15.0080392 115.210912,15.0080392 Z M182.646892,19.2354902 L183.992186,19.2354902 C184.416696,19.2354902 184.760716,19.5795098 184.760716,20.0040196 L184.760716,37.0285294 C184.760716,37.4530392 184.416696,37.7971569 183.992186,37.7971569 L182.646892,37.7971569 C182.222382,37.7971569 181.878265,37.4530392 181.878265,37.0285294 L181.878265,20.0040196 C181.878265,19.5795098 182.222382,19.2354902 182.646892,19.2354902 L182.646892,19.2354902 Z M181.378755,14.162549 C181.378755,13.0866667 182.262971,12.2411765 183.300225,12.2411765 C184.376402,12.2411765 185.260225,13.0866667 185.260225,14.162549 C185.260225,15.2388235 184.376402,16.1226471 183.300225,16.1226471 C182.262971,16.1226471 181.378755,15.2388235 181.378755,14.162549 L181.378755,14.162549 Z M84.7808137,32.375 C85.0284608,32.0565686 85.493951,32.0296078 85.7832647,32.3105882 C87.4967941,33.975098 90.0676765,35.4145098 93.3271863,35.4145098 C97.9003235,35.4145098 99.3604216,32.955 99.3604216,30.9946078 C99.3604216,27.9203922 96.2479706,27.0751961 92.8660098,26.1528431 C88.7538529,25.0765686 84.1807157,23.9237255 84.1807157,18.8891176 C84.1807157,14.6620588 87.9468922,11.78 92.9812059,11.78 C96.5954216,11.78 99.4585588,12.8908824 101.569735,14.8415686 C101.869539,15.1185294 101.90199,15.5821569 101.643167,15.8978431 L100.639637,17.1221569 C100.392873,17.4233333 99.9446373,17.4493137 99.6606176,17.1831373 C97.7872843,15.4278431 95.3170882,14.6238235 92.7508137,14.6238235 C89.6762059,14.6238235 87.4857157,16.2764706 87.4857157,18.6969608 C87.4857157,21.2720588 90.4447353,22.0405882 93.7115,22.9248039 C97.9003235,24.0393137 102.665422,25.3451961 102.665422,30.7258824 C102.665422,34.4538235 100.129343,38.2583333 93.2116961,38.2583333 C89.0705196,38.2583333 85.9575784,36.7991176 83.841598,34.6814706 C83.5670882,34.4066667 83.5404216,33.9698039 83.778951,33.6632353 L84.7808137,32.375 Z M59.7605196,12.1642157 L61.4128725,12.1642157 C61.8373824,12.1642157 62.1815,12.5083333 62.1815,12.9328431 L62.1815,27.7664706 C62.1815,32.455098 64.7179706,35.4145098 69.4448333,35.4145098 C74.1717941,35.4145098 76.7082647,32.455098 76.7082647,27.7664706 L76.7082647,12.9328431 C76.7082647,12.5083333 77.0522843,12.1642157 77.4766961,12.1642157 L79.1294412,12.1642157 C79.5538529,12.1642157 79.8979706,12.5083333 79.8979706,12.9328431 L79.8979706,27.8048039 C79.8979706,34.1844118 76.4008137,38.2583333 69.4448333,38.2583333 C62.4891471,38.2583333 58.9920882,34.1460784 58.9920882,27.8438235 L58.9920882,12.9328431 C58.9920882,12.5083333 59.3361078,12.1642157 59.7605196,12.1642157 L59.7605196,12.1642157 Z" id="Logotype" fill="#FFFFFF"></path>
                    <circle id="Oval" fill="#FFFFFF" cx="25" cy="25" r="21.0784314"></circle>
                    <path d="M24.9999608,-2.94117647e-05 C38.8071176,-2.94117647e-05 49.9999608,11.1928137 49.9999608,24.9999706 C49.9999608,38.8071275 38.8071176,49.9999706 24.9999608,49.9999706 C11.1928039,49.9999706 -3.92156863e-05,38.8071275 -3.92156863e-05,24.9999706 C-3.92156863e-05,11.1928137 11.1928039,-2.94117647e-05 24.9999608,-2.94117647e-05 Z M30.7122157,7.39644118 C30.1484902,7.21634314 29.6875098,7.55095098 29.6875098,8.14281373 L29.6875098,8.14281373 L29.6875098,9.59840196 C29.6875098,9.99526471 29.9866275,10.4469314 30.3591765,10.5835 C36.343,12.7751667 40.6249608,18.5267353 40.6249608,25.2604608 C40.6249608,31.9940882 36.343,37.7455588 30.3591765,39.9373235 C29.950549,40.0870294 29.6875098,40.4872255 29.6875098,40.9225196 L29.6875098,40.9225196 L29.6875098,42.3780098 C29.6875098,42.9697745 30.1484902,43.3044804 30.7122157,43.1243824 C38.2741765,40.7083039 43.7499608,33.6238922 43.7499608,25.2604608 C43.7499608,16.8969314 38.2741765,9.81251961 30.7122157,7.39644118 Z M20.3125098,8.14281373 C20.3125098,7.55095098 19.8515294,7.21634314 19.2878039,7.39644118 C11.7257451,9.81251961 6.24996078,16.8969314 6.24996078,25.2604608 C6.24996078,33.6238922 11.7257451,40.7083039 19.2878039,43.1243824 C19.8515294,43.3044804 20.3125098,42.9697745 20.3125098,42.3780098 L20.3125098,42.3780098 L20.3125098,40.9225196 C20.3125098,40.5255588 20.0133922,40.0737941 19.6407451,39.9373235 C13.6570196,37.7455588 9.37496078,31.9940882 9.37496078,25.2604608 C9.37496078,18.5267353 13.6570196,12.7751667 19.6407451,10.5835 C20.0133922,10.4469314 20.3125098,9.99526471 20.3125098,9.59840196 L20.3125098,9.59840196 Z M25.7812353,12.7604608 L24.2187843,12.7604608 C23.7873137,12.7604608 23.4375098,13.1101667 23.4375098,13.5416373 L23.4375098,13.5416373 L23.4375098,15.9620294 C20.3399608,16.4024216 18.3375098,18.4637941 18.3375098,21.1083039 C18.3375098,24.5313431 20.4068235,25.8595784 24.7745686,26.4473235 C27.7377059,26.9327157 28.5811373,27.5708529 28.5811373,29.2572255 C28.5811373,30.9430098 27.1499608,32.0670294 25.1326078,32.0670294 C22.4047647,32.0670294 21.5071176,30.873402 21.1760392,29.328402 C21.0976078,28.9624216 20.7841765,28.6948725 20.4098627,28.6948725 L20.4098627,28.6948725 L18.6277059,28.6948725 C18.1787843,28.6948725 17.8278039,29.0991863 17.9049608,29.5414412 C18.3587843,32.1419314 20.0288824,34.0499706 23.4375098,34.5124216 L23.4375098,34.5124216 L23.4375098,36.9791863 C23.4375098,37.4106569 23.7873137,37.7604608 24.2187843,37.7604608 L24.2187843,37.7604608 L25.7812353,37.7604608 C26.2127059,37.7604608 26.5625098,37.4106569 26.5625098,36.9791863 L26.5625098,36.9791863 L26.5625098,34.5111471 C29.7892745,33.998598 31.8508431,31.7523235 31.8508431,28.976049 C31.8508431,25.3233039 29.6282941,24.0969314 25.3364314,23.5096765 C22.1689804,23.0497745 21.5563333,22.3087941 21.5563333,20.8271275 C21.5563333,19.4225196 22.6288824,18.4258529 24.6981961,18.4258529 C26.5698627,18.4258529 27.6462353,19.0790882 28.0909412,20.5853627 C28.1901569,20.9215392 28.4909412,21.1591863 28.8415294,21.1591863 L28.8415294,21.1591863 L30.4850588,21.1591863 C30.9432941,21.1591863 31.3000588,20.7380098 31.2022157,20.2901667 C30.6819216,17.9097745 29.0776078,16.4813431 26.5625098,16.0307549 L26.5625098,16.0307549 L26.5625098,13.5416373 C26.5625098,13.1101667 26.2127059,12.7604608 25.7812353,12.7604608 L25.7812353,12.7604608 Z" id="Logo" fill="#2775CA"></path>
                </g>
            </g>
        </g>
    </g>
</svg>