<svg id="Layer_1" data-name="Layer 1" xmlns="http://www.w3.org/2000/svg" width="183.3" height="28" viewBox="0 0 183.3 28">
  <title>airtel logo</title>
  <g>
    <g>
      <path d="M20.9,4.81a8.18,8.18,0,0,0-5.13-1.52c-3,0-6.23,1.15-9.68,3.42L6,6.78H6L5.65,7l-.27.18a21.89,21.89,0,0,0-2,1.55c-1.46,1.42-3.12,3.77-3,5.78a2.73,2.73,0,0,0,1,2.06,3.5,3.5,0,0,0,2.2.69,10.52,10.52,0,0,0,5-1.78l.25-.16.69-.46.23-.16a26.66,26.66,0,0,1,6-3.33,4.54,4.54,0,0,1,1.52-.3,2.75,2.75,0,0,1,.65.08,2,2,0,0,1,1.46,1.13,5.15,5.15,0,0,1-.31,4.17,18.1,18.1,0,0,1-4.82,6,19.25,19.25,0,0,1-3.16,2.26l-.09,0a10.44,10.44,0,0,1-1.46.72l-.07,0a3.64,3.64,0,0,1-.42.15c-2.2.6-.86-1.35-.86-1.35A16.81,16.81,0,0,1,9.8,22.73c.3-.27.61-.56.92-.88l.07-.07a2.26,2.26,0,0,0,.88-1.67,2,2,0,0,0-2-1.66H9.57a4.07,4.07,0,0,0-2.36,1,7.82,7.82,0,0,0-1.59,1.79C5,22.17,3.8,24.55,5,26.44a2.61,2.61,0,0,0,2.38,1.15A8.29,8.29,0,0,0,10.11,27,20.14,20.14,0,0,0,14,25l.32-.2A29.12,29.12,0,0,0,18.07,22a16.88,16.88,0,0,0,5.39-7.7,9.71,9.71,0,0,0,.26-5.62A7.23,7.23,0,0,0,20.9,4.81Z" transform="translate(-0.35)" style="fill: #fff"/>
      <path d="M108.9,24.49c-2.06-.16-2.48-1.06-2.48-2.57V2.42l-5,.84V21.6c0,4.34,2.36,6.21,6.31,6.21a12.19,12.19,0,0,0,1.9-.2V24.5A6.76,6.76,0,0,1,108.9,24.49Z" transform="translate(-0.35)" style="fill: #fff"/>
      <path d="M90.72,11.37c2.2,0,2.52,2.39,2.52,3.87H87.89C88,13.33,88.76,11.37,90.72,11.37Zm1.07,13.11a3.72,3.72,0,0,1-2.87-1.09c-.89-1-1.29-2.95-1.18-5.05H98.41v-.49c-.09-7-2.47-10.17-7.69-10.17-5.82,0-8.09,5.36-8.13,10.39A10.62,10.62,0,0,0,86,26.28,8.25,8.25,0,0,0,91.28,28a12,12,0,0,0,3.52-.52,14.21,14.21,0,0,0,3.72-1.8l-1.4-2.88A9.56,9.56,0,0,1,91.79,24.48Z" transform="translate(-0.35)" style="fill: #fff"/>
      <polygon points="50.06 27.59 55.01 27.59 55.01 7.88 50.06 8.69 50.06 27.59" style="fill: #fff"/>
      <path d="M77.58,2.44l-5.07.82V21.69c0,4.13,2.41,6.08,6.45,6.08a11.19,11.19,0,0,0,1.89-.18V24.52c-.06,0-.44,0-.72,0-2.13-.07-2.55-1.25-2.55-2.6V11.53h3.27V7.89H77.58Z" transform="translate(-0.35)" style="fill: #fff"/>
      <path d="M41.67,23.87a4.82,4.82,0,0,1-2.57.65c-2,0-2.89-1.53-2.85-3.32a3.11,3.11,0,0,1,3.44-3.13h2Zm-2-16.34A14.78,14.78,0,0,0,33,9.28l-.55.29,1.32,3,.75-.36a10.75,10.75,0,0,1,4.68-1.09c1.79.07,2.53.9,2.53,2.61v1H38.74c-4.72,0-7.65,2.5-7.73,6.38A7,7,0,0,0,38.37,28a11.56,11.56,0,0,0,8.33-3.09V14.34C46.7,9.21,43,7.53,39.63,7.53Z" transform="translate(-0.35)" style="fill: #fff"/>
      <path d="M52.94,0a3.17,3.17,0,0,0-3.19,3.15,3.15,3.15,0,1,0,6.29,0A3,3,0,0,0,55.18,1,3.08,3.08,0,0,0,52.94,0Z" transform="translate(-0.35)" style="fill: #fff"/>
      <path d="M59.32,11.41v16.2h5V12.36a5.74,5.74,0,0,1,3.39-1.26,6.35,6.35,0,0,1,2,.21l1.39-3.13a8.5,8.5,0,0,0-3.33-.6A11.52,11.52,0,0,0,59.32,11.41Z" transform="translate(-0.35)" style="fill: #fff"/>
    </g>
    <g>
      <g>
        <path d="M174.45,3l-2,.22v8.2a2.07,2.07,0,0,0,2.37,2.24h.24a5,5,0,0,0,1.17-.12h.06V11.94h-.08a5.35,5.35,0,0,1-1,0c-.74-.05-.84-.48-.84-.9V7.45h1.88V5.66h-1.88Z" transform="translate(-0.35)" style="fill: #fff"/>
        <path d="M118.89,4.3h1.86c.7,0,1.88.21,1.88,1.65,0,1.11-.72,1.7-2.08,1.7h-1.66Zm0,5.29h1.77c2.59,0,4.07-1.31,4.07-3.61s-1.4-3.62-3.84-3.62h-4V13.58h2Z" transform="translate(-0.35)" style="fill: #fff"/>
        <polygon points="133.72 16.38 135.81 16.38 140.09 5.76 140.13 5.65 138.04 5.65 136.1 10.53 134.04 5.69 134.02 5.65 131.9 5.65 135.1 12.93 133.72 16.38" style="fill: #fff"/>
        <path d="M150.46,5.56a3.46,3.46,0,0,0-2.57,1.1,2.66,2.66,0,0,0-2.34-1.1,3.24,3.24,0,0,0-2,.74V5.65h-2v7.93h2V9.64c0-1.33.68-2.22,1.7-2.22.65,0,1.32.23,1.32,1.89v4.27h1.95V9.64c0-1.3.67-2.22,1.63-2.22.62,0,1.29.15,1.29,1.9v4.26h2V9C153.36,6.72,152.38,5.56,150.46,5.56Z" transform="translate(-0.35)" style="fill: #fff"/>
        <path d="M168.05,5.56a3.61,3.61,0,0,0-2.24.76V5.65h-2v7.93h2v-4c0-1.36.72-2.2,1.87-2.2.68,0,1.37.22,1.37,1.86v4.31h2V9C171,6.8,169.93,5.56,168.05,5.56Z" transform="translate(-0.35)" style="fill: #fff"/>
        <path d="M181.25,8.77l-.34-.13c-.73-.28-1.12-.48-1.12-.77s.37-.46.71-.46a2.47,2.47,0,0,1,1.66.66l.33.28,1-1.59-.27-.22a4.07,4.07,0,0,0-2.71-1,2.51,2.51,0,0,0-2.75,2.31c0,1.59,1.24,2.16,2.41,2.57l.17.06.23.08a2.58,2.58,0,0,1,.89.4.4.4,0,0,1,.13.48.47.47,0,0,1-.19.23,1,1,0,0,1-.53.15,2.76,2.76,0,0,1-1.18-.18,3.49,3.49,0,0,1-1-.58l-.33-.31-1.06,1.56.26.22a4.45,4.45,0,0,0,3.06,1.13c2.19,0,3-1.31,3-2.44C183.66,9.69,182.6,9.28,181.25,8.77Z" transform="translate(-0.35)" style="fill: #fff"/>
        <path d="M127.14,11.13a.74.74,0,0,1,.22-.6,1.45,1.45,0,0,1,1-.33h1.37v1.73a4.69,4.69,0,0,1-1,.13h-.12a2.08,2.08,0,0,1-1.11-.33A.82.82,0,0,1,127.14,11.13ZM126,12.92l0,.05.08.06.06,0,.06,0,0,0,0,0,.1.06a2.87,2.87,0,0,0,.6.26l0,0h0a6,6,0,0,0,1.32.24h.45a10.08,10.08,0,0,0,2.57-.43l.14,0V8a.41.41,0,0,0,0-.11V7.77l0-.24,0-.11a.19.19,0,0,0,0-.08V7.28l0-.06a0,0,0,0,0,0,0L131.4,7l0-.06V7a2.31,2.31,0,0,0-.54-.71,2.86,2.86,0,0,0-.93-.55,4.46,4.46,0,0,0-.78-.18h-.05l-.5,0a5.13,5.13,0,0,0-2.59.72l-.1.07.81,1.26.1,0a3.74,3.74,0,0,1,1.57-.41c.83,0,1.28.43,1.34.73v.06a0,0,0,0,0,0,0V8.6h-1.57c-1.82,0-2.9,1-2.9,2.61a2.21,2.21,0,0,0,.63,1.58A1,1,0,0,0,126,12.92Z" transform="translate(-0.35)" style="fill: #fff"/>
        <path d="M156.86,8.69a1.69,1.69,0,0,1,1.52-1.35,1.74,1.74,0,0,1,2,1.35Zm1.78-3.13a4.44,4.44,0,0,0-1.17.18A3.68,3.68,0,0,0,155,8.17a4.38,4.38,0,0,0,.55,3.92,3.73,3.73,0,0,0,3.19,1.56,6.8,6.8,0,0,0,1-.08A3.67,3.67,0,0,0,162,12.29l.05,0-1.25-1.16-.05.05a2.61,2.61,0,0,1-1.84.79,2,2,0,0,1-2.11-1.59l0-.1h5.5v-.07A4.85,4.85,0,0,0,162.15,8,3.73,3.73,0,0,0,158.64,5.56Z" transform="translate(-0.35)" style="fill: #fff"/>
      </g>
      <g>
        <path d="M120.63,20.88h-1.74V18.33h1.49c1.93,0,1.93.93,1.93,1.24C122.31,20.79,121,20.88,120.63,20.88Zm-1.74,1.91h1.84c.78,0,2.07.2,2.07,1.49s-1.33,1.39-2.12,1.39h-1.79Zm4.39-1.14a2.8,2.8,0,0,0,1.12-2.33c0-1.89-1.34-2.93-3.76-2.93h-3.8V27.61H121c2.42,0,3.88-1.2,3.88-3.21A2.94,2.94,0,0,0,123.28,21.65Z" transform="translate(-0.35)" style="fill: #fff"/>
        <path d="M138.32,19.59a3.62,3.62,0,0,0-2.25.76v-.67h-2v7.93h2v-4c0-1.36.72-2.2,1.87-2.2.68,0,1.37.22,1.37,1.86v4.31h2V23C141.27,20.83,140.19,19.59,138.32,19.59Z" transform="translate(-0.35)" style="fill: #fff"/>
        <path d="M130.58,24.19v1.73a4.69,4.69,0,0,1-1,.13h-.12a2,2,0,0,1-1.11-.33.78.78,0,0,1-.32-.59.72.72,0,0,1,.23-.6,1.4,1.4,0,0,1,1-.33Zm1.87-2.34a.19.19,0,0,0,0-.08l0-.25-.08-.3,0,0,0-.05,0-.08v0l0-.08a2.47,2.47,0,0,0-.54-.72,2.68,2.68,0,0,0-.93-.54,3.15,3.15,0,0,0-.79-.18h0l-.5,0a5,5,0,0,0-2.59.72l-.1.07.75,1.17,0,.1.11-.05a3.68,3.68,0,0,1,1.57-.4c.83,0,1.28.42,1.34.73,0,0,0,0,0,0a.09.09,0,0,0,0,.05v.16a.06.06,0,0,1,0,0v.48H129c-1.82,0-2.9,1-2.9,2.61a2.19,2.19,0,0,0,.62,1.57.93.93,0,0,0,.15.15l.13.1.1.07,0,0h0l.11.06a2.66,2.66,0,0,0,.6.26h0l.08,0a5.66,5.66,0,0,0,1.32.23h.45a10.16,10.16,0,0,0,2.57-.43l.13,0V21.85Z" transform="translate(-0.35)" style="fill: #fff"/>
        <path d="M152.75,18.2a.58.58,0,0,0-.26-.07h-6a.53.53,0,0,0-.53.53.52.52,0,0,0,.53.52L148,19.1a2.38,2.38,0,0,1,.21.8h-1.67a.47.47,0,0,0-.47.48.68.68,0,0,0,0,.14.47.47,0,0,0,.45.33l1.58-.09v0c-.29,1.09-2.08,1-2.08,1h-1.19V16.38h-1.95V27.61h1.95V23.68h.7a0,0,0,0,1,0,0L147.17,26l1.09,1.61h2.45l-2.41-3.48-.47-.68h0l.13-.05a3.37,3.37,0,0,0,1.23-.71,3.17,3.17,0,0,0,1-2s0-.07,0-.1l1.63-.11a.33.33,0,0,0,.29-.16.35.35,0,0,0,0-.24.33.33,0,0,0-.34-.21h-1.57a3.22,3.22,0,0,0,0-.43c0-.16-.05-.33-.08-.49l1.48-.09.91-.05a.47.47,0,0,0,.3-.15.36.36,0,0,0,.06-.2A.37.37,0,0,0,152.75,18.2Z" transform="translate(-0.35)" style="fill: #fff"/>
      </g>
    </g>
  </g>
</svg>
