<svg width="92" height="16" viewBox="0 0 92 16" fill="none" xmlns="http://www.w3.org/2000/svg">
<path d="M17.2315 4.75854C17.2352 5.92534 17.6644 7.05038 18.4383 7.92231C17.6619 8.78257 17.2318 9.90073 17.2315 11.0603C17.2282 11.6875 17.3485 12.309 17.5857 12.8893C17.8228 13.4696 18.1722 13.9972 18.6137 14.4418C19.0552 14.8865 19.58 15.2392 20.158 15.48C20.7361 15.7206 21.3559 15.8446 21.9819 15.8446H30.5069V12.6293H21.9819C21.5733 12.6293 21.1813 12.4668 20.8924 12.1774C20.6034 11.8879 20.4412 11.4953 20.4412 11.0861C20.4412 10.6768 20.6034 10.2842 20.8924 9.99481C21.1813 9.70539 21.5733 9.54284 21.9819 9.54284H28.6325V6.32755H21.9819C21.5733 6.32755 21.1813 6.165 20.8924 5.87558C20.6034 5.58616 20.4412 5.19355 20.4412 4.7843C20.4412 4.37489 20.6034 3.98243 20.8924 3.69302C21.1813 3.4036 21.5733 3.24089 21.9819 3.24089H30.5069V0H21.9819C20.722 0 19.5138 0.501403 18.6228 1.39382C17.732 2.28608 17.2315 3.49655 17.2315 4.75854Z" fill="black"/>
<path d="M11.7092 12.1921C11.703 12.259 11.6832 12.3238 11.651 12.3825C11.6187 12.4413 11.5747 12.4929 11.5217 12.5338C11.4688 12.5749 11.4078 12.6045 11.3429 12.621C11.2781 12.6373 11.2104 12.6402 11.1443 12.6293C11.0677 12.6185 10.9957 12.5861 10.9367 12.5361C10.8776 12.486 10.8339 12.4204 10.8104 12.3465L7.08717 2.39215C6.88654 1.84627 6.55876 1.35622 6.1309 0.962811C5.70306 0.569399 5.18761 0.28414 4.62746 0.130711C4.06731 -0.0227179 3.47866 -0.0399977 2.91051 0.0804737C2.34236 0.200785 1.81115 0.455487 1.36108 0.823141C0.932218 1.16376 0.586675 1.59813 0.350836 2.09297C0.114981 2.58765 -0.00496237 3.13002 0.000157263 3.6783V15.8704H3.20988V3.6783C3.20772 3.61062 3.22039 3.54327 3.24701 3.48103C3.27363 3.4188 3.31355 3.36328 3.36395 3.31816C3.4745 3.23577 3.61231 3.19897 3.7491 3.21529C3.82139 3.23641 3.88844 3.27257 3.94594 3.32136C4.00342 3.37 4.05009 3.43032 4.08292 3.49815L7.80616 13.4782C8.02902 14.055 8.39252 14.5665 8.86352 14.9664C9.33453 15.3663 9.89785 15.6416 10.5023 15.7675C11.0347 15.8851 11.587 15.8792 12.1166 15.7498C12.6463 15.6205 13.1394 15.3714 13.5581 15.0215C13.9774 14.6797 14.315 14.2481 14.546 13.7585C14.777 13.269 14.8957 12.7336 14.8932 12.1921V0H11.7092V12.1921Z" fill="black"/>
<path d="M42.0089 0H37.4382C34.1772 0.0257582 31.6094 3.52391 31.6094 7.92231C31.6094 12.3207 34.1514 15.7931 37.3869 15.8446H42.0345C45.2956 15.7931 47.8121 12.3207 47.8121 7.92231C47.8121 3.52391 45.27 0.0257582 42.0089 0ZM42.0089 12.6293H37.4382C36.2057 12.6037 34.8191 10.6746 34.8191 7.92231C34.8191 5.17003 36.2057 3.24089 37.464 3.21529H41.9832C43.2413 3.24089 44.628 5.17003 44.628 7.92231C44.628 10.6746 43.2413 12.6037 42.0089 12.6293Z" fill="black"/>
<path d="M51.0938 16.0004V0.250977H56.741C58.0609 0.250977 59.1935 0.461041 60.1384 0.881011C61.0834 1.30098 61.8109 1.90846 62.3208 2.70344C62.8308 3.48338 63.0858 4.4358 63.0858 5.56084C63.0858 6.6558 62.8308 7.60069 62.3208 8.39567C61.8109 9.19066 61.0834 9.79813 60.1384 10.2181C59.1935 10.6381 58.0609 10.8481 56.741 10.8481H51.7238L52.2412 10.3082V16.0004H51.0938ZM52.2412 10.3757L51.7238 9.81317H56.741C58.4359 9.81317 59.7184 9.44568 60.5884 8.71069C61.4733 7.96066 61.9159 6.91066 61.9159 5.56084C61.9159 4.19581 61.4733 3.14581 60.5884 2.41082C59.7184 1.66096 58.4359 1.28594 56.741 1.28594H51.7238L52.2412 0.723423V10.3757Z" fill="black"/>
<path d="M63.084 16.0004L70.3287 0.250977H71.4762L78.7209 16.0004H77.4834L70.6438 0.970925H71.1386L64.3215 16.0004H63.084ZM65.7388 11.5681L66.1214 10.6006H75.5485L75.9311 11.5681H65.7388Z" fill="black"/>
<path d="M83.919 16.0004V10.2856L84.1891 11.0281L77.5742 0.250977H78.8343L84.8415 10.0381H84.2115L90.2189 0.250977H91.4113L84.7966 11.0281L85.0665 10.2856V16.0004H83.919Z" fill="black"/>
</svg>
