<svg xmlns="http://www.w3.org/2000/svg" width="60" height="83" fill="black" xmlns:v="https://vecta.io/nano"><path d="M9.7 0v55.3H5.5V13.9L0 9.9v50.7h15.2V14.3L34 60.6h5.8L15.2 0H9.7zm35.1 0v46.5L26 0h-5.8l24.6 60.6h5.5V5.3h4.2v41.4l5.5 4V0H44.8z" fill="#24bad6"/><path d="M45 67.1v15h2.7V71.8h.1l4.5 7.5h.3l4.6-7.5h.1v10.3H60v-15h-3.1l-4.2 7.5h-.1l-4.4-7.5H45zm-45 0v15h2.9V71.9l7 10.2h3v-15h-2.8v10H10l-6.9-10H0zm27 9.3c0 3.9 2.4 6.1 6.3 6.1 3.7 0 6.4-2.2 6.4-6.1v-9.3h-3v9.3c0 1.8-.9 3.4-3.4 3.4S30 78 30 76.2v-9.1h-3v9.3zm-8.3 5.7h3v-15h-3v15z"/></svg>