<?xml version="1.0" encoding="UTF-8"?>
<svg width="157.85" height="125.69" enable-background="new 0 0 480 130" version="1.1" viewBox="0 0 157.85065 125.69421" xml:space="preserve" xmlns="http://www.w3.org/2000/svg" xmlns:cc="http://creativecommons.org/ns#" xmlns:dc="http://purl.org/dc/elements/1.1/" xmlns:rdf="http://www.w3.org/1999/02/22-rdf-syntax-ns#"><metadata><rdf:RDF><cc:Work rdf:about=""><dc:format>image/svg+xml</dc:format><dc:type rdf:resource="http://purl.org/dc/dcmitype/StillImage"/><dc:title/></cc:Work></rdf:RDF></metadata>
<path d="m68.611 123.97 18.48-24.4-13.893-1.907-7.815 9.419c-1.701 2.051-4.537 0.818-6.015-0.234l-40.042-28.561c-1.515-1.081-0.236-2.978 1.336-3.238l40.122-6.604 4.794-8.166-62.644 10.312c-2.334 0.38-4.109 3.046-1.979 4.793l58.752 48.236c2.077 1.706 6.527 3.498 8.904 0.35" fill="#ffb600"/><path d="m107.69 2.8961 48.211 87.842c4.917 8.953-0.023 18.278-8.455 17.119l-55.885-7.676 5.543-9.457 40.329 5.212c4.194 0.573 3.753-2.308 1.985-5.536l-34.011-70.908c-0.717-1.305-3.145-1.986-3.968-0.575l-37.651 64.135c-1.114 1.901-1.426 3.166 0.998 3.499l15.925 2.059-7.511 9.049-20.219-2.779c-3.77-0.519-5.419-3.912-3.185-7.716l48.498-82.622c2.182-3.714 6.348-7.193 9.396-1.646" fill="#019eec"/><path d="m94.084 90.336 3.91-5.165 17.246-22.768c3.838-5.063 3.034-10.799-2.179-9.946l-30.418 5.011-3.878 8.014 16.313-2.686c3.517-0.576 4.214 3.417 1.471 6.723l-11.054 13.32-4.79 5.771-13.227 15.939 10.881 6.541 15.725-20.754" fill="#ffb500"/>
</svg>
