<?xml version="1.0" encoding="UTF-8"?>
<svg width="473.29" height="125.69" enable-background="new 0 0 480 130" version="1.1" viewBox="0 0 473.29401 125.69421" xml:space="preserve" xmlns="http://www.w3.org/2000/svg" xmlns:cc="http://creativecommons.org/ns#" xmlns:dc="http://purl.org/dc/elements/1.1/" xmlns:rdf="http://www.w3.org/1999/02/22-rdf-syntax-ns#"><metadata><rdf:RDF><cc:Work rdf:about=""><dc:format>image/svg+xml</dc:format><dc:type rdf:resource="http://purl.org/dc/dcmitype/StillImage"/><dc:title/></cc:Work></rdf:RDF></metadata>
<g transform="translate(-3.353 -2.1529)">
	<path d="m71.964 126.12 18.48-24.4-13.893-1.907-7.815 9.419c-1.701 2.051-4.537 0.818-6.015-0.234l-40.042-28.561c-1.515-1.081-0.236-2.978 1.336-3.238l40.122-6.604 4.794-8.166-62.644 10.312c-2.334 0.38-4.109 3.046-1.979 4.793l58.752 48.236c2.077 1.706 6.527 3.498 8.904 0.35" fill="#ffb600"/>
	<path d="m111.04 5.049 48.211 87.842c4.917 8.953-0.023 18.278-8.455 17.119l-55.885-7.676 5.543-9.457 40.329 5.212c4.194 0.573 3.753-2.308 1.985-5.536l-34.011-70.908c-0.717-1.305-3.145-1.986-3.968-0.575l-37.651 64.135c-1.114 1.901-1.426 3.166 0.998 3.499l15.925 2.059-7.511 9.049-20.219-2.779c-3.77-0.519-5.419-3.912-3.185-7.716l48.498-82.622c2.182-3.714 6.348-7.193 9.396-1.646" fill="#019eec"/>
	<path d="m97.437 92.489 3.91-5.165 17.246-22.768c3.838-5.063 3.034-10.799-2.179-9.946l-30.418 5.011-3.878 8.014 16.313-2.686c3.517-0.576 4.214 3.417 1.471 6.723l-11.054 13.32-4.79 5.771-13.227 15.939 10.881 6.541 15.725-20.754" fill="#ffb500"/>
	<g fill="#019eec">
		<path d="m197.6 79.304h-1.322c-0.924-2.807-1.722-5.039-2.402-6.693-0.68-1.655-1.351-2.923-2.013-3.799-0.657-0.877-1.393-1.453-2.192-1.727-0.803-0.271-1.784-0.409-2.943-0.409-1.562 0-2.972 0.32-4.234 0.965-1.261 0.645-2.344 1.735-3.245 3.274-0.899 1.541-1.592 3.587-2.074 6.138-0.479 2.552-0.723 5.721-0.723 9.5 0 3.82 0.22 6.998 0.662 9.529 0.438 2.533 1.113 4.568 2.011 6.107 0.902 1.542 2.02 2.631 3.362 3.274 1.34 0.643 2.933 0.963 4.774 0.963 1.24 0 2.302-0.243 3.184-0.732 0.882-0.486 1.671-1.286 2.373-2.395 0.7-1.111 1.34-2.581 1.92-4.413 0.58-1.835 1.211-4.113 1.895-6.842h1.319v13.212c-1.682 0.857-3.432 1.481-5.255 1.872-1.822 0.388-3.633 0.585-5.435 0.585-2.564 0-4.955-0.498-7.176-1.493-2.224-0.993-4.153-2.405-5.797-4.239s-2.935-4.052-3.873-6.668c-0.943-2.608-1.412-5.532-1.412-8.768s0.469-6.157 1.412-8.77c0.938-2.613 2.231-4.832 3.873-6.664 1.641-1.833 3.572-3.246 5.797-4.24 2.221-0.993 4.614-1.491 7.176-1.491 2.045 0 3.906 0.205 5.587 0.613 1.682 0.41 3.266 0.945 4.746 1.608v11.701h5e-3z"/>
		<path d="m197.6 79.304v-0.239h-1.322v0.239l0.227-0.074c-0.925-2.81-1.723-5.046-2.407-6.711-0.685-1.667-1.363-2.948-2.044-3.852-0.678-0.905-1.449-1.517-2.304-1.81-0.84-0.281-1.844-0.421-3.022-0.422-1.595 0-3.046 0.328-4.343 0.992-1.31 0.667-2.425 1.798-3.341 3.365-0.92 1.575-1.618 3.648-2.104 6.218-0.483 2.57-0.726 5.753-0.726 9.542 0 3.83 0.22 7.017 0.665 9.57 0.444 2.554 1.123 4.613 2.041 6.188 0.921 1.572 2.074 2.701 3.466 3.367 1.379 0.662 3.008 0.988 4.877 0.988 1.271 0 2.377-0.251 3.3-0.763 0.925-0.51 1.743-1.344 2.458-2.476 0.716-1.139 1.362-2.624 1.947-4.472 0.582-1.84 1.215-4.121 1.898-6.853l-0.232-0.06v0.24h1.079v12.972h0.24l-0.109-0.216c-1.663 0.851-3.395 1.468-5.195 1.854-1.807 0.385-3.602 0.578-5.386 0.578-2.533 0-4.889-0.491-7.079-1.471-2.194-0.98-4.094-2.371-5.717-4.181-1.621-1.809-2.895-4-3.824-6.588-0.933-2.581-1.399-5.477-1.399-8.688s0.467-6.107 1.399-8.688c0.929-2.588 2.207-4.779 3.826-6.589 1.62-1.806 3.52-3.199 5.716-4.181 2.19-0.979 4.547-1.47 7.079-1.47 2.029 0 3.871 0.203 5.531 0.608 1.667 0.405 3.237 0.937 4.703 1.594l0.098-0.219h-0.24v11.939h0.246v-0.478 0.247-0.239h-5e-3v0.239h0.24v-11.856l-0.141-0.063c-1.495-0.67-3.093-1.21-4.787-1.621-1.704-0.416-3.584-0.623-5.644-0.623-2.593 0-5.021 0.506-7.274 1.513-2.256 1.007-4.214 2.443-5.876 4.298-1.664 1.858-2.974 4.106-3.921 6.744-0.952 2.642-1.426 5.592-1.426 8.851s0.474 6.21 1.426 8.851c0.947 2.638 2.253 4.887 3.921 6.744 1.664 1.858 3.622 3.291 5.876 4.299 2.253 1.009 4.678 1.515 7.274 1.515 1.818 0 3.649-0.2 5.485-0.591 1.843-0.396 3.615-1.027 5.314-1.894l0.131-0.068v-13.595h-1.745l-0.046 0.18c-0.682 2.726-1.312 5-1.89 6.825-0.576 1.822-1.209 3.273-1.895 4.361-0.686 1.084-1.45 1.851-2.286 2.312-0.841 0.465-1.859 0.704-3.069 0.704-1.814 0-3.369-0.317-4.67-0.942-1.294-0.618-2.375-1.669-3.261-3.178-0.878-1.505-1.546-3.513-1.982-6.028-0.438-2.513-0.659-5.677-0.657-9.488-1e-3 -3.77 0.242-6.925 0.718-9.455 0.478-2.532 1.165-4.554 2.045-6.063 0.884-1.509 1.934-2.563 3.146-3.182 1.228-0.626 2.596-0.939 4.126-0.939 1.141 0 2.095 0.136 2.868 0.397 0.743 0.254 1.439 0.792 2.076 1.644 0.643 0.851 1.308 2.102 1.985 3.746 0.676 1.646 1.473 3.872 2.394 6.677l0.056 0.164h1.494v-0.478 0.239z"/>
		<path d="m205.94 87.722v-9.469c1.448-0.624 2.861-1.132 4.235-1.521 1.373-0.391 2.803-0.585 4.29-0.585 1.745 0 3.25 0.223 4.513 0.675 1.264 0.447 2.311 1.023 3.148 1.721 0.837 0.701 1.449 1.503 1.837 2.397 0.392 0.898 0.585 1.793 0.585 2.688v21.866h2.675v1.287h-7.575v-5.145h-0.112c-0.667 1.832-1.747 3.304-3.231 4.414-1.487 1.111-3.232 1.667-5.236 1.667-2.525 0-4.567-0.713-6.127-2.134-1.559-1.423-2.341-3.42-2.341-5.994 0-1.715 0.288-3.088 0.864-4.123 0.574-1.03 1.346-1.851 2.312-2.456 0.963-0.603 2.051-1.051 3.261-1.344 1.206-0.293 2.441-0.554 3.704-0.789 1.262-0.235 2.495-0.497 3.705-0.79 1.206-0.292 2.274-0.732 3.203-1.315v-6.137c0-1.871-0.44-3.205-1.31-4.004-0.874-0.799-2.052-1.2-3.539-1.2-0.967 0-1.783 0.155-2.452 0.468s-1.272 0.85-1.809 1.608c-0.539 0.76-1.067 1.811-1.589 3.158-0.521 1.347-1.115 3.03-1.784 5.056h-1.227zm13.707 2.575c-1.561 0.778-3.039 1.307-4.433 1.579-1.39 0.273-2.607 0.633-3.647 1.081-1.041 0.447-1.87 1.139-2.482 2.074-0.612 0.937-0.917 2.459-0.917 4.56 0 2.223 0.377 3.783 1.14 4.678 0.761 0.898 1.886 1.346 3.37 1.346 2.115-0.079 3.806-1.103 5.067-3.071 1.263-1.969 1.897-4.57 1.897-7.807v-4.439h5e-3z"/>
		<path d="m205.94 87.722h0.24v-9.469h-0.24l0.095 0.217c1.439-0.618 2.842-1.122 4.208-1.51 1.349-0.384 2.755-0.576 4.223-0.576 1.723 0 3.203 0.225 4.432 0.662 1.242 0.439 2.264 1.003 3.075 1.68 0.812 0.679 1.399 1.449 1.773 2.31 0.377 0.871 0.563 1.733 0.563 2.593v22.106h2.676v0.807h-7.095v-5.145h-0.52l-0.057 0.157c-0.655 1.794-1.704 3.222-3.151 4.306-1.446 1.078-3.132 1.618-5.092 1.62-2.482-2e-3 -4.454-0.696-5.966-2.073-1.503-1.372-2.26-3.289-2.262-5.816 0-1.688 0.284-3.021 0.832-4.007 0.558-0.999 1.299-1.785 2.231-2.37 0.939-0.589 2.002-1.026 3.188-1.314 1.203-0.29 2.434-0.551 3.692-0.784 1.267-0.237 2.503-0.501 3.717-0.795 1.229-0.297 2.323-0.745 3.274-1.345l0.113-0.072v-6.267c0-1.905-0.446-3.313-1.387-4.181-0.927-0.847-2.174-1.262-3.702-1.262-0.992 0-1.843 0.157-2.554 0.49-0.714 0.334-1.347 0.9-1.902 1.687-0.556 0.782-1.09 1.851-1.616 3.209-0.525 1.353-1.119 3.04-1.79 5.068l0.228 0.074v-0.239h-1.226v0.239h0.24-0.24v0.24h1.399l0.054-0.165c0.667-2.022 1.262-3.702 1.781-5.044 0.517-1.336 1.04-2.374 1.56-3.104 0.519-0.736 1.094-1.239 1.716-1.532 0.628-0.294 1.408-0.444 2.35-0.444 1.445 0 2.555 0.384 3.378 1.137 0.798 0.732 1.231 1.99 1.231 3.827v6.137h0.24l-0.126-0.203c-0.904 0.569-1.949 0.999-3.133 1.287-1.205 0.29-2.432 0.552-3.691 0.787-1.268 0.234-2.506 0.498-3.717 0.791-1.23 0.298-2.342 0.755-3.33 1.375-1 0.625-1.802 1.478-2.395 2.54-0.603 1.086-0.893 2.5-0.893 4.24-3e-3 2.621 0.801 4.698 2.417 6.17 1.609 1.467 3.72 2.198 6.289 2.197 2.049 1e-3 3.851-0.57 5.379-1.714 1.522-1.14 2.632-2.652 3.313-4.526l-0.225-0.08v0.237h0.112v-0.237h-0.237v5.382h8.052v-1.764h-2.675v-21.628c0-0.93-0.202-1.859-0.605-2.783-0.404-0.932-1.043-1.766-1.904-2.485-0.864-0.721-1.938-1.31-3.221-1.765-1.296-0.461-2.83-0.688-4.594-0.688-1.508 0-2.96 0.197-4.354 0.593-1.387 0.394-2.81 0.905-4.265 1.53l-0.145 0.063v9.869h0.238v-0.24zm13.707 2.575-0.107-0.215c-1.544 0.771-3.002 1.292-4.37 1.559-1.405 0.275-2.638 0.641-3.697 1.097-1.081 0.463-1.95 1.189-2.587 2.164-0.655 1.006-0.956 2.566-0.957 4.689 1e-3 2.247 0.374 3.858 1.197 4.834 0.813 0.961 2.022 1.432 3.552 1.428h8e-3c2.19-0.075 3.971-1.16 5.261-3.18 1.296-2.021 1.935-4.669 1.935-7.937v-4.439h-0.24v0.238h5e-3v-0.238l-0.107-0.215 0.107 0.215v-0.239h-0.243v4.679c0 3.206-0.63 5.76-1.859 7.677-1.236 1.919-2.836 2.883-4.875 2.961l7e-3 0.24v-0.24c-1.438-3e-3 -2.479-0.425-3.187-1.259-0.702-0.816-1.086-2.326-1.084-4.524-2e-3 -2.079 0.31-3.564 0.88-4.429 0.589-0.896 1.375-1.555 2.375-1.984 1.022-0.442 2.223-0.798 3.6-1.067 1.419-0.276 2.917-0.813 4.494-1.601l-0.107-0.452v0.238z"/>
		<path d="m230.73 77.082h7.8v3.975h0.111c0.668-1.246 1.652-2.379 2.955-3.392 1.299-1.014 2.933-1.519 4.901-1.519 1.114 0 2.126 0.147 3.036 0.439 0.911 0.292 1.702 0.779 2.368 1.463 0.669 0.679 1.189 1.567 1.561 2.656 0.37 1.094 0.556 2.438 0.556 4.037v20.754h3.011v1.287h-11.478v-1.287h3.231v-21.454c0-2.186-0.326-3.693-0.976-4.533-0.647-0.837-1.623-1.255-2.924-1.255-0.78 0-1.521 0.175-2.228 0.525-0.707 0.349-1.328 0.896-1.866 1.636-0.539 0.741-0.976 1.667-1.311 2.779-0.336 1.113-0.502 2.426-0.502 3.944v18.36h3.232v1.286h-11.475v-1.286h3.006v-27.13h-3.006v-1.285z"/>
		<path d="m230.73 77.082v0.239h7.561v3.975h0.494l0.068-0.125c0.649-1.213 1.609-2.32 2.89-3.316 1.253-0.976 2.826-1.469 4.755-1.471 1.095 0 2.079 0.146 2.965 0.43 0.873 0.281 1.629 0.744 2.268 1.401 0.641 0.648 1.145 1.504 1.505 2.568 0.361 1.059 0.544 2.377 0.544 3.959v20.994h3.01v0.807h-11v-0.807h3.232v-21.695c-4e-3 -2.207-0.317-3.756-1.025-4.68-0.694-0.901-1.763-1.354-3.112-1.349-0.816 0-1.598 0.184-2.335 0.553-0.744 0.366-1.396 0.942-1.952 1.707-0.559 0.77-1.006 1.72-1.346 2.85-0.346 1.143-0.512 2.479-0.514 4.016v18.6h3.232v0.81h-10.997v-0.81h3.008v-27.61h-3.008v-1.285h-0.241v0.479-0.24 0.239h3e-3v-0.239h-0.24v1.524h3.006v26.653h-3.007v1.764h11.954v-1.764h-3.232v-18.121c0-1.501 0.164-2.792 0.492-3.877 0.33-1.091 0.755-1.991 1.275-2.705 0.519-0.715 1.11-1.233 1.778-1.563 0.677-0.336 1.378-0.502 2.122-0.502 1.253 3e-3 2.135 0.396 2.734 1.165 0.593 0.757 0.929 2.224 0.926 4.386v21.216h-3.232v1.766h11.955v-1.766h-3.01v-20.516c0-1.617-0.186-2.986-0.568-4.114-0.378-1.116-0.917-2.038-1.616-2.749-0.69-0.708-1.52-1.218-2.464-1.52-0.938-0.301-1.974-0.452-3.11-0.452-2.01-1e-3 -3.702 0.52-5.048 1.569-1.324 1.029-2.333 2.188-3.019 3.467l0.211 0.113v-0.239h-0.111v0.239h0.238v-4.214h-8.038v0.479-0.239z"/>
		<path d="m264.77 87.722v-9.469c1.447-0.624 2.86-1.132 4.235-1.521 1.372-0.391 2.802-0.585 4.289-0.585 1.744 0 3.249 0.223 4.513 0.675 1.264 0.447 2.311 1.023 3.147 1.721 0.838 0.701 1.45 1.503 1.838 2.397 0.39 0.898 0.585 1.793 0.585 2.688v21.866h2.676v1.287h-7.575v-5.145h-0.113c-0.667 1.832-1.746 3.304-3.23 4.414-1.487 1.111-3.231 1.667-5.236 1.667-2.524 0-4.566-0.713-6.127-2.134-1.559-1.423-2.341-3.42-2.341-5.994 0-1.715 0.288-3.088 0.862-4.123 0.576-1.03 1.348-1.851 2.314-2.456 0.963-0.603 2.051-1.051 3.26-1.344 1.206-0.293 2.441-0.554 3.705-0.789 1.261-0.235 2.494-0.497 3.704-0.79 1.206-0.292 2.273-0.732 3.202-1.315v-6.137c0-1.871-0.44-3.205-1.309-4.004-0.874-0.799-2.053-1.2-3.541-1.2-0.966 0-1.782 0.155-2.451 0.468-0.67 0.313-1.272 0.85-1.809 1.608-0.539 0.76-1.067 1.811-1.59 3.158-0.521 1.347-1.114 3.03-1.784 5.056h-1.224zm13.704 2.575c-1.559 0.778-3.037 1.307-4.431 1.579-1.391 0.273-2.607 0.633-3.649 1.081-1.039 0.447-1.867 1.139-2.479 2.074-0.613 0.937-0.92 2.459-0.92 4.56 0 2.223 0.38 3.783 1.142 4.678 0.761 0.898 1.885 1.346 3.369 1.346 2.115-0.079 3.805-1.103 5.068-3.071s1.896-4.57 1.896-7.807v-4.439h4e-3z"/>
		<path d="m264.77 87.722h0.239v-9.469h-0.239l0.095 0.217c1.438-0.618 2.841-1.122 4.206-1.51 1.352-0.384 2.757-0.576 4.224-0.576 1.724 0 3.203 0.225 4.433 0.662 1.241 0.439 2.264 1.003 3.074 1.68 0.812 0.679 1.401 1.449 1.773 2.31 0.377 0.871 0.563 1.733 0.563 2.593v22.106h2.676v0.807h-7.095v-5.145h-0.519l-0.058 0.157c-0.654 1.794-1.704 3.222-3.151 4.306-1.446 1.078-3.131 1.618-5.093 1.62-2.482-2e-3 -4.454-0.696-5.966-2.073-1.503-1.372-2.261-3.289-2.262-5.816 0-1.688 0.284-3.021 0.832-4.007 0.559-0.999 1.299-1.785 2.231-2.37 0.939-0.589 2.002-1.026 3.188-1.314 1.202-0.29 2.435-0.551 3.692-0.784 1.267-0.237 2.503-0.501 3.716-0.795 1.229-0.297 2.323-0.745 3.274-1.345l0.113-0.072v-6.267c0-1.905-0.446-3.313-1.387-4.181-0.927-0.847-2.175-1.262-3.703-1.262-0.99 0-1.843 0.157-2.554 0.49-0.714 0.334-1.347 0.9-1.901 1.687-0.557 0.782-1.09 1.851-1.616 3.209-0.524 1.353-1.118 3.04-1.789 5.068l0.227 0.074v-0.239h-1.225v0.479h0.239v-0.24h-0.237v-0.239 0.479h1.399l0.054-0.165c0.668-2.022 1.262-3.702 1.78-5.044 0.518-1.336 1.04-2.374 1.562-3.104 0.521-0.736 1.093-1.239 1.715-1.532 0.629-0.294 1.409-0.444 2.35-0.444 1.446 0 2.557 0.384 3.379 1.137 0.799 0.732 1.231 1.99 1.231 3.827v6.137h0.239l-0.126-0.203c-0.905 0.569-1.95 0.999-3.134 1.287-1.205 0.29-2.433 0.552-3.691 0.787-1.268 0.234-2.506 0.498-3.717 0.791-1.231 0.298-2.343 0.755-3.331 1.375-1 0.625-1.801 1.478-2.394 2.54-0.604 1.086-0.893 2.5-0.893 4.24-4e-3 2.621 0.801 4.698 2.417 6.17 1.608 1.467 3.721 2.198 6.288 2.197 2.049 1e-3 3.851-0.57 5.379-1.714 1.523-1.14 2.632-2.652 3.313-4.526l-0.226-0.08v0.237h0.113v-0.237h-0.239v5.382h8.055v-1.764h-2.676v-21.628c0-0.93-0.202-1.859-0.604-2.783-0.405-0.932-1.042-1.766-1.904-2.485-0.865-0.721-1.938-1.31-3.222-1.765-1.294-0.461-2.828-0.688-4.593-0.688-1.509 0-2.959 0.197-4.354 0.593-1.387 0.394-2.81 0.905-4.265 1.53l-0.145 0.063v9.629h0.24v-0.239zm13.704 2.575-0.105-0.215c-1.545 0.771-3.004 1.292-4.37 1.559-1.407 0.275-2.638 0.641-3.698 1.097-1.08 0.463-1.949 1.189-2.586 2.164-0.655 1.006-0.956 2.566-0.958 4.689 2e-3 2.247 0.374 3.858 1.197 4.834 0.811 0.961 2.022 1.432 3.552 1.428h9e-3c2.19-0.075 3.971-1.16 5.262-3.18 1.293-2.021 1.935-4.669 1.935-7.937v-4.439h-0.24v0.238h4e-3v-0.238l-0.105-0.215 0.103 0.215v-0.239h-0.243v4.679c0 3.206-0.628 5.76-1.858 7.677-1.236 1.919-2.837 2.883-4.876 2.961l9e-3 0.24v-0.24c-1.44-3e-3 -2.479-0.425-3.187-1.259-0.701-0.816-1.088-2.326-1.084-4.524-2e-3 -2.079 0.31-3.564 0.88-4.429 0.589-0.896 1.375-1.555 2.375-1.984 1.021-0.442 2.222-0.798 3.6-1.067 1.419-0.276 2.917-0.813 4.492-1.601l-0.107-0.452v0.238z"/>
		<path d="m293.01 78.367h-3.005v-1.285h8.133v4.328h0.112c0.592-1.714 1.419-3.021 2.479-3.916 1.059-0.896 2.479-1.347 4.262-1.347 0.707 0 1.419 0.128 2.144 0.383 0.726 0.255 1.292 0.477 1.7 0.673v11.458h-1.225l-1.948-6.021c-0.521-1.557-0.969-2.679-1.337-3.362-0.372-0.682-0.892-1.024-1.561-1.024-0.557 0-1.114 0.253-1.671 0.76-0.557 0.508-1.04 1.2-1.448 2.077-0.409 0.877-0.744 1.892-1.003 3.04-0.261 1.15-0.391 2.387-0.391 3.713v17.655h3.675v1.286h-11.921v-1.286h3.009v-27.132z"/>
		<path d="m293.01 78.367v-0.239h-2.768v-0.807h7.656v4.327h0.522l0.056-0.159c0.584-1.687 1.389-2.953 2.409-3.813 1.005-0.853 2.363-1.29 4.106-1.29 0.678 0 1.363 0.123 2.064 0.369 0.721 0.252 1.281 0.472 1.678 0.663l0.102-0.216h-0.239v11.22h-0.812l-1.896-5.859v1e-3c-0.523-1.564-0.971-2.693-1.354-3.399-0.392-0.735-1.012-1.158-1.77-1.151-0.631 0-1.249 0.288-1.832 0.822-0.587 0.534-1.084 1.254-1.503 2.152-0.419 0.896-0.76 1.927-1.021 3.088-0.265 1.171-0.396 2.425-0.396 3.767v17.895h3.675v0.81h-11.441v-0.81h3.006v-27.61h-0.242v0.478h5e-3v-0.239h-0.24v26.893h-3.009v1.764h12.401v-1.764h-3.675v-17.417c0-1.309 0.129-2.53 0.382-3.661 0.258-1.135 0.588-2.132 0.988-2.992 0.398-0.854 0.864-1.519 1.393-2 0.527-0.48 1.028-0.698 1.51-0.698 0.582 8e-3 0.999 0.272 1.35 0.9 0.357 0.659 0.802 1.773 1.32 3.325l0.228-0.077-0.228 0.073 2.001 6.188h1.639v-11.848l-0.137-0.063c-0.422-0.204-0.995-0.431-1.724-0.684-0.748-0.265-1.488-0.398-2.224-0.398-1.819 0-3.308 0.462-4.415 1.403-1.104 0.931-1.948 2.278-2.554 4.021l0.228 0.078v-0.239h-0.112v0.239h0.238v-4.567h-8.611v1.763h3.245v-0.239z"/>
		<path d="m316.36 87.722v-9.469c1.447-0.624 2.86-1.132 4.235-1.521 1.374-0.391 2.801-0.585 4.288-0.585 1.744 0 3.251 0.223 4.515 0.675 1.261 0.447 2.311 1.023 3.147 1.721 0.836 0.701 1.45 1.503 1.838 2.397 0.39 0.898 0.584 1.793 0.584 2.688v21.866h2.675v1.287h-7.572v-5.145h-0.113c-0.67 1.832-1.747 3.304-3.232 4.414-1.486 1.111-3.23 1.667-5.235 1.667-2.526 0-4.567-0.713-6.128-2.134-1.56-1.423-2.339-3.42-2.339-5.994 0-1.715 0.285-3.088 0.861-4.123 0.574-1.03 1.348-1.851 2.313-2.456 0.965-0.603 2.052-1.051 3.261-1.344 1.205-0.293 2.44-0.554 3.704-0.789s2.495-0.497 3.704-0.79c1.207-0.292 2.275-0.732 3.205-1.315v-6.137c0-1.871-0.441-3.205-1.311-4.004-0.875-0.799-2.054-1.2-3.542-1.2-0.964 0-1.781 0.155-2.449 0.468-0.669 0.313-1.272 0.85-1.811 1.608-0.537 0.76-1.067 1.811-1.587 3.158-0.522 1.347-1.117 3.03-1.785 5.056h-1.226zm13.705 2.575c-1.561 0.778-3.038 1.307-4.431 1.579-1.393 0.273-2.609 0.633-3.648 1.081-1.042 0.447-1.868 1.139-2.482 2.074-0.612 0.937-0.918 2.459-0.918 4.56 0 2.223 0.378 3.783 1.143 4.678 0.758 0.898 1.883 1.346 3.368 1.346 2.113-0.079 3.805-1.103 5.068-3.071 1.262-1.969 1.895-4.57 1.895-7.807v-4.439h5e-3z"/>
		<path d="m316.36 87.722h0.24v-9.469h-0.24l0.096 0.217c1.438-0.618 2.841-1.122 4.205-1.51 1.351-0.384 2.758-0.576 4.223-0.576 1.726 0 3.205 0.225 4.434 0.662 1.242 0.439 2.265 1.003 3.075 1.68 0.812 0.679 1.399 1.449 1.771 2.31 0.379 0.871 0.565 1.733 0.565 2.593v22.106h2.676v0.807h-7.098v-5.145h-0.52l-0.057 0.157c-0.654 1.794-1.702 3.222-3.149 4.306-1.446 1.078-3.133 1.618-5.093 1.62-2.481-2e-3 -4.454-0.696-5.966-2.073-1.504-1.372-2.261-3.289-2.264-5.816 0-1.688 0.285-3.021 0.834-4.007 0.557-0.999 1.3-1.785 2.229-2.37 0.941-0.589 2.003-1.026 3.191-1.314 1.201-0.29 2.431-0.551 3.691-0.784 1.267-0.237 2.503-0.501 3.716-0.795 1.228-0.297 2.32-0.745 3.274-1.345l0.111-0.069v-6.27c0-1.905-0.445-3.313-1.387-4.181-0.925-0.847-2.174-1.262-3.703-1.262-0.99 0-1.841 0.157-2.551 0.49-0.715 0.334-1.349 0.9-1.904 1.687-0.555 0.782-1.09 1.851-1.616 3.209-0.522 1.353-1.118 3.04-1.787 5.068l0.227 0.074v-0.239h-1.226v0.479h0.24v-0.24h-0.237v-0.239 0.479h1.399l0.055-0.165c0.668-2.022 1.26-3.702 1.779-5.044 0.517-1.336 1.039-2.374 1.561-3.104 0.52-0.736 1.093-1.239 1.716-1.532 0.628-0.294 1.408-0.444 2.349-0.444 1.448 0 2.557 0.384 3.381 1.137 0.799 0.732 1.231 1.99 1.231 3.827v6.137h0.24l-0.129-0.203c-0.904 0.569-1.947 0.999-3.133 1.287-1.204 0.29-2.433 0.552-3.691 0.787-1.267 0.234-2.505 0.498-3.716 0.791-1.231 0.298-2.345 0.755-3.331 1.375-1 0.625-1.802 1.478-2.396 2.54-0.604 1.086-0.893 2.5-0.893 4.24-2e-3 2.621 0.802 4.698 2.419 6.17 1.606 1.467 3.719 2.198 6.288 2.197 2.047 1e-3 3.851-0.57 5.379-1.714 1.521-1.14 2.631-2.652 3.313-4.526l-0.224-0.08v0.237h0.113v-0.237h-0.24v5.382h8.053v-1.764h-2.676v-21.628c0-0.93-0.202-1.859-0.604-2.783-0.402-0.932-1.042-1.766-1.903-2.485-0.863-0.721-1.938-1.31-3.223-1.765-1.295-0.461-2.827-0.688-4.593-0.688-1.507 0-2.959 0.197-4.354 0.593-1.385 0.394-2.808 0.905-4.265 1.53l-0.145 0.063v9.629h0.24v-0.239zm13.705 2.575-0.107-0.215c-1.544 0.771-3.003 1.292-4.37 1.559-1.404 0.275-2.638 0.641-3.697 1.097-1.081 0.463-1.949 1.189-2.587 2.164-0.655 1.006-0.956 2.566-0.958 4.689 4e-3 2.247 0.375 3.858 1.199 4.834 0.811 0.961 2.021 1.432 3.552 1.428h8e-3c2.189-0.075 3.972-1.16 5.262-3.18 1.294-2.021 1.934-4.669 1.934-7.937v-4.439h-0.24v0.238h6e-3v-0.238l-0.107-0.215 0.105 0.215v-0.239h-0.243v4.679c0 3.206-0.628 5.76-1.86 7.677-1.236 1.919-2.836 2.883-4.874 2.961l9e-3 0.24v-0.24c-1.44-3e-3 -2.479-0.425-3.187-1.259-0.701-0.816-1.088-2.326-1.086-4.524-2e-3 -2.079 0.311-3.564 0.881-4.429 0.588-0.896 1.375-1.555 2.376-1.984 1.02-0.442 2.221-0.798 3.599-1.067 1.421-0.276 2.918-0.813 4.493-1.601l-0.107-0.452v0.238z"/>
		<path d="m360.53 67.61h-3.341v-1.286h15.931c1.784 0 3.398 0.233 4.848 0.701 1.447 0.469 2.675 1.111 3.677 1.93s1.782 1.794 2.34 2.923c0.556 1.132 0.833 2.359 0.833 3.683 0 1.521-0.268 2.847-0.809 3.977-0.539 1.133-1.251 2.077-2.144 2.837-0.891 0.76-1.896 1.365-3.009 1.813-1.112 0.447-2.246 0.769-3.397 0.962v0.118c3.937 0.391 6.947 1.481 9.024 3.272 2.079 1.795 3.121 4.036 3.121 6.726 0 1.636-0.339 3.155-1.005 4.56-0.669 1.402-1.69 2.621-3.064 3.653-1.377 1.034-3.11 1.842-5.211 2.427-2.1 0.583-4.595 0.877-7.493 0.877h-13.647v-1.287h3.343v-37.886zm6.018 17.307h3.172c2.824 0 4.989-0.673 6.491-2.018 1.505-1.342 2.256-3.656 2.256-6.927 0-2.963-0.584-5.096-1.754-6.402-1.171-1.305-2.854-1.959-5.042-1.959h-5.123zm0 20.579h2.616c3.972 0 6.889-0.75 8.746-2.251 1.855-1.501 2.785-4.123 2.785-7.863 0-3.353-0.743-5.717-2.229-7.102-1.484-1.383-3.808-2.076-6.964-2.076h-4.958v19.292z"/>
		<path d="m360.53 67.61v-0.238h-3.102v-0.809h15.691c1.765 0 3.353 0.23 4.774 0.69 1.424 0.46 2.625 1.09 3.599 1.887 0.979 0.797 1.733 1.744 2.276 2.843 0.539 1.097 0.809 2.285 0.811 3.577-2e-3 1.492-0.265 2.78-0.787 3.872-0.525 1.105-1.218 2.021-2.083 2.758-0.872 0.745-1.853 1.337-2.941 1.774-1.098 0.439-2.216 0.758-3.349 0.949l-0.199 0.032v0.537l0.215 0.021c3.906 0.387 6.865 1.469 8.892 3.217 2.032 1.757 3.034 3.916 3.037 6.543 0 1.603-0.329 3.085-0.98 4.455-0.651 1.367-1.645 2.554-2.993 3.568-1.345 1.011-3.052 1.806-5.132 2.386-2.071 0.576-4.547 0.867-7.428 0.867h-13.407v-0.809l3.34 2e-3v-38.122h-0.237v0.24h4e-3v-0.479 0.239-0.238h-0.244v37.882h-3.34v1.764h13.885c2.914 0 5.43-0.292 7.557-0.886 2.122-0.591 3.886-1.408 5.291-2.464 1.401-1.052 2.45-2.303 3.138-3.743 0.683-1.435 1.025-2.994 1.025-4.661 4e-3 -2.752-1.075-5.075-3.201-6.906-2.132-1.834-5.19-2.936-9.158-3.33l-0.023 0.238h0.239v-0.118h-0.239l0.039 0.236c1.169-0.197 2.319-0.524 3.448-0.978 1.137-0.456 2.164-1.075 3.073-1.853 0.919-0.781 1.654-1.756 2.206-2.915 0.558-1.167 0.832-2.529 0.832-4.079 0-1.359-0.286-2.625-0.859-3.787-0.572-1.161-1.374-2.164-2.403-3.004-1.027-0.84-2.282-1.495-3.752-1.971-1.478-0.477-3.116-0.714-4.923-0.714h-16.171v1.765h3.581v-0.479 0.241zm6.018 17.307v0.24h3.172c2.858 0 5.09-0.683 6.65-2.08 1.58-1.413 2.335-3.801 2.335-7.104 0-2.992-0.585-5.183-1.814-6.562-1.223-1.364-2.986-2.039-5.22-2.037h-5.363v17.783h0.24v-0.24h0.239v-17.065h4.884c2.144 3e-3 3.743 0.634 4.864 1.879 1.108 1.235 1.693 3.307 1.692 6.242 0 3.24-0.746 5.478-2.176 6.747-1.445 1.294-3.544 1.959-6.332 1.959h-3.172v0.238h0.239zm0 20.579v0.24h2.616c4.001-2e-3 6.972-0.752 8.896-2.305 1.937-1.569 2.875-4.274 2.875-8.05 0-3.383-0.749-5.82-2.306-7.275-1.551-1.443-3.939-2.143-7.127-2.143h-5.196v19.772h0.241v-0.478h-3e-3v0.239h0.239v-19.055h4.719c3.124 0 5.382 0.688 6.801 2.014 1.413 1.314 2.152 3.604 2.152 6.927-1e-3 3.707-0.921 6.242-2.695 7.678-1.79 1.447-4.651 2.199-8.597 2.197h-2.616v0.239z"/>
		<path d="m395.85 87.722v-9.469c1.447-0.624 2.86-1.132 4.235-1.521 1.372-0.391 2.801-0.585 4.289-0.585 1.744 0 3.25 0.223 4.513 0.675 1.264 0.447 2.31 1.023 3.147 1.721 0.837 0.701 1.449 1.503 1.838 2.397 0.392 0.898 0.586 1.793 0.586 2.688v21.866h2.675v1.287h-7.575v-5.145h-0.112c-0.668 1.832-1.746 3.304-3.231 4.414-1.488 1.111-3.232 1.667-5.236 1.667-2.525 0-4.566-0.713-6.127-2.134-1.559-1.423-2.341-3.42-2.341-5.994 0-1.715 0.288-3.088 0.862-4.123 0.576-1.03 1.348-1.851 2.313-2.456 0.963-0.603 2.052-1.051 3.262-1.344 1.205-0.293 2.44-0.554 3.703-0.789 1.262-0.235 2.495-0.497 3.704-0.79 1.206-0.292 2.274-0.732 3.203-1.315v-6.137c0-1.871-0.439-3.205-1.31-4.004-0.875-0.799-2.053-1.2-3.54-1.2-0.967 0-1.781 0.155-2.451 0.468-0.669 0.313-1.271 0.85-1.809 1.608-0.539 0.76-1.067 1.811-1.59 3.158-0.521 1.347-1.114 3.03-1.783 5.056h-1.225zm13.707 2.575c-1.561 0.778-3.039 1.307-4.433 1.579-1.392 0.273-2.607 0.633-3.646 1.081-1.042 0.447-1.869 1.139-2.482 2.074-0.612 0.937-0.918 2.459-0.918 4.56 0 2.223 0.378 3.783 1.14 4.678 0.761 0.898 1.886 1.346 3.371 1.346 2.113-0.079 3.804-1.103 5.066-3.071s1.896-4.57 1.896-7.807v-4.439h6e-3z"/>
		<path d="m395.85 87.722h0.238v-9.469h-0.238l0.094 0.217c1.439-0.618 2.842-1.122 4.207-1.51 1.352-0.384 2.756-0.576 4.224-0.576 1.723 0 3.203 0.225 4.433 0.662 1.242 0.439 2.264 1.003 3.073 1.68 0.813 0.679 1.401 1.449 1.774 2.31 0.377 0.871 0.563 1.733 0.563 2.593v22.106h2.675v0.807h-7.095v-5.145h-0.52l-0.057 0.157c-0.655 1.794-1.704 3.222-3.151 4.306-1.446 1.078-3.132 1.618-5.093 1.62-2.482-2e-3 -4.454-0.696-5.967-2.073-1.502-1.372-2.26-3.289-2.261-5.816 0-1.688 0.284-3.021 0.831-4.007 0.559-0.999 1.3-1.785 2.232-2.37 0.939-0.589 2.002-1.026 3.188-1.314 1.203-0.29 2.434-0.551 3.691-0.784 1.267-0.237 2.503-0.501 3.716-0.795 1.23-0.297 2.323-0.745 3.276-1.345l0.112-0.069v-6.27c0-1.905-0.445-3.313-1.387-4.181-0.928-0.847-2.174-1.262-3.703-1.262-0.991 0-1.843 0.157-2.553 0.49-0.714 0.334-1.348 0.9-1.902 1.687-0.558 0.782-1.09 1.851-1.616 3.209-0.524 1.353-1.12 3.04-1.79 5.068l0.229 0.074v-0.239h-1.226v0.479h0.238v-0.24h-0.235v-0.239 0.479h1.399l0.055-0.165c0.667-2.022 1.261-3.702 1.779-5.044 0.518-1.336 1.04-2.374 1.561-3.104 0.52-0.736 1.094-1.239 1.717-1.532 0.628-0.294 1.408-0.444 2.349-0.444 1.446 0 2.556 0.384 3.379 1.137 0.798 0.732 1.23 1.99 1.23 3.827v6.137h0.24l-0.127-0.203c-0.903 0.569-1.948 0.999-3.133 1.287-1.204 0.29-2.432 0.552-3.691 0.787-1.268 0.234-2.506 0.498-3.717 0.791-1.232 0.298-2.343 0.755-3.331 1.375-1 0.625-1.801 1.478-2.395 2.54-0.603 1.086-0.892 2.5-0.892 4.24-4e-3 2.621 0.801 4.698 2.417 6.17 1.608 1.467 3.721 2.198 6.288 2.197 2.049 1e-3 3.851-0.57 5.38-1.714 1.521-1.14 2.632-2.652 3.313-4.526l-0.226-0.08v0.237h0.112v-0.237h-0.24v5.382h8.055v-1.764h-2.676v-21.628c0-0.93-0.201-1.859-0.604-2.783-0.404-0.932-1.041-1.766-1.903-2.485-0.864-0.721-1.938-1.31-3.222-1.765-1.295-0.461-2.828-0.688-4.593-0.688-1.509 0-2.96 0.197-4.354 0.593-1.387 0.394-2.81 0.905-4.263 1.53l-0.146 0.063v9.629h0.239v-0.239zm13.707 2.575-0.107-0.215c-1.545 0.771-3.004 1.292-4.37 1.559-1.405 0.275-2.638 0.641-3.697 1.097-1.081 0.463-1.951 1.189-2.588 2.164-0.654 1.006-0.955 2.566-0.957 4.689 2e-3 2.247 0.375 3.858 1.198 4.834 0.812 0.961 2.022 1.432 3.553 1.428h7e-3c2.19-0.075 3.971-1.16 5.261-3.18 1.296-2.021 1.936-4.669 1.936-7.937v-4.439h-0.24v0.238h6e-3v-0.238l-0.107-0.215 0.105 0.215v-0.239h-0.243v4.679c0 3.206-0.63 5.76-1.86 7.677-1.236 1.919-2.836 2.883-4.874 2.961l9e-3 0.24v-0.24c-1.44-3e-3 -2.479-0.425-3.189-1.259-0.7-0.816-1.085-2.326-1.084-4.524-1e-3 -2.079 0.31-3.564 0.88-4.429 0.59-0.896 1.375-1.555 2.376-1.984 1.021-0.442 2.222-0.798 3.6-1.067 1.419-0.276 2.917-0.813 4.493-1.601l-0.106-0.452v0.238z"/>
		<path d="m420.65 77.082h7.798v3.975h0.113c0.665-1.246 1.649-2.379 2.952-3.392 1.301-1.014 2.934-1.519 4.901-1.519 1.116 0 2.126 0.147 3.039 0.439 0.909 0.292 1.699 0.779 2.365 1.463 0.669 0.679 1.19 1.567 1.561 2.656 0.372 1.094 0.556 2.438 0.556 4.037v20.754h3.01v1.287h-11.477v-1.287h3.231v-21.454c0-2.186-0.326-3.693-0.976-4.533-0.647-0.837-1.623-1.255-2.922-1.255-0.781 0-1.522 0.175-2.229 0.525-0.707 0.349-1.328 0.896-1.866 1.636-0.537 0.741-0.975 1.667-1.311 2.779-0.336 1.113-0.502 2.426-0.502 3.944v18.36h3.233v1.286h-11.477v-1.286h3.007v-27.13h-3.007z"/>
		<path d="m420.65 77.082v0.239h7.559v3.975h0.496l0.066-0.125c0.649-1.213 1.608-2.32 2.89-3.316 1.255-0.976 2.826-1.469 4.755-1.471 1.095 0 2.079 0.146 2.965 0.43 0.875 0.281 1.629 0.744 2.269 1.401 0.64 0.648 1.144 1.504 1.504 2.568 0.362 1.059 0.543 2.377 0.543 3.959v20.994h3.011v0.807h-10.998v-0.807h3.232v-21.695c-5e-3 -2.207-0.318-3.756-1.026-4.68-0.695-0.901-1.764-1.354-3.111-1.349-0.817 0-1.598 0.184-2.337 0.553-0.744 0.366-1.396 0.942-1.952 1.707-0.557 0.77-1.004 1.72-1.346 2.85-0.345 1.143-0.512 2.479-0.512 4.016v18.6h3.231v0.81h-10.997v-0.81h3.008v-27.61h-3.008v-1.285h-0.24v0.479-0.24 0.239h1e-3l-3e-3 -0.239h-0.238v1.524h3.009v26.653h-3.009v1.764h11.953v-1.764h-3.231v-18.121c0-1.501 0.164-2.792 0.492-3.877 0.329-1.091 0.758-1.991 1.274-2.705 0.52-0.715 1.113-1.233 1.779-1.563 0.676-0.336 1.377-0.502 2.123-0.502 1.251 3e-3 2.133 0.396 2.732 1.165 0.595 0.757 0.929 2.224 0.926 4.386v21.216h-3.232v1.766h11.957v-1.766h-3.01v-20.516c-1e-3 -1.617-0.187-2.986-0.57-4.114-0.378-1.116-0.916-2.038-1.615-2.749-0.691-0.708-1.519-1.218-2.464-1.52-0.939-0.301-1.975-0.452-3.111-0.452-2.01-1e-3 -3.701 0.52-5.049 1.569-1.323 1.029-2.333 2.188-3.017 3.467l0.212 0.113v-0.239h-0.113v0.239h0.238v-4.214h-8.036v0.479z"/>
		<polygon points="450.89 67.61 450.89 66.324 459.14 66.324 459.14 90.763 469.61 78.367 466.04 78.367 466.04 77.078 474.07 77.078 474.07 78.367 471.39 78.367 463.43 88.012 474.85 105.49 476.41 105.49 476.41 106.78 469.5 106.78 459.25 91.229 459.14 91.229 459.14 105.5 462.7 105.5 462.7 106.78 450.89 106.78 450.89 106.78 450.89 105.49 453.9 105.49 453.9 67.61"/>
		<polygon points="454.14 105.73 454.14 67.372 451.13 67.372 451.13 66.563 458.9 66.563 458.9 91.415 470.12 78.127 466.28 78.127 466.28 77.317 473.83 77.317 473.83 78.127 471.39 78.127 471.28 78.127 463.13 87.996 474.72 105.73 476.17 105.73 476.17 106.54 469.63 106.54 459.38 90.991 459.14 90.991 458.9 90.991 458.9 105.74 462.46 105.74 462.46 106.54 450.89 106.54 450.89 106.78 451.13 106.78 451.13 106.77 450.89 106.78 451.13 106.78 450.89 106.78 450.65 106.79 450.65 106.79 450.66 107.02 462.94 107.02 462.94 105.5 462.94 105.26 459.38 105.26 459.38 91.229 459.14 91.229 459.14 91.469 459.25 91.469 459.25 91.229 459.05 91.361 469.37 107.02 476.65 107.02 476.65 105.49 476.65 105.25 474.98 105.25 463.72 88.028 471.5 78.604 474.07 78.604 474.31 78.604 474.31 77.078 474.31 76.84 465.81 76.84 465.81 78.367 465.81 78.604 469.09 78.604 459.37 90.106 459.37 66.085 450.65 66.085 450.65 67.61 450.65 67.851 453.66 67.851 453.66 105.25 450.89 105.25 450.65 105.25 450.65 106.78 450.65 106.78 450.65 106.79 450.89 106.78 451.13 106.78 451.13 105.73 453.9 105.73"/>
	</g>
	<g fill="#019eec">
		<path d="m227.9 36.09c0 4.531-3.894 8.192-8.689 8.192-4.817 0-8.713-3.662-8.713-8.192 0-4.506 3.899-8.167 8.713-8.167 4.795-1e-3 8.689 3.661 8.689 8.167zm-5.195 0.193c0-3.589-1.653-6.458-3.66-6.458-2.008 0-3.636 2.869-3.636 6.458 0 3.564 1.628 6.433 3.636 6.433 2.007 0 3.66-2.868 3.66-6.433z"/>
		<path d="m227.9 36.09h-0.118c-7e-3 4.459-3.836 8.072-8.571 8.074-4.756-2e-3 -8.585-3.615-8.593-8.074 7e-3 -4.434 3.838-8.049 8.593-8.049 4.735 0 8.564 3.615 8.571 8.049h0.238c-1e-3 -4.578-3.955-8.278-8.809-8.287-4.875 9e-3 -8.831 3.709-8.833 8.287 2e-3 4.603 3.957 8.303 8.833 8.312 4.854-9e-3 8.808-3.709 8.809-8.312zm-5.195 0.193h0.12c-7e-3 -3.616-1.65-6.555-3.78-6.577-2.133 0.022-3.75 2.96-3.756 6.577 5e-3 3.591 1.623 6.528 3.756 6.551 2.129-0.022 3.772-2.96 3.78-6.551h-0.24c0 1.764-0.41 3.353-1.061 4.493-0.653 1.144-1.537 1.822-2.479 1.82-0.941 2e-3 -1.821-0.676-2.467-1.818-0.646-1.14-1.05-2.731-1.05-4.495 0-1.777 0.405-3.373 1.05-4.517 0.648-1.145 1.526-1.823 2.467-1.822 0.942-1e-3 1.826 0.677 2.479 1.822 0.651 1.144 1.061 2.739 1.061 4.517z"/>
		<polyline points="217.04 30.095 233.08 30.095 233.08 27.876 217.04 27.876"/>
		<polyline points="232.24 21.921 232.24 50.023 237.27 50.023 237.27 21.921"/>
		<polyline points="229.64 50.665 239.48 50.665 239.48 48.995 229.64 48.995"/>
		<polyline points="267.66 21.921 267.66 50.023 272.69 50.023 272.69 21.921"/>
		<polyline points="265.06 50.665 274.9 50.665 274.9 48.995 265.06 48.995"/>
		<path d="m347.6 32.171c1.89 5.708-0.306 14.285-7.484 13.73-1.207-0.094-2.455-0.407-3.048-0.889v-6.626h0.116c1.7 1.541 1.44 6.917 4.108 5.708 2.529-1.108 2.362-7.133 2.197-9.419-0.544-7.638-6.495-9.3-10.248-2.504v-3.617c4.656-4.31 12.28-2.721 14.359 3.617z"/>
		<path d="m347.6 32.171-0.112 0.038c0.422 1.274 0.638 2.696 0.638 4.126 1e-3 2.357-0.588 4.733-1.803 6.512-1.216 1.777-3.04 2.959-5.556 2.96-0.21 0-0.423-7e-3 -0.645-0.024-1.188-0.091-2.43-0.412-2.979-0.864l-0.075 0.093h0.119v-6.626h-0.119v0.12h0.116v-0.12l-0.079 0.089c0.724 0.646 1.103 2.108 1.519 3.409 0.418 1.29 0.878 2.485 1.955 2.503 0.234 0 0.486-0.059 0.765-0.184 2-0.908 2.337-4.546 2.347-7.267 0-0.899-0.041-1.7-0.081-2.269-0.309-4.391-2.413-6.884-4.929-6.888-1.879 1e-3 -3.922 1.399-5.543 4.332l0.104 0.059h0.12v-3.617h-0.12l0.081 0.088c1.742-1.616 3.906-2.391 6.033-2.391 3.481 2e-3 6.855 2.072 8.132 5.955l0.112-0.034v-0.12h-0.167l0.055 0.158 0.112-0.038v0.118h0.163l-0.051-0.156c-1.306-3.983-4.784-6.122-8.356-6.12-2.185 0-4.408 0.798-6.194 2.455l-0.039 0.034v3.668l0.223 0.057c1.599-2.894 3.581-4.212 5.335-4.21 2.332-4e-3 4.379 2.329 4.689 6.666 0.042 0.565 0.083 1.361 0.083 2.253 0.013 2.706-0.41 6.29-2.206 7.048-0.257 0.117-0.477 0.165-0.668 0.165-0.844 0.019-1.315-1.033-1.73-2.337-0.419-1.294-0.776-2.773-1.584-3.515l-0.033-0.03h-0.282v6.8l0.043 0.036c0.636 0.511 1.894 0.817 3.112 0.917 0.226 0.017 0.447 0.026 0.663 0.026 2.594 1e-3 4.505-1.235 5.753-3.066 1.246-1.83 1.844-4.25 1.844-6.646 0-1.455-0.221-2.901-0.651-4.202l-0.114 0.039v0.118z"/>
		<polygon points="333.25 20.917 333.25 28.554 333.25 32.171 333.25 48.914 335.89 48.914 335.89 50.507 327.2 50.507 327.2 48.721 328.81 48.818 329.4 48.626 329.33 43.421 329.3 42.193 329.14 30.049 329.12 27.638 329.02 20.917"/>
		<polygon points="329.14 21.034 333.13 21.034 333.13 28.554 333.13 32.171 333.13 49.03 335.78 49.03 335.78 50.391 327.32 50.391 327.32 48.845 328.8 48.935 328.82 48.935 329.43 48.736 329.52 48.711 329.44 43.419 329.42 42.19 329.3 42.193 329.19 42.195 329.21 43.423 329.28 48.542 328.79 48.702 327.21 48.607 327.09 48.6 327.09 50.507 327.09 50.622 336.01 50.622 336.01 48.914 336.01 48.799 333.36 48.799 333.36 32.171 333.36 28.554 333.36 20.802 328.9 20.802 329 27.64 329.02 30.05 329.19 42.195 329.3 42.193 329.42 42.192 329.26 30.049 329.23 27.637"/>
		<path d="m329.3 42.193 0.021 1.228c-1.037 2.194-3.59 3.23-5.926 3.082-6.66-0.385-9.142-7.974-7.795-13.636 1.561-6.625 8.077-8.432 13.413-5.229h0.097l0.021 2.409h-0.211c-6.447-5.783-9.424 0.531-8.88 7.229 0.354 4.41 5.479 11.034 9.162 4.917z"/>
		<path d="m329.3 42.193-0.12 2e-3 0.023 1.228 0.118-2e-3 -0.106-0.051c-0.945 2.004-3.203 3.029-5.381 3.028l-0.432-0.014c-5.411-0.309-8.031-5.46-8.035-10.427 0-1.048 0.117-2.084 0.349-3.062 1.051-4.447 4.33-6.676 7.985-6.682 1.734 0 3.552 0.506 5.252 1.526l0.028 0.018h0.012l0.021 2.17h-0.093v0.118l0.079-0.088c-1.79-1.606-3.329-2.301-4.62-2.301-1.521-2e-3 -2.663 0.969-3.407 2.452-0.745 1.483-1.113 3.489-1.113 5.627 0 0.51 0.021 1.027 0.064 1.548 0.265 3.181 2.913 7.472 5.873 7.499 1.209 0 2.434-0.742 3.509-2.53l-0.103-0.061v0.118h0.097v-0.116l-0.12 2e-3 0.12-2e-3v-0.12h-0.165l-0.033 0.057c-1.054 1.75-2.2 2.415-3.305 2.416-2.725 0.025-5.4-4.19-5.637-7.281-0.043-0.513-0.063-1.025-0.063-1.528 0-2.111 0.366-4.087 1.089-5.521 0.726-1.437 1.783-2.319 3.193-2.321 1.201-2e-3 2.694 0.655 4.463 2.241l0.031 0.03h0.38l-0.024-2.53v-0.116h-0.216v0.118l0.061-0.102c-1.733-1.041-3.593-1.56-5.373-1.56-3.752-3e-3 -7.152 2.321-8.215 6.864-0.238 0.997-0.358 2.053-0.358 3.117-4e-3 5.032 2.674 10.338 8.26 10.666l0.446 0.013c2.245 0 4.595-1.053 5.595-3.164l0.015-0.026-0.024-1.256-2e-3 -0.116h-0.117v0.119z"/>
		<path d="m203.56 32.171c1.89 5.708-0.306 14.285-7.483 13.73-1.207-0.094-2.457-0.407-3.049-0.889v-6.626h0.118c1.7 1.541 1.44 6.917 4.108 5.708 2.526-1.108 2.362-7.133 2.196-9.419-0.542-7.638-6.494-9.3-10.248-2.504v-3.617c4.653-4.31 12.281-2.721 14.358 3.617z"/>
		<path d="m203.56 32.171-0.113 0.038c0.422 1.274 0.639 2.696 0.639 4.126 0 2.357-0.589 4.733-1.802 6.512-1.215 1.777-3.04 2.959-5.556 2.96-0.209 0-0.424-7e-3 -0.644-0.024-1.188-0.091-2.432-0.412-2.981-0.864l-0.075 0.093h0.12v-6.626h-0.12v0.12h0.118v-0.12l-0.081 0.089c0.725 0.646 1.103 2.108 1.517 3.409 0.42 1.29 0.879 2.485 1.956 2.503 0.235 0 0.487-0.059 0.765-0.184l-0.048-0.11 0.046 0.11c2.004-0.908 2.339-4.546 2.351-7.267 0-0.899-0.042-1.7-0.083-2.269-0.309-4.391-2.414-6.884-4.927-6.888-1.879 1e-3 -3.923 1.399-5.544 4.332l0.104 0.059h0.119v-3.617h-0.119l0.082 0.088c1.743-1.616 3.906-2.391 6.034-2.391 3.481 2e-3 6.857 2.072 8.13 5.955l0.112-0.034 0.114-0.038c-1.304-3.983-4.783-6.122-8.357-6.12-2.185 0-4.409 0.798-6.196 2.455l-0.038 0.034v3.668l0.222 0.057c1.6-2.894 3.583-4.212 5.336-4.21 2.331-4e-3 4.376 2.329 4.688 6.666 0.043 0.565 0.083 1.361 0.083 2.253 0.012 2.706-0.408 6.29-2.207 7.048l-2e-3 1e-3c-0.254 0.116-0.473 0.164-0.666 0.164-0.842 0.019-1.315-1.033-1.728-2.337-0.418-1.294-0.777-2.773-1.585-3.515l-0.032-0.03h-0.283v6.8l0.043 0.036c0.635 0.511 1.893 0.817 3.114 0.917 0.225 0.017 0.447 0.026 0.662 0.026 2.593 1e-3 4.506-1.235 5.753-3.066 1.247-1.83 1.843-4.25 1.843-6.646 0-1.455-0.221-2.901-0.65-4.202z"/>
		<polygon points="184.97 20.92 178.48 11.979 174.44 11.979 174.44 9.571 181.52 9.571 189.2 20.92 189.2 28.558 189.2 32.172 189.2 49.109 191.84 49.109 191.84 50.7 183.15 50.7 183.15 49.109 184.76 49.109 185.35 49.109 185.28 43.446 185.28 43.421 185.26 42.193 185.09 30.049 185.07 27.64"/>
		<polygon points="185.19 27.64 185.09 20.881 178.54 11.861 174.56 11.861 174.56 9.69 181.46 9.69 189.08 20.957 189.08 28.558 189.08 32.172 189.08 49.229 191.73 49.229 191.73 50.583 183.27 50.583 183.27 49.229 184.76 49.229 185.35 49.229 185.47 49.229 185.4 43.445 185.4 43.421 185.4 43.419 185.4 43.419 185.28 43.421 185.16 43.421 185.16 43.446 185.23 48.992 184.76 48.992 183.15 48.992 183.04 48.992 183.04 50.7 183.04 50.82 191.96 50.82 191.96 49.109 191.96 48.992 189.32 48.992 189.32 32.172 189.32 28.558 189.32 20.883 181.59 9.452 174.32 9.452 174.32 11.979 174.32 12.099 178.42 12.099 184.85 20.959 184.95 27.642 184.97 30.05 185.14 42.195 185.16 43.423 185.28 43.421 185.16 43.421 185.28 43.421 185.4 43.419 185.38 42.19 185.21 30.047"/>
		<path d="m185.28 43.421v0.024c-1.063 2.17-3.589 3.206-5.926 3.062-6.661-0.387-9.14-7.976-7.795-13.638 1.56-6.626 8.078-8.432 13.414-5.229h0.095l0.023 2.409h-0.211c-6.446-5.782-9.42 0.531-8.879 7.229 0.354 4.411 5.479 11.035 9.164 4.917h0.095z"/>
		<path d="m185.28 43.421h-0.118v0.024h0.118l-0.107-0.052c-0.97 1.984-3.212 3.008-5.388 3.008l-0.424-0.015c-5.414-0.31-8.031-5.459-8.037-10.427 0-1.047 0.117-2.085 0.349-3.063 1.052-4.446 4.33-6.676 7.984-6.68 1.736 0 3.555 0.504 5.254 1.525l0.027 0.018h0.013l0.02 2.17h-0.091v0.119l0.081-0.088c-1.792-1.605-3.327-2.3-4.622-2.301-1.52 0-2.663 0.972-3.403 2.454-0.747 1.481-1.113 3.487-1.115 5.626 0 0.51 0.021 1.029 0.063 1.547 0.269 3.182 2.915 7.475 5.876 7.5 1.208 2e-3 2.434-0.741 3.508-2.53l-0.102-0.061v0.12h0.095v-0.12l-0.118 2e-3 0.021 1.226 0.116-2e-3 0.119-2e-3 -0.02-1.226-2e-3 -0.116h-0.28l-0.034 0.057c-1.056 1.748-2.201 2.412-3.304 2.414-2.724 0.027-5.404-4.191-5.638-7.28-0.041-0.516-0.063-1.027-0.063-1.53 0-2.112 0.367-4.085 1.088-5.521 0.727-1.435 1.784-2.319 3.193-2.32 1.206 0 2.697 0.655 4.462 2.24l0.036 0.03h0.376l-0.025-2.528-2e-3 -0.118h-0.213v0.118l0.061-0.102c-1.734-1.042-3.593-1.559-5.376-1.559-3.752-5e-3 -7.15 2.32-8.215 6.863-0.238 0.997-0.356 2.053-0.356 3.118-4e-3 5.033 2.673 10.337 8.26 10.665l0.438 0.015c2.246-2e-3 4.576-1.052 5.603-3.143l0.011-0.024v-0.053z"/>
		<polygon points="305.63 43.145 305.63 43.123 305.6 41.895 305.44 29.753 305.42 27.341 305.32 21.1 302.68 12.452 299.35 12.452 299.35 10.523 305.72 10.523 309.55 21.1 309.55 49.097 312.19 49.097 312.19 50.69 303.5 50.69 303.5 48.904 305.11 49 305.7 48.809"/>
		<polygon points="305.11 49.004 305.7 48.812 305.7 48.811 305.63 43.145 305.63 43.123 305.61 41.893 305.44 29.751 305.42 27.341 305.32 21.1 302.68 12.449 299.35 12.449 299.35 10.527 305.72 10.527 309.55 21.102 309.55 49.102 312.19 49.102 312.19 50.687 303.5 50.687 303.5 50.69 303.51 50.69 303.5 50.69 303.5 50.692 312.2 50.692 312.2 49.097 312.2 49.094 309.55 49.094 309.55 21.1 305.73 10.52 299.34 10.52 299.34 12.452 299.34 12.456 302.68 12.456 305.32 21.101 305.41 27.341 305.44 29.753 305.6 41.895 305.63 43.123 305.63 43.145 305.7 48.805 305.11 48.997 303.5 48.901 303.5 48.901 303.5 50.69 303.5 50.692 303.5 50.692 303.5 50.69 303.51 50.69 303.51 48.907 305.11 49.004"/>
		<path d="m305.63 43.123v0.022c-1.086 2.169-4.346 3.205-7.014 3.061-7.65-0.383-10.481-7.974-8.95-13.636 1.796-6.624 10.321-8.432 15.657-5.227h0.097l0.021 2.411h-0.211c-6.449-5.787-11.077 0.529-10.463 7.228-0.495 6.815 7.063 11.035 10.745 4.916h0.097z"/>
		<path d="m305.63 43.123h-0.12v0.022h0.12l-0.105-0.054c-0.978 1.971-3.877 3.012-6.41 3.009l-0.49-0.013c-6.245-0.313-9.234-5.474-9.241-10.434 0-1.043 0.136-2.078 0.399-3.051 1.198-4.431 5.454-6.682 9.729-6.684 2.029 0 4.055 0.509 5.752 1.526l0.028 0.018h0.011l0.021 2.17h-0.093v0.12l0.078-0.089c-1.792-1.609-3.46-2.301-4.928-2.301-3.551 0.01-5.781 4.005-5.787 8.426 0 0.397 0.018 0.8 0.054 1.203l0.12-0.011-0.12-9e-3c-0.015 0.218-0.021 0.433-0.021 0.644 0 4.241 3.081 7.356 6.271 7.36 1.718 2e-3 3.455-0.916 4.719-3.019l-0.103-0.061v0.118h0.097v-0.118l-0.12 1e-3 0.021 1.226 0.118 1e-3 0.119-5e-3 -0.021-1.224-3e-3 -0.118h-0.281l-0.033 0.06c-1.233 2.045-2.885 2.9-4.515 2.902-1.516 0-3.024-0.747-4.153-2.011-1.129-1.266-1.882-3.047-1.882-5.111 0-0.206 9e-3 -0.416 0.024-0.626l2e-3 -0.011-2e-3 -9e-3c-0.036-0.395-0.055-0.791-0.055-1.181 0-2.176 0.553-4.232 1.524-5.737 0.973-1.504 2.351-2.451 4.025-2.451 1.393 0 3.004 0.657 4.769 2.241l0.034 0.03h0.38l-0.026-2.529v-0.118h-0.214v0.118l0.061-0.102c-1.737-1.043-3.804-1.56-5.873-1.56-4.352-2e-3 -8.722 2.301-9.959 6.859-0.27 0.995-0.405 2.049-0.405 3.114-7e-3 5.044 3.07 10.352 9.463 10.672l0.505 0.012c2.591-3e-3 5.562-1.036 6.62-3.14l0.015-0.025v-0.053z"/>
		<polygon points="303.6 22.753 294.99 14.994 291.61 14.994 291.61 13.067 298.03 13.067 307.74 22.44 307.74 22.753"/>
		<polygon points="307.73 22.75 303.61 22.75 294.99 14.991 294.99 14.991 291.62 14.991 291.62 13.067 291.61 13.067 291.61 13.07 291.61 13.067 291.61 13.067 291.61 14.994 291.61 14.998 294.99 14.998 303.6 22.757 303.6 22.757 307.74 22.757 307.74 22.44 307.74 22.438 298.03 13.063 291.61 13.063 291.61 13.067 291.61 13.067 291.61 13.07 298.03 13.07 307.73 22.44"/>
		<path d="m258.56 33.157h-3.234c4.959-2.503 2.007-8.262 0.732-11.227h3.801c2.149 1.854 3.564 3.543 3.233 6.506-0.282 2.721-1.724 5.397-4.532 5.13z"/>
		<path d="m258.56 33.157v-0.118h-3.234v0.118l0.055 0.107c2.123-1.068 2.842-2.759 2.836-4.545 0-2.457-1.313-5.122-2.047-6.836l-0.111 0.047v0.119h3.801v-0.119l-0.079 0.09c1.937 1.673 3.239 3.17 3.243 5.583 0 0.261-0.017 0.535-0.049 0.819-0.27 2.577-1.571 5.052-4.031 5.045l-0.371-0.018-0.012 0.118h0.12v-0.528h-0.12v0.118h-0.118v0.518l0.107 0.01 0.394 0.02c2.655-9e-3 3.999-2.64 4.27-5.256 0.032-0.293 0.046-0.574 0.046-0.846 4e-3 -2.511-1.379-4.089-3.32-5.763l-0.036-0.029h-4.022l0.069 0.167c0.743 1.72 2.031 4.367 2.031 6.742-7e-3 1.725-0.66 3.292-2.707 4.332l0.053 0.226h3.234v-0.121h-0.118z"/>
		<path d="m260.82 42.313v5.901c-0.426 0.338-0.826 0.555-1.273 0.821-4.531 2.484-12.563 1.276-12.988-5.227v-10.651h4.914v12.771c0.329 4.744 9.065 4.336 9.065-3.616z"/>
		<path d="m260.82 42.313h-0.118v5.901h0.118l-0.073-0.093c-0.417 0.332-0.811 0.542-1.262 0.813l0.062 0.102-0.058-0.105c-1.406 0.771-3.164 1.185-4.918 1.185-3.829-8e-3 -7.608-1.938-7.895-6.316l-0.118 9e-3h0.118v-10.532h4.676v12.658c0.142 2.062 1.832 3.19 3.706 3.185 1.299 0 2.7-0.532 3.775-1.65 1.077-1.12 1.824-2.825 1.821-5.159h-0.117v0.12h0.282v-0.118h-0.118 0.119v-0.12h-0.4v0.118c-6e-3 4.561-2.891 6.565-5.361 6.571-1.788-6e-3 -3.332-1.042-3.469-2.964l-0.117 9e-3h0.117v-12.888h-5.149v10.777c0.295 4.536 4.237 6.542 8.131 6.537 1.794 0 3.583-0.42 5.032-1.213l2e-3 -2e-3h2e-3c0.443-0.264 0.852-0.483 1.288-0.831l0.043-0.036v-6.079h-0.118v0.121z"/>
		<polygon points="258.56 33.581 258.96 33.581 258.96 32.733 258.56 32.733 255.32 32.733 251.47 32.733 246.56 32.733 243.42 32.733 243.42 33.581 246.56 33.581 251.47 33.581 255.32 33.581"/>
		<polygon points="276.48 20.835 259.86 20.835 256.05 20.835 173.54 20.835 173.54 23.025 256.05 23.025 259.86 23.025 276.48 23.025"/>
		<polygon points="348.29 20.738 307.56 20.738 303.42 20.738 291.62 20.738 291.62 22.931 303.42 22.931 307.56 22.931 348.29 22.931"/>
		<ellipse cx="313.38" cy="16.915" rx="2.416" ry="2.254"/>
		<path d="m313.38 14.661v0.113c1.277 1e-3 2.302 0.964 2.302 2.141 0 1.176-1.024 2.14-2.302 2.14s-2.302-0.964-2.305-2.14c3e-3 -1.177 1.026-2.14 2.305-2.141v-0.227c-1.393 3e-3 -2.53 1.054-2.53 2.368s1.138 2.366 2.53 2.368c1.393-2e-3 2.53-1.054 2.53-2.368s-1.138-2.365-2.53-2.368z"/>
		<polyline points="292.45 31.035 306.24 41.628 307.71 39.715 293.92 29.122"/>
	</g>
</g>
</svg>
