<?xml version="1.0" encoding="UTF-8"?>
<svg width="2160.5" height="2157.2" version="1.1" viewBox="0 0 166.58 166.329" xmlns="http://www.w3.org/2000/svg" xmlns:cc="http://creativecommons.org/ns#" xmlns:dc="http://purl.org/dc/elements/1.1/" xmlns:rdf="http://www.w3.org/1999/02/22-rdf-syntax-ns#">
<metadata>
<rdf:RDF>
<cc:Work rdf:about="">
<dc:format>image/svg+xml</dc:format>
<dc:type rdf:resource="http://purl.org/dc/dcmitype/StillImage"/>
<dc:title/>
</cc:Work>
</rdf:RDF>
</metadata>
<path d="m29.047 30.31 10.104-9.345 10.103 9.345zm24.628 4.168 10.355 9.599h-49.759l10.356-9.599zm-5.81 22.985v-9.345h20.586l10.103 9.345zm-17.555 0l-30.31-0.126 9.85-9.219h20.46z" clip-rule="evenodd" fill="#0c0e0f" fill-rule="evenodd"/>
<path d="m48.118 50.139h9.218v31.952l-9.218 9.851zm-13.64-1.643h9.219v47.233l-9.219 9.852zm-13.387 1.39h9.219v61.127l-9.219 9.849z" clip-rule="evenodd" fill="#0c0e0f" fill-rule="evenodd"/>
<path d="m136.14 29.048 9.344 9.977-9.344 10.103zm-4.043 24.501-9.724 10.482v-49.76l9.724 10.356zm-23.111-5.684h9.346v20.586l-9.346 10.103zm0.127-17.555v-30.31l9.219 9.851v20.459z" clip-rule="evenodd" fill="#e0a137" fill-rule="evenodd"/>
<path d="m116.32 48.118v9.093h-32.08l-9.976-9.219zm1.768-13.766v9.219h-49.002l-9.851-9.219zm-1.516-13.261v9.219h-61.252l-9.977-9.219z" clip-rule="evenodd" fill="#e0a137" fill-rule="evenodd"/>
<path d="m137.53 136.14-10.103 9.346-10.104-9.346zm-24.627-4.166-10.355-9.599h49.757l-10.482 9.599zm5.809-22.986v9.219h-20.711l-10.104-9.346zm17.429 0 30.436 0.127-9.977 9.092h-20.459z" clip-rule="evenodd" fill="#0c0e0f" fill-rule="evenodd"/>
<path d="m118.46 116.32h-9.219v-32.33l9.219-10.104zm13.638 1.643h-9.218v-48.497l9.218-9.977zm13.387-1.516h-9.219v-60.873l9.219-9.851zm-115.43 20.838-9.347-9.976 9.347-10.104zm4.167-24.5 9.598-10.482v49.759l-9.598-10.355zm22.985 5.684h-9.219v-20.586l9.345-10.104zm0 17.554-0.126 30.311-9.093-9.852v-20.459z" clip-rule="evenodd" fill="#0c0e0f" fill-rule="evenodd"/>
<path d="m49.885 118.34v-9.219h31.447l9.725 9.219zm-1.641 13.64v-9.22h48.117l9.725 9.22zm1.515 13.385v-9.219h60.368l9.851 9.219z" clip-rule="evenodd" fill="#0c0e0f" fill-rule="evenodd"/>
</svg>
