<?xml version="1.0"?>
<svg viewBox="0 0 467 149" xmlns="http://www.w3.org/2000/svg">
<circle cx="66.665" cy="75.893" r="62.2" fill="#26a17b"/>
<g fill="#fff">
<path d="m73.295 81.633v-.01c-.43.03-2.65.16-7.59.16-3.95 0-6.72-.11-7.7-.16v.01c-15.19-.67-26.52-3.31-26.52-6.48 0-3.16 11.34-5.81 26.52-6.48v10.33c.99.07 3.84.24 7.77.24 4.72 0 7.08-.2 7.52-.24v-10.32c15.16.68 26.46 3.32 26.46 6.48s-11.31 5.8-26.46 6.48m0-14.03v-9.24h21.15v-14.09h-57.58v14.09h21.15v9.24c-17.19.79-30.11 4.19-30.11 8.27s12.93 7.48 30.11 8.28v29.62h15.29v-29.62c17.16-.79 30.06-4.19 30.06-8.27 0-4.07-12.9-7.48-30.06-8.27"/>
</g>
<path d="m181.7 48.133v14.94h14.52v11.21h-14.62v22.73c0 5.02 2.77 7.47 6.83 7.47 2.03 0 4.38-.64 6.3-1.6l3.63 11.1c-3.73 1.49-6.83 2.13-10.78 2.24-11.42.43-18.89-6.08-18.89-19.21v-22.73h-9.82v-11.21h9.82v-13.55zm250.33 14.24.96 6.08c4.06-6.51 9.5-7.47 14.84-7.47 5.44 0 10.67 2.13 13.55 5.01l-5.87 11.31c-2.67-2.24-5.12-3.42-9.39-3.42-6.83 0-13.13 3.63-13.13 13.34v27.75h-13.02v-52.62zm-31.91 20.17c-.85-6.83-6.19-10.25-13.66-10.25-7.04 0-12.81 3.42-14.73 10.25zm-28.6 10.78c.85 6.51 6.51 11.21 15.69 11.21 4.8 0 11.1-1.82 14.09-4.91l8.32 8.22c-5.55 5.76-14.62 8.54-22.63 8.54-18.14 0-28.93-11.21-28.93-28.07 0-16.01 10.89-27.54 27.97-27.54 17.61 0 28.61 10.89 26.58 32.55zm-57.42-53.05v29.24c4.7-6.08 10.46-7.9 16.44-7.9 14.94 0 21.56 10.14 21.56 25.62v27.75h-13.02v-27.64c0-9.61-5.02-13.66-11.96-13.66-7.69 0-13.02 6.51-13.02 14.41v26.9h-13.02v-74.71zm-34.58 7.26v14.94h14.52v11.21h-14.62v22.73c0 5.02 2.78 7.47 6.83 7.47 2.03 0 4.38-.64 6.3-1.6l3.63 11.1c-3.73 1.49-6.83 2.13-10.78 2.24-11.42.43-18.89-6.09-18.89-19.21v-22.73h-9.82v-11.21h9.82v-13.55zm-35.97 35.01c-.85-6.83-6.19-10.25-13.66-10.25-7.04 0-12.81 3.42-14.73 10.25zm-28.6 10.78c.85 6.51 6.51 11.21 15.69 11.21 4.8 0 11.1-1.82 14.09-4.91l8.32 8.22c-5.55 5.76-14.62 8.54-22.63 8.54-18.15 0-28.93-11.21-28.93-28.07 0-16.01 10.89-27.54 27.96-27.54 17.61 0 28.6 10.89 26.58 32.55z" fill="#5b5a5d"/>
</svg>
