<svg xmlns:dc="http://purl.org/dc/elements/1.1/" xmlns:cc="http://creativecommons.org/ns#" xmlns:rdf="http://www.w3.org/1999/02/22-rdf-syntax-ns#" xmlns:svg="http://www.w3.org/2000/svg" xmlns="http://www.w3.org/2000/svg" height="224" width="384" xml:space="preserve" version="1.1" style=""><rect id="backgroundrect" width="100%" height="100%" x="0" y="0" fill="none" stroke="none" style="" class=""/><metadata id="metadata8"><rdf:RDF><cc:Work rdf:about=""><dc:format>image/svg+xml</dc:format><dc:type rdf:resource="http://purl.org/dc/dcmitype/StillImage"/></cc:Work></rdf:RDF></metadata><defs id="defs6"/><g class="currentLayer" style=""><title>Layer 1</title><path id="path32" style="fill:#100f0d;fill-opacity:1;fill-rule:nonzero;stroke:none" d="m311.0346635255776,75.61599837466414 c-11.49333321726401,-11.513333217062032 -30.989333020377043,-10.830666557289508 -43.30533289599975,1.4759999850941137 l-44.7373328815382,44.726666214979254 v-90.14666575628999 c0,-17.418666490758355 -13.297333199045704,-31.671999680149572 -29.585333034555813,-31.671999680149572 c-6.9439999298736605,0 -13.266666532688735,2.711999972611949 -18.33866648146742,7.043999928863777 c-1.7999999818220898,1.2039999878409977 -3.4839999648156446,2.566666640746313 -5.065333282179347,4.15199995806962 L59.19786606883694,122.03733123919591 v-90.36533242074837 c0,-17.418666490758355 -13.334266532006055,-31.671999680149572 -29.60093303439827,-31.671999680149572 C13.282813199192338,-8.61702062592961e-7 0,14.25333232768918 0,31.67199881844755 V190.03599721915498 C0,196.65199715234107 1.9354133137879055,202.79173042367023 5.243226613716164,207.89853037209747 C6.3854132688480725,209.92933035158873 7.742186588479569,211.84906366553497 9.458333237815147,213.58133031470777 C13.094786534424523,217.19079694492302 17.52973315630338,219.45999692200672 22.23493310878632,220.7079969094034 l0.10466666560965487,0.030666666356968943 c10.282799896155657,2.6291999734481326 22.031733110838402,-0.21453333116679577 30.410399692890266,-8.629199912855096 l111.07533221160142,-111.02946554539795 v88.95599910164766 c0,4.721333285653348 1.0279999896183933,9.171999907373449 2.765333305406677,13.199999866695324 c1.3826666527033384,3.7865332950937427 3.5373332976103735,7.359999925672545 6.510666600916491,10.345333228857477 c11.487999883984536,11.518799883673493 31.00533302021546,10.84013322386057 43.30666622931961,-1.471866651802522 l93.18266572562992,-93.17613239236256 c12.317333208942566,-12.297333209144544 12.96399986907865,-31.77733301241916 1.4439999854172765,-43.31733289587856 " stroke-width="0" class=""/><path id="path34" style="fill:#b71a35;fill-opacity:1;fill-rule:nonzero;stroke:none" d="m384.2666627860194,31.693332151565414 c0.37599999620283664,-7.9759999194516595 -2.3266666431700345,-15.895999839468853 -8.169333250832551,-21.75466644696979 c-6.098666605077214,-6.114666604915632 -14.466666520570127,-8.75999991153417 -22.809333102985544,-8.091999918280194 c-3.547999964169319,0.1826666648219454 -6.9439999298736605,1.0533333226958896 -10.047999898526864,2.4733333083555378 c-3.8186666281025667,1.6119999837206715 -7.3613332589924125,3.9799999598066207 -10.470666560925089,7.090666595059165 L272.9973305763772,71.21199841913943 c-12.347999875299536,12.349333208619404 -13.010666535274037,31.823999678614545 -1.5333333178484465,43.323999562477894 c11.52933321690045,11.513333217062032 30.994666353656516,10.834666557249113 43.32266622915803,-1.466666651855036 l10.350666562136949,-10.350666562136949 v89.11733243335172 c0,17.42506649069372 13.334666532002014,31.678666346748912 29.57999970127634,31.678666346748912 c16.261333169112746,0 29.54933303491937,-14.253599856055187 29.54933303491937,-31.678666346748912 v-158.33733173431008 c0,-0.6159999937791154 0,-1.2213333209992845 0,-1.8053333151015625 " stroke-width="0" class=""/></g></svg>