<?xml version="1.0" encoding="UTF-8" standalone="no"?>
<svg
   xmlns:dc="http://purl.org/dc/elements/1.1/"
   xmlns:cc="http://creativecommons.org/ns#"
   xmlns:rdf="http://www.w3.org/1999/02/22-rdf-syntax-ns#"
   xmlns:svg="http://www.w3.org/2000/svg"
   xmlns="http://www.w3.org/2000/svg"
   viewBox="0 0 387.23999 330.50668"
   height="330.50668"
   width="387.23999"
   xml:space="preserve"
   id="svg2"
   version="1.1"><metadata
     id="metadata8"><rdf:RDF><cc:Work
         rdf:about=""><dc:format>image/svg+xml</dc:format><dc:type
           rdf:resource="http://purl.org/dc/dcmitype/StillImage" /></cc:Work></rdf:RDF></metadata><defs
     id="defs6" /><g
     transform="matrix(1.3333333,0,0,-1.3333333,0,330.50667)"
     id="g10"><g
       transform="scale(0.1)"
       id="g12"><path
         id="path14"
         style="fill:#100f0d;fill-opacity:1;fill-rule:nonzero;stroke:none"
         d="M 412.098,7.58984 H 321.906 L 268.77,203.738 c -6.219,23.633 -9.665,51.692 -9.665,51.692 h -1.054 c 0,0 -3.719,-28.059 -10.645,-51.692 L 194.781,7.58984 H 104.707 L 4.34375,351.949 H 91.832 L 141.02,141.02 c 5.593,-25.59 9.117,-56.0317 9.117,-56.0317 h 0.933 c 0,0 5.328,30.4417 11.938,56.0317 l 55.324,210.929 h 79.863 L 353.719,141.02 c 6.375,-25.59 11.855,-56.0317 11.855,-56.0317 h 1.055 c 0,0 3.211,30.4417 8.687,56.0317 l 49.457,210.929 h 87.532 L 412.098,7.58984" /><path
         id="path16"
         style="fill:#100f0d;fill-opacity:1;fill-rule:nonzero;stroke:none"
         d="m 731.5,173.809 c -64.289,-3.329 -120.359,-9.079 -120.359,-60.848 0,-32.4415 25.863,-50.9415 70.859,-50.9415 18.508,0 40.379,3.1289 49.5,6.8399 z M 684.586,0 C 581.051,0 529.324,40.8516 529.324,111.121 c 0,93.91 97.582,112.379 202.176,118.129 v 17.879 c 0,35.84 -24.969,49.223 -64.723,49.223 -32.472,0 -71.836,-10.25 -96.367,-20.461 l -21.875,58.808 c 28.914,12.172 78.02,25 127.832,25 88.426,0 137.219,-34.59 137.219,-122.777 V 24.9219 C 788.191,11.4609 736.195,0 684.586,0" /><path
         id="path18"
         style="fill:#100f0d;fill-opacity:1;fill-rule:nonzero;stroke:none"
         d="M 879.438,7.58984 V 509.09 h 86.789 V 7.58984 h -86.789" /><path
         id="path20"
         style="fill:#100f0d;fill-opacity:1;fill-rule:nonzero;stroke:none"
         d="M 1039.04,7.58984 V 509.09 h 87.06 V 7.58984 h -87.06" /><path
         id="path22"
         style="fill:#100f0d;fill-opacity:1;fill-rule:nonzero;stroke:none"
         d="m 1338.06,296.352 c -45.43,0 -77.2,-33.223 -78.53,-97.661 l 144.62,19.797 c 0,51.774 -25.99,77.864 -66.09,77.864 z m 148.76,-122.543 -221.7,-30.129 c 7.83,-50.3987 44.88,-75.5198 95.4,-75.5198 34.55,0 71.44,9.0781 95.74,21.8007 l 25.01,-65.039 C 1452.55,10.332 1404.15,0 1354.18,0 c -113.67,0 -173.89,74.0313 -173.89,180.148 0,105.442 59.48,179.551 159.84,179.551 95,0 148.22,-62.679 148.22,-156.629 0,-9.582 0,-19.172 -1.53,-29.261" /><path
         id="path24"
         style="fill:#100f0d;fill-opacity:1;fill-rule:nonzero;stroke:none"
         d="m 1656.91,2.58203 c -66.36,0 -97.7,36.34767 -97.7,108.53897 V 286.77 h -43.98 v 65.179 h 43.98 v 76.621 l 85.14,24.879 v -101.5 h 64.87 V 286.77 h -64.87 V 116.879 c 0,-28.1407 17.45,-37.7306 39.99,-37.7306 9.04,0 19.13,2.5508 24.88,5.0508 V 12.0508 c -10.37,-4.92971 -31.26,-9.46877 -52.31,-9.46877" /><path
         id="path26"
         style="fill:#b71a35;fill-opacity:1;fill-rule:nonzero;stroke:none"
         d="m 2047.88,291.23 c -46.06,0 -69.03,-41.601 -69.03,-110.378 0,-69.141 22.97,-109.9536 69.03,-109.9536 46.17,0 69.13,40.8126 69.13,109.9536 0,68.777 -22.96,110.378 -69.13,110.378 z m 0,-291.23 c -100.37,0 -155.97,77.2383 -155.97,180.148 0,102.821 55.6,179.551 155.97,179.551 100.32,0 155.77,-76.73 155.77,-179.551 C 2203.65,77.2383 2148.2,0 2047.88,0" /><path
         id="path28"
         style="fill:#b71a35;fill-opacity:1;fill-rule:nonzero;stroke:none"
         d="M 2456.06,7.58984 V 234.379 c 0,34.59 -21.05,55.633 -60.73,55.633 -20.27,0 -40.42,-3.91 -51.92,-8.371 V 7.58984 h -86.75 V 334.699 c 36.47,14.711 80.49,25 137.3,25 102.32,0 149.55,-42.301 149.55,-116.25 V 7.58984 h -87.45" /><path
         id="path30"
         style="fill:#b71a35;fill-opacity:1;fill-rule:nonzero;stroke:none"
         d="m 2754.37,296.352 c -45.35,0 -77.4,-33.223 -78.73,-97.661 l 144.46,19.797 c 0,51.774 -25.66,77.864 -65.73,77.864 z M 2902.9,173.809 2681.32,143.68 c 7.86,-50.3987 44.64,-75.5198 95.19,-75.5198 34.67,0 71.49,9.0781 95.75,21.8007 l 25.16,-65.039 C 2868.7,10.332 2820.1,0 2770.29,0 c -113.55,0 -173.72,74.0313 -173.72,180.148 0,105.442 59.39,179.551 159.64,179.551 95.19,0 148.13,-62.679 148.13,-156.629 0,-9.582 0,-19.172 -1.44,-29.261" /><path
         id="path32"
         style="fill:#100f0d;fill-opacity:1;fill-rule:nonzero;stroke:none"
         d="m 2332.76,1911.67 c -86.2,86.35 -232.42,81.23 -324.79,-11.07 l -335.53,-335.45 v 676.1 c 0,130.64 -99.73,237.54 -221.89,237.54 -52.08,0 -99.5,-20.34 -137.54,-52.83 -13.5,-9.03 -26.13,-19.25 -37.99,-31.14 L 443.984,1563.51 v 677.74 c 0,130.64 -100.007,237.54 -222.007,237.54 C 99.6211,2478.79 0,2371.89 0,2241.25 V 1053.52 C 0,1003.9 14.5156,957.852 39.3242,919.551 47.8906,904.32 58.0664,889.922 70.9375,876.93 98.2109,849.859 131.473,832.84 166.762,823.48 l 0.785,-0.23 c 77.121,-19.719 165.238,1.609 228.078,64.719 l 833.065,832.721 v -667.17 c 0,-35.41 7.71,-68.79 20.74,-99 10.37,-28.399 26.53,-55.2 48.83,-77.59 86.16,-86.391 232.54,-81.301 324.8,11.039 l 698.87,698.821 c 92.38,92.23 97.23,238.33 10.83,324.88" /><path
         id="path34"
         style="fill:#b71a35;fill-opacity:1;fill-rule:nonzero;stroke:none"
         d="m 2882,2241.09 c 2.82,59.82 -17.45,119.22 -61.27,163.16 -45.74,45.86 -108.5,65.7 -171.07,60.69 -26.61,-1.37 -52.08,-7.9 -75.36,-18.55 -28.64,-12.09 -55.21,-29.85 -78.53,-53.18 L 2047.48,1944.7 c -92.61,-92.62 -97.58,-238.68 -11.5,-324.93 86.47,-86.35 232.46,-81.26 324.92,11 l 77.63,77.63 v -668.38 c 0,-130.688 100.01,-237.59 221.85,-237.59 121.96,0 221.62,106.902 221.62,237.59 v 1187.53 c 0,4.62 0,9.16 0,13.54" /></g></g></svg>