<svg width="166" height="33" viewBox="0 0 166 33" fill="none" xmlns="http://www.w3.org/2000/svg">
<path d="M13.537 7.90753C13.6049 8.04575 13.6498 8.19377 13.6699 8.34595L14.0411 13.8658L14.2254 16.6403C14.2273 16.9256 14.2721 17.209 14.3582 17.4815C14.5808 18.0102 15.1162 18.3463 15.6988 18.3228L24.5751 17.7422C24.9595 17.7359 25.3307 17.8796 25.607 18.1419C25.8373 18.3604 25.9859 18.6462 26.0328 18.9537L26.0485 19.1404C25.6812 24.2267 21.9456 28.469 16.8698 29.5642C11.7941 30.6593 6.58917 28.3459 4.08097 23.88C3.35787 22.5826 2.90622 21.1565 2.75253 19.6855C2.68833 19.25 2.66005 18.8102 2.66799 18.3702C2.66007 12.9171 6.54331 8.20277 11.9791 7.06625C12.6334 6.96438 13.2747 7.31072 13.537 7.90753Z" fill="#1462FF"/>
<path opacity="0.4" d="M17.16 3.16784C23.2398 3.32252 28.3497 7.69447 29.3333 13.5831L29.3239 13.6266L29.2971 13.6898L29.3008 13.8632C29.2869 14.093 29.1982 14.3141 29.0453 14.4927C28.886 14.6788 28.6684 14.8055 28.4288 14.8546L28.2826 14.8747L18.0416 15.5382C17.701 15.5718 17.3618 15.462 17.1084 15.236C16.8973 15.0477 16.7624 14.7935 16.7243 14.5197L16.0369 4.2935C16.0249 4.25892 16.0249 4.22143 16.0369 4.18686C16.0463 3.90498 16.1703 3.63853 16.3814 3.44705C16.5924 3.25557 16.8728 3.15501 17.16 3.16784Z" fill="#1462FF"/>
<path d="M52.85 8.675V12H47.625V26H43.725V12H38.5V8.675H52.85ZM55.1064 26V7.2L58.8314 6.6V12.9C59.0814 12.8167 59.3981 12.7417 59.7814 12.675C60.1814 12.5917 60.5648 12.55 60.9314 12.55C61.9981 12.55 62.8814 12.7 63.5814 13C64.2981 13.2833 64.8648 13.6917 65.2814 14.225C65.7148 14.7583 66.0148 15.3917 66.1814 16.125C66.3648 16.8583 66.4564 17.675 66.4564 18.575V26H62.7314V19.025C62.7314 17.825 62.5731 16.975 62.2564 16.475C61.9564 15.975 61.3898 15.725 60.5564 15.725C60.2231 15.725 59.9064 15.7583 59.6064 15.825C59.3231 15.875 59.0648 15.9333 58.8314 16V26H55.1064ZM69.2031 19.525C69.2031 18.3583 69.3781 17.3417 69.7281 16.475C70.0948 15.5917 70.5698 14.8583 71.1531 14.275C71.7365 13.6917 72.4031 13.25 73.1531 12.95C73.9198 12.65 74.7031 12.5 75.5031 12.5C77.3698 12.5 78.8448 13.075 79.9281 14.225C81.0115 15.3583 81.5531 17.0333 81.5531 19.25C81.5531 19.4667 81.5448 19.7083 81.5281 19.975C81.5115 20.225 81.4948 20.45 81.4781 20.65H73.0281C73.1115 21.4167 73.4698 22.025 74.1031 22.475C74.7365 22.925 75.5865 23.15 76.6531 23.15C77.3365 23.15 78.0031 23.0917 78.6531 22.975C79.3198 22.8417 79.8615 22.6833 80.2781 22.5L80.7781 25.525C80.5781 25.625 80.3115 25.725 79.9781 25.825C79.6448 25.925 79.2698 26.0083 78.8531 26.075C78.4531 26.1583 78.0198 26.225 77.5531 26.275C77.0865 26.325 76.6198 26.35 76.1531 26.35C74.9698 26.35 73.9365 26.175 73.0531 25.825C72.1865 25.475 71.4615 25 70.8781 24.4C70.3115 23.7833 69.8865 23.0583 69.6031 22.225C69.3365 21.3917 69.2031 20.4917 69.2031 19.525ZM77.9531 18.1C77.9365 17.7833 77.8781 17.475 77.7781 17.175C77.6948 16.875 77.5531 16.6083 77.3531 16.375C77.1698 16.1417 76.9281 15.95 76.6281 15.8C76.3448 15.65 75.9865 15.575 75.5531 15.575C75.1365 15.575 74.7781 15.65 74.4781 15.8C74.1781 15.9333 73.9281 16.1167 73.7281 16.35C73.5281 16.5833 73.3698 16.8583 73.2531 17.175C73.1531 17.475 73.0781 17.7833 73.0281 18.1H77.9531ZM96.4586 26.225C95.5086 26.225 94.5586 26.1917 93.6086 26.125C92.6753 26.075 91.7003 25.9417 90.6836 25.725V8.925C91.4836 8.775 92.3586 8.66667 93.3086 8.6C94.2586 8.51667 95.1419 8.475 95.9586 8.475C97.0586 8.475 98.0669 8.55833 98.9836 8.725C99.9169 8.875 100.717 9.14167 101.384 9.525C102.05 9.90833 102.567 10.4167 102.934 11.05C103.317 11.6667 103.509 12.4333 103.509 13.35C103.509 14.7333 102.842 15.825 101.509 16.625C102.609 17.0417 103.359 17.6083 103.759 18.325C104.159 19.0417 104.359 19.85 104.359 20.75C104.359 22.5667 103.692 23.9333 102.359 24.85C101.042 25.7667 99.0753 26.225 96.4586 26.225ZM94.4836 18.45V22.925C94.7669 22.9583 95.0753 22.9833 95.4086 23C95.7419 23.0167 96.1086 23.025 96.5086 23.025C97.6753 23.025 98.6169 22.8583 99.3336 22.525C100.05 22.1917 100.409 21.575 100.409 20.675C100.409 19.875 100.109 19.3083 99.5086 18.975C98.9086 18.625 98.0503 18.45 96.9336 18.45H94.4836ZM94.4836 15.475H96.3836C97.5836 15.475 98.4419 15.325 98.9586 15.025C99.4753 14.7083 99.7336 14.2083 99.7336 13.525C99.7336 12.825 99.4669 12.3333 98.9336 12.05C98.4003 11.7667 97.6169 11.625 96.5836 11.625C96.2503 11.625 95.8919 11.6333 95.5086 11.65C95.1253 11.65 94.7836 11.6667 94.4836 11.7V15.475ZM110.955 26H107.23V12.85H110.955V26ZM111.305 9.05C111.305 9.73333 111.08 10.275 110.63 10.675C110.197 11.0583 109.68 11.25 109.08 11.25C108.48 11.25 107.955 11.0583 107.505 10.675C107.072 10.275 106.855 9.73333 106.855 9.05C106.855 8.36667 107.072 7.83333 107.505 7.45C107.955 7.05 108.48 6.85 109.08 6.85C109.68 6.85 110.197 7.05 110.63 7.45C111.08 7.83333 111.305 8.36667 111.305 9.05ZM119.707 26.25C118.624 26.2333 117.74 26.1167 117.057 25.9C116.39 25.6833 115.857 25.3833 115.457 25C115.074 24.6 114.807 24.125 114.657 23.575C114.524 23.0083 114.457 22.375 114.457 21.675V7.2L118.182 6.6V20.925C118.182 21.2583 118.207 21.5583 118.257 21.825C118.307 22.0917 118.399 22.3167 118.532 22.5C118.682 22.6833 118.89 22.8333 119.157 22.95C119.424 23.0667 119.782 23.1417 120.232 23.175L119.707 26.25ZM127.617 26.25C126.534 26.2333 125.651 26.1167 124.967 25.9C124.301 25.6833 123.767 25.3833 123.367 25C122.984 24.6 122.717 24.125 122.567 23.575C122.434 23.0083 122.367 22.375 122.367 21.675V7.2L126.092 6.6V20.925C126.092 21.2583 126.117 21.5583 126.167 21.825C126.217 22.0917 126.309 22.3167 126.442 22.5C126.592 22.6833 126.801 22.8333 127.067 22.95C127.334 23.0667 127.692 23.1417 128.142 23.175L127.617 26.25ZM134.002 26H130.277V12.85H134.002V26ZM134.352 9.05C134.352 9.73333 134.127 10.275 133.677 10.675C133.244 11.0583 132.727 11.25 132.127 11.25C131.527 11.25 131.002 11.0583 130.552 10.675C130.119 10.275 129.902 9.73333 129.902 9.05C129.902 8.36667 130.119 7.83333 130.552 7.45C131.002 7.05 131.527 6.85 132.127 6.85C132.727 6.85 133.244 7.05 133.677 7.45C134.127 7.83333 134.352 8.36667 134.352 9.05ZM137.504 13.3C138.137 13.1167 138.954 12.95 139.954 12.8C140.954 12.6333 142.004 12.55 143.104 12.55C144.221 12.55 145.146 12.7 145.879 13C146.629 13.2833 147.221 13.6917 147.654 14.225C148.087 14.7583 148.396 15.3917 148.579 16.125C148.762 16.8583 148.854 17.675 148.854 18.575V26H145.129V19.025C145.129 17.825 144.971 16.975 144.654 16.475C144.337 15.975 143.746 15.725 142.879 15.725C142.612 15.725 142.329 15.7417 142.029 15.775C141.729 15.7917 141.462 15.8167 141.229 15.85V26H137.504V13.3ZM155.401 19C155.401 21.0833 156.242 22.125 157.926 22.125C158.309 22.125 158.667 22.075 159.001 21.975C159.334 21.875 159.617 21.7583 159.851 21.625V15.675C159.667 15.6417 159.451 15.6167 159.201 15.6C158.951 15.5667 158.659 15.55 158.326 15.55C157.342 15.55 156.609 15.875 156.126 16.525C155.642 17.175 155.401 18 155.401 19ZM163.576 24.35C163.576 26.5 163.026 28.0917 161.926 29.125C160.842 30.175 159.159 30.7 156.876 30.7C156.076 30.7 155.276 30.625 154.476 30.475C153.676 30.3417 152.934 30.1583 152.251 29.925L152.901 26.8C153.484 27.0333 154.092 27.2167 154.726 27.35C155.376 27.4833 156.109 27.55 156.926 27.55C157.992 27.55 158.742 27.3167 159.176 26.85C159.626 26.3833 159.851 25.7833 159.851 25.05V24.575C159.451 24.7583 159.034 24.9 158.601 25C158.184 25.0833 157.726 25.125 157.226 25.125C155.409 25.125 154.017 24.5917 153.051 23.525C152.084 22.4417 151.601 20.9333 151.601 19C151.601 18.0333 151.751 17.1583 152.051 16.375C152.351 15.575 152.784 14.8917 153.351 14.325C153.934 13.7583 154.642 13.325 155.476 13.025C156.309 12.7083 157.251 12.55 158.301 12.55C158.751 12.55 159.209 12.575 159.676 12.625C160.159 12.6583 160.634 12.7083 161.101 12.775C161.567 12.8417 162.009 12.925 162.426 13.025C162.859 13.1083 163.242 13.2 163.576 13.3V24.35Z" fill="#1462FF"/>
</svg>
