<?xml version="1.0" standalone="no"?>
<!DOCTYPE svg PUBLIC "-//W3C//DTD SVG 20010904//EN"
 "http://www.w3.org/TR/2001/REC-SVG-20010904/DTD/svg10.dtd">
<svg version="1.0" xmlns="http://www.w3.org/2000/svg"
 width="200.000000pt" height="200.000000pt" viewBox="0 0 200.000000 200.000000"
 preserveAspectRatio="xMidYMid meet">

<g transform="translate(0.000000,200.000000) scale(0.100000,-0.100000)"
fill="#000000" stroke="none">
<path d="M1105 1681 c-16 -10 -96 -86 -176 -167 -153 -156 -177 -193 -164
-254 15 -70 90 -119 163 -105 31 5 65 35 208 178 145 145 173 178 178 210 9
50 -22 120 -63 141 -41 22 -109 20 -146 -3z"/>
<path d="M555 1131 c-37 -25 -65 -75 -65 -116 0 -68 66 -135 133 -135 80 0
137 59 137 143 0 40 -5 53 -33 84 -29 31 -41 37 -88 40 -42 3 -60 0 -84 -16z"/>
<path d="M1109 1127 c-38 -27 -282 -266 -317 -311 -27 -35 -30 -105 -5 -147
25 -42 93 -73 141 -64 31 6 64 34 195 163 87 87 165 169 173 184 34 64 6 151
-59 181 -48 23 -88 21 -128 -6z"/>
<path d="M1121 583 c-90 -46 -96 -191 -9 -239 13 -8 42 -13 66 -14 77 0 126
41 137 117 15 102 -101 184 -194 136z"/>
</g>
</svg>
