<?xml version="1.0" encoding="utf-8"?>
<!-- Generator: Adobe Illustrator 26.2.1, SVG Export Plug-In . SVG Version: 6.00 Build 0)  -->
<svg version="1.1" id="a" xmlns="http://www.w3.org/2000/svg" xmlns:xlink="http://www.w3.org/1999/xlink" x="0px" y="0px"
	 viewBox="0 0 1111.4 576.5" style="enable-background:new 0 0 1111.4 576.5;" xml:space="preserve">
<style type="text/css">
	.st0{fill:#0D121A;}
</style>
<g>
	<g>
		<path class="st0" d="M217.4,218.9l53.1-53.1c9.9-9.9,26-9.9,35.9,0l0,0c9.9,9.9,9.9,26,0,35.9l-53.1,53.1c-9.9,9.9-26,9.9-35.9,0
			l0,0C207.5,244.9,207.5,228.8,217.4,218.9z"/>
		<path class="st0" d="M218.4,322.1l51.5-51.5c9.9-9.9,26-9.9,35.9,0l0,0c9.9,9.9,9.9,26,0,35.9L254.3,358c-9.9,9.9-26,9.9-35.9,0
			l0,0C208.5,348.1,208.5,332.1,218.4,322.1z"/>
		
			<ellipse transform="matrix(0.7071 -0.7071 0.7071 0.7071 -149.5986 214.6238)" class="st0" cx="184.3" cy="287.9" rx="25.6" ry="25.3"/>
		
			<ellipse transform="matrix(0.7071 -0.7071 0.7071 0.7071 -192.8589 319.0583)" class="st0" cx="288.7" cy="392.3" rx="25.6" ry="25.3"/>
	</g>
	<g>
		<polygon class="st0" points="913.6,367.4 952.7,367.4 900.5,288.1 952.7,208.8 913.5,208.8 880.9,258.3 848.3,208.8 809.1,208.8 
			861.3,288.1 809.1,367.4 848.3,367.4 880.9,317.8 		"/>
		<rect x="759" y="208.9" class="st0" width="32.7" height="158.4"/>
		<rect x="541.2" y="208.9" class="st0" width="32.7" height="158.6"/>
		<path class="st0" d="M666,241.7c18.8,0,34,15.3,34,34v91.9h32.8v-91.9c0-36.9-30-66.8-66.8-66.8s-66.8,30-66.8,66.8v91.9H632
			v-91.9C632,257,647.3,241.7,666,241.7L666,241.7z"/>
		<path class="st0" d="M515.3,275.6h-68.2v-4.9c0-16.1,13-29.1,29.1-29.1h39v-32.7h-39c-34.2,0-61.9,27.7-61.9,61.8v96.7h32.7v-59.1
			h68.2V275.6L515.3,275.6z"/>
	</g>
</g>
</svg>
