<?xml version="1.0" encoding="iso-8859-1"?>
<!-- Generator: Adobe Illustrator 19.0.0, SVG Export Plug-In . SVG Version: 6.00 Build 0)  -->
<svg version="1.1" id="&#x421;&#x43B;&#x43E;&#x439;_1"
	 xmlns="http://www.w3.org/2000/svg" xmlns:xlink="http://www.w3.org/1999/xlink" x="0px" y="0px" viewBox="0 0 156.799 65.755"
	 style="enable-background:new 0 0 156.799 65.755;" xml:space="preserve">
<g id="XMLID_546_">
	<path id="XMLID_590_" style="fill:#8CC23C;" d="M60.71,0C27.149,0,0,15.903,0,35.645c0,8.363,4.911,16.04,13.233,22.209
		C9.14,52.782,6.821,47.161,6.821,41.128c0-20.427,26.603-37.016,59.345-37.016c21.146,0,39.7,6.855,50.205,17.274
		C106.958,8.774,85.539,0,60.71,0z"/>
	<path id="XMLID_587_" style="fill:#033564;" d="M55.371,45.72c2.468,0,4.455-0.52,5.961-1.56c1.746-1.15,2.619-2.819,2.619-5.009
		c0-4.05-1.325-7.8-3.974-11.249c-2.65-3.449-6.052-6.048-10.206-7.8c-2.89-1.203-6.112-1.806-9.664-1.806
		c-7.166,0-13.051,2.327-17.658,6.979c-4.606,4.653-6.909,10.264-6.909,16.832c0,6.624,2.408,12.193,7.226,16.709
		c4.817,4.516,10.838,6.774,18.064,6.774c3.853,0,7.556-0.548,11.109-1.642c4.214-1.259,7.285-3.092,9.213-5.501
		c1.084-1.314,1.626-2.628,1.626-3.941c0-3.449-1.928-5.173-5.781-5.173c-0.844,0-3.012,0.726-6.503,2.176
		c-3.493,1.451-6.473,2.176-8.942,2.176c-2.951,0-5.45-0.684-7.497-2.053c-2.048-1.368-3.222-3.338-3.522-5.912H55.371z
		 M33.694,31.31c1.746-1.45,3.913-2.176,6.503-2.176c2.529,0,4.681,0.739,6.458,2.217c1.775,1.478,2.755,3.366,2.935,5.665H30.352
		C30.834,34.664,31.947,32.761,33.694,31.31z"/>
	<path id="XMLID_585_" style="fill:#033564;" d="M72.079,58.693c4.455,4.544,10.356,6.815,17.703,6.815
		c4.395,0,8.068-0.657,11.019-1.971c4.094-1.86,6.142-4.132,6.142-6.815c0-1.587-0.528-2.942-1.581-4.064
		c-1.054-1.121-2.424-1.683-4.109-1.683c-1.145,0-2.59,0.328-4.335,0.985c-1.747,0.657-3.644,0.985-5.69,0.985
		c-3.493,0-6.202-1.094-8.129-3.284c-1.686-1.971-2.529-4.598-2.529-7.882c0-3.12,0.813-5.72,2.439-7.8
		c1.806-2.299,4.365-3.449,7.677-3.449c2.046,0,3.988,0.343,5.826,1.026c1.836,0.685,3.326,1.026,4.471,1.026
		c1.746,0,3.191-0.547,4.335-1.642c1.143-1.094,1.716-2.435,1.716-4.023c0-3.065-1.987-5.364-5.961-6.897
		c-2.951-1.094-6.413-1.642-10.387-1.642c-7.587,0-13.669,2.204-18.245,6.61c-4.577,4.407-6.864,10.087-6.864,17.038
		C65.576,48.758,67.744,54.315,72.079,58.693L72.079,58.693z"/>
	<path id="XMLID_582_" style="fill:#033564;" d="M114.168,58.776c4.697,4.653,10.688,6.979,17.974,6.979
		c7.346,0,13.336-2.299,17.974-6.897c4.455-4.488,6.684-10.099,6.684-16.832c0-6.787-2.258-12.452-6.774-16.997
		c-4.516-4.543-10.477-6.815-17.883-6.815c-7.286,0-13.232,2.286-17.838,6.856c-4.606,4.571-6.91,10.223-6.91,16.956
		C107.394,48.704,109.652,54.288,114.168,58.776L114.168,58.776z M124.735,34.307c1.746-2.353,4.214-3.531,7.406-3.531
		c3.13,0,5.569,1.205,7.316,3.613c1.565,2.081,2.348,4.598,2.348,7.554c0,3.066-0.754,5.612-2.258,7.636
		c-1.747,2.409-4.215,3.613-7.406,3.613c-3.132,0-5.57-1.203-7.316-3.613c-1.567-2.08-2.348-4.625-2.348-7.636
		C122.477,38.933,123.229,36.388,124.735,34.307L124.735,34.307z"/>
</g>
</svg>
