<?xml version="1.0" encoding="iso-8859-1"?>
<!-- Generator: Adobe Illustrator 19.0.0, SVG Export Plug-In . SVG Version: 6.00 Build 0)  -->
<svg version="1.1" id="&#x421;&#x43B;&#x43E;&#x439;_1"
	 xmlns="http://www.w3.org/2000/svg" xmlns:xlink="http://www.w3.org/1999/xlink" x="0px" y="0px" viewBox="0 0 352.277 83.326"
	 style="enable-background:new 0 0 352.277 83.326;" xml:space="preserve">
<g id="XMLID_1_">
	<path id="XMLID_544_" style="fill:#8CC23C;" d="M60.71,0C27.149,0,0,15.903,0,35.645c0,8.363,4.911,16.04,13.233,22.209
		C9.14,52.782,6.821,47.161,6.821,41.129c0-20.427,26.603-37.016,59.345-37.016c21.146,0,39.7,6.855,50.205,17.274
		C106.958,8.774,85.539,0,60.71,0z"/>
	<path id="XMLID_205_" style="fill:#033564;" d="M55.371,45.72c2.468,0,4.455-0.52,5.961-1.56c1.746-1.15,2.619-2.819,2.619-5.009
		c0-4.05-1.325-7.8-3.974-11.249c-2.65-3.449-6.052-6.048-10.206-7.8c-2.89-1.203-6.112-1.806-9.664-1.806
		c-7.166,0-13.051,2.327-17.658,6.979c-4.606,4.653-6.91,10.264-6.91,16.832c0,6.624,2.408,12.193,7.226,16.709
		c4.817,4.516,10.838,6.774,18.064,6.774c3.853,0,7.556-0.548,11.109-1.642c4.214-1.259,7.285-3.092,9.213-5.501
		c1.084-1.314,1.626-2.627,1.626-3.941c0-3.449-1.928-5.173-5.781-5.173c-0.844,0-3.012,0.726-6.503,2.176
		c-3.493,1.451-6.473,2.176-8.942,2.176c-2.951,0-5.45-0.684-7.497-2.053c-2.048-1.368-3.222-3.338-3.522-5.912H55.371z
		 M33.694,31.31c1.746-1.45,3.913-2.176,6.503-2.176c2.529,0,4.681,0.739,6.458,2.217c1.775,1.478,2.755,3.367,2.935,5.666H30.352
		C30.834,34.664,31.947,32.761,33.694,31.31z"/>
	<path id="XMLID_203_" style="fill:#033564;" d="M72.079,58.694c4.455,4.544,10.356,6.815,17.703,6.815
		c4.395,0,8.068-0.657,11.019-1.971c4.094-1.86,6.142-4.132,6.142-6.815c0-1.587-0.528-2.942-1.581-4.064
		c-1.054-1.121-2.424-1.683-4.109-1.683c-1.145,0-2.59,0.329-4.335,0.985c-1.747,0.657-3.644,0.985-5.69,0.985
		c-3.493,0-6.202-1.094-8.129-3.284c-1.687-1.971-2.529-4.598-2.529-7.882c0-3.12,0.813-5.72,2.439-7.8
		c1.806-2.299,4.365-3.449,7.677-3.449c2.046,0,3.988,0.343,5.826,1.026c1.836,0.685,3.326,1.026,4.471,1.026
		c1.746,0,3.191-0.547,4.335-1.642c1.143-1.094,1.716-2.435,1.716-4.023c0-3.065-1.987-5.364-5.961-6.897
		c-2.951-1.094-6.413-1.642-10.387-1.642c-7.587,0-13.669,2.204-18.245,6.61c-4.577,4.407-6.864,10.087-6.864,17.038
		C65.576,48.758,67.744,54.315,72.079,58.694L72.079,58.694z"/>
	<path id="XMLID_200_" style="fill:#033564;" d="M114.168,58.776c4.697,4.653,10.688,6.979,17.974,6.979
		c7.346,0,13.336-2.299,17.974-6.897c4.455-4.488,6.684-10.099,6.684-16.832c0-6.787-2.258-12.452-6.774-16.997
		c-4.516-4.543-10.477-6.815-17.883-6.815c-7.286,0-13.232,2.286-17.838,6.856c-4.606,4.571-6.91,10.223-6.91,16.956
		C107.394,48.704,109.652,54.288,114.168,58.776L114.168,58.776z M124.735,34.307c1.746-2.353,4.214-3.531,7.406-3.531
		c3.13,0,5.569,1.205,7.316,3.613c1.565,2.081,2.348,4.598,2.348,7.554c0,3.066-0.754,5.612-2.258,7.636
		c-1.747,2.409-4.215,3.613-7.406,3.613c-3.132,0-5.57-1.203-7.316-3.613c-1.566-2.08-2.348-4.625-2.348-7.636
		C122.477,38.933,123.229,36.388,124.735,34.307L124.735,34.307z"/>
	<path id="XMLID_197_" style="fill:#8CC23C;" d="M177.302,17.064h6.503c6.864,0,10.296,2.601,10.296,7.8
		c0,5.31-3.432,7.965-10.296,7.965h-6.503V17.064z M177.302,55.449V45.228h10.116c7.104,0,12.704-1.778,16.8-5.337
		c4.094-3.558,6.142-8.566,6.142-15.026c0-6.514-2.258-11.577-6.774-15.19c-4.276-3.449-10.057-5.173-17.342-5.173h-13.548
		c-3.915,0-6.624,0.711-8.129,2.132c-1.506,1.421-2.258,3.909-2.258,7.462v41.327c0,6.451,2.498,9.676,7.497,9.676
		C174.802,65.098,177.302,61.882,177.302,55.449L177.302,55.449z"/>
	<path id="XMLID_171_" style="fill:#8CC23C;" d="M228.61,34.553c1.737-2.244,4.104-3.366,7.102-3.366c3.055,0,5.422,1.123,7.1,3.366
		c1.438,1.971,2.158,4.407,2.158,7.308c0,2.902-0.72,5.365-2.158,7.39c-1.678,2.299-4.045,3.449-7.1,3.449
		c-3.057,0-5.455-1.149-7.192-3.449c-1.499-2.024-2.247-4.488-2.247-7.39C226.273,39.016,227.052,36.579,228.61,34.553
		L228.61,34.553z M252.556,65.098c4.817,0,7.226-3.234,7.226-9.706V28.658c0-6.415-2.409-9.623-7.226-9.623
		c-2.951,0-5.27,1.396-6.955,4.188c-2.951-3.174-6.864-4.762-11.742-4.762c-6.684,0-12.193,2.463-16.529,7.39
		c-4.096,4.598-6.142,9.99-6.142,16.176c0,6.131,1.956,11.468,5.871,16.011c4.275,4.927,9.694,7.39,16.258,7.39
		c5.178,0,9.272-1.669,12.284-5.009C247.046,63.538,249.364,65.098,252.556,65.098L252.556,65.098z"/>
	<path id="XMLID_169_" style="fill:#8CC23C;" d="M293.651,24.29l-8.942,21.184l-8.31-20.035c-0.903-2.244-1.716-3.749-2.439-4.516
		c-1.205-1.259-2.861-1.888-4.968-1.888c-2.048,0-3.748,0.63-5.103,1.888c-1.355,1.259-2.032,2.817-2.032,4.678
		c0,1.314,0.271,2.545,0.813,3.695l14.716,31.273l-6.015,11.896c-0.804,1.687-1.205,3.184-1.205,4.492
		c0,1.96,0.662,3.512,1.987,4.656c1.324,1.142,3.071,1.714,5.239,1.714c2.588,0,4.726-1.78,6.413-5.337l22.309-48.034
		c0.782-1.696,1.174-3.229,1.174-4.598c0-4.215-2.409-6.322-7.226-6.322C297.294,19.035,295.156,20.787,293.651,24.29L293.651,24.29
		z"/>
	<path id="XMLID_167_" style="fill:#8CC23C;" d="M343.174,52.125h-14.422l19.386-22.651c1.976-2.302,2.964-4.247,2.964-5.836
		c0-1.754-0.754-2.864-2.258-3.329c-1.506-0.466-3.824-0.699-6.955-0.699h-23.393c-6.203,0-9.303,1.999-9.303,5.994
		c0,4.052,3.071,6.076,9.213,6.076h12.554L310.91,55.245c-1.445,1.697-2.168,3.395-2.168,5.091c0,2.738,2.559,4.105,7.677,4.105
		h26.645c6.142,0,9.213-2.024,9.213-6.076C352.277,54.206,349.243,52.125,343.174,52.125L343.174,52.125z"/>
</g>
</svg>
