<svg class="svg-logo-header" data-name="header-ininal" xmlns="http://www.w3.org/2000/svg" viewBox="0 0 94.62 35.71">
            <path d="M0 34.13v1.54h28.15a1.59 1.59 0 0 0 1.64-1.54v-1.55H1.67A1.59 1.59 0 0 0 0 34.11" fill="#3cb4e5">
            </path>
            <path d="M32.91 34.13v1.54h28.25a1.59 1.59 0 0 0 1.64-1.54v-1.55H34.56a1.59 1.59 0 0 0-1.65 1.53" fill="#ffc600"></path>
            <path d="M67.54 32.62a1.59 1.59 0 0 0-1.65 1.53v1.56H93a1.59 1.59 0 0 0 1.64-1.54v-1.55z" fill="#e54360">
            </path>
            <path class="svg-logo-draw-header" d="M92.39 0h-4v29.56h6.18V2.25A2.23 2.23 0 0 0 92.39 0zM15.45 15.52a3.35 3.35 0 0 1 1.24-2.89 4.63 4.63 0 0 1 2.82-.9 4.91 4.91 0 0 1 2.87.9 3.33 3.33 0 0 1 1.27 2.89V27.2A2.34 2.34 0 0 0 26 29.54h3.85v-13c0-3.29-1.07-5.68-3.18-7.19A12.43 12.43 0 0 0 21 7.18l-.62-.06h-1a14.79 14.79 0 0 0-5.18 1.16 11.88 11.88 0 0 0-1.8 1.1 8 8 0 0 0-3 6.24v13.93h6zM48.35 15.52a3.35 3.35 0 0 1 1.24-2.89 4.63 4.63 0 0 1 2.82-.9 4.91 4.91 0 0 1 2.87.9 3.34 3.34 0 0 1 1.3 2.89V27.2a2.34 2.34 0 0 0 2.34 2.34h3.84v-13c0-3.29-1.08-5.68-3.18-7.19a12.4 12.4 0 0 0-5.73-2.17l-.62-.06h-1a14.79 14.79 0 0 0-5.13 1.16 11.88 11.88 0 0 0-1.8 1.1 8 8 0 0 0-3 6.24v13.93h6.17zM6.17 7.6H2.34A2.34 2.34 0 0 0 0 9.94v19.6h6.17zM6.17 0H2.34A2.34 2.34 0 0 0 0 2.36v2.17h6.17zM36.74 7.61h-3.89v21.94h6.23V9.94a2.33 2.33 0 0 0-2.33-2.33zM36.75 0h-3.9v4.51h6.23V2.34A2.34 2.34 0 0 0 36.75 0zM75.45 15.61c-6.14.54-10.36 2-10.49 7.26 0 4.88 4 6.92 9.85 6.92 6.59 0 10.58-3.13 10.58-9.22v-7.51C85.26 9 81.86 7 75.17 7c-5.59 0-8.75 2-9.48 6.09h6.09c.32-1 1.52-1.54 3.67-1.54 2.52 0 3.8.63 3.94 1.88s-1.33 1.92-3.94 2.21m4 2.67v2c0 3.13-2.06 5-5.45 5-1.93 0-2.93-.84-3.07-2.59S72.17 20 74.6 19.6a28.08 28.08 0 0 0 4.85-1.33">
            </path>
        </svg>