<?xml version="1.0" encoding="UTF-8"?>
<!DOCTYPE svg  PUBLIC '-//W3C//DTD SVG 1.1//EN'  'http://www.w3.org/Graphics/SVG/1.1/DTD/svg11.dtd'>
<svg enable-background="new 0 0 32.004 32.004" version="1.1" viewBox="0 0 32.004 32.004" xml:space="preserve" xmlns="http://www.w3.org/2000/svg">

	
		<path d="m9.897 24.87h2.957l0.514 1.649h1.818l-2.824-8.012h-1.93l-2.854 8.013h1.762l0.557-1.65zm1.473-4.554h0.023l0.992 3.168h-2.042l1.027-3.168zm-4.278 3.83c0-0.793-0.256-1.574-1.238-1.941 0.334-0.167 0.982-0.49 0.982-1.641 0-0.826-0.502-2.055-2.467-2.055h-3.894v8.014h3.393c1.641 0 2.076-0.279 2.533-0.728 0.423-0.411 0.691-1.016 0.691-1.649zm-5.009-4.251h1.92c0.758 0 1.227 0.2 1.227 0.858 0 0.638-0.523 0.894-1.184 0.894h-1.963v-1.752zm2.052 5.243h-2.052v-2.143h2.131c0.604 0 1.205 0.271 1.205 0.971-1e-3 0.813-0.47 1.172-1.284 1.172zm23.935-3.348 3.459 4.729h-2.154l-2.477-3.515-0.781 0.804v2.711h-1.674v-8.012h1.674v3.258l3.059-3.258h2.164l-3.27 3.283zm-20.491 9.179c0-0.766-0.184-0.892-0.521-1.04 0.406-0.137 0.635-0.524 0.635-0.979 0-0.354-0.199-1.159-1.291-1.159h-2.076v4.104h0.842v-1.605h0.885c0.635 0 0.67 0.218 0.67 0.776 0 0.422 0.033 0.636 0.09 0.828h0.949v-0.107c-0.183-0.069-0.183-0.219-0.183-0.818zm-1.409-1.369h-1.003v-1.1h1.068c0.502 0 0.6 0.318 0.6 0.537-1e-3 0.404-0.217 0.563-0.665 0.563zm2.782-18.106c-6e-3 -0.184-0.012-0.406-0.02-0.662-0.016-0.26 0.051-0.542 0.078-0.861 0.033-0.32 0.076-0.667 0.197-1.021 0.102-0.357 0.191-0.749 0.387-1.114 0.086-0.188 0.174-0.381 0.266-0.575 0.096-0.191 0.229-0.364 0.344-0.551 0.227-0.384 0.521-0.722 0.822-1.06 0.291-0.353 0.65-0.622 0.977-0.933 0.359-0.254 0.701-0.548 1.068-0.755 0.361-0.228 0.717-0.432 1.068-0.6 0.346-0.187 0.689-0.313 1.002-0.453 0.484-0.188 0.914-0.334 1.268-0.438-0.148-0.364-0.275-0.743-0.369-1.147-0.099-0.416-0.183-0.841-0.191-1.324 0.465 0.13 0.854 0.319 1.233 0.517 0.377 0.2 0.721 0.423 1.043 0.665 0.65 0.479 1.203 1.032 1.705 1.625 0.381 0.449 0.414 1.076 0.131 1.555l-0.059 0.098c-0.461 0.771-1.01 1.488-1.674 2.13-0.328 0.322-0.691 0.623-1.094 0.9-0.203 0.136-0.416 0.268-0.633 0.395-0.225 0.123-0.462 0.236-0.723 0.336-0.018-0.278-0.014-0.542 6e-3 -0.797 0.025-0.251 0.057-0.497 0.096-0.74 0.086-0.479 0.209-0.934 0.367-1.367 0.016-0.047 0.035-0.091 0.053-0.137-0.154 0.019-0.314 0.04-0.488 0.065-0.271 0.058-0.582 0.098-0.891 0.188-0.318 0.072-0.643 0.173-0.973 0.293-0.346 0.102-0.656 0.278-1.008 0.419-0.309 0.191-0.666 0.348-0.959 0.581-0.307 0.222-0.617 0.446-0.871 0.723-0.129 0.134-0.279 0.257-0.396 0.4-0.111 0.147-0.223 0.295-0.332 0.438-0.242 0.279-0.391 0.602-0.555 0.901-0.18 0.294-0.289 0.6-0.383 0.887-0.088 0.287-0.215 0.547-0.252 0.792-0.047 0.246-0.088 0.459-0.121 0.636-0.066 0.357-0.105 0.562-0.105 0.562s-3e-3 -0.208-0.014-0.571zm-8.476 16.297h3.338v0.729h-1.243v3.377h-0.855v-3.377h-1.24v-0.729zm9.008 0-1.463 4.104h0.904l0.285-0.847h1.514l0.264 0.847h0.932l-1.445-4.104h-0.991zm-0.044 2.549 0.527-1.622h8e-3l0.512 1.622h-1.047zm7.579-16.397c-0.341 0.197-0.68 0.335-0.988 0.483-0.479 0.202-0.902 0.36-1.254 0.475 0.16 0.359 0.297 0.735 0.404 1.136 0.107 0.413 0.205 0.835 0.23 1.316-0.471-0.115-0.865-0.293-1.248-0.479-0.385-0.188-0.736-0.4-1.064-0.633-0.662-0.459-1.232-0.996-1.752-1.573-0.395-0.438-0.447-1.063-0.178-1.551l0.057-0.098c0.438-0.785 0.965-1.518 1.609-2.179 0.318-0.333 0.672-0.644 1.064-0.933 0.201-0.142 0.406-0.28 0.621-0.413 0.221-0.13 0.455-0.251 0.713-0.357 0.025 0.276 0.029 0.541 0.016 0.796-0.018 0.252-0.041 0.499-0.072 0.743-0.072 0.481-0.182 0.939-0.326 1.378-0.016 0.047-0.035 0.091-0.049 0.138 0.152-0.023 0.313-0.049 0.486-0.08 0.27-0.065 0.578-0.114 0.883-0.214 0.316-0.081 0.639-0.191 0.964-0.322 0.343-0.111 0.648-0.297 0.994-0.448 0.304-0.201 0.658-0.367 0.941-0.609 0.301-0.23 0.604-0.465 0.848-0.748 0.129-0.138 0.273-0.266 0.388-0.411 0.106-0.152 0.213-0.302 0.317-0.449 0.234-0.287 0.373-0.613 0.527-0.917 0.172-0.3 0.271-0.608 0.354-0.898 0.08-0.29 0.199-0.553 0.229-0.799 0.039-0.247 0.072-0.462 0.101-0.639 0.061-0.359 0.09-0.564 0.09-0.564s0.016 0.206 0.035 0.568c0.01 0.184 0.022 0.407 0.039 0.662 0.022 0.259-0.033 0.544-0.054 0.863-0.022 0.32-0.058 0.669-0.166 1.025-0.092 0.359-0.17 0.754-0.354 1.124-0.08 0.191-0.164 0.386-0.248 0.583-0.092 0.194-0.217 0.371-0.327 0.562-0.216 0.391-0.498 0.736-0.789 1.083-0.281 0.36-0.632 0.642-0.949 0.961-0.353 0.265-0.687 0.569-1.047 0.787-0.349 0.239-0.701 0.454-1.045 0.631zm3.403 13.848h2.92v0.729h-2.062v0.926h1.806v0.726h-1.806v1.726h-0.858v-4.107zm-5.444 0h0.801v4.104h-0.859l-1.674-2.927h-0.013v2.927h-0.799v-4.104h0.902l1.631 2.857h0.01l1e-3 -2.857zm16.008 3.178c0-0.766-0.186-0.892-0.521-1.04 0.404-0.137 0.637-0.524 0.637-0.979 0-0.354-0.201-1.159-1.293-1.159h-2.074v4.104h0.842v-1.605h0.885c0.633 0 0.67 0.218 0.67 0.776 0 0.422 0.033 0.636 0.091 0.828h0.946v-0.107c-0.183-0.069-0.183-0.219-0.183-0.818zm-1.406-1.369h-1.004v-1.1h1.066c0.504 0 0.602 0.318 0.602 0.537 0 0.404-0.217 0.563-0.664 0.563zm-9.813 1.061c0 1.231-1.259 1.343-1.617 1.343-1.498 0-1.753-0.861-1.753-1.372h0.82c6e-3 0.229 0.121 0.663 0.871 0.663 0.403 0 0.856-0.1 0.856-0.529 0-0.322-0.31-0.406-0.743-0.511l-0.439-0.104c-0.664-0.152-1.303-0.303-1.303-1.207 0-0.457 0.245-1.262 1.577-1.262 1.258 0 1.594 0.822 1.6 1.325h-0.82c-0.023-0.183-0.092-0.616-0.842-0.616-0.324 0-0.715 0.119-0.715 0.49 0 0.32 0.264 0.389 0.436 0.43l0.998 0.246c0.559 0.136 1.074 0.367 1.074 1.104zm4.991 0.508h2.275v0.728h-3.115v-4.104h3.019v0.728h-2.179v0.862h2v0.726h-2v1.06zm-7.014-4.646h-1.562v-8.013h1.763l3.182 5.579h0.021v-5.579h1.562v8.014h-1.672l-3.271-5.713h-0.021l-2e-3 5.712z"/>
	
















</svg>
