<?xml version="1.0" encoding="UTF-8"?>
<!DOCTYPE svg  PUBLIC '-//W3C//DTD SVG 1.1//EN'  'http://www.w3.org/Graphics/SVG/1.1/DTD/svg11.dtd'>
<svg enable-background="new 0 0 363.1 60" version="1.1" viewBox="0 0 363.1 60" xml:space="preserve" xmlns="http://www.w3.org/2000/svg">
<path d="M8.1,39.8V60H0V0.3h7.3l0.4,4.2l4-2.7C13.5,0.6,15.6,0,18.1,0h6c7,0,10.8,3.9,10.8,10.8v22.5  c0,6.9-3.8,10.8-10.8,10.8h-6c-2.2,0-4.3-0.6-6.4-1.9L8.1,39.8z M22.5,36.9c2.8,0,4.3-1.5,4.3-4.3V11.4c0-2.8-1.5-4.3-4.3-4.3H18  c-1.5,0-3,0.4-4.5,1.4L8.1,12V32l5.4,3.5c1.5,0.9,2.9,1.4,4.5,1.4H22.5z" fill="#0006FF"/>
<path d="M65.4,41.8c-2.2,1.5-4.5,2.2-6.8,2.2h-5.1c-6.6,0-10.7-3.4-10.7-9.6V29c0-5.9,3.6-9.2,10.8-10l15-1.7v-6.4  c0-2.8-1.5-4.3-4.5-4.3H56c-3,0-4.5,1.5-4.5,4.3v2.8h-7.8v-2.4C43.7,4,47.9,0,55.5,0h9.8c7.3,0,11.4,4,11.4,11.1v32.5h-7.2L69,39.3  L65.4,41.8z M59.3,37.4c1.4,0,2.8-0.4,4.3-1.4l5.1-3.3v-9L55,25.4c-3,0.3-4.2,1.3-4.2,4v4.4c0,2.7,1.1,3.6,4,3.6H59.3z" fill="#0006FF"/>
<path d="m86.9 60v-7h5.3c1.8 0 3.1-1 4-3.2l2.2-5.1-13-28.1c-0.8-1.5-1.1-3.1-1.1-4.8v-11.5h8.1v10.6c0 1.4 0.3 2.7 0.8 4l9 20.4 8.4-20.4c0.5-1.3 0.8-2.6 0.8-4v-10.6h7.8v11.5c0 1.2-0.3 2.8-1.1 4.8l-14.3 34.1c-2.8 6.6-5 9.2-10.2 9.2h-6.7z" fill="#0006FF"/>
<path d="m138.6 44c-7.8 0-12-4.1-12-12.1v-19.8c0-7.9 4.1-12.1 12-12.1h9.7c7.6 0 11.8 4.1 11.8 12.1v2.8h-7.9v-3.4c0-3-1.5-4.5-4.5-4.5h-8.5c-3 0-4.5 1.5-4.5 4.5v20.9c0 3 1.5 4.5 4.5 4.5h8.5c3 0 4.5-1.5 4.5-4.5v-4.3h7.9v3.8c0 7.9-4.2 12.1-11.8 12.1h-9.7z" fill="#0006FF"/>
<path d="m180 44c-7.7 0-11.7-4.1-11.7-12.1v-19.8c-0.1-7.9 4-12.1 11.7-12.1h20.5c7.5 0 11.7 4.1 11.7 12.1v19.9c0 7.9-4.2 12.1-11.7 12.1h-20.5zm19.9-6.9c2.8 0 4.4-1.7 4.4-4.5v-21.2c0-3-1.4-4.5-4.4-4.5h-19.3c-3 0-4.4 1.5-4.4 4.5v21.3c0 3 1.4 4.5 4.4 4.5h19.3z" fill="#0006FF"/>
<path d="m229.8 43.6h-8.1v-43.3h7.3l0.5 5.3 4.6-3.8c1.6-1.3 3.7-1.9 6.4-1.9h6.2v7.1h-5.9c-1.6 0-3.2 0.4-4.5 1.4l-6.5 5.5v29.7z" fill="#0006FF"/>
<path d="m284.6 32.3c0 7.7-4.2 11.7-11.9 11.7h-10c-7.8 0-12-4.1-12-12.1v-19.8c0-7.9 4.1-12.1 12-12.1h10c7.7 0 11.9 4.1 11.9 12.1v12.1h-25.8v8.8c0 3 1.5 4.5 4.5 4.5h9c3 0 4.5-1.5 4.5-4.5v-3h7.9v2.3zm-25.8-14.6h18v-6.7c0-3-1.5-4.5-4.5-4.5h-9c-3 0-4.5 1.5-4.5 4.5v6.7z" fill="#0006FF"/>
<path d="M301.4,43.6V0.3h8.1v43.3H301.4z" fill="#FFD400"/>
<path d="m330.9 44c-7.7 0-11.7-4.1-11.7-12.1v-19.8c0-7.9 4.1-12.1 11.7-12.1h20.5c7.5 0 11.7 4.1 11.7 12.1v19.9c0 7.9-4.2 12.1-11.7 12.1h-20.5zm19.9-6.9c2.8 0 4.4-1.7 4.4-4.5v-21.2c0-3-1.4-4.5-4.4-4.5h-19.3c-3 0-4.4 1.5-4.4 4.5v21.3c0 3 1.4 4.5 4.4 4.5h19.3z" fill="#FFD400"/>
<rect x="186.8" y="18.6" width="6.8" height="6.8" fill="#FFD400"/>
<rect x="337.8" y="18.6" width="6.7" height="6.8" fill="#0006FF"/>
</svg>
