<?xml version="1.0" standalone="no"?>
<!DOCTYPE svg PUBLIC "-//W3C//DTD SVG 20010904//EN"
 "http://www.w3.org/TR/2001/REC-SVG-20010904/DTD/svg10.dtd">
<svg version="1.0" xmlns="http://www.w3.org/2000/svg"
 width="292.000000pt" height="292.000000pt" viewBox="0 0 292.000000 292.000000"
 preserveAspectRatio="xMidYMid meet">
<metadata>
Created by potrace 1.11, written by Peter Selinger 2001-2013
</metadata>
<g transform="translate(0.000000,292.000000) scale(0.100000,-0.100000)"
fill="#000000" stroke="none">
<path d="M830 2916 c0 -2 94 -288 209 -635 152 -460 204 -631 192 -626 -83 34
-824 296 -826 293 -4 -3 1365 -1912 1385 -1932 5 -5 -80 259 -189 587 -110
328 -196 597 -191 597 5 0 85 -28 180 -61 94 -34 173 -60 175 -58 3 3 -195
963 -220 1067 -5 22 -4 23 27 17 18 -4 80 -22 137 -41 324 -107 450 -271 361
-471 -45 -102 -106 -153 -217 -180 -72 -18 -70 -24 23 -48 120 -31 316 -11
421 44 78 40 161 142 195 239 26 73 35 212 18 294 -74 376 -558 704 -1256 852
-162 34 -424 73 -424 62z"/>
</g>
</svg>
