<?xml version="1.0" encoding="UTF-8"?>
<svg width="501.82" height="501.84" version="1.1" viewBox="5.011 4.312 202.822 202.76587" xmlns="http://www.w3.org/2000/svg" xmlns:cc="http://creativecommons.org/ns#" xmlns:dc="http://purl.org/dc/elements/1.1/" xmlns:rdf="http://www.w3.org/1999/02/22-rdf-syntax-ns#">
<metadata>
<rdf:RDF>
<cc:Work rdf:about="">
<dc:format>image/svg+xml</dc:format>
<dc:type rdf:resource="http://purl.org/dc/dcmitype/StillImage"/>
<dc:title/>
</cc:Work>
</rdf:RDF>
</metadata>
<path d="m106.07 139.81v67.298c-55.848-0.198-101.06-45.527-101.06-101.41 0-48.14 33.535-88.443 78.521-98.82v61.32a4.494 4.494 0 0 0 4.034 4.051l7e-3 0.017h11.733a4.503 4.503 0 0 1 4.503 4.506v31.535a4.495 4.495 0 0 0 -4.181 -4.489h-22.445a4.214 4.214 0 0 1 -0.416 0.021c-0.142 0-0.279-0.011-0.417-0.021-1.54-0.137-2.837-1.064-3.536-2.36-0.014-0.021-0.021-0.047-0.034-0.073a3.732 3.732 0 0 1 -0.267 -0.609 5.292 5.292 0 0 1 -0.115 -0.399c-0.024-0.099-0.043-0.193-0.069-0.296a4.634 4.634 0 0 1 -0.06 -0.691c0-0.017-7e-3 -0.027-7e-3 -0.039v-64.5c-26.613 12.661-45.012 39.775-45.012 71.204 0 39.702 29.359 72.542 67.547 78.014v-44.23h-17.613a4.184 4.184 0 0 1 -0.832 0 4.506 4.506 0 0 1 -4.09 -4.471v-31.587a4.507 4.507 0 0 0 4.506 4.511h22.54a4.5 4.5 0 0 1 4.502 4.502v27.016h2.258zm0-135.53a104.45 104.45 0 0 0 -11.27 0.67v57.612c0 2.85 2.335 5.18 5.185 5.18h6.086v-63.462zm0 202.83v-67.298h2.249v-27.016a4.505 4.505 0 0 1 4.506 -4.502h22.544a4.504 4.504 0 0 0 4.502 -4.511v31.588a4.5 4.5 0 0 1 -4.913 4.473h-17.622v44.23c38.191-5.473 67.547-38.312 67.547-78.015 0-31.428-18.398-58.543-45.012-71.203v64.499c0 0.014-3e-3 0.021-3e-3 0.039a3.967 3.967 0 0 1 -0.068 0.691 6.18 6.18 0 0 1 -0.061 0.296 5.647 5.647 0 0 1 -0.115 0.399 4.45 4.45 0 0 1 -0.267 0.609c-0.017 0.024-0.023 0.051-0.034 0.073-0.704 1.296-2 2.224-3.541 2.361a3.93 3.93 0 0 1 -0.823 0h-22.45a4.501 4.501 0 0 0 -4.188 4.489v-31.536a4.505 4.505 0 0 1 4.506 -4.506h11.738l7e-3 -0.017a4.505 4.505 0 0 0 4.034 -4.051v-61.475c45.337 10.115 79.229 50.586 79.229 98.975 0 56.006-45.397 101.41-101.41 101.41zm8.871-202.47a103.36 103.36 0 0 0 -8.515 -0.361h-0.356v63.461h6.086c2.85 0 5.18-2.331 5.18-5.18v-57.693c-0.798-0.081-1.597-0.158-2.395-0.227" fill="#009882"/>
</svg>
