<svg xmlns="http://www.w3.org/2000/svg" width="2500" height="502" viewBox="5.011 4.312 1010.434 202.83"><path d="M269.607 188.323h-4.996l-1.558 4.776c-.223.652-.279 1.185-.176 1.592.095.426.301.73.605.936.3.211.609.336.923.391.309.057.588.086.832.086h.468c.168 0 .335.078.502.228.159.159.232.317.224.489-.034.271-.167.438-.399.511-.235.069-.579.107-1.021.107h-8.644c-.592 0-.986-.048-1.188-.116-.206-.082-.309-.262-.309-.541 0-.283.094-.455.27-.519.186-.069.425-.116.73-.159l.497-.064c.193-.018.516-.111.944-.295a4.578 4.578 0 0 0 1.064-.623c.288-.232.575-.52.846-.858s.498-.669.699-.991c.188-.322.339-.618.451-.893l9.235-23.609v7.58l-.129-.309-4.167 10.415h4.296v1.866h.001zm45.367-20.063v7.647c0 .442-.021.747-.068.901-.048.158-.12.312-.224.451-.103.128-.262.209-.476.24-.215.027-.408-.053-.575-.232a1.358 1.358 0 0 1-.31-.656l-.142-.64c-.106-.442-.309-.944-.604-1.485a7.47 7.47 0 0 0-1.176-1.588 10.683 10.683 0 0 0-1.777-1.472c-.683-.464-1.506-.871-2.455-1.228-.943-.348-1.875-.52-2.789-.502-1.061.023-2.082.322-3.077.879-.996.555-1.79 1.365-2.378 2.43s-1.025 2.115-1.313 3.163a18.329 18.329 0 0 0-.57 2.828 23.207 23.207 0 0 0-.12 2.94c0 .66.017 1.558.047 2.678.034 1.115.095 2.09.197 2.905.107.815.288 1.733.559 2.738.278 1.013.652 1.823 1.128 2.446.485.617 1.249 1.124 2.292 1.527a8.718 8.718 0 0 0 3.305.588c1.407 0 2.554-.262 3.421-.768.875-.502 1.502-1.133 1.893-1.871a5.11 5.11 0 0 0 .579-2.378v-1.056c0-.312-.095-.734-.292-1.271-.193-.532-.425-.94-.678-1.206a2.877 2.877 0 0 0-.923-.644 5.54 5.54 0 0 0-.785-.31l-.794-.141c-.215-.031-.383-.095-.485-.202-.116-.112-.158-.253-.146-.434 0-.24.09-.421.274-.545.172-.112.382-.181.609-.181h12.188c.262 0 .493.043.699.129.202.082.335.249.391.502.064.244.018.426-.138.533-.154.115-.291.184-.416.197l-.463.076c-.254.061-.511.197-.773.408a3.36 3.36 0 0 0-.644.661c-.159.24-.3.593-.429 1.081-.129.48-.189.82-.206.982l-.867 7.992c-.047.395-.15.69-.326.879-.167.186-.421.301-.764.34-.344.033-.661-.095-.962-.391-.09-.086-.214-.275-.368-.566a11.471 11.471 0 0 0-.571-.91 5.648 5.648 0 0 0-.713-.863c-.248-.244-.502-.377-.759-.402-.254-.021-.571.094-.962.355l-1.193.863c-.57.402-1.484.846-2.742 1.309-1.262.468-2.854.687-4.776.652a14.58 14.58 0 0 1-5.24-1.004 11.083 11.083 0 0 1-4.326-2.982c-1.185-1.344-2.013-2.67-2.463-3.979-.464-1.314-.734-2.566-.829-3.773a40.4 40.4 0 0 1-.141-3.291c0-1.057.068-2.116.197-3.185a14.23 14.23 0 0 1 .726-3.064 13.62 13.62 0 0 1 1.248-2.652 13.721 13.721 0 0 1 1.627-2.185 12.257 12.257 0 0 1 1.854-1.703 13.038 13.038 0 0 1 2.177-1.301 13.764 13.764 0 0 1 2.768-.987c1.025-.253 2.245-.395 3.661-.421.889 0 1.669.052 2.343.159.679.103 1.369.288 2.082.55.717.257 1.407.583 2.086.974.674.386 1.214.631 1.622.712.395.095.721.061.979-.111.133-.104.253-.279.348-.527.09-.254.167-.528.214-.816.061-.287.155-.519.271-.703a.7.7 0 0 1 .55-.279.807.807 0 0 1 .597.189c.086.115.167.273.223.488.044.216.074.379.073.513m21.902-1.229v1.815a7.792 7.792 0 0 0-.777-.038l-1.558.02c-.794.014-1.36.121-1.695.318-.335.201-.55.438-.635.721-.095.283-.143.777-.143 1.502v9.305h2.331c.746 0 1.493-.052 2.249-.158l.228-.039v2.168l-.146-.039c-.558-.138-1.378-.201-2.455-.201h-2.205v9.827c0 .386.06.841.18 1.399.129.549.317.982.588 1.309.262.322.605.588 1.034.789.43.193.756.301.996.314l.506.038c.202.024.391.107.559.22a.624.624 0 0 1 .271.515c.007.214-.064.378-.206.485-.15.106-.344.149-.575.137l-13.506-.027a.97.97 0 0 1-.597-.18c-.158-.112-.224-.31-.176-.576a.685.685 0 0 1 .253-.395.906.906 0 0 1 .446-.18l.442-.039c.154-.014.455-.107.901-.275.438-.172.794-.359 1.064-.562.278-.198.502-.636.678-1.292.185-.656.271-1.193.271-1.613v-19.771a11.47 11.47 0 0 0-.154-1.297 3.611 3.611 0 0 0-.545-1.43c-.279-.428-.588-.746-.932-.952a2.558 2.558 0 0 0-1.025-.382l-.7-.068c-.12 0-.271-.068-.429-.215-.167-.15-.215-.344-.15-.584a.63.63 0 0 1 .279-.412c.158-.106.348-.158.579-.158h14.755v.001zm-62.441 21.291h-4.828v-1.867h4.296l-4.296-10.106v-7.579l.034-.094c.22-.576.43-1.031.64-1.369.215-.34.516-.52.923-.541.403-.021.708.094.905.352.206.254.46.699.772 1.352l10.923 23.91c.099.214.335.613.726 1.205.386.597.69 1.03.918 1.313s.515.532.862.751c.353.215.666.344.944.391l.391.064c.193.043.356.107.516.185a.524.524 0 0 1 .271.382c.023.176-.048.339-.198.516a.769.769 0 0 1-.588.252h-13.437c-.455 0-.772-.047-.953-.115-.185-.082-.262-.274-.231-.584a.554.554 0 0 1 .262-.45c.167-.095.373-.159.618-.185l.772-.064a3.45 3.45 0 0 0 .905-.201c.344-.116.613-.348.815-.688a1.94 1.94 0 0 0 .262-1.149c-.034-.429-.09-.751-.167-.962l-2.057-4.719zm227.731.108c-.018 1.154.034 2.082.163 2.772.12.687.421 1.348.893 1.979.477.622 1.214 1.128 2.219 1.507 1 .381 2.064.583 3.202.613.9.043 1.798-.031 2.694-.223.91-.189 1.808-.546 2.704-1.069.905-.519 1.566-1.106 1.996-1.737.434-.645.717-1.374.875-2.182.15-.807.232-1.631.232-2.459V171.92a7.682 7.682 0 0 0-.186-1.344c-.111-.48-.3-.854-.562-1.133-.267-.283-.614-.506-1.06-.678-.447-.168-.777-.271-1.014-.297l-.862-.068c-.124 0-.271-.064-.446-.193-.168-.137-.228-.334-.181-.584.031-.223.133-.373.301-.455.176-.081.438-.115.794-.115h8.737c.215 0 .408.061.575.168a.68.68 0 0 1 .279.497c.021.224-.043.382-.176.498a.77.77 0 0 1-.447.185l-.699.068c-.36.043-.738.172-1.137.387-.404.227-.73.494-.971.811-.235.318-.438.73-.596 1.25-.15.51-.224.957-.207 1.338v15.377c0 .627-.017 1.305-.055 2.014-.039.717-.224 1.455-.55 2.244a7.247 7.247 0 0 1-1.399 2.143 9.101 9.101 0 0 1-2.154 1.682c-.837.477-1.687.824-2.574 1.061-.885.23-1.799.398-2.734.493-.939.099-1.807.146-2.601.146-.733 0-1.601-.043-2.618-.124s-2.193-.306-3.523-.647c-1.326-.361-2.425-.949-3.283-1.773s-1.425-1.484-1.678-1.982c-.254-.506-.43-.939-.507-1.312-.091-.379-.167-.812-.24-1.314s-.095-.974-.081-1.424v-16.305c0-.523-.048-1.047-.143-1.566-.086-.52-.348-.971-.776-1.36a3.786 3.786 0 0 0-1.36-.824c-.485-.167-.876-.267-1.193-.31l-.691-.068a.794.794 0 0 1-.472-.172c-.159-.119-.228-.291-.228-.531 0-.232.078-.399.236-.507.168-.106.373-.159.622-.159l14.69.021c.258.014.446.064.588.158.138.095.219.25.228.459.007.229-.052.4-.168.537-.12.129-.249.193-.382.193l-.699.068c-.36.043-.764.15-1.228.313a3.196 3.196 0 0 0-1.224.85 3.208 3.208 0 0 0-.733 1.331 5.436 5.436 0 0 0-.192 1.416v16.047h.002zm-40.437-21.377h27.789v9.283c0 .382-.052.674-.142.884s-.271.348-.541.407c-.271.057-.489-.01-.645-.18a1.533 1.533 0 0 1-.33-.631l-.227-.846c-.121-.391-.344-.943-.657-1.66a16.18 16.18 0 0 0-1.106-2.111 7.275 7.275 0 0 0-1.722-1.867c-.717-.55-1.416-.949-2.111-1.193-.704-.254-1.245-.373-1.631-.373l-1.116.017v23.18c0 .519.064 1.03.197 1.532.138.498.399.932.799 1.309.391.378.923.67 1.579.906.661.219 1.193.334 1.593.334l.613.018c.15.014.326.068.506.172.186.098.288.266.297.498a.59.59 0 0 1-.271.535c-.185.125-.36.186-.511.172l-16.536-.023c-.257 0-.464-.047-.635-.154-.167-.107-.24-.279-.211-.52 0-.18.082-.326.232-.438.159-.1.309-.172.468-.197l.631-.061c.244-.014.545-.064.896-.15.348-.086.756-.211 1.211-.382a3.15 3.15 0 0 0 1.188-.759c.335-.34.583-.799.759-1.383.164-.588.263-1.107.279-1.558v-23.029l-1.051-.017c-.361 0-.799.076-1.313.227-.523.163-1.12.421-1.807.772-.683.36-1.231.747-1.644 1.15-.416.396-.837.952-1.271 1.669-.434.709-.751 1.283-.953 1.722l-.789 1.944-.241.566c-.119.312-.227.527-.334.635-.104.115-.254.168-.451.154-.262 0-.463-.129-.596-.391a1.898 1.898 0 0 1-.198-.879V167.053zm-1.776 30.385h-27.395c-.262.014-.477-.039-.644-.15-.159-.111-.214-.309-.15-.617a.62.62 0 0 1 .254-.391c.142-.086.296-.15.446-.176l.441-.061c.172-.014.438-.107.812-.283a4.847 4.847 0 0 0 1.099-.669c.36-.278.613-.665.756-1.134.154-.467.231-1.017.248-1.635v-19.746c0-.262-.047-.717-.146-1.364-.086-.657-.245-1.134-.477-1.425-.224-.287-.562-.575-1.034-.867-.468-.283-.803-.438-1-.451l-.652-.043c-.159 0-.317-.064-.477-.197-.167-.137-.223-.309-.176-.531a.777.777 0 0 1 .301-.485c.163-.106.352-.159.584-.159l13.42.021c.231.014.412.068.532.167.128.099.192.245.202.429a.737.737 0 0 1-.164.503.6.6 0 0 1-.438.228l-.627.068a2.94 2.94 0 0 0-1.128.382c-.365.206-.691.511-.983.909a3.38 3.38 0 0 0-.596 1.318 6.422 6.422 0 0 0-.155 1.344v20.535c-.014.516-.014.88 0 1.086.018.206.112.438.296.687.177.253.412.464.709.622.291.168.644.244 1.047.244h4.708c.309 0 .78-.03 1.416-.094a8.877 8.877 0 0 0 1.948-.434c.661-.228 1.36-.627 2.099-1.197.729-.57 1.331-1.111 1.781-1.627a14.25 14.25 0 0 0 1.288-1.742c.416-.652.721-1.211.922-1.691l.326-.807c.142-.369.262-.631.356-.793.103-.159.296-.232.566-.211s.442.115.523.275c.069.166.086.527.052 1.09l-.89 9.072zm-50.41-9.008c-.015 1.154.042 2.082.171 2.772.116.687.421 1.348.889 1.979.477.622 1.219 1.128 2.219 1.507a9.668 9.668 0 0 0 3.206.613 10.47 10.47 0 0 0 2.695-.223c.905-.189 1.807-.545 2.703-1.069.906-.519 1.566-1.106 1.992-1.737a5.958 5.958 0 0 0 .875-2.182c.154-.807.232-1.631.232-2.459V171.92a7.753 7.753 0 0 0-.181-1.344c-.111-.48-.305-.854-.566-1.133-.263-.283-.614-.506-1.056-.678-.446-.168-.781-.271-1.014-.297l-.866-.068c-.129 0-.271-.064-.442-.193-.167-.137-.231-.334-.185-.584.031-.223.138-.373.305-.455.176-.081.438-.115.794-.115h8.738c.215 0 .403.061.575.168a.675.675 0 0 1 .274.498c.023.223-.039.381-.176.497a.746.746 0 0 1-.446.185l-.7.068a3.213 3.213 0 0 0-1.133.387c-.407.227-.733.494-.97.811-.24.318-.438.73-.597 1.25-.154.51-.223.957-.205 1.338v15.377c0 .627-.018 1.305-.061 2.014-.039.717-.224 1.455-.545 2.244a7.28 7.28 0 0 1-1.403 2.143 9.027 9.027 0 0 1-2.155 1.682c-.832.477-1.682.824-2.574 1.061a17.94 17.94 0 0 1-2.734.493c-.939.099-1.807.146-2.601.146-.729 0-1.597-.043-2.618-.124-1.017-.081-2.192-.305-3.523-.647-1.326-.361-2.42-.949-3.283-1.773-.854-.824-1.42-1.484-1.674-1.982-.257-.506-.429-.939-.511-1.312a16.978 16.978 0 0 1-.24-1.314 8.268 8.268 0 0 1-.077-1.424v-16.305c0-.523-.047-1.047-.142-1.566-.091-.52-.352-.971-.781-1.36a3.753 3.753 0 0 0-1.36-.824c-.485-.167-.871-.267-1.193-.31l-.69-.068a.777.777 0 0 1-.468-.172c-.159-.119-.232-.291-.232-.531 0-.232.082-.399.24-.507.168-.106.374-.159.618-.159l14.695.021c.253.014.446.064.588.158.137.095.215.25.223.459.007.229-.047.4-.167.537-.12.129-.249.193-.382.193l-.699.068c-.356.043-.765.15-1.224.313a3.155 3.155 0 0 0-1.223.85 3.144 3.144 0 0 0-.734 1.331 5.463 5.463 0 0 0-.201 1.416v16.047zm-13.575-20.171l.399 7.647c.017.314-.007.602-.064.854-.047.249-.124.433-.231.536-.104.104-.267.172-.507.202-.244.027-.429-.039-.549-.202-.129-.158-.232-.391-.301-.687l-.167-.571c-.15-.493-.43-1.111-.812-1.85a9.249 9.249 0 0 0-1.287-1.889 8.408 8.408 0 0 0-1.614-1.402c-.613-.404-1.343-.764-2.197-1.073-.841-.313-1.812-.477-2.893-.493-1.185-.014-2.202.18-3.068.57-.858.399-1.554.923-2.086 1.58a8.81 8.81 0 0 0-1.262 2.145 18.438 18.438 0 0 0-.828 2.593 17.65 17.65 0 0 0-.477 2.712c-.09.867-.129 1.863-.111 3.005 0 .79.017 1.678.047 2.669.031.982.111 1.928.249 2.828.133.902.356 1.79.674 2.656a8.106 8.106 0 0 0 1.305 2.318 7.602 7.602 0 0 0 2.034 1.717c.812.477 1.575.793 2.283.953.713.162 1.523.201 2.425.115.932-.077 1.751-.274 2.455-.579.708-.3 1.378-.7 2-1.185a13.18 13.18 0 0 0 1.785-1.721 16.261 16.261 0 0 0 1.455-1.914c.398-.613.755-1.004 1.064-1.164.313-.167.566-.18.78-.038.206.124.326.353.353.661.021.309-.099.713-.365 1.205-.48.885-.944 1.652-1.369 2.283-.438.631-1.06 1.34-1.854 2.117-.803.771-1.631 1.359-2.498 1.754-.858.391-1.828.684-2.901.854a17.612 17.612 0 0 1-3.115.245c-1.219 0-2.442-.125-3.699-.369a14.4 14.4 0 0 1-3.489-1.154c-1.082-.52-2.125-1.301-3.125-2.322-1-1.034-1.755-2.034-2.283-3.004a13.785 13.785 0 0 1-1.15-2.889 18.904 18.904 0 0 1-.511-2.771 24.9 24.9 0 0 1-.146-2.588c0-.829.081-1.867.24-3.091.154-1.219.382-2.283.687-3.167.301-.889.704-1.76 1.224-2.609a14.838 14.838 0 0 1 1.549-2.185c.516-.601 1.146-1.154 1.871-1.674a16.159 16.159 0 0 1 2.296-1.378c.803-.395 1.67-.707 2.623-.939.948-.232 2.029-.382 3.235-.434 1.043-.027 1.975.014 2.794.137.824.116 1.635.318 2.425.593a13.72 13.72 0 0 1 2.099.91c.605.33 1.082.528 1.421.593.335.063.647 0 .909-.182a.917.917 0 0 0 .348-.467c.073-.211.142-.451.211-.717.06-.266.159-.489.274-.666a.652.652 0 0 1 .55-.278.823.823 0 0 1 .597.202c.094.115.158.274.206.477.045.203.075.379.092.521m-31.03 23.995c.035.58.091 1.095.177 1.537.086.441.287.841.597 1.188.309.34.699.594 1.176.77.472.172.875.27 1.219.295l.635.061c.215.023.374.068.477.115.095.053.159.22.185.494.027.283-.043.48-.185.574-.15.1-.365.15-.644.15h-14.283c-.244 0-.45-.051-.618-.158-.158-.107-.214-.309-.15-.609a.623.623 0 0 1 .254-.391c.146-.086.296-.15.446-.176l.506-.061c.258-.023.584-.124.996-.291a3.238 3.238 0 0 0 1.107-.699c.321-.301.579-.76.755-1.383a6.768 6.768 0 0 0 .292-1.648v-19.445c0-.369-.039-.841-.115-1.402a2.709 2.709 0 0 0-.609-1.43 3.29 3.29 0 0 0-1.206-.889c-.485-.201-.88-.33-1.193-.387l-.464-.068a.777.777 0 0 1-.45-.185c-.15-.116-.197-.278-.15-.507.047-.223.142-.391.301-.497a.993.993 0 0 1 .579-.159l13.857.021c.24.014.434.076.575.188.15.116.215.278.202.511a.768.768 0 0 1-.249.434.724.724 0 0 1-.455.193l-.554.068a3.046 3.046 0 0 0-1.176.45 3.892 3.892 0 0 0-1.03.931 3.941 3.941 0 0 0-.618 1.186 5.04 5.04 0 0 0-.185 1.386v19.833h-.002zm-28.062-9.609v-2.167a6.85 6.85 0 0 0 2.004-.712 4.944 4.944 0 0 0 1.785-1.597c.45-.669.742-1.421.88-2.253a10.2 10.2 0 0 0 .095-2.623c-.112-1.017-.326-1.781-.652-2.287a4.205 4.205 0 0 0-1.271-1.266 5.072 5.072 0 0 0-1.781-.717 11.632 11.632 0 0 0-1.06-.176v-1.816h3.832c.751.015 1.498.057 2.253.129.747.064 1.536.293 2.352.652.812.369 1.498.79 2.035 1.283.545.48 1.021 1.146 1.433 1.983.412.841.661 1.837.729 3 .082 1.149-.188 2.257-.811 3.317a6.013 6.013 0 0 1-1.747 1.85c-.699.463-1.511.88-2.434 1.211-.922.338-1.69.578-2.321.699l-2.231.523c.682.115 1.266.228 1.755.334.494.104 1.047.289 1.67.55a4.358 4.358 0 0 1 1.596 1.134c.438.488.756 1.055.94 1.686.193.641.301 1.52.348 2.635.047 1.117.072 2.048.081 2.803.007.752.168 1.262.468 1.55.305.292.683.429 1.154.412.245 0 .541-.077.88-.253.344-.168.652-.49.928-.957.266-.473.506-.979.721-1.507.206-.524.352-.872.421-1.021.063-.159.21-.31.411-.468a.895.895 0 0 1 .695-.168c.245.043.43.236.554.584.129.34.112.811-.047 1.398-.245.902-.485 1.73-.708 2.46a7.769 7.769 0 0 1-.975 2.068 5.776 5.776 0 0 1-1.528 1.583 5.804 5.804 0 0 1-1.927.885 8.128 8.128 0 0 1-2.262.215c-1.072-.014-2.004-.193-2.794-.545-.776-.356-1.382-.885-1.807-1.597-.412-.717-.69-1.399-.824-2.064-.124-.657-.206-1.523-.24-2.575l-.068-2.158c-.034-.648-.073-1.378-.12-2.207-.048-.811-.159-1.476-.352-1.979a2.74 2.74 0 0 0-.824-1.214 3.295 3.295 0 0 0-1.236-.617m203.189-15.614v1.816a7.797 7.797 0 0 0-.776-.039l-1.559.02c-.794.014-1.36.121-1.69.318-.339.201-.55.438-.64.721-.095.283-.142.777-.142 1.502v9.305h2.331c.746 0 1.493-.051 2.248-.158l.228-.039v2.168l-.146-.039c-.559-.137-1.378-.201-2.451-.201h-2.21v9.828c0 .386.064.84.181 1.398.129.549.321.982.592 1.309.262.322.601.588 1.03.79.429.192.759.3.995.313l.511.039c.198.027.387.106.554.219a.624.624 0 0 1 .271.515c.007.214-.06.378-.206.485-.15.107-.339.15-.57.137l-13.511-.023a.972.972 0 0 1-.597-.181c-.158-.112-.223-.31-.171-.575a.644.644 0 0 1 .253-.395.876.876 0 0 1 .442-.18l.446-.039c.15-.014.455-.107.901-.275.433-.172.794-.36 1.063-.562.279-.197.498-.635.674-1.291.186-.656.271-1.193.271-1.613V172.53a12.28 12.28 0 0 0-.149-1.296 3.597 3.597 0 0 0-.55-1.43c-.279-.429-.588-.746-.931-.953a2.597 2.597 0 0 0-1.026-.381l-.699-.068c-.116 0-.271-.069-.425-.215-.172-.15-.219-.344-.154-.584a.656.656 0 0 1 .278-.412c.159-.107.348-.158.579-.158h14.756l-.001-.002zm0 15.614v-2.167a6.8 6.8 0 0 0 2.004-.712 4.885 4.885 0 0 0 1.781-1.598c.455-.669.751-1.42.884-2.252a9.981 9.981 0 0 0 .095-2.623c-.107-1.018-.321-1.781-.647-2.287a4.297 4.297 0 0 0-1.271-1.266 5.084 5.084 0 0 0-1.785-.717 11.14 11.14 0 0 0-1.06-.176v-1.816h3.837c.746.014 1.493.057 2.253.129.742.064 1.532.293 2.348.652.815.369 1.497.79 2.038 1.283.541.48 1.018 1.146 1.43 1.982.416.842.66 1.838.733 3 .077 1.15-.193 2.258-.815 3.318a6.033 6.033 0 0 1-1.746 1.85c-.7.463-1.507.879-2.434 1.21-.923.339-1.695.579-2.322.7l-2.236.523c.683.115 1.275.227 1.76.334a9.234 9.234 0 0 1 1.67.55 4.373 4.373 0 0 1 1.601 1.133 4.34 4.34 0 0 1 .94 1.687c.188.64.296 1.52.348 2.635.047 1.116.072 2.048.081 2.803.003.752.163 1.262.468 1.55.301.292.682.429 1.15.411.244 0 .541-.076.884-.252.343-.168.652-.49.919-.958.274-.472.515-.979.725-1.507.206-.523.348-.871.421-1.021.063-.158.21-.309.416-.467a.876.876 0 0 1 .69-.168c.245.043.43.236.559.584.125.339.111.811-.047 1.398a95.15 95.15 0 0 1-.708 2.459 7.784 7.784 0 0 1-.983 2.069 5.82 5.82 0 0 1-3.446 2.468 8.178 8.178 0 0 1-2.271.215c-1.072-.014-2-.193-2.785-.545-.785-.357-1.386-.885-1.807-1.598-.416-.717-.69-1.398-.824-2.064-.133-.656-.21-1.523-.24-2.574l-.072-2.158c-.031-.648-.069-1.379-.121-2.207-.047-.811-.158-1.477-.352-1.979a2.723 2.723 0 0 0-.824-1.214 3.309 3.309 0 0 0-1.239-.617m31.312-13.875v7.579l-.129-.31-4.167 10.416h4.296v1.867h-4.995l-1.558 4.777c-.224.652-.279 1.184-.177 1.592.099.425.301.729.605.936.3.211.609.334.923.391.309.056.588.086.836.086h.464c.168 0 .335.077.503.227.162.159.231.318.223.49-.034.27-.167.438-.399.51-.235.069-.575.107-1.021.107h-8.647c-.584 0-.982-.047-1.185-.115-.206-.082-.305-.262-.305-.541 0-.283.095-.455.266-.52.185-.068.425-.115.734-.158l.489-.064c.201-.018.523-.111.948-.297.425-.18.781-.391 1.064-.621a5.58 5.58 0 0 0 .85-.859c.267-.338.498-.669.699-.99.188-.322.339-.619.446-.893l9.237-23.61zm47.886 28.668H591.87c-.267.014-.477-.038-.648-.149-.154-.112-.21-.31-.15-.618a.628.628 0 0 1 .258-.391c.142-.086.292-.15.442-.176l.445-.061c.168-.014.438-.106.812-.283a4.913 4.913 0 0 0 1.095-.669c.36-.278.618-.665.76-1.133.15-.468.232-1.017.249-1.636v-19.746c0-.262-.047-.717-.149-1.364-.082-.657-.24-1.134-.473-1.425-.223-.287-.566-.575-1.034-.867-.472-.283-.807-.438-1.004-.451l-.648-.043c-.163 0-.317-.064-.477-.197-.167-.137-.223-.309-.176-.531a.78.78 0 0 1 .3-.485c.159-.106.353-.159.58-.159l13.424.021c.228.014.412.068.533.168a.553.553 0 0 1 .201.429.77.77 0 0 1-.158.502.629.629 0 0 1-.442.228l-.622.068a2.908 2.908 0 0 0-1.133.382c-.365.206-.691.511-.987.91s-.493.837-.597 1.317c-.104.484-.15.932-.15 1.344v20.535c-.014.516-.014.88 0 1.086s.111.438.297.687c.171.253.412.464.707.622.288.168.641.244 1.048.244h4.708c.309 0 .776-.03 1.412-.094a8.851 8.851 0 0 0 1.948-.434c.661-.228 1.36-.627 2.103-1.197.73-.57 1.326-1.111 1.777-1.627a14.58 14.58 0 0 0 1.291-1.742c.412-.652.722-1.21.919-1.691l.326-.807c.146-.369.267-.631.36-.793.104-.159.292-.232.562-.211.27.021.446.116.527.275.073.167.086.527.047 1.09l-.89 9.072zm-47.886-9.116v-1.867h4.301l-4.301-10.106v-7.579l.039-.094a8.093 8.093 0 0 1 .635-1.369c.215-.34.52-.52.927-.541.399-.021.704.094.901.352.206.254.464.699.772 1.352l10.923 23.91c.099.214.334.613.725 1.205.391.597.691 1.03.923 1.313.224.283.511.532.858.751.352.215.665.344.948.391l.391.064c.188.043.356.107.515.184.15.092.245.215.267.383.031.176-.047.339-.197.516a.768.768 0 0 1-.584.252h-13.437c-.46 0-.777-.047-.957-.115-.186-.082-.263-.274-.232-.584a.568.568 0 0 1 .266-.45c.168-.095.374-.159.619-.185l.771-.064a3.5 3.5 0 0 0 .906-.201c.343-.116.613-.348.807-.688.211-.338.296-.725.266-1.149-.034-.429-.086-.751-.167-.962l-2.056-4.717h-4.829v-.002zm85.344-21.269v1.979a6.997 6.997 0 0 0-.833-.051h-2.197a4.25 4.25 0 0 0-.974.128c-.36.082-.61.198-.756.335-.15.142-.274.369-.36.67-.094.305-.142.686-.142 1.146v9.665h3.099c.571 0 1.271-.1 2.107-.297l.056-.014v2.305a14.518 14.518 0 0 0-2.025-.133h-3.236v10.905c0 .52.048.905.142 1.134.086.227.274.407.558.527.274.12.738.18 1.374.18h2.814c.129 0 .254 0 .374-.003v1.909h-15.656a1.072 1.072 0 0 1-.652-.158c-.185-.12-.244-.317-.185-.601a.5.5 0 0 1 .283-.378c.15-.068.395-.141.721-.197a9.659 9.659 0 0 0 1.025-.24 3.588 3.588 0 0 0 1.107-.592c.383-.288.657-.657.833-1.091.181-.438.271-1.038.271-1.798v-20.398c0-.455-.064-.896-.18-1.322a3.274 3.274 0 0 0-.55-1.09 2.796 2.796 0 0 0-.948-.729 3.524 3.524 0 0 0-1.159-.353c-.391-.043-.678-.115-.854-.227-.18-.1-.244-.279-.197-.523.047-.25.146-.421.301-.528.154-.106.352-.159.584-.159h15.255v-.001zm0 30.385v-1.909a8.902 8.902 0 0 0 1.901-.267c.691-.172 1.309-.527 1.858-1.051.558-.528.914-1.104 1.099-1.73a9.925 9.925 0 0 0 .334-2.115c.048-.781.073-1.395.073-1.828a7.437 7.437 0 0 0-.48-2.391 4.19 4.19 0 0 0-1.374-1.857c-.626-.494-1.377-.867-2.24-1.121a8.879 8.879 0 0 0-1.171-.248v-2.305a7.265 7.265 0 0 0 2.253-.975 4.958 4.958 0 0 0 1.674-1.777c.416-.725.622-1.66.64-2.793.017-1.143-.091-2.078-.331-2.828-.326-.945-.768-1.636-1.334-2.078a5.198 5.198 0 0 0-1.828-.918c-.36-.1-.721-.168-1.072-.215v-1.979h1.305c1.137.014 2.205.073 3.205.168 1 .098 1.889.27 2.661.52a7.64 7.64 0 0 1 2.154 1.09 6.323 6.323 0 0 1 1.601 1.652c.403.617.695 1.377.897 2.279a6.519 6.519 0 0 1-.039 2.818c-.202.828-.502 1.512-.909 2.061a6.737 6.737 0 0 1-1.498 1.477c-.597.446-1.416.862-2.446 1.266-1.03.404-1.833.635-2.416.704l-2.91.493c1.417.154 2.597.31 3.541.477.952.158 1.909.43 2.875.803.97.373 1.772.824 2.403 1.344.627.523 1.168 1.24 1.623 2.15.441.909.682 1.947.707 3.102.024 1.155-.248 2.297-.807 3.408a7.047 7.047 0 0 1-1.429 1.896c-.593.571-1.407 1.086-2.434 1.533a12.174 12.174 0 0 1-3.052.914c-1.008.15-2.038.23-3.077.23h-1.957zm28.433-28.668v7.579l-.129-.31-4.172 10.416h4.301v1.867h-4.996L678.6 193.1c-.224.652-.283 1.184-.176 1.592.095.425.3.729.601.936.305.211.613.334.923.391.313.056.592.086.837.086h.468c.167 0 .335.077.502.227.159.159.231.318.224.49-.035.27-.168.438-.399.51-.236.069-.584.107-1.026.107h-8.643c-.584 0-.983-.047-1.181-.115-.21-.082-.31-.262-.31-.541 0-.283.091-.455.267-.52.185-.068.425-.115.733-.158l.49-.064c.201-.018.519-.111.948-.297.421-.18.78-.391 1.063-.621.284-.232.576-.52.842-.859.274-.338.502-.669.699-.99.193-.322.344-.619.455-.893l9.237-23.611zm63.817 12.3l8.39-8.67c.197-.215.412-.506.636-.88.235-.374.421-.751.583-1.133.168-.374.193-.708.107-.987-.107-.271-.309-.484-.597-.652a2.155 2.155 0 0 0-.823-.279l-.726-.068c-.31-.014-.541-.047-.683-.111-.15-.061-.231-.232-.24-.516-.007-.283.107-.467.317-.562.215-.094.472-.146.747-.146h11.927c.197.017.399.06.592.124.197.074.296.232.31.48 0 .258-.086.438-.271.55a1.047 1.047 0 0 1-.579.181h-.378c-.31 0-.807.094-1.493.274-.688.181-1.254.378-1.709.571-.459.205-1.043.52-1.76.979-.712.445-1.205.811-1.472 1.094l-5.142 5.477 7.966 13.746c.107.21.446.703 1.03 1.473l.76 1.085c.326.45.622.812.879 1.077.25.266.555.537.897.833.343.278.674.511 1 .704.326.188.626.295.905.326l.584.064c.124.023.283.068.472.137.202.061.317.228.369.507.048.271-.06.459-.3.55-.258.09-.605.133-1.073.133h-13.425c-.231 0-.42-.052-.583-.158-.146-.1-.211-.279-.181-.533.034-.278.167-.477.425-.57l.455-.064.378-.064c.197-.031.441-.104.725-.227.275-.112.455-.322.554-.609.095-.293.086-.631-.023-1.014a5.616 5.616 0 0 0-.301-.879l-6.712-11.541-2.537 2.473v7.926c0 .426.057.885.177 1.365s.313.9.571 1.258c.266.352.617.639 1.051.866.43.228.777.353 1.039.382l.472.064a.845.845 0 0 1 .477.244c.15.129.223.293.223.469-.014.287-.111.455-.292.52-.176.064-.429.094-.755.094h-13.206c-.266 0-.488-.051-.656-.163-.172-.116-.215-.31-.142-.597a.62.62 0 0 1 .279-.382c.159-.095.31-.159.446-.185l.578-.064c.253-.018.515-.094.802-.231.296-.146.622-.399.979-.776.365-.369.618-.769.765-1.193.137-.416.21-.936.227-1.523v-19.746c0-.383-.038-.833-.115-1.344s-.258-.975-.541-1.373a3.502 3.502 0 0 0-1.064-.971c-.425-.244-.776-.386-1.077-.412l-.812-.042a.789.789 0 0 1-.493-.188c-.15-.121-.206-.297-.159-.512.052-.219.146-.386.301-.484.154-.104.352-.154.584-.154l13.703.027c.244.014.434.064.549.158.134.1.193.254.193.455-.017.287-.094.468-.219.537-.137.08-.3.123-.48.137l-.699.068a2.798 2.798 0 0 0-1.129.383 2.72 2.72 0 0 0-.944.922 3.284 3.284 0 0 0-.511 1.287c-.077.438-.12.894-.12 1.361v8.642h-.002zm-16.54 14.102c.017.777-.086 1.387-.305 1.832-.219.438-.494.688-.824.727-.344.047-.679-.053-1.018-.293-.188-.103-.438-.326-.764-.686a11.867 11.867 0 0 1-.709-.859l-16.999-22.312v19.377c-.017.533.064.988.249 1.361.172.373.489.695.932.975.459.273.901.459 1.348.557.446.1.832.168 1.176.193l.656.061c.163.023.365.076.575.15.215.072.335.248.344.54.014.292-.086.472-.271.558a1.522 1.522 0 0 1-.721.107l-10.387-.021c-.244 0-.468-.069-.652-.206-.188-.129-.24-.335-.142-.618a.559.559 0 0 1 .292-.335c.142-.09.317-.15.523-.176l.584-.06c.215-.015.523-.073.932-.172a4.894 4.894 0 0 0 1.192-.485c.382-.231.683-.566.88-1.038.202-.464.301-.901.301-1.305V173.19c0-.485-.035-1.005-.116-1.562a4.321 4.321 0 0 0-.485-1.502c-.248-.438-.558-.77-.931-.988a4.293 4.293 0 0 0-1.116-.477 6.13 6.13 0 0 0-.888-.192l-.626-.069a.783.783 0 0 1-.426-.137c-.154-.082-.214-.279-.188-.574.034-.267.142-.438.326-.508.188-.068.498-.115.937-.128l9.106-.043 14.935 19.304v-14.732c0-.357-.09-.756-.257-1.203a2.734 2.734 0 0 0-1.902-1.695 6.451 6.451 0 0 0-1.129-.215l-1.172-.068a.888.888 0 0 1-.531-.172c-.15-.12-.202-.3-.159-.54.024-.198.149-.348.335-.455.193-.107.425-.159.687-.159h10.271c.24 0 .433.056.592.181.15.115.231.296.231.536a.743.743 0 0 1-.176.425.593.593 0 0 1-.429.185l-.867.069c-.309.027-.708.129-1.201.296-.49.171-.863.395-1.112.679-.257.277-.472.652-.647 1.133-.168.467-.254.836-.254 1.111v23.484-.002zm-47.277-6.85v-1.867h4.296l-4.296-10.106v-7.579l.034-.094a8.961 8.961 0 0 1 .635-1.369c.219-.34.524-.52.923-.541.408-.021.708.094.91.352.206.254.463.699.772 1.352l10.922 23.91c.095.214.335.613.726 1.205.391.597.691 1.03.923 1.313.219.283.507.532.858.751.348.215.665.344.943.391l.391.064c.189.043.356.107.516.184a.525.525 0 0 1 .271.383c.024.176-.048.339-.197.516a.77.77 0 0 1-.588.252h-13.441c-.451 0-.765-.047-.948-.115-.186-.082-.267-.274-.232-.584a.557.557 0 0 1 .262-.45c.168-.095.373-.159.618-.185l.772-.064c.262-.018.566-.081.91-.201.338-.116.609-.348.807-.688.206-.338.296-.725.266-1.149-.034-.429-.09-.751-.167-.962l-2.052-4.716-4.834-.003zm120.97-21.522v1.85a6.882 6.882 0 0 0-1.983.382 6.123 6.123 0 0 0-1.884 1.047c-.566.447-1.09 1.125-1.592 2.025a11.35 11.35 0 0 0-1.091 2.914 31.07 31.07 0 0 0-.536 3.408 59.473 59.473 0 0 0-.253 3.597c-.052 1.171-.064 2.021-.052 2.562a26.072 26.072 0 0 0 .55 5.168c.193.922.424 1.631.686 2.111.271.484.537.936.824 1.339.297.396.704.808 1.228 1.231.532.416 1.231.769 2.099 1.025.717.215 1.387.344 2.004.379v1.875a15.194 15.194 0 0 1-1.947-.137 16.577 16.577 0 0 1-2.421-.465c-.738-.209-1.622-.57-2.648-1.09a15.432 15.432 0 0 1-2.678-1.712c-.764-.626-1.472-1.391-2.129-2.3-.661-.91-1.171-1.781-1.536-2.627a14.21 14.21 0 0 1-.82-2.477 20.211 20.211 0 0 1-.355-2.072 20.352 20.352 0 0 1-.12-1.881c0-.463.007-1.025.017-1.686.008-.652.078-1.412.228-2.271a16.03 16.03 0 0 1 .665-2.596c.292-.871.691-1.742 1.172-2.602.494-.861 1.034-1.592 1.622-2.197a16.684 16.684 0 0 1 1.876-1.66 16.562 16.562 0 0 1 2.029-1.313c.691-.378 1.494-.708 2.421-1.013.927-.301 1.729-.52 2.425-.635.645-.115 1.378-.17 2.199-.179m27.139 25.312c.014.669.078 1.24.197 1.687a2.6 2.6 0 0 0 .674 1.185c.336.339.709.588 1.116.764.412.172.738.271.966.296l.498.061c.115.023.253.098.403.197a.647.647 0 0 1 .095.948.558.558 0 0 1-.46.188l-14.115-.023c-.245 0-.459-.057-.626-.18-.177-.121-.215-.31-.143-.576.018-.072.095-.18.236-.317.138-.146.258-.224.348-.235l.699-.061c.219-.014.507-.082.872-.193.368-.107.747-.322 1.142-.635.398-.309.678-.742.854-1.301a6.66 6.66 0 0 0 .279-1.746v-19.789c0-.279-.051-.721-.142-1.318-.09-.601-.301-1.064-.618-1.395a3.814 3.814 0 0 0-1.12-.811c-.429-.202-.803-.331-1.129-.387l-.527-.086a1.014 1.014 0 0 1-.498-.176c-.15-.107-.206-.271-.15-.511.056-.231.167-.399.339-.507.168-.106.361-.158.559-.158h26.209l-.021 8.227c-.018.271-.069.49-.142.666a.619.619 0 0 1-.416.344.758.758 0 0 1-.575-.047c-.185-.096-.31-.263-.391-.503l-.301-.866a16.131 16.131 0 0 0-.683-1.52 9.901 9.901 0 0 0-1.124-1.713c-.45-.574-1.038-1.086-1.738-1.536a7.7 7.7 0 0 0-2.18-.944c-.747-.193-1.344-.287-1.798-.287h-5.095c-.253.014-.48.051-.679.106a1.16 1.16 0 0 0-.54.317c-.15.154-.235.297-.253.434-.018.129-.021.387-.021.773v10.334h3.163c.338 0 .69-.068 1.047-.189a5.327 5.327 0 0 0 1.021-.498c.317-.209.652-.531.991-.995.352-.455.622-.845.798-1.154.181-.31.33-.644.469-1.013.124-.365.235-.656.334-.867.095-.211.262-.344.516-.398a.598.598 0 0 1 .604.158c.15.158.231.416.231.768v10.489c0 .22-.063.391-.184.545-.129.142-.322.22-.589.224-.266.01-.476-.1-.647-.322-.095-.086-.211-.344-.339-.785-.138-.434-.374-.939-.708-1.511a7.076 7.076 0 0 0-1.111-1.434 3.87 3.87 0 0 0-1.314-.866c-.48-.193-.854-.288-1.146-.288h-3.138v9.433l.001-.003zm141.584 3.06c.018.777-.086 1.387-.301 1.832-.227.438-.493.688-.832.727-.344.047-.674-.053-1.018-.293-.188-.103-.434-.326-.764-.686a13.305 13.305 0 0 1-.708-.859l-16.999-22.312v19.377c-.008.533.064.988.248 1.361.176.373.494.695.94.975.45.273.897.459 1.339.557.451.1.842.168 1.18.193l.652.061c.168.023.365.077.58.15.219.072.335.248.344.54.006.292-.091.472-.271.558-.188.086-.429.125-.725.107l-10.382-.021c-.249 0-.472-.069-.652-.206-.193-.129-.235-.334-.146-.618a.593.593 0 0 1 .296-.335c.146-.09.321-.15.523-.176l.579-.06c.22-.015.528-.073.932-.172a4.708 4.708 0 0 0 1.193-.485c.382-.231.683-.566.88-1.038.202-.464.305-.901.305-1.305V173.19c0-.485-.038-1.005-.12-1.562a4.084 4.084 0 0 0-.484-1.502c-.25-.438-.555-.77-.932-.988a4.264 4.264 0 0 0-1.111-.477 6.204 6.204 0 0 0-.893-.192l-.623-.068a.773.773 0 0 1-.425-.138c-.158-.082-.21-.279-.192-.574.034-.267.146-.438.33-.508.193-.068.502-.115.936-.128l9.103-.043 14.935 19.304v-14.732c0-.357-.09-.756-.257-1.202a2.724 2.724 0 0 0-1.897-1.696 6.59 6.59 0 0 0-1.129-.215l-1.171-.068a.855.855 0 0 1-.528-.172c-.154-.12-.21-.3-.158-.54.023-.198.142-.348.33-.455.193-.107.421-.159.683-.159h10.278c.236 0 .425.056.584.181.15.115.231.295.231.536a.717.717 0 0 1-.176.425c-.099.116-.249.176-.429.185l-.867.069c-.309.027-.708.129-1.197.295-.485.172-.858.396-1.116.679-.249.278-.468.652-.644 1.133-.168.468-.254.837-.254 1.112v23.484-.002zm-32.964-2.918c.035.579.091 1.094.181 1.536.086.442.283.841.593 1.188a2.9 2.9 0 0 0 1.18.769c.468.172.875.271 1.215.296l.635.061c.215.023.373.068.48.115.091.052.159.219.186.494.017.283-.043.48-.186.574-.154.1-.364.15-.647.15h-14.28a1.14 1.14 0 0 1-.623-.158c-.158-.107-.21-.309-.149-.609a.595.595 0 0 1 .257-.391c.143-.086.288-.15.442-.176l.511-.061c.254-.023.58-.124.991-.291a3.232 3.232 0 0 0 1.107-.7c.326-.3.584-.76.755-1.382a6.424 6.424 0 0 0 .293-1.648v-19.445c0-.369-.039-.842-.116-1.403a2.733 2.733 0 0 0-.605-1.429 3.293 3.293 0 0 0-1.21-.889c-.484-.202-.88-.33-1.193-.387l-.459-.068a.772.772 0 0 1-.451-.185c-.158-.116-.201-.278-.158-.507.052-.223.15-.391.309-.498.15-.107.348-.158.575-.158l13.862.021c.24.015.429.077.57.188.154.116.219.279.201.512a.77.77 0 0 1-.248.434.698.698 0 0 1-.451.192l-.558.069a3.043 3.043 0 0 0-1.176.449c-.403.25-.743.559-1.026.932a3.855 3.855 0 0 0-.622 1.186c-.12.42-.185.883-.185 1.385v19.834zm-23.411-12.369v-7.334c0-.352-.043-.777-.143-1.283a3.412 3.412 0 0 0-.54-1.344 3.497 3.497 0 0 0-1.048-.965c-.429-.258-.832-.422-1.227-.49l-.399-.068c-.134-.01-.283-.077-.442-.193-.15-.123-.206-.296-.158-.519.043-.224.146-.391.291-.481.146-.103.344-.154.593-.154h13.372c.245.014.434.064.559.154.125.078.188.236.197.46.007.224-.038.395-.137.519-.104.125-.254.189-.451.203l-.468.068c-.425.047-.815.18-1.181.373a3.17 3.17 0 0 0-1 .901c-.305.403-.515.88-.647 1.442a7.519 7.519 0 0 0-.181 1.51v19.57c0 .421.039.875.129 1.365.086.484.271.9.554 1.248.296.34.661.614 1.116.807.446.207.819.318 1.111.365l.398.064c.143.024.293.1.469.224a.569.569 0 0 1 .258.493.573.573 0 0 1-.306.469c-.188.098-.446.149-.772.149h-13.201c-.249 0-.468-.069-.631-.181-.176-.124-.236-.317-.167-.588a.59.59 0 0 1 .253-.391c.142-.09.301-.15.468-.176l.425-.064c.228-.031.541-.115.923-.278.369-.15.726-.386 1.056-.7.326-.309.554-.703.699-1.188.133-.48.215-1 .229-1.55v-10.664h-10.695v10.664c0 .477.061.936.176 1.379.125.445.326.857.648 1.24.309.381.656.647 1.043.811.386.168.738.258 1.047.287l.468.064c.138.025.271.107.403.245a.682.682 0 0 1 .21.498c.007.192-.056.339-.21.442-.142.098-.33.149-.57.149h-13.416c-.229 0-.425-.068-.592-.181-.164-.123-.224-.316-.177-.588a.649.649 0 0 1 .254-.381c.142-.096.287-.159.421-.186l.472-.064c.181-.017.446-.103.776-.262a6.189 6.189 0 0 0 1.035-.669c.355-.283.631-.683.807-1.206.18-.52.274-1.047.291-1.579v-19.772c0-.338-.051-.768-.141-1.305a3.983 3.983 0 0 0-.609-1.502c-.31-.467-.648-.785-1.021-.961-.374-.163-.709-.271-1.025-.313l-.516-.069a.91.91 0 0 1-.507-.192c-.159-.124-.215-.296-.167-.519.051-.224.154-.391.317-.49.163-.094.352-.146.566-.146h13.33c.18.014.356.052.523.106.158.053.24.22.253.503.008.274-.072.459-.231.554a1.14 1.14 0 0 1-.477.172l-.468.068c-.344.047-.699.185-1.077.387-.36.201-.729.527-1.081.961-.348.438-.562.879-.631 1.312a7.292 7.292 0 0 0-.125 1.336v7.433l10.695.001zm-23.617-11.626l.398 7.647c.014.314-.007.602-.061.854-.051.249-.133.434-.235.536-.103.104-.271.172-.507.202-.248.027-.433-.038-.549-.202-.124-.158-.231-.391-.301-.687l-.172-.571c-.149-.492-.424-1.111-.807-1.85-.391-.742-.819-1.369-1.291-1.888-.46-.528-1-.991-1.614-1.403-.609-.404-1.343-.764-2.193-1.073-.845-.313-1.811-.476-2.893-.493-1.188-.014-2.201.18-3.068.57-.858.399-1.554.923-2.086 1.58a8.672 8.672 0 0 0-1.262 2.146 17.85 17.85 0 0 0-.828 2.593 18.287 18.287 0 0 0-.477 2.711c-.09.867-.124 1.863-.111 3.005 0 .79.014 1.679.048 2.669.03.983.111 1.928.244 2.828.137.902.36 1.79.678 2.657a8.007 8.007 0 0 0 1.305 2.317 7.625 7.625 0 0 0 2.03 1.717c.815.477 1.579.794 2.287.953.717.162 1.523.201 2.425.115.928-.076 1.747-.274 2.455-.579a8.82 8.82 0 0 0 1.996-1.185 12.974 12.974 0 0 0 1.789-1.721 16.71 16.71 0 0 0 1.455-1.914c.398-.613.755-1.004 1.064-1.163.309-.167.566-.181.781-.039.21.124.326.353.352.661.021.309-.1.713-.369 1.206-.48.884-.939 1.652-1.369 2.283-.434.631-1.056 1.339-1.85 2.116-.803.771-1.631 1.359-2.498 1.755-.858.39-1.828.683-2.901.854a17.715 17.715 0 0 1-3.12.244c-1.215 0-2.438-.125-3.695-.369a14.318 14.318 0 0 1-3.484-1.154c-1.086-.52-2.129-1.301-3.129-2.322-1-1.033-1.755-2.033-2.283-3.004a14.028 14.028 0 0 1-1.154-2.889 19.252 19.252 0 0 1-.506-2.771c-.095-.897-.142-1.76-.142-2.588s.077-1.867.235-3.09c.154-1.219.378-2.283.683-3.168.305-.889.712-1.76 1.228-2.609.506-.854 1.021-1.584 1.549-2.184.516-.602 1.146-1.155 1.867-1.674a16.216 16.216 0 0 1 2.301-1.379 12.704 12.704 0 0 1 2.622-.939c.948-.231 2.03-.382 3.235-.434 1.043-.027 1.975.014 2.794.138.824.116 1.636.317 2.425.593a13.36 13.36 0 0 1 2.095.909c.609.331 1.081.528 1.425.593.334.064.648 0 .905-.181a.96.96 0 0 0 .353-.468c.072-.211.141-.451.205-.717s.159-.489.279-.665a.647.647 0 0 1 .55-.278.83.83 0 0 1 .597.201c.094.115.158.275.205.477.052.203.082.379.095.521m-88.731 29.454v-1.875c.124.007.249.014.373.014.425.014.884-.021 1.348-.104.464-.086 1.018-.273 1.665-.557.645-.293 1.224-.765 1.73-1.4.519-.639.931-1.467 1.24-2.476.309-1.009.519-1.851.631-2.524.103-.678.201-1.789.278-3.338.082-1.554.116-2.584.124-3.1.008-.519-.01-1.295-.051-2.338a89.059 89.059 0 0 0-.249-3.447 25.416 25.416 0 0 0-.382-2.6c-.176-.828-.421-1.58-.747-2.245a4.968 4.968 0 0 0-1.373-1.695c-.593-.476-1.301-.823-2.107-1.047-.824-.231-1.575-.339-2.274-.339l-.206.007v-1.851h.159c1.133.015 2.252.125 3.355.34 1.104.21 2.12.506 3.051.896.932.391 1.799.867 2.598 1.43a11.583 11.583 0 0 1 2.141 1.936 13.01 13.01 0 0 1 1.704 2.558c.507.974.889 2.038 1.163 3.171.274 1.129.442 2.168.516 3.107.068.939.098 1.785.098 2.55a22.43 22.43 0 0 1-.219 2.944c-.129.91-.334 1.798-.613 2.656s-.691 1.756-1.223 2.687a11.973 11.973 0 0 1-1.996 2.566c-.79.781-1.537 1.382-2.236 1.79-.699.407-1.558.819-2.574 1.227-1.014.404-1.717.652-2.121.73-.391.072-1.055.15-1.979.215-.918.076-1.493.111-1.717.111h-.107v.001zm188.979-28.943v7.58l-.128-.309-4.167 10.415h4.295v1.867h-4.995l-1.558 4.776c-.223.652-.283 1.185-.176 1.592.095.426.305.73.605.936.3.211.613.336.922.391.31.057.588.086.833.086h.472c.168 0 .33.078.498.228.158.159.236.317.224.489-.031.271-.163.438-.399.511-.236.069-.579.107-1.021.107h-8.644c-.588 0-.991-.048-1.185-.116-.205-.082-.312-.262-.312-.541 0-.283.098-.455.273-.519.181-.069.417-.116.73-.159l.493-.064c.197-.018.515-.111.944-.295a4.74 4.74 0 0 0 1.068-.623c.283-.232.566-.52.842-.858.266-.339.497-.669.699-.991.188-.322.339-.618.455-.893l9.232-23.61zm0 19.553v-1.867h4.301l-4.301-10.106v-7.58l.039-.094c.211-.575.426-1.029.636-1.369.214-.339.515-.52.923-.541.402-.021.707.095.905.352.206.254.459.7.772 1.353l10.922 23.909c.1.215.34.613.726 1.205.386.598.691 1.031.923 1.314.219.283.506.531.854.75.356.215.674.344.949.391l.391.064c.192.043.36.107.515.186.149.09.249.214.274.381.021.176-.052.34-.197.516a.783.783 0 0 1-.592.254h-13.438c-.451 0-.772-.048-.957-.116-.181-.082-.262-.274-.228-.584a.562.562 0 0 1 .262-.45 1.6 1.6 0 0 1 .622-.185l.773-.064a3.38 3.38 0 0 0 .9-.202c.348-.115.614-.348.812-.686.21-.34.296-.727.262-1.15-.023-.43-.085-.752-.163-.962l-2.052-4.716" fill="#231815"/><path d="M106.068 139.84v67.298C50.22 206.94 5.011 161.611 5.011 105.729c0-48.14 33.535-88.443 78.521-98.82v61.32a4.494 4.494 0 0 0 4.034 4.051l.007.017h11.733a4.503 4.503 0 0 1 4.503 4.506v31.535a4.495 4.495 0 0 0-4.181-4.489H77.183a4.214 4.214 0 0 1-.416.021c-.142 0-.279-.011-.417-.021-1.54-.137-2.837-1.064-3.536-2.36-.014-.021-.021-.047-.034-.073a3.732 3.732 0 0 1-.267-.609 5.292 5.292 0 0 1-.115-.399c-.024-.099-.043-.193-.069-.296a4.634 4.634 0 0 1-.06-.691c0-.017-.007-.027-.007-.039v-.017-64.483C45.649 47.543 27.25 74.657 27.25 106.086c0 39.702 29.359 72.542 67.547 78.014v-44.23H77.184a4.184 4.184 0 0 1-.832 0 4.506 4.506 0 0 1-4.09-4.471v-31.587a4.507 4.507 0 0 0 4.506 4.511h22.54a4.5 4.5 0 0 1 4.502 4.502v27.016h2.258v-.001zm0-135.528a104.453 104.453 0 0 0-11.27.67v57.612c0 2.85 2.335 5.18 5.185 5.18h6.086V4.312zm0 202.826V139.84h2.249v-27.016a4.505 4.505 0 0 1 4.506-4.502h22.544a4.504 4.504 0 0 0 4.502-4.511v31.588a4.5 4.5 0 0 1-4.913 4.473h-17.622v44.23c38.191-5.473 67.547-38.312 67.547-78.015 0-31.428-18.398-58.543-45.012-71.203V99.383c0 .014-.003.021-.003.039a3.967 3.967 0 0 1-.068.691 6.18 6.18 0 0 1-.061.296 5.647 5.647 0 0 1-.115.399 4.45 4.45 0 0 1-.267.609c-.017.024-.023.051-.034.073-.704 1.296-2 2.224-3.541 2.361a3.93 3.93 0 0 1-.823 0h-22.45a4.501 4.501 0 0 0-4.188 4.489V76.804a4.505 4.505 0 0 1 4.506-4.506h11.738l.007-.017a4.505 4.505 0 0 0 4.034-4.051V6.755c45.337 10.115 79.229 50.586 79.229 98.975 0 56.006-45.397 101.413-101.408 101.413l-.357-.005zm8.871-202.465a103.364 103.364 0 0 0-8.515-.361h-.356v63.461h6.086c2.85 0 5.18-2.331 5.18-5.18V4.9c-.798-.081-1.597-.158-2.395-.227" fill="#009882"/><path d="M286.208 78.915h-10.515v4.759c0 1.249-.769 2.592-2.344 4.03-1.549 1.438-4.335 2.244-8.386 2.416-4.034.172-6.274-.094-6.695-.764-.446-.674-.647-1.575-.647-2.687l.708-12.317V44.346l-.645-9.515a2.47 2.47 0 0 1 1.267-.884c.527-.193 1.776.21 3.751 1.228l15.149 7.841h8.356v5.24h-10.515v25.419h10.515v5.24zm28.424 0v20.952l.768 16.137a9.37 9.37 0 0 1-1.858 2.914c-.807.863-2.36 1.67-4.617 2.398-2.258.73-4.756.979-7.459.752-2.48-.176-4.013-.636-4.579-1.365-.584-.746-.944-1.631-1.112-2.687l1.073-18.879-.056-20.222h-10.584v-5.24h10.52v-25.42h-10.52v-5.24h10.52V31.243l-.953-13.377c-.077-1.494.124-2.472.566-2.893.464-.442 1.455-.597 2.987-.48.785.073 4.052.747 9.798 2.013 5.769 1.283 8.896 2.339 9.398 3.206.524.862.666 1.669.442 2.399-.219.729-.785 1.438-1.733 2.107l-2.661 1.846.06 16.952h11.193v5.24h-11.193v25.419h11.193v5.24h-11.193zm11.192-35.9h9.566a576.151 576.151 0 0 0 4.287-5.618c1.271-1.669 2.322-2.567 3.188-2.666.863-.116 2.339.477 4.373 1.786l4.962 3.051c4.879 3.03 7.3 5.257 7.278 6.674-.039.785-.747 1.824-2.077 3.09l-2.901 2.819v20.682l.726 11.416a6.931 6.931 0 0 1-1.939 2.631c-.842.708-2.683 1.382-5.541 1.974-2.867.597-4.961.807-6.292.614-1.979-.227-3.21-.725-3.69-1.498-.507-.764-.747-2.339-.747-4.738v-4.317h-11.192v-5.24h11.192v-25.42h-11.192m79.421 55.222h31.132v5.24h-31.076v5.536c0 1.021-.726 2.149-2.176 3.399-1.472 1.266-4.88 1.664-10.223 1.205-1.477-.111-2.421-.343-2.862-.725-.464-.365-.829-.979-1.112-1.807l.666-17.073-.061-66.058-.665-16.347c.283-.42.627-.725 1.009-.918.403-.214 1.549.15 3.489 1.09l13.286 6.562h29.725v5.261h-31.016l-.116 74.635zm31.132 0h31.137V28.844h-31.137v-5.261h29.604c1.532-2.052 2.785-3.704 3.772-4.931.987-1.249 1.832-1.936 2.519-2.09.688-.154 1.695.056 3.048.635 3.69 1.665 6.733 3.489 9.115 5.446 2.378 1.94 3.566 3.262 3.566 3.935-.021.82-1.129 2.224-3.305 4.202l-.103 67.955.647 14.352c-.244 1.531-.669 2.664-1.274 3.395-.601.729-2.034 1.459-4.253 2.188a16.737 16.737 0 0 1-6.794.765c-2.301-.229-3.815-.709-4.52-1.473-.703-.751-1.047-2.039-1.008-3.88l.051-5.364h-31.067m12.808-42.322c3.712.631 6.317 1.687 7.807 3.176 1.974 1.957 3.043 3.76 3.206 5.429.142 1.669-.082 3.051-.729 4.18-1.288 2.249-3.124 3.399-5.48 3.455-2.36.06-4.056-.305-5.081-1.095-1.03-.708-1.657-1.438-1.859-2.185-.219-.747-.523-2.206-.888-4.356-.382-2.167-1.167-3.836-2.399-5.047l-2.056-1.669c-.566-.498-.785-1.056-.726-1.687a.803.803 0 0 1 .09-.283l-.558-.004v24.845h9.038c.987-1.21 2.078-2.549 3.245-4.068a143.65 143.65 0 0 1 2.48-3.107c.485-.536.97-.845 1.45-.918.507-.077 1.254.266 2.283 1.017a51.91 51.91 0 0 1 5.382 4.794c1.408 1.451 2.231 2.477 2.468 3.09.983 1.747.061 3.738-1.472 4.15l-48.835-.434-6.799.236-2.879-4-1.228-1.545 6.943.614 8.429.15 5.197.021-.056-24.991-7.377-.073-6.412.24-1.129-1.661-.149.007-3.185-4.047 8.266.725 9.982.061V44.318l-8.094-.073-6.794.236-1.729-2.399-2.7-3.481 8.871.614h31.176c2.06-3.068 3.553-5.197 4.502-6.347.943-1.172 1.712-1.786 2.273-1.88.567-.094 1.473.287 2.683 1.15 3.631 2.648 6.133 4.721 7.545 6.219.854.91 1.399 1.644 1.636 2.206.952 1.738.03 3.704-1.494 4.111l-23.162-.214a5.015 5.015 0 0 1-.356.322l-.056 16.634h5.906c3.309-4.163 5.445-6.313 6.373-6.485.948-.171 2.18.305 3.674 1.438 4.133 3.206 6.45 5.163 6.935 5.833.288.386.464.738.528 1.056.369 1.416-.516 2.927-1.708 3.266m112.43-26.382c.262 1.442.688 3.378 1.279 5.794.726 2.974 1.674 6.257 2.803 9.845 1.15 3.566 3.364 8.42 6.695 14.519 4.918-5.927 8.145-10.283 9.682-13.103l1.283-2.36c1.154-2.09 2.043-3.202 2.648-3.339.604-.133 1.369.021 2.274.425.626.343 1.618 1.112 2.987 2.3 1.352 1.21 3.063 2.477 5.123 3.803 2.073 1.322 3.648 2.626 4.695 3.91 1.068 1.27 1.434 2.227 1.068 2.858-.502.829-2.66 1.172-6.433 1.078-8.124 3.223-14.999 5.811-20.687 7.806 1.271 1.975 2.902 4.279 4.919 6.906 1.995 2.63 5.343 5.661 10.042 9.115 4.679 3.434 9.116 5.931 13.287 7.463l3.189 1.189 3.609.674c.583.382.909.879.97 1.493.056.614-.146 1.056-.584 1.343-.468.288-1.454.674-2.987 1.155l-2.48.841c-1.27.464-2.219.863-2.866 1.21-.661.365-1.55 1.017-2.661 1.996-1.125.979-1.975 1.842-2.541 2.588-.562.751-1.146 1.901-1.712 3.455-.566 1.553-1.091 2.398-1.532 2.493-.463.116-1.313-.267-2.584-1.171l-3-2.035c-1.355-.879-3.068-2.279-5.205-4.18-2.116-1.88-4.013-3.76-5.665-5.623-1.657-1.858-3.772-4.871-6.335-9.072s-4.819-9.171-6.798-14.931c-1.952-5.751-3.326-11.163-4.09-16.227-.769-5.085-1.271-9.116-1.515-12.068-.24-2.957-.421-5.545-.584-7.75a133.728 133.728 0 0 1-1.918 5.042c-.781 1.918-3.326 6.506-7.661 13.776 2.36 1.171 3.57 2.228 3.631 3.189.06.957-1.292 2.146-4.03 3.566v30.411c2.738-1.365 7.76-3.82 15.06-7.425l1.936-.961c1.429-.712 2.464-.824 3.15-.326.661.481.884 1.073.661 1.786-.202.729-.523 1.283-.966 1.687l-1.069 1.017-21.196 20.626-5.622 5.562c-1.215.862-2.12 1.21-2.725 1.017-.503-.115-1.129-.845-1.876-2.188l-3.025-5.064a41.923 41.923 0 0 1-2.236-4.605c-.704-1.687-1.03-2.781-.948-3.257.082-.751.562-1.425 1.472-2.039.91-.592 1.369-1.034 1.369-1.339V80.875c-6.025 4.755-11.493 8.652-16.395 11.682s-8.047 4.914-9.437 5.622l-2.236 1.189a4.233 4.233 0 0 1-2.181.536c-.785-.017-1.532-.326-2.219-.901-.687-.592.163-1.82 2.562-3.683l1.772-1.36a158.43 158.43 0 0 0 4.459-3.532c1.369-1.133 4.355-4.317 8.995-9.553 4.618-5.257 8.047-9.42 10.244-12.51 2.198-3.09 4.614-7.12 7.236-12.085 2.626-4.97 4.296-8.54 5.042-10.708l1.983-5.429H538.49c.228 1.566.399 3.159.516 4.777.141 1.979-.426 4.18-1.674 6.618-1.271 2.438-3.627 4.129-7.099 5.086-3.468.957-6.167.403-8.086-1.67-1.936-2.051-2.862-4.124-2.78-6.176.038-2.171.986-4.201 2.841-6.064l4.78-4.163c.906-1.056 1.695-2.515 2.361-4.395l.54-1.515.163-3.377c.163-.558.523-.979 1.107-1.266.566-.271 1.292-.077 2.137.597.245.228.627.729 1.134 1.515l1.532 2.36 1.124 2.433h19.522c.279-.97.562-2 .871-3.107.421-1.609.967-4.798 1.593-9.553l.523-4.047c.24-2.051.503-3.206.808-3.455.283-.249 1.472-.094 3.566.42.424.155 2.664.597 6.678 1.343 4.012.751 7.017 1.614 8.974 2.571 1.974.944 2.927 1.901 2.841 2.841-.082.747-1.391 2.034-3.952 3.875a489 489 0 0 1-4.026 9.111h20.081c1.867-2.262 3.154-3.699 3.871-4.334.846-.747 1.652-1.189 2.399-1.305.746-.094 1.953.403 3.609 1.515 5.665 4.008 9.154 6.695 10.445 8.021 1.31 1.326 1.936 2.571 1.897 3.743-.12 2.244-1.636 3.472-4.541 3.699l-5.142-.172c-4.214-.034-8.103 1.438-11.639 4.395l-3.021 2.532c-1.613 1.382-2.725 1.803-3.305 1.283-.588-.515-.605-1.399-.06-2.644l1.407-3.36c.566-1.373 1.618-4.082 3.193-8.133m60.306 7.979l-1.344-2.626c-.344-.58-.52-1.249-.554-1.996-.038-.747.249-1.232.901-1.489.635-.262 1.206-.228 1.708.073.493.318 1.167.915 1.991 1.769l2.189 2.463c3.296 3.747 5.943 6.987 7.918 9.729 1.995 2.717 4.395 6.708 7.192 11.944 2.819 5.257 4.03 10.588 3.665 16.008-.27 3.339-1.343 6.228-3.24 8.652-1.884 2.42-4.162 3.747-6.789 3.965-2.648.206-4.832-.48-6.562-2.085-1.707-1.605-2.721-3.412-2.99-5.459-.288-2.035-.155-4.811.381-8.331.541-3.506.824-6.467.846-8.875.018-2.403-.248-5.365-.803-8.888-.424-2.403-.789-4.159-1.094-5.236-.326-1.103-.901-2.833-1.747-5.202-.844-2.365-1.398-3.837-1.668-4.416m-8.764 63.383l.266.021 33.394.326V34.03l-.901-15.45c.154-.3.365-.541.609-.747.271-.189 1.078-.112 2.421.262l5.064.965 5.235 1.326c4.064.97 6.249 2.159 6.502 3.541.189 1.21-1.034 2.794-3.699 4.751l.052 83.319 6.694.063V33.712l-.841-15.244c.399-.729 1.36-1.026 2.858-.875 3.064.373 6.708 1.133 10.927 2.326 4.223 1.176 6.446 2.408 6.716 3.691.232 1.416-1.227 3-4.395 4.733l.061 62.045c1.438-3.652 2.896-7.755 4.395-12.355 1.494-4.588 2.665-8.408 3.506-11.48a248.683 248.683 0 0 0 2.554-10.292 573.199 573.199 0 0 0 1.914-8.687l.79-4.098.498-3.112c.652-.837 2.068-.652 4.274.541l5.618 2.63 6.352 3.592c3.699 2.129 5.257 3.974 4.66 5.575-.287.802-1.708 1.734-4.223 2.776a438.242 438.242 0 0 1-5.463 9.708c-1.897 3.245-4.43 7.159-7.614 11.708-3.188 4.549-8.918 12.468-17.205 23.742v11.536h9.956c2.876-3.502 5.138-6.39 6.769-8.665 1.631-2.274 2.957-3.463 3.991-3.596 1.034-.129 2.494.446 4.408 1.712 1.386 1.026 2.879 2.257 4.488 3.708l3.876 3.674c1.296 1.21 2.034 2.438 2.219 3.665.412 1.733-.138 3.554-1.575 3.944l-93.975-.421-7.086.231-2.781-3.42m201.816-11.376l-.09.099-4.781 5.008-5.081 5.656-4.073 4.396-2.176 2.531c-.687.752-1.133 1.211-1.373 1.383-.219.154-.584.209-1.047.137-.648-.077-1.352-.751-2.142-2.039l-4.253-6.729c-2.154-3.688-3.086-6.026-2.785-7.026.081-.343.402-.824.947-1.438a9.106 9.106 0 0 0 1.254-1.691c.266-.493.425-1.532.468-3.068l.052-25.6c-.322.605-.846 1.073-1.447 1.245l-6.926-.571-9.811-.12v21.575c2.158-1.129 3.811-1.996 4.956-2.592l6.498-3.257 3.909-2.018c.301-.154.79-.188 1.412-.111.627.077.971.42 1.009 1.051.038.657-.181 1.228-.665 1.747l-2.48 2.648c-6.09 6.484-10.004 10.823-11.699 13.008-1.691 2.189-3.867 5.163-6.554 8.905l-1.952 2.7c-.666.944-1.15 1.497-1.434 1.674-.301.15-.704.171-1.211.017-.682-.115-1.45-.807-2.334-2.051-.889-1.249-2.077-3.206-3.549-5.871-1.477-2.67-2.361-4.489-2.666-5.506-.283-1.017-.283-1.803.039-2.36l1.215-1.266c.802-.846 1.227-2.09 1.27-3.743l.057-24.724-6.34-.077-7.038.365-.364-.64-.031.003-2.115-3.764.02.003-.003-.003.373.021 6.807.42h8.69v-14.16l-5.076.46-2.021-2.592c-.339.365-.604.635-.764.785l-3.893 4.051-2.017 2.073c-.344.343-.824.592-1.45.768-.605.171-1.03-.077-1.275-.712-.219-.631-.235-1.15-.056-1.571l1.614-3.03c1.914-3.708 3.647-7.794 5.162-12.227 1.507-4.451 2.885-8.841 4.095-13.176 1.228-4.356 2.013-7.369 2.378-9.06l.643-3.202.344-2.36c.48-1.017 1.936-1.094 4.378-.228l4.737 1.455c6.571 2.073 9.863 3.837 9.863 5.296-.043.901-1.477 1.858-4.318 2.858-2.746 5.081-4.819 8.687-6.227 10.824l8.434.197c2.051-2.515 3.617-4.36 4.673-5.515 1.091-1.15 1.953-1.786 2.64-1.88.665-.094 1.713.498 3.124 1.764 3.146 3.013 4.966 4.987 5.403 5.965l.077.168c1.039 1.592.061 3.652-1.364 4.056l-6.896-.468-18.678-.356-.163.003a184.607 184.607 0 0 1-9.33 12.33l5.142.171h14.415a65.547 65.547 0 0 0 2.889-3.45c.824-1.073 1.631-1.936 2.399-2.609.76-.669 1.549-1 2.377-.961.688.077 1.996 1.039 3.932 2.858 1.957 1.841 3.227 3.227 3.854 4.163.602.944.781 1.708.545 2.288-.223.571-.927.863-2.115.863H807.32a10.105 10.105 0 0 1-2.235 2.245v11.914h1.771c1.455-1.575 2.584-2.841 3.391-3.819s1.494-1.764 2.073-2.417c.566-.631 1.235-.996 1.979-1.094.747-.095 2.176.845 4.317 2.785 2.111 1.953 3.67 3.644 4.656 5.06V30.045l-.523-12.184c.24-.305.566-.571 1.009-.786.421-.228 2.099.365 5.017 1.785l8.669 4.343h10.905v5.24h-10.896v12.309h10.896v5.24h-10.896v13.922h10.896v26.167c-.644-2.691-1.107-4.974-1.377-6.841-.288-1.961-.609-5.429-1.014-10.458l-.291-3.631h-8.215l.061 33.694a914.12 914.12 0 0 0 10.836-3.335V101.628zm3.957-36.475c1.537 6.867 2.562 10.716 3.052 11.553l3.004 6.18c.79-.786 1.55-1.592 2.258-2.42.704-.824 1.592-2.146 2.661-3.987 1.051-1.824 1.737-3.107 1.995-3.819l.708-2.013.485-1.515c.202-.271.604-.442 1.231-.52.824-.077 2.072.249 3.729.979a262.78 262.78 0 0 0 5.545 2.417c2.056.884 3.549 1.768 4.497 2.648.949.884 1.369 1.614 1.292 2.167-.142 1.095-2.158 1.918-6.013 2.537a141.17 141.17 0 0 1-4.617 3.506c-1.73 1.249-5.301 3.013-10.687 5.261 1.776 2.206 3.952 4.678 6.554 7.42 2.604 2.726 7.038 5.391 13.291 7.983l3.185 1.343c.987.442 1.515 1.034 1.575 1.764.06.729-.528 1.249-1.734 1.559l-3.21.84c-.828.211-2.056.885-3.69 1.996-1.631 1.095-2.966 2.726-4.009 4.854-1.052 2.129-1.776 3.301-2.181 3.512-.425.21-1.068.115-1.936-.305-.382-.155-.905-.481-1.592-1.018l-2-1.459c-3.163-2.399-5.991-5.49-8.489-9.266-2.502-3.798-3.97-6.236-4.459-7.369a71.433 71.433 0 0 0-.944-2.244c-1.515 1.738-2.652 3.03-3.459 3.893v-6.116c.781-.245 1.52-.485 2.232-.712a408.07 408.07 0 0 1-2.159-8.42l-.073-.296V59.917h10.9V45.995h-10.9v-5.24h10.9V28.446h-10.9v-5.24h9.746a217.427 217.427 0 0 0 2.545-3.442c1.091-1.494 2.061-2.283 2.923-2.378.872-.094 2.24.399 4.073 1.477 4.137 2.515 6.776 4.223 7.888 5.125 1.129.901 1.734 1.592 1.815 2.073.077.82-1.051 2.3-3.369 4.39v21.914l.523 11.987c-.583 1.305-1.391 2.245-2.377 2.824-1.009.592-2.502.957-4.498 1.129-2 .176-3.549.154-4.699-.017-2.441-.309-3.67-1.189-3.67-2.648v-.485m69.957-16.856c-1.115 2.103-2.248 4.245-3.446 6.403-1.21 2.223-3.527 5.867-6.935 10.896-3.408 5.047-6.695 9.228-9.842 12.566l-2.235 2.36c-.605.614-.889 1.15-.889 1.669 0 .498.22.996.687 1.515.438.498 1.55.171 3.326-.979l3.365-2.206c5.086-3.3 8.75-5.794 10.995-7.523v33.1l-.588 12.875c.343.67.866 1.245 1.536 1.688.52.359 1.863.51 4.025.455V48.299zm0-24.23v16.974l-.137.094-7.562 4.433c-2.819 1.803-4.355 2.76-4.541 2.858l-2.48 1.36c-1.647.901-2.862 1.399-3.588 1.537-.725.133-1.248 0-1.592-.386-.322-.403-.399-.824-.202-1.3.202-.463.991-1.365 2.36-2.725l2.477-2.421c2.283-2.245 4.66-5.047 7.124-8.403 2.459-3.339 4.438-6.176 5.944-8.498l2.197-3.523zm0 16.973l9.566-6.489c1.167-.785 3.025-1.991 5.545-3.605 2.841.154 4.493-.172 4.957-.996.283-.502.142-1.305-.382-2.459-.524-1.129-2.438-3.18-5.769-6.159l-4.296-3.704c-1.772-1.609-2.982-2.318-3.647-2.129-.648.172-1.249.772-1.794 1.729l-.889 1.631-2.12 3.317-1.172 1.889v16.975zm0 80.075V48.299l.104-.197 2.119-4.167.889-1.914c.279-.597.645-1.018 1.104-1.288.446-.271 1.398-.056 2.867.614.664.386 3.188 1.939 7.583 4.665 4.395 2.738 6.373 4.776 5.948 6.137-.322.979-1.57 1.537-3.729 1.691l-.06.111 6.613.558h40.294c1.305-1.88 3.021-4.163 5.142-6.867 2.138-2.687 3.828-4.013 5.077-3.936 1.231.116 3.631 1.979 7.202 5.566 2.519 2.532 4.055 4.412 4.613 5.644 1.133 1.605.081 3.733-1.365 4.141l-6.927-.566-10.196-.056c-.734.845-1.245 1.408-1.533 1.695v49.169c0 2.288-.463 4.262-1.391 5.91-.926 1.652-3.85 2.975-8.814 3.953-4.939 1-8.266 1.364-10 1.111-.91-.111-1.531-.344-1.896-.688-.339-.326-.545-1.038-.584-2.133l-.185-3.373c-.235-1.227-.726-2.305-1.472-3.205-.742-.902-1.613-1.459-2.597-1.688l-3.188-.674c-1.772-.321-2.944-.652-3.489-.957-.566-.288-.828-.824-.803-1.614.018-.803.417-1.322 1.185-1.592.769-.249 1.979-.326 3.635-.21l2.133.172c.507.056 2.34.249 5.507.558 3.185.288 5-.094 5.502-1.15.489-1.077.747-2.322.79-3.743l.12-41.633-24.501-.129-7.035.365-2.402-3.309-.966-1.167c-.589.459-1.009.785-1.254 1.017l-5.484 5.446-.523.464c.888.515 1.875 1.094 2.944 1.708 1.068.614 1.635 1.266 1.674 1.936.06.674-.808 1.88-2.623 3.609v36.913l.645 10.742c-.301 1.172-.988 2.245-2.057 3.262-1.064 1.017-3.266 1.614-6.613 1.823-.733.05-1.398.081-2.003.094m20.986-93.963l9.699.626 24.545.039c2.549-3.588 4.506-6.125 5.875-7.635 1.395-1.553 2.523-2.339 3.386-2.36.867-.017 2.021.58 3.434 1.768l4.678 4.335c1.828 1.613 3.129 2.922 3.919 3.927 1.553 1.738.472 3.764-.996 4.18l-6.927-.567-37.381-.279-7.034.365-1.459-2.009-1.708-2.124.172.014" fill="#231815"/></svg>