<svg xmlns="http://www.w3.org/2000/svg" width="1145.08" height="574.427" xmlns:v="https://vecta.io/nano"><path d="M464.82 304.38c0 28.544-22.897 51.438-51.436 51.438h-86.566c-28.542 0-51.438-22.894-51.438-51.438V159.477c0-28.542 22.896-51.438 51.438-51.438h86.566c28.54 0 51.436 22.896 51.436 51.438zm21.013-286.668c0-9.724-7.841-17.565-17.562-17.565h0a17.54 17.54 0 0 0-17.565 17.565V50.33c-1.568-.315-3.137-.315-4.704-.315H293.571c-21.955 0-39.833 17.878-39.833 39.833v444.748c0 21.953 17.878 39.831 39.833 39.831h152.431c21.955 0 39.831-17.878 39.831-39.831V89.535c0-3.137-.312-6.273-.94-9.095.628-1.882.94-3.764.94-5.96V17.711" fill="#d7e6c9"/><path d="M325.875 108.039h87.821c27.916 0 50.811 22.896 50.811 50.811v146.158c0 27.914-22.896 50.809-50.811 50.809h-87.821c-27.913 0-50.809-22.894-50.809-50.809V158.851c0-27.916 22.896-50.811 50.809-50.811" fill="#fff"/><path d="M1051.019 160.105c1.568-13.801 6.273-19.446 21.328-21.015 15.369.313 21.013 9.41 21.956 22.897v37.637h-43.284zm-52.064 198.536h52.064V228.792h43.284v129.849h50.495V173.278c-.94-37.637-30.11-61.161-70.884-61.474-46.732-.315-73.392 21.641-75.275 59.279v187.558h.315" fill="#8bc94b"/><path d="M315.525 207.151c8.782 20.387 20.387 29.797 34.815 30.11-22.269 16.624-46.42 26.975-71.825 33.246-15.996-.941-31.051-5.017-45.793-9.096 37.324-7.213 65.238-25.091 82.802-54.26" fill="#8a3434"/><path d="M413.069 154.458l104.756 53.007c-53.319 70.254-143.335 72.138-239.309 63.042 64.297-15.681 108.52-54.886 134.553-116.048" fill="#e13041"/><path d="M216.414 134.386c-16.936-30.738-47.987-31.679-88.133-12.546-24.15-21.643-47.046-12.233-77.47.941l-.628-15.683H0v245.583h51.438V132.189c2.195 0 4.078-.313 5.959-.313 15.369 0 27.914 12.546 27.914 27.914v192.89h51.752V132.189h3.137c8.154-.313 15.995 2.823 21.641 8.47 5.959 5.645 9.095 13.486 9.095 21.328v190.694h50.811v-194.46c0-7.213-1.569-14.112-4.079-20.387-.313-1.568-.627-2.507-1.254-3.448m356.928 88.133V141.6c23.835-3.451 42.025 3.137 43.281 40.774-.628 33.558-18.503 42.027-43.281 40.145zm88.131-75.588c-8.467-17.877-26.66-29.483-46.418-29.483H521.59v235.233h50.495V246.357h33.874c31.364 0 57.711-23.21 61.786-54.26.315-1.882.315-3.764.631-5.647.312-15.368-1.882-28.855-6.902-39.519m118.243 189.127c-.312 0-1.568 0-1.882-.313-15.054-1.882-24.147-10.664-27.285-27.288-.315-2.194-.627-4.391-.627-6.585l.312-74.963h52.692 9.722 0 1.57v-31.991h-63.984v-31.677c0-9.41 5.96-18.191 14.74-21.328.316 0 .628-.313.944-.313 2.506-.941 5.016-1.256 7.526-1.256l45.163.315.315-26.347-61.162.313c-37.636 1.254-58.021 16.624-58.964 47.675v136.747c0 10.037 2.194 20.387 6.274 29.485 1.88 4.076 3.762 7.839 5.329 10.348 9.724 15.369 23.21 20.703 38.892 21.328l5.963.315h70.256v-24.465h-45.794m162.467 23.209c-9.094 4.705-22.268 7.842-37.009 7.842-17.878 0-33.561-4.391-42.028-11.292-7.842-5.331-13.799-13.173-18.503-23.209-3.452-7.842-6.274-17.25-7.842-27.914h47.985l1.882 8.155c.942 3.448 2.51 6.273 4.078 8.782 3.45 4.704 7.842 7.841 14.114 8.782 2.822.313 5.335 0 8.157-.628 5.332-1.568 9.722-3.763 12.859-6.901 7.526-7.526 9.094-19.131 3.448-32.932-2.509-6.586-6.898-12.233-12.233-16.937-33.872-28.228-71.509-55.514-75.585-92.21-2.51-31.051 7.526-47.675 23.208-56.455 21.328-11.92 46.732-14.114 69.628-5.96 16.938 5.96 28.542 18.818 33.874 39.831.94 4.079 1.882 8.47 2.51 13.174h-47.36c-2.195-16.309-12.546-25.091-24.15-23.837-4.705.628-9.095 2.822-11.92 6.586s-4.076 8.469-3.137 13.173c4.079 24.465 45.793 55.515 65.866 71.825 1.882 1.569 9.408 7.842 11.291 10.036 25.718 29.482 21.013 89.388-19.133 110.088" fill="#8bc94b"/></svg>