<svg width="363" height="111" fill="none" xmlns="http://www.w3.org/2000/svg"><path d="M67.7 66.9c-.8 1.3-2.3 1.9-3.8 1.6l-.5-.1V66l4.3.9z" fill="#FF5A5A"/><path d="M68.6 63.5l-.5 2.3c-.1.4-.3.8-.5 1.1l-4.3-1v-3.7l5.3 1.3z" fill="#154DD4"/><path d="M69.8 63.7l-.8 3.5-1.3-.3-4.4-.9v-3.7l5.3 1.2 1.2.2z" fill="#fff"/><path d="M135.8 58.1h8.1v15.5c-2.1 1.6-4.5 2.8-7.2 3.6-2.7.8-5.5 1.3-8.2 1.3-4 0-7.5-.8-10.7-2.5-3.2-1.7-5.6-4-7.4-7-1.8-3-2.7-6.4-2.7-10.2 0-3.8.9-7.2 2.7-10.2 1.8-3 4.3-5.3 7.5-7 3.2-1.7 6.8-2.5 10.8-2.5 3.3 0 6.4.6 9.1 1.7 2.7 1.1 5 2.8 6.9 4.9l-5.7 5.2c-2.7-2.9-6-4.3-9.9-4.3-2.4 0-4.6.5-6.5 1.5-1.9 1-3.4 2.4-4.4 4.3-1.1 1.9-1.6 4-1.6 6.4 0 2.4.5 4.5 1.6 6.3 1 1.9 2.5 3.3 4.4 4.3 1.9 1 4 1.6 6.4 1.6 2.5 0 4.8-.5 6.9-1.6V58.1h-.1zM180 65.5h-22.2c.4 1.8 1.3 3.2 2.8 4.3 1.5 1.1 3.3 1.6 5.6 1.6 1.5 0 2.9-.2 4.1-.7 1.2-.5 2.3-1.2 3.3-2.1l4.5 4.9c-2.8 3.2-6.8 4.7-12.1 4.7-3.3 0-6.2-.6-8.8-1.9-2.5-1.3-4.5-3.1-5.9-5.4-1.4-2.3-2.1-4.9-2.1-7.8 0-2.9.7-5.5 2-7.8 1.4-2.3 3.2-4.1 5.6-5.4 2.4-1.3 5-1.9 8-1.9 2.9 0 5.5.6 7.8 1.8 2.3 1.2 4.1 3 5.5 5.3 1.3 2.3 2 5 2 8 0 .3 0 1-.1 2.4zm-19.9-9.4c-1.3 1.1-2.1 2.6-2.4 4.5h14.4c-.3-1.9-1.1-3.3-2.4-4.4-1.3-1.1-2.9-1.7-4.8-1.7s-3.5.5-4.8 1.6zM204.7 76.4c-.8.6-1.9 1.1-3.1 1.4-1.2.3-2.5.5-3.8.5-3.5 0-6.2-.9-8.1-2.7-1.9-1.8-2.9-4.4-2.9-7.8v-12h-4.5v-6.5h4.5V42h8.5v7.1h7.3v6.5h-7.3v11.9c0 1.2.3 2.2 1 2.9.6.7 1.5 1 2.7 1 1.3 0 2.5-.4 3.4-1.1l2.3 6.1zM231.7 51.3c2.4 2.2 3.6 5.4 3.6 9.8v16.7h-7.9v-3.6c-1.6 2.7-4.6 4.1-8.9 4.1-2.3 0-4.2-.4-5.9-1.1-1.7-.8-2.9-1.8-3.8-3.2-.9-1.3-1.3-2.9-1.3-4.6 0-2.7 1-4.9 3.1-6.4 2.1-1.6 5.2-2.3 9.5-2.3h6.8c0-1.9-.6-3.3-1.7-4.3s-2.8-1.5-5.1-1.5c-1.6 0-3.1.2-4.6.7-1.5.5-2.8 1.2-3.8 2l-3.1-5.9c1.6-1.1 3.5-2 5.7-2.6 2.2-.6 4.5-.9 6.9-.9 4.6-.1 8.1 1 10.5 3.1zm-7.2 20.2c1.1-.7 1.9-1.7 2.4-3v-3H221c-3.5 0-5.2 1.1-5.2 3.4 0 1.1.4 2 1.3 2.6.9.6 2 1 3.5 1s2.7-.3 3.9-1zM267.799 50c2.2 1.3 4.001 3 5.201 5.3 1.3 2.3 1.9 4.9 1.9 7.9s-.6 5.7-1.9 7.9c-1.3 2.3-3.001 4-5.201 5.3-2.2 1.3-4.699 1.9-7.399 1.9-3.7 0-6.7-1.2-8.8-3.5v13.7H243v-40h8.1v3.4c2.1-2.5 5.199-3.8 9.199-3.8 2.8 0 5.2.6 7.5 1.9zM264.2 69.1c1.4-1.5 2.099-3.4 2.099-5.9 0-2.5-.699-4.4-2.099-5.9-1.4-1.5-3.201-2.2-5.401-2.2-2.2 0-3.999.7-5.399 2.2-1.4 1.5-2.1 3.4-2.1 5.9 0 2.5.7 4.4 2.1 5.9 1.4 1.5 3.199 2.2 5.399 2.2 2.3 0 4.001-.8 5.401-2.2zM302.4 51.3c2.4 2.2 3.6 5.4 3.6 9.8v16.7h-7.9v-3.6c-1.6 2.7-4.6 4.1-8.9 4.1-2.3 0-4.2-.4-5.9-1.1-1.7-.8-2.9-1.8-3.8-3.2-.9-1.3-1.3-2.9-1.3-4.6 0-2.7 1-4.9 3.1-6.4 2.1-1.6 5.2-2.3 9.5-2.3h6.8c0-1.9-.6-3.3-1.7-4.3s-2.8-1.5-5.1-1.5c-1.6 0-3.1.2-4.6.7-1.5.5-2.8 1.2-3.8 2l-3.1-5.9c1.6-1.1 3.5-2 5.7-2.6 2.2-.6 4.5-.9 6.9-.9 4.6-.1 8 1 10.5 3.1zm-7.3 20.2c1.1-.7 1.9-1.7 2.4-3v-3h-5.8c-3.5 0-5.2 1.1-5.2 3.4 0 1.1.4 2 1.3 2.6.9.6 2 1 3.5 1 1.4 0 2.7-.3 3.8-1zM342.2 48.5L329 79.6c-1.3 3.4-3 5.8-5 7.1-2 1.4-4.4 2.1-7.2 2.1-1.5 0-3-.2-4.5-.7-1.5-.5-2.7-1.1-3.6-2l3.1-6c.7.6 1.4 1 2.3 1.4.9.3 1.7.5 2.5.5 1.2 0 2.1-.3 2.8-.8.7-.5 1.4-1.5 2-2.8l.1-.3-12.7-29.5h8.8l8.2 19.9 8.3-19.9h8.1v-.1z" fill="#154DD4"/><path d="M87.3 49.4l-5 22.1-7.7-3.8V56.2c0-.5-.1-1.1-.2-1.6 2.2.7 4.2-.3 4.7-2.4.5-2.3-.9-5.1-3.3-6.2-1-.4-1.9-.5-2.7-.3-.6-.9-1.4-1.6-2.3-2-2.3-1.1-4.6 0-5.1 2.3-.2.9-.1 1.9.3 2.8l-34.3-7.9L35 25.5c.6-2.7 3.1-3.9 5.7-2.8l42.7 19.2c2.7 1.3 4.5 4.7 3.9 7.5z" fill="#FF5A5A"/><path d="M74.5 56.2v11.6l-8.2-4c-.8.6-1.8.8-2.9.5-.9-.2-1.8-.8-2.5-1.5-.7.4-1.6.5-2.5.3-2.2-.6-4-2.8-4.1-5.1L30.4 46.3l1.2-5.6 34.3 7.9c-.4-.9-.5-1.9-.3-2.8.5-2.3 2.8-3.3 5.1-2.3 1 .5 1.8 1.2 2.3 2 .8-.2 1.8-.1 2.7.3 2.4 1.1 3.8 3.9 3.3 6.2-.5 2.2-2.5 3.2-4.7 2.4.1.7.2 1.2.2 1.8zM29.6 51.3l44.9 22V77L33.2 56.6c-2-1-3.4-3.2-3.6-5.3z" fill="#154DD4"/><path d="M73.9 49.8c-.2.8-.6 1.5-1.2 1.9-.4.3-.8.6-1.3.6-.8.2-1.8.1-2.7-.3-1.4-.7-2.5-1.9-3-3.3-.4-.9-.5-1.9-.3-2.8.5-2.3 2.8-3.3 5.1-2.3 1 .5 1.8 1.2 2.3 2 1 1.3 1.4 2.8 1.1 4.2z" fill="#fff"/><path d="M79 52.1c-.5 2.2-2.5 3.2-4.7 2.4-.2-.1-.3-.1-.5-.2-1-.4-1.8-1.2-2.3-2.1-.5-.7-.8-1.6-1-2.4-.1-.6-.1-1.2 0-1.7.3-1.4 1.3-2.3 2.4-2.6.8-.2 1.8-.1 2.7.3 2.5 1.2 3.9 4 3.4 6.3z" fill="#154DD4"/><path d="M62 61.7l4.3 2.1c-.8.6-1.8.8-2.9.5-.9-.2-1.8-.8-2.5-1.5-.7.4-1.6.5-2.5.3-2.2-.6-4-2.8-4.1-5.1l5.3 2.6 2.4 1.1z" fill="#fff"/><path d="M74.5 77v2.7L22.3 65.9V43.8c0-2.8 2.1-4.6 4.6-4l4.6 1.1-1.2 5.6-.7 3.2c-.1.6-.1 1.2-.1 1.7.2 2.2 1.7 4.3 3.6 5.3L74.5 77z" fill="#4471DD"/><path d="M74.5 67.7v5.6l-44.9-22c-.1-.6 0-1.2.1-1.7l.7-3.2 23.8 11.5c.1 2.3 1.9 4.6 4.1 5.1.9.2 1.8.1 2.5-.3.7.7 1.6 1.3 2.5 1.5 1.1.3 2.2.1 2.9-.5l8.3 4z" fill="#4471DD"/><path d="M74.5 56.2v11.6l-8.2-4c-.8.6-1.8.8-2.9.5-.9-.2-1.8-.8-2.5-1.5-.7.4-1.6.5-2.5.3-2.2-.6-4-2.8-4.1-5.1L30.4 46.3l1.2-5.6 37.8 8.7c.4.1.8.2 1.2.4.9.4 1.6 1 2.3 1.8.7.8 1.3 1.8 1.5 2.9 0 .6.1 1.1.1 1.7zM74.5 73.3V77L33.2 56.6c-2-1-3.4-3.2-3.6-5.3l44.9 22z" fill="#154DD4"/><path d="M74.2 85.1c-.7 1.9-2.6 2.9-4.9 2.3L26.9 75.7c-2-.6-3.7-2.4-4.4-4.6l51.7 14z" fill="#4471DD"/><path d="M74.5 79.8v3.6c0 .6-.1 1.2-.3 1.7l-51.6-14c-.2-.6-.3-1.2-.3-1.8v-3.4l52.2 13.9z" fill="#154DD4"/><path d="M62.5 59.6c0 .8-.2 1.5-.6 2.1-.3.5-.7.8-1.1 1.1-.7.4-1.6.5-2.5.3-2.2-.6-4-2.8-4.1-5.1v-.3c0-2.4 1.9-4 4.2-3.4.9.2 1.8.8 2.5 1.5 1 .9 1.6 2.3 1.6 3.8z" fill="#fff"/><path d="M67.6 60.8c0 1.3-.5 2.3-1.3 2.9-.8.6-1.8.8-2.9.5-.9-.2-1.8-.8-2.5-1.5-.6-.7-1.1-1.5-1.4-2.3-.2-.5-.3-1.1-.3-1.7 0-1.5.7-2.6 1.7-3.2.7-.4 1.6-.5 2.5-.3 2.3.7 4.2 3.1 4.2 5.6z" fill="#FF5A5A"/><path d="M76.3 80.2v5.5L20.8 70.6v-5.1l55.5 14.7z" fill="#fff"/></svg>