<?xml version="1.0" encoding="UTF-8"?>
<!DOCTYPE svg  PUBLIC '-//W3C//DTD SVG 1.1//EN'  'http://www.w3.org/Graphics/SVG/1.1/DTD/svg11.dtd'>
<svg width="852.16px" height="201px" enable-background="new 0 0 852.162 201" version="1.1" viewBox="0 0 852.162 201" xml:space="preserve" xmlns="http://www.w3.org/2000/svg">
<g display="none" fill="#fff">
	<path d="m858.68 199.03h-11.228c-1.907 0-3.33-1.757-2.935-3.622l2.269-10.699c0.294-1.386 1.518-2.378 2.935-2.378h11.174c1.901 0 3.323 1.746 2.938 3.608l-2.216 10.699c-0.288 1.393-1.515 2.392-2.937 2.392z" display="inline"/>
	<path d="m994.31 153.57h-29.115l-1.603 7.506h25.561c1.907 0 3.331 1.757 2.935 3.623l-1.679 7.915c-0.294 1.386-1.518 2.377-2.935 2.377h-26.834l-1.855 8.771h28.69c1.905 0 3.327 1.752 2.936 3.616l-1.945 9.266c-0.292 1.389-1.517 2.384-2.936 2.384h-44.463c-1.907 0-3.33-1.757-2.935-3.622l11.462-54.047c0.294-1.386 1.518-2.378 2.935-2.378h43.618c1.909 0 3.333 1.76 2.934 3.627l-1.837 8.59c-0.296 1.383-1.519 2.372-2.934 2.372z" display="inline"/>
	<path d="m931.29 165.97h-18.493c-1.413 0-2.635 0.986-2.933 2.367l-1.489 6.904c-0.403 1.869 1.021 3.633 2.933 3.633h4.718c-2.193 4.807-5.735 7.421-11.217 7.421-6.916 0-10.373-4.132-10.373-12.229 0-9.276 3.711-21.674 14.927-21.674 4.468 0 7.086 1.669 8.058 5.359 0.083 0.317 0.216 0.611 0.382 0.878 0.54 0.868 1.472 1.438 2.536 1.438h11.916c1.508 0 2.744-1.116 2.956-2.565-0.376-6.649-3.314-11.549-7.698-14.82-4.566-3.407-10.696-5.049-17.137-5.049-21.505 0-34.409 16.276-34.409 36.77 0 15.181 8.518 25.892 24.289 25.892 7.337 0 12.734-2.361 16.614-7.169l-0.26 2.606c-0.177 1.766 1.21 3.298 2.985 3.298h5.898c1.415 0 2.637-0.988 2.934-2.371l5.799-27.061c0.398-1.867-1.026-3.628-2.936-3.628z" display="inline"/>
</g>
<path d="m19.353 3.107c0.416-1.818 2.034-3.107 3.898-3.107h33.77c21.464 0 35.613 10.98 32.075 33.798-3.049 18.791-16.587 30.505-35.245 30.505h-15.218l-5.543 24.577c-0.411 1.824-2.032 3.12-3.902 3.12h-25.186c-2.57 0-4.473-2.389-3.899-4.893l19.25-84zm24.582 37.958h3.294c5.855 0 12.208-0.997 13.538-8.418 1.229-6.853-4.535-7.594-10.022-7.594h-3.171l-3.639 16.012z"/>
<path d="m189.39 3.129c0.417-1.818 2.034-3.106 3.899-3.106h32.733c20.808-0.557 38.365 9.167 34.709 32.346-2.196 13.905-11.373 19.24-24.423 23.388 3.802 1.847 9.767 21.635 12.448 31.167 0.717 2.551-1.203 5.076-3.853 5.076h-24.283c-1.872 0-3.492-1.293-3.902-3.119-1.696-7.547-5.977-26.18-6.927-26.227-0.608-0.03-0.608 0-0.608 0l-6.04 26.243c-0.418 1.816-2.035 3.103-3.898 3.103h-25.206c-2.57 0-4.473-2.389-3.899-4.894l19.25-83.977zm24.689 37.469h2.318c6.521 0.303 13.242-1.247 14.503-8.05 1.306-7.045-3.316-8.004-10.294-8.004h-2.819l-3.708 16.054z"/>
<path d="m98.375 92h-24.155c-2.994 0-4.927-3.169-3.556-5.831l43.248-84c0.685-1.332 2.058-2.169 3.556-2.169h28.144c1.995 0 3.685 1.47 3.961 3.446l11.747 84c0.336 2.406-1.532 4.554-3.961 4.554h-24.337c-2.127 0-3.881-1.664-3.994-3.788l-0.409-7.688-22.75-0.014-3.807 9.042c-0.625 1.483-2.077 2.448-3.687 2.448zm29.082-33.326s-0.597-14.509-1.326-24.944l-0.58 0.027-10.608 24.917h12.514z"/>
<path d="M280.158,0h25.208c2.57,0,4.473,2.389,3.899,4.893l-19.248,84C289.6,90.711,287.983,92,286.118,92h-25.21  c-2.57,0-4.473-2.389-3.899-4.893l19.25-84C276.675,1.289,278.293,0,280.158,0z"/>
<linearGradient id="b" x1="305.41" x2="485.12" y1="46" y2="46" gradientUnits="userSpaceOnUse">
	<stop stop-color="#FDD900" offset="0"/>
	<stop stop-color="#FBAF17" offset="1"/>
</linearGradient>
<path d="m324.6 3.114l-19.087 84c-0.569 2.503 1.334 4.886 3.901 4.886h152.62c1.868 0 3.487-1.292 3.901-3.114l19.087-84c0.568-2.503-1.334-4.886-3.901-4.886h-152.62c-1.868 0-3.487 1.292-3.901 3.114z" fill="url(#b)"/>
<linearGradient id="a" x1="200.46" x2="380.17" y1="153" y2="153" gradientUnits="userSpaceOnUse">
	<stop stop-color="#FDD900" offset="0"/>
	<stop stop-color="#FBAF17" offset="1"/>
</linearGradient>
<path d="m219.65 110.11l-19.087 84c-0.569 2.503 1.334 4.886 3.901 4.886h152.62c1.868 0 3.487-1.292 3.901-3.114l19.087-84c0.569-2.503-1.334-4.886-3.901-4.886h-152.62c-1.868 0-3.487 1.292-3.901 3.114z" fill="url(#a)"/>
	<path d="m520.49 199h-24.155c-2.994 0-4.927-3.169-3.556-5.831l43.248-84c0.686-1.332 2.058-2.169 3.556-2.169h28.144c1.995 0 3.685 1.47 3.961 3.446l11.747 84c0.336 2.406-1.532 4.554-3.961 4.554h-24.337c-2.127 0-3.881-1.664-3.994-3.788l-0.409-7.688-22.75-0.014-3.807 9.042c-0.625 1.483-2.078 2.448-3.687 2.448zm29.082-33.326s-0.597-14.509-1.326-24.944l-0.58 0.027-10.608 24.917h12.514z"/>
	<path d="m399.3 107h28.953c2.128 0 3.884 1.667 3.995 3.792l2.317 44.49h0.678c1.762-4.011 18.417-37.177 22.896-46.086 0.679-1.351 2.058-2.196 3.57-2.196h34.235c2.561 0 4.462 2.373 3.904 4.873l-18.777 84c-0.409 1.828-2.031 3.127-3.904 3.127h-20.657c-2.561 0-4.462-2.373-3.904-4.872l10.191-45.596-0.776 0.056c-0.925 2.645-19.223 38.876-23.952 48.224-0.681 1.346-2.058 2.188-3.566 2.188h-13.74c-2.122 0-3.874-1.651-3.993-3.77-0.628-11.166-2.405-43.493-2.108-46.7l-10.582 47.343c-0.409 1.828-2.031 3.127-3.904 3.127h-19.835c-2.564 0-4.466-2.379-3.902-4.881l18.958-84c0.413-1.824 2.034-3.119 3.903-3.119z"/>
	<path d="m594.72 107h68.737c2.566 0 4.468 2.382 3.901 4.884l-4.816 21.248c-0.414 1.825-2.037 3.119-3.908 3.116l-17.937-0.03-13.758 59.681c-0.419 1.815-2.035 3.101-3.898 3.101h-25.2c-2.573 0-4.477-2.394-3.897-4.901l13.38-57.881-17.403 0.028c-2.568 4e-3 -4.474-2.378-3.908-4.883l4.806-21.245c0.412-1.824 2.032-3.118 3.901-3.118z"/>
	<path d="m768.86 107h25.035c2.554 0 4.453 2.36 3.908 4.855l-5.722 26.145h20.495l6.435-27.899c0.419-1.815 2.035-3.101 3.898-3.101h25.251c2.57 0 4.473 2.389 3.899 4.894l-19.259 84c-0.417 1.818-2.034 3.106-3.899 3.106h-25.171c-2.569 0-4.471-2.386-3.9-4.89l6.182-27.075-20.669-0.019-6.506 28.865c-0.411 1.824-2.032 3.12-3.902 3.12h-25.254c-2.568 0-4.471-2.386-3.9-4.89l19.178-84c0.416-1.821 2.034-3.111 3.901-3.111z"/>
	<path d="m721.93 139.07c-1.389 0-2.62-0.759-3.402-1.907-1.022-1.5-2.922-2.667-6.459-2.669-8.933-0.013-15.697 15.98-16.388 21.486-0.793 6.294-0.441 14.102 6.696 15.431 3.178 0.591 7.539-1.317 9.946-5.025 0.73-1.125 1.99-1.793 3.331-1.791l25.942 0.033c2.561 3e-3 4.444 2.372 3.899 4.874-2.121 9.747-10.382 30.79-42.219 31.476-31.839 0.684-45.403-18.772-42.588-44.854 3.276-30.399 23.587-52.431 57.02-51.068 31.665 1.291 34.876 21.377 34.773 30.063-0.026 2.192-1.809 3.951-4.002 3.951h-26.549z"/>
</svg>
