<svg width="113" height="40" xmlns="http://www.w3.org/2000/svg"><g fill="none" fill-rule="evenodd"><path fill="#9D1D27" d="M0 40h112.157V0H0z"/><g fill="#FEFEFE"><path d="M8.408 8.427h22.991V31.48H8.407V8.427zm24.927-1.94H6.471V33.42h26.864V6.487z"/><path d="M10.948 15.464h17.91v-4.489h-17.91zM10.948 28.93h4.477v-4.488h-4.477zM10.948 22.197h11.177v-4.502H10.948z"/></g><g fill="#FEFEFE"><path d="M44.706 12.502v5.8h1.61c1.768 0 2.174-.677 2.174-2.93 0-2.402-.258-2.87-2.371-2.87h-1.413zm1.855-1.514c2.776 0 3.771 1.207 3.771 4.37 0 3.043-1.056 4.459-3.783 4.459h-3.66v-8.83h3.672zM39.363 19.816h1.818v-8.828h-1.818zM51.745 10.988h6.19v1.514h-4.373v2.069h3.82v1.515h-3.82v3.73h-1.817zM66.411 16.91c-.123 1.724-1.08 3.104-3.796 3.104-2.653 0-3.991-1.318-3.991-4.568 0-3.178 1.265-4.656 4.004-4.656 2.162 0 3.488.924 3.783 2.944h-1.818c-.208-.788-.466-1.392-1.965-1.392s-2.162.9-2.162 3.263c0 1.835.492 2.857 2.187 2.857 1.216 0 1.793-.381 1.94-1.552h1.818zM71.25 10.988h6.192v1.514h-4.373v2.069h3.82v1.515h-3.82v3.73H71.25zM78.621 19.816h1.818v-8.828H78.62zM83.965 12.502v2.328h1.633c1.462 0 1.953-.148 1.953-1.256 0-.887-.307-1.072-1.843-1.072h-1.743zm-1.818-1.514h3.82c1.83 0 3.426.05 3.426 2.647 0 1.724-.712 2.364-1.719 2.599l2.297 3.583h-2.21l-2.163-3.473h-1.633v3.473h-1.818v-8.83zM92.268 17.046c.074.923.21 1.416 1.954 1.416.92 0 1.596-.135 1.596-1.034 0-.542-.245-.838-1.02-1.047l-2.137-.579c-1.068-.283-2.014-.8-2.014-2.413 0-1.268.577-2.599 3.304-2.599 2.592 0 3.403 1.207 3.44 2.784h-1.818c-.086-.74-.123-1.232-1.696-1.232-.92 0-1.388.173-1.388.874 0 .64.381.825.897.96l1.966.53c1.253.333 2.309.826 2.309 2.587 0 2.487-2.125 2.72-3.44 2.72-2.874 0-3.66-1.132-3.77-2.967h1.817zM100.744 12.54h-2.653v-1.552h7.112v1.551h-2.641v7.277h-1.818zM41.18 29.173v2.328h1.634c1.659 0 2.027-.123 2.027-1.133 0-1.059-.344-1.195-1.67-1.195h-1.99zm0-3.472v1.958h2.04c1.093 0 1.363-.135 1.363-1.047 0-.739-.172-.911-1.707-.911H41.18zm2.482-1.515c1.732 0 2.678.616 2.678 2.29 0 1.368-.627 1.65-1.007 1.81 1.08.42 1.35 1.257 1.35 2.18 0 1.453-.663 2.549-3.095 2.549h-4.225v-8.829h4.299zM51.707 30.023l-1.191.197c-.651.099-1.118.234-1.118.924 0 .492.246.763 1.007.763 1.044 0 1.302-.566 1.302-1.366v-.518zm-3.82-1.527c.086-1.674 1.044-2.13 2.788-2.13 1.794 0 2.74.48 2.74 1.896v4.753h-1.634v-.492c-.332.345-.958.653-1.99.653-1.547 0-2.1-.69-2.1-1.798 0-1.441.933-1.983 1.879-2.13l2.137-.333v-.394c0-.604-.306-.776-1.105-.776-.848 0-1.02.197-1.106.751h-1.608zM59.09 29.284c0-.997-.012-1.514-1.106-1.514-1.216 0-1.35.64-1.35 2.167v3.078h-1.709v-6.49h1.622v.838c.467-.627.97-.997 2.162-.997 1.659 0 2.089.714 2.089 2.684v3.965H59.09v-3.73zM62.444 24.186h1.707v4.741l2.1-2.4h2.101l-2.26 2.461 2.346 4.027H66.46l-1.572-2.82-.737.764v2.056h-1.707z"/></g></g></svg>