<svg width="596" height="54" viewBox="0 0 596 54" fill="none" xmlns="http://www.w3.org/2000/svg">
<g clip-path="url(#clip0_707_1658)">
<path d="M0 0H12V53.91H0V0Z" fill="#004375"/>
<path d="M83.62 0H95.62V53.91H83.62L57.94 20.13V53.91H45.94V0H57.16L83.62 34.71V0Z" fill="#004375"/>
<path d="M152.33 10.41V53.91H140.33V10.41H125V0H167.6V10.41H152.33Z" fill="#004375"/>
<path d="M235.85 0V10.72H209V21.82H235.85V32.08H209V43.27H235.76V53.91H197V0H235.85Z" fill="#004375"/>
<path d="M311.73 17.9C311.73 26.5667 308.31 32.1433 301.47 34.63L315.12 53.91H300.32L288.32 36.71H280V53.91H268V0H288.43C296.81 0 302.79 1.41333 306.37 4.24C309.95 7.06667 311.737 11.62 311.73 17.9ZM288.82 26.3C292.933 26.3 295.737 25.6333 297.23 24.3C298.723 22.9667 299.47 20.8467 299.47 17.94C299.47 15.0333 298.697 13.0333 297.15 11.94C295.603 10.8467 292.903 10.3067 289.05 10.32H280.05V26.32L288.82 26.3Z" fill="#004375"/>
<path d="M364.57 34.32L378.3 0H391.3L369.65 53.91H359.48L337.81 0H350.81L364.57 34.32Z" fill="#004375"/>
<path d="M493 53.91V0H505V43.19H528V53.91H493Z" fill="#004375"/>
<path d="M595.28 0V10.72H568.44V21.82H595.28V32.08H568.44V43.27H595.22V53.91H556.41V0H595.28Z" fill="#004375"/>
<path d="M438.74 19.59L452.47 53.91H465.47L443.83 0H433.65L412 53.91H425L438.74 19.59Z" fill="#004375"/>
</g>
<defs>
<clipPath id="clip0_707_1658">
<rect width="595.28" height="53.88" fill="white"/>
</clipPath>
</defs>
</svg>
