<svg xmlns="http://www.w3.org/2000/svg" xml:space="preserve" style="shape-rendering:geometricPrecision;text-rendering:geometricPrecision;image-rendering:optimizeQuality;fill-rule:evenodd;clip-rule:evenodd" viewBox="0 0 17330.82 2044.91" class="logo"><path d="M7287.9 1111.93v840.81h-289.25v-813.38c0-126.75-27.86-217.78-82.72-273.89-46.13-46.98-111.79-74.41-196.16-81.89-16.64-1.64-34.09-2.49-51.97-2.49-55.3 0-105.99 10.4-152.94 30.35-46.97 20.37-87.71 48.21-122.6 84.36-34.94 35.76-62.63 82.69-82.17 132.99-19.11 50.7-28.69 107.23-28.69 169.58l.71 635.07c-.42 0-.42-.4-.85-.4v119.7h-288.82V547.09h288.82V669.7l14.97-.02c45.6-39.36 85.21-66.49 142.15-91 51.12-21.62 104.73-36.98 160.42-45.71 41.15-7.08 83.54-10.39 127.18-10.39 102.67 0 198.26 18.7 287.21 56.1 9.98 4.15 19.95 8.74 29.5 13.3 36.59 21.2 69.83 46.99 99.33 77.73 97.25 100.15 145.88 247.71 145.88 442.23zm3851.51-1088.2v1928.99h288.78v-122.51h14.94c42.21 35.31 88.88 71.12 142.19 93.62 88.91 37.58 184.71 56.38 287.42 56.38 102.65 0 198.42-18.8 287.4-56.38 88.92-37.59 165.91-88.94 231.03-154.02 65.06-65.11 116.43-142.13 154.03-231.02 37.55-88.97 56.37-184.73 56.37-287.44 0-102.64-18.82-198.44-56.37-287.37-37.6-88.92-88.97-165.96-154.03-231.03-65.12-65.1-142.1-116.45-231.03-154.03-88.98-37.53-184.75-56.39-287.4-56.39-102.71 0-198.51 18.86-287.42 56.39-54.51 23.04-99.55 53.88-142.19 90.85h-14.94V23.72h-288.78zm288.78 1227.62c0-142.96 41.1-256.71 123.33-341.01 82.17-84.34 189.29-126.5 321.22-126.5 131.91 0 238.99 42.16 321.21 126.5 82.17 84.29 123.32 198.05 123.32 341.01 0 143.04-41.15 256.74-123.32 341.09-82.22 84.29-189.3 126.5-321.21 126.5-131.93 0-239.05-42.21-321.22-126.5-82.23-84.34-123.33-198.05-123.33-341.09zM1989.37 23.56v122.52h-14.91c-21.31-25.86-158.33-165.75-495.09-87.82-261.35 60.47-548.38 210.68-808.18 422.06-259.93 211.6-465 462.13-577.56 705.68-127.68 276.43-124.69 518.83 8.47 682.45 94.83 116.45 242.18 176.47 426.2 176.47 74.42 0 154.92-9.74 240.23-29.67 261.4-60.7 548.38-210.56 808.29-422.06 91.82-74.77 176.81-154.35 253.17-236.91 0 0 83.91-102.48 104.22-132.24 13.45-19.74 27.71-39.36 41.31-63.45h13.74v.11c.11 0 .11-.11.11-.11v792.15h288.77V23.56h-288.77zm-71.28 735.67c-97.61 211.04-279.94 431.94-513.61 622.06-233.81 190.26-487.18 323.96-713.53 376.61-184.59 42.96-321.65 14.8-382.09-59.43-132.41-162.75 62.86-622.37 534.68-1006.27 233.69-190.24 487.06-323.96 713.53-376.59 65.27-15.22 125.8-22.65 179.39-22.65 48.99 0 92.15 6.25 128.03 18.39 35.76 12.28 64.33 30.47 83.8 54.42 60.54 74.35 49.22 221.41-30.21 393.46zM16035.5 23.55h289.37v1074.82h206.68l427.19-551.2h330.71l-509.84 647.68 551.2 757.88h-358.29l-427.18-592.54h-220.47v592.54h-289.37V23.54zM5428.61 547.19v122.59h-14.91c-42.65-36.96-87.7-67.83-142.22-90.83-88.9-37.55-184.7-56.42-287.42-56.42-102.63 0-198.44 18.87-287.39 56.42-88.93 37.55-165.91 88.93-231.04 154-65.05 65.08-116.4 142.1-154.02 231.03-37.55 88.93-56.37 184.73-56.37 287.4 0 102.69 18.82 198.45 56.37 287.42 37.62 88.88 88.97 165.93 154.02 231.03 65.13 65.05 142.1 116.41 231.04 154.03 88.95 37.55 184.76 56.35 287.39 56.35 102.72 0 198.52-18.8 287.42-56.35 53.32-22.54 100.01-58.35 142.2-93.66h14.93v122.53h288.79V547.2h-288.79zm-123.29 1045.25c-82.2 84.29-189.32 126.5-321.26 126.5-131.91 0-238.98-42.21-321.2-126.5-82.17-84.33-123.32-198.04-123.32-341.06 0-142.99 41.15-256.72 123.32-341.04 82.22-84.33 189.29-126.5 321.2-126.5 131.94 0 239.06 42.17 321.26 126.5 82.19 84.31 123.29 198.05 123.29 341.04 0 143.02-41.1 256.72-123.29 341.06zm8614.46-1042.41v119.76h-14.92c-42.65-36.98-87.67-67.83-142.21-90.85-88.9-37.53-184.68-56.4-287.42-56.4-102.64 0-198.42 18.87-287.39 56.4-88.91 37.57-165.91 88.92-231.04 154.03-65.05 65.05-116.41 142.07-154.03 231.01-37.54 88.94-56.37 184.75-56.37 287.39 0 102.69 18.83 198.47 56.37 287.42 37.62 88.9 88.98 165.93 154.03 231.03 65.13 65.06 142.12 116.43 231.04 154.03 88.97 37.57 184.75 56.37 287.39 56.37 102.74 0 198.52-18.8 287.42-56.37 53.32-22.52 100-58.35 142.21-93.65h14.92v122.52h288.78V550.04h-288.78zm-123.29 1042.4c-82.2 84.32-189.32 126.5-321.26 126.5-131.89 0-238.98-42.18-321.2-126.5-82.17-84.34-123.33-198.04-123.33-341.06 0-142.99 41.16-256.71 123.33-341.04 82.22-84.34 189.31-126.47 321.2-126.47 131.94 0 239.06 42.13 321.26 126.47 82.19 84.32 123.29 198.05 123.29 341.04 0 143.02-41.1 256.71-123.29 341.06zm1982.52-480.41v840.71h-289.26v-813.37c0-126.66-27.78-217.72-82.69-273.82-46.15-47.04-111.84-74.37-196.14-81.89-16.65-1.62-34.09-2.5-51.94-2.5-55.34 0-105.99 10.33-152.93 30.38-47.05 20.37-87.79 48.14-122.64 84.31-34.96 35.71-62.63 82.64-82.22 132.97-19.08 50.77-28.65 107.28-28.65 169.58l.75 635.09c-.42 0-.42-.44-.87-.44v119.69h-288.83V547.18h288.83v122.55h14.94c45.64-39.34 85.28-66.45 142.12-90.96 23.31-9.9 47.06-18.39 71.34-25.59 29.11-8.71 58.72-15.36 89.09-20.14 41.17-7.08 83.53-10.47 127.23-10.47 102.68 0 198.21 18.73 287.21 56.2 9.99 4.15 19.92 8.72 29.5 13.3 36.61 21.13 69.83 46.94 99.32 77.67 97.28 100.19 145.84 247.77 145.84 442.29zm-6788.77 139.35c0-102.68 18.28-198.44 55-287.41 36.66-88.91 87.54-165.94 152.64-231.04 65.06-65.05 141.16-116.41 228.26-154.03 87.07-37.55 180.17-56.35 279.18-56.35 99.02 0 192.05 18.8 279.14 56.35 87.07 37.62 163.18 88.98 228.28 154.03 65.08 65.1 115.96 142.12 152.67 231.04 36.65 88.97 55 184.73 55 287.41v96.25H9279.03c21.98 117.34 72.42 208.6 151.27 273.65 78.8 65.1 170.5 97.63 275.02 97.63 71.51 0 132.93-9.64 184.29-28.89 51.29-19.25 92.54-41.67 123.74-67.41 34.82-25.62 65.08-57.73 90.74-96.24h302.57a947.959 947.959 0 0 1-63.29 121.02c-23.85 38.49-51.34 74.28-82.5 107.27-27.5 27.51-58.7 54.54-93.49 81.1-34.87 26.64-75.22 50.89-121.01 72.92-45.89 22-96.75 39.45-152.65 52.25-55.97 12.8-118.75 19.29-188.4 19.29-99.01 0-192.11-18.89-279.18-56.39-87.09-37.58-163.2-88.95-228.26-154.05-65.1-65.05-115.98-142.07-152.64-231.01-36.72-88.92-55-184.73-55-287.4zm1127.64-137.53c-7.37-42.16-21.13-82.92-41.27-122.38-20.21-39.41-47.71-74.25-82.52-104.52-34.85-30.24-76.09-55.01-123.75-74.26-47.72-19.25-102.71-28.87-165.02-28.87-97.2 0-184.75 28.87-262.67 86.62-77.94 57.74-127.88 138.92-149.88 243.41h825.12zm-2654.06 137.53c0-106.31 17.86-203.97 53.63-292.9 35.76-88.92 84.78-165.93 147.15-231.06 62.3-65.07 136.54-115.49 222.77-151.27 86.15-35.78 178.78-53.6 277.78-53.6 71.52 0 135.2 7.3 191.15 22 55.93 14.66 105.89 33.96 149.91 57.74 44 23.86 82.92 51.34 116.85 82.53 33.93 31.17 63.72 62.32 89.4 93.46 29.31 36.73 54.53 76.12 75.64 118.27 21.05 42.23 38.04 87.13 50.89 134.76h-302.55c-12.84-45.81-36.7-87.05-71.5-123.73-27.51-31.17-65.13-59.62-112.76-85.28-47.71-25.64-110.03-38.49-187.03-38.49-55.01 0-106.83 10.96-155.39 32.99-48.62 22-90.74 53.2-126.5 93.51-35.76 40.37-64.21 89.37-85.26 147.16-21.13 57.76-31.65 122.36-31.65 193.9 0 71.48 10.52 136.12 31.65 193.86 21.06 57.81 49.51 106.86 85.26 147.18 35.76 40.35 77.89 71.48 126.5 93.47 48.56 22.02 100.38 33.03 155.39 33.03 78.82 0 143.04-12.8 192.54-38.51 49.5-25.65 88.9-54.05 118.24-85.23 33.01-36.71 57.76-77.93 74.28-123.78h288.78c-23.86 93.5-66.02 178.76-126.52 255.76-25.69 31.2-55.48 61.9-89.4 92.12-33.93 30.26-72.86 57.36-116.85 81.15-44.02 23.83-93.98 43.1-149.91 57.78-55.95 14.63-119.63 22.02-191.15 22.02-99 0-191.63-17.9-277.78-53.64-86.22-35.78-160.47-86.17-222.77-151.29-62.37-65.08-111.39-142.08-147.15-231.02-35.77-88.92-53.63-186.58-53.63-292.9zM3750.97 173.28c0-47.66 16.51-88.45 49.5-122.38C3833.46 16.98 3873.8.01 3921.49.01c47.64 0 88.43 16.97 122.38 50.89 33.93 33.93 50.89 74.73 50.89 122.38 0 47.69-16.96 88.01-50.89 121.02-33.95 33.01-74.75 49.5-122.38 49.5-47.7 0-88.03-16.49-121.02-49.5-32.99-33.01-49.5-73.34-49.5-121.02zm27.48 376.78h288.78v1402.69h-288.78V550.06zM3181.58 23.55h288.79v1929.18h-288.79V23.55zm-596.08 0h288.78v1929.18H2585.5V23.55z" style="fill:#32337b;fill-rule:nonzero"/></svg>