<?xml version="1.0" encoding="utf-8"?>
<svg width="153px" height="36px" viewbox="0 0 153 36" version="1.1" xmlns:xlink="http://www.w3.org/1999/xlink" xmlns="http://www.w3.org/2000/svg">
  <g id="trustpay_logo-2">
    <g id="trustpay_logo-3">
      <g id="trustpay_logo">
        <path d="M0 4.83869L0.959928 0L23.2082 0L22.2483 4.83869L13.9848 4.83869L9.49336 27.5224L3.80735 27.5224L8.30393 4.83869L0 4.83869ZM83.2497 11.6148L86.7091 11.6148L87.5565 7.31829L84.097 7.31829L85.0857 2.32457L79.7468 2.32457L78.7582 7.31829L76.1035 7.31829L75.2561 11.6148L77.902 11.6148L76.1697 20.365C75.0892 25.8208 74.6868 27.8552 79.6836 27.8552C80.9767 27.8412 82.2699 27.7376 83.5454 27.5451L84.3302 23.5932C83.8933 23.6505 83.4534 23.677 83.0113 23.6711C80.8717 23.6711 80.9754 23.1374 81.5187 20.3428L81.5284 20.293L83.2497 11.6148ZM62.5991 24.0642C59.7141 24.0642 58.6395 23.5131 58.8807 21.3091L53.5419 21.3032C52.7806 26.2881 56.5475 28.019 61.7767 28.019C67.3222 28.019 71.3164 26.0963 72.2587 21.3407C72.9229 17.9251 71.3598 16.502 67.8452 15.6211L63.0845 14.4301C61.478 14.0077 61.0382 13.5118 61.2309 12.5471C61.4582 11.3966 62.2394 10.7449 65.0441 10.7449C67.5039 10.7449 68.0239 11.2416 67.9342 13.0496L73.273 13.0496C73.9799 8.13306 70.8684 6.7871 65.9033 6.7871C59.4493 6.7871 56.582 9.05437 55.7744 13.1238C55.0646 16.6974 56.6196 17.9625 59.4383 18.6913L64.7793 20.0351C66.5263 20.531 66.9809 20.9557 66.7536 22.1069C66.4608 23.5131 65.4031 24.0642 62.5991 24.0642ZM20.694 7.29551L16.6829 27.5224L22.0386 27.5224L23.5186 20.0402C24.4351 15.4344 25.5039 11.9792 29.7305 11.9792C30.2852 11.9704 30.8369 12.0078 31.3856 12.0938L32.4 6.98841C31.952 6.89363 31.4945 6.85322 31.0377 6.87086C28.383 6.87086 26.8831 7.72016 25.2281 9.82947L25.7305 7.29551L20.694 7.29551ZM37.8337 28.0418C40.2125 28.0418 42.7988 27.5944 44.626 25.3903L44.2067 27.5393L49.238 27.5393L53.2491 7.31241L47.9074 7.31241L45.5911 18.9816C44.8474 22.741 43.3961 23.6652 40.5921 23.6652C37.8991 23.6652 37.2099 22.8189 37.7616 20.0953L40.2956 7.31241L34.9487 7.31241L32.3507 20.4362C31.2135 26.2337 32.9575 28.0418 37.8337 28.0418Z" transform="matrix(1 0 0 1 -2.1316282E-13 4.440892E-14)" id="Combined-Shape" fill="#00A4F0" fill-rule="evenodd" stroke="none" />
        <path d="M10.2061 4.72114L8.61728 12.7455L12.1922 12.7455C16.766 12.7455 18.3924 12.2833 19.1596 8.40857C19.7775 5.30082 18.8896 4.72114 14.129 4.72114L10.2061 4.72114ZM5.45651 0L15.873 0C21.5936 0 26.4867 0.55102 24.8809 8.64147C23.3347 16.43 18.4814 17.4578 13.0256 17.4578L7.68089 17.4578L5.68675 27.5136L0 27.5136L5.45651 0ZM36.0808 18.1954L32.219 18.8118C30.1219 19.1189 28.5757 19.5384 28.1535 21.6882C27.8431 23.2259 28.4433 24.07 30.8288 24.07C34.0925 24.07 35.2422 22.3046 35.7476 19.8081L36.0808 18.1954ZM25.0471 13.4398C26.355 8.21682 29.6305 6.79298 35.087 6.79298C40.6987 6.79298 43.3623 8.29396 42.4855 12.708L39.549 27.5224L34.4375 27.5224L34.745 25.9869C33.4923 27.0889 31.34 28.0249 28.1248 28.0249C23.2803 28.0249 21.9783 25.8752 22.6624 22.4199C23.5502 17.9309 26.8118 16.2382 29.8343 15.7761L36.7303 14.7394L36.9745 13.5169C37.3423 11.6317 36.4949 11.0976 33.9947 11.0976C31.34 11.0976 30.6846 11.7096 30.0726 13.4398L25.0471 13.4398ZM50.8585 7.29551C50.8902 12.2488 51.419 17.1882 52.4363 22.0349L59.8031 7.29551L65.4119 7.29551L54.1804 27.5224C50.643 33.9362 49.5308 35.6613 44.6149 35.6613C43.7271 35.6613 42.8393 35.6099 41.9544 35.5063L42.7819 31.3251C43.0688 31.3707 43.3593 31.3964 43.6491 31.4023C45.7242 31.4023 47.1924 31.1701 48.465 28.0646C46.715 21.2547 45.5572 14.3038 45.0055 7.29551L50.8585 7.29551Z" transform="translate(86.96726 0)" id="Fill-5" fill="#000000" fill-rule="evenodd" stroke="none" />
      </g>
    </g>
  </g>
</svg>