<?xml version="1.0" encoding="UTF-8" standalone="no"?>
<!-- Created with Inkscape (http://www.inkscape.org/) -->

<svg
   xmlns:dc="http://purl.org/dc/elements/1.1/"
   xmlns:cc="http://creativecommons.org/ns#"
   xmlns:rdf="http://www.w3.org/1999/02/22-rdf-syntax-ns#"
   xmlns:svg="http://www.w3.org/2000/svg"
   xmlns="http://www.w3.org/2000/svg"
   xmlns:sodipodi="http://sodipodi.sourceforge.net/DTD/sodipodi-0.dtd"
   xmlns:inkscape="http://www.inkscape.org/namespaces/inkscape"
   width="59.711498mm"
   height="6.5781898mm"
   viewBox="0 0 59.711498 6.5781898"
   version="1.1"
   id="svg8"
   sodipodi:docname="Akbank_logo.svg"
   inkscape:version="0.92.3 (2405546, 2018-03-11)">
  <defs
     id="defs2" />
  <sodipodi:namedview
     id="base"
     pagecolor="#00ffff"
     bordercolor="#666666"
     borderopacity="1.0"
     inkscape:pageopacity="0"
     inkscape:pageshadow="2"
     inkscape:zoom="0.7"
     inkscape:cx="107.11864"
     inkscape:cy="-181.55992"
     inkscape:document-units="mm"
     inkscape:current-layer="layer1"
     showgrid="false"
     inkscape:window-width="1920"
     inkscape:window-height="1001"
     inkscape:window-x="-9"
     inkscape:window-y="-9"
     inkscape:window-maximized="1"
     fit-margin-top="0"
     fit-margin-left="0"
     fit-margin-right="0"
     fit-margin-bottom="0" />
  <metadata
     id="metadata5">
    <rdf:RDF>
      <cc:Work
         rdf:about="">
        <dc:format>image/svg+xml</dc:format>
        <dc:type
           rdf:resource="http://purl.org/dc/dcmitype/StillImage" />
        <dc:title></dc:title>
      </cc:Work>
    </rdf:RDF>
  </metadata>
  <g
     inkscape:label="Layer 1"
     inkscape:groupmode="layer"
     id="layer1"
     transform="translate(-73.898711,-93.266576)">
    <path
       id="path765"
       d="m 124.31215,99.844766 h 2.32015 v -2.36334 h 0.77691 l 2.86044,2.36287 h 3.34056 l -4.00214,-3.2528 3.72143,-3.32492 h -3.28037 l -2.61695,2.31324 h -0.88212 v -2.31279 h -2.23745 v 6.57774 z m -43.591733,-6.57774 3.543628,6.57727 h -2.465333 l -0.614726,-1.11549 h -4.086222 l -0.62713,1.11549 h -2.571923 l 3.64195,-6.57727 z m -0.503083,3.79678 -1.095754,-1.91768 -0.0078,-0.0156 -1.087941,1.93331 z m 4.383479,2.77959 h 2.32796 v -2.36197 h 0.775987 l 2.861367,2.36287 h 3.340559 l -4.011335,-3.2528 3.728782,-3.32447 h -3.279454 l -2.617406,2.31279 h -0.889928 v -2.31279 h -2.236993 v 6.57637 z m 13.756429,-6.57637 c 0.882576,0 1.765148,0 2.647728,0 0.39603,0 1.14124,0.35927 1.39255,1.13204 0.20537,0.65011 0.0606,1.72013 -0.49481,2.11111 0.40338,0.16809 0.67721,0.80311 0.71534,1.46055 v 0.26005 c -0.008,0.11478 -0.0225,0.22879 -0.0459,0.33584 -0.14519,0.72683 -0.71534,1.27723 -1.17156,1.27723 -1.01995,0 -2.032087,0 -3.043765,0 -1.339715,0 -2.678512,0 -4.010417,0 -0.0064,-2.18874 -0.0064,-4.38301 -0.01424,-6.57727 1.339715,4.5e-4 2.686322,4.5e-4 4.025118,4.5e-4 z m 0,4.74872 H 100.008 c 0.19801,0 0.36479,-0.16079 0.36479,-0.35146 0,-0.19021 -0.16724,-0.34458 -0.36479,-0.34458 h -3.567985 v 0.69604 z m 0,-2.36287 h 1.559784 c 0.198934,0 0.358364,-0.16132 0.358364,-0.35238 0,-0.19113 -0.15943,-0.35148 -0.358364,-0.35148 h -3.476551 v 0.7034 h 1.916767 z m 15.278998,-2.38585 v 6.57727 h 2.35048 v -4.41746 l 3.34607,4.41656 h 3.62449 v -6.57637 h -2.32061 v 4.59527 l -3.40856,-4.59527 z m -3.95023,0 3.54317,6.57727 h -2.45752 l -0.61105,-1.09299 h -4.08668 l -0.61749,1.09299 h -2.571 l 3.64149,-6.57727 z m -0.47046,3.79678 -1.10357,-1.91768 -0.008,-0.0156 -1.08794,1.93329 z"
       inkscape:connector-curvature="0"
       style="fill:#df392e;stroke-width:0.45943588" />
  </g>
</svg>
