<svg width="130" height="20" viewBox="0 0 130 20" fill="none" xmlns="http://www.w3.org/2000/svg">
<path d="M1.87599 2.51395C5.30155 2.50419 8.72851 2.53208 12.1541 2.5C12.1918 3.1318 12.1667 3.76639 12.1737 4.39958H1.87599C1.87738 3.77057 1.87319 3.14157 1.87599 2.51395ZM19.4276 2.5L21.3775 2.50279C23.0099 5.08717 24.5429 7.73571 26.1711 10.3229C26.1725 11.5488 26.1753 12.7762 26.1683 14.0035C24.5317 11.5391 23.1022 8.93515 21.4642 6.47071C21.4754 10.1109 21.4698 13.751 21.467 17.3912C20.7872 17.3912 20.1074 17.3926 19.4276 17.3898M65.5336 2.5H67.5688L73.8758 17.387C73.0757 17.3968 71.4769 17.3898 71.4769 17.3898L66.5197 5.20014L61.5681 17.3898H59.235M77.8399 2.5L80.5465 2.50558C82.032 4.69945 83.4643 6.93235 84.9274 9.14156C85.0141 9.29637 85.105 9.29777 85.1974 9.14575C86.6577 6.93236 88.132 4.7106 89.5965 2.5H92.1926L86.1401 11.4986L86.1373 17.3884L83.9525 17.3884L83.9259 11.3856M98.3919 2.51395C100.756 2.51814 103.12 2.50976 105.484 2.51813C106.727 2.5265 108.034 2.8431 108.967 3.70781C109.758 4.41214 110.171 5.45955 110.235 6.50279C110.315 7.56416 110.137 8.69386 109.498 9.57253C108.905 10.408 107.954 10.931 106.961 11.1332C107.459 11.4861 107.87 11.9533 108.155 12.493C109.059 14.1276 109.992 15.7455 110.877 17.3898L108.295 17.3884C107.58 15.9686 106.804 14.5502 106.065 13.143C105.696 12.4512 105.166 11.7441 104.356 11.5642C103.122 11.295 101.848 11.4777 100.598 11.4177C100.582 13.4093 100.598 15.3996 100.591 17.3912L98.3765 17.3884C98.3891 17.3884 98.3891 9.52929 98.3891 9.52929C99.2395 9.53069 100.09 9.5265 100.94 9.53347C102.455 9.5265 103.97 9.55579 105.484 9.51953C106.415 9.49024 107.398 9.01046 107.757 8.10809C108.157 7.04812 108.02 5.6325 107.043 4.92399C106.272 4.34937 105.263 4.38843 104.349 4.3968C103.213 4.39819 102.079 4.39958 100.945 4.3954C100.093 4.39122 99.2409 4.394 98.3891 4.39261C98.3905 3.76639 98.3891 3.14017 98.3919 2.51395ZM32.2976 2.51813C32.976 2.51255 33.653 2.51255 34.3314 2.51813C34.3286 7.47489 34.3328 12.4331 34.3286 17.3898C33.6362 17.3926 32.8907 17.3912 32.1983 17.3912V2.51813M42.3351 2.6046C44.541 2.62273 46.7468 2.6046 48.9527 2.61437C50.206 2.60739 51.5138 2.87797 52.5167 3.66458C53.4147 4.33403 53.984 5.38703 54.1239 6.49023C54.3183 7.87796 54.0861 9.41632 53.1238 10.4916C52.1978 11.5558 50.7641 12.03 49.3849 12.0732C47.7637 12.1081 46.1426 12.0718 44.5214 12.0914C44.5228 13.8919 44.5326 15.6925 44.5158 17.493C43.7898 17.4888 43.0653 17.4805 42.3407 17.5C42.3044 15.0662 42.3225 12.6325 42.3323 10.1987C43.145 10.1974 43.9563 10.1974 44.769 10.1987C46.1216 10.1974 47.4728 10.2029 48.824 10.1973C49.7248 10.1973 50.6955 9.94212 51.2928 9.22525C51.988 8.37727 52.0425 7.13738 51.6719 6.14017C51.2732 5.11088 50.1612 4.53487 49.0953 4.51395C47.6546 4.47908 46.2111 4.51255 44.7704 4.49861C43.9591 4.49721 43.1478 4.49861 42.3365 4.49861C42.3128 3.86681 42.3156 3.23501 42.3351 2.6046ZM11.1484 8.93794C11.1078 9.55579 11.147 10.1764 11.1148 10.7971C8.76768 10.7803 6.42056 10.7873 4.07344 10.7943C4.09022 12.3675 4.05246 13.9421 4.09302 15.5153C6.87655 15.4874 9.66149 15.5084 12.4464 15.5056C12.445 16.1332 12.4464 16.7608 12.445 17.3884L1.87599 17.3884V8.93794M66.3253 12.0969C67.131 11.8752 67.9045 12.8236 67.5086 13.5642C67.2149 14.2657 66.149 14.3828 65.7168 13.7524C65.2426 13.1862 65.6035 12.2322 66.3253 12.0969Z" fill="#EEEEEE"/>
<path d="M117.553 2.5148C120.98 2.50996 124.407 2.52933 127.835 2.50513C127.863 3.14187 127.847 3.78 127.85 4.41675C126.398 4.41535 124.945 4.42159 123.493 4.41352C121.512 4.40868 119.531 4.41212 117.551 4.4103C117.552 3.77776 117.551 3.14524 117.554 2.51411M117.552 8.95501C118.273 8.95501 118.993 8.95016 119.715 8.95823C122.083 9.02004 124.454 8.90627 126.823 8.98066C126.791 9.60616 126.822 10.2331 126.797 10.86C124.45 10.8438 122.103 10.8551 119.755 10.8551C119.76 12.4393 119.746 14.0248 119.762 15.6089C122.55 15.6009 125.337 15.6041 128.125 15.6075C128.122 16.2401 128.124 16.8726 128.124 17.5051H117.538L117.552 8.95619" fill="#EEEEEE"/>
</svg>