<svg xmlns="http://www.w3.org/2000/svg" xmlns:xlink="http://www.w3.org/1999/xlink" width="898.639" height="318.474" viewBox="0 0 237.765 84.263" xmlns:v="https://vecta.io/nano"><path d="M97.827 78.68V30.356c0-8.892 7.208-16.1 16.099-16.1l14.268.022a16.08 16.08 0 0 1 16.044 16.076V40.64c0 8.892-7.208 16.1-16.1 16.1h-20.162m40.249-42.49h6.189a6.61 6.61 0 0 1 6.607 6.607v36.098" fill="none" stroke="#939598" stroke-width="2.976" stroke-linecap="round" stroke-linejoin="round" stroke-miterlimit="10"/><path d="M159.695 8.657l-2.807-2.807c-.697-.696-.697-1.826 0-2.522l2.805-2.805c.698-.697 1.828-.697 2.526 0l2.805 2.805c.697.696.697 1.826 0 2.522l-2.807 2.807c-.696.696-1.825.696-2.522 0" fill="#32bcad"/><path d="M172.895 14.218h6.138a11.9 11.9 0 0 1 8.418 3.487l14.357 14.357c1.859 1.86 4.875 1.86 6.735 0l14.304-14.304a11.91 11.91 0 0 1 8.418-3.487h4.99m-63.36 42.368h6.138a11.9 11.9 0 0 0 8.418-3.487l14.357-14.357c1.859-1.86 4.875-1.86 6.735 0L222.847 53.1a11.91 11.91 0 0 0 8.418 3.487h4.99" fill="none" stroke="#939598" stroke-width="2.976" stroke-linecap="round" stroke-linejoin="round" stroke-miterlimit="10"/><path d="M61.233 65.811a11.46 11.46 0 0 1-8.156-3.377L41.3 50.657c-.827-.829-2.268-.827-3.095 0l-11.82 11.82a11.46 11.46 0 0 1-8.156 3.377h-2.321L30.825 80.77a11.93 11.93 0 0 0 16.869 0l14.958-14.958zM18.23 24.154a11.46 11.46 0 0 1 8.156 3.377l11.82 11.822a2.19 2.19 0 0 0 3.095-.001l11.777-11.778a11.46 11.46 0 0 1 8.156-3.377h1.419L47.694 9.239a11.93 11.93 0 0 0-16.869 0L15.909 24.154zM75.024 36.57l-9.039-9.039a1.72 1.72 0 0 1-.642.129h-4.11c-2.125 0-4.205.862-5.706 2.364L43.751 41.801c-1.102 1.102-2.55 1.653-3.997 1.653a5.64 5.64 0 0 1-3.997-1.652L23.936 29.981a8.12 8.12 0 0 0-5.706-2.364h-5.054c-.216 0-.417-.051-.607-.122L3.494 36.57a11.93 11.93 0 0 0 0 16.869l9.075 9.075a1.71 1.71 0 0 1 .607-.122h5.054a8.12 8.12 0 0 0 5.706-2.364l11.82-11.82c2.136-2.135 5.861-2.135 7.995.001l11.776 11.776c1.501 1.502 3.581 2.364 5.706 2.364h4.11a1.72 1.72 0 0 1 .642.129l9.039-9.039a11.93 11.93 0 0 0 0-16.869" fill="#32bcad"/><g fill="#939598"><path d="M110.097 74.572c-.667 0-1.444.161-2.212.338v2.945c.532.194 1.139.288 1.722.288 1.477 0 2.177-.498 2.177-1.799 0-1.223-.574-1.771-1.687-1.771m-2.71 5.469v-5.824h.405l.042.254c.683-.161 1.628-.371 2.304-.371.549 0 1.072.084 1.511.439.507.414.667 1.08.667 1.806 0 .761-.254 1.478-.945 1.874-.481.27-1.131.38-1.713.38-.599 0-1.173-.093-1.772-.27v1.713zm8.637-5.487c-1.477 0-2.135.465-2.135 1.764 0 1.257.65 1.823 2.135 1.823 1.468 0 2.127-.456 2.127-1.756 0-1.257-.649-1.832-2.127-1.832m1.899 3.587c-.49.354-1.148.455-1.899.455-.768 0-1.427-.11-1.907-.455-.54-.38-.76-1.005-.76-1.789 0-.777.22-1.409.76-1.798.481-.345 1.139-.455 1.907-.455.759 0 1.409.11 1.899.455.549.389.76 1.021.76 1.789 0 .786-.219 1.419-.76 1.798m6.991.339l-1.646-3.536h-.034l-1.62 3.536h-.447l-1.755-4.262h.549l1.46 3.578h.034l1.586-3.578h.456l1.629 3.578h.034l1.426-3.578h.531l-1.755 4.262z"/><use xlink:href="#B"/><path d="M134.168 78.48v-4.262h.405l.043.254c.903-.228 1.325-.371 2.118-.371h.059v.473h-.119c-.666 0-1.071.092-2.008.338v3.57z"/><use xlink:href="#B" x="9.385"/><path d="M147.579 74.843c-.532-.194-1.139-.288-1.722-.288-1.477 0-2.178.499-2.178 1.798 0 1.232.574 1.772 1.688 1.772.667 0 1.444-.161 2.212-.329zm.093 3.637l-.042-.254c-.684.161-1.629.372-2.304.372-.548 0-1.072-.076-1.511-.439-.506-.414-.667-1.081-.667-1.806 0-.76.253-1.477.945-1.865.481-.278 1.131-.388 1.722-.388s1.165.102 1.764.27v-1.95h.498v6.059zm7.706-3.908c-.667 0-1.444.161-2.212.338v2.937a4.97 4.97 0 0 0 1.722.296c1.477 0 2.177-.498 2.177-1.799 0-1.223-.574-1.771-1.687-1.771m1.274 3.645c-.481.27-1.131.38-1.713.38a6.07 6.07 0 0 1-1.907-.321l-.025.203h-.338v-6.06h.498v2.033c.684-.151 1.603-.354 2.253-.354.549 0 1.072.084 1.511.439.507.414.667 1.08.667 1.806 0 .761-.254 1.478-.945 1.874m1.605 1.899v-.464l.633.042c.616 0 .987-.178 1.333-.878l.161-.337-2.228-4.262h.574l1.907 3.679h.034l1.814-3.679h.566l-2.397 4.786c-.439.869-.912 1.156-1.781 1.156a5.2 5.2 0 0 1-.616-.042m11.657-4.069h-1.654v1.494h1.662c1.139 0 1.57-.127 1.57-.751 0-.667-.591-.743-1.578-.743m-.303-2.422h-1.35v1.519h1.359c1.123 0 1.57-.134 1.57-.768 0-.675-.565-.751-1.578-.751m2.565 4.448c-.608.388-1.342.405-2.684.405h-2.523v-5.781h2.465c1.156 0 1.865.017 2.456.371.422.253.591.641.591 1.148 0 .607-.253 1.013-.912 1.283v.033c.743.17 1.224.549 1.224 1.368 0 .557-.202.92-.616 1.173m5.663-1.384l-1.536-.067c-.869 0-1.174.177-1.174.573 0 .371.254.574.92.574.557 0 1.224-.126 1.79-.254zm.253 1.789l-.034-.253c-.726.178-1.569.371-2.312.371-.456 0-.945-.059-1.292-.313-.32-.228-.472-.599-.472-1.029 0-.482.211-.929.717-1.156.447-.211 1.047-.228 1.596-.228l1.544.059v-.076c0-.666-.439-.886-1.638-.886l-1.57.076v-.861l1.832-.084c.742 0 1.511.059 1.983.397.489.346.582.828.582 1.46v2.524z"/><use xlink:href="#C"/><path d="M189.14 78.598c-.549 0-1.148-.076-1.587-.447-.523-.422-.675-1.089-.675-1.807 0-.675.219-1.409.869-1.822.532-.346 1.19-.422 1.874-.422.49 0 .971.034 1.502.084v.912l-1.359-.076c-1.131 0-1.663.355-1.663 1.334 0 .92.397 1.316 1.325 1.316.54 0 1.174-.101 1.79-.219v.877c-.667.136-1.393.27-2.076.27m5.591-3.604c-1.131 0-1.629.355-1.629 1.325s.49 1.385 1.629 1.385c1.122 0 1.611-.347 1.611-1.317s-.48-1.393-1.611-1.393m2.042 3.157c-.523.354-1.207.447-2.042.447-.853 0-1.536-.101-2.051-.447-.591-.388-.802-1.029-.802-1.797s.211-1.419.802-1.807c.515-.346 1.198-.447 2.051-.447.844 0 1.519.101 2.042.447.591.388.793 1.038.793 1.797 0 .769-.211 1.419-.793 1.807m7.664.447c-.717 0-1.493-.118-2.076-.599-.692-.574-.903-1.46-.903-2.414 0-.852.27-1.864 1.173-2.455.7-.455 1.569-.549 2.447-.549a24.68 24.68 0 0 1 2.018.101v1.038l-1.966-.093c-1.646 0-2.346.625-2.346 1.958 0 1.36.649 1.967 1.865 1.967.793 0 1.679-.161 2.574-.347v1.029c-.895.178-1.832.363-2.785.363m6.281-3.738c-.988 0-1.368.355-1.444 1.005h2.87c-.034-.692-.439-1.005-1.426-1.005m-.178 3.739c-.7 0-1.333-.084-1.806-.473-.506-.421-.684-1.054-.684-1.781 0-.65.211-1.375.802-1.797.523-.371 1.19-.447 1.865-.447.607 0 1.325.067 1.848.43.684.481.743 1.224.751 2.102h-4.051c.025.65.371 1.072 1.57 1.072.743 0 1.57-.11 2.27-.219v.835c-.819.135-1.713.278-2.566.278"/><use xlink:href="#C" x="34.016"/><path d="M223.181 78.598c-.574 0-1.097-.161-1.384-.607-.211-.304-.313-.717-.313-1.291v-1.596h-.861v-.886h.861l.127-1.292h1.055v1.292h1.679v.886h-1.679v1.368c0 .329.025.607.118.81.127.287.405.396.776.396.278 0 .616-.042.852-.084v.852c-.388.077-.836.152-1.232.152m2.327-.118v-4.262h.971l.042.27c.785-.219 1.367-.388 2.11-.388a1.2 1.2 0 0 1 .151.008v1.013l-.413-.008c-.582 0-1.021.067-1.671.219v3.147zm7.6-1.789l-1.536-.067c-.869 0-1.174.177-1.174.573 0 .371.254.574.92.574.557 0 1.224-.126 1.79-.254zm.253 1.789l-.034-.253c-.726.178-1.57.371-2.313.371-.456 0-.945-.059-1.292-.313-.32-.228-.472-.599-.472-1.029 0-.482.211-.929.718-1.156.447-.211 1.046-.228 1.595-.228l1.544.059v-.076c0-.666-.439-.886-1.638-.886l-1.57.076v-.861l1.832-.084c.742 0 1.511.059 1.983.397.489.346.582.828.582 1.46v2.524zm2.468-6.06h1.19v6.059h-1.19z"/></g><defs ><path id="B" d="M130.3 74.547c-1.367 0-1.831.607-1.916 1.486h3.832c-.042-.97-.54-1.486-1.916-1.486m-.017 4.051c-.819 0-1.35-.118-1.772-.473-.498-.43-.667-1.054-.667-1.772 0-.684.228-1.409.794-1.823.472-.329 1.055-.43 1.662-.43.549 0 1.182.059 1.705.414.616.413.735 1.139.735 1.966h-4.372c.017.877.304 1.655 1.958 1.655.785 0 1.519-.127 2.203-.245v.447c-.709.127-1.494.262-2.245.262"/><path id="C" d="M184.596 78.48v-2.355c0-.776-.396-1.054-1.106-1.054-.523 0-1.181.135-1.738.27v3.139h-1.19v-4.262h.97l.042.27c.751-.194 1.587-.388 2.279-.388.523 0 1.055.076 1.46.439.337.304.464.725.464 1.334v2.608z"/></defs></svg>