<svg width="16" height="16" viewBox="0 0 16 16" fill="none" xmlns="http://www.w3.org/2000/svg">
<path d="M15.0929 3.51967C14.9582 3.32563 14.7718 3.1732 14.5549 3.07964C14.338 2.98607 14.0992 2.95513 13.8657 2.9903L1.77367 4.69051C1.53711 4.72357 1.31444 4.82193 1.13067 4.97453C0.946909 5.12713 0.809322 5.32794 0.733361 5.5544C0.657401 5.78087 0.646075 6.02403 0.700656 6.25657C0.755237 6.48912 0.873563 6.70185 1.04235 6.87087L8.42731 14.2826C8.54568 14.4026 8.68671 14.4978 8.84221 14.5628C8.99771 14.6278 9.16457 14.6612 9.3331 14.6612C9.4004 14.6611 9.46759 14.6559 9.5341 14.6456C9.73444 14.6157 9.92473 14.5383 10.0892 14.42C10.2536 14.3017 10.3874 14.1459 10.4796 13.9654L15.1863 4.85279C15.2969 4.64405 15.3468 4.4085 15.3302 4.17287C15.3137 3.93724 15.2315 3.71095 15.0929 3.51967ZM15.0676 4.79161L10.3605 13.9031C10.2781 14.0648 10.1582 14.2044 10.0109 14.3104C9.86356 14.4164 9.69305 14.4857 9.51354 14.5125C9.45383 14.5216 9.39351 14.5263 9.3331 14.5264C9.1822 14.5264 9.0328 14.4965 8.89358 14.4382C8.75437 14.38 8.62812 14.2947 8.52219 14.1872L1.13699 6.77527C0.986059 6.62378 0.880303 6.43325 0.831577 6.22504C0.782851 6.01682 0.793081 5.79915 0.861121 5.59642C0.929161 5.39369 1.05232 5.21392 1.21679 5.07725C1.38127 4.94059 1.58056 4.85244 1.79232 4.82268L13.8843 3.1227C13.9401 3.1149 13.9964 3.11098 14.0528 3.11099C14.2497 3.11248 14.4429 3.16441 14.614 3.26183C14.7852 3.35926 14.9284 3.49892 15.0302 3.66748C15.132 3.83604 15.1889 4.02788 15.1954 4.22468C15.2019 4.42147 15.1579 4.61666 15.0676 4.79161Z" fill="#EE0033"/>
<path d="M13.6876 3.3746L2.0588 5.00957C1.86587 5.03651 1.68426 5.11668 1.53436 5.24108C1.38445 5.36548 1.27218 5.52919 1.21013 5.71385C1.14808 5.8985 1.13872 6.09679 1.18308 6.28647C1.22745 6.47615 1.32379 6.64972 1.46131 6.78769L8.56425 13.915C8.66075 14.0129 8.77576 14.0906 8.90259 14.1437C9.02942 14.1967 9.16553 14.2239 9.30299 14.2238C9.35788 14.2237 9.41269 14.2195 9.46694 14.2111C9.63041 14.1868 9.78569 14.1237 9.91984 14.0272C10.054 13.9306 10.1631 13.8034 10.2382 13.6562L14.765 4.89389C14.8532 4.72305 14.8927 4.53124 14.8793 4.33944C14.8658 4.14764 14.7998 3.96324 14.6886 3.8064C14.5774 3.64956 14.4252 3.52632 14.2486 3.45017C14.0721 3.37401 13.878 3.34787 13.6876 3.3746ZM14.646 4.83247L10.1194 13.595C10.0533 13.723 9.95785 13.8335 9.84092 13.9176C9.72398 14.0017 9.58884 14.057 9.44649 14.079C9.30414 14.101 9.1586 14.089 9.02174 14.0441C8.88488 13.9992 8.76056 13.9227 8.6589 13.8206L1.55691 6.69329C1.437 6.57299 1.35296 6.42169 1.31421 6.25632C1.27545 6.09095 1.2835 5.91806 1.33747 5.75701C1.39143 5.59597 1.48917 5.45313 1.61974 5.3445C1.75031 5.23587 1.90854 5.16574 2.07672 5.14197L13.706 3.507C13.7503 3.50065 13.7951 3.49746 13.8398 3.49744C13.9962 3.4987 14.1497 3.53999 14.2856 3.6174C14.4215 3.69481 14.5353 3.80574 14.6161 3.93962C14.6969 4.07349 14.7421 4.22585 14.7474 4.38215C14.7526 4.53845 14.7177 4.69349 14.646 4.83247Z" fill="#EE0033"/>
<path d="M13.4613 3.76536L2.39363 5.32146C2.23967 5.343 2.09475 5.40702 1.97515 5.50633C1.85555 5.60565 1.76599 5.73633 1.71652 5.88371C1.66706 6.03109 1.65964 6.18934 1.69511 6.3407C1.73057 6.49207 1.80752 6.63055 1.91731 6.74061L8.67682 13.5243C8.75384 13.6024 8.84563 13.6644 8.94686 13.7067C9.04808 13.749 9.15671 13.7708 9.26642 13.7707C9.31027 13.7706 9.35405 13.7673 9.39739 13.7606C9.52782 13.7411 9.65171 13.6908 9.75876 13.6138C9.8658 13.5367 9.9529 13.4353 10.0128 13.3178L14.3212 4.97802C14.3918 4.84163 14.4234 4.68845 14.4127 4.53525C14.402 4.38206 14.3494 4.23476 14.2605 4.10952C14.1716 3.98427 14.05 3.8859 13.9089 3.8252C13.7679 3.76449 13.6128 3.74379 13.4608 3.76536H13.4613ZM14.2022 4.9166L9.89402 13.2575C9.84325 13.3561 9.7699 13.4412 9.67997 13.5059C9.59004 13.5707 9.48607 13.6133 9.37654 13.6302C9.26702 13.6471 9.15504 13.6379 9.04976 13.6033C8.94448 13.5687 8.84887 13.5097 8.77074 13.4311L2.01219 6.64621C1.92 6.55379 1.85537 6.43753 1.82554 6.31045C1.7957 6.18336 1.80185 6.05048 1.84328 5.9267C1.88472 5.80291 1.95981 5.69311 2.06014 5.6096C2.16046 5.52608 2.28206 5.47216 2.41131 5.45386L13.479 3.898C13.513 3.89306 13.5473 3.89059 13.5817 3.89059C13.7019 3.89153 13.8199 3.92326 13.9243 3.98275C14.0288 4.04223 14.1162 4.12749 14.1783 4.23039C14.2405 4.33328 14.2752 4.45038 14.2792 4.57051C14.2832 4.69064 14.2563 4.8098 14.2012 4.9166H14.2022Z" fill="#EE0033"/>
<path d="M13.2832 4.14967L2.67851 5.64052C2.56817 5.65602 2.46433 5.70195 2.37863 5.77316C2.29292 5.84436 2.22875 5.93803 2.19329 6.04366C2.15783 6.14929 2.15249 6.26271 2.17787 6.37121C2.20325 6.4797 2.25835 6.57898 2.33699 6.65792L8.81377 13.1586C8.869 13.2146 8.93482 13.2591 9.00741 13.2894C9.07999 13.3197 9.15788 13.3353 9.23655 13.3352C9.26791 13.3352 9.29923 13.3328 9.33023 13.328C9.42396 13.3141 9.51301 13.278 9.58992 13.2227C9.66684 13.1673 9.7294 13.0944 9.77238 13.0099L13.8998 5.01889C13.9503 4.92113 13.9729 4.81137 13.9652 4.70162C13.9575 4.59187 13.9197 4.48635 13.8561 4.39661C13.7924 4.30688 13.7053 4.23637 13.6043 4.19282C13.5032 4.14927 13.3922 4.13434 13.2832 4.14967ZM13.7808 4.95747L9.65288 12.9485C9.61918 13.0137 9.57056 13.0701 9.51098 13.1129C9.45139 13.1558 9.38252 13.184 9.30998 13.1952C9.23744 13.2064 9.16328 13.2003 9.09354 13.1774C9.0238 13.1545 8.96044 13.1155 8.90865 13.0635L2.43187 6.5628C2.37091 6.5014 2.32825 6.42423 2.30867 6.33996C2.28909 6.25568 2.29335 6.16761 2.32099 6.08562C2.34863 6.00363 2.39854 5.93095 2.46515 5.87572C2.53175 5.82049 2.61242 5.7849 2.69811 5.77292L13.3028 4.28207C13.3253 4.27884 13.348 4.27724 13.3707 4.27729C13.4504 4.27784 13.5286 4.29883 13.5979 4.33823C13.6672 4.37764 13.7253 4.43416 13.7665 4.50238C13.8077 4.57061 13.8308 4.64826 13.8335 4.72794C13.8361 4.80761 13.8183 4.88664 13.7818 4.95747H13.7808Z" fill="#EE0033"/>
<path d="M13.1054 4.53373L2.96316 5.95958C2.89641 5.969 2.8336 5.99681 2.78177 6.03991C2.72994 6.08301 2.69114 6.13969 2.6697 6.2036C2.64826 6.26751 2.64505 6.33613 2.66041 6.40177C2.67577 6.4674 2.7091 6.52747 2.75666 6.57523L8.95071 12.7917C8.98419 12.8256 9.02405 12.8525 9.06799 12.8708C9.11192 12.8891 9.15906 12.8986 9.20667 12.8986C9.22563 12.8986 9.24457 12.8971 9.26331 12.8943C9.31983 12.886 9.37354 12.8643 9.41997 12.831C9.46641 12.7978 9.50422 12.7539 9.53027 12.7031L13.4785 5.06071C13.509 5.00156 13.5226 4.93518 13.5179 4.86881C13.5132 4.80244 13.4903 4.73863 13.4518 4.68437C13.4133 4.6301 13.3607 4.58747 13.2996 4.56111C13.2385 4.53475 13.1713 4.52569 13.1054 4.53492V4.53373ZM13.3595 4.99834L9.41149 12.6407C9.39496 12.6728 9.37108 12.7005 9.34179 12.7216C9.3125 12.7427 9.27864 12.7566 9.24296 12.7622C9.20728 12.7677 9.1708 12.7647 9.1365 12.7534C9.1022 12.7422 9.07105 12.7229 9.04559 12.6973L2.85131 6.48082C2.82123 6.45067 2.80014 6.41273 2.79042 6.37125C2.78071 6.32978 2.78274 6.28642 2.79629 6.24604C2.80984 6.20566 2.83438 6.16986 2.86714 6.14264C2.89991 6.11543 2.93961 6.09788 2.9818 6.09198L13.124 4.66613C13.1657 4.6603 13.2081 4.66603 13.2467 4.68269C13.2853 4.69935 13.3185 4.7263 13.3428 4.7606C13.3671 4.79489 13.3816 4.83521 13.3845 4.87714C13.3874 4.91907 13.3788 4.96099 13.3595 4.99834Z" fill="#EE0033"/>
<path d="M12.7006 4.94982L3.48273 6.24566C3.4377 6.25192 3.39531 6.27062 3.36032 6.29965C3.32533 6.32867 3.29913 6.36688 3.28466 6.40998C3.27018 6.45308 3.26801 6.49936 3.27839 6.54362C3.28877 6.58789 3.31128 6.62838 3.3434 6.66055L8.97318 12.3104C8.99574 12.3332 9.02258 12.3512 9.05216 12.3635C9.08173 12.3758 9.11346 12.3821 9.14549 12.3821C9.15829 12.3821 9.17107 12.3811 9.18373 12.3792C9.22187 12.3735 9.2581 12.3588 9.2894 12.3363C9.3207 12.3137 9.34617 12.2841 9.3637 12.2497L12.951 5.30425C12.9716 5.26439 12.9807 5.21965 12.9776 5.17491C12.9744 5.13018 12.959 5.08718 12.9331 5.05061C12.9071 5.01403 12.8716 4.98529 12.8304 4.96751C12.7893 4.94974 12.744 4.94362 12.6996 4.94982H12.7006ZM12.833 5.24283L9.24492 12.1885C9.23694 12.204 9.2254 12.2175 9.21125 12.2277C9.1971 12.2379 9.18073 12.2446 9.16348 12.2473C9.14624 12.25 9.1286 12.2485 9.11202 12.2431C9.09543 12.2377 9.08037 12.2284 9.06806 12.216L3.439 6.56615C3.42446 6.55156 3.41427 6.53321 3.40957 6.51315C3.40488 6.4931 3.40586 6.47213 3.41241 6.4526C3.41896 6.43308 3.43082 6.41576 3.44666 6.40259C3.4625 6.38943 3.4817 6.38093 3.50209 6.37806L12.7192 5.08223C12.7246 5.08188 12.73 5.08188 12.7354 5.08223C12.7544 5.0824 12.773 5.08742 12.7894 5.09681C12.8059 5.1062 12.8196 5.11965 12.8294 5.13588C12.8392 5.1521 12.8447 5.17056 12.8453 5.18949C12.8459 5.20842 12.8417 5.2272 12.833 5.24403V5.24283Z" fill="#EE0033"/>
<path d="M14.1579 6.35822C13.9985 6.10297 13.7774 5.89192 13.515 5.74448L10.214 3.87912L6.00365 1.49944C4.94299 0.900043 3.64788 1.74728 3.77215 2.95899L3.95642 4.75886L4.59047 10.9467L4.80772 13.0663C4.95948 14.5481 6.73737 15.2197 7.83101 14.209L7.83627 14.2042L12.1774 10.1929L13.8523 8.64493C14.1618 8.35916 14.3617 7.97424 14.4175 7.55671C14.4733 7.13917 14.3815 6.71525 14.1579 6.35822Z" fill="#EE0033"/>
<path d="M10.1435 7.05513C10.0944 7.05513 10.0472 7.07467 10.0124 7.10945C9.97762 7.14423 9.95808 7.1914 9.95808 7.24059V7.40096C9.78613 7.23348 9.56861 7.12043 9.33274 7.07593C9.09687 7.03143 8.85312 7.05747 8.63197 7.15079C8.41082 7.2441 8.22209 7.40055 8.0894 7.60057C7.9567 7.80059 7.88593 8.03529 7.88593 8.27532C7.88593 8.51535 7.9567 8.75006 8.0894 8.95008C8.22209 9.15009 8.41082 9.30654 8.63197 9.39986C8.85312 9.49318 9.09687 9.51921 9.33274 9.47472C9.56861 9.43022 9.78613 9.31716 9.95808 9.14969V9.31029C9.95808 9.35948 9.97762 9.40665 10.0124 9.44143C10.0472 9.47621 10.0944 9.49575 10.1435 9.49575C10.1927 9.49575 10.2399 9.47621 10.2747 9.44143C10.3095 9.40665 10.329 9.35948 10.329 9.31029V7.24059C10.329 7.21623 10.3243 7.1921 10.3149 7.16958C10.3056 7.14707 10.292 7.12661 10.2747 7.10938C10.2575 7.09215 10.2371 7.07849 10.2145 7.06918C10.192 7.05987 10.1679 7.0551 10.1435 7.05513ZM9.10869 9.12483C8.9407 9.12483 8.77647 9.07502 8.63679 8.98168C8.49711 8.88835 8.38824 8.7557 8.32395 8.60049C8.25967 8.44528 8.24285 8.2745 8.27562 8.10973C8.30839 7.94497 8.38929 7.79362 8.50808 7.67483C8.62687 7.55604 8.77822 7.47515 8.94298 7.44237C9.10775 7.4096 9.27853 7.42642 9.43374 7.49071C9.58894 7.555 9.7216 7.66386 9.81493 7.80355C9.90826 7.94323 9.95808 8.10745 9.95808 8.27544C9.95783 8.50064 9.86826 8.71654 9.70902 8.87577C9.54978 9.03501 9.33388 9.12458 9.10869 9.12483Z" fill="white"/>
<path d="M6.41305 7.05513C6.09563 7.05508 5.79078 7.1792 5.56366 7.40096V7.24059C5.56366 7.19141 5.54412 7.14423 5.50934 7.10945C5.47456 7.07467 5.42739 7.05513 5.3782 7.05513C5.32901 7.05513 5.28184 7.07467 5.24706 7.10945C5.21228 7.14423 5.19274 7.19141 5.19274 7.24059V10.1511C5.19274 10.2003 5.21228 10.2474 5.24706 10.2822C5.28184 10.317 5.32901 10.3365 5.3782 10.3365C5.42739 10.3365 5.47456 10.317 5.50934 10.2822C5.54412 10.2474 5.56366 10.2003 5.56366 10.1511V9.14969C5.70702 9.2885 5.88227 9.38998 6.07402 9.44523C6.26576 9.50048 6.46814 9.50782 6.66338 9.46658C6.85862 9.42534 7.04075 9.3368 7.19378 9.20873C7.34681 9.08067 7.46605 8.91698 7.54104 8.73206C7.61603 8.54714 7.64447 8.34664 7.62387 8.14816C7.60327 7.94967 7.53425 7.75929 7.42287 7.59371C7.3115 7.42814 7.16117 7.29244 6.9851 7.19853C6.80903 7.10463 6.6126 7.05539 6.41305 7.05513ZM6.41305 9.12484C6.24508 9.12474 6.0809 9.07484 5.94129 8.98145C5.80167 8.88807 5.69287 8.75538 5.62866 8.60016C5.56444 8.44495 5.54769 8.27418 5.58052 8.10944C5.61335 7.94471 5.69428 7.79341 5.81309 7.67467C5.9319 7.55593 6.08325 7.47508 6.248 7.44234C6.41275 7.40961 6.58351 7.42645 6.73869 7.49076C6.89386 7.55506 7.02649 7.66393 7.1198 7.8036C7.21311 7.94327 7.26292 8.10747 7.26292 8.27544C7.26267 8.50072 7.17303 8.71669 7.01369 8.87594C6.85435 9.03519 6.63833 9.12471 6.41305 9.12484Z" fill="white"/>
<path d="M12.864 7.08023C12.8429 7.06802 12.8197 7.06009 12.7955 7.05689C12.7713 7.0537 12.7468 7.0553 12.7233 7.06161C12.6997 7.06791 12.6777 7.0788 12.6584 7.09364C12.639 7.10848 12.6228 7.12699 12.6107 7.1481L11.7536 8.6325L10.8957 7.14786C10.8836 7.12654 10.8674 7.10782 10.8481 7.09278C10.8288 7.07774 10.8066 7.06668 10.783 7.06023C10.7594 7.05379 10.7347 7.05209 10.7104 7.05523C10.6861 7.05838 10.6627 7.0663 10.6415 7.07855C10.6203 7.0908 10.6017 7.10712 10.5868 7.12659C10.572 7.14606 10.5611 7.16828 10.5549 7.19196C10.5486 7.21565 10.5472 7.24034 10.5505 7.2646C10.5539 7.28887 10.562 7.31222 10.5744 7.33332L11.539 9.00343L10.9301 10.0584C10.9178 10.0795 10.9098 10.1029 10.9066 10.1271C10.9033 10.1514 10.9049 10.176 10.9113 10.1996C10.9177 10.2232 10.9286 10.2454 10.9436 10.2647C10.9585 10.2841 10.9772 10.3003 10.9984 10.3124C11.0266 10.3284 11.0585 10.3367 11.0909 10.3363C11.1235 10.3363 11.1555 10.3278 11.1838 10.3115C11.212 10.2952 11.2355 10.2718 11.2518 10.2436L12.9319 7.33309C12.9441 7.31203 12.952 7.28878 12.9551 7.26468C12.9583 7.24057 12.9567 7.21607 12.9504 7.19258C12.9441 7.1691 12.9332 7.14709 12.9184 7.12781C12.9036 7.10853 12.8851 7.09236 12.864 7.08023Z" fill="white"/>
<path d="M9.52597 8.25823C9.36608 8.20207 9.18205 8.01804 9.12708 7.85815C9.12587 7.85456 9.12355 7.85143 9.12047 7.84921C9.11738 7.847 9.11368 7.84581 9.10988 7.84581C9.10608 7.84581 9.10237 7.847 9.09929 7.84921C9.0962 7.85143 9.09388 7.85456 9.09267 7.85815C9.0365 8.01876 8.85367 8.20207 8.69283 8.25823C8.68911 8.25932 8.68584 8.26158 8.68351 8.26469C8.68118 8.26779 8.67992 8.27156 8.67992 8.27544C8.67992 8.27932 8.68118 8.28309 8.68351 8.28619C8.68584 8.2893 8.68911 8.29156 8.69283 8.29265C8.85343 8.34881 9.0365 8.53164 9.09267 8.69272C9.09375 8.69645 9.09602 8.69972 9.09912 8.70205C9.10222 8.70437 9.106 8.70563 9.10988 8.70563C9.11375 8.70563 9.11753 8.70437 9.12063 8.70205C9.12373 8.69972 9.126 8.69645 9.12708 8.69272C9.18325 8.53212 9.36608 8.34881 9.52716 8.29265C9.53085 8.29144 9.53405 8.28906 9.53628 8.28588C9.5385 8.28269 9.53963 8.27887 9.5395 8.27499C9.53936 8.27111 9.53797 8.26737 9.53553 8.26435C9.53309 8.26133 9.52973 8.25918 9.52597 8.25823Z" fill="white"/>
<path d="M6.51893 5.84868H6.42405C6.38616 5.84868 6.35545 5.87939 6.35545 5.91727V6.62136C6.35545 6.65924 6.38616 6.68995 6.42405 6.68995H6.51893C6.55681 6.68995 6.58752 6.65924 6.58752 6.62136V5.91727C6.58752 5.87939 6.55681 5.84868 6.51893 5.84868Z" fill="white"/>
<path d="M5.76203 6.69975C5.81963 6.69975 5.88703 6.6964 5.92287 6.62494L6.32367 5.84868H6.17717C6.1487 5.8489 6.12089 5.85725 6.09701 5.87275C6.07312 5.88825 6.05417 5.91025 6.04237 5.93615L5.78999 6.4727C5.78402 6.48537 5.77207 6.50592 5.76203 6.50592C5.75199 6.50592 5.74028 6.48537 5.73431 6.4727L5.48002 5.93615C5.46826 5.91026 5.44935 5.88827 5.42551 5.87278C5.40167 5.85728 5.37389 5.84892 5.34546 5.84868H5.19848L5.59927 6.62494C5.63919 6.70118 5.72045 6.69975 5.76203 6.69975Z" fill="white"/>
<path d="M10.8371 6.69019C10.8553 6.69012 10.8726 6.68287 10.8854 6.67001C10.8983 6.65715 10.9055 6.63974 10.9055 6.62159V6.54727H10.8479C10.806 6.54727 10.7188 6.54559 10.6672 6.5107C10.5998 6.46625 10.6058 6.3869 10.6058 6.32978V5.71986C10.6055 5.70182 10.5982 5.68459 10.5853 5.67189C10.5725 5.6592 10.5552 5.65205 10.5372 5.65199H10.4416C10.4234 5.65205 10.406 5.6593 10.3931 5.67215C10.3803 5.685 10.373 5.70241 10.373 5.72058V6.41677C10.373 6.52313 10.4107 6.58407 10.4781 6.62948C10.5455 6.67489 10.6191 6.69138 10.7599 6.69138L10.8371 6.69019Z" fill="white"/>
<path d="M7.929 6.41678C7.929 6.52313 7.96676 6.58407 8.03416 6.62948C8.10155 6.67489 8.17517 6.69138 8.31593 6.69138H8.39241C8.41056 6.69132 8.42795 6.68406 8.44076 6.67121C8.45357 6.65835 8.46077 6.64094 8.46077 6.62279V6.54846H8.40341C8.36158 6.54846 8.27435 6.54679 8.22273 6.5119C8.15533 6.46744 8.1613 6.3881 8.1613 6.33098V5.9916H8.64527V6.41678C8.64527 6.52313 8.68303 6.58407 8.75067 6.62948C8.8183 6.67489 8.89144 6.69138 9.03244 6.69138H9.10868C9.12685 6.69132 9.14426 6.68407 9.15711 6.67122C9.16996 6.65837 9.17721 6.64096 9.17727 6.62279V6.54846H9.11968C9.07809 6.54846 8.99062 6.54679 8.939 6.5119C8.8716 6.46744 8.87757 6.3881 8.87757 6.33098V5.9916H9.10319C9.12138 5.9916 9.13882 5.98438 9.15169 5.97151C9.16455 5.95865 9.17178 5.9412 9.17178 5.92301V5.84868H8.87757V5.71986C8.87751 5.70169 8.87026 5.68428 8.85741 5.67143C8.84456 5.65858 8.82715 5.65133 8.80898 5.65127H8.71338C8.69521 5.65133 8.6778 5.65858 8.66495 5.67143C8.6521 5.68428 8.64485 5.70169 8.64479 5.71986V5.84868H8.1613V5.71986C8.16124 5.70169 8.15399 5.68428 8.14114 5.67143C8.12829 5.65858 8.11088 5.65133 8.09271 5.65127H7.99711C7.97894 5.65133 7.96153 5.65858 7.94868 5.67143C7.93583 5.68428 7.92859 5.70169 7.92852 5.71986V5.84868H7.78369V5.92301C7.78369 5.9412 7.79092 5.95865 7.80378 5.97151C7.81664 5.98438 7.83409 5.9916 7.85228 5.9916H7.92852L7.929 6.41678Z" fill="white"/>
<path d="M7.68307 6.29967C7.72657 6.26477 7.73255 6.21554 7.73255 6.17252C7.73255 6.06617 7.70674 5.96149 7.58365 5.89959C7.48662 5.85035 7.35948 5.84557 7.23639 5.84557C7.13721 5.84557 6.95868 5.84557 6.84372 5.92492C6.72877 6.00427 6.71849 6.12018 6.71849 6.27744C6.71849 6.38857 6.72447 6.50449 6.79401 6.58383C6.88125 6.6823 7.00911 6.69019 7.11546 6.69019H7.63026C7.63926 6.69019 7.64818 6.68841 7.65651 6.68496C7.66483 6.68152 7.67239 6.67647 7.67876 6.6701C7.68513 6.66373 7.69018 6.65617 7.69363 6.64784C7.69707 6.63952 7.69885 6.6306 7.69885 6.62159V6.54727H7.18501C7.09969 6.54727 7.00242 6.53771 6.97254 6.44737C6.9634 6.4094 6.95875 6.3705 6.95868 6.33145H7.56979C7.61009 6.33423 7.65011 6.32301 7.68307 6.29967ZM7.44097 6.18853H7.11068C7.02679 6.18853 6.95868 6.22677 6.95868 6.27433V6.18853C6.96059 6.13285 6.95868 6.08696 7.00648 6.04514C7.07005 5.98801 7.16541 5.98969 7.22683 5.98969C7.29232 5.98969 7.3676 5.99279 7.4252 6.02769C7.44509 6.03924 7.46173 6.05564 7.47356 6.07537C7.48539 6.0951 7.49202 6.11751 7.49283 6.14049C7.4926 6.16153 7.48662 6.18853 7.44097 6.18853Z" fill="white"/>
<path d="M9.62563 6.69019H10.1404C10.1586 6.69019 10.1761 6.68296 10.1889 6.6701C10.2018 6.65723 10.209 6.63979 10.209 6.62159V6.54727H9.69518C9.60986 6.54727 9.51259 6.53771 9.48271 6.44737C9.47357 6.4094 9.46891 6.3705 9.46885 6.33145H10.08C10.1203 6.33423 10.1603 6.32301 10.1932 6.29967C10.2367 6.26477 10.2427 6.21554 10.2427 6.17252C10.2427 6.06617 10.2169 5.96149 10.0938 5.89959C9.99679 5.85035 9.86964 5.84557 9.7468 5.84557C9.64738 5.84557 9.46885 5.84557 9.35389 5.92492C9.23893 6.00427 9.2289 6.12018 9.2289 6.27744C9.2289 6.38857 9.23463 6.50449 9.30418 6.58383C9.39141 6.6823 9.51856 6.69019 9.62563 6.69019ZM9.46885 6.18829C9.47076 6.13261 9.46885 6.08672 9.51665 6.0449C9.58022 5.98778 9.67558 5.98945 9.737 5.98945C9.80249 5.98945 9.87801 5.99256 9.93537 6.02745C9.95526 6.039 9.9719 6.0554 9.98373 6.07513C9.99556 6.09486 10.0022 6.11727 10.003 6.14026C10.003 6.16248 9.99703 6.18949 9.95138 6.18949H9.62085C9.53696 6.18949 9.46885 6.22773 9.46885 6.27529V6.18829Z" fill="white"/>
<path d="M6.47161 5.76934H6.51941C6.5284 5.76934 6.53731 5.76756 6.54562 5.76411C6.55393 5.76066 6.56148 5.75561 6.56783 5.74923C6.57418 5.74286 6.57921 5.7353 6.58263 5.72698C6.58605 5.71866 6.58779 5.70974 6.58776 5.70075V5.68187C6.58776 5.66371 6.58057 5.6463 6.56776 5.63345C6.55494 5.62059 6.53756 5.61334 6.51941 5.61327H6.42381C6.40562 5.61327 6.38817 5.6205 6.37531 5.63336C6.36244 5.64623 6.35522 5.66367 6.35522 5.68187V5.84916C6.36286 5.80997 6.40708 5.76934 6.47161 5.76934Z" fill="white"/>
</svg>
