<?xml version="1.0" encoding="UTF-8"?>
<svg viewBox="0 0 2048 1792" xmlns="http://www.w3.org/2000/svg">
<rect width="100%" height="100%" fill="none"/>
<g class="currentLayer">
<title>Layer 1</title>
<path class="selected" d="m960 0 960 384v128h-128q0 26-20.5 45t-48.5 19h-1526q-28 0-48.5-19t-20.5-45h-128v-128zm-704 640h256v768h128v-768h256v768h128v-768h256v768h128v-768h256v768h59q28 0 48.5 19t20.5 45v64h-1664v-64q0-26 20.5-45t48.5-19h59v-768zm1595 960q28 0 48.5 19t20.5 45v128h-1920v-128q0-26 20.5-45t48.5-19h1782z" fill="#c0ccda"/>
</g>
</svg>
