<svg xmlns="http://www.w3.org/2000/svg" width="170" height="205" viewBox="0 0 170 205"><path fill-rule="evenodd" opacity=".302" fill="#7182EF" d="M147.739 132.736l-25.251 47.018c-9.636 18.206-22.462 25.295-45.738 25.257L32 204.938v-29.624l44.982.075c11.139.017 13.104-1.057 17.644-9.764l24.425-45.99c2.935-5.691 5.064-9.847 5.054-15.964-.014-7.526-2.412-12.06-5.725-18.333l-1.056-2.021-23.167-43.745c-5.193-9.801-6.868-9.803-17.698-9.821l-1.654-.003L32 29.678V.062l46.919.077c21.128.034 33.451 7.598 43.883 26.983l24.569 45.51c5.719 10.845 8.62 18.591 8.64 30.863.016 9.587-2.539 18.608-8.272 29.241z"/><path fill-rule="evenodd" opacity=".302" fill="#7182EF" d="M133.742 132.736l-25.25 47.018c-9.636 18.206-22.462 25.295-45.738 25.257L32 204.961v-29.623l30.986.051c11.139.017 13.104-1.057 17.645-9.764l24.425-45.99c2.935-5.691 5.063-9.847 5.053-15.964-.013-7.526-2.41-12.06-5.725-18.333l-1.056-2.021-23.166-43.745c-5.195-9.801-6.868-9.803-17.697-9.821l-1.655-.003L32 29.701V.085l32.923.054c21.128.034 33.451 7.598 43.883 26.983l24.569 45.51c5.72 10.845 8.62 18.591 8.641 30.863.015 9.587-2.539 18.608-8.274 29.241z"/><path fill-rule="evenodd" opacity=".302" fill="#7182EF" d="M133.742 132.736l-25.25 47.018c-9.636 18.206-22.462 25.295-45.738 25.257L32 204.969v-29.608l16.991.028c11.138.017 13.104-1.057 17.644-9.764l24.426-45.99c2.934-5.691 5.062-9.847 5.053-15.964-.013-7.526-2.41-12.06-5.726-18.333l-1.056-2.021-23.166-43.745c-5.194-9.801-6.867-9.803-17.697-9.821l-1.655-.003L32 29.723V.093l32.923.046c21.128.034 33.451 7.598 43.883 26.983l24.569 45.51c5.72 10.845 8.62 18.591 8.641 30.863.015 9.587-2.539 18.608-8.274 29.241z"/><path fill-rule="evenodd" fill="#6FE6FF" d="M161.372 72.632l-24.569-45.51C126.372 7.737 114.05.173 92.922.139L15.907.013C4.17-.005-.011 7.642.001 14.797L.29 190.054c.013 7.156 4.22 14.816 15.956 14.835l74.508.122c23.275.038 36.1-7.051 45.734-25.257l25.249-47.018c5.735-10.633 8.289-19.654 8.274-29.241-.02-12.272-2.921-20.018-8.639-30.863zM90.986 175.389l-58.826-.097-.242-145.637 56.891.093 1.655.003c10.83.018 12.503.02 17.698 9.821l23.164 43.745 1.055 2.021c3.315 6.273 5.712 10.807 5.725 18.333.011 6.117-2.117 10.273-5.053 15.964l-24.423 45.99c-4.541 8.707-6.505 9.781-17.644 9.764z"/></svg>