<svg viewBox="0 0 124 22" id="decta" width="100%" height="100%"><path fill="#3a9cf2" d="M416.679,39.77H409.3c-1.292,0-1.489-.062-2.035-1.106l-2.528-4.787-0.035-.067a3.379,3.379,0,0,1-.565-1.751,3.839,3.839,0,0,1,.6-2.013l2.587-4.819c0.528-.983.65-1.051,1.857-1.051h7.5a1.581,1.581,0,0,0,1.7-1.585,1.553,1.553,0,0,0-1.7-1.586H409.09a4.7,4.7,0,0,0-4.775,2.771l-2.735,5.118a5.873,5.873,0,0,0-.854,3.165,6.028,6.028,0,0,0,.823,2.994l2.739,5.147a4.692,4.692,0,0,0,4.655,2.744h7.736a1.583,1.583,0,0,0,1.7-1.586A1.553,1.553,0,0,0,416.679,39.77ZM443.853,21.1h-15.66a1.59,1.59,0,1,0,0,3.172h6.127V41.356a1.708,1.708,0,0,0,3.408,0V24.272h6.125A1.59,1.59,0,1,0,443.853,21.1Zm-54.2,12.46a1.591,1.591,0,1,0,0-3.174H377.5a1.54,1.54,0,0,0-1.706,1.59v9.381a1.54,1.54,0,0,0,1.706,1.586h12.147a1.591,1.591,0,1,0,0-3.172H379.2V33.56h10.445ZM377.5,24.174h12.147a1.59,1.59,0,1,0,0-3.172H377.5A1.59,1.59,0,1,0,377.5,24.174Zm-12.273,4.579-2.616-4.869A4.7,4.7,0,0,0,357.929,21H349.7a1.527,1.527,0,0,0-1.7,1.586V41.356a1.527,1.527,0,0,0,1.7,1.586h7.961c2.488,0,3.858-.762,4.891-2.714l2.708-5.038A6.182,6.182,0,0,0,365.229,28.754ZM357.691,39.77h-6.285v-15.6h6.255c1.157,0,1.336,0,1.888,1.05l2.47,4.678,0.111,0.218a3.8,3.8,0,0,1,.608,1.963,3.5,3.5,0,0,1-.541,1.709l-2.618,4.929C359.092,39.653,358.881,39.77,357.691,39.77ZM471.9,40.877l-3.511-12.23L466.954,23.8c-0.648-1.83-2.3-2.8-4.786-2.8h-1.346c-2.484,0-4.138.968-4.791,2.8L454.6,28.649l-3.506,12.215a1.452,1.452,0,0,0,1.062,2.014,1.621,1.621,0,0,0,2.168-1l1.752-6.106h10.841l1.757,6.121a1.556,1.556,0,0,0,1.5,1.1,2.206,2.206,0,0,0,.664-0.111A1.448,1.448,0,0,0,471.9,40.877Zm-5.9-8.28h-9.022l1.1-3.841,1.09-3.559c0.3-.86.588-1.023,1.848-1.023h0.943c1.259,0,1.552.162,1.844,1.015l1.092,3.564Z" transform="translate(-348 -21)"></path></svg>
