<svg xmlns="http://www.w3.org/2000/svg" width="52.162" height="52.162" xmlns:v="https://vecta.io/nano"><path d="M33.035 31.728c-.991 0-1.795-.803-1.795-1.795s.804-1.795 1.795-1.795c1.56 0 2.829-1.269 2.829-2.829s-1.269-2.831-2.829-2.831-2.831 1.269-2.831 2.831v7.654c0 .991-.803 1.795-1.795 1.795s-1.795-.803-1.795-1.795v-7.654a6.43 6.43 0 0 1 6.42-6.42 6.43 6.43 0 0 1 6.418 6.42c.001 3.539-2.878 6.419-6.417 6.419m-7.487-1.795c0 .991-.803 1.795-1.795 1.795s-1.795-.803-1.795-1.795v-4.624c0-1.561-1.27-2.831-2.831-2.831s-2.829 1.27-2.829 2.831 1.269 2.829 2.829 2.829c.991 0 1.795.803 1.795 1.795s-.804 1.795-1.795 1.795c-3.539 0-6.418-2.879-6.418-6.419a6.43 6.43 0 0 1 6.418-6.42 6.43 6.43 0 0 1 6.42 6.42v4.624zm24.568-8.792L31.021 2.046C29.657.682 27.869 0 26.081 0a6.96 6.96 0 0 0-4.939 2.046L2.046 21.141a6.99 6.99 0 0 0 0 9.88l19.095 19.096c1.364 1.364 3.152 2.045 4.939 2.045s3.576-.682 4.94-2.046l19.095-19.095c2.729-2.729 2.729-7.152.001-9.88" fill="#00a1b8"/></svg>