<?xml version="1.0" encoding="UTF-8" standalone="no"?>
<svg
   width="31.762377"
   height="35.200397"
   viewBox="0 0 31.762377 35.200397"
   fill="none"
   version="1.1"
   id="svg87"
   sodipodi:docname="logo (1).svg"
   inkscape:version="1.1.2 (0a00cf5339, 2022-02-04)"
   xmlns:inkscape="http://www.inkscape.org/namespaces/inkscape"
   xmlns:sodipodi="http://sodipodi.sourceforge.net/DTD/sodipodi-0.dtd"
   xmlns="http://www.w3.org/2000/svg"
   xmlns:svg="http://www.w3.org/2000/svg">
  <defs
     id="defs91" />
  <sodipodi:namedview
     id="namedview89"
     pagecolor="#ffffff"
     bordercolor="#666666"
     borderopacity="1.0"
     inkscape:pageshadow="2"
     inkscape:pageopacity="0.0"
     inkscape:pagecheckerboard="0"
     showgrid="false"
     inkscape:zoom="7.8307692"
     inkscape:cx="61.935167"
     inkscape:cy="3.8310413"
     inkscape:window-width="2560"
     inkscape:window-height="1323"
     inkscape:window-x="1920"
     inkscape:window-y="272"
     inkscape:window-maximized="1"
     inkscape:current-layer="svg87" />
  <path
     d="m 0,9.571296 v 7.9308 7.9308 l 12.892476,-7.4229 c 0.3907,-0.2344 0.3907,-0.7814 0,-1.0158 z"
     fill="#4f80f8"
     id="path67" />
  <path
     d="m 29.730776,7.383866 -11.9548,-6.91505 c -1.0548,-0.625088 -3.0082,-0.625088 -4.0631,0 l -11.99388,6.95412 12.30648,7.11036 c 2.6566,1.5237 3.7505,3.399 3.7505,6.4853 v 14.1818 l 11.9548,-6.9151 c 1.0549,-0.6251 2.0316,-2.305 2.0316,-3.5161 v -13.8692 c 0,-1.2111 -0.9767,-2.89104 -2.0316,-3.51613 z"
     fill="#4f80f8"
     id="path69" />
  <path
     d="m 0,9.571296 8.008956,11.2125 4.88352,-2.8129 c 0.1953,-0.1172 0.2735,-0.3125 0.2735,-0.5079 0,-0.1953 -0.0782,-0.3906 -0.2735,-0.5078 z"
     fill="#295796"
     id="path71" />
  <path
     d="m 103.48698,5.200196 h -2.275 v 17.8024 h 2.275 z"
     fill="#183153"
     id="path73" />
  <path
     d="m 129.38098,21.121796 c -0.831,0.1312 -1.531,0.2187 -2.143,0.2187 -1.618,0 -2.318,-0.8748 -2.318,-2.7557 v -6.2111 h 3.98 v -2.0996 h -3.98 v -5.0739 h -2.275 v 13.6033 c 0,3.1056 1.356,4.6365 4.156,4.6365 0.874,0 1.793,-0.1312 2.799,-0.3499 z"
     fill="#183153"
     id="path75" />
  <path
     d="m 91.895676,21.296496 c -1.3122,0 -2.4495,-0.3062 -3.4555,-0.9623 v -7.3921 c 1.3122,-0.2187 2.5369,-0.3062 3.5867,-0.3062 2.537,0 3.9367,1.5747 3.9367,4.2428 -0.0438,2.6245 -1.356,4.4178 -4.0679,4.4178 z m 0.6124,-10.7164 c -2.1433,0 -4.0679,0.2187 -6.3424,0.7436 v 17.4525 h 2.2745 v -6.2112 c 0.9185,0.5249 2.4057,0.8748 3.7617,0.8748 3.8929,0 6.0362,-2.7994 6.0362,-6.5611 -0.0438,-3.8054 -2.4495,-6.2986 -5.73,-6.2986 z"
     fill="#183153"
     id="path77" />
  <path
     d="m 48.504976,21.340496 c -1.0935,0 -2.2745,-0.0875 -3.5867,-0.3062 v -7.3484 c 1.006,-0.6561 2.187,-0.9623 3.4555,-0.9623 2.7119,0 4.0678,1.7496 4.0678,4.4178 -0.0437,2.6682 -1.4434,4.1991 -3.9366,4.1991 z m 0.1312,-10.7602 c -1.356,0 -2.8431,0.3062 -3.7617,0.8748 v -6.2549 h -2.2745 v 17.4525 c 2.2745,0.5249 4.2428,0.7436 6.3424,0.7436 3.3243,0 5.73,-2.4932 5.73,-6.2987 0,-3.7617 -2.1433,-6.5173 -6.0362,-6.5173 z"
     fill="#183153"
     id="path79" />
  <path
     d="m 83.191276,11.061496 h -2.362 -0.2187 l -3.1056,3.9367 -3.0618,-3.9367 h -0.3062 -2.362 l 4.3741,5.6863 -4.899,6.2112 0.0875,0.0437 h 2.4932 l 3.6305,-4.6365 3.6305,4.6365 h 2.5369 l 0.0875,-0.0437 -4.8989,-6.2987 z"
     fill="#183153"
     id="path81" />
  <path
     d="m 63.376776,21.252796 c -2.4932,0 -4.1554,-1.7496 -4.1554,-4.3303 0,-2.537 1.6622,-4.2429 4.1554,-4.2429 2.4932,0 4.1553,1.6622 4.1553,4.2429 0.0438,2.5807 -1.6184,4.3303 -4.1553,4.3303 z m 0,-10.6727 c -1.9246,0 -3.4555,0.5686 -4.6365,1.7496 -1.181,1.181 -1.7934,2.7119 -1.7934,4.6365 0,1.9246 0.6124,3.4993 1.7934,4.6802 1.181,1.181 2.7119,1.7934 4.6365,1.7934 1.9246,0 3.4555,-0.5686 4.6365,-1.7934 1.181,-1.1809 1.7933,-2.7556 1.7933,-4.6802 0,-1.9246 -0.6123,-3.4555 -1.7933,-4.6365 -1.1373,-1.181 -2.7119,-1.7496 -4.6365,-1.7496 z"
     fill="#183153"
     id="path83" />
  <path
     d="m 116.30298,19.809096 c -0.919,1.0498 -2.187,1.4872 -3.499,1.4872 -2.712,0 -4.068,-1.5746 -4.068,-4.1991 0,-2.6682 1.399,-4.4178 3.936,-4.4178 1.094,0 2.275,0.0875 3.587,0.3062 v 6.8235 z m 2.843,1.531 c -0.394,0 -0.569,-0.2187 -0.569,-0.6999 v -9.3605 c -2.274,-0.5249 -4.242,-0.7436 -6.342,-0.7436 -3.324,0 -5.73,2.712 -5.73,6.4736 0,3.8492 2.187,6.3424 6.036,6.3424 1.662,0 2.975,-0.5686 4.068,-1.6184 0.306,1.0935 1.225,1.6184 2.056,1.6184 0.569,0 1.093,-0.0875 1.575,-0.3062 l -0.35,-1.8371 c -0.219,0.0875 -0.438,0.1313 -0.744,0.1313 z"
     fill="#183153"
     id="path85" />
</svg>
