<svg width="130" height="36" viewBox="0 0 130 36" fill="none" xmlns="http://www.w3.org/2000/svg">
<path d="M0.400024 10.3711V18.3019V26.2327L13.2925 18.8098C13.6832 18.5754 13.6832 18.0284 13.2925 17.794L0.400024 10.3711Z" fill="#4F80F8"/>
<path d="M30.1308 8.18367L18.176 1.26862C17.1212 0.643532 15.1678 0.643532 14.1129 1.26862L2.11902 8.22274L14.4255 15.3331C17.0821 16.8568 18.176 18.7321 18.176 21.8184V36.0002L30.1308 29.0851C31.1857 28.46 32.1624 26.7801 32.1624 25.569V11.6998C32.1624 10.4887 31.1857 8.80876 30.1308 8.18367Z" fill="#4F80F8"/>
<path d="M0.400024 10.3711L8.40898 21.5836L13.2925 18.7707C13.4878 18.6535 13.566 18.4582 13.566 18.2628C13.566 18.0675 13.4878 17.8722 13.2925 17.755L0.400024 10.3711Z" fill="#295796"/>
<path d="M103.887 6H101.612V23.8024H103.887V6Z" fill="#183153"/>
<path d="M129.781 21.9216C128.95 22.0528 128.25 22.1403 127.638 22.1403C126.02 22.1403 125.32 21.2655 125.32 19.3846V13.1735H129.3V11.0739H125.32V6H123.045V19.6033C123.045 22.7089 124.401 24.2398 127.201 24.2398C128.075 24.2398 128.994 24.1086 130 23.8899L129.781 21.9216Z" fill="#183153"/>
<path d="M92.2957 22.0963C90.9835 22.0963 89.8462 21.7901 88.8402 21.134V13.7419C90.1524 13.5232 91.3771 13.4357 92.4269 13.4357C94.9639 13.4357 96.3636 15.0104 96.3636 17.6785C96.3198 20.303 95.0076 22.0963 92.2957 22.0963ZM92.9081 11.3799C90.7648 11.3799 88.8402 11.5986 86.5657 12.1235V29.576H88.8402V23.3648C89.7587 23.8897 91.2459 24.2396 92.6019 24.2396C96.4948 24.2396 98.6381 21.4402 98.6381 17.6785C98.5943 13.8731 96.1886 11.3799 92.9081 11.3799Z" fill="#183153"/>
<path d="M48.905 22.1403C47.8115 22.1403 46.6305 22.0528 45.3183 21.8341V14.4857C46.3243 13.8296 47.5053 13.5234 48.7738 13.5234C51.4857 13.5234 52.8416 15.273 52.8416 17.9412C52.7979 20.6094 51.3982 22.1403 48.905 22.1403ZM49.0362 11.3801C47.6802 11.3801 46.1931 11.6863 45.2745 12.2549V6H43V23.4525C45.2745 23.9774 47.2428 24.1961 49.3424 24.1961C52.6667 24.1961 55.0724 21.7029 55.0724 17.8974C55.0724 14.1357 52.9291 11.3801 49.0362 11.3801Z" fill="#183153"/>
<path d="M83.5913 11.8613H81.2293H81.0106L77.905 15.798L74.8432 11.8613H74.537H72.175L76.5491 17.5476L71.6501 23.7588L71.7376 23.8025H74.2308L77.8613 19.166L81.4918 23.8025H84.0287L84.1162 23.7588L79.2173 17.4601L83.5913 11.8613Z" fill="#183153"/>
<path d="M63.7768 22.0526C61.2836 22.0526 59.6214 20.303 59.6214 17.7223C59.6214 15.1853 61.2836 13.4794 63.7768 13.4794C66.27 13.4794 67.9321 15.1416 67.9321 17.7223C67.9759 20.303 66.3137 22.0526 63.7768 22.0526ZM63.7768 11.3799C61.8522 11.3799 60.3213 11.9485 59.1403 13.1295C57.9593 14.3105 57.3469 15.8414 57.3469 17.766C57.3469 19.6906 57.9593 21.2653 59.1403 22.4462C60.3213 23.6272 61.8522 24.2396 63.7768 24.2396C65.7014 24.2396 67.2323 23.671 68.4133 22.4462C69.5943 21.2653 70.2066 19.6906 70.2066 17.766C70.2066 15.8414 69.5943 14.3105 68.4133 13.1295C67.276 11.9485 65.7014 11.3799 63.7768 11.3799Z" fill="#183153"/>
<path d="M116.703 20.6089C115.784 21.6587 114.516 22.0961 113.204 22.0961C110.492 22.0961 109.136 20.5215 109.136 17.897C109.136 15.2288 110.535 13.4792 113.072 13.4792C114.166 13.4792 115.347 13.5667 116.659 13.7854V20.6089H116.703ZM119.546 22.1399C119.152 22.1399 118.977 21.9212 118.977 21.44V12.0795C116.703 11.5546 114.735 11.3359 112.635 11.3359C109.311 11.3359 106.905 14.0479 106.905 17.8095C106.905 21.6587 109.092 24.1519 112.941 24.1519C114.603 24.1519 115.916 23.5833 117.009 22.5335C117.315 23.627 118.234 24.1519 119.065 24.1519C119.634 24.1519 120.158 24.0644 120.64 23.8457L120.29 22.0086C120.071 22.0961 119.852 22.1399 119.546 22.1399Z" fill="#183153"/>
</svg>
