<?xml version="1.0" encoding="UTF-8" standalone="no"?>
<svg
   xmlns:dc="http://purl.org/dc/elements/1.1/"
   xmlns:cc="http://creativecommons.org/ns#"
   xmlns:rdf="http://www.w3.org/1999/02/22-rdf-syntax-ns#"
   xmlns:svg="http://www.w3.org/2000/svg"
   xmlns="http://www.w3.org/2000/svg"
   viewBox="0 0 142.66667 29.333332"
   height="29.333332"
   width="142.66667"
   xml:space="preserve"
   id="svg2"
   version="1.1"><metadata
     id="metadata8"><rdf:RDF><cc:Work
         rdf:about=""><dc:format>image/svg+xml</dc:format><dc:type
           rdf:resource="http://purl.org/dc/dcmitype/StillImage" /></cc:Work></rdf:RDF></metadata><defs
     id="defs6"><clipPath
       id="clipPath26"
       clipPathUnits="userSpaceOnUse"><path
         id="path24"
         d="M 0,22 H 107 V 0 H 0 Z" /></clipPath></defs><g
     transform="matrix(1.3333333,0,0,-1.3333333,0,29.333333)"
     id="g10"><g
       transform="translate(86.9544,20.2275)"
       id="g12"><path
         id="path14"
         style="fill:#7ab72b;fill-opacity:1;fill-rule:nonzero;stroke:none"
         d="M 0,0 7.396,-8.568 0,-17.137 2.052,-18.906 10.975,-8.568 2.052,1.771 Z" /></g><g
       transform="translate(95.949,20.2275)"
       id="g16"><path
         id="path18"
         style="fill:#7ab72b;fill-opacity:1;fill-rule:nonzero;stroke:none"
         d="M 0,0 7.395,-8.568 0,-17.137 2.051,-18.906 10.975,-8.568 2.051,1.771 Z" /></g><g
       id="g20"><g
         clip-path="url(#clipPath26)"
         id="g22"><g
           transform="translate(9.2457,3.7297)"
           id="g28"><path
             id="path30"
             style="fill:#7ab72b;fill-opacity:1;fill-rule:nonzero;stroke:none"
             d="M 0,0 C 0,-0.183 -0.009,-0.337 -0.027,-0.46 -0.046,-0.584 -0.076,-0.689 -0.117,-0.776 -0.158,-0.863 -0.209,-0.927 -0.268,-0.968 -0.328,-1.01 -0.399,-1.03 -0.481,-1.03 h -7.87 c -0.211,0 -0.41,0.07 -0.598,0.213 -0.188,0.142 -0.282,0.391 -0.282,0.748 v 16.456 c 0,0.074 0.018,0.138 0.055,0.193 0.036,0.055 0.101,0.098 0.192,0.13 0.092,0.032 0.216,0.06 0.372,0.083 0.156,0.022 0.344,0.034 0.564,0.034 0.229,0 0.419,-0.012 0.571,-0.034 0.151,-0.023 0.272,-0.051 0.364,-0.083 0.092,-0.032 0.156,-0.075 0.193,-0.13 0.036,-0.055 0.055,-0.119 0.055,-0.193 V 1.016 h 6.384 c 0.082,0 0.153,-0.02 0.213,-0.062 0.059,-0.041 0.11,-0.1 0.151,-0.178 0.042,-0.078 0.071,-0.181 0.09,-0.309 C -0.009,0.339 0,0.183 0,0" /></g><g
           transform="translate(14.2258,3.0566)"
           id="g32"><path
             id="path34"
             style="fill:#7ab72b;fill-opacity:1;fill-rule:nonzero;stroke:none"
             d="m 0,0 c 0,-0.074 -0.019,-0.137 -0.055,-0.192 -0.037,-0.055 -0.101,-0.099 -0.193,-0.131 -0.092,-0.032 -0.213,-0.059 -0.365,-0.082 -0.151,-0.023 -0.341,-0.035 -0.57,-0.035 -0.221,0 -0.409,0.012 -0.564,0.035 -0.156,0.023 -0.28,0.05 -0.372,0.082 -0.092,0.032 -0.156,0.076 -0.192,0.131 -0.037,0.055 -0.056,0.118 -0.056,0.192 v 17.061 c 0,0.073 0.021,0.137 0.062,0.192 0.042,0.055 0.11,0.098 0.207,0.13 0.096,0.032 0.22,0.06 0.371,0.083 0.151,0.022 0.332,0.034 0.544,0.034 0.229,0 0.419,-0.012 0.57,-0.034 0.152,-0.023 0.273,-0.051 0.365,-0.083 0.092,-0.032 0.156,-0.075 0.193,-0.13 C -0.019,17.198 0,17.134 0,17.061 Z" /></g><g
           transform="translate(31.3817,11.6418)"
           id="g36"><path
             id="path38"
             style="fill:#7ab72b;fill-opacity:1;fill-rule:nonzero;stroke:none"
             d="m 0,0 c 0,1.007 -0.089,1.941 -0.268,2.802 -0.179,0.861 -0.477,1.61 -0.895,2.246 -0.417,0.637 -0.974,1.134 -1.671,1.491 -0.697,0.357 -1.559,0.535 -2.587,0.535 -1.027,0 -1.889,-0.19 -2.586,-0.57 C -8.704,6.124 -9.271,5.611 -9.706,4.966 -10.142,4.32 -10.454,3.571 -10.642,2.72 -10.83,1.868 -10.924,0.966 -10.924,0.013 c 0,-1.044 0.087,-2.003 0.261,-2.877 0.175,-0.875 0.468,-1.633 0.881,-2.274 0.413,-0.641 0.965,-1.138 1.657,-1.49 0.693,-0.353 1.562,-0.529 2.607,-0.529 1.037,0 1.908,0.192 2.614,0.577 0.707,0.384 1.275,0.904 1.706,1.559 0.431,0.654 0.739,1.415 0.922,2.28 C -0.092,-1.875 0,-0.962 0,0 m 4.678,-10.508 c 0,-0.211 -0.012,-0.387 -0.035,-0.529 -0.023,-0.142 -0.057,-0.252 -0.103,-0.329 -0.046,-0.078 -0.096,-0.131 -0.151,-0.158 -0.055,-0.028 -0.111,-0.042 -0.165,-0.042 -0.184,0 -0.48,0.076 -0.888,0.227 -0.408,0.15 -0.878,0.371 -1.41,0.659 -0.532,0.288 -1.1,0.639 -1.706,1.051 -0.605,0.412 -1.192,0.893 -1.761,1.442 -0.449,-0.274 -1.018,-0.513 -1.706,-0.714 -0.688,-0.201 -1.485,-0.302 -2.394,-0.302 -1.339,0 -2.497,0.197 -3.473,0.59 -0.977,0.394 -1.784,0.971 -2.422,1.731 -0.637,0.76 -1.112,1.706 -1.424,2.837 -0.312,1.13 -0.467,2.429 -0.467,3.894 0,1.41 0.169,2.685 0.509,3.825 0.339,1.14 0.848,2.111 1.527,2.913 0.679,0.801 1.527,1.419 2.545,1.854 1.018,0.435 2.206,0.652 3.563,0.652 1.275,0 2.396,-0.197 3.364,-0.59 C -0.952,8.109 -0.14,7.534 0.516,6.779 1.172,6.023 1.665,5.091 1.995,3.984 2.325,2.875 2.49,1.602 2.49,0.165 2.49,-0.577 2.446,-1.287 2.359,-1.964 2.272,-2.642 2.134,-3.283 1.947,-3.888 1.759,-4.492 1.522,-5.051 1.238,-5.563 0.954,-6.077 0.619,-6.539 0.234,-6.951 0.903,-7.5 1.49,-7.929 1.995,-8.235 2.499,-8.542 2.917,-8.774 3.247,-8.929 3.577,-9.085 3.833,-9.197 4.017,-9.265 4.2,-9.334 4.338,-9.412 4.43,-9.499 c 0.091,-0.086 0.156,-0.21 0.192,-0.371 0.037,-0.16 0.056,-0.373 0.056,-0.638" /></g><g
           transform="translate(46.3637,15.076)"
           id="g40"><path
             id="path42"
             style="fill:#7ab72b;fill-opacity:1;fill-rule:nonzero;stroke:none"
             d="M 0,0 C 0,0.723 -0.135,1.328 -0.406,1.814 -0.676,2.299 -1.011,2.66 -1.41,2.899 -1.809,3.137 -2.222,3.288 -2.648,3.352 -3.075,3.416 -3.49,3.448 -3.894,3.448 h -2.187 v -7.129 h 2.132 c 0.716,0 1.31,0.091 1.782,0.274 0.472,0.183 0.869,0.437 1.19,0.763 0.321,0.325 0.564,0.714 0.73,1.167 C -0.083,-1.023 0,-0.531 0,0 M 2.49,0.192 C 2.49,-0.696 2.343,-1.497 2.05,-2.212 1.756,-2.926 1.337,-3.535 0.791,-4.039 0.246,-4.542 -0.424,-4.931 -1.218,-5.206 c -0.793,-0.275 -1.74,-0.412 -2.84,-0.412 h -2.023 v -6.401 c 0,-0.074 -0.02,-0.138 -0.062,-0.193 -0.041,-0.055 -0.105,-0.098 -0.192,-0.13 -0.087,-0.033 -0.207,-0.06 -0.358,-0.083 -0.151,-0.022 -0.342,-0.034 -0.571,-0.034 -0.229,0 -0.419,0.012 -0.571,0.034 -0.151,0.023 -0.273,0.051 -0.365,0.083 -0.091,0.032 -0.156,0.075 -0.192,0.13 -0.037,0.055 -0.055,0.119 -0.055,0.193 V 4.382 c 0,0.366 0.096,0.627 0.289,0.783 0.192,0.156 0.407,0.234 0.646,0.234 h 3.811 c 0.386,0 0.755,-0.016 1.108,-0.049 0.353,-0.032 0.77,-0.1 1.251,-0.206 C -0.86,5.039 -0.369,4.842 0.131,4.554 0.63,4.265 1.054,3.91 1.403,3.489 1.752,3.068 2.02,2.58 2.208,2.026 2.396,1.472 2.49,0.861 2.49,0.192" /></g><g
           transform="translate(58.1398,18.1117)"
           id="g44"><path
             id="path46"
             style="fill:#7ab72b;fill-opacity:1;fill-rule:nonzero;stroke:none"
             d="m 0,0 h -0.014 l -3.067,-8.86 h 6.19 z m 7.663,-14.575 c 0.073,-0.201 0.112,-0.363 0.117,-0.487 0.004,-0.124 -0.03,-0.218 -0.103,-0.282 -0.074,-0.064 -0.195,-0.105 -0.365,-0.124 -0.17,-0.018 -0.396,-0.027 -0.681,-0.027 -0.284,0 -0.511,0.007 -0.681,0.02 -0.169,0.014 -0.298,0.037 -0.385,0.069 -0.087,0.032 -0.151,0.076 -0.192,0.13 -0.042,0.055 -0.081,0.124 -0.117,0.206 l -1.527,4.327 h -7.402 l -1.458,-4.272 c -0.028,-0.082 -0.065,-0.154 -0.111,-0.212 -0.046,-0.06 -0.112,-0.111 -0.199,-0.152 -0.087,-0.041 -0.211,-0.07 -0.372,-0.089 -0.16,-0.018 -0.369,-0.028 -0.625,-0.028 -0.266,0 -0.484,0.012 -0.654,0.035 -0.169,0.023 -0.289,0.066 -0.357,0.13 -0.069,0.064 -0.102,0.158 -0.097,0.282 0.005,0.124 0.044,0.286 0.117,0.488 L -1.458,1.95 c 0.037,0.1 0.085,0.183 0.144,0.247 0.06,0.064 0.147,0.115 0.262,0.151 0.114,0.037 0.261,0.062 0.44,0.076 0.178,0.014 0.406,0.02 0.681,0.02 0.293,0 0.536,-0.006 0.729,-0.02 C 0.991,2.41 1.147,2.385 1.266,2.348 1.385,2.311 1.477,2.259 1.541,2.19 1.605,2.121 1.655,2.037 1.692,1.936 Z" /></g><g
           transform="translate(74.4424,9.6089)"
           id="g48"><path
             id="path50"
             style="fill:#7ab72b;fill-opacity:1;fill-rule:nonzero;stroke:none"
             d="m 0,0 v -6.552 c 0,-0.074 -0.018,-0.138 -0.055,-0.192 -0.036,-0.055 -0.1,-0.099 -0.191,-0.131 -0.091,-0.032 -0.215,-0.059 -0.37,-0.082 -0.155,-0.023 -0.342,-0.035 -0.56,-0.035 -0.229,0 -0.417,0.012 -0.568,0.035 -0.151,0.023 -0.274,0.05 -0.37,0.082 -0.096,0.032 -0.161,0.076 -0.198,0.131 -0.037,0.055 -0.055,0.118 -0.055,0.192 V 0 l -5.035,10.028 c -0.101,0.21 -0.163,0.375 -0.185,0.494 -0.024,0.119 0,0.211 0.068,0.275 0.069,0.064 0.193,0.105 0.372,0.123 0.179,0.019 0.419,0.028 0.722,0.028 0.275,0 0.497,-0.009 0.667,-0.028 0.17,-0.018 0.305,-0.043 0.406,-0.075 0.101,-0.032 0.177,-0.078 0.227,-0.138 0.051,-0.059 0.099,-0.135 0.145,-0.226 l 2.462,-5.11 c 0.228,-0.486 0.457,-0.994 0.685,-1.525 0.227,-0.531 0.46,-1.067 0.697,-1.607 h 0.028 c 0.209,0.522 0.426,1.041 0.65,1.559 0.223,0.517 0.449,1.028 0.678,1.532 l 2.476,5.137 c 0.028,0.091 0.067,0.169 0.117,0.233 0.051,0.064 0.119,0.113 0.207,0.145 0.087,0.032 0.208,0.057 0.364,0.075 0.156,0.019 0.353,0.028 0.592,0.028 0.33,0 0.589,-0.012 0.777,-0.034 0.188,-0.023 0.318,-0.067 0.392,-0.131 0.074,-0.064 0.099,-0.156 0.076,-0.274 -0.023,-0.12 -0.085,-0.28 -0.186,-0.481 z" /></g></g></g></g></svg>