<svg width="33" height="35" viewBox="0 0 33 35" fill="none" xmlns="http://www.w3.org/2000/svg">
<g clip-path="url(#clip0_1_13750)">
<path d="M19.7147 0C19.646 0 6.0874 0 6.01869 0C2.77791 0.114515 0.15552 2.83997 0.15552 6.10365V6.11511C0.15552 28.7318 0.132617 28.9265 0.201326 29.0983C0.327293 32.3276 2.98404 34.95 6.25917 34.95C9.60301 34.95 12.317 32.2131 12.317 28.8463V27.2317V24.8956H19.7032C26.5283 24.8956 32.0709 19.3072 32.0709 12.4478C32.0823 5.58834 26.5283 0 19.7147 0ZM19.6689 11.5202C20.2071 11.5202 20.6423 11.9554 20.6423 12.4936C20.6423 12.9402 20.3216 13.467 19.5544 13.467C19.5544 13.467 13.0614 13.467 13.0499 13.467V11.5088H19.6689V11.5202ZM19.7147 23.4527C16.1647 23.4527 8.87011 23.3954 6.32788 23.613C4.36967 23.7733 2.52598 24.5062 1.59841 25.9606V18.1964C1.99921 15.1045 5.12547 14.9213 7.2669 14.9213L19.4857 14.9099C21.7073 14.761 23.299 13.6044 24.2037 11.9439C26.0245 8.60008 25.0625 4.01948 21.4439 1.59176C26.6543 2.42772 30.6623 6.98542 30.6623 12.4592C30.6394 18.5171 25.7382 23.4527 19.7147 23.4527Z" fill="#00A79D"/>
</g>
<defs>
<clipPath id="clip0_1_13750">
<rect width="31.9268" height="34.95" fill="white" transform="translate(0.15625)"/>
</clipPath>
</defs>
</svg>
