<svg width="214" height="35" viewBox="0 0 214 35" fill="none" xmlns="http://www.w3.org/2000/svg">
<path d="M46.8077 10.4777V10.9288C47.5093 10.0631 48.2383 9.42984 48.9946 9.0289C49.7509 8.61885 50.6075 8.41383 51.5642 8.41383C52.7124 8.41383 53.7694 8.70997 54.7353 9.30227C55.7012 9.89456 56.4621 10.7602 57.0179 11.8992C57.5829 13.0383 57.8653 14.3869 57.8653 15.9451C57.8653 17.0932 57.7013 18.1502 57.3733 19.1161C57.0543 20.0729 56.6124 20.8793 56.0474 21.5354C55.4825 22.1824 54.8127 22.6835 54.0382 23.0389C53.2728 23.3852 52.4481 23.5583 51.5642 23.5583C50.4981 23.5583 49.6006 23.3442 48.8716 22.9159C48.1517 22.4876 47.4638 21.8589 46.8077 21.0297V26.6337C46.8077 28.2739 46.2108 29.094 45.0171 29.094C44.3155 29.094 43.8508 28.8798 43.623 28.4516C43.3952 28.0324 43.2812 27.4173 43.2812 26.6063V10.5051C43.2812 9.79433 43.4362 9.26582 43.746 8.91955C44.0558 8.56418 44.4795 8.38649 45.0171 8.38649C45.5456 8.38649 45.9739 8.56873 46.3019 8.93322C46.6391 9.2886 46.8077 9.80344 46.8077 10.4777ZM54.1202 15.9041C54.1202 14.9199 53.9699 14.0771 53.6692 13.3754C53.3685 12.6647 52.9493 12.1225 52.4117 11.7489C51.8832 11.3662 51.2954 11.1748 50.6485 11.1748C49.6188 11.1748 48.7486 11.5803 48.0378 12.3913C47.3362 13.2023 46.9854 14.396 46.9854 15.9724C46.9854 17.4577 47.3362 18.6149 48.0378 19.4441C48.7395 20.2642 49.6097 20.6743 50.6485 20.6743C51.2681 20.6743 51.8422 20.4966 52.3707 20.1412C52.8992 19.7767 53.3229 19.2346 53.6418 18.5147C53.9608 17.7948 54.1202 16.9246 54.1202 15.9041Z" fill="#1E1E1E"/>
<path d="M60.8587 21.2894V5.1061C60.8587 4.3589 61.0227 3.79394 61.3507 3.41123C61.6879 3.02851 62.139 2.83716 62.7039 2.83716C63.2689 2.83716 63.7245 3.02851 64.0707 3.41123C64.417 3.78483 64.5901 4.34978 64.5901 5.1061V21.2894C64.5901 22.0457 64.4125 22.6152 64.0571 22.9979C63.7108 23.3715 63.2598 23.5583 62.7039 23.5583C62.1572 23.5583 61.7107 23.3624 61.3644 22.9706C61.0273 22.5787 60.8587 22.0183 60.8587 21.2894Z" fill="#1E1E1E"/>
<path d="M78.1491 21.4534V20.975C77.7026 21.54 77.2333 22.0138 76.7413 22.3965C76.2492 22.7792 75.7116 23.0617 75.1284 23.2439C74.5452 23.4353 73.88 23.531 73.1328 23.531C72.2307 23.531 71.4197 23.3442 70.6999 22.9706C69.9891 22.597 69.4378 22.0821 69.046 21.4261C68.5813 20.6333 68.3489 19.4943 68.3489 18.009V10.6144C68.3489 9.86722 68.5175 9.31138 68.8547 8.94689C69.1918 8.57329 69.6383 8.38649 70.1941 8.38649C70.7591 8.38649 71.2147 8.57329 71.561 8.94689C71.9072 9.32049 72.0804 9.87634 72.0804 10.6144V16.5875C72.0804 17.4531 72.1533 18.1821 72.2991 18.7744C72.4449 19.3576 72.7046 19.8177 73.0782 20.1549C73.4609 20.4829 73.9757 20.647 74.6227 20.647C75.2514 20.647 75.8437 20.4602 76.3996 20.0866C76.9554 19.713 77.3609 19.2255 77.616 18.6241C77.8256 18.0955 77.9304 16.9383 77.9304 15.1523V10.6144C77.9304 9.87634 78.1035 9.32049 78.4498 8.94689C78.7961 8.57329 79.2471 8.38649 79.803 8.38649C80.3588 8.38649 80.8053 8.57329 81.1425 8.94689C81.4796 9.31138 81.6482 9.86722 81.6482 10.6144V21.4261C81.6482 22.1368 81.4842 22.6699 81.1561 23.0252C80.8372 23.3806 80.4226 23.5583 79.9123 23.5583C79.402 23.5583 78.9783 23.3761 78.6412 23.0116C78.3131 22.638 78.1491 22.1186 78.1491 21.4534Z" fill="#1E1E1E"/>
<path d="M97.3941 18.6787C97.3941 19.7084 97.1435 20.5923 96.6423 21.3304C96.1411 22.0594 95.3985 22.6152 94.4144 22.9979C93.4394 23.3715 92.2502 23.5583 90.847 23.5583C89.5075 23.5583 88.3593 23.3533 87.4025 22.9432C86.4458 22.5332 85.7396 22.0229 85.284 21.4124C84.8283 20.7928 84.6005 20.1731 84.6005 19.5535C84.6005 19.1434 84.7463 18.7926 85.0379 18.501C85.3295 18.2094 85.6986 18.0636 86.1451 18.0636C86.5369 18.0636 86.8376 18.1593 87.0472 18.3507C87.2567 18.542 87.4572 18.8109 87.6486 19.1571C88.0313 19.8223 88.4869 20.3189 89.0154 20.647C89.553 20.975 90.282 21.139 91.2023 21.139C91.9495 21.139 92.56 20.975 93.0339 20.647C93.5168 20.3098 93.7583 19.9271 93.7583 19.4988C93.7583 18.8427 93.5077 18.3644 93.0065 18.0636C92.5145 17.7629 91.6989 17.4759 90.5599 17.2025C89.2751 16.8836 88.2272 16.551 87.4162 16.2048C86.6143 15.8494 85.9719 15.3847 85.489 14.8106C85.006 14.2365 84.7646 13.5303 84.7646 12.692C84.7646 11.9448 84.9878 11.2386 85.4343 10.5734C85.8808 9.90823 86.5369 9.37972 87.4025 8.9879C88.2773 8.58696 89.3298 8.38649 90.5599 8.38649C91.5258 8.38649 92.3915 8.48672 93.1569 8.68719C93.9314 8.88766 94.5738 9.15647 95.0841 9.49362C95.6035 9.83077 95.9953 10.2044 96.2596 10.6144C96.533 11.0245 96.6697 11.4254 96.6697 11.8172C96.6697 12.2455 96.5239 12.5963 96.2323 12.8697C95.9498 13.1431 95.5443 13.2797 95.0158 13.2797C94.6331 13.2797 94.305 13.1704 94.0317 12.9517C93.7674 12.733 93.4622 12.405 93.1159 11.9676C92.8334 11.6031 92.5008 11.3115 92.1181 11.0928C91.7354 10.8741 91.216 10.7648 90.5599 10.7648C89.8856 10.7648 89.3252 10.9106 88.8787 11.2022C88.4322 11.4846 88.209 11.84 88.209 12.2683C88.209 12.6601 88.373 12.9836 88.701 13.2387C89.0291 13.4848 89.471 13.6898 90.0269 13.8538C90.5827 14.0178 91.3481 14.2183 92.3231 14.4552C93.4804 14.7377 94.4235 15.0748 95.1525 15.4667C95.8906 15.8585 96.4464 16.3232 96.82 16.8608C97.2027 17.3893 97.3941 17.9953 97.3941 18.6787Z" fill="#1E1E1E"/>
<path d="M103.996 10.4777V10.9288C104.698 10.0631 105.426 9.42984 106.183 9.0289C106.939 8.61885 107.796 8.41383 108.752 8.41383C109.901 8.41383 110.958 8.70997 111.923 9.30227C112.889 9.89456 113.65 10.7602 114.206 11.8992C114.771 13.0383 115.054 14.3869 115.054 15.9451C115.054 17.0932 114.89 18.1502 114.561 19.1161C114.243 20.0729 113.801 20.8793 113.236 21.5354C112.671 22.1824 112.001 22.6835 111.226 23.0389C110.461 23.3852 109.636 23.5583 108.752 23.5583C107.686 23.5583 106.789 23.3442 106.06 22.9159C105.34 22.4876 104.652 21.8589 103.996 21.0297V26.6337C103.996 28.2739 103.399 29.094 102.205 29.094C101.504 29.094 101.039 28.8798 100.811 28.4516C100.583 28.0324 100.469 27.4173 100.469 26.6063V10.5051C100.469 9.79433 100.624 9.26582 100.934 8.91955C101.244 8.56418 101.668 8.38649 102.205 8.38649C102.734 8.38649 103.162 8.56873 103.49 8.93322C103.827 9.2886 103.996 9.80344 103.996 10.4777ZM111.308 15.9041C111.308 14.9199 111.158 14.0771 110.857 13.3754C110.557 12.6647 110.137 12.1225 109.6 11.7489C109.071 11.3662 108.484 11.1748 107.837 11.1748C106.807 11.1748 105.937 11.5803 105.226 12.3913C104.524 13.2023 104.174 14.396 104.174 15.9724C104.174 17.4577 104.524 18.6149 105.226 19.4441C105.928 20.2642 106.798 20.6743 107.837 20.6743C108.456 20.6743 109.03 20.4966 109.559 20.1412C110.087 19.7767 110.511 19.2346 110.83 18.5147C111.149 17.7948 111.308 16.9246 111.308 15.9041Z" fill="#1E1E1E"/>
<path d="M128.462 16.8882H121.163C121.172 17.7356 121.341 18.4828 121.669 19.1298C122.006 19.7767 122.448 20.2642 122.995 20.5923C123.551 20.9203 124.161 21.0843 124.826 21.0843C125.273 21.0843 125.678 21.0342 126.043 20.934C126.416 20.8246 126.776 20.6606 127.123 20.4419C127.469 20.2141 127.788 19.9727 128.079 19.7175C128.371 19.4624 128.749 19.1161 129.214 18.6787C129.405 18.5147 129.679 18.4327 130.034 18.4327C130.417 18.4327 130.727 18.5375 130.963 18.7471C131.2 18.9566 131.319 19.2528 131.319 19.6355C131.319 19.9727 131.187 20.369 130.922 20.8246C130.658 21.2711 130.257 21.704 129.72 22.1231C129.191 22.5332 128.521 22.8749 127.71 23.1483C126.909 23.4216 125.984 23.5583 124.936 23.5583C122.539 23.5583 120.676 22.8749 119.345 21.5081C118.015 20.1412 117.35 18.2869 117.35 15.9451C117.35 14.8425 117.514 13.8219 117.842 12.8834C118.17 11.9357 118.648 11.1247 119.277 10.4504C119.906 9.7761 120.68 9.26126 121.601 8.90589C122.521 8.5414 123.542 8.35915 124.662 8.35915C126.12 8.35915 127.369 8.66897 128.407 9.2886C129.455 9.89912 130.239 10.6919 130.758 11.6669C131.278 12.6419 131.537 13.6351 131.537 14.6466C131.537 15.5851 131.269 16.1956 130.731 16.4781C130.193 16.7515 129.437 16.8882 128.462 16.8882ZM121.163 14.7696H127.929C127.838 13.4939 127.492 12.5417 126.89 11.9129C126.298 11.2751 125.514 10.9561 124.539 10.9561C123.61 10.9561 122.844 11.2796 122.243 11.9266C121.651 12.5644 121.291 13.5121 121.163 14.7696Z" fill="#1E1E1E"/>
<path d="M144.942 21.4261V21.057C144.441 21.6311 143.944 22.1004 143.452 22.4648C142.969 22.8202 142.441 23.089 141.867 23.2713C141.302 23.4626 140.682 23.5583 140.008 23.5583C139.115 23.5583 138.285 23.3715 137.52 22.9979C136.764 22.6152 136.108 22.073 135.552 21.3714C134.996 20.6697 134.572 19.8451 134.281 18.8974C133.998 17.9497 133.857 16.9246 133.857 15.822C133.857 13.4893 134.426 11.6714 135.565 10.3684C136.704 9.06535 138.203 8.41383 140.062 8.41383C141.138 8.41383 142.044 8.60063 142.782 8.97423C143.52 9.33872 144.24 9.90367 144.942 10.6691V5.16077C144.942 4.39534 145.092 3.81672 145.393 3.4249C145.703 3.03307 146.14 2.83716 146.705 2.83716C147.27 2.83716 147.703 3.0194 148.004 3.38389C148.313 3.73927 148.468 4.26777 148.468 4.96941V21.4261C148.468 22.1368 148.304 22.6699 147.976 23.0252C147.648 23.3806 147.225 23.5583 146.705 23.5583C146.195 23.5583 145.771 23.3761 145.434 23.0116C145.106 22.638 144.942 22.1095 144.942 21.4261ZM137.602 15.9451C137.602 16.9565 137.757 17.8176 138.067 18.5284C138.386 19.2391 138.819 19.7767 139.365 20.1412C139.912 20.4966 140.509 20.6743 141.156 20.6743C141.812 20.6743 142.409 20.5057 142.946 20.1686C143.493 19.8223 143.926 19.2984 144.245 18.5967C144.573 17.886 144.737 17.0021 144.737 15.9451C144.737 14.9518 144.573 14.0998 144.245 13.3891C143.926 12.6692 143.489 12.1225 142.933 11.7489C142.386 11.3662 141.785 11.1748 141.128 11.1748C140.445 11.1748 139.835 11.3707 139.297 11.7626C138.759 12.1453 138.34 12.7011 138.039 13.4301C137.748 14.15 137.602 14.9883 137.602 15.9451Z" fill="#00A79D"/>
<path d="M155.945 10.5051V21.2894C155.945 22.0366 155.767 22.6015 155.412 22.9842C155.056 23.367 154.605 23.5583 154.059 23.5583C153.512 23.5583 153.065 23.3624 152.719 22.9706C152.382 22.5787 152.213 22.0183 152.213 21.2894V10.6144C152.213 9.87634 152.382 9.32049 152.719 8.94689C153.065 8.57329 153.512 8.38649 154.059 8.38649C154.605 8.38649 155.056 8.57329 155.412 8.94689C155.767 9.32049 155.945 9.83989 155.945 10.5051ZM154.1 6.65062C153.58 6.65062 153.134 6.49115 152.76 6.17222C152.396 5.8533 152.213 5.40224 152.213 4.81906C152.213 4.29055 152.4 3.85772 152.774 3.52057C153.157 3.17431 153.599 3.00118 154.1 3.00118C154.583 3.00118 155.011 3.15609 155.385 3.4659C155.758 3.77572 155.945 4.22677 155.945 4.81906C155.945 5.39313 155.763 5.84419 155.398 6.17222C155.034 6.49115 154.601 6.65062 154.1 6.65062Z" fill="#00A79D"/>
<path d="M163.517 18.173V21.2894C163.517 22.0457 163.339 22.6152 162.984 22.9979C162.629 23.3715 162.178 23.5583 161.631 23.5583C161.093 23.5583 160.651 23.367 160.305 22.9842C159.959 22.6015 159.786 22.0366 159.786 21.2894V10.9015C159.786 9.22481 160.392 8.38649 161.604 8.38649C162.223 8.38649 162.67 8.5824 162.943 8.97423C163.216 9.36605 163.367 9.94468 163.394 10.7101C163.841 9.94468 164.296 9.36605 164.761 8.97423C165.235 8.5824 165.864 8.38649 166.647 8.38649C167.431 8.38649 168.192 8.5824 168.93 8.97423C169.668 9.36605 170.037 9.88545 170.037 10.5324C170.037 10.988 169.877 11.3662 169.559 11.6669C169.249 11.9585 168.912 12.1043 168.547 12.1043C168.41 12.1043 168.078 12.0223 167.549 11.8582C167.03 11.6851 166.57 11.5985 166.169 11.5985C165.622 11.5985 165.176 11.7443 164.829 12.0359C164.483 12.3184 164.214 12.7421 164.023 13.3071C163.832 13.872 163.699 14.5463 163.626 15.33C163.554 16.1045 163.517 17.0522 163.517 18.173Z" fill="#00A79D"/>
<path d="M181.792 16.8882H174.493C174.502 17.7356 174.67 18.4828 174.999 19.1298C175.336 19.7767 175.778 20.2642 176.324 20.5923C176.88 20.9203 177.491 21.0843 178.156 21.0843C178.602 21.0843 179.008 21.0342 179.372 20.934C179.746 20.8246 180.106 20.6606 180.452 20.4419C180.798 20.2141 181.117 19.9727 181.409 19.7175C181.701 19.4624 182.079 19.1161 182.543 18.6787C182.735 18.5147 183.008 18.4327 183.364 18.4327C183.746 18.4327 184.056 18.5375 184.293 18.7471C184.53 18.9566 184.648 19.2528 184.648 19.6355C184.648 19.9727 184.516 20.369 184.252 20.8246C183.988 21.2711 183.587 21.704 183.049 22.1231C182.521 22.5332 181.851 22.8749 181.04 23.1483C180.238 23.4216 179.313 23.5583 178.265 23.5583C175.869 23.5583 174.005 22.8749 172.675 21.5081C171.345 20.1412 170.679 18.2869 170.679 15.9451C170.679 14.8425 170.843 13.8219 171.171 12.8834C171.499 11.9357 171.978 11.1247 172.607 10.4504C173.235 9.7761 174.01 9.26126 174.93 8.90589C175.851 8.5414 176.871 8.35915 177.992 8.35915C179.45 8.35915 180.698 8.66897 181.737 9.2886C182.785 9.89912 183.569 10.6919 184.088 11.6669C184.607 12.6419 184.867 13.6351 184.867 14.6466C184.867 15.5851 184.598 16.1956 184.061 16.4781C183.523 16.7515 182.767 16.8882 181.792 16.8882ZM174.493 14.7696H181.259C181.167 13.4939 180.821 12.5417 180.22 11.9129C179.628 11.2751 178.844 10.9561 177.869 10.9561C176.939 10.9561 176.174 11.2796 175.573 11.9266C174.98 12.5644 174.62 13.5121 174.493 14.7696Z" fill="#00A79D"/>
<path d="M201.406 18.9384C201.406 19.4031 201.264 19.8998 200.982 20.4283C200.709 20.9568 200.285 21.4625 199.711 21.9454C199.146 22.4193 198.431 22.802 197.565 23.0936C196.699 23.3852 195.724 23.531 194.64 23.531C192.334 23.531 190.535 22.8612 189.241 21.5217C187.947 20.1731 187.3 18.3689 187.3 16.1091C187.3 14.5782 187.596 13.2251 188.188 12.0496C188.781 10.8741 189.637 9.96746 190.758 9.3296C191.879 8.68264 193.218 8.35915 194.777 8.35915C195.742 8.35915 196.626 8.50039 197.428 8.78287C198.239 9.06535 198.923 9.42984 199.478 9.87634C200.043 10.3228 200.472 10.8012 200.763 11.3115C201.064 11.8127 201.214 12.282 201.214 12.7193C201.214 13.1658 201.046 13.544 200.709 13.8538C200.381 14.1636 199.98 14.3185 199.506 14.3185C199.196 14.3185 198.936 14.2411 198.727 14.0862C198.526 13.9222 198.298 13.6625 198.043 13.3071C197.588 12.6146 197.109 12.0952 196.608 11.7489C196.116 11.4026 195.487 11.2295 194.722 11.2295C193.619 11.2295 192.731 11.6623 192.057 12.528C191.382 13.3845 191.045 14.56 191.045 16.0544C191.045 16.756 191.132 17.403 191.305 17.9953C191.478 18.5785 191.729 19.0797 192.057 19.4988C192.385 19.9089 192.781 20.2232 193.246 20.4419C193.71 20.6515 194.221 20.7563 194.777 20.7563C195.524 20.7563 196.162 20.5832 196.69 20.2369C197.228 19.8906 197.702 19.3621 198.112 18.6514C198.339 18.2322 198.585 17.9042 198.85 17.6673C199.114 17.4304 199.437 17.3119 199.82 17.3119C200.276 17.3119 200.654 17.485 200.955 17.8313C201.255 18.1776 201.406 18.5466 201.406 18.9384Z" fill="#00A79D"/>
<path d="M204.877 8.71453H205.287V6.47293C205.287 5.87152 205.301 5.40224 205.328 5.06509C205.365 4.71883 205.456 4.42268 205.602 4.17665C205.748 3.92151 205.957 3.71649 206.231 3.56158C206.504 3.39756 206.809 3.31555 207.146 3.31555C207.62 3.31555 208.048 3.49324 208.431 3.84861C208.686 4.08553 208.846 4.37712 208.91 4.72338C208.982 5.06054 209.019 5.54348 209.019 6.17222V8.71453H210.386C210.914 8.71453 211.315 8.8421 211.589 9.09724C211.871 9.34327 212.012 9.6622 212.012 10.054C212.012 10.5552 211.812 10.906 211.411 11.1065C211.019 11.307 210.454 11.4072 209.716 11.4072H209.019V18.2687C209.019 18.8519 209.037 19.3029 209.074 19.6218C209.119 19.9317 209.229 20.1868 209.402 20.3873C209.584 20.5786 209.875 20.6743 210.276 20.6743C210.495 20.6743 210.791 20.6378 211.165 20.5649C211.538 20.4829 211.83 20.4419 212.04 20.4419C212.34 20.4419 212.609 20.5649 212.846 20.811C213.092 21.0479 213.215 21.344 213.215 21.6994C213.215 22.3008 212.887 22.761 212.231 23.0799C211.575 23.3988 210.632 23.5583 209.402 23.5583C208.235 23.5583 207.351 23.3624 206.75 22.9706C206.149 22.5787 205.752 22.0366 205.561 21.344C205.379 20.6515 205.287 19.7266 205.287 18.5694V11.4072H204.795C204.258 11.4072 203.848 11.2796 203.565 11.0245C203.283 10.7693 203.142 10.4458 203.142 10.054C203.142 9.6622 203.287 9.34327 203.579 9.09724C203.88 8.8421 204.312 8.71453 204.877 8.71453Z" fill="#00A79D"/>
<g clip-path="url(#clip0_1_13750)">
<path d="M19.7147 0C19.646 0 6.0874 0 6.01869 0C2.77791 0.114515 0.15552 2.83997 0.15552 6.10365V6.11511C0.15552 28.7318 0.132617 28.9265 0.201326 29.0983C0.327293 32.3276 2.98404 34.95 6.25917 34.95C9.60301 34.95 12.317 32.2131 12.317 28.8463V27.2317V24.8956H19.7032C26.5283 24.8956 32.0709 19.3072 32.0709 12.4478C32.0823 5.58834 26.5283 0 19.7147 0ZM19.6689 11.5202C20.2071 11.5202 20.6423 11.9554 20.6423 12.4936C20.6423 12.9402 20.3216 13.467 19.5544 13.467C19.5544 13.467 13.0614 13.467 13.0499 13.467V11.5088H19.6689V11.5202ZM19.7147 23.4527C16.1647 23.4527 8.87011 23.3954 6.32788 23.613C4.36967 23.7733 2.52598 24.5062 1.59841 25.9606V18.1964C1.99921 15.1045 5.12547 14.9213 7.2669 14.9213L19.4857 14.9099C21.7073 14.761 23.299 13.6044 24.2037 11.9439C26.0245 8.60008 25.0625 4.01948 21.4439 1.59176C26.6543 2.42772 30.6623 6.98542 30.6623 12.4592C30.6394 18.5171 25.7382 23.4527 19.7147 23.4527Z" fill="#00A79D"/>
</g>
<defs>
<clipPath id="clip0_1_13750">
<rect width="31.9268" height="34.95" fill="white" transform="translate(0.15625)"/>
</clipPath>
</defs>
</svg>
