<?xml version="1.0" encoding="UTF-8"?>
<svg width="95.88" height="79.802" version="1.1" viewBox="0 0 25.368303 21.114305" xmlns="http://www.w3.org/2000/svg" xmlns:cc="http://creativecommons.org/ns#" xmlns:dc="http://purl.org/dc/elements/1.1/" xmlns:rdf="http://www.w3.org/1999/02/22-rdf-syntax-ns#">
<defs></defs>
<metadata>
<rdf:RDF>
<cc:Work rdf:about="">
<dc:format>image/svg+xml</dc:format>
<dc:type rdf:resource="http://purl.org/dc/dcmitype/StillImage"/>
<dc:title/>
</cc:Work>
</rdf:RDF>
</metadata>
<g transform="translate(-75.11 -233.11)" fill="#4a7fc2">
<path d="m80.719 242.53h2.2173c0.62563 0 1.1162 0.18466 1.4359 0.49747 0.2632 0.2701 0.41203 0.63941 0.41203 1.0735v0.0138c0 0.81717-0.49058 1.3078-1.1796 1.5062l1.3436 1.8838h-1.0377l-1.2223-1.7336h-1.0955v1.7336h-0.87368zm2.1539 2.4667c0.62563 0 1.0225-0.32798 1.0225-0.83234v-0.0138c0-0.5333-0.38309-0.82544-1.0294-0.82544h-1.2733v1.6716h1.2802"/>
<path d="m85.556 245.04v-0.0138c0-1.4139 1.0597-2.5728 2.5659-2.5728 0.91778 0 1.4717 0.3197 1.9472 0.77445l-0.56086 0.6463c-0.39825-0.36931-0.82407-0.61736-1.3932-0.61736-0.94534 0-1.6412 0.78135-1.6412 1.7556v0.0138c0 0.97289 0.68902 1.7625 1.6412 1.7625 0.61185 0 1.0018-0.24116 1.429-0.63941l0.56086 0.56913c-0.51814 0.54019-1.0873 0.88056-2.0188 0.88056-1.4497 0-2.5301-1.13-2.5301-2.559"/>
<path d="m90.879 242.53h2.2324c0.56775 0 1.0156 0.15572 1.2995 0.44097 0.22049 0.22049 0.33486 0.4892 0.33486 0.82407v0.0138c0 0.59807-0.34175 0.9164-0.71107 1.1093 0.58291 0.19843 0.98805 0.53329 0.98805 1.2085v0.0138c0 0.88883-0.73174 1.3643-1.8411 1.3643h-2.3027zm2.9931 1.407c0-0.39137-0.31281-0.63252-0.87505-0.63252h-1.2582v1.3215h1.1948c0.56086 0 0.93844-0.21911 0.93844-0.67524zm-0.74689 1.429h-1.3863v1.3643h1.4497c0.59807 0 0.96049-0.23427 0.96049-0.68213v-0.0138c0-0.42031-0.33486-0.66835-1.0239-0.66835"/>
<path d="m95.797 245.04v-0.0138c0-1.4139 1.0597-2.5728 2.5659-2.5728 0.91778 0 1.4717 0.3197 1.9485 0.77445l-0.56224 0.6463c-0.39826-0.36931-0.82407-0.61736-1.3932-0.61736-0.94534 0-1.6412 0.78135-1.6412 1.7556v0.0138c0 0.97289 0.68902 1.7625 1.6412 1.7625 0.61185 0 1.0018-0.24116 1.429-0.63941l0.56086 0.56913c-0.51814 0.54019-1.0873 0.88056-2.0174 0.88056-1.4511 0-2.5315-1.13-2.5315-2.559"/>
<path d="m84.32 254.1-9.0206-5.2076v-10.417l9.0234-5.2104 9.0165 5.424v3.463h-0.7717v-3.0262l-8.2517-4.9623-8.2434 4.7584v9.5236l8.2476 4.7625 8.2476-4.7625v-0.54433h0.7717v0.99082l-9.0193 5.2076"/>
<path d="m80.662 242.52h2.2173c0.62563 0 1.1162 0.18466 1.4359 0.49748 0.2632 0.27009 0.41203 0.63941 0.41203 1.0735v0.0138c0 0.81717-0.49058 1.3078-1.1796 1.5076l1.3436 1.8824h-1.0377l-1.2223-1.7336h-1.0955v1.7336h-0.87368zm2.1539 2.4667c0.62563 0 1.0239-0.32797 1.0239-0.83233v-0.0138c0-0.5333-0.38447-0.82407-1.0308-0.82407h-1.2733v1.6702h1.2802"/>
<path d="m85.499 245.02v-0.0138c0-1.4139 1.0597-2.5728 2.5659-2.5728 0.91777 0 1.4717 0.3197 1.9472 0.77446l-0.56086 0.64768c-0.39825-0.3707-0.82406-0.61874-1.3932-0.61874-0.94534 0-1.6412 0.78134-1.6412 1.7556v0.0138c0 0.97428 0.68902 1.7625 1.6412 1.7625 0.61185 0 1.0018-0.24115 1.429-0.63941l0.56086 0.56913c-0.51814 0.5402-1.0873 0.88057-2.0188 0.88057-1.4497 0-2.5301-1.13-2.5301-2.559"/>
<path d="m90.823 242.52h2.2324c0.56913 0 1.0156 0.15572 1.3009 0.44098 0.22049 0.22048 0.33348 0.49058 0.33348 0.82406v0.0138c0 0.59669-0.34038 0.91777-0.71107 1.1093 0.58291 0.19843 0.98805 0.5333 0.98805 1.2085v0.0138c0 0.88884-0.73174 1.3643-1.8411 1.3643h-2.3027zm2.9931 1.407c0-0.38999-0.31282-0.63252-0.87505-0.63252h-1.2568v1.3215h1.1934c0.56086 0 0.93844-0.22049 0.93844-0.67524zm-0.7469 1.429h-1.3849v1.3643h1.4497c0.59669 0 0.95912-0.23426 0.95912-0.68212v-0.0138c0-0.41892-0.33348-0.66835-1.0239-0.66835"/>
<path d="m95.741 245.02v-0.0138c0-1.4139 1.0597-2.5728 2.5659-2.5728 0.91777 0 1.4717 0.3197 1.9485 0.77446l-0.56224 0.64768c-0.39825-0.3707-0.82406-0.61874-1.3932-0.61874-0.94534 0-1.6412 0.78134-1.6412 1.7556v0.0138c0 0.97428 0.68902 1.7625 1.6412 1.7625 0.61185 0 1.0018-0.24115 1.429-0.63941l0.56086 0.56913c-0.51814 0.5402-1.0873 0.88057-2.0174 0.88057-1.4511 0-2.5315-1.13-2.5315-2.559"/>
<path d="m84.263 254.08-9.0206-5.2076v-10.415l9.0248-5.2104 9.0165 5.4226v3.463h-0.77308v-3.0262l-8.2517-4.9623-8.2434 4.7597v9.5222l8.2476 4.7625 8.2476-4.7625v-0.54433h0.77308v0.99081l-9.0206 5.2076"/>
</g>
</svg>
