<?xml version="1.0" encoding="UTF-8"?>
<svg width="134.81" height="79.802" version="1.1" viewBox="0 0 35.667763 21.114305" xmlns="http://www.w3.org/2000/svg" xmlns:cc="http://creativecommons.org/ns#" xmlns:dc="http://purl.org/dc/elements/1.1/" xmlns:rdf="http://www.w3.org/1999/02/22-rdf-syntax-ns#">
<defs></defs>
<metadata>
<rdf:RDF>
<cc:Work rdf:about="">
<dc:format>image/svg+xml</dc:format>
<dc:type rdf:resource="http://purl.org/dc/dcmitype/StillImage"/>
<dc:title/>
</cc:Work>
</rdf:RDF>
</metadata>
<g transform="translate(-75.11 -233.11)" fill="#4a7fc2">
<path d="m80.719 242.53h2.2173c0.62563 0 1.1162 0.18466 1.4359 0.49747 0.2632 0.2701 0.41203 0.63941 0.41203 1.0735v0.0138c0 0.81717-0.49058 1.3078-1.1796 1.5062l1.3436 1.8838h-1.0377l-1.2223-1.7336h-1.0955v1.7336h-0.87368zm2.1539 2.4667c0.62563 0 1.0225-0.32798 1.0225-0.83234v-0.0138c0-0.5333-0.38309-0.82544-1.0294-0.82544h-1.2733v1.6716h1.2802"/>
<path d="m85.556 245.04v-0.0138c0-1.4139 1.0597-2.5728 2.5659-2.5728 0.91778 0 1.4717 0.3197 1.9472 0.77445l-0.56086 0.6463c-0.39825-0.36931-0.82407-0.61736-1.3932-0.61736-0.94534 0-1.6412 0.78135-1.6412 1.7556v0.0138c0 0.97289 0.68902 1.7625 1.6412 1.7625 0.61185 0 1.0018-0.24116 1.429-0.63941l0.56086 0.56913c-0.51814 0.54019-1.0873 0.88056-2.0188 0.88056-1.4497 0-2.5301-1.13-2.5301-2.559"/>
<path d="m90.879 242.53h2.2324c0.56775 0 1.0156 0.15572 1.2995 0.44097 0.22049 0.22049 0.33486 0.4892 0.33486 0.82407v0.0138c0 0.59807-0.34175 0.9164-0.71107 1.1093 0.58291 0.19843 0.98805 0.53329 0.98805 1.2085v0.0138c0 0.88883-0.73174 1.3643-1.8411 1.3643h-2.3027zm2.9931 1.407c0-0.39137-0.31281-0.63252-0.87505-0.63252h-1.2582v1.3215h1.1948c0.56086 0 0.93844-0.21911 0.93844-0.67524zm-0.74689 1.429h-1.3863v1.3643h1.4497c0.59807 0 0.96049-0.23427 0.96049-0.68213v-0.0138c0-0.42031-0.33486-0.66835-1.0239-0.66835"/>
<path d="m95.797 245.04v-0.0138c0-1.4139 1.0597-2.5728 2.5659-2.5728 0.91778 0 1.4717 0.3197 1.9485 0.77445l-0.56224 0.6463c-0.39826-0.36931-0.82407-0.61736-1.3932-0.61736-0.94534 0-1.6412 0.78135-1.6412 1.7556v0.0138c0 0.97289 0.68902 1.7625 1.6412 1.7625 0.61185 0 1.0018-0.24116 1.429-0.63941l0.56086 0.56913c-0.51814 0.54019-1.0873 0.88056-2.0174 0.88056-1.4511 0-2.5315-1.13-2.5315-2.559"/>
<path d="m84.32 254.1-9.0206-5.2076v-10.417l9.0234-5.2104 9.0165 5.424v3.463h-0.7717v-3.0262l-8.2517-4.9623-8.2434 4.7584v9.5236l8.2476 4.7625 8.2476-4.7625v-0.54433h0.7717v0.99082l-9.0193 5.2076"/>
<path d="m80.662 242.52h2.2173c0.62563 0 1.1162 0.18466 1.4359 0.49748 0.2632 0.27009 0.41203 0.63941 0.41203 1.0735v0.0138c0 0.81717-0.49058 1.3078-1.1796 1.5076l1.3436 1.8824h-1.0377l-1.2223-1.7336h-1.0955v1.7336h-0.87368zm2.1539 2.4667c0.62563 0 1.0239-0.32797 1.0239-0.83233v-0.0138c0-0.5333-0.38447-0.82407-1.0308-0.82407h-1.2733v1.6702h1.2802"/>
<path d="m85.499 245.02v-0.0138c0-1.4139 1.0597-2.5728 2.5659-2.5728 0.91777 0 1.4717 0.3197 1.9472 0.77446l-0.56086 0.64768c-0.39825-0.3707-0.82406-0.61874-1.3932-0.61874-0.94534 0-1.6412 0.78134-1.6412 1.7556v0.0138c0 0.97428 0.68902 1.7625 1.6412 1.7625 0.61185 0 1.0018-0.24115 1.429-0.63941l0.56086 0.56913c-0.51814 0.5402-1.0873 0.88057-2.0188 0.88057-1.4497 0-2.5301-1.13-2.5301-2.559"/>
<path d="m90.823 242.52h2.2324c0.56913 0 1.0156 0.15572 1.3009 0.44098 0.22049 0.22048 0.33348 0.49058 0.33348 0.82406v0.0138c0 0.59669-0.34038 0.91777-0.71107 1.1093 0.58291 0.19843 0.98805 0.5333 0.98805 1.2085v0.0138c0 0.88884-0.73174 1.3643-1.8411 1.3643h-2.3027zm2.9931 1.407c0-0.38999-0.31282-0.63252-0.87505-0.63252h-1.2568v1.3215h1.1934c0.56086 0 0.93844-0.22049 0.93844-0.67524zm-0.7469 1.429h-1.3849v1.3643h1.4497c0.59669 0 0.95912-0.23426 0.95912-0.68212v-0.0138c0-0.41892-0.33348-0.66835-1.0239-0.66835"/>
<path d="m95.741 245.02v-0.0138c0-1.4139 1.0597-2.5728 2.5659-2.5728 0.91777 0 1.4717 0.3197 1.9485 0.77446l-0.56224 0.64768c-0.39825-0.3707-0.82406-0.61874-1.3932-0.61874-0.94534 0-1.6412 0.78134-1.6412 1.7556v0.0138c0 0.97428 0.68902 1.7625 1.6412 1.7625 0.61185 0 1.0018-0.24115 1.429-0.63941l0.56086 0.56913c-0.51814 0.5402-1.0873 0.88057-2.0174 0.88057-1.4511 0-2.5315-1.13-2.5315-2.559"/>
<path d="m84.263 254.08-9.0206-5.2076v-10.415l9.0248-5.2104 9.0165 5.4226v3.463h-0.77308v-3.0262l-8.2517-4.9623-8.2434 4.7597v9.5222l8.2476 4.7625 8.2476-4.7625v-0.54433h0.77308v0.99081l-9.0206 5.2076"/>
<path d="m97.184 248.72h0.23151l-0.27285 2.7037h-0.32246l-0.18741-2.4033h-0.0069l-0.18741 2.4033h-0.32246l-0.27285-2.7037h0.23151l0.20257 2.4185h0.0083l0.19017-2.4185h0.3073l0.20671 2.4185h0.0069l0.18741-2.4185"/>
<path d="m98.06 250.76h0.23151v0.28801c0 0.31006-0.18741 0.39275-0.38585 0.39275-0.19844 0-0.38585-0.0827-0.38585-0.39275v-1.2995c0-0.31005 0.18741-0.39274 0.38585-0.39274 0.19844 0 0.38585 0.0827 0.38585 0.39274v0.70831h-0.53882v0.59118c0 0.15021 0.05926 0.20533 0.15296 0.20533 0.0937 0 0.15434-0.0551 0.15434-0.20533zm0-1.0115c0-0.14882-0.06064-0.20532-0.15434-0.20532-0.09371 0-0.15296 0.0565-0.15296 0.20532v0.49885h0.3073v-0.49885"/>
<path d="m99.003 248.72h0.23289v0.78686h0.0069c0.0303-0.0524 0.06753-0.0896 0.113-0.11299 0.0441-0.0221 0.09646-0.0331 0.15296-0.0331 0.16123 0 0.26596 0.13505 0.26596 0.31833v1.3698c0 0.3073-0.15021 0.39687-0.29903 0.39687-0.13918 0-0.19155-0.0703-0.24805-0.14883h-0.0069v0.12678h-0.21773zm0.54019 1.0859c0-0.15021-0.04547-0.23565-0.13918-0.23565-0.1006 0-0.16812 0.0978-0.16812 0.22462v1.2389c0 0.16537 0.07855 0.22462 0.17225 0.22462 0.09371 0 0.13505-0.0744 0.13505-0.21635v-1.2361"/>
<path d="m100.55 250.76h0.23151v0.28801c0 0.31006-0.18604 0.39275-0.38585 0.39275-0.19706 0-0.38448-0.0827-0.38448-0.39275v-1.2995c0-0.31005 0.18742-0.39274 0.38448-0.39274 0.19981 0 0.38585 0.0827 0.38585 0.39274v0.70831h-0.53882v0.59118c0 0.15021 0.0606 0.20533 0.15297 0.20533 0.0951 0 0.15434-0.0551 0.15434-0.20533zm0-1.0115c0-0.14882-0.0593-0.20532-0.15434-0.20532-0.0923 0-0.15297 0.0565-0.15297 0.20532v0.49885h0.30731v-0.49885"/>
<path d="m101.04 251.42h0.23151v-2.7037h-0.23151z"/>
<path d="m101.55 248.72h0.24667v0.28526h-0.24667zm7e-3 0.66284h0.23151v2.0409h-0.23151z"/>
<path d="m102.58 250.76h0.23289v0.28801c0 0.31006-0.18742 0.39275-0.38585 0.39275-0.19844 0-0.38585-0.0827-0.38585-0.39275v-1.2995c0-0.31005 0.18741-0.39274 0.38585-0.39274 0.19843 0 0.38585 0.0827 0.38585 0.39274v0.70831h-0.54019v0.59118c0 0.15021 0.0606 0.20533 0.15434 0.20533 0.0937 0 0.15296-0.0551 0.15296-0.20533zm0-1.0115c0-0.14882-0.0593-0.20532-0.15296-0.20532-0.0937 0-0.15434 0.0565-0.15434 0.20532v0.49885h0.3073v-0.49885"/>
<path d="m102.98 249.38h0.21773l0.19431 1.7267h8e-3l0.1943-1.7267h0.21773l-0.24391 2.0409h-0.34451l-0.24391-2.0409"/>
<path d="m104.51 250.76h0.23289v0.28801c0 0.31006-0.18742 0.39275-0.38586 0.39275-0.19843 0-0.38585-0.0827-0.38585-0.39275v-1.2995c0-0.31005 0.18742-0.39274 0.38585-0.39274 0.19844 0 0.38586 0.0827 0.38586 0.39274v0.70831h-0.53882v0.59118c0 0.15021 0.0593 0.20533 0.15296 0.20533 0.0937 0 0.15297-0.0551 0.15297-0.20533zm0-1.0115c0-0.14882-0.0593-0.20532-0.15297-0.20532-0.0937 0-0.15296 0.0565-0.15296 0.20532v0.49885h0.30593v-0.49885"/>
<path d="m105.48 248.72h0.24667v0.28526h-0.24667zm7e-3 0.66284h0.23151v2.0409h-0.23151z"/>
<path d="m105.98 249.38h0.21773v0.13918h7e-3c0.0524-0.0868 0.1502-0.16123 0.27009-0.16123 0.19017 0 0.27699 0.14194 0.27699 0.3073v1.7556h-0.23289v-1.666c0-0.10887-0.0413-0.18742-0.14607-0.18742-0.10887 0-0.16123 0.10474-0.16123 0.18742v1.666h-0.23151v-2.0409"/>
<path d="m107.84 251.83h-0.23289l0.0827-0.40376-0.29628-2.0409h0.23289l0.16399 1.3739h8e-3l0.19707-1.3739h0.23288l-0.3886 2.4446"/>
<path d="m108.39 249.75c0-0.31005 0.18741-0.39274 0.38585-0.39274 0.19843 0 0.38447 0.0827 0.38447 0.39274v1.2995c0 0.31006-0.18604 0.39275-0.38447 0.39275-0.19844 0-0.38585-0.0827-0.38585-0.39275zm0.53881 0c0-0.14882-0.0606-0.20532-0.15296-0.20532-0.0937 0-0.15434 0.0565-0.15434 0.20532v1.2995c0 0.15021 0.0606 0.20533 0.15434 0.20533 0.0923 0 0.15296-0.0551 0.15296-0.20533v-1.2995"/>
<path d="m110.17 251.42h-0.21773v-0.13918h-7e-3c-0.0537 0.0868-0.15021 0.16123-0.27009 0.16123-0.19155 0-0.27699-0.14194-0.27699-0.30731v-1.7556h0.23151v1.666c0 0.10886 0.0413 0.18741 0.14607 0.18741 0.10887 0 0.16123-0.10473 0.16123-0.18741v-1.666h0.23289v2.0409"/>
<path d="m110.4 251.42h0.24805v-0.28526h-0.24805z"/>
</g>
</svg>
