<?xml version="1.0" encoding="UTF-8"?><svg id="uuid-4198411c-53ac-4bb0-bba7-5fc020967c89" xmlns="http://www.w3.org/2000/svg" width="148.403" height="24.3" viewBox="0 0 148.403 24.3"><defs><style>.uuid-4fdd12c2-69ce-4e81-9225-363b2c024484{fill:#7cddae;}.uuid-4fdd12c2-69ce-4e81-9225-363b2c024484,.uuid-88f914ec-3dad-4d3a-bba2-6c4e92777a22,.uuid-0c8ee2b6-b701-4c24-b747-4e2bebe7f22e{stroke-width:0px;}.uuid-ec397d2c-8c78-4475-b077-41c2a68e28ea{opacity:.5;}.uuid-88f914ec-3dad-4d3a-bba2-6c4e92777a22{fill:#6dd19d;}.uuid-de789ebd-7325-4ee4-9b75-bed956ab7caa{opacity:.75;}.uuid-0c8ee2b6-b701-4c24-b747-4e2bebe7f22e{fill:#082b33;}</style></defs><g id="uuid-7c1cf392-c674-4c63-9821-02bfae5fa7dc"><path class="uuid-0c8ee2b6-b701-4c24-b747-4e2bebe7f22e" d="M43.803,13.93c0-4.41,3.31-7.53,7.97-7.53,2.87,0,5.16,1.19,6.29,3.42l-2.65,1.54c-.88-1.41-2.21-2.04-3.67-2.04-2.54,0-4.47,1.77-4.47,4.61s1.93,4.61,4.47,4.61c1.46,0,2.79-.63,3.67-2.04l2.65,1.54c-1.13,2.21-3.42,3.45-6.29,3.45-4.66,0-7.97-3.14-7.97-7.56Z"/><path class="uuid-0c8ee2b6-b701-4c24-b747-4e2bebe7f22e" d="M73.373,12.66v8.63h-3.25v-1.79c-.83,1.27-2.43,1.99-4.63,1.99-3.37,0-5.49-1.85-5.49-4.41s1.66-4.39,6.12-4.39h3.81v-.22c0-2.01-1.21-3.2-3.67-3.2-1.65,0-3.37.55-4.47,1.46l-1.35-2.51c1.57-1.21,3.86-1.82,6.23-1.82,4.25,0,6.7,2.01,6.7,6.26ZM69.923,16.69v-1.71h-3.56c-2.35,0-2.98.88-2.98,1.96,0,1.24,1.05,2.04,2.81,2.04s3.14-.77,3.72-2.29h.01Z"/><path class="uuid-0c8ee2b6-b701-4c24-b747-4e2bebe7f22e" d="M86.303,6.4v3.28c-.3-.06-.55-.08-.8-.08-2.62,0-4.28,1.55-4.28,4.55v7.14h-3.45V6.56h3.28v2.15c.99-1.54,2.79-2.32,5.24-2.32h.01v.01Z"/><path class="uuid-0c8ee2b6-b701-4c24-b747-4e2bebe7f22e" d="M103.513.83v20.47h-3.31v-1.9c-1.16,1.41-2.87,2.1-4.88,2.1-4.28,0-7.45-2.98-7.45-7.56s3.17-7.53,7.45-7.53c1.9,0,3.59.63,4.74,1.99V.83h3.45ZM100.123,13.93c0-2.81-1.9-4.61-4.39-4.61s-4.39,1.79-4.39,4.61,1.9,4.61,4.39,4.61,4.39-1.79,4.39-4.61Z"/><path class="uuid-0c8ee2b6-b701-4c24-b747-4e2bebe7f22e" d="M107.563,2.07c0-1.16.94-2.07,2.21-2.07s2.21.86,2.21,1.99c0,1.21-.91,2.15-2.21,2.15s-2.21-.91-2.21-2.07ZM108.033,6.56h3.45v14.73h-3.45V6.56Z"/><path class="uuid-0c8ee2b6-b701-4c24-b747-4e2bebe7f22e" d="M119.803,5.79v.88h4.06v2.76h-3.95v11.86h-3.45v-11.86h-2.43v-2.76h2.43v-.94c0-3.09,1.85-5.1,5.27-5.1,1.19,0,2.34.25,3.12.8l-.97,2.59c-.52-.36-1.19-.61-1.9-.61-1.43,0-2.18.8-2.18,2.37h0v.01Z"/><path class="uuid-0c8ee2b6-b701-4c24-b747-4e2bebe7f22e" d="M140.433,6.56v14.73h-3.28v-1.88c-1.1,1.35-2.84,2.07-4.74,2.07-3.78,0-6.34-2.07-6.34-6.51V6.56h3.45v7.94c0,2.68,1.27,3.95,3.45,3.95,2.4,0,4.03-1.49,4.03-4.44v-7.45h3.45-.02,0Z"/><path class="uuid-0c8ee2b6-b701-4c24-b747-4e2bebe7f22e" d="M144.953.83h3.45v20.47h-3.45V.83Z"/><g class="uuid-ec397d2c-8c78-4475-b077-41c2a68e28ea"><path class="uuid-4fdd12c2-69ce-4e81-9225-363b2c024484" d="M32.803,15.46l-16.81,8.43c-1.02.51-2.74.55-3.85.09L.923,19.3c-1.14-.48-1.24-1.29-.21-1.81l16.95-8.64c1.05-.54,2.82-.57,3.95-.07l11.09,4.87c1.1.48,1.14,1.3.1,1.82h0v-.01Z"/></g><g class="uuid-de789ebd-7325-4ee4-9b75-bed956ab7caa"><g class="uuid-de789ebd-7325-4ee4-9b75-bed956ab7caa"><path class="uuid-4fdd12c2-69ce-4e81-9225-363b2c024484" d="M30.943,14.88l-2.54,1.28c-.21.11-.56.11-.79.02l-1.35-.59c-.22-.1-.24-.26-.03-.37l2.54-1.28c.21-.11.57-.11.79-.02l1.35.59c.22.1.23.26.02.37h.01Z"/></g><g class="uuid-de789ebd-7325-4ee4-9b75-bed956ab7caa"><polygon class="uuid-4fdd12c2-69ce-4e81-9225-363b2c024484" points="22.113 8.99 1.423 19.51 1.163 19.4 21.853 8.88 22.113 8.99"/></g><g class="uuid-de789ebd-7325-4ee4-9b75-bed956ab7caa"><path class="uuid-4fdd12c2-69ce-4e81-9225-363b2c024484" d="M13.423,22.66c.1,0,.19,0,.26.04.05.02.08.05.1.08s.02.06,0,.09-.07.07-.14.1c-.05.03-.11.05-.18.07s-.13.03-.2.04l-.08-.1c.05,0,.1-.01.16-.03.05-.01.1-.03.14-.05.04-.02.07-.04.08-.06,0-.02,0-.04-.04-.05s-.08-.02-.12-.01c-.04,0-.1.02-.16.06l-.19.1-.43-.22.46-.23.15.06-.32.16.15.07.06-.03c.11-.05.21-.08.31-.09,0,0-.01,0-.01,0Z"/><path class="uuid-4fdd12c2-69ce-4e81-9225-363b2c024484" d="M14.543,22.35l-.12.06.17.07-.17.09-.17-.07-.41.21-.13-.05-.17-.4.18-.09.17.38.2-.1-.15-.07.17-.08.15.07.12-.06.16.07s0-.03,0-.03Z"/><path class="uuid-4fdd12c2-69ce-4e81-9225-363b2c024484" d="M15.183,22.04l.16.07-.57.29-.12-.05v-.27s-.02-.05-.03-.07c-.01-.02-.03-.03-.05-.04-.03-.01-.07-.02-.11-.02s-.08.01-.12.03c-.03.02-.06.04-.07.05s-.01.04,0,.06l-.22.03s-.02-.07.01-.11c.02-.04.07-.07.14-.11.06-.03.12-.05.18-.06s.12-.02.18-.01c.06,0,.12.02.17.04.04.02.08.04.1.07.02.03.03.06.03.11v.16l.33-.16h-.01v-.01Z"/><path class="uuid-4fdd12c2-69ce-4e81-9225-363b2c024484" d="M15.463,21.63c.1,0,.19,0,.26.04.05.02.08.05.1.08s.02.06,0,.1c-.02.03-.07.07-.14.1-.05.03-.11.05-.18.07s-.13.03-.2.04l-.08-.1c.05,0,.1-.01.16-.03.05-.01.1-.03.14-.05.04-.02.07-.04.08-.06,0-.02,0-.04-.04-.05s-.08-.02-.12-.01c-.04,0-.1.02-.16.06l-.19.1-.43-.22.46-.23.15.06-.32.16.15.07.06-.03c.11-.05.21-.08.31-.09h-.01v-.01Z"/><path class="uuid-4fdd12c2-69ce-4e81-9225-363b2c024484" d="M16.773,21.24l.16.07-.58.29-.12-.05v-.27s-.02-.05-.03-.07-.03-.03-.05-.04c-.03-.01-.07-.02-.11-.02s-.08.01-.12.03c-.03.02-.06.04-.07.05s-.01.04,0,.06l-.22.03s-.01-.07.01-.11.07-.07.14-.11c.06-.03.12-.05.18-.06s.12-.02.18-.01c.06,0,.12.02.17.04.04.02.08.04.1.07.02.03.03.06.03.11v.16l.33-.16h0v-.01Z"/><path class="uuid-4fdd12c2-69ce-4e81-9225-363b2c024484" d="M17.103,20.84c.08,0,.15.01.21.04.05.02.08.04.1.07.02.03.01.06,0,.09-.02.03-.07.07-.14.1-.05.03-.11.05-.18.07s-.13.03-.2.04l-.08-.1s.1-.01.16-.03c.05-.01.1-.03.14-.05.04-.02.07-.04.08-.06,0-.02,0-.04-.04-.05-.07-.03-.15-.02-.24.03l-.08.04-.13-.05-.04-.16-.32.16-.15-.06.53-.27.12.05.04.18c.08-.03.16-.04.23-.04,0,0-.01,0-.01,0Z"/><path class="uuid-4fdd12c2-69ce-4e81-9225-363b2c024484" d="M17.743,20.52c.08,0,.15.01.21.04.05.02.08.04.1.07.02.03.01.06,0,.09-.02.03-.07.07-.14.1-.05.03-.11.05-.18.07s-.13.03-.2.04l-.08-.1s.1-.01.16-.03c.05-.01.1-.03.14-.05.04-.02.07-.04.08-.06,0-.02,0-.04-.04-.05-.07-.03-.15-.02-.24.03l-.08.04-.13-.05-.04-.16-.32.16-.15-.07.53-.27.12.05.04.18c.08-.03.16-.04.23-.04h-.01v.01Z"/><path class="uuid-4fdd12c2-69ce-4e81-9225-363b2c024484" d="M18.813,20.2l-.12.06.17.07-.17.09-.17-.07-.41.21-.13-.05-.16-.4.19-.09.16.38.21-.1-.15-.07.17-.08.15.07.12-.06.16.07s-.02-.03-.02-.03Z"/><path class="uuid-4fdd12c2-69ce-4e81-9225-363b2c024484" d="M19.453,19.66c.08,0,.15.01.21.04.05.02.08.05.1.07.02.03.01.06,0,.09-.02.03-.07.07-.14.1-.05.03-.11.05-.18.07s-.13.03-.2.04l-.08-.1s.11-.01.16-.03c.05-.01.1-.03.14-.05.04-.02.07-.04.08-.06,0-.02,0-.04-.04-.05-.07-.03-.15-.02-.24.03l-.08.04-.13-.05-.03-.16-.33.16-.15-.07.54-.27.12.05.04.18c.08-.03.16-.04.24-.04h-.03v.01Z"/><path class="uuid-4fdd12c2-69ce-4e81-9225-363b2c024484" d="M20.123,19.67c-.08.01-.17,0-.26,0-.09-.01-.18-.04-.27-.08s-.15-.08-.19-.12-.05-.08-.03-.12c.02-.04.06-.07.12-.11s.14-.05.22-.06.17,0,.26,0c.09.01.18.04.27.08s.15.08.19.12.05.08.03.12c-.02.04-.06.07-.12.11s-.14.05-.22.06ZM20.223,19.46s-.07-.07-.16-.11-.17-.06-.24-.07-.13,0-.17.03-.06.05-.04.08.07.07.16.11.17.06.24.07.13,0,.17-.03.06-.05.04-.08Z"/><path class="uuid-4fdd12c2-69ce-4e81-9225-363b2c024484" d="M20.203,18.9l.82.35-.18.09-.67-.29-.15.08-.15-.07.33-.17h0v.01Z"/><path class="uuid-4fdd12c2-69ce-4e81-9225-363b2c024484" d="M21.283,19.08c-.08.01-.17,0-.26,0-.09-.01-.18-.04-.27-.08s-.15-.08-.19-.12-.05-.08-.03-.12c.02-.04.06-.08.12-.11s.14-.05.22-.06.17,0,.26,0c.09.01.18.04.27.08s.15.08.19.12.05.08.03.12c-.02.04-.06.07-.12.11s-.14.05-.22.06ZM21.393,18.87s-.07-.07-.16-.11-.17-.06-.24-.07-.13,0-.17.03-.06.05-.04.08.07.07.16.11.17.06.24.07.13,0,.17-.03.06-.05.04-.08Z"/><path class="uuid-4fdd12c2-69ce-4e81-9225-363b2c024484" d="M22.003,18.07c.13,0,.26.03.39.08.09.04.16.08.19.13s.04.09.01.13c-.02.04-.08.09-.15.13-.04.02-.08.04-.13.05s-.09.02-.14.03l-.07-.09c.06,0,.13-.03.18-.05.06-.03.1-.07.09-.1,0-.04-.04-.07-.12-.11,0,.04-.04.09-.12.13-.05.02-.1.04-.17.05-.06.01-.12.01-.19,0-.06,0-.12-.02-.17-.04-.06-.02-.09-.05-.11-.08s-.01-.06,0-.09.06-.06.11-.09c.11-.05.23-.08.36-.08,0,0,.04,0,.04,0ZM22.113,18.25s-.02-.04-.05-.06-.08-.02-.12-.02-.09.01-.13.03c-.04.02-.06.04-.06.06s.02.04.05.06.08.02.13.02.09-.01.13-.03.06-.04.06-.06h-.01Z"/><path class="uuid-4fdd12c2-69ce-4e81-9225-363b2c024484" d="M22.703,17.72c.13,0,.26.03.39.08.09.04.16.08.19.13s.04.09.01.13c-.02.04-.08.09-.15.13-.04.02-.08.04-.13.05s-.09.02-.14.03l-.07-.09c.06,0,.13-.03.18-.05.07-.03.1-.07.09-.1,0-.04-.04-.07-.12-.11,0,.04-.04.09-.12.13-.05.02-.1.04-.17.05-.06.01-.12.01-.19,0-.06,0-.12-.02-.17-.04-.06-.02-.09-.05-.11-.08s-.01-.06,0-.09.06-.06.11-.09c.11-.05.23-.08.36-.08,0,0,.04,0,.04,0ZM22.803,17.9s-.02-.04-.05-.06-.08-.02-.12-.02-.09.01-.13.03c-.04.02-.06.04-.06.06s.02.04.05.06.08.02.13.02.09-.01.13-.03.06-.04.06-.06h-.01Z"/><path class="uuid-4fdd12c2-69ce-4e81-9225-363b2c024484" d="M23.733,17.85c-.08.01-.17,0-.26,0-.09-.01-.18-.04-.27-.08s-.15-.08-.19-.12-.05-.08-.03-.12c.02-.04.06-.08.12-.11s.14-.05.22-.06.17,0,.26,0c.09.01.18.04.27.08s.15.08.19.12.05.08.03.12c-.02.04-.06.08-.12.11s-.14.05-.22.06ZM23.843,17.64s-.07-.07-.16-.11-.17-.06-.24-.07-.13,0-.17.03-.06.05-.04.08.07.07.16.11.17.06.24.07.13,0,.17-.03.06-.05.05-.08h-.01Z"/><path class="uuid-4fdd12c2-69ce-4e81-9225-363b2c024484" d="M24.453,17.14c.08,0,.15.01.21.04.05.02.08.05.1.07.02.03.01.06-.01.1-.02.03-.07.07-.14.1-.05.03-.12.05-.18.07-.07.02-.13.03-.2.04l-.08-.1s.11-.01.16-.03c.05-.01.1-.03.14-.05.04-.02.07-.04.08-.06,0-.02,0-.04-.04-.05-.07-.03-.15-.02-.24.03l-.08.04-.13-.05-.03-.16-.33.16-.15-.07.54-.27.12.05.04.18c.08-.03.16-.04.24-.04,0,0-.02,0-.02,0Z"/></g></g><g class="uuid-de789ebd-7325-4ee4-9b75-bed956ab7caa"><path class="uuid-4fdd12c2-69ce-4e81-9225-363b2c024484" d="M32.803,11.41l-16.81,8.43c-1.02.51-2.74.55-3.85.09L.923,15.25c-1.14-.48-1.24-1.29-.21-1.81L17.673,4.79c1.05-.54,2.82-.57,3.95-.07l11.09,4.87c1.1.48,1.14,1.3.1,1.82h-.01Z"/></g><path class="uuid-4fdd12c2-69ce-4e81-9225-363b2c024484" d="M30.943,10.82l-2.54,1.28c-.21.11-.56.11-.79.02l-1.35-.59c-.22-.1-.24-.26-.03-.37l2.54-1.28c.21-.11.57-.11.79-.02l1.35.59c.22.1.23.26.02.37h.01Z"/><polygon class="uuid-4fdd12c2-69ce-4e81-9225-363b2c024484" points="22.113 4.94 1.423 15.46 1.163 15.35 21.853 4.82 22.113 4.94"/><path class="uuid-4fdd12c2-69ce-4e81-9225-363b2c024484" d="M13.423,18.6c.1,0,.19,0,.26.04.05.02.08.05.1.08s.02.06,0,.09-.07.07-.14.1c-.05.03-.11.05-.18.07s-.13.03-.2.04l-.08-.1c.05,0,.1-.01.16-.03.05-.01.1-.03.14-.05.04-.02.07-.04.08-.06,0-.02,0-.04-.04-.05s-.08-.02-.12-.01c-.04,0-.1.02-.16.06l-.19.1-.43-.22.46-.23.15.06-.32.16.15.07.06-.03c.11-.05.21-.08.31-.09,0,0-.01,0-.01,0Z"/><path class="uuid-4fdd12c2-69ce-4e81-9225-363b2c024484" d="M14.543,18.29l-.12.06.17.07-.17.09-.17-.07-.41.21-.13-.05-.17-.4.18-.09.17.38.2-.1-.15-.07.17-.08.15.07.12-.06.16.07s0-.03,0-.03Z"/><path class="uuid-4fdd12c2-69ce-4e81-9225-363b2c024484" d="M15.183,17.99l.16.07-.57.29-.12-.05v-.27s-.02-.05-.03-.07c-.01-.02-.03-.03-.05-.04-.03-.01-.07-.02-.11-.02s-.08.01-.12.03c-.03.02-.06.04-.07.05s-.01.04,0,.06l-.22.03s-.02-.07.01-.11c.02-.04.07-.07.14-.11.06-.03.12-.05.18-.06s.12-.02.18-.01c.06,0,.12.02.17.04.04.02.08.04.1.07.02.03.03.06.03.11v.16l.33-.16h-.01v-.01Z"/><path class="uuid-4fdd12c2-69ce-4e81-9225-363b2c024484" d="M15.463,17.58c.1,0,.19,0,.26.04.05.02.08.05.1.08s.02.06,0,.1c-.02.03-.07.07-.14.1-.05.03-.11.05-.18.07s-.13.03-.2.04l-.08-.1c.05,0,.1-.01.16-.03.05-.01.1-.03.14-.05.04-.02.07-.04.08-.06,0-.02,0-.04-.04-.05s-.08-.02-.12-.01c-.04,0-.1.02-.16.06l-.19.1-.43-.22.46-.23.15.06-.32.16.15.07.06-.03c.11-.05.21-.08.31-.09h-.01v-.01Z"/><path class="uuid-4fdd12c2-69ce-4e81-9225-363b2c024484" d="M16.773,17.19l.16.07-.58.29-.12-.05v-.27s-.02-.05-.03-.07-.03-.03-.05-.04c-.03-.01-.07-.02-.11-.02s-.08.01-.12.03c-.03.02-.06.04-.07.05s-.01.04,0,.06l-.22.03s-.01-.07.01-.11.07-.07.14-.11c.06-.03.12-.05.18-.06s.12-.02.18-.01c.06,0,.12.02.17.04.04.02.08.04.1.07.02.03.03.06.03.11v.16l.33-.16h0v-.01Z"/><path class="uuid-4fdd12c2-69ce-4e81-9225-363b2c024484" d="M17.103,16.79c.08,0,.15.01.21.04.05.02.08.04.1.07.02.03.01.06,0,.09-.02.03-.07.07-.14.1-.05.03-.11.05-.18.07s-.13.03-.2.04l-.08-.1s.1-.01.16-.03c.05-.01.1-.03.14-.05.04-.02.07-.04.08-.06,0-.02,0-.04-.04-.05-.07-.03-.15-.02-.24.03l-.08.04-.13-.05-.04-.16-.32.16-.15-.06.53-.27.12.05.04.18c.08-.03.16-.04.23-.04,0,0-.01,0-.01,0Z"/><path class="uuid-4fdd12c2-69ce-4e81-9225-363b2c024484" d="M17.743,16.46c.08,0,.15.01.21.04.05.02.08.04.1.07.02.03.01.06,0,.09-.02.03-.07.07-.14.1-.05.03-.11.05-.18.07s-.13.03-.2.04l-.08-.1s.1-.01.16-.03c.05-.01.1-.03.14-.05.04-.02.07-.04.08-.06,0-.02,0-.04-.04-.05-.07-.03-.15-.02-.24.03l-.08.04-.13-.05-.04-.16-.32.16-.15-.07.53-.27.12.05.04.18c.08-.03.16-.04.23-.04h-.01v.01Z"/><path class="uuid-4fdd12c2-69ce-4e81-9225-363b2c024484" d="M18.813,16.14l-.12.06.17.07-.17.09-.17-.07-.41.21-.13-.05-.16-.4.19-.09.16.38.21-.1-.15-.07.17-.08.15.07.12-.06.16.07s-.02-.03-.02-.03Z"/><path class="uuid-4fdd12c2-69ce-4e81-9225-363b2c024484" d="M19.453,15.61c.08,0,.15.01.21.04.05.02.08.05.1.07.02.03.01.06,0,.09-.02.03-.07.07-.14.1-.05.03-.11.05-.18.07-.07.02-.13.03-.2.04l-.08-.1s.11-.01.16-.03c.05-.01.1-.03.14-.05.04-.02.07-.04.08-.06,0-.02,0-.04-.04-.05-.07-.03-.15-.02-.24.03l-.08.04-.13-.05-.03-.16-.33.16-.15-.07.54-.27.12.05.04.18c.08-.03.16-.04.24-.04h-.03v.01Z"/><path class="uuid-4fdd12c2-69ce-4e81-9225-363b2c024484" d="M20.123,15.62c-.08.01-.17,0-.26,0-.09-.01-.18-.04-.27-.08s-.15-.08-.19-.12-.05-.08-.03-.12c.02-.04.06-.07.12-.11s.14-.05.22-.06.17,0,.26,0c.09.01.18.04.27.08s.15.08.19.12.05.08.03.12c-.02.04-.06.07-.12.11s-.14.05-.22.06ZM20.223,15.4s-.07-.07-.16-.11-.17-.06-.24-.07-.13,0-.17.03-.06.05-.04.08.07.07.16.11.17.06.24.07.13,0,.17-.03.06-.05.04-.08Z"/><path class="uuid-4fdd12c2-69ce-4e81-9225-363b2c024484" d="M20.203,14.84l.82.35-.18.09-.67-.29-.15.08-.15-.07.33-.17h0v.01Z"/><path class="uuid-4fdd12c2-69ce-4e81-9225-363b2c024484" d="M21.283,15.03c-.08.01-.17,0-.26,0-.09-.01-.18-.04-.27-.08s-.15-.08-.19-.12-.05-.08-.03-.12c.02-.04.06-.08.12-.11s.14-.05.22-.06.17,0,.26,0c.09.01.18.04.27.08s.15.08.19.12.05.08.03.12c-.02.04-.06.07-.12.11s-.14.05-.22.06ZM21.393,14.81s-.07-.07-.16-.11-.17-.06-.24-.07-.13,0-.17.03-.06.05-.04.08.07.07.16.11.17.06.24.07.13,0,.17-.03.06-.05.04-.08Z"/><path class="uuid-4fdd12c2-69ce-4e81-9225-363b2c024484" d="M22.003,14.02c.13,0,.26.03.39.08.09.04.16.08.19.13s.04.09.01.13c-.02.04-.08.09-.15.13-.04.02-.08.04-.13.05s-.09.02-.14.03l-.07-.09c.06,0,.13-.03.18-.05.06-.03.1-.07.09-.1,0-.04-.04-.07-.12-.11,0,.04-.04.09-.12.13-.05.02-.1.04-.17.05-.06.01-.12.01-.19,0-.06,0-.12-.02-.17-.04-.06-.02-.09-.05-.11-.08s-.01-.06,0-.09.06-.06.11-.09c.11-.05.23-.08.36-.08,0,0,.04,0,.04,0ZM22.113,14.2s-.02-.04-.05-.06-.08-.02-.12-.02-.09.01-.13.03-.06.04-.06.06.02.04.05.06.08.02.13.02.09-.01.13-.03.06-.04.06-.06h-.01Z"/><path class="uuid-4fdd12c2-69ce-4e81-9225-363b2c024484" d="M22.703,13.67c.13,0,.26.03.39.08.09.04.16.08.19.13s.04.09.01.13c-.02.04-.08.09-.15.13-.04.02-.08.04-.13.05s-.09.02-.14.03l-.07-.09c.06,0,.13-.03.18-.05.07-.03.1-.07.09-.1,0-.04-.04-.07-.12-.11,0,.04-.04.09-.12.13-.05.02-.1.04-.17.05-.06.01-.12.01-.19,0-.06,0-.12-.02-.17-.04-.06-.02-.09-.05-.11-.08s-.01-.06,0-.09.06-.06.11-.09c.11-.05.23-.08.36-.08,0,0,.04,0,.04,0ZM22.803,13.85s-.02-.04-.05-.06-.08-.02-.12-.02-.09.01-.13.03-.06.04-.06.06.02.04.05.06.08.02.13.02.09-.01.13-.03.06-.04.06-.06h-.01Z"/><path class="uuid-4fdd12c2-69ce-4e81-9225-363b2c024484" d="M23.733,13.8c-.08.01-.17,0-.26,0-.09-.01-.18-.04-.27-.08s-.15-.08-.19-.12-.05-.08-.03-.12c.02-.04.06-.08.12-.11s.14-.05.22-.06.17,0,.26,0c.09.01.18.04.27.08s.15.08.19.12.05.08.03.12c-.02.04-.06.08-.12.11s-.14.05-.22.06ZM23.843,13.58s-.07-.07-.16-.11-.17-.06-.24-.07-.13,0-.17.03-.06.05-.04.08.07.07.16.11.17.06.24.07.13,0,.17-.03.06-.05.05-.08h-.01Z"/><path class="uuid-4fdd12c2-69ce-4e81-9225-363b2c024484" d="M24.453,13.09c.08,0,.15.01.21.04.05.02.08.05.1.07.02.03.01.06-.01.1-.02.03-.07.07-.14.1-.05.03-.12.05-.18.07-.07.02-.13.03-.2.04l-.08-.1s.11-.01.16-.03c.05-.01.1-.03.14-.05.04-.02.07-.04.08-.06,0-.02,0-.04-.04-.05-.07-.03-.15-.02-.24.03l-.08.04-.13-.05-.03-.16-.33.16-.15-.07.54-.27.12.05.04.18c.08-.03.16-.04.24-.04,0,0-.02,0-.02,0Z"/><path class="uuid-4fdd12c2-69ce-4e81-9225-363b2c024484" d="M32.803,7.35L15.993,15.79c-1.02.51-2.74.55-3.85.09L.923,11.19c-1.14-.48-1.24-1.29-.21-1.81L17.673.73c1.05-.54,2.82-.57,3.95-.07l11.09,4.87c1.1.48,1.14,1.3.1,1.82h-.01Z"/><path class="uuid-88f914ec-3dad-4d3a-bba2-6c4e92777a22" d="M30.943,6.77l-2.54,1.28c-.21.11-.56.11-.79.02l-1.35-.59c-.22-.1-.24-.26-.03-.37l2.54-1.28c.21-.11.57-.11.79-.02l1.35.59c.22.1.23.26.02.37h.01Z"/><polygon class="uuid-88f914ec-3dad-4d3a-bba2-6c4e92777a22" points="22.113 .88 1.423 11.4 1.163 11.29 21.853 .77 22.113 .88"/><path class="uuid-88f914ec-3dad-4d3a-bba2-6c4e92777a22" d="M13.423,14.55c.1,0,.19,0,.26.04.05.02.08.05.1.08s.02.06,0,.09-.07.07-.14.1c-.05.03-.11.05-.18.07s-.13.03-.2.04l-.08-.1c.05,0,.1-.01.16-.03.05-.01.1-.03.14-.05s.07-.04.08-.06c0-.02,0-.04-.04-.05s-.08-.02-.12-.01c-.04,0-.1.02-.16.06l-.19.1-.43-.22.46-.23.15.06-.32.16.15.07.06-.03c.11-.05.21-.08.31-.09h-.01Z"/><path class="uuid-88f914ec-3dad-4d3a-bba2-6c4e92777a22" d="M14.543,14.24l-.12.06.17.07-.17.09-.17-.07-.41.21-.13-.05-.17-.4.18-.09.17.38.2-.1-.15-.07.17-.08.15.07.12-.06.16.07v-.03Z"/><path class="uuid-88f914ec-3dad-4d3a-bba2-6c4e92777a22" d="M15.183,13.93l.16.07-.57.29-.12-.05v-.27s-.02-.05-.03-.07c-.01-.02-.03-.03-.05-.04-.03-.01-.07-.02-.11-.02s-.08.01-.12.03c-.03.02-.06.04-.07.05s-.01.04,0,.06l-.22.03s-.02-.07.01-.11c.02-.04.07-.07.14-.11.06-.03.12-.05.18-.06s.12-.02.18-.01c.06,0,.12.02.17.04.04.02.08.04.1.07s.03.06.03.11v.16l.33-.16h-.01v-.01Z"/><path class="uuid-88f914ec-3dad-4d3a-bba2-6c4e92777a22" d="M15.463,13.52c.1,0,.19,0,.26.04.05.02.08.05.1.08s.02.06,0,.1c-.02.03-.07.07-.14.1-.05.03-.11.05-.18.07s-.13.03-.2.04l-.08-.1c.05,0,.1-.01.16-.03.05-.01.1-.03.14-.05s.07-.04.08-.06c0-.02,0-.04-.04-.05s-.08-.02-.12-.01c-.04,0-.1.02-.16.06l-.19.1-.43-.22.46-.23.15.06-.32.16.15.07.06-.03c.11-.05.21-.08.31-.09h-.01v-.01Z"/><path class="uuid-88f914ec-3dad-4d3a-bba2-6c4e92777a22" d="M16.773,13.13l.16.07-.58.29-.12-.05v-.27s-.02-.05-.03-.07c-.01-.02-.03-.03-.05-.04-.03-.01-.07-.02-.11-.02s-.08.01-.12.03c-.03.02-.06.04-.07.05s-.01.04,0,.06l-.22.03s-.01-.07.01-.11.07-.07.14-.11c.06-.03.12-.05.18-.06s.12-.02.18-.01c.06,0,.12.02.17.04.04.02.08.04.1.07s.03.06.03.11v.16l.33-.16h0v-.01Z"/><path class="uuid-88f914ec-3dad-4d3a-bba2-6c4e92777a22" d="M17.103,12.73c.08,0,.15.01.21.04.05.02.08.04.1.07s.01.06,0,.09c-.02.03-.07.07-.14.1-.05.03-.11.05-.18.07-.07.02-.13.03-.2.04l-.08-.1s.1-.01.16-.03c.05-.01.1-.03.14-.05.04-.02.07-.04.08-.06,0-.02,0-.04-.04-.05-.07-.03-.15-.02-.24.03l-.08.04-.13-.05-.04-.16-.32.16-.15-.06.53-.27.12.05.04.18c.08-.03.16-.04.23-.04,0,0-.01,0-.01,0Z"/><path class="uuid-88f914ec-3dad-4d3a-bba2-6c4e92777a22" d="M17.743,12.41c.08,0,.15.01.21.04.05.02.08.04.1.07s.01.06,0,.09c-.02.03-.07.07-.14.1-.05.03-.11.05-.18.07-.07.02-.13.03-.2.04l-.08-.1s.1-.01.16-.03c.05-.01.1-.03.14-.05.04-.02.07-.04.08-.06,0-.02,0-.04-.04-.05-.07-.03-.15-.02-.24.03l-.08.04-.13-.05-.04-.16-.32.16-.15-.07.53-.27.12.05.04.18c.08-.03.16-.04.23-.04h-.01v.01Z"/><path class="uuid-88f914ec-3dad-4d3a-bba2-6c4e92777a22" d="M18.813,12.09l-.12.06.17.07-.17.09-.17-.07-.41.21-.13-.05-.16-.4.19-.09.16.38.21-.1-.15-.07.17-.08.15.07.12-.06.16.07-.02-.03Z"/><path class="uuid-88f914ec-3dad-4d3a-bba2-6c4e92777a22" d="M19.453,11.55c.08,0,.15.01.21.04.05.02.08.05.1.07.02.03.01.06,0,.09-.02.03-.07.07-.14.1-.05.03-.11.05-.18.07-.07.02-.13.03-.2.04l-.08-.1s.11-.01.16-.03c.05-.01.1-.03.14-.05.04-.02.07-.04.08-.06,0-.02,0-.04-.04-.05-.07-.03-.15-.02-.24.03l-.08.04-.13-.05-.03-.16-.33.16-.15-.07.54-.27.12.05.04.18c.08-.03.16-.04.24-.04h-.03v.01Z"/><path class="uuid-88f914ec-3dad-4d3a-bba2-6c4e92777a22" d="M20.123,11.56c-.08.01-.17,0-.26,0-.09-.01-.18-.04-.27-.08s-.15-.08-.19-.12-.05-.08-.03-.12c.02-.04.06-.07.12-.11s.14-.05.22-.06.17,0,.26,0c.09.01.18.04.27.08s.15.08.19.12.05.08.03.12c-.02.04-.06.07-.12.11s-.14.05-.22.06ZM20.223,11.35s-.07-.07-.16-.11-.17-.06-.24-.07-.13,0-.17.03-.06.05-.04.08.07.07.16.11.17.06.24.07.13,0,.17-.03.06-.05.04-.08Z"/><path class="uuid-88f914ec-3dad-4d3a-bba2-6c4e92777a22" d="M20.203,10.79l.82.35-.18.09-.67-.29-.15.08-.15-.07.33-.17h0v.01Z"/><path class="uuid-88f914ec-3dad-4d3a-bba2-6c4e92777a22" d="M21.283,10.98c-.08.01-.17,0-.26,0-.09-.01-.18-.04-.27-.08s-.15-.08-.19-.12-.05-.08-.03-.12c.02-.04.06-.08.12-.11s.14-.05.22-.06.17,0,.26,0c.09.01.18.04.27.08s.15.08.19.12.05.08.03.12c-.02.04-.06.07-.12.11s-.14.05-.22.06ZM21.393,10.76s-.07-.07-.16-.11-.17-.06-.24-.07-.13,0-.17.03-.06.05-.04.08.07.07.16.11.17.06.24.07.13,0,.17-.03.06-.05.04-.08Z"/><path class="uuid-88f914ec-3dad-4d3a-bba2-6c4e92777a22" d="M22.003,9.96c.13,0,.26.03.39.08.09.04.16.08.19.13s.04.09.01.13c-.02.04-.08.09-.15.13-.04.02-.08.04-.13.05s-.09.02-.14.03l-.07-.09c.06,0,.13-.03.18-.05.06-.03.1-.07.09-.1,0-.04-.04-.07-.12-.11,0,.04-.04.09-.12.13-.05.02-.1.04-.17.05-.06.01-.12.01-.19,0-.06,0-.12-.02-.17-.04-.06-.02-.09-.05-.11-.08s-.01-.06,0-.09.06-.06.11-.09c.11-.05.23-.08.36-.08,0,0,.04,0,.04,0ZM22.113,10.14s-.02-.04-.05-.06-.08-.02-.12-.02-.09.01-.13.03-.06.04-.06.06.02.04.05.06.08.02.13.02.09-.01.13-.03.06-.04.06-.06h-.01Z"/><path class="uuid-88f914ec-3dad-4d3a-bba2-6c4e92777a22" d="M22.703,9.61c.13,0,.26.03.39.08.09.04.16.08.19.13s.04.09.01.13c-.02.04-.08.09-.15.13-.04.02-.08.04-.13.05s-.09.02-.14.03l-.07-.09c.06,0,.13-.03.18-.05.07-.03.1-.07.09-.1,0-.04-.04-.07-.12-.11,0,.04-.04.09-.12.13-.05.02-.1.04-.17.05-.06.01-.12.01-.19,0-.06,0-.12-.02-.17-.04-.06-.02-.09-.05-.11-.08s-.01-.06,0-.09.06-.06.11-.09c.11-.05.23-.08.36-.08,0,0,.04,0,.04,0ZM22.803,9.79s-.02-.04-.05-.06-.08-.02-.12-.02-.09.01-.13.03-.06.04-.06.06.02.04.05.06.08.02.13.02.09-.01.13-.03.06-.04.06-.06h-.01Z"/><path class="uuid-88f914ec-3dad-4d3a-bba2-6c4e92777a22" d="M23.733,9.74c-.08.01-.17,0-.26,0-.09-.01-.18-.04-.27-.08s-.15-.08-.19-.12-.05-.08-.03-.12c.02-.04.06-.08.12-.11s.14-.05.22-.06.17,0,.26,0c.09.01.18.04.27.08s.15.08.19.12.05.08.03.12c-.02.04-.06.08-.12.11s-.14.05-.22.06ZM23.843,9.53s-.07-.07-.16-.11-.17-.06-.24-.07-.13,0-.17.03-.06.05-.04.08.07.07.16.11.17.06.24.07.13,0,.17-.03.06-.05.05-.08h-.01Z"/><path class="uuid-88f914ec-3dad-4d3a-bba2-6c4e92777a22" d="M24.453,9.04c.08,0,.15.01.21.04.05.02.08.05.1.07.02.03.01.06-.01.1-.02.03-.07.07-.14.1-.05.03-.12.05-.18.07-.07.02-.13.03-.2.04l-.08-.1s.11-.01.16-.03c.05-.01.1-.03.14-.05.04-.02.07-.04.08-.06,0-.02,0-.04-.04-.05-.07-.03-.15-.02-.24.03l-.08.04-.13-.05-.03-.16-.33.16-.15-.07.54-.27.12.05.04.18c.08-.03.16-.04.24-.04,0,0-.02,0-.02,0Z"/></g></svg>