<?xml version="1.0" encoding="UTF-8" standalone="no"?>
<svg
   fill="none"
   viewBox="0 0 78.517242 40"
   version="1.1"
   id="svg2"
   sodipodi:docname="logo.svg"
   width="78.517242"
   height="40"
   inkscape:version="1.3 (1:1.3+202307231459+0e150ed6c4)"
   xmlns:inkscape="http://www.inkscape.org/namespaces/inkscape"
   xmlns:sodipodi="http://sodipodi.sourceforge.net/DTD/sodipodi-0.dtd"
   xmlns="http://www.w3.org/2000/svg"
   xmlns:svg="http://www.w3.org/2000/svg">
  <defs
     id="defs2" />
  <sodipodi:namedview
     id="namedview2"
     pagecolor="#ffffff"
     bordercolor="#666666"
     borderopacity="1.0"
     inkscape:showpageshadow="2"
     inkscape:pageopacity="0.0"
     inkscape:pagecheckerboard="0"
     inkscape:deskcolor="#d1d1d1"
     inkscape:zoom="3.0691964"
     inkscape:cx="-8.96"
     inkscape:cy="28.834909"
     inkscape:window-width="1920"
     inkscape:window-height="1163"
     inkscape:window-x="0"
     inkscape:window-y="0"
     inkscape:window-maximized="1"
     inkscape:current-layer="svg2" />
  <g
     class="filled-part"
     fill="#00d180"
     id="g2"
     transform="matrix(2.001,0,0,2,0,-20)">
    <path
       id="path2"
       d="M 18.695,10.355 H 0.569 A 0.57,0.57 0 0 0 0,10.925 v 18.146 c 0,0.314 0.255,0.57 0.57,0.57 h 18.125 a 0.57,0.57 0 0 0 0.57,-0.57 V 10.925 a 0.57,0.57 0 0 0 -0.57,-0.57 z M 29.25,30 c 5.516,0 9.989,-4.477 9.989,-10 0,-5.523 -4.473,-10 -9.99,-10 -5.516,0 -9.988,4.477 -9.988,10 0,5.523 4.472,10 9.989,10 z" />
  </g>
</svg>
