<svg xmlns="http://www.w3.org/2000/svg" width="327" height="327" viewBox="0 0 326.699 326.668"><path d="M0 163.333C0 73.1 73.127 0 163.32 0 253.588 0 326.7 73.1 326.7 163.333c0 90.24-73.11 163.335-163.377 163.335-17.81 0-34.933-2.86-50.972-8.085 11.615-67.416 54.18-122.39 110.436-145.73 6.684 7.725 16.523 12.587 27.505 12.587 20.04 0 36.273-16.255 36.273-36.332 0-20.06-16.235-36.323-36.273-36.323-20.06 0-36.29 16.212-36.33 36.252-71.787 21.59-129.95 71.7-159.472 136.104-9.385-8.38-17.75-17.818-24.965-28.127 1.69-62.718 32.712-117.528 79.173-149.83 6.666 7.497 16.355 12.223 27.155 12.223 20.06 0 36.307-16.31 36.307-36.34 0-20.083-16.247-36.33-36.307-36.33-20.083 0-36.33 16.247-36.33 36.33 0 1.05.07 2.125.155 3.117C56.402 101.365 20.9 131.4.11 169.665c-.1-2.07-.11-4.215-.11-6.332" fill="#fabb0b"/></svg>