<svg xmlns="http://www.w3.org/2000/svg" width="1023" height="327" viewBox="0 0 1022.365 326.668"><path d="M0 163.334C0 73.102 73.126.001 163.32.001c90.266 0 163.377 73.1 163.377 163.333 0 90.24-73.1 163.334-163.377 163.334-17.81 0-34.933-2.86-50.972-8.085 11.615-67.416 54.18-122.39 110.436-145.73 6.684 7.725 16.523 12.587 27.505 12.587 20.04 0 36.273-16.255 36.273-36.332 0-20.06-16.235-36.323-36.273-36.323-20.06 0-36.29 16.212-36.33 36.252-71.786 21.59-129.95 71.7-159.472 136.104-9.385-8.38-17.75-17.818-24.964-28.126 1.69-62.718 32.712-117.528 79.173-149.83 6.666 7.497 16.355 12.223 27.155 12.223 20.06 0 36.307-16.31 36.307-36.34 0-20.083-16.247-36.33-36.307-36.33-20.083 0-36.33 16.247-36.33 36.33 0 1.05.07 2.125.155 3.117C56.402 101.366 20.9 131.402.11 169.666c-.1-2.07-.11-4.215-.11-6.332" fill="#fabb0b"/><g fill="#2e4a9f"><path d="M973.6 209.9V80.72c0-1.703-.72-2.445-2.457-2.445h-28.828c-1.685 0-2.408.743-2.408 2.445v138.474c0 24.903 9.557 29.195 31.564 29.195.672 0 1.228-.08 1.73-.598.5-.46.4-1.754.4-1.754V209.9m-529.623 1V81.7c0-1.693-.775-2.456-2.47-2.456h-28.84c-1.697 0-2.447.763-2.447 2.456v138.47c0 24.898 9.57 29.207 31.56 29.207.733 0 1.24-.067 1.775-.592.457-.483.42-1.75.42-1.75V210.9m88.29 37.584c-1.7 0-2.437-.728-2.437-2.447v-90.913c0-.975-.485-1.447-1.443-1.447h-7.3c-1.687 0-2.392-.716-2.392-2.432V131.12c0-1.67.705-2.42 2.392-2.42h7.3c.957 0 1.443-.484 1.443-1.435v-8.48c0-28.365 13.104-40.507 41.207-40.507h18.287c1.707 0 2.45.74 2.45 2.443v21.9c0 1.72-.744 2.417-2.45 2.417h-12.456c-10.7 0-13.317 2.673-13.317 12.627v9.6c0 .95.472 1.435 1.42 1.435h15.47c1.695 0 2.432.75 2.432 2.42v20.124c0 1.716-.737 2.432-2.432 2.432h-15.47c-.95 0-1.42.472-1.42 1.447v90.913c0 1.72-.767 2.447-2.443 2.447h-28.84m-63.002-143.642c-1.68 0-2.427-.713-2.427-2.412V80.723c0-1.705.747-2.445 2.427-2.445h29.104c1.68 0 2.423.74 2.423 2.445v21.707c0 1.7-.74 2.412-2.423 2.412h-29.104m0 143.642c-1.68 0-2.427-.728-2.427-2.447V131.122c0-1.67.747-2.42 2.427-2.42h29.104c1.68 0 2.423.75 2.423 2.42v114.916c0 1.72-.74 2.447-2.423 2.447h-29.104m246.55-32.958c-2.44-7.055-3.336-16.52-3.336-28.157 0-11.643.896-21.097 3.336-28.1 6.787-21.6 25.464-33.225 50.703-33.225 19.36 0 35.613 8.756 44.336 22.06.713 1.227.713 2.435-.48 3.415l-21.1 13.797c-1.443.965-2.667.75-3.608-.477-4.884-6.777-11.164-10.18-18.683-10.18-9.472 0-15.503 4.133-18.18 12.6-1.463 4.1-2.17 10.932-2.17 20.12 0 9.234.708 15.994 2.17 20.148 2.68 8.47 8.7 12.6 18.18 12.6 7.52 0 13.8-3.375 18.683-10.167.94-1.207 2.165-1.468 3.608-.485l21.1 13.827c1.193.945 1.193 2.158.48 3.403-8.723 13.287-24.975 22.045-44.336 22.045-25.24 0-43.916-11.645-50.703-33.203"/><path d="M889.52 175.023c.992 0 1.42-.5 1.443-1.447a31.72 31.72 0 0 0-1.213-8.748c-2.877-8.476-8.85-12.835-19.048-12.835-9.032 0-17.316 4.36-20.232 12.835-.716 2.675-1.185 5.585-1.185 8.748 0 .947.47 1.447 1.42 1.447zm-69.84 40.27c-2.647-8.28-3.83-17.498-3.83-27.924 0-10.877.9-20.352 3.597-28.108 6.793-21.095 25.467-33.227 50.416-33.227 25.444 0 43.895 12.385 50.716 32.996 2.6 8.223 3.112 20.337 3.112 36.13 0 1.678-.963 2.393-2.7 2.393h-69.653c-.963 0-1.452.513-1.452 1.452.26 2.44.12 4.613.817 6.543 3.132 10.44 11.384 15.525 24.284 15.543 9.387.016 16.88-2.96 21.588-6.236 4.315-3.004 4.24-4.057 6.653-2.104l18.044 12.95c1.63 1.182 1.455 2.176.233 3.372-12.353 13.113-28.837 19.655-49.936 19.655-26.423 0-45.092-12.136-51.9-33.435m-153.755-40.27c.983 0 1.452-.5 1.452-1.447 0-3.163-.47-6.073-1.22-8.748-2.88-8.476-8.84-12.835-19.004-12.835-9.108 0-17.353 4.36-20.24 12.835a31.83 31.83 0 0 0-1.219 8.748c0 .947.46 1.447 1.464 1.447zm-69.836 40.27c-2.643-8.28-3.83-17.498-3.83-27.924 0-10.877.927-20.352 3.608-28.108 6.784-21.095 25.46-33.227 50.423-33.227 25.42 0 43.887 12.385 50.66 32.996 2.652 8.223 3.143 20.337 3.143 36.13 0 1.678-.965 2.393-2.648 2.393H627.76c-.965 0-1.425.513-1.425 1.452.193 2.44.1 4.613.825 6.543 3.125 10.44 11.348 15.525 24.233 15.543 9.435.016 16.904-2.96 21.635-6.236 4.284-3.004 4.233-4.057 6.617-2.104l18.05 12.95c1.6 1.182 1.456 2.176.267 3.372-12.396 13.113-28.855 19.655-49.936 19.655-26.465 0-45.152-12.136-51.935-33.435m426.27-5.383V80.72c0-1.703-.736-2.445-2.46-2.445h-28.844c-1.7 0-2.42.743-2.42 2.445v138.474c0 24.903 9.57 29.195 31.54 29.195.684 0 1.23-.08 1.77-.598.46-.46.415-1.754.415-1.754V209.9"/></g></svg>