<?xml version="1.0" encoding="UTF-8"?>
<svg width="99.914" height="118.81" enable-background="new 0 204.5 543.5 139" version="1.1" viewBox="0 204.5 99.914002 118.812" xml:space="preserve" xmlns="http://www.w3.org/2000/svg" xmlns:cc="http://creativecommons.org/ns#" xmlns:dc="http://purl.org/dc/elements/1.1/" xmlns:rdf="http://www.w3.org/1999/02/22-rdf-syntax-ns#"><metadata><rdf:RDF><cc:Work rdf:about=""><dc:format>image/svg+xml</dc:format><dc:type rdf:resource="http://purl.org/dc/dcmitype/StillImage"/><dc:title/></cc:Work></rdf:RDF></metadata>
<path d="m99.914 257.23v-24.623l-29.195-28.106h-41.541l-29.178 28.106v24.623l5.133 6.632-5.133 6.736v24.659l29.178 28.056h41.541l29.195-28.056v-24.659l-5.178-6.685 0.06-0.203zm-49.849 59.317h-0.26l-34.115-35.226 4.473-4.466 10.625 10.043h38.304l10.646-10.043 4.465 4.466zm-16.413-52.594v-0.091l16.153-15.058h0.26l16.156 15.058v0.091l-16.156 15.069h-0.26zm46.086-12.947-10.646-10.107h-38.304l-10.625 10.107-4.473-4.521 34.115-35.161h0.26l34.138 35.161z" fill="#e30613"/>
</svg>
