<svg xmlns="http://www.w3.org/2000/svg" width="535.715" height="177.352" xmlns:v="https://vecta.io/nano"><style><![CDATA[.B{fill-rule:evenodd}.C{stroke-miterlimit:2.613}]]></style><path d="M99.931 176.248h435.471V.32H99.931z" fill="#ff0"/><path d="M474.142 167.542h2.638l.971-6.446c.169-1.146.38-2.562.992-3.393.612-.903 1.498-1.196 1.984-1.196 2.216 0 1.73 3.222 1.562 4.345l-1.013 6.689h2.659l1.097-7.323c.148-1.051.506-3.32-.295-4.808-.696-1.366-2.068-1.879-3.039-1.879-1.646 0-2.743 1.123-3.25 1.635l.169-1.172h-2.448zm-10.783-2.543c-1.667 0-2.997-1.657-2.617-4.221.443-2.831 2.511-4.27 3.883-4.27 1.646 0 2.933 1.83 2.553 4.296-.317 2.148-1.899 4.195-3.82 4.195zm-.464 2.981c3.06 0 6.267-2.81 6.943-7.251.612-4.146-1.646-7.197-4.769-7.197-3.144 0-6.331 3.147-6.964 7.246-.57 3.882 1.519 7.202 4.79 7.202zm-18.739-7.225c.401-2.611 2.258-4.247 3.904-4.247 1.625 0 2.912 1.757 2.532 4.247-.422 2.78-2.448 4.244-3.841 4.244-1.266 0-3.039-1.245-2.596-4.244zm-4.178 11.301h2.638l.886-5.812c.57.807 1.266 1.736 3.123 1.736 3.123 0 6.014-3.273 6.626-7.274.506-3.344-.823-7.174-4.453-7.174-.506 0-2.258 0-3.883 2.05h-.021l.232-1.586h-2.427zm-5.719-18.061l-1.055 6.93c-.317 2.146-1.161 4.074-2.828 4.074-2.3 0-1.857-3-1.688-4.097l1.034-6.907h-2.638l-1.055 7.075c-.169 1.123-.506 3.32.084 4.759.422.929 1.372 2.15 3.376 2.15 1.688 0 2.553-1.076 3.102-1.809h.042l-.211 1.366h2.427l2.047-13.542zm-35.009 13.547h2.638l.95-6.35h.042l2.786 6.35h3.334l-3.461-6.909 4.98-6.638h-3.039l-4.474 6.369h-.042l1.646-10.882h-2.638zm-16.207 0h2.659l.971-6.446c.169-1.146.38-2.562.971-3.393.612-.903 1.519-1.196 2.005-1.196 2.216 0 1.73 3.222 1.562 4.345l-1.013 6.689h2.638l1.118-7.323c.148-1.051.485-3.32-.295-4.808a3.52 3.52 0 0 0-3.039-1.879c-1.667 0-2.743 1.123-3.25 1.635l.169-1.172h-2.448zm-7.238-6.813c-.38 2.513-2.026 4.27-3.862 4.27-1.878 0-2.997-1.879-2.638-4.169.295-2.026 1.752-4.322 3.925-4.322 1.562 0 2.997 1.416 2.575 4.221zm3.524-6.734h-2.427l-.253 1.708h-.042c-.042-.194-1.076-2.171-3.334-2.171-3.06 0-5.972 3-6.584 7.15-.696 4.513 1.414 7.298 4.263 7.298 1.372 0 3.144-.905 4.157-2.127l-.253 1.689h2.427zm-26.61 6.589c.295-1.977 1.857-4.076 3.883-4.076 1.667 0 2.975 1.586 2.575 4.221s-2.089 4.27-3.82 4.27c-1.54 0-3.102-1.413-2.638-4.415zm-3.545 6.958h2.427l.253-1.638c.506.901 1.266 2.075 3.398 2.075 4.031 0 6.162-4.565 6.563-7.274.549-3.587-1.097-7.174-4.453-7.174-1.224 0-2.596.562-3.693 1.682l.865-5.732h-2.638zm-26.652 0h2.638l.971-6.446c.19-1.146.401-2.562.992-3.393.612-.903 1.519-1.196 1.984-1.196 2.237 0 1.752 3.222 1.583 4.345l-1.013 6.689h2.638l1.097-7.323c.169-1.051.506-3.32-.274-4.808a3.52 3.52 0 0 0-3.039-1.879c-1.667 0-2.743 1.123-3.271 1.635l.19-1.172h-2.448zm-7.24-6.813c-.38 2.513-2.032 4.27-3.86 4.27-1.884 0-2.994-1.879-2.646-4.169.304-2.026 1.764-4.322 3.927-4.322 1.568 0 3.001 1.416 2.579 4.221zm3.526-6.734h-2.431l-.26 1.708h-.04c-.049-.194-1.08-2.171-3.324-2.171-3.058 0-5.97 3-6.595 7.15-.684 4.513 1.418 7.298 4.256 7.298 1.391 0 3.155-.905 4.172-2.127l-.253 1.689h2.427zm-20.894 9.125c-.901 1.366-1.851 1.879-2.724 1.879-1.986 0-3.024-1.928-2.678-4.244.422-2.782 2.233-4.247 3.839-4.247 1.627 0 2.049 1.294 2.264 1.977h2.978c-.502-4.172-3.404-4.953-4.794-4.953-3.037 0-6.293 3.025-6.917 7.174-.675 4.49 1.941 7.274 4.761 7.274 2.581 0 4.9-1.832 6.251-4.86zm-26.391-9.125l-1.045 6.93c-.321 2.146-1.167 4.074-2.836 4.074-2.302 0-1.853-3-1.684-4.097l1.038-6.907h-2.64l-1.066 7.075c-.169 1.123-.502 3.32.097 4.759.416.929 1.363 2.15 3.368 2.15 1.688 0 2.564-1.076 3.111-1.809h.04l-.207 1.366h2.423l2.043-13.542zm-19.914 11.004c-1.667 0-2.988-1.657-2.602-4.221.428-2.831 2.513-4.27 3.883-4.27 1.646 0 2.918 1.83 2.547 4.296-.323 2.148-1.901 4.195-3.828 4.195zm-.449 2.981c3.058 0 6.259-2.81 6.928-7.251.625-4.146-1.633-7.197-4.752-7.197-3.155 0-6.35 3.147-6.968 7.246-.585 3.882 1.517 7.202 4.792 7.202zm-20.104 4.076h2.84l9.055-18.061h-2.999l-3.971 8.687-1.188-8.687h-3.02l2.182 12.274zm-25.112-11.399c.285-1.902 1.916-4.148 3.883-4.148 1.865 0 2.946 2.026 2.612 4.247-.308 2.05-1.91 4.244-3.893 4.244-1.726 0-2.982-1.827-2.602-4.343zm10.64-11.175h-2.642l-.861 5.709c-.625-1.001-1.479-1.659-3.087-1.659-2.638 0-6.021 2.684-6.708 7.246-.658 4.368 1.733 7.202 4.533 7.202 1.865 0 3.186-1.125 3.832-2.101h.038l-.251 1.664h2.423zm-29.598 18.061h2.642l.971-6.446c.173-1.146.386-2.562.988-3.393.61-.903 1.511-1.196 1.988-1.196 2.224 0 1.739 3.222 1.568 4.345l-1.009 6.689h2.642l1.104-7.323c.158-1.051.5-3.32-.287-4.808-.709-1.366-2.083-1.879-3.035-1.879-1.667 0-2.75 1.123-3.262 1.635l.175-1.172h-2.442zm-13.031-7.934c.876-2.515 2.513-3.1 3.585-3.1 1.41 0 2.539.929 2.509 3.1zm8.241 2.609c.148-.438.312-.999.407-1.633.517-3.416-1.021-7.052-4.636-7.052-3.495 0-6.312 3.442-6.892 7.272-.595 3.952 1.38 7.176 4.735 7.176 2.602 0 5.027-2.272 6.031-4.712h-2.777c-.669 1.123-1.633 1.731-2.805 1.731-1.884 0-2.634-1.902-2.619-2.782zm-17.956-9.759h2.64l.452-2.976h-2.64zm-2.273 15.084h2.64l2.043-13.547h-2.642zm-9.92 0h2.642l1.148-7.618c.122-.805.471-3.124 2.891-3.245l.475-3.147h-.219c-1.37 0-1.982.781-2.61 1.659h-.04l.179-1.196h-2.423zm-9.342 0h2.64l1.608-10.667h1.549l.435-2.88h-1.549c.327-1.635.926-1.659 1.941-1.682l.483-3.198h-.734c-.815 0-1.747.391-2.469 1.1-1.296 1.219-1.667 2.878-1.863 3.781h-.931l-.435 2.88h.933zm-21.506-13.353h.04l.834 5.541h-3.374zm-9.158 13.353h2.999l2.271-4.665h5.261l.865 4.665h2.999L123 149.482h-2.125zm333.869-92.053l11.459 14.71c1.604 2.068 2.997 3.472 4.178 4.212.844.522 1.73.791 2.68.791v.908h-16.945v-.908c1.076-.101 1.752-.276 2.068-.522s.485-.545.485-.908c0-.688-.739-1.993-2.216-3.893l-7.47-9.64-1.203 1.037v9.116c0 1.741.106 2.826.295 3.255s.57.791 1.097 1.095c.549.309 1.414.461 2.617.461v.908h-16.418v-.908h1.097c.929 0 1.688-.175 2.279-.522.401-.227.717-.622.95-1.186.169-.386.253-1.42.253-3.103V68.416c0-1.708-.084-2.775-.253-3.205s-.528-.798-1.076-1.118c-.528-.321-1.245-.48-2.152-.48h-1.097v-.917h16.207v.917c-1.097 0-1.941.159-2.511.487-.422.236-.76.625-.992 1.163-.19.412-.295 1.462-.295 3.154v10.393l12.071-10.023c1.688-1.397 2.532-2.515 2.532-3.346 0-.632-.338-1.121-1.034-1.481-.359-.187-1.224-.295-2.617-.346v-.917h12.704v.917c-1.14.084-2.026.285-2.68.622s-2.152 1.481-4.474 3.416zm-43.724-12.794l16.059 20.723V69.055c0-2-.295-3.355-.844-4.062-.76-.95-2.047-1.413-3.862-1.38v-.917h10.741v.917c-1.372.178-2.3.414-2.764.7-.485.285-.844.756-1.097 1.404-.274.648-.401 1.767-.401 3.339v27.82h-.823l-22.01-27.82V90.3c0 1.916.422 3.212 1.287 3.884a4.6 4.6 0 0 0 2.933 1.018h.781v.908h-11.543v-.908c1.794-.016 3.039-.395 3.735-1.135s1.055-1.993 1.055-3.767V66.718l-.696-.894c-.675-.882-1.287-1.462-1.815-1.748-.528-.276-1.287-.428-2.279-.463v-.917zm-28.109 22.078l-4.854-11.505-5.001 11.505zm.802 1.825h-11.48l-1.372 3.255c-.443 1.086-.675 1.977-.675 2.684 0 .941.38 1.631 1.097 2.068.443.269 1.498.463 3.208.597v.908h-10.826v-.908c1.161-.185 2.131-.681 2.87-1.497.76-.807 1.688-2.489 2.786-5.037l11.649-26.659h.443l11.733 27.398c1.118 2.599 2.047 4.233 2.764 4.904.549.515 1.329.807 2.321.891v.908h-15.764v-.908h.654c1.266 0 2.152-.185 2.659-.545.359-.262.549-.641.549-1.137 0-.295-.063-.597-.148-.908-.042-.15-.274-.765-.739-1.848zm-40.095-6.947v10.714l-.021 1.238c0 .882.211 1.556.654 2.01.443.445 1.097.674 1.963.674 1.266 0 2.448-.288 3.524-.877a5.77 5.77 0 0 0 2.49-2.539c.591-1.102.865-2.337.865-3.701 0-1.563-.359-2.969-1.055-4.205s-1.667-2.101-2.912-2.597c-1.224-.496-3.06-.732-5.508-.716zm0-1.926c2.279 0 3.946-.26 5.022-.784s1.899-1.268 2.49-2.218c.57-.95.865-2.171.865-3.652 0-1.469-.295-2.681-.865-3.631-.549-.943-1.372-1.659-2.427-2.153s-2.743-.732-5.086-.716zm8.736.674c3.081.73 5.255 1.631 6.5 2.681 1.794 1.497 2.68 3.432 2.68 5.812 0 2.513-.971 4.591-2.933 6.233-2.427 1.991-5.93 2.983-10.551 2.983h-16.523v-.908c1.498 0 2.511-.143 3.06-.435.528-.288.907-.657 1.118-1.121s.317-1.589.317-3.397v-21.68c0-1.809-.106-2.946-.317-3.416s-.591-.84-1.14-1.118c-.549-.285-1.562-.421-3.039-.421v-.917h15.595c3.714 0 6.373.346 7.913 1.027 1.562.681 2.786 1.699 3.672 3.053.907 1.355 1.351 2.801 1.351 4.324 0 1.612-.57 3.044-1.709 4.305-1.14 1.252-3.123 2.253-5.993 2.995zm-50.028 6.373l-4.843-11.505-4.997 11.505zm.819 1.825h-11.497l-1.367 3.255c-.449 1.086-.671 1.977-.671 2.684 0 .941.367 1.631 1.106 2.068.426.269 1.49.463 3.186.597v.908h-10.823v-.908c1.165-.185 2.131-.681 2.876-1.497.753-.807 1.688-2.489 2.786-5.037l11.642-26.659h.46l11.731 27.398c1.123 2.599 2.041 4.233 2.76 4.904.551.515 1.321.807 2.311.891v.908h-15.747v-.908h.648c1.262 0 2.155-.185 2.663-.545.352-.262.532-.641.532-1.137 0-.295-.049-.597-.148-.908-.032-.15-.27-.765-.72-1.848zm-16.485-23.903v.917c-1.072.143-1.901.463-2.475.959-.802.69-2.064 2.574-3.792 5.643l-7.055 12.094v8.081c0 1.724.082 2.801.262 3.222.173.412.525.781 1.04 1.102.525.328 1.213.487 2.083.487h1.817v.908h-18.262v-.908h1.705c.958 0 1.72-.175 2.277-.522.418-.227.745-.622.983-1.186.179-.386.27-1.42.27-3.103v-6.703l-7.66-14.312c-1.524-2.826-2.587-4.483-3.22-4.988-.623-.505-1.45-.756-2.49-.774v-.917h15.599v.917h-.694c-.943 0-1.608.136-1.984.421-.378.278-.557.571-.557.882 0 .59.639 2.078 1.916 4.46l5.883 11.067 5.858-10.084c1.45-2.464 2.18-4.097 2.18-4.904 0-.435-.207-.807-.625-1.1-.54-.414-1.547-.657-2.997-.742v-.917zm-46.307 22.078l-4.841-11.505-4.999 11.505zm.819 1.825H220.84l-1.367 3.255c-.449 1.086-.671 1.977-.671 2.684 0 .941.367 1.631 1.106 2.068.424.269 1.49.463 3.186.597v.908H212.27v-.908c1.165-.185 2.131-.681 2.876-1.497.753-.807 1.688-2.489 2.786-5.037l11.642-26.659h.46l11.731 27.398c1.123 2.599 2.041 4.233 2.76 4.904.551.515 1.321.807 2.311.891v.908h-15.745v-.908h.646c1.262 0 2.155-.185 2.663-.545.352-.262.532-.641.532-1.137 0-.295-.049-.597-.148-.908-.032-.15-.27-.765-.72-1.848zm-38.039-22.986v-.917h17.304v.917h-1.057c-.958 0-1.728.168-2.302.512-.401.236-.72.625-.958 1.186-.179.395-.27 1.43-.27 3.105v16.357c0 3.205-.312 5.534-.935 6.989s-1.728 2.667-3.326 3.643c-1.589.983-3.507 1.469-5.744 1.469-2.735 0-4.949-.739-6.637-2.218-1.695-1.481-2.539-3.114-2.539-4.904 0-1.151.344-2.078 1.032-2.794a3.38 3.38 0 0 1 2.524-1.076c.975 0 1.794.321 2.458.959a3.18 3.18 0 0 1 1 2.373c0 .454-.059.859-.173 1.203-.057.168-.312.58-.753 1.245s-.656 1.137-.656 1.423c0 .419.205.788.623 1.1.608.463 1.401.7 2.376.7.688 0 1.253-.187 1.705-.548.441-.363.762-.927.95-1.689.181-.758.27-2.885.27-6.369V68.416c0-1.708-.089-2.775-.27-3.205-.188-.428-.549-.798-1.08-1.118-.542-.321-1.264-.48-2.171-.48zm-8.118 31.589v.908H169.16v-.908h1.08c.943 0 1.705-.175 2.279-.522.418-.227.736-.622.958-1.186.181-.386.27-1.42.27-3.103V68.416c0-1.708-.089-2.775-.27-3.205-.171-.428-.523-.798-1.066-1.118-.532-.321-1.26-.48-2.171-.48h-1.08v-.917h17.017v.917h-1.083c-.941 0-1.703.168-2.277.512-.418.236-.745.625-.983 1.186-.173.395-.262 1.43-.262 3.105v21.975c0 1.708.089 2.775.27 3.205.188.428.549.798 1.08 1.118.542.328 1.262.487 2.171.487zm-18.509-32.506v.917c-1.18.194-2.237.842-3.161 1.944-.673.824-1.671 2.749-2.999 5.793l-11.216 25.524h-.787l-11.167-26.559c-1.344-3.205-2.245-5.089-2.695-5.643-.46-.562-1.319-.917-2.581-1.06v-.917h15.599v.917h-.525c-1.408 0-2.368.178-2.883.538-.369.246-.549.606-.549 1.086 0 .295.065.648.188 1.051.131.395.563 1.481 1.296 3.238l6.939 16.629 6.43-14.804c.77-1.79 1.247-2.993 1.418-3.599.181-.606.264-1.128.264-1.556 0-.489-.125-.924-.386-1.303-.253-.379-.631-.664-1.123-.859-.688-.285-1.606-.421-2.737-.421v-.917" fill="navy" class="B"/><path d="M.313 177.07h99.589V.315H.313z" fill="#d40000"/><g class="B"><path d="M54.183 19.665l-.106.239c-.192.482-.487 1.423-.939 1.701l-.053.035v.84l-.076.037c-.724.367-.977 2.213-1.243 2.929l-.051.124h-.268l-.017.143c-.053.461-.181.934-.251 1.399l-.008.14h-.276v.566h-.276v.559l-.084.009-.07.007-.051.009-.027.019-.025.026-.008.019v.08c-.023.091-.044.075-.122.105l-.068.009h-.087v.585c.025 1.355.008 3.402.5 4.647l.042.108h.276v.84h.276v1.409h.276v.842h.268l.051.105.044.115.034.124.034.115.061.248.051.241.053.229.061.204.034.098.034.08.044.07.051.061v.559l.07.009c.72.166.494 2.616.975 2.789l.051.007.011.197c.019.524.238 2.087.008 2.585l-.019.035h-.276v.557l-.274.283h-.268l-.276.283-.008.098-.017.096-.025.089-.036.089-.042.08-.044.073c-.112.175-.272.304-.352.496l-.017.051-.008.054h-.053c-.23.037-.509.253-.715.274h-.053l-.008.159c-.279 1.502-3.967 2.019-4.995 2.089h-.196l-.008.028-.011.028-.025.023c-.205.138-.348.164-.578.222l-.179.044-.192.044-.388.07-.352.054-.285.035-.173.019-.059.051-.087.063-.112.08-.12.07c-1.631.875-3.898 1.858-5.668 2.241l-.139.016h-.11v.035c-.135.363-.966.973-1.304 1.081l-.059.009-.011.061c-.097.627-1.308 1.811-1.802 2.124l-.112.063v.054c-.072.564-.736.742-.819 1.301v.054l-.061.009c-.384.073-1.258.583-1.302 1.062v.051h-.129c-1.184.129-1.705 1.671-2.235 2.639l-.103.168h-.276l-.025.054c-.181.388-.405.873-.517 1.292v.063l-.053.007c-.348.197-.509.765-.992.833h-.051l-.008.063c-.578 1.186-2.416 2.932-3.279 3.868v.569h-.276v.557h-.266l-.008.14c-.006.384-.049 1.184-.492 1.268h-.053v.84l-.051.035c-.479.285-.724 1.493-1.017 1.647l-.027.009-.008.124c-.057.337-.162.634-.249.957l-.019.044h-.266l-.553 1.116h-.276v.026c-.021.288-.179.501-.447.531l-.095.009-.276 1.409h-.276l-.017.026c-.241.51.006 2.234.008 2.78l.008.283h.095l.07.009c.042.019.122.037.112.105v.054c.034.082.023.084.12.096l.061.012h.095v.061c.023.257.251.714.492.779l.051.009v.557l.276.283h.553v.089c.021.381.238.005.266.381v.089h.553l.034.026.095.063.148.089.162.105.19.105.181.089.078.035.078.028.068.016.061.009.276.283v.274l.266.285c1.057.732.701-.328 1.899 1.018l.017.051v.054h.551v.283h.544v.276h.553l.274.281v.569l1.089 1.123h.051l.051.009.053.019.053.016.042.028a.54.54 0 0 1 .198.185l.034.044.017.054.027.051.008.044.017.054v.054l.276.283.268.283h.059l.061.016.059.028c.262.159.399.276.623.487l.025.026h.542l.821.569v.274h.025c.257.04.479.154.519.47l.006.096h.544l.276.274v.283l.274.285h.544l.819.84v.566h.061c.264.089.561.358.768.559v.283h.266v.283h.276l.276.274c.074 2.281 4.961 6.771 6.761 7.712l.192.098.162.061c3.058.8 8.859.632 11.938-.131l.207-.073.173-.077v-.285l.112-.044c.713-.281 1.619-.412 2.372-.503l.251-.009.008-.054c.139-.292.696-.463.81-.735l.008-.054.061-.009c.298-.042 1.695-.487 1.846-.805l.008-.026h1.37l.268-.283v-.283h.276v-.285h.276l.266-.274c.036-.295.2-.697.312-.957l.068-.14.07-.133c.078-.166.173-.339.319-.442l.036-.009.025-.009v-.557c.308-.395.466-1.184.768-1.628l.051-.063h.276c.272-.307.274-.725.639-.999l.084-.063.095-.061v-.842h.053l.051-.009.044-.016a.63.63 0 0 0 .397-.48v-.051l.051-.063.122-.168.171-.229.209-.283.196-.292.173-.274.07-.117.059-.105.036-.089.008-.07 1.095-1.125h.053l.059-.016.07-.028.068-.042.148-.091.154-.096.148-.105.146-.089.07-.037.07-.026.061-.016.051-.009.276-.283v-.054l.008-.044.017-.044.017-.044.027-.035.034-.044.025-.035.044-.035c.264-.227.713-.302.897-.636l.008-.054.008-.044.008-.054h.051c.228-.019.931-.239 1.036-.505l.008-.051h.544l.059-.054.078-.044.095-.035.103-.035.234-.063.249-.051c.222-.047.561-.108.768-.232l.059-.054v-.281h.821v-.276l.112.009c.215.028.661.194.698-.194l.008-.098h.819l.008-.054c.122-.285.73-.487.802-.735l.011-.054h.827v-.281h1.095v-.285h.542v-.557h.276v-.566h.276v-2.248h-.276v-.559h-.276l-.051-.089c-.456-1.249.019-3.957.042-5.295l.008-.239.027-.009c.257-.239.226-2.286.249-2.592v-.206h-.276l.011-.115c.049-.29.177-.653-.19-.725h-.095l.008-.239c.03-1.289.5-4.106.042-5.295l-.051-.089h-.268v-.557h-.276v-3.94h-.274l-.276-1.399-.268-.285h-.276v-.283h-.276l-.274-.283v-.84h-.087c-.371-.033.006-.255-.371-.276l-.087-.007-.008-.117c-.065-.299-.198-.58-.251-.884l-.017-.124h-.051l-.061-.019-.061-.026-.068-.035-.137-.098-.131-.096-.12-.108-.103-.089-.061-.061-.025-.026v-.569l-.276-.274-.051-.009-.122-.016c-.179-.047-.544-.236-.62-.435l-.017-.051-.008-.054h-.12a14.88 14.88 0 0 1-3.045-.788l-.12-.054v-.283l-1.095-.274v-.098c-.042-.37-.241-.007-.268-.372v-.096h-.829v-.283h-.542v-.276h-.553v-.096c-.036-.37-.23-.007-.266-.372v-.098h-.061c-.217-.014-.969-.246-1.034-.531v-.026h-.821v-.569h-.276v-.557l.087-.009c.369-.012.004-.243.371-.274h.087v-.557l.276-.285h.542l.276-.281v-.285l.276-.274h.542v-.283h.553l.274-.283v-.283h.268l.276-.276c-.011-.115.051-.215.087-.318l.051-.105.053-.108c.063-.124.065-.187.087-.318l.276-.274h.268v-.283h.274l.276-.285v-.557l.087-.007c.369-.016.004-.246.371-.276h.087v-.559h.274v-.566h.276v-.557l.268-.283h.276l.276-.283v-.559h.274v-.566h.087c.363-.026.002-.253.371-.274l.087-.009v-.557h.095c.352-.035.004-.255.363-.276l.093-.007v-.842h.268v-.84h.276v-.842h.276l.042-.115c.245-.688.217-1.626.458-2.302l.042-.115h.276v-1.125h.276v-1.123h.276l.015-.054c.253-.859-.019-2.361.226-3.259l.025-.061h.276l.025-.054c.215-.793-.264-1.624-.051-2.417l.025-.054h.276V24.73h-.276v-1.125h-.276v-.84h-.266v-.852h-.276v-.557h-.276v-.566l-.276-.276-.268-.283-.266.009-.355.026-.414.035-.439.035-.217.012-.207.007c-.238-.005-.553.014-.777-.08l-.034-.016-.034-.028v-.283h-1.363v-.283l-.036-.019c-.371-.225-2.032.264-2.157-.211v-.044l-.084-.028c-.346-.129-1.587-.456-1.83-.786l-.008-.028h-.542v-.283l-.103.009c-.232.066-.422.154-.441-.194v-.098h-.061c-.268-.044-.519-.166-.766-.283l-6.565.283-.017.08c-.793.894-4.284.863-5.4 1.504l-.042.054" fill="#fff"/><path d="M77.402 28.858l.112-.452.112-.452.095-.461c1.585-6.717-6.637-3.975-9.773-4.658l-.542-.016-.553-.026c-3.457.007-9.173-4.85-11.281-1.727l-.112.159-.095.168-.087.185-.078.194-.07.197c-.458 1.416-.173 3.049-.129 4.513v.702c.021.599-.281 2.16-.715 2.522l-.053.028-.051.007-.061.009c-1.376-.25-2.338-3.269-3.942-.026l-.095.168-.095.157-.095.136-.07-.091c-.741-1.256-.279-3.182.846-3.992l.139-.098.034-.735.042-.716c-.768-9.832 10.473-10.934 16.821-10.847l.397.044.38.054c7.082 1.058 12.208 6.184 10.091 14.457l-.078.328-.087.302-.137-.019c-.207-.005-.399.007-.604.009l-.131-.009zM37.569 86.917l-.38.379-2.241 2.302-.371.381.207 1.364.198 1.355.207 1.364 1.017 6.79.553 6.074.559 6.083 3.408 36.542-.034.15-.034.15-.025.159c-.224 1.467.209 3.077-.312 4.525l-.059.152-.07.15 1.07.026 8.34.063 1.078.026-3.037-4.764-.051-.08c-.175-.304-.355-.632-.388-1.001l-.008-.087v-.08l1.121-21.1.103-1.507.12-1.495.346.344c4.719 5.435 5.153 21.083 5.244 28.166l.008 1.39.595.037c2.997.101 5.985-.054 8.979.061l.595.026-.483-.751c-.844-1.299-1.718-2.487-2.906-3.418l-.266-.204-.044-2.939-.053-2.941-.059-2.929-.061-2.932c-.175-8.858-.312-17.761.243-26.608l.093-1.504.112-1.497.122-1.514c.401-1.83-.158-4.12 1.137-5.559l.226-.363.456-.753c1.272-2.127 2.435-4.326 3.771-6.402l.241-.363.251-.365.241-.353.249-.337.243-.328c1.348-1.734 3.02-3.156 4.83-4.249l.336-.204.336-.194c2.414-1.432 5.48-2.204 7.677-3.444l.139-.117.129-.124.112-.131.112-.143.106-.143.093-.159c.563-1.046.561-2.309.536-3.489l-.025-.566-.044-.585c-.475-5.709-.074-11.617-.654-17.284l-.07-.407-.087-.388-.078-.381c-1.456-7.653-6.54-7.431-12.075-11.076l-.578-.328-.57-.328-.551-.337-.07.363-.346 1.886-.059.363.69.337c3.383 1.668 6.863 3.741 9.789 6.278l.268.239-2.201 5.091-.568.407-2.899-.194-.327-2.993-1.14.124-.232 1.869-.785.061.198 1.008c-.16 1.242-.019 2.487-.146 3.72l-.027.299.217.028c.346.023.694-.037 1.051-.019l.215.028.095-.363c.137-.613.234-1.238.371-1.851l.087-.365.336.028c.793.056 1.581.021 2.374.07l.327.035-.122.648C72.747 77.324 68.144 87.85 62.824 97.86l-.542 1.046-.38-.037-2.872-.213-.38-.033.087-.241.103-.248.103-.239c.705-1.907 3.094-5.531 3.347-7.19l.059-.337.053-.328.103-.653c.217-1.61.34-3.241.715-4.818l.078-.328.095-.328.095-.337.112-.337.12-.337.131-.344.137-.346.156-.353.171-.356.181-.363.198-.363.648-1.488-.243-2.071.682-6.757.69-1.451.036-.098.025-.105.017-.115v-.117c-.101-.8-.536-1.495-.612-2.408l-.044-.363-.034-.381c-.125-2.405-.205-4.878.534-7.19l.017-.133v-.388c-.044-.55-.238-.969-.49-1.434l-.036-.098-.025-.096c-.228-.95.038-1.949.078-2.904l.025-.267.008-.248.008-.229-.017-.206-.344.009c-.743.047-1.479.185-2.226.222l-.346.009.251 1.203c2.593 13.393.369 33.238-6.633 44.724l-.087.222-17.285.283-.276-7.527.595-.035c2.921-.133 5.843-.08 8.764-.213l.595-.035v-.197-.964-.194l-7.875.178-.025-.206c-.245-1.35-.736-2.63-.975-3.982l-.027-.213-.196.087c-.701.325-1.245.786-1.933 1.135l-.181.089" fill="#00a"/><g fill="navy"><path d="M74.781 30.114l.137-.063c.555-.201 1.802-.47 2.319-.016l.017.026.985-.824-.103-.115c-.924-.922-2.568-.674-3.64-.292l-.207.08zM63.472 27.51l.198-.051c1.633-.426 2.885-.335 4.218.868l.129.115.844-.966-.146-.133c-1.68-1.493-3.311-1.675-5.364-1.142l-.217.063m8.127 15.397l-.371.15c-3.349 1.252-6.286.826-8.66-2.204l-.224-.302-1.009.781.249.335c2.729 3.475 6.232 4.062 10.085 2.604l.405-.159zm4.191-6.455v-.646h-2.914v1.301h2.914zm-10.368-5.391l-.07.168c-.72 1.533-1.743 2.008-3.26 1.832l-.154-.026-.19 1.282.198.028c2.02.262 3.598-.531 4.554-2.56l.087-.204"/><path d="M78.273 28.582l-.025.07-.027.063c-.357.669-1.194.992-1.562 1.886l-.034.108-.034.115c-.112.54-.279 2.108-.751 2.433l-.034.028-.044.016-.042.159-.044.161-.034.159-.034.15c-.437 3.91.217 2.918-1.768 6.968l-.131.257-.129.239c-1.144 2.036-3.186 4.188-5.012 5.438l-.352.274-.371.283-.369.318-.597.063c-3.374.278-6.054-.562-8.798-2.709l-.257-.194-.5-.391-.466-.372-.234-.178-.224-.159-.215-.159-.215-.14-1.14-.744-.025-.019-.017-.016-.027-.035-.017-.028-.042-.089-.044-.115c-.487-1.285-.817-2.148-1.146-3.552l-.103-.344-.112-.346-.131-.335-.146-.346-.078-.168-.078-.168-.095-.168c-.895-1.38-2.401-5.192-2.121-6.942l.025-.229.034-.229.044-.222.051-.232.078-.22-.087-.302-.087-.255-.087-.213-.084-.178-.044-.07-.034-.054-.042-.051-.044-.037-.044-.026c-.198-.112-.34.136-.43.292l-.034.089-.087.204-.087.255-.087.285c-.966 5.307 5.054 11.493 2.252 16.168l-.12.239-.268.512-.293.55 2.657 1.895.363-3.737 8.557 5.117c.536 1.048.35 2.513.844 3.606l.051.096.165-.009.165-.009.156-.007.146-.019.293-.044.285-.054.276-.051.293-.044.154-.019.156-.016.154-.009h.165l.051-.044.036-.044.034-.044.027-.044.017-.051.017-.047.008-.042c.032-.367-.293-.732-.087-1.037l.034-.054.036-.044.051-.044.036-.051c.162-.297.371.054.551-.009l.034-.019.044-.016.034-.044c.082-.08.16-.316.198-.426l.044-.14.034-.168c.141-.463.114-.976.302-1.418l.008-.096.008-.089-.017-.187-.025-.175-.008-.082-.008-.087v-.073l.017-.08a.36.36 0 0 1 .173-.229l.051-.026.31-.187 1.872-1.158.355-.232.319-.213.07-.054c.618-.62 1.5-1.659 2.034-2.354l.198-.267.19-.274.19-.283c2.465-3.879 3.701-8.62 4.78-13.156l.061-.328.051-.337.053-.337"/></g><path d="M34.353 72.802h1.657v10.351h-1.657zm18.243-41.669l-.623.133.612 3.018 1.243-.264-.612-3.021" fill="#231f20"/><path d="M79.067 62.609l-1.431.133-.156 2.401c-1.42 3.103-2.197 6.458-3.165 9.738l-.087 4.127-2.02 2.185-.878 2.347-.701 1.984-.517 2 5.961-3.081 2.456-.725 1.061-.54.863-1.345-.355-9.89" fill="navy"/></g><path d="M79.04 62.616l-1.43.133-.158 2.4c-1.417 3.125-2.198 6.464-3.165 9.739l-.086 4.127-2.018 2.186-.879 2.346-.7 1.986-.52 1.999 5.963-3.08 2.458-.727 1.061-.54.86-1.344-.353-9.89z" fill="#f9f9f9" stroke="#fff" stroke-width=".182" class="C"/><g fill="navy"><g class="B"><path d="M68.233 33.931l.017.337.078 1.975.025.328.131.08c2.395 1.341 2.956-.669 2.847-3.028l.008-.257.137-.019.838-.08.137-.016.025.468c.131 6.685-6.052 6.221-5.442.4l.025-.213.12.009.796.007h.146M34.397 74.818c-1.625.496-2.925 1.954-3.889 3.584l3.948 3.643-.059-7.227"/><path d="M181.392 23.682h2.507v17.979l6.303 2.943V23.682h9.811l-2.794-3.914h-8.772l-.323-.449c-1.916-3.32-1.296-5.48 2.005-6.928l.646-.278.682-.208c7.213-1.993 16.54 2.167 22.628 6.235l1.325.868 2.112-.728-1.538-1.214-1.505-1.142c-7.331-5.487-20.054-10.746-28.824-6.893l-.43.173-.43.208c-4.514 2.66-4.995 6.21-.715 9.663l.43.346.464.346H178.6zm188.842 83.59c.506 1.39.717 2.913.717 4.42s-.211 3.032-.717 4.424l.633.311c.633-1.369.823-3.243.823-4.736s-.19-3.36-.823-4.733zm-3.482 3.453v.718h2.005c0 1.289-1.245 2.174-2.427 2.174-.696 0-1.414-.377-1.92-.884-.485-.524-.781-1.224-.781-1.961 0-1.565 1.224-2.901 2.764-2.901.992 0 1.752.489 2.321 1.308l.549-.524c-.717-.959-1.667-1.502-2.87-1.502-1.941 0-3.524 1.621-3.524 3.61 0 1.951 1.583 3.577 3.482 3.577.95 0 1.899-.426 2.511-1.165s.717-1.509.696-2.45zm-10.91 3.493h.739v-5.353l5.276 5.665v-7.258h-.739v5.379l-5.276-5.674zm-1.435-6.947h-.739v6.947h.739zm-5.487 2.974v-2.974h-.76v6.947h.76v-2.997l.19-.192 2.764 3.189h1.034l-3.271-3.716 3.165-3.231h-1.013zm-3.419 1.28h-2.3l1.161-2.78zm.295.721l.802 1.972h.823l-3.039-7.277-3.123 7.277h.823l.823-1.972zm-5.613-4.256h1.646v-.718H337.8v.718h1.625v6.228h.76zm-5.719 3.177h.19l2.047 3.051h.907l-2.152-3.117c1.055-.089 1.709-.847 1.709-1.914 0-1.565-1.203-1.916-2.49-1.916h-.971v6.947h.76zm0-3.177h.211c.907 0 1.73.11 1.73 1.254 0 1.076-.865 1.242-1.709 1.242h-.232zm-5.55 6.228h3.503v-.718h-2.743v-2.728h2.659v-.718h-2.659v-2.064h2.743v-.718h-3.503zm-5.339-.718v-5.51h.549c.802 0 1.477.11 2.11.672.57.526.865 1.292.865 2.085 0 .772-.274 1.5-.823 2.036-.633.597-1.329.718-2.152.718zm-.739.718h1.245c1.055 0 1.878-.14 2.68-.877.739-.681 1.097-1.575 1.097-2.588 0-1.032-.338-1.961-1.118-2.642-.802-.702-1.625-.84-2.638-.84h-1.266zm-7.445 0h.753v-5.353l5.278 5.665v-7.258h-.76v5.379l-5.271-5.674zm-5.455-6.947h-.753v4.347c0 .791.072 1.427.663 2.008.458.461 1.114.714 1.752.714.682 0 1.355-.278 1.821-.793.538-.576.591-1.172.591-1.928v-4.347h-.753v4.134c0 .545.027 1.153-.331 1.593a1.76 1.76 0 0 1-1.327.618c-.494 0-1.068-.239-1.365-.662-.314-.442-.295-1.029-.295-1.549zm-6.164 4.254h-2.288l1.156-2.78zm.295.721l.8 1.972h.834l-3.041-7.277-3.123 7.277h.825l.817-1.972zm-5.276-4.974h-.754v6.947h.754zm-6.101 6.228v-5.51h.547c.8 0 1.481.11 2.1.672.585.526.88 1.292.88 2.085 0 .772-.287 1.5-.844 2.036-.618.597-1.31.718-2.136.718zm-.753.718h1.256c1.059 0 1.868-.14 2.674-.877.745-.681 1.104-1.575 1.104-2.588 0-1.032-.35-1.961-1.121-2.642-.8-.702-1.625-.84-2.638-.84h-1.275zm-7.439 0h.753v-5.353l5.276 5.665v-7.258h-.753v5.379l-5.276-5.674zm-1.418-6.947h-.753v6.947h.753zm-4.746.718v-.718h-3.079v6.947h.753v-3.446h2.254v-.718h-2.254v-2.064zm-7.626-.119c1.551 0 2.773 1.299 2.773 2.876 0 1.563-1.239 2.871-2.773 2.871s-2.773-1.308-2.773-2.871c0-1.577 1.22-2.876 2.773-2.876zm0-.718c-1.931 0-3.526 1.612-3.526 3.601 0 1.998 1.595 3.587 3.526 3.587s3.526-1.589 3.526-3.587c0-1.989-1.597-3.601-3.526-3.601zm-8.013 6.154c-.279 0-.502.232-.502.505a.52.52 0 0 0 .502.529.52.52 0 0 0 .502-.529c0-.274-.224-.505-.502-.505zm-2.226-5.316h1.65v-.718h-4.037v.718h1.633v6.228h.753zm-7.204-.718h-.817l2.745 7.361 2.745-7.361h-.817l-1.929 5.295zm-4.738.599c1.551 0 2.773 1.299 2.773 2.876 0 1.563-1.239 2.871-2.773 2.871s-2.773-1.308-2.773-2.871c0-1.577 1.222-2.876 2.773-2.876zm0-.718c-1.929 0-3.526 1.612-3.526 3.601 0 1.998 1.597 3.587 3.526 3.587s3.526-1.589 3.526-3.587c0-1.989-1.597-3.601-3.526-3.601zm-7.069 3.573v.718h2.009c0 1.289-1.239 2.174-2.414 2.174-.709 0-1.427-.377-1.92-.884-.502-.524-.789-1.224-.789-1.961 0-1.565 1.22-2.901 2.764-2.901.996 0 1.758.489 2.323 1.308l.547-.524c-.717-.959-1.678-1.502-2.861-1.502-1.948 0-3.526 1.621-3.526 3.61 0 1.951 1.578 3.577 3.482 3.577a3.3 3.3 0 0 0 2.503-1.165c.618-.737.717-1.509.701-2.45zm-8.901.8h-2.288l1.156-2.78zm.295.721l.798 1.972h.836l-3.041-7.277-3.123 7.277h.825l.817-1.972zm-5.51-5.288c-.627 1.373-.815 3.243-.815 4.733s.188 3.367.815 4.736l.637-.311c-.511-1.392-.717-2.913-.717-4.424s.207-3.03.717-4.42zm-176.2-60.756l-.631.248-.646.257-.673.246-.69.257c-1.509.557-3.039 1.055-4.562 1.558l-.827.267-.855.264c-5.065 1.423-3.235.817-7.116 4.331l-.812.805-.793.814-.768.807c-3.893 4.179-7.304 8.807-10.34 13.776l-.5.805-.483.817-.483.814-.475.805c-.935 1.886-2.638 3.699-2.501 6.03l.008.168.017.159.025.178c.07.391.162.695.302 1.062l.087.178.087.194.095.185.103.197.112.185 2.009 1.434 2.028 1.444 2.045 1.453 2.036 1.444 2.043 1.451 2.045 1.453 2.026 1.434 2.011 1.434-.061-.391-.051-.344-.044-.309-.034-.302-.044-.292-.042-.318-.053-.346-.059-.391-.751-.531-.76-.538-.766-.569-.768-.566-1.553-1.168-1.562-1.186-1.568-1.186-1.553-1.17-.768-.576-.768-.557c-.73-.643-3.003-1.844-3.319-3.002l-.053-.159-.025-.178-.025-.178c0-2.698 5.738-11.434 7.373-13.547l.407-.54.414-.54.414-.531.422-.531.836-1.044.846-1.037 1.707-2.036 1.718-2.019.19-.115.19-.108.179-.089.181-.08.173-.061.165-.044.162-.037.165-.026.156-.007.154.007.148.009c.652.108 1.061.442 1.534.922l.114.124.215.274.215.283.207.311.198.309.241 1.142.192 1.062.129.992.087.922.025.859-.011.796-.068.744-.103.693-.156.636-.19.601-.232.559-.276.531-.302.496c-1.92 2.709-5.39 4.41-7.814 6.631l-.656.576-.663.62-.665.664-.673.716.595.693.595.672c1.834 2.082 3.832 4.031 5.942 5.765l.589.468.593.461.688.608.595.426.19-.044.179-.063.192-.07.179-.08.371-.194.333-.218.371-.213.369-.187.12-.248.19-.07.181-.063.021-.091-.498-.421c-2.819-2.061-6.339-3.699-8.599-6.57l-.215-.274.095-.194.095-.187.095-.178.095-.168c.365-.587.808-1.121 1.338-1.53l.249-.178.251-.168.249-.15.268-.143.26-.124.266-.115.276-.115.268-.098.844-.92 2.796-3.126.319-.346.319-.337.319-.318.321-.318c2.551-1.731 2.233-7.263 1.906-10.094l-.053-.302-.051-.283-.061-.257-.068-.229-.07-.204c-.726-.969-1.587-2.117-2.028-3.294l-.068-.204-.053-.194c-.215-.962.08-1.535.888-1.93l.215-.089.234-.07.268-.073c17.072-5.344 6.744-2.932 21.666-.124l.38.063.388.044.38.051-.036-.318c-.055-.454-.137-.901-.198-1.355l-.034-.318h-.352c-3.858-.157-7.458-1.626-10.809-3.673l-.397-.25"/><path d="M207.568 36.743h-.644c-12.902-1.767-1.498-11.46 10.062-4.85l1.431.657-.715.487c-2.809 1.86-5.622 3.152-8.88 3.638l-.646.033zm-10.133-4.677v.314l.036.344c.696 3.025 4.754 5.372 7.16 6.376l.502.173.538.173c3.619 1.308 6.704.749 10.169-.798l1.11-.555 1.11-.622v4.19l6.301 2.943v-20.92h9.811l-2.794-3.914H195.25l2.792 3.914h20.018v6.65l-.646-.519c-5.062-4.658-17.787-6.149-19.944 1.628l-.036.311"/><path d="M230.019 29.12l.931 1.317.931 1.247c3.784 4.715 9.939 9.808 16.006 9.179l.502-.103.464-.14c4.818-1.64 3.558-5.447.538-8.346l-.395-.349-.395-.346h8.739v10.082l6.301 2.943V23.682h9.775l-2.792-3.914h-41.715l2.794 3.914h25.637v3.463H242.3l-1.074.868.574.311.536.311.502.311c1.216.877 2.007 1.664 2.792 3.014l.179.416.143.416c.211.915.363 1.664-.287 2.356l-.179.138-.179.138-.179.138c-3.864 1.816-9.412-2.333-11.815-5.508l-.608-.831-.574-.866"/><path d="M280.434 35.253h-.502l-.464-.035-.466-.035c-1.118-.117-2.551-.55-3.509-1.212l-.287-.206-.285-.208c-.787-.667-.616-1.317.251-1.49l.859-.105.859-.136.787-.173.753-.175c1.363-.304 3.398-.87 4.476-1.905l.179-.241.07-.105.036-.138.038-.105v-.311l-.074-.208-.07-.208-.108-.241-.287-.555-.43-.59-.536-.693-.68-.763-.789-.831-.859-.901h10.849v8.383l-.68.381c-2.439 1.39-5.316 2.48-8.057 2.77l-.536.035zm-11.208-6.132l.215.555c3.744 8.477 11.952 12.211 19.872 8.072l.931-.519v4.434l6.303 2.943V23.683h9.775l-2.794-3.912h-35.556l2.794 3.912h5.478c4.189 3.353-3.153 5.454-5.337 5.37l-.823.035"/><path d="M349.427 36.015l-5.571-6.547.359-.103c4.514-1.455 15.93 1.701 6.267 6.338l-.506.138zm-7.344.969h-.485c-5.909-.367-5.518-4.853-.971-6.72l.422-.171 5.592 6.406-.464.105c-.92.19-1.849.349-2.786.379h-.654zm-8.736-4.19v.346c1.494 7.384 15.458 8.163 20.28 5.059l.359-.243v3.706l6.289 2.943V23.683h9.813l-2.786-3.912h-36.127l2.786 3.912h20.026v5.683l-.549-.381c-5.149-3.83-18.091-4.558-20.047 3.152l-.042.311zm-29.674-9.111h2.363v17.979l6.301 2.943V23.683h9.804l-2.786-3.912h-18.513m59.79-5.162l4.917-3.465-4.917-3.428-4.896 3.428zm-5.613 5.161h3.862l-5.255-7.899c-2.522-4.331-7.278-4.75-11.459-3.809l-.422.138 3.503 3.949.148-.173c3.338-1.446 5.866-.19 7.913 2.873l3.461 4.158h-.675c-5.328-2.667-13.419-8.996-19.668-6.996l-.274.138 2.786 4.155.317-.103c4.906-1.168 9.739.281 14.16 2.667l.823.414"/><path d="M376.754 36.259l-.317-.035c-7.181-1.268.207-9.797 9.348-3.706l.422.276-4.22 2.218c-.929.648-2.543 1.118-3.63 1.144l-.781.068zm-9.095-4.193v.314l.042.311c.743 2.759 3.21 4.441 5.36 5.751l.443.241.464.208c3.543 1.633 6.337 1.24 9.876-.346l.971-.519 1.034-.555v4.19l6.31 2.946v-9.595l.422-.346c5.069-3.933 14.618-4.162 6.478 4.85l-.971 1.177 5.592 2.702.422-.452c8.667-8.933-2.925-17.506-11.227-13.613l-.717.276v-5.922h22.052l-2.828-3.914h-45.835l2.786 3.914h17.515v7.136l-.654-.487-.591-.484c-2.53-1.855-5.641-3.709-8.779-3.43l-.929.105-.865.138c-2.288.384-5.546 1.804-6.31 4.537l-.021.278-.042.311"/></g><path d="M109.886 122.372h375.395" stroke-width=".747" stroke="#231f20" class="C"/></g><path d="M.313.313h535.09v176.727H.313z" fill="none" stroke="#231f20" stroke-width=".625" class="C"/></svg>