<?xml version="1.0" encoding="UTF-8" standalone="no"?>
<!-- Created with Inkscape (http://www.inkscape.org/) -->

<svg
   xmlns:dc="http://purl.org/dc/elements/1.1/"
   xmlns:cc="http://creativecommons.org/ns#"
   xmlns:rdf="http://www.w3.org/1999/02/22-rdf-syntax-ns#"
   xmlns:svg="http://www.w3.org/2000/svg"
   xmlns="http://www.w3.org/2000/svg"
   version="1.1"
   width="544.5"
   height="190.5"
   id="svg2"
   xml:space="preserve"><metadata
     id="metadata8"><rdf:RDF><cc:Work
         rdf:about=""><dc:format>image/svg+xml</dc:format><dc:type
           rdf:resource="http://purl.org/dc/dcmitype/StillImage" /><dc:title></dc:title></cc:Work></rdf:RDF></metadata><defs
     id="defs6"><clipPath
       id="clipPath16"><path
         d="m 3.3144,770.818 551.792,0 0,-767.802 -551.792,0 0,767.802 z"
         id="path18" /></clipPath><clipPath
       id="clipPath30"><path
         d="m 555.106,770.818 -551.792,0 0,-767.802 551.792,0 0,767.802 z"
         id="path32" /></clipPath><clipPath
       id="clipPath40"><path
         d="m -0.53802,771.784 574.724,0 0,-177.228 -574.724,0 0,177.228 z"
         id="path42" /></clipPath><clipPath
       id="clipPath46"><path
         d="m 573.156,-3.041 -572.60299,0 0,773.86 572.60299,0 0,-156.745 -572.60299,0 0,-489.051 0.52799,0 0,-20.597 374.309,0 0,0.25 191.176,0 0,20.347 6.59,0 0,-128.064"
         id="path48" /></clipPath><clipPath
       id="clipPath52"><path
         d="m 0.55301,770.819 572.60299,0 0,-773.86 -572.60299,0 0,773.86"
         id="path54" /></clipPath><clipPath
       id="clipPath58"><path
         d="m 555.106,770.818 -551.792,0 0,-767.802 551.792,0 0,767.802 z"
         id="path60" /></clipPath><clipPath
       id="clipPath74"><path
         d="m -0.53802,595.512 36.97,0 0,-599.518 -36.97,0 0,599.518 z"
         id="path76" /></clipPath><clipPath
       id="clipPath80"><path
         d="m 573.156,-3.041 -572.60299,0 0,773.86 572.60299,0 0,-156.745 -572.60299,0 0,-489.051 0.52799,0 0,-20.597 374.309,0 0,0.25 191.176,0 0,20.347 6.59,0 0,-128.064"
         id="path82" /></clipPath><clipPath
       id="clipPath86"><path
         d="m 0.55301,770.819 572.60299,0 0,-773.86 -572.60299,0 0,773.86"
         id="path88" /></clipPath><clipPath
       id="clipPath92"><path
         d="m 555.106,770.818 -551.792,0 0,-767.802 551.792,0 0,767.802 z"
         id="path94" /></clipPath><clipPath
       id="clipPath108"><path
         d="m 35.472,137.872 538.714,0 0,-141.878 -538.714,0 0,141.878 z"
         id="path110" /></clipPath><clipPath
       id="clipPath114"><path
         d="m 573.156,-3.041 -572.60299,0 0,773.86 572.60299,0 0,-156.745 -572.60299,0 0,-489.051 0.52799,0 0,-20.597 374.309,0 0,0.25 191.176,0 0,20.347 6.59,0 0,-128.064"
         id="path116" /></clipPath><clipPath
       id="clipPath120"><path
         d="m 0.55301,770.819 572.60299,0 0,-773.86 -572.60299,0 0,773.86"
         id="path122" /></clipPath><clipPath
       id="clipPath126"><path
         d="m 555.106,770.818 -551.792,0 0,-767.802 551.792,0 0,767.802 z"
         id="path128" /></clipPath><clipPath
       id="clipPath138"><path
         d="m 35.472,137.872 538.714,0 0,-141.878 -538.714,0 0,141.878 z"
         id="path140" /></clipPath><clipPath
       id="clipPath144"><path
         d="m 573.156,-3.041 -572.60299,0 0,773.86 572.60299,0 0,-156.745 -572.60299,0 0,-489.051 0.52799,0 0,-20.597 374.309,0 0,0.25 191.176,0 0,20.347 6.59,0 0,-128.064"
         id="path146" /></clipPath><clipPath
       id="clipPath150"><path
         d="m 0.55301,770.819 572.60299,0 0,-773.86 -572.60299,0 0,773.86"
         id="path152" /></clipPath><clipPath
       id="clipPath156"><path
         d="m 555.106,770.818 -551.792,0 0,-767.802 551.792,0 0,767.802 z"
         id="path158" /></clipPath><clipPath
       id="clipPath168"><path
         d="m 0.18304,614.552 573.533,0 0,-35.359 -573.533,0 0,35.359 z"
         id="path170" /></clipPath><clipPath
       id="clipPath174"><path
         d="m 573.156,125.023 -6.59,0 0,91.538 -191.176,0 0,0.25 -374.309,0 0,-91.788 -0.52799,0 0,489.051 572.60299,0 0,-32.388 -572.60299,0 0,-293.234 199.82999,0 0,-1.483 175.122,0 0,1.483 197.651,0 0,-163.429"
         id="path176" /></clipPath><clipPath
       id="clipPath180"><path
         d="m 0.55301,770.819 572.60299,0 0,-773.86 -572.60299,0 0,773.86"
         id="path182" /></clipPath><clipPath
       id="clipPath186"><path
         d="m 555.106,770.818 -551.792,0 0,-767.802 551.792,0 0,767.802 z"
         id="path188" /></clipPath><clipPath
       id="clipPath202"><path
         d="m 0.18304,579.671 36.235,0 0,-455.126 -36.235,0 0,455.126 z"
         id="path204" /></clipPath><clipPath
       id="clipPath208"><path
         d="m 573.156,125.023 -6.59,0 0,91.538 -191.176,0 0,0.25 -374.309,0 0,-91.788 -0.52799,0 0,489.051 572.60299,0 0,-32.388 -572.60299,0 0,-293.234 199.82999,0 0,-1.483 175.122,0 0,1.483 197.651,0 0,-163.429"
         id="path210" /></clipPath><clipPath
       id="clipPath214"><path
         d="m 0.55301,770.819 572.60299,0 0,-773.86 -572.60299,0 0,773.86"
         id="path216" /></clipPath><clipPath
       id="clipPath220"><path
         d="m 555.106,770.818 -551.792,0 0,-767.802 551.792,0 0,767.802 z"
         id="path222" /></clipPath><clipPath
       id="clipPath232"><path
         d="m 0.18304,579.671 36.235,0 0,-455.126 -36.235,0 0,455.126 z"
         id="path234" /></clipPath><clipPath
       id="clipPath238"><path
         d="m 573.156,125.023 -6.59,0 0,91.538 -191.176,0 0,0.25 -374.309,0 0,-91.788 -0.52799,0 0,489.051 572.60299,0 0,-32.388 -572.60299,0 0,-293.234 199.82999,0 0,-1.483 175.122,0 0,1.483 197.651,0 0,-163.429"
         id="path240" /></clipPath><clipPath
       id="clipPath244"><path
         d="m 0.55301,770.819 572.60299,0 0,-773.86 -572.60299,0 0,773.86"
         id="path246" /></clipPath><clipPath
       id="clipPath250"><path
         d="m 555.106,770.818 -551.792,0 0,-767.802 551.792,0 0,767.802 z"
         id="path252" /></clipPath><clipPath
       id="clipPath262"><path
         d="m 35.938,299.906 537.778,0 0,-105.359 -537.778,0 0,105.359 z"
         id="path264" /></clipPath><clipPath
       id="clipPath268"><path
         d="m 573.156,125.023 -6.59,0 0,91.538 -191.176,0 0,0.25 -374.309,0 0,-91.788 -0.52799,0 0,489.051 572.60299,0 0,-32.388 -572.60299,0 0,-293.234 199.82999,0 0,-1.483 175.122,0 0,1.483 197.651,0 0,-163.429"
         id="path270" /></clipPath><clipPath
       id="clipPath274"><path
         d="m 0.55301,770.819 572.60299,0 0,-773.86 -572.60299,0 0,773.86"
         id="path276" /></clipPath><clipPath
       id="clipPath280"><path
         d="m 555.106,770.818 -551.792,0 0,-767.802 551.792,0 0,767.802 z"
         id="path282" /></clipPath><clipPath
       id="clipPath292"><path
         d="m 35.938,299.906 537.778,0 0,-105.359 -537.778,0 0,105.359 z"
         id="path294" /></clipPath><clipPath
       id="clipPath298"><path
         d="m 573.156,125.023 -6.59,0 0,91.538 -191.176,0 0,0.25 -374.309,0 0,-91.788 -0.52799,0 0,489.051 572.60299,0 0,-32.388 -572.60299,0 0,-293.234 199.82999,0 0,-1.483 175.122,0 0,1.483 197.651,0 0,-163.429"
         id="path300" /></clipPath><clipPath
       id="clipPath304"><path
         d="m 0.55301,770.819 572.60299,0 0,-773.86 -572.60299,0 0,773.86"
         id="path306" /></clipPath><clipPath
       id="clipPath310"><path
         d="m 555.106,770.818 -551.792,0 0,-767.802 551.792,0 0,767.802 z"
         id="path312" /></clipPath><clipPath
       id="clipPath322"><path
         d="m 0.18304,582.06 287.004,0 0,-196.146 -287.004,0 0,196.146 z"
         id="path324" /></clipPath><clipPath
       id="clipPath328"><path
         d="m 573.156,288.452 -197.651,0 0,105.575 -175.122,0 0,-105.575 -199.82999,0 0,293.234 572.60299,0 0,-293.234"
         id="path330" /></clipPath><clipPath
       id="clipPath334"><path
         d="m 0.55301,770.819 572.60299,0 0,-773.86 -572.60299,0 0,773.86"
         id="path336" /></clipPath><clipPath
       id="clipPath340"><path
         d="m 555.106,770.818 -551.792,0 0,-767.802 551.792,0 0,767.802 z"
         id="path342" /></clipPath><clipPath
       id="clipPath352"><path
         d="m 0.18304,582.06 287.004,0 0,-196.146 -287.004,0 0,196.146 z"
         id="path354" /></clipPath><clipPath
       id="clipPath358"><path
         d="m 573.156,288.452 -197.651,0 0,105.575 -175.122,0 0,-105.575 -199.82999,0 0,293.234 572.60299,0 0,-293.234"
         id="path360" /></clipPath><clipPath
       id="clipPath364"><path
         d="m 0.55301,770.819 572.60299,0 0,-773.86 -572.60299,0 0,773.86"
         id="path366" /></clipPath><clipPath
       id="clipPath370"><path
         d="m 555.106,770.818 -551.792,0 0,-767.802 551.792,0 0,767.802 z"
         id="path372" /></clipPath><clipPath
       id="clipPath382"><path
         d="m 286.707,582.06 287.01,0 0,-196.146 -287.01,0 0,196.146 z"
         id="path384" /></clipPath><clipPath
       id="clipPath388"><path
         d="m 573.156,288.452 -197.651,0 0,105.575 -175.122,0 0,-105.575 -199.82999,0 0,293.234 572.60299,0 0,-293.234"
         id="path390" /></clipPath><clipPath
       id="clipPath394"><path
         d="m 0.55301,770.819 572.60299,0 0,-773.86 -572.60299,0 0,773.86"
         id="path396" /></clipPath><clipPath
       id="clipPath400"><path
         d="m 555.106,770.818 -551.792,0 0,-767.802 551.792,0 0,767.802 z"
         id="path402" /></clipPath><clipPath
       id="clipPath412"><path
         d="m 286.707,582.06 287.01,0 0,-196.146 -287.01,0 0,196.146 z"
         id="path414" /></clipPath><clipPath
       id="clipPath418"><path
         d="m 573.156,288.452 -197.651,0 0,105.575 -175.122,0 0,-105.575 -199.82999,0 0,293.234 572.60299,0 0,-293.234"
         id="path420" /></clipPath><clipPath
       id="clipPath424"><path
         d="m 0.55301,770.819 572.60299,0 0,-773.86 -572.60299,0 0,773.86"
         id="path426" /></clipPath><clipPath
       id="clipPath430"><path
         d="m 555.106,770.818 -551.792,0 0,-767.802 551.792,0 0,767.802 z"
         id="path432" /></clipPath><clipPath
       id="clipPath442"><path
         d="m 0.18304,386.392 215.252,0 0,-98.431 -215.252,0 0,98.431 z"
         id="path444" /></clipPath><clipPath
       id="clipPath448"><path
         d="m 573.156,288.452 -197.651,0 0,105.575 -175.122,0 0,-105.575 -199.82999,0 0,293.234 572.60299,0 0,-293.234"
         id="path450" /></clipPath><clipPath
       id="clipPath454"><path
         d="m 0.55301,770.819 572.60299,0 0,-773.86 -572.60299,0 0,773.86"
         id="path456" /></clipPath><clipPath
       id="clipPath460"><path
         d="m 555.106,770.818 -551.792,0 0,-767.802 551.792,0 0,767.802 z"
         id="path462" /></clipPath><clipPath
       id="clipPath476"><path
         d="m 358.218,386.392 215.498,0 0,-98.431 -215.498,0 0,98.431 z"
         id="path478" /></clipPath><clipPath
       id="clipPath482"><path
         d="m 573.156,288.452 -197.651,0 0,105.575 -175.122,0 0,-105.575 -199.82999,0 0,293.234 572.60299,0 0,-293.234"
         id="path484" /></clipPath><clipPath
       id="clipPath488"><path
         d="m 0.55301,770.819 572.60299,0 0,-773.86 -572.60299,0 0,773.86"
         id="path490" /></clipPath><clipPath
       id="clipPath494"><path
         d="m 555.106,770.818 -551.792,0 0,-767.802 551.792,0 0,767.802 z"
         id="path496" /></clipPath><clipPath
       id="clipPath510"><path
         d="m 375.505,286.969 -175.122,0 0,1.483 175.122,0 0,-1.483"
         id="path512" /></clipPath><clipPath
       id="clipPath526"><path
         d="m 375.505,288.452 -175.122,0 0,105.575 175.122,0 0,-105.575"
         id="path528" /></clipPath><clipPath
       id="clipPath1006"><path
         d="m 3.3144,770.818 551.792,0 0,-767.802 -551.792,0 0,767.802 z"
         id="path1008" /></clipPath><clipPath
       id="clipPath1018"><path
         d="m 187.985,104.926 -186.404,0 0,20.097 186.404,0 0,-20.097"
         id="path1020" /></clipPath><clipPath
       id="clipPath1024"><path
         d="m 1.3309,216.561 186.9041,0 0,-111.885 -186.9041,0 0,111.885"
         id="path1026" /></clipPath><clipPath
       id="clipPath1030"><path
         d="m 555.106,770.818 -551.792,0 0,-767.802 551.792,0 0,767.802 z"
         id="path1032" /></clipPath><clipPath
       id="clipPath1046"><path
         d="m 187.985,125.023 -186.404,0 0,91.288 186.404,0 0,-91.288"
         id="path1048" /></clipPath><clipPath
       id="clipPath1052"><path
         d="m 1.3309,216.561 186.9041,0 0,-111.885 -186.9041,0 0,111.885"
         id="path1054" /></clipPath><clipPath
       id="clipPath1058"><path
         d="m 555.106,770.818 -551.792,0 0,-767.802 551.792,0 0,767.802 z"
         id="path1060" /></clipPath><clipPath
       id="clipPath1074"><path
         d="m 555.106,770.818 -551.792,0 0,-767.802 551.792,0 0,767.802 z"
         id="path1076" /></clipPath><clipPath
       id="clipPath1086"><path
         d="m 374.89,104.926 -186.405,0 0,20.097 186.405,0 0,-20.097"
         id="path1088" /></clipPath><clipPath
       id="clipPath1102"><path
         d="m 374.89,125.023 -186.405,0 0,91.288 186.405,0 0,-91.288"
         id="path1104" /></clipPath><clipPath
       id="clipPath1122"><path
         d="m 566.566,104.676 -191.176,0 0,20.347 191.176,0 0,-20.347"
         id="path1124" /></clipPath><clipPath
       id="clipPath1128"><path
         d="m 375.14,216.561 191.426,0 0,-111.885 -191.426,0 0,111.885"
         id="path1130" /></clipPath><clipPath
       id="clipPath1134"><path
         d="m 555.106,770.818 -551.792,0 0,-767.802 551.792,0 0,767.802 z"
         id="path1136" /></clipPath><clipPath
       id="clipPath1150"><path
         d="m 566.566,125.023 -191.176,0 0,91.538 191.176,0 0,-91.538"
         id="path1152" /></clipPath><clipPath
       id="clipPath1156"><path
         d="m 375.14,216.561 191.426,0 0,-111.885 -191.426,0 0,111.885"
         id="path1158" /></clipPath><clipPath
       id="clipPath1162"><path
         d="m 555.106,770.818 -551.792,0 0,-767.802 551.792,0 0,767.802 z"
         id="path1164" /></clipPath><clipPath
       id="clipPath1178"><path
         d="m 375.39,104.676 -0.25,0 0,111.885 0.25,0 0,-111.885"
         id="path1180" /></clipPath><clipPath
       id="clipPath1194"><path
         d="m 3.3144,770.818 551.792,0 0,-767.802 -551.792,0 0,767.802 z"
         id="path1196" /></clipPath></defs><g
     transform="matrix(1.25,0,0,-1.25,0,190.5)"
     id="g10"><path
       d="m 84.543162,4.0453341 348.377168,0 0,140.7431559 -348.377168,0 0,-140.7431559 z"
       id="path918"
       style="fill:#ffff00;fill-opacity:1;fill-rule:nonzero;stroke:none" /><g
       transform="matrix(1.6881929,0,0,1.8718333,383.91209,11.010434)"
       id="g920"
       style="fill:#000080"><path
         d="m 0,0 1.25,0 0.46,2.755 c 0.08,0.49 0.18,1.095 0.47,1.45 0.29,0.386 0.71,0.511 0.94,0.511 1.05,0 0.82,-1.377 0.74,-1.857 L 3.38,0 4.64,0 5.16,3.13 C 5.23,3.579 5.4,4.549 5.02,5.185 4.69,5.769 4.04,5.988 3.58,5.988 2.8,5.988 2.28,5.508 2.04,5.289 L 2.12,5.79 0.96,5.79 0,0 z m -5.11,1.087 c -0.79,0 -1.42,0.708 -1.24,1.804 0.21,1.21 1.19,1.825 1.84,1.825 0.78,0 1.39,-0.782 1.21,-1.836 C -3.45,1.962 -4.2,1.087 -5.11,1.087 z m -0.22,-1.274 c 1.45,0 2.97,1.201 3.29,3.099 0.29,1.772 -0.78,3.076 -2.26,3.076 -1.49,0 -3,-1.345 -3.3,-3.097 -0.27,-1.659 0.72,-3.078 2.27,-3.078 z m -8.88,3.088 c 0.19,1.116 1.07,1.815 1.85,1.815 0.77,0 1.38,-0.751 1.2,-1.815 -0.2,-1.188 -1.16,-1.814 -1.82,-1.814 -0.6,0 -1.44,0.532 -1.23,1.814 z m -1.98,-4.83 1.25,0 0.42,2.484 c 0.27,-0.345 0.6,-0.742 1.48,-0.742 1.48,0 2.85,1.399 3.14,3.109 0.24,1.429 -0.39,3.066 -2.11,3.066 -0.24,0 -1.07,0 -1.84,-0.876 l -0.01,0 0.11,0.678 -1.15,0 -1.29,-7.719 z M -18.9,5.79 -19.4,2.828 c -0.15,-0.917 -0.55,-1.741 -1.34,-1.741 -1.09,0 -0.88,1.282 -0.8,1.751 l 0.49,2.952 -1.25,0 -0.5,-3.024 c -0.08,-0.48 -0.24,-1.419 0.04,-2.034 0.2,-0.397 0.65,-0.919 1.6,-0.919 0.8,0 1.21,0.46 1.47,0.773 l 0.02,0 -0.1,-0.584 1.15,0 0.97,5.788 -1.25,0 z M -35.49,0 l 1.25,0 0.45,2.714 0.02,0 1.32,-2.714 1.58,0 -1.64,2.953 2.36,2.837 -1.44,0 -2.12,-2.722 -0.02,0 0.78,4.651 -1.25,0 L -35.49,0 z m -7.68,0 1.26,0 0.46,2.755 c 0.08,0.49 0.18,1.095 0.46,1.45 0.29,0.386 0.72,0.511 0.95,0.511 1.05,0 0.82,-1.377 0.74,-1.857 L -39.78,0 -38.53,0 -38,3.13 c 0.07,0.449 0.23,1.419 -0.14,2.055 -0.34,0.584 -0.99,0.803 -1.44,0.803 -0.79,0 -1.3,-0.48 -1.54,-0.699 l 0.08,0.501 -1.16,0 L -43.17,0 z m -3.43,2.912 c -0.18,-1.074 -0.96,-1.825 -1.83,-1.825 -0.89,0 -1.42,0.803 -1.25,1.782 0.14,0.866 0.83,1.847 1.86,1.847 0.74,0 1.42,-0.605 1.22,-1.804 z m 1.67,2.878 -1.15,0 -0.12,-0.73 -0.02,0 c -0.02,0.083 -0.51,0.928 -1.58,0.928 -1.45,0 -2.83,-1.282 -3.12,-3.056 -0.33,-1.929 0.67,-3.119 2.02,-3.119 0.65,0 1.49,0.387 1.97,0.909 L -47.05,0 l 1.15,0 0.97,5.79 z M -57.54,2.974 c 0.14,0.845 0.88,1.742 1.84,1.742 0.79,0 1.41,-0.678 1.22,-1.804 -0.19,-1.127 -0.99,-1.825 -1.81,-1.825 -0.73,0 -1.47,0.604 -1.25,1.887 z M -59.22,0 l 1.15,0 0.12,0.7 c 0.24,-0.385 0.6,-0.887 1.61,-0.887 1.91,0 2.92,1.951 3.11,3.109 0.26,1.533 -0.52,3.066 -2.11,3.066 -0.58,0 -1.23,-0.24 -1.75,-0.719 l 0.41,2.45 -1.25,0 L -59.22,0 z m -12.63,0 1.25,0 0.46,2.755 c 0.09,0.49 0.19,1.095 0.47,1.45 0.29,0.386 0.72,0.511 0.94,0.511 1.06,0 0.83,-1.377 0.75,-1.857 L -68.46,0 l 1.25,0 0.52,3.13 c 0.08,0.449 0.24,1.419 -0.13,2.055 -0.34,0.584 -0.99,0.803 -1.44,0.803 -0.79,0 -1.3,-0.48 -1.55,-0.699 l 0.09,0.501 -1.16,0 L -71.85,0 z m -3.431,2.912 c -0.18,-1.074 -0.963,-1.825 -1.829,-1.825 -0.893,0 -1.419,0.803 -1.254,1.782 0.144,0.866 0.836,1.847 1.861,1.847 0.743,0 1.422,-0.605 1.222,-1.804 z m 1.671,2.878 -1.152,0 -0.123,-0.73 -0.019,0 c -0.023,0.083 -0.512,0.928 -1.575,0.928 -1.449,0 -2.829,-1.282 -3.125,-3.056 -0.324,-1.929 0.672,-3.119 2.017,-3.119 0.659,0 1.495,0.387 1.977,0.909 L -75.73,0 l 1.15,0 0.97,5.79 z m -9.901,-3.9 c -0.427,-0.584 -0.877,-0.803 -1.291,-0.803 -0.941,0 -1.433,0.824 -1.269,1.814 0.2,1.189 1.058,1.815 1.819,1.815 0.771,0 0.971,-0.553 1.073,-0.845 l 1.411,0 c -0.238,1.783 -1.613,2.117 -2.272,2.117 -1.439,0 -2.982,-1.293 -3.278,-3.066 -0.32,-1.919 0.92,-3.109 2.256,-3.109 1.223,0 2.322,0.783 2.962,2.077 l -1.411,0 z m -12.506,3.9 -0.495,-2.962 c -0.152,-0.917 -0.553,-1.741 -1.344,-1.741 -1.091,0 -0.878,1.282 -0.798,1.751 l 0.492,2.952 -1.251,0 -0.505,-3.024 c -0.08,-0.48 -0.238,-1.419 0.046,-2.034 0.197,-0.397 0.646,-0.919 1.596,-0.919 0.8,0 1.215,0.46 1.474,0.773 l 0.019,0 -0.098,-0.584 1.148,0 0.968,5.788 -1.252,0 z m -9.437,-4.703 c -0.79,0 -1.416,0.708 -1.233,1.804 0.203,1.21 1.191,1.825 1.84,1.825 0.78,0 1.383,-0.782 1.207,-1.836 -0.153,-0.918 -0.901,-1.793 -1.814,-1.793 z m -0.213,-1.274 c 1.449,0 2.966,1.201 3.283,3.099 0.296,1.772 -0.774,3.076 -2.252,3.076 -1.495,0 -3.009,-1.345 -3.302,-3.097 -0.277,-1.659 0.719,-3.078 2.271,-3.078 z m -9.527,-1.742 1.346,0 4.291,7.719 -1.421,0 -1.882,-3.713 -0.563,3.713 -1.431,0 1.034,-5.246 -1.374,-2.473 z m -11.9,4.872 c 0.135,0.813 0.908,1.773 1.84,1.773 0.884,0 1.396,-0.866 1.238,-1.815 -0.146,-0.876 -0.905,-1.814 -1.845,-1.814 -0.818,0 -1.413,0.781 -1.233,1.856 z m 5.042,4.776 -1.252,0 -0.408,-2.44 c -0.296,0.428 -0.701,0.709 -1.463,0.709 -1.25,0 -2.853,-1.147 -3.179,-3.097 -0.312,-1.867 0.821,-3.078 2.148,-3.078 0.884,0 1.51,0.481 1.816,0.898 l 0.018,0 -0.119,-0.711 1.148,0 1.291,7.719 z M -136.078,0 l 1.252,0 0.46,2.755 c 0.082,0.49 0.183,1.095 0.468,1.45 0.289,0.386 0.716,0.511 0.942,0.511 1.054,0 0.824,-1.377 0.743,-1.857 L -132.691,0 l 1.252,0 0.523,3.13 c 0.075,0.449 0.237,1.419 -0.136,2.055 -0.336,0.584 -0.987,0.803 -1.438,0.803 -0.79,0 -1.303,-0.48 -1.546,-0.699 l 0.083,0.501 -1.157,0 -0.968,-5.79 z m -6.175,3.391 c 0.415,1.075 1.191,1.325 1.699,1.325 0.668,0 1.203,-0.397 1.189,-1.325 l -2.888,0 z m 3.905,-1.115 c 0.07,0.187 0.148,0.427 0.193,0.698 0.245,1.46 -0.484,3.014 -2.197,3.014 -1.656,0 -2.991,-1.471 -3.266,-3.108 -0.282,-1.689 0.654,-3.067 2.244,-3.067 1.233,0 2.382,0.971 2.858,2.014 l -1.316,0 c -0.317,-0.48 -0.774,-0.74 -1.329,-0.74 -0.893,0 -1.248,0.813 -1.241,1.189 l 4.054,0 z m -8.509,4.171 1.251,0 0.214,1.272 -1.251,0 -0.214,-1.272 z M -147.934,0 l 1.251,0 0.968,5.79 -1.252,0 -0.967,-5.79 z m -4.701,0 1.252,0 0.544,3.256 c 0.058,0.344 0.223,1.335 1.37,1.387 l 0.225,1.345 -0.104,0 c -0.649,0 -0.939,-0.334 -1.237,-0.709 l -0.019,0 0.085,0.511 -1.148,0 -0.968,-5.79 z m -4.427,0 1.251,0 0.762,4.559 0.734,0 0.206,1.231 -0.734,0 c 0.155,0.699 0.439,0.709 0.92,0.719 l 0.229,1.367 -0.348,0 c -0.386,0 -0.828,-0.167 -1.17,-0.47 -0.614,-0.521 -0.79,-1.23 -0.883,-1.616 l -0.441,0 -0.206,-1.231 0.442,0 L -157.062,0 z m -10.191,5.707 0.019,0 0.395,-2.368 -1.599,0 1.185,2.368 z m -4.34,-5.707 1.421,0 1.076,1.994 2.493,0 0.41,-1.994 1.421,0 -1.626,7.719 -1.007,0 L -171.593,0 z m 158.213,39.343 5.43,-6.287 c 0.76,-0.884 1.42,-1.484 1.98,-1.8 0.4,-0.223 0.82,-0.338 1.27,-0.338 l 0,-0.388 -8.03,0 0,0.388 c 0.51,0.043 0.83,0.118 0.98,0.223 0.15,0.104 0.23,0.233 0.23,0.388 0,0.294 -0.35,0.852 -1.05,1.664 l -3.54,4.12 -0.57,-0.443 0,-3.896 c 0,-0.744 0.05,-1.208 0.14,-1.391 0.09,-0.184 0.27,-0.338 0.52,-0.468 0.26,-0.132 0.67,-0.197 1.24,-0.197 l 0,-0.388 -7.78,0 0,0.388 0.52,0 c 0.44,0 0.8,0.075 1.08,0.223 0.19,0.097 0.34,0.266 0.45,0.507 0.08,0.165 0.12,0.607 0.12,1.326 l 0,9.392 c 0,0.73 -0.04,1.186 -0.12,1.37 -0.08,0.183 -0.25,0.341 -0.51,0.478 -0.25,0.137 -0.59,0.205 -1.02,0.205 l -0.52,0 0,0.392 7.68,0 0,-0.392 c -0.52,0 -0.92,-0.068 -1.19,-0.208 -0.2,-0.101 -0.36,-0.267 -0.47,-0.497 -0.09,-0.176 -0.14,-0.625 -0.14,-1.348 l 0,-4.442 5.72,4.284 c 0.8,0.597 1.2,1.075 1.2,1.43 0,0.27 -0.16,0.479 -0.49,0.633 -0.17,0.08 -0.58,0.126 -1.24,0.148 l 0,0.392 6.02,0 0,-0.392 c -0.54,-0.036 -0.96,-0.122 -1.27,-0.266 -0.31,-0.144 -1.02,-0.633 -2.12,-1.46 l -4.52,-3.35 z m -20.72,5.468 7.61,-8.857 0,6.139 c 0,0.855 -0.14,1.434 -0.4,1.736 -0.36,0.406 -0.97,0.604 -1.83,0.59 l 0,0.392 5.09,0 0,-0.392 c -0.65,-0.076 -1.09,-0.177 -1.31,-0.299 -0.23,-0.122 -0.4,-0.323 -0.52,-0.6 -0.13,-0.277 -0.19,-0.755 -0.19,-1.427 l 0,-11.89 -0.39,0 -10.43,11.89 0,-9.08 c 0,-0.819 0.2,-1.373 0.61,-1.66 0.41,-0.291 0.87,-0.435 1.39,-0.435 l 0.37,0 0,-0.388 -5.47,0 0,0.388 c 0.85,0.007 1.44,0.169 1.77,0.485 0.33,0.316 0.5,0.852 0.5,1.61 l 0,10.079 -0.33,0.382 c -0.32,0.377 -0.61,0.625 -0.86,0.747 -0.25,0.118 -0.61,0.183 -1.08,0.198 l 0,0.392 5.47,0 z m -13.32,-9.436 -2.3,4.917 -2.37,-4.917 4.67,0 z m 0.38,-0.78 -5.44,0 -0.65,-1.391 c -0.21,-0.464 -0.32,-0.845 -0.32,-1.147 0,-0.402 0.18,-0.697 0.52,-0.884 0.21,-0.115 0.71,-0.198 1.52,-0.255 l 0,-0.388 -5.13,0 0,0.388 c 0.55,0.079 1.01,0.291 1.36,0.64 0.36,0.345 0.8,1.064 1.32,2.153 l 5.52,11.394 0.21,0 5.56,-11.71 c 0.53,-1.111 0.97,-1.809 1.31,-2.096 0.26,-0.22 0.63,-0.345 1.1,-0.381 l 0,-0.388 -7.47,0 0,0.388 0.31,0 c 0.6,0 1.02,0.079 1.26,0.233 0.17,0.112 0.26,0.274 0.26,0.486 0,0.126 -0.03,0.255 -0.07,0.388 -0.02,0.064 -0.13,0.327 -0.35,0.79 l -0.82,1.78 z m -19,2.969 0,-4.579 -0.01,-0.529 c 0,-0.377 0.1,-0.665 0.31,-0.859 0.21,-0.19 0.52,-0.288 0.93,-0.288 0.6,0 1.16,0.123 1.67,0.375 0.52,0.247 0.91,0.611 1.18,1.085 0.28,0.471 0.41,0.999 0.41,1.582 0,0.668 -0.17,1.269 -0.5,1.797 -0.33,0.528 -0.79,0.898 -1.38,1.11 -0.58,0.212 -1.45,0.313 -2.61,0.306 z m 0,0.823 c 1.08,0 1.87,0.111 2.38,0.335 0.51,0.226 0.9,0.542 1.18,0.948 0.27,0.406 0.41,0.928 0.41,1.561 0,0.628 -0.14,1.146 -0.41,1.552 -0.26,0.403 -0.65,0.709 -1.15,0.92 -0.5,0.213 -1.3,0.313 -2.41,0.306 l 0,-5.622 z m 4.14,-0.288 c 1.46,-0.312 2.49,-0.697 3.08,-1.146 0.85,-0.64 1.27,-1.467 1.27,-2.484 0,-1.074 -0.46,-1.962 -1.39,-2.664 -1.15,-0.851 -2.81,-1.275 -5,-1.275 l -7.83,0 0,0.388 c 0.71,0 1.19,0.061 1.45,0.186 0.25,0.123 0.43,0.281 0.53,0.479 0.1,0.198 0.15,0.679 0.15,1.452 l 0,9.266 c 0,0.773 -0.05,1.259 -0.15,1.46 -0.1,0.201 -0.28,0.359 -0.54,0.478 -0.26,0.122 -0.74,0.18 -1.44,0.18 l 0,0.392 7.39,0 c 1.76,0 3.02,-0.148 3.75,-0.439 0.74,-0.291 1.32,-0.726 1.74,-1.305 0.43,-0.579 0.64,-1.197 0.64,-1.848 0,-0.689 -0.27,-1.301 -0.81,-1.84 -0.54,-0.535 -1.48,-0.963 -2.84,-1.28 z m -23.707,-2.724 -2.295,4.917 -2.368,-4.917 4.663,0 z m 0.388,-0.78 -5.448,0 -0.648,-1.391 c -0.213,-0.464 -0.318,-0.845 -0.318,-1.147 0,-0.402 0.174,-0.697 0.524,-0.884 0.202,-0.115 0.706,-0.198 1.51,-0.255 l 0,-0.388 -5.129,0 0,0.388 c 0.552,0.079 1.01,0.291 1.363,0.64 0.357,0.345 0.8,1.064 1.32,2.153 l 5.517,11.394 0.218,0 5.559,-11.71 c 0.532,-1.111 0.967,-1.809 1.308,-2.096 0.261,-0.22 0.626,-0.345 1.095,-0.381 l 0,-0.388 -7.462,0 0,0.388 0.307,0 c 0.598,0 1.021,0.079 1.262,0.233 0.167,0.112 0.252,0.274 0.252,0.486 0,0.126 -0.023,0.255 -0.07,0.388 -0.015,0.064 -0.128,0.327 -0.341,0.79 l -0.819,1.78 z m -7.812,10.216 0,-0.392 c -0.508,-0.061 -0.901,-0.198 -1.173,-0.41 -0.38,-0.295 -0.978,-1.1 -1.797,-2.412 l -3.343,-5.169 0,-3.454 c 0,-0.737 0.039,-1.197 0.124,-1.377 0.082,-0.176 0.249,-0.334 0.493,-0.471 0.249,-0.14 0.575,-0.208 0.987,-0.208 l 0.861,0 0,-0.388 -8.654,0 0,0.388 0.808,0 c 0.454,0 0.815,0.075 1.079,0.223 0.198,0.097 0.353,0.266 0.466,0.507 0.085,0.165 0.128,0.607 0.128,1.326 l 0,2.865 -3.63,6.117 c -0.722,1.208 -1.226,1.916 -1.526,2.132 -0.295,0.216 -0.687,0.323 -1.18,0.331 l 0,0.392 7.392,0 0,-0.392 -0.329,0 c -0.447,0 -0.762,-0.058 -0.94,-0.18 -0.179,-0.119 -0.264,-0.244 -0.264,-0.377 0,-0.252 0.303,-0.888 0.908,-1.906 l 2.788,-4.73 2.776,4.31 c 0.687,1.053 1.033,1.751 1.033,2.096 0,0.186 -0.098,0.345 -0.296,0.47 -0.256,0.177 -0.733,0.281 -1.42,0.317 l 0,0.392 4.709,0 z m -21.944,-9.436 -2.294,4.917 -2.369,-4.917 4.663,0 z m 0.388,-0.78 -5.447,0 -0.648,-1.391 C -120.895,32.74 -121,32.359 -121,32.057 c 0,-0.402 0.174,-0.697 0.524,-0.884 0.201,-0.115 0.706,-0.198 1.51,-0.255 l 0,-0.388 -5.129,0 0,0.388 c 0.552,0.079 1.01,0.291 1.363,0.64 0.357,0.345 0.8,1.064 1.32,2.153 l 5.517,11.394 0.218,0 5.559,-11.71 c 0.532,-1.111 0.967,-1.809 1.308,-2.096 0.261,-0.22 0.626,-0.345 1.095,-0.381 l 0,-0.388 -7.461,0 0,0.388 0.306,0 c 0.598,0 1.021,0.079 1.262,0.233 0.167,0.112 0.252,0.274 0.252,0.486 0,0.126 -0.023,0.255 -0.07,0.388 -0.015,0.064 -0.128,0.327 -0.341,0.79 l -0.82,1.78 z m -18.026,9.824 0,0.392 8.2,0 0,-0.392 -0.501,0 c -0.454,0 -0.819,-0.072 -1.091,-0.219 -0.19,-0.101 -0.341,-0.267 -0.454,-0.507 -0.085,-0.169 -0.128,-0.611 -0.128,-1.327 l 0,-6.991 c 0,-1.37 -0.148,-2.365 -0.443,-2.987 -0.295,-0.622 -0.819,-1.14 -1.576,-1.557 -0.753,-0.42 -1.662,-0.628 -2.722,-0.628 -1.296,0 -2.345,0.316 -3.145,0.948 -0.803,0.633 -1.203,1.331 -1.203,2.096 0,0.492 0.163,0.888 0.489,1.194 0.326,0.305 0.726,0.46 1.196,0.46 0.462,0 0.85,-0.137 1.165,-0.41 0.314,-0.277 0.474,-0.611 0.474,-1.014 0,-0.194 -0.028,-0.367 -0.082,-0.514 -0.027,-0.072 -0.148,-0.248 -0.357,-0.532 -0.21,-0.284 -0.311,-0.486 -0.311,-0.608 0,-0.179 0.097,-0.337 0.295,-0.47 0.288,-0.198 0.664,-0.299 1.126,-0.299 0.326,0 0.594,0.08 0.808,0.234 0.209,0.155 0.361,0.396 0.45,0.722 0.086,0.324 0.128,1.233 0.128,2.722 l 0,7.634 c 0,0.73 -0.042,1.186 -0.128,1.37 -0.089,0.183 -0.26,0.341 -0.512,0.478 -0.257,0.137 -0.599,0.205 -1.029,0.205 l -0.649,0 z m -3.847,-13.501 0,-0.388 -8.064,0 0,0.388 0.512,0 c 0.447,0 0.808,0.075 1.08,0.223 0.198,0.097 0.349,0.266 0.454,0.507 0.086,0.165 0.128,0.607 0.128,1.326 l 0,9.392 c 0,0.73 -0.042,1.186 -0.128,1.37 -0.081,0.183 -0.248,0.341 -0.505,0.478 -0.252,0.137 -0.597,0.205 -1.029,0.205 l -0.512,0 0,0.392 8.064,0 0,-0.392 -0.513,0 c -0.446,0 -0.807,-0.072 -1.079,-0.219 -0.198,-0.101 -0.353,-0.267 -0.466,-0.507 -0.082,-0.169 -0.124,-0.611 -0.124,-1.327 l 0,-9.392 c 0,-0.73 0.042,-1.186 0.128,-1.37 0.089,-0.183 0.26,-0.341 0.512,-0.478 0.257,-0.14 0.598,-0.208 1.029,-0.208 l 0.513,0 z m -8.771,13.893 0,-0.392 c -0.559,-0.083 -1.06,-0.36 -1.498,-0.831 -0.319,-0.352 -0.792,-1.175 -1.421,-2.476 l -5.315,-10.909 -0.373,0 -5.292,11.351 c -0.637,1.37 -1.064,2.175 -1.277,2.412 -0.218,0.24 -0.625,0.392 -1.223,0.453 l 0,0.392 7.392,0 0,-0.392 -0.249,0 c -0.667,0 -1.122,-0.076 -1.366,-0.23 -0.175,-0.105 -0.26,-0.259 -0.26,-0.464 0,-0.126 0.031,-0.277 0.089,-0.449 0.062,-0.169 0.267,-0.633 0.614,-1.384 l 3.288,-7.107 3.047,6.327 c 0.365,0.765 0.591,1.279 0.672,1.538 0.086,0.259 0.125,0.482 0.125,0.665 0,0.209 -0.059,0.395 -0.183,0.557 -0.12,0.162 -0.299,0.284 -0.532,0.367 -0.326,0.122 -0.761,0.18 -1.297,0.18 l 0,0.392"
         id="path922"
         style="fill:#000080;fill-opacity:1;fill-rule:evenodd;stroke:none" /></g><path
       d="m 4.8486424,3.3883241 79.6708896,0 0,141.4039059 -79.6708896,0 0,-141.4039059 z"
       id="path924"
       style="fill:#d40000;fill-opacity:1;fill-rule:nonzero;stroke:none" /><g
       transform="matrix(1.6881929,0,0,1.8718333,47.944832,129.31217)"
       id="g926"><path
         d="M 0,0 -0.05,-0.102 C -0.141,-0.308 -0.281,-0.71 -0.495,-0.829 l -0.025,-0.015 0,-0.359 -0.036,-0.016 c -0.343,-0.157 -0.463,-0.946 -0.589,-1.252 l -0.024,-0.053 -0.127,0 -0.008,-0.061 C -1.329,-2.782 -1.39,-2.984 -1.423,-3.183 l -0.004,-0.06 -0.131,0 0,-0.242 -0.131,0 0,-0.239 -0.04,-0.004 -0.033,-0.003 -0.024,-0.004 -0.013,-0.008 -0.012,-0.011 -0.004,-0.008 0,-0.034 c -0.011,-0.039 -0.021,-0.032 -0.058,-0.045 l -0.032,-0.004 -0.041,0 0,-0.25 c 0.012,-0.579 0.004,-1.454 0.237,-1.986 l 0.02,-0.046 0.131,0 0,-0.359 0.131,0 0,-0.602 0.131,0 0,-0.36 0.127,0 0.024,-0.045 0.021,-0.049 0.016,-0.053 0.016,-0.049 0.029,-0.106 0.024,-0.103 0.025,-0.098 0.029,-0.087 0.016,-0.042 0.016,-0.034 0.021,-0.03 0.024,-0.026 0,-0.239 0.033,-0.004 c 0.341,-0.071 0.234,-1.118 0.462,-1.192 l 0.024,-0.003 0.005,-0.084 c 0.009,-0.224 0.113,-0.892 0.004,-1.105 l -0.009,-0.015 -0.131,0 0,-0.238 -0.13,-0.121 -0.127,0 -0.131,-0.121 -0.004,-0.042 -0.008,-0.041 -0.012,-0.038 -0.017,-0.038 -0.02,-0.034 -0.021,-0.031 c -0.053,-0.075 -0.129,-0.13 -0.167,-0.212 l -0.008,-0.022 -0.004,-0.023 -0.025,0 c -0.109,-0.016 -0.241,-0.108 -0.339,-0.117 l -0.025,0 -0.004,-0.068 c -0.132,-0.642 -1.88,-0.863 -2.367,-0.893 l -0.093,0 -0.004,-0.012 -0.005,-0.012 -0.012,-0.01 c -0.097,-0.059 -0.165,-0.07 -0.274,-0.095 l -0.085,-0.019 -0.091,-0.019 -0.184,-0.03 -0.167,-0.023 -0.135,-0.015 -0.082,-0.008 -0.028,-0.022 -0.041,-0.027 -0.053,-0.034 -0.057,-0.03 c -0.773,-0.374 -1.847,-0.794 -2.686,-0.958 l -0.066,-0.007 -0.052,0 0,-0.015 c -0.064,-0.155 -0.458,-0.416 -0.618,-0.462 l -0.028,-0.004 -0.005,-0.026 c -0.046,-0.268 -0.62,-0.774 -0.854,-0.908 l -0.053,-0.027 0,-0.023 c -0.034,-0.241 -0.349,-0.317 -0.388,-0.556 l 0,-0.023 -0.029,-0.004 c -0.182,-0.031 -0.596,-0.249 -0.617,-0.454 l 0,-0.022 -0.061,0 c -0.561,-0.055 -0.808,-0.714 -1.059,-1.128 l -0.049,-0.072 -0.131,0 -0.012,-0.023 c -0.086,-0.166 -0.192,-0.373 -0.245,-0.552 l 0,-0.027 -0.025,-0.003 c -0.165,-0.084 -0.241,-0.327 -0.47,-0.356 l -0.024,0 -0.004,-0.027 c -0.274,-0.507 -1.145,-1.253 -1.554,-1.653 l 0,-0.243 -0.131,0 0,-0.238 -0.126,0 -0.004,-0.06 c -0.003,-0.164 -0.023,-0.506 -0.233,-0.542 l -0.025,0 0,-0.359 -0.024,-0.015 c -0.227,-0.122 -0.343,-0.638 -0.482,-0.704 l -0.013,-0.004 -0.004,-0.053 c -0.027,-0.144 -0.077,-0.271 -0.118,-0.409 l -0.009,-0.019 -0.126,0 -0.262,-0.477 -0.131,0 0,-0.011 c -0.01,-0.123 -0.085,-0.214 -0.212,-0.227 l -0.045,-0.004 -0.131,-0.602 -0.131,0 -0.008,-0.011 c -0.114,-0.218 0.003,-0.955 0.004,-1.188 l 0.004,-0.121 0.045,0 0.033,-0.004 c 0.02,-0.008 0.058,-0.016 0.053,-0.045 l 0,-0.023 c 0.016,-0.035 0.011,-0.036 0.057,-0.041 l 0.029,-0.005 0.045,0 0,-0.026 c 0.011,-0.11 0.119,-0.305 0.233,-0.333 l 0.024,-0.004 0,-0.238 0.131,-0.121 0.262,0 0,-0.038 c 0.01,-0.163 0.113,-0.002 0.126,-0.163 l 0,-0.038 0.262,0 0.016,-0.011 0.045,-0.027 0.07,-0.038 0.077,-0.045 0.09,-0.045 0.086,-0.038 0.037,-0.015 0.037,-0.012 0.032,-0.007 0.029,-0.004 0.131,-0.121 0,-0.117 0.126,-0.122 c 0.501,-0.313 0.332,0.14 0.9,-0.435 l 0.008,-0.022 0,-0.023 0.261,0 0,-0.121 0.258,0 0,-0.118 0.262,0 0.13,-0.12 0,-0.243 0.516,-0.48 0.024,0 0.024,-0.004 0.025,-0.008 0.025,-0.007 0.02,-0.012 c 0.044,-0.025 0.063,-0.038 0.094,-0.079 l 0.016,-0.019 0.008,-0.023 0.013,-0.022 0.004,-0.019 0.008,-0.023 0,-0.023 0.131,-0.121 0.127,-0.121 0.028,0 0.029,-0.007 0.028,-0.012 c 0.124,-0.068 0.189,-0.118 0.295,-0.208 l 0.012,-0.011 0.257,0 0.389,-0.243 0,-0.117 0.012,0 c 0.122,-0.017 0.227,-0.066 0.246,-0.201 l 0.003,-0.041 0.258,0 0.131,-0.117 0,-0.121 0.13,-0.122 0.258,0 0.388,-0.359 0,-0.242 0.029,0 c 0.125,-0.038 0.266,-0.153 0.364,-0.239 l 0,-0.121 0.126,0 0,-0.121 0.131,0 0.131,-0.117 c 0.035,-0.975 2.351,-2.894 3.204,-3.296 l 0.091,-0.042 0.077,-0.026 c 1.449,-0.342 4.198,-0.27 5.657,0.056 l 0.098,0.031 0.082,0.033 0,0.122 0.053,0.019 c 0.338,0.12 0.767,0.176 1.124,0.215 l 0.119,0.004 0.004,0.023 c 0.066,0.125 0.33,0.198 0.384,0.314 l 0.004,0.023 0.029,0.004 c 0.141,0.018 0.803,0.208 0.875,0.344 l 0.004,0.011 0.649,0 0.127,0.121 0,0.121 0.131,0 0,0.122 0.131,0 0.126,0.117 c 0.017,0.126 0.095,0.298 0.148,0.409 l 0.032,0.06 0.033,0.057 c 0.037,0.071 0.082,0.145 0.151,0.189 l 0.017,0.004 0.012,0.004 0,0.238 c 0.146,0.169 0.221,0.506 0.364,0.696 l 0.024,0.027 0.131,0 c 0.129,0.131 0.13,0.31 0.303,0.427 l 0.04,0.027 0.045,0.026 0,0.36 0.025,0 0.024,0.004 0.021,0.007 c 0.086,0.023 0.175,0.114 0.188,0.205 l 0,0.022 0.024,0.027 0.058,0.072 0.081,0.098 0.099,0.121 0.093,0.125 0.082,0.117 0.033,0.05 0.028,0.045 0.017,0.038 0.004,0.03 0.519,0.481 0.025,0 0.028,0.007 0.033,0.012 0.032,0.018 0.07,0.039 0.073,0.041 0.07,0.045 0.069,0.038 0.033,0.016 0.033,0.011 0.029,0.007 0.024,0.004 0.131,0.121 0,0.023 0.004,0.019 0.008,0.019 0.008,0.019 0.013,0.015 0.016,0.019 0.012,0.015 0.021,0.015 c 0.125,0.097 0.338,0.129 0.425,0.272 l 0.004,0.023 0.004,0.019 0.004,0.023 0.024,0 c 0.108,0.008 0.441,0.102 0.491,0.216 l 0.004,0.022 0.258,0 0.028,0.023 0.037,0.019 0.045,0.015 0.049,0.015 0.111,0.027 0.118,0.022 c 0.105,0.02 0.266,0.046 0.364,0.099 l 0.028,0.023 0,0.12 0.389,0 0,0.118 0.053,-0.004 c 0.102,-0.012 0.313,-0.083 0.331,0.083 l 0.004,0.042 0.388,0 0.004,0.023 c 0.058,0.122 0.346,0.208 0.38,0.314 l 0.005,0.023 0.392,0 0,0.12 0.519,0 0,0.122 0.257,0 0,0.238 0.131,0 0,0.242 0.131,0 0,0.961 -0.131,0 0,0.239 -0.131,0 -0.024,0.038 c -0.216,0.534 0.009,1.691 0.02,2.263 l 0.004,0.102 0.013,0.004 c 0.122,0.102 0.107,0.977 0.118,1.108 l 0,0.088 -0.131,0 0.005,0.049 c 0.023,0.124 0.084,0.279 -0.09,0.31 l -0.045,0 0.004,0.102 c 0.014,0.551 0.237,1.755 0.02,2.263 l -0.024,0.038 -0.127,0 0,0.238 -0.131,0 0,1.684 -0.13,0 -0.131,0.598 -0.127,0.122 -0.131,0 0,0.121 -0.131,0 -0.13,0.121 0,0.359 -0.041,0 c -0.176,0.014 0.003,0.109 -0.176,0.118 l -0.041,0.003 -0.004,0.05 c -0.031,0.128 -0.094,0.248 -0.119,0.378 l -0.008,0.053 -0.024,0 -0.029,0.008 -0.029,0.011 -0.032,0.015 -0.065,0.042 -0.062,0.041 -0.057,0.046 -0.049,0.038 -0.029,0.026 -0.012,0.011 0,0.243 -0.131,0.117 -0.024,0.004 -0.058,0.007 c -0.085,0.02 -0.258,0.101 -0.294,0.186 l -0.008,0.022 -0.004,0.023 -0.057,0 c -0.463,0.059 -1.002,0.185 -1.443,0.337 l -0.057,0.023 0,0.121 -0.519,0.117 0,0.042 c -0.02,0.158 -0.114,0.003 -0.127,0.159 l 0,0.041 -0.393,0 0,0.121 -0.257,0 0,0.118 -0.262,0 0,0.041 c -0.017,0.158 -0.109,0.003 -0.126,0.159 l 0,0.042 -0.029,0 c -0.103,0.006 -0.459,0.105 -0.49,0.227 l 0,0.011 -0.389,0 0,0.243 -0.131,0 0,0.238 0.041,0.004 c 0.175,0.005 0.002,0.104 0.176,0.117 l 0.041,0 0,0.238 0.131,0.122 0.257,0 0.131,0.12 0,0.122 0.131,0.117 0.257,0 0,0.121 0.262,0 0.13,0.121 0,0.121 0.127,0 0.131,0.118 c -0.005,0.049 0.024,0.092 0.041,0.136 l 0.024,0.045 0.025,0.046 c 0.03,0.053 0.031,0.08 0.041,0.136 l 0.131,0.117 0.127,0 0,0.121 0.13,0 0.131,0.122 0,0.238 0.041,0.003 c 0.175,0.007 0.002,0.105 0.176,0.118 l 0.041,0 0,0.239 0.13,0 0,0.242 0.131,0 0,0.238 0.127,0.121 0.131,0 0.131,0.121 0,0.239 0.13,0 0,0.242 0.041,0 c 0.172,0.011 0.001,0.108 0.176,0.117 l 0.041,0.004 0,0.238 0.045,0 c 0.167,0.015 0.002,0.109 0.172,0.118 l 0.044,0.003 0,0.36 0.127,0 0,0.359 0.131,0 0,0.36 0.131,0 0.02,0.049 c 0.116,0.294 0.103,0.695 0.217,0.984 l 0.02,0.049 0.131,0 0,0.481 0.131,0 0,0.48 0.131,0 0.007,0.023 c 0.12,0.367 -0.009,1.009 0.107,1.393 l 0.012,0.026 0.131,0 0.012,0.023 c 0.102,0.339 -0.125,0.694 -0.024,1.033 l 0.012,0.023 0.131,0 0,0.48 -0.131,0 0,0.481 -0.131,0 0,0.359 -0.126,0 0,0.364 -0.131,0 0,0.238 -0.131,0 0,0.242 -0.131,0.118 -0.127,0.121 L 10.382,-0.246 10.214,-0.257 10.018,-0.272 9.81,-0.287 9.707,-0.292 9.609,-0.295 C 9.496,-0.293 9.347,-0.301 9.241,-0.261 l -0.016,0.007 -0.016,0.012 0,0.121 -0.646,0 0,0.121 -0.017,0.008 C 8.37,0.104 7.583,-0.105 7.524,0.098 l 0,0.019 -0.04,0.012 C 7.32,0.184 6.732,0.324 6.617,0.465 l -0.004,0.012 -0.257,0 0,0.121 L 6.307,0.594 C 6.197,0.566 6.107,0.528 6.098,0.677 l 0,0.042 -0.029,0 C 5.942,0.738 5.823,0.79 5.706,0.84 L 2.595,0.719 2.587,0.685 C 2.211,0.303 0.557,0.316 0.028,0.042 L 0.008,0.019"
         id="path928"
         style="fill:#ffffff;fill-opacity:1;fill-rule:evenodd;stroke:none" /></g><g
       transform="matrix(1.6881929,0,0,1.8718333,66.520022,121.95773)"
       id="g930"
       style="fill:#0000aa"><path
         d="M 0,0 0.053,0.193 0.106,0.386 0.151,0.583 C 0.902,3.454 -2.994,2.282 -4.48,2.574 L -4.737,2.581 -4.999,2.592 C -6.637,2.589 -9.346,4.665 -10.345,3.33 L -10.398,3.262 -10.443,3.19 -10.484,3.111 -10.521,3.028 -10.554,2.944 c -0.217,-0.605 -0.082,-1.303 -0.061,-1.929 l 0,-0.3 c 0.01,-0.256 -0.133,-0.923 -0.339,-1.078 l -0.025,-0.012 -0.024,-0.003 -0.029,-0.004 c -0.652,0.107 -1.108,1.397 -1.868,0.011 l -0.045,-0.072 -0.045,-0.067 -0.045,-0.058 -0.033,0.039 c -0.351,0.537 -0.132,1.36 0.401,1.706 l 0.066,0.042 0.016,0.314 0.02,0.306 c -0.364,4.202 4.963,4.673 7.971,4.636 l 0.188,-0.019 0.18,-0.023 C -0.87,5.981 1.559,3.79 0.556,0.254 L 0.519,0.114 0.478,-0.015 0.413,-0.007 C 0.315,-0.005 0.224,-0.01 0.127,-0.011 L 0.065,-0.007 0,0 z m -18.876,-24.814 -0.18,-0.162 c -0.352,-0.33 -0.708,-0.657 -1.062,-0.984 l -0.176,-0.163 0.098,-0.583 0.094,-0.579 0.098,-0.583 c 0.159,-0.967 0.326,-1.934 0.482,-2.902 l 0.262,-2.596 0.265,-2.6 c 0.544,-5.205 1.096,-10.41 1.615,-15.618 l -0.016,-0.064 -0.016,-0.064 -0.012,-0.068 c -0.106,-0.627 0.099,-1.315 -0.148,-1.934 l -0.028,-0.065 -0.033,-0.064 0.507,-0.011 c 1.317,-0.024 2.635,-0.006 3.952,-0.027 l 0.511,-0.011 -1.439,2.036 -0.024,0.034 c -0.083,0.13 -0.168,0.27 -0.184,0.428 l -0.004,0.037 0,0.034 c 0.198,3.005 0.297,6.016 0.531,9.018 l 0.049,0.644 0.057,0.639 0.164,-0.147 c 2.236,-2.323 2.442,-9.011 2.485,-12.038 l 0.004,-0.594 0.282,-0.016 c 1.42,-0.043 2.836,0.023 4.255,-0.026 l 0.282,-0.011 -0.229,0.321 c -0.4,0.555 -0.814,1.063 -1.377,1.461 l -0.126,0.087 -0.021,1.256 -0.025,1.257 -0.028,1.252 -0.029,1.253 c -0.083,3.786 -0.148,7.591 0.115,11.372 l 0.044,0.643 0.053,0.64 0.058,0.647 c 0.19,0.782 -0.075,1.761 0.539,2.376 l 0.107,0.155 0.216,0.322 c 0.603,0.909 1.154,1.849 1.787,2.736 l 0.114,0.155 0.119,0.156 0.114,0.151 0.118,0.144 0.115,0.14 c 0.639,0.741 1.431,1.349 2.289,1.816 l 0.159,0.087 0.159,0.083 c 1.144,0.612 2.597,0.942 3.638,1.472 l 0.066,0.05 0.061,0.053 0.053,0.056 0.053,0.061 0.05,0.061 0.044,0.068 c 0.267,0.447 0.266,0.987 0.254,1.491 l -0.012,0.242 -0.021,0.25 c -0.225,2.44 -0.035,4.965 -0.31,7.387 l -0.033,0.174 -0.041,0.166 -0.037,0.163 c -0.69,3.271 -3.099,3.176 -5.722,4.734 l -0.274,0.14 -0.27,0.14 -0.261,0.144 -0.033,-0.155 c -0.051,-0.27 -0.109,-0.537 -0.164,-0.806 l -0.028,-0.155 0.327,-0.144 c 1.603,-0.713 3.252,-1.599 4.639,-2.683 l 0.127,-0.102 -1.043,-2.176 -0.269,-0.174 -1.374,0.083 -0.155,1.279 -0.54,-0.053 -0.11,-0.799 -0.372,-0.026 0.094,-0.431 c -0.076,-0.531 -0.009,-1.063 -0.069,-1.59 l -0.013,-0.128 0.103,-0.012 c 0.164,-0.01 0.329,0.016 0.498,0.008 l 0.102,-0.012 0.045,0.155 c 0.065,0.262 0.111,0.529 0.176,0.791 l 0.041,0.156 0.159,-0.012 c 0.376,-0.024 0.749,-0.009 1.125,-0.03 l 0.155,-0.015 -0.058,-0.277 c -0.873,-4.914 -3.054,-9.413 -5.575,-13.691 l -0.257,-0.447 -0.18,0.016 c -0.453,0.034 -0.908,0.056 -1.361,0.091 l -0.18,0.014 0.041,0.103 0.049,0.106 0.049,0.102 c 0.334,0.815 1.466,2.364 1.586,3.073 l 0.028,0.144 0.025,0.14 0.049,0.279 c 0.103,0.688 0.161,1.385 0.339,2.059 l 0.037,0.14 0.045,0.14 0.045,0.144 0.053,0.144 0.057,0.144 0.062,0.147 0.065,0.148 0.074,0.151 0.081,0.152 0.086,0.155 0.094,0.155 0.307,0.636 -0.115,0.885 0.323,2.888 0.327,0.62 0.017,0.042 0.012,0.045 0.008,0.049 0,0.05 c -0.048,0.342 -0.254,0.639 -0.29,1.029 l -0.021,0.155 -0.016,0.163 c -0.059,1.028 -0.097,2.085 0.253,3.073 l 0.008,0.057 0,0.166 c -0.021,0.235 -0.113,0.414 -0.232,0.613 l -0.017,0.042 -0.012,0.041 c -0.108,0.406 0.018,0.833 0.037,1.241 l 0.012,0.114 0.004,0.106 0.004,0.098 -0.008,0.088 -0.163,-0.004 c -0.352,-0.02 -0.701,-0.079 -1.055,-0.095 l -0.164,-0.004 0.119,-0.514 c 1.229,-5.724 0.175,-14.206 -3.143,-19.115 l -0.041,-0.095 -8.191,-0.121 -0.131,3.217 0.282,0.015 c 1.384,0.057 2.769,0.034 4.153,0.091 l 0.282,0.015 0,0.084 c 0,0.137 0,0.274 0,0.412 l 0,0.083 -3.732,-0.076 -0.012,0.088 c -0.116,0.577 -0.349,1.124 -0.462,1.702 l -0.013,0.091 -0.093,-0.037 c -0.332,-0.139 -0.59,-0.336 -0.916,-0.485 l -0.086,-0.038"
         id="path932"
         style="fill:#0000aa;fill-opacity:1;fill-rule:evenodd;stroke:none" /></g><g
       transform="matrix(1.6881929,0,0,1.8718333,64.423282,120.95256)"
       id="g934"
       style="fill:#000080"><path
         d="M 0,0 0.065,0.027 C 0.328,0.113 0.919,0.228 1.164,0.034 L 1.172,0.023 1.639,0.375 1.59,0.424 C 1.152,0.818 0.373,0.712 -0.135,0.549 L -0.233,0.515 0,0 z m -5.359,1.113 0.094,0.022 c 0.774,0.182 1.367,0.143 1.999,-0.371 l 0.061,-0.049 0.4,0.413 -0.069,0.057 C -3.67,1.823 -4.443,1.901 -5.416,1.673 L -5.519,1.646"
         id="path936"
         style="fill:#000080;fill-opacity:1;fill-rule:evenodd;stroke:none" /></g><g
       transform="matrix(1.6881929,0,0,1.8718333,61.607382,111.71506)"
       id="g938"
       style="fill:#000080"><path
         d="M 0,0 -0.176,-0.064 C -1.763,-0.599 -3.155,-0.417 -4.28,0.878 L -4.386,1.007 -4.864,0.673 -4.746,0.53 c 1.293,-1.485 2.953,-1.736 4.779,-1.113 L 0.225,-0.515 0,0 z m 1.986,2.759 0,0.276 -1.381,0 0,-0.556 1.381,0 0,0.28 z M -2.927,5.063 -2.96,4.991 C -3.301,4.336 -3.786,4.133 -4.505,4.208 l -0.073,0.011 -0.09,-0.548 0.094,-0.012 c 0.957,-0.112 1.705,0.227 2.158,1.094 l 0.041,0.087"
         id="path940"
         style="fill:#000080;fill-opacity:1;fill-rule:evenodd;stroke:none" /></g><g
       transform="matrix(1.6881929,0,0,1.8718333,67.217242,122.17861)"
       id="g942"
       style="fill:#000080"><path
         d="m 0,0 -0.012,-0.03 -0.013,-0.027 c -0.169,-0.286 -0.566,-0.424 -0.74,-0.806 L -0.781,-0.909 -0.797,-0.958 C -0.85,-1.189 -0.929,-1.859 -1.153,-1.998 L -1.169,-2.01 -1.19,-2.017 -1.21,-2.085 -1.231,-2.154 -1.247,-2.222 -1.263,-2.286 C -1.47,-3.957 -1.16,-3.533 -2.101,-5.264 l -0.062,-0.11 -0.061,-0.102 c -0.542,-0.87 -1.51,-1.79 -2.375,-2.324 L -4.766,-7.917 -4.942,-8.038 -5.117,-8.174 -5.4,-8.201 c -1.599,-0.119 -2.869,0.24 -4.169,1.158 l -0.122,0.083 -0.237,0.167 -0.221,0.159 -0.111,0.076 -0.106,0.068 -0.102,0.068 -0.102,0.06 -0.54,0.318 -0.012,0.008 -0.008,0.007 -0.013,0.015 -0.008,0.012 -0.02,0.038 -0.021,0.049 c -0.231,0.549 -0.387,0.918 -0.543,1.518 l -0.049,0.147 -0.053,0.148 -0.062,0.143 -0.069,0.148 -0.037,0.072 -0.037,0.072 -0.045,0.072 c -0.424,0.59 -1.138,2.219 -1.005,2.967 l 0.012,0.098 0.016,0.098 0.021,0.095 0.024,0.099 0.037,0.094 -0.041,0.129 -0.041,0.109 -0.041,0.091 -0.04,0.076 -0.021,0.03 -0.016,0.023 -0.02,0.022 -0.021,0.016 -0.021,0.011 c -0.094,0.048 -0.161,-0.058 -0.204,-0.125 L -13.464,0.2 -13.505,0.113 -13.546,0.004 -13.587,-0.118 c -0.458,-2.268 2.395,-4.912 1.067,-6.91 l -0.057,-0.102 -0.127,-0.219 -0.139,-0.235 1.259,-0.81 0.172,1.597 4.055,-2.187 c 0.254,-0.448 0.166,-1.074 0.4,-1.541 l 0.024,-0.041 0.078,0.004 0.078,0.004 0.074,0.003 0.069,0.008 0.139,0.019 0.135,0.023 0.131,0.022 0.139,0.019 0.073,0.008 0.074,0.007 0.073,0.004 0.078,0 0.024,0.019 0.017,0.019 0.016,0.019 0.013,0.019 0.008,0.022 0.008,0.02 0.004,0.018 c 0.015,0.157 -0.139,0.313 -0.041,0.443 l 0.016,0.023 0.017,0.019 0.024,0.019 0.017,0.022 c 0.077,0.127 0.176,-0.023 0.261,0.004 l 0.016,0.008 0.021,0.007 0.016,0.019 c 0.039,0.034 0.076,0.135 0.094,0.182 l 0.021,0.06 0.016,0.072 c 0.067,0.198 0.054,0.417 0.143,0.606 l 0.004,0.041 0.004,0.038 -0.008,0.08 -0.012,0.075 -0.004,0.035 -0.004,0.037 0,0.031 0.008,0.034 c 0.016,0.051 0.039,0.071 0.082,0.098 l 0.024,0.011 0.147,0.08 c 0.299,0.163 0.592,0.324 0.887,0.495 l 0.168,0.099 0.151,0.091 0.033,0.023 c 0.293,0.265 0.711,0.709 0.964,1.006 l 0.094,0.114 0.09,0.117 0.09,0.121 c 1.168,1.658 1.754,3.684 2.265,5.623 l 0.029,0.14 0.024,0.144 0.025,0.144"
         id="path944"
         style="fill:#000080;fill-opacity:1;fill-rule:evenodd;stroke:none" /></g><path
       d="m 32.080882,86.802834 1.32528,0 0,-8.2808 -1.32528,0 0,8.2808 z m 14.59443,33.335476 -0.49802,-0.10669 0.48958,-2.41467 0.99434,0.21152 -0.48957,2.41654"
       id="path946"
       style="fill:#231f20;fill-opacity:1;fill-rule:evenodd;stroke:none" /><g
       transform="matrix(1.6881929,0,0,1.8718333,67.852002,94.956544)"
       id="g948"
       style="fill:#000080"><path
         d="m 0,0 -0.678,-0.057 -0.074,-1.026 c -0.673,-1.326 -1.041,-2.76 -1.5,-4.162 l -0.041,-1.764 -0.957,-0.934 -0.416,-1.003 -0.332,-0.848 -0.245,-0.855 2.825,1.317 1.164,0.31 0.503,0.231 0.409,0.575 -0.168,4.227"
         id="path950"
         style="fill:#000080;fill-opacity:1;fill-rule:evenodd;stroke:none" /></g><g
       transform="matrix(1.7545388,0,0,1.8010967,-464.68507,-1198.6076)"
       id="g952"
       style="fill:#dbdee3"><g
         transform="translate(303.514,718.205)"
         id="g954"
         style="fill:#dbdee3"><path
           d="M 0,0 -0.652,-0.059 -0.724,-1.125 C -1.37,-2.513 -1.726,-3.996 -2.167,-5.451 l -0.039,-1.833 -0.92,-0.971 -0.401,-1.042 -0.319,-0.882 -0.237,-0.888 2.719,1.368 1.121,0.323 0.484,0.24 0.392,0.597 L 0.472,-4.146 0,0 z"
           id="path956"
           style="fill:#f9f9f9;stroke:#ffffff;stroke-width:0.08156867;stroke-linecap:butt;stroke-linejoin:miter;stroke-miterlimit:2.61299992;stroke-opacity:1;stroke-dasharray:none" /></g></g><g
       transform="matrix(1.6881929,0,0,1.8718333,59.184822,117.8996)"
       id="g958"
       style="fill:#000080"><path
         d="m 0,0 0.008,-0.144 c 0.017,-0.281 0.016,-0.562 0.037,-0.844 l 0.012,-0.14 0.062,-0.034 c 1.135,-0.573 1.401,0.286 1.349,1.294 l 0.004,0.11 0.065,0.008 c 0.131,0.006 0.267,0.026 0.397,0.034 l 0.065,0.007 0.012,-0.2 C 2.073,-2.766 -0.857,-2.568 -0.568,-0.08 l 0.012,0.091 0.057,-0.004 C -0.372,0.005 -0.25,0.002 -0.122,0.004 l 0.069,0"
         id="path960"
         style="fill:#000080;fill-opacity:1;fill-rule:evenodd;stroke:none" /></g><g
       transform="matrix(1.6881929,0,0,1.8718333,32.116332,85.189314)"
       id="g962"
       style="fill:#000080"><path
         d="m 0,0 c -0.77,-0.212 -1.386,-0.835 -1.843,-1.532 0.62,-0.546 1.252,-1.012 1.871,-1.557 C 0.002,-2.06 0.026,-1.03 0,0"
         id="path964"
         style="fill:#000080;fill-opacity:1;fill-rule:evenodd;stroke:none" /></g><g
       transform="matrix(1.6881929,0,0,1.8718333,149.71247,126.09823)"
       id="g966"
       style="fill:#000080"><path
         d="m 0,0 1.188,0 0,-7.684 L 4.175,-8.942 4.175,0 8.824,0 7.5,1.673 3.343,1.673 3.19,1.865 C 2.282,3.284 2.576,4.207 4.14,4.826 L 4.446,4.945 4.769,5.034 C 8.187,5.886 12.607,4.108 15.492,2.369 L 16.12,1.998 17.121,2.309 16.392,2.828 15.679,3.316 C 12.205,5.661 6.176,7.909 2.02,6.262 L 1.816,6.188 1.612,6.099 C -0.527,4.962 -0.755,3.445 1.273,1.969 l 0.204,-0.148 0.22,-0.148 -3.02,0 L 0,0 z m 89.488,-35.726 c 0.24,-0.594 0.34,-1.245 0.34,-1.889 0,-0.646 -0.1,-1.296 -0.34,-1.891 l 0.3,-0.133 c 0.3,0.585 0.39,1.386 0.39,2.024 0,0.637 -0.09,1.436 -0.39,2.023 l -0.3,-0.134 z m -1.65,-1.476 0,-0.307 0.95,0 c 0,-0.551 -0.59,-0.929 -1.15,-0.929 -0.33,0 -0.67,0.161 -0.91,0.378 -0.23,0.224 -0.37,0.523 -0.37,0.838 0,0.669 0.58,1.24 1.31,1.24 0.47,0 0.83,-0.209 1.1,-0.559 l 0.26,0.224 c -0.34,0.41 -0.79,0.642 -1.36,0.642 -0.92,0 -1.67,-0.693 -1.67,-1.543 0,-0.834 0.75,-1.529 1.65,-1.529 0.45,0 0.9,0.182 1.19,0.498 0.29,0.315 0.34,0.645 0.33,1.047 l -1.33,0 z m -5.17,-1.493 0.35,0 0,2.288 2.5,-2.421 0,3.102 -0.35,0 0,-2.299 -2.5,2.425 0,-3.095 z m -0.68,2.969 -0.35007,0 0,-2.9692 0.35007,0 0,2.9692 z m -2.6,-1.271 0,1.271 -0.36,0 0,-2.969 0.36,0 0,1.281 0.09,0.082 1.31,-1.363 0.49,0 -1.55,1.588 1.5,1.381 -0.48,0 -1.36,-1.271 z m -1.62,-0.547 -1.09,0 0.55,1.188 0.54,-1.188 z m 0.14,-0.308 0.38,-0.843 0.39,0 -1.44,3.11 -1.48,-3.11 0.39,0 0.39,0.843 1.37,0 z m -2.66,1.819 0.78,0 0,0.307 -1.91,0 0,-0.307 0.77,0 0,-2.662 0.36,0 0,2.662 z m -2.71,-1.358 0.09,0 0.97,-1.304 0.43,0 -1.02,1.332 c 0.5,0.038 0.81,0.362 0.81,0.818 0,0.669 -0.57,0.819 -1.18,0.819 l -0.46,0 0,-2.969 0.36,0 0,1.304 z m 0,1.358 0.1,0 c 0.43,0 0.82,-0.047 0.82,-0.536 0,-0.46 -0.41,-0.531 -0.81,-0.531 l -0.11,0 0,1.067 z m -2.63,-2.662 1.66,0 0,0.307 -1.3,0 0,1.166 1.26,0 0,0.307 -1.26,0 0,0.882 1.3,0 0,0.307 -1.66,0 0,-2.969 z m -2.53,0.307 0,2.355 0.26,0 c 0.38,0 0.7,-0.047 1,-0.287 0.27,-0.225 0.41,-0.552 0.41,-0.891 0,-0.33 -0.13,-0.641 -0.39,-0.87 -0.3,-0.255 -0.63,-0.307 -1.02,-0.307 l -0.26,0 z m -0.35,-0.307 0.59,0 c 0.5,0 0.89,0.06 1.27,0.375 0.35,0.291 0.52,0.673 0.52,1.106 0,0.441 -0.16,0.838 -0.53,1.129 -0.38,0.3 -0.77,0.359 -1.25,0.359 l -0.6,0 0,-2.969 z m -3.528,0 0.357,0 0,2.288 2.501,-2.421 0,3.102 -0.36,0 0,-2.299 -2.498,2.425 0,-3.095 z m -2.585,2.969 -0.357,0 0,-1.858 c 0,-0.338 0.034,-0.61 0.314,-0.858 0.217,-0.197 0.528,-0.305 0.83,-0.305 0.323,0 0.642,0.119 0.863,0.339 0.255,0.246 0.28,0.501 0.28,0.824 l 0,1.858 -0.357,0 0,-1.767 c 0,-0.233 0.013,-0.493 -0.157,-0.681 -0.149,-0.167 -0.4,-0.264 -0.629,-0.264 -0.234,0 -0.506,0.102 -0.647,0.283 -0.149,0.189 -0.14,0.44 -0.14,0.662 l 0,1.767 z m -2.921,-1.818 -1.084,0 0.548,1.188 0.536,-1.188 z m 0.14,-0.308 0.379,-0.843 0.395,0 -1.441,3.11 -1.48,-3.11 0.391,0 0.387,0.843 1.369,0 z m -2.5,2.126 -0.35709,0 0,-2.9692 0.35709,0 0,2.9692 z m -2.891,-2.662 0,2.355 0.259,0 c 0.379,0 0.702,-0.047 0.995,-0.287 0.277,-0.225 0.417,-0.552 0.417,-0.891 0,-0.33 -0.136,-0.641 -0.4,-0.87 -0.293,-0.255 -0.621,-0.307 -1.012,-0.307 l -0.259,0 z m -0.357,-0.307 0.595,0 c 0.502,0 0.885,0.06 1.267,0.375 0.353,0.291 0.523,0.673 0.523,1.106 0,0.441 -0.166,0.838 -0.531,1.129 -0.379,0.3 -0.77,0.359 -1.25,0.359 l -0.604,0 0,-2.969 z m -3.525,0 0.357,0 0,2.288 2.5,-2.421 0,3.102 -0.357,0 0,-2.299 -2.5,2.425 0,-3.095 z m -0.672,2.969 -0.35696,0 0,-2.9692 0.35696,0 0,2.9692 z m -2.249,-0.307 0,0.307 -1.459,0 0,-2.969 0.357,0 0,1.473 1.068,0 0,0.307 -1.068,0 0,0.882 1.102,0 z m -3.614,0.051 c 0.735,0 1.314,-0.555 1.314,-1.229 0,-0.668 -0.587,-1.227 -1.314,-1.227 -0.727,0 -1.314,0.559 -1.314,1.227 0,0.674 0.578,1.229 1.314,1.229 z m 0,0.307 c -0.915,0 -1.671,-0.689 -1.671,-1.539 0,-0.854 0.756,-1.533 1.671,-1.533 0.914,0 1.671,0.679 1.671,1.533 0,0.85 -0.757,1.539 -1.671,1.539 z m -3.797,-2.63 c -0.132,0 -0.238,-0.099 -0.238,-0.216 0,-0.122 0.106,-0.226 0.238,-0.226 0.132,0 0.238,0.104 0.238,0.226 0,0.117 -0.106,0.216 -0.238,0.216 z m -1.055,2.272 0.782,0 0,0.307 -1.913,0 0,-0.307 0.774,0 0,-2.662 0.357,0 0,2.662 z m -3.414,0.307 -0.387,0 1.301,-3.146 1.301,3.146 -0.387,0 -0.914,-2.263 -0.914,2.263 z m -2.245,-0.256 c 0.735,0 1.314,-0.555 1.314,-1.229 0,-0.668 -0.587,-1.227 -1.314,-1.227 -0.727,0 -1.314,0.559 -1.314,1.227 0,0.674 0.579,1.229 1.314,1.229 z m 0,0.307 c -0.914,0 -1.671,-0.689 -1.671,-1.539 0,-0.854 0.757,-1.533 1.671,-1.533 0.914,0 1.671,0.679 1.671,1.533 0,0.85 -0.757,1.539 -1.671,1.539 z m -3.35,-1.527 0,-0.307 0.952,0 c 0,-0.551 -0.587,-0.929 -1.144,-0.929 -0.336,0 -0.676,0.161 -0.91,0.378 -0.238,0.224 -0.374,0.523 -0.374,0.838 0,0.669 0.578,1.24 1.31,1.24 0.472,0 0.833,-0.209 1.101,-0.559 l 0.259,0.224 c -0.34,0.41 -0.795,0.642 -1.356,0.642 -0.923,0 -1.671,-0.693 -1.671,-1.543 0,-0.834 0.748,-1.529 1.65,-1.529 0.446,0 0.893,0.182 1.186,0.498 0.293,0.315 0.34,0.645 0.332,1.047 l -1.335,0 z m -4.218,-0.342 -1.084,0 0.548,1.188 0.536,-1.188 z m 0.14,-0.308 0.378,-0.843 0.396,0 -1.441,3.11 -1.48,-3.11 0.391,0 0.387,0.843 1.369,0 z m -2.611,2.26 c -0.297,-0.587 -0.386,-1.386 -0.386,-2.023 0,-0.638 0.089,-1.439 0.386,-2.024 l 0.302,0.133 c -0.242,0.595 -0.34,1.245 -0.34,1.891 0,0.644 0.098,1.295 0.34,1.889 l -0.302,0.134 z m -83.497,25.967 -0.299,-0.106 -0.306,-0.11 -0.319,-0.105 -0.327,-0.11 c -0.715,-0.238 -1.44,-0.451 -2.162,-0.666 l -0.392,-0.114 -0.405,-0.113 c -2.4,-0.608 -1.533,-0.349 -3.372,-1.851 l -0.385,-0.344 -0.376,-0.348 -0.364,-0.345 c -1.845,-1.786 -3.461,-3.764 -4.9,-5.888 l -0.237,-0.344 -0.229,-0.349 -0.229,-0.348 -0.225,-0.344 c -0.443,-0.806 -1.25,-1.581 -1.185,-2.577 l 0.004,-0.072 0.008,-0.068 0.012,-0.076 c 0.033,-0.167 0.077,-0.297 0.143,-0.454 l 0.041,-0.076 0.041,-0.083 0.045,-0.079 0.049,-0.084 0.053,-0.079 0.952,-0.613 0.961,-0.617 0.969,-0.621 0.965,-0.617 0.968,-0.62 0.969,-0.621 0.96,-0.613 0.953,-0.613 -0.029,0.167 -0.024,0.147 -0.021,0.132 -0.016,0.129 -0.021,0.125 -0.02,0.136 -0.025,0.148 -0.028,0.167 -0.356,0.227 -0.36,0.23 -0.363,0.243 -0.364,0.242 -0.736,0.499 -0.74,0.507 -0.743,0.507 -0.736,0.5 -0.364,0.246 -0.364,0.238 c -0.346,0.275 -1.423,0.788 -1.573,1.283 l -0.025,0.068 -0.012,0.076 -0.012,0.076 c 0,1.153 2.719,4.887 3.494,5.79 l 0.193,0.231 0.196,0.231 0.196,0.227 0.2,0.227 0.396,0.446 0.401,0.443 0.809,0.87 0.814,0.863 0.09,0.049 0.09,0.046 0.085,0.038 0.086,0.034 0.082,0.026 0.078,0.019 0.077,0.016 0.078,0.011 0.074,0.003 0.073,-0.003 0.07,-0.004 c 0.309,-0.046 0.503,-0.189 0.727,-0.394 l 0.054,-0.053 0.102,-0.117 0.102,-0.121 0.098,-0.133 0.094,-0.132 0.114,-0.488 0.091,-0.454 0.061,-0.424 0.041,-0.394 0.012,-0.367 -0.005,-0.34 -0.032,-0.318 -0.049,-0.296 -0.074,-0.272 -0.09,-0.257 -0.11,-0.239 -0.131,-0.227 -0.143,-0.212 c -0.91,-1.158 -2.554,-1.885 -3.703,-2.834 l -0.311,-0.246 -0.314,-0.265 -0.315,-0.284 -0.319,-0.306 0.282,-0.296 0.282,-0.287 c 0.869,-0.89 1.816,-1.723 2.816,-2.464 l 0.279,-0.2 0.281,-0.197 0.326,-0.26 0.282,-0.182 0.09,0.019 0.085,0.027 0.091,0.03 0.085,0.034 0.176,0.083 0.158,0.093 0.176,0.091 0.175,0.08 0.057,0.106 0.09,0.03 0.086,0.027 0.01,0.039 -0.236,0.18 c -1.336,0.881 -3.004,1.581 -4.075,2.808 l -0.102,0.117 0.045,0.083 0.045,0.08 0.045,0.076 0.045,0.072 c 0.173,0.251 0.383,0.479 0.634,0.654 l 0.118,0.076 0.119,0.072 0.118,0.064 0.127,0.061 0.123,0.053 0.126,0.049 0.131,0.049 0.127,0.042 0.4,0.393 c 0.444,0.443 0.873,0.901 1.325,1.336 l 0.151,0.148 0.151,0.144 0.151,0.136 0.152,0.136 c 1.209,0.74 1.058,3.104 0.903,4.314 l -0.025,0.129 -0.024,0.121 -0.029,0.11 -0.032,0.098 -0.033,0.087 c -0.344,0.414 -0.752,0.905 -0.961,1.408 l -0.032,0.087 -0.025,0.083 c -0.102,0.411 0.038,0.656 0.421,0.825 l 0.102,0.038 0.111,0.03 0.127,0.031 c 8.09,2.284 3.196,1.253 10.267,0.053 l 0.18,-0.027 0.184,-0.019 0.18,-0.022 -0.017,0.136 c -0.026,0.194 -0.065,0.385 -0.094,0.579 l -0.016,0.136 -0.167,0 c -1.828,0.067 -3.534,0.695 -5.122,1.57 l -0.188,0.107"
         id="path968"
         style="fill:#000080;fill-opacity:1;fill-rule:evenodd;stroke:none" /></g><g
       transform="matrix(1.6881929,0,0,1.8718333,170.65281,115.64966)"
       id="g970"
       style="fill:#000080"><path
         d="m 0,0 -0.305,0 c -6.114,0.755 -0.71,4.898 4.768,2.073 L 5.141,1.792 4.802,1.584 C 3.471,0.789 2.138,0.237 0.594,0.029 L 0.288,0.015 0,0 z m -4.802,1.999 0,-0.134 0.017,-0.147 c 0.33,-1.293 2.253,-2.296 3.393,-2.725 l 0.238,-0.074 0.255,-0.074 c 1.715,-0.559 3.177,-0.32 4.819,0.341 l 0.526,0.237 0.526,0.266 0,-1.791 2.986,-1.258 0,8.941 4.649,0 -1.324,1.673 -17.12,0 1.323,-1.673 9.486,0 0,-2.842 -0.306,0.222 C 2.267,4.952 -3.763,5.589 -4.785,2.265 L -4.802,2.132"
         id="path972"
         style="fill:#000080;fill-opacity:1;fill-rule:evenodd;stroke:none" /></g><g
       transform="matrix(1.6881929,0,0,1.8718333,188.6135,121.74809)"
       id="g974"
       style="fill:#000080"><path
         d="m 0,0 0.441,-0.563 0.441,-0.533 c 1.793,-2.015 4.71,-4.192 7.585,-3.923 l 0.238,0.044 0.22,0.06 c 2.283,0.701 1.686,2.328 0.255,3.567 l -0.187,0.149 -0.187,0.148 4.141,0 0,-4.309 2.986,-1.258 0,8.942 4.632,0 -1.323,1.673 -19.768,0 1.324,-1.673 12.149,0 0,-1.48 -7.127,0 L 5.311,0.473 5.583,0.34 5.837,0.207 6.075,0.074 C 6.651,-0.301 7.026,-0.637 7.398,-1.214 L 7.483,-1.392 7.551,-1.57 c 0.1,-0.391 0.172,-0.711 -0.136,-1.007 L 7.33,-2.636 7.245,-2.695 7.16,-2.754 C 5.329,-3.53 2.7,-1.757 1.561,-0.4 l -0.288,0.355 -0.272,0.37"
         id="path976"
         style="fill:#000080;fill-opacity:1;fill-rule:evenodd;stroke:none" /></g><g
       transform="matrix(1.6881929,0,0,1.8718333,228.94611,116.84201)"
       id="g978"
       style="fill:#000080"><path
         d="m 0,0 -0.238,0 -0.22,0.015 -0.221,0.015 c -0.53,0.05 -1.209,0.235 -1.663,0.518 l -0.136,0.088 -0.135,0.089 c -0.373,0.285 -0.292,0.563 0.119,0.637 l 0.407,0.045 0.407,0.058 0.373,0.074 0.357,0.075 c 0.646,0.13 1.61,0.372 2.121,0.814 l 0.085,0.103 0.033,0.045 0.017,0.059 0.018,0.045 0,0.133 L 1.289,2.902 1.256,2.991 1.205,3.094 1.069,3.331 0.865,3.583 0.611,3.879 0.289,4.205 -0.085,4.56 l -0.407,0.385 5.141,0 0,-3.583 L 4.327,1.199 C 3.171,0.605 1.808,0.139 0.509,0.015 L 0.255,0 0,0 z m -5.311,2.621 0.102,-0.237 c 1.774,-3.623 5.664,-5.219 9.417,-3.45 l 0.441,0.222 0,-1.895 2.987,-1.258 0,8.942 4.632,0 -1.324,1.672 -16.849,0 1.324,-1.672 2.596,0 C 0,3.512 -3.479,2.614 -4.514,2.65 l -0.39,-0.015"
         id="path980"
         style="fill:#000080;fill-opacity:1;fill-rule:evenodd;stroke:none" /></g><g
       transform="matrix(1.6881929,0,0,1.8718333,284.13989,116.2318)"
       id="g982"
       style="fill:#000080"><path
         d="m 0,0 -2.64,2.798 0.17,0.044 C -0.331,3.464 5.079,2.115 0.5,0.133 L 0.26,0.074 0,0 z m -3.48,-0.414 -0.23,0 c -2.8,0.157 -2.615,2.074 -0.46,2.872 l 0.2,0.073 2.65,-2.738 -0.22,-0.045 c -0.436,-0.081 -0.876,-0.149 -1.32,-0.162 l -0.31,0 -0.31,0 z m -4.14,1.791 0,-0.148 c 0.708,-3.156 7.325,-3.489 9.61,-2.162 l 0.17,0.104 0,-1.584 2.98,-1.258 0,8.942 4.65,0 -1.32,1.672 -17.12,0 1.32,-1.672 9.49,0 0,-2.429 L 1.9,3.005 C -0.54,4.642 -6.673,4.953 -7.6,1.658 l -0.02,-0.133 0,-0.148 z m -14.062,3.894 1.12,0 0,-7.684 2.986,-1.258 0,8.942 4.646,0 -1.32,1.672 -8.773,0"
         id="path984"
         style="fill:#000080;fill-opacity:1;fill-rule:evenodd;stroke:none" /></g><g
       transform="matrix(1.6881929,0,0,1.8718333,293.1042,133.3572)"
       id="g986"
       style="fill:#000080"><path
         d="M 0,0 2.33,1.481 0,2.946 -2.32,1.481 0,0 z m -2.66,-2.206 1.83,0 -2.49,3.376 C -4.515,3.021 -6.769,3.2 -8.75,2.798 l -0.2,-0.059 1.66,-1.688 0.07,0.074 c 1.582,0.618 2.78,0.081 3.75,-1.228 l 1.64,-1.777 -0.32,0 c -2.525,1.14 -6.359,3.845 -9.32,2.99 l -0.13,-0.059 1.32,-1.776 0.15,0.044 c 2.325,0.499 4.615,-0.12 6.71,-1.14 l 0.39,-0.177"
         id="path988"
         style="fill:#000080;fill-opacity:1;fill-rule:evenodd;stroke:none" /></g><g
       transform="matrix(1.6881929,0,0,1.8718333,306.00199,116.03713)"
       id="g990"
       style="fill:#000080"><path
         d="m 0,0 -0.15,0.015 c -3.403,0.542 0.098,4.187 4.43,1.584 l 0.2,-0.118 -2,-0.948 C 2.04,0.256 1.275,0.055 0.76,0.044 L 0.39,0.015 0,0 z m -4.31,1.792 0,-0.134 0.02,-0.133 c 0.352,-1.179 1.521,-1.898 2.54,-2.458 l 0.21,-0.103 0.22,-0.089 c 1.679,-0.698 3.003,-0.53 4.68,0.148 l 0.46,0.222 0.49,0.237 0,-1.791 2.99,-1.259 0,4.101 0.2,0.148 c 2.402,1.681 6.927,1.779 3.07,-2.073 l -0.46,-0.503 2.65,-1.155 0.2,0.193 C 17.067,0.961 11.574,4.625 7.64,2.961 L 7.3,2.843 l 0,2.531 10.45,0 -1.34,1.673 -21.72,0 1.32,-1.673 8.3,0 0,-3.05 L 4,2.532 3.72,2.739 C 2.521,3.532 1.047,4.324 -0.44,4.205 L -0.88,4.16 -1.29,4.101 C -2.374,3.937 -3.918,3.33 -4.28,2.162 L -4.29,2.043 -4.31,1.91"
         id="path992"
         style="fill:#000080;fill-opacity:1;fill-rule:evenodd;stroke:none" /></g><g
       transform="matrix(1.7545388,0,0,1.8010967,-464.68507,-1198.6076)"
       id="g994"
       style="fill:#000080"><g
         transform="translate(317.579,691.663)"
         id="g996"
         style="fill:#000080"><path
           d="M 0,0 171.169,0"
           id="path998"
           style="fill:#000080;stroke:#231f20;stroke-width:0.33640045;stroke-linecap:butt;stroke-linejoin:miter;stroke-miterlimit:2.61299992;stroke-opacity:1;stroke-dasharray:none" /></g></g><path
       d="m 4.8486424,144.79411 428.0716876,0 0,-141.3814359 -428.0716876,0 0,141.3814359 z"
       id="path1000"
       style="fill:none;stroke:#231f20;stroke-width:0.49999997;stroke-linecap:butt;stroke-linejoin:miter;stroke-miterlimit:2.61299992;stroke-opacity:1;stroke-dasharray:none" /></g></svg>