<svg xmlns="http://www.w3.org/2000/svg" width="127" height="42" fill="none"><g clip-path="url(#a)"><path fill="#1B263F" d="M63.484 12.493c-2.077 0-3.593.68-4.582 2.075a1.62 1.62 0 0 0-1.617-1.621H53.43v10.727c0 3.03 2.45 5.487 5.472 5.487v-8.626c0-1.913.989-2.95 2.703-2.95 1.483 0 2.472.875 2.472 2.56v3.53c0 3.03 2.45 5.486 5.472 5.486v-9.696c0-4.508-2.505-6.972-6.065-6.972ZM79.667 29.615c2.472 0 4.549-.81 6.23-2.464 1.714-1.654 2.571-3.697 2.571-6.097 0-2.4-.857-4.41-2.571-6.064-1.681-1.654-3.758-2.497-6.23-2.497-2.44 0-4.516.843-6.23 2.497-1.715 1.654-2.572 3.664-2.572 6.064s.857 4.443 2.572 6.097c1.714 1.653 3.79 2.464 6.23 2.464Zm0-5.188c-1.88 0-3.297-1.395-3.297-3.373 0-1.978 1.418-3.373 3.297-3.373 1.945 0 3.33 1.395 3.33 3.373 0 1.978-1.385 3.373-3.33 3.373ZM102.157 14.439c-1.121-1.298-2.67-1.946-4.681-1.946-2.209 0-4.055.81-5.538 2.464-1.483 1.622-2.209 3.665-2.209 6.097 0 2.432.726 4.475 2.21 6.129 1.483 1.621 3.329 2.432 5.537 2.432 2.01 0 3.56-.648 4.681-1.946a1.49 1.49 0 0 0 1.488 1.492h3.984v-22.7c-3.022 0-5.472 2.457-5.472 5.487v2.49Zm-5.967 9.177c-.626-.649-.956-1.492-.956-2.562 0-1.07.33-1.913.956-2.562.627-.649 1.484-.973 2.506-.973 1.022 0 1.879.325 2.505.973.626.649.956 1.492.956 2.562 0 1.07-.33 1.913-.956 2.562-.626.648-1.483.973-2.505.973-1.022 0-1.88-.325-2.506-.973ZM121.526 14.439c-1.12-1.298-2.67-1.946-4.681-1.946-2.208 0-4.054.81-5.537 2.464-1.484 1.622-2.209 3.665-2.209 6.097 0 2.432.725 4.475 2.209 6.129 1.483 1.621 3.329 2.432 5.537 2.432 2.011 0 3.561-.648 4.681-1.946a1.49 1.49 0 0 0 1.488 1.492h3.984V12.947h-3.984a1.49 1.49 0 0 0-1.488 1.492Zm-5.966 9.177c-.626-.649-.956-1.492-.956-2.562 0-1.07.33-1.913.956-2.562.626-.649 1.483-.973 2.505-.973 1.022 0 1.879.325 2.505.973.627.649.956 1.492.956 2.562 0 1.07-.329 1.913-.956 2.562-.626.648-1.483.973-2.505.973-1.022 0-1.879-.325-2.505-.973Z"/><g filter="url(#b)"><path fill="url(#c)" d="M0 16.435C0 7.358 7.338 0 16.39 0h9.106c9.052 0 16.39 7.358 16.39 16.435v9.13c0 9.077-7.338 16.435-16.39 16.435H16.39C7.338 42 0 34.642 0 25.565v-9.13Z"/></g><path fill="#fff" d="M23.437 11.308c-2.456 0-4.25.803-5.419 2.447a1.91 1.91 0 0 0-1.906-1.912h-4.565v12.63c0 3.583 2.897 6.489 6.471 6.489V20.79c0-2.256 1.17-3.48 3.197-3.48 1.754 0 2.924 1.033 2.924 3.022v4.14c0 3.584 2.897 6.49 6.471 6.49V19.529c0-5.315-2.962-8.221-7.173-8.221Z"/></g><defs><linearGradient id="c" x1="20.999" x2="20.987" y1="0" y2="42" gradientUnits="userSpaceOnUse"><stop stop-color="#6936D3"/><stop offset="1" stop-color="#F16F6F"/></linearGradient><clipPath id="a"><path fill="#fff" d="M0 0h127v42H0z"/></clipPath><filter id="b" width="93.952" height="94.066" x="-26.033" y="-13.017" color-interpolation-filters="sRGB" filterUnits="userSpaceOnUse"><feFlood flood-opacity="0" result="BackgroundImageFix"/><feColorMatrix in="SourceAlpha" result="hardAlpha" values="0 0 0 0 0 0 0 0 0 0 0 0 0 0 0 0 0 0 127 0"/><feOffset dy="13.017"/><feGaussianBlur stdDeviation="13.017"/><feColorMatrix values="0 0 0 0 0.160784 0 0 0 0 0.188235 0 0 0 0 0.301961 0 0 0 0.05 0"/><feBlend in2="BackgroundImageFix" result="effect1_dropShadow_1050_3320"/><feBlend in="SourceGraphic" in2="effect1_dropShadow_1050_3320" result="shape"/></filter></defs></svg>