<svg xmlns="http://www.w3.org/2000/svg" width="52.057" height="68.039" xmlns:v="https://vecta.io/nano"><path d="M12.455 35.062a63.805 63.805 0 0 1-7.642-9.784 65.924 65.924 0 0 0 10.444-6.336 66.385 66.385 0 0 0 8.76 9.019 63.46 63.46 0 0 1-11.562 7.101zm-2.244 17.52c4.64-1.258 9.138-3.026 13.294-5.25a66.295 66.295 0 0 1-11.634-9.226 65.16 65.16 0 0 1-11.14 3.751c2.774 3.926 5.908 7.526 9.48 10.724zm15.817-6.676a63.77 63.77 0 0 0 11.687-8.942c-4.163-2.045-8.255-4.184-11.687-6.518-3.43 2.334-7.524 4.473-11.686 6.518a63.729 63.729 0 0 0 11.686 8.942zM20.2 62.787a66.24 66.24 0 0 1-10.572-7.413 66.411 66.411 0 0 1-6.359 1.249c.16.245.338.477.505.716 1.38 1.888 5.39 6.858 9.33 6.858 4.862 0 7.078-1.41 7.078-1.41zm4.187-55.84a66.087 66.087 0 0 1-3.585-4.97s-6.602 5.773-6.46 11.45l1.362 1.96a63.912 63.912 0 0 0 8.683-8.441zm1.64-1.538a82.24 82.24 0 0 0 2.425-3.285C28.646.35 26.028 0 26.028 0S23.4.35 23.603 2.125a82.936 82.936 0 0 0 2.425 3.284zM7.28 53.255C4.82 50.932 2.57 48.4.496 45.72c-.02-.007-.045-.007-.06-.027-.18-.232-.422-.054-.436.22.395 1.94 1.39 5.97 2.98 6.885 1.84 1.06 3.822.593 4.3.455zM3.715 38.418a61.803 61.803 0 0 0 6.295-2.251 66.28 66.28 0 0 1-6.771-8.685 1.056 1.056 0 0 1-.121-.152c-.4-.62-1.343-.372-1.39.475-.28 3.108-.748 11.16 1.988 10.613zM13.7 16.94a65.349 65.349 0 0 1-3.119-4.657.332.332 0 0 1-.084-.096c-.343-.554-.933-.35-1.13-.033-.995 1.984-3.042 6.507-2.494 9.177a63.844 63.844 0 0 0 6.826-4.391zm14.34 11.02a63.421 63.421 0 0 0 11.562 7.1 63.79 63.79 0 0 0 7.641-9.783 65.924 65.924 0 0 1-10.444-6.336 66.493 66.493 0 0 1-8.759 9.019zM51.325 41.86a65.323 65.323 0 0 1-11.139-3.751 66.302 66.302 0 0 1-11.635 9.226c4.156 2.223 8.653 3.99 13.294 5.25 3.572-3.2 6.706-6.8 9.48-10.724zM26.028 26.35a63.89 63.89 0 0 0 8.771-8.962 135.44 135.44 0 0 1-8.771-7.621v.001c-2.868 2.717-5.592 5.073-8.77 7.62a63.83 63.83 0 0 0 8.77 8.962zm5.827 36.435l.017-.001s2.216 1.412 7.08 1.412c3.94 0 7.95-4.97 9.33-6.858.167-.24.345-.47.504-.716a66.33 66.33 0 0 1-6.358-1.249 66.179 66.179 0 0 1-10.573 7.412zm-5.827.148a63.473 63.473 0 0 0 13.436-8.375c-4.722-1.414-9.383-2.972-13.436-4.883-4.052 1.91-8.713 3.47-13.436 4.883a63.473 63.473 0 0 0 13.436 8.375zm0 1.83v.001s-6.933 1.355-10.206 1.04a15.256 15.256 0 0 0 3.657 1.428l-.007.003c.043.01.087.018.13.028.394.098.72.166.927.212l.015-.007c1.772.365 3.604.57 5.484.57s3.712-.205 5.484-.57l.015.008.928-.212c.043-.01.087-.017.13-.028l-.008-.003a15.32 15.32 0 0 0 3.658-1.428c-3.273.315-10.207-1.04-10.207-1.04zM36.35 15.387c.473-.64.913-1.303 1.362-1.96.142-5.676-6.46-11.45-6.46-11.45a66.577 66.577 0 0 1-3.585 4.97 63.896 63.896 0 0 0 8.682 8.44zm15.27 30.307c-.015.02-.04.02-.06.027-2.074 2.678-4.325 5.21-6.784 7.534.477.137 2.458.604 4.3-.455 1.59-.915 2.585-4.946 2.98-6.885-.014-.276-.256-.453-.436-.22zm-3.28-7.276c2.736.546 2.27-7.505 1.99-10.613-.048-.847-.982-1.096-1.392-.475a.987.987 0 0 1-.121.151 66.138 66.138 0 0 1-6.771 8.686 61.803 61.803 0 0 0 6.295 2.251zm-5.653-26.265c-.197-.318-.787-.52-1.13.034a.347.347 0 0 1-.083.096 65.701 65.701 0 0 1-3.12 4.657 64.013 64.013 0 0 0 6.827 4.391c.547-2.67-1.5-7.193-2.494-9.178z" fill="#c42036" fill-rule="evenodd"/></svg>