<svg xmlns="http://www.w3.org/2000/svg" viewBox="0 0 261 70" fill-rule="evenodd" xmlns:v="https://vecta.io/nano"><path fill="#0a001e" d="M253.227 35.435c-1.442 0-2.422.518-2.422 1.552 0 3.513 10.15 1.552 10.123 8.414 0 3.73-3.238 5.744-7.456 5.744-3.13 0-6.26-1.198-8.41-3.022l1.714-3.512c1.96 1.742 4.735 2.86 6.75 2.86 1.77 0 2.83-.654 2.83-1.825 0-3.594-10.15-1.497-10.15-8.25 0-3.457 2.967-5.635 7.374-5.635 2.667 0 5.334.816 7.24 2.07l-1.66 3.566c-2.013-1.198-4.408-1.96-5.932-1.96zm-19.2.11c-3.374 0-5.986 2.586-5.986 5.935 0 3.377 2.64 5.964 6.013 5.964 1.143 0 2.504-.41 3.728-1.035v-5h3.73v7.324c-2.014 1.47-5.09 2.477-7.73 2.477-5.77 0-10.15-4.192-10.15-9.72 0-5.5 4.462-9.665 10.395-9.665 2.83 0 5.715 1.09 7.647 2.777l-2.422 3.077c-1.415-1.307-3.375-2.124-5.225-2.124zm-27.728 3.24V51.01h-4.108V31.95h3.918l9.252 12.25V31.95h4.082V51.01h-3.92l-9.225-12.225zm-13.986-6.833h4.3V51.01h-4.3V31.95zm-16.38 0h4.3v15.3h8.164v3.757h-12.463V31.95zm-9.36 19.058l-3.02-5.446h-4.38v5.446h-4.3V31.95h8.273c4.98 0 7.8 2.396 7.8 6.615 0 2.94-1.252 5.065-3.565 6.153l4.054 6.3h-4.87zm-3.43-15.492h-3.973v6.453h3.973c2.367 0 3.728-1.09 3.728-3.268 0-2.123-1.36-3.185-3.728-3.185zm-27.81-3.566h14.504v3.566h-10.205v4.14h9.198v3.566h-9.198v4.22h10.504v3.566h-14.803V31.95zM120.96 51.01h-7.92V31.95h8.083c5.905 0 10.014 3.893 10.014 9.528 0 5.61-4.164 9.53-10.178 9.53zm.082-15.437h-3.7v11.816h3.89c3.184 0 5.524-2.396 5.524-5.88 0-3.512-2.45-5.935-5.714-5.935zm-24.38-3.62h4.3v15.3h8.164v3.757H96.662V31.95zm-9.878 0h4.3V51.01h-4.3V31.95zM75.656 51.01h-9.06V31.95h8.762c4.19 0 6.804 1.823 6.804 4.764 0 2.07-1.252 3.676-3.293 4.193 2.45.463 3.973 2.314 3.973 4.82 0 3.268-2.748 5.282-7.185 5.282zm-.516-15.546h-4.245v4.165h4.245c1.605 0 2.612-.79 2.612-2.123 0-1.308-1.007-2.042-2.612-2.042zm0 7.487h-4.245v4.547h4.245c2.04 0 3.265-.844 3.265-2.315 0-1.388-1.224-2.232-3.265-2.232z"/><path fill="#c42036" d="M13.4 36.042a63.805 63.805 0 0 1-7.642-9.784 65.924 65.924 0 0 0 10.444-6.336 66.385 66.385 0 0 0 8.76 9.019A63.46 63.46 0 0 1 13.4 36.042zm-2.244 17.52c4.64-1.258 9.138-3.026 13.294-5.25a66.295 66.295 0 0 1-11.634-9.226 65.16 65.16 0 0 1-11.14 3.751c2.774 3.926 5.908 7.526 9.48 10.724zm15.817-6.676a63.77 63.77 0 0 0 11.687-8.942c-4.163-2.045-8.255-4.184-11.687-6.518-3.43 2.334-7.524 4.473-11.686 6.518a63.729 63.729 0 0 0 11.686 8.942zm-5.827 16.88a66.24 66.24 0 0 1-10.572-7.413 66.411 66.411 0 0 1-6.359 1.249c.16.245.338.477.505.716 1.38 1.888 5.39 6.858 9.33 6.858 4.862 0 7.078-1.41 7.078-1.41l.017.001zm4.187-55.84a66.087 66.087 0 0 1-3.585-4.97s-6.602 5.773-6.46 11.45l1.362 1.96a63.912 63.912 0 0 0 8.683-8.441zm1.64-1.538a82.24 82.24 0 0 0 2.425-3.285C29.59 1.33 26.973.98 26.973.98s-2.618.35-2.425 2.125a82.936 82.936 0 0 0 2.425 3.284zM8.225 54.235c-2.46-2.323-4.71-4.856-6.784-7.534-.02-.007-.045-.007-.06-.027-.18-.232-.422-.054-.436.22.395 1.94 1.39 5.97 2.98 6.885 1.84 1.06 3.822.593 4.3.455zM4.66 39.398a61.803 61.803 0 0 0 6.295-2.251 66.28 66.28 0 0 1-6.771-8.685 1.056 1.056 0 0 1-.121-.152c-.4-.62-1.343-.372-1.39.475-.28 3.108-.748 11.16 1.988 10.613zm9.986-21.478a65.349 65.349 0 0 1-3.119-4.657.332.332 0 0 1-.084-.096c-.343-.554-.933-.35-1.13-.033-.995 1.984-3.042 6.507-2.494 9.177a63.844 63.844 0 0 0 6.826-4.391zm14.34 11.02a63.421 63.421 0 0 0 11.562 7.1 63.79 63.79 0 0 0 7.641-9.783 65.924 65.924 0 0 1-10.444-6.336 66.493 66.493 0 0 1-8.759 9.019zM52.27 42.84a65.323 65.323 0 0 1-11.139-3.751 66.302 66.302 0 0 1-11.635 9.226c4.156 2.223 8.653 3.99 13.294 5.25 3.572-3.2 6.706-6.8 9.48-10.724zM26.973 27.33a63.89 63.89 0 0 0 8.771-8.962 135.44 135.44 0 0 1-8.771-7.621v.001c-2.868 2.717-5.592 5.073-8.77 7.62a63.83 63.83 0 0 0 8.77 8.962zM32.8 63.766l.017-.001s2.216 1.412 7.08 1.412c3.94 0 7.95-4.97 9.33-6.858.167-.24.345-.47.504-.716a66.33 66.33 0 0 1-6.358-1.249A66.179 66.179 0 0 1 32.8 63.766zm-5.827.148a63.473 63.473 0 0 0 13.436-8.375c-4.722-1.414-9.383-2.972-13.436-4.883-4.052 1.91-8.713 3.47-13.436 4.883a63.473 63.473 0 0 0 13.436 8.375zm0 1.83v.001s-6.933 1.355-10.206 1.04a15.256 15.256 0 0 0 3.657 1.428l-.007.003c.043.01.087.018.13.028.394.098.72.166.927.212l.015-.007c1.772.365 3.604.57 5.484.57s3.712-.205 5.484-.57l.015.008.928-.212c.043-.01.087-.017.13-.028l-.008-.003a15.32 15.32 0 0 0 3.658-1.428c-3.273.315-10.207-1.04-10.207-1.04zm10.323-49.378c.473-.64.913-1.303 1.362-1.96.142-5.676-6.46-11.45-6.46-11.45a66.577 66.577 0 0 1-3.585 4.97 63.896 63.896 0 0 0 8.682 8.44zm15.27 30.307c-.015.02-.04.02-.06.027-2.074 2.678-4.325 5.21-6.784 7.534.477.137 2.458.604 4.3-.455 1.59-.915 2.585-4.946 2.98-6.885-.014-.276-.256-.453-.436-.22zm-3.28-7.276c2.736.546 2.27-7.505 1.99-10.613-.048-.847-.982-1.096-1.392-.475a.987.987 0 0 1-.121.151 66.138 66.138 0 0 1-6.771 8.686 61.803 61.803 0 0 0 6.295 2.251zm-5.653-26.265c-.197-.318-.787-.52-1.13.034a.347.347 0 0 1-.083.096 65.701 65.701 0 0 1-3.12 4.657 64.013 64.013 0 0 0 6.827 4.391c.547-2.67-1.5-7.193-2.494-9.178z"/></svg>