<svg width="281" height="58" viewBox="0 0 281 58" fill="none" xmlns="http://www.w3.org/2000/svg">
<g clip-path="url(#clip0_2361_1719)">
<path fill-rule="evenodd" clip-rule="evenodd" d="M94.3223 47.4875C95.2648 49.735 97.5123 51.4025 100.195 51.4025H162.545C166.025 51.4025 168.925 48.575 168.925 45.095V17.9075C168.925 15.66 167.765 13.7025 165.952 12.5425C166.315 13.2675 166.46 14.1375 166.46 15.0075V42.195C166.46 45.675 163.632 48.5025 160.152 48.5025H97.7298C96.4248 48.5025 95.2648 48.14 94.3223 47.4875Z" fill="#B2B3B3"/>
<path fill-rule="evenodd" clip-rule="evenodd" d="M158.775 7.17749H96.4249C92.9449 7.17749 90.0449 10.005 90.0449 13.5575V40.745C90.0449 44.225 92.8724 47.0525 96.4249 47.0525H158.775C162.255 47.0525 165.082 44.225 165.082 40.745V13.5575C165.082 10.0775 162.255 7.17749 158.775 7.17749ZM143.622 15.66V27.4775C143.622 31.9725 145.87 34.5825 150.002 35.7425V44.1525H153.627V35.67C157.76 34.5825 160.007 31.9725 160.007 27.405V15.66H156.382V27.4775C156.382 30.16 154.86 32.335 151.815 32.335C148.77 32.335 147.175 30.2325 147.175 27.4775V15.66H143.622ZM139.925 35.235V24.5775C139.925 18.9225 136.082 15.225 129.992 15.225C123.685 15.225 119.842 19.6475 119.842 25.3025C119.842 31.1025 123.83 35.7425 129.485 35.7425C131.95 35.7425 133.4 34.945 134.777 33.8575V29.58C133.545 31.1025 131.877 32.2625 129.847 32.2625C126.077 32.2625 123.395 29.2175 123.395 25.52C123.395 21.8225 125.86 18.6325 129.847 18.6325C133.11 18.6325 136.227 20.5175 136.227 24.215V35.235H139.925ZM101.21 44.1525V35.525C105.487 35.525 110.345 36.0325 113.752 34.0025C116 32.625 117.74 29.87 117.74 25.955C117.74 20.155 113.97 15.225 107.59 15.225C101.79 15.225 97.6574 19.575 97.6574 26.0275V32.19H94.8299V30.2325L90.9149 34.0025L94.8299 37.4825V35.525H97.6574V44.08H101.21V44.1525ZM101.21 32.19V26.68C101.21 21.2425 104.11 18.6325 107.517 18.6325C111.36 18.6325 114.042 21.46 114.042 25.52C114.115 33.5675 106.647 32.19 101.21 32.19Z" fill="#65B337"/>
<path d="M1.52246 6.59741V24.8674C1.52246 31.3924 5.65496 35.6699 11.455 35.6699C17.835 35.6699 21.605 30.7399 21.605 24.9399C21.605 19.4299 17.1825 15.2249 12.1075 15.2249C10.15 15.2249 8.26496 15.6599 6.52496 16.6024V20.3724C7.82996 19.4299 9.85996 18.6324 11.455 18.6324C15.37 18.6324 17.98 21.3149 17.98 25.3749C17.98 29.3624 15.225 32.1899 11.3825 32.1899C7.97496 32.2624 5.07496 29.6524 5.07496 24.2149V6.59741H1.52246Z" fill="#FAEA10"/>
<path d="M43.5725 21.4599C41.76 17.6174 38.6425 15.2249 34.075 15.2249C28.6375 15.2249 23.8525 19.4299 23.8525 25.4474C23.8525 31.5374 28.6375 35.6699 34.075 35.6699C39.73 35.6699 43.935 31.7549 44.2975 26.5349L40.6725 26.0999C39.9475 29.7249 38.3525 32.2624 34.075 32.2624C30.3775 32.2624 27.6225 29.5074 27.6225 25.4474C27.6225 21.3874 30.3775 18.6324 34.075 18.6324C36.3225 18.6324 37.3375 19.2849 38.57 20.5174L28.855 25.9549L30.305 28.7824C30.305 28.7824 43.5725 21.4599 43.5725 21.4599Z" fill="#FAEA10"/>
<path d="M46.6177 25.4474C46.6177 31.5374 51.3302 35.6699 56.8402 35.6699C62.2777 35.6699 66.9902 31.5374 66.9902 25.4474C66.9902 19.4299 62.2777 15.2249 56.8402 15.2249C51.3302 15.2249 46.6177 19.4299 46.6177 25.4474ZM50.3877 25.4474C50.3877 21.4599 53.0702 18.6324 56.8402 18.6324C60.5377 18.6324 63.2927 21.3874 63.2927 25.4474C63.2927 29.5074 60.5377 32.2624 56.8402 32.2624C53.0702 32.2624 50.3877 29.5074 50.3877 25.4474Z" fill="#FAEA10"/>
<path d="M73.6602 35.2348V23.7798C73.6602 20.7348 75.8352 18.6323 78.4452 18.6323C81.0552 18.6323 83.2302 20.7348 83.2302 23.7798V35.2348H86.8552V23.7798C86.8552 18.6323 83.2302 15.1523 78.4452 15.1523C73.6602 15.1523 70.0352 18.5598 70.0352 23.7798V35.2348H73.6602V35.2348Z" fill="#FAEA10"/>
<path d="M175.096 39.9121V26.28C175.096 22.056 177.336 20.008 180.024 20.008C183.032 20.008 185.144 22.216 185.144 25.352C185.144 28.52 183.128 30.632 180.088 30.632C178.808 30.632 177.24 29.992 176.216 29.288V32.232C177.56 33 179.032 33.32 180.568 33.32C184.504 33.32 187.96 29.992 187.96 25.704C187.96 21.16 185.016 17.32 180.024 17.32C175.512 17.32 172.28 20.712 172.28 25.768V39.9121H175.096Z" fill="#B2B3B3"/>
<path d="M205.293 33V24.616C205.293 20.2 202.285 17.32 197.549 17.32C192.621 17.32 189.613 20.776 189.613 25.16C189.613 29.672 192.749 33.32 197.165 33.32C199.117 33.32 200.205 32.68 201.325 31.848V28.5201C200.365 29.736 199.053 30.632 197.453 30.632C194.509 30.632 192.429 28.232 192.429 25.384C192.429 22.472 194.381 20.008 197.485 20.008C200.045 20.008 202.477 21.48 202.477 24.36V33H205.293Z" fill="#B2B3B3"/>
<path d="M208.162 17.64V26.888C208.162 30.408 209.89 32.456 213.154 33.32V39.9121H215.97V33.32C219.234 32.456 220.962 30.408 220.962 26.888V17.64H218.146V26.856C218.146 28.968 216.93 30.632 214.562 30.632C212.194 30.632 210.978 28.968 210.978 26.856V17.64H208.162Z" fill="#B2B3B3"/>
<path d="M223.49 25.32C223.49 30.056 227.202 33.32 231.458 33.32C235.714 33.32 239.426 30.056 239.426 25.32C239.426 20.584 235.714 17.32 231.458 17.32C227.202 17.32 223.49 20.584 223.49 25.32ZM226.434 25.32C226.434 22.184 228.546 20.008 231.458 20.008C234.37 20.008 236.482 22.184 236.482 25.32C236.482 28.456 234.37 30.632 231.458 30.632C228.546 30.632 226.434 28.456 226.434 25.32Z" fill="#B2B3B3"/>
<path d="M252.088 17.64V26.6C252.088 28.9681 250.36 30.632 248.344 30.632C246.328 30.632 244.6 28.9681 244.6 26.6V17.64H241.784V26.6C241.784 30.6321 244.6 33.32 248.344 33.32C252.088 33.32 254.904 30.6321 254.904 26.6V17.64H252.088Z" fill="#B2B3B3"/>
<path d="M266.552 17.64H261.048V13.8H258.232V28.0401C258.232 31.0801 259.896 33 262.776 33H266.552V30.312H263.16C261.72 30.312 261.048 29.832 261.048 28.392V20.328H266.552V17.64Z" fill="#B2B3B3"/>
<path d="M267.896 33H275.768C278.488 33 280.536 31.624 280.536 28.712C280.536 23.208 270.808 24.328 270.84 21.672C270.872 20.712 271.288 20.328 272.664 20.328H279.768V17.64H273.144C269.784 17.64 267.896 19.08 267.896 21.8C267.896 27.112 277.592 26.024 277.592 28.84C277.592 29.8001 277.08 30.312 275.768 30.312H267.896V33Z" fill="#B2B3B3"/>
</g>
<defs>
<clipPath id="clip0_2361_1719">
<rect width="280.536" height="58" fill="white"/>
</clipPath>
</defs>
</svg>
