<svg xmlns="http://www.w3.org/2000/svg" width="347" height="122" viewBox="0 0 346.191 121.626" fill="#2a3d71" fill-rule="evenodd"><path d="M346.2 28.785h-18L316.297 78.77l-3.017.73c-1.828.365-3.748.548-5.76.548-2.285 0-4.114-.365-5.484-1.005-1.28-.64-2.286-1.553-2.834-2.833-.55-1.188-.732-2.65-.64-4.294s.457-3.473.914-5.3l5.485-22.844 3.565-15.168H290.15l-8.318 35.1c-1.006 4.204-1.554 8.225-1.737 12.063s.458 7.127 1.737 10.143c1.28 2.924 3.566 5.208 6.674 6.945s7.587 2.56 13.255 2.56c3.93 0 7.405-.366 10.33-1.005.1 0 .274-.1.365-.1-.823 3.654-2.47 6.58-5.028 8.864-2.65 2.284-6.5 3.472-11.6 3.472-2.194 0-4.205-.1-6.033-.365l-3.566 14.895a69.24 69.24 0 0 0 7.953.457c5.485 0 10.24-.64 14.353-1.828 4.114-1.28 7.588-3.107 10.604-5.666 2.925-2.56 5.393-5.757 7.404-9.504 2.012-3.838 3.566-8.315 4.754-13.616L343.73 38.75l2.47-9.96m-75.428 37.55c-1.098 4.57-1.463 9.23-1.006 13.798.457 4.66 2.285 11.697 4.022 15.26h-17.37c-2.102-3.564-2-5.3-2.47-6.397-2.285 1.828-4.753 3.382-7.495 4.57s-5.76 1.828-9.234 1.828c-4.022 0-7.495-.73-10.33-2.102s-5.2-3.3-7.04-5.666-3.1-5.117-3.93-8.316-1.2-6.58-1.2-10.234c0-5.574 1.006-10.783 2.926-15.717 2-4.934 4.753-9.23 8.227-12.884s11.975-11.788 25.87-11.788h27.882zm-12.707-22.388c-8.4 0-9.964 0-13.438 1.736-2.47 1.28-4.48 3.198-6.216 5.392a25.92 25.92 0 0 0-4.206 7.675c-1.006 2.925-1.553 5.94-1.553 9.047 0 3.837.64 6.945 1.92 9.23s3.656 3.382 7.13 3.382c1.828 0 3.566-.366 5.028-1.097s3.108-1.92 4.754-3.654a85.05 85.05 0 0 1 .823-6.306c.365-2.193.823-4.294 1.188-6.122zm-48.268 11.24c0 5.94-1.006 11.33-2.925 16.265s-4.66 9.14-8.136 12.702-7.588 6.306-12.433 8.316-10.055 3.015-15.723 3.015c-2.742 0-5.484-.274-8.318-.73l-5.485 22.023h-18l20.934-87.907h24.043c4.57 0 8.5.73 11.7 2.102 3.3 1.37 5.942 3.3 8.136 5.666 2.102 2.375 3.657 5.208 4.662 8.406 1.097 3.108 1.554 6.488 1.554 10.144zM165.645 80.14c1.37.366 3.108.457 5.12.457 3.2 0 6.033-.55 8.684-1.736 2.56-1.188 4.845-2.833 6.674-4.934s3.2-4.66 4.297-7.585c1.006-2.924 1.554-6.213 1.554-9.778 0-3.472-.73-6.487-2.285-8.864-1.554-2.467-4.205-3.747-8.044-3.747h-7.13zm-37.847 0c-2.286 0-4.114-.365-5.485-1.005-1.28-.64-2.285-1.553-2.834-2.833-.548-1.188-.73-2.65-.64-4.294s.457-3.473.914-5.3l5.484-22.845h20.477l3.748-15.168h-20.57l4.754-19.2-19.198 3.015L102.3 63.865a65.01 65.01 0 0 0-1.737 12.062c-.183 3.838.458 7.127 1.737 10.143 1.28 2.924 3.565 5.2 6.674 6.945s7.587 2.56 13.255 2.56c3.93 0 7.405-.365 10.33-1.005.274-.1.732-.183 1.006-.274l3.748-15.626c-1.28.456-2.56.73-3.748.914-1.828.365-3.748.548-5.76.548M82 28.785L66.093 95.5H84.1l15.815-66.706H82m19.836-7.674l2.743-11.605H86.57L83.827 21.1h18M42.14 28.876c3.84 0 7.222.73 10.056 2.102s5.12 3.198 7.04 5.574c1.828 2.375 3.2 5.117 4.114 8.224s1.372 6.488 1.372 10.144c0 5.573-1.007 10.782-3.1 15.808-2.102 4.934-4.845 9.32-8.4 12.976s-7.77 6.58-12.615 8.68-10.055 3.198-15.723 3.198c-.732 0-2 0-3.84-.1-1.828 0-3.93-.183-6.216-.55-2.377-.365-4.845-.822-7.405-1.462a37.39 37.39 0 0 1-7.404-2.65L20.934 2.925 39.674 0 32.27 31.16c1.646-.73 3.1-1.28 4.754-1.644 1.554-.457 3.292-.64 5.12-.64zm-15.723 51.72c2.834 0 5.485-.64 7.954-2.102 2.468-1.37 4.66-3.2 6.5-5.483s3.292-4.934 4.297-7.767c1.006-2.924 1.554-5.94 1.554-9.046 0-3.838-.64-6.853-1.92-9.046s-3.93-3.2-7.404-3.2c-1.097 0-2.286.1-4.114.55-1.827.365-3.382 1.28-4.844 2.56l-7.863 33.17c2.377.366 3.1.457 3.748.457.458-.1 1.2-.1 2.102-.1z"/></svg>