<?xml version="1.0" encoding="UTF-8"?>
<svg version="1.1" viewBox="0 0 144.09 52.36" xmlns="http://www.w3.org/2000/svg" xmlns:cc="http://creativecommons.org/ns#" xmlns:dc="http://purl.org/dc/elements/1.1/" xmlns:rdf="http://www.w3.org/1999/02/22-rdf-syntax-ns#">
<metadata>
<rdf:RDF>
<cc:Work rdf:about="">
<dc:format>image/svg+xml</dc:format>
<dc:type rdf:resource="http://purl.org/dc/dcmitype/StillImage"/>
<dc:title/>
</cc:Work>
</rdf:RDF>
</metadata>
<g transform="translate(0 -1e3)">
<g transform="matrix(1.25 0 0 -1.25 141.66 1028)">
<path d="M 0,0 -16.332,-16.336 -32.665,0 -16.332,16.33 0,0 z" fill="#ef3e42"/>
</g>
<g transform="matrix(1.25 0 0 -1.25 2.2578 1050.4)">
<path d="m0 0 3.604 25.287c0.805 5.58 6.694 10.448 13.01 10.448 6.409 0 9.45-4.454 8.833-8.728l-0.523-3.681c-0.428-3.086-2.708-6.055-6.743-8.25l4.131-7.004c0.475-0.771 0.666-1.957 0.475-3.208-0.427-2.669-2.422-4.864-4.606-4.864-1.186 0-2.137 0.65-2.705 1.66l-6.08 10.51-1.044-7.362c-0.381-2.672-2.376-4.808-4.513-4.808h-3.839zm14.43 30.51c-1.379 0-2.66-1.366-2.896-3.087l-1.041-7.622c-0.236-1.722 0.666-3.089 2.043-3.089 1.376 0 2.658 1.367 2.896 3.089l1.04 7.622c0.238 1.721-0.667 3.087-2.042 3.087" fill="#0067b1"/>
</g>
<g transform="matrix(1.25 0 0 -1.25 39.099 1012.7)">
<path d="m0 0c0.427 3.087 2.848 5.638 5.318 5.638 2.469 0 4.131-2.551 3.703-5.638l-1.755-12.763h4.892l1.803 12.763c0.427 3.087 2.85 5.638 5.32 5.638 2.469 0 4.131-2.551 3.703-5.638l-3.419-24.516c-0.428-3.086-2.849-5.64-5.32-5.64-2.468 0-4.13 2.554-3.703 5.64l1.093 7.954h-4.938l-1.093-7.954c-0.429-3.086-2.85-5.64-5.318-5.64h-4.466l4.18 30.156z" fill="#0067b1"/>
</g>
<g transform="matrix(1.25 0 0 -1.25 99.156 1018.5)">
<path d="m0 0c-0.381-2.375-1.664-4.689-3.944-6.826 1.568-1.663 2.232-3.858 1.9-5.996l-0.332-2.196c-0.854-5.64-6.697-10.506-12.964-10.506h-9.926l3.656 25.344c0.81 5.581 6.698 10.448 13.012 10.448 6.41 0 9.498-4.451 8.832-8.726l-0.234-1.542zm-12.206-8.014c-1.568 0-3.039-1.602-3.325-3.562l-0.712-5.105c-0.284-1.958 0.76-3.56 2.327-3.56s3.088 1.602 3.372 3.56l0.713 5.105c0.286 1.96-0.81 3.562-2.375 3.562m1.9 13c-1.567 0-2.993-1.603-3.325-3.562l-0.569-3.502c-0.335-1.959 0.76-3.561 2.327-3.561s3.039 1.602 3.373 3.561l0.568 3.502c0.333 1.959-0.808 3.562-2.374 3.562" fill="#0067b1"/>
</g>
</g>
</svg>
