<svg xmlns="http://www.w3.org/2000/svg" width="136.792" height="136.792" style="background-color:#40c1acff" fill-rule="evenodd" xmlns:v="https://vecta.io/nano"><path d="M20.696 66.062c0-3.672-1.929-4.979-4.917-4.979-2.863 0-4.73 1.556-5.851 2.925v19.42H.343V53.365h9.585v2.642l-1.179 2.199c1.805-2.117 6.532-5.588 11.573-5.588 6.847 0 9.959 3.984 9.959 9.523v21.287h-9.585zm32.828 12.925c-1.867 2.116-6.313 5.188-11.354 5.188-6.847 0-9.897-3.859-9.897-9.398V53.365h9.585v17.49c0 3.611 1.868 4.855 4.979 4.855 2.739 0 4.606-1.494 5.727-2.925v-19.42h9.585v30.063h-9.585v-2.244zm49.864-13.796h12.386c-.249-2.117-1.804-5.166-6.224-5.166-4.17 0-5.788 2.987-6.162 5.166m6.162-12.573c8.901 0 15.374 6.535 15.374 16.743v2.054h-20.701l-.827-1.1c.005.366.054.887.169 1.336.69 2.698 3.248 5.117 7.603 5.117 2.677 0 5.664-1.058 7.345-2.552l4.046 5.975c-2.988 2.676-7.967 3.983-12.573 3.983-9.274 0-16.432-6.037-16.432-15.809 0-8.714 6.598-15.747 15.996-15.747m26.9 30.81V53.365h-9.585v30.063zm-52.267 0l11.826-30.063H85.863l-6.475 17.903.237 2.791-7.393-20.694h-8.171v4.86l9.914 25.203z" fill="#fff"/><path d="M125.649 43.303c0-3.05 2.427-5.478 5.477-5.478s5.478 2.428 5.478 5.478-2.428 5.477-5.478 5.477-5.477-2.427-5.477-5.477" fill="#fffffc"/></svg>