<?xml version="1.0" encoding="UTF-8"?>
<svg width="40.75" height="20.658" version="1.1" viewBox="0 0 40.750256 20.658396" xmlns="http://www.w3.org/2000/svg" xmlns:cc="http://creativecommons.org/ns#" xmlns:dc="http://purl.org/dc/elements/1.1/" xmlns:rdf="http://www.w3.org/1999/02/22-rdf-syntax-ns#">
<metadata>
<rdf:RDF>
<cc:Work rdf:about="">
<dc:format>image/svg+xml</dc:format>
<dc:type rdf:resource="http://purl.org/dc/dcmitype/StillImage"/>
<dc:title>logo-turquoise-pantone</dc:title>
</cc:Work>
</rdf:RDF>
</metadata>
<title>logo-turquoise-pantone</title>
<desc>Created with Sketch.</desc>
<path d="m30.607 20.658h6.4105l0.79776-3.9947h-5.2423c-4.2451 0-6.6384-0.97005-5.8122-6.4202 0.71233-4.6794 2.6782-6.049 7.3507-6.049h3.3621c1.9943 0 3.2765-1.2554 3.2765-2.7393 0-0.4849-0.11407-0.97005-0.37061-1.4552 0 0-0.48443 0.1998-1.8234 0.1998h-4.473c-7.2653 0-11.055 2.9675-12.109 9.7584-1.0827 6.9338 2.4217 10.7 8.6329 10.7" fill="#00c7b1" fill-rule="evenodd"/>
<path d="m0 20.658h10.285c4.7579 0 7.8919-2.0546 8.0914-6.4202 0.14247-3.3097-1.396-5.8492-5.4418-5.8492h-3.8747c-1.5385 0-2.1367-0.71338-2.08-1.7977 0.085681-1.5123 1.0543-2.3968 3.1626-2.3968h6.8379c2.0513 0 3.3335-1.2841 3.3335-2.882 0-0.42803-0.08543-0.88449-0.28493-1.3125 0 0-0.56986 0.1998-1.9659 0.1998h-7.9206c-4.5871 0-7.7497 2.197-7.9492 6.3628-0.1995 3.9091 2.2224 5.7068 5.5559 5.7068h3.5044c1.5955 0 2.3649 0.5707 2.2792 1.8832-0.11382 1.7692-1.2535 2.5111-3.2478 2.5111h-9.4877z" fill="#00c7b1" fill-rule="evenodd"/>
</svg>
