<svg xmlns="http://www.w3.org/2000/svg" viewBox="0 0 208.86 117.66"><defs><style>.a{fill:#e01e1c;}.b{fill:#fff;}.c{fill:#f8d346;}</style></defs><title>China Bank Savings logo - Brandlogos.net</title><path class="a" d="M438.43,479.6c8.17-3,17-2.39,25.56-2.36.08,6.23,0,12.45,0,18.68-5.42.08-11-.56-16.26,1.21-11.19,3.31-19.37,14.88-18.54,26.55A26.71,26.71,0,0,0,446,546.87c6.6,3,13.95,1.47,20.93,2,3.9,7.82,10.49,13.83,17.68,18.59-12-.29-23.94.17-35.89-.33a44.56,44.56,0,0,1-30.22-15.51,45,45,0,0,1,20-72Z" transform="translate(-407.57 -453.17)"/><path class="a" d="M545.4,499.34c1.66-12.56,14.07-21.45,26.21-22.1,11.47-.1,22.94,0,34.4,0,0,6.28,0,12.55,0,18.83-10.36.09-20.74-.14-31.1.1-6,.22-9.9,7.45-7.07,12.63a10.09,10.09,0,0,0,5.93,4.73c8.52.79,17.47-1.4,25.61,2a27,27,0,0,1,16.89,27.79c-1,13.07-12.92,24.16-26,24.16-15,0-29.91,0-44.87,0a46.31,46.31,0,0,0,17.9-18.25c7.31,0,14.61-.3,21.91-.42a8,8,0,0,0,7.22-5.22c2.73-5.16-1.35-12.13-7.11-12.55-6.2-.53-12.46.11-18.68-.4C565.85,517.18,556.22,506.25,545.4,499.34Z" transform="translate(-407.57 -453.17)"/><path class="b" d="M494.29,515.5c8.24.05,16.5-.29,24.73.17,9.22.94,18.74,9.36,16.55,19.29-2.71,10.9-15.85,15.8-26,13.29-7.14-1.47-14.19-6.88-15.1-14.5C494,527.69,494.35,521.58,494.29,515.5Z" transform="translate(-407.57 -453.17)"/><path class="c" d="M468.76,453.17c8.49,0,17,0,25.48,0,0,14.24,0,28.48,0,42.72,12.42.42,25.24-1.43,37.28,2.49,11.2,3.25,21.57,10.67,26.75,21.3,5.34,10.41,3.66,23.62-3.33,32.85-14.45,18.81-42.73,23-63.5,13-9.54-4.33-17.69-12.3-21.11-22.34-1.87-4.9-1.59-10.23-1.59-15.38Q468.77,490.5,468.76,453.17Zm25.53,62.33c.06,6.08-.31,12.18.18,18.24.91,7.62,8,13,15.1,14.5,10.15,2.51,23.3-2.39,26-13.29,2.19-9.93-7.32-18.34-16.55-19.29C510.79,515.21,502.53,515.56,494.29,515.5Z" transform="translate(-407.57 -453.17)"/></svg>