<?xml version="1.0" encoding="UTF-8"?>
<svg width="45.321" height="61.707" enable-background="new 0 0 319 82" version="1.0" viewBox="0 0 45.320679 61.707" xml:space="preserve" xmlns="http://www.w3.org/2000/svg" xmlns:cc="http://creativecommons.org/ns#" xmlns:dc="http://purl.org/dc/elements/1.1/" xmlns:rdf="http://www.w3.org/1999/02/22-rdf-syntax-ns#"><metadata><rdf:RDF><cc:Work rdf:about=""><dc:format>image/svg+xml</dc:format><dc:type rdf:resource="http://purl.org/dc/dcmitype/StillImage"/><dc:title/></cc:Work></rdf:RDF></metadata>
<path d="m44.775 32.331c-0.558-2.11-1.365-3.672-2.667-6.058-0.425-0.677-0.974-1.433-1.464-2.235-5.661-8.394-16.83-23.043-17.852-23.984 0 0-0.07-0.054-0.127-0.054-0.064 0-0.135 0.054-0.135 0.054-1.016 0.94-12.188 15.59-17.851 23.984-0.489 0.803-1.038 1.559-1.467 2.235-1.3 2.386-2.104 3.948-2.665 6.058-0.694 3.047-0.729 6.836-0.098 9.951 0.57 2.734 3.168 5.527 5.781 7.613l3.999 3.176s11.177 8.059 12.215 8.568c0 0 0.103 0.068 0.22 0.068 0.114 0 0.213-0.068 0.213-0.068 1.042-0.51 12.212-8.568 12.212-8.568l3.999-3.176c2.616-2.086 5.211-4.879 5.78-7.613 0.632-3.115 0.603-6.904-0.093-9.951m-25.614 21.02c-0.079 0.12-0.26 0.082-0.39 0.07-0.653-0.459-2.272-1.631-2.272-1.631-2.783-2.063-5.59-3.967-8.258-6.088-4.094-4.506-3.679-9.002-2.424-13.52 0.045-0.291 0.18-0.732 0.565-0.811 1.154 1.703 3.602 5.211 3.602 5.211 2.382 3.424 5.275 6.51 8.01 9.725 1.878 1.725 1.119 4.622 1.167 7.044m3.507-8.934c-0.056-2e-3 -0.146-0.04-0.231-0.128-3.543-4.196-7.562-8.94-11.088-13.153-0.638-1.068-1.288-2.094-1.361-3.47-0.042-1.074-0.109-2.063 0.78-3.409 0 0 0.587-0.853 0.755-1.104 0 0 7.224-10.159 11.028-14.973 0 0 0.05-0.066 0.114-0.066 0.054 0 0.102 0.066 0.102 0.066 3.804 4.813 11.026 14.973 11.026 14.973 0.171 0.251 0.759 1.104 0.759 1.104 0.886 1.347 0.819 2.335 0.772 3.409-0.07 1.376-0.723 2.401-1.357 3.47-3.528 4.213-7.545 8.957-11.085 13.153-0.085 0.088-0.17 0.126-0.214 0.128m14.391 1.285c-2.668 2.121-5.479 4.024-8.263 6.088 0 0-1.616 1.172-2.271 1.631-0.13 0.012-0.311 0.05-0.387-0.07 0.049-2.422-0.712-5.318 1.168-7.043 2.735-3.215 5.626-6.301 8.007-9.725 0 0 2.448-3.508 3.603-5.211 0.379 0.078 0.517 0.52 0.563 0.811 1.261 4.517 1.672 9.014-2.42 13.519" fill="#1f4396"/>
</svg>
