<svg width="114" height="29" viewBox="0 0 114 29" fill="none" xmlns="http://www.w3.org/2000/svg">
<path d="M0.820312 22V19.4365L3.09082 18.9971V3.68945L0.820312 3.25V0.671875H3.09082H10.9717C12.6025 0.671875 14.0088 0.959961 15.1904 1.53613C16.3721 2.10254 17.2803 2.89844 17.915 3.92383C18.5498 4.93945 18.8672 6.12598 18.8672 7.4834C18.8672 8.84082 18.5498 10.0322 17.915 11.0576C17.2803 12.0732 16.3721 12.8643 15.1904 13.4307C14.0088 13.9873 12.6025 14.2656 10.9717 14.2656H7.36816V18.9971L9.65332 19.4365V22H0.820312ZM7.36816 10.9697H10.9717C12.1631 10.9697 13.0615 10.6475 13.667 10.0029C14.2822 9.34863 14.5898 8.51855 14.5898 7.5127C14.5898 6.4873 14.2822 5.64258 13.667 4.97852C13.0615 4.30469 12.1631 3.96777 10.9717 3.96777H7.36816V10.9697ZM25.4736 22.3076C23.9014 22.3076 22.6514 21.8877 21.7236 21.0479C20.7959 20.1982 20.332 19.0459 20.332 17.5908C20.332 16.5947 20.6006 15.7207 21.1377 14.9688C21.6846 14.2168 22.4854 13.626 23.54 13.1963C24.6045 12.7666 25.9131 12.5518 27.4658 12.5518H29.5605V11.3799C29.5605 10.6182 29.3359 10.0029 28.8867 9.53418C28.4473 9.05566 27.7832 8.81641 26.8945 8.81641C26.4355 8.81641 26.0254 8.875 25.6641 8.99219C25.3027 9.09961 24.9707 9.25586 24.668 9.46094L24.3311 11.5557H21.2549L21.1963 7.43945C22.0264 6.9707 22.9248 6.58984 23.8916 6.29688C24.8584 6.00391 25.9375 5.85742 27.1289 5.85742C29.1992 5.85742 30.835 6.34082 32.0361 7.30762C33.2373 8.26465 33.8379 9.63672 33.8379 11.4238V17.957C33.8379 18.1719 33.8379 18.3867 33.8379 18.6016C33.8477 18.8066 33.8672 19.0068 33.8965 19.2021L35.5518 19.4365V22H30.249C30.1416 21.7266 30.0342 21.4336 29.9268 21.1211C29.8193 20.8086 29.7412 20.4961 29.6924 20.1836C29.1846 20.8281 28.584 21.3457 27.8906 21.7363C27.207 22.1172 26.4014 22.3076 25.4736 22.3076ZM26.6162 19.1436C27.2119 19.1436 27.7783 19.0117 28.3154 18.748C28.8525 18.4746 29.2676 18.1182 29.5605 17.6787V15.1738H27.4512C26.5137 15.1738 25.8008 15.3887 25.3125 15.8184C24.834 16.248 24.5947 16.7656 24.5947 17.3711C24.5947 17.9375 24.7705 18.377 25.1221 18.6895C25.4834 18.9922 25.9814 19.1436 26.6162 19.1436ZM40.7959 28.4014C40.4248 28.4014 40.0293 28.3672 39.6094 28.2988C39.1992 28.2402 38.8086 28.1572 38.4375 28.0498L38.9209 24.915C39.1064 24.9541 39.3115 24.9834 39.5361 25.0029C39.7607 25.0225 39.9561 25.0322 40.1221 25.0322C40.7373 25.0322 41.2695 24.8711 41.7188 24.5488C42.168 24.2266 42.4951 23.7627 42.7002 23.1572L43.0518 22.1758L37.749 9.00684L35.8008 8.72852V6.15039H44.209V8.72852L42.2754 9.02148L44.7656 16.0088L45.0732 16.873H45.1611L48.1055 8.99219L46.2158 8.72852V6.15039H54.0527V8.72852L52.2656 8.97754L46.2158 24.3584C45.9229 25.0908 45.5469 25.7598 45.0879 26.3652C44.6387 26.9805 44.0625 27.4736 43.3594 27.8447C42.666 28.2158 41.8115 28.4014 40.7959 28.4014Z" fill="#FFC93F"/>
<path d="M55.1367 22V19.4365L57.4072 18.9971V3.68945L55.1367 3.25V0.671875H57.4072H65.2881C66.9189 0.671875 68.3252 0.959961 69.5068 1.53613C70.6885 2.10254 71.5967 2.89844 72.2314 3.92383C72.8662 4.93945 73.1836 6.12598 73.1836 7.4834C73.1836 8.84082 72.8662 10.0322 72.2314 11.0576C71.5967 12.0732 70.6885 12.8643 69.5068 13.4307C68.3252 13.9873 66.9189 14.2656 65.2881 14.2656H61.6846V18.9971L63.9697 19.4365V22H55.1367ZM61.6846 10.9697H65.2881C66.4795 10.9697 67.3779 10.6475 67.9834 10.0029C68.5986 9.34863 68.9062 8.51855 68.9062 7.5127C68.9062 6.4873 68.5986 5.64258 67.9834 4.97852C67.3779 4.30469 66.4795 3.96777 65.2881 3.96777H61.6846V10.9697ZM82.0166 22.3076C80.4541 22.3076 79.1113 21.9658 77.9883 21.2822C76.8652 20.5986 76.0059 19.6514 75.4102 18.4404C74.8145 17.2197 74.5166 15.8184 74.5166 14.2363V13.9287C74.5166 12.3564 74.8145 10.9648 75.4102 9.75391C76.0059 8.5332 76.8604 7.58105 77.9736 6.89746C79.0967 6.2041 80.4346 5.85742 81.9873 5.85742C83.5596 5.85742 84.9023 6.2041 86.0156 6.89746C87.1289 7.58105 87.9834 8.52832 88.5791 9.73926C89.1748 10.9502 89.4727 12.3467 89.4727 13.9287V14.2363C89.4727 15.8184 89.1748 17.2197 88.5791 18.4404C87.9834 19.6514 87.1289 20.5986 86.0156 21.2822C84.9023 21.9658 83.5693 22.3076 82.0166 22.3076ZM82.0166 19.0264C82.7588 19.0264 83.3643 18.8262 83.833 18.4258C84.3018 18.0254 84.6484 17.4688 84.873 16.7559C85.0977 16.0332 85.21 15.1934 85.21 14.2363V13.9287C85.21 12.9912 85.0977 12.166 84.873 11.4531C84.6484 10.7305 84.2969 10.1689 83.8184 9.76855C83.3496 9.3584 82.7393 9.15332 81.9873 9.15332C81.2549 9.15332 80.6494 9.3584 80.1709 9.76855C79.6924 10.1689 79.3408 10.7305 79.1162 11.4531C78.9014 12.166 78.7939 12.9912 78.7939 13.9287V14.2363C78.7939 15.1934 78.9014 16.0332 79.1162 16.7559C79.3408 17.4785 79.6924 18.04 80.1709 18.4404C80.6494 18.8311 81.2646 19.0264 82.0166 19.0264ZM91.7139 22V19.4365L93.7646 18.9971V9.16797L91.4941 8.72852V6.15039H97.749L97.9102 8.11328L97.9395 8.46484C98.3301 7.60547 98.8135 6.95605 99.3896 6.5166C99.9658 6.07715 100.654 5.85742 101.455 5.85742C101.709 5.85742 101.987 5.88184 102.29 5.93066C102.593 5.96973 102.861 6.02344 103.096 6.0918L102.642 10.0322L100.518 9.91504C99.9121 9.88574 99.4189 9.98828 99.0381 10.2227C98.667 10.457 98.335 10.7939 98.042 11.2334V18.9971L100.093 19.4365V22H91.7139ZM110.947 22.3076C109.473 22.3076 108.335 21.9023 107.534 21.0918C106.743 20.2812 106.348 18.9971 106.348 17.2393V9.15332H104.165V6.15039H106.348V2.26855H110.61V6.15039H113.525V9.15332H110.61V17.2246C110.61 17.8398 110.737 18.2793 110.991 18.543C111.255 18.8066 111.611 18.9385 112.061 18.9385C112.305 18.9385 112.559 18.9238 112.822 18.8945C113.096 18.8555 113.33 18.8164 113.525 18.7773L113.892 21.8682C113.452 21.9951 112.974 22.0977 112.456 22.1758C111.948 22.2637 111.445 22.3076 110.947 22.3076Z" fill="url(#paint0_linear_1_13077)"/>
<defs>
<linearGradient id="paint0_linear_1_13077" x1="123.575" y1="-0.500002" x2="57.6529" y2="25.3893" gradientUnits="userSpaceOnUse">
<stop stop-color="#9783FF"/>
<stop offset="1" stop-color="#7B61FF"/>
</linearGradient>
</defs>
</svg>
