<svg width="294" height="68" viewBox="0 0 294 68" fill="none" xmlns="http://www.w3.org/2000/svg">
<path d="M65.6163 66.6667L37.0976 32.4762L64.457 0H43.3578L18.5488 28.9524V0H0V66.6667H18.5488V35.8095L44.5171 66.6667H65.6163Z" fill="black"/>
<path d="M99.7812 68C117.634 68 131.082 59.4286 131.082 45.1429V0H112.534V43.8095C112.534 48.8571 109.635 53.1429 99.7812 53.1429C89.9272 53.1429 87.0289 48.8571 87.0289 43.8095V0H68.4801V45.1429C68.4801 59.4286 81.928 68 99.7812 68Z" fill="black"/>
<path d="M189.672 0V36.1905L158.371 0H144.46V66.6667H163.008V30.4762L194.309 66.6667H208.221V0H189.672Z" fill="black"/>
<path d="M273.712 66.6667H294L266.409 0H242.759L215.168 66.6667H235.455L239.513 56.1905H269.655L273.712 66.6667ZM245.078 41.9048L254.584 17.4286L264.09 41.9048H245.078Z" fill="black"/>
</svg>
