<?xml version="1.0" encoding="UTF-8" standalone="no"?>
<svg
   xmlns:dc="http://purl.org/dc/elements/1.1/"
   xmlns:cc="http://creativecommons.org/ns#"
   xmlns:rdf="http://www.w3.org/1999/02/22-rdf-syntax-ns#"
   xmlns:svg="http://www.w3.org/2000/svg"
   xmlns="http://www.w3.org/2000/svg"
   xmlns:sodipodi="http://sodipodi.sourceforge.net/DTD/sodipodi-0.dtd"
   xmlns:inkscape="http://www.inkscape.org/namespaces/inkscape"
   width="402.08701"
   height="130"
   viewBox="0 0 402.08701 130"
   version="1.1"
   id="svg21"
   sodipodi:docname="new2-117162590e56262f9ebd2cf74fefce22.svg"
   style="fill:none"
   inkscape:version="0.92.3 (2405546, 2018-03-11)">
  <metadata
     id="metadata25">
    <rdf:RDF>
      <cc:Work
         rdf:about="">
        <dc:format>image/svg+xml</dc:format>
        <dc:type
           rdf:resource="http://purl.org/dc/dcmitype/StillImage" />
        <dc:title></dc:title>
      </cc:Work>
    </rdf:RDF>
  </metadata>
  <sodipodi:namedview
     pagecolor="#ffffff"
     bordercolor="#666666"
     borderopacity="1"
     objecttolerance="10"
     gridtolerance="10"
     guidetolerance="10"
     inkscape:pageopacity="0"
     inkscape:pageshadow="2"
     inkscape:window-width="640"
     inkscape:window-height="480"
     id="namedview23"
     showgrid="false"
     fit-margin-top="0"
     fit-margin-left="0"
     fit-margin-right="0"
     fit-margin-bottom="0"
     inkscape:zoom="0.61519608"
     inkscape:cx="204"
     inkscape:cy="65"
     inkscape:window-x="0"
     inkscape:window-y="0"
     inkscape:window-maximized="0"
     inkscape:current-layer="svg21" />
  <path
     d="M 192.943,112.569 164.339,71.3896 191.78,32.2749 H 170.618 L 145.735,67.1455 V 32.2749 H 127.13 v 80.2941 h 18.605 V 75.4043 l 26.046,37.1647 z"
     id="path2"
     inkscape:connector-curvature="0"
     style="fill:#000000" />
  <path
     d="m 237.886,55.2161 v 31.3147 c 0,8.1441 -4.418,11.8147 -10.814,11.8147 -5.581,0 -10.116,-3.3265 -10.116,-10.4382 V 55.2161 h -17.441 v 35.2147 c 0,15.4852 9.999,23.7442 21.743,23.7442 7.675,0 13.489,-2.753 16.628,-6.997 v 5.391 h 17.442 V 55.2161 Z"
     id="path4"
     inkscape:connector-curvature="0"
     style="fill:#000000" />
  <path
     d="m 305.452,53.6102 c -7.674,0 -13.488,2.7529 -16.628,6.9971 v -5.3912 h -17.441 v 57.3529 h 17.441 V 81.2543 c 0,-8.1441 4.419,-11.8147 10.814,-11.8147 5.581,0 10.116,3.3265 10.116,10.4383 v 32.6911 h 17.442 V 77.3543 c 0,-15.4853 -10,-23.7441 -21.744,-23.7441 z"
     id="path6"
     inkscape:connector-curvature="0"
     style="fill:#000000" />
  <path
     d="m 384.646,55.2161 v 5.3912 c -3.837,-4.3589 -9.535,-6.9971 -17.326,-6.9971 -15.232,0 -27.79,13.1912 -27.79,30.2824 0,17.0914 12.558,30.2824 27.79,30.2824 7.791,0 13.489,-2.638 17.326,-6.997 v 5.391 h 17.441 V 55.2161 Z m -13.837,42.6706 c -8.023,0 -13.837,-5.3912 -13.837,-13.9941 0,-8.603 5.814,-13.9942 13.837,-13.9942 8.023,0 13.837,5.3912 13.837,13.9942 0,8.6029 -5.814,13.9941 -13.837,13.9941 z"
     id="path8"
     inkscape:connector-curvature="0"
     style="fill:#000000" />
  <path
     d="m 79.0322,130 c 12.57,0 19.9451,-13.909 12.7511,-24.047 L 64.6595,67.7269 c -1.8732,-2.6399 -1.8648,-6.151 0.0209,-8.7823 L 89.6479,24.1057 C 96.909,13.9737 89.5416,0 76.9385,0 H 15.5495 C 6.96174,0 0,6.84741 0,15.2941 c 0,0 7.6843438e-5,90.6179 0,99.4119 C -7.6840462e-5,123.5 5.99992,130 15.4999,130 c 9.5,0 63.5323,0 63.5323,0 z"
     id="path10"
     inkscape:connector-curvature="0"
     style="fill:#312a7d" />
  <path
     d="m 0,114.706 c -7.2427762e-5,8.289 5.3307,14.54 13.8986,15.231 C 39.1632,94.6471 64.3814,59.3618 89.6479,24.1057 96.909,13.9737 89.5416,0 76.9385,0 H 15.5495 C 6.96174,0 0,6.84741 0,15.2941 Z"
     id="path12"
     inkscape:connector-curvature="0"
     style="clip-rule:evenodd;fill:url(#paint0_linear);fill-rule:evenodd" />
  <defs
     id="defs19">
    <linearGradient
       id="paint0_linear"
       x1="6.92659"
       y1="4.9242401"
       x2="100.32"
       y2="144.19701"
       gradientUnits="userSpaceOnUse">
      <stop
         stop-color="#47D3FF"
         id="stop14" />
      <stop
         offset="1"
         stop-color="#2195EA"
         id="stop16" />
    </linearGradient>
  </defs>
</svg>
