<?xml version="1.0" encoding="utf-8"?>
<!-- Generator: Adobe Illustrator 17.1.0, SVG Export Plug-In . SVG Version: 6.00 Build 0)  -->
<!DOCTYPE svg PUBLIC "-//W3C//DTD SVG 1.1//EN" "http://www.w3.org/Graphics/SVG/1.1/DTD/svg11.dtd">
<svg version="1.1" id="Layer_1" xmlns="http://www.w3.org/2000/svg" xmlns:xlink="http://www.w3.org/1999/xlink" x="0px" y="0px"
	 width="185px" height="180px" viewBox="0 0 185 180" enable-background="new 0 0 185 180" xml:space="preserve">
<g>
	<path fill="#3BAD02" d="M129,53.4l-55.6,32L47.1,70.3c-1.3-0.7-2.9-0.3-3.7,1c-0.7,1.3-0.3,2.9,1,3.7L72,90.9
		c0.8,0.5,1.8,0.5,2.7,0l57-32.8c1.3-0.7,1.7-2.4,1-3.7C132,53.1,130.3,52.6,129,53.4L129,53.4z"/>
	<path fill="#3BAD02" d="M121,45.7L73.4,73l-22-12.7c-1.3-0.7-2.9-0.3-3.7,1c-0.7,1.3-0.3,2.9,1,3.7l23.4,13.4
		c0.8,0.5,1.8,0.5,2.7,0l48.9-28.1c1.3-0.7,1.7-2.4,1-3.7C123.9,45.4,122.3,44.9,121,45.7L121,45.7z"/>
	<path fill="#3BAD02" d="M110.3,39.5L73.4,60.7l-15.7-9c-1.3-0.7-2.9-0.3-3.7,1c-0.7,1.3-0.3,2.9,1,3.7l17,9.8
		c0.8,0.5,1.8,0.5,2.7,0l38.2-22c1.3-0.7,1.7-2.4,1-3.7C113.2,39.2,111.6,38.7,110.3,39.5L110.3,39.5z"/>
	<path fill="#3BAD02" d="M134,65.6c3.2,6.3,5,13.5,5,21.1c0,12.9-5.2,24.5-13.6,32.9c-8.4,8.4-20.1,13.6-33,13.6s-24.5-5.2-33-13.6
		c-8.4-8.4-13.6-20.1-13.6-32.9c0-1,0-2.1,0.1-3.1c0.1-1.5-1-2.8-2.5-2.8c-1.5-0.1-2.8,1-2.8,2.5c-0.1,1.1-0.1,2.3-0.1,3.5
		c0,28.7,23.3,52,52,52s52-23.3,52-52c0-8.5-2-16.5-5.6-23.5c-0.7-1.3-2.3-1.8-3.6-1.2C133.9,62.7,133.3,64.3,134,65.6L134,65.6z"/>
	<path fill="#3BAD02" d="M41.9,85.7l29.7,17.4c0.8,0.5,1.9,0.5,2.7,0l63.4-36.4c1.3-0.7,1.7-2.4,1-3.7c-0.7-1.3-2.4-1.7-3.7-1
		L72.9,97.6L44.6,81c-1.3-0.7-2.9-0.3-3.7,1C40.2,83.4,40.7,85,41.9,85.7L41.9,85.7z"/>
</g>
</svg>
