<?xml version="1.0" encoding="UTF-8"?>
<!DOCTYPE svg  PUBLIC '-//W3C//DTD SVG 1.1//EN'  'http://www.w3.org/Graphics/SVG/1.1/DTD/svg11.dtd'>
<svg enable-background="new 0 0 101.6 32.9" version="1.1" viewBox="0 0 101.6 32.9" xml:space="preserve" xmlns="http://www.w3.org/2000/svg">
<style type="text/css">
	.st0{fill:#35B454;}
</style>
		<path class="st0" d="m14.3 7.5h-14v4.5h9.2c0.6 0 1 0.5 1 1v7.9h-2c-0.6 0-1-0.5-1-1v-5.7h-3.9c-2 0-3.6 1.6-3.6 3.6v4c0 2 1.6 3.6 3.6 3.6h14.3v-14.3c0-2-1.6-3.6-3.6-3.6z"/>
		<path class="st0" d="M31.4,20.9h-2c-0.6,0-1-0.5-1-1V7.5h-3.9c-2,0-3.6,1.6-3.6,3.6v10.7c0,2,1.6,3.6,3.6,3.6h14.3V0h-7.5    L31.4,20.9z"/>
		<path class="st0" d="M52.3,20.9h-2c-0.6,0-1-0.5-1-1V7.5h-7.5v14.3c0,2,1.6,3.6,3.6,3.6h6.9v2.2H42.1v5.2h14.1    c2,0,3.6-1.6,3.6-3.6V7.5h-7.5V20.9z"/>
		<path class="st0" d="m77.1 7.5h-14.4v14.3c0 2 1.6 3.6 3.6 3.6h14.1v-4.5h-9.2c-0.6 0-1-0.5-1-1v-7.9h2c0.6 0 1 0.5 1 1v5.7h3.9c2 0 3.6-1.6 3.6-3.6v-4c0-2-1.6-3.6-3.6-3.6z"/>
		<path class="st0" d="M98,7.5H83.7v17.9h7.5V12h2c0.6,0,1,0.5,1,1v12.4h7.5V11.1C101.6,9.1,100,7.5,98,7.5z"/>
</svg>
