<svg xmlns="http://www.w3.org/2000/svg" width="81" height="20" fill="rgba(23, 18, 15, 1)"><path d="M78.335 14.33c-1.267 0-2.295 1.027-2.295 2.295s1.027 2.295 2.295 2.295 2.295-1.028 2.295-2.295-1.028-2.295-2.295-2.295m-7.54-7.102v-.78h3.657v12.215h-3.657v-.78A6.41 6.41 0 0 1 67.17 19c-3.56 0-6.445-2.886-6.445-6.445S63.6 6.1 67.17 6.1a6.41 6.41 0 0 1 3.625 1.119zm-3.326 8.47c1.83 0 3.314-1.407 3.314-3.143S69.3 9.412 67.47 9.412s-3.314 1.407-3.314 3.142 1.484 3.143 3.314 3.143zm-13.244-9.58c-1.46 0-2.844.454-3.768 1.705V6.447h-3.64V18.66h3.686v-6.42c0-1.858 1.246-2.767 2.745-2.767 1.607 0 2.53.96 2.53 2.742v6.444h3.653v-7.768c0-2.843-2.26-4.776-5.206-4.776M41.528 8.038v-1.6h-3.744v12.215h3.753V12.96c0-1.924 2.085-2.958 3.532-2.958l.043.002V6.448c-1.485 0-2.85.636-3.584 1.6m-9.315-.82v-.78h3.657v12.215h-3.657v-.78A6.41 6.41 0 0 1 28.588 19c-3.56 0-6.445-2.886-6.445-6.445S25.03 6.1 28.588 6.1a6.41 6.41 0 0 1 3.625 1.119zm-3.326 8.47c1.83 0 3.314-1.407 3.314-3.143s-1.484-3.142-3.314-3.142-3.314 1.407-3.314 3.142 1.484 3.143 3.314 3.143zm-12.072 2.964h3.828V1.003h-3.828zM14.177 1H10.2c0 3.25-1.495 6.235-4.1 8.187l-1.572 1.177 6.1 8.303h5.006l-5.603-7.64C12.687 8.383 14.177 4.825 14.177 1M0 18.667h4.053V1H0z"/></svg>