<?xml version="1.0" encoding="utf-8"?>
<!-- Generator: Adobe Illustrator 22.0.0, SVG Export Plug-In . SVG Version: 6.00 Build 0)  -->
<svg version="1.1" id="Слой_1" xmlns="http://www.w3.org/2000/svg" xmlns:xlink="http://www.w3.org/1999/xlink" x="0px" y="0px"
	 viewBox="0 0 2708.4 608.8" style="enable-background:new 0 0 2708.4 608.8;" xml:space="preserve">
<style type="text/css">
	.st0{fill:none;}
	.st1{fill:#76A62D;}
</style>
<g>
	<polygon class="st0" points="1419.3,338.7 1579.9,338.7 1498.4,107.9 	"/>
	<g>
		<polygon class="st0" points="1419.3,338.7 1579.9,338.7 1498.4,107.9 		"/>
		<path class="st1" d="M1547.4,67.2c-4.5-13.2-10.4-24.4-23.1-24.9l0,0h-0.8h-10.6h-20.4c-0.9-0.1-1.9-0.2-2.9-0.2h-10.2
			c-1,0-2,0.1-2.9,0.2l0,0c-10.6,1.6-15.9,12.2-19.9,24.6l-157,438.7c0,5.8,4.7,10.5,10.5,10.5h32.8c13,0,19.7-10.7,23.6-23.6
			l31.3-91.4c2.2-6.3,8.1-10.5,14.8-10.5h174.6c6.6,0,12.5,4.2,14.7,10.4l32.6,92.4c4,12.9,11,23.6,24.6,23.6h34.3
			c6.1,0,11-4.7,11-10.5L1547.4,67.2z M1419.3,338.7l79.2-230.8l81.5,230.8H1419.3z"/>
	</g>
	<g>
		<path class="st1" d="M2006.4,43.5c-4.2-1.6-28.5-1.4-28.5-1.4c-16.3,0.4-26.7,0-34,10.1c-1.1,1.5-1.9,3.1-2.7,4.7l-97.3,210.5
			L1743.7,57c-0.8-1.6-1.6-3.2-2.7-4.7c-7.3-10.1-17.7-9.8-34-10.1c0,0-24.3-0.2-28.5,1.4c-10,3.8-3.4,16.1,1.3,26.2L1802.7,315
			c5.6,11.2,8.5,23.5,8.5,36v148c0,10,8.1,18.1,18.1,18.1h25.7c10,0,18.1-8.1,18.1-18.1V351.7c0-12.5,2.9-24.8,8.5-36l123.4-246
			C2009.8,59.6,2016.4,47.3,2006.4,43.5z"/>
		<path class="st1" d="M2476.2,272.5L2476.2,272.5L2476.2,272.5L2476.2,272.5l-295-247.1c-2.2-1.8-5.4-1.7-7.4,0.4l-43.6,45.4
			l240.9,201.3l-240.9,201.3l43.6,45.4c2,2.1,5.2,2.2,7.4,0.4L2476.2,272.5L2476.2,272.5z"/>
		<path class="st1" d="M2688.2,274.5L2688.2,274.5l-295-247.1c-2.2-1.8-5.4-1.7-7.4,0.4l-43.6,45.4l240.9,201.3l-240.9,201.3
			l43.6,45.4c2,2.1,5.2,2.2,7.4,0.4L2688.2,274.5L2688.2,274.5L2688.2,274.5L2688.2,274.5z"/>
	</g>
	<g>
		<path class="st1" d="M381.4,41.8h-37.2c-7.8,0-14,6.3-14,14v445.5c0,8.1,6.6,14.8,14.8,14.8h35.8c8.1,0,14.8-6.6,14.8-14.8V55.9
			C395.5,48.1,389.2,41.8,381.4,41.8z"/>
		<path class="st1" d="M248.3,459.6H82.2V55.9c0-7.8-6.3-14-14-14H34.3c-7.8,0-14,6.3-14,14v403.8v36.9v0c0,9.2,7.4,16.6,16.6,16.6
			h0h45.4h166.1c8,0,14.4-6.4,14.4-14.4V474C262.7,466.1,256.2,459.6,248.3,459.6z"/>
		<path class="st1" d="M1250.9,68c-20.7-14-49.3-23.9-104-23.9h-86.3H1041c-12.6,0-22.9,10.2-22.9,22.9v425.6
			c0,13,10.5,23.6,23.6,23.6h18.2c13,0,23.6-10.5,23.6-23.6V332.7c19.6,0,87.4,0,95.4,0c9.3,0,128.7-18.7,128.7-148.7
			C1307.5,127.4,1278.5,86.8,1250.9,68z M1157.2,283.7c-6.2,0-66.5,0-66.5,0h-7.3V93.1h52.6c36.1,0,55,6.5,68.7,15.8
			c18.3,12.4,37.4,39.2,37.4,76.6C1242.2,271.4,1163.4,283.7,1157.2,283.7z"/>
		<path class="st1" d="M957.6,526.7c-2.6-1.9-5.5-3.3-8.6-4.5c-24.6-9.4-60.5-34.3-80.5-47.2c-15.5-10-13.1-17.9-11-21.2
			c0.4-0.5,0.9-1.1,1.3-1.6c0.1-0.1,0.1-0.1,0.1-0.1l0,0c34-41.7,53.7-101.1,53.7-176.1c0-132.6-56.7-240.1-210.6-240.1
			c-141.6,0-209.6,107.5-209.6,240.1S538.1,522.1,702,522.1c33.3,0,63.9-6.4,90.8-18.8h0.1c7.9-3.4,15.6-3.3,26.2,4.4
			c76,56.3,113.7,77,140.7,77c13,0,10.7-40,10.7-40S968.6,534.6,957.6,526.7z M559.6,277c0-0.3,0-0.6,0-1
			c0.2-90,33-185.5,142.6-185.5c124.2,0,143.2,95.5,143.3,185.5c0,0.3,0,0.6,0,1c0,107.1-34.7,188.5-143.3,188.5
			C577.5,465.5,559.6,367.3,559.6,277z"/>
	</g>
</g>
</svg>
