<?xml version="1.0" encoding="UTF-8" standalone="no"?>
<!-- Generator: Adobe Illustrator 22.0.0, SVG Export Plug-In . SVG Version: 6.00 Build 0)  -->

<svg
   xmlns:dc="http://purl.org/dc/elements/1.1/"
   xmlns:cc="http://creativecommons.org/ns#"
   xmlns:rdf="http://www.w3.org/1999/02/22-rdf-syntax-ns#"
   xmlns:svg="http://www.w3.org/2000/svg"
   xmlns="http://www.w3.org/2000/svg"
   xmlns:sodipodi="http://sodipodi.sourceforge.net/DTD/sodipodi-0.dtd"
   xmlns:inkscape="http://www.inkscape.org/namespaces/inkscape"
   version="1.1"
   id="Слой_1"
   x="0px"
   y="0px"
   viewBox="0 0 2667.9 560.56855"
   xml:space="preserve"
   inkscape:version="0.91 r13725"
   sodipodi:docname="logo.svg"
   width="2667.8999"
   height="560.56854"><metadata
     id="metadata37"><rdf:RDF><cc:Work
         rdf:about=""><dc:format>image/svg+xml</dc:format><dc:type
           rdf:resource="http://purl.org/dc/dcmitype/StillImage" /><dc:title></dc:title></cc:Work></rdf:RDF></metadata><defs
     id="defs35" /><sodipodi:namedview
     pagecolor="#ffffff"
     bordercolor="#666666"
     borderopacity="1"
     objecttolerance="10"
     gridtolerance="10"
     guidetolerance="10"
     inkscape:pageopacity="0"
     inkscape:pageshadow="2"
     inkscape:window-width="2560"
     inkscape:window-height="1390"
     id="namedview33"
     showgrid="false"
     fit-margin-top="0"
     fit-margin-left="0"
     fit-margin-right="0"
     fit-margin-bottom="0"
     inkscape:zoom="0.36774481"
     inkscape:cx="1644.9105"
     inkscape:cy="508.17638"
     inkscape:window-x="0"
     inkscape:window-y="0"
     inkscape:window-maximized="1"
     inkscape:current-layer="Слой_1" /><style
     type="text/css"
     id="style3">
	.st0{fill:none;}
	.st1{fill:#76A62D;}
</style><g
     id="g5"
     transform="translate(-20.3,-24.131487)"><polygon
       class="st0"
       points="1419.3,338.7 1579.9,338.7 1498.4,107.9 "
       id="polygon7"
       style="fill:none" /><g
       id="g9"><polygon
         class="st0"
         points="1419.3,338.7 1579.9,338.7 1498.4,107.9 "
         id="polygon11"
         style="fill:none" /><path
         class="st1"
         d="M 1547.4,67.2 C 1542.9,54 1537,42.8 1524.3,42.3 l 0,0 -0.8,0 -10.6,0 -20.4,0 c -0.9,-0.1 -1.9,-0.2 -2.9,-0.2 l -10.2,0 c -1,0 -2,0.1 -2.9,0.2 l 0,0 c -10.6,1.6 -15.9,12.2 -19.9,24.6 l -157,438.7 c 0,5.8 4.7,10.5 10.5,10.5 l 32.8,0 c 13,0 19.7,-10.7 23.6,-23.6 l 31.3,-91.4 c 2.2,-6.3 8.1,-10.5 14.8,-10.5 l 174.6,0 c 6.6,0 12.5,4.2 14.7,10.4 l 32.6,92.4 c 4,12.9 11,23.6 24.6,23.6 l 34.3,0 c 6.1,0 11,-4.7 11,-10.5 l -157,-439.3 z m -128.1,271.5 79.2,-230.8 81.5,230.8 -160.7,0 z"
         id="path13"
         inkscape:connector-curvature="0"
         style="fill:#76a62d" /></g><g
       id="g15"><path
         class="st1"
         d="m 2006.4,43.5 c -4.2,-1.6 -28.5,-1.4 -28.5,-1.4 -16.3,0.4 -26.7,0 -34,10.1 -1.1,1.5 -1.9,3.1 -2.7,4.7 L 1843.9,267.4 1743.7,57 c -0.8,-1.6 -1.6,-3.2 -2.7,-4.7 -7.3,-10.1 -17.7,-9.8 -34,-10.1 0,0 -24.3,-0.2 -28.5,1.4 -10,3.8 -3.4,16.1 1.3,26.2 L 1802.7,315 c 5.6,11.2 8.5,23.5 8.5,36 l 0,148 c 0,10 8.1,18.1 18.1,18.1 l 25.7,0 c 10,0 18.1,-8.1 18.1,-18.1 l 0,-147.3 c 0,-12.5 2.9,-24.8 8.5,-36 L 2005,69.7 c 4.8,-10.1 11.4,-22.4 1.4,-26.2 z"
         id="path17"
         inkscape:connector-curvature="0"
         style="fill:#76a62d" /><path
         class="st1"
         d="m 2476.2,272.5 0,0 0,0 0,0 -295,-247.1 c -2.2,-1.8 -5.4,-1.7 -7.4,0.4 l -43.6,45.4 240.9,201.3 -240.9,201.3 43.6,45.4 c 2,2.1 5.2,2.2 7.4,0.4 l 295,-247.1 0,0 z"
         id="path19"
         inkscape:connector-curvature="0"
         style="fill:#76a62d" /><path
         class="st1"
         d="m 2688.2,274.5 0,0 -295,-247.1 c -2.2,-1.8 -5.4,-1.7 -7.4,0.4 l -43.6,45.4 240.9,201.3 -240.9,201.3 43.6,45.4 c 2,2.1 5.2,2.2 7.4,0.4 l 295,-247.1 0,0 0,0 0,0 z"
         id="path21"
         inkscape:connector-curvature="0"
         style="fill:#76a62d" /></g><g
       id="g23"><path
         class="st1"
         d="m 381.4,41.8 -37.2,0 c -7.8,0 -14,6.3 -14,14 l 0,445.5 c 0,8.1 6.6,14.8 14.8,14.8 l 35.8,0 c 8.1,0 14.8,-6.6 14.8,-14.8 l 0,-445.4 c -0.1,-7.8 -6.4,-14.1 -14.2,-14.1 z"
         id="path25"
         inkscape:connector-curvature="0"
         style="fill:#76a62d" /><path
         class="st1"
         d="m 248.3,459.6 -166.1,0 0,-403.7 c 0,-7.8 -6.3,-14 -14,-14 l -33.9,0 c -7.8,0 -14,6.3 -14,14 l 0,403.8 0,36.9 0,0 c 0,9.2 7.4,16.6 16.6,16.6 l 0,0 45.4,0 166.1,0 c 8,0 14.4,-6.4 14.4,-14.4 l 0,-24.8 c -0.1,-7.9 -6.6,-14.4 -14.5,-14.4 z"
         id="path27"
         inkscape:connector-curvature="0"
         style="fill:#76a62d" /><path
         class="st1"
         d="m 1250.9,68 c -20.7,-14 -49.3,-23.9 -104,-23.9 l -86.3,0 -19.6,0 c -12.6,0 -22.9,10.2 -22.9,22.9 l 0,425.6 c 0,13 10.5,23.6 23.6,23.6 l 18.2,0 c 13,0 23.6,-10.5 23.6,-23.6 l 0,-159.9 c 19.6,0 87.4,0 95.4,0 9.3,0 128.7,-18.7 128.7,-148.7 -0.1,-56.6 -29.1,-97.2 -56.7,-116 z m -93.7,215.7 c -6.2,0 -66.5,0 -66.5,0 l -7.3,0 0,-190.6 52.6,0 c 36.1,0 55,6.5 68.7,15.8 18.3,12.4 37.4,39.2 37.4,76.6 0.1,85.9 -78.7,98.2 -84.9,98.2 z"
         id="path29"
         inkscape:connector-curvature="0"
         style="fill:#76a62d" /><path
         class="st1"
         d="m 957.6,526.7 c -2.6,-1.9 -5.5,-3.3 -8.6,-4.5 -24.6,-9.4 -60.5,-34.3 -80.5,-47.2 -15.5,-10 -13.1,-17.9 -11,-21.2 0.4,-0.5 0.9,-1.1 1.3,-1.6 0.1,-0.1 0.1,-0.1 0.1,-0.1 l 0,0 C 892.9,410.4 912.6,351 912.6,276 912.6,143.4 855.9,35.9 702,35.9 560.4,35.9 492.4,143.4 492.4,276 c 0,132.6 45.7,246.1 209.6,246.1 33.3,0 63.9,-6.4 90.8,-18.8 l 0.1,0 c 7.9,-3.4 15.6,-3.3 26.2,4.4 76,56.3 113.7,77 140.7,77 13,0 10.7,-40 10.7,-40 0,0 -1.9,-10.1 -12.9,-18 z M 559.6,277 c 0,-0.3 0,-0.6 0,-1 0.2,-90 33,-185.5 142.6,-185.5 124.2,0 143.2,95.5 143.3,185.5 0,0.3 0,0.6 0,1 0,107.1 -34.7,188.5 -143.3,188.5 -124.7,0 -142.6,-98.2 -142.6,-188.5 z"
         id="path31"
         inkscape:connector-curvature="0"
         style="fill:#76a62d" /></g></g></svg>