<?xml version="1.0" encoding="UTF-8"?>
<svg version="1.1" viewBox="0 0 2667.9 560.57" xml:space="preserve" xmlns="http://www.w3.org/2000/svg" xmlns:cc="http://creativecommons.org/ns#" xmlns:dc="http://purl.org/dc/elements/1.1/" xmlns:rdf="http://www.w3.org/1999/02/22-rdf-syntax-ns#"><metadata><rdf:RDF><cc:Work rdf:about=""><dc:format>image/svg+xml</dc:format><dc:type rdf:resource="http://purl.org/dc/dcmitype/StillImage"/><dc:title/></cc:Work></rdf:RDF></metadata><style type="text/css">
	.st0{fill:none;}
	.st1{fill:#76A62D;}
</style><g transform="translate(-20.3 -24.131)"><polygon class="st0" points="1419.3 338.7 1579.9 338.7 1498.4 107.9" fill="none"/><polygon class="st0" points="1419.3 338.7 1579.9 338.7 1498.4 107.9" fill="none"/><path class="st1" d="m1547.4 67.2c-4.5-13.2-10.4-24.4-23.1-24.9h-0.8-10.6-20.4c-0.9-0.1-1.9-0.2-2.9-0.2h-10.2c-1 0-2 0.1-2.9 0.2-10.6 1.6-15.9 12.2-19.9 24.6l-157 438.7c0 5.8 4.7 10.5 10.5 10.5h32.8c13 0 19.7-10.7 23.6-23.6l31.3-91.4c2.2-6.3 8.1-10.5 14.8-10.5h174.6c6.6 0 12.5 4.2 14.7 10.4l32.6 92.4c4 12.9 11 23.6 24.6 23.6h34.3c6.1 0 11-4.7 11-10.5l-157-439.3zm-128.1 271.5 79.2-230.8 81.5 230.8h-160.7z" fill="#76a62d"/><g fill="#76a62d"><path class="st1" d="m2006.4 43.5c-4.2-1.6-28.5-1.4-28.5-1.4-16.3 0.4-26.7 0-34 10.1-1.1 1.5-1.9 3.1-2.7 4.7l-97.3 210.5-100.2-210.4c-0.8-1.6-1.6-3.2-2.7-4.7-7.3-10.1-17.7-9.8-34-10.1 0 0-24.3-0.2-28.5 1.4-10 3.8-3.4 16.1 1.3 26.2l122.9 245.2c5.6 11.2 8.5 23.5 8.5 36v148c0 10 8.1 18.1 18.1 18.1h25.7c10 0 18.1-8.1 18.1-18.1v-147.3c0-12.5 2.9-24.8 8.5-36l123.4-246c4.8-10.1 11.4-22.4 1.4-26.2z"/><path class="st1" d="m2476.2 272.5-295-247.1c-2.2-1.8-5.4-1.7-7.4 0.4l-43.6 45.4 240.9 201.3-240.9 201.3 43.6 45.4c2 2.1 5.2 2.2 7.4 0.4l295-247.1z"/><path class="st1" d="m2688.2 274.5-295-247.1c-2.2-1.8-5.4-1.7-7.4 0.4l-43.6 45.4 240.9 201.3-240.9 201.3 43.6 45.4c2 2.1 5.2 2.2 7.4 0.4l295-247.1z"/></g><g fill="#76a62d"><path class="st1" d="m381.4 41.8h-37.2c-7.8 0-14 6.3-14 14v445.5c0 8.1 6.6 14.8 14.8 14.8h35.8c8.1 0 14.8-6.6 14.8-14.8v-445.4c-0.1-7.8-6.4-14.1-14.2-14.1z"/><path class="st1" d="m248.3 459.6h-166.1v-403.7c0-7.8-6.3-14-14-14h-33.9c-7.8 0-14 6.3-14 14v403.8 36.9c0 9.2 7.4 16.6 16.6 16.6h45.4 166.1c8 0 14.4-6.4 14.4-14.4v-24.8c-0.1-7.9-6.6-14.4-14.5-14.4z"/><path class="st1" d="m1250.9 68c-20.7-14-49.3-23.9-104-23.9h-86.3-19.6c-12.6 0-22.9 10.2-22.9 22.9v425.6c0 13 10.5 23.6 23.6 23.6h18.2c13 0 23.6-10.5 23.6-23.6v-159.9h95.4c9.3 0 128.7-18.7 128.7-148.7-0.1-56.6-29.1-97.2-56.7-116zm-93.7 215.7h-66.5-7.3v-190.6h52.6c36.1 0 55 6.5 68.7 15.8 18.3 12.4 37.4 39.2 37.4 76.6 0.1 85.9-78.7 98.2-84.9 98.2z"/><path class="st1" d="m957.6 526.7c-2.6-1.9-5.5-3.3-8.6-4.5-24.6-9.4-60.5-34.3-80.5-47.2-15.5-10-13.1-17.9-11-21.2 0.4-0.5 0.9-1.1 1.3-1.6l0.1-0.1c34-41.7 53.7-101.1 53.7-176.1 0-132.6-56.7-240.1-210.6-240.1-141.6 0-209.6 107.5-209.6 240.1s45.7 246.1 209.6 246.1c33.3 0 63.9-6.4 90.8-18.8h0.1c7.9-3.4 15.6-3.3 26.2 4.4 76 56.3 113.7 77 140.7 77 13 0 10.7-40 10.7-40s-1.9-10.1-12.9-18zm-398-249.7v-1c0.2-90 33-185.5 142.6-185.5 124.2 0 143.2 95.5 143.3 185.5v1c0 107.1-34.7 188.5-143.3 188.5-124.7 0-142.6-98.2-142.6-188.5z"/></g></g></svg>
