<svg width="486" height="93" xmlns="http://www.w3.org/2000/svg" xmlns:xlink="http://www.w3.org/1999/xlink"><defs><path id="a" d="M.131.48h315.362v92.454H.13z"/></defs><g fill="none" fill-rule="evenodd"><path fill="#112032" d="M75.05 26l-9.784 43.954L50.452 26H39.548L24.74 69.954 14.954 26H0l17.612 66h11.736l15.655-43.534L60.65 92h11.743L90 26H75.05M100 13.935h14V0h-14v13.935zM100 91h14V25.085h-14V91z"/><g transform="translate(170)"><mask id="b" fill="#fff"><use xlink:href="#a"/></mask><path d="M33.685 92.72C13.775 92.72.131 78.787.131 59.277c0-22.984 15.59-34.553 32.58-34.553 19.637 0 30.912 14.212 30.912 33.862v4.456h-49.15c1.248 10.726 7.52 18.254 21.303 18.254 7.937 0 14.342-2.788 19.492-5.715l4.738 9.894c-5.853 3.898-15.874 7.245-26.32 7.245M14.61 53.706h35.507c-.419-7.803-4.599-17.413-17.407-17.413-11.138 0-16.85 7.105-18.1 17.413m89.178 39.293c-20.19 0-32.162-14.909-32.162-33.577 0-20.207 14.057-34.42 33.967-34.42 6.549 0 14.068 1.536 18.522 4.458l-4.035 11.986c-3.206-2.23-7.938-4.457-14.203-4.457-12.117 0-19.636 8.356-19.636 21.597 0 11.84 5.99 22.71 20.75 22.71 6.266 0 10.162-2.23 13.786-5.018l3.895 11.567c-4.87 3.062-13.366 5.154-20.884 5.154m90.339-67.437v65.903h-13.924v-5.292c-5.43 4.177-12.947 6.547-20.467 6.547-18.105 0-31.75-13.236-31.75-33.854 0-22.991 17.408-34.141 33.834-34.141 7.52 0 13.784 2.37 18.383 5.711v-4.874h13.924zm-51.52 33.304c0 12.815 7.518 22.148 19.771 22.148 12.112 0 18.935-9.333 18.935-22.148 0-13.521-7.793-22.3-19.347-22.3-11.7 0-19.358 8.919-19.358 22.3zM315.493.48v91.265h-13.925v-5.293C296.135 90.63 288.615 93 281.1 93c-18.104 0-31.749-13.241-31.749-33.86 0-22.99 17.402-34.135 33.834-34.135 7.519 0 13.784 2.37 18.382 5.711V.48h13.925zm-51.52 58.66c0 12.821 7.52 22.154 19.77 22.154 12.113 0 18.94-9.333 18.94-22.155 0-13.514-7.804-22.292-19.358-22.292-11.694 0-19.352 8.918-19.352 22.292z" fill="#112032" mask="url(#b)"/></g><path d="M408.277 24.005h-.006c-.018 0-.032.003-.05.004-.534.024-10.047.564-14.292 6.55V25.14H380V91h13.929V55.078c0-10.441 6.544-17.68 14.624-17.68 1.951 0 3.902.552 5.57 1.248L419 26.672c-2.063-1.337-7.03-2.772-10.723-2.667m-250.001 0h-.005c-.018 0-.033.003-.05.003-.536.026-10.047.566-14.294 6.549v-5.418H130V91h13.927V55.076c0-10.44 6.546-17.68 14.625-17.68 1.952 0 3.903.552 5.57 1.25L169 26.673c-2.065-1.34-7.032-2.772-10.724-2.668" fill="#112032"/></g></svg>