<svg xmlns="http://www.w3.org/2000/svg" viewBox="0 0 468.02 155.78"><defs><style>.cls-1{fill:#2b2bc1;}</style></defs><g id="Слой_2" data-name="Слой 2"><g id="Слой_2-2" data-name="Слой 2"><path d="M147.56,138.16a3.32,3.32,0,0,0,3.42-3.41c0-6.94-15-6-15-18.92,0-5.26,3.86-10.13,11.08-10.13,8.84,0,11.08,7,11.08,13.6,0,.56-.17.67-.73.67h-5.59c-.68,0-.95,0-.95-.67-.06-3.14-.56-6-3.81-6a2.64,2.64,0,0,0-2.69,2.75c0,6.54,15.23,5.15,15.23,18.8,0,6.61-3.53,11.2-12,11.2-9.35,0-13.1-7.17-13.1-15.17,0-.84.23-1,1.12-1h6.66c.56,0,.79.28.79.9C143.2,135.25,144.2,138.16,147.56,138.16Z"/><path d="M171.35,136.15c0,1.23.67,1.45,1.79,1.45h8.79c1.34,0,1.51.11,1.51,1.23v4.82c0,1.56-.56,1.79-2,1.79H165.3c-1.4,0-1.79-.28-1.79-1.79V107.77c0-1.46.17-1.51,1.79-1.51h15.56c1.68,0,2.13.11,2.13,1.4v5.15c0,1.11-.17,1.28-1.23,1.28h-8.9c-1.12,0-1.51.17-1.51,1.29v5.15c0,1,.11,1.12,1.06,1.12h6.33c.72,0,1.06.17,1.06.95v5.54c0,.79-.28,1.06-1.06,1.06H173c-1.23,0-1.68.17-1.68,1.35Z"/><path d="M207.39,129.2c1,0,1.34,0,1.34,1,0,6.32-.89,11.08-3.35,13.37-2,1.85-4.2,2.47-8.06,2.47-4.26,0-6.39-1.18-8.23-3.19-2.74-3-2.86-10.58-2.86-17.36,0-6.54,0-12.81,3.19-16.56,1.57-1.79,4.26-3.19,8.29-3.19,4.7,0,7,1,8.79,3.41,2.18,2.91,2.23,6.61,2.23,11.75,0,1.4-.11,1.63-1.28,1.63h-5.32c-.62,0-1.18-.28-1.18-.79v-3.91c0-2.3,0-3.14-.78-4.26a2.67,2.67,0,0,0-2.24-1.12,3,3,0,0,0-2.74,1.23c-1.06,1.63-1.06,8.34-1.06,12s.11,10.08,1,12a2.53,2.53,0,0,0,2.52,1.62c2.57,0,3.3-2,3.3-5.15v-3.41c0-1.46.33-1.52,1.73-1.52Z"/><path d="M219.93,106.26c.95,0,1.11.16,1.11,1.17v24.85c0,4.26,1.4,5.6,3.64,5.6,2.8,0,3.64-1.34,3.64-5.6V107.1c0-.68.11-.84.78-.84h6.05c.95,0,1,.16,1,1.12v25.74c0,9.46-3.36,12.88-11.48,12.88s-11.47-3.42-11.47-12.88v-26c0-.62.11-.84.73-.84Z"/><path d="M262,139.34a10.66,10.66,0,0,0,1.34,4.7,2.13,2.13,0,0,1,.39,1c0,.39-.45.45-.84.45H256a1.19,1.19,0,0,1-1.17-.73,12.49,12.49,0,0,1-.95-4.65c-.17-3.13-.51-8.11-1.68-9.57a3.37,3.37,0,0,0-2.47-1.12h-.33c-.9,0-.95.23-.95.95V144.6c0,.72-.06.84-1.07.84h-6.21c-.45,0-.56-.06-.56-.79V107.1c0-.84.23-.84,1-.84h8a20.32,20.32,0,0,1,7.33.89c3.58,1.46,6.32,4.54,6.32,10.41,0,3.92-1.73,5.94-3.8,7.17-.56.33-1.63.89-1.63,1.12s.84.44,1.74,1.68C261.23,129.82,261.56,134.19,262,139.34Zm-7.39-22.11c0-2.58-2-3.42-5.32-3.42-.5,0-.78.06-.78.67v6.44c0,.67.11,1,.56,1C252.33,121.93,254.57,120.42,254.57,117.23Z"/><path d="M274.88,136.15c0,1.23.67,1.45,1.79,1.45h8.79c1.34,0,1.51.11,1.51,1.23v4.82c0,1.56-.56,1.79-2,1.79H268.84c-1.4,0-1.79-.28-1.79-1.79V107.77c0-1.46.16-1.51,1.79-1.51H284.4c1.68,0,2.13.11,2.13,1.4v5.15c0,1.11-.17,1.28-1.24,1.28h-8.9c-1.12,0-1.51.17-1.51,1.29v5.15c0,1,.11,1.12,1.07,1.12h6.32c.73,0,1.06.17,1.06.95v5.54c0,.79-.28,1.06-1.06,1.06h-5.71c-1.23,0-1.68.17-1.68,1.35Z"/><path d="M298.16,144.21c0,1.11.12,1.23-1.06,1.23h-5.71c-.89,0-1.06.16-1.06-.79V107.1c0-.84.22-.84,1-.84h7.94a16,16,0,0,1,7.78,1.51c3.31,1.79,5.55,5.37,5.55,10.52,0,4.81-1.46,8.62-4.43,10.52-2.35,1.46-5.82,2-8.9,2-.89,0-1.12.11-1.12.84Zm5.77-25.92c0-2.57-1.68-4.2-5-4.2-.51,0-.79.06-.79.67v6.72c0,.67.12,1,.56,1C302,122.49,303.93,121.42,303.93,118.29Z"/><path d="M323.29,144.48c-.11.73-1.12,1-2,1h-3.7c-.95,0-2.18,0-2.18-.73a1.34,1.34,0,0,1,.06-.39l7.78-36.5c.28-1.34.56-1.56,2.24-1.56h5.26c1.4,0,1.56.56,1.79,1.62l7.83,36.55a3.83,3.83,0,0,1,.12.67c0,.28-.17.34-.84.34h-6.55c-.95,0-1-.28-1.12-1.12l-.84-5.26c-.11-.84-.45-.9-1.06-.9h-4.48c-1.07,0-1.23.06-1.35.56Zm5.6-10.8c.95,0,1.23-.45,1.23-1.17a4.47,4.47,0,0,0-.05-.79l-1.63-11.08c-.11-.84-.22-.89-.61-.89s-.4,0-.56.89l-1.74,10.52a7.45,7.45,0,0,0-.17,1.35c0,1.06.45,1.17,1,1.17Z"/><path d="M361.74,106.26c.62,0,.84,0,.84.33a2.63,2.63,0,0,1-.11.51l-5.65,21.77a12.94,12.94,0,0,0-.34,3.19v12.65c0,.67-.11.73-.78.73h-5.6c-.62,0-1.12,0-1.12-.68V131.33a8.13,8.13,0,0,0-.34-2.24l-5.76-21.32a3.51,3.51,0,0,1-.17-.9c0-.39.23-.61,1.12-.61h5.43c1.34,0,1.12.39,1.34,1.45l1.57,8.62c.17.79.34,1.23.56,1.23s.39-.39.56-1.17L355,106.7c.11-.44.11-.44.61-.44Z"/><path d="M386.53,129.2c1,0,1.35,0,1.35,1,0,6.32-.9,11.08-3.36,13.37-2,1.85-4.2,2.47-8.06,2.47-4.25,0-6.38-1.18-8.23-3.19-2.74-3-2.85-10.58-2.85-17.36,0-6.54,0-12.81,3.19-16.56,1.57-1.79,4.25-3.19,8.28-3.19,4.7,0,7,1,8.79,3.41,2.18,2.91,2.24,6.61,2.24,11.75,0,1.4-.11,1.63-1.29,1.63h-5.32c-.61,0-1.17-.28-1.17-.79v-3.91c0-2.3-.06-3.14-.79-4.26a2.67,2.67,0,0,0-2.23-1.12,3,3,0,0,0-2.75,1.23c-1.06,1.63-1.06,8.34-1.06,12s.11,10.08,1,12a2.53,2.53,0,0,0,2.52,1.62c2.57,0,3.3-2,3.3-5.15v-3.41c0-1.46.34-1.52,1.74-1.52Z"/><path d="M399.13,144.48c-.12.73-1.12,1-2,1h-3.69c-1,0-2.19,0-2.19-.73a1.34,1.34,0,0,1,.06-.39l7.78-36.5c.28-1.34.56-1.56,2.24-1.56h5.26c1.4,0,1.57.56,1.79,1.62l7.84,36.55a4.8,4.8,0,0,1,.11.67c0,.28-.17.34-.84.34h-6.55c-.95,0-1-.28-1.12-1.12l-.84-5.26c-.11-.84-.45-.9-1.06-.9h-4.48c-1.06,0-1.23.06-1.34.56Zm5.59-10.8c.95,0,1.23-.45,1.23-1.17a4.47,4.47,0,0,0-.05-.79l-1.63-11.08c-.11-.84-.22-.89-.61-.89s-.39,0-.56.89l-1.74,10.52a7.29,7.29,0,0,0-.16,1.35c0,1.06.44,1.17.95,1.17Z"/><path d="M441,139.34a10.66,10.66,0,0,0,1.34,4.7,2.13,2.13,0,0,1,.39,1c0,.39-.44.45-.84.45h-6.82a1.19,1.19,0,0,1-1.18-.73,12.7,12.7,0,0,1-.95-4.65c-.17-3.13-.5-8.11-1.68-9.57a3.37,3.37,0,0,0-2.46-1.12h-.34c-.89,0-.95.23-.95.95V144.6c0,.72-.06.84-1.06.84h-6.22c-.44,0-.56-.06-.56-.79V107.1c0-.84.23-.84,1-.84h7.95a20.29,20.29,0,0,1,7.33.89c3.58,1.46,6.33,4.54,6.33,10.41,0,3.92-1.74,5.94-3.81,7.17-.56.33-1.62.89-1.62,1.12s.84.44,1.73,1.68C440.26,129.82,440.6,134.19,441,139.34Zm-7.39-22.11c0-2.58-2-3.42-5.32-3.42-.5,0-.78.06-.78.67v6.44c0,.67.11,1,.56,1C431.36,121.93,433.6,120.42,433.6,117.23Z"/><path d="M446.08,143.59V108.27c0-1.85.67-2,2.63-2h7.56c11.41,0,11.75,7.33,11.75,19.59s-.34,19.59-11.75,19.59h-7.56C446.64,145.44,446.08,145.83,446.08,143.59Zm12.59-7.16c1.07-1.57,1.12-5.43,1.12-11.14s-.05-9-.89-10.69a3.16,3.16,0,0,0-3.19-1.63c-.9,0-1.79-.11-1.79,1.29v22.28c0,1,.67,1.06,1.79,1.06A3.24,3.24,0,0,0,458.67,136.43Z"/><path class="cls-1" d="M128.61,90.34a11.28,11.28,0,0,1-1.08,9.65,173.3,173.3,0,0,1-23.41,29.87c-.78.8-19.43,19.79-30.15,24.52a14.78,14.78,0,0,1-6,1.4,10.52,10.52,0,0,1-3.75-.67A9.79,9.79,0,0,1,62.06,154c-17-11.56-25.88-21.41-27-22.68A177.7,177.7,0,0,1,10.15,99.16L5.7,92l28.66,3.87,1,1.34a179,179,0,0,0,16,18.4,178.09,178.09,0,0,0,17.25,15.22A151.06,151.06,0,0,0,88,114.06a150.38,150.38,0,0,0,12.39-14.38L7.44,65.92A11.32,11.32,0,0,1,0,55.31V30.16a11.24,11.24,0,0,1,8.74-11c8.56-2,17.15-4.36,25.51-7,10-3.22,20-7,29.63-11.17A11.33,11.33,0,0,1,73,1a266,266,0,0,0,29.43,11.1,264.84,264.84,0,0,0,27.74,7,11.35,11.35,0,0,1,9.13,11l.31,35.79L116.69,53.13l0-13.82c-7.08-1.62-14.13-3.52-21-5.66A288.08,288.08,0,0,1,68.33,23.59c-8.89,3.72-18,7.09-27.17,10-6.1,2-12.33,3.76-18.57,5.39V47.4l99.2,36A11.23,11.23,0,0,1,128.61,90.34Z"/></g></g></svg>