<?xml version="1.0" encoding="UTF-8"?>
<svg width="1083.5" height="398.4" version="1.1" viewBox="0 0 1083.5 398.39999" xml:space="preserve" xmlns="http://www.w3.org/2000/svg" xmlns:cc="http://creativecommons.org/ns#" xmlns:dc="http://purl.org/dc/elements/1.1/" xmlns:rdf="http://www.w3.org/1999/02/22-rdf-syntax-ns#"><metadata><rdf:RDF><cc:Work rdf:about=""><dc:format>image/svg+xml</dc:format><dc:type rdf:resource="http://purl.org/dc/dcmitype/StillImage"/><dc:title/></cc:Work></rdf:RDF></metadata>
<style type="text/css">
	.st0{fill:#FF0000;}
	.st1{fill:#FFFFFF;}
</style>
<g transform="translate(-8.6,-8.6)">
		<path d="m80.8 16.1-72.2 211.7h42.5l20.4-61.8h58.6l21 61.8h43.3l-72.3-211.7zm39.1 114.8h-38l15.8-46.6c1.1-3.2 2.1-6.3 3-9.5 1 3.2 2 6.5 3.2 9.8z"/>
		<path d="m265.8 131.4c-19.5-7.8-21.7-11.3-21.7-17 0-7.1 6-11.6 15.6-11.6 11.5 0 20.4 4.6 24.7 7.3l8.3 5.2 11-33.6-4.9-3.2c-9.6-6.3-24-10-38.6-10-32.6 0-56.3 20.6-56.3 49.1 0 26.1 23.2 40.1 42.6 47.1 19.4 7.3 20.9 12.2 20.9 18.4 0 11.6-12.2 13.3-19.4 13.3-11.2 0-23.3-4.8-30.2-8.8l-8.3-4.9-10.9 34.3 5.3 3.1c11.9 7 27.7 11 43.5 11 36 0 60.1-20.2 60.1-50.2 0.2-30.4-23.8-42.8-41.7-49.5z"/>
		<path d="m371.5 35-40.4 12.2v24.2h-21.8v34.9h21.8v69.2c0 19.3 3.9 33.1 11.9 42.2 7.8 8.6 19.7 13.3 33.3 13.3 12.3 0 21.1-2.5 25.3-3.9l5.5-1.9-2.1-35-9.3 2.8c-2.8 0.8-6 1.4-12.6 1.4-4.9 0-11.5 0-11.5-19.7v-68.4h36.7v-34.9h-36.7v-36.4z"/>
		<path d="m506.6 70-7.4-0.9c-2.2-0.3-4.4-0.6-7.3-0.6-12.8 0-24.6 5.3-33.5 14.4l-0.4-11.5h-38l0.5 8.2c0.8 12 1.2 25.8 1.2 43.5v104.7h41v-82.8c0-3.9 0.3-7.8 0.7-10.6 3-16.2 13.2-26.3 26.8-26.3 3.2 0 5.3 0 7.1 0.4l9.3 2z"/>
		<path d="m581.4 68.5c-45.7 0-77.6 33.8-77.6 82.3 0 47.2 30.9 80.2 75.2 80.2 37.5 0 77.9-25.8 77.9-82.6 0.1-47-31-79.9-75.5-79.9zm34 80.8c0 27.3-14.8 47.1-35.1 47.1-20.2 0-34.9-19.6-34.9-46.5 0-17.4 7.5-46.8 35.5-46.8 27.3 0 34.5 30.2 34.5 46.2z"/>
		<path d="m791.4 32.9c-13.5-12.1-33.7-18.3-60.2-18.3-17.7 0-34.5 1.3-49.9 3.9l-6.4 1.1v208.2h40.7v-77.4c4.2 0.4 8.5 0.5 12.7 0.5 27.5 0 50.8-8.5 65.5-23.9 11.5-11.8 17.3-27.7 17.3-47.3 0-18.9-7-35.5-19.7-46.8zm-21 48.2c0 29.6-26 34-41.6 34-5.2 0-9.6-0.2-13.3-0.7v-63.5c3.9-0.5 9.4-0.8 16.2-0.8 17.7 0 38.7 5.4 38.7 31z"/>
		<path d="m935.8 186.3v-52.7c0-42-21.8-65.1-61.3-65.1-18.3 0-37.3 5-50.7 13.4l-5.1 3.2 11 32.5 8.4-5.7c8.5-5.7 20.7-9.2 32.8-9.2 8.2-0.1 14.3 1.8 18.2 5.7 3.3 3.2 5.3 8.1 5.9 14.3-32 0.9-55.4 8.6-69.6 22.7-9.9 9.8-14.9 22.4-14.9 37.3 0 23.9 17.4 48.2 50.8 48.2 14.2 0 27.7-4.5 38.1-12.6l1.1 9.3h38.8l-1.3-8.8c-1.6-8.4-2.2-19.4-2.2-32.5zm-68.3 10.4c-6.1 0-16.2-2.2-16.2-16.8 0-5.6 1.7-10 5.3-13.5 4.8-4.7 15.4-10.1 39.1-10.6v16.8c0 1.2-0.1 3.5-0.8 5.7-2.9 8.5-11.8 18.4-27.4 18.4z"/>
		<path d="m1048.5 71.4-29.7 87.9c-0.8 2.2-1.5 4.5-2.2 6.7-0.8-2.2-1.5-4.3-2.3-6.3l-32.4-88.3h-44.7l56 140.4 0.2 0.4c0.9 1.8 1.2 2.9 1.3 3.3-0.3 0.8-0.9 2.2-1.3 3.1-4.8 10.4-12.1 20-19.3 25.8l-0.2 0.2c-8.2 6.9-16.6 10.1-19.8 11.1l-7.2 2.3 10.5 35 6.7-1.2c4.1-0.7 18.6-4.2 35.2-18.1 19.9-17.6 33.1-45.7 50.4-91.3l42.4-110.9h-43.6z"/>
		<path class="st0" d="m158.2 74.3c26.4-26.9 71.1-43 119.7-43 18.9 0 37.4 2.4 54.8 7.2l1.4 0.4 31.2-9.4-14-5.3c-26.6-10.2-57.2-15.6-88.7-15.6-45.6 0-88.2 11-120 31l-3.4 2.2 13.1 38.4z" fill="#f00"/>
	<path class="st0" d="m925.1 385.6c0 11.8-9.6 21.4-21.4 21.4h-233.2c-11.8 0-21.5-9.6-21.5-21.4v-100.9c0-11.8 9.7-21.5 21.5-21.5h233.2c11.8 0 21.4 9.7 21.4 21.5z" fill="#f00"/>
	<g fill="#fff">
		<path class="st1" d="m713.2 309.5c-6.9 0-12.4 2.5-16.3 7.4-4 4.9-6 11.6-6 20.3 0 9 2 15.8 5.8 20.5s9.3 6.9 16.5 6.9c3.1 0 6.1-0.2 9-1 3-0.6 5.9-1.3 9.1-2.4v10.4c-5.8 2.2-12.2 3.3-19.6 3.3-10.8 0-19.1-3.3-24.8-9.8-5.8-6.5-8.7-15.9-8.7-28 0-7.7 1.4-14.4 4.2-20.1 2.9-5.8 6.9-10.2 12.2-13.2 5.2-3.1 11.5-4.6 18.5-4.6 7.6 0 14.5 1.6 20.9 4.7l-4.3 10.1c-2.4-1.3-5-2.2-7.8-3.1s-5.7-1.4-8.7-1.4z"/>
		<path class="st1" d="m780.8 374-2.4-7.7h-0.4c-2.6 3.3-5.3 5.6-8.1 6.9-2.6 1.2-6.1 1.9-10.3 1.9-5.5 0-9.8-1.5-12.9-4.5-3-3-4.6-7.1-4.6-12.5 0-5.8 2.1-10.2 6.4-13 4.2-2.9 10.7-4.5 19.4-4.7l9.7-0.3v-3c0-3.6-0.8-6.2-2.5-8-1.6-1.8-4.2-2.7-7.7-2.7-2.8 0-5.6 0.4-8.2 1.3-2.7 0.9-5.1 1.8-7.6 3l-3.8-8.4c3.1-1.6 6.3-2.9 9.9-3.7 3.7-0.9 7.1-1.2 10.3-1.2 7.1 0 12.4 1.6 16 4.7 3.7 3 5.5 7.8 5.5 14.5v37.4zm-17.6-8.1c4.2 0 7.7-1.2 10.3-3.6s4-5.8 4-10.2v-4.7l-7.1 0.3c-5.6 0.2-9.7 1.2-12.3 2.9-2.5 1.6-3.7 4.1-3.7 7.6 0 2.5 0.8 4.4 2.2 5.7s3.6 2 6.6 2z"/>
		<path class="st1" d="m832.3 317.2c2.4 0 4.3 0.1 5.9 0.5l-1.1 11.1c-1.6-0.4-3.4-0.6-5.3-0.6-4.7 0-8.5 1.5-11.5 4.7-2.9 3.1-4.4 7.1-4.4 12v29.1h-11.8v-55.7h9.2l1.7 9.8h0.6c1.9-3.3 4.2-5.9 7.2-7.9 2.9-2 6.2-3 9.5-3z"/>
		<path class="st1" d="m867.3 375c-6.9 0-12.3-2.6-16.2-7.6-4-5-5.9-12.1-5.9-21.2 0-9.2 1.9-16.2 6-21.3 3.8-5.1 9.3-7.7 16.3-7.7 7.3 0 12.8 2.7 16.7 8.1h0.5c-0.5-4.1-0.7-7.1-0.7-9.5v-20.2h11.8v78.4h-9.3l-2-7.3h-0.5c-3.7 5.5-9.4 8.3-16.7 8.3zm3.3-9.7c4.9 0 8.4-1.3 10.6-4 2.3-2.7 3.4-7.3 3.5-13.3v-1.7c0-7-1.2-12.1-3.5-15-2.2-2.9-5.8-4.4-10.7-4.4-4.2 0-7.4 1.6-9.7 5.1-2.1 3.4-3.3 8.2-3.3 14.4s1 10.9 3.2 14.1c2.1 3.2 5.4 4.8 9.9 4.8z"/>
	</g>
</g>
</svg>
