<?xml version="1.0" encoding="UTF-8" standalone="no"?>
<svg
   xmlns:dc="http://purl.org/dc/elements/1.1/"
   xmlns:cc="http://creativecommons.org/ns#"
   xmlns:rdf="http://www.w3.org/1999/02/22-rdf-syntax-ns#"
   xmlns:svg="http://www.w3.org/2000/svg"
   xmlns="http://www.w3.org/2000/svg"
   xmlns:sodipodi="http://sodipodi.sourceforge.net/DTD/sodipodi-0.dtd"
   xmlns:inkscape="http://www.inkscape.org/namespaces/inkscape"
   sodipodi:docname="BV.svg"
   inkscape:version="1.0.2 (e86c8708, 2021-01-15)"
   id="svg2364"
   version="1.1"
   viewBox="0 0 158.74999 158.75"
   height="600"
   width="600">
  <defs
     id="defs2358" />
  <sodipodi:namedview
     inkscape:window-maximized="0"
     inkscape:window-y="25"
     inkscape:window-x="0"
     inkscape:window-height="901"
     inkscape:window-width="1251"
     inkscape:showpageshadow="false"
     borderlayer="false"
     units="px"
     showgrid="false"
     inkscape:document-rotation="0"
     inkscape:current-layer="layer1"
     inkscape:document-units="px"
     inkscape:cy="1321.8387"
     inkscape:cx="-635.68281"
     inkscape:zoom="0.22627417"
     inkscape:pageshadow="2"
     inkscape:pageopacity="0"
     borderopacity="1.0"
     bordercolor="#666666"
     pagecolor="#cccccc"
     id="base"
     inkscape:snap-global="true"
     inkscape:object-paths="true"
     inkscape:snap-intersection-paths="true"
     inkscape:snap-bbox="true"
     inkscape:bbox-paths="true"
     inkscape:bbox-nodes="true"
     inkscape:snap-bbox-edge-midpoints="true"
     inkscape:snap-bbox-midpoints="true"
     inkscape:snap-smooth-nodes="true"
     showborder="false" />
  <metadata
     id="metadata2361">
    <rdf:RDF>
      <cc:Work
         rdf:about="">
        <dc:format>image/svg+xml</dc:format>
        <dc:type
           rdf:resource="http://purl.org/dc/dcmitype/StillImage" />
        <dc:title />
      </cc:Work>
    </rdf:RDF>
  </metadata>
  <g
     id="layer1"
     inkscape:groupmode="layer"
     inkscape:label="Layer 1">
    <path
       id="rect578"
       style="fill:#004580;fill-opacity:1;stroke:none;stroke-width:0.379078"
       d="M 23.812498,-2e-7 H 134.93751 c 13.19212,0 23.8125,10.6203742 23.8125,23.8124952 V 134.9375 c 0,13.19212 -10.62038,23.8125 -23.8125,23.8125 H 23.812498 C 10.620375,158.75 10e-7,148.12962 10e-7,134.9375 V 23.812495 C 10e-7,10.620374 10.620375,-2e-7 23.812498,-2e-7 Z" />
    <g
       id="g551"
       transform="translate(-53.43629,25.305771)" />
    <path
       id="path74"
       style="fill:#0e71ba;fill-opacity:1;stroke:none;stroke-width:0.999991px;stroke-linecap:butt;stroke-linejoin:miter;stroke-opacity:1"
       d="M 90 0 C 40.140006 -1.8947806e-14 1.3926359e-16 40.140014 0 90 L 0 510 C 0 546.07276 21.012806 577.05394 51.513672 591.43164 L 126.77148 450 L 366.2207 0 L 90 0 z "
       transform="scale(0.26458332)" />
    <path
       class="st0"
       d="m 52.094144,110.23811 c -0.334151,0.6683 -0.831096,0.99391 -1.490857,0.99391 H 37.70829 c -0.334163,0 -0.582641,-0.16278 -0.745422,-0.49695 -0.171358,-0.3256 -0.248489,-0.65977 -0.248489,-0.99391 L 77.892716,32.353969 c 0.325598,-0.325585 0.822541,-0.496949 1.490855,-0.496949 0.659749,0 1.156692,0.171364 1.490855,0.496949 l 41.161194,77.387191 c 0,0.33414 -0.0857,0.66831 -0.24847,0.99391 -0.17136,0.33417 -0.41984,0.49695 -0.74543,0.49695 h -12.89501 c -0.6683,0 -1.16526,-0.32561 -1.49084,-0.99391 L 80.857296,60.628741 c -0.334163,-0.659753 -0.831118,-0.99391 -1.490866,-0.99391 -0.668303,0 -1.165258,0.334157 -1.490844,0.99391 z"
       id="path20"
       style="fill:#ffffff;stroke:none;stroke-width:0.264583"
       sodipodi:nodetypes="csscccscccssccscc" />
    <path
       id="path410"
       style="font-style:normal;font-variant:normal;font-weight:bold;font-stretch:normal;font-size:31.75px;line-height:1.25;font-family:Rambla;-inkscape-font-specification:'Rambla Bold';text-align:end;text-anchor:end;fill:#0e71ba;fill-opacity:1;stroke:none;stroke-width:0.264582"
       d="m 123.82578,141.82724 h -5.11175 l -4.22275,-7.33425 -4.2545,7.33425 h -4.8895 l 6.82625,-10.6045 -6.50875,-10.57275 h 4.8895 l 4.0005,7.20725 3.96875,-7.20725 h 4.953 l -6.604,10.38225 z m -29.352378,-2.69875 h -3.33375 l -4.3815,-12.5095 -0.508,15.20825 h -4.22275 l 1.23825,-21.209 h 4.953 l 4.572,13.6525 4.60375,-13.6525 h 4.952998 l 1.23825,21.209 h -4.254498 l -0.508,-15.1765 z" />
  </g>
</svg>
