<svg width="1024" height="512" viewBox="0 0 1024 512" fill="none" xmlns="http://www.w3.org/2000/svg">
<path fill-rule="evenodd" clip-rule="evenodd" d="M449.845 398.765C450.861 396.284 451.368 393.565 451.368 390.61V381.337C451.368 378.404 450.861 375.697 449.845 373.215C448.83 370.711 447.42 368.567 445.615 366.785C443.81 364.98 441.667 363.57 439.185 362.555C436.726 361.539 434.041 361.032 431.131 361.032H419.219C416.308 361.032 413.612 361.539 411.13 362.555C408.649 363.57 406.505 364.98 404.7 366.785C402.895 368.567 401.474 370.711 400.436 373.215C399.421 375.697 398.913 378.404 398.913 381.337V390.61C398.913 393.565 399.421 396.284 400.436 398.765C401.474 401.247 402.895 403.39 404.7 405.195C406.505 407 408.649 408.41 411.13 409.426C413.612 410.418 416.308 410.915 419.219 410.915H431.131C434.041 410.915 436.726 410.418 439.185 409.426C441.667 408.41 443.81 407 445.615 405.195C447.42 403.39 448.83 401.247 449.845 398.765ZM441.723 376.633C442.287 378.032 442.569 379.6 442.569 381.337V390.61C442.569 392.347 442.287 393.926 441.723 395.347C441.182 396.746 440.404 397.953 439.388 398.968C438.373 399.961 437.155 400.74 435.733 401.304C434.335 401.845 432.778 402.116 431.063 402.116H419.219C417.504 402.116 415.936 401.845 414.514 401.304C413.116 400.74 411.909 399.961 410.893 398.968C409.878 397.953 409.089 396.746 408.524 395.347C407.983 393.926 407.712 392.347 407.712 390.61V381.337C407.712 379.6 407.983 378.032 408.524 376.633C409.089 375.211 409.878 374.004 410.893 373.012C411.909 371.996 413.116 371.218 414.514 370.677C415.936 370.113 417.504 369.831 419.219 369.831H431.131C432.823 369.831 434.368 370.113 435.767 370.677C437.189 371.218 438.396 371.996 439.388 373.012C440.404 374.004 441.182 375.211 441.723 376.633ZM375.224 370.507H394.615V361.709H347V370.507H366.425V410.238H375.224V370.507ZM508.493 389.933C508.493 392.888 507.974 395.607 506.937 398.089C505.921 400.57 504.511 402.714 502.706 404.519C500.901 406.301 498.758 407.7 496.276 408.715C493.795 409.73 491.099 410.238 488.188 410.238H464.431C463.8 410.238 463.213 410.125 462.671 409.899C462.13 409.674 461.656 409.369 461.25 408.986C460.867 408.58 460.562 408.106 460.336 407.564C460.111 407.023 459.998 406.436 459.998 405.805V366.142C459.998 365.533 460.111 364.957 460.336 364.416C460.562 363.874 460.867 363.401 461.25 362.995C461.656 362.588 462.13 362.273 462.671 362.047C463.213 361.821 463.8 361.709 464.431 361.709H488.188C491.099 361.709 493.795 362.216 496.276 363.231C498.758 364.247 500.901 365.657 502.706 367.462C504.511 369.244 505.921 371.387 506.937 373.892C507.974 376.373 508.493 379.081 508.493 382.014V389.933ZM499.694 382.014C499.694 380.299 499.412 378.731 498.848 377.31C498.307 375.888 497.529 374.681 496.513 373.689C495.498 372.673 494.28 371.895 492.858 371.354C491.46 370.789 489.903 370.507 488.188 370.507H468.797V401.439H488.188C489.903 401.439 491.46 401.168 492.858 400.627C494.28 400.063 495.498 399.284 496.513 398.292C497.529 397.276 498.307 396.069 498.848 394.671C499.412 393.249 499.694 391.67 499.694 389.933V382.014ZM555.94 410.238H564.738V366.142C564.738 365.533 564.626 364.957 564.4 364.416C564.174 363.874 563.859 363.401 563.452 362.995C563.046 362.588 562.573 362.273 562.031 362.047C561.49 361.821 560.914 361.709 560.305 361.709H540.474C536.977 361.709 533.751 362.306 530.795 363.502C527.84 364.698 525.279 366.367 523.113 368.511C520.947 370.654 519.255 373.215 518.037 376.193C516.818 379.171 516.209 382.431 516.209 385.973V410.238H525.008V398.325H555.94V410.238ZM555.94 370.507V389.527H525.008V385.973C525.008 383.514 525.347 381.427 526.023 379.712C526.723 377.975 527.603 376.531 528.663 375.381C529.723 374.23 530.885 373.328 532.149 372.673C533.412 372.019 534.608 371.534 535.736 371.218C536.887 370.902 537.891 370.711 538.748 370.643C539.628 370.553 540.203 370.507 540.474 370.507H555.94ZM578.984 405.251C578.984 408.013 581.222 410.251 583.984 410.251H672.184C674.945 410.251 677.184 408.013 677.184 405.251V385.987C677.184 382.445 676.575 379.185 675.356 376.207C674.138 373.228 672.446 370.668 670.28 368.524C668.114 366.381 665.553 364.712 662.598 363.516C659.642 362.32 656.416 361.722 652.919 361.722H583.417C582.808 361.722 582.232 361.835 581.691 362.061C581.15 362.286 580.676 362.602 580.27 363.008C579.864 363.414 579.548 363.888 579.322 364.43C579.096 364.971 578.984 365.546 578.984 366.155V405.251ZM665.278 382.465C665.278 383.402 665.157 384.239 664.915 384.976C664.683 385.713 664.372 386.366 663.983 386.935C663.593 387.493 663.135 387.972 662.609 388.372C662.093 388.772 661.556 389.104 660.998 389.367C660.44 389.62 659.872 389.804 659.292 389.92C658.724 390.035 658.187 390.093 657.682 390.093H656.023V397.532H651.886V390.093H650.243C649.738 390.093 649.196 390.035 648.616 389.92C648.048 389.804 647.479 389.62 646.911 389.367C646.353 389.104 645.816 388.772 645.3 388.372C644.784 387.972 644.326 387.493 643.926 386.935C643.536 386.366 643.221 385.713 642.978 384.976C642.747 384.229 642.631 383.392 642.631 382.465V374.885H646.737V382.465C646.737 383.002 646.821 383.487 646.99 383.918C647.158 384.339 647.395 384.703 647.7 385.008C648.006 385.313 648.374 385.55 648.806 385.719C649.248 385.877 649.738 385.956 650.275 385.956H657.682C658.071 385.892 658.471 385.813 658.882 385.719C659.292 385.613 659.666 385.44 660.003 385.198C660.34 384.955 660.619 384.618 660.84 384.187C661.061 383.755 661.172 383.181 661.172 382.465V374.885H665.278V382.465ZM634.814 397.532H638.92V376.954C638.92 376.669 638.867 376.401 638.762 376.148C638.656 375.896 638.509 375.674 638.32 375.485C638.13 375.295 637.909 375.148 637.656 375.043C637.404 374.937 637.135 374.885 636.851 374.885H627.596C625.964 374.885 624.459 375.164 623.079 375.722C621.7 376.28 620.505 377.059 619.495 378.059C618.484 379.059 617.694 380.254 617.126 381.644C616.557 383.034 616.273 384.555 616.273 386.208V397.532H620.379V391.973H634.814V397.532ZM634.814 387.866H620.379V386.208C620.379 385.061 620.537 384.087 620.853 383.287C621.179 382.476 621.59 381.802 622.085 381.265C622.579 380.728 623.122 380.307 623.711 380.002C624.301 379.696 624.859 379.47 625.385 379.323C625.922 379.175 626.391 379.086 626.791 379.054C627.201 379.012 627.47 378.991 627.596 378.991H634.814V387.866ZM613.178 384.36C613.178 385.298 613.062 386.135 612.83 386.872C612.598 387.609 612.283 388.261 611.883 388.83C611.493 389.388 611.04 389.867 610.524 390.267C610.008 390.667 609.466 390.993 608.898 391.246C608.34 391.499 607.771 391.683 607.192 391.799C606.623 391.915 606.087 391.973 605.581 391.973H596.295V387.866H605.581C606.108 387.824 606.581 387.719 607.003 387.551C607.434 387.372 607.803 387.135 608.108 386.84C608.413 386.545 608.65 386.192 608.819 385.782C608.987 385.361 609.071 384.887 609.071 384.36V382.497C609.019 381.981 608.908 381.507 608.74 381.076C608.571 380.644 608.34 380.275 608.045 379.97C607.761 379.665 607.413 379.428 607.003 379.259C606.592 379.08 606.118 378.991 605.581 378.991H596.327C595.779 378.991 595.363 379.133 595.079 379.417C594.795 379.702 594.652 380.112 594.652 380.649V397.532H590.546V380.649C590.546 379.596 590.736 378.701 591.115 377.964C591.504 377.227 591.983 376.633 592.552 376.18C593.131 375.727 593.758 375.401 594.431 375.201C595.105 374.99 595.726 374.885 596.295 374.885H605.581C606.508 374.885 607.339 375.006 608.076 375.248C608.813 375.48 609.461 375.795 610.019 376.196C610.587 376.585 611.067 377.038 611.456 377.554C611.856 378.07 612.183 378.612 612.435 379.18C612.698 379.738 612.888 380.307 613.004 380.886C613.12 381.455 613.178 381.992 613.178 382.497V384.36Z" fill="#071D7E"/>
<path d="M435.381 134.409C434.447 135.579 433.549 136.75 432.78 137.774C432.578 138.085 432.377 138.359 432.194 138.634C432.652 137.993 433.128 137.317 433.622 136.658C434.172 135.927 434.776 135.159 435.381 134.39V134.409Z" fill="#071D7E"/>
<path d="M590.413 222.837C591.75 219.271 592.721 216.052 593.563 213.217C593.6 213.089 593.637 212.961 593.673 212.815C594.113 211.096 594.516 209.376 594.809 207.877C594.882 207.474 594.955 207.035 595.047 206.596C595.23 205.517 595.395 204.456 595.542 203.396C596.073 199.482 596.311 195.842 596.476 193.062C596.476 193.007 596.476 192.952 596.476 192.897C595.963 201.109 593.307 209.267 589.167 217.113C585.119 224.794 579.643 232.183 573.36 239.042C565.594 247.51 556.6 255.155 547.552 261.52C542.387 265.141 537.221 268.342 532.239 271.048C532.294 270.994 532.331 270.939 532.386 270.866C522.238 276.389 511.67 279.242 501.357 279.59C501.357 279.754 501.357 279.974 501.357 280.23C501.815 280.541 503.116 280.413 504.16 280.522C504.636 280.541 505.094 280.559 505.57 280.559C505.497 280.559 505.405 280.577 505.332 280.577C505.442 280.577 505.552 280.577 505.662 280.596C506.376 280.596 507.164 280.596 507.951 280.577C508.702 280.577 509.453 280.559 510.149 280.541C510.259 280.541 510.387 280.522 510.497 280.522C510.571 280.522 510.626 280.522 510.699 280.522C511.999 280.468 513.684 280.34 515.077 280.212C515.131 280.212 515.186 280.193 515.241 280.193C515.516 280.175 515.754 280.157 515.992 280.12C517.018 280.01 518.172 279.864 519.088 279.736C519.253 279.718 519.418 279.681 519.601 279.663C519.637 279.663 519.692 279.645 519.729 279.645C519.747 279.645 519.747 279.645 519.766 279.645C520.755 279.498 521.872 279.315 523.063 279.096C523.191 279.078 523.337 279.041 523.466 279.004C523.575 278.986 523.685 278.968 523.795 278.95C524.62 278.785 525.407 278.62 526.14 278.474C526.415 278.401 526.726 278.346 527.092 278.255C527.129 278.255 527.166 278.236 527.202 278.236C527.532 278.163 527.862 278.072 528.21 277.98C529.107 277.742 529.785 277.578 530.298 277.45C531.14 277.212 531.946 276.993 532.752 276.755C532.935 276.7 533.155 276.627 533.393 276.554C533.631 276.48 533.851 276.407 534.034 276.352C534.584 276.17 535.188 275.987 535.793 275.767C535.939 275.712 536.086 275.657 536.251 275.603C536.324 275.584 536.397 275.548 536.47 275.529C537.331 275.218 538.174 274.926 538.98 274.615C538.998 274.615 539.016 274.597 539.035 274.597C540.17 274.158 540.61 273.993 541.691 273.518C541.855 273.444 542.02 273.39 542.167 273.316C542.79 273.042 543.376 272.786 543.944 272.53C544.053 272.475 544.182 272.42 544.31 272.365L546.178 271.469C557.736 265.745 568.195 257.24 577.28 246.156C577.738 245.571 578.177 245.004 578.617 244.437C578.709 244.328 578.8 244.199 578.873 244.09L579.569 243.157C580.302 242.114 580.888 241.237 581.401 240.468C581.951 239.627 582.5 238.749 583.031 237.908C583.214 237.597 583.416 237.304 583.581 237.012C584.478 235.475 585.412 233.756 586.933 230.94C588.343 228.086 589.479 225.398 590.431 222.856L590.413 222.837Z" fill="#071D7E"/>
<path d="M565.612 223.021C572.17 215.779 577.903 208.115 582.262 200.196C587.208 191.216 590.395 181.925 591.036 172.597C591.512 165.556 590.541 158.496 587.757 151.564L587.684 151.418C586.677 149.351 585.285 146.736 584.057 144.596C583.764 144.102 583.416 143.572 583.05 142.986C582.171 141.615 581.053 139.914 579.496 137.536C578.526 136.201 577.793 135.213 577.097 134.317C576.383 133.421 575.65 132.543 574.972 131.738C574.661 131.373 574.313 131.007 573.946 130.586C572.829 129.361 571.4 127.843 569.331 125.648C569.294 125.611 569.257 125.575 569.221 125.538C568.049 124.423 567.133 123.545 566.29 122.795C565.301 121.935 564.294 121.094 563.378 120.326C563.268 120.234 563.158 120.143 563.048 120.051C561.693 118.991 560.008 117.747 557.48 115.863C557.333 115.753 557.205 115.662 557.059 115.552L556.656 115.278C556.875 115.424 557.113 115.607 557.333 115.772C558.689 116.759 560.264 117.985 561.4 119.046C566.07 123.417 569.129 128.337 570.796 133.622C573.031 140.664 572.829 148.382 570.704 156.411C568.067 166.397 562.499 176.859 555.007 187.137C547.662 197.215 538.467 207.091 528.43 216.126C503.189 238.805 472.527 256.18 451.884 257.918C447.58 257.863 446.646 257.497 444.942 256.436C445.309 256.765 445.675 257.095 446.041 257.424C446.115 257.497 446.188 257.552 446.261 257.625C447.25 258.466 448.313 259.344 449.393 260.204C450.914 261.429 452.434 262.636 453.808 263.679C453.936 263.77 454.064 263.88 454.174 263.971C455.016 264.538 455.731 265.032 456.409 265.49C457.233 266.02 458.13 266.569 459.064 267.136C460.072 267.739 461.116 268.361 462.178 268.983C463.497 269.696 465.091 270.519 467.252 271.635C467.472 271.745 467.692 271.854 467.911 271.982C468.259 272.129 468.607 272.293 468.974 272.458C469.945 272.878 471.007 273.317 472.069 273.738C472.93 274.086 473.773 274.415 474.579 274.744C475.092 274.945 475.586 275.128 476.062 275.311C476.172 275.348 476.3 275.402 476.41 275.439L476.667 275.494C476.868 275.567 477.051 275.658 477.253 275.732C488.28 277.286 515.15 265.288 540.024 246.304C549.109 239.372 557.938 231.508 565.612 223.04V223.021Z" fill="#071D7E"/>
<path d="M565.612 223.661C572.17 216.418 577.903 208.755 582.262 200.835C587.208 191.855 590.395 182.564 591.036 173.236C591.512 166.195 590.541 159.135 587.757 152.203L587.684 152.057C586.677 149.99 585.285 147.375 584.057 145.235C583.764 144.741 583.416 144.211 583.05 143.626C582.171 142.254 581.053 140.553 579.496 138.175C578.526 136.859 577.793 135.853 577.097 134.956C576.383 134.06 575.65 133.182 574.972 132.378C574.661 132.012 574.313 131.646 573.946 131.225C572.829 130 571.4 128.482 569.331 126.287C569.294 126.251 569.257 126.214 569.221 126.178C568.049 125.062 567.133 124.184 566.29 123.434C565.301 122.574 564.294 121.733 563.378 120.965C563.268 120.874 563.158 120.782 563.048 120.709C561.693 119.648 560.008 118.404 557.48 116.521C557.333 116.411 557.205 116.319 557.059 116.21L556.656 115.935C556.875 116.082 557.113 116.265 557.333 116.429C558.689 117.417 560.264 118.642 561.4 119.703C566.07 124.074 569.129 128.994 570.796 134.28C573.031 141.321 572.829 149.039 570.704 157.068C568.067 167.055 562.499 177.516 555.007 187.795C547.662 197.872 538.467 207.749 528.43 216.765C503.189 239.444 472.527 256.819 451.884 258.557C447.58 258.502 446.646 258.136 444.942 257.075C445.309 257.405 445.675 257.734 446.041 258.063C446.115 258.136 446.188 258.191 446.261 258.264C447.25 259.106 448.313 259.983 449.393 260.843C450.914 262.068 452.434 263.276 453.808 264.318C453.936 264.41 454.064 264.501 454.174 264.611C455.016 265.178 455.731 265.671 456.409 266.129C457.233 266.659 458.13 267.208 459.064 267.775C460.072 268.378 461.116 269 462.178 269.604C463.497 270.317 465.091 271.14 467.252 272.256C467.472 272.365 467.692 272.475 467.911 272.603C468.259 272.75 468.607 272.914 468.974 273.079C469.945 273.499 471.007 273.938 472.069 274.359C472.93 274.707 473.773 275.036 474.579 275.365C475.092 275.566 475.586 275.749 476.062 275.932C476.172 275.968 476.3 276.023 476.41 276.06L476.667 276.115C476.868 276.188 477.051 276.279 477.253 276.353C488.28 277.907 515.15 265.909 540.024 246.925C549.109 239.993 557.938 232.129 565.612 223.661Z" fill="#071D7E"/>
<path d="M454.1 132.689C451.609 133.786 446.975 135.835 442.543 136.402C439.795 136.749 433.915 136.914 438.696 130.787C437.872 131.756 436.956 132.908 436.04 134.079C435.436 134.847 434.831 135.615 434.282 136.347C433.806 137.005 433.311 137.682 432.853 138.322C432.688 138.56 432.523 138.779 432.377 138.999C431.131 140.828 430.307 142.108 429.465 143.535C428.677 144.87 427.871 146.351 426.662 148.564C426.479 148.912 426.277 149.278 426.058 149.68C425.526 150.759 425.123 151.6 424.757 152.368C424.336 153.265 423.933 154.216 423.53 155.185C423.438 155.423 423.328 155.679 423.219 155.953C422.632 157.453 421.936 159.373 420.819 162.464C419.757 167.348 425.197 168.262 436.993 165.189C451.371 161.403 461.72 156.557 462.837 143.516C463.131 139.968 462.892 129.196 454.1 132.671V132.689Z" fill="#071D7E"/>
<path d="M453.459 133.019C450.968 134.116 446.334 136.165 441.902 136.731C439.154 137.079 433.274 137.244 438.055 131.117C437.249 132.086 436.315 133.238 435.399 134.409C434.795 135.177 434.19 135.945 433.641 136.677C433.165 137.335 432.67 138.012 432.212 138.652C432.047 138.89 431.882 139.109 431.736 139.329C430.49 141.158 429.666 142.438 428.823 143.864C428.036 145.2 427.23 146.681 426.021 148.894C425.838 149.241 425.636 149.607 425.417 150.01C424.885 151.089 424.482 151.93 424.116 152.698C423.695 153.594 423.292 154.545 422.889 155.515C422.797 155.753 422.687 156.009 422.577 156.283C421.991 157.783 421.295 159.703 420.178 162.794C419.116 167.677 424.556 168.592 436.352 165.519C450.73 161.733 461.079 156.887 462.196 143.846C462.489 140.298 462.251 129.525 453.459 133V133.019Z" fill="#071D7E"/>
<path d="M541.507 150.649C546.05 141.321 547.826 132.707 546.801 125.3C545.757 117.856 541.892 111.656 535.17 107.193C529.217 103.243 521.047 100.664 510.607 99.8042C510.515 99.8042 510.405 99.7859 510.314 99.7859C510.369 99.7859 510.442 99.7859 510.515 99.7859C510.442 99.7859 510.369 99.7859 510.296 99.7859C509.013 99.7494 507.566 99.7311 506.101 99.7311C504.544 99.7311 503.005 99.7311 501.668 99.7676H501.65C501.54 99.7676 501.449 99.7859 501.339 99.7859C501.137 99.8042 500.954 99.8042 500.771 99.8225C500.221 99.8591 499.599 99.8957 498.976 99.9322C497.785 100.024 496.668 100.152 494.507 100.408C494.067 100.463 493.627 100.499 493.224 100.554C493.023 100.591 492.821 100.609 492.602 100.646C492.583 100.646 492.565 100.646 492.547 100.664C492.528 100.664 492.492 100.664 492.473 100.682C490.953 100.902 490.22 101.03 488.883 101.304C488.828 101.304 488.792 101.322 488.737 101.322C487.729 101.523 486.484 101.779 485.513 101.999C485.495 101.999 485.476 101.999 485.458 102.017C485.403 102.036 485.348 102.036 485.312 102.054C485.293 102.054 485.275 102.054 485.275 102.072C484.671 102.218 484.231 102.31 483.828 102.42C483.443 102.511 483.004 102.639 482.454 102.785C482.326 102.822 482.198 102.859 482.07 102.895C481.886 102.95 481.722 102.987 481.557 103.023C480.861 103.224 479.926 103.499 478.937 103.791C478.919 103.791 478.919 103.791 478.901 103.81C478.186 104.029 477.472 104.267 476.813 104.486C476.611 104.559 476.373 104.633 476.117 104.742C476.025 104.779 475.952 104.797 475.879 104.834C474.871 105.2 474.01 105.511 473.296 105.785C473.278 105.785 473.278 105.803 473.259 105.803C473.223 105.821 473.204 105.821 473.168 105.84C472.087 106.26 471.629 106.443 470.695 106.846C470.622 106.882 470.548 106.901 470.475 106.937C469.724 107.266 468.772 107.669 468.057 108.016C467.911 108.089 467.746 108.163 467.581 108.236C467.288 108.364 467.013 108.51 466.739 108.638C466.629 108.693 466.519 108.748 466.409 108.803C460.053 111.967 456.591 115.094 455.987 116.887C455.73 117.655 455.932 118.277 456.573 118.661C458.331 119.74 463.35 119.118 470.622 115.423C470.402 114.637 470.567 113.814 471.061 112.991C474.193 107.687 490.55 102.31 502.438 106.169C503.72 106.59 504.965 107.102 506.119 107.76C512.64 111.381 514.856 117.198 513.867 124.166C512.603 133.055 506.138 143.827 496.668 154.38C480.036 172.889 454.173 190.666 431.039 196.226C417.21 198.933 416.294 195.129 415.91 193.501C416.001 195.477 416.13 197.342 416.313 199.134C416.349 199.409 416.368 199.683 416.404 199.957C416.404 200.012 416.423 200.067 416.423 200.122C416.459 200.524 416.514 200.927 416.569 201.347C417.009 204.987 417.943 209.614 418.969 213.455C419.28 214.552 419.591 215.613 419.921 216.656C419.958 216.747 419.976 216.857 420.013 216.948C420.489 218.412 420.984 219.82 421.496 221.173C422.54 223.917 423.621 226.459 424.665 228.91L425.27 230.153C427.394 233.025 431.937 232.604 436.754 232.129C436.608 231.745 436.479 231.342 436.351 230.958C436.479 231.342 436.626 231.726 436.754 232.129C460.841 228.142 489.286 206.999 506.98 191.983C508.922 190.337 510.772 188.691 512.567 187.063C526.341 174.498 536.012 162.08 541.562 150.704L541.507 150.649Z" fill="#071D7E"/>
<path d="M541.508 151.308C546.05 141.981 547.827 133.366 546.801 125.959C545.757 118.515 541.892 112.315 535.17 107.852C529.217 103.902 521.048 101.323 510.607 100.463C510.516 100.463 510.406 100.445 510.314 100.445C510.369 100.445 510.443 100.445 510.516 100.445C510.443 100.445 510.369 100.445 510.296 100.445C509.014 100.409 507.567 100.39 506.102 100.39C504.545 100.39 503.006 100.39 501.669 100.427H501.651C501.541 100.427 501.449 100.445 501.339 100.445C501.138 100.463 500.955 100.463 500.771 100.482C500.222 100.518 499.599 100.555 498.976 100.591C497.786 100.683 496.668 100.811 494.507 101.067C494.067 101.122 493.628 101.158 493.225 101.213C493.023 101.25 492.822 101.268 492.602 101.305C492.584 101.305 492.566 101.305 492.547 101.323C492.529 101.323 492.492 101.323 492.474 101.341C490.954 101.561 490.221 101.689 488.884 101.963C488.829 101.963 488.792 101.981 488.737 101.981C487.73 102.183 486.484 102.439 485.514 102.658C485.495 102.658 485.477 102.658 485.459 102.676C485.404 102.695 485.349 102.695 485.312 102.713C485.294 102.713 485.275 102.713 485.275 102.731C484.671 102.878 484.231 102.969 483.828 103.079C483.444 103.17 483.004 103.298 482.455 103.445C482.327 103.481 482.198 103.518 482.07 103.554C481.887 103.609 481.722 103.646 481.557 103.682C480.861 103.884 479.927 104.158 478.938 104.451C478.92 104.451 478.92 104.451 478.901 104.469C478.187 104.688 477.473 104.926 476.813 105.146C476.612 105.219 476.374 105.292 476.117 105.402C476.026 105.438 475.952 105.456 475.879 105.493C474.872 105.859 474.011 106.17 473.296 106.444C473.278 106.444 473.278 106.462 473.26 106.462C473.223 106.481 473.205 106.481 473.168 106.499C472.087 106.92 471.63 107.103 470.695 107.505C470.622 107.541 470.549 107.56 470.476 107.596C469.725 107.926 468.772 108.328 468.058 108.675C467.911 108.749 467.746 108.822 467.582 108.895C467.289 109.023 467.014 109.169 466.739 109.297C466.629 109.352 466.519 109.407 466.409 109.462C460.053 112.626 456.592 115.753 455.987 117.546C455.731 118.314 455.932 118.936 456.573 119.338C458.332 120.417 463.35 119.795 470.622 116.101C470.402 115.315 470.567 114.491 471.062 113.668C474.194 108.365 490.551 102.987 502.438 106.846C503.72 107.267 504.966 107.779 506.12 108.438C512.641 112.059 514.857 117.875 513.868 124.843C512.604 133.732 506.138 144.505 496.668 155.058C480.037 173.567 454.174 191.344 431.04 196.904C417.211 199.611 416.295 195.807 415.91 194.179C416.002 196.154 416.13 198.02 416.313 199.812C416.35 200.086 416.368 200.361 416.405 200.635C416.405 200.69 416.423 200.745 416.423 200.8C416.46 201.202 416.515 201.604 416.57 202.025C417.009 205.665 417.943 210.292 418.969 214.133C419.281 215.23 419.592 216.291 419.922 217.333C419.958 217.425 419.977 217.534 420.013 217.626C420.489 219.089 420.984 220.497 421.497 221.851C422.541 224.594 423.622 227.136 424.666 229.587L425.27 230.831C427.395 233.702 431.937 233.282 436.755 232.806C436.608 232.422 436.48 232.02 436.352 231.636C436.48 232.02 436.626 232.404 436.755 232.806C460.841 228.819 489.287 207.676 506.981 192.661C508.922 191.015 510.772 189.369 512.567 187.741C526.341 175.176 536.013 162.757 541.563 151.381L541.508 151.308Z" fill="#071D7E"/>
<path d="M380.321 208.092C383.801 237.246 397.355 259.907 411.368 275.178C422.797 287.634 447.671 304.899 471.41 308.886L469.706 319L499.159 306.014L475.567 284.14L474.029 293.322C447.726 286.957 427.303 270.076 415.196 254.584C399.407 234.375 390.89 209.629 392.74 176.177C394.535 150.225 411.258 120.394 426.57 107.263C439.758 95.9596 450.602 90.4728 465.75 83.1752C451.115 86.2845 436.351 94.4416 426.277 102.068C417.907 108.415 408.84 117.267 402.667 125.735C384.753 150.298 379.204 171.093 380.321 208.056V208.092Z" fill="#071D7E"/>
<path d="M632.046 169.907C628.566 140.754 615.012 118.093 601 102.822C589.57 90.3665 564.696 73.1012 540.958 69.1141L542.661 59L513.208 71.9855L536.8 93.8598L538.338 84.6784C564.641 91.0432 585.064 107.924 597.171 123.416C612.96 143.625 621.478 168.371 619.628 201.823C617.833 227.775 601.11 257.606 585.797 270.737C572.609 282.04 561.765 287.527 546.617 294.825C561.252 291.716 576.016 283.558 586.09 275.932C594.461 269.585 603.527 260.733 609.7 252.265C627.614 227.702 633.164 206.907 632.046 169.944V169.907Z" fill="#071D7E"/>
<path d="M373.004 429.189V430.372H369.931V440.33H368.459V430.372H365.37V429.189H373.004Z" fill="#071D7E"/>
<path d="M377.581 432.993C377.84 432.492 378.206 432.103 378.681 431.826C379.166 431.549 379.754 431.411 380.444 431.411V432.913H380.056C378.406 432.913 377.581 433.798 377.581 435.567V440.33H376.109V431.57H377.581V432.993Z" fill="#071D7E"/>
<path d="M382.887 435.918C382.887 435.023 383.07 434.24 383.437 433.569C383.803 432.887 384.305 432.359 384.941 431.986C385.588 431.613 386.305 431.427 387.092 431.427C387.868 431.427 388.542 431.592 389.114 431.922C389.685 432.252 390.111 432.668 390.391 433.169V431.57H391.879V440.33H390.391V438.7C390.1 439.211 389.664 439.637 389.081 439.979C388.51 440.309 387.841 440.474 387.076 440.474C386.289 440.474 385.577 440.282 384.941 439.899C384.305 439.515 383.803 438.977 383.437 438.284C383.07 437.591 382.887 436.803 382.887 435.918ZM390.391 435.934C390.391 435.274 390.257 434.698 389.987 434.208C389.718 433.718 389.351 433.345 388.887 433.089C388.434 432.823 387.933 432.689 387.383 432.689C386.833 432.689 386.332 432.817 385.879 433.073C385.426 433.329 385.065 433.702 384.795 434.192C384.526 434.682 384.391 435.258 384.391 435.918C384.391 436.59 384.526 437.176 384.795 437.677C385.065 438.167 385.426 438.545 385.879 438.812C386.332 439.067 386.833 439.195 387.383 439.195C387.933 439.195 388.434 439.067 388.887 438.812C389.351 438.545 389.718 438.167 389.987 437.677C390.257 437.176 390.391 436.595 390.391 435.934Z" fill="#071D7E"/>
<path d="M399.979 431.411C401.057 431.411 401.931 431.736 402.599 432.386C403.268 433.025 403.602 433.952 403.602 435.167V440.33H402.146V435.375C402.146 434.501 401.925 433.835 401.483 433.377C401.041 432.908 400.437 432.673 399.672 432.673C398.895 432.673 398.275 432.913 397.812 433.393C397.359 433.872 397.132 434.57 397.132 435.487V440.33H395.661V431.57H397.132V432.817C397.424 432.37 397.817 432.023 398.313 431.778C398.82 431.533 399.375 431.411 399.979 431.411Z" fill="#071D7E"/>
<path d="M410.438 440.474C409.758 440.474 409.149 440.362 408.61 440.138C408.071 439.904 407.645 439.584 407.332 439.179C407.02 438.764 406.847 438.289 406.815 437.757H408.335C408.378 438.194 408.583 438.551 408.95 438.828C409.327 439.105 409.818 439.243 410.422 439.243C410.982 439.243 411.424 439.121 411.748 438.876C412.071 438.63 412.233 438.321 412.233 437.948C412.233 437.565 412.061 437.282 411.715 437.101C411.37 436.909 410.837 436.723 410.114 436.542C409.457 436.371 408.917 436.201 408.497 436.03C408.087 435.849 407.731 435.588 407.429 435.247C407.138 434.895 406.993 434.437 406.993 433.872C406.993 433.425 407.128 433.014 407.397 432.641C407.667 432.268 408.049 431.975 408.545 431.762C409.041 431.538 409.607 431.427 410.244 431.427C411.225 431.427 412.017 431.672 412.621 432.162C413.225 432.652 413.548 433.323 413.592 434.176H412.12C412.087 433.718 411.899 433.35 411.554 433.073C411.219 432.796 410.767 432.657 410.195 432.657C409.667 432.657 409.246 432.769 408.934 432.993C408.621 433.217 408.465 433.51 408.465 433.872C408.465 434.16 408.556 434.4 408.739 434.592C408.934 434.773 409.171 434.922 409.451 435.039C409.742 435.146 410.141 435.268 410.648 435.407C411.284 435.577 411.802 435.748 412.201 435.918C412.6 436.078 412.939 436.323 413.22 436.654C413.511 436.984 413.662 437.416 413.672 437.948C413.672 438.428 413.538 438.86 413.268 439.243C412.999 439.627 412.616 439.931 412.12 440.154C411.635 440.367 411.074 440.474 410.438 440.474Z" fill="#071D7E"/>
<path d="M420.651 432.769H418.791V440.33H417.319V432.769H416.171V431.57H417.319V430.947C417.319 429.967 417.572 429.253 418.079 428.805C418.597 428.347 419.422 428.118 420.554 428.118V429.333C419.907 429.333 419.449 429.46 419.179 429.716C418.92 429.961 418.791 430.372 418.791 430.947V431.57H420.651V432.769Z" fill="#071D7E"/>
<path d="M431.748 435.615C431.748 435.892 431.732 436.185 431.699 436.494H424.615C424.669 437.357 424.965 438.034 425.505 438.524C426.055 439.003 426.718 439.243 427.494 439.243C428.13 439.243 428.659 439.099 429.079 438.812C429.51 438.513 429.812 438.119 429.985 437.629H431.57C431.333 438.471 430.858 439.158 430.146 439.691C429.435 440.213 428.551 440.474 427.494 440.474C426.653 440.474 425.898 440.288 425.23 439.915C424.572 439.542 424.054 439.014 423.677 438.332C423.3 437.639 423.111 436.84 423.111 435.934C423.111 435.029 423.294 434.235 423.661 433.553C424.027 432.871 424.54 432.348 425.197 431.986C425.866 431.613 426.631 431.427 427.494 431.427C428.335 431.427 429.079 431.608 429.726 431.97C430.373 432.332 430.869 432.833 431.214 433.473C431.57 434.101 431.748 434.815 431.748 435.615ZM430.227 435.311C430.227 434.757 430.103 434.283 429.855 433.888C429.607 433.483 429.268 433.18 428.836 432.977C428.416 432.764 427.947 432.657 427.429 432.657C426.685 432.657 426.049 432.892 425.521 433.361C425.003 433.83 424.707 434.48 424.631 435.311H430.227Z" fill="#071D7E"/>
<path d="M436.456 432.993C436.715 432.492 437.082 432.103 437.556 431.826C438.041 431.549 438.629 431.411 439.319 431.411V432.913H438.931C437.281 432.913 436.456 433.798 436.456 435.567V440.33H434.984V431.57H436.456V432.993Z" fill="#071D7E"/>
<path d="M445.45 440.474C444.77 440.474 444.161 440.362 443.622 440.138C443.083 439.904 442.657 439.584 442.344 439.179C442.031 438.764 441.859 438.289 441.827 437.757H443.347C443.39 438.194 443.595 438.551 443.962 438.828C444.339 439.105 444.83 439.243 445.433 439.243C445.994 439.243 446.436 439.121 446.76 438.876C447.083 438.63 447.245 438.321 447.245 437.948C447.245 437.565 447.072 437.282 446.727 437.101C446.382 436.909 445.848 436.723 445.126 436.542C444.468 436.371 443.929 436.201 443.509 436.03C443.099 435.849 442.743 435.588 442.441 435.247C442.15 434.895 442.005 434.437 442.005 433.872C442.005 433.425 442.139 433.014 442.409 432.641C442.678 432.268 443.061 431.975 443.557 431.762C444.053 431.538 444.619 431.427 445.255 431.427C446.237 431.427 447.029 431.672 447.633 432.162C448.237 432.652 448.56 433.323 448.603 434.176H447.132C447.099 433.718 446.911 433.35 446.566 433.073C446.231 432.796 445.778 432.657 445.207 432.657C444.679 432.657 444.258 432.769 443.945 432.993C443.633 433.217 443.476 433.51 443.476 433.872C443.476 434.16 443.568 434.4 443.751 434.592C443.945 434.773 444.183 434.922 444.463 435.039C444.754 435.146 445.153 435.268 445.66 435.407C446.296 435.577 446.814 435.748 447.212 435.918C447.611 436.078 447.951 436.323 448.231 436.654C448.523 436.984 448.674 437.416 448.684 437.948C448.684 438.428 448.55 438.86 448.28 439.243C448.01 439.627 447.628 439.931 447.132 440.154C446.646 440.367 446.086 440.474 445.45 440.474Z" fill="#071D7E"/>
<path d="M461.527 440.474C460.697 440.474 459.942 440.288 459.263 439.915C458.594 439.542 458.066 439.014 457.678 438.332C457.301 437.639 457.112 436.84 457.112 435.934C457.112 435.039 457.306 434.251 457.694 433.569C458.093 432.876 458.632 432.348 459.311 431.986C459.991 431.613 460.751 431.427 461.592 431.427C462.433 431.427 463.193 431.613 463.872 431.986C464.552 432.348 465.086 432.871 465.474 433.553C465.873 434.235 466.072 435.029 466.072 435.934C466.072 436.84 465.867 437.639 465.458 438.332C465.059 439.014 464.514 439.542 463.824 439.915C463.134 440.288 462.368 440.474 461.527 440.474ZM461.527 439.195C462.056 439.195 462.552 439.073 463.015 438.828C463.479 438.582 463.851 438.215 464.131 437.725C464.422 437.234 464.568 436.638 464.568 435.934C464.568 435.231 464.428 434.634 464.147 434.144C463.867 433.654 463.5 433.291 463.048 433.057C462.595 432.812 462.104 432.689 461.576 432.689C461.037 432.689 460.541 432.812 460.088 433.057C459.646 433.291 459.29 433.654 459.02 434.144C458.751 434.634 458.616 435.231 458.616 435.934C458.616 436.648 458.745 437.25 459.004 437.741C459.274 438.231 459.63 438.598 460.072 438.844C460.514 439.078 460.999 439.195 461.527 439.195Z" fill="#071D7E"/>
<path d="M473.62 431.411C474.698 431.411 475.571 431.736 476.24 432.386C476.908 433.025 477.243 433.952 477.243 435.167V440.33H475.787V435.375C475.787 434.501 475.566 433.835 475.124 433.377C474.682 432.908 474.078 432.673 473.312 432.673C472.536 432.673 471.916 432.913 471.452 433.393C470.999 433.872 470.773 434.57 470.773 435.487V440.33H469.301V431.57H470.773V432.817C471.064 432.37 471.458 432.023 471.954 431.778C472.46 431.533 473.016 431.411 473.62 431.411Z" fill="#071D7E"/>
<path d="M482.412 428.501V440.33H480.941V428.501H482.412Z" fill="#071D7E"/>
<path d="M486.975 430.148C486.695 430.148 486.457 430.052 486.263 429.86C486.069 429.668 485.972 429.434 485.972 429.157C485.972 428.88 486.069 428.645 486.263 428.453C486.457 428.262 486.695 428.166 486.975 428.166C487.245 428.166 487.471 428.262 487.654 428.453C487.848 428.645 487.945 428.88 487.945 429.157C487.945 429.434 487.848 429.668 487.654 429.86C487.471 430.052 487.245 430.148 486.975 430.148ZM487.687 431.57V440.33H486.215V431.57H487.687Z" fill="#071D7E"/>
<path d="M495.807 431.411C496.886 431.411 497.759 431.736 498.428 432.386C499.096 433.025 499.43 433.952 499.43 435.167V440.33H497.975V435.375C497.975 434.501 497.754 433.835 497.312 433.377C496.869 432.908 496.266 432.673 495.5 432.673C494.724 432.673 494.104 432.913 493.64 433.393C493.187 433.872 492.961 434.57 492.961 435.487V440.33H491.489V431.57H492.961V432.817C493.252 432.37 493.645 432.023 494.141 431.778C494.648 431.533 495.204 431.411 495.807 431.411Z" fill="#071D7E"/>
<path d="M511.215 435.615C511.215 435.892 511.199 436.185 511.167 436.494H504.083C504.137 437.357 504.433 438.034 504.972 438.524C505.522 439.003 506.185 439.243 506.962 439.243C507.598 439.243 508.126 439.099 508.547 438.812C508.978 438.513 509.28 438.119 509.452 437.629H511.037C510.8 438.471 510.326 439.158 509.614 439.691C508.902 440.213 508.018 440.474 506.962 440.474C506.121 440.474 505.366 440.288 504.697 439.915C504.04 439.542 503.522 439.014 503.145 438.332C502.767 437.639 502.578 436.84 502.578 435.934C502.578 435.029 502.762 434.235 503.128 433.553C503.495 432.871 504.007 432.348 504.665 431.986C505.333 431.613 506.099 431.427 506.962 431.427C507.803 431.427 508.547 431.608 509.194 431.97C509.841 432.332 510.337 432.833 510.682 433.473C511.037 434.101 511.215 434.815 511.215 435.615ZM509.695 435.311C509.695 434.757 509.571 434.283 509.323 433.888C509.075 433.483 508.735 433.18 508.304 432.977C507.883 432.764 507.414 432.657 506.897 432.657C506.153 432.657 505.517 432.892 504.988 433.361C504.471 433.83 504.174 434.48 504.099 435.311H509.695Z" fill="#071D7E"/>
<path d="M523.923 440.474C523.093 440.474 522.338 440.288 521.659 439.915C520.99 439.542 520.462 439.014 520.074 438.332C519.697 437.639 519.508 436.84 519.508 435.934C519.508 435.039 519.702 434.251 520.09 433.569C520.489 432.876 521.028 432.348 521.708 431.986C522.387 431.613 523.147 431.427 523.988 431.427C524.829 431.427 525.589 431.613 526.269 431.986C526.948 432.348 527.482 432.871 527.87 433.553C528.269 434.235 528.468 435.029 528.468 435.934C528.468 436.84 528.263 437.639 527.854 438.332C527.455 439.014 526.91 439.542 526.22 439.915C525.53 440.288 524.764 440.474 523.923 440.474ZM523.923 439.195C524.452 439.195 524.948 439.073 525.411 438.828C525.875 438.582 526.247 438.215 526.527 437.725C526.818 437.234 526.964 436.638 526.964 435.934C526.964 435.231 526.824 434.634 526.543 434.144C526.263 433.654 525.897 433.291 525.444 433.057C524.991 432.812 524.5 432.689 523.972 432.689C523.433 432.689 522.937 432.812 522.484 433.057C522.042 433.291 521.686 433.654 521.416 434.144C521.147 434.634 521.012 435.231 521.012 435.934C521.012 436.648 521.141 437.25 521.4 437.741C521.67 438.231 522.026 438.598 522.468 438.844C522.91 439.078 523.395 439.195 523.923 439.195Z" fill="#071D7E"/>
<path d="M535.304 432.769H533.444V440.33H531.972V432.769H530.824V431.57H531.972V430.947C531.972 429.967 532.226 429.253 532.732 428.805C533.25 428.347 534.075 428.118 535.207 428.118V429.333C534.56 429.333 534.102 429.46 533.832 429.716C533.573 429.961 533.444 430.372 533.444 430.947V431.57H535.304V432.769Z" fill="#071D7E"/>
<path d="M543.37 435.918C543.37 435.023 543.553 434.24 543.92 433.569C544.286 432.887 544.788 432.359 545.424 431.986C546.071 431.613 546.793 431.427 547.591 431.427C548.281 431.427 548.923 431.586 549.516 431.906C550.109 432.215 550.562 432.625 550.875 433.137V428.501H552.363V440.33H550.875V438.684C550.583 439.206 550.152 439.637 549.581 439.979C549.009 440.309 548.341 440.474 547.575 440.474C546.788 440.474 546.071 440.282 545.424 439.899C544.788 439.515 544.286 438.977 543.92 438.284C543.553 437.591 543.37 436.803 543.37 435.918ZM550.875 435.934C550.875 435.274 550.74 434.698 550.47 434.208C550.201 433.718 549.834 433.345 549.37 433.089C548.917 432.823 548.416 432.689 547.866 432.689C547.316 432.689 546.815 432.817 546.362 433.073C545.909 433.329 545.548 433.702 545.278 434.192C545.009 434.682 544.874 435.258 544.874 435.918C544.874 436.59 545.009 437.176 545.278 437.677C545.548 438.167 545.909 438.545 546.362 438.812C546.815 439.067 547.316 439.195 547.866 439.195C548.416 439.195 548.917 439.067 549.37 438.812C549.834 438.545 550.201 438.167 550.47 437.677C550.74 437.176 550.875 436.595 550.875 435.934Z" fill="#071D7E"/>
<path d="M556.904 430.148C556.623 430.148 556.386 430.052 556.192 429.86C555.998 429.668 555.901 429.434 555.901 429.157C555.901 428.88 555.998 428.645 556.192 428.453C556.386 428.262 556.623 428.166 556.904 428.166C557.173 428.166 557.4 428.262 557.583 428.453C557.777 428.645 557.874 428.88 557.874 429.157C557.874 429.434 557.777 429.668 557.583 429.86C557.4 430.052 557.173 430.148 556.904 430.148ZM557.615 431.57V440.33H556.144V431.57H557.615Z" fill="#071D7E"/>
<path d="M565.073 431.427C565.839 431.427 566.507 431.592 567.079 431.922C567.661 432.252 568.092 432.668 568.373 433.169V431.57H569.861V440.522C569.861 441.321 569.688 442.03 569.343 442.648C568.998 443.277 568.502 443.767 567.855 444.119C567.219 444.47 566.475 444.646 565.623 444.646C564.458 444.646 563.488 444.374 562.712 443.831C561.935 443.287 561.477 442.547 561.337 441.609H562.793C562.954 442.142 563.289 442.568 563.795 442.888C564.302 443.218 564.911 443.383 565.623 443.383C566.432 443.383 567.089 443.133 567.596 442.632C568.114 442.131 568.373 441.428 568.373 440.522V438.684C568.081 439.195 567.65 439.622 567.079 439.963C566.507 440.304 565.839 440.474 565.073 440.474C564.286 440.474 563.569 440.282 562.922 439.899C562.286 439.515 561.784 438.977 561.418 438.284C561.051 437.591 560.868 436.803 560.868 435.918C560.868 435.023 561.051 434.24 561.418 433.569C561.784 432.887 562.286 432.359 562.922 431.986C563.569 431.613 564.286 431.427 565.073 431.427ZM568.373 435.934C568.373 435.274 568.238 434.698 567.968 434.208C567.699 433.718 567.332 433.345 566.868 433.089C566.416 432.823 565.914 432.689 565.364 432.689C564.814 432.689 564.313 432.817 563.86 433.073C563.407 433.329 563.046 433.702 562.776 434.192C562.507 434.682 562.372 435.258 562.372 435.918C562.372 436.59 562.507 437.176 562.776 437.677C563.046 438.167 563.407 438.545 563.86 438.812C564.313 439.067 564.814 439.195 565.364 439.195C565.914 439.195 566.416 439.067 566.868 438.812C567.332 438.545 567.699 438.167 567.968 437.677C568.238 437.176 568.373 436.595 568.373 435.934Z" fill="#071D7E"/>
<path d="M574.402 430.148C574.121 430.148 573.884 430.052 573.69 429.86C573.496 429.668 573.399 429.434 573.399 429.157C573.399 428.88 573.496 428.645 573.69 428.453C573.884 428.262 574.121 428.166 574.402 428.166C574.671 428.166 574.898 428.262 575.081 428.453C575.275 428.645 575.372 428.88 575.372 429.157C575.372 429.434 575.275 429.668 575.081 429.86C574.898 430.052 574.671 430.148 574.402 430.148ZM575.113 431.57V440.33H573.642V431.57H575.113Z" fill="#071D7E"/>
<path d="M580.711 432.769V437.932C580.711 438.359 580.803 438.662 580.986 438.844C581.169 439.014 581.487 439.099 581.94 439.099H583.024V440.33H581.698C580.878 440.33 580.264 440.144 579.854 439.771C579.444 439.398 579.239 438.785 579.239 437.932V432.769H578.091V431.57H579.239V429.365H580.711V431.57H583.024V432.769H580.711Z" fill="#071D7E"/>
<path d="M585.551 435.918C585.551 435.023 585.735 434.24 586.101 433.569C586.468 432.887 586.969 432.359 587.605 431.986C588.252 431.613 588.969 431.427 589.756 431.427C590.533 431.427 591.207 431.592 591.778 431.922C592.35 432.252 592.776 432.668 593.056 433.169V431.57H594.544V440.33H593.056V438.7C592.765 439.211 592.328 439.637 591.746 439.979C591.174 440.309 590.506 440.474 589.74 440.474C588.953 440.474 588.241 440.282 587.605 439.899C586.969 439.515 586.468 438.977 586.101 438.284C585.735 437.591 585.551 436.803 585.551 435.918ZM593.056 435.934C593.056 435.274 592.921 434.698 592.652 434.208C592.382 433.718 592.015 433.345 591.552 433.089C591.099 432.823 590.597 432.689 590.048 432.689C589.498 432.689 588.996 432.817 588.543 433.073C588.091 433.329 587.729 433.702 587.46 434.192C587.19 434.682 587.055 435.258 587.055 435.918C587.055 436.59 587.19 437.176 587.46 437.677C587.729 438.167 588.091 438.545 588.543 438.812C588.996 439.067 589.498 439.195 590.048 439.195C590.597 439.195 591.099 439.067 591.552 438.812C592.015 438.545 592.382 438.167 592.652 437.677C592.921 437.176 593.056 436.595 593.056 435.934Z" fill="#071D7E"/>
<path d="M599.797 428.501V440.33H598.325V428.501H599.797Z" fill="#071D7E"/>
<path d="M608.655 435.918C608.655 435.023 608.838 434.24 609.205 433.569C609.572 432.887 610.073 432.359 610.709 431.986C611.356 431.613 612.073 431.427 612.86 431.427C613.637 431.427 614.311 431.592 614.882 431.922C615.453 432.252 615.879 432.668 616.16 433.169V431.57H617.648V440.33H616.16V438.7C615.869 439.211 615.432 439.637 614.85 439.979C614.278 440.309 613.61 440.474 612.844 440.474C612.057 440.474 611.345 440.282 610.709 439.899C610.073 439.515 609.572 438.977 609.205 438.284C608.838 437.591 608.655 436.803 608.655 435.918ZM616.16 435.934C616.16 435.274 616.025 434.698 615.755 434.208C615.486 433.718 615.119 433.345 614.656 433.089C614.203 432.823 613.701 432.689 613.151 432.689C612.602 432.689 612.1 432.817 611.647 433.073C611.194 433.329 610.833 433.702 610.564 434.192C610.294 434.682 610.159 435.258 610.159 435.918C610.159 436.59 610.294 437.176 610.564 437.677C610.833 438.167 611.194 438.545 611.647 438.812C612.1 439.067 612.602 439.195 613.151 439.195C613.701 439.195 614.203 439.067 614.656 438.812C615.119 438.545 615.486 438.167 615.755 437.677C616.025 437.176 616.16 436.595 616.16 435.934Z" fill="#071D7E"/>
<path d="M624.567 440.474C623.887 440.474 623.278 440.362 622.739 440.138C622.2 439.904 621.774 439.584 621.461 439.179C621.148 438.764 620.976 438.289 620.944 437.757H622.464C622.507 438.194 622.712 438.551 623.079 438.828C623.456 439.105 623.947 439.243 624.55 439.243C625.111 439.243 625.553 439.121 625.877 438.876C626.2 438.63 626.362 438.321 626.362 437.948C626.362 437.565 626.189 437.282 625.844 437.101C625.499 436.909 624.965 436.723 624.243 436.542C623.585 436.371 623.046 436.201 622.626 436.03C622.216 435.849 621.86 435.588 621.558 435.247C621.267 434.895 621.122 434.437 621.122 433.872C621.122 433.425 621.256 433.014 621.526 432.641C621.795 432.268 622.178 431.975 622.674 431.762C623.17 431.538 623.736 431.427 624.372 431.427C625.354 431.427 626.146 431.672 626.75 432.162C627.354 432.652 627.677 433.323 627.72 434.176H626.249C626.216 433.718 626.028 433.35 625.683 433.073C625.348 432.796 624.895 432.657 624.324 432.657C623.796 432.657 623.375 432.769 623.062 432.993C622.75 433.217 622.593 433.51 622.593 433.872C622.593 434.16 622.685 434.4 622.868 434.592C623.062 434.773 623.3 434.922 623.58 435.039C623.871 435.146 624.27 435.268 624.777 435.407C625.413 435.577 625.931 435.748 626.329 435.918C626.728 436.078 627.068 436.323 627.348 436.654C627.64 436.984 627.791 437.416 627.801 437.948C627.801 438.428 627.667 438.86 627.397 439.243C627.127 439.627 626.745 439.931 626.249 440.154C625.763 440.367 625.203 440.474 624.567 440.474Z" fill="#071D7E"/>
<path d="M634.311 440.474C633.631 440.474 633.022 440.362 632.483 440.138C631.944 439.904 631.518 439.584 631.205 439.179C630.893 438.764 630.72 438.289 630.688 437.757H632.208C632.251 438.194 632.456 438.551 632.823 438.828C633.2 439.105 633.691 439.243 634.294 439.243C634.855 439.243 635.297 439.121 635.621 438.876C635.944 438.63 636.106 438.321 636.106 437.948C636.106 437.565 635.933 437.282 635.588 437.101C635.243 436.909 634.71 436.723 633.987 436.542C633.329 436.371 632.79 436.201 632.37 436.03C631.96 435.849 631.604 435.588 631.302 435.247C631.011 434.895 630.866 434.437 630.866 433.872C630.866 433.425 631 433.014 631.27 432.641C631.54 432.268 631.922 431.975 632.418 431.762C632.914 431.538 633.48 431.427 634.117 431.427C635.098 431.427 635.89 431.672 636.494 432.162C637.098 432.652 637.421 433.323 637.465 434.176H635.993C635.96 433.718 635.772 433.35 635.427 433.073C635.092 432.796 634.639 432.657 634.068 432.657C633.54 432.657 633.119 432.769 632.806 432.993C632.494 433.217 632.337 433.51 632.337 433.872C632.337 434.16 632.429 434.4 632.612 434.592C632.806 434.773 633.044 434.922 633.324 435.039C633.615 435.146 634.014 435.268 634.521 435.407C635.157 435.577 635.675 435.748 636.074 435.918C636.473 436.078 636.812 436.323 637.093 436.654C637.384 436.984 637.535 437.416 637.545 437.948C637.545 438.428 637.411 438.86 637.141 439.243C636.871 439.627 636.489 439.931 635.993 440.154C635.507 440.367 634.947 440.474 634.311 440.474Z" fill="#071D7E"/>
<path d="M649.004 435.615C649.004 435.892 648.988 436.185 648.955 436.494H641.871C641.925 437.357 642.222 438.034 642.761 438.524C643.311 439.003 643.974 439.243 644.75 439.243C645.386 439.243 645.915 439.099 646.335 438.812C646.767 438.513 647.068 438.119 647.241 437.629H648.826C648.589 438.471 648.114 439.158 647.403 439.691C646.691 440.213 645.807 440.474 644.75 440.474C643.909 440.474 643.154 440.288 642.486 439.915C641.828 439.542 641.311 439.014 640.933 438.332C640.556 437.639 640.367 436.84 640.367 435.934C640.367 435.029 640.55 434.235 640.917 433.553C641.284 432.871 641.796 432.348 642.453 431.986C643.122 431.613 643.888 431.427 644.75 431.427C645.591 431.427 646.335 431.608 646.982 431.97C647.629 432.332 648.125 432.833 648.47 433.473C648.826 434.101 649.004 434.815 649.004 435.615ZM647.484 435.311C647.484 434.757 647.36 434.283 647.112 433.888C646.864 433.483 646.524 433.18 646.093 432.977C645.672 432.764 645.203 432.657 644.685 432.657C643.941 432.657 643.305 432.892 642.777 433.361C642.259 433.83 641.963 434.48 641.887 435.311H647.484Z" fill="#071D7E"/>
<path d="M654.036 432.769V437.932C654.036 438.359 654.127 438.662 654.311 438.844C654.494 439.014 654.812 439.099 655.265 439.099H656.349V440.33H655.022C654.203 440.33 653.588 440.144 653.179 439.771C652.769 439.398 652.564 438.785 652.564 437.932V432.769H651.416V431.57H652.564V429.365H654.036V431.57H656.349V432.769H654.036Z" fill="#071D7E"/>
<path d="M662.564 440.474C661.884 440.474 661.275 440.362 660.736 440.138C660.197 439.904 659.771 439.584 659.458 439.179C659.146 438.764 658.973 438.289 658.941 437.757H660.461C660.504 438.194 660.709 438.551 661.076 438.828C661.453 439.105 661.944 439.243 662.547 439.243C663.108 439.243 663.55 439.121 663.874 438.876C664.197 438.63 664.359 438.321 664.359 437.948C664.359 437.565 664.186 437.282 663.841 437.101C663.496 436.909 662.963 436.723 662.24 436.542C661.582 436.371 661.043 436.201 660.623 436.03C660.213 435.849 659.857 435.588 659.555 435.247C659.264 434.895 659.119 434.437 659.119 433.872C659.119 433.425 659.253 433.014 659.523 432.641C659.792 432.268 660.175 431.975 660.671 431.762C661.167 431.538 661.733 431.427 662.369 431.427C663.351 431.427 664.143 431.672 664.747 432.162C665.351 432.652 665.674 433.323 665.717 434.176H664.246C664.213 433.718 664.025 433.35 663.68 433.073C663.345 432.796 662.892 432.657 662.321 432.657C661.793 432.657 661.372 432.769 661.059 432.993C660.747 433.217 660.59 433.51 660.59 433.872C660.59 434.16 660.682 434.4 660.865 434.592C661.059 434.773 661.297 434.922 661.577 435.039C661.868 435.146 662.267 435.268 662.774 435.407C663.41 435.577 663.928 435.748 664.327 435.918C664.725 436.078 665.065 436.323 665.345 436.654C665.637 436.984 665.788 437.416 665.798 437.948C665.798 438.428 665.664 438.86 665.394 439.243C665.124 439.627 664.742 439.931 664.246 440.154C663.76 440.367 663.2 440.474 662.564 440.474Z" fill="#071D7E"/>
</svg>
