<?xml version="1.0" encoding="UTF-8"?>
<svg viewBox="0 0 548.39 554.07" xmlns="http://www.w3.org/2000/svg">
<metadata>image/svg+xml</metadata>
<g>
<title>background</title>
<rect x="-1" y="-1" width="550.39" height="556.07" fill="none"/>
</g>
<g>
<title>Layer 1</title>
<g>
<path d="m225.98 277.65c0-0.20325-0.028109-0.40434-0.028109-0.60326 0-26.805 21.731-48.557 48.542-48.557 26.807 0 48.536 21.752 48.536 48.557 0 26.689-21.566 48.352-48.229 48.514v65.537c62.856-0.17082 113.76-51.159 113.76-114.05 0-63.001-51.081-114.07-114.07-114.07-62.999 0-114.07 51.072-114.07 114.07 0 0.19893 0.025947 0.40001 0.025947 0.60326h65.529" fill="#fbc709"/>
<path d="m442.57 194.58c12.227 24.89 19.108 52.862 19.108 82.461 0 103.53-83.947 187.47-187.48 187.47-103.54 0-187.48-83.936-187.48-187.47 0-99.807 78.02-181.39 176.38-187.12l46.754-71.587c-11.67-1.6001-23.56-2.4995-35.66-2.4995-144.26 0-261.2 116.94-261.2 261.21 0 144.25 116.94 261.19 261.2 261.19 144.27 0 261.2-116.94 261.2-261.19 0-56.251-17.841-108.31-48.093-150.95l-44.735 68.485" fill="#1a468e"/>
</g>
</g>
</svg>
