<svg width="548.3867" height="554.0667" xmlns="http://www.w3.org/2000/svg">
 <metadata id="metadata8">image/svg+xml</metadata>

 <g>
  <title>background</title>
  <rect fill="none" id="canvas_background" height="556.0667" width="550.3867" y="-1" x="-1"/>
 </g>
 <g>
  <title>Layer 1</title>
  <g id="svg_1">
   <path fill="#fbc709" fill-rule="nonzero" d="m225.984047,277.647424c0,-0.203251 -0.028109,-0.404339 -0.028109,-0.603265c0,-26.805288 21.730511,-48.557421 48.542286,-48.557421c26.80745,0 48.535799,21.752133 48.535799,48.557421c0,26.688527 -21.566181,48.352009 -48.228761,48.514177l0,65.537491c62.856314,-0.170817 113.761928,-51.158596 113.761928,-114.051668c0,-63.001184 -51.080755,-114.07329 -114.068966,-114.07329c-62.999022,0 -114.068966,51.072106 -114.068966,114.07329c0,0.198926 0.025947,0.400014 0.025947,0.603265l65.528842,0" id="path26"/>
   <path fill="#1a468e" fill-rule="nonzero" d="m442.566969,194.580654c12.227467,24.889543 19.107714,52.862441 19.107714,82.461343c0,103.532371 -83.946802,187.468361 -187.481335,187.468361c-103.54102,0 -187.479172,-83.93599 -187.479172,-187.468361c0,-99.806831 78.020102,-181.390305 176.384719,-187.122403l46.754113,-71.587438c-11.669609,-1.600058 -23.559766,-2.499549 -35.65966,-2.499549c-144.264646,0 -261.200742,116.944745 -261.200742,261.20939c0,144.247348 116.936096,261.192093 261.200742,261.192093c144.266808,0 261.200742,-116.944745 261.200742,-261.192093c0,-56.250671 -17.840641,-108.308759 -48.09254,-150.945967l-44.734581,68.484624" id="path28"/>
  </g>
 </g>
</svg>