<?xml version="1.0" encoding="UTF-8" standalone="no"?>
<!-- Generator: Adobe Illustrator 19.1.0, SVG Export Plug-In . SVG Version: 6.00 Build 0)  -->

<svg
   xmlns:dc="http://purl.org/dc/elements/1.1/"
   xmlns:cc="http://creativecommons.org/ns#"
   xmlns:rdf="http://www.w3.org/1999/02/22-rdf-syntax-ns#"
   xmlns:svg="http://www.w3.org/2000/svg"
   xmlns="http://www.w3.org/2000/svg"
   xmlns:sodipodi="http://sodipodi.sourceforge.net/DTD/sodipodi-0.dtd"
   xmlns:inkscape="http://www.inkscape.org/namespaces/inkscape"
   version="1.1"
   id="SB1_BV"
   x="0px"
   y="0px"
   viewBox="0 0 55.519001 55.520003"
   xml:space="preserve"
   sodipodi:docname="sparebank_1_smn_icon.svg"
   width="55.519001"
   height="55.52"
   inkscape:version="0.92.5 (2060ec1f9f, 2020-04-08)"><metadata
   id="metadata55"><rdf:RDF><cc:Work
       rdf:about=""><dc:format>image/svg+xml</dc:format><dc:type
         rdf:resource="http://purl.org/dc/dcmitype/StillImage" /><dc:title></dc:title></cc:Work></rdf:RDF></metadata><defs
   id="defs53" /><sodipodi:namedview
   pagecolor="#ffffff"
   bordercolor="#666666"
   borderopacity="1"
   objecttolerance="10"
   gridtolerance="10"
   guidetolerance="10"
   inkscape:pageopacity="0"
   inkscape:pageshadow="2"
   inkscape:window-width="1920"
   inkscape:window-height="1043"
   id="namedview51"
   showgrid="false"
   inkscape:zoom="1.2733945"
   inkscape:cx="-69.448"
   inkscape:cy="27.777002"
   inkscape:window-x="1920"
   inkscape:window-y="0"
   inkscape:window-maximized="1"
   inkscape:current-layer="g48" />
<style
   type="text/css"
   id="style2">
	.st0{fill:none;}
	.st1{fill:#002776;}
	.st2{fill:#E60000;}
	.st3{fill:#AF0000;}
	.st4{fill:#FFFFFF;}
</style>
<g
   id="g48"
   transform="translate(-205.698,-11.357)">
	
	<g
   id="g46">
		<path
   d="m 233.457,11.357 c -2.933,0 -5.757,0.458 -8.411,1.301 11.169,-2.423 22.239,2.178 26.227,11.601 4.609,10.892 -1.989,24.096 -14.737,29.491 -11.436,4.839 -23.931,1.747 -29.711,-6.802 3.381,11.517 14.021,19.929 26.632,19.929 15.331,0 27.76,-12.428 27.76,-27.76 0,-15.332 -12.429,-27.76 -27.76,-27.76 z"
   id="path36"
   inkscape:connector-curvature="0"
   style="fill:#e60000" />
		<path
   d="m 236.537,53.75 c 12.749,-5.395 19.347,-18.598 14.737,-29.491 -3.988,-9.424 -15.059,-14.024 -26.227,-11.601 -11.219,3.563 -19.349,14.06 -19.349,26.459 0,2.721 0.398,5.347 1.128,7.831 5.779,8.549 18.275,11.642 29.711,6.802 z"
   id="path38"
   inkscape:connector-curvature="0"
   style="fill:#af0000" />
		<g
   id="g44">
			<path
   d="M 240.573,51.663 V 23.159 c 0,-0.566 -0.462,-1.027 -1.029,-1.027 h -6.454 c -0.461,0 -0.72,0.103 -1.132,0.257 l -8.328,4.287 c -0.513,0.207 -0.719,0.514 -0.719,1.029 v 4.671 c 0,0.549 0.445,0.992 0.993,0.992 h 5.33 v 22.409 c 2.433,-0.338 4.891,-1.006 7.302,-2.027 1.425,-0.603 2.773,-1.303 4.037,-2.087 z"
   id="path40"
   inkscape:connector-curvature="0"
   style="fill:#ffffff" />
			<path
   d="m 230.261,60.327 h 9.283 c 0.567,0 1.029,-0.465 1.029,-1.029 v -7.635 c -1.264,0.784 -2.612,1.485 -4.037,2.087 -2.411,1.02 -4.869,1.688 -7.302,2.027 v 3.521 c 0,0.564 0.464,1.029 1.027,1.029 z"
   id="path42"
   inkscape:connector-curvature="0"
   style="fill:none" />
		</g>
	</g>
</g>
</svg>