<?xml version="1.0" encoding="UTF-8"?>
<svg width="30.333" height="29.653" version="1.1" viewBox="0 0 8.0256133 7.8456898" xmlns="http://www.w3.org/2000/svg" xmlns:cc="http://creativecommons.org/ns#" xmlns:dc="http://purl.org/dc/elements/1.1/" xmlns:rdf="http://www.w3.org/1999/02/22-rdf-syntax-ns#" xmlns:xlink="http://www.w3.org/1999/xlink">
<defs></defs>
<metadata>
<rdf:RDF>
<cc:Work rdf:about="">
<dc:format>image/svg+xml</dc:format>
<dc:type rdf:resource="http://purl.org/dc/dcmitype/StillImage"/>
<dc:title/>
</cc:Work>
</rdf:RDF>
</metadata>
<g transform="translate(-167.33 3.6954)" fill-rule="evenodd" stroke-width=".26458">
<path d="m171.34-3.3205-3.6335 3.5481 3.6314 3.547 2e-3 -7.938e-4 3.6343-3.5454-3.6338-3.5475" fill="#fff"/>
<path d="m170.74-2.1539-8e-4 2.9636 0.63421 2.6458e-4 0.58155 2.6459e-4 5.3e-4 -2.9639h-0.58208" fill="#ed1d24"/>
<path d="m172.34 0.22972-0.32808 7.9375e-4 2.6e-4 -1.7941h0.32835c0.33338 0 0.58738 0.40217 0.58923 0.89641 4e-3 0.48313-0.25532 0.89694-0.58976 0.89694zm-2.2693-1.7939h0.60749v1.7944h-0.60749v-1.7947z" fill="#21409a"/>
<path d="m167.46 0.22734 0.0317 0.03175 3.7028 3.6169 0.14552 0.14208 0.14552-0.14208 3.7351-3.6475-3.8796-3.7915-3.8814 3.7902zm3.8796 3.5465-2e-3 7.938e-4 -3.6314-3.5473 3.6335-3.5481 5.3e-4 0.00132 3.6335 3.5481z" fill="#ed1d24"/>
<path d="m171.34 1.9381-1.751-1.7108h-1.7187l3.026 2.9565 0.0323 0.03175 0.41116 0.40164 3.4719-3.3893h-1.7195" fill="#ed1d24"/>
</g>
</svg>
