<?xml version="1.0" encoding="UTF-8"?>
<svg width="92.297" height="29.653" version="1.1" viewBox="0 0 24.420249 7.8456898" xmlns="http://www.w3.org/2000/svg" xmlns:cc="http://creativecommons.org/ns#" xmlns:dc="http://purl.org/dc/elements/1.1/" xmlns:rdf="http://www.w3.org/1999/02/22-rdf-syntax-ns#" xmlns:xlink="http://www.w3.org/1999/xlink">
<defs></defs>
<metadata>
<rdf:RDF>
<cc:Work rdf:about="">
<dc:format>image/svg+xml</dc:format>
<dc:type rdf:resource="http://purl.org/dc/dcmitype/StillImage"/>
<dc:title/>
</cc:Work>
</rdf:RDF>
</metadata>
<g transform="translate(-150.94 3.6954)">
<g transform="matrix(.26458 0 0 .26458 151.07 -3.5948)" fill-rule="evenodd">
<path d="m19.587 24.787h4.596v-20.276h-4.596zm32.263-7.127c-0.51-1.315-5.175-13.153-5.175-13.153l-4.99 4e-3 0.087 0.216 7.909 20.06h4.327l7.962-20.276h-5.004s-4.301 10.967-5.116 13.149m-11.337-11.156c-1.935-1.442-4.286-1.996-8.435-1.993h-5.572v20.276h5.276c4.105 0 6.257-0.406 8.13-1.551 2.67-1.65 4.058-4.66 4.056-8.615 2e-3 -3.637-1.165-6.409-3.455-8.117m-3.64 14.042c-1.064 0.723-2.704 1.099-4.985 1.098h-0.794v-13.992h0.647c3.009 4e-3 4.057 0.23 5.218 1.042 1.523 1.11 2.405 3.277 2.405 5.955s-0.913 4.841-2.491 5.897m-23.969-6.186c2.595-0.7 3.892-2.21 3.875-4.484 2e-3 -1.98-1.099-3.685-2.977-4.498-1.584-0.708-3.251-0.94-6.795-0.939h-7.007v20.277h7.835c3.314 0 4.979-0.262 6.492-1.003 1.94-0.979 3.008-2.658 3.007-4.665 0.016-2.46-1.502-4.036-4.43-4.688zm-8.299-6.729h1.438c2.36 1e-3 3.94-0.078 4.819 0.36 0.811 0.396 1.309 0.95 1.309 2.038-1e-3 1-0.455 1.56-1.273 1.989-0.72 0.377-2.54 0.554-4.67 0.552h-1.623zm6.486 13.67c-0.84 0.357-2.233 0.313-4.667 0.313h-1.824v-5.234h1.86c1.95 0 3.54 0.073 4.497 0.361 1.165 0.351 1.766 1.07 1.766 2.264 0 1.389-0.675 1.895-1.632 2.297z" fill="#21409a"/>
<path d="m76.63 1.037-13.733 13.41 13.725 13.406 6e-3 -3e-3 13.736-13.4-13.734-13.408" fill="#fff"/>
<path d="m74.336 5.446-3e-3 11.201 2.397 1e-3 2.198 1e-3 2e-3 -11.202h-2.2" fill="#ed1d24"/>
<path d="m80.394 14.455-1.24 3e-3 1e-3 -6.781h1.241c1.26 0 2.22 1.52 2.227 3.388 0.015 1.826-0.965 3.39-2.229 3.39zm-8.577-6.78h2.296v6.782h-2.296v-6.783z" fill="#21409a"/>
<path d="m61.965 14.446 0.12 0.12 13.995 13.67 0.55 0.537 0.55-0.537l14.117-13.786-14.663-14.33-14.67 14.325zm14.663 13.404-6e-3 3e-3 -13.725-13.407 13.733-13.41l2e-3 5e-3 13.733 13.41z" fill="#ed1d24"/>
<path d="m76.628 20.912-6.618-6.466h-6.496l11.437 11.174 0.122 0.12 1.554 1.518 13.122-12.81h-6.499" fill="#ed1d24"/>
</g>
</g>
</svg>
