<?xml version="1.0" encoding="UTF-8"?>
<!DOCTYPE svg  PUBLIC '-//W3C//DTD SVG 1.1//EN'  'http://www.w3.org/Graphics/SVG/1.1/DTD/svg11.dtd'>
<svg enable-background="new 0 0 200 200" version="1.1" viewBox="0 0 200 200" xml:space="preserve" xmlns="http://www.w3.org/2000/svg">
<g clip-rule="evenodd" fill-rule="evenodd">
	<rect x=".003" y=".003" width="199.99" height="199.99" fill="#F5E840"/>
	<path d="m127.31 148.43l0.069 16.383c0.136 1.566 0.34 2.451 0.646 3.098 2.215 4.836 9.878 4.395 14.338 1.5l-1.974-4.123c-1.465 0.545-3.202 1.771-5.279 1.123-1.84-0.543-1.703-2.723-1.703-4.869v-13.248l12.363 0.033 9.945 22.684c0.205 0.988-2.01 4.906-2.486 5.553-3.44 4.836-6.641 2.793-9.401 2.178l-1.362 4.906c5.246 2.008 10.729 1.262 13.795-2.08 2.725-2.961 4.292-7.117 5.994-11.75l9.536-26.359h-6.335l-6.71 20.264c-0.681-0.748-5.856-13.725-6.811-15.938-1.294-2.998-3.169-4.293-7.153-4.326-3.746-0.035-7.526 0-11.375 0v-8.141c-1.329 0.307-5.109 1.432-6.098 1.941v6.096l-4.903 0.068 0.034 4.871 4.87 0.136zm-12.43-133.17c31.3 0 51.872 25.169 45.945 56.265s-36.137 56.268-67.437 56.268c-31.334 0-51.906-25.172-45.98-56.268 5.962-31.096 36.137-56.265 67.472-56.265zm14.951 7.289c19.381 6.778 30.62 26.157 26.261 48.977-5.076 26.6-29.529 48.502-56.096 51.293-2.111-0.068-2.146-1.26-2.214-3.031 0.103-3.678 0.239-7.391 0.34-11.07 0.034-0.545-0.17-0.715-0.409-0.783-2.725-0.271-5.415-0.885-8.072-1.701-2.861-1.125-5.755-2.76-8.651-4.633-1.328-0.646-1.158-3.712-1.124-4.904 0.239-2.18 1.839-7.255 4.428-7.493 3.099-0.17 4.563 1.464 7.629 2.963 5.382 2.554 12.908 4.053 18.493 1.431 2.691-1.636 3.34-3.849 2.079-6.641-2.181-4.565-12.636-8.312-17.371-10.593-11.341-4.836-17.676-14.645-15.667-26.327 1.499-8.617 9.571-15.156 18.018-16.348v-4.122c-10.422 3.031-18.358 9.026-25.477 16.008-10.319 10.081-16.383 22.819-16.894 39.1 0.818 19.925 11.172 28.746 22.002 35.355-18.596-7.189-29.222-26.193-24.964-48.502 5.211-27.315 30.823-49.658 58.24-51.463 1.091 0.647 1.158 0.75 1.738 2.214-0.24 3.44-0.444 6.88-0.682 10.32 5.415 1.09 10.523 2.623 14.646 6.131 0.137 7.901-5.791 11.205-8.039 10.013 0.102-0.375-8.923-2.861-10.796-3.304-2.282-0.374-4.53-0.238-6.779 0.784-2.656 1.26-3.916 3.133-2.656 6.062 1.089 2.179 2.896 3.61 4.869 4.836 5.689 3.064 11.377 6.164 17.065 9.229 4.904 2.759 8.412 6.335 10.66 10.661 1.635 4.292 2.009 8.651 1.056 13.079-1.124 3.61-2.486 6.744-4.564 8.719-1.736 1.975-3.645 3.508-5.688 4.598-2.896 1.533-5.79 2.895-8.787 3.373-0.102 1.84-0.17 3.643-0.271 5.484 0.237 0.135 0.476 0.066 0.748 0 6.438-2.078 12.092-5.725 17.608-9.708 7.153-6.301 13.828-12.909 17.337-21.458 2.384-4.768 4.223-10.047 5.108-16.246 1.943-17.372-4.392-33.72-23.124-42.303zm-72 120.91l0.068-6.062c-0.068-2.146 1.873-5.484 4.53-6.711 2.452-1.123 7.118-1.191 9.435 0.307l-1.125 4.803c-6.914-1.531-6.88-0.238-6.88 7.664h7.527l-1.941 4.801-5.586 0.035v22.615c-1.124 0.135-5.041 0.203-6.028-0.068v-22.514l-3.031-0.068-1.873-4.768 4.904-0.034zm40.666 14.475c0.375 16.178 17.949 15.293 22.685 11-0.17-0.682-1.363-3.713-1.772-4.119-3.234 1.326-6.402 2.826-10.319 0.885-6.097-2.998-5.654-14.34 0.511-17.166 2.384-1.09 5.688-0.988 8.175 0.066 0.886 0.412 1.532 0.852 2.248 1.158v-5.244c-3.61-1.43-6.232-2.385-10.798-1.361-6.881 1.599-10.866 7.9-10.73 14.781zm-64.099-3.61c0.443-3.678 1.839-6.711 5.756-6.779 3.78-0.068 5.586 3.066 5.756 6.846l-11.512-0.067zm16.893 14.61l-1.703-4.02c-1.601 0.443-2.588 1.227-4.667 1.602-5.415 0.92-10.319-1.602-10.422-7.766h17.609c0-6.166-1.09-13.248-7.97-15.395-3.167-1.021-7.05-0.646-9.673 0.92-9.536 5.723-9.059 27.484 7.664 27.281 3.202-0.033 7.289-0.917 9.162-2.622zm26.362-14.543c0.307-3.713 2.009-6.811 5.824-6.846 3.678 0 5.552 3.201 5.586 6.846h-11.41zm-6.131 3.951c0.647 10.186 8.549 14.986 18.256 12.703 2.146-0.512 3.167-1.326 4.769-1.871l-1.703-4.293c-2.452 0.75-5.62 2.861-10.047 1.328-2.93-1.055-4.973-3.609-5.075-7.426l17.643-0.033c0-8.037-2.418-15.904-11.683-15.973-9.06-0.101-12.636 7.528-12.16 15.565z" fill="#000103"/>
</g>
</svg>
