<?xml version="1.0" encoding="UTF-8"?>
<!DOCTYPE svg  PUBLIC '-//W3C//DTD SVG 1.1//EN'  'http://www.w3.org/Graphics/SVG/1.1/DTD/svg11.dtd'>
<svg width="425.2px" height="134.42px" enable-background="new 0 0 425.197 134.419" version="1.1" viewBox="0 0 425.197 134.419" xml:space="preserve" xmlns="http://www.w3.org/2000/svg">
	<path d="m222.16 41.004h6e-3m-8.274-41.004c-5.462 0-10.774 1.056-14.958 2.975-9.26 4.274-16.258 14.062-17.4 23.755-0.506 0.218-1 0.462-1.48 0.731-1.3-0.582-2.651-1.094-4.051-1.533-3.717-1.188-7.668-1.79-11.745-1.79-6.875 0-13.63 1.772-19.018 4.99-4.43 2.657-8.209 6.338-11.217 10.697-2.151-6.875-5.586-13.249-10.248-18.883-10.946-13.226-27.14-20.511-45.601-20.511-17.486 0-35.064 6.628-49.497 18.664-14.392 12.004-24.141 28.124-27.452 45.391-3.525 18.501 0.628 36.045 11.69 49.416 10.949 13.231 27.154 20.518 45.632 20.518 17.476 0 35.048-6.628 49.481-18.664 9.747-8.129 17.361-18.144 22.286-29.121 6.645 14.011 20.173 22.436 36.798 22.436 0.211 0 0.416-1e-3 0.627-3e-3 3.131-0.033 12.059-0.484 20.095-4.203 1.445 1.023 3.082 1.812 4.863 2.304 1.719 0.475 4.084 0.915 9.701 0.915 1.129 0 5.014-0.024 7.579-0.333 4.97-0.599 9.16-3.491 11.562-7.539 7.162 5.863 16.211 8.947 26.338 8.947 3.974 0 8.074-0.49 12.188-1.457 4.073-0.972 6.921-2.326 8.807-3.222 0.663-0.315 1.234-0.587 1.563-0.699 1.292-0.441 2.509-1.045 3.624-1.79 7.205 4.862 15.932 7.175 24.57 7.175 8.625 0 16.88-2.218 23.022-6.071 5.042 3.831 11.577 5.969 18.917 6.008l-0.764 2.749c-2.153 7.753 1.94 15.874 9.455 18.753 5.366 2.057 10.863 3.1 16.341 3.1 10.573 0 19.982-3.905 26.493-10.997 7.299-7.934 11.041-18.121 14.344-27.109 9e-3 -0.024 0.019-0.049 0.027-0.074l17.801-49.209c1.731-4.785 1.021-10.112-1.9-14.277-2.924-4.165-7.691-6.644-12.779-6.644h-11.825c-6.73 0-12.704 4.314-14.819 10.705l-1e-3 4e-3c-5.34-7.021-13.257-10.616-23.633-10.708-1.917-0.017-3.84-0.024-5.769-0.027-0.131-4.593-2.279-8.905-5.888-11.775-2.789-2.218-6.222-3.393-9.717-3.393-1.172 0-2.351 0.132-3.515 0.401-1.223 0.283-10.853 2.804-15.037 4.969-4.091 2.116-6.981 5.893-8.018 10.26-3.468-1.028-7.403-1.801-11.922-1.801-3.238 0-6.53 0.385-10.063 1.176-0.04 9e-3 -0.081 0.019-0.122 0.027-6.945 1.615-13.101 4.942-18.116 9.512-6.478-6.824-15.438-10.541-25.917-10.618l-0.447-2e-3c-2.529 0-4.98 0.212-7.338 0.631l0.811-3.458c1.502-6.416-1.187-13.084-6.718-16.664-5.914-3.831-12.857-4.634-17.64-4.634z" fill="#F6CC00"/>
	<path d="m213.89 15.611c3.44 0 6.899 0.663 9.16 2.126l-2.099 8.964c-3.024-0.67-5.338-1.05-7.105-1.05-5.777-1e-3 -5.738 4.061-5.738 15.354h14.051l-3.624 8.965-10.427 0.066v42.216c-1.047 0.126-3.394 0.221-5.71 0.221-2.325 0-4.62-0.096-5.543-0.351v-42.025l-5.659-0.127-3.496-8.9 9.155-0.066 0.127-11.317c-0.127-4.002 3.497-10.233 8.456-12.522 2.185-1.001 5.311-1.554 8.452-1.554m-135.72 0.431c28.584 0 47.372 22.986 41.959 51.383-5.413 28.398-33.001 51.383-61.585 51.383-28.616 0-47.402-22.985-41.991-51.383 5.444-28.397 33.001-51.383 61.617-51.383m-34.494 95.675c-9.891-6.035-19.346-14.09-20.094-32.285 0.466-14.868 6.003-26.501 15.427-35.708 6.501-6.376 13.749-11.851 23.266-14.619v3.764c-7.713 1.087-15.085 7.058-16.453 14.93-1.835 10.668 3.95 19.625 14.307 24.043 4.324 2.082 13.872 5.503 15.864 9.673 1.15 2.551 0.559 4.571-1.898 6.066-1.881 0.883-4.002 1.254-6.178 1.254-3.725 0-7.608-1.089-10.71-2.562-2.664-1.303-4.003-2.717-6.565-2.717-0.131 0-0.265 4e-3 -0.402 0.011-2.364 0.217-3.826 4.852-4.043 6.844-0.032 1.088-0.186 3.886 1.026 4.479 2.644 1.711 5.288 3.203 7.9 4.229 2.426 0.746 4.883 1.308 7.372 1.555 0.218 0.062 0.405 0.217 0.374 0.716-0.094 3.358-0.218 6.75-0.312 10.107 0.064 1.619 0.094 2.709 2.022 2.769 24.262-2.55 46.593-22.55 51.228-46.842 3.982-20.84-6.282-38.537-23.982-44.728 17.107 7.84 22.893 22.769 21.121 38.631-0.809 5.66-2.488 10.483-4.665 14.837-3.205 7.807-9.301 13.84-15.833 19.596-5.039 3.638-10.203 6.965-16.081 8.864-0.143 0.035-0.275 0.071-0.404 0.071-0.095 0-0.187-0.019-0.279-0.071 0.093-1.681 0.155-3.328 0.248-5.008 2.737-0.435 5.38-1.681 8.025-3.078 1.865-0.997 3.608-2.396 5.194-4.2 1.897-1.805 3.142-4.666 4.168-7.964 0.87-4.042 0.528-8.023-0.965-11.942-2.052-3.951-5.256-7.217-9.734-9.735-5.195-2.799-10.39-5.63-15.584-8.429-1.803-1.121-3.452-2.428-4.448-4.417-1.15-2.674 0-4.385 2.426-5.535 1.382-0.628 2.763-0.891 4.154-0.89 0.676 0 1.355 0.062 2.037 0.174 1.71 0.404 9.953 2.675 9.858 3.017 0.272 0.144 0.602 0.216 0.971 0.216 2.418 0 6.479-3.101 6.371-9.36-3.765-3.203-8.43-4.603-13.375-5.599 0.218-3.142 0.404-6.284 0.623-9.424-0.529-1.339-0.592-1.432-1.587-2.023-25.041 1.65-48.431 22.055-53.189 46.998-3.889 20.373 5.815 37.728 22.799 44.292m294.26-85.907v15.194c4.789 0 9.521-0.028 14.217-0.028 2.348 0 4.687 7e-3 7.018 0.028 7.438 0.066 10.938 2.48 13.353 8.077 1.78 4.13 11.444 28.354 12.715 29.753l12.524-37.831h11.825l-17.801 49.21c-3.179 8.65-6.104 16.405-11.19 21.935-3.614 3.936-9.027 5.944-14.994 5.944-3.48 0-7.147-0.683-10.755-2.065l2.543-9.155c2.543 0.565 5.287 1.781 8.187 1.781 2.974 0 6.11-1.279 9.361-5.851 0.89-1.206 5.023-8.518 4.642-10.36l-18.565-42.346-23.078-0.061v24.73c0 4.007-0.254 8.078 3.18 9.093 0.774 0.241 1.525 0.343 2.251 0.343 2.903 0 5.416-1.628 7.604-2.442l3.687 7.694c-3.877 2.516-9.046 4.04-13.884 4.04-5.556 0-10.673-2.011-12.883-6.838-0.571-1.206-0.952-2.859-1.206-5.785l-0.129-30.581-9.091-0.253-0.063-9.093 9.154-0.128v-11.38c1.839-0.953 8.897-3.052 11.378-3.625m-38.492 13.828c4.874 0 8.727 1.446 13.506 3.34v9.79c-1.336-0.572-2.542-1.396-4.196-2.162-2.414-1.025-5.238-1.568-8.019-1.568-2.57 0-5.104 0.464-7.239 1.44-11.509 5.276-12.336 26.448-0.955 32.044 2.518 1.249 4.87 1.735 7.119 1.735 4.28 0 8.187-1.763 12.146-3.389 0.763 0.761 2.987 6.422 3.307 7.693-3.22 2.918-9.613 4.992-16.482 4.992-11.99 0-25.417-6.327-25.862-25.528-0.254-12.843 7.186-24.604 20.027-27.59 2.477-0.554 4.648-0.797 6.648-0.797m-54.666 0.095c0.11 0 0.222 0 0.333 2e-3 17.294 0.127 21.808 14.814 21.808 29.817l-32.934 0.064c0.19 7.118 4.006 11.889 9.474 13.86 2.108 0.73 4.062 1.017 5.88 1.017 5.313 0 9.466-2.455 12.876-3.497l3.18 8.009c-2.989 1.02-4.896 2.543-8.902 3.499-2.978 0.701-5.862 1.043-8.614 1.043-13.986 0-24.455-8.872-25.464-24.758-0.886-14.905 5.695-29.056 22.363-29.056m-10.92 21.681h21.299c-0.063-6.803-3.56-12.778-10.428-12.778-7.12 0.062-10.299 5.85-10.871 12.778m-69.602-21.664c2.405 0 4.817 0.348 7.042 1.064 12.843 4.007 14.877 17.23 14.877 28.738h-32.87c0.165 9.977 7.065 14.84 15.485 14.84 1.293 0 2.623-0.115 3.969-0.344 3.879-0.699 5.723-2.162 8.711-2.987l3.178 7.5c-3.496 3.179-11.126 4.832-17.103 4.895-0.146 2e-3 -0.288 2e-3 -0.434 2e-3 -30.786 0-31.589-40.298-13.871-50.928 3.056-1.822 7.026-2.78 11.016-2.78m10.348 21.664c-0.314-6.979-3.615-12.78-10.519-12.78-0.075 0-0.151 1e-3 -0.227 2e-3 -7.312 0.126-9.917 5.784-10.745 12.653l21.491 0.125"/>
</svg>
