<?xml version="1.0" encoding="UTF-8" standalone="no"?>
<svg
   xmlns:dc="http://purl.org/dc/elements/1.1/"
   xmlns:cc="http://creativecommons.org/ns#"
   xmlns:rdf="http://www.w3.org/1999/02/22-rdf-syntax-ns#"
   xmlns:svg="http://www.w3.org/2000/svg"
   xmlns="http://www.w3.org/2000/svg"
   xmlns:sodipodi="http://sodipodi.sourceforge.net/DTD/sodipodi-0.dtd"
   xmlns:inkscape="http://www.inkscape.org/namespaces/inkscape"
   width="20.106001"
   height="28.336889"
   viewBox="0 0 20.106001 28.336889"
   version="1.1"
   id="svg20"
   sodipodi:docname="inqud_icon.svg"
   inkscape:version="0.92.5 (2060ec1f9f, 2020-04-08)">
  <metadata
     id="metadata26">
    <rdf:RDF>
      <cc:Work
         rdf:about="">
        <dc:format>image/svg+xml</dc:format>
        <dc:type
           rdf:resource="http://purl.org/dc/dcmitype/StillImage" />
        <dc:title>Group</dc:title>
      </cc:Work>
    </rdf:RDF>
  </metadata>
  <defs
     id="defs24" />
  <sodipodi:namedview
     pagecolor="#ffffff"
     bordercolor="#666666"
     borderopacity="1"
     objecttolerance="10"
     gridtolerance="10"
     guidetolerance="10"
     inkscape:pageopacity="0"
     inkscape:pageshadow="2"
     inkscape:window-width="1920"
     inkscape:window-height="1095"
     id="namedview22"
     showgrid="false"
     inkscape:zoom="2.6670223"
     inkscape:cx="127.18806"
     inkscape:cy="30.950854"
     inkscape:window-x="0"
     inkscape:window-y="0"
     inkscape:window-maximized="1"
     inkscape:current-layer="Group" />
  <!-- Generator: Sketch 64 (93537) - https://sketch.com -->
  <title
     id="title2">Group</title>
  <desc
     id="desc4">Created with Sketch.</desc>
  <g
     id="Page-1"
     style="fill:none;fill-rule:evenodd;stroke:none;stroke-width:1"
     transform="translate(2.3496172e-7,0.02539)">
    <g
       id="Group"
       transform="translate(0,-0.02539)">
      <path
         d="m 14.9366,21.51839 v 3.3325 c 0,1.925 -1.2996,3.486 -2.9035,3.486 -0.237,0 -0.474,-0.0356 -0.7039,-0.1038 L 2.2051,25.49369 C 1.11915,25.16729 0.275148,24.12409 0.04296873,22.85259 0.013388,22.69109 4.97835,22.24669 14.9366,21.51839 Z"
         id="Path"
         inkscape:connector-curvature="0"
         style="opacity:0.56099997;fill:#00a1ff" />
      <path
         d="M 20.106,17.88309 V 1.64977 c 0,-0.2552701 -0.0589,-0.5070601 -0.1722,-0.73556005 -0.1132,-0.22849 -0.2776,-0.42746 -0.4803,-0.58124 -0.2027,-0.15378 -0.4382,-0.25818 -0.6878,-0.30499 -0.2497,-0.046815 -0.5067,-0.034756 -0.7509,0.03522 L 2.38273,4.5434199 c -0.68655,0.19673 -1.29059,0.61307 -1.720561,1.18593 C 0.232197,6.3022099 -2.70019e-4,7.0003599 0,7.7179699 V 22.35619 c 0,0.4523 0.10572,0.8983 0.308641,1.302 0.202922,0.4038 0.497366,0.7539 0.859599,1.0223 0.36223,0.2683 0.78212,0.4473 1.22582,0.5227 0.4437,0.0753 0.89879,0.0447 1.3286,-0.0892 l 14.36144,-4.4745 c 0.5858,-0.1825 1.098,-0.5487 1.4618,-1.0449 0.3639,-0.4962 0.5601,-1.0965 0.5601,-1.7129 z"
         id="path7"
         inkscape:connector-curvature="0"
         style="fill:#0c4693" />
      <path
         d="m 2.50486,4.5128199 c -0.8624,0.28161 -1.512556,1.35117 -1.2324,2.21735 0.09564,0.29531 0.27226,0.55749 0.50955,0.75639 0.23729,0.19889 0.52561,0.3264301 0.83179,0.36793 l 9.8585,1.337 C 13.89,9.45099 14.9371,10.91529 14.9371,12.63769 v 8.9831 l -11.21329,3.4939 c -0.22013,0.0687 -0.44768,0.1105 -0.67775,0.1245 l -0.17262,0.0049 c -0.53528,0 -1.05996,-0.15 -1.51485,-0.4336 -0.454885,-0.2836 -0.821886,-0.6893 -1.059597,-1.1714 -0.2285101,-0.4786 -0.2978413,-0.7467 -0.29288907,-1.5276 V 7.6603499 C 0.0117636,7.4917999 0.024498,7.3289499 0.0464293,7.17321 0.129664,6.6723999 0.326751,6.1976599 0.622351,5.7859299 0.91795,5.3742 1.30409,5.0365999 1.7507,4.7994099 c 0.24268,-0.11725 0.49501,-0.21314 0.75416,-0.28659 z"
         id="path9"
         inkscape:connector-curvature="0"
         style="fill:#00a1ff" />
    </g>
  </g>
</svg>
