<?xml version="1.0" encoding="UTF-8"?>
<svg version="1.1" viewBox="0 0 163.91 163.59" xmlns="http://www.w3.org/2000/svg" xmlns:cc="http://creativecommons.org/ns#" xmlns:dc="http://purl.org/dc/elements/1.1/" xmlns:rdf="http://www.w3.org/1999/02/22-rdf-syntax-ns#">
<metadata>
<rdf:RDF>
<cc:Work rdf:about="">
<dc:format>image/svg+xml</dc:format>
<dc:type rdf:resource="http://purl.org/dc/dcmitype/StillImage"/>
<dc:title/>
</cc:Work>
</rdf:RDF>
</metadata>
<path d="m78.976 50.3v-12.56h-40.933v37.707h25.093v12.576h-25.093v37.718h40.933v-12.571h-28.335v-12.576h25.158v-37.718h-25.158v-12.576zm-78.976 31.495c0-45.172 36.694-81.795 81.952-81.795 45.264 0 81.958 36.623 81.958 81.795 0 45.172-36.694 81.795-81.958 81.795-45.259 0-81.952-36.623-81.952-81.795zm81.952 69.116c38.25 0 69.257-30.942 69.257-69.116 0-38.174-31.007-69.116-69.257-69.116-38.244 0-69.251 30.942-69.251 69.116 0 38.174 31.007 69.116 69.251 69.116zm3.3555-37.707v12.566h40.841v-37.713h-25.088v-12.571h25.088v-37.718h-40.841v12.571h28.243v12.571h-25.158v37.724h25.158v12.571h-28.243" fill="#ab1416" fill-rule="evenodd"/>
</svg>
