<svg width="131" height="36" viewBox="0 0 131 36" fill="none" xmlns="http://www.w3.org/2000/svg">
<g clip-path="url(#clip0_526_5900)">
<path d="M41.7507 28.9486C41.7507 25.5726 41.7507 22.1564 41.7507 18.7C41.7507 15.2436 41.7507 11.8274 41.7507 8.45144C42.9966 8.45144 44.2425 8.45144 45.4884 8.45144C46.7544 8.45144 48.0004 8.45144 49.2262 8.45144C50.7735 8.45144 52.1199 8.75287 53.2653 9.35572C54.4107 9.93849 55.305 10.7624 55.948 11.8274C56.5911 12.8925 56.9126 14.1384 56.9126 15.5652C56.9126 16.9718 56.5911 18.2077 55.948 19.2727C55.3251 20.3378 54.461 21.1617 53.3557 21.7444C52.2706 22.3272 51.0347 22.6186 49.6482 22.6186C49.2061 22.6186 48.764 22.6186 48.3219 22.6186C47.8999 22.6186 47.4678 22.6186 47.0257 22.6186C47.0257 23.6635 47.0257 24.7185 47.0257 25.7836C47.0257 26.8486 47.0257 27.9036 47.0257 28.9486C46.1616 28.9486 45.2875 28.9486 44.4033 28.9486C43.5191 28.9486 42.6349 28.9486 41.7507 28.9486ZM49.2262 13.1839C48.8645 13.1839 48.4927 13.1839 48.1109 13.1839C47.7492 13.1839 47.3874 13.1839 47.0257 13.1839C47.0257 13.9877 47.0257 14.8015 47.0257 15.6254C47.0257 16.4292 47.0257 17.2331 47.0257 18.0369C47.4276 18.0369 47.8396 18.0369 48.2616 18.0369C48.7037 18.0369 49.1257 18.0369 49.5276 18.0369C50.1505 18.0369 50.6529 17.8058 51.0347 17.3436C51.4366 16.8814 51.6376 16.3087 51.6376 15.6254C51.6376 14.9221 51.4266 14.3393 51.0046 13.8772C50.5826 13.415 49.9898 13.1839 49.2262 13.1839Z" fill="#0060FF"/>
<path d="M69.2749 28.9486C69.2749 28.7878 69.2749 28.6371 69.2749 28.4964C69.2749 28.3357 69.2749 28.185 69.2749 28.0443C68.7725 28.4663 68.1998 28.7878 67.5568 29.0089C66.9338 29.25 66.2606 29.3706 65.5372 29.3706C64.5124 29.3706 63.5478 29.1797 62.6435 28.7979C61.7392 28.396 60.9354 27.8333 60.2321 27.1099C59.5488 26.3663 59.0063 25.4922 58.6044 24.4874C58.2226 23.4827 58.0316 22.3674 58.0316 21.1416C58.0316 19.8957 58.2226 18.7703 58.6044 17.7656C59.0063 16.7608 59.5488 15.9068 60.2321 15.2034C60.9354 14.48 61.7392 13.9274 62.6435 13.5456C63.5478 13.1437 64.5023 12.9427 65.5071 12.9427C66.2305 12.9427 66.9137 13.0633 67.5568 13.3044C68.1998 13.5255 68.7725 13.837 69.2749 14.2389C69.2749 14.0781 69.2749 13.9274 69.2749 13.7867C69.2749 13.6461 69.2749 13.5054 69.2749 13.3647C70.0988 13.3647 70.9328 13.3647 71.7768 13.3647C72.6208 13.3647 73.4447 13.3647 74.2485 13.3647C74.2485 15.9369 74.2485 18.5392 74.2485 21.1717C74.2485 23.7841 74.2485 26.3764 74.2485 28.9486C73.4447 28.9486 72.6208 28.9486 71.7768 28.9486C70.9328 28.9486 70.0988 28.9486 69.2749 28.9486ZM66.2004 24.9697C67.1649 24.9697 67.9386 24.6181 68.5214 23.9147C69.1041 23.2114 69.3955 22.287 69.3955 21.1416C69.3955 19.9962 69.1041 19.0818 68.5214 18.3986C67.9386 17.6952 67.1649 17.3436 66.2004 17.3436C65.2157 17.3436 64.432 17.6852 63.8492 18.3684C63.2865 19.0517 63.0052 19.9761 63.0052 21.1416C63.0052 22.3071 63.2865 23.2415 63.8492 23.9449C64.432 24.6281 65.2157 24.9697 66.2004 24.9697Z" fill="#0060FF"/>
<path d="M79.0146 33.7714C79.4165 32.7064 79.8285 31.6313 80.2505 30.5462C80.6926 29.4811 81.1146 28.4261 81.5165 27.3812C80.572 25.0702 79.6074 22.7392 78.6227 20.388C77.6582 18.0168 76.7037 15.6757 75.7592 13.3647C76.6434 13.3647 77.5276 13.3647 78.4117 13.3647C79.2959 13.3647 80.1701 13.3647 81.0342 13.3647C81.5566 14.6508 82.0791 15.957 82.6016 17.2833C83.1442 18.6096 83.6767 19.9258 84.1992 21.232C84.6815 19.9258 85.1738 18.6096 85.6762 17.2833C86.1786 15.957 86.6709 14.6508 87.1532 13.3647C88.0173 13.3647 88.8814 13.3647 89.7455 13.3647C90.6096 13.3647 91.4736 13.3647 92.3377 13.3647C90.9914 16.7206 89.6349 20.1268 88.2685 23.5832C86.9221 27.0194 85.5757 30.4155 84.2293 33.7714C83.3652 33.7714 82.4911 33.7714 81.6069 33.7714C80.7428 33.7714 79.8787 33.7714 79.0146 33.7714Z" fill="#0060FF"/>
<path d="M95.2929 33.7714C95.6948 32.7064 96.1068 31.6313 96.5288 30.5462C96.9709 29.4811 97.3929 28.4261 97.7948 27.3812C96.8503 25.0702 95.8857 22.7392 94.9011 20.388C93.9365 18.0168 92.982 15.6757 92.0375 13.3647C92.9217 13.3647 93.8059 13.3647 94.6901 13.3647C95.5743 13.3647 96.4484 13.3647 97.3125 13.3647C97.835 14.6508 98.3574 15.957 98.8799 17.2833C99.4225 18.6096 99.955 19.9258 100.477 21.232C100.96 19.9258 101.452 18.6096 101.954 17.2833C102.457 15.957 102.949 14.6508 103.431 13.3647C104.296 13.3647 105.16 13.3647 106.024 13.3647C106.888 13.3647 107.752 13.3647 108.616 13.3647C107.27 16.7206 105.913 20.1268 104.547 23.5832C103.2 27.0194 101.854 30.4155 100.508 33.7714C99.6435 33.7714 98.7694 33.7714 97.8852 33.7714C97.0211 33.7714 96.157 33.7714 95.2929 33.7714Z" fill="#0060FF"/>
<path d="M120.229 28.9486C120.229 28.7878 120.229 28.6371 120.229 28.4964C120.229 28.3357 120.229 28.185 120.229 28.0443C119.727 28.4663 119.154 28.7878 118.511 29.0089C117.888 29.25 117.215 29.3706 116.492 29.3706C115.467 29.3706 114.502 29.1696 113.598 28.7677C112.694 28.3658 111.89 27.8032 111.186 27.0797C110.503 26.3362 109.961 25.4621 109.559 24.4573C109.177 23.4525 108.986 22.3473 108.986 21.1416C108.986 19.9158 109.177 18.8005 109.559 17.7957C109.961 16.791 110.503 15.9269 111.186 15.2034C111.89 14.48 112.694 13.9274 113.598 13.5456C114.502 13.1437 115.457 12.9427 116.461 12.9427C117.185 12.9427 117.868 13.0633 118.511 13.3044C119.154 13.5255 119.727 13.837 120.229 14.2389C120.229 13.0332 120.229 11.8174 120.229 10.5916C120.229 9.36577 120.229 8.15001 120.229 6.9443C121.053 6.9443 121.887 6.9443 122.731 6.9443C123.575 6.9443 124.399 6.9443 125.203 6.9443C125.203 10.5815 125.203 14.2489 125.203 17.9464C125.203 21.644 125.203 25.3113 125.203 28.9486C124.399 28.9486 123.575 28.9486 122.731 28.9486C121.887 28.9486 121.053 28.9486 120.229 28.9486ZM117.155 24.9697C118.119 24.9697 118.893 24.6181 119.476 23.9147C120.059 23.2114 120.35 22.287 120.35 21.1416C120.35 19.9962 120.059 19.0818 119.476 18.3986C118.893 17.6952 118.119 17.3436 117.155 17.3436C116.17 17.3436 115.386 17.6852 114.804 18.3684C114.241 19.0517 113.96 19.9761 113.96 21.1416C113.96 22.3071 114.241 23.2415 114.804 23.9449C115.386 24.6281 116.17 24.9697 117.155 24.9697Z" fill="#0060FF"/>
<path d="M127.997 6.91833H127.545V5.52846H126.933V5.17528H128.609V5.52846H127.997V6.91833Z" fill="#0060FF"/>
<path d="M129.338 6.91832H128.908V5.17528H129.415L129.964 5.99172L130.496 5.17528H131V6.91832H130.57V5.73375L129.952 6.66036L129.338 5.73877V6.91832Z" fill="#0060FF"/>
<path d="M13.5199 23.8608L3.44643 28.2732V28.2825C2.76779 28.6046 2.28798 29.3972 2.28798 30.3264C2.28798 31.2171 2.72936 31.9832 3.36292 32.3291L10.9326 35.6428L11.1434 35.7342C11.3132 35.7966 11.4926 35.8284 11.6736 35.8283C12.6875 35.8283 13.5106 34.8502 13.5292 33.6374V23.8608H13.5199Z" fill="#2128BD"/>
<path d="M13.5196 16.0062V11.6666C13.5138 11.3324 13.4176 11.0059 13.2415 10.7216C13.0653 10.4375 12.8157 10.2062 12.519 10.0522L12.0736 9.88915L3.44618 6.74785C3.11061 6.61816 2.82077 6.39232 2.61298 6.09863C2.40519 5.80495 2.2887 5.45647 2.27809 5.09686C2.26747 4.73726 2.36322 4.38252 2.55332 4.07709C2.74343 3.77166 3.01943 3.52912 3.34677 3.37987L1.36787 4.10091L1.34666 4.10754L1.12797 4.18839C1.12797 4.18839 0.942398 4.2825 0.862874 4.33419C0.62047 4.49046 0.416805 4.69984 0.267308 4.94648C0.11781 5.19312 0.0263997 5.47053 0 5.75773C0 5.80015 0 5.84256 0 5.89028C0 5.90353 0 5.91546 0 5.92739V16.0088L13.5196 16.0062Z" fill="white"/>
<path d="M27.0525 5.88501C27.0525 5.84259 27.0525 5.80018 27.0525 5.75246C27.027 5.46561 26.9368 5.1883 26.7884 4.94146C26.6401 4.69463 26.4377 4.48472 26.1963 4.3276C26.1117 4.27623 26.023 4.2319 25.9312 4.19505V4.18578L25.7139 4.10492L25.6913 4.0983L15.2825 0.310142C14.1468 -0.103381 12.9017 -0.103381 11.766 0.310142L1.36522 4.09962L1.34269 4.10625L1.12531 4.1871V4.19638C1.03346 4.23323 0.944802 4.27756 0.860217 4.32893C0.617643 4.48602 0.414081 4.69636 0.265019 4.94396C0.115957 5.19155 0.0253218 5.46984 0 5.75773C0 5.80015 0 5.84256 0 5.89028C0 5.90353 0 5.91546 0 5.92739L7.37089e-07 29.2687C7.37089e-07 30.1965 0.465233 31.0024 1.13194 31.3576C1.20904 31.3988 1.28925 31.4338 1.37185 31.4623L3.56812 32.4326L3.36135 32.3424C2.72779 31.9964 2.28774 31.2304 2.28774 30.3397C2.28774 29.4118 2.76755 28.6166 3.44486 28.2958V28.2865L13.5199 23.8608L25.6754 18.5391C25.758 18.5106 25.8382 18.4756 25.9153 18.4344C26.578 18.0792 27.0472 17.2786 27.0472 16.3455V5.92477C27.0498 5.91164 27.0516 5.89836 27.0525 5.88501Z" fill="#0060FF"/>
</g>
<defs>
<clipPath id="clip0_526_5900">
<rect width="131" height="35.8283" fill="white"/>
</clipPath>
</defs>
</svg>
