<?xml version="1.0" encoding="UTF-8" standalone="no"?>
<!-- Created with Inkscape (http://www.inkscape.org/) -->

<svg
   width="19.05002mm"
   height="19.052519mm"
   viewBox="0 0 19.05002 19.052519"
   version="1.1"
   id="svg1"
   inkscape:version="1.3.1 (9b9bdc1480, 2023-11-25, custom)"
   sodipodi:docname="icon.svg"
   xmlns:inkscape="http://www.inkscape.org/namespaces/inkscape"
   xmlns:sodipodi="http://sodipodi.sourceforge.net/DTD/sodipodi-0.dtd"
   xmlns="http://www.w3.org/2000/svg"
   xmlns:svg="http://www.w3.org/2000/svg">
  <sodipodi:namedview
     id="namedview1"
     pagecolor="#505050"
     bordercolor="#eeeeee"
     borderopacity="1"
     inkscape:showpageshadow="0"
     inkscape:pageopacity="0"
     inkscape:pagecheckerboard="0"
     inkscape:deskcolor="#505050"
     inkscape:document-units="px"
     inkscape:zoom="8.2243423"
     inkscape:cx="34.227661"
     inkscape:cy="26.385089"
     inkscape:window-width="1850"
     inkscape:window-height="1016"
     inkscape:window-x="70"
     inkscape:window-y="27"
     inkscape:window-maximized="1"
     inkscape:current-layer="layer1" />
  <defs
     id="defs1" />
  <g
     inkscape:label="Layer 1"
     inkscape:groupmode="layer"
     id="layer1"
     transform="translate(-84.1375,-87.577083)">
    <path
       class="cls-1"
       d="m 92.932271,93.987937 c -0.674688,1.076854 -0.547688,2.516188 0.391583,3.452813 0.939271,0.936625 2.375959,1.06627 3.452813,0.391583 v -3.84175 h -3.84175 z"
       id="path1"
       style="fill:#000000;stroke-width:0px" />
    <polygon
       class="cls-1"
       points="72,14.91 72,0 57.09,0 38.44,18.64 53.36,18.64 53.36,33.56 "
       id="polygon1"
       style="fill:#000000;stroke-width:0px"
       transform="matrix(0.26458333,0,0,0.26458333,84.137521,87.577083)" />
    <path
       class="cls-1"
       d="M 92.336958,98.427645 C 91.13575,97.226437 90.81825,95.480187 91.381813,93.987937 h -2.899834 c -0.484187,2.241021 0.142875,4.672542 1.883834,6.410853 1.740958,1.74096 4.172479,2.36802 6.410854,1.88383 v -2.899829 c -1.49225,0.563563 -3.2385,0.246063 -4.439709,-0.955146 z"
       id="path2"
       style="fill:#000000;stroke-width:0px" />
    <path
       class="cls-1"
       d="m 88.97675,92.508916 h 3.357563 l 4.934479,-4.931833 h -3.944938 l -2.958041,2.958042 c -0.590021,0.59002 -1.050396,1.259416 -1.386417,1.973791 z"
       id="path3"
       style="fill:#000000;stroke-width:0px" />
    <path
       class="cls-1"
       d="m 98.255687,101.78785 c 0.714375,-0.33337 1.383771,-0.79639 1.973793,-1.38641 l 2.95804,-2.96069 v -3.944938 l -4.931833,4.931833 v 3.357565 z"
       id="path4"
       style="fill:#000000;stroke-width:0px" />
    <path
       class="cls-1"
       d="m 89.376271,101.38833 c -2.013479,-2.013476 -2.783417,-4.794247 -2.31775,-7.397747 h -2.823104 c -0.441854,3.325812 0.611187,6.815667 3.169708,9.371537 2.555875,2.55588 6.045729,3.61157 9.371542,3.16971 v -2.8231 c -2.6035,0.46567 -5.386917,-0.30692 -7.39775,-2.31775 z"
       id="path5"
       style="fill:#000000;stroke-width:0px" />
    <path
       class="cls-1"
       d="m 98.255687,103.29862 v 2.93159 c 1.807103,-0.49477 3.513663,-1.44992 4.931833,-2.86809 v -3.944933 l -1.97379,1.973793 c -0.86783,0.86783 -1.881188,1.50283 -2.958043,1.91029 z"
       id="path6"
       style="fill:#000000;stroke-width:0px" />
    <path
       class="cls-1"
       d="m 89.376271,89.550875 1.973792,-1.973792 h -3.944938 c -1.420812,1.418167 -2.373312,3.124729 -2.868083,4.931833 h 2.931583 c 0.407458,-1.0795 1.042458,-2.090208 1.910292,-2.958041 z"
       id="path7"
       style="fill:#000000;stroke-width:0px" />
  </g>
</svg>
