<svg xmlns="http://www.w3.org/2000/svg" width="70.3" height="29.8" xmlns:v="https://vecta.io/nano"><path d="M39.8 25c-.2-.1-.8-.5-.8-1.8 0-1.1 1.2-2.3 2.6-3.7 2-2 4.2-4.2 4.2-7.3a16.72 16.72 0 0 0-1.1-5.7l18.1 8.7zM40.1.5l-.8-.4.5.7s2.9 4.4 2.9 8.3c0 3.6-2 5.6-3.9 7.4-1.8 1.8-3.7 3.7-3.7 6.9a9.18 9.18 0 0 0 2.2 5.9l.1.1.1-.1 32.3-13.8.5-.2-.4-.2zM18.8 17.2c0-2.8 4.8-5.1 6.6-5.9a10.7 10.7 0 0 0-1.8 5.8 10.53 10.53 0 0 0 2.1 5.8c-1.9-.5-6.9-2.5-6.9-5.7m17.6-2.4c1.7-2.4 3.5-4.9 3.5-7.1 0-3.5-3.5-7.4-3.6-7.6l-.1-.1-.1.1-35.6 15-.5.2.5.2 31.8 12.8.2-.4c-.1-.1-5.4-5.4-5.4-9.7 0-3.5 1.9-5.2 3.8-6.8a11.81 11.81 0 0 0 3.2-3.8c.375-1.024.544-2.111.5-3.2A4.5 4.5 0 0 1 36 7.8c0 1.5-1.3 3.4-2.7 5.4-1.6 2.3-3.3 4.6-3.3 6.8 0 4.1 5 9.6 5.2 9.8l.4-.3c0-.1-2.4-4.8-2.4-8.5.1-1.7 1.6-3.9 3.2-6.2" fill="#005495"/></svg>