<svg xmlns="http://www.w3.org/2000/svg" width="241.8" height="41.5" xmlns:v="https://vecta.io/nano"><path d="M179.4 22.9h.3c.337.028.675-.006 1-.1h.4l-.2-.3-2.8-4.9-.4.2 1.7 4.9zm-11.1-8.3a3.77 3.77 0 0 0 2-2.5v.8a18.7 18.7 0 0 0 .3 3.4 3.73 3.73 0 0 0-2.3-1.7m-59.6 6.6l-5-6.7 5-6.6zm70.4-8.2c1.2 0 2 .9 2 2.4a2.09 2.09 0 0 1-1.5 2.3l-.3.1.2.3 2.5 4.5.1.2h.2a7.46 7.46 0 0 0 5.8-6.4c.5 4.4 3.6 6.7 6.7 6.7 1.637.054 3.225-.56 4.4-1.7v1.1h6.8v-15h-6.6v7.3c.071.657-.138 1.313-.575 1.808s-1.064.782-1.725.792a2.3 2.3 0 0 1-2.3-2.6 2.4 2.4 0 0 1 2.3-2.6h.4l-.2-.3-2.9-5-.1-.1h-.1c-3.3.3-5.7 3-6.1 6.8-.436-3.437-3.44-5.962-6.9-5.8a6.98 6.98 0 0 0-4.7 1.5c.7-2.3 2.8-3 6.1-3.7 1.9-.4 5.1-1.1 5.2-5.4V0h-5.4v.2c-.1.5-.7.7-2.1 1l-2.3.5c-4.4 1.1-6.9 4.2-7.4 9.2-.2-2.5-2.8-4-6.8-4-2.115.007-4.212.38-6.2 1.1v-.5h-6.9v7.3c.071.657-.138 1.313-.575 1.808s-1.064.782-1.725.792a2.3 2.3 0 0 1-2.3-2.6 2.4 2.4 0 0 1 2.3-2.6h.4l-.2-.3-2.9-5-.1-.1h-.1c-3.7.3-6.2 3.6-6.2 8a11.02 11.02 0 0 0 .2 1.8 18.3 18.3 0 0 1-5.1 1.6c-1.3 0-1.3-.5-1.3-.6 0-.3 0-.7 1.3-.9 2.3-.4 4.7-1.2 4.7-4.6 0-2.6-1.8-5.4-6.7-5.4-1.985-.003-3.942.478-5.7 1.4l-.2.1.1.2 1.6 3.3.1.2.2-.1c.826-.566 1.799-.879 2.8-.9 1.3 0 1.4.6 1.4.8 0 .6-.7.8-1.7.9a.6.6 0 0 0-.4.1c-2 .3-3.3 1.2-3.8 2.7v-.7c0-5.2-3.4-8-6.8-8a6.46 6.46 0 0 0-4.6 1.8v-1H101l-.1.1-2.9 5.1V7.5H86.5l-.1.2-2 5.7-2.8-5.7.1-.2h-8l.2.3 7.4 12.5-3.6 7.4-.2.3h7.2l.1-.1 6.4-14.7v9h7v-5.7l3.2 5.6.1.1h7.3V28h6.7V14.8c-.071-.657.138-1.313.575-1.808s1.064-.782 1.725-.792c.655.027 1.27.319 1.704.81s.649 1.137.596 1.79c.075.641-.12 1.284-.536 1.777s-1.019.791-1.664.823h-.4l.2.3 3.1 4.9.1.1h.1c2.8-.3 4.9-2.4 5.7-5.4 0 1.6.7 5.4 7.2 5.4a14.26 14.26 0 0 0 7.6-2.3 6.21 6.21 0 0 0 4.9 2.3 6.03 6.03 0 0 0 4.4-1.7v1.1h6.8V12a13.81 13.81 0 0 1 5.2-.9c1.3 0 1.9.3 1.9 1 0 .4-.5.7-1.3.7h-2.9v3.9h2.7c1.1 0 1.6.2 1.6.7s-.5 1-1.6 1a8.54 8.54 0 0 1-4.1-1.3l-.4-.2v5.4l.2.1c1.581.524 3.235.795 4.9.8 5.6 0 7.6-2.5 7.6-4.7A7.6 7.6 0 0 0 177 23l.3.1v-7.7c-.1-1.5.6-2.4 1.8-2.4m62.4 8.9l-5.5-7.4 4.9-6.6.3-.4h-8l-.1.1-2.8 5.1V7.5h-7v14.7h7v-5.7l3.2 5.6.1.1h8.2zm-43-8.8l.4-.2-1.8-5.3v-.1h-.1a8.33 8.33 0 0 0-1.5-.4L195 7l.2.4zM39.8 25.4c-.2-.1-.8-.5-.8-1.8 0-1.1 1.2-2.3 2.6-3.7 2-2 4.2-4.2 4.2-7.3a16.72 16.72 0 0 0-1.1-5.7l18.1 8.7zM40.1.9l-.8-.4.5.7s2.9 4.4 2.9 8.3c0 3.6-2 5.6-3.9 7.4-1.8 1.8-3.7 3.7-3.7 6.9.015 2.165.794 4.254 2.2 5.9l.1.1.1-.1 32.3-13.8.5-.2-.4-.2zM18.8 17.6c0-2.8 4.8-5.1 6.6-5.9a10.7 10.7 0 0 0-1.8 5.8 10.53 10.53 0 0 0 2.1 5.8c-1.9-.5-6.9-2.5-6.9-5.7m17.6-2.4c1.7-2.4 3.5-4.9 3.5-7.1 0-3.5-3.5-7.4-3.6-7.6l-.1-.1-.1.1-35.6 15-.5.2.5.2 31.8 12.8.2-.4c-.1-.1-5.4-5.4-5.4-9.7 0-3.5 1.9-5.2 3.8-6.8A11.81 11.81 0 0 0 34.1 8c.375-1.024.544-2.111.5-3.2A4.5 4.5 0 0 1 36 8.2c0 1.5-1.3 3.4-2.7 5.4-1.6 2.3-3.3 4.6-3.3 6.8 0 4.1 5 9.6 5.2 9.8l.4-.3c0-.1-2.4-4.8-2.4-8.5.1-1.7 1.6-3.9 3.2-6.2m113.7-2.1l.4-.2-1.8-5.4v-.1h-.1a8.33 8.33 0 0 0-1.5-.4l-.5-.1.2.4zm-33.5 4.3l-.4.2 1.7 4.9v.1h.1c.4.1.9.2 1.4.3h.4l-.2-.4zm96.6 4.9h.2v-5.1h2.2v5.1h7V7.5h-7V12h-2.2V7.5h-7v14.7h6.8z" fill="#005495"/><path d="M215.5 25.8a5.81 5.81 0 0 1-1.7 1.7c-1.9 1-3.1.8-4.6 2.2-.722.799-1.146 1.824-1.2 2.9 0 .3-.1.6-.1.8 0-.1 0-.1.1-.2.1-.2.1-.3.2-.5s.2-.3.3-.5c.214-.314.486-.586.8-.8a3.7 3.7 0 0 1 1.1-.5l1.1-.3c.349-.039.687-.141 1-.3a3.55 3.55 0 0 0 .9-.4c.1-.1.3-.2.4-.3.1 0 .1-.1.2-.1l.1-.1c.2-.2.3-.4.5-.6l.1-.1.1-.1a.31.31 0 0 0 .1-.2 1.01 1.01 0 0 0 .2-.5v.1c0 .1-.1.2-.1.4 0 .1-.1.2-.1.3a.1.1 0 0 1-.1.1.31.31 0 0 1-.1.2 5.74 5.74 0 0 1-.4.7 4.62 4.62 0 0 1-.7.7c-.278.204-.58.372-.9.5-.3.1-.7.2-1.1.3l-1.1.3a2.47 2.47 0 0 0-.9.4 4.35 4.35 0 0 0-.7.6c-.1.1-.2.3-.3.4a.76.76 0 0 0-.2.4c-.1.1-.1.3-.2.4 0 .1-.1.3-.1.4s-.1.3-.1.4-.1.2-.1.3c0 .2-.1.4-.1.6v.3l.2.2a3.5 3.5 0 0 1 1.1-2c1-.8 2.3-.6 3.5-.9 1.18-.228 2.202-.958 2.8-2a6.07 6.07 0 0 0 .5-4.4c-.2-.1-.3-.5-.4-.8z" fill="#59aa47"/><g fill="#005496"><path d="M225 41.2h3.2v-2.5h1.3v2.5h3.2v-6.9h-3.2v2.2h-1.3v-2.2H225zm8.1 0h3.2v-3l1.7 3h3.7l-2.7-3.6 2.4-3.3h-3.5l-1.6 2.8v-2.8h-3.2zm-21.1.3l-.8-2.4 1.4 2.3a1.27 1.27 0 0 1-.6.1m9.2-4.7l-1.6-2.8a1.45 1.45 0 0 1 .7.2z"/><path d="M220.3 36.4a1.24 1.24 0 0 0-1.2 1.3 1.27 1.27 0 0 0 1.2 1.4c.7 0 1.2-.5 1.2-1.4v-3.4h3v6.9h-3.1v-.7c-.549.643-1.355 1.009-2.2 1-1.6 0-3.1-1.3-3.1-3.7 0-2 1.2-3.6 2.9-3.7zm-7.7-1.9a2.69 2.69 0 0 0-2.4 1 4.09 4.09 0 0 0-2.3-.8 6.65 6.65 0 0 0-.3 2.1c0 1.1.2 4 3.1 4.6V38c0-.8.4-1.3 1-1.3.7 0 1.1.5 1.1 1.3 0 .7-.3 1.1-.8 1.2l1.2 2.2a3.5 3.5 0 0 0 2.7-3.6 3.19 3.19 0 0 0-3.3-3.3z"/></g><g fill="#59aa47"><path d="M185.6 41.1h3.2V38l1.7 3.1h3.7l-2.7-3.7 2.4-3.3h-3.5l-1.6 2.9v-2.9h-3.2zm-2.9-2.1l1.2 2c.2-.1.3-.2.5-.3l-1.7-1.7z"/><path d="M181.7 39.6c-.324-.013-.627-.161-.836-.408s-.305-.571-.264-.892h5.1c0-1.5-.4-4.5-4.1-4.5a3.76 3.76 0 0 0-4.1 3.8 3.62 3.62 0 0 0 4 3.8c.614.015 1.224-.087 1.8-.3l-1-1.7c-.167.142-.382.214-.6.2zm0-4a1.13 1.13 0 0 1 1.1 1.2h-2.1a1.11 1.11 0 0 1 1-1.2zm14.9 3l.9 2.8a1.48 1.48 0 0 0 .7-.1zm.6-4.8c-3 0-4.2 1.8-4.2 3.8-.048 1.874 1.338 3.478 3.2 3.7v-3.8a1.1 1.1 0 0 1 1.1-1.1 1.12 1.12 0 0 1 1.1 1.2c.033.6-.403 1.124-1 1.2l1.5 2.4a3.5 3.5 0 0 0 2.7-3.6c-.1-2-1.4-3.8-4.4-3.8z"/><circle cx="204.5" cy="37.7" r="1.4"/></g></svg>