<svg id="Слой_1" data-name="Слой 1" xmlns="http://www.w3.org/2000/svg" viewBox="0 0 2312.89 783.73">
  <defs>
    <style>
      .cls-1 {
        fill: #0020ff;
      }

      .cls-2 {
        fill: #ffd400;
      }
    </style>
  </defs>
  <title>1Монтажная область 77</title>
  <g>
    <path class="cls-1" d="M1983.33,783.73V712.55h53.61c18.45,0,31.63-10.55,41.3-32.52l22-51.85-132.7-286.51c-7.92-14.93-11.43-31.63-11.43-49.21V174.7h82.61V282.79a106.88,106.88,0,0,0,7.91,40.43l92.28,208.29L2225,323.22a106.87,106.87,0,0,0,7.9-40.43V174.7h80V292.46c0,12.31-3.52,29-11.42,49.21l-145.89,348c-28.13,67.67-51,94-103.7,94Z"/>
    <path class="cls-1" d="M122.16,620.27c-80,0-122.16-42.18-122.16-123v-203c0-80.86,42.19-123,122.16-123h99.31c77.34,0,120.4,42.18,120.4,123v29H261V289c0-30.76-14.94-45.7-45.7-45.7h-87c-30.76,0-45.7,14.94-45.7,45.7V502.5c0,30.76,14.94,45.7,45.7,45.7h87c30.76,0,45.7-14.94,45.7-45.7V458.56h80.85v38.67c0,80.86-43.06,123-120.4,123Z"/>
    <path class="cls-1" d="M534.45,620.73c-78.5,0-119.9-42.18-119.9-123v-203c0-80.86,41.4-123,119.9-123h209.3c76.77,0,119.89,42.18,119.89,123v203c0,80.86-43.12,123-119.89,123Zm203.26-70.31c28.46,0,44.85-17.58,44.85-45.7V287.65c0-30.76-14.65-45.7-44.85-45.7H540.48c-30.19,0-44.85,14.94-44.85,45.7V504.72c0,30.76,14.66,45.7,44.85,45.7Z"/>
    <path class="cls-1" d="M1022.65,616.75H940v-442h74.7l5.28,54.48,46.57-38.67c16.7-13.18,37.79-19.33,65-19.33h63.28v72.07h-59.76c-16.71,0-32.52,4.39-45.7,14.06l-66.8,56.24Z"/>
    <path class="cls-1" d="M1592.7,500.75c0,78.21-43.07,119.52-121.29,119.52H1369.47c-80,0-122.16-42.18-122.16-123v-203c0-80.86,42.18-123,122.16-123h101.94c78.22,0,121.29,42.18,121.29,123V418.13H1329v89.65c0,30.75,15,45.7,45.7,45.7h91.4c30.75,0,45.7-15,45.7-45.7V477.9h80.86ZM1329,352.23h183.68V283.67c0-30.75-14.94-45.7-45.7-45.7h-92.28c-30.75,0-45.7,14.95-45.7,45.7Z"/>
    <rect class="cls-2" x="604.26" y="361.35" width="69.67" height="69.67"/>
    <path class="cls-1" d="M1898.11,246.57h-94V616h-83.07V246.57h-69.82V174.09h69.82V123.72C1721.06,41.53,1762.59,0,1844.78,0h55.09V72.47h-51.56c-29.16,0-44.18,15-44.18,46v55.67h94Z"/>
  </g>
</svg>
