<?xml version="1.0" encoding="UTF-8"?>
<svg width="554.89" height="394.04" version="1.0" viewBox="-0.99259437 -0.99259437 46.591726 33.061673" xmlns="http://www.w3.org/2000/svg" xmlns:cc="http://creativecommons.org/ns#" xmlns:dc="http://purl.org/dc/elements/1.1/" xmlns:rdf="http://www.w3.org/1999/02/22-rdf-syntax-ns#">
<metadata>
<rdf:RDF>
<cc:Work rdf:about="">
<dc:format>image/svg+xml</dc:format>
<dc:type rdf:resource="http://purl.org/dc/dcmitype/StillImage"/>
<dc:title/>
</cc:Work>
</rdf:RDF>
</metadata>
<path d="m12.389 16.639c0.05 3.4275 0.225 7.34 0.82625 10.448 0 0.0125 0.0062 0.0375 0.02375 0.05875 0.47625 0.7 0.9725 3.4862 1.365 4.3588 0.015 0.02625 0.04375 0.0525 0.08875 0.08625 0.27125 0.18625 1.2062 0.555 1.8212 0.48125 0.055-0.0012 0.07-0.03625 0.07375-0.0675 0.13875-0.7175 0.05125-1.3925-0.03125-2.7175-0.2125-3.2538-0.45125-8.4275-0.41375-11.565 2.5438 1.4175 12.09 8.2638 17.065 9.6762 0.11 0.03125 0.23125 0.01125 0.315-0.06625 0.265-0.27875 0.4375-0.32625 0.73625-0.45125 0.1375-0.06625 0.3-0.43125 0.26125-0.8525 3.155-0.1175 7.5288-1.3238 9.8225-4.21 1.5775-1.9825 1.5538-4.74 0.5675-5.6725-0.0925-0.08375-0.275-0.13-0.41375-0.2625-1.5038-1.5-3.5425-1.9-5.7312-1.7712-2.2238 0.135-4.005 1.0638-5.3838 1.9338-0.0025 0.0038-0.01375 5e-3 -0.01625-0.0087-0.1175-2.125 0.72875-4.8212-0.015-6.565-0.03-0.0725-0.08125-0.09625-0.15375-0.09625-0.6675 0.0125-1.9575 0.47875-2.2362 0.72125-0.06375 0.055-0.09625 0.11-0.10125 0.2275-0.0062 0.49625-0.1575 3.075-0.40625 3.3238-0.045 0.04625-0.03 0.09625-0.045 0.20125-0.2925 3.1088-0.285 5.74-0.02125 7.9725 0.01 0.075 0.315 0.39 0.6725 0.52 0.245 0.09 1.2325-0.11375 2.0812-0.435 0.11625-0.04 0.2575-0.05125 0.3275-0.05375 0.08625-0.0087 0.11875-0.11 0.1125-0.2125-0.0075-0.15-0.01375-0.565 0.025-0.73 0.4825-1.9675 2.495-4.5338 5.03-4.9238 1.615-0.2525 2.6825 0.3025 3.4188 1.115 0.195 0.21125 0.42375 1.795-0.49 3.5138-0.6625 1.24-2 2.3325-3.8025 3.0125-1.8988 0.72-3.8062 0.875-5.7838 0.80375-1.9238-1.1638-5.1562-3.8538-7.99-4.9275-0.45375-0.175-1.2538-0.87625-1.6088-1.1612-1.3775-1.105-4.3188-3.025-6.0662-4.2-0.01125-0.01125-0.01125-0.02125-0.01125-0.05125-0.0225-0.23625 0.0037-0.28125 0.02125-0.36625 0.02375-0.08 0.075-0.1125 0.13625-0.1525 0.61375-0.4075 3.1988-1.8212 3.42-2.155 0.07625-0.07625 0.2325-0.165 0.29125-0.1975 3.8862-2.355 10.708-5.545 13.686-8.63 0.035-0.03875 0.04-0.1025 0.04-0.18 0-0.13125 0.0275-0.27 0.05875-0.3725 0.1275-0.43625 0.13875-0.7625 0.03125-1.1512-0.015-0.05875-0.07625-0.12-0.115-0.12625-1.5925-0.15625-3.7075 0.81125-5.675 2.6562-0.58125 0.54625-1.0512 0.75-1.57 1.0438-2.23 1.2688-7.5038 4.545-10.025 6.1637-0.0325 0.02125-0.065 0.0062-0.065-0.03125 0.1525-2.9625 0.7225-7.1825 1.35-10.44 0.01875-0.11-0.01875-0.19375-0.04375-0.23625-0.20625-0.30625-0.325-0.675-0.4-0.755-0.0125-0.01375-0.01875-0.0175-0.035-0.0275-0.42625-0.21625-0.76875-0.135-1.085-0.06-0.31375 0.07-0.70625 0.3225-1.2062 0.4425-0.07125 0.015-0.10625 0.05-0.13125 0.105-1.2338 2.9912-2.3175 8.1162-2.5212 12.085 0 0.0125 0 0.04125-0.02875 0.02375-2.4712-1.5975-4.755-2.7338-6.1362-3.41-0.03875-0.015-0.06125-0.0175-0.095-0.02375-0.4625-0.05875-1.0025-0.395-1.5012-0.695-0.555-0.33375-1.6412-1.105-2.3225-1.495-0.08625-0.05875-0.16125-0.0675-0.23-0.05875-0.5425 0.09375-1.6738 0.85-1.9888 1.3412-0.1 0.15 0.11 0.4875 0.08375 0.695-5e-3 0.025 0.0038 0.0475 0.01875 0.06 0.63125 0.64875 2.2925 1.7962 4.0675 2.75 2.0488 1.1038 4.135 2.155 5 2.7038 0.0375 0.02625 0.0375 0.035 0.0525 0.05375 0.1025 0.1175 0.18375 0.1825 0.46375 0.35 0.4075 0.245 0.49375 0.2725 0.61125 0.375 0.0575 0.055 0.03 0.11125-0.02375 0.15-2.17 1.51-6.4788 4.3075-8.5362 5.685-0.29875 0.2-1.4638 0.72-1.7062 0.8175-0.52125 0.2175-0.99125 0.5625-1.1738 0.955-0.035 0.0775 0.01375 0.115 0.06625 0.1325 0.3325 0.095 0.4125 0.3275 0.64375 0.41625 0.07125 0.0275 0.14625 0.0275 0.25875 0.03125 0.42875 0.015 1.1825-0.275 2.5312-0.86875 1.5425-0.68125 6.33-3.6212 6.9112-3.96 0.01125-5e-3 0.0175-0.0088 0.03875-0.0088 0.27875 0 0.53625-0.20875 0.78875-0.405 0.28375-0.22 0.95875-0.635 1.3625-0.81125l0.7825-0.4325-0.01375 0.56125z" fill="#f9b500"/>
</svg>
