<?xml version="1.0" encoding="UTF-8"?>
<svg width="615.5" height="93.7" version="1.1" viewBox="0 0 615.5 93.699997" xmlns="http://www.w3.org/2000/svg" xmlns:cc="http://creativecommons.org/ns#" xmlns:dc="http://purl.org/dc/elements/1.1/" xmlns:rdf="http://www.w3.org/1999/02/22-rdf-syntax-ns#">
<metadata>
<rdf:RDF>
<cc:Work rdf:about="">
<dc:format>image/svg+xml</dc:format>
<dc:type rdf:resource="http://purl.org/dc/dcmitype/StillImage"/>
<dc:title/>
</cc:Work>
</rdf:RDF>
</metadata>
<circle cx="378.7" cy="33.6" r="11.2" fill="#7887e6"/>
<circle cx="378.7" cy="68.6" r="11.2" fill="#ff5073"/>
<path d="m356.4 54.5v-4.3c0-16-11.2-27.8-26.5-27.8-15.2 0-27 12.1-27 29 0 17.3 11.2 28.3 29 28.3 5 0 14.8-0.9 22.4-6.1l-4.8-10.6c-5.1 2.9-10.3 4.2-15 4.2h-1.5c-0.4 0-0.7-0.1-1.1-0.1h-0.2c-0.3 0-0.6-0.1-0.9-0.2-0.1 0-0.2 0-0.3-0.1-0.3-0.1-0.6-0.1-0.9-0.2-0.2 0-0.3-0.1-0.5-0.1-0.2-0.1-0.4-0.1-0.6-0.2s-0.4-0.2-0.7-0.3c-0.1 0-0.1-0.1-0.2-0.1-0.3-0.2-0.7-0.3-1-0.5-0.7-0.4-1.3-0.9-1.9-1.5l-0.7-0.7c-0.1-0.1-0.2-0.2-0.2-0.3-0.1-0.2-0.2-0.3-0.4-0.5-0.2-0.3-0.4-0.5-0.6-0.8-1.1-1.8-1.8-4.1-2.1-6.9h35.7zm-26.4-20.1c4.7 0 8.5 3.8 9.1 11h-18.2c0.6-7.2 4.3-11 9.1-11zm-149.3 4.8c0-2.6 2.6-4.2 6.9-4.2 4.5 0 9.2 1.6 12.7 3.1l4.8-11.3c-4.5-2.3-11.4-4.4-18.3-4.4-12.8 0-23.1 5.8-23.1 17.4 0 18.2 25.7 14.9 25.7 23 0 3-3 4.5-8 4.5-5.1 0-10.1-1.7-13.9-3.6l-5.5 11c6.4 3.4 13.9 5 20.9 5 12.4 0 23.2-6.4 23.2-18.2-0.1-18-25.4-15-25.4-22.3zm-99.2-16.8c-10.6 0-19 3.3-24.1 6.5l4.7 9.8c3.1-1.4 9.7-3.9 15.2-3.9 4 0 7.5 1.4 7.5 5.6v3.6c-23.7-1.7-30.5 8.7-30.5 18.3 0 9.4 8 17.3 18.4 17.3 4.1 0 8.6-1.6 12-3.7v2.4h17.2v-38c0.1-12.3-7.8-17.9-20.4-17.9zm3.9 44c-1.6 1.2-4.1 2.1-6.8 2.1-4.3 0-7.2-2.5-7.2-6.4 0-4.5 3.5-8.9 13.9-7.2zm152.8-44c-10.6 0-19 3.3-24.1 6.5l4.7 9.8c3.1-1.4 9.7-3.9 15.2-3.9 4 0 7.5 1.4 7.5 5.6v3.6c-23.7-1.7-30.5 8.7-30.5 18.3 0 9.4 8 17.3 18.4 17.3 4.1 0 8.6-1.6 12-3.7v2.4h17.2v-38c0.1-12.3-7.7-17.9-20.4-17.9zm3.3 44c-1.6 1.2-4.1 2.1-6.8 2.1-4.3 0-7.2-2.5-7.2-6.4 0-4.5 3.6-8.9 13.9-7.2v11.5zm31.2-44.9v2.3h-9.1v11.7h9.1v43h17.1v-43h11.8v-11.8h-11.8v-2.9c0-4.8 1.9-8.3 7.2-8.3 1.6 0 3.6 0.3 5 0.8v-12.2c-2.4-0.6-5-1.1-8.2-1.1-13.8 0-21.1 8.5-21.1 21.5zm-126.8 2.2-11.8 32.7-13.6-32.7h-17.6l23.1 52.1-7.2 17.9h16.3l27.7-70.1zm-117.5-19.3h-28.4v74h17.6v-27h10.8c14.3 0 25-8.9 25-24 0-13.1-8-23-25-23zm-1.9 34.1h-8.9v-21.2h8.9c6.3 0 9.9 4.4 9.9 10.7 0 6.8-4 10.5-9.9 10.5z" fill="#2d2341"/>
<path d="m486.6 22.4c-10.6 0-19 3.3-24.1 6.5l4.7 9.8c3.1-1.4 9.7-3.9 15.2-3.9 4 0 7.5 1.4 7.5 5.6v3.6c-23.7-1.7-30.5 8.7-30.5 18.3 0 9.4 8 17.3 18.4 17.3 4.1 0 8.6-1.6 12-3.7v2.4h17.3v-38c0-12.3-7.8-17.9-20.5-17.9zm3.4 44c-1.6 1.2-4.1 2.1-6.8 2.1-4.3 0-7.2-2.5-7.2-6.4 0-4.5 3.6-8.9 13.9-7.2zm29.5-2.8c3.9 1.9 8.8 3.6 13.9 3.6 5 0 8-1.5 8-4.5 0-8-25.7-4.7-25.7-23 0-11.6 10.3-17.4 23.1-17.4 7 0 13.8 2.1 18.3 4.4l-4.8 11.4c-3.4-1.5-8.2-3.1-12.7-3.1-4.3 0-6.9 1.6-6.9 4.2 0 7.3 25.3 4.3 25.3 22.3 0 11.8-10.7 18.2-23.2 18.2-7 0-14.5-1.6-20.9-5zm78.8 14.8v-36.6c0-4.1-1.8-6.8-5.9-6.8-4.2 0-8.6 2.8-10.8 4.6v38.7h-17.2v-73.8h17.2v25.1c4.4-3.5 10.5-7.2 17.5-7.2s16.4 3.6 16.4 18.6v37.4zm-159.8-19.4c-1.4 5-4.5 8.2-9.7 8.2-7.6 0-10.6-7.1-10.6-16.1 0-9.4 3.3-16.2 10.6-16.2 5 0 8.1 3.1 9.6 8.1h16.5c-3.1-13.2-14-20.7-26.1-20.7-16.8 0-28.9 10.6-28.9 28.6s12 28.6 28.9 28.6c12.2 0 23-7.5 26.1-20.7h-16.4z" fill="#7887e6"/>
</svg>
