<svg xmlns="http://www.w3.org/2000/svg" width="24" height="24" viewBox="0 0 24 24" fill="none">
    <path d="M4.31053 23.6838C6.70526 23.6838 8.62105 21.7603 8.62105 19.3558C8.62105 16.9514 6.70526 15.0278 4.31053 15.0278C1.91579 15.0278 0 16.9514 0 19.3558C0 21.7002 1.91579 23.6838 4.31053 23.6838Z" fill="#7E57C2"/>
    <path d="M11.5541 0C10.4166 0 9.33899 0.300556 8.26136 0.901667C5.08833 2.76511 4.0107 6.85267 5.80675 10.0386C8.50083 14.7873 12.8712 13.7053 13.889 15.2081C14.0686 15.5087 14.1883 15.8693 14.1883 16.2901C14.1883 17.6126 13.5298 19.5361 14.7271 21.64C16.0443 23.9242 18.9179 24.6456 21.1331 23.3832C23.4081 22.0608 24.1864 19.1755 22.8693 16.9513C21.612 14.7873 19.6962 14.4267 18.4989 13.7654C18.1396 13.525 17.8403 13.2846 17.7206 12.9239C16.9423 11.3009 19.9357 8.115 17.3614 3.42633C17.4212 3.42633 17.3614 3.36622 17.3614 3.36622C16.1041 1.20222 13.889 0 11.614 0H11.5541Z" fill="url(#paint0_linear)"/>
    <defs>
        <linearGradient id="paint0_linear" x1="4.93945" y1="0" x2="24.6374" y2="0.963923" gradientUnits="userSpaceOnUse">
            <stop stop-color="#F3762B"/>
            <stop offset="1" stop-color="#FF9800"/>
        </linearGradient>
    </defs>
</svg>