<?xml version="1.0" encoding="UTF-8" standalone="no"?>
<svg
   width="344"
   height="56"
   viewBox="0 0 344 56"
   fill="none"
   version="1.1"
   id="svg106"
   sodipodi:docname="logo.svg"
   inkscape:version="1.1.2 (0a00cf5339, 2022-02-04)"
   xmlns:inkscape="http://www.inkscape.org/namespaces/inkscape"
   xmlns:sodipodi="http://sodipodi.sourceforge.net/DTD/sodipodi-0.dtd"
   xmlns="http://www.w3.org/2000/svg"
   xmlns:svg="http://www.w3.org/2000/svg">
  <defs
     id="defs110" />
  <sodipodi:namedview
     id="namedview108"
     pagecolor="#ffffff"
     bordercolor="#666666"
     borderopacity="1.0"
     inkscape:pageshadow="2"
     inkscape:pageopacity="0.0"
     inkscape:pagecheckerboard="0"
     showgrid="false"
     inkscape:zoom="3.7906977"
     inkscape:cx="172.1319"
     inkscape:cy="27.96319"
     inkscape:window-width="1920"
     inkscape:window-height="1061"
     inkscape:window-x="0"
     inkscape:window-y="27"
     inkscape:window-maximized="1"
     inkscape:current-layer="svg106" />
  <path
     d="M33.1817 3.2168L54.8213 3.2168L37.8317 43.6556L16.0069 43.6556L33.1817 3.2168Z"
     fill="#1E053A"
     id="path78" />
  <path
     d="M22.9993 0.0743419L0.14331 0.0743434L16.0074 43.6561L37.8323 43.6561L22.9993 0.0743419Z"
     fill="#4AB8B1"
     id="path80" />
  <path
     fill-rule="evenodd"
     clip-rule="evenodd"
     d="M28.1416 15.1055L16.0112 43.6407L37.8624 43.6407L28.1416 15.1055Z"
     fill="#419499"
     id="path82" />
  <path
     d="M88.0665 16.7008C88.0665 12.5422 85.2687 9.74447 80.9957 9.74447H73.1109V23.6698H80.9957C85.3832 23.6698 88.0665 20.8721 88.0665 16.7135M96.0147 16.4338C96.0147 24.5982 90.2665 30.0794 81.5552 30.0794H73.1109V43.8903H65.3789V3.34766H81.8224C90.3684 3.34766 96.0147 8.61266 96.0147 16.4465"
     fill="#1E053A"
     id="path84" />
  <path
     d="M117.738 30.9741C115.818 30.5798 113.846 30.3764 112.155 30.3764C108.696 30.3764 106.394 32.0168 106.394 34.5348C106.394 37.0528 107.984 38.5408 110.998 38.5408C114.457 38.5408 117.687 35.7939 117.738 30.9741ZM125.19 13.7676V43.297H118.005L117.84 39.0877C115.869 42.1525 112.46 43.8567 108.849 43.8567C102.77 43.8567 98.6621 40.1813 98.6621 34.7129C98.6621 29.2444 103.647 25.2768 111.214 25.2768C113.236 25.2768 115.487 25.4928 117.738 25.9379V19.6302H100.532V13.7676H125.19Z"
     fill="#1E053A"
     id="path86" />
  <path
     d="M159.995 13.7773V55.3627H132.653V49.284H152.543V39.9114C150.406 42.493 147.227 43.8537 143.602 43.8537C136.913 43.8537 132.373 39.2501 132.373 32.2937V13.7773H139.825V31.1492C139.825 34.9262 142.407 37.4569 146.235 37.4569C150.063 37.4569 152.543 34.9389 152.543 31.1492V13.7773H159.995Z"
     fill="#1E053A"
     id="path88" />
  <path
     d="M214.144 25.264V43.8439H206.692V26.4848C206.692 22.6442 204.288 20.1262 200.613 20.1262C196.937 20.1262 194.585 22.6442 194.585 26.4848V43.8439H187.132V26.4848C187.132 22.6442 184.716 20.1262 181.054 20.1262C177.391 20.1262 175.026 22.6442 175.026 26.4848V43.8439H167.573V14.3145H174.759L174.86 17.8245C176.946 15.1411 180.062 13.7676 183.686 13.7676C187.578 13.7676 190.706 15.4082 192.626 18.206C194.763 15.3065 198.209 13.7676 202.152 13.7676C209.337 13.7676 214.157 18.3713 214.157 25.2768"
     fill="#1E053A"
     id="path90" />
  <path
     d="M255.553 43.7638L248.711 34.0605L241.856 43.7638H232.979L244.272 28.643L233.641 14.2344H242.517L248.711 23.1619L254.904 14.2344H263.768L253.149 28.643L264.442 43.7638H255.553Z"
     fill="#1E053A"
     id="path92" />
  <path
     d="M228.923 14.3203H221.471V43.8498H228.923V14.3203Z"
     fill="#1E053A"
     id="path94" />
  <path
     d="M228.923 1.4375H221.471V8.8898H228.923V1.4375Z"
     fill="#1E053A"
     id="path96" />
  <path
     d="M336.543 30.9741C334.622 30.5798 332.651 30.3764 330.96 30.3764C327.501 30.3764 325.199 32.0168 325.199 34.5348C325.199 37.0528 326.788 38.5408 329.802 38.5408C333.262 38.5408 336.492 35.7939 336.543 30.9741ZM343.995 13.7676V43.297H336.81L336.644 39.0877C334.673 42.1525 331.265 43.8567 327.653 43.8567C321.574 43.8567 317.467 40.1813 317.467 34.7129C317.467 29.2444 322.452 25.2768 330.019 25.2768C332.041 25.2768 334.292 25.4928 336.543 25.9379V19.6302H319.336V13.7676H343.995Z"
     fill="#4AB8B1"
     id="path98" />
  <path
     d="M311.802 14.3203H304.35V43.8498H311.802V14.3203Z"
     fill="#4AB8B1"
     id="path100" />
  <path
     d="M311.802 1.4375H304.35V8.8898H311.802V1.4375Z"
     fill="#4AB8B1"
     id="path102" />
  <path
     d="M276.797 14.3418L282.897 35.1879H283.13L289.23 14.3418H298.352L288.533 43.9075H277.494L267.675 14.3418H276.797Z"
     fill="#4AB8B1"
     id="path104" />
</svg>
