<?xml version="1.0" encoding="utf-8"?>
<!-- Generator: Adobe Illustrator 25.0.0, SVG Export Plug-In . SVG Version: 6.00 Build 0)  -->
<svg version="1.1" id="Layer_1" xmlns="http://www.w3.org/2000/svg" xmlns:xlink="http://www.w3.org/1999/xlink" x="0px" y="0px"
	 viewBox="0 0 235 80" style="enable-background:new 0 0 235 80;" xml:space="preserve">
<style type="text/css">
	.st0{fill:#222325;}
	.st1{fill:#222224;}
</style>
<path class="st0" d="M138.6,31.7l-2.2,2.6c-1.5,1.8-3,3.5-4.5,5.3c-0.3,0.2-0.3,0.6-0.1,0.9c0,0,0.1,0.1,0.1,0.1
	c2.2,2.5,4.3,5,6.5,7.5c0.2,0.2,0.3,0.4,0.5,0.6c-0.1,0.2-0.3,0.1-0.5,0.1c-1.9,0-3.7,0-5.6,0c-0.4,0-0.8-0.2-1-0.5
	c-1.5-2-3-4.1-4.5-6.1l-0.4-0.5c-0.3,0.2-0.2,0.4-0.2,0.6c0,2,0,4,0,6c0,0.5-0.1,0.6-0.6,0.6c-1.4,0-2.9,0-4.3,0
	c-0.4,0-0.6-0.1-0.6-0.6c0-7.4,0-14.9,0-22.3c0-0.4,0.1-0.5,0.5-0.5c1.5,0,2.9,0,4.5,0c0.5,0,0.6,0.2,0.6,0.6c0,3.8,0,7.5,0,11.3
	c-0.1,0.3,0,0.5,0.1,0.8l2.4-3.1c0.9-1.1,1.7-2.3,2.6-3.4c0.2-0.3,0.5-0.5,0.9-0.4c3.8,0,7.6,0,11.3,0c0.5,0,0.6,0.2,0.8,0.6
	c1.2,3.2,2.3,6.3,3.5,9.5c0.1,0.3,0.2,0.5,0.4,0.9c0.5-1.4,1-2.6,1.4-3.9c0.8-2.2,1.6-4.4,2.4-6.6c0.1-0.4,0.4-0.6,0.8-0.5
	c1.5,0,3.1,0,4.6,0c0.6,0,0.7,0.1,0.5,0.7c-2.8,6.5-5.7,13.1-8.5,19.6c-0.7,1.7-1.5,3.4-2.2,5.2c-0.1,0.3-0.4,0.5-0.8,0.5
	c-1.6,0-3.2,0-4.8,0c-0.5,0-0.6-0.1-0.4-0.5c1.2-2.6,2.4-5.3,3.6-7.9c0.2-0.3,0.2-0.7,0-1c-2.2-5.2-4.5-10.4-6.7-15.5
	C138.7,32.1,138.7,32,138.6,31.7z"/>
<path class="st0" d="M75.8,33.3c3.3-3.5,9.3-2.5,11.3,1c0.5-0.7,1.1-1.4,1.9-1.9c2.2-1.6,5.1-1.8,7.6-0.6c2.4,1,3.9,3.4,3.8,5.9
	c0.1,3.6,0,7.1,0.1,10.7c0,0.4-0.2,0.5-0.6,0.5c-1.4,0-2.8,0-4.2,0c-0.5,0-0.7-0.1-0.7-0.7c0-3,0-6,0-8.9c0.1-1.8-1.3-3.4-3.1-3.5
	c-0.4,0-0.7,0-1.1,0.1c-1.3,0.2-2.3,1.1-2.5,2.4c-0.1,0.4-0.1,0.9-0.1,1.3c0,2.9,0,5.7,0,8.5c0,0.6-0.2,0.7-0.7,0.7
	c-1.4,0-2.7,0-4.1,0c-0.5,0-0.7-0.2-0.7-0.7c0-3,0-6,0-9c0.1-1.8-1.4-3.4-3.2-3.5c-0.3,0-0.7,0-1,0.1c-1.4,0.2-2.4,1.3-2.6,2.7
	c0,0.4,0,0.9,0,1.3c0,2.8,0,5.6,0,8.4c0,0.5-0.1,0.7-0.7,0.7c-1.4,0-2.8,0-4.2,0c-0.5,0-0.6-0.1-0.6-0.6c0-5.5,0-11,0-16.5
	c0-0.4,0-0.6,0.5-0.6c1.5,0,3,0,4.5,0c0.5,0,0.6,0.2,0.6,0.6C75.8,32.3,75.8,32.8,75.8,33.3z"/>
<path class="st1" d="M165.5,33.4c0.1,0,0.2,0,0.3-0.1c2.5-3.3,8.6-3.2,11.4,0.8c2.4,3.7,2.2,8.5-0.3,12.1c-2.8,3.7-8.7,3.7-11.1,0.5
	c0,0-0.1-0.1-0.1-0.1c-0.2,0.1-0.1,0.4-0.1,0.5c0,3.1,0,6.2,0,9.4c0,0.5-0.1,0.7-0.7,0.7c-1.4,0-2.8,0-4.1,0c-0.6,0-0.7-0.1-0.7-0.7
	c0-4.5,0-8.9,0-13.4c0-3.8,0-7.5,0-11.3c0-0.5,0.1-0.7,0.6-0.6c1.4,0,2.8,0,4.1,0c0.6,0,0.8,0.1,0.8,0.7
	C165.5,32.5,165.5,33,165.5,33.4z M165.5,40.1c0,0.2,0,0.4,0,0.7c0.1,1.8,1.4,3.2,3.1,3.6c1.8,0.4,3.7-0.6,4.3-2.3
	c0.6-1.3,0.6-2.8,0-4.1c-0.9-1.9-3.2-2.8-5.2-1.9c-0.5,0.2-0.9,0.5-1.2,0.9C165.8,37.9,165.5,39,165.5,40.1L165.5,40.1z"/>
<path class="st0" d="M198.9,48.7c-0.1,0.3-0.3,0.2-0.5,0.2c-1.5,0-2.9,0-4.4,0c-0.5,0-0.6-0.2-0.6-0.6s0-1.1,0-1.6l-0.9,0.8
	c-3.1,2.5-7.5,2.1-10.1-0.8c-3.2-3.3-3.1-10.5,0.4-13.7c2.9-2.7,8-2.7,10.4,0.3c0.1,0.1,0.2,0.3,0.4,0.1c0.1,0.2,0.2,0.1,0.2-0.1v-2
	c1.6,0,3.2,0,4.8,0c0.3,0,0.5,0.1,0.5,0.4c0,5.6,0,11.2,0,16.8c0,0,0,0,0,0.1C198.8,48.6,198.8,48.7,198.9,48.7z M185.7,40
	c0,0.2,0,0.5,0,0.7c0.1,1.7,1.3,3.1,2.9,3.5c1.6,0.4,3.3-0.2,4.2-1.6c1-1.7,1-3.8-0.1-5.4c-1.2-1.7-3.7-2.1-5.4-0.9
	c-0.1,0.1-0.2,0.2-0.3,0.3C186.1,37.6,185.6,38.8,185.7,40z"/>
<path class="st1" d="M210.6,42.1l1.2-3.3c0.9-2.3,1.7-4.7,2.6-7c0.1-0.4,0.4-0.6,0.8-0.6c1.7,0,3.5,0,5.3,0
	c-0.7,1.7-1.4,3.3-2.1,4.9c-3,6.8-5.9,13.6-8.8,20.5c-0.1,0.4-0.5,0.7-0.9,0.6c-1.5,0-3,0-4.6,0c-0.6,0-0.7-0.1-0.4-0.6
	c1.2-2.6,2.4-5.2,3.6-7.8c0.2-0.4,0.2-0.8,0-1.1c-2.2-5.2-4.5-10.4-6.7-15.7c-0.3-0.8-0.3-0.8,0.5-0.8c1.6,0,3.1,0,4.7,0
	c0.4-0.1,0.7,0.2,0.8,0.5c1.2,3.2,2.4,6.4,3.6,9.6C210.3,41.7,210.4,41.9,210.6,42.1z"/>
<path class="st1" d="M117.7,48.9c-1.6,0-3.2,0-4.8,0c-0.5,0-0.6-0.1-0.6-0.6c0-4.1,0-8.3,0-12.4c0-3.3,0-6.6,0-9.8
	c0-0.5,0.1-0.7,0.6-0.6c1.5,0,3,0,4.5,0c0.3,0,0.5,0.1,0.5,0.4c0,7.6,0,15.2,0,22.9c0,0,0,0,0,0.1L117.7,48.9z"/>
<path class="st1" d="M109.1,40.1c0,2.7,0,5.4,0,8.1c0,0.5-0.1,0.7-0.6,0.6c-1.4,0-2.8,0-4.2,0c-0.4,0-0.6-0.1-0.6-0.6
	c0-5.5,0-11,0-16.5c0-0.4,0.2-0.5,0.6-0.5c1.4,0,2.9,0,4.4,0c0.5,0,0.6,0.1,0.6,0.6C109.1,34.6,109.1,37.4,109.1,40.1z"/>
<path class="st0" d="M45.3,48.7c-2.1,0-3.7-1.7-3.7-3.7s1.7-3.7,3.7-3.7l0,0c2.1,0,3.7,1.7,3.7,3.7S47.3,48.7,45.3,48.7z"/>
<path class="st0" d="M30.7,34.4c0-2,1.6-3.7,3.7-3.7c0,0,0.1,0,0.1,0c2.1-0.1,3.8,1.5,3.9,3.5S37,38,34.9,38.1c-0.1,0-0.3,0-0.4,0
	c-2,0.1-3.7-1.5-3.8-3.6C30.7,34.5,30.7,34.5,30.7,34.4z"/>
<path class="st0" d="M34.5,48.7c-2.1,0-3.7-1.7-3.7-3.8s1.7-3.7,3.8-3.7l0,0c2.1,0,3.7,1.7,3.7,3.8S36.5,48.8,34.5,48.7z"/>
<path class="st0" d="M45.3,30.7c2.1-0.1,3.8,1.5,3.9,3.5s-1.5,3.8-3.5,3.9c-0.1,0-0.3,0-0.4,0c-2.1,0.1-3.8-1.5-3.9-3.5
	s1.5-3.8,3.5-3.9C45,30.7,45.2,30.7,45.3,30.7z"/>
<path class="st0" d="M106.3,29.5c-1.6,0.2-3-1-3.2-2.6c0-0.1,0-0.2,0-0.3c0-1.6,1.4-3,3-2.9c0.1,0,0.2,0,0.3,0
	c1.6-0.2,3.1,1,3.2,2.7c0.2,1.6-1,3.1-2.7,3.2C106.8,29.5,106.6,29.5,106.3,29.5L106.3,29.5z"/>
<path class="st0" d="M54.4,27.5c-1.2,0-2.2-1-2.2-2.2c0,0,0,0,0,0c0-1.2,1-2.2,2.2-2.2c0,0,0,0,0.1,0c1.2,0,2.2,1,2.3,2.2
	c0,0,0,0,0,0C56.6,26.5,55.6,27.5,54.4,27.5z"/>
<path class="st0" d="M54.4,46.8c-1.2,0-2.2-1-2.2-2.2c0-1.2,1-2.2,2.2-2.2c0,0,0,0,0,0c1.2,0,2.2,1,2.2,2.2
	C56.6,45.8,55.6,46.8,54.4,46.8C54.4,46.8,54.4,46.8,54.4,46.8z"/>
<path class="st0" d="M54.4,52c1.2,0,2.2,1,2.2,2.2c0,1.2-1,2.2-2.2,2.2s-2.2-1-2.2-2.2C52.2,53,53.2,52,54.4,52z"/>
<path class="st0" d="M54.4,37.1c-1.2,0.1-2.3-0.8-2.3-2s0.8-2.3,2-2.3c0.1,0,0.2,0,0.3,0c1.2-0.1,2.3,0.8,2.3,2s-0.8,2.3-2,2.3
	C54.6,37.1,54.5,37.1,54.4,37.1z"/>
<path class="st0" d="M32.8,54.2c0-1.2,1-2.2,2.2-2.2c1.2,0,2.2,1,2.2,2.2c0,1.2-1,2.2-2.2,2.2h0C33.9,56.5,32.8,55.5,32.8,54.2
	C32.8,54.3,32.8,54.2,32.8,54.2z"/>
<path class="st0" d="M47,25.3c-0.1,1.2-1.2,2.2-2.4,2.1c-1.1-0.1-2-1-2.1-2.1c0.1-1.2,1.2-2.2,2.4-2.1C46,23.3,46.9,24.2,47,25.3z"
	/>
<path class="st0" d="M35.1,23.1c1.2,0,2.2,0.9,2.2,2.1c0,0,0,0,0,0.1c0,1.2-1.1,2.2-2.3,2.2c-1.2,0-2.2-1-2.2-2.2c0,0,0,0,0,0
	C32.8,24.1,33.8,23.1,35.1,23.1C35,23.1,35.1,23.1,35.1,23.1z"/>
<path class="st0" d="M44.8,52c1.2,0,2.2,1,2.2,2.2c0,1.2-1,2.2-2.2,2.2s-2.2-1-2.2-2.2C42.6,52.9,43.6,52,44.8,52L44.8,52z"/>
<path class="st0" d="M25.4,23.1c1.2,0,2.2,0.9,2.2,2.1c0,0,0,0.1,0,0.1c0,1.2-1,2.2-2.2,2.2c0,0,0,0,0,0c-1.2,0-2.2-1-2.2-2.2
	c0,0,0,0,0-0.1c0-1.2,0.9-2.2,2.1-2.2C25.3,23.1,25.3,23.1,25.4,23.1z"/>
<path class="st0" d="M27.6,44.6c0,1.2-1,2.2-2.2,2.2c-1.2,0-2.2-1-2.2-2.2c0-1.2,1-2.2,2.2-2.2c0,0,0,0,0.1,0
	C26.6,42.4,27.6,43.4,27.6,44.6z"/>
<path class="st0" d="M25.4,37.1c-1.2,0-2.2-0.9-2.2-2.1c0,0,0-0.1,0-0.1c0-1.2,1-2.2,2.2-2.3s2.2,1,2.3,2.2
	C27.6,36.1,26.6,37.1,25.4,37.1C25.4,37.1,25.4,37.1,25.4,37.1z"/>
<path class="st0" d="M25.3,56.4c-1.2,0-2.2-1.1-2.1-2.3s1.1-2.2,2.3-2.1c1.2,0,2.1,1,2.1,2.2C27.6,55.4,26.6,56.4,25.3,56.4
	C25.4,56.4,25.4,56.4,25.3,56.4z"/>
<path class="st0" d="M36.2,59.5c0,0.6-0.5,1.1-1.1,1.1c0,0,0,0-0.1,0c-0.6,0.1-1.1-0.4-1.2-1c-0.1-0.6,0.4-1.1,1-1.2
	c0.1,0,0.1,0,0.2,0C35.7,58.4,36.2,58.8,36.2,59.5C36.2,59.4,36.2,59.5,36.2,59.5z"/>
<path class="st0" d="M59.8,36c-0.5,0.1-1-0.3-1.1-0.9c0,0,0-0.1,0-0.1c0.1-0.6,0.6-1.1,1.2-1c0.5,0.1,0.9,0.5,1,1
	C60.8,35.5,60.4,36,59.8,36z"/>
<path class="st0" d="M35.1,21.2c-0.6,0-1.1-0.5-1.1-1.1c0-0.6,0.5-1.1,1.1-1.1c0.6,0,1.1,0.5,1.1,1.1c0,0,0,0,0,0
	C36.2,20.7,35.7,21.2,35.1,21.2z"/>
<path class="st0" d="M20,36c-0.6,0-1.1-0.4-1.1-1c0,0,0,0,0-0.1c0-0.6,0.5-1.1,1.1-1.1c0,0,0,0,0,0c0.6,0,1.1,0.5,1.1,1.1
	c0,0,0,0,0,0C21.1,35.5,20.6,36,20,36C20,36,20,36,20,36z"/>
<path class="st0" d="M59.8,43.5c0.6,0,1.1,0.5,1.1,1.1v0c0,0.6-0.5,1.1-1.1,1.1c-0.6,0-1.1-0.5-1.1-1.1C58.7,44,59.1,43.5,59.8,43.5
	C59.7,43.5,59.8,43.5,59.8,43.5z"/>
<path class="st0" d="M44.8,58.4c0.6,0,1.1,0.5,1.1,1.1v0c0,0.6-0.5,1.1-1.1,1.1c0,0,0,0,0,0c-0.6,0-1.1-0.5-1.1-1.1
	C43.7,58.8,44.2,58.4,44.8,58.4z"/>
<path class="st0" d="M45.9,20.1c0,0.6-0.5,1.1-1.1,1.1c-0.6,0-1.1-0.5-1.1-1.1c0-0.6,0.5-1.1,1.1-1.1C45.4,19,45.9,19.5,45.9,20.1z"
	/>
<path class="st0" d="M21.1,44.5c0,0.6-0.5,1.1-1.1,1.1c-0.6,0-1.1-0.5-1.1-1.1c0-0.6,0.5-1.1,1.1-1.1c0,0,0,0,0,0
	C20.6,43.4,21.1,43.9,21.1,44.5z"/>
<path class="st1" d="M193.7,31.3v2c0,0.2-0.1,0.2-0.2,0.1c0-0.6,0-1.2,0-1.8C193.5,31.4,193.5,31.3,193.7,31.3z"/>
<path class="st1" d="M198.9,48.7c-0.1-0.1-0.1-0.1,0-0.2V48.7z"/>
<path class="st0" d="M117.7,48.9l0.1-0.1C117.9,48.9,117.9,49,117.7,48.9z"/>
</svg>
