<svg xmlns="http://www.w3.org/2000/svg" xmlns:xlink="http://www.w3.org/1999/xlink" id="Layer_1" x="0px" y="0px" viewBox="0 0 235 80" style="enable-background:new 0 0 235 80;" xml:space="preserve">
<style type="text/css">
	.st0{fill:#0B0E11;}
	.st1{fill:#FBB82C;}
	.st2{fill-rule:evenodd;clip-rule:evenodd;fill:#0B0E11;}
	.st3{fill-rule:evenodd;clip-rule:evenodd;fill:#FBB82C;}
</style>
<g>
	<path class="st0" d="M89,29.1h5.5v8.2h8v-8.2h5.5v21.5h-5.5v-8.8h-8v8.8H89V29.1z"></path>
	<path class="st0" d="M118.6,51c-1.1,0-2.2-0.2-3.2-0.5c-1-0.3-1.9-0.9-2.6-1.6c-0.8-0.7-1.4-1.6-1.8-2.6c-0.4-1.1-0.6-2.3-0.6-3.7   V42c0-1.3,0.2-2.5,0.6-3.5c0.4-1,1-1.8,1.8-2.5c0.8-0.7,1.6-1.2,2.6-1.5s2.1-0.5,3.2-0.5c1.1,0,2.2,0.2,3.2,0.5s1.9,0.9,2.6,1.5   c0.8,0.7,1.4,1.5,1.8,2.5c0.4,1,0.6,2.2,0.6,3.5v0.6c0,1.4-0.2,2.6-0.6,3.7c-0.4,1-1,1.9-1.8,2.6c-0.8,0.7-1.6,1.2-2.6,1.6   S119.8,51,118.6,51z M118.6,47.1c1.1,0,2-0.4,2.5-1.2c0.6-0.8,0.9-1.9,0.9-3.3V42c0-1.2-0.3-2.2-0.9-3c-0.6-0.8-1.4-1.2-2.5-1.2   c-1.1,0-2,0.4-2.5,1.2c-0.6,0.8-0.9,1.8-0.9,3v0.6c0,1.4,0.3,2.5,0.9,3.3C116.7,46.7,117.5,47.1,118.6,47.1z"></path>
	<path class="st0" d="M128.6,34.4h4.4v2.2c0.4-0.7,1-1.3,1.9-1.8c0.9-0.5,2-0.8,3.5-0.8c1.9,0,3.4,0.5,4.4,1.6c1,1,1.5,2.5,1.5,4.5   v10.6h-4.7v-9.5c0-1.1-0.2-1.9-0.7-2.4c-0.5-0.6-1.2-0.8-2.2-0.8c-0.6,0-1.1,0.1-1.5,0.3c-0.4,0.2-0.7,0.4-1,0.7   c-0.3,0.3-0.5,0.6-0.6,1c-0.1,0.4-0.2,0.8-0.2,1.2v9.5h-4.7V34.4z"></path>
	<path class="st0" d="M154.2,51c-1.2,0-2.3-0.2-3.3-0.5c-1-0.3-1.9-0.9-2.7-1.6c-0.8-0.7-1.4-1.6-1.8-2.6c-0.4-1.1-0.6-2.3-0.6-3.7   V42c0-1.4,0.2-2.5,0.6-3.5c0.4-1,1-1.8,1.7-2.5c0.7-0.7,1.6-1.2,2.6-1.5c1-0.3,2.1-0.5,3.2-0.5c2.7,0,4.7,0.7,6.1,2.1   c1.4,1.4,2.1,3.4,2.1,6v1.7h-11.4c0,0.6,0.1,1.2,0.3,1.6c0.2,0.4,0.5,0.8,0.8,1.1c0.3,0.3,0.7,0.5,1.1,0.6c0.4,0.1,0.9,0.2,1.4,0.2   c0.9,0,1.6-0.1,2.1-0.4c0.5-0.3,0.9-0.7,1-1.1h4.4c-0.3,1.8-1.1,3.1-2.4,4C158.1,50.6,156.4,51,154.2,51z M154.1,37.7   c-0.4,0-0.8,0.1-1.3,0.2c-0.4,0.1-0.7,0.3-1.1,0.5c-0.3,0.2-0.6,0.5-0.8,0.9c-0.2,0.4-0.3,0.8-0.3,1.4h6.8c0-0.6-0.1-1-0.3-1.4   c-0.2-0.4-0.4-0.7-0.7-0.9c-0.3-0.2-0.6-0.4-1-0.5C155,37.8,154.5,37.7,154.1,37.7z"></path>
	<path class="st0" d="M167,57.2c-0.3,0-0.6,0-0.9-0.1v-3.9c0.3,0.1,0.6,0.1,0.9,0.1c0.6,0,1.1-0.2,1.4-0.6c0.3-0.4,0.7-1.1,1-2   l-6.9-16.2h5.2l4.1,10.8l3.8-10.8h4.7l-6.2,16.3c-0.5,1.1-0.9,2.1-1.3,2.9c-0.4,0.8-0.9,1.5-1.4,2.1c-0.5,0.5-1.1,0.9-1.8,1.2   C168.9,57,168,57.2,167,57.2z"></path>
	<path class="st1" d="M183.1,29.1h8.8c3,0,5.2,0.7,6.6,2c1.4,1.3,2.1,3.1,2.1,5.4c0,2.3-0.7,4.1-2.1,5.4c-1.4,1.3-3.6,1.9-6.6,1.9   h-3.2v6.8h-5.5V29.1z M191.2,39.3c1.4,0,2.4-0.2,3-0.7c0.6-0.5,0.9-1.2,0.9-2.1c0-0.9-0.3-1.6-0.9-2.1c-0.6-0.5-1.6-0.7-3-0.7h-2.6   v5.6H191.2z"></path>
	<path class="st1" d="M206.9,51c-0.9,0-1.7-0.1-2.4-0.4c-0.7-0.3-1.2-0.6-1.7-1.1c-0.5-0.5-0.8-1-1.1-1.6c-0.2-0.6-0.4-1.3-0.4-2.1   c0-1.6,0.5-2.9,1.5-3.7c1-0.9,2.5-1.3,4.5-1.3h4.6v-0.7c0-1-0.2-1.7-0.7-2c-0.5-0.4-1.1-0.6-1.9-0.6c-0.8,0-1.4,0.1-1.7,0.4   c-0.4,0.2-0.6,0.6-0.6,1.2h-4.7c0-0.7,0.2-1.4,0.6-2c0.3-0.6,0.8-1.2,1.4-1.6c0.6-0.5,1.4-0.8,2.2-1.1c0.9-0.3,1.9-0.4,3-0.4   c1.1,0,2,0.1,2.9,0.4c0.9,0.2,1.7,0.6,2.3,1.1c0.6,0.5,1.1,1.2,1.5,2c0.3,0.8,0.5,1.8,0.5,3v6c0,0.9,0,1.6,0.1,2.3   c0,0.6,0.1,1.3,0.2,1.9h-4.5c0-0.3-0.1-0.7-0.1-0.9c0-0.3,0-0.6,0-1c-0.5,0.7-1.2,1.2-2.1,1.7C209.4,50.8,208.3,51,206.9,51z    M208.4,47.7c1,0,1.8-0.3,2.5-0.9c0.7-0.6,1-1.4,1-2.4v-0.7h-3.7c-0.7,0-1.2,0.2-1.6,0.6c-0.3,0.4-0.5,0.8-0.5,1.3   c0,0.6,0.2,1.1,0.5,1.5C207.1,47.5,207.6,47.7,208.4,47.7z"></path>
	<path class="st1" d="M221.6,57.2c-0.3,0-0.6,0-0.9-0.1v-3.9c0.3,0.1,0.6,0.1,0.9,0.1c0.6,0,1.1-0.2,1.4-0.6c0.3-0.4,0.7-1.1,1-2   l-6.9-16.2h5.2l4.1,10.8l3.8-10.8h4.7l-6.2,16.3c-0.5,1.1-0.9,2.1-1.3,2.9c-0.4,0.8-0.9,1.5-1.4,2.1c-0.5,0.5-1.1,0.9-1.8,1.2   C223.5,57,222.7,57.2,221.6,57.2z"></path>
	<path class="st2" d="M53.1,10.4l-11.9,6.9V31l11.9,6.9L65.1,31V17.3L53.1,10.4z M69.1,14.9l-16-9.2l-16,9.2v18.4l16,9.2l16-9.2   V14.9z"></path>
	<path class="st0" d="M51.9,30.4c-1.3-0.2-2.3-0.6-3-1.2c-0.7-0.7-1-1.5-1-2.6h3.2c0.1,0.5,0.3,0.8,0.6,1c0.3,0.2,0.8,0.3,1.4,0.3   c1.4,0,2.1-0.4,2.1-1.2c0-0.3-0.1-0.5-0.2-0.6c-0.1-0.2-0.3-0.3-0.6-0.4c-0.2-0.1-0.6-0.2-0.9-0.3c-0.4-0.1-0.8-0.2-1.3-0.3   c-0.6-0.1-1.2-0.3-1.7-0.5c-0.5-0.2-0.9-0.5-1.2-0.8c-0.3-0.3-0.6-0.7-0.8-1.1c-0.2-0.4-0.3-1-0.3-1.6c0-1,0.3-1.8,1-2.4   c0.6-0.6,1.5-1,2.7-1.2v-1.7h2.5v1.7c1.2,0.2,2.1,0.5,2.7,1.2c0.6,0.6,0.9,1.4,1,2.4h-3.2c-0.1-0.4-0.2-0.7-0.5-0.8   c-0.3-0.2-0.7-0.3-1.3-0.3c-0.6,0-1.1,0.1-1.3,0.3c-0.2,0.2-0.4,0.5-0.4,0.8c0,0.4,0.2,0.8,0.7,1c0.5,0.2,1.1,0.4,2,0.6   c0.6,0.1,1.2,0.3,1.7,0.5c0.5,0.2,1,0.4,1.4,0.7c0.4,0.3,0.7,0.7,0.9,1.1c0.2,0.4,0.3,1,0.3,1.6c0,1.1-0.4,2-1.1,2.6   c-0.7,0.7-1.7,1.1-3,1.2v2h-2.5V30.4z"></path>
	<path class="st2" d="M34.6,42.2l-12,6.9v13.7l12,6.9l12-6.9V49L34.6,42.2z M50.7,46.7l-16.1-9.2l-16.1,9.2v18.4l16.1,9.2l16.1-9.2   V46.7z"></path>
	<path class="st0" d="M35.1,62.3c-0.7,0-1.3-0.1-1.8-0.2c-0.6-0.1-1.1-0.4-1.5-0.7c-0.4-0.3-0.8-0.7-1.1-1.2   c-0.3-0.5-0.6-1.1-0.7-1.8h-1.3v-2.1h1.1V56v-0.3v-0.2h-1.1v-2.1h1.3c0.2-0.7,0.4-1.2,0.8-1.7c0.3-0.5,0.7-0.9,1.2-1.2   c0.5-0.3,1-0.6,1.5-0.7c0.6-0.2,1.1-0.2,1.7-0.2c0.7,0,1.3,0.1,1.9,0.2c0.6,0.2,1.1,0.4,1.6,0.8s0.8,0.8,1.1,1.4   c0.3,0.6,0.5,1.3,0.5,2.1h-3.3c-0.1-0.7-0.3-1.1-0.7-1.4c-0.3-0.3-0.7-0.4-1.1-0.4c-0.4,0-0.7,0.1-1,0.3c-0.3,0.2-0.5,0.5-0.7,0.9   h2.2v2.1h-2.6v0.2V56v0.2h2.6v2.1h-2.2c0.2,0.5,0.5,0.8,0.8,1c0.3,0.2,0.6,0.3,1,0.3c0.5,0,0.9-0.1,1.2-0.4   c0.3-0.3,0.5-0.8,0.6-1.4h3.3c0,0.8-0.2,1.5-0.5,2.1s-0.6,1-1.1,1.4c-0.4,0.4-1,0.6-1.6,0.8C36.4,62.3,35.8,62.3,35.1,62.3z"></path>
	<path class="st3" d="M16.1,10.4l-12,6.9V31l12,6.9l12-6.9V17.3L16.1,10.4z M32.2,14.9L16.1,5.8L0,14.9v18.4l16.1,9.2l16.1-9.2V14.9   z"></path>
	<path class="st1" d="M10.9,17.8h6c1.5,0,2.5,0.3,3.2,0.9c0.7,0.6,1,1.4,1,2.5c0,0.6-0.2,1.2-0.5,1.7c-0.3,0.5-0.8,0.8-1.4,1   c0.7,0.2,1.3,0.5,1.8,1c0.4,0.5,0.6,1.2,0.6,2c0,1.1-0.4,2-1.1,2.6c-0.7,0.6-1.9,0.9-3.5,0.9h-6.2V17.8z M16.4,27.8   c0.8,0,1.3-0.1,1.6-0.3c0.3-0.2,0.4-0.6,0.4-1.1c0-0.5-0.2-0.8-0.5-1.1c-0.3-0.2-0.8-0.4-1.6-0.4h-2.2v2.9H16.4z M16.2,22.8   c0.7,0,1.2-0.1,1.4-0.3c0.3-0.2,0.4-0.5,0.4-0.9c0-0.4-0.1-0.7-0.4-0.9c-0.2-0.2-0.7-0.3-1.4-0.3h-2v2.5H16.2z"></path>
	<path class="st1" d="M14,16.1h2.4v1.7H14V16.1z"></path>
	<path class="st1" d="M14,30.3h2.4v1.9H14V30.3z"></path>
</g>
</svg>