<?xml version="1.0" encoding="UTF-8"?>
<svg enable-background="new 0 0 380 105" version="1.1" viewBox="0 0 380 105" xml:space="preserve" xmlns="http://www.w3.org/2000/svg">
<g stroke-width="1px">
	<rect class="text" x="18" y="20" width="160" height="64" fill="#fff"/>
	<rect class="text" x="208" y="20" width="160" height="64" fill="#fff"/>
	<path class="left" d="m54.5 36.4c-1.9-1.3-4.6-1.8-8.2-1.8h-3.8c-1 0-1.9 0.7-2 1.7l-2.1 11.8c-0.2 1.3 0.7 2.4 2 2.4h5c4.4 0 7-0.8 8.8-2.5 1.6-1.4 2.8-3.6 2.8-6.4 0.1-2.3-0.9-4.1-2.5-5.2z" fill="#d73c30"/>
	<path class="left" d="m98 39.4h-0.2c-2.2 4.3-4.7 8.8-7.1 13.2l-3.9 7h15.1l-1.5-7c-0.9-4.4-1.7-8.9-2.4-13.2z" fill="#d73c30"/>
	<path class="left" d="m14.5 0c-8 0-14.5 6.5-14.5 14.5v76.1c0 8 6.5 14.5 14.5 14.5h163l20.6-105.1h-183.6zm21.6 61-3.4 19.2c-0.2 1-1 1.7-2 1.7h-8.7c-1.3 0-2.3-1.2-2-2.4l9.6-54.4c0.2-1 1-1.7 2-1.7h14.9c7.8 0 13.4 1.3 17.5 4.4 3.6 2.8 6.1 7.1 6.1 12.4 0 5.2-2.3 11-7.2 15-4.6 3.9-10.8 5.8-18.9 5.8h-7.9zm80.6 20.9h-8.2c-1.2 0-2.2-0.8-2.4-2l-2.1-10.3h-22.8l-6.2 11c-0.4 0.8-1.3 1.3-2.2 1.3h-7.8c-1.9 0-3.1-2.1-2.2-3.7l30.6-53.6c0.4-0.8 1.3-1.2 2.2-1.2h9.1c1.2 0 2.2 0.8 2.4 1.9l11.9 53.6c0.4 1.5-0.8 3-2.3 3zm58.3-54.4-24 27.9-4.3 24.5c-0.2 1.2-1.2 2-2.4 2h-7.8c-1.5 0-2.7-1.4-2.4-2.9l4.1-23.4-14.7-28.6c-0.8-1.6 0.4-3.6 2.2-3.6h8.7c1 0 1.8 0.5 2.2 1.4l4.2 8.6c1.8 3.7 3.4 7.2 5.2 11.2h0.2c3.2-4 6.4-7.9 9.6-11.9l7-8.5c0.5-0.6 1.2-0.9 1.9-0.9h8.3c2.2 0.1 3.4 2.6 2 4.2z" fill="#d73c30"/>
	<path class="right" d="m365.5 0h-160.4l-20.6 105h181c8 0 14.5-6.5 14.5-14.5v-76c0-8-6.5-14.5-14.5-14.5zm-106.5 29-1.5 8.1c-0.3 1.4-1.9 2.1-3.1 1.4-4.5-2.8-9.8-4.9-14.1-4.9-1.9 0-3.7 0.4-5.1 1.4-1.5 1.1-2.3 3-2.3 4.7 0 4 4.1 5.3 10.2 8.3 7.6 3.7 13.1 7.3 13.1 15.8 0 5.9-2.7 11-6.7 14.2s-9.3 4.8-15.1 4.8c-6.5 0-13-2-18.4-5.1-0.8-0.4-1.2-1.3-1-2.2l1.5-8.5c0.3-1.5 2-2.2 3.2-1.3 4.6 3.3 10.6 5.9 15.7 5.9 2.3 0 4-0.5 5.5-1.6 1.5-1.2 2.3-2.9 2.3-4.6 0-4.3-4.6-5.7-10.9-8.8-7-3.5-12.5-7.1-12.5-15.4 0-6 2.9-11.5 7.9-15 3.7-2.6 8.4-3.9 13.5-3.9 5.6 0 11.6 1.6 16.6 4.3 1 0.6 1.4 1.5 1.2 2.4zm49.3-3.1-1.1 6.3c-0.2 1.2-1.2 2-2.4 2h-20.8l-2 11.5h16.4c1.5 0 2.7 1.4 2.5 2.9l-1 5.7c-0.2 1.2-1.2 2.1-2.5 2.1h-17.3l-2.4 14h20.6c1.6 0 2.7 1.4 2.4 2.9l-1.1 6.3c-0.2 1.2-1.2 2-2.4 2h-31.4c-1.5 0-2.7-1.4-2.5-2.9l9.5-53.8c0.2-1.2 1.2-2.1 2.5-2.1h30.6c1.5 0.2 2.7 1.6 2.4 3.1zm52.8 2-1.3 7.2c-0.3 1.6-2.1 2.5-3.5 1.8-4.1-2-8.3-3.2-12.7-3.2-5.9 0-10.6 2.1-14.2 5.7-4.1 4.1-6.3 10.3-6.3 16 0 10.1 6.7 15.7 17.4 15.7 3.5 0 7.5-0.7 11.1-2 1.8-0.7 3.7 0.8 3.3 2.7l-1.2 6.9c-0.2 0.9-0.8 1.6-1.7 1.9-4 1.3-8.7 2.1-13.3 2.1-16.2 0-28.6-9.4-28.6-26.1 0-9 3.6-18.4 10.3-25.1 6.2-6.1 14.4-9.3 23.8-9.3 5.7 0 10.7 1.2 15.4 3.1 1 0.3 1.7 1.5 1.5 2.6z" fill="#042f5f"/>
</g>
</svg>
