<svg xmlns="http://www.w3.org/2000/svg" width="179" height="50" fill-rule="evenodd"><path fill="#dde02a" d="M0 49.8h178.865V.41H0z"/><path d="M18.872 27.01v-4.476a3.52 3.52 0 0 0-.094-.849c-.048-.188-.14-.33-.236-.424-.047-.047-.14-.094-.235-.14a1.92 1.92 0 0 1-.33-.094h-.14c-.048-.047-.095-.047-.142-.094s-.047-.095-.047-.14c0-.095.047-.142.094-.19a.36.36 0 0 1 .236-.094h.188c0 .047 0 .047.047.047.47.047.943.047 1.367.047.472 0 .942 0 1.46-.094h.236c.094 0 .188 0 .235.047s.095.14.095.188c0 .094-.095.19-.282.283h-.047c-.048.047-.142.047-.19.094-.048 0-.094.047-.094.094-.095.047-.19.19-.236.283 0 .14-.047.377-.047.707v2.12c0 .047 0 .094.047.14 0 .047.047.094.094.094l.047-.047c.048-.047.095-.047.14-.094l2.215-2.026.518-.565c.094-.142.14-.283.14-.424 0-.19-.094-.283-.377-.33v-.047h-.094c-.188-.047-.283-.14-.283-.235s.048-.142.048-.19c.047-.047.14-.047.235-.047h.377c.377.047.707.047 1.036.047l1.037-.047h.19c.14 0 .235 0 .283.047.047 0 .047.094.047.14 0 .094 0 .19-.047.19 0 .047-.095.094-.236.14h-.047c-.095.047-.19.094-.236.094-.424.19-.942.566-1.555 1.13l-.047.048-.047.047-1.13 1-.19.19c0 .047-.047.047-.047.094s.047.047.047.094.048.094.095.19l2.733 3.958c.094.19.236.33.33.424a1.41 1.41 0 0 0 .33.235c.047 0 .094.048.188.048s.142.047.142.094c.047 0 .047.094.047.19s0 .188-.095.188c-.047.047-.14.094-.282.094h-.142c-.047 0-.094 0-.14-.047h-.566c-.235 0-.518 0-.8.047h-.14c-.14 0-.235-.047-.377-.188s-.283-.33-.518-.66l-2.074-3.157c-.047-.047-.047-.094-.095-.142h-.094c-.048-.047-.048 0-.094 0 0 0-.047 0-.047.048l-.377.33c-.094.095-.14.142-.14.19-.047.047-.047.14-.047.235v1.555c0 .33.047.565.094.707.094.14.19.235.33.377.094.047.235.094.424.14h.047c.14.047.283.094.33.14s.094.094.094.19-.047.14-.094.188-.095.095-.19.095h-.188c-.094 0-.14 0-.19-.048-.282 0-.518-.047-.754-.047-.188-.047-.424-.047-.66-.047s-.47 0-.706.047c-.188 0-.424.047-.66.047-.094 0-.14.048-.235.048h-.19c-.047 0-.142-.048-.188-.095s-.047-.094-.047-.14c0-.142.094-.236.282-.377h.048c.094-.048.14-.094.235-.14l.142-.142c.094-.094.14-.235.188-.377.047-.188.047-.47.047-.942zm12.44 1.98l-2.97-6.88v-.095c-.19-.377-.424-.66-.613-.8-.047 0-.094-.047-.14-.094-.047 0-.095-.047-.142-.047-.094-.047-.188-.094-.235-.094-.047-.047-.047-.094-.047-.188 0-.048 0-.142.094-.19.047-.047.14-.047.283-.047h.282l.895.094c.19 0 .377 0 .566-.047h.707c.047 0 .14-.047.33-.047h.33c.094 0 .188 0 .236.047s.047.094.047.19c0 .047 0 .094-.047.14 0 .047-.095.094-.19.14h-.047v.047h-.047c-.236.094-.377.283-.377.472 0 .094 0 .188.047.282l.14.424 1.79 4.288c.047.047.047.095.094.095 0 .047.047.047.094.047s.047 0 .095-.047c.047 0 .047-.048.094-.095l1.602-3.91c.094-.14.142-.283.188-.424 0-.14.048-.283.048-.377 0-.19-.048-.377-.19-.47-.094-.142-.235-.236-.47-.283-.047 0-.094-.047-.142-.047h-.047c-.283-.047-.377-.188-.377-.33 0-.047 0-.094.048-.14a.36.36 0 0 1 .235-.094s.047.047.095.047h.188c.377.047.754.047 1.084.047h.47c.14 0 .283 0 .424-.047h.19c.094 0 .14 0 .188.047.047 0 .047.094.047.14 0 .142-.094.236-.283.377h-.047c-.047.047-.14.094-.14.14-.188.095-.377.424-.613.943 0 .047 0 .094-.047.094v.094s-.047.047-.047.094l-2.592 5.75v.094c-.047.047-.047.094-.094.142-.14.376-.283.66-.377.754s-.19.14-.283.14c-.047 0-.094 0-.14-.095-.047-.047-.094-.14-.188-.282zm8.34-3.534v2.12c0 .424.047.707.236.8.14.142.424.188.895.188.613 0 1.084-.14 1.414-.47.33-.283.47-.754.47-1.367s-.188-1.084-.565-1.414-.943-.47-1.65-.47c-.376 0-.612 0-.706.094-.048.047-.095.236-.095.52zm0-3.204v1.225c0 .283.047.52.19.613.188.142.424.19.8.19.518 0 .848-.095 1.13-.33.236-.19.33-.566.33-1 0-.566-.142-1.037-.424-1.366-.283-.377-.66-.52-1.13-.52-.33 0-.566.047-.707.188s-.19.472-.19 1zm-1.837 4.76v-4.476c0-.377-.048-.66-.095-.85s-.14-.33-.235-.424c-.142-.094-.33-.14-.565-.188v-.047h-.19c-.048-.047-.095-.047-.095-.094-.047-.047-.047-.095-.047-.14 0-.095 0-.142.047-.19s.142-.094.19-.094.047 0 .095.047h.047c.283 0 .566.047.8.047h1.32c.19 0 .377-.047.612-.047h.283c.424-.047.754-.047.99-.047 1 0 1.697.188 2.215.518.518.377.8.895.8 1.508 0 .52-.14.895-.424 1.225-.283.283-.754.52-1.32.66.8.047 1.414.235 1.79.565.424.33.612.8.612 1.46 0 .943-.33 1.602-.99 2.074-.66.424-1.65.66-3.016.66-.283 0-.66 0-1.13-.047h-1.414c-.235 0-.424.047-.66.047-.047.048-.094.048-.14.048h-.19c-.094 0-.14-.048-.188-.095s-.095-.094-.095-.14c0-.094.047-.142.095-.19a1.25 1.25 0 0 1 .235-.188h.047c.19-.094.33-.19.377-.283.094-.094.14-.235.188-.424 0-.14.048-.424.048-.895z" fill="#1a1919"/><path d="M18.562 9.07c7.68-5.984 18.376-5.513 25.445.566-6.455-4.948-15.785-5.136-22.524.14-8 6.22-9.518 17.764-3.345 25.68s17.717 9.33 25.727 3.063c3.1-2.403 5.23-5.654 6.314-9.188-1.036 4.288-3.487 8.246-7.2 11.12-8.717 6.785-21.298 5.277-28.036-3.346-6.738-8.67-5.1-21.25 3.628-28.036m5.09 2.153c7.115-5.56 17.48-4.288 22.994 2.874 5.56 7.115 4.24 17.434-2.875 22.947-.188.188-.424.33-.613.47 6.55-5.654 7.634-15.55 2.262-22.476s-15.266-8.34-22.38-3.346c.235-.14.424-.33.613-.47M0 28.84h9.33C11.26 38.97 20.167 46.7 30.863 46.7c8.293 0 15.55-4.665 19.272-11.497h128.73v14.7H0V28.84" fill="#007945"/><g fill="#1a1919"><path d="M55.392 29.017v-9h2.874v2.97l2.592-2.97h3.393L61 23.362l3.628 5.654h-3.44l-2.214-3.58-.707.707v2.875h-2.874m14.025-2.638a7.79 7.79 0 0 1-1 .33c-.66.188-1.036.424-1.036.706 0 .2.094.33.235.425.095.14.283.188.52.188.47 0 .8-.14 1-.33s.283-.518.283-1v-.33zm.236 2.97l-.142-.613c-.377.283-.706.518-1.13.66-.377.14-.8.188-1.32.188-.754 0-1.32-.14-1.744-.518-.377-.377-.612-.896-.612-1.602 0-.612.235-1.13.612-1.414.425-.33 1.178-.565 2.3-.707.14 0 .33-.047.566-.047.848-.094 1.272-.33 1.272-.66 0-.188-.094-.33-.235-.424s-.424-.142-.754-.142c-.236 0-.472.047-.613.2a.52.52 0 0 0-.236.47h-2.6c0-.754.282-1.32.895-1.696s1.508-.566 2.64-.566a7.15 7.15 0 0 1 1.508.142c.47.094.848.236 1.083.425.33.188.566.47.66.706.14.283.188.66.188 1.178v3.675a.69.69 0 0 0 .094.33.57.57 0 0 0 .236.235v.2h-2.686zm3.386-.05v-6.644h2.45v1.225c.14-.472.424-.85.754-1.084.33-.2.754-.33 1.32-.33h.236v2.64h-.565c-.52 0-.896.094-1.178.33-.236.235-.377.612-.377 1.13V29.3h-2.64"/><path d="M85.15 22.468v6.644h-2.403v-.943c-.33.377-.66.66-1.037.848a3.14 3.14 0 0 1-1.32.283c-.425 0-.754-.047-1.084-.188s-.565-.33-.8-.613c-.188-.235-.33-.518-.424-.848s-.14-.943-.14-1.743v-3.44h2.686v3.44c0 .518.047.848.188 1.036s.377.283.707.283.566-.094.707-.33c.2-.2.283-.566.283-1v-3.44h2.64m1.122 6.833v-6.644h2.45v1.225c.14-.472.424-.85.754-1.084.33-.2.754-.33 1.32-.33h.236v2.64h-.566c-.518 0-.942.094-1.177.33s-.377.612-.377 1.13V29.3h-2.638m7.35-9.283h2.97l1.507 5.843 1.65-5.843h2.827l-3.016 9H96.7l-3.063-9m9.22 11.733v-1.978h.754c.236 0 .424-.048.565-.142.095-.094.142-.236.142-.424 0-.094 0-.2-.047-.283 0-.094-.047-.235-.095-.377l-2.214-6.078h2.686l1.13 4.052 1.178-4.052h2.45l-2.12 6.644-.566 1.508a2.28 2.28 0 0 1-.424.613c-.235.235-.47.376-.754.424-.282.094-.707.142-1.367.142h-.612c-.235 0-.47-.048-.707-.048"/><path d="M109.314 27.274h2.545c0 .283.094.472.235.613s.377.236.66.236.47-.047.612-.142c.2-.094.236-.235.236-.424 0-.283-.33-.52-1-.66-.047 0-.094-.047-.14-.047-1.225-.236-2.026-.52-2.403-.85-.377-.283-.566-.754-.566-1.32 0-.753.283-1.272.8-1.65.565-.377 1.414-.566 2.45-.566 1 0 1.8.2 2.3.52.565.377.848.895.942 1.555H113.6c0-.188-.094-.33-.236-.47-.14-.094-.33-.14-.565-.14s-.425 0-.566.094c-.094.094-.188.2-.188.33 0 .282.33.47.942.612.142.047.283.047.33.047 1.225.283 2.026.613 2.356.895.377.33.565.8.565 1.367 0 .8-.282 1.367-.895 1.744s-1.46.565-2.64.565c-1.084 0-1.884-.188-2.45-.565s-.895-1-.942-1.744m7.76 4.476v-1.978h.754c.283 0 .47-.048.566-.142a.6.6 0 0 0 .188-.424c0-.094-.047-.2-.047-.283-.048-.094-.048-.235-.095-.377l-2.26-6.078h2.685l1.178 4.052 1.13-4.052h2.498l-2.168 6.644-.565 1.508a2.35 2.35 0 0 1-.424.613 1.12 1.12 0 0 1-.707.424c-.283.094-.754.142-1.367.142h-.612c-.236 0-.472-.048-.754-.048m11.613-5.37c-.236.094-.566.235-1 .33-.66.188-1 .424-1 .706 0 .2.047.33.188.425.14.14.33.188.565.188.425 0 .754-.14.943-.33.236-.188.33-.518.33-1v-.2c0-.047-.047-.094-.047-.14zm.235 2.97l-.14-.613c-.33.283-.707.518-1.084.66-.424.14-.848.188-1.32.188-.753 0-1.366-.14-1.743-.518-.424-.377-.613-.896-.613-1.602 0-.612.2-1.13.566-1.414.424-.33 1.178-.565 2.3-.707.14 0 .33-.047.565-.047.85-.094 1.273-.33 1.273-.66 0-.188-.094-.33-.235-.424s-.377-.142-.707-.142c-.282 0-.518.047-.66.2a.52.52 0 0 0-.235.47h-2.592c0-.754.33-1.32.895-1.696.613-.377 1.508-.566 2.686-.566a7.81 7.81 0 0 1 1.507.142 2.89 2.89 0 0 1 1.084.425c.284.19.518.47.66.706a3.61 3.61 0 0 1 .188 1.178v3.675c0 .14 0 .235.048.33a.56.56 0 0 0 .235.235v.2h-2.686zm9.154-2.407h1.367c.424 0 .754-.094.942-.236.2-.094.283-.33.283-.612s-.094-.52-.283-.66c-.188-.094-.518-.188-1-.188h-1.32v1.696zm0-3.345h1.225c.377 0 .66-.048.85-.142.14-.14.235-.33.235-.612s-.094-.52-.283-.613-.565-.2-1.225-.2h-.8v1.555zm-2.78 5.42v-9h3.675l1.744.047c.377.047.66.142.943.236a1.79 1.79 0 0 1 1.036.801c.236.33.377.8.377 1.32 0 .377-.094.754-.282 1.037a1.78 1.78 0 0 1-.801.754c.47.2.8.424 1.036.8.236.33.377.754.377 1.32 0 .518-.14 1-.377 1.414-.188.377-.518.66-.943.895-.282.14-.612.236-1 .282-.377.095-1 .095-1.838.095h-3.958zm13.488-2.638c-.235.094-.565.235-1 .33-.66.188-1 .424-1 .706 0 .2.047.33.188.425.142.14.33.188.566.188.424 0 .754-.14.942-.33.236-.188.33-.518.33-1v-.2c0-.047 0-.094-.048-.14zm.283 2.97l-.2-.613a3.72 3.72 0 0 1-1.084.66c-.377.14-.848.188-1.32.188-.754 0-1.32-.14-1.743-.518s-.613-.896-.613-1.602c0-.612.188-1.13.613-1.414.376-.33 1.13-.565 2.26-.707.142 0 .33-.047.566-.047.848-.094 1.273-.33 1.273-.66 0-.188-.095-.33-.236-.424s-.376-.142-.706-.142c-.283 0-.472.047-.66.2-.14.094-.188.235-.236.47h-2.6c0-.754.33-1.32.942-1.696.565-.377 1.46-.566 2.64-.566a7.81 7.81 0 0 1 1.508.142c.47.094.8.236 1.084.425.33.188.518.47.66.706.14.283.188.66.188 1.178v3.675c0 .14 0 .235.094.33.047.094.094.188.2.235v.2h-2.64zm3.385-.05v-6.644h2.403v1c.33-.424.66-.707 1.036-.895s.85-.283 1.32-.283a2.8 2.8 0 0 1 1.084.235c.282.095.565.33.8.566.188.236.33.565.424.896s.14.895.14 1.696v3.44h-2.686v-3.44c0-.518-.047-.848-.2-1.036s-.376-.283-.706-.283-.566.094-.754.33c-.142.236-.236.566-.236 1v3.44h-2.64m7.85-.295v-9h2.638V24.4l1.744-2.026h2.97l-2.498 2.45 2.827 4.194h-3.157l-1.46-2.356-.425.47v1.885h-2.638"/></g><path d="M55.392 45.57l.14-.47.236-.8.33.047c0 .094-.047.19-.047.283v.188c0 .283.094.52.282.66s.472.235.8.235c.377 0 .66-.094.896-.33.235-.19.33-.472.33-.8 0-.377-.283-.896-.848-1.555l-.19-.19c-.377-.424-.613-.754-.707-1s-.14-.518-.14-.754a1.81 1.81 0 0 1 .565-1.366c.377-.377.895-.52 1.508-.52.283 0 .52.047.8.095.283.094.518.235.754.424-.047.14-.094.33-.14.52l-.142.565-.282-.048v-.282c0-.283-.094-.52-.283-.66-.14-.19-.377-.283-.66-.283-.377 0-.613.142-.85.33s-.33.472-.33.8c0 .19.047.424.14.613s.33.52.66.895c.047 0 .095.047.14.142.707.754 1.037 1.366 1.037 1.932 0 .518-.188.99-.612 1.32s-.942.52-1.602.52a2.75 2.75 0 0 1-.896-.142c-.282-.094-.613-.188-.895-.377zm7.445.424l-.047-.047c-.142 0-.236 0-.283-.047s-.094-.094-.094-.14v-.095l.048-.094.706-1.79c.14-.424.236-.753.236-.895 0-.094-.047-.19-.095-.235s-.094-.095-.188-.095c-.048 0-.142.047-.19.14-.095.048-.14.19-.236.33l-.19-.142c.19-.377.377-.707.613-.895.235-.236.47-.33.66-.33.14 0 .283.047.377.142.047.094.094.188.094.376 0 .095 0 .236-.047.377 0 .14-.047.33-.094.52.283-.472.612-.85.895-1.084.33-.236.613-.33.942-.33.19 0 .377.047.52.188.094.142.188.283.188.472 0 .094 0 .188-.047.282 0 .094-.047.236-.094.377.377-.47.707-.8 1.037-.99.33-.236.66-.377.99-.377a.72.72 0 0 1 .472.189c.14.14.188.282.188.47v.33a1.6 1.6 0 0 0-.141.377l-.52 1.367c-.14.377-.188.613-.188.66s0 .14.047.188c.047 0 .094.047.14.047.095 0 .19-.047.33-.14.094-.094.236-.235.424-.47l.19.14c-.33.424-.613.754-.896.942-.282.236-.565.33-.754.33s-.282-.047-.377-.14c-.094-.14-.14-.236-.14-.424 0-.14.047-.425.236-.848.094-.19.14-.377.188-.52l.377-1.083c.095-.236.14-.377.14-.472s-.047-.188-.094-.282c-.094-.048-.14-.095-.282-.095-.283 0-.613.283-1 .754-.33.518-.66 1.225-1 2.12l-.188.613c-.047.095-.094.19-.14.236s-.142.094-.236.094H65.1c-.094-.047-.188-.047-.283-.047-.047-.047-.047-.094-.047-.14v-.142c0-.047.047-.094.047-.188l.8-2.262c.047-.095.094-.188.094-.283.047-.094.047-.188.047-.282 0-.142-.047-.236-.094-.33-.094-.047-.19-.095-.283-.095-.236 0-.518.19-.754.566-.282.377-.565.943-.848 1.65l-.424 1.178c-.048.19-.094.283-.142.283-.047.047-.14.094-.282.094h-.095zm9.895-1.225c0 .14.047.282.095.33.047.094.14.14.282.14s.283-.14.47-.33c.236-.188.472-.47.707-.848l.518-.895c.095-.236.19-.424.19-.518s-.047-.142-.094-.19-.142-.047-.236-.047c-.188 0-.377.047-.565.14s-.33.236-.52.424c-.235.236-.424.566-.612.896-.14.33-.236.612-.236.895zm3.393-.047c-.282.424-.566.754-.8.942-.282.236-.47.33-.66.33-.14 0-.235-.047-.33-.14a.43.43 0 0 1-.141-.33c0-.14.048-.33.14-.613s.19-.612.377-1h-.048c-.377.66-.8 1.178-1.178 1.555-.377.33-.707.518-1.036.518-.19 0-.33-.047-.425-.188-.14-.142-.188-.33-.188-.566 0-.376.14-.8.377-1.272s.565-.85 1.036-1.225a3.11 3.11 0 0 1 .943-.66c.33-.14.66-.19 1-.19h.283l.235-.33h.613l-.896 2.214c-.235.613-.33 1-.33 1.13 0 .048 0 .14.047.14.048.048.048.095.095.095.094 0 .188-.047.283-.095.094-.094.235-.235.424-.518l.188.188zm4.147-1.367c.283-.612.566-1.036.8-1.32.235-.235.47-.377.707-.377a.73.73 0 0 1 .377.094c.094.094.14.19.14.33a.76.76 0 0 1-.141.424c-.094.094-.19.188-.33.188-.047 0-.14-.047-.236-.094-.14-.047-.235-.094-.283-.094-.14 0-.33.142-.47.377-.19.235-.377.707-.66 1.367l-.566 1.366v.047c-.094.19-.236.33-.47.33h-.047l-.047-.047c-.142 0-.236 0-.33-.047-.048-.047-.094-.094-.094-.14v-.048c.047 0 .047-.047.047-.047l.048-.094.66-1.79c.142-.424.236-.753.236-.895 0-.094 0-.19-.047-.235s-.14-.095-.19-.095c-.094 0-.14.047-.235.14-.047.048-.14.19-.236.33l-.188-.142c.188-.377.424-.707.613-.895.235-.236.47-.33.706-.33.142 0 .236.047.33.142s.095.188.095.376c0 .142 0 .33-.048.518s-.094.424-.188.66h.047zm6.502 1.555c-.33.377-.565.707-.848.896-.283.14-.566.235-.848.235-.19 0-.377-.047-.52-.14-.094-.14-.14-.283-.14-.47v-.236c0-.047.047-.142.047-.235l.8-2.64h-.707v-.377h.8l.236-.943c.047-.14.094-.188.19-.236.047-.047.14-.047.33-.047h.095c.094 0 .188 0 .282.047.047 0 .047.095.047.142V41l-.282.943h.942v.377H86.16l-.66 2.356c0 .094-.048.14-.048.19v.14c0 .14 0 .188.048.283.094.047.14.094.235.094s.19-.047.33-.142l.518-.518.19.188zm12.345-.565c.283-.283.47-.612.613-.896s.236-.565.236-.754a.36.36 0 0 0-.095-.235c0-.047-.094-.094-.188-.094-.14 0-.283.14-.424.424s-.19.612-.19 1.036v.236c.047.094.047.19.047.283zm-1.602-1.932h-.943c-.235 0-.424 0-.518.094-.14.047-.188.142-.188.283 0 .047.047.14.14.283.14.094.19.188.19.282 0 .142-.048.236-.142.283-.047.095-.14.14-.283.14-.094 0-.188-.047-.283-.14s-.094-.236-.094-.377.047-.33.188-.612c.095-.283.283-.52.47-.754.047-.094.142-.14.236-.188s.19-.047.282-.047h1.602l.142.094c-.47.566-.754 1.084-.99 1.508-.19.424-.283.754-.283 1.037s.047.518.188.66a.78.78 0 0 0 .566.235c.094 0 .235-.047.376-.094l.425-.235c0-.095-.047-.142-.047-.236v-.236c0-.283.047-.566.094-.895.094-.283.188-.566.33-.848.14-.33.283-.566.47-.754.14-.188.33-.235.47-.235.19 0 .283.047.377.142s.142.235.142.424c0 .377-.094.754-.33 1.178-.19.377-.472.8-.848 1.225 0 .188.094.33.235.424.094.095.236.142.424.142a1.03 1.03 0 0 0 .66-.235c.236-.142.472-.377.66-.707.14-.19.236-.377.33-.613.047-.19.094-.377.094-.565 0-.095 0-.19-.047-.236 0-.094-.047-.142-.047-.188-.048 0-.094-.048-.142-.095-.14-.14-.235-.282-.235-.424s.047-.236.14-.33.236-.142.377-.142.283.047.377.188.14.33.14.566a3.03 3.03 0 0 1-.188 1.036c-.14.377-.33.754-.52 1.13-.33.47-.612.8-.99 1.083-.33.283-.613.377-.943.377-.235 0-.424-.047-.565-.188-.19-.142-.283-.33-.377-.613-.19.283-.424.47-.66.613s-.424.188-.66.188c-.33 0-.566-.094-.754-.282a1.19 1.19 0 0 1-.282-.801c0-.33.094-.66.282-1.084.236-.425.52-.943.943-1.46zm8.057 2.356c0 .14 0 .282.094.33a.26.26 0 0 0 .236.141c.14 0 .33-.14.518-.33s.424-.47.707-.848l.47-.895c.142-.236.19-.424.19-.518s0-.142-.094-.19c-.047-.047-.142-.047-.236-.047-.19 0-.33.047-.52.14s-.376.236-.565.424c-.235.236-.424.566-.565.896-.19.33-.236.612-.236.895zm3.393-.047c-.33.424-.613.754-.848.942-.236.236-.47.33-.66.33-.14 0-.235-.047-.33-.14-.047-.094-.094-.19-.094-.33s.047-.33.094-.613l.377-1h-.047c-.377.66-.754 1.178-1.13 1.555-.377.33-.754.518-1.036.518-.19 0-.377-.047-.472-.188s-.188-.33-.188-.566c0-.376.14-.8.377-1.272.283-.47.612-.85 1.036-1.225.33-.283.66-.52 1-.66a2.25 2.25 0 0 1 .943-.189h.282l.283-.33h.566l-.896 2.214c-.19.613-.283 1-.283 1.13v.14c.048.048.094.095.14.095.095 0 .142-.047.236-.095a6.74 6.74 0 0 0 .472-.518l.188.188zm2.545-1.508l-.283-.047c.14-.518.33-.895.566-1.13.235-.283.47-.377.754-.377.424 0 .706.283.895.848s.283 1.46.283 2.686v.377c.377-.52.66-.942.85-1.414.188-.424.282-.8.282-1.083 0-.142 0-.33-.094-.52l-.094-.424c0-.14.047-.283.14-.33.095-.095.19-.142.33-.142s.283.047.377.142.142.235.142.424c0 .47-.19 1.037-.566 1.744-.33.707-.85 1.508-1.508 2.356l-1.367 1.555c-.376.33-.66.472-.942.472a.51.51 0 0 1-.33-.142c-.094-.094-.14-.188-.14-.283 0-.14.047-.235.14-.33.047-.048.142-.095.283-.095.094 0 .188 0 .33.047s.236.094.283.094c.094 0 .188-.047.33-.188.142-.094.283-.283.425-.47.094-.142.188-.33.235-.52s.094-.47.094-.8c0-1.083-.094-1.93-.188-2.45-.14-.52-.33-.8-.566-.8-.14 0-.283.047-.376.188-.095.094-.19.33-.283.613zm15.22 1.696c-.283.377-.566.707-.8.896-.283.14-.566.235-.85.235-.235 0-.376-.047-.518-.14-.142-.14-.19-.283-.19-.47 0-.094 0-.14.047-.236 0-.047 0-.142.047-.235l.754-2.64h-.706v-.377h.8L125.6 41c.048-.14.095-.188.142-.236s.19-.047.33-.047h.094c.14 0 .235 0 .283.047.047 0 .094.095.094.142V41l-.283.943h.895v.377h-.99l-.66 2.356c-.048.094-.048.14-.048.19-.047.047-.047.094-.047.14 0 .14.047.188.095.283a.36.36 0 0 0 .235.094c.094 0 .19-.047.283-.142.14-.094.33-.282.518-.518l.19.188zm5.09-2.92c-.19 0-.33.047-.472.188-.094.095-.235.283-.377.566a5.52 5.52 0 0 0-.424 1.131c-.142.377-.19.754-.19 1.084 0 .235.047.424.19.565.094.14.235.188.424.188s.33-.047.52-.188c.14-.14.283-.377.424-.66.142-.33.283-.707.377-1.084a3.59 3.59 0 0 0 .141-.989c0-.236-.047-.47-.188-.613-.094-.14-.236-.188-.424-.188zm.047-.33c.47 0 .8.142 1.084.424.283.33.424.707.424 1.225 0 .283-.047.612-.14.896-.142.33-.283.612-.472.895-.235.283-.518.518-.8.707-.33.188-.66.235-1 .235-.47 0-.848-.14-1.13-.424-.283-.33-.425-.707-.425-1.225 0-.33.095-.613.19-.943.094-.282.283-.565.47-.848.236-.33.52-.565.85-.707.282-.14.612-.235.942-.235zm13.476.66c-.14 0-.283.047-.47.14-.19.14-.377.33-.66.613-.33.33-.565.66-.754 1.036-.188.33-.283.613-.283.85 0 .188.048.33.142.424s.235.14.377.14a.95.95 0 0 0 .518-.141 1.47 1.47 0 0 0 .518-.424c.33-.377.566-.754.754-1.178.19-.377.283-.706.283-.99 0-.14 0-.283-.094-.377-.047-.047-.19-.094-.33-.094zm-2.827 1.743l1.178-4.052c0-.094.047-.19.047-.283 0-.047.047-.14.047-.19 0-.188-.236-.283-.66-.33l.047-.235.896-.14c.282-.047.566-.142.8-.19l.094.047-1.508 4.9c.47-.66.895-1.13 1.32-1.46s.848-.47 1.178-.47c.283 0 .47.094.612.283.142.14.236.424.236.707 0 .33-.094.66-.283.99-.188.377-.424.754-.754 1.084-.424.424-.895.754-1.32.99-.47.236-.896.33-1.32.33-.282 0-.518-.047-.66-.188a.78.78 0 0 1-.236-.565c0-.095.047-.236.047-.424l.236-.8zm7.492.707c0 .14 0 .282.047.33.048.094.142.14.283.14s.283-.14.518-.33c.19-.188.425-.47.66-.848.236-.33.377-.613.518-.895.142-.236.19-.424.19-.518s-.047-.142-.094-.19-.14-.047-.236-.047c-.188 0-.377.047-.565.14s-.33.236-.52.424c-.235.236-.424.566-.565.896-.19.33-.236.612-.236.895zm3.346-.047c-.282.424-.566.754-.8.942-.283.236-.47.33-.66.33-.14 0-.235-.047-.33-.14s-.094-.19-.094-.33 0-.33.094-.613.19-.612.377-1h-.047c-.377.66-.753 1.178-1.13 1.555-.377.33-.754.518-1.037.518-.236 0-.377-.047-.472-.188-.14-.142-.188-.33-.188-.566 0-.376.14-.8.376-1.272s.613-.85 1.037-1.225c.33-.283.612-.52.942-.66s.66-.19 1-.19h.282l.236-.33h.613l-.896 2.214-.33 1.13c0 .048.048.14.048.14.047.048.094.095.14.095s.14-.047.236-.095c.094-.094.235-.235.424-.518l.188.188zm2.827-1.696l-.236-.142c.188-.377.424-.707.613-.895.235-.236.47-.33.706-.33.095 0 .236.047.33.142.048.094.095.188.095.33s0 .283-.047.424c0 .19-.048.377-.095.565.33-.518.707-.848 1.037-1.13.33-.236.66-.33.942-.33.236 0 .377.047.52.142.14.14.188.282.188.47 0 .14 0 .235-.047.377l-.19.612-.094.14-.518 1.602c0 .047 0 .094.047.14s.094.047.142.047.14-.047.235-.094c.14-.094.283-.283.518-.518l.19.188a6.49 6.49 0 0 1-.942.99c-.283.188-.52.282-.754.282-.142 0-.283-.047-.377-.14s-.142-.19-.142-.377c0-.047.047-.188.047-.283l.14-.47.613-1.65s.047-.047.047-.094c.095-.236.142-.425.142-.52s-.047-.14-.095-.235c-.047-.048-.14-.048-.235-.048-.236 0-.518.19-.8.566a5.54 5.54 0 0 0-.801 1.508l-.52 1.32c-.047.19-.094.283-.14.283-.095.047-.14.094-.282.094h-.095l-.047-.047c-.142 0-.236 0-.283-.047-.094-.047-.094-.094-.094-.14v-.095l.047-.094.707-1.79c.14-.424.236-.706.236-.895a.36.36 0 0 0-.095-.235c-.047-.048-.094-.095-.19-.095-.047 0-.14.047-.188.14-.095.048-.142.142-.236.33zm8.15.518h.283c.66 0 1.178-.047 1.508-.236.376-.19.565-.424.565-.707 0-.14-.047-.235-.14-.282-.095-.095-.19-.142-.33-.142-.283 0-.612.142-.943.377a3.81 3.81 0 0 0-.942.99zm-.66 2.262l-.14.14c-.047 0-.095.047-.236.047h-.19c-.094 0-.188-.047-.235-.047-.047-.047-.094-.094-.094-.14 0 0 .047-.047.047-.095l.047-.14 1.225-3.91.47-2.073c0-.19-.14-.283-.518-.33-.047-.047-.14-.047-.14-.047l.047-.235.896-.14c.282-.047.565-.095.848-.19l.095.047-.707 2.592-.52 1.555c.377-.424.754-.707 1.084-.895s.66-.283 1-.283c.236 0 .47.047.613.235a.78.78 0 0 1 .235.566c0 .33-.19.66-.66.895-.424.236-.943.377-1.602.424.14.047.236.14.283.236.095.14.236.33.33.613 0 .047.047.094.047.14.19.424.424.66.612.66a.51.51 0 0 0 .33-.141c.14-.095.235-.236.376-.377l.19.14c-.19.33-.424.566-.66.754s-.47.235-.706.235c-.19 0-.377-.047-.52-.188-.142-.19-.33-.47-.47-.943-.047-.047-.047-.14-.095-.188-.188-.566-.424-.896-.66-.896l-.613 1.98z" fill="#fffffe"/></svg>