<svg width="130" height="50" viewBox="0 0 130 50" fill="none" xmlns="http://www.w3.org/2000/svg">
<circle cx="22.0589" cy="46.3234" r="3.67647" fill="#2261F6"/>
<circle cx="22.0589" cy="3.67647" r="3.67647" fill="#2261F6"/>
<circle cx="22.0587" cy="14.4607" r="2.94118" fill="#2261F6"/>
<circle cx="11.7647" cy="9.06862" r="2.94118" fill="#2261F6"/>
<circle cx="11.7647" cy="41.1765" r="2.94118" fill="#2261F6"/>
<circle cx="31.25" cy="19.9754" r="2.94118" fill="#2261F6"/>
<circle cx="31.25" cy="30.1472" r="2.94118" fill="#2261F6"/>
<circle cx="22.0587" cy="35.5393" r="2.94118" fill="#2261F6"/>
<circle cx="22.0588" cy="24.9998" r="2.32843" fill="#2261F6"/>
<circle cx="11.7647" cy="30.2698" r="2.32843" fill="#2261F6"/>
<circle cx="11.7647" cy="19.9754" r="2.32843" fill="#2261F6"/>
<circle cx="1.71569" cy="14.4608" r="1.71569" fill="#2261F6"/>
<circle cx="1.71569" cy="24.9999" r="1.71569" fill="#2261F6"/>
<circle cx="1.71569" cy="35.5389" r="1.71569" fill="#2261F6"/>
<circle cx="31.25" cy="9.06905" r="3.67647" fill="#2261F6"/>
<circle cx="31.25" cy="41.0539" r="3.67647" fill="#2261F6"/>
<circle cx="40.4411" cy="14.4606" r="3.67647" fill="#2261F6"/>
<circle cx="40.4411" cy="35.5393" r="3.67647" fill="#2261F6"/>
<circle cx="40.4411" cy="24.9997" r="3.67647" fill="#2261F6"/>
<path d="M60.3242 30.0205C60.9629 30.835 61.9062 31.2422 63.1543 31.2422C64.4023 31.2422 65.3428 30.8379 65.9756 30.0293C66.6143 29.2148 66.9336 28.0664 66.9336 26.584C66.9336 25.084 66.6143 23.9209 65.9756 23.0947C65.3428 22.2686 64.4053 21.8555 63.1631 21.8555C61.915 21.8555 60.9688 22.2715 60.3242 23.1035C59.6855 23.9297 59.3662 25.0898 59.3662 26.584C59.3662 28.0605 59.6855 29.2061 60.3242 30.0205ZM63.1455 33.1846C61.2061 33.1846 59.6738 32.5986 58.5488 31.4268C57.4297 30.249 56.8701 28.626 56.8701 26.5576C56.8701 24.4775 57.4326 22.8545 58.5576 21.6885C59.6826 20.5225 61.2148 19.9395 63.1543 19.9395C65.0938 19.9395 66.623 20.5254 67.7422 21.6973C68.8613 22.8633 69.4209 24.4863 69.4209 26.5664C69.4209 28.623 68.8584 30.2402 67.7334 31.418C66.6084 32.5957 65.0791 33.1846 63.1455 33.1846ZM69.9834 33L74.4922 26.4082L70.3174 20.124H72.998L76.0303 24.9229L79.1504 20.124H81.6904L77.4277 26.4434L81.9189 33H79.168L75.916 27.9902L72.5938 33H69.9834ZM86.1641 33V27.8936L81.708 20.124H84.292L87.3594 25.6963L90.4443 20.124H92.9932L88.5547 27.8496V33H86.1641ZM99.9277 33.1846C97.9648 33.1846 96.4297 32.5928 95.3223 31.4092C94.2207 30.2256 93.6699 28.6055 93.6699 26.5488C93.6699 25.2422 93.9277 24.0938 94.4434 23.1035C94.959 22.1074 95.7178 21.3311 96.7197 20.7744C97.7217 20.2178 98.9053 19.9395 100.271 19.9395C101.835 19.9395 103.177 20.2764 104.296 20.9502L103.522 22.7256C102.456 22.1514 101.387 21.8643 100.314 21.8643C99.0137 21.8643 97.9912 22.2861 97.2471 23.1299C96.5029 23.9736 96.1309 25.1221 96.1309 26.5752C96.1309 28.0166 96.4619 29.1562 97.124 29.9941C97.7861 30.832 98.7559 31.251 100.033 31.251C100.854 31.251 101.598 31.1221 102.266 30.8643V27.876H99.5674L99.585 26.0039H104.507V32.2178C103.71 32.5459 102.954 32.7891 102.239 32.9473C101.53 33.1055 100.76 33.1846 99.9277 33.1846ZM107.064 33V20.124H114.869L114.772 22.0137H109.446V25.3359H114.509V27.2256H109.446V31.1016H114.966L114.887 33H107.064ZM117.189 33V20.124H119.721C120.178 20.8389 121.106 22.2803 122.507 24.4482C123.907 26.6162 124.76 27.9346 125.064 28.4033C125.152 28.5381 125.302 28.7666 125.513 29.0889C125.729 29.4053 125.882 29.6309 125.97 29.7656C125.929 27.7559 125.908 26.7129 125.908 26.6367V20.124H128.079V33H125.513L119.703 23.9473L119.281 23.2529C119.328 24.7998 119.352 25.8867 119.352 26.5137V33H117.189Z" fill="#2261F6"/>
</svg>
