<?xml version="1.0" encoding="UTF-8"?> <svg xmlns="http://www.w3.org/2000/svg" width="106" height="37" viewBox="0 0 106 37" fill="none"> <path d="M17.5708 11.1144C14.5329 11.1144 12.2081 13.3595 12.2081 16.255V22.9167C12.2081 29.2524 6.95331 34.0669 0.884645 34.0669H0V28.0573H0.884645C3.92252 28.0573 6.24736 25.814 6.24736 22.9167V16.255C6.24736 9.91928 11.5022 5.1048 17.5797 5.1048H18.4732V11.1144H17.5708Z" fill="#450055"></path> <path d="M39.7177 19.6216C39.7177 21.8893 39.0538 24.106 37.81 25.9916C36.5661 27.8772 34.7982 29.347 32.7296 30.2152C30.661 31.0834 28.3847 31.311 26.1884 30.8692C23.9921 30.4275 21.9745 29.3362 20.3905 27.7334C18.8065 26.1306 17.7274 24.0881 17.2895 21.8643C16.8515 19.6404 17.0745 17.335 17.9302 15.2395C18.7859 13.144 20.2359 11.3524 22.0969 10.0913C23.9578 8.83015 26.1462 8.1561 28.3854 8.15433C29.8738 8.15079 31.3483 8.44492 32.7242 9.01984C34.1001 9.59476 35.3503 10.4392 36.4032 11.5046C37.4561 12.57 38.2909 13.8355 38.8597 15.2284C39.4285 16.6213 39.7201 18.1143 39.7177 19.6216ZM23.0581 19.6216C23.0581 21.0572 23.6212 22.434 24.6236 23.4491C25.626 24.4643 26.9855 25.0346 28.4031 25.0346C29.8207 25.0346 31.1802 24.4643 32.1826 23.4491C33.185 22.434 33.7481 21.0572 33.7481 19.6216C33.7481 18.186 33.185 16.8092 32.1826 15.7941C31.1802 14.779 29.8207 14.2087 28.4031 14.2087C26.9855 14.2087 25.626 14.779 24.6236 15.7941C23.6212 16.8092 23.0581 18.186 23.0581 19.6216Z" fill="#450055"></path> <path d="M54.0347 8.14549C55.8736 8.13916 57.6864 8.58649 59.3163 9.44879C60.9463 10.3111 62.3443 11.5624 63.3895 13.0947C64.4348 14.6269 65.0959 16.3938 65.3155 18.2428C65.5352 20.0917 65.307 21.9671 64.6504 23.7067C63.9939 25.4462 62.9289 26.9977 61.5475 28.227C60.1661 29.4562 58.5098 30.3263 56.7219 30.7619C54.934 31.1975 53.0682 31.1856 51.2859 30.7272C49.5035 30.2688 47.8582 29.3777 46.4922 28.1309L42.7024 31.9688L38.5552 27.7313L42.7024 23.5386V1.4837H48.6737V9.56278C50.3067 8.62159 52.1558 8.13275 54.0347 8.14549ZM48.6737 19.6128C48.6737 20.687 48.9883 21.7371 49.5776 22.6302C50.167 23.5233 51.0046 24.2194 51.9846 24.6304C52.9647 25.0414 54.043 25.1489 55.0833 24.9392C56.1236 24.7295 57.0792 24.212 57.8291 23.4524C58.579 22.6927 59.0896 21.7248 59.2964 20.6712C59.5031 19.6176 59.3966 18.5256 58.9905 17.5333C58.5843 16.5409 57.8967 15.6929 57.0145 15.0963C56.1324 14.4998 55.0954 14.1816 54.0347 14.182C53.3284 14.1769 52.6282 14.3143 51.9748 14.586C51.3215 14.8577 50.728 15.2584 50.2291 15.7647C49.7302 16.271 49.3357 16.8727 49.0687 17.5349C48.8016 18.1971 48.6674 18.9065 48.6737 19.6218V19.6128Z" fill="#450055"></path> <path d="M74.3621 3.61941C74.366 4.34074 74.158 5.04696 73.7647 5.64838C73.3715 6.24979 72.8105 6.71927 72.1533 6.9972C71.496 7.27513 70.7719 7.34896 70.0731 7.20932C69.3743 7.06968 68.7322 6.72287 68.2284 6.21293C67.7246 5.70299 67.3818 5.05293 67.2436 4.34531C67.1054 3.63768 67.1779 2.90442 67.452 2.23863C67.7262 1.57285 68.1895 1.00458 68.7832 0.605997C69.3768 0.207416 70.0741 -0.00349725 70.7864 4.38689e-05C71.7337 0.00240729 72.6416 0.384435 73.3116 1.06264C73.9816 1.74084 74.3593 2.66006 74.3621 3.61941Z" fill="#B98948"></path> <path d="M73.7528 9.05035H67.7832V30.1574H73.7528V9.05035Z" fill="#450055"></path> <path d="M97.2585 36.9999L82.3504 18.7902V30.1572H76.3809V2.21637L91.2942 20.4189V9.05017H97.2638L97.2585 36.9999Z" fill="#450055"></path> <path d="M106 3.61941C106.004 4.34074 105.796 5.04696 105.403 5.64838C105.01 6.24979 104.449 6.71927 103.791 6.9972C103.134 7.27513 102.41 7.34896 101.711 7.20932C101.012 7.06968 100.37 6.72287 99.8666 6.21293C99.3628 5.70299 99.02 5.05293 98.8818 4.34531C98.7436 3.63768 98.8161 2.90442 99.0902 2.23863C99.3643 1.57285 99.8277 1.00458 100.421 0.605997C101.015 0.207416 101.712 -0.00349725 102.425 4.38689e-05C103.372 0.00240729 104.28 0.384435 104.95 1.06264C105.62 1.74084 105.997 2.66006 106 3.61941ZM105.392 30.1573H99.4221V9.05026H105.392V30.1573Z" fill="#450055"></path> </svg> 