<?xml version="1.0" encoding="UTF-8"?>
<svg style="" version="1.1" viewBox="0 0 384 224" xml:space="preserve" xmlns="http://www.w3.org/2000/svg" xmlns:cc="http://creativecommons.org/ns#" xmlns:dc="http://purl.org/dc/elements/1.1/" xmlns:rdf="http://www.w3.org/1999/02/22-rdf-syntax-ns#"><rect class="" width="100%" height="100%" fill="none" style=""/><metadata><rdf:RDF><cc:Work rdf:about=""><dc:format>image/svg+xml</dc:format><dc:type rdf:resource="http://purl.org/dc/dcmitype/StillImage"/></cc:Work></rdf:RDF></metadata><g class="currentLayer" style=""><title>Layer 1</title><path class="" d="m311.03 75.616c-11.493-11.513-30.989-10.831-43.305 1.476l-44.737 44.727v-90.147c0-17.419-13.297-31.672-29.585-31.672-6.944 0-13.267 2.712-18.339 7.044-1.8 1.204-3.484 2.5667-5.0653 4.152l-110.8 110.84v-90.365c0-17.419-13.334-31.672-29.601-31.672-16.314-3.0593e-14 -29.597 14.253-29.597 31.672v158.36c0 6.616 1.9354 12.756 5.2432 17.863 1.1422 2.0308 2.499 3.9505 4.2151 5.6828 3.6365 3.6095 8.0714 5.8787 12.777 7.1267l0.10467 0.030667c10.283 2.6292 22.032-0.21453 30.41-8.6292l111.08-111.03v88.956c0 4.7213 1.028 9.172 2.7653 13.2 1.3827 3.7865 3.5373 7.36 6.5107 10.345 11.488 11.519 31.005 10.84 43.307-1.4719l93.183-93.176c12.317-12.297 12.964-31.777 1.444-43.317" fill="#100f0d" stroke-width="0"/><path class="" d="m384.27 31.693c0.376-7.976-2.3267-15.896-8.1693-21.755-6.0987-6.1147-14.467-8.76-22.809-8.092-3.548 0.18267-6.944 1.0533-10.048 2.4733-3.8187 1.612-7.3613 3.98-10.471 7.0907l-59.772 59.801c-12.348 12.349-13.011 31.824-1.5333 43.324 11.529 11.513 30.995 10.835 43.323-1.4667l10.351-10.351v89.117c0 17.425 13.335 31.679 29.58 31.679 16.261 0 29.549-14.254 29.549-31.679v-158.34-1.8053" fill="#b71a35" stroke-width="0"/></g></svg>
