<?xml version="1.0" encoding="UTF-8"?>
<svg version="1.1" viewBox="0 0 387.24 330.51" xml:space="preserve" xmlns="http://www.w3.org/2000/svg" xmlns:cc="http://creativecommons.org/ns#" xmlns:dc="http://purl.org/dc/elements/1.1/" xmlns:rdf="http://www.w3.org/1999/02/22-rdf-syntax-ns#"><metadata><rdf:RDF><cc:Work rdf:about=""><dc:format>image/svg+xml</dc:format><dc:type rdf:resource="http://purl.org/dc/dcmitype/StillImage"/></cc:Work></rdf:RDF></metadata><g transform="matrix(1.3333 0 0 -1.3333 0 330.51)"><g transform="scale(.1)"><path d="m412.1 7.5898h-90.192l-53.136 196.15c-6.219 23.633-9.665 51.692-9.665 51.692h-1.054s-3.719-28.059-10.645-51.692l-52.625-196.15h-90.074l-100.36 344.36h87.488l49.188-210.93c5.593-25.59 9.117-56.032 9.117-56.032h0.933s5.328 30.442 11.938 56.032l55.324 210.93h79.863l55.524-210.93c6.375-25.59 11.855-56.032 11.855-56.032h1.055s3.211 30.442 8.687 56.032l49.457 210.93h87.532l-100.21-344.36" fill="#100f0d"/><path d="m731.5 173.81c-64.289-3.329-120.36-9.079-120.36-60.848 0-32.442 25.863-50.942 70.859-50.942 18.508 0 40.379 3.1289 49.5 6.8399zm-46.914-173.81c-103.54 0-155.26 40.852-155.26 111.12 0 93.91 97.582 112.38 202.18 118.13v17.879c0 35.84-24.969 49.223-64.723 49.223-32.472 0-71.836-10.25-96.367-20.461l-21.875 58.808c28.914 12.172 78.02 25 127.83 25 88.426 0 137.22-34.59 137.22-122.78v-212c-25.395-13.461-77.391-24.922-129-24.922" fill="#100f0d"/><path d="m879.44 7.5898v501.5h86.789v-501.5h-86.789" fill="#100f0d"/><path d="m1039 7.5898v501.5h87.06v-501.5h-87.06" fill="#100f0d"/><path d="m1338.1 296.35c-45.43 0-77.2-33.223-78.53-97.661l144.62 19.797c0 51.774-25.99 77.864-66.09 77.864zm148.76-122.54-221.7-30.129c7.83-50.399 44.88-75.52 95.4-75.52 34.55 0 71.44 9.0781 95.74 21.801l25.01-65.039c-28.72-14.59-77.12-24.922-127.09-24.922-113.67 0-173.89 74.031-173.89 180.15 0 105.44 59.48 179.55 159.84 179.55 95 0 148.22-62.679 148.22-156.63 0-9.582 0-19.172-1.53-29.261" fill="#100f0d"/><path d="m1656.9 2.582c-66.36 0-97.7 36.348-97.7 108.54v175.65h-43.98v65.179h43.98v76.621l85.14 24.879v-101.5h64.87v-65.179h-64.87v-169.89c0-28.141 17.45-37.731 39.99-37.731 9.04 0 19.13 2.5508 24.88 5.0508v-72.148c-10.37-4.9297-31.26-9.4688-52.31-9.4688" fill="#100f0d"/><path d="m2047.9 291.23c-46.06 0-69.03-41.601-69.03-110.38 0-69.141 22.97-109.95 69.03-109.95 46.17 0 69.13 40.813 69.13 109.95 0 68.777-22.96 110.38-69.13 110.38zm0-291.23c-100.37 0-155.97 77.238-155.97 180.15 0 102.82 55.6 179.55 155.97 179.55 100.32 0 155.77-76.73 155.77-179.55 0-102.91-55.45-180.15-155.77-180.15" fill="#b71a35"/><path d="m2456.1 7.5898v226.79c0 34.59-21.05 55.633-60.73 55.633-20.27 0-40.42-3.91-51.92-8.371v-274.05h-86.75v327.11c36.47 14.711 80.49 25 137.3 25 102.32 0 149.55-42.301 149.55-116.25v-235.86h-87.45" fill="#b71a35"/><path d="m2754.4 296.35c-45.35 0-77.4-33.223-78.73-97.661l144.46 19.797c0 51.774-25.66 77.864-65.73 77.864zm148.53-122.54-221.58-30.129c7.86-50.399 44.64-75.52 95.19-75.52 34.67 0 71.49 9.0781 95.75 21.801l25.16-65.039c-28.72-14.59-77.32-24.922-127.13-24.922-113.55 0-173.72 74.031-173.72 180.15 0 105.44 59.39 179.55 159.64 179.55 95.19 0 148.13-62.679 148.13-156.63 0-9.582 0-19.172-1.44-29.261" fill="#b71a35"/><path d="m2332.8 1911.7c-86.2 86.35-232.42 81.23-324.79-11.07l-335.53-335.45v676.1c0 130.64-99.73 237.54-221.89 237.54-52.08 0-99.5-20.34-137.54-52.83-13.5-9.03-26.13-19.25-37.99-31.14l-831.04-831.31v677.74c0 130.64-100.01 237.54-222.01 237.54-122.36 0-221.98-106.9-221.98-237.54v-1187.7c0-49.62 14.516-95.668 39.324-133.97 8.5664-15.231 18.742-29.629 31.613-42.621 27.273-27.071 60.536-44.09 95.824-53.45l0.785-0.23c77.121-19.719 165.24 1.609 228.08 64.719l833.06 832.72v-667.17c0-35.41 7.71-68.79 20.74-99 10.37-28.399 26.53-55.2 48.83-77.59 86.16-86.391 232.54-81.301 324.8 11.039l698.87 698.82c92.38 92.23 97.23 238.33 10.83 324.88" fill="#100f0d"/><path d="m2882 2241.1c2.82 59.82-17.45 119.22-61.27 163.16-45.74 45.86-108.5 65.7-171.07 60.69-26.61-1.37-52.08-7.9-75.36-18.55-28.64-12.09-55.21-29.85-78.53-53.18l-448.29-448.51c-92.61-92.62-97.58-238.68-11.5-324.93 86.47-86.35 232.46-81.26 324.92 11l77.63 77.63v-668.38c0-130.69 100.01-237.59 221.85-237.59 121.96 0 221.62 106.9 221.62 237.59v1187.5 13.54" fill="#b71a35"/></g></g></svg>
