<?xml version="1.0" encoding="utf-8"?>
<svg xmlns="http://www.w3.org/2000/svg" width="168" height="40" viewBox="0 0 168 40" fill="none">
<path fill-rule="evenodd" clip-rule="evenodd" d="M27.899 37.4414L1.29889 24.1674C0.568825 23.8031 0.0807045 23.0886 0.0091115 22.2796C-0.0625868 21.4705 0.292449 20.6821 0.947399 20.1966L27.5549 0.464597C28.2691 -0.0650958 29.2229 -0.148599 30.0193 0.248807C30.8156 0.646213 31.3184 1.45656 31.3183 2.34259L31.3106 35.3484C31.3105 36.1607 30.8871 36.9148 30.192 37.3414C29.4969 37.7678 28.629 37.8057 27.899 37.4414ZM7.62344 22.0825C10.4401 18.4189 15.5633 17.1426 19.8605 19.287C24.1576 21.4314 26.1905 26.2786 24.92 30.7138L7.62344 22.0825ZM22.0693 14.9103C20.6906 14.2223 19.2553 13.769 17.8091 13.5353L26.6065 7.01129L26.6039 18.4093C25.374 16.9989 23.8515 15.7996 22.0693 14.9103Z" fill="#FDB600"/>
<path d="M44.7924 32.9484C43.4529 32.9484 42.2185 32.6871 41.0892 32.1649C39.986 31.6164 39.1062 30.8851 38.4495 29.971C37.8192 29.0569 37.504 28.0514 37.504 26.9545C37.504 25.1785 38.2263 23.742 39.6708 22.6451C41.1154 21.5482 43.0984 20.8039 45.6198 20.4121L51.0172 19.6286V18.8059C51.0172 17.6567 50.7283 16.7949 50.1504 16.2202C49.5727 15.6457 48.6403 15.3584 47.3533 15.3584C46.4865 15.3584 45.7774 15.5281 45.2258 15.8677C44.7005 16.1811 44.2803 16.4945 43.9652 16.8079C43.6499 17.1475 43.4398 17.3695 43.3348 17.4739C43.2297 17.7874 43.0327 17.944 42.7438 17.944H39.7103C39.4739 17.944 39.2638 17.8656 39.0799 17.709C38.9223 17.5522 38.8435 17.3434 38.8435 17.0821C38.8698 16.4292 39.1849 15.6849 39.789 14.8491C40.4194 14.0134 41.378 13.2951 42.665 12.6945C43.952 12.0938 45.5279 11.7934 47.3927 11.7934C50.4919 11.7934 52.7507 12.4855 54.1689 13.8697C55.5873 15.254 56.2964 17.0691 56.2964 19.3151V31.6164C56.2964 31.8775 56.2044 32.0995 56.0207 32.2824C55.863 32.4651 55.6398 32.5566 55.3509 32.5566H52.1597C51.897 32.5566 51.6738 32.4651 51.4899 32.2824C51.306 32.0995 51.2142 31.8775 51.2142 31.6164V30.0885C50.6363 30.9242 49.809 31.6164 48.7322 32.1649C47.6815 32.6871 46.3683 32.9484 44.7924 32.9484ZM46.1319 29.2266C47.5765 29.2266 48.7584 28.7565 49.6777 27.8164C50.5969 26.8761 51.0565 25.505 51.0565 23.7029V22.8801L47.1169 23.507C45.5935 23.742 44.4379 24.1207 43.6499 24.6431C42.8883 25.1654 42.5074 25.8052 42.5074 26.5627C42.5074 27.3985 42.862 28.0514 43.5712 28.5215C44.2803 28.9916 45.1339 29.2266 46.1319 29.2266Z" fill="#1A1A1A"/>
<path d="M59.1838 32.5567C58.9212 32.5567 58.6979 32.4652 58.514 32.2824C58.3302 32.0996 58.2382 31.8776 58.2382 31.6164V5.68203C58.2382 5.39475 58.3302 5.17275 58.514 5.01605C58.6979 4.83322 58.9212 4.74182 59.1838 4.74182H62.4537C62.7427 4.74182 62.9659 4.83322 63.1234 5.01605C63.3073 5.17275 63.3993 5.39475 63.3993 5.68203V31.6164C63.3993 31.8776 63.3073 32.0996 63.1234 32.2824C62.9659 32.4652 62.7427 32.5567 62.4537 32.5567H59.1838Z" fill="#1A1A1A"/>
<path d="M66.4583 40C66.1957 40 65.9724 39.9086 65.7885 39.7258C65.6048 39.569 65.5128 39.347 65.5128 39.0598V13.1254C65.5128 12.8381 65.6048 12.6161 65.7885 12.4594C65.9724 12.2766 66.1957 12.1852 66.4583 12.1852H69.5707C69.8597 12.1852 70.0829 12.2766 70.2404 12.4594C70.4243 12.6161 70.5163 12.8381 70.5163 13.1254V14.6924C71.9871 12.7597 74.0883 11.7934 76.8198 11.7934C79.4726 11.7934 81.5081 12.6291 82.9263 14.3006C84.3446 15.946 85.1063 18.1791 85.2113 20.9997C85.2376 21.3131 85.2508 21.7702 85.2508 22.3709C85.2508 22.9977 85.2376 23.4677 85.2113 23.7812C85.1063 26.5235 84.3446 28.7435 82.9263 30.4411C81.5081 32.1126 79.4726 32.9484 76.8198 32.9484C74.1671 32.9484 72.1447 32.0212 70.7527 30.1669V39.0598C70.7527 39.347 70.6607 39.569 70.4768 39.7258C70.3193 39.9086 70.0961 40 69.8071 40H66.4583ZM75.3621 28.7565C78.1987 28.7565 79.7089 27.0197 79.8928 23.5461C79.9191 23.285 79.9322 22.8932 79.9322 22.3709C79.9322 21.8485 79.9191 21.4567 79.8928 21.1956C79.7089 17.722 78.1987 15.9852 75.3621 15.9852C73.8387 15.9852 72.7093 16.4684 71.9739 17.4347C71.2386 18.4011 70.8314 19.5894 70.7527 20.9997L70.7133 22.4884L70.7527 24.0162C70.8052 25.3221 71.2123 26.4451 71.9739 27.3854C72.7619 28.2995 73.8913 28.7565 75.3621 28.7565Z" fill="#1A1A1A"/>
<path d="M87.5066 32.5567C87.2439 32.5567 87.0207 32.4652 86.8368 32.2824C86.6529 32.0996 86.5611 31.8776 86.5611 31.6164V5.68203C86.5611 5.39475 86.6529 5.17275 86.8368 5.01605C87.0207 4.83322 87.2439 4.74182 87.5066 4.74182H91.0128C91.3018 4.74182 91.5251 4.83322 91.6826 5.01605C91.8664 5.17275 91.9585 5.39475 91.9585 5.68203V14.6142C93.5343 12.7337 95.6617 11.7935 98.3407 11.7935C100.757 11.7935 102.688 12.59 104.132 14.1832C105.577 15.7502 106.299 17.8918 106.299 20.608V31.6164C106.299 31.8776 106.207 32.0996 106.023 32.2824C105.866 32.4652 105.642 32.5567 105.353 32.5567H101.808C101.545 32.5567 101.322 32.4652 101.138 32.2824C100.954 32.0996 100.862 31.8776 100.862 31.6164V20.843C100.862 19.3022 100.481 18.1138 99.7196 17.278C98.9842 16.4162 97.9073 15.9853 96.4891 15.9853C95.0971 15.9853 93.9939 16.4162 93.1797 17.278C92.3654 18.1399 91.9585 19.3283 91.9585 20.843V31.6164C91.9585 31.8776 91.8664 32.0996 91.6826 32.2824C91.5251 32.4652 91.3018 32.5567 91.0128 32.5567H87.5066Z" fill="#1A1A1A"/>
<path d="M114.096 32.9484C112.756 32.9484 111.522 32.6871 110.392 32.1649C109.289 31.6164 108.41 30.8851 107.753 29.971C107.123 29.0569 106.807 28.0514 106.807 26.9545C106.807 25.1785 107.53 23.742 108.974 22.6451C110.419 21.5482 112.402 20.8039 114.923 20.4121L120.321 19.6286V18.8059C120.321 17.6567 120.032 16.7949 119.454 16.2202C118.876 15.6457 117.944 15.3584 116.657 15.3584C115.79 15.3584 115.081 15.5281 114.529 15.8677C114.004 16.1811 113.584 16.4945 113.268 16.8079C112.953 17.1475 112.743 17.3695 112.638 17.4739C112.533 17.7874 112.336 17.944 112.047 17.944H109.014C108.777 17.944 108.567 17.8656 108.383 17.709C108.226 17.5522 108.147 17.3434 108.147 17.0821C108.173 16.4292 108.488 15.6849 109.092 14.8491C109.723 14.0134 110.681 13.2951 111.968 12.6945C113.255 12.0938 114.831 11.7934 116.696 11.7934C119.795 11.7934 122.054 12.4855 123.472 13.8697C124.891 15.254 125.6 17.0691 125.6 19.3151V31.6164C125.6 31.8775 125.508 32.0995 125.324 32.2824C125.166 32.4651 124.943 32.5566 124.654 32.5566H121.463C121.2 32.5566 120.977 32.4651 120.793 32.2824C120.609 32.0995 120.518 31.8775 120.518 31.6164V30.0885C119.94 30.9242 119.112 31.6164 118.036 32.1649C116.985 32.6871 115.672 32.9484 114.096 32.9484ZM115.435 29.2266C116.88 29.2266 118.062 28.7565 118.981 27.8164C119.9 26.8761 120.36 25.505 120.36 23.7029V22.8801L116.42 23.507C114.897 23.742 113.741 24.1207 112.953 24.6431C112.192 25.1654 111.811 25.8052 111.811 26.5627C111.811 27.3985 112.165 28.0514 112.875 28.5215C113.584 28.9916 114.437 29.2266 115.435 29.2266Z" fill="#1A1A1A"/>
<path d="M128.488 40C128.225 40 128.001 39.9086 127.818 39.7258C127.634 39.569 127.541 39.347 127.541 39.0598V13.1254C127.541 12.8381 127.634 12.6161 127.818 12.4594C128.001 12.2766 128.225 12.1852 128.488 12.1852H131.6C131.889 12.1852 132.111 12.2766 132.269 12.4594C132.453 12.6161 132.545 12.8381 132.545 13.1254V14.6924C134.016 12.7597 136.118 11.7934 138.849 11.7934C141.501 11.7934 143.536 12.6291 144.955 14.3006C146.374 15.946 147.135 18.1791 147.24 20.9997C147.266 21.3131 147.28 21.7702 147.28 22.3709C147.28 22.9977 147.266 23.4677 147.24 23.7812C147.135 26.5235 146.374 28.7435 144.955 30.4411C143.536 32.1126 141.501 32.9484 138.849 32.9484C136.196 32.9484 134.174 32.0212 132.781 30.1669V39.0598C132.781 39.347 132.69 39.569 132.505 39.7258C132.348 39.9086 132.125 40 131.836 40H128.488ZM137.391 28.7565C140.228 28.7565 141.738 27.0197 141.921 23.5461C141.948 23.285 141.961 22.8932 141.961 22.3709C141.961 21.8485 141.948 21.4567 141.921 21.1956C141.738 17.722 140.228 15.9852 137.391 15.9852C135.868 15.9852 134.738 16.4684 134.003 17.4347C133.268 18.4011 132.86 19.5894 132.781 20.9997L132.743 22.4884L132.781 24.0162C132.834 25.3221 133.241 26.4451 134.003 27.3854C134.79 28.2995 135.92 28.7565 137.391 28.7565Z" fill="#1A1A1A"/>
<path d="M157.611 32.9484C154.539 32.9484 152.161 32.1649 150.481 30.5977C148.8 29.0046 147.894 26.8369 147.763 24.0946L147.723 22.3709L147.763 20.6471C147.894 17.931 148.813 15.7762 150.52 14.1831C152.228 12.59 154.591 11.7934 157.611 11.7934C160.633 11.7934 162.996 12.59 164.703 14.1831C166.41 15.7762 167.33 17.931 167.461 20.6471C167.488 20.9605 167.5 21.5351 167.5 22.3709C167.5 23.2066 167.488 23.7812 167.461 24.0946C167.33 26.8369 166.424 29.0046 164.743 30.5977C163.061 32.1649 160.685 32.9484 157.611 32.9484ZM157.611 29.07C159.004 29.07 160.08 28.639 160.843 27.7771C161.604 26.8891 162.024 25.5964 162.103 23.8987C162.129 23.6376 162.143 23.1282 162.143 22.3709C162.143 21.6135 162.129 21.1042 162.103 20.843C162.024 19.1454 161.604 17.8656 160.843 17.0037C160.08 16.1159 159.004 15.6719 157.611 15.6719C156.22 15.6719 155.143 16.1159 154.381 17.0037C153.62 17.8656 153.199 19.1454 153.12 20.843L153.081 22.3709L153.12 23.8987C153.199 25.5964 153.62 26.8891 154.381 27.7771C155.143 28.639 156.22 29.07 157.611 29.07Z" fill="#1A1A1A"/>
</svg>