<?xml version="1.0" encoding="utf-8"?>
<!-- Generator: Adobe Illustrator 18.0.0, SVG Export Plug-In . SVG Version: 6.00 Build 0)  -->
<!DOCTYPE svg PUBLIC "-//W3C//DTD SVG 1.1//EN" "http://www.w3.org/Graphics/SVG/1.1/DTD/svg11.dtd">
<svg version="1.1" id="Layer_1" xmlns="http://www.w3.org/2000/svg" xmlns:xlink="http://www.w3.org/1999/xlink" x="0px" y="0px"
	 width="363.1px" height="60px" viewBox="0 0 363.1 60" enable-background="new 0 0 363.1 60" xml:space="preserve">
<path fill="#0006FF" d="M8.1,39.8V60H0V0.3h7.3l0.4,4.2l4-2.7C13.5,0.6,15.6,0,18.1,0h6c7,0,10.8,3.9,10.8,10.8v22.5
	c0,6.9-3.8,10.8-10.8,10.8h-6c-2.2,0-4.3-0.6-6.4-1.9L8.1,39.8z M22.5,36.9c2.8,0,4.3-1.5,4.3-4.3V11.4c0-2.8-1.5-4.3-4.3-4.3H18
	c-1.5,0-3,0.4-4.5,1.4L8.1,12V32l5.4,3.5c1.5,0.9,2.9,1.4,4.5,1.4H22.5z"/>
<path fill="#0006FF" d="M65.4,41.8c-2.2,1.5-4.5,2.2-6.8,2.2h-5.1c-6.6,0-10.7-3.4-10.7-9.6V29c0-5.9,3.6-9.2,10.8-10l15-1.7v-6.4
	c0-2.8-1.5-4.3-4.5-4.3H56c-3,0-4.5,1.5-4.5,4.3v2.8h-7.8v-2.4C43.7,4,47.9,0,55.5,0h9.8c7.3,0,11.4,4,11.4,11.1v32.5h-7.2L69,39.3
	L65.4,41.8z M59.3,37.4c1.4,0,2.8-0.4,4.3-1.4l5.1-3.3v-9L55,25.4c-3,0.3-4.2,1.3-4.2,4v4.4c0,2.7,1.1,3.6,4,3.6H59.3z"/>
<path fill="#0006FF" d="M86.9,60v-7h5.3c1.8,0,3.1-1,4-3.2l2.2-5.1l-13-28.1c-0.8-1.5-1.1-3.1-1.1-4.8V0.3h8.1v10.6
	c0,1.4,0.3,2.7,0.8,4l9,20.4l8.4-20.4c0.5-1.3,0.8-2.6,0.8-4V0.3h7.8v11.5c0,1.2-0.3,2.8-1.1,4.8l-14.3,34.1
	c-2.8,6.6-5,9.2-10.2,9.2H86.9z"/>
<path fill="#0006FF" d="M138.6,44c-7.8,0-12-4.1-12-12.1V12.1c0-7.9,4.1-12.1,12-12.1h9.7c7.6,0,11.8,4.1,11.8,12.1v2.8h-7.9v-3.4
	c0-3-1.5-4.5-4.5-4.5h-8.5c-3,0-4.5,1.5-4.5,4.5v20.9c0,3,1.5,4.5,4.5,4.5h8.5c3,0,4.5-1.5,4.5-4.5v-4.3h7.9v3.8
	c0,7.9-4.2,12.1-11.8,12.1H138.6z"/>
<path fill="#0006FF" d="M180,44c-7.7,0-11.7-4.1-11.7-12.1V12.1C168.2,4.2,172.3,0,180,0h20.5c7.5,0,11.7,4.1,11.7,12.1V32
	c0,7.9-4.2,12.1-11.7,12.1H180z M199.9,37.1c2.8,0,4.4-1.7,4.4-4.5V11.4c0-3-1.4-4.5-4.4-4.5h-19.3c-3,0-4.4,1.5-4.4,4.5v21.3
	c0,3,1.4,4.5,4.4,4.5H199.9z"/>
<path fill="#0006FF" d="M229.8,43.6h-8.1V0.3h7.3l0.5,5.3l4.6-3.8c1.6-1.3,3.7-1.9,6.4-1.9h6.2v7.1h-5.9c-1.6,0-3.2,0.4-4.5,1.4
	l-6.5,5.5V43.6z"/>
<path fill="#0006FF" d="M284.6,32.3c0,7.7-4.2,11.7-11.9,11.7h-10c-7.8,0-12-4.1-12-12.1V12.1c0-7.9,4.1-12.1,12-12.1h10
	c7.7,0,11.9,4.1,11.9,12.1v12.1h-25.8V33c0,3,1.5,4.5,4.5,4.5h9c3,0,4.5-1.5,4.5-4.5V30h7.9V32.3z M258.8,17.7h18V11
	c0-3-1.5-4.5-4.5-4.5h-9c-3,0-4.5,1.5-4.5,4.5V17.7z"/>
<path fill="#FFD400" d="M301.4,43.6V0.3h8.1v43.3H301.4z"/>
<path fill="#FFD400" d="M330.9,44c-7.7,0-11.7-4.1-11.7-12.1V12.1c0-7.9,4.1-12.1,11.7-12.1h20.5c7.5,0,11.7,4.1,11.7,12.1V32
	c0,7.9-4.2,12.1-11.7,12.1H330.9z M350.8,37.1c2.8,0,4.4-1.7,4.4-4.5V11.4c0-3-1.4-4.5-4.4-4.5h-19.3c-3,0-4.4,1.5-4.4,4.5v21.3
	c0,3,1.4,4.5,4.4,4.5H350.8z"/>
<rect x="186.8" y="18.6" fill="#FFD400" width="6.8" height="6.8"/>
<rect x="337.8" y="18.6" fill="#0006FF" width="6.7" height="6.8"/>
</svg>
