<?xml version="1.0" encoding="UTF-8"?>
<!DOCTYPE svg  PUBLIC '-//W3C//DTD SVG 1.1//EN'  'http://www.w3.org/Graphics/SVG/1.1/DTD/svg11.dtd'>
<svg enable-background="new 0 0 990 300" version="1.1" viewBox="0 0 990 300" xml:space="preserve" xmlns="http://www.w3.org/2000/svg">

	<path d="m824.04 54.039c15.601 0 30.443 3.5742 43.763 9.9678 2.0889 0.9424 4.1914 2.0703 6.2734 3.1992l-9.1328 8.0898-13.691-14.107-23.592 20.688-13.893-14.861-43.382 38.56 27.774 30.283-10.843 9.4023 27.402 30.283-10.844 9.3984 39.197 43.074 23.199-21.067 20.178 22.577c-3.999 3.0098-8.375 6.0254-13.126 8.6543-14.463 8.0869-31.209 12.78-49.092 12.78-54.992 0-99.698-44.192-99.698-98.546-0.1942-53.986 44.52-98.377 99.506-98.377zm-18.269 92.354 23.784-21.067 21.314 23.511-23.789 21.065-21.31-23.509zm16.938 40.629 23.591-21.254 21.502 23.509-23.785 21.068-21.308-23.323zm-33.862-80.69 23.777-21.067 21.31 23.511-23.785 21.066-21.302-23.51zm43.562-11.289 17.696-15.799 15.986 17.493-17.696 15.985-15.986-17.68zm31.588 72.415 17.69-15.8 15.985 17.676-17.697 15.81-15.978-17.686zm15.6 35.553 17.697-15.803 15.973 17.492-17.69 15.983-15.98-17.673zm7.2315-81.259 11.795-10.534 10.651 11.666-11.793 10.53-10.653-11.662zm-15.222-34.797 11.796-10.719 10.659 11.848-11.805 10.533-10.65-11.662zm30.251 69.597 11.795-10.533 10.845 11.662-11.982 10.53-10.657-11.659zm-53.083-26.146 17.697-15.8 15.978 17.489-17.69 15.803-15.986-17.492z" fill="#036CB5"/>
	
		<g transform="translate(0 2.6088)">
			
			<defs>
				<filter id="b" x="65.5" y="92.345" width="104" height="90.915" filterUnits="userSpaceOnUse">
					<feColorMatrix values="1 0 0 0 0  0 1 0 0 0  0 0 1 0 0  0 0 0 1 0"/>
				</filter>
			</defs>
			<mask id="a" x="65.5" y="92.3454" width="103.9951" height="90.915" maskUnits="userSpaceOnUse">
				<g filter="url(#b)">
					<polygon points="65.5 92.345 65.5 183.26 169.5 183.26 169.5 92.345" fill="#fff"/>
				</g>
			</mask>
			<polygon points="117.69 119.27 116.79 119.27 99.944 183.26 86.172 183.26 65.5 92.345 79.789 92.345 94.081 160.18 94.973 160.18 111.56 92.345 122.92 92.345 140.65 160.18 141.55 160.18 154.56 92.345 169.5 92.345 148.82 183.26 135.04 183.26" fill="#036CB5" mask="url(#a)"/>
		</g>
		<path d="m187.62 147.16h29.214c-0.6338-13.46-7.145-18.841-14.033-18.841-7.7832 0-13.784 6.0254-15.182 18.841m39.421 24.114v9.7471c-5.7407 3.333-13.393 5.8994-22.585 5.8994-21.431 0-30.234-13.336-30.234-33.594 0-19.499 9.8228-33.604 28.963-33.604 15.945 0 25.776 10.394 25.776 31.29v4.7451h-41.597c0 15.383 6.2485 22.181 19.396 22.181 6.8883 1e-4 13.268-2.4404 20.281-6.664" fill="#036CB5"/>
		<path d="m258.64 176.64c4.084 1.7949 8.5532 2.0605 11.748 2.0605 9.4399 0 16.578-5.9072 16.578-26.675 0-16.285-5.8687-21.543-14.414-21.543-5.1079 0-8.8066 1.415-13.912 4.2305v41.927zm0.1343-51.413c3.8184-2.0449 10.325-4.7471 17.218-4.7471 15.824 0 24.374 11.027 24.374 31.546 0 23.98-11.486 35.649-29.978 35.649-6.7681 0-17.23-2.1807-24.891-6.293v-89.495l13.276-3.2012v36.541z" fill="#036CB5"/>
		<polygon points="357.8 166.58 358.44 166.58 385.74 94.898 401.57 94.898 401.57 185.82 387.79 185.82 387.79 119.9 386.64 119.9 360.6 185.82 352.44 185.82 326.41 121.45 325.26 121.45 325.26 185.82 313.78 185.82 313.78 94.898 329.22 94.898" fill="#036CB5"/>
		<path d="m457.87 153.33c0-17.31-7.0127-24.615-15.689-24.615-8.4185 0-15.698 7.3057-15.698 24.615 0 17.569 6.6431 24.615 15.698 24.615s15.689-7.0458 15.689-24.615m-44.779 0c0-22.448 12.252-33.601 29.09-33.601 16.848 0 29.094 11.152 29.094 33.601 0 21.923-11.61 33.598-29.094 33.598-17.48 0-29.09-11.675-29.09-33.598" fill="#036CB5"/>
		<path d="m481.37 129.22c5.7412-3.4678 17.868-9.4961 32.538-9.4961 15.31 0 21.042 6.0283 21.042 19.232v46.426h-13.261v-43.473c0-10.128-4.9678-11.923-11.483-11.923-5.0977 0-11.613 2.3115-15.565 4.6191v50.776h-13.27v-56.162h-1e-4z" fill="#036CB5"/>
		<path d="m563.03 147.16h29.217c-0.6279-13.46-7.1426-18.841-14.033-18.841-7.7852 0-13.774 6.0254-15.184 18.841m39.422 24.114v9.7471c-5.7383 3.333-13.394 5.8994-22.583 5.8994-21.424 0-30.233-13.336-30.233-33.594 0-19.499 9.8193-33.604 28.961-33.604 15.955 0 25.784 10.394 25.784 31.29v4.7451h-41.602c0 15.383 6.2529 22.181 19.396 22.181 6.8828 1e-4 13.272-2.4404 20.277-6.664" fill="#036CB5"/>
		<path d="m657.38 119.73h13.656l-23.097 64.106c-6.3887 17.697-14.163 26.931-28.834 26.931v-10.508c8.6816 0 14.032-6.9277 17.102-16.423l-24.5-64.106h14.038l16.331 47.188h0.7656l14.538-47.188z" fill="#036CB5"/>
		
			<path d="m203.32 244.97v-5.5371c4.7314 2.4023 9.2339 3.6084 13.5 3.6084 3.5532 0 6.2754-0.6514 8.1772-1.9668 1.9023-1.3066 2.855-3.0732 2.855-5.3066 0-2.2324-0.7822-3.9072-2.3472-5.0215-1.561-1.1123-4.479-2.4902-8.7471-4.1221-1.4814-0.5566-2.4277-0.9189-2.855-1.0918-0.4204-0.168-1.2446-0.5156-2.4722-1.0283-1.2241-0.5117-2.0269-0.9014-2.4058-1.1572-0.3818-0.2646-1.0239-0.6523-1.9346-1.1602-0.9077-0.5205-1.52-0.9785-1.8389-1.3789-0.3135-0.4121-0.7495-0.9326-1.2993-1.5537-0.5483-0.6191-0.9194-1.2344-1.1104-1.8613-0.1885-0.6211-0.3706-1.3398-0.5376-2.1572-0.1675-0.8184-0.2534-1.6953-0.2534-2.6396 0-3.6484 1.3433-6.5801 4.0249-8.8145 2.686-2.2266 6.3916-3.3428 11.126-3.3428 4.1821 0 8.3481 0.7705 12.486 2.3164v5.8525c-4.0137-1.9766-8.0283-2.9551-12.044-2.9551-2.8311 0-4.9443 0.5908-6.3389 1.791s-2.0928 2.7881-2.0928 4.7646c0 2.1035 0.6982 3.6982 2.0928 4.7949 1.3945 1.1006 3.8896 2.3125 7.4824 3.6387 6.1675 2.2744 10.416 4.333 12.738 6.1807 2.3262 1.8389 3.4878 4.5928 3.4878 8.2344 0 3.8223-1.5952 6.9463-4.7861 9.3701s-7.5737 3.6367-13.154 3.6367c-5.111 1e-4 -9.6975-1.0351-13.754-3.0937zm64.498 2.1192h-6.021l-0.4448-3.7324c-3.6372 3.0068-7.2695 4.5107-10.904 4.5107-3.0415 0-5.3979-0.8242-7.0659-2.4805-1.6724-1.6514-2.5059-3.7373-2.5059-6.2754 0-1.332 0.2422-2.6045 0.729-3.8281 0.4868-1.2246 1.29-2.4111 2.4087-3.5693 1.1196-1.1602 2.8096-2.0908 5.0698-2.8018 2.2603-0.7119 4.9775-1.0635 8.1479-1.0635h3.9312v-1.7373c0-2.874-0.5283-4.8311-1.5854-5.8877-1.0591-1.0518-2.833-1.5771-5.3252-1.5771-3.0425 0-6.7837 1.2598-11.219 3.7979v-5.1475c4.5645-2.1016 9.042-3.1611 13.436-3.1611 4.2666 0 7.228 0.8848 8.8735 2.6475 1.6504 1.7549 2.4746 4.4189 2.4746 7.9717v22.334zm-6.5913-14.737h-3.3623c-6.9316 0-10.396 2.083-10.396 6.2461 0 1.4639 0.4629 2.5146 1.394 3.1836 0.9316 0.667 2.0938 0.9961 3.4897 0.9961 1.771 0 3.4844-0.4297 5.1323-1.29 1.6479-0.8525 2.8965-1.8389 3.7417-2.9551v-6.1807zm16.892 27.613v-41.121c1.8604-1.4199 4.0547-2.5615 6.5928-3.418 2.5371-0.8516 5.0264-1.29 7.481-1.29 8.7866 0 13.184 5.3877 13.184 16.161 0 5.5771-1.1406 9.8467-3.4243 12.802-2.2813 2.9639-5.5532 4.4375-9.8252 4.4375-2.959 0-5.4312-0.751-7.4155-2.2432v14.672h-6.5929zm6.5293-38.94v19.508c0.8452 0.8115 1.9106 1.416 3.2002 1.8262 1.29 0.4072 2.4214 0.6104 3.3921 0.6104 2.3228 0 4.1528-0.9063 5.4844-2.7295 1.3311-1.8271 1.9937-5.1406 1.9937-9.9424 0-3.9043-0.6826-6.7656-2.0566-8.5576-1.3735-1.8086-3.1611-2.7051-5.3589-2.7051-2.4898 0-4.7081 0.6611-6.6549 1.9902zm35.848-6.5576v32.622h-6.5923v-31.017l6.5923-1.6055zm-7.6075-9.4658c0-1.1582 0.4326-2.1738 1.2979-3.0586 0.8691-0.8789 1.873-1.3203 3.0098-1.3203 1.144 0 2.1475 0.4414 3.0156 1.3203 0.8662 0.8848 1.2988 1.9004 1.2988 3.0586s-0.4326 2.1807-1.2988 3.0635c-0.8682 0.8711-1.8716 1.3125-3.0156 1.3125-1.1367 0-2.1406-0.4414-3.0098-1.3125-0.8652-0.8829-1.2979-1.9053-1.2979-3.0635zm32.297 38.355c3.0449 0 6.4009-1.1162 10.079-3.3428v4.8906c-3.3794 1.9766-7.1201 2.9629-11.219 2.9629-5.1558 0-8.9473-1.4814-11.377-4.4434-2.4307-2.9629-3.6455-7.1006-3.6455-12.421 0-5.0654 1.2476-9.1455 3.7378-12.225 2.4961-3.0889 6.043-4.6426 10.649-4.6426 4.0605 0 7.2046 1.334 9.4497 3.9971 2.2388 2.6641 3.3555 6.5625 3.3555 11.71v2.3848h-20.663c0 3.8203 0.7822 6.6338 2.3438 8.4248 1.5643 1.8096 3.9945 2.7041 7.2904 2.7041zm-1.9673-24.901c-1.9829 0-3.6543 0.7949-5.0068 2.376-1.3501 1.5898-2.1973 3.9541-2.5347 7.0771h14.516c-0.1704-3.1709-0.9077-5.5352-2.2188-7.1006-1.3075-1.5703-2.893-2.3525-4.7553-2.3525zm21.394 28.634v-28.185c5.1978-3.1777 10.586-4.7686 16.167-4.7686 3.7612 0 6.4424 0.7783 8.0483 2.3242 1.6064 1.5459 2.4092 3.9893 2.4092 7.333v23.296h-6.5913v-21.814c0-2.3584-0.4868-3.9482-1.458-4.7588-0.9727-0.8203-2.3872-1.2246-4.248-1.2246-2.5342 0-5.1133 0.7754-7.7319 2.3184v25.48h-6.5953zm43.201-31.4h10.016l-1.5854 4.377h-8.4307v16.985c0 4.292 1.8179 6.4365 5.4512 6.4365 1.3945 0 2.8096-0.2979 4.2515-0.9004v4.1152c-1.9878 0.7744-4.356 1.1641-7.1025 1.1641-3.1699 0-5.4937-0.9141-6.9741-2.7432-1.478-1.8154-2.2183-4.21-2.2183-7.1777v-26.509l6.5923-4.832v9.0839zm22.92-1.2226v32.622h-6.5947v-31.017l6.5947-1.6055zm-7.6074-9.4658c0-1.1582 0.4336-2.1738 1.2949-3.0586 0.8662-0.8789 1.8696-1.3203 3.0137-1.3203 1.1396 0 2.146 0.4414 3.0093 1.3203 0.8682 0.8848 1.3013 1.9004 1.3013 3.0586s-0.4331 2.1807-1.3013 3.0635c-0.8633 0.8711-1.8696 1.3125-3.0093 1.3125-1.144 0-2.1475-0.4414-3.0137-1.3125-0.8614-0.8829-1.2949-1.9053-1.2949-3.0635zm52.485 11.715v5.1416c-3.1704-2.1426-6.3828-3.2109-9.6338-3.2109-1.6484 0-3.0005 0.3213-4.0601 0.9668-1.0547 0.6387-1.5835 1.6729-1.5835 3.0811 0 1.3379 0.5796 2.3965 1.7417 3.1895 1.1631 0.7959 2.9912 1.6006 5.4868 2.4102 1.3945 0.4727 2.4385 0.8398 3.1343 1.0957 0.6997 0.2637 1.6162 0.6934 2.7593 1.29 1.1401 0.6035 1.9976 1.1982 2.5669 1.8037 0.5708 0.6025 1.0879 1.3916 1.5542 2.3818 0.4648 0.9863 0.6943 2.0771 0.6943 3.2793 0 2.9629-1.1724 5.3213-3.5142 7.0811-2.3462 1.7588-5.4863 2.6416-9.4136 2.6416-4.397 0-8.0547-0.9443-10.969-2.8379v-5.0156c3.7178 2.2266 7.1206 3.3428 10.208 3.3428 4.645 0 6.9707-1.54 6.9707-4.6328 0-0.5977-0.1377-1.1602-0.4121-1.6719-0.2749-0.5146-0.5913-0.9326-0.9497-1.2559-0.3608-0.3213-0.9429-0.6846-1.7461-1.0986-0.8037-0.3994-1.4775-0.6982-2.0278-0.8945-0.5483-0.1914-1.4146-0.5029-2.5967-0.9307-1.7344-0.6445-3.1074-1.2002-4.123-1.6748-1.0156-0.4756-2.0264-1.085-3.0415-1.833-1.0161-0.751-1.7568-1.6475-2.2183-2.6738-0.4639-1.0264-0.6968-2.2529-0.6968-3.667 0-1.8027 0.4214-3.3428 1.2666-4.627 0.8447-1.2959 1.9458-2.2178 3.2954-2.7734 1.3525-0.5596 2.5889-0.9482 3.7085-1.1563 1.1216-0.2217 2.23-0.3311 3.3311-0.3311 3.5929-1e-4 7.0143 0.8603 10.268 2.58zm35.022 30.373h-6.0205l-0.4463-3.7324c-3.6367 3.0068-7.2676 4.5107-10.9 4.5107-3.0425 0-5.3989-0.8242-7.0684-2.4805-1.6714-1.6514-2.5039-3.7373-2.5039-6.2754 0-1.332 0.2422-2.6045 0.7295-3.8281 0.4854-1.2246 1.2886-2.4111 2.4087-3.5693 1.1226-1.1602 2.8086-2.0908 5.0693-2.8018 2.2622-0.7119 4.979-1.0635 8.144-1.0635h3.9346v-1.7373c0-2.874-0.5313-4.8311-1.582-5.8877-1.0635-1.0518-2.8369-1.5771-5.3262-1.5771-3.0449 0-6.7861 1.2598-11.222 3.7979v-5.1475c4.5654-2.1016 9.0425-3.1611 13.437-3.1611 4.2705 0 7.2246 0.8848 8.874 2.6475 1.6475 1.7549 2.4727 4.4189 2.4727 7.9717v22.334h1e-4zm-6.5869-14.737h-3.3633c-6.9316 0-10.398 2.083-10.398 6.2461 0 1.4639 0.4653 2.5146 1.394 3.1836 0.9316 0.667 2.0903 0.9961 3.4878 0.9961 1.7734 0 3.4805-0.4297 5.1348-1.29 1.6475-0.8525 2.8965-1.8389 3.7441-2.9551v-6.1807h1e-4zm23.167-16.662h10.015l-1.5889 4.377h-8.4258v16.985c0 4.292 1.8154 6.4365 5.4453 6.4365 1.3965 0 2.8076-0.2979 4.251-0.9004v4.1152c-1.9873 0.7744-4.3506 1.1641-7.1055 1.1641-3.1641 0-5.4873-0.9141-6.9668-2.7432-1.4805-1.8154-2.2227-4.21-2.2227-7.1777v-26.509l6.5986-4.832v9.0839z" fill="#B6B6B6"/>
		
	
	<rect width="990" height="300" fill="none"/>


</svg>
