<svg xmlns="http://www.w3.org/2000/svg" viewBox="0 0 310.705 45.4" width="311" height="46"><path d="M246.505 28.8c0 9.9-6.9 16.5-17 16.5-10.2 0-17.1-6.7-17.1-16.5s6.9-16.4 17.1-16.4c10.1 0 17 6.6 17 16.4zm-26.2.1c0 5.8 3.7 9.8 9.2 9.8 5.3 0 9.1-4 9.1-9.8s-3.7-9.8-9.1-9.8c-5.5.1-9.2 4-9.2 9.8zm61.7-16.2v32.4h-7.9v-6c-2.2 4.3-6.1 6.3-11.2 6.3-7.3 0-11.7-4.8-11.7-12.4V12.7h7.9v18c0 4.5 2.6 7.3 7 7.3 5.1-.1 8.1-4.1 8.1-9.3v-16zm28.7 30.3c-2.5 1.5-5.3 2.4-8.1 2.4-5.3 0-9.5-3-9.5-9.7v-16h-4.5l-.1-5.7h4.6V5.1h7.8V14h9.3v5.7h-9.3v14.6c0 3.1 1.3 4.1 3.4 4.1 1.3 0 2.8-.5 4.6-1.3z" fill="#11ca79"/><g fill="#3474ff"><path d="M212.405 45.2l-30.2-30.1v11.1l19 19z"/><path d="M182.205 0h7.9v45.2h-7.9z"/></g><path d="M184.505 28.5l5.6 5.6 21.8-21.8h-11.1l-10.7 10.7-7.9-7.9v11.1z" fill="#11ca79"/><path d="M31.005 45H.705v-5.8l14.3-15.4c2.1-2.4 3.5-4.4 4.4-6s1.3-3.1 1.3-4.5c0-1.9-.5-3.4-1.5-4.6s-2.4-1.8-4.3-1.8c-2 0-3.6.7-4.7 2.1-.9 1.4-1.5 3.3-1.5 5.6h-8.6l-.1-.2c-.1-4 1.2-7.4 3.9-10.1 2.7-2.8 6.4-4.2 11-4.2s8.1 1.2 10.8 3.6c2.6 2.4 3.9 5.5 3.9 9.5a13.09 13.09 0 0 1-2.2 7.4c-1.5 2.3-3.9 5.2-7.3 8.9l-7.9 8.6.1.2h18.6V45zm21.1-25.7c-5.2 0-8.8 3.9-8.8 9.6 0 5.8 3.6 9.7 8.8 9.7 3.7 0 6.8-1.3 8.7-3.8l4.9 4.1c-2.8 4.1-7.7 6.5-14 6.5-9.7 0-16.3-6.7-16.3-16.4 0-9.9 6.7-16.5 16.4-16.5 5.9 0 10.6 2.2 13.5 5.9l-4.8 4.5c-1.9-2.2-4.8-3.6-8.4-3.6zm52.2 5.5V45h-7.9V27.1c0-4.5-2.7-7.3-7.2-7.3-5.3.1-8.5 4-8.5 9.3V45h-7.9V.2h7.9v18.7c2.3-4.4 6.3-6.4 11.7-6.5 7.3 0 11.9 4.8 11.9 12.4zm37.8 6.8h-23.9c1 4.6 4.5 7.4 9.3 7.4 3.3 0 6.4-1.3 8.7-3.6l4.2 4.4c-3.2 3.5-7.9 5.6-13.6 5.6-10 0-16.6-6.7-16.6-16.4 0-9.9 6.8-16.5 16.4-16.5 11.3-.1 16.2 7.4 15.5 19.1zm-7.2-5.3c-.2-4.8-3.4-7.8-8.3-7.8-4.7 0-7.9 3-8.6 7.8zm27.8-7c-5.2 0-8.8 3.9-8.8 9.6 0 5.8 3.6 9.7 8.8 9.7 3.7 0 6.8-1.3 8.7-3.8l4.9 4.1c-2.8 4.1-7.7 6.5-14 6.5-9.7 0-16.3-6.7-16.3-16.4 0-9.9 6.7-16.5 16.4-16.5 5.9 0 10.6 2.2 13.5 5.9l-4.8 4.5c-2-2.2-4.9-3.6-8.4-3.6z" fill="#3474ff"/></svg>