<?xml version="1.0" encoding="UTF-8"?>
<svg version="1.1" viewBox="0 0 127 28" xmlns="http://www.w3.org/2000/svg">
<title>Group 9</title>
<desc>Created with Sketch.</desc>
<g fill="none" fill-rule="evenodd">
<g transform="translate(-140 -23)">
<g transform="translate(140 23)">
<path d="m51.282 21c-0.11458-0.22201-0.21484-0.58366-0.30078-1.085-0.83073 0.86654-1.8477 1.2998-3.0508 1.2998-1.1673 0-2.1198-0.333-2.8574-0.99902-0.73763-0.66602-1.1064-1.4896-1.1064-2.4707 0-1.2389 0.46012-2.1896 1.3804-2.8521s2.2362-0.99365 3.9478-0.99365h1.6006v-0.7627c0-0.60157-0.16829-1.0832-0.50488-1.4448-0.33659-0.36166-0.84863-0.54248-1.5361-0.54248-0.5944 0-1.0814 0.1486-1.4609 0.4458-0.37956 0.2972-0.56934 0.67497-0.56934 1.1333h-2.6104c0-0.63737 0.21126-1.2336 0.63379-1.7886 0.42253-0.55502 0.99723-0.99007 1.7241-1.3052 0.72689-0.31511 1.5379-0.47266 2.4331-0.47266 1.3607 0 2.4456 0.34196 3.2549 1.0259 0.80925 0.68392 1.2246 1.6453 1.2461 2.8843v5.2422c0 1.0456 0.14681 1.8799 0.44043 2.5029v0.18262h-2.6641zm-2.8682-1.8799c0.51563 0 1.0008-0.12532 1.4556-0.37598s0.79671-0.58724 1.0259-1.0098v-2.1914h-1.4072c-0.9668 0-1.6937 0.16829-2.1807 0.50488-0.48698 0.33659-0.73047 0.81282-0.73047 1.4287 0 0.5013 0.1665 0.90055 0.49951 1.1978 0.33301 0.2972 0.77881 0.4458 1.3374 0.4458zm10.232-9.7432 0.075195 1.3428c0.85938-1.0384 1.9873-1.5576 3.3838-1.5576 2.4206 0 3.6523 1.3857 3.6953 4.1572v7.6807h-2.6104v-7.5303c0-0.73763-0.15934-1.2837-0.47803-1.6382-0.31869-0.35449-0.83968-0.53174-1.563-0.53174-1.0527 0-1.8369 0.47623-2.3525 1.4287v8.2715h-2.6104v-11.623h2.46zm13.863 7.8848 2.3633-7.8848h2.7822l-4.6191 13.385c-0.70899 1.9551-1.9121 2.9326-3.6094 2.9326-0.37956 0-0.7985-0.064452-1.2568-0.19336v-2.0195l0.49414 0.032227c0.65886 0 1.1548-0.11995 1.4878-0.35986 0.33301-0.23991 0.59619-0.64274 0.78955-1.2085l0.37598-0.99902-4.082-11.569h2.8145l2.46 7.8848zm6.462 0.98828c0.48698 0 0.86295 0.13786 1.1279 0.41357s0.39746 0.62125 0.39746 1.0366c0 0.40821-0.13249 0.74658-0.39746 1.0151-0.26498 0.26856-0.64095 0.40283-1.1279 0.40283-0.4655 0-0.83431-0.13249-1.1064-0.39746s-0.4082-0.60514-0.4082-1.0205c0-0.41537 0.13249-0.7609 0.39746-1.0366s0.63737-0.41357 1.1172-0.41357zm9.1368 1.8799c0.89519 0 1.6453-0.25244 2.2505-0.75732 0.60515-0.50489 0.93278-1.1584 0.98291-1.9604h1.2354c-0.035808 0.70899-0.25781 1.3553-0.66602 1.939-0.40821 0.58366-0.95068 1.0402-1.6274 1.3696-0.67676 0.32943-1.4019 0.49414-2.1753 0.49414-1.5254 0-2.7339-0.52994-3.6255-1.5898s-1.3374-2.485-1.3374-4.2754v-0.38672c0-1.1458 0.20052-2.1592 0.60156-3.04 0.40104-0.88086 0.97574-1.5612 1.7241-2.041 0.74838-0.47982 1.6239-0.71973 2.6265-0.71973 1.2747 0 2.3257 0.37955 3.1528 1.1387 0.82715 0.75912 1.2694 1.7581 1.3267 2.9971h-1.2354c-0.057292-0.90951-0.38493-1.6436-0.98291-2.2021-0.59798-0.5586-1.3517-0.83789-2.2612-0.83789-1.1602 0-2.0607 0.41894-2.7017 1.2568-0.64095 0.83789-0.96143 2.0124-0.96143 3.5234v0.37598c0 1.4824 0.32047 2.639 0.96143 3.4697 0.64095 0.83073 1.5451 1.2461 2.7124 1.2461zm14.356 0.87012c-0.12891-0.36524-0.21126-0.90592-0.24707-1.6221-0.45117 0.58724-1.0259 1.0402-1.7241 1.3589-0.69825 0.31869-1.4377 0.47803-2.2183 0.47803-1.1172 0-2.0213-0.31152-2.7124-0.93457-0.69108-0.62305-1.0366-1.4108-1.0366-2.3633 0-1.1315 0.47086-2.0267 1.4126-2.6855 0.94174-0.65886 2.2541-0.98828 3.937-0.98828h2.3311v-1.3213c0-0.83073-0.25602-1.4842-0.76807-1.9604-0.51205-0.47624-1.2586-0.71436-2.2397-0.71436-0.89519 0-1.6364 0.22916-2.2236 0.6875s-0.88086 1.0098-0.88086 1.6543l-1.2891-0.010742c0-0.92383 0.42968-1.7241 1.2891-2.4009s1.9157-1.0151 3.1689-1.0151c1.2962 0 2.3185 0.32405 3.0669 0.97217 0.74838 0.64812 1.1333 1.5522 1.1548 2.7124v5.5c0 1.1244 0.11816 1.9658 0.35449 2.5244v0.12891h-1.375zm-4.0391-0.92383c0.85938 0 1.6274-0.20768 2.3042-0.62305s1.1691-0.97037 1.4771-1.665v-2.5566h-2.2988c-1.2819 0.014323-2.2845 0.24886-3.0078 0.70361s-1.085 1.0796-1.085 1.8745c0 0.6517 0.2417 1.1924 0.7251 1.6221 0.4834 0.42969 1.1118 0.64453 1.8853 0.64453zm15.43-2.0303c0-0.63737-0.25602-1.1494-0.76807-1.5361-0.51205-0.38672-1.2837-0.68929-2.3149-0.90771s-1.8315-0.46907-2.4009-0.75195c-0.56934-0.28288-0.99186-0.62842-1.2676-1.0366-0.27572-0.40821-0.41357-0.90234-0.41357-1.4824 0-0.91667 0.38313-1.674 1.1494-2.272 0.76628-0.59798 1.7474-0.89697 2.9434-0.89697 1.2962 0 2.3364 0.32047 3.1206 0.96143 0.78418 0.64095 1.1763 1.477 1.1763 2.5083h-1.2891c0-0.68034-0.28466-1.2461-0.854-1.6973s-1.2873-0.67676-2.1538-0.67676c-0.84506 0-1.5236 0.18799-2.0356 0.56396-0.51205 0.37598-0.76807 0.86474-0.76807 1.4663 0 0.58008 0.21305 1.0295 0.63916 1.3481s1.2031 0.61051 2.3311 0.87549c1.1279 0.26498 1.973 0.54785 2.5352 0.84863 0.56218 0.30078 0.97933 0.66243 1.2515 1.085s0.4082 0.93457 0.4082 1.5361c0 0.98112-0.39567 1.7653-1.187 2.3525-0.79135 0.58724-1.8244 0.88086-3.0991 0.88086-1.3535 0-2.451-0.32763-3.2925-0.98291s-1.2622-1.4842-1.2622-2.4868h1.2891c0.050131 0.75196 0.36702 1.3374 0.95068 1.7563 0.58366 0.41895 1.3553 0.62842 2.3149 0.62842 0.89519 0 1.6185-0.19694 2.1699-0.59082s0.82715-0.8916 0.82715-1.4932zm5.4399-6.7031c0.42253-0.69466 0.96321-1.2318 1.6221-1.6113 0.65886-0.37956 1.3786-0.56934 2.1592-0.56934 1.2461 0 2.1735 0.35091 2.7822 1.0527 0.60873 0.70183 0.91667 1.7546 0.92383 3.1582v7.627h-1.2783v-7.6377c-0.007162-1.0384-0.22737-1.8118-0.66064-2.3203-0.43327-0.50847-1.1261-0.7627-2.0786-0.7627-0.79493 0-1.4985 0.24886-2.1108 0.74658s-1.0653 1.1691-1.3589 2.0142v7.96h-1.2783v-16.5h1.2783v6.8428z" fill="#1469EB"/>
<ellipse cx="13.661" cy="14" rx="13.661" ry="13.259" fill="#1469EB"/>
<rect transform="translate(13.603 18.355) rotate(180) translate(-13.603 -18.355)" x="10.846" y="16.379" width="5.5152" height="3.9529" fill="#fff"/>
<polygon points="13.661 3.2941 24.182 14.329 24.182 20.341 13.661 9.7176 3.1394 20.341 3.1394 14.329" fill="#fff"/>
</g>
</g>
</g>
</svg>
