<svg xmlns="http://www.w3.org/2000/svg" width="512" height="512"><path d="M115.565 299.593c7.262 60.052 32.708 85.972 110.37 99.558 50.294 8.798 73.598 11.154 119.232-4.872l30.576 94.623C321.61 524.097 301.1 512 232.84 512 77.023 512 0 408.8 0 253.553 0 106.092 93.573 0 240.26 0 391.51 0 486.12 100.31 468.486 299.816zm245.862-99.197c-7.262-62.944-53.114-94.304-117.433-94.304-60.584 0-109.963 31.36-126.562 94.304z" fill="#0f2e5b"/><path d="M507.6 431.762c0 86.667-132.823 86.667-132.823 0s132.823-86.667 132.823 0z" fill="#ff5039"/></svg>