<?xml version="1.0" encoding="UTF-8" standalone="no"?>
<svg
   width="29"
   height="30"
   viewBox="0 0 29 30"
   fill="none"
   version="1.1"
   id="svg97"
   sodipodi:docname="nebeusLogoBlack.f4cfa0d4.svg"
   inkscape:version="1.1.2 (0a00cf5339, 2022-02-04)"
   xmlns:inkscape="http://www.inkscape.org/namespaces/inkscape"
   xmlns:sodipodi="http://sodipodi.sourceforge.net/DTD/sodipodi-0.dtd"
   xmlns="http://www.w3.org/2000/svg"
   xmlns:svg="http://www.w3.org/2000/svg">
  <sodipodi:namedview
     id="namedview99"
     pagecolor="#ffffff"
     bordercolor="#666666"
     borderopacity="1.0"
     inkscape:pageshadow="2"
     inkscape:pageopacity="0.0"
     inkscape:pagecheckerboard="0"
     showgrid="false"
     inkscape:zoom="11.07438"
     inkscape:cx="62.486568"
     inkscape:cy="8.3074628"
     inkscape:window-width="2560"
     inkscape:window-height="1323"
     inkscape:window-x="1920"
     inkscape:window-y="272"
     inkscape:window-maximized="1"
     inkscape:current-layer="g88" />
  <g
     clip-path="url(#clip0_985_9723)"
     id="g90">
    <mask
       id="mask0_985_9723"
       maskUnits="userSpaceOnUse"
       x="0"
       y="0"
       width="130"
       height="30">
      <path
         d="M 130,0 H 0 v 30 h 130 z"
         fill="#ffffff"
         id="path71" />
    </mask>
    <g
       mask="url(#mask0_985_9723)"
       id="g88">
      <path
         d="m 118.365,22.7779 c 0.02,0.082 0.008,0.1684 -0.035,0.2418 -0.042,0.0733 -0.112,0.1281 -0.194,0.153 -0.702,0.2339 -1.436,0.3589 -2.178,0.3704 -1.295,0 -2.077,-0.6434 -2.107,-1.8327 h -0.075 c -0.544,0.5749 -1.202,1.0342 -1.935,1.3494 -0.733,0.3153 -1.524,0.4798 -2.325,0.4833 -2.127,0 -4.08,-1.3355 -4.08,-3.8408 v -6.6484 c 0,-0.346 -0.125,-0.7701 -0.533,-0.8432 l -1.037,-0.1998 c -0.046,-0.0031 -0.092,-0.0152 -0.133,-0.0355 -0.042,-0.0203 -0.079,-0.0485 -0.11,-0.0829 -0.03,-0.0344 -0.054,-0.0744 -0.068,-0.1177 -0.015,-0.0432 -0.021,-0.0889 -0.017,-0.1344 V 11.153 c -0.004,-0.0474 0.003,-0.0951 0.019,-0.1399 0.016,-0.0449 0.042,-0.086 0.075,-0.1207 0.033,-0.0348 0.073,-0.0625 0.118,-0.0814 0.045,-0.0189 0.093,-0.0286 0.141,-0.0284 l 3.986,-0.4436 c 0.05,-0.0075 0.101,-0.0051 0.15,0.0072 0.049,0.0122 0.095,0.034 0.135,0.0641 0.04,0.0301 0.073,0.0678 0.098,0.1108 0.025,0.043 0.04,0.0905 0.046,0.1396 v 7.9741 c 0,1.8327 1.041,2.7783 2.585,2.7783 1.545,0 2.741,-0.9456 2.741,-2.3591 v -6.0001 c 0,-0.346 -0.13,-0.7701 -0.533,-0.8432 l -1.042,-0.1998 c -0.046,-0.0031 -0.092,-0.0152 -0.133,-0.0355 -0.042,-0.0203 -0.079,-0.0485 -0.11,-0.0829 -0.03,-0.0344 -0.054,-0.0744 -0.068,-0.1177 -0.015,-0.0432 -0.021,-0.0889 -0.018,-0.1344 V 11.153 c -0.003,-0.0474 0.004,-0.0951 0.02,-0.1399 0.016,-0.0449 0.042,-0.086 0.075,-0.1207 0.033,-0.0348 0.073,-0.0625 0.118,-0.0814 0.044,-0.0189 0.093,-0.0286 0.141,-0.0284 l 3.986,-0.4436 c 0.05,-0.0075 0.101,-0.0051 0.151,0.0071 0.049,0.0122 0.095,0.0339 0.135,0.0639 0.041,0.03 0.075,0.0677 0.1,0.1108 0.025,0.043 0.041,0.0906 0.048,0.1399 v 10.1675 c 0,0.4874 0.229,0.7652 0.682,0.7652 0.217,-0.0046 0.431,-0.0458 0.633,-0.1218 0.047,-0.0147 0.098,-0.0181 0.147,-0.0101 0.049,0.0081 0.095,0.0274 0.135,0.0565 0.04,0.029 0.072,0.0669 0.094,0.1105 0.022,0.0437 0.033,0.0918 0.032,0.1404 z"
         fill="#151515"
         id="path74" />
      <path
         d="m 51.2694,23.269 c -0.0478,0.0055 -0.0963,3e-4 -0.1417,-0.0151 -0.0455,-0.0155 -0.0868,-0.0408 -0.1208,-0.0741 -0.034,-0.0333 -0.0599,-0.0737 -0.0757,-0.1182 -0.0158,-0.0445 -0.0211,-0.0919 -0.0156,-0.1386 v -0.4436 c -0.002,-0.0912 0.0304,-0.1799 0.0911,-0.2491 0.0607,-0.0693 0.1454,-0.1142 0.2378,-0.1262 l 1.1409,-0.2193 c 0.2292,-0.0536 0.4335,-0.273 0.4335,-0.7701 v -6.0001 c 0,-1.8376 -1.0911,-2.8027 -2.6905,-2.8027 -1.5993,0 -2.8399,0.9749 -2.8399,2.3543 v 6.4485 c 0,0.4874 0.2043,0.7165 0.4335,0.7701 l 1.1409,0.2193 c 0.0925,0.012 0.1771,0.0569 0.2378,0.1262 0.0607,0.0692 0.0931,0.1579 0.0911,0.2491 v 0.4436 c 0.0056,0.0467 2e-4,0.0941 -0.0156,0.1386 -0.0158,0.0445 -0.0416,0.0849 -0.0757,0.1182 -0.034,0.0333 -0.0753,0.0586 -0.1208,0.0741 -0.0454,0.0154 -0.0939,0.0206 -0.1417,0.0151 h -5.9787 c -0.0478,0.0055 -0.0963,3e-4 -0.1418,-0.0151 -0.0454,-0.0155 -0.0867,-0.0408 -0.1207,-0.0741 -0.0341,-0.0333 -0.06,-0.0737 -0.0758,-0.1182 -0.0158,-0.0445 -0.0211,-0.0919 -0.0155,-0.1386 v -0.4436 c -0.002,-0.0912 0.0304,-0.1799 0.0911,-0.2491 0.0607,-0.0693 0.1453,-0.1142 0.2378,-0.1262 l 1.1409,-0.2193 c 0.2292,-0.0536 0.4285,-0.273 0.4285,-0.7701 v -8.0619 c 0,-0.3461 -0.1246,-0.7701 -0.5281,-0.8432 l -1.2456,-0.195 c -0.0944,-0.0075 -0.1818,-0.0511 -0.2434,-0.1214 -0.0616,-0.0703 -0.0923,-0.1615 -0.0855,-0.2539 v -0.4874 c -0.0034,-0.0475 0.0032,-0.0951 0.0195,-0.1399 0.0162,-0.0449 0.0417,-0.086 0.0749,-0.1207 0.0332,-0.0348 0.0734,-0.0625 0.118,-0.0814 0.0446,-0.0189 0.0928,-0.0286 0.1414,-0.0284 l 3.7517,-0.4436 c 0.279,-0.0292 0.4085,0.1219 0.4334,0.3704 l 0.1246,1.3892 h 0.1046 c 0.5706,-0.5911 1.2577,-1.0629 2.0198,-1.3871 0.7621,-0.3242 1.5834,-0.494 2.4145,-0.4992 2.232,0 4.1602,1.3404 4.1602,3.8457 v 7.0675 c 0,0.4874 0.1993,0.7165 0.4285,0.7701 l 1.1409,0.2194 c 0.0924,0.0119 0.1771,0.0569 0.2378,0.1261 0.0606,0.0693 0.0931,0.158 0.091,0.2492 v 0.4435 c 0.0056,0.0468 3e-4,0.0942 -0.0155,0.1387 -0.0158,0.0444 -0.0417,0.0848 -0.0757,0.1181 -0.034,0.0333 -0.0753,0.0586 -0.1208,0.0741 -0.0455,0.0155 -0.0939,0.0207 -0.1417,0.0152 z"
         fill="#151515"
         id="path76" />
      <path
         d="m 123.927,17.3673 c -1.55,-0.619 -2.691,-1.511 -2.691,-3.3193 0,-2.5541 2.491,-3.8701 4.818,-3.8701 1.004,-0.0117 2.005,0.1297 2.964,0.4192 0.1,0.0294 0.187,0.0884 0.251,0.1688 0.063,0.0804 0.099,0.1781 0.103,0.2796 v 2.481 c 0,0.2242 -0.124,0.346 -0.378,0.346 h -0.583 c -0.205,0 -0.329,-0.0975 -0.404,-0.346 l -0.204,-0.7458 c -0.155,-0.5946 -0.763,-0.9163 -1.774,-0.9163 -1.011,0 -2.053,0.4874 -2.053,1.511 0,0.8919 0.758,1.316 1.724,1.7108 l 1.47,0.5946 c 1.52,0.6239 2.94,1.5403 2.94,3.524 0,2.8271 -2.711,4.338 -5.272,4.338 -1.123,-0.0034 -2.24,-0.1525 -3.323,-0.4435 -0.097,-0.0324 -0.183,-0.0922 -0.246,-0.172 -0.063,-0.0797 -0.1,-0.1759 -0.108,-0.2764 V 19.975 c 0,-0.2242 0.1,-0.3753 0.354,-0.3753 h 0.688 c 0.099,4e-4 0.195,0.0363 0.269,0.1009 0.074,0.0646 0.122,0.1535 0.134,0.25 l 0.229,0.892 c 0.175,0.6434 0.937,0.9748 2.053,0.9748 1.315,0 2.407,-0.6921 2.407,-1.8571 0,-1.0187 -0.783,-1.5158 -1.824,-1.9496 z"
         fill="#151515"
         id="path78" />
      <path
         d="m 95.946,11.7663 c -2.252,0 -3.0392,2.4371 -3.0392,4.065 0,0.2486 0.0498,0.2974 0.3039,0.3217 0.2541,0.0244 0.7872,0.0488 1.1908,0.0488 1.7737,0 3.6271,-0.5947 3.6271,-2.403 6e-4,-0.2675 -0.0528,-0.5325 -0.1573,-0.7797 -0.1045,-0.2472 -0.2579,-0.4717 -0.4515,-0.6607 -0.1936,-0.1889 -0.4235,-0.3385 -0.6764,-0.4401 -0.253,-0.1016 -0.524,-0.1533 -0.7974,-0.152 z m 4.758,10.4258 c 0.022,0.0946 0.011,0.1934 -0.031,0.2815 -0.041,0.088 -0.111,0.1603 -0.198,0.2059 -1.1966,0.6102 -2.527,0.9264 -3.8763,0.9213 -4.4393,0 -6.6414,-2.8027 -6.6414,-6.7703 0,-4.1917 3.0641,-6.7458 6.3873,-6.7458 2.4313,0 4.5634,1.4623 4.5634,3.7921 0,2.8026 -3.0937,3.9919 -5.9784,3.9919 -0.5829,0 -1.116,0 -1.5993,-0.0487 -0.1993,0 -0.3288,0.0244 -0.3039,0.273 0.1544,2.0861 2.0826,3.3485 4.0306,3.3485 0.9885,-0.0136 1.9604,-0.2505 2.8399,-0.6921 0.0465,-0.0246 0.0982,-0.0384 0.1511,-0.0403 0.053,-0.0018 0.105,0.0082 0.153,0.0294 0.049,0.0213 0.091,0.0531 0.125,0.093 0.033,0.0399 0.057,0.0869 0.069,0.1372 z"
         fill="#151515"
         id="path80" />
      <path
         d="m 65.7187,11.7663 c -2.252,0 -3.0391,2.4371 -3.0391,4.065 0,0.2486 0.0498,0.2974 0.3039,0.3217 0.3288,0 0.7872,0.0488 1.1907,0.0488 1.7737,0 3.6272,-0.5947 3.6272,-2.403 6e-4,-0.2675 -0.0528,-0.5325 -0.1573,-0.7797 -0.1045,-0.2472 -0.258,-0.4717 -0.4516,-0.6607 -0.1935,-0.1889 -0.4234,-0.3385 -0.6764,-0.4401 -0.2529,-0.1016 -0.5239,-0.1533 -0.7974,-0.152 z m 4.7681,10.4258 c 0.0215,0.0946 0.0107,0.1934 -0.0307,0.2815 -0.0414,0.088 -0.1111,0.1603 -0.1985,0.2059 -1.1965,0.6102 -2.5269,0.9264 -3.8762,0.9213 -4.4392,0 -6.6414,-2.8027 -6.6414,-6.7703 0,-4.1917 3.0641,-6.7458 6.3873,-6.7458 2.4314,0 4.5638,1.4623 4.5638,3.7921 0,2.8026 -3.094,3.9919 -5.9788,3.9919 -0.5829,0 -1.116,0 -1.5993,-0.0487 -0.1993,0 -0.3288,0.0244 -0.3039,0.273 0.1544,2.0861 2.0826,3.3485 4.0307,3.3485 0.9885,-0.0136 1.9604,-0.2505 2.8399,-0.6921 0.0465,-0.0246 0.0981,-0.0384 0.151,-0.0403 0.0528,-0.0018 0.1053,0.0082 0.1535,0.0294 0.0482,0.0213 0.0908,0.0531 0.1244,0.093 0.0335,0.0399 0.0573,0.0869 0.0693,0.1372 z"
         fill="#151515"
         id="path82" />
      <path
         d="m 77.914,20.0963 c 0,1.0431 0.6826,1.6377 2.1275,1.6377 2.7402,0 3.7018,-2.3055 3.7018,-4.6889 0,-2.2324 -0.9616,-4.3624 -3.2435,-4.3624 -1.4697,0 -2.5858,0.8676 -2.5858,2.1593 z M 75.0492,7.62334 c 0,-0.34607 -0.1295,-0.79449 -0.5331,-0.8676 L 73.4748,6.59489 C 73.4283,6.5918 73.3829,6.57976 73.3412,6.55945 73.2994,6.53913 73.2622,6.51096 73.2317,6.47653 73.2011,6.44211 73.1778,6.40212 73.1631,6.35886 73.1484,6.3156 73.1426,6.26993 73.146,6.22446 V 5.73704 C 73.1425,5.68959 73.1492,5.64195 73.1654,5.59711 73.1816,5.55227 73.2071,5.51119 73.2403,5.47642 73.2735,5.44166 73.3137,5.41397 73.3583,5.39507 73.4029,5.37618 73.4511,5.36649 73.4997,5.3666 l 3.9858,-0.44842 c 0.0501,-0.00686 0.1011,-0.00398 0.15,0.0085 0.0489,0.01247 0.0949,0.03428 0.1352,0.06417 0.0402,0.0299 0.0741,0.0673 0.0995,0.11003 0.0255,0.04274 0.0421,0.08997 0.0488,0.139 v 6.82382 h 0.0897 c 1.0201,-0.9719 2.378,-1.5308 3.8015,-1.5646 3.0192,0 5.0221,2.554 5.0221,5.849 0,4.5134 -2.9894,7.2381 -7.4734,7.2381 -1.3058,0.0033 -2.605,-0.1807 -3.8563,-0.5459 -0.1327,-0.0266 -0.2512,-0.0987 -0.3344,-0.2032 -0.0831,-0.1046 -0.1253,-0.2348 -0.119,-0.3671 z"
         fill="#151515"
         id="path84" />
      <path
         fill-rule="evenodd"
         clip-rule="evenodd"
         d="M 14.5,0 C 6.49187,0 0,6.49187 0,14.5 v 1 C 0,23.5081 6.49187,30 14.5,30 22.5081,30 29,23.5081 29,15.5 v -1 C 29,6.49187 22.5081,0 14.5,0 Z m 2.1645,23.4223 C 20.1866,22.7281 22.306,18.4317 21.3983,13.8258 20.4905,9.22001 16.8994,6.04897 13.3773,6.74312 9.85523,7.43728 7.73587,11.7338 8.64361,16.3396 c 0.90773,4.6058 4.49879,7.7768 8.02089,7.0827 z"
         fill="#151515"
         id="path86" />
    </g>
  </g>
  <defs
     id="defs95">
    <clipPath
       id="clip0_985_9723">
      <rect
         width="130"
         height="30"
         fill="#ffffff"
         id="rect92"
         x="0"
         y="0" />
    </clipPath>
  </defs>
</svg>
