<svg width="130" height="30" viewBox="0 0 130 30" fill="none" xmlns="http://www.w3.org/2000/svg">
<g clip-path="url(#clip0_985_9723)">
<mask id="mask0_985_9723" style="mask-type:luminance" maskUnits="userSpaceOnUse" x="0" y="0" width="130" height="30">
<path d="M130 0H0V30H130V0Z" fill="white"/>
</mask>
<g mask="url(#mask0_985_9723)">
<path d="M118.365 22.7779C118.385 22.8599 118.373 22.9463 118.33 23.0197C118.288 23.093 118.218 23.1478 118.136 23.1727C117.434 23.4066 116.7 23.5316 115.958 23.5431C114.663 23.5431 113.881 22.8997 113.851 21.7104H113.776C113.232 22.2853 112.574 22.7446 111.841 23.0598C111.108 23.3751 110.317 23.5396 109.516 23.5431C107.389 23.5431 105.436 22.2076 105.436 19.7023V13.0539C105.436 12.7079 105.311 12.2838 104.903 12.2107L103.866 12.0109C103.82 12.0078 103.774 11.9957 103.733 11.9754C103.691 11.9551 103.654 11.9269 103.623 11.8925C103.593 11.8581 103.569 11.8181 103.555 11.7748C103.54 11.7316 103.534 11.6859 103.538 11.6404V11.153C103.534 11.1056 103.541 11.0579 103.557 11.0131C103.573 10.9682 103.599 10.9271 103.632 10.8924C103.665 10.8576 103.705 10.8299 103.75 10.811C103.795 10.7921 103.843 10.7824 103.891 10.7826L107.877 10.339C107.927 10.3315 107.978 10.3339 108.027 10.3462C108.076 10.3584 108.122 10.3802 108.162 10.4103C108.202 10.4404 108.235 10.4781 108.26 10.5211C108.285 10.5641 108.3 10.6116 108.306 10.6607V18.6348C108.306 20.4675 109.347 21.4131 110.891 21.4131C112.436 21.4131 113.632 20.4675 113.632 19.054V13.0539C113.632 12.7079 113.502 12.2838 113.099 12.2107L112.057 12.0109C112.011 12.0078 111.965 11.9957 111.924 11.9754C111.882 11.9551 111.845 11.9269 111.814 11.8925C111.784 11.8581 111.76 11.8181 111.746 11.7748C111.731 11.7316 111.725 11.6859 111.728 11.6404V11.153C111.725 11.1056 111.732 11.0579 111.748 11.0131C111.764 10.9682 111.79 10.9271 111.823 10.8924C111.856 10.8576 111.896 10.8299 111.941 10.811C111.985 10.7921 112.034 10.7824 112.082 10.7826L116.068 10.339C116.118 10.3315 116.169 10.3339 116.219 10.3461C116.268 10.3583 116.314 10.38 116.354 10.41C116.395 10.44 116.429 10.4777 116.454 10.5208C116.479 10.5638 116.495 10.6114 116.502 10.6607V20.8282C116.502 21.3156 116.731 21.5934 117.184 21.5934C117.401 21.5888 117.615 21.5476 117.817 21.4716C117.864 21.4569 117.915 21.4535 117.964 21.4615C118.013 21.4696 118.059 21.4889 118.099 21.518C118.139 21.547 118.171 21.5849 118.193 21.6285C118.215 21.6722 118.226 21.7203 118.225 21.7689L118.365 22.7779Z" fill="#151515"/>
<path d="M51.2694 23.269C51.2216 23.2745 51.1731 23.2693 51.1277 23.2539C51.0822 23.2384 51.0409 23.2131 51.0069 23.1798C50.9729 23.1465 50.947 23.1061 50.9312 23.0616C50.9154 23.0171 50.9101 22.9697 50.9156 22.923V22.4794C50.9136 22.3882 50.946 22.2995 51.0067 22.2303C51.0674 22.161 51.1521 22.1161 51.2445 22.1041L52.3854 21.8848C52.6146 21.8312 52.8189 21.6118 52.8189 21.1147V15.1146C52.8189 13.277 51.7278 12.3119 50.1284 12.3119C48.5291 12.3119 47.2885 13.2868 47.2885 14.6662V21.1147C47.2885 21.6021 47.4928 21.8312 47.722 21.8848L48.8629 22.1041C48.9554 22.1161 49.04 22.161 49.1007 22.2303C49.1614 22.2995 49.1938 22.3882 49.1918 22.4794V22.923C49.1974 22.9697 49.192 23.0171 49.1762 23.0616C49.1604 23.1061 49.1346 23.1465 49.1005 23.1798C49.0665 23.2131 49.0252 23.2384 48.9797 23.2539C48.9343 23.2693 48.8858 23.2745 48.838 23.269H42.8593C42.8115 23.2745 42.763 23.2693 42.7175 23.2539C42.6721 23.2384 42.6308 23.2131 42.5968 23.1798C42.5627 23.1465 42.5368 23.1061 42.521 23.0616C42.5052 23.0171 42.4999 22.9697 42.5055 22.923V22.4794C42.5035 22.3882 42.5359 22.2995 42.5966 22.2303C42.6573 22.161 42.7419 22.1161 42.8344 22.1041L43.9753 21.8848C44.2045 21.8312 44.4038 21.6118 44.4038 21.1147V13.0528C44.4038 12.7067 44.2792 12.2827 43.8757 12.2096L42.6301 12.0146C42.5357 12.0071 42.4483 11.9635 42.3867 11.8932C42.3251 11.8229 42.2944 11.7317 42.3012 11.6393V11.1519C42.2978 11.1044 42.3044 11.0568 42.3207 11.012C42.3369 10.9671 42.3624 10.926 42.3956 10.8913C42.4288 10.8565 42.469 10.8288 42.5136 10.8099C42.5582 10.791 42.6064 10.7813 42.655 10.7815L46.4067 10.3379C46.6857 10.3087 46.8152 10.4598 46.8401 10.7083L46.9647 12.0975H47.0693C47.6399 11.5064 48.327 11.0346 49.0891 10.7104C49.8512 10.3862 50.6725 10.2164 51.5036 10.2112C53.7356 10.2112 55.6638 11.5516 55.6638 14.0569V21.1244C55.6638 21.6118 55.8631 21.8409 56.0923 21.8945L57.2332 22.1139C57.3256 22.1258 57.4103 22.1708 57.471 22.24C57.5316 22.3093 57.5641 22.398 57.562 22.4892V22.9327C57.5676 22.9795 57.5623 23.0269 57.5465 23.0714C57.5307 23.1158 57.5048 23.1562 57.4708 23.1895C57.4368 23.2228 57.3955 23.2481 57.35 23.2636C57.3045 23.2791 57.2561 23.2843 57.2083 23.2788L51.2694 23.269Z" fill="#151515"/>
<path d="M123.927 17.3673C122.377 16.7483 121.236 15.8563 121.236 14.048C121.236 11.4939 123.727 10.1779 126.054 10.1779C127.058 10.1662 128.059 10.3076 129.018 10.5971C129.118 10.6265 129.205 10.6855 129.269 10.7659C129.332 10.8463 129.368 10.944 129.372 11.0455V13.5265C129.372 13.7507 129.248 13.8725 128.994 13.8725H128.411C128.206 13.8725 128.082 13.775 128.007 13.5265L127.803 12.7807C127.648 12.1861 127.04 11.8644 126.029 11.8644C125.018 11.8644 123.976 12.3518 123.976 13.3754C123.976 14.2673 124.734 14.6914 125.7 15.0862L127.17 15.6808C128.69 16.3047 130.11 17.2211 130.11 19.2048C130.11 22.0319 127.399 23.5428 124.838 23.5428C123.715 23.5394 122.598 23.3903 121.515 23.0993C121.418 23.0669 121.332 23.0071 121.269 22.9273C121.206 22.8476 121.169 22.7514 121.161 22.6509V19.975C121.161 19.7508 121.261 19.5997 121.515 19.5997H122.203C122.302 19.6001 122.398 19.636 122.472 19.7006C122.546 19.7652 122.594 19.8541 122.606 19.9506L122.835 20.8426C123.01 21.486 123.772 21.8174 124.888 21.8174C126.203 21.8174 127.295 21.1253 127.295 19.9603C127.295 18.9416 126.512 18.4445 125.471 18.0107L123.927 17.3673Z" fill="#151515"/>
<path d="M95.946 11.7663C93.694 11.7663 92.9068 14.2034 92.9068 15.8313C92.9068 16.0799 92.9566 16.1287 93.2107 16.153C93.4648 16.1774 93.9979 16.2018 94.4015 16.2018C96.1752 16.2018 98.0286 15.6071 98.0286 13.7988C98.0292 13.5313 97.9758 13.2663 97.8713 13.0191C97.7668 12.7719 97.6134 12.5474 97.4198 12.3584C97.2262 12.1695 96.9963 12.0199 96.7434 11.9183C96.4904 11.8167 96.2194 11.765 95.946 11.7663ZM100.704 22.1921C100.726 22.2867 100.715 22.3855 100.673 22.4736C100.632 22.5616 100.562 22.6339 100.475 22.6795C99.2784 23.2897 97.948 23.6059 96.5987 23.6008C92.1594 23.6008 89.9573 20.7981 89.9573 16.8305C89.9573 12.6388 93.0214 10.0847 96.3446 10.0847C98.7759 10.0847 100.908 11.547 100.908 13.8768C100.908 16.6794 97.8143 17.8687 94.9296 17.8687C94.3467 17.8687 93.8136 17.8687 93.3303 17.82C93.131 17.82 93.0015 17.8444 93.0264 18.093C93.1808 20.1791 95.109 21.4415 97.057 21.4415C98.0455 21.4279 99.0174 21.191 99.8969 20.7494C99.9434 20.7248 99.9951 20.711 100.048 20.7091C100.101 20.7073 100.153 20.7173 100.201 20.7385C100.25 20.7598 100.292 20.7916 100.326 20.8315C100.359 20.8714 100.383 20.9184 100.395 20.9687L100.704 22.1921Z" fill="#151515"/>
<path d="M65.7187 11.7663C63.4667 11.7663 62.6796 14.2034 62.6796 15.8313C62.6796 16.0799 62.7294 16.1287 62.9835 16.153C63.3123 16.153 63.7707 16.2018 64.1742 16.2018C65.9479 16.2018 67.8014 15.6071 67.8014 13.7988C67.802 13.5313 67.7486 13.2663 67.6441 13.0191C67.5396 12.7719 67.3861 12.5474 67.1925 12.3584C66.999 12.1695 66.7691 12.0199 66.5161 11.9183C66.2632 11.8167 65.9922 11.765 65.7187 11.7663ZM70.4868 22.1921C70.5083 22.2867 70.4975 22.3855 70.4561 22.4736C70.4147 22.5616 70.345 22.6339 70.2576 22.6795C69.0611 23.2897 67.7307 23.6059 66.3814 23.6008C61.9422 23.6008 59.74 20.7981 59.74 16.8305C59.74 12.6388 62.8041 10.0847 66.1273 10.0847C68.5587 10.0847 70.6911 11.547 70.6911 13.8768C70.6911 16.6794 67.5971 17.8687 64.7123 17.8687C64.1294 17.8687 63.5963 17.8687 63.113 17.82C62.9137 17.82 62.7842 17.8444 62.8091 18.093C62.9635 20.1791 64.8917 21.4415 66.8398 21.4415C67.8283 21.4279 68.8002 21.191 69.6797 20.7494C69.7262 20.7248 69.7778 20.711 69.8307 20.7091C69.8835 20.7073 69.936 20.7173 69.9842 20.7385C70.0324 20.7598 70.075 20.7916 70.1086 20.8315C70.1421 20.8714 70.1659 20.9184 70.1779 20.9687L70.4868 22.1921Z" fill="#151515"/>
<path d="M77.914 20.0963C77.914 21.1394 78.5966 21.734 80.0415 21.734C82.7817 21.734 83.7433 19.4285 83.7433 17.0451C83.7433 14.8127 82.7817 12.6827 80.4998 12.6827C79.0301 12.6827 77.914 13.5503 77.914 14.842V20.0963ZM75.0492 7.62334C75.0492 7.27727 74.9197 6.82885 74.5161 6.75574L73.4748 6.59489C73.4283 6.5918 73.3829 6.57976 73.3412 6.55945C73.2994 6.53913 73.2622 6.51096 73.2317 6.47653C73.2011 6.44211 73.1778 6.40212 73.1631 6.35886C73.1484 6.3156 73.1426 6.26993 73.146 6.22446V5.73704C73.1425 5.68959 73.1492 5.64195 73.1654 5.59711C73.1816 5.55227 73.2071 5.51119 73.2403 5.47642C73.2735 5.44166 73.3137 5.41397 73.3583 5.39507C73.4029 5.37618 73.4511 5.36649 73.4997 5.3666L77.4855 4.91818C77.5356 4.91132 77.5866 4.9142 77.6355 4.92668C77.6844 4.93915 77.7304 4.96096 77.7707 4.99085C77.8109 5.02075 77.8448 5.05815 77.8702 5.10088C77.8957 5.14362 77.9123 5.19085 77.919 5.23988V12.0637H78.0087C79.0288 11.0918 80.3867 10.5329 81.8102 10.4991C84.8294 10.4991 86.8323 13.0531 86.8323 16.3481C86.8323 20.8615 83.8429 23.5862 79.3589 23.5862C78.0531 23.5895 76.7539 23.4055 75.5026 23.0403C75.3699 23.0137 75.2514 22.9416 75.1682 22.8371C75.0851 22.7325 75.0429 22.6023 75.0492 22.47V7.62334Z" fill="#151515"/>
<path fill-rule="evenodd" clip-rule="evenodd" d="M14.5 0C6.49187 0 0 6.49187 0 14.5V15.5C0 23.5081 6.49187 30 14.5 30C22.5081 30 29 23.5081 29 15.5V14.5C29 6.49187 22.5081 0 14.5 0ZM16.6645 23.4223C20.1866 22.7281 22.306 18.4317 21.3983 13.8258C20.4905 9.22001 16.8994 6.04897 13.3773 6.74312C9.85523 7.43728 7.73587 11.7338 8.64361 16.3396C9.55134 20.9454 13.1424 24.1164 16.6645 23.4223Z" fill="#151515"/>
</g>
</g>
<defs>
<clipPath id="clip0_985_9723">
<rect width="130" height="30" fill="white"/>
</clipPath>
</defs>
</svg>
