<?xml version="1.0" encoding="UTF-8"?>
<!-- Created with Inkscape (http://www.inkscape.org/) -->
<svg width="200" height="155.56" version="1.1" xmlns="http://www.w3.org/2000/svg" xmlns:cc="http://creativecommons.org/ns#" xmlns:dc="http://purl.org/dc/elements/1.1/" xmlns:rdf="http://www.w3.org/1999/02/22-rdf-syntax-ns#">
 <metadata>
  <rdf:RDF>
   <cc:Work rdf:about="">
    <dc:format>image/svg+xml</dc:format>
    <dc:type rdf:resource="http://purl.org/dc/dcmitype/StillImage"/>
    <dc:title/>
   </cc:Work>
  </rdf:RDF>
 </metadata>
 <g transform="translate(-1837.7 -1267.9)">
  <g transform="matrix(3.1437 0 0 3.1437 -1661.1 -866.42)">
   <g transform="matrix(1.25 0 0 -1.25 1176 710.77)">
    <path d="m0 0v0.61h-0.159l-0.184-0.419-0.183 0.419h-0.16v-0.61h0.113v0.46l0.172-0.397h0.117l0.172 0.398v-0.461zm-1.009 0v0.506h0.204v0.103h-0.52v-0.103h0.204v-0.506z" fill="#0099df"/>
   </g>
   <path d="m1153.4 714.05h-17.202v-30.915h17.202z" fill="#6c6bbd"/>
   <g transform="matrix(1.25 0 0 -1.25 1137.3 698.59)">
    <path d="m0 0c0 5.017 2.349 9.486 6.007 12.366-2.675 2.106-6.051 3.363-9.72 3.363-8.686 0-15.727-7.042-15.727-15.729s7.041-15.729 15.727-15.729c3.669 0 7.045 1.257 9.72 3.363-3.658 2.88-6.007 7.349-6.007 12.366" fill="#eb001b"/>
   </g>
   <g transform="matrix(1.25 0 0 -1.25 1176.6 698.59)">
    <path d="m0 0c0-8.687-7.041-15.729-15.727-15.729-3.669 0-7.045 1.257-9.721 3.363 3.659 2.88 6.008 7.349 6.008 12.366s-2.349 9.486-6.008 12.366c2.676 2.106 6.052 3.363 9.721 3.363 8.686 0 15.727-7.042 15.727-15.729" fill="#0099df"/>
   </g>
   <g transform="matrix(1.25 0 0 -1.25 1159.2 722.78)">
    <path d="m0 0c0.183 0 0.446-0.035 0.647-0.114l-0.28-0.856c-0.192 0.079-0.384 0.105-0.568 0.105-0.594 0-0.891-0.384-0.891-1.074v-2.342h-0.909v4.176h0.9v-0.507c0.236 0.367 0.577 0.612 1.101 0.612m-3.358-0.935h-1.485v-1.887c0-0.419 0.148-0.699 0.603-0.699 0.236 0 0.533 0.079 0.803 0.236l0.262-0.777c-0.288-0.201-0.742-0.324-1.135-0.324-1.075 0-1.45 0.577-1.45 1.547v1.904h-0.848v0.83h0.848v1.267h0.917v-1.267h1.485zm-11.629-0.891c0.097 0.603 0.463 1.014 1.11 1.014 0.585 0 0.961-0.367 1.057-1.014zm3.111-0.367c-9e-3 1.302-0.813 2.193-1.984 2.193-1.223 0-2.079-0.891-2.079-2.193 0-1.327 0.891-2.192 2.141-2.192 0.629 0 1.205 0.157 1.712 0.585l-0.446 0.673c-0.349-0.28-0.795-0.437-1.214-0.437-0.585 0-1.118 0.271-1.249 1.022h3.101c9e-3 0.114 0.018 0.227 0.018 0.349m3.992 1.022c-0.253 0.158-0.768 0.359-1.301 0.359-0.498 0-0.795-0.184-0.795-0.49 0-0.279 0.314-0.358 0.707-0.41l0.428-0.061c0.909-0.132 1.459-0.516 1.459-1.25 0-0.795-0.699-1.363-1.904-1.363-0.682 0-1.311 0.175-1.809 0.542l0.428 0.708c0.306-0.236 0.761-0.437 1.39-0.437 0.62 0 0.952 0.183 0.952 0.507 0 0.235-0.236 0.367-0.734 0.436l-0.428 0.061c-0.935 0.132-1.442 0.551-1.442 1.232 0 0.83 0.682 1.337 1.739 1.337 0.664 0 1.267-0.149 1.703-0.437zm11.205 0.308c-0.187 0-0.36-0.033-0.521-0.098-0.16-0.066-0.299-0.158-0.416-0.276s-0.209-0.26-0.276-0.425-0.1-0.347-0.1-0.545c0-0.199 0.033-0.38 0.1-0.545s0.159-0.307 0.276-0.425 0.256-0.21 0.416-0.276c0.161-0.066 0.334-0.098 0.521-0.098s0.361 0.032 0.521 0.098c0.161 0.066 0.301 0.158 0.418 0.276 0.119 0.118 0.211 0.26 0.279 0.425 0.067 0.165 0.1 0.346 0.1 0.545 0 0.198-0.033 0.38-0.1 0.545-0.068 0.165-0.16 0.307-0.279 0.425-0.117 0.118-0.257 0.21-0.418 0.276-0.16 0.065-0.334 0.098-0.521 0.098m0 0.863c0.324 0 0.624-0.056 0.9-0.169 0.276-0.112 0.515-0.267 0.716-0.464 0.202-0.197 0.359-0.43 0.473-0.698 0.114-0.269 0.171-0.561 0.171-0.876s-0.057-0.607-0.171-0.876c-0.114-0.268-0.271-0.502-0.473-0.699-0.201-0.197-0.44-0.351-0.716-0.464-0.276-0.112-0.576-0.168-0.9-0.168s-0.624 0.056-0.9 0.168c-0.276 0.113-0.513 0.267-0.713 0.464s-0.357 0.431-0.471 0.699c-0.114 0.269-0.171 0.561-0.171 0.876s0.057 0.607 0.171 0.876c0.114 0.268 0.271 0.501 0.471 0.698s0.437 0.352 0.713 0.464c0.276 0.113 0.576 0.169 0.9 0.169m-23.616-2.193c0 0.734 0.481 1.337 1.267 1.337 0.751 0 1.258-0.577 1.258-1.337s-0.507-1.336-1.258-1.336c-0.786 0-1.267 0.602-1.267 1.336m3.381 0v2.088h-0.908v-0.507c-0.289 0.376-0.725 0.612-1.319 0.612-1.171 0-2.088-0.917-2.088-2.193 0-1.275 0.917-2.193 2.088-2.193 0.594 0 1.03 0.236 1.319 0.612v-0.507h0.908zm-5.119-2.088v2.621c0 0.987-0.629 1.651-1.642 1.66-0.533 9e-3 -1.084-0.157-1.468-0.743-0.288 0.463-0.743 0.743-1.381 0.743-0.445 0-0.882-0.131-1.223-0.62v0.515h-0.908v-4.176h0.917v2.315c0 0.725 0.402 1.11 1.022 1.11 0.603 0 0.909-0.393 0.909-1.101v-2.324h0.917v2.315c0 0.725 0.42 1.11 1.022 1.11 0.621 0 0.918-0.393 0.918-1.101v-2.324z" fill="#231f20"/>
   </g>
   <g transform="matrix(1.25 0 0 -1.25 1167.4 727.74)">
    <path d="m0 0v-0.103h0.095c0.021 0 0.039 5e-3 0.051 0.013 0.013 8e-3 0.02 0.022 0.02 0.039s-7e-3 0.03-0.02 0.038c-0.012 9e-3 -0.03 0.013-0.051 0.013zm0.096 0.072c0.049 0 0.087-0.011 0.114-0.033s0.04-0.052 0.04-0.09c0-0.032-0.01-0.058-0.032-0.079-0.021-0.02-0.052-0.033-0.091-0.038l0.126-0.145h-0.098l-0.117 0.144h-0.038v-0.144h-0.082v0.385zm-0.025-0.517c0.045 0 0.087 8e-3 0.125 0.025 0.039 0.017 0.073 0.04 0.102 0.069s0.052 0.063 0.069 0.103c0.016 0.039 0.025 0.081 0.025 0.126s-9e-3 0.087-0.025 0.126c-0.017 0.039-0.04 0.074-0.069 0.103s-0.063 0.052-0.102 0.068c-0.038 0.017-0.08 0.025-0.125 0.025s-0.088-8e-3 -0.127-0.025c-0.04-0.016-0.075-0.039-0.104-0.068s-0.052-0.064-0.068-0.103c-0.017-0.039-0.025-0.081-0.025-0.126s8e-3 -0.087 0.025-0.126c0.016-0.04 0.039-0.074 0.068-0.103s0.064-0.052 0.104-0.069c0.039-0.017 0.082-0.025 0.127-0.025m0 0.738c0.059 0 0.113-0.011 0.164-0.033 0.052-0.021 0.096-0.051 0.135-0.089 0.038-0.037 0.068-0.081 0.09-0.132 0.022-0.05 0.033-0.104 0.033-0.161s-0.011-0.111-0.033-0.161-0.052-0.094-0.09-0.131c-0.039-0.038-0.083-0.068-0.135-0.09-0.051-0.022-0.105-0.033-0.164-0.033-0.06 0-0.115 0.011-0.167 0.033s-0.097 0.052-0.135 0.09c-0.038 0.037-0.068 0.081-0.09 0.131s-0.033 0.104-0.033 0.161 0.011 0.111 0.033 0.161c0.022 0.051 0.052 0.095 0.09 0.132 0.038 0.038 0.083 0.068 0.135 0.089 0.052 0.022 0.107 0.033 0.167 0.033" fill="#231f20"/>
   </g>
  </g>
 </g>
</svg>
