<svg xmlns="http://www.w3.org/2000/svg" width="2500" height="2500" viewBox="0 0 192.756 192.756"><g fill-rule="evenodd" clip-rule="evenodd"><path fill="#fff" d="M0 0h192.756v192.756H0V0z"/><path d="M96.378 138.172a56.433 56.433 0 0 0 18.399-41.793 56.43 56.43 0 0 0-18.399-41.793c-9.934-9.068-23.112-14.594-37.573-14.594-30.911 0-55.971 25.245-55.971 56.387 0 31.141 25.06 56.387 55.971 56.387 14.461 0 27.64-5.526 37.573-14.594z" fill="#3a9bd9"/><path d="M133.951 39.992c-14.461 0-27.641 5.526-37.573 14.594a56.75 56.75 0 0 0-5.651 5.97h11.298a56.574 56.574 0 0 1 4.27 5.971H86.46a56.654 56.654 0 0 0-3.227 5.971h26.284a56.28 56.28 0 0 1 2.375 5.97H80.863a56.329 56.329 0 0 0-1.625 5.97h34.28a57.002 57.002 0 0 1 1.26 11.941c0 6.26-1.016 12.283-2.885 17.91h-31.03a55.928 55.928 0 0 0 2.37 5.971h26.284a56.442 56.442 0 0 1-3.223 5.971H86.46a56.58 56.58 0 0 0 4.266 5.971h11.299a56.42 56.42 0 0 1-5.647 5.971c9.932 9.068 23.112 14.594 37.573 14.594 30.91 0 55.971-25.246 55.971-56.387 0-31.143-25.061-56.388-55.971-56.388z" fill="#cc2131"/><path d="M182.469 127.811c0-1.006.809-1.822 1.809-1.822.998 0 1.807.816 1.807 1.822 0 1.004-.809 1.82-1.807 1.82a1.815 1.815 0 0 1-1.809-1.82zm1.808 1.382c.758 0 1.373-.617 1.373-1.383s-.615-1.385-1.373-1.385c-.76 0-1.375.619-1.375 1.385s.616 1.383 1.375 1.383zm-.244-.584h-.371v-1.602h.672c.139 0 .281.004.404.082a.48.48 0 0 1 .203.4c0 .18-.105.35-.275.414l.293.705h-.412l-.242-.633h-.271v.634-.906h.205c.074 0 .158.004.225-.033a.217.217 0 0 0 .094-.184.205.205 0 0 0-.09-.162c-.064-.039-.168-.029-.238-.029h-.195v1.314h-.002z" fill="#cc2131"/><path d="M170.633 108.6c0-1.006.809-1.822 1.807-1.822s1.807.816 1.807 1.822-.809 1.82-1.807 1.82-1.807-.815-1.807-1.82zm1.806 1.382c.758 0 1.373-.619 1.373-1.383 0-.766-.615-1.385-1.373-1.385-.76 0-1.373.619-1.373 1.385 0 .764.614 1.383 1.373 1.383zm-.244-.584h-.371v-1.6h.672c.139 0 .283.002.404.082a.476.476 0 0 1 .203.398c0 .182-.104.35-.275.414l.293.705h-.41l-.244-.633h-.271v.634-.906h.205c.076 0 .16.006.225-.031a.222.222 0 0 0 .094-.184.202.202 0 0 0-.09-.164c-.064-.037-.168-.029-.236-.029h-.197v1.314h-.002zM51.813 110.42h-6.966l4.14-21.976-9.532 21.976h-6.352l-1.161-21.85-4.153 21.85h-6.323l5.403-28.587h10.87l.575 17.698 7.664-17.698h11.327l-5.492 28.587zM129.664 110.135c-1.906.527-3.396.754-5.006.754-3.564 0-5.51-1.801-5.51-5.105 0-.654.072-1.35.205-2.086l.424-2.273.326-1.84 3.229-17.753h6.928l-1.004 5.339h3.555l-.955 5.652h-3.57l-1.836 9.7a5.482 5.482 0 0 0-.119.963c0 1.201.721 1.723 2.377 1.723.793 0 1.408-.072 1.879-.217l-.923 5.143zM150.01 87.362c-.584-.232-.721-.232-.789-.251-.369-.082-.566-.13-.6-.136a3.89 3.89 0 0 0-.701-.058c-2.287 0-3.936 1.026-6.068 3.775l.615-3.523h-6.309l-4.246 23.25h6.971c2.494-14.219 3.562-16.709 6.906-16.709.252 0 .543.02.881.059l.814.167 2.526-6.574zM102.049 94.516c0 2.937 1.643 4.96 5.367 6.48 2.854 1.168 3.295 1.51 3.295 2.566 0 1.447-1.258 2.1-4.045 2.1-2.104 0-4.059-.285-6.316-.92l-.967 5.363.312.053 1.291.238c.416.072 1.029.141 1.842.203 1.676.131 2.973.193 3.887.193 7.436 0 10.871-2.455 10.871-7.758 0-3.191-1.436-5.062-4.967-6.471-2.955-1.177-3.297-1.438-3.297-2.523 0-1.253 1.172-1.897 3.449-1.897 1.385 0 3.273.131 5.064.349l1.004-5.382c-1.824-.25-4.592-.455-6.201-.455-7.884.001-10.613 3.573-10.589 7.861zM74.459 110.42H68.67l.135-2.41c-1.763 1.908-4.113 2.812-7.307 2.812-3.775 0-6.366-2.59-6.366-6.35 0-5.664 4.501-8.965 12.237-8.965.793 0 1.8.063 2.838.179.216-.764.275-1.094.275-1.51 0-1.539-1.215-2.115-4.468-2.115-1.989 0-4.237.252-5.789.648l-.965.247-.625.15.966-5.227c3.473-.896 5.765-1.235 8.34-1.235 5.987 0 9.151 2.362 9.151 6.82 0 1.147-.105 2.018-.566 4.606l-1.456 8.248-.245 1.48-.178 1.182-.119.809-.069.631zm-5.082-10.358a12.542 12.542 0 0 0-1.557-.096c-3.948 0-5.948 1.189-5.948 3.537 0 1.447.976 2.371 2.499 2.371 2.84.001 4.886-2.374 5.006-5.812zM97.312 109.918a27.013 27.013 0 0 1-7.138.943c-7.788-.006-11.847-3.578-11.847-10.416 0-7.981 5.164-13.857 12.174-13.857 5.735 0 9.397 3.291 9.397 8.451 0 1.713-.25 3.383-.855 5.74H85.192a4.452 4.452 0 0 0-.067.73c0 2.695 2.065 4.07 6.111 4.07 2.488 0 4.737-.455 7.234-1.471l-1.158 5.81zm-3.71-13.834c.038-.484.058-.88.058-1.186 0-1.888-1.221-2.996-3.295-2.996-2.216 0-3.801 1.486-4.444 4.168l7.681.014zM171.664 99.879c-1.043 7.734-6.404 11.164-13.531 11.164-7.881 0-11.064-4.816-11.064-10.717 0-8.24 5.391-13.823 13.717-13.823 7.227 0 11.064 4.591 11.064 10.493 0 1.436-.002 1.531-.186 2.883zm-7.174-2.975c0-2.432-.98-4.728-3.836-4.728-3.555 0-5.758 4.233-5.758 7.97 0 3.152 1.51 5.27 4 5.225 1.51 0 4.73-2.072 5.367-5.691.149-.844.227-1.77.227-2.776z" fill="#fff"/></g></svg>