<?xml version="1.0" encoding="UTF-8"?>
<svg width="400" height="112.85" version="1.1" viewBox="2092 39 400 112.85037" xmlns="http://www.w3.org/2000/svg" xmlns:cc="http://creativecommons.org/ns#" xmlns:dc="http://purl.org/dc/elements/1.1/" xmlns:rdf="http://www.w3.org/1999/02/22-rdf-syntax-ns#">
<metadata>
<rdf:RDF>
<cc:Work rdf:about="">
<dc:format>image/svg+xml</dc:format>
<dc:type rdf:resource="http://purl.org/dc/dcmitype/StillImage"/>
<dc:title/>
</cc:Work>
</rdf:RDF>
</metadata>
<defs>
<style>.cls-1 {
        clip-path: url(#a);
      }
      .cls-2 {
        fill: #e1091d;
      }
      .cls-3 {
        fill: #002469;
      }</style>
<clipPath id="a">
<rect width="122" height="34.452" data-name="Rectangle 1"/>
</clipPath>
</defs>
<path class="cls-2" d="m2175.6 148.86c0 2.6565 3.6523 2.9873 5.6438 2.9873h1.6607c4.9789-0.32756 4.9789-2.3224 4.9789-2.9873v-106.88c0.3276-2.6598-3.3214-2.9873-5.6438-2.9873h-0.9827c-2.0046 0-5.6569 0.32756-5.6569 2.9873z" fill="#e1091d" stroke-width="3.2756" data-name="Path 1"/>
<path class="cls-2" d="m2108.9 148.86c0 2.6565 3.6523 2.9873 5.6438 2.9873h1.6608c4.9788-0.32756 4.9788-2.3224 4.9788-2.9873v-106.88c0-2.6598-3.3214-2.9873-5.6438-2.9873h-0.9827c-2.3387 0-5.6569 0.32756-5.6569 2.9873z" fill="#e1091d" stroke-width="3.2756" data-name="Path 2"/>
<path class="cls-2" d="m2131.2 148.86c0 2.6565 3.6523 2.9873 5.6439 2.9873h1.9915c4.9789-0.32756 4.9789-2.3224 4.9789-2.9873v-106.88c0-2.6598-3.6523-2.9873-5.6438-2.9873h-1.3266c-1.9916 0-5.6439 0.32756-5.6439 2.9873z" fill="#e1091d" stroke-width="3.2756" data-name="Path 3"/>
<path class="cls-2" d="m2153.4 148.86c0 2.6565 3.6522 2.9873 5.6438 2.9873h1.6607c4.9789-0.32756 4.9789-2.3224 4.9789-2.9873v-106.88c0-2.6598-3.6523-2.9873-5.6438-2.9873h-0.9827c-2.0047 0-5.6569 0.32756-5.6569 2.9873z" fill="#e1091d" stroke-width="3.2756" data-name="Path 4"/>
<path class="cls-2" d="m2095 89.12c-2.6597 0-2.9873 3.6523-2.9873 5.6438v1.9916c0.3276 4.9789 2.3224 4.9789 2.9873 4.9789h106.88c2.6565 0 2.9874-3.6523 2.9874-5.6438v-1.3266c0-1.9916-0.3276-5.6438-2.9874-5.6438z" fill="#e1091d" stroke-width="3.2756" data-name="Path 5"/>
<path class="cls-3" d="m2360.5 129.28c-17.59 0-24.239-9.6269-24.239-34.518 0-24.567 6.3055-33.522 23.912-33.522h0.6551c17.259 0 23.912 8.962 23.912 33.522-0.3276 24.894-6.9705 34.518-24.239 34.518m0-81.981c-29.873 0-43.48 14.937-43.48 47.794 0 32.527 13.941 48.128 42.484 48.459h1.3266c28.878 0 42.815-15.932 42.815-48.459 0-33.191-13.273-47.794-43.146-47.794" fill="#002469" stroke-width="3.2756" data-name="Path 6"/>
<path class="cls-3" d="m2240 136.25c5.9747 4.648 14.272 6.6396 27.548 6.6396h0.6552c13.276 0 21.573-1.9916 27.882-6.6396 8.6279-6.6363 10.298-14.586 10.298-29.539v-54.1a3.3476 3.3476 0 0 0 -0.9826 -2.6565c-1.343-1.3364-4.3304-1.9916-9.3092-1.9916a13.548 13.548 0 0 0 -8.962 1.9916 3.3476 3.3476 0 0 0 -0.9827 2.6565v56.425c0 9.2928 0 11.284-4.3139 14.937a24.239 24.239 0 0 1 -14.272 3.6523 22.035 22.035 0 0 1 -14.275 -3.6686c-4.314-3.3182-4.314-5.3097-4.314-14.603v-56.743a3.3476 3.3476 0 0 0 -0.9827 -2.6565 13.548 13.548 0 0 0 -8.9849 -1.9916 13.548 13.548 0 0 0 -8.962 1.9916 3.3476 3.3476 0 0 0 -0.9827 2.6565v54.1c0.6552 14.937 1.9916 22.903 10.954 29.539" fill="#002469" stroke-width="3.2756" data-name="Path 7"/>
<path class="cls-3" d="m2455.1 128.95h-21.242v-28.213h22.569c12.614 0 14.937 5.3097 14.937 14.272 0.3275 11.949-3.9831 13.941-16.263 13.941m-21.242-67.379h21.573c11.284 0 11.949 5.6438 11.949 12.945 0 8.962-3.9831 12.611-13.607 12.611h-19.916zm44.81-7.9662c-4.9788-3.6523-10.954-4.9789-22.569-4.9789h-38.504a3.3247 3.3247 0 0 0 -3.3182 3.3182v87.625a3.3247 3.3247 0 0 0 3.3182 3.3182h40.493c10.954 0 18.586-0.32756 25.222-5.3097 7.3013-5.6438 8.6312-14.603 8.6312-21.242a23.63 23.63 0 0 0 -8.2971 -19.581 32.304 32.304 0 0 0 -7.6353 -3.6523l-1.6608-0.65512 1.6608-0.65512c7.9662-3.6523 10.623-8.962 10.623-19.251-0.3276-5.3097-1.3266-14.272-7.9662-18.92" fill="#002469" stroke-width="3.2756" data-name="Path 8"/>
</svg>
