<?xml version="1.0" encoding="UTF-8"?>
<svg width="460px" height="460px" viewBox="0 0 460 460" version="1.1" xmlns="http://www.w3.org/2000/svg" xmlns:xlink="http://www.w3.org/1999/xlink">
    <!-- Generator: Sketch 46.2 (44496) - http://www.bohemiancoding.com/sketch -->
    <title>SE</title>
    <desc>Created with Sketch.</desc>
    <defs></defs>
    <g id="Page-1" stroke="none" stroke-width="1" fill="none" fill-rule="evenodd">
        <g id="SE" transform="translate(-11.000000, 0.000000)">
            <rect id="Rectangle" fill="#ECECEC" x="11" y="0" width="460" height="460" rx="5"></rect>
            <g id="logos" transform="translate(0.000000, 92.000000)" fill-rule="nonzero">
                <g id="spei" transform="translate(25.000000, 74.000000)">
                    <g id="Group" fill="#180C6A">
                        <path d="M49.1809406,0.319672131 C57.7155941,-0.213114754 66.2502475,-0.106557377 74.784901,1.17213115 C81.5059406,2.3442623 88.3336634,4.36885246 94.0945545,7.99180328 C98.3618812,10.6557377 101.989109,14.4918033 104.549505,18.7540984 C107.963366,24.4016393 109.670297,30.9016393 110.523762,37.295082 L110.523762,37.4016393 C98.3618812,38.147541 86.0933168,38.8934426 73.9314356,39.5327869 L73.8247525,39.4262295 C73.0779703,35.1639344 71.5844059,30.6885246 68.4905941,27.5983607 C65.3967822,24.5081967 60.9160891,23.2295082 56.7554455,23.0163934 C53.234901,22.8032787 49.6076733,23.0163934 46.4071782,24.6147541 C44.1668317,25.7868852 42.2465347,27.9180328 41.4997525,30.3688525 C40.9663366,32.0737705 40.9663366,34.0983607 41.9264851,35.6967213 C42.8866337,37.4016393 44.4868812,38.7868852 46.300495,39.6393443 C50.2477723,41.4508197 54.4084158,42.3032787 58.5690594,43.1557377 C66.2502475,44.8606557 73.9314356,46.6721311 81.3992574,49.1229508 C88.120297,51.2540984 94.7346535,53.9180328 100.388861,58.0737705 C103.69604,60.5245902 106.789851,63.4016393 109.030198,66.9180328 C112.657426,72.352459 114.577723,78.7459016 114.791089,85.2459016 C115.004455,90.6803279 114.15099,96.2213115 112.12401,101.336066 C109.456931,108.262295 104.869554,114.442623 99.0019802,118.918033 C93.2410891,123.393443 86.3066832,126.270492 79.2655941,127.868852 C69.7707921,130 59.9559406,130.106557 50.2477723,129.680328 C41.819802,129.147541 33.2851485,127.868852 25.3905941,124.672131 C21.6566832,123.07377 18.0294554,120.942623 15.0423267,118.172131 C10.2415842,113.590164 6.50767327,107.942623 4.0539604,101.868852 C2.13366337,96.9672131 0.960148515,91.6393443 0.533415842,86.3114754 C12.9086634,85.5655738 25.2839109,84.8196721 37.5524752,84.0737705 C38.2992574,89.295082 39.6861386,94.7295082 43.3133663,98.6721311 C46.4071782,102.188525 50.9945545,104.319672 55.5819307,104.959016 C59.5292079,105.491803 63.5831683,105.278689 67.3170792,104.106557 C70.6242574,103.040984 73.6113861,100.803279 75.425,97.8196721 C77.1319307,95.0491803 77.4519802,91.5327869 76.2784653,88.442623 C75.1049505,85.5655738 72.864604,83.1147541 70.0908416,81.6229508 C67.1037129,80.0245902 63.9032178,78.9590164 60.5960396,78 C57.6089109,77.147541 54.515099,76.4016393 51.4212871,75.7622951 C43.740099,73.9508197 36.1655941,71.8196721 29.0178218,68.6229508 C22.7235149,65.852459 16.7492574,62.2295082 12.2685644,56.9016393 C8.21460396,52.2131148 5.86757426,46.352459 5.22747525,40.2786885 C4.58737624,34.4180328 5.54752475,28.3442623 8.00123762,23.0163934 C9.70816832,19.3934426 11.9485149,15.9836066 14.8289604,13.2131148 C18.989604,9.05737705 24.110396,6.07377049 29.6579208,3.94262295 C35.8455446,1.81147541 42.5665842,0.745901639 49.1809406,0.319672131 Z" id="Shape"></path>
                        <path d="M134.100743,2.02459016 C155.437376,2.02459016 176.77401,2.02459016 198.110644,2.02459016 C204.511634,2.02459016 211.019307,2.55737705 217.100248,4.47540984 C222.007673,5.96721311 226.701733,8.41803279 230.435644,11.9344262 C234.916337,16.0901639 238.010149,21.7377049 239.503713,27.5983607 C240.890594,33.0327869 241.210644,38.7868852 240.890594,44.4344262 C240.463861,51.5737705 238.436881,58.7131148 234.382921,64.5737705 C232.035891,67.8770492 229.155446,70.8606557 225.848267,73.0983607 C219.340594,77.5737705 211.44604,79.5983607 203.658168,80.3442623 C200.457673,80.6639344 197.257178,80.7704918 194.163366,80.7704918 C187.22896,80.7704918 180.294554,80.7704918 173.253465,80.7704918 C173.253465,96.4344262 173.253465,112.098361 173.253465,127.655738 C160.238119,127.655738 147.222772,127.655738 134.100743,127.655738 C134.100743,85.9918033 134.100743,44.0081967 134.100743,2.02459016 Z M173.253465,27.9180328 C173.253465,37.1885246 173.253465,46.4590164 173.253465,55.7295082 C176.667327,55.7295082 180.187871,55.7295082 183.601733,55.7295082 C187.54901,55.6229508 191.60297,55.3032787 195.230198,53.8114754 C198.110644,52.6393443 200.457673,50.5081967 201.844554,47.7377049 C203.231436,44.8606557 203.444802,41.4508197 202.69802,38.3606557 C201.951238,35.1639344 200.030941,32.1803279 197.257178,30.3688525 C193.843317,28.3442623 189.789356,27.9180328 185.948762,27.8114754 C181.681436,27.8114754 177.414109,27.9180328 173.253465,27.9180328 Z" id="Shape"></path>
                        <path d="M410.730198,88.2295082 C416.917822,80.557377 423.105446,72.8852459 429.186386,65.2131148 C429.186386,86.0983607 429.186386,107.090164 429.186386,127.97541 C416.17104,127.97541 403.155693,127.97541 390.140347,127.97541 C390.140347,110.180328 390.140347,92.3852459 390.140347,74.5901639 C396.968069,74.5901639 403.795792,74.5901639 410.623515,74.5901639 C410.730198,75.5491803 410.623515,76.5081967 410.730198,77.4672131 C410.730198,81.0901639 410.623515,84.6065574 410.730198,88.2295082 Z" id="Shape"></path>
                    </g>
                    <g id="Group" transform="translate(260.306931, 1.065574)" fill="#FC7B05">
                        <path d="M0.960148515,1.06557377 C10.8816832,0.959016393 20.909901,1.06557377 30.9381188,1.06557377 C55.795297,1.06557377 80.5457921,1.06557377 105.40297,1.06557377 C105.40297,10.0163934 105.40297,18.9672131 105.40297,27.9180328 C83.639604,27.9180328 61.8762376,27.9180328 40.1128713,27.9180328 C40.1128713,34.6311475 40.1128713,41.3442623 40.1128713,48.057377 C60.2759901,48.057377 80.4391089,48.057377 100.708911,48.057377 C100.815594,48.8032787 100.708911,49.7622951 100.815594,50.5081967 C100.815594,58.2868852 100.815594,66.0655738 100.815594,73.8442623 C80.6524752,73.8442623 60.4893564,73.8442623 40.2195545,73.8442623 C40.1128713,77.2540984 40.2195545,80.7704918 40.2195545,84.2868852 C40.2195545,89.0819672 40.2195545,93.8770492 40.2195545,98.5655738 C62.3029703,98.5655738 84.4930693,98.5655738 106.576485,98.5655738 C106.896535,98.5655738 107.216584,98.4590164 107.42995,98.6721311 C107.42995,108.155738 107.42995,117.532787 107.42995,127.016393 C72.0111386,127.016393 36.5923267,127.016393 1.17351485,127.016393 C1.06683168,126.163934 1.17351485,125.311475 1.06683168,124.459016 C0.960148515,83.2213115 0.960148515,42.0901639 0.960148515,1.06557377 Z" id="Shape"></path>
                        <path d="M129.833416,0.959016393 C142.848762,0.959016393 155.864109,0.959016393 168.879455,0.959016393 C168.879455,20.6721311 168.879455,40.4918033 168.879455,60.204918 C162.691832,52.5327869 156.504208,44.8606557 150.423267,37.295082 C150.423267,40.8114754 150.423267,44.3278689 150.423267,47.8442623 C143.595545,47.8442623 136.767822,47.8442623 129.833416,47.8442623 C129.833416,32.2868852 129.833416,16.6229508 129.833416,0.959016393 Z" id="Shape"></path>
                    </g>
                    <path d="M410.730198,38.3606557 C416.917822,46.0327869 422.998762,53.704918 429.186386,61.2704918 C429.719802,61.9098361 430.253218,62.5491803 430.67995,63.1885246 C430.146535,63.8278689 429.613119,64.4672131 429.186386,65.1065574 C422.998762,72.7786885 416.811139,80.4508197 410.730198,88.1229508 C410.730198,84.6065574 410.730198,80.9836066 410.730198,77.4672131 C410.730198,76.5081967 410.836881,75.442623 410.623515,74.5901639 C403.795792,74.5901639 396.968069,74.5901639 390.140347,74.5901639 C390.140347,66.0655738 390.140347,57.4344262 390.140347,48.9098361 C396.968069,48.9098361 403.795792,48.9098361 410.730198,48.9098361 C410.730198,45.3934426 410.623515,41.8770492 410.730198,38.3606557 Z" id="Shape" fill="#ECECEC"></path>
                </g>
            </g>
        </g>
    </g>
</svg>