<svg id="Layer_1" xmlns="http://www.w3.org/2000/svg" width="407.218" height="59.959" viewBox="174.22 252.992 407.218 59.959"><style>.st0,.st1{opacity:.2;fill:#f24c3e}.st1{opacity:0}.st2,.st3{opacity:.5;fill:#00cc86}.st3{opacity:.3}.st4{fill:#f24c3e}.st5{fill:#00cc86}.st6{fill:#0094de}.st7{fill:#f2d230}.st8{fill:#666c80}.st9{fill:#1f2b3a}.st10{fill:#324451}.st11{fill:#525766}.st12{opacity:.3;fill:#0094de}.st13{fill:#1f2b3b}</style><path class="st4" d="M190.282 268.99h28v28h-28z"/><path class="st5" d="M234.32 252.992h-44.1l-8 8 44-.002v44.002l8-8"/><path class="st6" d="M174.22 312.952h44l8-8h-44z"/><path class="st7" d="M174.22 312.952l8-8V260.95l-8 8.002z"/><g><path class="st13" d="M256.497 282.95c0-9.225 6.975-15.524 15.974-15.524 6.616 0 10.44 3.6 12.556 7.335l-5.49 2.7c-1.26-2.43-3.96-4.364-7.064-4.364-5.444 0-9.404 4.185-9.404 9.854s3.96 9.854 9.404 9.854c3.105 0 5.805-1.89 7.065-4.364l5.49 2.654c-2.16 3.735-5.94 7.38-12.556 7.38-8.998 0-15.973-6.3-15.973-15.524zM288.22 287.044c0-6.165 4.32-11.385 11.476-11.385 7.2 0 11.52 5.22 11.52 11.384 0 6.21-4.32 11.43-11.52 11.43-7.155 0-11.475-5.22-11.475-11.43zm17.055 0c0-3.375-2.024-6.3-5.58-6.3-3.555 0-5.534 2.925-5.534 6.3 0 3.42 1.98 6.345 5.535 6.345 3.556 0 5.58-2.926 5.58-6.346zM343.3 297.934V284.21c0-2.025-.9-3.466-3.24-3.466-2.024 0-3.69 1.35-4.5 2.52v14.67h-5.76V284.21c0-2.025-.9-3.466-3.24-3.466-1.98 0-3.645 1.35-4.5 2.565v14.623h-5.714V276.2h5.715v2.835c.9-1.305 3.78-3.375 7.11-3.375 3.195 0 5.22 1.485 6.03 3.96 1.26-1.98 4.14-3.96 7.47-3.96 4.005 0 6.39 2.115 6.39 6.57v15.704h-5.76zM382.54 297.934V284.21c0-2.025-.9-3.466-3.24-3.466-2.024 0-3.69 1.35-4.5 2.52v14.67h-5.76V284.21c0-2.025-.9-3.466-3.24-3.466-1.98 0-3.645 1.35-4.5 2.565v14.623h-5.714V276.2h5.715v2.835c.9-1.305 3.78-3.375 7.11-3.375 3.195 0 5.22 1.485 6.03 3.96 1.26-1.98 4.14-3.96 7.47-3.96 4.005 0 6.39 2.115 6.39 6.57v15.704h-5.76zM393.43 287.044c0-6.3 4.636-11.385 11.25-11.385 6.48 0 10.89 4.86 10.89 11.97v1.26h-16.154c.36 2.744 2.564 5.04 6.255 5.04 1.846 0 4.41-.81 5.806-2.16l2.52 3.69c-2.16 1.978-5.58 3.014-8.954 3.014-6.617 0-11.612-4.455-11.612-11.43zm11.25-6.84c-3.555 0-5.085 2.655-5.354 4.815h10.71c-.137-2.07-1.576-4.816-5.356-4.816zM420.61 297.934V276.2h5.715v2.97c1.53-1.935 4.23-3.51 6.93-3.51v5.58c-.405-.09-.945-.135-1.575-.135-1.89 0-4.41 1.08-5.354 2.475v14.354h-5.716zM435.414 287.044c0-6.66 4.815-11.385 11.52-11.385 4.455 0 7.155 1.935 8.595 3.914l-3.735 3.51c-1.035-1.53-2.61-2.34-4.59-2.34-3.465 0-5.895 2.52-5.895 6.3s2.43 6.345 5.895 6.345c1.98 0 3.555-.9 4.59-2.34l3.734 3.464c-1.44 2.025-4.14 3.96-8.596 3.96-6.705 0-11.52-4.725-11.52-11.43zM458.77 287.044c0-6.3 4.635-11.385 11.25-11.385 6.478 0 10.89 4.86 10.89 11.97v1.26h-16.155c.36 2.744 2.564 5.04 6.255 5.04 1.845 0 4.41-.81 5.805-2.16l2.52 3.69c-2.16 1.978-5.58 3.014-8.954 3.014-6.616 0-11.61-4.455-11.61-11.43zm11.25-6.84c-3.556 0-5.086 2.655-5.355 4.815h10.71c-.137-2.07-1.576-4.816-5.356-4.816zM484.644 282.95c0-9.494 7.2-15.524 15.974-15.524 6.255 0 10.17 3.15 12.42 6.705l-5.31 2.88c-1.35-2.114-3.915-3.914-7.11-3.914-5.444 0-9.404 4.185-9.404 9.854s3.96 9.854 9.404 9.854c2.655 0 5.175-1.17 6.39-2.295v-3.6h-7.92v-5.58h14.31v11.52c-3.06 3.42-7.334 5.67-12.78 5.67-8.775 0-15.974-6.12-15.974-15.57zM532.298 297.934v-2.25c-1.485 1.755-4.05 2.79-6.885 2.79-3.465 0-7.56-2.34-7.56-7.2 0-5.084 4.095-7.02 7.56-7.02 2.88 0 5.444.945 6.885 2.655v-2.926c0-2.205-1.89-3.646-4.77-3.646-2.34 0-4.5.855-6.346 2.565l-2.16-3.825c2.655-2.34 6.075-3.42 9.495-3.42 4.95 0 9.494 1.98 9.494 8.235v14.04H532.3zm0-5.22v-2.7c-.945-1.26-2.745-1.89-4.59-1.89-2.25 0-4.095 1.17-4.095 3.285 0 2.023 1.845 3.193 4.095 3.193 1.845 0 3.645-.63 4.59-1.89zM545.708 292.535v-11.34h-3.6V276.2h3.6v-5.94h5.76v5.94h4.41v4.995h-4.41v9.81c0 1.35.72 2.385 1.98 2.385.854 0 1.664-.314 1.98-.63l1.214 4.32c-.855.765-2.385 1.395-4.77 1.395-4.004 0-6.164-2.07-6.164-5.94zM559.3 287.044c0-6.3 4.634-11.385 11.248-11.385 6.48 0 10.89 4.86 10.89 11.97v1.26h-16.154c.36 2.744 2.564 5.04 6.255 5.04 1.844 0 4.408-.81 5.804-2.16l2.52 3.69c-2.16 1.978-5.58 3.014-8.954 3.014-6.617 0-11.61-4.455-11.61-11.43zm11.248-6.84c-3.555 0-5.085 2.655-5.354 4.815h10.71c-.136-2.07-1.576-4.816-5.356-4.816z"/></g></svg>