<?xml version="1.0" encoding="UTF-8"?>
<svg width="1089" height="404.1" version="1.1" viewBox="0 0 1089 404.10001" xml:space="preserve" xmlns="http://www.w3.org/2000/svg" xmlns:cc="http://creativecommons.org/ns#" xmlns:dc="http://purl.org/dc/elements/1.1/" xmlns:rdf="http://www.w3.org/1999/02/22-rdf-syntax-ns#"><metadata><rdf:RDF><cc:Work rdf:about=""><dc:format>image/svg+xml</dc:format><dc:type rdf:resource="http://purl.org/dc/dcmitype/StillImage"/><dc:title/></cc:Work></rdf:RDF></metadata>
<style type="text/css">
	.st0{fill:#FF0000;}
	.st1{fill:#FFFFFF;}
</style>
<g transform="translate(-6.9,-6.9)">
		<path d="m79.5 14.4-72.6 212.7h42.7l20.5-62.1h58.9l21.1 62.1h43.6l-72.7-212.7zm39.2 115.3h-38.2l15.9-46.9c1.1-3.2 2.1-6.4 3-9.5 1 3.2 2 6.5 3.2 9.9z"/>
		<path d="m265.4 130.3c-19.6-7.8-21.8-11.4-21.8-17.1 0-7.2 6-11.6 15.7-11.6 11.5 0 20.5 4.6 24.8 7.3l8.4 5.3 11.1-33.8-5-3.2c-9.6-6.3-24.1-10-38.8-10-32.8 0-56.6 20.7-56.6 49.3 0 26.3 23.3 40.3 42.8 47.4 19.5 7.3 21 12.3 21 18.5 0 11.6-12.2 13.3-19.5 13.3-11.3 0-23.4-4.8-30.3-8.9l-8.3-4.9-10.9 34.3 5.3 3.1c11.9 7 27.9 11 43.7 11 36.1 0 60.4-20.3 60.4-50.5 0-30.3-24.1-42.8-42-49.5z"/>
		<path d="m371.5 33.4-40.6 12.3v24.3h-22v35h22v69.6c0 19.4 3.9 33.3 12 42.4 7.9 8.6 19.8 13.4 33.5 13.4 12.3 0 21.2-2.5 25.4-4l5.5-1.9-2.1-35.2-9.4 2.8c-2.8 0.8-6 1.4-12.7 1.4-4.9 0-11.6 0-11.6-19.8v-68.7h36.9v-35h-36.9z"/>
		<path d="m507.4 68.6-7.4-1c-2.2-0.3-4.4-0.6-7.3-0.6-12.8 0-24.7 5.3-33.7 14.5l-0.5-11.5h-38.2l0.5 8.2c0.8 12.1 1.2 26 1.2 43.7v105.2h41.2v-83.2c0-3.9 0.3-7.8 0.7-10.6 3-16.3 13.3-26.5 27-26.5 3.2 0 5.3 0 7.1 0.4l9.4 2z"/>
		<path d="m582.5 67.1c-45.9 0-78 34-78 82.7 0 47.5 31.1 80.6 75.6 80.6 37.7 0 78.3-26 78.3-83 0.1-47.3-31.2-80.3-75.9-80.3zm34.2 81.2c0 27.4-14.8 47.3-35.3 47.3-20.3 0-35-19.7-35-46.7 0-17.5 7.5-47 35.6-47 27.4-0.1 34.7 30.3 34.7 46.4z"/>
		<path d="m793.5 31.3c-13.5-12.2-33.9-18.4-60.5-18.4-17.8 0-34.7 1.3-50.2 3.9l-6.4 1.1v209.2h40.9v-77.7c4.2 0.4 8.6 0.5 12.8 0.5 27.6 0 51-8.5 65.8-24 11.6-11.9 17.4-27.9 17.4-47.5 0-19-7-35.7-19.8-47.1zm-21.1 48.5c0 29.7-26.2 34.2-41.8 34.2-5.2 0-9.6-0.2-13.3-0.7v-63.9c4-0.5 9.4-0.8 16.3-0.8 17.7 0 38.8 5.4 38.8 31.2z"/>
		<path d="m938.6 185.5v-53c0-42.2-21.9-65.4-61.6-65.4-18.4 0-37.5 5-50.9 13.5l-5.2 3.2 11.1 32.7 8.4-5.7c8.5-5.8 20.8-9.2 32.9-9.2 8.3-0.1 14.4 1.8 18.3 5.7 3.3 3.3 5.3 8.1 5.9 14.4-32.1 0.9-55.6 8.6-70 22.9-9.9 9.9-15 22.5-15 37.5 0 24.1 17.5 48.4 51.1 48.4 14.3 0 27.8-4.6 38.3-12.6l1.1 9.4h39l-1.4-8.9c-1.3-8.7-2-19.7-2-32.9zm-68.6 10.4c-6.1 0-16.3-2.2-16.3-16.8 0-5.7 1.7-10.1 5.3-13.6 4.8-4.7 15.5-10.1 39.3-10.6v16.9c0 1.2-0.1 3.5-0.8 5.7-2.8 8.4-11.8 18.4-27.5 18.4z"/>
		<path d="m1051.9 70-29.9 88.3c-0.8 2.2-1.5 4.5-2.2 6.8-0.8-2.2-1.5-4.3-2.3-6.3l-32.6-88.8h-44.9l56.3 141.1 0.2 0.4c0.9 1.8 1.2 2.9 1.3 3.3-0.3 0.8-0.9 2.2-1.3 3.1-4.9 10.4-12.1 20.1-19.4 25.9l-0.2 0.2c-8.2 7-16.6 10.1-19.9 11.1l-7.2 2.3 10.6 35.2 6.8-1.2c4.1-0.7 18.7-4.2 35.4-18.2 20-17.7 33.3-45.9 50.7-91.7l42.6-111.5z"/>
		<path class="st0" d="m157.2 72.9c26.5-27.1 71.5-43.2 120.3-43.2 19 0 37.6 2.4 55.1 7.3l1.4 0.4 31.3-9.5-14-5.4c-26.6-10.2-57.4-15.6-89-15.6-45.9 0-88.7 11.1-120.6 31.2l-3.4 2.2 13.2 38.6z" fill="#f00"/>
	<path class="st0" d="m877.3 402.8c-3.8 5-9.8 8.2-16.5 8.2h-286.4c-11.4 0-20.7-9.4-20.7-20.7v-102.4c0-11.4 9.3-20.7 20.7-20.7h286.4c6.7 0 12.7 3.2 16.5 8.3 8 10.6 15.9 21.2 24 31.8 28.4 37.8 28.4 25.9 0 63.7z" fill="#f00"/>
	<g fill="#fff">
		<path class="st1" d="m645.8 341.4c0 12.1-3.4 21.4-10.1 27.8s-16.5 9.7-29.1 9.7h-20.6v-73.6h22.7c11.7 0 20.8 3.2 27.3 9.5s9.8 15.1 9.8 26.6zm-12.7 0.4c0-17.6-8.2-26.4-24.7-26.4h-10.4v53.3h8.6c17.6 0 26.5-8.9 26.5-26.9z"/>
		<path class="st1" d="m659.6 308.5c0-2.1 0.6-3.7 1.7-4.9 1.1-1.1 2.8-1.7 5-1.7 2.1 0 3.7 0.6 4.8 1.7 1.2 1.2 1.7 2.8 1.7 4.9 0 2-0.6 3.6-1.7 4.8s-2.8 1.7-4.8 1.7c-2.2 0-3.8-0.6-5-1.7-1.1-1.2-1.7-2.8-1.7-4.8zm12.6 70.4h-11.8v-55.7h11.8z"/>
		<path class="st1" d="m717.3 322.2c2.4 0 4.4 0.2 5.9 0.5l-1.2 11c-1.7-0.4-3.5-0.6-5.2-0.6-4.7 0-8.5 1.6-11.5 4.6-2.9 3.1-4.4 7.1-4.4 12v29.1h-11.8v-55.7h9.2l1.6 9.8h0.6c1.8-3.3 4.2-6 7.2-7.9 3-1.8 6.2-2.8 9.6-2.8z"/>
		<path class="st1" d="m757.8 379.9c-8.7 0-15.4-2.5-20.3-7.6s-7.3-12-7.3-20.9c0-9.1 2.3-16.2 6.8-21.4s10.7-7.8 18.7-7.8c7.4 0 13.2 2.3 17.4 6.7 4.3 4.5 6.4 10.6 6.4 18.4v6.4h-37.1c0.2 5.4 1.6 9.6 4.4 12.5s6.6 4.4 11.6 4.4c3.3 0 6.4-0.3 9.2-0.9s5.9-1.7 9.1-3.1v9.6c-2.9 1.4-5.8 2.3-8.8 2.9-3 0.5-6.3 0.8-10.1 0.8zm-2.2-48.7c-3.8 0-6.8 1.2-9 3.6-2.3 2.4-3.6 5.9-4.1 10.4h25.2c0-4.6-1.2-8.1-3.3-10.4-2.1-2.4-5-3.6-8.8-3.6z"/>
		<path class="st1" d="m815.3 379.9c-8.5 0-14.8-2.5-19.2-7.4s-6.6-12-6.6-21.2c0-9.4 2.3-16.6 6.9-21.6s11.2-7.5 19.9-7.5c5.8 0 11.1 1.1 15.8 3.3l-3.6 9.5c-5-1.9-9.1-2.9-12.4-2.9-9.6 0-14.4 6.4-14.4 19.2 0 6.2 1.2 10.9 3.6 14s5.9 4.7 10.6 4.7c5.3 0 10.3-1.3 15-3.9v10.3c-2.1 1.3-4.4 2.1-6.8 2.7-2.5 0.5-5.4 0.8-8.8 0.8z"/>
		<path class="st1" d="m864.6 370.3c2.9 0 5.7-0.5 8.7-1.4v8.9c-1.4 0.6-3 1-5.1 1.4s-4.2 0.6-6.4 0.6c-11.2 0-16.8-5.9-16.8-17.7v-30h-7.6v-5.2l8.2-4.3 4-11.8h7.3v12.4h15.9v9h-15.9v29.8c0 2.9 0.8 5 2.2 6.3 1.3 1.3 3.2 2 5.5 2z"/>
	</g>
</g>
</svg>
