<svg xmlns="http://www.w3.org/2000/svg" id="Layer_1" data-name="Layer 1" width="3.333in" height="0.662in"
     viewBox="0 0 239.999 47.683">
    <defs>
        <style>
            .cls-1 {
            fill: #fff;
            }

            .cls-1, .cls-2, .cls-3, .cls-4 {
            fill-rule: evenodd;
            }

            .cls-2 {
            fill: #009940;
            }

            .cls-3 {
            fill: #00cc5c;
            }

            .cls-4 {
            fill: #4a5969;
            }
        </style>
    </defs>
    <g>
        <path class="cls-1" d="M23.841,0A23.841,23.841,0,0,0,0,23.841V47.683H23.841A23.841,23.841,0,1,0,23.841,0"/>
        <path class="cls-2"
              d="M23.841,0A23.841,23.841,0,0,0,0,23.841V47.683H23.841A23.841,23.841,0,1,0,23.841,0m0,35.76H11.921V23.841a11.921,11.921,0,1,1,11.92,11.92"/>
        <path class="cls-3"
              d="M11.922,35.762h0l0-.006,0-.005V23.841a11.92,11.92,0,0,1,20.348-8.43l0,0,14.6,14.6A23.842,23.842,0,1,0,0,23.842v23.84H23.842Z"/>
        <g>
            <path class="cls-4"
                  d="M90.069,17.5a15.084,15.084,0,0,0-3.763.408,18.868,18.868,0,0,0-3.052,1.084l1.12,3.289a17.814,17.814,0,0,1,2.406-.814,10.947,10.947,0,0,1,2.712-.3,4.861,4.861,0,0,1,3.272.983A3.564,3.564,0,0,1,93.9,24.988v.34a16.745,16.745,0,0,0-2.186-.542,15.925,15.925,0,0,0-2.763-.2,11.24,11.24,0,0,0-2.9.356,6.567,6.567,0,0,0-2.305,1.085,5.064,5.064,0,0,0-1.509,1.831,5.8,5.8,0,0,0-.544,2.593v.067a5.115,5.115,0,0,0,1.916,4.12,6.018,6.018,0,0,0,2.018,1.051,8.262,8.262,0,0,0,2.441.356,7.363,7.363,0,0,0,3.457-.747,7.641,7.641,0,0,0,2.34-1.83v2.2h4.068V25.057A7.658,7.658,0,0,0,96,19.48Q94.069,17.5,90.069,17.5Zm3.9,11.7a3.334,3.334,0,0,1-.355,1.542,3.462,3.462,0,0,1-1,1.187,4.853,4.853,0,0,1-1.51.763,6.276,6.276,0,0,1-1.88.27,4.26,4.26,0,0,1-2.458-.678,2.222,2.222,0,0,1-1-1.965v-.069a2.342,2.342,0,0,1,1.084-2.033,5.271,5.271,0,0,1,3.017-.746,12.084,12.084,0,0,1,2.254.2,10.558,10.558,0,0,1,1.848.508Z"/>
            <path class="cls-4"
                  d="M108.526,31.058l-5.085-13.29H99.068l7.458,17.9a4.041,4.041,0,0,1-1.085,1.627,2.329,2.329,0,0,1-1.458.441,4.083,4.083,0,0,1-1.237-.188,6.886,6.886,0,0,1-1.17-.49l-1.39,3.051a10.019,10.019,0,0,0,1.95.8,8.269,8.269,0,0,0,2.288.289,6.359,6.359,0,0,0,1.932-.271,4.635,4.635,0,0,0,1.56-.865,6.117,6.117,0,0,0,1.288-1.542,15.233,15.233,0,0,0,1.119-2.34l7.12-18.408h-4.272Z"/>
            <path class="cls-4"
                  d="M78.748,14.107A7.988,7.988,0,0,0,75.9,12.5a11.8,11.8,0,0,0-3.746-.56H62.8V35.668h4.136V28.04h4.723a12.677,12.677,0,0,0,3.7-.526,9.076,9.076,0,0,0,3.024-1.542,7.282,7.282,0,0,0,2.039-2.526,7.8,7.8,0,0,0,.748-3.508V19.87a8.141,8.141,0,0,0-.627-3.255A7.119,7.119,0,0,0,78.748,14.107Zm-1.814,5.916a3.871,3.871,0,0,1-1.377,3.063,5.562,5.562,0,0,1-3.76,1.191H66.933V15.7H71.8a5.983,5.983,0,0,1,3.741,1.072,3.765,3.765,0,0,1,1.395,3.183Z"/>
            <path class="cls-4"
                  d="M170.4,17.5a15.1,15.1,0,0,0-3.763.408,18.912,18.912,0,0,0-3.05,1.084l1.118,3.289a17.92,17.92,0,0,1,2.407-.814,10.952,10.952,0,0,1,2.712-.3,4.861,4.861,0,0,1,3.272.983,3.564,3.564,0,0,1,1.136,2.847v.34a16.8,16.8,0,0,0-2.187-.542,15.933,15.933,0,0,0-2.763-.2,11.24,11.24,0,0,0-2.9.356,6.58,6.58,0,0,0-2.306,1.085,5.051,5.051,0,0,0-1.508,1.831,5.788,5.788,0,0,0-.543,2.593v.067a5.111,5.111,0,0,0,1.915,4.12,6.018,6.018,0,0,0,2.018,1.051,8.262,8.262,0,0,0,2.441.356,7.36,7.36,0,0,0,3.457-.747,7.641,7.641,0,0,0,2.34-1.83v2.2h4.068V25.057a7.654,7.654,0,0,0-1.933-5.577Q174.405,17.5,170.4,17.5Zm3.9,11.7a3.322,3.322,0,0,1-.356,1.542,3.448,3.448,0,0,1-1,1.187,4.843,4.843,0,0,1-1.508.763,6.283,6.283,0,0,1-1.882.27,4.259,4.259,0,0,1-2.457-.678,2.224,2.224,0,0,1-1-1.965v-.069a2.342,2.342,0,0,1,1.084-2.033,5.273,5.273,0,0,1,3.018-.746,12.084,12.084,0,0,1,2.254.2,10.547,10.547,0,0,1,1.847.508Z"/>
            <polygon class="cls-4"
                     points="207.587 23.158 199.932 11.937 195.222 11.937 195.222 35.667 199.607 35.667 199.607 18.717 207.479 29.837 207.623 29.837 215.567 18.65 215.567 35.667 219.951 35.667 219.951 11.937 215.243 11.937 207.587 23.158"/>
            <path class="cls-4"
                  d="M186.105,21.8V17.768h-4.136v17.9h4.137V28.854a9.931,9.931,0,0,1,.44-3.1,5.976,5.976,0,0,1,1.255-2.22,5.184,5.184,0,0,1,1.932-1.322,6.709,6.709,0,0,1,2.475-.441h.237V17.429a5.774,5.774,0,0,0-3.933,1.118A7.884,7.884,0,0,0,186.105,21.8Z"/>
            <polygon class="cls-4"
                     points="135.933 28.345 123.246 11.937 119.39 11.937 119.389 35.668 123.525 35.668 123.525 18.785 136.584 35.667 140.069 35.667 140.069 11.937 135.933 11.937 135.933 28.345"/>
            <path class="cls-4"
                  d="M157.832,20.276a7.7,7.7,0,0,0-2.679-2.1,8.5,8.5,0,0,0-3.745-.78,8.376,8.376,0,0,0-3.526.73,8.534,8.534,0,0,0-2.763,2,9.089,9.089,0,0,0-1.814,2.966,10.133,10.133,0,0,0-.644,3.627v.068a9.753,9.753,0,0,0,.711,3.78,8.646,8.646,0,0,0,4.866,4.83,9.524,9.524,0,0,0,3.61.68,9.207,9.207,0,0,0,4.255-.916,9.894,9.894,0,0,0,3.068-2.441l-2.407-2.135a8.6,8.6,0,0,1-2.2,1.593,6,6,0,0,1-2.645.542,5.15,5.15,0,0,1-3.407-1.169,5.232,5.232,0,0,1-1.746-3.373h13.154c.021-.2.039-.4.051-.594a12.355,12.355,0,0,0-.526-4.238A9.146,9.146,0,0,0,157.832,20.276Zm-11.1,5.188a5.9,5.9,0,0,1,1.509-3.408,4.139,4.139,0,0,1,3.136-1.3,4.229,4.229,0,0,1,1.814.373,4.362,4.362,0,0,1,1.373,1,4.74,4.74,0,0,1,.915,1.492,7,7,0,0,1,.44,1.848Z"/>
            <path class="cls-4"
                  d="M239.458,23.345a9.167,9.167,0,0,0-1.61-3.067,7.7,7.7,0,0,0-2.679-2.1,8.5,8.5,0,0,0-3.746-.78,8.394,8.394,0,0,0-3.526.728,8.53,8.53,0,0,0-2.762,2,9.106,9.106,0,0,0-1.814,2.966,10.143,10.143,0,0,0-.644,3.628v.068a9.764,9.764,0,0,0,.711,3.78,8.648,8.648,0,0,0,4.866,4.829,9.524,9.524,0,0,0,3.61.68h0a9.207,9.207,0,0,0,4.255-.916,9.89,9.89,0,0,0,3.067-2.441l-2.406-2.135a8.579,8.579,0,0,1-2.2,1.593,6,6,0,0,1-2.644.543,5.155,5.155,0,0,1-3.408-1.17,5.229,5.229,0,0,1-1.745-3.373h13.154c.021-.2.039-.4.05-.594A12.357,12.357,0,0,0,239.458,23.345Zm-12.714,2.118a5.9,5.9,0,0,1,1.51-3.408,4.139,4.139,0,0,1,3.136-1.3,4.221,4.221,0,0,1,1.813.373,4.362,4.362,0,0,1,1.373,1,4.761,4.761,0,0,1,.916,1.492,7.077,7.077,0,0,1,.44,1.848Z"/>
        </g>
    </g>
</svg>