<?xml version="1.0" encoding="UTF-8" standalone="no"?>
<!-- Created with Inkscape (http://www.inkscape.org/) -->

<svg
   xmlns:dc="http://purl.org/dc/elements/1.1/"
   xmlns:cc="http://creativecommons.org/ns#"
   xmlns:rdf="http://www.w3.org/1999/02/22-rdf-syntax-ns#"
   xmlns:svg="http://www.w3.org/2000/svg"
   xmlns="http://www.w3.org/2000/svg"
   xmlns:sodipodi="http://sodipodi.sourceforge.net/DTD/sodipodi-0.dtd"
   xmlns:inkscape="http://www.inkscape.org/namespaces/inkscape"
   width="28.60121mm"
   height="20.536072mm"
   viewBox="0 0 101.34287 72.765608"
   id="svg7681"
   version="1.1"
   inkscape:version="0.91 r13725"
   sodipodi:docname="Faster_Payments_logo.svg">
  <defs
     id="defs7683" />
  <sodipodi:namedview
     id="base"
     pagecolor="#ffffff"
     bordercolor="#666666"
     borderopacity="1.0"
     inkscape:pageopacity="0.0"
     inkscape:pageshadow="2"
     inkscape:zoom="7.4210879"
     inkscape:cx="50.671435"
     inkscape:cy="36.382805"
     inkscape:document-units="px"
     inkscape:current-layer="layer1"
     showgrid="false"
     fit-margin-top="0"
     fit-margin-left="0"
     fit-margin-right="0"
     fit-margin-bottom="0"
     inkscape:window-width="1358"
     inkscape:window-height="727"
     inkscape:window-x="0"
     inkscape:window-y="18"
     inkscape:window-maximized="0" />
  <metadata
     id="metadata7686">
    <rdf:RDF>
      <cc:Work
         rdf:about="">
        <dc:format>image/svg+xml</dc:format>
        <dc:type
           rdf:resource="http://purl.org/dc/dcmitype/StillImage" />
        <dc:title></dc:title>
      </cc:Work>
    </rdf:RDF>
  </metadata>
  <g
     inkscape:label="Layer 1"
     inkscape:groupmode="layer"
     id="layer1"
     transform="translate(-183.61427,-144.55083)">
    <g
       id="g300"
       transform="matrix(1.25,0,0,-1.25,190.59052,198.00757)">
      <path
         d="m 0,0 -0.732,0 -0.73,-4.083 0.711,0 c 1.685,0 2.437,0.876 2.437,2.519 C 1.686,-0.528 1.117,0 0,0 m -0.935,-6.254 -0.914,0 -0.891,-5.114 -2.841,0 2.393,13.539 3.755,0 c 2.212,0 4.121,-0.854 4.121,-3.491 0,-3.411 -2.273,-4.934 -5.623,-4.934"
         style="fill:#176fc1;fill-opacity:1;fill-rule:nonzero;stroke:none"
         id="path302"
         inkscape:connector-curvature="0" />
    </g>
    <g
       id="g304"
       transform="matrix(1.25,0,0,-1.25,202.19452,203.23519)">
      <path
         d="m 0,0 c -1.049,0 -2.079,-1.747 -2.079,-3.671 0,-0.991 0.235,-1.573 0.719,-1.573 0.835,0 2.021,1.904 2.467,4.39 l 0.078,0.427 C 1.01,-0.289 0.718,0 0,0 m 2.603,-7.186 -2.622,0 0.234,1.361 c -0.445,-0.7 -1.108,-1.557 -2.603,-1.557 -1.245,0 -2.448,0.974 -2.448,3.419 0,3.516 2.079,6.101 4.485,6.101 1.361,0 1.865,-0.563 2.042,-0.739 l 0.096,0.543 2.429,0 -1.613,-9.128 z"
         style="fill:#176fc1;fill-opacity:1;fill-rule:nonzero;stroke:none"
         id="path306"
         inkscape:connector-curvature="0" />
    </g>
    <g
       id="g308"
       transform="matrix(1.25,0,0,-1.25,214.59814,211.51519)">
      <path
         d="m 0,0 c -1.339,-2.678 -2.678,-4.251 -5.787,-4.641 l -0.29,1.903 c 1.185,0.37 2.388,0.97 3.05,2.313 l 0.269,0.544 -1.59,8.447 2.778,0 0.698,-4.971 2.292,4.971 2.893,0 L 0,0 Z"
         style="fill:#176fc1;fill-opacity:1;fill-rule:nonzero;stroke:none"
         id="path310"
         inkscape:connector-curvature="0" />
    </g>
    <g
       id="g312"
       transform="matrix(1.25,0,0,-1.25,235.86889,212.21769)">
      <path
         d="m 0,0 -2.622,0 1.068,6.021 c 0.076,0.387 0.058,0.777 -0.387,0.777 -0.817,0 -2.275,-1.943 -2.681,-4.274 L -5.068,0 -7.694,0 -6.622,6.021 c 0.075,0.387 0.059,0.777 -0.39,0.777 -0.816,0 -2.271,-1.943 -2.682,-4.274 L -10.139,0 l -2.621,0 1.611,9.128 2.621,0 -0.368,-2.137 c 0.583,0.954 1.496,2.333 3.068,2.333 1.418,0 2.041,-0.914 1.942,-2.372 0.505,0.838 1.458,2.372 3.128,2.372 1.613,0 2.195,-1.186 1.864,-3.049 L 0,0 Z"
         style="fill:#176fc1;fill-opacity:1;fill-rule:nonzero;stroke:none"
         id="path314"
         inkscape:connector-curvature="0" />
    </g>
    <g
       id="g316"
       transform="matrix(1.25,0,0,-1.25,245.40989,202.89406)">
      <path
         d="m 0,0 c -0.815,0 -1.593,-1.031 -1.904,-2.507 1.729,0.233 2.778,0.64 2.778,1.653 C 0.874,-0.273 0.523,0 0,0 m -2.04,-4.004 c 0.04,-1.006 0.468,-1.513 1.341,-1.513 1.01,0 1.979,0.525 2.7,0.97 L 2.72,-6.255 c -0.603,-0.447 -1.904,-1.4 -3.787,-1.4 -2.04,0 -3.671,0.99 -3.671,3.749 0,3.206 1.766,5.771 4.876,5.771 2.33,0 3.339,-1.012 3.339,-2.565 0,-2.525 -2.059,-3.128 -5.517,-3.304"
         style="fill:#176fc1;fill-opacity:1;fill-rule:nonzero;stroke:none"
         id="path318"
         inkscape:connector-curvature="0" />
    </g>
    <g
       id="g320"
       transform="matrix(1.25,0,0,-1.25,260.63202,212.21769)">
      <path
         d="m 0,0 -2.622,0 1.068,6.021 c 0.079,0.387 0.059,0.777 -0.387,0.777 -0.816,0 -2.274,-1.943 -2.681,-4.274 L -5.067,0 l -2.624,0 1.612,9.128 2.623,0 -0.368,-2.137 c 0.582,0.954 1.494,2.333 3.067,2.333 1.612,0 2.194,-1.186 1.867,-3.049 L 0,0 Z"
         style="fill:#176fc1;fill-opacity:1;fill-rule:nonzero;stroke:none"
         id="path322"
         inkscape:connector-curvature="0" />
    </g>
    <g
       id="g324"
       transform="matrix(1.25,0,0,-1.25,270.83102,203.23519)">
      <path
         d="m 0,0 -1.359,0 -0.795,-4.505 c -0.082,-0.39 0.055,-0.582 0.347,-0.582 0.272,0 0.487,0.075 0.74,0.192 l 0.27,-1.805 c -0.389,-0.253 -1.127,-0.682 -2.176,-0.682 -1.358,0 -2.153,0.857 -1.826,2.7 L -3.981,0 l -0.972,0 0.347,1.942 0.973,0 0.543,1.981 2.527,0.545 -0.449,-2.526 1.361,0 L 0,0 Z"
         style="fill:#176fc1;fill-opacity:1;fill-rule:nonzero;stroke:none"
         id="path326"
         inkscape:connector-curvature="0" />
    </g>
    <g
       id="g328"
       transform="matrix(1.25,0,0,-1.25,279.98264,204.27957)">
      <path
         d="m 0,0 c -0.562,0.389 -1.457,0.815 -2.153,0.815 -0.546,0 -0.916,-0.193 -0.916,-0.64 0,-0.407 0.41,-0.585 0.954,-0.815 l 0.504,-0.214 c 0.932,-0.388 1.963,-1.009 1.963,-2.641 0,-1.942 -1.031,-3.051 -3.362,-3.051 -1.902,0 -3.012,0.837 -3.709,1.34 l 1.028,1.806 c 0.681,-0.502 1.748,-0.988 2.449,-0.988 0.603,0 0.852,0.212 0.852,0.659 0,0.447 -0.426,0.643 -0.969,0.856 l -0.525,0.211 c -0.93,0.37 -1.923,0.992 -1.923,2.606 0,2.096 1.615,3.029 3.632,3.029 1.632,0 2.644,-0.817 3.108,-1.164 L 0,0 Z"
         style="fill:#176fc1;fill-opacity:1;fill-rule:nonzero;stroke:none"
         id="path330"
         inkscape:connector-curvature="0" />
    </g>
    <g
       id="g332"
       transform="matrix(1.25,0,0,-1.25,235.90427,181.30894)">
      <path
         d="m 0,0 -5.663,0 -0.55,-3.148 4.386,0 -0.407,-2.334 -4.383,0 -1.016,-5.724 -2.843,0 2.398,13.539 8.503,0 L 0,0 Z"
         style="fill:#176fc1;fill-opacity:1;fill-rule:nonzero;stroke:none"
         id="path334"
         inkscape:connector-curvature="0" />
    </g>
    <g
       id="g336"
       transform="matrix(1.25,0,0,-1.25,240.37814,186.33219)">
      <path
         d="m 0,0 c -1.049,0 -2.079,-1.749 -2.079,-3.671 0,-0.992 0.233,-1.574 0.719,-1.574 0.835,0 2.021,1.902 2.465,4.389 l 0.08,0.427 C 1.011,-0.292 0.72,0 0,0 m 2.601,-7.187 -2.622,0 0.234,1.36 c -0.446,-0.7 -1.106,-1.555 -2.603,-1.555 -1.243,0 -2.446,0.972 -2.446,3.417 0,3.517 2.079,6.101 4.484,6.101 1.363,0 1.866,-0.564 2.042,-0.738 l 0.097,0.543 2.428,0 -1.614,-9.128 z"
         style="fill:#176fc1;fill-opacity:1;fill-rule:nonzero;stroke:none"
         id="path338"
         inkscape:connector-curvature="0" />
    </g>
    <g
       id="g340"
       transform="matrix(1.25,0,0,-1.25,254.73114,187.37769)">
      <path
         d="m 0,0 c -0.565,0.389 -1.458,0.817 -2.157,0.817 -0.544,0 -0.914,-0.196 -0.914,-0.641 0,-0.408 0.41,-0.582 0.951,-0.816 l 0.505,-0.215 c 0.933,-0.388 1.963,-1.007 1.963,-2.64 0,-1.944 -1.03,-3.05 -3.36,-3.05 -1.904,0 -3.009,0.835 -3.711,1.338 l 1.032,1.808 c 0.677,-0.504 1.747,-0.99 2.446,-0.99 0.599,0 0.855,0.213 0.855,0.66 0,0.447 -0.428,0.641 -0.972,0.856 l -0.524,0.212 c -0.931,0.37 -1.923,0.99 -1.923,2.603 0,2.097 1.613,3.03 3.632,3.03 1.63,0 2.641,-0.815 3.108,-1.163 L 0,0 Z"
         style="fill:#176fc1;fill-opacity:1;fill-rule:nonzero;stroke:none"
         id="path342"
         inkscape:connector-curvature="0" />
    </g>
    <g
       id="g344"
       transform="matrix(1.25,0,0,-1.25,263.83402,186.33219)">
      <path
         d="m 0,0 -1.359,0 -0.798,-4.509 c -0.076,-0.387 0.058,-0.582 0.349,-0.582 0.274,0 0.487,0.079 0.739,0.195 l 0.27,-1.805 c -0.388,-0.254 -1.126,-0.681 -2.173,-0.681 -1.358,0 -2.157,0.855 -1.825,2.699 L -3.981,0 l -0.974,0 0.351,1.941 0.971,0 0.544,1.981 2.525,0.545 -0.448,-2.526 1.361,0 L 0,0 Z"
         style="fill:#176fc1;fill-opacity:1;fill-rule:nonzero;stroke:none"
         id="path346"
         inkscape:connector-curvature="0" />
    </g>
    <g
       id="g348"
       transform="matrix(1.25,0,0,-1.25,270.70414,185.99282)">
      <path
         d="m 0,0 c -0.815,0 -1.594,-1.029 -1.902,-2.504 1.728,0.232 2.776,0.639 2.776,1.649 C 0.874,-0.271 0.526,0 0,0 m -2.04,-4.001 c 0.04,-1.01 0.467,-1.515 1.342,-1.515 1.011,0 1.98,0.524 2.7,0.97 L 2.72,-6.254 c -0.603,-0.447 -1.905,-1.399 -3.788,-1.399 -2.039,0 -3.671,0.99 -3.671,3.747 0,3.206 1.767,5.77 4.878,5.77 2.328,0 3.337,-1.01 3.337,-2.564 0,-2.525 -2.058,-3.127 -5.516,-3.301"
         style="fill:#176fc1;fill-opacity:1;fill-rule:nonzero;stroke:none"
         id="path350"
         inkscape:connector-curvature="0" />
    </g>
    <g
       id="g352"
       transform="matrix(1.25,0,0,-1.25,284.32589,187.20731)">
      <path
         d="m 0,0 c -1.321,0 -2.838,-1.126 -3.341,-3.963 l -0.447,-2.524 -2.622,0 1.613,9.129 2.563,0 -0.329,-1.923 c 0.599,1.359 1.3,2.117 3.068,2.117 L 0,0 Z"
         style="fill:#176fc1;fill-opacity:1;fill-rule:nonzero;stroke:none"
         id="path354"
         inkscape:connector-curvature="0" />
    </g>
    <g
       id="g356"
       transform="matrix(1.25,0,0,-1.25,234.83502,168.08632)">
      <path
         d="m 0,0 0,-0.046 c -0.004,-0.652 -0.519,-1.306 -1.539,-1.798 l -34.184,-16.557 c -2.055,-0.997 -2.815,-0.185 -1.696,1.803 l 6.255,11.114 c 0.907,1.622 1.426,3.492 1.426,5.484 0,1.993 -0.519,3.864 -1.426,5.484 l -6.255,11.114 c -1.119,1.989 -0.359,2.801 1.696,1.804 L -1.539,1.846 C -0.519,1.349 -0.004,0.698 0,0.046 L 0,0 Z"
         style="fill:#176fc1;fill-opacity:1;fill-rule:nonzero;stroke:none"
         id="path358"
         inkscape:connector-curvature="0" />
    </g>
  </g>
</svg>
