<?xml version="1.0" encoding="UTF-8"?>
<svg xmlns="http://www.w3.org/2000/svg" width="230" height="200" viewBox="0 0 230 200" fill="none">
  <path fill-rule="evenodd" clip-rule="evenodd" d="M188.81 109.288C188.81 159.404 148.168 200 98.0752 200C47.9823 200 7.36328 159.404 7.36328 109.288C7.36328 59.1719 47.9822 18.5527 98.098 18.5527C148.214 18.5527 188.833 59.1719 188.833 109.288H188.81Z" fill="#BDBCBC"></path>
  <path fill-rule="evenodd" clip-rule="evenodd" d="M99.4031 80.7055C107.207 75.2819 123.774 64.8926 138.146 51.5054C148.42 41.8942 152.631 35.9443 154.645 29.7885C156.704 23.6327 155.148 20.4976 154.164 19.2848C153.18 18.0719 149.588 13.9757 138.374 19.3992C127.138 24.8227 110.982 38.8277 108.694 40.75C106.406 42.6722 96.5197 51.4826 80.4552 68.8515C64.4136 86.2205 52.5826 108.418 52.5826 108.418C52.5826 108.418 87.5721 88.875 99.3802 80.6597L99.4031 80.7055ZM0.24707 135.947C0.24707 135.947 9.40064 131.6 16.1743 127.984C22.925 124.368 31.7354 119.173 31.7354 119.173C31.7354 119.173 34.6416 99.2644 62.1481 62.4669C78.2126 40.9559 111.852 11.4355 140.182 1.54965C146.041 -0.487027 156.499 -1.28797 164.325 4.08978C172.403 9.62771 173.227 22.0308 172.54 26.7678C171.854 31.5506 168.81 43.0612 153.821 58.7368C138.878 74.4123 110.868 91.3923 95.1925 100.111C73.7274 112.057 53.5895 119.425 49.951 123.407C48.3262 125.192 45.214 132.217 48.6237 137.755C50.9121 141.508 59.1274 144.277 69.4938 144.506C79.8602 144.758 99.6548 142.103 114.369 139.449C129.084 136.794 158.993 128.831 173.227 124.483C187.46 120.135 190.504 118.807 200.481 114.826C203.914 113.452 216.088 108.052 219.2 107.594C222.45 107.114 226.478 106.587 229.086 111.347C230.391 113.75 230.642 118.578 227.507 121.004C220.642 126.29 193.845 135.604 171.053 143.453C156.888 148.328 126.223 157.115 88.4188 159.976C69.3565 161.417 51.2782 160.205 40.7745 154.781C27.4789 147.893 28.4629 133.659 28.4629 133.659L4.82386 144.392L0.24707 135.947Z" fill="#AD221B"></path>
</svg>
