<?xml version="1.0" encoding="UTF-8"?>
<svg width="760.95" height="848.66" version="1.1" viewBox="0 0 58.671142 65.433636" xmlns="http://www.w3.org/2000/svg" xmlns:cc="http://creativecommons.org/ns#" xmlns:dc="http://purl.org/dc/elements/1.1/" xmlns:rdf="http://www.w3.org/1999/02/22-rdf-syntax-ns#">
<metadata>
<rdf:RDF>
<cc:Work rdf:about="">
<dc:format>image/svg+xml</dc:format>
<dc:type rdf:resource="http://purl.org/dc/dcmitype/StillImage"/>
<dc:title/>
</cc:Work>
</rdf:RDF>
</metadata>
<path d="m40.946 12.549c2.5-3.071 3.106-6.72 1.351-8.124s-5.226-0.044-7.725 3.027c-2.5 3.071-3.106 6.72-1.351 8.124s5.225 0.044 7.725-3.027zm5.58 33.803c13.106-16.405 16.073-35.898 6.605-43.396-9.468-7.498-27.878-0.233-40.985 16.171-13.106 16.405-16.073 35.899-6.605 43.395 2.221 1.76 4.934 2.705 7.956 2.912 2.503-0.992 4.204-3.609 4.748-5.084 0.588-1.598 6.125-16.732 6.808-24.121 0.504-5.462-1.691-5.71-2.942-5.21-1.26 0.505-3.529 1.681-5.042 1.765s-1.681-0.84-0.841-1.933c0.841-1.092 12.695-12.312 17.061-11.766 3.361 0.42 3.95 3.866 3.193 6.051-0.756 2.185-3.277 11.597-4.286 16.472-1.008 4.875-2.185 11.682-1.849 14.287 0.258 2.002 1.063 2.963 2.071 3.451 4.938-3.215 9.808-7.613 14.108-12.994z" clip-rule="evenodd" fill="#d2562e" fill-rule="evenodd"/>
<path d="m40.946 12.549c2.5-3.071 3.106-6.72 1.351-8.124s-5.226-0.044-7.725 3.027c-2.5 3.071-3.106 6.72-1.351 8.124s5.225 0.044 7.725-3.027zm8.019 26.313c10.892-13.752 12.525-30.097 3.636-36.382-8.889-6.286-25.023-0.196-35.915 13.558-10.892 13.753-12.525 30.096-3.636 36.383 2.044 1.445 4.472 2.234 7.13 2.428 1.861-5.506 4.422-13.746 4.872-18.619 0.504-5.462-1.691-5.71-2.942-5.21-1.26 0.505-3.529 1.681-5.042 1.765s-1.681-0.84-0.841-1.933c0.841-1.092 12.695-12.312 17.061-11.766 3.361 0.42 3.95 3.866 3.193 6.051-0.756 2.185-3.277 11.597-4.286 16.472-0.746 3.605-1.583 8.27-1.833 11.506 6.473-2.47 13.186-7.413 18.603-14.253z" clip-rule="evenodd" fill="#ba2a2f" fill-rule="evenodd"/>
</svg>
