<?xml version="1.0" encoding="UTF-8"?>
<svg width="2426.6" height="868.24" version="1.1" viewBox="0 0 187.09729 66.943636" xmlns="http://www.w3.org/2000/svg" xmlns:cc="http://creativecommons.org/ns#" xmlns:dc="http://purl.org/dc/elements/1.1/" xmlns:rdf="http://www.w3.org/1999/02/22-rdf-syntax-ns#">
<metadata>
<rdf:RDF>
<cc:Work rdf:about="">
<dc:format>image/svg+xml</dc:format>
<dc:type rdf:resource="http://purl.org/dc/dcmitype/StillImage"/>
<dc:title/>
</cc:Work>
</rdf:RDF>
</metadata>
<path d="m67.125 35.567-8.137 30.369h11.432l8.137-30.369zm35.79 11.529h10.59c0.19699-1 0.252-2.219 0.16399-3.654-0.09-1.438-0.58199-2.812-1.477-4.125-0.896-1.312-2.334-2.438-4.312-3.375-1.978-0.937-4.777-1.406-8.395-1.406-2.318 0-4.6 0.32-6.843 0.961-2.244 0.641-4.318 1.633-6.224 2.977-1.906 1.344-3.595 3.062-5.069 5.156-1.474 2.092-2.6 4.592-3.379 7.498-1.272 4.748-0.758 8.467 1.542 11.154 2.301 2.686 6.209 4.092 11.725 4.217 2.398 0.094 4.717-0.172 6.957-0.797 2.24-0.625 4.295-1.516 6.168-2.67 1.873-1.156 3.49-2.508 4.854-4.055 1.364-1.547 2.35-3.195 2.957-4.945h-11.115c-0.479 0.99999-1.023 1.82-1.635 2.461-0.60901 0.641-1.246 1.148-1.908 1.523-0.662 0.37499-1.328 0.63299-1.998 0.77299-0.67001 0.14-1.287 0.211-1.849 0.211-1.475 0-2.576-0.414-3.302-1.242-0.727-0.82799-1.16-1.867-1.299-3.117-0.14-1.248-3e-3 -2.607 0.40701-4.076a14.793 14.793 0 0 1 1.83 -4.078c0.809-1.25 1.764-2.289 2.863-3.115 1.101-0.82799 2.3-1.242 3.599-1.242 0.281 0 0.68399 8e-3 1.205 0.023 0.523 0.016 1.055 0.16399 1.594 0.445 0.539 0.281 1.033 0.766 1.48 1.451 0.45 0.688 0.73899 1.703 0.87 3.047zm17.473-11.529-8.137 30.369h11.432l8.136-30.369zm35.791 11.529h10.59c0.197-1 0.252-2.219 0.162-3.654-0.088-1.438-0.58-2.812-1.477-4.125-0.895-1.312-2.332-2.438-4.311-3.375-1.98-0.938-4.777-1.406-8.396-1.406-2.318 0-4.598 0.32-6.842 0.961-2.244 0.641-4.318 1.633-6.225 2.977-1.904 1.344-3.594 3.062-5.068 5.156-1.475 2.092-2.6 4.592-3.379 7.498-1.271 4.748-0.758 8.467 1.543 11.154 2.301 2.686 6.209 4.092 11.725 4.217a22.456 22.456 0 0 0 6.957 -0.797c2.238-0.625 4.295-1.516 6.168-2.67 1.873-1.156 3.49-2.508 4.854-4.055 1.361-1.547 2.348-3.195 2.957-4.945h-11.115c-0.479 0.99999-1.023 1.82-1.635 2.461s-1.248 1.148-1.91 1.523c-0.662 0.37499-1.328 0.63299-1.998 0.77299-0.67001 0.14-1.285 0.211-1.848 0.211-1.475 0-2.576-0.414-3.303-1.242-0.727-0.82799-1.158-1.867-1.299-3.117-0.139-1.248-2e-3 -2.607 0.408-4.076 0.41-1.469 1.021-2.828 1.83-4.078 0.809-1.25 1.764-2.289 2.863-3.115 1.1-0.82799 2.299-1.242 3.6-1.242 0.281 0 0.682 8e-3 1.205 0.023 0.52099 0.016 1.053 0.16399 1.592 0.445 0.541 0.281 1.033 0.766 1.482 1.451 0.448 0.688 0.739 1.703 0.86999 3.047zm17.47-11.529-8.136 30.369h11.433l8.137-30.369zm-132.7-21.508c2.499-3.07 3.106-6.72 1.351-8.123-1.755-1.404-5.226-0.044-7.726 3.027-2.499 3.071-3.106 6.72-1.351 8.124 1.756 1.403 5.226 0.043 7.726-3.028zm5.58 33.803c13.105-16.404 16.073-35.898 6.605-43.395-9.468-7.498-27.879-0.233-40.985 16.17-13.105 16.404-16.073 35.899-6.605 43.397 2.221 1.758 4.934 2.705 7.955 2.91 2.504-0.99 4.204-3.607 4.748-5.084 0.588-1.598 6.125-16.732 6.808-24.119 0.504-5.463-1.691-5.711-2.942-5.211-1.26 0.504-3.53 1.682-5.042 1.764-1.513 0.086-1.681-0.84-0.84-1.932 0.84-1.092 12.695-12.311 17.06-11.766 3.362 0.42 3.95 3.866 3.193 6.051-0.757 2.185-3.278 11.598-4.286 16.471-1.009 4.875-2.186 11.684-1.849 14.287 0.258 2.004 1.063 2.963 2.071 3.453 4.938-3.217 9.809-7.614 14.109-12.996z" clip-rule="evenodd" fill="#5b5f60" fill-rule="evenodd"/>
<path d="m69.139 34.057-8.137 30.369h11.432l8.137-30.369zm35.792 11.529h10.588c0.199-0.99999 0.252-2.219 0.16399-3.656-0.09-1.438-0.582-2.812-1.477-4.123-0.896-1.312-2.332-2.438-4.312-3.375-1.979-0.938-4.777-1.406-8.395-1.406-2.318 0-4.6 0.32-6.844 0.961a20.493 20.493 0 0 0 -6.223 2.977c-1.905 1.342-3.595 3.061-5.069 5.154-1.474 2.093-2.6 4.594-3.378 7.498-1.272 4.75-0.759 8.467 1.542 11.154 2.301 2.687 6.209 4.094 11.725 4.219a22.452 22.452 0 0 0 6.957 -0.797c2.24-0.625 4.297-1.516 6.17-2.672 1.871-1.156 3.49-2.508 4.852-4.053 1.363-1.547 2.35-3.195 2.959-4.945h-11.117c-0.479 1-1.023 1.82-1.633 2.461-0.611 0.64099-1.248 1.148-1.91 1.523-0.662 0.375-1.328 0.633-1.998 0.773-0.67 0.13999-1.287 0.211-1.848 0.211-1.477 0-2.577-0.41401-3.303-1.242-0.726-0.82801-1.159-1.867-1.298-3.117-0.139-1.25-3e-3 -2.609 0.408-4.078 0.41101-1.467 1.021-2.826 1.83-4.076 0.80899-1.25 1.763-2.289 2.864-3.117 1.1-0.828 2.299-1.242 3.598-1.242 0.28101 0 0.68401 8e-3 1.207 0.023 0.521 0.016 1.053 0.164 1.592 0.445 0.539 0.281 1.033 0.766 1.48 1.453 0.447 0.688 0.736 1.704 0.869 3.047zm17.47-11.529-8.136 30.369h11.431l8.137-30.369zm35.791 11.529h10.59c0.197-0.99999 0.252-2.219 0.162-3.656-0.088-1.438-0.58-2.812-1.477-4.123-0.895-1.312-2.332-2.438-4.311-3.375s-4.777-1.406-8.395-1.406c-2.318 0-4.6 0.32-6.844 0.961-2.244 0.641-4.318 1.633-6.223 2.977-1.906 1.342-3.596 3.061-5.07 5.154-1.474 2.093-2.6 4.594-3.379 7.498-1.271 4.75-0.758 8.467 1.543 11.154 2.301 2.687 6.209 4.094 11.725 4.219 2.398 0.094 4.717-0.172 6.957-0.797s4.295-1.516 6.168-2.672 3.49-2.508 4.854-4.053c1.363-1.547 2.348-3.195 2.957-4.945h-11.115c-0.47901 1-1.023 1.82-1.635 2.461-0.609 0.64099-1.246 1.148-1.908 1.523-0.664 0.375-1.33 0.633-2 0.773-0.67 0.13999-1.285 0.211-1.848 0.211-1.475 0-2.576-0.41401-3.301-1.242-0.727-0.82801-1.16-1.867-1.299-3.117-0.141-1.25-4e-3 -2.609 0.406-4.078 0.412-1.467 1.021-2.826 1.83-4.076 0.80899-1.25 1.764-2.289 2.863-3.117 1.099-0.828 2.301-1.242 3.6-1.242 0.281 0 0.684 8e-3 1.205 0.023 0.52299 0.016 1.055 0.164 1.594 0.445 0.539 0.281 1.033 0.766 1.48 1.453 0.447 0.687 0.741 1.704 0.871 3.047zm17.473-11.529-8.137 30.369h11.432l8.137-30.369z" clip-rule="evenodd" fill="#33348d" fill-rule="evenodd"/>
<path d="m42.959 12.549c2.5-3.071 3.106-6.72 1.351-8.124s-5.226-0.044-7.725 3.027c-2.5 3.071-3.106 6.72-1.351 8.124s5.225 0.044 7.725-3.027zm5.58 33.803c13.106-16.405 16.073-35.898 6.605-43.396-9.468-7.498-27.878-0.233-40.985 16.171-13.106 16.405-16.073 35.899-6.605 43.395 2.221 1.76 4.934 2.705 7.956 2.912 2.503-0.992 4.204-3.609 4.748-5.084 0.588-1.598 6.125-16.732 6.808-24.121 0.504-5.462-1.691-5.71-2.942-5.21-1.26 0.505-3.529 1.681-5.042 1.765s-1.681-0.84-0.841-1.933c0.841-1.092 12.695-12.312 17.061-11.766 3.361 0.42 3.95 3.866 3.193 6.051-0.756 2.185-3.277 11.597-4.286 16.472-1.008 4.875-2.185 11.682-1.849 14.287 0.258 2.002 1.063 2.963 2.071 3.451 4.938-3.215 9.808-7.613 14.108-12.994z" clip-rule="evenodd" fill="#d2562e" fill-rule="evenodd"/>
<path d="m42.959 12.549c2.5-3.071 3.106-6.72 1.351-8.124s-5.226-0.044-7.725 3.027c-2.5 3.071-3.106 6.72-1.351 8.124s5.225 0.044 7.725-3.027zm8.019 26.313c10.892-13.752 12.525-30.097 3.636-36.382-8.889-6.286-25.023-0.196-35.915 13.558-10.892 13.753-12.525 30.096-3.636 36.383 2.044 1.445 4.472 2.234 7.13 2.428 1.861-5.506 4.422-13.746 4.872-18.619 0.504-5.462-1.691-5.71-2.942-5.21-1.26 0.505-3.529 1.681-5.042 1.765s-1.681-0.84-0.841-1.933c0.841-1.092 12.695-12.312 17.061-11.766 3.361 0.42 3.95 3.866 3.193 6.051-0.756 2.185-3.277 11.597-4.286 16.472-0.746 3.605-1.583 8.27-1.833 11.506 6.473-2.47 13.186-7.413 18.603-14.253z" clip-rule="evenodd" fill="#ba2a2f" fill-rule="evenodd"/>
</svg>
