<?xml version="1.0" encoding="utf-8"?>
<!-- Generator: Adobe Illustrator 23.0.1, SVG Export Plug-In . SVG Version: 6.00 Build 0)  -->
<svg version="1.1" id="Layer_1" xmlns="http://www.w3.org/2000/svg" xmlns:xlink="http://www.w3.org/1999/xlink" x="0px" y="0px"
	 viewBox="0 0 559.3 101.3" style="enable-background:new 0 0 559.3 101.3;" xml:space="preserve">
<style type="text/css">
	.st0{fill:#414042;}
</style>
<g>
	<g>
		<path class="st0" d="M170,66.9l-8.5-12h-15.9v12h-5.2V35.4h24.8c3.3,0,5.9,0.9,7.8,2.7c1.9,1.8,2.8,4.2,2.8,7.3
			c0,1.4-0.2,2.6-0.6,3.7c-0.4,1.1-1,2-1.7,2.8c-0.7,0.8-1.6,1.4-2.6,1.8c-1,0.5-2.1,0.8-3.2,1l8.4,12.3H170z M168.9,48.9
			c1-0.8,1.5-2,1.5-3.6c0-3.4-2.2-5.2-6.5-5.2h-18.3v10h18.8C166.3,50.1,167.8,49.7,168.9,48.9z"/>
		<path class="st0" d="M222.9,51.1c0,5.2-2.1,9.3-6.3,12.5c-1.7,1.3-3.8,2.3-6.1,3.1c-2.4,0.7-4.9,1.1-7.7,1.1
			c-2.8,0-5.3-0.4-7.7-1.1c-2.4-0.8-4.5-1.8-6.2-3.1c-4.2-3.2-6.3-7.3-6.3-12.5c0-5,2.1-9.2,6.4-12.4c1.8-1.3,3.8-2.4,6.2-3.1
			c2.4-0.8,4.9-1.1,7.6-1.1c2.7,0,5.2,0.4,7.6,1.1c2.4,0.8,4.4,1.8,6.2,3.1C220.8,41.9,222.9,46.1,222.9,51.1z M217.5,51.1
			c0-3.7-1.6-6.7-4.7-9c-1.3-0.9-2.8-1.7-4.5-2.2c-1.7-0.5-3.6-0.8-5.6-0.8c-2.2,0-4.2,0.3-6,0.9c-1.8,0.6-3.4,1.4-4.7,2.5
			c-1.3,1.1-2.3,2.3-3,3.8c-0.7,1.5-1.1,3.1-1.1,4.8c0,1.8,0.3,3.4,1,4.9c0.7,1.5,1.7,2.7,3,3.8c1.3,1,2.8,1.9,4.7,2.4
			s3.9,0.9,6.1,0.9c2.3,0,4.3-0.3,6.1-0.9c1.8-0.6,3.4-1.4,4.6-2.4c1.3-1,2.3-2.3,3-3.8C217.1,54.5,217.5,52.9,217.5,51.1z"/>
		<path class="st0" d="M263.7,44.3c-1.7-1.8-3.6-3.1-5.8-3.9c-2.2-0.8-4.7-1.2-7.6-1.2c-2.2,0-4.2,0.3-6,0.9
			c-1.8,0.6-3.4,1.4-4.6,2.5c-1.3,1.1-2.3,2.3-3,3.8c-0.7,1.5-1.1,3-1.1,4.8c0,1.8,0.3,3.4,1,4.9c0.7,1.5,1.7,2.7,3,3.8
			c1.3,1,2.9,1.9,4.7,2.4c1.9,0.6,3.9,0.9,6.3,0.9c2.8,0,5.3-0.4,7.4-1.2c2.1-0.8,4-2.1,5.7-4l4.5,2.5c-2.3,2.7-4.9,4.6-7.7,5.7
			c-2.9,1.1-6.3,1.7-10.2,1.7c-2.8,0-5.3-0.4-7.7-1.1c-2.4-0.7-4.4-1.8-6.2-3.1c-4.2-3.2-6.3-7.3-6.3-12.5c0-5.1,2.1-9.2,6.4-12.4
			c1.7-1.3,3.8-2.4,6.1-3.1c2.4-0.7,4.9-1.1,7.6-1.1c3.9,0,7.4,0.7,10.4,2.1c3.1,1.4,5.6,3.4,7.7,6.1L263.7,44.3z"/>
		<path class="st0" d="M307,66.9l-15.1-16.6l-9.5,7v9.6h-5.2V35.4h5.2v16.3l22-16.3h7.5l-16.1,11.9l17.8,19.6H307z"/>
		<path class="st0" d="M319,66.9V35.4h31.7v4.7h-26.5v8h18.4v4.7h-18.4v9.2h27.7v4.7H319z"/>
		<path class="st0" d="M375.6,40.1v26.7h-5.2V40.1h-15v-4.7h35.3v4.7H375.6z"/>
		<path class="st0" d="M401.4,40.1v8h18.4v4.7h-18.4v13.9h-5.2V35.4h31.7v4.7H401.4z"/>
		<path class="st0" d="M467.5,61.2c-0.8,1.3-2,2.5-3.5,3.5c-1.5,1-3.4,1.8-5.6,2.3c-2.2,0.5-4.7,0.8-7.4,0.8c-2.8,0-5.2-0.3-7.5-0.8
			s-4.1-1.3-5.6-2.3c-1.5-1-2.7-2.2-3.5-3.5c-0.8-1.4-1.2-2.8-1.2-4.4V35.4h5.2v20.1c0,2.5,1.1,4.4,3.2,5.7c2.1,1.3,5.3,2,9.5,2
			c4.1,0,7.3-0.7,9.4-2c2.1-1.3,3.2-3.2,3.2-5.7V35.4h5.2v21.3C468.8,58.3,468.3,59.8,467.5,61.2z"/>
		<path class="st0" d="M479,66.9V35.4h31.7v4.7h-26.5v8h18.4v4.7h-18.4v9.2H512v4.7H479z"/>
		<path class="st0" d="M519,66.9V35.4h5.2v26.7h24.3v4.7H519z"/>
	</g>
	<g>
		<polygon class="st0" points="49.5,48.9 21.8,48.9 21.8,22 31.4,22 22.8,9.3 7.7,9.3 7.7,94 21.8,94 21.8,61.7 58.1,61.7 		"/>
		<path class="st0" d="M89.8,58.3c2.7-1.2,5-2.9,7-5c2-2.1,3.5-4.5,4.6-7.4c1.1-2.9,1.6-6.2,1.6-9.9c0-8.3-2.5-14.8-7.5-19.5
			c-5-4.8-12-7.1-21-7.1H31L39.7,22h31.5c11.7,0,17.5,4.6,17.5,13.9c0,4.2-1.4,7.4-4.2,9.7c-2.8,2.2-6.8,3.3-12.1,3.3H57.9l30.5,45
			h15.4L81.1,61C84.2,60.4,87.1,59.5,89.8,58.3z"/>
	</g>
</g>
</svg>
