<svg width="157" height="88" viewBox="0 0 157 88" fill="none" xmlns="http://www.w3.org/2000/svg">
<path d="M0 0H157V88H0V0Z" fill="white"/>
<path d="M36.68 25H41.409V30.3452H36.68V25Z" fill="#FF9B1F"/>
<path d="M36.68 56.8528H41.409V63H36.68V56.8528Z" fill="#FF9B1F"/>
<path d="M44.1568 56.8528H48.8858V63H44.1568V56.8528Z" fill="#FF9B1F"/>
<path d="M44.1568 25H48.8858V30.3452H44.1568V25Z" fill="#FF9B1F"/>
<path d="M40.956 40.796H45.136C45.84 40.796 46.412 40.5467 46.852 40.048C47.3213 39.5493 47.556 38.816 47.556 37.848C47.556 36.9093 47.2773 36.2787 46.72 35.956C46.1627 35.604 45.2827 35.428 44.08 35.428H40.956V40.796ZM45.532 46.296H40.956V51.884H44.476C45.796 51.884 46.808 51.62 47.512 51.092C48.216 50.5347 48.568 49.772 48.568 48.804C48.568 47.8653 48.3333 47.22 47.864 46.868C47.3947 46.4867 46.6173 46.296 45.532 46.296ZM44.96 58H30.396L30 52.104L33.168 51.796V35.252L30 34.9L30.396 29.4H44.52C48.48 29.4 51.3253 30.1333 53.056 31.6C54.816 33.0667 55.696 34.8707 55.696 37.012C55.696 39.0653 54.6987 40.8987 52.704 42.512C55.608 43.8907 57.06 46.0027 57.06 48.848C57.06 51.488 56.048 53.6733 54.024 55.404C52 57.1347 48.9787 58 44.96 58Z" fill="#FF9B1F"/>
<path d="M77.4037 33.8589V49.7364H71.8966V48.0373C71.2881 48.6818 70.5578 49.17 69.7059 49.502C68.854 49.834 67.9513 50 66.998 50C64.8682 50 63.1643 49.3946 61.8864 48.1838C60.6288 46.9729 60 45.1567 60 42.735V33.8589H65.781V41.8269C65.781 43.0182 66.0142 43.8873 66.4808 44.4341C66.9473 44.9809 67.6268 45.2543 68.5193 45.2543C69.4321 45.2543 70.1725 44.9516 70.7404 44.3462C71.3286 43.7213 71.6228 42.7741 71.6228 41.5047V33.8589H77.4037Z" fill="#FF9B1F"/>
<path d="M91.1375 49.0919C90.6507 49.3848 90.0523 49.6094 89.3424 49.7656C88.6527 49.9219 87.9124 50 87.1213 50C84.9712 50 83.318 49.4922 82.1618 48.4767C81.0259 47.4612 80.458 45.9476 80.458 43.9361V30.3142H86.2389V34.4447H89.9813V38.6045H86.2389V43.8775C86.2389 44.4634 86.3911 44.9126 86.6953 45.225C86.9996 45.5375 87.4154 45.6937 87.9428 45.6937C88.6122 45.6937 89.2004 45.5277 89.7075 45.1957L91.1375 49.0919Z" fill="#FF9B1F"/>
<path d="M99.1662 50C97.1378 50 95.5556 49.502 94.4197 48.506C93.3041 47.4905 92.7463 46.0453 92.7463 44.1704V28H98.5273V43.8775C98.5273 44.4634 98.6794 44.9126 98.9837 45.225C99.3082 45.5375 99.7544 45.6937 100.322 45.6937C100.789 45.6937 101.225 45.5961 101.631 45.4008L101.874 49.5899C101.002 49.8633 100.099 50 99.1662 50Z" fill="#FF9B1F"/>
<path d="M111.866 45.7523C112.657 45.7523 113.337 45.6449 113.905 45.4301C114.493 45.2153 115.081 44.8637 115.669 44.3755L118.681 47.4221C117.12 49.1407 114.787 50 111.683 50C109.756 50 108.063 49.6485 106.602 48.9454C105.142 48.2423 104.006 47.2659 103.195 46.016C102.403 44.7661 102.008 43.3502 102.008 41.7683C102.008 40.2059 102.403 38.8096 103.195 37.5792C103.986 36.3293 105.071 35.3529 106.45 34.6498C107.85 33.9467 109.412 33.5952 111.136 33.5952C112.738 33.5952 114.199 33.9174 115.517 34.5619C116.856 35.1869 117.921 36.1145 118.712 37.3449C119.503 38.5557 119.898 40.0009 119.898 41.6804L108.124 43.8482C108.752 45.1176 110 45.7523 111.866 45.7523ZM111.166 37.5499C110.172 37.5499 109.361 37.8526 108.732 38.4581C108.103 39.0439 107.748 39.8935 107.667 41.0067L114.361 39.747C114.158 39.083 113.773 38.5557 113.205 38.1651C112.637 37.755 111.957 37.5499 111.166 37.5499Z" fill="#FF9B1F"/>
<path d="M127.462 35.763C128.051 35.0404 128.811 34.5033 129.744 34.1518C130.698 33.7807 131.783 33.5952 133 33.5952V38.6045C132.473 38.5459 132.037 38.5166 131.692 38.5166C130.454 38.5166 129.481 38.8389 128.771 39.4834C128.081 40.1278 127.736 41.1141 127.736 42.4421V49.7364H121.955V33.8589H127.462V35.763Z" fill="#FF9B1F"/>
<path d="M62.0266 54.8685V62.626H60V53.6176H61.8883L62.0266 54.8685ZM66.0196 56.7928V56.9191C66.0196 57.3922 65.9655 57.8312 65.8572 58.2361C65.749 58.641 65.5886 58.9938 65.3761 59.2945C65.1637 59.5951 64.8991 59.8297 64.5823 59.998C64.2696 60.1624 63.9068 60.2446 63.4939 60.2446C63.105 60.2446 62.7703 60.1584 62.4896 59.986C62.209 59.8136 61.9745 59.5751 61.786 59.2704C61.5976 58.9657 61.4453 58.6169 61.329 58.224C61.2127 57.8312 61.1205 57.4162 61.0524 56.9792V56.8169C61.1205 56.3478 61.2127 55.9128 61.329 55.5119C61.4453 55.107 61.5976 54.7542 61.786 54.4535C61.9745 54.1529 62.207 53.9183 62.4836 53.7499C62.7642 53.5816 63.099 53.4974 63.4879 53.4974C63.9008 53.4974 64.2636 53.5756 64.5763 53.7319C64.893 53.8883 65.1576 54.1128 65.3701 54.4054C65.5866 54.6941 65.749 55.0409 65.8572 55.4458C65.9655 55.8507 66.0196 56.2997 66.0196 56.7928ZM63.993 56.9191V56.7928C63.993 56.5402 63.975 56.3097 63.9389 56.1013C63.9028 55.8888 63.8447 55.7044 63.7645 55.548C63.6883 55.3917 63.5861 55.2714 63.4578 55.1872C63.3295 55.103 63.1712 55.0609 62.9827 55.0609C62.7662 55.0609 62.5838 55.095 62.4355 55.1631C62.2912 55.2273 62.1749 55.3275 62.0867 55.4638C62.0025 55.5961 61.9424 55.7625 61.9063 55.9629C61.8742 56.1594 61.8602 56.3899 61.8642 56.6545V57.1476C61.8562 57.4523 61.8863 57.7209 61.9544 57.9534C62.0226 58.1819 62.1408 58.3604 62.3092 58.4886C62.4776 58.6169 62.7061 58.6811 62.9948 58.6811C63.1872 58.6811 63.3476 58.637 63.4758 58.5488C63.6041 58.4566 63.7064 58.3303 63.7825 58.1699C63.8587 58.0056 63.9128 57.8171 63.9449 57.6046C63.977 57.3922 63.993 57.1637 63.993 56.9191Z" fill="#2A2A2A"/>
<path d="M70.3012 58.4886V55.8066C70.3012 55.6222 70.2752 55.4638 70.2231 55.3315C70.1709 55.1992 70.0888 55.097 69.9765 55.0248C69.8643 54.9487 69.7139 54.9106 69.5255 54.9106C69.3731 54.9106 69.2429 54.9366 69.1346 54.9887C69.0264 55.0409 68.9442 55.119 68.8881 55.2233C68.8319 55.3275 68.8039 55.4598 68.8039 55.6202H66.7773C66.7773 55.3195 66.8434 55.0409 66.9757 54.7843C67.112 54.5237 67.3045 54.2972 67.553 54.1047C67.8056 53.9123 68.1063 53.764 68.4551 53.6597C68.8079 53.5515 69.2008 53.4974 69.6337 53.4974C70.1509 53.4974 70.6119 53.5836 71.0169 53.756C71.4258 53.9284 71.7485 54.1869 71.985 54.5317C72.2216 54.8725 72.3398 55.3014 72.3398 55.8186V58.4826C72.3398 58.9076 72.3639 59.2303 72.412 59.4508C72.4601 59.6673 72.5283 59.8577 72.6165 60.0221V60.1243H70.5839C70.4877 59.9239 70.4155 59.6793 70.3674 59.3907C70.3233 59.098 70.3012 58.7973 70.3012 58.4886ZM70.5478 56.1494L70.5598 57.2318H69.6638C69.4754 57.2318 69.315 57.2579 69.1827 57.31C69.0544 57.3621 68.9502 57.4343 68.87 57.5265C68.7938 57.6147 68.7377 57.7149 68.7016 57.8271C68.6696 57.9394 68.6535 58.0577 68.6535 58.1819C68.6535 58.3022 68.6816 58.4105 68.7377 58.5067C68.7979 58.5989 68.878 58.6711 68.9783 58.7232C69.0785 58.7753 69.1907 58.8013 69.315 58.8013C69.5395 58.8013 69.73 58.7593 69.8863 58.6751C70.0467 58.5869 70.1689 58.4806 70.2531 58.3563C70.3373 58.2321 70.3794 58.1158 70.3794 58.0076L70.8244 58.8374C70.7442 58.9978 70.652 59.1602 70.5478 59.3245C70.4476 59.4889 70.3213 59.6412 70.1689 59.7816C70.0206 59.9179 69.8382 60.0301 69.6217 60.1183C69.4052 60.2025 69.1426 60.2446 68.8339 60.2446C68.433 60.2446 68.0642 60.1624 67.7274 59.998C67.3947 59.8337 67.1281 59.6052 66.9276 59.3125C66.7272 59.0158 66.627 58.6751 66.627 58.2902C66.627 57.9534 66.6871 57.6528 66.8074 57.3882C66.9316 57.1236 67.1181 56.8991 67.3666 56.7146C67.6152 56.5302 67.9319 56.3899 68.3168 56.2937C68.7016 56.1975 69.1547 56.1494 69.6758 56.1494H70.5478Z" fill="#2A2A2A"/>
<path d="M75.3647 59.3606L77.0485 53.6176H79.2254L76.6095 61.0925C76.5534 61.2569 76.4792 61.4333 76.387 61.6217C76.2948 61.8141 76.1685 61.9966 76.0081 62.1689C75.8478 62.3413 75.6413 62.4816 75.3887 62.5899C75.1402 62.6981 74.8315 62.7523 74.4626 62.7523C74.2662 62.7523 74.1219 62.7422 74.0297 62.7222C73.9415 62.7062 73.8052 62.6761 73.6207 62.632V61.1827C73.6729 61.1827 73.717 61.1827 73.753 61.1827C73.7931 61.1827 73.8372 61.1827 73.8853 61.1827C74.1018 61.1827 74.2742 61.1607 74.4025 61.1166C74.5348 61.0725 74.635 61.0083 74.7032 60.9241C74.7753 60.8399 74.8315 60.7377 74.8716 60.6174L75.3647 59.3606ZM74.9377 53.6176L76.2186 58.1699L76.4411 60.3168H75.082L72.7668 53.6176H74.9377Z" fill="#2A2A2A"/>
<path d="M81.7992 54.9948V60.1243H79.7726V53.6176H81.6729L81.7992 54.9948ZM81.5526 56.6485L81.0896 56.6605C81.0896 56.2035 81.1437 55.7825 81.252 55.3977C81.3602 55.0128 81.5206 54.678 81.733 54.3934C81.9455 54.1088 82.2061 53.8883 82.5148 53.7319C82.8275 53.5756 83.1883 53.4974 83.5972 53.4974C83.8819 53.4974 84.1405 53.5415 84.373 53.6297C84.6055 53.7139 84.806 53.8482 84.9744 54.0326C85.1427 54.213 85.271 54.4495 85.3592 54.7422C85.4514 55.0308 85.4975 55.3776 85.4975 55.7825V60.1243H83.471V56.0411C83.471 55.7645 83.4389 55.556 83.3747 55.4157C83.3146 55.2754 83.2264 55.1812 83.1101 55.1331C82.9939 55.085 82.8516 55.0609 82.6832 55.0609C82.5068 55.0609 82.3484 55.101 82.2081 55.1812C82.0678 55.2614 81.9475 55.3736 81.8473 55.5179C81.7511 55.6583 81.6769 55.8246 81.6248 56.0171C81.5767 56.2095 81.5526 56.42 81.5526 56.6485ZM85.269 56.6485L84.7037 56.6605C84.7037 56.2035 84.7539 55.7825 84.8541 55.3977C84.9583 55.0128 85.1127 54.678 85.3171 54.3934C85.5256 54.1088 85.7842 53.8883 86.0929 53.7319C86.4016 53.5756 86.7604 53.4974 87.1693 53.4974C87.466 53.4974 87.7386 53.5415 87.9872 53.6297C88.2357 53.7179 88.4502 53.8602 88.6306 54.0566C88.811 54.2531 88.9513 54.5137 89.0516 54.8384C89.1518 55.1591 89.2019 55.556 89.2019 56.0291V60.1243H87.1693V56.0291C87.1693 55.7605 87.1372 55.558 87.0731 55.4217C87.013 55.2814 86.9248 55.1872 86.8085 55.1391C86.6922 55.087 86.5539 55.0609 86.3936 55.0609C86.2011 55.0609 86.0347 55.101 85.8944 55.1812C85.7541 55.2614 85.6358 55.3736 85.5396 55.5179C85.4474 55.6583 85.3793 55.8246 85.3352 56.0171C85.2911 56.2095 85.269 56.42 85.269 56.6485Z" fill="#2A2A2A"/>
<path d="M93.5136 60.2446C92.9844 60.2446 92.5114 60.1624 92.0944 59.998C91.6775 59.8297 91.3247 59.5991 91.036 59.3065C90.7514 59.0138 90.5329 58.6771 90.3806 58.2962C90.2322 57.9153 90.158 57.5124 90.158 57.0875V56.859C90.158 56.3819 90.2242 55.9409 90.3565 55.536C90.4888 55.1271 90.6852 54.7703 90.9458 54.4656C91.2064 54.1609 91.5332 53.9243 91.926 53.756C92.3189 53.5836 92.776 53.4974 93.2971 53.4974C93.7582 53.4974 94.1711 53.5715 94.5359 53.7199C94.9008 53.8682 95.2094 54.0807 95.462 54.3573C95.7186 54.6339 95.913 54.9687 96.0453 55.3616C96.1816 55.7545 96.2498 56.1955 96.2498 56.6846V57.5084H90.9338V56.2396H94.2713V56.0832C94.2753 55.8667 94.2373 55.6823 94.1571 55.53C94.0809 55.3776 93.9686 55.2614 93.8203 55.1812C93.672 55.101 93.4916 55.0609 93.2791 55.0609C93.0586 55.0609 92.8762 55.109 92.7319 55.2052C92.5915 55.3014 92.4813 55.4337 92.4011 55.6021C92.3249 55.7665 92.2708 55.9569 92.2387 56.1734C92.2067 56.3899 92.1906 56.6184 92.1906 56.859V57.0875C92.1906 57.328 92.2227 57.5465 92.2869 57.743C92.355 57.9394 92.4512 58.1078 92.5755 58.2481C92.7038 58.3844 92.8561 58.4906 93.0325 58.5668C93.2129 58.643 93.4174 58.6811 93.6459 58.6811C93.9225 58.6811 94.1952 58.629 94.4638 58.5247C94.7324 58.4205 94.9629 58.2481 95.1553 58.0076L96.0754 59.102C95.9431 59.2904 95.7547 59.4729 95.5101 59.6493C95.2696 59.8257 94.9809 59.97 94.6442 60.0822C94.3074 60.1905 93.9306 60.2446 93.5136 60.2446Z" fill="#2A2A2A"/>
<path d="M99.0641 55.0068V60.1243H97.0376V53.6176H98.9379L99.0641 55.0068ZM98.8236 56.6485L98.3485 56.6605C98.3485 56.1634 98.4087 55.7204 98.5289 55.3315C98.6492 54.9386 98.8196 54.6059 99.0401 54.3333C99.2606 54.0606 99.5232 53.8542 99.8279 53.7139C100.137 53.5695 100.479 53.4974 100.856 53.4974C101.157 53.4974 101.431 53.5415 101.68 53.6297C101.933 53.7179 102.149 53.8602 102.33 54.0566C102.514 54.2531 102.654 54.5137 102.75 54.8384C102.851 55.1591 102.901 55.556 102.901 56.0291V60.1243H100.862V56.0231C100.862 55.7625 100.826 55.564 100.754 55.4277C100.682 55.2874 100.578 55.1912 100.441 55.1391C100.305 55.087 100.139 55.0609 99.9421 55.0609C99.7337 55.0609 99.5573 55.101 99.4129 55.1812C99.2686 55.2614 99.1523 55.3736 99.0641 55.5179C98.98 55.6583 98.9178 55.8246 98.8777 56.0171C98.8416 56.2095 98.8236 56.42 98.8236 56.6485Z" fill="#2A2A2A"/>
<path d="M107.453 53.6176V55.0248H103.532V53.6176H107.453ZM104.356 52H106.383V58.0015C106.383 58.1739 106.403 58.3082 106.443 58.4044C106.483 58.4967 106.551 58.5628 106.647 58.6029C106.747 58.639 106.88 58.657 107.044 58.657C107.16 58.657 107.257 58.655 107.333 58.651C107.409 58.643 107.481 58.633 107.549 58.6209V60.0702C107.377 60.1263 107.196 60.1684 107.008 60.1965C106.82 60.2286 106.619 60.2446 106.407 60.2446C105.974 60.2446 105.603 60.1764 105.294 60.0401C104.99 59.9038 104.757 59.6893 104.597 59.3967C104.436 59.104 104.356 58.7232 104.356 58.2541V52Z" fill="#2A2A2A"/>
<path d="M111.669 58.2962C111.669 58.184 111.631 58.0877 111.554 58.0076C111.482 57.9234 111.354 57.8472 111.169 57.779C110.985 57.7069 110.726 57.6347 110.394 57.5626C110.077 57.4944 109.778 57.4042 109.498 57.2919C109.221 57.1797 108.979 57.0434 108.77 56.883C108.562 56.7227 108.397 56.5322 108.277 56.3117C108.161 56.0912 108.103 55.8387 108.103 55.554C108.103 55.2774 108.161 55.0168 108.277 54.7723C108.397 54.5237 108.572 54.3052 108.8 54.1168C109.033 53.9243 109.315 53.774 109.648 53.6658C109.981 53.5535 110.36 53.4974 110.785 53.4974C111.37 53.4974 111.875 53.5876 112.3 53.768C112.725 53.9444 113.052 54.1929 113.28 54.5137C113.513 54.8304 113.629 55.1972 113.629 55.6142H111.602C111.602 55.4498 111.574 55.3095 111.518 55.1932C111.466 55.0769 111.38 54.9887 111.26 54.9286C111.139 54.8645 110.979 54.8324 110.779 54.8324C110.638 54.8324 110.51 54.8584 110.394 54.9106C110.281 54.9627 110.191 55.0348 110.123 55.1271C110.055 55.2193 110.021 55.3275 110.021 55.4518C110.021 55.54 110.041 55.6202 110.081 55.6923C110.125 55.7605 110.191 55.8246 110.279 55.8848C110.368 55.9409 110.48 55.993 110.616 56.0411C110.753 56.0852 110.917 56.1253 111.109 56.1614C111.546 56.2416 111.955 56.3558 112.336 56.5042C112.717 56.6525 113.026 56.863 113.262 57.1356C113.503 57.4082 113.623 57.775 113.623 58.2361C113.623 58.5247 113.557 58.7913 113.425 59.0359C113.292 59.2764 113.102 59.4889 112.853 59.6733C112.605 59.8537 112.306 59.994 111.957 60.0943C111.608 60.1945 111.216 60.2446 110.779 60.2446C110.157 60.2446 109.632 60.1344 109.203 59.9139C108.774 59.6893 108.449 59.4087 108.229 59.072C108.012 58.7312 107.904 58.3864 107.904 58.0376H109.792C109.8 58.2381 109.848 58.4024 109.937 58.5307C110.029 58.659 110.151 58.7532 110.304 58.8134C110.456 58.8735 110.632 58.9036 110.833 58.9036C111.017 58.9036 111.169 58.8775 111.29 58.8254C111.414 58.7733 111.508 58.7031 111.572 58.6149C111.637 58.5227 111.669 58.4165 111.669 58.2962Z" fill="#2A2A2A"/>
</svg>
