<svg xmlns="http://www.w3.org/2000/svg" viewBox="0 0 278.008 53.3" width="279" height="54" fill-rule="evenodd"><path d="M109.7 41.7c-10.3 7.6-25.2 11.6-38 11.6-18 0-34.2-6.6-46.4-17.7-1-.9-.1-2.1 1.1-1.4C39.6 41.9 56 46.5 72.8 46.5c11.4 0 23.9-2.4 35.4-7.2 1.7-.8 3.2 1.1 1.5 2.4zm4.3-4.9c-1.3-1.7-8.7-.8-12-.4-1 .1-1.2-.8-.3-1.4 5.9-4.1 15.5-2.9 16.6-1.6 1.1 1.4-.3 11.1-5.8 15.7-.8.7-1.7.3-1.3-.6 1.3-3.1 4.1-10 2.8-11.7z" fill="#f39700"/><path d="M102.2 5.8v-4c0-.6.5-1 1-1h18a.94.94 0 0 1 1 1v3.4c0 .6-.5 1.3-1.4 2.5L111.5 21c3.5-.1 7.1.4 10.3 2.2.7.4.9 1 1 1.6v4.3c0 .6-.6 1.3-1.3.9-5.5-2.9-12.9-3.2-19 0-.6.3-1.3-.3-1.3-.9V25c0-.7 0-1.8.7-2.8l10.8-15.5h-9.4c-.6.1-1.1-.3-1.1-.9zM36.6 30.9h-5.5c-.5 0-.9-.4-1-.9V1.9c0-.6.5-1 1.1-1h5.1c.5 0 1 .4 1 .9v3.7h.1C38.7 2 41.2.3 44.6.3s5.6 1.7 7.1 5.2C53 2 56 .3 59.3.3c2.3 0 4.8.9 6.3 3.1 1.7 2.4 1.4 5.8 1.4 8.8v17.7c0 .6-.5 1-1.1 1h-5.5a1.08 1.08 0 0 1-1-1V15c0-1.2.1-4.1-.2-5.3-.4-1.9-1.6-2.4-3.2-2.4-1.3 0-2.7.9-3.3 2.3s-.5 3.8-.5 5.4v14.9c0 .6-.5 1-1.1 1h-5.5a1.08 1.08 0 0 1-1-1V15c0-3.1.5-7.7-3.4-7.7s-3.8 4.5-3.8 7.7v14.9c.2.5-.2 1-.8 1zM137.8 6c-4 0-4.3 5.5-4.3 8.9s-.1 10.8 4.2 10.8c4.2 0 4.4-5.9 4.4-9.5 0-2.4-.1-5.2-.8-7.4-.6-2-1.8-2.8-3.5-2.8zm-.1-5.7c8.1 0 12.5 7 12.5 15.8 0 8.6-4.9 15.4-12.5 15.4-8 0-12.3-7-12.3-15.7S129.8.3 137.7.3zm23.1 30.6h-5.5a1.08 1.08 0 0 1-1-1V1.8c0-.5.5-.9 1.1-.9h5.1c.5 0 .9.4 1 .8V6h.1c1.5-3.8 3.7-5.7 7.5-5.7 2.5 0 4.9.9 6.4 3.3 1.4 2.2 1.4 6 1.4 8.7V30c-.1.5-.5.9-1 .9h-5.5c-.5 0-.9-.4-1-.9V14.8c0-3.1.4-7.6-3.4-7.6-1.3 0-2.6.9-3.2 2.2-.8 1.7-.9 3.4-.9 5.3v15.1c-.1.6-.6 1.1-1.1 1.1zm-67.4-.1c-.4.3-.9.3-1.3.1-1.8-1.5-2.1-2.2-3.1-3.6-3 3.1-5.1 4-9 4-4.6 0-8.2-2.8-8.2-8.5 0-4.4 2.4-7.5 5.8-8.9 3-1.3 7.1-1.5 10.3-1.9v-.7c0-1.3.1-2.8-.7-4-.7-1-1.9-1.4-3.1-1.4-2.1 0-3.9 1.1-4.4 3.3-.1.5-.5 1-.9 1l-5.3-.6c-.4-.1-.9-.5-.8-1.1 1.2-6.3 6.9-8.3 12-8.4h.4c2.6 0 6 .8 8.1 2.7 2.7 2.5 2.4 5.8 2.4 9.4v8.5c0 2.6 1.1 3.7 2.1 5.1.4.5.4 1.1 0 1.5-1.2.8-3.2 2.6-4.3 3.5zm-5.5-13.3c0 2.1.1 3.9-1 5.8-.9 1.5-2.3 2.5-3.8 2.5-2.1 0-3.3-1.6-3.3-4 0-4.7 4.2-5.5 8.1-5.5zM21.6 30.8c-.4.3-.9.3-1.3.1-1.8-1.5-2.1-2.2-3.1-3.6-3 3.1-5.1 4-9 4-4.6 0-8.2-2.8-8.2-8.5 0-4.4 2.4-7.5 5.8-8.9 3-1.3 7.1-1.5 10.3-1.9v-.7c0-1.3.1-2.8-.7-4-.7-1-1.9-1.4-3.1-1.4-2.1 0-3.9 1.1-4.4 3.3-.1.5-.5 1-1 1l-5.3-.6c-.4-.1-.9-.5-.8-1.1C2 2.2 7.7.2 12.8.1h.4c2.6 0 6 .8 8.1 2.7 2.7 2.5 2.4 5.8 2.4 9.4v8.5c0 2.6 1.1 3.7 2.1 5.1.3.5.4 1.1 0 1.5-1.1.8-3.1 2.6-4.2 3.5zm-5.5-13.3c0 2.1.1 3.9-1 5.8-.9 1.5-2.3 2.5-3.8 2.5-2.1 0-3.3-1.6-3.3-4 0-4.7 4.2-5.5 8.1-5.5zM251.6 41v-2.1c0-.6.3-1 .9-1 1.1.2 2.8.3 3.9.1 1.5-.3 2.6-1.4 3.2-2.8l1.9-4.8-11.4-28.2c-.2-.5-.2-1.4.7-1.4h4c.8 0 1.1.5 1.2 1l8.3 22.9 7.9-22.9c.2-.5.5-1 1.2-1h3.8c.9 0 .9.9.7 1.4l-11.3 29.1c-1.5 3.9-3.4 10-7.8 11.1-2.2.6-5 .4-6.6-.3-.5-.2-.6-.8-.6-1.1zm-5.3-11.8c0 .5-.4 1-1 1h-2.8c-.6 0-1-.4-1.1-1l-.3-1.9c-1.3 1.1-2.9 2.1-4.6 2.7-3.3 1.3-7.1 1.5-10.3-.5-2.3-1.4-3.6-4.2-3.6-7.1 0-2.2.7-4.4 2.2-6.1 2-2.2 5-3.3 8.6-3.3 2.2 0 5.2.3 7.5 1v-3.8c0-3.9-1.6-5.6-6-5.6-3.3 0-5.9.5-9.4 1.6-.6 0-.9-.4-.9-.9V3.1c0-.5.4-1 .9-1.2C228 .8 231.6.1 235.4 0c4.9 0 10.8 1.1 10.8 8.7v20.5zm-5.4-5.6v-5.8c-1.9-.5-5-.7-6.2-.7-1.9 0-4 .5-5.1 1.6-.8.9-1.2 2.1-1.2 3.3 0 1.5.5 3.1 1.8 3.9 1.4 1 3.7.9 5.8.3 2-.7 3.9-1.7 4.9-2.6zm-36-18.9c6.2 0 7.9 4.9 7.9 10.5 0 3.8-.7 7.1-2.6 9.1-1.5 1.4-3.1 1.8-5.6 1.8-2.2 0-5.1-1.1-7.2-2.7v-16c2.3-1.8 5.1-2.7 7.5-2.7zM196.5 42h-3.8c-.5 0-1-.4-1-1V1.8c0-.5.4-1 1-1h2.9c.6 0 1 .4 1.1 1l.3 2.1c2.7-2.4 6.2-3.9 9.5-3.9 9.3 0 12.3 7.6 12.3 15.6 0 8.5-4.7 15.3-12.5 15.3-3.3 0-6.4-1.2-8.8-3.4V41c-.1.5-.5 1-1 1z" fill="#333e47"/></svg>