<?xml version="1.0" encoding="UTF-8" standalone="no"?>
<!-- Created with Inkscape (http://www.inkscape.org/) -->

<svg
   xmlns:dc="http://purl.org/dc/elements/1.1/"
   xmlns:cc="http://creativecommons.org/ns#"
   xmlns:rdf="http://www.w3.org/1999/02/22-rdf-syntax-ns#"
   xmlns:svg="http://www.w3.org/2000/svg"
   xmlns="http://www.w3.org/2000/svg"
   xmlns:sodipodi="http://sodipodi.sourceforge.net/DTD/sodipodi-0.dtd"
   xmlns:inkscape="http://www.inkscape.org/namespaces/inkscape"
   width="31.806833mm"
   height="9.4060097mm"
   viewBox="0 0 112.70138 33.328381"
   id="svg3581"
   version="1.1"
   inkscape:version="0.91 r13725"
   sodipodi:docname="geopay-logo.svg">
  <defs
     id="defs3583" />
  <sodipodi:namedview
     id="base"
     pagecolor="#ffffff"
     bordercolor="#666666"
     borderopacity="1.0"
     inkscape:pageopacity="0.0"
     inkscape:pageshadow="2"
     inkscape:zoom="1.4"
     inkscape:cx="291.71646"
     inkscape:cy="-90.62658"
     inkscape:document-units="px"
     inkscape:current-layer="layer1"
     showgrid="false"
     inkscape:window-width="2560"
     inkscape:window-height="1390"
     inkscape:window-x="0"
     inkscape:window-y="0"
     inkscape:window-maximized="1"
     fit-margin-top="0"
     fit-margin-left="0"
     fit-margin-right="0"
     fit-margin-bottom="0" />
  <metadata
     id="metadata3586">
    <rdf:RDF>
      <cc:Work
         rdf:about="">
        <dc:format>image/svg+xml</dc:format>
        <dc:type
           rdf:resource="http://purl.org/dc/dcmitype/StillImage" />
        <dc:title></dc:title>
      </cc:Work>
    </rdf:RDF>
  </metadata>
  <g
     inkscape:label="Layer 1"
     inkscape:groupmode="layer"
     id="layer1"
     transform="translate(-77.935024,-361.4123)">
    <path
       d="m 86.222149,361.4123 16.754251,0 c 4.0365,0 7.42287,2.92538 8.14462,6.76063 l -9.83625,0 -0.15062,-0.003 -13.070501,0 c -1.853875,-1e-5 -3.371125,1.51724 -3.371125,3.37174 l 0,13.0695 c 0,1.85488 1.51725,3.37213 3.371125,3.37213 l 13.070501,0 c 1.85387,0 3.37112,-1.51725 3.37112,-3.37213 l 0,-3.2095 -12.090121,0 0,-7.5e-4 c 0,-3.657 2.99275,-6.64862 6.64975,-6.64862 l 5.440371,0 0,-0.01 6.75813,0 0,11.71125 c 0,4.55775 -3.72925,8.28712 -8.287,8.28712 l -16.754251,0 c -4.55775,3e-5 -8.287125,-3.72935 -8.287125,-8.2871 l 0,-16.75412 c 0,-4.55775 3.729375,-8.28713 8.287125,-8.28713 z m 79.372871,0 16.75425,0 c 4.55775,0 8.28713,3.72938 8.28713,8.28713 l 0,16.75412 c 0,4.55775 -3.72938,8.28713 -8.28713,8.28713 l -16.75425,0 c -4.55775,0 -8.287,-3.72938 -8.287,-8.28713 l 0,-16.75412 c 0,-4.55775 3.72925,-8.28713 8.287,-8.28713 z m 1.8415,6.7575 13.07062,0 c 1.85376,0 3.371,1.51725 3.371,3.37175 l 0,13.0695 c 0,1.85488 -1.51724,3.37213 -3.371,3.37213 l -13.07062,0 c -1.85387,0 -3.37112,-1.51725 -3.37112,-3.37213 l 0,-13.0695 c 0,-1.8545 1.51725,-3.37175 3.37112,-3.37175 z m -49.53262,26.56488 16.61962,0 0.2745,0 9.25725,0 c 3.65713,0 6.64975,-2.99063 6.64975,-6.64875 l 0,-6.3e-4 -15.907,0 -0.2745,0 -9.97025,0 c -3.65775,0 -6.64937,2.99163 -6.64937,6.64863 l 0,7.5e-4 z m 0,-13.29913 16.61962,0 0.2745,0 9.25725,0 c 3.65713,0 6.64975,-2.99087 6.64975,-6.64862 l 0,-7.5e-4 -15.907,0 -0.2745,0 -9.97025,0 c -3.65775,0 -6.64937,2.99162 -6.64937,6.64862 l 0,7.5e-4 z m 0,-13.29912 16.61962,0 0.2745,0 9.25725,0 c 3.65713,0 6.64975,-2.99088 6.64975,-6.64863 l 0,-7.5e-4 -15.907,0 -0.2745,0 -9.97025,0 c -3.65775,0 -6.64937,2.99163 -6.64937,6.64875 l 0,6.3e-4 z"
       style="fill:#40bfc5;fill-opacity:1;fill-rule:evenodd;stroke:none"
       id="path3564"
       inkscape:connector-curvature="0" />
  </g>
</svg>
