<svg xmlns="http://www.w3.org/2000/svg" width="1274" height="317" viewBox="0 0 1273.939 316.06" fill-rule="nonzero"><path d="M678.466 67.518c-.001-16.25-13.15-29.437-29.402-29.48s-29.473 13.07-29.562 29.32S632.5 96.867 648.74 97a29.18 29.18 0 0 0 29.725-29.482m76.315 0c-.001-16.25-13.15-29.437-29.402-29.48s-29.473 13.07-29.562 29.32 13 29.5 29.24 29.643a29.36 29.36 0 0 0 29.725-29.482" fill="#fdda24"/><g fill="#229fff"><path d="M473.06 167.25l37.5-45.012a3.88 3.88 0 0 0 1.107-4.516c-.673-1.584-2.3-2.536-4.02-2.34H479.5a9.65 9.65 0 0 0-7.522 3.76l-25.72 33.73v-31.484a5.28 5.28 0 0 0-6.066-6.066H419.81a5.28 5.28 0 0 0-6.066 6.066v104.22a5.28 5.28 0 0 0 6.066 6.066h20.383a5.28 5.28 0 0 0 6.066-6.066v-37.915l33.9 39.917c1.504 2.363 4.058 3.854 6.855 4.004h29.725c1.6.044 3.07-.867 3.743-2.318s.417-3.163-.65-4.355zm224.333-51.868h-21.718a5.34 5.34 0 0 0-6.066 6.066v104.22a5.34 5.34 0 0 0 6.066 6.066h21.718a5.22 5.22 0 0 0 6.067-6.067v-104.28a5.22 5.22 0 0 0-6.067-6.067m531.717.123h-47.68a5.34 5.34 0 0 0-6.066 6.066v104.22a5.34 5.34 0 0 0 6.066 6.066h21.717c1.684.306 3.412-.233 4.622-1.444a5.22 5.22 0 0 0 1.444-4.622v-27.663h18.624c26.146 0 46.104-14.377 46.104-40.28s-20.383-42.464-44.77-42.464m-2.427 56.78h-17.532v-29.968h17.107c22.8 0 24.265 29.968.425 29.968m-180.474-56.72h-84.626c-1.684-.306-3.412.233-4.622 1.444a5.22 5.22 0 0 0-1.444 4.623v20.322a5.4 5.4 0 0 0 6.066 6.066h25.297v77.83a5.34 5.34 0 0 0 6.066 6.066h21.717a5.22 5.22 0 0 0 6.067-6.067v-77.83h25.297a5.34 5.34 0 0 0 6.066-6.066v-20.2a5.22 5.22 0 0 0-6.067-6.067"/><path d="M814.656 168.22c20.626-19.716 6.855-52.777-24.8-52.777h-53.202a5.34 5.34 0 0 0-6.066 6.066v104.22a5.4 5.4 0 0 0 6.066 6.066h58.54c41.494 0 52.535-47.682 19.534-63.393zM761.94 141.6h21.05a9.1 9.1 0 1 1 0 18.2h-21.05zm27.966 64.303H761.94v-21.657h27.966c17.046 0 18.2 21.718 0 21.718zM637.7 115.382h-26.4l-48.53 66.73v-60.664a5.22 5.22 0 0 0-6.067-6.067h-19.776a5.34 5.34 0 0 0-6.066 6.066v104.22a5.34 5.34 0 0 0 6.066 6.066h26.267l48.53-65.7v59.572c-.306 1.684.233 3.412 1.444 4.622a5.22 5.22 0 0 0 4.623 1.444h19.776a5.34 5.34 0 0 0 6.066-6.066v-104.22a5.34 5.34 0 0 0-6.066-6.066m263.645 89.238c-17.154 0-31.06-13.906-31.06-31.06s13.906-31.06 31.06-31.06a40.16 40.16 0 0 1 25.297 9.342 4.67 4.67 0 0 0 8.008 0l13.103-12.86c1.055-1.02 1.593-2.46 1.464-3.92s-.913-2.785-2.13-3.602a64.55 64.55 0 0 0-45.498-19.534c-22.063 0-42.45 11.77-53.482 30.878s-11.032 42.648 0 61.755a61.76 61.76 0 0 0 53.482 30.878 64.67 64.67 0 0 0 45.74-19.534 4.85 4.85 0 0 0 2.13-3.602c.13-1.462-.408-2.902-1.464-3.92l-13.103-12.86a4.67 4.67 0 0 0-8.008 0 39.92 39.92 0 0 1-25.054 9.1M1164.2 225.85l-39.856-105.98c-.8-2.892-3.573-4.774-6.552-4.428h-26.813a6.07 6.07 0 0 0-6.552 4.428l-39.856 105.98c-.822 1.327-.797 3 .062 4.313a4 4 0 0 0 3.94 1.753h24.265a5.58 5.58 0 0 0 4.914-3.518l5.4-15.53h42.1l5.4 15.53a5.58 5.58 0 0 0 4.914 3.518h24.265a4 4 0 0 0 3.94-1.753c.858-1.303.884-2.986.062-4.313zm-72.008-39.917l11.83-34.154 11.83 34.154zM165 120.296c-11.726 0-21.232-9.506-21.232-21.232v-77.83C143.778 9.506 153.284 0 165 0s21.232 9.506 21.232 21.232v78.074c0 11.726-9.506 21.232-21.232 21.232m-49.552 35.792a21.23 21.23 0 0 1-26.753 13.649l-74-24.265C7.47 143.373 2.05 137.36.467 129.94a21.23 21.23 0 0 1 6.552-20.2 21.24 21.24 0 0 1 20.77-4.427l74 24.265a21.23 21.23 0 0 1 13.649 26.753m99.185-.001a21.23 21.23 0 0 0 26.753 13.649l74-24.265c10.504-4.062 16-15.62 12.545-26.335s-14.694-16.863-25.588-14.006l-74 24.265a21.23 21.23 0 0 0-13.649 26.753M63.64 312.053a21.23 21.23 0 0 1-4.732-29.664l45.74-62.97c7.053-8.967 19.932-10.758 29.164-4.054s11.515 19.504 5.17 28.987l-45.74 62.97a21.23 21.23 0 0 1-29.664 4.671m202.862.06a21.23 21.23 0 0 0 4.671-29.664l-45.74-62.97c-7.053-8.967-19.932-10.758-29.164-4.054s-11.515 19.504-5.17 28.987l45.74 62.97a21.23 21.23 0 0 0 29.664 4.671"/></g></svg>