<?xml version="1.0" encoding="UTF-8"?>
<svg width="680.1" height="106.2" version="1.1" viewBox="0 0 680.09998 106.2" xml:space="preserve" xmlns="http://www.w3.org/2000/svg" xmlns:cc="http://creativecommons.org/ns#" xmlns:dc="http://purl.org/dc/elements/1.1/" xmlns:rdf="http://www.w3.org/1999/02/22-rdf-syntax-ns#"><metadata><rdf:RDF><cc:Work rdf:about=""><dc:format>image/svg+xml</dc:format><dc:type rdf:resource="http://purl.org/dc/dcmitype/StillImage"/><dc:title/></cc:Work></rdf:RDF></metadata>
<style type="text/css">
	.st0{fill-rule:evenodd;clip-rule:evenodd;fill:#FFC425;}
	.st1{fill:#FFFFFF;}
	.st2{fill:#21368B;}
	.st3{fill:#FF2313;}
	.st4{fill-rule:evenodd;clip-rule:evenodd;fill:#FF2313;}
	.st5{fill-rule:evenodd;clip-rule:evenodd;fill:#21368B;}
</style>
<path class="st0" d="m4.3 53c0-27 22.6-48.9 50.6-48.9 27.9 0 50.6 21.9 50.6 48.9s-22.6 48.9-50.6 48.9-50.6-21.9-50.6-48.9" clip-rule="evenodd" fill="#ffc425" fill-rule="evenodd"/>
<path class="st1" d="m105.8 59.6-26.8-4.6s-10.5-15.4-16.1-21.9c0 0-3.5-9.3-3.5-13.9s-1.5-8.8-5.3-8.6c-3.8 0.3-10.5 5.5-8.4 15.4 2.1 10 3.8 20.4 3.8 20.4s-15.3-1.4-17.8-0.4-9.4 3.4-9 7c0.4 3.7 1.3 6.6 1.3 6.6s-2.7 4.6-2.1 7.4 3.7 5.2 3.7 5.2-0.8 4.6 0.5 6.6 5.2 3.6 5.2 3.6 1.1 4.2 5.6 6.3 10.5 1.3 13.5 0.8c3-0.4 3.9 1 5.8 1.3 1.8 0.3 9.4-1.1 10.9-2.1s6.2-3.4 8.6-3.5 6.2-0.6 9.1 0.4 6 2.5 6 2.5l12.1-16z" fill="#fff"/>
<path class="st2" d="m104.3 58.4-24.6-4.6c-1.5-2.7-8-13.8-14.2-20-0.6-0.9-4-6.8-4.6-12.2-0.1-1-0.2-2-0.2-2.9-0.4-4.8-0.7-9.4-6.2-9.5-2.5 0-4.8 1.1-6.6 3.1-3 3.6-4 9.6-2.7 16.9 0 0.1 2.3 10.8 2.9 16.1-4.7-0.8-17.5-2.4-23.4 1.9-1.8 1.3-2.9 3-3.1 5.2 0 0.2-0.4 3.5 1.2 6.7-0.9 1.2-2.2 3.6-2 6.8 0.1 2.2 1.2 4.4 3.4 6.1-0.6 3.3 0 8.5 5.2 10.6 0.3 1.3 1.2 3.8 3.7 5.8 2.6 2.1 6.2 3.1 10.7 3.1 1.8 0 3.8-0.2 6-0.5 0.1 0 0.3 0 0.6-0.1 0.7 0.2 6.1 1.8 9.9 1.8 0.4 0 0.8 0 1.2-0.1 2.4-0.3 5-1.8 7.6-3.4 1.7-1 3.4-2 4.7-2.5 3.2-1 9.7 0 17.5 2.7 0.7 0.2 1.5-0.1 1.8-0.9 0.3-0.7-0.1-1.5-0.9-1.8-8.6-3-15.4-3.9-19.3-2.7-1.6 0.5-3.4 1.6-5.3 2.7-2.3 1.4-4.7 2.8-6.5 3-1.4 0.2-3.4-0.1-5.3-0.5 1.8-0.7 3.5-1.8 4.4-3.2 0.8-1.2 1-2.5 0.6-3.9-0.3-1-1.2-2.6-2.8-3.5 1.2-1.4 1.7-3 1.5-4.9-0.2-1.3-1.1-3.5-3.4-4.4 1.2-1.3 1.7-2.8 1.5-4.3-0.1-1.7-1.3-4.6-4.5-5.7 0.8-1.1 1.1-2.5 0.8-3.8-0.5-2.4-2.1-4.1-4.7-5.1-5-1.9-12.4-0.5-14.9 1.4-0.4 0.3-0.9 1.2-0.5 1.9 0.3 0.5 1.5 0.6 2 0.3 2.1-1.1 8.2-2.6 12.4-1 1.7 0.6 2.7 1.6 3 3.1 0.1 0.6 0 1.2-0.4 1.7-2.4 3.1-12.1 4.2-15.6 4.4-4 0.2-7-0.7-8.8-2.6-2.6-2.8-2.1-6.8-2.1-6.9 0.2-1.3 0.8-2.4 2-3.2 5.1-3.7 18.3-2 23-1.1l1.7 0.3v-1.7c0-4.4-2.9-17.8-3-18.3-1.5-8.7 0.6-12.9 2.1-14.6 1.2-1.4 2.7-2.1 4.4-2.1 2.6 0 3 1.4 3.4 6.9 0.1 1 0.1 2 0.3 3 0.7 6.5 4.9 13.2 5.1 13.5l0.2 0.2c6.7 6.6 14.1 19.9 14.2 20.1l0.3 0.6 25.9 4.8c0.8 0.1 1.5-0.4 1.6-1.1 0.1-0.8-0.4-1.5-1.2-1.6m-46.5 26.1c-1.3 2-6 3.2-8.7 3.6-6.5 1-11.4 0.4-14.4-2-1.2-0.9-1.8-1.9-2.3-2.8 1.9 0.3 4.4 0.5 7 0.5 5.4 0 11.7-0.8 15.7-3 2.1 0 2.8 1.9 2.8 2.1 0.4 0.6 0.3 1.1-0.1 1.6m-1.1-10.3c0.1 1.3-0.3 2.3-1.5 3.3l-0.9 0.6c-0.1 0.1-0.4 0.2-0.5 0.3-5.7 3.1-18.1 3.2-22.9 1.8-3.9-1.1-4.3-4.6-4.1-6.7 1.7 0.7 3.8 1.2 6.3 1.3h1.9c4.9 0 12.8-0.8 17.8-3.1h0.2c3.2-0.3 3.6 2 3.7 2.5m-32.2-12.6c2.2 2.3 5.4 3.4 9.6 3.4h1.2c1.2-0.1 9.8-0.6 14.9-3.3 3.9-0.2 4.5 3 4.6 3.7 0.1 0.8-0.1 1.5-0.8 2.1-3.1 3.4-14.3 4.8-20.8 4.5-5.9-0.3-9.6-2.6-9.8-6.3 0-1.7 0.5-3.1 1.1-4.1" fill="#21368b"/>
<path class="st3" d="m324.9 28.5c-6-6-13.4-9.1-22.1-9.1-6.1 0-11.8 1.7-16.9 5-1.6 1.1-3.2 2.3-4.6 3.7v-8.7h-9.7v73.1h9.7v-41.8c0-6.1 2-11.1 6.2-15.3s9.2-6.3 15.2-6.3c6.1 0 11 2 15.2 6.3 4.2 4.2 6.2 9.2 6.2 15.3v41.9h9.7v-41.9c0.1-8.7-2.9-16.1-8.9-22.2" fill="#ff2313"/>
<path class="st3" d="m425 3.7c-3.4 0-5.7 2.3-5.7 5.7s2.3 5.7 5.7 5.7 5.7-2.3 5.7-5.7-2.3-5.7-5.7-5.7" fill="#ff2313"/>
<rect class="st3" x="420.1" y="22.8" width="9.7" height="69.8" fill="#ff2313"/>
<path class="st3" d="m511.8 83.1c-3.2 0-5.7-1.1-7.9-3.3s-3.3-4.8-3.3-8v-61.7h-9.7v61.7c0 5.8 2.1 10.7 6.1 14.8 3.5 3.6 7.8 5.6 12.7 6h13.8v-9.5z" fill="#ff2313"/>
<path class="st3" d="m469.6 83.1c-3.1 0-5.7-1.1-7.9-3.3s-3.3-4.8-3.3-8v-61.7h-9.6v61.7c0 5.8 2.1 10.7 6.1 14.8 3.5 3.6 7.8 5.6 12.7 6h13.8v-9.5z" fill="#ff2313"/>
<path class="st3" d="m261.9 56.1c0-10.2-3.6-19-10.6-26-7-7.1-15.8-10.7-26-10.7s-18.9 3.6-25.9 10.6c-7 7.1-10.6 15.8-10.6 25.9 0 10.2 3.6 18.9 10.6 26 7.1 7.1 15.8 10.6 25.9 10.6 6.5 0 12.5-1.6 18-4.7 3.4-1.9 6.5-4.4 9.1-7.3l2.8-3.2-8.2-5.2-2 2.2c-1.9 2-4 3.7-6.4 5.1-4 2.3-8.5 3.5-13.3 3.5-7.3 0-13.5-2.4-18.7-7.4-4.3-4.1-6.9-8.9-7.8-14.5h63.1zm-36.5-27c7.3 0 13.4 2.4 18.7 7.5 4.3 4.2 6.9 9 7.9 14.7h-53.2c0.9-5.7 3.5-10.5 7.8-14.7 5.3-5.1 11.4-7.5 18.8-7.5" fill="#ff2313"/>
<path class="st3" d="m400.3 73.7c-2 2.3-4.3 4.2-7 5.7-4 2.3-8.5 3.5-13.2 3.5-7.6 0-13.9-2.6-19.1-7.8s-7.8-11.5-7.8-19.2c0-7.6 2.6-13.8 7.8-19.1 5.3-5.2 11.5-7.8 19.1-7.8 4.6 0 9 1.1 13 3.4 2.7 1.5 5.1 3.5 7.2 5.9l2 2.3 8.3-5-2.7-3.2c-2.8-3.4-6.2-6.2-10.1-8.3-5.5-3.1-11.4-4.6-17.7-4.6-10.1 0-18.8 3.6-25.9 10.6-7.1 7.1-10.7 15.8-10.7 25.9 0 10.2 3.6 18.9 10.6 26 7.1 7.1 15.8 10.6 25.9 10.6 6.4 0 12.4-1.6 17.9-4.7 3.7-2.1 7-4.8 9.7-8l2.7-3.1-8.2-5.2z" fill="#ff2313"/>
<path class="st3" d="m175.1 59.5c-2.8-2.9-6.2-5-10.2-6.4-3.9-1.3-8.9-2.7-15-4-6.8-1.4-11.4-2.9-13.8-4.4-2.3-1.4-3.4-3.4-3.4-6.3 0-3.2 1.4-5.6 4.5-7.3s7.1-2.6 12-2.6c5.4 0 9.6 1.1 12.5 3.3 2.7 2 4.3 5.1 4.8 9l0.1 0.5 10.5-0.1v-0.6c-0.3-6.9-3.1-12.3-8.2-16s-11.8-5.6-20.1-5.6c-8.1 0-14.6 1.9-19.3 5.6-4.8 3.8-7.2 8.6-7.2 14.4 0 5.1 1.9 9.3 5.7 12.5 3.7 3.1 9.9 5.6 18.2 7.3 8.2 1.7 14.2 3.4 17.6 5.2 3.4 1.7 5 4.2 5 7.9 0 3.5-1.6 6.2-4.8 8.2-3.3 2.1-7.6 3.1-13 3.1-5.7 0-10.7-1.3-14.7-3.8-3.9-2.4-6-6-6.5-11.1l-0.6 0.1h-9.8c0.3 7.3 3 13 8.3 17.5 5.2 4.5 13.2 6.7 23.7 6.7 8.2 0 15-2.1 20.1-6.1 5.2-4.1 7.8-9.3 7.8-15.5 0.1-4.6-1.4-8.6-4.2-11.5" fill="#ff2313"/>
<path class="st3" d="m538 3.7c-3.4 0-5.7 2.3-5.7 5.7s2.3 5.7 5.7 5.7 5.7-2.4 5.7-5.7c0-3.4-2.4-5.7-5.7-5.7" fill="#ff2313"/>
<rect class="st3" x="533.1" y="22.8" width="9.7" height="69.8" fill="#ff2313"/>
<path class="st3" d="m593.9 68.2v3.6c0 3.1-1.1 5.7-3.2 7.9-2.2 2.2-4.7 3.2-7.8 3.2-3.2 0-5.8-1.1-7.9-3.3-2.2-2.2-3.3-4.8-3.3-8v-34.6h27v-9.7h-27v-14.7h-9.7v59c0 5.7 2.1 10.7 6.1 14.8 4.1 4.1 9 6.1 14.8 6.1 4.2 0 8.1-1.2 11.6-3.5s6-5.4 7.5-9.3c0.9-1.7 1.4-4.2 1.6-7.8l0.2-3.8h-9.9z" fill="#ff2313"/>
<path class="st3" d="m669.7 29.9c-6.9-7-15.5-10.6-25.4-10.6-10 0-18.5 3.6-25.4 10.6-6.9 7.1-10.4 15.8-10.4 25.9 0 10.2 3.5 18.9 10.4 25.9 6.9 7.1 15.4 10.6 25.4 10.6s18.5-3.6 25.4-10.6 10.4-15.8 10.4-25.9-3.5-18.8-10.4-25.9m-25.5 52.9c-7.4 0-13.5-2.6-18.7-7.8-5.2-5.3-7.7-11.5-7.7-19.1s2.5-13.8 7.7-19.1 11.3-7.8 18.7-7.8 13.5 2.6 18.7 7.8c5.2 5.3 7.7 11.5 7.7 19.1s-2.5 13.8-7.7 19.1c-5.2 5.2-11.3 7.8-18.7 7.8" fill="#ff2313"/>
<path class="st4" d="m674 85.7c-3.3 0-6 2.6-6 5.8s2.7 5.8 6 5.8 6-2.6 6-5.8c0.1-3.2-2.6-5.8-6-5.8m0.1 10.7v0.4-0.4c-2.9 0-5.2-2.2-5.2-4.9s2.3-4.9 5.2-4.9c2.8 0 5.2 2.2 5.2 4.9-0.1 2.7-2.4 4.9-5.2 4.9" clip-rule="evenodd" fill="#ff2313" fill-rule="evenodd"/>
<path class="st4" d="m675.4 92.2c-0.1-0.1-0.3-0.2-0.5-0.3 0.6-0.1 1-0.3 1.3-0.5 0.3-0.3 0.4-0.7 0.4-1.1 0-0.3-0.1-0.6-0.3-0.9s-0.4-0.5-0.7-0.6-0.7-0.2-1.3-0.2h-2.8v6h0.8v-2.7h1 0.5c0.1 0 0.2 0.1 0.4 0.2 0.1 0.1 0.3 0.2 0.4 0.4 0.2 0.2 0.4 0.5 0.6 0.8l0.8 1.2h1.1l-1.1-1.6c-0.1-0.2-0.3-0.5-0.6-0.7m-1.1-0.9h-1.8v-2h2c0.5 0 0.8 0.1 1 0.3s0.3 0.4 0.3 0.7c0 0.2-0.1 0.4-0.1 0.5-0.1 0.2-0.3 0.3-0.5 0.4s-0.5 0.1-0.9 0.1" clip-rule="evenodd" fill="#ff2313" fill-rule="evenodd"/>
<path class="st5" d="m54.9 0c-30.3 0-54.9 23.8-54.9 53.1s24.6 53.1 54.9 53.1 54.9-23.8 54.9-53.1c0-29.4-24.6-53.1-54.9-53.1m0 101.1c-27.5 0-49.8-21.6-49.8-48.1 0-26.6 22.3-48.2 49.8-48.2s49.8 21.5 49.8 48.1-22.3 48.2-49.8 48.2" clip-rule="evenodd" fill="#21368b" fill-rule="evenodd"/>
</svg>
