<svg width="204" height="53" viewBox="0 0 204 53" fill="none" xmlns="http://www.w3.org/2000/svg">
<g id="Full logo">
<path id="Vector" d="M146.459 12.8733C146.433 12.8733 146.41 12.8733 146.384 12.8765H146.325L146.316 12.8797H146.306H146.263H146.231C145.323 12.8797 144.424 12.9663 143.558 13.1428L143.516 13.1524C142.034 13.454 140.624 14.0059 139.325 14.7888L138.99 14.991L138.85 14.6284C138.449 13.5792 137.414 12.8733 136.278 12.8733C134.832 12.8733 133.627 13.9867 133.536 15.4081L133.526 15.5429V15.5814V15.5974V36.2197V36.2357V36.2742L133.533 36.3641C133.608 37.7887 134.8 38.9021 136.245 38.9021C137.691 38.9021 138.882 37.7855 138.957 36.3641L138.964 36.2133V23.1892L139.192 22.6213C140.022 20.9463 141.468 19.5987 143.219 18.8767L143.278 18.851C144.219 18.4788 145.209 18.2895 146.221 18.2895C146.293 18.2895 146.364 18.2895 146.436 18.2895H146.456C147.97 18.2895 149.2 17.0702 149.2 15.5782C149.2 14.0861 147.966 12.8668 146.449 12.8668L146.459 12.8733Z" fill="#0A0046"/>
<path id="Vector_2" d="M188.297 43.6991L188.186 43.5804C188.176 43.5708 167.488 23.2726 167.488 23.2726L173.437 17.4039C173.903 16.9066 174.16 16.2584 174.16 15.5878C174.16 14.1054 172.939 12.9021 171.435 12.9021C170.653 12.9021 169.904 13.2358 169.387 13.8198L158.489 24.5593V2.61508C158.45 1.17117 157.232 0 155.771 0C154.309 0 153.091 1.17438 153.058 2.61508V36.2742C153.088 37.7213 154.305 38.8989 155.771 38.8989C157.236 38.8989 158.457 37.7213 158.486 36.2742V32.1414L163.643 27.0653L184.403 47.4405L184.471 47.4982C184.969 47.9378 185.614 48.1785 186.285 48.1785C187.014 48.1785 187.698 47.8993 188.209 47.3891C189.228 46.3784 189.264 44.7612 188.297 43.7055V43.6991Z" fill="#0A0046"/>
<path id="Vector_3" d="M86.2252 12.8572C86.0592 12.8572 58.788 12.8476 58.7261 12.8476H58.7001C57.7852 12.8476 56.8866 12.9374 56.0238 13.1139L56.001 13.1203H55.9879L55.9847 13.1235C54.7149 13.3834 53.4972 13.823 52.3609 14.4359C52.0744 14.5899 51.4037 14.9942 51.4037 14.9942C50.1371 15.8156 49.0302 16.8328 48.1185 18.0136C48.1185 18.0136 47.7832 18.4564 47.6497 18.6521C47.6497 18.6521 47.132 19.5313 46.9659 19.8554L46.9041 19.9741H46.8943C46.4613 20.8404 46.1259 21.7485 45.8915 22.6854L45.8459 22.8972C45.7157 23.4651 45.6213 24.0234 45.5692 24.5689C45.5464 24.8032 45.5301 25.0149 45.5203 25.2267C45.5106 25.3647 45.504 25.4994 45.504 25.6182C45.504 27.0268 46.4841 28.198 47.7376 28.2942H63.776L63.6034 28.7306C63.3918 29.2664 63.1085 29.7895 62.7634 30.2804C61.9104 31.4291 60.7773 32.3179 59.4782 32.857L59.4196 32.8826C58.4819 33.2581 57.4922 33.4506 56.4796 33.4538L39.8584 33.55H39.2495L39.5816 33.0527C40.4933 31.6826 41.1249 30.1841 41.4635 28.5926C41.6524 27.6974 41.7468 26.7861 41.7435 25.8813C41.737 24.2256 41.4179 22.6084 40.7928 21.0779C40.3044 19.865 39.6207 18.7195 38.7514 17.6767C38.2109 17.0253 37.6118 16.4317 36.9704 15.9119C34.6099 13.977 31.621 12.9118 28.5507 12.9118H28.5019H28.4791H28.4498L2.73494 12.992H2.72191H2.7154C2.70889 12.992 2.70564 12.992 2.69912 12.992H2.6568L2.56889 12.9984C1.12328 13.0722 -0.00324883 14.253 7.03961e-06 15.6744C0.00326291 17.0959 1.13956 18.2671 2.58191 18.3409H2.66982C2.68936 18.3441 2.70238 18.3473 2.71866 18.3473H2.74145C2.74145 18.3473 2.77075 18.3473 2.78703 18.3473L28.5279 18.2671C30.247 18.2671 31.8717 18.8061 33.2294 19.8297C33.7797 20.234 34.2713 20.7153 34.688 21.2576C35.8406 22.7271 36.4071 24.5689 36.2834 26.4396C36.0262 30.2836 32.7638 33.4153 28.8535 33.5661C28.7493 33.5693 28.6452 33.5725 28.541 33.5725C27.5707 33.5725 26.6298 33.3992 25.7442 33.0623C24.2269 32.4816 22.3027 30.1938 21.2901 28.8814C20.9678 28.4643 20.6194 28.0728 20.2515 27.7134L20.2352 27.6974L20.219 27.6781C20.0757 27.4953 19.9097 27.3316 19.7241 27.1936L19.7078 27.1808L19.7013 27.1744C19.2292 26.8214 18.6627 26.6321 18.0701 26.6321C17.9138 26.6321 17.7705 26.6449 17.6305 26.6674C17.2268 26.7316 16.8329 26.8888 16.4975 27.123C16.0612 27.4247 15.7291 27.8354 15.5338 28.3167L15.5175 28.3616C15.4003 28.6664 15.3417 28.9905 15.3417 29.321C15.3417 29.4237 15.4133 49.3143 15.4133 49.3143C15.4947 50.7326 16.6863 51.8428 18.1254 51.8428C19.5776 51.8396 20.7659 50.7197 20.8408 49.2983L20.805 36.4571L21.3227 36.8197C23.4358 38.1898 25.9135 38.9246 28.4758 38.9342H28.7982C28.7982 38.9342 56.421 38.8668 56.4796 38.8668C57.4043 38.8668 58.3029 38.7738 59.1657 38.5941L59.208 38.5845C60.6406 38.2861 61.8355 37.8754 62.8676 37.3267L63.4504 36.9898C63.5025 36.9577 63.7174 36.8165 63.7174 36.8165C64.2546 36.4635 64.7593 36.0817 65.2151 35.6774V35.671L65.2639 35.6325C65.8142 35.1448 66.3318 34.5929 66.8007 33.9993C66.8333 33.9608 67.6505 32.8088 67.6505 32.8088C67.8523 32.4848 68.0379 32.1543 68.204 31.827L68.2626 31.7083H68.2691C68.7672 30.7039 69.1351 29.6451 69.3663 28.5573C69.477 28.0183 69.5324 27.4471 69.5356 26.7958C69.5356 26.7958 69.5356 25.5283 69.5324 25.4834C69.4607 24.0555 68.2658 22.9389 66.8137 22.9389H51.5535L51.7716 22.4801C51.9669 22.0694 52.2111 21.6683 52.4944 21.2864L52.5302 21.2383C53.3572 20.1955 54.4479 19.3741 55.6917 18.8607L55.7535 18.835H55.7568C56.6098 18.4981 57.5117 18.3088 58.4299 18.2767L86.0917 18.2286H86.222C90.4969 18.2286 93.9807 21.6619 93.9807 25.8781C93.9807 30.0943 90.5002 33.5308 86.2187 33.5308C85.2419 33.5308 84.2945 33.3575 83.4024 33.011C82.6307 32.7158 81.9079 32.2954 81.2535 31.7628C81.1949 31.7147 81.1428 31.6665 81.0874 31.6152C81.0614 31.5895 81.0354 31.5671 81.0093 31.5446L81.0028 31.5382L80.9963 31.5318C79.746 30.2611 78.3786 28.3231 77.9879 27.7584C77.9748 27.7391 77.9618 27.7199 77.9488 27.7006C77.9325 27.6749 77.9162 27.6493 77.8967 27.6268C77.7502 27.4343 77.5809 27.2706 77.3953 27.1327C77.0111 26.8375 76.5781 26.661 76.106 26.6C75.9855 26.5808 75.865 26.5711 75.7315 26.5711C74.618 26.5711 73.5989 27.2578 73.1952 28.2782V28.291L73.1724 28.3423V28.3488C73.065 28.6375 73.0096 28.9424 73.0096 29.2536C73.0096 29.3146 73.0259 49.5486 73.0259 49.5486C73.1334 50.9347 74.325 52.0193 75.7348 52.0193C77.1446 52.0193 78.3362 50.9347 78.4437 49.5486L78.4535 36.332L79.1046 36.855C81.2275 38.1962 83.6824 38.9053 86.2187 38.9053C93.4988 38.9053 99.4212 33.0687 99.4212 25.8941C99.4212 18.7195 93.4988 12.8797 86.2187 12.8797L86.2252 12.8572Z" fill="#0A0046"/>
<path id="Vector_4" d="M129.681 36.117V26.077L129.678 25.8428C129.649 18.697 123.726 12.8861 116.475 12.8861C109.225 12.8861 103.273 18.7227 103.273 25.8973C103.273 33.072 109.195 38.9086 116.475 38.9086C119.093 38.9086 121.623 38.1545 123.791 36.7266L124.166 36.4796L124.286 36.9063C124.615 38.0775 125.703 38.8957 126.933 38.8957C128.425 38.8957 129.629 37.7438 129.678 36.2774V36.1651H129.681C129.681 36.1491 129.681 36.133 129.681 36.117ZM116.472 33.5468C112.191 33.5468 108.71 30.1135 108.71 25.8973C108.71 21.6811 112.194 18.2478 116.472 18.2478C120.75 18.2478 124.234 21.6811 124.234 25.8973C124.234 30.1135 120.75 33.5468 116.472 33.5468Z" fill="#0A0046"/>
</g>
</svg>
