<?xml version="1.0" encoding="UTF-8"?>
<svg width="126.16" height="140.5" version="1.1" viewBox="0 0 126.1616 140.49883" xmlns="http://www.w3.org/2000/svg" xmlns:cc="http://creativecommons.org/ns#" xmlns:dc="http://purl.org/dc/elements/1.1/" xmlns:rdf="http://www.w3.org/1999/02/22-rdf-syntax-ns#">
<metadata>
<rdf:RDF>
<cc:Work rdf:about="">
<dc:format>image/svg+xml</dc:format>
<dc:type rdf:resource="http://purl.org/dc/dcmitype/StillImage"/>
<dc:title/>
</cc:Work>
</rdf:RDF>
</metadata>
<path d="m37.371 0.4722 18.892 7.5567 24.559-8.0289z" fill="#d7042f" fill-rule="evenodd"/>
<path d="m35.009 3.306c4.1042 2.1716 15.478 6.8427 17.947 9.4459l3.306-4.2507v-0.4723l-18.892-7.5567-1.4887-0.0271z" fill="#ad222d" fill-rule="evenodd"/>
<path d="m56.262 8.0289v0.4723l5.1953 3.7783 23.615-8.5012-2.8338-3.7783h-1.4168z" fill="#dc4958" fill-rule="evenodd"/>
<path d="m100.66 45.34 24.559-0.4723-34.477-15.586z" fill="#7eb033" fill-rule="evenodd"/>
<path d="m1.004 45.812 16.058 0.9446 12.752-15.586z" fill="#0096b7" fill-rule="evenodd"/>
<path d="m86.961 30.699 8.0289 18.419 5.6675-3.306v-0.4723l-9.9181-16.058z" fill="#5a891d" fill-rule="evenodd"/>
<path d="m29.814 31.171-12.752 15.586v0.4722l6.1398 2.3615 12.28-16.53-4.2705-2.8695z" fill="#29b5e4" fill-rule="evenodd"/>
<path d="m100.66 45.34v0.4723l1.4169 6.1398 24.087-1.8892-0.0249-4.6826-0.9196-0.5126z" fill="#a1c24a" fill-rule="evenodd"/>
<path d="m0.5319 49.118 16.53 2.8338v-5.1952l-16.058-0.9446-1.004 0.4767z" fill="#00738f" fill-rule="evenodd"/>
<path d="m63.819 140.27 0.9446-2.3615 30.227-88.791-8.0289-18.419c-0.87 1.3712-11.458 49.355-12.321 54.744-1.386 8.6568-4.3795 18.441-6.1354 27.398-0.9489 4.8408-6.6516 24.601-4.6858 27.43z" fill="#39772f" fill-rule="evenodd"/>
<path d="m52.956 12.752 8.5013 62.342v-62.815l-5.1953-3.7783z" fill="#d2072e" fill-rule="evenodd"/>
<path d="m61.458 77.456v-2.3615l-8.5013-62.342c-2.4693-2.6032-13.843-7.2743-17.947-9.4459l25.065 73.59z" fill="#731c18" fill-rule="evenodd"/>
<path d="m61.458 12.28v65.176c2.3501 1.3678 3.2768-4.8967 3.9668-7.3681 0.9342-3.3458 1.8716-6.0001 2.8338-9.4459 1.8152-6.5014 3.8265-12.298 5.6674-18.892 1.8145-6.4984 3.8133-12.304 5.6689-18.89 1.3411-4.7604 5.1295-14.898 5.4777-19.082z" fill="#b12130" fill-rule="evenodd"/>
<path d="m17.062 51.952 39.2 59.509-33.06-61.87-6.1398-2.3615z" fill="#0094b5" fill-rule="evenodd"/>
<path d="m57.679 114.77-1.417-3.3059-39.2-59.509-16.53-2.8338c7.382 11.024 19.98 22.23 28.149 33.249 3.1917 4.3048 26.04 31.711 28.998 32.4z" fill="#005471" fill-rule="evenodd"/>
<path d="m23.202 49.591 33.06 61.87 1.417 3.3059c0.8471-0.3065 1.4168-0.3427 1.4168-1.8891 0-1.5004-22.095-76.65-23.615-79.817z" fill="#00738f" fill-rule="evenodd"/>
<path d="m94.99 49.118-30.227 88.791 37.311-85.957-1.4169-6.1398z" fill="#7cad31" fill-rule="evenodd"/>
<path d="m102.07 51.952-37.311 85.957-0.9446 2.3615c3.0166 1.7556 7.5888-7.1325 9.068-9.3514 2.6619-3.9927 4.9376-7.6722 7.6508-11.713 5.2606-7.8354 9.9561-15.168 15.205-23.05 10.293-15.457 20.16-30.772 30.419-46.093z" fill="#6b8f16" fill-rule="evenodd"/>
</svg>
