<?xml version="1.0" encoding="UTF-8"?>
<svg width="569.58" height="197.42" version="1.1" viewBox="0 0 569.58477 197.41811" xmlns="http://www.w3.org/2000/svg" xmlns:cc="http://creativecommons.org/ns#" xmlns:dc="http://purl.org/dc/elements/1.1/" xmlns:rdf="http://www.w3.org/1999/02/22-rdf-syntax-ns#">
<metadata>
<rdf:RDF>
<cc:Work rdf:about="">
<dc:format>image/svg+xml</dc:format>
<dc:type rdf:resource="http://purl.org/dc/dcmitype/StillImage"/>
<dc:title/>
</cc:Work>
</rdf:RDF>
</metadata>
<g transform="translate(-14.556 -98.23)" fill-rule="evenodd">
<path d="m495.35 98.702 18.892 7.5567 24.559-8.0289z" fill="#d7042f"/>
<path d="m492.99 101.54c4.1042 2.1716 15.478 6.8427 17.947 9.4459l3.306-4.2507v-0.4723l-18.892-7.5567-1.4887-0.0271z" fill="#ad222d"/>
<path d="m514.24 106.26v0.4723l5.1953 3.7783 23.615-8.5012-2.8338-3.7783h-1.4168z" fill="#dc4958"/>
<path d="m558.64 143.57 24.559-0.4723-34.477-15.586z" fill="#7eb033"/>
<path d="m458.98 144.04 16.058 0.9446 12.752-15.586z" fill="#0096b7"/>
<path d="m544.94 128.93 8.0289 18.419 5.6675-3.306v-0.4723l-9.9181-16.058z" fill="#5a891d"/>
<path d="m487.79 129.4-12.752 15.586v0.4722l6.1398 2.3615 12.28-16.53-4.2705-2.8695z" fill="#29b5e4"/>
<path d="m558.64 143.57v0.4723l1.4169 6.1398 24.087-1.8892-0.0249-4.6826-0.9196-0.5126z" fill="#a1c24a"/>
<path d="m458.51 147.35 16.53 2.8338v-5.1952l-16.058-0.9446-1.004 0.4767z" fill="#00738f"/>
<path d="m521.8 238.5 0.9446-2.3615 30.227-88.791-8.0289-18.419c-0.87 1.3712-11.458 49.355-12.321 54.744-1.386 8.6568-4.3795 18.441-6.1354 27.398-0.9489 4.8408-6.6516 24.601-4.6858 27.43z" fill="#39772f"/>
<path d="m510.94 110.98 8.5013 62.342v-62.815l-5.1953-3.7783z" fill="#d2072e"/>
<path d="m519.44 175.69v-2.3615l-8.5013-62.342c-2.4693-2.6032-13.843-7.2743-17.947-9.4459l25.065 73.59z" fill="#731c18"/>
<path d="m519.44 110.51v65.176c2.3501 1.3678 3.2768-4.8967 3.9668-7.3681 0.9342-3.3458 1.8716-6.0001 2.8338-9.4459 1.8152-6.5014 3.8265-12.298 5.6674-18.892 1.8145-6.4984 3.8133-12.304 5.6689-18.89 1.3411-4.7604 5.1295-14.898 5.4777-19.082z" fill="#b12130"/>
<path d="m475.04 150.18 39.2 59.509-33.06-61.87-6.1398-2.3615z" fill="#0094b5"/>
<path d="m99.096 229.05-0.5466 6.1317-4.9882 2.2486-0.1326 1.5378h20.781v-1.8892c-4.2038 0-6.1398-1.4867-6.1398-5.6674v-16.53c0-4.3982 2.392-11.335 6.6121-11.335 2.6399 0 1.2553 4.7229 4.2507 4.7229h2.3615c2.3343 0 4.2506-1.9163 4.2506-4.2506v-0.4723c0-2.7597-2.4357-5.1953-5.1953-5.1953h-1.8891c-5.933 0-7.8209 5.0728-10.39 8.0289v-8.0289l-14.641 0.9446v1.8892h1.8891c2.437 0 3.7783 1.9664 3.7783 4.2506z" fill="#343434"/>
<path d="m515.66 213-1.417-3.3059-39.2-59.509-16.53-2.8338c7.382 11.024 19.98 22.23 28.149 33.249 3.1917 4.3048 26.04 31.711 28.998 32.4z" fill="#005471"/>
<path d="m481.18 147.82 33.06 61.87 1.417 3.3059c0.8471-0.3065 1.4168-0.3427 1.4168-1.8891 0-1.5004-22.095-76.65-23.615-79.817z" fill="#00738f"/>
<path d="m237.48 201.66h4.2506v27.865c0 6.69 2.7919 10.39 9.4458 10.39 3.0034 0 10.39-1.8047 10.39-3.7784 0-0.9989-0.1691-0.6227-0.4722-1.8892-1.4559 0.7705-3.2966 2.3615-5.1952 2.3615-3.0673 0-4.723-3.0326-4.723-6.1398v-28.81h8.9736v-2.3615h-8.9736v-12.28h-2.3613c-2.2865 0-2.3347 12.28-9.9183 12.28h-1.4168z" fill="#343434"/>
<path d="m552.97 147.35-30.227 88.791 37.311-85.957-1.4169-6.1398z" fill="#7cad31"/>
<path d="m30.142 184.66h7.0843c5.2309 0 9.4459 6.0641 9.4459 11.807v5.1953c0 6.6726-5.4067 11.335-12.28 11.335h-4.2506zm26.448 13.224c0-10.33-7.3964-15.586-17.475-15.586h-24.087v1.8892c3.5542 0 6.1398 1.2452 6.1398 4.7229v43.451c0 3.0579-2.1225 4.2506-5.1953 4.2506h-1.4168v2.3615h22.198v-2.3615h-1.417c-3.7388 0-5.1951-1.4565-5.1951-5.1951v-16.53h7.5566c11.492 0 18.892-5.314 18.892-17.002z" fill="#343434"/>
<path d="m176.08 201.66h0.4723c4.7993 0 5.6675 5.0297 5.6675 9.9181v21.726c0 3.0445-2.1224 3.7783-5.1953 3.7783v1.8892h20.309v-1.8892h-1.4169c-11.123 0 3.9115-38.728-13.696-38.728h-3.7783c-4.7233 0-10.473 3.8546-11.335 7.0844h-0.9447c-0.7698-3.3044-3.8182-7.0844-7.5566-7.0844h-5.6675c-5.1386 0-7.9258 5.2787-10.39 7.0844v-7.0844l-14.641 0.9446v1.8892h1.4168c3.0579 0 4.2506 2.1225 4.2506 5.1951v24.559c0 2.4295-0.5355 5.6675-2.8338 5.6675h-3.306v2.3615h20.781v-1.8892h-1.4168c-4.1915 0-4.2507-3.8547-4.2507-8.0289v-13.697c0-6.8141 2.8779-13.696 9.4458-13.696 3.3989 0 5.6675 3.6501 5.6675 7.0843v24.559c0 3.0445-2.1224 3.7783-5.1952 3.7783v1.8892h20.309v-2.3615h-2.3615c-2.2602 0-3.306-1.5985-3.306-3.7783v-20.781c0-4.566 4.0747-10.39 8.9736-10.39z" fill="#343434"/>
<path d="m319.18 209.69h11.335c7.2246 0 13.224 5.2271 13.224 12.28v1.8892c0 8.1576-6.1056 13.224-14.169 13.224h-10.39zm0-25.504h9.4459c7.3963 0 13.224 3.4384 13.224 10.863v1.4168c0 8.0963-6.9374 11.335-15.113 11.335h-7.5567zm11.335-1.8892h-23.615v1.4168h1.8891c2.2845 0 3.7783 1.4938 3.7783 3.7783v46.757c0 2.3875-3.0221 3.3061-5.6674 3.3061v0.9446h26.448c9.3246 0 17.475-4.4386 17.475-13.696v-2.3614c0-8.5479-8.4961-13.697-17.002-13.697 3.5171-3.057 15.113-0.5691 15.113-13.696v-1.417c0-7.8163-10.164-11.335-18.419-11.335z" fill="#343434"/>
<path d="m560.05 150.18-37.311 85.957-0.9446 2.3615c3.0166 1.7556 7.5888-7.1325 9.068-9.3514 2.6619-3.9927 4.9376-7.6722 7.6508-11.713 5.2606-7.8354 9.9561-15.168 15.205-23.05 10.293-15.457 20.16-30.772 30.419-46.093z" fill="#6b8f16"/>
<path d="m208.67 226.22c0-5.6711 6.1177-8.9736 11.807-8.9736h2.8338v9.4459c0 5.0366-3.8273 9.9181-8.9736 9.9181-3.0887 0-5.6676-4.1476-5.6676-7.5566zm-0.9445-14.641c6.438 0 0.3276-11.807 9.9181-11.807h0.4723c3.3985 0 5.1953 3.2042 5.1953 6.6119v8.9736c-10.774 0-24.559 2.3354-24.559 12.752v0.9447c0 6.6626 4.1509 9.529 10.279 10.503 8.98 1.4271 10.888-4.2758 14.752-5.3079 0.0822 3.6905 3.3646 4.723 7.0844 4.723h6.6121v-1.8892c-5.4976 0-5.2061-3.1126-5.1954-8.5011 9e-3 -4.5653 1e-4 -9.1313 1e-4 -13.697 0-10.402-0.4439-16.53-10.863-16.53h-5.1952c-6.4313 0-14.641 3.2717-14.641 9.4459v0.9445c0 1.9403 2.5965 2.8338 4.7229 2.8338z" fill="#343434"/>
<path d="m273.84 226.22c0-6.1224 6.5127-8.9736 12.752-8.9736h1.8891v7.5567c0 6.1898-2.9362 11.807-8.9736 11.807-2.6466 0-5.6674-3.9052-5.6674-6.6121zm-0.4724-14.641c5.2713 0 0.1494-11.807 9.4458-11.807h0.4723c4.0468 0 5.1953 4.3138 5.1953 8.5012v7.0843h-2.8338c-11.725 0-21.726 3.1093-21.726 15.113 0 4.2067 5.5969 9.4459 9.9183 9.4459h1.4168c7.0139 0 9.1457-2.9365 13.224-5.6676 0.2892 3.4754 3.7922 4.723 7.5566 4.723h6.6121v-1.8892c-5.8018 0-5.2001-2.9631-5.1952-8.5012 4e-3 -4.408 1e-4 -8.8162 1e-4 -13.224 0-5.5042 0.6944-8.6046-1.4191-12.277-1.4189-2.4658-4.7183-4.7251-8.4991-4.7251h-6.1398c-6.4169 0-15.113 3.6432-15.113 9.4459 0 3.2368 2.9302 3.7783 6.1398 3.7783z" fill="#343434"/>
<path d="m361.22 229.05c0-9.8915 9.5579-12.752 19.364-12.752v6.1398c0 7.7756-4.3959 14.641-11.807 14.641h-0.9446c-3.641 0-6.6121-4.2283-6.6121-8.0289zm108.9-26.649c2.5787-1.5134 4.3542-0.5017 4.9235-2.6331h-17.003v0.9445c2.2408 0 5.1952 0.8721 5.1952 2.8338 0 2.6081-14.517 18.48-16.058 18.892v-25.976l0.5715-14.636-11.434 0.4676v1.4168h2.8338c1.5268 0 2.3615 1.7145 2.3615 3.3062v46.757c0 2.2846-1.4938 3.7784-3.7784 3.7784h-3.7783c-10.734 0 6.104-39.2-15.113-39.2-11.746 0-10.485 5.5826-15.113 8.9736v-8.5013l-10.855 0.6002-8e-3 1.289c3.5701 0.0795 5.1951 1.5626 5.1951 5.1952v27.393c0 2.5714-1.6792 4.2506-4.2506 4.2506h-3.7783c-2.0983 0-2.9412-1.1111-3.7783-2.3614 0-8.0267-0.0398-16.063 2e-3 -24.089 0.0443-8.561-2.2942-12.75-10.865-12.75h-3.3061c-6.1781 0-14.641 3.0872-14.641 8.5013v1.4169c0 1.0882 0.3286 1.4169 1.4169 1.4169h3.306c1.0589 0 1.0368-0.3738 1.8892-0.9447 0-5.6787 2.0675-9.4458 7.5567-9.4458 6.2533 0 8.9735 2.7436 8.9735 8.9736v2.8337l-0.5288 4.2422-2.3049 8e-3c-8.7386 0-22.67 3.2942-22.67 11.335v4.2506c0 3.462 4.567 8.029 8.0291 8.029h6.1398c4.5495 0 8.685-5.31 11.335-7.0845 0 4.665 0.5387 7.0845 5.1953 7.0845h24.087v-1.4169h-1.8893c-2.9952 0-4.2506-2.6995-4.2506-5.6676v-16.058c0-6.6035 4.429-15.113 10.863-15.113h2.8338c5.0781 0 7.0844 6.4861 7.0844 11.807v15.586c0 4.3333 0.0276 9.4459-4.2506 9.4459h-1.8892v1.4169h34.95v-1.4169h-1.8892c-2.9954 0-4.2506-2.6995-4.2506-5.6676v-5.6674c0-1.4464 5.7709-7.6783 7.0844-8.029l12.13 20.589 10.068 0.1923v-1.4169c-5.6221-0.4679-7.8782-6.6556-10.579-10.674-1.0909-1.6233-7.8405-11.906-7.8405-12.94 0-3e-3 6.7197-7.4537 7.4312-8.1544 1.3946-1.3736 2.8602-2.3322 4.6479-3.3812z" fill="#343434"/>
<path d="m66.508 213.94c0-5.7731 3.1664-14.169 8.5013-14.169 5.8268 0 7.5567 9.2231 7.5567 15.586h-16.058zm9.9182 22.67c-7.0852 0-10.39-11.621-10.39-19.364h25.976v-1.4168c0-10.239-5.8554-17.475-16.058-17.475h-1.4168c-24.524 0-24.834 41.09 0 41.09h3.306c5.7408 0 13.696-5.7427 13.696-9.9182 0-0.9668-0.973-0.8684-1.8891-0.9445-0.9029 3.3809-5.9315 8.0289-10.391 8.0289z" fill="#343434"/>
<path d="m31.559 260.7c0-1.0883-0.3286-1.417-1.4168-1.417-1.1056 0-1.8892 0.7837-1.8892 1.8892 0 1.0883 0.3286 1.4169 1.4169 1.4169h0.4723c1.0882 0 1.4168-0.3286 1.4168-1.4169z" fill="#343434"/>
<path d="m68.398 260.7c0-1.0883-0.3287-1.417-1.417-1.417-1.1054 0-1.8891 0.7837-1.8891 1.8892 0 1.0883 0.3286 1.4169 1.4168 1.4169h0.4723c1.0883 0 1.417-0.3286 1.417-1.4169z" fill="#343434"/>
<path d="m149.16 260.7c0-0.5749-0.977-1.417-1.8893-1.417-1.1054 0-1.8891 0.7837-1.8891 1.8892 0 0.5748 0.9769 1.4169 1.8891 1.4169 1.1056 0 1.8893-0.7837 1.8893-1.8891z" fill="#4c4c4c"/>
<path d="m193.94 265.87c-1.6078-0.3724-2.1363-0.923-4.1679-0.923h-0.4722c-1.5893 0-3.7784 2.1154-3.7784 4.2506v0.9445c0 3.3167 6.1397 2.9185 6.1397 5.6676v0.4722c0 1.1056-0.7835 1.8892-1.8891 1.8892h-1.4168c-2.5079 0-3.2166-2.5997-3.306 1.417 1.0592 0.2467 1.0857 0.4723 2.3613 0.4723h2.8338c2.6117 0 4.2506-2.1288 4.2506-4.723 0-3.9016-6.6121-3.5469-6.6121-6.1398 0-1.1055 0.7838-1.8891 1.8892-1.8891h1.417c1.2755 0 1.3022 0.2254 2.2582 0.4453z" fill="#343434"/>
<path d="m38.643 264c0-1.5916 0.8346-3.306 2.3614-3.306h2.3614c-0.0336-1.5135 0.1539-2.3615-1.4169-2.3615h-0.9445c-3.0282 0-5.1952 2.7753-5.1952 5.6675v1.4168h-1.8892v2.3615h1.8892v12.28h2.8338v-12.752h3.3059v-1.8893h-3.3059z" fill="#343434"/>
<path d="m45.728 271.09c0.2004-2.4073 1.7011-4.2506 4.2506-4.2506 2.1904 0 3.2536 1.8981 3.3061 4.2506zm4.2506 7.0843c-2.9842 0-4.2506-2.0983-4.2506-5.1952h9.9182v-1.8891c0-3.1305-2.2011-6.1398-5.1953-6.1398h-0.9445c-3.6411 0-6.6121 4.2283-6.6121 8.0289v0.4724c0 3.1031 2.9658 6.6121 6.1398 6.6121h2.3615c1.6282 0 1.8286-0.3494 3.3059-0.4723v-1.8892c-1.4773 0.1229-1.6777 0.4722-3.3059 0.4722z" fill="#343434"/>
<path d="m14.556 280.06h11.335v-2.3615h-8.5013v-17.947h-2.8338z" fill="#343434"/>
<path d="m28.725 280.06h2.8338v-14.641h-2.8338z" fill="#4c4c4c"/>
<path d="m65.564 280.06h2.3615v-14.641h-2.3615z" fill="#343434"/>
<path d="m80.594 265.87c-1.5667-0.3627-1.5076-0.923-3.2233-0.923h-1.4169c-1.0588 0-3.7783 1.9564-3.7783 3.306v1.8891c0 3.3167 6.1398 2.9185 6.1398 5.6676v0.4722c0 1.1056-0.7836 1.8892-1.8892 1.8892h-1.4169c-1.441 0-1.9058-0.4536-2.8337-0.9445l-0.5687 2.3372c1.1556 0.271 1.1823 0.4966 2.4579 0.4966h2.8338c2.3343 0 4.2506-1.9164 4.2506-4.2507v-0.4723c0-3.6764-6.6121-3.7056-6.6121-6.1398 0-1.1055 0.7836-1.8891 1.8891-1.8891h1.4169c1.2756 0 1.3022 0.2254 2.2584 0.4453z" fill="#343434"/>
<path d="m110.43 272.03c0-1.6206 1.2247-4.2506 2.8337-4.2506h1.8893v-2.8337l-0.3426-0.5265-4.9456 3.2173 0.0929-2.2186h-1.8892v14.641h2.3615z" fill="#343434"/>
<path d="m119.41 271.09c0.0518-2.3299 1.3876-4.2506 3.306-4.2506 1.7259 0 3.7783 1.3034 3.7783 2.8336v1.417zm4.2506 7.0843c-2.9983 0-4.655-2.1441-4.7229-5.1952h10.39v-1.8891c0-2.8424-2.607-6.1398-5.6675-6.1398h-0.9446c-2.8962 0-6.1398 3.2436-6.1398 6.1398v2.3615c0 3.5421 2.3022 6.6121 5.6675 6.6121h3.7783c2.0531 0 2.3157-0.3029 2.3615-2.3615l-4.2349 0.5772z" fill="#343434"/>
<path d="m143.08 265.91c-0.7505-0.3507-2.8222-0.9629-3.8361-0.9629-4.0133 0-7.5566 3.0117-7.5566 7.0843v2.3615c0 2.8373 2.8303 5.6676 5.6674 5.6676h2.8338c2.0531 0 2.3156-0.3029 2.3615-2.3615-1.4773 0.1229-1.6779 0.4722-3.3061 0.4722-3.2041 0-5.1951-2.5754-5.1951-5.6675 0-2.7099 2.0312-5.1951 4.7228-5.1951h1.4169c1.2756 0 1.3023 0.2254 2.3037 0.4538z" fill="#343434"/>
<path d="m145.85 280.06h2.8338v-14.641h-2.8338z" fill="#343434"/>
<path d="m154.83 271.56c0-2.2844 1.3413-4.2506 3.7783-4.2506h1.4168c2.0108 0 3.3062 2.9224 3.3062 5.1951v0.9447c0 2.3872-1.7039 4.7228-4.2507 4.7228h-0.9446c-1.5039 0-3.306-2.4065-3.306-4.2506zm5.1951 8.5013c3.9343 0 6.1398-3.7886 6.1398-8.0291v-0.4722c0-3.2303-3.3817-6.6121-6.6119-6.6121h-0.9447c-3.7546 0-6.6121 3.5846-6.6121 7.5566v0.4723c0 3.5425 2.158 7.0845 5.6675 7.0845z" fill="#343434"/>
<path d="m169.47 275.81c0 2.3343 1.9162 4.2507 4.2506 4.2507h1.4168c2.3713 0 2.7405-1.3503 4.2507-2.3615v2.3615h2.3614v-14.641h-2.8338v9.4459c0 1.5616-2.1989 3.306-3.7783 3.306-2.3573 0-3.306-2.2505-3.306-4.7228v-8.0291h-2.3614z" fill="#343434"/>
<path d="m93.429 271.56c0-1.8442 1.8021-4.2506 3.306-4.2506h0.9446c2.5468 0 4.2506 2.3356 4.2506 4.7228v0.4723c0 2.9681-1.2552 5.6675-4.2506 5.6675h-0.9446c-1.7185 0-3.306-2.3028-3.306-4.2506zm5.6674 8.5013c2.6514 0 5.1953-3.1225 5.1953-5.6676v-3.7783c0-2.8372-2.8303-5.6675-5.6676-5.6675-2.9517 0-3.9452 1.6804-5.6674 2.8337v-2.3615h-2.3615v20.781h2.8338v-8.0291c1.3148 0.8805 1.6324 1.8893 3.7783 1.8893z" fill="#343434"/>
<path d="m97.207 295.65c3.4129 0 17.057-2.8197 20.419-3.6677 5.2636-1.3277 14.799-2.999 20.42-2.6272 7.9291 0.5245 13.634 0.1475 21.537 1.0663 8.3789 0.9743 13.347 1.143 20.748 2.8672l1.3831-0.5604 0.0337-1.3288c-4.0622-0.338-9.2061-3.6403-14.678-4.2141-6.8959-0.7232-9.1472-1.4534-16.021-1.4534-10.791 0-19.856 1.1312-30.702 1.886-9.0739 0.6315-20.361 4.7262-29.279 4.7262 0.4877 1.8263 1.453 3.3059 3.7783 3.3059z" fill="#d80412"/>
</g>
</svg>
