<svg xmlns="http://www.w3.org/2000/svg" width="403" height="145"><path d="M.108 131.7l4.125-.416c.248 1.4.752 2.4 1.5 3.064s1.784.978 3.073.978c1.365 0 2.394-.3 3.087-.87s1.038-1.257 1.038-2.033c0-.497-.145-.92-.436-1.27s-.797-.653-1.52-.913c-.495-.17-1.624-.473-3.385-.9-2.267-.56-3.857-1.25-4.77-2.07-1.286-1.152-1.93-2.557-1.93-4.216 0-1.065.303-2.064.9-2.992s1.48-1.637 2.62-2.123 2.518-.73 4.13-.73c2.636 0 4.62.58 5.95 1.738s2.032 2.703 2.1 4.637l-4.25.166c-.182-1.08-.57-1.856-1.167-2.33s-1.492-.71-2.685-.71c-1.23 0-2.195.253-2.892.76-.45.324-.673.76-.673 1.303 0 .497.2.92.63 1.276.533.448 1.83.916 3.892 1.4s3.585.988 4.572 1.5 1.76 1.235 2.32 2.14.837 2.024.837 3.355c0 1.208-.335 2.337-1.003 3.4s-1.616 1.836-2.838 2.348-2.747.77-4.572.77c-2.656 0-4.696-.618-6.12-1.852s-2.274-3.034-2.55-5.4m21.487 6.875v-15.208h4.042v15.208zm0-17.29v-3.7h4.042v3.7h-4.042m22.904 17.29h-4.042v-7.78c0-1.644-.086-2.708-.257-3.2a2.24 2.24 0 0 0-.834-1.129c-.386-.267-.85-.4-1.4-.4a3.2 3.2 0 0 0-1.87.574c-.552.383-.93.9-1.134 1.522s-.306 1.797-.306 3.5v6.904h-4.042v-15.208h3.75v2.234c1.327-1.74 2.998-2.61 5.013-2.61.888 0 1.698.16 2.434.48s1.3.73 1.668 1.227.64 1.06.788 1.693.222 1.535.222 2.71v9.47m8.173-7.93c0 1.618.3 2.803.93 3.554s1.386 1.13 2.296 1.13c.975 0 1.8-.386 2.472-1.157s1-1.913 1-3.426c0-1.58-.323-2.752-.967-3.52a3.06 3.06 0 0 0-2.444-1.15c-.957 0-1.747.378-2.367 1.13s-.93 1.898-.93 3.44zm-3.625 8.932l4.584.5c.076.566.253.956.532 1.17.383.304.987.456 1.812.456 1.053 0 1.844-.157 2.372-.472.354-.2.623-.55.805-1.018.125-.335.187-.95.187-1.85l.012-2.22c-1.192 1.623-2.705 2.434-4.54 2.434-2.045 0-3.665-.865-4.86-2.596-.936-1.37-1.404-3.072-1.404-5.1 0-2.554.613-4.505 1.842-5.854a5.94 5.94 0 0 1 4.58-2.023c1.883 0 3.436.828 4.66 2.48v-2.106h3.75v13.67c0 1.8-.15 3.143-.445 4.03s-.713 1.59-1.248 2.096-1.25.904-2.145 1.2-2.026.43-3.393.43c-2.583 0-4.415-.444-5.495-1.334s-1.622-2.017-1.622-3.384l.015-.5m19.173-1h4.042v-21H68.22zm18.113-8.875c-.028-1.184-.33-2.083-.908-2.7s-1.278-.925-2.104-.925a2.8 2.8 0 0 0-2.191.976c-.577.65-.86 1.533-.85 2.65zm-.208 4.084l4 .667c-.518 1.465-1.335 2.582-2.45 3.35s-2.513 1.15-4.2 1.15c-2.654 0-4.618-.867-5.892-2.602-1.007-1.4-1.5-3.143-1.5-5.263 0-2.528.662-4.5 1.983-5.944s2.993-2.15 5.013-2.15c2.27 0 4.06.752 5.373 2.255s1.94 3.808 1.882 6.912H80.21c.028 1.197.356 2.128.982 2.794a3.09 3.09 0 0 0 2.344.998c.636 0 1.172-.17 1.606-.513s.762-.894.984-1.654m17.432 4.79v-21H119.1v3.542h-11.292v4.667h10.5v3.542h-10.5v5.707h11.708v3.542h-15.958m30.403 0v-2.278a6.011 6.011 0 0 1-2.19 1.936 6.062 6.062 0 0 1-2.865.718c-1.026 0-1.943-.225-2.758-.675a3.99 3.99 0 0 1-1.766-1.893c-.364-.814-.546-1.938-.546-3.373v-9.643h4.042v6.994c0 2.142.073 3.454.222 3.935s.418.867.8 1.15.888.42 1.5.42c.688 0 1.306-.186 1.85-.565s.917-.845 1.118-1.405.302-1.928.302-4.107v-6.422h4.04v15.208h-3.748m12.63 0h-4.04v-15.208h3.75v2.162c.64-1.02 1.217-1.698 1.73-2.034a3.112 3.112 0 0 1 1.742-.503c.918 0 1.803.255 2.654.763l-1.23 3.52c-.68-.438-1.314-.66-1.898-.66-.567 0-1.046.156-1.44.466s-.702.873-.927 1.685-.34 2.515-.34 5.104v4.703m11.59-7.605c0 1.517.358 2.675 1.077 3.48s1.604 1.21 2.658 1.21 1.938-.403 2.65-1.208 1.072-1.975 1.072-3.508c0-1.495-.358-2.647-1.07-3.45s-1.597-1.2-2.65-1.2-1.94.404-2.66 1.2-1.077 1.964-1.077 3.478zm-4.126-.215c0-1.34.33-2.64 1-3.896s1.59-2.214 2.8-2.875 2.56-.992 4.05-.992c2.303 0 4.2.75 5.66 2.25s2.207 3.396 2.207 5.686c0 2.3-.744 4.225-2.23 5.744s-3.355 2.28-5.6 2.28a8.835 8.835 0 0 1-3.99-.948c-1.267-.634-2.23-1.56-2.89-2.783s-1-2.7-1-4.465m33.12-9.638v6h2.314c1.667 0 2.782-.1 3.344-.33a2.78 2.78 0 0 0 1.322-1.04c.318-.47.478-1.02.478-1.644 0-.77-.224-1.404-.672-1.904a2.919 2.919 0 0 0-1.7-.938c-.505-.096-1.518-.144-3.044-.144zm-4.25 17.458v-21h6.803c2.577 0 4.26.106 5.04.316 1.203.314 2.2 1 3.022 2.057s1.217 2.42 1.217 4.1c0 1.3-.233 2.372-.7 3.254s-1.062 1.568-1.782 2.07-1.452.833-2.196.995c-1.012.202-2.476.302-4.392.302h-2.762v7.916h-4.25m28.78-7.29c-.516.173-1.33.38-2.445.62s-1.844.474-2.186.704c-.525.374-.785.85-.785 1.424a1.99 1.99 0 0 0 .627 1.468c.42.41.953.618 1.602.618.724 0 1.414-.24 2.072-.718.486-.366.806-.81.958-1.34.104-.345.157-1.003.157-1.972zm-5.416-3.292l-3.625-.666c.4-1.474 1.117-2.563 2.12-3.27s2.494-1.063 4.472-1.063c1.796 0 3.134.213 4.013.637s1.5.968 1.856 1.623.54 1.858.54 3.6l-.042 4.706c0 1.34.064 2.328.192 2.963s.37 1.317.724 2.044h-4a13.813 13.813 0 0 1-.388-1.17 9.008 9.008 0 0 0-.141-.467c-.688.67-1.423 1.174-2.205 1.5a6.295 6.295 0 0 1-2.504.503c-1.566 0-2.8-.427-3.702-1.278s-1.352-1.93-1.352-3.23c0-.86.206-1.628.615-2.303a4.041 4.041 0 0 1 1.728-1.55c.74-.358 1.8-.674 3.204-.942 1.88-.353 3.185-.683 3.912-1v-.406c0-.784-.192-1.343-.576-1.677s-1.1-.5-2.176-.5c-.72 0-1.28.142-1.685.425s-.73.78-.98 1.492m12.277-4.625h4.3l3.647 10.797 3.563-10.797h4.167l-6.34 17.3c-.354.9-.69 1.57-1.01 2.04s-.7.848-1.105 1.14-.927.52-1.535.683-1.295.245-2.06.245a10.67 10.67 0 0 1-2.283-.244l-.376-3.153a8.794 8.794 0 0 0 1.715.188c.943 0 1.637-.28 2.1-.834s.797-1.265 1.037-2.124l-5.8-15.25m18.82 0h3.71v2.077c1.332-1.635 2.917-2.452 4.757-2.452.976 0 1.824.2 2.543.6s1.308 1.01 1.766 1.823c.67-.812 1.394-1.42 2.167-1.823a5.322 5.322 0 0 1 2.481-.6c1.12 0 2.067.226 2.842.682s1.354 1.12 1.737 2c.276.65.415 1.7.415 3.156v9.743h-4.042v-8.7c0-1.513-.138-2.488-.414-2.927-.374-.577-.946-.863-1.718-.863-.564 0-1.094.172-1.6.517s-.854.85-1.072 1.515-.33 1.714-.33 3.15v7.32h-4.04v-8.35c0-1.485-.07-2.44-.215-2.872s-.364-.75-.665-.96-.708-.316-1.224-.316a2.93 2.93 0 0 0-1.675.502c-.496.335-.85.82-1.067 1.45s-.32 1.678-.32 3.142v7.406h-4.04v-15.208m36.337 6.333c-.03-1.184-.33-2.083-.9-2.7-.574-.616-1.277-.925-2.103-.925-.883 0-1.615.326-2.2.976s-.86 1.533-.85 2.65zm-.208 4.084l4 .667c-.52 1.465-1.335 2.582-2.45 3.35s-2.514 1.15-4.19 1.15c-2.654 0-4.618-.867-5.892-2.602-1.007-1.4-1.5-3.143-1.5-5.263 0-2.528.663-4.5 1.983-5.944s2.992-2.15 5.013-2.15c2.27 0 4.06.752 5.372 2.255s1.94 3.808 1.883 6.912h-10.125c.03 1.197.357 2.128.984 2.794s1.406.998 2.344.998c.636 0 1.17-.17 1.604-.513s.764-.894.985-1.654m22.193 4.79h-4.04v-7.78c0-1.644-.087-2.708-.256-3.2s-.45-.86-.836-1.13-.85-.4-1.4-.4c-.694 0-1.318.192-1.87.574a2.89 2.89 0 0 0-1.134 1.522c-.204.63-.307 1.797-.307 3.5v6.904h-4.04v-15.208h3.75v2.234c1.328-1.74 3-2.61 5.012-2.61.888 0 1.7.16 2.435.48s1.292.73 1.67 1.227a4.44 4.44 0 0 1 .787 1.693c.15.63.222 1.535.222 2.71v9.47m11.924-15.207v3.208h-2.75v6.153l.077 2.177c.05.207.168.376.35.51s.406.2.67.2c.368 0 .896-.13 1.592-.386l.353 3.117c-.932.4-1.987.603-3.164.603-.724 0-1.373-.123-1.953-.367s-1.004-.56-1.276-.948-.458-.9-.562-1.57c-.086-.47-.128-1.418-.128-2.844v-6.647h-1.833v-3.208h1.833v-3.04l4.042-2.375v5.416h2.75m2.273 10.917l4.042-.625c.172.777.52 1.367 1.044 1.77s1.26.604 2.203.604c1.04 0 1.824-.192 2.348-.576a1.29 1.29 0 0 0 .53-1.082 1.06 1.06 0 0 0-.29-.763c-.202-.193-.652-.37-1.354-.535-3.265-.72-5.336-1.378-6.208-1.972-1.2-.822-1.814-1.967-1.814-3.43 0-1.323.52-2.434 1.568-3.332s2.67-1.35 4.87-1.35c2.093 0 3.648.336 4.667 1s1.718 1.67 2.104 3l-3.792.707c-.164-.6-.476-1.045-.935-1.36s-1.115-.473-1.964-.473c-1.072 0-1.84.148-2.304.448-.3.2-.464.484-.464.82 0 .29.133.534.403.737.364.268 1.624.648 3.777 1.138s3.657 1.09 4.512 1.802c.843.72 1.267 1.724 1.267 3 0 1.402-.584 2.607-1.748 3.616s-2.9 1.513-5.172 1.513c-2.07 0-3.71-.42-4.92-1.256a5.79 5.79 0 0 1-2.368-3.411m38.804-4l-2.936-7.792-2.838 7.792zm7.793 8.3h-4.576l-1.816-4.748h-8.464l-1.73 4.75h-4.498l8.135-21h4.47l8.48 21m6.94 0h-4.042v-15.208h3.75v2.162c.64-1.02 1.216-1.698 1.73-2.034a3.105 3.105 0 0 1 1.743-.503c.917 0 1.8.255 2.653.763l-1.23 3.52c-.68-.438-1.314-.66-1.898-.66-.568 0-1.047.156-1.44.466s-.703.873-.927 1.685-.338 2.515-.338 5.104v4.703m17.503-8.875c-.03-1.184-.33-2.083-.907-2.7s-1.28-.925-2.104-.925c-.886 0-1.615.326-2.19.976s-.86 1.533-.85 2.65zm-.207 4.084l4 .667c-.518 1.465-1.335 2.582-2.45 3.35s-2.513 1.15-4.2 1.15c-2.654 0-4.62-.867-5.893-2.602-1.006-1.4-1.5-3.143-1.5-5.263 0-2.528.662-4.5 1.985-5.944s2.992-2.15 5.012-2.15c2.27 0 4.06.752 5.373 2.255s1.94 3.808 1.882 6.912h-10.126c.03 1.197.358 2.128.983 2.794s1.4.998 2.344.998c.637 0 1.172-.17 1.607-.513s.76-.894.984-1.654m16.734-2.5c-.514.173-1.33.38-2.445.62s-1.843.474-2.185.704c-.526.374-.786.85-.786 1.424 0 .566.208 1.054.628 1.468s.952.618 1.602.618c.724 0 1.413-.24 2.072-.718.485-.366.805-.81.957-1.34.104-.345.157-1.003.157-1.972zm-5.416-3.292l-3.625-.666c.4-1.474 1.117-2.563 2.12-3.27s2.495-1.063 4.472-1.063c1.796 0 3.135.213 4.013.637s1.5.968 1.856 1.623.54 1.858.54 3.6l-.04 4.706c0 1.34.064 2.328.192 2.963s.37 1.317.722 2.044H398.3a14.323 14.323 0 0 1-.388-1.17 7.802 7.802 0 0 0-.142-.467c-.688.67-1.42 1.174-2.204 1.5a6.301 6.301 0 0 1-2.505.503c-1.565 0-2.8-.427-3.7-1.278s-1.35-1.93-1.35-3.23c0-.86.204-1.628.615-2.303a4.03 4.03 0 0 1 1.726-1.55c.742-.358 1.8-.674 3.204-.942 1.882-.353 3.186-.683 3.912-1v-.406c0-.784-.192-1.343-.576-1.677s-1.1-.5-2.176-.5c-.72 0-1.28.142-1.685.425s-.73.78-.98 1.492M89.353 35.06H61.835c0-4.516-.53-7.547-1.586-9.1-1.638-2.282-6.157-3.425-13.555-3.425-7.185 0-11.946.657-14.27 1.973s-3.486 4.19-3.486 8.61c0 4 1.03 6.636 3.094 7.9 1.477.896 3.432 1.422 5.867 1.58l5.55.392 22.283 1.66c9.406.948 16.225 3.45 20.455 7.503 3.33 3.162 5.315 7.296 5.948 12.4.37 3.054.555 6.5.555 10.348 0 8.847-.844 15.328-2.535 19.434-3.064 7.535-9.946 12.294-20.656 14.292-4.487.845-11.35 1.268-20.582 1.268-15.412 0-26.15-.917-32.215-2.76-7.443-2.26-12.35-6.835-14.724-13.726C.655 89.58 0 83.193 0 74.25h27.517l.004 2.285c0 4.772 1.37 7.84 4.1 9.208 1.897.943 4.187 1.437 6.88 1.496h10.117c5.16 0 8.457-.264 9.877-.795 2.53-.994 4.2-2.596 4.984-4.812.42-1.364.63-3.13.63-5.3 0-4.838-1.766-7.782-5.293-8.838-1.32-.417-7.455-1-18.406-1.736-8.796-.627-14.905-1.23-18.326-1.817-9-1.685-15.013-5.15-18-10.412C1.452 49.07.135 42.305.135 33.257c0-6.9.71-12.416 2.135-16.572s3.72-7.313 6.885-9.47c4.64-3.315 10.574-5.26 17.8-5.842C32.966.85 39.636.58 46.97.58c11.55 0 19.78.664 24.687 1.98C83.633 5.78 89.62 14.79 89.62 29.6c0 1.215-.1 3.03-.266 5.46M239.94 56.033h18.44c5.846-.2 9.402-.66 10.682-1.364 1.748-.96 2.92-2.885 3.505-5.772.374-1.92.56-4.778.56-8.57 0-4.65-.37-8.096-1.116-10.346-1.064-3.152-3.612-5.072-7.648-5.77-.797-.105-2.708-.16-5.734-.16h-18.7zm-29.58 53.87V0h55.11c7.558 0 13.326.617 17.29 1.85 9.064 2.84 15.145 8.655 18.26 17.443 1.608 4.612 2.412 11.556 2.412 20.828 0 11.148-.892 19.16-2.656 24.038-3.535 9.645-10.8 15.2-21.797 16.64-1.292.216-6.8.4-16.492.564l-4.91.164H239.94v28.376H210.36M360.695 69.5l-13.858-47.642-13.45 47.642zm5.875 21.4h-39.548l-5.313 18.995h-30.603L324.127 0h44.62l33.427 109.904h-29.96L366.57 90.9" fill="#2350a9"/><path d="M169.535 15.463c12.2 0 23.088 5.62 30.246 14.422l6.376-13.67C196.185 6.79 182.613.98 167.643.98c-23.306 0-43.244 14.076-51.426 34h-12.434l-7.34 15.74h15.995a53.643 53.643 0 0 0-.198 4.412c0 1.804.094 3.586.272 5.348h-8.038l-7.34 15.743h19.465c8.416 19.422 28.104 33.057 51.045 33.057 11.562 0 22.3-3.464 31.172-9.382V80.603c-7.153 8.144-17.616 13.3-29.28 13.3-13.634 0-25.628-7.03-32.612-17.67h40.762l7.34-15.744h-54.1a39.842 39.842 0 0 1-.427-5.803 40.81 40.81 0 0 1 .197-3.957h58.88l7.34-15.74h-61.127c6.76-11.667 19.34-19.517 33.748-19.517" fill="#fbbc09"/><path d="M135.787 35.452h61.127l-.428-.672-7.337 15.74.425-.272H130.27l-.045.428a40.619 40.619 0 0 0-.2 4 40.63 40.63 0 0 0 .434 5.875l.062.4h54.503l-.425-.67-7.34 15.74.426-.273h-41.637l.482.73c7.345 11.202 19.685 17.88 33.006 17.88 11.324 0 22.127-4.897 29.637-13.444l-.83-.31v19.294l.208-.4c-9.133 6.082-19.82 9.298-30.908 9.298-22.12 0-41.986-12.864-50.6-32.773l-.125-.283H97.132l.432.675 7.338-15.745-.43.273h8.56l-.053-.52a53.712 53.712 0 0 1-.27-5.3 53.24 53.24 0 0 1 .198-4.371l.04-.512H96.442l.425.673L104.2 35.18l-.427.273h12.75l.118-.292c4.04-9.837 10.912-18.224 19.87-24.26 9.174-6.18 19.938-9.445 31.12-9.445 14.32 0 27.88 5.36 38.188 15.1l-.105-.544-6.372 13.675.793-.1c-7.547-9.277-18.7-14.6-30.612-14.6-14 0-27.096 7.57-34.16 19.755l-.4.708zm33.748-19.52c11.626 0 22.515 5.196 29.878 14.25l.476.585.322-.682 6.516-13.982-.245-.236C196 5.963 182.207.507 167.643.507c-11.372 0-22.316 3.324-31.65 9.612-9.112 6.137-16.102 14.674-20.2 24.682l.434-.294H103.48l-.127.273L95.7 51.193h16.735l-.47-.512a53.875 53.875 0 0 0-.199 4.45 54.18 54.18 0 0 0 .272 5.394l.472-.516h-8.337l-.126.272-7.653 16.413h20.204l-.432-.286c8.775 20.253 28.98 33.343 51.477 33.343 11.278 0 22.144-3.27 31.434-9.46l.21-.14V79.35l-.825.942c-7.33 8.342-17.872 13.126-28.926 13.126-13.004 0-25.048-6.526-32.218-17.457l-.394.734h41.062l.128-.27 7.34-15.745.314-.67h-54.842l.47.402a39.566 39.566 0 0 1-.424-5.735 39.45 39.45 0 0 1 .196-3.91l-.472.427h59.184l.124-.272 7.656-16.414h-61.872l.406.7c6.893-11.894 19.67-19.284 33.342-19.284" fill="#2350a9"/></svg>