<?xml version="1.0" encoding="UTF-8"?>
<svg class="icon" width="512" height="512" version="1.1" viewBox="0 0 512 1024" xmlns="http://www.w3.org/2000/svg" xmlns:cc="http://creativecommons.org/ns#" xmlns:dc="http://purl.org/dc/elements/1.1/" xmlns:rdf="http://www.w3.org/1999/02/22-rdf-syntax-ns#">
<metadata>
<rdf:RDF>
<cc:Work rdf:about="">
<dc:format>image/svg+xml</dc:format>
<dc:type rdf:resource="http://purl.org/dc/dcmitype/StillImage"/>
<dc:title/>
</cc:Work>
</rdf:RDF>
</metadata>
<path d="m576 0h-640c-105.6 0-192 86.4-192 192v640c0 105.6 86.4 192 192 192h640c105.6 0 192-86.4 192-192v-640c0-105.6-86.4-192-192-192zm8 350.4h-500.8v118.4c4.8 158.4-30.4 280-107.2 368-14.4-12.8-30.4-25.6-46.4-38.4 38.4-44.8 64-89.6 76.8-134.4s19.2-110.4 19.2-198.4v-166.4h267.2c-16-33.6-33.6-62.4-49.6-88l52.8-24c3.2 9.6 11.2 22.4 22.4 38.4 14.4 25.6 25.6 44.8 33.6 57.6l-35.2 16h268.8v51.2z"/>
</svg>
