<?xml version="1.0" encoding="UTF-8"?>
<svg class="icon" width="511.99" height="461.73" version="1.1" viewBox="0 0 511.98907 923.45081" xmlns="http://www.w3.org/2000/svg" xmlns:cc="http://creativecommons.org/ns#" xmlns:dc="http://purl.org/dc/elements/1.1/" xmlns:rdf="http://www.w3.org/1999/02/22-rdf-syntax-ns#">
<metadata>
<rdf:RDF>
<cc:Work rdf:about="">
<dc:format>image/svg+xml</dc:format>
<dc:type rdf:resource="http://purl.org/dc/dcmitype/StillImage"/>
<dc:title/>
</cc:Work>
</rdf:RDF>
</metadata>
<path d="m67.077 114.94s-92.416-80-173.06 7.168c-67.328 89.088-114.3 86.656-150.02 97.536 20.992 22.016 129.02 19.328 190.59-32.512 59.008-60.288 132.48-72.192 132.48-72.192zm210.69 589.95c102.78-24.704 135.17-71.296 143.87-136.7 0-86.784-29.696-111.36-99.84-160.64-73.856-50.56-77.184-190.08 17.664-237.06 70.4-35.072 146.18-20.736 211.97 46.976 75.136 81.792 79.232 134.27 85.632 195.84 0 68.864-26.496 163.97-97.024 230.78-35.456 27.904-136.32 95.616-262.27 60.8z" fill="#bb1c21"/>
<path d="m-113.91 347.26c-61.312 180.35 23.168 350.98 69.888 405.38 46.848 54.4 125.44 134.53 267.78 163.07 76.288 15.232 183.42 9.472 275.2-30.72 79.36-34.688 146.56-99.584 178.82-145.79 69.632-99.712 105.22-240.51 84.224-378.24-20.864-137.73-167.68-350.34-417.15-360.96 36.608 10.624 131.97 44.032 163.07 66.304 31.104 22.4 111.74 81.664 152.83 165.76s49.664 177.15 16.896 281.73c-19.072 60.672-72.832 130.82-145.79 179.71-73.088 48.896-171.01 59.648-254.59 45.696-134.14-22.528-223.23-121.09-263.81-220.29s-47.104-254.98 86.272-400.77c9.728-8.96-152.32 48.768-213.63 229.12z" fill="#bb1c21"/>
</svg>
