<svg xmlns="http://www.w3.org/2000/svg" width="486.667" height="450.44" viewBox="0 0 365 337.83" xmlns:v="https://vecta.io/nano"><defs><clipPath id="A"><path d="M0 245h365v92.828H0zm0 0"/></clipPath></defs><g fill="rgb(17.999268%,21.199036%,56.498718%)"><path d="M115.75 189.129l-3.012-1.047-.527-.395c-.652-1.437-1.047-2.488-1.176-4.195v-17.687l.395-2.754.914-1.703 1.313-.66 1.703-.258h21.883l1.703.258 1.313.52 1.18 4.848.133 4.59h-9.437v-4.719h-11.398v17.559h11.398v-6.289h9.438c0 3.277 0 7.207-1.18 10.355l-2.098 1.047-2.359.52h-20.18l-.004.012m38.268-.002l-2.887-.656v-.266l-1.309-1.184-.523-1.965v-24.637h9.434l.133 23.063h12.188v-23.062h9.566l-.133 23.984c0 .914-1.176 3.145-1.703 3.797l-2.223.789-22.543.137m56.742-7.859l-.785 1.914-1.051.73H198.5v-7h10.426l1.184.277c.781.785.652 3.16.652 4.078zM198.5 164.914h10.035l1.309.715-.035 5.332c-3.801 0-7.309.227-11.309.355v-.008-6.395zm20.777 11.77l-.52-1.176-1.445-1.18-1.047-.395 1.309-.395c.789-.523 1.445-1.578 1.703-2.492 0-2.223 0-4.32.133-6.418l-.266-1.18-.652-1.574-.391-.656-.918-.152-1.703-.152H189.5v28.215l-.23-.215h24.371c1.051 0 2.098-.41 3.281-.676.914-.523 1.703-1.258 2.223-2.172l.395-1.02c0-2.098 0-4.184.133-6.277l-.395-2.086m2.476 4.715v-.02h-.004zm28.961-74.437c-.918 1.832-1.441 4.188-2.488 5.766l-1.57 2.754-2.098 3.141c-.789.914-1.441 1.84-2.098 2.887l-.395.266-2.883 3.141h-.262l-.262.398c-1.574 1.047-3.016 2.223-4.453 3.406l-6.32 3.406-2.387.914.027-4.586-.184-2.355-1.008-3.145-3.914-4.324-2.348-1.441-3.008-1.18-2.227-.523c-.914-.137-1.703-.137-2.488-.137l2.23.094.133-10.527H209.5v10.434c-2 0-3.504 0-5.078.395l-2.344.695c-.914.52-1.812 1.477-2.734 1.477h-.262l-1.961 1.797c-.656.785-1.316 1.621-1.836 2.535-.395.926-.789 1.859-1.051 2.91l-.395 6.039-4.715-2.75-3.406-2.617-3.41-3.012-.918-1.305-3.93-5.113-1.832-3.406c-1.051-1.707-1.84-3.93-2.625-5.898l-1.016-4.586c-.262-1.051-.488-2.098-.488-3.016V90.19c1-3.012.883-7.465 2.586-10.09 0-1.312 1.559-3.668 2.078-4.715l1.566-2.359c0-.914 1.57-1.969 1.57-2.492l.523-.656 1.566-1.703 1.313-1.574.133-.395 1.18-1.051c.914-.914 1.965-1.703 3.012-2.484l.523-.395c1.047-.52 2.227-2.227 3.539-2.227.914-.789 3.145-2.359 4.453-2.359 0 .656 1.969 3.406 2.887 3.406l2.488 1.965 3.016 1.574c2.098.656 4.98.914 7.207.914 1.703-.129 4.453-.523 6.027-1.441 1.051 0 1.965-1.441 2.883-1.441l1.313-1.312c1.047-1.176 2.75-3.145 3.145-4.715l.262-.395c.914.266 1.832.66 2.75 1.051 1.574.785 3.277 1.574 4.98 2.488l2.227 1.313 2.359 1.965 2.492 2.094 1.965 2.098 1.574 1.574c1.309 1.965 2.617 3.93 4.059 5.898l1.051 2.227c1.047 1.703 1.965 4.324 2.617 6.156.395 2.492.922 4.984 1.445 7.473 0 1.703 0 3.406.129 5.109 0 3.672-.914 7.734-1.703 11.273zM193.5 147.719c0 1.176-.352 2.402-.617 3.582l-.879 1.613h-58.312v-.043l-.656-.539-.262-.531-1.574-3.805-.262-1.312-.133-31.062 1.445-.266 2.883-1.437c.918 0 1.441-1.441 2.359-1.441 2.227-1.441 4.32-5.375 5.371-7.734l.652-2.098c.395-.656.668-3.012.668-3.93l1.316 1.313v.254l3.531 2.754 4.06 1.963c1.57 0 3.273 0 4.977.137l1.313-.137c1.309-.914 3.668-1.312 4.848-2.492 1.047-.52 2.359-1.828 3.145-2.75.262 1.836.656 3.672 1.051 5.633.129.789.387 1.707.652 2.625l3.668 8.516 2.359 3.539.527.66 1.047 1.703c1.047 1.18 2.098 2.359 3.273 3.539l3.277 3.016.656.785 1.57.914 2.098 1.441.523.629 1.703 1.156h.395l.523.414 1.273.469 1.531.867v12.055zm-66-36.043v.008-.141l-2.934-.785-1.73-1.047c-2.355-1.836-5.156-5.77-5.156-9.043l-.18-.785V71.836l.035-.52.281-1.574.336-1.703c.395-.914.887-1.703 1.414-2.492 0-1.047 2.211-2.879 2.738-3.406.785-.52 1.695-1.047 2.609-1.57l1.441-.395 1.961-.266c.789 0 1.703.141 2.621.266l2.492 1.18 1.965 1.441 1.309 1.309.918 1.313c1.703 2.621 2.359 6.027 2.621 9.172l-.133 25.031c-.656.66-1.047 3.016-1.176 4.063-.527.785-.922 1.57-1.312 2.492l-2.227 2.617c-1.051.66-2.098 1.309-3.012 2.098l-1.527.52c-1.176 0-2.355.129-3.355.266zm17-49.535l.426-1.309.543-1.965.531-1.969c.652-1.176 1.445-2.359 2.23-3.539l1.313-1.309 2.359-1.707c1.051-.391 2.098-.656 3.148-.914 1.441.129 2.883.258 4.453.52l3.148 1.973 2.094 2.484c.922 0 2.359 4.461 2.625 5.375l.129 22.668.395 4.457c-.133 1.969-.656 4.324-1.312 6.289a16.75 16.75 0 0 0-1.441 2.625c-.652.785-1.309 1.57-1.965 2.488l-1.312 1.051c-1.309.52-2.762 1.043-3.945 1.57-1.176 0-2.418 0-3.418.129v.008-.137c-3-.395-5.887-2.621-7.324-5.242l-.191-.52-1.668-3.801-.406-1.574-.41-1.441v-26.21zm27-4.32c1-2.488.883-5.371 2.453-7.336 0-1.184 2.934-3.539 3.59-4.195 1.965-1.441 3.824-2.098 6.316-2.098 2.223 0 6.168 1.965 7.086 3.934 1.707.785 2.367 4.063 3.152 5.633l-1.965 1.051c-1.309 0-2.879 2.266-4.059 2.266-1.703 1.18-3.277 1.84-4.848 3.84h-.262l-.785.746-2.359 2.012-1.18 1.398c-1.574 1.047-2.883 3.52-4.062 4.957-.789 1.18-1.539 2.352-2.195 3.527l-.883 1.691v.004-17.43zm27-21.629l.223-1.309 2.281-3.406.352-.523 1.809-1.309c1.313-.66 2.352-1.309 3.789-1.441l.523-.207 3.008-.082h1.836c1.57 0 4.457 1 5.504 3h.262c.523 0 1.313 1.328 1.969 2.242l1.445 2.773v17.297c-1 .914-.789 1.832-1.051 2.879l-1.512 2.098-.949.926c-1.18.52-2.246 1.047-3.293 1.703-.914.129-1.656.254-2.445.52-1.309 0-2.75 0-3.75.137v.004-.137l-1.891-.266-1.797-.523c-1.312-.785-3.848-1.836-4.504-3.277l-1.562-2.488-.246-1.574V36.191zm57.586 52.02l-1.57-6.945-.527-1.18c0-1.18-1.441-3.406-1.832-4.59-.785-1.437-1.574-2.75-2.359-4.059-.918-1.309-1.703-2.492-2.488-3.668-.266-.922-1.836-1.965-1.836-2.625-.785-.914-1.574-1.699-2.359-2.484-.918-.789-1.836-1.578-2.621-2.363l-1.965-1.309c-1.309-1.312-3.145-1.965-4.586-3.148l-1.18-.52-5.598-2.625-1.664-.52V37.102l-.301-2.355c-.262-.918-.543-1.707-.805-2.492l-1.586-2.879c-1.047-1.051-2.102-2.105-3.145-3.02a37.71 37.71 0 0 1-2.492-1.176c-2.23-1.309-5.117-1.574-7.734-1.574l-1.965.137c-1.578.395-4.328.785-5.508 1.965-1.574 0-3.41 2.492-4.586 3.277l-.395.52c-1.047 1.441-2.527 3.277-2.922 5.113-.133.914-.562 1.836-.562 2.754v7.469c0-.395-1.402-2.133-2.32-2.133-1.57-1.316-3.238-1.793-5.203-2.793h-5.109c-1.441 1-2.75.957-4.062 1.742l-1.445 1.133-1.043.703c-1.047.914-1.969 1.984-2.883 3.031l-.527.797c-.523.918-1.047 1.973-1.57 3.02l-.527 1.445-.129.918-1.969-2.754c-1.043-.652-2.879-2.879-3.93-2.879-2.094-2.094-6.812-1.703-9.434-1.574-1.051.262-2.098.656-3.012 1.051-1.051.652-3.41 1.703-3.937 2.883l-.914.785c-1.051 1.309-3.539 4.32-3.539 6.16-.395.914-.789 1.965-1.051 3.012-.258.918-.391 1.836-.52 2.883l-1.051-1.18-1.18-1.57-.523-.395-1.312-.754c-1.047-1.047-4.32-2.457-6.027-2.457h-3.402c-1.973 0-3.41 1.016-5.242 1.805l-1.875 1.426c-.918.781-2.262 1.688-2.262 2.602v.266l-1.797 2.359c-1.051 1.57-1.687 3.273-2.211 4.98l-.32 1.441c-1.441 9.176-.289 19.133-.289 28.57.129.914.246 1.832.512 2.879.258.922 2.09 6.688 3.133 6.688l4.063 4.059c1.176 1.184 4.059 2.492 5.762 2.492l.527 32.238 1.57 4.715 3.012 3.488 2.098.992h58.184l1.836-.34 1.57-1.02c.656-1.445 1.445-2.871 2.23-4.309.133-1.184.496-2.355.754-3.535 0-2.621-.633-5.102.367-7.594v-12.184c0-1.312.289-2.621.684-3.805.527-.785 1.98-2.883 3.031-2.883.918-.91 2.43-1.176 3.609-1.57l1.938-.266 5.488.395c.918.266 2.746.785 3.398 1.441 1.051 0 2.227 1.707 3.016 2.23l1.043 1.965c.523.785.785 2.121.785 3.047l.262 52.426h4.191l-.129-43.801 1.309-.402c1.051-.527 2.098-.992 3.277-1.387.656-.129 1.707-1.148 2.621-1.148l.918-.504 4.98-3.402 1.441-.91.523-.52.652-.656c1.441-1.57 2.738-3.012 4.309-4.453 1.18-1.836 2.652-3.539 3.652-5.246v-.262c1-2.359 2.512-4.719 3.82-6.949 0-1.18 1.383-3.93 1.645-4.715.266-1.703.691-3.406 1.086-5.113.133-2.359.285-4.719.543-7.074-.258-2.098-.375-4.195-.508-6.16"/><path d="M201.629 85.738l9.508-14.52 9.504 14.52-9.504 14.523-9.508-14.523m18.953 3.348l16.699.008-7.93 14.078-16.703-.012 7.934-14.074m-18.906 0l-16.699.008 7.93 14.078 16.699-.012-7.93-14.074"/></g><g clip-path="url(#A)"><path d="M277.613 301.551v14.316h50.402c10.258.855 13.004-14.84 0-14.402v.102h-50.402zm0-32.934v14.316h50.402c8.254.102 9.34-14.66 0-14.406v.098h-50.402zm-37.797-21.191v64.012c0 14.512-11.883 26.391-26.398 26.391h-64.039c-14.512 0-26.395-11.883-26.395-26.391v-64.012h28.48v58.602c0 4.801 3.93 8.734 8.73 8.734h43.238c4.801 0 8.73-3.934 8.73-8.734v-58.602zm-214.223-1.687h62.074c14.07 0 25.594 11.523 25.594 25.59v9.621H86.453v-3.168c0-4.656-3.809-8.461-8.461-8.461H36.078c-4.66 0-8.465 3.805-8.465 8.461V307a8.49 8.49 0 0 0 8.465 8.465h41.914c4.652 0 8.461-3.809 8.461-8.465v-4.375h26.809v9.621c0 14.066-11.523 25.582-25.594 25.582H25.594C11.523 337.828 0 326.313 0 312.246v-40.918c0-14.062 11.523-25.586 25.594-25.586zm225.961 1.688h76.258c22.035-.609 33.664 4.008 33.898 19.605.234 14.977-3.859 22.199-11.73 24.313 11.637 1.84 15.816 9.914 14.898 22.258-.605 22.48-13.711 23.469-36.863 23.449h-76.457v-89.637" fill="rgb(92.498779%,3.49884%,46.699524%)"/></g><path d="M183.645 226.133c-60.988 0-110.734-49.73-110.734-110.707 0-61.02 49.746-110.75 110.734-110.75 61.004 0 110.738 49.73 110.738 110.75 0 60.977-49.734 110.707-110.738 110.707zm0-226.133C120.09 0 68.23 51.836 68.23 115.426c0 63.566 51.859 115.391 115.414 115.391 63.57 0 115.402-51.824 115.402-115.391C299.047 51.836 247.215 0 183.645 0" fill="rgb(17.999268%,21.199036%,56.498718%)"/></svg>