<?xml version="1.0" encoding="utf-8"?>
<!-- Generator: Adobe Illustrator 25.4.1, SVG Export Plug-In . SVG Version: 6.00 Build 0)  -->
<svg version="1.1" id="Layer_1" xmlns="http://www.w3.org/2000/svg" xmlns:xlink="http://www.w3.org/1999/xlink" x="0px" y="0px"
	 viewBox="0 0 600 600" style="enable-background:new 0 0 600 600;" xml:space="preserve">
<style type="text/css">
	.st0{fill:#FFFFFF;}
	.st1{fill:#00952F;}
</style>
<path id="rect578" class="st0" d="M90,0h420c49.86,0,90,40.14,90,90v420c0,49.86-40.14,90-90,90H90c-49.86,0-90-40.14-90-90V90
	C0,40.14,40.14,0,90,0z"/>
<g id="JtwBbC_00000132799641469102425170000000131574622254672797_">
	<g>
		<path class="st1" d="M33.66,469.09c13.4-18.22,27.22-36.15,40.11-54.72c33.31-47.98,66.05-96.35,99.32-144.35
			c31.49-45.42,63.43-90.53,95.03-135.87c5.92-8.49,10.78-17.73,16.83-26.12c6.18-8.58,16.27-9.04,21.98-1.26
			c8.66,11.8,16.96,23.88,25.26,35.94c4.82,7.01,8.08,14.76-0.7,20.77c-9.33,6.39-15.33,0.95-20.22-7.33
			c-4.15-7.04-9.07-13.63-14.91-22.29c-14.97,21.85-28.76,42.11-42.69,62.26c-11.73,16.98-23.36,34.03-35.53,50.7
			c-18.83,25.81-16.89,75.81,8.38,96.69c1.89,1.57,1.55,8.7-0.34,11.53c-20.56,30.76-41.61,61.2-62.57,91.69
			c-10.57,15.38-20.99,30.87-32.02,45.91c-2.15,2.93-6.79,5.71-10.3,5.73c-29.21,0.22-58.42-0.23-87.63-0.47
			C33.66,488.29,33.66,478.69,33.66,469.09z"/>
		<path class="st1" d="M316.96,420.61c-17.04,24.94-33.76,49.63-50.84,74.07c-1.51,2.17-5.3,3.87-8.04,3.89
			c-34.77,0.26-69.54,0.17-107.36,0.17c5.58-8.36,9.68-14.72,13.98-20.94c38.09-54.97,76.31-109.85,114.31-164.88
			c24.41-35.36,48.54-70.93,72.71-106.45c5.4-7.94,12.98-8.26,19.91-4.14c7.37,4.38,5.78,10.72,1.17,17.39
			c-22.38,32.41-44.03,65.32-66.61,97.58C281.37,352.77,288.55,391.01,316.96,420.61z"/>
		<path class="st1" d="M287.21,497.27C331.94,432.1,376.62,367,421.3,301.89c5.07-7.38,12.75-7.9,19.04-4.1
			c7.78,4.71,5.64,12.73,1.34,19.05c-16.52,24.25-33.41,48.25-50.14,72.35c-8.38,12.08-17.17,23.91-24.98,36.35
			c-10.65,16.96,0.14,42.05,20.41,48.05c5.3,1.57,10.97,2.57,16.48,2.6c39.59,0.22,79.19,0.15,118.78,0.11
			c8.05-0.01,8.98-4.1,4.95-9.97c-14.22-20.72-28.58-41.33-42.92-61.97c-2.05-2.95-5.68-5.68-5.98-8.77
			c-0.49-4.95-0.5-11.9,2.44-14.68c2.94-2.78,10.12-2.84,14.74-1.56c3.66,1.01,6.81,5.47,9.24,9.04
			c19.66,28.84,39.38,57.64,58.33,86.95c3.02,4.66,4.21,12.4,2.53,17.49c-1.04,3.14-9.12,5.55-14.05,5.57
			c-87.3,0.36-174.59,0.3-261.89,0.29C289,498.69,288.37,497.97,287.21,497.27z"/>
	</g>
</g>
</svg>
