<?xml version="1.0" encoding="UTF-8"?>
<svg width="562.23" height="114.17" enable-background="new 0 0 578.666 136" overflow="visible" version="1.1" viewBox="0 0 562.22997 114.174" xml:space="preserve" xmlns="http://www.w3.org/2000/svg" xmlns:cc="http://creativecommons.org/ns#" xmlns:dc="http://purl.org/dc/elements/1.1/" xmlns:rdf="http://www.w3.org/1999/02/22-rdf-syntax-ns#"><metadata><rdf:RDF><cc:Work rdf:about=""><dc:format>image/svg+xml</dc:format><dc:type rdf:resource="http://purl.org/dc/dcmitype/StillImage"/><dc:title/></cc:Work></rdf:RDF></metadata>
<g transform="translate(-8.218,-10.913)">
	<path d="m149.62 44.427h29.692l10.952 41.698h0.74c0.526-3.473 1.054-7.16 2.002-10.523l8.945-31.175h29.385l13.053 79.397h-27.902l-3.901-43.488h-0.522c-0.525 2.631-1.054 5.367-1.896 7.895l-11.477 35.594h-16.847l-10.319-33.595c-0.843-3.369-1.583-6.527-1.795-9.895h-0.948c-0.207 3.16-0.417 6.422-0.734 9.576l-3.373 33.912h-27.902z" fill="#acacac"/>
	<path d="m287.1 95.078-3.368-14.006c-0.842-3.373-1.371-6.846-1.9-10.215h-1.048l-5.268 24.221zm-19.062 28.746h-30.534l27.585-79.397h31.91l28.327 79.397h-30.541l-2.627-9.902h-21.803z" fill="#acacac"/>
	<path d="m403.76 77.07c-0.217 12.953-0.217 23.797-9.587 33.902-8.426 9.166-21.372 14.115-33.693 14.115-24.216 0-43.8-14.953-43.8-40.436 0-25.901 19.054-41.488 44.012-41.488 13.794 0 32.751 6.846 38.958 20.429l-26.956 9.901c-2.21-4.002-6.315-6.109-10.951-6.109-10.313 0-16.005 8.845-16.005 18.425 0 8.736 5.476 16.953 14.846 16.953 4.532 0 10.322-2.107 11.688-6.949h-13.054v-18.743z" fill="#acacac"/>
	<path d="m405.92 44.427h27.698l25.9 44.017h0.839c-1.154-6.635-2.42-13.48-2.42-20.218v-23.799h27.585v79.397h-27.585l-25.375-41.697h-0.841c0.944 5.471 1.788 10.633 1.788 15.902v25.795h-27.59v-79.397z" fill="#acacac"/>
	<path d="m532.23 95.078-3.373-14.006c-0.841-3.373-1.367-6.846-1.897-10.215h-1.051l-5.265 24.221zm-19.06 28.746h-30.536l27.584-79.397h31.907l28.325 79.397h-30.536l-2.632-9.902h-21.795z" fill="#acacac"/>
	<polygon points="67.949 55.669 92.769 123.9 122.69 123.91 93.875 44.642 71.974 44.638"/>
	<path d="m72.479 10.913c-8.027 0-14.533 6.504-14.533 14.536 0 8.022 6.506 14.531 14.533 14.531s14.531-6.509 14.531-14.532c0-8.031-6.504-14.535-14.531-14.535" fill="#e22e2f"/>
	<polygon points="52.816 123.9 30.511 62.672 8.218 123.9"/>
	<polygon points="33.056 55.669 57.875 123.9 87.792 123.91 58.974 44.642 37.076 44.638"/>
</g>
</svg>
