<svg xmlns="http://www.w3.org/2000/svg" viewBox="0 0 96.2 96"  xmlns:v="https://vecta.io/nano"><path d="M48.2,0c26.4,0,48,21.6,48,48c0,26.6-21.6,48-48,48C21.7,96,0,74.5,0,48C0,21.6,21.7,0,48.2,0" fill="#d13239"/><path d="M84.7 31.2h.5c-.2 1.4-.8 2.4-1.7 3-1.1.6-2.3 1-4.2 1h-1.7c-6.2-.4-7.5 6.2-6.8 11 .5 3 1.6 6.2 3.4 8.4 1.6 1.7 4 2.8 6 1.1 1.7-1.4 2.2-4.6 2.2-6.5 0-3.3-1.2-8.4-5.3-8.4-1.2 0-2.3.5-3.2 1.7-.7.9-1 2.6-1 4.3h-.8c-.5-4 1.4-7.3 5.6-7.4 5 0 8 4 8 9s-3.1 9.7-8.2 9.7c-2.7 0-4.8-1-6.4-3-1.6-1.9-2.3-5-2.3-9 0-5 .8-7.9 2.3-10.3 1.6-2.3 3.7-3.4 6.7-3.4h2.5c1.6.2 2.7 0 3.3-.1.5-.3 1-.6 1.1-1.1m-35.1 8.4l6.1 13.5 5.6-12.4.5-1.1h4.6v.6H66c-.6 0-1.3.7-1.3 1.4V56c0 .8.7 1.4 1.3 1.4h.4v.5H60v-.5h.5c.6 0 1.3-.6 1.3-1.4V42.7L55 57.9h-.4l-6.7-15.5v13.5c0 .8.6 1.4 1.2 1.4h.5v.5h-4.7v-.5h.5c.7 0 1.3-.6 1.3-1.4V41.6c0-.7-.4-1.4-1.4-1.4-.8 0-1.7.8-2.2 1.9l-6.4 14.2c-.6 1.2-1.4 1.6-2.5 1.6h-1.5l-.3-1.9 1.4.9c.8.4 1.4-.1 1.6-.7l.8-1.8-5.8-12c-.7-1.3-1.2-1.9-2.1-2.1v-.6h5.8v.6h-.5c-.5 0-.7.7-.3 1.4l4.4 9.4 4.1-9.1c.5-.9.1-1.6-.6-1.7v-.7h8.4zM23 51.9v-11h-8.2V56c0 .8.6 1.4 1.2 1.4h.5v.5h-6.4v-.5h.5c.7 0 1.3-.6 1.3-1.4V41.6c0-.8-.6-1.4-1.3-1.4h-.5v-.6h17.7v.6h-.5c-.7 0-1.3.7-1.3 1.4V56c0 .8.6 1.4 1.3 1.4h.5v.5h-6.4v-.5h.5c.6 0 1.2-.6 1.2-1.4v-4.1H23z" fill="#fff"/></svg>