<svg xmlns="http://www.w3.org/2000/svg" width="330" height="164" viewBox="8.5 48.833 329.269 163.693"><g transform="translate(-1.731 -2.128)"><path d="M336.54 85.154H322a2.99 2.99 0 0 1-2.961-2.961V67.385A2.99 2.99 0 0 1 322 64.423h14.54a2.99 2.99 0 0 1 2.961 2.962v14.808a2.99 2.99 0 0 1-2.961 2.961zm-19.386-20.462h-9.962a1.84 1.84 0 0 1-1.885-1.885v-9.96a1.84 1.84 0 0 1 1.885-1.885h9.962a1.84 1.84 0 0 1 1.885 1.885v9.96a1.84 1.84 0 0 1-1.885 1.885z" fill="#bccf00"/><linearGradient id="A" gradientUnits="userSpaceOnUse" x1="157.77" y1="117.712" x2="157.77" y2="243.039"><stop offset="0" stop-color="#bccf00"/><stop offset="1" stop-color="#438f29"/></linearGradient><path d="M47.923 91.615h-21.27c-11.308 0-16.423 5.116-16.423 16.423v72.692c0 4.31 1.346 5.654 5.654 5.654h1.346c4.308 0 5.654-1.346 5.654-5.654v-28.27h24.5c21.808 0 32.038-9.69 32.038-30.422.538-20.73-9.692-30.423-31.5-30.423zM66.77 122.04c0 11.846-2.96 18.307-18.846 18.307h-24.5v-30.692c0-4.308 1.616-5.923 5.923-5.923h18.846c11.847.27 18.577 3.23 18.577 18.308zm40.385-9.424c-8.346 0-13.73 1.077-15.615 1.346-3.5.808-5.116 1.616-5.116 5.654v1.346c0 1.616.27 2.692.808 3.5s1.615 1.346 2.692 1.346c.54 0 1.346 0 2.154-.27 1.884-.54 8.346-1.616 15.615-1.616 12.654 0 17.77 3.5 17.77 12.116v7.538h-15.884c-20.462 0-30.154 7-30.154 21.808 0 14.538 9.962 22.346 27.73 22.346 21.27 0 30.692-7.27 30.692-23.423v-28.27c.27-15.884-9.96-23.423-30.692-23.423zm18.307 41.193v9.962c0 8.076-2.96 12.923-18.308 12.923-10.23 0-15.077-3.77-15.077-11.308 0-8.346 4.846-11.577 17.77-11.577zm83.193-33.385l-16.424 65.692c-4.846 19.385-13.19 27.462-28.538 28.54h-1.077c-3.23 0-4.308-1.885-4.846-4.847l-.27-1.347c-.27-1.346-.54-2.96.27-4.038s2.154-1.347 4.308-1.615c10.23-1.077 13.73-5.923 17.23-16.692-1.615.54-3.5.808-5.654.808-11.308 0-14.27-7.808-16.96-17.5l-13.46-49.808c-.54-1.615-.808-3.5 0-4.577s2.692-1.346 4.308-1.346h1.077c4.308 0 5.923 1.346 7 5.385l13.462 49.27c1.615 6.193 3.5 7.27 7.808 7.27 3.5 0 5.654-1.076 7-7.27l11.846-49.27c1.077-4.04 2.692-5.385 7-5.385h1.347c1.615 0 3.5.27 4.308 1.346.805 2.154.536 3.77.267 5.385zm96.654-19.115v49.807c0 8.077-1.885 14.808-5.385 20.192-6.73 10.5-19.923 16.153-38.5 16.153s-31.77-5.653-38.5-16.153c-3.5-5.385-5.384-12.385-5.384-20.192v-49.807c0-8.077 3.23-9.423 12.115-9.423h2.69c8.885 0 12.115 1.346 12.115 9.423v49.808c0 3.23.54 5.654 1.885 7.808 2.424 3.77 7.27 5.385 14.81 5.385s12.385-1.615 14.807-5.385c1.347-1.884 1.885-4.577 1.885-7.808v-49.808c0-8.077 3.23-9.423 12.115-9.423h2.693c9.154-.27 12.654 1.346 12.654 9.423z" fill="url(#A)"/><path d="M315.27 112.615h-19.654c-2.154 0-3.77-1.615-3.77-3.77V88.923c0-2.154 1.615-3.77 3.77-3.77h19.654c2.153 0 3.77 1.615 3.77 3.77v19.923c-.001 2.154-1.617 3.77-3.77 3.77z" fill="#bccf00"/></g></svg>