<svg xmlns="http://www.w3.org/2000/svg" width="114.26" height="18.05" fill-rule="evenodd" fill="#009e56" xmlns:v="https://vecta.io/nano"><path d="M26.9.87c0-.22-.18-.3-.44-.38-.58-.2-1.75-.42-3.18-.42-4.36 0-7.35 1.75-8.42 7.7l-.44 2.5c-.12.7-.18 1.36-.18 1.98 0 3.85 2.57 5.72 6.02 5.72 1.45 0 2.63-.2 3.28-.4.4-.1.53-.2.58-.5l.53-2.9v-.1c0-.24-.12-.33-.35-.33h-.07c-.95.1-1.94.22-3.25.22-1.02 0-1.92-.37-1.92-2.2 0-.42.05-.9.14-1.5l.44-2.5c.55-3.22 1.73-3.68 2.98-3.68 1.3 0 2.28.12 3.2.22h.07c.28 0 .44-.17.5-.44L26.92 1V.87zm9.17 4.4c0 1.86-1 2.57-2.82 2.57h-.87c-.28 0-.55 0-.8-.02l.65-3.75 1.8-.05c1.45 0 2.05.38 2.05 1.25zm4.82-.7C40.9 1.33 38.06 0 34.36 0c-2.05 0-3.9.16-4.84.3-1.02.16-1.4.42-1.6 1.54L25.28 17.3c0 .24.16.4.4.4h3.74c.25 0 .5-.2.55-.47l1-5.8c.5.05 1 .05 1.5.05l1.94 5.75c.07.23.1.47.37.47h4.1a.44.44 0 0 0 .47-.45c0-.05 0-.12-.02-.16l-2.28-6.4c2.63-1.03 3.85-3.4 3.85-6.12zM62.52 6.2c0 .4-.05.92-.14 1.5l-.44 2.65c-.48 2.92-1.54 3.68-3.4 3.68-.3 0-1.15 0-1.3-.02l1.68-9.95 1.3-.02c1.48 0 2.3.43 2.3 2.17zm4.82-.34c0-3.84-2.48-5.84-6.4-5.84-2.2 0-4.13.2-5.35.4-.5.1-.78.27-.9.9l-2.65 15.43c-.02.12-.02.2-.02.28 0 .4.2.56.6.63 1.15.2 3.02.4 5.2.4 5.03 0 7.96-2.25 8.9-7.7l.45-2.65c.1-.65.15-1.25.15-1.83zM87.5.67c0-.2-.18-.36-.42-.36H75.45c-.26 0-.5.18-.53.42l-.53 2.85v.07c0 .22.16.36.4.36h3.5l-2.26 13.23v.1c0 .2.14.38.37.38h3.76c.26 0 .5-.22.55-.48L82.97 4h3.44c.25 0 .5-.18.55-.42L87.5.74zm8.54 5.58c0 .44-.07.93-.16 1.52l-.43 2.52c-.45 2.6-1.3 3.67-2.88 3.67-1.22 0-1.86-.64-1.86-2.15 0-.44.07-.93.16-1.52l.43-2.52c.46-2.62 1.3-3.7 2.88-3.7 1.23 0 1.86.66 1.86 2.17zm4.82-.53c0-4-2.75-5.65-5.96-5.65-3.92 0-7.3 1.73-8.4 7.7l-.44 2.52a11.93 11.93 0 0 0-.18 1.98c0 3.93 2.7 5.7 5.96 5.7 4.2 0 7.34-1.93 8.4-7.68l.44-2.52c.14-.73.18-1.42.18-2.05zm13.4-4.77c0-.2-.16-.3-.34-.37-.9-.27-3.3-.57-5.12-.57-3.67 0-6.92 1.24-6.92 5.44 0 1.5.65 3.07 1.98 4l2.97 2.06c.67.46.9.72.9 1.1 0 1.1-.76 1.43-1.68 1.43-1.22 0-3.67-.27-4.6-.36h-.05a.54.54 0 0 0-.53.48L100.4 17v.07c0 .2.2.32.4.4 1.18.35 2.65.6 4.54.6 3.92 0 7.54-1.75 7.54-6.17 0-1.7-.65-3.03-2.3-4.04l-2.82-1.74c-.78-.48-1-.7-1-1.04 0-.8.67-1.02 1.3-1.02 1.66-.22 4.27-.01 5.2.06h.05c.25 0 .44-.17.48-.4l.52-2.7zM53.68.65c0-.23-.1-.34-.37-.37a32.77 32.77 0 0 0-4.5-.28c-3.25 0-6.02.5-6.83 5.3l-1.27 7.53c-.07.43-.12.83-.12 1.2 0 3.02 2.47 4 5.17 4 2.24 0 3.64-.16 4.54-.28.3-.05.48-.18.53-.46l.5-2.8v-.07a.37.37 0 0 0-.39-.39H46.3c-.67 0-.94-.17-.94-.7a2.9 2.9 0 0 1 .05-.47l.35-1.97h5.67a.54.54 0 0 0 .53-.47l.48-2.76V7.6a.38.38 0 0 0-.39-.4h-5.67l.3-1.87c.16-.97.5-1.28 1.3-1.28h4.66c.25 0 .5-.2.55-.46l.48-2.8v-.1zM73.7.3h-3.8a.54.54 0 0 0-.53.45l-2.86 16.5c-.05.23.1.47.37.47h3.78c.34 0 .5-.2.55-.47L74.08.76c.05-.3-.13-.45-.4-.45zM5.27.94c.1 0 .2 0 .23.08.26.26.1.76.1 1.1l-.15 11.02c.04.04.04.08.15.08.08 0 .1-.04.15-.12l3.9-11.7c0-.04.2-.46.42-.46h4.74c.1.04.2.12.2.2 0 .1-.6 1.7-.92 2.54L10 14.8c-.15.35-.46.93-.84 1.27-1.22 1.16-2.98 1.3-4.24 1.3-1.95 0-3.9-.35-4.05-2.54L.6 1.17C.64 1.07.83.9.9.94zm.1-.62c.3-.08.84.5.84.85l-.07 8.86L9.17.98a1.02 1.02 0 0 1 .84-.65h4.93c.5.08.7.5.7.8 0 .35-.8 2.4-.88 2.58l-4.28 11.6c-.57 1.46-2.3 2.3-3.4 2.5-1 .15-1.3.2-2.14.2-1.68 0-4.5-.2-4.66-3.08L0 1.05C0 .66.53.32.8.32z"/></svg>