<?xml version="1.0" encoding="utf-8"?>
<!-- Generator: Adobe Illustrator 21.1.0, SVG Export Plug-In . SVG Version: 6.00 Build 0)  -->
<svg version="1.1" id="Layer_1" xmlns="http://www.w3.org/2000/svg" xmlns:xlink="http://www.w3.org/1999/xlink" x="0px" y="0px"
	 viewBox="0 0 460.9 122.7" style="enable-background:new 0 0 460.9 122.7;" xml:space="preserve">
<style type="text/css">
	.st0{fill:#2452FE;}
	.st1{fill:#FFFFFF;}
	.st2{fill:#202231;}
</style>
<g>
	<g>
		<path class="st0" d="M67.6,96.1c0,2.9-2.4,5.3-5.3,5.3s-5.3-2.4-5.3-5.3s2.4-5.3,5.3-5.3S67.6,93.2,67.6,96.1z M103.4,31.1
			C106.1,11.3,91.6,0,78.4,0H27.6c-9.2,0-15.5,7.9-16.8,16.8L0,90c0,6.3,5.3,11.6,11.6,11.6l0,0h24.5c6.6,0,11.1-5.8,11.6-12.4
			c0.5-5.8,5.3-10.5,11.3-10.5h13.4c10.8,0,20.5-6.1,25.5-15.8c1.3-2.6,2.1-5.5,2.4-8.2L103.4,31.1z"/>
		<path class="st1" d="M16.8,90.8h-0.8c-2.9-0.5-5-3.2-4.5-6.1l0,0l10.3-69.2c0.5-2.9,3.2-4.7,6.1-4.2c1.3,0.3,2.6,1.1,3.4,2.4
			l21.8,34.2l5-32.1c0.5-2.9,3.2-5,6.1-4.5c2.9,0.5,5,3.2,4.5,6.1l-7.1,46.1c-0.5,2.9-3.2,5-6.1,4.5c-1.6-0.3-2.9-1.1-3.7-2.4
			L30,31.3l-8.4,55.3C21.6,88.7,19.5,90.8,16.8,90.8z"/>
	</g>
	<g>
		<path class="st2" d="M191.9,30c-2.6,0-5,2.1-5.3,4.7l-7.4,47.9L153.5,34c-0.8-2.4-3.2-3.9-5.8-4.2c-1.8,0-4.7,0.8-5.5,5.3
			l-8.9,61.1c-0.3,1.3,0,2.9,0.8,3.9c1.1,1.1,2.4,1.6,3.7,1.3c2.9,0,5.3-2.1,5.3-4.7l7.1-47.4l26.3,48.7c1.1,2.1,3.2,3.7,5.5,3.7
			c1.8,0,4.7-0.8,5.5-5.5l8.9-60.8c0.3-1.3,0-2.9-0.8-3.9C194.5,30.3,193.2,29.7,191.9,30z"/>
		<path class="st2" d="M226.9,45.3c-15.5,0-25.8,14.2-27.9,28.4c-1.3,8.9,0.5,16.6,5,21.8c4.2,4.5,10,7.1,16.3,6.8
			c7.9,0.3,15.5-2.9,21.1-8.7c0.8-0.8,1.3-1.8,1.3-2.9c0.3-1.3,0-2.6-0.8-3.7c-1.6-2.1-5.8-1.6-8.4,0.5c-3.4,2.9-7.9,4.5-12.4,4.5
			c-3.7,0-6.8-1.8-9.2-4.5c-2.1-2.4-3.4-5.8-3.4-8.9h29.7c6.1,0,7.1-4.5,7.9-8.7c1.1-7.6-0.3-14.2-4.2-18.7
			C238.2,47.4,232.7,45,226.9,45.3z M226.1,55.3c2.9,0,5.5,1.1,7.4,3.2c2.4,3.2,3.2,6.8,2.6,10.8h-26.1
			C212.4,61.3,218.7,55.3,226.1,55.3z"/>
		<path class="st2" d="M296.7,51.9c-3.7-4.2-8.9-6.6-14.5-6.3c-16.3,0-25.8,14.7-27.9,28.2c-1.3,8.9,0.5,17.1,5,22.4
			c3.7,4.2,9.2,6.6,14.7,6.3c16.3,0,25.8-14.2,27.9-27.6C303,65.5,301.1,57.1,296.7,51.9z M274.8,92.9c-2.9,0.3-5.5-1.1-7.4-3.2
			c-3.4-4.2-3.9-11.1-3.2-16.3c1.3-9.2,7.1-18.2,16.6-18.2c2.6,0,5.3,1.1,7.1,3.2c3.2,3.7,4.5,10,3.4,16.6
			C290.1,84,284.5,92.9,274.8,92.9L274.8,92.9z"/>
		<path class="st2" d="M338.8,45.5c-5.3,0.3-10.5,2.6-14.5,6.3l0.3-1.1c0.3-1.3,0-2.9-0.8-3.9c-1.1-1.1-2.4-1.6-3.7-1.3
			c-2.9-0.3-5.3,2.1-5.5,5l-10,66.6c-0.3,1.6,0,2.9,0.8,4.2c0.8,1.1,2.1,1.6,3.4,1.3c2.9,0,5.3-2.1,5.5-5l3.2-20.8
			c3.2,3.9,8.2,6.1,13.2,5.8c15.8,0,25-14.5,27.1-27.9c1.3-9.2-0.5-17.9-5-23.2C349.3,47.4,344,45.3,338.8,45.5z M332.2,93.2
			c-2.9,0.3-5.8-1.1-7.6-3.2c-2.9-3.2-3.9-8.9-2.9-15.3c1.3-9.2,7.4-19.2,16.8-19.2c2.4-0.3,4.7,0.8,6.3,2.6
			c3.4,3.9,3.7,11.1,2.9,16.3C346.4,83.2,341.4,93.2,332.2,93.2L332.2,93.2z"/>
		<path class="st2" d="M391.7,45.8c-5.5,0-11.1,0.8-16.3,2.9c-2.1,0.8-3.7,2.4-3.9,4.5c-0.3,1.1,0,2.4,0.8,3.4
			c1.6,1.8,4.5,1.6,8.2,0.5c2.6-0.8,5.5-1.3,8.4-1.3c3.4-0.3,6.8,0.8,9.2,3.2c1.3,1.6,1.8,3.7,1.3,5.5l-0.8,6.1
			c-3.7-2.1-7.9-3.2-12.1-3.2c-10.3,0-21.8,6.1-23.4,17.6c-0.8,4.2,0.3,8.4,2.9,11.6c3.7,3.7,8.7,5.8,14,5.5
			c5.3,0,10.3-1.6,14.7-4.5c0,1.1,0.3,2.4,1.1,3.2c0.8,1.1,2.1,1.3,3.4,1.3c2.6,0,5-2.1,5.5-4.7l5-33.2c0.8-4.5-0.3-9.2-3.2-12.9
			C402.5,47.4,397.2,45.5,391.7,45.8z M385.4,76.9c3.7-0.3,7.1,1.1,10,3.4c0.8,1.1,1.3,2.4,1.1,3.7c-0.8,5.5-8.2,8.7-14.5,8.7
			c-2.9,0.3-5.8-0.8-7.9-2.6c-1.1-1.3-1.6-3.2-1.1-5C373.8,79.2,379.8,76.9,385.4,76.9z"/>
		<path class="st2" d="M459.8,48.4c-0.8-1.1-2.1-1.6-3.7-1.3c-2.4,0-4.7,1.3-5.8,3.7l-16.3,33.7l-5.8-32.6c-0.3-2.6-2.4-4.5-5-4.5
			c-2.6-0.3-5,1.8-5.3,4.7l0,0c0,0.8,0,1.8,0.3,2.6l8.2,44.2l-8.4,15.8c-0.5,0.8-0.8,1.6-0.8,2.6c-0.3,1.3,0,2.6,0.8,3.7
			c0.8,0.8,2.1,1.3,3.4,1.3c2.6,0,5-1.6,6.1-3.9l32.4-63.7c0.5-0.8,0.8-1.8,0.8-2.6C461.2,50.8,460.9,49.5,459.8,48.4z"/>
	</g>
</g>
</svg>
