<?xml version="1.0" encoding="UTF-8" standalone="no"?>
<svg
   xmlns:dc="http://purl.org/dc/elements/1.1/"
   xmlns:cc="http://creativecommons.org/ns#"
   xmlns:rdf="http://www.w3.org/1999/02/22-rdf-syntax-ns#"
   xmlns:svg="http://www.w3.org/2000/svg"
   xmlns="http://www.w3.org/2000/svg"
   xmlns:sodipodi="http://sodipodi.sourceforge.net/DTD/sodipodi-0.dtd"
   xmlns:inkscape="http://www.inkscape.org/namespaces/inkscape"
   viewBox="0 0 90.059998 90.000191"
   version="1.1"
   id="svg13"
   sodipodi:docname="icon_near.svg"
   width="90.059998"
   height="90.000191"

   inkscape:version="0.92.5 (2060ec1f9f, 2020-04-08)">
  <metadata
     id="metadata19">
    <rdf:RDF>
      <cc:Work
         rdf:about="">
        <dc:format>image/svg+xml</dc:format>
        <dc:type
           rdf:resource="http://purl.org/dc/dcmitype/StillImage" />
        <dc:title></dc:title>
      </cc:Work>
    </rdf:RDF>
  </metadata>
  <defs
     id="defs17" />
  <sodipodi:namedview
     pagecolor="#ffffff"
     bordercolor="#666666"
     borderopacity="1"
     objecttolerance="10"
     gridtolerance="10"
     guidetolerance="10"
     inkscape:pageopacity="0"
     inkscape:pageshadow="2"
     inkscape:window-width="1920"
     inkscape:window-height="1043"
     id="namedview15"
     showgrid="false"
     inkscape:zoom="0.83816425"
     inkscape:cx="171"
     inkscape:cy="45"
     inkscape:window-x="1920"
     inkscape:window-y="0"
     inkscape:window-maximized="1"
     inkscape:current-layer="Layer_1" />
  <g
     id="Layer_1"
     data-name="Layer 1"
     transform="translate(-36,-35.999812)">
    <path
       d="M 108.24,40.57 89.42,68.5 a 2,2 0 0 0 3,2.63 l 18.52,-16 a 0.74,0.74 0 0 1 1.24,0.56 v 50.29 a 0.75,0.75 0 0 1 -1.32,0.48 l -56,-67 A 9.59,9.59 0 0 0 47.54,36 H 45.59 A 9.59,9.59 0 0 0 36,45.59 v 70.82 a 9.59,9.59 0 0 0 9.59,9.59 v 0 a 9.59,9.59 0 0 0 8.17,-4.57 L 72.58,93.5 a 2,2 0 0 0 -3,-2.63 l -18.52,16 a 0.74,0.74 0 0 1 -1.24,-0.56 V 56.07 a 0.75,0.75 0 0 1 1.32,-0.48 l 56,67 a 9.59,9.59 0 0 0 7.33,3.4 h 2 a 9.59,9.59 0 0 0 9.59,-9.59 V 45.59 A 9.59,9.59 0 0 0 116.41,36 v 0 a 9.59,9.59 0 0 0 -8.17,4.57 z"
       id="path10"
       inkscape:connector-curvature="0" />
  </g>
</svg>
