<svg xmlns="http://www.w3.org/2000/svg" xmlns:xlink="http://www.w3.org/1999/xlink" width="180.797" height="46" viewBox="0 0 180.797 46"><defs><clipPath id="a"><rect width="180.796" height="46" fill="none"/></clipPath></defs><g clip-path="url(#a)"><g transform="translate(-100 -323.671)"><path d="M-221.107,345.891l.832-3.183a18.4,18.4,0,0,0,3.662,1.654,12.719,12.719,0,0,0,3.787.531,9.125,9.125,0,0,0,3.059-.479,5.939,5.939,0,0,0,2.205-1.31,5.533,5.533,0,0,0,1.291-1.925,6.37,6.37,0,0,0,.437-2.382V335.9h-.1a8.628,8.628,0,0,1-7.034,3.163,10.326,10.326,0,0,1-3.892-.738,9.813,9.813,0,0,1-3.193-2.061A9.394,9.394,0,0,1-222.209,333a11.084,11.084,0,0,1-.791-4.214,10.856,10.856,0,0,1,1.28-5.254,9.549,9.549,0,0,1,3.537-3.714,9.632,9.632,0,0,1,5.046-1.353c8.829,0,10.675,5.667,10.675,12.057V337.9a13.448,13.448,0,0,1-.593,4.131,9.156,9.156,0,0,1-1.79,3.225,7.7,7.7,0,0,1-3.183,2.134,13.109,13.109,0,0,1-4.63.749A15.95,15.95,0,0,1-221.107,345.891Zm3.538-22.223a6.957,6.957,0,0,0-1.915,5.015,8.409,8.409,0,0,0,.344,2.435,6.529,6.529,0,0,0,.967,2,6.918,6.918,0,0,0,1.467,1.477,6.088,6.088,0,0,0,1.873.937,7.317,7.317,0,0,0,2.133.312,6.578,6.578,0,0,0,5.015-2.03,7.231,7.231,0,0,0,1.914-5.171,6.734,6.734,0,0,0-1.977-5.035,6.793,6.793,0,0,0-4.952-1.936A6.45,6.45,0,0,0-217.569,323.668ZM-57.6,347.889l3.7-9.238-8.76-19.934h3.683l6.742,15.793h.1l6.264-15.793H-42.2l-11.735,29.173Zm-21.612-8.925a9.721,9.721,0,0,1-3.236-2.138,9.8,9.8,0,0,1-2.154-3.371,11.754,11.754,0,0,1-.791-4.361,11.811,11.811,0,0,1,1.3-5.562,9.8,9.8,0,0,1,3.631-3.907,9.821,9.821,0,0,1,5.223-1.423c6.7,0,10.653,4.415,10.653,12.207v9.049h-3.308v-3.329h-.063a8.889,8.889,0,0,1-3.131,2.655,8.978,8.978,0,0,1-4.131.948A10.424,10.424,0,0,1-79.214,338.963Zm-.656-15.431a7.808,7.808,0,0,0-2.007,5.583,7.531,7.531,0,0,0,1.935,5.319,6.559,6.559,0,0,0,5.056,2.1,6.76,6.76,0,0,0,2.663-.537A6.94,6.94,0,0,0-70,334.5a6.948,6.948,0,0,0,1.519-2.36,8.049,8.049,0,0,0,.562-3.023,8.579,8.579,0,0,0-.53-3.023,7.7,7.7,0,0,0-1.446-2.453A6.674,6.674,0,0,0-72.1,322a6.441,6.441,0,0,0-2.747-.6A6.623,6.623,0,0,0-79.87,323.532Zm-75.782,15.41a9.851,9.851,0,0,1-3.277-2.18,9.925,9.925,0,0,1-2.165-3.413,11.94,11.94,0,0,1-.79-4.381,12.074,12.074,0,0,1,.77-4.351,10.25,10.25,0,0,1,2.092-3.413,9.514,9.514,0,0,1,3.152-2.2,9.663,9.663,0,0,1,3.912-.8,9.507,9.507,0,0,1,5.057,1.348,9.035,9.035,0,0,1,3.4,3.719,11.72,11.72,0,0,1,1.2,5.361,8.775,8.775,0,0,1-.1,1.432h-15.939a7.268,7.268,0,0,0,2.227,4.687,6.62,6.62,0,0,0,4.683,1.759,7.112,7.112,0,0,0,3.329-.769,7.922,7.922,0,0,0,2.517-2.054l2.414,2.085a9.943,9.943,0,0,1-3.527,2.9,10.744,10.744,0,0,1-4.859,1.064A10.564,10.564,0,0,1-155.651,338.942ZM-156,322.974a7,7,0,0,0-2.258,4.181h12.526a7.235,7.235,0,0,0-2.008-4.171,5.517,5.517,0,0,0-4.027-1.559A6.234,6.234,0,0,0-156,322.974Zm-36.535,15.989a9.72,9.72,0,0,1-3.236-2.138,9.812,9.812,0,0,1-2.154-3.371,11.755,11.755,0,0,1-.791-4.361,11.811,11.811,0,0,1,1.3-5.562,9.79,9.79,0,0,1,3.631-3.907,9.82,9.82,0,0,1,5.222-1.423c6.7,0,10.654,4.415,10.654,12.207v9.049h-3.307v-3.329h-.063a8.889,8.889,0,0,1-3.131,2.655,8.978,8.978,0,0,1-4.131.948A10.424,10.424,0,0,1-192.54,338.963Zm-.656-15.431a7.808,7.808,0,0,0-2.007,5.583,7.531,7.531,0,0,0,1.935,5.319,6.559,6.559,0,0,0,5.056,2.1,6.76,6.76,0,0,0,2.663-.537,6.94,6.94,0,0,0,2.227-1.495,6.948,6.948,0,0,0,1.519-2.36,8.049,8.049,0,0,0,.562-3.023,8.579,8.579,0,0,0-.53-3.023,7.736,7.736,0,0,0-1.446-2.453A6.674,6.674,0,0,0-185.423,322a6.441,6.441,0,0,0-2.747-.6A6.623,6.623,0,0,0-193.2,323.532Zm25.491,15.937q-5.388,0-5.389-6.451V311.357l3.454-.374v7.47h5.429v3h-5.429V332.5a5.467,5.467,0,0,0,.563,2.84,2.156,2.156,0,0,0,1.976.885h2.6l-.39,3.246Zm69.86-.008-4.661-15.3h-.084l-4.681,15.3h-3.184l-7.2-21.009h3.516l5.287,15.678h.083l4.723-15.678h3l4.786,15.7h.083l5.285-15.7h3.516l-7.2,21.009Zm-41.482-.263a5.927,5.927,0,0,1,1.692-4.245l8.275-8.447q1.062-1.1,1.769-1.935a18.964,18.964,0,0,0,1.373-1.842,8.5,8.5,0,0,0,1-2.019,6.553,6.553,0,0,0,.333-2.07,5.536,5.536,0,0,0-1.55-4.027,5.3,5.3,0,0,0-3.965-1.592,6.7,6.7,0,0,0-6.284,4.017l-2.643-1.811a11.374,11.374,0,0,1,2.071-2.882,8.91,8.91,0,0,1,3.038-1.946,10.819,10.819,0,0,1,4.047-.728,9.558,9.558,0,0,1,3.351.593,8.912,8.912,0,0,1,2.83,1.675,7.881,7.881,0,0,1,1.967,2.726,8.745,8.745,0,0,1,.738,3.621,10.6,10.6,0,0,1-1.155,4.817,20.827,20.827,0,0,1-3.839,5.026l-7.616,7.72v.062h12.984V339.2Z" transform="translate(323 14)" fill="#14131e"/><path d="M395.778,439.379H377.363v3.288h12.984v.062l-7.616,7.72H387.4l6.686-6.825a5.925,5.925,0,0,0,1.692-4.246Z" transform="translate(-193.731 -80.778)" fill="#005baa"/><path d="M395.778,439.379H377.363v3.288h12.984v.062l-7.616,7.72H387.4l6.686-6.825a5.925,5.925,0,0,0,1.692-4.246Z" transform="translate(-193.731 -80.778)" fill="#005baa"/></g></g></svg>