<svg width="64" height="64" fill="none" xmlns="http://www.w3.org/2000/svg"><path d="M32 0C14.355 0 0 14.355 0 32s14.355 32 32 32 32-14.355 32-32S49.645 0 32 0Z" fill="#136EF6"/><path d="M35.79 13.715 18.088 36.422a.526.526 0 0 0-.115.333v2.605c0 .3.243.544.544.544h15.82c.301 0 .544.243.544.544v9.171c0 .3.244.544.544.544h3.373c.301 0 .544-.243.544-.544V14.048c0-.3-.243-.544-.544-.544h-2.573a.543.543 0 0 0-.435.211ZM23.944 34.982l9.965-12.716c.32-.404.973-.18.973.332v12.717c0 .3-.244.544-.544.544h-9.972a.54.54 0 0 1-.422-.877Z" fill="#fff"/></svg>