<?xml version="1.0" encoding="utf-8"?>
<!-- Generator: Adobe Illustrator 21.1.0, SVG Export Plug-In . SVG Version: 6.00 Build 0)  -->
<svg version="1.1" id="Layer_1" xmlns="http://www.w3.org/2000/svg" xmlns:xlink="http://www.w3.org/1999/xlink" x="0px" y="0px"
	 viewBox="0 0 64 64" style="enable-background:new 0 0 64 64;" xml:space="preserve">
<style type="text/css">
	.st0{fill:#F26322;}
</style>
<path class="st0" d="M60.5,13.5c-1-0.2-2.3-0.1-3,0.8c-0.6,0.8-1.4,1.9-1.1,3c1.9,0.7,2.7,2.8,4.6,3.3c0.7,0.2,1.7-0.6,1.8-1.3
	c0.1-0.5,0.2-1,0.3-1.6V16c-0.1-0.5-0.2-1-0.5-1.5C62.3,13.9,61.8,13.8,60.5,13.5z"/>
<path class="st0" d="M58.1,39.9c1.1,0.3,1.9,0.4,3,0.6c0.2,0,1.1,0.2,2.1,0.4V30.8c-0.6,2.6-1.4,2.4-2.1,3.9c-0.5,1-0.8,2.3-1.6,3.3
	c-0.3,0.3-0.7,0.7-1.6,1.2C57.6,39.5,58,39.8,58.1,39.9z"/>
<path class="st0" d="M62.3,23.9C62,25.2,62.2,27,62,28.4c-0.1,0.8-0.5,1.6-0.6,2.4c0.6-0.2,1.1-0.7,1.8-0.7v-6.7
	c-0.1,0.1-0.3,0.1-0.4,0.2C62.7,23.6,62.4,23.7,62.3,23.9z"/>
<path class="st0" d="M58.1,36.5c0-0.1,0.3-0.4,0.3-0.5c-0.9-0.7-2.1-0.9-3-1.4c-0.1-0.1-0.4-0.3-0.5-0.4c-0.6-0.6-0.7-1.8-1.8-1.9
	c-0.1,0-0.3-0.1-0.3-0.3c0-0.6-0.4-2.8-0.4-3.2c0-0.3-0.1-0.5-0.1-0.8c0-0.1,0-0.1,0.1-0.1c0.7,1,1.8,1.1,2.4,1.1
	c0.9,0.1,2-0.4,2.4-1.3c0.1-0.1,0.2-0.7,0.6-0.9c0.5-0.2,1.1-0.5,1.5-0.8c0.1-0.1,0.4-0.6,0.4-0.7c0-0.1,0-0.2-0.1-0.2
	C58.6,25,57.7,25,56.8,25c-0.7,0-2.4,0-2.6,0c-0.4,0-0.9,0-1.3,0c-0.2,0-0.8,0.1-1,0.2c-0.8,0.2-1.4,0.9-1.5,1.2
	c0,0.2,0.1,0.9,0.1,1.2c0,0.4,0.1,0.9,0.1,1.3c0,0.4,0,0.8,0.1,1.2c0.3,1.2,0.4,2.4,0.4,3.7c0.8,0.6,1.2,0.6,1.6,1
	c0.5,0.5,0.8,1.1,1,1.8c1.2,0.3,2.3,1.1,3.3,1.9C57.1,38.3,57.9,37,58.1,36.5z"/>
<path class="st0" d="M60.9,45.1c0.3,0.1,1.2,0.6,2.3,1.1v-3.3c-1-0.3-2.2-0.5-2.6-0.6c-0.7-0.2-1.6-0.3-2.3-0.5
	c-0.1,0.5-0.4,1.8-0.4,2c0.3,0.1,0.4,0.2,0.5,0.2C59.3,44.3,60.1,44.7,60.9,45.1z"/>
<path class="st0" d="M55.6,41.2c-0.4,0-1-0.1-1.5,0c-0.1,0-0.3,0.1-0.5,0.1c-0.3,0.1-0.9,0.2-0.9,0.6c0.3,0.1,0.6,0.2,0.9,0.3
	c0.6,0.2,0.5,0.3,0.8,0.4c0.6,0.2,1.2,0.4,1.8,0.5c0-0.2,0-0.4,0.1-0.6c0.1-0.4,0.3-0.6,0.1-1.1C56.2,41.2,55.8,41.2,55.6,41.2z"/>
<path class="st0" d="M51.2,22.4c0,0.2,0.3,0.2,0.6,0.3c0.4,0,1.5,0,1.8-0.1c0.2-0.2,0.6,0,0.9-0.2c0.5-0.3,0-1.1-0.4-1.2
	c-0.4-0.1-0.7-0.5-1-0.8c-0.2-0.2-0.5-0.5-0.8-0.6c-1.2-0.3-1.8-0.4-2.6-0.2c-0.2,0-0.8,0.1-0.7,0.4c0.1,0.1,0.3,0.1,0.5,0.4
	c0.2,0.3,0.7,0.3,1,0.5C51,21,51.1,22,51.2,22.4z"/>
<path class="st0" d="M37.4,17.3c0.2-0.1,0.2-0.4,0.2-0.5c-0.5-2-1.1-2.1-2.2-2.6c-0.7-0.3-1.3-0.5-1.9-0.4c-1,0.2-2.9,0.8-3.5,2.3
	c-0.2,0.4-0.3,1.5,0.4,2.7c0.6,1.2,1.7,1.9,2.5,2.3c0.3,0.2,0.5-0.3,0.6-0.4c0.1-0.2,1.2-1.3,1.7-1.7C35.6,18.4,37.2,17.4,37.4,17.3
	z"/>
<path class="st0" d="M42.9,28.7c0-0.2,0.1-1.9,0.1-2.1c0-0.7-0.6-1.3-1.2-1.4c-0.2,0-0.8-0.2-1.6-0.1c-0.6,0.1-1.5,0.1-2.1,0
	c-1.2-0.1-2.5,0-3.8,0.1c-0.2,0-0.2,0.3-0.1,0.4c0.5,0.5,1.1,1,1.7,1.3c0.4,0.2,0.4,0.8,0.7,1.1c0.5,0.6,1.3,1.1,2.4,1
	c0.7-0.1,0.9-0.1,1.3-0.4c0.2-0.1,0.3,0,0.3,0.2c0.1,0.6,0.1,1.4,0.1,2c0,0.4,0.1,2.5-0.9,2.7c-0.8,0.3-2,1-2.5,1.8
	c-0.5,0.6-0.8,2.2-0.1,2.6c0.6,0.3,1.1-0.7,2.1-0.9c0.7-0.2,0.7-0.8,1.2-1.5c0.4-0.7,1.7-1,1.8-1.4c0.1-0.3,0-0.6,0-0.9
	C42.4,30.8,42.5,30.4,42.9,28.7z"/>
<path class="st0" d="M62.7,58.5c0.1-1.2-0.7-2.2-1.3-3.2c-0.1-0.1,0-0.2,0.1-0.2c0.4-0.1,0.8,0.1,1.1,0.1c0.4,0.1,0.6,0.1,0.8,0.2
	v-7.6c-0.7-0.4-1.4-0.8-1.7-1c-1.8-0.9-2.4-1.3-4.3-2c-0.5,0.6-0.8,1.4-1.6,1.8c-0.5,0.3-2.4-1.4-3.5-1.9c-0.9-0.4-2.4-0.9-3.4-1
	c-0.3,0-0.4-0.5-0.5-0.9c-0.2-0.8-0.4-1.7-0.1-1.8c1.2-0.6,1.9-1.8,1.9-2.5c0-0.3,0.1-0.4,0.3-0.3c0.4,0.1,0.8,0.5,1.4,0.1
	c0.5-0.4,0.7-1,0.6-1.5c-0.1-0.6-0.4-1-1-1.2c-2.9-1-5.8-0.9-8.6,0.2c-0.8,0.3-0.8,1.3-0.5,2.1c0.3,1,1.5,0.6,2.1,0.2
	c0.3-0.2-0.1,0.7,0.3,1.5c0.7,1.2,1.7,1.4,1.7,1.7c0,0.8-0.1,0.9-0.2,1.4c-0.1,0.6-0.1,1.1-0.8,1.3c-1.6,0.3-3,0.9-4.5,1.4
	c-0.9,0.3-1.6,1.2-2.4,1.2c-0.7,0-1.1-1.1-1.6-1.3c-0.5-0.2-0.6-0.3-1.5,0.1c-2.9,1.1-6.7,3-9.4,4.6c-0.6-0.6-0.5-1.3-0.6-2
	c3-2,6.3-3.5,9.6-5c0.3-0.1,0.1-1.2-0.1-1.5c-0.1-0.2-1.9,0-5.5,0.9c-2.4,0.6-4.9,1.8-5,1.8c-0.1,0-0.3-0.3-0.3-0.5
	c-0.1-0.5-0.5-1.2-0.1-1.4c1.7-0.9,3.6-1.5,5.5-2c1.9-0.5,3.7-0.9,5.6-1.2c0-0.1-0.1-0.6-0.1-0.8c-0.7-1.8-2.3-3.2-3.7-4.6
	c-0.3-0.3-0.6-0.7-0.6-1.1c-0.1-0.6-0.5-1.6-0.3-1.8c0.3-0.2,0.5,0.1,1.1,0.3c0.1,0,0.5,0.1,0.6,0.1c-0.1-1-0.3-2-0.5-3.1
	c-0.2-1.2-0.1-3.1,0.1-4.6c0-0.3,0.1-0.4-0.2-0.7c-0.2-0.3-1.4-0.9-1.6-0.9c-0.6-0.1-0.9-0.3-1.2-0.9c-0.6-1.2-1.6-2.3-1.6-3.7
	c0-1.3,0.6-2.7,1.1-3.9c0.4-1,1.6-1.1,2.5-1.6c0.8-0.5,1.8-0.9,2.6-1c0.8-0.1,1.8,0.5,2.4,0.8c0.7,0.3,1.6,0.7,2.4,1.3
	c1,0.8,1.5,1.9,2.1,3c0.8-0.1,1.5-0.1,2.4,0c1.3,0.2,2.5,0.5,3.7,1c0.1,0,0.5,0.2,0.6,0.3c1.9-1.3,4.3-2.1,6.6-1.8
	c0.2,0,0.3,0,0.3-0.3c0.1-1,1-2.3,1.4-2.8c0.8-1.1,1.6-1.5,2.7-1.7c1.3-0.3,3.4,0.4,5.4,1.3c0,0,0,0,0,0V8.3
	c-0.5-0.1-1.5-0.4-2.2-0.7c-0.2-0.1-1.1-0.3-1.9-0.5c-0.6-0.2-1.9-0.7-2.4-0.7c-0.4,0-0.4,0.1-0.6,0.2c-0.5,0.4-1.1,0.8-1.7,1.3
	c-0.8,0.6-1.5,1.3-2.4,1.7c-0.8,0.4-2.4,0.7-4.1,1.2c-0.6,0.2-1.2,0.5-1.5,0.5c-0.1,0-0.3,0.1-0.4-0.1c-0.3-1-0.5-2-0.2-2.9
	c0.1-0.3,0.1-0.3-0.1-0.4c-0.6-0.5-1.9-0.4-2.6-1c-0.1,0.1-0.2,0.5-0.2,0.6c-0.5,1.1-1,2.2-1.6,3.1C40.7,10,39.5,9.7,38.4,9
	c-1.5-1-4.6-3-5-3.4c-1.2,1-4.5,3.1-6.3,4c-0.3,0.5-1.9,2.6-2.3,2.8c-0.1,0.1-0.5,0-1.3-0.5c0,0-1.2-0.6-1.3-0.7
	c0.6-0.9,1.1-1.9,1.9-2.6c1.2-1.5,2.6-3,3.8-4.2c2.7-0.7,5.2-1.6,7.9-2.2c1.2,1.6,4,4.3,4,4.3c0.1,0.1,0.2,0.1,0.3,0
	c0.1-0.4,0.6-2.1,1.1-3.7c1,0.4,1.4,0.5,2.4,0.9c0.3,0.1,1,0.5,1.1,0.5c0.1,0,1.8-1,2.2-1.2c0.6-0.3,1.4-1,1.7-0.5
	c0.1,0.3,0.4,1.9,0.4,2.1C48.8,4.9,49,6.7,49,7c0.2,0,0.6,0,1.1-0.3c1.4-0.6,1.4-1.9,1.5-2.4c0.2-0.9,0.2-1.8,0.7-2.5
	c0.1-0.2,1.7,0,2.1,0.1c0.4,0.2,0.1,1,0.1,1.5c0,0.4,0,1.3,0.2,1.3c0.3,0,0.7,0,0.9-0.3c0.3-0.3,2-1.8,2.3-2
	c0.2-0.2,0.2-0.3,0.4-0.2c1.8,0.6,3.5,1.5,5.2,2.5c-0.2-2.4-2.2-4.2-4.6-4.2H5.1c-2.6,0-4.6,2-4.6,4.5V59c0,2.5,2.1,4.5,4.6,4.5
	h16.1c-0.2-0.5-0.5-1.4-0.8-1.8c-0.2-0.4-0.4-0.7-0.6-1.2c0.2-0.1,1.3-0.4,1.4-0.4c0.6-0.2,2.7-1.1,3.3-1.3c0.3-0.1,0.6-0.2,0.7,0.1
	c0.2,0.6,0.6,1.4,1,2c-0.6,0.4-1.7,1.7-2.5,2.6h16.6c-0.2-0.6-0.3-1.2-0.3-1.6c0-0.5,0.3-0.5,0.2-1.6c0-0.2,0-0.5,0.1-0.7
	c0.2-0.2,0.3,0.1,0.5,0.2c0.4,0.1,1.1,0.3,1.5,0.3c0.5,0,1,0.3,1.2,0.7c0.4,0.7,0.2,1.6,0.3,2.5c0,0.1,0,0.1,0,0.2h2.5
	c0-0.3-0.1-0.6-0.1-0.9c-0.1-0.8-0.3-1.5-0.2-2.3c0-0.4,0.6-0.4,1-0.5c1-0.4,1.7-0.5,2.5-0.9c0.2,1.5,0.1,3.2-0.1,4.3
	c0,0.1-0.1,0.2-0.1,0.3h2.7c0-0.2,0-0.6,0-1c-0.1-0.6-0.2-1.7-0.3-2.9c0-0.3,1.5-1,2.3-1.5c0.2-0.1,0.7-0.6,0.7-0.3
	c0,1.5-0.1,3,0.1,4.5c0.1,0.4,0.2,0.7,0.3,1.1h3.8c0.1,0,0.1,0,0.2,0c-0.7-0.8-1.8-2.8-1.9-3.3c-0.3-0.8-0.2-2.5,0.2-3.4
	c0.1-0.3,0.6,0,0.8,0.1c0.6,0.3,0.8,0.3,1.4,0.6c0.4,0.2,0.1,0.3,0.2,0.9c0.1,0.8,0.4,1.4,0.5,1.6c0.1,0.3,0.3,1.5,1.1,2.9
	c1.4-0.8,2.3-2.2,2.3-3.9v0C63.2,58.9,63,58.8,62.7,58.5z M25.5,28.7c0,0.5-0.5,0.5-1.1,0.9c-0.3,0.2-3.4,2.5-3.6,2.7
	c-0.4,0.3-0.8,0.6-1.4,1.4c-0.3-0.7-0.5-1.6-0.6-2.3c0-0.2,0-2.2,0.1-3c0-0.5,2.5-1.4,4-1.7c0.7-0.1,2.7-0.5,3,0.1
	C26.1,27.2,25.6,27.2,25.5,28.7z M21.7,19.9c-0.2-1.2-0.6-2.2-0.6-3.3c0-0.8,0.1-1.6,0.2-2.4c0-0.2,0.3-0.3,0.5-0.3
	c0.8-0.2,2.1-0.5,2.3-0.5c0.2,0,0.3,0,0.5,0.1c0,0.2,0,0.4,0,0.5c-0.1,0.8-0.3,1.5-0.4,2.3c0,0.2-0.1,1.3-0.1,1.7
	c0,0.4,0.7,1.8,0.9,2.2c0.4,0.7,0.6,1.2,0.6,1.8c0,0.2-0.2,0.5-0.6,0.8c-0.9,0.5-1,0.3-1.4,0.7c-1.4,1.4-2,1.8-3.1,2.7
	c-0.5,0.4-0.6,0.6-1.1,1.2c-0.1,0.1-0.2,0-0.2-0.1c-0.2-1.5,0.1-3-0.3-4.5c0.8-0.6,1.5-1.2,2.3-1.7c0.1,0,0.5-0.3,0.6-0.3
	C21.8,20.6,21.7,20.2,21.7,19.9z M17.3,42.4c0-0.2-0.2-1.9-0.3-2.8c-0.1-0.8-0.1-1.1-0.2-2.6c1.4-0.8,2.1-1.5,3.3-2.2
	c0.5-0.3,1.3-0.5,2.2-1c0.7-0.3,1.2-0.5,2-0.9c0.4-0.1,1.1-0.5,1.1-0.2c0,1-0.1,1.9-0.2,2.9c0,0.2,0,0.2-0.3,0.3
	c-2.8,1.4-3.8,2.7-4.4,3.3c-1,1-2.5,2.7-3,3.6C17.4,42.8,17.3,42.6,17.3,42.4z M19.1,53.9c-0.1-0.4-0.4-1-0.5-1.7
	c-0.2-0.7-0.4-1.5-0.5-2.4c-0.2-0.9-0.4-4-0.4-4.3c0-0.8,0-1.4,0.2-1.5c1.3-0.4,2.4-1.4,3.5-2c0.2-0.1,0.1,0.6,0,0.8
	c-0.1,0.4-0.7,2.4-0.6,3.3c0,0.5,0.5,2.4,0.9,4.1c0.1,0.3,0.1,0.2-0.1,0.5c-0.4,0.7-1.2,1.9-1.6,2.6C19.5,53.7,19.1,54.1,19.1,53.9z
	 M21.1,58.2c-0.2,0.4-0.1,0.6-0.4,1c0,0.1-0.4,0.2-0.5,0c-0.1-0.5-0.1-1.2-0.3-1.6c-0.2-0.7-0.1-1.1-0.3-1.5
	c-0.1-0.5-0.4-0.9-0.6-1.4c0.5-0.2,1-0.5,1.5-0.8c0.5-0.3,1.8-1.3,2-1.5c0.4-0.3,0.8-0.6,0.9-0.2c0.1,1,0.4,1.7,0.7,2.5
	C23.9,55,22.2,56.5,21.1,58.2z M32,60c-0.9-0.5-1.8-0.8-2.6-1.3c-0.4-0.2-0.9-0.6-1-0.9c-0.1-0.2-0.3-0.6-0.4-1.2
	c0-0.6-0.1-1.9-0.1-2.2c0-0.4,0-1.5,0.1-2.2c0.1-0.4,0.6,0,0.9,0.1c0.6,0.3,1.4,0.5,1.7,1.1c0.5,0.8,0.1,1.8,0.3,2.7
	c0.3,1.3,1.1,2.4,1.4,3.7C32.4,60.1,32.2,60.1,32,60z M37.3,59.6c-0.1,0.4-0.3,0.6-0.3,1c-0.1,0.5-0.2,1-0.4,1.4
	c-0.5-0.9-0.8-1.9-1.2-2.8c-0.3-0.8-0.8-1.4-1.4-2.1c0.2-0.4,0.2-0.8,0.2-1.3c0-0.2,0-0.4,0-0.6c0-0.3,0.1-0.6,0.4-0.8
	c0.3-0.2,0.7,0.3,1.1,0.5c0.7,0.4,1.2,0.9,1.4,1.6c0.2,0.5,0.1,0.8,0.2,1.4c0,0,0.2,0.3,0.2,0.4C37.5,58.8,37.4,59.1,37.3,59.6z
	 M54.2,51.4c-0.1,0.3-0.7,1.4-1,2c-0.9-1-1.7-1.8-2.4-2.2c-0.1,0-0.1,0-0.2,0.1c0.1,0.9,0.1,2-0.3,2.8c-0.1,0.3-0.3,0.4-0.6,0.5
	c-0.1,0.1-0.8,0.1-1,0.1c-0.3,0-0.5,0-0.7,0c-0.8-0.2-0.5-1.4-1-2.2c-0.1-0.1-0.2-0.4-0.4-0.4c-0.2,0.1-0.2,0.2-0.2,0.3
	c0,0.1-0.5,1.3-0.7,1.8c-0.1,0.2-0.3,0.6-0.7,0.5c-1.1-0.4-1.8-0.1-2-0.9c-0.2-0.8-0.1-1.4-0.1-2.4c0-0.4,0-0.7,0-1
	c0-0.1,0-0.2-0.2-0.1c-0.8,0.5-1.2,1.2-2,1.7c-0.2,0.2-0.5-0.4-0.6-0.6c-0.6-1-1-2.1-1.1-3.3c0.3-0.1,1.6-0.7,1.8-0.7
	c4.5-1.6,9.8-1.8,14.1,0.6C54.8,49.1,54.6,50.3,54.2,51.4z"/>
<path class="st0" d="M37.8,41.3c-0.2,0.1-0.3,0.2-0.3,0.5c0,0.1,0.1,0.3,0.1,0.4c0,0.1,0,0.4,0.2,0.7c0.8-0.3,1-0.5,1.6-0.7
	c0.2-0.1,0.5-0.1,0.7-0.2c0.3-0.2,0.6-0.4,0.8-0.8c-0.5-0.2-1.1-0.3-1.7-0.2C38.7,41.2,38.2,41.1,37.8,41.3z"/>
<path class="st0" d="M44.8,20.1c0.1-0.1,0.1-0.3-0.1-0.3c-0.6-0.1-1.1-0.1-1.6,0c-0.6,0.2-1.4,0.6-2.3,1.3c-0.8,0.6-1.4,1.1-1.4,1.9
	c0.2,0,1.2,0,1.6,0c1.2,0.1,1.6,0.5,2.1-0.3C43.7,21.7,44.1,20.9,44.8,20.1z"/>
</svg>
