<svg xmlns="http://www.w3.org/2000/svg" width="35" height="36" fill="none" style=""><rect id="backgroundrect" width="100%" height="100%" x="0" y="0" fill="none" stroke="none" class="" style=""/>





<defs>
<linearGradient id="paint0_linear" x1="0.00024354093496862584" y1="0.500109202195439" x2="1.0002384258841113" y2="0.500109202195439">
<stop stop-color="white"/>
<stop offset="0.0001" stop-color="#E4F7F7"/>
<stop offset="0.0002" stop-color="#45D2D2"/>
<stop offset="0.9984" stop-color="#306D6D"/>
</linearGradient>
<linearGradient id="paint1_linear" x1="0.29449711931262934" y1="0.6888440575746335" x2="1.1601054185133095" y2="0.417893046632904">
<stop stop-color="#41BBDF"/>
<stop offset="0.94888" stop-color="#5A87E5"/>
</linearGradient>
<linearGradient id="paint2_linear" x1="2.9773960294030818e-8" y1="0.5001722672200295" x2="1.0002092065099026" y2="0.5001722672200295">
<stop stop-color="white"/>
<stop offset="0.0001" stop-color="#E4F7F7"/>
<stop offset="0.5203" stop-color="#B4E8E8"/>
<stop offset="0.595" stop-color="#8ADCDB"/>
<stop offset="0.6709" stop-color="#68D2D1"/>
<stop offset="0.748" stop-color="#4ECAC9"/>
<stop offset="0.8269" stop-color="#3CC4C3"/>
<stop offset="0.9088" stop-color="#31C1C0"/>
<stop offset="0.9984" stop-color="#2DC0BF"/>
</linearGradient>
<linearGradient id="paint3_linear" x1="0.0004974029825048067" y1="0.5001103485204254" x2="1" y2="0.5001103485204254">
<stop stop-color="white"/>
<stop offset="0.0001" stop-color="#E4F7F7"/>
<stop offset="0.0002" stop-color="#45D2D2"/>
<stop offset="0.9984" stop-color="#306D6D"/>
</linearGradient>
<linearGradient id="paint4_linear" x1="0.00024375103820447168" y1="0.5001081190746699" x2="1.0002368700328625" y2="0.5001081190746699">
<stop stop-color="white"/>
<stop offset="0.0001" stop-color="#E4F7F7"/>
<stop offset="0.0002" stop-color="#45D2D2"/>
<stop offset="0.9984" stop-color="#306D6D"/>
</linearGradient>
<linearGradient id="paint5_linear" x1="0.00024338165186436642" y1="0.5001055923382658" x2="1.0002367918959474" y2="0.5001055923382658">
<stop stop-color="white"/>
<stop offset="0.0001" stop-color="#E4F7F7"/>
<stop offset="0.0002" stop-color="#45D2D2"/>
<stop offset="0.9984" stop-color="#306D6D"/>
</linearGradient>
<linearGradient id="paint6_linear" x1="0.0002446889544815535" y1="0.5001098840480577" x2="1.000238504636605" y2="0.5001098840480577">
<stop stop-color="white"/>
<stop offset="0.0001" stop-color="#E4F7F7"/>
<stop offset="0.0002" stop-color="#45D2D2"/>
<stop offset="0.9984" stop-color="#306D6D"/>
</linearGradient>
</defs>
<g class="currentLayer" style=""><title>Layer 1</title><path d="M33.4169,10.346686414337158 C29.267,3.1884464143371583 14.117,6.957836414337158 4.33105,14.859086414337158 C14.9687,5.127506414337158 27.9441,2.8078864143371582 31.6047,7.356516414337158 C31.9853,7.918306414337158 32.4746,8.661306414337158 32.8189,9.241216414337158 L33.4169,10.346686414337158 zM34.8667,23.322086414337157 C36.5702,14.170386414337159 22.6162,14.768386414337158 12.2323,22.053486414337158 C8.82532,24.445586414337157 7.21246,26.52968641433716 6.52382,27.41758641433716 C14.1351,15.221486414337159 33.3263,10.074786414337158 35.2473,17.486786414337157 C35.3197,17.794786414337157 35.356,18.21158641433716 35.3741,18.51968641433716 C35.3379,20.277486414337158 35.3379,20.63998641433716 35.0479,22.43408641433716 L34.8667,23.322086414337157 zM24.1022,1.1769064143371581 C18.3575,-1.088353585662842 11.1812,1.8474164143371583 7.4118,3.7864764143371583 C14.8237,-0.3815905856628418 19.5173,-0.3634685856628418 22.145,0.3795354143371582 L22.2175,0.39765741433715823 C22.7974,0.6332444143371583 23.540399999999998,0.9231964143371583 24.1022,1.1769064143371581 z" fill="url(#paint0_linear)" id="svg_2" class=""/><path d="M32.8371,9.241196414337159 C32.4747,8.679416414337158 32.0035,7.9182864143371585 31.623,7.356506414337158 C35.0661,13.046786414337157 26.0957,22.035386414337157 15.7843,26.257786414337158 C15.3856,25.47858641433716 14.9869,24.69928641433716 14.5882,23.90188641433716 C12.6492,26.366486414337157 10.8551,28.41428641433716 7.93745,31.02388641433716 C11.3625,32.002486414337156 14.3164,32.50988641433716 19.2456,32.23808641433716 C18.9194,31.748786414337157 18.5932,31.241386414337157 18.267,30.67958641433716 C30.7531,24.24628641433716 35.791,15.293986414337159 33.417,10.346686414337158 L32.8371,9.241196414337159 zM35.048,22.43408641433716 C35.3017,20.748686414337158 35.3561,20.34998641433716 35.3742,18.51968641433716 C35.1024,23.630086414337157 29.6839,28.033786414337158 26.4944,30.22648641433716 C26.277,29.70098641433716 26.0232,29.139186414337157 25.7333,28.541186414337158 C24.1023,30.752086414337157 22.2357,33.12608641433716 19.0281,35.82618641433716 C22.0364,35.48188641433716 24.501,35.01078641433716 27.4911,33.742186414337155 C27.473,33.50658641433716 27.4368,33.23478641433716 27.3824,32.926686414337155 C31.6411,29.646586414337158 33.8701,26.78328641433716 34.8668,23.340186414337158 L35.048,22.43408641433716 zM22.2176,0.4157664143371582 L22.1451,0.39764441433715825 C29.1402,3.2609264143371584 22.1089,12.666286414337158 12.0693,16.88868641433716 C9.18787,18.10288641433716 7.10384,18.429086414337156 5.99839,18.610286414337157 C5.87154,17.74038641433716 5.78093,16.870586414337158 5.72656,16.000686414337157 C4.02309,17.849186414337158 2.41023,19.915086414337157 0,21.564186414337158 C1.8122,23.684486414337158 3.67877,24.69928641433716 7.8106,26.112786414337158 C7.55689,25.387886414337157 7.3213,24.663086414337158 7.12196,23.92008641433716 C22.5257,19.67948641433716 31.7498,5.8161364143371586 24.791,1.5393364143371584 C24.5916,1.4124764143371582 24.3017,1.2856264143371583 24.1023,1.1768964143371583 C23.5405,0.9413064143371581 22.7975,0.6151094143371583 22.2176,0.4157664143371582 z" fill="url(#paint1_linear)" id="svg_3" class=""/><path d="M22.7975,0.6876524143371581 C22.5982,0.5789204143371584 22.3807,0.4701884143371582 22.1451,0.3795784143371582 L22.2176,0.39770041433715825 C22.7975,0.5970424143371583 23.5224,0.9232364143371583 24.0842,1.1588264143371583 C24.2292,1.2313164143371582 24.3923,1.3219264143371583 24.5554,1.3944164143371582 C24.0479,1.1950664143371583 23.3593,0.9051174143371582 22.7975,0.6876524143371581 zM16.0742,26.14908641433716 C16.1286,26.275986414337158 16.2011,26.384686414337157 16.2555,26.51158641433716 C25.7695,22.59718641433716 34.1419,14.659786414337159 32.674,8.969426414337159 C32.3478,8.443886414337157 31.9492,7.827736414337158 31.623,7.356566414337158 C35.0299,12.992486414337158 26.2588,21.872286414337157 16.0742,26.14908641433716 zM6.46957,18.84588641433716 C7.57501,18.664686414337158 9.64092,18.320386414337158 12.5405,17.12438641433716 C22.4532,12.974386414337157 29.4302,3.7683964143371584 22.9063,0.7601404143371583 C28.5785,3.985866414337158 21.7102,12.829386414337158 12.0693,16.870586414337158 C9.51407,17.93978641433716 7.61126,18.320386414337158 6.43332,18.53788641433716 C6.43332,18.628486414337157 6.45145,18.73718641433716 6.46957,18.84588641433716 zM26.7844,30.02718641433716 C26.8569,30.17218641433716 26.9112,30.317186414337158 26.9656,30.462186414337157 C29.557,28.704286414337158 33.5801,25.47858641433716 35.1749,21.61858641433716 C35.3199,20.549386414337157 35.3742,20.00578641433716 35.3742,18.519786414337158 C35.1205,23.467086414337157 30.0101,27.78008641433716 26.7844,30.02718641433716 zM0.471173,21.81798641433716 C2.68206,20.29568641433716 4.22243,18.429086414337156 5.78093,16.707486414337158 C5.76281,16.47198641433716 5.74469,16.236386414337158 5.72656,16.00078641433716 C4.02309,17.849186414337158 2.41023,19.915086414337157 0,21.564286414337158 C1.08732,22.850886414337158 2.21089,23.72078641433716 3.84187,24.51808641433716 C2.4646,23.793286414337157 1.44976,22.95968641433716 0.471173,21.81798641433716 zM25.987,29.06678641433716 C25.9145,28.88558641433716 25.823900000000002,28.704286414337158 25.7333,28.523086414337158 C24.1023,30.73398641433716 22.2357,33.107986414337155 19.0281,35.80818641433716 C19.3181,35.77188641433716 19.6262,35.73568641433716 19.898,35.699386414337155 C22.725,33.271086414337155 24.4648,31.096386414337157 25.987,29.06678641433716 zM14.842,24.427486414337157 C14.7513,24.264386414337157 14.6789,24.08318641433716 14.5882,23.92008641433716 C12.6492,26.384686414337157 10.8551,28.43248641433716 7.93745,31.04208641433716 C8.11867,31.096386414337157 8.31802,31.15078641433716 8.49924,31.20518641433716 C11.2538,28.72248641433716 12.9935,26.747186414337158 14.842,24.427486414337157 z" fill="url(#paint2_linear)" id="svg_4" class=""/><g opacity="0.7" id="svg_5" class="">
<path opacity="0.7" d="M22.2719,0.4338884143371582 C22.2538,0.4338884143371582 22.2356,0.4157664143371582 22.2175,0.4157664143371582 L22.145,0.39764441433715825 C22.2175,0.4338884143371582 22.29,0.4520104143371583 22.3444,0.4882544143371582 C22.3262,0.47013241433715824 22.3081,0.4520104143371583 22.2719,0.4338884143371582 z" fill="url(#paint3_linear)" id="svg_6"/>
<path opacity="0.7" d="M24.2654,1.2856664143371583 C31.2242,5.562466414337158 21.982,19.425786414337157 6.59637,23.666386414337158 C6.81384,24.40938641433716 7.0313,25.134286414337158 7.28501,25.85918641433716 C5.76276,25.33358641433716 4.53046,24.86238641433716 3.51562,24.37318641433716 C4.63919,24.953086414337157 5.99834,25.49668641433716 7.81055,26.112886414337158 C7.55684,25.38798641433716 7.32125,24.663086414337158 7.12191,23.92008641433716 C22.5256,19.67948641433716 31.7498,5.816176414337158 24.7909,1.5393664143371582 C24.5916,1.4125164143371582 24.3016,1.2856664143371583 24.1023,1.1769264143371583 C24.066,1.1588064143371581 24.0479,1.1588064143371581 24.0117,1.1406864143371582 C24.1023,1.1769264143371583 24.1929,1.2312964143371583 24.2654,1.2856664143371583 z" fill="url(#paint4_linear)" id="svg_7"/>
<path opacity="0.7" d="M18.2671,30.67958641433716 C30.7531,24.24628641433716 35.7911,15.293986414337159 33.4171,10.346686414337158 L32.8372,9.223076414337159 C32.4747,8.661286414337159 32.0036,7.900166414337158 31.623,7.338376414337159 C31.913,7.809556414337158 32.0942,8.298846414337158 32.221,8.80626641433716 C32.2573,8.860626414337158 32.2935,8.914996414337159 32.3116,8.951236414337158 L32.8915,10.074786414337158 C35.2474,15.022086414337158 30.2276,23.974386414337157 17.7415,30.407686414337157 C18.0858,30.969486414337158 18.412,31.47688641433716 18.7201,31.96618641433716 C14.0809,32.23808641433716 11.1995,31.80308641433716 8.02811,30.933286414337157 C7.9918700000000005,30.969486414337158 7.95562,30.98768641433716 7.9375,31.02388641433716 C11.3626,32.002486414337156 14.3165,32.50988641433716 19.2457,32.23808641433716 C18.9376,31.748786414337157 18.5933,31.241386414337157 18.2671,30.67958641433716 z" fill="url(#paint5_linear)" id="svg_8"/>
<path opacity="0.7" d="M34.6311,21.546086414337157 C34.5949,21.727286414337158 34.5767,21.94478641433716 34.5405,22.162286414337157 L34.3593,23.05018641433716 C33.3626,26.49338641433716 31.1335,29.356686414337158 26.8749,32.63678641433716 C26.9292,32.944886414337155 26.9655,33.21668641433716 26.9836,33.45228641433716 C24.3197,34.575886414337155 22.0725,35.08328641433716 19.4811,35.40948641433716 C19.336100000000002,35.536286414337155 19.1911,35.66318641433716 19.0461,35.78998641433716 C22.0544,35.44568641433716 24.519,34.97448641433716 27.5091,33.70598641433716 C27.491,33.470386414337156 27.4548,33.19858641433716 27.4004,32.89048641433716 C31.6591,29.610386414337157 33.8881,26.747086414337158 34.8848,23.303886414337157 L35.066,22.41598641433716 C35.3197,20.730586414337157 35.3741,20.33188641433716 35.3922,18.501586414337158 C35.3197,19.55268641433716 35.0479,20.567486414337157 34.6311,21.546086414337157 z" fill="url(#paint6_linear)" id="svg_9"/>
</g></g></svg>