<svg width="257" height="60" viewBox="0 0 257 60" fill="none" xmlns="http://www.w3.org/2000/svg">
<path d="M34.506 30.8705C36.9436 29.3443 39.4139 27.8508 41.8974 26.3573L26.4856 31.7352C24.238 21.9162 28.2155 11.3504 37.1992 5.72363C46.4974 -0.112755 58.2332 1.19732 66.1094 8.12762C62.4072 11.0949 53.0303 18.8899 49.8392 21.7C55.3434 18.5362 60.9328 15.4706 66.5812 12.5229C67.5969 11.9792 68.4684 11.5207 69.0712 11.2128C69.0712 11.2128 69.0778 11.2128 69.0778 11.2194C69.9296 10.7805 70.7749 10.3285 71.6333 9.89622C62.2106 -0.656435 46.3597 -3.25693 34.0342 4.46596C22.2067 11.881 17.5216 26.3639 21.9315 39.0716C21.9905 39.0323 22.056 38.993 22.1215 38.9471C26.23 36.1829 30.3582 33.471 34.506 30.8705Z" fill="#525F7B"/>
<path d="M95.4 0.797607C88.5328 5.11431 81.5543 9.21484 74.5167 13.1451C48.0571 26.5013 23.524 41.9405 0 59.9999C23.2947 45.3598 47.6443 32.9141 72.7213 22.7152C76.8429 33.3857 73.0161 45.7921 63.0037 52.0674C52.0804 58.9125 37.7826 55.9518 30.3322 45.5629C29.4607 46.0214 28.6089 46.4996 27.7439 46.9647C37.0421 58.3034 53.4827 61.2707 66.1686 53.3185C79.3001 45.0847 83.6314 28.1454 76.476 14.5862C82.8648 10.1646 89.1684 5.57938 95.4 0.797607Z" fill="#FFD400"/>
<path d="M188.095 39.9871H101.593V37.9402H188.095V39.9871Z" fill="#525F7B"/>
<path d="M103.479 52.0592H105.114C105.296 52.0592 105.442 52.0522 105.568 52.0313C105.687 52.0103 105.792 51.9754 105.875 51.9335C105.959 51.8916 106.036 51.8287 106.106 51.7518C106.169 51.675 106.239 51.5772 106.302 51.4514C106.364 51.3257 106.42 51.165 106.476 50.9764C106.532 50.7878 106.602 50.5083 106.686 50.1241H107.315L107.189 52.6321H101.586V52.3317C101.844 52.2618 102.019 52.192 102.103 52.1081C102.194 52.0243 102.25 51.9125 102.271 51.7658C102.299 51.6121 102.312 51.3816 102.312 51.0742V45.6809C102.312 45.3944 102.306 45.1849 102.285 45.0521C102.264 44.9194 102.229 44.8216 102.18 44.7447C102.131 44.6749 102.068 44.619 101.991 44.5771C101.914 44.5282 101.775 44.4792 101.586 44.4303V44.123H104.213V44.4303C104.031 44.4792 103.898 44.5212 103.822 44.5631C103.745 44.598 103.682 44.6539 103.626 44.7238C103.584 44.7866 103.542 44.8914 103.521 45.0242C103.493 45.1639 103.479 45.3805 103.479 45.6809V52.0592ZM110.298 51.0742C110.298 51.3536 110.305 51.5562 110.326 51.689C110.347 51.8147 110.382 51.9195 110.423 51.9894C110.465 52.0662 110.528 52.1291 110.612 52.178C110.696 52.2269 110.836 52.2758 111.031 52.3317V52.6321H108.397V52.3317C108.656 52.2618 108.831 52.192 108.914 52.1081C109.005 52.0243 109.061 51.9125 109.089 51.7658C109.117 51.6121 109.124 51.3816 109.124 51.0742V45.6809C109.124 45.3944 109.117 45.1849 109.096 45.0521C109.075 44.9194 109.04 44.8216 108.991 44.7447C108.942 44.6749 108.879 44.619 108.803 44.5771C108.726 44.5282 108.586 44.4792 108.397 44.4303V44.123H111.031V44.4303C110.843 44.4723 110.717 44.5212 110.633 44.5631C110.556 44.612 110.486 44.6679 110.437 44.7377C110.389 44.8076 110.354 44.9054 110.333 45.0451C110.312 45.1848 110.298 45.3944 110.298 45.6809V51.0742ZM114.699 44.123V44.4303C114.503 44.4583 114.357 44.5002 114.259 44.5491C114.161 44.605 114.084 44.6749 114.035 44.7657C113.986 44.8565 113.958 44.9753 113.958 45.1359C113.958 45.2757 113.979 45.4294 114.007 45.59C114.042 45.7577 114.091 45.9394 114.154 46.142L115.614 51.2349L117.403 46.107C117.431 46.0232 117.452 45.9394 117.479 45.8555C117.5 45.7647 117.521 45.6809 117.542 45.597C117.563 45.5132 117.577 45.4433 117.584 45.3805C117.591 45.3176 117.591 45.2617 117.591 45.2058C117.591 44.9613 117.535 44.7727 117.424 44.6609C117.305 44.5491 117.109 44.4723 116.837 44.4303V44.123H119.457V44.4303C119.282 44.4723 119.149 44.5282 119.044 44.605C118.94 44.6888 118.835 44.8146 118.737 44.9892C118.632 45.1639 118.513 45.4433 118.367 45.8276L115.775 52.7369H114.957L112.855 45.7787C112.743 45.4014 112.645 45.1359 112.568 44.9753C112.484 44.8146 112.394 44.6958 112.289 44.612C112.191 44.5281 112.051 44.4723 111.877 44.4303V44.123H114.699ZM125.996 44.123V46.0092H125.381C125.318 45.7996 125.255 45.625 125.192 45.4713C125.122 45.3106 125.052 45.1849 124.983 45.0801C124.913 44.9753 124.836 44.8914 124.745 44.8355C124.661 44.7727 124.563 44.7307 124.445 44.7028C124.333 44.6818 124.193 44.6679 124.025 44.6679H122.055V47.9374H123.39C123.578 47.9374 123.718 47.9164 123.823 47.8605C123.928 47.8116 124.012 47.7208 124.081 47.5951C124.151 47.4693 124.214 47.2737 124.277 47.0082H124.864V49.4045H124.277C124.221 49.153 124.151 48.9644 124.081 48.8386C124.012 48.7129 123.928 48.622 123.83 48.5662C123.732 48.5173 123.585 48.4893 123.39 48.4893H122.055V52.0872H123.998C124.2 52.0872 124.368 52.0662 124.494 52.0313C124.619 51.9964 124.731 51.9335 124.822 51.8496C124.913 51.7658 124.99 51.654 125.059 51.5213C125.129 51.3816 125.192 51.2349 125.241 51.0882C125.29 50.9414 125.353 50.7249 125.437 50.4454H126.051L125.933 52.6321H120.162V52.3317C120.421 52.2618 120.595 52.192 120.679 52.1081C120.77 52.0243 120.826 51.9125 120.847 51.7658C120.875 51.6121 120.889 51.3816 120.889 51.0742V45.6809C120.889 45.3944 120.882 45.1849 120.861 45.0521C120.84 44.9194 120.805 44.8216 120.756 44.7447C120.707 44.6749 120.644 44.619 120.567 44.5771C120.49 44.5282 120.351 44.4792 120.162 44.4303V44.123H125.996ZM135.392 45.7158L133.394 52.681H132.388L130.572 45.9044C130.495 45.625 130.425 45.3944 130.369 45.2128C130.306 45.0381 130.243 44.8914 130.18 44.7936C130.117 44.6888 130.048 44.612 129.971 44.5631C129.901 44.5072 129.796 44.4653 129.663 44.4303V44.123H132.332V44.4303C132.074 44.4792 131.892 44.5491 131.787 44.6539C131.689 44.7517 131.64 44.8914 131.64 45.0731C131.64 45.2198 131.654 45.3874 131.696 45.59C131.731 45.7857 131.787 46.0162 131.85 46.2677L133.101 51.193L135.113 44.123H136.16L137.788 51.1999L139.255 46.4424C139.437 45.8625 139.528 45.4503 139.528 45.2058C139.528 44.9543 139.472 44.7727 139.367 44.6609C139.262 44.5421 139.088 44.4723 138.843 44.4303V44.123H141.295V44.4303C141.177 44.4723 141.072 44.5142 141.002 44.5701C140.925 44.619 140.855 44.6888 140.785 44.7797C140.715 44.8705 140.639 45.0102 140.562 45.1918C140.478 45.3805 140.387 45.632 140.275 45.9463L138.005 52.681H137.111L135.392 45.7158ZM147.834 44.123V46.0092H147.227C147.164 45.7996 147.094 45.625 147.031 45.4713C146.968 45.3106 146.891 45.1849 146.821 45.0801C146.751 44.9753 146.675 44.8914 146.591 44.8355C146.507 44.7727 146.402 44.7307 146.29 44.7028C146.172 44.6818 146.032 44.6679 145.871 44.6679H143.901V47.9374H145.235C145.417 47.9374 145.557 47.9164 145.662 47.8605C145.766 47.8116 145.857 47.7208 145.92 47.5951C145.99 47.4693 146.06 47.2737 146.116 47.0082H146.71V49.4045H146.116C146.06 49.153 145.997 48.9644 145.927 48.8386C145.857 48.7129 145.773 48.622 145.676 48.5662C145.578 48.5173 145.431 48.4893 145.235 48.4893H143.901V52.0872H145.836C146.046 52.0872 146.207 52.0662 146.332 52.0313C146.465 51.9964 146.57 51.9335 146.661 51.8496C146.751 51.7658 146.835 51.654 146.905 51.5213C146.975 51.3816 147.038 51.2349 147.087 51.0882C147.129 50.9414 147.199 50.7249 147.282 50.4454H147.897L147.778 52.6321H142.001V52.3317C142.259 52.2618 142.434 52.192 142.525 52.1081C142.609 52.0243 142.665 51.9125 142.693 51.7658C142.72 51.6121 142.734 51.3816 142.734 51.0742V45.6809C142.734 45.3944 142.72 45.1849 142.7 45.0521C142.679 44.9194 142.651 44.8216 142.602 44.7447C142.553 44.6749 142.49 44.619 142.406 44.5771C142.329 44.5282 142.197 44.4792 142.001 44.4303V44.123H147.834ZM153.423 52.6321V52.3317C153.633 52.2898 153.787 52.2409 153.884 52.192C153.989 52.1431 154.066 52.0732 154.115 51.9824C154.164 51.8916 154.192 51.7728 154.192 51.6261C154.192 51.4864 154.178 51.3327 154.143 51.165C154.108 51.0043 154.059 50.8157 153.996 50.6131L153.766 49.8097H150.859L150.65 50.4245C150.538 50.7249 150.468 50.9624 150.44 51.1161C150.405 51.2768 150.384 51.4235 150.384 51.5492C150.384 51.8007 150.447 51.9824 150.58 52.1012C150.706 52.2129 150.901 52.2898 151.16 52.3317V52.6321H148.498V52.3317C148.729 52.2898 148.931 52.157 149.106 51.9265C149.273 51.689 149.448 51.3606 149.609 50.9275L152.208 44.0251H153.193L155.317 50.9764C155.414 51.2977 155.498 51.5492 155.575 51.7169C155.652 51.8846 155.75 52.0243 155.854 52.1151C155.959 52.2129 156.113 52.2828 156.302 52.3317V52.6321H153.423ZM151.027 49.2648H153.633L152.452 45.2407L151.027 49.2648ZM159.026 52.0592H160.661C160.836 52.0592 160.989 52.0522 161.108 52.0313C161.227 52.0103 161.332 51.9754 161.415 51.9335C161.499 51.8916 161.576 51.8287 161.646 51.7518C161.716 51.675 161.779 51.5772 161.842 51.4514C161.904 51.3257 161.967 51.165 162.023 50.9764C162.079 50.7878 162.149 50.5083 162.233 50.1241H162.862L162.736 52.6321H157.126V52.3317C157.391 52.2618 157.559 52.192 157.65 52.1081C157.734 52.0243 157.79 51.9125 157.818 51.7658C157.846 51.6121 157.859 51.3816 157.859 51.0742V45.6809C157.859 45.3944 157.846 45.1849 157.832 45.0521C157.811 44.9194 157.776 44.8216 157.727 44.7447C157.678 44.6749 157.615 44.619 157.538 44.5771C157.454 44.5282 157.322 44.4792 157.126 44.4303V44.123H159.753V44.4303C159.571 44.4792 159.445 44.5212 159.369 44.5631C159.292 44.598 159.222 44.6539 159.173 44.7238C159.124 44.7866 159.089 44.8914 159.061 45.0242C159.04 45.1639 159.026 45.3805 159.026 45.6809V52.0592ZM162.289 44.123H169.037V46.2957H168.423C168.332 45.9394 168.248 45.6529 168.157 45.4433C168.066 45.2338 167.968 45.0801 167.871 44.9683C167.773 44.8635 167.661 44.7866 167.549 44.7377C167.438 44.6958 167.263 44.6679 167.032 44.6679H166.243V51.0602C166.243 51.3047 166.257 51.5003 166.285 51.6401C166.313 51.7868 166.355 51.9055 166.411 51.9894C166.466 52.0732 166.536 52.1431 166.634 52.192C166.732 52.2339 166.879 52.2828 167.081 52.3317V52.6321H164.231V52.3317C164.357 52.3038 164.468 52.2688 164.566 52.2339C164.664 52.2059 164.741 52.164 164.804 52.1151C164.86 52.0662 164.909 52.0033 164.95 51.9265C164.985 51.8566 165.02 51.7518 165.041 51.6261C165.069 51.4934 165.076 51.3047 165.076 51.0602V44.6679H164.294C164.098 44.6679 163.93 44.6888 163.812 44.7238C163.679 44.7657 163.56 44.8425 163.455 44.9613C163.344 45.0801 163.246 45.2477 163.162 45.4643C163.071 45.6879 162.987 45.9603 162.904 46.2957H162.289V44.123ZM176.694 51.0742C176.694 51.3187 176.701 51.5003 176.708 51.6191C176.722 51.7379 176.743 51.8357 176.771 51.9125C176.799 51.9824 176.834 52.0383 176.876 52.0872C176.918 52.1361 176.981 52.171 177.057 52.2129C177.134 52.2479 177.253 52.2898 177.414 52.3317V52.6321H174.801V52.3317C175.031 52.2688 175.192 52.2059 175.283 52.1361C175.374 52.0662 175.437 51.9614 175.472 51.8077C175.507 51.668 175.528 51.4235 175.528 51.0742V48.4614H172.055V51.0742C172.055 51.3536 172.069 51.5562 172.083 51.689C172.104 51.8147 172.139 51.9195 172.181 51.9894C172.223 52.0662 172.286 52.1291 172.37 52.178C172.461 52.2269 172.593 52.2758 172.789 52.3317V52.6321H170.162V52.3317C170.421 52.2618 170.595 52.192 170.679 52.1081C170.77 52.0243 170.826 51.9125 170.854 51.7658C170.875 51.6121 170.889 51.3816 170.889 51.0742V45.6809C170.889 45.3944 170.882 45.1849 170.861 45.0521C170.84 44.9194 170.805 44.8216 170.756 44.7447C170.707 44.6749 170.644 44.619 170.567 44.5771C170.49 44.5282 170.351 44.4792 170.162 44.4303V44.123H172.789V44.4303C172.607 44.4723 172.475 44.5212 172.391 44.5631C172.314 44.612 172.244 44.6679 172.195 44.7377C172.153 44.8076 172.118 44.9054 172.09 45.0451C172.069 45.1848 172.055 45.3944 172.055 45.6809V47.8885H175.528V45.6809C175.528 45.3176 175.507 45.0731 175.472 44.9403C175.437 44.8076 175.381 44.7028 175.297 44.6329C175.213 44.5631 175.045 44.4932 174.801 44.4303V44.123H177.414V44.4303C177.183 44.4862 177.023 44.5491 176.925 44.626C176.834 44.6958 176.778 44.8076 176.743 44.9543C176.708 45.094 176.694 45.3385 176.694 45.6809V51.0742ZM181.137 49.0622L179.419 45.8625C179.209 45.4783 179.056 45.1988 178.944 45.0312C178.839 44.8705 178.727 44.7377 178.622 44.6399C178.511 44.5421 178.385 44.4723 178.245 44.4303V44.123H180.9V44.4303C180.509 44.4723 180.313 44.6399 180.313 44.9333C180.313 45.0521 180.348 45.1918 180.397 45.3385C180.46 45.4922 180.558 45.7018 180.704 45.9743L181.948 48.3496L183.177 46.1839C183.345 45.8835 183.464 45.639 183.534 45.4503C183.597 45.2687 183.631 45.094 183.631 44.9333C183.631 44.7796 183.59 44.6679 183.499 44.5771C183.408 44.4932 183.282 44.4443 183.101 44.4303V44.123H185.469V44.4303C185.294 44.4932 185.147 44.5771 185.015 44.6888C184.889 44.8006 184.756 44.9473 184.623 45.1359C184.491 45.3176 184.295 45.6389 184.037 46.0791L182.304 49.0342V51.0602C182.304 51.2908 182.318 51.4864 182.346 51.6331C182.367 51.7798 182.409 51.8916 182.465 51.9824C182.528 52.0662 182.604 52.1361 182.702 52.185C182.793 52.2339 182.947 52.2828 183.149 52.3317V52.6321H180.299V52.3317C180.495 52.2898 180.648 52.2409 180.739 52.192C180.837 52.1501 180.914 52.0802 180.97 51.9894C181.026 51.8986 181.075 51.7868 181.095 51.6401C181.123 51.4934 181.137 51.2977 181.137 51.0602V49.0622ZM187.893 44.123L187.481 50.0402H186.88L186.573 44.123H187.893ZM187.823 51.186V52.6321H186.58V51.186H187.823Z" fill="#525F7B"/>
<path d="M106.057 31.5551C107.552 31.5551 109.124 31.3036 110.528 30.4024C112.554 29.082 113.176 27.1398 113.176 25.5051C113.176 22.8364 111.967 20.8942 108.565 18.3373L107.775 17.7434C105.442 15.9759 104.792 14.9909 104.792 13.6985C104.792 12.0078 106.057 10.7992 108.139 10.7992C109.969 10.7992 110.786 11.6445 111.206 12.1755C111.799 12.909 111.939 13.7823 111.939 14.0338C111.939 14.3691 112.023 14.5438 112.219 14.5438C112.442 14.5438 112.526 14.3132 112.526 13.6985C112.526 11.5048 112.638 10.6874 112.638 10.3241C112.638 10.1215 112.498 10.0377 112.247 9.98182C111.513 9.78621 110.332 9.50676 108.509 9.50676C104.597 9.50676 102.012 11.7284 102.012 14.8232C102.012 17.1007 103.081 19.0708 106.169 21.488L107.468 22.501C109.801 24.3244 110.221 25.6238 110.221 27.0001C110.221 28.4882 108.984 30.2068 106.455 30.2068C104.708 30.2068 103.053 29.4453 102.431 27.3634C102.291 26.8883 102.179 26.2945 102.179 25.9312C102.179 25.7077 102.152 25.4492 101.9 25.4492C101.669 25.4492 101.586 25.7636 101.558 26.1827C101.53 26.6368 101.418 28.3205 101.418 29.8644C101.418 30.4862 101.502 30.6259 101.956 30.8215C103.165 31.3595 104.429 31.5551 106.057 31.5551ZM119.868 23.004C119.868 25.5959 119.868 27.8175 119.729 28.9982C119.617 29.8086 119.477 30.4303 118.911 30.5421C118.66 30.598 118.324 30.6539 117.898 30.6539C117.563 30.6539 117.451 30.7377 117.451 30.8774C117.451 31.08 117.647 31.1639 118.01 31.1639C119.135 31.1639 120.909 31.08 121.552 31.08C122.286 31.08 124.06 31.1639 125.911 31.1639C126.226 31.1639 126.449 31.08 126.449 30.8774C126.449 30.7377 126.31 30.6539 126.002 30.6539C125.576 30.6539 124.961 30.598 124.563 30.5421C123.718 30.4303 123.55 29.8086 123.466 29.0261C123.327 27.8175 123.327 25.5959 123.327 23.004V11.7563C123.327 11.4489 123.41 11.2812 123.55 11.2184C123.809 11.1345 124.228 11.1066 124.647 11.1066C125.297 11.1066 126.449 11.2812 127.462 12.2034C129.034 13.6146 129.118 15.4939 129.118 16.4231C129.118 19.2944 126.924 21.0619 125.353 21.0619C124.759 21.0619 124.563 21.1457 124.563 21.3763C124.563 21.5719 124.759 21.5998 124.905 21.6278C125.045 21.6557 125.353 21.6557 125.492 21.6557C129.488 21.6557 132.409 18.8403 132.409 14.8512C132.409 13.3561 131.626 12.0916 131.004 11.5048C130.557 11.0786 129.293 9.89799 125.772 9.89799C124.479 9.89799 122.852 9.98182 121.699 9.98182C120.909 9.98182 119.135 9.89799 117.647 9.89799C117.228 9.89799 117.025 9.95388 117.025 10.1495C117.025 10.3521 117.2 10.408 117.507 10.408C117.898 10.408 118.38 10.4359 118.604 10.4918C119.533 10.6874 119.757 11.1345 119.813 12.0916C119.868 12.9929 119.868 13.7823 119.868 18.0578V23.004ZM138.291 23.004C138.291 25.7356 138.291 27.9572 138.151 29.1379C138.067 29.9553 137.893 30.4303 137.334 30.5421C137.082 30.598 136.74 30.6539 136.321 30.6539C135.986 30.6539 135.874 30.7377 135.874 30.8774C135.874 31.08 136.069 31.1639 136.433 31.1639C137.557 31.1639 139.332 31.08 139.975 31.08C140.736 31.08 142.511 31.1639 144.362 31.1639C144.676 31.1639 144.9 31.08 144.9 30.8774C144.9 30.7377 144.76 30.6539 144.446 30.6539C144.027 30.6539 143.405 30.598 143.014 30.5421C142.168 30.4303 141.973 29.9273 141.889 29.1658C141.777 27.9572 141.777 25.7356 141.777 23.004V18.0578C141.777 13.7823 141.777 12.9929 141.833 12.0916C141.889 11.1066 142.112 10.6315 142.874 10.4918C143.209 10.4359 143.433 10.408 143.719 10.408C143.999 10.408 144.166 10.3521 144.166 10.1215C144.166 9.95388 143.943 9.89799 143.579 9.89799C142.511 9.89799 140.848 9.98182 140.142 9.98182C139.332 9.98182 137.557 9.89799 136.489 9.89799C136.041 9.89799 135.811 9.95388 135.811 10.1215C135.811 10.3521 135.986 10.408 136.265 10.408C136.6 10.408 136.964 10.4359 137.278 10.5198C137.893 10.6595 138.179 11.1345 138.235 12.0916C138.291 12.9929 138.291 13.7823 138.291 18.0578V23.004ZM154.743 23.004C154.743 25.5959 154.743 27.8175 154.604 28.9982C154.52 29.8086 154.345 30.4303 153.786 30.5421C153.535 30.598 153.192 30.6539 152.773 30.6539C152.438 30.6539 152.326 30.7377 152.326 30.8774C152.326 31.08 152.522 31.1639 152.885 31.1639C154.01 31.1639 155.784 31.08 156.427 31.08C157.216 31.08 158.991 31.1639 160.842 31.1639C161.157 31.1639 161.38 31.08 161.38 30.8774C161.38 30.7377 161.241 30.6539 160.926 30.6539C160.507 30.6539 159.885 30.598 159.494 30.5421C158.649 30.4303 158.481 29.8086 158.397 29.0261C158.257 27.8175 158.257 25.5959 158.257 23.004V11.4769L161.799 11.5607C164.307 11.6166 165.062 12.406 165.118 13.1326L165.146 13.447C165.174 13.8661 165.23 14.0059 165.46 14.0059C165.628 14.0059 165.684 13.8382 165.712 13.5587C165.712 12.8252 165.795 10.883 165.795 10.2962C165.795 9.87004 165.768 9.70237 165.572 9.70237C165.46 9.70237 165.23 9.75826 164.81 9.8421C164.391 9.89799 163.769 9.98182 162.868 9.98182H151.732C150.803 9.98182 149.734 9.92593 148.924 9.8421C148.218 9.78621 147.939 9.50676 147.708 9.50676C147.541 9.50676 147.457 9.67443 147.373 10.0377C147.317 10.2683 146.786 12.8252 146.786 13.2723C146.786 13.5867 146.842 13.7264 147.038 13.7264C147.205 13.7264 147.289 13.6146 147.345 13.3841C147.401 13.1605 147.541 12.8252 147.827 12.406C148.246 11.7843 148.924 11.6445 150.552 11.5886L154.743 11.4769V23.004ZM177.239 23.8214C177.379 23.8214 177.462 23.8773 177.525 24.017L179.775 29.9832C179.915 30.3185 179.719 30.57 179.516 30.6259C179.237 30.6539 179.125 30.7098 179.125 30.8774C179.125 31.08 179.46 31.08 179.97 31.108C182.22 31.1639 184.274 31.1639 185.287 31.1639C186.328 31.1639 186.579 31.108 186.579 30.8774C186.579 30.6818 186.44 30.6539 186.209 30.6539C185.874 30.6539 185.455 30.6259 185.028 30.5421C184.442 30.3744 183.624 29.9832 182.555 27.4612C180.76 23.1996 176.254 11.7284 175.583 10.1844C175.297 9.53471 175.129 9.2832 174.877 9.2832C174.598 9.2832 174.43 9.59059 174.088 10.408L167.032 28.069C166.466 29.4732 165.935 30.4303 164.643 30.598C164.419 30.6259 164.021 30.6539 163.769 30.6539C163.546 30.6539 163.434 30.7098 163.434 30.8774C163.434 31.108 163.602 31.1639 163.965 31.1639C165.432 31.1639 166.976 31.08 167.284 31.08C168.157 31.08 169.365 31.1639 170.267 31.1639C170.574 31.1639 170.742 31.108 170.742 30.8774C170.742 30.7098 170.658 30.6539 170.323 30.6539H169.903C169.03 30.6539 168.779 30.2906 168.779 29.7806C168.779 29.4453 168.918 28.7676 169.198 28.069L170.714 24.045C170.77 23.8773 170.826 23.8214 170.965 23.8214H177.239ZM171.531 22.4172C171.419 22.4172 171.391 22.3334 171.419 22.2146L174.004 15.2983C174.032 15.1865 174.088 15.0468 174.172 15.0468C174.263 15.0468 174.291 15.1865 174.319 15.2983L176.848 22.2425C176.876 22.3334 176.848 22.4172 176.708 22.4172H171.531ZM190.037 28.3484C189.898 29.3056 189.674 30.4024 188.885 30.57C188.459 30.6539 188.263 30.6539 188.039 30.6539C187.76 30.6539 187.592 30.7098 187.592 30.8495C187.592 31.108 187.816 31.1639 188.095 31.1639C188.997 31.1639 190.345 31.08 190.883 31.08C191.386 31.08 192.65 31.1639 193.831 31.1639C194.257 31.1639 194.509 31.108 194.509 30.8495C194.509 30.7098 194.313 30.6539 194.089 30.6539C193.803 30.6539 193.412 30.6259 192.909 30.5142C192.427 30.4024 192.063 30.1509 192.063 29.6129C192.063 29.1658 192.091 28.8025 192.147 28.2926L193.607 17.1007H193.719C194.704 19.2105 196.395 22.7525 196.646 23.3394C196.982 24.1288 199.203 28.4323 199.881 29.7247C200.328 30.57 200.615 31.1359 200.866 31.1359C201.118 31.1359 201.257 30.8774 201.907 29.5571L208.034 16.7933H208.146L209.836 29.1658C209.948 29.9553 209.864 30.3185 209.697 30.3744C209.501 30.4583 209.389 30.5421 209.389 30.6818C209.389 30.8495 209.557 30.9333 210.2 30.9962C211.324 31.08 215.209 31.1639 215.914 31.1639C216.305 31.1639 216.641 31.08 216.641 30.8495C216.641 30.6818 216.445 30.6539 216.194 30.6539C215.823 30.6539 215.265 30.6259 214.447 30.3744C213.602 30.1229 213.322 29.3056 213.071 27.5311L210.514 10.1495C210.43 9.56265 210.255 9.2832 210.004 9.2832C209.752 9.2832 209.613 9.50676 209.389 9.95388L201.739 26.0151L194.062 10.1495C193.691 9.42293 193.524 9.2832 193.3 9.2832C193.076 9.2832 192.909 9.53471 192.818 10.0098L190.037 28.3484ZM219.987 23.004C219.987 25.5959 219.987 27.8175 219.847 28.9982C219.736 29.8086 219.596 30.4303 219.03 30.5421C218.779 30.598 218.443 30.6539 218.024 30.6539C217.682 30.6539 217.57 30.7377 217.57 30.8774C217.57 31.08 217.766 31.1639 218.136 31.1639C218.695 31.1639 219.428 31.108 220.071 31.108C220.749 31.08 221.37 31.08 221.678 31.08C222.523 31.08 223.389 31.108 224.598 31.1639C225.814 31.1918 227.358 31.2477 229.467 31.2477C230.536 31.2477 230.788 31.2477 230.983 30.5142C231.123 29.9553 231.354 28.0411 231.354 27.3913C231.354 27.1119 231.354 26.8883 231.123 26.8883C230.927 26.8883 230.872 27.0001 230.816 27.3075C230.62 28.4602 230.285 29.054 229.551 29.3894C228.818 29.7247 227.637 29.7247 226.91 29.7247C224.039 29.7247 223.585 29.3056 223.529 27.3634C223.501 26.546 223.529 23.9611 223.529 23.004V20.7824C223.529 20.6148 223.557 20.503 223.704 20.503C224.374 20.503 227.162 20.5309 227.693 20.5868C228.734 20.6986 229.132 21.1178 229.272 21.6836C229.356 22.0469 229.356 22.4172 229.384 22.6966C229.384 22.8364 229.439 22.9481 229.635 22.9481C229.887 22.9481 229.887 22.6408 229.887 22.4172C229.887 22.2146 229.97 21.0898 229.998 20.5309C230.11 19.0988 230.229 18.6447 230.229 18.477C230.229 18.3093 230.145 18.2534 230.026 18.2534C229.887 18.2534 229.775 18.3932 229.579 18.6167C229.328 18.8962 228.902 18.987 228.231 19.0429C227.581 19.0988 224.347 19.0988 223.732 19.0988C223.557 19.0988 223.529 18.987 223.529 18.7844V11.6725C223.529 11.4769 223.585 11.393 223.732 11.393C224.291 11.393 227.246 11.4489 227.721 11.5048C229.132 11.6725 229.411 12.0078 229.607 12.5178C229.747 12.8531 229.775 13.3282 229.775 13.5308C229.775 13.7823 229.831 13.922 230.026 13.922C230.229 13.922 230.285 13.7543 230.313 13.6146C230.369 13.2723 230.424 12.0358 230.452 11.7563C230.536 10.4639 230.676 10.1215 230.676 9.92593C230.676 9.78621 230.648 9.67443 230.508 9.67443C230.369 9.67443 230.201 9.75826 230.054 9.78621C229.831 9.8421 229.384 9.89799 228.846 9.95388C228.315 9.98182 222.719 9.98182 221.818 9.98182C221.426 9.98182 220.777 9.95388 220.043 9.92593C219.344 9.92593 218.527 9.89799 217.766 9.89799C217.346 9.89799 217.151 9.95388 217.151 10.1495C217.151 10.3521 217.318 10.408 217.626 10.408C218.024 10.408 218.499 10.4359 218.723 10.4918C219.652 10.6874 219.875 11.1345 219.931 12.0916C219.987 12.9929 219.987 13.7823 219.987 18.0578V23.004ZM237.914 15.5218H237.997C238.5 16.0598 241.623 19.5738 244.683 22.6128C247.61 25.5051 251.208 29.1938 252.976 30.8774C253.29 31.1918 253.626 31.4992 253.933 31.4992C254.184 31.4992 254.303 31.2477 254.303 30.6259L254.611 12.8811C254.639 11.3092 254.862 10.7154 255.652 10.4918C255.987 10.408 256.21 10.408 256.497 10.408C256.832 10.408 257 10.3241 257 10.1495C257 9.92593 256.72 9.89799 256.35 9.89799C254.974 9.89799 253.905 9.98182 253.598 9.98182C253.004 9.98182 251.655 9.89799 250.195 9.89799C249.776 9.89799 249.469 9.92593 249.469 10.1495C249.469 10.3241 249.581 10.408 249.916 10.408C250.314 10.408 250.985 10.408 251.404 10.5756C252.082 10.8551 252.333 11.393 252.361 13.1046L252.64 25.7356H252.501C252.026 25.2815 248.232 21.2365 246.318 19.3223C242.217 15.2424 237.942 10.6595 237.606 10.2962C237.117 9.78621 236.866 9.42293 236.558 9.42293C236.279 9.42293 236.195 9.81415 236.195 10.38L235.937 27.0281C235.909 29.4732 235.797 30.2906 235.07 30.5142C234.672 30.6259 234.169 30.6539 233.799 30.6539C233.519 30.6539 233.352 30.7098 233.352 30.8774C233.352 31.1359 233.603 31.1639 233.973 31.1639C235.434 31.1639 236.754 31.08 237.005 31.08C237.55 31.08 238.675 31.1639 240.499 31.1639C240.897 31.1639 241.148 31.108 241.148 30.8774C241.148 30.7098 240.981 30.6539 240.666 30.6539C240.219 30.6539 239.688 30.6259 239.206 30.4583C238.647 30.2627 238.277 29.5291 238.221 27.3355L237.914 15.5218Z" fill="#FFD400"/>
<path d="M195.375 46.8195C195.375 48.6149 195.375 50.1589 195.277 50.9832C195.208 51.5631 195.096 51.9264 194.684 52.0242C194.495 52.0661 194.264 52.094 193.971 52.094C193.713 52.094 193.643 52.2058 193.643 52.2966C193.643 52.4364 193.782 52.5062 194.034 52.5062C194.453 52.5062 194.956 52.4853 195.438 52.4573C195.927 52.4573 196.36 52.4364 196.591 52.4364C196.912 52.4364 197.632 52.4573 198.316 52.4853C199.008 52.5272 199.7 52.5481 199.93 52.5481C203.661 52.5481 205.317 50.3894 205.317 48.2936C205.317 45.9881 203.249 44.5839 201.586 44.053C202.739 43.3194 203.87 42.1457 203.87 40.6228C203.87 39.5888 203.221 37.7025 199.56 37.7025C198.868 37.7025 197.534 37.7445 196.521 37.7445C196.13 37.7445 194.844 37.7025 193.782 37.7025C193.482 37.7025 193.321 37.7445 193.321 37.8842C193.321 38.0239 193.461 38.0938 193.671 38.0938C193.971 38.0938 194.313 38.1147 194.474 38.1636C195.117 38.3453 195.305 38.5548 195.347 39.2185C195.375 39.8403 195.375 40.3922 195.375 43.3683V46.8195ZM197.995 38.967C197.995 38.7575 198.044 38.6666 198.184 38.6457C198.386 38.5968 198.777 38.5968 199.057 38.5968C200.803 38.5968 201.586 40.2315 201.586 41.5449C201.586 42.4881 201.195 43.2076 200.671 43.6198C200.321 43.8923 199.749 43.9621 199.078 43.9621C198.617 43.9621 198.316 43.9412 198.135 43.8923C198.065 43.8713 197.995 43.8504 197.995 43.6897V38.967ZM197.995 45.0031C197.995 44.8843 198.044 44.8634 198.114 44.8634H198.987C199.77 44.8634 200.321 45.066 200.734 45.3664C202.257 46.4073 202.648 47.9443 202.648 48.8455C202.648 51.0112 201.244 51.605 200.161 51.605C199.7 51.605 199.239 51.584 198.708 51.3745C198.065 51.123 197.995 50.7317 197.995 49.4463V45.0031ZM215.174 47.581C215.265 47.581 215.335 47.6019 215.377 47.7137L216.942 51.6539C217.039 51.8845 216.9 52.0661 216.76 52.094C216.55 52.115 216.508 52.1849 216.508 52.2966C216.508 52.4364 216.739 52.4364 217.102 52.4573C218.807 52.5062 220.281 52.5062 220.993 52.5062C221.755 52.5062 221.874 52.4573 221.874 52.2966C221.874 52.1569 221.776 52.094 221.594 52.094C221.364 52.094 221.133 52.0661 220.833 52.0242C220.47 51.9264 219.89 51.6819 219.107 49.9144C217.822 46.9592 214.433 38.9461 213.951 37.8632C213.742 37.4231 213.651 37.2415 213.351 37.2415C213.148 37.2415 212.987 37.472 212.757 38.0239L207.461 50.3405C207.042 51.3325 206.7 51.9264 205.778 52.0661C205.596 52.0661 205.365 52.094 205.177 52.094C205.016 52.094 204.953 52.1849 204.953 52.2966C204.953 52.4573 205.065 52.5062 205.317 52.5062C206.378 52.5062 207.461 52.4364 207.664 52.4364C208.314 52.4364 209.257 52.5062 209.92 52.5062C210.13 52.5062 210.242 52.4573 210.242 52.2966C210.242 52.1849 210.2 52.094 209.948 52.094H209.648C209.026 52.094 208.838 51.8845 208.838 51.5351C208.838 51.3046 208.935 50.8226 209.138 50.3405L210.221 47.7137C210.27 47.6019 210.291 47.581 210.402 47.581H215.174ZM210.822 46.4981C210.752 46.4981 210.703 46.4492 210.752 46.3584L212.708 41.4052C212.729 41.3423 212.757 41.2236 212.82 41.2236C212.869 41.2236 212.89 41.3423 212.917 41.4052L214.825 46.3794C214.846 46.4492 214.825 46.4981 214.734 46.4981H210.822ZM225.807 41.8453H225.877C226.268 42.1877 228.406 44.563 230.613 46.6798C232.73 48.7267 235.259 51.1439 236.531 52.3176C236.733 52.5272 237.013 52.7368 237.362 52.7368C237.523 52.7368 237.683 52.5481 237.683 52.115L237.914 39.7774C237.935 38.6666 238.096 38.3243 238.648 38.1636C238.906 38.0938 239.067 38.0938 239.269 38.0938C239.5 38.0938 239.619 38.0029 239.619 37.8842C239.619 37.7235 239.43 37.7025 239.158 37.7025C238.165 37.7025 237.404 37.7445 237.173 37.7445C236.733 37.7445 235.65 37.7025 234.596 37.7025C234.295 37.7025 234.086 37.7235 234.086 37.8842C234.086 38.0029 234.155 38.0938 234.407 38.0938C234.686 38.0938 235.168 38.0938 235.469 38.2055C235.951 38.3942 236.139 38.7365 236.16 39.9381L236.37 48.6359H236.272C235.979 48.3634 233.282 45.5969 231.906 44.2416C228.958 41.3633 225.926 38.2544 225.667 38.0029C225.325 37.6536 225.045 37.3532 224.794 37.3532C224.584 37.3532 224.452 37.6327 224.452 38.0239L224.263 49.6279C224.242 51.3325 224.172 51.8635 223.641 51.9962C223.369 52.0661 222.999 52.094 222.719 52.094C222.537 52.094 222.398 52.1849 222.398 52.2966C222.398 52.4853 222.586 52.5062 222.859 52.5062C223.9 52.5062 224.864 52.4364 225.045 52.4364C225.416 52.4364 226.359 52.5062 227.665 52.5062C227.945 52.5062 228.126 52.4573 228.126 52.2966C228.126 52.1849 228.015 52.094 227.784 52.094C227.463 52.094 227.071 52.0661 226.722 51.9543C226.338 51.8146 226.086 51.3535 226.037 49.8375L225.807 41.8453ZM244.712 43.3683C244.712 40.3922 244.712 39.8403 244.732 39.2185C244.774 38.5269 244.942 38.2544 245.494 38.1636C245.745 38.1147 245.857 38.0938 246.067 38.0938C246.228 38.0938 246.339 38.0239 246.339 37.8842C246.339 37.7445 246.207 37.7025 245.906 37.7025C245.235 37.7025 243.789 37.7445 243.3 37.7445C242.818 37.7445 241.533 37.7025 240.471 37.7025C240.171 37.7025 240.01 37.7445 240.01 37.8842C240.01 38.0239 240.15 38.0938 240.359 38.0938C240.66 38.0938 241.002 38.1147 241.163 38.1636C241.805 38.3453 241.994 38.5548 242.036 39.2185C242.064 39.8403 242.064 40.3922 242.064 43.3683V46.8195C242.064 48.6149 242.064 50.1589 241.966 50.9832C241.903 51.5631 241.784 51.9264 241.372 52.0242C241.184 52.0661 240.953 52.094 240.66 52.094C240.401 52.094 240.331 52.2058 240.331 52.2966C240.331 52.4364 240.471 52.5062 240.722 52.5062C241.533 52.5062 242.818 52.4364 243.279 52.4364C243.789 52.4364 245.235 52.5062 246.367 52.5062C246.598 52.5062 246.758 52.4364 246.758 52.2966C246.758 52.2058 246.64 52.094 246.479 52.094C246.228 52.094 245.766 52.0661 245.494 52.0242C244.984 51.9264 244.802 51.5631 244.753 51.0112C244.712 50.1589 244.712 48.6149 244.712 46.8195V45.045H244.802L245.005 45.3244C245.445 45.9183 249.336 50.4313 250.21 51.1928C251.083 51.9543 251.754 52.3665 252.836 52.4573C253.27 52.5062 253.64 52.5062 254.241 52.5062H256.015C256.378 52.5062 256.497 52.4364 256.497 52.2966C256.497 52.1849 256.378 52.094 256.218 52.094C255.987 52.094 255.575 52.094 254.974 51.8356C253.891 51.4024 253.109 50.5501 252.215 49.7397C251.432 49.0062 247.45 44.8634 246.737 43.9412C247.359 43.2286 250.37 40.3713 251.013 39.7774C251.865 38.967 252.515 38.5549 253.158 38.3243C253.528 38.1846 254.031 38.0938 254.331 38.0938C254.513 38.0938 254.632 38.0239 254.632 37.8842C254.632 37.7445 254.492 37.7025 254.283 37.7025C253.661 37.7025 252.536 37.7445 251.914 37.7445C251.362 37.7445 250.259 37.7025 249.818 37.7025C249.609 37.7025 249.497 37.7445 249.497 37.8842C249.497 38.0029 249.588 38.0449 249.769 38.0938C249.958 38.1357 250.049 38.2754 250.049 38.485C250.049 38.8273 249.609 39.2884 249.036 39.9381C248.435 40.6018 245.494 43.5011 244.802 44.2416H244.712V43.3683Z" fill="#525F7B"/>
</svg>
