<svg xmlns="http://www.w3.org/2000/svg" width="360" height="150" viewBox="0 0 95.25 39.635" fill-rule="evenodd" fill="#6772e5"><path d="M95.25 20.48c0-6.773-3.28-12.118-9.55-12.118-6.297 0-10.107 5.345-10.107 12.065 0 7.964 4.498 11.986 10.954 11.986 3.15 0 5.53-.714 7.33-1.72V25.4c-1.8.9-3.863 1.455-6.482 1.455-2.566 0-4.842-.9-5.133-4.022H95.2c0-.344.053-1.72.053-2.355zm-13.07-2.514c0-3 1.826-4.233 3.492-4.233 1.614 0 3.334 1.244 3.334 4.233zM65.38 8.36c-2.593 0-4.26 1.217-5.186 2.064l-.344-1.64h-5.82v30.85l6.615-1.402.026-7.488c.952.688 2.355 1.667 4.683 1.667 4.736 0 9.05-3.8 9.05-12.197C74.374 12.54 70 8.36 65.38 8.36zM63.8 26.6c-1.56 0-2.487-.556-3.122-1.244l-.026-9.816c.688-.767 1.64-1.296 3.15-1.296 2.408 0 4.075 2.7 4.075 6.165 0 3.545-1.64 6.2-4.075 6.2zM51.567 5.37V0l-6.64 1.402V6.8zm-6.64 3.44h6.64v23.15h-6.64zM37.8 10.77l-.423-1.958H31.67v23.15h6.615v-15.7c1.56-2.037 4.207-1.667 5.027-1.376V8.8c-.847-.317-3.942-.9-5.503 1.958zm-13.23-7.7l-6.456 1.376-.026 21.193c0 3.916 2.937 6.8 6.853 6.8 2.17 0 3.757-.397 4.63-.873v-5.37c-.847.344-5.027 1.56-5.027-2.355v-9.393h5.027V8.8h-5.027zM6.694 15.53c0-1.032.847-1.43 2.25-1.43 2 0 4.55.6 6.562 1.693V9.578C13.3 8.705 11.14 8.36 8.943 8.36 3.572 8.36 0 11.165 0 15.85c0 7.302 10.054 6.138 10.054 9.287 0 1.217-1.058 1.614-2.54 1.614-2.196 0-5-.9-7.223-2.117v6.297C2.75 31.99 5.24 32.44 7.514 32.44c5.503 0 9.287-2.725 9.287-7.46-.026-7.885-10.107-6.482-10.107-9.446z"/></svg>