<?xml version="1.0" encoding="UTF-8" standalone="no"?>
<!-- Created with Inkscape (http://www.inkscape.org/) -->

<svg
   xmlns:dc="http://purl.org/dc/elements/1.1/"
   xmlns:cc="http://creativecommons.org/ns#"
   xmlns:rdf="http://www.w3.org/1999/02/22-rdf-syntax-ns#"
   xmlns:svg="http://www.w3.org/2000/svg"
   xmlns="http://www.w3.org/2000/svg"
   xmlns:sodipodi="http://sodipodi.sourceforge.net/DTD/sodipodi-0.dtd"
   xmlns:inkscape="http://www.inkscape.org/namespaces/inkscape"
   id="svg6629"
   version="1.1"
   inkscape:version="0.91 r13725"
   width="166.12532"
   height="67.481857">
  <metadata
     id="metadata6635">
    <rdf:RDF>
      <cc:Work
         rdf:about="">
        <dc:format>image/svg+xml</dc:format>
        <dc:type
           rdf:resource="http://purl.org/dc/dcmitype/StillImage" />
      </cc:Work>
    </rdf:RDF>
  </metadata>
  <defs
     id="defs6633" />
  <sodipodi:namedview
     pagecolor="#ffffff"
     bordercolor="#666666"
     borderopacity="1"
     objecttolerance="10"
     gridtolerance="10"
     guidetolerance="10"
     inkscape:pageopacity="0"
     inkscape:pageshadow="2"
     inkscape:window-width="640"
     inkscape:window-height="480"
     id="namedview6631" />
  <inkscape:clipboard
     style="color:#000000;clip-rule:nonzero;display:inline;overflow:visible;visibility:visible;opacity:1;isolation:auto;mix-blend-mode:normal;color-interpolation:sRGB;color-interpolation-filters:linearRGB;solid-color:#000000;solid-opacity:1;fill:#cccccc;fill-opacity:1;fill-rule:nonzero;stroke-width:1.3405483;stroke-linecap:butt;stroke-linejoin:miter;stroke-miterlimit:4;stroke-dasharray:none;stroke-dashoffset:0;stroke-opacity:1;filter-blend-mode:normal;filter-gaussianBlur-deviation:0;color-rendering:auto;image-rendering:auto;shape-rendering:auto;text-rendering:auto;enable-background:accumulate"
     min="-596.49603,8909.697"
     max="-430.37071,8977.1788" />
  <g
     transform="matrix(1.3405483,0,0,1.3405483,799.6317,10600.618)"
     id="g6622">
    <path
       style="fill:#ffffff;fill-rule:evenodd;stroke:none;stroke-width:1px;stroke-linecap:butt;stroke-linejoin:miter;stroke-opacity:1"
       d="m -585.79928,-7907.6734 19.51956,23.2673 -30.21628,17.6457 0.15616,-27.952 c 0,0 0,-3.8259 1.71772,-5.4655 1.71772,-1.6396 8.82284,-7.4955 8.82284,-7.4955 z"
       id="path6581"
       inkscape:connector-curvature="0" />
    <path
       id="path6520"
       style="font-variant:normal;font-weight:100;font-stretch:normal;font-size:medium;font-family:'Roboto Thin';-inkscape-font-specification:Roboto-Thin;writing-mode:lr-tb;fill:#ffffff;fill-opacity:1;fill-rule:nonzero;stroke:none"
       d="m -556.27972,-7902.101 4.62649,0 q 2.53491,0 3.84215,1.2276 1.29587,1.2277 1.29587,3.6035 0,2.3871 -1.29587,3.6148 -1.30724,1.2277 -3.84215,1.2277 l -3.48976,0 0,7.2977 -1.13673,0 0,-16.9713 z m 1.13673,0.9435 0,7.7979 3.48976,0 q 1.89834,0 2.93276,-1.0117 1.04579,-1.0116 1.04579,-2.8986 0,-1.8529 -1.04579,-2.8759 -1.03442,-1.0117 -2.93276,-1.0117 l -3.48976,0 z m 21.08288,8.7642 0,7.2636 -1.03442,0 0,-3.4556 q -0.87528,2.5349 -2.31893,3.2283 -1.1481,0.557 -2.28483,0.557 -1.89834,0 -2.9896,-1.0117 -1.09126,-1.023 -1.09126,-3.0009 0,-1.978 1.42092,-3.1602 1.42091,-1.1935 4.64922,-1.1935 l 2.59174,0 0,-0.2046 q 0,-1.6938 -0.96622,-2.785 -0.95485,-1.0913 -3.16011,-1.0913 -1.09125,0 -2.22798,0.4092 -0.72751,0.2615 -1.88698,1.0572 l 0,-1.1254 q 1.01169,-0.6252 1.88698,-0.8866 1.27313,-0.3751 2.44396,-0.3751 2.25073,0 3.70574,1.3641 1.26177,1.1708 1.26177,4.4105 z m -3.89898,0.079 q -2.52354,0 -3.63754,0.8981 -1.11399,0.8979 -1.11399,2.6258 0,1.6824 0.92075,2.3871 0.92075,0.7048 2.18252,0.7048 2.38714,0 3.43293,-2.0234 1.05715,-2.0234 1.05715,-3.808 l 0,-0.7844 -2.84182,0 z m 10.40207,8.3663 q -0.68204,1.6938 -1.46638,2.3417 -1.05716,0.8753 -2.06885,0.8753 l -1.55732,0 0,-0.8866 1.32998,0 q 0.82981,0 1.45501,-0.5343 0.80708,-0.6934 1.32997,-2.0348 l 0.37512,-0.9435 -5.08118,-12.7313 1.114,0 4.52418,11.3446 4.53555,-11.3446 1.10263,0 -5.59271,13.9135 z m 15.55082,-11.1399 q 0.59111,-1.5346 1.86424,-2.3189 1.20494,-0.7616 2.86456,-0.7616 1.65963,0 2.65995,1.1708 1.01169,1.1595 1.01169,4.1832 l 0,7.6842 -1.03443,0 0,-7.616 q 0,-2.6372 -0.7275,-3.5694 -0.72751,-0.9321 -1.93244,-0.9321 -1.75057,0 -3.09191,1.0799 -1.46638,1.1708 -1.46638,3.8422 l 0,7.1954 -1.04579,0 0,-7.616 q 0,-2.5463 -0.70477,-3.5239 -0.70478,-0.9776 -1.95518,-0.9776 -1.75056,0 -3.0919,1.0913 -1.46638,1.1708 -1.46638,3.8308 l 0,7.1954 -1.04579,0 0,-12.7313 1.04579,0 0,2.3871 q 0.557,-1.2504 1.72783,-1.9779 1.18219,-0.7161 2.89866,-0.7161 1.11399,0 2.14841,0.7502 0.79572,0.5797 1.34134,2.3303 z m 20.07465,2.8418 q 0,-2.6826 -1.20493,-3.9103 -1.01169,-1.0913 -2.75089,-1.0913 -1.89834,0 -3.18284,1.1368 -1.1822,1.0571 -1.42091,3.8648 l 8.55957,0 z m 1.05716,0.2274 0,0.6593 -9.6622,0 q 0,3.0692 1.19356,4.2968 1.31861,1.3641 3.92172,1.3641 0.68204,0 1.8074,-0.2956 1.13673,-0.2955 2.25073,-0.8866 l 0,1.1026 q -1.12537,0.4774 -2.30757,0.7275 -1.18219,0.2501 -1.8756,0.2501 -2.94413,0 -4.43325,-1.5914 -1.61415,-1.6937 -1.61415,-4.9675 0,-3.3988 1.47775,-5.0698 1.51185,-1.7392 4.2059,-1.7392 2.5008,0 3.77394,1.6482 1.26177,1.7279 1.26177,4.5015 z m 10.79775,-0.7957 0,7.6842 -1.04579,0 0,-7.616 q 0,-2.4781 -0.79571,-3.4898 -0.79571,-1.0117 -2.34166,-1.0117 -1.8074,0 -3.09191,1.0913 -1.29587,1.1026 -1.29587,3.8308 l 0,7.1954 -1.04579,0 0,-12.7313 1.04579,0 0,2.3871 q 0.557,-1.1594 1.46638,-1.7733 1.34134,-0.9207 2.96687,-0.9207 1.88697,0 3.01233,1.2845 1.12536,1.2731 1.12536,4.0695 z m 3.19585,-8.6619 0,3.6148 4.3082,0 0,0.8866 -4.3082,0 0,7.6502 q 0,1.4551 0.37511,2.0348 0.77298,1.2731 2.25073,1.2731 l 1.68236,0 0,0.8866 -1.62552,0 q -1.55732,0 -2.64858,-0.9093 -1.09126,-0.9094 -1.09126,-3.2852 l 0,-7.6502 -1.52322,0 0,-0.8866 1.52322,0 0,-3.6148 1.05716,0 z"
       inkscape:connector-curvature="0" />
    <g
       id="g6618"
       style="fill:#cccccc">
      <path
         inkscape:connector-curvature="0"
         id="path6587"
         d="m -595.62152,-7865.0115 10.71067,-4.5823 c 0,0 -0.82815,12.4773 -0.93857,12.2565 -0.11042,-0.2209 -9.7721,-7.6742 -9.7721,-7.6742 z"
         style="fill:#cccccc;fill-opacity:1;fill-rule:evenodd;stroke:none;stroke-width:1px;stroke-linecap:butt;stroke-linejoin:miter;stroke-opacity:1" />
      <path
         inkscape:connector-curvature="0"
         d="m -546.02529,-7875.3834 0,1.0264 q -0.91031,-0.83 -1.93664,-1.2316 -1.03526,-0.4106 -2.19549,-0.4106 -2.51674,0 -3.84651,1.5885 -1.3387,1.5886 -1.3387,4.5962 0,3.0077 1.3387,4.6051 1.32977,1.5975 3.84651,1.5975 1.16023,0 2.19549,-0.4105 1.02633,-0.4194 1.93664,-1.2494 l 0,1.0799 q -0.946,0.6426 -2.00805,0.9639 -1.0531,0.3212 -2.23118,0.3212 -2.80233,0 -4.40878,-1.8474 -1.60642,-1.8562 -1.60642,-5.0603 0,-3.2128 1.60642,-5.0603 1.60645,-1.8562 4.40878,-1.8562 1.19592,0 2.24902,0.3391 1.06204,0.3302 1.99021,1.0085 z m 8.79337,6.631 q 0,-2.1062 -0.94601,-3.0701 -0.79431,-0.8567 -2.15977,-0.8567 -1.49043,0 -2.49892,0.8924 -0.92816,0.8299 -1.11556,3.0344 l 6.72026,0 z m 0.82998,0.1785 0,0.5177 -7.58595,0 q 0,2.4096 0.93707,3.3735 1.03528,1.0708 3.07901,1.0708 0.53549,0 1.41903,-0.232 0.89247,-0.232 1.76709,-0.6962 l 0,0.8659 q -0.88355,0.3747 -1.81171,0.5711 -0.92816,0.1963 -1.47256,0.1963 -2.31151,0 -3.48062,-1.2494 -1.26731,-1.3298 -1.26731,-3.9 0,-2.6686 1.16019,-3.9805 1.18699,-1.3654 3.30213,-1.3654 1.96343,0 2.96299,1.2941 0.99063,1.3564 0.99063,3.5341 z m 8.47752,-0.6247 0,6.0329 -0.82107,0 0,-5.9795 q 0,-1.9454 -0.62471,-2.7399 -0.62474,-0.7941 -1.83849,-0.7941 -1.41902,0 -2.42752,0.8567 -1.01741,0.8656 -1.01741,3.0075 l 0,5.6493 -0.82107,0 0,-9.9955 0.82107,0 0,1.8742 q 0.4373,-0.9104 1.15128,-1.3922 1.05312,-0.7229 2.32934,-0.7229 1.4815,0 2.36504,1.0084 0.88354,0.9996 0.88354,3.1951 z m 2.5091,-6.8006 0,2.838 3.38245,0 0,0.6962 -3.38245,0 0,6.0062 q 0,1.1423 0.29452,1.5975 0.6069,0.9996 1.76708,0.9996 l 1.32085,0 0,0.696 -1.27621,0 q -1.22268,0 -2.07945,-0.7138 -0.85677,-0.714 -0.85677,-2.5793 l 0,-6.0062 -1.19591,0 0,-0.6962 1.19591,0 0,-2.838 0.82998,0 z m 10.75638,7.2468 q 0,-2.1062 -0.94602,-3.0701 -0.7943,-0.8567 -2.15978,-0.8567 -1.49041,0 -2.4989,0.8924 -0.92815,0.8299 -1.11559,3.0344 l 6.72029,0 z m 0.82998,0.1785 0,0.5177 -7.58597,0 q 0,2.4096 0.9371,3.3735 1.03526,1.0708 3.079,1.0708 0.53547,0 1.41902,-0.232 0.89247,-0.232 1.76709,-0.6962 l 0,0.8659 q -0.88356,0.3747 -1.8117,0.5711 -0.92817,0.1963 -1.47257,0.1963 -2.31149,0 -3.48062,-1.2494 -1.2673,-1.3298 -1.2673,-3.9 0,-2.6686 1.16021,-3.9805 1.18697,-1.3654 3.30212,-1.3654 1.96343,0 2.96298,1.2941 0.99064,1.3564 0.99064,3.5341 z m 6.35345,-3.8822 q -0.19635,-0.097 -0.53548,-0.1696 -0.30345,-0.054 -0.76754,-0.054 -1.51719,0 -2.51674,1.1245 -0.78539,0.9104 -0.78539,3.1236 l 0,5.2655 -0.8032,0 0,-9.9956 0.8032,0 0,1.8741 q 0.40162,-0.8033 1.12451,-1.3565 0.99958,-0.7586 2.35611,-0.7586 0.34806,0 0.60687,0.028 0.26776,0 0.51765,0.062 l 0,0.8569 z"
         style="font-variant:normal;font-weight:100;font-stretch:normal;font-size:medium;font-family:'Roboto Thin';-inkscape-font-specification:Roboto-Thin;writing-mode:lr-tb;fill:#cccccc;fill-opacity:1;fill-rule:nonzero;stroke:none"
         id="path6544-1" />
    </g>
  </g>
</svg>
