<?xml version="1.0" encoding="UTF-8"?>
<svg width="264.58mm" height="87.096mm" version="1.1" viewBox="0 0 937.5 308.60772" xmlns="http://www.w3.org/2000/svg" xmlns:cc="http://creativecommons.org/ns#" xmlns:dc="http://purl.org/dc/elements/1.1/" xmlns:rdf="http://www.w3.org/1999/02/22-rdf-syntax-ns#">
<defs>
<clipPath id="c">
<path d="m0 0h595.28v841.89h-595.28z"/>
</clipPath>
<clipPath id="d">
<path d="m0 0h595.28v841.89h-595.28z"/>
</clipPath>
<clipPath id="e">
<path d="m0 0h595.28v841.89h-595.28z"/>
</clipPath>
<clipPath id="f">
<path d="m0 0h595.28v841.89h-595.28z"/>
</clipPath>
<clipPath id="g">
<path d="m0 0h595.28v841.89h-595.28z"/>
</clipPath>
<clipPath id="a">
<path d="m0 0h595.28v841.89h-595.28z"/>
</clipPath>
<clipPath id="b">
<path d="m0 0h595.28v841.89h-595.28z"/>
</clipPath>
</defs>
<metadata>
<rdf:RDF>
<cc:Work rdf:about="">
<dc:format>image/svg+xml</dc:format>
<dc:type rdf:resource="http://purl.org/dc/dcmitype/StillImage"/>
<dc:title/>
</cc:Work>
</rdf:RDF>
</metadata>
<g transform="translate(617.31 258.36)">
<g transform="matrix(9.2968 0 0 -9.2968 -616.98 35.361)">
<path d="m0 0v5.038h1.191l1.583-4.188 1.555 4.188h1.191v-5.038h-0.722v4.362h-0.014l-1.669-4.362h-0.71l-1.669 4.362h-0.014v-4.362z" fill="#00529c"/>
</g>
<g transform="matrix(9.2968 0 0 -9.2968 -1297.9 2259.3)">
<g clip-path="url(#b)">
<g transform="translate(82.834 240.05)">
<path d="m0 0v-0.679c-0.069-0.026-0.143-0.053-0.221-0.081-0.079-0.029-0.162-0.054-0.25-0.077-0.088-0.024-0.19-0.043-0.303-0.058-0.113-0.016-0.243-0.022-0.389-0.022-0.423 0-0.778 0.081-1.065 0.244-0.286 0.162-0.498 0.391-0.637 0.689-0.138 0.296-0.207 0.649-0.207 1.056 0 0.273 0.041 0.522 0.124 0.751 0.081 0.228 0.199 0.424 0.351 0.59 0.153 0.167 0.335 0.296 0.549 0.386 0.212 0.09 0.447 0.134 0.703 0.134 0.392 0 0.709-0.088 0.95-0.263 0.242-0.175 0.415-0.417 0.52-0.726 0.104-0.309 0.157-0.671 0.157-1.087h-2.632c0-0.233 0.055-0.444 0.167-0.632s0.261-0.334 0.447-0.438c0.187-0.104 0.387-0.155 0.601-0.155 0.203 0 0.418 0.041 0.646 0.123 0.229 0.082 0.392 0.164 0.489 0.245m-2.35 1.362h1.911c0 0.188-0.038 0.36-0.111 0.516-0.073 0.158-0.178 0.28-0.317 0.37-0.138 0.091-0.303 0.135-0.491 0.135-0.21 0-0.386-0.049-0.528-0.148-0.143-0.1-0.251-0.227-0.324-0.379-0.074-0.155-0.12-0.32-0.14-0.494" fill="#00529c"/>
</g>
</g>
</g>
<path d="m-515.77-14.986h6.2939v50.351h-6.2939z" fill="#00529c"/>
<g transform="matrix(9.2968 0 0 -9.2968 -1297.9 2259.3)">
<g clip-path="url(#a)">
<g transform="translate(86.281 242.06)">
<path d="m0 0-0.035 0.579c0.389 0.231 0.793 0.346 1.213 0.346 0.517 0 0.894-0.125 1.129-0.377 0.235-0.25 0.353-0.632 0.353-1.146v-1.523c0-0.338 9e-3 -0.579 0.028-0.722h-0.633v0.481h-0.014c-0.106-0.148-0.254-0.278-0.442-0.393-0.189-0.115-0.423-0.171-0.701-0.171-0.416 0-0.745 0.095-0.987 0.284-0.243 0.19-0.365 0.477-0.365 0.86 0 0.22 0.053 0.408 0.159 0.565 0.107 0.157 0.247 0.283 0.42 0.378 0.174 0.094 0.359 0.162 0.553 0.205 0.196 0.041 0.389 0.062 0.582 0.062 0.303 0 0.543-5e-3 0.723-0.014 0 0.329-0.069 0.57-0.207 0.727s-0.372 0.234-0.704 0.234c-0.193 0-0.386-0.033-0.579-0.101-0.194-0.067-0.357-0.158-0.493-0.274m1.983-1.413v0.323c-0.049 0-0.12 2e-3 -0.218 8e-3 -0.097 4e-3 -0.168 6e-3 -0.217 6e-3 -0.31 0-0.6-0.046-0.872-0.141s-0.407-0.283-0.407-0.563c0-0.18 0.071-0.324 0.215-0.433 0.142-0.109 0.301-0.163 0.471-0.163 0.218 0 0.404 0.041 0.56 0.125 0.155 0.083 0.272 0.198 0.35 0.344s0.118 0.311 0.118 0.494" fill="#00529c"/>
</g>
<g transform="translate(89.793 237.67)">
<path d="m0 0 0.043 0.555c0.114-0.039 0.22-0.058 0.319-0.058 0.181 0 0.331 0.063 0.453 0.19 0.119 0.129 0.209 0.267 0.267 0.419s0.087 0.253 0.087 0.301c0 0.024-6e-3 0.056-0.018 0.094-0.013 0.037-0.03 0.084-0.052 0.142-0.023 0.057-0.041 0.109-0.058 0.154l-1.251 3.437h0.745l0.988-3.054h0.015l1.011 3.054h0.686l-1.357-3.762c-0.124-0.344-0.233-0.612-0.328-0.805-0.094-0.193-0.229-0.362-0.407-0.504-0.177-0.143-0.405-0.215-0.681-0.215-0.126 0-0.28 0.017-0.462 0.052" fill="#00529c"/>
</g>
<g transform="translate(93.948 242.06)">
<path d="m0 0-0.035 0.579c0.388 0.231 0.793 0.346 1.213 0.346 0.518 0 0.893-0.125 1.128-0.377 0.235-0.25 0.354-0.632 0.354-1.146v-1.523c0-0.338 9e-3 -0.579 0.028-0.722h-0.634v0.481h-0.013c-0.106-0.148-0.254-0.278-0.442-0.393-0.189-0.115-0.423-0.171-0.701-0.171-0.416 0-0.745 0.095-0.988 0.284-0.243 0.19-0.363 0.477-0.363 0.86 0 0.22 0.052 0.408 0.158 0.565 0.107 0.157 0.247 0.283 0.421 0.378 0.173 0.094 0.358 0.162 0.553 0.205 0.195 0.041 0.389 0.062 0.581 0.062 0.302 0 0.544-5e-3 0.723-0.014 0 0.329-0.069 0.57-0.207 0.727-0.137 0.157-0.372 0.234-0.704 0.234-0.194 0-0.386-0.033-0.58-0.101-0.193-0.067-0.356-0.158-0.492-0.274m1.983-1.413v0.323c-0.049 0-0.121 2e-3 -0.218 8e-3 -0.096 4e-3 -0.168 6e-3 -0.216 6e-3 -0.311 0-0.601-0.046-0.873-0.141s-0.407-0.283-0.407-0.563c0-0.18 0.07-0.324 0.215-0.433 0.143-0.109 0.3-0.163 0.471-0.163 0.218 0 0.404 0.041 0.56 0.125 0.154 0.083 0.272 0.198 0.351 0.344 0.078 0.146 0.117 0.311 0.117 0.494" fill="#00529c"/>
</g>
<g transform="translate(97.778 239.22)">
<path d="m0 0v3.685h0.655v-0.589h0.014c0.099 0.206 0.259 0.369 0.482 0.491 0.222 0.121 0.464 0.181 0.725 0.181 0.465 0 0.812-0.136 1.039-0.409s0.341-0.664 0.341-1.171v-2.188h-0.677v1.905c0 0.444-0.058 0.768-0.174 0.976s-0.319 0.32-0.609 0.338c-0.373 0-0.653-0.135-0.84-0.406-0.186-0.271-0.279-0.642-0.279-1.109v-1.704z" fill="#00529c"/>
</g>
</g>
</g>
<path d="m-340.21-6.5262h-7.0563v-7.0563h7.0563zm-6.6472 7.6234h6.2474v34.259h-6.2474z" fill="#00529c"/>
<g transform="matrix(9.2968 0 0 -9.2968 -1297.9 2259.3)">
<g clip-path="url(#g)">
<g transform="translate(106.29 239.22)">
<path d="m0 0v5.038h1.485c0.373 0 0.723-0.054 1.049-0.167 0.325-0.112 0.611-0.275 0.856-0.49s0.436-0.477 0.572-0.784 0.204-0.652 0.204-1.033c0-0.419-0.061-0.788-0.184-1.109-0.121-0.319-0.298-0.587-0.53-0.804-0.233-0.216-0.514-0.38-0.845-0.487-0.33-0.109-0.704-0.164-1.122-0.164zm0.722 4.407v-3.776h0.757c1.286 0 1.928 0.636 1.928 1.904 0 0.382-0.081 0.715-0.24 0.998-0.16 0.283-0.38 0.499-0.66 0.65-0.279 0.15-0.593 0.224-0.941 0.224z" fill="#00529c"/>
</g>
<g transform="translate(114.33 240.05)">
<path d="m0 0v-0.679c-0.07-0.026-0.143-0.053-0.222-0.081-0.078-0.029-0.161-0.054-0.249-0.077-0.089-0.024-0.189-0.043-0.302-0.058-0.114-0.016-0.244-0.022-0.39-0.022-0.423 0-0.779 0.081-1.065 0.244-0.286 0.162-0.499 0.391-0.637 0.689-0.138 0.296-0.208 0.649-0.208 1.056 0 0.273 0.042 0.522 0.124 0.751 0.082 0.228 0.2 0.424 0.352 0.59 0.153 0.167 0.335 0.296 0.548 0.386 0.214 0.09 0.447 0.134 0.704 0.134 0.392 0 0.708-0.088 0.95-0.263 0.241-0.175 0.415-0.417 0.519-0.726 0.105-0.309 0.158-0.671 0.158-1.087h-2.632c0-0.233 0.055-0.444 0.167-0.632s0.261-0.334 0.447-0.438 0.386-0.155 0.6-0.155c0.203 0 0.418 0.041 0.646 0.123 0.229 0.082 0.392 0.164 0.49 0.245m-2.35 1.362h1.911c0 0.188-0.037 0.36-0.111 0.516-0.073 0.158-0.18 0.28-0.316 0.37-0.139 0.091-0.303 0.135-0.493 0.135-0.209 0-0.384-0.049-0.528-0.148-0.143-0.1-0.251-0.227-0.324-0.379-0.072-0.155-0.119-0.32-0.139-0.494" fill="#00529c"/>
</g>
<g transform="translate(115.54 239.22)">
<path d="m0 0v3.685h0.656v-0.589h0.013c0.099 0.206 0.26 0.369 0.482 0.491 0.222 0.121 0.464 0.181 0.726 0.181 0.465 0 0.812-0.136 1.038-0.409 0.228-0.273 0.341-0.664 0.341-1.171v-2.188h-0.676v1.905c0 0.444-0.058 0.768-0.175 0.976-0.116 0.208-0.319 0.32-0.608 0.338-0.373 0-0.654-0.135-0.841-0.406-0.186-0.271-0.279-0.642-0.279-1.109v-1.704z" fill="#00529c"/>
</g>
<g transform="translate(123.22 242.9)">
<path d="m0 0v-3.525c0-0.284-0.037-0.534-0.111-0.751-0.074-0.215-0.189-0.399-0.344-0.55s-0.353-0.266-0.594-0.344c-0.24-0.078-0.524-0.117-0.851-0.117-0.207 0-0.406 0.017-0.6 0.053-0.192 0.035-0.434 0.102-0.723 0.199l0.072 0.629c0.275-0.124 0.505-0.209 0.691-0.258 0.186-0.05 0.4-0.074 0.641-0.074 0.355 0 0.634 0.112 0.838 0.336 0.203 0.225 0.304 0.534 0.304 0.928v0.361h-0.014c-0.14-0.186-0.321-0.327-0.543-0.425-0.222-0.099-0.453-0.147-0.694-0.147-0.337 0-0.624 0.083-0.863 0.247-0.238 0.166-0.416 0.386-0.535 0.663s-0.178 0.578-0.178 0.902c0 0.33 0.062 0.644 0.186 0.943s0.311 0.543 0.56 0.73c0.25 0.189 0.55 0.283 0.902 0.283 0.596 0 1-0.212 1.214-0.635h0.017v0.552zm-1.754-3.135c0.207 0 0.393 0.055 0.555 0.166 0.165 0.113 0.292 0.263 0.385 0.455 0.091 0.191 0.137 0.4 0.137 0.626 0 0.261-0.04 0.499-0.12 0.716-0.081 0.216-0.203 0.388-0.366 0.515-0.162 0.128-0.359 0.19-0.591 0.19-0.321 0-0.571-0.14-0.754-0.421s-0.275-0.598-0.275-0.948c0-0.234 0.043-0.45 0.126-0.647 0.084-0.199 0.203-0.356 0.36-0.474 0.157-0.12 0.338-0.178 0.543-0.178" fill="#00529c"/>
</g>
<g transform="translate(124.61 242.06)">
<path d="m0 0-0.035 0.579c0.388 0.231 0.792 0.346 1.213 0.346 0.517 0 0.893-0.125 1.128-0.377 0.235-0.25 0.354-0.632 0.354-1.146v-1.523c0-0.338 9e-3 -0.579 0.028-0.722h-0.634v0.481h-0.014c-0.105-0.148-0.253-0.278-0.441-0.393-0.19-0.115-0.423-0.171-0.702-0.171-0.416 0-0.744 0.095-0.986 0.284-0.243 0.19-0.365 0.477-0.365 0.86 0 0.22 0.053 0.408 0.159 0.565 0.107 0.157 0.247 0.283 0.421 0.378 0.173 0.094 0.357 0.162 0.552 0.205 0.196 0.041 0.389 0.062 0.581 0.062 0.304 0 0.545-5e-3 0.724-0.014 0 0.329-0.07 0.57-0.207 0.727-0.138 0.157-0.373 0.234-0.705 0.234-0.193 0-0.386-0.033-0.578-0.101-0.194-0.067-0.358-0.158-0.493-0.274m1.983-1.413v0.323c-0.049 0-0.121 2e-3 -0.218 8e-3 -0.097 4e-3 -0.169 6e-3 -0.217 6e-3 -0.309 0-0.6-0.046-0.872-0.141s-0.408-0.283-0.408-0.563c0-0.18 0.071-0.324 0.215-0.433 0.143-0.109 0.301-0.163 0.471-0.163 0.218 0 0.405 0.041 0.56 0.125 0.155 0.083 0.273 0.198 0.351 0.344s0.118 0.311 0.118 0.494" fill="#00529c"/>
</g>
<g transform="translate(128.43 239.22)">
<path d="m0 0v3.685h0.656v-0.589h0.015c0.098 0.206 0.259 0.369 0.481 0.491 0.222 0.121 0.465 0.181 0.726 0.181 0.465 0 0.812-0.136 1.039-0.409s0.34-0.664 0.34-1.171v-2.188h-0.677v1.905c0 0.444-0.058 0.768-0.174 0.976s-0.319 0.32-0.608 0.338c-0.373 0-0.654-0.135-0.84-0.406-0.187-0.271-0.28-0.642-0.28-1.109v-1.704z" fill="#00529c"/>
</g>
<g transform="translate(137.34 244.17)">
<path d="m0 0-0.099-0.664c-0.203 0.08-0.366 0.136-0.491 0.166-0.123 0.03-0.275 0.045-0.454 0.045-0.242 0-0.448-0.052-0.62-0.157-0.172-0.103-0.258-0.275-0.258-0.515 0-0.209 0.069-0.363 0.206-0.457 0.138-0.097 0.401-0.244 0.792-0.443s0.682-0.405 0.873-0.622c0.192-0.215 0.288-0.51 0.288-0.885 0-0.507-0.17-0.884-0.508-1.131-0.34-0.247-0.781-0.37-1.325-0.37-0.263 0-0.604 0.07-1.027 0.209l0.071 0.668c0.394-0.165 0.741-0.245 1.043-0.245 0.152 0 0.303 0.029 0.455 0.089 0.151 0.057 0.278 0.148 0.379 0.273 0.101 0.122 0.152 0.276 0.152 0.461 0 0.248-0.083 0.435-0.249 0.561-0.167 0.125-0.434 0.278-0.799 0.454-0.366 0.176-0.643 0.36-0.83 0.553-0.187 0.192-0.28 0.465-0.28 0.816 0 0.289 0.069 0.537 0.209 0.744 0.139 0.207 0.331 0.364 0.577 0.47 0.245 0.106 0.52 0.157 0.824 0.157 0.374 0 0.731-0.059 1.071-0.177" fill="#00529c"/>
</g>
<g transform="translate(141.35 240.05)">
<path d="m0 0v-0.679c-0.07-0.026-0.144-0.053-0.222-0.081-0.078-0.029-0.161-0.054-0.25-0.077-0.089-0.024-0.189-0.043-0.303-0.058-0.113-0.016-0.243-0.022-0.389-0.022-0.423 0-0.778 0.081-1.064 0.244-0.287 0.162-0.499 0.391-0.638 0.689-0.137 0.296-0.207 0.649-0.207 1.056 0 0.273 0.041 0.522 0.124 0.751 0.082 0.228 0.199 0.424 0.351 0.59 0.153 0.167 0.336 0.296 0.548 0.386 0.214 0.09 0.448 0.134 0.705 0.134 0.391 0 0.708-0.088 0.949-0.263 0.243-0.175 0.415-0.417 0.52-0.726s0.157-0.671 0.157-1.087h-2.632c0-0.233 0.055-0.444 0.168-0.632 0.112-0.188 0.26-0.334 0.447-0.438 0.186-0.104 0.385-0.155 0.6-0.155 0.202 0 0.418 0.041 0.646 0.123 0.229 0.082 0.391 0.164 0.49 0.245m-2.351 1.362h1.911c0 0.188-0.038 0.36-0.11 0.516-0.073 0.158-0.179 0.28-0.317 0.37-0.139 0.091-0.303 0.135-0.492 0.135-0.209 0-0.385-0.049-0.529-0.148-0.142-0.1-0.25-0.227-0.324-0.379-0.072-0.155-0.119-0.32-0.139-0.494" fill="#00529c"/>
</g>
<g transform="translate(144.52 242.9)">
<path d="m0 0v-0.549h-0.974v-2.012c0-0.205 0.055-0.366 0.163-0.483 0.108-0.116 0.244-0.174 0.407-0.174 0.173 0 0.328 0.043 0.461 0.13v-0.58c-0.239-0.066-0.432-0.099-0.576-0.099-0.36 0-0.639 0.088-0.835 0.266-0.198 0.176-0.297 0.444-0.297 0.801v2.151h-0.83v0.549h0.83v0.852l0.677 0.217v-1.069z" fill="#00529c"/>
</g>
<g transform="translate(148.65 242.9)">
<path d="m0 0v-3.685h-0.656v0.59h-0.014c-0.067-0.139-0.162-0.259-0.287-0.36-0.123-0.101-0.265-0.179-0.424-0.232-0.161-0.053-0.325-0.08-0.495-0.08-0.312 0-0.571 0.062-0.776 0.187-0.205 0.124-0.357 0.304-0.456 0.541-0.099 0.235-0.149 0.519-0.149 0.852v2.187h0.677v-1.904c0-0.294 0.025-0.534 0.073-0.722 0.05-0.188 0.131-0.331 0.245-0.429 0.113-0.097 0.268-0.152 0.463-0.163 0.376 0 0.655 0.136 0.842 0.406 0.186 0.271 0.281 0.641 0.281 1.109v1.703z" fill="#00529c"/>
</g>
</g>
</g>
<path d="m95.755-14.986h6.2939v50.351h-6.2939z" fill="#00529c"/>
<g transform="matrix(9.2968 0 0 -9.2968 -1297.9 2259.3)">
<g clip-path="url(#f)">
<g transform="translate(155.11 242.9)">
<path d="m0 0v-3.685h-0.656v0.59h-0.014c-0.067-0.139-0.163-0.259-0.286-0.36-0.125-0.101-0.266-0.179-0.426-0.232-0.159-0.053-0.324-0.08-0.495-0.08-0.311 0-0.57 0.062-0.774 0.187-0.207 0.124-0.358 0.304-0.457 0.541-0.099 0.235-0.148 0.519-0.148 0.852v2.187h0.677v-1.904c0-0.294 0.023-0.534 0.073-0.722 0.048-0.188 0.13-0.331 0.243-0.429 0.114-0.097 0.269-0.152 0.464-0.163 0.374 0 0.655 0.136 0.843 0.406 0.186 0.271 0.279 0.641 0.279 1.109v1.703z" fill="#00529c"/>
</g>
<g transform="translate(155.98 239.34)">
<path d="m0 0 0.037 0.607c0.125-0.08 0.269-0.143 0.432-0.19 0.163-0.048 0.301-0.071 0.413-0.071 0.182 0 0.342 0.042 0.483 0.128 0.139 0.085 0.209 0.217 0.209 0.398 0 0.147-0.059 0.261-0.176 0.344-0.117 0.081-0.312 0.191-0.589 0.328-0.276 0.138-0.483 0.276-0.622 0.417-0.138 0.139-0.208 0.325-0.208 0.555 0 0.244 0.056 0.453 0.17 0.623 0.113 0.169 0.267 0.297 0.463 0.382 0.196 0.084 0.418 0.126 0.665 0.126 0.239 0 0.521-0.047 0.846-0.145l-0.058-0.591c-0.07 0.043-0.183 0.085-0.341 0.126-0.159 0.042-0.284 0.061-0.374 0.061-0.186 0-0.34-0.038-0.464-0.115-0.123-0.077-0.184-0.188-0.184-0.331 0-0.164 0.056-0.284 0.169-0.363 0.114-0.08 0.309-0.186 0.587-0.314 0.277-0.13 0.487-0.268 0.628-0.415 0.14-0.146 0.21-0.354 0.21-0.617 0-0.251-0.06-0.464-0.179-0.634-0.119-0.173-0.277-0.301-0.474-0.386-0.196-0.084-0.407-0.126-0.631-0.126-0.424 0-0.76 0.067-1.012 0.203" fill="#00529c"/>
</g>
</g>
</g>
<g transform="matrix(9.2968 0 0 -9.2968 201.14 35.361)">
<path d="m0 0v5.038h0.722v-2.106h2.414v2.106h0.722v-5.038h-0.722v2.302h-2.414v-2.302z" fill="#00529c"/>
</g>
<g transform="matrix(9.2968 0 0 -9.2968 -1297.9 2259.3)">
<g clip-path="url(#e)">
<g transform="translate(166.59 242.06)">
<path d="m0 0-0.036 0.579c0.389 0.231 0.792 0.346 1.213 0.346 0.518 0 0.895-0.125 1.128-0.377 0.236-0.25 0.354-0.632 0.354-1.146v-1.523c0-0.338 9e-3 -0.579 0.028-0.722h-0.633v0.481h-0.014c-0.106-0.148-0.253-0.278-0.442-0.393s-0.422-0.171-0.701-0.171c-0.416 0-0.745 0.095-0.988 0.284-0.242 0.19-0.364 0.477-0.364 0.86 0 0.22 0.053 0.408 0.159 0.565 0.108 0.157 0.248 0.283 0.421 0.378 0.173 0.094 0.358 0.162 0.552 0.205 0.197 0.041 0.39 0.062 0.582 0.062 0.303 0 0.544-5e-3 0.724-0.014 0 0.329-0.07 0.57-0.208 0.727-0.137 0.157-0.372 0.234-0.704 0.234-0.193 0-0.386-0.033-0.579-0.101-0.193-0.067-0.356-0.158-0.492-0.274m1.983-1.413v0.323c-0.049 0-0.121 2e-3 -0.218 8e-3 -0.097 4e-3 -0.169 6e-3 -0.218 6e-3 -0.309 0-0.6-0.046-0.872-0.141s-0.408-0.283-0.408-0.563c0-0.18 0.072-0.324 0.216-0.433 0.143-0.109 0.301-0.163 0.471-0.163 0.217 0 0.405 0.041 0.56 0.125 0.155 0.083 0.272 0.198 0.351 0.344 0.078 0.146 0.118 0.311 0.118 0.494" fill="#00529c"/>
</g>
<g transform="translate(172.37 242.9)">
<path d="m0 0v-0.549h-0.975v-2.012c0-0.205 0.055-0.366 0.163-0.483 0.108-0.116 0.244-0.174 0.407-0.174 0.174 0 0.327 0.043 0.461 0.13v-0.58c-0.239-0.066-0.431-0.099-0.576-0.099-0.359 0-0.638 0.088-0.835 0.266-0.198 0.176-0.296 0.444-0.296 0.801v2.151h-0.831v0.549h0.831v0.852l0.676 0.217v-1.069z" fill="#00529c"/>
</g>
</g>
</g>
<path d="m320.19-6.5262h-7.0563v-7.0563h7.0563zm-6.6472 7.6234h6.2474v34.259h-6.2474z" fill="#00529c"/>
<g transform="matrix(9.2968 0 0 -9.2968 -1297.9 2259.3)">
<g clip-path="url(#d)">
<g transform="translate(100.48 264.86)">
<path d="m0 0h5.432c2.2 0 3.84-0.964 3.84-2.995 0-1.489-0.761-2.318-2.081-2.758v-0.034c1.574-0.322 2.386-1.168 2.386-2.606 0-2.826-2.488-3.418-4.603-3.418h-4.974zm3.147-4.671h0.88c1.032 0 2.099 0.254 2.099 1.253 0 1.082-1.016 1.184-2.066 1.184h-0.913zm0-4.907h0.931c1.151 0 2.352 0.17 2.352 1.371 0 1.286-1.235 1.404-2.319 1.404h-0.964z" fill="#00529c"/>
</g>
</g>
</g>
<g transform="matrix(9.2968 0 0 -9.2968 -236.31 -202.98)">
<path d="m0 0h3.858l4.552-11.811h-3.452l-0.88 2.521h-4.433l-0.931-2.521h-3.198zm1.929-2.437h-0.034l-1.523-4.62h2.962z" fill="#00529c"/>
</g>
<g transform="matrix(9.2968 0 0 -9.2968 -154.05 -202.98)">
<path d="m0 0h4.01l3.994-8.021h0.033l-0.05 8.021h2.877v-11.811h-3.91l-4.128 8.072h-0.033l0.1-8.072h-2.893z" fill="#00529c"/>
</g>
<g transform="matrix(9.2968 0 0 -9.2968 -43.126 -202.98)">
<path d="m0 0h3.147v-4.823h0.034l3.553 4.823h3.79l-4.365-5.499 4.704-6.312h-4.011l-3.671 5.364h-0.034v-5.364h-3.147z" fill="#00529c"/>
</g>
<g transform="matrix(9.2968 0 0 -9.2968 -1297.9 2259.3)">
<g clip-path="url(#c)">
<g transform="translate(149.73 264.86)">
<path d="m0 0h5.432c2.199 0 3.841-0.964 3.841-2.995 0-1.489-0.761-2.318-2.081-2.758v-0.034c1.574-0.322 2.385-1.168 2.385-2.606 0-2.826-2.487-3.418-4.602-3.418h-4.975zm3.147-4.671h0.88c1.033 0 2.098 0.254 2.098 1.253 0 1.082-1.014 1.184-2.064 1.184h-0.914zm0-4.907h0.931c1.15 0 2.352 0.17 2.352 1.371 0 1.286-1.235 1.404-2.318 1.404h-0.965z" fill="#00529c"/>
</g>
<g transform="translate(160.01 264.86)">
<path d="m0 0h5.618c2.098 0 3.807-0.948 3.807-2.979 0-1.573-0.744-2.622-2.267-2.977v-0.034c1.014-0.271 1.082-1.168 1.675-2.606l1.15-3.215h-3.282l-0.677 2.131c-0.643 2.031-1.05 2.54-2.217 2.54h-0.66v-4.671h-3.147zm3.147-4.907h0.829c1.016 0 2.302 0.034 2.302 1.371 0 1.099-1.1 1.302-2.302 1.302h-0.829z" fill="#00529c"/>
</g>
</g>
</g>
<path d="m290.55-202.99h29.257v109.8h-29.257z" fill="#00529c"/>
<g transform="matrix(9.2968 0 0 -9.2968 -430.52 -258.36)">
<path d="m0 0h-16.471c-2 0-3.621-1.661-3.621-3.71v-16.312c0-2.029 1.591-3.679 3.565-3.709h16.518c2 0 3.622 1.66 3.622 3.709l7e-3 16.312c0 2.049-1.62 3.71-3.62 3.71m-14.514-21.83-0.898-0.01c-1.088 0-1.97 0.894-1.97 1.997l-5e-3 0.157v15.064l6e-3 0.812c0.041 1.067 0.852 1.925 1.913 1.925h1.827c1.656 0 2.998-1.44 2.998-3.137 0-0.84-0.329-1.602-0.862-2.156l-4.661-4.73 4.369-4.449c0.563-0.581 0.903-1.343 0.903-2.178 0-1.82-1.62-3.295-3.62-3.295m13.431 0.015-8.145 3e-3s0.941 2.035 0.941 3.295c0 1.537-0.513 2.909-1.317 3.817l-2.786 2.84 2.843 2.938c0.847 0.795 1.409 2.207 1.409 3.816 0 1.274-0.352 2.402-0.919 3.221h1.973c1.656 0 2.999-1.44 2.999-3.137 0-0.84-0.329-1.602-0.862-2.156l-4.572-4.681 9.496-9.683c-0.301-0.189-0.68-0.273-1.06-0.273m1.989 3.023-6.805 6.936 3.241 3.294c0.659 0.825 1.078 2.067 1.078 3.456 0 1.282-0.357 2.439-0.929 3.258l1.45-0.044c1.088 0 1.97-0.894 1.97-1.997z" fill="#00529c"/>
</g>
</g>
</svg>
