<svg xmlns="http://www.w3.org/2000/svg" fill="#009e56" fill-rule="evenodd" height="63.234" width="400" xmlns:v="https://vecta.io/nano"><path d="M94.13 3.047c0-.77-.63-1.05-1.54-1.33-2.03-.7-6.124-1.47-11.128-1.47C66.206.248 55.743 6.37 52 27.192l-1.54 8.748c-.42 2.45-.63 4.76-.63 6.93 0 13.472 8.993 20.016 21.066 20.016 5.074 0 9.203-.7 11.478-1.4 1.4-.35 1.855-.7 2.03-1.75l1.855-10.148v-.35c0-.84-.42-1.155-1.225-1.155h-.245c-3.324.35-6.79.77-11.373.77-3.57 0-6.72-1.295-6.72-7.698 0-1.47.175-3.15.5-5.25l1.54-8.748C70.65 15.89 74.78 14.28 79.153 14.28c4.55 0 7.978.42 11.198.77h.245c.98 0 1.54-.595 1.75-1.54L94.2 3.502v-.455zm32.088 15.397c0 6.51-3.5 8.993-9.868 8.993h-3.044c-.98 0-1.925 0-2.8-.07l2.275-13.122 6.3-.175c5.074 0 7.173 1.33 7.173 4.374zm16.866-2.45C143.12 4.657 133.182.003 120.234.003c-7.173 0-13.647.56-16.936 1.05-3.57.56-4.9 1.47-5.6 5.39l-9.238 54.1c0 .84.56 1.4 1.4 1.4h13.087c.875 0 1.75-.7 1.925-1.645l3.5-20.296c1.75.175 3.5.175 5.25.175l6.79 20.12c.245.805.35 1.645 1.295 1.645h14.347a1.54 1.54 0 0 0 1.645-1.575c0-.175 0-.42-.07-.56L129.647 37.4c9.203-3.604 13.472-11.897 13.472-21.415zm75.69 5.704c0 1.4-.175 3.22-.5 5.25l-1.54 9.273c-1.68 10.218-5.39 12.877-11.897 12.877-1.05 0-4.024 0-4.55-.07l5.88-34.818 4.55-.07c5.18 0 8.048 1.505 8.048 7.593zm16.866-1.2c0-13.437-8.678-20.436-22.395-20.436-7.698 0-14.452.7-18.72 1.4-1.75.35-2.73.945-3.15 3.15L182.1 58.615c-.07.42-.07.7-.07.98 0 1.4.7 1.96 2.1 2.205 4.024.7 10.568 1.4 18.196 1.4 17.6 0 27.854-7.873 31.143-26.944l1.575-9.273c.35-2.275.525-4.374.525-6.404zm70.545-18.16c0-.7-.63-1.26-1.47-1.26H264.02c-.9 0-1.75.63-1.855 1.47L260.3 12.53v.245c0 .77.56 1.26 1.4 1.26h12.247l-7.908 46.295v.35c0 .7.5 1.33 1.295 1.33H280.5c.9 0 1.75-.77 1.925-1.68L290.333 14h12.037c.875 0 1.75-.63 1.925-1.47l1.9-9.938zm29.884 19.526c0 1.54-.245 3.254-.56 5.32L334.004 36c-1.575 9.098-4.55 12.842-10.078 12.842-4.27 0-6.51-2.24-6.51-7.523 0-1.54.245-3.254.56-5.32l1.505-8.818c1.6-9.168 4.55-12.947 10.078-12.947 4.304 0 6.51 2.3 6.51 7.593zm16.866-1.855c0-13.997-9.623-19.77-20.856-19.77-13.717 0-25.545 6.054-29.394 26.944L301.146 36a41.746 41.746 0 0 0-.63 6.929c0 13.752 9.448 19.946 20.856 19.946 14.697 0 25.685-6.754 29.394-26.874l1.54-8.818c.5-2.554.63-4.97.63-7.173zm46.9-16.69c0-.7-.56-1.05-1.2-1.295-3.15-.945-11.548-1.995-17.916-1.995-12.842 0-24.215 4.34-24.215 19.036 0 5.25 2.275 10.743 6.93 13.997l10.393 7.208c2.344 1.6 3.15 2.52 3.15 3.85 0 3.85-2.66 5.004-5.88 5.004-4.27 0-12.842-.945-16.097-1.26h-.175a1.89 1.89 0 0 0-1.855 1.68l-1.645 9.938v.245c0 .7.7 1.12 1.4 1.4 4.13 1.225 9.273 2.1 15.887 2.1 13.717 0 26.384-6.124 26.384-21.6 0-5.95-2.275-10.603-8.048-14.137l-9.868-6.09c-2.73-1.68-3.5-2.45-3.5-3.64 0-2.8 2.345-3.57 4.55-3.57 5.81-.77 14.942-.035 18.196.2h.175c.875 0 1.54-.595 1.68-1.4L400 3.572zM187.84 2.277c0-.805-.35-1.2-1.295-1.295a114.671 114.671 0 0 0-15.747-.98c-11.373 0-21.066 1.75-23.9 18.546l-4.444 26.35c-.245 1.505-.42 2.904-.42 4.2 0 10.568 8.643 13.997 18.09 13.997 7.838 0 12.737-.56 15.887-.98 1.05-.175 1.68-.63 1.855-1.6l1.75-9.798v-.245a1.295 1.295 0 0 0-1.365-1.365h-16.237c-2.345 0-3.29-.595-3.29-2.45a10.148 10.148 0 0 1 .175-1.645l1.225-6.894h19.84a1.89 1.89 0 0 0 1.855-1.645l1.68-9.658v-.2a1.33 1.33 0 0 0-1.365-1.4h-19.84l1.05-6.544c.56-3.394 1.75-4.48 4.55-4.48H184.2c.875 0 1.75-.7 1.925-1.6l1.68-9.798v-.35zm70.055-1.225h-13.297a1.89 1.89 0 0 0-1.855 1.575l-10.008 57.738c-.175.805.35 1.645 1.295 1.645h13.227c1.2 0 1.75-.7 1.925-1.645l10.043-57.703c.175-1.05-.455-1.575-1.4-1.575zM18.44 3.292c.35 0 .7 0 .805.28.9.9.35 2.66.35 3.85l-.525 38.562c.14.14.14.28.525.28.28 0 .35-.14.525-.42l13.647-40.94c0-.14.7-1.6 1.47-1.6h16.586c.35.14.7.42.7.7 0 .35-2.1 5.95-3.22 8.888L34.993 51.792c-.525 1.225-1.6 3.254-2.94 4.444-4.27 4.06-10.428 4.55-14.837 4.55-6.824 0-13.647-1.225-14.172-8.888L2.1 4.097c.14-.35.805-.945 1.05-.805zm.35-2.17c1.05-.28 2.94 1.75 2.94 2.974L21.485 35.1 32.088 3.432a3.569 3.569 0 0 1 2.939-2.275h17.25c1.75.28 2.45 1.75 2.45 2.8 0 1.225-2.8 8.398-3.08 9.028l-14.977 40.59c-1.995 5.11-8.048 8.048-11.897 8.748-3.5.525-4.55.7-7.488.7-5.88 0-15.747-.7-16.307-10.778L0 3.677c0-1.365 1.855-2.554 2.8-2.554z"/></svg>