<?xml version="1.0" encoding="UTF-8" standalone="no"?>
<svg
   xmlns:dc="http://purl.org/dc/elements/1.1/"
   xmlns:cc="http://creativecommons.org/ns#"
   xmlns:rdf="http://www.w3.org/1999/02/22-rdf-syntax-ns#"
   xmlns:svg="http://www.w3.org/2000/svg"
   xmlns="http://www.w3.org/2000/svg"
   xmlns:sodipodi="http://sodipodi.sourceforge.net/DTD/sodipodi-0.dtd"
   xmlns:inkscape="http://www.inkscape.org/namespaces/inkscape"
   viewBox="0 0 41.875999 47.457394"
   version="1.1"
   id="svg4"
   sodipodi:docname="icon.svg"
   width="41.875999"
   height="47.457394"
   style="fill:none"
   inkscape:version="0.92.5 (2060ec1f9f, 2020-04-08)">
  <metadata
     id="metadata10">
    <rdf:RDF>
      <cc:Work
         rdf:about="">
        <dc:format>image/svg+xml</dc:format>
        <dc:type
           rdf:resource="http://purl.org/dc/dcmitype/StillImage" />
      </cc:Work>
    </rdf:RDF>
  </metadata>
  <defs
     id="defs8" />
  <sodipodi:namedview
     pagecolor="#ffffff"
     bordercolor="#666666"
     borderopacity="1"
     objecttolerance="10"
     gridtolerance="10"
     guidetolerance="10"
     inkscape:pageopacity="0"
     inkscape:pageshadow="2"
     inkscape:window-width="1920"
     inkscape:window-height="1009"
     id="namedview6"
     showgrid="false"
     inkscape:zoom="3.3602681"
     inkscape:cx="90.162717"
     inkscape:cy="39.662313"
     inkscape:window-x="0"
     inkscape:window-y="0"
     inkscape:window-maximized="1"
     inkscape:current-layer="svg4" />
  <path
     d="M 40.531,10.884383 22.273,0.35638302 c -0.82836,-0.47517736 -1.84664,-0.47517736 -2.675,0 L 1.34,10.884383 C 0.5114226,11.361809 5.853e-4,12.245101 0,13.201383 v 21.055 c 0,0.951 0.513,1.837 1.34,2.317 l 18.258,10.528 c 0.407526,0.234593 0.869778,0.3574 1.34,0.356 0.471,0 0.933,-0.125 1.34,-0.356 l 18.258,-10.528 c 0.828268,-0.477248 1.339058,-1.360075 1.34,-2.316 v -21.056 c 0,-0.95 -0.513,-1.837 -1.34,-2.317 z m -19.182,11.539 c -0.25593,0.147523 -0.57107,0.147523 -0.827,0 L 2.7720002,12.189383 20.522,1.959383 c 0.257084,-0.1431435 0.569916,-0.1431435 0.827,0 l 17.75,10.232 -17.75,10.233 z m -1.751,1.596 c 0.13,0.074 0.268,0.139 0.416,0.19 v 20.99 L 2.2640002,34.972383 C 2.0081337,34.824902 1.8497642,34.552705 1.848,34.257383 v -20.47 z"
     id="path2"
     inkscape:connector-curvature="0"
     style="fill:currentColor"
     sodipodi:nodetypes="cccccsccccccsccccccccccccccccc" />
</svg>
