<?xml version="1.0" encoding="iso-8859-1"?>
<!-- Generator: Adobe Illustrator 16.0.0, SVG Export Plug-In . SVG Version: 6.00 Build 0)  -->
<!DOCTYPE svg PUBLIC "-//W3C//DTD SVG 1.1//EN" "http://www.w3.org/Graphics/SVG/1.1/DTD/svg11.dtd">
<svg version="1.1" id="Capa_1" xmlns="http://www.w3.org/2000/svg" xmlns:xlink="http://www.w3.org/1999/xlink" x="0px" y="0px"
	 width="32.004px" height="32.004px" viewBox="0 0 32.004 32.004" style="enable-background:new 0 0 32.004 32.004;"
	 xml:space="preserve">
<g>
	<g id="Layer_1_copy_7_">
		<path d="M9.897,24.87h2.957l0.514,1.649h1.818l-2.824-8.012h-1.93L7.578,26.52h1.762L9.897,24.87z M11.37,20.316h0.023
			l0.992,3.168h-2.042L11.37,20.316z M7.092,24.146c0-0.793-0.256-1.574-1.238-1.941c0.334-0.167,0.982-0.49,0.982-1.641
			c0-0.826-0.502-2.055-2.467-2.055H0.475v8.014h3.393c1.641,0,2.076-0.279,2.533-0.728C6.824,25.384,7.092,24.779,7.092,24.146z
			 M2.083,19.895h1.92c0.758,0,1.227,0.2,1.227,0.858c0,0.638-0.523,0.894-1.184,0.894H2.083V19.895z M4.135,25.138H2.083v-2.143
			h2.131c0.604,0,1.205,0.271,1.205,0.971C5.418,24.779,4.949,25.138,4.135,25.138z M28.07,21.79l3.459,4.729h-2.154l-2.477-3.515
			l-0.781,0.804v2.711h-1.674v-8.012h1.674v3.258l3.059-3.258h2.164L28.07,21.79z M7.579,30.969c0-0.766-0.184-0.892-0.521-1.04
			c0.406-0.137,0.635-0.524,0.635-0.979c0-0.354-0.199-1.159-1.291-1.159H4.326v4.104h0.842V30.29h0.885
			c0.635,0,0.67,0.218,0.67,0.776c0,0.422,0.033,0.636,0.09,0.828h0.949v-0.107C7.579,31.718,7.579,31.568,7.579,30.969z M6.17,29.6
			H5.167v-1.1h1.068c0.502,0,0.6,0.318,0.6,0.537C6.834,29.441,6.618,29.6,6.17,29.6z M8.952,11.494
			c-0.006-0.184-0.012-0.406-0.02-0.662c-0.016-0.26,0.051-0.542,0.078-0.861c0.033-0.32,0.076-0.667,0.197-1.021
			c0.102-0.357,0.191-0.749,0.387-1.114c0.086-0.188,0.174-0.381,0.266-0.575c0.096-0.191,0.229-0.364,0.344-0.551
			c0.227-0.384,0.521-0.722,0.822-1.06c0.291-0.353,0.65-0.622,0.977-0.933c0.359-0.254,0.701-0.548,1.068-0.755
			c0.361-0.228,0.717-0.432,1.068-0.6c0.346-0.187,0.689-0.313,1.002-0.453c0.484-0.188,0.914-0.334,1.268-0.438
			c-0.148-0.364-0.275-0.743-0.369-1.147C15.941,0.908,15.857,0.483,15.849,0c0.465,0.13,0.854,0.319,1.233,0.517
			c0.377,0.2,0.721,0.423,1.043,0.665c0.65,0.479,1.203,1.032,1.705,1.625c0.381,0.449,0.414,1.076,0.131,1.555L19.902,4.46
			c-0.461,0.771-1.01,1.488-1.674,2.13c-0.328,0.322-0.691,0.623-1.094,0.9c-0.203,0.136-0.416,0.268-0.633,0.395
			c-0.225,0.123-0.462,0.236-0.723,0.336c-0.018-0.278-0.014-0.542,0.006-0.797c0.025-0.251,0.057-0.497,0.096-0.74
			c0.086-0.479,0.209-0.934,0.367-1.367c0.016-0.047,0.035-0.091,0.053-0.137c-0.154,0.019-0.314,0.04-0.488,0.065
			c-0.271,0.058-0.582,0.098-0.891,0.188c-0.318,0.072-0.643,0.173-0.973,0.293c-0.346,0.102-0.656,0.278-1.008,0.419
			c-0.309,0.191-0.666,0.348-0.959,0.581c-0.307,0.222-0.617,0.446-0.871,0.723c-0.129,0.134-0.279,0.257-0.396,0.4
			c-0.111,0.147-0.223,0.295-0.332,0.438c-0.242,0.279-0.391,0.602-0.555,0.901c-0.18,0.294-0.289,0.6-0.383,0.887
			c-0.088,0.287-0.215,0.547-0.252,0.792c-0.047,0.246-0.088,0.459-0.121,0.636c-0.066,0.357-0.105,0.562-0.105,0.562
			S8.963,11.857,8.952,11.494z M0.476,27.791h3.338v0.729H2.571v3.377H1.716V28.52h-1.24L0.476,27.791L0.476,27.791z M9.484,27.791
			l-1.463,4.104h0.904l0.285-0.847h1.514l0.264,0.847h0.932l-1.445-4.104H9.484z M9.44,30.34l0.527-1.622h0.008l0.512,1.622H9.44z
			 M17.019,13.943c-0.341,0.197-0.68,0.335-0.988,0.483c-0.479,0.202-0.902,0.36-1.254,0.475c0.16,0.359,0.297,0.735,0.404,1.136
			c0.107,0.413,0.205,0.835,0.23,1.316c-0.471-0.115-0.865-0.293-1.248-0.479c-0.385-0.188-0.736-0.4-1.064-0.633
			c-0.662-0.459-1.232-0.996-1.752-1.573c-0.395-0.438-0.447-1.063-0.178-1.551l0.057-0.098c0.438-0.785,0.965-1.518,1.609-2.179
			c0.318-0.333,0.672-0.644,1.064-0.933c0.201-0.142,0.406-0.28,0.621-0.413c0.221-0.13,0.455-0.251,0.713-0.357
			c0.025,0.276,0.029,0.541,0.016,0.796c-0.018,0.252-0.041,0.499-0.072,0.743c-0.072,0.481-0.182,0.939-0.326,1.378
			c-0.016,0.047-0.035,0.091-0.049,0.138c0.152-0.023,0.313-0.049,0.486-0.08c0.27-0.065,0.578-0.114,0.883-0.214
			c0.316-0.081,0.639-0.191,0.964-0.322c0.343-0.111,0.648-0.297,0.994-0.448c0.304-0.201,0.658-0.367,0.941-0.609
			c0.301-0.23,0.604-0.465,0.848-0.748c0.129-0.138,0.273-0.266,0.388-0.411c0.106-0.152,0.213-0.302,0.317-0.449
			c0.234-0.287,0.373-0.613,0.527-0.917c0.172-0.3,0.271-0.608,0.354-0.898c0.08-0.29,0.199-0.553,0.229-0.799
			c0.039-0.247,0.072-0.462,0.101-0.639c0.061-0.359,0.09-0.564,0.09-0.564s0.016,0.206,0.035,0.568
			c0.01,0.184,0.022,0.407,0.039,0.662c0.022,0.259-0.033,0.544-0.054,0.863c-0.022,0.32-0.058,0.669-0.166,1.025
			c-0.092,0.359-0.17,0.754-0.354,1.124c-0.08,0.191-0.164,0.386-0.248,0.583c-0.092,0.194-0.217,0.371-0.327,0.562
			c-0.216,0.391-0.498,0.736-0.789,1.083c-0.281,0.36-0.632,0.642-0.949,0.961c-0.353,0.265-0.687,0.569-1.047,0.787
			C17.715,13.551,17.363,13.766,17.019,13.943z M20.422,27.791h2.92v0.729H21.28v0.926h1.806v0.726H21.28v1.726h-0.858V27.791z
			 M14.978,27.791h0.801v4.104h-0.859l-1.674-2.927h-0.013v2.927h-0.799v-4.104h0.902l1.631,2.857h0.01L14.978,27.791L14.978,27.791
			z M30.986,30.969c0-0.766-0.186-0.892-0.521-1.04c0.404-0.137,0.637-0.524,0.637-0.979c0-0.354-0.201-1.159-1.293-1.159h-2.074
			v4.104h0.842V30.29h0.885c0.633,0,0.67,0.218,0.67,0.776c0,0.422,0.033,0.636,0.091,0.828h0.946v-0.107
			C30.986,31.718,30.986,31.568,30.986,30.969z M29.58,29.6h-1.004v-1.1h1.066c0.504,0,0.602,0.318,0.602,0.537
			C30.244,29.441,30.027,29.6,29.58,29.6z M19.767,30.661c0,1.231-1.259,1.343-1.617,1.343c-1.498,0-1.753-0.861-1.753-1.372h0.82
			c0.006,0.229,0.121,0.663,0.871,0.663c0.403,0,0.856-0.1,0.856-0.529c0-0.322-0.31-0.406-0.743-0.511l-0.439-0.104
			c-0.664-0.152-1.303-0.303-1.303-1.207c0-0.457,0.245-1.262,1.577-1.262c1.258,0,1.594,0.822,1.6,1.325h-0.82
			c-0.023-0.183-0.092-0.616-0.842-0.616c-0.324,0-0.715,0.119-0.715,0.49c0,0.32,0.264,0.389,0.436,0.43l0.998,0.246
			C19.252,29.693,19.767,29.924,19.767,30.661z M24.758,31.169h2.275v0.728h-3.115v-4.104h3.019v0.728h-2.179v0.862h2v0.726h-2
			V31.169z M17.744,26.523h-1.562V18.51h1.763l3.182,5.579h0.021V18.51h1.562v8.014h-1.672l-3.271-5.713h-0.021L17.744,26.523
			L17.744,26.523z"/>
	</g>
</g>
<g>
</g>
<g>
</g>
<g>
</g>
<g>
</g>
<g>
</g>
<g>
</g>
<g>
</g>
<g>
</g>
<g>
</g>
<g>
</g>
<g>
</g>
<g>
</g>
<g>
</g>
<g>
</g>
<g>
</g>
</svg>
