<?xml version="1.0" encoding="UTF-8"?>
<svg width="196.42" height="196.41" version="1.1" viewBox="0 0 196.41641 196.40692" xml:space="preserve" xmlns="http://www.w3.org/2000/svg" xmlns:cc="http://creativecommons.org/ns#" xmlns:dc="http://purl.org/dc/elements/1.1/" xmlns:rdf="http://www.w3.org/1999/02/22-rdf-syntax-ns#"><metadata><rdf:RDF><cc:Work rdf:about=""><dc:format>image/svg+xml</dc:format><dc:type rdf:resource="http://purl.org/dc/dcmitype/StillImage"/><dc:title/></cc:Work></rdf:RDF></metadata><defs><clipPath id="d"><path d="m403.47 434.96c-40.085-1.796-71.126-35.775-69.317-75.878 1.819-40.077 35.784-71.129 75.885-69.322 40.098 1.824 71.128 35.799 69.321 75.893-1.76 38.969-33.914 69.38-72.526 69.383-1.118 0-2.235-0.025-3.363-0.076"/></clipPath><radialGradient id="b" cx="0" cy="0" r="1" gradientTransform="matrix(69.054 0 0 -69.054 420.03 382)" gradientUnits="userSpaceOnUse"><stop stop-color="#fff" offset="0"/><stop stop-color="#ca953e" offset="1"/></radialGradient><clipPath id="c"><path d="m403.42 435.95c-40.625-1.826-72.084-36.267-70.236-76.909 1.839-40.621 36.264-72.087 76.892-70.242 40.644 1.842 72.096 36.27 70.267 76.901-1.788 39.507-34.383 70.324-73.528 70.327-1.129 1e-3 -2.256-0.025-3.395-0.077m8.773-138.36c-0.061 1.669 2.381 2.088 2.381 2.088 21.763 4.28 15.407 18.575 7.691 25.86-3.228 3.069-33.548 29.24-33.548 29.24-28.928 24.899-26.61 44.33-26.61 44.33 1.396 23.919 22.338 29.842 38.176 28.475 1.859-0.163 2.883-1.286 2.561-2.836-0.346-1.677-2.806-1.799-2.806-1.799-5.041-0.315-9.547-0.821-12.975-3.133-12.774-8.576-8.987-23.204 8.02-39.445 2.143-2.059 4.417-4.212 6.757-6.399 0 0 3.419-3.004 10.21-9.484 13.108-12.063 20.271-18.574 20.271-18.574 23.081-19.21 15.206-36.78 6.365-42.896-6.703-4.643-14.165-6.836-23.931-7.354-0.09-0.014-0.187-0.021-0.29-0.021-0.897 0-2.209 0.558-2.272 1.948m5.407 70.947c-7.49 1.576-9.01 8.357-9.01 8.357-0.615 2.381-0.758 5.405-0.267 9.239 1.036 8.042 3.203 11.825 5.664 18.052 3.318 8.362-4.762 13.266-3.428 16.349 1.818 4.161 7.594-1.132 14.045-1.503 5.55-0.326 8.874-0.052 13.188-0.615 5.737-0.765 12.594-2.713 15.651-6.304 2.796-3.274-1.476-7.275-6.625-4.779-3.758 1.841-8.489 0.725-5.721-3.203 3.354-3.712 4.966-3.824 8.364-4.719 9.366-2.474 9.574-11.445 3.221-16.104-7.228-5.294-14.549-3.102-17.478 7.284-1.471 5.169-5.111 7.802-8.873 6.308-3.715-1.433-1.506-8.257 1.315-14.57 4.925-12.558-5.046-13.846-8.828-13.846-0.571 0-1.001 0.03-1.218 0.054m-27.453-68.589c-8.134 0.786-17.85 3.352-26.311 10.669-7.783 6.734-12.598 15.989-14.945 24.105-2.401 8.326-3.388 18.059 0.552 17.296 1.221-0.246 3.323-5.593 5.6-9.481 2.371-4.031 4.3-6.25 6.094-7.603 0.827-0.612 3.588 5.569 7.644 9.076 2.344 1.938 4.906 2.6 5.335-3.187 0.495-7.084-0.786-15.532 1.286-15.532 1.938 0 6.3 1.463 15.899 2.266 3.6 0.32 5.649-0.356 2.216-5.219-1.729-2.407-4.008-5.827-9.448-9.733 8.142-7.618 17.931-6.718 18.103-9.953 0.105-1.866-3.522-2.895-8.306-2.895-1.182 0-2.435 0.062-3.719 0.191"/></clipPath><radialGradient id="a" cx="0" cy="0" r="1" gradientTransform="matrix(154.39 0 0 -154.39 415.64 384.04)" gradientUnits="userSpaceOnUse"><stop stop-color="#4dc6f4" offset="0"/><stop stop-color="#3b98da" offset=".2191"/><stop stop-color="#1c63b7" offset=".37565"/><stop stop-color="#1c63b7" offset=".57303"/><stop stop-color="#1c63b7" offset="1"/></radialGradient></defs><g transform="matrix(1.3333 0 0 -1.3333 -444.14 581.37)"><g clip-path="url(#d)"><path d="m403.47 434.96c-40.085-1.796-71.126-35.775-69.317-75.878 1.819-40.077 35.784-71.129 75.885-69.322 40.098 1.824 71.128 35.799 69.321 75.893-1.76 38.969-33.914 69.38-72.526 69.383-1.118 0-2.235-0.025-3.363-0.076" fill="url(#b)"/></g><g clip-path="url(#c)"><path d="m403.42 435.95c-40.625-1.826-72.084-36.267-70.236-76.909 1.839-40.621 36.264-72.087 76.892-70.242 40.644 1.842 72.096 36.27 70.267 76.901-1.788 39.507-34.383 70.324-73.528 70.327-1.129 1e-3 -2.256-0.025-3.395-0.077m8.773-138.36c-0.061 1.669 2.381 2.088 2.381 2.088 21.763 4.28 15.407 18.575 7.691 25.86-3.228 3.069-33.548 29.24-33.548 29.24-28.928 24.899-26.61 44.33-26.61 44.33 1.396 23.919 22.338 29.842 38.176 28.475 1.859-0.163 2.883-1.286 2.561-2.836-0.346-1.677-2.806-1.799-2.806-1.799-5.041-0.315-9.547-0.821-12.975-3.133-12.774-8.576-8.987-23.204 8.02-39.445 2.143-2.059 4.417-4.212 6.757-6.399 0 0 3.419-3.004 10.21-9.484 13.108-12.063 20.271-18.574 20.271-18.574 23.081-19.21 15.206-36.78 6.365-42.896-6.703-4.643-14.165-6.836-23.931-7.354-0.09-0.014-0.187-0.021-0.29-0.021-0.897 0-2.209 0.558-2.272 1.948m5.407 70.947c-7.49 1.576-9.01 8.357-9.01 8.357-0.615 2.381-0.758 5.405-0.267 9.239 1.036 8.042 3.203 11.825 5.664 18.052 3.318 8.362-4.762 13.266-3.428 16.349 1.818 4.161 7.594-1.132 14.045-1.503 5.55-0.326 8.874-0.052 13.188-0.615 5.737-0.765 12.594-2.713 15.651-6.304 2.796-3.274-1.476-7.275-6.625-4.779-3.758 1.841-8.489 0.725-5.721-3.203 3.354-3.712 4.966-3.824 8.364-4.719 9.366-2.474 9.574-11.445 3.221-16.104-7.228-5.294-14.549-3.102-17.478 7.284-1.471 5.169-5.111 7.802-8.873 6.308-3.715-1.433-1.506-8.257 1.315-14.57 4.925-12.558-5.046-13.846-8.828-13.846-0.571 0-1.001 0.03-1.218 0.054m-27.453-68.589c-8.134 0.786-17.85 3.352-26.311 10.669-7.783 6.734-12.598 15.989-14.945 24.105-2.401 8.326-3.388 18.059 0.552 17.296 1.221-0.246 3.323-5.593 5.6-9.481 2.371-4.031 4.3-6.25 6.094-7.603 0.827-0.612 3.588 5.569 7.644 9.076 2.344 1.938 4.906 2.6 5.335-3.187 0.495-7.084-0.786-15.532 1.286-15.532 1.938 0 6.3 1.463 15.899 2.266 3.6 0.32 5.649-0.356 2.216-5.219-1.729-2.407-4.008-5.827-9.448-9.733 8.142-7.618 17.931-6.718 18.103-9.953 0.105-1.866-3.522-2.895-8.306-2.895-1.182 0-2.435 0.062-3.719 0.191" fill="url(#a)"/></g></g></svg>
