<?xml version="1.0" encoding="UTF-8"?>
<svg enable-background="new 0 0 24.06 25" version="1.1" viewBox="0 0 24.06 25" xml:space="preserve" xmlns="http://www.w3.org/2000/svg">
<style type="text/css">
	.st0{fill:#FFB819;}
	.st1{fill:#231F20;}
	.st2{fill:#FFFFFF;}
	.st3{fill:#C11524;}
	.st4{fill-rule:evenodd;clip-rule:evenodd;fill:#006BB1;}
	.st5{fill-rule:evenodd;clip-rule:evenodd;fill:#F37121;}
	.st6{fill:#003887;}
	.st7{fill:#009DDF;}
	.st8{fill:url(#SVGID_1_);}
	.st9{fill:url(#SVGID_2_);}
	.st10{fill:url(#SVGID_3_);}
	.st11{fill:url(#SVGID_4_);}
	.st12{fill:url(#SVGID_5_);}
	.st13{fill:url(#SVGID_6_);}
	.st14{fill:#009BDE;}
	.st15{fill:#022169;}
	.st16{fill:#002F87;}
	.st17{fill:#F5921B;}
	.st18{fill:#0071BB;}
	.st19{fill:#2C9940;}
	.st20{fill:#226DBB;}
	.st21{fill:#D81928;}
	.st22{fill:#FF7404;}
	.st23{fill-rule:evenodd;clip-rule:evenodd;fill:#5269AF;}
	.st24{fill-rule:evenodd;clip-rule:evenodd;fill:#F9913C;}
	.st25{fill:#F14A43;}
	.st26{fill:#F46E40;}
	.st27{fill:#FA983C;}
	.st28{fill-rule:evenodd;clip-rule:evenodd;fill:#1A5EAB;}
	.st29{fill-rule:evenodd;clip-rule:evenodd;fill:#F8883E;}
	.st30{fill:#80726C;}
	.st31{fill:#FCFCFC;}
	.st32{fill:#CF4D16;}
	.st33{fill:#DF6210;}
	.st34{fill:#F14942;}
	.st35{fill-rule:evenodd;clip-rule:evenodd;fill:none;stroke:#FFFFFF;stroke-width:0.0623;}
	.st36{fill:#EB8341;}
	.st37{fill:#35A15B;}
	.st38{fill:#6B787F;}
	.st39{fill:url(#SVGID_7_);}
	.st40{fill:url(#SVGID_8_);}
	.st41{fill:#A40B34;}
	.st42{fill:#7C0023;}
	.st43{fill:url(#SVGID_9_);}
	.st44{fill:#6D8DA6;}
	.st45{fill:#242021;}
	.st46{fill:#231300;}
	.st47{fill:#5EBB57;}
	.st48{fill:#B04A4A;}
	.st49{fill:#E05145;}
	.st50{fill:#CF0A2C;}
	.st51{fill:#002856;}
	.st52{fill:#007078;}
</style>

	<path class="st29" d="m23.843 25c-0.066-0.107-0.147-0.199-0.192-0.327-0.319-0.335-0.604-0.703-0.953-1.008-0.345-0.3-0.685-0.606-1.09-0.845-0.761-0.538-1.643-0.954-2.67-1.226-1.011-0.293-2.145-0.41-3.459-0.327-0.577 0.076-1.128 0.18-1.608 0.353-0.516 0.128-1.091 0.199-1.661 0.272-2.23 0.138-4.713-0.395-6.375-1.198-0.887-0.411-1.703-0.893-2.397-1.498-0.379-0.274-0.689-0.619-1.008-0.954-0.292-0.353-0.598-0.692-0.817-1.117-0.291-0.363-0.464-0.844-0.708-1.253-0.159-0.485-0.385-0.904-0.49-1.444-0.167-0.487-0.269-1.039-0.327-1.635-0.01-0.164-0.083-0.48-0.082-0.736 0-0.023 0.029-0.043 0.028-0.082-0.012-0.232-0.067-0.59 0-0.79-0.012-0.54 0.085-1.204 0.191-1.716 0.098-0.547 0.243-1.046 0.409-1.526 0.162-0.491 0.377-0.93 0.571-1.389 0.131-0.196 0.231-0.423 0.354-0.626 0.104-0.214 0.26-0.375 0.355-0.599 0.104-0.056 0.122-0.2 0.216-0.27 0.042-0.121 0.156-0.172 0.191-0.3 0.089-0.074 0.16-0.167 0.218-0.273 0.083-0.081 0.17-0.157 0.218-0.272 0.324-0.319 0.615-0.674 0.953-0.98 0.337-0.317 0.715-0.593 1.063-0.899 0.221-0.105 0.38-0.273 0.599-0.381 0.166-0.152 0.408-0.229 0.572-0.382 0.454-0.2 0.841-0.466 1.335-0.627 0.426-0.219 0.935-0.354 1.417-0.517 1.046-0.268 2.101-0.453 3.405-0.409 0.047 6e-3 0.071-0.046 0.082 0 2.469 0.075 4.268 0.818 5.803 1.825 1.521 1.013 2.698 2.369 3.542 4.059 0.825 1.674 1.289 3.95 0.899 6.347-0.195 1.076-0.51 2.032-0.899 2.915-0.223 0.413-0.422 0.85-0.681 1.226-0.114 0.203-0.236 0.399-0.381 0.572-0.049 0.105-0.118 0.19-0.19 0.272-0.032 0.05-0.072 0.092-0.109 0.136-0.012 0.024-0.024 0.049-0.055 0.055 8e-3 0.049-0.025 0.056-0.027 0.027-0.213-0.986-0.669-1.728-1.308-2.289-0.221-0.233-0.487-0.397-0.79-0.572-0.152-0.088-0.264-0.142-0.463-0.218-0.332-0.126-0.767-0.273-1.308-0.218 0.271-0.137 0.675-0.143 1.09-0.137 0.345 0.037 0.63 0.132 0.926 0.218 0.247 0.134 0.492 0.271 0.736 0.409 0.597-1.785 0.368-4.228-0.299-5.802-0.646-1.652-1.585-3.011-2.806-4.086-1.201-1.097-2.643-1.952-4.55-2.343-0.944-0.204-2.131-0.171-2.997 0.027-0.905 0.238-1.658 0.63-2.315 1.117-0.613 0.544-1.207 1.104-1.61 1.854-0.145 0.146-0.207 0.374-0.327 0.545-0.083 0.207-0.177 0.404-0.272 0.599-0.14 0.432-0.302 0.842-0.381 1.335-0.218 0.892-0.257 2.117-0.109 3.078 0.112 1.032 0.415 1.874 0.736 2.697 0.198 0.383 0.379 0.783 0.598 1.144 0.209 0.364 0.467 0.677 0.709 1.008 0.549 0.595 1.138 1.15 1.825 1.608 1.392 0.906 2.989 1.606 5.176 1.716 0.043-0.089-0.059-0.267-0.082-0.381-0.033-0.131-0.046-0.281-0.082-0.408-0.031-0.293-0.04-0.636 0-0.926 0.087 0.022 0.084 0.134 0.137 0.191 0.046 0.053 0.064 0.136 0.136 0.163 0.055 0.154 0.174 0.244 0.245 0.381 0.206 0.212 0.366 0.47 0.627 0.626 0.208 0.211 0.485 0.35 0.735 0.518 0.27 0.139 0.501 0.316 0.818 0.408 0.541 0.285 1.267 0.385 1.989 0.49 0.727 0.099 1.429 0.223 2.097 0.381 0.615 0.211 1.242 0.41 1.744 0.735 0.265 0.153 0.526 0.31 0.762 0.491 0.116 0.093 0.262 0.156 0.354 0.272 0.143 0.057 0.206 0.193 0.354 0.245 0.423 0.403 0.841 0.812 1.199 1.28 0.148 0.27 0.35 0.485 0.463 0.791 0.099 0.109 0.128 0.289 0.218 0.408"/>
	<path class="st29" d="m19.429 18.163c-0.32-0.126-0.373-0.517-0.518-0.817-0.026-0.11-0.048-0.276 0-0.381 0.022-5e-3 0.027-0.027 0.054-0.027 0.08-0.052 0.157 0.014 0.272 0.055 0.157 0.179 0.256 0.416 0.327 0.681 7e-3 0.213 0.023 0.438-0.135 0.489z"/>
	<path class="st29" d="m17.032 17.7c5e-3 -0.031 0.028-0.015 0.028 0 0.483 0.061 0.705 0.385 0.735 0.899-0.043 0.284-0.202 0.452-0.464 0.518-0.65 0.011-1.021-0.588-0.79-1.199 0.13-0.107 0.222-0.25 0.491-0.218z"/>

</svg>
