<?xml version="1.0" encoding="utf-8"?>
<!-- Generator: Adobe Illustrator 19.2.1, SVG Export Plug-In . SVG Version: 6.00 Build 0)  -->
<svg version="1.1" id="Layer_1" xmlns="http://www.w3.org/2000/svg" xmlns:xlink="http://www.w3.org/1999/xlink" x="0px" y="0px"
	 width="24.06px" height="25px" viewBox="0 0 24.06 25" style="enable-background:new 0 0 24.06 25;" xml:space="preserve">
<style type="text/css">
	.st0{fill:#FFB819;}
	.st1{fill:#231F20;}
	.st2{fill:#FFFFFF;}
	.st3{fill:#C11524;}
	.st4{fill-rule:evenodd;clip-rule:evenodd;fill:#006BB1;}
	.st5{fill-rule:evenodd;clip-rule:evenodd;fill:#F37121;}
	.st6{fill:#003887;}
	.st7{fill:#009DDF;}
	.st8{fill:url(#SVGID_1_);}
	.st9{fill:url(#SVGID_2_);}
	.st10{fill:url(#SVGID_3_);}
	.st11{fill:url(#SVGID_4_);}
	.st12{fill:url(#SVGID_5_);}
	.st13{fill:url(#SVGID_6_);}
	.st14{fill:#009BDE;}
	.st15{fill:#022169;}
	.st16{fill:#002F87;}
	.st17{fill:#F5921B;}
	.st18{fill:#0071BB;}
	.st19{fill:#2C9940;}
	.st20{fill:#226DBB;}
	.st21{fill:#D81928;}
	.st22{fill:#FF7404;}
	.st23{fill-rule:evenodd;clip-rule:evenodd;fill:#5269AF;}
	.st24{fill-rule:evenodd;clip-rule:evenodd;fill:#F9913C;}
	.st25{fill:#F14A43;}
	.st26{fill:#F46E40;}
	.st27{fill:#FA983C;}
	.st28{fill-rule:evenodd;clip-rule:evenodd;fill:#1A5EAB;}
	.st29{fill-rule:evenodd;clip-rule:evenodd;fill:#F8883E;}
	.st30{fill:#80726C;}
	.st31{fill:#FCFCFC;}
	.st32{fill:#CF4D16;}
	.st33{fill:#DF6210;}
	.st34{fill:#F14942;}
	.st35{fill-rule:evenodd;clip-rule:evenodd;fill:none;stroke:#FFFFFF;stroke-width:0.0623;}
	.st36{fill:#EB8341;}
	.st37{fill:#35A15B;}
	.st38{fill:#6B787F;}
	.st39{fill:url(#SVGID_7_);}
	.st40{fill:url(#SVGID_8_);}
	.st41{fill:#A40B34;}
	.st42{fill:#7C0023;}
	.st43{fill:url(#SVGID_9_);}
	.st44{fill:#6D8DA6;}
	.st45{fill:#242021;}
	.st46{fill:#231300;}
	.st47{fill:#5EBB57;}
	.st48{fill:#B04A4A;}
	.st49{fill:#E05145;}
	.st50{fill:#CF0A2C;}
	.st51{fill:#002856;}
	.st52{fill:#007078;}
</style>
<g>
	<path class="st29" d="M23.843,25c-0.066-0.107-0.147-0.199-0.192-0.327c-0.319-0.335-0.604-0.703-0.953-1.008
		c-0.345-0.3-0.685-0.606-1.09-0.845c-0.761-0.538-1.643-0.954-2.67-1.226c-1.011-0.293-2.145-0.41-3.459-0.327
		c-0.577,0.076-1.128,0.18-1.608,0.353c-0.516,0.128-1.091,0.199-1.661,0.272c-2.23,0.138-4.713-0.395-6.375-1.198
		c-0.887-0.411-1.703-0.893-2.397-1.498c-0.379-0.274-0.689-0.619-1.008-0.954c-0.292-0.353-0.598-0.692-0.817-1.117
		c-0.291-0.363-0.464-0.844-0.708-1.253c-0.159-0.485-0.385-0.904-0.49-1.444c-0.167-0.487-0.269-1.039-0.327-1.635
		c-0.01-0.164-0.083-0.48-0.082-0.736c0-0.023,0.029-0.043,0.028-0.082c-0.012-0.232-0.067-0.59,0-0.79
		c-0.012-0.54,0.085-1.204,0.191-1.716c0.098-0.547,0.243-1.046,0.409-1.526c0.162-0.491,0.377-0.93,0.571-1.389
		c0.131-0.196,0.231-0.423,0.354-0.626c0.104-0.214,0.26-0.375,0.355-0.599C2.018,5.273,2.036,5.129,2.13,5.059
		c0.042-0.121,0.156-0.172,0.191-0.3c0.089-0.074,0.16-0.167,0.218-0.273c0.083-0.081,0.17-0.157,0.218-0.272
		C3.081,3.895,3.372,3.54,3.71,3.234c0.337-0.317,0.715-0.593,1.063-0.899c0.221-0.105,0.38-0.273,0.599-0.381
		C5.538,1.802,5.78,1.725,5.944,1.572c0.454-0.2,0.841-0.466,1.335-0.627c0.426-0.219,0.935-0.354,1.417-0.517
		c1.046-0.268,2.101-0.453,3.405-0.409c0.047,0.006,0.071-0.046,0.082,0c2.469,0.075,4.268,0.818,5.803,1.825
		c1.521,1.013,2.698,2.369,3.542,4.059c0.825,1.674,1.289,3.95,0.899,6.347c-0.195,1.076-0.51,2.032-0.899,2.915
		c-0.223,0.413-0.422,0.85-0.681,1.226c-0.114,0.203-0.236,0.399-0.381,0.572c-0.049,0.105-0.118,0.19-0.19,0.272
		c-0.032,0.05-0.072,0.092-0.109,0.136c-0.012,0.024-0.024,0.049-0.055,0.055c0.008,0.049-0.025,0.056-0.027,0.027
		c-0.213-0.986-0.669-1.728-1.308-2.289c-0.221-0.233-0.487-0.397-0.79-0.572c-0.152-0.088-0.264-0.142-0.463-0.218
		c-0.332-0.126-0.767-0.273-1.308-0.218c0.271-0.137,0.675-0.143,1.09-0.137c0.345,0.037,0.63,0.132,0.926,0.218
		c0.247,0.134,0.492,0.271,0.736,0.409c0.597-1.785,0.368-4.228-0.299-5.802c-0.646-1.652-1.585-3.011-2.806-4.086
		c-1.201-1.097-2.643-1.952-4.55-2.343c-0.944-0.204-2.131-0.171-2.997,0.027c-0.905,0.238-1.658,0.63-2.315,1.117
		C5.388,4.103,4.794,4.663,4.391,5.413C4.246,5.559,4.184,5.787,4.064,5.958C3.981,6.165,3.887,6.362,3.792,6.557
		C3.652,6.989,3.49,7.399,3.411,7.892c-0.218,0.892-0.257,2.117-0.109,3.078c0.112,1.032,0.415,1.874,0.736,2.697
		c0.198,0.383,0.379,0.783,0.598,1.144c0.209,0.364,0.467,0.677,0.709,1.008c0.549,0.595,1.138,1.15,1.825,1.608
		c1.392,0.906,2.989,1.606,5.176,1.716c0.043-0.089-0.059-0.267-0.082-0.381c-0.033-0.131-0.046-0.281-0.082-0.408
		c-0.031-0.293-0.04-0.636,0-0.926c0.087,0.022,0.084,0.134,0.137,0.191c0.046,0.053,0.064,0.136,0.136,0.163
		c0.055,0.154,0.174,0.244,0.245,0.381c0.206,0.212,0.366,0.47,0.627,0.626c0.208,0.211,0.485,0.35,0.735,0.518
		c0.27,0.139,0.501,0.316,0.818,0.408c0.541,0.285,1.267,0.385,1.989,0.49c0.727,0.099,1.429,0.223,2.097,0.381
		c0.615,0.211,1.242,0.41,1.744,0.735c0.265,0.153,0.526,0.31,0.762,0.491c0.116,0.093,0.262,0.156,0.354,0.272
		c0.143,0.057,0.206,0.193,0.354,0.245c0.423,0.403,0.841,0.812,1.199,1.28c0.148,0.27,0.35,0.485,0.463,0.791
		c0.099,0.109,0.128,0.289,0.218,0.408"/>
	<path class="st29" d="M19.429,18.163c-0.32-0.126-0.373-0.517-0.518-0.817c-0.026-0.11-0.048-0.276,0-0.381
		c0.022-0.005,0.027-0.027,0.054-0.027c0.08-0.052,0.157,0.014,0.272,0.055c0.157,0.179,0.256,0.416,0.327,0.681
		C19.571,17.887,19.587,18.112,19.429,18.163z"/>
	<path class="st29" d="M17.032,17.7c0.005-0.031,0.028-0.015,0.028,0c0.483,0.061,0.705,0.385,0.735,0.899
		c-0.043,0.284-0.202,0.452-0.464,0.518c-0.65,0.011-1.021-0.588-0.79-1.199C16.671,17.811,16.763,17.668,17.032,17.7z"/>
</g>
</svg>
