<?xml version="1.0" encoding="UTF-8"?>
<svg width="274.16" height="274.16" version="1.1" viewBox="0 0 72.537052 72.539373" xmlns="http://www.w3.org/2000/svg" xmlns:cc="http://creativecommons.org/ns#" xmlns:dc="http://purl.org/dc/elements/1.1/" xmlns:rdf="http://www.w3.org/1999/02/22-rdf-syntax-ns#">
<metadata>
<rdf:RDF>
<cc:Work rdf:about="">
<dc:format>image/svg+xml</dc:format>
<dc:type rdf:resource="http://purl.org/dc/dcmitype/StillImage"/>
<dc:title/>
</cc:Work>
</rdf:RDF>
</metadata>
<g transform="translate(-7.903e-7 -220.36)">
<path d="m72.537 292.9h-72.536v-72.539h72.536z" fill="#fff"/>
<path d="m29.169 269.32 7.7321-6.2415c-1.2967-1.6275-2.5275-3.2693-3.6873-4.9644-8.9434-12.94-14.242-26.104-10.416-37.755h-22.798v12.574z" fill="#f15a22"/>
<path d="m41.361 250.52c0.48381-4.107 1.7289-11.853 9.2617-17.607 6.5225-4.9662 14.685-5.9213 21.914-2.8513v-9.6993h-40.245c-2.6556 11.802 4.3205 24.77 9.0696 30.158" fill="#f15a22"/>
<path d="m51.124 238.69-0.02846 0.0213c-7.5737 6.1543-5.7114 15.813 1.3394 24.473 5.4304 6.6844 12.696 11.377 20.101 7.8192v-28.516c-6.6524-6.8142-14.637-9.3098-21.412-3.7976" fill="#f15a22"/>
<path d="m3.4578e-4 247.81v45.083h0.010672l21.946-17.752z" fill="#f15a22"/>
<path d="m39.914 266.66c-2.1558 1.7716-4.8185 3.9398-7.773 6.3536l2.8513 3.5503c4.1213 5.1547 10.153 14.086 17.622 11.668l0.27748 0.33973-5.3077 4.324h24.954v-17.15c-12.839 6.9761-23.877 0.62611-32.623-9.0856" fill="#f15a22"/>
<path d="m27.871 282.51-2.9544-3.6748c-6.0565 4.8612-12.414 9.9572-17.574 14.057h27.92c-1.8125-3.8474-5.1067-7.5328-7.3923-10.382" fill="#f15a22"/>
</g>
</svg>
