<?xml version="1.0" encoding="UTF-8"?>
<svg version="1.1" viewBox="0 0 113 99" xml:space="preserve" xmlns="http://www.w3.org/2000/svg" xmlns:cc="http://creativecommons.org/ns#" xmlns:dc="http://purl.org/dc/elements/1.1/" xmlns:rdf="http://www.w3.org/1999/02/22-rdf-syntax-ns#" xmlns:xlink="http://www.w3.org/1999/xlink"><metadata><rdf:RDF><cc:Work rdf:about=""><dc:format>image/svg+xml</dc:format><dc:type rdf:resource="http://purl.org/dc/dcmitype/StillImage"/><dc:title/></cc:Work></rdf:RDF></metadata><style type="text/css">
	.st0{opacity:0.2;fill:#FFFFFF;}
	.st1{fill:#FFFFFF;}
	.st2{fill:none;stroke:#242C88;stroke-width:2;stroke-linecap:round;stroke-linejoin:round;stroke-miterlimit:10;}
	.st3{fill:#5E61A3;}
	.st4{opacity:0.5;fill:#242C88;}
	.st5{fill:#39C89A;}
	.st6{fill:#CAEAFB;}
	.st7{fill:#589FFF;}
	.st8{fill:#FF5751;}
	.st9{fill:#BC8D66;}
	.st10{opacity:0.7;fill:#FFFFFF;}
	.st11{fill:#F1C92A;}
	.st12{opacity:0.4;fill:none;stroke:#FFFFFF;stroke-width:2;stroke-linecap:round;stroke-linejoin:round;stroke-miterlimit:10;}
	.st13{fill:#F3877E;}
	.st14{fill:#83D689;}
	.st15{opacity:0.4;fill:#242C88;}
	.st16{opacity:0.2;fill:#242C88;}
		.st17{fill:none;stroke:#FFFFFF;stroke-width:3;stroke-linecap:round;stroke-linejoin:round;stroke-miterlimit:10;stroke-dasharray:0.1,6;}
	.st18{fill:#FFC408;}
		.st19{opacity:0.4;fill:none;stroke:#FFFFFF;stroke-width:3;stroke-linecap:round;stroke-linejoin:round;stroke-miterlimit:10;stroke-dasharray:0.1,6;}
	.st20{fill:none;stroke:#CAEAFB;stroke-width:12;stroke-linecap:round;stroke-miterlimit:10;}
	.st21{fill:none;stroke:#CAEAFB;stroke-width:7;stroke-linecap:round;stroke-miterlimit:10;}
	.st22{opacity:0.4;fill:none;stroke:#242C88;stroke-width:2;stroke-linecap:round;stroke-linejoin:round;stroke-miterlimit:10;}
	.st23{opacity:0.5;}
	.st24{fill:#242C88;}
		.st25{fill:none;stroke:#242C88;stroke-width:3;stroke-linecap:round;stroke-linejoin:round;stroke-miterlimit:10;stroke-dasharray:0.1,6;}
	.st26{opacity:0.5;fill:#FFFFFF;}
	.st27{fill:none;stroke:#FFFFFF;stroke-width:3;stroke-linecap:round;stroke-linejoin:round;stroke-miterlimit:10;}
	.st28{fill:none;stroke:#FFFFFF;stroke-width:2;stroke-linecap:round;stroke-linejoin:round;stroke-miterlimit:10;}
	.st29{fill:#E5BD9E;}
	.st30{fill:#A06D47;}
		.st31{opacity:0.3;fill:none;stroke:#FFFFFF;stroke-width:3;stroke-linecap:round;stroke-linejoin:round;stroke-miterlimit:10;stroke-dasharray:0.1,6;}
	.st32{opacity:0.1;fill:#242C88;}
	.st33{opacity:0.5;fill:#FF5751;}
	.st34{opacity:0.2;fill:none;stroke:#242C88;stroke-width:2;stroke-linecap:round;stroke-linejoin:round;stroke-miterlimit:10;}
	.st35{opacity:0.3;clip-path:url(#a);}
		.st36{fill:none;stroke:#FFFFFF;stroke-width:3;stroke-linecap:round;stroke-linejoin:round;stroke-miterlimit:10;stroke-dasharray:0,6;}
		.st37{opacity:0.3;fill:none;stroke:#FFFFFF;stroke-width:3;stroke-linecap:round;stroke-linejoin:round;stroke-miterlimit:10;stroke-dasharray:0,6;}
	.st38{clip-path:url(#SVGID_4_);}
	.st39{opacity:0.2;fill:none;stroke:#242C88;stroke-width:9;stroke-linecap:round;stroke-linejoin:round;stroke-miterlimit:10;}
	.st40{opacity:0.3;}
	.st41{opacity:0.4;fill:#FFFFFF;}
	.st42{opacity:0.5;fill:#CAEAFB;}
	.st43{opacity:0.6;fill:#242C88;}
	.st44{opacity:0.5;fill:none;stroke:#242C88;stroke-width:2;stroke-linecap:round;stroke-linejoin:round;stroke-miterlimit:10;}
	.st45{opacity:0.3;fill:#242C88;}
	.st46{opacity:0.2;}
		.st47{clip-path:url(#SVGID_6_);fill:none;stroke:#242C88;stroke-width:2;stroke-linecap:round;stroke-linejoin:round;stroke-miterlimit:10;}
	.st48{opacity:0.2;fill:none;stroke:#FFFFFF;stroke-width:8;stroke-linecap:round;stroke-linejoin:round;stroke-miterlimit:10;}
	.st49{clip-path:url(#SVGID_8_);fill:#FFFFFF;}
		.st50{clip-path:url(#SVGID_8_);fill:none;stroke:#242C88;stroke-width:2;stroke-linecap:round;stroke-linejoin:round;stroke-miterlimit:10;}
	.st51{opacity:0.2;clip-path:url(#SVGID_8_);fill:#242C88;}
		.st52{opacity:0.2;clip-path:url(#SVGID_8_);fill:none;stroke:#242C88;stroke-width:2;stroke-linecap:round;stroke-linejoin:round;stroke-miterlimit:10;}
	.st53{fill:none;stroke:#242C88;stroke-width:1.848;stroke-linecap:round;stroke-linejoin:round;stroke-miterlimit:10;}
	.st54{opacity:0.4;fill:none;stroke:#FFFFFF;stroke-width:7;stroke-linecap:round;stroke-linejoin:round;stroke-miterlimit:10;}
	.st55{opacity:0.2;fill:none;stroke:#242C88;stroke-width:7;stroke-linecap:round;stroke-linejoin:round;stroke-miterlimit:10;}
	.st56{opacity:7.000000e-02;fill:#242C88;}
	.st57{fill:none;stroke:#FFFFFF;stroke-width:4;stroke-linecap:round;stroke-linejoin:round;stroke-miterlimit:10;}
	.st58{opacity:0.4;fill:none;stroke:#FFFFFF;stroke-width:8;stroke-linecap:round;stroke-linejoin:round;stroke-miterlimit:10;}
	.st59{opacity:0.2;fill:none;stroke:#242C88;stroke-width:8;stroke-linecap:round;stroke-linejoin:round;stroke-miterlimit:10;}
	.st60{fill:none;stroke:#FF5751;stroke-width:4;stroke-linecap:round;stroke-linejoin:round;stroke-miterlimit:10;}
	.st61{fill:none;stroke:#242C88;stroke-width:4;stroke-linecap:round;stroke-linejoin:round;stroke-miterlimit:10;}
</style><path class="st7" d="m80.4 1h-74.8c-2.5 0-4.6 2.1-4.6 4.6v48.8c0 2.6 2.1 4.6 4.6 4.6h74.8c2.6 0 4.6-2.1 4.6-4.6v-48.8c0-2.5-2.1-4.6-4.6-4.6z" fill="#589fff"/><rect class="st6" x="8" y="25" width="69" height="15" fill="#caeafb"/><rect class="st3" x="1" y="13" width="84" height="15" fill="#5e61a3"/><path class="st2" d="m80.4 1h-74.8c-2.5 0-4.6 2.1-4.6 4.6v48.8c0 2.6 2.1 4.6 4.6 4.6h74.8c2.6 0 4.6-2.1 4.6-4.6v-48.8c0-2.5-2.1-4.6-4.6-4.6z" fill="none" stroke="#242c88" stroke-linecap="round" stroke-linejoin="round" stroke-miterlimit="10" stroke-width="2"/><line class="st44" x1="9" x2="33" y1="46" y2="46" fill="none" opacity=".5" stroke="#242c88" stroke-linecap="round" stroke-linejoin="round" stroke-miterlimit="10" stroke-width="2"/><line class="st44" x1="9" x2="33" y1="50" y2="50" fill="none" opacity=".5" stroke="#242c88" stroke-linecap="round" stroke-linejoin="round" stroke-miterlimit="10" stroke-width="2"/><path class="st45" d="m32.6 35c-5.3 0-9.6 4.3-9.6 9.6v14.4h57.4c2.6 0 4.6-2.1 4.6-4.6v-19.4h-52.4z" fill="#242c88" opacity=".3"/><path class="st8" d="m107.4 40h-74.8c-2.6 0-4.6 2.1-4.6 4.6v48.8c0 2.6 2.1 4.6 4.6 4.6h74.8c2.6 0 4.6-2.1 4.6-4.6v-48.8c0-2.5-2.1-4.6-4.6-4.6z" fill="#ff5751"/><path class="st13" d="m103.7 69c2.9 0 5.7-0.4 8.3-1.2v-13.5c-2.4 1.4-5.3 2.2-8.3 2.2-9.2 0-16.6-7.4-16.6-16.6h-12.4c0 16.1 13 29.1 29 29.1z" fill="#f3877e"/><path class="st2" d="m107.4 40h-74.8c-2.6 0-4.6 2.1-4.6 4.6v48.8c0 2.6 2.1 4.6 4.6 4.6h74.8c2.6 0 4.6-2.1 4.6-4.6v-48.8c0-2.5-2.1-4.6-4.6-4.6z" fill="none" stroke="#242c88" stroke-linecap="round" stroke-linejoin="round" stroke-miterlimit="10" stroke-width="2"/><path class="st18" d="m47.6 75h-10.2c-1.3 0-2.4-1.1-2.4-2.4v-7.3c0-1.3 1.1-2.4 2.4-2.4h10.3c1.3 0 2.4 1.1 2.4 2.4v7.3c-0.1 1.3-1.2 2.4-2.5 2.4z" fill="#ffc408"/><path class="st2" d="m47.6 75h-10.2c-1.3 0-2.4-1.1-2.4-2.4v-7.3c0-1.3 1.1-2.4 2.4-2.4h10.3c1.3 0 2.4 1.1 2.4 2.4v7.3c-0.1 1.3-1.2 2.4-2.5 2.4z" fill="none" stroke="#242c88" stroke-linecap="round" stroke-linejoin="round" stroke-miterlimit="10" stroke-width="2"/><line class="st2" x1="36" x2="49" y1="80" y2="80" fill="none" stroke="#242c88" stroke-linecap="round" stroke-linejoin="round" stroke-miterlimit="10" stroke-width="2"/><line class="st28" x1="36" x2="56" y1="84" y2="84" fill="none" stroke="#fff" stroke-linecap="round" stroke-linejoin="round" stroke-miterlimit="10" stroke-width="2"/><line class="st28" x1="36" x2="45" y1="89" y2="89" fill="none" stroke="#fff" stroke-linecap="round" stroke-linejoin="round" stroke-miterlimit="10" stroke-width="2"/><line class="st28" x1="61" x2="68" y1="84" y2="84" fill="none" stroke="#fff" stroke-linecap="round" stroke-linejoin="round" stroke-miterlimit="10" stroke-width="2"/><line class="st2" x1="53" x2="67" y1="80" y2="80" fill="none" stroke="#242c88" stroke-linecap="round" stroke-linejoin="round" stroke-miterlimit="10" stroke-width="2"/><line class="st2" x1="72" x2="84" y1="80" y2="80" fill="none" stroke="#242c88" stroke-linecap="round" stroke-linejoin="round" stroke-miterlimit="10" stroke-width="2"/><line class="st2" x1="89" x2="103" y1="80" y2="80" fill="none" stroke="#242c88" stroke-linecap="round" stroke-linejoin="round" stroke-miterlimit="10" stroke-width="2"/><g class="st46" transform="translate(-8,-15)" opacity=".2"><defs><path id="b" class="st46" d="m55.6 90h-10.2c-1.3 0-2.4-1.1-2.4-2.4v-7.3c0-1.3 1.1-2.4 2.4-2.4h10.3c1.3 0 2.4 1.1 2.4 2.4v7.3c-0.1 1.3-1.2 2.4-2.5 2.4z" opacity=".2"/></defs><clipPath id="a"><use width="100%" height="100%" xlink:href="#b"/></clipPath><rect x="48" y="77" width="5" height="14" clip-path="url(#a)" fill="none" stroke="#242c88" stroke-linecap="round" stroke-linejoin="round" stroke-miterlimit="10" stroke-width="2"/><line x1="53" x2="58" y1="84" y2="84" clip-path="url(#a)" fill="none" stroke="#242c88" stroke-linecap="round" stroke-linejoin="round" stroke-miterlimit="10" stroke-width="2"/><line x1="43" x2="48" y1="84" y2="84" clip-path="url(#a)" fill="none" stroke="#242c88" stroke-linecap="round" stroke-linejoin="round" stroke-miterlimit="10" stroke-width="2"/></g><circle class="st1" cx="98" cy="55" r="5" fill="#fff"/><circle class="st18" cx="91" cy="55" r="5" fill="#ffc408"/><path class="st16" d="m93 55c0 1.4 0.6 2.7 1.5 3.6 0.9-0.9 1.5-2.2 1.5-3.6s-0.6-2.7-1.5-3.6c-0.9 0.9-1.5 2.2-1.5 3.6z" fill="#242c88" opacity=".2"/><path class="st2" d="m98 50c-1.4 0-2.6 0.5-3.5 1.4-0.9-0.9-2.1-1.4-3.5-1.4-2.8 0-5 2.2-5 5s2.2 5 5 5c1.4 0 2.6-0.5 3.5-1.4 0.9 0.9 2.1 1.4 3.5 1.4 2.8 0 5-2.2 5-5s-2.2-5-5-5z" fill="none" stroke="#242c88" stroke-linecap="round" stroke-linejoin="round" stroke-miterlimit="10" stroke-width="2"/></svg>
