<svg version="1.0" xmlns="http://www.w3.org/2000/svg" width="1706.667" height="214.667" viewBox="0 0 1280 161"><path d="M84.4 1.2C49 3.6 20.5 19.8 8.4 44.5 2.8 55.9 1 62.9.3 76c-1.6 30.1 11.4 55.6 35.5 70 33.3 19.7 94.8 19.2 126.3-1.2 8.6-5.5 18.7-16 22.7-23.5 3.2-6 7.4-20 6.5-21.6-.2-.4-6.9-.7-14.8-.7h-14.4l-3.4 7.3c-7.8 16.9-23.6 26-50.3 28.8-25.2 2.7-49.8-4.2-63-17.6C35 106.9 30.3 93.4 31.3 77c2-29.9 21.5-47.5 56.5-51 18.7-1.9 38.6 1.5 51.2 8.7 9.1 5.2 16.9 14.2 20.5 23.6l1.8 4.8 15.1-.3 15.1-.3-.3-3c-.6-4.9-5-16.6-8.5-22.3-15.4-25.6-52.1-39-98.3-36zm208.1-.1c-42.3 2.6-71.7 22.1-82.3 54.7-5 15.4-4.1 40.5 2 55.3 11.4 27.9 38.3 45.4 74.3 48.4 3.9.3 9.3.8 12.2 1 8 .7 30.3-1.3 39.9-3.5 26.8-6.3 46.4-20.3 56.1-40.1 6.4-13.1 7.7-19.1 7.8-35.9 0-17.1-1.3-23-8-36.7-15.3-31-51.4-46.3-102-43.2zM316.6 26c23.2 2.9 39.5 11.8 48.1 26.2 4.1 6.7 7.3 19.1 7.3 27.7-.1 25.9-13.7 44.1-39.1 51.9-20.4 6.3-49.1 4.6-66.8-4-7.7-3.8-18.6-14-22-20.6-3.3-6.4-6.1-18.6-6.1-26.2 0-34.5 23.7-54.6 66-55.9 2.5 0 8.2.4 12.6.9zM697.4 1.1c-38.9 3-68.4 21.5-79.1 49.7-4.9 12.9-6.5 29.3-4.2 43.1 6.2 38.5 35.5 62 82.4 66 28.1 2.4 56.4-2.6 75.4-13.2 16.8-9.4 30.7-28.4 32.3-44.2l.3-3-14.7-.3-14.7-.3-3.4 7.4c-4.4 9.4-11.3 16.4-20.9 21.1-24.4 11.9-61.2 10.8-83.4-2.5-11.5-6.9-20-19.6-22.3-33-3.1-18.6 1-34.9 11.8-47 9-10.1 21.6-15.8 40.6-18.5 18.1-2.6 36.9-.1 51.2 6.7 9.7 4.6 18.3 13.3 22.4 22.4l3.4 7.5H804v-2.8c0-3.9-4.2-16-7.5-21.7-15.7-26.7-53.1-40.9-99.1-37.4zM427 80.5V156h28l.2-58.8.3-58.7L491 80.4c19.5 23.1 41.8 49.4 49.5 58.5l14.1 16.6 17.7.3 17.7.2V5h-29l-.2 59.5-.3 59.5-30-35.6C514 68.7 497.6 49.2 494 45c-10.8-12.8-12.8-15-23.3-27.7L460.5 5.1 443.8 5H427v75.5zm401-.1V156h29V98h24.1l11.2 10.3c6.1 5.6 11.9 10.9 12.7 11.7.9.8 7 6.4 13.5 12.5 6.6 6 15 13.8 18.7 17.2l6.7 6.3h19.8l19.8-.1-3.5-3.1c-1.9-1.7-7.3-6.6-12-10.8s-15.5-13.9-24-21.6c-8.5-7.6-17.4-15.7-19.8-17.9l-4.3-3.9 9.1-1.4c23.8-3.4 37.8-14.4 41.8-32.7 3-13.9 2.2-24.8-2.6-34.8-5.3-10.9-12.5-16.7-26.7-21.5l-8-2.7-52.7-.3-52.8-.3v75.5zm95.5-51.3c12 2.2 18.2 7.7 19.4 17.1 1.3 10.7-1.5 19.3-7.8 23.5-6.4 4.3-9.2 4.6-44.3 5l-33.8.4V28h30.3c17.6 0 32.8.5 36.2 1.1zm51.2-20.7c1.5 1.8 12.3 14.7 23.8 28.6 11.6 13.9 26.3 31.6 32.8 39.3l11.7 13.9V156h28V90.4l9.1-10.9c5-6.1 10.8-13 12.9-15.5s13.1-15.8 24.5-29.5c11.4-13.8 21.7-26 22.8-27.3l2-2.2h-35.2l-9.8 11.7c-5.4 6.5-16.7 20-25.1 30.1L1056.9 65 1034 37.5c-12.5-15.1-23.7-28.6-24.8-30l-2-2.5h-35.3l2.8 3.4zM1147 17v12h52v127h29V29h52V5h-133v12z"/></svg>