<?xml version="1.0" encoding="UTF-8"?>
<svg width="13.7" height="15.744" enable-background="new -67 82 64 38" version="1.1" viewBox="-67 82 13.7 15.744412" xml:space="preserve" xmlns="http://www.w3.org/2000/svg" xmlns:cc="http://creativecommons.org/ns#" xmlns:dc="http://purl.org/dc/elements/1.1/" xmlns:rdf="http://www.w3.org/1999/02/22-rdf-syntax-ns#"><metadata><rdf:RDF><cc:Work rdf:about=""><dc:format>image/svg+xml</dc:format><dc:type rdf:resource="http://purl.org/dc/dcmitype/StillImage"/><dc:title/></cc:Work></rdf:RDF></metadata>
<path d="m-54.5 87.144h-0.8v5.2c0 1-0.4 1.5-1.6 1.8l-7.5 2.2s-0.7 0.1-0.7-0.4 0.5-0.5 0.7-0.7l6.8-2.7c0.5-0.3 1.1-1.1 1.1-1.6v-8.1c0-1.2-1.2-0.8-1.5-0.7s-7.9 4.5-7.9 4.5c-0.5 0.3-1.1 1.1-1.1 1.6v8.1c0 0.5 0.8 1.4 1.4 1.4h11.1c0.7 0 1.2-0.4 1.2-1.1v-8.3c0-0.7-0.5-1.2-1.2-1.2m-5.5-0.6c0.5-0.4 1.1-0.3 1.1 0.3 0.1 0.5-0.3 1.1-0.7 1.5-0.5 0.4-1.1 0.3-1.1-0.3s0.2-1.1 0.7-1.5z" fill="#f37b20"/>
</svg>
