<?xml version="1.0" encoding="UTF-8"?>
<svg width="104" height="99.685" enable-background="new 0 0 185 180" version="1.1" viewBox="0 0 104 99.685265" xml:space="preserve" xmlns="http://www.w3.org/2000/svg" xmlns:cc="http://creativecommons.org/ns#" xmlns:dc="http://purl.org/dc/elements/1.1/" xmlns:rdf="http://www.w3.org/1999/02/22-rdf-syntax-ns#"><metadata><rdf:RDF><cc:Work rdf:about=""><dc:format>image/svg+xml</dc:format><dc:type rdf:resource="http://purl.org/dc/dcmitype/StillImage"/><dc:title/></cc:Work></rdf:RDF></metadata>
<g transform="translate(-40.5 -39.115)" fill="#3bad02">
	<path d="m129 53.4-55.6 32-26.3-15.1c-1.3-0.7-2.9-0.3-3.7 1-0.7 1.3-0.3 2.9 1 3.7l27.6 15.9c0.8 0.5 1.8 0.5 2.7 0l57-32.8c1.3-0.7 1.7-2.4 1-3.7s-2.4-1.8-3.7-1z"/>
	<path d="m121 45.7-47.6 27.3-22-12.7c-1.3-0.7-2.9-0.3-3.7 1-0.7 1.3-0.3 2.9 1 3.7l23.4 13.4c0.8 0.5 1.8 0.5 2.7 0l48.9-28.1c1.3-0.7 1.7-2.4 1-3.7-0.8-1.2-2.4-1.7-3.7-0.9z"/>
	<path d="m110.3 39.5-36.9 21.2-15.7-9c-1.3-0.7-2.9-0.3-3.7 1-0.7 1.3-0.3 2.9 1 3.7l17 9.8c0.8 0.5 1.8 0.5 2.7 0l38.2-22c1.3-0.7 1.7-2.4 1-3.7s-2.3-1.8-3.6-1z"/>
	<path d="m134 65.6c3.2 6.3 5 13.5 5 21.1 0 12.9-5.2 24.5-13.6 32.9s-20.1 13.6-33 13.6-24.5-5.2-33-13.6c-8.4-8.4-13.6-20.1-13.6-32.9 0-1 0-2.1 0.1-3.1 0.1-1.5-1-2.8-2.5-2.8-1.5-0.1-2.8 1-2.8 2.5-0.1 1.1-0.1 2.3-0.1 3.5 0 28.7 23.3 52 52 52s52-23.3 52-52c0-8.5-2-16.5-5.6-23.5-0.7-1.3-2.3-1.8-3.6-1.2-1.4 0.6-2 2.2-1.3 3.5z"/>
	<path d="m41.9 85.7 29.7 17.4c0.8 0.5 1.9 0.5 2.7 0l63.4-36.4c1.3-0.7 1.7-2.4 1-3.7s-2.4-1.7-3.7-1l-62.1 35.6-28.3-16.6c-1.3-0.7-2.9-0.3-3.7 1-0.7 1.4-0.2 3 1 3.7z"/>
</g>
</svg>
