<?xml version="1.0" encoding="UTF-8"?>
<svg enable-background="new 0 0 242 61" version="1.1" viewBox="0 0 242 61" xml:space="preserve" xmlns="http://www.w3.org/2000/svg">
<style type="text/css">
	.st0{fill:#1A9F29;}
</style>
<path class="st0" d="m63.3 28.2c1 1.1 2.2 1.9 3.7 2.5s3.2 0.9 5.3 0.9c1 0 2-0.1 2.8-0.2 0.9-0.1 1.6-0.3 2.3-0.6 0.7-0.2 1.3-0.5 1.9-0.7 0.5-0.3 1-0.5 1.4-0.7l-0.7-1.5-1.2 0.6c-0.4 0.2-0.8 0.3-1.3 0.5-0.5 0.1-1 0.3-1.6 0.3-0.6 0.1-1.3 0.1-2.1 0.1-1.5 0-2.8-0.3-3.7-0.9-1-0.6-1.7-1.4-2.3-2.3-0.5-1-0.9-2.2-1.1-3.5-0.2-1.4-0.3-2.8-0.3-4.4 0-1.2 0.1-2.5 0.2-3.8s0.4-2.4 0.9-3.4 1.1-1.8 2-2.5c0.9-0.6 2.1-1 3.6-1 1.4 0 2.6 0.4 3.6 1.1s1.6 1.9 1.9 3.4h1.6v-4.9c-0.5-0.2-1-0.4-1.6-0.6s-1.2-0.3-1.9-0.4-1.3-0.1-2-0.2c-0.6 0-1.2-0.1-1.7-0.1-2.2 0-4 0.3-5.6 0.9-1.5 0.6-2.8 1.5-3.8 2.6s-1.7 2.5-2.2 4.1-0.7 3.5-0.7 5.5c0 1.9 0.2 3.7 0.7 5.2 0.3 1.7 1 3 1.9 4z"/>
<path class="st0" d="m161.1 30.8c1.2-0.1 2.4-0.5 3.3-1 1-0.6 1.8-1.4 2.3-2.5 0.6-1.1 0.9-2.6 0.9-4.5 0-1.4-0.2-2.5-0.6-3.5s-1-1.7-1.9-2.4c-0.9-0.6-2-1-3.4-1.3s-3.1-0.4-5.1-0.4h-2.1v-5.9c0-0.6 0.1-1 0.4-1.2s0.8-0.2 1.6-0.2h3c0.9 0 1.7 0 2.3 0.1s1.1 0.2 1.4 0.5c0.4 0.3 0.7 0.7 0.9 1.2s0.5 1.2 0.7 2.1h1.3v-5.5h-18.4v0.8c0.1 0 0.2 0.1 0.5 0.1 0.3 0.1 0.5 0.2 0.6 0.3s0.2 0.3 0.3 0.6c0 0.3 0.1 0.6 0.1 1v19.1c0 0.4 0 0.8-0.1 1 0 0.3-0.1 0.5-0.3 0.6-0.1 0.1-0.3 0.3-0.6 0.3-0.3 0.1-0.4 0.1-0.5 0.1v0.8h9.3c1.5 0 2.8 0 4.1-0.2zm-6.1-1.8c-0.2-0.2-0.3-0.4-0.3-0.7s-0.1-0.7-0.1-1.2v-10.4h2.1c1.9 0 3.3 0.5 4.1 1.5s1.2 2.6 1.2 4.8c0 1.5-0.1 2.6-0.4 3.5s-0.6 1.5-1.1 2c-0.5 0.4-1 0.7-1.5 0.9-0.6 0.1-1.2 0.2-1.8 0.2-0.6-0.1-1.1-0.1-1.4-0.2s-0.6-0.2-0.8-0.4z"/>
<path class="st0" d="m134.8 30.2c-0.1 0-0.2-0.1-0.5-0.1-0.3-0.1-0.5-0.2-0.6-0.3s-0.2-0.3-0.3-0.6c0-0.3-0.1-0.6-0.1-1v-6.9h2.5c1.3 0 2.5-0.1 3.7-0.3s2.2-0.6 3.1-1.1c0.9-0.6 1.6-1.3 2.1-2.4 0.5-1 0.8-2.4 0.8-4.1 0-1.6-0.3-2.9-0.7-3.8-0.5-0.9-1.2-1.7-2-2.2s-1.8-0.8-2.9-0.9-2.2-0.2-3.4-0.2h-9.8v0.8c0.1 0 0.2 0.1 0.5 0.1 0.3 0.1 0.5 0.2 0.6 0.3s0.2 0.3 0.3 0.6c0 0.3 0.1 0.6 0.1 1v19c0 0.4 0 0.8-0.1 1 0 0.3-0.1 0.5-0.3 0.6-0.1 0.1-0.3 0.3-0.6 0.3-0.3 0.1-0.4 0.1-0.5 0.1v0.8h8.1v-0.7zm-1.4-21.1c0-0.2 0-0.4 0.1-0.6 0-0.2 0.1-0.3 0.2-0.4s0.3-0.2 0.6-0.2 0.6-0.1 1.1-0.1c0.6 0 1.2 0.1 1.8 0.2 0.6 0.2 1 0.5 1.5 0.9 0.4 0.4 0.7 1 1 1.7 0.2 0.7 0.3 1.6 0.3 2.6 0 2.1-0.3 3.7-0.9 4.8s-1.7 1.7-3.2 1.7h-2.5v-10.6z"/>
<path class="st0" d="m123.4 25.3h-1.6c-0.2 1-0.4 1.7-0.6 2.3s-0.4 1-0.8 1.3c-0.3 0.3-0.8 0.5-1.4 0.5-0.6 0.1-1.4 0.1-2.5 0.1-1 0-1.8 0-2.3-0.1-0.6-0.1-1-0.2-1.3-0.4s-0.5-0.5-0.5-0.8c-0.1-0.4-0.1-0.8-0.1-1.4v-7.8h3.3 1s0.8 0.1 1.2 0.1 0.8 0.1 1.2 0.2 0.7 0.2 1 0.4v-3.2c-0.3 0.2-0.6 0.3-1 0.4s-0.8 0.2-1.2 0.2c-0.4 0.1-0.8 0.1-1.2 0.1h-1-3.3v-8.2c0-0.5 0.1-0.9 0.2-1.1 0.2-0.2 0.5-0.2 1-0.2h2.7c0.9 0 1.7 0 2.3 0.1s1.1 0.2 1.4 0.5c0.4 0.3 0.7 0.7 0.9 1.2s0.5 1.2 0.7 2.1h1.3v-5.3h-17.2v0.8c0.1 0 0.2 0.1 0.5 0.1 0.3 0.1 0.5 0.2 0.6 0.3s0.2 0.3 0.3 0.6c0 0.3 0.1 0.6 0.1 1v19c0 0.4 0 0.8-0.1 1 0 0.3-0.1 0.5-0.3 0.6-0.1 0.1-0.3 0.3-0.6 0.3-0.3 0.1-0.4 0.1-0.5 0.1v0.8h17.8v-5.6z"/>
<path class="st0" d="m96.2 30.8c1.2-0.1 2.4-0.5 3.3-1 1-0.6 1.8-1.4 2.4-2.5s0.9-2.6 0.9-4.5c0-1.4-0.2-2.5-0.6-3.5s-1-1.7-1.9-2.4c-0.9-0.6-2-1-3.4-1.3s-3.1-0.4-5.1-0.4h-2.1v-5.9c0-0.6 0.1-1 0.4-1.2s0.8-0.2 1.6-0.2h3c0.9 0 1.7 0 2.3 0.1s1.1 0.2 1.4 0.5c0.4 0.3 0.7 0.7 0.9 1.2s0.5 1.2 0.7 2.1h1.3v-5.5h-18.4v0.8c0.1 0 0.2 0.1 0.5 0.1 0.3 0.1 0.5 0.2 0.6 0.3s0.2 0.3 0.3 0.6c0 0.3 0.1 0.6 0.1 1v17.6 0.1 1.3c0 0.4 0 0.7-0.1 1 0 0.3-0.1 0.5-0.3 0.6-0.1 0.1-0.3 0.3-0.6 0.3-0.3 0.1-0.4 0.1-0.5 0.1v0.9h9.3c1.5 0 2.7 0 4-0.2zm-6.1-1.8c-0.2-0.2-0.3-0.4-0.3-0.7s-0.1-0.7-0.1-1.2v-10.4h2.1c1.9 0 3.3 0.5 4.1 1.5s1.2 2.6 1.2 4.8c0 1.5-0.1 2.6-0.4 3.5s-0.6 1.5-1.1 2c-0.5 0.4-1 0.7-1.5 0.9-0.6 0.1-1.2 0.2-1.8 0.2-0.6-0.1-1-0.1-1.4-0.2-0.3-0.1-0.6-0.2-0.8-0.4z"/>
<rect class="st0" x="60.5" y="38" width="181.3" height="2.4"/>
<path class="st0" d="m227.3 21.7c0.5 0.7 0.9 1.3 1.4 1.9 0.4 0.6 0.9 1.2 1.3 1.8s0.8 1.2 1.3 1.8c0.5 0.7 0.9 1.3 1.3 2 0.4 0.6 0.7 1.3 1 1.9l8.4 0.1c-0.9-0.9-1.7-1.8-2.6-2.7-0.8-0.9-1.5-1.7-2-2.2-0.8-0.9-1.5-1.7-2.1-2.4-0.7-0.8-1.3-1.5-1.9-2.2s-1.2-1.5-1.7-2.2-1.1-1.6-1.6-2.4l0.4-0.5c0.6-0.8 1.3-1.6 2.1-2.6s1.6-2 2.5-2.9c0.9-1 1.7-1.9 2.6-2.7s1.6-1.4 2.3-1.9h-5.8c-0.2 0.5-0.5 1.1-0.9 1.8s-0.8 1.5-1.4 2.3c-0.5 0.8-1.1 1.7-1.6 2.6-0.6 0.9-1.1 1.7-1.7 2.5s-1.1 1.6-1.6 2.2c-0.5 0.7-0.9 1.2-1.2 1.7l1.5 2.1z"/>
<path class="st0" d="m226.6 30.2c-0.1 0-0.2-0.1-0.5-0.1-0.3-0.1-0.5-0.2-0.6-0.3s-0.2-0.3-0.3-0.6c0-0.3-0.1-0.6-0.1-1v-19c0-0.4 0-0.8 0.1-1 0-0.3 0.1-0.5 0.3-0.6 0.1-0.1 0.3-0.2 0.6-0.3s0.4-0.1 0.5-0.1v-0.9h-8.1v0.8c0.1 0 0.2 0.1 0.5 0.1 0.3 0.1 0.5 0.2 0.6 0.3s0.2 0.3 0.3 0.6c0 0.3 0.1 0.6 0.1 1v19c0 0.4 0 0.8-0.1 1 0 0.3-0.1 0.5-0.3 0.6-0.1 0.1-0.3 0.3-0.6 0.3-0.3 0.1-0.4 0.1-0.5 0.1v0.8h8.1v-0.7z"/>
<path class="st0" d="m172.8 28c0.3-1.4 0.9-3.4 1.7-5.9h7.9l1.1 3.2c0.5 1.4 0.9 2.6 1.1 3.6 0.3 1 0.5 1.7 0.5 2.2h6.3c-0.3-0.5-0.6-1.2-1-2s-0.9-2-1.4-3.5l-5.7-16.2c-0.3-0.7-0.4-1.3-0.5-1.8s-0.1-0.9-0.2-1.2h-7.1v0.8c0.1 0 0.2 0.1 0.5 0.1 0.3 0.1 0.5 0.2 0.6 0.3s0.2 0.3 0.3 0.6v0.5c0 0.6-0.1 1.2-0.3 1.6l-4 9.8c-0.7 1.8-1.4 3.4-1.9 4.6s-1 2.3-1.3 3.1c-0.4 0.8-0.7 1.5-1 2s-0.5 0.9-0.7 1.3h4.5c0.1-0.7 0.3-1.7 0.6-3.1zm5.7-17.6l3.3 10h-6.8l3.5-10z"/>
<path class="st0" d="m200.9 30.2h-0.2c-0.1 0-0.2-0.1-0.5-0.1-0.3-0.1-0.5-0.2-0.6-0.3s-0.2-0.3-0.3-0.6c0-0.3-0.1-0.6-0.1-1v-9.5h9.6v9.4c0 0.4 0 0.8-0.1 1 0 0.3-0.1 0.5-0.3 0.6-0.1 0.1-0.3 0.3-0.6 0.3-0.3 0.1-0.4 0.1-0.5 0.1v0.8h8.1v-0.8c-0.1 0-0.2-0.1-0.5-0.1-0.3-0.1-0.5-0.2-0.6-0.3s-0.2-0.3-0.3-0.6c0-0.3-0.1-0.6-0.1-1v-19.1c0-0.4 0-0.8 0.1-1 0-0.3 0.1-0.5 0.3-0.6 0.1-0.1 0.3-0.2 0.6-0.3s0.4-0.1 0.5-0.1v-0.7h-7.9v0.8c0.1 0 0.2 0.1 0.5 0.1 0.3 0.1 0.5 0.2 0.6 0.3s0.2 0.3 0.3 0.6c0 0.3 0.1 0.6 0.1 1v7.9h-9.6v-7.9c0-0.4 0-0.8 0.1-1 0-0.3 0.1-0.5 0.3-0.6 0.1-0.1 0.3-0.2 0.6-0.3s0.4-0.1 0.5-0.1v-0.8h-8.1v0.8c0.1 0 0.2 0.1 0.5 0.1 0.3 0.1 0.5 0.2 0.6 0.3s0.2 0.3 0.3 0.6c0 0.3 0.1 0.6 0.1 1v19.1c0 0.4 0 0.7-0.1 1 0 0.3-0.1 0.5-0.3 0.6-0.1 0.1-0.3 0.3-0.6 0.3-0.3 0.1-0.4 0.1-0.5 0.1v0.8h8.1v-0.8z"/>
<path class="st0" d="m44 8.9l-1.5-2.1-27.7 15.9-13.4-7.7c-0.3 0.9-0.5 1.7-0.6 2.6l14.1 8.1 29.1-16.8z"/>
<path class="st0" d="m14.8 28.7l-14.4-8.3c-0.1 0.5-0.1 1.1-0.1 1.6 0 13.1 10.6 23.8 23.8 23.8 13.1 0 23.8-10.6 23.8-23.8 0-3.9-0.9-7.6-2.6-10.8l-30.5 17.5z"/>
<path class="st0" d="M40.6,4.8c-0.7-0.7-1.4-1.2-2.1-1.8L14.8,16.7L3.4,10.2c-0.4,0.7-0.8,1.5-1.2,2.3l12.5,7.2L40.6,4.8z"/>
<path class="st0" d="M36.1,1.4c-0.9-0.5-1.8-1-2.8-1.4L14.8,10.7L6.5,6C5.9,6.6,5.4,7.3,4.8,8l9.9,5.7L36.1,1.4z"/>
	<path class="st0" d="m162 58.5l1.9-9.8h3.1c1.8 0 2.6 0.9 2.6 2.3 0 1.3-0.8 2-2.3 2.5 1 0.4 1.6 1.1 1.6 2.1 0 1.8-1.2 2.8-3.6 2.8h-3.3zm1.2-0.9h2.3c1.5 0 2.4-0.8 2.4-2 0-0.9-0.8-1.8-2.3-1.8h-1.8l-0.6 3.8zm0.9-4.6h2c1.7 0 2.6-0.8 2.6-2 0-1-0.6-1.5-1.8-1.5h-2l-0.8 3.5z"/>
	<path class="st0" d="m175.7 56.7c-0.6 1.1-1.3 1.9-2.7 1.9-1.6 0-2.7-1.3-2.7-3.1 0-2.2 1.4-4.1 3.3-4.1 1.4 0 2.1 0.8 2.5 2l-0.9 0.2c-0.3-0.9-0.8-1.4-1.6-1.4-1.3 0-2.4 1.4-2.4 3.4 0 1.4 0.7 2.1 1.9 2.1 1.1 0 1.5-0.6 1.9-1.3l0.7 0.3z"/>
	<path class="st0" d="m177.8 55.1v0.5c0 1.4 0.7 2.2 1.8 2.2 1 0 1.6-0.7 2.2-1.6l0.8 0.4c-0.8 1.2-1.6 2-3.1 2-1.6 0-2.6-1.2-2.6-3 0-2.4 1.4-4.2 3.4-4.2 1.6 0 2.5 1 2.5 2.8 0 0.3-0.1 0.6-0.1 0.9h-4.9zm4.1-0.8c0.1-0.2 0-0.3 0-0.4 0-0.8-0.5-1.6-1.6-1.6-1.3 0-1.9 0.8-2.3 2.1h3.9z"/>
	<path class="st0" d="m185.1 51.6h3.9l-0.1 0.8h-3l-1.2 6.1h-0.9l1.3-6.9z"/>
	<path class="st0" d="m188.2 57.7l2.9-6.1h1.4l0.8 6.1h0.7l-0.4 2.1h-0.7l0.1-1.3h-4.7l-0.4 1.3h-0.7l0.4-2.1h0.6zm4.1 0l-0.5-5.2h-0.2l-2.4 5.2h3.1z"/>
	<path class="st0" d="m199.7 54.4c0-0.3 0.1-0.6 0.1-0.8 0-0.8-0.6-1.3-1.5-1.3-0.6 0-1.1 0.3-1.5 0.8l-0.6-0.6c0.6-0.5 1.3-1 2.3-1 1.4 0 2.3 0.9 2.3 2 0 0.2-0.1 0.6-0.1 1.1l-0.5 2.3c-0.2 0.8-0.2 1.3-0.2 1.7h-0.9c-0.1-0.2-0.1-0.5-0.1-0.8-0.6 0.5-1.2 0.9-2 0.9-1.1 0-2-0.9-2-2 0-1.4 1.3-2.3 3.7-2.3h1zm-0.2 0.7h-0.7c-1.9 0-2.9 0.5-2.9 1.5 0 0.7 0.5 1.2 1.2 1.2s1.3-0.4 2-0.9l0.4-1.8z"/>
	<path class="st0" d="m208 52.4c0.6-0.6 1.2-1 2-1 1.5 0 2.3 1 2.3 2.9 0 2.5-1.5 4.3-3.3 4.3-0.9 0-1.5-0.4-2-0.9l-0.7 3.5h-0.9l1.9-9.7h0.8l-0.1 0.9zm-0.8 4.4c0.4 0.6 0.9 1 1.8 1 1.3 0 2.5-1.5 2.5-3.6 0-1.3-0.6-2-1.6-2-0.7 0-1.4 0.3-1.9 1.2l-0.8 3.4z"/>
	<path class="st0" d="m216.2 55.3l-2.2 3.2h-1l2.3-3.2c-0.9-0.3-1.4-1-1.4-1.8 0-0.9 0.8-1.9 2.4-1.9h3.3l-1.4 6.9h-0.9l0.6-3.2h-1.7zm2.2-3h-2.2c-1 0-1.5 0.6-1.5 1.1 0 0.7 0.4 1 1.2 1h2l0.5-2.1z"/>
	<path class="st0" d="m220.5 57.7l2.9-6.1h1.4l0.8 6.1h0.7l-0.4 2.1h-0.7l0.1-1.3h-4.7l-0.4 1.3h-0.7l0.4-2.1h0.6zm4 0l-0.5-5.2h-0.2l-2.4 5.2h3.1z"/>
	<path class="st0" d="m227.1 55.6c0-2.4 1.5-4.2 3.3-4.2 1.5 0 2.4 1.2 2.4 3 0 2.3-1.5 4.2-3.3 4.2-1.4 0-2.4-1.1-2.4-3zm0.9 0.2c0 1.3 0.7 2 1.6 2 1.2 0 2.4-1.5 2.4-3.5 0-1.3-0.7-2.1-1.6-2.1-1.2 0-2.4 1.5-2.4 3.6z"/>
	<path class="st0" d="m240.8 52.4l-3 6.1h-0.9l-0.9-6.1-1.2 6.1h-0.9l1.4-6.9h1.5l0.8 6 2.9-6h1.5l-1.4 6.9h-0.9l1.1-6.1z"/>
</svg>
