<svg xmlns="http://www.w3.org/2000/svg" viewBox="0 0 134.419 134.207" width="135" height="135"><defs><clipPath id="A"><path d="M0-2.212h135.317v138.5H0z" fill="#000" fill-opacity="1"/></clipPath></defs><path d="M289.1 28.1c0 4.6-4.1 8.3-9.2 8.3s-9.2-3.7-9.2-8.3 4.1-8.3 9.2-8.3c5-.1 9.2 3.7 9.2 8.3zm-207 61c-11.9 14.6-27.2 23.4-43.1 23.4-26.9 0-36.1-23.5-23.3-38.9 2.8-3.4 7.5-6.6 14.9-8.4 11.5-2.8 29.7 1.7 46.8 7.4C80.5 67 83 60.7 85 54.1H32.2v-5.3h27.2v-9.6H26.5v-5.3h32.9V20.3s0-2.3 2.3-2.3H75v15.9h32.6v5.3H75.1v9.6h26.5c-2.5 10.4-6.4 20-11.2 28.3l20.7 7.5c19.4 6.5 23.8 6.8 23.8 6.8V21.7c0-11.9-9.7-21.5-21.6-21.5H21.6C9.7.2 0 9.9 0 21.7v91.4c0 11.9 9.7 21.5 21.6 21.5h91.7c11.9 0 21.6-9.7 21.6-21.5v-.9S99.8 97.6 82.1 89.1zM32.8 73.2c-3.4.3-9.7 1.8-13.2 4.9-10.4 9-4.2 25.5 16.8 25.5 12.2 0 24.4-7.8 34-20.2C56.9 76.7 45.3 72 32.8 73.2z" clip-path="url(#A)" transform="translate(0 -.297)" fill="#00adee"/></svg>