<?xml version="1.0" encoding="UTF-8"?>
<svg width="11.253mm" height="16.337mm" version="1.1" viewBox="0 0 39.872 57.887" xmlns="http://www.w3.org/2000/svg" xmlns:cc="http://creativecommons.org/ns#" xmlns:dc="http://purl.org/dc/elements/1.1/" xmlns:rdf="http://www.w3.org/1999/02/22-rdf-syntax-ns#">
<metadata>
<rdf:RDF>
<cc:Work rdf:about="">
<dc:format>image/svg+xml</dc:format>
<dc:type rdf:resource="http://purl.org/dc/dcmitype/StillImage"/>
<dc:title/>
</cc:Work>
</rdf:RDF>
</metadata>
<g transform="translate(-111.49 -231.99)">
<path d="m121.41 231.99h20.045c4.8288 0 8.8795 3.4998 9.7434 8.0884h-11.767l-0.18062-4e-3h-15.637c-2.2174-1e-5 -4.0324 1.8149-4.0324 4.0334v15.636c0 2.2192 1.815 4.0341 4.0324 4.0341h15.637c2.2178 0 4.0332-1.8149 4.0332-4.0341v-3.8395h-14.464v-2e-3c0-4.3756 3.5799-7.9538 7.9555-7.9538h6.5086v-0.0116h8.0848v14.011c0 5.4528-4.4606 9.9138-9.9138 9.9138h-20.045c-5.4521-5e-5 -9.9138-4.461-9.9138-9.9138v-20.045c0-5.4521 4.4616-9.9139 9.9138-9.9139zm-9.3139 57.886h19.883 0.32812 11.075c4.3752 0 7.9555-3.578 7.9555-7.954v-1e-3h-19.031-0.32812-11.928c-4.3764 0-7.9554 3.5791-7.9554 7.9544v7.5e-4z" fill="#40bfc5" fill-rule="evenodd"/>
</g>
</svg>
