<?xml version="1.0" encoding="UTF-8"?>
<svg version="1.1" viewBox="0 0 755.66 239.75" xmlns="http://www.w3.org/2000/svg" xmlns:cc="http://creativecommons.org/ns#" xmlns:dc="http://purl.org/dc/elements/1.1/" xmlns:rdf="http://www.w3.org/1999/02/22-rdf-syntax-ns#">
<metadata>
<rdf:RDF>
<cc:Work rdf:about="">
<dc:format>image/svg+xml</dc:format>
<dc:type rdf:resource="http://purl.org/dc/dcmitype/StillImage"/>
<dc:title/>
</cc:Work>
</rdf:RDF>
</metadata>
<rect x="-1.6204" y="-2.2166" width="760.6" height="246.28" fill-opacity="0"/>
<defs>
<clipPath id="a">
<path d="m0 2834.6h2834.6v-2834.6h-2834.6z"/>
</clipPath>
</defs>
<g transform="matrix(.25929 0 0 .25929 -112.17 -370.13)">
<g transform="matrix(1.3333 0 0 -1.3333 0 3779.5)">
<path d="m942.1 1623.1h58.179v-222.08h-58.179z" fill="#2b394c"/>
<g clip-path="url(#a)">
<g transform="translate(1041.1 1556.3)">
<path d="m0 0c0 24.525-1.334 45.87-1.777 66.761h50.185l2.664-25.433h0.889c11.547 17.713 30.2 29.065 52.85 29.065 41.302 0 57.734-33.607 57.734-83.108v-142.6h-58.179v138.97c0 19.075-4.441 36.786-21.316 36.786-9.771 0-17.766-6.812-21.762-19.983-1.777-4.54-3.109-11.807-3.109-20.435v-135.34h-58.179z" fill="#2b394c"/>
</g>
<g transform="translate(1312.9 1683)">
<path d="m0 0v-59.947h42.635v-42.236h-42.635v-101.28c0-25.887 10.659-32.245 22.207-32.245 5.773 0 10.214 0.454 15.099 1.363l0.445-46.324c-7.996-2.27-19.987-4.086-35.53-4.086-16.876 0-31.533 4.086-41.747 14.079-11.991 11.806-18.653 28.611-18.653 63.579v104.91h-25.759v42.236h25.759v45.868z" fill="#2b394c"/>
</g>
<g transform="translate(1480.4 1532.7)">
<path d="m0 0c0 28.611-7.107 50.865-24.427 50.865-19.097 0-26.647-28.612-27.092-50.865zm-51.962-41.782c0.888-34.514 20.43-47.23 46.187-47.23 16.432 0 31.089 3.632 41.303 7.266l7.996-42.69c-15.101-5.904-37.751-9.991-59.958-9.991-59.067 0-91.487 39.964-91.487 109.45 0 74.479 37.749 118.99 87.046 118.99 46.633 0 73.724-37.694 73.724-104.91 0-15.896-0.443-24.525-1.777-30.883z" fill="#2b394c"/>
</g>
<g transform="translate(1565.6 1556.3)">
<path d="m0 0c0 22.253-0.887 46.324-1.777 66.761h50.628l3.111-32.245h1.334c9.769 23.615 27.09 35.877 43.077 35.877 5.775 0 8.882 0 12.436-0.908v-59.039c-3.554 0.908-7.552 0.908-12.436 0.908-12.433 0-28.867-8.628-35.529-31.789-1.333-4.996-2.22-12.717-2.22-22.253v-112.63h-58.624z" fill="#2b394c"/>
</g>
<g transform="translate(1754.4 1525.9)">
<path d="m0 0h0.887c3.998 12.717 7.105 21.799 11.102 30.882l27.98 66.307h62.622l-52.406-93.101 55.513-128.98h-64.842l-31.087 91.284-9.769-19.075v-72.209h-58.181v314.27h58.181z" fill="#32ac4c"/>
</g>
<g transform="translate(1974.6 1509.1)">
<path d="m0 0c-19.541-0.454-46.188-6.812-46.188-37.694 0-22.253 11.993-30.427 20.876-30.427 9.325 0 19.984 5.902 23.982 19.073 0.887 3.18 1.33 6.812 1.33 10.446zm7.995-108.09-3.111 21.799h-0.886c-11.99-17.257-28.867-25.432-47.965-25.432-32.865 0-57.29 28.156-57.29 67.668 0 58.131 50.185 82.2 99.48 82.654v4.996c0 17.257-10.212 29.974-30.644 29.974-17.321 0-31.531-4.542-44.411-12.717l-10.659 39.966c11.993 7.266 37.306 16.803 67.506 16.803 66.173 0 76.832-47.231 76.832-92.193v-82.654c0-17.711 0.89-35.878 3.554-50.864z" fill="#32ac4c"/>
</g>
<g transform="translate(2071 1454.6)">
<path d="m0 0c8.435-5.448 24.426-11.807 39.079-11.807 15.1 0 23.539 6.813 23.539 19.981 0 11.355-6.218 18.621-25.313 29.976-35.531 20.435-43.97 43.598-43.97 64.033 0 39.966 27.98 69.939 71.504 69.939 18.211 0 32.421-4.542 43.967-9.99l-10.213-43.598c-8.438 4.994-18.654 9.082-30.2 9.082-14.657 0-21.762-9.082-21.762-19.075 0-9.99 4.884-15.44 25.313-27.703 31.977-18.619 43.97-41.78 43.97-67.213 0-45.415-31.977-69.938-76.835-69.938-18.207 0-39.526 4.995-49.738 12.715z" fill="#32ac4c"/>
</g>
<g transform="translate(2214.9 1454.6)">
<path d="m0 0c8.435-5.448 24.426-11.807 39.079-11.807 15.1 0 23.539 6.813 23.539 19.981 0 11.355-6.218 18.621-25.312 29.976-35.532 20.435-43.971 43.598-43.971 64.033 0 39.966 27.98 69.939 71.504 69.939 18.211 0 32.421-4.542 43.967-9.99l-10.212-43.598c-8.439 4.994-18.655 9.082-30.201 9.082-14.657 0-21.762-9.082-21.762-19.075 0-9.99 4.884-15.44 25.313-27.703 31.977-18.619 43.97-41.78 43.97-67.213 0-45.415-31.977-69.938-76.835-69.938-18.207 0-39.526 4.995-49.738 12.715z" fill="#32ac4c"/>
</g>
<g transform="translate(2449.8 1509.1)">
<path d="m0 0c-19.542-0.454-46.188-6.812-46.188-37.694 0-22.253 11.993-30.427 20.875-30.427 9.326 0 19.985 5.902 23.983 19.073 0.886 3.18 1.33 6.812 1.33 10.446zm7.995-108.09-3.111 21.799h-0.886c-11.99-17.257-28.867-25.432-47.965-25.432-32.865 0-57.29 28.156-57.29 67.668 0 58.131 50.185 82.2 99.48 82.654v4.996c0 17.257-10.213 29.974-30.644 29.974-17.321 0-31.531-4.542-44.411-12.717l-10.659 39.966c11.993 7.266 37.306 16.803 67.506 16.803 66.173 0 76.832-47.231 76.832-92.193v-82.654c0-17.711 0.89-35.878 3.554-50.864z" fill="#32ac4c"/>
</g>
<g transform="translate(325.07 1253.4)">
<path d="m0 0v-73.856s119.87-108.97 248.21-108.97 237.81 108.97 237.81 108.97v72.645c0.011 0.672-116.13-71.721-236.3-71.586-122.82 0.138-249.72 72.797-249.72 72.797" fill="#5bc23c"/>
</g>
<g transform="translate(811.04 1525.1)">
<path d="m0 0v2.949h-0.074c-3.723 130.98-111 236.04-242.88 236.04s-239.16-105.06-242.88-236.04h-0.178v-236.45s107.51-66.301 253.71-66.301c138.63 0 232.31 67.501 232.31 67.501v224.17c0.022 1.359 0.103 2.703 0.103 4.067s-0.081 2.708-0.103 4.067" fill="#32ac4c"/>
</g>
<g transform="translate(577.06 1397.3)">
<path d="m0 0c49.399 0 89.445 40.046 89.445 89.445s-40.046 89.445-89.445 89.445-89.445-40.046-89.445-89.445 40.046-89.445 89.445-89.445" fill="#fff"/>
</g>
<g transform="translate(702.31 1244.5)">
<path d="m0 0c-5.654 77.442-59.553 138.19-125.25 138.19-66.402 0-120.74-62.064-125.4-140.7-74.391 20.376-127.21 50.799-127.21 50.799v-40.089s132.75-74.154 252.52-74.154 234.6 70.299 234.6 70.299l0.052 43.944s-57.941-33.371-109.31-48.286" fill="#fff"/>
</g>
<g transform="translate(960.62 1271.3)">
<path d="m0 0c0-1.72 0.264-3.31 0.53-4.766 2.118-8.077 9.136-13.638 17.477-13.638 12.314 0 19.465 10.063 19.465 24.76 0 12.843-6.754 23.834-19.068 23.834-7.943 0-15.359-5.693-17.609-14.434-0.398-1.456-0.795-3.176-0.795-4.765zm-11.519 17.081c0 8.21-0.265 14.829-0.531 20.921h10.461l0.53-10.99h0.264c4.768 7.812 12.314 12.447 22.775 12.447 15.492 0 27.143-13.109 27.143-32.574 0-23.039-14.034-34.425-29.129-34.425-8.475 0-15.89 3.707-19.73 10.063h-0.264v-34.824h-11.519z" fill="#4f4c4d"/>
</g>
<g transform="translate(1058.2 1277.9)">
<path d="m0 0c-12.711 0.264-27.143-1.986-27.143-14.432 0-7.548 5.032-11.124 10.989-11.124 8.343 0 13.639 5.298 15.492 10.727 0.398 1.19 0.662 2.515 0.662 3.707zm1.722-32.705-0.927 8.077h-0.398c-3.574-5.032-10.46-9.533-19.596-9.533-12.976 0-19.596 9.136-19.596 18.405 0 15.492 13.77 23.966 38.531 23.833v1.325c0 5.296-1.456 14.829-14.565 14.829-5.959 0-12.183-1.854-16.684-4.766l-2.648 7.68c5.296 3.442 12.976 5.693 21.052 5.693 19.597 0 24.364-13.373 24.364-26.217v-23.967c0-5.56 0.264-10.989 1.059-15.359z" fill="#4f4c4d"/>
</g>
<g transform="translate(1091.5 1309.3)">
<path d="m0 0 14.034-37.869c1.458-4.238 3.047-9.269 4.106-13.109h0.264c1.192 3.84 2.517 8.738 4.104 13.373l12.712 37.605h12.316l-17.479-45.682c-8.341-21.98-14.036-33.235-21.98-40.12-5.693-5.032-11.387-7.016-14.301-7.547l-2.912 9.799c2.912 0.926 6.752 2.779 10.195 5.693 3.178 2.515 7.151 7.018 9.799 12.976 0.528 1.192 0.926 2.119 0.926 2.781 0 0.661-0.265 1.589-0.795 3.045l-23.7 59.055z" fill="#4f4c4d"/>
</g>
<g transform="translate(1149.6 1292)">
<path d="m0 0c0 6.619-0.133 12.048-0.53 17.346h10.196l0.529-10.33h0.397c3.575 6.093 9.535 11.786 20.126 11.786 8.739 0 15.36-5.296 18.141-12.844h0.264c1.986 3.575 4.503 6.356 7.151 8.342 3.84 2.913 8.077 4.502 14.167 4.502 8.474 0 21.053-5.562 21.053-27.806v-37.737h-11.387v36.28c0 12.314-4.501 19.73-13.903 19.73-6.621 0-11.783-4.901-13.77-10.594-0.53-1.589-0.927-3.707-0.927-5.826v-39.59h-11.387v38.398c0 10.196-4.503 17.612-13.374 17.612-7.283 0-12.579-5.826-14.432-11.653-0.662-1.722-0.928-3.708-0.928-5.693v-38.664h-11.386z" fill="#4f4c4d"/>
</g>
<g transform="translate(1300.7 1283.5)">
<path d="m0 0c0.133 7.414-3.045 18.935-16.154 18.935-11.783 0-16.948-10.858-17.874-18.935zm-34.161-8.343c0.264-15.756 10.328-22.244 21.98-22.244 8.341 0 13.373 1.456 17.743 3.309l1.986-8.341c-4.105-1.853-11.122-3.973-21.318-3.973-19.729 0-31.513 12.978-31.513 32.31 0 19.33 11.386 34.558 30.057 34.558 20.921 0 26.481-18.405 26.481-30.19 0-2.384-0.264-4.237-0.397-5.429z" fill="#4f4c4d"/>
</g>
<g transform="translate(1326.4 1292)">
<path d="m0 0c0 6.619-0.133 12.048-0.53 17.346h10.327l0.664-10.594h0.264c3.178 6.091 10.593 12.05 21.185 12.05 8.872 0 22.642-5.296 22.642-27.276v-38.267h-11.651v36.942c0 10.328-3.841 18.935-14.831 18.935-7.679 0-13.638-5.429-15.623-11.917-0.53-1.456-0.795-3.443-0.795-5.429v-38.531h-11.652z" fill="#4f4c4d"/>
</g>
<g transform="translate(1413.4 1327.7)">
<path d="m0 0v-18.405h16.684v-8.871h-16.684v-34.56c0-7.944 2.252-12.445 8.74-12.445 3.045 0 5.296 0.397 6.752 0.794l0.53-8.74c-2.25-0.926-5.826-1.589-10.327-1.589-5.429 0-9.799 1.722-12.58 4.9-3.31 3.443-4.501 9.136-4.501 16.683v34.957h-9.931v8.871h9.931v15.36z" fill="#4f4c4d"/>
</g>
<g transform="translate(1505 1277.9)">
<path d="m0 0c-12.711 0.264-27.143-1.986-27.143-14.432 0-7.548 5.032-11.124 10.989-11.124 8.343 0 13.639 5.298 15.492 10.727 0.398 1.19 0.662 2.515 0.662 3.707zm1.722-32.705-0.927 8.077h-0.398c-3.575-5.032-10.46-9.533-19.596-9.533-12.976 0-19.596 9.136-19.596 18.405 0 15.492 13.77 23.966 38.531 23.833v1.325c0 5.296-1.456 14.829-14.565 14.829-5.959 0-12.183-1.854-16.684-4.766l-2.648 7.68c5.296 3.442 12.976 5.693 21.052 5.693 19.597 0 24.364-13.373 24.364-26.217v-23.967c0-5.56 0.266-10.989 1.061-15.359z" fill="#4f4c4d"/>
</g>
<g transform="translate(1580.8 1247.6)">
<path d="m0 0c-3.043-1.589-9.797-3.709-18.403-3.709-19.332 0-31.914 13.109-31.914 32.707 0 19.727 13.508 34.028 34.429 34.028 6.885 0 12.976-1.72 16.154-3.31l-2.65-9.004c-2.781 1.589-7.147 3.045-13.504 3.045-14.699 0-22.641-10.858-22.641-24.231 0-14.828 9.531-23.966 22.244-23.966 6.619 0 10.989 1.722 14.299 3.178z" fill="#4f4c4d"/>
</g>
<g transform="translate(1639.3 1247.6)">
<path d="m0 0c-3.043-1.589-9.797-3.709-18.403-3.709-19.332 0-31.913 13.109-31.913 32.707 0 19.727 13.507 34.028 34.428 34.028 6.885 0 12.976-1.72 16.154-3.31l-2.65-9.004c-2.781 1.589-7.147 3.045-13.504 3.045-14.699 0-22.641-10.858-22.641-24.231 0-14.828 9.531-23.966 22.244-23.966 6.619 0 10.989 1.722 14.299 3.178z" fill="#4f4c4d"/>
</g>
<g transform="translate(1692.8 1283.5)">
<path d="m0 0c0.131 7.414-3.047 18.935-16.154 18.935-11.787 0-16.948-10.858-17.877-18.935zm-34.163-8.343c0.266-15.756 10.33-22.244 21.979-22.244 8.342 0 13.376 1.456 17.742 3.309l1.987-8.341c-4.104-1.853-11.12-3.973-21.315-3.973-19.729 0-31.516 12.978-31.516 32.31 0 19.33 11.389 34.558 30.058 34.558 20.921 0 26.483-18.405 26.483-30.19 0-2.384-0.266-4.237-0.397-5.429z" fill="#4f4c4d"/>
</g>
<g transform="translate(1730 1271.3)">
<path d="m0 0c0-1.72 0.266-3.31 0.532-4.766 2.118-8.077 9.134-13.638 17.477-13.638 12.316 0 19.463 10.063 19.463 24.76 0 12.843-6.75 23.834-19.066 23.834-7.945 0-15.359-5.693-17.611-14.434-0.398-1.456-0.795-3.176-0.795-4.765zm-11.518 17.081c0 8.21-0.266 14.829-0.528 20.921h10.46l0.529-10.99h0.266c4.764 7.812 12.312 12.447 22.773 12.447 15.49 0 27.143-13.109 27.143-32.574 0-23.039-14.036-34.425-29.13-34.425-8.474 0-15.887 3.707-19.729 10.063h-0.266v-34.824h-11.518z" fill="#4f4c4d"/>
</g>
<g transform="translate(1807.9 1327.7)">
<path d="m0 0v-18.405h16.682v-8.871h-16.682v-34.56c0-7.944 2.249-12.445 8.737-12.445 3.047 0 5.299 0.397 6.753 0.794l0.529-8.74c-2.249-0.926-5.824-1.589-10.326-1.589-5.431 0-9.797 1.722-12.578 4.9-3.313 3.443-4.501 9.136-4.501 16.683v34.957h-9.932v8.871h9.932v15.36z" fill="#4f4c4d"/>
</g>
<g transform="translate(1871.5 1277.9)">
<path d="m0 0c-12.713 0.264-27.146-1.986-27.146-14.432 0-7.548 5.033-11.124 10.992-11.124 8.34 0 13.635 5.298 15.491 10.727 0.397 1.19 0.663 2.515 0.663 3.707zm1.72-32.705-0.925 8.077h-0.398c-3.575-5.032-10.46-9.533-19.598-9.533-12.975 0-19.598 9.136-19.598 18.405 0 15.492 13.774 23.966 38.533 23.833v1.325c0 5.296-1.458 14.829-14.565 14.829-5.959 0-12.181-1.854-16.682-4.766l-2.65 7.68c5.296 3.442 12.976 5.693 21.053 5.693 19.598 0 24.365-13.373 24.365-26.217v-23.967c0-5.56 0.263-10.989 1.057-15.359z" fill="#4f4c4d"/>
</g>
<g transform="translate(1901.5 1292)">
<path d="m0 0c0 6.619-0.131 12.048-0.529 17.346h10.326l0.664-10.594h0.266c3.174 6.091 10.591 12.05 21.183 12.05 8.872 0 22.642-5.296 22.642-27.276v-38.267h-11.653v36.942c0 10.328-3.838 18.935-14.827 18.935-7.683 0-13.639-5.429-15.625-11.917-0.532-1.456-0.795-3.443-0.795-5.429v-38.531h-11.652z" fill="#4f4c4d"/>
</g>
<g transform="translate(2020.7 1247.6)">
<path d="m0 0c-3.043-1.589-9.797-3.709-18.403-3.709-19.332 0-31.913 13.109-31.913 32.707 0 19.727 13.507 34.028 34.428 34.028 6.885 0 12.976-1.72 16.154-3.31l-2.65-9.004c-2.781 1.589-7.147 3.045-13.504 3.045-14.699 0-22.641-10.858-22.641-24.231 0-14.828 9.531-23.966 22.244-23.966 6.619 0 10.989 1.722 14.299 3.178z" fill="#4f4c4d"/>
</g>
<g transform="translate(2074.2 1283.5)">
<path d="m0 0c0.131 7.414-3.047 18.935-16.154 18.935-11.787 0-16.948-10.858-17.877-18.935zm-34.163-8.343c0.266-15.756 10.33-22.244 21.978-22.244 8.343 0 13.377 1.456 17.743 3.309l1.987-8.341c-4.104-1.853-11.12-3.973-21.315-3.973-19.729 0-31.517 12.978-31.517 32.31 0 19.33 11.39 34.558 30.059 34.558 20.921 0 26.483-18.405 26.483-30.19 0-2.384-0.266-4.237-0.397-5.429z" fill="#4f4c4d"/>
</g>
<g transform="translate(2126.4 1257.2)">
<path d="m0 0c3.444-2.251 9.535-4.634 15.359-4.634 8.474 0 12.447 4.237 12.447 9.533 0 5.562-3.309 8.607-11.918 11.785-11.518 4.104-16.949 10.461-16.949 18.14 0 10.328 8.343 18.802 22.113 18.802 6.488 0 12.181-1.853 15.757-3.973l-2.913-8.474c-2.514 1.589-7.15 3.709-13.106 3.709-6.889 0-10.727-3.973-10.727-8.741 0-5.296 3.838-7.679 12.181-10.858 11.124-4.237 16.817-9.797 16.817-19.33 0-11.255-8.74-19.201-23.968-19.201-7.016 0-13.504 1.723-18.005 4.371z" fill="#4f4c4d"/>
</g>
<g transform="translate(2184.7 1309.3)">
<path d="m0 0 14.036-37.869c1.458-4.238 3.047-9.269 4.104-13.109h0.266c1.192 3.84 2.515 8.738 4.104 13.373l12.713 37.605h12.312l-17.476-45.682c-8.343-21.98-14.037-33.235-21.982-40.12-5.693-5.032-11.387-7.016-14.299-7.547l-2.912 9.799c2.912 0.926 6.754 2.779 10.195 5.693 3.178 2.515 7.151 7.018 9.797 12.976 0.532 1.192 0.929 2.119 0.929 2.781 0 0.661-0.266 1.589-0.794 3.045l-23.702 59.055z" fill="#4f4c4d"/>
</g>
<g transform="translate(2240.4 1257.2)">
<path d="m0 0c3.444-2.251 9.535-4.634 15.359-4.634 8.474 0 12.447 4.237 12.447 9.533 0 5.562-3.309 8.607-11.918 11.785-11.518 4.104-16.949 10.461-16.949 18.14 0 10.328 8.343 18.802 22.113 18.802 6.488 0 12.181-1.853 15.757-3.973l-2.912-8.474c-2.515 1.589-7.151 3.709-13.107 3.709-6.889 0-10.727-3.973-10.727-8.741 0-5.296 3.838-7.679 12.181-10.858 11.124-4.237 16.817-9.797 16.817-19.33 0-11.255-8.74-19.201-23.968-19.201-7.016 0-13.504 1.723-18.005 4.371z" fill="#4f4c4d"/>
</g>
<g transform="translate(2308.5 1327.7)">
<path d="m0 0v-18.405h16.682v-8.871h-16.682v-34.56c0-7.944 2.249-12.445 8.737-12.445 3.047 0 5.299 0.397 6.753 0.794l0.529-8.74c-2.249-0.926-5.824-1.589-10.326-1.589-5.431 0-9.797 1.722-12.578 4.9-3.313 3.443-4.501 9.136-4.501 16.683v34.957h-9.932v8.871h9.932v15.36z" fill="#4f4c4d"/>
</g>
<g transform="translate(2378.2 1283.5)">
<path d="m0 0c0.131 7.414-3.047 18.935-16.154 18.935-11.787 0-16.948-10.858-17.877-18.935zm-34.163-8.343c0.267-15.756 10.33-22.244 21.979-22.244 8.342 0 13.376 1.456 17.743 3.309l1.986-8.341c-4.104-1.853-11.12-3.973-21.315-3.973-19.729 0-31.516 12.978-31.516 32.31 0 19.33 11.39 34.558 30.058 34.558 20.921 0 26.483-18.405 26.483-30.19 0-2.384-0.266-4.237-0.397-5.429z" fill="#4f4c4d"/>
</g>
<g transform="translate(2403.9 1292)">
<path d="m0 0c0 6.619-0.131 12.048-0.529 17.346h10.195l0.529-10.33h0.397c3.575 6.093 9.534 11.786 20.126 11.786 8.74 0 15.36-5.296 18.141-12.844h0.266c1.986 3.575 4.501 6.356 7.147 8.342 3.842 2.913 8.077 4.502 14.171 4.502 8.474 0 21.052-5.562 21.052-27.806v-37.737h-11.39v36.28c0 12.314-4.501 19.73-13.901 19.73-6.619 0-11.784-4.901-13.77-10.594-0.528-1.589-0.926-3.707-0.926-5.826v-39.59h-11.39v38.398c0 10.196-4.501 17.612-13.372 17.612-7.283 0-12.579-5.826-14.434-11.653-0.66-1.722-0.926-3.708-0.926-5.693v-38.664h-11.386z" fill="#4f4c4d"/>
</g>
</g>
</g>
</g>
</svg>
