<svg xmlns="http://www.w3.org/2000/svg" width="287.837" height="400" xmlns:v="https://vecta.io/nano"><defs><clipPath id="A"><path d="M0 600h800V0H0z"/></clipPath></defs><g transform="matrix(1.3333 0 0 -1.3333 -390.69066 600.11332)"><path d="M296.457 446.646h209V153.524h-209z" fill="#fff" stroke="#231f20" stroke-width="6.878" stroke-miterlimit="2.613"/><g clip-path="url(#A)"><path d="M418.482 298.868a13.97 13.97 0 0 0 13.938-13.937c0-7.677-6.262-13.937-13.938-13.937s-13.936 6.26-13.936 13.937 6.26 13.937 13.936 13.937m-13.685 33.781c-1.236.1-2.484.149-3.748.149-26.201 0-47.57-21.369-47.57-47.572s21.37-47.572 47.57-47.572c.728 0 1.447.021 2.163.048-19.91 6.467-34.37 25.208-34.37 47.227 0 22.597 15.233 41.751 35.955 47.717zm-3.748 19.65c35.562 0 64.806-27.92 66.944-62.961h-.071-19.481-.371c-2.142 14.4-14.606 25.508-29.588 25.508-16.476 0-29.912-13.438-29.912-29.915s13.436-29.915 29.912-29.915c15.367 0 28.087 11.688 29.734 26.628h.271 19.523.016c-1.872-35.289-31.233-63.492-66.977-63.492-36.517 0-66.377 29.446-67.057 65.807h-.105v135.769h19.572v-87.319c12.168 12.272 29.016 19.89 47.59 19.89" fill="#00983d"/><path d="M340.721 192.698v-18.442H336.3v10.492h-5.837l.683-.632.363-.33a3.94 3.94 0 0 0 .686-1.244c.154-.45.228-.937.228-1.44.002-1.148-.215-2.161-.64-3.02s-1.064-1.573-1.915-2.154c-.669-.434-1.433-.774-2.303-1.007-.864-.244-1.831-.357-2.894-.357-1.244.001-2.347.208-3.305.634-.953.423-1.787 1.052-2.483 1.898-.483.577-.899 1.256-1.234 2.055s-.577 1.663-.726 2.611l-.023.604-.071.659-.068.634-.023.685 4.334.054c0-.882.058-1.648.178-2.306s.32-1.231.593-1.703c.337-.605.771-1.061 1.301-1.366s1.147-.456 1.847-.456c.49 0 .934.074 1.345.229.411.145.796.397 1.164.733a3.09 3.09 0 0 1 .775 1.115c.185.44.271.928.271 1.468 0 .477-.09.895-.271 1.271a2.41 2.41 0 0 1-.775.909c-.12.073-.282.134-.481.208l-.659.201-2.007.048v3.243h2.054c.179.034.334.08.455.127.122.055.241.094.362.128a1.54 1.54 0 0 1 .614.713c.141.302.206.653.206 1.064.003.435-.077.825-.227 1.162s-.394.626-.728.861c-.307.235-.638.417-1.006.532-.361.123-.741.181-1.139.181-.64 0-1.207-.148-1.71-.431s-.919-.718-1.248-1.299c-.063-.099-.12-.206-.164-.327l-.162-.377-.156-.485-.162-.533-4.375.055c0 .942.161 1.829.477 2.658a7.12 7.12 0 0 0 1.484 2.307c.7.78 1.556 1.352 2.576 1.723s2.178.557 3.487.557c.973 0 1.852-.101 2.642-.303s1.475-.491 2.052-.862c.761-.505 1.332-1.156 1.708-1.949.387-.792.572-1.736.572-2.813 0-.442-.068-.852-.205-1.244s-.342-.718-.614-.987c-.028-.034-.125-.109-.274-.229s-.366-.264-.636-.432l6.064.055v4.848h-1.643l-1.46 4.018 13.682-.002-.6.735-.544.687-1.527 1.673-1.484 1.418-1.913 1.75-1.459 1.237-.527.431c-.192.156-.402.296-.616.431l1.595 3.854.846-.863.662-.657 1.527-1.675 1.847-2.079.908-1.09.87-1.137.911-1.242.91-1.338.641-.991c.224-.33.444-.71.67-1.144h2.748v-4.049h-2.23v-18.148h-4.473v18.148l-4.92.041zm74.977-18.236h2.691v3.346h-2.691zm-14.676 22.197h3.598.687 2.278l-.479 2.584-.479 1.874c-.487 1.49-1.072 2.612-1.755 3.372s-1.466 1.138-2.348 1.138c-.427 0-.804-.108-1.139-.33-.338-.215-.608-.565-.821-1.035-.21-.44-.368-.929-.478-1.475-.107-.539-.161-1.128-.161-1.77.001-.61.044-1.183.136-1.721.094-.544.228-1.047.412-1.525.03-.168.098-.351.204-.553a4.7 4.7 0 0 1 .345-.559m-4.97-17.386l-4.923 6.336a5.98 5.98 0 0 0-.571-.403c-.166-.102-.313-.203-.434-.302-.333-.344-.593-.715-.777-1.118s-.272-.86-.272-1.373c0-.64.127-1.195.387-1.667s.632-.88 1.117-1.217a4.28 4.28 0 0 1 1.412-.661c.519-.133 1.079-.201 1.689-.201.242 0 .517.027.819.074.305.055.654.148 1.05.282.062 0 .126.021.204.075a.92.92 0 0 0 .298.126v.048zm2.551-1.87l-1.461-.638-.73-.331c-.817-.304-1.593-.519-2.323-.652s-1.413-.208-2.052-.208c-1.033 0-1.966.147-2.803.429a6.89 6.89 0 0 0-2.255 1.299 5.89 5.89 0 0 0-1.687 2.326c-.369.915-.55 1.944-.55 3.095.002 1.11.181 2.099.55 2.966.367.861.88 1.61 1.551 2.255.605.571 1.297.994 2.07 1.264.779.268 1.635.403 2.578.403.974 0 1.904-.082 2.805-.249a9.56 9.56 0 0 0 2.485-.811 5.29 5.29 0 0 0 .954-.507 8.09 8.09 0 0 0 .868-.66v-2.178a2.8 2.8 0 0 0-.544.228c-.154.082-.307.143-.459.175l-.981.383-.614.176c-.183.034-.365.061-.547.073a4.79 4.79 0 0 1-.548.027c-.21 0-.397.007-.547.028l-.454.074-.755-.048h-.296l4.927-6.235.818.256v4.863 7.399h-14.68v4.055h12.582a4.01 4.01 0 0 1-.227.661c-.094.201-.155.402-.18.605l-.368 1.848c-.088.628-.137 1.26-.137 1.906.002 1.216.197 2.286.591 3.213a6.06 6.06 0 0 0 1.779 2.354c.61.478 1.302.841 2.074 1.091.781.255 1.606.383 2.487.383a6.19 6.19 0 0 0 3.031-.788c.962-.522 1.845-1.31 2.666-2.353.552-.745 1.061-1.609 1.529-2.584.472-.981.903-2.066 1.298-3.247l.385-1.596.39-1.546 2.328.056v-4.055h-2.233v-18.142h-4.468v18.142h-2.143-.687-1.592v-18.142h-4.425v2.941zm83.887-2.92h2.691v3.351h-2.691zm-14.678 22.197h3.598.822 2.14l-.479 2.59-.478 1.869c-.491 1.494-1.068 2.617-1.755 3.372-.682.764-1.466 1.142-2.348 1.142-.423 0-.807-.108-1.143-.329-.327-.223-.606-.566-.818-1.036a6.5 6.5 0 0 1-.481-1.472c-.105-.54-.154-1.132-.154-1.778.002-.604.039-1.176.135-1.721.09-.538.228-1.049.411-1.52.028-.168.101-.356.201-.559.1-.185.213-.372.349-.558m-2.283-14.286h-4.65v4.056h4.65v6.183h-8.478l.638-.743c.185-.213.332-.409.452-.577.338-.612.605-1.258.801-1.951a8.27 8.27 0 0 0 .294-2.259c.002-.909-.135-1.722-.411-2.429s-.664-1.305-1.183-1.775c-.55-.505-1.137-.874-1.755-1.117-.624-.235-1.285-.35-1.983-.35l.086-.381.094-.284c.061-.23.136-.452.229-.653l.275-.558c.151-.269.31-.499.478-.688a2.15 2.15 0 0 1 .525-.43c.062-.034.148-.068.276-.1.122-.035.234-.035.355 0l4.066.054v-3.908h-4.467-.164c-.045 0-.099-.013-.16-.048h-.086-.095-.299c-.106 0-.22.014-.341.048a1.12 1.12 0 0 0-.342.055l-.298.101c-.211.069-.423.196-.639.385l-.677.631c-.337.371-.688.843-1.052 1.42-.36.571-.731 1.265-1.095 2.077l-.41.964-.458 1.317-3.093.049v3.903h4.965a.64.64 0 0 1 .32-.102h.229c.451 0 .849.068 1.185.208.331.135.604.35.82.652a3.54 3.54 0 0 1 .477 1.043c.109.382.161.833.161 1.338a3.58 3.58 0 0 1-.388 1.628c-.257.503-.647.976-1.166 1.414-.18.141-.402.287-.657.456l-.937.558-5.969.056v4.047h17.643a3.93 3.93 0 0 1-.231.66c-.086.203-.149.41-.182.61l-.363 1.851c-.093.626-.134 1.257-.134 1.9.001 1.215.194 2.289.593 3.22.393.927.98 1.714 1.774 2.353a6.93 6.93 0 0 0 2.071 1.09c.781.256 1.607.384 2.489.384 1.064 0 2.073-.263 3.034-.787.956-.526 1.844-1.311 2.662-2.363.548-.738 1.058-1.6 1.527-2.582.474-.974.903-2.057 1.299-3.243l.39-1.593.385-1.547 2.326.048v-4.048h-2.234v-18.148h-4.462v18.148h-2.007-.823-1.415v-18.148h-4.465v7.91zm-111.586-7.885h2.688v3.346h-2.688z" fill="#231f20"/></g></g></svg>