<?xml version="1.0" encoding="UTF-8"?>
<svg width="94.993" height="91.495" version="1.1" viewBox="0 0 94.993371 91.494588" xml:space="preserve" xmlns="http://www.w3.org/2000/svg" xmlns:cc="http://creativecommons.org/ns#" xmlns:dc="http://purl.org/dc/elements/1.1/" xmlns:rdf="http://www.w3.org/1999/02/22-rdf-syntax-ns#"><metadata><rdf:RDF><cc:Work rdf:about=""><dc:format>image/svg+xml</dc:format><dc:type rdf:resource="http://purl.org/dc/dcmitype/StillImage"/><dc:title/></cc:Work></rdf:RDF></metadata><g transform="matrix(1.3333 0 0 -1.3333 8.3288e-5 91.494)"><path d="m14.193 64.451c0.7304 2.7984 3.7722 4.7449 6.6922 4.0152 2.3121-0.6086 4.5019-1.4601 6.8144-2.1902 7.3008-2.4336 12.655-9.3696 13.628-16.913 0.7297-4.8672-0.4871-9.8566-2.9207-13.994-3.0418 3.2852-6.9359 5.8407-11.194 7.1793v-19.104c4.2586 1.3391 8.1527 3.8938 11.194 7.1789 4.9895-7.9093 4.016-18.982-2.555-25.674-10.586 3.5281-21.295 7.0567-31.88 10.586-2.9207 0.9734-4.7457 4.3808-3.6508 7.3007 4.502 13.872 9.2477 27.744 13.872 41.615" fill="#3e79c3"/><path d="m37.921 62.87c9.8562-3.2855 19.712-6.5711 29.568-9.8562 2.9199-0.9742 4.5023-4.5028 3.407-7.3008-4.6238-13.994-9.3695-27.987-13.993-41.98-0.9738-3.1652-4.8672-4.6238-7.7879-3.1652-3.4066 1.2168-6.9355 2.3125-10.342 3.4082 3.8933 4.6242 6.0836 10.829 5.5968 16.913-0.2429 4.2586-1.825 8.5176-4.2586 12.047 3.6504 5.354 5.111 12.168 3.6504 18.617-0.8515 4.1371-3.0422 8.0313-5.8402 11.317" fill="#273e85"/><path d="m16.748 43.765h3.0422v-21.66h-2.9211c-0.1211 7.1797-0.1211 14.48-0.1211 21.66" fill="#fff"/><path d="m55.686 43.765h3.6504c-2.7992-3.5285-5.4754-7.1793-8.1527-10.83 2.6773-3.5292 5.3535-7.0566 7.9094-10.708-1.2168 0-2.3121-0.1218-3.5289-0.1218-2.6774 3.5293-5.3536 7.1797-8.0309 10.83 2.7984 3.6504 5.4758 7.1793 8.1527 10.83" fill="#fff"/><path d="m29.89 38.168c2.5558-1.3391 4.8671-3.1633 6.6925-5.3547-1.8254-2.1903-4.1367-3.8922-6.6925-5.3535-0.1215 3.6504 0 7.1789 0 10.708" fill="#de3522"/></g></svg>
