<?xml version="1.0" encoding="UTF-8"?>
<svg width="486.67" height="104.21" version="1.1" viewBox="0 0 486.66666 104.21333" xml:space="preserve" xmlns="http://www.w3.org/2000/svg" xmlns:cc="http://creativecommons.org/ns#" xmlns:dc="http://purl.org/dc/elements/1.1/" xmlns:rdf="http://www.w3.org/1999/02/22-rdf-syntax-ns#"><metadata><rdf:RDF><cc:Work rdf:about=""><dc:format>image/svg+xml</dc:format><dc:type rdf:resource="http://purl.org/dc/dcmitype/StillImage"/><dc:title/></cc:Work></rdf:RDF></metadata><g transform="matrix(1.3333 0 0 -1.3333 0 104.21)"><g transform="scale(.1)"><path d="m917.04 779.57h53.547v-18.25h-53.547v18.25" fill="#273e85"/><path d="m1013.2 779.57h19.46v-43.804h24.34v-19.473h-24.34v-46.234h-19.46v109.51" fill="#273e85"/><path d="m1108.1 778.36h23.12c1.21-46.234 0-91.261-6.09-137.5h-9.73c-8.52 46.235-8.52 91.262-7.3 137.5" fill="#273e85"/><path d="m1927 778.36h43.81v-18.254h-43.81v18.254" fill="#273e85"/><path d="m2003.6 777.14h18.25v-42.594h18.26v45.023h19.48v-116.81h-19.48v51.109h-18.26v-46.242h-18.25v109.52" fill="#273e85"/><path d="m1301.6 773.49h127.76v-18.254h-52.32c17.04-15.82 38.94-23.113 62.06-26.773-3.65-4.863-7.3-10.945-10.95-15.813-23.12 3.645-45.02 12.168-62.06 27.981-17.04-15.813-40.16-23.113-62.06-27.981-3.65 4.868-7.3 10.95-12.16 15.813 21.9 4.871 46.23 10.953 62.06 27.988h-53.55c1.22 3.652 1.22 12.176 1.22 17.039" fill="#273e85"/><path d="m1566.8 719.96c-18.26-1.223-40.16-2.437-53.55 12.168-8.51 13.379 6.09 26.762 19.47 29.199 20.69 4.867 47.46 4.867 62.06-13.386 7.3-18.25-13.38-26.77-27.98-27.981zm25.54 54.754c-21.9 8.516-47.45 8.516-70.57 2.434-18.25-4.872-35.29-19.473-32.85-40.157 1.22-18.254 19.47-30.422 36.5-34.074 18.25-3.648 37.72-3.648 57.19 0 17.04 3.652 34.07 15.82 35.29 34.074 1.22 17.035-10.95 31.641-25.56 37.723" fill="#273e85"/><path d="m1845.5 729.69c-14.6-13.391-36.5-12.168-54.75-9.731-12.17 2.426-26.77 8.508-26.77 23.113 3.65 9.731 13.38 15.817 23.12 18.254 18.25 3.645 38.94 3.645 54.76-7.301 7.3-4.867 10.94-17.035 3.64-24.335zm-2.43 46.234c-21.9 7.305-45.02 7.305-66.93 1.223-18.25-4.872-36.5-19.473-32.84-40.157 0-15.82 14.59-27.988 27.98-32.859 19.47-6.082 40.15-6.082 60.84-2.426 18.25 3.649 38.94 14.594 38.94 35.285 1.22 18.25-12.17 32.852-27.99 38.934" fill="#273e85"/><path d="m896.35 749.16h92.48v-18.254h-36.504c8.512-19.468 25.547-31.636 45.016-38.941-3.649-6.082-7.301-12.168-9.731-18.25-17.031 6.082-31.636 17.035-43.804 30.418-10.954-15.813-27.985-26.77-45.024-34.066-4.867 6.085-9.73 10.953-13.387 17.035 20.688 8.523 41.375 20.691 48.68 43.804h-36.504c-1.222 3.649-1.222 13.391-1.222 18.254" fill="#273e85"/><path d="m1906.3 751.59h85.17v-18.25h-85.17v18.25" fill="#273e85"/><path d="m1355.1 724.82h20.69v-19.468h74.22v-18.254h-167.92v18.254h74.22c-1.21 7.3-1.21 13.382-1.21 19.468" fill="#273e85"/><path d="m1935.5 706.57c10.95 4.868 30.42 4.868 32.86-9.734-1.23-25.547-53.55-12.168-32.86 9.734zm1.21 18.254c-14.59-2.437-26.76-13.386-26.76-27.988 1.21-41.371 77.87-41.371 77.87 0 0 25.551-30.42 32.856-51.11 27.988" fill="#273e85"/><path d="m141.93 644.51c7.304 27.984 37.722 47.449 66.922 40.152 23.121-6.086 45.019-14.601 68.144-21.902 73.008-24.336 126.55-93.696 136.28-169.13 7.297-48.672-4.871-98.566-29.207-139.94-30.418 32.852-69.359 58.407-111.94 71.793v-191.04c42.586 13.391 81.527 38.938 111.94 71.789 49.895-79.093 40.16-189.82-25.55-256.74-105.86 35.281-212.95 70.567-318.8 105.86-29.207 9.734-47.457 43.808-36.508 73.007 45.02 138.72 92.477 277.44 138.72 416.15" fill="#3e79c3"/><path d="m1469.5 685.88h166.7v-19.469h-166.7v19.469" fill="#273e85"/><path d="m1722.6 685.88h169.14v-19.469h-167.93c-1.21 7.301-1.21 13.383-1.21 19.469" fill="#273e85"/><path d="m1325.9 679.79h79.1v-15.813h-79.1v15.813" fill="#273e85"/><path d="m1294.2 657.9h141.15v-17.032h-141.15v17.032" fill="#273e85"/><path d="m1490.2 651.81h20.68v-34.075h108.3v-19.468h-130.2c1.22 18.253 1.22 35.289 1.22 53.543" fill="#273e85"/><path d="m1744.5 651.81h19.47v-34.075h110.73v-19.468h-130.2v53.543" fill="#273e85"/><path d="m1013.2 615.31h-76.666v26.765h76.666v-26.765zm-97.346 46.234v-65.703h116.81v65.703h-116.81" fill="#273e85"/><path d="m2024.3 612.87c-21.91-6.086-46.24-7.301-66.93 2.438-10.95 6.082-6.08 19.472 4.88 21.898 21.89 6.082 46.23 7.305 66.92-2.437 12.17-3.649 6.08-20.68-4.87-21.899zm12.16 40.16c-23.11 8.512-49.88 8.512-74.21 3.649-14.61-2.438-32.87-12.168-34.08-29.203-1.22-15.821 12.17-26.774 25.55-31.637 23.12-7.305 48.67-8.52 73.01-2.438 13.38 3.653 29.21 10.95 31.63 26.774 3.66 15.816-7.3 29.199-21.9 32.855" fill="#273e85"/><path d="m379.21 628.7c98.562-32.855 197.12-65.711 295.68-98.562 29.199-9.742 45.023-45.028 34.07-73.008-46.238-139.94-93.695-279.87-139.93-419.8-9.738-31.652-48.672-46.238-77.879-31.652-34.066 12.168-69.355 23.125-103.42 34.082 38.933 46.242 60.836 108.29 55.968 169.13-2.429 42.586-18.25 85.176-42.586 120.47 36.504 53.54 51.11 121.68 36.504 186.17-8.515 41.371-30.422 80.313-58.402 113.17" fill="#273e85"/><path d="m1106.9 622.6h25.55v-27.988h-25.55v27.988" fill="#273e85"/><path d="m1353.9 606.78c-9.74 1.223-23.13-1.215-28 9.735 26.78 4.871 55.98 8.519 80.32-3.649-14.61-8.516-34.07-4.863-52.32-6.086zm47.45 27.996c-26.77 3.645-54.76 4.864-80.31-2.437-13.39-2.438-24.34-20.688-9.73-30.422 21.9-12.168 49.88-10.949 74.22-9.734 14.6 2.429 34.07 2.429 42.59 18.25 4.87 15.82-14.6 21.906-26.77 24.343" fill="#273e85"/><path d="m915.82 505.8h77.871v-457.53h-77.871v457.53" fill="#273e85"/><path d="m1493.8 505.8h77.87v-183.75c57.19 60.844 113.16 122.91 170.36 183.75h100.99c-69.35-71.793-137.5-144.8-205.64-216.59 73.01-80.324 147.23-160.62 221.46-240.94h-108.3c-59.62 68.144-118.03 136.28-177.65 204.43v-204.43h-77.88c-1.21 153.32-1.21 305.42-1.21 457.53" fill="#273e85"/><path d="m2255.5 505.8h62.06v-457.53h-62.06v457.53" fill="#273e85"/><path d="m3496.7 505.8h59.63v-104.65h32.86v104.65h60.84v-277.44h-60.84v130.2h-32.86v-111.93h-59.63v259.18" fill="#273e85"/><path d="m3288.6 499.71h138.71v-41.371h-138.71v41.371" fill="#273e85"/><path d="m1946.5 494.84h223.89c-1.21-52.324 4.87-105.86-13.38-155.75-30.42-92.469-111.95-163.06-204.42-191.04-10.96 13.387-21.92 26.777-32.86 40.156 70.57 15.82 132.62 65.711 163.04 131.43 19.49 40.144 24.34 85.164 21.92 130.19h-160.62c2.43 14.602 2.43 29.203 2.43 45.024" fill="#273e85"/><path d="m3086.6 358.56c-40.15-29.2-108.29-23.117-132.63 23.125-18.25 37.718 12.17 82.738 51.11 91.258 32.84 8.523 73.01 0 93.69-27.981 20.68-25.559 15.82-66.93-12.17-86.402zm54.76 124.12c-40.16 32.851-96.13 41.371-146.03 34.066-38.92-6.082-79.09-24.336-99.76-59.617-20.69-37.727-14.6-90.047 17.03-119.25 31.64-27.996 74.23-40.164 116.81-40.164 40.16-1.211 82.75 10.957 113.17 36.504 45.02 36.504 43.8 113.16-1.22 148.46" fill="#273e85"/><path d="m167.48 437.65h30.422v-216.6h-29.211c-1.211 71.797-1.211 144.8-1.211 216.6" fill="#fff"/><path d="m556.86 437.65h36.504c-27.992-35.285-54.754-71.793-81.527-108.3 26.773-35.292 53.535-70.566 79.094-107.08-12.168 0-23.121-1.218-35.289-1.218-26.774 35.293-53.536 71.797-80.309 108.3 27.984 36.504 54.758 71.793 81.527 108.3" fill="#fff"/><path d="m298.9 381.68c25.558-13.391 48.671-31.633 66.925-53.547-18.254-21.903-41.367-38.922-66.925-53.535-1.215 36.504 0 71.789 0 107.08" fill="#de3522"/><path d="m3353.1 279.46c-40.16 17.043-41.38 82.746-1.22 99.785 30.42 15.817 66.93-13.387 66.93-45.027 6.08-35.285-31.65-71.789-65.71-54.758zm124.11 164.27h-214.16v-41.367h41.37c-25.54-19.472-45.03-51.109-38.94-83.969 4.87-38.937 37.73-68.136 74.24-77.863 30.42-7.312 63.26-3.66 90.03 12.168 29.21 17.024 49.9 51.094 45.03 85.176-2.45 25.547-19.47 48.664-40.16 64.488h41.37c1.22 14.594 1.22 27.985 1.22 41.367" fill="#273e85"/><path d="m2823.8 275.81h408.85v-49.883h-408.85v49.883" fill="#273e85"/><path d="m1299.1 124.93c-38.94-15.821-81.53-9.735-121.68-10.957v136.29c40.15-1.219 81.52 3.652 119.24-10.957 45.03-17.032 48.68-94.903 2.44-114.38zm-122.9 315.16c32.85-1.215 65.7 3.648 98.56-3.652 23.12-3.645 45.02-21.899 47.46-45.02 4.86-24.336-3.66-54.766-29.21-64.492-36.5-15.82-77.88-8.524-116.81-9.734v122.9zm233.62-237.28c-8.51 38.945-40.15 69.367-77.87 80.324 26.77 12.168 53.54 31.629 62.06 60.84 13.38 42.578 7.3 97.332-27.99 127.75-31.64 26.773-75.44 32.855-116.81 35.293h-152.1v-457.52h156.96c43.81 2.4297 91.27 9.7266 125.33 40.144 31.64 27.992 37.72 74.23 30.42 113.16" fill="#273e85"/><path d="m2882.2 199.16h63.27v-103.44h245.8v-45.02h-310.28c1.21 48.672 1.21 98.563 1.21 148.46" fill="#273e85"/><path d="m3550.2 93.289c-30.42-14.598-66.92-15.82-97.34-3.6524-18.25 7.3047-35.29 21.906-34.06 42.59 2.42 23.125 23.1 37.722 43.8 43.808 27.98 7.305 59.63 7.305 86.38-6.086 13.39-7.293 28-20.683 28-37.722 1.21-18.254-12.17-32.852-26.78-38.938zm59.62 94.914c-46.23 35.293-108.29 38.934-163.04 27.988-31.64-8.515-65.72-21.906-81.53-52.324-12.16-27.988-9.73-64.492 14.6-86.398 29.2-27.977 71.79-37.715 111.96-38.934 43.8-1.211 90.04 8.5156 122.89 37.723 31.63 27.988 29.21 85.176-4.88 111.95" fill="#273e85"/><path d="m2457.5 339.09c-32.86 32.851-25.57 98.562 18.25 118.04 21.9 9.73 49.88 6.082 68.14-10.953 27.97-27.988 27.97-80.313 0-108.29-23.13-24.336-64.5-23.125-86.39 1.211zm57.18-64.492c51.1 3.652 99.77 41.367 110.73 92.48h76.66v-99.785h62.05v238.5h-62.05v-93.699h-76.66c-4.87 23.117-14.6 45.027-32.85 60.84-49.88 47.453-136.29 46.238-184.96-1.219-35.29-31.637-43.8-87.61-23.12-128.98 24.35-46.23 79.1-73.007 130.2-68.136" fill="#273e85"/><path d="m2702.1 99.375h-184.96v54.754h184.96v-54.754zm0 146.02v-46.231h-184.96v46.231h-62.05v-195.9h310.28v195.9h-63.27" fill="#273e85"/></g></g></svg>
