<?xml version="1.0" encoding="UTF-8" standalone="no"?>
<svg
   viewBox="0 0 38.665967 17.137898"
   version="1.1"
   id="svg57"
   sodipodi:docname="icon.svg"
   width="38.665966"
   height="17.137897"
   inkscape:version="1.3.1 (9b9bdc1480, 2023-11-25, custom)"
   xmlns:inkscape="http://www.inkscape.org/namespaces/inkscape"
   xmlns:sodipodi="http://sodipodi.sourceforge.net/DTD/sodipodi-0.dtd"
   xmlns:xlink="http://www.w3.org/1999/xlink"
   xmlns="http://www.w3.org/2000/svg"
   xmlns:svg="http://www.w3.org/2000/svg">
  <sodipodi:namedview
     id="namedview57"
     pagecolor="#ffffff"
     bordercolor="#000000"
     borderopacity="0.25"
     inkscape:showpageshadow="2"
     inkscape:pageopacity="0.0"
     inkscape:pagecheckerboard="0"
     inkscape:deskcolor="#d1d1d1"
     inkscape:zoom="9.659177"
     inkscape:cx="55.128921"
     inkscape:cy="8.5928646"
     inkscape:window-width="1850"
     inkscape:window-height="1016"
     inkscape:window-x="70"
     inkscape:window-y="27"
     inkscape:window-maximized="1"
     inkscape:current-layer="Layer_1-2" />
  <defs
     id="defs33">
    <style
       id="style1">.cls-1{isolation:isolate;}.cls-2{fill:url(#linear-gradient);}.cls-3{fill:url(#linear-gradient-2);}.cls-11,.cls-4{mix-blend-mode:soft-light;}.cls-5{fill:#e7e5e5;}.cls-6{fill:url(#linear-gradient-3);}.cls-7{fill:url(#linear-gradient-4);}.cls-8{mix-blend-mode:multiply;opacity:0.71;fill:url(#linear-gradient-5);}.cls-9{fill:url(#linear-gradient-6);}.cls-10{fill:#1786b2;mix-blend-mode:darken;opacity:0.57;}.cls-11{fill:#fff;}.cls-12{fill:#00b9fb;}</style>
    <linearGradient
       id="linear-gradient"
       x1="38.939999"
       y1="12.26"
       x2="60.450001"
       y2="12.26"
       gradientTransform="rotate(0.6,672.53839,-2139.7381)"
       gradientUnits="userSpaceOnUse">
      <stop
         offset="0.01"
         stop-color="#f59f28"
         id="stop1" />
      <stop
         offset="0.04"
         stop-color="#f6a225"
         id="stop2" />
      <stop
         offset="0.34"
         stop-color="#fbbe0a"
         id="stop3" />
      <stop
         offset="0.61"
         stop-color="#fac008"
         id="stop4" />
      <stop
         offset="0.73"
         stop-color="#f6c702"
         id="stop5" />
      <stop
         offset="0.75"
         stop-color="#f4ca00"
         id="stop6" />
      <stop
         offset="0.78"
         stop-color="#f2c101"
         id="stop7" />
      <stop
         offset="0.84"
         stop-color="#efb003"
         id="stop8" />
      <stop
         offset="0.89"
         stop-color="#eeaa04"
         id="stop9" />
      <stop
         offset="1"
         stop-color="#b64817"
         id="stop10" />
    </linearGradient>
    <linearGradient
       id="linear-gradient-2"
       x1="38.939999"
       y1="12.45"
       x2="60.450001"
       y2="12.45"
       xlink:href="#linear-gradient" />
    <linearGradient
       id="linear-gradient-3"
       x1="170.95"
       y1="63.84"
       x2="192.57001"
       y2="63.84"
       gradientTransform="matrix(0.93,0.21,-0.23,1,-143.49,-89.76)"
       gradientUnits="userSpaceOnUse">
      <stop
         offset="0.01"
         stop-color="#c49152"
         id="stop11" />
      <stop
         offset="0.18"
         stop-color="#e19e2e"
         id="stop12" />
      <stop
         offset="0.34"
         stop-color="#f7a912"
         id="stop13" />
      <stop
         offset="0.55"
         stop-color="#f4a915"
         id="stop14" />
      <stop
         offset="0.71"
         stop-color="#eaa81d"
         id="stop15" />
      <stop
         offset="0.78"
         stop-color="#e3a823"
         id="stop16" />
      <stop
         offset="0.83"
         stop-color="#edb119"
         id="stop17" />
      <stop
         offset="0.91"
         stop-color="#f8bb0e"
         id="stop18" />
      <stop
         offset="1"
         stop-color="#fbbe0a"
         id="stop19" />
    </linearGradient>
    <linearGradient
       id="linear-gradient-4"
       x1="173.95"
       y1="57.759998"
       x2="171.99001"
       y2="68.279999"
       xlink:href="#linear-gradient-3" />
    <linearGradient
       id="linear-gradient-5"
       x1="3692.3701"
       y1="-1929.66"
       x2="3707.6699"
       y2="-1914.35"
       gradientTransform="matrix(-0.08,0.92,-0.64,-0.05,-929.4,-3483.99)"
       gradientUnits="userSpaceOnUse">
      <stop
         offset="0.11"
         stop-color="#fff"
         id="stop20" />
      <stop
         offset="0.61"
         stop-color="#878787"
         id="stop21" />
      <stop
         offset="0.95"
         stop-color="#fff"
         id="stop22" />
    </linearGradient>
    <linearGradient
       id="linear-gradient-6"
       x1="42.209999"
       y1="15.98"
       x2="3.8599999"
       y2="-1.74"
       gradientUnits="userSpaceOnUse">
      <stop
         offset="0.01"
         stop-color="#04202a"
         id="stop23" />
      <stop
         offset="0.16"
         stop-color="#034b5d"
         id="stop24" />
      <stop
         offset="0.28"
         stop-color="#146e8c"
         id="stop25" />
      <stop
         offset="0.4"
         stop-color="#228cb4"
         id="stop26" />
      <stop
         offset="0.51"
         stop-color="#2da1d0"
         id="stop27" />
      <stop
         offset="0.6"
         stop-color="#33ade1"
         id="stop28" />
      <stop
         offset="0.67"
         stop-color="#35b2e7"
         id="stop29" />
      <stop
         offset="0.77"
         stop-color="#32afe4"
         id="stop30" />
      <stop
         offset="0.85"
         stop-color="#28a6d9"
         id="stop31" />
      <stop
         offset="0.94"
         stop-color="#1897c7"
         id="stop32" />
      <stop
         offset="1"
         stop-color="#0687b3"
         id="stop33" />
    </linearGradient>
    <linearGradient
       inkscape:collect="always"
       xlink:href="#linear-gradient"
       id="linearGradient2"
       gradientUnits="userSpaceOnUse"
       gradientTransform="rotate(0.6,672.53839,-2139.7381)"
       x1="38.939999"
       y1="12.26"
       x2="60.450001"
       y2="12.26" />
    <linearGradient
       inkscape:collect="always"
       xlink:href="#linear-gradient-3"
       id="linearGradient3"
       gradientUnits="userSpaceOnUse"
       gradientTransform="matrix(0.93,0.21,-0.23,1,-143.49,-89.76)"
       x1="170.95"
       y1="63.84"
       x2="192.57001"
       y2="63.84" />
  </defs>
  <g
     class="cls-1"
     id="g57"
     transform="translate(0.03008857,-0.01697478)">
    <g
       id="Layer_2"
       data-name="Layer 2">
      <g
         id="Layer_1-2"
         data-name="Layer 1">
        <path
           class="cls-2"
           d="m 37.33,4 a 2.26,2.26 0 0 1 0.16,0.26 6.64,6.64 0 0 0 -0.61,-1.62 c -2.25,-4.13 -8.5,-2.89 -14.74,1.78 a 23.2,23.2 0 0 0 -4.39,4.28 17.64,17.64 0 0 1 2.15,1.52 10.54,10.54 0 0 0 1.32,0.8 C 21.61,10.56 22.03,10.11 22.46,9.66 28,4 35.09,1.06 37.33,4 Z"
           id="path33"
           style="fill:url(#linearGradient2)" />
        <path
           class="cls-3"
           d="m 37.72,7.54 h 0.12 a 4.93,4.93 0 0 0 -0.35,-3.21 10.34,10.34 0 0 1 0.23,3.21 z"
           id="path34"
           style="fill:url(#linear-gradient-2)" />
        <g
           class="cls-4"
           id="g36">
          <path
             class="cls-5"
             d="M 37.48,4.28 A 2.33,2.33 0 0 0 37.31,4 v 0 c 0.05,0.16 0.09,0.32 0.13,0.48 a 3,3 0 0 1 0.18,0.36 4.88,4.88 0 0 0 -0.14,-0.56 z"
             id="path35" />
          <path
             class="cls-5"
             d="M 22.08,4.71 C 28.29,0 34.54,-1.29 36.81,2.85 A 6.4,6.4 0 0 1 37.29,4 V 4 A 2.33,2.33 0 0 1 37.46,4.26 7.08,7.08 0 0 0 36.84,2.64 C 34.6,-1.46 28.35,-0.19 22.13,4.52 a 22.82,22.82 0 0 0 -5.72,6.26 v 0 a 23.07,23.07 0 0 1 5.67,-6.07 z"
             id="path36" />
        </g>
        <polygon
           points=""
           id="polygon36" />
        <path
           class="cls-6"
           d="M 20.3,8.78 C 19.72,8.29 19.14,7.83 18.6,7.31 A 29.06,29.06 0 0 1 15,10.83 C 9.46,15.43 3.46,17 1.63,14.23 L 1.55,14.1 a 5.78,5.78 0 0 1 -0.77,-1.69 6.37,6.37 0 0 1 0,-3.49 6.19,6.19 0 0 0 -0.54,4.87 c 1.47,3.84 7.76,4.49 14.14,1.45 a 19.86,19.86 0 0 0 7,-5.48 z"
           id="path37"
           style="fill:url(#linearGradient3)" />
        <path
           class="cls-7"
           d="M 6.81,3 A 3.74,3.74 0 0 0 5.94,3.18 v 0 0 c -1.23,0.88 -1.27,0.89 0,0 A 14.11,14.11 0 0 0 3.78,4.91 15.29,15.29 0 0 0 1.06,8.49 v 0 C 1,8.64 0.9,8.78 0.83,8.92 a 6.37,6.37 0 0 0 0,3.49 A 5.78,5.78 0 0 0 1.6,14.1 5.89,5.89 0 0 1 0.86,11.34 C 0.86,8.92 2.93,5.72 4.32,4.52 A 3.88,3.88 0 0 1 6.5,3.52 2.19,2.19 0 0 1 6.81,3 Z"
           id="path38"
           style="fill:url(#linear-gradient-4)" />
        <path
           class="cls-8"
           d="m 12.12,13 a 25.59,25.59 0 0 0 5.69,-4.8 l 0.42,-0.46 c 0.33,-0.31 0.74,-1 1.07,-1.25 0.83,-0.43 2.37,-1.51 4,-2.59 0.69,-0.46 1.4,-0.91 1.79,-1.13 L 27,5.89 c -1.18,0.77 -4.22,3.33 -5.29,4.24 -0.34,0.29 0.07,-0.34 -0.25,0 l -2.27,2 A 22.71,22.71 0 0 1 14,15.4 Z"
           id="path39"
           style="fill:url(#linear-gradient-5)" />
        <path
           class="cls-9"
           d="M 36.46,2.05 C 41.09,10.81 30.55,14.92 25,8.88 22.69,6 22.43,4.49 21,3 14.77,-3 5.81,0.71 1.16,8.28 1.78,7.54 5.71,3.05 11.43,3.77 15.85,4.32 16.58,9.98 23.12,13.32 30.54,17.11 43.88,12 36.46,2.05 Z"
           id="path40"
           style="fill:url(#linear-gradient-6)" />
        <path
           class="cls-10"
           d="M 23.31,13.1 C 16.77,9.76 16.05,4.1 11.63,3.54 6.17,2.86 2.34,6.91 1.46,7.93 v 0 c 1.16,-1.27 4.85,-4.8 10,-4.16 4.42,0.55 5.15,6.21 11.69,9.55 4.59,2.35 11.46,1.27 14.26,-2.24 -2.94,3.33 -9.6,4.31 -14.1,2.02 z"
           id="path41" />
        <path
           class="cls-11"
           d="M 36.68,2.34 36.46,2 C 41,10.6 31,14.72 25.37,9.21 30.91,14.89 41,10.87 36.68,2.34 Z"
           id="path42" />
      </g>
    </g>
  </g>
</svg>
