<svg xmlns="http://www.w3.org/2000/svg" xmlns:xlink="http://www.w3.org/1999/xlink" viewBox="0 0 132.62 17.16"><defs><style>.cls-1{isolation:isolate;}.cls-2{fill:url(#linear-gradient);}.cls-3{fill:url(#linear-gradient-2);}.cls-11,.cls-4{mix-blend-mode:soft-light;}.cls-5{fill:#e7e5e5;}.cls-6{fill:url(#linear-gradient-3);}.cls-7{fill:url(#linear-gradient-4);}.cls-8{mix-blend-mode:multiply;opacity:0.71;fill:url(#linear-gradient-5);}.cls-9{fill:url(#linear-gradient-6);}.cls-10{fill:#1786b2;mix-blend-mode:darken;opacity:0.57;}.cls-11{fill:#fff;}.cls-12{fill:#00b9fb;}</style><linearGradient id="linear-gradient" x1="38.94" y1="12.26" x2="60.45" y2="12.26" gradientTransform="translate(-22.37 -7.16) rotate(0.6)" gradientUnits="userSpaceOnUse"><stop offset="0.01" stop-color="#f59f28"/><stop offset="0.04" stop-color="#f6a225"/><stop offset="0.34" stop-color="#fbbe0a"/><stop offset="0.61" stop-color="#fac008"/><stop offset="0.73" stop-color="#f6c702"/><stop offset="0.75" stop-color="#f4ca00"/><stop offset="0.78" stop-color="#f2c101"/><stop offset="0.84" stop-color="#efb003"/><stop offset="0.89" stop-color="#eeaa04"/><stop offset="1" stop-color="#b64817"/></linearGradient><linearGradient id="linear-gradient-2" x1="38.94" y1="12.45" x2="60.45" y2="12.45" xlink:href="#linear-gradient"/><linearGradient id="linear-gradient-3" x1="170.95" y1="63.84" x2="192.57" y2="63.84" gradientTransform="matrix(0.93, 0.21, -0.23, 1, -143.49, -89.76)" gradientUnits="userSpaceOnUse"><stop offset="0.01" stop-color="#c49152"/><stop offset="0.18" stop-color="#e19e2e"/><stop offset="0.34" stop-color="#f7a912"/><stop offset="0.55" stop-color="#f4a915"/><stop offset="0.71" stop-color="#eaa81d"/><stop offset="0.78" stop-color="#e3a823"/><stop offset="0.83" stop-color="#edb119"/><stop offset="0.91" stop-color="#f8bb0e"/><stop offset="1" stop-color="#fbbe0a"/></linearGradient><linearGradient id="linear-gradient-4" x1="173.95" y1="57.76" x2="171.99" y2="68.28" xlink:href="#linear-gradient-3"/><linearGradient id="linear-gradient-5" x1="3692.37" y1="-1929.66" x2="3707.67" y2="-1914.35" gradientTransform="matrix(-0.08, 0.92, -0.64, -0.05, -929.4, -3483.99)" gradientUnits="userSpaceOnUse"><stop offset="0.11" stop-color="#fff"/><stop offset="0.61" stop-color="#878787"/><stop offset="0.95" stop-color="#fff"/></linearGradient><linearGradient id="linear-gradient-6" x1="42.21" y1="15.98" x2="3.86" y2="-1.74" gradientUnits="userSpaceOnUse"><stop offset="0.01" stop-color="#04202a"/><stop offset="0.16" stop-color="#034b5d"/><stop offset="0.28" stop-color="#146e8c"/><stop offset="0.4" stop-color="#228cb4"/><stop offset="0.51" stop-color="#2da1d0"/><stop offset="0.6" stop-color="#33ade1"/><stop offset="0.67" stop-color="#35b2e7"/><stop offset="0.77" stop-color="#32afe4"/><stop offset="0.85" stop-color="#28a6d9"/><stop offset="0.94" stop-color="#1897c7"/><stop offset="1" stop-color="#0687b3"/></linearGradient></defs><g class="cls-1"><g id="Layer_2" data-name="Layer 2"><g id="Layer_1-2" data-name="Layer 1"><path class="cls-2" d="M37.33,4a2.26,2.26,0,0,1,.16.26,6.64,6.64,0,0,0-.61-1.62c-2.25-4.13-8.5-2.89-14.74,1.78a23.2,23.2,0,0,0-4.39,4.28,17.64,17.64,0,0,1,2.15,1.52,10.54,10.54,0,0,0,1.32.8c.39-.46.81-.91,1.24-1.36C28,4,35.09,1.06,37.33,4Z"/><path class="cls-3" d="M37.72,7.54l.12,0a4.93,4.93,0,0,0-.35-3.21A10.34,10.34,0,0,1,37.72,7.54Z"/><g class="cls-4"><path class="cls-5" d="M37.48,4.28A2.33,2.33,0,0,0,37.31,4l0,0c.05.16.09.32.13.48a3,3,0,0,1,.18.36A4.88,4.88,0,0,0,37.48,4.28Z"/><path class="cls-5" d="M22.08,4.71c6.21-4.71,12.46-6,14.73-1.86A6.4,6.4,0,0,1,37.29,4l0,0a2.33,2.33,0,0,1,.17.26,7.08,7.08,0,0,0-.62-1.62C34.6-1.46,28.35-.19,22.13,4.52a22.82,22.82,0,0,0-5.72,6.26l0,0A23.07,23.07,0,0,1,22.08,4.71Z"/></g><polygon points="5.95 3.25 5.95 3.25 5.95 3.25 5.95 3.25"/><path class="cls-6" d="M20.3,8.78c-.58-.49-1.16-.95-1.7-1.47A29.06,29.06,0,0,1,15,10.83C9.46,15.43,3.46,17,1.63,14.23l-.08-.13a5.78,5.78,0,0,1-.77-1.69,6.37,6.37,0,0,1,0-3.49,6.19,6.19,0,0,0-.54,4.87C1.71,17.63,8,18.28,14.38,15.24a19.86,19.86,0,0,0,7-5.48Z"/><path class="cls-7" d="M6.81,3a3.74,3.74,0,0,0-.87.18v0l0,0c-1.23.88-1.27.89,0,0A14.11,14.11,0,0,0,3.78,4.91,15.29,15.29,0,0,0,1.06,8.49h0C1,8.64.9,8.78.83,8.92a6.37,6.37,0,0,0,0,3.49,5.78,5.78,0,0,0,.77,1.69,5.89,5.89,0,0,1-.74-2.76c0-2.42,2.07-5.62,3.46-6.82a3.88,3.88,0,0,1,2.18-1A2.19,2.19,0,0,1,6.81,3Z"/><path class="cls-8" d="M12.12,13a25.59,25.59,0,0,0,5.69-4.8l.42-.46c.33-.31.74-1,1.07-1.25.83-.43,2.37-1.51,4-2.59.69-.46,1.4-.91,1.79-1.13L27,5.89c-1.18.77-4.22,3.33-5.29,4.24-.34.29.07-.34-.25,0l-2.27,2A22.71,22.71,0,0,1,14,15.4Z"/><path class="cls-9" d="M36.46,2.05C41.09,10.81,30.55,14.92,25,8.88,22.69,6,22.43,4.49,21,3,14.77-3,5.81.71,1.16,8.28c.62-.74,4.55-5.23,10.27-4.51,4.42.55,5.15,6.21,11.69,9.55C30.54,17.11,43.88,12,36.46,2.05Z"/><path class="cls-10" d="M23.31,13.1c-6.54-3.34-7.26-9-11.68-9.56C6.17,2.86,2.34,6.91,1.46,7.93h0c1.16-1.27,4.85-4.8,10-4.16,4.42.55,5.15,6.21,11.69,9.55,4.59,2.35,11.46,1.27,14.26-2.24C34.47,14.41,27.81,15.39,23.31,13.1Z"/><path class="cls-11" d="M36.68,2.34,36.46,2C41,10.6,31,14.72,25.37,9.21,30.91,14.89,41,10.87,36.68,2.34Z"/><path class="cls-12" d="M60.2.64,60,.56a4.47,4.47,0,0,0-2.79.21l0,0a.83.83,0,0,0-.21.28,66.73,66.73,0,0,0-4.18,6.26l-3.9-6.24v0a1,1,0,0,0-.22-.27l0,0A4.26,4.26,0,0,0,46.06.52a1.91,1.91,0,0,0-.51.12.79.79,0,0,0-.49.72V14.55c0,.26.12.72.94.84a4.79,4.79,0,0,0,.81.06c.57,0,1.76,0,1.76-.9V6.94c.25.4.74,1.19,1.27,2.17.75,1.38,1.24,2.28,1.5,2.7l.15.28a2,2,0,0,0,.5.52,1.93,1.93,0,0,0,1.4.22.87.87,0,0,0,.33-.17,2.31,2.31,0,0,0,.57-.53c.07-.11.18-.31.34-.6s.55-1,1.16-2.14,1.06-2,1.38-2.49c0,0,0,1.43,0,1.51v6.14c0,.9,1.18.9,1.75.9s1.76,0,1.76-.9V1.36A.79.79,0,0,0,60.2.64Z"/><path class="cls-12" d="M64.46,5.87c-1.12,0-1.27.2-1.27.42V14.7c0,.22.15.42,1.27.42s1.27-.2,1.27-.42V6.29C65.73,6.07,65.58,5.87,64.46,5.87Z"/><path class="cls-12" d="M64.46,15.6c-.57,0-1.76,0-1.76-.9V6.29c0-.9,1.19-.9,1.76-.9s1.75,0,1.75.9V14.7C66.21,15.6,65,15.6,64.46,15.6Zm-.79-1a3.94,3.94,0,0,0,.79.06,4,4,0,0,0,.79-.06V6.41a4,4,0,0,0-.79-.06,3.94,3.94,0,0,0-.79.06Z"/><path class="cls-12" d="M77.28,1.11H70c-.77,0-1.16.09-1.16.41V14.7c0,.22.15.42,1.27.42s1.26-.2,1.26-.42V9.26h5.24c.4,0,.67-.46.67-1.17S77,6.92,76.56,6.92H71.32V3.45h6c.41,0,.67-.46.67-1.17S77.69,1.11,77.28,1.11Z"/><path class="cls-12" d="M70.06,15.6c-.57,0-1.75,0-1.75-.9V1.52c0-.84,1-.87,1.63-.9h7.34c.53,0,1.15.44,1.15,1.66s-.62,1.65-1.15,1.65H71.8V6.44h4.76c.53,0,1.15.43,1.15,1.65s-.62,1.65-1.15,1.65H71.8v5C71.8,15.6,70.62,15.6,70.06,15.6Zm-.79-1a4,4,0,0,0,.79.06,4,4,0,0,0,.78-.06V8.78h5.72s.18-.23.18-.69-.13-.67-.18-.69H70.84V3h6.44s.19-.18.19-.68-.15-.68-.18-.69v0H70a4.08,4.08,0,0,0-.68.06Z"/><path class="cls-12" d="M96.45,1.11c-1.12,0-1.27.21-1.27.43v8.69l-6-8.88,0,0a3.76,3.76,0,0,0-2.21-.09.33.33,0,0,0-.23.31V14.69c0,.14,0,.43,1.26.43s1.27-.29,1.27-.43V6l6,8.87c.14.19.67.26,1.17.26a3.72,3.72,0,0,0,1-.1c.26-.08.31-.23.31-.33V1.54C97.71,1.32,97.56,1.11,96.45,1.11Z"/><path class="cls-12" d="M96.41,15.6c-1.1,0-1.42-.26-1.56-.46L89.72,7.56v7.13c0,.91-1.18.91-1.75.91s-1.74,0-1.74-.91V1.54a.81.81,0,0,1,.53-.75C87.12.64,89,.45,89.49,1l.09.1L94.7,8.66V1.54c0-.92,1.22-.92,1.75-.92s1.74,0,1.74.92V14.69a.84.84,0,0,1-.64.79A4.75,4.75,0,0,1,96.41,15.6Zm-.8-1.06a2.13,2.13,0,0,0,.8.1,4,4,0,0,0,.82-.07V1.66a3,3,0,0,0-.78-.07,3.09,3.09,0,0,0-.79.07V11.8L88.82,1.67a4.68,4.68,0,0,0-1.63,0V14.57a3.34,3.34,0,0,0,.78.06,3.39,3.39,0,0,0,.79-.06V4.42Z"/><path class="cls-12" d="M102.33,1.1c-1.12,0-1.28.2-1.28.42V14.7c0,.22.16.42,1.28.42s1.27-.2,1.27-.42V1.52C103.6,1.3,103.45,1.1,102.33,1.1Z"/><path class="cls-12" d="M102.33,15.6c-.57,0-1.76,0-1.76-.9V1.52c0-.9,1.19-.9,1.76-.9s1.75,0,1.75.9V14.7C104.08,15.6,102.9,15.6,102.33,15.6Zm-.79-1a3.94,3.94,0,0,0,.79.06,4.12,4.12,0,0,0,.79-.06V1.65a3.09,3.09,0,0,0-.79-.07,3,3,0,0,0-.79.07Z"/><path class="cls-12" d="M82,1.1c-1.12,0-1.27.2-1.27.42V14.7c0,.22.15.42,1.27.42s1.27-.2,1.27-.42V1.52C83.31,1.3,83.16,1.1,82,1.1Z"/><path class="cls-12" d="M82,15.6c-.57,0-1.76,0-1.76-.9V1.52c0-.9,1.19-.9,1.76-.9s1.75,0,1.75.9V14.7C83.79,15.6,82.61,15.6,82,15.6Zm-.79-1a3.94,3.94,0,0,0,.79.06,4,4,0,0,0,.79-.06V1.65A3.09,3.09,0,0,0,82,1.58a3,3,0,0,0-.79.07Z"/><path class="cls-12" d="M117.15,1.11H106.88c-.21,0-.41.15-.41,1.26s.2,1.26.41,1.26h3.87V14.7c0,.22.16.42,1.27.42s1.26-.2,1.26-.42V3.63h3.87c.22,0,.42-.15.42-1.26S117.37,1.11,117.15,1.11Z"/><path class="cls-12" d="M112,15.6c-.57,0-1.75,0-1.75-.9V4.12h-3.39c-.9,0-.9-1.18-.9-1.75s0-1.75.9-1.75h10.27c.9,0,.9,1.18.9,1.75s0,1.75-.9,1.75h-3.38V14.7C113.77,15.6,112.59,15.6,112,15.6Zm-.78-1a5.1,5.1,0,0,0,1.56,0V3.15H117a3.89,3.89,0,0,0,.06-.78,3.89,3.89,0,0,0-.06-.78H107a3.21,3.21,0,0,0-.06.78,3.21,3.21,0,0,0,.06.78h4.23Z"/><path class="cls-12" d="M131.83,1.24c-.47-.17-2.25-.21-2.58.21l-3.2,5-3.21-5c-.31-.41-2.07-.38-2.55-.22-.27.09-.32.24-.32.35v.07l4.8,7.5v5.51c0,.11,0,.47,1.27.47s1.27-.36,1.27-.47V9.15l4.82-7.5V1.58C132.13,1.47,132.08,1.33,131.83,1.24Z"/><path class="cls-12" d="M126,15.61c-.43,0-1.75,0-1.75-.95V9.29l-4.81-7.5V1.58a.85.85,0,0,1,.65-.8c.47-.16,2.56-.32,3.1.39l0,0,2.8,4.35,2.82-4.39c.56-.7,2.68-.52,3.12-.37h0a.86.86,0,0,1,.63.8V1.8L127.8,9.29v5.37C127.8,15.61,126.48,15.61,126,15.61Zm-.79-1a2.3,2.3,0,0,0,.79.09,2.2,2.2,0,0,0,.79-.09V9l4.73-7.35a4.49,4.49,0,0,0-1.94.1l-3.57,5.56-3.59-5.56a4.39,4.39,0,0,0-1.92-.1L125.25,9Z"/><rect class="cls-12" x="62.55" y="0.75" width="3.7" height="3.72" rx="1.85"/></g></g></g></svg>