<?xml version="1.0" encoding="UTF-8" standalone="no"?>
<!-- Created with Inkscape (http://www.inkscape.org/) -->

<svg
   width="4267.3364mm"
   height="1276.113mm"
   viewBox="0 0 4267.3364 1276.113"
   version="1.1"
   id="svg1"
   xml:space="preserve"
   inkscape:version="1.4.3 (0d15f75, 2025-12-25)"
   sodipodi:docname="mpay_logo.svg"
   xmlns:inkscape="http://www.inkscape.org/namespaces/inkscape"
   xmlns:sodipodi="http://sodipodi.sourceforge.net/DTD/sodipodi-0.dtd"
   xmlns:xlink="http://www.w3.org/1999/xlink"
   xmlns="http://www.w3.org/2000/svg"
   xmlns:svg="http://www.w3.org/2000/svg"><sodipodi:namedview
     id="namedview1"
     pagecolor="#505050"
     bordercolor="#eeeeee"
     borderopacity="0.17647059"
     inkscape:showpageshadow="0"
     inkscape:pageopacity="0"
     inkscape:pagecheckerboard="0"
     inkscape:deskcolor="#505050"
     inkscape:document-units="mm"
     inkscape:zoom="0.023162177"
     inkscape:cx="7469.0733"
     inkscape:cy="3648.189"
     inkscape:window-width="1426"
     inkscape:window-height="838"
     inkscape:window-x="0"
     inkscape:window-y="33"
     inkscape:window-maximized="0"
     inkscape:current-layer="layer1" /><defs
     id="defs1"><linearGradient
       id="linearGradient11"
       inkscape:collect="always"><stop
         style="stop-color:#114fcc;stop-opacity:1;"
         offset="0"
         id="stop11" /><stop
         style="stop-color:#01d7d6;stop-opacity:1;"
         offset="1"
         id="stop12" /></linearGradient><linearGradient
       inkscape:collect="always"
       xlink:href="#linearGradient11"
       id="linearGradient12"
       x1="-2181.8076"
       y1="2901.4614"
       x2="-491.19232"
       y2="2901.4614"
       gradientUnits="userSpaceOnUse" /></defs><g
     inkscape:label="Layer 1"
     inkscape:groupmode="layer"
     id="layer1"
     transform="translate(1988.8127,458.25948)"><g
       id="g12"
       transform="translate(194.19231,-2878.6154)"><path
         style="fill:#0145c5;fill-opacity:1;stroke:none"
         d="m -165.49628,2775.3437 4.07578,-57.0608 h -183.40988 v 978.186 h 179.3341 l 0.16046,-195.6372 3.91532,-146.7279 c 141.027445,134.8806 377.42141,102.5722 500.09692,-40.7577 109.57252,-128.0208 124.17954,-331.6413 22.0267,-468.7142 -32.19599,-43.2021 -71.17706,-80.3881 -118.62188,-106.5205 -55.79215,-30.7302 -120.22069,-44.3074 -183.409879,-44.2832 -93.143552,0.036 -145.802746,41.511 -224.167641,81.5155 m 1247.18718,574.6843 4.1293,62.6494 44.7832,2.6196 130.4216,4.0192 v -701.0333 h -179.3341 v 61.1366 c -63.6803,-44.3237 -122.75787,-83.5461 -203.78874,-85.5316 -65.58306,-1.607 -128.25805,8.0211 -187.48565,37.6349 -50.65688,25.3284 -96.10511,62.8907 -129.21083,109.0333 -84.35268,117.5706 -98.60246,279.1253 -28.47072,407.5776 108.37795,198.5037 379.48737,257.8781 548.95594,101.8943 m 236.395,-631.7451 64.3947,167.1068 140.2085,342.3651 51.5606,126.349 22.3852,61.1366 -27.153,77.4398 -80.2135,203.7887 h 142.6521 l 55.4568,-4.1889 32.597,-69.175 75.7917,-187.4857 288.5656,-717.3364 h -138.5764 c -15.0359,0 -41.5269,-5.0178 -54.416,4.1889 -26.2815,18.7731 -39.3161,88.4789 -50.7837,118.0843 -28.963,74.7737 -57.8674,149.534 -87.1889,224.1677 -15.2953,38.9321 -37.8004,80.8396 -44.0063,122.2732 -25.7301,-26.5192 -36.8855,-75.915 -50.5383,-110.0459 l -94.5607,-236.395 c -11.595,-28.9866 -25.8274,-100.6104 -52.2428,-118.0843 -13.6766,-9.0471 -39.6943,-4.1889 -55.3563,-4.1889 H 1318.0859 M 26.065161,2862.1018 c 177.717379,-21.7576 280.934939,199.0015 177.179799,333.0468 -35.7516,46.1888 -87.9058,69.5206 -144.573599,76.2761 -148.808829,17.7399 -260.564901,-139.4165 -211.572391,-275.9891 27.90727,-77.7951 99.607485,-123.6181 178.966191,-133.3338 m 835.533899,0 c 111.32357,-13.4929 219.31944,88.0923 219.36224,198.5462 0.042,108.9087 -79.463,197.5965 -186.75607,210.7735 -141.61798,17.3927 -249.80488,-127.0318 -214.02219,-259.6828 22.94365,-85.0551 96.10187,-139.2965 181.41602,-149.6369"
         id="path10"
         sodipodi:nodetypes="cccccccssssccccccccsssscccccccccccccsssscssssccsssccsssc" /><path
         style="fill:url(#linearGradient12);fill-opacity:1;stroke:none"
         d="m -2183.005,3011.7387 h 330.1378 c 0,-68.5619 0.3172,-131.7217 46.7393,-187.4259 83.5773,-100.2887 236.3809,-73.903 296.0284,36.6222 30.5705,56.6464 19.9763,129.61 19.9763,191.5614 v 391.2745 h 293.4558 v -391.2745 c 0,-64.2318 -10.674,-137.2575 21.8003,-195.6372 73.1416,-131.4878 265.44845,-125.2829 327.43959,12.2274 27.37143,60.716 17.57989,134.9052 17.57989,199.7129 v 374.9714 c 74.29906,0 192.5254,21.8872 256.77383,-23.0238 96.92454,-67.7523 61.13663,-245.4532 61.13663,-347.8718 0,-152.1997 5.07146,-304.1227 -84.55666,-436.1079 -155.27487,-228.6558 -551.04148,-311.217 -742.82568,-73.364 -215.9146,-215.8906 -585.4361,-179.1173 -757.9779,73.364 -79.2609,115.9829 -85.7076,239.5544 -85.7076,374.9713 m 0,77.4397 v 354.5925 h 183.4099 c 39.3143,0 78.1891,1.3336 109.6654,-26.3637 35.9567,-31.6396 37.0625,-76.2985 37.0625,-120.3642 v -207.8646 h -330.1378 m 73.4269,177.0258 c 34.8105,-9.8304 82.036,-1.7698 118.1345,-1.7674 13.8571,8e-4 31.7614,-2.5766 44.2297,4.8054 21.2196,12.563 24.1112,70.7795 -0.2673,81.8363 -32.7133,14.8369 -93.8244,3.0276 -129.5536,3.0253 -13.3034,-9e-4 -31.4719,2.825 -43.2265,-4.8054 -25.4004,-16.4882 -18.4771,-74.8595 10.6832,-83.0942 z"
         id="path11"
         sodipodi:nodetypes="ccsssccsssscssscscccsssccsssssss" /></g></g></svg>
