<?xml version="1.0" encoding="UTF-8"?>
<svg class="icon" width="2498.8" height="459" version="1.1" viewBox="0 0 2498.7503 918" xmlns="http://www.w3.org/2000/svg" xmlns:cc="http://creativecommons.org/ns#" xmlns:dc="http://purl.org/dc/elements/1.1/" xmlns:rdf="http://www.w3.org/1999/02/22-rdf-syntax-ns#">
<metadata>
<rdf:RDF>
<cc:Work rdf:about="">
<dc:format>image/svg+xml</dc:format>
<dc:type rdf:resource="http://purl.org/dc/dcmitype/StillImage"/>
<dc:title/>
</cc:Work>
</rdf:RDF>
</metadata>
<g transform="matrix(5.6416 0 0 5.6416 -1449.3 -199.67)" fill="#003b77">
<path d="m376.56 142.31c-29.11-5.637-50.683-20.959-50.88-21.204-0.138-0.25-2.563-1.35-2.21-2.98 1.13-4.7 7.95-14.305 8.584-15.635 0.771-1.36 0.291-3.713-1.335-4.052-10.519-2.102-10.857-2.479-10.857-2.479-2.996-0.162-3.202 1.247-3.202 1.247l0.208 7.5c-1.925 6.584-3.113 6.098-3.113 6.098s-8.584-6.374-9.163-6.865c-0.569-0.52-7.17-1.095-7.17-1.095s0.62-1.125 1.268-1.675c9.742-8.328 12.331-15.89 12.424-16.117 0-0.25-0.157-4.503-0.157-4.503l-3.31-4.336 8.638-2.392s5.048-1.502 6.035-0.417c1.733 1.935 2.283 10.587 2.283 10.587 2.961 6.364 12.478 8.874 13.106 8.981 0.604 0.275 16.79 4.925 16.79 4.925 4.031-3.167 3.402-7.425 3.402-7.425 0.938-2.44-7.856-6.104-11.245-6.835-12.169-2.873-14.256-4.95-17.546-7.425-3.354-2.47-0.766-4.906-0.766-4.906s6.34-1.866 8.195-2.264c2.617-0.545 17.36-1.243 17.36-1.243 4.075 0.34 4.075-1.193 4.075-1.193l-1.169-9.816c0.432-1.277-0.663-3.713-1.675-3.497-18.052 5.303-29.449 6.227-29.449 6.227-1.487 0.25-1.63-7.675-1.129-11.28 0.604-4.149-3.29-6.776-5.883-6.914-2.549-0.079-6.688-2.73-6.688-2.73-10.146 13.848 3.29 16.996 4.224 17.394 3.608 1.38 2.945 1.847 4.051 3.236 1.404 1.72-2.716 3.06-5.279 3.771-23.895 6.477-32.459 6.693-35.027 6.556-5.396-0.25-3.609 4.876-3.609 4.876s1.808 2.293 2.912 4.69c1.832 4.212 10.867 1.09 12.625 0.623 9.988-2.76 9.96-1.856 9.96-1.856 1.541 1.856-1.337 7.052-1.337 7.052-6.56 8.525-15.66 13.588-17.433 14.221-1.886 0.771-2.583 0.191-2.583 0.191-0.952 2.367 1.792 6.12 2.873 6.261 0.795 0.08 9.14-0.202 9.14-0.202l1.158-0.378c0.981 0 0.643 1.335 0.643 1.335 0.585 6.188 4.321 7.705 6.478 8.265 6.993 1.738 8.913 5.26 8.913 5.26-15.749 21.311-44.48 19.215-44.48 19.215 0.84 0.87 3.314 2.264 8.151 3.201 15.92 3.201 30.544-5.283 31.747-6.26 1.075-1.018 9.768-7.573 10.985-8.869 2.082-2.284 3.275-1.05 3.275-1.05s14.02 11.81 18.341 15.417c24.578 20.704 39.58 2.04 39.58 2.04m83.571-72.037c2.73-4.606-1.375-10.033-3.825-11.56-8.805-5.412-9.89-8.324-9.89-8.324-4.989 2.426-5.063 8.107-3.674 11.422 4.587 11.015 16.495 10.072 17.39 8.462"/>
<path d="m508.39 87.641c-0.07 0.795-0.27 36.196-0.27 36.196-0.358 1.007-7.406 1.297-7.406 1.297-0.702 3.02 7.23 12.223 7.23 12.223s-0.099 0.658-2.678 0.691c-11.947 0.266-14.446-1.482-14.446-1.482 0.785-0.113 4.65-4.586 4.65-4.586v-11.074c6.408-2.249 8.505-5.48 8.505-5.48 1.134-6.03-1.05-6.438-1.05-6.438l-5.275 0.982c-2.44 0.177-2.063-1.232-2.063-1.232l-0.117-4.483c0-0.506 8.977-4.449 8.977-4.449s0.894-2.38 0.354-5.868c-0.535-3.467-9.193-0.476-9.193-0.476l-0.506-5.932s4.292-0.727 5.613-1.38c1.267-0.692 6.531-1.537 6.531-1.537 1.262 0.187 1.262 2.19 1.144 3.03m-21.7 48.231c-8.06-0.54-10.137-2.077-10.137-2.077 0.103-0.545 0.712-12.473 0.712-12.473 9.698-0.473 9.698 0.422 9.698 0.422 0.825 7.248-0.274 14.128-0.274 14.128m-11.109-36.814s-2.352-6.109-0.594-7.066c0 0 2.76 0.731 10.253-1.999 0 0 1.174 2.406 0.86 5.245-0.174 1.228-1.159 1.046-1.159 1.046s-5.44 1.935-7.087 3.305c-0.838 0.844-1.777 2.071-2.273-0.53m9.134 13.243s-7.233 1.095-7.699 0.737c0 0-0.153-7.076-0.153-7.769 0 0 2.26 1.095 3.762 1.213 1.443 0.07 2.77 0.422 4.915-0.118 0 0 0.978-0.029 0.978 2.293 0 3.168 0.345 3.34-1.803 3.644m30.515 24.15s-1.096-0.688-0.418-2.264c0.692-1.552 1.492-5.445 1.213-6.148 0 0-2.077-24.435-0.299-36.048 0.737-4.783 1.537-12.797 2.245-13.308 0 0-1.37-4.332-11.968-3.77-3.595 0.205-7.96 3.22-10.533 1.37-1.729-1.209-1.39-2.329-0.079-3.753 1.307-1.419 15.984-17.02 19.107-17.604 0 0 3.472-4.582-4.105-8.878-4.479-2.543-5.539-4.1-11.196-0.457-3.324 2.175-12.782 10.538-18.88 11.638-3.13 0.535-3.66-2.195-3.994-2.514l-1.198-0.879s-5.406 4.945-4.807 11.943c0.216 3.555 9.575 0.432 12.281-1.719 1.96-1.64 14.1-8.99 11.633-2.4l-7.542 8.411-5.99 1.674s-3.218 1.198-0.497 4.1c0 0 4.675 3.025 4.184 4.327 0 0-0.678 1.856-6.929 4.837-1.419 0.62-3.01 2-3.345 2.475-0.082 0.113-0.082 0.157-0.113 0.182l-4.694-2.73-3.507-0.138s1.277 8.505 1.14 9.601c-0.09 0.987-0.402 33.642 2.121 38.592l-12.026-1.01s-17.845-18.623-4.498-44.34c1.68-3.246 3.958-7.243-2.2-9.895-2.71-1.248-8.745-1.9-9.812-3.114 0 0-4.114-1.478-3.624 3.86l2.854 6.305s-0.457 3.673-2.18 12.365c-0.362 1.935-2.284 13.111 7.46 28.712 0 0 1.732 2.98 1.118 3.997-0.456 1.09-0.982 0.457-0.982 0.457l-12.434-1.258s-2.809-0.77-3.378 2.137c-0.428 2.043-2.627 9.183 1.228 9.992 0 0 23.434-5.076 58.623 4.307 6.311 1.68 15.503 3.301 33.397 2.81 0 0 22.854-3.202 22.854-16.69-2e-3 0-4.843-3.827-30.23 4.825m263.58-64.064c9.364-0.29 14.024-4.99 14.024-4.99s2.735-2.38 5.647-5.42c3.535-3.557 7.321-7.735 7.321-7.735l2.643-1.6v-1.233c-4.336-4.562-11.796-6.477-11.796-6.477-0.216-0.339-1.296 0.285-1.296 0.285-2.406 4.69-9.424 11.491-11.285 13.141-7.1 6.275-9.236 12.104-9.236 12.104s1.454 1.96 3.978 1.924m30.47 2.662c0.864-1.787 0.142-2.95 0.142-2.95-8.01-3.237-14.217-3.119-14.217-3.119l-2.765 0.874c-20.016 29.675-42.324 39.432-42.324 39.432-0.79 0.987 1.547 6.64 1.547 6.64s1.311 0.633 3.261 0.691c7.365 0.383 23.354-12.365 23.354-12.365 2.323-0.138 3.305 3.462 3.305 3.462-0.46 1.16-0.928 27.278-0.98 29.1-0.182 6.035 2.336 10.066 4.625 10.066 2.26 0 6.472-3.84 6.472-3.84l-0.357-21.15c-0.31-1.232-2.765-24.469-2.765-24.469 15.615-13.332 19.867-20.659 20.702-22.372m4.768-13.323c2.141 6.516 5.333 9.816 5.333 9.816 13.656 6.074 31.207-6.28 32.091-7.018 0.854-0.692 1.425-4.689 1.425-4.689-0.57-0.854-4.626-4.032-4.626-4.032l-2.107-0.658c-14.972 2.401-32.297 2.083-32.297 2.083l-0.658 2.681s0.137-0.073 0.84 1.817"/>
<path d="m863.89 73.852s-23.243 5.264-29.48 5.603c-3.506 0.216-23.31 2.426-23.31 2.426s-8.447 0.923-9.013 8.88c-0.173 2.101-0.2 7.026 0.463 7.866 0 0 7.591-2.225 17.24-4.302 3.324-0.76 8.107-1.02 8.864-0.948 0 0 1.478 36.953 0.825 38.386 0 0 0.451 5.451-5.805 3.3 0 0-6.473-3.919-12.576-3.776 0 0-0.216 0.934 1.193 2.244 1.39 1.316 10.45 8.691 14.608 13.941 1.4 1.861 16.392 7.641 17.158-8.8 0.161-2.868-3.045-31.295-3.26-33.063-0.245-1.753-0.85-12.886 0.038-13.392 0 0 24.366-3.285 29.075-8.696 1.611-1.813-0.146-6.83-6.01-9.669m-218.02 49.986s-11.5 1.856-11.5 1.518c-0.107-0.359 1.315-2.038 3.063-3.373 4.936-3.86 7.17-6.733 7.17-6.733 3.182-6.83-0.663-6.59-0.663-6.59-3.286-1.115-5.44 1.856-6.075 2.804-5.494 7.857-5.809 7.125-5.809 7.125-0.889-4.517-0.216-14.029-0.216-14.029l8.273-4.552c2.52-0.85 3.055-5.898 1.365-6.949-1.365-0.84-9.325 0.187-9.325 0.187s-1.017 0.545-1.458 0.06c-0.472-0.443 0.146-3.772 0.146-3.772l7.021-3.255c1.866-1.479 1.16-5.662 1.16-5.662-1.32-1.856-5.19-2.44-5.19-2.44l-10.093 0.182s-2.67 0.692-2.356-0.79c0.57-3.359 7.788-9.842 7.788-9.842 3.776 0.074 8.834 3.88 9.787 4.75a108.96 108.96 0 0 0 7.94 6.285c0.751-17.6-7.449-20.777-8.894-21.528-1.542-0.8-1.468-2.303-1.468-2.303 4.424-3.025 4.061-3.924 4.061-3.924-4.557-11.888-12.753-9.055-12.753-9.055-0.07 0.432-4.91 9.92-6.57 12.98-12.708 22.952-33.867 39.541-34.603 40.307-0.737 0.805-8.19 4.351-8.19 4.351 3.805 9.148 12.62 7.734 14.362 7.317 5.574-1.218 19.466-19.048 19.466-19.048 0.447 1.012 2.73 1.012 3.83 1.237 3.92 0.815 7.047 1.12 7.047 1.12l0.385 5.024-8.23 2.357s-3.736 1.031-3.963 5.171c-0.33 8.554 6.046 6.11 6.046 6.11l6.914-2.108c0.461 0.33 1.09 10.946 1.09 10.946l-7.68-4.572c-4.288 2.328-4.488 6.506-4.488 6.506 1.925 5.707 5.622 5.854 7.297 6.66 1.354 0.578 1.193 2.105 0.177 2.611-17.992 9.453-19.186 8.914-19.186 8.914l-1.27 3.093c-0.06 8.187 11.022 5.456 11.706 5.067 18.07-9.619 30.725-12.85 30.725-12.85 2.294 0.068 4.141-4.4 4.141-4.4l1.68-2.652c1.332-2.633-2.66-2.255-2.66-2.255m22.574 2.426c-3.546 1.675-5.7 0.408-5.7 0.408s-3.346-6.34-2.147-16.746c0 0 0.742-0.354 1.435-0.25 0 0 7.007 1.168 15.994 6.34 0 0 0.844 5.626-9.582 10.248m-7.105-46.705 0.923-1.32 13.26-0.492s0.932 0.61 0.29 2.244c-0.629 1.674-2.41 8.196-7.744 8.004 0 0-7.096 1.321-7.272-0.987zm2.406-17.595c0.235-1.837 11.544-1.979 12.836-1.616 1.326 0.324 1.571 4.115 1.571 4.115-1.148 5.608-2.092 5.01-2.092 5.01-6.728 1.58-12.768 0.303-12.768 0.303-0.657-1.639 0.453-7.812 0.453-7.812m34.124 53.09c-6.006-2.014-12.842-6.473-12.842-6.473 0.28-0.25 21.788-13.013 21.788-13.013-5.277-6.368-11.927-9.938-11.927-9.938-11.692 18.798-28.324 20.12-31.02 20.222-2.71 0.113-3.197-0.024-3.236-2.357-0.346-8.107 1.13-8.254 1.13-8.254s1.885-0.108 3.388 1.345c2.833 2.573 9.192 0.58 9.192 0.58l4.232-3.703c4.45-4.989 4.955-6.737 5.274-11.093 0.796-10.44 2.765-14.432 3.924-17.619 3.074-8.319 2.735-10.283 2.735-10.283-0.589-9.1-9.566-6.227-10.607-5.79-6.963 2.646-15.699 3.712-18.474 4.468-7.12 2.23-6.187 3.644-6.187 3.644l-0.472 7.046s-1.184 37.473-1.228 40.17c-1.115 28.986 1.09 43.218 1.09 43.218-0.13 2.465 3.187 3.781 3.187 3.781 10.465-0.58 18.98-19.795 19.662-22.01 3.457-11.496 4.164-10.225 4.164-10.225 8.221 3.315 18.081 15.027 18.656 15.498 0.657 0.516 1.596 0.227 2.416-1.276 0.756-1.62 6.133-8.313 6.133-8.313-0.19-2.24-7.447-8.413-10.977-9.625m-474.1 55.513h8.354c3.314 0 5.401 0.741 5.401 3.128 0 2.338-2.294 3.285-5.17 3.285h-8.585zm-7.017 24.048h14.8c7.115 0 9.046-0.978 11.05-2.617 1.797-1.488 3.005-3.703 3.005-5.996 0-2.878-1.159-5.71-5.422-6.988 1.493-0.658 4.312-1.777 4.312-5.99 0-3.035-2.136-7.436-10.739-7.436h-17.005v29.027zm7.017-12.793h9.325c2.593 0 5.195 1.018 5.195 3.546 0 2.927-2.018 4.272-5.578 4.272h-8.942m34.045-0.953h12.842l2.27 5.928h7.895l-12.312-29.027h-8.348l-12.448 29.027h7.685zm6.423-16.539h0.098l4.258 11.477h-8.81m46.986-18.037h6.796v29.027h-7.292l-14.159-20.699h-0.113v20.7h-6.836v-29.028h7.71l13.774 20.197h0.117m21.643 8.83h-7.277v-29.027h7.277v11.83l13.332-11.83h9.42l-14.262 11.854 15.057 17.173h-9.395l-10.734-12.734-3.418 2.918m52.736-4.689c0 13.601 12.13 15.206 16.794 15.206 4.592 0 16.716-1.605 16.716-15.207 0-13.607-12.124-15.283-16.716-15.283-4.666 0-16.794 1.676-16.794 15.283m7.341 0c0-8.157 5.475-10.12 9.452-10.12 3.89 0 9.404 1.963 9.404 10.12 0 8.107-5.515 10.101-9.404 10.101-3.977 0-9.452-1.993-9.452-10.1m39.289 14.505h-7.302v-29.027h24.765v5.132h-17.463v6.546h15.346v5.127h-15.346m69.555-7.268c-0.59-1.748-1.733-5.054-7.705-5.054-3.535 0-8.722 1.911-8.722 10.141 0 5.22 2.471 9.89 8.722 9.89 4.002 0 6.801-1.885 7.705-5.445h7.268c-1.503 6.29-6.408 10.66-15.11 10.66-9.296 0-16.014-5.166-16.014-15.168 0-10.16 7.101-15.322 16.038-15.322 10.49 0 14.673 6.002 15.086 10.3m3.987 4.983c0 13.601 12.188 15.206 16.77 15.206 4.626 0 16.766-1.605 16.766-15.207 0-13.607-12.14-15.283-16.766-15.283-4.582 0-16.77 1.676-16.77 15.283m7.316 0c0-8.157 5.53-10.12 9.453-10.12 3.938 0 9.4 1.963 9.4 10.12 0 8.107-5.462 10.101-9.4 10.101-3.923 0-9.453-1.993-9.453-10.1m65.528 14.505h-6.767v-24.293h-0.149l-6.512 24.293h-7.09l-6.409-24.293h-0.039v24.293h-6.83v-29.027h10.656l6.267 22.88h0.105l6.212-22.88h10.553m40.496 29.027h-6.796v-24.293h-0.082l-6.586 24.293h-7.076l-6.379-24.293h-0.055v24.293h-6.855v-29.027h10.627l6.354 22.88h0.113l6.114-22.88h10.621m34.959 18.882c0 7.601-5.51 10.847-14.413 10.847-3.227 0-7.989-0.623-11.054-3.496-1.886-1.719-2.593-4.076-2.74-6.943v-19.29h7.4v18.842c0 4.037 2.888 5.78 6.256 5.78 5.054 0 7.141-1.993 7.141-5.48v-19.142h7.41m28.319 0h6.807v29.027h-7.288l-14.123-20.699h-0.196v20.7h-6.767v-29.028h7.76l13.74 20.197h0.07m13.266 8.83h7.321v-29.027h-7.32v29.027zm36.362-19.49c-0.574-1.748-1.719-5.054-7.729-5.054-3.486 0-8.662 1.911-8.662 10.141 0 5.22 2.465 9.89 8.662 9.89 4.081 0 6.815-1.885 7.73-5.445h7.272c-1.459 6.29-6.413 10.66-15.14 10.66-9.257 0-15.94-5.166-15.94-15.168 0-10.16 7.003-15.322 15.99-15.322 10.47 0 14.687 6.002 15.09 10.3m12.92 13.56h12.846l2.26 5.928h7.92l-12.267-29.027h-8.412l-12.448 29.027h7.705zm6.477-16.539h0.043l4.347 11.477h-8.933m36.256 10.99h-7.297v-23.895h-10.603v-5.132h28.438v5.132h-10.539m14.232 23.895h7.326v-29.027h-7.326zm12.536-14.505c0 13.601 12.184 15.206 16.766 15.206 4.601 0 16.838-1.605 16.838-15.207 0-13.607-12.236-15.283-16.838-15.283-4.582 0-16.766 1.676-16.766 15.283m7.367 0c0-8.157 5.471-10.12 9.4-10.12 4.035 0 9.545 1.963 9.545 10.12 0 8.107-5.51 10.101-9.546 10.101-3.929 0-9.399-1.993-9.399-10.1m53.275-14.522h6.826v29.027h-7.263l-14.236-20.699h-0.07v20.7h-6.836v-29.028h7.685l13.813 20.197h0.08m19.029-0.113c0.118 1.631 0.997 4.7 7.371 4.7 3.501 0 7.317-0.702 7.317-3.77 0-2.274-2.612-2.873-6.306-3.58l-3.702-0.737c-5.628-1.06-11.128-2.136-11.128-8.55 0-3.227 2.072-8.908 13.357-8.908 10.734 0 13.602 5.82 13.642 9.39h-6.954c-0.176-1.306-0.834-4.37-7.218-4.37-2.706 0-5.942 0.874-5.942 3.452 0 2.293 2.161 2.735 3.634 3.024l8.485 1.758c4.71 0.934 9.041 2.598 9.041 7.764 0 8.742-10.578 9.473-13.72 9.473-12.685 0-14.85-6.045-14.85-9.645m-857.26-35.608v-1.792m99.357-78.8c-9.788 0-18.99 2.843-26.744 7.842l-26.242 16.941v-58.864l-46.37 39.035v73.846c0 21.906 14.333 40.562 34.147 47.078l8.854 2.76c-18.14-8.986-30.549-27.215-30.549-48.38 0-29.944 25.182-54.277 56.134-54.277 28.963 0 52.765 21.165 55.75 48.458l-31.89-0.044c-2.809-10.69-12.557-18.542-24.087-18.542a24.8 24.8 0 0 0 -24.857 24.848c0 13.637 11.068 24.79 24.857 24.79 12.67 0 23.145-9.48 24.612-21.745l31.62-0.035c-0.728 11.015-4.783 21.071-11.172 29.282 0 0 19.568-22.889 26.262-33.216 6.06-9.418 9.408-19.127 9.408-30.15 1e-3 -27.437-22.249-49.628-49.734-49.627"/>
</g>
</svg>
