<svg xmlns="http://www.w3.org/2000/svg" width="505" height="384" viewBox="0 0 154.78 117.69" shape-rendering="geometricPrecision" image-rendering="optimizeQuality" fill-rule="evenodd" xmlns:v="https://vecta.io/nano"><path d="M53.74 117.69H37.92l-3.22-13.62H16.8l-3.35 13.62H0l18.44-65.74h18.07l17.23 65.74zM32.9 95.39h0l-7.06-30.87-7.24 30.87h14.3zm47.83-43.44h0c4.77 0 8.8.49 12.13 1.43 3.32.95 6.02 2.98 8.11 6.08s3.13 7.47 3.13 13.08c0 14.93-7.71 22.4-23.1 22.4h-5.17v22.75H60.94V51.95h19.79zm-2.34 34.48h0c2.83 0 4.94-.37 6.34-1.1 1.38-.73 2.47-2.07 3.23-4 .77-1.93 1.15-4.76 1.15-8.52 0-3.65-.38-6.3-1.13-7.99-.74-1.67-1.75-2.81-3.01-3.43s-3.13-.93-5.6-.93h-3.54v25.97h2.56zm54.62 31.26h0-25.7l2.05-8.68h3.36V60.64h-2.54l-2.87-8.69h25.7l-2.87 8.69h-2.55v48.37h3.37l2.05 8.68z" fill="#838383"/><path d="M108.62 19.37c8.99-4.22 20.64-1.57 26.23 8.62 2.92 5.32 2.51 11.34 1.65 17.47h5.58c1.89-6.37 1.33-13.95-1.79-19.92-6.27-11.99-20.03-16.61-31.67-12.56v6.39zm45.32 26.09h0-5.95c5.23-21.78-13.22-41.27-34.45-38.81-1.69.2-3.34.53-4.92.98V1c27.89-6.33 50.93 18.44 45.32 44.46zm-34.73 1.19c5.88 0 10.68-4.8 10.68-10.68a10.7 10.7 0 0 0-10.68-10.67 10.69 10.69 0 0 0-10.67 10.67 10.7 10.7 0 0 0 10.67 10.68z" fill="#d82028"/></svg>