<?xml version="1.0" encoding="UTF-8"?>
<svg version="1.1" viewBox="0 0 885.83 305.19" xmlns="http://www.w3.org/2000/svg" xmlns:cc="http://creativecommons.org/ns#" xmlns:dc="http://purl.org/dc/elements/1.1/" xmlns:rdf="http://www.w3.org/1999/02/22-rdf-syntax-ns#">
<metadata>
<rdf:RDF>
<cc:Work rdf:about="">
<dc:format>image/svg+xml</dc:format>
<dc:type rdf:resource="http://purl.org/dc/dcmitype/StillImage"/>
<dc:title/>
</cc:Work>
</rdf:RDF>
</metadata>
<g transform="translate(-509.77 -241.76)">
<g transform="matrix(11.233 0 0 11.233 -4818.2 -5994.1)">
<path d="m542.43 558.09c-0.205 0-0.36875-0.16375-0.36875-0.36875v-1.4862c0-0.205 0.16375-0.36875 0.36875-0.36875h9.8312c0.2025 0 0.38875 0.1825 0.38875 0.36875v1.4862c0 0.205-0.18625 0.36875-0.38875 0.36875h-9.8312m-0.6125 4.71c-0.205 0-0.36625-0.16625-0.36625-0.36875v-1.4875c0-0.185 0.16125-0.36625 0.36625-0.36625h11.015c0.205 0 0.36625 0.18125 0.36625 0.36625v1.4875c0 0.2025-0.16125 0.36875-0.36625 0.36875h-1.9575v6.3175c0 0.77875-0.635 1.3875-1.4088 1.3875h-5.3438c-0.20625 0-0.36625-0.16125-0.36625-0.36375v-1.3062c0-0.205 0.16-0.36625 0.36625-0.36625h4.0375v-5.6688h-6.3425m-7.0175 1.9375c-0.16 0-0.2625-0.0625-0.2625-0.1625 0-0.0325 0.0113-0.0638 0.0625-0.125l2.9762-3.6912c0.225-0.26375 0.28625-0.325 0.49125-0.325h2.3238c0.1225 0 0.2025 0.0612 0.2025 0.185 0 0.0588-0.0187 0.10125-0.0588 0.16375l-2.4288 3.0375h1.1012v6.3212c0 0.1825-0.18375 0.36375-0.36875 0.36375h-1.9138c-0.205 0-0.38875-0.16125-0.38875-0.36375v-5.4038h-1.7362m0-4.7112c-0.18 0-0.2625-0.0612-0.2625-0.16625l0.0387-0.1 3-3.7112c0.225-0.2825 0.28625-0.325 0.49125-0.325h2.3238c0.1225 0 0.2025 0.0638 0.2025 0.16125 0 0.0838-0.0263 0.145-0.0675 0.2l-3.0325 3.775c-0.1 0.125-0.18375 0.16625-0.4075 0.16625h-2.2862z" fill="#f1471d"/>
<path d="m530.14 564.92c0.225-0.24375 0.305-0.305 0.48875-0.305h1.7525c0.225 0 0.3275 0.0363 0.3275 0.16375 0 0.0612-0.0613 0.14125-0.18375 0.285l-2.305 2.6488 0.16375 0.26375c0.26375 0.45 0.305 0.5125 0.40625 0.61625 0.14375 0.14375 0.22375 0.1625 0.6975 0.1625h0.9575c0.1825 0 0.36375 0.18125 0.36375 0.36375v1.0238c0 0.18-0.18125 0.36375-0.36375 0.36375h-1.4312c-1.2425 0-1.8938-0.305-2.385-1.0988l-2.5688-4.405c-0.0537-0.09-0.0825-0.1625-0.0825-0.22375 0-0.1025 0.0638-0.16375 0.2025-0.16375h1.9c0.2675 0 0.32375 0.0613 0.52875 0.3875l0.61375 1.0188 0.9175-1.1012m-5.305-4.1412v1.3062h5.385v-1.3062h-5.385m5.385-3.075h-5.385v1.305h5.385v-1.305m-5.385 11.051h1.8138c0.205 0 0.39125 0.16375 0.39125 0.36375v1.0238c0 0.18-0.18625 0.36375-0.39125 0.36375h-2.6925c-0.77125 0-1.4062-0.63-1.4062-1.3875v-11.865c0-0.75375 0.635-1.3862 1.4062-1.3862h7.1825c0.77375 0 1.3862 0.6325 1.3862 1.3862v5.2425c0 0.77375-0.6125 1.4062-1.3862 1.4062h-6.3038v4.8525m-5.83-4.7525h2.18c0.2025 0 0.3875 0.1625 0.3875 0.36875v1.2225c0 0.2025-0.18 0.36875-0.3875 0.36875h-2.18v2.7925h1.7312c0.1825 0 0.3675 0.16375 0.3675 0.36375v1.0238c0 0.18-0.185 0.36375-0.3675 0.36375h-2.7125c-0.755 0-1.3875-0.63-1.3875-1.3875v-3.1562h-1.775c-0.2025 0-0.36625-0.16625-0.36625-0.36875v-1.2225c0-0.20625 0.16375-0.36875 0.36625-0.36875h1.775v-1.6112h-1.775c-0.2025 0-0.36625-0.16125-0.36625-0.36375v-1.2488c0-0.2 0.16375-0.36375 0.36625-0.36375h6.3238c0.2025 0 0.3875 0.16375 0.3875 0.36375v1.2488c0 0.2025-0.185 0.36375-0.3875 0.36375h-2.18v1.6112m2.18-7.0538c0.2025 0 0.3875 0.16375 0.3875 0.36875v1.2425c0 0.18375-0.185 0.36375-0.3875 0.36375h-4.08l-0.285 0.49125c-0.16375 0.3075-0.225 0.34625-0.53 0.34625h-1.875c-0.24625 0-0.3075-0.0387-0.3075-0.14375 0-0.0388 0.0187-0.1 0.0825-0.2025l1.8562-3.365c0.14125-0.26375 0.205-0.32375 0.42875-0.32375h2.0362c0.205 0 0.28875 0.0412 0.28875 0.12125 0 0.0588-0.02 0.1225-0.0638 0.2025l-0.51 0.89875h2.9588z" fill="#f1471d"/>
<path d="m499.81 563.64c0 1.0012 0.0612 1.0812 1.2012 1.6312l2.165 0.98125 2.1588-0.98125c1.1625-0.56875 1.2062-0.63 1.2062-1.6312v-0.7125h-6.7312v0.7125m1.9388-8.0912c0-0.22375 0.16125-0.39 0.36625-0.39h2.0988c0.20625 0 0.36875 0.16625 0.36875 0.39v0.7325h5.875c0.9375 0 1.7112 0.77375 1.7112 1.7312v1.0425c0 0.205-0.16125 0.36375-0.36625 0.36375h-1.385c-0.205 0-0.36875-0.15875-0.36875-0.36375v-0.9175h-13.766v0.9175c0 0.205-0.16375 0.36375-0.36875 0.36375h-1.365c-0.205 0-0.39-0.15875-0.39-0.36375v-1.0425c0-0.9575 0.7975-1.7312 1.755-1.7312h5.835v-0.7325m-7.3662 7.3788c-0.22375 0-0.3875-0.16125-0.3875-0.36625v-1.3062c0-0.2025 0.16375-0.36375 0.3875-0.36375h2.8375v-1.2262c0-0.205 0.16125-0.36625 0.36625-0.36625h1.835c0.225 0 0.38875 0.16125 0.38875 0.36625v1.2262h6.7312v-1.2062c0-0.225 0.16125-0.38625 0.385-0.38625h1.8362c0.2025 0 0.36875 0.16125 0.36875 0.38625v1.2062h2.7325c0.205 0 0.36875 0.16125 0.36875 0.36375v1.3062c0 0.205-0.16375 0.36625-0.36875 0.36625h-2.7325v0.75625c0 1.6925-0.49125 2.28-2.6538 3.2625l-0.89625 0.4075 0.16375 0.0613c1.1012 0.4875 1.9575 0.6925 2.895 0.67375h2.8738c0.205 0 0.36875 0.18 0.36875 0.385v1.285c0 0.205-0.16375 0.36625-0.36875 0.36625h-2.8738c-1.4888-0.02-2.2425-0.20125-3.9575-0.98l-1.5062-0.67125-1.5112 0.67125c-1.7938 0.79875-2.365 0.9375-3.955 0.98h-2.8775c-0.20375 0-0.36375-0.16125-0.36375-0.36625v-1.285c0-0.205 0.16-0.385 0.36375-0.385h2.8775c0.91875 0 1.9562-0.245 2.8962-0.67375l0.16125-0.0613-0.89625-0.4075c-2.2025-1.0212-2.61-1.5312-2.6512-3.2625v-0.75625z" fill="#f1471d"/>
<path d="m488.63 559.21h2.06c0.17375 0 0.2425 0.0712 0.245 0.18125 0 0.0438-0.035 0.13125-0.1025 0.2675l-2.1 4.1162c-0.14375 0.28875-0.24875 0.35-0.67375 0.35h-2.08c-0.16375 0-0.24375-0.0612-0.24375-0.18625 0-0.0387 0-0.08 0.1-0.26375l2.1238-4.1212c0.12-0.26375 0.26375-0.34375 0.67125-0.34375m-7.7512 4.465c0.0825 0.14 0.1025 0.225 0.1025 0.26375 0 0.125-0.0813 0.18625-0.24375 0.18625h-2.0812c-0.42875 0-0.53125-0.0612-0.67375-0.35l-2.1238-4.1162c-0.0387-0.105-0.0775-0.205-0.0775-0.2675 0-0.12 0.0775-0.18125 0.24375-0.18125h2.0575c0.41125 0 0.53 0.0612 0.675 0.34375l2.1212 4.1212m-6.16 3.75c-0.225 0-0.38625-0.16375-0.38625-0.3875v-1.3238c0-0.205 0.16125-0.3875 0.38625-0.3875h7.2v-7.3225h-6.6488c-0.205 0-0.3675-0.18-0.3675-0.385v-1.265c0-0.205 0.1625-0.36625 0.3675-0.36625h16.134c0.205 0 0.36625 0.16125 0.36625 0.36625v1.265c0 0.205-0.16125 0.385-0.36625 0.385h-6.6288v7.3225h7.2588c0.22625 0 0.3875 0.1825 0.3875 0.3875v1.3238c0 0.22375-0.16125 0.3875-0.3875 0.3875h-7.2588v2.7738c0 0.205-0.1825 0.36625-0.38875 0.36625h-2.0988c-0.205 0-0.36875-0.16125-0.36875-0.36625v-2.7738z" fill="#f1471d"/>
<path d="m522.58 575.97c0-0.34625 0.26375-0.615 0.6125-0.615h2.4925c0.79125 0 1.4138 0.2175 1.81 0.615 0.3025 0.305 0.46125 0.68125 0.46125 1.1475v0.02c0 0.83-0.47375 1.2712-0.98875 1.54 0.81 0.27875 1.3762 0.7425 1.3762 1.6825v0.0187c0 1.2362-1.0175 1.9-2.5625 1.9h-2.5888c-0.34875 0-0.6125-0.26875-0.6125-0.6125v-5.6962m2.8562 2.3025c0.78125 0 1.3038-0.305 1.3038-0.9375v-0.02c0-0.54375-0.435-0.88125-1.2162-0.88125h-1.7475v1.8388h1.66m0.35625 2.9275c0.83 0 1.3338-0.33 1.3338-0.9475v-0.0225c0-0.58625-0.46375-0.93-1.4238-0.93h-1.9262v1.9h2.0162m3.5325 0.2875 2.5688-5.735c0.14125-0.3075 0.38625-0.495 0.735-0.495h0.0562c0.34875 0 0.58625 0.1875 0.7225 0.495l2.5712 5.735c0.0488 0.0875 0.0675 0.17875 0.0675 0.25375 0 0.33-0.24625 0.58375-0.57125 0.58375-0.2875 0-0.485-0.16875-0.5925-0.425l-0.56625-1.2938h-3.36l-0.58375 1.3325c-0.1 0.25-0.3075 0.38625-0.56375 0.38625-0.315 0-0.56375-0.24375-0.56375-0.56375 0-0.0863 0.0288-0.17625 0.08-0.27375m4.53-1.96-1.2162-2.7962-1.2212 2.7962h2.4375m3.5125-3.5962c0-0.34 0.26375-0.6125 0.6125-0.6125h0.1275c0.2975 0 0.46625 0.14625 0.6325 0.35375l3.4588 4.48v-4.2512c0-0.32875 0.26875-0.5925 0.59375-0.5925 0.33875 0 0.6025 0.26375 0.6025 0.5925v5.8112c0 0.33625-0.25375 0.6025-0.5925 0.6025h-0.0487c-0.28625 0-0.46375-0.14875-0.63-0.36625l-3.56-4.6038v4.3862c0 0.3275-0.26875 0.59375-0.5925 0.59375-0.34 0-0.60375-0.26625-0.60375-0.59375v-5.8m7.8125-0.02c0-0.33875 0.26625-0.6025 0.6125-0.6025 0.3375 0 0.60375 0.26375 0.60375 0.6025v2.9275l3.2838-3.3038c0.13625-0.15125 0.2825-0.22625 0.5025-0.22625 0.3375 0 0.56375 0.26375 0.56375 0.56125 0 0.1875-0.08 0.325-0.2175 0.45625l-2.155 2.075 2.3338 2.8962c0.0975 0.12875 0.16875 0.24625 0.16875 0.43375 0 0.34-0.26875 0.59375-0.615 0.59375-0.2375 0-0.38375-0.1175-0.51125-0.28625l-2.2288-2.8362-1.125 1.0862v1.4338c0 0.33625-0.26625 0.6025-0.60375 0.6025-0.34625 0-0.6125-0.26625-0.6125-0.6025z" fill="#f1471d"/>
<path d="m493.37 575.28h-1.0475c-0.09 0-0.16625 0.0738-0.16625 0.16375v4.7725c-0.54375-0.62-4.1625-4.7188-4.2525-4.8138-0.095-0.1025-0.2275-0.1225-0.31-0.1225h-1.04c-0.09 0-0.16375 0.0738-0.16375 0.16375v6.5912c0 0.0912 0.0738 0.16625 0.16375 0.16625h1.05c0.09 0 0.16375-0.075 0.16375-0.16625v-4.8088c0.395 0.44375 4.1962 4.75 4.2888 4.8512 0.0975 0.10375 0.23 0.12375 0.3125 0.12375h1.0012c0.09 0 0.16375-0.075 0.16375-0.16625v-6.5912c0-0.09-0.0737-0.16375-0.16375-0.16375m6.0525-0.095h-2.4125c-1.3088 0-2.3675 0.9425-2.3675 2.1038v2.9012c0 1.1612 1.0588 2.1012 2.3675 2.1012h2.4125c1.3062 0 2.3675-0.94 2.3675-2.1012v-1.8625h-3.6612v0.97625c0 0.0925 0.075 0.16875 0.165 0.16875h2.0075v1.3425c0 0.09-0.0788 0.16375-0.16875 0.16375h-3.835c-0.09 0-0.16375-0.0738-0.16375-0.16375v-4.1538c0-0.09 0.0738-0.1625 0.16375-0.1625h3.835c0.09 0 0.16375 0.0725 0.16375 0.1625v0.79375c0 0.095 0.0738 0.16875 0.16875 0.16875h1.1575c0.095 0 0.1675-0.0738 0.1675-0.16875v-0.16625c0-1.1612-1.0612-2.1038-2.3675-2.1038m19.978 0.095h-1.045c-0.0925 0-0.16625 0.0738-0.16625 0.16375v4.7725c-0.54625-0.62-4.16-4.7188-4.25-4.8138-0.1025-0.1025-0.23125-0.1225-0.315-0.1225h-1.035c-0.09 0-0.16875 0.0738-0.16875 0.16375v6.5912c0 0.0912 0.0788 0.16625 0.16875 0.16625h1.045c0.0925 0 0.16625-0.075 0.16625-0.16625v-4.8088c0.395 0.44375 4.1938 4.75 4.2862 4.8512 0.0987 0.10375 0.23 0.12375 0.315 0.12375h0.99875c0.095 0 0.16875-0.075 0.16875-0.16625v-6.5912c0-0.09-0.0738-0.16375-0.16875-0.16375m-10.942 0.18125c-0.0625-0.115-0.17-0.19375-0.2975-0.19375h-1.035c-0.13 0-0.235 0.0788-0.3 0.19375l-3.2525 6.4075c-0.1075 0.20625-0.0175 0.33 0.17625 0.33h1.0325c0.14625 0 0.205-0.0362 0.28125-0.18l2.58-5.1562 2.58 5.1562c0.0788 0.14375 0.1325 0.18 0.28125 0.18h1.0325c0.19125 0 0.28625-0.12375 0.17875-0.33l-3.2575-6.4075m-27.46 3.2438c0 0.0925-0.0738 0.16625-0.16625 0.16625h-3.5375v-2.3725h3.5375c0.0925 0 0.16625 0.0725 0.16625 0.1625v2.0438m-0.78875-3.425h-4.2612c-0.09 0-0.1625 0.0738-0.1625 0.16375v6.5912c0 0.0912 0.0725 0.16625 0.1625 0.16625h1.1825c0.09 0 0.16375-0.075 0.16375-0.16625v-1.9425h2.915c1.3088 0 2.3675-0.775 2.3675-1.9362v-0.77125c0-1.165-1.0588-2.105-2.3675-2.105m4.7138 0h-1.1688c-0.0888 0-0.16375 0.0738-0.16375 0.16375v6.5912c0 0.0912 0.075 0.16625 0.16375 0.16625h1.1688c0.09 0 0.16625-0.075 0.16625-0.16625v-6.5912c0-0.09-0.0763-0.16375-0.16625-0.16375z" fill="#f1471d"/>
<path d="m508.53 580.13h-1.78c-0.09 0-0.16375 0.0762-0.16375 0.16625v1.7375c0 0.0913 0.0737 0.16375 0.16375 0.16375h1.78c0.09 0 0.16375-0.0725 0.16375-0.16375v-1.7375c0-0.09-0.0737-0.16625-0.16375-0.16625z" fill="#206342"/>
</g>
</g>
</svg>
