<?xml version="1.0" encoding="UTF-8" standalone="no"?>
<svg
   xmlns:dc="http://purl.org/dc/elements/1.1/"
   xmlns:cc="http://creativecommons.org/ns#"
   xmlns:rdf="http://www.w3.org/1999/02/22-rdf-syntax-ns#"
   xmlns:svg="http://www.w3.org/2000/svg"
   xmlns="http://www.w3.org/2000/svg"
   xmlns:sodipodi="http://sodipodi.sourceforge.net/DTD/sodipodi-0.dtd"
   xmlns:inkscape="http://www.inkscape.org/namespaces/inkscape"
   class="icon"
   height="504.69211"
   viewBox="0 0 665.60004 1009.3842"
   version="1.1"
   id="svg6"
   sodipodi:docname="icon.svg"
   width="665.60004"
   inkscape:version="0.92.3 (2405546, 2018-03-11)">
  <metadata
     id="metadata12">
    <rdf:RDF>
      <cc:Work
         rdf:about="">
        <dc:format>image/svg+xml</dc:format>
        <dc:type
           rdf:resource="http://purl.org/dc/dcmitype/StillImage" />
        <dc:title></dc:title>
      </cc:Work>
    </rdf:RDF>
  </metadata>
  <defs
     id="defs10" />
  <sodipodi:namedview
     pagecolor="#ffffff"
     bordercolor="#666666"
     borderopacity="1"
     objecttolerance="10"
     gridtolerance="10"
     guidetolerance="10"
     inkscape:pageopacity="0"
     inkscape:pageshadow="2"
     inkscape:window-width="640"
     inkscape:window-height="480"
     id="namedview8"
     showgrid="false"
     fit-margin-top="0"
     fit-margin-left="0"
     fit-margin-right="0"
     fit-margin-bottom="0"
     inkscape:zoom="0.31355311"
     inkscape:cx="516.10002"
     inkscape:cy="249.52853"
     inkscape:window-x="0"
     inkscape:window-y="0"
     inkscape:window-maximized="0"
     inkscape:current-layer="svg6" />
  <path
     d="M 947.20003,584.28269 C 827.73333,436.37157 497.77781,396.54935 497.77781,396.54935 L 634.31114,316.90491 338.48892,157.61602 59.733355,311.21602 292.97781,442.06046 c 375.46662,-5.68889 489.24442,193.42223 489.24442,193.42223 91.0222,295.82222 -460.79998,318.57777 -460.79998,318.57777 -312.8888948,34.13334 -460.8,-238.93333 -460.8,-238.93333 H -332.79997 C -110.9333,1164.5493 708.26673,965.43824 708.26673,965.43824 1129.2444,840.28268 947.20003,584.28268 947.20003,584.28269 Z M 338.48892,385.17157 207.64447,322.5938 332.80003,242.94935 463.64447,311.21602 Z"
     id="path2"
     inkscape:connector-curvature="0"
     style="fill:#2d2f64" />
  <path
     d="M 355.55559,4.0160164 C 145.0667,-13.05065 -275.91108,15.393795 -327.11108,265.70491 c -39.82222,199.11111 267.377775,318.57778 489.24444,341.33333 -45.51111,28.44444 -91.022225,51.2 -136.533335,79.64445 96.711115,56.88888 193.422225,108.08888 290.133335,159.28888 l 267.37778,-153.6 -267.37778,-136.53333 c -45.51111,-11.37778 -96.71111,5.68889 -130.84444,5.68889 -147.911115,0 -358.4,-164.97778 -301.51111,-307.2 C -8.5333048,-52.872872 725.33333,-7.3617616 793.60003,299.83824 h 204.8 C 901.68893,66.593795 560.35559,15.393795 355.55559,4.0160164 Z M 327.11114,618.41602 463.64447,692.37157 327.11114,766.32713 196.2667,692.37157 Z"
     id="path4"
     inkscape:connector-curvature="0"
     style="fill:#59966e" />
</svg>
