<?xml version="1.0" encoding="UTF-8"?>
<!DOCTYPE svg  PUBLIC '-//W3C//DTD SVG 1.1//EN'  'http://www.w3.org/Graphics/SVG/1.1/DTD/svg11.dtd'>
<svg class="icon" height="512" version="1.1" viewBox="0 0 1024 1024" xmlns="http://www.w3.org/2000/svg">
<path d="m512 0.877c-282.53 0-511.56 229.03-511.56 511.56 0 282.53 229.03 511.56 511.56 511.56s511.56-229.03 511.56-511.56c0-282.53-229.03-511.56-511.56-511.56zm0 888.4c-208.1 0-376.8-168.71-376.8-376.8s168.71-376.84 376.8-376.84c170.35 0 314.17 113.13 360.8 268.28h-94.566c-42.97-104.87-145.9-178.79-266.23-178.79-158.91 0-287.75 128.84-287.75 287.75s128.84 287.75 287.75 287.75c148.43 0 270.51-112.36 286-256.66h-174.99l-111.01 111.01-142.1-142.1 142.1-142.1 113.82 113.82h261.59c0.694 9.245 1.389 18.453 1.389 27.843 0 208.1-168.71 376.84-376.8 376.84z" fill="#AD232B"/>
</svg>
