<?xml version="1.0" encoding="UTF-8"?>
<!DOCTYPE svg  PUBLIC '-//W3C//DTD SVG 1.1//EN'  'http://www.w3.org/Graphics/SVG/1.1/DTD/svg11.dtd'>
<svg width="300" height="112" version="1.1" viewBox="0 0 698 260" xmlns="http://www.w3.org/2000/svg">
<g fill="#fff">
<path d="m509.49 95.14c1.5 0.5 2.56 1.7 3.61 2.82 14.82 15.6 29.74 31.09 44.53 46.71 0.03-15.63-0.04-31.26 0.03-46.89 4.01-0.01 8.01 0.06 12.02-0.07 0.38 1.41 0.54 2.85 0.5 4.31-0.08 23.77 0.03 47.54-0.05 71.31-0.3 0.14-0.89 0.41-1.18 0.55-15.93-16.2-31.35-32.91-47.25-49.13-0.15 15.58 0.18 31.18-0.16 46.77-4.04-0.18-8.08-0.09-12.11-0.07 0.01-25.44-0.1-50.88 0.06-76.31z"/>
<path d="m191.9 97.05c9.33-3.4 19.37-0.96 28.46 1.97 0.11 5.79 0.05 11.57 0.05 17.36-5.58-3.4-11.62-6.8-18.31-6.99-3.38-0.22-7.53 1.85-7.59 5.64-0.23 2.77 1.98 4.89 4.08 6.31 8.1 5.07 17.52 8.64 23.75 16.2 7.58 10.38 3.56 26.97-7.9 32.81-10.57 5.61-23.16 3.32-34.06-0.07-0.63-6.52-1.04-13.05-1.3-19.59 6.31 3.94 13.3 7.62 20.94 7.49 3.25-0.22 7.08-1.21 8.68-4.36 1.67-2.83 0.4-6.57-2.09-8.47-7.14-5.71-16.38-8.49-22.66-15.31-4.07-4.25-6.13-10.28-5.56-16.13 0.42-7.75 6.26-14.48 13.51-16.86z"/>
<path d="m457.51 103.63c1.47-2.91 2.51-6.05 4.48-8.68 11.85 25.38 23.27 50.96 34.88 76.46-4.43 0.03-8.87-0.04-13.3 0.07-2.08-4.33-4-8.73-5.91-13.13-11.08-0.06-22.16-0.02-33.24-0.02-1.96 4.39-3.88 8.8-6.01 13.12-4.31-0.06-8.61-0.02-12.91-0.04 10.78-22.53 21.3-45.2 32.01-67.78m2.97 18.45c-3.78 8.51-7.37 17.11-11.29 25.55 7.93 0.36 15.89 0.08 23.83 0.13-3.81-9-7.77-17.94-11.57-26.95-0.24 0.32-0.73 0.95-0.97 1.27z"/>
<path d="m38.74 97.79c6.89-0.04 13.77 0.07 20.65-0.06 5.37 7.68 10.22 15.7 15.52 23.43 5.54-7.85 11.13-15.68 16.86-23.39 6.06 0.06 12.12-0.03 18.18 0.05-9.18 12.88-19.07 25.29-28.02 38.3-0.16 11.75-0.04 23.52-0.05 35.28-5.75 0.04-11.5 0.02-17.25 0.01-0.09-11.67 0.19-23.37-0.13-35.03-8.42-12.96-17.37-25.59-25.76-38.59z"/>
<path d="m117.49 171.43c0.04-24.55-0.05-49.11 0.05-73.66 14.93 0.04 29.86 0.01 44.79 0.02 0.04 5.01-0.05 10.03 0.07 15.04-9.33 0.37-18.72-0.33-28.07 0.32 0.02 4.42-0.01 8.84 0.04 13.25 8-0.03 16.01-0.1 24.01 0.05-0.1 4.97-0.03 9.95-0.04 14.94-8.01-0.01-16.01 0-24.01-0.02 0.03 4.84 0.01 9.69 0.01 14.53 9.44 0.01 18.88-0.08 28.32 0.03 0.02 5.17 0.06 10.34-0.02 15.52-15.05-0.05-30.1-0.03-45.15-0.02z"/>
<path d="m369.53 97.78c9.31 0.21 18.65-0.47 27.92 0.52 6 0.7 12.53 3.09 15.67 8.62 3.35 6.11 3.4 14.5-1.21 20-2.01 2.49-4.99 3.82-7.78 5.23 5.36 1.47 10.13 5.36 11.85 10.75 2.03 6.63 1.47 14.49-2.81 20.14-4.76 6.08-12.87 7.8-20.17 8.27-7.84 0.22-15.67 0.06-23.5 0.12 0.06-24.55-0.02-49.1 0.03-73.65m12.24 9.85c0.04 6.92 0.02 13.85 0.02 20.78 5.48-0.15 11.54 0.84 16.46-2.19 5.85-3.28 6.54-13.5 0.35-16.77-5.19-2.61-11.23-1.66-16.83-1.82m0.01 30.61c0.03 7.64 0.01 15.29 0.02 22.93 5.59-0.2 11.57 0.82 16.83-1.59 7.02-3.21 7.96-14.41 1.77-18.86-5.45-3.77-12.43-2.14-18.62-2.48z"/>
<path d="m593.35 171.44c0.03-24.56-0.18-49.13 0.1-73.69 4.12 0.06 8.24 0.04 12.36 0.02 0.17 11 0 22 0.06 33 10.37-11 20.71-22.02 31.13-32.97 4.89-0.03 9.79-0.01 14.69-0.02-11 11.86-22.15 23.59-33.24 35.38 12.28 12.7 24.42 25.54 36.72 38.21-5.47 0.11-10.93 0.01-16.4 0.08-10.93-11.51-21.9-22.98-32.88-34.43-0.06 11.46 0.02 22.92-0.03 34.39-4.17 0.03-8.34-0.01-12.51 0.03z"/>
</g>
<path d="m372.21 20.19c3.58-4.7 6.87-9.64 10.71-14.15-37.48 66.24-74.69 132.65-112.09 198.94-9.32 16.72-18.87 33.32-28.09 50.09-0.81-0.43-1.54-0.97-2.18-1.62-13.16-13.41-26.39-26.74-39.57-40.13 9.36-0.1 18.71-0.01 28.07-0.05 47.72-64.35 95.44-128.71 143.15-193.08z" fill="#c4261b"/>
<g fill="#005192">
<path d="m2.32 60.87c111.85-0.16 223.69 0.01 335.54-0.08-37.2 49.13-74.14 98.46-111.51 147.46-74.65-0.06-149.3-0.04-223.95 0.03-0.17-49.14-0.01-98.27-0.08-147.41m189.58 36.18c-7.25 2.38-13.09 9.11-13.51 16.86-0.57 5.85 1.49 11.88 5.56 16.13 6.28 6.82 15.52 9.6 22.66 15.31 2.49 1.9 3.76 5.64 2.09 8.47-1.6 3.15-5.43 4.14-8.68 4.36-7.64 0.13-14.63-3.55-20.94-7.49 0.26 6.54 0.67 13.07 1.3 19.59 10.9 3.39 23.49 5.68 34.06 0.07 11.46-5.84 15.48-22.43 7.9-32.81-6.23-7.56-15.65-11.13-23.75-16.2-2.1-1.42-4.31-3.54-4.08-6.31 0.06-3.79 4.21-5.86 7.59-5.64 6.69 0.19 12.73 3.59 18.31 6.99 0-5.79 0.06-11.57-0.05-17.36-9.09-2.93-19.13-5.37-28.46-1.97m-153.16 0.74c8.39 13 17.34 25.63 25.76 38.59 0.32 11.66 0.04 23.36 0.13 35.03 5.75 0.01 11.5 0.03 17.25-0.01 0.01-11.76-0.11-23.53 0.05-35.28 8.95-13.01 18.84-25.42 28.02-38.3-6.06-0.08-12.12 0.01-18.18-0.05-5.73 7.71-11.32 15.54-16.86 23.39-5.3-7.73-10.15-15.75-15.52-23.43-6.88 0.13-13.76 0.02-20.65 0.06m78.75 73.64c15.05-0.01 30.1-0.03 45.15 0.02 0.08-5.18 0.04-10.35 0.02-15.52-9.44-0.11-18.88-0.02-28.32-0.03 0-4.84 0.02-9.69-0.01-14.53 8 0.02 16 0.01 24.01 0.02 0.01-4.99-0.06-9.97 0.04-14.94-8-0.15-16.01-0.08-24.01-0.05-0.05-4.41-0.02-8.83-0.04-13.25 9.35-0.65 18.74 0.05 28.07-0.32-0.12-5.01-0.03-10.03-0.07-15.04-14.93-0.01-29.86 0.02-44.79-0.02-0.1 24.55-0.01 49.11-0.05 73.66z"/>
<path d="m331.76 103.67c8.07-14.25 15.6-28.82 23.91-42.91 112.94 0.07 225.89 0.12 338.83-0.03 0.36 49.17 0.1 98.36 0.13 147.54-140.16-0.09-280.31-0.02-420.47-0.03 19.07-34.93 38.44-69.69 57.6-104.57m177.73-8.53c-0.16 25.43-0.05 50.87-0.06 76.31 4.03-0.02 8.07-0.11 12.11 0.07 0.34-15.59 0.01-31.19 0.16-46.77 15.9 16.22 31.32 32.93 47.25 49.13 0.29-0.14 0.88-0.41 1.18-0.55 0.08-23.77-0.03-47.54 0.05-71.31 0.04-1.46-0.12-2.9-0.5-4.31-4.01 0.13-8.01 0.06-12.02 0.07-0.07 15.63 0 31.26-0.03 46.89-14.79-15.62-29.71-31.11-44.53-46.71-1.05-1.12-2.11-2.32-3.61-2.82m-51.98 8.49c-10.71 22.58-21.23 45.25-32.01 67.78 4.3 0.02 8.6-0.02 12.91 0.04 2.13-4.32 4.05-8.73 6.01-13.12 11.08 0 22.16-0.04 33.24 0.02 1.91 4.4 3.83 8.8 5.91 13.13 4.43-0.11 8.87-0.04 13.3-0.07-11.61-25.5-23.03-51.08-34.88-76.46-1.97 2.63-3.01 5.77-4.48 8.68m-87.98-5.85c-0.05 24.55 0.03 49.1-0.03 73.65 7.83-0.06 15.66 0.1 23.5-0.12 7.3-0.47 15.41-2.19 20.17-8.27 4.28-5.65 4.84-13.51 2.81-20.14-1.72-5.39-6.49-9.28-11.85-10.75 2.79-1.41 5.77-2.74 7.78-5.23 4.61-5.5 4.56-13.89 1.21-20-3.14-5.53-9.67-7.92-15.67-8.62-9.27-0.99-18.61-0.31-27.92-0.52m223.82 73.66c4.17-0.04 8.34 0 12.51-0.03 0.05-11.47-0.03-22.93 0.03-34.39 10.98 11.45 21.95 22.92 32.88 34.43 5.47-0.07 10.93 0.03 16.4-0.08-12.3-12.67-24.44-25.51-36.72-38.21 11.09-11.79 22.24-23.52 33.24-35.38-4.9 0.01-9.8-0.01-14.69 0.02-10.42 10.95-20.76 21.97-31.13 32.97-0.06-11 0.11-22-0.06-33-4.12 0.02-8.24 0.04-12.36-0.02-0.28 24.56-0.07 49.13-0.1 73.69z"/>
<path d="m381.77 107.63c5.6 0.16 11.64-0.79 16.83 1.82 6.19 3.27 5.5 13.49-0.35 16.77-4.92 3.03-10.98 2.04-16.46 2.19 0-6.93 0.02-13.86-0.02-20.78z"/>
<path d="m460.48 122.08c0.24-0.32 0.73-0.95 0.97-1.27 3.8 9.01 7.76 17.95 11.57 26.95-7.94-0.05-15.9 0.23-23.83-0.13 3.92-8.44 7.51-17.04 11.29-25.55z"/>
<path d="m381.78 138.24c6.19 0.34 13.17-1.29 18.62 2.48 6.19 4.45 5.25 15.65-1.77 18.86-5.26 2.41-11.24 1.39-16.83 1.59-0.01-7.64 0.01-15.29-0.02-22.93z"/>
</g>
</svg>
