<svg xmlns="http://www.w3.org/2000/svg" width="2280" height="340" viewBox="0 0 175.748 26.142" fill-rule="evenodd"><path d="M-8.504-83.307h192.756V109.45H-8.504z" fill="#fff"/><path d="M0 0h175.748v26.142H0z" fill="#233d7e"/><path d="M50.04 14.064l-.432 2.156c0 .346-.345.432-.776.604-.604.174-1.726.518-3.106.518-3.365 0-6.298-1.725-6.298-6.298 0-2.674 2.07-6.125 6.47-6.125 1.553 0 2.243.26 3.02.604.518.086.7.345.7.604V8.37h-.432c-.086-1.38-.862-2.848-3.45-2.848-3.02 0-4.487 2.33-4.487 5.35 0 3.45 1.467 5.867 4.746 5.867 2.157 0 3.192-1.295 3.7-2.674h.345zm7.42-3.71c.518-1.208-.432-1.38-1.208-1.38v-.43h3.278v.43c-.776 0-1.122.863-1.38 1.553l-4.314 9.75c-.26.69-.518 1.12-1.12 1.12h-1.208c-.172 0-.172-.172-.172-.344v-.26c0-.172 0-.258.172-.344l.95-.346c.604-.26 1.122-.69 1.38-1.21l.776-1.896-2.674-6.645c-.432-1.035-.604-1.38-1.38-1.38v-.43h4.228v.43c-.863 0-1.726-.086-1.294 1.036l1.984 5.09zm4.487 2.588c0-.862.086-1.81.345-2.5.172-.604.95-1.294 1.812-1.294 1.208 0 2.416.95 2.416 3.365 0 3.106-1.467 4.228-2.76 4.228-.604 0-1.208-.086-1.466-.432s-.345-1.12-.345-1.64V12.94zm-1.38 4.143c.95-.26 1.898.258 3.28.258 2.243 0 4.228-2.156 4.228-4.83 0-3.106-1.467-4.14-3.365-4.14-1.035 0-2.07.518-2.76 1.38V4.487c-.7.26-1.726.518-2.675.518v.432h.604c.518 0 .7.345.7.776zm10.87-5.35c0-2.07.863-2.76 1.726-2.76.776 0 1.38.776 1.38 1.812 0 .777-.346.95-.604.95zm5.004.7v-.518c0-2.07-1.035-3.537-3.106-3.537-3.02 0-4.142 2.33-4.142 4.4 0 1.467.7 2.848 1.294 3.365 1.38 1.38 2.416 1.207 3.192 1.207h.604l2.157-1.293-.345-.69c-.345.26-.95.777-1.984.777-2.33 0-2.675-2.676-2.675-3.7zm4.487-2.502c-.604.26-.776 1.122-.776 2.416v2.675c0 .518 0 .775.086 1.207.086.346.7.346 1.553.432v.432H77.48v-.432c1.294-.172 1.294-.172 1.294-1.64V10.18c0-.776-.518-.7-1.294-.7v-.43c.862 0 1.898-.26 2.674-.7v1.553C80.843 9.146 83 8.628 83 8.628c.518-.086.863-.173 1.122 0 .086 0 .26.172.172.7l-.086 1.035c0 .086-.086.086-.173.086l-.604.086c-.086 0-.172-.086-.172-.173l-.345-.604c-.086-.172-.26-.26-.43-.345-.001.001-.606.001-1.554.52zm35.633 0c-.605.26-.777 1.122-.777 2.416v2.675c0 .518 0 .775.086 1.207.086.346.604.346 1.553.432v.432h-4.4v-.432c1.38-.172 1.295-.172 1.295-1.64V10.18c0-.776-.432-.7-1.207-.7v-.43c.86 0 1.896-.26 2.674-.7v1.553c.69-.776 2.848-1.294 2.848-1.294.518-.086.86-.173 1.12 0 .086 0 .26.172.172.7l-.086 1.035c0 .086-.086.086-.258.086l-.518.086a.185.185 0 0 1-.174-.173l-.346-.604c-.086-.172-.258-.26-.43-.345 0 .001-.605.001-1.553.52zM91.627 7.68c-.086-1.208-.69-2.157-1.984-2.157-.95 0-1.812.518-1.812 1.726s1.122 1.984 2.76 3.28c1.727 1.294 2.244 2.157 2.244 3.624 0 2.07-1.984 3.19-3.883 3.19-1.036 0-1.9-.258-2.76-.604-.087 0-.087-.086-.087-.172v-2.502h.346c.172 1.896 1.38 2.674 2.588 2.674a2.136 2.136 0 0 0 2.156-2.156c0-1.123-.604-2.07-3.02-3.797-.863-.604-1.984-1.208-1.984-3.106 0-1.553 1.64-2.76 3.537-2.76.69 0 1.555.086 2.244.345.086 0 .086.086.086.173V7.68zm6.644 9.06c-1.727 0-2.676-1.725-2.676-3.883 0-2.674 1.12-3.882 2.502-3.882 1.898 0 2.676 1.984 2.676 3.882 0 2.676-1.123 3.883-2.502 3.883zm-.26.603c2.588 0 4.314-2.07 4.314-4.572 0-2.934-1.984-4.4-3.97-4.4-2.676 0-4.314 2.157-4.314 4.486 0 2.934 1.898 4.486 3.97 4.486zm11.648 0a3.219 3.219 0 0 1-.346-1.381l-1.38.95c-.69.346-1.035.432-1.553.432-1.812 0-2.33-1.467-2.33-3.365V10.18c0-.776-.518-.7-1.293-.7v-.43c.86 0 1.984-.26 2.76-.7v5.435c0 1.295.174 2.502 1.64 2.502s2.156-.863 2.156-3.365v-2.76c0-.776-.518-.7-1.295-.7v-.43c.95 0 1.984-.26 2.762-.7v6.556c0 .863.086 1.555 1.12 1.123l.086.518zm17.686-1.12l-2.156 1.12c-.432 0-2.244.174-3.537-1.38-.518-.604-1.12-1.896-1.12-3.19 0-2.675 1.984-4.4 4.4-4.4.604 0 1.38.086 1.982.43l.518 1.122c.088.086.088.172 0 .172l-.518.345c-.086.086-.172.086-.258.086l-.863-1.036c-.172-.26-.604-.518-1.207-.518-1.035 0-2.416.776-2.416 3.278 0 1.813.775 4.055 3.105 4.055.863 0 1.38-.346 1.812-.604zm2.416-4.4c0-2.157 1.035-2.848 2.156-2.848.863 0 1.727.7 1.727 1.812 0 .777-.518 1.036-.863 1.036zm5.263.604v-.518c0-2.157-1.21-3.537-3.02-3.537-2.762 0-3.71 2.416-3.71 4.4 0 1.295.605 2.674 1.035 3.28 1.295 1.467 2.676 1.293 3.107 1.293h.432l2.156-1.12-.26-.518c-.432.258-.95.604-1.81.604-2.33 0-3.193-1.984-3.193-3.882zM69.022 20.45v-1.21h7.85v1.21z" fill="#fff"/><path d="M137.7 9.06h.26l.344.7h.26l-.346-.7c.174 0 .346-.086.346-.345s-.172-.432-.518-.432h-.604V9.75h.258zm0-.604h.26c.258 0 .344.086.344.26s-.086.173-.344.173h-.26zm.26 1.726a1.18 1.18 0 0 0 1.207-1.208 1.18 1.18 0 1 0-2.416 0c0 .7.517 1.208 1.21 1.208zm0-.173c-.604 0-1.035-.432-1.035-1.036a1.05 1.05 0 0 1 1.035-1.035c.518 0 .95.518.95 1.035 0 .605-.432 1.036-.95 1.036z" fill="#dbdcdd"/></svg>