<?xml version="1.0" encoding="UTF-8"?>
<svg version="1.1" viewBox="0 0 128.45 192.55" xmlns="http://www.w3.org/2000/svg" xmlns:cc="http://creativecommons.org/ns#" xmlns:dc="http://purl.org/dc/elements/1.1/" xmlns:rdf="http://www.w3.org/1999/02/22-rdf-syntax-ns#">
<metadata>
<rdf:RDF>
<cc:Work rdf:about="">
<dc:format>image/svg+xml</dc:format>
<dc:type rdf:resource="http://purl.org/dc/dcmitype/StillImage"/>
<dc:title/>
</cc:Work>
</rdf:RDF>
</metadata>
<path d="m69.695 155.82v-5.4509c24.826-2.1422 44.825-18.73 52.168-41.076-3.8589 2.2963-8.29 4.4458-13.44 6.2065-5.8324 10.183-15.23 18.238-26.638 22.405 4.1157-7.3216 7.3436-15.546 9.4418-24.452 13.147-2.9785 24.305-7.8645 32.25-13.037 0.74096-3.6315 0.93904-8.7449 0.93904-10.454 0-1.7094-0.19808-6.8374-0.93904-10.469-7.9452-5.1941-19.126-10.043-32.265-13.022-2.0982-8.9209-5.3335-17.167-9.4271-24.437 11.423 4.167 20.806 12.193 26.638 22.383 5.1501 1.768 9.5812 3.9102 13.44 6.2138-7.3436-22.361-27.342-38.934-52.168-41.083v-5.3848c20.762-0.97573 40.379-7.2996 49.05-15.905l-5.5829-7.6077c-9.882 7.5784-25.545 12.736-43.468 13.616v-14.269h-10.924v14.269c-17.937-0.88036-33.6-6.0378-43.482-13.616l-5.5976 7.6077c8.6715 8.6055 28.311 14.937 49.08 15.905v5.3848c-24.841 2.1495-44.854 18.722-52.183 41.083 3.8442-2.3036 8.2753-4.4458 13.425-6.2138 5.847-10.19 15.245-18.216 26.653-22.383-4.0937 7.2849-7.329 15.538-9.4271 24.437-13.125 2.9932-24.268 7.8278-32.243 13.022-0.71162 3.6315-0.93171 8.7595-0.93171 10.469 0 1.7094 0.22009 6.8228 0.93171 10.454 7.9746 5.1721 19.118 10.043 32.228 13.022 2.0982 8.9209 5.3261 17.145 9.4418 24.467-11.393-4.1817-20.806-12.222-26.653-22.405-5.1501-1.7607-9.5812-3.9102-13.425-6.2065 7.329 22.346 27.342 38.934 52.183 41.076v5.4509c-26.858 1.7974-49.447 16.404-58.771 35.926h12.068c9.3464-14.43 26.939-24.349 46.703-25.926v26.726h10.924v-26.726c19.735 1.5773 37.356 11.496 46.688 25.926h12.068c-9.3098-19.522-31.898-34.128-58.756-35.926zm44.385-71.698c0.19074 1.7827 0.30078 4.211 0.30078 5.8397 0 1.6287-0.11004 4.057-0.30078 5.825-5.9424 3.1473-13.066 5.7663-21.04 7.6738 0.5649-4.4164 0.89503-8.9063 0.89503-13.506 0-4.6072-0.33013-9.0823-0.89503-13.469 7.9746 1.8854 15.098 4.4971 21.04 7.6371zm-69.636 5.8324c0-5.2895 0.44018-10.44 1.2472-15.399 5.8764-0.85101 12.105-1.3279 18.553-1.3279 6.4413 0 12.64 0.47686 18.502 1.3059 0.82166 4.9813 1.2472 10.131 1.2472 15.421 0 5.2821-0.4255 10.432-1.2472 15.421-5.8617 0.84368-12.061 1.3132-18.502 1.3132-6.4486 0-12.677-0.46952-18.553-1.3132-0.80699-4.9887-1.2472-10.139-1.2472-15.421zm15.274-50.804c1.4966-0.13939 2.9932-0.22009 4.5118-0.22009 1.5113 0 3.0079 0.0807 4.4898 0.22009 5.1574 7.329 9.2364 15.92 11.87 25.406-5.2381-0.71895-10.704-1.1298-16.345-1.1298-5.6636 0-11.114 0.41084-16.36 1.1298 2.6117-9.4858 6.6834-18.062 11.833-25.406zm-45.28 56.636c-0.20542-1.768-0.31546-4.1964-0.31546-5.825 0-1.6286 0.11004-4.057 0.31546-5.8397 5.891-3.1399 13.015-5.7517 20.974-7.6298-0.56489 4.3798-0.89503 8.8696-0.89503 13.462 0 4.5998 0.33013 9.0897 0.89503 13.477-7.9599-1.8781-15.083-4.4972-20.974-7.6444zm33.461 19.588c5.2308 0.71162 10.704 1.1224 16.345 1.1224 5.6269 0 11.078-0.41083 16.323-1.1224-2.6264 9.4565-6.7127 18.062-11.848 25.406-1.4819 0.11005-2.9785 0.20542-4.4898 0.20542-1.5039 0-3.0152-0.0954-4.4825-0.20542-5.1648-7.3436-9.2364-15.949-11.848-25.406" fill="#ed1b2e"/>
</svg>
