<?xml version="1.0" encoding="UTF-8"?>
<svg version="1.1" viewBox="0 0 1063 192.55" xmlns="http://www.w3.org/2000/svg" xmlns:cc="http://creativecommons.org/ns#" xmlns:dc="http://purl.org/dc/elements/1.1/" xmlns:rdf="http://www.w3.org/1999/02/22-rdf-syntax-ns#">
<metadata>
<rdf:RDF>
<cc:Work rdf:about="">
<dc:format>image/svg+xml</dc:format>
<dc:type rdf:resource="http://purl.org/dc/dcmitype/StillImage"/>
<dc:title/>
</cc:Work>
</rdf:RDF>
</metadata>
<g transform="translate(-.58801 -223.71)">
<g transform="translate(35.433 -35.36)" fill="#ed1b2e">
<path d="m34.85 414.9v-5.4509c24.826-2.1422 44.825-18.73 52.168-41.076-3.8589 2.2963-8.29 4.4458-13.44 6.2065-5.8324 10.183-15.23 18.238-26.638 22.405 4.1157-7.3216 7.3436-15.546 9.4418-24.452 13.147-2.9785 24.305-7.8645 32.25-13.037 0.74096-3.6315 0.93904-8.7449 0.93904-10.454 0-1.7094-0.19808-6.8374-0.93904-10.469-7.9452-5.1941-19.126-10.043-32.265-13.022-2.0982-8.9209-5.3335-17.167-9.4271-24.437 11.423 4.167 20.806 12.193 26.638 22.383 5.1501 1.768 9.5812 3.9102 13.44 6.2138-7.3436-22.361-27.342-38.934-52.168-41.083v-5.3848c20.762-0.97573 40.379-7.2996 49.05-15.905l-5.5829-7.6077c-9.882 7.5784-25.545 12.736-43.468 13.616v-14.269h-10.924v14.269c-17.937-0.88036-33.6-6.0378-43.482-13.616l-5.5976 7.6077c8.6715 8.6055 28.311 14.937 49.08 15.905v5.3848c-24.841 2.1495-44.854 18.722-52.183 41.083 3.8442-2.3036 8.2753-4.4458 13.425-6.2138 5.847-10.19 15.245-18.216 26.653-22.383-4.0937 7.2849-7.329 15.538-9.4271 24.437-13.125 2.9932-24.268 7.8278-32.243 13.022-0.71162 3.6315-0.93171 8.7595-0.93171 10.469 0 1.7094 0.22009 6.8228 0.93171 10.454 7.9746 5.1721 19.118 10.043 32.228 13.022 2.0982 8.9209 5.3261 17.145 9.4418 24.467-11.393-4.1817-20.806-12.222-26.653-22.405-5.1501-1.7607-9.5812-3.9102-13.425-6.2065 7.329 22.346 27.342 38.934 52.183 41.076v5.4509c-26.858 1.7974-49.447 16.404-58.771 35.926h12.068c9.3464-14.43 26.939-24.349 46.703-25.926v26.726h10.924v-26.726c19.735 1.5773 37.356 11.496 46.688 25.926h12.068c-9.3098-19.522-31.898-34.128-58.756-35.926zm44.385-71.698c0.19074 1.7827 0.30079 4.211 0.30079 5.8397 0 1.6287-0.11004 4.057-0.30079 5.825-5.9424 3.1473-13.066 5.7663-21.04 7.6738 0.5649-4.4164 0.89503-8.9063 0.89503-13.506 0-4.6072-0.33013-9.0823-0.89503-13.469 7.9746 1.8854 15.098 4.4971 21.04 7.6371zm-69.636 5.8324c0-5.2895 0.44018-10.44 1.2472-15.399 5.8764-0.85101 12.105-1.3279 18.553-1.3279 6.4413 0 12.64 0.47686 18.502 1.3059 0.82166 4.9813 1.2472 10.131 1.2472 15.421 0 5.2821-0.4255 10.432-1.2472 15.421-5.8617 0.84368-12.061 1.3132-18.502 1.3132-6.4486 0-12.677-0.46952-18.553-1.3132-0.80699-4.9887-1.2472-10.139-1.2472-15.421zm15.274-50.804c1.4966-0.13939 2.9932-0.22009 4.5118-0.22009 1.5113 0 3.0079 0.0807 4.4898 0.22009 5.1574 7.329 9.2364 15.92 11.87 25.406-5.2381-0.71895-10.704-1.1298-16.345-1.1298-5.6636 0-11.114 0.41084-16.36 1.1298 2.6117-9.4858 6.6834-18.062 11.833-25.406zm-45.28 56.636c-0.20542-1.768-0.31546-4.1964-0.31546-5.825 0-1.6286 0.11004-4.057 0.31546-5.8397 5.891-3.1399 13.015-5.7517 20.974-7.6298-0.56489 4.3798-0.89503 8.8696-0.89503 13.462 0 4.5998 0.33013 9.0897 0.89503 13.477-7.9599-1.8781-15.083-4.4972-20.974-7.6444zm33.461 19.588c5.2308 0.71162 10.704 1.1224 16.345 1.1224 5.6269 0 11.078-0.41083 16.323-1.1224-2.6264 9.4565-6.7127 18.062-11.848 25.406-1.4819 0.11005-2.9785 0.20542-4.4898 0.20542-1.5039 0-3.0152-0.0954-4.4825-0.20542-5.1648-7.3436-9.2364-15.949-11.848-25.406"/>
<path d="m961.97 309.2h62.256v-8.5101h-62.256z"/>
<path d="m1028.1 330.9h-69.255v8.5468h43.944v46.776c0 3.0886-2.4943 5.5976-5.5829 5.5976v0.0294h-20.461l-3.4334 8.2093h28.494c7.1236 0 12.897-5.7737 12.897-12.89v-47.723h13.396v-8.5468"/>
<path d="m941.71 328.15s-13.191 21.371-30.482 37.826h12.831c3.5581-3.3894 7.0282-7.2776 10.102-11.034l-0.19075 6.0084v39.117h10.843v-59.593c4.7172-7.1089 7.505-12.325 7.505-12.325h-10.608"/>
<path d="m916.42 329.69h12.23c13.998-15.868 23.88-33.571 23.88-33.571h-10.843s-10.814 17.666-25.266 33.571"/>
<path d="m598.8 368.08h11.613c7.1309 0 12.912-5.7663 12.912-12.905v-35.596h-42.712v-10.682h48.038v-8.2166h-48.038v-6.4192h-11.936v6.4192h-47.847v8.2166h47.847v10.682h-42.932v48.5h24.745c-9.772 11.885-24.114 23.535-35.368 31.979h14.797c10.388-7.2483 24.114-19.074 33.908-31.979h4.8493v33.476h11.936v-33.476h4.9006c9.772 12.905 23.483 24.731 33.886 31.979h14.797c-11.283-8.4441-25.596-20.094-35.398-31.979zm12.596-40.284v11.254h-30.783v-11.254zm-73.737 0h31.018v11.254h-31.018zm31.018 0zm-31.018 32.089v-12.626h31.018v12.626h-31.018zm42.954-12.626h30.783v6.9842c0 3.0739-2.4943 5.5903-5.5829 5.5903 0 0.022-0.0147 0.0367-0.0147 0.0367-1.6213 0.0147-12.56 0.0147-25.185 0.0147v-12.626"/>
<path d="m732.29 391.85v-22.757h13.601c7.1382 0 12.912-5.7883 12.912-12.912v-30.468h-26.513v-19.5h30.137v-8.2093h-107.38v8.2093h30.115v19.5h-26.528v43.38h26.528v22.757h-33.556v8.2093h110.38l3.8736-8.2093zm-61.757-30.988v-26.939h26.565v-27.709h23.278v27.709h26.506v21.327c0 3.0886-2.487 5.5976-5.5609 5.5976 0 0-0.0147 0.0147-0.0294 0.0147h-20.916v30.988h-23.278v-30.988h-26.565"/>
<path d="m368.68 389.73h-75.799v-38.068h62.967v-10.337h-62.967v-32.969h72.079v-10.344h-87.067v102.06h85.967l4.8199-10.256v-0.0807"/>
<path d="m476.22 400.06h15.003l-48.038-102.01h-18.722l-48.06 102.01h15.017l14.298-30.402h56.189zm-65.616-40.753 23.219-49.285 23.212 49.285h-46.431"/>
<path d="m235.56 346.15c10.528-4.5852 17.732-13.726 17.761-24.29h0.0514c-0.0147-0.0147-0.0514-0.0147-0.066-0.0147-0.0147-13.139-12.684-23.755-28.59-23.755h-65.22v101.98h62.036c4.3504 0 9.4418-0.52088 14.973-1.8488 16-3.8442 21.077-17.416 20.916-26.521-0.31546-20.417-21.481-25.472-21.862-25.552zm-11.019 42.969c-2.377 0.4842-5.1721 0.62359-11.775 0.62359h-38.281v-81.301h47.238c9.882 0 16.595 6.9034 16.609 15.45l0.0293 7e-3 -0.0293 0.0293c0 8.4808-5.6563 17.38-20.351 17.857h-36.263v10.337s30.732-0.0293 36.263-0.0293c5.5389 0 11.841 1.5113 14.504 2.9785 5.8324 3.0739 9.207 8.6348 9.207 15.274 0 7.8938-5.2821 16.756-17.152 18.774"/>
<path d="m807.69 308.12c2.7291-3.6095 4.1597-3.6682 5.1868-3.6682 1.0418 0 2.487 0.0587 5.2014 3.6682 0 0 4.7099 6.2432 8.5101 11.239h12.831l-13.176-17.431c-4.035-5.2968-8.1506-7.6518-13.367-7.6518-5.2161 0-9.3464 2.355-13.352 7.6518l-13.176 17.431h12.831l8.5101-11.239"/>
<path d="m800 357.1h-8.9209c0.91704 9.6105 2.5384 18.766 4.6365 28.135h8.5688c-1.4746-6.4926-3.8736-20.82-4.2844-28.135"/>
<path d="m830.07 385.24c2.0835-9.3684 3.6902-18.524 4.6219-28.135h-8.9283c-0.42551 7.3143-2.8025 21.642-4.2844 28.135h8.5908"/>
<path d="m881.94 378.29c5.4729-7.4023 10.029-14.981 12.42-21.649h-11.885c-1.6874 3.5141-4.211 8.5541-7.4684 13.132-3.4994-4.5852-6.5733-9.0823-8.7669-13.132h-11.899c8.29 15.377 25.347 35.559 35.698 43.424h13.528c-6.4486-5.4729-14.423-13.425-21.627-21.774"/>
<path d="m818.23 349.77h17.101v-8.2166h-17.101v-9.5298h17.101v-8.2166h-45.045v8.2166h17.226v9.5298h-17.226v8.2166h17.226v42.088h-21.671v8.2166h49.762l3.8736-8.202v-0.0147h-21.246v-42.088"/>
<path d="m858.77 389.3c-2.4723 1.7387-5.2454 1.5333-5.2454-2.0615v-38.361h29.851c5.5022 0 9.9627-4.4678 9.9627-9.9847 0-0.83634 0.0293-40.87 0.0293-40.87h-50.576v92.672c0 6.9255 5.1354 11.247 12.655 10.777 8.2093-0.50621 15.758-8.8549 15.758-8.8549-2.8978-3.316-4.1303-4.952-6.522-8.312-2.4136 2.1422-3.6902 3.404-5.913 4.996zm19.5-48.654c-0.94638 0-24.745 0.0147-24.745 0.0147v-13.103h29.11v8.7082c0 2.4063-1.9735 4.3798-4.3651 4.3798zm4.3651-34.393v13.095h-29.11v-13.095h29.11"/>
</g>
</g>
</svg>
