<svg width="97" height="40" viewBox="0 0 97 40" fill="none" xmlns="http://www.w3.org/2000/svg">
<path d="M28.6062 0.0934115L5.49451 4.90899e-06H5.47436C4.7558 -0.000957982 4.0441 0.13974 3.37997 0.414053C2.71583 0.688366 2.11228 1.09091 1.60385 1.59867C1.09541 2.10643 0.692055 2.70943 0.416853 3.3732C0.141651 4.03697 -3.38033e-07 4.74848 3.07121e-07 5.46704V34.5348C-0.000240353 35.2526 0.140957 35.9633 0.415524 36.6265C0.690091 37.2897 1.09265 37.8923 1.60018 38.3998C2.10772 38.9074 2.7103 39.3099 3.37347 39.5845C4.03665 39.859 4.74743 40.0002 5.4652 40H5.49451L28.6172 39.9267V38.533C28.6183 31.6641 26.0169 25.0499 21.337 20.022C26.0316 14.9939 28.6315 8.36435 28.6062 1.48535V0.0934115ZM10.8956 12.8407C8.08059 11.6941 5.83333 11.4817 2.7967 11.3278V11.2766C4.91319 10.957 6.8692 9.96035 8.37181 8.43595C9.87443 6.91154 10.8428 4.94139 11.1319 2.82052L16.1905 2.8425C15.8516 6.88462 13.9597 10.1813 10.8956 12.8407ZM3.58425 3.57693C3.83096 3.32834 4.12488 3.13156 4.44872 2.99817C4.77225 2.86473 5.11889 2.79627 5.46886 2.79671L7.78205 2.82052C7.78205 3.89195 7.2033 5.22711 6.22527 6.22528C5.24725 7.22345 3.91575 7.78206 2.82234 7.78206L2.7967 5.45788C2.79676 5.10781 2.86642 4.76124 3.00162 4.43833C3.13682 4.11542 3.33487 3.82261 3.58425 3.57693ZM2.7967 28.7656V23.7344C6.44689 24.0806 9.47802 25.0275 12.0623 27.6264C14.6465 30.2253 15.8462 33.4872 16.1722 37.1502L11.1282 37.163C10.8288 35.0534 9.85605 33.0968 8.35482 31.5847C6.85358 30.0726 4.90413 29.0857 2.7967 28.7711V28.7656ZM5.49451 37.2051C4.78629 37.2051 4.10708 36.9238 3.6063 36.423C3.10551 35.9222 2.82418 35.243 2.82418 34.5348V32.2967C3.89194 32.2967 5.25092 32.859 6.22711 33.8517C7.2033 34.8443 7.78388 36.1868 7.78388 37.1612L5.49451 37.2051ZM25.1941 37.1447L19.7692 37.1612C19.4328 32.7675 17.5377 28.6386 14.4257 25.5189C11.3137 22.3992 7.1895 20.4939 2.7967 20.1465L2.82234 14.5989C8.80403 14.9652 13.6648 17.163 17.8993 21.4084C22.1337 25.6538 24.8443 31.1685 25.1923 37.1593L25.1941 37.1447ZM18.6813 17.5092C17.152 16.1685 16.1355 15.5678 14.3516 14.5916C17.5172 11.4652 19.4364 7.29335 19.7509 2.85532L24.9084 2.8425C24.6044 8.50183 22.5403 13.3553 18.6813 17.5092Z" fill="#2376F3"/>
<path d="M37.8477 30.4777H42.051V26.1774L44.1865 23.8495L48.0986 30.4777H52.8513L47.1938 21.0034L52.7231 14.6645H47.7433L42.1169 21.2946H42.051V9.23047H37.8477V30.4777Z" fill="#3E4B5B"/>
<path d="M60.5412 30.7672C65.457 30.7672 68.9167 27.4045 68.9167 22.5859C68.9167 17.7342 65.457 14.4375 60.5412 14.4375C55.4973 14.4375 52.1328 17.8642 52.1328 22.5859C52.1328 27.3075 55.4936 30.7672 60.5412 30.7672ZM60.5412 26.9503C58.1163 26.9503 56.435 25.0437 56.435 22.5859C56.435 20.095 58.0834 18.2196 60.5412 18.2196C62.8691 18.2196 64.6163 19.9979 64.6163 22.5859C64.6163 25.1738 62.805 26.9503 60.5412 26.9503Z" fill="#3E4B5B"/>
<path d="M70.9453 30.4778H75.1816V23.1701C75.1816 20.7763 76.5735 19.0309 79.1926 19.0309C79.4508 19.0309 79.8721 19.0309 80.3244 19.062V14.4375H80.0003C78.1578 14.4375 76.4435 15.3533 75.2475 16.9613H75.1816V14.6646H70.9453V30.4778Z" fill="#3E4B5B"/>
<path d="M87.9977 30.7677C90.0673 30.7677 91.6515 29.9911 92.7504 28.5699L92.8145 28.6028V30.4783H96.8567V14.6633H92.6204V16.4819L92.5563 16.5149C91.4244 15.1559 89.7431 14.4453 87.9006 14.4453C83.6644 14.4453 80.4629 17.8391 80.4629 22.6266C80.4629 27.5094 83.6644 30.775 87.9977 30.775V30.7677ZM88.8054 26.9581C86.4116 26.9581 84.7633 25.1797 84.7633 22.6578C84.7633 19.9416 86.5105 18.2274 88.8054 18.2274C91.0691 18.2274 92.8145 20.1028 92.8145 22.6578C92.8145 25.2457 90.9721 26.9581 88.8054 26.9581Z" fill="#3E4B5B"/>
</svg>
