<?xml version="1.0" encoding="UTF-8" standalone="no"?>
<svg
   xmlns:dc="http://purl.org/dc/elements/1.1/"
   xmlns:cc="http://creativecommons.org/ns#"
   xmlns:rdf="http://www.w3.org/1999/02/22-rdf-syntax-ns#"
   xmlns:svg="http://www.w3.org/2000/svg"
   xmlns="http://www.w3.org/2000/svg"
   xmlns:sodipodi="http://sodipodi.sourceforge.net/DTD/sodipodi-0.dtd"
   xmlns:inkscape="http://www.inkscape.org/namespaces/inkscape"
   viewBox="0 0 629.99999 630"
   id="svg10"
   height="630"
   width="630"
   version="1.1"
   sodipodi:docname="Paysafe_Group_Logo.svg"
   inkscape:version="0.92.3 (2405546, 2018-03-11)">
  <sodipodi:namedview
     pagecolor="#ffffff"
     bordercolor="#666666"
     borderopacity="1"
     objecttolerance="10"
     gridtolerance="10"
     guidetolerance="10"
     inkscape:pageopacity="0"
     inkscape:pageshadow="2"
     inkscape:window-width="1920"
     inkscape:window-height="1029"
     id="namedview9"
     showgrid="false"
     inkscape:zoom="0.28032173"
     inkscape:cx="-321.76818"
     inkscape:cy="315.00017"
     inkscape:window-x="0"
     inkscape:window-y="0"
     inkscape:window-maximized="1"
     inkscape:current-layer="svg10" />
  <metadata
     id="metadata16">
    <rdf:RDF>
      <cc:Work
         rdf:about="">
        <dc:format>image/svg+xml</dc:format>
        <dc:type
           rdf:resource="http://purl.org/dc/dcmitype/StillImage" />
        <dc:title></dc:title>
      </cc:Work>
    </rdf:RDF>
  </metadata>
  <defs
     id="defs14" />
  <path
     id="path2"
     style="fill:#2d2341;fill-rule:evenodd;stroke-width:0.65624994"
     d="M 0,0 H 629.99999 V 630 H 0 Z"
     inkscape:connector-curvature="0" />
  <path
     id="path4"
     style="fill:#ffffff;fill-rule:evenodd"
     d="m 43.871145,75.339853 c 53.85,0.0899 107.699795,0.01 161.539895,0.04 13.6199,0.11 27.29,-0.4201 40.87,0.8901 25.73,2.0999 51.5001,8.67 73.8399,21.9098 24.01,14.030097 42.91,36.390097 52.9002,62.319997 10.11,25.7502 12.5501,54.0502 9.75,81.4201 -3.2502,32.4799 -16.5501,64.44 -39.8001,87.69 -26.3398,26.9399 -63.5499,41.2101 -100.6999,44.0799 -10.2802,1.04 -20.6102,0.6701 -30.9201,0.7302 -18.5198,-0.0102 -37.0301,0.01 -55.55,-0.0102 0.0499,57.3602 -0.01,114.7201 0.0301,172.0902 -37.3201,-0.0502 -74.650095,-0.0502 -111.969895,0 0.0297,-157.0601 0,-314.1102 0.0099,-471.160097 z M 155.80104,157.44995 c 0.0301,45 0.04,90 0,135 16.17,-0.0301 32.34001,-0.0102 48.5201,-0.0201 6.3799,-0.01 12.7999,0.1899 19.1299,-0.7798 11.3499,-1.4803 22.4501,-5.9103 31.1301,-13.4502 11.44,-9.82 17.7701,-24.44 19.7098,-39.1799 2.14021,-17.0702 0.63021,-35.1402 -7.27,-50.65 -6.05989,-12.06 -16.6399,-21.7902 -29.2997,-26.56 -8.0802,-3.0802 -16.7602,-4.4901 -25.4002,-4.36 -18.8399,0.01 -37.68,0.01 -56.52,0 z"
     inkscape:connector-curvature="0" />
  <path
     id="path6"
     style="fill:#7887e6;fill-rule:evenodd"
     d="m 518.65105,190.37975 c 15.10019,-1.4298 30.66009,1.8201 43.65009,9.7302 13.61991,8.1198 24.3701,20.9299 29.9699,35.78 6.91991,18.0899 6.0199,39.0399 -2.5699,56.4299 -5.7299,11.8301 -14.85009,21.9699 -25.97019,28.9899 -14.47001,9.2401 -32.3898,12.8302 -49.32,10.0602 -14.7897,-2.34 -28.8,-9.5202 -39.24,-20.2601 -12.9197,-12.8599 -20.4499,-30.9501 -20.5098,-49.17 -0.32,-16.74 5.6699,-33.4599 16.4101,-46.2799 11.74,-14.2302 29.2099,-23.5499 47.5798,-25.2802 z"
     inkscape:connector-curvature="0" />
  <path
     id="path8"
     style="fill:#ff5073;fill-rule:evenodd"
     d="m 512.80115,413.56985 c 14.3,-2.6399 29.41999,-0.83 42.63,5.2801 14.25,6.51 26.1899,17.89 33.4199,31.78 7.87999,14.98 10.0301,32.83 6.1299,49.29 -5.9099,26.2499 -28.03971,47.8998 -54.4297,53.1799 -16.08011,3.42 -33.3201,1.12 -47.8502,-6.58 -15.85,-8.28 -28.37,-22.7399 -34.1499,-39.6701 -6.1101,-17.3999 -5.0201,-37.15 2.8899,-53.7899 9.5199,-20.3701 29.2099,-35.57 51.3601,-39.49 z"
     inkscape:connector-curvature="0" />
</svg>
