<?xml version="1.0" encoding="UTF-8" standalone="no"?>
<!-- Created with Inkscape (http://www.inkscape.org/) -->

<svg
   xmlns:dc="http://purl.org/dc/elements/1.1/"
   xmlns:cc="http://creativecommons.org/ns#"
   xmlns:rdf="http://www.w3.org/1999/02/22-rdf-syntax-ns#"
   xmlns:svg="http://www.w3.org/2000/svg"
   xmlns="http://www.w3.org/2000/svg"
   xmlns:sodipodi="http://sodipodi.sourceforge.net/DTD/sodipodi-0.dtd"
   xmlns:inkscape="http://www.inkscape.org/namespaces/inkscape"
   width="11.252872mm"
   height="16.336935mm"
   viewBox="0 0 39.872379 57.886777"
   id="svg3697"
   version="1.1"
   inkscape:version="0.91 r13725"
   sodipodi:docname="geopay-icon.svg">
  <defs
     id="defs3699" />
  <sodipodi:namedview
     id="base"
     pagecolor="#ffffff"
     bordercolor="#666666"
     borderopacity="1.0"
     inkscape:pageopacity="0.0"
     inkscape:pageshadow="2"
     inkscape:zoom="0.35"
     inkscape:cx="263.50762"
     inkscape:cy="-242.48545"
     inkscape:document-units="px"
     inkscape:current-layer="layer1"
     showgrid="false"
     fit-margin-top="0"
     fit-margin-left="0"
     fit-margin-right="0"
     fit-margin-bottom="0"
     inkscape:window-width="2560"
     inkscape:window-height="1390"
     inkscape:window-x="0"
     inkscape:window-y="0"
     inkscape:window-maximized="1" />
  <metadata
     id="metadata3702">
    <rdf:RDF>
      <cc:Work
         rdf:about="">
        <dc:format>image/svg+xml</dc:format>
        <dc:type
           rdf:resource="http://purl.org/dc/dcmitype/StillImage" />
        <dc:title></dc:title>
      </cc:Work>
    </rdf:RDF>
  </metadata>
  <g
     inkscape:label="Layer 1"
     inkscape:groupmode="layer"
     id="layer1"
     transform="translate(-111.49238,-231.98997)">
    <path
       d="m 121.40613,231.99062 20.04488,0 c 4.82875,0 8.8795,3.49975 9.74337,8.08838 l -11.767,0 -0.18062,-0.004 -15.637,0 c -2.21738,-10e-6 -4.03238,1.81487 -4.03238,4.03337 l 0,15.63625 c 0,2.21925 1.815,4.03412 4.03238,4.03412 l 15.637,0 c 2.21775,0 4.03325,-1.81487 4.03325,-4.03412 l 0,-3.8395 -14.46413,0 0,-0.002 c 0,-4.37563 3.57988,-7.95375 7.9555,-7.95375 l 6.50863,0 0,-0.0116 8.08475,0 0,14.011 c 0,5.45275 -4.46063,9.91375 -9.91375,9.91375 l -20.04488,0 c -5.45212,-5e-5 -9.91375,-4.46105 -9.91375,-9.9138 l 0,-20.04487 c 0,-5.45213 4.46163,-9.91388 9.91375,-9.91388 z m -9.31387,57.886 19.88325,0 0.32812,0 11.07525,0 c 4.37525,0 7.9555,-3.578 7.9555,-7.954 l 0,-10e-4 -19.03075,0 -0.32812,0 -11.92788,0 c -4.37637,0 -7.95537,3.57913 -7.95537,7.95438 l 0,7.5e-4 z"
       style="fill:#40bfc5;fill-opacity:1;fill-rule:evenodd;stroke:none"
       id="path3568"
       inkscape:connector-curvature="0" />
  </g>
</svg>
