<?xml version="1.0" encoding="UTF-8"?>
<svg viewBox="0 0 552.6 109.4" xmlns="http://www.w3.org/2000/svg">
    <defs>
        <linearGradient id="b" x1="38.72" x2="90.86" y1="820.36" y2="887.84" gradientTransform="translate(0 -792.41)" gradientUnits="userSpaceOnUse">
            <stop stop-color="#00d77b" stop-opacity="0" offset="0"/>
            <stop stop-color="#00ae64" stop-opacity=".12" offset=".04"/>
            <stop stop-color="#007a46" stop-opacity=".28" offset=".1"/>
            <stop stop-color="#004e2d" stop-opacity=".44" offset=".16"/>
            <stop stop-color="#002c19" stop-opacity=".6" offset=".22"/>
            <stop stop-color="#00140b" stop-opacity=".75" offset=".27"/>
            <stop stop-color="#000503" stop-opacity=".89" offset=".32"/>
            <stop offset=".37"/>
        </linearGradient>
        <linearGradient id="a" x1="18.55" x2="36.97" y1="905.23" y2="833.29" gradientTransform="translate(0 -792.41)" gradientUnits="userSpaceOnUse">
            <stop stop-color="#00c4ff" offset=".05"/>
            <stop stop-color="#00d77b" offset=".67"/>
        </linearGradient>
    </defs>
    <path d="m142.1,73.3h1.1v12.8h-3.8c-8.6,0-13.8-3.4-15.6-10.2-5.3,7.8-12.6,11.6-21.8,11.6-8.5,0-15.7-3-21.3-9.1-5.7-6.1-8.5-13.6-8.5-22.6s2.8-16.6,8.5-22.6c5.7-6.1,12.8-9.1,21.3-9.1s15.9,3.6,21.2,10.8v-9.4h13.3v42.1c0,1.7.5,3.1,1.5,4.1,1,1.1,2.4,1.6,4.1,1.6Zm-37.5,1.5c5.3,0,9.7-1.8,13.3-5.4s5.3-8.1,5.3-13.5-1.8-9.9-5.3-13.5c-3.6-3.6-8-5.4-13.3-5.4s-9.9,1.8-13.4,5.4c-3.6,3.6-5.3,8.1-5.3,13.5s1.8,9.9,5.3,13.5c3.6,3.6,8,5.4,13.4,5.4Z"/>
    <path d="m102 88.3c-8.7 0-16-3.1-21.8-9.3s-8.7-13.9-8.7-23.1 2.9-16.9 8.7-23.1 13.1-9.3 21.8-9.3 15.3 3.2 20.6 9.5v-8.1h14.7v42.8c0 1.6 0.4 2.8 1.3 3.6 0.9 0.9 2 1.3 3.6 1.3h1.8v14.2h-4.5c-8.4 0-13.7-3.1-15.8-9.4-5.5 7.2-12.7 10.9-21.7 10.9zm0-63.4c-8.3 0-15.3 3-20.8 8.9s-8.3 13.3-8.3 22.2 2.8 16.3 8.3 22.1c5.5 5.9 12.5 8.9 20.8 8.9 9 0 16.1-3.8 21.3-11.3l0.8-1.2 0.4 1.5c1.7 6.5 6.5 9.7 14.9 9.7h3.1v-11.7h-0.4c-1.9 0-3.5-0.6-4.6-1.7s-1.7-2.7-1.7-4.6v-41.4h-11.9v10.8l-1.2-1.7c-5.1-7-12.1-10.5-20.7-10.5zm2.6 50.5c-5.5 0-10.2-1.9-13.9-5.6s-5.5-8.4-5.5-14 1.9-10.2 5.5-14c3.7-3.7 8.4-5.6 13.9-5.6s10.1 1.9 13.8 5.6 5.5 8.4 5.5 14-1.9 10.2-5.5 14c-3.7 3.8-8.3 5.6-13.8 5.6zm0-37.7c-5.2 0-9.5 1.7-12.9 5.2s-5.1 7.8-5.1 13 1.7 9.5 5.1 13c3.4 3.4 7.8 5.2 12.9 5.2s9.4-1.7 12.8-5.2 5.1-7.8 5.1-13-1.7-9.5-5.1-13-7.7-5.2-12.8-5.2z"/>
    <path d="m250.8 37.7h-15v27.7c0 2.7 0.8 4.8 2.4 6.3s3.8 2.3 6.5 2.3h6.1v12.2h-8c-6.6 0-11.6-1.6-15.1-4.8s-5.2-7.8-5.2-13.8v-29.9h-24.4v-12.1h20.4c3.2 0 4.7-1.6 4.7-4.7v-11.7h12.6v16.4h15v12.1z"/>
    <path d="m251.5,86.8h-8.6c-6.7,0-11.9-1.7-15.5-5s-5.4-8.1-5.4-14.3v-29.1h-24.4v-13.5h21.1c2.8,0,4.1-1.3,4.1-4.1v-12.2h13.9v16.4h15v13.5h-15v27c0,2.5.7,4.4,2.2,5.8,1.4,1.4,3.5,2.1,6.1,2.1h6.7v13.4h-.2Zm-52.7-49.8h24.4v30.5c0,5.8,1.7,10.3,5,13.3,3.3,3.1,8.3,4.6,14.6,4.6h7.3v-10.8h-5.4c-2.9,0-5.3-.8-7-2.4s-2.6-3.9-2.6-6.8v-28.4h15v-10.7h-15V9.9h-11.2v11c0,3.6-1.9,5.4-5.4,5.4h-19.7v10.7h0Z"/>
    <path d="m322 56c0 1.9-0.1 3.6-0.4 5h-50.1c0.9 4.4 3.1 8 6.5 10.6 3.4 2.7 7.4 4 12.2 4 3.4 0 6.5-0.7 9.4-2.1s5.1-3.3 6.7-5.7h14.7c-2.5 6-6.5 10.8-12 14.4-5.6 3.6-11.9 5.4-19.1 5.4-9.3 0-17.1-3-23.3-9.1s-9.3-13.6-9.3-22.6 3.1-16.6 9.3-22.6c6.2-6.1 13.8-9.1 23-9.1s17 3 23.1 9.1c6.2 6 9.3 13.6 9.3 22.7zm-21-16c-3.3-2.5-7.1-3.8-11.5-3.8s-8.2 1.3-11.4 3.8-5.4 5.9-6.5 10.1h36c-1.1-4.2-3.3-7.6-6.6-10.1z"/>
    <path d="m289.9 88.3c-9.5 0-17.5-3.1-23.8-9.3s-9.5-13.9-9.5-23.1 3.2-16.9 9.5-23.1 14.2-9.3 23.5-9.3 17.3 3.1 23.6 9.3 9.5 14 9.5 23.2c0 1.9-0.1 3.6-0.4 5.1l-0.1 0.6h-49.8c1 3.9 3 7 6 9.4 3.2 2.5 7.2 3.8 11.7 3.8 3.3 0 6.4-0.7 9.1-2.1 2.8-1.4 4.9-3.2 6.4-5.5l0.2-0.3h16.1l-0.4 0.9c-2.5 6.1-6.6 11.1-12.3 14.7-5.5 3.8-12.1 5.7-19.3 5.7zm-0.3-63.4c-9 0-16.5 3-22.6 8.9-6 5.9-9.1 13.3-9.1 22.1s3.1 16.2 9.1 22.1c6.1 5.9 13.7 8.9 22.9 8.9 7 0 13.2-1.8 18.7-5.3 5.1-3.3 9-7.7 11.4-13.2h-13.3c-1.6 2.3-3.9 4.2-6.8 5.6-3 1.5-6.2 2.2-9.7 2.2-4.9 0-9.1-1.4-12.6-4.1s-5.7-6.4-6.7-11l-0.2-0.8h50.4c0.2-1.3 0.3-2.7 0.3-4.3 0-8.9-3-16.4-9.1-22.2-6.1-5.9-13.7-8.9-22.7-8.9zm18.9 25.8h-37.7l0.2-0.9c1.1-4.3 3.4-7.8 6.8-10.5 3.4-2.6 7.3-3.9 11.8-3.9s8.5 1.3 11.9 3.9 5.7 6.1 6.8 10.5l0.2 0.9zm-36-1.3h34.2c-1.1-3.6-3.2-6.6-6.1-8.9-3.1-2.4-6.9-3.7-11-3.7s-7.9 1.2-11 3.7c-2.9 2.3-4.9 5.3-6.1 8.9z"/>
    <path d="m394.7 73.3h1.2v12.8h-3.8c-10.8 0-16.1-5.1-16.1-15.4v-18.3c0-4.7-1.4-8.4-4.1-11.2s-6.4-4.2-11-4.2-8.7 1.4-11.6 4.3-4.4 6.7-4.4 11.3v33.5h-13.3v-60.5h13.3v8.4c4.8-6.6 11.6-9.9 20.4-9.9 7.2 0 13 2.2 17.4 6.5 4.4 4.4 6.6 10.1 6.6 17.3v19.7c0 1.7 0.5 3.1 1.4 4.1 0.9 1.1 2.2 1.6 4 1.6z"/>
    <path d="m396.5 86.8h-4.5c-11.2 0-16.8-5.4-16.8-16.1v-18.3c0-4.5-1.3-8.1-3.9-10.7-2.6-2.7-6.1-4-10.5-4s-8.4 1.4-11.2 4.1-4.2 6.4-4.2 10.9v34.2h-14.7v-62h14.7v7.2c4.9-5.7 11.5-8.6 19.7-8.6 7.4 0 13.4 2.3 17.9 6.7 4.5 4.5 6.8 10.5 6.8 17.8v19.7c0 1.6 0.4 2.8 1.2 3.6 0.8 0.9 2 1.3 3.5 1.3h1.9v14.2s0.1 0 0.1 0zm-35.7-50.5c4.8 0 8.6 1.5 11.5 4.4 2.8 2.9 4.3 6.9 4.3 11.7v18.3c0 9.9 5.1 14.8 15.5 14.8h3.1v-11.5h-0.5c-1.9 0-3.5-0.6-4.5-1.7-1.1-1.1-1.6-2.7-1.6-4.6v-19.7c0-7-2.1-12.6-6.4-16.8-4.2-4.2-9.9-6.3-16.9-6.3-8.5 0-15.2 3.2-19.9 9.6l-1.2 1.7v-9.8h-11.9v59.2h11.8v-32.9c0-4.8 1.5-8.8 4.6-11.8s7.1-4.6 12.1-4.6z"/>
    <path d="m435.7 37.7h-15v27.7c0 2.7 0.8 4.8 2.4 6.3s3.8 2.3 6.5 2.3h6.1v12.2h-8c-6.6 0-11.6-1.6-15.1-4.8s-5.2-7.8-5.2-13.8v-29.9h-10.2v-12.1h6.2c3.2 0 4.7-1.6 4.7-4.7v-11.7h12.6v16.4h15v12.1z"/>
    <path d="m436.4,86.8h-8.6c-6.7,0-11.9-1.7-15.5-5s-5.4-8.1-5.4-14.3v-29.1h-10.2v-13.5h6.9c2.8,0,4.1-1.3,4.1-4.1v-12.2h13.9v16.4h15v13.5h-15v27c0,2.5.7,4.4,2.2,5.8,1.4,1.4,3.5,2.1,6.1,2.1h6.7v13.4h-.2Zm-38.5-49.8h10.2v30.5c0,5.8,1.7,10.3,5,13.3,3.3,3.1,8.3,4.6,14.6,4.6h7.3v-10.8h-5.4c-2.9,0-5.3-.8-7-2.4s-2.6-3.9-2.6-6.8v-28.4h15v-10.7h-15V9.9h-11.2v11c0,3.6-1.9,5.4-5.4,5.4h-5.5v10.7Z"/>
    <path d="m464.9 86.2c-6 0-10.6-1.4-13.8-4.3s-4.7-7.1-4.7-12.5v-68.7h13.3v66.3c0 2.2 0.6 3.9 1.9 5.1s3 1.8 5.2 1.8h3.7v12.2l-5.6 0.1z"/>
    <path d="m471.1,86.8h-6.3c-6.2,0-11-1.5-14.2-4.5-3.3-3-5-7.4-5-13V0h14.7v67c0,2,.6,3.5,1.7,4.6s2.7,1.6,4.8,1.6h4.4v13.6s-.1,0-.1,0ZM447,1.4v67.9c0,5.2,1.5,9.3,4.5,12,3,2.8,7.5,4.2,13.3,4.2h4.9v-10.9h-3c-2.4,0-4.3-.7-5.7-2-1.4-1.3-2.1-3.2-2.1-5.6V1.4h-11.9Z"/>
    <path d="m549.9,84.4c-1.8,1.8-4.1,2.7-6.8,2.7s-4.9-.9-6.8-2.7c-1.8-1.8-2.7-4-2.7-6.7s.9-4.9,2.7-6.8c1.8-1.8,4.1-2.7,6.8-2.7s4.9.9,6.8,2.7c1.8,1.8,2.7,4.1,2.7,6.8s-.9,5-2.7,6.7Z"/>
    <path d="m195.6 25.6-18.5 42.6-18.6-42.6h-14.1l25.6 58c-5.3 11.5-6.6 12.9-12.4 12.9h-4.3v12.2h4.3c14.7 0 19.6-10.5 24.8-21.6l27.5-61.5h-14.3z"/>
    <path d="m157.5,109.4h-4.9v-13.6h4.9c5.2,0,6.5-.8,11.7-12.2l-25.9-58.7h15.6l18.2,41.6,18-41.6h15.6l-27.9,62.4c-5.2,11.4-10.2,22.1-25.3,22.1Zm-3.6-1.4h3.6c14.3,0,19.1-10.3,24.2-21.3l27-60.5h-12.6l-19,43.6-19.1-43.6h-12.6l25.3,57.3-.1.3c-5.3,11.6-6.9,13.3-13,13.3h-3.6l-.1,10.9h0Z"/>
    <path d="m523.3 25.6-18.5 42.6-18.6-42.6h-14.1l25.6 58c-5.3 11.5-6.6 12.9-12.4 12.9h-4.3v12.2h4.3c14.7 0 19.6-10.5 24.8-21.6l27.5-61.5h-14.3z"/>
    <path d="m485.2,109.4h-4.9v-13.6h4.9c5.2,0,6.5-.8,11.7-12.2l-25.9-58.7h15.6l18.2,41.6,18.1-41.6h15.6l-27.9,62.4c-5.3,11.4-10.2,22.1-25.4,22.1Zm-3.6-1.4h3.6c14.3,0,19.1-10.3,24.2-21.3l27-60.5h-12.6l-19,43.6-19.1-43.6h-12.6l25.3,57.3-.1.3c-5.3,11.6-6.9,13.3-13,13.3h-3.6l-.1,10.9h0Z"/>
    <path d="m14.9,53.1c.5-3.9,2.2-7.3,5-10.1,3.4-3.4,7.8-5.2,12.9-5.2s9.4,1.7,12.8,5.2l.1.1c4.2-2.5,8.8-4.8,13.6-6.7l.5-.2c-.8-1.1-1.7-2.2-2.7-3.2-5.8-6.2-13.1-9.3-21.7-9.3s-15.4,3.2-20.7,9.5v-8.1H0v17.6l14.7,11.7.2-1.3Z" fill="#00d77b"/>
    <path d="m63.7,43.7c-1.5-4-3.7-7.6-6.7-10.7-5.8-6.2-13.1-9.3-21.7-9.3h-.6l-2.9,14.2h.8c5.1,0,9.4,1.7,12.8,5.2,1.6,1.6,2.8,3.4,3.7,5.4l.3.8.7-.5c3.8-2.7,8.2-4.1,12.5-4.1h1.4l-.3-1Z" fill="url(#b)" opacity=".5" isolation="isolate"/>
    <path d="m64.6 46.5c-0.5-2.3-1.4-4.4-2.3-6.1l-0.3-0.6c-0.2-0.5-0.5-0.9-0.7-1.3-0.1-0.1-0.1-0.2-0.2-0.3-0.8-1.3-1.4-2.1-1.4-2.1l-0.5 0.2c-22.4 8.7-39 26.9-41.9 29.8l-17.3-13v56.3h14.6v-29.6l2.8 1.9c4.9 4.4 10.9 6.6 17.9 6.6 8.6 0 15.9-3.1 21.7-9.3s8.7-13.9 8.7-23.1c0.1-3.2-0.3-6.4-1.1-9.4zm-19.1 22.5c-3.4 3.4-7.7 5.2-12.8 5.2-1.6 0-3.1-0.2-4.5-0.5 8.4-8.4 16.2-14.3 22.5-18.4v0.8c0 5.1-1.8 9.4-5.2 12.9z" fill="url(#a)"/>
</svg>
