<?xml version="1.0" encoding="UTF-8" standalone="no"?>
<!-- Generator: Adobe Illustrator 26.0.0, SVG Export Plug-In . SVG Version: 6.00 Build 0)  -->

<svg
   xmlns:dc="http://purl.org/dc/elements/1.1/"
   xmlns:cc="http://creativecommons.org/ns#"
   xmlns:rdf="http://www.w3.org/1999/02/22-rdf-syntax-ns#"
   xmlns:svg="http://www.w3.org/2000/svg"
   xmlns="http://www.w3.org/2000/svg"
   xmlns:sodipodi="http://sodipodi.sourceforge.net/DTD/sodipodi-0.dtd"
   xmlns:inkscape="http://www.inkscape.org/namespaces/inkscape"
   version="1.1"
   id="Слой_1"
   x="0px"
   y="0px"
   viewBox="0 0 66.715934 90.8"
   xml:space="preserve"
   sodipodi:docname="litepay_iconsvg.svg"
   width="66.715935"
   height="90.800003"
   inkscape:version="0.92.5 (2060ec1f9f, 2020-04-08)"><metadata
   id="metadata43"><rdf:RDF><cc:Work
       rdf:about=""><dc:format>image/svg+xml</dc:format><dc:type
         rdf:resource="http://purl.org/dc/dcmitype/StillImage" /><dc:title></dc:title></cc:Work></rdf:RDF></metadata><defs
   id="defs41" /><sodipodi:namedview
   pagecolor="#ffffff"
   bordercolor="#666666"
   borderopacity="1"
   objecttolerance="10"
   gridtolerance="10"
   guidetolerance="10"
   inkscape:pageopacity="0"
   inkscape:pageshadow="2"
   inkscape:window-width="1920"
   inkscape:window-height="1080"
   id="namedview39"
   showgrid="false"
   inkscape:zoom="1.4440283"
   inkscape:cx="120.15"
   inkscape:cy="45.399998"
   inkscape:window-x="0"
   inkscape:window-y="27"
   inkscape:window-maximized="1"
   inkscape:current-layer="Слой_1" />
<style
   type="text/css"
   id="style2">
	.st0{fill:#9BB4C6;}
	.st1{fill:#FFFFFF;}
</style>
<g
   id="g6">
	<path
   class="st0"
   d="M 55.9,26.9 C 55.4,36.1 45.4,43 32.8,51.9 31.4,52.9 50.5,39.6 50.8,26.7 51,19.3 60.7,15.6 85.7,1.3 87.3,0.5 56.5,17 55.9,26.9 Z"
   id="path4"
   inkscape:connector-curvature="0"
   style="fill:#9bb4c6" />
</g>
<path
   class="st1"
   d="m 59.5,9.9 c -0.1,0 -0.2,0 -0.2,0 0.3,0.1 0.6,0.3 0.6,0.7 0,0.4 -0.3,0.7 -0.7,0.7 -0.4,0 -0.6,-0.3 -0.7,-0.6 0,0.1 0,0.2 0,0.2 0,0.6 0.5,1.1 1.1,1.1 0.6,0 1.1,-0.5 1.1,-1.1 0,-0.6 -0.6,-1 -1.2,-1 z"
   id="path8"
   inkscape:connector-curvature="0"
   style="fill:#ffffff" />
<path
   class="st1"
   d="m 8.7,48.6 c 0.7,0.3 5.9,3 10,2.3 4.8,-0.8 7.6,-3.3 7.6,-3.3 0.7,-0.6 1.7,-1.7 3.4,-1.7 0.3,0 1.6,-0.1 2.2,0.7 0.6,0.8 0.4,1.9 0.3,2.2 -0.7,3 -5.1,4.2 -5.9,4.4 -1.1,0.3 -4.8,1.2 -10.1,-0.6 -2.3,-0.8 -4.1,-1.9 -5.8,-3"
   id="path10"
   inkscape:connector-curvature="0"
   style="fill:#ffffff" />
<path
   class="st0"
   d="m 24,57.5 c -8.2,6.6 -11.4,33.3 -11.7,33.3 -0.5,0 0.8,-25.6 9.6,-37.5 7.1,-9.6 11.8,-9.2 12.9,-7.1 0.7,1.3 -0.1,2.1 -0.1,2.1 -1.8,2.7 -3.6,3.4 -10.7,9.2 z"
   id="path12"
   inkscape:connector-curvature="0"
   style="fill:#9bb4c6" />

<path
   class="st1"
   d="m 0,9.3 c 0.4,1.2 3.4,11 9.8,15.4 7.6,5.2 15.2,6 15.2,6 1.8,0.2 4.8,0.3 7.1,2.4 0.4,0.4 2.2,1.9 1.9,3.7 -0.3,1.7 -2.3,2.6 -3,2.9 C 25.5,42.2 17.7,37.9 16.5,37.2 14.6,36.1 8.2,32.4 3.9,23.6 2,19.8 1.3,16.1 0.8,12.8"
   id="path30"
   inkscape:connector-curvature="0"
   style="fill:#ffffff" />
<path
   class="st0"
   d="m 4.8,0 c 0.2,1.3 0.9,12.3 6.7,18.6 6.8,7.4 14.6,10 14.6,10 1.8,0.6 5,1.5 6.9,4.2 0.3,0.5 1.8,2.6 1.1,4.4 -0.7,1.7 -3,2.2 -3.9,2.4 C 23.8,40.9 16.6,34.5 15.5,33.5 13.7,31.9 7.9,26.4 5.4,16.1 4.3,11.6 4.4,7.6 4.7,3.9"
   id="path32"
   inkscape:connector-curvature="0"
   style="fill:#9bb4c6" />
<path
   class="st1"
   d="M 64.1,6.6 C 55.5,1.6 49.4,2.5 49.3,2.5 c -0.5,0 -6.9,0.7 -9,7.9 -1.4,4.9 -0.6,6.9 -1.9,15.8 -1.3,8.8 -4.8,14 -5.5,15 -2.2,3.1 -4.7,4.2 -4.6,4.2 0.1,0.1 6.1,-3.3 10.1,-9.7 2.1,-3.4 4.5,-11.1 5.2,-17.5 0.3,-3 0.8,-4.9 1.4,-6.2 1.5,-3.4 3.4,-4.3 3.7,-4.5 2.1,-1.4 7.7,-1.2 9.6,-1 3.9,0.3 7.2,1.7 7.7,1.8 2.1,0.8 -1,-1.1 -1.9,-1.7 z"
   id="path34"
   inkscape:connector-curvature="0"
   style="fill:#ffffff" />
<path
   class="st1"
   d="m 40.3,42.8 c 0.1,0.1 6,-5.6 7.7,-11.4 1.3,-4.6 0,-5.8 1.5,-8.8 2.8,-5.8 11.6,-8.6 11.6,-8.6 0,0 -7,1.4 -10.6,4.3 -3.5,2.8 -3.7,5.6 -3.9,6.9 -0.3,2.5 0.3,2.7 0.2,5.2 -0.4,6 -6.6,12.3 -6.5,12.4 z"
   id="path36"
   inkscape:connector-curvature="0"
   style="fill:#ffffff" />
</svg>