<?xml version="1.0" encoding="utf-8"?>
<!-- Generator: Adobe Illustrator 26.0.0, SVG Export Plug-In . SVG Version: 6.00 Build 0)  -->
<svg version="1.1" id="Слой_1" xmlns="http://www.w3.org/2000/svg" xmlns:xlink="http://www.w3.org/1999/xlink" x="0px" y="0px"
	 viewBox="0 0 240.3 90.8" style="enable-background:new 0 0 240.3 90.8;" xml:space="preserve">
<style type="text/css">
	.st0{fill:#9BB4C6;}
	.st1{fill:#FFFFFF;}
	.st2{fill:#C0CFD8;}
</style>
<g>
	<path class="st0" d="M55.9,26.9c-0.5,9.2-10.5,16.1-23.1,25c-1.4,1,17.7-12.3,18-25.2c0.2-7.4,9.9-11.1,34.9-25.4
		C87.3,0.5,56.5,17,55.9,26.9z"/>
</g>
<path class="st1" d="M59.5,9.9c-0.1,0-0.2,0-0.2,0c0.3,0.1,0.6,0.3,0.6,0.7s-0.3,0.7-0.7,0.7s-0.6-0.3-0.7-0.6c0,0.1,0,0.2,0,0.2
	c0,0.6,0.5,1.1,1.1,1.1s1.1-0.5,1.1-1.1S60.1,9.9,59.5,9.9z"/>
<path class="st2" d="M8.7,48.6c0.7,0.3,5.9,3,10,2.3c4.8-0.8,7.6-3.3,7.6-3.3c0.7-0.6,1.7-1.7,3.4-1.7c0.3,0,1.6-0.1,2.2,0.7
	c0.6,0.8,0.4,1.9,0.3,2.2c-0.7,3-5.1,4.2-5.9,4.4c-1.1,0.3-4.8,1.2-10.1-0.6c-2.3-0.8-4.1-1.9-5.8-3"/>
<path class="st0" d="M24,57.5c-8.2,6.6-11.4,33.3-11.7,33.3c-0.5,0,0.8-25.6,9.6-37.5c7.1-9.6,11.8-9.2,12.9-7.1
	c0.7,1.3-0.1,2.1-0.1,2.1C32.9,51,31.1,51.7,24,57.5z"/>
<g>
	<path class="st0" d="M68.9,26.5h4.7L67.9,55h17.7l-0.8,4.1H62.4L68.9,26.5z"/>
	<path class="st0" d="M94.2,34.4h4.5l-4.9,24.7h-4.5L94.2,34.4z M95.8,28.8c-0.5-0.5-0.8-1.2-0.8-1.9c0-0.9,0.3-1.6,0.9-2.2
		s1.4-0.9,2.3-0.9c0.8,0,1.5,0.3,2,0.8s0.8,1.1,0.8,1.8c0,1-0.3,1.7-0.9,2.3s-1.4,0.9-2.4,0.9C97,29.6,96.3,29.4,95.8,28.8z"/>
	<path class="st0" d="M108.9,51.2c-0.1,0.5-0.1,0.9-0.1,1.3c0,1,0.3,1.8,0.8,2.3s1.4,0.8,2.4,0.8c1.3,0,2.5-0.4,3.5-1.2l0.9,3.4
		c-1.5,1-3.4,1.5-5.7,1.5c-2,0-3.5-0.6-4.7-1.7s-1.8-2.6-1.8-4.5c0-0.7,0.1-1.3,0.2-1.9l2.7-13.2h-4.2l0.7-3.7h4.2l1.1-5.4h4.5
		l-1.1,5.4h7.1l-0.7,3.7h-7.1L108.9,51.2z"/>
	<path class="st0" d="M124.9,48.1v0.3c0,2.3,0.7,4,2,5.2c1.3,1.2,3.3,1.8,5.9,1.8c1.5,0,2.9-0.3,4.3-0.8c1.3-0.5,2.5-1.2,3.4-2.1
		l1.9,3.2c-1.2,1.1-2.7,2-4.4,2.6s-3.7,1-5.6,1c-2.4,0-4.5-0.4-6.3-1.3s-3.1-2.1-4.1-3.7c-1-1.6-1.4-3.5-1.4-5.7
		c0-2.8,0.6-5.2,1.8-7.4c1.2-2.2,2.9-3.9,5-5.2c2.1-1.2,4.5-1.9,7.1-1.9c3.4,0,6,1,8,2.9s3,4.5,3,7.8c0,1-0.1,2.1-0.3,3.3
		C145.2,48.1,124.9,48.1,124.9,48.1z M128.6,39.7c-1.6,1.2-2.7,2.9-3.2,5.1h15.9c0.1-2.2-0.5-3.9-1.7-5.1c-1.3-1.2-3-1.8-5.3-1.8
		C132.1,37.9,130.2,38.5,128.6,39.7z"/>
	<path class="st2" d="M177,28.9c2.1,1.7,3.1,4,3.1,7.1c0,2.8-0.6,5.1-1.8,7.1s-3,3.5-5.3,4.5s-5,1.6-8.1,1.6h-8.7l-2,9.9h-4.7
		l6.5-32.6h12.1C172,26.5,174.9,27.3,177,28.9z M172.7,42.9c1.8-1.5,2.7-3.6,2.7-6.5c0-1.9-0.7-3.4-2-4.4s-3.2-1.5-5.7-1.5h-7.8
		L157,45.1h8C168.3,45.1,170.9,44.4,172.7,42.9z"/>
	<path class="st2" d="M210,34.4l-4.9,24.7h-4.3l0.6-3c-1.1,1.1-2.4,1.9-3.9,2.4c-1.5,0.6-3.1,0.9-4.8,0.9c-2.1,0-4-0.4-5.6-1.3
		s-2.9-2.1-3.9-3.7s-1.4-3.5-1.4-5.7c0-2.8,0.6-5.3,1.8-7.5s2.9-3.9,5-5.2c2.1-1.2,4.5-1.9,7.1-1.9c2.1,0,3.9,0.4,5.4,1.1
		c1.5,0.7,2.7,1.8,3.5,3.3l0.8-4.2h4.6L210,34.4L210,34.4z M198.7,54.1c1.5-0.9,2.6-2.1,3.4-3.7c0.8-1.6,1.2-3.4,1.2-5.4
		c0-2.2-0.6-3.9-1.9-5.1c-1.3-1.2-3.1-1.8-5.4-1.8c-1.8,0-3.5,0.4-4.9,1.3c-1.5,0.9-2.6,2.1-3.4,3.7c-0.8,1.6-1.3,3.4-1.3,5.4
		c0,2.2,0.6,3.9,1.9,5.1c1.3,1.2,3.1,1.8,5.4,1.8C195.6,55.4,197.2,55,198.7,54.1z"/>
	<path class="st2" d="M240.3,34.4l-17.5,27.4c-1.6,2.5-3.1,4.2-4.5,5.2s-3.1,1.4-5.1,1.4c-1.2,0-2.4-0.2-3.5-0.6s-2-0.9-2.7-1.6
		l2.3-3.3c1.1,1.1,2.5,1.7,4.2,1.7c1.1,0,2-0.3,2.8-0.8c0.8-0.6,1.6-1.5,2.5-2.8l1.3-2l-6-24.5h4.5l4.7,19.7l12.4-19.7L240.3,34.4
		L240.3,34.4z"/>
</g>
<path class="st2" d="M0,9.3c0.4,1.2,3.4,11,9.8,15.4c7.6,5.2,15.2,6,15.2,6c1.8,0.2,4.8,0.3,7.1,2.4c0.4,0.4,2.2,1.9,1.9,3.7
	c-0.3,1.7-2.3,2.6-3,2.9c-5.5,2.5-13.3-1.8-14.5-2.5c-1.9-1.1-8.3-4.8-12.6-13.6C2,19.8,1.3,16.1,0.8,12.8"/>
<path class="st0" d="M4.8,0C5,1.3,5.7,12.3,11.5,18.6c6.8,7.4,14.6,10,14.6,10c1.8,0.6,5,1.5,6.9,4.2c0.3,0.5,1.8,2.6,1.1,4.4
	c-0.7,1.7-3,2.2-3.9,2.4c-6.4,1.3-13.6-5.1-14.7-6.1c-1.8-1.6-7.6-7.1-10.1-17.4c-1.1-4.5-1-8.5-0.7-12.2"/>
<path class="st2" d="M64.1,6.6c-8.6-5-14.7-4.1-14.8-4.1c-0.5,0-6.9,0.7-9,7.9c-1.4,4.9-0.6,6.9-1.9,15.8c-1.3,8.8-4.8,14-5.5,15
	c-2.2,3.1-4.7,4.2-4.6,4.2c0.1,0.1,6.1-3.3,10.1-9.7c2.1-3.4,4.5-11.1,5.2-17.5c0.3-3,0.8-4.9,1.4-6.2c1.5-3.4,3.4-4.3,3.7-4.5
	c2.1-1.4,7.7-1.2,9.6-1c3.9,0.3,7.2,1.7,7.7,1.8C68.1,9.1,65,7.2,64.1,6.6z"/>
<path class="st2" d="M40.3,42.8c0.1,0.1,6-5.6,7.7-11.4c1.3-4.6,0-5.8,1.5-8.8c2.8-5.8,11.6-8.6,11.6-8.6s-7,1.4-10.6,4.3
	c-3.5,2.8-3.7,5.6-3.9,6.9c-0.3,2.5,0.3,2.7,0.2,5.2C46.4,36.4,40.2,42.7,40.3,42.8z"/>
</svg>
