<svg id="Layer_1" data-name="Layer 1" xmlns="http://www.w3.org/2000/svg" xmlns:xlink="http://www.w3.org/1999/xlink" viewBox="0 0 316.06 96.76"><defs><style>.cls-1{fill:none;}.cls-2{clip-path:url(#clip-path);}.cls-3{fill:#ff7900;}.cls-4{fill:#f6eb00;}.cls-5{fill:#ffab00;}</style><clipPath id="clip-path" transform="translate(0 0)"><rect class="cls-1" width="316.06" height="96.76"/></clipPath></defs><g class="cls-2"><path d="M83.36,89.94c0,1.42-.65,2.08-2,2.08h-1a1.81,1.81,0,0,1-2.07-2.08V67.62a1.8,1.8,0,0,1,2.07-2.07h.91c1.37,0,2,.65,2,2.07v6.92h5.31V67.31c0-4.39-2.13-6.51-6.52-6.51H79.42c-4.39,0-6.56,2.17-6.56,6.56V90.2c0,4.39,2.17,6.56,6.56,6.56H82.1c4.39,0,6.57-2.17,6.57-6.56V82H83.36Z" transform="translate(0 0)"/><polygon points="116 80.9 122.36 80.9 122.36 76 116 76 116 66 122.61 66 122.61 61.1 110.59 61.1 110.59 96.46 122.71 96.46 122.71 91.56 116 91.56 116 80.9"/><path d="M132,61.05l-5,35.41h5l.66-5.56h5.6l.71,5.56h5.35l-5.1-35.41Zm1.21,25,2.23-17.68,2.17,17.68Z" transform="translate(0 0)"/><path d="M161.41,79.79c2-.81,3.08-2.32,3.08-5.46V67.67c0-4.4-2.17-6.57-6.57-6.57H149V96.46h5.41V82.27h2.42c1.57,0,2.28.7,2.28,2.27V96.46h5.4v-12c0-2.68-.91-4-3.13-4.65m-2.32-4.39c0,1.46-.71,2.17-2.23,2.17h-2.42V65.9h2.63a1.77,1.77,0,0,1,2,2Z" transform="translate(0 0)"/><path d="M173.84,89.49a1.81,1.81,0,0,1-2.07,2.07h-2.38v4.9h3.29c4.39,0,6.56-2.17,6.56-6.57V61.1h-5.4Z" transform="translate(0 0)"/><path d="M195.31,89.94c0,1.42-.66,2.08-2,2.08h-.86a1.81,1.81,0,0,1-2.07-2.08V61.1H185V90.2c0,4.39,2.17,6.56,6.57,6.56h2.63c4.39,0,6.56-2.17,6.56-6.56V61.1h-5.4Z" transform="translate(0 0)"/><path d="M238.21,89.94c0,1.42-.65,2.08-2,2.08h-1a1.81,1.81,0,0,1-2.07-2.08V67.62a1.8,1.8,0,0,1,2.07-2.07h.91c1.37,0,2,.65,2,2.07v6.92h5.31V67.31c0-4.39-2.12-6.51-6.52-6.51h-2.63c-4.39,0-6.56,2.17-6.56,6.56V90.2c0,4.39,2.17,6.56,6.56,6.56H237c4.4,0,6.57-2.17,6.57-6.56V82h-5.31Z" transform="translate(0 0)"/><polygon points="247.56 66 252.41 66 252.41 96.46 257.81 96.46 257.81 66 262.67 66 262.67 61.1 247.56 61.1 247.56 66"/><rect x="267.36" y="61.1" width="5.4" height="35.36"/><path d="M287.92,60.8H285c-4.39,0-6.56,2.17-6.56,6.56V90.2c0,4.39,2.17,6.56,6.56,6.56h2.88c4.4,0,6.57-2.17,6.57-6.56V67.36c0-4.39-2.17-6.56-6.57-6.56m1.16,29.14c0,1.42-.65,2.08-2,2.08H286a1.81,1.81,0,0,1-2.07-2.08V67.62A1.8,1.8,0,0,1,286,65.55h1.11c1.37,0,2,.65,2,2.07Z" transform="translate(0 0)"/><polygon points="99.63 65.99 94.22 61.28 94.22 96.46 105.59 96.46 105.59 91.56 99.63 91.56 99.63 65.99"/><polygon points="217.31 61.08 222.16 61.08 222.16 96.43 216.3 96.43 210.8 72.59 210.85 96.43 206 96.43 206 61.08 212.31 61.08 217.36 83.05 217.31 61.08"/><polygon points="311.21 61.08 316.06 61.08 316.06 96.43 310.2 96.43 304.69 72.59 304.74 96.43 299.89 96.43 299.89 61.08 306.21 61.08 311.26 83.05 311.21 61.08"/><polygon class="cls-3" points="46.22 51.65 39.06 51.65 46.21 75.84 55.84 84.25 46.22 51.65"/><polygon class="cls-3" points="37.05 44.83 44.21 44.84 37.06 20.64 27.43 12.24 37.05 44.83"/><polygon class="cls-4" points="0 44.83 7.85 51.64 83.26 51.65 75.42 44.84 0 44.83"/><polygon class="cls-5" points="64.78 44.84 75.42 44.84 23.81 0 27.43 12.23 64.78 44.84"/><polygon class="cls-5" points="18.49 51.64 7.85 51.64 59.46 96.48 55.84 84.25 18.49 51.64"/></g></svg>