<?xml version="1.0" encoding="UTF-8"?>
<svg enable-background="new 0 0 24 13.959" version="1.1" viewBox="0 0 24 13.959" xml:space="preserve" xmlns="http://www.w3.org/2000/svg">
<style type="text/css">
	.st0{fill:#FFB819;}
	.st1{fill:#231F20;}
	.st2{fill:#FFFFFF;}
	.st3{fill:#C11524;}
	.st4{fill-rule:evenodd;clip-rule:evenodd;fill:#006BB1;}
	.st5{fill-rule:evenodd;clip-rule:evenodd;fill:#F37121;}
	.st6{fill:#003887;}
	.st7{fill:#009DDF;}
	.st8{fill:url(#SVGID_1_);}
	.st9{fill:url(#SVGID_2_);}
	.st10{fill:url(#SVGID_3_);}
	.st11{fill:url(#SVGID_4_);}
	.st12{fill:url(#SVGID_5_);}
	.st13{fill:url(#SVGID_6_);}
	.st14{fill:#009BDE;}
	.st15{fill:#022169;}
	.st16{fill:#002F87;}
	.st17{fill:#F5921B;}
	.st18{fill:#0071BB;}
	.st19{fill:#2C9940;}
	.st20{fill:#226DBB;}
	.st21{fill:#D81928;}
	.st22{fill:#FF7404;}
	.st23{fill-rule:evenodd;clip-rule:evenodd;fill:#5269AF;}
	.st24{fill-rule:evenodd;clip-rule:evenodd;fill:#F9913C;}
	.st25{fill:#F14A43;}
	.st26{fill:#F46E40;}
	.st27{fill:#FA983C;}
	.st28{fill-rule:evenodd;clip-rule:evenodd;fill:#1A5EAB;}
	.st29{fill-rule:evenodd;clip-rule:evenodd;fill:#F8883E;}
	.st30{fill:#80726C;}
	.st31{fill:#FCFCFC;}
	.st32{fill:#CF4D16;}
	.st33{fill:#DF6210;}
	.st34{fill:#F14942;}
	.st35{fill-rule:evenodd;clip-rule:evenodd;fill:none;stroke:#FFFFFF;stroke-width:0.0623;}
	.st36{fill:#EB8341;}
	.st37{fill:#35A15B;}
	.st38{fill:#6B787F;}
	.st39{fill:url(#SVGID_7_);}
	.st40{fill:url(#SVGID_8_);}
	.st41{fill:#A40B34;}
	.st42{fill:#7C0023;}
	.st43{fill:url(#SVGID_9_);}
	.st44{fill:#6D8DA6;}
	.st45{fill:#242021;}
	.st46{fill:#231300;}
	.st47{fill:#5EBB57;}
	.st48{fill:#B04A4A;}
	.st49{fill:#E05145;}
	.st50{fill:#CF0A2C;}
	.st51{fill:#002856;}
	.st52{fill:#007078;}
</style>

	<path d="m19.424 4.722c-0.718-0.719-1.935-0.676-2.705 0.092l-2.794 2.793v-5.63c1e-3 -1.087-0.829-1.977-1.847-1.977-0.434 0-0.829 0.169-1.145 0.44-0.112 0.075-0.218 0.16-0.316 0.259l-6.92 6.922v-5.643c0-1.088-0.833-1.978-1.849-1.978-1.018 0-1.848 0.89-1.848 1.978v9.89c0 0.413 0.121 0.797 0.327 1.116 0.071 0.127 0.156 0.247 0.263 0.355 0.227 0.225 0.504 0.367 0.798 0.445l7e-3 2e-3c0.642 0.164 1.376-0.013 1.899-0.539l6.937-6.934v5.555c0 0.295 0.064 0.573 0.173 0.824 0.086 0.237 0.221 0.46 0.407 0.646 0.717 0.719 1.936 0.677 2.705-0.092l5.819-5.819c0.768-0.767 0.809-1.984 0.089-2.705z"/>
	<path class="st48" d="m23.998 1.979c0.023-0.498-0.145-0.993-0.51-1.359-0.381-0.382-0.903-0.547-1.424-0.505-0.222 0.011-0.434 0.066-0.628 0.154-0.238 0.101-0.46 0.249-0.654 0.443l-3.733 3.735c-0.771 0.771-0.813 1.987-0.096 2.706 0.72 0.719 1.936 0.677 2.706-0.092l0.646-0.646v5.565c0 1.088 0.833 1.978 1.847 1.978 1.016 0 1.845-0.89 1.845-1.978v-9.888c1e-3 -0.038 1e-3 -0.076 1e-3 -0.113z"/>

</svg>
