<?xml version="1.0" encoding="UTF-8"?>
<svg class="icon" width="439.59" height="447.83" version="1.1" viewBox="0 0 439.5929 895.66431" xmlns="http://www.w3.org/2000/svg" xmlns:cc="http://creativecommons.org/ns#" xmlns:dc="http://purl.org/dc/elements/1.1/" xmlns:rdf="http://www.w3.org/1999/02/22-rdf-syntax-ns#">
<metadata>
<rdf:RDF>
<cc:Work rdf:about="">
<dc:format>image/svg+xml</dc:format>
<dc:type rdf:resource="http://purl.org/dc/dcmitype/StillImage"/>
<dc:title/>
</cc:Work>
</rdf:RDF>
</metadata>
<path d="m658.2 745.4 0.13-638.88c-6.85-128.05-137.75-104.89-137.75-104.89l-616.38 2.59c-128.13-2.75-122.68 139.08-122.68 139.08l-1.32 615.72c1.32 149.85 141.77 134.86 141.77 134.86l613.6 1.78c144.54-1.36 122.63-150.26 122.63-150.26zm-156.72-34.06s-324.53-224.77-560.43 30c0 0 250.19-296.72 1.36-583 0 0 302.71 262.91 560.43-5.44 0.01-0.06-248.16 290.09-1.36 558.44z" fill="#0081cc"/>
</svg>
