<svg xmlns="http://www.w3.org/2000/svg" width="290.48" height="120.17"><path d="M0 37.77h28.63a146.16 146.16 0 0 0 53.79 53.78v28.62A132.12 132.12 0 0 1 .01 37.76" fill="#00afaa"/><path d="M82.42 37.77v53.8a146.16 146.16 0 0 1-53.78-53.79z" fill="#00539b"/><path d="M82.42 37.77h-53.8A144.32 144.32 0 0 1 13.51 0h31.13a37.77 37.77 0 0 1 37.78 37.77" fill="#00afaa"/><path d="M120.2 75.54v31.1a144.05 144.05 0 0 1-37.77-15.1V37.77a37.78 37.78 0 0 1 37.77 37.78" fill="#f39a00"/><path d="M82.1 0a50.08 50.08 0 0 0 38.07 38.07V0z" fill="#00afaa"/><path d="M229.53 85.1l-15.9-22.2v22.2h-11.92V37.6h11.9v20.76L227.7 37.6h13l-15.3 21.48 18.05 26h-13.9zm37.9-8.3c7.76 0 10.65-6.32 10.65-15.34 0-8.12-2.35-14.8-10.3-14.8-4.33 0-7.6 1.08-9.93 3.07-.54 3.07-.37 7.94-.37 11 0 9.75 3.07 16.07 9.93 16.07m-10.83-34.84a23 23 0 0 1 13.9-5.05c13.54 0 20 9.57 20 23.3 0 17.33-9.75 26.18-23.83 26.18-13.9 0-21.5-8.85-21.5-29.25 0-17 3.84-28.66 9.75-34.12 6.74-6.23 8.85-6.14 16.8-8.13 4.88-1.26 9.57-2 11.37-2.7l4.33 9.75c-2.35 1.45-6.68 2.35-15.34 4.15-9.93 2-14.45 5.4-15.53 15.9m-73.66 4.7V85.1H171.2V46.64h-12.46v-9h36.67v9h-12.47z" fill="#00539b"/></svg>