<?xml version="1.0" encoding="UTF-8"?> <svg xmlns="http://www.w3.org/2000/svg" width="136" height="34" viewBox="0 0 136 34" fill="none"> <path d="M31.5473 17.6096H19.9264C18.6431 17.6096 17.6094 18.6434 17.6094 19.9267V31.5476C17.6094 32.8308 18.6431 33.8646 19.9264 33.8646H31.5473C32.8306 33.8646 33.8644 32.8308 33.8644 31.5476V19.9267C33.8644 18.6434 32.8306 17.6096 31.5473 17.6096ZM22.0652 20.2118C23.099 20.2118 23.9189 21.0317 23.9189 22.0655C23.9189 23.0992 23.099 23.9191 22.0652 23.9191C21.0315 23.9191 20.2116 23.0992 20.2116 22.0655C20.2116 21.0317 21.0315 20.2118 22.0652 20.2118ZM22.0652 31.2624C21.0315 31.2624 20.2116 30.4425 20.2116 29.4087C20.2116 28.375 21.0315 27.5551 22.0652 27.5551C23.099 27.5551 23.9189 28.375 23.9189 29.4087C23.8832 30.4425 23.0633 31.2624 22.0652 31.2624ZM25.7369 27.5907C24.7031 27.5907 23.8832 26.7709 23.8832 25.7371C23.8832 24.7033 24.7031 23.8835 25.7369 23.8835C26.7706 23.8835 27.5905 24.7033 27.5905 25.7371C27.5905 26.7709 26.7706 27.5907 25.7369 27.5907ZM29.4441 31.2624C28.4104 31.2624 27.5905 30.4425 27.5905 29.4087C27.5905 28.375 28.4104 27.5551 29.4441 27.5551C30.4779 27.5551 31.2978 28.375 31.2978 29.4087C31.2621 30.4425 30.4423 31.2624 29.4441 31.2624ZM29.4441 23.8835C28.4104 23.8835 27.5905 23.0636 27.5905 22.0298C27.5905 20.9961 28.4104 20.1762 29.4441 20.1762C30.4779 20.1762 31.2978 20.9961 31.2978 22.0298C31.2621 23.0636 30.4423 23.8835 29.4441 23.8835Z" fill="white"></path> <path d="M13.9379 0H2.31705C1.03376 0 0 1.03376 0 2.31705V13.9379C0 15.2212 1.03376 16.255 2.31705 16.255H13.9379C15.2212 16.255 16.255 15.2212 16.255 13.9379V2.31705C16.255 1.03376 15.2212 0 13.9379 0ZM5.52527 7.55714C4.42021 7.55714 3.52904 6.66597 3.52904 5.56091C3.52904 4.45586 4.42021 3.56469 5.52527 3.56469C6.63032 3.56469 7.52149 4.45586 7.52149 5.56091C7.52149 6.66597 6.63032 7.55714 5.52527 7.55714ZM10.7297 12.7259C9.62466 12.7259 8.73349 11.8348 8.73349 10.7297C8.73349 9.62466 9.62466 8.73349 10.7297 8.73349C11.8348 8.73349 12.7259 9.62466 12.7259 10.7297C12.7259 11.8348 11.8348 12.7259 10.7297 12.7259Z" fill="white"></path> <path d="M6.06039 21.7803C6.06039 21.1743 5.56133 20.7109 4.99098 20.7109H2.17488C1.56888 20.7109 1.10547 21.21 1.10547 21.7803C1.10547 22.3863 1.60453 22.8498 2.17488 22.8498H4.95533C5.56133 22.8854 6.06039 22.3863 6.06039 21.7803Z" fill="white"></path> <path d="M6.30874 26.0579L4.34817 28.0185C3.9204 28.4462 3.9204 29.1235 4.34817 29.5513C4.56205 29.7652 4.84722 29.8721 5.09675 29.8721C5.34628 29.8721 5.6671 29.7652 5.84533 29.5513L7.80591 27.5907C8.23368 27.1629 8.23368 26.4856 7.80591 26.0579C7.4138 25.6301 6.70086 25.6301 6.30874 26.0579Z" fill="white"></path> <path d="M12.085 27.8047C11.479 27.8047 11.0156 28.3037 11.0156 28.8741V31.6546C11.0156 32.2605 11.5147 32.724 12.085 32.724C12.691 32.724 13.1544 32.2249 13.1544 31.6546V28.8741C13.1544 28.3037 12.6554 27.8047 12.085 27.8047Z" fill="white"></path> <path d="M27.8047 12.0844C27.8047 12.6904 28.3037 13.1538 28.8741 13.1538H31.6546C32.2605 13.1538 32.724 12.6547 32.724 12.0844C32.724 11.4784 32.2249 11.015 31.6546 11.015H28.8741C28.3037 10.9793 27.8047 11.4784 27.8047 12.0844Z" fill="white"></path> <path d="M26.8062 8.12747C27.0914 8.12747 27.3766 8.02053 27.5548 7.80665L29.5154 5.84607C29.9432 5.41831 29.9432 4.74102 29.5154 4.31325C29.0876 3.88549 28.4103 3.88549 27.9826 4.31325L26.022 6.27383C25.5942 6.7016 25.5942 7.37889 26.022 7.80665C26.2359 8.02053 26.521 8.12747 26.8062 8.12747Z" fill="white"></path> <path d="M21.7803 6.0599C22.3863 6.0599 22.8498 5.56084 22.8498 4.99049V2.17439C22.8498 1.56839 22.3507 1.10498 21.7803 1.10498C21.1743 1.10498 20.7109 1.60404 20.7109 2.17439V4.95484C20.7109 5.56084 21.21 6.0599 21.7803 6.0599Z" fill="white"></path> <path d="M51.1573 21.2805C50.872 21.6709 50.3802 22.02 49.682 22.3278C48.9838 22.6356 48.2218 22.7895 47.396 22.7895C46.1197 22.7895 45.0123 22.5042 44.0739 21.9336C43.1354 21.363 42.4184 20.586 41.9229 19.6025C41.4274 18.619 41.1797 17.5267 41.1797 16.3255C41.1797 15.1243 41.4274 14.0319 41.9229 13.0484C42.4184 12.0649 43.1354 11.2879 44.0739 10.7173C45.0123 10.1467 46.1197 9.86144 47.396 9.86144C48.2518 9.86144 49.0063 10.0078 49.6595 10.3006C50.3127 10.5934 50.8119 10.9651 51.1573 11.4155V10.1317H54.4906V22.5192H51.1573V21.2805ZM50.369 13.7917C49.7533 13.1385 48.9275 12.8119 47.8915 12.8119C46.8404 12.8119 46.0108 13.1385 45.4027 13.7917C44.7946 14.4448 44.4905 15.2894 44.4905 16.3255C44.4905 17.3315 44.8021 18.1648 45.4252 18.8255C46.0484 19.4862 46.8704 19.8165 47.8915 19.8165C48.9425 19.8165 49.7721 19.5049 50.3802 18.8818C50.9883 18.2587 51.2924 17.4066 51.2924 16.3255C51.2924 15.2894 50.9846 14.4448 50.369 13.7917ZM68.1957 11.2804C68.969 12.1963 69.3556 13.5026 69.3556 15.1993V22.5192H65.9097V15.1993C65.9097 13.5326 65.1138 12.6993 63.5222 12.6993C62.9066 12.6993 62.3511 12.9433 61.8556 13.4313C61.3601 13.9193 61.1273 14.7639 61.1574 15.9651V22.5192H57.8015V10.1317H61.1574V11.2353C61.5628 10.8299 62.0733 10.5071 62.6889 10.2668C63.3045 10.0266 63.8976 9.90648 64.4682 9.90648C66.1799 9.90648 67.4224 10.3644 68.1957 11.2804ZM76.8107 18.1048C76.8107 18.6303 76.9007 19.0695 77.0809 19.4223C77.2611 19.7752 77.6815 19.9516 78.3422 19.9516C78.6425 19.9516 78.9278 19.9366 79.1981 19.9066V22.7444C78.6575 22.8045 78.1545 22.8345 77.689 22.8345C76.7281 22.8345 75.951 22.7557 75.3579 22.598C74.7648 22.4404 74.3031 22.1363 73.9728 21.6859C73.6425 21.2354 73.4773 20.5898 73.4773 19.7489V12.8795H71.9683V9.92901H73.4773V6.61816H76.8107V9.92901H79.2882V12.8795H76.8107V18.1048ZM87.7792 13.3637C87.1336 13.5214 86.5405 13.893 85.9999 14.4786C85.4594 15.0642 85.1891 15.9201 85.1891 17.0462V22.5192H81.8332V10.1317H85.1891V11.7759C85.7447 11.0401 86.4241 10.5409 87.2274 10.2781C88.0307 10.0153 88.7627 9.89147 89.4234 9.90648V13.1948C88.9729 13.1498 88.4249 13.2061 87.7792 13.3637ZM94.7613 11.3705C95.0466 10.9801 95.5383 10.631 96.2365 10.3232C96.9347 10.0153 97.6967 9.86144 98.5226 9.86144C99.7989 9.86144 100.906 10.1467 101.845 10.7173C102.783 11.2879 103.5 12.0649 103.996 13.0484C104.491 14.0319 104.739 15.1243 104.739 16.3255C104.739 17.5267 104.491 18.619 103.996 19.6025C103.5 20.586 102.783 21.363 101.845 21.9336C100.906 22.5042 99.7989 22.7895 98.5226 22.7895C97.6667 22.7895 96.9122 22.6431 96.259 22.3503C95.6059 22.0575 95.1066 21.6859 94.7613 21.2354V26.5057H91.4279V10.1317H94.7613V11.3705ZM95.5496 18.8593C96.1652 19.5124 96.991 19.839 98.0271 19.839C99.0781 19.839 99.9077 19.5124 100.516 18.8593C101.124 18.2061 101.428 17.3615 101.428 16.3255C101.428 15.3194 101.116 14.4861 100.493 13.8254C99.8702 13.1648 99.0481 12.8344 98.0271 12.8344C96.976 12.8344 96.1464 13.146 95.5383 13.7691C94.9302 14.3923 94.6261 15.2444 94.6261 16.3255C94.6261 17.3615 94.9339 18.2061 95.5496 18.8593ZM116.879 21.2805C116.593 21.6709 116.102 22.02 115.403 22.3278C114.705 22.6356 113.943 22.7895 113.117 22.7895C111.841 22.7895 110.734 22.5042 109.795 21.9336C108.857 21.363 108.14 20.586 107.644 19.6025C107.149 18.619 106.901 17.5267 106.901 16.3255C106.901 15.1243 107.149 14.0319 107.644 13.0484C108.14 12.0649 108.857 11.2879 109.795 10.7173C110.734 10.1467 111.841 9.86144 113.117 9.86144C113.973 9.86144 114.728 10.0078 115.381 10.3006C116.034 10.5934 116.533 10.9651 116.879 11.4155V10.1317H120.212V22.5192H116.879V21.2805ZM116.09 13.7917C115.475 13.1385 114.649 12.8119 113.613 12.8119C112.562 12.8119 111.732 13.1385 111.124 13.7917C110.516 14.4448 110.212 15.2894 110.212 16.3255C110.212 17.3315 110.523 18.1648 111.147 18.8255C111.77 19.4862 112.592 19.8165 113.613 19.8165C114.664 19.8165 115.493 19.5049 116.102 18.8818C116.71 18.2587 117.014 17.4066 117.014 16.3255C117.014 15.2894 116.706 14.4448 116.09 13.7917ZM125.37 27.1589L127.509 22.0688L122.194 10.1768H126.09L129.221 18.0597L132.104 10.1768H136L129.086 27.1589H125.37Z" fill="white"></path> </svg> 