<svg xmlns="http://www.w3.org/2000/svg" xmlns:xlink="http://www.w3.org/1999/xlink" width="39" height="46" viewBox="0 0 38.077 45.669"><style><![CDATA[.B{fill-rule:evenodd}]]></style><g transform="translate(-1.117 -7.296)"><g opacity=".1"><g fill="#002148" stroke="#002148" stroke-linejoin="round" stroke-miterlimit="10" stroke-width=".142"><use xlink:href="#M"/><use xlink:href="#N"/></g><g fill="none" stroke="#002953"><g opacity=".2" stroke-width=".747"><use xlink:href="#M"/><use xlink:href="#N"/></g><g opacity=".5" stroke-width=".463"><use xlink:href="#M"/><use xlink:href="#N"/></g></g></g><radialGradient id="A" cx="17.677" cy="33.651" r="24.79" fx="15.892" fy="33.136" gradientTransform="matrix(-0.8073,-0.5902,0.4799,-0.6564,15.7988,66.1722)" gradientUnits="userSpaceOnUse"><stop offset="0" stop-color="#00b3e6"/><stop offset=".307" stop-color="#009ad7"/><stop offset=".597" stop-color="#0085ca"/><stop offset="1" stop-color="#004685"/></radialGradient><path d="M31.38 34.686c-.13-.486-.403-.874-.843-1.12-.132-.078-.155-.168-.16-.302l-.105-1.63c-.092-.66-.394-1.246-.813-1.76-.737-.9-1.717-1.453-2.757-1.925-1.438-.657-2.94-1.124-4.426-1.646l-5.3-2.104c-1.775-.84-3.463-1.82-5.016-3.02l-2.155-1.8-2.102-2.15c-1.24-1.415-2.323-2.948-3.26-4.578l-1.76-3.39c-.297-.597-.537-1.226-.803-1.84h-.05l-.144 1.35-.003.074-.043 1.643c.06 1.24.176 2.47.475 3.68a20.46 20.46 0 0 0 1.173 3.446c.744 1.658 1.7 3.2 2.818 4.618L7.7 24.14l2.114 2.16 2.38 2.042 1.213.968c.026.02.046.052.04.117l-1.504-1-2.973-2.172c-1.103-.855-2.106-1.83-3.053-2.854-.997-1.08-1.854-2.27-2.593-3.542-.7-1.184-1.236-2.43-1.727-3.724l-.077.505-.056.818c-.001.026-.047 1.793.056 2.62.107.87.285 1.727.5 2.574.307 1.28.833 2.486 1.486 3.62.492.854 1.042 1.687 1.656 2.46.617.778 1.332 1.48 2.024 2.2.302.312.662.57 1.008.86-.373-.003-1.917-1.08-2.47-1.556-.754-.652-1.448-1.365-2.036-2.167L1.98 25.622l.052.55c.257 1.62.6 3.227 1.074 4.798a35.39 35.39 0 0 0 1.622 4.253C5.54 37 6.534 38.7 7.65 40.3c.506.725 1.055 1.425 1.633 2.095l2.38 2.572c.75.728 1.575 1.374 2.377 2.046 1.05.882 2.186 1.645 3.384 2.308l3.293 1.638c.086.043.165.098.247.148h.15l-.787-.7-1.065-1.075-1.332-1.73c-.698-1.06-1.23-2.2-1.524-3.437l-.45-2.23c-.015-.078-.002-.16-.002-.282 1.094 1.448 2.426 2.442 4.27 2.728-1.095-1.815-1.326-3.7-.603-5.632.496-1.326 1.362-2.392 2.6-3.13 1.532-.92 3.176-1.184 4.902-.72 1.718.462 3.02 1.496 3.963 3.047l.306-1.362.102-.5v-1l-.1-.394zm-4.957-3.142c-.228-.933-1.008-1.454-1.656-2.102 1.1-.015 3.046 1.38 3.56 2.543-.613-.328-1.182-.667-1.904-.44z" fill="url(#A)" class="B"/><linearGradient id="B" gradientUnits="userSpaceOnUse" x1="26.692" y1="17.726" x2="17.403" y2="49.278"><stop offset="0" stop-color="#e2e8eb"/><stop offset="1" stop-color="#95a0a9"/></linearGradient><path d="M23.646 52.213s-1.96-2.66-1.818-2.78c1.337-1.1 8.114-6.797 10.64-12.158 2.245-4.765 2.844-11.674 2.994-14.293-2.1-.93-7.455-3.02-13.245-3.02-3.422 0-5.954.413-7.562.796l-.46.116s-.913-.64-1.632-1.233-1.3-1.263-1.3-1.263c1.04-.4 4.894-1.72 10.954-1.72 8.25 0 15.408 3.676 15.7 3.83l.912.472-.02 1.028c-.01.4-.25 10.1-3.357 16.697-2.868 6.08-10.108 12.146-11.566 13.33l-.25.197z" fill="url(#B)"/><linearGradient id="C" gradientUnits="userSpaceOnUse" x1="13.927" y1="14.77" x2="38.718" y2="26.846"><stop offset="0" stop-color="#d4d8dc"/><stop offset=".516" stop-color="#e2e8eb"/><stop offset="1" stop-color="#95a0a9"/></linearGradient><path d="M35.46 22.98c-2.1-.93-7.455-3.02-13.245-3.02-3.422 0-5.954.413-7.562.796l-.46.116s-.913-.64-1.632-1.233-1.3-1.263-1.3-1.263c1.04-.4 4.894-1.72 10.954-1.72 8.25 0 15.408 3.676 15.7 3.83l.912.472z" fill="url(#C)"/><radialGradient id="D" cx="24.624" cy="27.248" r="28.635" fx="22.563" fy="26.652" gradientTransform="matrix(-0.8073,-0.5902,0.4799,-0.6564,31.4274,59.665)" gradientUnits="userSpaceOnUse"><stop offset="0" stop-color="#00a1e0"/><stop offset="1" stop-color="#004685"/></radialGradient><path d="M2.753 10.372c1.362 3.257 3.757 6.185 5.166 7.9 2.6 3.145 7.105 6.132 12.408 7.88 5.446 1.796 7.982 2.95 8.985 4.5.613.943.5 3.317.5 3.317s.566.187 1.092 1.506.182 2.475.182 2.475l.306-1.362c.037-.164.067-.327.102-.5v-1l-.103-.393c-.13-.486-.403-.874-.843-1.12-.132-.078-.155-.168-.16-.302-.027-.545-.033-1.093-.105-1.63-.092-.66-.394-1.246-.813-1.76-.737-.9-1.717-1.453-2.757-1.925-1.438-.657-2.94-1.124-4.426-1.646-1.796-.63-3.577-1.3-5.3-2.104-1.775-.84-3.463-1.82-5.016-3.02a31.59 31.59 0 0 1-2.155-1.8c-.733-.683-1.442-1.398-2.102-2.15-1.24-1.415-2.323-2.948-3.26-4.578-.644-1.108-1.196-2.25-1.764-3.4-.296-.597-.836-1.84-.852-1.84" fill="url(#D)" class="B"/><radialGradient id="E" cx="8.008" cy="24.117" r="8.474" fx="7.398" fy="23.941" gradientTransform="matrix(-0.8073,-0.5902,0.4799,-0.6564,2.8994,44.6735)" gradientUnits="userSpaceOnUse"><stop offset="0" stop-color="#0093d6"/><stop offset=".5" stop-color="#0085ca"/><stop offset="1" stop-color="#004685"/></radialGradient><path d="M6.538 24.578c3.026 3.28 6.92 4.847 6.92 4.847l-1.504-1-2.973-2.172c-1.103-.855-2.106-1.83-3.053-2.854-.997-1.08-1.854-2.27-2.593-3.542-.7-1.184-1.236-2.43-1.727-3.724-.026.17.618 3.764 4.93 8.435z" fill="url(#E)" class="B"/><radialGradient id="F" cx="5.337" cy="29.325" r="4.204" fx="5.035" fy="29.237" gradientTransform="matrix(-0.8073,-0.5902,0.4799,-0.6564,-4.4257,51.7233)" gradientUnits="userSpaceOnUse"><stop offset="0" stop-color="#0093d6"/><stop offset=".5" stop-color="#0085ca"/><stop offset="1" stop-color="#004685"/></radialGradient><path d="M8.195 31.788c-.373-.003-1.917-1.08-2.47-1.556-.754-.652-1.448-1.365-2.036-2.167l-1.71-2.443s1.224 2.78 3.024 4.38c2.243 1.894 3.2 1.786 3.2 1.786z" fill="url(#F)" class="B"/><radialGradient id="G" cx="18.538" cy="39" r="12.091" fx="17.668" fy="38.748" gradientTransform="matrix(-0.8073,-0.5902,0.4799,-0.6564,14.7889,75.54)" gradientUnits="userSpaceOnUse"><stop offset="0" stop-color="#0093d6"/><stop offset=".5" stop-color="#0085ca"/><stop offset="1" stop-color="#004685"/></radialGradient><path d="M20.225 44.366c-1.095-1.815-1.326-3.7-.603-5.632.496-1.326 1.362-2.392 2.6-3.13 1.532-.92 3.176-1.184 4.902-.72 1.718.462 3.02 1.496 3.963 3.047 0 0-1.033-1.87-1.913-2.397-.694-.415-2.128-1.448-4.708-1.15-1.734.2-3.7 1.262-4.727 3.186-1.073 2.017-.93 4.02-.6 4.847.404 1.044 1.107 1.95 1.107 1.95z" fill="url(#G)" class="B"/><radialGradient id="H" cx="18.737" cy="47.323" r="4.977" fx="18.379" fy="47.22" gradientTransform="matrix(-0.8073,-0.5902,0.4799,-0.6564,11.1549,89.4441)" gradientUnits="userSpaceOnUse"><stop offset="0" stop-color="#0093d6"/><stop offset=".5" stop-color="#0085ca"/><stop offset="1" stop-color="#004685"/></radialGradient><path d="M20.965 51.105h.15l-.787-.7-1.065-1.075-1.332-1.73c-.698-1.06-1.23-2.2-1.524-3.437l-.45-2.23c-.015-.078-.002-.16-.002-.282 0 0-.183 2.747.985 4.932s4.024 4.534 4.024 4.534z" fill="url(#H)" class="B"/><radialGradient id="I" cx="13.821" cy="30.325" r="19.969" fx="2.72" fy="23.518" gradientTransform="matrix(-0.3984,-0.9172,0.4483,-0.1947,5.734,48.9064)" gradientUnits="userSpaceOnUse"><stop offset="0" stop-color="#0093d6" stop-opacity="0"/><stop offset=".5" stop-color="#0085ca" stop-opacity="0"/><stop offset="1" stop-color="#004685"/></radialGradient><path d="M7.187 30.93c.302.312.662.57 1.008.86-.373-.003-1.917-1.08-2.47-1.556-.754-.652-1.448-1.365-2.036-2.167l-1.71-2.445.052.55c.257 1.62.6 3.227 1.074 4.798a35.39 35.39 0 0 0 1.622 4.253C5.542 37 6.536 38.7 7.65 40.3c.506.725 1.055 1.425 1.633 2.095l2.38 2.572c.75.728 1.575 1.374 2.377 2.046 1.05.882 2.186 1.645 3.384 2.308l3.293 1.638c.086.043.165.098.247.148h.15l-.787-.7-1.065-1.075-1.332-1.73c-.698-1.06-1.23-2.2-1.524-3.437l-.45-2.23c-.015-.078-.002-.16-.002-.282 1.094 1.448 2.426 2.442 4.27 2.728-1.095-1.815-1.326-3.7-.603-5.632" opacity=".6" fill="url(#I)" class="B"/><radialGradient id="J" cx="26.69" cy="30.97" r="3.286" fx="26.454" fy="30.901" gradientTransform="matrix(-0.8073,-0.5902,0.4799,-0.6564,33.3759,67.0499)" gradientUnits="userSpaceOnUse"><stop offset="0" stop-color="#0093d6"/><stop offset="1" stop-color="#004685"/></radialGradient><path d="M26.424 31.544c-.228-.933-1.008-1.454-1.656-2.102.212.327 1.43 1.4 1.44 2.32 1.03-.202 1.654.144 2.12.223-.612-.33-1.18-.668-1.903-.442z" fill="url(#J)" class="B"/><linearGradient id="K" gradientUnits="userSpaceOnUse" x1="26.692" y1="17.726" x2="17.403" y2="49.278"><stop offset="0" stop-color="#d4d8dc"/><stop offset=".516" stop-color="#e2e8eb"/><stop offset="1" stop-color="#95a0a9"/></linearGradient><path d="M37.927 20.5c-.302-.155-7.46-3.83-15.7-3.83-6.06 0-9.913 1.32-10.954 1.72 0 0 .023.028.066.076 1.516-.52 5.13-1.532 10.436-1.532 8.25 0 15.408 3.676 15.7 3.832l.9.472-.02 1.028c-.01.4-.25 10.092-3.357 16.697-2.775 5.884-9.646 11.755-11.408 13.2l.046.063c.03-.02.115-.094.247-.197 1.458-1.183 8.698-7.25 11.566-13.33 3.107-6.606 3.348-16.288 3.357-16.697l.02-1.028z" fill="url(#K)"/><linearGradient id="L" gradientUnits="userSpaceOnUse" x1="10.431" y1="12.554" x2="35.221" y2="24.63"><stop offset="0" stop-color="#6c808c"/><stop offset=".866" stop-color="#f5f0ed"/></linearGradient><path d="M37.927 20.5c-.302-.155-7.46-3.83-15.7-3.83-6.06 0-9.913 1.32-10.954 1.72 0 0 .023.028.066.076 1.516-.52 5.13-1.532 10.436-1.532 8.25 0 15.408 3.676 15.7 3.832l.9.472-2.93 1.753 3.382-2.017z" opacity=".5" fill="url(#L)"/></g><defs><path id="M" d="M19.263 49.57l-1.332-1.732c-.698-1.06-1.23-2.2-1.524-3.437l-.45-2.23c-.015-.08-.002-.158-.002-.284 1.094 1.45 2.426 2.442 4.27 2.728-1.095-1.813-1.326-3.7-.603-5.632a6 6 0 0 1 2.59-3.13c1.532-.918 3.176-1.184 4.902-.72 1.718.462 3.02 1.497 3.963 3.048 0 0 .023-.077.05-.217l.184-.82.072-.327.102-.5v-.998l-.103-.4c-.13-.5-.403-.876-.843-1.123-.132-.077-.155-.166-.16-.3l-.105-1.63c-.092-.66-.394-1.245-.813-1.758-.737-.903-1.717-1.455-2.757-1.928-1.438-.657-2.94-1.124-4.426-1.645l-5.3-2.104c-1.775-.84-3.463-1.82-5.016-3.02l-2.155-1.8-2.102-2.15a28.4 28.4 0 0 1-3.26-4.577L2.68 9.5l-.802-1.84h-.05l-.143 1.35-.003.073-.043 1.644c.06 1.24.176 2.47.475 3.68a20.47 20.47 0 0 0 1.173 3.447c.744 1.658 1.7 3.2 2.818 4.618l1.606 1.906 2.114 2.158 2.38 2.043 1.213.967c.026.023.046.053.04.118l-1.504-1L8.98 26.5c-1.103-.854-2.106-1.828-3.053-2.852a20.04 20.04 0 0 1-2.593-3.543c-.7-1.185-1.236-2.432-1.727-3.724l-.077.504-.056.818c-.001.026-.047 1.793.056 2.62.107.868.285 1.726.5 2.573.307 1.28.833 2.486 1.486 3.62.492.854 1.042 1.687 1.656 2.46s1.332 1.48 2.024 2.2c.302.313.662.57 1.008.86-.373-.004-1.917-1.082-2.47-1.557-.754-.653-1.448-1.363-2.036-2.167L1.98 25.87l.055.552c.257 1.62.6 3.226 1.074 4.798a35.44 35.44 0 0 0 1.622 4.252c.813 1.788 1.807 3.466 2.922 5.076.506.728 1.055 1.427 1.633 2.095l2.38 2.572c.75.73 1.575 1.373 2.377 2.044 1.05.884 2.186 1.646 3.384 2.3l3.293 1.638c.086.04.165.1.247.15h.15l-.787-.714-1.065-1.074zm9.065-17.335c-.613-.328-1.182-.667-1.904-.44-.228-.934-1.008-1.452-1.656-2.104 1.1-.015 3.046 1.38 3.56 2.544z"/><path id="N" d="M37.927 20.738c-.302-.155-7.46-3.83-15.7-3.83-6.06 0-9.913 1.32-10.954 1.72l.004.004a.67.67 0 0 1 .032.037c.005.004.01.01.014.015a11.78 11.78 0 0 0 1.249 1.204c.72.592 1.632 1.233 1.632 1.233l.46-.115c1.608-.384 4.14-.797 7.562-.797 5.8 0 11.146 2.1 13.245 3.02-.15 2.62-.75 9.527-2.994 14.294-2.526 5.36-9.302 11.065-10.64 12.157-.14.116 1.757 2.697 1.817 2.778.03-.02.116-.093.248-.196 1.458-1.184 8.698-7.248 11.566-13.33 3.107-6.603 3.348-16.285 3.357-16.695l.02-1.028z"/></defs></svg>