<svg viewBox="0 0 136 32" fill="none" xmlns="http://www.w3.org/2000/svg"><path d="M98.132 32c-8.859 0-14.1-5.99-13.857-13.775C84.586 8.257 93.364 0 103.833 0c4.492 0 8.083 1.162 10.471 2.383l-1.395 7.371c-2.995-1.628-5.568-2.61-9.722-2.61-6.527 0-10.834 4.878-10.997 10.14-.132 4.19 2.39 7.657 7.263 7.657 1.103 0 2.379-.17 3.234-.384l1.908-10.081 7.424.001-2.879 15.212C106 31.145 101.862 32 98.132 32zM136 14.895l-15.178-9-4.012 21.052L136 14.895z" fill="#1899D6"/><path d="M24.035 20.822c1.665 0 3.45-1.475 3.45-3.826 0-1.525-.965-2.45-2.268-2.45-1.64 0-3.474 1.55-3.474 3.9 0 1.5.965 2.376 2.292 2.376zm1.231-9.875c3.739 0 6.44 2.275 6.44 5.774 0 4.55-3.884 7.7-7.742 7.7-3.74 0-6.442-2.25-6.442-5.775 0-4.524 3.86-7.699 7.744-7.699zm16.461 4.298c.558 0 1.092-.099 1.497-.371.837-.544 1.37-1.558 1.37-2.72 0-1.04-.61-1.707-1.827-1.707h-2.232l-.963 4.798h2.155zm-4.895-8.508h6.924c1.066 0 1.979.172 2.765.544 1.7.791 2.638 2.423 2.638 4.476 0 2.97-1.724 5.492-4.16 6.604a6.705 6.705 0 01-2.79.595h-3.374l-1.09 5.465h-4.439l3.526-17.684zm17.663 14.385c1.098 0 2.293-1.225 2.489-2.275l.049-.276h-.391c-.903 0-3.17.2-3.17 1.726 0 .474.315.825 1.023.825zm2.806-5.025h.17c.025-.175.049-.4.049-.475 0-.85-.585-1.175-1.586-1.175-1.586 0-3.635 1.175-3.635 1.175l-.903-3.25s2.587-1.425 5.368-1.425c2.122 0 4.977.85 4.977 4.1 0 .375-.049.8-.122 1.25l-1.463 7.824H56.3l.146-.775c.075-.424.22-.8.22-.8h-.049s-1.366 1.875-3.708 1.875c-1.878 0-3.684-1.15-3.684-3.325 0-3.9 4.855-4.999 8.075-4.999zm6.842 10.54c.771 0 1.696-.205 2.39-1.33l.385-.613L63.81 11.79h4.624l1.079 6.516c.128.716.128 1.943.128 1.943h.052s.463-1.152.796-1.866l2.955-6.593h4.984l-8.272 14.564c-1.645 2.889-3.931 3.962-5.781 3.962-1.953 0-3.468-1.022-3.468-1.022l1.926-3.067s.54.41 1.31.41zM8.095 25.263c-5.173 0-8.232-3.625-8.09-8.338.18-6.033 5.306-11.03 11.42-11.03 2.622 0 4.702.69 6.096 1.43l-.809 4.476c-1.748-.987-3.24-1.582-5.665-1.582-3.812 0-6.326 2.952-6.421 6.136-.077 2.538 1.395 4.636 4.241 4.636.644 0 1.39-.104 1.888-.233l1.114-6.101h4.326l-1.672 9.207c-1.834.882-4.25 1.4-6.428 1.4z" fill="#2F4049"/><path fill-rule="evenodd" clip-rule="evenodd" d="M.982 32c-.185 0-.35-.035-.498-.104a.837.837 0 01-.354-.298.868.868 0 01-.13-.485c0-.164.032-.3.095-.406a.687.687 0 01.255-.25c.107-.064.227-.112.36-.143.132-.032.267-.055.406-.07.175-.02.317-.037.423-.052a.668.668 0 00.238-.064c.05-.032.074-.081.074-.147v-.013c0-.168-.046-.296-.139-.385-.092-.092-.23-.139-.415-.139-.19 0-.34.042-.45.126a.659.659 0 00-.224.28l-.537-.12c.064-.179.158-.323.282-.433.12-.106.26-.186.419-.238a1.732 1.732 0 01.873-.034c.133.029.256.08.368.151a.807.807 0 01.281.307c.075.133.113.306.113.52v1.932h-.554v-.398h-.022a.761.761 0 01-.168.216.823.823 0 01-.281.178A1.123 1.123 0 01.982 32zm.125-.454c.156 0 .29-.032.402-.095a.628.628 0 00.255-.242.62.62 0 00.091-.325v-.376a.29.29 0 01-.117.056 1.491 1.491 0 01-.199.044 2.977 2.977 0 01-.212.034l-.172.022a1.292 1.292 0 00-.303.073.52.52 0 00-.216.139.364.364 0 00-.083.246.36.36 0 00.156.316.683.683 0 00.398.108z" fill="#2F4049"/><path d="M5.397 31.935L4.32 28.052h.614l.757 3.01h.039l.787-3.01h.61l.786 3.01h.035l.757-3.01h.618l-1.08 3.883h-.589l-.817-2.906h-.03l-.818 2.906h-.592z" fill="#2F4049"/><path fill-rule="evenodd" clip-rule="evenodd" d="M10.755 31.996c-.274 0-.512-.064-.714-.19a1.25 1.25 0 01-.476-.524 1.739 1.739 0 01-.168-.787c0-.303.056-.568.168-.796.113-.224.271-.4.476-.527.202-.124.44-.186.713-.186.274 0 .512.062.714.186.205.127.363.303.476.527.112.228.168.493.168.796 0 .3-.056.562-.168.787a1.25 1.25 0 01-.476.523c-.202.127-.44.19-.713.19zm0-.476a.67.67 0 00.44-.143.834.834 0 00.26-.372 1.47 1.47 0 00.086-.514c0-.185-.028-.356-.086-.515a.866.866 0 00-.26-.376.684.684 0 00-.44-.138.695.695 0 00-.442.138.82.82 0 00-.259.376c-.058.159-.087.33-.087.515 0 .187.03.359.087.514.055.156.141.28.26.372a.68.68 0 00.44.143z" fill="#2F4049"/><path d="M12.744 31.935v-2.91h.549v.463h.03a.689.689 0 01.281-.372.814.814 0 01.459-.134h.125a.886.886 0 01.117.013v.54a1.515 1.515 0 00-.299-.035.743.743 0 00-.358.087.629.629 0 00-.337.57v1.778h-.567zm2.62-3.883v3.883h-.566v-3.883h.566z" fill="#2F4049"/><path fill-rule="evenodd" clip-rule="evenodd" d="M17.215 31.991c-.233 0-.442-.059-.627-.177a1.206 1.206 0 01-.432-.519 1.917 1.917 0 01-.156-.809c0-.314.052-.583.156-.808.106-.225.252-.397.436-.515.185-.118.394-.177.627-.177.182 0 .328.03.437.09.11.061.196.13.26.208.06.081.108.152.142.212h.035v-1.444h.566v3.883h-.553v-.454h-.048a1.607 1.607 0 01-.147.216.862.862 0 01-.264.208.93.93 0 01-.432.086zm.125-.48a.66.66 0 00.416-.13.82.82 0 00.26-.363c.057-.152.086-.333.086-.54 0-.202-.03-.378-.087-.528a.764.764 0 00-.255-.354.667.667 0 00-.42-.13.678.678 0 00-.428.134.822.822 0 00-.255.363 1.45 1.45 0 00-.086.515c0 .196.029.372.086.527a.806.806 0 00.26.368.657.657 0 00.423.138z" fill="#2F4049"/><path d="M20.035 28.052v3.883h-.567v-3.883h.567zm1.046.523a.35.35 0 01-.25-.1.312.312 0 01-.109-.237c0-.095.036-.176.108-.242a.35.35 0 01.251-.1c.1 0 .186.033.255.1.07.066.104.145.104.238a.323.323 0 01-.104.242.355.355 0 01-.255.1zm-.285 3.36v-2.91h.566v2.91h-.566zm1.898-1.73v1.73h-.567v-2.91h.541v.471h.039a.838.838 0 01.316-.372.983.983 0 01.54-.138c.199 0 .373.042.523.125.15.081.266.204.346.368a1.3 1.3 0 01.126.605v1.851h-.567v-1.781c0-.214-.055-.38-.164-.498a.59.59 0 00-.454-.181.694.694 0 00-.35.086.599.599 0 00-.243.25.835.835 0 00-.086.394zm3.879 1.791c-.288 0-.536-.062-.744-.186a1.256 1.256 0 01-.476-.52 1.75 1.75 0 01-.168-.79c0-.3.056-.564.168-.792.113-.228.27-.405.472-.532.199-.127.434-.19.705-.19.164 0 .324.027.48.082a1.2 1.2 0 01.415.255c.12.116.217.267.29.454.072.185.108.408.108.67v.204h-2.318v-.424h1.76a.84.84 0 00-.091-.398.713.713 0 00-.255-.277.728.728 0 00-.385-.099.737.737 0 00-.415.117.785.785 0 00-.273.302.895.895 0 00-.095.407v.333c0 .193.035.359.104.497.066.136.162.24.285.312.124.072.27.108.437.108a.874.874 0 00.294-.048.633.633 0 00.23-.138.644.644 0 00.146-.234l.537.1a.982.982 0 01-.23.415c-.11.118-.247.209-.415.272a1.53 1.53 0 01-.566.1z" fill="#2F4049"/><path fill-rule="evenodd" clip-rule="evenodd" d="M29.911 31.935v-3.883h.567v1.444h.034a2.1 2.1 0 01.143-.212.875.875 0 01.26-.207.906.906 0 01.436-.091c.234 0 .443.059.627.177.185.118.33.29.437.515.107.225.16.494.16.808 0 .315-.053.584-.16.81a1.207 1.207 0 01-.432.518 1.128 1.128 0 01-.628.177.947.947 0 01-.432-.086.862.862 0 01-.264-.208 1.607 1.607 0 01-.147-.216h-.047v.454h-.554zm.558-1.457c0 .207.029.388.086.54a.82.82 0 00.26.364.66.66 0 00.415.13.657.657 0 00.424-.139.852.852 0 00.26-.368 1.52 1.52 0 00.086-.527c0-.19-.029-.362-.087-.515a.823.823 0 00-.255-.363.678.678 0 00-.428-.134.679.679 0 00-.42.13.764.764 0 00-.255.354c-.057.15-.086.326-.086.528z" fill="#2F4049"/><path d="M33.21 31.935v-2.91h.545v.463h.03a.717.717 0 01.282-.372.814.814 0 01.458-.134h.126a.886.886 0 01.116.013v.54a1.544 1.544 0 00-.294-.035.727.727 0 00-.359.087.629.629 0 00-.337.57v1.778h-.566z" fill="#2F4049"/><path fill-rule="evenodd" clip-rule="evenodd" d="M36.082 32a1.19 1.19 0 01-.502-.104.837.837 0 01-.354-.298.868.868 0 01-.13-.485c0-.164.032-.3.095-.406a.688.688 0 01.255-.25 1.31 1.31 0 01.364-.143c.132-.032.268-.055.406-.07.173-.02.314-.037.424-.052a.668.668 0 00.238-.064c.049-.032.073-.081.073-.147v-.013c0-.168-.046-.296-.138-.385-.095-.092-.234-.139-.415-.139-.19 0-.34.042-.45.126a.693.693 0 00-.23.28l-.531-.12c.063-.179.156-.323.277-.433a1.23 1.23 0 01.423-.238 1.69 1.69 0 01.502-.073c.115 0 .24.013.372.039.13.029.252.08.367.151a.808.808 0 01.282.307c.072.133.108.306.108.52v1.932h-.554v-.398h-.021a.796.796 0 01-.165.216.882.882 0 01-.28.178 1.129 1.129 0 01-.416.069zm.121-.454a.815.815 0 00.407-.095.666.666 0 00.255-.242.643.643 0 00.086-.325v-.376a.29.29 0 01-.117.056 3.393 3.393 0 01-.41.078l-.173.022c-.11.014-.21.039-.303.073a.52.52 0 00-.216.139.377.377 0 00-.078.246.36.36 0 00.156.316.675.675 0 00.393.108z" fill="#2F4049"/><path d="M38.84 30.205v1.73h-.566v-2.91h.545v.471h.035a.839.839 0 01.316-.372.993.993 0 01.544-.138c.2 0 .372.042.52.125.15.081.266.204.35.368.08.161.12.363.12.605v1.851h-.566v-1.781c0-.214-.055-.38-.164-.498a.582.582 0 00-.454-.181.635.635 0 00-.592.337.834.834 0 00-.087.393z" fill="#2F4049"/><path fill-rule="evenodd" clip-rule="evenodd" d="M42.556 31.991c-.237 0-.447-.059-.632-.177a1.247 1.247 0 01-.432-.519 1.919 1.919 0 01-.156-.809c0-.314.053-.583.16-.808.104-.225.248-.397.432-.515.185-.118.395-.177.632-.177.179 0 .324.03.437.09.11.061.194.13.255.208.063.081.11.152.142.212h.035v-1.444h.57v3.883h-.557v-.454h-.048a1.12 1.12 0 01-.147.216.876.876 0 01-.26.208.946.946 0 01-.431.086zm.125-.48c.161 0 .3-.043.415-.13a.791.791 0 00.255-.363c.06-.152.091-.333.091-.54 0-.202-.03-.378-.09-.528a.765.765 0 00-.256-.354.66.66 0 00-.415-.13.666.666 0 00-.428.134.822.822 0 00-.255.363 1.448 1.448 0 00-.087.515c0 .196.029.372.087.527a.805.805 0 00.26.368.646.646 0 00.423.138z" fill="#2F4049"/></svg>