<?xml version="1.0" encoding="UTF-8" standalone="no"?>
<!-- Created with Inkscape (http://www.inkscape.org/) -->

<svg
   xmlns:dc="http://purl.org/dc/elements/1.1/"
   xmlns:cc="http://creativecommons.org/ns#"
   xmlns:rdf="http://www.w3.org/1999/02/22-rdf-syntax-ns#"
   xmlns:svg="http://www.w3.org/2000/svg"
   xmlns="http://www.w3.org/2000/svg"
   xmlns:sodipodi="http://sodipodi.sourceforge.net/DTD/sodipodi-0.dtd"
   xmlns:inkscape="http://www.inkscape.org/namespaces/inkscape"
   width="10.370955mm"
   height="10.163677mm"
   viewBox="0 0 10.370955 10.163677"
   version="1.1"
   id="svg3866"
   inkscape:version="0.92.5 (2060ec1f9f, 2020-04-08)"
   sodipodi:docname="icon.svg">
  <defs
     id="defs3860" />
  <sodipodi:namedview
     id="base"
     pagecolor="#ffffff"
     bordercolor="#666666"
     borderopacity="1.0"
     inkscape:pageopacity="0.0"
     inkscape:pageshadow="2"
     inkscape:zoom="0.35"
     inkscape:cx="108.17008"
     inkscape:cy="-97.935909"
     inkscape:document-units="mm"
     inkscape:current-layer="layer1"
     showgrid="false"
     inkscape:snap-bbox="true"
     inkscape:window-width="1920"
     inkscape:window-height="1009"
     inkscape:window-x="0"
     inkscape:window-y="0"
     inkscape:window-maximized="1" />
  <metadata
     id="metadata3863">
    <rdf:RDF>
      <cc:Work
         rdf:about="">
        <dc:format>image/svg+xml</dc:format>
        <dc:type
           rdf:resource="http://purl.org/dc/dcmitype/StillImage" />
        <dc:title></dc:title>
      </cc:Work>
    </rdf:RDF>
  </metadata>
  <g
     inkscape:label="Layer 1"
     inkscape:groupmode="layer"
     id="layer1"
     transform="translate(-77.213332,-112.75745)">
    <path
       inkscape:connector-curvature="0"
       style="clip-rule:evenodd;fill:#1f6ec6;fill-rule:evenodd;stroke-width:0.26458332"
       d="m 77.729964,114.74217 c -0.458441,0 -0.688892,0.5535 -0.365916,0.87884 l 1.980192,1.99477 c 0.0017,0.002 0.0017,0.004 0,0.006 -0.0027,0.003 -7.88e-4,0.008 0.0031,0.008 h 1.233561 c 0.459555,0 0.689504,-0.55579 0.364278,-0.88048 l -1.859114,-1.85605 c -0.09667,-0.0965 -0.227684,-0.15073 -0.364284,-0.15073 z m 1.548749,-0.46575 c 0,0.1369 0.05444,0.26815 0.151315,0.36489 l 1.856055,1.85301 c 0.324935,0.3244 0.879898,0.0943 0.879898,-0.36489 v -0.98563 c 0,-0.1361 -0.05382,-0.26667 -0.149701,-0.36324 l -1.856052,-1.86971 c -0.324247,-0.32665 -0.881515,-0.097 -0.881515,0.36324 z"
       id="path4" />
    <path
       inkscape:connector-curvature="0"
       style="clip-rule:evenodd;fill:#1f6ec6;fill-rule:evenodd;stroke-width:0.26458332"
       d="m 77.729964,120.93641 c -0.458441,0 -0.688892,-0.55349 -0.365916,-0.87884 l 1.980176,-1.99473 c 0.0017,-0.002 0.0017,-0.004 0,-0.006 -0.0027,-0.003 -7.88e-4,-0.008 0.0031,-0.008 h 1.233545 c 0.459555,0 0.689505,0.55579 0.364305,0.88048 l -1.85913,1.85606 c -0.09667,0.0965 -0.227684,0.1507 -0.364283,0.1507 z m 1.548738,0.46577 c 0,-0.1369 0.05444,-0.26818 0.151316,-0.36489 l 1.856065,-1.85301 c 0.324935,-0.3244 0.879872,-0.0943 0.879872,0.36489 v 0.9856 c 0,0.1361 -0.05379,0.26667 -0.149675,0.36324 l -1.856052,1.86971 c -0.324274,0.32665 -0.881526,0.097 -0.881526,-0.36325 z"
       id="path6" />
    <path
       inkscape:connector-curvature="0"
       style="clip-rule:evenodd;fill:#ffd700;fill-rule:evenodd;stroke-width:0.26458332"
       d="m 87.067652,114.74217 c 0.458444,0 0.688896,0.55348 0.365919,0.87884 l -1.980168,1.99472 c -0.0017,0.002 -0.0017,0.005 0,0.006 0.0027,0.003 7.67e-4,0.007 -0.0031,0.007 h -1.233755 c -0.459554,0 -0.689504,-0.55581 -0.364304,-0.88048 l 1.859121,-1.85608 c 0.09668,-0.0965 0.2277,-0.1507 0.364278,-0.1507 z m -1.548633,-0.46607 c 0,0.1369 -0.05445,0.26816 -0.151315,0.36489 l -1.856079,1.85301 c -0.324934,0.3244 -0.879871,0.0943 -0.879871,-0.36489 v -0.98533 c 0,-0.13608 0.05379,-0.26665 0.149674,-0.36325 l 1.856079,-1.8697 c 0.324247,-0.32664 0.881512,-0.097 0.881512,0.36325 z"
       id="path8" />
    <path
       inkscape:connector-curvature="0"
       style="clip-rule:evenodd;fill:#1f6ec6;fill-rule:evenodd;stroke-width:0.26458332"
       d="m 87.067652,120.93643 c 0.458444,0 0.688896,-0.55351 0.365919,-0.87886 l -1.980195,-1.99473 c -0.0017,-0.002 -0.0017,-0.004 0,-0.006 0.0027,-0.003 7.94e-4,-0.008 -0.0031,-0.008 h -1.233755 c -0.459555,0 -0.689504,0.55579 -0.364278,0.88048 l 1.859121,1.85606 c 0.09668,0.0965 0.227674,0.15073 0.364278,0.15073 z m -1.548659,0.46604 c 0,-0.1369 -0.05443,-0.26816 -0.151315,-0.36489 l -1.856053,-1.85301 c -0.324934,-0.3244 -0.879871,-0.0943 -0.879871,0.36489 v 0.98533 c 0,0.13608 0.05379,0.26665 0.149674,0.36325 l 1.856052,1.86971 c 0.324274,0.32662 0.881513,0.097 0.881513,-0.36325 z"
       id="path10" />
  </g>
</svg>
