<svg width="156" height="156" viewBox="0 0 156 156" fill="none" xmlns="http://www.w3.org/2000/svg">
  <path d="M156 144.529C156 150.864 150.864 156 144.529 156C138.194 156 133.059 150.864 133.059 144.529C133.059 138.194 138.194 133.059 144.529 133.059C150.864 133.059 156 138.194 156 144.529Z" fill="black"/>
  <path d="M104.444 79.1916H147.971C147.367 87.1237 145.558 95.0558 142.542 102.385C138.823 111.422 133.294 119.555 126.459 126.483C119.523 133.411 111.38 138.833 102.333 142.548C93.2861 146.263 83.6359 148.171 73.8852 148.171V104.695C77.9061 104.695 81.927 103.892 85.6464 102.385C89.3657 100.779 92.7835 98.57 95.6987 95.6583C98.5133 92.8469 100.825 89.4331 102.333 85.6176C103.238 83.5091 103.841 81.3001 104.243 79.0912H104.545L104.444 79.1916Z" fill="black"/>
  <path d="M43.6503 68.8794C44.0508 66.6769 44.6515 64.4743 45.5525 62.3719C47.0542 58.6676 49.3569 55.2637 52.1601 52.3604C55.0635 49.5571 58.3673 47.2545 62.1717 45.7528C65.9761 44.251 69.8806 43.4501 73.8852 43.4501V0C64.174 0 54.5629 1.90219 45.5525 5.60646C36.5421 9.31073 28.4328 14.8171 21.5248 21.6249C14.6169 28.5329 9.21062 36.6422 5.50635 45.6526C2.40277 53.1613 0.500577 60.9703 0 68.8794H43.6503Z" fill="black"/>
  <path d="M73.8852 148.171C54.2625 148.171 35.4409 140.362 21.5248 126.446L52.1601 95.8104C57.9668 101.617 65.7758 104.821 73.8852 104.821L73.8852 148.171Z" fill="black"/>
  <path d="M73.8852 0C93.5078 0 112.329 7.809 126.246 21.725L95.6102 52.3604C89.8035 46.5537 81.9945 43.35 73.8852 43.35L73.8852 0Z" fill="black"/>
  <path d="M43.6503 79.2914C44.0508 81.4939 44.6515 83.6964 45.5525 85.7989C47.0543 89.5032 49.3569 92.9071 52.1601 95.8104L21.5248 126.446C14.6169 119.538 9.21062 111.428 5.50635 102.418C2.40278 95.0095 0.600699 87.2005 0.100122 79.2914H43.7504H43.6503Z" fill="black"/>
  <path d="M147.77 68.8794C147.17 60.9702 145.368 53.0611 142.364 45.7527C138.66 36.7423 133.154 28.633 126.346 21.725L95.7104 52.3603C98.5136 55.2637 100.816 58.5675 102.318 62.3719C103.219 64.4743 103.82 66.6768 104.22 68.8794H147.87H147.77Z" fill="black"/>
  <path d="M87.9013 74.0854C87.9013 81.7943 81.5941 88.1016 73.8852 88.1016C66.1763 88.1016 59.869 81.7943 59.869 74.0854C59.869 66.3765 66.1763 60.0693 73.8852 60.0693C81.5941 60.0693 87.9013 66.3765 87.9013 74.0854Z" fill="black"/>
  <path d="M104.52 79.2914C104.12 81.594 103.519 83.7966 102.618 85.9991C101.117 89.8035 98.8139 93.2074 95.9106 96.1108L126.346 126.546C133.254 119.638 138.66 111.529 142.364 102.518C145.368 95.1096 147.27 87.3006 147.77 79.3915H104.42L104.52 79.2914Z" fill="black"/>
  <path d="M0 68.8794C0.600693 60.9703 2.40277 53.0611 5.40623 45.7527C9.1105 36.7423 14.6169 28.633 21.4247 21.725L51.8598 52.1601C48.9564 55.0634 46.6538 58.4674 45.1521 62.2718C44.251 64.4743 43.6503 66.6768 43.2499 68.9795H0V68.8794Z" fill="black"/>
</svg>
