<svg xmlns="http://www.w3.org/2000/svg" width="29" height="40" viewBox="0 0 28.99 39.939"><defs><linearGradient id="A" x1="14.492" x2="14.492" y1="38.724" y2="-.004" gradientUnits="userSpaceOnUse"><stop offset="0%" stop-color="#8e63a6"/><stop offset="18.021%" stop-color="#8a6aab"/><stop offset="40.55%" stop-color="#7d7cba"/><stop offset="69.776%" stop-color="#689ad2"/><stop offset="100%" stop-color="#4dc2f1"/></linearGradient></defs><path d="M28.184 34.714l-4.787-11.247a1.12 1.12 0 0 0 .175-1.497 1.108 1.108 0 0 0-1.47-.306l-1.697-1.194 2.47-.99 1.606-5.875a1.12 1.12 0 0 0 .908-1.1c0-.54-.38-1-.908-1.1l-1.315-5.463a1.12 1.12 0 0 0 .118-1.177 1.11 1.11 0 0 0-1.45-.528L15.777 1.07a1.113 1.113 0 0 0-2.169-.307L2.01 2.2a1.115 1.115 0 0 0-1.58.105 1.127 1.127 0 0 0 .105 1.585V17.72a1.117 1.117 0 0 0 0 1.908v15.63a1.121 1.121 0 0 0-.35 1.244 1.113 1.113 0 0 0 1.461.666L4.72 38.93a1.11 1.11 0 0 0 2.116.357l2.995-.88a1.11 1.11 0 0 0 1.974-.601 1.119 1.119 0 0 0-.597-1.095l-.092-13.266 2.295 2.667a1.11 1.11 0 0 0 .088.939c.168.284.454.477.778.528l3.644 9.25a1.123 1.123 0 0 0-.355 1.21 1.114 1.114 0 0 0 2.07.135h4.996a1.114 1.114 0 0 0 2.105-.653l.86-.65a1.115 1.115 0 0 0 1.381-.925 1.118 1.118 0 0 0-.803-1.233zm-21.382 3.58a1.116 1.116 0 0 0-.368-.41l1.328-5.217 2.1 4.262a1.12 1.12 0 0 0-.283.546l-2.787.818zM27.06 35.01l-2.93-2.102-2.342-5.998.776-2.942 4.642 10.91a1.123 1.123 0 0 0-.147.138zm-8.028-5.753l.083-4.83.962-.484 1.175 3.007-.864 3.282zm1.215 1.505l-1.328 5.042.103-5.922zm-8.76-9.977l4.6-2.907 1.9 1.846c-.077.13-.127.276-.148.427zm-5.56 16.92L4.42 31.418l1.504-2.45 1.48 2.993-1.462 5.744-.018.002zm8.28-35.57a.98.98 0 0 0 .108.04l-1.193 5.46-2.397-.99zm-1.197 6.008l-.682 3.132-1.38.874L8.4 9.656l1.995-2.587zm-4.922 1.92l2.416 2.36-3.184 2.017-1.035-2.04zm-2.06 1.827L2.168 4.285l5.547 5.42-1.69 2.188zm4.854.9l.917.896-1.38 6.34a.98.98 0 0 0-.245.034l-2.614-5.157zm.445-.283l.846-.538-.245 1.124-.6-.586zm.903 1.6l1.81 1.768-3.108 4.168zm-2.518 6.195a1.09 1.09 0 0 0-.262.326l-3.4-.907-.882-3.302 1.96-1.23zm-4.244-.74l-3.23-.858v-.03a1.08 1.08 0 0 0-.066-.363l2.53-1.602.766 2.853zM2.098 19.2l3.52.936 1.557 5.82L5.977 27.9 1.84 19.532a1.12 1.12 0 0 0 .26-.332zm4.085 1.087l3.123.82v.032c-.003.302.117.592.332.804l-2.093 3.41zm3.572 2.433l-1.43 5.596-.612-2.28zm4.652-6.478l1.3 1.268-4.246 2.68zm.3-.4L18.7 10.5l4.464 1.846c-.01.058-.016.117-.018.176.002.095.016.2.04.28l-7.035 4.423zm8.64-3.973l-4.342-1.795 2.82-3.775a1.09 1.09 0 0 0 .447.095l1.264 5.263a1.18 1.18 0 0 0-.188.205zm-4.83-2l-1.837-.755 4.55-2.9L18.53 9.87zm-.318.424l-3.864 5.172-2-1.945.42-1.932 3.384-2.144 2.05.85zm-5.277.595l.547-2.545 2.09.86zM8.03 9.3l-5.665-5.54 7.538 3.104zm-2.353 3.043L4.48 13.898 2.258 5.596l3.42 6.75zm.256.506l.947 1.867L5.015 15.9l-.368-1.38zM4.56 16.187l-2.35 1.5 2.042-2.645zm1.1 12.238l-1.404 2.287-2.363-9.893 3.767 7.605zm.585.026l1.107-1.813.727 2.7-.476 1.864-1.358-2.74zm2.105 1.903l1.374 5.128-1.77-3.573zm.26-1.026l1.547-6.082.084 12.183-1.632-6.1zm10.553-7.725l.725 1.857-.763.385zm-.665-.275a1.43 1.43 0 0 0 .157.05L18.61 24.1l-3.3 1.663v-.01zm-2.95 4.895l3.05-1.535-.074 4.208-2.98-2.14a1.063 1.063 0 0 0 .004-.533zm6.58-2.603l-.656 2.488-.935-2.396 1.125-.566a1.11 1.11 0 0 0 .466.474zm-.56 4.14l1.797 4.607-2.532-1.81zm-.035-5.128l-1.184.595-.784-2.006a1.11 1.11 0 0 0 .106-.089l1.88 1.32c-.01.06-.015.118-.017.177zm-1.7-2.976a1.104 1.104 0 0 0-1.512-.3l-1.8-1.758 6.9-4.357c.036.042.076.08.118.117l-1.478 5.403-2.227.895zm1.384-14.033l-5.105 3.243-2.514-1.026 1.225-5.6a1.09 1.09 0 0 0 .572-.265l5.804 3.032a1.1 1.1 0 0 0-.039.273c0 .12.02.24.057.353zm-7.43-3.807L10.23 6.443l-7.894-3.25a.424.424 0 0 0 0-.053l11.4-1.418a.84.84 0 0 0 .071.097zm-9.712 12.6L1.58 17.654a.833.833 0 0 0-.086-.032V4.726l2.592 9.682zM3.88 31.33L1.588 35.07l-.094-.03V21.35l2.387 9.98zm-1.852 4l2.02-3.294L5.42 37.78a1.1 1.1 0 0 0-.376.24l-2.738-1.575c.032-.102.05-.208.05-.316a1.12 1.12 0 0 0-.33-.8h.002zm9.503-14.034l6.347-.632c.044.134.113.26.204.367l-3.186 4.414a1.125 1.125 0 0 0-.433-.088 1.141 1.141 0 0 0-.371.074l-2.952-3.428a1.11 1.11 0 0 0 .389-.707zm3.772 5.92l3.2 2.303-.102 5.95-3.208-8.144c.036-.047.067-.074.1-.108zm3.894 9.52l1.49-5.654 3.016 2.164 1.363 3.487a1.12 1.12 0 0 0-.437.48h-4.992a1.12 1.12 0 0 0-.439-.477zm6.435-.163h-.077l-1.087-2.787 2.328 1.672c-.032.104-.05.212-.05.322a1.14 1.14 0 0 0 .093.449l-.65.5a1.105 1.105 0 0 0-.552-.146z" fill="url(#A)"/></svg>