<svg xmlns="http://www.w3.org/2000/svg" viewBox="0 0 33 34.6" fill="black">
    <path d="M15.6538 34.5932C14.6583 34.4275 13.6544 34.3067 12.673 34.0849C6.03468 32.5908 0.786607 26.651 0.101339 19.9444C-0.183484 17.1472 0.112619 14.4343 1.23781 11.8561C1.59878 11.0277 2.2502 10.3227 2.74653 9.55042C2.87907 9.3426 3.02007 9.09546 3.02571 8.85955C3.11313 5.81802 5.5017 3.22864 8.56989 2.97589C9.92633 2.86355 11.0543 2.39735 12.1062 1.53516C14.5991 -0.509378 18.4682 -0.512186 20.947 1.52954C22.0158 2.40858 23.1664 2.87197 24.5454 2.97869C27.5628 3.21179 29.9937 5.88823 30.0331 8.9101C30.0331 9.09826 30.067 9.34821 30.1882 9.46336C31.6659 10.9013 32.2694 12.7576 32.6586 14.6842C34.4578 23.6038 28.9644 32.0768 20.0615 34.1382C19.224 34.332 18.3667 34.4415 17.5179 34.5904H15.6538V34.5932ZM17.1456 9.39596C17.3909 9.18813 17.5263 9.03367 17.6955 8.93818C18.5331 8.46637 19.3706 7.98613 20.2335 7.56205C20.6171 7.37389 21.0513 7.43848 21.1952 7.92434C21.339 8.41582 21.0006 8.62083 20.5719 8.73036C19.427 9.02805 18.5218 9.69927 17.7829 10.5895C17.5263 10.8985 17.2217 11.2916 17.2076 11.6567C17.1428 13.1424 17.1794 14.6309 17.1794 16.2261C17.3627 16.0182 17.4699 15.9003 17.5743 15.7795C18.7784 14.395 20.2561 13.4092 21.9848 12.7885C22.3711 12.6509 22.7518 12.6285 22.9323 13.0722C23.1269 13.5496 22.8139 13.7827 22.4078 13.9512C21.9115 14.1562 21.401 14.3388 20.9385 14.6056C19.1309 15.656 17.6053 17.0124 17.2415 19.1524C17.0328 20.3853 17.2048 21.6828 17.2048 22.9775C18.0565 23.059 18.8968 23.1629 19.74 23.2191C21.0147 23.3033 21.0147 23.2893 20.7637 22.0648C20.7299 21.9047 20.6988 21.7418 20.6706 21.5789C20.2505 19.1609 21.3362 17.1613 23.454 16.5041C23.8432 16.3833 24.2662 16.3581 24.6694 16.2794C25.5831 16.1025 25.851 15.4734 25.3547 14.6927C25.0784 14.2602 24.7569 13.8445 24.551 13.3811C23.6599 11.3703 24.5482 9.0786 26.4912 8.42143C27.0185 8.24169 27.6136 8.25854 28.1747 8.18272C27.8222 6.16345 26.2769 4.82102 23.9221 4.63005C22.4839 4.5121 21.1839 4.07398 20.1659 3.07137C18.4372 1.36946 14.6471 1.33295 12.8733 3.09946C12.0526 3.91671 11.0036 4.3801 9.84737 4.55422C9.37642 4.62443 8.89984 4.64971 8.42889 4.7115C6.66637 4.94179 5.03075 6.59876 4.92359 8.25293C7.71824 7.92715 9.36232 10.5952 8.64039 12.8447C8.42607 13.5131 7.98897 14.1169 7.62518 14.732C7.1909 15.4678 7.4306 16.0772 8.26533 16.2654C8.42607 16.3019 8.59245 16.3075 8.75601 16.3272C10.6031 16.5378 12.0893 17.8493 12.2952 19.672C12.4023 20.6297 12.2247 21.6239 12.1147 22.5956C12.0639 23.0365 12.0978 23.2836 12.611 23.2443C13.6967 23.1601 14.7852 23.0814 15.9133 22.9944C15.9133 22.0255 15.8766 21.1212 15.9217 20.2197C15.9866 18.9109 15.5213 17.8044 14.7317 16.8018C13.6713 15.4509 12.3036 14.5242 10.6849 13.954C10.276 13.8108 9.94043 13.5805 10.1209 13.0975C10.2986 12.6172 10.7216 12.6116 11.1051 12.8082C12.0752 13.3053 13.0707 13.7743 13.9703 14.3809C14.6696 14.8527 15.2364 15.5183 15.9133 16.1446C15.9133 15.0128 15.8287 13.9231 15.933 12.8475C16.074 11.4068 15.3972 10.4267 14.3143 9.67118C13.7334 9.26677 13.0509 8.98874 12.391 8.70789C12.0188 8.55062 11.7565 8.35965 11.8665 7.94119C11.9737 7.53397 12.2895 7.43006 12.6956 7.51993C13.7362 7.74741 14.6019 8.29505 15.4028 8.96065C15.5466 9.07861 15.6848 9.20498 15.9133 9.40438C15.9133 8.47198 15.9189 7.69124 15.9133 6.9105C15.9076 6.46396 15.9697 6.03707 16.5308 6.03427C17.092 6.03146 17.1625 6.44991 17.1569 6.90207C17.1456 7.69405 17.1569 8.48884 17.1569 9.39596H17.1456ZM16.3786 32.8351C18.6346 32.8576 20.1038 31.8016 20.4507 29.8413C20.5522 29.2628 20.5804 28.6393 20.4845 28.0608C20.1997 26.3336 19.2099 24.9996 17.4304 24.8114C16.6747 24.7328 15.9048 24.7553 15.1406 24.7805C14.21 24.8114 13.2822 24.9631 12.3544 24.9378C10.9049 24.8985 10.1491 23.9127 10.3832 22.4861C10.4537 22.0592 10.5608 21.6407 10.6285 21.2138C10.9528 19.1637 9.82199 18.0796 8.28789 18.001C8.12433 17.9926 7.96077 17.9532 7.7972 17.9195C6.33079 17.605 5.40018 16.2654 5.73858 14.8359C5.85702 14.336 6.22363 13.8951 6.43513 13.412C6.67201 12.8756 6.97093 12.3336 7.04426 11.7691C7.13732 11.0501 6.76507 10.4491 6.09672 10.1009C5.45376 9.76386 4.83053 9.97169 4.39061 10.4295C3.81532 11.0305 3.17799 11.6736 2.88753 12.4234C2.40248 13.676 2.02178 15.0072 1.8554 16.3356C0.766866 25.0193 7.59698 32.7424 16.3786 32.8351ZM21.026 24.9575C22.546 27.1621 22.6249 29.4538 21.6013 31.8634C21.7338 31.8381 21.793 31.8353 21.8466 31.8129C29.675 28.7432 33.3664 19.8911 30.067 12.3027C29.7314 11.5332 29.0687 10.8283 28.3947 10.2975C27.4133 9.52234 26.1443 10.157 25.9638 11.4068C25.8651 12.0921 26.0484 12.7071 26.4489 13.2688C26.6406 13.5356 26.8465 13.7996 26.9988 14.0888C27.8645 15.729 26.9706 17.5685 25.1376 17.9308C24.9148 17.9757 24.6892 18.0038 24.4636 18.0347C23.1664 18.2144 22.3627 19.0542 22.3486 20.3516C22.3429 20.9611 22.4585 21.5761 22.5742 22.1771C22.8562 23.6263 22.4529 24.3986 21.0231 24.9575H21.026Z" />
</svg>