<?xml version="1.0" encoding="utf-8"?>
<!-- Generator: Adobe Illustrator 27.5.0, SVG Export Plug-In . SVG Version: 6.00 Build 0)  -->
<svg version="1.1" id="Слой_1" xmlns="http://www.w3.org/2000/svg" xmlns:xlink="http://www.w3.org/1999/xlink" x="0px" y="0px"
	 viewBox="0 0 1080 1080" style="enable-background:new 0 0 1080 1080;" xml:space="preserve">
<style type="text/css">
	.st0{fill:#FF7800;}
	.st1{fill:#0000DC;}
</style>
<g>
	<g>
		<path class="st0" d="M414.8,431.1l-5.6-5.4l3.5-3.6l-24.5-23.8l-3.5,3.6l-5.6-5.4l13-13.4l5.6,5.4l-3.5,3.6l24.5,23.8l3.5-3.6
			l5.6,5.4L414.8,431.1z"/>
		<path class="st0" d="M431.8,413.4l-15.1-21.9c-0.6-0.9-1.3-1-2.1-0.4l-2.3,1.6l-4.3-6.2l6.7-4.6c2.6-1.8,4.6-1.6,6.1,0.6l0.6,0.9
			l0.8,1.3l0.1-0.1c-0.6-4.3,0.9-9.6,6.2-13.2c6.9-4.7,12.8-3.3,18,4.1l7.9,11.5c0.6,0.9,1.3,1,2.1,0.4l2.2-1.5l4.2,6.2l-6.9,4.8
			c-2.8,1.9-4.7,1.5-6.6-1.2l-9.3-13.5c-2.7-3.9-5.3-5.2-8.7-2.8c-3.9,2.7-5.2,7-3.8,11.5c0.5,1.4,1.2,2.9,2.2,4.3l9.3,13.5
			L431.8,413.4z"/>
		<path class="st0" d="M456.6,364.6l-4.3,1.8l-2.7-6.5l4.5-1.9l-3.8-9l7.9-3.3l3.8,9l7.5-3.2l2.7,6.5l-7.5,3.2l5.6,13.3
			c1,2.4,2.3,3.7,4.1,4.1c1.7,0.3,3.4,0.1,5.1-0.6l1.4-0.8l3,7.2c-0.7,0.4-1.5,0.8-2.5,1.3c-2.3,1-4.2,1.5-7.3,1.6
			c-4.3,0.1-8.8-1.6-11.6-8.3L456.6,364.6z"/>
		<path class="st0" d="M483.2,351.6c2.6-4.2,6.5-6.8,11.7-8c4.9-1.1,9-0.3,12.4,2.2c3.4,2.5,5.7,6.1,6.7,10.9
			c0.3,1.2,0.4,2.3,0.5,3.4l-24.1,5.3c1.8,5.7,7,8.1,12.6,6.9c3-0.7,6.1-2.7,9.1-6l4.8,5.5c-2.5,3.2-7.4,6.9-12.9,8.1
			c-5.6,1.2-10.5,0.5-14.8-2.3c-4.3-2.8-6.9-6.7-8.1-11.8C479.9,360.4,480.6,355.7,483.2,351.6z M504.7,356.1
			c-1.1-4.6-4.6-6.7-8.6-5.8c-4.4,1-6.9,4.6-6.8,9.2L504.7,356.1z"/>
		<path class="st0" d="M523.8,376.1l-0.7-26.6c0-1-0.5-1.5-1.6-1.5l-2.8,0.1l-0.2-7.6l8.2-0.2c3.1-0.1,4.7,1.3,4.8,4.2l0.1,2.1
			l-0.1,2.2l0.1,0c1.6-5.4,5.9-9.3,11.1-9.5l1.7,0.1l0.2,8.7c-0.6-0.1-1.4-0.1-2.2-0.1c-4.2,0.1-8.1,2.7-9.5,7.7
			c-0.4,1.6-0.7,3.5-0.6,5.8l0.4,14.1L523.8,376.1z"/>
		<path class="st0" d="M549.6,375.5l5-26.1c0.2-1-0.2-1.6-1.2-1.8l-2.8-0.5l1.4-7.4l8,1.5c3.1,0.6,4.4,2.2,3.9,4.8l-0.2,1l-0.4,1.5
			l0.1,0c2.7-3.5,7.4-6.1,13.8-4.9c8.2,1.6,11.4,6.8,9.7,15.7l-2.6,13.7c-0.2,1,0.2,1.6,1.2,1.8l2.7,0.5l-1.4,7.4l-8.3-1.6
			c-3.3-0.6-4.4-2.3-3.8-5.6l3.1-16.1c0.9-4.7,0-7.4-4.1-8.2c-4.7-0.9-8.7,1.3-10.9,5.3c-0.7,1.4-1.2,2.9-1.5,4.6l-3.1,16.1
			L549.6,375.5z"/>
		<path class="st0" d="M600.2,367.9c1.8-0.1,3.7,0.1,5.8,0.5c4.4,0.9,6.6,1.9,9.5,3.2l1,0.5l0.2-0.4c2-4.4,1-7-3.2-8.9
			c-2-0.9-4.6-1.4-5.3,0.2l-0.8,1.7l-7.6-3.5l1.6-3.4c1.3-2.8,4.2-3.9,7.3-3.4c3.2,0.5,5.4,1.2,7.4,2.1c10.4,4.8,12.1,11.3,8.3,19.4
			l-5.5,12.1c-0.4,1-0.2,1.6,0.8,2l2.5,1.2l-3.1,6.8l-7.3-3.4c-2.7-1.3-3.5-3.1-2.4-5.4l0.6-1.4l-0.1-0.1c0.1,0.1-5.5,4.4-12.7,1.1
			c-3-1.4-5.1-3.4-6.4-6.1c-1.3-2.7-1.2-5.6,0.1-8.5C592.9,370,596.7,368,600.2,367.9z M602.3,383.6c2.1,1,4.3,0.9,6.5-0.3
			c2.3-1.1,3.9-2.8,4.8-4.9l0.4-0.9l-1.5-0.7c-7.3-3.3-11.7-3.3-13.2,0.1C598.3,379.4,599.2,382.2,602.3,383.6z"/>
		<path class="st0" d="M639,377.6l-3.8-2.7l4.1-5.8l4,2.8l5.6-8l7,4.9l-5.6,8l6.6,4.7l-4.1,5.8l-6.6-4.7l-8.3,11.8
			c-1.5,2.1-1.9,4-1.3,5.6c0.7,1.6,1.8,3,3.3,4l1.4,0.8l-4.5,6.4c-0.7-0.3-1.5-0.8-2.4-1.4c-2-1.4-3.5-2.7-5.3-5.3
			c-2.4-3.6-3.3-8.3,0.8-14.2L639,377.6z"/>
		<path class="st0" d="M659.2,395.5c0.7-0.8,0.7-1.5-0.1-2.2l-2.1-1.9l5.1-5.6l6.2,5.7c2.4,2.2,2.5,4.3,0.2,6.7l-14.8,16.1
			c-0.7,0.8-0.7,1.5,0.1,2.2l2.1,1.9l-5.1,5.5l-6.2-5.7c-2.4-2.2-2.5-4.2-0.2-6.7L659.2,395.5z M669.6,384.8l5.5-6l5.7,5.2l-5.5,6
			L669.6,384.8z"/>
		<path class="st0" d="M659.4,426.1c0.6-5.1,3.1-9.3,7.4-12.5s9-4.4,14.1-3.5c5.1,0.9,9.3,3.5,12.6,8c3.3,4.4,4.7,9.2,4.1,14.3
			c-0.5,5.1-3,9.3-7.3,12.6c-4.3,3.2-9,4.4-14.2,3.5c-5-0.9-9.2-3.5-12.5-7.9C660.2,436,658.8,431.2,659.4,426.1z M667.5,428
			c-0.4,2.8,0.3,5.5,2.1,7.9c1.8,2.4,4.1,3.7,7,4.1c2.9,0.4,5.7-0.4,8.3-2.4c2.6-1.9,4.1-4.4,4.5-7.2c0.5-2.9-0.2-5.5-2-7.9
			c-1.8-2.4-4.1-3.7-7.1-4.2c-2.9-0.4-5.7,0.4-8.2,2.3C669.5,422.7,668,425.1,667.5,428z"/>
		<path class="st0" d="M678,460l24.6-10c1-0.4,1.2-1,0.8-2l-1.1-2.6l7-2.8l3.1,7.6c1.2,2.9,0.5,4.8-1.9,5.8l-1,0.4l-1.5,0.5l0.1,0.1
			c4.4,0.3,9.2,2.9,11.6,8.9c3.1,7.7,0.5,13.3-7.9,16.7l-12.9,5.2c-1,0.4-1.2,1-0.8,2l1,2.5l-6.9,2.8l-3.2-7.8
			c-1.3-3.1-0.5-4.9,2.6-6.2l15.2-6.2c4.4-1.8,6.2-4,4.6-7.9c-1.8-4.4-5.8-6.6-10.4-6.2c-1.5,0.2-3.1,0.6-4.6,1.2l-15.2,6.2L678,460
			z"/>
		<path class="st0" d="M711.9,498.3c1.1,1.4,1.9,3.1,2.7,5.2c1.7,4.2,2,6.6,2.5,9.7l0.2,1.1l0.5-0.1c4.8-0.7,6.4-3,5.8-7.5
			c-0.3-2.2-1.3-4.6-3-4.4l-1.9,0.3l-1.2-8.2l3.7-0.6c3-0.5,5.5,1.4,6.9,4.3c1.3,2.9,2,5.2,2.3,7.4c1.7,11.3-2.9,16.3-11.8,17.6
			l-13.2,1.9c-1,0.2-1.5,0.7-1.3,1.7l0.4,2.8l-7.4,1.1l-1.2-8c-0.4-3,0.7-4.6,3.2-5l1.5-0.2l0-0.1c0,0.1-6.7-2.2-7.8-10
			c-0.5-3.3,0.1-6.2,1.6-8.7c1.6-2.6,4-4.1,7.2-4.5C706.1,493.3,709.8,495.5,711.9,498.3z M699.8,508.6c0.3,2.3,1.6,4.1,3.8,5.3
			c2.2,1.3,4.4,1.7,6.7,1.4l1-0.1l-0.2-1.6c-1.2-7.9-3.6-11.6-7.3-11C701.2,503,699.3,505.3,699.8,508.6z"/>
		<path class="st0" d="M736.8,534.6c1,0,1.5-0.5,1.6-1.5l0.1-2.8l7.6,0.1l-0.2,8.5c-0.1,3.3-1.6,4.7-4.8,4.6l-35.9-0.7
			c-1,0-1.5,0.5-1.6,1.5l-0.1,2.8l-7.5-0.1l0.2-8.5c0.1-3.3,1.5-4.7,4.8-4.6L736.8,534.6z"/>
		<path class="st0" d="M693.1,570l40,12.6l1.4-4.3l7.4,2.3l-6.8,21.7c-1.4,4.5-3.9,7.6-7.7,9.5c-3.8,1.9-7.9,2.1-12.5,0.7
			c-4.6-1.5-7.9-4-10-7.8c-2-3.7-2.3-7.8-0.9-12.2l2.7-8.6l-16.4-5.2L693.1,570z M714.2,586.3l-2.2,7c-1.5,4.9,0.7,8.7,5.7,10.3
			c4.9,1.5,8.9-0.3,10.4-5.1l2.2-7.1L714.2,586.3z"/>
		<path class="st0" d="M696.6,616.8c-0.1,1.8-0.4,3.6-1.1,5.8c-1.3,4.3-2.5,6.4-4.1,9.1l-0.6,1l0.4,0.2c4.2,2.5,6.9,1.7,9.2-2.2
			c1.1-1.9,1.9-4.4,0.4-5.3l-1.6-1l4.2-7.2l3.3,1.9c2.7,1.6,3.4,4.5,2.6,7.6c-0.8,3.1-1.7,5.2-2.8,7.2c-5.8,9.8-12.5,10.8-20.2,6.3
			l-11.5-6.7c-0.9-0.5-1.6-0.4-2.1,0.5l-1.4,2.4l-6.5-3.8l4.1-6.9c1.5-2.6,3.4-3.2,5.6-1.9l1.3,0.8l0.1-0.1
			c-0.1,0.1-3.8-5.9,0.2-12.7c1.7-2.8,3.9-4.8,6.7-5.8c2.9-1,5.7-0.6,8.4,1C695.2,609.3,696.8,613.3,696.6,616.8z M680.7,617.2
			c-1.2,2-1.3,4.2-0.4,6.5c0.9,2.4,2.4,4.1,4.3,5.3l0.8,0.5l0.8-1.4c4-6.9,4.4-11.3,1.2-13.2C685.3,613.7,682.4,614.3,680.7,617.2z"
			/>
		<path class="st0" d="M660.5,630.1c-2.2,0-3.9,0.6-5.3,2.1c-1.8,1.9-2,4.4-0.7,7.4l1.2,2.7l27.7,9.6c0.9,0.3,1.6,0.1,2.3-0.6
			l0.7-0.8l5.5,5.2l-4,4.3c-1.7,1.8-3.2,2.1-5.7,1.2l-17.8-7.1l-4.3-2.3l-0.1,0.1c1.2,1.6,2.1,3,2.7,4.1l8.9,16.6
			c1.2,2,0.9,4-0.8,5.8l-4.1,4.4l-5.5-5.2l0.7-0.8c0.7-0.8,0.8-1.5,0.5-2.3l-14.9-31.3c-2.8-6-1.8-11.7,2-15.8
			c2.3-2.5,5.7-3.8,7.5-4l1.3-0.1L660.5,630.1z"/>
		<path class="st0" d="M638.6,661.7l13.1,23.1c0.5,0.9,1.2,1.1,2.1,0.6l2.4-1.4l3.7,6.6l-7.2,4.1c-2.7,1.6-4.7,1.2-6-1.2l-0.5-0.9
			l-0.7-1.4l-0.1,0.1c0.3,4.3-1.8,9.6-6.4,12.1c-4.7,2.7-8.9,2.2-12.6-1.3l-0.1,0.1c0.3,4.6-2.3,9.8-7,12.4
			c-6.8,3.8-12.4,1.8-16.9-6.1l-6.9-12.1c-0.5-0.9-1.2-1.1-2.1-0.6l-2.4,1.4l-3.7-6.5l7.4-4.2c2.9-1.6,4.8-1.1,6.4,1.8l8.1,14.4
			c2.2,4,4.6,5.6,7.8,3.8c3.7-2.1,4.8-6.7,3.5-11.4c-0.4-1.3-1-2.7-1.8-4.2l-7.7-13.6l7.7-4.4l10.5,18.5c2.2,4,4.4,5.7,7.7,3.8
			c3.7-2.1,4.8-6.7,3.5-11.5c-0.5-1.6-1.1-3-1.8-4.1l-7.7-13.6L638.6,661.7z"/>
		<path class="st0" d="M588.4,720.1c-2.6,4.2-6.5,6.8-11.7,8c-4.9,1.1-9,0.3-12.4-2.2c-3.4-2.5-5.6-6.1-6.7-10.9
			c-0.3-1.2-0.4-2.3-0.5-3.4l24.1-5.3c-1.8-5.7-7-8.1-12.6-6.9c-3,0.7-6.1,2.7-9.1,6l-4.8-5.5c2.5-3.2,7.4-6.9,12.9-8.1
			c5.6-1.2,10.5-0.4,14.8,2.3c4.3,2.8,6.9,6.7,8,11.8C591.7,711.3,591,716.1,588.4,720.1z M566.9,715.6c1.1,4.6,4.6,6.7,8.6,5.9
			c4.4-1,6.9-4.6,6.8-9.2L566.9,715.6z"/>
		<path class="st0" d="M548.2,696.2l-0.7,26.6c0,1,0.4,1.6,1.5,1.6l2.8,0.1l-0.2,7.6l-8.2-0.2c-3.1-0.1-4.7-1.5-4.6-4.1l0-1l0.1-1.5
			l-0.1,0c-2.1,3.9-6.4,7.2-12.8,7.1c-8.3-0.2-12.3-4.9-12.1-13.9l0.4-13.9c0-1-0.4-1.6-1.5-1.6l-2.7-0.1l0.2-7.5l8.4,0.2
			c3.4,0.1,4.7,1.5,4.6,4.9l-0.5,16.4c-0.1,4.8,1.2,7.3,5.4,7.4c4.8,0.1,8.3-2.6,9.9-7c0.5-1.5,0.7-3.1,0.8-4.7l0.5-16.4
			L548.2,696.2z"/>
		<path class="st0" d="M499.5,721l4.5,1.1l-1.6,6.9l-4.8-1.1l-2.2,9.5l-8.4-2l2.2-9.5l-7.9-1.9l1.6-6.9l7.9,1.9l3.3-14
			c0.6-2.5,0.3-4.4-0.9-5.7c-1.2-1.2-2.7-2.1-4.5-2.5l-1.6-0.2l1.8-7.6c0.8,0,1.7,0.2,2.8,0.4c2.4,0.6,4.3,1.2,6.8,3
			c3.5,2.4,6.2,6.5,4.5,13.5L499.5,721z"/>
		<path class="st0" d="M467.2,680.9L445.9,717l3.9,2.3l-3.9,6.7l-19.6-11.6c-4-2.4-6.5-5.6-7.5-9.7c-1-4.1-0.3-8.1,2.1-12.3
			c2.5-4.2,5.7-6.8,9.8-7.9c4.1-1.1,8.1-0.5,12.1,1.9l7.8,4.6l8.7-14.8L467.2,680.9z M446.6,697.7l-6.3-3.7
			c-4.4-2.6-8.7-1.3-11.3,3.2c-2.6,4.4-1.7,8.7,2.6,11.3l6.4,3.8L446.6,697.7z"/>
		<path class="st0" d="M409,691c-0.7,0.8-0.6,1.5,0.2,2.2l2.1,1.8l-4.9,5.7l-6.4-5.5c-2.5-2.1-2.6-4.2-0.4-6.7l23.4-27.2
			c0.7-0.8,0.6-1.5-0.2-2.2l-2.1-1.8l4.9-5.7l6.4,5.5c2.5,2.1,2.6,4.1,0.4,6.7L409,691z"/>
		<path class="st0" d="M405.5,659.3c-1.6-0.6-3.3-1.6-5-3c-3.6-2.7-5.1-4.5-7.2-7l-0.7-0.9l-0.4,0.3c-3.7,3.1-3.9,5.9-1,9.4
			c1.4,1.7,3.5,3.3,4.9,2.1l1.5-1.2l5.3,6.4l-2.9,2.4c-2.4,2-5.4,1.7-8.1-0.1c-2.7-1.8-4.4-3.4-5.8-5.1c-7.3-8.8-6-15.4,0.9-21.1
			l10.2-8.5c0.8-0.7,0.9-1.4,0.2-2.2l-1.8-2.2l5.8-4.8l5.1,6.2c1.9,2.3,1.8,4.3-0.1,5.9l-1.2,1l0.1,0.1c-0.1-0.1,6.9-1.6,11.9,4.5
			c2.1,2.5,3.1,5.3,3.2,8.3c0,3-1.3,5.5-3.8,7.6C413.1,660.5,408.7,660.6,405.5,659.3z M410.4,644.2c-1.5-1.8-3.5-2.7-6-2.6
			c-2.5,0-4.7,0.8-6.5,2.3l-0.8,0.6l1,1.2c5.1,6.1,9.1,8,12,5.6C412.2,649.7,412.6,646.8,410.4,644.2z"/>
		<path class="st0" d="M374.7,633.7l2.3,4l-6.2,3.4l-2.4-4.3l-8.5,4.7l-4.2-7.5l8.5-4.7l-4-7.1l6.2-3.4l4,7.1l12.6-7
			c2.3-1.3,3.4-2.7,3.6-4.5c0.1-1.7-0.3-3.4-1.2-5l-0.9-1.3l6.8-3.8c0.5,0.6,1,1.4,1.5,2.3c1.2,2.1,2,4,2.4,7.1
			c0.6,4.2-0.6,8.9-6.9,12.4L374.7,633.7z"/>
		<path class="st0" d="M389,599.1l-26.7,10.3l1.6,4.1l-6.6,2.5l-1.6-4.1l-1,0.4c-4.2,1.6-8,1.3-10.3,0.1c-4-2.1-6.2-6-7.3-8.9
			l-0.9-2.9l7.1-2.7c0.1,0.5,0.3,1.1,0.5,1.7c1.6,4.2,4.3,5.7,7.9,4.3l0.8-0.3l-2.7-7.1l6.6-2.5l2.7,7.1l26.7-10.3L389,599.1z"/>
		<path class="st0" d="M376.9,579c-2.8,4.3-6.9,7-12.2,7.9c-5.3,1-10-0.1-14.2-3.1c-4.2-3.1-6.7-7.3-7.7-12.7s-0.1-10.3,2.7-14.7
			c2.8-4.3,6.8-7,12.1-8c5.3-1,10,0.1,14.2,3.2c4.1,3,6.7,7.2,7.7,12.7C380.6,569.7,379.7,574.6,376.9,579z M370.5,573.6
			c1.6-2.4,2.2-5,1.7-8c-0.5-2.9-2-5.2-4.4-6.8c-2.4-1.6-5.2-2.2-8.5-1.6c-3.2,0.6-5.6,2.1-7.3,4.5c-1.7,2.4-2.3,5-1.8,7.9
			c0.5,2.9,2,5.2,4.5,6.9c2.4,1.6,5.2,2.2,8.4,1.6C366.3,577.5,368.8,576,370.5,573.6z"/>
		<path class="st0" d="M376,539.8l-26.6-0.7c-1,0-1.6,0.4-1.6,1.5l-0.1,2.8l-7.6-0.2l0.2-8.2c0.1-3.1,1.6-4.6,4.5-4.6l2.1,0.1
			l2.2,0.2l0-0.1c-5.3-1.9-9-6.3-8.9-11.6l0.2-1.7l8.7,0.2c-0.1,0.6-0.2,1.4-0.2,2.2c-0.1,4.2,2.3,8.2,7.2,9.9
			c1.6,0.5,3.5,0.9,5.8,0.9l14.1,0.4L376,539.8z"/>
		<path class="st0" d="M375.2,514.4l-25.4-7.9c-1-0.3-1.6,0-1.9,1l-0.8,2.7l-7.2-2.2l2.5-7.9c0.9-3,2.7-4.1,5.2-3.3l1,0.3l1.4,0.5
			l0-0.1c-3.2-3-5.2-8.2-3.7-13.2c1.6-5.1,5-7.8,10.1-7.7l0-0.1c-3.3-3.2-5-8.7-3.4-13.8c2.3-7.4,7.8-9.8,16.4-7.1l13.3,4.1
			c1,0.3,1.6,0,1.9-1l0.8-2.7l7.2,2.2l-2.5,8.1c-1,3.1-2.7,4.1-5.9,3.1l-15.8-4.9c-4.3-1.4-7.2-1-8.3,2.6c-1.2,4,1.1,8.2,5.3,10.7
			c1.2,0.7,2.5,1.3,4.2,1.8l15,4.7l-2.6,8.5l-20.3-6.3c-4.3-1.3-7.1-1.2-8.3,2.5c-1.3,4.1,1.1,8.2,5.3,10.7c1.4,0.8,2.9,1.4,4.1,1.8
			l15,4.7L375.2,514.4z"/>
		<path class="st0" d="M396.7,457.3l-7.6-4.6l4.4-7.4l7.6,4.6L396.7,457.3z"/>
	</g>
	<g>
		<path class="st0" d="M644,221.2c5.4-2.4,11.1-2.5,16.9-0.2c3.7,1.4,6.9,3.7,8.7,5.5c1.8,1.8,3.2,3.6,3.6,4.5l0.3,0.8l-6.2,3.7
			c-0.2-0.4-0.5-0.8-1-1.5c-0.4-0.6-1.4-1.6-2.9-3c-1.5-1.4-3.2-2.4-5-3.1c-3.6-1.4-7-1.3-10.6,0.3c-3.5,1.5-6,4.3-7.6,8.3
			c-1.6,4.2-1.8,8.2-0.2,11.7c1.5,3.5,4.2,6.1,7.9,7.5c1.9,0.7,3.9,1.1,5.8,1.1c2-0.1,3.4-0.3,4.4-0.7l1.5-0.6l1.2-3
			c0.3-0.8,0.1-1.4-0.8-1.7l-2.4-0.9l2.4-6.3l6.5,2.6c2.6,1,3.3,2.6,2.3,5.3l-6.7,17.1l-6.3-2.5l0.7-1.9l0.7-1.7l-0.1,0
			c-0.3,0.1-0.6,0.3-2.6,0.8c-2.5,0.6-6.3,0.7-10.9-1.1c-5.4-2.1-9.3-5.8-11.6-11.1c-2.3-5.3-2.2-11.1,0.3-17.4
			C634.8,227.7,638.6,223.6,644,221.2z"/>
		<path class="st0" d="M681.4,248.2c4.1-1.2,8.1-0.8,12.2,1.5c3.8,2.1,6,4.9,6.8,8.5c0.8,3.5,0.2,7.2-1.8,10.9
			c-0.5,0.9-1,1.7-1.6,2.5l-18.7-10.2c-2,4.7,0,9.3,4.3,11.6c2.3,1.3,5.5,1.7,9.4,1.3l0,6.3c-3.5,0.7-8.7,0.3-13-2.1
			c-4.4-2.4-7.1-5.7-8.3-9.9c-1.2-4.2-0.7-8.3,1.5-12.3C674.3,252.1,677.4,249.4,681.4,248.2z M692.9,263.4c1.9-3.6,0.8-7-2.3-8.7
			c-3.4-1.9-7.1-0.9-9.7,2.2L692.9,263.4z"/>
		<path class="st0" d="M709.1,266.8l-3.3-2.2l3.4-5.1l3.5,2.4l4.7-7l6.2,4.1l-4.7,7l5.8,3.9l-3.4,5.1l-5.8-3.9l-6.9,10.4
			c-1.2,1.9-1.6,3.5-1,4.9c0.6,1.4,1.6,2.5,2.9,3.4l1.2,0.7l-3.7,5.6c-0.6-0.3-1.3-0.7-2.1-1.2c-1.8-1.2-3.1-2.3-4.6-4.5
			c-2.1-3-3-7.1,0.4-12.3L709.1,266.8z"/>
		<path class="st0" d="M743.6,289.5c4.4-0.3,8.5,1.3,12.3,4.7c1.2,1.1,2.2,2.2,3.1,3.6c0.9,1.3,1.5,2.8,1.8,4.6
			c0.3,1.7-0.1,3.2-1.2,4.4l-2.4,2.7l-5-4.5l1.1-1.3c1-1.1-0.1-3.3-1.7-4.8c-2-1.8-4.2-2.6-6.7-2.4c-2.5,0.2-4.6,1.4-6.5,3.4
			c-2,2.2-2.9,4.6-2.6,7.1c0.3,2.5,1.5,4.6,3.5,6.5c3,2.7,7.5,3.1,9,3l0.6,0l-1.2,6.1c-0.4,0.1-0.8,0.2-2.9,0c-1,0-2.1-0.2-3.1-0.5
			c-2-0.5-5-1.9-7.4-4c-3.7-3.4-5.7-7.2-6-11.5c-0.2-4.4,1.2-8.3,4.3-11.7C735.5,291.6,739.2,289.7,743.6,289.5z"/>
		<path class="st0" d="M751.3,328.2c0.2-4.4,2-8.2,5.5-11.3c3.5-3.1,7.5-4.4,11.9-4.1c4.5,0.4,8.3,2.4,11.4,6s4.7,7.6,4.6,12.1
			c-0.1,4.5-1.9,8.2-5.4,11.3c-3.5,3.1-7.5,4.4-11.9,4.1c-4.4-0.4-8.2-2.4-11.4-5.9C752.8,336.6,751.2,332.6,751.3,328.2z
			 M758.5,329.2c-0.1,2.5,0.6,4.7,2.4,6.7c1.7,1.9,3.8,2.9,6.3,3.1c2.5,0.1,4.8-0.7,7-2.6c2.1-1.8,3.2-4.1,3.4-6.6
			c0.2-2.5-0.6-4.7-2.3-6.7c-1.7-1.9-3.8-2.9-6.4-3.1c-2.5-0.1-4.8,0.7-6.9,2.6C759.8,324.5,758.7,326.7,758.5,329.2z"/>
		<path class="st0" d="M771.2,356.2l19.3-12.5c0.8-0.5,0.9-1.1,0.4-1.8l-1.3-2l5.5-3.5l3.9,6c1.5,2.3,1.2,4-0.7,5.3l-0.8,0.5
			l-1.2,0.7l0.1,0.1c3.7-0.5,8.3,1.1,10.8,4.9c2.5,3.9,2.4,7.6-0.5,11l0.1,0.1c4-0.5,8.6,1.5,11,5.4c3.6,5.6,2.2,10.6-4.4,14.9
			l-10.1,6.5c-0.8,0.5-0.9,1.1-0.4,1.8l1.3,2l-5.4,3.5l-4-6.2c-1.5-2.4-1.2-4.1,1.3-5.6l12-7.7c3.3-2.1,4.6-4.2,2.9-6.9
			c-2-3.1-6.1-3.8-10-2.4c-1.1,0.4-2.3,1-3.5,1.8l-11.4,7.3l-4.2-6.5l15.5-10c3.3-2.1,4.7-4.1,2.9-6.9c-2-3.1-6.1-3.8-10.1-2.4
			c-1.3,0.5-2.5,1.1-3.5,1.7l-11.4,7.3L771.2,356.2z"/>
		<path class="st0" d="M789,408.3l32.1-14.3c0.8-0.4,1-0.9,0.7-1.8l-1-2.2l6-2.7l2.8,6.3c1.1,2.4,0.7,3.9-1.1,4.7l-1.1,0.5l0,0.1
			c0.3,0.1,0.6,0,2.1,0.6c1.9,0.7,4.5,2.5,6.4,6.4c1.7,3.8,1.6,7.4-0.1,10.9c-1.7,3.5-4.8,6.2-9.1,8.2c-4.4,2-8.6,2.4-12.4,1.1
			c-3.8-1.2-6.5-3.7-8.1-7.4c-1.9-4.3-0.8-8.1-0.2-9.3l0.3-0.4l0-0.1c-0.6,0.4-1.4,0.8-2.4,1.2l-11.7,5.2L789,408.3z M811.7,408.6
			c-1.1,2-1.2,4.1-0.2,6.3c1.8,4,6.5,5.6,11.9,3.2c5.3-2.4,7.6-6.8,5.7-10.9c-1.8-4-6.2-5.8-12.1-3.2
			C814.6,405.1,812.8,406.6,811.7,408.6z"/>
		<path class="st0" d="M846.9,424.5c0.9-0.3,1.1-0.8,0.8-1.7l-0.8-2.3l6.2-2.1l2.4,6.9c0.9,2.7,0.1,4.2-2.6,5.2l-29.4,10.1
			c-0.9,0.3-1.1,0.8-0.8,1.7l0.8,2.3l-6.1,2.1l-2.4-6.9c-0.9-2.7-0.2-4.2,2.6-5.2L846.9,424.5z"/>
		<path class="st0" d="M845.6,446.2c3.7,2.1,6.1,5.4,7.2,9.9c1.1,4.2,0.5,7.7-1.6,10.8c-2,3-5.1,5.1-9.2,6.1c-1,0.3-2,0.4-2.9,0.5
			l-5.3-20.6c-4.9,1.7-6.8,6.3-5.6,11.1c0.7,2.6,2.5,5.2,5.5,7.7l-4.6,4.3c-2.8-2.1-6.1-6.2-7.4-10.9c-1.2-4.8-0.7-9.1,1.5-12.8
			c2.3-3.8,5.6-6.2,10-7.3C837.9,443.7,842,444.1,845.6,446.2z M842.3,465c3.9-1.1,5.7-4.1,4.8-7.6c-1-3.8-4.2-5.9-8.2-5.6
			L842.3,465z"/>
		<path class="st0" d="M850.9,479.1l-0.6-3.9l6-1l0.7,4.2l8.3-1.3l1.2,7.3l-8.3,1.3l1.1,6.9l-6,1l-1.1-6.9l-12.3,2
			c-2.2,0.4-3.6,1.2-4.2,2.6c-0.6,1.4-0.8,2.9-0.5,4.4l0.3,1.4l-6.6,1.1c-0.2-0.6-0.4-1.4-0.6-2.4c-0.3-2.1-0.4-3.9,0.1-6.5
			c0.8-3.6,3.1-7.1,9.3-8.1L850.9,479.1z"/>
		<path class="st0" d="M856.6,502.4c3.2,2.7,5,6.4,5.3,11c0.3,4.3-0.8,7.7-3.4,10.3c-2.5,2.6-6,4.1-10.2,4.4c-1,0.1-2,0.1-3,0
			l-1.5-21.2c-5.1,0.9-7.8,5-7.5,9.9c0.2,2.7,1.5,5.5,4,8.6l-5.3,3.4c-2.4-2.6-4.9-7.2-5.3-12.1c-0.4-5,0.9-9,3.8-12.3
			c2.9-3.3,6.6-5.1,11.1-5.4C849.5,498.6,853.4,499.7,856.6,502.4z M850.1,520.3c4-0.4,6.3-3.1,6.1-6.6c-0.3-3.9-3.1-6.5-7.1-7
			L850.1,520.3z"/>
		<path class="st0" d="M819,549.3l34.9,3.4c0.9,0.1,1.4-0.3,1.5-1.2l0.2-2.4l6.5,0.6l-0.7,6.9c-0.3,2.6-1.3,3.8-3.3,3.6l-1.2-0.1
			l0,0.1c0.2,0.2,0.5,0.3,1.6,1.6c1.4,1.5,2.7,4.4,2.4,8.7c-0.4,4.2-2.2,7.3-5.4,9.4c-3.2,2.2-7.2,3.1-12,2.6
			c-4.8-0.5-8.6-2.2-11.3-5.1c-2.7-2.9-3.8-6.4-3.4-10.5c0.5-4.7,3.3-7.5,4.4-8.1l0.5-0.3l0-0.1c-0.7,0-1.6,0-2.7-0.1l-12.7-1.2
			L819,549.3z M838.7,560.7c-2,1.2-3.1,3-3.3,5.4c-0.4,4.4,2.9,8.1,8.8,8.6c5.8,0.6,9.9-2.1,10.4-6.6c0.4-4.4-2.5-8.1-8.9-8.7
			C842.9,559.2,840.7,559.6,838.7,560.7z"/>
		<path class="st0" d="M843,591.6c0.4,1.5,0.6,3.1,0.6,5c0.1,3.9-0.4,5.9-0.9,8.6l-0.2,0.9l0.4,0.1c4.1,0.9,6.1-0.5,6.9-4.3
			c0.4-1.9,0.3-4.1-1.1-4.5l-1.6-0.3l1.5-7l3.2,0.7c2.6,0.6,4,2.8,4.2,5.6c0.2,2.8,0,4.8-0.4,6.7c-2.1,9.6-7.3,12.3-14.9,10.7
			l-11.2-2.4c-0.9-0.2-1.4,0.1-1.6,1l-0.5,2.4l-6.3-1.4l1.5-6.8c0.6-2.5,1.9-3.5,4.1-3.1l1.3,0.3l0-0.1c0,0.1-4.7-3.8-3.3-10.5
			c0.6-2.8,1.9-5,4-6.6c2.1-1.6,4.5-2.1,7.2-1.5C839.8,585.8,842.2,588.7,843,591.6z M830.1,596.3c-0.4,2,0,3.8,1.4,5.4
			c1.4,1.7,3.1,2.8,5,3.2l0.8,0.2l0.3-1.4c1.5-6.7,0.6-10.5-2.5-11.1C832.9,592.1,830.7,593.4,830.1,596.3z"/>
		<path class="st0" d="M816.6,613.9c-1.7,0.8-2.9,1.9-3.4,3.5c-0.7,2.2,0,4.2,2.1,6.1l1.9,1.7l25.2-2.5c0.8-0.1,1.3-0.5,1.6-1.3
			l0.3-0.9l6.2,2l-1.6,4.8c-0.7,2.1-1.8,2.8-4,3l-16.5,0.9l-4.2-0.3l0,0.1c1.5,0.8,2.7,1.6,3.6,2.3l13,9.8c1.7,1.2,2.1,2.8,1.5,4.8
			l-1.6,4.9l-6.2-2l0.3-0.9c0.3-0.9,0.1-1.5-0.5-2l-23-19.2c-4.4-3.7-5.7-8.6-4.2-13.1c0.9-2.8,3.1-5,4.4-5.9l1-0.6L816.6,613.9z"/>
		<path class="st0" d="M810.1,647.7l20.5,10.3c0.8,0.4,1.4,0.2,1.8-0.6l1.1-2.2l5.8,2.9l-3.2,6.4c-1.2,2.4-2.8,3.1-4.9,2.1l-0.8-0.4
			l-1.2-0.7l-0.1,0.1c2.3,3,3.3,7.7,1.2,11.8c-2.1,4.2-5.3,5.9-9.7,5.1l-0.1,0.1c2.4,3.2,3,8.2,0.9,12.3c-3,6-8.1,7.3-15,3.8
			l-10.8-5.4c-0.8-0.4-1.4-0.2-1.8,0.6l-1.1,2.2l-5.8-2.9l3.3-6.5c1.3-2.5,2.9-3.1,5.5-1.8l12.8,6.4c3.5,1.8,6,1.9,7.4-1
			c1.6-3.2,0.2-7.1-3-9.8c-0.9-0.8-2-1.5-3.3-2.1l-12.1-6.1l3.5-6.9l16.4,8.3c3.5,1.8,5.9,2,7.4-1c1.7-3.3,0.2-7.1-3-9.9
			c-1.1-0.9-2.2-1.6-3.3-2.1l-12.1-6.1L810.1,647.7z"/>
		<path class="st0" d="M805.3,712.9c0.8,4.2-0.2,8.1-2.8,11.9c-2.5,3.5-5.5,5.4-9.2,5.8c-3.6,0.4-7.2-0.6-10.6-3.1
			c-0.8-0.6-1.6-1.2-2.3-1.9l12.3-17.4c-4.5-2.6-9.2-1.1-12,2.9c-1.5,2.2-2.3,5.3-2.3,9.2l-6.2-0.7c-0.3-3.5,0.7-8.7,3.5-12.7
			c2.9-4.1,6.4-6.4,10.8-7.2c4.4-0.7,8.3,0.3,12,2.9C802.2,705.4,804.6,708.9,805.3,712.9z M788.9,722.6c3.3,2.3,6.8,1.6,8.9-1.3
			c2.2-3.2,1.7-7-1.1-9.9L788.9,722.6z"/>
		<path class="st0" d="M765.2,722.2l17.1,15.4c0.7,0.6,1.3,0.6,1.9-0.1l1.6-1.8l4.9,4.4l-4.7,5.3c-1.8,2-3.6,2.2-5.3,0.7l-0.7-0.6
			l-1-0.9l-0.1,0.1c1.4,3.5,1.2,8.3-2.5,12.4c-4.8,5.4-10.1,5.4-15.9,0.2l-9-8.1c-0.7-0.6-1.3-0.6-1.9,0.1l-1.6,1.8l-4.8-4.3
			l4.9-5.4c1.9-2.2,3.7-2.2,5.8-0.3l10.5,9.5c3.1,2.8,5.5,3.3,7.9,0.6c2.8-3.1,2.9-7,0.9-10.4c-0.7-1.1-1.6-2.2-2.7-3.2l-10.5-9.5
			L765.2,722.2z"/>
		<path class="st0" d="M756.1,768l3-2.7l4.1,4.5l-3.1,2.9l5.7,6.2l-5.5,5l-5.7-6.2l-5.2,4.7l-4.1-4.5l5.2-4.7l-8.4-9.2
			c-1.5-1.7-3-2.4-4.5-2.1c-1.5,0.3-2.8,0.9-4,2l-0.9,1l-4.5-5c0.4-0.5,1-1.1,1.7-1.8c1.6-1.4,3-2.5,5.5-3.4
			c3.4-1.3,7.6-1.2,11.8,3.4L756.1,768z"/>
		<path class="st0" d="M725.9,793.2l3.3-2.3l3.5,5l-3.5,2.4l4.9,6.9l-6.1,4.3l-4.9-6.9l-5.7,4.1l-3.5-5l5.7-4.1l-7.2-10.2
			c-1.3-1.8-2.7-2.7-4.2-2.7c-1.5,0.1-2.9,0.6-4.2,1.5l-1.1,0.9l-3.9-5.5c0.5-0.5,1.1-1,1.9-1.5c1.7-1.2,3.3-2.1,5.9-2.7
			c3.6-0.9,7.7-0.3,11.3,4.8L725.9,793.2z"/>
		<path class="st0" d="M695.4,788.8c4.3,1.1,7.7,3.6,10,7.7c2.3,4,2.8,8.2,1.6,12.4c-1.3,4.3-4,7.6-8.2,10c-4.1,2.4-8.4,3.1-12.7,2
			c-4.3-1-7.7-3.5-10-7.6s-2.8-8.2-1.5-12.5c1.3-4.2,4-7.5,8.1-9.9C686.8,788.5,691.1,787.8,695.4,788.8z M692.9,795.6
			c-2.4-0.6-4.7-0.4-7,0.9c-2.2,1.3-3.6,3.1-4.3,5.5c-0.6,2.5-0.3,4.9,1.2,7.4c1.4,2.4,3.3,4,5.7,4.7s4.8,0.4,7-0.9
			c2.2-1.3,3.6-3.1,4.3-5.6c0.6-2.4,0.3-4.9-1.1-7.3C697.3,797.9,695.3,796.3,692.9,795.6z"/>
		<path class="st0" d="M663.4,806.4c4.2,1.6,7.2,4.5,9,8.8c1.8,4.3,1.8,8.5,0,12.5c-1.8,4.1-4.9,7.1-9.3,8.9
			c-4.4,1.9-8.7,2-12.9,0.4c-4.2-1.5-7.2-4.4-9-8.7c-1.8-4.3-1.8-8.5,0-12.6c1.8-4,4.9-7,9.3-8.8C654.8,805,659.2,804.8,663.4,806.4
			z M660,812.8c-2.3-0.9-4.7-0.9-7.1,0.1c-2.3,1-4,2.7-4.9,5c-0.9,2.4-0.9,4.8,0.3,7.4c1.1,2.6,2.8,4.3,5.1,5.3s4.7,1,7,0
			c2.3-1,4-2.7,5-5.1c0.9-2.4,0.9-4.8-0.2-7.4C664.1,815.6,662.4,813.8,660,812.8z"/>
		<path class="st0" d="M641.5,848.6c0.3,0.9,0.8,1.1,1.7,0.9l2.3-0.7l2,6.2l-7,2.2c-2.7,0.9-4.2,0-5.1-2.7l-9.5-29.5
			c-0.3-0.9-0.8-1.1-1.7-0.9l-2.3,0.7l-2-6.2l7-2.2c2.7-0.9,4.2-0.1,5.1,2.7L641.5,848.6z"/>
		<path class="st0" d="M616,820l8.1,34.2c0.2,0.9,0.7,1.2,1.6,1l2.4-0.6l1.5,6.4l-7.1,1.7c-2.9,0.7-4.1,0.2-4.8-2.5l-4.5-19
			l-2.2,0.5c-1.4,0.3-2.2,0.9-2.6,1.8l-3.9,10.9l-8.4,2l5-13.1c0.4-1.3,1.1-2.3,1.4-2.6l0.3-0.2l0-0.1c-0.8-0.1-1.7-0.7-2.7-1.9
			l-5-5.7c-0.6-0.7-1.4-0.8-2.7-0.5l-2.1,0.5l-1.5-6.3l5.5-1.3c2.6-0.6,3.7-0.4,5.3,1.5l7.3,8.2c0.6,0.7,1.6,0.8,3,0.5l1.7-0.4
			l-3.1-13.1L616,820z"/>
		<path class="st0" d="M587.1,849.7c0.1,0.9,0.6,1.3,1.5,1.1l2.4-0.4l1,6.5l-7.2,1.1c-2.8,0.4-4.2-0.7-4.6-3.5l-2.8-18.7
			c-0.1-0.9-0.6-1.3-1.5-1.1l-2.4,0.4l-1-6.4l7.2-1.1c2.8-0.4,4.2,0.6,4.6,3.5L587.1,849.7z M588.7,862.5l1.1,7l-6.6,1l-1.1-7
			L588.7,862.5z"/>
		<path class="st0" d="M569.1,853.9l4-0.3l0.5,6.1l-4.2,0.4l0.7,8.4l-7.4,0.6l-0.7-8.4l-7,0.6l-0.5-6.1l7-0.6l-1.1-12.4
			c-0.2-2.2-0.9-3.7-2.3-4.4c-1.3-0.7-2.8-1-4.4-0.8l-1.4,0.2l-0.6-6.7c0.7-0.2,1.4-0.3,2.4-0.4c2.1-0.2,3.9-0.1,6.4,0.6
			c3.6,1,6.8,3.7,7.3,9.9L569.1,853.9z"/>
		<path class="st0" d="M529.7,855.5l4,0.2l-0.2,6.1l-4.2-0.2l-0.3,8.4l-7.4-0.3l0.3-8.4l-7-0.3l0.2-6.1l7,0.3l0.5-12.5
			c0.1-2.2-0.5-3.8-1.7-4.7c-1.2-0.8-2.7-1.3-4.2-1.4l-1.4,0.1l0.3-6.7c0.7-0.1,1.5-0.1,2.4-0.1c2.1,0.1,3.9,0.3,6.3,1.4
			c3.4,1.5,6.3,4.5,6.1,10.7L529.7,855.5z"/>
		<path class="st0" d="M508.3,833.5c2.8,3.5,3.9,7.5,3.2,12.2c-0.6,4.6-2.8,8.2-6.4,10.8c-3.7,2.6-7.8,3.6-12.6,2.9
			c-4.7-0.6-8.5-2.7-11.3-6.2c-2.8-3.4-3.9-7.5-3.3-12.1c0.6-4.6,2.8-8.2,6.4-10.9c3.6-2.6,7.7-3.5,12.5-2.9
			C501.6,828.1,505.4,830.1,508.3,833.5z M502.1,837.4c-1.5-2-3.5-3.2-6.1-3.5c-2.5-0.3-4.8,0.3-6.8,1.8c-2,1.6-3.2,3.7-3.6,6.5
			c-0.4,2.8,0.2,5.2,1.7,7.2c1.5,2,3.5,3.2,6.1,3.6c2.5,0.3,4.8-0.3,6.8-1.8c2-1.6,3.2-3.7,3.6-6.5
			C504.2,841.8,503.6,839.4,502.1,837.4z"/>
		<path class="st0" d="M459.5,820.7l-6.4,22.1c-0.3,0.9,0,1.4,0.9,1.7l2.3,0.7l-1.8,6.3l-6.8-2c-2.6-0.8-3.5-2.4-2.8-4.7l0.5-1.7
			l0.7-1.8l-0.1,0c-2.7,4-7.3,6.1-11.6,4.9l-1.4-0.5l2.1-7.3c0.5,0.2,1.1,0.5,1.8,0.6c3.5,1,7.4-0.1,9.9-3.9c0.8-1.2,1.5-2.7,2-4.6
			l3.4-11.7L459.5,820.7z"/>
		<path class="st0" d="M428.7,835.4c-0.3,0.8-0.1,1.4,0.7,1.7l2.2,0.9l-2.5,6l-6.8-2.8c-2.6-1.1-3.3-2.7-2.2-5.3l5.4-13.2
			c1.6-3.8,1.3-6.3-2-7.6c-2.5-1-4.8-0.9-7,0.4c-2.2,1.3-3.9,3.2-5,5.9l-5.4,13.1l-7.1-2.9l8.7-21.3c0.3-0.8,0.1-1.4-0.7-1.7
			l-2.2-0.9l2.5-6l6.6,2.7c2.5,1,3.3,2.6,2.4,4.7L416,810l-0.6,1.3l0.1,0c2.9-2.7,7.6-3.8,12.3-1.9c6.6,2.7,8.4,7.7,5.4,14.9
			L428.7,835.4z"/>
		<path class="st0" d="M403,799.4l-11.3,20c-0.4,0.8-0.3,1.4,0.5,1.8l2.1,1.2l-3.2,5.7l-6.2-3.5c-2.4-1.3-3-3-1.8-5l0.4-0.8l0.7-1.1
			l-0.1-0.1c-3.1,2.1-7.8,3-12.6,0.2c-6.3-3.5-7.4-8.7-3.6-15.5l5.9-10.5c0.4-0.8,0.3-1.4-0.5-1.8l-2.1-1.2l3.2-5.6l6.3,3.6
			c2.5,1.4,3,3.1,1.6,5.6l-7,12.3c-2,3.6-2,6.1,1.1,7.9c3.6,2,7.4,1.4,10.4-1.4c0.9-0.9,1.8-2,2.5-3.3l7-12.3L403,799.4z"/>
		<path class="st0" d="M346.3,783.3c-1.5-0.3-3.1-0.9-4.8-1.7c-3.5-1.7-5.1-3-7.2-4.7l-0.7-0.6l-0.3,0.3c-2.6,3.2-2.4,5.7,0.7,8.1
			c1.5,1.2,3.5,2.2,4.5,1l1-1.3l5.6,4.6l-2.1,2.5c-1.7,2.1-4.3,2.3-6.9,1.2c-2.6-1.1-4.3-2.2-5.8-3.4c-7.6-6.3-7.6-12.1-2.7-18.1
			l7.3-8.9c0.6-0.7,0.5-1.3-0.2-1.9l-1.9-1.5l4.1-5l5.4,4.4c2,1.7,2.3,3.3,0.8,5.1l-0.8,1l0.1,0.1c-0.1-0.1,5.6-2.5,10.8,1.8
			c2.2,1.8,3.5,4,4,6.5c0.5,2.6-0.2,4.9-2,7.1C352.9,783.1,349.2,783.9,346.3,783.3z M348,769.7c-1.5-1.3-3.4-1.7-5.5-1.2
			c-2.2,0.4-3.9,1.5-5.1,3l-0.5,0.7l1.1,0.9c5.3,4.4,9,5.3,11.1,2.8C350.4,774.1,350.2,771.5,348,769.7z"/>
		<path class="st0" d="M333.7,750.9l-16.6,15.9c-0.7,0.6-0.7,1.2,0,1.9l1.7,1.7l-4.7,4.5l-4.9-5.1c-1.9-2-2-3.7-0.3-5.3l0.7-0.6
			l1-0.9l-0.1-0.1c-3.6,1.1-8.3,0.6-12.2-3.4c-5-5.2-4.6-10.5,1-15.9l8.7-8.3c0.7-0.6,0.7-1.2,0-1.9l-1.6-1.7l4.7-4.5l5,5.2
			c2,2.1,2,3.8-0.1,5.8l-10.2,9.8c-3,2.9-3.7,5.2-1.2,7.9c2.9,3,6.7,3.4,10.3,1.7c1.2-0.6,2.3-1.5,3.3-2.5l10.2-9.8L333.7,750.9z"/>
		<path class="st0" d="M286,739.1c-3.9-0.3-7.2-2.1-9.6-5.4c-3.2-4.3-2.9-7.8-2.5-9l0.1-0.4l-0.1-0.1c-0.4,0.4-0.8,0.8-1.4,1.2
			l-4.4,3.3c-0.7,0.5-0.8,1.1-0.3,1.9l1.4,1.9l-5.2,3.9l-4.4-5.9c-1.7-2.3-1.4-4,0.9-5.7l24.9-18.6c0.7-0.5,0.8-1.1,0.3-1.9
			l-1.4-1.9l5.2-3.9l4.2,5.7c1.6,2.1,1.5,3.7-0.2,5l-1,0.6l0.1,0.1c0.1,0,5.5-1,9.8,4.8c2.5,3.3,3.3,6.9,2.4,10.7
			c-0.9,3.8-3.3,7.1-7.1,9.9C293.8,738.1,289.9,739.4,286,739.1z M296.2,717c-2.6-3.5-7.3-4.3-12.4-0.4c-2.1,1.6-3.4,3.4-4.1,5.6
			c-0.7,2.2-0.4,4.3,1.1,6.3c2.6,3.5,7.6,4,12.3,0.5C297.7,725.5,298.9,720.7,296.2,717z"/>
		<path class="st0" d="M281.6,677.1c0.1-2.9-0.6-5.7-2-8.5c-2.3-4.6-6-6.8-10.7-4.4l-1.3,0.7l-1.5,0.7l0.1,0.1
			c3.2,0.5,5.7,2.4,7.4,5.9c1.9,3.8,2.1,7.5,0.6,11.1c-1.6,3.6-4.3,6.3-8.3,8.3c-3.9,2-7.8,2.6-11.5,1.7c-3.7-0.9-6.5-3.2-8.4-7
			c-2.5-5-1.3-8.8-0.7-10l0.3-0.4l-0.1-0.1c-0.2,0.2-0.4,0.3-0.7,0.4c-1.4,0.7-3.1,0.2-4.1-1.8l-3.2-6.4l5.8-2.9l1.1,2.1
			c0.4,0.8,1,1,1.7,0.6l19-9.6c9.5-4.8,16.7,0.8,20.4,8c1.8,3.5,2.6,7.2,2.6,11L281.6,677.1z M255.8,670.7
			c-5.3,2.7-6.8,6.3-4.5,10.8c2.1,4.1,6.2,5,10.9,2.6c5-2.5,7.1-6.8,4.9-11.1C265.2,669.2,261.5,667.8,255.8,670.7z"/>
		<path class="st0" d="M263.5,648.5l-21.5,8.3c-0.8,0.3-1.1,0.9-0.8,1.7l0.9,2.3l-6.1,2.4l-2.5-6.6c-1-2.5-0.3-4.2,2-5.1l1.7-0.7
			l1.9-0.6l0-0.1c-4.8,0.2-9.3-2.1-10.9-6.3l-0.4-1.4l7.1-2.7c0.1,0.5,0.3,1.2,0.6,1.8c1.3,3.4,4.6,5.8,9.1,5.5
			c1.5-0.1,3.1-0.5,4.9-1.2l11.4-4.4L263.5,648.5z"/>
		<path class="st0" d="M251.3,626.7c-2.1,3.9-5.4,6.5-9.9,7.8c-4.5,1.2-8.7,0.7-12.4-1.6c-3.8-2.3-6.4-5.8-7.6-10.4
			c-1.3-4.6-0.9-8.9,1.2-12.8c2-4,5.3-6.6,9.8-7.8c4.5-1.2,8.7-0.7,12.5,1.6c3.8,2.3,6.3,5.7,7.6,10.3
			C253.7,618.4,253.3,622.7,251.3,626.7z M245.3,622.5c1.2-2.2,1.5-4.5,0.8-7c-0.7-2.5-2.1-4.3-4.3-5.5c-2.2-1.2-4.7-1.5-7.4-0.7
			c-2.7,0.7-4.7,2.2-5.9,4.4c-1.3,2.2-1.6,4.5-0.9,7c0.7,2.5,2.1,4.3,4.4,5.6c2.2,1.2,4.7,1.5,7.4,0.7
			C242,626.2,244,624.7,245.3,622.5z"/>
		<path class="st0" d="M245.3,587.3l-22.1,10.2c-0.7,0.3-1,0.9-0.9,1.8l0.1,0.8l-6.5,0.8l-0.7-5.2c-0.3-2.6,0.3-3.8,2.6-4.7
			l16.4-6.7l3.2-1l0-0.1c-1.1,0-2.2-0.1-3.3-0.3l-20.7-3.2l-0.9-6.7l19.3-8.2l3.2-1.1l0-0.1c-1.1,0-2.2,0-3.3-0.2l-17.6-2.4
			c-2.4-0.2-3.3-1.3-3.7-3.9l-0.7-5.2l6.5-0.8l0.1,0.9c0.1,0.8,0.5,1.3,1.3,1.5l24,4.4l1.1,8.6l-16.8,7.4l-3.2,1.1l0,0.1
			c1.2,0,2.3,0.2,3.4,0.4l18.1,3L245.3,587.3z"/>
		<path class="st0" d="M224.4,525.6c-0.6-1.4-1.1-3-1.4-4.9c-0.7-3.9-0.5-5.9-0.3-8.6l0.1-1l-0.4,0c-4.2-0.3-6,1.4-6.2,5.3
			c-0.1,1.9,0.3,4.1,1.8,4.2l1.6,0.1l-0.5,7.2l-3.3-0.2c-2.7-0.2-4.4-2.2-5-4.9c-0.6-2.7-0.7-4.7-0.6-6.7
			c0.6-9.8,5.4-13.2,13.2-12.7l11.5,0.8c0.9,0.1,1.4-0.3,1.4-1.2l0.2-2.4l6.5,0.4l-0.5,6.9c-0.2,2.6-1.4,3.8-3.6,3.6l-1.3-0.1l0,0.1
			c0-0.1,5.3,3.1,4.8,9.9c-0.2,2.8-1.2,5.2-3,7.1c-1.8,1.9-4.1,2.7-6.9,2.5C228.4,530.8,225.6,528.3,224.4,525.6z M236.5,519
			c0.1-2-0.6-3.7-2.2-5.2c-1.6-1.5-3.4-2.3-5.4-2.4l-0.8-0.1l-0.1,1.4c-0.5,6.9,1,10.4,4.2,10.6C234.3,523.5,236.3,521.9,236.5,519z
			"/>
		<path class="st0" d="M243.4,496.5l-22.6-4.2c-0.9-0.2-1.4,0.2-1.6,1.1l-0.4,2.4l-6.4-1.2l1.3-7c0.5-2.7,1.9-3.8,4.1-3.4l0.9,0.2
			l1.3,0.3l0-0.1c-3-2.3-5.3-6.4-4.3-11.9c1.3-7.1,5.8-9.9,13.5-8.4l11.8,2.2c0.9,0.2,1.4-0.2,1.6-1.1l0.4-2.3l6.4,1.2l-1.3,7.1
			c-0.5,2.9-1.9,3.8-4.8,3.3l-13.9-2.6c-4-0.8-6.4,0-7.1,3.6c-0.8,4,1.1,7.5,4.7,9.4c1.2,0.6,2.5,1,3.9,1.3l13.9,2.6L243.4,496.5z"
			/>
		<path class="st0" d="M252.3,442c-4,1.9-8.2,2.1-12.6,0.5c-4.4-1.6-7.4-4.5-9.1-8.6c-1.7-4.1-1.8-8.4-0.1-12.9
			c1.7-4.5,4.5-7.7,8.5-9.7c4-2,8.2-2.2,12.5-0.5c4.4,1.6,7.4,4.5,9.2,8.7c1.7,4.1,1.7,8.3,0,12.8C259.1,436.7,256.2,440,252.3,442z
			 M249.8,435.1c2.3-1,3.9-2.7,4.8-5.2c0.9-2.4,0.8-4.7-0.2-7c-1.1-2.3-2.9-3.9-5.6-4.9c-2.6-1-5.1-0.9-7.4,0.1
			c-2.3,1-3.9,2.7-4.8,5.1c-0.9,2.4-0.8,4.7,0.3,7.1c1.1,2.3,2.9,3.9,5.5,4.9C245.1,436.2,247.5,436.1,249.8,435.1z"/>
		<path class="st0" d="M268.4,411.3L248,400.6c-0.8-0.4-1.4-0.2-1.8,0.6l-1.1,2.1l-5.8-3l3.3-6.3c1.3-2.4,2.9-3.1,4.9-2l0.8,0.4
			l1.2,0.7l0.1-0.1c-2.2-3.1-3.2-7.7-0.6-12.6c3.3-6.4,8.5-7.7,15.4-4.1l10.7,5.6c0.8,0.4,1.4,0.2,1.8-0.6l1.1-2.1l5.7,3l-3.4,6.4
			c-1.4,2.6-3,3.1-5.6,1.7l-12.5-6.6c-3.6-1.9-6.1-1.9-7.8,1.4c-1.9,3.6-1.1,7.5,1.7,10.3c1,0.9,2.1,1.7,3.4,2.4l12.5,6.6
			L268.4,411.3z"/>
		<path class="st0" d="M256.6,360.2c-0.8-0.5-1.3-0.4-1.8,0.4l-1.3,2l-5.5-3.5l4-6.1c1.5-2.4,3.3-2.7,5.7-1.2l26.1,16.9
			c0.8,0.5,1.3,0.4,1.8-0.4l1.3-2l5.4,3.5l-4,6.1c-1.5,2.4-3.2,2.7-5.7,1.2L256.6,360.2z"/>
		<path class="st0" d="M266.7,343.7l-5.7-4.2l3.9-5.4l5.7,4.2L266.7,343.7z M276.9,351.6c-0.7-0.5-1.3-0.4-1.9,0.3l-1.4,2l-5.3-3.8
			l4.3-5.9c1.7-2.3,3.4-2.5,5.7-0.9l15.3,11.2c0.7,0.5,1.3,0.4,1.9-0.3l1.4-2l5.2,3.8l-4.3,5.9c-1.7,2.3-3.4,2.6-5.7,0.9
			L276.9,351.6z"/>
		<path class="st0" d="M305.2,351.7L288,336.5c-0.7-0.6-1.3-0.6-1.9,0.1l-1.6,1.8l-4.9-4.3l4.7-5.3c1.8-2,3.5-2.3,5.3-0.8l0.7,0.6
			l1,0.9l0.1-0.1c-1.4-3.5-1.3-8.2,2.4-12.4c4.8-5.4,10.1-5.5,15.9-0.3l9,8c0.7,0.6,1.3,0.6,1.9-0.1l1.6-1.8l4.9,4.3l-4.8,5.4
			c-1.9,2.2-3.6,2.3-5.8,0.4l-10.6-9.4c-3.1-2.7-5.5-3.3-7.9-0.5c-2.7,3.1-2.9,7-0.8,10.4c0.7,1.1,1.6,2.2,2.7,3.1l10.6,9.4
			L305.2,351.7z"/>
		<path class="st0" d="M313.3,303.1c0.2-4.2,2-7.9,5.4-11c3.2-2.9,6.6-4.1,10.3-3.6c3.6,0.4,6.9,2.2,9.7,5.4
			c0.7,0.8,1.3,1.5,1.8,2.4l-15.9,14.2c3.8,3.5,8.7,3.1,12.4-0.1c2-1.8,3.4-4.6,4.3-8.4l5.9,2.1c-0.5,3.5-2.6,8.3-6.3,11.6
			c-3.7,3.3-7.7,4.8-12.1,4.6c-4.4-0.3-8.1-2.1-11.1-5.5C314.6,311.1,313.1,307.2,313.3,303.1z M331.5,297.3c-2.8-3-6.3-3.1-9-0.8
			c-2.9,2.6-3.3,6.4-1.2,9.8L331.5,297.3z"/>
		<path class="st0" d="M365.9,294.5l-18.8-29.6c-0.5-0.8-1.1-0.9-1.8-0.4l-2,1.3l-3.5-5.5l6.2-3.9c2.4-1.5,4.1-1.1,5.6,1.3l4.8,7.6
			l1.3,2.3l0.1-0.1c0-0.3-0.1-0.5,0.4-2c0.5-2,1.8-4.5,5.1-6.6c3.5-2.2,7.1-2.7,10.8-1.6c3.7,1.2,6.9,3.8,9.4,7.9
			c2.6,4.1,3.6,8.1,2.9,12.1s-2.7,7-6.3,9.2c-4.3,2.8-8.2,1.9-9.5,1.5l-0.5-0.2l-0.1,0.1c0.3,0.4,0.7,1,1.2,1.7l0.8,1.3L365.9,294.5
			z M369.4,282.2c2.1,0.9,4.2,0.6,6.2-0.7c3.7-2.4,4.6-7.3,1.5-12.3c-3.1-4.9-7.8-6.5-11.7-4.1c-3.7,2.3-4.8,6.9-1.3,12.4
			C365.5,279.8,367.2,281.4,369.4,282.2z"/>
		<path class="st0" d="M386.6,254.9c-0.4-0.8-1-1-1.8-0.6l-2.2,1l-2.8-5.9l6.6-3.1c2.6-1.2,4.2-0.6,5.4,1.9l6.1,12.8
			c1.8,3.7,3.8,5.2,7,3.6c2.4-1.1,3.9-3,4.4-5.4c0.6-2.5,0.2-5.1-1-7.7l-6.1-12.8l6.9-3.3l9.9,20.8c0.4,0.8,1,1,1.8,0.6l2.2-1
			l2.8,5.8l-6.4,3c-2.5,1.2-4.2,0.7-5.1-1.4l-0.4-0.8l-0.5-1.3l-0.1,0.1c0.1,3.9-2.3,8.2-6.9,10.4c-6.4,3-11.3,1-14.7-6L386.6,254.9
			z"/>
		<path class="st0" d="M425.9,256.8l1.8-5.9c0.3,0.1,0.6,0.4,2.1,0.9c2.1,0.8,5,1.4,8.1,0.3c2.3-0.8,3.5-2.4,2.9-4.2
			c-0.5-1.4-3.3-1.8-6.8-1.9c-4.8,0-11.5-0.7-13.3-6.2c-1-2.8-0.6-5.3,1-7.5c1.7-2.2,4.1-3.9,7.3-5c1.5-0.5,3.1-0.9,4.6-1
			c1.5-0.2,3.1,0,4.6,0.5c1.5,0.6,2.6,1.5,3.1,3l1.1,3l-6.3,2.2l-0.5-1.4c-0.5-1.3-2.6-1.4-4.4-0.8c-3.9,1-5,4.9-1,5.8
			c2.5,0.5,6.1,0.3,9.6,0.6c3.5,0.3,6.9,2.1,8.1,5.7c0.9,2.7,0.6,5.2-0.9,7.6c-1.6,2.3-3.9,4.1-7.2,5.2c-6.3,2.2-11.5,0.3-13.3-0.6
			L425.9,256.8z"/>
		<path class="st0" d="M450.7,229.5c-0.2-0.9-0.8-1.2-1.6-0.9l-2.3,0.6l-1.7-6.3l7.1-1.9c2.7-0.7,4.2,0.2,5,2.9l4.9,18.3
			c0.2,0.9,0.8,1.2,1.6,0.9l2.3-0.6l1.7,6.3l-7.1,1.9c-2.7,0.7-4.2-0.1-5-2.9L450.7,229.5z M447.7,217l-1.8-6.8l6.4-1.7l1.8,6.8
			L447.7,217z"/>
		<path class="st0" d="M472.7,247.4l-3.9-22.7c-0.2-0.9-0.6-1.2-1.5-1.1l-2.4,0.4l-1.1-6.4l7-1.2c2.7-0.5,4.2,0.5,4.6,2.7l0.2,0.9
			l0.2,1.3l0.1,0c1.1-3.6,4.2-7.2,9.7-8.2c7.1-1.2,11.3,2.1,12.6,9.8l2,11.9c0.2,0.9,0.6,1.2,1.5,1.1l2.3-0.4l1.1,6.4l-7.2,1.2
			c-2.9,0.5-4.3-0.5-4.7-3.4l-2.4-14c-0.7-4.1-2.2-6-5.8-5.4c-4.1,0.7-6.6,3.6-7.2,7.6c-0.1,1.3-0.1,2.7,0.2,4.1l2.4,14L472.7,247.4
			z"/>
		<path class="st0" d="M509.5,214.7c2.8-3.2,6.5-4.9,11.1-5.1c4.3-0.2,7.7,1,10.2,3.7c2.6,2.6,3.9,6,4.2,10.3c0.1,1,0,2-0.1,3
			l-21.3,1.1c0.7,5.1,4.8,7.9,9.7,7.7c2.7-0.1,5.6-1.4,8.7-3.8l3.3,5.3c-2.6,2.4-7.3,4.8-12.2,5c-5,0.2-9-1.1-12.3-4
			c-3.2-3-4.9-6.7-5.2-11.3C505.5,221.7,506.8,217.8,509.5,214.7z M527.3,221.6c-0.3-4-2.9-6.4-6.5-6.2c-3.9,0.2-6.6,2.9-7.1,6.9
			L527.3,221.6z"/>
		<path class="st0" d="M538.6,235.8l3.9-4.8c0.2,0.3,0.4,0.6,1.6,1.7c1.6,1.5,4.1,3.2,7.4,3.3c2.4,0.1,4.2-0.9,4.3-2.8
			c0.1-1.5-2.4-3-5.5-4.3c-4.5-1.9-10.4-4.9-9.9-10.7c0.1-3,1.4-5.1,3.7-6.5c2.4-1.4,5.3-2,8.6-1.9c1.6,0.1,3.2,0.3,4.7,0.8
			c1.5,0.4,2.9,1.1,4.1,2.2s1.8,2.4,1.7,4l-0.2,3.2l-6.7-0.3l0.1-1.5c0.1-1.4-1.9-2.3-3.8-2.4c-4-0.5-6.4,2.6-3.1,5
			c2.2,1.4,5.6,2.6,8.6,4.2c3.1,1.6,5.6,4.5,5.4,8.3c-0.1,2.8-1.4,5.1-3.7,6.7c-2.3,1.6-5.1,2.3-8.6,2.1c-6.7-0.3-10.8-4-12.1-5.6
			L538.6,235.8z"/>
		<path class="st0" d="M566.1,237.3l4.3-4.5c0.2,0.3,0.3,0.6,1.5,1.8c1.5,1.6,3.8,3.5,7.1,4c2.4,0.3,4.2-0.5,4.5-2.4
			c0.2-1.5-2.1-3.2-5.1-4.8c-4.3-2.3-9.9-5.9-8.9-11.6c0.4-2.9,1.9-5,4.3-6.2c2.5-1.2,5.4-1.5,8.8-1.1c1.6,0.2,3.2,0.6,4.6,1.2
			c1.5,0.5,2.7,1.4,3.8,2.6c1.1,1.2,1.6,2.6,1.4,4.1l-0.5,3.2l-6.7-1l0.2-1.5c0.2-1.4-1.7-2.4-3.6-2.7c-4-0.9-6.7,2-3.5,4.7
			c2,1.6,5.3,3.1,8.2,5c3,1.9,5.1,5,4.6,8.8c-0.4,2.8-1.9,4.9-4.3,6.3c-2.5,1.4-5.3,1.8-8.7,1.3c-6.7-1-10.4-5-11.5-6.7L566.1,237.3
			z"/>
		<path class="st0" d="M594.3,246.6l1.6-7.5l7.3,1.6l-1.6,7.5L594.3,246.6z"/>
	</g>
	<g>
		<path class="st1" d="M322.1,548.3h-32.8c-4.1,0-8.1,1.7-11,4.6c-2.9,2.9-4.6,6.9-4.6,11v12.5h-6.3v-12.5c0-5.8,2.3-11.4,6.4-15.5
			c4.1-4.1,9.7-6.4,15.5-6.4H322c2.7,0.1,5.4-0.4,7.9-1.4c2.5-1,4.8-2.5,6.8-4.4c1.9-1.9,3.5-4.2,4.5-6.7c1.1-2.5,1.6-5.2,1.6-7.9
			s-0.5-5.4-1.6-7.9c-1.1-2.5-2.6-4.8-4.5-6.7c-1.9-1.9-4.2-3.4-6.8-4.4c-2.5-1-5.2-1.5-7.9-1.4l-42.2,0v-6.3H322
			c7,0,13.8,2.8,18.8,7.8c5,5,7.8,11.7,7.8,18.8s-2.8,13.8-7.8,18.8C335.8,545.5,329.1,548.3,322.1,548.3L322.1,548.3z M344.9,576.4
			h-7L327,554.1c2.1-0.3,4.2-0.8,6.2-1.6L344.9,576.4z M279.8,507.7H322c3.7,0,7.3,1.5,9.9,4.1c2.6,2.6,4.1,6.2,4.1,9.9
			c0,3.7-1.5,7.3-4.1,9.9c-2.6,2.6-6.2,4.1-9.9,4.1h-32.8c-3.2,0-6.4,0.6-9.4,1.7L279.8,507.7z M354.9,521.7c0-8.7-3.5-17-9.6-23.2
			c-6.1-6.1-14.5-9.6-23.2-9.6l-48.5,0l0,51.6c-2.4,1.6-4.5,3.6-6.3,5.9l0-57.6h-6.2l0,93.8h18.7v-18.8c0-2.5,1-4.9,2.8-6.6
			c1.8-1.8,4.1-2.7,6.6-2.7h31.1l12,24.6c0.5,1.1,1.3,1.9,2.3,2.6c1,0.6,2.1,1,3.3,1h17l-16.1-32.9c4.9-2.9,8.9-7,11.7-11.9
			S354.8,527.4,354.9,521.7z"/>
		<path class="st1" d="M214.2,495.2l21.9,0v6.3l-21.9,0c-4.1,0-8.1,1.7-11,4.6c-2.9,2.9-4.6,6.9-4.6,11l0,59.4h-6.3l0-59.4
			c0-2.9,0.6-5.7,1.7-8.4c1.1-2.7,2.7-5.1,4.7-7.1c2-2,4.4-3.6,7.1-4.7C208.5,495.7,211.3,495.2,214.2,495.2L214.2,495.2z
			 M148.6,495.2h48.2c-2.3,1.8-4.3,3.9-5.9,6.3l-42.3,0v6.3l39.2,0c-1.1,3-1.7,6.2-1.7,9.4l0,65.6h18.8l0-65.6c0-2.5,1-4.9,2.7-6.6
			c1.8-1.8,4.1-2.7,6.6-2.7h21.9c1.7,0,3.2-0.7,4.4-1.8c1.2-1.2,1.8-2.8,1.8-4.4v-12.5l-93.7,0V495.2z"/>
		<path class="st1" d="M870.5,501.4c6.8,0,13.4,2,19.1,5.8c5.7,3.8,10.1,9.1,12.7,15.4c2.6,6.3,3.3,13.2,2,19.9
			c-1.3,6.7-4.6,12.8-9.4,17.6c-4.8,4.8-10.9,8.1-17.6,9.4c-6.7,1.3-13.6,0.6-19.9-2c-6.3-2.6-11.6-7-15.4-12.7
			c-3.8-5.7-5.8-12.3-5.8-19.1c0-9.1,3.6-17.9,10.1-24.3S861.4,501.4,870.5,501.4z M870.5,582.7c-12.4,0-24.3-5-33.1-13.7
			c-8.8-8.8-13.7-20.7-13.8-33.1c0-1.4,0.1-2.7,0.2-4.1c1-10,5.7-19.3,13.2-26c7.5-6.7,17.2-10.5,27.2-10.5c1.1,0,2.1,0.1,3.1,0.2
			c-7.9,0.6-15.4,3.5-21.7,8.3c-6.3,4.8-11,11.4-13.6,18.8c-2.6,7.5-3,15.5-1.1,23.2c1.9,7.7,6,14.6,11.8,20s13,8.9,20.8,10.2
			c7.8,1.3,15.8,0.3,23-2.8c7.2-3.2,13.4-8.4,17.7-15c4.3-6.6,6.6-14.3,6.6-22.2c0-11.9-4.5-23.3-12.7-32
			c-8.1-8.7-19.2-13.9-31.1-14.7c1-0.1,2.1-0.2,3.1-0.2c12.3,0.2,24,5.2,32.6,14c8.6,8.8,13.4,20.6,13.4,32.9s-4.8,24.1-13.4,32.9
			C894.6,577.5,882.8,582.5,870.5,582.7L870.5,582.7z M870.5,482.7c-14,0-27.5,5.5-37.4,15.4c-9.9,9.9-15.6,23.3-15.7,37.3
			c0,0.1,0,0.3,0,0.4c0,10.5,3.1,20.8,9,29.5c5.8,8.7,14.1,15.5,23.8,19.6c9.7,4,20.4,5.1,30.7,3c10.3-2,19.8-7.1,27.2-14.5
			c7.4-7.4,12.5-16.9,14.5-27.2c2-10.3,1-21-3-30.7c-4-9.7-10.8-18-19.6-23.8C891.3,485.8,881.1,482.7,870.5,482.7L870.5,482.7z"/>
		<path class="st1" d="M386.1,566.4l-4.9,10h-7l6.1-12.5h7.4C387.1,564.7,386.6,565.6,386.1,566.4z M403.4,545.2l14.2-29.2
			c0.3-0.5,0.7-1,1.2-1.3c0.5-0.3,1.1-0.5,1.6-0.5c0.6,0,1.2,0.2,1.6,0.5c0.5,0.3,0.9,0.7,1.2,1.3l14.3,29.2L403.4,545.2z
			 M389.5,545.2l24-49.1l5.9,12.1c-1.6,0.2-3.1,0.7-4.4,1.6c-1.3,0.9-2.3,2.1-3,3.5l-15.6,31.9H389.5z M424,488.9l42.8,87.5h-7
			L417,488.9h-7l-30.5,62.5h61.1l3.1,6.2l-63.2,0c-1.2,0-2.3,0.3-3.3,0.9s-1.8,1.5-2.3,2.6l-10.5,21.5l16.9,0c1.2,0,2.3-0.3,3.3-1
			c1-0.6,1.8-1.5,2.3-2.6l4.9-10c0.8-1.6,2-2.9,3.5-3.8s3.2-1.4,4.9-1.4h46.6l7.5,15.3c0.5,1.1,1.3,1.9,2.3,2.6c1,0.6,2.1,1,3.3,1
			h17l-45.8-93.8H424z"/>
		<path class="st1" d="M573.6,495.2l0,79.2l-12.8-17.1h0.2c1.9-0.6,3.5-1.8,4.7-3.4c1.2-1.6,1.8-3.5,1.8-5.5v-53.2H573.6z
			 M561.1,495.2l0,53.2c0,0.7-0.2,1.3-0.6,1.8c-0.4,0.5-0.9,0.9-1.6,1.1c-0.6,0.2-1.3,0.2-1.9,0c-0.6-0.2-1.2-0.6-1.6-1.1l-46-61.3
			h-7.8l70.3,93.8h7.8v-93.8h-12.5c-1.6,0-3.2,0.7-4.4,1.8C561.8,491.9,561.1,493.5,561.1,495.2z"/>
		<path class="st1" d="M505,514.4c-1.9,0.6-3.5,1.8-4.7,3.4c-1.2,1.6-1.8,3.5-1.7,5.5v53.1h-6.2l0-79.2l12.8,17.1L505,514.4z
			 M486.1,488.9l0,93.8h12.5c1.7,0,3.2-0.7,4.4-1.8c1.2-1.2,1.8-2.8,1.8-4.4v-53.1c0-0.7,0.2-1.3,0.6-1.8c0.4-0.5,0.9-0.9,1.5-1.1
			c0.6-0.2,1.3-0.2,1.9,0c0.6,0.2,1.2,0.6,1.6,1.1l45.9,61.3h7.8L494,488.9H486.1z"/>
		<path class="st1" d="M686.1,576.4h-79.2l17.1-12.8c0,0.1,0,0.1,0,0.2c0.6,1.9,1.8,3.5,3.4,4.7c1.6,1.2,3.5,1.8,5.5,1.8l53.1,0
			L686.1,576.4z M686.1,563.9H633c-0.7,0-1.3-0.2-1.8-0.6c-0.5-0.4-0.9-0.9-1.1-1.5c-0.2-0.6-0.2-1.3,0-1.9c0.2-0.6,0.6-1.2,1.1-1.6
			l61.3-45.9v-7.8l-93.8,70.3v7.8l93.8,0v-12.5c0-1.7-0.7-3.2-1.8-4.4C689.4,564.6,687.8,563.9,686.1,563.9z"/>
		<path class="st1" d="M604.9,495.2l79.2,0L667,508c0,0,0-0.1,0-0.2c-0.6-1.9-1.8-3.5-3.4-4.7c-1.6-1.2-3.5-1.8-5.5-1.7h-53.2V495.2
			z M598.6,501.4c0,1.7,0.7,3.2,1.8,4.4c1.2,1.2,2.8,1.8,4.4,1.8l53.2,0c0.7,0,1.3,0.2,1.8,0.6s0.9,0.9,1.1,1.5
			c0.2,0.6,0.2,1.3,0,1.9c-0.2,0.6-0.6,1.2-1.1,1.6l-61.3,46v7.8l93.8-70.3v-7.8l-93.8,0V501.4z"/>
		<path class="st1" d="M798.7,576.4h-79.2l17.1-12.8c0,0.1,0,0.1,0,0.2c0.6,1.9,1.8,3.5,3.4,4.7c1.6,1.2,3.5,1.8,5.5,1.7h53.1
			L798.7,576.4z M798.7,563.9h-53.1c-0.7,0-1.3-0.2-1.8-0.6s-0.9-0.9-1.1-1.5c-0.2-0.6-0.2-1.3,0-1.9c0.2-0.6,0.6-1.2,1.1-1.6
			l61.3-45.9v-7.8l-93.8,70.3v7.8h93.8v-12.5c0-1.7-0.7-3.2-1.8-4.4C801.9,564.6,800.3,563.9,798.7,563.9z"/>
		<path class="st1" d="M717.4,495.2l79.2,0L779.5,508c0-0.1,0-0.1,0-0.2c-0.6-1.9-1.8-3.5-3.4-4.7c-1.6-1.2-3.5-1.8-5.5-1.7l-53.2,0
			V495.2z M711.1,501.4c0,1.7,0.7,3.3,1.8,4.4c1.2,1.2,2.8,1.8,4.4,1.8l53.1,0c0.7,0,1.3,0.2,1.8,0.6c0.5,0.4,0.9,0.9,1.1,1.5
			c0.2,0.6,0.2,1.3,0,1.9c-0.2,0.6-0.6,1.2-1.1,1.6l-61.3,46v7.8l93.8-70.3v-7.8l-93.8,0L711.1,501.4z"/>
	</g>
</g>
</svg>
