<?xml version="1.0" encoding="UTF-8"?>
<svg version="1.1" viewBox="0 0 318 91" xmlns="http://www.w3.org/2000/svg">
<title>logo</title>
<desc>Created with Sketch.</desc>
<defs>
<linearGradient id="b" x1="2.2737e-13%" y1="50.02%" y2="50.02%">
<stop stop-color="#08FFFF" offset="0"/>
<stop stop-color="#421ADE" offset="1"/>
</linearGradient>
<linearGradient id="a" x1="1.0369e6%" x2="1.0469e6%" y1="-2.7228e5%" y2="-2.7228e5%">
<stop stop-color="#08FFFF" offset="0"/>
<stop stop-color="#421ADE" offset="1"/>
</linearGradient>
</defs>
<g fill="none" fill-rule="evenodd">
<g fill-rule="nonzero">
<g transform="translate(110 34)" fill="#0cf">
<path d="m0.42872 0.079762h46.252c3.8485 0.046528 6.3045 0.13958 7.368 0.27917 1.6548 0.098603 3.1357 1.0606 3.8984 2.5325 0.53803 1.2824 0.78327 2.6687 0.71786 4.0579 0.022237 1.0017-0.051212 2.0033-0.21935 2.9911-0.10764 0.60607-0.37235 1.1733-0.76771 1.6451-0.75322 0.74468-1.7241 1.2301-2.7717 1.3859 0.87783 0.11747 1.6952 0.51219 2.333 1.1266 0.4312 0.4606 0.72177 1.0348 0.8375 1.6551 0.14008 1.0809 0.20007 2.1706 0.17947 3.2603l13.859-18.944h1.6949l13.53 18.485v-18.475h5.045l19.881 19.941h0.69792v-19.941h32.802v2.343l-20.678 17.757h26.92l20.359-17.438h-23.6v-2.6621h28.365v2.343l-20.718 17.757h30.409c3.9881 0 11.625 0.20938 15.354-0.44866 1.2169-0.13935 2.1785-1.0968 2.3231-2.3131 0.29112-1.9132 0.41788-3.8479 0.37887-5.7828 0.049617-2.1027-0.063718-4.2061-0.33899-6.2912-0.2259-1.2534-1.2993-2.177-2.5723-2.2134-0.9912-0.14399-1.9899-0.23054-2.9911-0.25923-1.0967 0-3.2104-0.069792-6.3311-0.069792-2.3327-0.054619-4.6661 0.072052-6.9792 0.37887-0.68066 0.069317-1.3291 0.32456-1.8744 0.7378-0.44142 0.46949-0.72395 1.066-0.80759 1.7049-0.29772 1.8355-0.42455 3.6946-0.37887 5.5534v6.6003h-3.1008v-6.361c-0.11523-2.5848 0.13653-5.1729 0.74777-7.6871 0.59654-1.7942 2.2209-3.048 4.1078-3.1705 3.3296-0.37381 6.6801-0.53034 10.03-0.4686 2.7406-0.060898 5.4822 0.065687 8.2055 0.37887 1.2819 0.11603 2.4969 0.62431 3.4796 1.4557 0.44675 0.45878 0.78713 1.0102 0.99703 1.6152 0.28337 0.85339 0.46737 1.7366 0.54837 2.6322 0.18319 1.7986 0.26641 3.606 0.24926 5.4139 0.04679 2.1208-0.083273 4.2419-0.38884 6.3411-0.1398 1.1587-0.61057 2.2525-1.356 3.1506-0.91443 0.82214-2.0668 1.332-3.2902 1.4557-2.4827 0.31668-4.9856 0.44666-7.4877 0.38884-1.5288 0-3.2071-0.023264-5.035-0.069793h-70.45v-1.9941l21.097-18.116h-24.926v20.07h-5.1247l-19.881-19.871h-0.66801v19.871h-3.2403l-14.168-19.143-14.148 19.143h-3.5893v-2.1735c0-1.8545-0.03988-3.134-0.11964-3.8386-0.10611-1.3168-1.13-2.3741-2.4427-2.5225-0.55834-0.069792-1.0469-0.12961-1.4856-0.13958-0.43869-0.0099702-1.9342 0-4.4866 0h-11.127v8.724h-2.9911v-11.436h14.158c2.9911 0 4.8456 0 5.6831-0.11964 0.70357-0.056199 1.3853-0.27094 1.9941-0.62813 0.77768-0.51845 1.1665-1.7747 1.1665-3.7787 0-1.7249-0.35893-2.8515-1.0868-3.36-0.66134-0.3985-1.4121-0.62475-2.1835-0.65804-0.99703-0.099703-2.8648-0.14955-5.6033-0.14955h-27.867v20.07h-2.9911v-20.06h-15.404v-2.6621z"/>
</g>
<path d="m45 90.999c-15.68 0.0067066-31.086-4.1155-44.667-11.952l-0.333-0.189v-0.387c0.05609-31.91 17.066-61.386 44.667-77.4l0.333-0.198 0.333 0.198c27.601 16.014 44.611 45.49 44.667 77.4v0.387l-0.333 0.189c-13.581 7.8365-28.987 11.959-44.667 11.952zm-43.659-12.924c27.053 15.435 60.247 15.435 87.3 0-0.21169-31.133-16.799-59.856-43.659-75.6-26.85 15.751-43.426 44.472-43.632 75.6h-9e-3z" fill="url(#b)"/>
<path d="m88.992 79.047c-27.218-15.684-60.73-15.684-87.948 0l-0.675-1.161c27.177-15.77 43.929-44.791 43.992-76.212h1.341c0.062793 31.421 16.815 60.442 43.992 76.212l-0.702 1.161zm-43.992-13.113c11.991-0.0014843 23.86 2.4072 34.902 7.083-19.314-14.624-31.901-36.431-34.902-60.471-3.0056 24.033-15.592 45.833-34.902 60.453 11.043-4.6727 22.912-7.0783 34.902-7.074v9e-3z" fill="url(#a)"/>
<circle cx="45" cy="52.722" r="3.528" fill="#0cf"/>
</g>
</g>
</svg>
