<svg id="Слой_1" data-name="Слой 1" xmlns="http://www.w3.org/2000/svg" xmlns:xlink="http://www.w3.org/1999/xlink" viewBox="0 0 1288.95 175.35"><defs><clipPath id="clip-path"><rect x="2948.2" y="-686.5" width="1087.71" height="1928.5" fill="none"/></clipPath></defs><g id="DESIGN"><g clip-path="url(#clip-path)"><g opacity="0.08"><line x1="2634.64" y1="-747.04" x2="585.06" y2="1302.54" fill="none" stroke="#2d1385" stroke-miterlimit="10" stroke-width="4.02" opacity="0.3"/><line x1="2681.41" y1="-747.04" x2="631.82" y2="1302.54" fill="none" stroke="#2d1385" stroke-miterlimit="10" stroke-width="4.02" opacity="0.3"/><line x1="2728.17" y1="-747.04" x2="678.58" y2="1302.54" fill="none" stroke="#2d1385" stroke-miterlimit="10" stroke-width="4.02" opacity="0.3"/><line x1="2774.93" y1="-747.04" x2="725.34" y2="1302.54" fill="none" stroke="#2d1385" stroke-miterlimit="10" stroke-width="4.02" opacity="0.3"/><line x1="2821.69" y1="-747.04" x2="772.11" y2="1302.54" fill="none" stroke="#2d1385" stroke-miterlimit="10" stroke-width="4.02" opacity="0.3"/><line x1="2868.46" y1="-747.04" x2="818.87" y2="1302.54" fill="none" stroke="#2d1385" stroke-miterlimit="10" stroke-width="4.02" opacity="0.3"/><line x1="2915.22" y1="-747.04" x2="865.63" y2="1302.54" fill="none" stroke="#2d1385" stroke-miterlimit="10" stroke-width="4.02" opacity="0.3"/><line x1="2961.98" y1="-747.04" x2="912.39" y2="1302.54" fill="none" stroke="#2d1385" stroke-miterlimit="10" stroke-width="4.02" opacity="0.3"/><line x1="3008.74" y1="-747.04" x2="959.16" y2="1302.54" fill="none" stroke="#2d1385" stroke-miterlimit="10" stroke-width="4.02" opacity="0.3"/><line x1="3055.5" y1="-747.04" x2="1005.92" y2="1302.54" fill="none" stroke="#2d1385" stroke-miterlimit="10" stroke-width="4.02" opacity="0.3"/><line x1="3102.27" y1="-747.04" x2="1052.68" y2="1302.54" fill="none" stroke="#2d1385" stroke-miterlimit="10" stroke-width="4.02" opacity="0.3"/><line x1="3149.03" y1="-747.04" x2="1099.44" y2="1302.54" fill="none" stroke="#2d1385" stroke-miterlimit="10" stroke-width="4.02" opacity="0.3"/><line x1="3195.79" y1="-747.04" x2="1146.21" y2="1302.54" fill="none" stroke="#2d1385" stroke-miterlimit="10" stroke-width="4.02" opacity="0.3"/><line x1="3242.55" y1="-747.04" x2="1192.97" y2="1302.54" fill="none" stroke="#2d1385" stroke-miterlimit="10" stroke-width="4.02" opacity="0.3"/><line x1="3289.32" y1="-747.04" x2="1239.73" y2="1302.54" fill="none" stroke="#2d1385" stroke-miterlimit="10" stroke-width="4.02" opacity="0.3"/><line x1="3336.08" y1="-747.04" x2="1286.49" y2="1302.54" fill="none" stroke="#2d1385" stroke-miterlimit="10" stroke-width="4.02" opacity="0.3"/></g></g></g><path d="M314.42,165a9.68,9.68,0,0,1-8.65-5.4l-20-41-52.34-.44A16.43,16.43,0,0,0,217,134.48V165H187.33V10.39h8.84v97.27l1.4-1.73a45.9,45.9,0,0,1,10.23-9.68l.34-85.86H288a53.92,53.92,0,0,1,53.86,53.86,53.35,53.35,0,0,1-26.35,46.08l-.62.37L341.41,165Zm-8.16-50.22a53.45,53.45,0,0,1-10.16,2.57l-1.06.16,18.67,38.2,12.29.44h1.25l-20.34-41.61ZM196.17,156.1h12V134.51a25.27,25.27,0,0,1,25.24-25.24H288a45,45,0,1,0,0-90H217v12H288a33,33,0,0,1,0,66.09H233.38a37.24,37.24,0,0,0-37.19,37.21h0ZM217,40.06v51.6l1-.38a45.31,45.31,0,0,1,15.34-2.83H288a24.2,24.2,0,1,0,0-48.39Z" fill="#0000e1"/><path d="M62.45,165V56.45A44.69,44.69,0,0,1,65.29,41.1l.36-1H0V31.2H69.6A60.27,60.27,0,0,1,79.92,20.63l1.74-1.39H0V10.39H154.56v20a9.63,9.63,0,0,1-9.63,9.63H108.5A16.41,16.41,0,0,0,92.11,56.45V165ZM108.5,19.24A37.26,37.26,0,0,0,71.29,56.45V156.1h12V56.45A25.27,25.27,0,0,1,108.5,31.21h37.21v-12Z" fill="#0000e1"/><path d="M517.34,165a9.72,9.72,0,0,1-8.65-5.4l-12.41-25.39-78.3-.44a16.52,16.52,0,0,0-14.68,9.19l-8.11,16.65a9.71,9.71,0,0,1-8.65,5.39h-27l17-34.66a9.71,9.71,0,0,1,8.65-5.41H491.74l-5.64-11.53L385,112.91,435.27,10l10.87.4,70.5,145.27,12.29.44h1.25L459,10.39H469.3L544.35,165ZM373.71,156.1h12.83L395.36,139a20.73,20.73,0,0,1,2.38-3.57l1-1.26-1.22-.48H384.64ZM451.94,51a5.85,5.85,0,0,0-5.37,3.36L422.3,104.06h59.27L457.28,54.34A5.88,5.88,0,0,0,451.94,51m-52.8,53H412L438.62,50.5a14.65,14.65,0,0,1,11.67-8.07l1.1-.13-11-22.58Z" fill="#0000e1"/><path d="M704.31,165,588.81,10.4h11.45l75.91,101.75a5.67,5.67,0,0,0,4.62,2.34,6.42,6.42,0,0,0,2-.31,5.79,5.79,0,0,0,4.1-5.68V20a9.63,9.63,0,0,1,9.63-9.62h20V165Zm-8.58-56.45a14.65,14.65,0,0,1-10.15,14.08l-1.07.3.41,1,22.79,30.38v-135h-12Z" fill="#0000e1"/><path d="M678.29,165,602.43,63.26a5.67,5.67,0,0,0-4.66-2.42,6.67,6.67,0,0,0-2,.33,5.83,5.83,0,0,0-4.09,5.67v88.48A9.64,9.64,0,0,1,582,165H562V10.39h12.24L689.74,165ZM570.84,156.1h12V66.84A14.62,14.62,0,0,1,593,52.78l1.07-.32-.4-.94L570.84,21.14Z" fill="#0000e1"/><path d="M749.33,165V152.71L903.88,37.2V48.65L802.19,124.51a6,6,0,0,0,3.6,10.78h88.47a9.63,9.63,0,0,1,9.62,9.62v20Zm41.13-31.63L760.07,156.1H895v-12H805.79A14.61,14.61,0,0,1,791.72,134l-.33-1.07Z" fill="#0000e1"/><path d="M749.33,126.69,851.08,50.77a6,6,0,0,0-3.64-10.69l-88.49,0a9.63,9.63,0,0,1-9.62-9.62v-20H903.88V22.63L749.33,138.14Zm8.84-95.48h89.27a14.63,14.63,0,0,1,14.07,10.15l.33,1,.92-.38,30.39-22.78h-135Z" fill="#0000e1"/><path d="M936.67,165V152.71L1091.22,37.2V48.65L989.53,124.51a6,6,0,0,0,3.59,10.78h88.48a9.64,9.64,0,0,1,9.62,9.62v20Zm41.12-31.63L947.4,156.1h135v-12H993.12A14.61,14.61,0,0,1,979.05,134l-.33-1.07Z" fill="#0000e1"/><path d="M936.67,126.69l101.75-75.92a6,6,0,0,0-3.65-10.69l-88.49,0a9.63,9.63,0,0,1-9.62-9.62v-20h154.56V22.63L936.67,138.14Zm8.83-95.48h89.27a14.63,14.63,0,0,1,14.07,10.15l.33,1,.93-.38,30.38-22.78h-135Z" fill="#0000e1"/><path d="M1201.28,0A87.68,87.68,0,1,0,1289,87.67,87.68,87.68,0,0,0,1201.28,0m0,166.5a78.83,78.83,0,1,1,78.82-78.83,78.82,78.82,0,0,1-78.82,78.83" fill="#0000e1"/><path d="M1201.28,20.82a66.86,66.86,0,1,0,66.85,66.85,66.85,66.85,0,0,0-66.85-66.85m0,124.87a58,58,0,1,1,58-58,58,58,0,0,1-58,58" fill="#0000e1"/><path d="M1190.87,10.41a77.26,77.26,0,0,0-77.27,77.26h8.85a68.42,68.42,0,0,1,136.84,0h8.84a77.26,77.26,0,0,0-77.26-77.26" fill="#0000e1"/></svg>