<svg width="230" height="93" viewBox="0 0 230 93" fill="none" xmlns="http://www.w3.org/2000/svg">
<g clip-path="url(#clip0)">
<path d="M30.6778 48.9258C21.4073 48.9258 13.8758 41.1649 13.8758 31.6121C13.8758 22.0593 21.4073 14.2984 30.6778 14.2984C39.9484 14.2984 47.4799 22.0593 47.4799 31.6121C47.4799 41.1649 39.9484 48.9258 30.6778 48.9258ZM30.6778 0C13.7199 0 0 14.1377 0 31.6121V92.4018H13.8758V58.0091C18.7089 61.2716 24.4655 63.1871 30.6778 63.1871C47.5998 63.1871 61.3557 49.0494 61.3557 31.575C61.3077 14.1377 47.5998 0 30.6778 0Z" fill="#281932"/>
<path d="M199.322 48.9258C190.052 48.9258 182.52 41.1649 182.52 31.6121C182.52 22.0593 190.052 14.2984 199.322 14.2984C208.593 14.2984 216.124 22.0593 216.124 31.6121C216.124 41.1649 208.593 48.9258 199.322 48.9258ZM199.322 0C182.4 0 168.644 14.1377 168.644 31.6121C168.644 49.0494 182.364 63.2242 199.322 63.2242C216.244 63.2242 230 49.0865 230 31.6121C230 14.1377 216.244 0 199.322 0Z" fill="#281932"/>
<path d="M97.826 48.9258C88.5555 48.9258 81.0239 41.1649 81.0239 31.6121C81.0239 22.0593 88.5555 14.2984 97.826 14.2984C107.096 14.2984 114.628 22.0593 114.628 31.6121C114.628 41.1649 107.096 48.9258 97.826 48.9258ZM97.826 0C80.904 0 67.1482 14.1377 67.1482 31.6121V92.4018H81.0239V58.0091C85.8571 61.2716 91.6136 63.1871 97.826 63.1871C114.748 63.1871 128.504 49.0494 128.504 31.575C128.504 14.1377 114.748 0 97.826 0Z" fill="#281932"/>
<path d="M165.742 0C148.856 0 135.148 14.0883 135.1 31.4885V63.2242H148.928V31.4885C149 21.9728 156.495 14.286 165.73 14.286H165.766L165.742 0C165.778 0 165.778 0 165.742 0Z" fill="#281932"/>
</g>
<defs>
<clipPath id="clip0">
<rect width="230" height="92.4017" fill="white"/>
</clipPath>
</defs>
</svg>
