<svg width="46" height="29" viewBox="0 0 46 29" fill="none" xmlns="http://www.w3.org/2000/svg">
<path d="M32 19.5091V0H37.6514L37.6069 4.83333H42.5019V10.1061H37.6069L37.6514 21.3106C37.6514 21.6035 37.6811 21.8818 37.7404 22.1455C37.7998 22.3798 37.8888 22.6141 38.0074 22.8485C38.1558 23.0535 38.3634 23.2293 38.6304 23.3758C39.0161 23.5808 39.4166 23.6833 39.8319 23.6833C40.1879 23.6833 40.5291 23.6247 40.8554 23.5076C41.1817 23.3611 41.4636 23.2146 41.7009 23.0682C41.9976 22.9217 42.2646 22.7313 42.5019 22.497L45.5724 26.1C45.513 26.1879 45.335 26.3929 45.0384 26.7152C44.7417 27.0374 44.3115 27.3742 43.7479 27.7258C43.2139 28.048 42.5464 28.3409 41.7454 28.6045C40.9444 28.8682 40.0099 29 38.9419 29C37.0433 29 35.5006 28.4141 34.314 27.2424C33.1273 26.0707 32.4005 24.5035 32.1335 22.5409C32.1038 22.4823 32.0742 22.2333 32.0445 21.7939C32.0148 21.3545 32 20.5929 32 19.5091Z" fill="#35164F"/>
<path d="M26.8534 5.3433V5.66256e-07H10.1731V18.7406L3.84929 12.6493L0 16.3897L12.9226 29L26.0285 16.3897L22.1793 12.6493L15.6721 18.7406V5.3433H26.8534Z" fill="#FF9C00"/>
</svg>
