<?xml version="1.0" encoding="UTF-8"?>
<svg width="579.66" height="262.5" version="1.1" viewBox="0 0 579.664 262.4996" xml:space="preserve" xmlns="http://www.w3.org/2000/svg" xmlns:cc="http://creativecommons.org/ns#" xmlns:dc="http://purl.org/dc/elements/1.1/" xmlns:rdf="http://www.w3.org/1999/02/22-rdf-syntax-ns#"><metadata><rdf:RDF><cc:Work rdf:about=""><dc:format>image/svg+xml</dc:format><dc:type rdf:resource="http://purl.org/dc/dcmitype/StillImage"/><dc:title/></cc:Work></rdf:RDF></metadata><defs><clipPath id="a"><path d="m0 512h512v-512h-512z"/></clipPath></defs><g transform="matrix(1.3333 0 0 -1.3333 -46.728 511.93)"><g transform="translate(340.51 325.09)"><path d="m0 0-58.657 58.857-29.434-29.431 29.434-29.426-29.434-29.422 29.434-29.238zm-88.091 29.426-29.229-29.426 29.229-29.422-29.229-29.238-58.854 58.66 58.854 58.857z" fill="#ed1c24" fill-rule="evenodd"/></g><g clip-path="url(#a)"><g transform="translate(231.54 187.08)"><path d="m0 0v8.924c3.036 0 5.31 1.14 7.402 3.226 1.895 2.282 2.845 4.938 2.845 8.352 0 3.227-0.95 5.882-2.845 8.165-2.092 2.273-4.556 3.232-7.402 3.232v9.107c2.846 0 5.5-0.57 7.972-1.514 2.657-1.142 4.932-2.662 6.832-4.556 2.086-1.903 3.417-3.996 4.558-6.65 0.95-2.466 1.514-4.937 1.514-7.784 0-2.845-0.564-5.5-1.514-7.972-0.952-2.466-2.472-4.748-4.558-6.641-1.9-1.903-4.175-3.425-6.832-4.367-2.472-1.142-5.126-1.522-7.972-1.522m72.518 0.951h-9.875l-2.466 16.896c0 1.141-0.19 2.655-0.379 3.987-0.192 1.515-0.192 3.036-0.381 4.748-0.191-1.522-0.754-3.606-1.515-6.08 0-0.57-0.189-0.95-0.189-1.14l-5.319-18.411h-7.211l-5.317 18.411c0 0.19-0.191 0.57-0.382 1.14-0.76 2.474-1.14 4.558-1.325 6.08-0.189-1.522-0.387-2.853-0.387-4.369-0.189-1.52-0.372-2.851-0.563-4.366l-2.281-16.896h-9.875l5.887 39.104h10.637l5.88-20.123c0-0.189 0.19-0.38 0.19-0.753 0.572-1.711 0.952-3.233 1.142-4.564 0 0.761 0.189 1.522 0.38 2.281 0.182 0.951 0.381 1.896 0.761 3.036l6.071 20.123h10.438zm-260.28 0v29.989h-8.733v9.115h28.095v-9.115h-8.733v-29.989zm187.76 40.055v-9.107c-3.036 0-5.319-0.959-7.409-3.232-1.896-2.085-2.847-4.938-2.847-8.165 0-3.414 0.951-6.07 2.847-8.352 1.901-2.086 4.373-3.226 7.409-3.226v-8.924c-2.853 0-5.508 0.38-7.981 1.522-2.655 0.942-4.93 2.464-6.832 4.367-2.084 1.893-3.605 4.175-4.556 6.641-1.135 2.472-1.515 5.127-1.515 7.972 0 2.847 0.38 5.318 1.515 7.784 0.951 2.471 2.472 4.747 4.556 6.65 1.902 1.894 4.177 3.414 6.832 4.556 2.473 0.944 5.128 1.514 7.981 1.514m-163.08-40.055v39.104h23.926v-8.537h-13.48v-6.839h12.713v-8.353h-12.713v-6.641h13.48v-8.734zm59.425 37.583v-11.572c-1.523 1.514-2.854 2.845-4.367 3.599-1.529 0.761-3.043 1.14-4.748 1.14-3.035 0-5.508-1.14-7.41-3.225-1.894-2.092-2.845-4.747-2.845-8.163 0-3.225 0.951-5.698 2.845-7.783 2.092-2.092 4.558-3.227 7.41-3.227 1.705 0 3.219 0.382 4.748 1.135 1.513 0.768 2.844 2.092 4.367 3.612v-11.586c-1.712-0.942-3.424-1.513-5.129-1.894-1.704-0.379-3.225-0.57-4.936-0.57-2.283 0-4.177 0.191-6.079 0.761-1.704 0.38-3.417 1.324-4.937 2.274-2.84 1.903-5.121 4.367-6.641 7.403-1.516 3.044-2.275 6.269-2.275 10.064 0 3.044 0.379 5.699 1.331 8.165 0.944 2.471 2.464 4.747 4.549 6.648 1.712 1.894 3.797 3.416 6.269 4.36 2.275 0.95 4.739 1.331 7.783 1.331 1.711 0 3.232-0.19 4.936-0.57 1.705-0.381 3.417-0.944 5.129-1.902m6.07-37.583v39.104h10.636v-15.185h14.235v15.185h10.629v-39.104h-10.629v15.945h-14.235v-15.945zm72.335 37.583v-11.572c-1.522 1.514-3.042 2.845-4.367 3.599-1.521 0.761-3.042 1.14-4.755 1.14-3.027 0-5.5-1.14-7.394-3.225-1.902-2.092-2.853-4.747-2.853-8.163 0-3.225 0.951-5.698 2.853-7.783 1.894-2.092 4.367-3.227 7.394-3.227 1.713 0 3.234 0.382 4.755 1.135 1.325 0.768 2.845 2.092 4.367 3.612v-11.586c-1.711-0.942-3.423-1.513-5.127-1.894-1.712-0.379-3.415-0.57-5.128-0.57-2.084 0-3.986 0.191-5.88 0.761-1.712 0.38-3.425 1.324-4.938 2.274-3.043 1.903-5.128 4.367-6.839 7.403-1.514 3.044-2.275 6.269-2.275 10.064 0 3.044 0.57 5.699 1.514 8.165 0.95 2.471 2.472 4.747 4.366 6.648 1.903 1.894 3.986 3.416 6.269 4.36 2.473 0.95 4.938 1.331 7.783 1.331 1.713 0 3.416-0.19 5.128-0.57 1.704-0.381 3.416-0.944 5.127-1.902" fill="#ed1c24" fill-rule="evenodd"/></g><g transform="translate(362.53 195.05)"><path d="m0 0v7.594h5.317l-3.986 12.91c-0.189 0.38-0.379 0.95-0.578 1.901-0.183 0.761-0.562 1.896-0.753 3.227v6.451h6.648l13.482-39.104h-10.636l-2.083 7.021zm23.92-7.021v39.104h10.255l14.805-20.123c0.189-0.38 0.759-1.324 1.33-2.464 0.761-1.332 1.514-2.655 2.276-4.368-0.184 1.515-0.373 3.036-0.564 4.177 0 1.331-0.198 2.466-0.198 3.416v19.362h10.255v-39.104h-10.255l-14.804 20.123c-0.19 0.38-0.755 1.331-1.331 2.472-0.762 1.323-1.325 2.838-2.086 4.36 0.192-1.522 0.381-3.037 0.381-4.36 0.191-1.141 0.191-2.283 0.191-3.233v-19.362zm46.703 0v39.104h10.445v-17.842l12.523 17.842h12.34l-14.424-19.172 15.755-19.932h-13.284l-12.91 17.461v-17.461zm-109.16 23.539c1.323 0.189 2.465 0.379 3.036 0.761 0.944 0.568 1.514 1.711 1.514 3.034 0 1.522-0.38 2.472-1.331 3.233-0.754 0.381-1.704 0.563-3.219 0.755v7.782c2.465 0 4.359-0.182 5.691-0.38 1.712-0.374 3.226-0.754 4.556-1.515 1.325-0.76 2.466-1.901 3.227-3.225 0.761-1.331 1.14-2.854 1.14-4.558 0-2.282-0.568-4.176-1.711-5.317-1.133-1.331-3.036-2.472-5.5-3.035 2.844-0.192 5.127-1.142 6.643-3.037 1.52-1.711 2.273-3.986 2.273-6.838 0-2.086-0.374-3.987-1.331-5.509-0.753-1.704-2.085-2.846-3.79-3.796-1.331-0.761-2.844-1.134-4.937-1.521-1.324-0.184-3.414-0.373-6.261-0.373v7.972c2.086 0 3.606 0.38 4.55 0.952 1.141 0.563 1.711 1.703 1.711 3.225 0 1.515-0.57 2.655-1.522 3.416-0.95 0.572-2.464 0.952-4.739 0.952zm38.534 15.565v-6.451 0.189c-0.38-0.95-0.57-1.894-0.761-2.853-0.183-0.753-0.38-1.703-0.753-2.464l-3.803-12.91h5.317v-7.594h-7.593l-2.092-7.021h-10.628l13.474 39.104zm-42.908-15.565h4.374v-7.022h-4.374v-8.545h4.374v-7.972h-14.241v39.104h14.241v-7.782h-4.374v-7.783" fill="#231f20" fill-rule="evenodd"/></g><g transform="translate(335.57 271.56)"><path d="m0 0c0.38 0 0.57 0.191 0.761 0.191 0.196 0.189 0.38 0.562 0.38 0.944 0 0.379-0.184 0.759-0.38 0.95-0.191 0-0.381 0.19-0.761 0.19v0.571c0.57 0 0.957-0.191 1.141-0.38 0.381-0.381 0.57-0.761 0.57-1.331 0-0.565-0.189-0.944-0.57-1.135-0.184-0.381-0.571-0.57-1.141-0.57zm0-5.127c2.662 0 4.938 2.091 4.938 4.938 0 2.655-2.276 4.745-4.938 4.745v-0.379c2.473 0 4.556-1.902 4.556-4.366 0-2.663-2.083-4.558-4.556-4.558zm0 3.796v0.761l2.281-3.036h-0.759zm-0.944 3.606v-2.275h0.944v-1.331l-0.563 0.761h-0.381v-3.036h-0.57v6.452h1.514v-0.571h-0.374zm0.944 2.281c-2.655 0-4.93-2.09-4.93-4.745 0-2.847 2.275-4.938 4.93-4.938v0.38c-2.464 0-4.558 1.895-4.558 4.558 0 2.464 2.094 4.366 4.558 4.366v0.379" fill="#ed1c24" fill-rule="evenodd"/></g></g></g></svg>
