<?xml version="1.0" encoding="UTF-8"?>
<svg class="icon" width="819.2" height="512" version="1.1" viewBox="0 0 819.20001 1024" xmlns="http://www.w3.org/2000/svg" xmlns:cc="http://creativecommons.org/ns#" xmlns:dc="http://purl.org/dc/elements/1.1/" xmlns:rdf="http://www.w3.org/1999/02/22-rdf-syntax-ns#">
<metadata>
<rdf:RDF>
<cc:Work rdf:about="">
<dc:format>image/svg+xml</dc:format>
<dc:type rdf:resource="http://purl.org/dc/dcmitype/StillImage"/>
<dc:title/>
</cc:Work>
</rdf:RDF>
</metadata>
<path d="m1228.7 506.81c0-206.64-284.67-374.1-635.77-374.1-280.92 0-519.44 107.45-603.27 256.27v-0.13654a90.795 90.795 0 0 0 -12.083 44.51c0 37.001 23.825 70.178 60.962 91.546l322.22 183.09c16.725 9.0112 36.523 14.336 57.958 14.336 21.641 0 41.438-5.3248 58.095-14.268l305.7-173.67c20.685-11.742 33.656-30.174 33.656-50.654 0-19.934-12.288-37.41-31.812-49.357l-113.6-64.717-252.04 143.09-190.46-108.27c73.591-65.331 210.81-109.02 367.96-109.02 234.77 0 425.3 97.963 425.3 218.93-5.0517 187.53-284.54 332.46-623.96 323.86-339.69-8.6699-610.85-167.94-605.93-355.33h-0.13654c2.5259-247.19 331.98-444.55 735.78-440.73a1220.6 1220.6 0 0 1 105.81 5.7344c-82.807-30.037-186.37-47.923-299.14-47.923-89.771 0-174.15 11.469-246.58 31.403-292.11 78.848-496.91 262.14-496.91 475.41 0 285.63 366.73 517.19 819.2 517.19 452.33 0 819.2-231.56 819.2-517.19h-0.1365" fill="#003d6e"/>
</svg>
