<?xml version="1.0" encoding="UTF-8"?>
<!DOCTYPE svg  PUBLIC '-//W3C//DTD SVG 1.0//EN'  'http://www.w3.org/TR/2001/REC-SVG-20010904/DTD/svg10.dtd'>
<svg width="1024" height="173" version="1.0" viewBox="-1.28756253 -1.28756253 269.83949506 45.49387606" xmlns="http://www.w3.org/2000/svg">
<path d="m67.319 21.24c0-8.66-11.696-15.676-26.119-15.676-11.55 0-21.348 4.5-24.794 10.738l0.00125-0.00875c-0.31625 0.57625-0.4975 1.21-0.4975 1.8688 0 1.5575 0.97625 2.9412 2.5 3.8388l13.248 7.6725c0.68375 0.375 1.5038 0.59875 2.3862 0.59875 0.88 0 1.6975-0.22375 2.3788-0.59875l12.569-7.275c0.84-0.49625 1.3812-1.2612 1.3812-2.12 0-0.835-0.51-1.5762-1.3088-2.075l-4.67-2.7075-10.35 5.9938-7.8338-4.5338c3.0225-2.7388 8.6625-4.5775 15.118-4.5775 9.6512 0 17.478 4.1088 17.478 9.1862-0.20875 7.855-11.686 13.935-25.641 13.57-13.955-0.3675-25.102-7.0412-24.898-14.898 0.09875-10.361 13.632-18.628 30.229-18.466 1.4825 0.01625 2.9288 0.09625 4.3488 0.24-3.4088-1.2612-7.6638-2.01-12.288-2.01-3.6962 0-7.1562 0.47875-10.139 1.3138v-0.0025c-12.005 3.31-20.418 10.985-20.418 19.929 0 11.972 15.068 21.679 33.661 21.679 18.591 0 33.662-9.7062 33.662-21.679h-5e-3z" fill="#154281"/>
<path d="m78.009 24.146h189.02" fill="none" stroke="#231f20" stroke-miterlimit="10" stroke-width=".47375"/>
<path d="m80.431 6.75c0.2275 0.17375 0.5425 0.415 0.9375 0.7225 0.4025 0.30875 0.8675 0.78125 1.3938 1.4175 0.525 0.63875 0.78625 1.3488 0.78625 2.1362-0.0075 0.78625-0.15875 1.3212-0.45875 1.6-0.3025 0.2825-0.6425 0.4025-1.0225 0.365-0.3825-0.03875-0.6675-0.18625-0.8625-0.44375-0.1925-0.2575-0.28625-0.5025-0.2825-0.72625 0.00625-0.22875 0.03625-0.5575 0.0925-0.98375 0.05125-0.42625 0.05125-0.89125 0-1.3975-0.05625-0.43375-0.1425-0.81-0.2625-1.1275-0.11875-0.3175-0.2925-0.64125-0.51875-0.96875-0.2275-0.3275-0.36625-0.52625-0.41875-0.59375-0.0525-0.065-0.08-0.11875-0.08875-0.16125-0.01-0.04125 0-0.08375 0.02875-0.12875s0.09625-0.04 0.2 0.0125l0.47625 0.2775zm4.2162-0.68125c1.045 0.9475 1.7625 1.7088 2.1512 2.2962 0.39 0.5875 0.63 1.2162 0.7225 1.8912 0.0925 0.67125 0.05625 1.1812-0.11 1.5288-0.12 0.26-0.3075 0.48-0.56875 0.64875-0.25625 0.17125-0.57625 0.23375-0.9625 0.1875-0.385-0.04375-0.64625-0.23375-0.77625-0.57-0.1325-0.3325-0.185-0.63625-0.15375-0.90375 0-0.0425 0.0275-0.2175 0.07875-0.525 0.04875-0.30875 0.0775-0.62125 0.08-0.93875 0.0025-0.31625-0.01625-0.63875-0.05875-0.96875-0.0975-0.68625-0.225-1.1962-0.39125-1.5238-0.165-0.32875-0.30125-0.5975-0.40875-0.8025-0.1125-0.2075-0.18875-0.3425-0.2275-0.40625-0.03625-0.0625-0.06125-0.11375-0.06375-0.155-0.00375-0.04125 0.015-0.08375 0.05125-0.1275 0.035-0.04125 0.1-0.02875 0.1975 0.03625l0.44 0.3325zm2.9788 10.022c0.5125 0.1075 1.015 0.22 1.5012 0.34125 0.4875 0.12 1.1088 0.34875 1.8575 0.6875 0.75 0.33625 1.3288 0.7575 1.73 1.2625 0.40625 0.50625 0.62125 0.9875 0.65125 1.445 0.03125 0.4575-0.05875 0.8475-0.26875 1.1725-0.2075 0.32125-0.55 0.47625-1.0138 0.46375-0.3825-0.00375-0.67375-0.125-0.86875-0.3525-0.1975-0.23-0.42125-0.61875-0.6625-1.1675-0.24625-0.5475-0.54625-1.0375-0.89375-1.475-0.3525-0.4375-0.6625-0.78375-0.93875-1.0375-0.27625-0.25125-0.59625-0.48875-0.9625-0.7075-0.37125-0.22-0.5925-0.345-0.6675-0.3825-0.07375-0.03375-0.1225-0.0725-0.1475-0.11125-0.0225-0.03875-0.02875-0.09-0.0125-0.15375 0.015-0.0625 0.08875-0.0825 0.22-0.06625l0.47625 0.08125zm-5.23 3.4962c-0.85125 0.6175-1.9675 1.2062-3.3462 1.77l-0.6825 0.2775c-0.11625 0.04875-0.19875 0.0375-0.24375-0.03375-0.05125-0.07375-0.01-0.15375 0.115-0.24375l0.63-0.44c0.14875-0.10125 0.37875-0.2925 0.68-0.57375 0.30625-0.28125 0.6975-0.67125 1.1712-1.1712 0.475-0.5 0.895-1.05 1.2612-1.66 0.365-0.6075 0.605-1.0362 0.7175-1.2875l0.25125-0.5475c0.06125-0.12625 0.11-0.2025 0.145-0.22875 0.0325-0.02625 0.095-0.0225 0.1775 0.015 0.47375 0.22125 1.0012 0.50625 1.5925 0.85625 0.58875 0.35 0.87875 0.60375 0.86625 0.7575-0.0125 0.09625-0.0625 0.17-0.15125 0.22375l-0.26375 0.05375-0.3125 0.05375c-0.88375 0.8325-1.7525 1.5575-2.6075 2.1788m-4.595-5.8312l1.2738 0.11h9.3012c0.25-0.7 0.46625-1.345 0.65875-1.9338 0.19-0.59 0.36375-1.205 0.5175-1.85 0.15625-0.6425 0.30375-1.3275 0.44125-2.0575 0.135-0.73 0.22-1.2075 0.2525-1.4362l0.1-0.8525v-0.13625c0.03375-0.075 0.14875-0.075 0.3375 0 0.01125 0.015 0.22375 0.095 0.63375 0.24 0.40875 0.14625 0.85125 0.35125 1.3238 0.615 0.4725 0.2625 0.725 0.44625 0.75875 0.54625 0.03125 0.1025 0.0225 0.19125-0.025 0.27125-0.03625 0.06375-0.25875 0.15625-0.67125 0.27625-0.2875 0.53125-0.58 1.0662-0.87625 1.5988-0.295 0.53125-1.2375 2.105-2.83 4.7188h1.9825c0.38375-0.53625 0.6775-0.94375 0.88875-1.215 0.2075-0.2725 0.36875-0.41625 0.48125-0.4325 0.11-0.01375 0.27625 0.06875 0.49875 0.24625 0.52875 0.4375 0.9075 0.80625 1.1375 1.1088 0.22625 0.3 0.325 0.48625 0.29 0.55375-0.03125 0.06375-0.1025 0.0975-0.21 0.0975h-14.794l-1.0875 0.05375-0.38375-0.5225z" fill="#154281"/>
<path d="m98.661 10.095c0.725 0.77125 1.2788 1.4838 1.6725 2.135 0.3925 0.6525 0.71 1.305 0.94875 1.9638 0.2375 0.66 0.3525 1.2575 0.33375 1.7962-0.0125 0.53875-0.1525 0.96-0.41125 1.27-0.26125 0.30625-0.59875 0.4525-1.0125 0.4275-0.4175-0.01875-0.70375-0.155-0.8625-0.4075-0.15875-0.24875-0.22625-0.58875-0.2-1.0125l0.0875-0.9875c0.035-0.5075 0.0225-1.0812-0.03625-1.7212-0.05125-0.48-0.12-0.90375-0.205-1.2762-0.0825-0.36875-0.18375-0.70625-0.29625-1.0125-0.115-0.30375-0.22125-0.55875-0.3125-0.7625-0.09875-0.2025-0.17-0.3425-0.21625-0.4225-0.04875-0.075-0.08375-0.1475-0.1075-0.215-0.025-0.065-0.0125-0.12375 0.03375-0.17375 0.04875-0.0525 0.13875-0.0175 0.26875 0.1025l0.315 0.29625zm-1.5888 10.749l1.22 0.1075h3.9912v-12.921l-0.13125-2.4925c0.06375-0.1275 0.225-0.17 0.47375-0.135 0.91 0.13875 1.535 0.25625 1.8712 0.35875 0.34 0.10125 0.4825 0.225 0.43125 0.3725-0.05125 0.145-0.25875 0.34-0.62375 0.5775v14.24h1.725l-0.01-12.652-0.135-2.4925c0.06375-0.12 0.225-0.16625 0.47375-0.135 0.9225 0.1375 1.5062 0.24375 1.7562 0.325 0.24875 0.075 0.4 0.15625 0.45625 0.235 0.05625 0.08 0.07 0.16125 0.04625 0.24-0.0275 0.07625-0.2275 0.25-0.59875 0.51125v9.9488c0.17375-0.38125 0.305-0.68125 0.39625-0.89875 0.09-0.2125 0.24625-0.6275 0.47125-1.2412 0.22125-0.61125 0.41-1.1562 0.55875-1.6288s0.295-0.98 0.4325-1.525c0.13625-0.5425 0.22875-0.9325 0.2775-1.1662l0.125-0.6725 0.08-0.51125c0.07125-0.10375 0.22-0.10375 0.4425 0l1.01 0.43c0.29625 0.13125 0.58875 0.2825 0.8825 0.45375 0.2925 0.17 0.44125 0.295 0.44125 0.3775 0.00625 0.08-0.0125 0.1425-0.04625 0.19125-0.07375 0.1025-0.27625 0.1825-0.60875 0.24375-0.85625 1.6062-1.5712 2.8975-2.145 3.865-0.56875 0.97125-1.0062 1.665-1.3025 2.0825l-1.015 1.4788v2.5412h1.9312c0.39625-0.51 0.68625-0.9 0.88125-1.1712 0.19625-0.27375 0.3425-0.4175 0.4425-0.4325 0.0975-0.02125 0.27375 0.08375 0.5225 0.3125l0.57625 0.51125c0.115 0.10625 0.29 0.2825 0.53 0.52875 0.23875 0.245 0.34875 0.40625 0.33125 0.48375-0.0175 0.07875-0.12125 0.1175-0.3075 0.1175h-14.238l-1.085 0.05375-0.53125-0.51125z" fill="#154281"/>
<path d="m120.84 6.2712c0.11375-0.06 0.1725-0.13 0.1725-0.21 5e-3 -0.08125-0.105-0.17375-0.325-0.27375-0.22-0.1025-0.57875-0.22-1.07-0.35125-0.49-0.12875-0.78125-0.21-0.86875-0.24-0.09-0.03125-0.17375-0.04875-0.25375-0.055-0.06375 0-0.0975 0.00875-0.1075 0.0225-5e-3 0.015-5e-3 0.03375-0.0025 0.0525 0 0.0225-0.015 0.11375-0.05 0.27375l-0.18625 0.89125c-0.06125 0.24875-0.16375 0.67-0.31 1.2588-0.15 0.5875-0.3 1.105-0.4525 1.5462-0.15875 0.44375-0.315 0.86375-0.47875 1.2625-0.16 0.3975-0.2825 0.695-0.365 0.8925l-0.2525 0.55625c-0.05375 0.12625-0.0675 0.20625-0.0375 0.245 0.03 0.04 0.09125 0.02 0.18-0.0575l0.33125-0.28625 0.325-0.3325 0.4025 0.4125 0.79875-0.0625h0.65875v2.4775h-1.3762l-1.175-0.10875 0.52 0.51 0.7625-0.06h1.2688v3.8938c0 0.06375-0.01375 0.155-0.03375 0.27125-0.0225 0.11875-0.04625 0.21625-0.07125 0.29375-0.02875 0.0775-0.085 0.14875-0.16625 0.215-0.0875 0.065-0.12875 0.10875-0.12875 0.12875-5e-3 0.02125 0.0225 0.08875 0.0775 0.2025l0.965 1.9925c0.05625 0.1075 0.085 0.16625 0.0925 0.18 0.01 0.01 0.0325 0.0125 0.0575 0.0075l0.11-0.13375 0.8025-0.99625c0.18625-0.24 1.005-1.22 2.455-2.9438l0.5375-0.645c0.06125-0.0775 0.075-0.14125 0.04125-0.1925s-0.1-0.04875-0.2025 0.00375l-0.8425 0.4675c-0.4425 0.245-1.0788 0.56625-1.9012 0.96125v-3.7062h2.6712c0.05625 0 0.1025-0.04125 0.1475-0.11625 0.045-0.0775-0.19875-0.36125-0.73-0.845l-0.52125-0.4475c-0.0925-0.085-0.16125-0.12375-0.205-0.1175-0.04125 0.00625-0.08625 0.04-0.13 0.09875-0.04625 0.06-0.34375 0.42-0.9 1.0862h-0.3325v-2.0388l0.25875-0.2125c0.0175-0.00875 0.04625-0.0825 0.0825-0.22625h1.6775c0.04625 0 0.09625-0.0475 0.14875-0.14 0.05625-0.0925-0.35125-0.49-1.215-1.195-0.1075-0.0725-0.17625-0.10875-0.2125-0.10625-0.04 5e-3 -0.18375 0.1325-0.4325 0.38625-0.24625 0.25625-0.45875 0.49-0.64125 0.705h-2.2588l-0.96-0.09875c0.57125-0.64 1.1775-1.445 1.8188-2.4138h4.4538c0.05125 0 0.0875-0.04 0.10375-0.12125 0.0175-0.07875-0.21125-0.335-0.68-0.76625l-0.57625-0.48625c-0.105-0.0875-0.18875-0.1325-0.24625-0.1275-0.05625 0.0025-0.40375 0.38375-1.0362 1.1425h-1.8575c0.34-0.56125 0.7175-1.2425 1.14-2.0375l0.53125-0.28625zm4.7912 0.94125h3.64v2.7362h-3.64v-2.7362zm0 3.0875h3.64v2.79h-3.64v-2.79zm-1.7238-4.2438c-0.085-0.03-0.14-0.03875-0.16625-0.02125-0.02625 0.01375-0.025 0.195 0.0075 0.53625 0.03625 0.34625 0.05125 0.87375 0.05125 1.595v10.872c0 0.16-0.02125 0.28875-0.05875 0.3825-0.03875 0.09125-0.095 0.1675-0.16375 0.22625-0.10875 0.08125-0.1625 0.125-0.15875 0.14125 0.0025 0.015 0.02 0.05375 0.05 0.12l0.7825 1.8575c0.05125 0.155 0.09625 0.25375 0.135 0.29625 0.03875 0.04375 0.07375 0.06125 0.1 0.05875s0.0825-0.05875 0.17625-0.16625l0.52-0.61875c0.23125-0.28 0.42375-0.51125 0.57375-0.6925l0.735-0.90625c0.16625-0.2025 0.66625-0.77625 1.5012-1.7212l0.24875 0.72875c0.0825 0.24875 0.29 0.7075 0.62 1.3762 0.3275 0.66375 0.7075 1.1788 1.135 1.5425 0.43375 0.36125 0.6675 0.54 0.7125 0.5325 0.05375 0 0.1175-0.0725 0.195-0.21625 0.07875-0.1425 0.19125-0.31125 0.3375-0.50625 0.14625-0.1925 0.33-0.36625 0.5525-0.51875 0.22125-0.15375 0.3875-0.24625 0.5025-0.28375l0.49375-0.1525c0.0875-0.02375 0.13875-0.065 0.14-0.11875 0.00125-0.05875-0.0475-0.10625-0.14-0.14875l-0.26125-0.1075c-0.07875-0.0325-0.40875-0.2-0.985-0.50875-0.58-0.3075-1.0738-0.7075-1.4738-1.1988-0.40125-0.49-0.79125-1.0325-1.175-1.63l0.81625-0.335 1.4112-0.62625c0.14875-0.06625 0.385-0.165 0.7075-0.295l0.57625-0.11c0.595-0.10625 0.525-0.34-0.2125-0.705-0.74-0.36125-1.225-0.585-1.46-0.67625-0.10125-0.02875-0.17-0.0375-0.2025-0.02625-0.03 0.0125-0.0875 0.075-0.16625 0.18875l-0.2825 0.43125c-0.3625 0.5375-0.83125 1.1188-1.4112 1.7388l-0.315-0.57125c-0.06375-0.11-0.17125-0.36-0.3125-0.7575-0.1425-0.39-0.245-0.6925-0.305-0.905-0.05875-0.20875-0.1225-0.4475-0.19-0.71625h1.7225v0.19625c0 0.23375 0.19375 0.35375 0.58375 0.35875 0.37125 0.01125 0.67375-0.0325 0.9125-0.13 0.2425-0.0975 0.385-0.1725 0.4275-0.225 0.04625-0.05 0.0875-0.12125 0.1225-0.20875l-0.08375-1.9125v-3.8488c0.3375-0.15 0.5025-0.30625 0.49625-0.475-0.0125-0.18-0.335-0.405-0.9675-0.67375-0.635-0.26875-0.985-0.3975-1.0512-0.385-0.08125 0.01875-0.18125 0.0975-0.29125 0.23875-0.11125 0.1375-0.23625 0.3025-0.38 0.48875h-3.3112l-1.8212-0.80875zm1.7238 7.385h1.56c0.05875 0.655 0.0975 1.0475 0.1175 1.17 0.01625 0.12375 0.06125 0.44375 0.12875 0.96125 0.06875 0.51625 0.12125 0.86 0.16125 1.0362 0.03875 0.1725 0.14375 0.55625 0.3175 1.1475-0.735 0.34125-1.4975 0.6775-2.285 1.015v-5.33z" fill="#154281"/>
<path d="m147.79 7.1562c0.4175-0.555 0.70625-0.94625 0.8675-1.1675 0.16375-0.22 0.29625-0.33875 0.39625-0.35375s0.2475 0.055 0.44 0.21c0.17125 0.1375 0.40375 0.33875 0.685 0.5975 0.28625 0.26125 0.4975 0.47125 0.63875 0.62875 0.14125 0.15875 0.19125 0.26875 0.15625 0.335-0.03375 0.06625-0.12875 0.0975-0.2775 0.0975h-6.4425l-1.0088 0.04625-0.4625-0.51125 1.22 0.1175h3.7875zm1.0138 4.7462c0.36875-0.6 0.645-1.0138 0.82375-1.2438s0.32875-0.36 0.44625-0.39c0.115-0.03 0.3225 0.0875 0.6225 0.35125 0.64 0.58375 1.0312 0.95875 1.17 1.12 0.14125 0.1625 0.20625 0.2875 0.195 0.37625-0.0125 0.09-0.085 0.13375-0.215 0.13375h-2.37c-0.09125 0.16875-0.19375 0.305-0.30625 0.4125v7.4388c0 0.39625-0.03875 0.67625-0.125 0.84375-0.08375 0.1675-0.2475 0.3225-0.49375 0.47-0.245 0.1475-0.5775 0.26125-0.99625 0.34125-0.4175 0.08125-0.7175 0.11125-0.905 0.08625-0.17-0.01125-0.27375-0.045-0.3125-0.1025-0.03375-0.05875-0.0575-0.17625-0.0575-0.355-0.0075-0.18-0.0275-0.33375-0.0725-0.46-0.04625-0.13125-0.1575-0.275-0.33-0.4325-0.1725-0.15875-0.39375-0.28875-0.6625-0.39125l-0.60125-0.21375c-0.17125-0.06-0.24-0.1325-0.19375-0.215 0.04625-0.08625 0.13375-0.12 0.26625-0.11l0.4475 0.05625 1.1388 0.08c0.2075 0.0175 0.3725 0.0025 0.4875-0.04125 0.11875-0.04375 0.1975-0.12 0.245-0.2225 0.04375-0.1075 0.0675-0.30125 0.0675-0.58875l-0.01875-6.5962h-3.8675l-1.005 0.05625-0.46625-0.5125 1.22 0.10875h5.8688zm-8.1825 0.2225c0.39 0.21125 0.595 0.35 0.62 0.4225 0.0375 0.16625-0.08 0.32-0.34125 0.45625v6.29l0.0725 1.885c-0.03125 0.11875-0.08125 0.22-0.15625 0.3-0.06875 0.0825-0.24625 0.15875-0.525 0.235-0.27625 0.0725-0.57125 0.10875-0.88125 0.10875-0.1875 0.00875-0.315-0.01375-0.385-0.06625-0.07375-0.05-0.13625-0.135-0.1925-0.2525l0.09125-2.0562v-5.7425c-1.0438 0.79625-1.8575 1.385-2.4312 1.7662l-0.43625 0.2975c-0.13 0.0775-0.20625 0.07-0.23375-0.02125-0.0325-0.09375-0.02-0.175 0.0325-0.2475l0.37875-0.45875c0.3025-0.3575 0.5675-0.6775 0.78875-0.96 0.22375-0.28125 0.61125-0.84125 1.1662-1.6825 0.5575-0.84 1-1.5762 1.3262-2.2112l0.3175-0.62c0.15375-0.315 0.23875-0.47625 0.25875-0.47875 0.01875-0.0025 0.0425-0.00375 0.06875-0.00375 0.15625 0.02 0.5775 0.25875 1.2638 0.72625 0.68375 0.46625 1.0088 0.7725 0.975 0.915-0.045 0.155-0.26375 0.24625-0.6675 0.27125-0.32125 0.32625-0.69 0.705-1.11 1.1275m0.06-4.1612l-1.5062 0.9875c-0.88875 0.555-1.73 1.0025-2.5188 1.3438l-0.61875 0.27125c-0.12625 0.0575-0.215 0.0575-0.2725-5e-3 -0.04875-0.0625-0.0175-0.16 0.11-0.2925l0.39625-0.3775 0.59-0.565c0.36375-0.35875 0.78875-0.82875 1.2788-1.415 0.48875-0.58 0.91875-1.1762 1.2962-1.7788l0.3125-0.5025 0.18125-0.35c0.04125-0.025 0.09875-0.03125 0.16125-0.025 0.0775 0.01 0.205 0.10125 0.38625 0.26625l0.7775 0.58375c0.1075 0.08625 0.31 0.2525 0.5975 0.5075 0.29125 0.255 0.43125 0.435 0.41875 0.54375-0.0225 0.18-0.12 0.25875-0.28875 0.2425l-0.44875 0.0275c-0.37625 0.23875-0.65875 0.4175-0.8525 0.5375" fill="#154281"/>
<path d="m158.2 6.585h1.3362l-0.0075 3.49h-1.3562l0.0275-3.49zm-0.0275 3.8388h1.3562v3.465h-1.3625l0.00625-3.465zm0.05375-4.165l-1.74-0.79375c-0.135-0.055-0.2125-0.0725-0.235-0.055-0.02375 0.01625-0.04125 0.055-0.05375 0.1075l0.06125 1.0138 0.06375 1.9025c0.04125 1.255 0.07875 2.53 0.10375 3.8212 0.02875 1.2925 0.02875 2.3688 0 3.23-0.025 0.8625-0.08125 1.57-0.1725 2.1212-0.085 0.5525-0.205 1.0862-0.35625 1.5925-0.1525 0.51-0.32875 0.9325-0.535 1.2738l-0.35875 0.5925c-0.095 0.1625-0.11 0.2725-0.04875 0.33375 0.06375 0.0575 0.17375 0.00875 0.3275-0.14625l0.4225-0.40125c0.305-0.3 0.64625-0.70625 1.0325-1.22 0.38125-0.515 0.68625-1.105 0.90625-1.7725 0.22125-0.6675 0.35125-1.345 0.395-2.0362 0.03875-0.6925 0.07375-1.2238 0.09625-1.5925h1.3938v4.62c0 0.3825-0.0375 0.6125-0.11 0.68875-0.07125 0.08-0.14 0.1275-0.205 0.145-0.06625 0.0175-0.355 0.0025-0.8625-0.04625l-0.60125-0.05125c-0.125-0.00625-0.19375 0.02375-0.20625 0.09-0.0125 0.06375 0.04875 0.1325 0.1825 0.205l0.44625 0.24125c0.37625 0.20875 0.59625 0.50625 0.655 0.89l0.04375 0.37625c0.0125 0.05375 0.03 0.09 0.05375 0.1075 0.06875 0.0775 0.3225 0.085 0.76625 0.01625 0.44875-0.0625 0.78625-0.165 1.02-0.305 0.2325-0.13625 0.39625-0.28 0.49375-0.4325 0.095-0.15375 0.1425-0.38 0.1425-0.6775v-12.974c0.36125-0.25625 0.5325-0.4475 0.5225-0.56625-0.01125-0.05375-0.08375-0.1375-0.215-0.255-0.135-0.11625-0.4275-0.285-0.88375-0.5025-0.46-0.2175-0.71875-0.3225-0.77625-0.31-0.11625 0.03125-0.32 0.2875-0.62125 0.76875h-1.1475zm5.015-0.5875c-0.15625-0.0675-0.24375-0.09375-0.2625-0.07625-0.0225 0.0125-0.04 0.04625-0.0525 0.1l0.05625 0.72625 0.025 0.945c0.0075 0.32375 0 0.71875-0.0125 1.1825-0.01625 0.46625-0.09375 0.9975-0.2375 1.59-0.14375 0.59125-0.44 1.16-0.8875 1.7038l-0.3125 0.37625c-0.0625 0.07-0.07125 0.14125-0.0275 0.2075 0.04625 0.06375 0.115 0.0675 0.20375 0.01l0.50375-0.325c1.0575-0.67375 1.7188-1.3188 1.99-1.9325 0.2675-0.6125 0.425-1.2275 0.46375-1.845 0.03875-0.61375 0.07125-1.1638 0.1-1.6412l1.7238 0.01125v3.6662c0 0.45 0.08625 0.82625 0.25875 1.13 0.17125 0.3075 0.7775 0.455 1.8238 0.45125 1.3762 0 2.1738-0.10875 2.39-0.31875 0.22-0.21375 0.3375-0.43875 0.3475-0.67875 0.0125-0.23875-0.05625-0.46375-0.2-0.6725-0.14875-0.21-0.3075-0.375-0.48375-0.50375-0.14375-0.09375-0.25-0.13875-0.3225-0.135-0.06875 0.0075-0.1775 0.0475-0.31875 0.12375-0.1425 0.07375-0.30875 0.1375-0.50125 0.1875-0.19625 0.05125-0.4025 0.0825-0.625 0.095-0.275 0.0225-0.4425-5e-3 -0.50375-0.08625-0.06375-0.08-0.0975-0.23-0.0975-0.45375v-2.2538c0.37875-0.2125 0.56-0.41 0.55-0.59-0.01-0.095-0.30125-0.3-0.86-0.61375s-0.86875-0.46875-0.92625-0.46125c-0.12125 0.0175-0.345 0.26875-0.685 0.7525h-1.5575l-1.5625-0.67125zm0.15875 14.099c-0.38125 0.27875-0.75375 0.5275-1.115 0.7475-0.36875 0.2225-0.6475 0.3775-0.8375 0.46875l-0.57375 0.26625c-0.15125 0.0725-0.2125 0.1475-0.18375 0.22625 0.0275 0.0775 0.105 0.1025 0.2375 0.07125l0.59875-0.135c1.4125-0.3175 2.375-0.6225 2.8875-0.9175 0.5125-0.29625 0.9075-0.5375 1.195-0.725 1.0312 0.8675 1.98 1.4862 2.855 1.86l0.68125 0.26875c0.115 0.04625 0.1925 0.06375 0.23375 0.0475 0.04375-0.01375 0.16125-0.22625 0.3575-0.6325 0.2-0.405 0.53875-0.71375 1.025-0.92375l0.4925-0.215c0.12-0.055 0.17875-0.11375 0.17625-0.1775-0.00375-0.06-0.055-0.10125-0.15125-0.11875l-0.655-0.08125c-0.3425-0.0425-0.84625-0.15625-1.5012-0.34-0.65375-0.18625-1.3625-0.52375-2.1312-1.0138l0.57375-0.8625c0.16375-0.23125 0.40125-0.7075 0.7175-1.425 0.315-0.71875 0.57875-1.385 0.78125-2.0025 0.40625-0.2625 0.6075-0.45875 0.60125-0.5925-0.01375-0.12-0.2925-0.325-0.8425-0.6225-0.55125-0.29625-0.84-0.45625-0.87125-0.48-0.17125-0.10125-0.29375-0.145-0.3575-0.13-0.0675 0.015-0.15 0.1-0.2525 0.25375-0.10125 0.15125-0.23 0.34375-0.39375 0.57625h-4.0212l-1.11-0.08125 0.49125 0.45875 1.0338-0.0625 0.0075 0.46625c5e-3 0.6275 0.0725 1.2888 0.1975 1.9825 0.125 0.695 0.27625 1.2175 0.455 1.5762 0.175 0.355 0.3825 0.72375 0.6225 1.1062-0.4375 0.49625-0.8475 0.88375-1.2238 1.1625m2.1312-2.4562l-0.36-0.37375c-0.235-0.22875-0.47-0.59625-0.70375-1.105-0.2375-0.50875-0.39625-0.9475-0.475-1.3162-0.085-0.37375-0.14875-0.70875-0.20375-1.0075h3.2575l-0.135 0.53875c-0.05875 0.25125-0.19375 0.6625-0.40125 1.2375-0.2075 0.57375-0.39 1.005-0.55125 1.2862-0.16125 0.28625-0.3025 0.535-0.4275 0.74" fill="#154281"/>
<path d="m179.66 7.0312l-1.515 2.3075c0.23875 0.19 0.3425 0.34375 0.31 0.45625-0.02875 0.115-0.2025 0.2675-0.5175 0.45625v9.2525l0.1075 1.8212c-0.02 0.1175-0.06625 0.25-0.14375 0.38375-0.08 0.14-0.3875 0.23-0.92875 0.26875-0.53875 0.0425-0.8375 0.02375-0.895-0.05625-0.05875-0.08-0.0975-0.17375-0.115-0.2825l0.11-2.2712v-7.16c-0.25875 0.30625-0.44875 0.53125-0.57375 0.675l-0.65625 0.7-0.39625 0.42875c-0.1025 0.12125-0.1775 0.15625-0.23125 0.10375-0.05625-0.05-0.0425-0.14625 0.0375-0.29l0.36-0.62c0.49-0.86625 0.95-1.8362 1.3675-2.9125 0.4225-1.0738 0.7325-1.9338 0.9425-2.585 0.2025-0.6475 0.35-1.1475 0.43-1.5012l0.1925-0.8075c0.00875-0.065 0.02125-0.10625 0.02875-0.12 0.01125-0.01375 0.03375-0.03 0.07875-0.0425 0.07-0.01625 0.46375 0.14 1.1738 0.4725 0.71 0.33125 1.135 0.55125 1.27 0.66375 0.13375 0.11125 0.1875 0.215 0.1575 0.31-0.04375 0.12625-0.24 0.24125-0.59375 0.34875m6.0662-0.21375c0.02875 0.245 0.10625 0.705 0.23625 1.3812s0.64 1.445 1.5312 2.3088c0.88875 0.8675 1.865 1.55 2.9262 2.0512l0.34 0.16125c0.06375 0.03625 0.1025 0.08 0.1075 0.135 5e-3 0.0525-0.0325 0.09-0.1075 0.1075l-0.36875 0.1075c-0.23875 0.0725-0.45125 0.19375-0.6375 0.3625-0.185 0.17125-0.345 0.35875-0.48125 0.55625-0.13375 0.2025-0.22875 0.36125-0.285 0.47625-0.05625 0.1175-0.1275 0.16625-0.21 0.14625-0.07625-0.00875-0.6175-0.445-1.6312-1.3075-1.0125-0.86125-1.6375-1.8538-1.8825-2.9738-0.24125-1.1212-0.48-2.3462-0.71375-3.675l-0.10625-0.58375c-0.02625-0.11125-0.03125-0.19-0.0275-0.2275 0.00625-0.0375 0.025-0.07125 0.05-0.09125 0.02625-0.02 0.08375-0.02 0.1725-0.0025l0.42 0.05375 0.5225 0.13375c0.44125 0.10125 0.6525 0.25125 0.63 0.44875-0.015 0.085-0.1725 0.2275-0.485 0.43125m-2.405 2.4125c-0.1075 0.1425-0.18875 0.25125-0.235 0.32375l-1.1375 1.5788c-1.1088 1.52-2.1388 2.6825-3.0962 3.4888l-0.44875 0.37875c-0.0675 0.05875-0.12625 0.06375-0.17625 0.0125-0.04875-0.04875-0.03375-0.13625 0.05-0.25625l0.34125-0.51125c0.46875-0.71 0.875-1.4688 1.2188-2.2738 0.3525-0.80375 0.62-1.4888 0.81-2.0538 0.19-0.5675 0.32-0.98875 0.38625-1.27l0.2075-0.86125 0.02375-0.19c0.0075-5e-3 0.0225-0.01375 0.05375-0.025 0.1375-0.04375 0.635 0.155 1.4825 0.5925l0.68125 0.375c0.22625 0.12625 0.34375 0.2375 0.355 0.33375 0.00875 0.09375-0.01375 0.17-0.0675 0.22375-0.04875 0.0425-0.195 0.08625-0.44875 0.13375m-2.4425 4.9712l-0.68 0.04375-0.39625-0.4725 0.8625 0.07875h4.8188c0.28625-0.4125 0.5075-0.63 0.67125-0.64625 0.1975-0.01875 0.56375 0.2025 1.0988 0.6575 0.5375 0.45875 0.79625 0.74 0.775 0.8425-0.015 0.05125-0.0475 0.1025-0.0925 0.145-0.045 0.04625-0.1525 0.1325-0.32625 0.25625-0.065 0.83375-0.1275 1.69-0.17875 2.5788-0.0525 0.89-0.15625 1.6375-0.3075 2.2488-0.1475 0.61125-0.34875 1.0375-0.595 1.2825-0.24875 0.24625-0.54125 0.43625-0.87875 0.56875-0.33875 0.12875-0.56125 0.205-0.66375 0.22125-0.1075 0.0175-0.3075 0.04-0.6125 0.0625-0.3025 0.02375-0.46 0.01-0.47875-0.045-0.01-0.0175-0.01-0.0875 0-0.21 0.01125-0.12125-0.0225-0.295-0.1075-0.51625-0.1075-0.28125-0.2225-0.49125-0.35-0.6275-0.12875-0.1375-0.31-0.27875-0.55625-0.42125l-0.52-0.295c-0.12625-0.06625-0.18-0.1325-0.16125-0.195 0.0175-0.06125 0.08875-0.08625 0.205-0.06875l0.7625 0.15375c0.86625 0.18125 1.4175 0.16125 1.6525-0.0575 0.23125-0.21875 0.39-0.49375 0.46875-0.83 0.0825-0.33625 0.14375-0.8025 0.185-1.4 0.04125-0.59875 0.1075-1.7138 0.1975-3.3462l-1.6962-0.00875c-0.1125 0.16125-0.1825 0.2475-0.205 0.26125l-0.34125 0.2125c-0.115 0.68125-0.2475 1.43-0.405 2.2388-0.155 0.81125-0.4525 1.5412-0.8875 2.195-0.435 0.6525-0.97875 1.19-1.6225 1.6138-0.6475 0.425-1.15 0.715-1.5062 0.87125l-0.67625 0.29625c-0.15 0.065-0.235 0.05875-0.26-0.0225-0.02375-0.08 0.0125-0.15375 0.10125-0.22l0.54375-0.37875c0.18125-0.12375 0.4375-0.3625 0.77125-0.71625 0.3275-0.3525 0.64125-0.80625 0.93-1.3588 0.295-0.55375 0.51625-1.1925 0.67625-1.9138 0.155-0.725 0.26625-1.4488 0.3325-2.1738l0.08125-0.905h-0.62875z" fill="#154281"/>
<path d="m199.86 14.365h4.99v2.3862h-4.99v-2.3862zm-3.2038-2.7138c-0.4175 0.70375-0.85375 1.3638-1.3088 1.9762-0.455 0.6175-0.86875 1.105-1.2375 1.465l-0.43875 0.43125c-0.12 0.1125-0.15375 0.19875-0.09625 0.25875 0.05875 0.05875 0.1375 0.05375 0.25-0.0175l0.46625-0.29625c0.48625-0.30625 0.99375-0.6625 1.5138-1.0675 0.52-0.4075 1.205-1.0438 2.055-1.9112v7.1875l-0.1075 1.875c0.0125 0.21875 0.05375 0.36625 0.1225 0.43625 0.0725 0.07375 0.36625 0.10875 0.87625 0.105 0.51-5e-3 0.83-0.06625 0.9525-0.1925 0.11875-0.1275 0.1975-0.26875 0.2275-0.43l-0.07125-1.5325v-2.8375h4.99v2.3062c0 0.25-0.04875 0.43125-0.13625 0.5425-0.08875 0.10875-0.5375 0.1325-1.345 0.06625l-0.6725-0.05375c-0.1975-0.01-0.3075 0.0175-0.32625 0.08875-0.0225 0.06375 0.0325 0.12625 0.1625 0.18125l0.57375 0.2425c0.2175 0.09625 0.425 0.255 0.6275 0.475 0.19875 0.22125 0.30625 0.4425 0.325 0.665 0.02 0.22 0.04 0.3425 0.06375 0.365 0.04125 0.0675 0.305 0.07 0.79625 0.01375 0.48375-0.05625 0.9375-0.14375 1.3575-0.265 0.42-0.11875 0.6275-0.50125 0.6275-1.1462v-8.3612c0.36375-0.25125 0.53625-0.45625 0.5225-0.61875-0.02-0.13375-0.58125-0.47-1.69-1.0162-0.20375-0.09375-0.34-0.13-0.4125-0.105-0.07125 0.02125-0.16125 0.10375-0.26625 0.24625-0.11 0.13875-0.25875 0.335-0.4425 0.5875h-4.6575l-0.815-0.3775c0.49-0.69375 0.97125-1.4212 1.445-2.1812h8.975c0.19 0 0.2925-0.0475 0.3075-0.13625 0.01125-0.095-0.15125-0.295-0.49625-0.6025-0.34375-0.31-0.725-0.63125-1.1425-0.975-0.15625-0.11875-0.26875-0.1725-0.33625-0.16625-0.07125 0.00875-0.19125 0.14125-0.36625 0.39625-0.17875 0.25375-0.455 0.635-0.83125 1.1425l-5.905-0.0175c0.33-0.52625 0.68625-1.1325 1.0675-1.8212l0.3875-0.15375c0.14625-0.0575 0.2375-0.1025 0.25875-0.1325 0.06125-0.065 0.0875-0.13375 0.07625-0.205-0.0075-0.07375-0.12-0.14375-0.335-0.21625l-0.7275-0.2425c-0.23375-0.0725-0.6125-0.17-1.135-0.29625-0.525-0.125-0.84-0.18875-0.9475-0.18875-0.05625 0.00625-0.08375 0.015-0.0975 0.02625l-0.0275 0.19125-0.2425 0.88875c-0.0575 0.23-0.16 0.54875-0.30625 0.95375-0.14125 0.4025-0.305 0.80875-0.48875 1.2138h-3.6712l-1.195-0.1075 0.52 0.5125 0.55-0.06375h3.64c-0.55625 1.2262-1.0425 2.19-1.4625 2.895m3.2038 2.3712v-2.3938h4.9775l0.0125 2.3938h-4.99z" fill="#154281"/>
<path d="m216.86 6.7212l-0.135 0.835-0.2675 1.0738c-0.13 0.535-0.19375 0.80875-0.1975 0.8275l-0.2075 0.7c-0.05375 0.1625-0.0725 0.27-0.05375 0.325l0.34875 0.42875 0.27125 0.35125c0.21 0.2925 0.39125 0.6125 0.54875 0.95875 0.16125 0.3475 0.25375 0.6875 0.28375 1.0225 0.04125 0.61625-0.04625 1.0238-0.26625 1.2212-0.2225 0.19625-0.46 0.3125-0.70625 0.35-0.25 0.03375-0.46 0.03875-0.64125 0.00875l-0.3425-0.055c-0.16125-0.0225-0.24875 0-0.26375 0.0675-0.01375 0.06875 0.05 0.1375 0.19375 0.2025l0.315 0.16125c0.275 0.14875 0.46125 0.4 0.56125 0.745 0.0975 0.3475 0.15125 0.5825 0.16125 0.705 0.00625 0.1225 0.02625 0.19625 0.05375 0.2225 0.02625 0.02875 0.065 0.04375 0.12125 0.05125 0.15875 0.03 0.38875-0.0075 0.67875-0.10875 0.29375-0.1025 0.585-0.27625 0.87375-0.52375 0.29125-0.24875 0.53-0.57625 0.71625-0.98375 0.1775-0.40625 0.26375-0.8025 0.24875-1.1888-0.00875-0.38625-0.105-0.76875-0.28125-1.1475-0.175-0.38125-0.4175-0.76125-0.71875-1.145-0.29875-0.3825-0.78-0.8225-1.4388-1.3188l0.4925-0.835 0.94-1.4688c0.1025-0.16875 0.25625-0.42875 0.4525-0.78125 0.44875-0.21 0.68125-0.38 0.6975-0.51375 0.0125-0.16125-0.1975-0.36625-0.63-0.615-0.43375-0.24625-0.75875-0.42125-0.97-0.52375-0.21125-0.1-0.355-0.145-0.4275-0.13375-0.065 0.0175-0.145 0.09625-0.2425 0.24-0.095 0.14-0.22125 0.305-0.37875 0.495h-1.4862l-1.3988-0.66375c-0.22-0.1-0.34875-0.14375-0.38125-0.12375-0.035 0.01625-0.06625 0.0775-0.09625 0.1775l0.10125 2.26v10.829l-0.1275 2.405c0.03 0.14375 0.09 0.26375 0.18125 0.36125 0.0875 0.095 0.33875 0.1125 0.75375 0.04875 0.41-0.06375 0.6625-0.14625 0.7575-0.25125 0.0925-0.105 0.1625-0.23875 0.21-0.39875l-0.1075-2.2162v-12.078h1.8038zm4.5212 0.295h3.3738v2.63h-3.3738v-2.63zm0 2.9788h3.3738v2.7362h-3.3738v-2.7362zm3.3738 3.3038c0 0.0825 0.0475 0.15875 0.14 0.2275s0.4 0.07625 0.92875 0.01875c0.52625-0.05625 0.8275-0.14375 0.90625-0.26375 0.07625-0.12 0.12-0.26625 0.135-0.44l-0.11-1.6788 0.01-3.5275c0.37625-0.25375 0.54875-0.4625 0.5225-0.61875-0.03625-0.1425-0.32-0.3425-0.85-0.59875-0.53-0.2575-0.82-0.405-0.87625-0.44125-0.17875-0.1-0.3-0.14625-0.37125-0.12875-0.06875 0.015-0.15875 0.1-0.26875 0.25125-0.11 0.15375-0.24875 0.34125-0.4175 0.5675h-3.05l-1.6075-0.71625c-0.19875-0.08625-0.30875-0.1175-0.33-0.1-0.02625 0.01875-0.04375 0.07-0.05375 0.15375l0.12625 2.2788v10.274c0 0.335-0.03875 0.555-0.10625 0.6625l-0.15375 0.2175c-0.045 0.06-0.0625 0.10375-0.05375 0.13375l0.1075 0.1875 0.84875 1.715c0.04875 0.095 0.1275 0.12875 0.2375 0.1075l1.2288-1.265 2.2862-2.1088c0.59375 0.935 1.1088 1.6175 1.5525 2.055l1.1775 1.05c0.12875 0.12375 0.23125 0.1775 0.3075 0.16125 0.075-0.01875 0.185-0.135 0.3325-0.3475 0.14375-0.21125 0.34625-0.44375 0.6-0.6975 0.255-0.25625 0.5075-0.42625 0.75625-0.505l0.49625-0.165c0.12-0.03625 0.17375-0.09 0.15875-0.16-0.01-0.0725-0.04875-0.12-0.1125-0.145l-0.5425-0.1775c-0.7225-0.235-1.43-0.5975-2.1238-1.0875-0.695-0.49-1.1325-0.84625-1.3112-1.0638-0.18-0.21875-0.32875-0.42-0.45625-0.605 0.97375-0.4075 1.91-0.81125 2.8-1.2112 0.4375 0.025 0.6675-0.05625 0.69875-0.24125 5e-3 -0.05875-0.13625-0.23375-0.43-0.525-0.295-0.29125-0.705-0.59-1.23-0.89375-0.1025-0.0525-0.1675-0.07375-0.19375-0.0575-0.02625 0.01375-0.0575 0.0625-0.0925 0.13875l-0.15375 0.3225c-0.30125 0.61-0.8625 1.315-1.6862 2.1175l-0.665-1.0588c-0.095-0.13-0.1975-0.36625-0.305-0.705-0.105-0.3375-0.2225-0.78-0.34125-1.3238h1.535v0.2175zm-3.3738 5.3912v-5.6088l1.41-0.01 0.08625 1.1162c0.05625 0.6875 0.16125 1.3012 0.31125 1.84 0.15625 0.53625 0.3725 1.1462 0.66125 1.8288-0.80875 0.31-1.6312 0.58875-2.4688 0.83375" fill="#154281"/>
<path d="m242.1 6.3812c0.04125 0.25875 0.1025 0.58375 0.185 0.98375 0.08625 0.3975 0.28375 0.8625 0.60125 1.3938 0.3125 0.5325 0.92 1.2188 1.8288 2.0562 0.905 0.83625 1.9988 1.3625 3.2812 1.5775l0.46375 0.08c0.04625 0.0125 0.0825 0.05125 0.1 0.1175 0.01875 0.06625-0.01 0.10625-0.07375 0.12375l-0.57125 0.18875c-0.2125 0.0725-0.4125 0.20375-0.60125 0.3875-0.1925 0.18625-0.32125 0.34125-0.3925 0.46625-0.0675 0.125-0.13875 0.28375-0.21 0.47-0.0725 0.19-0.11625 0.30625-0.13375 0.35125-0.02 0.04375-0.04875 0.08625-0.09 0.12625-0.04375 0.03875-0.16375 0.00875-0.35625-0.08625-0.72875-0.33125-1.4238-0.82625-2.0938-1.495-0.66875-0.6675-1.205-1.36-1.61-2.0838-0.40375-0.725-0.71125-1.4225-0.91875-2.0938-0.21125-0.67625-0.35375-1.26-0.44125-1.7525-0.08375-0.4925-0.155-0.81625-0.2225-0.9725l-0.15375-0.36875-0.1875-0.24125c-0.06125-0.15125-0.0075-0.24 0.16125-0.27125 0.1225-0.0175 0.41 0.015 0.84625 0.0975 0.44 0.07875 0.725 0.15625 0.8525 0.2275 0.12875 0.0725 0.195 0.15375 0.2025 0.2425 0.0025 0.16-0.14875 0.32-0.46625 0.475m-5.1762 12.48c2.1488-0.0475 4.285-0.10375 6.4138-0.1625-0.27375-0.58375-0.57875-1.045-0.91-1.3762-0.3325-0.33125-0.54125-0.53375-0.625-0.61-0.08375-0.075-0.16375-0.14625-0.245-0.21375-0.08-0.07125-0.12125-0.15875-0.11625-0.26625 0.0025-0.1075 0.15875-0.09875 0.47 0.02625l0.52125 0.21375c0.31 0.1475 0.5825 0.275 0.82 0.3875 0.23625 0.115 0.58375 0.3 1.035 0.55375 0.45625 0.25375 0.86 0.62875 1.2138 1.1212 0.35125 0.4925 0.54875 0.9975 0.5925 1.52 0.04 0.52-0.05375 0.93375-0.2825 1.2388-0.2325 0.30375-0.5525 0.47125-0.9625 0.4925-0.4075 0.02375-0.7075-0.105-0.9-0.3875-0.19375-0.28-0.30875-0.68375-0.35-1.2088l-0.05375-0.77125c-1.1988 0.165-2.1975 0.315-2.995 0.4425-0.79625 0.12875-1.695 0.32375-2.6912 0.585-0.995 0.25875-1.6112 0.435-1.85 0.5225l-0.5475 0.215c-0.25375 0.1025-0.4075 0.0675-0.46875-0.1075l-0.6975-1.7212c-0.06125-0.14875-0.07875-0.25375-0.055-0.31 0.02125-0.05625 0.08625-0.09875 0.1875-0.13l0.45875-0.13375c0.26-0.07125 0.5775-0.26875 0.94125-0.58875s0.85-1.0762 1.4538-2.2675c0.6075-1.1938 0.97875-2.0562 1.12-2.59l0.15375-0.62125 0.05375-0.26625c0.04125-0.0675 0.13-0.075 0.25875-0.02875 1.4188 0.575 2.195 0.955 2.3212 1.14 0.1275 0.18625 0.18875 0.31 0.18125 0.36625-0.0225 0.115-0.26625 0.22875-0.73375 0.3425-1.1725 1.4612-2.4088 2.9925-3.7125 4.5938m-1.0538-6.985c-0.6925 0.76875-1.2512 1.3212-1.685 1.6512-0.43 0.33125-0.88375 0.66875-1.3525 1.01l-0.52 0.37625c-0.12 0.09-0.1975 0.095-0.235 0.01875-0.03375-0.07875-0.025-0.155 0.0375-0.23375l0.385-0.4575c0.33-0.40125 0.735-0.905 1.2112-1.5125 0.47625-0.60875 0.955-1.445 1.435-2.5125 0.47875-1.0662 0.79375-1.8338 0.9425-2.3012l0.235-0.7525 0.0775-0.295c0.0675-0.05625 0.19625-0.03875 0.38625 0.05375l0.8275 0.34875c0.1075 0.05375 0.32 0.17125 0.645 0.345 0.3225 0.1775 0.56125 0.32625 0.7175 0.44875 0.15375 0.12375 0.16375 0.2525 0.02625 0.39-0.01625 0.0175-0.1225 0.05375-0.3125 0.10875l-0.315 0.08c-0.98375 1.3888-1.8138 2.4675-2.5062 3.2338" fill="#154281"/>
<path d="m259.42 17.949c-0.0025 0.13875 0.04375 0.28125 0.14375 0.42375 0.1025 0.1425 0.42125 0.16375 0.9525 0.0625 0.535-0.1025 0.85875-0.27375 0.98-0.5125l-0.07375-1.4v-3.0312c0.35375-0.28125 0.52625-0.48875 0.52-0.62-0.0225-0.21-0.56625-0.565-1.6238-1.0662-0.235-0.11-0.39375-0.145-0.47625-0.11375-0.08375 0.03375-0.17 0.1325-0.26625 0.2975-0.09 0.16375-0.205 0.345-0.34375 0.54125h-3.2475l-1.8112-0.75375c-0.0925-0.03375-0.1425-0.05125-0.15625-0.04875-0.0175 0.0025-0.04125 0.0275-0.07875 0.0775l0.07125 1.6562v3.5188l-0.07875 1.3375c0.0275 0.12625 0.075 0.2225 0.14375 0.29 0.06375 0.07 0.34 0.0975 0.81625 0.0825 0.475-0.01625 0.75625-0.10625 0.84-0.28 0.08-0.16875 0.12-0.33625 0.12-0.505v-1.005h3.5812l-0.0125 1.0488zm-6.7988-11.59l0.44875 0.51125 0.915-0.05625h10.364l0.0075 12.284c0 0.17375-0.02125 0.29375-0.06375 0.3625-0.03875 0.07-0.14875 0.13-0.32375 0.17625-0.18125 0.04625-0.81375 0.0075-1.9-0.1175l-0.72875-0.08c-0.11875-0.01125-0.19375 0.02375-0.22375 0.10875-0.02875 0.08375 0.0125 0.1425 0.125 0.18l0.7275 0.25c0.93375 0.3275 1.4525 0.76375 1.555 1.3088l0.05125 0.32375c0.0175 0.07125 0.04625 0.125 0.08125 0.16 0.05875 0.0725 0.22375 0.0925 0.495 0.05375l0.69875-0.07875c0.12375-0.0175 0.3825-0.08625 0.77375-0.20125 0.395-0.1175 0.625-0.2975 0.68875-0.54125 0.06375-0.24875 0.0975-0.57125 0.0975-0.97125l-0.01-12.631c0.3375-0.24125 0.505-0.435 0.505-0.58625-0.0075-0.08625-0.0925-0.19375-0.25375-0.3175-0.16625-0.1225-0.62-0.4-1.36-0.83875-0.24125-0.135-0.405-0.19125-0.4925-0.16125-0.08375 0.03-0.18875 0.13125-0.3025 0.305-0.1175 0.17375-0.27125 0.395-0.46375 0.665h-10.209l-1.2025-0.1075zm-0.775 3.1912l0.46875 0.5125 1.015-0.0525h9.9062c0.105 0 0.185-0.0675 0.22875-0.20125 0.05125-0.13625-0.46875-0.615-1.5475-1.4412-0.18-0.13125-0.33-0.19125-0.44625-0.185-0.115 0.01-0.5425 0.5025-1.2775 1.4762h-7.0162l-1.3312-0.10875zm4.005 3.3212h3.5625v3.6775h-3.5625v-3.6775z" fill="#154281"/>
<path d="m78.292 36.038c1.1938-0.03 1.365-0.26875 1.365-1.2675v-6.24c0-1.0388-0.1975-1.2088-1.365-1.265v-0.265h4.1738v0.265c-1.0262 0.0425-1.3762 0.1425-1.3762 1.265v6.24c0 1.0962 0.3375 1.2375 1.3762 1.2675v0.26375h-4.1738v-0.26375z" fill="#154281"/>
<path d="m92.792 27.265c-0.8825 0.09875-1.3338 0.15625-1.3338 1.7988v7.3925h-0.23875l-6.1825-7.7012h-0.03v5.48c0 1.4475 0.29625 1.7562 1.325 1.8025v0.26375h-3.3062v-0.26375c1.0675-0.07375 1.3638-0.2825 1.3638-1.8025v-6.1962c-0.57875-0.7025-0.8-0.77375-1.3638-0.77375v-0.26625h2.4038l5.3838 6.76h0.025v-4.695c0-1.615-0.39-1.7275-1.3512-1.7988v-0.26625h3.305v0.26625z" fill="#154281"/>
<path d="m93.37 36.301h3.99c4.3012 0 5.41-2.7538 5.41-4.6212 0-3.15-2.235-4.68-5.6062-4.68h-3.7938v0.265c1.0812 0.085 1.2375 0.22625 1.2375 1.265v6.24c0 0.985-0.16875 1.2088-1.2375 1.2675v0.26375zm2.6712-8.2338c0-0.2825 0-0.5475 0.66125-0.5475 1.7675 0 2.5538 0.37625 3.23 0.9825 0.96875 0.87 1.3062 2.01 1.3062 3.1888 0 4.09-3.4562 4.09-4.355 4.09-0.675 0-0.8425-0.0975-0.8425-0.575v-7.1388z" fill="#154281"/>
<path d="m113.34 27.265c-1.0812 0.11375-1.3188 0.325-1.3188 1.7988v3.6675c0 1.1238 0 3.7675-3.6375 3.7675-3.4875 0-3.4875-2.74-3.4875-3.5838v-4.385c0-1.0388-0.19625-1.1938-1.2638-1.265v-0.26625h3.9775v0.26625c-1.11 0.08375-1.2762 0.26875-1.2762 1.265v4.4962c0 0.90125 0 2.855 2.4412 2.855 1.0988 0 1.8962-0.45125 2.3038-1.1112 0.1825-0.31 0.3275-0.77375 0.3275-1.9112v-3.795c0-1.5038-0.33875-1.7425-1.3225-1.7988v-0.26625h3.2562v0.26625z" fill="#154281"/>
<path d="m120.31 29.798h-0.34875c-0.24125-1.1538-1.14-2.4188-2.6175-2.4188-0.70125 0-1.4162 0.43625-1.4162 1.305 0 2.11 4.6925 2.3888 4.6925 5.27 0 1.195-0.9575 2.545-2.9662 2.545-1.0675 0-1.755-0.4775-2.1762-0.4775-0.2975 0-0.43875 0.2375-0.43875 0.465h-0.3075l-0.4225-2.9812h0.3225c0.2675 0.66 0.98625 2.4862 2.8825 2.4862 1.1238 0 1.685-0.80125 1.685-1.5588 0-0.80125-0.22375-1.2788-2.29-2.4875-1.2912-0.745-2.1925-1.3638-2.1925-2.7562 0-1.5988 1.2825-2.3862 2.5462-2.3862 0.8425 0 1.6 0.4775 1.9512 0.4775 0.395 0 0.46375-0.32125 0.4925-0.4775h0.29625l0.3075 2.995z" fill="#154281"/>
<path d="m128.02 36.301h-4.1012v-0.26375c1.2762-0.05875 1.32-0.38125 1.32-1.4225v-7.025h-0.75875c-1.5475 0-1.9262 0.265-2.2362 1.7975h-0.3375l0.08625-2.3875h7.925l0.085 2.3875h-0.3375c-0.2975-1.5462-0.69-1.7975-2.2338-1.7975h-0.75875v7.18c0 0.95625 0.16875 1.2225 1.3475 1.2675v0.26375z" fill="#154281"/>
<path d="m139.66 36.038c-0.57625-0.03-0.9125-0.2825-1.2238-0.6625l-2.8925-3.5562c0.715-0.13875 2.5438-0.4775 2.5438-2.3612 0-2.1625-2.3188-2.4575-3.5688-2.4575h-3.8775v0.265c0.98 0.1 1.1912 0.22625 1.1912 1.265v6.085c0 1.0538-0.05625 1.3488-1.1912 1.4225v0.26375h3.8912v-0.26375c-1.125-0.05875-1.2638-0.325-1.2638-1.2675v-2.7675l0.78375-0.0275 3.3438 4.3262h2.2638v-0.26375zm-6.3912-8.0125c0-0.4075 0.12375-0.505 0.86875-0.505 0.57625 0 2.4175 0.04125 2.4175 1.9112 0 2.0075-2.11 2.0362-3.2862 2.05v-3.4562z" fill="#154281"/>
<path d="m140.16 36.038c1.195-0.03 1.365-0.26875 1.365-1.2675v-6.24c0-1.0388-0.19625-1.2088-1.365-1.265v-0.265h4.1775v0.265c-1.0275 0.0425-1.3788 0.1425-1.3788 1.265v6.24c0 1.0962 0.3375 1.2375 1.3788 1.2675v0.26375h-4.1775v-0.26375z" fill="#154281"/>
<path d="m154.65 36.038c-0.61625-0.045-0.81375-0.19875-1.2638-1.225l-3.5025-7.9812h-0.27875l-2.9225 6.8988c-0.26875 0.62-0.70125 1.645-1.025 1.9962-0.25375 0.26625-0.4925 0.29375-0.71625 0.31125v0.26375h2.7812v-0.26375c-0.2925 0-0.955 0-0.955-0.5925 0-0.155 0.0425-0.35125 0.11125-0.535l0.64875-1.6438h3.68l0.5775 1.3488c0.0825 0.1975 0.26875 0.66125 0.26875 0.88625 0 0.51875-0.46625 0.53625-0.98625 0.53625v0.26375h3.5825v-0.26375zm-6.8862-3.3475l1.6162-3.8638 1.6312 3.8638h-3.2475z" fill="#154281"/>
<path d="m159.15 27.265c-0.9575 0.05625-1.3075 0.15625-1.3075 1.265v6.6475c0 0.56375 0.25 0.5775 1.4188 0.5775 2.11 0 3.0038-0.0575 3.8075-1.9h0.35375l-0.6775 2.4462h-7.5575v-0.26375c0.89875-0.05875 1.2212-0.18625 1.2212-1.2675v-6.24c0-1.1088-0.3375-1.1938-1.2212-1.265v-0.26625h3.9625v0.26625z" fill="#154281"/>
<path d="m170.42 27.939c0-0.21 0.0275-0.405 0.31-0.405 0.14 0 0.3375-0.015 0.6325-0.015 0.9975 0 2.4588 0.26625 2.4588 1.9388s-1.6725 1.7-2.0688 1.7l-1.3325 0.01375v-3.2325zm-2.7838-0.67375c1.1512 0.05625 1.3512 0.22625 1.3512 1.265v6.24c0 0.99875-0.16875 1.2362-1.3512 1.2675v0.2625h4.695c3.12 0 3.4012-1.9375 3.4012-2.4725 0-1.475-1.1225-2.1488-2.3462-2.4025v-0.02625c0.6325-0.15625 1.87-0.465 1.87-2.0275 0-2.1775-2.4638-2.3725-3.6838-2.3725h-3.9362v0.26625zm2.7838 4.4525c1.3475 0 1.8012 0.07125 2.275 0.21375 0.7325 0.225 1.4188 0.6875 1.4188 1.84 0 1.885-1.6962 2.0088-2.6262 2.0088-0.815 0-1.0675-0.055-1.0675-0.575v-3.4875z" fill="#154281"/>
<path d="m186.34 36.038c-0.6175-0.045-0.81625-0.19875-1.2675-1.225l-3.4975-7.9812h-0.28l-2.9262 6.8988c-0.26375 0.62-0.70125 1.645-1.0225 1.9962-0.25125 0.26625-0.49125 0.29375-0.71875 0.31125v0.26375h2.7825v-0.26375c-0.29375 0-0.95875 0-0.95875-0.5925 0-0.155 0.0475-0.35125 0.115-0.535l0.65-1.6438h3.6812l0.57625 1.3488c0.085 0.1975 0.26875 0.66125 0.26875 0.88625 0 0.51875-0.46875 0.53625-0.98625 0.53625v0.26375h3.5838v-0.26375zm-6.8875-3.3475l1.6175-3.8638 1.63 3.8638h-3.2475z" fill="#154281"/>
<path d="m196.64 27.265c-0.88625 0.09875-1.3375 0.15625-1.3375 1.7988v7.3925h-0.2375l-6.1838-7.7012h-0.0275v5.48c0 1.4475 0.2925 1.7562 1.3225 1.8025v0.26375h-3.3038v-0.26375c1.0688-0.07375 1.3625-0.2825 1.3625-1.8025v-6.1962c-0.575-0.7025-0.80125-0.77375-1.3625-0.77375v-0.26625h2.4038l5.38 6.76h0.03v-4.695c0-1.615-0.39625-1.7275-1.3538-1.7988v-0.26625h3.3075v0.26625z" fill="#154281"/>
<path d="m202.8 26.999h3.6812v0.26625c-0.8425 0.07125-1.1362 0.11375-2.1362 1.0962l-2.67 2.6425 3.2762 3.5125c0.91375 1.0112 1.4038 1.5462 2.2025 1.52v0.26375h-4.2825v-0.26375c0.74125-0.03 0.97875-0.045 0.97875-0.35375 0-0.43375-1.3462-1.8825-1.8212-2.36l-1.4925-1.4775-0.36625 0.2975v2.6275c0 0.985 0.16875 1.2088 1.2675 1.2662v0.26375h-3.965v-0.26375c1.0988-0.0575 1.265-0.2675 1.265-1.4212v-6.085c0-1.095-0.3075-1.1938-1.265-1.265v-0.26625h3.9925v0.26625c-1.0962 0.07125-1.295 0.22625-1.295 1.265v2.8812c3.1788-2.8525 3.5838-3.2338 3.5838-3.71 0-0.38-0.2625-0.4075-0.95375-0.43625v-0.26625z" fill="#154281"/>
<path d="m219.32 29.962c-0.35125-1.4738-1.3625-2.5988-3.0912-2.5988-0.7025 0-1.5188 0.28-2.1088 0.8575-0.5475 0.53375-1.165 1.4338-1.165 3.4575 0 2.9788 1.67 4.2012 3.44 4.2012 1.7312 0 2.7438-0.9975 3.1762-1.42l0.25375 0.2525c-0.015 0.0275-1.2238 1.7862-3.8088 1.7862-2.2638 0-4.6912-1.3512-4.6912-4.8488 0-3.1488 2.3588-4.8488 4.775-4.8488 1.2525 0 2.165 0.46375 2.475 0.46375 0.06875 0 0.5325 0 0.64625-0.46375h0.29625l0.125 3.1612h-0.3225z" fill="#154281"/>
<path d="m225.52 36.499c2.54 0 4.5938-1.8412 4.5938-4.835 0-3.2312-2.29-4.8625-4.5938-4.8625s-4.5962 1.6312-4.5962 4.8625c0 2.9938 2.0512 4.835 4.5962 4.835m0-0.50625c-1.5612 0-2.9962-1.2512-2.9962-4.3425 0-3.2038 1.5625-4.3438 2.9962-4.3438 1.4325 0 2.9925 1.14 2.9925 4.3438 0 3.0912-1.435 4.3425-2.9925 4.3425" fill="#154281"/>
<path d="m231.72 35.698c0-0.44875 0.35375-0.80375 0.77375-0.80375 0.4225 0 0.78875 0.3675 0.78875 0.80375 0 0.52-0.49375 0.7575-0.78875 0.7575s-0.77375-0.225-0.77375-0.7575" fill="#154281"/>
<path d="m235.43 38.015c0.92625-0.59125 1.1538-1.2225 1.1538-1.4888 0-0.125-0.1-0.19625-0.2-0.19625-0.0275 0-0.06875 0.0125-0.125 0.0275-0.0425 0.015-0.1125 0.02875-0.21 0.02875-0.36625 0-0.87375-0.14125-0.87375-0.7025 0-0.60625 0.46375-0.81625 0.815-0.81625 0.325 0 1.14 0.18375 1.14 1.35 0 0.99625-1.1525 1.9275-1.5738 2.0662l-0.12625-0.26875z" fill="#154281"/>
<path d="m242.18 27.265c-0.96 0.05625-1.3062 0.15625-1.3062 1.265v6.6475c0 0.56375 0.24875 0.5775 1.4162 0.5775 2.1062 0 3.0062-0.0575 3.8088-1.9h0.35l-0.6725 2.4462h-7.5625v-0.26375c0.9-0.05875 1.2225-0.18625 1.2225-1.2675v-6.24c0-1.1088-0.3375-1.1938-1.2225-1.265v-0.26625h3.9662v0.26625z" fill="#154281"/>
<path d="m251.83 36.301h-4.1012v-0.26375c1.2762-0.05875 1.32-0.38125 1.32-1.4225v-7.025h-0.7575c-1.5488 0-1.925 0.265-2.235 1.7975h-0.34l0.08375-2.3875h7.93l0.085 2.3875h-0.34c-0.295-1.5462-0.6875-1.7975-2.2338-1.7975h-0.75875v7.18c0 0.95625 0.17125 1.2225 1.3475 1.2675v0.26375z" fill="#154281"/>
<path d="m254.43 36.301h3.9912c4.3 0 5.4088-2.7538 5.4088-4.6212 0-3.15-2.2325-4.68-5.6062-4.68h-3.7938v0.265c1.0788 0.085 1.2338 0.22625 1.2338 1.265v6.24c0 0.985-0.16625 1.2088-1.2338 1.2675v0.26375zm2.6662-8.2338c0-0.2825 0-0.5475 0.66375-0.5475 1.77 0 2.5562 0.37625 3.23 0.9825 0.97 0.87 1.3062 2.01 1.3062 3.1888 0 4.09-3.4562 4.09-4.3562 4.09-0.6725 0-0.84375-0.0975-0.84375-0.575v-7.1388z" fill="#154281"/>
<path d="m265.48 35.698c0-0.44875 0.34875-0.80375 0.77125-0.80375 0.42 0 0.7875 0.3675 0.7875 0.80375 0 0.52-0.49125 0.7575-0.7875 0.7575-0.295 0-0.77125-0.225-0.77125-0.7575" fill="#154281"/>
</svg>
