<?xml version="1.0" encoding="UTF-8"?>
<svg width="112.85" height="112.85" version="1.1" viewBox="0 0 29.858335 29.85832" xmlns="http://www.w3.org/2000/svg" xmlns:cc="http://creativecommons.org/ns#" xmlns:dc="http://purl.org/dc/elements/1.1/" xmlns:rdf="http://www.w3.org/1999/02/22-rdf-syntax-ns#">
<defs>
<style>.cls-1 {
        clip-path: url(#a);
      }
      .cls-2 {
        fill: #e1091d;
      }
      .cls-3 {
        fill: #002469;
      }</style>
<clipPath id="a">
<rect width="122" height="34.452" data-name="Rectangle 1"/>
</clipPath>
</defs>
<metadata>
<rdf:RDF>
<cc:Work rdf:about="">
<dc:format>image/svg+xml</dc:format>
<dc:type rdf:resource="http://purl.org/dc/dcmitype/StillImage"/>
<dc:title/>
</cc:Work>
</rdf:RDF>
</metadata>
<g transform="translate(18.521 -218.45)" fill="#e1091d" stroke-width=".86666">
<path class="cls-2" d="m3.6095 247.52c0 0.70286 0.96634 0.79039 1.4933 0.79039h0.43939c1.3173-0.0867 1.3173-0.61446 1.3173-0.79039v-28.278c0.086677-0.70373-0.87879-0.7904-1.4933-0.7904h-0.26001c-0.53038 0-1.4967 0.0867-1.4967 0.7904z" data-name="Path 1"/>
<path class="cls-2" d="m-14.042 247.52c0 0.70286 0.96634 0.79039 1.4933 0.79039h0.43942c1.3173-0.0867 1.3173-0.61446 1.3173-0.79039v-28.278c0-0.70373-0.87879-0.7904-1.4933-0.7904h-0.26001c-0.61878 0-1.4967 0.0867-1.4967 0.7904z" data-name="Path 2"/>
<path class="cls-2" d="m-8.1581 247.52c0 0.70286 0.96634 0.79039 1.4933 0.79039h0.52692c1.3173-0.0867 1.3173-0.61446 1.3173-0.79039v-28.278c0-0.70373-0.96634-0.7904-1.4933-0.7904h-0.351c-0.52694 0-1.4933 0.0867-1.4933 0.7904z" data-name="Path 3"/>
<path class="cls-2" d="m-2.2743 247.52c0 0.70286 0.96631 0.79039 1.4933 0.79039h0.43939c1.3173-0.0867 1.3173-0.61446 1.3173-0.79039v-28.278c0-0.70373-0.96634-0.7904-1.4933-0.7904h-0.26001c-0.53041 0-1.4967 0.0867-1.4967 0.7904z" data-name="Path 4"/>
<path class="cls-2" d="m-17.73 231.71c-0.70371 0-0.79039 0.96633-0.79039 1.4933v0.52693c0.08668 1.3173 0.61447 1.3173 0.79039 1.3173h28.278c0.70286 0 0.79042-0.96633 0.79042-1.4933v-0.35099c0-0.52694-0.08668-1.4933-0.79042-1.4933z" data-name="Path 5"/>
</g>
</svg>
