<?xml version="1.0" encoding="UTF-8" standalone="no"?>
<!-- Generator: Adobe Illustrator 16.0.0, SVG Export Plug-In . SVG Version: 6.00 Build 0)  -->

<svg
   xmlns:dc="http://purl.org/dc/elements/1.1/"
   xmlns:cc="http://creativecommons.org/ns#"
   xmlns:rdf="http://www.w3.org/1999/02/22-rdf-syntax-ns#"
   xmlns:svg="http://www.w3.org/2000/svg"
   xmlns="http://www.w3.org/2000/svg"
   xmlns:sodipodi="http://sodipodi.sourceforge.net/DTD/sodipodi-0.dtd"
   xmlns:inkscape="http://www.inkscape.org/namespaces/inkscape"
   version="1.1"
   id="Layer_1"
   x="0px"
   y="0px"
   width="86.490997"
   height="86.491997"
   viewBox="0 0 86.490997 86.491998"
   enable-background="new 0 0 400 120.309"
   xml:space="preserve"
   sodipodi:docname="icon.svg"
   inkscape:version="0.92.3 (2405546, 2018-03-11)"><metadata
   id="metadata33"><rdf:RDF><cc:Work
       rdf:about=""><dc:format>image/svg+xml</dc:format><dc:type
         rdf:resource="http://purl.org/dc/dcmitype/StillImage" /><dc:title></dc:title></cc:Work></rdf:RDF></metadata><defs
   id="defs31">
	
	
	
	
	
	
	
	
	
</defs><sodipodi:namedview
   pagecolor="#ffffff"
   bordercolor="#666666"
   borderopacity="1"
   objecttolerance="10"
   gridtolerance="10"
   guidetolerance="10"
   inkscape:pageopacity="0"
   inkscape:pageshadow="2"
   inkscape:window-width="1920"
   inkscape:window-height="1132"
   id="namedview29"
   showgrid="false"
   fit-margin-top="0"
   fit-margin-left="0"
   fit-margin-right="0"
   fit-margin-bottom="0"
   inkscape:zoom="3.436539"
   inkscape:cx="124.11561"
   inkscape:cy="3.3591392"
   inkscape:window-x="1920"
   inkscape:window-y="0"
   inkscape:window-maximized="1"
   inkscape:current-layer="Layer_1" />
<g
   id="g886"
   transform="translate(9.2980003,9.2959986)"><rect
     x="-9.2980003"
     y="-9.2959986"
     width="86.490997"
     height="86.491997"
     id="rect4"
     style="fill:#0089cf" /><rect
     x="-7.1379991"
     y="-7.1380014"
     width="82.174004"
     height="82.175003"
     id="rect6"
     style="fill:#ffffff" /><path
     d="m 60.459,12.837 c 4.679,5.758 7.438,13.196 7.438,21.112 0,8.039 -2.76,15.354 -7.438,21.112 v -1.559 c 4.079,-5.519 6.479,-12.235 6.479,-19.554 0,-7.317 -2.399,-14.035 -6.479,-19.554 z m 0,32.989 v 0 l 0.36,0.238 1.08,-0.599 -1.44,-0.6 z m 0,-2.879 v 0 c 0.961,0.119 2.279,-0.841 2.398,-2.279 l -0.839,0.119 c -0.36,0.84 -0.84,1.439 -1.56,1.201 z m 0,-2.999 v 0 l 0.12,-0.12 0.24,0.359 0.839,-0.72 c -1.199,-1.8 -1.079,-3.36 -0.359,-3.478 0.841,-0.122 1.439,1.198 1.319,2.518 l 0.961,-0.599 c -0.36,-1.56 -1.2,-2.52 -2.4,-2.52 -0.24,0 -0.479,0.119 -0.72,0.24 z m 0,-5.999 v 0 h 2.76 l 0.6,-0.958 H 60.46 v 0.958 z m 0,-3.957 v 0 h 1.801 l 0.479,-1.08 -2.279,0.119 v 0.961 z m 0,-2.28 v 0 h 1.801 l 0.479,-0.96 H 60.46 v 0.96 z M 54.942,7.319 v 1.318 c 2.04,1.68 3.959,3.601 5.518,5.759 V 12.837 C 58.78,10.798 56.982,8.997 54.942,7.319 Z m 5.517,47.743 v -1.559 c -1.559,2.159 -3.478,4.08 -5.518,5.878 v 1.2 c 2.041,-1.56 3.839,-3.479 5.518,-5.519 z m 0,-28.31 H 58.9 l -0.602,0.96 h 2.16 z m 0,2.279 H 58.9 l -0.72,0.96 h 2.278 z m 0,3.96 h -1.32 c 0,-0.24 0,-0.602 0,-0.96 h -0.718 c 0.12,0.72 0.12,1.319 0.12,1.919 0.119,4.799 -1.2,9.236 -3.6,13.075 v 0.961 c 0.24,-0.36 0.479,-0.721 0.72,-1.2 0.719,-0.239 1.68,-0.359 2.159,0.121 1.438,1.319 0.24,2.759 -0.479,2.878 -0.961,0.239 -0.839,-0.839 0.118,-1.56 -0.237,-0.24 -0.358,-0.479 -0.478,-0.721 -1.439,0.96 -1.561,2.52 -0.119,3.121 0.958,0.479 2.396,-0.481 2.638,-1.681 0.599,-2.641 -1.8,-3.359 -3.359,-2.999 0.361,-0.479 0.601,-1.08 0.841,-1.56 l 3.478,1.439 v -0.959 l -3.118,-1.319 c 0.72,-1.92 1.319,-3.839 1.56,-5.879 h 1.079 l 0.241,0.96 c -0.841,1.08 -1.32,2.28 -0.841,3.359 0.239,0.599 0.6,0.839 1.079,0.959 v -0.959 h -0.12 c -0.599,-0.36 -0.479,-1.08 0.12,-2.04 v -4.318 c -0.36,0.239 -0.6,0.6 -0.6,1.08 h -0.84 c 0.119,-0.841 0.239,-1.8 0.239,-2.76 h 1.2 z m -5.517,24.111 v -0.839 h 0.601 v 0.839 z m 0,-4.199 v 0 -1.438 c 0.36,0 0.72,0.239 0.72,0.718 -10e-4,0.359 -0.36,0.72 -0.72,0.72 z m 0,-11.635 v -4.079 c 0.119,-0.959 0.24,-2.158 0.24,-3.239 0,-1.08 -0.121,-2.159 -0.24,-3.238 v -4.08 c 0.84,2.28 1.199,4.799 1.199,7.317 0,2.52 -0.359,5.039 -1.199,7.319 z m 0,-16.436 v 0 -0.959 c 0.119,0.721 0.84,0.959 2.159,0.959 v 0.479 c -0.96,0.122 -1.68,-0.118 -2.159,-0.479 z m 0,-1.319 v 0 -2.64 l 2.639,-4.56 -2.639,0.481 v -0.599 l 4.799,-0.841 -4.319,6.958 c -0.24,0.481 -0.48,0.842 -0.48,1.201 z m 0,-11.637 v -1.199 c 0.24,0 0.479,-0.121 0.72,-0.24 z M 47.384,2.76 v 0 c 2.639,1.199 5.279,2.758 7.558,4.559 V 8.637 C 52.664,6.718 50.023,5.159 47.384,3.84 Z m 7.558,57.821 v 0 c -2.278,1.799 -4.919,3.358 -7.558,4.559 v -1.08 c 2.639,-1.2 5.279,-2.88 7.558,-4.679 z m 0,-49.903 v 0 1.199 l -2.278,4.679 2.278,-0.358 v 0.599 l -3.96,0.6 2.64,-5.638 c -1.801,0.959 -4.197,1.918 -6.237,2.04 v -0.601 c 2.399,-0.121 5.157,-1.441 7.557,-2.52 z m 0,10.195 -0.6,0.96 c -0.602,1.08 -0.358,2.279 0.6,2.999 v -0.959 c 0,-0.121 0,-0.24 0,-0.36 z m 0,5.759 v 0 C 53.503,22.434 50.743,18.834 47.384,16.314 v 1.202 c 3.96,3.239 6.717,7.917 7.558,13.195 z m 0,10.557 v 0 4.079 c -1.439,4.199 -4.199,7.797 -7.558,10.438 v -1.32 c 3.96,-3.241 6.717,-7.919 7.558,-13.197 z m 0,9.836 v 0.96 c -0.841,1.319 -1.799,2.52 -2.88,3.599 l 1.081,1.44 c -0.601,0.479 -1.322,0.959 -1.92,1.439 -0.6,0.36 -0.12,1.32 0.72,0.479 0.721,-0.72 1.438,-1.559 2.279,-0.96 0.839,0.48 0.6,1.439 -0.121,2.28 h 0.841 v 0.839 l -1.561,0.24 -0.36,0.839 -0.718,-0.12 0.36,-0.839 -1.319,0.238 v -0.477 c 0.959,-0.238 1.677,-0.6 2.158,-1.319 0.481,-0.721 -0.24,-1.079 -0.839,-0.36 -0.602,0.602 -2.04,1.201 -2.52,0.84 -0.961,-0.84 0,-2.277 1.799,-2.998 l -0.599,-0.839 c -1.2,1.079 -2.521,2.158 -3.96,2.998 v -0.719 c 3,-1.921 5.638,-4.561 7.559,-7.56 z m 0,4.44 v 0 c -0.48,0 -0.72,0.239 -0.72,0.718 0,0.359 0.239,0.721 0.72,0.721 z m -7.558,6.956 v 0 l 0.72,1.56 h 1.079 l -1.799,-3.598 z m 0,-12.595 v 0 -0.839 h 1.921 V 23.873 h -1.921 v -0.96 h 2.76 v 22.913 z m 0,-2.64 v 0 c 0.359,-0.358 0.599,-0.839 0.599,-1.319 0,-0.479 -0.239,-0.958 -0.599,-1.199 z m 0,-2.878 v 0 c 0.12,-0.12 0.359,-0.479 0.359,-0.959 0,-0.359 -0.119,-0.72 -0.359,-1.079 z m 0,-5.278 v 0 -6.958 h 0.359 l 0.6,1.198 h -0.839 v 5.877 z m 0,-7.678 v 0 -1.56 c 0.359,0 0.72,0.359 0.72,0.839 0,0.361 -0.361,0.721 -0.72,0.721 z M 45.344,2.04 v 0.959 c 0.601,0.358 1.32,0.6 2.04,0.84 V 2.759 C 46.664,2.52 45.945,2.28 45.344,2.04 Z m 2.04,63.1 v -1.08 c -0.72,0.24 -1.439,0.602 -2.04,0.839 v 1.08 c 0.601,-0.36 1.32,-0.599 2.04,-0.839 z m 0,-51.944 c -0.72,0 -1.439,0 -2.04,-0.239 v 0.599 c 0.601,0.241 1.199,0.241 2.04,0.241 z m 0,3.118 c -0.72,-0.599 -1.439,-0.958 -2.04,-1.438 v 1.2 c 0.722,0.479 1.32,0.959 2.04,1.439 z m 0,6.599 v 0 0.96 h -2.04 v -0.96 z m 0,2.879 v 0 1.56 c -0.48,0 -0.841,-0.359 -0.841,-0.72 0,-0.479 0.361,-0.84 0.841,-0.84 z m 0,2.28 v 6.958 l -1.08,-0.601 v -1.68 c -0.238,0.24 -0.599,0.479 -0.96,0.6 v -1.681 l 0.361,0.601 c 0.239,-0.12 0.479,-0.36 0.599,-0.479 v -0.601 c -0.12,0 -0.12,0 -0.12,0 -0.118,-0.238 -0.479,-0.359 -0.84,-0.359 v -0.721 c 0.361,0.12 0.722,0.36 0.96,0.721 v -1.438 h -0.96 v -1.92 c 0.12,0.24 0.361,0.36 0.601,0.602 h 0.359 c -0.359,-0.36 -0.719,-0.84 -0.96,-1.201 v -0.96 c 0.601,0.72 0.96,1.56 1.681,2.16 h 0.359 z m 0,10.197 c -0.359,-0.24 -0.72,-0.48 -1.439,-0.48 h -0.601 v 1.08 h 0.361 c 0.479,0 0.838,0.12 0.838,0.6 0,0.48 -0.359,0.6 -0.838,0.6 h -0.361 v 0.959 h 0.481 c 0.479,0 0.839,0.241 0.839,0.721 0,0.6 -0.24,0.959 -0.839,0.959 h -0.481 v 0.96 h 0.241 c 1.079,0 1.439,-0.12 1.799,-0.48 v -2.519 c -0.12,-0.121 -0.24,-0.121 -0.359,-0.121 0.119,-0.12 0.239,-0.12 0.359,-0.24 z m 0,6.718 h -2.04 v 0.839 h 2.04 z m 0,5.398 c -0.72,0.599 -1.318,1.081 -2.04,1.439 v 1.199 c 0.601,-0.359 1.32,-0.841 2.04,-1.318 z m 0,4.198 c -0.72,0.479 -1.439,0.839 -2.04,1.2 v 0.72 c 0.241,-0.12 0.481,-0.24 0.722,-0.361 l 0.599,0.96 -1.32,0.721 v 0.96 l 1.681,-0.842 0.359,0.479 v -2.038 l -0.48,-0.84 c 0.121,0 0.24,-0.121 0.48,-0.241 z M 44.866,1.8 v 0 c 0.119,0.119 0.237,0.119 0.479,0.24 v 0.959 c -0.241,0 -0.359,0 -0.479,-0.12 z m 0.478,64.18 v 0 c -0.241,0 -0.359,0 -0.479,0.119 V 65.02 c 0.119,0 0.237,-0.12 0.479,-0.12 z m 0,-53.023 v 0 0.599 c -0.241,0 -0.359,-0.12 -0.479,-0.12 v -0.599 c 0.12,0 0.238,0.12 0.479,0.12 z m 0,1.919 v 0 1.2 c -0.119,-0.12 -0.359,-0.241 -0.479,-0.241 v -1.199 c 0.12,0.119 0.238,0.119 0.479,0.24 z m 0,8.037 h -0.479 v 0.96 h 0.479 z m 0,2.999 c -0.119,-0.12 -0.359,-0.24 -0.479,-0.36 v 0.839 c 0.119,0.121 0.359,0.24 0.479,0.479 z m 0,1.56 c -0.241,-0.12 -0.359,-0.239 -0.479,-0.359 v 0.96 h 0.119 -0.119 v 1.318 h 0.479 z m 0,2.64 c -0.119,0 -0.359,0 -0.479,0 v 0.841 c 0.119,0 0.359,-0.121 0.479,-0.121 z m 0,1.558 -0.479,-0.6 v 1.319 l 0.119,0.12 h -0.119 v 0.84 c 0.119,0 0.359,0 0.479,0 z m 0,6.119 v 0 1.08 h -0.479 v -1.08 z m 0,2.279 v 0 0.959 h -0.479 v -0.959 z m 0,2.638 v 0 0.96 h -0.479 v -0.96 z m 0,2.281 v 0 0.839 h -0.479 v -0.839 z m 0,6.837 v 0 1.199 c -0.241,0.12 -0.359,0.12 -0.479,0.24 v -1.2 c 0.12,10e-4 0.36,-0.119 0.479,-0.239 z m 0,3.959 v 0 0.72 c -0.119,0.119 -0.359,0.119 -0.479,0.24 v -0.721 c 0.12,-0.119 0.36,-0.119 0.479,-0.239 z m 0,2.039 v 0 0.96 L 45.103,58.9 c 0.241,0.961 0.122,1.8 -0.237,2.399 V 57.942 Z M 44.264,1.68 v 1.081 c 0.241,0 0.481,0.12 0.602,0.12 V 1.801 C 44.745,1.8 44.505,1.68 44.264,1.68 Z m 0.602,64.419 V 65.02 c -0.12,0.12 -0.36,0.12 -0.602,0.24 v 0.96 c 0.241,0 0.481,-0.121 0.602,-0.121 z m 0,-53.262 c -0.12,-0.121 -0.36,-0.121 -0.602,-0.239 v 0.479 c 0.241,0.12 0.359,0.24 0.602,0.358 z m 0,1.799 c -0.12,-0.12 -0.36,-0.24 -0.602,-0.36 v 1.2 c 0.241,0.12 0.481,0.24 0.602,0.359 z m 0,8.277 v 0 0.96 h -0.602 v -0.96 z m 0,2.639 v 0 0.839 c -0.12,-0.239 -0.242,-0.358 -0.36,-0.479 -0.119,0 -0.119,-0.12 -0.241,-0.12 v -0.72 c 0.122,0 0.122,0.12 0.122,0.12 0.236,0.12 0.358,0.241 0.479,0.36 z m 0,1.56 v 0 0.96 l -0.602,-0.481 v -0.839 c 0.241,0.119 0.481,0.24 0.602,0.36 z m 0,0.96 v 0 1.318 h -0.602 v -1.318 z m 0,2.04 v 0 0.841 0.119 1.319 l -0.602,-0.839 v -1.44 c 0.122,0 0.241,0 0.359,0 0.122,0 0.122,0 0.243,0 z m 0,2.398 v 0 0.84 c -0.242,0 -0.36,0 -0.602,-0.122 v -0.719 c 0.241,10e-4 0.359,10e-4 0.602,10e-4 z m 0,5.279 h -0.602 v 1.08 h 0.602 z m 0,2.279 h -0.602 v 0.959 h 0.602 z m 0,2.638 h -0.602 v 0.96 h 0.602 z m 0,2.281 h -0.602 v 0.839 h 0.602 z m 0,7.077 c -0.12,0.119 -0.36,0.241 -0.602,0.359 v 1.2 c 0.241,-0.12 0.481,-0.239 0.602,-0.359 z m 0,3.959 c -0.12,0 -0.36,0.119 -0.602,0.24 v 0.72 c 0.241,-0.119 0.481,-0.238 0.602,-0.238 z m 0,1.919 -0.242,0.12 -0.359,-0.839 v 4.678 c 0.241,-0.118 0.481,-0.358 0.602,-0.599 z M 43.425,1.44 v 0 c 0.24,0 0.601,0.121 0.839,0.239 V 2.76 C 44.026,2.639 43.665,2.52 43.425,2.4 Z m 0.839,64.78 v 0 c -0.238,0.119 -0.599,0.24 -0.839,0.36 v -1.079 c 0.24,-0.121 0.601,-0.121 0.839,-0.241 z m 0,-53.622 v 0 0.479 c 0,0 0,0 0,-0.12 v -0.481 c 0,0 0,0 0,0.122 z m 0,1.678 v 0 1.2 c -0.238,-0.238 -0.599,-0.359 -0.839,-0.479 v -1.08 c 0.24,0.119 0.601,0.239 0.839,0.359 z m 0,8.637 h -0.839 v 0.96 h 0.839 z m 0,2.159 c -0.238,-0.119 -0.599,-0.24 -0.839,-0.359 v 0.839 h 0.12 c 0.239,0 0.48,0.12 0.719,0.24 z m 0,1.68 c 0,-0.12 -0.119,-0.12 -0.119,-0.12 -0.239,-0.24 -0.479,-0.359 -0.72,-0.359 v 0.839 h 0.12 l 0.719,0.479 z m 0,1.32 h -0.839 v 1.318 h 0.839 z m 0,2.04 c -0.358,0 -0.599,0.119 -0.839,0.359 v 2.398 c 0.24,0.121 0.48,0.358 0.839,0.358 v -0.719 c -0.238,0 -0.358,-0.12 -0.479,-0.239 -0.239,-0.36 -0.119,-0.72 0.36,-1.081 l 0.119,0.36 z m 0,7.677 v 0 1.08 1.199 0.96 1.679 0.96 h -0.839 v -5.878 z m 0,7.198 v 0 0.839 h -0.839 v -0.839 z m 0,7.436 v 0 1.2 c -0.238,0.121 -0.599,0.241 -0.839,0.48 v -1.2 c 0.24,-0.119 0.601,-0.239 0.839,-0.48 z m 0,3.84 v 0 0.72 c 0,0 0,0 -0.119,0 l 0.119,0.24 v 4.678 c -0.238,0.121 -0.599,0.121 -0.839,0.121 v -0.6 c 0.72,0.12 1.08,-0.959 0.601,-2.04 -0.241,0 -0.48,0.119 -0.601,0.119 v -0.959 c 0.12,-0.121 0.12,-0.121 0.24,-0.239 l -0.24,-0.601 v -1.08 c 0.24,-0.119 0.601,-0.239 0.839,-0.359 z M 33.949,0 v 1.08 c 3.237,0 6.478,0.48 9.477,1.319 V 1.44 C 40.426,0.481 37.186,0 33.949,0 Z m 9.476,66.58 v -1.079 c -2.999,0.959 -6.239,1.438 -9.477,1.438 v 0.959 c 3.238,0.001 6.478,-0.479 9.477,-1.318 z m 0,-52.664 c -2.879,-1.44 -6.117,-2.16 -9.477,-2.16 v 0.959 c 3.359,0 6.598,0.84 9.477,2.28 z m 0,8.997 v 0 h -2.879 v 22.074 h -1.439 v -1.32 h -1.079 l -0.479,-0.72 v -2.52 c 0.36,-0.479 0.599,-0.24 1.078,-1.201 l 0.24,-0.719 c 0.24,-0.119 0.36,-0.599 0.36,-1.08 h -0.96 c 0,0.96 -0.84,1.32 -1.319,1.32 v -1.799 c 0.36,-0.119 0.601,-0.119 1.08,-0.72 l 0.358,-0.6 c 0.24,-0.121 0.36,-0.24 0.48,-0.481 v -0.479 h -1.199 l -0.119,0.839 h -1.32 v -1.199 c 0.601,-0.359 1.439,-0.72 1.56,-1.559 0.121,0 0.599,-0.36 0.72,-0.36 v -0.72 h -0.959 l -0.362,0.603 c -0.238,0.479 -1.319,0.359 -1.199,0.359 v -1.32 c 0.602,-0.239 1.199,-0.6 1.44,-1.08 l 0.601,-0.238 v -0.96 h -1.08 c 0,0.359 -0.241,0.72 -0.601,0.96 -0.238,0 -0.36,0 -0.6,0 v -1.2 c 0.6,-0.36 1.319,-0.602 1.438,-1.44 l 0.602,-0.241 v -0.72 h -1.081 c 0,0.24 -0.359,0.602 -0.479,0.841 h -0.602 v -0.961 c 0.602,-0.36 0.962,-0.84 1.08,-1.56 l 0.721,-0.119 v -0.841 h -1.08 c -0.238,1.08 -0.721,1.08 -0.959,0.96 v -0.96 c 0.599,-0.359 0.599,-0.479 1.2,-1.08 0.479,-0.239 0.839,-1.319 0.359,-1.199 h -0.479 c -0.359,0 -0.359,0.601 -0.602,0.839 -0.119,0 -0.479,0.12 -0.72,0.12 v -1.08 c 0.601,-0.119 1.321,-0.6 1.441,-1.32 h 0.359 c 0,-0.119 0,-0.359 0.119,-0.6 -0.36,0 -0.72,0 -0.958,0 -0.122,0.48 -0.482,0.722 -0.841,0.84 -0.479,-0.359 -0.601,-0.359 -0.72,-0.959 0,-0.841 0.84,-1.561 0.24,-2.521 l -0.121,-0.6 c 0,-0.959 -0.36,-1.08 -0.719,-1.44 v 31.071 h 9.477 v -0.84 h -2.16 v -21.11 h 2.16 v -0.96 z m 0,1.8 v 0 0.839 h -0.72 l -0.479,-0.839 z m 0,1.56 v 0 0.839 h -0.6 l -0.599,-0.958 c 0.358,0 0.599,0 0.959,0 0.12,-0.001 0.12,-0.001 0.24,0.119 z m 0,1.799 v 0 1.318 h -0.6 l -0.479,-1.318 z m 0,2.399 v 0 2.398 c -0.359,-0.359 -0.6,-0.72 -0.6,-1.2 -0.12,-0.479 0.121,-0.958 0.6,-1.198 z m 0,7.318 h -0.239 v 5.878 h 0.239 z m 0,15.114 c -2.879,1.439 -6.117,2.28 -9.477,2.28 v 0.958 c 3.359,0 6.598,-0.72 9.477,-2.038 z m 0,3.719 c -2.999,1.2 -6.117,1.919 -9.477,1.919 v 4.918 l 0.6,0.48 v -2.04 c 0.479,-0.239 0.84,-0.358 1.199,-0.599 0.841,-0.601 2.28,-1.079 2.639,-0.24 0.24,0.721 -1.078,1.2 -2.158,0.96 -0.119,0.359 -0.241,0.721 -0.361,0.96 0.962,0.12 2.52,0.239 3,-0.841 0.479,-1.198 0.119,-2.277 -1.559,-2.277 -0.84,-0.12 -1.801,0.359 -2.76,0.839 v -1.56 c 3.119,0 5.998,-0.6 8.757,-1.681 l 0.12,0.241 z m 0,1.919 v 0 c -2.16,0.959 -1.919,2.76 -0.6,3.358 0.12,0 0.36,0.121 0.6,0.121 v -0.6 c -0.12,0 -0.359,-0.12 -0.479,-0.12 -0.719,-0.479 -0.6,-1.32 0.479,-1.8 z M 33.949,7.918 V 6.959 l 2.88,-4.799 2.398,7.798 c 0.6,1.918 1.678,2.039 3,0.358 l 0.358,0.36 c -1.559,2.159 -3.839,1.56 -4.438,-0.24 L 36.228,4.437 Z m 0,59.981 v 0 c -3.96,0 -7.918,-0.721 -11.517,-2.04 v -1.078 c 3.599,1.317 7.557,2.159 11.517,2.159 z M 22.432,2.04 v 0 C 26.031,0.72 29.989,0 33.949,0 v 1.08 c -3.96,0 -7.918,0.72 -11.517,2.04 z m 11.517,4.918 v 0.959 l -1.32,2.16 -2.398,-5.64 c -0.839,3.239 -2.64,7.559 -5.278,7.917 l -0.36,-0.239 C 28.194,10.796 29.152,5.758 30.47,2.039 l 2.641,6.237 z m 0,4.799 v 0 0.959 c -4.198,0 -8.157,1.32 -11.517,3.48 v -1.2 c 3.359,-2.039 7.318,-3.239 11.517,-3.239 z m 0,2.998 V 45.826 H 22.432 v -0.839 h 4.079 V 23.873 h -4.079 v -0.96 h 4.919 v 22.074 h 1.438 v -1.201 h 0.961 l 0.599,-0.839 v -2.52 c -0.599,-0.36 -1.079,-0.839 -1.318,-1.92 l -0.48,-0.238 v -0.721 h 0.841 c 0.119,0.84 0.719,1.199 1.198,1.199 v -1.799 c -0.479,0 -0.839,-0.36 -1.198,-1.08 l -0.121,-0.36 c -0.239,0 -0.48,-0.119 -0.6,-0.36 v -0.479 h 1.199 l 0.119,0.839 h 0.601 l 0.12,-1.199 c -0.6,-0.479 -1.079,-1.081 -1.439,-1.799 -0.12,0 -0.239,-0.12 -0.36,-0.12 0,-0.239 0,-0.479 0,-0.72 h 0.96 v 0.602 c 0,0.479 1.08,0.359 1.08,0.359 l -0.119,-1.32 c -0.481,-0.12 -0.961,-0.72 -1.32,-1.199 l -0.479,-0.119 v -0.721 h 1.079 c 0,0.239 0.12,0.479 0.479,0.721 0.12,0 0.36,0 0.601,0 v -1.2 c -0.722,-0.36 -1.201,-0.841 -1.32,-1.681 h -0.479 v -0.721 h 1.077 c 0,0.24 0.121,0.602 0.362,0.841 L 31.31,27.11 v -0.838 c -0.599,-0.36 -1.078,-0.84 -1.198,-1.56 l -0.6,-0.119 v -0.841 h 0.839 c 0.24,1.08 0.841,1.08 1.201,0.96 v -0.96 c -0.601,-0.239 -1.082,-0.479 -1.201,-1.08 -0.479,-0.239 -0.958,-1.08 -0.479,-1.08 h 0.479 c 0.36,0 0.481,0.601 0.721,0.961 0.12,0 0.358,0 0.48,0 v -1.08 c -0.601,0 -1.082,-0.72 -1.201,-1.44 h -0.36 c -0.119,-0.119 -0.119,-0.359 -0.119,-0.6 0.36,0 0.599,0 0.961,0 0.119,0.48 0.478,0.722 0.838,0.84 l 0.239,-0.359 c 0,-0.241 0,-0.48 0,-0.721 -0.239,-0.96 -0.718,-1.679 0.241,-2.399 l -0.36,-0.96 c -0.238,-1.918 0.602,-1.319 1.32,-1.918 0.121,-0.241 0.481,-0.12 0.601,0.119 -0.003,0.361 0.116,0.601 0.237,0.72 z m 0,40.429 v 0 0.958 c -4.198,0 -8.157,-1.199 -11.517,-3.238 v -1.079 c 3.359,2.039 7.318,3.359 11.517,3.359 z m 0,3.357 v 4.918 l -0.12,-0.239 v -1.08 c -1.319,0.479 -2.759,0.722 -3.959,0.121 -0.96,-0.6 -1.319,-1.56 0.119,-2.159 0.842,-0.479 1.8,-0.479 2.881,0.12 -0.241,0.119 -0.479,0.359 -0.599,0.6 -1.321,-0.48 -2.282,-0.12 -2.161,0.479 0.12,0.72 1.44,0.72 3.719,-0.121 L 33.71,59.141 c -2.281,0 -4.439,-0.24 -6.599,-0.839 l -1.56,4.317 -0.36,-1.079 1.08,-3.6 c -0.72,-0.119 -1.44,-0.48 -2.158,-0.719 l -0.12,0.601 c 0.599,0.239 0.959,0.84 0.718,1.679 -0.238,0.84 -1.078,1.32 -2.278,1.44 V 59.98 c 0.84,0.121 1.561,0 1.681,-0.599 0.118,-0.599 -0.48,-1.079 -1.681,-1.079 V 57.46 l 0.6,0.122 0.24,-0.721 c -0.24,-0.119 -0.48,-0.24 -0.84,-0.479 v -0.72 c 1.079,0.6 2.159,1.081 3.24,1.438 -0.36,-1.079 -0.842,-1.8 -1.801,-1.8 v -0.839 c 1.08,0.24 2.039,0.959 2.76,2.399 h 0.84 l 0.119,0.84 c 2.039,0.482 4.197,0.841 6.358,0.841 z M 22.432,43.667 h 0.84 l 1.078,-4.919 v 4.919 h 1.081 v -5.878 h -1.68 l -1.079,4.679 -0.24,-0.84 z m 0,-11.516 h 1.2 v 2.52 l 1.078,0.839 v -6.118 h 0.841 l -0.36,-1.201 h -2.759 v 1.201 h 1.2 v 1.561 h -1.2 z m 0,-17.995 v 0 c 0.48,-0.601 0.6,-1.44 0.48,-2.399 h -0.48 z m 0,51.703 V 64.781 C 20.512,64.06 18.594,63.1 16.793,62.021 v 1.199 c 1.801,1.081 3.719,1.92 5.639,2.639 z M 16.793,4.68 V 5.879 C 18.594,4.799 20.512,3.84 22.432,3.12 V 2.04 c -1.92,0.72 -3.838,1.679 -5.639,2.64 z m 5.639,7.077 c 0.24,2.16 -0.601,2.879 -2.399,1.918 l -3.239,-1.559 v 1.438 l 2.879,1.32 c 1.081,0.479 2.159,0.12 2.76,-0.72 z m 0,3.239 v 0 c -2.158,1.317 -4.078,2.999 -5.639,4.918 v 1.56 c 1.561,-2.04 3.479,-3.958 5.639,-5.277 z m 0,7.917 h -4.799 v 22.074 0.839 h 4.799 V 44.987 H 18.473 V 23.873 h 3.959 z m 0,5.278 v 0 h -3 l 0.36,1.201 h 0.601 v 1.561 c -0.961,0.358 -1.081,0.718 -0.479,1.679 0.238,0.48 0.721,0.839 1.319,0.839 0.359,-0.358 0.24,-0.719 0.24,-1.319 h 0.959 v -1.2 h -0.959 v -1.56 h 0.959 z m 0,13.436 v 0 l -0.84,-3.839 h -1.8 v 5.878 h 1.2 v -4.919 l 1.079,4.919 h 0.36 z m 0,10.197 c -2.158,-1.439 -4.078,-3.238 -5.639,-5.398 v 1.559 c 1.561,2.039 3.479,3.599 5.639,4.917 z m 0,3.839 c 0,0 -0.12,-0.12 -0.24,-0.12 l -0.36,0.599 c 0.24,0.121 0.48,0.241 0.601,0.241 z m 0,1.798 v 0 h -0.36 c -0.72,-1.198 -1.679,-1.918 -2.76,-1.918 -1.078,0 -1.917,0.96 -0.718,3.358 l 0.838,-0.359 c -0.718,-0.719 -1.078,-1.56 -0.48,-2.039 0.48,-0.6 1.2,-0.12 1.921,0.958 l -0.119,0.241 0.119,0.719 c 0.601,-0.118 1.199,-0.118 1.56,-0.118 z m 0,2.52 c -0.24,0 -0.601,-0.118 -0.84,-0.238 v 1.079 c 0.36,0.12 0.6,0.12 0.84,0.12 z m -5.639,-9.837 v -1.438 c 0.479,0 0.84,0.24 0.84,0.72 0,0.358 -0.359,0.718 -0.84,0.718 z m 0,13.076 v 0 c -0.12,-0.12 -0.239,-0.239 -0.359,-0.239 v -1.199 c 0.12,0.118 0.239,0.239 0.359,0.239 z M 16.434,4.918 v 0 c 0.12,0 0.239,-0.119 0.359,-0.238 v 1.199 c -0.12,0.12 -0.239,0.12 -0.359,0.239 z m 0.359,7.199 v 0 1.438 l -0.359,-0.239 v -1.319 z m 0,7.797 v 0 1.56 c -0.12,0.24 -0.239,0.479 -0.359,0.601 v -1.681 c 0.12,-0.12 0.239,-0.361 0.359,-0.48 z m 0,26.512 v 0 1.559 c -0.12,-0.119 -0.239,-0.359 -0.359,-0.479 v -1.679 c 0.12,0.238 0.239,0.359 0.359,0.599 z m 0,2.279 v 0 1.438 c -0.12,0 -0.239,-0.12 -0.359,-0.12 v -1.198 c 0.12,-0.12 0.239,-0.12 0.359,-0.12 z m -0.359,3.119 v 0 -0.721 c 0.12,0.12 0.239,0.24 0.359,0.361 z m 0,11.157 v -1.199 c -0.719,-0.48 -1.438,-0.96 -2.16,-1.44 v 1.2 c 0.721,0.479 1.441,0.96 2.16,1.439 z M 14.274,6.358 v 1.2 c 0.722,-0.479 1.441,-0.96 2.16,-1.439 v -1.2 c -0.719,0.48 -1.439,0.96 -2.16,1.439 z m 2.16,5.639 -2.16,-1.081 v 1.439 l 2.16,0.961 z m 0,8.397 c -0.84,1.08 -1.561,2.16 -2.16,3.358 v 2.28 c 0.6,-1.32 1.32,-2.641 2.16,-3.958 z m 0,25.432 c -0.84,-1.199 -1.561,-2.52 -2.16,-3.959 v 2.279 c 0.6,1.199 1.32,2.279 2.16,3.358 z m 0,2.999 c -0.24,0.12 -0.359,0.239 -0.359,0.6 0,0.24 0.119,0.48 0.359,0.6 z m 0,2.279 v 0 c -0.84,-0.719 -1.561,-1.559 -2.16,-2.518 v 0.839 l 0.84,1.08 -0.84,0.6 v 1.201 l 1.32,-1.081 c 0.241,0.241 0.48,0.48 0.72,0.721 l 0.12,-0.12 z m -2.16,-32.869 v 0 -1.319 l 0.479,0.24 -0.479,-1.561 v -2.04 l 1.441,5.158 z m 0,43.306 v 0 c -1.679,-1.2 -3.239,-2.64 -4.7979996,-4.08 V 56.023 C 10.915,57.584 12.595,59.022 14.274,60.341 Z M 9.4760004,10.437 v 0 C 11.035,8.998 12.595,7.558 14.274,6.358 v 1.2 c -1.679,1.32 -3.358,2.759 -4.7979996,4.318 z M 14.274,10.916 v 1.439 l -0.36,-0.119 0.36,1.318 v 2.04 l -1.559,-5.397 z m 0,5.999 v 0 1.319 L 9.8360004,16.675 C 11.637,19.553 13.676,23.752 12.116,25.911 l -0.479,0.121 c 1.199,-2.761 -0.481,-6 -2.1599996,-8.998 v -1.799 z m 0,6.837 v 2.28 c -0.959,2.519 -1.559,5.157 -1.559,7.917 0,2.76 0.6,5.398 1.559,7.917 v 2.279 c -1.559,-3 -2.519,-6.479 -2.519,-10.197 0,-3.717 0.96,-7.196 2.519,-10.196 z m 0,24.834 v 0 0.839 l -0.84,-0.959 c -0.358,1.559 -1.199,1.919 -2.639,1.2 0,1.199 1.201,1.8 2.639,2.04 l 0.84,-0.602 v 1.201 l -2.158,1.799 -0.241,-0.96 0.841,-0.839 c -2.9989996,-0.839 -2.9989996,-2.398 -2.279,-4.2 0.959,1.32 1.92,1.2 2.279,-0.6 -0.6,-0.839 -1.079,-1.799 -1.561,-2.758 l -1.6789996,0.599 v -2.759 c 0.359,0.36 0.479,0.96 0.7199996,1.56 l 0.6,-0.239 c -0.479,-1.2 -0.9599996,-2.399 -1.3189996,-3.6 v -3.719 c 0.24,2.16 0.7199996,4.199 1.5589996,6.118 0.602,-0.719 0.84,-1.56 0.36,-2.399 l 0.721,-0.359 c 0.359,0.96 0.24,2.158 -0.479,3.6 l 0.36,0.718 -0.241,0.241 c 0.718,1.438 1.558,2.878 2.517,4.078 z m -4.7979996,8.875 v -1.438 c -0.358,-0.479 -0.72,-0.96 -1.198,-1.438 v 1.559 c 0.478,0.478 0.839,0.838 1.198,1.317 z m -1.198,-45.704 v 1.561 c 0.479,-0.479 0.84,-0.961 1.198,-1.44 v -1.439 c -0.359,0.477 -0.72,0.957 -1.198,1.318 z m 1.198,3.48 -1.198,-0.481 c 0.359,0.721 0.84,1.559 1.198,2.28 z m 0,21.351 c 0,-0.839 -0.12,-1.8 -0.12,-2.639 h -0.6 c 0,0.721 0,1.319 0,1.919 l -0.479,0.122 v 0.958 l 0.719,-0.119 0.24,1.678 -0.959,0.121 v 1.08 l 1.078,-0.24 c 0,0.359 0.12,0.6 0.12,0.839 z m 0,5.999 c -0.239,-0.48 -0.72,-0.839 -1.198,-0.959 v 1.079 c 0.479,0.359 0.84,1.318 1.078,2.76 l 0.12,-0.121 z m -1.198,3.478 v -1.077 c 0.239,0.118 0.359,0.237 0.479,0.479 z m 0,-15.834 v 0 -0.959 h 1.198 l -0.479,0.959 z m 0,-2.159 v 0 -1.08 h 1.198 l -0.359,1.08 z m 0,28.07 v 0 c -0.961,-1.199 -1.92,-2.519 -2.88,-3.837 v -1.92 c 0.841,1.439 1.8,2.879 2.88,4.199 z m -2.88,-40.546 v 0 c 0.96,-1.32 1.919,-2.639 2.88,-3.839 v 1.561 c -1.08,1.318 -2.039,2.759 -2.88,4.198 z m 2.88,-0.841 v 0 12.237 1.08 h -2.88 v -0.72 l 0.239,-0.359 h 2.641 z m 0,14.516 h -2.641 l -0.239,0.239 v 0.72 h 2.88 z m 0,6.719 v 0 0.958 h -0.961 l 0.24,1.799 0.721,-0.12 v 1.08 l -2.88,0.358 v -0.841 l 1.079,-0.238 -0.238,-1.8 c -0.241,0 -0.602,-0.121 -0.841,-0.121 v -1.077 c 0.119,0 0.239,0 0.239,0 0.36,-0.122 0.479,-0.481 0.36,-0.842 -0.119,-0.359 -0.36,-0.6 -0.6,-0.6 v -1.08 c 0.841,-0.119 1.68,0.479 1.919,2.521 h 0.962 z m 0,5.637 v 0 1.079 c -0.121,-0.12 -0.241,-0.12 -0.479,-0.12 -1.08,0 -0.961,1.438 -0.361,2.04 0.361,0.12 0.6,0.12 0.841,0.36 v 1.077 l -0.121,0.121 -1.079,-0.239 -1.08,0.6 c -0.119,0.119 -0.36,0.239 -0.6,0.239 v -1.318 l 0.119,-0.121 0.48,0.36 0.479,-0.48 -1.079,-0.599 v -0.96 l 0.841,0.599 c -0.241,-1.559 0.238,-2.518 1.438,-2.638 0.24,0 0.48,0 0.601,0 z m -2.88,10.678 v -1.92 c -2.76,-4.799 -4.319,-10.437 -4.319,-16.436 0,-5.998 1.56,-11.637 4.319,-16.435 v -1.92 C 2.0400004,20.872 3.6747754e-7,27.232 3.6747754e-7,33.949 -9.9963252e-4,40.668 2.0390004,47.025 5.3980004,52.305 Z m 0,-24.953 v 0 l -0.359,0.72 h 0.359 z m 0,2.159 v 0.72 h -0.479 z m 0,3.959 v 0 c -0.601,0.12 -1.2,0.84 -1.2,1.799 0,0.839 0.361,1.44 1.2,1.799 v -1.077 c -0.241,0 -0.479,-0.241 -0.479,-0.602 -0.121,-0.359 0,-0.84 0.358,-0.84 0,-0.119 0.121,-0.119 0.121,0 z m 0,5.757 v 0 h -0.359 c -0.12,-0.599 -0.361,-1.198 -0.721,-1.799 l -0.479,0.24 c 0.721,1.438 0.119,2.398 -0.6,1.68 -0.84,-0.72 -0.24,-2.159 0,-3.119 l -0.36,-0.121 c -0.601,1.32 -0.96,2.521 0,3.959 0.722,1.08 1.439,0.72 2.16,0.12 l 0.359,-0.12 z m 0,4.44 v 0 l -0.839,-0.48 -0.361,0.601 1.2,0.841 z m 0,1.8 v 0 l -0.721,0.599 0.361,0.481 c 0.118,0.119 0.238,0.239 0.359,0.239 z"
     id="path8"
     inkscape:connector-curvature="0"
     style="fill:#0089cf" /></g>
</svg>