<?xml version="1.0" encoding="utf-8"?>
<!-- Generator: Adobe Illustrator 16.0.0, SVG Export Plug-In . SVG Version: 6.00 Build 0)  -->
<!DOCTYPE svg PUBLIC "-//W3C//DTD SVG 1.1//EN" "http://www.w3.org/Graphics/SVG/1.1/DTD/svg11.dtd">
<svg version="1.1" id="Layer_1" xmlns="http://www.w3.org/2000/svg" xmlns:xlink="http://www.w3.org/1999/xlink" x="0px" y="0px"
	 width="400px" height="120.309px" viewBox="0 0 400 120.309" enable-background="new 0 0 400 120.309" xml:space="preserve">
<g>
	<rect y="0" fill="#FFFFFF" width="400" height="93.727"/>
	<rect x="3.815" y="3.832" fill="#0089CF" width="86.491" height="86.492"/>
	<rect x="5.975" y="5.99" fill="#FFFFFF" width="82.174" height="82.175"/>
	<path fill="#0089CF" d="M73.572,25.965c4.679,5.758,7.438,13.196,7.438,21.112c0,8.039-2.76,15.354-7.438,21.112v-1.559
		c4.079-5.519,6.479-12.235,6.479-19.554c0-7.317-2.399-14.035-6.479-19.554V25.965L73.572,25.965z M73.572,58.954L73.572,58.954
		l0.36,0.238l1.08-0.599l-1.44-0.6V58.954L73.572,58.954z M73.572,56.075L73.572,56.075c0.961,0.119,2.279-0.841,2.398-2.279
		l-0.839,0.119c-0.36,0.84-0.84,1.439-1.56,1.201L73.572,56.075L73.572,56.075z M73.572,53.076L73.572,53.076l0.12-0.12l0.24,0.359
		l0.839-0.72c-1.199-1.8-1.079-3.36-0.359-3.478c0.841-0.122,1.439,1.198,1.319,2.518l0.961-0.599c-0.36-1.56-1.2-2.52-2.4-2.52
		c-0.24,0-0.479,0.119-0.72,0.24V53.076L73.572,53.076z M73.572,47.077L73.572,47.077h2.76l0.6-0.958h-3.359v0.958H73.572z
		 M73.572,43.12L73.572,43.12h1.801l0.479-1.08l-2.279,0.119v0.961H73.572z M73.572,40.84L73.572,40.84h1.801l0.479-0.96h-2.279
		v0.96H73.572z M68.055,20.447v1.318c2.04,1.68,3.959,3.601,5.518,5.759v-1.559C71.893,23.926,70.095,22.125,68.055,20.447
		L68.055,20.447L68.055,20.447z M73.572,68.19v-1.559c-1.559,2.159-3.478,4.08-5.518,5.878v1.2
		C70.095,72.149,71.893,70.23,73.572,68.19L73.572,68.19L73.572,68.19z M73.572,39.88h-1.559l-0.602,0.96h2.16L73.572,39.88
		L73.572,39.88L73.572,39.88z M73.572,42.159h-1.559l-0.72,0.96h2.278L73.572,42.159L73.572,42.159L73.572,42.159z M73.572,46.119
		h-1.32c0-0.24,0-0.602,0-0.96h-0.718c0.12,0.72,0.12,1.319,0.12,1.919c0.119,4.799-1.2,9.236-3.6,13.075v0.961
		c0.24-0.36,0.479-0.721,0.72-1.2c0.719-0.239,1.68-0.359,2.159,0.121c1.438,1.319,0.24,2.759-0.479,2.878
		c-0.961,0.239-0.839-0.839,0.118-1.56c-0.237-0.24-0.358-0.479-0.478-0.721c-1.439,0.96-1.561,2.52-0.119,3.121
		c0.958,0.479,2.396-0.481,2.638-1.681c0.599-2.641-1.8-3.359-3.359-2.999c0.361-0.479,0.601-1.08,0.841-1.56l3.478,1.439v-0.959
		l-3.118-1.319c0.72-1.92,1.319-3.839,1.56-5.879h1.079l0.241,0.96c-0.841,1.08-1.32,2.28-0.841,3.359
		c0.239,0.599,0.6,0.839,1.079,0.959v-0.959h-0.12c-0.599-0.36-0.479-1.08,0.12-2.04v-4.318c-0.36,0.239-0.6,0.6-0.6,1.08h-0.84
		c0.119-0.841,0.239-1.8,0.239-2.76h1.2V46.119L73.572,46.119L73.572,46.119z M68.055,70.23v-0.839h0.601v0.839H68.055L68.055,70.23
		L68.055,70.23z M68.055,66.031L68.055,66.031v-1.438c0.36,0,0.72,0.239,0.72,0.718C68.774,65.67,68.415,66.031,68.055,66.031
		L68.055,66.031z M68.055,54.396v-4.079c0.119-0.959,0.24-2.158,0.24-3.239c0-1.08-0.121-2.159-0.24-3.238V39.76
		c0.84,2.28,1.199,4.799,1.199,7.317C69.254,49.597,68.895,52.116,68.055,54.396L68.055,54.396L68.055,54.396z M68.055,37.96
		L68.055,37.96v-0.959c0.119,0.721,0.84,0.959,2.159,0.959v0.479C69.254,38.561,68.534,38.321,68.055,37.96L68.055,37.96z
		 M68.055,36.641L68.055,36.641v-2.64l2.639-4.56l-2.639,0.481v-0.599l4.799-0.841l-4.319,6.958
		C68.295,35.921,68.055,36.282,68.055,36.641L68.055,36.641z M68.055,25.004v-1.199c0.24,0,0.479-0.121,0.72-0.24L68.055,25.004
		L68.055,25.004L68.055,25.004z M60.497,15.888L60.497,15.888c2.639,1.199,5.279,2.758,7.558,4.559v1.318
		c-2.278-1.919-4.919-3.478-7.558-4.797V15.888L60.497,15.888z M68.055,73.709L68.055,73.709c-2.278,1.799-4.919,3.358-7.558,4.559
		v-1.08c2.639-1.2,5.279-2.88,7.558-4.679V73.709L68.055,73.709z M68.055,23.806L68.055,23.806v1.199l-2.278,4.679l2.278-0.358
		v0.599l-3.96,0.6l2.64-5.638c-1.801,0.959-4.197,1.918-6.237,2.04v-0.601C62.897,26.205,65.655,24.885,68.055,23.806L68.055,23.806
		z M68.055,34.001l-0.6,0.96c-0.602,1.08-0.358,2.279,0.6,2.999v-0.959c0-0.121,0-0.24,0-0.36V34.001L68.055,34.001L68.055,34.001z
		 M68.055,39.76L68.055,39.76c-1.439-4.198-4.199-7.798-7.558-10.318v1.202c3.96,3.239,6.717,7.917,7.558,13.195V39.76L68.055,39.76
		z M68.055,50.317L68.055,50.317v4.079c-1.439,4.199-4.199,7.797-7.558,10.438v-1.32C64.457,60.273,67.214,55.595,68.055,50.317
		L68.055,50.317z M68.055,60.153v0.96c-0.841,1.319-1.799,2.52-2.88,3.599l1.081,1.44c-0.601,0.479-1.322,0.959-1.92,1.439
		c-0.6,0.36-0.12,1.32,0.72,0.479c0.721-0.72,1.438-1.559,2.279-0.96c0.839,0.48,0.6,1.439-0.121,2.28h0.841v0.839l-1.561,0.24
		l-0.36,0.839l-0.718-0.12l0.36-0.839l-1.319,0.238V70.11c0.959-0.238,1.677-0.6,2.158-1.319c0.481-0.721-0.24-1.079-0.839-0.36
		c-0.602,0.602-2.04,1.201-2.52,0.84c-0.961-0.84,0-2.277,1.799-2.998l-0.599-0.839c-1.2,1.079-2.521,2.158-3.96,2.998v-0.719
		C63.496,65.792,66.134,63.152,68.055,60.153L68.055,60.153L68.055,60.153z M68.055,64.593L68.055,64.593
		c-0.48,0-0.72,0.239-0.72,0.718c0,0.359,0.239,0.721,0.72,0.721V64.593L68.055,64.593z M60.497,71.549L60.497,71.549l0.72,1.56
		h1.079l-1.799-3.598V71.549L60.497,71.549z M60.497,58.954L60.497,58.954v-0.839h1.921V37.001h-1.921v-0.96h2.76v22.913H60.497
		L60.497,58.954z M60.497,56.314L60.497,56.314c0.359-0.358,0.599-0.839,0.599-1.319c0-0.479-0.239-0.958-0.599-1.199V56.314
		L60.497,56.314z M60.497,53.436L60.497,53.436c0.12-0.12,0.359-0.479,0.359-0.959c0-0.359-0.119-0.72-0.359-1.079V53.436
		L60.497,53.436z M60.497,48.158L60.497,48.158V41.2h0.359l0.6,1.198h-0.839v5.877L60.497,48.158L60.497,48.158z M60.497,40.48
		L60.497,40.48v-1.56c0.359,0,0.72,0.359,0.72,0.839C61.217,40.12,60.856,40.48,60.497,40.48L60.497,40.48z M58.457,15.168v0.959
		c0.601,0.358,1.32,0.6,2.04,0.84v-1.08C59.777,15.648,59.058,15.408,58.457,15.168L58.457,15.168L58.457,15.168z M60.497,78.268
		v-1.08c-0.72,0.24-1.439,0.602-2.04,0.839v1.08C59.058,78.747,59.777,78.508,60.497,78.268L60.497,78.268L60.497,78.268z
		 M60.497,26.324c-0.72,0-1.439,0-2.04-0.239v0.599c0.601,0.241,1.199,0.241,2.04,0.241V26.324L60.497,26.324L60.497,26.324z
		 M60.497,29.442c-0.72-0.599-1.439-0.958-2.04-1.438v1.2c0.722,0.479,1.32,0.959,2.04,1.439V29.442L60.497,29.442L60.497,29.442z
		 M60.497,36.041L60.497,36.041v0.96h-2.04v-0.96H60.497L60.497,36.041z M60.497,38.92L60.497,38.92v1.56
		c-0.48,0-0.841-0.359-0.841-0.72C59.656,39.281,60.017,38.92,60.497,38.92L60.497,38.92z M60.497,41.2v6.958l-1.08-0.601v-1.68
		c-0.238,0.24-0.599,0.479-0.96,0.6v-1.681l0.361,0.601c0.239-0.12,0.479-0.36,0.599-0.479v-0.601c-0.12,0-0.12,0-0.12,0
		c-0.118-0.238-0.479-0.359-0.84-0.359v-0.721c0.361,0.12,0.722,0.36,0.96,0.721V42.52h-0.96V40.6c0.12,0.24,0.361,0.36,0.601,0.602
		h0.359c-0.359-0.36-0.719-0.84-0.96-1.201v-0.96c0.601,0.72,0.96,1.56,1.681,2.16H60.497L60.497,41.2L60.497,41.2z M60.497,51.397
		c-0.359-0.24-0.72-0.48-1.439-0.48h-0.601v1.08h0.361c0.479,0,0.838,0.12,0.838,0.6s-0.359,0.6-0.838,0.6h-0.361v0.959h0.481
		c0.479,0,0.839,0.241,0.839,0.721c0,0.6-0.24,0.959-0.839,0.959h-0.481v0.96h0.241c1.079,0,1.439-0.12,1.799-0.48v-2.519
		c-0.12-0.121-0.24-0.121-0.359-0.121c0.119-0.12,0.239-0.12,0.359-0.24V51.397L60.497,51.397L60.497,51.397z M60.497,58.115h-2.04
		v0.839h2.04V58.115L60.497,58.115L60.497,58.115z M60.497,63.513c-0.72,0.599-1.318,1.081-2.04,1.439v1.199
		c0.601-0.359,1.32-0.841,2.04-1.318V63.513L60.497,63.513L60.497,63.513z M60.497,67.711c-0.72,0.479-1.439,0.839-2.04,1.2v0.72
		c0.241-0.12,0.481-0.24,0.722-0.361l0.599,0.96l-1.32,0.721v0.96l1.681-0.842l0.359,0.479V69.51l-0.48-0.84
		c0.121,0,0.24-0.121,0.48-0.241L60.497,67.711L60.497,67.711L60.497,67.711z M57.979,14.928L57.979,14.928
		c0.119,0.119,0.237,0.119,0.479,0.24v0.959c-0.241,0-0.359,0-0.479-0.12V14.928L57.979,14.928z M58.457,79.108L58.457,79.108
		c-0.241,0-0.359,0-0.479,0.119v-1.079c0.119,0,0.237-0.12,0.479-0.12V79.108L58.457,79.108z M58.457,26.085L58.457,26.085v0.599
		c-0.241,0-0.359-0.12-0.479-0.12v-0.599C58.098,25.965,58.216,26.085,58.457,26.085L58.457,26.085z M58.457,28.004L58.457,28.004
		v1.2c-0.119-0.12-0.359-0.241-0.479-0.241v-1.199C58.098,27.883,58.216,27.883,58.457,28.004L58.457,28.004z M58.457,36.041h-0.479
		v0.96h0.479V36.041L58.457,36.041L58.457,36.041z M58.457,39.04c-0.119-0.12-0.359-0.24-0.479-0.36v0.839
		c0.119,0.121,0.359,0.24,0.479,0.479V39.04L58.457,39.04L58.457,39.04z M58.457,40.6c-0.241-0.12-0.359-0.239-0.479-0.359v0.96
		h0.119h-0.119v1.318h0.479V40.6L58.457,40.6L58.457,40.6z M58.457,43.24c-0.119,0-0.359,0-0.479,0v0.841
		c0.119,0,0.359-0.121,0.479-0.121V43.24L58.457,43.24L58.457,43.24z M58.457,44.798l-0.479-0.6v1.319l0.119,0.12h-0.119v0.84
		c0.119,0,0.359,0,0.479,0V44.798L58.457,44.798L58.457,44.798z M58.457,50.917L58.457,50.917v1.08h-0.479v-1.08H58.457
		L58.457,50.917z M58.457,53.196L58.457,53.196v0.959h-0.479v-0.959H58.457L58.457,53.196z M58.457,55.834L58.457,55.834v0.96
		h-0.479v-0.96H58.457L58.457,55.834z M58.457,58.115L58.457,58.115v0.839h-0.479v-0.839H58.457L58.457,58.115z M58.457,64.952
		L58.457,64.952v1.199c-0.241,0.12-0.359,0.12-0.479,0.24v-1.2C58.098,65.192,58.338,65.072,58.457,64.952L58.457,64.952z
		 M58.457,68.911L58.457,68.911v0.72c-0.119,0.119-0.359,0.119-0.479,0.24v-0.721C58.098,69.031,58.338,69.031,58.457,68.911
		L58.457,68.911z M58.457,70.95L58.457,70.95v0.96l-0.241,0.118c0.241,0.961,0.122,1.8-0.237,2.399V71.07L58.457,70.95L58.457,70.95
		z M57.377,14.808v1.081c0.241,0,0.481,0.12,0.602,0.12v-1.08C57.858,14.928,57.618,14.808,57.377,14.808L57.377,14.808
		L57.377,14.808z M57.979,79.227v-1.079c-0.12,0.12-0.36,0.12-0.602,0.24v0.96C57.618,79.348,57.858,79.227,57.979,79.227
		L57.979,79.227L57.979,79.227z M57.979,25.965c-0.12-0.121-0.36-0.121-0.602-0.239v0.479c0.241,0.12,0.359,0.24,0.602,0.358V25.965
		L57.979,25.965L57.979,25.965z M57.979,27.764c-0.12-0.12-0.36-0.24-0.602-0.36v1.2c0.241,0.12,0.481,0.24,0.602,0.359V27.764
		L57.979,27.764L57.979,27.764z M57.979,36.041L57.979,36.041v0.96h-0.602v-0.96H57.979L57.979,36.041z M57.979,38.68L57.979,38.68
		v0.839c-0.12-0.239-0.242-0.358-0.36-0.479c-0.119,0-0.119-0.12-0.241-0.12V38.2c0.122,0,0.122,0.12,0.122,0.12
		C57.736,38.44,57.858,38.561,57.979,38.68L57.979,38.68z M57.979,40.24L57.979,40.24V41.2l-0.602-0.481V39.88
		C57.618,39.999,57.858,40.12,57.979,40.24L57.979,40.24z M57.979,41.2L57.979,41.2v1.318h-0.602V41.2H57.979L57.979,41.2z
		 M57.979,43.24L57.979,43.24v0.841v0.119v1.319l-0.602-0.839V43.24c0.122,0,0.241,0,0.359,0
		C57.858,43.24,57.858,43.24,57.979,43.24L57.979,43.24z M57.979,45.638L57.979,45.638v0.84c-0.242,0-0.36,0-0.602-0.122v-0.719
		C57.618,45.638,57.736,45.638,57.979,45.638L57.979,45.638z M57.979,50.917h-0.602v1.08h0.602V50.917L57.979,50.917L57.979,50.917z
		 M57.979,53.196h-0.602v0.959h0.602V53.196L57.979,53.196L57.979,53.196z M57.979,55.834h-0.602v0.96h0.602V55.834L57.979,55.834
		L57.979,55.834z M57.979,58.115h-0.602v0.839h0.602V58.115L57.979,58.115L57.979,58.115z M57.979,65.192
		c-0.12,0.119-0.36,0.241-0.602,0.359v1.2c0.241-0.12,0.481-0.239,0.602-0.359V65.192L57.979,65.192L57.979,65.192z M57.979,69.151
		c-0.12,0-0.36,0.119-0.602,0.24v0.72c0.241-0.119,0.481-0.238,0.602-0.238V69.151L57.979,69.151L57.979,69.151z M57.979,71.07
		l-0.242,0.12l-0.359-0.839v4.678c0.241-0.118,0.481-0.358,0.602-0.599L57.979,71.07L57.979,71.07L57.979,71.07z M56.538,14.568
		L56.538,14.568c0.24,0,0.601,0.121,0.839,0.239v1.081c-0.238-0.121-0.599-0.24-0.839-0.36V14.568L56.538,14.568z M57.377,79.348
		L57.377,79.348c-0.238,0.119-0.599,0.24-0.839,0.36v-1.079c0.24-0.121,0.601-0.121,0.839-0.241V79.348L57.377,79.348z
		 M57.377,25.726L57.377,25.726v0.479c0,0,0,0,0-0.12v-0.481C57.377,25.604,57.377,25.604,57.377,25.726L57.377,25.726z
		 M57.377,27.404L57.377,27.404v1.2c-0.238-0.238-0.599-0.359-0.839-0.479v-1.08C56.778,27.164,57.139,27.284,57.377,27.404
		L57.377,27.404z M57.377,36.041h-0.839v0.96h0.839V36.041L57.377,36.041L57.377,36.041z M57.377,38.2
		c-0.238-0.119-0.599-0.24-0.839-0.359v0.839h0.12c0.239,0,0.48,0.12,0.719,0.24V38.2L57.377,38.2L57.377,38.2z M57.377,39.88
		c0-0.12-0.119-0.12-0.119-0.12c-0.239-0.24-0.479-0.359-0.72-0.359v0.839h0.12l0.719,0.479V39.88L57.377,39.88L57.377,39.88z
		 M57.377,41.2h-0.839v1.318h0.839V41.2L57.377,41.2L57.377,41.2z M57.377,43.24c-0.358,0-0.599,0.119-0.839,0.359v2.398
		c0.24,0.121,0.48,0.358,0.839,0.358v-0.719c-0.238,0-0.358-0.12-0.479-0.239c-0.239-0.36-0.119-0.72,0.36-1.081l0.119,0.36V43.24
		L57.377,43.24L57.377,43.24z M57.377,50.917L57.377,50.917v1.08v1.199v0.96v1.679v0.96h-0.839v-5.878H57.377L57.377,50.917z
		 M57.377,58.115L57.377,58.115v0.839h-0.839v-0.839H57.377L57.377,58.115z M57.377,65.551L57.377,65.551v1.2
		c-0.238,0.121-0.599,0.241-0.839,0.48v-1.2C56.778,65.912,57.139,65.792,57.377,65.551L57.377,65.551z M57.377,69.391
		L57.377,69.391v0.72c0,0,0,0-0.119,0l0.119,0.24v4.678c-0.238,0.121-0.599,0.121-0.839,0.121v-0.6c0.72,0.12,1.08-0.959,0.601-2.04
		c-0.241,0-0.48,0.119-0.601,0.119V71.67c0.12-0.121,0.12-0.121,0.24-0.239l-0.24-0.601v-1.08
		C56.778,69.631,57.139,69.511,57.377,69.391L57.377,69.391z M47.062,13.128v1.08c3.237,0,6.478,0.48,9.477,1.319v-0.959
		C53.539,13.609,50.299,13.128,47.062,13.128L47.062,13.128L47.062,13.128z M56.538,79.708v-1.079
		c-2.999,0.959-6.239,1.438-9.477,1.438v0.959C50.299,81.027,53.539,80.547,56.538,79.708L56.538,79.708L56.538,79.708z
		 M56.538,27.044c-2.879-1.44-6.117-2.16-9.477-2.16v0.959c3.359,0,6.598,0.84,9.477,2.28V27.044L56.538,27.044L56.538,27.044z
		 M56.538,36.041L56.538,36.041h-2.879v22.074H52.22v-1.32h-1.079l-0.479-0.72v-2.52c0.36-0.479,0.599-0.24,1.078-1.201l0.24-0.719
		c0.24-0.119,0.36-0.599,0.36-1.08h-0.96c0,0.96-0.84,1.32-1.319,1.32v-1.799c0.36-0.119,0.601-0.119,1.08-0.72l0.358-0.6
		c0.24-0.121,0.36-0.24,0.48-0.481v-0.479H50.78l-0.119,0.839h-1.32v-1.199c0.601-0.359,1.439-0.72,1.56-1.559
		c0.121,0,0.599-0.36,0.72-0.36v-0.72h-0.959L50.3,45.4c-0.238,0.479-1.319,0.359-1.199,0.359v-1.32
		c0.602-0.239,1.199-0.6,1.44-1.08l0.601-0.238v-0.96h-1.08c0,0.359-0.241,0.72-0.601,0.96c-0.238,0-0.36,0-0.6,0v-1.2
		c0.6-0.36,1.319-0.602,1.438-1.44l0.602-0.241v-0.72H49.82c0,0.24-0.359,0.602-0.479,0.841h-0.602V39.4
		c0.602-0.36,0.962-0.84,1.08-1.56l0.721-0.119V36.88h-1.08c-0.238,1.08-0.721,1.08-0.959,0.96v-0.96
		c0.599-0.359,0.599-0.479,1.2-1.08c0.479-0.239,0.839-1.319,0.359-1.199h-0.479c-0.359,0-0.359,0.601-0.602,0.839
		c-0.119,0-0.479,0.12-0.72,0.12v-1.08c0.601-0.119,1.321-0.6,1.441-1.32h0.359c0-0.119,0-0.359,0.119-0.6c-0.36,0-0.72,0-0.958,0
		c-0.122,0.48-0.482,0.722-0.841,0.84c-0.479-0.359-0.601-0.359-0.72-0.959c0-0.841,0.84-1.561,0.24-2.521l-0.121-0.6
		c0-0.959-0.36-1.08-0.719-1.44v31.071h9.477v-0.84h-2.16v-21.11h2.16v-0.96H56.538z M56.538,37.841L56.538,37.841v0.839h-0.72
		l-0.479-0.839H56.538L56.538,37.841z M56.538,39.401L56.538,39.401v0.839h-0.6l-0.599-0.958c0.358,0,0.599,0,0.959,0
		C56.418,39.281,56.418,39.281,56.538,39.401L56.538,39.401z M56.538,41.2L56.538,41.2v1.318h-0.6L55.459,41.2H56.538L56.538,41.2z
		 M56.538,43.599L56.538,43.599v2.398c-0.359-0.359-0.6-0.72-0.6-1.2C55.818,44.318,56.059,43.839,56.538,43.599L56.538,43.599z
		 M56.538,50.917h-0.239v5.878h0.239V50.917L56.538,50.917L56.538,50.917z M56.538,66.031c-2.879,1.439-6.117,2.28-9.477,2.28v0.958
		c3.359,0,6.598-0.72,9.477-2.038V66.031L56.538,66.031L56.538,66.031z M56.538,69.75c-2.999,1.2-6.117,1.919-9.477,1.919v4.918
		l0.6,0.48v-2.04c0.479-0.239,0.84-0.358,1.199-0.599c0.841-0.601,2.28-1.079,2.639-0.24c0.24,0.721-1.078,1.2-2.158,0.96
		c-0.119,0.359-0.241,0.721-0.361,0.96c0.962,0.12,2.52,0.239,3-0.841c0.479-1.198,0.119-2.277-1.559-2.277
		c-0.84-0.12-1.801,0.359-2.76,0.839v-1.56c3.119,0,5.998-0.6,8.757-1.681l0.12,0.241V69.75L56.538,69.75L56.538,69.75z
		 M56.538,71.669L56.538,71.669c-2.16,0.959-1.919,2.76-0.6,3.358c0.12,0,0.36,0.121,0.6,0.121v-0.6c-0.12,0-0.359-0.12-0.479-0.12
		c-0.719-0.479-0.6-1.32,0.479-1.8V71.669L56.538,71.669z M47.062,21.046v-0.959l2.88-4.799l2.398,7.798
		c0.6,1.918,1.678,2.039,3,0.358l0.358,0.36c-1.559,2.159-3.839,1.56-4.438-0.24l-1.919-5.999L47.062,21.046L47.062,21.046
		L47.062,21.046z M47.062,81.027L47.062,81.027c-3.96,0-7.918-0.721-11.517-2.04v-1.078c3.599,1.317,7.557,2.159,11.517,2.159
		V81.027L47.062,81.027z M35.545,15.168L35.545,15.168c3.599-1.32,7.557-2.04,11.517-2.04v1.08c-3.96,0-7.918,0.72-11.517,2.04
		V15.168L35.545,15.168z M47.062,20.086v0.959l-1.32,2.16l-2.398-5.64c-0.839,3.239-2.64,7.559-5.278,7.917l-0.36-0.239
		c3.601-1.319,4.559-6.357,5.877-10.076l2.641,6.237L47.062,20.086L47.062,20.086L47.062,20.086z M47.062,24.885L47.062,24.885
		v0.959c-4.198,0-8.157,1.32-11.517,3.48v-1.2C38.904,26.085,42.863,24.885,47.062,24.885L47.062,24.885z M47.062,27.883v31.071
		H35.545v-0.839h4.079V37.001h-4.079v-0.96h4.919v22.074h1.438v-1.201h0.961l0.599-0.839v-2.52c-0.599-0.36-1.079-0.839-1.318-1.92
		l-0.48-0.238v-0.721h0.841c0.119,0.84,0.719,1.199,1.198,1.199v-1.799c-0.479,0-0.839-0.36-1.198-1.08l-0.121-0.36
		c-0.239,0-0.48-0.119-0.6-0.36v-0.479h1.199l0.119,0.839h0.601l0.12-1.199c-0.6-0.479-1.079-1.081-1.439-1.799
		c-0.12,0-0.239-0.12-0.36-0.12c0-0.239,0-0.479,0-0.72h0.96V45.4c0,0.479,1.08,0.359,1.08,0.359l-0.119-1.32
		c-0.481-0.12-0.961-0.72-1.32-1.199l-0.479-0.119V42.4h1.079c0,0.239,0.12,0.479,0.479,0.721c0.12,0,0.36,0,0.601,0v-1.2
		c-0.722-0.36-1.201-0.841-1.32-1.681h-0.479v-0.721h1.077c0,0.24,0.121,0.602,0.362,0.841l0.478-0.122V39.4
		c-0.599-0.36-1.078-0.84-1.198-1.56l-0.6-0.119V36.88h0.839c0.24,1.08,0.841,1.08,1.201,0.96v-0.96
		c-0.601-0.239-1.082-0.479-1.201-1.08c-0.479-0.239-0.958-1.08-0.479-1.08h0.479c0.36,0,0.481,0.601,0.721,0.961
		c0.12,0,0.358,0,0.48,0v-1.08c-0.601,0-1.082-0.72-1.201-1.44h-0.36c-0.119-0.119-0.119-0.359-0.119-0.6c0.36,0,0.599,0,0.961,0
		c0.119,0.48,0.478,0.722,0.838,0.84l0.239-0.359c0-0.241,0-0.48,0-0.721c-0.239-0.96-0.718-1.679,0.241-2.399l-0.36-0.96
		c-0.238-1.918,0.602-1.319,1.32-1.918c0.121-0.241,0.481-0.12,0.601,0.119C46.822,27.524,46.941,27.764,47.062,27.883
		L47.062,27.883L47.062,27.883z M47.062,68.312L47.062,68.312v0.958c-4.198,0-8.157-1.199-11.517-3.238v-1.079
		C38.904,66.992,42.863,68.312,47.062,68.312L47.062,68.312z M47.062,71.669v4.918l-0.12-0.239v-1.08
		c-1.319,0.479-2.759,0.722-3.959,0.121c-0.96-0.6-1.319-1.56,0.119-2.159c0.842-0.479,1.8-0.479,2.881,0.12
		c-0.241,0.119-0.479,0.359-0.599,0.6c-1.321-0.48-2.282-0.12-2.161,0.479c0.12,0.72,1.44,0.72,3.719-0.121l-0.119-2.039
		c-2.281,0-4.439-0.24-6.599-0.839l-1.56,4.317l-0.36-1.079l1.08-3.6c-0.72-0.119-1.44-0.48-2.158-0.719l-0.12,0.601
		c0.599,0.239,0.959,0.84,0.718,1.679c-0.238,0.84-1.078,1.32-2.278,1.44v-0.961c0.84,0.121,1.561,0,1.681-0.599
		c0.118-0.599-0.48-1.079-1.681-1.079v-0.842l0.6,0.122l0.24-0.721c-0.24-0.119-0.48-0.24-0.84-0.479v-0.72
		c1.079,0.6,2.159,1.081,3.24,1.438c-0.36-1.079-0.842-1.8-1.801-1.8v-0.839c1.08,0.24,2.039,0.959,2.76,2.399h0.84l0.119,0.84
		C42.743,71.31,44.901,71.669,47.062,71.669L47.062,71.669L47.062,71.669z M35.545,56.795h0.84l1.078-4.919v4.919h1.081v-5.878
		h-1.68l-1.079,4.679l-0.24-0.84V56.795L35.545,56.795L35.545,56.795z M35.545,45.279h1.2v2.52l1.078,0.839V42.52h0.841l-0.36-1.201
		h-2.759v1.201h1.2v1.561h-1.2V45.279L35.545,45.279L35.545,45.279z M35.545,27.284L35.545,27.284c0.48-0.601,0.6-1.44,0.48-2.399
		h-0.48V27.284L35.545,27.284z M35.545,78.987v-1.078c-1.92-0.721-3.838-1.681-5.639-2.76v1.199
		C31.707,77.429,33.625,78.268,35.545,78.987L35.545,78.987L35.545,78.987z M29.906,17.808v1.199
		c1.801-1.08,3.719-2.039,5.639-2.759v-1.08C33.625,15.888,31.707,16.847,29.906,17.808L29.906,17.808L29.906,17.808z
		 M35.545,24.885c0.24,2.16-0.601,2.879-2.399,1.918l-3.239-1.559v1.438l2.879,1.32c1.081,0.479,2.159,0.12,2.76-0.72L35.545,24.885
		L35.545,24.885L35.545,24.885z M35.545,28.124L35.545,28.124c-2.158,1.317-4.078,2.999-5.639,4.918v1.56
		c1.561-2.04,3.479-3.958,5.639-5.277V28.124L35.545,28.124z M35.545,36.041h-4.799v22.074v0.839h4.799v-0.839h-3.959V37.001h3.959
		V36.041L35.545,36.041L35.545,36.041z M35.545,41.319L35.545,41.319h-3l0.36,1.201h0.601v1.561
		c-0.961,0.358-1.081,0.718-0.479,1.679c0.238,0.48,0.721,0.839,1.319,0.839c0.359-0.358,0.24-0.719,0.24-1.319h0.959V44.08h-0.959
		V42.52h0.959V41.319L35.545,41.319z M35.545,54.755L35.545,54.755l-0.84-3.839h-1.8v5.878h1.2v-4.919l1.079,4.919h0.36
		L35.545,54.755L35.545,54.755z M35.545,64.952c-2.158-1.439-4.078-3.238-5.639-5.398v1.559c1.561,2.039,3.479,3.599,5.639,4.917
		V64.952L35.545,64.952L35.545,64.952z M35.545,68.791c0,0-0.12-0.12-0.24-0.12l-0.36,0.599c0.24,0.121,0.48,0.241,0.601,0.241
		L35.545,68.791L35.545,68.791L35.545,68.791z M35.545,70.589L35.545,70.589h-0.36c-0.72-1.198-1.679-1.918-2.76-1.918
		c-1.078,0-1.917,0.96-0.718,3.358l0.838-0.359c-0.718-0.719-1.078-1.56-0.48-2.039c0.48-0.6,1.2-0.12,1.921,0.958l-0.119,0.241
		l0.119,0.719c0.601-0.118,1.199-0.118,1.56-0.118L35.545,70.589L35.545,70.589z M35.545,73.109c-0.24,0-0.601-0.118-0.84-0.238
		v1.079c0.36,0.12,0.6,0.12,0.84,0.12V73.109L35.545,73.109L35.545,73.109z M29.906,63.272v-1.438c0.479,0,0.84,0.24,0.84,0.72
		C30.746,62.912,30.387,63.272,29.906,63.272L29.906,63.272L29.906,63.272z M29.906,76.348L29.906,76.348
		c-0.12-0.12-0.239-0.239-0.359-0.239v-1.199c0.12,0.118,0.239,0.239,0.359,0.239V76.348L29.906,76.348z M29.547,18.046
		L29.547,18.046c0.12,0,0.239-0.119,0.359-0.238v1.199c-0.12,0.12-0.239,0.12-0.359,0.239V18.046L29.547,18.046z M29.906,25.245
		L29.906,25.245v1.438l-0.359-0.239v-1.319L29.906,25.245L29.906,25.245z M29.906,33.042L29.906,33.042v1.56
		c-0.12,0.24-0.239,0.479-0.359,0.601v-1.681C29.667,33.402,29.786,33.161,29.906,33.042L29.906,33.042z M29.906,59.554
		L29.906,59.554v1.559c-0.12-0.119-0.239-0.359-0.359-0.479v-1.679C29.667,59.193,29.786,59.314,29.906,59.554L29.906,59.554z
		 M29.906,61.833L29.906,61.833v1.438c-0.12,0-0.239-0.12-0.359-0.12v-1.198C29.667,61.833,29.786,61.833,29.906,61.833
		L29.906,61.833z M29.547,64.952L29.547,64.952v-0.721c0.12,0.12,0.239,0.24,0.359,0.361L29.547,64.952L29.547,64.952z
		 M29.547,76.109v-1.199c-0.719-0.48-1.438-0.96-2.16-1.44v1.2C28.108,75.149,28.828,75.63,29.547,76.109L29.547,76.109
		L29.547,76.109z M27.387,19.486v1.2c0.722-0.479,1.441-0.96,2.16-1.439v-1.2C28.828,18.527,28.108,19.007,27.387,19.486
		L27.387,19.486L27.387,19.486z M29.547,25.125l-2.16-1.081v1.439l2.16,0.961V25.125L29.547,25.125L29.547,25.125z M29.547,33.522
		c-0.84,1.08-1.561,2.16-2.16,3.358v2.28c0.6-1.32,1.32-2.641,2.16-3.958V33.522L29.547,33.522L29.547,33.522z M29.547,58.954
		c-0.84-1.199-1.561-2.52-2.16-3.959v2.279c0.6,1.199,1.32,2.279,2.16,3.358V58.954L29.547,58.954L29.547,58.954z M29.547,61.953
		c-0.24,0.12-0.359,0.239-0.359,0.6c0,0.24,0.119,0.48,0.359,0.6V61.953L29.547,61.953L29.547,61.953z M29.547,64.232L29.547,64.232
		c-0.84-0.719-1.561-1.559-2.16-2.518v0.839l0.84,1.08l-0.84,0.6v1.201l1.32-1.081c0.241,0.241,0.48,0.48,0.72,0.721l0.12-0.12
		V64.232L29.547,64.232z M27.387,31.363L27.387,31.363v-1.319l0.479,0.24l-0.479-1.561v-2.04l1.441,5.158L27.387,31.363
		L27.387,31.363z M27.387,74.669L27.387,74.669c-1.679-1.2-3.239-2.64-4.798-4.08v-1.438c1.439,1.561,3.119,2.999,4.798,4.318
		V74.669L27.387,74.669z M22.589,23.565L22.589,23.565c1.559-1.439,3.119-2.879,4.798-4.079v1.2
		c-1.679,1.32-3.358,2.759-4.798,4.318V23.565L22.589,23.565z M27.387,24.044v1.439l-0.36-0.119l0.36,1.318v2.04l-1.559-5.397
		L27.387,24.044L27.387,24.044L27.387,24.044z M27.387,30.043L27.387,30.043v1.319l-4.438-1.559c1.801,2.878,3.84,7.077,2.28,9.236
		l-0.479,0.121c1.199-2.761-0.481-6-2.16-8.998v-1.799L27.387,30.043L27.387,30.043z M27.387,36.88v2.28
		c-0.959,2.519-1.559,5.157-1.559,7.917s0.6,5.398,1.559,7.917v2.279c-1.559-3-2.519-6.479-2.519-10.197
		C24.868,43.359,25.828,39.88,27.387,36.88L27.387,36.88L27.387,36.88z M27.387,61.714L27.387,61.714v0.839l-0.84-0.959
		c-0.358,1.559-1.199,1.919-2.639,1.2c0,1.199,1.201,1.8,2.639,2.04l0.84-0.602v1.201l-2.158,1.799l-0.241-0.96l0.841-0.839
		c-2.999-0.839-2.999-2.398-2.279-4.2c0.959,1.32,1.92,1.2,2.279-0.6c-0.6-0.839-1.079-1.799-1.561-2.758l-1.679,0.599v-2.759
		c0.359,0.36,0.479,0.96,0.72,1.56l0.6-0.239c-0.479-1.2-0.96-2.399-1.319-3.6v-3.719c0.24,2.16,0.72,4.199,1.559,6.118
		c0.602-0.719,0.84-1.56,0.36-2.399l0.721-0.359c0.359,0.96,0.24,2.158-0.479,3.6l0.36,0.718l-0.241,0.241
		C25.588,59.074,26.428,60.514,27.387,61.714L27.387,61.714z M22.589,70.589v-1.438c-0.358-0.479-0.72-0.96-1.198-1.438v1.559
		C21.869,69.75,22.23,70.11,22.589,70.589L22.589,70.589L22.589,70.589z M21.391,24.885v1.561c0.479-0.479,0.84-0.961,1.198-1.44
		v-1.439C22.23,24.044,21.869,24.524,21.391,24.885L21.391,24.885L21.391,24.885z M22.589,28.365l-1.198-0.481
		c0.359,0.721,0.84,1.559,1.198,2.28V28.365L22.589,28.365L22.589,28.365z M22.589,49.716c0-0.839-0.12-1.8-0.12-2.639h-0.6
		c0,0.721,0,1.319,0,1.919l-0.479,0.122v0.958l0.719-0.119l0.24,1.678l-0.959,0.121v1.08l1.078-0.24c0,0.359,0.12,0.6,0.12,0.839
		L22.589,49.716L22.589,49.716L22.589,49.716z M22.589,55.715c-0.239-0.48-0.72-0.839-1.198-0.959v1.079
		c0.479,0.359,0.84,1.318,1.078,2.76l0.12-0.121V55.715L22.589,55.715L22.589,55.715z M21.391,59.193v-1.077
		c0.239,0.118,0.359,0.237,0.479,0.479L21.391,59.193L21.391,59.193L21.391,59.193z M21.391,43.359L21.391,43.359V42.4h1.198
		l-0.479,0.959H21.391L21.391,43.359z M21.391,41.2L21.391,41.2v-1.08h1.198L22.23,41.2H21.391L21.391,41.2z M21.391,69.27
		L21.391,69.27c-0.961-1.199-1.92-2.519-2.88-3.837v-1.92c0.841,1.439,1.8,2.879,2.88,4.199V69.27L21.391,69.27z M18.511,28.724
		L18.511,28.724c0.96-1.32,1.919-2.639,2.88-3.839v1.561c-1.08,1.318-2.039,2.759-2.88,4.198V28.724L18.511,28.724z M21.391,27.883
		L21.391,27.883V40.12v1.08h-2.88V40.48l0.239-0.359h2.641V27.883L21.391,27.883z M21.391,42.399H18.75l-0.239,0.239v0.72h2.88
		V42.399L21.391,42.399L21.391,42.399z M21.391,49.118L21.391,49.118v0.958H20.43l0.24,1.799l0.721-0.12v1.08l-2.88,0.358v-0.841
		l1.079-0.238l-0.238-1.8c-0.241,0-0.602-0.121-0.841-0.121v-1.077c0.119,0,0.239,0,0.239,0c0.36-0.122,0.479-0.481,0.36-0.842
		c-0.119-0.359-0.36-0.6-0.6-0.6v-1.08c0.841-0.119,1.68,0.479,1.919,2.521h0.962V49.118z M21.391,54.755L21.391,54.755v1.079
		c-0.121-0.12-0.241-0.12-0.479-0.12c-1.08,0-0.961,1.438-0.361,2.04c0.361,0.12,0.6,0.12,0.841,0.36v1.077l-0.121,0.121
		l-1.079-0.239l-1.08,0.6c-0.119,0.119-0.36,0.239-0.6,0.239v-1.318l0.119-0.121l0.48,0.36l0.479-0.48l-1.079-0.599v-0.96
		l0.841,0.599c-0.241-1.559,0.238-2.518,1.438-2.638C21.03,54.755,21.27,54.755,21.391,54.755L21.391,54.755z M18.511,65.433v-1.92
		c-2.76-4.799-4.319-10.437-4.319-16.436c0-5.998,1.56-11.637,4.319-16.435v-1.92C15.153,34,13.113,40.36,13.113,47.077
		C13.112,53.796,15.152,60.153,18.511,65.433L18.511,65.433L18.511,65.433z M18.511,40.48L18.511,40.48L18.152,41.2h0.359V40.48
		L18.511,40.48z M18.511,42.639v0.72h-0.479L18.511,42.639L18.511,42.639L18.511,42.639z M18.511,46.598L18.511,46.598
		c-0.601,0.12-1.2,0.84-1.2,1.799c0,0.839,0.361,1.44,1.2,1.799v-1.077c-0.241,0-0.479-0.241-0.479-0.602
		c-0.121-0.359,0-0.84,0.358-0.84c0-0.119,0.121-0.119,0.121,0V46.598L18.511,46.598z M18.511,52.355L18.511,52.355h-0.359
		c-0.12-0.599-0.361-1.198-0.721-1.799l-0.479,0.24c0.721,1.438,0.119,2.398-0.6,1.68c-0.84-0.72-0.24-2.159,0-3.119l-0.36-0.121
		c-0.601,1.32-0.96,2.521,0,3.959c0.722,1.08,1.439,0.72,2.16,0.12l0.359-0.12V52.355L18.511,52.355z M18.511,56.795L18.511,56.795
		l-0.839-0.48l-0.361,0.601l1.2,0.841V56.795L18.511,56.795z M18.511,58.595L18.511,58.595l-0.721,0.599l0.361,0.481
		c0.118,0.119,0.238,0.239,0.359,0.239L18.511,58.595L18.511,58.595z"/>
	<rect x="94.504" y="3.831" fill="#0089CF" width="301.874" height="86.493"/>
	<path fill="#FFFFFF" d="M369.024,61.285v-1.56c0,0,0,0,0.106,0c0.639,0,1.172-0.292,1.703-0.683v-4.581
		c-0.426,0.196-1.17,0.585-1.811,0.78v-1.171c0.854-0.292,1.491-0.584,1.811-0.877v-0.682c0-1.56-0.744-2.339-1.811-2.534v-1.267
		c0.319-0.098,0.532-0.098,0.854-0.098c1.385,0,2.557,0.389,3.301,0.974c0.959,0.78,1.279,1.852,1.279,3.021v5.36
		c0,1.267,0.428,1.657,0.854,1.657c0.427,0,0.746-0.098,1.064-0.195l0.318,0.977l-3.302,1.461c-0.641,0-1.172-0.195-1.6-0.585
		c-0.426-0.391-0.639-0.78-0.746-1.072C370.409,60.603,369.665,60.993,369.024,61.285L369.024,61.285z M369.024,48.713
		c-1.703,0.39-3.408,1.267-4.367,1.852c-0.642,0.487-0.959,0.877-0.959,1.363c0,0.781,1.174,1.365,1.918,1.365
		c0.53,0,0.959-0.292,1.17-0.779c0.215-0.976,0.428-1.657,0.746-2.047c0.319-0.292,0.746-0.487,1.28-0.487c0.104,0,0.104,0,0.212,0
		V48.713L369.024,48.713L369.024,48.713z M369.024,54.073c-1.173,0.39-2.558,0.779-3.408,1.17c-1.492,0.584-2.236,1.559-2.236,3.021
		c0,1.754,1.596,3.606,4.047,3.606c0.426,0,0.959-0.195,1.599-0.585v-1.56c-0.854,0-1.812-0.78-1.812-2.046
		c0-1.073,0.426-1.657,1.277-2.145c0.215-0.099,0.321-0.195,0.533-0.292V54.073L369.024,54.073L369.024,54.073z M304.568,61.285
		L304.568,61.285v-1.56c0,0,0,0,0.106,0c0.642,0,1.173-0.292,1.705-0.683v-4.581c-0.427,0.196-1.173,0.585-1.813,0.78v-1.171
		c0.854-0.292,1.491-0.584,1.813-0.877v-0.682c0-1.56-0.746-2.339-1.813-2.534v-1.267c0.32-0.098,0.535-0.098,0.854-0.098
		c1.385,0,2.557,0.389,3.303,0.974c0.958,0.78,1.277,1.852,1.277,3.021v5.36c0,1.267,0.427,1.657,0.853,1.657
		c0.427,0,0.747-0.098,1.065-0.195l0.319,0.977l-3.301,1.461c-0.642,0-1.173-0.195-1.601-0.585c-0.426-0.391-0.638-0.78-0.745-1.072
		C305.954,60.603,305.208,60.993,304.568,61.285L304.568,61.285z M323.001,52.319L323.001,52.319
		c-0.108-0.487-0.426-2.534-0.745-3.216c-0.748-0.292-1.705-0.486-3.09-0.486c-3.304,0-5.326,1.754-5.326,3.995
		c0,2.242,2.557,3.313,4.047,3.898c1.704,0.585,2.345,1.462,2.345,2.534s-0.745,1.657-1.813,1.657c-1.811,0-3.409-1.95-3.941-3.703
		l-1.065,0.097c0,1.267,0.319,3.216,0.429,3.606c0.638,0.584,2.342,1.17,4.047,1.17c2.664,0,5.646-1.269,5.646-4.191
		c0-2.145-1.813-3.313-4.154-4.19c-1.492-0.487-2.451-1.17-2.451-2.145c0-0.878,0.746-1.56,1.813-1.56
		c0.958,0,2.236,0.779,3.09,2.826L323.001,52.319L323.001,52.319z M326.622,58.556L326.622,58.556c0,1.754-0.213,1.854-2.024,2.047
		v0.976h7.031v-0.976c-1.278-0.193-1.384-0.293-1.384-2.047v-6.823c0.639-0.778,1.491-1.071,2.344-1.071
		c1.278,0,2.236,0.877,2.236,2.826v5.068c0,1.754-0.212,1.854-1.49,2.047v0.976h6.818v-0.976c-1.492-0.193-1.705-0.293-1.705-2.047
		v-5.555c0-2.826-1.385-4.385-4.155-4.385c-1.599,0-3.09,0.876-4.048,1.754v-8.968c-1.813,0.391-3.836,0.78-5.54,0.976v0.877
		c1.812,0.194,1.917,0.194,1.917,1.851V58.556L326.622,58.556z M342.604,58.361L342.604,58.361c0,2.534,1.278,3.51,3.516,3.51
		c0.32,0,0.747-0.099,1.278-0.293l2.237-0.877l-0.318-0.976c-0.429,0.195-0.854,0.292-1.492,0.292c-0.746,0-1.598-0.487-1.598-2.535
		V50.37h2.661c0.534-0.195,0.534-1.17,0.216-1.462h-2.877v-3.704l-0.428-0.196l-3.194,2.145v1.756h-1.174l-0.852,1.071l0.213,0.391
		h1.813L342.604,58.361L342.604,58.361z M352.938,58.556L352.938,58.556c0,1.754-0.105,1.854-1.919,2.047v0.976h7.991v-0.976
		c-2.131-0.193-2.343-0.293-2.343-2.144v-5.166c0.532-1.268,1.171-1.657,1.703-1.657c0.533,0,0.853,0.195,1.386,0.584
		c0.213,0.196,0.533,0.196,0.853,0.099c0.745-0.292,1.491-0.975,1.491-1.948c0-0.976-0.854-1.754-1.918-1.754
		c-1.172,0-2.344,0.974-3.515,2.825v-2.925c-1.599,0.586-3.411,0.878-5.435,1.17v0.78c1.705,0.293,1.705,0.391,1.705,2.047V58.556
		L352.938,58.556z M304.568,48.713c-1.702,0.39-3.408,1.267-4.367,1.852c-0.641,0.487-0.959,0.877-0.959,1.363
		c0,0.781,1.172,1.365,1.918,1.365c0.533,0,0.958-0.292,1.172-0.779c0.213-0.976,0.426-1.657,0.746-2.047
		c0.318-0.292,0.744-0.487,1.277-0.487c0.106,0,0.106,0,0.213,0V48.713L304.568,48.713L304.568,48.713z M304.568,54.073
		c-1.172,0.39-2.558,0.779-3.303,1.17c-1.599,0.584-2.345,1.559-2.345,3.021c0,1.754,1.601,3.606,4.05,3.606
		c0.426,0,0.959-0.195,1.598-0.585v-1.56c-0.853,0-1.812-0.78-1.812-2.046c0-1.073,0.427-1.657,1.279-2.145
		c0.213-0.099,0.319-0.195,0.53-0.292v-1.17H304.568L304.568,54.073z M278.146,61.285L278.146,61.285v-1.56
		c0.642,0,1.279-0.292,1.813-0.683v-4.581c-0.427,0.196-1.277,0.585-1.813,0.78v-1.171c0.746-0.292,1.492-0.584,1.813-0.877v-0.682
		c0-1.56-0.854-2.339-1.813-2.534v-1.267c0.215-0.098,0.533-0.098,0.746-0.098c1.387,0,2.56,0.389,3.409,0.974
		c0.96,0.78,1.279,1.852,1.279,3.021v5.36c0,1.267,0.319,1.657,0.853,1.657c0.318,0,0.64-0.098,0.959-0.195l0.426,0.977
		l-3.303,1.461c-0.64,0-1.279-0.195-1.599-0.585c-0.426-0.391-0.746-0.78-0.853-1.072C279.532,60.603,278.788,60.993,278.146,61.285
		L278.146,61.285z M288.589,58.556L288.589,58.556c0,1.754-0.213,1.854-1.917,2.047v0.976h7.885v-0.976
		c-2.133-0.193-2.346-0.293-2.346-2.144v-5.166c0.533-1.268,1.173-1.657,1.704-1.657c0.534,0,0.854,0.195,1.385,0.584
		c0.214,0.196,0.534,0.196,0.853,0.099c0.746-0.292,1.492-0.975,1.492-1.948c0-0.976-0.853-1.754-1.918-1.754
		c-1.17,0-2.343,0.974-3.516,2.825v-2.925c-1.6,0.586-3.41,0.878-5.434,1.17v0.78c1.705,0.293,1.812,0.391,1.812,2.047V58.556
		L288.589,58.556z M278.146,48.713c-1.703,0.39-3.516,1.267-4.367,1.852c-0.745,0.487-1.063,0.877-1.063,1.363
		c0,0.781,1.171,1.365,1.916,1.365c0.64,0,1.063-0.292,1.173-0.779c0.213-0.976,0.532-1.657,0.853-2.047
		c0.319-0.292,0.745-0.487,1.172-0.487c0.106,0,0.213,0,0.319,0v-1.267H278.146L278.146,48.713z M278.146,54.073
		c-1.17,0.39-2.557,0.779-3.408,1.17c-1.491,0.584-2.236,1.559-2.236,3.021c0,1.754,1.598,3.606,4.049,3.606
		c0.426,0,0.957-0.195,1.598-0.585v-1.56c-0.959,0-1.812-0.78-1.812-2.046c0-1.073,0.427-1.657,1.279-2.145
		c0.104-0.099,0.319-0.195,0.53-0.292V54.073L278.146,54.073L278.146,54.073z M247.359,61.285L247.359,61.285v-1.56
		c0.64,0,1.277-0.292,1.811-0.683v-4.581c-0.427,0.196-1.171,0.585-1.811,0.78v-1.171c0.852-0.292,1.49-0.584,1.811-0.877v-0.682
		c0-1.56-0.854-2.339-1.811-2.534v-1.267c0.211-0.098,0.531-0.098,0.744-0.098c1.387,0,2.558,0.389,3.408,0.974
		c0.959,0.78,1.278,1.852,1.278,3.021v5.36c0,1.267,0.429,1.657,0.854,1.657s0.746-0.098,0.959-0.195l0.424,0.977l-3.303,1.461
		c-0.639,0-1.17-0.195-1.597-0.585c-0.426-0.391-0.746-0.78-0.853-1.072C248.743,60.603,247.999,60.993,247.359,61.285
		L247.359,61.285z M257.48,58.556L257.48,58.556c0,1.754-0.215,1.854-1.92,2.047l-0.105,0.976h7.031v-0.976
		c-1.172-0.193-1.385-0.293-1.385-2.047v-6.823c0.64-0.778,1.598-1.071,2.45-1.071c1.171,0,2.13,0.877,2.13,2.826v5.068
		c0,1.754-0.104,1.854-1.49,2.047v0.976h6.924v-0.976c-1.598-0.193-1.704-0.293-1.704-2.047v-5.555c0-2.826-1.49-4.385-4.263-4.385
		c-1.596,0-3.086,0.876-4.047,1.754v-8.968c-1.705,0.391-3.729,0.78-5.434,0.976v0.877c1.813,0.194,1.813,0.194,1.813,1.851V58.556
		L257.48,58.556z M247.359,48.713c-1.705,0.39-3.41,1.267-4.369,1.852c-0.746,0.487-1.065,0.877-1.065,1.363
		c0,0.781,1.173,1.365,1.918,1.365c0.64,0,1.065-0.292,1.173-0.779c0.213-0.976,0.532-1.657,0.854-2.047
		c0.318-0.292,0.744-0.487,1.277-0.487c0,0,0.105,0,0.213,0V48.713L247.359,48.713L247.359,48.713z M247.359,54.073
		c-1.174,0.39-2.558,0.779-3.41,1.17c-1.49,0.584-2.236,1.559-2.236,3.021c0,1.754,1.598,3.606,4.048,3.606
		c0.427,0,0.96-0.195,1.599-0.585v-1.56c-0.854,0-1.812-0.78-1.812-2.046c0-1.073,0.427-1.657,1.278-2.145
		c0.107-0.099,0.318-0.195,0.533-0.292V54.073L247.359,54.073L247.359,54.073z M192.172,61.871L192.172,61.871v-1.269
		c0.107,0.099,0.214,0.099,0.321,0.099c1.171,0,2.449-0.877,2.449-4.874c0-3.509-0.959-5.848-2.771-6.042v-1.169h0.107
		c4.154,0,6.605,3.021,6.605,6.335C198.885,59.628,195.581,61.871,192.172,61.871L192.172,61.871z M202.293,58.556L202.293,58.556
		c0,1.657-0.213,1.854-1.704,2.047v0.976h7.777v-0.976c-2.132-0.193-2.45-0.39-2.45-2.047V50.37h2.876
		c0.426-0.293,0.534-1.073,0.426-1.462h-3.302v-0.684c-0.107-2.631,0-3.8,0.105-4.287c0.107-0.488,0.428-0.779,1.064-0.779
		c0.746,0,1.918,0.681,2.45,1.267c0.319,0.194,0.64,0.194,1.065,0c0.319-0.292,0.64-0.586,0.854-0.976
		c0.105-0.292,0.105-0.683-0.214-0.975c-0.532-0.585-1.386-1.072-2.771-1.072c-1.279,0.099-2.343,0.585-3.517,1.463
		c-1.597,1.268-2.13,2.632-2.343,3.41c-0.215,0.584-0.32,1.464-0.32,2.146v0.488h-1.172l-0.852,1.071l0.106,0.391h1.917v8.185
		H202.293z M217.527,43.255L217.527,43.255v0.975c2.345,0.195,2.557,0.487,2.345,3.898l-0.425,5.945
		c-0.215,2.533-0.428,4.093-0.641,4.971c-0.107,1.072-0.639,1.366-2.024,1.56v0.976h6.926v-0.976
		c-1.919-0.193-2.558-0.487-2.664-1.657c-0.106-0.78-0.106-2.241,0-4.58l0.319-7.506h0.105l5.541,14.328h1.065l6.071-14.717h0.106
		v11.013c0,2.729-0.106,2.926-2.344,3.119v0.976h8.522v-0.976c-2.132-0.193-2.345-0.39-2.451-3.119l-0.211-10.232
		c0-2.631,0.104-2.826,2.344-3.021v-0.975h-6.073l-5.327,12.377l-5.221-12.377L217.527,43.255L217.527,43.255z M192.172,48.616
		c-3.303,0-6.818,2.437-6.818,6.919c0,3.118,2.344,6.335,6.818,6.335v-1.269c-1.704-0.293-2.663-2.729-2.663-6.141
		c0-3.118,1.065-4.678,2.344-4.678c0.105,0,0.212,0,0.319,0V48.616L192.172,48.616L192.172,48.616z M138.051,61.285L138.051,61.285
		v-1.56c0.641,0,1.279-0.292,1.811-0.683v-4.581c-0.426,0.196-1.17,0.585-1.811,0.78v-1.171c0.853-0.292,1.492-0.584,1.811-0.877
		v-0.682c0-1.56-0.852-2.339-1.811-2.534v-1.267c0.215-0.098,0.532-0.098,0.746-0.098c1.385,0,2.557,0.389,3.41,0.974
		c0.959,0.78,1.277,1.852,1.277,3.021v5.36c0,1.267,0.427,1.657,0.854,1.657c0.425,0,0.745-0.098,0.957-0.195l0.428,0.977
		l-3.304,1.461c-0.638,0-1.172-0.195-1.598-0.585c-0.427-0.391-0.64-0.78-0.852-1.072C139.436,60.603,138.691,60.993,138.051,61.285
		L138.051,61.285z M148.492,58.556L148.492,58.556c0,1.754-0.213,1.854-2.023,2.047v0.976h7.137v-0.976
		c-1.277-0.193-1.491-0.293-1.491-2.047v-6.725c0.854-0.683,1.704-1.072,2.45-1.072c1.277,0,2.025,0.779,2.025,2.631v5.165
		c0,1.754-0.106,1.854-1.493,2.047v0.976h6.819v-0.976c-1.491-0.193-1.704-0.293-1.704-2.047V52.61c0-2.339-1.277-3.995-3.942-3.995
		c-0.854,0-1.598,0.292-2.451,0.778c-0.533,0.391-1.17,0.78-1.704,1.072v-1.851c-1.491,0.389-3.302,0.778-5.221,0.974v0.877
		c1.599,0.293,1.599,0.293,1.599,2.047L148.492,58.556L148.492,58.556z M165.006,58.556L165.006,58.556
		c0,1.754-0.214,1.854-2.131,2.047v0.976h7.777v-0.976c-1.811-0.193-2.024-0.293-2.024-2.047V55.34c0.106,0,0.214,0,0.318,0
		c0.214,0,0.534,0.097,0.853,0.779c1.279,1.948,2.559,3.801,3.835,5.458h4.901v-0.976c-1.171-0.193-1.49-0.487-2.236-1.266
		c-1.173-1.269-3.624-4.679-4.263-5.75c0.959-1.17,1.598-1.755,2.132-2.339c0.852-0.877,1.491-1.17,3.408-1.561v-0.974l-5.965,0.292
		v0.975c1.171,0.098,1.171,0.292,0.746,0.975c-0.427,0.584-1.173,1.755-1.919,2.339c-0.425,0.584-0.958,0.877-1.811,0.974V41.403
		c-1.599,0.391-3.836,0.78-5.433,0.976v0.877c1.703,0.194,1.811,0.194,1.811,1.851L165.006,58.556L165.006,58.556z M122.711,61.48
		L122.711,61.48c1.917-0.097,3.622-0.39,4.9-1.07c1.492-0.878,2.663-2.244,2.663-4.192c0-2.729-2.345-4.386-5.326-4.775
		c1.916-0.39,4.155-1.559,4.155-4.094c0-1.365-0.641-2.438-1.6-3.118c-1.065-0.683-2.556-0.975-4.793-0.975v1.267
		c1.384,0.292,2.45,1.268,2.45,3.218c0,1.851-0.854,2.825-2.45,3.215v1.56c2.022,0.389,3.303,1.657,3.303,3.898
		c0,2.631-1.6,3.801-3.303,3.997L122.711,61.48L122.711,61.48z M138.051,48.713c-1.705,0.39-3.409,1.267-4.367,1.852
		c-0.745,0.487-1.065,0.877-1.065,1.363c0,0.781,1.172,1.365,1.917,1.365c0.64,0,1.064-0.292,1.172-0.779
		c0.215-0.976,0.533-1.657,0.854-2.047c0.319-0.292,0.745-0.487,1.278-0.487c0,0,0.106,0,0.212,0L138.051,48.713L138.051,48.713
		L138.051,48.713z M138.051,54.073c-1.171,0.39-2.556,0.779-3.409,1.17c-1.491,0.584-2.236,1.559-2.236,3.021
		c0,1.754,1.599,3.606,4.048,3.606c0.427,0,0.959-0.195,1.598-0.585v-1.56c-0.851,0-1.811-0.78-1.811-2.046
		c0-1.073,0.427-1.657,1.277-2.145c0.107-0.099,0.321-0.195,0.533-0.292V54.073L138.051,54.073L138.051,54.073z M116.637,57.874
		V46.86c0-2.24-0.319-2.436-2.236-2.63v-0.975h8.203h0.107v1.267c-0.213-0.097-0.533-0.097-0.854-0.097
		c-0.745,0-1.064,0.097-1.278,0.292c-0.213,0.097-0.213,0.488-0.213,1.267v5.166h0.746c0.639,0,1.172-0.097,1.599-0.194v1.56
		c-0.427-0.098-1.066-0.195-1.706-0.195h-0.639v5.556c0,1.852,0.319,2.535,1.812,2.535c0.214,0,0.426,0,0.533,0v1.07
		c-0.427,0-0.96,0.099-1.493,0.099h-7.031v-0.976C116.317,60.409,116.637,60.213,116.637,57.874L116.637,57.874z"/>
	<path fill="#FFFFFF" d="M154.923,11.645h3.605V8.752h-3.605V11.645L154.923,11.645z M340.204,37.301l2.398,0.965l4.105-3.789
		l3.895,3.789l2.407-0.965l-4.701-4.429h-3.199L340.204,37.301L340.204,37.301z M325.319,19.358h-0.808h-2.394v10.285v3.219h-3.601
		v-3.219V19.358h-2.398h-0.808h-3.031c0.998,0.482,1.599,1.575,1.599,2.893c0,2.764-2.199,5.046-5.198,5.463
		c0.599,1.351,1.878,2.25,3.199,2.25c0.76,0.033,1.439-0.097,1.999-0.32v2.893c-0.56,0.225-1.239,0.326-1.999,0.326
		c-2.681,0-5.399-2.063-6.801-5.147c-0.438-0.064-1.12-0.321-2-0.803l1.2-2.411c0.88,0.417,1.721,0.643,2.398,0.643
		c2.002,0.032,3.602-1.285,3.602-2.892c0.04-1.607-1.6-2.893-3.602-2.893h-3.759h-0.808h-2.394v10.285v3.219h-3.6v-3.219V19.358
		h-2.399h-0.808h-2.033v3.857h-7.199c-0.44,0-0.799,0.289-0.799,0.642c-0.042,0.546,0.519,0.965,1.199,0.965
		c0.72-0.226,1.399-0.321,1.999-0.321c3.078,0,5.601,1.864,5.601,4.179c0,1.061-0.561,2.217-1.6,3.213l-2.802-1.606
		c0.521-0.482,0.801-1.062,0.801-1.606c0.04-0.708-0.881-1.286-2-1.286c-1.999,0-3.6,1.157-3.6,2.571c0,1.768,2.319,3.22,5.198,3.22
		h3.2v2.57h-3.2c-4.879,0-8.798-2.731-8.798-6.11c-0.04-1.35,0.719-2.667,1.999-3.536c-1.28-0.867-1.999-1.8-1.999-2.57
		c0-1.607,1.799-2.894,4-2.894h4.396v-1.285h-9.998h-0.807h-2.394v10.285v3.219h-3.601v-3.219V28.68h-5.197
		c0.037,1.061-1.241,1.928-2.803,1.928c-1.76,0-3.199-1.156-3.199-2.569c0-1.254,1.08-2.25,2.4-2.25v-6.428h-3.807v-2.57h18.599
		h0.806h15.633h0.809h8.393h0.808h12.393h0.808h8.393h0.808h28.64v2.57h-3.4v4.499h-4.801c-2.199,0-3.999,1.157-3.999,2.572
		c0,1.959,2.318,3.534,5.2,3.534c1.479,0,2.959-0.45,4.2-1.285l1.799,2.41c-2,1.157-4.12,1.773-5.999,1.773
		c-3.84,0-7.239-1.806-8.4-4.506c-1.158,1.222-3,1.929-4.999,1.929c-3.88-0.032-7-2.893-7-6.428v-4.499h-1.238V19.358z
		 M338.398,25.046c0.881-2.41,3.88-4.081,7.358-4.081h1.201v-1.607h-16.001L338.398,25.046L338.398,25.046z M330.159,23.857
		c-0.04,1.864,1.6,3.375,3.599,3.375c1.201-0.031,2.28-0.579,2.801-1.445l-6.398-4.82L330.159,23.857L330.159,23.857z
		 M265.284,19.358v6.428h5.198v-6.428H265.284L265.284,19.358z M226.246,19.358h1.561v5.464c0,2.827,2.52,5.109,5.6,5.142
		c1.158,0,2.318-0.482,3.199-1.285v0.964v3.219h3.601v-3.219v-4.821c0.64-0.611,1.681-0.965,2.8-0.965
		c1.319,0,2.398,0.996,2.398,2.25c0,1.253-1.079,2.281-2.398,2.25c-0.602,0-1.16-0.097-1.6-0.32v2.892
		c0.439,0.225,0.959,0.354,1.6,0.321c3.319,0,5.998-2.216,5.998-4.98c0-2.764-2.679-5.014-5.998-4.98
		c-1.201,0-2.199,0.225-2.8,0.643v-2.571h10.479v-2.57h-24.438h-0.606h-8.593h-0.809h-7.991v2.57h1.999v3.535h-3.199v2.894h3.199
		v3.856v3.219h3.601v-3.219V19.358h2.393h0.809h2.399v10.285v3.219h3.6v-3.219V19.358h2.593H226.246L226.246,19.358z
		 M231.404,24.822v-5.464h5.199v5.464c-0.799,1.382-2.039,2.281-3.199,2.25C232.284,27.072,231.365,26.076,231.404,24.822
		L231.404,24.822z M215.238,9.396c0,2.828,2.88,5.109,6.4,5.143c3.52,0,6.365-2.314,6.404-5.143h-3.206
		c0,1.414-1.438,2.57-3.198,2.57c-1.761,0-3.199-1.157-3.199-2.57H215.238L215.238,9.396z M191.646,25.465
		c0,4.081,3.761,7.396,8.4,7.396c3.759,0,6.8-2.158,6.8-4.825c0-1.769-1.08-3.344-2.8-4.18c1.279-0.867,2.039-2.057,1.999-3.214
		c0-2.313-2.879-4.178-6.399-4.178c-2.521,0-4.761,0.836-6,2.25l2.399,2.25c1.08-1.029,2.4-1.639,3.601-1.607
		c1.561,0,2.84,0.578,2.799,1.285c0,1.061-1.078,1.928-2.398,1.928h-2v2.894h2c1.76,0,3.199,1.156,3.199,2.571
		c0,1.06-1.439,1.927-3.199,1.927c-2.881,0-5.199-2.152-5.199-4.821L191.646,25.465L191.646,25.465z M157.729,19.358h-0.606h-2.593
		v10.285v3.219h-3.6v-3.219v0.32c-1.2,0.835-2.921,1.285-4.801,1.285c-4.198,0-7.599-2.442-7.599-5.463
		c0-2.829,3.4-5.143,7.599-5.143c1.841,0,3.561,0.45,4.801,1.286v-2.571h-14.007v-2.57h13.001c-2.161-1.736-4.321-2.732-6.001-2.732
		c-1.04,0-1.96,0.29-2.601,0.804l-1.798-2.25c1.079-0.738,2.359-1.125,3.599-1.125c2.2,0.033,5.72,1.865,9.799,5.144
		c-2.04-3.535-3.719-5.786-5.199-5.786c-0.519-0.032-1.12,0.161-1.6,0.482l-1.801-2.09c0.682-0.32,1.92-0.481,3.6-0.481
		c2.359,0,5.4,3.214,7.6,8.036h1.601h0.606h25.479v2.57H171.97v1.929c0.759-0.418,1.72-0.644,2.799-0.644
		c3.76,0.032,6.8,2.313,6.8,5.143s-3.04,5.142-6.8,5.142c-0.88,0.032-1.561-0.097-2-0.321v-2.893c0.479,0.226,1.16,0.322,2,0.322
		c1.761,0.031,3.2-0.997,3.2-2.25s-1.439-2.25-3.2-2.25c-1.039,0-2.04,0.225-2.799,0.643v5.464v3.219h-3.6v-3.219v0.803
		c-0.682,0.322-1.641,0.482-2.8,0.482c-3.76-0.032-6.801-2.313-6.801-5.142s3.041-5.143,6.801-5.143c1.159,0,2.118,0.161,2.8,0.482
		v-1.769H157.729L157.729,19.358z M161.969,25.786c-0.041,1.415,1.6,2.57,3.601,2.57c1.239,0,2.199-0.225,2.8-0.643v-4.018
		c-0.682-0.32-1.641-0.48-2.8-0.48C163.568,23.215,161.969,24.372,161.969,25.786L161.969,25.786z M142.13,25.786
		c0,1.511,1.88,2.731,4.2,2.731c1.52,0.032,2.438-0.063,2.799-0.321l-6.399-3.695C142.329,24.79,142.13,25.24,142.13,25.786
		L142.13,25.786z M144.329,23.536l6.201,3.535c0.239-0.226,0.399-0.676,0.399-1.286c-0.041-1.414-2.161-2.57-4.801-2.57
		C145.369,23.183,144.77,23.311,144.329,23.536z"/>
	<path fill="#FFFFFF" d="M186.971,75.066v-1.363h4.484v1.363h-1.495v7.979h-1.494v-3.737h-2.579v0.636
		c0,0.175-0.049,0.324-0.149,0.448c-0.074,0.101-0.186,0.15-0.336,0.15c-0.274,0-0.71-0.287-1.309-0.86
		c-0.597-0.548-0.896-0.966-0.896-1.252c0-0.137,0.049-0.255,0.149-0.354c0.086-0.087,0.206-0.144,0.354-0.168h0.691v-2.635
		c0-0.2-0.063-0.374-0.187-0.522c-0.138-0.15-0.293-0.226-0.468-0.226c-0.1,0-0.192,0.063-0.28,0.188
		c-0.087,0.112-0.131,0.249-0.131,0.411c0,0.174,0.032,0.336,0.094,0.485c0.087,0.125,0.168,0.188,0.243,0.188v1.214
		c-0.498,0-0.928-0.181-1.289-0.542c-0.361-0.387-0.542-0.834-0.542-1.345c0-0.548,0.181-1.021,0.542-1.42
		c0.386-0.387,0.828-0.58,1.326-0.58c0.598,0,1.115,0.206,1.551,0.616c0.424,0.424,0.635,0.935,0.635,1.532v2.634h2.579v-2.84
		L186.971,75.066L186.971,75.066z M192.575,83.043h1.495v-7.979h1.495v-1.363h-4.484v1.363h1.494V83.043L192.575,83.043z
		 M195.191,75.066v-1.363h6.932v1.363h-1.214v1.663c0,0.61-0.15,1.133-0.449,1.569c-0.286,0.449-0.636,0.673-1.046,0.673h-0.448
		c-0.175-0.025-0.256-0.057-0.243-0.094l2.708,3.662l-1.178,0.785l-4.651-6.334l1.251-0.916c0.162,0.448,0.405,0.814,0.729,1.103
		c0.324,0.287,0.647,0.43,0.972,0.43c0.249,0,0.447-0.087,0.598-0.262c0.174-0.199,0.262-0.405,0.262-0.616v-1.663H195.191
		L195.191,75.066z M201.75,75.066h6.52v1.309h-3.399c-0.66,0-1.214,0.211-1.662,0.635c-0.461,0.424-0.69,0.935-0.69,1.532
		c0,0.759,0.268,1.538,0.803,2.335c0.561,0.835,1.302,1.588,2.224,2.261l0.858-1.028c-0.76-0.535-1.344-1.107-1.756-1.719
		c-0.424-0.61-0.635-1.227-0.635-1.85c0.024-0.211,0.111-0.393,0.262-0.542c0.148-0.149,0.349-0.225,0.598-0.225h3.4v5.27h1.494
		v-7.979h1.494v-1.363h-9.509L201.75,75.066L201.75,75.066z M220.545,83.324l-3.998-6.129l1.289-0.858
		c0.262,0.448,0.484,0.804,0.672,1.063c0.188,0.25,0.355,0.374,0.506,0.374c0.174,0,0.336-0.063,0.484-0.187
		c0.139-0.137,0.206-0.298,0.206-0.485v-2.037h-3.587v-1.363h10.648v1.363h-1.494v7.979h-1.496v-4.072h-1.698l-0.599-1.401h2.297
		v-2.504h-2.578v2.093c0,0.535-0.123,1.003-0.372,1.401c-0.237,0.398-0.53,0.592-0.878,0.579c-0.075,0-0.176-0.013-0.301-0.038
		c-0.062-0.013-0.129-0.056-0.205-0.13l2.373,3.568L220.545,83.324L220.545,83.324z M226.393,75.066h4.223v1.663
		c0,0.211-0.086,0.417-0.262,0.616c-0.148,0.174-0.349,0.262-0.598,0.262c-0.324,0-0.648-0.143-0.972-0.43
		c-0.324-0.287-0.567-0.654-0.729-1.103l-1.25,0.916l4.65,6.334l1.178-0.785l-2.709-3.662c-0.012,0.038,0.068,0.068,0.242,0.094
		h0.447c0.412,0,0.762-0.225,1.048-0.673c0.299-0.437,0.448-0.959,0.448-1.569v-1.663h1.215v-1.363h-6.932V75.066L226.393,75.066z
		 M238.089,83.043v-1.999c-0.188,0.163-0.397,0.28-0.636,0.354c-0.236,0.075-0.521,0.106-0.859,0.095
		c-0.785,0-1.476-0.256-2.072-0.768c-0.563-0.521-0.842-1.158-0.842-1.905c0-0.771,0.305-1.444,0.916-2.018
		c0.609-0.548,1.338-0.822,2.186-0.822c0.373,0,0.673,0.051,0.896,0.149l-0.373,1.289c0.198,0.049,0.11,0.038-0.263-0.037
		c-0.149,0-0.34,0-0.569,0s-0.508,0.143-0.832,0.429c-0.336,0.274-0.492,0.611-0.467,1.009c0,0.35,0.145,0.647,0.43,0.896
		c0.25,0.25,0.58,0.374,0.99,0.374c0.262,0,0.529-0.068,0.805-0.206c0.248-0.137,0.479-0.317,0.69-0.542v-4.278h-5.138V73.7h11.396
		v1.363h-4.766v1.606c0.125-0.162,0.33-0.292,0.616-0.393c0.274-0.1,0.586-0.148,0.935-0.148c0.66,0,1.233,0.262,1.719,0.785
		c0.461,0.484,0.705,1.096,0.729,1.831c0,0.548-0.162,1.107-0.485,1.682c-0.337,0.585-0.785,1.115-1.345,1.588l-1.103-1.009
		c0.484-0.424,0.841-0.816,1.063-1.177c0.249-0.387,0.374-0.748,0.374-1.083c0-0.324-0.105-0.61-0.318-0.86
		c-0.197-0.236-0.436-0.354-0.709-0.354c-0.287,0-0.561,0.081-0.822,0.242c-0.248,0.162-0.467,0.393-0.653,0.692v4.577
		L238.089,83.043L238.089,83.043z M245.469,83.043h1.494v-7.979h1.494v-1.363h-4.482v1.363h1.494V83.043L245.469,83.043z
		 M248.084,75.066v-1.363h6.932v1.363h-1.215v1.663c0,0.61-0.148,1.133-0.447,1.569c-0.287,0.449-0.636,0.673-1.047,0.673h-0.449
		c-0.174-0.025-0.254-0.057-0.241-0.094l2.709,3.662l-1.177,0.785l-4.652-6.334l1.252-0.916c0.162,0.448,0.404,0.814,0.729,1.103
		c0.323,0.287,0.647,0.43,0.973,0.43c0.249,0,0.447-0.087,0.598-0.262c0.174-0.199,0.262-0.405,0.262-0.616v-1.663H248.084
		L248.084,75.066z M265.012,83.043v-1.999c-0.188,0.163-0.398,0.28-0.636,0.354c-0.237,0.075-0.522,0.106-0.858,0.095
		c-0.785,0-1.477-0.256-2.074-0.768c-0.561-0.521-0.842-1.158-0.842-1.905c0-0.771,0.307-1.444,0.916-2.018
		c0.609-0.548,1.34-0.822,2.187-0.822c0.374,0,0.673,0.051,0.897,0.149l-0.375,1.289c0.199,0.049,0.112,0.038-0.262-0.037
		c-0.148,0-0.34,0-0.57,0c-0.229,0-0.506,0.143-0.83,0.429c-0.336,0.274-0.492,0.611-0.467,1.009c0,0.35,0.144,0.647,0.428,0.896
		c0.25,0.25,0.58,0.374,0.992,0.374c0.262,0,0.528-0.068,0.803-0.206c0.25-0.137,0.479-0.317,0.691-0.542v-4.278h-5.139V73.7h11.396
		v1.363h-4.765v1.606c0.125-0.162,0.33-0.292,0.616-0.393c0.273-0.1,0.586-0.148,0.936-0.148c0.659,0,1.232,0.262,1.719,0.785
		c0.461,0.484,0.703,1.096,0.729,1.831c0,0.548-0.163,1.107-0.486,1.682c-0.336,0.585-0.785,1.115-1.345,1.588l-1.103-1.009
		c0.484-0.424,0.841-0.816,1.063-1.177c0.249-0.387,0.374-0.748,0.374-1.083c0-0.324-0.105-0.61-0.318-0.86
		c-0.197-0.236-0.436-0.354-0.709-0.354c-0.287,0-0.561,0.081-0.821,0.242c-0.249,0.162-0.468,0.393-0.654,0.692v4.577
		L265.012,83.043L265.012,83.043z M272.393,83.043h1.493v-7.979h1.495v-1.363h-4.484v1.363h1.496V83.043L272.393,83.043z
		 M286.161,83.043c-1.172,0-2.263-0.535-3.271-1.606c-1.009-1.083-1.719-2.466-2.129-4.146l1.325-0.523
		c0.41,1.445,0.99,2.622,1.737,3.531c0.771,0.91,1.551,1.358,2.336,1.345c0.349,0,0.652-0.143,0.915-0.43
		c0.262-0.324,0.38-0.678,0.354-1.064c0-0.424-0.145-0.778-0.431-1.065c-0.261-0.298-0.597-0.448-1.009-0.448h-1.531l-0.505-1.401
		h1.868c0.312,0,0.592-0.093,0.841-0.279c0.224-0.2,0.336-0.437,0.336-0.71c0-0.149-0.05-0.324-0.149-0.522
		c-0.123-0.212-0.272-0.43-0.447-0.654h-6.165v-1.363h9.696v1.363h-1.737c0.175,0.324,0.272,0.717,0.299,1.178
		c0,0.398-0.074,0.748-0.224,1.047c-0.125,0.286-0.318,0.492-0.58,0.616c0.387,0.225,0.686,0.535,0.896,0.934
		c0.225,0.424,0.336,0.859,0.336,1.309c0,0.797-0.268,1.481-0.804,2.056C287.587,82.764,286.934,83.043,286.161,83.043
		L286.161,83.043z M297.445,83.043h1.494v-7.979h1.494v-1.363h-10.873v1.363h4.354V75.7h-1.551c-0.61,0.024-1.108,0.218-1.494,0.578
		c-0.411,0.374-0.616,0.816-0.616,1.327c0,0.312,0.117,0.604,0.354,0.878c0.235,0.287,0.541,0.492,0.914,0.617
		c-0.137,0.101-0.26,0.269-0.373,0.504c-0.088,0.175-0.131,0.387-0.131,0.636c0,0.609,0.299,1.134,0.896,1.568
		c0.586,0.423,1.302,0.636,2.148,0.636c0.746,0,1.4-0.111,1.961-0.337c0.586-0.224,1.06-0.554,1.421-0.989L297.445,83.043
		L297.445,83.043z M294.045,81.044c-0.424,0.012-0.785-0.063-1.084-0.225c-0.298-0.161-0.447-0.354-0.447-0.578
		c-0.013-0.237,0.105-0.455,0.354-0.654c0.224-0.188,0.504-0.281,0.841-0.281h1.346l-0.505-1.027h-2.036
		c-0.225,0-0.404-0.068-0.543-0.205c-0.147-0.124-0.224-0.28-0.224-0.468c-0.024-0.125,0.03-0.243,0.168-0.354
		c0.125-0.101,0.269-0.149,0.431-0.149h3.063v-2.037h2.037v4.409c-0.387,0.486-0.891,0.878-1.514,1.177
		C295.359,80.914,294.73,81.044,294.045,81.044L294.045,81.044z M300.061,75.066v-1.363h8.987v1.363h-1.495v7.979h-1.494v-3.737
		h-2.877v0.936c0,0.111-0.043,0.198-0.131,0.262c-0.074,0.075-0.175,0.112-0.3,0.112c-0.248,0-0.672-0.3-1.271-0.897
		c-0.623-0.572-0.935-0.983-0.935-1.233c0-0.161,0.037-0.299,0.112-0.41c0.074-0.112,0.174-0.168,0.299-0.168h0.729v-2.841
		L300.061,75.066L300.061,75.066z M303.182,77.906h2.877v-2.841h-2.877V77.906z"/>
	<g>
		<path fill="#FFFFFF" d="M171.486,108.084c0.283-1.58,0.808-2.842,1.575-3.786c0.757-0.945,1.632-1.417,2.626-1.417
			c0.342,0,0.611,0.046,0.808,0.139c0.209,0.093,0.309,0.216,0.303,0.372c-0.014,0.078-0.059,0.178-0.134,0.302
			c-0.245,0.294-0.443,0.539-0.596,0.732c-0.152,0.193-0.335,0.584-0.547,1.173c-0.252,0.635-0.436,1.332-0.55,2.09
			c-0.172,0.96-0.096,1.789,0.229,2.486c0.327,0.681,0.811,1.021,1.452,1.021c1.304,0,2.342-0.278,3.115-0.836
			c-0.146,0.821-0.648,1.534-1.504,2.138c-0.854,0.589-1.819,0.883-2.899,0.883c-1.464,0-2.549-0.48-3.253-1.44
			C171.409,110.965,171.201,109.68,171.486,108.084L171.486,108.084z M171.922,101.348h11.157l-0.199,1.115h-11.157L171.922,101.348
			L171.922,101.348z M178.479,109.315c0.71,0.031,1.375-0.247,1.993-0.836c0.618-0.588,0.999-1.285,1.144-2.09
			c0.161-0.961,0.036-1.789-0.373-2.486c-0.401-0.681-0.972-1.021-1.709-1.021c-0.448,0-0.839,0.062-1.171,0.186
			c-0.306,0.094-0.486,0.24-0.544,0.442c-0.025,0.077-0.006,0.154,0.055,0.232c0.042,0.062,0.127,0.093,0.256,0.093
			c0.235,0,0.401,0.177,0.498,0.534c0.108,0.341,0.119,0.767,0.027,1.277c-0.083,0.464-0.29,0.875-0.621,1.231
			c-0.317,0.341-0.669,0.511-1.053,0.511c-0.075,0-0.185-0.015-0.328-0.046c-0.072-0.016-0.173-0.023-0.301-0.023
			c-0.161,0-0.276,0.023-0.349,0.07c-0.046,0.016-0.085,0.085-0.118,0.209c-0.078,0.435,0.156,0.828,0.702,1.186
			C177.122,109.137,177.753,109.315,178.479,109.315L178.479,109.315z M187.475,110.918c-0.809,0.759-1.698,1.161-2.669,1.208
			c-1.004,0-1.74-0.364-2.208-1.092c-0.487-0.744-0.62-1.704-0.399-2.881c0.222-1.238,0.691-2.222,1.409-2.95
			c0.731-0.743,1.589-1.114,2.571-1.114c0.642,0,1.153,0.186,1.536,0.557c0.379,0.388,0.519,0.836,0.416,1.348l-0.604-0.116
			c-0.075,0-0.214,0-0.416,0c-0.203,0-0.476,0.209-0.818,0.627c-0.35,0.403-0.576,0.891-0.678,1.464
			c-0.095,0.526-0.035,0.968,0.18,1.323c0.182,0.355,0.468,0.55,0.857,0.581c0.268,0,0.524-0.094,0.771-0.278
			c0.089-0.496,0.294-1.224,0.614-2.184c0.322-0.96,0.53-1.703,0.624-2.229c0.061-0.341,0.052-0.62-0.026-0.836
			c-0.065-0.232-0.173-0.349-0.323-0.349c-0.128,0-0.22-0.023-0.276-0.069c-0.066-0.047-0.096-0.116-0.091-0.209
			c0.063-0.233,0.257-0.418,0.581-0.558c0.332-0.124,0.723-0.187,1.171-0.187c0.62,0,1.136,0.194,1.548,0.581
			c0.4,0.387,0.642,0.898,0.72,1.533c0.813-0.666,1.707-0.999,2.68-0.999c0.962,0,1.667,0.354,2.117,1.068
			c0.436,0.728,0.56,1.68,0.37,2.856c-0.172,0.96-0.587,1.789-1.246,2.485c-0.666,0.682-1.374,1.021-2.122,1.021
			c-0.385,0-0.692-0.132-0.924-0.395c-0.228-0.279-0.347-0.627-0.357-1.045c0.278,0,0.556-0.179,0.833-0.534
			c0.277-0.356,0.461-0.783,0.549-1.278c0.094-0.525,0.036-0.976-0.176-1.347c-0.211-0.372-0.516-0.55-0.914-0.534
			c-0.32,0-0.634,0.108-0.939,0.325c-0.064,0.355-0.211,0.875-0.439,1.556c-0.229,0.62-0.378,1.13-0.45,1.533
			c-0.058,0.325-0.047,0.619,0.035,0.883c0.072,0.247,0.206,0.372,0.397,0.372h0.24c0.054,0,0.104,0.023,0.148,0.069
			c0.034,0.047,0.048,0.116,0.043,0.209c-0.092,0.449-0.34,0.821-0.745,1.115c-0.387,0.31-0.848,0.464-1.381,0.464
			c-0.569-0.046-1.052-0.248-1.447-0.604C187.845,111.986,187.591,111.522,187.475,110.918L187.475,110.918z M182.758,101.348
			l-0.199,1.115h16.19l0.199-1.115H182.758L182.758,101.348z M205.891,111.661c-1.08,0-1.898-0.294-2.457-0.883
			c-0.543-0.604-0.727-1.401-0.55-2.393c0.062-0.341,0.195-0.852,0.402-1.533s0.339-1.177,0.396-1.486
			c0.065-0.372,0.063-0.721-0.007-1.046c-0.062-0.31-0.188-0.557-0.38-0.743c0.073-0.232,0.284-0.396,0.632-0.487
			c0.281-0.077,0.722-0.116,1.32-0.116c0.662,0,1.147,0.178,1.459,0.535c0.331,0.355,0.442,0.843,0.331,1.463
			c-0.089,0.495-0.229,1.068-0.419,1.719c-0.197,0.682-0.339,1.263-0.425,1.742c-0.068,0.387-0.008,0.735,0.183,1.045
			c0.167,0.264,0.423,0.411,0.771,0.441c0.332,0,0.677-0.109,1.035-0.325c0.09-0.496,0.295-1.224,0.615-2.184
			c0.321-0.96,0.529-1.703,0.623-2.229c0.055-0.294,0.047-0.558-0.02-0.79c-0.064-0.231-0.168-0.341-0.311-0.325
			c-0.128,0-0.214-0.03-0.256-0.093c-0.061-0.078-0.072-0.163-0.034-0.255c0.027-0.217,0.216-0.403,0.564-0.558
			c0.331-0.124,0.717-0.187,1.155-0.187c0.845,0,1.469,0.302,1.873,0.905s0.516,1.425,0.33,2.462
			c-0.084,0.465-0.242,1.022-0.477,1.673c-0.234,0.651-0.393,1.208-0.477,1.672c-0.063,0.356-0.047,0.658,0.047,0.906
			c0.067,0.278,0.197,0.418,0.391,0.418c0.118,0,0.232-0.023,0.35-0.07c0.183-0.062,0.315-0.093,0.4-0.093
			c0.033,0,0.061,0.023,0.084,0.07s0.029,0.101,0.02,0.163c-0.078,0.434-0.399,0.858-0.965,1.277
			c-0.574,0.402-1.123,0.604-1.647,0.604c-0.534,0-0.995-0.17-1.384-0.511c-0.394-0.372-0.664-0.853-0.815-1.44
			C207.547,111.413,206.76,111.63,205.891,111.661L205.891,111.661z M203.116,101.348h11.991l-0.199,1.115h-11.991L203.116,101.348
			L203.116,101.348z M221.287,95.564c1.828,0,3.607,0.774,5.34,2.322c0.372,0.31,0.63,0.512,0.773,0.604
			c0.211,0.139,0.386,0.209,0.523,0.209c0.074,0,0.124,0.022,0.146,0.069c0.046,0.046,0.055,0.116,0.027,0.209
			c-0.089,0.435-0.445,0.875-1.07,1.324c-0.646,0.449-1.248,0.674-1.805,0.674c-0.31,0-0.643-0.139-0.998-0.418
			c-0.316-0.263-0.656-0.666-1.02-1.208c-0.288-0.479-0.643-0.858-1.063-1.138c-0.381-0.263-0.773-0.396-1.181-0.396
			c-0.438,0-0.854,0.155-1.253,0.466c-0.391,0.324-0.623,0.704-0.701,1.138c-0.02,0.107-0.013,0.224,0.018,0.349
			c0.037,0.154,0.048,0.278,0.031,0.371c-0.029,0.217-0.207,0.403-0.533,0.559c-0.315,0.154-0.662,0.231-1.035,0.231
			c-0.588,0-1.033-0.139-1.336-0.418c-0.301-0.294-0.409-0.666-0.329-1.115c0.208-1.161,0.807-2.09,1.797-2.787
			C218.645,95.913,219.866,95.564,221.287,95.564L221.287,95.564z M214.786,101.348l-0.199,1.115h6.444l0.199-1.115H214.786
			L214.786,101.348z M215.592,105.181c0.057-0.31,0.045-0.573-0.035-0.79c-0.063-0.231-0.179-0.341-0.342-0.325
			c-0.128,0-0.214-0.03-0.257-0.093c-0.062-0.078-0.071-0.163-0.034-0.255c0.028-0.217,0.217-0.403,0.564-0.558
			c0.332-0.124,0.718-0.187,1.154-0.187c0.846,0,1.471,0.302,1.875,0.905c0.403,0.604,0.516,1.425,0.328,2.462
			c-0.056,0.31-0.215,0.875-0.479,1.696c-0.24,0.742-0.391,1.292-0.455,1.648c-0.066,0.372-0.057,0.673,0.029,0.906
			c0.09,0.278,0.22,0.418,0.391,0.418c0.118,0,0.234-0.023,0.35-0.07c0.182-0.062,0.316-0.093,0.401-0.093
			c0.032,0,0.062,0.023,0.083,0.07c0.023,0.047,0.029,0.101,0.02,0.163c-0.076,0.434-0.398,0.858-0.966,1.277
			c-0.573,0.402-1.122,0.604-1.646,0.604c-0.781,0-1.383-0.396-1.809-1.186c-0.418-0.773-0.519-1.702-0.304-2.787
			c0.104-0.526,0.321-1.255,0.647-2.184C215.382,106.001,215.542,105.459,215.592,105.181L215.592,105.181z M223.527,108.851
			c0.089,0.464,0.287,0.813,0.6,1.045c0.329,0.248,0.725,0.372,1.184,0.372c0.258,0,0.537-0.108,0.844-0.325
			c0.076-0.062,0.131-0.101,0.166-0.115c0.022-0.017,0.047-0.023,0.068-0.023c0.053,0,0.084,0.063,0.094,0.187
			c0.011,0.124,0,0.271-0.029,0.44c-0.125,0.697-0.479,1.293-1.059,1.789c-0.58,0.495-1.223,0.743-1.929,0.743
			c-0.62,0-1.164-0.216-1.631-0.65c-0.487-0.434-0.841-1.038-1.056-1.813c-0.122-0.388-0.25-0.696-0.379-0.93
			c-0.117-0.231-0.244-0.363-0.377-0.395c-0.08-0.031-0.135-0.055-0.164-0.07c-0.035-0.046-0.047-0.101-0.035-0.163
			c0.015-0.076,0.064-0.153,0.154-0.231c0.066-0.077,0.144-0.116,0.229-0.116c0.945-0.263,1.758-0.65,2.438-1.162
			c0.619-0.479,0.979-1.021,1.076-1.626c0.086-0.479,0.025-0.896-0.178-1.254c-0.206-0.341-0.504-0.527-0.895-0.558
			c-0.106,0-0.197-0.031-0.271-0.094c-0.074-0.062-0.104-0.107-0.088-0.139c0.045-0.248,0.284-0.449,0.718-0.604
			c0.435-0.155,0.938-0.232,1.517-0.232c0.822,0,1.48,0.294,1.975,0.883c0.499,0.619,0.669,1.339,0.512,2.16
			c-0.121,0.682-0.515,1.293-1.178,1.835C225.154,108.363,224.387,108.711,223.527,108.851L223.527,108.851z M220.91,101.348h7.808
			l-0.2,1.115h-7.807L220.91,101.348L220.91,101.348z M228.396,101.348l-0.199,1.115h11.604l0.2-1.115H228.396L228.396,101.348z
			 M233.161,111.011c-0.888,0.835-1.802,1.254-2.742,1.254c-1.004,0-1.739-0.364-2.209-1.092c-0.487-0.744-0.619-1.703-0.397-2.88
			c0.207-1.225,0.688-2.207,1.44-2.95c0.731-0.744,1.604-1.115,2.62-1.115c0.609,0,1.098,0.201,1.463,0.604
			c0.361,0.371,0.492,0.836,0.393,1.393l-0.48-0.093c-0.107-0.046-0.186-0.069-0.229-0.069c-0.406,0-0.776,0.194-1.112,0.581
			c-0.351,0.402-0.576,0.891-0.681,1.463c-0.094,0.527-0.033,0.969,0.182,1.324c0.183,0.356,0.468,0.55,0.857,0.581
			c0.289,0,0.557-0.093,0.803-0.279c0.105-0.588,0.31-1.34,0.611-2.253c0.327-0.99,0.539-1.757,0.637-2.299
			c0.053-0.294,0.047-0.558-0.02-0.79c-0.064-0.231-0.169-0.341-0.311-0.325c-0.129,0-0.215-0.03-0.256-0.093
			c-0.063-0.078-0.073-0.163-0.035-0.255c0.027-0.217,0.217-0.403,0.563-0.558c0.332-0.124,0.718-0.187,1.155-0.187
			c0.845,0,1.47,0.302,1.874,0.905c0.405,0.604,0.515,1.425,0.33,2.462c-0.058,0.31-0.216,0.875-0.479,1.696
			c-0.24,0.742-0.392,1.292-0.455,1.648c-0.066,0.372-0.058,0.673,0.029,0.906c0.089,0.278,0.219,0.418,0.391,0.418
			c0.117,0,0.233-0.023,0.35-0.07c0.182-0.062,0.316-0.093,0.4-0.093c0.032,0,0.062,0.023,0.084,0.07
			c0.023,0.047,0.029,0.101,0.02,0.163c-0.077,0.434-0.398,0.858-0.966,1.277c-0.574,0.402-1.123,0.604-1.646,0.604
			c-0.372-0.017-0.846-0.201-1.423-0.558C233.533,112.064,233.279,111.6,233.161,111.011L233.161,111.011z M240.486,105.181
			c0.057-0.31,0.045-0.573-0.034-0.79c-0.065-0.231-0.181-0.341-0.343-0.325c-0.129,0-0.213-0.03-0.256-0.093
			c-0.062-0.078-0.072-0.163-0.035-0.255c0.029-0.217,0.217-0.403,0.564-0.558c0.332-0.124,0.719-0.187,1.155-0.187
			c0.844,0,1.469,0.302,1.875,0.905c0.403,0.604,0.514,1.425,0.328,2.462c-0.056,0.31-0.216,0.875-0.479,1.696
			c-0.24,0.742-0.392,1.292-0.455,1.648c-0.065,0.372-0.057,0.673,0.03,0.906c0.089,0.278,0.22,0.418,0.39,0.418
			c0.117,0,0.233-0.023,0.351-0.07c0.182-0.062,0.315-0.093,0.401-0.093c0.031,0,0.06,0.023,0.082,0.07
			c0.024,0.047,0.03,0.101,0.021,0.163c-0.077,0.434-0.399,0.858-0.966,1.277c-0.574,0.402-1.124,0.604-1.647,0.604
			c-0.778,0-1.383-0.396-1.808-1.186c-0.418-0.773-0.52-1.702-0.303-2.787c0.104-0.526,0.319-1.255,0.646-2.184
			C240.275,106.001,240.438,105.459,240.486,105.181L240.486,105.181z M239.682,101.348h6.444l-0.199,1.115h-6.444L239.682,101.348
			L239.682,101.348z M248.424,108.851c0.088,0.464,0.287,0.813,0.598,1.045c0.33,0.248,0.726,0.372,1.186,0.372
			c0.256,0,0.537-0.108,0.844-0.325c0.074-0.062,0.131-0.101,0.165-0.115c0.022-0.017,0.046-0.023,0.068-0.023
			c0.053,0,0.085,0.063,0.095,0.187s-0.001,0.271-0.031,0.44c-0.123,0.697-0.478,1.293-1.057,1.789
			c-0.581,0.495-1.225,0.743-1.93,0.743c-0.619,0-1.164-0.216-1.631-0.65c-0.488-0.434-0.84-1.038-1.055-1.813
			c-0.124-0.388-0.25-0.696-0.379-0.93c-0.119-0.231-0.245-0.363-0.378-0.395c-0.08-0.031-0.135-0.055-0.164-0.07
			c-0.035-0.046-0.046-0.101-0.035-0.163c0.015-0.076,0.065-0.153,0.153-0.231c0.066-0.077,0.145-0.116,0.229-0.116
			c0.944-0.263,1.758-0.65,2.438-1.162c0.619-0.479,0.979-1.021,1.076-1.626c0.085-0.479,0.025-0.896-0.178-1.254
			c-0.205-0.341-0.504-0.527-0.895-0.558c-0.105,0-0.197-0.031-0.271-0.094c-0.074-0.062-0.104-0.107-0.088-0.139
			c0.045-0.248,0.284-0.449,0.719-0.604c0.434-0.155,0.938-0.232,1.517-0.232c0.822,0,1.479,0.294,1.974,0.883
			c0.498,0.619,0.67,1.339,0.512,2.16c-0.121,0.682-0.514,1.293-1.178,1.835C250.05,108.363,249.282,108.711,248.424,108.851
			L248.424,108.851z M245.807,101.348l-0.199,1.115h7.807l0.199-1.115H245.807z"/>
		<path fill="#FFFFFF" d="M261.834,108.084c0.282-1.58,0.809-2.842,1.574-3.786c0.757-0.945,1.632-1.417,2.626-1.417
			c0.342,0,0.61,0.046,0.809,0.139c0.208,0.093,0.31,0.216,0.302,0.372c-0.014,0.078-0.058,0.178-0.133,0.302
			c-0.246,0.294-0.443,0.539-0.597,0.732c-0.151,0.193-0.334,0.584-0.547,1.173c-0.252,0.635-0.435,1.332-0.55,2.09
			c-0.172,0.96-0.096,1.789,0.229,2.486c0.327,0.681,0.813,1.021,1.453,1.021c1.305,0,2.342-0.278,3.115-0.836
			c-0.146,0.821-0.648,1.534-1.506,2.138c-0.853,0.589-1.818,0.883-2.897,0.883c-1.465,0-2.549-0.48-3.254-1.44
			C261.757,110.965,261.548,109.68,261.834,108.084L261.834,108.084z M262.27,101.348h11.156l-0.199,1.115H262.07L262.27,101.348
			L262.27,101.348z M268.827,109.315c0.71,0.031,1.375-0.247,1.993-0.836c0.617-0.588,0.998-1.285,1.144-2.09
			c0.16-0.961,0.036-1.789-0.373-2.486c-0.401-0.681-0.972-1.021-1.709-1.021c-0.448,0-0.84,0.062-1.171,0.186
			c-0.306,0.094-0.486,0.24-0.545,0.442c-0.023,0.077-0.006,0.154,0.055,0.232c0.043,0.062,0.129,0.093,0.256,0.093
			c0.235,0,0.401,0.177,0.498,0.534c0.109,0.341,0.119,0.767,0.027,1.277c-0.082,0.464-0.289,0.875-0.621,1.231
			c-0.316,0.341-0.668,0.511-1.053,0.511c-0.074,0-0.186-0.015-0.328-0.046c-0.072-0.016-0.172-0.023-0.3-0.023
			c-0.161,0-0.277,0.023-0.351,0.07c-0.045,0.016-0.084,0.085-0.117,0.209c-0.078,0.435,0.156,0.828,0.701,1.186
			C267.471,109.137,268.102,109.315,268.827,109.315L268.827,109.315z M277.822,110.918c-0.811,0.759-1.699,1.161-2.67,1.208
			c-1.004,0-1.74-0.364-2.209-1.092c-0.486-0.744-0.619-1.704-0.397-2.881c0.222-1.238,0.69-2.222,1.408-2.95
			c0.731-0.743,1.589-1.114,2.571-1.114c0.643,0,1.154,0.186,1.537,0.557c0.379,0.388,0.518,0.836,0.416,1.348l-0.604-0.116
			c-0.075,0-0.214,0-0.417,0s-0.477,0.209-0.816,0.627c-0.352,0.403-0.576,0.891-0.68,1.464c-0.094,0.526-0.034,0.968,0.182,1.323
			c0.182,0.355,0.467,0.55,0.856,0.581c0.267,0,0.524-0.094,0.771-0.278c0.088-0.496,0.295-1.224,0.614-2.184
			c0.322-0.96,0.529-1.703,0.624-2.229c0.061-0.341,0.053-0.62-0.027-0.836c-0.064-0.232-0.172-0.349-0.321-0.349
			c-0.128,0-0.22-0.023-0.275-0.069c-0.067-0.047-0.098-0.116-0.092-0.209c0.063-0.233,0.257-0.418,0.581-0.558
			c0.332-0.124,0.723-0.187,1.171-0.187c0.62,0,1.136,0.194,1.547,0.581c0.401,0.387,0.642,0.898,0.722,1.533
			c0.813-0.666,1.707-0.999,2.679-0.999c0.962,0,1.668,0.354,2.116,1.068c0.438,0.728,0.562,1.68,0.371,2.856
			c-0.172,0.96-0.586,1.789-1.246,2.485c-0.666,0.682-1.375,1.021-2.121,1.021c-0.385,0-0.692-0.132-0.924-0.395
			c-0.229-0.279-0.349-0.627-0.358-1.045c0.278,0,0.556-0.179,0.834-0.534c0.276-0.356,0.46-0.783,0.549-1.278
			c0.095-0.525,0.035-0.976-0.176-1.347c-0.211-0.372-0.517-0.55-0.915-0.534c-0.319,0-0.635,0.108-0.939,0.325
			c-0.063,0.355-0.209,0.875-0.438,1.556c-0.229,0.62-0.379,1.13-0.451,1.533c-0.059,0.325-0.046,0.619,0.035,0.883
			c0.072,0.247,0.206,0.372,0.398,0.372h0.239c0.054,0,0.103,0.023,0.147,0.069c0.035,0.047,0.049,0.116,0.043,0.209
			c-0.092,0.449-0.34,0.821-0.744,1.115c-0.387,0.31-0.848,0.464-1.382,0.464c-0.568-0.046-1.052-0.248-1.447-0.604
			C278.191,111.986,277.938,111.522,277.822,110.918L277.822,110.918z M273.105,101.348l-0.199,1.115h16.189l0.199-1.115H273.105
			L273.105,101.348z M292.854,108.34c0.203-1.131,0.696-2.098,1.481-2.904c0.785-0.805,1.626-1.207,2.524-1.207
			c0.641,0,1.152,0.187,1.535,0.558c0.381,0.372,0.524,0.829,0.428,1.371c-0.254-0.077-0.498-0.108-0.736-0.094
			c-0.311,0-0.559,0.046-0.746,0.14l0.936,3.02c0.08-0.449,0.265-1.123,0.554-2.021c0.313-0.977,0.503-1.649,0.569-2.021
			c0.059-0.326,0.058-0.589-0.004-0.79c-0.072-0.248-0.181-0.355-0.326-0.325c-0.116,0-0.196-0.03-0.238-0.093
			c-0.069-0.094-0.086-0.178-0.051-0.255c0.027-0.217,0.216-0.403,0.563-0.558c0.332-0.124,0.718-0.187,1.155-0.187
			c0.855,0,1.479,0.302,1.874,0.905c0.405,0.604,0.515,1.425,0.329,2.462c-0.057,0.31-0.217,0.875-0.479,1.696
			c-0.24,0.742-0.393,1.292-0.457,1.648c-0.061,0.341-0.051,0.644,0.03,0.906c0.067,0.278,0.198,0.418,0.392,0.418
			c0.116,0,0.233-0.023,0.35-0.07c0.182-0.062,0.314-0.093,0.4-0.093c0.043,0,0.075,0.023,0.101,0.07
			c0.01,0.062,0.011,0.116,0.003,0.163c-0.078,0.434-0.398,0.858-0.966,1.277c-0.597,0.402-1.146,0.604-1.647,0.604
			c-0.533,0-1.006-0.17-1.415-0.511c-0.375-0.356-0.625-0.836-0.753-1.44c-0.392,0.402-0.841,0.728-1.345,0.975
			c-0.487,0.218-0.966,0.326-1.437,0.326c-1.006,0-1.752-0.363-2.242-1.092C292.77,110.492,292.643,109.532,292.854,108.34
			L292.854,108.34z M297.576,110.082l-1.049-3.275c-0.121,0.14-0.244,0.35-0.369,0.627c-0.105,0.232-0.182,0.48-0.229,0.744
			c-0.101,0.557-0.048,1.037,0.158,1.44c0.197,0.387,0.489,0.581,0.874,0.581C297.229,110.198,297.436,110.159,297.576,110.082
			L297.576,110.082z M293.464,101.348h11.622l-0.199,1.115h-11.621L293.464,101.348L293.464,101.348z M301.212,99.885
			c-0.045,0.31-0.331,0.627-0.86,0.953c-0.504,0.31-0.979,0.464-1.429,0.464c-0.331,0-0.616-0.17-0.854-0.511
			c-0.26-0.341-0.435-0.798-0.523-1.371c-0.051-0.372-0.171-0.689-0.357-0.952c-0.182-0.248-0.39-0.372-0.623-0.372
			c-0.074,0-0.17,0.015-0.281,0.046c-0.057,0.016-0.137,0.023-0.244,0.023c-0.043,0-0.064-0.023-0.066-0.069
			c-0.018-0.032-0.021-0.07-0.013-0.116c0.047-0.202,0.21-0.426,0.489-0.674c0.316-0.279,0.691-0.519,1.122-0.72
			c0.303-0.141,0.64-0.226,1.008-0.256c0.257,0,0.487,0.085,0.69,0.256c0.228,0.17,0.393,0.41,0.498,0.72l0.662,1.765
			c0.078,0.218,0.176,0.388,0.293,0.512c0.116,0.124,0.217,0.187,0.303,0.187c0.074,0,0.121,0.007,0.142,0.023
			C301.201,99.823,301.218,99.854,301.212,99.885L301.212,99.885z M304.971,99.838c-0.002-0.046-0.018-0.077-0.047-0.093
			c-0.02-0.017-0.07-0.023-0.156-0.023c-0.319,0-0.564-0.186-0.733-0.558c-0.175-0.341-0.238-0.782-0.195-1.324
			c0.082-0.758-0.046-1.385-0.386-1.881c-0.367-0.511-0.84-0.768-1.417-0.768c-0.429,0-0.845,0.085-1.248,0.257
			c-0.36,0.17-0.57,0.379-0.625,0.626c-0.006,0.031,0.021,0.069,0.075,0.115c0.08,0.031,0.168,0.046,0.264,0.046
			c0.268,0,0.473,0.232,0.613,0.697c0.137,0.435,0.167,1.006,0.093,1.719c-0.063,0.712,0.067,1.302,0.39,1.766
			c0.309,0.496,0.738,0.744,1.295,0.744c0.396,0,0.834-0.147,1.313-0.442C304.663,100.427,304.918,100.132,304.971,99.838
			L304.971,99.838z M306.301,95.542c0.448,0,0.803,0.139,1.063,0.418c0.268,0.294,0.373,0.635,0.313,1.021
			c-0.068,0.388-0.29,0.729-0.664,1.022c-0.382,0.278-0.79,0.417-1.229,0.417c-0.471,0-0.836-0.139-1.096-0.417
			c-0.267-0.311-0.364-0.651-0.299-1.022c0.065-0.372,0.287-0.713,0.663-1.021C305.416,95.681,305.831,95.542,306.301,95.542
			L306.301,95.542z M309.563,110.918c-0.81,0.759-1.697,1.161-2.67,1.208c-1.004,0-1.74-0.364-2.207-1.092
			c-0.487-0.744-0.621-1.704-0.398-2.881c0.222-1.238,0.689-2.222,1.408-2.95c0.73-0.743,1.589-1.114,2.571-1.114
			c0.643,0,1.152,0.186,1.535,0.557c0.38,0.388,0.52,0.836,0.416,1.348l-0.604-0.116c-0.075,0-0.214,0-0.417,0
			s-0.477,0.209-0.817,0.627c-0.35,0.403-0.576,0.891-0.679,1.464c-0.094,0.526-0.034,0.968,0.18,1.323
			c0.184,0.355,0.469,0.55,0.858,0.581c0.267,0,0.522-0.094,0.771-0.278c0.088-0.496,0.293-1.224,0.614-2.184
			s0.529-1.703,0.623-2.229c0.062-0.341,0.053-0.62-0.026-0.836c-0.064-0.232-0.173-0.349-0.322-0.349
			c-0.129,0-0.22-0.023-0.275-0.069c-0.066-0.047-0.097-0.116-0.091-0.209c0.063-0.233,0.257-0.418,0.581-0.558
			c0.332-0.124,0.723-0.187,1.171-0.187c0.62,0,1.136,0.194,1.547,0.581c0.401,0.387,0.642,0.898,0.721,1.533
			c0.813-0.666,1.707-0.999,2.679-0.999c0.964,0,1.669,0.354,2.117,1.068c0.438,0.728,0.562,1.68,0.371,2.856
			c-0.172,0.96-0.587,1.789-1.246,2.485c-0.667,0.682-1.375,1.021-2.123,1.021c-0.385,0-0.69-0.132-0.923-0.395
			c-0.229-0.279-0.348-0.627-0.357-1.045c0.277,0,0.557-0.179,0.834-0.534c0.276-0.356,0.46-0.783,0.549-1.278
			c0.094-0.525,0.035-0.976-0.176-1.347c-0.212-0.372-0.518-0.55-0.915-0.534c-0.32,0-0.635,0.108-0.939,0.325
			c-0.063,0.355-0.21,0.875-0.438,1.556c-0.229,0.62-0.379,1.13-0.45,1.533c-0.06,0.325-0.048,0.619,0.034,0.883
			c0.071,0.247,0.206,0.372,0.397,0.372h0.24c0.054,0,0.103,0.023,0.146,0.069c0.034,0.047,0.05,0.116,0.044,0.209
			c-0.092,0.449-0.34,0.821-0.744,1.115c-0.388,0.31-0.849,0.464-1.383,0.464c-0.567-0.046-1.051-0.248-1.446-0.604
			C309.932,111.986,309.679,111.522,309.563,110.918L309.563,110.918z M304.846,101.348l-0.199,1.115h16.19l0.199-1.115H304.846z"/>
		<path fill="#FFFFFF" d="M230.792,120.309c-5.562-2.658-6.586-2.011-5.742-2.272c21.288-2.429,42.274-5.891,79.755,0.975
			C271.307,115.188,251.127,117.445,230.792,120.309z"/>
	</g>
</g>
</svg>
