<?xml version="1.0" encoding="UTF-8" standalone="no"?>
<svg
   width="32"
   height="32"
   viewBox="0 0 32 32"
   fill="none"
   version="1.1"
   id="svg408"
   sodipodi:docname="icon.svg"
   inkscape:version="1.3 (1:1.3+202307231459+0e150ed6c4)"
   xmlns:inkscape="http://www.inkscape.org/namespaces/inkscape"
   xmlns:sodipodi="http://sodipodi.sourceforge.net/DTD/sodipodi-0.dtd"
   xmlns="http://www.w3.org/2000/svg"
   xmlns:svg="http://www.w3.org/2000/svg">
  <sodipodi:namedview
     id="namedview408"
     pagecolor="#ffffff"
     bordercolor="#666666"
     borderopacity="1.0"
     inkscape:showpageshadow="2"
     inkscape:pageopacity="0.0"
     inkscape:pagecheckerboard="0"
     inkscape:deskcolor="#d1d1d1"
     inkscape:zoom="9.7279412"
     inkscape:cx="68"
     inkscape:cy="15.984883"
     inkscape:window-width="1920"
     inkscape:window-height="1163"
     inkscape:window-x="0"
     inkscape:window-y="0"
     inkscape:window-maximized="1"
     inkscape:current-layer="svg408" />
  <path
     d="M 16,32 C 24.8366,32 32,24.8366 32,16 32,7.16344 24.8366,0 16,0 7.16344,0 0,7.16344 0,16 0,24.8366 7.16344,32 16,32 Z"
     fill="#eaa131"
     id="path11" />
  <path
     d="m 29.8101,16.0518 c -10e-5,0.6752 -0.0495,1.3495 -0.1479,2.0175 L 26.0146,15.9091 29.6201,13.78 c 0.1256,0.7508 0.1891,1.5106 0.19,2.2718 z"
     fill="#1b5ec0"
     id="path12" />
  <path
     d="m 26.0191,15.9165 3.6431,2.1572 c -0.0236,0.1641 -0.0505,0.327 -0.0806,0.4886 l -3.564,2.1025 h -0.0044 v -4.7453 z"
     fill="#1b5dc6"
     id="path13" />
  <path
     d="m 29.6196,13.7764 c 4e-4,0.0012 4e-4,0.0025 0,0.0037 l -3.6054,2.1291 z"
     fill="#1e62c0"
     id="path14" />
  <path
     d="m 29.6193,13.7765 -3.6061,2.1291 v -4.7484 h 0.0059 l 3.4982,2.07 c 0.0377,0.1818 0.071,0.3644 0.102,0.5493 z"
     fill="#1e62c0"
     id="path15" />
  <path
     d="m 29.5788,18.5625 c 5e-4,0.0017 5e-4,0.0035 0,0.0052 l -3.5573,2.1025 z"
     fill="#1b58c5"
     id="path16" />
  <path
     d="m 26.0215,20.6701 3.5566,-2.0995 c -0.2248,1.2232 -0.6147,2.4103 -1.1592,3.5285 L 26.04,20.6871 v -0.0133 z"
     fill="#1b58c5"
     id="path17" />
  <path
     d="m 29.5146,13.2227 -3.5019,-2.0759 2.2969,-1.35578 c 0.5519,1.08548 0.9572,2.23948 1.205,3.43168 z"
     fill="#1b60c0"
     id="path18" />
  <path
     d="m 26.04,20.6914 2.3768,1.4046 c -0.5594,1.148 -1.2746,2.2133 -2.1254,3.1656 L 26.04,25.4094 Z"
     fill="#1e58c3"
     id="path19" />
  <path
     d="m 28.3116,9.79103 -2.297,1.35577 2.2992,-1.35725 z"
     fill="#1963c0"
     id="path20" />
  <path
     d="M 28.3094,9.78722 26.0103,11.1445 V 6.53296 c 0.9189,0.96852 1.6932,2.06457 2.2991,3.25426 z"
     fill="#1963c0"
     id="path21" />
  <path
     d="M 26.2921,25.2654 26.2833,25.275 26.04,25.4184 V 25.414 Z"
     fill="#1e58c3"
     id="path22" />
  <path
     d="m 26.04,25.4183 0.2425,-0.1434 c -0.0569,0.0643 -0.1153,0.1272 -0.173,0.19 L 26.04,25.4235 Z"
     fill="#1e58c3"
     id="path23" />
  <path
     d="m 26.0398,25.4236 0.0695,0.0414 -0.0155,0.017 -0.0806,-0.0481 0.0118,-0.0066 0.0148,0.0089 z"
     fill="#1b4faf"
     id="path24" />
  <path
     d="m 26.0945,25.4819 -0.0813,0.0865 v -0.1338 z"
     fill="#1b4faf"
     id="path25" />
  <path
     d="m 26.0416,25.4237 v 0.0134 l -0.0157,-0.0094 0.011,-0.0063 z"
     fill="#1b4faf"
     id="path26" />
  <path
     d="m 26.0402,25.4185 v 0.0048 l -0.0041,-0.0021 z"
     fill="#1e58c3"
     id="path27" />
  <path
     d="m 26.0408,25.4141 v 0.0046 l -0.0047,0.0031 -0.0039,-0.0023 z"
     fill="#1e58c3"
     id="path28" />
  <path
     d="m 26.0414,25.4058 v 0.0086 l -0.0086,0.0055 -0.0079,-0.0047 z"
     fill="#1e58c3"
     id="path29" />
  <path
     d="m 26.0406,20.6915 v 4.7143 L 26.0103,25.388 v -4.6921 l 0.0192,-0.0111 z"
     fill="#1e58c3"
     id="path30" />
  <path
     d="m 26.0411,20.6873 v 0.0047 l -0.0118,-0.007 0.0039,-0.0024 z"
     fill="#1f5cc2"
     id="path31" />
  <path
     d="m 26.041,20.6782 v 0.0093 l -0.0078,-0.0046 z"
     fill="#1b58c5"
     id="path32" />
  <path
     d="m 26.0413,20.6738 v 0.005 l -0.0042,-0.0025 z"
     fill="#1b58c5"
     id="path33" />
  <path
     d="m 26.0411,20.6784 -0.0079,0.0047 -0.0039,-0.0024 0.0079,-0.0047 z"
     fill="#1b58c5"
     id="path34" />
  <path
     d="M 26.0406,25.4059 26.025,25.4148 26.0132,25.4074 V 25.3985 L 26.0103,25.4 v -0.0118 z"
     fill="#1e58c3"
     id="path35" />
  <path
     d="m 26.0371,20.6759 -0.0074,0.0044 -0.0155,-0.0089 0.0074,-0.0044 z"
     fill="#1b58c5"
     id="path36" />
  <path
     d="m 26.0333,25.4192 0.0039,0.0023 -0.011,0.0063 -0.0047,-0.0023 z"
     fill="#1b4faf"
     id="path37" />
  <path
     d="m 26.0334,20.6827 -0.0038,0.0024 -0.0047,-0.0024 0.0047,-0.0023 z"
     fill="#1e61d2"
     id="path38" />
  <path
     d="m 26.025,25.4148 0.0074,0.0044 -0.0111,0.0059 -0.0067,-0.0044 z"
     fill="#1b4faf"
     id="path39" />
  <path
     d="m 26.0295,20.6805 -0.0045,0.0022 -0.0147,-0.0089 0.0014,-7e-4 0.0015,7e-4 v -0.0014 l 8e-4,-8e-4 z"
     fill="#1e61d2"
     id="path40" />
  <path
     d="m 26.0295,20.6848 -0.0192,0.0111 v -0.0044 l 0.0147,-0.0089 z"
     fill="#1e58c3"
     id="path41" />
  <path
     d="m 26.0265,25.4274 -0.0125,0.0071 -8e-4,-8e-4 v -0.0032 -7e-4 l 0.0086,-0.0048 z"
     fill="#1b4faf"
     id="path42" />
  <path
     d="m 26.025,20.6827 -0.0147,0.0089 v -0.0178 z"
     fill="#1e58c3"
     id="path43" />
  <path
     d="m 26.0258,25.4151 -0.011,0.0063 -0.0016,-8e-4 v -0.0134 z"
     fill="#1b4faf"
     id="path44" />
  <path
     d="m 26.0178,20.6648 0.0039,0.0023 -0.0077,0.0047 -8e-4,-8e-4 v -0.0031 z"
     fill="#1b58c5"
     id="path45" />
  <path
     d="m 26.0147,25.4207 0.007,0.0046 -0.0085,0.0047 v -0.0078 z"
     fill="#1b4faf"
     id="path46" />
  <path
     d="m 26.0205,11.1537 -8e-4,8e-4 -0.0065,-0.004 v -8e-4 z"
     fill="#1a69d0"
     id="path47" />
  <path
     d="m 26.0205,15.9162 -8e-4,8e-4 -0.0065,-0.0041 v -8e-4 z"
     fill="#1c68d9"
     id="path48" />
  <path
     d="m 26.0197,11.1544 -0.0065,0.0033 v -0.0073 z"
     fill="#1e62c0"
     id="path49" />
  <path
     d="m 26.0197,15.9169 -0.0065,0.0032 v -0.0073 z"
     fill="#1b5dc6"
     id="path50" />
  <path
     d="m 26.0132,20.6619 0.0046,0.003 -0.0046,0.0031 z"
     fill="#1b5dc6"
     id="path51" />
  <path
     d="m 26.015,25.4208 -0.0018,0.0018 v -0.0027 z"
     fill="#1b4faf"
     id="path52" />
  <path
     d="m 26.0147,11.1472 -0.0035,0.0018 -9e-4,-9e-4 v -0.0036 z"
     fill="#1963c0"
     id="path53" />
  <path
     d="m 26.0139,15.9091 -7e-4,7e-4 v -0.0014 z"
     fill="#1e62c0"
     id="path54" />
  <path
     d="m 26.0139,20.6716 -7e-4,6e-4 v -0.0013 z"
     fill="#1b5dc6"
     id="path55" />
  <path
     d="m 26.0139,25.4338 -7e-4,6e-4 v -0.0013 z"
     fill="#1b4faf"
     id="path56" />
  <path
     d="m 26.0136,25.4333 v 0.0017 l -0.0033,0.0017 v -0.0051 z"
     fill="#1b4faf"
     id="path57" />
  <path
     d="m 26.0134,25.4302 v 0.0031 l -0.0031,-0.0015 z"
     fill="#1b4faf"
     id="path58" />
  <path
     d="m 26.0134,25.4299 v 8e-4 l -0.0031,0.0015 v -0.0085 l 0.0031,-0.0016 z"
     fill="#1b4faf"
     id="path59" />
  <path
     d="m 26.013,25.4198 v 0.0021 l -0.0027,0.0014 v -0.0048 z"
     fill="#1b4faf"
     id="path60" />
  <path
     d="m 26.0134,25.4073 v 0.0134 l -0.0031,-0.0016 v -0.0133 z"
     fill="#1b4faf"
     id="path61" />
  <path
     d="m 26.0134,25.3984 v 0.0093 L 26.0103,25.4062 V 25.4 Z"
     fill="#1e58c3"
     id="path62" />
  <path
     d="m 26.0131,20.6724 v 0.0013 l -0.0014,-7e-4 z"
     fill="#1e61d2"
     id="path63" />
  <path
     d="m 26.0138,20.6712 v 0.0018 l -0.0018,9e-4 -0.0017,-9e-4 v -0.0036 z"
     fill="#1b5dc6"
     id="path64" />
  <path
     d="m 26.0134,20.6677 v 0.0032 l -0.0031,-0.0016 z"
     fill="#1b58c5"
     id="path65" />
  <path
     d="m 26.0134,20.662 v 0.0062 l -0.0031,0.0015 v -0.0093 z"
     fill="#1b5dc6"
     id="path66" />
  <path
     d="m 26.0132,15.9194 v 4.7424 l -0.0029,-0.0014 v -4.7387 z"
     fill="#1b5dc6"
     id="path67" />
  <path
     d="m 26.0134,15.9129 v 0.007 l -0.0031,0.0023 v -0.0093 l 0.0015,-8e-4 z"
     fill="#1b5dc6"
     id="path68" />
  <path
     d="m 26.0131,15.912 v 7e-4 l -0.0014,-7e-4 7e-4,-6e-4 h 7e-4 z"
     fill="#1f68d6"
     id="path69" />
  <path
     d="m 26.0131,15.9099 v 0.0014 h -7e-4 l -7e-4,-7e-4 z"
     fill="#1c6fdb"
     id="path70" />
  <path
     d="m 26.0138,15.9088 v 0.0018 l -0.0018,9e-4 h -8e-4 l -9e-4,-9e-4 V 15.907 Z"
     fill="#1e62c0"
     id="path71" />
  <path
     d="m 26.0134,15.9055 v 0.0032 l -0.0031,-0.0016 z"
     fill="#1e62c0"
     id="path72" />
  <path
     d="m 26.0132,11.1572 v 4.7484 l -0.0029,0.0014 v -4.7476 z"
     fill="#1e62c0"
     id="path73" />
  <path
     d="m 26.0134,11.1504 v 0.007 l -0.0031,0.0023 v -0.0093 l 0.0015,-7e-4 z"
     fill="#1e62c0"
     id="path74" />
  <path
     d="m 26.0131,11.1496 v 7e-4 l -0.0014,-7e-4 7e-4,-7e-4 z"
     fill="#1a69d0"
     id="path75" />
  <path
     d="M 26.0134,1.65165 V 1.66019 L 26.0103,1.65864 V 1.65786 1.65165 l 0.0015,-7.7e-4 z"
     fill="#1755c1"
     id="path76" />
  <path
     d="M 26.0131,1.65015 V 1.65149 L 26.0117,1.65082 Z"
     fill="#1b6cc9"
     id="path77" />
  <path
     d="M 26.0134,1.65978 26.0103,1.66136 V 1.6582 Z"
     fill="#1755c1"
     id="path78" />
  <path
     d="m 26.012,15.9106 9e-4,9e-4 -9e-4,9e-4 -0.0017,-9e-4 8e-4,-9e-4 z"
     fill="#1c68d9"
     id="path79" />
  <path
     d="m 26.0129,11.1491 -9e-4,9e-4 -0.0017,-9e-4 8e-4,-9e-4 z"
     fill="#1a69d0"
     id="path80" />
  <path
     d="m 26.0116,1.65082 -0.0013,6.7e-4 V 1.65015 Z"
     fill="#1755c1"
     id="path81" />
  <path
     d="m 26.0116,11.1496 -0.0013,7e-4 v -0.0014 z"
     fill="#1e62c0"
     id="path82" />
  <path
     d="m 26.0116,15.912 -0.0013,7e-4 v -0.0013 z"
     fill="#1b5dc6"
     id="path83" />
  <path
     d="m 26.0116,20.673 -0.0013,7e-4 v -0.0013 z"
     fill="#1b5dc6"
     id="path84" />
  <path
     d="m 26.0103,15.9099 6e-4,7e-4 -6e-4,7e-4 z"
     fill="#1e62c0"
     id="path85" />
  <path
     d="m 26.0109,11.1481 -6e-4,7e-4 v -0.0013 z"
     fill="#1963c0"
     id="path86" />
  <path
     d="m 26.0101,25.4362 v 0.1352 c -0.977,1.03 -2.1062,1.9042 -3.3481,2.5919 l -0.6454,-0.3822 3.9921,-2.3575 v 0.0126 z"
     fill="#1f5cc2"
     id="path87" />
  <path
     d="m 26.0104,25.4183 v 0.0052 l -3.9935,2.3575 -0.0023,-0.0015 v -0.0207 l 3.9803,-2.3494 z"
     fill="#1f5cc2"
     id="path88" />
  <path
     d="m 26.0102,25.4058 v 0.0126 l -0.0156,-0.0089 0.0156,-0.0096 z"
     fill="#1f5cc2"
     id="path89" />
  <path
     d="m 26.0101,25.388 v 0.0118 l -0.0155,0.0096 -3.9765,-2.3568 0.0258,-0.0148 z"
     fill="#1e5dbe"
     id="path90" />
  <path
     d="m 26.0101,20.696 v 4.6922 L 22.0439,23.038 Z"
     fill="#1f5cc2"
     id="path91" />
  <path
     d="m 26.0104,20.6914 v 0.0044 l -3.9662,2.342 -0.0037,-0.0022 z"
     fill="#1e61d2"
     id="path92" />
  <path
     d="m 26.0104,20.6738 v 0.0177 l -3.9699,2.3443 -0.0259,-0.0156 v -4.715 l 3.9958,2.3671 z"
     fill="#1e61d2"
     id="path93" />
  <path
     d="m 26.0104,20.6692 v 0.003 L 22.0146,18.305 v -0.0081 -0.0044 l 3.9958,2.3679 z"
     fill="#1e61d2"
     id="path94" />
  <path
     d="m 26.01,15.9216 v 4.7387 l -3.9957,-2.3678 -0.0037,0.0022 -0.0111,-0.0067 z"
     fill="#1f68d6"
     id="path95" />
  <path
     d="m 26.0104,15.9128 v 0.0089 l -4.0106,2.3664 -0.0066,-0.0037 z"
     fill="#1f68d6"
     id="path96" />
  <path
     d="m 26.0104,15.9115 v 0.0014 l -4.0172,2.3716 V 13.548 13.5347 13.5303 h 7e-4 l 4.0165,2.3797 z"
     fill="#1c68d9"
     id="path97" />
  <path
     d="m 26.0101,15.907 v 0.003 l -4.0164,-2.3797 4.0164,-2.3709 z"
     fill="#1c6fdb"
     id="path98" />
  <path
     d="m 26.0104,11.1504 v 0.0089 l -4.0165,2.3708 h -7e-4 v -7e-4 -0.0074 z"
     fill="#1a69d0"
     id="path99" />
  <path
     d="m 26.0104,11.149 v 0.0015 L 21.9932,13.522 V 8.79368 8.78999 8.78555 8.76929 Z"
     fill="#1a69d0"
     id="path100" />
  <path
     d="M 26.0104,11.1475 V 11.149 L 21.9932,8.7693 V 8.76782 Z"
     fill="#1a69d0"
     id="path101" />
  <path
     d="M 26.0103,11.1446 21.9932,8.76785 25.9268,6.4458 26.0103,6.53303 Z"
     fill="#1864c7"
     id="path102" />
  <path
     d="M 26.0103,1.65161 V 1.65776 L 26.0049,1.65469 Z"
     fill="#1b6cc9"
     id="path103" />
  <path
     d="m 22.0183,23.0527 3.9766,2.3568 -3.9803,2.3494 V 23.055 Z"
     fill="#1e5dbe"
     id="path104" />
  <path
     d="M 25.9268,6.44586 21.9932,8.7679 V 8.75903 l 3.9277,-2.31909 z"
     fill="#1b6cc9"
     id="path105" />
  <path
     d="M 25.9209,6.43999 21.9932,8.75907 V 4.03662 l 3.7311,2.21042 c 0.067,0.06111 0.1325,0.12543 0.1966,0.19295 z"
     fill="#1b6cc9"
     id="path106" />
  <path
     d="M 25.6614,6.1804 25.7257,6.24398 21.9946,4.03356 22.0153,4.021 Z"
     fill="#1b6cc9"
     id="path107" />
  <path
     d="M 25.6612,6.18027 22.0151,4.01939 22.3936,3.79761 c 1.1997,0.6304 2.3006,1.43314 3.2676,2.38266 z"
     fill="#1b6cc9"
     id="path108" />
  <path
     d="m 22.6622,28.1632 -0.0103,0.0059 -0.6373,-0.377 v -0.0096 z"
     fill="#1f5cc2"
     id="path109" />
  <path
     d="m 22.0146,27.7922 0.6373,0.3771 c -0.209,0.1153 -0.4214,0.2254 -0.6373,0.3304 z"
     fill="#1b5ab6"
     id="path110" />
  <path
     d="M 22.394,3.79619 22.0155,4.01797 22.0073,4.0128 22.3851,3.79102 Z"
     fill="#1963c0"
     id="path111" />
  <path
     d="M 22.385,3.79188 22.0072,4.01366 21.9932,4.00553 V 3.59302 c 0.1316,0.06456 0.2622,0.13085 0.3918,0.19886 z"
     fill="#1963c0"
     id="path112" />
  <path
     d="m 22.0405,23.0356 0.0037,0.0023 -0.0259,0.0147 -0.0037,-0.0022 z"
     fill="#1e5dbe"
     id="path113" />
  <path
     d="m 22.0146,23.0203 0.0259,0.0155 -0.0259,0.0148 v -0.0215 -0.0044 z"
     fill="#1e5dbe"
     id="path114" />
  <path
     d="m 22.0188,23.053 -0.0042,0.0026 v -0.0051 z"
     fill="#1e5dbe"
     id="path115" />
  <path
     d="m 22.0146,27.7795 0.0024,0.0016 -0.0024,0.0016 z"
     fill="#1f5cc2"
     id="path116" />
  <path
     d="m 22.0072,4.0144 0.0081,0.00518 -0.0207,0.01257 -0.0014,-7.4e-4 V 4.03067 4.02328 Z"
     fill="#1b6cc9"
     id="path117" />
  <path
     d="m 22.0144,27.7923 v 0.7075 c -0.9492,0.4607 -1.9484,0.8102 -2.9778,1.0416 l 2.9734,-1.755 z"
     fill="#1b5ab6"
     id="path118" />
  <path
     d="m 22.0144,27.7871 v 0.0048 l -0.0041,-0.0027 z"
     fill="#1f5cc2"
     id="path119" />
  <path
     d="m 22.0146,27.7839 v 0.0032 l -0.0024,-0.0016 z"
     fill="#1f4fb2"
     id="path120" />
  <path
     d="m 22.0146,27.7827 v 0.0015 l -0.0214,-0.0126 0.0214,-0.0126 v 0.0207 z"
     fill="#1f4fb2"
     id="path121" />
  <path
     d="m 22.0145,23.0551 v 4.7039 l -0.0214,0.0126 -3.9994,-2.3694 3.9987,-2.3605 z"
     fill="#1f4fb2"
     id="path122" />
  <path
     d="m 22.0144,23.0505 v 0.0044 l -0.0222,-0.0133 0.0222,-0.0125 z"
     fill="#1f4fb2"
     id="path123" />
  <path
     d="m 22.0149,23.0247 v 0.005 l -0.0042,-0.0025 z"
     fill="#1f4fb2"
     id="path124" />
  <path
     d="m 22.0146,23.0203 v 0.0044 l -0.0037,0.0022 -3.9972,-2.3678 3.9942,-2.3583 0.0067,0.0044 z"
     fill="#2063c9"
     id="path125" />
  <path
     d="m 22.0148,18.2971 v 0.0086 l -0.007,-0.0047 z"
     fill="#1f68d6"
     id="path126" />
  <path
     d="m 22.0149,18.2925 v 0.005 L 22.0107,18.295 Z"
     fill="#1f68d6"
     id="path127" />
  <path
     d="m 22.0153,18.297 -0.007,0.0039 -0.0039,-0.0023 0.007,-0.0039 z"
     fill="#1f68d6"
     id="path128" />
  <path
     d="m 22.0146,23.0291 -0.0221,0.0125 -0.0037,-0.0022 0.0221,-0.0125 z"
     fill="#1f4fb2"
     id="path129" />
  <path
     d="m 22.0144,27.7841 -0.0022,0.0014 -0.0215,-0.0125 0.0022,-0.0015 z"
     fill="#1f4fb2"
     id="path130" />
  <path
     d="m 22.0151,27.7873 -0.0049,0.0024 -0.0024,-0.0016 0.0049,-0.0025 z"
     fill="#1f5cc2"
     id="path131" />
  <path
     d="m 22.0122,27.7855 -0.0044,0.0022 -0.0215,-0.0125 0.0045,-0.0023 z"
     fill="#1f5cc2"
     id="path132" />
  <path
     d="m 22.0107,18.2947 -0.0067,0.0037 -0.0103,-0.0059 0.0059,-0.0044 z"
     fill="#1f68d6"
     id="path133" />
  <path
     d="m 22.0106,23.0268 -0.0222,0.0126 -3.9972,-2.3679 0.0222,-0.0126 z"
     fill="#205ec0"
     id="path134" />
  <path
     d="m 22.0077,18.3008 -3.9942,2.3583 -0.0037,-0.0022 3.9942,-2.3583 z"
     fill="#2063c9"
     id="path135" />
  <path
     d="m 22.0079,27.7877 -2.9792,1.7587 c -0.3423,0.0739 -0.6898,0.1419 -1.0409,0.1922 v -4.3328 l 3.9994,2.3693 h -0.0044 z"
     fill="#205bc0"
     id="path136" />
  <path
     d="m 22.0072,4.01424 -0.014,0.00887 V 4.0061 Z"
     fill="#1b6cc9"
     id="path137" />
  <path
     d="M 22.0042,18.2984 18.01,20.6567 17.9878,20.6434 v -0.003 h 7e-4 v -4.721 l 3.998,2.3687 0.0067,0.0044 h 7e-4 z"
     fill="#1b60cc"
     id="path138" />
  <path
     d="m 22.0001,18.2883 -0.0062,0.0047 h -7e-4 v -8e-4 -0.0078 z"
     fill="#1f68d6"
     id="path139" />
  <path
     d="m 21.9932,4.03125 0.0013,6.7e-4 -0.0013,6.7e-4 z"
     fill="#1b6cc9"
     id="path140" />
  <path
     d="m 21.9936,4.0309 v 8.1e-4 l -0.004,0.00242 h -8e-4 L 21.9863,4.03252 V 4.02686 Z"
     fill="#1963c0"
     id="path141" />
  <path
     d="m 21.9936,18.2921 v 8e-4 l -0.0073,-0.0048 z"
     fill="#1b60cc"
     id="path142" />
  <path
     d="m 21.9936,18.2844 v 0.0081 l -0.0073,-0.004 z"
     fill="#1f68d6"
     id="path143" />
  <path
     d="m 21.9929,13.5479 v 4.7365 l -4.0046,-2.3723 v -0.0133 l 3.9935,-2.3575 z"
     fill="#1e65d3"
     id="path144" />
  <path
     d="m 21.9937,13.5347 v 0.0141 l -0.0118,-0.0071 z"
     fill="#1e65d3"
     id="path145" />
  <path
     d="m 21.9934,13.5303 v 0.005 l -0.0041,-0.0025 z"
     fill="#1e65d3"
     id="path146" />
  <path
     d="m 21.9929,13.5295 v 7e-4 l -0.0037,0.0022 -4.0038,-2.3723 V 11.1557 L 21.99,8.7915 21.9929,8.79372 v 4.72838 l -0.0066,0.0037 z"
     fill="#1c6ad3"
     id="path147" />
  <path
     d="m 21.9936,13.522 v 0.0081 L 21.9863,13.526 Z"
     fill="#1c6fdb"
     id="path148" />
  <path
     d="M 21.9938,8.79004 V 8.79452 L 21.9902,8.79183 Z"
     fill="#196bd2"
     id="path149" />
  <path
     d="M 21.9934,8.78564 V 8.79067 L 21.9893,8.78816 Z"
     fill="#196bd2"
     id="path150" />
  <path
     d="M 21.9933,8.76943 V 8.78569 L 21.9896,8.78791 17.9746,6.40894 V 6.4082 l 4.0179,-2.37231 8e-4,7.4e-4 v 4.72245 l -0.0089,0.00517 z"
     fill="#196bd2"
     id="path151" />
  <path
     d="M 21.9937,8.76834 V 8.76989 L 21.9844,8.76446 21.9937,8.75903 Z"
     fill="#196bd2"
     id="path152" />
  <path
     d="m 21.9928,4.03589 v 6.4e-4 l -6e-4,-6.4e-4 z"
     fill="#196bd2"
     id="path153" />
  <path
     d="m 21.9934,4.03271 v 0.00316 h -8e-4 L 21.9902,4.03429 Z"
     fill="#196bd2"
     id="path154" />
  <path
     d="m 21.9937,4.03125 v 0.00179 l -0.0035,0.0018 -9e-4,-9e-4 z"
     fill="#196bd2"
     id="path155" />
  <path
     d="M 21.9936,4.02319 V 4.03128 L 21.9863,4.02724 Z"
     fill="#1963c0"
     id="path156" />
  <path
     d="m 21.993,4.00627 v 0.017 l -0.0067,0.0037 V 3.59302 h 0.0067 z"
     fill="#1963c0"
     id="path157" />
  <path
     d="M 21.9936,8.79027 21.9904,8.79188 21.9863,8.78946 21.9896,8.78784 Z"
     fill="#196bd2"
     id="path158" />
  <path
     d="m 21.9942,13.5348 -0.0118,0.0071 -0.0039,-0.0024 0.0118,-0.007 z"
     fill="#1d6cda"
     id="path159" />
  <path
     d="m 21.9929,18.2844 -0.0067,0.0037 -3.9979,-2.3686 v -0.0074 z"
     fill="#1b60cc"
     id="path160" />
  <path
     d="m 21.9929,27.7715 -0.0022,0.0014 -3.9995,-2.3693 0.0022,-0.0015 z"
     fill="#1f4fb2"
     id="path161" />
  <path
     d="m 21.9921,23.0415 -3.9987,2.3605 -0.0037,-0.0022 3.9988,-2.3605 z"
     fill="#1f4fb2"
     id="path162" />
  <path
     d="M 21.9925,4.03566 17.9746,6.40797 V 6.40354 l 4.012,-2.36862 V 4.0364 l 0.0037,-0.00222 z"
     fill="#196bd2"
     id="path163" />
  <path
     d="m 21.9894,4.03345 7e-4,6.7e-4 -0.0013,-6.7e-4 z"
     fill="#196bd2"
     id="path164" />
  <path
     d="M 21.99,8.79152 17.9854,11.1557 V 11.1513 L 21.9863,8.78931 Z"
     fill="#196dd5"
     id="path165" />
  <path
     d="m 21.9908,4.03434 -0.0045,0.0027 V 4.03524 L 21.989,4.03345 Z"
     fill="#196bd2"
     id="path166" />
  <path
     d="m 21.9896,8.7879 -0.003,0.00148 -4.012,-2.37675 V 6.40894 Z"
     fill="#196bd2"
     id="path167" />
  <path
     d="m 21.9892,13.5325 -0.0111,0.0066 -3.9927,-2.3656 v -0.0133 z"
     fill="#1d6cda"
     id="path168" />
  <path
     d="M 21.9863,4.03198 21.989,4.03377 21.9863,4.03288 Z"
     fill="#1963c0"
     id="path169" />
  <path
     d="M 21.9887,23.0395 17.99,25.4 17.9878,25.3985 v -7e-4 -4.724 l 0.0037,-0.0022 z"
     fill="#205ec0"
     id="path170" />
  <path
     d="M 21.989,4.03361 21.9863,4.0354 V 4.03271 Z"
     fill="#1963c0"
     id="path171" />
  <path
     d="m 21.9862,4.0365 -4.012,2.36566 V 6.35706 L 17.9668,6.3615 V 6.35041 l 0.0074,0.00444 V 2.36279 c 0.6372,0.09211 1.2671,0.22897 1.8851,0.40956 v 0 l 2.1247,1.25676 z"
     fill="#1d77d5"
     id="path172" />
  <path
     d="M 21.9865,4.02697 V 4.03215 L 19.8618,2.77539 c 0.7297,0.21309 1.4404,0.48657 2.1247,0.81763 z"
     fill="#1b6cc9"
     id="path173" />
  <path
     d="m 21.9866,8.78935 -4.0009,2.36195 v -0.0377 l -0.0111,0.0067 V 6.4126 Z"
     fill="#196dd5"
     id="path174" />
  <path
     d="m 21.9818,13.5413 -3.9935,2.3575 v -0.0044 l 3.9898,-2.3553 z"
     fill="#1d6cda"
     id="path175" />
  <path
     d="m 21.9781,13.539 -3.9899,2.3553 v -0.0155 l -0.0214,0.0126 v -8e-4 l 0.0207,-0.0126 -0.0207,-0.0125 v -8e-4 l 0.0185,0.0111 v -4.7025 z"
     fill="#1d6cda"
     id="path176" />
  <path
     d="m 18.01,20.6567 0.0037,0.0023 -0.0222,0.0125 -0.0037,-0.0022 z"
     fill="#205ec0"
     id="path177" />
  <path
     d="m 17.9878,20.6436 0.0222,0.0133 -0.0222,0.0125 z"
     fill="#205ec0"
     id="path178" />
  <path
     d="m 17.9901,25.3999 0.0038,0.0023 -0.0023,0.0015 -0.0038,-0.0023 z"
     fill="#1f4fb2"
     id="path179" />
  <path
     d="m 17.992,20.6719 -0.0042,0.0026 v -0.0051 z"
     fill="#205ec0"
     id="path180" />
  <path
     d="m 17.992,25.4039 -0.0042,0.0025 V 25.403 25.4014 Z"
     fill="#205bc0"
     id="path181" />
  <path
     d="M 17.9878,25.3984 17.9902,25.4 17.9878,25.4016 Z"
     fill="#205bc0"
     id="path182" />
  <path
     d="m 17.9885,15.9194 v 4.721 h -7e-4 v -7e-4 -0.0037 -4.7166 z"
     fill="#1d5ac0"
     id="path183" />
  <path
     d="m 17.9886,15.9122 v 0.0077 h -8e-4 v -0.0085 z"
     fill="#1d5ac0"
     id="path184" />
  <path
     d="m 17.9884,15.8989 v 0.0133 l -7e-4,-7e-4 v 0.0081 l -0.017,-0.0103 z"
     fill="#1d5ac0"
     id="path185" />
  <path
     d="m 17.9882,15.8943 v 0.0044 l -0.0177,0.0104 -0.0037,-0.0022 z"
     fill="#1d5ac0"
     id="path186" />
  <path
     d="m 17.9882,15.8789 v 0.0155 l -0.0214,0.0126 v -0.0155 z"
     fill="#1d5ac0"
     id="path187" />
  <path
     d="m 17.9875,25.4058 v 4.3328 c -0.1972,0.0296 -0.3968,0.0542 -0.5988,0.0739 l -3.4273,-2.0307 z"
     fill="#1d5bc3"
     id="path188" />
  <path
     d="m 17.9877,20.6736 v 4.724 l -4.0224,-2.3827 4.0224,-2.3745 v 0.0029 0.0259 z"
     fill="#1d50ab"
     id="path189" />
  <path
     d="m 17.9884,20.64 v 9e-4 l -0.0045,-0.0027 z"
     fill="#1d50ab"
     id="path190" />
  <path
     d="m 17.9884,20.636 v 0.0045 l -0.0045,-0.0018 z"
     fill="#1d50ab"
     id="path191" />
  <path
     d="m 17.9877,15.9194 v 4.7166 l -0.0037,0.0022 -4.0216,-2.3827 4.0046,-2.3641 v 0.0155 0.0044 l 0.0037,-0.0022 z"
     fill="#1d5ac0"
     id="path192" />
  <path
     d="m 17.9875,15.878 -0.0207,0.0126 v -0.0251 z"
     fill="#1e63d1"
     id="path193" />
  <path
     d="m 17.9875,20.6404 -4.0224,2.3745 -0.0037,-0.0022 4.0224,-2.3745 z"
     fill="#1d50ab"
     id="path194" />
  <path
     d="m 17.9875,25.403 -4.0261,2.3767 V 23.024 l 0.003,-0.0015 -0.003,-0.0015 v -0.0037 z"
     fill="#1e4cb2"
     id="path195" />
  <path
     d="m 17.9853,11.1734 v 4.7025 l -0.0185,-0.0111 v -4.698 l 0.0037,-0.0022 z"
     fill="#1e63d1"
     id="path196" />
  <path
     d="m 17.9864,11.1603 v 0.0142 l -0.0157,-0.0095 0.0118,-0.007 z"
     fill="#1e63d1"
     id="path197" />
  <path
     d="m 17.9861,11.1558 v 0.005 l -0.0042,-0.0025 z"
     fill="#1e63d1"
     id="path198" />
  <path
     d="M 17.9861,11.1511 V 11.156 L 17.9821,11.1584 17.978,11.156 Z"
     fill="#1e63d1"
     id="path199" />
  <path
     d="m 17.9853,11.1135 v 0.0377 l -0.0074,0.0045 -0.0111,-0.0067 v -0.0236 l 0.0074,-0.0045 v -7e-4 z"
     fill="#1e63d1"
     id="path200" />
  <path
     d="m 13.9622,18.2556 4.0216,2.3827 -4.0224,2.3745 v -4.752 l 0.003,-0.0015 -0.003,-0.0015 v -7e-4 -0.0022 z"
     fill="#205bbd"
     id="path201" />
  <path
     d="m 17.9825,11.1581 -0.0118,0.0071 -0.0039,-0.0024 0.0118,-0.007 z"
     fill="#1e63d1"
     id="path202" />
  <path
     d="m 17.9786,11.156 -0.0118,0.0071 v -0.0142 z"
     fill="#1e63d1"
     id="path203" />
  <path
     d="m 17.9743,11.1201 v 7e-4 l -7e-4,-7e-4 z"
     fill="#1a5acb"
     id="path204" />
  <path
     d="m 17.9742,6.41262 v 4.70768 h -7e-4 L 17.9668,11.1166 V 6.41262 L 17.9705,6.4104 Z"
     fill="#1a5acb"
     id="path205" />
  <path
     d="M 17.9752,6.40894 V 6.41342 L 17.9707,6.41073 17.9743,6.40894 Z"
     fill="#196bd2"
     id="path206" />
  <path
     d="m 17.9743,6.4082 v 6.4e-4 h -7e-4 z"
     fill="#196bd2"
     id="path207" />
  <path
     d="m 17.9738,6.40356 v 0.00412 l -6e-4,6.9e-4 -0.0035,-0.00206 z"
     fill="#196bd2"
     id="path208" />
  <path
     d="m 17.9742,6.35864 v 0.0451 L 17.9698,6.4067 17.9668,6.40448 v -0.0414 z"
     fill="#1a5acb"
     id="path209" />
  <path
     d="M 17.9742,2.36283 V 6.35489 L 17.9668,6.35045 V 2.3584 c 0.0029,5.6e-4 0.0055,0.00213 0.0074,0.00443 z"
     fill="#165cc8"
     id="path210" />
  <path
     d="m 17.9749,11.1209 -0.0081,0.0049 v -8e-4 l 0.0073,-0.0049 z"
     fill="#1a61cb"
     id="path211" />
  <path
     d="m 17.97,6.40649 0.0041,0.00243 -0.0033,0.00162 -0.004,-0.00243 z"
     fill="#196bd2"
     id="path212" />
  <path
     d="m 17.9738,11.1203 -0.007,0.0047 v -0.0085 z"
     fill="#1a61cb"
     id="path213" />
  <path
     d="M 17.971,6.41071 17.9668,6.41322 V 6.4082 Z"
     fill="#1a5acb"
     id="path214" />
  <path
     d="m 17.971,11.1649 -0.0042,0.0025 v -0.005 z"
     fill="#1e63d1"
     id="path215" />
  <path
     d="M 17.971,15.9095 17.9668,15.912 V 15.907 Z"
     fill="#1d5ac0"
     id="path216" />
  <path
     d="m 17.9668,6.4043 0.0036,0.00269 -0.0036,0.00179 z"
     fill="#1a5acb"
     id="path217" />
  <path
     d="m 17.9668,15.8655 v 0.0251 l -4.0054,2.3642 v -4.7624 z"
     fill="#1e63d1"
     id="path218" />
  <path
     d="m 17.9668,11.1666 v 4.6981 L 13.96,13.4909 17.9668,11.1252 v 0.0237 0.0133 z"
     fill="#1e63d1"
     id="path219" />
  <path
     d="m 17.9671,11.1245 v 8e-4 l -4.0069,2.3656 -7e-4,-7e-4 z"
     fill="#1a61cb"
     id="path220" />
  <path
     d="m 17.9668,11.1165 v 0.0081 l -4.0076,2.3657 8e-4,7e-4 -0.0015,8e-4 V 8.74121 Z"
     fill="#1a61cb"
     id="path221" />
  <path
     d="M 17.9671,6.41257 V 11.1165 L 13.9588,8.74127 V 8.73831 L 13.9558,8.73979 13.9536,8.73831 13.9588,8.73535 13.9536,8.73239 17.9671,6.36304 v 0.0414 0.00369 z"
     fill="#1a5acb"
     id="path222" />
  <path
     d="M 17.9669,2.36215 V 6.3542 L 13.9482,3.97375 16.8728,2.24756 c 0.3696,0.02366 0.7326,0.06136 1.0941,0.11459 z"
     fill="#165cc8"
     id="path223" />
  <path
     d="M 17.9655,6.35262 13.9439,8.72641 13.9395,8.7242 V 3.97513 l 0.0066,-0.00369 z"
     fill="#1b61ce"
     id="path224" />
  <path
     d="m 13.9648,27.7893 3.4169,2.0249 c -1.1376,0.1154 -2.2852,0.0905 -3.4169,-0.074 z"
     fill="#1a5bbd"
     id="path225" />
  <path
     d="M 16.8662,2.24666 13.9461,3.97137 13.9395,3.96694 V 2.3679 c 0.6733,-0.09912 1.3531,-0.14853 2.0337,-0.14786 0.3001,-9.8e-4 0.5978,0.00789 0.893,0.02662 z"
     fill="#186cc7"
     id="path226" />
  <path
     d="m 13.9656,23.0152 -0.0042,0.0025 v -0.005 z"
     fill="#205bbd"
     id="path227" />
  <path
     d="m 13.9642,27.7878 v 0.0014 l -0.0013,-7e-4 z"
     fill="#1b5dbf"
     id="path228" />
  <path
     d="M 13.9646,18.2594 13.9614,18.261 V 18.2578 Z"
     fill="#1d5ecc"
     id="path229" />
  <path
     d="m 13.9646,23.0226 -0.0032,0.0016 V 23.021 Z"
     fill="#1c52bc"
     id="path230" />
  <path
     d="m 13.9628,27.7885 -0.0014,7e-4 v -0.0014 z"
     fill="#1a5bbd"
     id="path231" />
  <path
     d="m 13.9618,27.7893 v 1.9502 c -0.8005,-0.1162 -1.5892,-0.303 -2.3568,-0.5581 z"
     fill="#1b5dbf"
     id="path232" />
  <path
     d="m 13.9617,23.0212 v 0.0033 l -0.0032,0.0024 v -0.0081 z"
     fill="#1c52bc"
     id="path233" />
  <path
     d="m 13.9617,18.258 v 0.0033 l -0.0032,0.0024 v -0.0081 l 0.0032,0.0016 z"
     fill="#1d5ecc"
     id="path234" />
  <path
     d="m 13.9616,27.784 -2.3657,1.395 C 11.0301,28.9911 10.4772,28.7664 9.94072,28.5062 V 25.4087 H 9.93555 9.94072 9.93555 Z"
     fill="#1b5abf"
     id="path235" />
  <path
     d="m 13.9588,23.0261 v 4.7535 L 9.94092,25.3984 v -7e-4 z"
     fill="#1d54ba"
     id="path236" />
  <path
     d="m 13.9588,23.0188 v 0.0074 l -4.01788,2.3716 v -0.0082 l 4.01648,-2.3715 z"
     fill="#1c52bc"
     id="path237" />
  <path
     d="m 13.9584,23.0173 v 0.0014 l -0.0014,-7e-4 z"
     fill="#1d54ba"
     id="path238" />
  <path
     d="m 13.9588,18.2629 v 4.7543 L 9.94092,20.6367 v -7e-4 -0.0015 z"
     fill="#1a4fc6"
     id="path239" />
  <path
     d="M 13.9588,18.2556 V 18.263 L 9.94092,20.6346 V 20.6272 L 13.9581,18.2556 Z"
     fill="#1a4fc6"
     id="path240" />
  <path
     d="m 13.9586,18.2549 v 6e-4 h -6e-4 z"
     fill="#1a4fc6"
     id="path241" />
  <path
     d="m 13.9588,13.5005 v 4.7542 L 9.94092,15.8743 v -7e-4 -0.0045 l 4.01498,-2.3708 z"
     fill="#1d64d1"
     id="path242" />
  <path
     d="m 13.9592,13.4968 v 0.0045 l -0.0036,-0.0027 z"
     fill="#1d64d1"
     id="path243" />
  <path
     d="m 13.9593,13.4924 v 0.0051 l -0.0042,-0.0026 z"
     fill="#1d64d1"
     id="path244" />
  <path
     d="m 13.9591,13.4917 v 8e-4 l -0.0042,0.0025 -8e-4,-8e-4 z"
     fill="#1b64d3"
     id="path245" />
  <path
     d="m 13.9586,8.74122 v 4.75058 l -0.0044,0.0022 -0.006,-0.003 V 8.74418 l 0.0074,-0.00443 z"
     fill="#1b64d3"
     id="path246" />
  <path
     d="M 13.9587,8.73828 V 8.74144 L 13.9556,8.73986 Z"
     fill="#1a5acb"
     id="path247" />
  <path
     d="M 13.9591,8.73552 13.9537,8.73863 13.9482,8.73552 13.9537,8.73242 Z"
     fill="#1a5acb"
     id="path248" />
  <path
     d="m 13.9594,13.4971 -0.0032,0.0016 -0.0041,-0.0025 0.0033,-0.0016 z"
     fill="#1763d1"
     id="path249" />
  <path
     d="m 9.94092,15.8752 4.01718,2.3805 -4.01718,2.3716 v -4.7491 z"
     fill="#1d5ecc"
     id="path250" />
  <path
     d="M 13.9574,23.0179 9.94092,25.3895 V 20.6404 20.6382 Z"
     fill="#1c52bc"
     id="path251" />
  <path
     d="M 13.9563,8.7399 13.9482,8.74475 V 8.74152 l 0.0057,-0.00324 z"
     fill="#1a61cb"
     id="path252" />
  <path
     d="M 13.9559,13.4983 9.94092,15.8691 V 15.8647 L 13.9522,13.4961 Z"
     fill="#1763d1"
     id="path253" />
  <path
     d="m 13.9557,13.4948 -0.0036,0.0018 h -9e-4 l 0.0036,-0.0027 z"
     fill="#1763d1"
     id="path254" />
  <path
     d="m 13.9544,13.494 -0.0031,0.0023 -0.0031,-0.0015 V 13.491 Z"
     fill="#1763d1"
     id="path255" />
  <path
     d="M 13.9537,8.73241 13.9485,8.73537 V 8.74128 L 9.94092,11.1077 V 6.36823 L 9.94387,6.36675 9.94092,6.36527 V 6.36453 L 9.94387,6.36601 V 6.36157 l 3.99573,2.36788 0.0045,-0.00296 z"
     fill="#1959c6"
     id="path256" />
  <path
     d="M 13.9536,8.73843 13.9482,8.7415 V 8.73535 Z"
     fill="#1959c6"
     id="path257" />
  <path
     d="m 13.9522,13.4961 -4.01128,2.3686 v -4.7446 l 4.00758,2.3745 v 0.003 l 0.003,-0.0015 z"
     fill="#1763d1"
     id="path258" />
  <path
     d="m 13.9514,13.4962 -0.0032,0.0016 v -0.0032 z"
     fill="#1763d1"
     id="path259" />
  <path
     d="m 13.9485,13.491 v 0.0037 L 9.94092,11.1202 v -8e-4 -0.0029 z"
     fill="#1763d1"
     id="path260" />
  <path
     d="M 13.9485,8.74414 V 13.491 L 9.94092,11.1165 V 11.112 11.1105 Z"
     fill="#1b64d3"
     id="path261" />
  <path
     d="M 13.9395,3.96704 13.9464,3.9717 13.9395,3.97557 V 3.9717 Z"
     fill="#186cc7"
     id="path262" />
  <path
     d="M 13.9436,8.72618 13.9395,8.72892 V 8.72412 Z"
     fill="#1959c6"
     id="path263" />
  <path
     d="M 13.9396,8.72432 V 8.7295 L 9.94385,6.36162 V 6.35645 Z"
     fill="#1959c6"
     id="path264" />
  <path
     d="M 13.9396,3.97512 V 8.72418 L 9.94385,6.3563 V 6.33043 L 13.9366,3.9729 Z"
     fill="#1959c6"
     id="path265" />
  <path
     d="M 13.9401,3.97144 V 3.97592 L 13.9365,3.97323 Z"
     fill="#165dbb"
     id="path266" />
  <path
     d="M 13.9397,3.96704 V 3.97206 L 13.9355,3.96955 Z"
     fill="#165dbb"
     id="path267" />
  <path
     d="M 13.9396,2.36792 V 3.96696 H 13.9359 L 11.9731,2.80557 c 0.6438,-0.19418 1.3011,-0.34046 1.9665,-0.43765 z"
     fill="#165dbb"
     id="path268" />
  <path
     d="M 13.9399,3.97166 13.9367,3.97328 13.9326,3.97086 13.9359,3.96924 Z"
     fill="#1457bc"
     id="path269" />
  <path
     d="M 13.9366,3.97292 9.94385,6.33045 V 6.32601 L 13.9329,3.9707 Z"
     fill="#1457bc"
     id="path270" />
  <path
     d="M 13.9357,3.96926 11.9678,2.80713 h 0.0044 z"
     fill="#1457bc"
     id="path271" />
  <path
     d="M 13.933,3.97074 9.94092,6.32605 V 3.59889 C 10.5936,3.28173 11.2704,3.01697 11.965,2.80713 Z"
     fill="#1457bc"
     id="path272" />
  <path
     d="M 9.94399,6.36165 V 6.36626 L 9.94092,6.36472 V 6.36011 Z"
     fill="#135cc0"
     id="path273" />
  <path
     d="m 9.9444,6.35668 v 0.0055 L 9.94126,6.36061 V 6.35825 L 9.93969,6.35904 9.93262,6.35511 v -0.0055 z"
     fill="#135cc0"
     id="path274" />
  <path
     d="M 9.94361,6.33057 V 6.35644 L 9.93252,6.34979 V 6.35496 L 9.91699,6.34609 Z"
     fill="#135cc0"
     id="path275" />
  <path
     d="M 9.94388,6.32593 V 6.33036 L 9.91727,6.34589 9.91357,6.34367 Z"
     fill="#135cc0"
     id="path276" />
  <path
     d="M 9.94389,3.59888 V 6.32826 L 9.91357,6.346 V 3.61366 Z"
     fill="#135cc0"
     id="path277" />
  <path
     d="M 9.94407,6.36681 9.94092,6.36839 V 6.36523 Z"
     fill="#1251bd"
     id="path278" />
  <path
     d="m 9.94072,25.4065 v 3.0997 H 9.93555 v -3.0968 z"
     fill="#1d56bb"
     id="path279" />
  <path
     d="m 9.9408,25.3896 v 0.0086 8e-4 h -7.7e-4 l -0.00155,-8e-4 v -8e-4 -0.007 z"
     fill="#1d49bc"
     id="path280" />
  <path
     d="m 9.94069,20.6404 v 4.749 l -0.00221,8e-4 v -4.7483 z"
     fill="#1d49bc"
     id="path281" />
  <path
     d="m 9.94117,20.6385 v 0.0027 L 9.93848,20.6394 v -0.0018 l 8.9e-4,-9e-4 z"
     fill="#1d49bc"
     id="path282" />
  <path
     d="m 9.94124,20.6369 v 0.0018 l -0.00179,-0.0018 9e-4,-9e-4 h 8.9e-4 z"
     fill="#1d49bc"
     id="path283" />
  <path
     d="m 9.94061,20.6345 v 0.0014 h -6.7e-4 v -7e-4 z"
     fill="#1d4dbe"
     id="path284" />
  <path
     d="m 9.9408,20.6272 v 0.0078 l -7.7e-4,7e-4 h -7.8e-4 -7.7e-4 v -7e-4 -0.007 z"
     fill="#1d4dbe"
     id="path285" />
  <path
     d="m 9.94069,15.8782 v 4.749 l -0.00221,8e-4 v -4.7483 z"
     fill="#1d4dbe"
     id="path286" />
  <path
     d="M 9.94117,15.8754 V 15.879 L 9.93848,15.8772 v -0.0018 l 8.9e-4,-9e-4 h 0.0018 z"
     fill="#1d4dbe"
     id="path287" />
  <path
     d="m 9.94155,15.8691 v 0.0051 h -8.4e-4 l -0.00168,-9e-4 -0.00251,-0.0016 z"
     fill="#1d68d0"
     id="path288" />
  <path
     d="m 9.94115,15.8647 v 0.0047 L 9.9365,15.8717 9.93262,15.8694 Z"
     fill="#1d68d0"
     id="path289" />
  <path
     d="m 9.94075,11.1201 v 4.7447 l -0.00813,0.0044 v -4.7483 l 0.00517,-0.003 h 7.4e-4 l 0.00222,0.0015 z"
     fill="#1d68d0"
     id="path290" />
  <path
     d="m 9.94084,11.1165 v 0.0031 L 9.93848,11.118 Z"
     fill="#1d68d0"
     id="path291" />
  <path
     d="m 9.9412,11.1121 v 0.005 L 9.93701,11.1146 Z"
     fill="#1d68d0"
     id="path292" />
  <path
     d="m 9.94035,11.1106 v 0.0014 l -0.00343,0.002 -0.00137,-7e-4 z"
     fill="#185ecb"
     id="path293" />
  <path
     d="m 9.94168,11.1077 v 0.0032 L 9.93602,11.1141 9.93359,11.1125 Z"
     fill="#185ecb"
     id="path294" />
  <path
     d="m 9.94075,6.36816 v 4.73944 l -0.00739,0.0045 -7.4e-4,-8e-4 V 6.37334 Z"
     fill="#185ecb"
     id="path295" />
  <path
     d="M 9.94126,6.3655 V 6.36864 L 9.93262,6.37414 V 6.36236 l 0.00235,-7.9e-4 0.00629,0.00314 z"
     fill="#1251bd"
     id="path296" />
  <path
     d="M 9.94093,6.36018 V 6.3648 L 9.93555,6.36095 9.93939,6.35864 Z"
     fill="#135cc0"
     id="path297" />
  <path
     d="M 9.94124,6.35791 V 6.36059 L 9.93945,6.3588 Z"
     fill="#135cc0"
     id="path298" />
  <path
     d="M 9.93583,6.36084 9.94121,6.36469 9.93506,6.36161 Z"
     fill="#185ecb"
     id="path299" />
  <path
     d="M 9.93737,11.1143 9.94121,11.1166 9.9389,11.1181 H 9.93813 L 9.93506,11.1158 Z"
     fill="#1b65ce"
     id="path300" />
  <path
     d="m 9.94058,15.8738 v 6e-4 l -6.4e-4,-6e-4 z"
     fill="#1d4dbe"
     id="path301" />
  <path
     d="M 9.9408,15.8745 H 9.93945 l 6.8e-4,-7e-4 z"
     fill="#1d4dbe"
     id="path302" />
  <path
     d="M 9.94084,15.8783 9.93848,15.8799 V 15.8767 Z"
     fill="#1c5fca"
     id="path303" />
  <path
     d="M 9.94084,20.6405 9.93848,20.6421 V 20.6389 Z"
     fill="#1d49bc"
     id="path304" />
  <path
     d="M 9.94093,25.4037 9.93555,25.4068 V 25.4006 Z"
     fill="#1d53bb"
     id="path305" />
  <path
     d="m 9.94009,20.6353 v 6e-4 l -6.4e-4,-6e-4 z"
     fill="#1a4fc6"
     id="path306" />
  <path
     d="M 9.93982,15.8737 H 9.93848 v -7e-4 z"
     fill="#1d68d0"
     id="path307" />
  <path
     d="m 9.93982,25.3984 -0.00134,6e-4 v -0.0013 z"
     fill="#1c52bc"
     id="path308" />
  <path
     d="m 9.93848,15.8738 6.7e-4,7e-4 -6.7e-4,6e-4 z"
     fill="#1d5ecc"
     id="path309" />
  <path
     d="m 9.93911,20.6353 -6.3e-4,6e-4 v -6e-4 z"
     fill="#1d5ecc"
     id="path310" />
  <path
     d="M 9.93989,6.35878 9.93585,6.36121 9.93262,6.35959 V 6.35474 Z"
     fill="#135cc0"
     id="path311" />
  <path
     d="m 9.93909,25.3904 v 0.0073 L 9.93262,25.3944 Z"
     fill="#1d49bc"
     id="path312" />
  <path
     d="m 9.9386,20.6421 v 4.7483 l -0.00591,0.0037 -4.01423,-2.379 z"
     fill="#1d49bc"
     id="path313" />
  <path
     d="m 9.9386,20.6389 v 0.003 l -4.02014,2.373 v -0.0044 l 4.01866,-2.3723 z"
     fill="#1d49bc"
     id="path314" />
  <path
     d="m 9.93836,20.6375 v 0.0013 l -0.00135,-7e-4 z"
     fill="#1d49bc"
     id="path315" />
  <path
     d="m 9.93909,20.6279 v 0.0073 L 9.93262,20.632 Z"
     fill="#1d4dbe"
     id="path316" />
  <path
     d="M 9.9386,15.8796 V 20.628 L 9.93269,20.6317 5.91846,18.2527 Z"
     fill="#1d4dbe"
     id="path317" />
  <path
     d="m 9.9386,15.8767 v 0.003 l -4.02014,2.373 V 18.2483 L 9.93712,15.876 Z"
     fill="#1c5fca"
     id="path318" />
  <path
     d="m 9.93836,15.8752 v 0.0014 l -0.00135,-7e-4 z"
     fill="#1d4dbe"
     id="path319" />
  <path
     d="m 9.93742,11.1178 -0.0048,0.0027 v -0.0041 l 0.00137,-7e-4 h 6.8e-4 z"
     fill="#1b65ce"
     id="path320" />
  <path
     d="m 9.93629,11.1135 0.00179,9e-4 -0.00269,0.0018 h -9e-4 l -9e-4,-9e-4 z"
     fill="#1b65ce"
     id="path321" />
  <path
     d="m 9.93712,15.8758 -4.01866,2.3723 v -4.7535 l 4.01423,2.3783 7.4e-4,7e-4 z"
     fill="#1c5fca"
     id="path322" />
  <path
     d="M 9.93712,20.6383 5.91846,23.0106 V 18.3325 18.266 18.2623 18.2571 Z"
     fill="#1d4cbb"
     id="path323" />
  <path
     d="m 9.9368,15.8717 -0.00335,0.0025 -8.3e-4,-9e-4 v -0.0042 z"
     fill="#1763d1"
     id="path324" />
  <path
     d="m 9.93341,11.1121 0.00236,0.0015 -0.00236,0.0016 h -7.9e-4 v -8e-4 -0.0023 z"
     fill="#1b65ce"
     id="path325" />
  <path
     d="m 9.93561,25.4094 v 3.0924 C 9.0345,28.0639 8.18377,27.5292 7.39844,26.9072 Z"
     fill="#1d56bb"
     id="path326" />
  <path
     d="m 9.93541,25.4014 v 0.0059 L 7.39602,26.9066 C 6.87114,26.4919 6.377,26.0398 5.91748,25.5537 v -2.5312 z"
     fill="#1d53bb"
     id="path327" />
  <path
     d="M 9.93577,6.36095 9.93498,6.36174 9.93262,6.36016 v -7.8e-4 z"
     fill="#1959c6"
     id="path328" />
  <path
     d="M 9.9353,6.3619 9.93262,6.36279 V 6.36011 Z"
     fill="#1251bd"
     id="path329" />
  <path
     d="m 9.93396,11.1157 -0.00134,6e-4 V 11.115 h 6.7e-4 z"
     fill="#1b65ce"
     id="path330" />
  <path
     d="m 9.93262,11.1113 6.3e-4,7e-4 h -6.3e-4 z"
     fill="#185ecb"
     id="path331" />
  <path
     d="m 9.93269,11.1208 v 4.7484 L 5.91846,13.4909 Z"
     fill="#1d68d0"
     id="path332" />
  <path
     d="m 9.93269,11.1165 v 0.0044 L 5.91846,13.491 v -0.0044 z"
     fill="#1b65ce"
     id="path333" />
  <path
     d="m 9.93269,11.115 v 0.0015 L 5.91846,13.4866 V 13.4304 13.4267 13.4223 8.7427 L 5.92363,8.73975 9.93269,11.1143 Z"
     fill="#1b65ce"
     id="path334" />
  <path
     d="m 9.9324,11.1121 v 0.0022 L 5.92334,8.73976 5.9263,8.73828 9.9324,11.1113 Z"
     fill="#1b65ce"
     id="path335" />
  <path
     d="M 9.93286,6.37329 V 11.1113 L 5.92676,8.73821 Z"
     fill="#185ecb"
     id="path336" />
  <path
     d="M 9.93245,6.3623 V 6.37339 L 5.92635,8.73832 5.91748,8.73314 V 8.7324 Z"
     fill="#1251bd"
     id="path337" />
  <path
     d="M 9.93245,6.35996 5.91748,8.73006 V 6.54996 C 6.44941,5.98752 7.02757,5.47068 7.64589,5.00488 v 0 l 2.2666,1.34325 z"
     fill="#1251bd"
     id="path338" />
  <path
     d="M 9.93254,6.35482 V 6.35925 L 9.91406,6.34817 9.91702,6.34595 Z"
     fill="#135cc0"
     id="path339" />
  <path
     d="M 9.91776,6.34626 9.91441,6.34877 H 9.91357 V 6.34375 Z"
     fill="#135cc0"
     id="path340" />
  <path
     d="M 9.91357,6.34365 V 6.34808 L 7.64697,5.00483 C 8.35578,4.46891 9.11486,4.00297 9.91357,3.61353 Z"
     fill="#135cc0"
     id="path341" />
  <path
     d="M 5.91748,8.73315 5.92679,8.73858 5.92369,8.74014 5.91748,8.73626 Z"
     fill="#1b65ce"
     id="path342" />
  <path
     d="M 5.92395,8.74013 5.91829,8.74336 V 8.74255 L 5.91748,8.74174 V 8.73608 Z"
     fill="#1b65ce"
     id="path343" />
  <path
     d="m 5.91825,23.0356 v 2.5173 l -0.0037,-0.0037 v -2.5136 z"
     fill="#1945ac"
     id="path344" />
  <path
     d="m 5.91848,23.0225 v 0.0141 L 5.91455,23.0342 v -0.0094 z"
     fill="#1945ac"
     id="path345" />
  <path
     d="m 5.91812,23.0217 v 7e-4 l -6.4e-4,-7e-4 z"
     fill="#1945ac"
     id="path346" />
  <path
     d="m 5.91904,23.0208 v 0.0018 h -9e-4 L 5.91455,23.0208 v -0.0027 z"
     fill="#1943a8"
     id="path347" />
  <path
     d="m 5.91834,23.0151 v 0.0052 H 5.91465 L 3.22149,21.4249 C 3.05146,21.0213 2.90015,20.6085 2.76758,20.1867 L 5.8629,18.3 5.91465,18.3304 v 4.6869 z"
     fill="#1943a8"
     id="path348" />
  <path
     d="m 5.91874,23.0105 v 0.005 L 5.91455,23.013 Z"
     fill="#1943a8"
     id="path349" />
  <path
     d="m 5.91825,18.3325 v 4.6781 l -0.0037,0.0023 v -4.6826 z"
     fill="#1943a8"
     id="path350" />
  <path
     d="m 5.91825,18.2659 v 0.0665 l -0.0037,-0.0022 v -0.0621 z"
     fill="#1943a8"
     id="path351" />
  <path
     d="m 5.9184,18.2622 v 0.0039 l -0.00385,0.0023 v -0.0039 z"
     fill="#1950bd"
     id="path352" />
  <path
     d="M 5.91859,18.2573 V 18.263 L 5.91455,18.2605 v -0.0056 z"
     fill="#1950bd"
     id="path353" />
  <path
     d="m 5.91874,18.2527 v 0.005 L 5.91455,18.2552 Z"
     fill="#1950bd"
     id="path354" />
  <path
     d="m 5.91874,18.2483 v 0.005 L 5.91455,18.2508 Z"
     fill="#1950bd"
     id="path355" />
  <path
     d="m 5.91825,13.4946 v 4.7535 l -0.0037,0.0023 v -4.7572 h 7.4e-4 z"
     fill="#1950bd"
     id="path356" />
  <path
     d="m 5.91912,13.491 v 0.0045 L 5.91553,13.4937 Z"
     fill="#1950bd"
     id="path357" />
  <path
     d="m 5.91874,13.4866 v 0.005 L 5.91455,13.4891 Z"
     fill="#1950bd"
     id="path358" />
  <path
     d="m 5.91825,13.4304 v 0.0562 l -0.0037,0.0022 V 13.429 h 7.4e-4 z"
     fill="#1950bd"
     id="path359" />
  <path
     d="m 5.91912,13.4268 v 0.0044 L 5.91553,13.4294 Z"
     fill="#1950bd"
     id="path360" />
  <path
     d="m 5.91874,13.4224 v 0.005 L 5.91455,13.4249 Z"
     fill="#1950bd"
     id="path361" />
  <path
     d="m 5.91825,8.74268 v 4.67952 l -0.0037,0.0023 V 8.74415 l 0.00222,-0.00147 7.4e-4,7.3e-4 z"
     fill="#1b5cc4"
     id="path362" />
  <path
     d="m 5.91815,8.74194 v 6.8e-4 l -6.7e-4,6.7e-4 v -6.7e-4 z"
     fill="#1b5cc4"
     id="path363" />
  <path
     d="m 5.91815,8.74188 -6.7e-4,6.7e-4 V 8.74121 Z"
     fill="#144dae"
     id="path364" />
  <path
     d="m 5.91874,13.4271 -0.00335,0.0025 -8.4e-4,-9e-4 v -0.0041 z"
     fill="#1755c1"
     id="path365" />
  <path
     d="m 5.91874,13.4913 -0.00335,0.0025 -8.4e-4,-8e-4 v -0.0042 z"
     fill="#1950bd"
     id="path366" />
  <path
     d="m 5.91874,18.253 -0.00419,0.0025 v -0.005 z"
     fill="#1950bd"
     id="path367" />
  <path
     d="M 5.91874,18.2625 5.91455,18.265 V 18.26 Z"
     fill="#1c51bb"
     id="path368" />
  <path
     d="m 5.91874,23.0152 -0.00419,0.0025 v -0.005 z"
     fill="#1943a8"
     id="path369" />
  <path
     d="m 5.91904,23.0226 -0.00449,0.0027 v -9e-4 l 0.00359,-0.0027 z"
     fill="#1945ac"
     id="path370" />
  <path
     d="M 5.91814,23.0221 5.91455,23.0247 V 23.0203 Z"
     fill="#19389e"
     id="path371" />
  <path
     d="m 5.91763,8.74268 v 6.3e-4 l -6.4e-4,-6.3e-4 z"
     fill="#185fb8"
     id="path372" />
  <path
     d="M 5.91771,8.74132 V 8.7429 H 5.91692 L 5.91455,8.74211 V 8.73975 Z"
     fill="#144dae"
     id="path373" />
  <path
     d="M 5.91779,8.73624 V 8.7419 L 5.91455,8.74028 V 8.73462 Z"
     fill="#185fb8"
     id="path374" />
  <path
     d="M 5.91771,8.73315 V 8.73631 L 5.91455,8.73473 Z"
     fill="#185fb8"
     id="path375" />
  <path
     d="m 5.91814,8.73275 v 9e-4 L 5.91455,8.73544 V 8.73096 Z"
     fill="#185fb8"
     id="path376" />
  <path
     d="m 5.91769,6.55005 v 2.1801 0.00887 L 4.70898,8.02267 C 5.07783,7.5048 5.48167,7.01278 5.91769,6.55005 Z"
     fill="#185fb8"
     id="path377" />
  <path
     d="M 5.91723,8.74284 5.91455,8.74463 V 8.74194 Z"
     fill="#144dae"
     id="path378" />
  <path
     d="m 5.91455,13.4924 6.4e-4,7e-4 h -6.4e-4 z"
     fill="#1950bd"
     id="path379" />
  <path
     d="m 5.91455,13.4282 6.4e-4,7e-4 h -6.4e-4 z"
     fill="#1755c1"
     id="path380" />
  <path
     d="m 5.91486,23.0357 v 2.5135 C 5.41112,25.0162 4.95058,24.4439 4.5376,23.8378 l 1.36912,-0.8087 z"
     fill="#1945ac"
     id="path381" />
  <path
     d="M 5.91498,23.0247 V 23.034 L 5.90723,23.0293 Z"
     fill="#1945ac"
     id="path382" />
  <path
     d="m 5.91527,23.0239 v 8e-4 l -0.00776,0.0047 h -7.7e-4 z"
     fill="#1945ac"
     id="path383" />
  <path
     d="M 5.91484,23.0201 5.9067,23.0253 3.25568,21.5046 C 3.24385,21.478 3.23277,21.4514 3.22168,21.4248 Z"
     fill="#19389e"
     id="path384" />
  <path
     d="m 5.91454,18.2681 v 0.0621 L 5.86279,18.2999 Z"
     fill="#1943a8"
     id="path385" />
  <path
     d="m 5.91457,18.2644 v 0.0037 L 5.86282,18.2999 5.85986,18.2977 Z"
     fill="#1950bd"
     id="path386" />
  <path
     d="m 5.91461,18.2601 v 0.0044 L 5.8599,18.2978 2.13916,16.094 Z"
     fill="#1c51bb"
     id="path387" />
  <path
     d="m 5.91461,18.2549 v 0.0052 L 2.13916,16.0925 v -0.0406 c 0,-0.0858 0,-0.1715 0,-0.2573 L 5.90943,13.429 v 0.0635 4.7617 z"
     fill="#1950bd"
     id="path388" />
  <path
     d="M 5.91491,13.4253 2.14464,15.791 c -3.9e-4,-7e-4 -6e-4,-0.0014 -6e-4,-0.0022 0,-8e-4 2.1e-4,-0.0016 6e-4,-0.0022 l 3.77027,-2.3657 z"
     fill="#1755c1"
     id="path389" />
  <path
     d="M 5.91521,13.4246 V 13.429 L 5.91162,13.4273 Z"
     fill="#1755c1"
     id="path390" />
  <path
     d="M 5.91462,8.74414 V 13.4252 L 2.84961,11.6657 C 3.01498,11.1704 3.20849,10.6849 3.4292,10.2116 Z"
     fill="#1b5cc4"
     id="path391" />
  <path
     d="M 5.91462,8.74196 3.4292,10.2087 C 3.7872,9.4446 4.2143,8.71486 4.70517,8.02856 Z"
     fill="#144dae"
     id="path392" />
  <path
     d="M 5.91453,8.73974 4.70508,8.02856 Z"
     fill="#144dae"
     id="path393" />
  <path
     d="M 5.91487,13.4252 2.84912,11.668 Z"
     fill="#1755c1"
     id="path394" />
  <path
     d="M 5.91187,13.4252 2.1416,15.7909 c 0.02402,-1.4021 0.26235,-2.7922 0.70674,-4.1222 z"
     fill="#1755c1"
     id="path395" />
  <path
     d="M 5.90672,23.0291 4.5376,23.8378 Z"
     fill="#1945ac"
     id="path396" />
  <path
     d="M 5.90639,23.029 4.53653,23.837 C 4.03519,23.1027 3.60614,22.3216 3.25537,21.5046 Z"
     fill="#19389e"
     id="path397" />
  <path
     d="M 5.85795,18.2978 2.76411,20.1807 C 2.35136,18.8576 2.14003,17.48 2.13721,16.094 Z"
     fill="#1c51bb"
     id="path398" />
  <path
     d="M 1.89429,11.1168 1.8916,11.1195 V 11.115 Z"
     fill="#1755c1"
     id="path399" />
  <path
     style="mix-blend-mode:multiply;fill:url(#paint0_radial_1185_2)"
     opacity="0.15"
     d="m 16.0002,2.21851 c 7.6403,0 13.8332,6.19359 13.8332,13.83319 10e-5,1.8166 -0.3576,3.6155 -1.0528,5.2939 -0.6951,1.6783 -1.7141,3.2033 -2.9986,4.4879 -1.2846,1.2845 -2.8096,2.3035 -4.488,2.9986 -1.6783,0.6952 -3.4772,1.0529 -5.2938,1.0528 -7.63961,0 -13.83321,-6.1928 -13.83321,-13.8332"
     fill="url(#paint0_radial_1185_2)"
     id="path400" />
  <path
     d="m 23.5766,10.7045 -2.3656,2.0412 c 0,0 -1.6671,-3.15598 -5.2488,-2.88688 -3.5818,0.26908 -5.8868,3.37698 -5.5113,6.65338 0.3756,3.2765 2.464,4.4785 2.464,4.4785 0,0 2.8196,2.3088 6.2306,0.3216 0,0 1.3691,-0.7518 2.4166,-2.39 l 2.3657,1.8533 c 0,0 -2.6052,4.4844 -8.0832,4.1621 0,0 -6.1226,0 -8.16372,-6.4176 0,0 -0.88712,-3.3304 0.32232,-5.9622 0,0 1.9221,-5.23625 7.9982,-5.50461 -0.0015,-7.4e-4 4.4067,-0.42951 7.5752,3.65121 z"
     fill="#ffffff"
     id="path401" />
  <defs
     id="defs408">
    <radialGradient
       id="paint0_radial_1185_2"
       cx="0"
       cy="0"
       r="1"
       gradientUnits="userSpaceOnUse"
       gradientTransform="matrix(17.2257,0,0,17.2257,16.0002,16.0517)">
      <stop
         offset="0.56"
         stop-color="white"
         stop-opacity="0"
         id="stop401" />
      <stop
         offset="0.61"
         stop-color="#FAFBFD"
         stop-opacity="0.02"
         id="stop402" />
      <stop
         offset="0.64"
         stop-color="#EBEDF7"
         stop-opacity="0.08"
         id="stop403" />
      <stop
         offset="0.67"
         stop-color="#D2D6ED"
         stop-opacity="0.19"
         id="stop404" />
      <stop
         offset="0.7"
         stop-color="#AEB5DE"
         stop-opacity="0.34"
         id="stop405" />
      <stop
         offset="0.73"
         stop-color="#808BCC"
         stop-opacity="0.53"
         id="stop406" />
      <stop
         offset="0.75"
         stop-color="#4959B5"
         stop-opacity="0.76"
         id="stop407" />
      <stop
         offset="0.78"
         stop-color="#10259E"
         id="stop408" />
    </radialGradient>
  </defs>
</svg>
