<svg width="136" height="32" viewBox="0 0 136 32" fill="none" xmlns="http://www.w3.org/2000/svg">
    <path fill-rule="evenodd" clip-rule="evenodd" d="M63.7892 10.8545C62.3589 10.8545 61.1298 11.396 60.1023 12.479C59.0748 13.5621 58.5612 14.8718 58.5612 16.4082C58.5612 17.3989 58.7952 18.3225 59.264 19.1788C59.7323 20.0351 60.3653 20.6963 61.1628 21.1622C61.9601 21.6282 62.8356 21.8612 63.7892 21.8612C64.7426 21.8612 65.618 21.6282 66.4155 21.1622C67.2128 20.6963 67.8458 20.0351 68.3143 19.1788C68.7829 18.3225 69.0173 17.3989 69.0173 16.4082C69.0173 14.8718 68.5013 13.5621 67.4697 12.479C66.438 11.396 65.2111 10.8545 63.7892 10.8545M63.7954 9.12915C65.855 9.12915 67.5617 9.89319 68.9158 11.4211C70.1465 12.8149 70.7621 14.4646 70.7621 16.3703C70.7621 18.2847 70.1117 19.9575 68.8111 21.389C67.5105 22.8205 65.8385 23.5361 63.7954 23.5361C61.7438 23.5361 60.0679 22.8205 58.7675 21.389C57.4667 19.9575 56.8164 18.2847 56.8164 16.3703C56.8164 14.4732 57.4318 12.8276 58.6627 11.4338C60.0165 9.89732 61.7275 9.12915 63.7954 9.12915" fill="#4DBBEB"></path>
    <path fill-rule="evenodd" clip-rule="evenodd" d="M55.8408 12.328L54.477 13.1969C53.2988 11.5934 51.6912 10.7915 49.6538 10.7915C48.0257 10.7915 46.6737 11.3284 45.5977 12.4018C44.5219 13.4751 43.984 14.7792 43.984 16.3138C43.984 17.3117 44.2315 18.2513 44.7264 19.1316C45.2214 20.0121 45.9005 20.6956 46.7637 21.1819C47.6268 21.6684 48.5943 21.9116 49.6662 21.9116C51.6297 21.9116 53.2334 21.11 54.477 19.5062L55.8408 20.4256C55.2019 21.4118 54.3438 22.1769 53.2668 22.7205C52.1896 23.2642 50.963 23.5361 49.5868 23.5361C47.4734 23.5361 45.7205 22.8478 44.3281 21.4708C42.9354 20.0939 42.2393 18.4192 42.2393 16.446C42.2393 15.1196 42.5649 13.8875 43.2161 12.7499C43.8672 11.6123 44.7621 10.7245 45.9007 10.0864C47.0392 9.44841 48.313 9.12915 49.722 9.12915C50.6067 9.12915 51.4606 9.26773 52.2839 9.54475C53.1071 9.82177 53.8052 10.1829 54.3788 10.6278C54.9519 11.073 55.4393 11.6397 55.8408 12.328" fill="#0552D6"></path>
    <path fill-rule="evenodd" clip-rule="evenodd" d="M63.7892 10.8545C62.3589 10.8545 61.1298 11.396 60.1023 12.479C59.0748 13.5621 58.5612 14.8718 58.5612 16.4082C58.5612 17.3989 58.7952 18.3225 59.264 19.1788C59.7323 20.0351 60.3653 20.6963 61.1628 21.1622C61.9601 21.6282 62.8356 21.8612 63.7892 21.8612C64.7426 21.8612 65.618 21.6282 66.4155 21.1622C67.2128 20.6963 67.8458 20.0351 68.3143 19.1788C68.7829 18.3225 69.0173 17.3989 69.0173 16.4082C69.0173 14.8718 68.5013 13.5621 67.4697 12.479C66.438 11.396 65.2111 10.8545 63.7892 10.8545M63.7954 9.12915C65.855 9.12915 67.5617 9.89319 68.9158 11.4211C70.1465 12.8149 70.7621 14.4646 70.7621 16.3703C70.7621 18.2847 70.1117 19.9575 68.8111 21.389C67.5105 22.8205 65.8385 23.5361 63.7954 23.5361C61.7438 23.5361 60.0679 22.8205 58.7675 21.389C57.4667 19.9575 56.8164 18.2847 56.8164 16.3703C56.8164 14.4732 57.4318 12.8276 58.6627 11.4338C60.0165 9.89732 61.7275 9.12915 63.7954 9.12915" fill="#0552D6"></path>
    <path fill-rule="evenodd" clip-rule="evenodd" d="M72.8057 23.1834H74.5258V9.48169H72.8057V23.1834Z" fill="#0552D6"></path>
    <path fill-rule="evenodd" clip-rule="evenodd" d="M77.2207 9.48172H78.9408V11.9375C79.6288 10.9973 80.3908 10.2941 81.2263 9.82817C82.0617 9.3622 82.971 9.12915 83.954 9.12915C84.9531 9.12915 85.8399 9.38952 86.614 9.90998C87.3882 10.4306 87.9594 11.1315 88.3281 12.013C88.6967 12.8946 88.8809 14.2673 88.8809 16.131V23.1834H87.1609V16.6474C87.1609 15.0692 87.0969 14.0153 86.9694 13.4865C86.7701 12.5797 86.3877 11.8978 85.8225 11.4401C85.2573 10.9826 84.5199 10.7537 83.6107 10.7537C82.5701 10.7537 81.6381 11.1063 80.8148 11.8116C79.9914 12.5167 79.4487 13.39 79.1867 14.4311C79.0227 15.111 78.9408 16.3537 78.9408 18.1587V23.1834H77.2207V9.48172Z" fill="#0552D6"></path>
    <path fill-rule="evenodd" clip-rule="evenodd" d="M104.128 21.1697C104.452 21.1697 104.728 21.2868 104.956 21.5211C105.185 21.7553 105.299 22.0416 105.299 22.3798C105.299 22.7116 105.185 22.9964 104.956 23.2338C104.728 23.4711 104.452 23.59 104.128 23.59C103.804 23.59 103.528 23.4711 103.299 23.2338C103.071 22.9964 102.957 22.7116 102.957 22.3798C102.957 22.0416 103.071 21.7553 103.299 21.5211C103.528 21.2868 103.804 21.1697 104.128 21.1697" fill="#0552D6"></path>
    <path fill-rule="evenodd" clip-rule="evenodd" d="M114.847 10.8293C113.36 10.8293 112.107 11.3618 111.09 12.4268C110.072 13.4919 109.564 14.8171 109.564 16.4018C109.564 17.4418 109.79 18.3769 110.244 19.2071C110.697 20.0372 111.347 20.6954 112.193 21.1818C113.039 21.6683 113.931 21.9114 114.872 21.9114C115.795 21.9114 116.663 21.6663 117.476 21.1755C118.29 20.685 118.937 19.9993 119.419 19.1188C119.902 18.2385 120.143 17.3161 120.143 16.3514C120.143 15.3789 119.903 14.4564 119.425 13.5843C118.947 12.7122 118.304 12.0349 117.495 11.5527C116.686 11.0706 115.803 10.8293 114.847 10.8293V10.8293ZM107.966 9.48186H109.687V12.0005C110.366 11.0434 111.147 10.3257 112.031 9.84709C112.915 9.36846 113.901 9.12915 114.989 9.12915C116.887 9.12915 118.512 9.8303 119.862 11.2323C121.212 12.6346 121.887 14.3221 121.887 16.2949C121.887 18.3099 121.218 20.0207 119.88 21.4267C118.543 22.8331 116.928 23.5361 115.038 23.5361C113.974 23.5361 112.997 23.3095 112.105 22.8562C111.213 22.4027 110.406 21.727 109.687 20.8285V28.1958H107.966V9.48186Z" fill="#0552D6"></path>
    <path fill-rule="evenodd" clip-rule="evenodd" d="M124.226 4.32568H125.946V12.0707C126.642 11.1305 127.408 10.4273 128.244 9.96138C129.079 9.49542 129.984 9.26237 130.959 9.26237C131.959 9.26237 132.845 9.52273 133.619 10.0432C134.394 10.5638 134.965 11.2628 135.333 12.1401C135.702 13.0174 135.886 14.3923 135.886 16.2644V23.3166H134.166V16.7807C134.166 15.2024 134.105 14.1487 133.982 13.6197C133.769 12.7129 133.382 12.031 132.821 11.5734C132.26 11.1158 131.525 10.8869 130.615 10.8869C129.575 10.8869 128.643 11.2396 127.82 11.9449C126.997 12.65 126.454 13.5232 126.192 14.5643C126.028 15.2361 125.946 16.4785 125.946 18.2919V23.3166H124.226V4.32568Z" fill="#0552D6"></path>
    <path fill-rule="evenodd" clip-rule="evenodd" d="M73.6598 6.7489C73.2764 6.7489 72.946 6.60633 72.6688 6.32064C72.3916 6.03549 72.2529 5.69545 72.2529 5.30063C72.2529 4.89756 72.3916 4.55338 72.6688 4.26797C72.946 3.98255 73.2764 3.83984 73.6598 3.83984C74.0512 3.83984 74.3857 3.98255 74.6629 4.26797C74.9401 4.55338 75.0789 4.89756 75.0789 5.30063C75.0789 5.69545 74.9401 6.03549 74.6629 6.32064C74.3857 6.60633 74.0512 6.7489 73.6598 6.7489" fill="#EFA023"></path>
    <path fill-rule="evenodd" clip-rule="evenodd" d="M95.6187 23.4198C94.6001 23.4198 93.5954 23.2048 92.6329 22.7804C91.6927 22.3664 90.9076 21.7117 90.2988 20.834L91.7675 19.7437C92.122 20.3291 92.6382 20.8282 93.3031 21.2276C93.9927 21.6424 94.762 21.8527 95.5895 21.8527C96.0214 21.8527 96.4392 21.8127 96.831 21.7342C97.2274 21.6551 97.5798 21.5136 97.8786 21.3138C98.1783 21.1141 98.4213 20.8552 98.6012 20.5445C98.7818 20.2328 98.8734 19.8417 98.8734 19.3823C98.8734 18.6364 98.5122 18.0691 97.7994 17.6963C97.1054 17.3341 96.0915 16.992 94.7859 16.6792C94.3794 16.5824 93.943 16.4595 93.4891 16.3141C93.0392 16.1704 92.6175 15.9565 92.2358 15.6788C91.8548 15.4026 91.5362 15.0494 91.2886 14.6288C91.0424 14.2119 90.9177 13.6809 90.9177 13.0505C90.9177 12.3611 91.0527 11.7652 91.3188 11.2798C91.5854 10.7928 91.9477 10.3862 92.3957 10.0708C92.8442 9.75517 93.3635 9.51679 93.9394 9.36262C94.5167 9.20845 95.1212 9.13037 95.7359 9.13037C96.6761 9.13037 97.6013 9.34517 98.4857 9.76876C99.3463 10.1814 100.005 10.7665 100.445 11.5083L99.0339 12.5694C98.7368 12.0256 98.2936 11.5719 97.7155 11.2198C97.1123 10.8537 96.4168 10.668 95.6481 10.668C95.2954 10.668 94.9363 10.708 94.5807 10.7868C94.2229 10.8667 93.9007 10.9978 93.6231 11.1769C93.3427 11.3573 93.1143 11.5913 92.9442 11.8727C92.7728 12.1556 92.6858 12.4926 92.6858 12.8745C92.6858 13.5407 92.9618 14.0576 93.5059 14.411C94.0368 14.7558 94.8807 15.0499 96.0148 15.2849C97.6147 15.6137 98.8105 16.0972 99.5691 16.7223C100.319 17.3415 100.7 18.1871 100.7 19.2359C100.7 20.0022 100.551 20.6569 100.255 21.1818C99.9592 21.7081 99.5674 22.1446 99.0905 22.4791C98.6121 22.8147 98.0637 23.0579 97.4606 23.2017C96.854 23.3464 96.2343 23.4198 95.6187 23.4198" fill="#0552D6"></path>
    <path d="M16 32C24.8366 32 32 24.8366 32 16C32 7.16344 24.8366 0 16 0C7.16344 0 0 7.16344 0 16C0 24.8366 7.16344 32 16 32Z" fill="#EAA131"></path>
    <path d="M29.8101 16.0518C29.81 16.727 29.7606 17.4013 29.6622 18.0693L26.0146 15.9091L29.6201 13.78C29.7457 14.5308 29.8092 15.2906 29.8101 16.0518V16.0518Z" fill="#1B5EC0"></path>
    <path d="M26.0191 15.9165L29.6622 18.0737C29.6386 18.2378 29.6117 18.4007 29.5816 18.5623L26.0176 20.6648H26.0132V15.9195L26.0191 15.9165Z" fill="#1B5DC6"></path>
    <path d="M29.6196 13.7764C29.62 13.7776 29.62 13.7789 29.6196 13.7801L26.0142 15.9092L29.6196 13.7764Z" fill="#1E62C0"></path>
    <path d="M29.6193 13.7765L26.0132 15.9056V11.1572H26.0191L29.5173 13.2272C29.555 13.409 29.5883 13.5916 29.6193 13.7765Z" fill="#1E62C0"></path>
    <path d="M29.5788 18.5625C29.5793 18.5642 29.5793 18.566 29.5788 18.5677L26.0215 20.6702L29.5788 18.5625Z" fill="#1B58C5"></path>
    <path d="M26.0215 20.6701L29.5781 18.5706C29.3533 19.7938 28.9634 20.9809 28.4189 22.0991L26.04 20.6871V20.6738L26.0215 20.6701Z" fill="#1B58C5"></path>
    <path d="M29.5146 13.2227L26.0127 11.1468L28.3096 9.79102C28.8615 10.8765 29.2668 12.0305 29.5146 13.2227V13.2227Z" fill="#1B60C0"></path>
    <path d="M26.04 20.6914L28.4168 22.096C27.8574 23.244 27.1422 24.3093 26.2914 25.2616L26.04 25.4094V20.6914Z" fill="#1E58C3"></path>
    <path d="M28.3116 9.79103L26.0146 11.1468L28.3138 9.78955L28.3116 9.79103Z" fill="#1963C0"></path>
    <path d="M28.3094 9.78722L26.0103 11.1445V6.53296C26.9292 7.50148 27.7035 8.59753 28.3094 9.78722V9.78722Z" fill="#1963C0"></path>
    <path d="M26.2921 25.2654L26.2833 25.275L26.04 25.4184V25.414L26.2921 25.2654Z" fill="#1E58C3"></path>
    <path d="M26.04 25.4183L26.2825 25.2749C26.2256 25.3392 26.1672 25.4021 26.1095 25.4649L26.04 25.4235V25.4183Z" fill="#1E58C3"></path>
    <path d="M26.0398 25.4236L26.1093 25.465L26.0938 25.482L26.0132 25.4339L26.025 25.4273L26.0398 25.4362V25.4236Z" fill="#1B4FAF"></path>
    <path d="M26.0945 25.4819L26.0132 25.5684V25.4346L26.0945 25.4819Z" fill="#1B4FAF"></path>
    <path d="M26.0416 25.4237V25.4371L26.0259 25.4277L26.0369 25.4214L26.0416 25.4237Z" fill="#1B4FAF"></path>
    <path d="M26.0402 25.4185V25.4233L26.0361 25.4212L26.0402 25.4185Z" fill="#1E58C3"></path>
    <path d="M26.0408 25.4141V25.4187L26.0361 25.4218L26.0322 25.4195L26.0408 25.4141Z" fill="#1E58C3"></path>
    <path d="M26.0414 25.4058V25.4144L26.0328 25.4199L26.0249 25.4152L26.0414 25.4058Z" fill="#1E58C3"></path>
    <path d="M26.0406 20.6915V25.4058L26.0103 25.388V20.6959L26.0295 20.6848L26.0406 20.6915Z" fill="#1E58C3"></path>
    <path d="M26.0411 20.6873V20.692L26.0293 20.685L26.0332 20.6826L26.0411 20.6873Z" fill="#1F5CC2"></path>
    <path d="M26.041 20.6782V20.6875L26.0332 20.6829L26.041 20.6782Z" fill="#1B58C5"></path>
    <path d="M26.0413 20.6738V20.6788L26.0371 20.6763L26.0413 20.6738Z" fill="#1B58C5"></path>
    <path d="M26.0411 20.6784L26.0332 20.6831L26.0293 20.6807L26.0372 20.676L26.0411 20.6784Z" fill="#1B58C5"></path>
    <path d="M26.0406 25.4059L26.025 25.4148L26.0132 25.4074V25.3985L26.0103 25.4V25.3882L26.0406 25.4059Z" fill="#1E58C3"></path>
    <path d="M26.0371 20.6759L26.0297 20.6803L26.0142 20.6714L26.0216 20.667L26.0371 20.6759Z" fill="#1B58C5"></path>
    <path d="M26.0333 25.4192L26.0372 25.4215L26.0262 25.4278L26.0215 25.4255L26.0333 25.4192Z" fill="#1B4FAF"></path>
    <path d="M26.0334 20.6827L26.0296 20.6851L26.0249 20.6827L26.0296 20.6804L26.0334 20.6827Z" fill="#1E61D2"></path>
    <path d="M26.025 25.4148L26.0324 25.4192L26.0213 25.4251L26.0146 25.4207L26.025 25.4148Z" fill="#1B4FAF"></path>
    <path d="M26.0295 20.6805L26.025 20.6827L26.0103 20.6738L26.0117 20.6731L26.0132 20.6738V20.6724L26.014 20.6716L26.0295 20.6805Z" fill="#1E61D2"></path>
    <path d="M26.0295 20.6848L26.0103 20.6959V20.6915L26.025 20.6826L26.0295 20.6848Z" fill="#1E58C3"></path>
    <path d="M26.0265 25.4274L26.014 25.4345L26.0132 25.4337V25.4305V25.4298L26.0218 25.425L26.0265 25.4274Z" fill="#1B4FAF"></path>
    <path d="M26.025 20.6827L26.0103 20.6916V20.6738L26.025 20.6827Z" fill="#1E58C3"></path>
    <path d="M26.0258 25.4151L26.0148 25.4214L26.0132 25.4206V25.4072L26.0258 25.4151Z" fill="#1B4FAF"></path>
    <path d="M26.0178 20.6648L26.0217 20.6671L26.014 20.6718L26.0132 20.671V20.6679L26.0178 20.6648Z" fill="#1B58C5"></path>
    <path d="M26.0147 25.4207L26.0217 25.4253L26.0132 25.43V25.4222L26.0147 25.4207Z" fill="#1B4FAF"></path>
    <path d="M26.0205 11.1537L26.0197 11.1545L26.0132 11.1505V11.1497L26.0205 11.1537Z" fill="#1A69D0"></path>
    <path d="M26.0205 15.9162L26.0197 15.917L26.0132 15.9129V15.9121L26.0205 15.9162Z" fill="#1C68D9"></path>
    <path d="M26.0197 11.1544L26.0132 11.1577V11.1504L26.0197 11.1544Z" fill="#1E62C0"></path>
    <path d="M26.0197 15.9169L26.0132 15.9201V15.9128L26.0197 15.9169Z" fill="#1B5DC6"></path>
    <path d="M26.0132 20.6619L26.0178 20.6649L26.0132 20.668V20.6619Z" fill="#1B5DC6"></path>
    <path d="M26.015 25.4208L26.0132 25.4226V25.4199L26.015 25.4208Z" fill="#1B4FAF"></path>
    <path d="M26.0147 11.1472L26.0112 11.149L26.0103 11.1481V11.1445L26.0147 11.1472Z" fill="#1963C0"></path>
    <path d="M26.0139 15.9091L26.0132 15.9098V15.9084L26.0139 15.9091Z" fill="#1E62C0"></path>
    <path d="M26.0139 20.6716L26.0132 20.6722V20.6709L26.0139 20.6716Z" fill="#1B5DC6"></path>
    <path d="M26.0139 25.4338L26.0132 25.4344V25.4331L26.0139 25.4338Z" fill="#1B4FAF"></path>
    <path d="M26.0136 25.4333V25.435L26.0103 25.4367V25.4316L26.0136 25.4333Z" fill="#1B4FAF"></path>
    <path d="M26.0134 25.4302V25.4333L26.0103 25.4318L26.0134 25.4302Z" fill="#1B4FAF"></path>
    <path d="M26.0134 25.4299V25.4307L26.0103 25.4322V25.4237L26.0134 25.4221V25.4299Z" fill="#1B4FAF"></path>
    <path d="M26.013 25.4198V25.4219L26.0103 25.4233V25.4185L26.013 25.4198Z" fill="#1B4FAF"></path>
    <path d="M26.0134 25.4073V25.4207L26.0103 25.4191V25.4058L26.0134 25.4073Z" fill="#1B4FAF"></path>
    <path d="M26.0134 25.3984V25.4077L26.0103 25.4062V25.4L26.0134 25.3984Z" fill="#1E58C3"></path>
    <path d="M26.0131 20.6724V20.6737L26.0117 20.673L26.0131 20.6724Z" fill="#1E61D2"></path>
    <path d="M26.0138 20.6712V20.673L26.012 20.6739L26.0103 20.673V20.6694L26.0138 20.6712Z" fill="#1B5DC6"></path>
    <path d="M26.0134 20.6677V20.6709L26.0103 20.6693L26.0134 20.6677Z" fill="#1B58C5"></path>
    <path d="M26.0134 20.662V20.6682L26.0103 20.6697V20.6604L26.0134 20.662Z" fill="#1B5DC6"></path>
    <path d="M26.0132 15.9194V20.6618L26.0103 20.6604V15.9217L26.0132 15.9194Z" fill="#1B5DC6"></path>
    <path d="M26.0134 15.9129V15.9199L26.0103 15.9222V15.9129L26.0118 15.9121L26.0134 15.9129Z" fill="#1B5DC6"></path>
    <path d="M26.0131 15.912V15.9127L26.0117 15.912L26.0124 15.9114H26.0131V15.912Z" fill="#1F68D6"></path>
    <path d="M26.0131 15.9099V15.9113H26.0124L26.0117 15.9106L26.0131 15.9099Z" fill="#1C6FDB"></path>
    <path d="M26.0138 15.9088V15.9106L26.012 15.9115H26.0112L26.0103 15.9106V15.907L26.0138 15.9088Z" fill="#1E62C0"></path>
    <path d="M26.0134 15.9055V15.9087L26.0103 15.9071L26.0134 15.9055Z" fill="#1E62C0"></path>
    <path d="M26.0132 11.1572V15.9056L26.0103 15.907V11.1594L26.0132 11.1572Z" fill="#1E62C0"></path>
    <path d="M26.0134 11.1504V11.1574L26.0103 11.1597V11.1504L26.0118 11.1497L26.0134 11.1504Z" fill="#1E62C0"></path>
    <path d="M26.0131 11.1496V11.1503L26.0117 11.1496L26.0124 11.1489L26.0131 11.1496Z" fill="#1A69D0"></path>
    <path d="M26.0134 1.65165V1.66019L26.0103 1.65864V1.65786V1.65165L26.0118 1.65088L26.0134 1.65165Z" fill="#1755C1"></path>
    <path d="M26.0131 1.65015V1.65149L26.0117 1.65082L26.0131 1.65015Z" fill="#1B6CC9"></path>
    <path d="M26.0134 1.65978L26.0103 1.66136V1.6582L26.0134 1.65978Z" fill="#1755C1"></path>
    <path d="M26.012 15.9106L26.0129 15.9115L26.012 15.9124L26.0103 15.9115L26.0111 15.9106H26.012Z" fill="#1C68D9"></path>
    <path d="M26.0129 11.1491L26.012 11.15L26.0103 11.1491L26.0111 11.1482L26.0129 11.1491Z" fill="#1A69D0"></path>
    <path d="M26.0116 1.65082L26.0103 1.65149V1.65015L26.0116 1.65082Z" fill="#1755C1"></path>
    <path d="M26.0116 11.1496L26.0103 11.1503V11.1489L26.0116 11.1496Z" fill="#1E62C0"></path>
    <path d="M26.0116 15.912L26.0103 15.9127V15.9114L26.0116 15.912Z" fill="#1B5DC6"></path>
    <path d="M26.0116 20.673L26.0103 20.6737V20.6724L26.0116 20.673Z" fill="#1B5DC6"></path>
    <path d="M26.0103 15.9099L26.0109 15.9106L26.0103 15.9113V15.9099Z" fill="#1E62C0"></path>
    <path d="M26.0109 11.1481L26.0103 11.1488V11.1475L26.0109 11.1481Z" fill="#1963C0"></path>
    <path d="M26.0101 25.4362V25.5714C25.0331 26.6014 23.9039 27.4756 22.662 28.1633L22.0166 27.7811L26.0087 25.4236V25.4362H26.0101Z" fill="#1F5CC2"></path>
    <path d="M26.0104 25.4183V25.4235L22.0169 27.781L22.0146 27.7795V27.7588L25.9949 25.4094L26.0104 25.4183Z" fill="#1F5CC2"></path>
    <path d="M26.0102 25.4058V25.4184L25.9946 25.4095L26.0102 25.3999V25.4058Z" fill="#1F5CC2"></path>
    <path d="M26.0101 25.388V25.3998L25.9946 25.4094L22.0181 23.0526L22.0439 23.0378L26.0101 25.388Z" fill="#1E5DBE"></path>
    <path d="M26.0101 20.696V25.3882L22.0439 23.038L26.0101 20.696Z" fill="#1F5CC2"></path>
    <path d="M26.0104 20.6914V20.6958L22.0442 23.0378L22.0405 23.0356L26.0104 20.6914Z" fill="#1E61D2"></path>
    <path d="M26.0104 20.6738V20.6915L22.0405 23.0358L22.0146 23.0202V18.3052L26.0104 20.6723V20.6738Z" fill="#1E61D2"></path>
    <path d="M26.0104 20.6692V20.6722L22.0146 18.305V18.2969V18.2925L26.0104 20.6604V20.6692Z" fill="#1E61D2"></path>
    <path d="M26.01 15.9216V20.6603L22.0143 18.2925L22.0106 18.2947L21.9995 18.288L26.01 15.9216Z" fill="#1F68D6"></path>
    <path d="M26.0104 15.9128V15.9217L21.9998 18.2881L21.9932 18.2844L26.0104 15.9128Z" fill="#1F68D6"></path>
    <path d="M26.0104 15.9115V15.9129L21.9932 18.2845V13.548V13.5347V13.5303H21.9939L26.0104 15.91V15.9115Z" fill="#1C68D9"></path>
    <path d="M26.0101 15.907V15.91L21.9937 13.5303L26.0101 11.1594V15.907Z" fill="#1C6FDB"></path>
    <path d="M26.0104 11.1504V11.1593L21.9939 13.5301H21.9932V13.5294V13.522L26.0104 11.1504Z" fill="#1A69D0"></path>
    <path d="M26.0104 11.149V11.1505L21.9932 13.522V8.79368V8.78999V8.78555V8.76929L26.0104 11.149Z" fill="#1A69D0"></path>
    <path d="M26.0104 11.1475V11.149L21.9932 8.7693V8.76782L26.0104 11.1475Z" fill="#1A69D0"></path>
    <path d="M26.0103 11.1446L21.9932 8.76785L25.9268 6.4458L26.0103 6.53303V11.1446Z" fill="#1864C7"></path>
    <path d="M26.0103 1.65161V1.65776L26.0049 1.65469L26.0103 1.65161Z" fill="#1B6CC9"></path>
    <path d="M22.0183 23.0527L25.9949 25.4095L22.0146 27.7589V23.055L22.0183 23.0527Z" fill="#1E5DBE"></path>
    <path d="M25.9268 6.44586L21.9932 8.7679V8.75903L25.9209 6.43994L25.9268 6.44586Z" fill="#1B6CC9"></path>
    <path d="M25.9209 6.43999L21.9932 8.75907V4.03662L25.7243 6.24704C25.7913 6.30815 25.8568 6.37247 25.9209 6.43999Z" fill="#1B6CC9"></path>
    <path d="M25.6614 6.1804L25.7257 6.24398L21.9946 4.03356L22.0153 4.021L25.6614 6.1804Z" fill="#1B6CC9"></path>
    <path d="M25.6612 6.18027L22.0151 4.01939L22.3936 3.79761C23.5933 4.42801 24.6942 5.23075 25.6612 6.18027V6.18027Z" fill="#1B6CC9"></path>
    <path d="M22.6622 28.1632L22.6519 28.1691L22.0146 27.7921V27.7825L22.6622 28.1632Z" fill="#1F5CC2"></path>
    <path d="M22.0146 27.7922L22.6519 28.1693C22.4429 28.2846 22.2305 28.3947 22.0146 28.4997V27.7922Z" fill="#1B5AB6"></path>
    <path d="M22.394 3.79619L22.0155 4.01797L22.0073 4.0128L22.3851 3.79102L22.394 3.79619Z" fill="#1963C0"></path>
    <path d="M22.385 3.79188L22.0072 4.01366L21.9932 4.00553V3.59302C22.1248 3.65758 22.2554 3.72387 22.385 3.79188Z" fill="#1963C0"></path>
    <path d="M22.0405 23.0356L22.0442 23.0379L22.0183 23.0526L22.0146 23.0504L22.0405 23.0356Z" fill="#1E5DBE"></path>
    <path d="M22.0146 23.0203L22.0405 23.0358L22.0146 23.0506V23.0291V23.0247V23.0203Z" fill="#1E5DBE"></path>
    <path d="M22.0188 23.053L22.0146 23.0556V23.0505L22.0188 23.053Z" fill="#1E5DBE"></path>
    <path d="M22.0146 27.7795L22.017 27.7811L22.0146 27.7827V27.7795Z" fill="#1F5CC2"></path>
    <path d="M22.0072 4.0144L22.0153 4.01958L21.9946 4.03215L21.9932 4.03141V4.03067V4.02328L22.0072 4.0144Z" fill="#1B6CC9"></path>
    <path d="M22.0144 27.7923V28.4998C21.0652 28.9605 20.066 29.31 19.0366 29.5414L22.01 27.7864L22.0144 27.7923Z" fill="#1B5AB6"></path>
    <path d="M22.0144 27.7871V27.7919L22.0103 27.7892L22.0144 27.7871Z" fill="#1F5CC2"></path>
    <path d="M22.0146 27.7839V27.7871L22.0122 27.7855L22.0146 27.7839Z" fill="#1F4FB2"></path>
    <path d="M22.0146 27.7827V27.7842L21.9932 27.7716L22.0146 27.759V27.7797V27.7827Z" fill="#1F4FB2"></path>
    <path d="M22.0145 23.0551V27.759L21.9931 27.7716L17.9937 25.4022L21.9924 23.0417L22.0145 23.0551Z" fill="#1F4FB2"></path>
    <path d="M22.0144 23.0505V23.0549L21.9922 23.0416L22.0144 23.0291V23.0505Z" fill="#1F4FB2"></path>
    <path d="M22.0149 23.0247V23.0297L22.0107 23.0272L22.0149 23.0247Z" fill="#1F4FB2"></path>
    <path d="M22.0146 23.0203V23.0247L22.0109 23.0269L18.0137 20.6591L22.0079 18.3008L22.0146 18.3052V23.0203Z" fill="#2063C9"></path>
    <path d="M22.0148 18.2971V18.3057L22.0078 18.301L22.0148 18.2971Z" fill="#1F68D6"></path>
    <path d="M22.0149 18.2925V18.2975L22.0107 18.295L22.0149 18.2925Z" fill="#1F68D6"></path>
    <path d="M22.0153 18.297L22.0083 18.3009L22.0044 18.2986L22.0114 18.2947L22.0153 18.297Z" fill="#1F68D6"></path>
    <path d="M22.0146 23.0291L21.9925 23.0416L21.9888 23.0394L22.0109 23.0269L22.0146 23.0291Z" fill="#1F4FB2"></path>
    <path d="M22.0144 27.7841L22.0122 27.7855L21.9907 27.773L21.9929 27.7715L22.0144 27.7841Z" fill="#1F4FB2"></path>
    <path d="M22.0151 27.7873L22.0102 27.7897L22.0078 27.7881L22.0127 27.7856L22.0151 27.7873Z" fill="#1F5CC2"></path>
    <path d="M22.0122 27.7855L22.0078 27.7877L21.9863 27.7752L21.9908 27.7729L22.0122 27.7855Z" fill="#1F5CC2"></path>
    <path d="M22.0107 18.2947L22.004 18.2984L21.9937 18.2925L21.9996 18.2881L22.0107 18.2947Z" fill="#1F68D6"></path>
    <path d="M22.0106 23.0268L21.9884 23.0394L17.9912 20.6715L18.0134 20.6589L22.0106 23.0268Z" fill="#205EC0"></path>
    <path d="M22.0077 18.3008L18.0135 20.6591L18.0098 20.6569L22.004 18.2986L22.0077 18.3008Z" fill="#2063C9"></path>
    <path d="M22.0079 27.7877L19.0287 29.5464C18.6864 29.6203 18.3389 29.6883 17.9878 29.7386V25.4058L21.9872 27.7751H21.9828L22.0079 27.7877Z" fill="#205BC0"></path>
    <path d="M22.0072 4.01424L21.9932 4.02311V4.0061L22.0072 4.01424Z" fill="#1B6CC9"></path>
    <path d="M22.0042 18.2984L18.01 20.6567L17.9878 20.6434V20.6404H17.9885V15.9194L21.9865 18.2881L21.9932 18.2925H21.9939L22.0042 18.2984Z" fill="#1B60CC"></path>
    <path d="M22.0001 18.2883L21.9939 18.293H21.9932V18.2922V18.2844L22.0001 18.2883Z" fill="#1F68D6"></path>
    <path d="M21.9932 4.03125L21.9945 4.03192L21.9932 4.03259V4.03125Z" fill="#1B6CC9"></path>
    <path d="M21.9936 4.0309V4.03171L21.9896 4.03413H21.9888L21.9863 4.03252V4.02686L21.9936 4.0309Z" fill="#1963C0"></path>
    <path d="M21.9936 18.2921V18.2929L21.9863 18.2881L21.9936 18.2921Z" fill="#1B60CC"></path>
    <path d="M21.9936 18.2844V18.2925L21.9863 18.2885L21.9936 18.2844Z" fill="#1F68D6"></path>
    <path d="M21.9929 13.5479V18.2844L17.9883 15.9121V15.8988L21.9818 13.5413L21.9929 13.5479Z" fill="#1E65D3"></path>
    <path d="M21.9937 13.5347V13.5488L21.9819 13.5417L21.9937 13.5347Z" fill="#1E65D3"></path>
    <path d="M21.9934 13.5303V13.5353L21.9893 13.5328L21.9934 13.5303Z" fill="#1E65D3"></path>
    <path d="M21.9929 13.5295V13.5302L21.9892 13.5324L17.9854 11.1601V11.1557L21.99 8.7915L21.9929 8.79372V13.5221L21.9863 13.5258L21.9929 13.5295Z" fill="#1C6AD3"></path>
    <path d="M21.9936 13.522V13.5301L21.9863 13.526L21.9936 13.522Z" fill="#1C6FDB"></path>
    <path d="M21.9938 8.79004V8.79452L21.9902 8.79183L21.9938 8.79004Z" fill="#196BD2"></path>
    <path d="M21.9934 8.78564V8.79067L21.9893 8.78816L21.9934 8.78564Z" fill="#196BD2"></path>
    <path d="M21.9933 8.76943V8.78569L21.9896 8.78791L17.9746 6.40894V6.4082L21.9925 4.03589L21.9933 4.03663V8.75908L21.9844 8.76425L21.9933 8.76943Z" fill="#196BD2"></path>
    <path d="M21.9937 8.76834V8.76989L21.9844 8.76446L21.9937 8.75903V8.76834Z" fill="#196BD2"></path>
    <path d="M21.9928 4.03589V4.03653L21.9922 4.03589H21.9928Z" fill="#196BD2"></path>
    <path d="M21.9934 4.03271V4.03587H21.9926L21.9902 4.03429L21.9934 4.03271Z" fill="#196BD2"></path>
    <path d="M21.9937 4.03125V4.03304L21.9902 4.03484L21.9893 4.03394L21.9937 4.03125Z" fill="#196BD2"></path>
    <path d="M21.9936 4.02319V4.03128L21.9863 4.02724L21.9936 4.02319Z" fill="#1963C0"></path>
    <path d="M21.993 4.00627V4.02327L21.9863 4.02697V3.59302H21.993V4.00627Z" fill="#1963C0"></path>
    <path d="M21.9936 8.79027L21.9904 8.79188L21.9863 8.78946L21.9896 8.78784L21.9936 8.79027Z" fill="#196BD2"></path>
    <path d="M21.9942 13.5348L21.9824 13.5419L21.9785 13.5395L21.9903 13.5325L21.9942 13.5348Z" fill="#1D6CDA"></path>
    <path d="M21.9929 18.2844L21.9862 18.2881L17.9883 15.9195V15.9121L21.9929 18.2844Z" fill="#1B60CC"></path>
    <path d="M21.9929 27.7715L21.9907 27.7729L17.9912 25.4036L17.9934 25.4021L21.9929 27.7715Z" fill="#1F4FB2"></path>
    <path d="M21.9921 23.0415L17.9934 25.402L17.9897 25.3998L21.9885 23.0393L21.9921 23.0415Z" fill="#1F4FB2"></path>
    <path d="M21.9925 4.03566L17.9746 6.40797V6.40354L21.9866 4.03492V4.0364L21.9903 4.03418L21.9925 4.03566Z" fill="#196BD2"></path>
    <path d="M21.9894 4.03345L21.9901 4.03412L21.9888 4.03345H21.9894Z" fill="#196BD2"></path>
    <path d="M21.99 8.79152L17.9854 11.1557V11.1513L21.9863 8.78931L21.99 8.79152Z" fill="#196DD5"></path>
    <path d="M21.9908 4.03434L21.9863 4.03704V4.03524L21.989 4.03345L21.9908 4.03434Z" fill="#196BD2"></path>
    <path d="M21.9896 8.7879L21.9866 8.78938L17.9746 6.41263V6.40894L21.9896 8.7879Z" fill="#196BD2"></path>
    <path d="M21.9892 13.5325L21.9781 13.5391L17.9854 11.1735V11.1602L21.9892 13.5325Z" fill="#1D6CDA"></path>
    <path d="M21.9863 4.03198L21.989 4.03377L21.9863 4.03288V4.03198Z" fill="#1963C0"></path>
    <path d="M21.9887 23.0395L17.99 25.4L17.9878 25.3985V25.3978V20.6738L17.9915 20.6716L21.9887 23.0395Z" fill="#205EC0"></path>
    <path d="M21.989 4.03361L21.9863 4.0354V4.03271L21.989 4.03361Z" fill="#1963C0"></path>
    <path d="M21.9862 4.0365L17.9742 6.40216V6.35706L17.9668 6.3615V6.35041L17.9742 6.35485V2.36279C18.6114 2.4549 19.2413 2.59176 19.8593 2.77235V2.77235L21.984 4.02911L21.9862 4.0365Z" fill="#1D77D5"></path>
    <path d="M21.9865 4.02697V4.03215L19.8618 2.77539C20.5915 2.98848 21.3022 3.26196 21.9865 3.59302V4.02697Z" fill="#1B6CC9"></path>
    <path d="M21.9866 8.78935L17.9857 11.1513V11.1136L17.9746 11.1203V6.4126L21.9866 8.78935Z" fill="#196DD5"></path>
    <path d="M21.9818 13.5413L17.9883 15.8988V15.8944L21.9781 13.5391L21.9818 13.5413Z" fill="#1D6CDA"></path>
    <path d="M21.9781 13.539L17.9882 15.8943V15.8788L17.9668 15.8914V15.8906L17.9875 15.878L17.9668 15.8655V15.8647L17.9853 15.8758V11.1733L21.9781 13.539Z" fill="#1D6CDA"></path>
    <path d="M18.01 20.6567L18.0137 20.659L17.9915 20.6715L17.9878 20.6693L18.01 20.6567Z" fill="#205EC0"></path>
    <path d="M17.9878 20.6436L18.01 20.6569L17.9878 20.6694V20.6436Z" fill="#205EC0"></path>
    <path d="M17.9901 25.3999L17.9939 25.4022L17.9916 25.4037L17.9878 25.4014L17.9901 25.3999Z" fill="#1F4FB2"></path>
    <path d="M17.992 20.6719L17.9878 20.6745V20.6694L17.992 20.6719Z" fill="#205EC0"></path>
    <path d="M17.992 25.4039L17.9878 25.4064V25.403V25.4014L17.992 25.4039Z" fill="#205BC0"></path>
    <path d="M17.9878 25.3984L17.9902 25.4L17.9878 25.4016V25.3984Z" fill="#205BC0"></path>
    <path d="M17.9885 15.9194V20.6404H17.9878V20.6397V20.636V15.9194H17.9885Z" fill="#1D5AC0"></path>
    <path d="M17.9886 15.9122V15.9199H17.9878V15.9114L17.9886 15.9122Z" fill="#1D5AC0"></path>
    <path d="M17.9884 15.8989V15.9122L17.9877 15.9115V15.9196L17.9707 15.9093L17.9884 15.8989Z" fill="#1D5AC0"></path>
    <path d="M17.9882 15.8943V15.8987L17.9705 15.9091L17.9668 15.9069L17.9882 15.8943Z" fill="#1D5AC0"></path>
    <path d="M17.9882 15.8789V15.8944L17.9668 15.907V15.8915L17.9882 15.8789Z" fill="#1D5AC0"></path>
    <path d="M17.9875 25.4058V29.7386C17.7903 29.7682 17.5907 29.7928 17.3887 29.8125L13.9614 27.7818L17.9875 25.4058Z" fill="#1D5BC3"></path>
    <path d="M17.9877 20.6736V25.3976L13.9653 23.0149L17.9877 20.6404V20.6433V20.6692V20.6736Z" fill="#1D50AB"></path>
    <path d="M17.9884 20.64V20.6409L17.9839 20.6382L17.9884 20.64Z" fill="#1D50AB"></path>
    <path d="M17.9884 20.636V20.6405L17.9839 20.6387L17.9884 20.636Z" fill="#1D50AB"></path>
    <path d="M17.9877 15.9194V20.636L17.984 20.6382L13.9624 18.2555L17.967 15.8914V15.9069V15.9113L17.9707 15.9091L17.9877 15.9194Z" fill="#1D5AC0"></path>
    <path d="M17.9875 15.878L17.9668 15.8906V15.8655L17.9875 15.878Z" fill="#1E63D1"></path>
    <path d="M17.9875 20.6404L13.9651 23.0149L13.9614 23.0127L17.9838 20.6382L17.9875 20.6404Z" fill="#1D50AB"></path>
    <path d="M17.9875 25.403L13.9614 27.7797V23.024L13.9644 23.0225L13.9614 23.021V23.0173L17.9875 25.403Z" fill="#1E4CB2"></path>
    <path d="M17.9853 11.1734V15.8759L17.9668 15.8648V11.1668L17.9705 11.1646L17.9853 11.1734Z" fill="#1E63D1"></path>
    <path d="M17.9864 11.1603V11.1745L17.9707 11.165L17.9825 11.158L17.9864 11.1603Z" fill="#1E63D1"></path>
    <path d="M17.9861 11.1558V11.1608L17.9819 11.1583L17.9861 11.1558Z" fill="#1E63D1"></path>
    <path d="M17.9861 11.1511V11.156L17.9821 11.1584L17.978 11.156L17.9861 11.1511Z" fill="#1E63D1"></path>
    <path d="M17.9853 11.1135V11.1512L17.9779 11.1557L17.9668 11.149V11.1254L17.9742 11.1209V11.1202L17.9853 11.1135Z" fill="#1E63D1"></path>
    <path d="M13.9622 18.2556L17.9838 20.6383L13.9614 23.0128V18.2608L13.9644 18.2593L13.9614 18.2578V18.2571V18.2549L13.9622 18.2556Z" fill="#205BBD"></path>
    <path d="M17.9825 11.1581L17.9707 11.1652L17.9668 11.1628L17.9786 11.1558L17.9825 11.1581Z" fill="#1E63D1"></path>
    <path d="M17.9786 11.156L17.9668 11.1631V11.1489L17.9786 11.156Z" fill="#1E63D1"></path>
    <path d="M17.9743 11.1201V11.1208L17.9736 11.1201H17.9743Z" fill="#1A5ACB"></path>
    <path d="M17.9742 6.41262V11.1203H17.9735L17.9668 11.1166V6.41262L17.9705 6.4104L17.9742 6.41262Z" fill="#1A5ACB"></path>
    <path d="M17.9752 6.40894V6.41342L17.9707 6.41073L17.9743 6.40894H17.9752Z" fill="#196BD2"></path>
    <path d="M17.9743 6.4082V6.40884H17.9736L17.9743 6.4082Z" fill="#196BD2"></path>
    <path d="M17.9738 6.40356V6.40768L17.9732 6.40837L17.9697 6.40631L17.9738 6.40356Z" fill="#196BD2"></path>
    <path d="M17.9742 6.35864V6.40374L17.9698 6.4067L17.9668 6.40448V6.36308L17.9742 6.35864Z" fill="#1A5ACB"></path>
    <path d="M17.9742 2.36283V6.35489L17.9668 6.35045V2.3584C17.9697 2.35896 17.9723 2.36053 17.9742 2.36283V2.36283Z" fill="#165CC8"></path>
    <path d="M17.9749 11.1209L17.9668 11.1258V11.125L17.9741 11.1201L17.9749 11.1209Z" fill="#1A61CB"></path>
    <path d="M17.97 6.40649L17.9741 6.40892L17.9708 6.41054L17.9668 6.40811L17.97 6.40649Z" fill="#196BD2"></path>
    <path d="M17.9738 11.1203L17.9668 11.125V11.1165L17.9738 11.1203Z" fill="#1A61CB"></path>
    <path d="M17.971 6.41071L17.9668 6.41322V6.4082L17.971 6.41071Z" fill="#1A5ACB"></path>
    <path d="M17.971 11.1649L17.9668 11.1674V11.1624L17.971 11.1649Z" fill="#1E63D1"></path>
    <path d="M17.971 15.9095L17.9668 15.912V15.907L17.971 15.9095Z" fill="#1D5AC0"></path>
    <path d="M17.9668 6.4043L17.9704 6.40699L17.9668 6.40878V6.4043Z" fill="#1A5ACB"></path>
    <path d="M17.9668 15.8655V15.8906L13.9614 18.2548V13.4924L17.9668 15.8655Z" fill="#1E63D1"></path>
    <path d="M17.9668 11.1666V15.8647L13.96 13.4909L17.9668 11.1252V11.1489V11.1622V11.1666Z" fill="#1E63D1"></path>
    <path d="M17.9671 11.1245V11.1253L13.9602 13.4909L13.9595 13.4902L17.9671 11.1245Z" fill="#1A61CB"></path>
    <path d="M17.9668 11.1165V11.1246L13.9592 13.4903L13.96 13.491L13.9585 13.4918V8.74121L17.9668 11.1165Z" fill="#1A61CB"></path>
    <path d="M17.9671 6.41257V11.1165L13.9588 8.74127V8.73831L13.9558 8.73979L13.9536 8.73831L13.9588 8.73535L13.9536 8.73239L17.9671 6.36304V6.40444V6.40813V6.41257Z" fill="#1A5ACB"></path>
    <path d="M17.9669 2.36215V6.3542L13.9482 3.97375L16.8728 2.24756C17.2424 2.27122 17.6054 2.30892 17.9669 2.36215Z" fill="#165CC8"></path>
    <path d="M17.9655 6.35262L13.9439 8.72641L13.9395 8.7242V3.97513L13.9461 3.97144L17.9655 6.35262Z" fill="#1B61CE"></path>
    <path d="M13.9648 27.7893L17.3817 29.8142C16.2441 29.9296 15.0965 29.9047 13.9648 29.7402V27.7893Z" fill="#1A5BBD"></path>
    <path d="M16.8662 2.24666L13.9461 3.97137L13.9395 3.96694V2.3679C14.6128 2.26878 15.2926 2.21937 15.9732 2.22004C16.2733 2.21906 16.571 2.22793 16.8662 2.24666Z" fill="#186CC7"></path>
    <path d="M13.9656 23.0152L13.9614 23.0177V23.0127L13.9656 23.0152Z" fill="#205BBD"></path>
    <path d="M13.9642 27.7878V27.7892L13.9629 27.7885L13.9642 27.7878Z" fill="#1B5DBF"></path>
    <path d="M13.9646 18.2594L13.9614 18.261V18.2578L13.9646 18.2594Z" fill="#1D5ECC"></path>
    <path d="M13.9646 23.0226L13.9614 23.0242V23.021L13.9646 23.0226Z" fill="#1C52BC"></path>
    <path d="M13.9628 27.7885L13.9614 27.7892V27.7878L13.9628 27.7885Z" fill="#1A5BBD"></path>
    <path d="M13.9618 27.7893V29.7395C13.1613 29.6233 12.3726 29.4365 11.605 29.1814L13.9618 27.7893Z" fill="#1B5DBF"></path>
    <path d="M13.9617 23.0212V23.0245L13.9585 23.0269V23.0188L13.9617 23.0212Z" fill="#1C52BC"></path>
    <path d="M13.9617 18.258V18.2613L13.9585 18.2637V18.2556L13.9617 18.2572V18.258Z" fill="#1D5ECC"></path>
    <path d="M13.9616 27.784L11.5959 29.179C11.0301 28.9911 10.4772 28.7664 9.94072 28.5062V25.4087H9.93555H9.94072H9.93555L13.9616 27.784Z" fill="#1B5ABF"></path>
    <path d="M13.9588 23.0261V27.7796L9.94092 25.3984V25.3977L13.9588 23.0261Z" fill="#1D54BA"></path>
    <path d="M13.9588 23.0188V23.0262L9.94092 25.3978V25.3896L13.9574 23.0181L13.9588 23.0188Z" fill="#1C52BC"></path>
    <path d="M13.9584 23.0173V23.0187L13.957 23.018L13.9584 23.0173Z" fill="#1D54BA"></path>
    <path d="M13.9588 18.2629V23.0172L9.94092 20.6367V20.636V20.6345L13.9588 18.2629Z" fill="#1A4FC6"></path>
    <path d="M13.9588 18.2556V18.263L9.94092 20.6346V20.6272L13.9581 18.2556H13.9588Z" fill="#1A4FC6"></path>
    <path d="M13.9586 18.2549V18.2555H13.958L13.9586 18.2549Z" fill="#1A4FC6"></path>
    <path d="M13.9588 13.5005V18.2547L9.94092 15.8743V15.8736V15.8691L13.9559 13.4983L13.9588 13.5005Z" fill="#1D64D1"></path>
    <path d="M13.9592 13.4968V13.5013L13.9556 13.4986L13.9592 13.4968Z" fill="#1D64D1"></path>
    <path d="M13.9593 13.4924V13.4975L13.9551 13.4949L13.9593 13.4924Z" fill="#1D64D1"></path>
    <path d="M13.9591 13.4917V13.4925L13.9549 13.495L13.9541 13.4942L13.9591 13.4917Z" fill="#1B64D3"></path>
    <path d="M13.9586 8.74122V13.4918L13.9542 13.494L13.9482 13.491V8.74418L13.9556 8.73975L13.9586 8.74122Z" fill="#1B64D3"></path>
    <path d="M13.9587 8.73828V8.74144L13.9556 8.73986L13.9587 8.73828Z" fill="#1A5ACB"></path>
    <path d="M13.9591 8.73552L13.9537 8.73863L13.9482 8.73552L13.9537 8.73242L13.9591 8.73552Z" fill="#1A5ACB"></path>
    <path d="M13.9594 13.4971L13.9562 13.4987L13.9521 13.4962L13.9554 13.4946L13.9594 13.4971Z" fill="#1763D1"></path>
    <path d="M9.94092 15.8752L13.9581 18.2557L9.94092 20.6273V15.8782V15.8752Z" fill="#1D5ECC"></path>
    <path d="M13.9574 23.0179L9.94092 25.3895V20.6404V20.6382L13.9574 23.0179Z" fill="#1C52BC"></path>
    <path d="M13.9563 8.7399L13.9482 8.74475V8.74152L13.9539 8.73828L13.9563 8.7399Z" fill="#1A61CB"></path>
    <path d="M13.9559 13.4983L9.94092 15.8691V15.8647L13.9522 13.4961L13.9559 13.4983Z" fill="#1763D1"></path>
    <path d="M13.9557 13.4948L13.9521 13.4966H13.9512L13.9548 13.4939L13.9557 13.4948Z" fill="#1763D1"></path>
    <path d="M13.9544 13.494L13.9513 13.4963L13.9482 13.4948V13.491L13.9544 13.494Z" fill="#1763D1"></path>
    <path d="M13.9537 8.73241L13.9485 8.73537V8.74128L9.94092 11.1077V6.36823L9.94387 6.36675L9.94092 6.36527V6.36453L9.94387 6.36601V6.36157L13.9396 8.72945L13.9441 8.72649L13.9537 8.73241Z" fill="#1959C6"></path>
    <path d="M13.9536 8.73843L13.9482 8.7415V8.73535L13.9536 8.73843Z" fill="#1959C6"></path>
    <path d="M13.9522 13.4961L9.94092 15.8647V11.1201L13.9485 13.4946V13.4976L13.9515 13.4961H13.9522Z" fill="#1763D1"></path>
    <path d="M13.9514 13.4962L13.9482 13.4978V13.4946L13.9514 13.4962Z" fill="#1763D1"></path>
    <path d="M13.9485 13.491V13.4947L9.94092 11.1202V11.1194V11.1165L13.9485 13.491Z" fill="#1763D1"></path>
    <path d="M13.9485 8.74414V13.491L9.94092 11.1165V11.112V11.1105L13.9485 8.74414Z" fill="#1B64D3"></path>
    <path d="M13.9395 3.96704L13.9464 3.9717L13.9395 3.97557V3.9717V3.96704Z" fill="#186CC7"></path>
    <path d="M13.9436 8.72618L13.9395 8.72892V8.72412L13.9436 8.72618Z" fill="#1959C6"></path>
    <path d="M13.9396 8.72432V8.7295L9.94385 6.36162V6.35645L13.9396 8.72432Z" fill="#1959C6"></path>
    <path d="M13.9396 3.97512V8.72418L9.94385 6.3563V6.33043L13.9366 3.9729L13.9396 3.97512Z" fill="#1959C6"></path>
    <path d="M13.9401 3.97144V3.97592L13.9365 3.97323L13.9401 3.97144Z" fill="#165DBB"></path>
    <path d="M13.9397 3.96704V3.97206L13.9355 3.96955L13.9397 3.96704Z" fill="#165DBB"></path>
    <path d="M13.9396 2.36792V3.96696H13.9359L11.9731 2.80557C12.6169 2.61139 13.2742 2.46511 13.9396 2.36792V2.36792Z" fill="#165DBB"></path>
    <path d="M13.9399 3.97166L13.9367 3.97328L13.9326 3.97086L13.9359 3.96924L13.9399 3.97166Z" fill="#1457BC"></path>
    <path d="M13.9366 3.97292L9.94385 6.33045V6.32601L13.9329 3.9707L13.9366 3.97292Z" fill="#1457BC"></path>
    <path d="M13.9357 3.96926L11.9678 2.80713H11.9722L13.9357 3.96926Z" fill="#1457BC"></path>
    <path d="M13.933 3.97074L9.94092 6.32605V3.59889C10.5936 3.28173 11.2704 3.01697 11.965 2.80713L13.933 3.97074Z" fill="#1457BC"></path>
    <path d="M9.94399 6.36165V6.36626L9.94092 6.36472V6.36011L9.94399 6.36165Z" fill="#135CC0"></path>
    <path d="M9.9444 6.35668V6.36218L9.94126 6.36061V6.35825L9.93969 6.35904L9.93262 6.35511V6.34961L9.9444 6.35668Z" fill="#135CC0"></path>
    <path d="M9.94361 6.33057V6.35644L9.93252 6.34979V6.35496L9.91699 6.34609L9.94361 6.33057Z" fill="#135CC0"></path>
    <path d="M9.94388 6.32593V6.33036L9.91727 6.34589L9.91357 6.34367L9.94388 6.32593Z" fill="#135CC0"></path>
    <path d="M9.94389 3.59888V6.32826L9.91357 6.346V3.61366L9.94389 3.59888Z" fill="#135CC0"></path>
    <path d="M9.94407 6.36681L9.94092 6.36839V6.36523L9.94407 6.36681Z" fill="#1251BD"></path>
    <path d="M9.94072 25.4065V28.5062H9.93555V25.4094L9.94072 25.4065Z" fill="#1D56BB"></path>
    <path d="M9.9408 25.3896V25.3982V25.399H9.94003L9.93848 25.3982V25.3974V25.3904L9.9408 25.3896Z" fill="#1D49BC"></path>
    <path d="M9.94069 20.6404V25.3894L9.93848 25.3902V20.6419L9.94069 20.6404Z" fill="#1D49BC"></path>
    <path d="M9.94117 20.6385V20.6412L9.93848 20.6394V20.6376L9.93937 20.6367L9.94117 20.6385Z" fill="#1D49BC"></path>
    <path d="M9.94124 20.6369V20.6387L9.93945 20.6369L9.94035 20.636H9.94124V20.6369Z" fill="#1D49BC"></path>
    <path d="M9.94061 20.6345V20.6359H9.93994V20.6352L9.94061 20.6345Z" fill="#1D4DBE"></path>
    <path d="M9.9408 20.6272V20.635L9.94003 20.6357H9.93925H9.93848V20.635V20.628L9.9408 20.6272Z" fill="#1D4DBE"></path>
    <path d="M9.94069 15.8782V20.6272L9.93848 20.628V15.8797L9.94069 15.8782Z" fill="#1D4DBE"></path>
    <path d="M9.94117 15.8754V15.879L9.93848 15.8772V15.8754L9.93937 15.8745H9.94117V15.8754Z" fill="#1D4DBE"></path>
    <path d="M9.94155 15.8691V15.8742H9.94071L9.93903 15.8733L9.93652 15.8717L9.94155 15.8691Z" fill="#1D68D0"></path>
    <path d="M9.94115 15.8647V15.8694L9.9365 15.8717L9.93262 15.8694L9.94115 15.8647Z" fill="#1D68D0"></path>
    <path d="M9.94075 11.1201V15.8648L9.93262 15.8692V11.1209L9.93779 11.1179H9.93853L9.94075 11.1194V11.1201Z" fill="#1D68D0"></path>
    <path d="M9.94084 11.1165V11.1196L9.93848 11.118L9.94084 11.1165Z" fill="#1D68D0"></path>
    <path d="M9.9412 11.1121V11.1171L9.93701 11.1146L9.9412 11.1121Z" fill="#1D68D0"></path>
    <path d="M9.94035 11.1106V11.112L9.93692 11.114L9.93555 11.1133L9.94035 11.1106Z" fill="#185ECB"></path>
    <path d="M9.94168 11.1077V11.1109L9.93602 11.1141L9.93359 11.1125L9.94168 11.1077Z" fill="#185ECB"></path>
    <path d="M9.94075 6.36816V11.1076L9.93336 11.1121L9.93262 11.1113V6.37334L9.94075 6.36816Z" fill="#185ECB"></path>
    <path d="M9.94126 6.3655V6.36864L9.93262 6.37414V6.36236L9.93497 6.36157L9.94126 6.36471V6.3655Z" fill="#1251BD"></path>
    <path d="M9.94093 6.36018V6.3648L9.93555 6.36095L9.93939 6.35864L9.94093 6.36018Z" fill="#135CC0"></path>
    <path d="M9.94124 6.35791V6.36059L9.93945 6.3588L9.94124 6.35791Z" fill="#135CC0"></path>
    <path d="M9.93583 6.36084L9.94121 6.36469L9.93506 6.36161L9.93583 6.36084Z" fill="#185ECB"></path>
    <path d="M9.93737 11.1143L9.94121 11.1166L9.9389 11.1181H9.93813L9.93506 11.1158L9.93737 11.1143Z" fill="#1B65CE"></path>
    <path d="M9.94058 15.8738V15.8744L9.93994 15.8738H9.94058Z" fill="#1D4DBE"></path>
    <path d="M9.9408 15.8745H9.93945L9.94013 15.8738L9.9408 15.8745Z" fill="#1D4DBE"></path>
    <path d="M9.94084 15.8783L9.93848 15.8799V15.8767L9.94084 15.8783Z" fill="#1C5FCA"></path>
    <path d="M9.94084 20.6405L9.93848 20.6421V20.6389L9.94084 20.6405Z" fill="#1D49BC"></path>
    <path d="M9.94093 25.4037L9.93555 25.4068V25.4006L9.94093 25.4037Z" fill="#1D53BB"></path>
    <path d="M9.94009 20.6353V20.6359L9.93945 20.6353H9.94009Z" fill="#1A4FC6"></path>
    <path d="M9.93982 15.8737H9.93848V15.873L9.93982 15.8737Z" fill="#1D68D0"></path>
    <path d="M9.93982 25.3984L9.93848 25.399V25.3977L9.93982 25.3984Z" fill="#1C52BC"></path>
    <path d="M9.93848 15.8738L9.93915 15.8745L9.93848 15.8751V15.8738Z" fill="#1D5ECC"></path>
    <path d="M9.93911 20.6353L9.93848 20.6359V20.6353H9.93911Z" fill="#1D5ECC"></path>
    <path d="M9.93989 6.35878L9.93585 6.36121L9.93262 6.35959V6.35474L9.93989 6.35878Z" fill="#135CC0"></path>
    <path d="M9.93909 25.3904V25.3977L9.93262 25.3944L9.93909 25.3904Z" fill="#1D49BC"></path>
    <path d="M9.9386 20.6421V25.3904L9.93269 25.3941L5.91846 23.0151L9.9386 20.6421Z" fill="#1D49BC"></path>
    <path d="M9.9386 20.6389V20.6419L5.91846 23.0149V23.0105L9.93712 20.6382L9.9386 20.6389Z" fill="#1D49BC"></path>
    <path d="M9.93836 20.6375V20.6388L9.93701 20.6381L9.93836 20.6375Z" fill="#1D49BC"></path>
    <path d="M9.93909 20.6279V20.6352L9.93262 20.632L9.93909 20.6279Z" fill="#1D4DBE"></path>
    <path d="M9.9386 15.8796V20.628L9.93269 20.6317L5.91846 18.2527L9.9386 15.8796Z" fill="#1D4DBE"></path>
    <path d="M9.9386 15.8767V15.8797L5.91846 18.2527V18.2483L9.93712 15.876L9.9386 15.8767Z" fill="#1C5FCA"></path>
    <path d="M9.93836 15.8752V15.8766L9.93701 15.8759L9.93836 15.8752Z" fill="#1D4DBE"></path>
    <path d="M9.93742 11.1178L9.93262 11.1205V11.1164L9.93399 11.1157H9.93467L9.93742 11.1178Z" fill="#1B65CE"></path>
    <path d="M9.93629 11.1135L9.93808 11.1144L9.93539 11.1162H9.93449L9.93359 11.1153L9.93629 11.1135Z" fill="#1B65CE"></path>
    <path d="M9.93712 15.8758L5.91846 18.2481V13.4946L9.93269 15.8729L9.93343 15.8736L9.93712 15.8758Z" fill="#1C5FCA"></path>
    <path d="M9.93712 20.6383L5.91846 23.0106V18.3325V18.266V18.2623V18.2571L9.93712 20.6383Z" fill="#1D4CBB"></path>
    <path d="M9.9368 15.8717L9.93345 15.8742L9.93262 15.8733V15.8691L9.9368 15.8717Z" fill="#1763D1"></path>
    <path d="M9.93341 11.1121L9.93577 11.1136L9.93341 11.1152H9.93262V11.1144V11.1121H9.93341Z" fill="#1B65CE"></path>
    <path d="M9.93561 25.4094V28.5018C9.0345 28.0639 8.18377 27.5292 7.39844 26.9072L9.93561 25.4094Z" fill="#1D56BB"></path>
    <path d="M9.93541 25.4014V25.4073L7.39602 26.9066C6.87114 26.4919 6.377 26.0398 5.91748 25.5537V23.0225L9.93541 25.4014Z" fill="#1D53BB"></path>
    <path d="M9.93577 6.36095L9.93498 6.36174L9.93262 6.36016V6.35938L9.93577 6.36095Z" fill="#1959C6"></path>
    <path d="M9.9353 6.3619L9.93262 6.36279V6.36011L9.9353 6.3619Z" fill="#1251BD"></path>
    <path d="M9.93396 11.1157L9.93262 11.1163V11.115H9.93329L9.93396 11.1157Z" fill="#1B65CE"></path>
    <path d="M9.93262 11.1113L9.93325 11.112H9.93262V11.1113Z" fill="#185ECB"></path>
    <path d="M9.93269 11.1208V15.8692L5.91846 13.4909L9.93269 11.1208Z" fill="#1D68D0"></path>
    <path d="M9.93269 11.1165V11.1209L5.91846 13.491V13.4866L9.93269 11.1165Z" fill="#1B65CE"></path>
    <path d="M9.93269 11.115V11.1165L5.91846 13.4866V13.4304V13.4267V13.4223V8.7427L5.92363 8.73975L9.93269 11.1143V11.115Z" fill="#1B65CE"></path>
    <path d="M9.9324 11.1121V11.1143L5.92334 8.73976L5.9263 8.73828L9.9324 11.1113V11.1121Z" fill="#1B65CE"></path>
    <path d="M9.93286 6.37329V11.1113L5.92676 8.73821L9.93286 6.37329Z" fill="#185ECB"></path>
    <path d="M9.93245 6.3623V6.37339L5.92635 8.73832L5.91748 8.73314V8.7324L9.93245 6.3623Z" fill="#1251BD"></path>
    <path d="M9.93245 6.35996L5.91748 8.73006V6.54996C6.44941 5.98752 7.02757 5.47068 7.64589 5.00488V5.00488L9.91249 6.34813L9.93245 6.35996Z" fill="#1251BD"></path>
    <path d="M9.93254 6.35482V6.35925L9.91406 6.34817L9.91702 6.34595L9.93254 6.35482Z" fill="#135CC0"></path>
    <path d="M9.91776 6.34626L9.91441 6.34877H9.91357V6.34375L9.91776 6.34626Z" fill="#135CC0"></path>
    <path d="M9.91357 6.34365V6.34808L7.64697 5.00483C8.35578 4.46891 9.11486 4.00297 9.91357 3.61353V6.34365Z" fill="#135CC0"></path>
    <path d="M5.91748 8.73315L5.92679 8.73858L5.92369 8.74014L5.91748 8.73626V8.73315Z" fill="#1B65CE"></path>
    <path d="M5.92395 8.74013L5.91829 8.74336V8.74255L5.91748 8.74174V8.73608L5.92395 8.74013Z" fill="#1B65CE"></path>
    <path d="M5.91825 23.0356V25.5529L5.91455 25.5492V23.0356H5.91825Z" fill="#1945AC"></path>
    <path d="M5.91848 23.0225V23.0366L5.91455 23.0342V23.0248L5.91848 23.0225Z" fill="#1945AC"></path>
    <path d="M5.91812 23.0217V23.0224L5.91748 23.0217H5.91812Z" fill="#1945AC"></path>
    <path d="M5.91904 23.0208V23.0226H5.91814L5.91455 23.0208V23.0181L5.91904 23.0208Z" fill="#1943A8"></path>
    <path d="M5.91834 23.0151V23.0203H5.91465L3.22149 21.4249C3.05146 21.0213 2.90015 20.6085 2.76758 20.1867L5.8629 18.3L5.91465 18.3304V23.0173L5.91834 23.0151Z" fill="#1943A8"></path>
    <path d="M5.91874 23.0105V23.0155L5.91455 23.013L5.91874 23.0105Z" fill="#1943A8"></path>
    <path d="M5.91825 18.3325V23.0106L5.91455 23.0129V18.3303L5.91825 18.3325Z" fill="#1943A8"></path>
    <path d="M5.91825 18.2659V18.3324L5.91455 18.3302V18.2681L5.91825 18.2659Z" fill="#1943A8"></path>
    <path d="M5.9184 18.2622V18.2661L5.91455 18.2684V18.2645L5.9184 18.2622Z" fill="#1950BD"></path>
    <path d="M5.91859 18.2573V18.263L5.91455 18.2605V18.2549L5.91859 18.2573Z" fill="#1950BD"></path>
    <path d="M5.91874 18.2527V18.2577L5.91455 18.2552L5.91874 18.2527Z" fill="#1950BD"></path>
    <path d="M5.91874 18.2483V18.2533L5.91455 18.2508L5.91874 18.2483Z" fill="#1950BD"></path>
    <path d="M5.91825 13.4946V18.2481L5.91455 18.2504V13.4932H5.91529L5.91825 13.4946Z" fill="#1950BD"></path>
    <path d="M5.91912 13.491V13.4955L5.91553 13.4937L5.91912 13.491Z" fill="#1950BD"></path>
    <path d="M5.91874 13.4866V13.4916L5.91455 13.4891L5.91874 13.4866Z" fill="#1950BD"></path>
    <path d="M5.91825 13.4304V13.4866L5.91455 13.4888V13.429H5.91529L5.91825 13.4304Z" fill="#1950BD"></path>
    <path d="M5.91912 13.4268V13.4312L5.91553 13.4294L5.91912 13.4268Z" fill="#1950BD"></path>
    <path d="M5.91874 13.4224V13.4274L5.91455 13.4249L5.91874 13.4224Z" fill="#1950BD"></path>
    <path d="M5.91825 8.74268V13.4222L5.91455 13.4245V8.74415L5.91677 8.74268L5.91751 8.74341L5.91825 8.74268Z" fill="#1B5CC4"></path>
    <path d="M5.91815 8.74194V8.74262L5.91748 8.74329V8.74262L5.91815 8.74194Z" fill="#1B5CC4"></path>
    <path d="M5.91815 8.74188L5.91748 8.74255V8.74121L5.91815 8.74188Z" fill="#144DAE"></path>
    <path d="M5.91874 13.4271L5.91539 13.4296L5.91455 13.4287V13.4246L5.91874 13.4271Z" fill="#1755C1"></path>
    <path d="M5.91874 13.4913L5.91539 13.4938L5.91455 13.493V13.4888L5.91874 13.4913Z" fill="#1950BD"></path>
    <path d="M5.91874 18.253L5.91455 18.2555V18.2505L5.91874 18.253Z" fill="#1950BD"></path>
    <path d="M5.91874 18.2625L5.91455 18.265V18.26L5.91874 18.2625Z" fill="#1C51BB"></path>
    <path d="M5.91874 23.0152L5.91455 23.0177V23.0127L5.91874 23.0152Z" fill="#1943A8"></path>
    <path d="M5.91904 23.0226L5.91455 23.0253V23.0244L5.91814 23.0217L5.91904 23.0226Z" fill="#1945AC"></path>
    <path d="M5.91814 23.0221L5.91455 23.0247V23.0203L5.91814 23.0221Z" fill="#19389E"></path>
    <path d="M5.91763 8.74268V8.74331L5.91699 8.74268H5.91763Z" fill="#185FB8"></path>
    <path d="M5.91771 8.74132V8.7429H5.91692L5.91455 8.74211V8.73975L5.91771 8.74132Z" fill="#144DAE"></path>
    <path d="M5.91779 8.73624V8.7419L5.91455 8.74028V8.73462L5.91779 8.73624Z" fill="#185FB8"></path>
    <path d="M5.91771 8.73315V8.73631L5.91455 8.73473L5.91771 8.73315Z" fill="#185FB8"></path>
    <path d="M5.91814 8.73275V8.73365L5.91455 8.73544V8.73096L5.91814 8.73275Z" fill="#185FB8"></path>
    <path d="M5.91769 6.55005V8.73015V8.73902L4.70898 8.02267C5.07783 7.5048 5.48167 7.01278 5.91769 6.55005V6.55005Z" fill="#185FB8"></path>
    <path d="M5.91723 8.74284L5.91455 8.74463V8.74194L5.91723 8.74284Z" fill="#144DAE"></path>
    <path d="M5.91455 13.4924L5.91519 13.4931H5.91455V13.4924Z" fill="#1950BD"></path>
    <path d="M5.91455 13.4282L5.91519 13.4289H5.91455V13.4282Z" fill="#1755C1"></path>
    <path d="M5.91486 23.0357V25.5492C5.41112 25.0162 4.95058 24.4439 4.5376 23.8378L5.90672 23.0291L5.91486 23.0357Z" fill="#1945AC"></path>
    <path d="M5.91498 23.0247V23.034L5.90723 23.0293L5.91498 23.0247Z" fill="#1945AC"></path>
    <path d="M5.91527 23.0239V23.0247L5.90751 23.0294H5.90674L5.91527 23.0239Z" fill="#1945AC"></path>
    <path d="M5.91484 23.0201L5.9067 23.0253L3.25568 21.5046C3.24385 21.478 3.23277 21.4514 3.22168 21.4248L5.91484 23.0201Z" fill="#19389E"></path>
    <path d="M5.91454 18.2681V18.3302L5.86279 18.2999L5.91454 18.2681Z" fill="#1943A8"></path>
    <path d="M5.91457 18.2644V18.2681L5.86282 18.2999L5.85986 18.2977L5.91457 18.2644Z" fill="#1950BD"></path>
    <path d="M5.91461 18.2601V18.2645L5.8599 18.2978L2.13916 16.094L5.91461 18.2601Z" fill="#1C51BB"></path>
    <path d="M5.91461 18.2549V18.2601L2.13916 16.0925V16.0519C2.13916 15.9661 2.13916 15.8804 2.13916 15.7946L5.90943 13.429V13.4925V18.2542L5.91461 18.2549Z" fill="#1950BD"></path>
    <path d="M5.91491 13.4253L2.14464 15.791C2.14425 15.7903 2.14404 15.7896 2.14404 15.7888C2.14404 15.788 2.14425 15.7872 2.14464 15.7866L5.91491 13.4209V13.4253Z" fill="#1755C1"></path>
    <path d="M5.91521 13.4246V13.429L5.91162 13.4273L5.91521 13.4246Z" fill="#1755C1"></path>
    <path d="M5.91462 8.74414V13.4252L2.84961 11.6657C3.01498 11.1704 3.20849 10.6849 3.4292 10.2116L5.91462 8.74414Z" fill="#1B5CC4"></path>
    <path d="M5.91462 8.74196L3.4292 10.2087C3.7872 9.4446 4.2143 8.71486 4.70517 8.02856L5.91462 8.74196Z" fill="#144DAE"></path>
    <path d="M5.91453 8.73974L4.70508 8.02856L5.91453 8.73974Z" fill="#144DAE"></path>
    <path d="M5.91487 13.4252L2.84912 11.668L5.91487 13.4252Z" fill="#1755C1"></path>
    <path d="M5.91187 13.4252L2.1416 15.7909C2.16562 14.3888 2.40395 12.9987 2.84834 11.6687L5.91187 13.4252Z" fill="#1755C1"></path>
    <path d="M5.90672 23.0291L4.5376 23.8378L5.90672 23.0291Z" fill="#1945AC"></path>
    <path d="M5.90639 23.029L4.53653 23.837C4.03519 23.1027 3.60614 22.3216 3.25537 21.5046L5.90639 23.029Z" fill="#19389E"></path>
    <path d="M5.85795 18.2978L2.76411 20.1807C2.35136 18.8576 2.14003 17.48 2.13721 16.094L5.85795 18.2978Z" fill="#1C51BB"></path>
    <path d="M1.89429 11.1168L1.8916 11.1195V11.115L1.89429 11.1168Z" fill="#1755C1"></path>
    <path style="mix-blend-mode:multiply" opacity="0.15" d="M16.0002 2.21851C23.6405 2.21851 29.8334 8.4121 29.8334 16.0517C29.8335 17.8683 29.4758 19.6672 28.7806 21.3456C28.0855 23.0239 27.0665 24.5489 25.782 25.8335C24.4974 27.118 22.9724 28.137 21.294 28.8321C19.6157 29.5273 17.8168 29.885 16.0002 29.8849C8.36059 29.8849 2.16699 23.6921 2.16699 16.0517" fill="url(#paint0_radial_1185_2)"></path>
    <path d="M23.5766 10.7045L21.211 12.7457C21.211 12.7457 19.5439 9.58972 15.9622 9.85882C12.3804 10.1279 10.0754 13.2358 10.4509 16.5122C10.8265 19.7887 12.9149 20.9907 12.9149 20.9907C12.9149 20.9907 15.7345 23.2995 19.1455 21.3123C19.1455 21.3123 20.5146 20.5605 21.5621 18.9223L23.9278 20.7756C23.9278 20.7756 21.3226 25.26 15.8446 24.9377C15.8446 24.9377 9.722 24.9377 7.68088 18.5201C7.68088 18.5201 6.79376 15.1897 8.0032 12.5579C8.0032 12.5579 9.9253 7.32165 16.0014 7.05329C15.9999 7.05255 20.4081 6.62378 23.5766 10.7045Z" fill="white"></path>
    <defs>
        <radialGradient id="paint0_radial_1185_2" cx="0" cy="0" r="1" gradientUnits="userSpaceOnUse" gradientTransform="translate(16.0002 16.0517) scale(17.2257)">
            <stop offset="0.56" stop-color="white" stop-opacity="0"></stop>
            <stop offset="0.61" stop-color="#FAFBFD" stop-opacity="0.02"></stop>
            <stop offset="0.64" stop-color="#EBEDF7" stop-opacity="0.08"></stop>
            <stop offset="0.67" stop-color="#D2D6ED" stop-opacity="0.19"></stop>
            <stop offset="0.7" stop-color="#AEB5DE" stop-opacity="0.34"></stop>
            <stop offset="0.73" stop-color="#808BCC" stop-opacity="0.53"></stop>
            <stop offset="0.75" stop-color="#4959B5" stop-opacity="0.76"></stop>
            <stop offset="0.78" stop-color="#10259E"></stop>
        </radialGradient>
    </defs>
</svg>