<svg width="236" height="64" viewBox="0 0 236 64" fill="none" xmlns="http://www.w3.org/2000/svg">
<path d="M224.264 0.290039L214.133 3.66679V29.8719C214.133 32.7085 214.673 35.41 215.754 37.9768C216.767 40.4757 218.32 42.7046 220.211 44.5956C222.102 46.5543 224.331 48.0403 226.83 49.121C229.396 50.2016 232.166 50.7416 235.002 50.7416V40.6111C229.059 40.6111 224.264 35.8153 224.264 29.8718V21.8351H235.002V12.3794H224.264L224.264 0.290039ZM12.97 11.5018C6.14866 11.5018 0.610207 17.1076 0.610207 23.929C0.610207 30.7504 6.14837 36.2888 12.97 36.2888H15.8067C16.7522 36.2888 17.5627 37.0993 17.5627 38.0449C17.5627 39.0579 16.7522 39.8009 15.8067 39.8009H0.00219727V50.404H15.8067C22.628 50.404 28.1665 44.8664 28.1665 38.0448C28.1665 31.2234 22.6283 25.6849 15.8067 25.6849H12.97C11.957 25.6849 11.214 24.8744 11.214 23.9289C11.214 22.9158 11.957 22.1054 12.97 22.1054H27.0851V11.5017L12.97 11.5018ZM101.205 11.9744C98.6387 11.9744 96.0724 12.4471 93.7084 13.4602C91.4121 14.4733 89.3862 15.8243 87.5625 17.5802C85.8064 19.4038 84.4555 21.4299 83.4424 23.7262C82.4969 26.0901 81.9567 28.5889 81.9567 31.223C81.9567 33.7895 82.4969 36.3558 83.4424 38.7198C84.4555 41.0161 85.8065 43.0426 87.5625 44.8663C89.386 46.6223 91.4121 47.9727 93.7084 48.9858C96.0723 49.9313 98.6388 50.4721 101.205 50.4721C103.772 50.4721 106.338 49.9313 108.702 48.9858C110.998 47.9727 113.092 46.6223 114.849 44.8663C116.605 43.0427 117.955 41.0161 118.968 38.7198C119.981 36.3559 120.454 33.7894 120.454 31.223C120.454 28.5889 119.981 26.0901 118.968 23.7262C117.955 21.4299 116.605 19.3363 114.849 17.5802C113.025 15.8242 110.998 14.4733 108.702 13.4602C106.338 12.4471 103.772 11.9744 101.205 11.9744V11.9744ZM168.914 11.9744V28.5216C168.847 29.0619 168.847 29.5345 168.847 30.0748H168.914V49.9987H179.045V29.0617C179.518 25.7522 182.354 23.1861 185.867 23.1861C189.649 23.1861 192.756 26.2927 192.756 30.0748V49.9987H202.886V30.0748C202.886 25.4821 201.063 21.2272 197.889 17.9854C194.647 14.8111 190.392 13.055 185.866 13.055C183.435 13.055 181.139 13.5278 179.045 14.4733V11.9744L168.914 11.9744ZM55.9112 12.0383C53.3447 12.0383 50.7783 12.5109 48.4144 13.524C46.1181 14.5371 44.0921 15.8881 42.2684 17.6441C40.5124 19.4001 39.1615 21.4937 38.1484 23.79C37.2028 26.1539 36.6626 28.6528 36.6626 31.2868V59.9913L46.7932 63.3681V48.2393C47.3335 48.5095 47.874 48.7796 48.4143 48.9822C50.7782 49.9953 53.3447 50.5359 55.9111 50.5359C58.4776 50.5359 61.044 49.9953 63.4079 48.9822C65.7042 48.0366 67.7307 46.6862 69.5545 44.8627C71.3105 43.1067 72.6608 41.0807 73.6739 38.7844C74.687 36.4205 75.1597 33.8534 75.1597 31.287C75.1597 28.653 74.687 26.1541 73.6739 23.7902C72.6608 21.4939 71.3104 19.4679 69.5545 17.6442C67.7309 15.8882 65.7042 14.5373 63.4079 13.5242C61.044 12.5111 58.5452 12.0384 55.9111 12.0384L55.9112 12.0383ZM122.802 12.376L137.863 46.4162L131.042 63.3686H141.78L162.312 12.3766H151.506L142.996 33.7186L133.946 12.3766L122.802 12.376ZM101.204 22.1018C106.202 22.1018 110.322 26.2213 110.322 31.2192C110.322 36.2172 106.202 40.3372 101.204 40.3372C96.2058 40.3372 92.0858 36.2172 92.0858 31.2192C92.0858 26.2213 96.2058 22.1018 101.204 22.1018V22.1018ZM55.9097 22.1692C60.9077 22.1692 65.0277 26.2887 65.0277 31.2866C65.0277 36.2846 60.9077 40.4046 55.9097 40.4046C50.9118 40.4046 46.7917 36.2846 46.7917 31.2866C46.7917 26.2887 50.9118 22.1692 55.9097 22.1692Z" fill="#0ABF54"/>
</svg>
