<?xml version="1.0" encoding="UTF-8" standalone="no"?>
<svg
        version="1.1"
        x="0"
        y="0"
        width="68.999748"
        height="60"
        viewBox="0 0 68.999748 60"
        id="svg26"
        sodipodi:docname="icon.svg"
        inkscape:version="1.3.1 (9b9bdc1480, 2023-11-25, custom)"
        xmlns:inkscape="http://www.inkscape.org/namespaces/inkscape"
        xmlns:sodipodi="http://sodipodi.sourceforge.net/DTD/sodipodi-0.dtd"
        xmlns="http://www.w3.org/2000/svg"
        xmlns:svg="http://www.w3.org/2000/svg">
  <sodipodi:namedview
          id="namedview26"
          pagecolor="#ffffff"
          bordercolor="#000000"
          borderopacity="0.25"
          inkscape:showpageshadow="2"
          inkscape:pageopacity="0.0"
          inkscape:pagecheckerboard="0"
          inkscape:deskcolor="#d1d1d1"
          showgrid="false"
          inkscape:zoom="5.5840982"
          inkscape:cx="34.472889"
          inkscape:cy="39.755748"
          inkscape:window-width="1850"
          inkscape:window-height="1016"
          inkscape:window-x="70"
          inkscape:window-y="27"
          inkscape:window-maximized="1"
          inkscape:current-layer="svg26" />
  <defs
          id="defs24">
    <radialGradient
            id="Gradient_1"
            gradientUnits="userSpaceOnUse"
            cx="68.112999"
            cy="-0.071000002"
            r="53.405998">
      <stop
              offset="0"
              stop-color="#FFEF19"
              id="stop1" />
      <stop
              offset="0.246"
              stop-color="#FFDF08"
              id="stop2" />
      <stop
              offset="0.44"
              stop-color="#FFD700"
              id="stop3" />
      <stop
              offset="0.588"
              stop-color="#FDD401"
              id="stop4" />
      <stop
              offset="0.713"
              stop-color="#F7C903"
              id="stop5" />
      <stop
              offset="0.829"
              stop-color="#ECB808"
              id="stop6" />
      <stop
              offset="0.9"
              stop-color="#E3A90B"
              id="stop7" />
      <stop
              offset="1"
              stop-color="#D98B07"
              id="stop8" />
    </radialGradient>
    <radialGradient
            id="Gradient_2"
            gradientUnits="userSpaceOnUse"
            cx="29.667"
            cy="39.018002"
            r="53.076">
      <stop
              offset="0"
              stop-color="#FFEF19"
              id="stop9" />
      <stop
              offset="0.246"
              stop-color="#FFDF08"
              id="stop10" />
      <stop
              offset="0.44"
              stop-color="#FFD700"
              id="stop11" />
      <stop
              offset="0.588"
              stop-color="#FDD401"
              id="stop12" />
      <stop
              offset="0.713"
              stop-color="#F7C903"
              id="stop13" />
      <stop
              offset="0.829"
              stop-color="#ECB808"
              id="stop14" />
      <stop
              offset="0.9"
              stop-color="#E3A90B"
              id="stop15" />
      <stop
              offset="1"
              stop-color="#D98B07"
              id="stop16" />
    </radialGradient>
    <radialGradient
            id="Gradient_3"
            gradientUnits="userSpaceOnUse"
            cx="82.280998"
            cy="52.933998"
            r="53.362999">
      <stop
              offset="0"
              stop-color="#FFEF19"
              id="stop17" />
      <stop
              offset="0.246"
              stop-color="#FFDF08"
              id="stop18" />
      <stop
              offset="0.44"
              stop-color="#FFD700"
              id="stop19" />
      <stop
              offset="0.588"
              stop-color="#FDD401"
              id="stop20" />
      <stop
              offset="0.713"
              stop-color="#F7C903"
              id="stop21" />
      <stop
              offset="0.829"
              stop-color="#ECB808"
              id="stop22" />
      <stop
              offset="0.9"
              stop-color="#E3A90B"
              id="stop23" />
      <stop
              offset="1"
              stop-color="#D98B07"
              id="stop24" />
    </radialGradient>
  </defs>
  <g
          id="BoundingBox"
          transform="translate(-25.5005)" />
  <g
          id="Ribbon_Gradients"
          transform="translate(-25.5005)">
    <path
            d="M 69.584,0 H 68.97 67.679 V 0 H 43.955 c -0.021,0 -0.04,0.012 -0.052,0.03 L 25.508,31.894 c -0.01,0.019 -0.01,0.042 0,0.06 l 13.076,22.653 c -0.049,-0.157 -0.137,-0.331 -0.137,-0.331 -0.276,-0.514 -0.481,-0.912 -0.59,-1.163 -0.536,-1.225 -0.848,-2.918 -0.761,-4.567 0.216,-4.344 2.387,-8.627 3.545,-10.634 2.727,-4.716 7.991,-13.834 7.991,-13.834 0,0 5.264,-9.119 7.983,-13.835 0.674,-1.168 1.823,-3.057 3.384,-4.897 l 0.049,0.057 c 0,0 0.057,-0.063 0.06,-0.066 1.121,-1.321 2.455,-2.617 3.975,-3.6 C 65.474,0.839 67.097,0.26 68.429,0.113 68.869,0.064 69.574,0 69.574,0"
            fill="url(#Gradient_1)"
            id="path24"
            style="fill:url(#Gradient_1)" />
    <path
            d="m 91.814,36.546 c -0.612,1.027 -1.089,1.791 -1.347,2.146 -0.79,1.076 -2.105,2.197 -3.573,2.949 -3.874,1.985 -8.734,2.123 -11.055,2.123 -5.447,0 -15.841,0 -15.841,0 0,0 -10.527,0 -15.977,0 -2.316,0 -7.046,-0.138 -10.915,-2.123 -1.468,-0.752 -2.785,-1.873 -3.575,-2.949 -0.261,-0.355 -0.596,-0.801 -0.596,-0.801 L 41.68,59.97 c 0.011,0.018 0.03,0.03 0.053,0.03 h 36.526 c 0.022,0 0.041,-0.012 0.052,-0.03 L 91.888,36.462 c 0,0 -0.029,0.006 -0.074,0.084 z"
            fill="url(#Gradient_2)"
            id="path25"
            style="fill:url(#Gradient_2)" />
    <path
            d="m 76.04,0 h -6.568 c 0,0 -0.705,0.064 -1.145,0.113 -1.331,0.147 -2.954,0.726 -4.346,1.624 -1.523,0.985 -2.86,2.285 -3.983,3.609 1.56,1.84 2.712,3.728 3.38,4.897 2.722,4.716 7.992,13.836 7.992,13.836 0,0 5.26,9.117 7.985,13.833 1.159,2.007 3.333,6.29 3.548,10.634 0.074,1.497 -0.173,3.028 -0.619,4.215 l -0.387,1 12.595,-21.809 c 0.011,-0.018 0.011,-0.041 0,-0.06 L 76.092,0.03 C 76.081,0.012 76.062,0 76.04,0 Z"
            fill="url(#Gradient_3)"
            id="path26"
            style="fill:url(#Gradient_3)" />
  </g>
</svg>
