<svg xmlns="http://www.w3.org/2000/svg" width="503" height="134" viewBox="0 0 502.565 133.091"><defs><clipPath id="A"><path d="M0 99.818h376.924V0H0z"/></clipPath></defs><g clip-path="url(#A)" transform="matrix(1.333333 0 0 -1.333333 -.000267 133.09066)"><path d="M35.9 45.242c0 6.547-2.792 13.48-10.78 13.572H9.436V31.67h15.692c8 0 10.78 7.028 10.78 13.572M9.436 89.808v-21.56h13.477c6.546 0 8.858 5.776 8.858 10.782 0 4.908-2.4 10.78-9.05 10.78zM45.34 45.242c0-6.258-1.73-11.746-4.907-15.88-3.657-4.623-9.048-7.128-15.305-7.128H4.72c-2.595 0-4.72 2.12-4.72 4.72v67.57c0 2.6 2.125 4.72 4.72 4.72h18.002c5.484 0 10.297-2.217 13.667-6.256 3.08-3.66 4.812-8.568 4.812-13.958s-1.73-10.396-4.81-14.056c0 0 0-.096-.095-.096 1.54-1.058 2.886-2.308 4.14-3.85C43.6 56.9 45.34 51.5 45.34 45.242m7.404 49.86c0 2.6 2.117 4.715 4.72 4.715 2.593 0 4.715-2.115 4.715-4.715v-55.54c0-7.896 8.278-8.474 10.78-8.474 2.6 0 4.715-2.117 4.715-4.715a4.72 4.72 0 0 0-4.714-4.714c-5.487 0-10.302 1.54-13.864 4.33-4.135 3.273-6.35 8.086-6.35 13.575zm58.134-22.623c0 2.6 2.117 4.716 4.72 4.716 2.596 0 4.714-2.115 4.714-4.716V39.564c0-5.5-2.305-10.303-6.35-13.575-3.66-2.8-8.473-4.33-13.96-4.33-5.4 0-10.2 1.54-13.863 4.33-4.138 3.272-6.352 8.085-6.352 13.575V72.48c0 2.6 2.116 4.716 4.716 4.716s4.72-2.115 4.72-4.716V39.564c0-7.897 8.278-8.475 10.78-8.475 2.598 0 10.875.578 10.875 8.475zm26.465-20.2L159 56.3v2.502c0 6.644-5.87 8.952-10.877 8.952-4.905 0-10.78-2.308-10.78-8.952zm10.78 24.926c5.395 0 10.397-1.728 14.055-4.716 4.046-3.366 6.262-8.275 6.262-13.666v-6.35c0-2.314-1.644-4.235-3.853-4.622l-27.245-5.2v-3.077c0-7.895 8.28-8.475 10.78-8.475 2.312 0 9.724.484 10.78 6.932.387 2.598 2.796 4.332 5.393 3.946a4.77 4.77 0 0 0 3.943-5.388c-1.443-9.05-9.336-14.92-20.116-14.92-5.4 0-10.2 1.54-13.858 4.33-4.14 3.27-6.353 8.084-6.353 13.574v19.25c0 5.4 2.212 10.3 6.255 13.666 3.655 2.988 8.566 4.716 13.956 4.716" fill="#1655aa"/><path d="M196.06 99.818c5.293 0 10-1.248 13.665-3.657 4.23-2.598 6.93-6.64 8.088-11.454.675-2.502-.77-5.007-3.463-5.484-2.415-.77-5.007.768-5.68 3.173-1.634 6.93-8.668 7.893-12.6 7.893-4.24 0-11.747-1.248-11.747-9.913 0-6.16 4.622-9.145 15.398-13.86 4.245-1.734 8.857-3.753 12.616-7.125 4.8-4.042 7.122-10.103 7.122-16.75 0-5.964-2.604-11.64-7.22-15.6-4.33-3.467-10-5.4-16.266-5.4-12.32 0-21.277 6.928-22.907 17.325-.3 2.6 1.535 5.003 4.043 5.296 2.692.48 5-1.35 5.483-3.946 1.152-8.472 10.5-9.05 13.38-9.05 6.64 0 14.15 3.56 14.15 11.355 0 8.088-5.3 11.556-14.15 15.2-10.3 4.523-21.18 9.628-21.18 22.526 0 5.967 2.216 10.973 6.358 14.435 3.85 3.277 8.952 5.007 14.92 5.007m71.305-40.996V26.375c0-2.598-2.118-4.716-4.72-4.716s-4.716 2.118-4.716 4.716v32.438c0 6.644-5.876 8.952-10.878 8.952-4.9 0-10.78-2.308-10.78-8.952V26.375a4.73 4.73 0 0 0-4.716-4.716 4.72 4.72 0 0 0-4.714 4.716V72.48c0 2.6 2.112 4.623 4.714 4.623 1.924 0 3.558-1.056 4.33-2.695 3.178 1.83 7.124 2.788 11.166 2.788 5.388 0 10.397-1.728 14.055-4.716 4.04-3.366 6.258-8.275 6.258-13.666m34.108-11.934l-8.95-.772C283 45.335 283 40.523 283 38.218c0-6.645 7.13-7.127 9.242-7.127 2.793 0 5.1.674 6.64 1.83 1.735 1.348 2.602 3.37 2.602 6.16zm20.312-20.406c0-2.604-2.116-4.813-4.718-4.813-4.525 0-8.374 1.922-11.165 4.907-3.564-3.272-8.088-4.907-13.67-4.907-10.977 0-18.578 6.83-18.578 16.558 0 6.64 2.888 10.585 5.394 12.703 3.08 2.6 7.3 4.138 12.702 4.524l9.723.768v4.815c0 5.004-4.427 6.834-8.563 6.834-4.047 0-7.126-1.733-8.18-4.522-.873-2.502-3.567-3.755-5.974-2.9-2.502.867-3.753 3.562-2.883 6.064 2.404 6.642 8.95 10.68 17.037 10.68 4.7 0 9.14-1.44 12.32-4.04 3.366-2.795 5.388-6.832 5.583-11.36v-22.33c0-1.926.476-8.375 6.254-8.375 2.602 0 4.718-2.023 4.718-4.618m34.358 32.822c0 7.894-8.28 8.472-10.875 8.472-2.502 0-10.78-.578-10.78-8.472V40.042c0-6.642 5.773-8.952 10.78-8.952s10.875 2.3 10.875 8.952zm9.43 0V40.042c0-5.388-2.208-10.297-6.256-13.666-3.653-3.082-8.66-4.716-14.05-4.716-3.952 0-7.605.865-10.78 2.597V4.717A4.73 4.73 0 0 0 329.777 0c-2.604 0-4.718 2.12-4.718 4.717V71.8c0 2.595 2.114 4.716 4.718 4.716 1.64 0 3.08-.866 3.946-2.12 3.272 1.832 7.218 2.8 11.554 2.8 5.485 0 10.3-1.535 13.95-4.327 4.05-3.273 6.354-8.088 6.354-13.575" fill="#f38b00"/><path d="M371.136 81.043c.773 0 1.277.506 1.277 1.33 0 .81-.504 1.28-1.277 1.28h-1.415v-2.6zm-2.153 3.282h2.235c1.147 0 1.953-.772 1.953-1.953 0-.993-.605-1.63-1.296-1.798v-.036s.068-.082.22-.37l1.33-2.573h-.826l-1.432 2.807h-1.446v-2.807h-.738zm1.95-8.752c2.96 0 5.234 2.34 5.234 5.385 0 3.03-2.273 5.386-5.234 5.386-2.91 0-5.167-2.355-5.167-5.386 0-3.045 2.256-5.385 5.167-5.385m0 11.478c3.33 0 5.992-2.692 5.992-6.093 0-3.415-2.66-6.09-5.992-6.09-3.282 0-5.924 2.676-5.924 6.09 0 3.4 2.642 6.093 5.924 6.093" fill="#818181"/></g></svg>