<?xml version="1.0" encoding="UTF-8" standalone="no"?>
<svg
   width="67.97123"
   height="51.999996"
   viewBox="0 0 67.971228 51.999996"
   fill="none"
   version="1.1"
   id="svg91"
   sodipodi:docname="icon.svg"
   inkscape:version="1.1.2 (0a00cf5339, 2022-02-04)"
   xmlns:inkscape="http://www.inkscape.org/namespaces/inkscape"
   xmlns:sodipodi="http://sodipodi.sourceforge.net/DTD/sodipodi-0.dtd"
   xmlns="http://www.w3.org/2000/svg"
   xmlns:svg="http://www.w3.org/2000/svg">
  <defs
     id="defs95" />
  <sodipodi:namedview
     id="namedview93"
     pagecolor="#ffffff"
     bordercolor="#666666"
     borderopacity="1.0"
     inkscape:pageshadow="2"
     inkscape:pageopacity="0.0"
     inkscape:pagecheckerboard="0"
     showgrid="false"
     inkscape:zoom="2.7557792"
     inkscape:cx="222.26019"
     inkscape:cy="67.67596"
     inkscape:window-width="1920"
     inkscape:window-height="946"
     inkscape:window-x="0"
     inkscape:window-y="0"
     inkscape:window-maximized="1"
     inkscape:current-layer="svg91" />
  <path
     fill-rule="evenodd"
     clip-rule="evenodd"
     d="M 53.357887,9.230766 37.805487,0 19.987287,2.9090899 8.2110674,16.615396 l -0.22378,18.0419 11.4405996,13.9861 17.7342,3.3566 15.7763,-8.8392 6.3776,-16.8951 z"
     fill="#ea2713"
     id="path69" />
  <path
     d="m 30.638687,31.889996 -0.0014,-9e-4 c -9.2617,-5.4011 -17.1446,-11.0753 -22.4083096,-15.8572 C 5.588047,13.632696 3.666367,11.511796 2.550577,9.8064862 1.991147,8.9514959 1.680747,8.2704499 1.553897,7.7634699 c -0.12272,-0.49051 -0.04488,-0.6864 -0.01402,-0.74292 0.03277,-0.055 0.15672,-0.21603 0.62748,-0.3509 0.49039,-0.1405 1.22266,-0.20913 2.23164,-0.1461 2.0123205,0.1257 4.7841704,0.75029 8.15679,1.86745 6.721,2.2262961 15.5173,6.3031961 24.7801,11.7189961 9.2626,5.4158 17.1461,11.0903 22.4101,15.869 2.6411,2.3977 4.5628,4.516 5.6785,6.2192 0.5593,0.8538 0.8695,1.5338 0.9963,2.0398 0.1251,0.4997 0.0415,0.693 0.012,0.7449 -0.0266,0.0469 -0.1403,0.2103 -0.6186,0.3477 -0.4878,0.1402 -1.2183,0.2089 -2.2268,0.1459 -2.0111,-0.1257 -4.7839,-0.7504 -8.1584,-1.8676 -6.7246,-2.2263 -15.5278,-6.3033 -24.7903,-11.7189 z"
     stroke="#ea2713"
     stroke-width="3"
     stroke-linecap="round"
     stroke-linejoin="round"
     id="path71" />
</svg>
