<svg width="219" height="52" viewBox="0 0 219 52" fill="none" xmlns="http://www.w3.org/2000/svg">
<path fill-rule="evenodd" clip-rule="evenodd" d="M53.3706 9.23077L37.8182 0L20 2.90909L8.22378 16.6154L8 34.6573L19.4406 48.6434L37.1748 52L52.9511 43.1608L59.3287 26.2657L53.3706 9.23077Z" fill="#EA2713"/>
<path d="M30.6514 31.89L30.65 31.8891C21.3883 26.488 13.5054 20.8138 8.24169 16.0319C5.60076 13.6327 3.67908 11.5118 2.56329 9.80649C2.00386 8.9515 1.69346 8.27045 1.56661 7.76347C1.44389 7.27296 1.52173 7.07707 1.55259 7.02055C1.58536 6.96555 1.70931 6.80452 2.18007 6.66965C2.67046 6.52915 3.40273 6.46052 4.41171 6.52355C6.42403 6.64925 9.19588 7.27384 12.5685 8.391C19.2895 10.6173 28.0858 14.6942 37.3486 20.11C46.6112 25.5258 54.4947 31.2003 59.7587 35.979C62.3998 38.3767 64.3215 40.495 65.4372 42.1982C65.9965 43.052 66.3067 43.732 66.4335 44.238C66.5586 44.7377 66.475 44.931 66.4455 44.9829C66.4189 45.0298 66.3052 45.1932 65.8269 45.3306C65.3391 45.4708 64.6086 45.5395 63.6001 45.4765C61.589 45.3508 58.8162 44.7261 55.4417 43.6089C48.7171 41.3826 39.9139 37.3056 30.6514 31.89Z" stroke="#EA2713" stroke-width="3" stroke-linecap="round" stroke-linejoin="round"/>
<path d="M194.063 14V17.4105H198.042V14H194.063Z" fill="white"/>
<path d="M194.063 32.3158H198.042V18.8H194.063V32.3158Z" fill="white"/>
<path d="M102.232 32.5684C96.9263 32.5684 92 31.8737 92 27.5789H95.9158C95.9158 28.9684 97.4316 29.5368 101.916 29.5368C106.274 29.5368 106.968 29.2842 106.968 28.2105C106.968 27.2 106.337 27.1368 101.474 26.821C95.4105 26.5053 92.4421 26 92.4421 22.7789C92.4421 19.2421 96.6737 18.6105 101.6 18.6105C106.779 18.6105 110.568 19.2421 110.568 22.9684H106.526C106.526 21.8316 105.074 21.5789 101.347 21.5789C97.5579 21.5789 96.4842 21.8947 96.4842 22.6526C96.4842 23.4737 97.2421 23.6631 101.979 23.9789C102.163 23.9918 102.345 24.0043 102.525 24.0167C107.655 24.3704 111.074 24.6062 111.074 28.0842C111.074 31.9368 107.537 32.5684 102.232 32.5684Z" fill="white"/>
<path fill-rule="evenodd" clip-rule="evenodd" d="M116.253 20.9474C117.768 19.4316 120.168 18.6105 123.137 18.6105C127.621 18.6105 131.411 20.4421 131.347 25.621C131.347 30.7368 127.558 32.5684 123.137 32.5684C120.168 32.5684 117.768 31.7474 116.253 30.2316V38H112.211V18.8H116.253V20.9474ZM116.253 25.5579C116.253 28.2105 118.211 29.221 121.811 29.221C125.411 29.221 127.368 28.2105 127.368 25.5579C127.368 22.8421 125.411 21.8316 121.811 21.8316C118.211 21.8316 116.253 22.9052 116.253 25.5579Z" fill="white"/>
<path fill-rule="evenodd" clip-rule="evenodd" d="M141.516 18.6105C138.611 18.6105 135.895 19.1158 133.053 20L134.505 22.8421C137.347 22.021 139.558 21.8316 141.326 21.8316C143.221 21.8316 146.568 22.021 146.568 24.6105C144.737 24.0421 142.589 23.6631 140.189 23.6631C135.832 23.6631 131.853 24.7368 131.853 28.2737C131.853 31.3053 134.253 32.5053 138.105 32.5053C141.389 32.5053 144.042 31.7474 146.505 30.6105V32.3158H150.547V25.4947C150.547 20.3789 147.263 18.6105 141.516 18.6105ZM146.568 28.0842C144.484 28.9684 141.516 29.6 139.305 29.6C137.221 29.6 135.895 29.4737 135.895 28.0842C135.895 26.6947 137.726 26.1895 140.695 26.1895C143.221 26.1895 145.116 26.5684 146.568 27.0105V28.0842Z" fill="white"/>
<path d="M159.958 29.9158L165.326 18.8H169.81L160.463 38H156.042L158.821 32.3158H156.737L149.663 18.8H154.084L159.958 29.9158Z" fill="white"/>
<path d="M186.737 18.8H170.505V22.0842H180.863L170.505 29.0316V32.3158H186.737V29.0316H176.379L186.737 22.0842V18.8Z" fill="white"/>
<path d="M188.442 32.3158V29.2842H192.421V32.3158H188.442Z" fill="white"/>
<path fill-rule="evenodd" clip-rule="evenodd" d="M218.316 25.5579C218.316 30.4842 214.463 32.5053 208.779 32.5053C203.032 32.5053 199.179 30.4842 199.242 25.5579C199.242 20.6316 203.032 18.6105 208.779 18.6105C214.463 18.6105 218.316 20.5684 218.316 25.5579ZM203.221 25.5579C203.221 28.3368 205.053 29.221 208.779 29.221C212.442 29.221 214.274 28.3368 214.337 25.5579C214.337 22.7158 212.505 21.8316 208.779 21.8316C205.053 21.8316 203.221 22.7158 203.221 25.5579Z" fill="white"/>
</svg>
