<?xml version="1.0" encoding="UTF-8"?>
<svg width="135.91" height="28.5" version="1.1" viewBox="0 0 135.90519 28.5" xml:space="preserve" xmlns="http://www.w3.org/2000/svg" xmlns:cc="http://creativecommons.org/ns#" xmlns:dc="http://purl.org/dc/elements/1.1/" xmlns:rdf="http://www.w3.org/1999/02/22-rdf-syntax-ns#"><metadata><rdf:RDF><cc:Work rdf:about=""><dc:format>image/svg+xml</dc:format><dc:type rdf:resource="http://purl.org/dc/dcmitype/StillImage"/><dc:title/></cc:Work></rdf:RDF></metadata>
<style type="text/css">
	.st0{fill:#0000A0;}
	.st1{fill:none;}
</style>
<g transform="translate(-.1 -.1)" fill="#0000a0">
		<path class="st0" d="m124.1 6.2c-5.5 0.4-9.9 4.9-10.3 10.4-0.4 6.5 4.7 11.9 11.1 11.9 2.3 0 5.4-1.2 6.8-3.6v3.3h4.3v-10.6c0.2-7-5.4-11.9-11.9-11.4zm7.3 11.4c-0.2 3.7-3.4 6.5-7.2 6-2.9-0.4-5.2-2.7-5.6-5.6-0.4-3.9 2.6-7.2 6.4-7.2 3.4 0 6.2 2.7 6.4 6.1z"/>
		<path class="st0" d="m100.5 6.2c-5.9 0.2-10.9 4.7-10.9 11.3 0 6 4.9 11.1 11.2 11.1 4.4 0 8.7-2.6 10.4-6.9l-4.3-1.3c-0.8 1.8-2.7 3.3-4.8 3.7-3 0.6-5.8-1.3-6.9-3.3l16.7-4.6c-0.5-4.4-4.3-10.2-11.4-10zm-6.2 10.6c0-2.3 1.4-5 4.4-6.1 3.4-1.3 6.4 0.4 7.7 2.8z"/>
				<path class="st0" d="m63.8 10.7v-4.6c-4.2 0-5.6 2.1-6.3 3.2v-2.5h-4.8v21.3h4.9v-10.5c0-4.8 2.8-6.7 6.2-6.9z"/>
				<polygon class="st0" points="5.3 28.1 5.3 10.9 20.1 28.2 24.6 28.2 24.6 2.4 19.7 2.4 19.7 19.6 5.1 2.4 0.1 2.4 0.1 28.1"/>
				<path class="st0" d="m86.7 0.1h-4.6v8.4c-1.1-1.4-4.5-2.6-7.4-2.3-5.5 0.4-9.9 4.9-10.3 10.4-0.4 6.5 4.7 11.9 11.1 11.9 2.4 0 5.7-1.1 6.8-3.2v2.8h4.3v-10.6-0.2-0.2zm-4.8 17.5c-0.2 3.7-3.4 6.5-7.2 6-2.9-0.4-5.2-2.7-5.6-5.6-0.4-3.9 2.6-7.2 6.4-7.2 3.4 0 6.2 2.7 6.4 6.1v0.7z"/>
				<path class="st0" d="m38.7 6.1c-6.2 0-11.2 5-11.2 11.2s5 11.2 11.2 11.2 11.2-5 11.2-11.2c-0.1-6.2-5.1-11.2-11.2-11.2zm0 17.6c-3.5 0-6.4-2.9-6.4-6.4s2.9-6.4 6.4-6.4 6.4 2.9 6.4 6.4c0 3.6-2.9 6.4-6.4 6.4z"/>
</g>
</svg>
