<svg xmlns="http://www.w3.org/2000/svg" xmlns:xlink="http://www.w3.org/1999/xlink" viewBox="0 0 200 40.9" xmlns:v="https://vecta.io/nano"><g fill-rule="evenodd"><path d="M193.2 0a6.74 6.74 0 0 1 6.8 6.8 6.74 6.74 0 1 1-13.6 0 6.81 6.81 0 0 1 6.8-6.8zm-15.4 12.4c-.1 0-.2.2-.2.4s0 .4.1.4l1 .2c.3 0 .5.1.6.2s.2.2.2.3c0 .2-.1.6-.3 1.2s-.5 1.3-.9 2.2l-1.1 2.7-.8 1.7c-.2.5-.4.7-.4.7s-.1-.2-.3-.5c-.1-.3-.3-.6-.4-1s-.2-.6-.3-.9l-1-3.1c-.1-.2-.2-.5-.4-1-.1-.4-.3-.9-.4-1.3s-.2-.7-.2-.9c0-.1 0-.2.1-.2s.3-.1.6-.2l.8-.2c.1-.1.2-.2.1-.4 0-.2-.1-.3-.2-.4-.5 0-1 0-1.5.1h-1.4-1.6c-.5 0-1 0-1.6-.1-.1 0-.2.2-.2.4s0 .4.1.4l.9.2c.6.1 1 .4 1.2.8s.5 1 .7 1.8l2.7 7.2.5 1.4c0 .3.1.6.1.9 0 .2 0 .5-.1.8 0 .3-.1.5-.2.7-.1.4-.4.9-.7 1.5-.3.7-.7 1.4-1.2 2.2-.1.2-.3.3-.5.5-.2.1-.4.1-.7.1h-.6c-.4 0-.7.1-.9.4a1.53 1.53 0 0 0-.4 1c0 .4.1.8.4 1s.6.4 1.1.4c.4 0 .8 0 1.1-.3.4-.2.7-.7 1-1.3l1.4-3 1.5-3.3 1.4-3.1c.5-.9.8-1.7 1.1-2.3l1.9-3.8 1.4-2.6c.4-.5.9-.9 1.4-1l.6-.1a.76.76 0 0 0 .2-.4c0-.2-.1-.3-.3-.4-.5 0-.9 0-1.3.1h-1.2-1.4c-.4 0-.9 0-1.5-.1zm-104.5-.3c-.6-.1-1-.1-1.4-.1-1.9 0-3.4.4-4.6 1.1-1.2.8-2.1 1.7-2.7 2.8-.5 1.1-.8 2.3-.8 3.5a7.78 7.78 0 0 0 .5 2.8c.4.9.8 1.6 1.4 2.1.6.6 1.3 1 2.1 1.3s1.6.5 2.5.5a7.47 7.47 0 0 0 2-.3c.7-.2 1.4-.6 2-1.1s1.1-1.2 1.5-2c0-.1-.1-.3-.2-.3-.1-.1-.2-.2-.4-.1a4.67 4.67 0 0 1-1.4 1.4c-.6.4-1.3.5-2.3.5-1.2 0-2.2-.3-3-.9s-1.4-1.3-1.8-2.2-.6-1.8-.6-2.6a6.64 6.64 0 0 1 .7-3c.5-.8 1-1.4 1.7-1.8s1.4-.6 2.2-.6c.7 0 1.4.2 1.9.5.6.3 1 .7 1.4 1.2.1.1.2.2.3.2h.2c.2 0 .4-.1.5-.4.1-.2.2-.5.2-.9 0-.3 0-.5-.1-.8-.1-.2-.2-.4-.4-.5-.3 0-.8-.1-1.4-.3zm-13.2 2.1c.1.3.2.6.2.9 0 .2 0 .4-.1.5 0 .1-.1.2-.1.2-.1.1-.4.1-.9.2l-2.6.1h-2.3-.2V16c0-.4.2-.8.5-1.2.4-.5.8-.9 1.4-1.2.5-.3 1.1-.5 1.8-.5s1.2.1 1.5.4c.4.1.6.4.8.7zm2.7 2.4V16c0-.7-.2-1.3-.6-1.9a4.63 4.63 0 0 0-1.6-1.5c-.7-.4-1.6-.6-2.6-.6-1.3 0-2.4.4-3.5 1.1-1 .7-1.8 1.6-2.3 2.7s-.8 2.4-.8 3.8c0 .7.1 1.5.3 2.3.2.7.5 1.4 1 2.1.5.6 1.1 1.2 2 1.6s1.8.6 2.9.6c.6 0 1.2-.1 1.8-.3.7-.2 1.4-.5 1.9-1 .6-.5 1-1.1 1.4-1.8a.76.76 0 0 0-.2-.4c-.1 0-.2-.1-.5 0-.5.7-1 1.1-1.5 1.3s-.9.4-1.5.3c-1.2 0-2.3-.3-3.1-.9-.8-.5-1.4-1.3-1.9-2.3-.4-.9-.6-2-.6-3.1 0-.4 0-.7.1-.8s.3-.1.7-.1h6.2 1.5c.3 0 .5-.1.5-.2.3-.1.3-.2.4-.3zm14.1-3c0 .1.1.2.2.3h.9c.3 0 .5 0 .6.2 0 .1.1.4.1.8v7.7c0 .7 0 1.3.2 1.8s.5 1 1 1.3 1.3.5 2.2.5 1.6-.2 2.2-.5 1-.6 1.3-1v-.3c0-.1-.1-.2-.3-.2l-.4.2c-.1.1-.3.2-.5.2-.1 0-.2.1-.4.2h-.5c-.7 0-1.3-.2-1.6-.6-.4-.3-.6-.8-.7-1.4-.1-.5-.2-1.1-.2-1.8v-6.2c0-.3 0-.5.1-.7 0-.1.2-.2.5-.1h3.7c.2-.1.3-.4.3-.7s0-.6-.3-.7h-3.7c-.3 0-.5 0-.5-.1 0 0-.1-.2-.1-.5v-1.5c-.1-.1-.2-.2-.4-.2h-.4c-.2.4-.4.7-.7 1.1l-.7.9c-.2.2-.5.4-.9.5-.4.2-.8.4-1.3.5.3 0 .3.1.3.3zM36 11.8c0-.1 0-.2-.1-.2h-.2c-.3.2-.6.4-1.1.6l-1.3.6-1 .5c-.1 0-.2.2-.2.3s0 .2.1.3l.3.3c.3.1.5.3.6.5s.2.4.2.6v.9 5.9 1.8c0 .4-.2.7-.4.8s-.5.3-.8.3l-.7.1c-.1.1-.2.2-.1.5 0 .2.1.3.2.4.4 0 .9-.1 1.4-.1h1.7 1.7c.5 0 1.2.1 2 .1.1-.1.2-.2.2-.4s0-.4-.1-.5l-1.2-.1c-.4 0-.7-.1-.9-.3-.2-.1-.4-.5-.4-.9V22v-4.6c0-.6 0-1.1.1-1.5.1-.5.2-.8.4-1 .1-.2.3-.4.5-.5s.4-.2.7-.2c.2 0 .5 0 .7.1s.5.2.8.4c.1 0 .2.1.3.2h.4c.3 0 .6-.1.9-.3.3-.3.5-.7.5-1.2s-.1-.8-.5-1c-.3-.2-.6-.4-1-.4-.6 0-1.3.2-1.9.6s-1.3.9-1.8 1.4c0 0-.1-.2-.1-.3v-1.9zm-8.1 2.4c.2.3.2.6.2.9v.5c0 .1-.1.2-.1.2-.1.1-.4.1-.9.2l-2.6.1h-2.3-.2V16c0-.4.2-.8.5-1.2.4-.5.8-.9 1.4-1.2.5-.3 1.1-.5 1.8-.5s1.2.1 1.5.4a1.21 1.21 0 0 1 .7.7zm2.7 2.4V16c0-.7-.2-1.3-.6-1.9a4.63 4.63 0 0 0-1.6-1.5c-.7-.4-1.6-.5-2.5-.6a6.06 6.06 0 0 0-3.5 1.1c-1 .7-1.8 1.6-2.3 2.7s-.8 2.4-.8 3.8c0 .7.1 1.5.3 2.3.2.7.5 1.4 1 2.1.5.6 1.1 1.2 1.9 1.6.9.4 1.9.6 2.9.6.6 0 1.2-.1 1.8-.3.7-.2 1.4-.5 1.9-1 .6-.5 1-1.1 1.4-1.8a.76.76 0 0 0-.2-.4c-.1 0-.3-.1-.5 0-.5.7-1 1.1-1.5 1.3s-.9.4-1.5.3c-1.2 0-2.2-.3-3-.9-.8-.5-1.4-1.3-1.9-2.3-.4-.9-.6-2-.6-3.1 0-.4 0-.7.1-.8s.3-.1.7-.1h6.2 1.5c.3 0 .5-.1.5-.2.3-.1.3-.2.3-.3zM53.8 2.3c-.6-.4-1.4-.5-2.3-.5-1.1 0-2.1.3-2.8.7-.8.4-1.4.9-2 1.6-.5.6-.9 1.3-1.2 1.9-.4.9-.7 1.9-.8 2.9-.2 1-.3 2-.3 3 0 .1 0 .3-.1.4s-.2.2-.3.2l-1.4.7c0 .1-.1.2 0 .4 0 .1 0 .2.1.3h1.2c.3 0 .5 0 .6.2.1.1.1.4 0 .8V22v1.8c0 .4-.1.7-.3.8-.2.2-.5.3-.9.3l-.8.1c-.1.1-.2.2-.2.5 0 .2.1.3.2.4.5 0 1-.1 1.5-.1h1.8 1.7c.5 0 1.2.1 1.9.1.1-.1.1-.2.2-.4 0-.2 0-.4-.1-.5l-1.2-.1c-.4 0-.7-.1-.9-.3-.1-.1-.3-.5-.3-.9v-1.8-7.1-.8c0-.1.2-.2.5-.2h3.5c.1 0 .3-.2.4-.3 0-.2.1-.4.1-.6s0-.4-.2-.5h-3.8c-.3 0-.5 0-.5-.1v-.8-1-1.9c0-.7.1-1.3.2-1.9.1-.7.3-1.3.5-1.8.2-.6.6-1 1-1.4.4-.3.9-.5 1.4-.5.6 0 1.1.1 1.5.5.5.3.8.6 1.1 1 .1.1.3.2.4.3.1 0 .2.1.4.1.4 0 .7-.1.9-.3s.4-.5.4-.9c-.1-.5-.4-1-1.1-1.4zm90.4 9.3h-.2c-.2.2-.5.4-.9.6-.7.3-1.6.8-2.4 1-.1 0-.1.2-.1.3s0 .2.1.3l.3.2c.3.2.5.4.6.5.1.2.1.3.2.5v1.1V22v1.8c0 .4-.1.7-.3.8-.2.2-.5.3-.9.3l-.7.1c-.1.1-.1.2-.1.5 0 .2 0 .3.2.4.5 0 .9-.1 1.5-.1h1.6 1.6c.5 0 1 .1 1.4.1.1-.1.2-.2.2-.4s0-.4-.1-.5l-.6-.1c-.4 0-.7-.2-.9-.3-.1-.1-.3-.4-.3-.8V22v-5.1c0-.8 0-1.4.5-2 .2-.3.6-.6 1.2-.9.5-.2 1-.3 1.7-.3 1.1 0 1.9.4 2.4.9.5.6.7 1.4.7 2.3v5 1.8c0 .4-.2.7-.3.8-.2.1-.5.3-.9.3l-.6.1c-.1.1-.1.2-.1.5 0 .2.1.3.2.4.4 0 .9-.1 1.4-.1h1.6 1.6c.5 0 1 .1 1.5.1.1-.1.2-.2.2-.4s0-.4-.2-.5l-.7-.1c-.4 0-.7-.1-.9-.3-.1-.1-.3-.4-.3-.8v-1.8-5.8c0-.8-.1-1.4-.4-2s-.7-1.1-1.3-1.5-1.3-.5-2.3-.6c-.9 0-1.7.2-2.4.5-.8.3-1.5.7-2.3 1.2-.1 0-.2 0-.2-.1 0 0-.1-.1-.1-.2v-.7-.9c-.1-.1-.1-.2-.2-.2zm-9.6 2.5c.6.6 1.1 1.4 1.4 2.4s.5 2 .4 2.9c0 .9-.1 1.8-.4 2.6a4.32 4.32 0 0 1-1.2 2.2c-.6.6-1.4.9-2.3.9-1 0-1.8-.3-2.4-.9-.7-.6-1.1-1.4-1.4-2.3-.3-1-.5-2-.5-3 0-1.9.4-3.3 1.1-4.2.7-1 1.6-1.5 2.8-1.5 1.1-.2 1.9.2 2.5.9zm3.8 8.6c.6-1.1.9-2.3.9-3.7s-.4-2.6-.9-3.6c-.6-1-1.4-1.9-2.4-2.4s-2.2-.8-3.4-.9c-1.4 0-2.6.4-3.6.9-1.1.6-1.9 1.4-2.6 2.5-.6 1.1-.9 2.3-.9 3.8 0 1.4.3 2.6.9 3.7.6 1 1.4 1.8 2.4 2.3s2.2.8 3.5.9c1.4 0 2.7-.3 3.7-.9 1-.7 1.8-1.6 2.4-2.6zm20.4-6.6h-.2V16c0-.4.2-.8.5-1.2.4-.5.8-.9 1.4-1.2.5-.3 1.2-.5 1.8-.5s1.1.1 1.5.4c.4.2.7.4.9.8.1.3.2.6.2.9v.5c0 .1-.1.2-.1.2-.1.1-.4.1-.9.2l-2.6.1h-2.5zm-.5 1.1c.1-.1.4-.1.8-.1h6.2 1.5c.6-.1.6-.5.6-1.1 0-.7-.2-1.3-.6-1.9a4.63 4.63 0 0 0-1.6-1.5c-.7-.4-1.6-.5-2.6-.6-1.3 0-2.4.4-3.5 1.1-1 .7-1.8 1.6-2.3 2.7-.6 1.1-.9 2.4-.9 3.8 0 .7.1 1.5.4 2.3.2.7.5 1.4 1 2.1.5.6 1.1 1.2 1.9 1.6.9.4 1.8.6 2.9.6.6 0 1.2-.1 1.9-.3a4.98 4.98 0 0 0 1.9-1 6.55 6.55 0 0 0 1.5-1.8.76.76 0 0 0-.2-.4c-.1 0-.2-.1-.5 0-.5.7-1 1.1-1.5 1.3s-.9.4-1.5.3c-1.2 0-2.2-.3-3-.9-.8-.5-1.4-1.3-1.9-2.3-.2-.6-.4-1.2-.5-1.8-.1-.5-.1-1.2-.1-1.7 0-.2 0-.3.1-.4zM100.8 3.6h-1.2c-.4 0-.9 0-1.4-.1-.1 0-.2.2-.2.4a.9.9 0 0 0 .1.5h.5c.7.1 1.2.3 1.5.4.3.2.5.5.6.9s.1.9.1 1.6l-.1 3.4-.2 4.1c0 1.1-.1 2-.2 2.8 0 .9-.1 1.6-.2 2.3 0 .7-.1 1.4-.2 2.2s-.2 1.4-.3 1.7c-.1.4-.4.6-.6.7-.3.1-.7.3-1.1.3l-.7.1c-.2.1-.3.2-.2.5 0 .1 0 .3.2.4.6 0 1.1-.1 1.7-.1h1.7 1.8c.7 0 1.3.1 1.8.1.1-.1.2-.2.2-.4s0-.3-.2-.5l-1.3-.1c-.4 0-.7-.1-.9-.3s-.4-.5-.4-.9c-.1-.4-.2-1.1-.1-1.9l.1-4.2.1-3.7c0-.9.1-1.9.2-2.9l.1-3h.1a17.25 17.25 0 0 1 1 2.4l1.1 2.4 3 6.5c.3.5.6 1.2.9 2l1.2 2.5c.4.8.6 1.5.8 2.2 0 0 .1 0 .1.1h.1.2s.1 0 .1-.1l.9-2 1.2-2.7 1.5-2.9 1.9-3.7 3.2-6.5.1 13.9v1.7c-.1.9-.8 1.1-1.6 1.2l-1 .1c-.1.1-.1.2-.1.5 0 .1 0 .3.2.4l2.1-.1h2 1.9c.7 0 1.4.1 2 .1.1-.1.2-.2.2-.4s0-.3-.1-.5l-1.1-.1c-.8-.1-1.4-.4-1.5-1.3 0-.4-.1-.9-.1-1.4l-.2-5.1-.2-5.1V7.6c0-.8 0-1.4.1-1.8s.3-.8.6-1 .9-.3 1.6-.4h.7c.1-.1.1-.2.1-.5 0-.1 0-.3-.1-.4-.5 0-1.1 0-1.6.1h-1.4c-.8 0-1.6 0-2.5-.1 0 .8-.3 1.6-.7 2.6l-1.8 3.8-3.2 6.4-1.2 2.6c-.4.9-.9 1.7-1.4 2.5h-.1l-1.1-2.3-1.1-2.4-3.5-7.7-1.3-3.1c-.3-.9-.5-1.8-.4-2.4-.9.1-1.9.1-2.8.1zM4 4.2c0 .2 0 .3.2.5l1.2.1c.5 0 .9.2 1.1.4s.4.5.4 1L7 8.4V15h2.7V5.8c0-.4 0-.6.1-.9 0-.1.2-.3.5-.3h1.3c1.7 0 3 .5 4 1.4.9.9 1.4 2.3 1.4 3.9 0 1.4-.3 2.7-1.1 3.7-.7.9-1.7 1.5-3 1.8s-3.2.5-5.6.4c-2.2 0-4.5-.2-7.1-.4l6.3 1.1c2.2.3 4.4.2 6.4-.1 1-.1 2-.4 2.8-.7l2.5-1.4c.5-.4.9-.9 1.4-1.7.3-.7.5-1.6.5-2.6 0-1.1-.3-2.1-.8-3s-1.1-1.5-1.9-2-1.7-.8-2.8-1c-1-.2-2.3-.3-3.7-.3H7.2c-1.1 0-2.1.1-2.9.2-.2-.1-.3.1-.3.3zm5.7 16.5v-3.2c-1 0-1.9 0-2.7-.1v3.3l-.1 2.6c0 .6-.2.9-.5 1.1-.2.2-.7.4-1.4.5l-.7.1c-.1.1-.2.3-.1.5 0 .2 0 .3.2.4.7 0 1.4-.1 2-.1h2 1.9l2.4.1c.1-.1.1-.2.2-.4 0-.2 0-.4-.1-.5l-.9-.1c-.7 0-1.2-.2-1.5-.4s-.5-.6-.6-1.2-.2-1.5-.1-2.6z" fill="#f01010"/><path d="M100.1 31.1h1.4V36c0 2.1-1 2.8-2.5 2.8a4.3 4.3 0 0 1-1.2-.2l.2-1.1c.2.1.5.1.9.1.8 0 1.3-.4 1.3-1.7zm8.6 6v1.6h-1.2l-.1-.8c-.2.4-.8 1-1.8 1s-1.9-.6-1.9-2.4v-3.2h1.4v3c0 .9.3 1.5 1 1.5.6 0 .9-.4 1.1-.7 0-.1.1-.3.1-.4v-3.3h1.4zm2.3.3c.3.2.9.4 1.4.4.6 0 .9-.2.9-.6s-.2-.6-.9-.8c-1.1-.4-1.5-1-1.5-1.6 0-1 .8-1.7 2.1-1.7.6 0 1.1.2 1.4.3l-.3 1a2.96 2.96 0 0 0-1.2-.3c-.5 0-.8.2-.8.6 0 .3.3.5 1 .8 1 .4 1.4.9 1.5 1.7 0 1-.8 1.7-2.2 1.7-.7 0-1.3-.2-1.7-.4z"/><use xlink:href="#B"/><path d="M126.1 36.4v.4c.1.6.6 1 1.2 1 .9 0 1.4-.7 1.4-1.8 0-1-.5-1.8-1.4-1.8-.6 0-1.1.4-1.2 1 0 .1-.1.2-.1.3v.9zm-1.4-1.3v-1.8h1.2l.1.8c.4-.6 1-1 1.9-1 1.3 0 2.3 1.1 2.3 2.8 0 2-1.2 2.9-2.5 2.9-.7 0-1.3-.3-1.5-.7v2.8h-1.4z"/><use xlink:href="#C"/><path d="M138.9 35v-1.8h1.2v1c.3-.8.9-1.2 1.5-1.2h.3v1.3h-.4c-.7 0-1.1.4-1.2 1v.4 2.8h-1.4zm5.4 3.7v-4.4h-.7v-1h.7V33c0-.7.2-1.4.7-1.9.4-.4 1-.5 1.4-.5s.7.1.9.1l-.1 1.1c-.1-.1-.3-.1-.6-.1-.7 0-.9.6-.9 1.2v.3h1.2v1h-1.2v4.4h-1.4z"/><use xlink:href="#C" x="16.2"/><path d="m159.2 38.5c-.3.1-.9.3-1.5.3-1.7 0-2.8-1.1-2.8-2.8 0-1.6 1.1-2.9 3-2.9.5 0 1 .1 1.3.3l-.2 1c-.2-.1-.6-.2-1-.2-1.1 0-1.7.8-1.7 1.8 0 1.1.7 1.8 1.7 1.8.5 0 .8-.1 1.1-.2z"/><use xlink:href="#B" x="44.5"/><path d="M192.9 4.6h-.3-.3-.3l-.1.1v.1h.1c.2 0 .3.1.3.1.1 0 .1.1.1.2v.4.8c0 .3 0 .6-.1.9 0 .5-.1 1.7-.2 2.1 0 .1-.1.1-.1.2-.1 0-.2.1-.3.1h-.2v.1.1h.4.4.4.4l.1-.1v-.1h-.3c-.1 0-.2 0-.2-.1 0 0 0-.1-.1-.1-.1-.1-.1-.4-.1-.6v-1V7v-.7-.7c.1.2.2.4.2.6l.3.6.7 1.5c.1.1.1.3.2.5l.3.6c0 .1.1.2.1.3l.1.2h.1c.1-.2.1-.3.2-.5l.6-1.3.7-1.3c.1-.1.1-.2.2-.4.1-.1.1-.3.2-.4s.1-.2.1-.2V9v.4c0 .1 0 .1-.1.2 0 .1-.1.1-.3.1h-.2v.1.1h.5.5.4.5v-.1-.1h-.3c-.1 0-.2 0-.3-.1s-.1-.1-.1-.2v-.3-1.2-1.2-1-.4c0-.1.1-.2.1-.2.1 0 .2-.1.4-.1h.2v-.1-.1h-.4-.3-.2-.3c0 .2-.1.4-.2.6s-.3.5-.4.9l-.7 1.5-.6 1.2c-.2-.3-.4-.7-.5-1.1l-.9-1.8c-.1-.3-.2-.5-.3-.7s-.1-.4-.1-.6c.3-.2.1-.2 0-.2zm-4.3 4v.6c0 .3-.2.4-.4.4h-.2c-.1.1 0 .2 0 .2h1 1v-.1-.1h-.2c-.2 0-.3 0-.4-.1s-.1-.1-.1-.3v-.6-.8h-.6zm-.7-3.9v.1h.3c.1 0 .2 0 .3.1.1 0 .1.1.1.2v.5 1.6h.6V5.1v-.2l.1-.1h.3c.4 0 .7.1.9.3s.3.5.3.9c0 .3-.1.6-.3.9-.2.2-.4.4-.7.4-.3.1-.7.1-1.3.1-.5 0-1.1 0-1.7-.1.7.1 1.2.2 1.5.3.5.1 1 .1 1.5 0 .2 0 .5-.1.7-.2l.6-.3a1.38 1.38 0 0 0 .3-.4c.1-.2.1-.4.1-.6 0-.3-.1-.5-.2-.7s-.3-.4-.4-.5c-.2-.1-.4-.2-.7-.2-.2 0-.5-.1-.9-.1h-.9c0-.1-.2 0-.5.1.1-.1 0-.1 0 0z" fill="#fff"/></g><defs ><path id="B" d="m118.3 31.8v1.4h1.3v1h-1.3v2.4c0 .7.2 1 .7 1 .3 0 .4 0 .5-.1v1.1c-.2.1-.6.1-1 .1-.5 0-.9-.2-1.2-.5s-.4-.8-.4-1.5v-2.6h-.8v-1h.8v-1z"/><path id="C" d="m135.6 35.4c0-.5-.2-1.3-1.1-1.3s-1.2.8-1.3 1.3zm-2.4 1c0 1 .8 1.4 1.7 1.4.6 0 1.1-.1 1.5-.2l.2 1c-.5.2-1.1.3-1.9.3-1.8 0-2.8-1.1-2.8-2.8 0-1.5.9-2.9 2.7-2.9s2.4 1.5 2.4 2.7v.6z"/></defs></svg>