<?xml version="1.0" encoding="UTF-8"?>
<svg width="955" height="440" fill-rule="evenodd" viewBox="0 0 763.700 351.986" xmlns="http://www.w3.org/2000/svg">
<g transform="translate(-26.7 -466)">
<path d="m26.697 489.71c0-13.08 10.7-23.78 23.78-23.78h716.14c13.081 0 23.781 10.7 23.781 23.78v304.43c0 13.082-10.7 23.781-23.781 23.781h-716.14c-13.08 0-23.78-10.699-23.78-23.781v-304.43z" fill="#f0a929"/>
<path d="m26.697 500.49h763.7v282.86h-763.7v-282.86z" fill="#fff"/>
<path d="m673.91 573.95c-34.941 0-63.424 28.487-63.424 63.428 0 34.928 28.483 63.419 63.424 63.419 34.934 0 63.418-28.491 63.418-63.419 0-34.941-28.484-63.428-63.418-63.428z" fill="#e21c2a"/>
<path d="m151.15 573.95c-34.944 0-63.431 28.487-63.431 63.428 0 34.928 28.487 63.419 63.431 63.419 34.928 0 63.416-28.491 63.416-63.419 0-34.941-28.488-63.428-63.416-63.428z" fill="#e21c2a"/>
<path d="m668.94 518.13c-58.712-1.349-86.315 36.299-126.38 82.734l-37.791 43.796 59.843 71.641c14.257 22.012-12.954 43.858-29.836 23.716l-55.328-66-53.914 62.5c-17.169 19.895-44.071-2.33-29.509-24.136l58.528-68.061-38.344-45.742 24.666-30.548 38.996 46.844 33.615-39.102c16.494-19.172 33.315-44.578 55.116-57.642h-541.9v247.58h126.7c58.72 0 85.376-35.108 124.35-82.451l36.776-44.669-61.49-70.232c-14.748-21.68 11.945-44.141 29.29-24.396l56.828 64.711 52.474-63.731c16.701-20.295 44.103 1.315 30.051 23.453l-56.946 69.399 39.392 44.847-24.82 29.391-39.209-44.222-32.7 39.857c-16.05 19.548-32.297 44.48-53.795 58.043h536.8v-247.58h-121.46zm-417.59 119.25c0 55.193-45.004 100.2-100.19 100.2-55.204 0-100.21-45.009-100.21-100.2 0-55.202 45.004-100.21 100.21-100.21 55.19 0 100.19 45.005 100.19 100.21zm422.57 100.2c-55.194 0-100.21-45.009-100.21-100.2 0-55.202 45.014-100.21 100.21-100.21 55.197 0 100.2 45.005 100.2 100.21 0 55.193-45.003 100.2-100.2 100.2z" fill="#e21c2a"/>
</g>
</svg>
