<svg xmlns="http://www.w3.org/2000/svg" xmlns:xlink="http://www.w3.org/1999/xlink" viewBox="0 0 1963.497 510.694" width="1964" height="511"><g fill="navy"><path d="M97.1 423.375H80.6c-7.8 0-14.1 6.3-14.1 14.1 0 7.7 6.3 14.1 14.1 14.1h16.5c7.8 0 14.1-6.3 14.1-14.1s-6.3-14.1-14.1-14.1z" id="A"/><use xlink:href="#E"/><path d="M273.5 423.375H257c-7.8 0-14.1 6.3-14.1 14.1 0 7.7 6.3 14.1 14.1 14.1h16.5c7.8 0 14.1-6.3 14.1-14.1s-6.3-14.1-14.1-14.1z" id="B"/><use xlink:href="#E" x="176.4"/><path d="M496.1 175.175l-162.9-162.8c-16.5-16.5-43.4-16.5-59.9 0l-181 180.7h-50c-23.3 0-42.3 19-42.3 42.3v230.3c0 23.3 19 42.3 42.4 42.3H400c23.4 0 42.4-19 42.4-42.3v-176.9l53.8-53.7c7.9-8 22.1-37.8-.1-59.9zm-202.9-142.9c5.5-5.5 14.5-5.5 20 0l29.8 29.9-131 130.9h-79.7zm106.8 447.5H42.4c-7.8 0-14.1-6.3-14.1-14.1v-159.9h385.8v159.9c0 7.8-6.3 14.1-14.1 14.1zm14.1-202.2H28.3v-42.2c0-7.8 6.3-14.1 14.1-14.1H400c7.8 0 14.1 6.3 14.1 14.1zm62-62.5l-33.8 33.8v-13.5c0-23.3-19-42.3-42.4-42.3h-148l111.1-111 113.2 113.1c8.1 8.1 2.6 17.3-.1 19.9z" id="C"/><use xlink:href="#A"/><use xlink:href="#V"/><use xlink:href="#B"/><use xlink:href="#b"/><use xlink:href="#C"/><use xlink:href="#C"/><use xlink:href="#D"/><use xlink:href="#E"/><use xlink:href="#F"/><use xlink:href="#G"/><use xlink:href="#H"/><use xlink:href="#I"/><use xlink:href="#J"/><use xlink:href="#K"/><use xlink:href="#L"/><use xlink:href="#M"/><use xlink:href="#N"/><use xlink:href="#O"/><use xlink:href="#P"/><use xlink:href="#Q"/></g><text xml:space="preserve" x="721.894" y="362.327" transform="scale(.72011681 1.3886636)" font-weight="bold" font-size="79.925" font-family="sans-serif" letter-spacing="0" word-spacing="0" writing-mode="lr-tb" fill="navy"><tspan x="721.894" y="362.327" font-size="383.64" writing-mode="lr-tb">CardGate</tspan></text><defs ><path id="E" d="M185.3 423.375h-16.5c-7.8 0-14.1 6.3-14.1 14.1 0 7.7 6.3 14.1 14.1 14.1h16.5c7.8 0 14.1-6.3 14.1-14.1s-6.3-14.1-14.1-14.1z"/></defs></svg>