<svg width="235" height="80" viewBox="0 0 235 80" fill="none" xmlns="http://www.w3.org/2000/svg">
<g clip-path="url(#clip0_410_92)">
<path d="M64.0013 19.3723H69.2049V31.6089C69.2049 34.0496 70.5844 35.4823 73.0601 35.4823C75.4527 35.4823 76.9153 34.1066 76.9153 31.6089V19.3723H82.1475V31.9173C82.1475 34.4718 81.3318 36.4927 79.6718 37.9514C78.0117 39.4101 75.8166 40.1122 73.0316 40.1122C66.9813 40.1122 63.9941 36.9979 63.9941 31.9173L64.0013 19.3723Z" fill="#231300"/>
<path d="M84.6621 39.8299V24.6498H88.9953L89.6137 26.9529H89.8682C90.7957 24.9036 92.4581 24.3699 94.8197 24.3699C98.3372 24.3699 100.026 26.8106 100.026 30.8239V39.8371H95.0742V31.3267C95.0742 29.3628 94.2299 28.3808 92.5413 28.3808C90.6554 28.3808 89.6137 29.7565 89.6137 31.8058V39.8323L84.6621 39.8299Z" fill="#231300"/>
<path d="M102.803 23.7698V19.37H107.754V23.7698H102.803ZM102.803 39.8299V25.1242H107.754V39.8299H102.803Z" fill="#231300"/>
<path d="M129.674 37.9894C128.266 36.5662 127.564 34.6497 127.564 32.2968C127.564 29.9439 128.278 27.9752 129.645 26.5426C131.013 25.11 132.911 24.3818 135.189 24.3818C137.413 24.3818 139.156 25.0269 140.479 26.2793C141.801 27.5317 142.476 29.1991 142.476 31.2745C142.483 31.9924 142.407 32.7086 142.25 33.4092H132.487C132.404 35.3067 133.472 36.412 135.189 36.412C136.4 36.412 137.441 35.8238 137.694 34.9533H142.084C141.832 36.4974 141.492 37.7593 140.141 38.7152C138.79 39.671 137.187 40.1193 135.272 40.1193C132.966 40.1122 131.108 39.4125 129.674 37.9894ZM137.522 30.2427C137.494 28.8955 136.509 28.0535 135.018 28.0535C133.527 28.0535 132.625 28.924 132.542 30.2427H137.522Z" fill="#231300"/>
<path d="M160.42 39.8299H155.875L155.466 37.5838H155.185C154.312 39.5192 152.429 40.1122 150.26 40.1122C146.455 40.1122 144.152 37.1378 144.152 32.311C144.152 27.3443 146.545 24.3699 150.26 24.3699C152.736 24.3699 154.424 24.9202 155.185 26.8272H155.466V19.313H160.417L160.42 39.8299ZM155.468 31.8888C155.468 29.6166 154.229 28.3523 152.288 28.3523C150.291 28.3523 149.197 29.868 149.197 32.2541C149.197 34.8371 150.35 36.1274 152.236 36.1274C154.346 36.1274 155.473 34.7802 155.473 32.6478L155.468 31.8888Z" fill="#231300"/>
<path d="M64.1133 65.4678V45.0102H78.7064V49.5168H69.3455V54.2724H77.2866V58.511H69.3455V65.4701L64.1133 65.4678Z" fill="#231300"/>
<path d="M80.7598 49.467V45.0671H85.7113V49.467H80.7598ZM80.7598 65.4678V50.762H85.7113V65.4678H80.7598Z" fill="#231300"/>
<path d="M88.2344 65.4677V50.2876H92.5676L93.186 52.5907H93.4381C94.368 50.5414 96.028 50.0077 98.3896 50.0077C101.907 50.0077 103.596 52.4484 103.596 56.4617V65.4749H98.6465V56.9645C98.6465 55.0006 97.8022 54.0186 96.1136 54.0186C94.2276 54.0186 93.186 55.3943 93.186 57.4436V65.4701L88.2344 65.4677Z" fill="#231300"/>
<path d="M111.509 56.3194H114.77V55.5414C114.77 54.391 114.057 53.7743 112.913 53.7743C111.702 53.7743 110.943 54.4195 110.858 55.3469H105.992C106.301 51.9788 109.06 50.0149 113.084 50.0149C117.474 50.0149 119.724 52.1757 119.724 55.6837V61.2339C119.724 61.8245 119.95 62.1044 120.399 62.1044C120.551 62.1049 120.702 62.0858 120.849 62.0475V65.4156C120.057 65.6076 119.245 65.7111 118.43 65.7239C116.375 65.7239 115.25 64.9104 115.053 63.2548H114.827C114.351 64.7989 112.549 65.7524 110.297 65.7524C107.286 65.7524 105.371 64.0399 105.371 61.3193C105.373 58.2003 107.795 56.3194 111.509 56.3194ZM112.185 62.0736C113.85 62.0736 114.775 61.1485 114.775 59.6044V59.1846H112.392C110.965 59.1846 110.365 59.8582 110.365 60.6718C110.354 61.5684 111.086 62.0736 112.185 62.0736V62.0736Z" fill="#231300"/>
<path d="M122.451 65.4677V50.2876H126.784L127.403 52.5907H127.655C128.585 50.5414 130.245 50.0077 132.606 50.0077C136.124 50.0077 137.812 52.4484 137.812 56.4617V65.4749H132.863V56.9645C132.863 55.0006 132.019 54.0186 130.33 54.0186C128.444 54.0186 127.403 55.3943 127.403 57.4436V65.4701L122.451 65.4677Z" fill="#231300"/>
<path d="M154.156 59.7444C154.073 61.5683 153.369 63.0271 152.016 64.1229C150.662 65.2187 149.017 65.7405 146.952 65.7405C144.645 65.7405 142.788 65.01 141.38 63.5797C139.972 62.1495 139.266 60.2211 139.266 57.8634C139.266 55.5058 139.979 53.594 141.375 52.1709C142.771 50.7478 144.667 50.0101 147.002 50.0101C149 50.0101 150.66 50.5438 151.982 51.6372C152.634 52.1655 153.165 52.8272 153.539 53.5777C153.913 54.3281 154.121 55.1498 154.149 55.9873H149.288C149.062 54.6685 148.275 54.0233 146.952 54.0233C145.18 54.0233 144.279 55.3137 144.279 57.8966C144.279 60.4796 145.264 61.7415 146.924 61.7415C148.275 61.7415 149.119 60.9849 149.259 59.7491L154.156 59.7444Z" fill="#231300"/>
<path d="M157.424 63.6058C156.018 62.1827 155.314 60.2662 155.314 57.9133C155.314 55.5603 156.028 53.5917 157.398 52.159C158.768 50.7264 160.663 49.9982 162.942 49.9982C165.165 49.9982 166.909 50.6434 168.231 51.8958C169.553 53.1481 170.229 54.8156 170.229 56.891C170.235 57.6088 170.16 58.3251 170.003 59.0257H160.24C160.154 60.9232 161.224 62.0285 162.942 62.0285C164.152 62.0285 165.194 61.4403 165.446 60.5698H169.836C169.582 62.1139 169.244 63.3757 167.893 64.3316C166.542 65.2875 164.939 65.7405 163.025 65.7405C160.718 65.7405 158.86 65.0479 157.424 63.6058ZM165.272 55.8592C165.244 54.512 164.259 53.6699 162.768 53.6699C161.277 53.6699 160.375 54.5404 160.292 55.8592H165.272Z" fill="#231300"/>
<path d="M161.264 15.2524V14H165.471V15.2547H164.044V19.4506H162.648V15.2524H161.264ZM170.301 13.9976H172.011V19.453H170.66V17.4464L170.729 15.9663H170.677L169.105 19.3605L167.552 15.9663H167.464L167.568 17.4464V19.4506H166.208V13.9953H167.937L169.091 16.6589H169.143L170.301 13.9976Z" fill="#231300"/>
<path d="M125.672 25.1242V39.8299H120.747V28.6322H116.784V39.8299H111.833V28.6322H109.217V25.1218H111.833V24.4102C111.833 20.9354 113.643 19.3557 116.853 19.3557H119.289V23.7556H117.983C117.398 23.7556 116.794 23.7983 116.794 24.7044V25.0981L125.672 25.1242ZM120.716 19.37H125.667V23.758H120.716V19.37Z" fill="#231300"/>
</g>
<defs>
<clipPath id="clip0_410_92">
<rect width="108" height="51.75" fill="white" transform="translate(64 14)"/>
</clipPath>
</defs>
</svg>
