<?xml version="1.0" encoding="utf-8"?><svg xmlns:rdf="http://www.w3.org/1999/02/22-rdf-syntax-ns#" xmlns="http://www.w3.org/2000/svg" height="194.85832" width="300" version="1.1" xmlns:cc="http://creativecommons.org/ns#" xmlns:dc="http://purl.org/dc/elements/1.1/"><g transform="translate(-109.82969,-563.50386)"><g transform="matrix(8.5031131,0,0,-8.5031131,-3071.7606,1310.7362)"><g clip-path="url(#clipPath38)"><g transform="translate(385.01691,69.543594)"><path d="m0,0-0.064-0.062c-1.005-1.024-2.168-1.565-3.366-1.565-2.502,0-4.317,1.877-4.317,4.466,0,2.585,1.815,4.465,4.317,4.465,1.198,0,2.361-0.544,3.366-1.572l0.064-0.061,1.609,1.946-0.043,0.052c-1.338,1.581-2.944,2.35-4.918,2.35-1.979,0-3.791-0.667-5.095-1.868-1.42-1.302-2.167-3.138-2.167-5.312s0.747-4.014,2.167-5.316c1.304-1.208,3.116-1.87,5.095-1.87,1.974,0,3.58,0.77,4.918,2.352l0.043,0.048-1.609,1.947" fill="#004685"/></g></g><path d="m388.251,65.462,2.842,0,0,13.876-2.842,0,0-13.876" fill="#004685"/><g clip-path="url(#clipPath52)"><g transform="translate(402.22749,68.4785)"><path d="m0,0c-0.759-0.462-1.464-0.695-2.098-0.695-0.919,0-1.335,0.486-1.335,1.566v7.363h2.897v2.612h-2.897v4.318l-2.785-1.492v-2.826h-2.404v-2.612h2.404v-7.832c0-2.133,1.264-3.593,3.152-3.631,1.281-0.025,2.053,0.357,2.521,0.637l0.03,0.019,0.683,2.676-0.168-0.103" fill="#004685"/></g></g><path d="m404.58,65.462,2.846,0,0,13.876-2.846,0,0-13.876" fill="#004685"/><g transform="translate(409.08369,81.770294)"><path fill="#ee1c25" d="m0,0c-2.597,3.678-6.909,5.872-11.296,5.872-4.386,0-8.699-2.194-11.291-5.872l-0.134-0.189h3.27l0.036,0.039c2.225,2.298,5.131,3.512,8.119,3.512s5.892-1.214,8.122-3.512l0.036-0.039h3.268l-0.13,0.189"/></g></g></g></svg>