<?xml version="1.0" encoding="UTF-8" standalone="no"?>

<svg
   xmlns:dc="http://purl.org/dc/elements/1.1/"
   xmlns:cc="http://creativecommons.org/ns#"
   xmlns:rdf="http://www.w3.org/1999/02/22-rdf-syntax-ns#"
   xmlns:svg="http://www.w3.org/2000/svg"
   xmlns="http://www.w3.org/2000/svg"
   version="1.1"
   width="300"
   height="81.234291"
   id="svg4965">
  <defs
     id="defs4967" />
  <metadata
     id="metadata4970">
    <rdf:RDF>
      <cc:Work
         rdf:about="">
        <dc:format>image/svg+xml</dc:format>
        <dc:type
           rdf:resource="http://purl.org/dc/dcmitype/StillImage" />
        <dc:title></dc:title>
      </cc:Work>
    </rdf:RDF>
  </metadata>
  <g
     transform="translate(-297.9885,-472.70039)"
     id="layer1">
    <g
       transform="matrix(2.4662885,0,0,-2.4662885,-772.5069,719.18727)"
       id="g4940">
      <path
         d="m 449.6213,73.9054 -0.0867,-0.0839 c -1.3975,-1.4238 -3.015,-2.1784 -4.6817,-2.1784 -3.479,0 -6.0044,2.6099 -6.0044,6.211 0,3.5946 2.5254,6.2082 6.0044,6.2082 1.6667,0 3.2842,-0.7577 4.6817,-2.1853 l 0.0867,-0.0864 2.2374,2.7054 -0.0598,0.0734 c -1.8607,2.1988 -4.0933,3.2692 -6.838,3.2692 -2.7542,0 -5.2719,-0.9269 -7.0864,-2.5985 -1.9715,-1.8102 -3.0124,-4.3631 -3.0124,-7.386 0,-3.0214 1.0409,-5.5806 3.0124,-7.3913 1.8145,-1.6793 4.3322,-2.6011 7.0864,-2.6011 2.7447,0 4.9773,1.0698 6.838,3.2695 l 0.0598,0.0683 -2.2374,2.7059 z"
         id="path1274"
         style="fill:#003b70;fill-opacity:1;fill-rule:nonzero;stroke:none" />
      <path
         d="m 454.1196,68.2299 3.9526,0 0,19.2952 -3.9526,0 0,-19.2952 z"
         id="path1276"
         style="fill:#003b70;fill-opacity:1;fill-rule:nonzero;stroke:none" />
      <path
         d="m 473.5548,72.4255 c -1.0545,-0.6421 -2.0359,-0.9649 -2.9172,-0.9649 -1.277,0 -1.8541,0.674 -1.8541,2.1753 l 0,10.2381 4.0255,0 0,3.6335 -4.0255,0 0,6.0038 -3.8741,-2.0733 0,-3.9305 -3.3421,0 0,-3.6335 3.3421,0 0,-10.8912 c 0,-2.9673 1.7577,-4.9944 4.3815,-5.0471 1.7816,-0.0349 2.8556,0.4958 3.5079,0.8838 l 0.0382,0.0284 0.9516,3.7204 -0.2338,-0.1428 z"
         id="path1278"
         style="fill:#003b70;fill-opacity:1;fill-rule:nonzero;stroke:none" />
      <path
         d="m 476.8285,68.2299 3.9552,0 0,19.2952 -3.9552,0 0,-19.2952 z"
         id="path1280"
         style="fill:#003b70;fill-opacity:1;fill-rule:nonzero;stroke:none" />
      <path
         d="m 543.8237,94.8668 0,-18.4056 1.2313,1.9165 c -10e-4,-0.0085 5.5318,8.0033 6.2408,9.0249 l 2.4658,0 c -0.5249,-0.7052 -4.875,-6.692 -4.875,-6.692 0,0 5.6665,-11.808 5.9939,-12.4807 l -2.4214,0 c -0.1332,0.2755 -5.0011,10.5809 -5.0011,10.5809 l -3.6343,-5.0922 0,-5.4887 -2.2559,0 0,25.3486 c 0.1973,0.1133 1.7249,0.989 2.2559,1.2883 z m -18.5315,-9.75 c 1.1636,1.7396 2.9868,2.6988 5.1199,2.6988 4.2534,0 6.5075,-2.7127 6.5075,-7.846 l 0,-11.7397 -2.2615,0 0,11.2536 c 0,4.3673 -1.5165,6.3946 -4.8016,6.3946 -3.1442,0 -5.0216,-2.3915 -5.0216,-6.3946 l 0,-11.2536 -2.2552,0 0,19.1727 2.2552,0 0,-2.9732 0.4573,0.6874 z m -13.8654,2.6988 c 4.3769,0 6.5046,-2.0015 6.5046,-6.12 l 0,-13.4657 -2.2561,0 0,2.7972 -0.439,-0.4841 c -1.6603,-1.8318 -3.566,-2.7275 -5.8352,-2.7275 -1.7781,0 -5.9153,0.5885 -5.9153,6.0466 0,4.4614 3.6828,6.0449 7.1328,6.0449 1.7323,0 3.4435,-0.3989 4.6854,-1.0948 l 0.3713,-0.2058 0,2.7525 c 0,3.0517 -1.4904,4.5972 -4.4356,4.5972 -1.8162,0 -3.4554,-0.4584 -5.1361,-1.4057 -0.1483,0.3407 -0.6696,1.4933 -0.8147,1.8221 1.7566,0.9258 3.9257,1.4431 6.1379,1.4431 z M 505.698,74.05 c 0,-2.8661 1.485,-4.4456 4.183,-4.4456 2.2964,0 4.3359,1.0849 5.7518,3.0578 l 0.0425,0.0677 0,4.2035 -0.1253,0.0726 c -1.44,0.8209 -2.9148,1.152 -5.0825,1.152 -2.984,0 -4.7695,-1.5353 -4.7695,-4.108 z m -17.4198,20.8168 0,-10.2563 0.4368,0.4782 c 1.6614,1.8351 3.5005,2.7269 5.6149,2.7269 4.2313,0 6.66,-3.5268 6.66,-9.6777 0,-6.2703 -2.7584,-10.3224 -7.0291,-10.3224 -2.0809,0 -3.7471,0.8073 -5.2435,2.5379 l -0.4391,0.511 0,-2.6345 -2.2513,0 0,25.3486 c 0.1917,0.1133 1.7221,0.989 2.2513,1.2883 z m 0.0536,-11.9268 -0.0536,-0.0708 0,-9.9803 0.0403,-0.0612 c 1.2444,-1.9258 3.2717,-3.0773 5.4294,-3.0773 3.3322,0 5.0213,2.8086 5.0213,8.3466 0,4.9473 -1.8714,7.7811 -5.1341,7.7811 -1.9777,0 -3.7621,-0.9881 -5.3033,-2.9381"
         id="path1282"
         style="fill:#003b70;fill-opacity:1;fill-rule:nonzero;stroke:none" />
      <path
         d="m 483.1512,90.9488 c -3.6182,5.125 -9.627,8.1827 -15.7405,8.1827 -6.111,0 -12.121,-3.0577 -15.7332,-8.1827 l -0.1853,-0.2637 4.5558,0 0.0505,0.0547 c 3.1008,3.2004 7.1486,4.8929 11.3122,4.8929 4.1641,0 8.2111,-1.6925 11.3179,-4.8929 l 0.0504,-0.0547 4.5544,0 -0.1822,0.2637 z"
         id="path1284"
         style="fill:#d9261c;fill-opacity:1;fill-rule:evenodd;stroke:none" />
    </g>
  </g>
</svg>
