<?xml version="1.0" encoding="UTF-8"?>
<svg version="1.1" viewBox="0 0 300 194.96" xmlns="http://www.w3.org/2000/svg" xmlns:cc="http://creativecommons.org/ns#" xmlns:dc="http://purl.org/dc/elements/1.1/" xmlns:rdf="http://www.w3.org/1999/02/22-rdf-syntax-ns#">
<metadata>
<rdf:RDF>
<cc:Work rdf:about="">
<dc:format>image/svg+xml</dc:format>
<dc:type rdf:resource="http://purl.org/dc/dcmitype/StillImage"/>
<dc:title/>
</cc:Work>
</rdf:RDF>
</metadata>
<g transform="matrix(2.4761 0 0 2.4761 -2.9521 -2.9521)">
<path d="m38.4 64.215-0.21383 0.20692c-3.4466 3.5115-7.4359 5.3726-11.546 5.3726-8.5802 0-14.809-6.4368-14.809-15.318 0-8.8653 6.2284-15.311 14.809-15.311 4.1106 0 8.0998 1.8687 11.546 5.3896l0.21383 0.21309 5.5181-6.6723-0.14748-0.18103c-4.589-5.4229-10.095-8.0628-16.864-8.0628-6.7927 0-13.002 2.286-17.477 6.4087-4.8623 4.4645-7.4294 10.761-7.4294 18.216 0 7.4516 2.5672 13.763 7.4294 18.229 4.4751 4.1416 10.684 6.4151 17.477 6.4151 6.7692 0 12.275-2.6384 16.864-8.0635l0.14748-0.16845-5.5181-6.6735z" fill="#003b70"/>
<path d="m49.495 78.212h9.7483v-47.588h-9.7483v47.588z" fill="#003b70"/>
<path d="m97.427 67.865c-2.6007 1.5836-5.0211 2.3797-7.1947 2.3797-3.1495 0-4.5727-1.6623-4.5727-5.3649v-25.25h9.928v-8.9613h-9.928v-14.807l-9.5546 5.1134v9.6937h-8.2426v8.9613h8.2426v26.861c0 7.3182 4.335 12.318 10.806 12.448 4.3939 0.08607 7.0427-1.2228 8.6515-2.1797l0.09421-0.07004 2.3469-9.1756-0.57662 0.35219z" fill="#003b70"/>
<path d="m105.5 78.212h9.7547v-47.588h-9.7547v47.588z" fill="#003b70"/>
<path d="m121.09 22.181c-8.9235-12.64-23.743-20.181-38.821-20.181-15.071 0-29.894 7.5412-38.803 20.181l-0.457 0.65036h11.236l0.12455-0.13491c7.6475-7.8931 17.631-12.067 27.899-12.067 10.27 0 20.251 4.1742 27.913 12.067l0.1243 0.13491h11.232l-0.44936-0.65036z" fill="#d9261c" fill-rule="evenodd"/>
</g>
</svg>
