<?xml version="1.0" encoding="UTF-8"?>
<svg width="2426.6" height="2277.2" version="1.1" viewBox="0 0 187.088 175.56934" xmlns="http://www.w3.org/2000/svg" xmlns:cc="http://creativecommons.org/ns#" xmlns:dc="http://purl.org/dc/elements/1.1/" xmlns:rdf="http://www.w3.org/1999/02/22-rdf-syntax-ns#">
<metadata>
<rdf:RDF>
<cc:Work rdf:about="">
<dc:format>image/svg+xml</dc:format>
<dc:type rdf:resource="http://purl.org/dc/dcmitype/StillImage"/>
<dc:title/>
</cc:Work>
</rdf:RDF>
</metadata>
<path d="m88.602 43.459c46.585 0.231 98.507 33.063 98.486 50.302-0.033 25.079-28.652 26.659-93.936 23.76-56.667-2.517-67.264 3.88-67.534 21.61-0.247 16.231 39.175 33.572 91.353 32.831-14.207 3.833-29.014 4.964-43.973 1.659-25.783-5.695-54.656-23.157-54.874-37.311-0.46-29.979 49.393-33.098 75.622-32.135 31.872 1.17 79.803 2.764 80.608-12.723 1.143-21.97-57.023-42.583-85.356-42.507z" clip-rule="evenodd" fill="#505e86" fill-rule="evenodd"/>
<path d="m47.074 10.68c7.4-5.595 22.032-10.632 43.431-10.68 47.639-0.107 71.336 20.602 72.299 34.646 1.193 17.44-20.025 23.444-70.739 20.579-52.214-2.95-85.303 0-85.562 14.849-0.288 16.409 65.01 56.006 112.61 56.006 32.75 0 50.982-6.209 60.832-11.065a82.97 82.97 0 0 1 -6.033 13.45c-13.363 2.534-31.355 5.386-55.059 4.388-38.987-1.643-118.85-35.948-118.85-62.778 0-26.831 63.457-30.218 91.284-30.218 27.828 0 61.896 5.991 60.335-10.42s-31.988-21.882-50.453-23.444c-18.462-1.564-39.007 1.301-54.092 4.687z" clip-rule="evenodd" fill="#505e86" fill-rule="evenodd"/>
<path d="m18.467 33.573c4.821-5.526 8.047-8.959 14.606-13.847 7.316-3.271 27.204-8.705 59.048-8.552 48.697 0.232 84.144 24.25 84.408 40.431 0.34 20.851-25.842 27.831-84.081 24.818-54.542-2.822-83.454 0.705-83.724 16.321-0.299 17.26 59.812 52.695 109.51 51.505 24.127-0.578 39.627-3.76 50.318-7.377a88.753 88.753 0 0 1 -10.172 11.74c-11.318 1.9-24.611 3.387-39.363 2.76-40.715-1.728-118.84-33.227-118.84-61.447 0-28.22 64.175-27.106 93.22-26.143 31.876 1.058 70.685 0.318 70.753-15.189 0.088-19.855-51.744-30.952-73.038-30.874-33.97 0.123-51.289 6.241-72.642 15.854z" clip-rule="evenodd" fill="#505e86" fill-rule="evenodd"/>
<path d="m6.233 53.102c2.121-4.309 3.638-7.381 6.416-11.548 19.282-9.265 42.702-13.618 74.545-13.459 46.585 0.232 96.749 27.07 96.726 44.309-0.031 25.08-25.836 27.013-91.12 24.113-56.668-2.518-78.174 3.526-78.445 21.258-0.263 17.26 54.181 42.472 103.88 41.281 12.48-0.3 22.65-1.294 31.043-2.688a95.298 95.298 0 0 1 -16.322 9.809c-4.479 0.186-9.129 0.206-13.938 3e-3 -40.715-1.729-113.21-23.005-113.21-51.226 0-29.983 58.896-32.04 87.94-31.078 31.875 1.057 77.374 1.728 77.44-13.78 0.088-19.855-55.264-36.591-83.596-36.514-33.972 0.092-61.763 9.202-81.357 19.52z" clip-rule="evenodd" fill="#505e86" fill-rule="evenodd"/>
</svg>
