<?xml version="1.0" encoding="UTF-8"?>
<svg version="1.1" viewBox="0 0 300 300" xmlns="http://www.w3.org/2000/svg">
<title>perfect_money</title>
<desc>Created with Sketch.</desc>
<g fill="none" fill-rule="evenodd">
<circle cx="150" cy="150" r="150" fill="#E33E23"/>
<path d="m34.456 151.95s66.777 14.418 76.161-16.616c9.2004-30.428-21.311-36.721-21.311-36.721h-13.404v51.022h-14.362v-49.364h-12.718v-5.2162s48.183-0.19186 53.504 0.43015c26.752 3.1275 39.772 51.054-3.0733 60.603-33.325 7.4278-64.797-4.1386-64.797-4.1386zm27.003 10.992v30.627s-0.08382 6.5172-5.9628 6.5172c-5.879-2e-6 -7.3197 0-7.3197 0v5.112h41.447v-5.6242h-9.1685s-4.7292-0.53638-4.7292-5.3451v-31.569h-14.185l-0.081989 0.28188zm52.973 42.51h41.745v-6.4007h-12s-3.8983-2.2017-3.8983-6.66v-77.085l46.528 90.049 45.515-88.324-1 76.196s1.1416 6.2975-5.2982 6.2975-7.8056 0.19487-7.8056 0.19487l-0.077947 4.9034h41.747v-5.8287h-9.7447s-4.0622 0.39836-4.0622-4.0622c-9e-6 -4.4605 0-92.482 0-92.482s0.060238-2.0204 3.655-2.0204h8.46v-6.2293h-25.902l-42.644 88.378-42.378-87.754h-23.177v5.2815h7.3589s2.5518-0.28114 2.5518 3.5969c1e-6 3.8781-1 89.298-1 89.298s0.33641 6.6305-6.942 6.6305c-7.2784-3e-6 -11.616 0-11.616 0v6.4447l-0.015251-0.42474z" fill="#fff"/>
</g>
</svg>
