<?xml version="1.0" encoding="UTF-8"?> <svg xmlns="http://www.w3.org/2000/svg" width="148" height="20" viewBox="0 0 148 20" fill="none"> <path d="M9.99406 0.267074C11.7794 0.267074 13.3299 0.567767 14.6454 1.16915C15.9609 1.75174 16.9758 2.59744 17.6899 3.70624C18.404 4.79625 18.7611 6.08359 18.7611 7.56826C18.7611 9.05292 18.404 10.3403 17.6899 11.4303C16.9758 12.5203 15.9609 13.366 14.6454 13.9674C13.3299 14.55 11.7794 14.8412 9.99406 14.8412H6.55489V20H0.973292V0.267074H9.99406ZM9.65578 10.4436C10.8022 10.4436 11.6667 10.1993 12.2492 9.71069C12.8318 9.20327 13.1231 8.48913 13.1231 7.56826C13.1231 6.64739 12.8318 5.93324 12.2492 5.42583C11.6667 4.91841 10.8022 4.6647 9.65578 4.6647H6.55489V10.4436H9.65578ZM33.7125 16.1662H25.3683L23.8179 20H18.1235L26.8342 0.267074H32.3312L41.0701 20H35.263L33.7125 16.1662ZM32.0775 12.0505L29.5404 5.73591L27.0034 12.0505H32.0775ZM51.9849 12.9243V20H46.4033V12.8398L38.8766 0.267074H44.7683L49.4478 8.10387L54.1273 0.267074H59.5398L51.9849 12.9243ZM60.8768 0.267074H66.4584V15.5742H75.8738V20H60.8768V0.267074ZM91.5239 16.1662H83.1796L81.6292 20H75.9348L84.6455 0.267074H90.1425L98.8814 20H93.0743L91.5239 16.1662ZM89.8888 12.0505L87.3517 5.73591L84.8147 12.0505H89.8888ZM118.28 20L118.223 9.54155L113.149 18.0549H110.669L105.623 9.82345V20H100.464V0.267074H105.059L111.993 11.6558L118.759 0.267074H123.354L123.41 20H118.28ZM140.581 16.1662H132.237L130.686 20H124.992L133.703 0.267074H139.2L147.938 20H142.131L140.581 16.1662ZM138.946 12.0505L136.409 5.73591L133.872 12.0505H138.946Z" fill="white"></path> </svg> 