<svg width="32" height="32" viewBox="0 0 32 32" fill="none" xmlns="http://www.w3.org/2000/svg">
<path fill-rule="evenodd" clip-rule="evenodd" d="M1 16C1 7.68919 7.68919 1 16 1C24.3108 1 31 7.68919 31 16C31 24.3108 24.3108 31 16 31C7.68919 31 1 24.3108 1 16ZM2.01351 16C2.01351 23.7027 8.2973 29.9865 16 29.9865C23.7027 29.9865 29.9865 23.7027 29.9865 16C29.9865 8.2973 23.7027 2.01351 16 2.01351C8.2973 2.01351 2.01351 8.2973 2.01351 16Z" fill="#3B77BC"/>
<path fill-rule="evenodd" clip-rule="evenodd" d="M14.0741 10H10.9259C10.463 10 10 10.3704 10 10.9259V14.0741C10 14.537 10.3704 15 10.9259 15H14.0741C14.537 15 15 14.6296 15 14.0741V10.9259C14.9074 10.3704 14.537 10 14.0741 10" fill="#3B77BC"/>
<path fill-rule="evenodd" clip-rule="evenodd" d="M14.0741 17H10.9259C10.463 17 10 17.3704 10 17.9259V21.0741C10 21.537 10.3704 22 10.9259 22H14.0741C14.537 22 15 21.6296 15 21.0741V17.9259C14.9074 17.3704 14.537 17 14.0741 17" fill="#3B77BC"/>
<path fill-rule="evenodd" clip-rule="evenodd" d="M21.0741 10H17.9259C17.463 10 17 10.3704 17 10.9259V14.0741C17 14.537 17.3704 15 17.9259 15H21.0741C21.537 15 22 14.6296 22 14.0741V10.9259C22 10.3704 21.6296 10 21.0741 10" fill="#3B77BC"/>
</svg>
