<svg width="204" height="62" viewBox="0 0 204 62" fill="none" xmlns="http://www.w3.org/2000/svg">
<path d="M136.191 0.859375L136.191 61.8118" stroke="#D5D7DD" stroke-width="1.90476"/>
<path d="M25.0817 42.6377L14.1805 30.0016L24.6386 17.999H16.5734L7.09024 28.6993V17.999H0V42.6377H7.09024V31.2335L17.0166 42.6377H25.0817Z" fill="#141618"/>
<path d="M38.1412 42.7609C44.9655 42.7609 50.106 39.5931 50.106 34.3134V17.999H43.0157V33.8206C43.0157 35.6861 41.9079 37.27 38.1412 37.27C34.3745 37.27 33.2666 35.6861 33.2666 33.8206V17.999H26.1764V34.3134C26.1764 39.5931 31.3168 42.7609 38.1412 42.7609Z" fill="#141618"/>
<path d="M72.5018 17.999V31.3743L60.5371 17.999H55.2194V42.6377H62.3096V29.2624L74.2744 42.6377H79.5921V17.999H72.5018Z" fill="#141618"/>
<path d="M104.626 42.6377H112.381L101.834 17.999H92.7942L82.2474 42.6377H90.0024L91.5534 38.7659H103.075L104.626 42.6377ZM93.6805 33.4862L97.3142 24.4403L100.948 33.4862H93.6805Z" fill="#141618"/>
<path d="M162.8 39.1914V20.5247H169.867C173.333 20.5247 175.867 23.0581 175.867 26.3914C175.867 29.7247 173.333 32.2581 169.867 32.2581H164.8V39.1914H162.8ZM164.8 30.3914H169.867C172.267 30.3914 173.867 28.7914 173.867 26.3914C173.867 23.9914 172.267 22.3914 169.867 22.3914H164.8V30.3914ZM186.403 39.1914V37.4581C186.403 37.4581 185.07 39.4581 182.27 39.4581C179.603 39.4581 177.736 37.5914 177.736 35.7247C177.736 33.5914 179.07 32.2581 181.47 31.8581L186.403 31.0581C186.403 29.1914 185.07 27.8581 183.203 27.8581C180.936 27.8581 179.603 29.7247 179.603 29.7247L178.403 28.5247C178.403 28.5247 180.136 26.1247 183.203 26.1247C186.136 26.1247 188.27 28.2581 188.27 31.0581V39.1914H186.403ZM186.403 33.4581V32.6581L182.003 33.4581C180.403 33.7514 179.603 34.5247 179.603 35.7247C179.603 36.7914 180.536 37.7247 182.27 37.7247C184.67 37.7247 186.403 35.9914 186.403 33.4581ZM191.33 44.5247V42.7914C191.33 42.7914 191.997 43.0581 192.664 43.0581C193.864 43.0581 194.584 42.3914 195.064 41.0581L195.73 39.1914L190.53 26.3914H192.53L196.664 36.7914L200.797 26.3914H202.797L196.93 41.0581C195.864 43.7247 194.797 44.7914 192.93 44.7914C191.997 44.7914 191.33 44.5247 191.33 44.5247Z" fill="#141618"/>
</svg>
