<?xml version="1.0" encoding="UTF-8"?>
<svg width="531.67" height="523.34" version="1.1" viewBox="0 0 40.992998 40.350998" xmlns="http://www.w3.org/2000/svg" xmlns:cc="http://creativecommons.org/ns#" xmlns:dc="http://purl.org/dc/elements/1.1/" xmlns:rdf="http://www.w3.org/1999/02/22-rdf-syntax-ns#">
<metadata>
<rdf:RDF>
<cc:Work rdf:about="">
<dc:format>image/svg+xml</dc:format>
<dc:type rdf:resource="http://purl.org/dc/dcmitype/StillImage"/>
<dc:title/>
</cc:Work>
</rdf:RDF>
</metadata>
<path d="M 40.993,40.351 H 0 V 0 h 40.993 z" clip-rule="evenodd" fill="#8fcdf4" fill-rule="evenodd"/>
<path d="m2.323 17.392s8.96 3e-3 9.785 0c0.828-1e-3 1.689 0.218 1.689 0.218s-0.64-1.152-0.64-2.632c0-3.218 2.59-5.837 5.975-5.837 0.873-3e-3 3.11 0 3.11 0l2e-3 -6.928h8.388c3.258 0 5.941 2.647 5.941 5.866 0 1.253-0.408 2.42-1.097 3.377 1.909 1.156 3.194 3.238 3.194 5.591 0 3.596-2.998 6.555-6.642 6.555h-5.775c0.344 0.738 0.533 1.558 0.533 2.416 0 3.217-2.682 5.863-5.941 5.863h-11.073l-1.163-1.152v2.582h4e-3v4.781h-6.291v-20.7zm17.372 7.706-0.909-1.12s-0.014 0.563-0.054 0.889c-0.026 0.214-0.159 0.832-0.159 0.832l0.731 5e-3s0.289 0.026 0.417-0.119c0.057-0.062 0.074-0.123 0.083-0.226 0.01-0.128-0.109-0.261-0.109-0.261zm-8.286 0.574c0.576 0 1.05-0.467 1.05-1.035 0-0.566-0.474-1.035-1.05-1.035h-2.795v2.07zm19.922-8.28c0.575 0 1.048-0.467 1.048-1.034 0-0.568-0.515-1.004-1.048-1.004h-2.796v2.039h2.796zm-1.398-8.279a0.348 0.348 0 0 0 0.349 -0.345 0.32 0.32 0 0 0 -0.318 -0.314l-1.428 2e-3v0.657zm-9.781 6.686c0.086 0.221 0.248 0.375 0.248 0.375l1.851 2.26v-2.069l1.035-1.01h-2.558s-0.4-0.037-0.5 0.114c0 0-0.124 0.122-0.076 0.33z" clip-rule="evenodd" fill="#236ab3" fill-rule="evenodd"/>
<path d="m31.333 14.187h-3.944v4.334h3.944c1.426 0 2.195-1.116 2.195-2.167 0-1.05-0.769-2.167-2.195-2.167zm0 3.795h-3.396v-3.254h3.396c0.91 0 1.649 0.729 1.649 1.626a1.64 1.64 0 0 1 -1.649 1.628zm0.098-9.217a1.48 1.48 0 0 0 -1.496 -1.478h-2.546v2.956h2.546c0.799 0 1.496-0.658 1.496-1.478zm-3.494-0.938h1.998c0.524 0 0.949 0.422 0.949 0.938a0.944 0.944 0 0 1 -0.949 0.938h-1.998zm-16.526 14.64h-3.943v4.335h3.943c1.426 0 2.196-1.117 2.196-2.167 0-1.045-0.687-2.168-2.196-2.168zm0 3.794h-3.396v-3.255h3.396c0.91 0 1.649 0.73 1.649 1.629 0 0.898-0.739 1.626-1.649 1.626zm9.112-12.06-0.092-3e-3c-0.819 0-1.314 0.571-1.428 1.102a1.59 1.59 0 0 0 -0.031 0.313c0 0.405 0.149 0.833 0.399 1.146 1.12 1.395 2.515 2.982 3.849 4.488l0.172 0.195v-4.721c0.05-0.054 2.565-2.537 2.565-2.537l-0.218 1e-3zm2.307 2.334 2e-3 3.448-3.045-3.634c2e-3 1e-3 -0.237-0.331-0.237-0.672v-0.011a0.952 0.952 0 0 1 0.948 -0.938h4.154z" clip-rule="evenodd" fill="#fff" fill-rule="evenodd"/>
<path d="m34.529 11.665a5.182 5.182 0 0 0 1.452 -3.588c0-2.906-2.397-5.27-5.344-5.27h-7.825v6.896l-4.062 0.012c-2.801 0.186-4.991 2.496-4.991 5.26 0 1.113 0.354 2.181 1.022 3.087l0.819 1.038c-1.075-0.705-2.334-1.117-3.491-1.117h-9.185v19.515h5.09v-8.142l1.958 1.932h10.875c2.238 0 5.341-1.855 5.351-5.338v-0.017c0-1.07-0.316-2.005-0.982-2.926h6.814c1.528 0 3.069-0.656 4.228-1.801 1.151-1.137 1.812-2.643 1.812-4.133v-2e-3c-2e-3 -2.327-1.387-4.433-3.541-5.406zm-2.498 10.802h-7.887l0.12 0.156c0.667 0.867 1.378 2.213 1.378 3.391 0 1.714-0.955 2.852-1.756 3.504-0.914 0.747-2.108 1.229-3.039 1.229l-10.592 0.023-2.788-2.729v8.916h-3.996v-18.436h4.445l4.213 2e-3c3.23 0.168 5.482 2.54 5.475 5.766-5e-3 1.081-0.654 2.217-0.729 2.343l-0.085 0.145 0.167 5e-3 2.511 0.012c0.931-3e-3 1.515-0.71 1.521-1.364l1e-3 -0.021c0-0.594-0.231-0.874-0.371-1.041l-0.07-0.091-6e-3 -0.01-4.973-6.109c-0.295-0.401-1.267-1.822-1.267-3.183 0-2.789 2.526-4.731 4.794-4.731h4.292v-6.9h7.242c2.825 0 4.795 2.494 4.795 4.732 0 1.766-0.871 2.875-1.721 3.728l-0.117 0.117 0.161 0.044c2.451 0.691 3.773 3.134 3.773 5.081 4e-3 2.563-2.252 5.421-5.491 5.421zm-16.229-2.743 6e-3 4e-3 5e-3 6e-3zm1.856 1.929 2.601 3.183a0.921 0.921 0 0 1 0.141 0.489 0.944 0.944 0 0 1 -0.95 0.937h-1.779a5.338 5.338 0 0 0 0.479 -1.969l2e-3 -0.157c0-0.795-0.178-1.675-0.494-2.483z" clip-rule="evenodd" fill="#fff" fill-rule="evenodd"/>
</svg>
