<?xml version="1.0" encoding="UTF-8"?>
<svg width="2279.4" height="555.07" version="1.1" viewBox="0 0 175.74799 42.796999" xmlns="http://www.w3.org/2000/svg" xmlns:cc="http://creativecommons.org/ns#" xmlns:dc="http://purl.org/dc/elements/1.1/" xmlns:rdf="http://www.w3.org/1999/02/22-rdf-syntax-ns#">
<metadata>
<rdf:RDF>
<cc:Work rdf:about="">
<dc:format>image/svg+xml</dc:format>
<dc:type rdf:resource="http://purl.org/dc/dcmitype/StillImage"/>
<dc:title/>
</cc:Work>
</rdf:RDF>
</metadata>
<path d="m47.302 16.864v-16.62h7.713v16.62h-2.698v-14.479h-2.318v14.479zm13.372-5.264v5.264h-2.697v-16.62h2.339c1.584 0 2.877 0.341 3.884 1.021 1.004 0.698 1.515 2.195 1.531 4.491v0.308c0 2.001-0.467 3.402-1.4 4.205-0.99 0.856-2.21 1.3-3.657 1.331zm0-1.936c0.608 0 1.128-0.262 1.559-0.786 0.421-0.5 0.633-1.448 0.633-2.842v-0.148c-0.016-1.517-0.251-2.501-0.703-2.957-0.399-0.387-0.829-0.581-1.289-0.581h-0.199v7.314zm6.113-1.126c0-1.039 0.016-1.832 0.047-2.379 0.15-1.868 0.53-3.365 1.141-4.497 0.584-1.107 1.565-1.662 2.943-1.662h0.046c1.377 0 2.374 0.562 2.992 1.685 0.602 1.13 0.973 2.621 1.116 4.474 0.039 0.547 0.058 1.34 0.058 2.379 0 1.055-0.019 1.849-0.058 2.379a15.403 15.403 0 0 1 -0.51 3.006c-0.27 0.949-0.689 1.71-1.258 2.289-0.571 0.569-1.35 0.854-2.339 0.854-1.424 0-2.431-0.57-3.021-1.714-0.589-1.141-0.959-2.619-1.11-4.434a43.408 43.408 0 0 1 -0.047 -2.38zm3.034 0.011v2.002c0 0.772 0.03 1.486 0.094 2.138 0.047 0.652 0.162 1.198 0.344 1.638 0.158 0.431 0.408 0.648 0.748 0.648 0.339-0.016 0.6-0.262 0.783-0.739a7.384 7.384 0 0 0 0.319 -1.684c0.048-0.622 0.071-1.349 0.071-2.185-0.015-0.825-0.023-1.433-0.023-1.819 0-0.417 8e-3 -1.039 0.023-1.865 0-0.805-0.023-1.524-0.071-2.16a7 7 0 0 0 -0.342 -1.684c-0.183-0.478-0.436-0.716-0.76-0.716h-0.048c-0.291 0-0.526 0.208-0.699 0.625-0.182 0.446-0.297 0.996-0.344 1.647a21.923 21.923 0 0 0 -0.094 2.128zm12.421-0.216 1.504-8.089h3.595v16.62h-2.529v-11.091h-0.118l-1.659 11.091h-1.575l-1.671-11.091h-0.119v11.091h-2.486v-16.62h3.576zm12.299 2.013 2.318 0.272a10.364 10.364 0 0 1 -0.629 4.309c-0.537 1.412-1.5 2.123-2.893 2.138-0.924 0-1.643-0.262-2.156-0.786-0.537-0.532-0.938-1.263-1.197-2.198a12.023 12.023 0 0 1 -0.486 -2.891 36.606 36.606 0 0 1 -0.024 -3.142c0.062-2.504 0.324-4.469 0.781-5.898 0.451-1.434 1.439-2.15 2.963-2.15h0.049c0.924 0 1.652 0.312 2.182 0.935 0.537 0.655 0.891 1.449 1.066 2.385 0.117 0.623 0.178 1.216 0.178 1.78 0 0.281-0.021 0.551-0.061 0.808l-2.377 0.332c0-0.607-8e-3 -1.059-0.025-1.354a21.697 21.697 0 0 0 -0.178 -1.422c-0.031-0.4-0.111-0.678-0.238-0.83-0.166-0.129-0.305-0.193-0.414-0.193h-0.047c-0.129 0-0.26 0.064-0.395 0.193-0.141 0.151-0.244 0.436-0.309 0.854a29.34 29.34 0 0 0 -0.082 0.817c-0.031 0.222-0.064 0.457-0.096 0.707a24.157 24.157 0 0 0 -0.096 2.32c0 0.357 8e-3 0.739 0.023 1.149 0 1.516 0.033 2.65 0.096 3.4 0.016 0.182 0.041 0.383 0.072 0.603 0.016 0.235 0.023 0.429 0.023 0.581 0.039 0.636 0.146 1.065 0.32 1.284 0.182 0.198 0.346 0.297 0.488 0.297h0.047c0.15 0 0.305-0.091 0.465-0.273 0.094-0.106 0.17-0.225 0.225-0.353a2.61 2.61 0 0 0 0.07 -0.461c0.018-0.187 0.033-0.352 0.049-0.495 0.016-0.327 0.07-0.784 0.166-1.375 0.067-0.638 0.106-1.086 0.122-1.343zm4.387 6.518v-16.62h2.699c1.441 0 2.562 0.255 3.367 0.767 0.803 0.513 1.24 1.473 1.311 2.882v0.307c0 0.789-0.17 1.5-0.51 2.138-0.412 0.735-1.006 1.231-1.779 1.489 1.82 0.356 2.738 1.754 2.754 4.194v0.284c0 1.94-0.49 3.172-1.471 3.696-1.059 0.575-2.283 0.864-3.672 0.864h-2.699zm2.699-9.998c0.102 0.015 0.189 0.023 0.266 0.023 0.588 0 1.039-0.269 1.357-0.808 0.152-0.265 0.232-0.769 0.232-1.513-0.031-0.719-0.109-1.208-0.232-1.467-0.318-0.531-0.754-0.796-1.311-0.796-0.094 0-0.195 8e-3 -0.312 0.023zm0 7.836h0.094c0.486 0 0.936-0.182 1.352-0.546 0.453-0.371 0.688-1.098 0.705-2.184v-0.33c0-1.024-0.205-1.751-0.611-2.184-0.369-0.387-0.775-0.581-1.223-0.581a2.35 2.35 0 0 0 -0.316 0.024v5.801zm14.33-14.458v16.62h-2.695v-7.336a3.604 3.604 0 0 0 -0.41 -0.023c-0.85-0.015-1.275 0.551-1.275 1.697v2.826c0 1.869-0.729 2.888-2.184 3.055a2.492 2.492 0 0 1 -0.35 0.022c-0.393 0-0.834-0.076-1.324-0.228l0.172-1.399c0.41-0.046 0.68-0.178 0.799-0.397 0.098-0.198 0.146-0.555 0.146-1.07v-2.868c0-0.994 0.258-1.692 0.775-2.093 0.518-0.403 1.055-0.619 1.607-0.65-0.869-0.189-1.547-0.625-2.033-1.308-0.51-0.684-0.781-1.514-0.814-2.493 0-1.305 0.326-2.283 0.98-2.937 0.639-0.651 1.314-1.058 2.033-1.217a9.808 9.808 0 0 1 1.877 -0.201zm-2.695 2.061c-1.322 0-1.982 0.812-1.982 2.434v0.114c0.018 0.831 0.217 1.478 0.602 1.942 0.354 0.458 0.781 0.686 1.285 0.686h0.096v-5.176zm4.744 8.383 2.336-0.25v0.602c0 0.887 0.057 1.702 0.166 2.446 0.148 0.916 0.482 1.375 0.996 1.375 0.385 0 0.662-0.28 0.828-0.841 0.047-0.235 0.086-0.865 0.117-1.888 0-0.994-0.047-1.646-0.143-1.958-0.229-0.742-0.777-1.114-1.645-1.114-0.104 0-0.209 8e-3 -0.32 0.022v-1.957h0.096c0.859 0 1.426-0.223 1.693-0.67 0.244-0.394 0.367-0.993 0.367-1.796v-0.421c-0.031-0.577-0.088-1.02-0.166-1.331-0.096-0.312-0.287-0.466-0.58-0.466h-0.047c-0.355 0-0.6 0.25-0.736 0.751-0.141 0.522-0.287 1.308-0.436 2.354l-2.23-0.376c0.205-3.446 1.387-5.169 3.543-5.169h0.094c0.646 0 1.219 0.171 1.717 0.511 0.506 0.342 0.896 0.825 1.174 1.446 0.26 0.623 0.406 1.376 0.438 2.264v0.287c0 0.522-0.113 1.148-0.344 1.877-0.275 0.874-0.916 1.442-1.918 1.707 1.541 0.419 2.311 1.614 2.311 3.587 0 0.159-8e-3 0.322-0.025 0.489a8.185 8.185 0 0 1 -0.809 3.244c-0.496 1.025-1.473 1.576-2.932 1.651h-0.143c-0.924 0-1.734-0.386-2.432-1.159-0.662-0.729-0.994-2.172-0.994-4.331 0-0.28 8e-3 -0.576 0.024-0.886zm12.033-10.444v5.82h0.156c1.27 0 2.408 0.394 3.412 1.182 1.033 0.841 1.559 2.183 1.574 4.024v0.193c0 3.6-1.764 5.401-5.289 5.401h-2.549v-16.62zm0 14.435h0.154c1.332 0 1.998-1.14 1.998-3.418 0-1.058-0.164-1.844-0.484-2.355-0.32-0.518-0.877-0.822-1.668-0.914zm13.728-14.435v2.142h-3.9v3.734c2.07 0.014 3.455 0.542 4.15 1.582 0.66 1.009 0.99 2.23 0.99 3.664v0.182c0 1.351-0.33 2.573-0.99 3.665-0.672 1.102-2.057 1.652-4.15 1.652h-2.699v-16.62h6.599zm-3.9 14.48h0.199c0.521 0 0.977-0.205 1.359-0.614 0.42-0.462 0.633-1.338 0.633-2.627v-0.137c0-1.167-0.213-2.001-0.633-2.502-0.445-0.492-0.965-0.739-1.559-0.739v6.619zm9.297-14.48h2.775l3.062 16.62h-2.729l-0.486-3.196h-2.623l-0.559 3.196h-2.621zm0.295 11.362h2.018l-1.021-6.51zm10.006-4.57h2.318v-6.792h2.697v16.62h-2.697v-7.684h-2.318v7.684h-2.698v-16.62h2.698zm7.976-6.792h2.697v6.974c0.119 0.016 0.225 0.023 0.318 0.023 0.828 0 1.242-0.616 1.242-1.847v-2.451c0-1.962 0.807-2.942 2.418-2.942h0.096c0.412 0 0.82 0.049 1.229 0.148l-0.252 1.605h-0.049c-0.309 0-0.502 0.104-0.584 0.312-0.078 0.209-0.117 0.484-0.117 0.826v2.539c0 1.512-0.676 2.416-2.025 2.712 0.701 0.09 1.268 0.379 1.705 0.863 0.438 0.479 0.656 1.079 0.656 1.8v3.052c0 0.282 0.012 0.569 0.035 0.865 0.016 0.288 0.088 0.505 0.215 0.649 0.078 0.105 0.207 0.16 0.393 0.16 0.061 0 0.133-8e-3 0.211-0.024l0.119 1.377a3.767 3.767 0 0 1 -1.285 0.237c-0.438 0-0.869-0.086-1.299-0.26-0.818-0.326-1.229-1.165-1.229-2.515v-3.537c0-0.575-0.115-1.003-0.342-1.284-0.174-0.235-0.535-0.354-1.088-0.354-0.109 0-0.234 8e-3 -0.367 0.024v7.666h-2.697zm8.241 21.474h-128.38v-2.356h128.38zm-132.64 20.931h-43.043v-42.455h43.043z" clip-rule="evenodd" fill="#236ab3" fill-rule="evenodd"/>
<path d="m42.018 41.557h-40.993v-40.351h40.993z" clip-rule="evenodd" fill="#8fcdf4" fill-rule="evenodd"/>
<path d="m3.348 18.598s8.96 3e-3 9.785 0c0.828-1e-3 1.689 0.218 1.689 0.218s-0.64-1.152-0.64-2.632c0-3.218 2.59-5.837 5.975-5.837 0.873-3e-3 3.11 0 3.11 0l2e-3 -6.928h8.388c3.258 0 5.941 2.647 5.941 5.866 0 1.253-0.408 2.42-1.097 3.377 1.909 1.156 3.194 3.238 3.194 5.591 0 3.596-2.998 6.555-6.642 6.555h-5.775c0.344 0.738 0.533 1.558 0.533 2.416 0 3.217-2.682 5.863-5.941 5.863h-11.073l-1.163-1.152v2.582h4e-3v4.781h-6.291v-20.7zm17.372 7.706-0.909-1.12s-0.014 0.563-0.054 0.889c-0.026 0.214-0.159 0.832-0.159 0.832l0.731 5e-3s0.289 0.026 0.417-0.119c0.057-0.062 0.074-0.123 0.083-0.226 0.01-0.128-0.109-0.261-0.109-0.261zm-8.286 0.574c0.576 0 1.05-0.467 1.05-1.035 0-0.566-0.474-1.035-1.05-1.035h-2.795v2.07zm19.922-8.28c0.575 0 1.048-0.467 1.048-1.034 0-0.568-0.515-1.004-1.048-1.004h-2.796v2.039h2.796zm-1.398-8.279a0.348 0.348 0 0 0 0.349 -0.345 0.32 0.32 0 0 0 -0.318 -0.314l-1.428 2e-3v0.657zm-9.781 6.686c0.086 0.221 0.248 0.375 0.248 0.375l1.851 2.26v-2.069l1.035-1.01h-2.558s-0.4-0.037-0.5 0.114c0 0-0.124 0.122-0.076 0.33z" clip-rule="evenodd" fill="#236ab3" fill-rule="evenodd"/>
<path d="m32.358 15.393h-3.944v4.334h3.944c1.426 0 2.195-1.116 2.195-2.167 0-1.05-0.769-2.167-2.195-2.167zm0 3.795h-3.396v-3.254h3.396c0.91 0 1.649 0.729 1.649 1.626a1.64 1.64 0 0 1 -1.649 1.628zm0.098-9.217a1.48 1.48 0 0 0 -1.496 -1.478h-2.546v2.956h2.546c0.799 0 1.496-0.658 1.496-1.478zm-3.494-0.938h1.998c0.524 0 0.949 0.422 0.949 0.938a0.944 0.944 0 0 1 -0.949 0.938h-1.998zm-16.526 14.64h-3.943v4.335h3.943c1.426 0 2.196-1.117 2.196-2.167 0-1.045-0.687-2.168-2.196-2.168zm0 3.794h-3.396v-3.255h3.396c0.91 0 1.649 0.73 1.649 1.629 0 0.898-0.739 1.626-1.649 1.626zm9.112-12.06-0.092-3e-3c-0.819 0-1.314 0.571-1.428 1.102a1.59 1.59 0 0 0 -0.031 0.313c0 0.405 0.149 0.833 0.399 1.146 1.12 1.395 2.515 2.982 3.849 4.488l0.172 0.195v-4.721c0.05-0.054 2.565-2.537 2.565-2.537l-0.218 1e-3zm2.307 2.334 2e-3 3.448-3.045-3.634c2e-3 1e-3 -0.237-0.331-0.237-0.672v-0.011a0.952 0.952 0 0 1 0.948 -0.938h4.154z" clip-rule="evenodd" fill="#fff" fill-rule="evenodd"/>
<path d="m35.554 12.871a5.182 5.182 0 0 0 1.452 -3.588c0-2.906-2.397-5.27-5.344-5.27h-7.825v6.896l-4.062 0.012c-2.801 0.186-4.991 2.496-4.991 5.26 0 1.113 0.354 2.181 1.022 3.087l0.819 1.038c-1.075-0.705-2.334-1.117-3.491-1.117h-9.185v19.515h5.09v-8.142l1.958 1.932h10.875c2.238 0 5.341-1.855 5.351-5.338v-0.017c0-1.07-0.316-2.005-0.982-2.926h6.814c1.528 0 3.069-0.656 4.228-1.801 1.151-1.137 1.812-2.643 1.812-4.133v-2e-3c-2e-3 -2.327-1.387-4.433-3.541-5.406zm-2.498 10.802h-7.887l0.12 0.156c0.667 0.867 1.378 2.213 1.378 3.391 0 1.714-0.955 2.852-1.756 3.504-0.914 0.747-2.108 1.229-3.039 1.229l-10.592 0.023-2.788-2.729v8.916h-3.996v-18.436h4.445l4.213 2e-3c3.23 0.168 5.482 2.54 5.475 5.766-5e-3 1.081-0.654 2.217-0.729 2.343l-0.085 0.145 0.167 5e-3 2.511 0.012c0.931-3e-3 1.515-0.71 1.521-1.364l1e-3 -0.021c0-0.594-0.231-0.874-0.371-1.041l-0.07-0.091-6e-3 -0.01-4.973-6.109c-0.295-0.401-1.267-1.822-1.267-3.183 0-2.789 2.526-4.731 4.794-4.731h4.292v-6.9h7.242c2.825 0 4.795 2.494 4.795 4.732 0 1.766-0.871 2.875-1.721 3.728l-0.117 0.117 0.161 0.044c2.451 0.691 3.773 3.134 3.773 5.081 4e-3 2.563-2.252 5.421-5.491 5.421zm-16.229-2.743 6e-3 4e-3 5e-3 6e-3zm1.856 1.929 2.601 3.183a0.921 0.921 0 0 1 0.141 0.489 0.944 0.944 0 0 1 -0.95 0.937h-1.779a5.338 5.338 0 0 0 0.479 -1.969l2e-3 -0.157c0-0.795-0.178-1.675-0.494-2.483z" clip-rule="evenodd" fill="#fff" fill-rule="evenodd"/>
<path d="m50.167 42.413h-3.134v-16.197h4.547c1.812 0 3.805 0.812 3.805 4.941 0 3.992-1.958 4.938-3.805 4.938h-1.413zm0-9.226h0.562c0.778 0 1.521-0.475 1.521-2.076s-0.67-1.984-1.577-1.984h-0.506zm10.017 9.226h-3.132v-16.197h4.927c1.955 0 3.423 1.376 3.423 4.083 0 2.459-0.562 3.407-1.775 4.106 0.941 0.338 1.631 1.194 1.631 2.888v3.09c0 1.173 0.289 1.511 0.561 1.511v0.52h-2.753c-0.799 0-0.942-0.857-0.942-2.099v-2.662c0-1.037-0.273-1.557-1.25-1.557h-0.689v6.317zm0-9.226h0.797c0.762 0 1.285-0.565 1.285-2.03 0-1.444-0.523-2.03-1.303-2.03h-0.779zm15.219-2.754v7.266c0 3.224-1.288 5.097-4.222 5.097-2.899 0-4.222-1.873-4.222-5.097v-7.286c0-2.549 1.287-4.557 4.24-4.557 2.954 0 4.204 2.052 4.204 4.577zm-5.308-0.269v8.211c0 0.97 0.543 1.443 1.086 1.443 0.525 0 1.086-0.474 1.086-1.443v-8.211c0-0.925-0.562-1.33-1.086-1.33-0.543-1e-3 -1.086 0.405-1.086 1.33zm11.357-3.949 1.016 6.564c0.217 1.332 0.325 3.588 0.472 5.12h0.036c0.144-1.465 0.289-3.969 0.471-5.12l1.013-6.564h4.367v16.197h-2.989v-5.685c0-1.556 0.09-5.708 0.163-7.061h-0.018l-1.939 12.745h-2.174l-1.937-12.745h-0.019c0.054 1.128 0.163 4.85 0.163 7.037v5.708h-2.989v-16.197h4.364zm11.866 10.806v1.016c0 1.465 0.453 1.849 1.213 1.849 0.635 0 1.033-0.587 1.033-1.579 0-0.97-0.398-1.511-1.197-2.119l-1.881-1.444c-1.105-0.834-1.85-2.323-1.85-4.444 0-2.863 1.523-4.442 3.859-4.442 2.119 0 3.895 1.443 3.895 4.962v0.271h-2.826v-0.34c0-1.398-0.418-1.983-1.105-1.983-0.615 0-0.959 0.473-0.959 1.194 0 0.881 0.254 1.376 1.014 1.939l1.938 1.468c1.16 0.879 1.939 1.983 1.939 4.465 0 3.361-1.469 4.963-3.932 4.963-2.717 0-4.004-1.556-4.004-4.578v-1.196h2.863zm9.203-10.806 1.139 8.55c0.094 0.631 0.254 2.978 0.365 4.466h0.035c0.109-1.488 0.219-3.835 0.324-4.511l1.252-8.505h3.17l-2.879 16.197h-3.697l-2.881-16.197zm9.764 0 1.631 5.121 1.629-5.121h3.025l-3.15 9.001v7.197h-3.135v-7.197l-3.172-9.001zm12.303 0 2.881 16.197h-3.08l-0.473-3.248h-2.391l-0.4 3.248h-3.115l2.828-16.197zm-1.09 10.037-0.834-7.126h-0.018l-0.814 7.126zm12.012-10.037v3.07l-3.912 10.059h4.056v3.069h-7.554v-3.069l4.042-10.059h-3.767v-3.07zm1.703 0h5c1.521 0 3.207 1.152 3.207 4.061 0 2.21-1.088 3.247-1.775 3.43 1.213 0.631 1.9 1.67 1.9 3.925 0 3.022-1.303 4.782-3.965 4.782h-4.367zm3.025 6.249h0.924c0.889 0 1.232-0.541 1.232-1.827 0-0.948-0.344-1.511-1.232-1.511h-0.924zm0 7.037h0.705c1.18 0 1.523-0.562 1.523-2.028 0-1.354-0.344-2.098-1.451-2.098h-0.777zm12.737-13.286 2.881 16.197h-3.082l-0.471-3.248h-2.391l-0.4 3.248h-3.113l2.824-16.197zm-1.088 10.037-0.834-7.126h-0.018l-0.816 7.126zm7.986-10.037 2.664 10.173h0.02c-0.09-1.803-0.49-4.353-0.49-6.134v-4.039h2.988v16.197h-3.023l-2.701-9.858h-0.018c0.146 1.715 0.527 4.287 0.527 6.022v3.836h-2.99v-16.197zm9.982 6.451 2.194-6.451h3.406l-2.881 7.153 2.881 9.045h-3.299l-1.449-5.64-0.852 1.873v3.767h-2.99v-16.198h2.99z" clip-rule="evenodd" fill="#236ab3" fill-rule="evenodd"/>
</svg>
