<svg xmlns="http://www.w3.org/2000/svg" width="352.277" height="83.327"><path d="M60.7 0C27.15 0 0 15.903 0 35.645c0 8.363 4.91 16.04 13.233 22.21C9.14 52.782 6.82 47.16 6.82 41.13c0-20.427 26.603-37.016 59.345-37.016 21.146 0 39.7 6.855 50.205 17.274C106.958 8.774 85.54 0 60.7 0z" fill="#8cc23c"/><path d="M55.37 45.72c2.468 0 4.455-.52 5.96-1.56 1.746-1.15 2.62-2.82 2.62-5 0-4.05-1.325-7.8-3.974-11.25s-6.052-6.048-10.206-7.8c-2.9-1.203-6.112-1.806-9.664-1.806-7.166 0-13.05 2.327-17.658 6.98s-6.9 10.264-6.9 16.832c0 6.624 2.408 12.193 7.226 16.7S33.603 65.6 40.83 65.6c3.853 0 7.556-.548 11.1-1.642 4.214-1.26 7.285-3.092 9.213-5.5 1.084-1.314 1.626-2.627 1.626-3.94 0-3.45-1.928-5.173-5.78-5.173-.844 0-3.012.726-6.503 2.176s-6.473 2.176-8.942 2.176c-2.95 0-5.45-.684-7.497-2.053s-3.222-3.338-3.522-5.912zM33.694 31.3c1.746-1.45 3.913-2.176 6.503-2.176 2.53 0 4.68.74 6.458 2.217s2.755 3.367 2.935 5.666H30.352c.482-2.353 1.595-4.256 3.342-5.707zM72.08 58.694c4.455 4.544 10.356 6.815 17.703 6.815 4.395 0 8.068-.657 11.02-1.97 4.094-1.86 6.142-4.132 6.142-6.815 0-1.587-.528-2.942-1.58-4.064s-2.424-1.683-4.1-1.683c-1.145 0-2.6.33-4.335.985s-3.644.985-5.7.985c-3.493 0-6.202-1.094-8.13-3.284-1.687-1.97-2.53-4.598-2.53-7.882 0-3.12.813-5.72 2.44-7.8 1.806-2.3 4.365-3.45 7.677-3.45a16.59 16.59 0 0 1 5.826 1.026c1.836.685 3.326 1.026 4.47 1.026 1.746 0 3.2-.547 4.335-1.642a5.35 5.35 0 0 0 1.716-4.023c0-3.065-1.987-5.364-5.96-6.897-2.95-1.094-6.413-1.642-10.387-1.642-7.587 0-13.67 2.204-18.245 6.6s-6.864 10.087-6.864 17.038c-.001 6.73 2.167 12.288 6.502 16.667zm42.088.082c4.697 4.653 10.688 6.98 17.974 6.98 7.346 0 13.336-2.3 17.974-6.897 4.455-4.488 6.684-10.1 6.684-16.832 0-6.787-2.258-12.452-6.774-16.997s-10.477-6.815-17.883-6.815c-7.286 0-13.232 2.286-17.838 6.856s-6.9 10.223-6.9 16.956c-.001 6.678 2.257 12.262 6.773 16.75zm10.567-24.47c1.746-2.353 4.214-3.53 7.406-3.53 3.13 0 5.57 1.205 7.316 3.613 1.565 2.08 2.348 4.598 2.348 7.554 0 3.066-.754 5.612-2.258 7.636-1.747 2.4-4.215 3.613-7.406 3.613-3.132 0-5.57-1.203-7.316-3.613-1.566-2.08-2.348-4.625-2.348-7.636s.752-5.555 2.258-7.636z" fill="#033564"/><path d="M177.302 17.064h6.503c6.864 0 10.296 2.6 10.296 7.8 0 5.3-3.432 7.965-10.296 7.965h-6.503zm0 38.385V45.23h10.116c7.104 0 12.704-1.778 16.8-5.337s6.142-8.566 6.142-15.026c0-6.514-2.258-11.577-6.774-15.2-4.276-3.45-10.057-5.173-17.342-5.173h-13.548c-3.915 0-6.624.7-8.13 2.132s-2.258 3.9-2.258 7.462v41.327c0 6.45 2.498 9.676 7.497 9.676s7.496-3.217 7.496-9.65zM228.6 34.553c1.737-2.244 4.104-3.366 7.102-3.366 3.055 0 5.422 1.123 7.1 3.366 1.438 1.97 2.158 4.407 2.158 7.308s-.72 5.365-2.158 7.4c-1.678 2.3-4.045 3.45-7.1 3.45s-5.455-1.15-7.192-3.45c-1.5-2.024-2.247-4.488-2.247-7.4 0-2.845.78-5.282 2.337-7.308zm23.946 30.545c4.817 0 7.226-3.234 7.226-9.706V28.658c0-6.415-2.4-9.623-7.226-9.623-2.95 0-5.27 1.396-6.955 4.188-2.95-3.174-6.864-4.762-11.742-4.762-6.684 0-12.193 2.463-16.53 7.4-4.096 4.598-6.142 10-6.142 16.176 0 6.13 1.956 11.468 5.87 16 4.275 4.927 9.694 7.4 16.258 7.4 5.178 0 9.272-1.67 12.284-5 1.445 3.12 3.763 4.68 6.955 4.68zM293.65 24.3l-8.942 21.184-8.3-20.035c-.903-2.244-1.716-3.75-2.44-4.516-1.205-1.26-2.86-1.888-4.968-1.888-2.048 0-3.748.63-5.103 1.888a6.12 6.12 0 0 0-2.032 4.678c0 1.314.27 2.545.813 3.695l14.716 31.273-6.015 11.896c-.804 1.687-1.205 3.184-1.205 4.492 0 1.96.662 3.512 1.987 4.656s3.07 1.714 5.24 1.714c2.588 0 4.726-1.78 6.413-5.337l22.3-48.034c.782-1.696 1.174-3.23 1.174-4.598 0-4.215-2.4-6.322-7.226-6.322-2.768-.001-4.906 1.75-6.4 5.254zm49.524 27.825h-14.422l19.386-22.65c1.976-2.302 2.964-4.247 2.964-5.836 0-1.754-.754-2.864-2.258-3.33s-3.824-.7-6.955-.7h-23.393c-6.203 0-9.303 2-9.303 5.994 0 4.052 3.07 6.076 9.213 6.076h12.554L310.9 55.245c-1.445 1.697-2.168 3.395-2.168 5.1 0 2.738 2.56 4.105 7.677 4.105h26.645c6.142 0 9.213-2.024 9.213-6.076 0-4.16-3.034-6.24-9.103-6.24z" fill="#8cc23c"/></svg>