<?xml version="1.0" encoding="UTF-8" standalone="no"?>
<svg
   xmlns:dc="http://purl.org/dc/elements/1.1/"
   xmlns:cc="http://creativecommons.org/ns#"
   xmlns:rdf="http://www.w3.org/1999/02/22-rdf-syntax-ns#"
   xmlns:svg="http://www.w3.org/2000/svg"
   xmlns="http://www.w3.org/2000/svg"
   xmlns:sodipodi="http://sodipodi.sourceforge.net/DTD/sodipodi-0.dtd"
   xmlns:inkscape="http://www.inkscape.org/namespaces/inkscape"
   width="600"
   height="600"
   viewBox="0 0 158.74999 158.75"
   version="1.1"
   id="svg2364"
   inkscape:version="1.0 (4035a4f, 2020-05-01)"
   sodipodi:docname="FA.svg">
  <defs
     id="defs2358" />
  <sodipodi:namedview
     showborder="false"
     inkscape:snap-smooth-nodes="true"
     inkscape:snap-bbox-midpoints="true"
     inkscape:snap-bbox-edge-midpoints="true"
     inkscape:bbox-nodes="true"
     inkscape:bbox-paths="true"
     inkscape:snap-bbox="true"
     inkscape:snap-intersection-paths="true"
     inkscape:object-paths="true"
     inkscape:snap-global="false"
     id="base"
     pagecolor="#cccccc"
     bordercolor="#666666"
     borderopacity="1.0"
     inkscape:pageopacity="0"
     inkscape:pageshadow="2"
     inkscape:zoom="0.12192408"
     inkscape:cx="1051.982"
     inkscape:cy="1232.0606"
     inkscape:document-units="px"
     inkscape:current-layer="layer1"
     inkscape:document-rotation="0"
     showgrid="false"
     units="px"
     borderlayer="false"
     inkscape:showpageshadow="false"
     inkscape:window-width="1920"
     inkscape:window-height="1035"
     inkscape:window-x="0"
     inkscape:window-y="23"
     inkscape:window-maximized="1" />
  <metadata
     id="metadata2361">
    <rdf:RDF>
      <cc:Work
         rdf:about="">
        <dc:format>image/svg+xml</dc:format>
        <dc:type
           rdf:resource="http://purl.org/dc/dcmitype/StillImage" />
        <dc:title></dc:title>
      </cc:Work>
    </rdf:RDF>
  </metadata>
  <g
     inkscape:label="Layer 1"
     inkscape:groupmode="layer"
     id="layer1">
    <path
       d="M 23.812498,-2e-7 H 134.93751 c 13.19212,0 23.8125,10.6203742 23.8125,23.8124952 V 134.9375 c 0,13.19212 -10.62038,23.8125 -23.8125,23.8125 H 23.812498 C 10.620375,158.75 10e-7,148.12962 10e-7,134.9375 V 23.812495 C 10e-7,10.620374 10.620375,-2e-7 23.812498,-2e-7 Z"
       style="fill:#ffffff;fill-opacity:1;stroke:none;stroke-width:0.340479;font-variation-settings:normal;opacity:1;vector-effect:none;stroke-linecap:butt;stroke-linejoin:miter;stroke-miterlimit:4;stroke-dasharray:none;stroke-dashoffset:0;stroke-opacity:1;stop-color:#000000;stop-opacity:1"
       id="rect578" />
    <g
       transform="translate(-53.43629,25.305771)"
       id="g551" />
    <path
       id="path217"
       style="fill:#ed1c24;fill-opacity:1;fill-rule:evenodd;stroke:none;stroke-width:0.0352777"
       d="M 124.68484,110.00377 C 118.15568,78.627601 111.6264,47.251889 105.09725,15.875002 c 19.99473,3.276074 33.06028,13.648979 37.76353,32.588367 3.8989,21.699059 -2.46595,42.176757 -18.17594,61.540401 z M 85.805077,42.975048 96.535566,91.729948 H 60.376739 Z M 69.47529,21.979013 C 52.834988,54.172079 36.194125,86.364686 19.55337,118.55729 14.989726,104.15327 9.0467478,90.769868 26.551601,60.004206 38.199637,40.677331 53.34713,30.102995 69.47529,21.979013 Z M 49.413219,112.3755 h 51.089021 c 1.1661,5.40444 2.33232,10.80875 3.49842,16.21306 -9.517734,6.21275 -19.828552,11.3352 -32.330846,13.44352 -13.474062,2.098 -25.082222,0.27948 -34.826115,-5.45461 l 12.56952,-24.20197" />
  </g>
</svg>
