<?xml version="1.0" encoding="UTF-8" standalone="no"?>
<svg
   xmlns:dc="http://purl.org/dc/elements/1.1/"
   xmlns:cc="http://creativecommons.org/ns#"
   xmlns:rdf="http://www.w3.org/1999/02/22-rdf-syntax-ns#"
   xmlns:svg="http://www.w3.org/2000/svg"
   xmlns="http://www.w3.org/2000/svg"
   xmlns:sodipodi="http://sodipodi.sourceforge.net/DTD/sodipodi-0.dtd"
   xmlns:inkscape="http://www.inkscape.org/namespaces/inkscape"
   sodipodi:docname="BW.svg"
   inkscape:version="1.0 (4035a4fb49, 2020-05-01)"
   id="svg2364"
   version="1.1"
   viewBox="0 0 158.74999 158.75"
   height="600"
   width="600">
  <defs
     id="defs2358" />
  <sodipodi:namedview
     inkscape:window-maximized="1"
     inkscape:window-y="0"
     inkscape:window-x="0"
     inkscape:window-height="703"
     inkscape:window-width="1366"
     inkscape:showpageshadow="false"
     borderlayer="false"
     units="px"
     showgrid="false"
     inkscape:document-rotation="0"
     inkscape:current-layer="layer1"
     inkscape:document-units="px"
     inkscape:cy="591.33054"
     inkscape:cx="23.341294"
     inkscape:zoom="0.32"
     inkscape:pageshadow="2"
     inkscape:pageopacity="0"
     borderopacity="1.0"
     bordercolor="#666666"
     pagecolor="#cccccc"
     id="base"
     inkscape:snap-global="false"
     inkscape:object-paths="true"
     inkscape:snap-intersection-paths="true"
     inkscape:snap-bbox="true"
     inkscape:bbox-paths="true"
     inkscape:bbox-nodes="true"
     inkscape:snap-bbox-edge-midpoints="true"
     inkscape:snap-bbox-midpoints="true"
     inkscape:snap-smooth-nodes="true"
     showborder="false" />
  <metadata
     id="metadata2361">
    <rdf:RDF>
      <cc:Work
         rdf:about="">
        <dc:format>image/svg+xml</dc:format>
        <dc:type
           rdf:resource="http://purl.org/dc/dcmitype/StillImage" />
        <dc:title />
      </cc:Work>
    </rdf:RDF>
  </metadata>
  <g
     id="layer1"
     inkscape:groupmode="layer"
     inkscape:label="Layer 1">
    <path
       id="rect578"
       style="fill:#3fad49;fill-opacity:1;stroke:none;stroke-width:0.379078"
       d="M 23.812498,-2e-7 H 134.93751 c 13.19212,0 23.8125,10.6203742 23.8125,23.8124952 V 134.9375 c 0,13.19212 -10.62038,23.8125 -23.8125,23.8125 H 23.812498 C 10.620375,158.75 10e-7,148.12962 10e-7,134.9375 V 23.812495 C 10e-7,10.620374 10.620375,-2e-7 23.812498,-2e-7 Z" />
    <g
       id="g551"
       transform="translate(-53.43629,25.305771)" />
    <path
       sodipodi:nodetypes="ccsscc"
       id="path1935-3"
       d="m 51.614548,52.793333 c 3.79665,1.898352 78.781172,81.628687 78.781172,81.628687 0,0 5.69499,7.11875 8.0679,7.11875 2.84752,0 5.69507,-32.74636 3.7967,-42.712676 C 140.36198,88.86182 94.327193,14.826541 81.513416,12.928189 Z"
       style="fill:#ffd700;fill-opacity:1;fill-rule:nonzero;stroke:none;stroke-width:0.636274" />
    <path
       id="path1937-6"
       d="m 116.15812,52.793333 c 0,0 -5.69503,-2.847479 -9.0171,-0.949179 -3.79672,1.898353 -78.781175,81.628696 -78.781175,81.628696 0,0 -5.695002,7.11874 -8.542539,7.11874 -2.372895,0 -5.220434,-32.74633 -3.322083,-42.712611 1.898352,-9.966345 47.93311,-84.001614 60.746921,-85.899969 12.339187,-1.898352 38.915976,40.814323 38.915976,40.814323 z"
       style="fill:#e30613;fill-opacity:1;fill-rule:nonzero;stroke:none;stroke-width:0.636274" />
  </g>
</svg>
