<?xml version="1.0" encoding="UTF-8"?>
<svg class="icon" width="469.31" height="512" version="1.1" viewBox="0 0 469.31348 1024" xmlns="http://www.w3.org/2000/svg" xmlns:cc="http://creativecommons.org/ns#" xmlns:dc="http://purl.org/dc/elements/1.1/" xmlns:rdf="http://www.w3.org/1999/02/22-rdf-syntax-ns#">
<metadata>
<rdf:RDF>
<cc:Work rdf:about="">
<dc:format>image/svg+xml</dc:format>
<dc:type rdf:resource="http://purl.org/dc/dcmitype/StillImage"/>
<dc:title/>
</cc:Work>
</rdf:RDF>
</metadata>
<path d="m529.76 768c-59.776 1.92-115.11 3.84-174.89 5.8453-37.845 161.92-351.15 118.1-316.25-87.381 17.536-121.64 181.25-174.76 282.79-82.901 22.315 25.301 33.237 48.853 40.405 100.44 50.133-1.92 117.76-3.9253 167.94-5.8453 2.6027-261.72-293.38-394.67-515.29-267.52-212.69 121.69-188.07 492.71 34.773 587.43v5.9307c-121.56-2.4747-254.89-97.067-283.9-209.49l1.7067-603.56c96.427-65.92 203.01-144.94 299.52-210.94l11.52 5.9307c-6.5707 90.88-2.3467 240.9 2.9867 350.42 60.416-58.923 101.21-120.58 205.53-141.1 67.285-13.141 131.58-5.2053 172.25 8.7467 304.85 104.96 323.93 500.82 65.195 637.01-5.888 0-18.475 11.52-27.989 13.397 0-2.0053 5.9307-10.325 10.624-19.157l23.04-87.253" fill="#2d2f64"/>
</svg>
