<?xml version="1.0" encoding="UTF-8"?>
<svg width="151.7" height="139.4" version="1.1" viewBox="0 0 151.7 139.39999" xml:space="preserve" xmlns="http://www.w3.org/2000/svg" xmlns:cc="http://creativecommons.org/ns#" xmlns:dc="http://purl.org/dc/elements/1.1/" xmlns:rdf="http://www.w3.org/1999/02/22-rdf-syntax-ns#"><metadata><rdf:RDF><cc:Work rdf:about=""><dc:format>image/svg+xml</dc:format><dc:type rdf:resource="http://purl.org/dc/dcmitype/StillImage"/><dc:title/></cc:Work></rdf:RDF></metadata><style type="text/css">
	.st0{fill:#35B34A;}
</style><path class="st0" d="m59.5 85.7c-8.3 4.5-12-4.2-12-4.2s-10.9-18.4-13.8-26.3c-1.3-3.6-0.2-3.9 1-4.7 2.3-1.6 4.4 1.3 4.4 1.3s7.5 7.1 11.2 10.4c5 4.4 10.1 1.6 10.1 1.6l78.5-34.6c-13.6-17.5-36.7-29.2-63-29.2-41.9 0-75.9 29.6-75.9 65.8 0 19.7 9.9 37.2 25.7 49.4l-2.9 20c-0.2 1.5 0.5 2.9 1.8 3.7 0.6 0.3 1.3 0.5 1.9 0.5 0.8 0 1.5-0.2 2.1-0.6l17.1-12.2c9.3 3.4 19.3 5.4 30.1 5.4 41.9 0 75.9-29.6 75.9-65.8 0-10.6-2.8-20.5-7.8-29.2-21.2 12.2-77.6 45-84.4 48.7z" fill="#35b34a"/></svg>
