<?xml version="1.0" encoding="UTF-8"?>
<svg width="519.6" height="139.4" version="1.1" viewBox="0 0 519.59998 139.39999" xml:space="preserve" xmlns="http://www.w3.org/2000/svg" xmlns:cc="http://creativecommons.org/ns#" xmlns:dc="http://purl.org/dc/elements/1.1/" xmlns:rdf="http://www.w3.org/1999/02/22-rdf-syntax-ns#"><metadata><rdf:RDF><cc:Work rdf:about=""><dc:format>image/svg+xml</dc:format><dc:type rdf:resource="http://purl.org/dc/dcmitype/StillImage"/><dc:title/></cc:Work></rdf:RDF></metadata><style type="text/css">
	.st0{fill:#35B34A;}
</style><g transform="translate(-40.2,-55.3)"><path class="st0" d="m99.7 141c-8.3 4.5-12-4.2-12-4.2s-10.9-18.4-13.8-26.3c-1.3-3.6-0.2-3.9 1-4.7 2.3-1.6 4.4 1.3 4.4 1.3s7.5 7.1 11.2 10.4c5 4.4 10.1 1.6 10.1 1.6l78.5-34.6c-13.6-17.5-36.7-29.2-63-29.2-41.9 0-75.9 29.6-75.9 65.8 0 19.7 9.9 37.2 25.7 49.4l-2.9 20c-0.2 1.5 0.5 2.9 1.8 3.7 0.6 0.3 1.3 0.5 1.9 0.5 0.8 0 1.5-0.2 2.1-0.6l17.1-12.2c9.3 3.4 19.3 5.4 30.1 5.4 41.9 0 75.9-29.6 75.9-65.8 0-10.6-2.8-20.5-7.8-29.2-21.2 12.2-77.6 45-84.4 48.7z" fill="#35b34a"/><path d="m262.6 110.5s-1 4.2-1.8 7.1l-9.6 34.3h-3.6l-12-45.5h2.9l9.6 37c0.6 2.3 1.1 4.9 1.1 4.9h0.2s0.6-2.6 1.3-4.9l10.4-37h3.1l10.4 37c0.6 2.3 1.1 4.9 1.3 4.9h0.2s0.5-2.6 1.1-4.9l9.9-37h2.9l-12.3 45.5h-3.6l-9.6-34.3c-0.8-2.9-1.8-7.1-1.8-7.1h-0.1z"/><path d="m309.7 118.7c8.8 0 13.3 7 13.3 14.8 0 0.6-0.2 1.8-0.2 1.8h-26c0 9.4 6.3 14.8 14 14.8 6.2 0 10.1-4.1 10.1-4.1l1.5 2.3s-4.5 4.5-11.5 4.5c-9.1 0-16.7-6.7-16.7-17.1-0.2-10.8 7.3-17 15.5-17zm10.4 14.2c-0.3-8-5-11.5-10.4-11.5-6 0-11.5 3.9-12.7 11.5h23.1z"/><path d="m373.6 106.6h2.8v18.7c0 1.5-0.3 2.6-0.3 2.6h0.2c1.1-3.1 5.7-9.1 13.8-9.1 8.4 0 10.7 5 10.7 12.7v20.5h-2.8v-19.7c0-5.7-0.6-11-8-11-6.2 0-11.5 4.2-13.2 10.4-0.3 1.3-0.5 2.9-0.5 4.4v15.9h-2.8l0.1-45.4z"/><path d="m427.8 132.2h2.1v-1.1c0-7.1-3.7-9.7-8.9-9.7-5.7 0-9.3 3.1-9.3 3.1l-1.6-2.3s3.9-3.6 11-3.6c7.5 0 11.5 4.2 11.5 12.3v21h-2.8v-4.2c0-1.8 0.3-2.9 0.3-2.9h-0.2s-2.9 8-11.4 8c-5.2 0-11-2.9-11-9.4 0.2-11 14.7-11.2 20.3-11.2zm-8.9 18.1c7.1 0 11-7.3 11-13.8v-1.8h-2.1c-5.5 0-17.4 0-17.4 8.4 0.2 3.6 3 7.2 8.5 7.2z"/><path d="m442.5 122.2h-4.2v-2.4h4.2v-9.3h2.8v9.3h8.4v2.4h-8.4v17.8c0 8.6 5.2 9.7 7.8 9.7 1 0 1.5-0.2 1.5-0.2v2.6s-0.6 0.2-1.6 0.2c-3.4 0-10.4-1.3-10.4-12l-0.1-18.1z"/><path d="m472 106.6h15c8 0 13.8 5 13.8 13.3s-5.8 13.3-13.8 13.3h-12.2v18.8h-2.8v-45.4zm14.8 24c6.7 0 11-3.9 11-10.7s-4.4-10.7-11-10.7h-12v21.4h12z"/><path d="m521.9 132.2h2.1v-1.1c0-7.1-3.7-9.7-8.9-9.7-5.7 0-9.3 3.1-9.3 3.1l-1.6-2.3s3.9-3.6 11-3.6c7.5 0 11.5 4.2 11.5 12.3v21h-2.7v-4.2c0-1.8 0.3-2.9 0.3-2.9h-0.2s-2.9 8-11.4 8c-5.2 0-11-2.9-11-9.4 0-11 14.3-11.2 20.2-11.2zm-9.1 18.1c7.1 0 11-7.3 11-13.8v-1.8h-2.1c-5.5 0-17.4 0-17.4 8.4 0.2 3.6 3 7.2 8.5 7.2z"/><path d="m531 161.6s1.8 1.6 4.1 1.6c3.1 0 5-2.8 6.3-5.8l2.3-5.4-13.5-32.3h2.9l10.7 26c0.6 1.6 1.1 3.1 1.1 3.1h0.2s0.5-1.5 1.1-3.1l10.7-26h2.9l-16.6 40c-1.5 3.4-4.2 6-8.3 6-3.1 0-5.2-1.8-5.2-1.8l1.3-2.3z"/><path d="m360.6 148.6c-2.3 0.8-5 1.6-8.3 1.6-11.4 0-20-9.4-20-21.3 0-11.7 8.4-20.6 19.7-20.6 4.1 0 7.5 1.1 9.9 2.3l1.8-2.3c-2.8-1.3-6.7-2.6-11.7-2.6-12.8 0-22.6 10.1-22.6 23.2 0 13.2 9.6 23.9 22.9 23.9 4.1 0 7.5-1 10.1-2.1l-1.8-2.1z"/></g></svg>
