<svg xmlns="http://www.w3.org/2000/svg" width="934" height="580" viewBox="0 0 933.6 579.5"><path d="M486 282v42.2c0 2.8 2.3 5.1 5.1 5.1h67.4c3.7 0 6.2 3.9 4.6 7.2-17.1 36.3-54.6 61.2-97.6 59.8-54.2-1.8-98.3-45.6-100.4-99.8-2.3-59.2 45.2-108.1 103.9-108.1 27.2 0 52 10.5 70.6 27.7 1.4 1.3 3.3 1.7 5.1 1l42.8-15c3.3-1.2 4.5-5.3 2.3-8-13-15.9-29-29.2-47.2-39-1.7-.9-2.7-2.6-2.7-4.5v-40.2c0-2.8-2.3-5.1-5.1-5.1h-42.2c-2.8 0-5.1 2.3-5.1 5.1v21.7c0 3-2.6 5.3-5.5 5.1-5.6-.5-11.4-.7-17.2-.5-10.2.3-20.1 1.5-29.6 3.6a5.09 5.09 0 0 1-6.2-5v-24.9c0-2.8-2.3-5.1-5.1-5.1h-42.2c-2.8 0-5.1 2.3-5.1 5.1v54.1c0 1.6-.8 3.1-2 4.1-37 28.3-61.1 72.8-61.5 122.6-.4 51 23.8 96.5 61.5 125.2 1.3 1 2 2.5 2 4.1v48.9c0 2.8 2.3 5.1 5.1 5.1h42.2c2.8 0 5.1-2.3 5.1-5.1v-19.8a5.09 5.09 0 0 1 6.2-5 155.37 155.37 0 0 0 33.7 3.7c4.4 0 8.7-.2 13-.5 3-.2 5.5 2.1 5.5 5.1v16.6c0 2.8 2.3 5.1 5.1 5.1h42.2c2.8 0 5.1-2.3 5.1-5.1v-35.1c0-1.9 1.1-3.6 2.7-4.5 38.4-20.7 67.1-57 77.7-100.3h.1v-47.3c0-2.8-2.3-5.1-5.1-5.1H491c-2.8-.3-5 1.9-5 4.8z" fill="#293c5e"/><path d="M933.6 280.1l-.3-255.9c0-13.3-10.8-24.2-24.2-24.2H329.2l-58 37.7h519c48.6 2.5 102.1 51.8 105.6 100.2v190.2zM0 299.4l.3 255.9c0 13.3 10.8 24.2 24.2 24.2h580l58.1-37.6H143.4c-48.6-2.5-102.1-51.8-105.6-100.2V251.4z" fill="#2a9fa4"/></svg>