<svg xmlns="http://www.w3.org/2000/svg" xmlns:xlink="http://www.w3.org/1999/xlink" width="934" height="941" viewBox="0 0 933.8 940.4"><path d="M186.3 810.8h-5.9c-1.8 0-3.6.9-4.6 2.4l-47.1 65.1c-.6.8-1.4 1.2-2.3 1.2s-1.8-.4-2.3-1.2L77 813.2c-1.1-1.5-2.8-2.4-4.6-2.4h-5.9c-3.2 0-5.7 2.6-5.7 5.7v116.6c0 3.2 2.6 5.7 5.7 5.7h16.8c3.2 0 5.7-2.6 5.7-5.7v-51.5c0-1.6 1-2.4 2-2.8 1-.3 2.3-.2 3.2 1.1l27.6 38.5c1.1 1.5 2.8 2.4 4.7 2.4s3.6-.9 4.7-2.4l27.4-38.5c.9-1.3 2.3-1.4 3.2-1.1 1 .3 2 1.2 2 2.8v51.5c0 3.2 2.6 5.7 5.7 5.7h16.9c3.2 0 5.7-2.6 5.7-5.7V816.6c-.1-3.2-2.7-5.8-5.8-5.8zm124-1.2c-37.5 0-68 29.3-68 65.4 0 36 30.5 65.4 68 65.4s68-29.3 68-65.4c.1-36.1-30.4-65.4-68-65.4zm39.3 65.4c0 21.4-17.6 38.7-39.3 38.7-21.5 0-39.1-17.4-39.1-38.7 0-21.4 17.5-38.7 39.1-38.7 21.7-.1 39.3 17.3 39.3 38.7zm188.1-64.2h-16.9c-3.2 0-5.7 2.6-5.7 5.7v63.7c0 1.4-.9 2.3-1.8 2.7s-2.2.4-3.2-.7l-65.9-69.6c-1.1-1.1-2.6-1.8-4.2-1.8h-6.2c-3.2 0-5.7 2.6-5.7 5.7v116.6c0 3.2 2.6 5.7 5.7 5.7h16.8c3.2 0 5.7-2.6 5.7-5.7v-63.8c0-1.4.9-2.3 1.8-2.7s2.2-.4 3.2.7l66 69.7c1.1 1.1 2.6 1.8 4.2 1.8h6.3c3.2 0 5.7-2.6 5.7-5.7V816.6c0-3.2-2.6-5.8-5.8-5.8zM691.1 914h-62.8c-1.6 0-2.9-1.3-2.9-2.9v-19.4c0-1.6 1.3-2.9 2.9-2.9h48c3.2 0 5.7-2.6 5.7-5.7v-12.7c0-3.2-2.6-5.7-5.7-5.7h-48c-1.6 0-2.9-1.3-2.9-2.9v-23.2c0-1.6 1.3-2.9 2.9-2.9h59c3.2 0 5.7-2.6 5.7-5.7v-13.4c0-3.2-2.6-5.7-5.7-5.7h-83.7c-3.2 0-5.7 2.6-5.7 5.7v116.6c0 3.2 2.6 5.7 5.7 5.7h87.5c3.2 0 5.7-2.6 5.7-5.7v-13.4c.1-3.2-2.5-5.8-5.7-5.8zm169.6-100.3c-1-1.8-2.9-2.9-5-2.9h-19.1c-2 0-4 1.1-5 2.9l-26.7 46.6c-.5.9-1.5 1.5-2.5 1.5s-2-.5-2.5-1.4l-27-46.6c-1-1.8-2.9-2.9-5-2.9h-19c-2.1 0-3.9 1.1-5 2.9a5.79 5.79 0 0 0 0 5.7l43.6 75.3c.3.4.4.9.4 1.5v37c0 3.2 2.6 5.7 5.7 5.7h17c3.2 0 5.7-2.6 5.7-5.7v-37c0-.5.1-1 .4-1.5l43.8-75.3c1.2-1.9 1.2-4 .2-5.8z" fill="#2a9fa4"/><path d="M486 282v42.2c0 2.8 2.3 5.1 5.1 5.1h67.4c3.7 0 6.2 3.9 4.6 7.2-17.1 36.3-54.6 61.2-97.6 59.8-54.2-1.8-98.3-45.6-100.4-99.8-2.3-59.2 45.2-108.1 103.9-108.1 27.2 0 52 10.5 70.6 27.7 1.4 1.3 3.3 1.7 5.1 1l42.8-15c3.3-1.2 4.5-5.3 2.3-8-13-15.9-29-29.2-47.2-39-1.7-.9-2.7-2.6-2.7-4.5v-40.2c0-2.8-2.3-5.1-5.1-5.1h-42.2c-2.8 0-5.1 2.3-5.1 5.1v21.7c0 3-2.6 5.3-5.5 5.1-5.6-.5-11.4-.7-17.2-.5-10.2.3-20.1 1.5-29.6 3.6a5.09 5.09 0 0 1-6.2-5v-24.9c0-2.8-2.3-5.1-5.1-5.1h-42.2c-2.8 0-5.1 2.3-5.1 5.1v54.1c0 1.6-.8 3.1-2 4.1-37 28.3-61.1 72.8-61.5 122.6-.4 51 23.8 96.5 61.5 125.2 1.3 1 2 2.5 2 4.1v48.9c0 2.8 2.3 5.1 5.1 5.1h42.2c2.8 0 5.1-2.3 5.1-5.1v-19.8a5.09 5.09 0 0 1 6.2-5 155.37 155.37 0 0 0 33.7 3.7c4.4 0 8.7-.2 13-.5 3-.2 5.5 2.1 5.5 5.1v16.6c0 2.8 2.3 5.1 5.1 5.1h42.2c2.8 0 5.1-2.3 5.1-5.1v-35.1c0-1.9 1.1-3.6 2.7-4.5 38.4-20.7 67.1-57 77.7-100.3h.1v-47.3c0-2.8-2.3-5.1-5.1-5.1H491c-2.8-.3-5 1.9-5 4.8z" fill="#293c5e"/><path d="M933.6 280.1l-.3-255.9c0-13.3-10.8-24.2-24.2-24.2H329.2l-58 37.7h519c48.6 2.5 102.1 51.8 105.6 100.2v190.2zM0 299.4l.3 255.9c0 13.3 10.8 24.2 24.2 24.2h580l58.1-37.6H143.4c-48.6-2.5-102.1-51.8-105.6-100.2V251.4z" fill="#2a9fa4"/><g fill="#293c5e"><use xlink:href="#B"/><path d="M388 630.8c-37.4 0-67.8 29.2-67.8 65.2 0 35.9 30.4 65.2 67.8 65.2s67.8-29.2 67.8-65.2-30.4-65.2-67.8-65.2zm39.2 65.2c0 21.3-17.6 38.6-39.2 38.6-21.5 0-39-17.3-39-38.6s17.5-38.6 39-38.6c21.6-.1 39.2 17.3 39.2 38.6zm162-16.2a2.7 2.7 0 0 1-1.8-1.8c-.3-.9-.2-1.8.4-2.6 2.8-4 4.4-9.2 4.4-14.3 0-16-12.8-29.1-28.5-29.1h-50.6c-3.1 0-5.7 2.6-5.7 5.7V754c0 3.1 2.6 5.7 5.7 5.7h64.4c26.9 0 39.1-21.2 39.1-40.9 0-17.8-11-33.5-27.4-39zM535 700.1c0-1.6 1.3-2.9 2.9-2.9h26c17.1 0 23.2 10.2 23.2 18.9 0 12.3-8.1 18.8-23.4 18.8h-25.8c-1.6 0-2.9-1.3-2.9-2.9zm21.2-24.5h-18.5c-1.6 0-2.9-1.3-2.9-2.9v-13c0-1.6 1.3-2.9 2.9-2.9h16.6c7.5 0 12.4 3.7 12.4 9.4 0 4.3-2.7 9.4-10.5 9.4zm175-40.3c-.9-2-3-3.2-5.2-3.2h-7.2c-2.2 0-4.2 1.3-5.2 3.3l-55.4 116.3c-.8 1.8-.7 3.8.3 5.5 1.1 1.7 2.9 2.7 4.8 2.7h17.1c2.3 0 4.3-1.3 5.2-3.4l8.9-20.2c.5-1 1.5-1.7 2.6-1.7h50.2c1.1 0 2.2.7 2.6 1.7l9.1 20.2c.9 2 3 3.4 5.2 3.4h17.1c2 0 3.8-1 4.8-2.7 1.1-1.7 1.2-3.7.3-5.5zm5.8 73.8c-.5.8-1.4 1.3-2.4 1.3h-24.4c-1 0-1.9-.5-2.4-1.3s-.6-1.8-.2-2.8l12.1-26.6c.5-1.1 1.5-1.7 2.6-1.7 1.2 0 2.1.6 2.6 1.7l12.2 26.6c.5 1 .5 2-.1 2.8z"/><use xlink:href="#B" x="656.9"/><path d="M128.7 686.5H77.5a4.91 4.91 0 0 0-4.9 4.9v17.4a4.91 4.91 0 0 0 4.9 4.9h26.6c-7 13.9-21.4 22.5-37 21.9-20.8-.7-37.8-17.5-38.6-38.4-.4-11 3.5-21.4 11.1-29.3s17.8-12.3 28.8-12.3c10.1 0 19.7 3.8 27.1 10.7 1.3 1.2 3.2 1.6 5 1l17.6-6.2c1.3-.5 2.3-1.4 2.9-2.6l.7-1.5-1-1.3c-12.8-16.8-32.1-26.5-53.2-26.5-14.2 0-27.7 4.4-39.1 12.7l-.4.3-.2.3c-16.6 12.7-26.2 31.9-26.4 52.6-.2 21.2 9.4 40.8 26.3 53.7l.2.6.7.5c7.5 5.4 15.8 9.1 24.8 11l.3.1h.2c1.3.3 2.7.5 4.2.8 3.1.4 6.2.7 9.4.7 33.2 0 61.6-24.8 66.1-57.7v-13.5c0-2.6-2.2-4.8-4.9-4.8z"/></g><defs ><path id="B" d="M271.2 735.6h-55.7c-1.6 0-2.9-1.3-2.9-2.9v-95c0-3.1-2.6-5.7-5.7-5.7h-16.7c-3.1 0-5.7 2.6-5.7 5.7V754c0 3.1 2.6 5.7 5.7 5.7h81c3.1 0 5.7-2.6 5.7-5.7v-12.7c0-3.1-2.6-5.7-5.7-5.7z"/></defs></svg>