<?xml version="1.0" encoding="UTF-8" standalone="no"?>
<svg
   xmlns:dc="http://purl.org/dc/elements/1.1/"
   xmlns:cc="http://creativecommons.org/ns#"
   xmlns:rdf="http://www.w3.org/1999/02/22-rdf-syntax-ns#"
   xmlns:svg="http://www.w3.org/2000/svg"
   xmlns="http://www.w3.org/2000/svg"
   xmlns:xlink="http://www.w3.org/1999/xlink"
   xmlns:sodipodi="http://sodipodi.sourceforge.net/DTD/sodipodi-0.dtd"
   xmlns:inkscape="http://www.inkscape.org/namespaces/inkscape"
   height="198.11958"
   viewBox="0 0 27.839342 27.876341"
   width="198.51175"
   version="1.1"
   id="svg145"
   sodipodi:docname="icon.svg"
   inkscape:version="0.92.5 (2060ec1f9f, 2020-04-08)">
  <metadata
     id="metadata151">
    <rdf:RDF>
      <cc:Work
         rdf:about="">
        <dc:format>image/svg+xml</dc:format>
        <dc:type
           rdf:resource="http://purl.org/dc/dcmitype/StillImage" />
        <dc:title></dc:title>
      </cc:Work>
    </rdf:RDF>
  </metadata>
  <defs
     id="defs149" />
  <sodipodi:namedview
     pagecolor="#ffffff"
     bordercolor="#666666"
     borderopacity="1"
     objecttolerance="10"
     gridtolerance="10"
     guidetolerance="10"
     inkscape:pageopacity="0"
     inkscape:pageshadow="2"
     inkscape:window-width="1920"
     inkscape:window-height="1009"
     id="namedview147"
     showgrid="false"
     inkscape:zoom="0.556"
     inkscape:cx="248.23475"
     inkscape:cy="-44.825117"
     inkscape:window-x="0"
     inkscape:window-y="0"
     inkscape:window-maximized="1"
     inkscape:current-layer="g143" />
  <symbol
     id="a"
     overflow="visible"
     style="overflow:visible"
     transform="translate(-0.2483785,-0.13229)" />
  <symbol
     id="b"
     overflow="visible"
     style="overflow:visible"
     transform="translate(-0.2483785,-0.13229)" />
  <symbol
     id="c"
     overflow="visible"
     style="overflow:visible"
     transform="translate(-0.2483785,-0.13229)" />
  <symbol
     id="d"
     overflow="visible"
     style="overflow:visible"
     transform="translate(-0.2483785,-0.13229)" />
  <symbol
     id="e"
     overflow="visible"
     style="overflow:visible"
     transform="translate(-0.2483785,-0.13229)" />
  <symbol
     id="f"
     overflow="visible"
     style="overflow:visible"
     transform="translate(-0.2483785,-0.13229)" />
  <symbol
     id="g"
     overflow="visible"
     style="overflow:visible"
     transform="translate(-0.2483785,-0.13229)" />
  <g
     transform="translate(52.760742,233.67822)"
     id="g143">
    <use
       height="100%"
       transform="matrix(0.35277778,0,0,0.35277778,-270.79152,20.260918)"
       width="100%"
       x="964.08441"
       xlink:href="#a"
       y="293.8606"
       id="use9"
       style="fill:#ffffff" />
    <use
       height="100%"
       transform="matrix(0.35277778,0,0,0.35277778,-270.79152,20.260918)"
       width="100%"
       x="975.84387"
       xlink:href="#a"
       y="293.8606"
       id="use11"
       style="fill:#ffffff" />
    <use
       height="100%"
       transform="matrix(0.35277779,0,0,0.35277779,-80.715364,-256.41229)"
       width="100%"
       x="436.77472"
       xlink:href="#b"
       y="136.6481"
       id="use13"
       style="fill:#3a6bbd" />
    <use
       height="100%"
       transform="matrix(0.35277779,0,0,0.35277779,-80.715364,-256.41229)"
       width="100%"
       x="436.7767"
       xlink:href="#b"
       y="136.6481"
       id="use15"
       style="fill:#3a6bbd" />
    <use
       height="100%"
       transform="matrix(0.35277779,0,0,0.35277779,-80.715364,-256.41229)"
       width="100%"
       x="335.73801"
       xlink:href="#c"
       y="164.1498"
       id="use17"
       style="fill:#3a6bbd" />
    <use
       height="100%"
       transform="matrix(0.35277779,0,0,0.35277779,-80.715364,-256.41229)"
       width="100%"
       x="91.495697"
       xlink:href="#d"
       y="298.95291"
       id="use19"
       style="fill:#3a6bbd" />
    <use
       height="100%"
       transform="matrix(0.35277779,0,0,0.35277779,-80.715364,-256.41229)"
       width="100%"
       x="296.19879"
       xlink:href="#d"
       y="298.95291"
       id="use21"
       style="fill:#3a6bbd" />
    <use
       height="100%"
       transform="matrix(0.35277779,0,0,0.35277779,-80.715364,-256.41229)"
       width="100%"
       x="299.19879"
       xlink:href="#d"
       y="298.95291"
       id="use23"
       style="fill:#3a6bbd" />
    <use
       height="100%"
       transform="matrix(0.35277779,0,0,0.35277779,-80.715364,-256.41229)"
       width="100%"
       x="582.58667"
       xlink:href="#e"
       y="689.69342"
       id="use25"
       style="fill:#4582cc" />
    <use
       height="100%"
       transform="matrix(0.35277779,0,0,0.35277779,-80.715364,-256.41229)"
       width="100%"
       x="212.6449"
       xlink:href="#f"
       y="508.1499"
       id="use27"
       style="fill:#f03a1c" />
    <use
       height="100%"
       transform="matrix(0.35277779,0,0,0.35277779,-80.715364,-256.41229)"
       width="100%"
       x="213.8943"
       xlink:href="#g"
       y="508.1499"
       id="use29"
       style="fill:#f03a1c" />
    <use
       height="100%"
       transform="matrix(0.35277779,0,0,0.35277779,-80.715364,-256.41229)"
       width="100%"
       x="592.40631"
       xlink:href="#e"
       y="671.53528"
       id="use31"
       style="fill:#f03a1c" />
    <use
       height="100%"
       transform="matrix(0.35277779,0,0,0.35277779,-80.715364,-256.41229)"
       width="100%"
       x="593.90631"
       xlink:href="#e"
       y="671.53528"
       id="use33"
       style="fill:#f03a1c" />
    <path
       d="m -42.174943,-216.6057 0.0014,2.14974 c 0,4.78455 3.870911,8.65408 8.615497,8.65408 4.741827,0 8.612738,-3.86953 8.612738,-8.6155 0,-4.7432 -3.870911,-8.61273 -8.612738,-8.61273 -0.260452,0 -0.607716,0.0138 -0.86541,0.01 -0.03305,2.12218 0.02893,4.27054 0,6.41753 l 1.557183,0.004 c 0.766191,0.27423 1.394576,1.08176 1.394576,2.02985 0,1.1672 -0.950846,2.1208 -2.119422,2.1208 -0.912262,0 -1.692233,-0.58291 -1.978865,-1.46623 l -0.114377,-2.69269 z m 0,0"
       id="path35"
       inkscape:connector-curvature="0"
       style="fill:#0059ab;fill-rule:evenodd" />
    <path
       d="m -35.647174,-216.60846 -0.0028,-8.41568 c 0,-4.78592 -3.87091,-8.65408 -8.614117,-8.65408 -4.744586,0 -8.612738,3.86816 -8.612738,8.61412 0,4.74321 3.868152,8.61274 8.612738,8.61274 0.25907,0 0.607716,-0.0124 0.864031,-0.008 0.03583,-2.12356 -0.02755,-4.27192 0,-6.42028 l -1.555807,-0.003 c -0.766187,-0.27285 -1.395952,-1.08038 -1.395952,-2.02847 0,-1.16858 0.952225,-2.12218 2.120801,-2.12218 0.912262,0 1.692229,0.58291 1.977485,1.46761 l 0.115754,8.95725 z m 0,0"
       id="path37"
       inkscape:connector-curvature="0"
       style="fill:#eb1923;fill-rule:evenodd" />
    <path
       d="m -40.073431,-233.67822 h 4.45795 v 4.03077 h -0.0689 c -0.938442,-1.81488 -2.497003,-3.2508 -4.389049,-4.03077"
       id="path39"
       inkscape:connector-curvature="0"
       style="fill:#0059ab;fill-rule:evenodd" />
  </g>
</svg>
