<svg height="200" viewBox="0 0 70.120137 28.140924" width="500" xmlns="http://www.w3.org/2000/svg" xmlns:xlink="http://www.w3.org/1999/xlink"><symbol id="a" overflow="visible"/><symbol id="b" overflow="visible"/><symbol id="c" overflow="visible"/><symbol id="d" overflow="visible"/><symbol id="e" overflow="visible"/><symbol id="f" overflow="visible"/><symbol id="g" overflow="visible"/><g transform="translate(53.009121 233.81051)"><use fill="#fff" height="100%" transform="matrix(.35277778 0 0 .35277778 -270.87914 20.214249)" width="100%" x="964.08441" xlink:href="#a" y="293.8606"/><use fill="#fff" height="100%" transform="matrix(.35277778 0 0 .35277778 -270.87914 20.214249)" width="100%" x="975.84387" xlink:href="#a" y="293.8606"/><use fill="#3a6bbd" height="100%" transform="matrix(.35277779 0 0 .35277779 -80.802986 -256.45896)" width="100%" x="436.77472" xlink:href="#b" y="136.6481"/><use fill="#3a6bbd" height="100%" transform="matrix(.35277779 0 0 .35277779 -80.802986 -256.45896)" width="100%" x="436.7767" xlink:href="#b" y="136.6481"/><use fill="#3a6bbd" height="100%" transform="matrix(.35277779 0 0 .35277779 -80.802986 -256.45896)" width="100%" x="335.73801" xlink:href="#c" y="164.1498"/><use fill="#3a6bbd" height="100%" transform="matrix(.35277779 0 0 .35277779 -80.802986 -256.45896)" width="100%" x="91.495697" xlink:href="#d" y="298.95291"/><use fill="#3a6bbd" height="100%" transform="matrix(.35277779 0 0 .35277779 -80.802986 -256.45896)" width="100%" x="296.19879" xlink:href="#d" y="298.95291"/><use fill="#3a6bbd" height="100%" transform="matrix(.35277779 0 0 .35277779 -80.802986 -256.45896)" width="100%" x="299.19879" xlink:href="#d" y="298.95291"/><use fill="#4582cc" height="100%" transform="matrix(.35277779 0 0 .35277779 -80.802986 -256.45896)" width="100%" x="582.58667" xlink:href="#e" y="689.69342"/><use fill="#f03a1c" height="100%" transform="matrix(.35277779 0 0 .35277779 -80.802986 -256.45896)" width="100%" x="212.6449" xlink:href="#f" y="508.1499"/><use fill="#f03a1c" height="100%" transform="matrix(.35277779 0 0 .35277779 -80.802986 -256.45896)" width="100%" x="213.8943" xlink:href="#g" y="508.1499"/><use fill="#f03a1c" height="100%" transform="matrix(.35277779 0 0 .35277779 -80.802986 -256.45896)" width="100%" x="592.40631" xlink:href="#e" y="671.53528"/><use fill="#f03a1c" height="100%" transform="matrix(.35277779 0 0 .35277779 -80.802986 -256.45896)" width="100%" x="593.90631" xlink:href="#e" y="671.53528"/><path d="m-42.174943-216.6057.0014 2.14974c0 4.78455 3.870911 8.65408 8.615497 8.65408 4.741827 0 8.612738-3.86953 8.612738-8.6155 0-4.7432-3.870911-8.61273-8.612738-8.61273-.260452 0-.607716.0138-.86541.01-.03305 2.12218.02893 4.27054 0 6.41753l1.557183.004c.766191.27423 1.394576 1.08176 1.394576 2.02985 0 1.1672-.950846 2.1208-2.119422 2.1208-.912262 0-1.692233-.58291-1.978865-1.46623l-.114377-2.69269zm0 0" fill="#0059ab" fill-rule="evenodd"/><path d="m-35.647174-216.60846-.0028-8.41568c0-4.78592-3.87091-8.65408-8.614117-8.65408-4.744586 0-8.612738 3.86816-8.612738 8.61412 0 4.74321 3.868152 8.61274 8.612738 8.61274.25907 0 .607716-.0124.864031-.008.03583-2.12356-.02755-4.27192 0-6.42028l-1.555807-.003c-.766187-.27285-1.395952-1.08038-1.395952-2.02847 0-1.16858.952225-2.12218 2.120801-2.12218.912262 0 1.692229.58291 1.977485 1.46761l.115754 8.95725zm0 0" fill="#eb1923" fill-rule="evenodd"/><path d="m-40.073431-233.67822h4.45795v4.03077h-.0689c-.938442-1.81488-2.497003-3.2508-4.389049-4.03077" fill="#0059ab" fill-rule="evenodd"/><path d="m9.8763181-223.07146c.056501.0262.1240229.0413.2039479.0413.07993 0 .161234-.0152.241159-.0413.08131-.0289.163985-.0703.246669-.12815.08544-.0593.15434-.11989.209462-.18604.0565-.0648.101974-.1378.136426-.21635.03443-.0799.05236-.15434.05512-.22049.0014-.0689-.01655-.12953-.05099-.1819-.07166-.10611-.186034-.15847-.345884-.15847-.07993 0-.159855.0124-.238404.0386-.07992.0276-.158471.0675-.234266.11989-.07579.0524-.1419362.113-.1984371.1819-.055122.0661-.101974.14056-.1364263.22049-.033055.0786-.049608.15158-.052363.21635-.00282.0661.011007.12678.038583.18604.027552.0579.068901.0992.125402.12815" fill="#0063b3"/><path d="m-16.033555-219.11649c-.04961-.0841-.114378-.15847-.198438-.22186-.08268-.0634-.181903-.11575-.29628-.15847.117133-.0372.228755-.0854.334863-.14194.103354-.0538.203952-.11851.296281-.18604.253559-.19017.443727-.43408.573264-.73036.0937-.21773.132291-.40514.110243-.56362-.01929-.16123-.09509-.29352-.223245-.39963-.104729-.0896-.242535-.15709-.416165-.19843-.169499-.0441-.37345-.0662-.607716-.0662-.282497 0-.54157.0317-.782726.0978-.239779.0634-.461641.16261-.662837.29352-.183279.11714-.341754.25081-.471287.40515-.132292.15158-.237024.3197-.31695.50574h1.010102c.03996-.0593.07993-.11162.115753-.1571.03447-.0441.06753-.0813.09509-.10749.09646-.0896.198438-.15709.301787-.19981.106112-.0441.216356-.0648.333488-.0648.09095 0 .169499.0124.238401.04.0689.0234.126777.0606.175009.10749.0441.0482.06615.10611.07028.17225.0028.0662-.01379.14057-.04823.21911-.05099.11714-.117133.21636-.202572.30179-.08268.0854-.1819.15434-.294898.20671-.08544.0372-.177768.0648-.278366.0868-.101974.0179-.213597.0289-.334864.0289-.112998 0-.205327-.007-.276983-.0234-.07304-.0124-.124023-.0345-.154341-.0606l-.423058.9729c.04272-.0372.108864-.0634.199817-.0813.09095-.0152.202568-.0248.33486-.0248.139185 0 .261828.0165.369316.0482.106109.0317.198438.0799.271473.14332.07579.0579.117133.1378.124023.24253.0069.10473-.02067.22738-.08268.37069-.04823.11162-.112998.21084-.197061.30042-.0813.091-.183279.16949-.303167.23977-.117133.0634-.2384.11025-.359668.14056-.121267.0331-.249424.0482-.381716.0482-.191548 0-.347267-.0207-.467155-.0648-.119892-.0427-.201193-.10887-.248049-.19844-.03306-.0593-.04134-.1378-.0248-.24116.01654-.0992.05788-.22462.121267-.37344h-1.105185c.0014.0207-.0069.10748-.0248.25631-.01792.14745-.04823.36242-.08957.64354.04961.26459.197059.46165.445107.59394.24529.13229.592558.19981 1.03904.19981.292146 0 .571885-.0317.837847-.0937.267339-.0648.519522-.15572.757922-.27699.254935-.13229.472666-.29076.65181-.47404.180524-.18604.321084-.39412.421682-.62563.08268-.19155.128158-.3638.136427-.51677.0069-.15571-.02342-.29352-.09233-.41479" fill="#0063b3"/><path d="m-10.098344-220.80872h3.4450934l.3720712-.85714h-8.0711716l-.372071.85714h.647679l-.551215 1.26918h-.945335l-.350019.80339h.946711l-.978408 2.25447h1.008725l1.881022-4.32704h1.350476l-1.881022 4.32704h.968763l1.879642-4.32704zm0 0" fill="#0063b3"/><path d="m-.88064903-221.66586h-2.05189667l-.3720712.85714h.3307292l-.9756529 2.24345c-.1226431.062-.2328862.11851-.3293498.16674-.095084.0469-.179144.0854-.2508038.11851-.4340825.19017-.7841015.28388-1.0500642.28388-.1226467 0-.2287552-.01-.3224601-.0289-.090953-.0221-.1694991-.0496-.2328898-.0868-.075791-.0469-.1185121-.11162-.1350468-.18603-.015169-.0785.00141-.16812.044097-.26734.035828-.0813.085439-.15434.1529609-.22186.06477-.0648.1460712-.12265.2411589-.17088.08957-.0469.1984375-.0841.3265946-.10887.1267778-.0276.2700937-.04.4299479-.04l.078546.003.075794.008.067522.01.045477.001.3445086-.79375-.052366.01h-.1763889c-.143316 0-.2700937-.007-.3817161-.0234-.1116189-.0179-.2094618-.0441-.2948976-.0813-.2342691-.0951-.3004149-.26458-.1943064-.50711.038587-.0909.085439-.1695.1419401-.23841.055121-.0689.1171328-.12677.1860338-.17501.068901-.0469.1405608-.0841.2149758-.10886.073036-.0276.1488263-.0386.2218619-.0386.059256 0 .1102431.007.1543403.0234.045477.0152.07855.04.1019775.0717l.049608.0854-.00688.0841c-.015169.0358-.042718.0717-.08406.10473-.041342.0344-.096464.0689-.1667439.10611-.019297.011-.046852.0221-.081305.0386-.03168.0138-.07028.0303-.1157535.0469l.6159818.29627c.059256-.0386.110243-.0689.1557196-.0992.042718-.0289.082681-.0551.1143776-.0813.1970582-.15847.3293499-.31695.3982509-.47542.048232-.11162.073036-.21498.073036-.31282-.00141-.0965-.0248-.19017-.071656-.27974-.1212673-.23289-.3996302-.35002-.8364678-.35002-.5098768 0-.9728976.15985-1.3876867.4768-.1515851.11576-.2797422.2384-.3886059.36656-.1061085.12678-.1929271.26321-.2549384.40514-.066146.15297-.1033533.29628-.1116189.42582l.00141.04h-1.9637022c-.1791476.0207-.3376189.0455-.4754245.073-.1391814.0276-.2563142.0592-.3527778.0965-.2976562.11024-.5525946.26458-.7648115.46026-.210838.19568-.377582.43409-.500229.71383-.09233.21221-.141936.39963-.14745.56499-.0083.16399.02893.30731.108867.42857.07993.12265.187413.21222.323839.27285.136427.0579.301791.0882.4988496.0882.2273759 0 .4409723-.0248.6394098-.073.1998168-.0496.3858507-.12264.5622395-.22324.1736337-.0951.3265947-.21773.4547518-.36518.1295364-.14883.2384001-.32246.3252187-.52365.023424-.0538.041339-.10611.050987-.1571.013794-.0524.019297-.10335.019297-.15021l-.00282-.051-.011007-.0648h-1.0417951l.022049.0303.00688.022c.017921.0469.020673.1006.013794.15572-.00688.0565-.023424.11438-.048232.17226-.026176.0593-.060632.11024-.1005946.15985-.041342.0455-.088195.0882-.1419402.1254-.050987.0331-.1019739.0579-.1529609.073-.050987.0152-.1061085.0234-.1639852.0234-.07028 0-.1267813-.011-.1722579-.0317-.045473-.0207-.081301-.0482-.1074843-.0854-.026176-.0372-.037207-.0868-.030304-.1502.0055-.0606.027552-.13505.063391-.22049.039963-.0896.086815-.16812.1419366-.23564.055122-.0689.115757-.12403.1819029-.16675.066146-.0413.1391814-.073.2149721-.0937.074415-.0221.152961-.0317.2342657-.0317l2.2503377.01.2011927-.46716c.033055.0386.07166.0744.1143776.10474.073036.051.16123.0937.263204.12953-.1281572.0372-.24529.0799-.3541537.12954-.1088672.051-.212217.10886-.3114357.17776-.1267813.0841-.235645.17915-.3238394.28526-.090953.10611-.1612301.22186-.217731.35002-.089574.20533-.1212673.39136-.095084.55397.023424.16399.1088636.3073.2521796.42857.1240226.10749.2797422.18604.4644002.2384.1860339.0537.4023854.0799.6531892.0799.1791441 0 .3679367-.0165.563619-.0496.073036-.0124.1474505-.0276.2232413-.0441l-2.8125773 1.10932.6587031.39136 2.8180877-1.24574-.2480451.56913h1.0101016l1.8796423-4.32704h1.4152457l-1.8796423 4.32704h.9660043l1.88100054-4.32705h.75378466l.373447-.85714zm0 0" fill="#0063b3"/><path d="m5.8235081-218.02784c-.030304.006-.06477.011-.1019739.011-.038587.006-.085439.011-.1405608.0138-.055122.006-.1185121.007-.1874132.007-.1005981 0-.1874132-.0138-.2618281-.04-.073036-.0276-.1309123-.0703-.1736337-.12816-.062011-.0689-.093705-.15021-.095084-.24529-.00282-.0951.023424-.20533.075794-.3266.053742-.12127.1185086-.226.1956788-.3197.079929-.0923.1736337-.17226.2824974-.24116.035832-.0207.07717-.0413.1254019-.062.046856-.0221.1005981-.0427.1626094-.0648l.1901684 1.37528zm10.7459429-2.78088.372068-.85714h-7.5502704c.074415-.16949.088194-.51814.041342-1.04731-.020673-.18465-.049611-.35691-.086819-.514-.039963-.15572-.088194-.29628-.1474505-.41755-.037204-.0744-.078546-.14745-.1281571-.22049-.053742-.0703-.1143776-.13918-.1874132-.20394-.08406-.073-.1694991-.14745-.253559-.22049l-1.2044045.44511c.1529609.062.2866319.12126.3982543.18052.1129983.0565.2039479.10886.2742283.15709.068901.0469.1364262.10611.2039514.17226.063387.0675.1253984.14469.1846545.23013.073036.11025.143316.2384.208086.3831.062011.14607.1185086.30868.1653646.49471.038583.14332.067522.26045.08406.35554.019297.0937.0248.1626.023424.20532h-.6173604c-.016545-.14331-.053742-.28525-.1088637-.42305-.055122-.13919-.1281571-.28112-.2135964-.42306-.08406-.13781-.1805234-.26183-.2921423-.37345-.1088672-.113-.2287552-.21497-.3610469-.30455-.1309123-.0896-.2673385-.16674-.4106545-.23151-.143316-.0648-.2921459-.11713-.4506207-.15985-.048232-.01-.2149722-.0413-.5002283-.0951l-.8268229.82544c.1378055 0 .2659627.001.3775851.008.1129982.007.212217.0179.2948975.0345.1667439.0317.3886094.0841.6655929.15848.2756076.0744.5457049.21221.8089089.41203.2632075.20119.4478619.39136.54846.57189h-3.0192803l-.3720712.85714h3.4988394l-1.0762474 2.47495-.5250356.17915-.2067031-1.40698.2259965-.0317c.1378056 0 .294901.0317.4699106.0951.022049.011.050987.0221.086819.0344.034431.0138.071656.0303.110243.051l.3775816-.86816c-.053742-.0152-.1005981-.0317-.1460711-.0455-.045477-.0124-.085439-.0234-.1198916-.0276-.1074843-.0221-.2191067-.0372-.3334843-.0482-.1102431-.01-.2301311-.0152-.3513985-.0152-.304546 0-.5911779.04-.85852.11989-.2687178.0813-.5222769.20257-.7565425.36656-.2053272.14193-.3844713.30316-.5360564.48231-.1502057.18052-.2756077.38034-.3693125.59669-.1143776.26321-.175013.50023-.1805234.70693-.0055.20533.041339.3831.1433159.53055.1998134.29628.6146024.4451 1.241612.4451.1543403 0 .314191-.0152.4781797-.0413.1626059-.0262.3279705-.0648.4947144-.11713.055121-.0165.1143776-.0358.1777683-.0593.063387-.0234.1309123-.0537.2053272-.0896l-.4313273.99357h1.0101016l1.8796459-4.32566h3.6366414l-1.015612 2.33715c-.09509.0579-.186038.11024-.272853.15158-.08957.0441-.175013.0813-.256314.113-.08406.0317-.161234.0565-.23289.073-.07166.0152-.139181.0221-.202572.0221-.100598 0-.191548-.0152-.271473-.0469-.08131-.0331-.146071-.0799-.199817-.14331-.05099-.0634-.07717-.13781-.07855-.22187-.0014-.0854.02067-.17914.06615-.28663.106109-.24253.270094-.42168.489204-.53881.108864-.0524.221862-.0923.337619-.11989.117133-.0262.237021-.0386.359668-.0386.05788 0 .119888.004.177764.0124.05926.008.118512.0248.176389.051l.06339.0179.06339.0358.111623-.92191-.378961-.0317c-.23151-.0193-.463021.006-.693155.073-.231511.0675-.456132.16399-.675238.28664-.2384005.13366-.4423519.29214-.6118475.47542-.1708785.18466-.3073047.39274-.4078993.62563-.1061121.24253-.1598542.46026-.1612336.6587 0 .19706.049611.36794.1502093.51539.2011927.29627.5415668.44372 1.0197461.44372.05788 0 .124023-.004.201193-.0152.07579-.011.16123-.0276.261828-.0469.09922-.0221.191548-.0427.276987-.0648.08544-.0207.16812-.0413.246669-.0634l-.423058.9729h1.008723l1.118968-2.57004c.03721-.0262.0689-.051.09784-.0717l.07304-.0551c.125402-.0786.241159-.13918.350023-.1819.108864-.04.208082-.062.299035-.062.141937 0 .260449.0152.352778.0469.09095.0317.157096.0758.197058.13367.07579.11575.06615.28525-.03168.50712-.05512.12678-.121267.23978-.202572.34037-.07993.0992-.173634.18328-.276987.25218-.09646.0648-.197058.113-.304546.14745-.106109.0372-.213596.0538-.325219.0538-.04272 0-.07993 0-.110243-.001-.03305 0-.05788-.004-.07579-.01l-.376205.86816c.106112.0207.21911.0317.336243.0317.478179 0 .950845-.15847 1.41938-.4768.230131-.15296.429948-.33348.600823-.53743.169499-.20671.31006-.43546.420303-.68902.09922-.22738.146071-.43408.144692-.62287-.0041-.18604-.05374-.35554-.152961-.5085-.09784-.15434-.231511-.26872-.402386-.34313-.170878-.0758-.377585-.113-.621495-.113-.113002 0-.224621.011-.338999.0303-.114377.0207-.227376.0496-.338998.0868-.03721.011-.07717.0262-.122643.0455-.04686.0207-.09784.0441-.151585.0703l.303166-.69729zm0 0" fill="#0063b3"/><path d="m15.989294-213.05587h.989432l-1.375283 1.67845.638034 2.19246h-.886079l-.558105-2.1525-.494718 2.1525h-.858516l1.273309-5.5659h.862651l-.728984 3.16949zm-5.275129 0h.810285l-.07855.53881.254935-.26734c.263207-.25218.54295-.38034.837847-.38172.228755-.003.414793.0772.55535.23703.157099.17225.234269.40376.234269.68902 0 .16949-.02205.35691-.0689.55948l-.571885 2.49563h-.868165l.547081-2.37712c.01792-.0813.03447-.17363.04548-.27699l.0055-.12126c0-.28801-.108864-.42995-.326595-.42168-.106108 0-.201193.0289-.286632.0896-.06477.0469-.129533.10749-.190168.1819-.07166.0868-.132292.17777-.1819.27147l-.09509.20671c-.07579.18604-.139182.39412-.187413.62287l-.409276 1.82453h-.8778065zm-2.0022888 1.9513-.055122.22048c-.1956823.74415-.47129 1.11346-.8226884 1.1107-.096463 0-.1777682-.0496-.2425347-.14883-.056501-.0882-.085439-.19843-.085439-.33486-.00413-.26458.096463-.48093.3004114-.64354l.1005981-.0661c.1529609-.0758.332105-.11989.5346771-.12953zm.2011927-.85576-.049608.22875-.530546.007c-.3748264.0289-.6876415.10335-.9384454.22049-.2328862.11162-.4134097.29076-.5429461.53605-.1295365.24805-.194303.52504-.194303.83372-.00413.33624.071656.59669.2287552.78134.1543403.18466.3610434.27837.6201164.27837.2604487 0 .4864488-.0896.6793723-.26734.067525-.0579.1502058-.14194.2439141-.24943l-.012418.18604-.00282.22049h.7896155l.038583-.34314c.031715-.26596.068904-.48782.1116224-.66559l.3389983-1.44694.041342-.22048c.013794-.0992.022049-.20258.023425-.30869-.00141-.65043-.3775816-.98254-1.1286138-.99632-.2824974 0-.5401909.0565-.7744566.1695-.1433159.0689-.2728524.17915-.38723.33073-.093705.12127-.16123.26045-.2025685.42306l-.049611.19981h.8502509l.044097-.16949c.075791-.20671.2232413-.31558.4437274-.3266.2521797.008.3803368.12816.3830956.35829-.00282.0675-.011007.14194-.023425.22049m-4.5406345-.57189h.4395928c.115757.003.2397795-.0152.373447-.051.1474506-.0344.276987-.10473.3844749-.20946.1488264-.12816.2246207-.31833.2287552-.57188-.00141-.26183-.1088672-.42031-.3197048-.47681-.1143776-.0303-.2315104-.0455-.351402-.0455h-.4451081zm-.5732639 2.4915h.5567256c.512632.005.8488716-.20533 1.011481-.63528.044097-.11025.066146-.22738.066146-.3514.0055-.43546-.235645-.65319-.7276042-.64906h-.5333027zm.1777647-4.70187h1.1837352c.1874132.003.3762058.0124.5718881.0303.660079.0717.9880529.43822.9866736 1.09692-.0055.34451-.096464.66008-.2742283.94396-.1777682.28112-.3941198.45475-.6476788.5209-.093708.0276-.2108412.0482-.3527778.0634.133671.0358.2494245.0717.3527778.11024.3693124.15296.5539704.49609.5567256 1.0294.00141.25355-.045473.49747-.1433159.73725-.147447.36655-.3624228.63114-.6435408.7965-.2728524.15985-.5649983.23702-.876434.22876h-1.9912661zm-4.54890369 3.63802-.0537422.22048c-.19706167.74415-.47266931 1.11346-.82406771 1.1107-.096464 0-.1763889-.0496-.2425347-.14883-.057877-.0882-.085439-.19843-.085439-.33486-.00282-.26458.096464-.48093.3017909-.64354l.1005981-.0661c.151585-.0758.3307291-.11989.53192179-.12953zm.2011927-.85576-.0496076.22875-.53054603.007c-.37482638.0289-.68764148.10335-.93844178.22049-.2328898.11162-.4134133.29076-.5429497.53605-.1309123.24805-.194303.52504-.194303.83372-.00413.33624.07166.59669.2273759.78134.1557196.18466.3624262.27837.6214956.27837.259073 0 .4864489-.0896.6793724-.26734.067525-.0579.14882994-.14194.24391413-.24943l-.0124178.18604-.002822.22049h.78961545l.03996267-.34314c.03171472-.26596.06890456-.48782.11024306-.66559l.33899828-1.44694.041342-.22049c.0137936-.0992.0220486-.20257.0248003-.30868-.002822-.65043-.37758158-.98254-1.12998956-.99632-.28249739 0-.54019103.0565-.77308073.1695-.1446954.0689-.2728525.17915-.3886059.33073-.093708.12127-.1598542.26045-.2025721.42306l-.048232.19981h.8488716l.045477-.1695c.074411-.2067.22324127-.31557.44234802-.32659.25355903.008.38171614.12816.38309551.35829-.001411.0675-.0110067.14194-.0234244.22049m-3.71089763-1.09554h.784105l-.088194.61874.1832786-.30455c.1074879-.1695.2342656-.28939.3748264-.35691.09095-.0455.2480487-.0675.47129-.0675l-.276987 1.017-.1240226-.004c-.1364262 0-.2604488.0372-.3762057.11024-.1750096.11025-.3017908.29766-.383092.56087-.059256.19706-.1212674.43546-.184658.72071l-.351402 1.57648h-.880565zm-3.1129888-1.69499-1.2925989 5.5659h.8736753l.4037683-1.77354c.050987-.22324.1143741-.43684.1915442-.63941l.073039-.17225c.1832787-.4079.4147891-.61185.6945313-.61185.1681198-.006.2714731.0951.3114357.30454l.011007.11714c0 .12126-.012418.23289-.037208.33486l-.5649947 2.44051h.8722959l.5636366-2.45567c.044097-.19844.067525-.39687.073036-.59944 0-.3018-.079925-.53468-.2397795-.69729-.1474505-.15021-.3389948-.22738-.5691294-.22876-.2687178.001-.5208975.11438-.760677.33487l-.2604488.25907.5277873-2.17868zm-3.7510188 4.34495c0 .0909.01379.19155.03859.3018.04547.22048.16812.33072.367936.33072.279739-.003.523653-.24942.73587-.74414.1819028-.42857.2728524-.83095.2742318-1.20854-.00141-.2067-.034466-.37207-.099219-.49747-.085439-.16261-.1984375-.24529-.3376189-.24529-.2659619.003-.5084969.27561-.7248489.8158-.172254.42857-.256314.84474-.254938 1.24712m2.1276905-4.34495h.85852l-1.2595295 5.5659h-.782725l.081304-.51263-.088194.11437c-.137802.17915-.285253.31282-.438217.40239-.121267.0744-.254935.10887-.398251.10611-.290766-.003-.527791-.13505-.711069-.39825-.16123-.23151-.241156-.5526-.239776-.96601 0-.12816.0083-.25907.0248-.39412.02067-.18052.05788-.37896.115753-.59118.0565-.22875.129537-.44235.219111-.64216.136426-.31557.316946-.57327.542946-.77722.237021-.21221.493338-.32108.767567-.32246.168119 0 .3183247.0455.4519957.13781.1033533.073.1901684.16674.2604488.27974l.096464.17639zm-5.9159175 1.69499h.810289l-.07855.53881.254938-.26734c.263204-.25218.542947-.38034.837848-.38172.228751-.003.413409.0772.555346.23703.15572.17225.234269.40376.234269.68902 0 .16949-.02342.35691-.07028.55948l-.570509 2.49563h-.868165l.545705-2.37712c.0193-.0813.03443-.17363.04547-.27699l.0069-.12126c0-.28801-.108867-.42995-.327974-.42168-.104732 0-.201192.0289-.285256.0896-.06615.0469-.130912.10749-.191544.1819-.07166.0868-.130916.17777-.181903.27147l-.0937.20671c-.07717.18604-.139185.39412-.188792.62287l-.409279 1.82453h-.87781zm-3.564985 1.81074v-.003h1.327051v.003l-.06201-2.6858zm.866786-3.49746h1.139638l.305925 5.55763h-.913638l-.04548-1.20579h-1.779047l-.573264 1.20579h-1.004591zm0 0" fill="#0063b3"/><path d="m-12.274267-229.40767c-.118512.46026-.248049.82406-.389985 1.09416-.141941.27147-.315571.4644-.518143.58015-.06339.0358-.129536.0661-.201192.0909-.159855.0551-.343133.0827-.548461.0786-.206706.003-.369316-.0234-.493338-.0758-.124023-.051-.206707-.14607-.25218-.27423-.04548-.13229-.05237-.31557-.0248-.54984.02618-.23564.08957-.53054.184658-.89297.08406-.3321.165365-.6146.243914-.85025.07855-.23151.170875-.41892.279742-.56224.108864-.14469.249425-.24942.424434-.31419.0565-.0207.118512-.0386.186038-.0524.140557-.0303.304546-.0441.491959-.0441.241155-.003.425813.0234.558105.0772.130912.0524.216351.14469.254935.27423.03859.12953.03859.31143.0041.54294-.03721.23014-.104729.52504-.199813.87782m.439593 1.26917c.128157-.18466.235645-.39136.319705-.61598.08544-.226.16123-.46303.22462-.71521.106109-.40514.151585-.74138.136426-1.01148-.01654-.27009-.08544-.48369-.208085-.64354-.124023-.1571-.299033-.27147-.519519-.33762-.220486-.0689-.485069-.10335-.792374-.1006-.260449.001-.497469.0165-.709686.0482-.179148.0248-.341754.062-.489204.10887-.321085.10197-.584289.24805-.786861.43546-.203951.18604-.365181.4079-.485069.66146-.122647.25631-.221866.53468-.299036.83922-.04134.15572-.07579.30317-.104729.44098-.0441.22048-.07166.41892-.08268.59393-.01379.24667.01242.452.08268.61736l.03858.0772c.09784.17639.264584.3073.501608.38723.235645.0841.552591.12127.950846.12127.246669 0 .471289-.0152.673862-.0441.122643-.0179.23702-.04.344508-.0689.282498-.0717.523653-.17639.717956-.31282.194306-.13367.358292-.29627.486449-.48093" fill="#0063b3" fill-rule="evenodd"/><path d="m-16.010131-230.36266c-.07028.26734-.132292.47543-.194303.62701-.06063.1447-.122643.24805-.191548.31144l-.0083.008c-.0689.0606-.152964.0909-.252183.0896-.07717.001-.133667-.0221-.169499-.0661-.03443-.0469-.04685-.12953-.03721-.24804.0083-.11714.04134-.28112.09646-.49058.06615-.25356.128157-.45476.188793-.60358.05788-.14194.117133-.2453.181899-.30868l.0083-.007c.06752-.062.144695-.0937.234266-.091.124026-.004.195682.0551.220486.17502.0248.11851-.0028.32108-.07717.60358m-3.241146.62287c.01517-.10473.04686-.24943.09646-.43133.04823-.18465.09922-.34588.157096-.48507.05788-.13918.121267-.24942.192927-.32797l.0069-.006c.07028-.0758.147451-.11162.235645-.113.08268-.003.141937.0165.179144.0579.03447.04.04961.11162.04134.21635-.0069.10473-.03583.25218-.08544.44097-.06201.23702-.126778.42306-.188793.56086-.06063.12816-.119888.22187-.181899.27974l-.0096.01c-.06477.0565-.132291.0854-.201196.0827-.100595.003-.170875-.0193-.206703-.0634-.03721-.0427-.04823-.11713-.03583-.22186m3.869532-.5085c.07304-.28112.100598-.50712.0813-.67524-.01101-.0937-.03858-.17225-.0813-.23702-.03858-.0579-.08819-.10335-.151582-.1378-.13505-.0772-.336243-.113-.600826-.11163-.08957 0-.177769.006-.261829.0193-.118508.0179-.23151.051-.337619.10059-.177764.0813-.334863.22187-.471289.42168-.139182.19982-.253559.47405-.345885.82545-.06615.24529-.07304.44786-.01517.60634.05788.15709.187413.29352.394116.40376-.0441.0248-.09508.0427-.146071.051-.05374.008-.108864.0124-.166741.0124h-1.624707l-.104733.39688h1.74184c.07855 0 .1695-.011.271474-.0303.101977-.0193.201196-.0469.30179-.0854.103354-.0372.190169-.0854.267339-.14056l-.128157.48645c-.05926.21084-.165365.3762-.32246.49885-.157096.12264-.343133.20808-.56224.25907-.219107.0496-.451996.0744-.700042.073-.166744 0-.316949-.008-.453375-.022-.07303-.008-.143306-.0179-.208072-.0303-.187414-.0331-.31695-.0882-.389986-.16537-.06477-.0827-.103353-.19843-.118512-.34726-.01242-.14883-.0055-.31971.02342-.51125.02618-.19431.07166-.3955.132291-.61185.02205.0193.06063.0331.114374.0413.05099.007.108868.01.168124.01.0937 0 .186034-.008.278363-.0276.08406-.0179.166744-.0441.248045-.0785.175013-.0717.327974-.1819.463021-.33624.13505-.15296.235645-.34864.30179-.59255.04134-.15021.07028-.29904.08682-.44511.01655-.1447.0069-.27699-.0303-.39274-.03583-.11851-.108863-.21222-.22462-.2825-.115754-.0675-.281118-.10335-.502984-.10611-.119888 0-.234265.011-.341753.0358-.129537.0317-.248049.0799-.359668.14745-.202572.12402-.378961.31971-.529166.59256-.152965.27147-.286632.63252-.403765 1.07762-.06064.23151-.107488.45338-.143316.66835-.03447.21498-.04686.41479-.03721.60083.0096.18327.04961.34313.121268.48093.0937.17501.267338.31282.526411.41755.224617.0896.500225.14056.825444.15434.04823.003.09646.003.14745.003.443728-.001.830958-.0441 1.157552-.1254.326595-.0799.598068-.18742.818554-.31971.103353-.0606.197058-.1254.278363-.19154.09371-.0758.172254-.15435.2384-.23565.124026-.15572.205331-.3073.242535-.45613.04548-.17501.05788-.32108.03997-.44235-.01517-.12265-.06339-.20671-.139185-.26045.08819-.0744.173634-.15296.250804-.23702.07717-.0827.14883-.18053.210841-.29352.06339-.113.117133-.25081.159851-.41479zm0 0" fill="#0063b3" fill-rule="evenodd"/><path d="m3.5883293-227.99519c.023424-.16674.07166-.39411.1502057-.68212.06477-.24667.1281571-.44924.1887926-.60634.060632-.15848.1226432-.27974.1874132-.36656l.059256-.073c.044097-.0469.09095-.0827.1391814-.1061.068901-.0317.1460711-.0496.230131-.0469.1240226-.003.1956823.0717.2204861.22324.022049.15159-.00826.39137-.095084.7221-.073036.27974-.143316.51125-.2067067.69039-.064766.18053-.1295329.32109-.1929235.42306-.031715.0482-.063391.0896-.095084.12402-.035832.0372-.07166.0661-.1088673.0868-.07028.0386-.1502057.0579-.2356449.0565-.1061085.004-.1791441-.0303-.2177274-.0992-.038587-.0648-.046856-.1819-.023424-.34589m.1694992.76482c.1446953-.001.2838767-.0179.4161684-.0496.2948975-.0703.5553498-.21498.779967-.43684.3252187-.32108.5677535-.78135.7248489-1.37942.088195-.32246.1474506-.62287.184658-.90399.037208-.27836.038583-.52503.00413-.73863-.033055-.21222-.1143776-.37896-.2397795-.50023-.1254019-.11989-.3086805-.18052-.5498359-.18328h-2.9462515l-.070277.003.00413.001h-.020673l.016545-.001c-.031715-.001-.093708-.003-.2204861-.003-.074415 0-.1419401 0-.1984375.003-.042721 0-.092329.003-.143316.007h-.0055l-.042718.003-.090953.34588c.041342-.007.07717-.0138.1074878-.0179.034466-.006.067525-.008.1061085-.008.056501-.003.1198916.011.1887926.0427.066146.0317.1240225.0978.170875.20257.045477.10198.066146.25907.060635.47267-.00825.21084-.057877.49609-.1502057.85438-.1102431.41893-.2149757.75792-.3155703 1.01699-.1005981.26183-.1970617.46027-.2935217.59945-.095088.13781-.1874132.23151-.27974223.28112-.0950842.0482-.19017191.0717-.28663194.0703-.11437761-.003-.19568231-.0386-.24529345-.10749-.050987-.0675-.0757908-.15709-.0771701-.26733 0-.11163.0179211-.22876.0509905-.35416.0289278-.10198.0620113-.20533.10197395-.30179.0399627-.0978.078546-.19017.11299825-.27285h-.94120053c.004128.0744.002822.13367-.002822.18052-.005503.0469-.0151694.0965-.0330553.15158-.0785495.29766-.17500952.53055-.29352169.70005-.11713281.16812-.25355903.25631-.40927876.25769-.086815.003-.1584748-.0207-.2135963-.0717-.052363-.0537-.081305-.14883-.081305-.2949-.00141-.14194.030304-.34726.1019775-.61736.030304-.12264.062011-.2384.092329-.34175.030304-.10749.068901-.2012.1171328-.28663.050987-.0827.11850855-.15434.20532716-.2136.10197395-.0675.20532725-.11989.31143575-.1571.1088637-.0372.21773092-.0716.32383942-.10197.10472914-.0289.20394789-.0675.30041145-.11162.15571964-.0772.28387675-.17363.38447486-.29215.10059459-.11713.17363017-.25769.21635156-.42443.0799253-.3073.0385833-.54019-.12678128-.7028-.16398522-.15985-.45750692-.23978-.8750547-.24254-.28525258.003-.53192186.051-.74138362.14194-.2094618.0937-.3803368.22049-.5112526.37621-.1309123.15434-.221862.32659-.2714731.51676-.019297.0744-.033055.13229-.039963.17226-.00688.0427-.00825.0882-.00141.13504h.96738367c.0192969-.0744.0316795-.13918.0385868-.1943.006879-.0551.0179211-.11438.0330553-.17639.0496076-.20119.11299825-.35691.19016839-.46853.0757908-.11162.17914408-.16812.31281511-.17088.11437761.004.18465447.0579.21083764.16123.02892778.10473.0192969.23702-.0234245.40101s-.0937084.28939-.14607469.37896c-.0537422.0896-.11437409.15434-.17500953.19155-.0647665.0386-.13229167.0648-.20257206.0785-.0716562.0138-.14607116.0262-.22462067.0413-.11850866.0165-.24253466.0468-.37069186.0909-.1267777.0427-.2508038.11024-.373447.20395-.1212673.0937-.235645.22737-.3376189.39412-.1047327.1695-.1915478.38585-.2645833.65319l-.015169.0634c-.067525.28801-.07855.51952-.033055.69453.00963.0331.019297.0661.033055.0978.056497.13642.1474505.23564.2700937.30179.1502058.0813.3348638.12127.5581051.11989.1612335 0 .318329-.022.47680382-.0661.15571611-.0427.30041145-.10473.42994792-.18328.1336675-.0813.24253472-.17639.33072917-.28801.0192969.10473.0633871.19844.13229167.28112.06476647.0854.15020572.15434.25493486.20533.10748786.0482.23013458.0744.36656081.0758.1061085 0 .22048611-.01.34726386-.0289.12678129-.022.25631429-.0565.38585069-.10335.1322917-.0441.2576936-.10611.3775816-.18052.115757-.0744.2191103-.16537.3086806-.27423.050987-.0661.1019774-.13643.1502057-.2136.096464-.1502.1874132-.3197.2700972-.50849.1281572-.28526.2439141-.62839.3486433-1.0294.064766-.23564.1033533-.46577.1171328-.69039.015169-.22325-.00826-.42306-.064767-.60359-.0248-.0785-.059256-.14882-.1019739-.21359h-.00825l.00413-.004.00413.004h1.9292534c.101974.003.1860339.0427.2466658.12402.062015.0799.1019775.19155.1198915.33211.015169.14332.00826.30455-.022049.4892-.06477-.0551-.1267813-.0951-.184658-.12402-.057877-.0262-.1185122-.0455-.1874132-.0537-.068901-.01-.1515851-.0138-.2480451-.0138-.062015.001-.1226467.006-.1805234.0138-.184658.0248-.3527778.0868-.5071181.18465-.2053273.12954-.3789609.31006-.5250321.53882-.1474505.23013-.259073.49333-.3376225.79512-.093705.36518-.1171328.66008-.066146.88333.046856.226.1598542.38723.3348637.4892.1763889.1006.4023889.15158.6848863.15021" fill="#0063b3" fill-rule="evenodd"/><path d="m14.075199-233.10909c.03996-.0634.0882-.10886.14194-.13229.05374-.0234.117133-.0358.190169-.0345h2.411567l.100595-.38309h-2.553504c-.278363 0-.511253.0358-.700042.10611-.184658.0703-.334864.17087-.443731.30316-.110243.1323-.190168.28939-.235641.47267-.04272.15985-.0441.30041-.0069.41755.03721.11713.113002.20808.224621.27285-.122643.0469-.221862.11713-.297656.21084-.07855.0937-.133668.20257-.165365.32521-.02205.0937-.0193.18191.0097.2577.02205.0593.06201.10611.108864.14745l-.0014.004c-.125398.0648-.235641.14056-.32797.23013-.192928.18466-.332109.43684-.413414.75379-.0441.17915-.04823.33073-.0096.45338.03858.12402.114378.21773.227376.28112.111623.0634.254939.0965.428569.0965.15572 0 .323839-.004.497473-.0138.17501-.008.341753-.0165.501604-.0248.161234-.008.301791-.0124.420303-.0124.0882-.001.163985.007.228755.0262.03721.011.07166.0248.101974.0413.07993.0441.130913.12402.150206.23013.0193.10886.0041.25769-.0441.44373-.05926.22737-.130913.41203-.208083.55259l-.0193.0344c-.08681.1447-.184658.25356-.290766.32384-.107488.0675-.224621.113-.350023.13367-.125398.0221-.261824.0303-.40652.0276-.128157.003-.252179-.008-.372071-.0317-.118508-.0248-.216351-.0758-.294897-.15296-.07855-.0772-.121268-.19568-.125402-.35416-.0083-.15709.03583-.37069.133667-.63665h-1.004637l-.0689.25494-.02342.0909c-.05926.23151-.05099.42994.02342.59255l.03447.0634c.107488.17363.283877.30455.533302.39136.248045.0854.555349.12816.919152.12816.48369.001.898479-.0413 1.242991-.13091l.0689-.0179c.312815-.0896.56775-.23151.766187-.42443.213597-.20946.366561-.4892.460266-.84474.09371-.35415.06477-.62563-.08957-.81442-.151581-.18741-.434079-.28388-.846113-.28525-.101977 0-.199816.001-.290766.004-.03721 0-.07304.001-.108867.001-.121268.006-.2384.01-.355533.0138-.118512.004-.242535.007-.374827.007-.15985-.003-.274228-.0331-.343129-.0909-.06752-.0593-.106112-.13781-.108867-.2384-.0014-.0992.01242-.20947.04685-.33625.05512-.20395.128161-.35553.221866-.45337.06477-.0661.141936-.11438.228755-.14745.06063-.0207.126778-.0372.194303-.0469l.08406-.0124.05788-.004h.615986c.09508.01.177764.0234.24391.0427.122647.0386.212221.0854.260449.14745.04961.0592.07442.1254.07579.19568 0 .0717-.01101.14469-.03168.21497l-.09508.35829h.981163c.07993-.23978.106108-.43959.08544-.60082-.0248-.16261-.08544-.29215-.183278-.38999-.09784-.10059-.223242-.17501-.373447-.226l-.09095-.0248v-.003l.02614-.0978h-.930193c.03305 0 .06477.001.09646.001-.100599 0-.206707.001-.312816.001l.08957-.003h.126778-.72209c-.07304-.001-.115757-.0303-.126782-.0813-.01101-.0482-.0055-.10887.01379-.17501.0248-.0951.06339-.16537.119888-.21222.05237-.0455.128157-.0675.225997-.0675h1.894804l.103354-.39688h-1.894793c-.06477 0-.118509-.011-.155716-.0386-.03996-.0248-.06201-.0717-.07028-.14194-.0055-.0689.0069-.16674.04134-.29215.03168-.12126.06615-.21497.107485-.28112" fill="#0063b3" fill-rule="evenodd"/><path d="m-4.5324494-229.38011c-.028928.15985-.07717.3638-.143316.6146-.081305.31419-.16123.55948-.2370243.74001-.041339.0992-.085436.18328-.1281571.24942-.034431.0538-.068901.0965-.1047291.12954-.07717.0744-.1626094.11024-.2508039.10886-.074415.001-.1267777-.0262-.1584748-.0882-.03168-.0593-.039963-.16261-.023424-.31419.015169-.15159.060632-.36243.1309123-.63252.093705-.3707.1818993-.66008.2563143-.86541.048232-.13505.099219-.24254.1502057-.32246.026176-.0427.052366-.0758.07855-.10336.07855-.0799.1750095-.11851.2838767-.11437.056497-.003.099219.0138.129533.0469.031715.0344.049611.0937.053746.18052.00413.0882-.00826.21084-.037208.3707m-2.9917214-.0234c-.1240225.4644-.2370208.83233-.3417534 1.10105-.1074879.27147-.2163516.46164-.3265947.57464-.1129982.113-.2342656.1695-.3706918.16399-.1019739-.001-.1694991-.0441-.2053272-.1254-.034466-.0827-.044097-.19155-.030304-.32522.011007-.13642.041342-.28387.08406-.44235.017921-.0689.031679-.12264.041342-.15847.00963-.0358.019297-.0662.028928-.091.0055-.0262.016545-.0565.030304-.0923.012383-.0358.031679-.0896.056497-.1571h-.89021c-.020673.0786-.034466.1378-.041342.18052-.00688.0427-.013794.0854-.020673.12816-.00688.0441-.020673.10611-.044097.19017-.023425.0909-.052363.18604-.08957.29077-.037208.10197-.079925.19843-.1309159.28938l-.015169.0248c-.048232.0799-.1033533.14607-.166744.19844-.066145.0579-.144695.0882-.23151.0896-.09922.003-.180523-.0234-.239779-.0758-.06063-.051-.09646-.14056-.111619-.26459-.01379-.1254-.0041-.29628.02893-.51125.03306-.21497.0937-.48507.177765-.80891.03172-.11989.07166-.25356.124026-.40238.04961-.14746.108864-.29491.177765-.44373.067525-.14883.1446949-.28664.2315099-.41204l.00967-.0152c.081301-.11713.1708749-.21221.2673385-.28663.082681-.0634.1818993-.11437.3031666-.15572.081305-.0262.166744-.0482.2576936-.0648.039963-.008.079925-.0138.1212674-.0193.1350468-.0193.2714731-.0276.4065234-.0276.2342657-.003.4327032.0165.591178.0579.1584748.0413.2783628.11851.355533.23426.079925.11438.1143776.2825.1088637.50023-.0055.21911-.055122.50436-.1460712.85576m4.1644323-1.2926c-.00141-.16536-.020673-.31143-.060635-.43821-.041339-.13091-.101974-.23978-.1846545-.32797-.1626094-.17777-.4189236-.26459-.7675704-.26734h-5.9972223l-.100594.38447h1.1437721v.001c-.1612336.0413-.3169497.0937-.4630208.15848l-.00688.003c-.1694956.0772-.3197043.16537-.4492373.25907-.187414.14194-.350023.31282-.486449.51125-.136426.19706-.254939.41755-.351399.65457-.09784.23978-.177768.48783-.246669.74965-.152964.58291-.163989 1.017-.0303 1.30638.133671.28801.412034.43271.837848.43271.202572.004.402389-.0262.600826-.0882.045473-.0138.08957-.0303.1322917-.0496.147447-.0675.2852526-.16675.4120303-.29766.035832.14332.1171363.25769.2411589.34175.053742.0358.1116189.0648.1750095.0868.085439.0276.1805235.0441.2852561.0441.4919592 0 .9150174-.16812 1.2677952-.50574s.6187369-.84199.797881-1.51309c.1267813-.48645.1694992-.88746.1267813-1.19889-.042718-.31006-.1722543-.54433-.3858507-.7028-.1129982-.0813-.2508038-.14332-.4106545-.18879v-.004h2.5355903c.1529609-.003.2700937.0331.3472639.10335.081305.073.1267812.19155.1391814.35829.012418.16537-.00413.39137-.050987.67524-.07028-.0193-.1350469-.0303-.1943029-.0345-.062011-.004-.125402-.004-.194303-.004-.1226467.001-.235645.0124-.3431328.0317-.1543403.0303-.2948976.0799-.4189236.15158-.212217.11989-.3858507.28939-.526408.51126-.1391849.22186-.249428.48369-.3265981.78686-.1446918.53881-.1612301.93431-.049608 1.18097.110243.24667.3596675.3707.7524079.36656.208086.001.3982544-.0165.5691294-.0551.042721-.01.08406-.0207.1240261-.0331.2039478-.0606.3830919-.17226.544322-.33211.1598542-.16123.3073047-.38998.4395964-.68488.1336675-.29628.2618281-.678.3844713-1.14378.055122-.2067.097843-.39825.1281571-.57739.041342-.24116.062011-.45889.060635-.65182" fill="#0063b3" fill-rule="evenodd"/><path d="m6.7219873-228.2074c-.119888-.0882-.2962769-.13367-.5277873-.13505-.2039514 0-.3899853.0317-.5622396.0951-.1708785.062-.3141945.15434-.4327031.27286-.1198915.12126-.2011962.26596-.2480487.43683-.038583.1447-.046852.2577-.028928.33487.016545.0785.053742.13642.1061085.17225.055122.0358.1171328.062.1887925.0772.07028.0165.1405608.0331.2108377.0551.096464.0234.1763889.0593.243914.11025.068901.051.1129983.12953.1322917.23426.022049.10473.00688.24943-.038583.43408-.089574.33073-.1956823.57051-.3224636.7221-.1226432.15158-.253559.22599-.3899852.22462-.1281571-.003-.2273759-.0303-.2935217-.0854-.067522-.0565-.1088637-.13092-.1226432-.22187-.015169-.0923-.00826-.1943.022049-.3073.044097-.16812.09646-.29076.1515815-.37069.055122-.0785.1143777-.12678.1763889-.14883.062015-.0234.1267813-.0317.190172-.0289l.097839-.37069h-2.4763448l-.09095.34451h1.6260833c-.1171328.1006-.2080824.19844-.2742283.29628-.068901.0978-.1171328.21084-.1529644.34313-.045473.18328-.031679.33624.038587.46026.071656.12265.1874132.2136.3486433.27561.1626094.062.3555329.0951.581533.0951.3376189-.003.6146059-.0496.8295781-.14332.2191067-.0937.3899852-.22738.5153872-.40101.1226431-.17501.2149721-.37896.2756076-.61874.055121-.21635.066146-.38585.039963-.51125-.028928-.12678-.08406-.22186-.1653646-.28525-.079925-.0648-.1708785-.10887-.2742283-.13643-.049611-.0179-.1033533-.0331-.1626094-.0455-.059256-.011-.1129982-.0262-.16123-.0441-.067525-.0413-.1116224-.11162-.1322917-.21084-.017921-.1006-.013794-.20946.015169-.3266.016545-.0661.042718-.13367.078546-.20395.038587-.0703.082684-.12953.1336711-.17914.049608-.0482.1047291-.0744.1667404-.0772.07717.003.133671.0221.1722578.0579.037204.0358.057877.0854.064767.14469.0055.0606-.00141.12402-.019297.1943-.01517.0634-.034431.12403-.057877.18053-.020673.0551-.057877.10748-.1061085.15158h.7482735c.07717-.18466.1088672-.35416.092329-.50298-.016545-.14883-.086815-.26734-.2067067-.35829" fill="#0063b3" fill-rule="evenodd"/><path d="m-9.7896638-226.099c.1364227-.0262.2549349-.0758.3541536-.15021.1474505-.10887.2466693-.25769.2962804-.44511.037204-.15296.012383-.26871-.07717-.34451-.089574-.0772-.226-.11575-.4078993-.11575-.055122 0-.1102431.006-.1653646.0165-.056501.0124-.1130018.0289-.1708785.0524-.1129988.0441-.2135968.10886-.3004118.19155-.08819.0799-.14745.17914-.179144.28938-.03583.15159-.01379.27423.06752.37207.07993.0978.206706.14745.3748263.15159.073036-.001.143316-.007.208086-.0179" fill="#0063b3" fill-rule="evenodd"/><path d="m10.751373-230.28549c-.03583.23014-.103354.52366-.197062.87782-.119888.46026-.249424.82406-.391361 1.09554-.141937.27009-.3155703.46302-.5181424.57877-.063391.0358-.1309123.0661-.202572.0909-.1598507.0551-.3417535.0827-.5470807.0786-.2067066.003-.3706919-.0234-.4933386-.0758-.1240226-.051-.2067066-.1447-.2521797-.27561-.045476-.13091-.053746-.31419-.026176-.54846.027552-.23564.09095-.53054.1860339-.89297.08406-.3321.1639887-.61598.243914-.85025.078549-.23151.170875-.41892.2783629-.56086.1088672-.14607.2508038-.24942.4258133-.31695.056501-.0193.1171328-.0372.184658-.051.1419367-.0289.3059254-.0441.4933386-.0441.2411557-.003.4258137.0234.5581047.0772.129537.0524.214972.14469.254939.27423.03858.12953.0372.31143.0028.54294m.921907-.19568c-.0083-.12953-.02755-.24529-.05926-.34864-.03583-.113-.08544-.21084-.148826-.2949-.125402-.1571-.299036-.27285-.520902-.339-.219106-.0675-.48369-.10197-.79237-.0992-.2590731.001-.4960939.0165-.7096902.0482-.1777683.0248-.3417535.062-.4878247.10887-.3210842.10197-.5842882.24805-.7868602.43546-.2039514.18741-.3651815.4079-.4850695.66146-.1240225.25631-.2218654.53468-.2990356.83922-.1074843.40515-.170875.74966-.1874132 1.03491-.016545.28525.023424.51814.1198915.69453.097839.17639.2659592.30593.5029836.38723.2356449.0841.5525911.12127.9494661.12127.2480486-.001.4712899-.0152.673862-.0441.1240225-.0179.2384001-.04.3445086-.0689.2838766-.0717.5250316-.17639.7193386-.31282.194303-.13367.358288-.29627.485069-.48093.128157-.18466.235642-.39136.321081-.61461.08544-.22737.16123-.4644.224621-.71658.0303-.11575.0565-.22737.07717-.3321.04961-.26045.07028-.48645.05926-.67938" fill="#0063b3" fill-rule="evenodd"/><path d="m-8.1635805-226.36221c-.1116224.13505-.2590694.24116-.4368377.31557-.1129982.0469-.2328897.0841-.3610469.113-.075791.0165-.1543402.0317-.2370208.0427-.1887925.0234-.38723.0372-.5911779.04-.033055 0-.066146 0-.1005981 0-.1915481.003-.3817161-.008-.5787781-.0303-.194303-.0234-.365178-.0675-.514008-.1378-.151581-.0689-.253559-.17225-.311435-.31144-.05788-.1378-.0441-.32384.03859-.55535h-1.070737c-.08957.23565-.100599.44098-.03447.61461.06891.17363.202572.31557.405144.42857.202572.11575.461642.19844.779971.25356.316949.0551.682127.0827 1.091406.0827.101974 0 .1998134-.001.2949011-.003.3059218-.007.5829088-.0262.8281987-.0565.096464-.0124.1860374-.0248.2728525-.04.3817161-.0661.691776-.16261.9329314-.28388.2397795-.12127.4285686-.26734.5649948-.43684.1364262-.16812.2411589-.35553.3073047-.55948h-1.070737c-.026176.21222-.095084.38723-.2094618.52365" fill="#0063b3" fill-rule="evenodd"/><g fill="#211e1e"><path d="m13.847823-206.64662c0 .0455-.0083.0841-.02205.11714l-.05788.0717-.07993.0248-.04272-.001-.03858-.001v-.0524l-.0014-.0689v-.0772l-.0014-.0772c0-.0317 0-.0593.0014-.0827v-.0689l.02893-.001h.03447c.05926 0 .103353.0179.133671.0538.0303.0358.04547.0909.04547.16398m-.01101-.50712c0 .0331-.0041.062-.01238.0868l-.03859.0634-.05374.0372-.06064.0124h-.06615v-.0799l-.0014-.0813.0014-.0634.0014-.0758.0041-.0785.01655-.003.02205-.001.03305-.001c.03721.001.0689.008.09095.0262l.04961.0662c.0096.0275.01379.0579.01379.0923m-.447862.37483v.12264c-.0014.0386-.0014.0744-.0028.10887 0 .0358-.0028.0689-.0028.10197-.0014.0345-.0041.0675-.0069.10197l.04134-.003.05237-.003.05374-.001.07028.001.07028.004.07441.001c.03447 0 .0689-.003.101974-.011.03306-.007.06339-.0193.09233-.0345l.07579-.0606c.02067-.0248.03859-.0551.05099-.0896.01242-.0345.01792-.0744.01792-.11851 0-.0386-.0055-.0717-.01792-.1006l-.04961-.073-.06339-.0496-.07028-.0289-.06063-.011v-.003l.05926-.0165.06339-.0331.05788-.0496.04134-.0703c.01101-.0262.01517-.0565.01517-.091 0-.0565-.01238-.10336-.03721-.13918-.0248-.0358-.05925-.062-.10335-.0786-.0441-.0179-.09509-.0262-.154341-.0248l-.08544.001-.08957.004-.08681.001-.06477-.003-.05512-.004c.0028.0331.0055.0675.0069.10059 0 .0331.0028.0675.0028.10198.0014.0345.0014.0717.0028.10886v.12265zm-.835092.19292c0 .0331-.0041.062-.01238.0854l-.03859.051-.0565.0193-.06063-.0317c-.01379-.0207-.02205-.0496-.02205-.0896l.01101-.0758.03306-.0482.0441-.0289.05237-.0221.05237-.0262-.0014.04v.051zm-.326595-.33349h.01101l.04272-.0427.06339-.0317.0689-.0124.07441.0179.04823.0496.01655.0689-.0041.0358-.02342.0262-.05374.022c-.02342.008-.05512.0179-.09646.0276-.0441.0124-.0813.0262-.114378.0455-.03168.0179-.0565.0413-.07442.0717-.01792.0303-.02755.0675-.02755.11162l.01242.0758.0372.0662.06477.0469c.02755.011.05788.0179.09508.0179l.07855-.0152.06201-.04.04823-.0592c.01238.0358.02893.0634.05236.0841.02205.0193.05099.0303.08682.0303l.04272-.004.04272-.0124.04961-.0262v-.0372l-.03996-.004-.02618-.0138-.01655-.0317-.0041-.0593c0-.0372 0-.0744.0014-.113 0-.0372.0014-.0772.0014-.11713.0014-.04.0014-.0813.0014-.12678 0-.0455-.0069-.0854-.0193-.11714-.01379-.0331-.03172-.0592-.0565-.0799-.02342-.0207-.05099-.0358-.08406-.0455-.03168-.008-.0689-.0138-.107488-.0138l-.0937.0138c-.03171.008-.06339.0207-.09233.0372l-.08544.0606zm-.420299-.48093.01517.062.04134.0455.05788.0165.05788-.0165.04134-.0455.01654-.062-.01654-.0634-.04134-.0441-.05788-.0179-.05788.0179-.04134.0441zm.01654.70831c0 .0634-.0014.12403-.0028.18052-.0014.0579-.0041.11438-.0083.16812l.04685-.004.06201-.003.06201.003.04685.004c-.0041-.0537-.0069-.11024-.0083-.16812-.0028-.0565-.0028-.11713-.0028-.18052v-.0634c0-.0634 0-.12264.0028-.18052.0014-.0565.0041-.113.0083-.16812l-.04685.006-.06201.003-.06201-.003-.04685-.006c.0041.0551.0069.11162.0083.16812.0014.0579.0028.11713.0028.18052zm-.651813-.0152c0-.0606.0041-.11024.01242-.1502.0083-.04.01792-.0717.0303-.0937l.0441-.0496.04547-.0152.06752.0289c.0193.0193.03583.051.04685.0923.0097.0413.01517.0937.01517.15848 0 .0758-.0055.13642-.01655.1819-.01242.0469-.02893.0813-.04961.10335l-.07028.0303-.06201-.0275c-.0193-.0179-.03306-.0482-.04547-.0896-.01101-.0427-.01792-.0992-.01792-.1695m.457511-.28112c0-.0689.0014-.13367.0014-.1943.0014-.0606.0028-.11851.0055-.17639.0014-.0565.0028-.11437.0055-.17363l-.04823.006-.06201.001-.06063-.001-.04823-.006c.0028.0593.0055.11713.0069.17363s.0028.11438.0041.17226v.17914h-.0028l-.04548-.0606-.06752-.04-.07993-.0165c-.03996.001-.07717.011-.110243.0303-.03443.0193-.06477.0469-.09095.0827-.0248.0345-.0441.0772-.05926.12402-.01379.0482-.02205.1006-.02205.1571 0 .0551.0055.10886.01654.15709.0096.0496.02755.0923.04961.13091.02205.0372.05099.0661.08682.0868.03443.0221.07717.0331.125402.0331.03858 0 .07028-.007.09646-.0193l.06754-.0521.04548-.0799.0028.003v.0165l-.0028.0303-.0028.0345-.0028.0289-.0041.0179.02618-.004.03447-.001.03721-.001.06201.001.04823.006c-.0028-.0579-.0041-.11576-.0055-.17363-.0028-.0579-.0041-.11576-.0055-.17639 0-.062-.0014-.1254-.0014-.1943zm-1.244368-.11575-.05512.005-.05237.003-.05099-.003-.05237-.005c.0041.0551.0083.11162.0096.16812.0014.0579.0014.11713.0014.18052v.0634c0 .0634 0 .12403-.0014.18052-.0014.0579-.0055.11438-.0096.16812l.04823-.004.06201-.003.06201.003.04685.004c-.0041-.0537-.0069-.11024-.0096-.16812-.0014-.0565-.0028-.11713-.0028-.18052v-.0634c0-.0482.0055-.0896.01379-.12402.0083-.0331.02342-.0593.04134-.0785l.07166-.0276c.03859 0 .0689.0152.08957.0469.0193.0317.0303.0799.0303.1447 0 .0937 0 .17777-.0028.25356-.0028.0744-.0069.14056-.01238.19706l.04823-.006.06063-.001.06064.001.04961.006c-.0028-.04-.0041-.0799-.0055-.11851-.0028-.0386-.0028-.0758-.0028-.10887l.0014-.0813.0028-.0854c.0014-.0289.0014-.062.0014-.0978 0-.0662-.0083-.12127-.02618-.16399-.01792-.0427-.04272-.0744-.07717-.0937-.03447-.0207-.07442-.0317-.124023-.0317l-.08682.0179-.07304.0469-.06063.0744h-.0028zm-.6380335.32522v.12264c0 .0386-.00141.0744-.00282.10887 0 .0358-.00141.0689-.00282.10335-.00141.0331-.00282.0661-.0055.10059l.053746-.004.066146-.003.064766.003.053742.004c-.00141-.0345-.00413-.0675-.0055-.10059-.00141-.0345-.00282-.0675-.00413-.10335 0-.0345-.00141-.0703-.00141-.10887-.00141-.0372-.00141-.0786-.00141-.12264v-.21334c0-.0427 0-.0841.00141-.12264 0-.0372.00141-.0744.00141-.10887.00141-.0345.00282-.0689.00413-.10197.00141-.0331.00413-.0675.0055-.1006l-.053742.004-.064766.003-.066146-.003-.053746-.004c.00282.0331.00413.0675.0055.1006.00141.0331.00282.0675.00282.10197.00141.0345.00282.0717.00282.10887v.12264zm-.5870434.0565v-.0207l.00141-.0331c-.00141-.0717-.012418-.13505-.035832-.18741-.023424-.051-.056497-.0909-.1005946-.11852-.044097-.0275-.097843-.0413-.1626093-.0427-.048232 0-.093708.008-.1350469.0248-.039963.0179-.075794.0427-.1061085.0758-.030304.0331-.055122.0758-.07028.1254-.017921.051-.026176.11025-.026176.17915s.00963.12677.028928.17776c.019297.0496.044097.0909.07855.12265.031679.0331.068901.0579.1116189.073.042721.0152.088194.0234.1350468.0234.035832 0 .068905-.003.096464-.01l.07028-.0248.055122-.0358.033055-.0882-.019297-.0138c-.050987.0469-.1116189.0703-.1791441.0703-.033055 0-.062011-.008-.085439-.0234l-.062011-.062c-.016545-.0276-.027552-.0579-.035828-.0951-.00688-.0358-.011007-.0758-.011007-.11713zm-.4189237-.0717.00688-.0923.020673-.0827.034466-.0606.055122-.0234.060636.0317c.015169.022.026176.0524.034431.0896.00688.04.011007.0854.012418.1378zm-.5264114-.31006-.049608.005-.049611.003-.050987-.003-.050987-.005c.0055.0551.00826.11162.011007.16812.00141.0579.00141.11713.00141.18052v.0634c0 .0634 0 .12403-.00141.18052-.00282.0579-.0055.11438-.011007.16812l.048232-.004.062011-.003.063391.003.045473.004c-.00413-.0537-.00688-.11024-.00826-.16812-.00282-.0565-.00282-.11713-.00282-.18052v-.0634l.016545-.0772.049608-.0565.075794-.0207.041339.005.031715.0152.013794-.011-.00141-.0538v-.051l.00141-.0634.00688-.0496-.011007-.001h-.011007c-.049608 0-.092329.0166-.1281571.051-.037208.0345-.067525.0868-.092329.15985l-.00413-.004zm-.3348638.38172.00141-.0207v-.0331c0-.0717-.011007-.13505-.034466-.18741-.023424-.051-.057877-.0909-.1005946-.11852-.045477-.0275-.099219-.0413-.1626094-.0427-.048232 0-.093708.008-.1350469.0248-.041342.0179-.07717.0427-.1061085.0758-.031715.0331-.053746.0758-.07166.1254-.016545.051-.0248.11025-.0248.17915s.00963.12677.028928.17776c.017921.0496.044097.0909.07717.12265.03168.0331.07028.0579.1116224.073.044097.0152.08957.0234.1364227.0234.035832 0 .068905-.003.095088-.01l.073035-.0248.053742-.0358.03168-.0882-.016545-.0138c-.052366.0469-.1129983.0703-.1805235.0703-.033055 0-.062011-.008-.086815-.0234l-.060635-.062c-.016545-.0276-.027552-.0579-.035828-.0951-.00825-.0358-.011007-.0758-.011007-.11713zm-.4175442-.0717.00688-.0923.019297-.0827.035828-.0606.053742-.0234.060635.0317c.016545.022.027552.0524.034466.0896.00826.04.012383.0854.012383.1378zm-.9866771-.0937c0 .0689 0 .13229-.00141.19431-.00141.0606-.00282.1185-.00413.17638-.00282.0579-.00413.11576-.0055.17363l.048232-.006.060636-.001.062011.001.048232.006-.0055-.073-.00282-.0799-.00282-.0786-.00141-.0689v-.11162c0-.0482.00413-.0896.013794-.12402.00826-.0331.022049-.0593.041342-.0785l.07166-.0276c.038583 0 .067522.0152.088195.0469s.031679.0799.031679.1447c0 .0937-.00141.17777-.00413.25356-.00141.0744-.00688.14056-.011007.19706l.046852-.006.062015-.001.060632.001.048232.006c-.00141-.04-.00282-.0799-.0055-.11851-.00141-.0386-.00141-.0758-.00141-.10887l.00141-.0813.00282-.0854c0-.0289.00141-.062.00141-.0978 0-.0662-.00963-.12127-.026176-.16399-.017921-.0427-.044097-.0744-.078546-.0937-.033055-.0207-.074415-.0317-.1226468-.0317l-.086815.0179-.07166.0469-.059256.0744-.00282-.003c0-.0689 0-.13367.00141-.1943.00141-.0606.00141-.11852.00413-.17639.00141-.0565.00413-.11438.00688-.17364l-.048232.006-.062011.001-.060635-.001-.048232-.006c.00141.0593.00282.11714.0055.17364.00141.0579.00282.11575.00413.17639.00141.0606.00141.1254.00141.1943zm-.7854809-.22738c.042721.12954.085439.2577.1240225.38723.038587.12678.074415.25632.1061121.38447l.037204-.004.038587-.003.037208.003.037208.004c.013794-.0496.028928-.10472.045473-.1626.016545-.0593.035832-.11989.053746-.18328.019297-.0634.038583-.1254.059256-.18879.019297-.062.037204-.12265.056497-.18053.017921-.0592.034466-.11299.050987-.16123.015169-.0496.028928-.0923.041342-.12815.00963-.0345.019297-.062.0248-.0786l-.034431.006-.033055.001-.028928-.001-.031715-.006c-.00413.0207-.011007.0482-.020673.0827-.00826.0345-.019297.0744-.030304.11851-.011007.0441-.0248.0923-.038583.14194-.013794.051-.028928.10197-.044097.15434-.013794.0524-.027552.10335-.041342.15296-.015169.051-.027552.0978-.041342.14194h-.00282c-.00967-.0345-.019297-.0744-.033055-.12127-.013794-.0455-.027552-.0937-.044097-.14469-.016545-.051-.031715-.10335-.048232-.15572-.015169-.0524-.030304-.10197-.045477-.15021-.013794-.0469-.026176-.0896-.037208-.12815-.00963-.0386-.017921-.0703-.022049-.0923l-.035828.006-.035828.001-.038587-.001-.035828-.006c-.0055.0234-.015169.0537-.026176.0909-.011007.0358-.023424.0758-.037208.11989-.013794.0455-.028928.091-.045473.14056-.015169.0496-.030304.0992-.048232.15158-.015169.0496-.031679.1006-.046852.14883-.016545.0496-.033055.0965-.046856.14056h-.00282c-.013794-.0551-.028928-.11438-.044097-.17915-.016545-.0634-.033055-.12953-.049608-.19843-.016545-.0689-.033055-.13918-.049611-.20947-.016545-.0703-.033055-.13918-.046852-.20532l-.059256.006-.059256.001-.060632-.001-.062011-.006.015169.0537c.00826.0276.019297.0634.030304.10473.012418.0413.0248.0896.039963.14056.015169.0524.028928.10611.045477.16399.015169.0579.03168.11576.048232.17501.015169.0579.030304.11438.045473.1695.013794.0551.026176.10611.038587.15296.012418.0469.022049.0882.028928.12264l.038587-.004.038583-.003.035828.003.037208.004c.012418-.0441.027552-.0923.044097-.14469.015169-.051.033055-.10611.050987-.16123.017921-.0551.037208-.11024.055122-.16536.019297-.0551.035832-.10749.053746-.15848.016545-.051.033055-.0992.046852-.14194zm0 0"/><path d="m16.484012-206.54051c-.0028.0496-.01101.1006-.02342.15021l.05237.0317.0689.0248.0813.011c.03583 0 .07028-.005.104733-.0152.03306-.011.06339-.0276.08957-.0496.02618-.0221.04823-.0496.06339-.0827.01517-.0345.02342-.073.02342-.11851 0-.0386-.0069-.0717-.0193-.0992l-.04823-.0675-.06753-.0455-.07441-.0317-.06615-.0303-.04961-.0358-.0193-.0537.01379-.0482.0372-.0317.05237-.011.06063.0138.04272.0331.02755.0427.01379.0427h.03996l.01379-.0717.02205-.0675-.06477-.0414-.06615-.0234-.07441-.01-.09095.0152-.08268.0455c-.02342.0207-.0441.0469-.05926.0786-.01379.0317-.02205.0703-.02205.11438 0 .0386.0069.0717.01792.0992l.04823.0689.06477.0469.07166.0345.06615.0317.04823.0372.01792.051-.01238.0427-.03721.0331-.0565.0138c-.03443 0-.06201-.007-.08544-.0179l-.05374-.0482-.03306-.062zm-.70418-.34726c0 .0689-.0014.13366-.0028.19292 0 .062-.0014.12127-.0028.17777-.0028.0579-.0041.11438-.0069.17363l.05237-.004.05236-.003.05237.003.05237.004-.0041-.0413-.0028-.0565-.0014-.0593-.0014-.051v-.0882l.0014-.0469.0028-.0179.0055-.003.01792.0165.02893.0468.03583.0634.03859.073.03721.0703.0303.0579.01792.0358.0565-.004.05512-.003.0565.003.05788.004-.02067-.0413-.03721-.0703-.04823-.0854-.04961-.0896-.04685-.0827-.03858-.0661-.02067-.0358.03721-.0441.0565-.062.06339-.0703.05925-.0634.04134-.0496-.04547.005-.03583.003-.03443-.003-.03306-.005c-.05099.0703-.09646.13091-.13505.1819-.03858.0524-.07028.0923-.09508.12127l-.0441.0427-.0069-.007-.0014-.0276c0-.0799 0-.15159 0-.21498.0014-.062.0014-.11851.0014-.16812.0014-.0496.0028-.0951.0028-.13643.0014-.04.0028-.0785.0041-.11437.0014-.0358.0028-.0703.0041-.10611l-.04823.005-.06063.003-.06201-.003-.04823-.005c.0028.0579.0041.11713.0069.17363.0014.0579.0028.11713.0028.17639.0014.0606.0028.1254.0028.1943zm-.613227-.21636-.05374.006-.05374.003-.05099-.003-.05099-.006c.0028.0551.0069.11162.0083.16813.0014.0579.0028.11713.0028.18052v.0634c0 .0634-.0014.12402-.0028.18052-.0014.0579-.0055.11438-.0083.16812l.04686-.004.06063-.003.06339.003.04685.004c-.0041-.0537-.0069-.11024-.0083-.16812-.0028-.0565-.0028-.11713-.0028-.18052v-.0634c0-.0482.0041-.0896.01242-.12265.0096-.0345.0248-.0606.04272-.0799l.07166-.0276c.0372 0 .06752.0152.08819.0469s.03168.0799.03168.14469c0 .0937-.0014.17777-.0028.25356-.0028.0744-.0069.14056-.01379.19706l.04823-.006.06063-.001.06063.001.04961.006c-.0014-.04-.0041-.0799-.0055-.11851-.0014-.0386-.0014-.0758-.0028-.10887l.0014-.0813.0028-.0854c.0014-.0303.0028-.062.0028-.0978 0-.0661-.0096-.12127-.02618-.16398-.01792-.0427-.0441-.0744-.07855-.0937-.03305-.0221-.07442-.0317-.122647-.0317l-.08681.0179-.07303.0469-.06064.0744h-.0028zm-.587043.51814c0 .0331-.0041.062-.01379.0854l-.03721.051-.0565.0193-.06063-.0317c-.01379-.0207-.02205-.0496-.02342-.0896l.01379-.0758.03168-.0482.0441-.0289.05237-.022.05099-.0262v.04l-.0014.051zm-.325215-.33348h.0096l.04272-.0427.06339-.0317.0689-.0124.07442.0179.04823.0496.01655.0689-.0041.0358-.02342.0262-.05374.0221c-.02342.008-.0565.0179-.09646.0275-.0441.0124-.0813.0262-.114377.0455-.03168.0179-.0565.0427-.07442.0717-.01792.0303-.02618.0675-.02755.113l.01238.0744.03721.0661.06477.0469c.02618.011.05788.0179.09508.0179l.07855-.0152.06201-.04.04823-.0593c.01242.0358.02893.0634.05237.0841.02205.0193.05099.0303.08682.0303l.04272-.004.04272-.0138.04823-.0248v-.0372l-.03721-.003-.02755-.0138-.01517-.0331-.0055-.0593c0-.0372 0-.0744 0-.11299.0014-.0372.0014-.0772.0028-.11714 0-.04.0014-.0827.0014-.1254 0-.0469-.0069-.0868-.0193-.11851-.01379-.0331-.03168-.0593-.0565-.0799-.02342-.0207-.05237-.0345-.08406-.0441-.03306-.011-.06753-.0152-.106109-.0152l-.09509.0138-.09232.0372-.08544.0592zm0 0"/><path d="m3.2272824-206.79545-.028928-.0138-.035828-.0166-.042718-.0124-.049611-.006c-.062011 0-.092329.022-.092329.0648l.022049.062.060636.0193.042718-.007.044097-.0207.044097-.0262.035828-.0262zm.7303629-.47542v.1695h-.5484601v.19568l.071656-.0331.075794-.01c.038583 0 .071656.007.101974.0179l.07717.0538.048232.0813c.012383.0317.017921.0675.017921.10611l-.011007.0772-.030304.0799-.045473.0758-.052366.0675-.1116225-.14057.027552-.0358.026176-.0441.017921-.0441.00688-.0372-.00826-.0427-.020673-.0276-.026176-.0165-.023425-.004-.038583.006-.034466.0179-.033055.0262-.035828.0331v.3762h-.181898v-.25356l-.078546.0345-.088195.0152c-.048232 0-.089574-.007-.1240261-.0234-.033055-.0152-.060632-.0345-.081301-.0579l-.044097-.0786-.013794-.0841c0-.0358.0055-.0675.019297-.0978l.056501-.0758c.023424-.0221.052363-.0386.086815-.0496.033055-.0124.07028-.0179.110243-.0179.033055 0 .063391.003.089574.01l.067522.0221v-.12126h-.4699105v-.1695zm0 0"/><path d="m2.6540185-207.58782-.1226432.12265-.1254019-.12265.1254019-.12264zm0 0"/><path d="m2.6347286-207.26673-.1378056.0565-.2067066-.45337.1515851-.062zm-.1639887.001-.093705.0937-.3954991-.34314.1171328-.11713zm0 0"/><path d="m2.4142425-206.8175-.035832-.0152-.039963-.0138-.042718-.011-.038587-.004h-.013794l-.012418.001.07717.0854c.0248.0289.052366.0593.081305.091l.0248-.0207zm-.3086805.0427-.00688.0193-.00141.0221.011007.0469.028928.04.044097.0248.050987.01h.016545zm.701421-.32798h-.2094618v.77997h-.1832787v-.18052c-.030304.0193-.062015.0317-.095088.0413-.03168.01-.064767.0138-.097839.0138-.039963 0-.078549-.007-.1129982-.0234-.035828-.0152-.067525-.0358-.095084-.062-.026176-.0262-.048232-.0579-.063391-.0923-.016545-.0358-.023424-.073-.023424-.11438 0-.0413.00826-.0785.0248-.11437.016545-.0345.039963-.0634.068901-.0882.030304-.0262.064767-.0441.1047291-.0579.039963-.0138.081305-.0207.1267813-.0207.034431 0 .064767.003.092329.01l.07028.0207v-.11162h-.5401907v-.16812h.9329314zm0 0"/><path d="m1.1877859-207.10275h-.1681198v.77997h-.18327865v-.77997h-.08268405v-.16812h.4340825zm0 0"/><path d="m.074331-206.79545-.02892778-.0138-.03582811-.0166-.04409722-.0124-.04823178-.006c-.06201128 0-.09370483.022-.09370483.0648l.0234244.062.06063545.0193.04271786-.007.04409722-.0207.04409722-.0262.03582812-.0262zm.7303629-.47542v.1695h-.54846009v.19568l.0702804-.0331.0771701-.01c.0372075 0 .0716562.007.10059458.0179l.0785495.0538.0482318.0813c.0110067.0317.0179211.0675.0179211.10611l-.0124178.0772-.0303036.0799-.0440972.0758-.0537457.0675-.11161888-.14057.0275519-.0358.0261761-.0441.0179211-.0441.006879-.0372-.006879-.0427-.0220486-.0276-.0261761-.0165-.0234244-.004-.0372075.006-.0358316.0179-.0330553.0262-.0344311.0331v.3762h-.1819028v-.25356l-.07992534.0345-.08681508.0152c-.04961114 0-.09095317-.007-.12402608-.0234-.0344311-.0152-.0620113-.0345-.0813012-.0579l-.0454766-.0786-.0137936-.0841c0-.0358.008255-.0675.0206728-.0978l.0551215-.0758c.0248003-.0221.0537422-.0386.0868151-.0496.0330553-.0124.0702804-.0179.11162242-.0179.03305528 0 .06201128.003.08957381.01l.06752166.0221v-.12126h-.46991058v-.1695zm0 0"/><path d="m-1.236182-207.58782-.1226467.12265-.1240226-.12265.1240226-.12264zm0 0"/><path d="m-1.0832211-207.10275h-.1694991v.77997h-.1818993v-.77997h-.082684v-.16812h.0248l-.2439141-.25631.1267813-.1254.3458845.38171h.1805235zm0 0"/><path d="m-1.8659468-207.10275h-.1667404l.020673.0606.00688.0661-.015169.0841-.039963.0772-.063391.0593-.079925.0358.034466.0221.035828.0152.037207.008.033055.004c.068901 0 .133671-.0234.1970581-.0689zm.3996337 0h-.2191102v.77997h-.1805235v-.21221c-.030304.0138-.063387.0248-.09646.0331-.034466.008-.067525.011-.1019775.011-.1488264 0-.2824974-.0965-.3996302-.28939l.075791-.10887c.035832.0138.06477.0207.082684.0207.035828 0 .064767-.01.085439-.0276.019297-.0193.030304-.0455.030304-.0813l-.00688-.0386-.017921-.0413-.0248-.0317-.023425-.0138h-.2521797v-.16812h1.0486884zm0 0"/><path d="m-2.8705344-206.8547v-.24805h-.2411589v.21084l-.00141.0372zm.4078993-.24805h-.2260001v.77997h-.1818992v-.3638h-.2907665l-.028928.0413-.039963.0289.2246172.26458-.1405573.11714-.4299479-.5085.1405572-.11713.086819.10335c.037207-.004.055122-.0634.055122-.17777v-.16812h-.2949011v-.16812h1.1258586zm0 0"/><path d="m-2.6776108-207.15511c-.056497-.0262-.1088637-.0496-.1584749-.0717-.049608-.0234-.095084-.0427-.1350468-.0606-.039963-.0179-.075791-.0331-.1061085-.0469l-.07166-.0289c-.097839-.0386-.1874132-.0661-.2659592-.0841-.078549-.0179-.1474505-.0275-.2053272-.0275-.1364262 0-.2053273.0358-.2053273.10611l.00141.0262.00825.0303.019297.0413h.2590694v.16812h-.1736337v.77997h-.1832786v-.77997h-.1529609v-.16812h.063391l-.00688-.0234-.0055-.0276-.00413-.0289-.00141-.0234c0-.18879.1267777-.28387.3817161-.28387.071656 0 .1488264.011.2328863.0331.08406.0221.1722543.0524.2659627.0951.022049.01.050987.0234.085439.04.034431.0165.074411.0358.119888.0579.044097.0207.092329.0455.1446954.0717.053742.0262.1088637.0551.1667404.0854zm0 0"/><path d="m-3.996393-207.10275h-.1681197v.77997h-.1832787v-.77997h-.082684v-.16812h.4340824zm0 0"/><path d="m-4.7722289-206.8175-.035828-.0152-.041342-.0138-.041342-.011-.039963-.004-.059256.007-.042718.0179-.027552.0234-.015169.0289-.0055.0275-.00282.0234.011007.0469.026176.04.041342.0248.050987.01.062011-.008.052366-.0207.039963-.0248.027552-.0234zm.3913646-.28525h-.2094618v.77997h-.1819028v-.1695l-.095084.0345c-.033055.007-.064767.01-.097839.01-.039963 0-.07717-.007-.1143776-.0234-.034466-.0152-.06477-.0358-.09095-.062-.026176-.0262-.046856-.0579-.062015-.0923-.013794-.0358-.022049-.073-.022049-.11438 0-.0413.00825-.0786.0248-.11438.015169-.0345.037208-.0634.066146-.0882.028928-.0262.062011-.0441.1005946-.0579.039963-.0138.082684-.0207.1281571-.0207.034466 0 .06477.003.090953.01l.071656.0207v-.11162h-.5415668v-.16812h.9329314zm0 0"/><path d="m-5.2628088-207.10275h-.2135963v.77997h-.1819028v-.77997h-.079925v-.16812h.4754245zm-.8337126.0703.022049-.003.020673-.008.022049-.0165.020673-.0275-.033055-.0248-.035828-.01-.050987.0152-.020673.04.017921.0234zm.3141909.0661c0 .04-.00282.0772-.011007.113-.00688.0372-.019297.0703-.034466.10059l-.063387.0827c-.0248.0248-.053746.0441-.089574.0593l.1998169.21911-.133671.12402-.4327031-.46991.1350468-.1254.099219.10749.052366-.0124.044097-.0331.033055-.0496.022049-.0634-.068901.0345-.07855.0124c-.037208 0-.068901-.005-.096464-.0165l-.067522-.0427-.041342-.0648-.012418-.0758c0-.0331.0055-.0634.017921-.0909l.053746-.0717.07717-.0469c.030304-.011.063387-.0165.097839-.0165.045477 0 .088194.008.1254019.0234.035828.0152.067525.0372.092329.0661.026176.0289.046852.0634.059256.10335.013794.04.020673.0854.020673.13368"/><path d="m-6.515445-207.26673-.1005982.0854-.3941198-.34175.1171328-.11851zm0 0"/><path d="m-6.3349251-207.10275h-.2769835v.27285h-.1777682c-.042718 0-.078546.003-.1074879.008l-.068901.0275-.035828.0524c-.00825.022-.012418.0482-.012418.0813l.011007.0537.027552.0441.039963.0289.050987.01.045477-.007.046852-.0179.035828-.0248.015169-.0262c-.00141-.011-.00826-.0372-.019297-.0785l.1791476-.0413.1253984.47955-.1763889.0455-.057877-.2136c-.0248.0207-.052366.0345-.085439.0441-.03168.01-.068901.0138-.1116189.0138-.045477 0-.086819-.008-.1254019-.0234-.038587-.0165-.07166-.0386-.099219-.0675-.027552-.0276-.048232-.0606-.063391-.0992-.016545-.0386-.023424-.0799-.023424-.12402 0-.0537.00826-.10197.0248-.14469.016545-.0414.039963-.0772.073036-.10749.031679-.0303.07028-.0524.1185122-.0689.045473-.0152.1005945-.0234.1598506-.0234h.027552v-.0937h-.4354619v-.16812h.895724zm0 0"/></g><path d="m-19.573737-206.34069c-.07992 0-.09922-.0317-.152961-.0841-.06615.0592-.140561.0882-.227376.0882-.173633 0-.261828-.11989-.261828-.25769 0-.17363.114378-.22738.210838-.25907.06615-.0207.132292-.0207.132292-.0909 0-.0593-.0441-.0758-.0813-.0758-.08406 0-.108867.0413-.108867.11161h-.158475c0-.1378.06753-.2756.278367-.2756.146071 0 .239776.0896.239776.23426 0 .26734-.327971.17226-.327971.34589 0 .0524.04961.0937.108864.091.0441-.003.0937-.0152.107488-.0813l-.0028-.0744h.186037v.0441c0 .0703.08406.10887.122643.10887.104733 0 .170879-.14332.170879-.2577 0-.0703-.0303-.18328-.126782-.24666-.03306-.0234-.08544-.0331-.137802-.0386l.0028-.12954h.07855c.202572 0 .347264.19431.347264.43546 0 .22876-.163985.41204-.39963.41204"/><path d="m-19.823161-206.30762h.188792v.20808h-.188792zm0 0"/><path d="m-18.846133-206.81887c-.05512 0-.0813.0303-.0813.0772 0 .0413.01655.0799.07579.0799.04961 0 .08406-.0386.08406-.0854 0-.062-.03721-.0717-.07855-.0717m-.02893.33762c-.126782 0-.235645-.10749-.235645-.23151 0-.16675.114377-.29215.358291-.24943-.06752-.0786-.143316-.0786-.343133-.0786h-.538811v-.16398h.512628c.179144 0 .299036 0 .354157.0207.1819.073.214973.26596.214973.35691 0 .16812-.129537.34589-.32246.34589"/><path d="m-18.042738-207.01731c-.140557 0-.252179.10611-.252179.24391 0 .16399.106108.2577.241155.2577.150209 0 .275608-.10336.275608-.24667 0-.15572-.111619-.25494-.264584-.25494m-.01655.68075c-.282497 0-.435462-.20257-.435462-.44648 0-.226.223245-.41066.467156-.41066.242534 0 .436837.18466.436837.43133 0 .24391-.237021.42581-.468531.42581"/><path d="m-17.765751-207.24606c-.186034 0-.197058.23702-.405144.23702-.141936 0-.311436-.0289-.319705-.26045h.201197c-.01101.0675.06614.0965.126777.0965.15572 0 .144696-.24667.396875-.24667.03447 0 .06339.007.09509.0303v.17225c-.02755-.0165-.06063-.0289-.09509-.0289"/><path d="m-16.803881-206.9236c-.02618 0-.05374.01-.05374.0496 0 .0358.01792.0744.05926.0744.03858 0 .05237-.0276.05237-.0648 0-.0441-.01792-.0592-.05788-.0592m-.334864-.34589-.04961.0413.07855.0427.04685-.04c0-.0275-.04272-.0441-.07579-.0441m-.129533.37896c-.03721 0-.04961.0317-.04961.0606 0 .0414.03583.0675.07304.0675l.04134-.062c0-.0441-.03168-.0661-.06477-.0661m.529167.48093c-.05099.0262-.199817.073-.288011.073-.08268 0-.181899-.0152-.261828-.051-.157096-.0689-.24529-.18052-.24529-.33348 0-.0785.02893-.15296.05512-.18742.05374-.0703.132292-.11161.220486-.11161.119888 0 .205328.0565.205328.19981 0 .10749-.126778.27285-.308681.16123.04685.13505.213596.16123.340378.16123.205327 0 .347264-.0854.358288-.22875-.05099.0317-.100598.062-.176389.062-.128157 0-.181899-.0896-.181899-.21498 0-.13504.117133-.18741.228751-.18741-.0083-.0648-.08681-.14745-.135046-.14745-.0055.0358 0 .073-.02342.0937-.04685.0441-.148826.0675-.208082.0675-.08819 0-.199817-.0468-.199817-.16123 0-.0813.05099-.14332.115757-.15847-.0041-.0372-.01517-.0524-.01517-.10198 0-.17639.152961-.26734.290767-.26734.110243 0 .268718.0551.268718.26734h-.180524c0-.0469-.03583-.10886-.09233-.10886-.07579 0-.111622.0468-.111622.10335 0 .0662.0248.062.05926.062.05237 0 .124026.0193.16123.04.111622.0537.241159.1888.238404.34589.05512.0179.140557.11438.140557.22876 0 .17914-.117133.32659-.254935.39411"/><path d="m-15.988082-207.02558c-.141937 0-.25907.11024-.25907.25218 0 .1695.108864.26596.249425.26596.152961 0 .285252-.10748.285252-.25493 0-.16123-.117132-.26321-.275607-.26321m.704179.69178c-.203951 0-.293521-.12402-.334863-.19982-.08819.12265-.234266.19706-.384475.19706-.282498 0-.436838-.20257-.436838-.44648 0-.226.224621-.41066.468535-.41066.232886 0 .423058.17364.436838.40515.06477.15296.126777.27009.259069.27009s.202572-.14056.202572-.25494c0-.0951-.05374-.24115-.191548-.24666l-.223241-.006c-.04961 0-.04961-.16398-.01654-.16398.09095-.001.228751.004.248045.004.202572 0 .350022.19155.350022.43271 0 .22875-.169499.41892-.377581.41892"/><path d="m-15.012429-207.29843c-.140561 0-.112999.28112-.460266.28112-.117133 0-.292142-.0854-.275608-.28663h.194303c-.02618.0868.06064.12264.122647.12264.176389 0 .175009-.2825.418924-.2825.03583 0 .05926.006.09095.0207v.17914c-.01654-.0289-.05512-.0345-.09095-.0345"/><path d="m-14.761626-206.3338c-.249428 0-.29628-.18879-.300415-.23978 0-.12678.121268-.35829.132292-.2701.05237.17226.06752.32522.208086.32522.103353 0 .17363-.14056.17363-.25494 0-.0951-.05374-.2384-.191544-.24666l-.06752.003v-.16675l.07442-.001c.202572 0 .351398.19155.351398.43271 0 .23013-.169499.41892-.380337.41892"/><path d="m-14.233838-206.3338c-.248049 0-.296277-.18879-.300412-.23978 0-.12678.121268-.35829.132292-.2701.05236.17226.06752.32522.208082.32522.103354 0 .173634-.14056.173634-.25494 0-.0951-.05512-.2384-.191548-.24666l-.0689.003v-.16675l.07579-.001c.202572 0 .351398.19155.351398.43271 0 .23013-.169495.41892-.380336.41892"/><path d="m-13.469027-207.05314c-.04961-.005-.07717.0276-.08406.0799-.0028.0524.0248.0909.07304.0965.05926.005.08131-.0317.08544-.0827.0028-.0524-.03583-.0909-.07442-.0937m.199814.72485c-.348644 0-.498849-.226-.498849-.47542 0-.20533.103353-.39826.329353-.38034.122643.008.195679.0992.201193.22186.0041.13505-.110243.24391-.226.23565-.08544-.004-.0937-.0207-.125402-.0469-.01238.19568.181903.26596.316949.26596.08406 0 .343133-.0262.343133-.26596 0-.2384-.146071-.25356-.213596-.27285v-.14745c.151585.004.380337.10611.380337.41479 0 .29214-.25769.45062-.507118.45062"/><path d="m-11.731321-206.34069c-.07993 0-.09784-.0317-.152961-.0841-.06477.0592-.140561.0882-.226.0882-.173634 0-.261828-.11989-.261828-.25769 0-.17363.114378-.22738.210841-.25907.06615-.0207.132292-.0207.132292-.0909 0-.0593-.0441-.0758-.08131-.0758-.08544 0-.108864.0413-.108864.11161h-.158474c0-.1378.06752-.2756.278362-.2756.146072 0 .238401.0896.238401.23426 0 .26734-.326595.17226-.326595.34589 0 .0524.04823.0937.108864.091.0441-.003.09371-.0152.106112-.0813l-.0028-.0744h.187414v.0441c0 .0703.08268.10887.122646.10887.103354 0 .170875-.14332.170875-.2577 0-.0703-.03168-.18328-.126777-.24666-.03447-.0234-.08544-.0331-.137806-.0386l.0014-.12954h.07855c.202572 0 .348643.19431.348643.43546 0 .22876-.163989.41204-.40101.41204"/><path d="m-11.005096-206.81887c-.05512 0-.08131.0303-.08131.0772 0 .0413.01655.0799.07579.0799.04961 0 .08268-.0386.08268-.0854 0-.062-.03583-.0717-.07717-.0717m-.02893.33762c-.128157 0-.237021-.10749-.237021-.23151 0-.16675.114378-.29215.358288-.24943-.06752-.0786-.141936-.0786-.341753-.0786h-.538812v-.16398h.512629c.179147 0 .299035 0 .352778.0207.181902.073.216351.26596.216351.35691 0 .16812-.129533.34589-.32246.34589"/><path d="m-10.335369-205.91763c-.06201.0551-.172254.1061-.263204.1061-.150205 0-.314194-.11713-.314194-.22324 0-.0537.02067-.0937.0441-.11713h-.170875v-.1378h.480935v.15571l-.04961-.0262c-.04961 0-.0937.0496-.0937.0951 0 .0565.07579.0978.140561.0978.06477 0 .188789-.1006.188789-.21497 0-.13092-.08819-.16399-.135047-.19569-.06201-.0386-.180523-.14607-.180523-.29076 0-.14332.110243-.26597.227375-.26597.143316 0 .213597.14608.213597.23427h-.150206c-.0028-.0331-.01655-.073-.06615-.073-.05374 0-.07992.0786-.07992.10474 0 .0648.07303.13229.148826.17363.09095.0524.197062.19017.197062.32797 0 .0785-.06201.1819-.137806.24943"/><path d="m-9.7717498-207.02006c-.1639887 0-.2604492.13504-.2604492.24115 0 .1695.1157539.26045.2549353.26045.1405608 0 .2700973-.12954.2700973-.23565 0-.10472-.068905-.26595-.2645834-.26595m-.020673.6835c-.1846545 0-.4313232-.10611-.4313232-.44235 0-.33486.3486426-.41479.4630203-.41479.2039478 0 .4368376.14056.4368376.42582 0 .28801-.2797422.43132-.4685347.43132"/><path d="m-8.8539772-206.33656c-.3100599 0-.4134132-.20257-.4161684-.30592h.1943029c0 .062.1047327.14056.2315105.14056.1598541 0 .2301345-.0868.2301345-.13505 0-.0634-.060635-.0854-.1033533-.0854-.048232 0-.1419401.0275-.2384001.0275-.078549 0-.1419402-.0275-.1874132-.0606-.050987-.0386-.093708-.11024-.093708-.17363 0-.0854.1281571-.26459.3803403-.26459.2728489 0 .3817162.0799.3817162.23841h-.1874132c-.044097-.0882-.1584749-.0923-.1915478-.0909-.033055 0-.1777682-.004-.1777682.11437 0 .0179.013794.0882.157099.0786.049608-.003.09646-.0386.2259965-.0386.1639852 0 .2232413.11575.2232413.20257 0 .1819-.2163516.35278-.4285686.35278"/><path d="m-8.994538-207.52443c-.015169 0-.041342.003-.041342.0358l.038587.0275h.396875v.16537h-.3913646c-.015169 0-.041339.006-.041339.04l.038583.0275h.3941198v.13781h-.4644002c-.09646 0-.1446918-.11438-.1446918-.15021 0-.0648.0248-.0799.053742-.11162-.046852-.0372-.07717-.0785-.07717-.12816 0-.0772.092329-.21497.1915477-.21497h.6545686v.17088zm0 0"/></g></svg>