<?xml version="1.0" encoding="UTF-8" standalone="no"?>
<svg
   xmlns:dc="http://purl.org/dc/elements/1.1/"
   xmlns:cc="http://creativecommons.org/ns#"
   xmlns:rdf="http://www.w3.org/1999/02/22-rdf-syntax-ns#"
   xmlns:svg="http://www.w3.org/2000/svg"
   xmlns="http://www.w3.org/2000/svg"
   height="27.744444"
   width="26.533333"
   xml:space="preserve"
   enable-background="new -467 482 64 38"
   viewBox="-467 482 26.533333 27.744444"
   y="0px"
   x="0px"
   id="Layer_1"
   version="1.1"><metadata
   id="metadata31"><rdf:RDF><cc:Work
       rdf:about=""><dc:format>image/svg+xml</dc:format><dc:type
         rdf:resource="http://purl.org/dc/dcmitype/StillImage" /><dc:title></dc:title></cc:Work></rdf:RDF></metadata><defs
   id="defs29">
	
	
	
	
	
	
	
	
	
	
	
</defs>
<path
   d="m -444.85556,501.14444 c -0.2,-1.1 -0.7,-1.9 -1.4,-2.5 -0.2,-0.3 -0.5,-0.4 -0.9,-0.6 -0.2,-0.1 -0.3,-0.2 -0.5,-0.2 -0.4,-0.1 -0.8,-0.3 -1.4,-0.2 0.3,-0.2 0.7,-0.2 1.2,-0.1 0.4,0 0.7,0.1 1,0.2 0.3,0.1 0.5,0.3 0.8,0.4 0.7,-2 0.4,-4.6 -0.3,-6.3 -0.7,-1.8 -1.7,-3.3 -3.1,-4.5 -1.3,-1.2 -2.9,-2.1 -5,-2.6 -1,-0.2 -2.3,-0.2 -3.3,0 -1,0.3 -1.8,0.7 -2.5,1.2 -0.7,0.6 -1.3,1.2 -1.8,2 -0.2,0.2 -0.2,0.4 -0.4,0.6 -0.1,0.2 -0.2,0.4 -0.3,0.7 -0.2,0.5 -0.3,0.9 -0.4,1.5 -0.2,1 -0.3,2.3 -0.1,3.4 0.1,1.1 0.5,2 0.8,2.9 0.2,0.4 0.4,0.9 0.7,1.2 0.2,0.4 0.5,0.7 0.8,1.1 0.6,0.7 1.2,1.3 2,1.8 1.5,1 3.3,1.8 5.7,1.9 0,-0.1 -0.1,-0.3 -0.1,-0.4 0,-0.1 -0.1,-0.3 -0.1,-0.4 0,-0.3 0,-0.7 0,-1 0.1,0 0.1,0.1 0.1,0.2 0.1,0.1 0.1,0.1 0.1,0.2 0.1,0.2 0.2,0.3 0.3,0.4 0.2,0.2 0.4,0.5 0.7,0.7 0.2,0.2 0.5,0.4 0.8,0.6 0.3,0.2 0.5,0.3 0.9,0.4 0.6,0.3 1.4,0.4 2.2,0.5 0.8,0.1 1.6,0.2 2.3,0.4 0.7,0.2 1.4,0.4 1.9,0.8 0.3,0.2 0.6,0.3 0.8,0.5 0.1,0.1 0.3,0.2 0.4,0.3 0.2,0.1 0.2,0.2 0.4,0.3 0.5,0.4 0.9,0.9 1.3,1.4 0.2,0.3 0.4,0.5 0.5,0.9 0.1,0.1 0.1,0.3 0.2,0.4 0,0.2 0.2,0.4 0,0.5 -0.2,0 -0.2,-0.2 -0.3,-0.3 -0.1,-0.1 -0.2,-0.2 -0.2,-0.4 -0.3,-0.4 -0.7,-0.8 -1,-1.1 -0.4,-0.3 -0.7,-0.7 -1.2,-0.9 -0.8,-0.6 -1.8,-1 -2.9,-1.3 -1.1,-0.3 -2.3,-0.4 -3.8,-0.4 -0.6,0.1 -1.2,0.2 -1.8,0.4 -0.6,0.1 -1.2,0.2 -1.8,0.3 -2.4,0.2 -5.1,-0.4 -7,-1.3 -1,-0.4 -1.9,-1 -2.6,-1.6 -0.4,-0.3 -0.8,-0.7 -1.1,-1 -0.3,-0.4 -0.7,-0.8 -0.9,-1.2 -0.3,-0.4 -0.5,-0.9 -0.8,-1.4 -0.2,-0.5 -0.4,-1 -0.5,-1.6 -0.2,-0.5 -0.3,-1.1 -0.4,-1.8 0,-0.2 -0.1,-0.5 -0.1,-0.8 0,0 0,0 0,-0.1 0,-0.3 -0.1,-0.6 0,-0.9 0,-0.6 0.1,-1.3 0.2,-1.9 0.1,-0.6 0.3,-1.1 0.4,-1.7 0.2,-0.5 0.4,-1 0.6,-1.5 0.1,-0.2 0.3,-0.5 0.4,-0.7 0.1,-0.2 0.3,-0.4 0.4,-0.7 0.1,-0.1 0.1,-0.2 0.2,-0.3 0,-0.1 0.2,-0.2 0.2,-0.3 0.1,-0.1 0.2,-0.2 0.2,-0.3 0.1,-0.1 0.2,-0.2 0.2,-0.3 0.4,-0.3 0.7,-0.7 1,-1.1 0.4,-0.3 0.8,-0.6 1.2,-1 0.2,-0.1 0.4,-0.3 0.7,-0.4 0.2,-0.2 0.4,-0.2 0.6,-0.4 0.5,-0.2 0.9,-0.5 1.5,-0.7 0.5,-0.2 1,-0.4 1.5,-0.6 1.1,-0.3 2.3,-0.5 3.7,-0.4 0.1,0 0.1,-0.1 0.1,0 2.7,0.1 4.7,0.9 6.3,2 1.7,1.1 2.9,2.6 3.9,4.4 0.9,1.8 1.4,4.3 1,6.9 -0.2,1.2 -0.6,2.2 -1,3.2 -0.2,0.5 -0.5,0.9 -0.7,1.3 -0.1,0.2 -0.3,0.4 -0.4,0.6 -0.1,0.1 -0.1,0.2 -0.2,0.3 0.2,0.2 0.2,0.2 0.1,0.4 0,-0.1 0,-0.1 0,0 0,0 0,0 0,0 z"
   id="path2"
   style="fill:#f68e1f" /><path
   d="m -445.65556,501.84444 c -0.3,-0.1 -0.4,-0.6 -0.6,-0.9 0,-0.1 -0.1,-0.3 0,-0.4 0,0 0,0 0.1,0 0.1,-0.1 0.2,0 0.3,0.1 0.2,0.2 0.3,0.5 0.4,0.7 0,0.2 0,0.5 -0.2,0.5 z"
   id="path4"
   style="fill:#f68e1f" /><path
   d="m -448.25556,501.34444 c 0,0 0.1,0 0,0 0.6,0.1 0.8,0.4 0.8,1 0,0.3 -0.2,0.5 -0.5,0.6 -0.7,0 -1.1,-0.6 -0.9,-1.3 0.2,-0.2 0.3,-0.3 0.6,-0.3 z"
   id="path6"
   style="fill:#f68e1f" />
</svg>