<svg xmlns="http://www.w3.org/2000/svg" xmlns:xlink="http://www.w3.org/1999/xlink" viewBox="0 0 129 57" xmlns:v="https://vecta.io/nano"><defs><symbol id="A" viewBox="0 0 343.66 154.77"><path d="M168.09 93h8.72c4.45 0 7.59 2.28 7.59 6.31a5.8 5.8 0 0 1-3 5.24v.07a5.73 5.73 0 0 1 4 5.76c0 4.9-3.93 7.1-8.45 7.1h-8.86zm8.76 10a2.92 2.92 0 0 0 3-3.14 2.84 2.84 0 0 0-3.1-3h-4.24V103zm.45 10.66a3.53 3.53 0 1 0 0-7.07h-4.76v7.07zm20.3-14.17a9.33 9.33 0 0 1 6.76 2.62l-2 3a6.68 6.68 0 0 0-4.55-1.9 5.23 5.23 0 0 0-5.35 5.45 5.33 5.33 0 0 0 5.48 5.52 7.88 7.88 0 0 0 5.17-2.24l1.69 3.1a10.15 10.15 0 0 1-7.24 2.86c-5.83 0-9.55-4.1-9.55-9.21s3.77-9.2 9.59-9.2zm17.8 0c5 0 7.79 3.69 7.79 8.34a13.87 13.87 0 0 1-.14 1.69H211a5 5 0 0 0 5.28 4.66 8.31 8.31 0 0 0 5-1.93l1.72 3.14a11.13 11.13 0 0 1-7.07 2.52 9 9 0 0 1-9.48-9.21c-.01-5.42 3.68-9.21 8.95-9.21zm-5-6.48h3.38v4h-3.38zm8.45 13.52a3.46 3.46 0 0 0-3.52-3.72 4.22 4.22 0 0 0-4.24 3.72zM216.71 93h3.35v4h-3.35zm18.76 6.9h16v17.59h-4.38v-13.87h-7.28v13.86h-4.38zm20.7 0h4v1.31a12 12 0 0 1-.07 1.24h.07a6.44 6.44 0 0 1 5.66-3c4.76 0 7.79 3.76 7.79 9.21s-3.41 9.21-8 9.21a6.37 6.37 0 0 1-5.07-2.48h-.07a10.2 10.2 0 0 1 .1 1.52v7.45h-4.38zm8.62 14.31c2.41 0 4.41-2 4.41-5.45s-1.79-5.52-4.35-5.52c-2.31 0-4.45 1.66-4.45 5.55.02 2.73 1.54 5.42 4.4 5.42zm21-14.72c5.38 0 9.69 3.83 9.69 9.21s-4.31 9.21-9.66 9.21-9.66-3.79-9.66-9.21 4.37-9.21 9.68-9.21zm0 14.69a5.49 5.49 0 1 0-5.21-5.48 5.23 5.23 0 0 0 5.29 5.48zm13.26-14.28h4.17v13.86h5.48V99.9h4.17v13.86h5.48V99.9h4.17v13.86H325v7.86h-3.93v-4.14h-22zm36.82-.41c5 0 7.79 3.69 7.79 8.34a13.87 13.87 0 0 1-.14 1.69h-12.1a5 5 0 0 0 5.28 4.66 8.31 8.31 0 0 0 5-1.93l1.72 3.14a11.13 11.13 0 0 1-7.07 2.52 9 9 0 0 1-9.48-9.21c.03-5.42 3.72-9.21 9-9.21zm3.41 7a3.46 3.46 0 0 0-3.52-3.72 4.22 4.22 0 0 0-4.24 3.72z" fill="#2d3540"/><path d="M243.37 22.79v50.53a1.37 1.37 0 0 1-1.37 1.37h-10.32a1.37 1.37 0 0 1-1.37-1.37V22.79a1.37 1.37 0 0 1 1.37-1.37H242a1.37 1.37 0 0 1 1.37 1.37zm80.43-1.37h-11.55a1.37 1.37 0 0 0-1.31 1l-9.14 29.82-10-29.89a1.37 1.37 0 0 0-1.3-.93h-8.06a1.37 1.37 0 0 0-1.3.93L271 52.24l-9.14-29.86a1.37 1.37 0 0 0-1.31-1H249a1.38 1.38 0 0 0-1.11.57 1.35 1.35 0 0 0-.19 1.23l17 50.55a1.37 1.37 0 0 0 1.3.93h9.17a1.37 1.37 0 0 0 1.3-.93l9.95-29.53 9.95 29.53a1.37 1.37 0 0 0 1.3.93h9.17a1.37 1.37 0 0 0 1.3-.93l17-50.55a1.35 1.35 0 0 0-.19-1.23 1.38 1.38 0 0 0-1.15-.53zm17.37 0h-10.32a1.37 1.37 0 0 0-1.37 1.37v50.53a1.37 1.37 0 0 0 1.37 1.37h10.32a1.37 1.37 0 0 0 1.37-1.37V22.79a1.37 1.37 0 0 0-1.37-1.37zM224.33 73a1 1 0 0 1-.8 1.74h-12.65a1.73 1.73 0 0 1-1.33-.62l-2.14-2.58a28 28 0 1 1 8.34-8.36zm-25.07-11.3l-5.54-6.7a1.07 1.07 0 0 1 .82-1.76h11.59a16.37 16.37 0 0 0 .86-5.22c0-8.35-6.21-15.54-14.74-15.54s-14.74 7.2-14.74 15.54 6.21 15.44 14.74 15.44a14.3 14.3 0 0 0 7.01-1.76zm-76.41 42.44c.45 3-.5 4.27-1.46 4.27s-2.36-1.22-3.9-3.64-2.08-5.11-1.33-6.5a2.15 2.15 0 0 1 2.87-.81c2.55.96 3.55 4.87 3.82 6.67zm-14.13 6.58c3.06 2.59 4 5.67 2.37 7.84a5 5 0 0 1-4.11 1.85 7.3 7.3 0 0 1-4.68-1.7c-2.78-2.43-3.6-6.38-1.78-8.62a4.05 4.05 0 0 1 3.25-1.36 7.82 7.82 0 0 1 4.95 1.98zm-5.12 25c13.19 0 27.5 4.52 43.34 18.56 1.59 1.41 3.7-.34 2.32-2.09-15.57-19.66-30-23.4-44.33-26.56C87.37 121.74 78.33 111.85 72 101c-1.25-2.16-1.81-1.78-1.93 1a61.41 61.41 0 0 0 .93 12.3h0-2.14a45.5 45.5 0 1 1 45.5-45.5 46 46 0 0 1-.29 5.29 68.22 68.22 0 0 0-14.45-.27c-1.73.15-1.48 1-.18 1.19 15 2.72 25.37 12 27.74 29a.42.42 0 0 0 .76.17 68.84 68.84 0 1 0-59.08 33.5c10.05-.02 20.06-1.98 34.74-1.98z" fill="#ff8c00"/></symbol></defs><use width="343.66" height="154.77" transform="matrix(.37 0 0 .37 1.22 0)" xlink:href="#A"/></svg>