<?xml version="1.0" encoding="UTF-8" standalone="no"?>
<svg
   xmlns:dc="http://purl.org/dc/elements/1.1/"
   xmlns:cc="http://creativecommons.org/ns#"
   xmlns:rdf="http://www.w3.org/1999/02/22-rdf-syntax-ns#"
   xmlns:svg="http://www.w3.org/2000/svg"
   xmlns="http://www.w3.org/2000/svg"
   xmlns:sodipodi="http://sodipodi.sourceforge.net/DTD/sodipodi-0.dtd"
   xmlns:inkscape="http://www.inkscape.org/namespaces/inkscape"
   viewBox="0 0 31.930002 15.843351"
   version="1.1"
   id="svg18"
   sodipodi:docname="storebrand icon.svg"
   width="31.93"
   height="15.843351"
   inkscape:version="0.92.5 (2060ec1f9f, 2020-04-08)">
  <metadata
     id="metadata22">
    <rdf:RDF>
      <cc:Work
         rdf:about="">
        <dc:format>image/svg+xml</dc:format>
        <dc:type
           rdf:resource="http://purl.org/dc/dcmitype/StillImage" />
        <dc:title></dc:title>
      </cc:Work>
    </rdf:RDF>
  </metadata>
  <sodipodi:namedview
     pagecolor="#ffffff"
     bordercolor="#666666"
     borderopacity="1"
     objecttolerance="10"
     gridtolerance="10"
     guidetolerance="10"
     inkscape:pageopacity="0"
     inkscape:pageshadow="2"
     inkscape:window-width="1920"
     inkscape:window-height="1043"
     id="namedview20"
     showgrid="false"
     inkscape:zoom="4.708277"
     inkscape:cx="15.658443"
     inkscape:cy="8.504834"
     inkscape:window-x="1920"
     inkscape:window-y="0"
     inkscape:window-maximized="1"
     inkscape:current-layer="svg18" />
  <defs
     id="defs4">
    <style
       id="style2">
      .cls-2,.cls-3{fill:#d92e27}.cls-2{fill-rule:evenodd}
    </style>
  </defs>
  <path
     d="m 31.91,8.0226379 v -0.1 a 8.37,8.37 0 0 0 -2.14,-5.59 8.21,8.21 0 0 0 -11,-0.42 14.71,14.71 0 0 0 -2.77,-0.26 14.3,14.3 0 0 0 -2.74,0.27 A 8.12,8.12 0 0 0 7.98,0.00263785 8.12,8.12 0 0 0 0,7.9226379 v 0.51 a 7.14,7.14 0 0 0 2.14,5.0700001 8.15,8.15 0 0 0 5.76,2.34 8,8 0 0 0 6.1,-2.7 17.59,17.59 0 0 0 1.94,0.11 15.84,15.84 0 0 0 2,-0.12 8,8 0 0 0 6.06,2.71 8.18,8.18 0 0 0 5.76,-2.34 7.14,7.14 0 0 0 2.17,-5.0800001 c 0,-0.13 -0.01,-0.26 -0.02,-0.4 z m -26.74,1.7 a 3.37,3.37 0 0 1 -0.93,-1.75 3.31,3.31 0 0 1 0.95,-1.86 3.81,3.81 0 0 1 2.29,-1.08 v 3.45 a 3.38,3.38 0 0 0 1,2.3100001 4.9,4.9 0 0 1 -0.54,0 A 3.94,3.94 0 0 1 5.17,9.7226379 Z M 24,10.832638 a 3.81,3.81 0 0 1 -0.59,-0.05 3.37,3.37 0 0 0 1,-2.3200001 v -3.44 a 3.85,3.85 0 0 1 2.33,1.09 3.31,3.31 0 0 1 1,1.86 A 3.67,3.67 0 0 1 24,10.832638 Z"
     id="path6"
     inkscape:connector-curvature="0"
     style="fill:#ffffff" />
  <path
     class="cls-2"
     d="m 7.92,12.422638 a 4.16,4.16 0 0 1 -4.29,-4.0000001 4.15,4.15 0 0 1 4.29,-4 4.35,4.35 0 0 1 3.73,2 5.37,5.37 0 0 0 3.55,1.31 7.16,7.16 0 0 0 -7.28,-6.17 7.08,7.08 0 0 0 -7.32,6.86 7.09,7.09 0 0 0 7.32,6.8400001 7.53,7.53 0 0 0 5.4,-2.23 10.84,10.84 0 0 1 -3.32,-1.09 4.54,4.54 0 0 1 -2.08,0.48 z"
     id="path8"
     inkscape:connector-curvature="0"
     style="fill:#d92e27;fill-rule:evenodd" />
  <path
     class="cls-3"
     d="m 24,1.6026379 a 7.16,7.16 0 0 0 -7.28,6.17 5.37,5.37 0 0 0 3.58,-1.35 4.35,4.35 0 0 1 3.7,-2 4.15,4.15 0 0 1 4.29,4 4.16,4.16 0 0 1 -4.29,4.0000001 4.47,4.47 0 0 1 -2.1,-0.52 10.65,10.65 0 0 1 -3.31,1.11 7.56,7.56 0 0 0 5.41,2.26 7.09,7.09 0 0 0 7.35,-6.8500001 7.09,7.09 0 0 0 -7.35,-6.82 z"
     id="path10"
     inkscape:connector-curvature="0"
     style="fill:#d92e27" />
  <path
     class="cls-2"
     d="m 23.86,8.4226379 v -2.23 h -0.08 c -0.53,1.93 -3.78,3.43 -7.78,3.43 -4,0 -7.29,-1.5 -7.82,-3.44 H 8.1 v 2.24 a 2.8,2.8 0 0 0 1.23,2.1300001 10.31,10.31 0 0 0 5.3,1.87 c 0.43,0 0.87,0.05 1.32,0.05 0.45,0 0.92,0 1.36,-0.05 a 10.29,10.29 0 0 0 5.33,-1.8 2.8,2.8 0 0 0 1.22,-2.2000001 z"
     id="path12"
     inkscape:connector-curvature="0"
     style="fill:#d92e27;fill-rule:evenodd" />
  <path
     class="cls-3"
     d="m 16,6.8226379 a 0.2,0.2 0 0 0 0.11,0 7.68,7.68 0 0 1 1.64,-3.4 9.25,9.25 0 0 0 -1.75,-0.2 9.73,9.73 0 0 0 -1.8,0.2 7.73,7.73 0 0 1 1.67,3.41 0.2,0.2 0 0 0 0.13,-0.01 z"
     id="path14"
     inkscape:connector-curvature="0"
     style="fill:#d92e27" />
</svg>
