<svg xmlns="http://www.w3.org/2000/svg" viewBox="0 0 147.4 17.92">
  <defs>
    <style>
      .cls-2,.cls-3{fill:#d92e27}.cls-2{fill-rule:evenodd}
    </style>
  </defs>
  <path d="M38.91 15.6v-.1a8.37 8.37 0 0 0-2.14-5.59 8.21 8.21 0 0 0-11-.42A14.71 14.71 0 0 0 23 9.23a14.3 14.3 0 0 0-2.74.27 8.12 8.12 0 0 0-5.28-1.92A8.12 8.12 0 0 0 7 15.5v.51a7.14 7.14 0 0 0 2.14 5.07 8.15 8.15 0 0 0 5.76 2.34 8 8 0 0 0 6.1-2.7 17.59 17.59 0 0 0 1.94.11 15.84 15.84 0 0 0 2-.12A8 8 0 0 0 31 23.42a8.18 8.18 0 0 0 5.76-2.34A7.14 7.14 0 0 0 38.93 16c0-.13-.01-.26-.02-.4zm-26.74 1.7a3.37 3.37 0 0 1-.93-1.75 3.31 3.31 0 0 1 .95-1.86 3.81 3.81 0 0 1 2.29-1.08v3.45a3.38 3.38 0 0 0 1 2.31 4.9 4.9 0 0 1-.54 0 3.94 3.94 0 0 1-2.77-1.07zM31 18.41a3.81 3.81 0 0 1-.59-.05 3.37 3.37 0 0 0 1-2.32V12.6a3.85 3.85 0 0 1 2.33 1.09 3.31 3.31 0 0 1 1 1.86A3.67 3.67 0 0 1 31 18.41z" transform="translate(-7.02 -5.5)" fill="#fff"/>
  <path class="cls-2" d="M14.92 20a4.16 4.16 0 0 1-4.29-4 4.15 4.15 0 0 1 4.29-4 4.35 4.35 0 0 1 3.73 2 5.37 5.37 0 0 0 3.55 1.31 7.16 7.16 0 0 0-7.28-6.17A7.08 7.08 0 0 0 7.6 16a7.09 7.09 0 0 0 7.32 6.84 7.53 7.53 0 0 0 5.4-2.23A10.84 10.84 0 0 1 17 19.52a4.54 4.54 0 0 1-2.08.48z" transform="translate(-7.02 -5.5)"/>
  <path class="cls-3" d="M31 9.18a7.16 7.16 0 0 0-7.28 6.17A5.37 5.37 0 0 0 27.3 14a4.35 4.35 0 0 1 3.7-2 4.15 4.15 0 0 1 4.29 4A4.16 4.16 0 0 1 31 20a4.47 4.47 0 0 1-2.1-.52 10.65 10.65 0 0 1-3.31 1.11A7.56 7.56 0 0 0 31 22.85 7.09 7.09 0 0 0 38.35 16 7.09 7.09 0 0 0 31 9.18z" transform="translate(-7.02 -5.5)"/>
  <path class="cls-2" d="M30.86 16v-2.23h-.08C30.25 15.7 27 17.2 23 17.2s-7.29-1.5-7.82-3.44h-.08V16a2.8 2.8 0 0 0 1.23 2.13 10.31 10.31 0 0 0 5.3 1.87c.43 0 .87.05 1.32.05s.92 0 1.36-.05a10.29 10.29 0 0 0 5.33-1.8 2.8 2.8 0 0 0 1.22-2.2z" transform="translate(-7.02 -5.5)"/>
  <path class="cls-3" d="M23 14.4a.2.2 0 0 0 .11 0 7.68 7.68 0 0 1 1.64-3.4 9.25 9.25 0 0 0-1.75-.2 9.73 9.73 0 0 0-1.8.2 7.73 7.73 0 0 1 1.67 3.41.2.2 0 0 0 .13-.01z" transform="translate(-7.02 -5.5)"/>
  <path d="M45.57 13.29c0-1.34 1.77-1.51 2.87-1.51a18.8 18.8 0 0 1 3.26.36v-1.7a22.48 22.48 0 0 0-3.65-.33c-2.26 0-4.66.74-4.66 3.33 0 2.2 1.81 2.8 3.39 3.21 1.12.28 3.43.41 3.43 1.94 0 1.27-1.6 1.66-3.19 1.66a16.55 16.55 0 0 1-3.56-.52v1.77a19.9 19.9 0 0 0 3.84.41c3.34 0 5.15-1.38 5.15-3.6 0-4.31-6.88-2.57-6.88-5.02zM58.28 6.27L56.12 7v3.34h-2.37V12h2.37v6.92c0 2.66 1.14 2.81 3.43 2.81h1.9V20h-1.71c-1.08 0-1.46-.09-1.46-1.36V12h3.25v-1.6h-3.25zM68.87 10.07c-3.63 0-5.72 2.25-5.72 5.87s2.07 6 5.72 6c3.34 0 5.71-2.51 5.71-6s-2.11-5.87-5.71-5.87zm0 10.27c-2.25 0-3.41-1.73-3.41-4.4s1.18-4.25 3.41-4.25 3.4 1.6 3.4 4.25-1.16 4.4-3.4 4.4zM79.18 10.35h-2v11.33h2.16v-8.57c1.14-.79 2.2-.88 4.36-.88v-2a7.32 7.32 0 0 0-4.55 1.18zM90.37 10.11c-2.91 0-5.37 1.69-5.37 5.68s2.2 6.14 6.19 6.14a14.8 14.8 0 0 0 3.78-.4V20a16.75 16.75 0 0 1-3.09.33c-1.64 0-4.16-.11-4.53-3.6h8.5v-.57c0-3.65-1.57-6.05-5.48-6.05zm-3 5.07c.07-2.22 1.08-3.53 3-3.53 2.27 0 3 1.48 3 3.53zM102.88 10.05a19.12 19.12 0 0 0-2.52.17V5.5H98.2v16.05a26.37 26.37 0 0 0 4.06.36c3.58 0 6.25-2.13 6.25-5.89s-2.18-5.97-5.63-5.97zm-.62 10.22a13.62 13.62 0 0 1-1.92-.12v-8.31a14.89 14.89 0 0 1 2-.15c2.7 0 3.93 1.53 3.93 4.31-.04 2.61-1.38 4.27-4.01 4.27zM113.11 10.35h-2v11.33h2.16v-8.57c1.14-.79 2.2-.88 4.36-.88v-2a7.32 7.32 0 0 0-4.55 1.18zM123.4 10.11a19.88 19.88 0 0 0-4 .41v1.69a21.71 21.71 0 0 1 3.75-.46c3.15 0 3.26.59 3.26 3-.76 0-1.34-.06-1.84-.06-2.37 0-6 0-6 3.53 0 3.07 2.05 3.71 5 3.71a41 41 0 0 0 5-.26v-7.8c0-3.32-2.02-3.76-5.17-3.76zm3 10.14c-1.1.07-1.53.11-2.12.11-1.72 0-3.45-.19-3.45-2.09 0-1.66 1.38-2 3.65-2 .32 0 1 0 1.92.07zM138.3 10.11c-1.55 0-2.33.26-4.57 1.26v-1h-2v11.31h2.14V13a11.46 11.46 0 0 1 3.69-1c1.94 0 2 1.31 2 2.52v7.23h2.18v-8.18a3.23 3.23 0 0 0-3.44-3.46zM154.41 5.5h-2.15v4.68a15.64 15.64 0 0 0-2.46-.18c-3.71 0-5.76 2.44-5.76 6.06 0 3.82 2.67 5.82 6.25 5.82a28 28 0 0 0 4.12-.38c.03-2.5 0-11.8 0-16zm-2.15 14.67c-.93.08-1.47.1-1.88.1-2.59 0-4-1.72-4-4.25 0-2.95 1.38-4.33 3.92-4.33a12 12 0 0 1 2 .19z" transform="translate(-7.02 -5.5)"/>
</svg>