<svg width="97" height="30" viewBox="0 0 97 30" fill="none" xmlns="http://www.w3.org/2000/svg">
<path d="M96.6723 8.84809C96.2293 7.59978 95.4039 6.51831 94.3105 5.75346C93.2171 4.98861 91.9097 4.57824 90.5695 4.57917H90.5115C89.6407 4.57823 88.7787 4.75153 87.9777 5.0886C87.1767 5.42567 86.4532 5.91951 85.851 6.54029C85.2491 5.91962 84.5258 5.42584 83.7251 5.08877C82.9243 4.7517 82.0626 4.57834 81.192 4.57917H81.134C79.587 4.57755 78.0912 5.12561 76.9201 6.12309V5.63538C76.9035 5.39855 76.7967 5.17671 76.621 5.01453C76.4454 4.85235 76.2139 4.76187 75.9734 4.76132H71.6568C71.5312 4.76132 71.4068 4.78576 71.2907 4.83325C71.1747 4.88074 71.0693 4.95034 70.9806 5.03807C70.8918 5.1258 70.8214 5.22994 70.7735 5.34453C70.7256 5.45912 70.701 5.58192 70.7012 5.70589V28.878C70.7012 29.1281 70.8019 29.368 70.9811 29.5448C71.1603 29.7217 71.4034 29.8211 71.6568 29.8211H75.9734C76.204 29.8206 76.4266 29.7378 76.6001 29.5879C76.7736 29.4381 76.8862 29.2313 76.9171 29.0058V12.3752C76.9171 12.3193 76.9171 12.2635 76.9171 12.2077C76.948 11.8322 77.1158 11.4804 77.3896 11.2178C77.6633 10.9552 78.0244 10.7996 78.4056 10.7798H79.2049C79.5371 10.8029 79.8546 10.9242 80.1159 11.128C80.3034 11.2784 80.4536 11.4691 80.5553 11.6855C80.6569 11.9018 80.7072 12.1382 80.7023 12.3766L80.7187 28.9264C80.7187 29.1767 80.8193 29.4167 80.9985 29.5938C81.1777 29.7709 81.4207 29.8706 81.6743 29.871H85.9909C86.2373 29.8724 86.4748 29.7799 86.6537 29.6126C86.8326 29.4454 86.9391 29.2164 86.951 28.9734V12.3575C86.9454 12.0949 87.0069 11.8352 87.13 11.6023C87.253 11.3694 87.4336 11.1709 87.6551 11.0252C87.8936 10.8731 88.1668 10.7822 88.4499 10.7607H89.2477C89.6589 10.782 90.0454 10.9608 90.325 11.259C90.6047 11.5572 90.7554 11.9513 90.7452 12.3575L90.763 28.8853C90.763 29.1354 90.8637 29.3753 91.0429 29.5522C91.2221 29.729 91.4652 29.8284 91.7186 29.8284H96.0352C96.1609 29.8286 96.2853 29.8044 96.4014 29.757C96.5175 29.7097 96.623 29.6403 96.7119 29.5527C96.8008 29.4651 96.8714 29.3611 96.9195 29.2466C96.9676 29.132 96.9924 29.0093 96.9924 28.8853V11.1104C97.0306 10.344 96.9194 9.57751 96.6649 8.85249" fill="#00BAF2"/>
<path d="M67.4037 4.82274H64.9313V0.866713C64.9319 0.753226 64.9098 0.64074 64.8662 0.535707C64.8227 0.430674 64.7585 0.335157 64.6775 0.254637C64.5964 0.174116 64.5001 0.110175 64.394 0.066478C64.2879 0.0227812 64.174 0.000191852 64.059 0C64.0039 0.000638864 63.949 0.00704102 63.8953 0.0190978C61.152 0.7536 61.7042 4.50837 56.6985 4.82862H56.2117C56.1416 4.82875 56.0717 4.83663 56.0033 4.85212C55.7923 4.89936 55.6037 5.01592 55.4685 5.18271C55.3333 5.34951 55.2595 5.55665 55.2591 5.77025V10.0304C55.2591 10.2806 55.3597 10.5207 55.5389 10.6978C55.7181 10.8749 55.9611 10.9745 56.2147 10.9749H58.824V29.0657C58.8238 29.1882 58.8481 29.3096 58.8954 29.4228C58.9427 29.5361 59.0122 29.639 59.0998 29.7257C59.1874 29.8125 59.2915 29.8814 59.4061 29.9284C59.5207 29.9755 59.6436 29.9998 59.7677 30H64.0427C64.2935 29.9996 64.5339 29.901 64.7111 29.7258C64.8883 29.5507 64.9878 29.3133 64.9878 29.0657V10.9764H67.4096C67.5351 10.9762 67.6594 10.9516 67.7752 10.904C67.8911 10.8565 67.9963 10.7868 68.0849 10.6991C68.1735 10.6114 68.2437 10.5073 68.2916 10.3928C68.3394 10.2784 68.3639 10.1557 68.3637 10.0318V5.77172C68.3637 5.52198 68.2632 5.28247 68.0843 5.10588C67.9054 4.92929 67.6627 4.83008 67.4096 4.83008" fill="#00BAF2"/>
<path d="M51.8509 4.8232H47.5342C47.2811 4.8232 47.0382 4.92235 46.859 5.0989C46.6799 5.27545 46.579 5.51495 46.5786 5.76483V14.5891C46.5747 14.8513 46.4666 15.1014 46.2775 15.2855C46.0884 15.4696 45.8336 15.573 45.568 15.5734H43.755C43.6219 15.5734 43.4902 15.5475 43.3673 15.4972C43.2444 15.4469 43.1327 15.3732 43.0387 15.2803C42.9447 15.1874 42.8702 15.0771 42.8194 14.9557C42.7686 14.8343 42.7426 14.7043 42.7428 14.573L42.7235 5.75895C42.7231 5.50908 42.6222 5.26958 42.443 5.09303C42.2639 4.91648 42.021 4.81732 41.7678 4.81732H37.4512C37.3257 4.81713 37.2014 4.84133 37.0854 4.88855C36.9694 4.93576 36.8639 5.00507 36.7751 5.09251C36.6862 5.17995 36.6156 5.28381 36.5674 5.39816C36.5192 5.51251 36.4943 5.6351 36.4941 5.75895V15.4279C36.4594 16.263 36.6002 17.0961 36.9077 17.8748C37.2153 18.6535 37.6828 19.3609 38.281 19.9525C38.8792 20.5441 39.595 21.0071 40.3834 21.3122C41.1718 21.6174 42.0157 21.7581 42.8619 21.7256C42.8619 21.7256 45.6558 21.7256 45.7421 21.7432C45.9888 21.7683 46.2173 21.8824 46.384 22.0636C46.5506 22.2448 46.6436 22.4804 46.6451 22.7251C46.6466 22.9698 46.5565 23.2064 46.392 23.3896C46.2276 23.5728 46.0004 23.6895 45.754 23.7175L45.6826 23.7293L39.3595 23.7528C39.106 23.7528 38.863 23.8521 38.6837 24.029C38.5045 24.2059 38.4039 24.4458 38.4039 24.6959V28.956C38.4039 29.2061 38.5045 29.446 38.6837 29.6229C38.863 29.7997 39.106 29.8991 39.3595 29.8991H46.4343C47.2807 29.9328 48.125 29.7932 48.914 29.489C49.703 29.1847 50.4197 28.7225 51.0187 28.1314C51.6178 27.5403 52.0863 26.8332 52.3948 26.0546C52.7032 25.2759 52.8449 24.4427 52.8109 23.6073V5.76483C52.8109 5.64105 52.7862 5.51848 52.7382 5.40414C52.6901 5.2898 52.6197 5.18593 52.531 5.09847C52.4422 5.01101 52.3368 4.94169 52.2209 4.89445C52.105 4.84722 51.9808 4.823 51.8553 4.8232" fill="#002970"/>
<path d="M10.3873 4.82146H0.93835C0.689644 4.82146 0.45112 4.91897 0.275258 5.09253C0.0993964 5.26609 0.000595593 5.50149 0.000595593 5.74694V9.92478C-0.000198531 9.93014 -0.000198531 9.93559 0.000595593 9.94094C0.000595593 9.97032 0.000595593 9.98942 0.000595593 10.0115V28.9249C-0.00682878 29.1637 0.0802165 29.396 0.243302 29.5726C0.406387 29.7491 0.632704 29.8561 0.874335 29.8709H5.27878C5.53223 29.8709 5.77528 29.7716 5.95449 29.5947C6.1337 29.4178 6.23439 29.1779 6.23439 28.9278L6.25077 22.4422H10.3873C11.1688 22.4793 11.9496 22.3548 12.6795 22.0764C13.4094 21.7981 14.0722 21.3721 14.6253 20.8259C15.1785 20.2798 15.6097 19.6254 15.8914 18.905C16.1731 18.1845 16.2989 17.4139 16.2608 16.6425V10.6196C16.299 9.84787 16.1734 9.07676 15.8919 8.35577C15.6104 7.63477 15.1793 6.97981 14.6262 6.43289C14.0732 5.88598 13.4104 5.4592 12.6804 5.17992C11.9504 4.90065 11.1693 4.77505 10.3873 4.81118V4.82146ZM10.0077 12.6292V15.2617C10.0077 15.5267 9.90111 15.781 9.71134 15.9685C9.52156 16.1561 9.26411 16.2617 8.99553 16.2621H6.25077V11.003H8.99553C9.26411 11.0034 9.52156 11.109 9.71134 11.2966C9.90111 11.4841 10.0077 11.7384 10.0077 12.0034V12.6292Z" fill="#002970"/>
<path d="M27.2545 4.8464H21.2574C21.0118 4.83883 20.7731 4.92713 20.5931 5.09213C20.4131 5.25714 20.3063 5.48555 20.2958 5.7278V7.3863V7.42009C20.2958 7.43037 20.2958 7.44212 20.2958 7.44212V9.72936C20.3055 9.98694 20.4183 10.2302 20.6094 10.4059C20.8005 10.5816 21.0544 10.6753 21.3154 10.6666H27.0268C27.2534 10.6959 27.4628 10.8018 27.6194 10.9662C27.776 11.1306 27.87 11.3435 27.8856 11.5686V12.118C27.8725 12.3379 27.7818 12.5464 27.6293 12.7074C27.4768 12.8684 27.2721 12.9716 27.0506 12.9994H24.2224C23.3974 12.939 22.5686 13.0477 21.7881 13.3186C21.0076 13.5895 20.2924 14.0167 19.6872 14.5735C19.0821 15.1303 18.6002 15.8046 18.2718 16.554C17.9433 17.3034 17.7755 18.1118 17.7788 18.9283V23.8964C17.7334 24.6877 17.8592 25.4795 18.1475 26.2192C18.4359 26.9589 18.8804 27.6296 19.4515 28.1868C20.0226 28.744 20.7072 29.175 21.46 29.4512C22.2127 29.7273 23.0163 29.8424 23.8176 29.7886H31.6589C32.3124 29.81 32.9478 29.5744 33.4253 29.1337C33.9029 28.693 34.1836 28.0831 34.2057 27.4382V11.2512C34.2057 7.32607 32.1546 4.8464 27.2545 4.8464ZM27.9437 22.6566V23.3221C27.9429 23.3749 27.9369 23.4275 27.9258 23.4792C27.9169 23.5264 27.9035 23.5727 27.8856 23.6173C27.8118 23.809 27.6798 23.9735 27.5077 24.0884C27.3356 24.2033 27.1318 24.263 26.9241 24.2593H25.1245C24.8633 24.268 24.6094 24.174 24.4185 23.998C24.2275 23.8219 24.1153 23.5783 24.1063 23.3206V22.5156V22.4862V20.3444V19.6701C24.1172 19.4135 24.2302 19.1714 24.4208 18.9964C24.6114 18.8215 24.8643 18.7279 25.1245 18.7358H26.9255C27.187 18.7275 27.4411 18.8218 27.6322 18.998C27.8233 19.1742 27.9358 19.418 27.9452 19.676L27.9437 22.6566Z" fill="#002970"/>
</svg>
