<svg fill="none" height="30" viewBox="0 0 140 30" width="140" xmlns="http://www.w3.org/2000/svg"><g fill="#000a21"><path d="m19.0117 9.74441v3.99539l-.0008-.0008-16.70645 6.323.00239-3.9958z"/><path d="m.00140431 13.1836 21.31469569-8.00999-.0002-5.17361-21.3159 8.0098z"/><path d="m0 29.8064 21.3155-8.0111.0006-5.1725-21.3161 8.0105z"/><path d="m40.8197 20.3495c.2705-.6196.4051-1.2913.3946-1.9685l-.0004.0009c.0062-.53-.0765-1.0572-.2442-1.5595-.1624-.4719-.4168-.9062-.7484-1.277-.3894-.4128-.842-.76-1.3402-1.0282-.6458-.3593-1.3205-.6633-2.0165-.9094v.0015c-.4404-.1631-.8282-.3202-1.1636-.4711-.271-.1191-.5344-.2553-.7882-.4083-.1767-.1082-.3414-.2349-.4916-.3781-.1152-.1093-.2143-.2345-.2944-.3718-.0746-.1357-.1281-.282-.1586-.4341v-.0022c-.0403-.2-.0597-.4039-.0573-.6083-.0058-.2546.0433-.5073.1438-.7408.0997-.21258.2488-.39784.4342-.53978.2239-.16977.4785-.29401.7493-.36553.3535-.09235.7175-.13585 1.0825-.1294.5523.00092 1.1026.06249 1.6417.1836.5846.13198 1.1558.31926 1.7056.55908l.452.19393.1636-.4743.5303-1.52241.1463-.4177-.3976-.17935c-.6455-.29143-1.3207-.50987-2.0135-.65144-.7199-.1458-1.4524-.21825-2.1866-.21585-.6843-.00774-1.3661.08664-2.0233.28-.5927.17604-1.1462.466-1.6304.85402v.00202c-.4633.36756-.8354.83964-1.0865 1.37826-.2482.55411-.3723 1.15705-.3632 1.76535-.0064.5608.0765 1.1191.2453 1.6533.1586.4958.4132.9547.7493 1.3497.367.4193.7984.776 1.2776 1.0566.5829.3456 1.1974.6337 1.8348.8604l.0011.0019c.4778.1746.8913.3381 1.2411.4914.2946.1265.5822.2695.8609.429l.0012-.0013c.1906.1113.3703.2405.5367.3863.1238.1086.2324.2341.3227.3726h-.002c.0797.1342.1374.2803.171.4332.0447.1961.066.3968.0637.5981.0069.2926-.0509.5829-.169.85-.1166.2446-.2904.4571-.5064.6188-.271.1987-.5791.3401-.9056.4162-.4522.108-.9161.1589-1.3809.1515-.3345.0002-.669-.0173-1.0019-.0525-.3378-.0365-.6735-.0905-1.006-.1617-.3408-.0724-.6672-.1581-.9793-.2569-.3049-.0955-.6048-.2069-.8984-.3339l-.644-.2801v2.705l.265.1306c.5795.2731 1.1945.4617 1.8265.5601.7862.1278 1.5815.1884 2.3779.1811.7701.0094 1.5379-.0907 2.2808-.2972.6562-.1854 1.2707-.4973 1.8098-.9187.5113-.3983.9194-.9161 1.1887-1.5091z"/><path d="m125.999 14.0468h-5.829l-.001-.0009h-.497v2.5739h3.508v3.8608c-.884.179-1.785.2686-2.688.2673-.841.0164-1.679-.1095-2.475-.372-.654-.2232-1.244-.5943-1.719-1.0822-.484-.5175-.843-1.1327-1.049-1.8008-.258-.8405-.38-1.7144-.363-2.5907-.014-.8433.113-1.6833.375-2.4878.226-.6747.6-1.2946 1.096-1.8178.481-.5003 1.076-.88718 1.738-1.13021.76-.26863 1.566-.39908 2.376-.38478.637.0017 1.273.07135 1.894.20764.686.15173 1.355.36445 2 .63553l.449.18712.197-.44051.707-1.57978.2-.44972-.462-.19314c-.754-.31588-1.542-.55364-2.349-.70932-.83-.15907-1.674-.23813-2.52-.23606-.816-.00414-1.63.08038-2.427.25131-.741.16001-1.457.41471-2.127.75732-.645.32962-1.236.7513-1.75 1.25034-.514.50489-.947 1.08092-1.284 1.70906-.353.6553-.616 1.3526-.782 2.0738-.178.7735-.265 1.5638-.261 2.3561-.017 1.1803.16 2.3557.524 3.483.327.9907.872 1.9028 1.597 2.6727.708.7438 1.586 1.3193 2.563 1.6813 1.071.3829 2.206.5702 3.347.5523.561 0 1.1-.0181 1.613-.0527.509-.0348.99-.0866 1.443-.1557.458-.0706.897-.1547 1.316-.2526.435-.1015.866-.2186 1.293-.3515l.347-.1084z"/><path d="m129.201 23.2918h10.319v-.0012h.48v-2.5571h-8.089v-4.6522h7.683v-2.5385h-7.683v-3.95279h8.089v-2.54575h-10.799z"/><path d="m83.3683 23.2918h10.3185v-.0012h.48v-2.5571h-8.0893v-4.6522h7.6835v-2.5385h-7.6835v-3.95279h8.0893v-2.54575h-10.7985z"/><path d="m62.3635 7.04426h-2.7509v16.26404h10.263v-2.5739h-7.5121z"/><path d="m68.2581 9.58947v-2.5452h13.4982v2.5452h-5.3717v13.70233h-2.7659v-13.70233z"/><g clip-rule="evenodd" fill-rule="evenodd"><path d="m49.366 7.04426h2.1752l6.4592 16.24754h-2.9094l-1.9212-4.8417h-5.5263l-1.8991 4.8417h-2.8653zm.806 3.79274-1.8936 5.4158h3.7817z"/><path d="m97.3687 7.03881v16.24749h2.6993s2.629.1193 4.26-.2208c1.327-.277 2.199-.5764 3.301-1.4547 1.877-1.497 2.711-3.732 2.711-6.843 0-3.1109-1.11-5.01281-2.714-6.31018-1.176-.95126-2.686-1.41881-4.795-1.41605-.814.00107-2.763-.00276-2.763-.00276zm2.6993 2.16804v11.81465s2.446.0676 3.594-.1974c1.328-.3064 2.151-.8061 2.788-1.6148.638-.8088 1.176-2.1327 1.176-4.2739s-.563-3.6097-1.824-4.6559c-1.294-1.07265-3.051-1.07265-4.163-1.07265s-1.571 0-1.571 0z"/></g></g></svg>