<?xml version="1.0" encoding="UTF-8"?>
<svg class="icon" width="476.4" height="488.77" version="1.1" viewBox="0 0 476.40494 977.54303" xmlns="http://www.w3.org/2000/svg" xmlns:cc="http://creativecommons.org/ns#" xmlns:dc="http://purl.org/dc/elements/1.1/" xmlns:rdf="http://www.w3.org/1999/02/22-rdf-syntax-ns#">
<metadata>
<rdf:RDF>
<cc:Work rdf:about="">
<dc:format>image/svg+xml</dc:format>
<dc:type rdf:resource="http://purl.org/dc/dcmitype/StillImage"/>
<dc:title/>
</cc:Work>
</rdf:RDF>
</metadata>
<path d="m658.45 770.66c-47.385-57.86-87.579-107.52-128.45-156.63-29.385-35.284-56.37-33.541-87.649 1.424-36.403 40.684-77.075 77.674-117.06 115.01-50.161 46.838-102.24 47.774-150.48 1.088-56.41-54.581-110.84-111.23-165.96-167.14-46.308-46.963-46.991-101.76-7.38-147.69 58.864-68.269 124.14-131.53 190.77-192.43 43.727-39.947 93.062-30.012 134.7 8.259 41.998 38.622 82.402 79.11 121.61 120.58 25.481 26.956 47.412 36.291 76.837 4.967 26.566-28.282 57.164-50.118 22.562-95.184-53.354-69.526-122.2-110.96-206.16-130.52-33.346-7.773-61.126-16.394-62.982-62.368-2.399-59.466 21.196-79.556 75.735-65.94 146.59 36.571 267.64 108.01 340.13 247.81 27.764 53.564 29.285 99.173-20.37 139.51-3.659 2.972-6.531 6.894-9.797 10.353-80.1 84.831-80.1 84.831-0.165 167.04 67.279 69.205 68.699 87.077-5.889 201.86zm-259.15-290.5c-56.87-48.332-107.49-122.35-146.68-116.73-47.745 6.851-85.877 80.688-128.18 125.56 44.148 40.141 88.544 111.94 132.35 111.59 44.676-0.349 88.765-71.659 142.51-120.42zm138 249.09c32.217 31.839 58.977 58.307 85.346 84.356-139.36 172.53-409.94 214.53-614.02 98.978-187.6-106.23-269.64-280.81-241.39-513.62 21.695-178.76 165.63-335.35 357.56-383.53 22.575-5.651 70.822 6.461 72.19 15.53 5.694 38.272 20.746 80.604-38.481 105.98-65.911 28.269-136.89 63.346-183.08 115.46-127.72 144.09-114.13 360.07 18.361 491.04 138.3 136.72 348.7 146.12 499.41 22.309 12.614-10.351 25.116-20.787 44.105-36.512z"/>
</svg>
