<?xml version="1.0" encoding="UTF-8"?>
<svg class="icon" width="384.01" height="118.11" version="1.1" viewBox="0 0 384.00601 236.224" xmlns="http://www.w3.org/2000/svg" xmlns:cc="http://creativecommons.org/ns#" xmlns:dc="http://purl.org/dc/elements/1.1/" xmlns:rdf="http://www.w3.org/1999/02/22-rdf-syntax-ns#">
<metadata>
<rdf:RDF>
<cc:Work rdf:about="">
<dc:format>image/svg+xml</dc:format>
<dc:type rdf:resource="http://purl.org/dc/dcmitype/StillImage"/>
<dc:title/>
</cc:Work>
</rdf:RDF>
</metadata>
<path d="m464.22 201.12c-46.4 0-84.224-37.248-84.224-83.008 0-42.464 32.608-77.664 74.368-82.464v-35.296c-61.408 4.96-109.95 55.936-109.95 117.76 0 65.056 53.792 118.11 119.74 118.11 36.064 0 68.448-15.872 90.432-40.864l-25.088-25.056c-15.424 18.752-38.976 30.816-65.28 30.816zm84.416-79.104c-3.392-2.976-3.616-5.376-0.32-8.16 7.36-7.2 14.72-14.4 22.08-21.632 4.704-4.672 7.328-11.776 4.352-19.52-17.792-41.888-59.328-71.616-107.9-72.704v35.136c29.664 0.896 54.976 16.512 69.184 40.192l-17.024 17.088-36.704-36.704c-10.144-10.112-26.592-10.08-36.736 0.032l-43.936 43.936c-10.144 10.144-10.144 26.624 0 36.768l42.496 42.496c10.112 10.112 26.496 10.176 36.672 0.128l37.536-36.48 19.584 18.336 5.984 6.048 18.528 18.496c4.864-6.88 9.024-14.304 12.384-22.176 2.112-5.568 1.088-13.792-3.008-18.112-7.776-7.648-15.392-15.52-23.168-23.168zm-58.72-1.76-23.52 23.552c-0.768 0.8-1.856 1.312-3.072 1.312-1.152 0-2.176-0.48-2.976-1.248l-23.584-23.616c-0.8-0.736-1.312-1.856-1.312-3.04 0-1.152 0.48-2.208 1.248-2.976l23.68-23.68c0.736-0.736 1.792-1.216 2.944-1.216 1.216 0 2.304 0.512 3.072 1.28l23.616 23.616c0.736 0.736 1.216 1.824 1.216 2.976 0 1.216-0.512 2.304-1.312 3.04zm-353.92-69.376c6.528-1.344 6.88-6.272-1.344-6.272h-3.808-43.552-4.448-3.808c-8.256 0-7.872 4.928-1.344 6.272 3.328 0.704 7.36 1.376 10.432 4.64-0.384 1.824-2.016 4.224-4.64 7.488l-46.432 38.272v-27.52c0-0.544-0.032-1.024-0.032-1.568l0.032 0.032c0-18.848 8.896-20 15.232-21.344 6.528-1.344 6.88-6.272-1.344-6.272h-1.952-52-7.008c-8.256 0-7.872 4.896-1.344 6.272 6.272 1.344 15.2 2.496 15.2 21.344l0.064-0.032c-0.032 0.544-0.064 1.024-0.064 1.568v87.84c0 0.512 0.032 0.928 0.032 1.376h-0.032c0 18.88-8.896 20-15.2 21.312-6.528 1.376-6.912 6.304 1.344 6.304h4.544 49.952 6.432c8.224 0 7.84-4.928 1.312-6.304-6.272-1.312-15.2-2.432-15.2-21.312h-0.064c0.032-0.448 0.096-0.864 0.096-1.376v-33.472c19.232 22.72 36.672 43.712 53.216 62.464h41.536 2.048c8.256 0 7.872-4.928 1.312-6.304-6.24-1.312-14.496-8.192-30.048-23.744-12.576-13.984-31.712-35.968-45.856-53.504l39.968-33.184c16.32-13.408 30.496-21.632 36.768-22.976zm119.49 61.12v-0.672c12.576-3.392 33.024-12.16 33.024-33.472 0-10.336-4.512-20.224-12.576-25.632-7.008-4.928-16.864-7.616-33.728-7.616h-87.072c-8.224 0-7.872 4.928-1.312 6.272 6.304 1.344 15.232 2.496 15.232 21.344v90.496 0.256c0 18.88-8.896 20-15.232 21.312-6.56 1.376-6.912 6.304 1.312 6.304h74.496c17.76 0 32.576-2.688 44.032-8.992 13.216-7.36 21.568-18.88 21.568-33.92 0.032-22.432-17.504-32.352-39.744-35.68zm-52.96-46.72c0-6.08 4.48-10.336 10.496-10.336h13.568 0.32 0.256c16.096 0 26.112 12.192 26.112 25.6 0 17.792-29.088 26.72-50.752 27.808zm28.32 115.46c-18.848 0-28.32-1.824-28.32-18.176v-43.776c24.672 1.024 55.904 9.312 55.904 31.168-0.032 20.224-12.096 30.784-27.584 30.784zm-260.1-129.86c6.528-1.376 6.912-6.272-1.344-6.272h-3.52-51.136-6.752c-8.224 0-7.872 4.896-1.312 6.272 6.24 1.344 15.2 2.496 15.2 21.344v36.384h-60.16v-36.384c0-18.848 8.896-20 15.232-21.344 6.528-1.376 6.912-6.272-1.344-6.272h-7.68-45.472-8.256c-8.224 0-7.872 4.896-1.312 6.272 6.272 1.344 15.2 2.496 15.2 21.344v90.752c0 18.88-8.896 20-15.2 21.312-6.56 1.376-6.912 6.304 1.312 6.304h4.224 48.96 8.224c8.256 0 7.872-4.928 1.344-6.304-6.304-1.312-15.232-2.432-15.232-21.312v-38.304h60.16v38.304c0 18.88-8.928 20-15.2 21.312-6.56 1.376-6.912 6.304 1.312 6.304h3.168 50.016 8.256c8.256 0 7.872-4.928 1.344-6.304-6.304-1.312-15.232-2.432-15.232-21.312v-90.752c0-18.816 8.896-20 15.2-21.344z"/>
</svg>
