<?xml version="1.0" encoding="UTF-8"?>
<svg width="77.17" height="121.52" version="1.1" viewBox="0 0 155.31557 121.5143" xmlns="http://www.w3.org/2000/svg" xmlns:cc="http://creativecommons.org/ns#" xmlns:dc="http://purl.org/dc/elements/1.1/" xmlns:rdf="http://www.w3.org/1999/02/22-rdf-syntax-ns#">
<metadata>
<rdf:RDF>
<cc:Work rdf:about="">
<dc:format>image/svg+xml</dc:format>
<dc:type rdf:resource="http://purl.org/dc/dcmitype/StillImage"/>
<dc:title>Пиастрикс Лого Piastrix Logo</dc:title>
</cc:Work>
</rdf:RDF>
</metadata>
<defs>
<style>#logo_1 {stroke-width:4;stroke-dasharray: 245;stroke-dashoffset: 245;animation:draw_1 4s forwards;}
      @keyframes draw_1 {75% {stroke-width: 3;stroke-dashoffset:0;}
        100% {stroke-dashoffset:0;stroke-width: 0;fill:rgba(255,64,129,1);}}
      #logo_2 {stroke-width:4;stroke-dasharray:145;stroke-dashoffset:145;animation: draw_2 4s forwards;}
      @keyframes draw_2 {75% {stroke-width:3;stroke-dashoffset: 0;}
        100% {stroke-dashoffset: 0;stroke-width: 0;fill: rgba(255, 216, 0, 1);}}
      #logo_3 {stroke-width:2;stroke-dasharray: 469;stroke-dashoffset: 469;animation: draw_3 4s forwards;}
      @keyframes draw_3 {75% {stroke-width: 3;stroke-dashoffset: 0;}
        100% {stroke-dashoffset: 0;stroke-width: 0;fill:rgba(3, 169, 244, 1);}}</style>
</defs>
<title>Пиастрикс Лого Piastrix Logo</title>
<g transform="translate(2.6955 -59.528)" fill="rgba(255, 64, 129, 1)" stroke="#ff4081" stroke-dasharray="245" stroke-dashoffset="245" stroke-width="4">
<path class="cls-2" d="m99.53 97.24q-12.19-19.24-14.2-39.92-17.73-14.4-56.54-14.14a74.9 74.9 0 0 0 4.62 30.82h-0.26a60.66 60.66 0 0 0 11.06 17.24 0.74 0.74 0 0 0 0.26 0.51 37.49 37.49 0 0 0 5.4 4.88q17.07 13.08 40.45 16.2a30.79 30.79 0 0 1 9.21 -15.59z"/>
<path class="cls-2" d="m49.86 157.81h-0.26q-11.05 16.71-14.14 47.81 17 2.57 31.36-1.54a60.33 60.33 0 0 0 22.36 -12.34v-0.26l1.54-1.54h0.28q15.37-16.26 20.5-40.46a30.79 30.79 0 0 1 -12.5 -7.27q-23.57 15.37-49.14 15.6z"/>
<path class="cls-2" d="m44.72 103.07a59.11 59.11 0 0 1 -4.88 -4.37q-18 4.88-39.84 22.36a70.91 70.91 0 0 0 22.88 21.33 55.18 55.18 0 0 0 24.67 7.2h2.31q23-0.22 44-13.81a30.56 30.56 0 0 1 -4.36 -14.71q-25.71-3.43-44.78-18z"/>
<path class="cls-2" d="m136.62 93.9q12.15-18.72 13.74-38.64v-0.51a44.27 44.27 0 0 0 0.26 -4.88 54.89 54.89 0 0 0 -7.45 -27q-7.17-12.82-21.28-22.87h-0.06q-14.14 10-21.33 22.88a54.89 54.89 0 0 0 -7.45 27 44.27 44.27 0 0 0 0.26 4.88v0.51q1.53 19.21 12.92 37.31a30.55 30.55 0 0 1 30.4 1.33z"/>
<path class="cls-2" d="m147.53 184.8v-0.26q-2.4-18.94-13.31-37.15a30.58 30.58 0 0 1 -14 3.38h-0.6q-5.62 26.59-22.72 44.57a0.23 0.23 0 0 0 -0.26 0.26 0.23 0.23 0 0 1 -0.26 0.26q3.86 19.79 23.9 44a74.54 74.54 0 0 0 21.08 -23.13 55.83 55.83 0 0 0 6.94 -21.59 2.76 2.76 0 0 1 -0.51 -1.54 29.92 29.92 0 0 0 -0.26 -8.8z"/>
</g>
<g transform="translate(2.6955 -59.528)" fill="rgba(255, 216, 0, 1)" stroke="#ffd800" stroke-dasharray="145" stroke-dashoffset="145" stroke-width="4">
<path class="cls-3" d="m112.32 98.35c-0.39 0.13-0.8 0.23-1.18 0.4a22.48 22.48 0 0 0 -13.61 24.9c0.12 0.67 0.24 1.34 0.41 2s0.38 1.33 0.61 2a23.75 23.75 0 0 0 8.45 11.15c0.33 0.22 0.65 0.44 1 0.65a23 23 0 0 0 2.26 1.23c0.54 0.27 1.09 0.53 1.66 0.76a23 23 0 0 0 8.4 1.63c0.27 0 0.52-0.07 0.78-0.08v-0.08a25.64 25.64 0 0 0 8.83 -2 23 23 0 0 0 -13.78 -43.62c-0.33 0.07-0.65 0.12-1 0.2a22.76 22.76 0 0 0 -2.83 0.86z"/>
</g>
</svg>
