<?xml version="1.0" encoding="UTF-8"?>
<svg width="1e3" height="289.65" version="1.1" viewBox="0 0 264.58333 76.637362" xmlns="http://www.w3.org/2000/svg" xmlns:cc="http://creativecommons.org/ns#" xmlns:dc="http://purl.org/dc/elements/1.1/" xmlns:rdf="http://www.w3.org/1999/02/22-rdf-syntax-ns#">
<metadata>
<rdf:RDF>
<cc:Work rdf:about="">
<dc:format>image/svg+xml</dc:format>
<dc:type rdf:resource="http://purl.org/dc/dcmitype/StillImage"/>
<dc:title/>
</cc:Work>
</rdf:RDF>
</metadata>
<g transform="translate(0 -220.36)">
<path d="m72.537 292.9h-72.536v-72.539h72.536z" fill="#fff"/>
<path d="m29.169 269.32 7.7321-6.2415c-1.2967-1.6275-2.5275-3.2693-3.6873-4.9644-8.9434-12.94-14.242-26.104-10.416-37.755h-22.798v12.574z" fill="#f15a22"/>
<path d="m41.361 250.52c0.48381-4.107 1.7289-11.853 9.2617-17.607 6.5225-4.9662 14.685-5.9213 21.914-2.8513v-9.6993h-40.245c-2.6556 11.802 4.3205 24.77 9.0696 30.158" fill="#f15a22"/>
<path d="m51.124 238.69-0.02846 0.0213c-7.5737 6.1543-5.7114 15.813 1.3394 24.473 5.4304 6.6844 12.696 11.377 20.101 7.8192v-28.516c-6.6524-6.8142-14.637-9.3098-21.412-3.7976" fill="#f15a22"/>
<path d="m3.4578e-4 247.81v45.083h0.010672l21.946-17.752z" fill="#f15a22"/>
<path d="m39.914 266.66c-2.1558 1.7716-4.8185 3.9398-7.773 6.3536l2.8513 3.5503c4.1213 5.1547 10.153 14.086 17.622 11.668l0.27748 0.33973-5.3077 4.324h24.954v-17.15c-12.839 6.9761-23.877 0.62611-32.623-9.0856" fill="#f15a22"/>
<path d="m27.871 282.51-2.9544-3.6748c-6.0565 4.8612-12.414 9.9572-17.574 14.057h27.92c-1.8125-3.8474-5.1067-7.5328-7.3923-10.382" fill="#f15a22"/>
<path d="m132.95 250.66c6.6844-1.1686 11.035-6.9405 11.035-14.306 0-9.8149-8.4951-15.992-23.034-15.992h-28.774v0.3344c5.8786 3.223 5.7435 8.4258 5.7435 13.395v44.966c0 5.0551 0.13518 10.311-5.7435 13.483v0.32729h13.856c13.536 0 23.918 0.23123 31.666-3.4116 8.2319-3.8687 13.219-10.811 13.219-19.276 0-10.804-8.038-17.431-17.969-19.52m-23.746-23.611 9.107 0.14941c6.7538 0 13.659 3.3066 13.659 10.912 0 9.0376-6.1116 11.453-14.818 11.453l-7.9473 0.0107v-0.0107zm8.7779 58.367-8.7779 0.0125v-28.993l9.4378-0.0427c10.984 0 20.05 4.0786 20.05 14.772 0 10.471-9.5179 14.251-20.71 14.251" fill="#006885"/>
<path d="m172.98 279.06c0 6.1864-0.11206 10.578 5.731 14.013v0.31127h-19.505v-0.31127c5.836-3.4347 5.7346-7.8263 5.7346-14.013v-44.06c0-6.1401 0.10139-11.008-5.7274-14.299v-0.33974h16.192v0.1085c0.43045 1.3145 1.1473 2.0526 1.6471 2.7641 0.51938 0.68658 1.5404 2.1932 1.5404 2.1932l37.143 50.06v-40.916c0-6.1686 0.096-10.58-5.7274-13.87v-0.33974h19.388v0.33974c-5.7257 3.2906-5.7257 7.7018-5.7257 13.87v62.426c-3.5414-1.4052-13.415-9.6264-20.446-19.086-12.622-16.951-30.243-40.526-30.243-40.526z" fill="#006885"/>
<path d="m247.48 233.51c0-5.0676-0.0872-9.5855-5.7186-12.803v-0.34151h22.821v0.34151c-5.6545 3.1199-5.7043 7.8352-5.7043 12.803v46.344c0 4.9519-0.13163 9.9714 5.7043 13.2v0.32728h-22.821v-0.32728c5.8697-3.2746 5.7186-8.2052 5.7186-13.17z" fill="#006885"/>
</g>
</svg>
