<?xml version="1.0" encoding="UTF-8"?>
<svg xmlns="http://www.w3.org/2000/svg" width="128" height="32" viewBox="0 0 128 32" fill="none"> <path d="M72.2349 21.747C70.8253 21.747 69.6686 21.3133 68.7831 20.4639C67.8975 19.6145 67.5 18.494 67.5 17.1205C67.5 16.7771 67.5361 16.4337 67.5903 16.0904C67.8433 14.4277 68.5662 13.0542 69.759 11.9518C70.9879 10.7952 72.4156 10.1988 74.1144 10.1988C76.1204 10.1988 77.7108 10.8855 78.9036 12.2952L81.759 6.65663C79.5 4.5241 76.4457 4.03614 74.4759 4.03614C71.1867 4.03614 68.1867 5.10241 65.4939 7.23494C62.6204 9.51205 60.8855 12.4398 60.3253 16C60.1987 16.7229 60.1445 17.4458 60.1445 18.1325C60.1445 21.0783 61.1204 23.4639 63.018 25.2711C64.9518 27.0783 67.5 28 70.6807 28C72.4337 28 76.7168 27.8193 79.518 24.7108L77.6385 19.8313C76.1024 21.0964 74.2951 21.747 72.2349 21.747ZM107.458 13.9217C107.458 11.0482 106.518 8.6988 104.675 6.87349C102.687 4.9759 99.9397 4 96.4518 4C92.5301 4 89.2228 5.19277 86.4939 7.56024C83.8915 9.78313 82.3554 12.6024 81.7951 15.9819C81.7048 16.6687 81.6325 17.3554 81.6325 18.0241C81.6325 20.8976 82.5722 23.247 84.4156 25.0723C86.4216 26.988 89.1506 27.9458 92.6204 27.9458C96.5421 27.9458 99.8132 26.753 102.578 24.3855C105.181 22.1627 106.717 19.3434 107.277 15.9639C107.385 15.2771 107.458 14.5904 107.458 13.9217ZM99.9578 15.9639C99.7048 17.5904 98.9638 18.9458 97.6987 20.0301C96.506 21.0602 95.1325 21.6024 93.6325 21.6024C92.2951 21.6024 91.1927 21.1687 90.3072 20.3193C89.4216 19.4699 88.9879 18.3494 88.9879 16.994C88.9879 16.6506 89.024 16.3434 89.0783 16C89.3313 14.3735 90.0722 13.0181 91.3373 11.9337C92.5662 10.9036 93.9036 10.3614 95.4036 10.3614C96.7409 10.3614 97.8433 10.7952 98.7289 11.6446C99.6144 12.494 100.048 13.6145 100.048 14.9699C100.066 15.2952 100.03 15.6386 99.9578 15.9639ZM121.41 13.5783C119.837 12.9277 118.807 12.4578 118.301 12.1325C117.795 11.8253 117.578 11.5 117.578 11.1566C117.578 10.6325 117.831 10.253 118.355 9.96386C118.771 9.74699 119.259 9.62048 119.855 9.62048C121.355 9.62048 122.729 10.2169 123.994 11.3735L127.048 6.00602C124.916 4.68675 122.566 4.03614 120.036 4.03614C117.506 4.03614 115.373 4.68675 113.584 6.00602C111.741 7.37952 110.639 9.20482 110.295 11.5181C110.205 11.988 110.169 12.4217 110.169 12.8373C110.169 15.1506 111.506 16.7771 114.181 17.7169C115.753 18.241 116.819 18.747 117.398 19.1265C117.994 19.5422 118.283 19.9759 118.283 20.4639C118.283 21.1145 117.976 21.5843 117.307 21.9096C116.801 22.1627 116.187 22.2892 115.5 22.2892C113.873 22.2892 112.175 21.5301 110.458 20.012L107.169 25.4337C109.554 27.1325 112.265 27.9458 115.301 27.9458C118.084 27.9458 120.398 27.259 122.259 25.8855C124.139 24.4398 125.295 22.4699 125.711 19.9398C125.765 19.5241 125.801 19.1627 125.801 18.7831C125.765 16.488 124.319 14.7711 121.41 13.5783Z" fill="#00665B"/> <path d="M20.9819 10.8313C20.9819 8.91568 20.3494 7.41568 19.0663 6.38556C17.7289 5.26508 15.6867 4.68677 13.0301 4.68677H3.59639L0 27.2952H7.01205L8.24096 19.6506H11.241C13.9699 19.6506 16.1566 19.0181 17.8193 17.735C19.4819 16.4518 20.4759 14.6627 20.8554 12.3133C20.9458 11.8253 20.9819 11.3012 20.9819 10.8313ZM10.2651 14.5904H9.01807L9.79518 9.72894H11.0783C12.8313 9.72894 13.7169 10.3615 13.7169 11.6085C13.7169 11.7711 13.7169 11.9518 13.6807 12.1326C13.4277 13.7952 12.3072 14.5904 10.2651 14.5904Z" fill="#00AD67"/> <path d="M37.265 4.65057H27.9939L16.7529 27.259H24.1987L26.1144 23.0301H33.3071L33.8674 27.259H41.3132L37.265 4.65057ZM28.3373 18.0964L31.6264 10.8855L32.6204 18.0783H28.3373V18.0964Z" fill="#00AD67"/> <path d="M55.5181 4.65057L51.0723 10.8494L48.6506 4.65057H40.5181L46.6626 16.8313L45 27.2952H52.012L53.6747 16.8132L63.6687 4.66865L55.5181 4.65057Z" fill="#00AD67"/> </svg>