<svg xmlns="http://www.w3.org/2000/svg" viewBox="0 0 196.209 212.81" width="197" height="213"><defs><linearGradient id="A" x1="55.335" y1="32.657" x2="202.83" y2="180.152" gradientUnits="userSpaceOnUse"><stop offset="0" stop-color="#00aae4"/><stop offset="1" stop-color="#006097"/></linearGradient></defs><path d="M173.985 129.87c-7.524-4.344-15.998-5.604-24.39-5.897-7.042-.246-17.548-4.758-17.548-17.568 0-9.544 7.737-17.225 17.55-17.568 8.392-.293 16.865-1.554 24.387-5.897a44.448 44.448 0 1 0-66.671-38.491c0 8.612 3.063 16.537 6.97 23.887 3.287 6.182 4.95 17.656-6.324 24.164-8.386 4.842-18.852 1.776-24.08-6.6-4.416-7.067-9.746-13.688-17.2-17.997a44.448 44.448 0 1 0 0 76.985c7.46-4.308 12.792-10.925 17.205-17.987 3.624-5.8 12.674-13.192 24.084-6.6 8.373 4.838 10.962 15.438 6.32 24.17-3.908 7.35-6.967 15.272-6.967 23.882a44.447 44.447 0 1 0 66.671-38.492z" fill="url(#A)"/></svg>