<svg xmlns="http://www.w3.org/2000/svg" viewBox="0 0 873.306 251.218"><defs><linearGradient id="A" x1="83.682" y1="72.488" x2="231.177" y2="219.983" gradientUnits="userSpaceOnUse"><stop offset="0" stop-color="#00aae4"/><stop offset="1" stop-color="#006097"/></linearGradient></defs><path d="M318.3 94.85c-2.307-.77-7.177-1.282-12.048-1.282-14.613 0-30.25 11.837-30.25 26.45V189.7h-33.325V65.37h32.044v12.56c7.434-9.23 21.02-15.125 36.145-15.125a67.94 67.94 0 0 1 11.28 1.025zM355.992 0c12.05 0 21.8 9.23 21.8 21.277s-9.74 21.277-21.8 21.277-21.8-9.228-21.8-21.277S343.943 0 355.992 0zm16.663 189.7H339.33V65.37h33.325V189.7zm98.44-126.9a56.9 56.9 0 0 0-36.401 12.573V65.37h-32.05v185.85h33.328v-70.232a52.43 52.43 0 0 0 33.329 11.282c18.458 0 36.142-8.2 47.166-21.027 9.746-11.282 15.63-26.655 15.63-43.577 0-36.66-27.17-64.863-61.003-64.863zm-4.05 99.2c-20.7 0-34.307-14.286-34.307-34.24s13.606-34.24 34.307-34.24c17.67 0 31.997 15.332 31.997 34.24S484.716 162 467.046 162zm267.318 27.7h-33.327V7.7h33.327v182zm135.866-19.74c-12.05 14.356-31.788 22.303-51.014 22.303-37.17 0-65.114-25.634-65.114-64.6 0-34.608 23.585-64.857 60.5-64.857 34.35 0 58.705 28.968 58.705 63.575a54.7 54.7 0 0 1-.77 9.486h-86.134c1.794 17.43 15.894 29.48 33.583 29.48 14.098 0 25.378-7.947 31.275-14.356zm-31.018-58.447c-1.026-11.023-11.023-21.8-24.6-21.8-13.843 0-25.122 10.5-26.66 21.8h51.27zM620.295 62.8a56.9 56.9 0 0 0-36.4 12.573V65.37h-32.05v185.85h33.33v-70.232a52.43 52.43 0 0 0 33.329 11.282c18.46 0 36.142-8.2 47.166-21.028 9.746-11.282 15.63-26.655 15.63-43.577 0-36.66-27.17-64.863-61.003-64.863zm-4.05 99.2c-20.7 0-34.307-14.286-34.307-34.24s13.606-34.24 34.307-34.24c17.67 0 31.997 15.332 31.997 34.24S633.916 162 616.245 162z" fill="#434c54"/><path d="M202.3319,169.7011c-7.5243-4.3445-15.9976-5.6037-24.3906-5.8968-7.0417-.2459-17.5476-4.7583-17.5476-17.5681,0-9.5441,7.7369-17.2252,17.5512-17.5679,8.3923-.2931,16.8648-1.5539,24.387-5.8969A44.4477,44.4477,0,1,0,135.6605,84.28c0,8.6117,3.0629,16.5366,6.9711,23.8868,3.287,6.182,4.95,17.6559-6.3235,24.1644-8.3862,4.8418-18.8523,1.776-24.08-6.5905-4.4158-7.0666-9.7464-13.6878-17.2095-17.9974a44.4475,44.4475,0,1,0,0,76.9852c7.461-4.308,12.7921-10.9249,17.2051-17.9872,3.6238-5.7993,12.6743-13.1915,24.084-6.5992,8.3734,4.838,10.962,15.4379,6.32,24.1688-3.9076,7.3491-6.9666,15.2723-6.9666,23.8825A44.4471,44.4471,0,1,0,202.3319,169.7011Z" transform="translate(-28.347 -25.298)" fill="url(#A)"/></svg>