<?xml version="1.0" encoding="UTF-8"?>
<svg width="2068.6" height="2061" version="1.1" viewBox="0 0 159.493 158.90699" xmlns="http://www.w3.org/2000/svg" xmlns:cc="http://creativecommons.org/ns#" xmlns:dc="http://purl.org/dc/elements/1.1/" xmlns:rdf="http://www.w3.org/1999/02/22-rdf-syntax-ns#">
<metadata>
<rdf:RDF>
<cc:Work rdf:about="">
<dc:format>image/svg+xml</dc:format>
<dc:type rdf:resource="http://purl.org/dc/dcmitype/StillImage"/>
<dc:title/>
</cc:Work>
</rdf:RDF>
</metadata>
<path d="m-17.005-16.925h192.76v192.76h-192.76z" clip-rule="evenodd" fill="#fff" fill-rule="evenodd"/>
<path d="m79.391 0-78.85 52.85 32.819 21.311 39.212-26.426-15.554-10.217 21.305-14.274l46.231 30.679-75.845 50.918 16.405 10.865 94.379-62.848-0.213-0.213zm78.631 0.022-32.808 21.731 16.404 11.078 16.404-11.078zm-158.02 158.88 32.809-21.73-16.404-11.079-16.405 11.079z" clip-rule="evenodd" fill="#33348e" fill-rule="evenodd"/>
<path d="m79.355 158.86 78.849-52.851-32.818-21.311-39.211 26.426 15.552 10.217-21.304 14.275-46.231-30.68 75.844-50.917-16.404-10.866-94.38 62.848 0.213 0.215z" clip-rule="evenodd" fill="#33348e" fill-rule="evenodd"/>
</svg>
