<?xml version="1.0" encoding="UTF-8"?>
<svg width="1877.8" height="1055.7" version="1.1" viewBox="0 0 235.26801 132.298" xmlns="http://www.w3.org/2000/svg" xmlns:cc="http://creativecommons.org/ns#" xmlns:dc="http://purl.org/dc/elements/1.1/" xmlns:rdf="http://www.w3.org/1999/02/22-rdf-syntax-ns#">
<metadata>
<rdf:RDF>
<cc:Work rdf:about="">
<dc:format>image/svg+xml</dc:format>
<dc:type rdf:resource="http://purl.org/dc/dcmitype/StillImage"/>
<dc:title/>
</cc:Work>
</rdf:RDF>
</metadata>
<path d="m106.95 70.907-10.634-7.1 47.886-31.903-26.617-17.735-13.294 8.883 10.665 7.039-23.958 15.982-21.269-14.2 47.856-31.873 47.886 31.873zm-15.952 10.635-10.634-7.1-10.635 7.1v14.17zm63.838-60.273-10.634-7.1 21.269-14.169v14.169z" clip-rule="evenodd" fill="#1e447f" fill-rule="evenodd"/>
<path d="m130.91 72.66-10.665-7.131 23.927-15.951 21.3 14.229l-47.886 31.905-47.856-31.905 58.49-39.003 10.635 7.1-47.856 31.903 26.587 17.735zm-119.97 59.063c2.628 0 9.185-0.241 9.185-6.344 0-3.264-1.148-5.56-5.559-6.073v-0.061c3.384-0.514 5.076-2.507 5.076-5.286 0-5.106-3.928-6.194-8.641-6.194h-11.028v23.958zm-4.774-14.138v-6.133h3.837c2.084 0 3.565 1.299 3.565 3.051 0 2.326-1.873 3.052-3.232 3.052h-2.175zm1.995 3.655h1.631c3.143 0 4.109 1.3 4.109 3.414 0 3.354-2.961 3.384-4.26 3.384h-3.474v-6.768zm36.979 10.514v-14.351h0.06l6.556 14.351h6.586v-19.638h-4.229v13.596h-0.091l-6.375-13.596h-6.737v19.638zm23.656 0.544c4.803 0 7.462-1.722 7.462-7.069h-5.106c-0.091 1.601 0.03 4.078-2.356 4.078-2.9 0-3.293-2.205-3.293-7.341 0-5.137 0.393-7.342 3.293-7.342 1.51 0 2.115 0.997 2.115 3.655h5.076c0.211-4.29-1.934-6.646-7.19-6.646-8.55 0-8.55 5.046-8.55 10.333-1e-3 5.256-1e-3 10.332 8.549 10.332zm-43.868-0.544 1.39-4.351h6.949l1.329 4.351h5.348l-6.586-19.638h-6.708l-6.737 19.638zm7.251-7.371h-4.864l2.326-8.49h0.091zm53.928 4.923c-2.931 0-3.293-2.205-3.293-7.341 0-5.137 0.362-7.342 3.293-7.342 2.9 0 3.293 2.205 3.293 7.342 0 5.136-0.393 7.341-3.293 7.341zm0 2.992c8.55 0 8.55-5.075 8.55-10.332 0-5.287 0-10.333-8.55-10.333s-8.55 5.046-8.55 10.333c0 5.256 0 10.332 8.55 10.332zm133.54-0.544v-19.638h-5.076v19.638zm15.649 0v-2.992h-7.039v-16.646h-5.076v19.638zm-81.843-0.031c2.628 0 9.185-0.241 9.185-6.314 0-3.293-1.148-5.589-5.56-6.103v-0.061c3.384-0.514 5.046-2.507 5.046-5.286 0-5.106-3.897-6.194-8.611-6.194h-11.027v23.958zm-4.775-14.108v-6.134h3.838c2.084 0 3.564 1.3 3.564 3.052 0 2.326-1.873 3.052-3.232 3.052h-2.175zm1.995 3.655h1.631c3.143 0 4.108 1.299 4.108 3.414 0 3.354-2.96 3.414-4.26 3.414h-3.475v-6.768zm-44.503-6.163h2.629c3.565 0 3.565 3.172 3.565 6.798 0 4.955-0.604 6.828-3.716 6.828h-2.478zm-5.135 16.616h8.369c8.731 0 8.158-6.918 8.158-9.939 0-6.133-1.239-9.729-7.977-9.729h-8.55zm26.828-2.386c-2.931 0-3.323-2.205-3.323-7.311s0.393-7.312 3.323-7.312c2.9 0 3.293 2.205 3.293 7.312 0 5.106-0.393 7.311-3.293 7.311zm0 2.961c8.55 0 8.55-5.075 8.55-10.271 0-5.287 0-10.303-8.55-10.303s-8.55 5.016-8.55 10.303c0 5.195 0 10.271 8.55 10.271zm63.807-7.735h-4.864l2.326-8.459h0.061zm13.657 7.191c3.686 0 7.401-0.453 7.401-5.528 0-6.163-9.698-5.287-9.698-9.004 0-1.359 0.906-2.084 2.478-2.084h6.587v-3.021h-7.161c-5.891 0-7.341 2.356-7.341 5.438 0 5.831 9.728 5.468 9.728 9.003 0 1.329-0.815 2.205-2.446 2.205h-6.436l-5.589-16.646h-6.707l-5.952 17.342-3.656-7.16c2.841-0.453 3.988-2.085 3.988-5.045 0.03-3.324-2.205-5.137-5.68-5.137h-10.182v19.638h5.106v-16.616h3.021c1.602 0 2.659 1.058 2.659 2.991 0 1.631-0.967 2.96-2.508 2.899h-2.085l5.469 10.726h8.097l1.39-4.351h6.919l1.359 4.351h11.239z" clip-rule="evenodd" fill="#1e447f" fill-rule="evenodd"/>
</svg>
