<?xml version="1.0" encoding="UTF-8"?>
<svg version="1.1" viewBox="0 0 221.08 220.93" xmlns="http://www.w3.org/2000/svg" xmlns:cc="http://creativecommons.org/ns#" xmlns:dc="http://purl.org/dc/elements/1.1/" xmlns:rdf="http://www.w3.org/1999/02/22-rdf-syntax-ns#">
<metadata>
<rdf:RDF>
<cc:Work rdf:about="">
<dc:format>image/svg+xml</dc:format>
<dc:type rdf:resource="http://purl.org/dc/dcmitype/StillImage"/>
<dc:title/>
</cc:Work>
</rdf:RDF>
</metadata>
<g transform="matrix(0 7.7239 7.7239 0 213.21 111.15)">
<path d="m0 0c7.284 0 13.19-5.909 13.19-13.199s-5.906-13.2-13.19-13.2-13.19 5.91-13.19 13.2 5.906 13.199 13.19 13.199" fill="#fff"/>
</g>
<g transform="matrix(0 7.7239 7.7239 0 162.64 163.89)">
<path d="m0 0c-0.311-0.616-0.633-1.252-0.633-2.222 0-0.857 0.316-1.546 0.622-2.207 0.322-0.7 0.653-1.422 0.653-2.38 0-0.845-0.295-1.484-0.609-2.16-0.324-0.699-0.659-1.422-0.659-2.392 0-0.856 0.311-1.546 0.611-2.213 0.315-0.701 0.643-1.425 0.643-2.387l-4e-3 -0.151c0.121 0.098 0.242 0.199 0.36 0.302-0.03 0.962-0.355 1.685-0.671 2.384-0.296 0.664-0.578 1.285-0.578 2.065 0 0.891 0.303 1.546 0.624 2.239 0.317 0.682 0.644 1.388 0.644 2.313 0 1.038-0.348 1.796-0.687 2.529-0.302 0.656-0.588 1.278-0.588 2.058 0 0.883 0.289 1.453 0.595 2.058 0.334 0.662 0.679 1.346 0.682 2.463-0.121 0.104-0.245 0.21-0.371 0.311 7e-3 -0.095 0.011-0.194 0.011-0.295 0-1.042-0.328-1.689-0.645-2.315" fill="#99877d"/>
</g>
<g transform="matrix(0 7.7239 7.7239 0 145.48 164.27)">
<path d="m0 0c0-0.857 0.317-1.544 0.622-2.207 0.321-0.699 0.651-1.421 0.651-2.38 0-0.845-0.294-1.484-0.608-2.158-0.323-0.7-0.658-1.424-0.658-2.393 0-0.856 0.312-1.546 0.611-2.214 0.267-0.593 0.541-1.203 0.619-1.961 0.109 0.103 0.215 0.205 0.321 0.312-0.113 0.686-0.363 1.247-0.611 1.797-0.298 0.664-0.58 1.287-0.58 2.066 0 0.89 0.304 1.546 0.624 2.24 0.316 0.681 0.643 1.386 0.643 2.311 0 1.039-0.348 1.797-0.684 2.53-0.303 0.657-0.588 1.278-0.588 2.057 0 0.885 0.288 1.454 0.593 2.059 0.269 0.533 0.543 1.079 0.643 1.855-0.109 0.111-0.22 0.217-0.332 0.322-0.055-0.869-0.348-1.45-0.632-2.014-0.312-0.616-0.634-1.25-0.634-2.222" fill="#99877d"/>
</g>
<g transform="matrix(0 7.7239 7.7239 0 145.48 169.54)">
<path d="m0 0c0-0.857 0.317-1.544 0.624-2.207 0.319-0.699 0.649-1.421 0.649-2.38 0-0.845-0.295-1.484-0.608-2.158-0.323-0.7-0.658-1.424-0.658-2.393 0-0.856 0.311-1.546 0.611-2.214 0.196-0.435 0.395-0.875 0.519-1.38 0.095 0.105 0.191 0.21 0.284 0.318-0.127 0.434-0.302 0.827-0.476 1.21-0.295 0.664-0.578 1.287-0.578 2.066 0 0.89 0.305 1.546 0.625 2.24 0.315 0.681 0.643 1.386 0.643 2.311 0 1.039-0.349 1.797-0.687 2.53-0.301 0.657-0.588 1.278-0.588 2.057 0 0.885 0.29 1.454 0.595 2.059 0.193 0.382 0.389 0.772 0.519 1.247-0.094 0.11-0.19 0.22-0.288 0.326-0.121-0.555-0.339-0.988-0.553-1.41-0.312-0.616-0.633-1.25-0.633-2.222" fill="#99877d"/>
</g>
<g transform="matrix(0 7.7239 7.7239 0 145.48 174.81)">
<path d="m0 0c0-0.857 0.316-1.544 0.621-2.207 0.322-0.699 0.653-1.421 0.653-2.38 0-0.845-0.295-1.484-0.609-2.158-0.324-0.7-0.658-1.424-0.658-2.393 0-0.856 0.31-1.546 0.611-2.214 0.117-0.261 0.236-0.528 0.339-0.806 0.089 0.107 0.175 0.217 0.26 0.329-0.086 0.214-0.178 0.421-0.271 0.625-0.297 0.664-0.579 1.287-0.579 2.066 0 0.89 0.304 1.546 0.625 2.24 0.317 0.681 0.641 1.386 0.641 2.311 0 1.039-0.345 1.797-0.683 2.53-0.304 0.657-0.59 1.278-0.59 2.057 0 0.885 0.29 1.454 0.594 2.059 0.107 0.212 0.216 0.427 0.314 0.655-0.086 0.114-0.17 0.223-0.258 0.331-0.111-0.296-0.245-0.561-0.377-0.823-0.312-0.616-0.633-1.25-0.633-2.222" fill="#99877d"/>
</g>
<g transform="matrix(0 7.7239 7.7239 0 145.48 180.09)">
<path d="m0 0c0-0.857 0.316-1.544 0.622-2.207 0.32-0.699 0.651-1.421 0.651-2.38 0-0.845-0.294-1.484-0.608-2.158-0.324-0.7-0.658-1.424-0.658-2.393 0-0.856 0.31-1.546 0.61-2.214 0.034-0.077 0.069-0.151 0.102-0.23 0.083 0.114 0.164 0.227 0.244 0.344l-0.017 0.034c-0.299 0.664-0.579 1.287-0.579 2.066 0 0.89 0.304 1.546 0.624 2.24 0.317 0.681 0.642 1.386 0.642 2.311 0 1.039-0.349 1.797-0.683 2.53-0.304 0.657-0.59 1.278-0.59 2.057 0 0.885 0.289 1.454 0.594 2.059l0.04 0.079c-0.076 0.113-0.153 0.228-0.234 0.338-0.041-0.085-0.085-0.17-0.127-0.254-0.311-0.616-0.633-1.25-0.633-2.222" fill="#99877d"/>
</g>
<g transform="matrix(0 7.7239 7.7239 0 128.43 190.15)">
<path d="m0 0c0.32-0.7 0.651-1.419 0.651-2.38 0-0.845-0.293-1.484-0.608-2.158-0.323-0.701-0.659-1.424-0.659-2.392 0-0.696 0.206-1.285 0.443-1.839 0.081 0.126 0.158 0.253 0.233 0.381-0.182 0.455-0.317 0.92-0.317 1.458 0 0.889 0.305 1.545 0.625 2.239 0.318 0.682 0.645 1.386 0.645 2.311 0 1.039-0.349 1.797-0.686 2.53-0.304 0.657-0.589 1.277-0.589 2.057 0 0.624 0.144 1.091 0.336 1.526-0.073 0.123-0.148 0.249-0.226 0.368-0.252-0.52-0.47-1.093-0.47-1.894 0-0.855 0.315-1.544 0.622-2.207" fill="#99877d"/>
</g>
<g transform="matrix(0 7.7239 7.7239 0 110.54 0)">
<path d="m0 0c0-7.904 6.406-14.311 14.302-14.311 7.898 0 14.301 6.407 14.301 14.311 0 7.903-6.403 14.312-14.301 14.312-7.896 0-14.302-6.409-14.302-14.312m26.32 0c0-6.643-5.38-12.026-12.018-12.026-6.637 0-12.018 5.383-12.018 12.026s5.381 12.027 12.018 12.027c6.638 0 12.018-5.384 12.018-12.027" fill="#eb222f"/>
</g>
<g transform="matrix(0 7.7239 7.7239 0 162.22 83.078)">
<path d="m0 0c0.444-0.088 0.916-0.545 1.115-0.793 0.447-0.561 2.711-4.264 3.231-4.68 0.524-0.418 1.291-0.489 1.882-0.489l4.348-2e-3v0.577c-0.387 0-1.03-1e-3 -1.132-1e-3 -0.388-3e-3 -0.987 0.217-1.461 0.675-0.799 0.764-1.798 2.534-2.642 3.691-0.707 0.971-1.671 1.031-2.505 1.031h-2.973" fill="#08a94d"/>
</g>
<g transform="matrix(0 7.7239 7.7239 0 116.21 114.6)">
<path d="m0 0c-0.515 0.411-2.843 4.226-3.289 4.776-0.445 0.55-1.129 1.188-1.985 1.188h-4.871c0.684 0 1.21-0.383 1.856-0.88 0.735-0.565 2.123-3.131 3.015-4.398 0.891-1.269 1.779-1.71 2.876-1.71h8.893v0.571h-4.647c-0.582 0-1.334 0.042-1.848 0.453" fill="#08a94d"/>
</g>
<g transform="matrix(0 7.7239 7.7239 0 93.814 75.709)">
<path d="m0 0c-0.891-1.166-2.808-3.542-3.186-3.817-0.376-0.274-1.06-0.89-1.881-0.89h4.519c0.651 0 1.818 0.309 2.637 1.44 0.824 1.129 2.021 2.718 2.501 3.197 0.48 0.481 1.341 0.923 2.574 0.923h4.367v0.562h-8.698c-1.408 0-1.942-0.249-2.833-1.415" fill="#08a94d"/>
</g>
</svg>
