<svg xmlns="http://www.w3.org/2000/svg" x="2000" viewBox="0 0 2000 503.639"><path d="M83.757 212.973c-23.487.29-43.4 9.18-59.7 26.672C7.715 257.125-.3 278.093.008 302.5c.302 24.443 8.878 45.184 25.74 62.298 16.838 17.076 36.903 25.463 60.2 25.18 23.672-.283 43.635-9.15 59.88-26.536 16.22-17.416 24.152-38.406 23.846-63.054-.302-24.587-8.753-45.392-25.4-62.385-16.66-17-36.846-25.312-60.507-25" fill="#f06a2f"/><path d="M1190.93 0v494.893h89.26l99.397-133.08 96.526 133.006h131.85l-163.66-219.346 124.445-166.085H1441.5L1305.694 296.52V0H1190.93zM311.77.008v301.448c0 55.826 19.72 103.466 59.162 142.92 39.49 39.472 87.12 59.21 142.938 59.21 56.178 0 103.893-19.653 143.183-58.917 39.253-39.28 58.898-87.013 58.898-143.214 0-55.245-19.494-102.684-58.482-142.36-38.988-39.63-85.76-59.48-140.274-59.48-33.246 0-63.545 6.596-90.897 19.694V.038H311.755l.015-.03zm641.016 99.608c-57.508 0-106.133 19.558-145.892 58.645-39.706 39.102-59.578 86.817-59.578 143.22 0 55.838 19.72 103.477 59.2 142.92 39.48 39.48 87.08 59.238 142.92 59.238 56.216 0 103.93-19.645 143.22-58.898 39.253-39.3 58.898-87.006 58.898-143.22 0-55.233-19.494-102.684-58.482-142.314s-85.72-59.502-140.237-59.502l-.05-.088zm932.72 9.51V301.46c0 24.632-11.047 45.532-27.484 62.744-16.464 17.178-36.495 25.78-60.182 25.78-23.3 0-43.295-8.64-59.9-25.917-16.65-17.326-27.48-38.18-27.48-62.612v-192.07h-114.736v192.07c0 55.823 19.72 103.47 59.238 142.92 39.48 39.48 87.12 59.2 142.92 59.2 56.178 0 103.93-19.645 143.183-58.905 39.29-39.283 58.936-87.017 58.936-143.214V109.122l-114.494.003zM513.874 212.973c23.68 0 43.74 8.565 60.175 25.765 16.442 17.2 24.677 38.12 24.677 62.714 0 24.632-8.236 45.524-24.677 62.74-16.434 17.2-36.495 25.792-60.182 25.792-23.325 0-43.272-8.65-59.907-25.94-16.623-17.303-24.934-38.12-24.934-62.562 0-24.405 8.31-45.26 24.82-62.562 16.547-17.265 36.57-25.917 60.03-25.917l-.004-.03zm434.435 0c23.67-.302 43.835 8.032 60.507 25.036 16.623 16.986 25.086 37.794 25.388 62.38.302 24.64-7.63 45.637-23.84 63.054-16.245 17.386-36.23 26.25-59.88 26.54-23.3.283-43.37-8.115-60.22-25.184-16.85-17.076-25.425-37.855-25.728-62.26s7.707-45.373 24.028-62.865c16.283-17.492 36.23-26.37 59.69-26.672l.053-.03z" fill="#222221"/></svg>