<?xml version="1.0" encoding="UTF-8" standalone="no"?>
<svg
   width="36.864899"
   height="36.667549"
   viewBox="0 0 36.864899 36.667549"
   fill="none"
   version="1.1"
   id="svg18"
   sodipodi:docname="icon.svg"
   inkscape:version="1.3.1 (9b9bdc1480, 2023-11-25, custom)"
   xmlns:inkscape="http://www.inkscape.org/namespaces/inkscape"
   xmlns:sodipodi="http://sodipodi.sourceforge.net/DTD/sodipodi-0.dtd"
   xmlns="http://www.w3.org/2000/svg"
   xmlns:svg="http://www.w3.org/2000/svg">
  <sodipodi:namedview
     id="namedview18"
     pagecolor="#505050"
     bordercolor="#eeeeee"
     borderopacity="1"
     inkscape:showpageshadow="0"
     inkscape:pageopacity="0"
     inkscape:pagecheckerboard="0"
     inkscape:deskcolor="#505050"
     showguides="true"
     inkscape:lockguides="false"
     inkscape:zoom="10.248"
     inkscape:cx="13.807572"
     inkscape:cy="10.538642"
     inkscape:window-width="1850"
     inkscape:window-height="1016"
     inkscape:window-x="70"
     inkscape:window-y="27"
     inkscape:window-maximized="1"
     inkscape:current-layer="svg18">
    <sodipodi:guide
       position="40.291428,40.003649"
       orientation="0,-1"
       id="guide18"
       inkscape:locked="false" />
    <sodipodi:guide
       position="-35.879735,38.011977"
       orientation="1,0"
       id="guide19"
       inkscape:locked="false" />
  </sodipodi:namedview>
  <g
     clip-path="url(#clip0_10533_8513)"
     id="g18"
     transform="translate(0,-1.66895)">
    <path
       d="M 0,8.21673 C 0,4.60049 2.94731,1.66895 6.58301,1.66895 H 30.2818 c 3.6357,0 6.5831,2.93154 6.5831,6.54778 V 31.7888 c 0,3.6162 -2.9474,6.5477 -6.5831,6.5477 H 6.58301 C 2.94731,38.3365 0,35.405 0,31.7888 Z"
       fill="#000000"
       id="path16" />
    <path
       d="m 15.1242,31.7887 c -2.2624,0 -4.3511,-1.0244 -5.72857,-2.8095 -1.37851,-1.786 -1.83238,-4.0571 -1.24641,-6.2313 l 1.77279,-6.5652 c 0.04171,-0.1532 0.18079,-0.2598 0.34069,-0.2598 h 3.6488 c 0.2314,0 0.4003,0.2183 0.3407,0.4415 l -2.0181,7.4741 c -0.285,1.059 0.0268,2.1762 0.8571,2.9546 0.3526,0.33 0.7866,0.568 1.2544,0.6895 1.6516,0.4298 3.2526,-0.561 3.6687,-2.1051 l 2.4819,-9.1948 c 0.0417,-0.1532 0.1808,-0.2598 0.3407,-0.2598 h 3.6488 c 0.2314,0 0.4003,0.2183 0.3407,0.4415 l -2.7272,10.1027 c -0.8442,3.1335 -3.7125,5.3226 -6.975,5.3226 z"
       fill="#d2eefa"
       id="path17" />
    <path
       d="m 29.8794,17.2566 -1.7728,6.5652 c -0.0417,0.1532 -0.1807,0.2598 -0.3406,0.2598 h -3.6489 c -0.2314,0 -0.4003,-0.2183 -0.3407,-0.4415 l 2.0181,-7.4741 c 0.2851,-1.059 -0.0268,-2.1762 -0.8571,-2.9536 -0.3525,-0.33 -0.7865,-0.5681 -1.2543,-0.6896 -1.6516,-0.4297 -3.2526,0.5611 -3.6688,2.1051 l -2.4819,9.1949 c -0.0417,0.1531 -0.1807,0.2598 -0.3406,0.2598 h -3.6489 c -0.2314,0 -0.4002,-0.2183 -0.3407,-0.4415 l 2.7273,-10.1028 c 0.8442,-3.1334 3.7124,-5.32248 6.9749,-5.32248 2.2625,0 4.3511,1.0244 5.7286,2.80948 1.3775,1.786 1.8324,4.0571 1.2464,6.2313 z"
       fill="#d2eefa"
       id="path18" />
  </g>
  <defs
     id="defs18">
    <clipPath
       id="clip0_10533_8513">
      <rect
         width="124"
         height="40"
         fill="#ffffff"
         id="rect18"
         x="0"
         y="0" />
    </clipPath>
  </defs>
</svg>
