<svg width="125" height="40" viewBox="0 0 125 40" fill="none" xmlns="http://www.w3.org/2000/svg">
<g clip-path="url(#clip0_10533_8513)">
<path d="M72.3232 4.88916V16.2548H69.4666V4.88916H72.3232Z" fill="black"/>
<path d="M92.2951 4.77686H95.3975L88.2736 21.1792H85.1942L87.5152 15.841L82.988 4.77686H86.2513L87.9748 9.63597L89.0549 12.8069L90.2269 9.70441L92.2951 4.77686Z" fill="black"/>
<path fill-rule="evenodd" clip-rule="evenodd" d="M46.0427 4.7002V11.1407C46.0427 12.4484 47.1085 13.5086 48.4233 13.5086H48.8042C50.119 13.5086 51.1848 12.4484 51.1848 11.1407V4.7002H54.0415V11.1407C54.0415 14.0177 51.6967 16.35 48.8042 16.35H48.4233C45.5308 16.35 43.186 14.0177 43.186 11.1407V4.7002H46.0427Z" fill="black"/>
<path fill-rule="evenodd" clip-rule="evenodd" d="M64.3269 16.2544L64.3269 9.81387C64.3269 8.50615 63.2611 7.44603 61.9463 7.44603L61.5654 7.44603C60.2507 7.44603 59.1849 8.50615 59.1849 9.81387L59.1849 16.2544L56.3282 16.2544L56.3282 9.81387C56.3282 6.93688 58.673 4.60462 61.5654 4.60463L61.9463 4.60463C64.8388 4.60463 67.1836 6.93688 67.1836 9.81387L67.1836 16.2544L64.3269 16.2544Z" fill="black"/>
<path fill-rule="evenodd" clip-rule="evenodd" d="M77.5615 1.66895V11.1403C77.5615 12.448 78.6273 13.5081 79.9421 13.5081H80.6087V16.3496H79.9421C77.0496 16.3496 74.7048 14.0173 74.7048 11.1403V1.66895H77.5615Z" fill="black"/>
<path fill-rule="evenodd" clip-rule="evenodd" d="M75.9436 4.79297H80.6095V7.63438H75.9436V4.79297Z" fill="black"/>
<path d="M69.4666 1.66895H72.3232V3.94207H69.4666V1.66895Z" fill="black"/>
<path d="M121.226 31.2033H112.362C112.454 31.9217 112.799 32.5026 113.398 32.9458C113.996 33.3891 114.779 33.6108 115.746 33.6108C116.299 33.6108 116.867 33.5191 117.45 33.3356C118.033 33.1369 118.478 32.8771 118.785 32.5561L120.581 34.3216C120.013 34.9177 119.284 35.3763 118.394 35.6973C117.504 36.003 116.606 36.1559 115.7 36.1559C113.766 36.1559 112.239 35.6132 111.118 34.5279C110.013 33.4273 109.461 31.9599 109.461 30.1256C109.461 28.383 110.006 26.9614 111.095 25.8608C112.2 24.7603 113.666 24.21 115.493 24.21C117.442 24.21 118.939 24.8138 119.982 26.0213C121.026 27.2136 121.441 28.9409 121.226 31.2033ZM112.408 28.8874H118.532C118.44 28.169 118.133 27.6264 117.611 27.2595C117.089 26.8773 116.414 26.6863 115.585 26.6863C114.802 26.6863 114.127 26.8773 113.559 27.2595C112.991 27.6264 112.607 28.169 112.408 28.8874Z" fill="black"/>
<path d="M105.982 32.5561L107.87 34.3904C106.657 35.5827 105.199 36.1788 103.496 36.1788C101.761 36.1788 100.318 35.6667 99.1671 34.6426C98.0313 33.6031 97.4634 32.1204 97.4634 30.1944C97.4634 28.2684 98.0313 26.7933 99.1671 25.7691C100.318 24.7297 101.761 24.21 103.496 24.21C105.092 24.21 106.458 24.7679 107.594 25.8838L105.821 27.741C105.146 27.1449 104.386 26.8468 103.542 26.8468C102.59 26.8468 101.807 27.1601 101.193 27.7869C100.579 28.4136 100.272 29.2161 100.272 30.1944C100.272 31.2338 100.579 32.044 101.193 32.6248C101.807 33.2057 102.575 33.4961 103.496 33.4961C104.524 33.4961 105.353 33.1828 105.982 32.5561Z" fill="black"/>
<path d="M79.1904 26.0446L79.2825 24.4854H81.9762V35.7894H79.3285L79.1904 34.1385C78.8834 34.7499 78.3692 35.2314 77.6478 35.583C76.9264 35.9346 76.2127 36.118 75.5066 36.1333C73.7722 36.1486 72.3601 35.6365 71.2703 34.5971C70.1959 33.5423 69.6587 32.052 69.6587 30.1259C69.6587 28.2458 70.2113 26.786 71.3164 25.7465C72.4369 24.7071 73.8566 24.195 75.5757 24.2103C76.3432 24.2103 77.0569 24.3784 77.7169 24.7147C78.3769 25.051 78.8681 25.4943 79.1904 26.0446ZM75.829 26.7095C74.862 26.7095 74.0562 27.0153 73.4115 27.6267C72.7822 28.2381 72.4675 29.0712 72.4675 30.1259C72.4675 31.1807 72.7822 32.0214 73.4115 32.6481C74.0562 33.2595 74.862 33.5653 75.829 33.5653C76.6732 33.5653 77.3792 33.3283 77.9471 32.8545C78.5304 32.3806 78.8834 31.815 79.0062 31.1577C79.1443 30.4851 79.1443 29.8126 79.0062 29.14C78.8834 28.4674 78.5304 27.8942 77.9471 27.4203C77.3792 26.9465 76.6732 26.7095 75.829 26.7095Z" fill="black"/>
<path fill-rule="evenodd" clip-rule="evenodd" d="M64.5188 35.7646L64.5188 29.3241C64.5188 28.0164 63.453 26.9563 62.1382 26.9563L61.7573 26.9563C60.4426 26.9563 59.3767 28.0164 59.3767 29.3241L59.3767 35.7646L56.5201 35.7646L56.5201 29.3241C56.5201 26.4471 58.8649 24.1149 61.7573 24.1149L62.1382 24.1149C65.0307 24.1149 67.3755 26.4471 67.3755 29.3241L67.3755 35.7646L64.5188 35.7646Z" fill="black"/>
<path fill-rule="evenodd" clip-rule="evenodd" d="M92.3203 35.7646L92.3203 29.3241C92.3203 28.0164 91.2545 26.9563 89.9397 26.9563L89.5588 26.9563C88.2441 26.9563 87.1783 28.0164 87.1783 29.3241L87.1783 35.7646L84.3216 35.7646L84.3216 29.3241C84.3216 26.4471 86.6664 24.1149 89.5588 24.1149L89.9397 24.1149C92.8322 24.1149 95.177 26.4471 95.177 29.3241L95.177 35.7646L92.3203 35.7646Z" fill="black"/>
<path fill-rule="evenodd" clip-rule="evenodd" d="M46.0427 35.7646L46.0427 26.2933C46.0427 24.9856 47.1085 23.9255 48.4233 23.9255L49.0899 23.9254L49.0899 21.084L48.4233 21.084C45.5308 21.084 43.186 23.4163 43.186 26.2933L43.186 35.7646L46.0427 35.7646Z" fill="black"/>
<path fill-rule="evenodd" clip-rule="evenodd" d="M44.4221 30.1777L49.0881 30.1777L49.0881 27.3363L44.4221 27.3363L44.4221 30.1777Z" fill="black"/>
<path d="M54.2329 24.4009V35.7665H51.3762V24.4009H54.2329Z" fill="black"/>
<rect x="51.3762" y="21.1792" width="2.85669" height="2.27312" fill="black"/>
<path d="M0 8.21673C0 4.60049 2.94731 1.66895 6.58301 1.66895H30.2818C33.9175 1.66895 36.8649 4.60049 36.8649 8.21673V31.7888C36.8649 35.405 33.9175 38.3365 30.2818 38.3365H6.58301C2.94731 38.3365 0 35.405 0 31.7888V8.21673Z" fill="black"/>
<path d="M15.1242 31.7887C12.8618 31.7887 10.7731 30.7643 9.39563 28.9792C8.01712 27.1932 7.56325 24.9221 8.14922 22.7479L9.92201 16.1827C9.96372 16.0295 10.1028 15.9229 10.2627 15.9229H13.9115C14.1429 15.9229 14.3118 16.1412 14.2522 16.3644L12.2341 23.8385C11.9491 24.8975 12.2609 26.0147 13.0912 26.7931C13.4438 27.1231 13.8778 27.3611 14.3456 27.4826C15.9972 27.9124 17.5982 26.9216 18.0143 25.3775L20.4962 16.1827C20.5379 16.0295 20.677 15.9229 20.8369 15.9229H24.4857C24.7171 15.9229 24.886 16.1412 24.8264 16.3644L22.0992 26.4671C21.255 29.6006 18.3867 31.7897 15.1242 31.7897V31.7887Z" fill="#D2EEFA"/>
<path d="M29.8794 17.2566L28.1066 23.8218C28.0649 23.975 27.9259 24.0816 27.766 24.0816H24.1171C23.8857 24.0816 23.7168 23.8633 23.7764 23.6401L25.7945 16.166C26.0796 15.107 25.7677 13.9898 24.9374 13.2124C24.5849 12.8824 24.1509 12.6443 23.6831 12.5228C22.0315 12.0931 20.4305 13.0839 20.0143 14.6279L17.5324 23.8228C17.4907 23.9759 17.3517 24.0826 17.1918 24.0826H13.5429C13.3115 24.0826 13.1427 23.8643 13.2022 23.6411L15.9295 13.5383C16.7737 10.4049 19.6419 8.21582 22.9044 8.21582C25.1669 8.21582 27.2555 9.24022 28.633 11.0253C30.0105 12.8113 30.4654 15.0824 29.8794 17.2566Z" fill="#D2EEFA"/>
</g>
<defs>
<clipPath id="clip0_10533_8513">
<rect width="124" height="40" fill="white"/>
</clipPath>
</defs>
</svg>
