<svg xmlns="http://www.w3.org/2000/svg" xmlns:xlink="http://www.w3.org/1999/xlink" width="140" height="42" xmlns:v="https://vecta.io/nano"><defs><linearGradient id="A" x1="0%" y1="15%" x2="100%" y2="85%"><stop offset="0%" stop-color="#310050" stop-opacity="1"/><stop offset="46%" stop-color="#1148aa" stop-opacity="1"/><stop offset="100%" stop-color="#06b1ff" stop-opacity="1"/></linearGradient></defs><path fill="url(#A)" d="M0 0h140v42H0z"/><defs><path id="B" d="M104.99 15.035c-2.802 0-5.06 2.67-5.06 5.954 0 3.307 2.258 5.977 5.06 5.977s5.08-2.67 5.08-5.977c0-3.284-2.28-5.954-5.08-5.954zm0-4.853c5.978 0 10.828 4.832 10.828 10.807s-4.85 10.83-10.828 10.83-10.808-4.853-10.808-10.83a10.797 10.797 0 0 1 10.808-10.807zm24.181 4.853c-2.801 0-5.08 2.67-5.08 5.954 0 3.307 2.279 5.977 5.08 5.977s5.08-2.67 5.08-5.977c0-3.284-2.278-5.954-5.08-5.954zm0-4.853c5.98 0 10.829 4.832 10.829 10.807s-4.85 10.83-10.829 10.83-10.807-4.853-10.807-10.83a10.797 10.797 0 0 1 10.807-10.807zM80.818 15.39c-2.795 0-5.078 2.614-5.078 5.829 0 3.236 2.283 5.85 5.078 5.85s5.078-2.614 5.078-5.85c0-3.215-2.283-5.829-5.078-5.829zm0-4.75a10.8 10.8 0 0 1 5.42 1.432V2.489c0-1.37 1.152-2.489 2.56-2.489h2.774v20.14a9.08 9.08 0 0 1 .064 1.079c0 5.85-4.843 10.6-10.818 10.6S70 27.069 70 21.219 74.844 10.64 80.818 10.64zm-70.12 4.298c-2.836 0-5.143 2.617-5.143 5.836 0 3.24 2.307 5.857 5.142 5.857s5.142-2.617 5.142-5.857c0-3.219-2.307-5.836-5.142-5.836zm0-4.756c6.05 0 10.938 4.735 10.938 10.592S16.75 31.387 10.697 31.387a11.17 11.17 0 0 1-5.396-1.37v9.49C5.301 40.88 4.16 42 2.762 42H.012V20.317l-.011-1.463a2.328 2.328 0 0 1 .067-.641c1.198-4.617 5.499-8.031 10.63-8.031zm23.177 4.853c-2.836 0-5.144 2.67-5.144 5.954 0 3.307 2.308 5.977 5.144 5.977s5.124-2.67 5.124-5.977c0-3.284-2.287-5.954-5.124-5.954zm10.67 16.148H40.63a1.31 1.31 0 0 1-1.228-.848 10.886 10.886 0 0 1-5.526 1.483c-6.054 0-10.966-4.852-10.966-10.829s4.912-10.807 10.966-10.807c2.033 0 3.938.55 5.568 1.504a1.34 1.34 0 0 1 1.186-.762h3.916v20.259zM49.9 11.455h3.079c.986 0 1.914.761 2.328 1.914l3.18 8.708a.975.975 0 0 1-.026.73l-2.24 4.997a.32.32 0 0 1-.598-.02l-5.96-15.917c-.079-.227.02-.412.237-.412zm16.077 0h3.628a.4.4 0 0 1 .362.559L57.189 41.418C56.968 41.925 57 42 56 42h-1c-.622-.356-1.562-1.095-2.818-2.218l11.821-27.027a2.16 2.16 0 0 1 1.974-1.3z"/><linearGradient id="C" x1="80.125%" x2="34.453%" y1="50%" y2="93.068%"><stop offset="0%" stop-color="#fff"/><stop offset="100%"/></linearGradient></defs><g fill-rule="evenodd"><path fill="#fffffe" fill-rule="nonzero" d="M104.99 15.035c-2.802 0-5.06 2.67-5.06 5.954 0 3.307 2.258 5.977 5.06 5.977s5.08-2.67 5.08-5.977c0-3.284-2.28-5.954-5.08-5.954zm0-4.853c5.978 0 10.828 4.832 10.828 10.807s-4.85 10.83-10.828 10.83-10.808-4.853-10.808-10.83a10.797 10.797 0 0 1 10.808-10.807zm24.181 4.853c-2.801 0-5.08 2.67-5.08 5.954 0 3.307 2.279 5.977 5.08 5.977s5.08-2.67 5.08-5.977c0-3.284-2.278-5.954-5.08-5.954zm0-4.853c5.98 0 10.829 4.832 10.829 10.807s-4.85 10.83-10.829 10.83-10.807-4.853-10.807-10.83a10.797 10.797 0 0 1 10.807-10.807zM80.818 15.39c-2.795 0-5.078 2.614-5.078 5.829 0 3.236 2.283 5.85 5.078 5.85s5.078-2.614 5.078-5.85c0-3.215-2.283-5.829-5.078-5.829zm0-4.75a10.8 10.8 0 0 1 5.42 1.432V2.489c0-1.37 1.152-2.489 2.56-2.489h2.774v20.14a9.08 9.08 0 0 1 .064 1.079c0 5.85-4.843 10.6-10.818 10.6S70 27.069 70 21.219 74.844 10.64 80.818 10.64zm-70.12 4.298c-2.836 0-5.143 2.617-5.143 5.836 0 3.24 2.307 5.857 5.142 5.857s5.142-2.617 5.142-5.857c0-3.219-2.307-5.836-5.142-5.836zm0-4.756c6.05 0 10.938 4.735 10.938 10.592S16.75 31.387 10.697 31.387a11.17 11.17 0 0 1-5.396-1.37v9.49C5.301 40.88 4.16 42 2.762 42H.012V20.317l-.011-1.463a2.328 2.328 0 0 1 .067-.641c1.198-4.617 5.499-8.031 10.63-8.031zm23.177 4.853c-2.836 0-5.144 2.67-5.144 5.954 0 3.307 2.308 5.977 5.144 5.977s5.124-2.67 5.124-5.977c0-3.284-2.287-5.954-5.124-5.954zm10.67 16.148H40.63a1.31 1.31 0 0 1-1.228-.848 10.886 10.886 0 0 1-5.526 1.483c-6.054 0-10.966-4.852-10.966-10.829s4.912-10.807 10.966-10.807c2.033 0 3.938.55 5.568 1.504a1.34 1.34 0 0 1 1.186-.762h3.916v20.259zM49.9 11.455h3.079c.986 0 1.914.761 2.328 1.914l3.18 8.708a.975.975 0 0 1-.026.73l-2.24 4.997a.32.32 0 0 1-.598-.02l-5.96-15.917c-.079-.227.02-.412.237-.412zm16.077 0h3.628a.4.4 0 0 1 .362.559L57.189 41.418a.958.958 0 0 1-1.305.482l-3.702-2.118 11.821-27.027a2.16 2.16 0 0 1 1.974-1.3z"/><mask id="D" fill="#fff"><use xlink:href="#B"/></mask><path fill="url(#C)" d="M54.146 27.09c1.681 0 3.363 1.303 4.357 3.138l6.031 9.67c.276.496-1.44 2.06-2.02 2.055L57 42c-.377-.004-2.826.326-3 0l-5.548-14.242c-.206-.367-.034-.667.343-.667h5.351z" mask="url(#D)" opacity=".3"/><path fill="#fffffe" d="M50.57 33c1.037 0 2.075.788 2.689 1.9l3.723 5.855c.17.3-.89 1.249-1.248 1.245h-3.622a.635.635 0 0 1-.552-.324l-4.506-8.272c-.127-.222-.02-.404.212-.404h3.303z"/></g></svg>