<?xml version="1.0" encoding="UTF-8"?>
<svg width="34.2" height="41" version="1.0" viewBox="0 0 34.200002 41" xml:space="preserve" xmlns="http://www.w3.org/2000/svg" xmlns:cc="http://creativecommons.org/ns#" xmlns:dc="http://purl.org/dc/elements/1.1/" xmlns:rdf="http://www.w3.org/1999/02/22-rdf-syntax-ns#"><metadata><rdf:RDF><cc:Work rdf:about=""><dc:format>image/svg+xml</dc:format><dc:type rdf:resource="http://purl.org/dc/dcmitype/StillImage"/><dc:title/></cc:Work></rdf:RDF></metadata>
<style type="text/css">
	.st0{fill:none;}
	.st1{fill:#F0A91A;}
	.st2{fill:#040000;}
	.st3{fill:#F4F4F4;}
	.st4{fill:#DB2529;}
	.st5{fill:none;stroke:#040000;stroke-width:0.8643;stroke-linecap:round;stroke-miterlimit:10;}
	.st6{fill:#D38E16;}
</style>
<g transform="translate(-11,-17.5)">
		<path class="st1" d="m16.2 58.5h23.8s2.5-0.7 1.1-1.7-5.4-2-13-2-12.1 1.4-12.7 2.4c-0.7 1 0.8 1.3 0.8 1.3z" fill="#f0a91a"/>
		<path class="st2" d="m15.3 34.8s0-17.3 12.6-17.3 13 14.7 13 17.3c3.1 7.8 4 10 4.3 16.1-2.6-0.6-3.3-2.6-4.1-3.5-1.2 4.8-2.9 11.1-12.6 11.1s-12.6-6.4-13.1-11.2c-1.4 1.9-2.1 3.8-4.4 3.6 0.7-4.9 1.5-11.4 4.3-16.1z" fill="#040000"/>
		<path class="st3" d="m18.3 38.9v9.6c0 2.7 3.4 8.3 9.8 8.3s10.2-5.4 10.2-8.3v-9.6z" fill="#f4f4f4"/>
		<path class="st4" d="m15.3 34.8s12.8 4.6 25.6 0c0.8 2.1 2 2.9 1.8 4.5-6 1.9-20.6 3.9-28.8-0.4-0.2-0.7 0.2-3.3 1.4-4.1z" fill="#db2529"/>
		<rect class="st4" x="20.2" y="38.9" width="5.6" height="8.4" fill="#db2529"/>
		<path class="st1" d="m20.2 32s2.3-1.6 8-1.6c5.7 0.1 7.1 1 7.6 1.6-1.3 0.9-3.3 2.8-7.5 2.8s-7.9-2.2-8.1-2.8z" fill="#f0a91a"/>
		<ellipse class="st3" cx="24.8" cy="26.1" rx="2.2" ry="3.3" fill="#f4f4f4"/>
		<ellipse class="st3" cx="31.6" cy="26.1" rx="2.2" ry="3.3" fill="#f4f4f4"/>
		<ellipse class="st2" cx="25.4" cy="26.5" rx="1.2" ry="1.5" fill="#040000"/>
		<path class="st5" d="m30.3 26.5s1.2-1 2.3 0" fill="none" stroke="#040000" stroke-linecap="round" stroke-miterlimit="10" stroke-width=".8643"/>
		<path class="st6" d="m22.5 31.9s1.6-0.8 5.7-0.8 5 0.5 5.3 0.8c-0.9 0.4-2.3 1.4-5.3 1.4s-5.6-1.1-5.7-1.4z" fill="#d38e16"/>
	</g>
</svg>
