<?xml version="1.0" encoding="UTF-8"?>
<svg width="142.1" height="41" version="1.0" viewBox="0 0 142.10001 41" xml:space="preserve" xmlns="http://www.w3.org/2000/svg" xmlns:cc="http://creativecommons.org/ns#" xmlns:dc="http://purl.org/dc/elements/1.1/" xmlns:rdf="http://www.w3.org/1999/02/22-rdf-syntax-ns#"><metadata><rdf:RDF><cc:Work rdf:about=""><dc:format>image/svg+xml</dc:format><dc:type rdf:resource="http://purl.org/dc/dcmitype/StillImage"/><dc:title/></cc:Work></rdf:RDF></metadata>
<style type="text/css">
	.st0{fill:none;}
	.st1{fill:#F0A91A;}
	.st2{fill:#040000;}
	.st3{fill:#F4F4F4;}
	.st4{fill:#DB2529;}
	.st5{fill:none;stroke:#040000;stroke-width:0.8643;stroke-linecap:round;stroke-miterlimit:10;}
	.st6{fill:#D38E16;}
</style>
<g transform="translate(-11,-17.5)">
			<path class="st0" d="m68.1 42.6 1.9 2.6c1.5-1.8 2.4-4.3 2.4-7 0-5.7-4.1-10.2-9.1-10.2s-9.1 4.6-9.1 10.2c0 5.7 4.1 10.2 9.1 10.2 1.9 0 3.7-0.7 5.2-1.8l-3.2-4.1h2.8z" fill="none"/>
			<path d="m74.5 38.3c0-7-5-12.6-11.2-12.6s-11.2 5.6-11.2 12.6 5 12.6 11.2 12.6c2.4 0 4.7-0.9 6.6-2.4l1.3 1.7h2.4l-2.2-3.1c1.9-2.3 3.1-5.4 3.1-8.8zm-11.2 10.2c-5 0-9.1-4.6-9.1-10.2 0-5.7 4.1-10.2 9.1-10.2s9.1 4.6 9.1 10.2c0 2.7-0.9 5.1-2.4 7l-1.9-2.6h-2.8l3.2 4.1c-1.5 1-3.3 1.7-5.2 1.7z"/>
			<path class="st0" d="m93.2 42.6 1.9 2.6c1.5-1.8 2.4-4.3 2.4-7 0-5.7-4.1-10.2-9.1-10.2s-9.1 4.6-9.1 10.2c0 5.7 4.1 10.2 9.1 10.2 1.9 0 3.7-0.7 5.2-1.8l-3.2-4.1h2.8z" fill="none"/>
			<path d="m99.6 38.3c0-7-5-12.6-11.2-12.6s-11.2 5.6-11.2 12.6 5 12.6 11.2 12.6c2.4 0 4.7-0.9 6.6-2.4l1.3 1.7h2.4l-2.2-3.1c1.9-2.3 3.1-5.4 3.1-8.8zm-11.2 10.2c-5 0-9.1-4.6-9.1-10.2 0-5.7 4.1-10.2 9.1-10.2s9.1 4.6 9.1 10.2c0 2.7-0.9 5.1-2.4 7l-1.9-2.6h-2.8l3.2 4.1c-1.5 1-3.3 1.7-5.2 1.7z"/>
		<polygon points="112.7 31 106.7 31 105.7 33.9 111.9 33.9 111.9 35.9 109.2 35.9 109.2 39.6 112.7 39.6 112.7 41.3 109.2 41.3 109.2 46.8 112.7 44.7 112.7 46.8 107.4 50.9 105.7 49.3 107.4 47.8 107.4 41.3 104.4 41.3 104.4 39.6 107.3 39.6 107.3 35.9 105.1 35.9 105.1 34.7 103.1 34.4 106.7 25.6 108.9 25.6 107.8 29 112.7 29"/>
		<path d="m116.1 25.6h2.2v5.2l7.3-0.7v2l-6.9 0.7 0.4 3.5 7.3-0.6v1.6l-6.7 1s0.1 4.2 1.5 4.6c3.2-2.2 5.1-3.6 5.1-3.6v2.6l-4.5 2.8 2 3 1.4-2.1h2.1l-2.4 5.3s-3.6-2.2-5.4-4.8c-2.1 1.6-6.2 3.7-6.2 3.7l0.5-2.4 5.1-3.5s-1.2-2.1-1.6-4.9c-3.3 0.5-4 0.5-4 0.5v-2l3.4-0.8-0.2-3.5-3.2-0.1v-1.5l3.1-0.4z"/>
		<polygon points="120.1 25.4 124.4 27.3 124.2 29.5 119.8 27.8"/>
		<path d="m135.2 47.8v-5.9h10v-8.5h-11.4l2-3.2h13.3v13.6h-3.7l1.2 2.1h4.6v-17.9h-14.5l1.2-2.4h-2.5l-6.8 11.3h2.8l1.4-1.8v15.2h20.3v-2.5zm-0.1-12.8h8v5h-8z"/>
		<path class="st1" d="m16.2 58.5h23.8s2.5-0.7 1.1-1.7-5.4-2-13-2-12.1 1.4-12.7 2.4c-0.7 1 0.8 1.3 0.8 1.3z" fill="#f0a91a"/>
		<path class="st2" d="m15.3 34.8s0-17.3 12.6-17.3 13 14.7 13 17.3c3.1 7.8 4 10 4.3 16.1-2.6-0.6-3.3-2.6-4.1-3.5-1.2 4.8-2.9 11.1-12.6 11.1s-12.6-6.4-13.1-11.2c-1.4 1.9-2.1 3.8-4.4 3.6 0.7-4.9 1.5-11.4 4.3-16.1z" fill="#040000"/>
		<path class="st3" d="m18.3 38.9v9.6c0 2.7 3.4 8.3 9.8 8.3s10.2-5.4 10.2-8.3v-9.6z" fill="#f4f4f4"/>
		<path class="st4" d="m15.3 34.8s12.8 4.6 25.6 0c0.8 2.1 2 2.9 1.8 4.5-6 1.9-20.6 3.9-28.8-0.4-0.2-0.7 0.2-3.3 1.4-4.1z" fill="#db2529"/>
		<rect class="st4" x="20.2" y="38.9" width="5.6" height="8.4" fill="#db2529"/>
		<path class="st1" d="m20.2 32s2.3-1.6 8-1.6c5.7 0.1 7.1 1 7.6 1.6-1.3 0.9-3.3 2.8-7.5 2.8s-7.9-2.2-8.1-2.8z" fill="#f0a91a"/>
		<ellipse class="st3" cx="24.8" cy="26.1" rx="2.2" ry="3.3" fill="#f4f4f4"/>
		<ellipse class="st3" cx="31.6" cy="26.1" rx="2.2" ry="3.3" fill="#f4f4f4"/>
		<ellipse class="st2" cx="25.4" cy="26.5" rx="1.2" ry="1.5" fill="#040000"/>
		<path class="st5" d="m30.3 26.5s1.2-1 2.3 0" fill="none" stroke="#040000" stroke-linecap="round" stroke-miterlimit="10" stroke-width=".8643"/>
		<path class="st6" d="m22.5 31.9s1.6-0.8 5.7-0.8 5 0.5 5.3 0.8c-0.9 0.4-2.3 1.4-5.3 1.4s-5.6-1.1-5.7-1.4z" fill="#d38e16"/>
</g>
</svg>
