<svg xmlns="http://www.w3.org/2000/svg" viewBox="0 0 780.43 177.77"><path d="M201.7 39.56c-26.6 0-47.45 21.8-47.45 49.66 0 27.47 20.84 49 47.45 49s47.45-21.52 47.45-49c.05-27.84-20.8-49.66-47.45-49.66zm0 78.63c-14.12 0-24.76-12.45-24.76-29 0-16.9 10.65-29.64 24.76-29.64s25 12.78 25 29.67c0 16.52-10.74 28.97-25 28.97zM364.4 0h-17.7a2.65 2.65 0 0 0-2.65 2.65V132.7a2.65 2.65 0 0 0 2.65 2.65h17.72a2.65 2.65 0 0 0 2.65-2.65V2.65A2.65 2.65 0 0 0 364.39 0zM326 42a97.4 97.4 0 0 0-21.58-2.4c-18.3 0-36.66 5.66-36.66 34.57v58.58a2.65 2.65 0 0 0 2.65 2.65h17.74a2.65 2.65 0 0 0 2.65-2.65v-58.1c0-4.23.74-14.77 16.57-14.77a93.56 93.56 0 0 1 14.33 1.28 2.45 2.45 0 0 0 3-1.7l3.84-14.34c.42-1.63-.6-2.74-2.54-3.14zm-182.14.44h-18.92a2.59 2.59 0 0 0-2.5 1.92l-18 63.63-16.5-56.64a12.23 12.23 0 0 0-11.76-8.94h-5.84a12.23 12.23 0 0 0-11.76 8.94l-16.5 56.6-18-63.63a2.59 2.59 0 0 0-2.5-1.92H2.64a2.65 2.65 0 0 0-2.52 3.46l25.82 80.88a12.34 12.34 0 0 0 11.76 8.61h7.62a12.46 12.46 0 0 0 11.88-8.87l16-54.15 16 54.15a12.46 12.46 0 0 0 11.88 8.87h7.62a12.34 12.34 0 0 0 11.8-8.62l25.88-80.87a2.65 2.65 0 0 0-2.52-3.46zm633.85 0h-18.08a3.17 3.17 0 0 0-2.83 1.77L732 109.77l-24.83-65.7a2.76 2.76 0 0 0-2.6-1.66h-18.1a2.62 2.62 0 0 0-2.69 3.61l36.3 91.06-14.67 37.05c-.72 1.84.07 3.63 2.46 3.63h17.83a2.63 2.63 0 0 0 2.46-1.67l51.98-129.83a2.62 2.62 0 0 0-2.44-3.85zM468.5 0h-17.73a2.65 2.65 0 0 0-2.65 2.65v39a84.71 84.71 0 0 0-19.43-2.09c-35.27 0-42.64 31.74-42.64 49.08 0 38.34 23 49.57 44.6 49.57 18.38 0 30.9-4.38 36.9-7 3.62-1.56 3.62-3.67 3.62-5.53v-123A2.65 2.65 0 0 0 468.51 0zm-20.37 116.15a59.26 59.26 0 0 1-14.91 2.07c-18.54 0-23-13.12-23-28.7 0-5.55-.58-29.75 22.13-29.75a71.37 71.37 0 0 1 15.78 2.09v54.24zm187.42-76.6c-15.72 0-24.56 2.06-33.13 4.47-2.3.65-3.25 2.23-2.6 4.8l2.65 10.75c.34 1.55 1.77 3.66 4.32 3 5.5-1.36 14-4.05 26.35-4.05s15.55 4.62 15.55 15.68h-15.27c-32.57 0-41.63 17.2-41.63 31.26 0 17.75 8.64 32.72 39.28 32.72 23.08 0 34.58-5.83 37.16-7.18 2.1-1.1 3.35-1.93 3.35-5.56v-53.6c.01-24.26-14.33-32.3-36.03-32.3zm13 78a58.3 58.3 0 0 1-16.71 2.31c-13.28 0-17.08-6.65-17.08-13.55 0-8.8 5.8-14.46 18.47-14.46h15.33v25.65zm-115.38-78c-18.38 0-30.9 4.38-36.9 7-3.6 1.6-3.6 3.7-3.6 5.56v123a2.65 2.65 0 0 0 2.65 2.65h17.72a2.65 2.65 0 0 0 2.65-2.65v-39a84.71 84.71 0 0 0 19.45 2.09c35.27 0 42.64-31.74 42.64-49.08-.02-38.34-23.1-49.57-44.62-49.57zm-1.7 78.43a71.38 71.38 0 0 1-15.77-2.12V61.63a59.26 59.26 0 0 1 14.91-2.07c18.54 0 23 13.12 23 28.7 0 5.55.58 29.75-22.13 29.75z" fill="#ed1c24"/></svg>