<?xml version="1.0" encoding="UTF-8"?>
<svg width="390" height="99" enable-background="new 0 0 175 45" overflow="visible" version="1.1" viewBox="0 0 175 45" xml:space="preserve" xmlns="http://www.w3.org/2000/svg" xmlns:cc="http://creativecommons.org/ns#" xmlns:dc="http://purl.org/dc/elements/1.1/" xmlns:rdf="http://www.w3.org/1999/02/22-rdf-syntax-ns#"><metadata><rdf:RDF><cc:Work rdf:about=""><dc:format>image/svg+xml</dc:format><dc:type rdf:resource="http://purl.org/dc/dcmitype/StillImage"/><dc:title/></cc:Work></rdf:RDF></metadata><g transform="matrix(1.0003 0 0 1 -.025001 1.0423e-7)" clip-rule="evenodd"><path d="m175 45h-175v-45h175v45z" opacity="0"/><g transform="matrix(1.106 0 0 1.1051 -10.243 -2.2278)" fill-rule="evenodd"><g fill="#091c5a"><path d="m9.252 13.29c1.204 0 2.043 0.255 2.564 0.776 0.583 0.583 0.844 1.546 0.844 3.122v19.685c0 2.724-0.571 3.939-3.941 3.939h-0.462v1.208h15.145v-1.202l-0.457-6e-3c-3.338-0.04-3.901-1.248-3.901-3.939v-19.686c0-1.571 0.26-2.53 0.843-3.112 0.526-0.529 1.38-0.786 2.609-0.786h0.905v-1.225h-15.144v1.225h0.995z"/><path d="m57.69 31.978s-0.263-1.229-0.301-1.917v-8.991c-0.059-5.243 0.656-7.853-3.928-7.833v-1.178h10.545v1.178c-4.721-0.019-4.127 2.591-4.154 7.833v20.994l-1.501-0.016-22.771-23.83s0.256 1.227 0.294 1.916v14.723c-0.129 5.371 0.536 6.02 3.996 5.957v1.227h-10.993v-1.227c3.465 4e-3 4.146-0.457 4.142-6.395v0.355-14.51l-0.028-2.303c0.129-2.981-0.972-4.71-4.333-4.682v-1.179h10.121l18.911 19.878z"/><path d="m95.862 11.487h-1.162l-0.054 0.398c-0.079 0.594-0.313 1.589-0.99 1.589-0.193 0-0.674-0.091-1.216-0.339-2.354-1.02-5.404-1.648-7.972-1.648-4.997 0-9.53 1.79-12.768 5.042-2.974 2.988-4.601 7.055-4.578 11.45 0.021 4.21 1.676 7.673 5.064 10.592 3.413 2.92 7.237 4.165 12.794 4.165 4.629 0 7.279-0.665 11.346-2.848l0.712-0.386v-7.855c0-3.348 0.41-3.869 3.134-3.979l0.443-0.017v-1.167h-13.308v1.167l0.443 0.017c3.034 0.118 3.607 0.662 3.607 3.43v7.279c-2.251 1.485-3.887 2.049-5.95 2.049-3.053 0-5.77-1.18-7.856-3.264-2.443-2.445-3.635-6.006-3.635-10.03 0-4.335 1.154-8.033 3.532-10.409 1.893-1.893 4.407-2.944 7.275-2.944 2.562 0 5.538 1.099 7.579 2.718 1.66 1.359 2.521 2.674 3.171 4.847l0.099 0.329h1.136l-0.846-10.186z"/></g><path d="m154.15 41.939c0.74-0.112 1.525-0.095 2.115-0.637 2.5 0.384 5.034-0.234 6.999-1.611 1.035-0.835 1.968-1.804 2.723-2.863 0.664-0.932 1.188-1.801 1.527-2.845 0.253-0.644 0.453-1.314 0.604-2.002 0.713-3.244 0.338-6.872-0.718-9.957-0.193-0.573-0.414-1.128-0.654-1.657-1.318-2.724-3.112-5.663-5.874-7.386-1.556-0.97-2.988-2.471-3.867-4.025-0.478-0.43-0.936-1-1.554-1.103 0.169 0.279 0.355 0.552 0.401 0.878l-0.036 0.046c-0.656 0.019-1.17-0.328-1.619-0.748l0.495-0.449c-0.187-0.095-0.401-0.131-0.608-0.179-1.889-0.215-3.443 0.657-5.119 1.077l-0.026 0.093c1.029 0.458 1.244 1.592 1.843 2.359 0.148-0.178 0.401-0.048 0.608-0.064 0.299 0.017 0.58 0.233 0.87 0.157 9e-3 -0.25-0.132-0.449-0.177-0.673 0.177-0.084 0.392-0.01 0.59 0 0.542 0.317 1.411-0.056 1.749 0.673-0.618 0.039-1.198 0.169-1.778 0.31 0.038 0.234 0.272 0.42 0.253 0.655-0.496-0.206-1.021-0.336-1.573-0.401l-0.028 0.083c0.702 0.823 1.666 1.311 2.649 1.6 1.414 0.327 2.658-0.346 4.023-0.112 3.352 1.535 6.215 5.046 7.46 8.378 0.061 0.16 0.12 0.322 0.175 0.487 1.043 3.043 1.241 6.783 0.196 9.957-0.556 1.32-1.168 2.566-2.149 3.639-0.371 0.457-0.781 0.864-1.227 1.208-1.405 1.094-3.137 1.577-4.923 1.087-0.112-0.077-0.337-0.096-0.299-0.291 0.062-0.261 0.12-0.525 0.171-0.796 0.295-1.521 0.433-3.121 0.353-4.721-2e-3 -0.068-4e-3 -0.137-6e-3 -0.205-0.099-2.323-0.562-4.411-1.415-6.42-0.548-1.153-1.198-2.41-2.017-3.538-0.978-1.345-2.191-2.507-3.749-3.087-0.955-0.253-2.134-0.301-2.854 0.494-0.515 0.451-0.729 1.058-0.655 1.724-0.805 0.51-1.71 0.785-2.695 0.869-0.241 0.021-0.488 0.11-0.739 0.107-0.238 0.011-0.47 1e-3 -0.698-0.027-1.185-0.146-2.384-0.786-3.295-1.516-0.019-0.487-0.047-0.945-0.066-1.46-0.522-0.271-0.955-0.786-0.991-1.395l0.046-0.046c0.301 0.093 0.561 0.242 0.833 0.401-0.122-0.73-0.263-1.45-0.626-2.087-0.338-0.141-0.675-0.253-0.992-0.422-0.365-0.241-0.6-0.683-0.654-1.084 0.327 0.318 0.897 0.206 1.15 0.542-0.441-1.301-0.448-2.789-1.17-3.978-0.365-0.879-1.32-1.282-1.975-1.927-0.253-0.31-0.355-0.74-0.813-0.788-0.375-0.093-0.403-0.513-0.468-0.786 0.233 0.028 0.429 0.187 0.625 0.224-0.542-1.439-1.02-3.041-2.488-3.958l-0.252 0.16c-0.571 0.084-1.18 0.122-1.75 0.141 0.253-0.374 0.701-0.534 1.057-0.704-0.412-0.308-0.751-0.382-1.266-0.466-0.299 0.298-0.84 0.449-1.224 0.533l-0.048-0.038c-0.01-0.337-0.086-0.748 0.421-0.833-0.487-0.234-1.294-0.139-1.79 0-0.139 0.365-0.541 0.693-0.512 1.125-0.289 0.299-0.495 0.702-0.796 0.917-9e-3 -0.721 0.298-1.385 0.429-1.993-0.421 0.159-0.849 0.384-1.262 0.58-0.663-0.384-1.363-0.767-2.074-1.058-0.064-0.028-0.206-0.055-0.178 0.066 0.609 0.439 0.373 1.264 0.438 1.889l-0.384-0.317c-0.187-0.477-0.727-0.823-0.82-1.347-0.637 0.122-1.044 0.29-1.634 0.543l-0.081 0.047c0.439 0 0.813 0.345 1.028 0.693-0.664 0.036-1.254-0.225-1.909-0.292-0.065-0.064-0.122-0.141-0.225-0.131-0.327 0.122-0.609 0.355-0.897 0.58-0.646 0.637-1.302 1.339-1.61 2.182 0.216 0.036 0.487 0.027 0.646 0.158-0.355 0.215-0.664 0.581-1.01 0.786-0.122 0.487-0.103 1.041-0.132 1.573-0.272 0.413-0.636 0.776-0.813 1.237-0.581 1.878-0.73 3.967-0.646 6.1-0.188 0.179-0.432 0.292-0.608 0.432l0.019 1.908h0.046c0.084-0.401 0.562-0.625 0.852-0.897h0.094c-0.047 0.43-0.103 0.861-0.112 1.301l-0.542 0.449c-0.544 0.478-0.085 1.198-0.131 1.798 0.038 0.157 0.064 0.392 0.177 0.43 0.066-0.234 0.271-0.402 0.403-0.609 0.233-0.055 0.439-0.244 0.654-0.27-0.122 0.468-0.279 0.926-0.468 1.375-0.09 0.059-0.195 0.138-0.285 0.234-0.096 0.103-0.173 0.218-0.193 0.346 0.423 2.217 1.085 4.407 1.842 6.494-0.513 0.871-0.805 1.896-1.233 2.795-0.062 0.125-0.117 0.254-0.168 0.384-0.43 1.088-0.561 2.305-1.096 3.35-0.217-0.148-0.451-0.263-0.692-0.365-1.012-0.337-2.182-0.122-2.92 0.656-0.656-0.122-1.33-0.01-1.845 0.337-0.369 0.275-0.654 0.61-0.818 1-0.112 0.272-0.163 0.568-0.146 0.891-0.42 0.289-0.645 0.737-0.785 1.188-0.196 1.01 0.159 2.062 0.739 2.84h46.647z" fill="#fff"/><path d="m147.96 20.896c-0.01 0.243-0.187 0.516-0.028 0.721 0.225-0.253 0.6-0.244 0.899-0.355 0.832-0.075 1.628 0.186 2.404 0.375-0.195-0.31-0.327-0.654-0.542-0.936-0.432-0.112-1.086 0.187-1.16-0.449-0.263-0.225-0.676-0.064-0.945-0.048-0.263 0.189-0.478 0.421-0.628 0.692z" fill="#fff"/><path d="m119.35 12.816c-4e-3 -4e-3 -0.01-8e-3 -0.014-9e-3 0 1e-3 0 5e-3 2e-3 9e-3h0.012z" fill="#fff"/><path d="m122.76 21.134 0.562-0.542c0.048 0 0.084 0.01 0.112 0.048l-0.047 1.038c0.271 0.253 0.608 0.337 0.963 0.356 0.029-0.281 0.244-0.477 0.366-0.721 0.103-0.196 0.038-0.487 0.243-0.628l0.064 0.066c0.067 0.308 0.049 0.655 0.208 0.926 0.019 0.149 0.046 0.337 0.064 0.468 0.412 0.02 0.785-0.094 1.104-0.243-0.019-0.355 0.104-0.646 0.158-0.974 0.086-0.113-0.103-0.318 0.132-0.308 0.131 0.28 0.365 0.57 0.496 0.869 0.542-0.552 0.767-1.272 0.898-2.02-0.158-0.217-0.402-0.217-0.59-0.356-1.59-0.515-3.632-0.619-5.167 0.177-0.099 0.638 0.032 1.34 0.434 1.844z" fill="#fff"/><path d="m107.88 38.696c-0.057 0.722 0 1.398 0.045 2.109 0.151 0.234 0.423 0.506 0.692 0.525l0.049-0.478c0.111-0.666-0.244-1.372 0.131-1.933 0.262 0.084 0.522 0.215 0.749 0.337 0.11-0.618-0.047-1.338-0.637-1.712l-1.029 1.152z" fill="#fff"/><path d="m110.19 37.687c-0.365 1.094-0.637 2.446-0.195 3.597 0.251-0.167 0.514-0.327 0.737-0.561-0.045-0.881-0.167-1.821 0.356-2.551 0.458 0.141 0.769 0.581 0.945 1.012 0.31-0.395 0.413-0.937 0.291-1.462 0.019-0.41-0.451-0.316-0.675-0.486 0.076-0.346 0.065-0.747 0.431-0.943l-1.123 0.112c-0.289 0.41-0.607 0.814-0.767 1.282z" fill="#fff"/><path d="m112.51 40.918c0.048 0.086 0 0.234 0.094 0.253 0.141-0.785 0.777-1.295 1.124-1.987 0.167-0.234 0.157-0.562 0.429-0.74 0.366 0 0.628 0.263 0.984 0.291 0.112 0.084-0.058 0.158-0.066 0.251-0.074 0.638-0.318 1.166-0.271 1.82h0.064c0.496-0.522 0.833-1.09 1.198-1.689l0.064-0.532c0.084-0.637-0.608-1.048-1.057-1.31l0.402-0.515-0.561-0.197c-0.656 0.066-1.246 0.337-1.704 0.853-0.569 1.047-0.662 2.23-0.7 3.502z" fill="#fff"/><path d="m115.02 35.364c0.215 0.066 0.411-0.112 0.625-0.018 0.862 0.317 1.761 0.645 2.406 1.366l0.768 1.955 0.384-1.206-0.253-0.656c-0.215-0.468-0.805-0.43-1.208-0.449-0.167-0.187 0.01-0.403 0.067-0.58 0.195-0.664-0.619-0.628-0.946-0.897 0.02-0.403-0.468-0.263-0.74-0.301l-0.093-0.112c-0.055-0.084-0.195-0.084-0.271-0.019-0.02-0.027-0.056-0.046-0.036-0.094l-0.208 0.048c-0.289 0.253-0.486 0.58-0.495 0.963z" fill="#fff"/><path d="m115.57 33.213c0.028 0.121 0.103 0.243 0.196 0.317 0.422-0.112 0.823-0.401 1.31-0.225 0.628 0.552 1.282 1.132 2.042 1.433l0.27-0.048c0.169 0.058 0.355 0.066 0.468 0.253 0.104 0.253-0.157 0.403-0.243 0.608 0.422 0.309 0.253 0.862 0.516 1.235l0.674-0.898c-0.158-0.394 9e-3 -1.067-0.609-1.104-0.205-0.104-0.346-0.31-0.337-0.544-0.401-0.365-0.897-0.523-1.301-0.897-0.327-0.263-0.523-0.666-0.945-0.759-0.289-0.158-0.606-0.243-0.943-0.317-0.63-0.093-0.685 0.654-1.098 0.946z" fill="#fff"/><path d="m116.46 31.369 0.113 0.178c0.467-0.029 0.89-0.234 1.349-0.225 0.308 0.188 0.711 0.179 1.028 0.337 0.253 0.346 0.525 0.739 0.897 0.974 0.76 0.111 1.18 0.926 1.442 1.524v-0.29c0.112-0.401-0.01-0.87-0.16-1.234-0.187-0.188-0.458-0.311-0.654-0.479-0.038-0.121-0.01-0.178 0.028-0.29-0.291-0.309-0.721-0.478-1.076-0.72-0.496-0.721-1.451-0.524-2.209-0.721l-0.758 0.946z" fill="#fff"/><path d="m116.45 24.503c0.083 0.291 0.185 0.656 0.24 0.964 0.262-0.58 0.779-0.84 1.237-1.318-0.263-0.179-0.589-0.263-0.879-0.319v-0.017c-0.206 0.205-0.524 0.411-0.598 0.69z" fill="#fff"/><path d="m118.15 27.582 0.421-0.43c0.422-0.43 0.768-0.927 0.833-1.479-0.299-0.178-0.692-0.057-0.982 0.046-0.105 0.61-0.262 1.209-0.272 1.863z" fill="#fff"/><path d="m118.46 28.902c0.647 0.038 1.273 0.167 1.798-0.195l0.523-1.686c-0.167-0.01-0.337-0.084-0.495-0.028-0.345 0.768-1.04 1.525-1.826 1.909z" fill="#fff"/><path d="m118.65 22.931c0.421 0.619 1.123 1.311 1.844 1.506-0.084-0.785-0.757-1.329-1.104-2.002l-0.02-0.225c-0.271-0.263-0.599-0.439-0.88-0.581-0.045 0.451 0.077 0.882 0.16 1.302z" fill="#fff"/><path d="m120.93 28.977c0.496 0.086 1.029 0 1.487-0.142 0.666-0.157 1.031-0.888 1.255-1.458h-0.833l-0.899 0.879c-0.354 0.188-0.693 0.47-1.01 0.721z" fill="#fff"/><path d="m120.83 22.08c0.141 0.73 0.448 1.394 0.871 2.022l0.112-1.395-0.983-0.627z" fill="#fff"/><path d="m123.9 25.72c0.056-0.468-0.139-1.01-0.193-1.487-0.282-0.188-0.676-0.169-0.965-0.355 0.018 0.739 0.597 1.365 1.158 1.842z" fill="#fff"/><path d="m123.04 30.476c0.59-0.188 1.16-0.394 1.702-0.694 0.346-0.494 0.871-0.946 0.945-1.525-0.43 0.121-0.805-0.018-1.206 0.179-0.243 0.439-0.394 0.936-0.861 1.253-0.074 0.317-0.421 0.534-0.58 0.787z" fill="#fff"/><path d="m123.96 31.627 0.702 0.916c0.375 0.122 0.843 0.084 1.17-0.131l-0.253-0.833c-0.495 0.189-1.084 0.131-1.619 0.048z" fill="#fff"/><path d="m125.13 24.999 0.271 1.236c0.654-0.534 0.787-1.311 0.771-2.134-0.375 0.43-0.594 0.693-1.042 0.898z" fill="#fff"/><path d="m126.97 27.181c0.01 0.177 0.057 0.346 0.16 0.487 0.729 0.261 0.804 1.15 1.479 1.487 0.439 0.196 0.943-0.048 1.328-0.225-0.29-0.327-0.619-0.554-0.898-0.899-0.197-0.084-0.394-0.206-0.384-0.449l-1.685-0.401z" fill="#fff"/><path d="m127.55 31.598c0.319 0.365 0.749 0.552 1.198 0.654-0.074-0.103 0.048 0 0.066-0.065l-0.563-1.233c-0.28 7e-3 -0.57 0.064-0.832 0.046 0.018 0.204 0.066 0.409 0.131 0.598z" fill="#fff"/><path d="m128.55 25.832c-0.263-0.608-0.373-1.347-0.447-2.02-0.281 0.336-0.571 0.552-0.833 0.897-0.122 0.693 0.867 0.863 1.28 1.123z" fill="#fff"/><path d="m129.69 25.197c0.337 0.439 1.076 0.289 1.49 0.158-0.198-0.337-0.832-0.533-0.944-0.898-0.066-0.645-0.195-1.272-0.403-1.862-0.328 0.795-0.723 1.741-0.143 2.602z" fill="#fff"/><path d="m130.28 27.181c0.937 0.684 1.853 1.478 3.163 1.188 0.094-0.066 0.253-0.057 0.272-0.178-0.385-0.244-0.795-0.431-1.189-0.654l-0.448-0.656h-0.206c-0.506 0.169-1.05 0.233-1.592 0.3z" fill="#fff"/><path d="m130.3 34.771h0.064c0.563-0.449 1.227-0.599 1.891-0.787 0.179 0.065 0.066 0.262 0.225 0.338 0.403-0.169 0.89-0.131 1.301-0.272 0.497 0.02 0.9 0.029 1.301 0.244 0.317 0.42 0.917 0.375 1.33 0.654l-0.066-0.654c-0.87-1.021-2.228-1.096-3.48-1.076l-0.029-0.132c-0.299 0-0.635 0.066-0.916 0.198-0.402 0.017-0.786 0.215-1.171 0.336-0.179 0.356-0.319 0.785-0.45 1.151z" fill="#fff"/><path d="m131.05 23.269c0.365 0.478 0.907 0.842 1.525 0.721-0.317-0.309-0.683-0.638-0.702-1.077 0.094-0.833-0.823-0.898-1.272-1.33 0.148 0.563 0.131 1.189 0.449 1.686z" fill="#fff"/><path d="m130.95 36.428h0.109c0.497-0.311 1.218-0.076 1.705-0.404 0.271-0.141 0.289 0.234 0.478 0.337 0.458 0.281 0.514 1.122 1.16 0.927 0.776 0.402 0.58 1.349 0.608 2.041l0.721-0.449c-0.066-0.365 0.139-0.807-0.095-1.124-0.177-0.401-0.663-0.439-0.897-0.767 0.281-0.478-0.355-0.701-0.487-1.048l0.038-0.048 0.99 0.131c0.339 0.206 0.459 0.581 0.563 0.927 0.777 0.131 0.964 1.01 1.236 1.572 0.159-0.384 0.224-0.796 0.384-1.169 9e-3 -0.31-0.403-0.31-0.608-0.449-0.058-0.477-0.272-0.928-0.692-1.217-0.862-0.215-1.619-0.693-2.564-0.693l-0.787 0.244c-0.431 0.103-0.889-0.028-1.216 0.27-0.489 0.037-0.526 0.572-0.646 0.919z" fill="#fff"/><path d="m131.45 32.571 0.179 0.084c0.382-0.179 0.767-0.384 1.17-0.534 0.626-0.178 1.113 0.534 1.638 0.085 0.196-0.141 0.363 0.065 0.514 0.178 0.225 0.412 0.749 0.384 1.142 0.496-0.196-0.533-0.439-1.264-1.123-1.35-0.271-0.121-0.59-0.109-0.852-0.27-0.72-0.795-1.188 0.654-1.975 0.299-0.28 0.311-0.626 0.6-0.693 1.012z" fill="#fff"/><path d="m131.63 37.129c0.299 0.251 0.607 0.683 1.074 0.626 0.583 0.272 0.339 1.038 0.657 1.441l0.336-0.3-0.028-0.018 0.048-0.047 0.02 0.028c0.093-0.282-0.039-0.778-0.198-1.105-0.215-0.148-0.468 0.01-0.673-0.131-0.029-0.299-0.216-0.449-0.431-0.636-0.15-0.112-0.347 0.038-0.515 0.028l-0.29 0.114z" fill="#fff"/><path d="m132.8 25.72c0.309 0.516 0.907 0.834 1.385 1.189 0.392 0.179 0.907 0.224 1.329 0.131-0.402-0.327-0.768-0.701-1.104-1.096-0.131-0.187-0.16-0.42-0.337-0.589-0.442 0.085-0.936 0.076-1.273 0.365z" fill="#fff"/><path d="m133.31 22.371c0.432 0.532 1.096 0.318 1.704 0.336v-0.064l-0.936-0.788c-0.263 0.085-0.542 0.318-0.768 0.516z" fill="#fff"/><path d="m116.08 13.545 0.542 1.685c-0.01-0.955 0.43-1.75 0.337-2.723l0.403-0.6-0.853 0.262c-0.224 0.43-0.41 0.862-0.429 1.376z" fill="#fff"/><path d="m116.45 10.625 0.738-0.431v-1.095c-0.309 0.188-0.479 0.506-0.72 0.759l-0.018 0.767z" fill="#fff"/><path d="m131.63 12.329c-0.179 0.234-0.449 0.29-0.673 0.337 0.392-0.721 0.58-1.724 0.27-2.538 0.207-0.074 0.432-0.11 0.628-0.224l-0.02-0.018 0.516-0.451c0.683-0.468 0.421-1.356 0.674-2.02-0.337-0.525-0.439-1.161-0.927-1.602l0.029-0.017c-0.385-0.487-1.077-0.432-1.603-0.675-0.692-0.234-1.225 0.243-1.721 0.563-0.215 0.036-0.084 0.317-0.318 0.308-0.131 0.347-0.291 0.721-0.384 1.104-0.927-0.132-1.927-0.027-2.667 0.496-0.394-0.289-0.871-0.346-1.33-0.477-0.336-0.065-0.72 0.057-0.962-0.132-0.355-0.401-0.432-1.132-1.041-1.234-0.214-0.075-0.26-0.308-0.26-0.515-0.403-0.065-0.76-0.251-1.153-0.337-0.597-0.272-1.074 0.16-1.524 0.449-0.196 0.085-0.421 0.112-0.607 0.226-0.337 0.523-0.656 1.057-0.871 1.636 0.066 0.477 0.271 0.899 0.516 1.301 0.215 0.609 0.888 1.086 1.459 1.33-0.271 0.926-0.271 2.031 0 2.967 0 0-0.016 0.011-0.016 9e-3 0 2e-3 -0.03 0.026-0.03 0.026-0.09 0-0.185 0.018-0.259-0.026h-0.012c0.131 0.894 0.552 1.676 1.232 2.347 0.244 0.086 0.188 0.375 0.292 0.563 0.064 0.083 0.073 0.261 0.045 0.336-1.458-0.047-2.76 0.318-3.93 0.982-0.299 0.15-0.167 0.563-0.195 0.852 0.823-0.542 1.712-0.945 2.694-1.122 0.421-0.028 0.898-0.131 1.301-0.019l0.047 0.805c-1.113 0.58-2.33 0.917-3.285 1.872 0.019 0.289-0.036 0.627 0.048 0.871l0.852-0.694c0.822-0.625 1.683-1.16 2.629-1.506 0.253 0.3 0.516 0.618 0.853 0.804 0.57-0.365 1.188-0.635 1.843-0.804 0.347-0.206 0.897-0.019 1.122-0.43l0.16-0.852c-0.029-0.019-0.046-0.055-0.094-0.045-0.439-0.253-0.729-0.692-0.692-1.208-0.149 0.074-0.317 0.122-0.496 0.131-0.15-0.038-0.289-0.074-0.355-0.225-0.01-0.188-0.104-0.468 0.083-0.608 0.608-0.375 1.395-0.394 2.163-0.336 0.57 0.074 1.395 0.045 1.59 0.721-0.026 0.196-9e-3 0.411-0.205 0.542-0.206 0.112-0.439-0.01-0.628-0.093-0.148 0.458-0.401 0.974-0.917 1.122l0.067 0.544c0.064 0.244 0.083 0.645 0.468 0.561 0.889 0.215 1.674 0.674 2.451 1.17 0.262-0.263 0.468-0.563 0.654-0.833 1.385 0.467 2.584 1.506 3.725 2.47l0.048-0.786c-1.086-0.964-2.294-1.647-3.548-2.181 0.048-0.253 0.104-0.497 0.112-0.767 1.489 0.083 2.9 0.542 4.128 1.264l-0.02-0.674c-1.291-0.692-2.704-1.151-4.249-1.17-0.056-0.086-0.074-0.206-0.064-0.291 0.749-0.122 1.281-0.898 1.461-1.573 0.382-0.439 0.936-0.917 0.805-1.571 0.017-0.053 0.036-0.111 0.055-0.167 0.05-0.165 0.092-0.336 0.036-0.488z" fill="#fff"/><path d="m132.93 14.734 0.767-0.244 0.083-0.43c0.217-0.627-0.241-1.095-0.468-1.592l-0.382 2.266z" fill="#fff"/><path d="m134.86 17.701c0.365 0.401 0.721 1.048 1.368 0.85-0.048-0.27-0.198-0.494-0.291-0.738-0.17-0.198-0.225-0.759-0.562-0.561-0.253-0.169-0.317-0.451-0.478-0.675-0.073 0.346-0.027 0.777-0.037 1.124z" fill="#fff"/><path d="m135 20.441c0.141 0.198 0.179 0.451 0.317 0.628 0.253 0.167 0.628 0.141 0.936 0.112 0.281-0.065 0.459 0.243 0.721 0.064-0.326-0.205-0.522-0.58-0.833-0.85-0.366-0.29-0.757-0.037-1.141 0.046z" fill="#fff"/><path d="m135.49 24.794c0.645 0.384 1.467 0.759 2.328 0.628 0.093-0.048 0.253-0.038 0.271-0.151-0.533-0.188-1.093-0.721-1.653-0.833-0.31-0.477-0.712 0.122-1.105 0.084 9e-3 0.113 0.121 0.198 0.159 0.272z" fill="#fff"/><path d="m137.44 33.057 0.141 0.301c0.141 0.974 0.757 1.871 0.42 2.938 0.281 0.196 0.366 0.523 0.543 0.785h0.047c0.215-0.813 0.066-1.656-0.047-2.471 0.084-0.739-0.665-1.17-1.104-1.553z" fill="#fff"/><path d="m137.6 23.474c0.487 0.375 1.264 0.412 1.824 0.225-0.355-0.196-0.747-0.411-1.039-0.674l-0.785 0.449z" fill="#fff"/><path d="m139.91 26.348c-0.048 0.394 0.215 0.721 0.496 0.917 0.103-0.234 0.271-0.43 0.289-0.692-0.083-0.403-0.308-0.767-0.673-1.038-0.066 0.261-0.14 0.512-0.112 0.813z" fill="#fff"/><path d="m139.94 30.614c-0.066 0.439 0.42 0.497 0.626 0.74 0.169 0.205-0.112 0.346-0.112 0.542 0.355 0.458 0.561 0.983 0.561 1.592 0.141-0.57 0.356-1.115 0.433-1.704-0.038-0.411-0.692-0.327-0.59-0.785 0.186-0.468-0.038-0.927-0.16-1.347-0.038-0.067-0.122-0.198-0.195-0.16-0.172 0.384-0.592 0.654-0.563 1.122z" fill="#fff"/><path d="m141.22 28.387 0.486 0.945c0.216-0.026 0.354-0.234 0.523-0.382 0.132-0.394-0.215-0.647-0.317-0.965-0.086-0.225 0-0.524-0.16-0.721-0.121-0.074-0.263-0.196-0.403-0.16l-0.129 1.283z" fill="#fff"/><path d="m141.84 25.899c0.384 0.233 0.823 0.57 1.028 0.981 0.329 0.955 0.853 1.816 1.236 2.742 0.141 0.646 0.253 1.222 0.431 1.859 0.066 0.166 0.028 0.494 0.291 0.467 0.074-0.711 0.215-1.394 0.224-2.134-0.233-0.308-0.544-0.439-0.833-0.628v-0.064c0.038-0.16 0.169-0.347 0.366-0.317 0.083-0.096 0.336-0.188 0.225-0.356-0.487-0.486-0.459-1.325-1.237-1.476-0.27-0.112-0.337-0.392-0.363-0.654-0.366-0.307-0.91-0.413-1.368-0.42z" fill="#fff"/><path d="m142.29 30.971c0.478 0.438 0.311 1.075 0.272 1.665-0.074 0.356 0.375 0.15 0.516 0.337 0.289 0.431 0.121 1.058 0.017 1.526 0.254-0.385 0.544-0.722 0.74-1.142-0.01-0.16 0.195-0.234 0.188-0.43 0.083-0.272-0.234-0.15-0.365-0.18-0.112-0.028-0.234-0.103-0.198-0.252 0.244-0.469 0.02-1.03-0.074-1.497-0.112-0.385 0.048-0.898-0.131-1.235-0.299 0.412-1.189 0.506-0.965 1.208z" fill="#fff"/><path d="m143.16 24.325c0.834 0.843 1.442 1.689 2.34 2.504 0.02-0.363-0.028-0.702-0.047-1.058-0.132-0.251-0.375-0.439-0.581-0.626-0.663-0.066-1.01-0.96-1.712-0.82z" fill="#fff"/><path d="m145.34 28.786c0.019 0.084 0.057 0.158 0.093 0.243 0.365 0.6 0.711 1.216 0.965 1.862-0.075-0.691 0.394-1.554-0.225-2.086-0.084-0.225-0.365-0.15-0.543-0.132l-0.29 0.113z" fill="#fff"/><path d="m147.59 35.623c0.263 0.119 0.599-0.096 0.852-0.244 0.234-0.057 0.431 0.074 0.609 0.196 0.074 0.149 0 0.289 0.026 0.43 0.563 0.159 1.114 0.365 1.611 0.692l0.157-0.158c0.038-0.403-0.279-0.691-0.579-0.916-0.196-0.115-0.488-0.048-0.626-0.227 0.093-0.148 0.093-0.373 0.083-0.542-0.31 0-0.506-0.094-0.759-0.244-0.157-0.046-0.299-0.177-0.43 0-0.467 0.319-0.495 0.786-0.944 1.013z" fill="#fff"/><path d="m148.25 23.845c0.233-0.064 0.478-0.132 0.674-0.299 0.625-0.571 1.534-0.188 2.263-0.197-0.139-0.253-0.337-0.504-0.514-0.721-0.262-0.103-0.506-0.225-0.805-0.225-0.637-0.373-1.066 0.253-1.554 0.561-0.13 0.255-0.195 0.628-0.064 0.881z" fill="#fff"/><path d="m148.26 25.771c0-0.026 0-0.056 0.028-0.064 0.084 0.075-0.01 0.252 0.131 0.289 0.243-0.12 0.468-0.289 0.692-0.447 0.628 0 1.002-0.608 1.618-0.608 1.029 0.186 2.051 0.392 2.948 0.897-0.064-0.608-0.589-1.16-1.121-1.433-0.301-0.103-0.535 0.058-0.75 0.225-0.628 0.395-0.299-0.57-0.739-0.59-0.571 0.18-1.161 0.375-1.796 0.32-0.375 0.139-0.638 0.484-1.058 0.448-0.019 0.309-0.066 0.684 0.047 0.963z" fill="#fff"/><path d="m148.7 27.86c0.195 0.205 0.522 0.167 0.805 0.205l0.813-0.317c0.01-0.15-0.243-0.189-0.188-0.355 0.225-0.253 0.535-0.076 0.814-0.18 0.395-0.055 0.797-0.448 1.188-0.158-9e-3 0.046 0.02 0.113-0.017 0.158-0.124 0.291 0.084 0.468 0.308 0.58 0.459 0.086 0.889 0.507 1.348 0.318-0.046-0.383-0.149-0.738-0.244-1.104-0.383-0.066-0.654-0.384-1.01-0.516-0.16 0.15-0.365 0.263-0.562 0.244-0.721-0.168-1.582-0.617-2.311-0.158-0.263 0.317-0.731 0.224-1.086 0.363 0.02 0.321 0.056 0.629 0.142 0.92z" fill="#fff"/><path d="m149 33.422c-0.057 0.159-0.215 0.422 0.074 0.496 0.6 0.02 1.367-0.289 1.836 0.178 0.158 0.123 0.083 0.374 0.074 0.534l0.785 0.656c0.076-0.394 0.215-0.75 0.225-1.172-0.064-0.299-0.215-0.59-0.476-0.786-0.516 0-0.816-0.603-1.368-0.526-0.289-0.067-0.541 0.19-0.833 0.19-0.131 0.131-0.205 0.291-0.317 0.43z" fill="#fff"/><path d="m149.23 29.011c0.121 0.251 0.263 0.664 0.496 0.692 0.552-0.243 1.356-0.394 1.975-0.131 0.206 0.037 0.206 0.271 0.16 0.422 0.317 0.187 0.702 0.335 1.038 0.542l-0.093-0.561c-0.02-0.609-0.787-0.666-0.834-1.266-0.627-0.205-1.329-0.27-1.993-0.111-0.217 0.197-0.524 0.169-0.787 0.226-0.017 0.074 0.028 0.12 0.038 0.187z" fill="#fff"/><path d="m149.39 32.043c0.365-0.103 0.597-0.506 0.991-0.542 0.599 0.01 1.133 0.251 1.506 0.767 0.227 0.149 0.179 0.534 0.468 0.534-0.084-0.46 0.066-0.881 0.048-1.349-0.395-0.654-1.365-0.15-1.731-0.917l-0.692 0.046c-0.496 0.122-0.364 0.703-0.432 1.096-0.056 0.122-0.168 0.215-0.158 0.365z" fill="#fff"/><path d="m152.82 36.136c0.291 0.58 0.929 1.021 0.993 1.686 0.15-0.179 0.253-0.384 0.356-0.58-0.01-0.188-0.226-0.188-0.311-0.337-0.084-0.243 0.048-0.458 0.085-0.675-0.121-0.347-0.412-0.674-0.739-0.879l-0.384 0.785z" fill="#fff"/><path d="m153.98 34.658 0.673 0.917c0.289-0.459 0.289-1.132 0.177-1.686-0.064-0.103-0.187-0.271-0.355-0.196-0.254 0.263-0.29 0.664-0.495 0.965z" fill="#fff"/><path d="m151.23 9.041c0.244 0.122 0.478 0.234 0.767 0.252 0.198-0.102 0.451-0.177 0.694-0.112 0.346 0.225 0.767-0.047 1.168-0.028-0.354-0.336-0.758-0.542-1.168-0.738-0.525 0.111-0.945 0.484-1.461 0.626z" fill="#fff"/><path d="m154.89 9.921c0.494 0.046 0.85 0.485 1.187 0.853 0.422 0.064 0.74 0.363 0.992 0.673l-0.159-0.497c-0.112-0.497-0.421-0.881-0.738-1.272-0.449 0.028-0.891 0.065-1.282 0.243z" fill="#fff"/><path d="m119.97 5.814 0.271 0.028c0.731 0.365 1.91 0.552 1.975 1.609-0.737 0.291-1.449 0.685-2.038 1.282-0.449-0.459-1.358-0.206-1.507-1.01 0.141-0.758 0.411-1.711 1.299-1.909z" fill="#f60"/><path d="m120.67 10.56c0.85-0.074 1.674 0.045 2.555-0.028 0.215 0.093 0.439 0.281 0.542 0.496-0.028 1.01-0.337 1.975-0.384 3.013-0.383 0.161-0.758 0.478-0.851 0.899-0.347 0.102-0.656 0.31-0.993 0.467-0.15-0.317-0.122-0.795 0.142-1.056 0.364-0.516 1.31-0.394 1.233-1.208 0.244-0.394 0.01-0.899 0.02-1.311-0.094-0.308-0.187 0.103-0.337 0.093-0.299 0.064-0.608 0.084-0.869-0.064-0.198-0.208-0.441-0.375-0.497-0.656-0.262-0.131-0.57-0.337-0.701-0.609l0.14-0.036z" fill="#f60"/><path d="m121.7 16.662c0.4 0.055 0.823-0.122 1.169 0.074-0.075 0.131-0.271 0.187-0.43 0.225l-0.627 0.291c-0.234-0.058-0.103-0.432-0.112-0.59z" fill="#f60"/><path d="m123.34 8.846c0.401-0.131 0.833-0.401 1.263-0.27-0.309 0.309-0.552 0.711-0.785 1.084l-1.282-0.027c0.138-0.336 0.493-0.617 0.804-0.787z" fill="#f60"/><path d="m127.09 8.538c0.532-0.093 0.504 0.599 0.991 0.628 0.085 0.112 0.207 0.214 0.159 0.382-0.281 0.112-0.692 0.057-1.012 0.131-0.421-0.234-0.148-0.964-0.814-0.917-0.036-0.055-0.112-0.168-0.018-0.206 0.207-0.073 0.476-0.046 0.694-0.018z" fill="#f60"/><path d="m126.75 11.047c0.233-0.329 0.59-0.355 0.926-0.422l2.424 0.047c0.103 0.093-0.093 0.177-0.093 0.29-0.15 0.14-0.366 0.178-0.497 0.31-0.317 0.01-0.291 0.382-0.515 0.542-0.347 0.346-0.851 0.188-1.254 0.131-0.141-0.103-0.299-0.244-0.365-0.403l-0.112 0.112c0.141 0.525 0.103 1.106 0.205 1.638l0.58 0.385c0.01 0.861 1.021 0.627 1.461 1.105-0.103 0.308-0.309 0.57-0.532 0.833-0.356-0.347-0.759-0.573-1.189-0.721-0.037-0.506-0.589-0.804-0.899-1.058-0.084-0.917-0.103-1.853-0.251-2.742l0.111-0.047z" fill="#f60"/><path d="m127.63 16.82h1.124l-0.141 0.59-1.124-0.478c-0.026-0.093 0.075-0.121 0.141-0.112z" fill="#f60"/><path d="m129.65 6.218 0.833-0.263c0.478 0.224 0.927 0.506 1.366 0.823 0.347 0.638 0.289 1.497 0.131 2.208-0.253 0.282-0.805 0-1.01 0.449h-0.038c-0.31-0.879-1.188-1.664-2.003-2.068 0.131-0.448 0.272-0.887 0.721-1.149z" fill="#f60"/><path d="m149.17 41.873h4.993c0.739-0.112 1.525-0.094 2.114-0.638 2.5 0.385 5.035-0.233 7-1.608 1.037-0.838 1.969-1.806 2.722-2.863 0.664-0.932 1.189-1.803 1.528-2.846 0.252-0.645 0.452-1.314 0.603-2.003 0.713-3.243 0.339-6.87-0.715-9.958-0.196-0.573-0.415-1.125-0.656-1.655-1.318-2.724-3.11-5.662-5.874-7.386-1.557-0.971-2.988-2.473-3.867-4.025-0.478-0.432-0.937-1.002-1.554-1.105 0.169 0.281 0.355 0.552 0.403 0.879l-0.038 0.047c-0.654 0.019-1.17-0.327-1.619-0.75l0.497-0.448c-0.188-0.093-0.403-0.132-0.609-0.177-1.891-0.215-3.444 0.654-5.118 1.076l-0.028 0.093c1.028 0.458 1.243 1.59 1.843 2.359 0.15-0.179 0.403-0.048 0.608-0.067 0.299 0.019 0.58 0.234 0.869 0.159 0.01-0.252-0.129-0.448-0.177-0.672 0.177-0.086 0.394-0.01 0.59 0 0.542 0.317 1.413-0.058 1.75 0.672-0.618 0.039-1.198 0.168-1.778 0.309 0.037 0.234 0.271 0.422 0.253 0.656-0.497-0.208-1.02-0.336-1.573-0.403l-0.026 0.083c0.702 0.824 1.664 1.311 2.647 1.602 1.413 0.327 2.657-0.346 4.022-0.112 3.353 1.535 6.215 5.046 7.461 8.378 0.061 0.16 0.119 0.322 0.175 0.485 1.043 3.043 1.24 6.786 0.196 9.958-0.556 1.322-1.168 2.566-2.149 3.641-0.371 0.455-0.782 0.862-1.228 1.208-1.405 1.094-3.137 1.575-4.921 1.084-0.111-0.073-0.338-0.093-0.301-0.289 0.063-0.26 0.121-0.526 0.172-0.795 0.297-1.523 0.432-3.123 0.354-4.721-4e-3 -0.069-5e-3 -0.138-8e-3 -0.206-0.098-2.322-0.561-4.411-1.415-6.419-0.546-1.153-1.197-2.41-2.016-3.539-0.977-1.346-2.191-2.509-3.749-3.089-0.955-0.253-2.135-0.299-2.854 0.497-0.516 0.449-0.73 1.057-0.656 1.721-0.805 0.512-1.71 0.788-2.695 0.871-0.241 0.021-0.489 0.108-0.738 0.107-0.239 0.011-0.472 0-0.697-0.029-1.188-0.146-2.386-0.783-3.297-1.516-0.019-0.484-0.048-0.945-0.066-1.458-0.523-0.272-0.953-0.788-0.991-1.395l0.048-0.047c0.299 0.093 0.561 0.243 0.831 0.403-0.122-0.73-0.261-1.451-0.626-2.087-0.337-0.141-0.676-0.252-0.993-0.422-0.365-0.243-0.599-0.683-0.653-1.086 0.326 0.32 0.897 0.207 1.15 0.544-0.439-1.301-0.449-2.789-1.17-3.978-0.365-0.88-1.32-1.282-1.975-1.929-0.253-0.308-0.355-0.738-0.814-0.786-0.374-0.093-0.403-0.515-0.468-0.785 0.234 0.027 0.43 0.187 0.628 0.224-0.544-1.442-1.021-3.041-2.49-3.958l-0.253 0.158c-0.57 0.086-1.179 0.122-1.75 0.141 0.253-0.375 0.702-0.533 1.058-0.703-0.413-0.308-0.751-0.383-1.267-0.468-0.299 0.301-0.839 0.449-1.223 0.533l-0.046-0.036c-0.01-0.336-0.088-0.75 0.418-0.833-0.486-0.234-1.291-0.141-1.788 0-0.141 0.365-0.54 0.692-0.514 1.122-0.288 0.301-0.494 0.702-0.795 0.918-8e-3 -0.721 0.297-1.386 0.429-1.993-0.421 0.158-0.849 0.382-1.26 0.58-0.665-0.384-1.365-0.768-2.075-1.057-0.066-0.029-0.207-0.057-0.179 0.064 0.608 0.44 0.373 1.263 0.438 1.891l-0.384-0.317c-0.187-0.478-0.728-0.824-0.82-1.349-0.637 0.122-1.044 0.291-1.634 0.544l-0.082 0.046c0.439 0 0.813 0.346 1.029 0.692-0.664 0.038-1.254-0.225-1.908-0.289-0.066-0.066-0.121-0.141-0.226-0.131-0.328 0.122-0.607 0.356-0.898 0.581-0.645 0.635-1.301 1.339-1.609 2.18 0.216 0.038 0.487 0.029 0.646 0.16-0.354 0.215-0.664 0.58-1.011 0.786-0.121 0.487-0.103 1.039-0.131 1.573-0.271 0.411-0.636 0.776-0.814 1.234-0.58 1.881-0.73 3.968-0.645 6.102-0.188 0.177-0.432 0.292-0.608 0.431l0.019 1.909h0.046c0.086-0.403 0.563-0.627 0.852-0.898h0.094c-0.046 0.43-0.103 0.86-0.112 1.301l-0.543 0.449c-0.541 0.477-0.083 1.196-0.131 1.795 0.039 0.16 0.065 0.394 0.18 0.432 0.064-0.234 0.27-0.403 0.4-0.608 0.234-0.058 0.439-0.244 0.654-0.272-0.119 0.467-0.279 0.926-0.468 1.375-0.089 0.059-0.195 0.14-0.285 0.234-0.095 0.103-0.171 0.221-0.189 0.348 0.42 2.218 1.082 4.407 1.841 6.494-0.516 0.869-0.807 1.895-1.236 2.794-0.061 0.126-0.116 0.253-0.168 0.384-0.43 1.089-0.561 2.304-1.096 3.351-0.215-0.151-0.448-0.263-0.691-0.366-1.013-0.336-2.182-0.121-2.92 0.655-0.656-0.122-1.33-0.01-1.846 0.336-0.368 0.278-0.654 0.612-0.817 1.003-0.11 0.271-0.163 0.566-0.145 0.889-0.422 0.29-0.647 0.739-0.786 1.188-0.197 1.012 0.158 2.063 0.738 2.84h41.656z" fill="#fff"/><path d="m167.42 21.958c-0.196-0.573-0.415-1.125-0.656-1.655-1.318-2.724-3.11-5.662-5.874-7.386-1.557-0.971-2.988-2.473-3.867-4.025-0.478-0.432-0.937-1.002-1.554-1.105 0.169 0.281 0.355 0.552 0.403 0.879l-0.038 0.047c-0.654 0.019-1.17-0.327-1.619-0.75l0.497-0.448c-0.188-0.093-0.403-0.132-0.609-0.177-1.891-0.215-3.444 0.654-5.118 1.076l-0.028 0.093c1.028 0.458 1.243 1.59 1.843 2.359 0.15-0.179 0.403-0.048 0.608-0.067 0.299 0.019 0.58 0.234 0.869 0.159 0.01-0.252-0.129-0.448-0.177-0.672 0.177-0.086 0.394-0.01 0.59 0 0.542 0.317 1.413-0.058 1.75 0.672-0.618 0.039-1.198 0.168-1.778 0.309 0.037 0.234 0.271 0.422 0.253 0.656-0.497-0.208-1.02-0.336-1.573-0.403l-0.026 0.083c0.702 0.824 1.664 1.311 2.647 1.602 1.413 0.327 2.657-0.346 4.022-0.112 3.353 1.535 6.215 5.046 7.461 8.378 0.061 0.16 0.119 0.322 0.175 0.485 1.043 3.043 1.24 6.786 0.196 9.958-0.556 1.322-1.168 2.566-2.149 3.641-0.371 0.455-0.782 0.862-1.228 1.208-1.405 1.094-3.137 1.575-4.921 1.084-0.111-0.073-0.338-0.093-0.301-0.289 0.063-0.26 0.121-0.526 0.172-0.795 0.297-1.523 0.432-3.123 0.354-4.721-4e-3 -0.069-5e-3 -0.138-8e-3 -0.206-0.098-2.322-0.561-4.411-1.415-6.419-0.546-1.153-1.197-2.41-2.016-3.539-0.977-1.346-2.191-2.509-3.749-3.089-0.955-0.253-2.135-0.299-2.854 0.497-0.516 0.449-0.73 1.057-0.656 1.721-0.805 0.512-1.71 0.788-2.695 0.871-0.241 0.021-0.489 0.108-0.738 0.107-0.239 0.011-0.472 0-0.697-0.029-1.188-0.146-2.386-0.783-3.297-1.516-0.019-0.484-0.048-0.945-0.066-1.458-0.523-0.272-0.953-0.788-0.991-1.395l0.048-0.047c0.299 0.093 0.561 0.243 0.831 0.403-0.122-0.73-0.261-1.451-0.626-2.087-0.337-0.141-0.676-0.252-0.993-0.422-0.365-0.243-0.599-0.683-0.653-1.086 0.326 0.32 0.897 0.207 1.15 0.544-0.439-1.301-0.449-2.789-1.17-3.978-0.365-0.88-1.32-1.282-1.975-1.929-0.253-0.308-0.355-0.738-0.814-0.786-0.374-0.093-0.403-0.515-0.468-0.785 0.234 0.027 0.43 0.187 0.628 0.224-0.544-1.442-1.021-3.041-2.49-3.958l-0.253 0.158c-0.57 0.086-1.179 0.122-1.75 0.141 0.253-0.375 0.702-0.533 1.058-0.703-0.413-0.308-0.751-0.383-1.267-0.468-0.299 0.301-0.839 0.449-1.223 0.533l-0.046-0.036c-0.01-0.336-0.088-0.75 0.418-0.833-0.486-0.234-1.291-0.141-1.788 0-0.141 0.365-0.54 0.692-0.514 1.122-0.288 0.301-0.494 0.702-0.795 0.918-8e-3 -0.721 0.297-1.386 0.429-1.993-0.421 0.158-0.849 0.382-1.26 0.58-0.665-0.384-1.365-0.768-2.075-1.057-0.066-0.029-0.207-0.057-0.179 0.064 0.608 0.44 0.373 1.263 0.438 1.891l-0.384-0.317c-0.187-0.478-0.728-0.824-0.82-1.349-0.637 0.122-1.044 0.291-1.634 0.544l-0.082 0.046c0.439 0 0.813 0.346 1.029 0.692-0.664 0.038-1.254-0.225-1.908-0.289-0.066-0.066-0.121-0.141-0.226-0.131-0.328 0.122-0.607 0.356-0.898 0.581-0.645 0.635-1.301 1.339-1.609 2.18 0.216 0.038 0.487 0.029 0.646 0.16-0.354 0.215-0.664 0.58-1.011 0.786-0.121 0.487-0.103 1.039-0.131 1.573-0.271 0.411-0.636 0.776-0.814 1.234-0.58 1.881-0.73 3.968-0.645 6.102-0.188 0.177-0.432 0.292-0.608 0.431l0.019 1.909h0.046c0.086-0.403 0.563-0.627 0.852-0.898h0.094c-0.046 0.43-0.103 0.86-0.112 1.301l-0.543 0.449c-0.541 0.477-0.083 1.196-0.131 1.795 0.039 0.16 0.065 0.394 0.18 0.432 0.064-0.234 0.27-0.403 0.4-0.608 0.234-0.058 0.439-0.244 0.654-0.272-0.119 0.467-0.279 0.926-0.468 1.375-0.089 0.059-0.195 0.14-0.285 0.234-0.095 0.103-0.171 0.221-0.189 0.348 0.42 2.218 1.082 4.407 1.841 6.494-0.516 0.869-0.807 1.895-1.236 2.794-0.061 0.126-0.116 0.253-0.168 0.384-0.43 1.089-0.561 2.304-1.096 3.351-0.215-0.151-0.448-0.263-0.691-0.366-1.013-0.336-2.182-0.121-2.92 0.655-0.656-0.122-1.33-0.01-1.846 0.336-0.368 0.278-0.654 0.612-0.817 1.003-0.11 0.271-0.163 0.566-0.145 0.889-0.422 0.29-0.647 0.739-0.786 1.188-0.197 1.012 0.158 2.063 0.738 2.84h16.537c-0.243-0.289-0.468-0.692-0.638-1.038-0.354-0.535-0.111-1.292-0.149-1.91 0.337-0.68 0.679-1.364 1.064-2.029 0.078-0.134 0.156-0.265 0.236-0.395l0.759-0.29c0.402 0 0.74-0.29 1.123-0.188 0.515 0.516 0.515-0.514 1.012-0.561 1.16-0.15 2.311-0.038 2.965 0.945 0 0.131 0.208 0.131 0.16 0.253-0.15 0.045-0.291-0.048-0.449-0.048-0.711-0.177-1.545-0.628-2.246-0.225-0.027 0.168-0.063 0.339-0.097 0.507-0.035 0.179-0.067 0.354-0.082 0.522 0.458 0.131 0.842 0.459 1.188 0.814 0.234-0.458 0.73-0.664 1.17-0.814 0.384 0.084 0.805 0.094 1.124 0.337 0.59 0.544 0.299 1.47 0.244 2.162 0.532 0.299 1.122 0.469 1.664 0.758-0.253 0.227-0.588 0.319-0.897 0.432l-0.898-0.179c-0.103-0.074-0.282-0.074-0.319-0.205-0.299 0.317-0.664 0.739-0.851 1.15h12.82c-0.169-0.384-0.365-0.683-0.599-1.038-0.263-0.562-0.158-1.33-0.187-1.929l1.198-1.825c0.654-9e-3 1.395-0.253 2.105-0.131 0.036-0.016 0.07-0.034 0.103-0.055 0.295-0.204 0.385-0.678 0.824-0.619 0.785-0.214 1.385 0.142 1.975 0.497-0.02 0.047-0.039 0.088-0.06 0.122-0.247 0.395-0.709-0.046-1.046 0.073-0.141 0.15 0.066 0.327 0.093 0.497 0.122 0.167-0.122 0.148-0.205 0.177-0.196 0.028-0.411-0.019-0.562-0.177-0.037-0.048-9e-3 -0.103-0.083-0.112-0.17 0.279-0.413 0.533-0.478 0.851 0.214 0.207 0.504 0.412 0.608 0.675 0.215 0.309-0.169 0.542-0.243 0.814-0.028 0.055-0.114 0.055-0.141 0-0.198-0.112-0.365-0.394-0.581-0.32-0.188 0.834 0.065 1.667-0.047 2.5 0.365 0.086 0.795-0.019 1.188 0l0.16-1.76c0.167-1.141 0.843-2.096 1.638-2.968 0.859-0.587 1.413 0.573 2.048 0.975 0.104 0.019 0.067 0.131 0.112 0.196-9e-3 0.188-0.205 0.262-0.336 0.319-0.394 0.139-0.684-0.291-0.927-0.544-0.233 0.253-0.337 0.589-0.608 0.787l0.093 0.027c0.311 0.31 0.608 0.637 0.676 1.049-0.038 0.373-0.225 0.738-0.563 0.927-0.251-0.432-0.458-0.909-0.625-1.349 9e-3 0.02-0.011 0.028-0.029 0.048-0.516 0.139-0.653 0.719-0.739 1.188 0.028 0.459-0.318 0.646-0.226 1.104h6.674c0.739-0.112 1.525-0.094 2.114-0.638 2.5 0.385 5.035-0.233 7-1.608 1.037-0.838 1.969-1.806 2.722-2.863 0.664-0.932 1.189-1.803 1.528-2.846 0.252-0.645 0.452-1.314 0.603-2.003 0.712-3.24 0.338-6.867-0.716-9.954z" fill="#f60"/><path d="m124.47 39.328c0.365-0.234 0.955-0.291 1.038-0.833-0.148-0.113-0.28-0.254-0.449-0.291l-0.384 0.112c0.028-0.225 0.15-0.477 0.227-0.72l1.234-0.402c-0.17 0.561-0.234 1.263-0.291 1.909 0.112 0.955 0.253 1.975 0.74 2.77h-1.33c-0.149-0.879-1.068-1.517-0.785-2.545z" fill="#f60"/><path d="m127.34 38.204h0.074l0.897 0.815 0.131-0.028c-0.073 0.955-0.121 1.891-0.131 2.882h-0.972c-0.198-0.926-0.525-1.9-0.487-2.9 0.168-0.253 0.28-0.572 0.488-0.769z" fill="#f60"/><path d="m129.35 39.104c0.179-0.233 0.253-0.628 0.608-0.673 0.253 7e-3 0.487 0.045 0.676 0.224 0.327 0.411 7e-3 0.937-0.112 1.348-0.132 0.627-0.358 1.281-0.563 1.871h-0.945l0.336-2.77z" fill="#f60"/><path d="m143.54 38.813c0.206 0.263 0.271 0.618 0.58 0.852 0.272-0.374 0.337-0.955 0.206-1.432l-0.271-0.272c0.347-0.083 0.711-0.112 1.058-0.177-0.15 0.496-0.433 0.945-0.384 1.525 9e-3 0.843 0.149 1.686 0.224 2.564h-1.029c-0.374-0.824-0.749-1.609-0.721-2.564 0.112-0.169 0.187-0.366 0.337-0.496z" fill="#f60"/><path d="m147.97 20.832c-0.01 0.243-0.187 0.513-0.029 0.721 0.227-0.253 0.6-0.244 0.9-0.356 0.833-0.076 1.628 0.187 2.404 0.375-0.196-0.31-0.327-0.656-0.543-0.936-0.431-0.113-1.086 0.187-1.16-0.451-0.262-0.224-0.673-0.064-0.945-0.046-0.263 0.187-0.477 0.421-0.627 0.693z" fill="#fff"/><path d="m119.37 12.75c-4e-3 -2e-3 -8e-3 -6e-3 -0.014-0.01 0 4e-3 2e-3 6e-3 2e-3 0.01h0.012z" fill="#fff"/><path d="m122.77 21.07 0.562-0.542c0.048 0 0.085 9e-3 0.112 0.045l-0.046 1.039c0.271 0.253 0.606 0.336 0.962 0.356 0.029-0.28 0.244-0.478 0.366-0.721 0.103-0.196 0.038-0.486 0.243-0.625l0.066 0.064c0.064 0.31 0.046 0.656 0.206 0.926 0.019 0.15 0.045 0.336 0.063 0.468 0.413 0.019 0.788-0.093 1.105-0.244-0.019-0.355 0.104-0.645 0.158-0.971 0.086-0.113-0.103-0.32 0.131-0.31 0.132 0.281 0.365 0.57 0.497 0.871 0.542-0.552 0.769-1.272 0.897-2.022-0.158-0.214-0.401-0.214-0.59-0.355-1.59-0.514-3.629-0.617-5.164 0.178-0.103 0.634 0.028 1.336 0.432 1.843z" fill="#fff"/><path d="m107.9 38.632c-0.057 0.721 0 1.397 0.046 2.109 0.15 0.234 0.423 0.506 0.694 0.523l0.046-0.478c0.112-0.664-0.243-1.369 0.132-1.931 0.262 0.083 0.524 0.215 0.749 0.336 0.112-0.617-0.048-1.339-0.638-1.714l-1.029 1.155z" fill="#fff"/><path d="m110.21 37.62c-0.365 1.096-0.636 2.445-0.196 3.599 0.253-0.17 0.514-0.329 0.738-0.562-0.046-0.881-0.168-1.819 0.356-2.551 0.458 0.141 0.768 0.581 0.944 1.01 0.311-0.392 0.413-0.936 0.292-1.458 0.019-0.413-0.449-0.318-0.674-0.487 0.074-0.347 0.064-0.747 0.43-0.945l-1.122 0.112c-0.29 0.413-0.608 0.813-0.768 1.282z" fill="#fff"/><path d="m112.52 40.854c0.047 0.083 0 0.234 0.095 0.253 0.139-0.787 0.775-1.296 1.123-1.99 0.167-0.231 0.159-0.561 0.43-0.738 0.364 0 0.627 0.262 0.983 0.29 0.112 0.085-0.058 0.16-0.067 0.253-0.074 0.638-0.317 1.164-0.271 1.82h0.065c0.496-0.525 0.833-1.09 1.198-1.689l0.064-0.532c0.086-0.637-0.606-1.048-1.058-1.311l0.403-0.516-0.562-0.196c-0.655 0.065-1.245 0.337-1.703 0.853-0.57 1.046-0.663 2.23-0.7 3.503z" fill="#fff"/><path d="m115.04 35.3c0.214 0.064 0.411-0.112 0.625-0.02 0.862 0.319 1.76 0.646 2.406 1.366l0.768 1.957 0.384-1.209-0.253-0.653c-0.216-0.468-0.805-0.43-1.208-0.449-0.168-0.188 9e-3 -0.403 0.066-0.58 0.196-0.665-0.618-0.628-0.945-0.899 0.019-0.401-0.468-0.263-0.74-0.299l-0.093-0.112c-0.056-0.086-0.196-0.086-0.272-0.02-0.017-0.028-0.055-0.047-0.036-0.093l-0.205 0.046c-0.292 0.253-0.488 0.58-0.497 0.965z" fill="#fff"/><path d="m115.58 33.147c0.029 0.12 0.103 0.242 0.196 0.318 0.422-0.112 0.826-0.404 1.311-0.225 0.628 0.552 1.282 1.132 2.041 1.431l0.272-0.046c0.167 0.055 0.354 0.064 0.466 0.253 0.104 0.253-0.158 0.401-0.241 0.607 0.42 0.31 0.253 0.861 0.514 1.235l0.673-0.897c-0.157-0.394 0.01-1.067-0.606-1.105-0.208-0.103-0.347-0.308-0.339-0.542-0.401-0.365-0.897-0.524-1.299-0.899-0.33-0.261-0.525-0.663-0.945-0.757-0.291-0.16-0.609-0.244-0.945-0.317-0.629-0.096-0.685 0.653-1.098 0.944z" fill="#fff"/><path d="m116.48 31.303 0.112 0.18c0.468-0.029 0.888-0.234 1.347-0.226 0.308 0.187 0.711 0.177 1.029 0.337 0.253 0.347 0.525 0.738 0.897 0.972 0.759 0.112 1.179 0.929 1.441 1.526v-0.289c0.112-0.403-0.01-0.872-0.157-1.237-0.188-0.187-0.461-0.308-0.656-0.475-0.038-0.122-0.01-0.18 0.028-0.291-0.291-0.309-0.721-0.478-1.077-0.722-0.496-0.721-1.449-0.522-2.208-0.721l-0.756 0.946z" fill="#fff"/><path d="m116.46 24.438c0.083 0.291 0.184 0.655 0.241 0.965 0.261-0.58 0.778-0.843 1.236-1.319-0.263-0.178-0.59-0.263-0.879-0.318v-0.019c-0.207 0.204-0.525 0.411-0.598 0.691z" fill="#fff"/><path d="m118.16 27.518 0.42-0.43c0.422-0.432 0.77-0.929 0.833-1.48-0.299-0.177-0.692-0.055-0.981 0.048-0.103 0.606-0.263 1.205-0.272 1.862z" fill="#fff"/><path d="m118.47 28.838c0.646 0.036 1.274 0.167 1.798-0.198l0.525-1.684c-0.17-0.01-0.339-0.086-0.497-0.028-0.346 0.766-1.038 1.525-1.826 1.91z" fill="#fff"/><path d="m118.66 22.867c0.421 0.617 1.124 1.308 1.843 1.506-0.083-0.787-0.757-1.33-1.104-2.002l-0.019-0.225c-0.271-0.262-0.599-0.441-0.88-0.58-0.045 0.449 0.077 0.878 0.16 1.301z" fill="#fff"/><path d="m120.94 28.912c0.496 0.084 1.03 0 1.488-0.141 0.664-0.16 1.03-0.889 1.254-1.459h-0.833l-0.897 0.879c-0.355 0.186-0.692 0.467-1.012 0.721z" fill="#fff"/><path d="m120.84 22.015c0.141 0.731 0.451 1.395 0.872 2.022l0.111-1.395-0.983-0.627z" fill="#fff"/><path d="m123.91 25.655c0.057-0.468-0.139-1.012-0.194-1.487-0.281-0.188-0.673-0.17-0.964-0.355 0.019 0.737 0.597 1.365 1.158 1.842z" fill="#fff"/><path d="m123.06 30.409c0.589-0.187 1.16-0.393 1.704-0.692 0.346-0.497 0.869-0.945 0.945-1.525-0.433 0.121-0.805-0.02-1.208 0.178-0.243 0.439-0.394 0.937-0.861 1.254-0.075 0.316-0.421 0.532-0.58 0.785z" fill="#fff"/><path d="m123.97 31.56 0.702 0.917c0.375 0.121 0.843 0.085 1.17-0.13l-0.251-0.832c-0.497 0.185-1.087 0.131-1.621 0.045z" fill="#fff"/><path d="m125.14 24.935 0.271 1.234c0.655-0.532 0.79-1.309 0.771-2.132-0.374 0.43-0.591 0.692-1.042 0.898z" fill="#fff"/><path d="m126.99 27.114c9e-3 0.179 0.055 0.347 0.157 0.487 0.73 0.263 0.805 1.15 1.48 1.487 0.438 0.198 0.945-0.046 1.327-0.225-0.289-0.327-0.616-0.552-0.897-0.897-0.196-0.084-0.395-0.206-0.384-0.449l-1.683-0.403z" fill="#fff"/><path d="m127.57 31.533c0.317 0.363 0.747 0.552 1.196 0.653-0.074-0.102 0.048 0 0.066-0.064l-0.562-1.236c-0.281 0.01-0.572 0.067-0.833 0.048 0.021 0.206 0.066 0.411 0.133 0.599z" fill="#fff"/><path d="m128.56 25.768c-0.263-0.608-0.371-1.349-0.448-2.021-0.279 0.337-0.57 0.553-0.833 0.897-0.122 0.692 0.869 0.861 1.281 1.124z" fill="#fff"/><path d="m129.7 25.13c0.339 0.442 1.077 0.292 1.489 0.16-0.197-0.337-0.831-0.535-0.943-0.897-0.064-0.646-0.196-1.275-0.403-1.862-0.327 0.794-0.723 1.74-0.143 2.599z" fill="#fff"/><path d="m130.29 27.114c0.936 0.683 1.854 1.479 3.162 1.188 0.094-0.064 0.254-0.057 0.272-0.177-0.384-0.243-0.795-0.432-1.188-0.656l-0.448-0.654h-0.206c-0.506 0.167-1.048 0.235-1.592 0.299z" fill="#fff"/><path d="m130.31 34.704h0.067c0.561-0.449 1.225-0.6 1.889-0.786 0.179 0.066 0.066 0.263 0.226 0.337 0.402-0.167 0.889-0.131 1.3-0.271 0.496 0.018 0.899 0.027 1.301 0.242 0.32 0.422 0.917 0.374 1.33 0.656l-0.067-0.656c-0.869-1.02-2.226-1.094-3.48-1.075l-0.028-0.131c-0.299 0-0.636 0.064-0.917 0.196-0.401 0.019-0.786 0.215-1.17 0.336-0.179 0.356-0.32 0.789-0.451 1.152z" fill="#fff"/><path d="m131.06 23.203c0.364 0.478 0.907 0.844 1.525 0.722-0.317-0.311-0.684-0.638-0.702-1.077 0.094-0.833-0.823-0.9-1.272-1.33 0.15 0.562 0.13 1.189 0.449 1.685z" fill="#fff"/><path d="m130.97 36.36h0.112c0.495-0.308 1.216-0.073 1.703-0.401 0.271-0.141 0.29 0.234 0.477 0.337 0.459 0.279 0.516 1.122 1.161 0.926 0.775 0.402 0.58 1.347 0.608 2.039l0.721-0.448c-0.066-0.365 0.141-0.805-0.094-1.123-0.178-0.402-0.665-0.439-0.899-0.766 0.282-0.478-0.355-0.704-0.487-1.05l0.039-0.046 0.992 0.131c0.337 0.205 0.459 0.58 0.562 0.927 0.775 0.131 0.962 1.01 1.234 1.571 0.16-0.383 0.225-0.796 0.384-1.17 0.01-0.309-0.402-0.309-0.608-0.449-0.055-0.478-0.271-0.926-0.692-1.215-0.861-0.218-1.618-0.693-2.563-0.693l-0.786 0.242c-0.432 0.104-0.89-0.027-1.218 0.271-0.488 0.038-0.524 0.572-0.646 0.917z" fill="#fff"/><path d="m131.46 32.505 0.179 0.085c0.384-0.178 0.767-0.384 1.17-0.534 0.625-0.177 1.112 0.534 1.638 0.084 0.195-0.139 0.365 0.066 0.513 0.179 0.228 0.411 0.75 0.383 1.144 0.494-0.197-0.532-0.441-1.262-1.124-1.347-0.271-0.121-0.59-0.111-0.851-0.271-0.721-0.795-1.188 0.656-1.977 0.301-0.279 0.307-0.626 0.599-0.692 1.009z" fill="#fff"/><path d="m131.64 37.063c0.299 0.253 0.608 0.684 1.077 0.627 0.579 0.271 0.336 1.039 0.653 1.442l0.337-0.3-0.028-0.02 0.047-0.046 0.02 0.026c0.093-0.279-0.038-0.775-0.198-1.104-0.214-0.149-0.466 0.01-0.673-0.131-0.028-0.301-0.215-0.449-0.43-0.635-0.15-0.114-0.347 0.036-0.516 0.026l-0.289 0.115z" fill="#fff"/><path d="m132.81 25.655c0.308 0.514 0.907 0.833 1.385 1.188 0.394 0.178 0.907 0.225 1.329 0.13-0.403-0.327-0.769-0.702-1.104-1.094-0.132-0.188-0.16-0.423-0.337-0.59-0.44 0.085-0.937 0.075-1.273 0.366z" fill="#fff"/><path d="m133.33 22.306c0.43 0.533 1.095 0.318 1.703 0.337v-0.066l-0.936-0.786c-0.262 0.083-0.542 0.317-0.767 0.515z" fill="#fff"/><path d="m116.1 13.48 0.542 1.685c-0.01-0.955 0.432-1.752 0.338-2.724l0.401-0.6-0.852 0.263c-0.224 0.43-0.411 0.861-0.429 1.376z" fill="#fff"/><path d="m116.46 10.56 0.739-0.43v-1.096c-0.311 0.187-0.478 0.507-0.721 0.757l-0.018 0.769z" fill="#fff"/><path d="m131.64 12.263c-0.178 0.233-0.449 0.291-0.674 0.336 0.394-0.719 0.581-1.721 0.272-2.536 0.205-0.074 0.43-0.112 0.626-0.224l-0.019-0.02 0.515-0.449c0.683-0.468 0.42-1.356 0.673-2.021-0.336-0.523-0.439-1.16-0.926-1.6l0.028-0.019c-0.384-0.487-1.076-0.43-1.6-0.673-0.694-0.234-1.227 0.243-1.724 0.561-0.215 0.038-0.083 0.318-0.317 0.308-0.131 0.346-0.291 0.721-0.385 1.105-0.926-0.131-1.927-0.028-2.666 0.496-0.395-0.291-0.87-0.346-1.329-0.477-0.337-0.067-0.72 0.055-0.963-0.132-0.355-0.401-0.432-1.132-1.041-1.234-0.215-0.076-0.26-0.31-0.26-0.516-0.403-0.067-0.76-0.253-1.151-0.337-0.599-0.272-1.076 0.16-1.525 0.449-0.198 0.083-0.422 0.112-0.609 0.224-0.336 0.525-0.653 1.058-0.871 1.638 0.067 0.477 0.272 0.897 0.516 1.301 0.215 0.608 0.889 1.086 1.459 1.33-0.271 0.926-0.271 2.029 0 2.965 0 0-0.015 0.013-0.015 0.01 0 3e-3 -0.03 0.028-0.03 0.028-0.088 0-0.186 0.017-0.259-0.028h-0.012c0.134 0.894 0.554 1.678 1.234 2.349 0.244 0.084 0.187 0.375 0.289 0.561 0.066 0.085 0.076 0.262 0.048 0.337-1.461-0.046-2.762 0.319-3.932 0.983-0.299 0.15-0.168 0.561-0.196 0.852 0.824-0.544 1.712-0.945 2.695-1.124 0.421-0.026 0.897-0.131 1.301-0.019l0.046 0.807c-1.112 0.581-2.33 0.917-3.283 1.872 0.018 0.289-0.038 0.625 0.046 0.869l0.853-0.692c0.823-0.628 1.684-1.161 2.628-1.507 0.254 0.299 0.516 0.619 0.853 0.805 0.57-0.366 1.189-0.637 1.844-0.805 0.346-0.206 0.899-0.019 1.123-0.43l0.158-0.852c-0.026-0.019-0.046-0.057-0.093-0.048-0.439-0.253-0.73-0.692-0.692-1.206-0.15 0.074-0.317 0.122-0.496 0.129-0.148-0.036-0.29-0.074-0.355-0.225-9e-3 -0.186-0.104-0.467 0.085-0.606 0.607-0.375 1.394-0.394 2.161-0.338 0.57 0.076 1.394 0.047 1.592 0.721-0.028 0.197-0.01 0.413-0.207 0.543-0.206 0.112-0.439-0.01-0.627-0.095-0.149 0.46-0.402 0.974-0.916 1.124l0.064 0.542c0.064 0.244 0.084 0.646 0.468 0.561 0.889 0.217 1.676 0.675 2.452 1.17 0.263-0.261 0.468-0.561 0.654-0.833 1.387 0.47 2.583 1.508 3.727 2.473l0.045-0.787c-1.086-0.965-2.292-1.647-3.547-2.18 0.048-0.253 0.104-0.497 0.114-0.769 1.487 0.085 2.9 0.544 4.125 1.263l-0.019-0.673c-1.291-0.693-2.704-1.151-4.247-1.169-0.058-0.084-0.076-0.206-0.066-0.29 0.749-0.121 1.281-0.897 1.46-1.573 0.385-0.439 0.937-0.917 0.806-1.571 0.016-0.055 0.035-0.112 0.055-0.169 0.049-0.161 0.091-0.333 0.037-0.485z" fill="#fff"/><path d="m132.94 14.669 0.767-0.244 0.086-0.429c0.215-0.628-0.244-1.096-0.469-1.592l-0.384 2.265z" fill="#fff"/><path d="m134.88 17.634c0.365 0.403 0.721 1.048 1.367 0.852-0.048-0.272-0.198-0.497-0.29-0.74-0.168-0.196-0.226-0.758-0.562-0.561-0.253-0.168-0.317-0.449-0.478-0.674-0.073 0.347-0.027 0.777-0.037 1.123z" fill="#fff"/><path d="m135.01 20.376c0.141 0.196 0.18 0.45 0.318 0.628 0.253 0.167 0.628 0.139 0.938 0.112 0.279-0.066 0.458 0.242 0.719 0.065-0.327-0.206-0.523-0.58-0.831-0.853-0.366-0.288-0.759-0.035-1.144 0.048z" fill="#fff"/><path d="m135.51 24.729c0.646 0.383 1.466 0.758 2.328 0.627 0.093-0.046 0.253-0.037 0.271-0.149-0.534-0.188-1.094-0.721-1.654-0.833-0.309-0.477-0.712 0.122-1.105 0.084 9e-3 0.111 0.121 0.195 0.16 0.271z" fill="#fff"/><path d="m137.45 32.992 0.141 0.299c0.142 0.974 0.757 1.871 0.421 2.938 0.281 0.198 0.365 0.525 0.544 0.787h0.046c0.215-0.813 0.066-1.656-0.046-2.471 0.084-0.739-0.666-1.169-1.106-1.553z" fill="#fff"/><path d="m137.61 23.409c0.486 0.375 1.263 0.411 1.824 0.225-0.355-0.196-0.748-0.413-1.039-0.674l-0.785 0.449z" fill="#fff"/><path d="m139.92 26.281c-0.046 0.394 0.215 0.721 0.496 0.919 0.103-0.233 0.27-0.432 0.289-0.693-0.084-0.402-0.309-0.768-0.674-1.04-0.064 0.262-0.14 0.515-0.111 0.814z" fill="#fff"/><path d="m139.95 30.55c-0.067 0.439 0.42 0.496 0.625 0.739 0.169 0.206-0.112 0.347-0.112 0.543 0.356 0.458 0.563 0.98 0.563 1.59 0.139-0.57 0.354-1.113 0.43-1.702-0.038-0.413-0.692-0.327-0.59-0.786 0.188-0.468-0.037-0.926-0.159-1.349-0.036-0.064-0.122-0.196-0.195-0.157-0.17 0.382-0.59 0.654-0.562 1.122z" fill="#fff"/><path d="m141.23 28.322 0.486 0.945c0.215-0.028 0.355-0.234 0.523-0.384 0.131-0.393-0.216-0.646-0.317-0.965-0.085-0.225 0-0.523-0.16-0.719-0.122-0.076-0.261-0.198-0.401-0.16l-0.131 1.283z" fill="#fff"/><path d="m141.86 25.832c0.385 0.234 0.824 0.57 1.031 0.983 0.327 0.955 0.851 1.814 1.234 2.741 0.141 0.646 0.253 1.223 0.43 1.858 0.067 0.169 0.029 0.496 0.292 0.468 0.073-0.711 0.214-1.395 0.224-2.134-0.234-0.309-0.542-0.439-0.833-0.626v-0.066c0.038-0.158 0.17-0.347 0.365-0.317 0.083-0.094 0.337-0.187 0.225-0.356-0.487-0.486-0.459-1.323-1.234-1.474-0.272-0.112-0.337-0.394-0.365-0.654-0.366-0.311-0.908-0.413-1.369-0.423z" fill="#fff"/><path d="m142.31 30.905c0.476 0.439 0.309 1.076 0.271 1.666-0.074 0.356 0.374 0.148 0.515 0.337 0.291 0.43 0.122 1.058 0.02 1.525 0.253-0.385 0.542-0.721 0.738-1.143-8e-3 -0.158 0.197-0.234 0.188-0.431 0.083-0.271-0.234-0.149-0.366-0.177-0.112-0.028-0.233-0.103-0.195-0.253 0.241-0.468 0.018-1.029-0.076-1.497-0.112-0.384 0.048-0.899-0.132-1.236-0.3 0.414-1.19 0.507-0.963 1.209z" fill="#fff"/><path d="m143.18 24.261c0.834 0.843 1.442 1.689 2.34 2.504 0.019-0.366-0.028-0.702-0.046-1.058-0.131-0.253-0.375-0.439-0.582-0.628-0.664-0.064-1.01-0.959-1.712-0.818z" fill="#fff"/><path d="m145.36 28.72c0.02 0.086 0.058 0.16 0.096 0.243 0.364 0.6 0.711 1.218 0.964 1.863-0.076-0.693 0.392-1.553-0.227-2.087-0.083-0.226-0.362-0.15-0.542-0.132l-0.291 0.113z" fill="#fff"/><path d="m147.6 35.556c0.262 0.122 0.599-0.093 0.852-0.243 0.234-0.056 0.43 0.076 0.609 0.197 0.074 0.149 0 0.29 0.028 0.431 0.561 0.158 1.112 0.365 1.608 0.692l0.158-0.159c0.038-0.402-0.279-0.693-0.58-0.918-0.195-0.112-0.487-0.046-0.626-0.224 0.094-0.15 0.094-0.375 0.084-0.543-0.309 0-0.506-0.095-0.757-0.243-0.16-0.047-0.301-0.179-0.432 0-0.467 0.317-0.495 0.786-0.944 1.01z" fill="#fff"/><path d="m148.26 23.78c0.233-0.067 0.477-0.132 0.673-0.301 0.628-0.571 1.535-0.187 2.266-0.196-0.141-0.253-0.339-0.506-0.516-0.721-0.263-0.103-0.506-0.224-0.805-0.224-0.637-0.375-1.066 0.253-1.554 0.561-0.132 0.253-0.196 0.627-0.064 0.881z" fill="#fff"/><path d="m148.28 25.707c0-0.029 0-0.058 0.028-0.065 0.086 0.074-9e-3 0.254 0.132 0.29 0.243-0.122 0.468-0.29 0.692-0.449 0.627 0 1.002-0.609 1.618-0.609 1.031 0.188 2.051 0.395 2.948 0.898-0.064-0.606-0.59-1.16-1.122-1.431-0.301-0.103-0.535 0.056-0.749 0.225-0.626 0.394-0.299-0.571-0.738-0.59-0.572 0.177-1.162 0.375-1.798 0.317-0.374 0.142-0.637 0.487-1.058 0.449-0.017 0.311-0.063 0.686 0.047 0.965z" fill="#fff"/><path d="m148.71 27.793c0.196 0.208 0.523 0.17 0.805 0.208l0.814-0.32c9e-3 -0.147-0.243-0.187-0.187-0.355 0.225-0.253 0.532-0.074 0.814-0.177 0.392-0.057 0.795-0.448 1.188-0.16-0.012 0.048 0.017 0.112-0.02 0.16-0.121 0.29 0.084 0.468 0.309 0.58 0.459 0.084 0.888 0.506 1.347 0.317-0.046-0.384-0.148-0.737-0.242-1.104-0.384-0.065-0.656-0.383-1.011-0.515-0.158 0.15-0.366 0.262-0.562 0.243-0.721-0.169-1.583-0.618-2.312-0.159-0.262 0.319-0.73 0.225-1.086 0.365 0.021 0.318 0.058 0.628 0.143 0.917z" fill="#fff"/><path d="m149.02 33.357c-0.056 0.159-0.215 0.42 0.076 0.496 0.598 0.018 1.366-0.291 1.834 0.177 0.159 0.122 0.083 0.375 0.073 0.534l0.786 0.655c0.075-0.395 0.217-0.75 0.227-1.171-0.066-0.3-0.216-0.589-0.478-0.785-0.516 0-0.814-0.603-1.368-0.529-0.289-0.064-0.542 0.193-0.833 0.193-0.129 0.13-0.205 0.29-0.317 0.43z" fill="#fff"/><path d="m149.24 28.944c0.121 0.253 0.263 0.665 0.496 0.692 0.552-0.241 1.358-0.392 1.975-0.129 0.205 0.036 0.205 0.27 0.16 0.42 0.317 0.187 0.701 0.337 1.038 0.542l-0.094-0.562c-0.019-0.608-0.785-0.663-0.833-1.263-0.627-0.205-1.329-0.272-1.993-0.112-0.215 0.196-0.525 0.17-0.785 0.225-0.019 0.075 0.026 0.123 0.036 0.187z" fill="#fff"/><path d="m149.4 31.977c0.365-0.104 0.6-0.505 0.993-0.543 0.598 0.01 1.132 0.254 1.507 0.77 0.224 0.147 0.177 0.531 0.468 0.531-0.086-0.458 0.064-0.878 0.045-1.348-0.391-0.654-1.365-0.148-1.73-0.917l-0.692 0.047c-0.497 0.123-0.365 0.703-0.43 1.097-0.057 0.12-0.169 0.214-0.161 0.363z" fill="#fff"/><path d="m152.84 36.071c0.289 0.58 0.927 1.02 0.991 1.684 0.149-0.177 0.253-0.383 0.355-0.58-0.01-0.187-0.225-0.187-0.308-0.337-0.086-0.243 0.045-0.458 0.083-0.674-0.122-0.346-0.413-0.673-0.739-0.88l-0.382 0.787z" fill="#fff"/><path d="m153.99 34.592 0.673 0.918c0.289-0.458 0.289-1.133 0.177-1.685-0.064-0.104-0.187-0.272-0.354-0.196-0.253 0.261-0.291 0.664-0.496 0.963z" fill="#fff"/><path d="m151.24 8.976c0.243 0.122 0.477 0.234 0.769 0.253 0.195-0.103 0.449-0.179 0.692-0.112 0.346 0.225 0.767-0.047 1.17-0.028-0.356-0.337-0.76-0.544-1.17-0.74-0.525 0.111-0.945 0.486-1.461 0.627z" fill="#fff"/><path d="m154.9 9.854c0.496 0.047 0.853 0.487 1.188 0.852 0.421 0.064 0.739 0.365 0.991 0.673l-0.157-0.495c-0.112-0.497-0.423-0.881-0.74-1.274-0.449 0.029-0.89 0.068-1.282 0.244z" fill="#fff"/><path d="m119.98 5.75 0.272 0.029c0.728 0.365 1.907 0.552 1.975 1.609-0.741 0.291-1.452 0.683-2.042 1.282-0.448-0.458-1.356-0.206-1.507-1.01 0.142-0.76 0.412-1.715 1.302-1.91z" fill="#f60"/><path d="m120.68 10.496c0.852-0.076 1.675 0.045 2.555-0.029 0.214 0.093 0.438 0.279 0.542 0.495-0.029 1.011-0.337 1.976-0.383 3.014-0.384 0.158-0.759 0.478-0.853 0.898-0.346 0.103-0.656 0.308-0.993 0.467-0.147-0.317-0.121-0.795 0.142-1.058 0.365-0.514 1.311-0.394 1.236-1.208 0.243-0.392 0.01-0.898 0.017-1.309-0.093-0.31-0.187 0.103-0.336 0.093-0.299 0.064-0.607 0.083-0.87-0.067-0.197-0.206-0.438-0.375-0.496-0.654-0.263-0.131-0.57-0.336-0.702-0.608l0.141-0.034z" fill="#f60"/><path d="m121.71 16.595c0.4 0.058 0.823-0.122 1.169 0.076-0.073 0.132-0.271 0.187-0.43 0.225l-0.628 0.289c-0.233-0.055-0.102-0.43-0.111-0.59z" fill="#f60"/><path d="m123.35 8.782c0.401-0.131 0.833-0.401 1.263-0.272-0.308 0.31-0.551 0.711-0.785 1.086l-1.282-0.028c0.141-0.338 0.496-0.617 0.804-0.786z" fill="#f60"/><path d="m127.1 8.474c0.533-0.093 0.504 0.599 0.991 0.625 0.086 0.112 0.208 0.215 0.16 0.384-0.282 0.112-0.693 0.058-1.011 0.131-0.422-0.234-0.149-0.964-0.814-0.917-0.037-0.057-0.111-0.169-0.019-0.206 0.206-0.074 0.479-0.046 0.693-0.017z" fill="#f60"/><path d="m126.77 10.98c0.234-0.328 0.59-0.355 0.927-0.42l2.424 0.045c0.103 0.095-0.094 0.179-0.094 0.291-0.149 0.141-0.365 0.179-0.496 0.309-0.318 9e-3 -0.29 0.384-0.514 0.544-0.347 0.346-0.853 0.186-1.255 0.131-0.14-0.104-0.299-0.244-0.366-0.403l-0.112 0.112c0.141 0.525 0.104 1.105 0.208 1.638l0.58 0.384c9e-3 0.86 1.02 0.626 1.459 1.104-0.103 0.31-0.309 0.571-0.533 0.833-0.355-0.346-0.759-0.57-1.188-0.721-0.038-0.503-0.59-0.804-0.897-1.056-0.086-0.918-0.104-1.854-0.253-2.743l0.11-0.048z" fill="#f60"/><path d="m127.65 16.755h1.124l-0.141 0.589-1.125-0.477c-0.026-0.093 0.076-0.121 0.142-0.112z" fill="#f60"/><path d="m129.67 6.153 0.833-0.262c0.478 0.224 0.926 0.504 1.366 0.823 0.346 0.636 0.291 1.497 0.131 2.208-0.253 0.28-0.805 0-1.01 0.449h-0.039c-0.308-0.879-1.188-1.667-2.002-2.067 0.131-0.45 0.272-0.89 0.721-1.151z" fill="#f60"/></g></g></svg>
