<?xml version="1.0" encoding="UTF-8"?>
<svg viewBox="0 0 30 30" xmlns="http://www.w3.org/2000/svg" xmlns:xlink="http://www.w3.org/1999/xlink">
<rect width="100%" height="100%" fill="none"/>
<title>fondy_logo</title>
<defs>
<path id="d" d="M0 30.754h30.11V.218H0v30.536z"/>
</defs>
<g class="currentLayer" style="">
<title>Layer 1</title>
<g class="">
<mask id="c" transform="translate(0 .14)" fill="#fff">
<use xlink:href="#d"/>
</mask>
<path d="m14.926 0.358-0.443 0.267-5.056 3.064-0.394 0.255v5.406l-4.107 2.483-0.41 0.256v5.406l-4.106 2.484-0.41 0.255v7.068l0.367 0.255 5.057 3.064 0.423 0.263 0.433-0.259 4.211-2.48 4.16 2.478 0.439 0.262 0.439-0.263 4.118-2.468 3.895 2.458 0.447 0.282 0.452-0.272 5.172-3.065 0.496-0.255v-7.068l-0.409-0.255-4.107-2.483v-5.406l-0.41-0.256-4.106-2.483v-5.408l-0.524-0.254-5.135-3.064-0.492-0.267zm0.128 1.02 5.12 3.065v5.406l4.515 2.738v5.407l4.517 2.739v6.07l-5.152 3.065-4.368-2.738-4.585 2.738-4.604-2.738-4.58 2.738-5.014-3.065v-6.07l4.516-2.739v-5.407l4.517-2.737v-5.407l5.118-3.065z" fill="#3D3D3D" mask="url(#c)"/>
</g>
<path class="" d="m18.969 9.89-3.915 2.413-3.913-2.413v-4.824l3.913-2.413 3.915 2.413z" fill="#59C341"/>
<path class="" d="m18.969 26.18-3.915 2.413-3.913-2.413v-4.824l3.913-2.413 3.915 2.413zm9.033 0-3.915 2.413-3.914-2.413v-4.824l3.914-2.413 3.915 2.413zm-18.066 0-4.066 2.413-4.063-2.413v-4.824l4.064-2.413 4.065 2.413zm4.517-8.144-3.915 2.412-3.914-2.412v-4.826l3.914-2.413 3.915 2.413zm9.032 0-3.914 2.412-3.914-2.412v-4.826l3.914-2.413 3.914 2.413z" fill="#3D3D3D"/>
</g>
</svg>
