<svg xmlns="http://www.w3.org/2000/svg" xmlns:xlink="http://www.w3.org/1999/xlink" width="30" height="30"><rect id="backgroundrect" width="100%" height="100%" x="0" y="0" fill="none" stroke="none"/><title>fondy_logo</title><defs><path id="a" d="M0 30.754h30.11V.218H0v30.536z"/></defs><g class="currentLayer" style=""><title>Layer 1</title><g id="svg_5" class=""><mask id="b" fill="#fff" transform="translate(0,0.14000000059604645) "><use xlink:href="#a" id="svg_6"/></mask><path d="M14.926,0.3580000005960465 l-0.44300000000000006,0.267 l-5.056,3.064 l-0.3940000000000001,0.255 V9.350000000596047 l-4.107,2.483 l-0.41000000000000003,0.256 v5.406 L0.41000000000000003,19.979000000596045 l-0.41000000000000003,0.255 v7.068 l0.36700000000000005,0.255 l5.057,3.064 l0.42300000000000004,0.263 l0.43300000000000005,-0.259 l4.211,-2.48 l4.16,2.478 l0.43900000000000006,0.262 l0.43900000000000006,-0.263 l4.118,-2.468 l3.895,2.458 l0.44700000000000006,0.28200000000000003 l0.452,-0.272 l5.172,-3.065 l0.49600000000000005,-0.255 v-7.068 l-0.40900000000000003,-0.255 l-4.107,-2.483 V12.090000000596046 l-0.41000000000000003,-0.256 l-4.106,-2.483 V3.9430000005960464 l-0.524,-0.254 L15.418,0.6250000005960465 l-0.49200000000000005,-0.267 zm0.128,1.02 l5.12,3.065 v5.406 l4.515,2.738 v5.407 l4.517,2.739 v6.07 l-5.152,3.065 l-4.368,-2.738 l-4.585,2.738 l-4.604,-2.738 l-4.58,2.738 l-5.014,-3.065 v-6.07 l4.516,-2.739 v-5.407 L9.936,9.850000000596047 V4.443000000596046 l5.118,-3.065 z" fill="#3D3D3D" mask="url(#b)" id="svg_7"/></g><path fill="#59C341" d="M18.969 9.89l-3.915 2.413-3.913-2.413V5.066l3.913-2.413 3.915 2.413z" id="svg_8" class=""/><path fill="#3D3D3D" d="M18.969 26.18l-3.915 2.413-3.913-2.413v-4.824l3.913-2.413 3.915 2.413zm9.033 0l-3.915 2.413-3.914-2.413v-4.824l3.914-2.413 3.915 2.413zm-18.066 0L5.87 28.593 1.807 26.18v-4.824l4.064-2.413 4.065 2.413zm4.517-8.144l-3.915 2.412-3.914-2.412V13.21l3.914-2.413 3.915 2.413zm9.032 0l-3.914 2.412-3.914-2.412V13.21l3.914-2.413 3.914 2.413z" id="svg_9" class=""/></g></svg>