<svg xmlns="http://www.w3.org/2000/svg" xmlns:xlink="http://www.w3.org/1999/xlink" viewBox="0 0 160 137.969">
  <defs>
    <style>
      .cls-1 {
        fill-rule: evenodd;
        fill: url(#radial-gradient);
      }
    </style>
    <radialGradient id="radial-gradient" cx="80" cy="69.016" r="68.984" gradientUnits="userSpaceOnUse">
      <stop offset="0" stop-color="#c08bed"/>
      <stop offset="1" stop-color="#e3ccf7"/>
    </radialGradient>
  </defs>
  <path class="cls-1" d="M100.369,75.264c-18.729,0-8.194-2.739-8.194-6.118s-10.08-6.118,8.649-6.118S160,66.9,160,68.92C160,70.788,119.1,75.264,100.369,75.264ZM86.036,58.619c-2.939-1.689-10.362,5.632-1-10.515S117.994-.978,119.751.032c1.625,0.934-14.932,38.435-24.3,54.582S88.975,60.309,86.036,58.619ZM86,72.727a7.275,7.275,0,1,1-2.666-9.9A7.3,7.3,0,0,1,86,72.727ZM73.576,58.72c-2.942,1.7-.068,12.16-9.416-4S38.294,1.02,39.921.083C41.679-.93,65.237,32.028,74.586,48.188S76.518,57.025,73.576,58.72ZM67.831,69.411c0,3.384,10.076,6.115-8.657,6.136S-0.008,71.736-.006,69.714c0-1.871,40.916-6.4,59.649-6.42S67.835,66.027,67.831,69.411Zm5.806,10.257c2.939,1.689,10.573-6,1.238,10.1s-33.613,49.007-35.238,48.073c-1.757-1.01,15.033-37.7,24.368-53.8S70.7,77.978,73.637,79.668Zm12.337-.28c2.939-1.689.054-12.142,9.419,4.005s25.921,53.648,24.3,54.582c-1.756,1.01-25.348-31.925-34.712-48.072S83.034,81.077,85.973,79.388Z" transform="translate(0 -0.031)"/>
</svg>
