<?xml version="1.0" encoding="UTF-8"?>
<svg width="191.16" height="184.17" enable-background="new 0 0 200 200" version="1.1" viewBox="0 0 191.162 184.17101" xml:space="preserve" xmlns="http://www.w3.org/2000/svg" xmlns:cc="http://creativecommons.org/ns#" xmlns:dc="http://purl.org/dc/elements/1.1/" xmlns:rdf="http://www.w3.org/1999/02/22-rdf-syntax-ns#"><metadata><rdf:RDF><cc:Work rdf:about=""><dc:format>image/svg+xml</dc:format><dc:type rdf:resource="http://purl.org/dc/dcmitype/StillImage"/><dc:title/></cc:Work></rdf:RDF></metadata>
<path d="m132.86 62.923h-99.531s3.433 9.152 6.866 13.73h88.088s17.164 12.584 25.168 35.467h-92.665c-16.016-12.588-28.602-29.749-34.32-49.197 1.144-2.288 1.144-4.575 2.289-6.865h104.1c8.012-5.72 16.021-13.728 16.021-13.728h-113.26c1.144-2.288 3.433-4.577 4.577-6.865h113.26c4.578-4.577 10.297-14.874 10.297-14.874h-109.83c2.289-2.287 5.721-4.575 8.009-6.864h105.25c2.29-6.861 4.577-13.727 4.577-13.727h-114.4c-21.737 14.874-38.898 37.755-45.762 64.068 6.864 26.314 24.025 48.052 45.762 64.066h114.4c0-1.145-2.287-35.467-38.9-65.211z" fill="#30417e"/>
<g transform="translate(-6.486,-5.439)">
	<path d="m6.486 151.47h16.378c4.472 0 7.616 0.312 9.432 0.937 1.816 0.624 3.348 1.726 4.597 3.304s1.873 3.365 1.873 5.359c0 1.839-0.535 3.499-1.605 4.981-1.071 1.483-2.46 2.58-4.167 3.291 2.423 0.66 4.32 1.787 5.69 3.383s2.055 3.538 2.055 5.827c0 2.775-0.873 5.121-2.619 7.037-1.746 1.917-3.81 3.101-6.19 3.551-1.656 0.313-5.5 0.469-11.531 0.469h-13.913zm8.231 6.347v8.819h5.442c3.265 0 5.283-0.043 6.055-0.13 1.406-0.174 2.505-0.629 3.299-1.366 0.793-0.737 1.19-1.738 1.19-3.005 0-1.127-0.323-2.042-0.969-2.744-0.646-0.703-1.429-1.141-2.347-1.314s-3.555-0.26-7.908-0.26zm0 15.167v10.172h7.668c3.362 0 5.521-0.134 6.475-0.401 0.955-0.269 1.755-0.796 2.403-1.583s0.972-1.786 0.972-2.998c0-1.245-0.347-2.27-1.04-3.074-0.693-0.805-1.614-1.358-2.761-1.661s-3.493-0.454-7.038-0.454h-6.679z" fill="#30417e"/>
	<path d="m56.929 189.61v-31.688h-12.143v-6.451h32.484v6.451h-12.109v31.688z" fill="#30417e"/>
	<path d="m82.78 189.61v-38.139h30.579v6.451h-22.347v8.716h11.701c4.422 0 7.891 1.054 10.408 3.161 2.518 2.106 3.775 4.896 3.775 8.363 0 3.019-1.07 5.681-3.215 7.987-2.143 2.307-5.799 3.46-10.969 3.46h-19.932zm8.232-16.519v10.067h8.691c2.262 0 3.899-0.117 4.905-0.351 1.008-0.234 1.891-0.776 2.648-1.626s1.137-1.839 1.137-2.966c0-3.417-2.783-5.125-8.351-5.125h-9.03z" fill="#30417e"/>
	<path d="m164.35 182.82v6.79h-27.483c0.294-2.564 1.195-5.004 2.704-7.317 1.508-2.313 4.438-5.351 8.793-9.111 3.446-2.998 5.566-5.025 6.36-6.083 1.179-1.542 1.769-3.093 1.769-4.652 0-1.664-0.487-2.92-1.462-3.77-0.976-0.849-2.257-1.273-3.844-1.273-3.47 0-5.341 1.985-5.612 5.957l-7.79-0.729c0.477-3.885 1.888-6.737 4.235-8.559 2.347-1.821 5.471-2.731 9.371-2.731 4.285 0 7.517 1.065 9.694 3.197s3.265 4.575 3.265 7.33c0 1.56-0.277 3.072-0.833 4.536s-1.412 2.938-2.568 4.419-3.084 3.375-5.782 5.68c-2.518 2.166-4.11 3.596-4.779 4.289s-1.207 1.369-1.615 2.027z" fill="#f00"/>
	<path d="m184.99 189.61v-7.675h-16.735v-6.399l17.722-24.194h6.599v24.168h5.068v6.426h-5.068v7.675h-7.586zm0-14.1v-13.02l-9.389 13.02z" fill="#f00"/>
</g>
</svg>
