<svg xmlns="http://www.w3.org/2000/svg" width="2500" height="525" viewBox="0 0 999 209.82"><path fill="#FFCF01" d="M0 .002v209.77l999 .048V.002H0z"/><path fill="#231F20" d="M622.373 94.386c-3.315 0-6.832.751-9.103 1.622v42.016c1.752.56 5.079.983 8.411.983 11.9 0 18.904-8.28 18.904-22.873 0-13.855-6.665-21.748-18.212-21.748m-2.611 63.316c-14.01 0-27.488-2.617-35.381-5.64V41.473h28.889v37.176c3.684-1.323 9.991-2.33 14.885-2.33 24.52 0 41.325 13.675 41.325 37.747 0 29.533-17.676 43.637-49.718 43.637M727.245 119.775c-15.554.638-27.298 2.068-27.298 11.422 0 6.39 6.48 9.902 16.794 9.902 4.041 0 8.596-.579 10.504-1.204v-20.12zM717.61 157.7c-29.741 0-44.46-9.139-44.46-25.95 0-20.859 25.58-25.7 54.094-26.963v-3.07c0-6.266-5.228-9.217-15.053-9.217-9.109 0-19.959 2.522-26.76 4.823l-7.03-16.048c8.4-2.754 20.085-6.236 37.337-6.236 25.724 0 38.684 8.686 38.684 29.557v47.47c-7.184 3.017-21.73 5.634-36.812 5.634M818.482 155.948v-51.042c0-6.581-3.702-10.903-14.021-10.903-5.39 0-10.152 2.009-10.152 2.009v59.936h-28.883V81.275c10.533-3.38 22.957-6.235 39.393-6.235 29.598 0 42.552 9.991 42.552 27.124v53.784h-28.889zM916.368 155.948l-28.895-39.244h-.358v39.244H858.59V41.471h28.525v69.588h.358l26.087-33.73h32.567l-29.408 36.615 31.87 42.004h-32.221zM530.03 187.376h-30.29l14.17-31.428-35.542-78.619h31.428l19.178 55.846 18.981-55.846h31.452L530.03 187.376zM379.73 50.366h-33.634l-22.206 65.23-22.236-65.23H268.02L252.8 155.95h27.483l8.75-72.563 25.754 72.563h18.194l25.754-72.563 8.763 72.563h27.482L379.73 50.366zM452.735 119.775c-15.59.638-27.322 2.068-27.322 11.422 0 6.39 6.486 9.902 16.818 9.902 4.012 0 8.554-.579 10.504-1.204v-20.12zm-9.628 37.926c-29.783 0-44.472-9.139-44.472-25.95 0-20.859 25.562-25.7 54.1-26.963v-3.07c0-6.266-5.252-9.217-15.059-9.217-9.115 0-19.97 2.522-26.79 4.823l-7.017-16.048c8.411-2.754 22.594-6.236 37.312-6.236 25.748 0 38.69 8.686 38.69 29.557v47.47c-7.16 3.017-21.718 5.634-36.764 5.634M138.346 183.988c-44.669 0-80.884-36.221-80.884-80.896 0-44.663 36.215-80.962 80.884-80.962 44.699 0 80.897 36.299 80.897 80.962 0 44.675-36.198 80.896-80.897 80.896m0-168.833c-48.58 0-87.96 39.351-87.96 87.937 0 48.591 39.38 87.96 87.96 87.96 48.586 0 87.955-39.369 87.955-87.96 0-48.586-39.37-87.937-87.955-87.937"/><path fill="#231F20" d="M103.26 99.067c-6.296-1.615-11.834 5.753-14.91 11.315 1.073-7.613 10.426-20.078 14.91-11.315M89.421 99.154c2.11-7.225 7.112-9.878 9.789-7.744-3.637 1.127-6.272 3.28-9.789 7.744M105.489 110.76c3.243-2.73 2.909-6.772-2.116-8.102-3.714-.942-11.733 5.777-12.603 13.175 3.22-4.113 12.49-11.69 14.719-5.073M155.98 130.024c.578-9.52-8.674-13.967-10.45-23.72-1.735-9.765 14.438-25.366 4.226-41.343 19.292 15.56 4.18 24.788 13.92 37.718-3.78-1.144-7.511-4.489-8.644-6.247-5.419 7.135 13.294 16.948.948 33.592M124.927 53.253c2.277.018 6.212 1.628 4.608 3.458-5.347 4.978-12.578 2.927-18.313 7.988 2.355-6.265 12.829-7.16 13.705-11.446"/><path fill="#231F20" d="M118.337 74.279c-.697 0-1.335-.972-1.52-2.248.918 2.325 3.225 1.216 1.914-2.146.823.018 2.128.131 4.554-.012-2.54 1.318-3.66 4.43-4.948 4.406m23.941-13.974c2.236-2.528.185-5.973-9.007-7.1 9.58 4.644-5.825 5.675-6.355 13.73-5.026 1.96-9.05-1.306-11.553.947-2.409 2.182-5.193.674-4.382-1.836-2.903 1.484-2.319 5.437.507 6.665.554.244 1.049.763.626 1.168-3.094 2.927-4.549 5.49-1.312 8.364 1.777-3.249 2.67-4.423 4.644-6.01 1.842 1.217 5.097.353 9.479-4.399.208-.274.506-.173.393.126-3.475 11.976-12.364 13.907-15.207 13.341 1.699 2.593 13.013 4.167 14.444-.876 3.213-11.398 14.176-16.358 4.698-16.138 2.57-3.01 11.177-5.818 13.025-7.982M147.061 54.173c4.585 2.975 6.749 4.924 9.741 8.49.567-4.865-2.188-14.487-6.283-16.699-1.759-.954-4.298 5.777-3.458 8.21"/><path fill="#231F20" d="M73.83 93.234c2.958-7.81 10.159-17.103 21.843-24.007 2.695-6.974 1.807-11.684 30.105-22.67.716-4.162.59-9.2 1.771-9.2 1.216 0 5.39 1.896 8.376 6.165 1.24-.096 2.33-.22 3.088-.376.512-2.426 2.205-9.109 4.423-12.566 2.027-3.178 5.962-3.518 11.047.685 5.264 4.286 8.977 6.063 16.197 15.291 6.104 2.737 15.648 6.248 23.91 16.394-3.594-2.402-7.654-3.285-10.998-3.642 6.742 5.895 11.184 15.654 7.816 29.908-1.336-13.324-11.13-18.921-17.116-23.13 3.243 11.225-10.832 7.326-15.13-1.121 1.42.453 2.892.393 3.78-.16-.489-17.188-8.549-27.066-12.144-30.01-4.632-3.846-7.094 5.377-8.661 12.268-.49 2.307-2.468 3.958-4.972 3.887.56-.835 1.18-3.064 1.275-3.792-7.106.602-15.13 4.793-20.054 7.01-12.513 5.658-15.648 8.484-18.414 17.969-9.914 4.214-21.354 15.63-26.141 21.097"/><path fill="#231F20" d="M136.256 90.824c1.395 1.597 9.64 14.057.084 29.902 2.61-11.654-4.656-33.986-12.674-22.552 5.442 2.343 7.219 6.784 5.758 11.112-2.223-4.179-7.88-8.68-13.49-6.826-2.796 1.002-6.51 1.026-9.282-3.13-3.613-5.24 2.45-11.809-7.875-11.284 12.489-6.325 8.87 5.961 14.891 7.47 7.005 1.633 7.828-2.653 10.242-5.431 1.938-2.367 5.514-4.138 9.276-1.622 1.794-5.455-.823-14.122 4.292-18.683 1.89-1.693 7.9-1.455 11.011.984-4.423-.054-9.628 5.228-12.233 20.06"/><path fill="#231F20" d="M107.742 141.158c-.602-.49-2.254-2.641-2.099-4.948 2.099 1.353 4.948 2.033 4.948 2.033s-1.347 2.289-2.85 2.915m12.555-13.73c1.246.185 2.313 1.187 3.44.358 1.103-.822-.048-4.143-.918-5.258 1.091-.184 5.437.25 5.216 1.8-.512 4.144-3.088 5.443-9.3 8.424 1.062-.978.889-3.16 1.562-5.323m-24.865-3.345c.53-1.281 2.915-2.927 3.977-3.034-.424 3.583.888 8.471.888 8.471s-4.823-3.052-4.865-5.437m-15.857-15.887c-2.271-1.586-5.836-5.3-6.212-6.647.447-.507 2.349-2.545 4.775-3.243 1.753-.459 2.904.513 2.647 1.043-.25.638-1.812.638-2.271 1.974-.71 2.032 1.55 2.676 2.02 3.594.269.59.889 2.105-.959 3.28m120.563-39.161c6.367 22.188 4.585 43.554-1.979 56.34.823-8-6.206-19.702-3.38-33.371-13.306 12.912 7.488 44.603-22.683 65.414 4.5-7.272 6.552-25.3 4.942-31.875 1.61.662 3.243 2.623 4.274 4.328 2.492-8.304 2.814-20.025-1.937-31.924 1.657.239 5.037 1.723 6.593 3.166.751-18.325-12.668-19.697-15.19-24.674 0 5.359 6.26 9.86 7.41 16.87-4.399-2.086-7.594-2.295-9.86-2.086 3.398 2.492 10.94 17.121 8.71 28.817-3.249-2.73-6.26-3.988-9.514-4.28 3.994 6.093 5.621 21.938.637 29.235-.137-1.657-.733-6.415-2.61-8.388-2.361 8.895-9.294 12.62-14.064 13.76 5.92-6.183 4.77-17.164-3.892-20.079-7.78-2.659-17.694 2.63-21.718 21.163-5.615 1.663-22.504-1.937-12.405-12.859 6.152 2.087 21.8-8.364 20.751-15.726-1.52-10.224-10.82-13.812-18.218-13.753-9.133.167-15.303 8.686-22.766 12.364-6.23-.936-8.358-1.818-11.524-10.152-.411-5.055 4.996-8.626 4.912-13.878-4.435.918-5.532-5.747-14.17 1.186-.674-1.264.465-4.25.465-4.25-3.195 2.903-3.797 6.313-3.863 7.028 1.568 3.094 3.75 5.872 8 8.632 5.097 13.634 10.325 15.148 15.726 15.655.919 1.293 4.913 6.08 9.998 6.85-.87-2.57-.996-9.771-.483-11.572 11.052-11.082 19.267-4.345 20.334-1.389-9.824 1.98-2.88 22.982-19.166 13.64-.655 2.152.245 7.511 2.313 10.647 1.664 14.343 19.75 10.874 25.36 13.36-.626-13.956 7.112-24.15 13.76-23.31 6.67.835 8.387 11.697-2.97 21.974 2.784 1.52 14.97-.548 21.181-5.049.566 3.57-4.018 14.01-9.723 21.45 47.787-10.988 69.129-62.786 46.75-103.264"/></svg>