<?xml version="1.0" encoding="UTF-8"?>
<!DOCTYPE svg  PUBLIC '-//W3C//DTD SVG 1.1//EN'  'http://www.w3.org/Graphics/SVG/1.1/DTD/svg11.dtd'>
<svg class="icon" height="512" version="1.1" viewBox="0 0 1024 1024" xmlns="http://www.w3.org/2000/svg">
<path d="m431.4 396.9c-71.628-141.35-252.87-119.79-292.66 0.53007 0 0-5.5105 38.993-9.9077 79.682v246.37l116.4 109.3 0.053212-300.87c0-0.001024 12.556-143.8 186.12-135.01zm-170.81 229.42s191.15 26.383 197.67-169.02c-2.9666-183.52 232.53-195.71 296.58-63.788 0 0-166.94 2.2789-184.53 140.57 0 0 2.1715 170.7-129.59 188.29 0-0.001023-142.78 24.743-180.13-96.051zm330.49-2.2267c71.575 141.3 249.53 118.09 289.32-2.2236 0 0 12.08-27.55 13.192-77.934v-246.42l-116.4-109.3v300.87c0 1e-6 -12.662 143.8-186.12 135.01z"/>
</svg>
