<svg xmlns="http://www.w3.org/2000/svg" width="2500" height="615" viewBox="35.433 35.452 885.827 217.875"><g fill="#C8152D"><path d="M35.433 144.39c0-60.156 48.772-108.938 108.945-108.938 49.73 0 91.696 33.342 104.725 78.902h-46.492l-27.145-67.692-30.452 75.717-31.07-75.038L56.381 189.22l23.498 33.07h129.99l22.49-33.724-2.882-7.188h17.39c-15.153 41.967-55.318 71.949-102.489 71.949-60.173 0-108.945-48.781-108.945-108.937m169.128-25.195h45.822a107.81 107.81 0 0 1 1.148 5.526h-44.769l-2.2-5.526m4.141 10.374h43.611c.244 1.818.452 3.655.61 5.509h-42.01l-2.21-5.51m4.16 10.357h40.356c.052 1.488.087 2.977.087 4.465v1.053h-38.25l-2.193-5.518m4.142 10.365h36.145c-.096 1.854-.244 3.69-.436 5.509h-33.498l-2.21-5.51m4.168 10.375h30.931c-.278 1.854-.609 3.69-.966 5.51h-27.755l-2.21-5.51m4.143 10.358h24.708a92.544 92.544 0 0 1-1.549 5.509H227.53l-2.21-5.51m-121.115-57.875L73.082 189.22H196.78l-31.053-76.414-30.79 75.438-30.733-75.098zM538.974 155.622c-.574 3.342 2.438 9.425-2.61 10.948-.792.67-1.497 1.767-2.785 1.61-1.2-.253-2.236-.94-3.177-1.828-1.036-.296-2.236-.21-3.168-.801.374-3.124.122-6.753.183-9.756 1.062-.68 2.812-.427 3.96-.174.845-.427 2.49.06 3.412-.827 1.653-.313 2.784.532 4.185.828m-139.528-1.854c.54.46 1.166.635 1.784.844l-.365 14.36c-3.83 2.063-7.973-.418-11.793-.166l-9.313.593c-1.506-4.135-1.41-9.47-.792-13.978l1.767-1.82 18.712.167m288.386-.393c-.217 2.385 3.56 2.672 2.776 5.083-.739 1.715-2.75 1.357-4.352 1.393-1.079-2.402-2.41 1.314-3.61-.81a4.09 4.09 0 0 1-3.378-2.61c-.183-1.263.183-2.455 1.175-3.056.845-.2 1.697-.365 2.411-.792 1.767-.043 3.552-.078 4.978.792m27.277-5.691c-.209 2.489 1.792 4.265 3.16 5.918.66 1.054 1.4 2.707.808 4.222-1.19 1.349-1.487 3.803-3.603 4.063-.574 1.933-2.776 1.428-4.187 1.21-.66-3.464-.409-7.554-.174-11.148 1.584-1.471-.966-6.806 3.003-5.274l.993 1.009m-159.634-3.046c1.576 5.953-.46 11.932.21 18.25-.802.888-.984 2.333-.575 3.464-1.088 3.639 1.662 8.799-2.619 10.349-1.114.139-2.28-.044-2.776-1.001l.2-12.176c.496-.636.67-1.393.592-2.245-.218-5.057-.47-10.688.21-15.631.442-.662 1.156-1.602 1.975-1.82 1.165-.251 1.913.392 2.783.81m181.705-5.657c-.053 1.228-1 1.523-2.01 1.81-2.978 2.673-6.92 3.003-9.73 6.093-.993.122-1.532 1.437-2.795 1.01-1.6-1.933-3.142-4.143-4.177-6.458-.366-.644-.13-1.531-.2-2.236.661-1.95 2.646-.505 3.812-1.228 2.733.33 4.64-1.436 7.546-.81 1.775-1 3.69.088 5.387.6.826.113 1.575.505 2.167 1.219m-48.938-2.82c-.078.244.453.584 0 .784.496 1.453-1.575 1.749-1.984 3.063-.043.46.08.966-.409 1.209-1.836-.296-5.404.896-5.195-1.81.374-1.28-.044-3.03 1.41-3.673 1.704-1.392 4.89-1.853 6.178.428m-150.26-7.904c-.165 3.882.244 7.555.375 11.323.452 1.088 2.445 1.767 1.41 3.246-.793 1.428-2.664.714-3.778.636l-6.188-.21c-1.019-1.74 1.637-2.958 1.793-4.7-.66-2.958-1-6.064-1.984-8.902-.244-.931.41-1.488.618-2.245 2.428 0 6.092-1.89 7.754.852m-22.315-.852c1.444 1.279.496 3.56 1.192 5.083-.365 1.8-.645 3.498-2.193 4.456-2.098 1.453-4.474 2.254-7.162 2.463-.793-.392-1.245-1.28-1.584-2.028-.827-3.298 3.115-4.525 2.001-7.945.75-.366.157-1.271.983-1.602 1.323.174 2.907-.218 3.986-1.22 1.176-.251 1.907.375 2.777.793m41.384 0c.626 2.872-1.706 4.482-2.576 6.719-1.08.975-2.307 2.115-3.76 1.61-1.593-2.367-5.31-1.653-4.996-5.301.07-1.427-.183-3.246 1.02-4.03 1.644-.138 3.297-1.487 4.97-.391 1.574.975 3.801.392 5.342 1.393m-174.106-5.45c.783 2.237 2.045 4.657 4.561 5.284 2.245.66 4.804 1.479 5.387 4.22-.122.637-.452 1.176-.983 1.646-3.873.932-8.259.68-12.367 1.019-1.706-.505-4.143.33-5.179-1.444.088-5.065 3.473-8.947 6.598-12.542 1.408-.636 1.53 1.096 1.983 1.818m345.105-3.463c-.13 1.906-.374 4.013-1.984 4.856-3.829.888-7.598 1.697-11.793 1.645-1.73-.713-1.522-2.941-1.775-4.682a7.735 7.735 0 0 1 1.775-2.411c4.856 1.4 10.174-4.78 13.777.592m-58.546-5.874c.113 1.175.078 1.958-.166 3.055-1.427-.271-2.654.452-3.829.209-.026-1.62 1.706-2.455 1.628-4.064.705.416 1.818-.09 2.367.8m27.702-9.548c.112 4.778.53 9.59.365 14.195 2.036 7.57.165 16.727 1.62 24.542 0 4.822-.906 10.27 0 15.214.286 1.688-.593 2.906-.619 4.473-.34.932-.957 1.775-1 2.838-2.62 2.567-.802 9.8-6.546 8.32-1.288-.94-1.462-2.707-2.61-3.848.374-3.115 4.256-4.647 4.177-7.945 1.123-4.43-.496-9.277.618-13.76.505-.427.505-1.314.174-1.82-1.784-1.74-1.549-4.872-.992-7.101.131-1.02-.296-2.28.41-3.046.34-1.35.94-2.567.991-4.047.68-2.794.427-6.214.21-9.13-.54-1.148-.958-2.454-2.194-3.037a558.528 558.528 0 0 0-8.755-1.82c-.574-.547-1.523-.504-1.767-1.426-.13-1.158.061-2.16.565-3.055 1.914.043 3.324-1.732 5.387-.801 1.201.087 2.916 1.305 3.786 0-.67-3.935 2.48-6.215 3.76-9.33.662-.722 2.333-.513 2.42.584m-158.649-4.43c.661.835.417 2.28.217 3.255-2.088 2.445.366 7.842-4.412 8.103-1.828-.714-4.604 0-5.335-2.437-1.288-1.654-3.255-3.003-2.62-5.501l3.203-3.42c1.984-.131 3.97-1.523 5.962-.418.87.418 2.123 0 2.985.418m190.067-2.663c.365.635.131 1.53.21 2.245-2.238 2.02-4.109 5.857-7.58 4.683-.915-.592-2.125-.55-3.152-.845l-.217.227-5.188-.392c.096-1.428-.409-3.804 1.22-4.691 2.062-.383 5.038.166 6.753-1.818 2.768 1.096 5.561-1.437 7.954.59M403.84 92.777c.462.749.714 1.602.592 2.61-.47.593-.757 1.272-.792 2.028-2.158 4.229-5.474 7.938-6.188 12.75-2.48 3.012-4.56 7.694-8.947 7.737-1.453-.723-3.446-2.29-3.567-4.047 1.035-3.925 4.891-6.72 5.761-10.783.505-3.281-.426-7.224 1.593-9.922 2.716-1.305 6.876.122 9.73-1.227.87-.286 1.201.54 1.818.854m-32.462-.635c.992 2.063 2.28 4.473 1.21 6.875-2.42 4.813-5.44 9.39-8.382 14.029.035 2.498-1.079 4.518-2.367 6.458-1.148 1.097-2.323-.331-3.604-.2-1.19-3.342-4.813-5.196-7.336-7.484-.218-1.654.948-2.576 2.201-3.255 3.107.46 5.266-.331 6.954-3.03 2.454-4.351 2.28-9.851 4.77-14.202 2.194.304 4.361 1.13 6.554.809m314.88.417c.853.592.495 1.732.565 2.61-1.897 1.106-1.688 4.309-4.178 4.483a12.884 12.884 0 0 0-4.77-1.811c-1.323-1.357-.914-3.168-.209-4.691 1.288-1.35 1.828-4.647 4.596-3.63 1.166 1.176 2.167 1.689 3.368 2.829l.627.21m227.457-17.231c.627.853.452 2.279.218 3.246-.053 5.996-1.584 11.366-.992 17.624-2.002 1.392-1 4.047-2.41 5.7-1.576 1.393-4.239.679-6.189.592-6.502-1.82-13.508 0-20.27 0-8.086-.34-15.292 1.436-23.508.8-.383.497-.826.767-1.366.793-.792-1.471-.13-3.612-.618-5.24-.305-4.812-.966-9.485-1-14.395-.375-1.01-.793-2.036-1.167-3.037.166-.723-.409-1.148-.2-1.811 1.114-1.244 2.898-.356 4.195 0 5.013-1.026 9.364 1.967 13.916-.217 6.832-.601 12.933 2.358 20.078 1.009 4.308-1.932 8.834-3.211 12.776-6.083 1.48 0 2.523-1.767 4.134-.801 1.037.287 1.951.679 2.403 1.82m-63.097-8.913c2.49 1.14.992 4.308 3.394 5.656.088 2.193-1.54 3.639-1.792 5.657-1.314 1.94-.07 4.309.226 6.293-.975 4.36 1.784 8.363 0 12.593-.339 1.897-1.01 3.63-1.01 5.675-2.358 1-5.587.287-7.17 2.819.46 1.81-1.202 5.188 1.583 6.084 3.011-.035 5.396 2.872 6.371 5.274 2.367-.131 1.671 5.239 4.36 2.454.33-1.192.496-2.76.417-3.847-.034-.845-.087-2.358.792-2.872l1.201-.383c10.522.896 20.618-1.088 31.062-.418 6.754-.636 13.56-1.132 20.48-1.401 2.228-1.228 5.134-.757 6.962-3.037 1.357-.375 2.62-.723 3.185-2.037h.584c-1.367 5.37-.653 11.889-.584 17.633 0 2.437-1.767 5.1 0 7.302-.069.574.166 1.35-.19 1.819-1.332-1.401-3.08-.714-4.778-.592-2.82-.427-4.935 1.593-7.755.592-3.925-1.401-8.337-.932-12.14.418-.889.844-.828 2.027-.793 3.246.826 3.985.165 8.372-.218 12.34 1.55 3.683.383 8.539 1.01 12.595-.087 10.592 1.906 20.817.574 31.427-.783 1.306-2.115 1.444-3.359 1.602-8.45-.714-17.45.043-25.29-2.193-.984-.305-2.116-.252-2.986-.844-.627-2.411-3.308-2.411-3.978-4.865-.46-1.724-.905-3.751.41-5.283.451-.714-.245-2.063 1.2-1.811 2.402.296 4.37 2.455 6.971 1.646 2.411-2.193 4.674-4.256 5.971-7.102-1.54-6.571 2.898-11.15.783-17.433-.696-3.978.374-7.737.574-11.593-.574-3.577.375-7.798-.766-11.148-6.318-1.506-12.236 2.167-18.503 0l-3.403-.366c-1.279-2.532 2.568-4.412-.199-6.092-3.447-1.984-3.194 2.62-6.188 2.42-.374 1.896-3.733 3.106-2.768 5.482.661 2.115-.636 4.309 1.41 5.884 1.322 2.819-.923 5.64.374 8.52-.792 2.742-.087 5.414-.592 8.286l.218.209c-.6 2.4.374 5.36-.8 7.528-1.07 6.535 1.47 13.847-1.394 19.634-.6 2.149-1.706 4.69-4.195 5.074-.966.8-.966 2.149-2.2 2.654-4.344 1.479-8.26-.714-11.733-2.654-.826.409-1.07-.68-1.784-.592-.8-1.654-2.819-1.027-4.203-1.62-.967-1.227-4.334-.713-3.177-3.254 2.21-.792 4.481-2.185 5.796-4.256.662-.261 1.245-1.271 1.584-2.02.21-2.132.244-4.272 1.21-6.092 2.071-7.685-1.584-15.544.774-23.106-.2-1.401-.948-2.907-2.402-3.464-4.395 1.566-6.336 7.015-10.32 9.12-2.368.13-4.448-.426-6.59-.8-2.123-1.941-5.892-2.872-6.344-5.884-.705-1.001-2.489-.87-1.775-2.654-.288-.627-1.132-.383-1.219-1.01.748-1.166 2.49-1.82 3.568-3.046 3.072-.035 4.986-2.95 7.954-3.203 2.863-.078 3.786-3.594 6.397-4.273 2.193-2.672 5.762-3.324 7.162-6.701 1.662-1.784 3.77-3.386 3.77-5.883.635-1.02 2.123-1.984 1.583-3.63-1.984-.888-2.019-3.594-4.187-3.847-1.453 1.262-2.654 3.212-4.343 3.847-.644 2.41-3.324 1.01-4.194 2.82-1 .383-2.27.139-3.395.209-.374-1.306-1.862-.801-2.794-1.21-.983-1.35-3.307-2.498-2.776-4.647l-1.192-1.236-.217-9.33c2.576-1.601 5.31-2.575 7.972-3.846.87-2.96 3.473-.75 4.961-2.028 2.863-2.82 6.771-4.352 8.808-7.902 2.28-1.306 3.02-4.3 5.135-5.7 1.07-1.56 1.044-3.63 2.411-5.065 0-4.447 4.43-6.972 5.552-10.94 1.784-1.984 3.647-3.716 6.18-3.847.54-.461 1.306-1.305 1.984-.417.371 1.139 1.494 2.662 2.783 2.662m-172.166-4.055c.671 1.81 2.245 3.28 3.612 4.848.505 3.307 4.986 3.68 5.178 7.302 1.454 1.062 1.454 2.715 1.367 4.447-.662.93-1.559 1.784-1.367 3.037 1.367 1.019 1.784 2.916 3.786 2.454 1.15.592 2.307.549 3.568.209 3.342-2.367.104-6.38 1.976-9.547-.33-2.15-.365-4.734.792-6.51 4.195 1.696 7.92 4.48 11.357 7.945 3.36.296 5.98-.644 8.965 0l.2-.218c3.655.636 8.05-.54 11.331 1.019 2.977.609 4.43-2.576 7.372-2.02 1.923-2.201 4.561-2.454 7.171-2.846 1.288-.252 2.454.262 2.985 1.4.165 5.823.627 12.299-.409 17.868-1.906 2.664-1.175 6.476-2.193 9.513-.8 3.412-1.662 7.015-1.575 10.558l-.218.217c.496 4.178-.156 8.86.627 12.959-.253 3.508-2.785 6.093-2.193 9.93-.383.81-.096 1.61.366 2.237 2.114.218 3.48-1.305 4.97-2.654-.157-1.827 2.001-2.158 2.21-3.847.243-.88 1.062 0 1.61 0 1.444 1.688 4.612 2.28 3.76 5.283-.026 1.47-1.35 3.168 0 4.465-.105 1.627-1.48 3.22-.4 4.873.121 1.263.905 2.01 1.784 2.61-.627.81-1.54.924-2.35 1.236-1.768 1.854-3.743 3.072-5.988 3.63-3.899-.296-7.955-.975-11.732-1.027-1.079.853-1.696 1.87-1.427 3.272 4.17 5.17 11.253 3.96 16.353 7.302 3.151.078 6.467 1.646 9.53.209.54 3.769-1.61 6.885-1.993 10.514-1.313 3.507-4.49 6.345-6.535 9.338-2.994 1.314-4.326 4.239-6.798 6.51-1.166-.295-1.419-2.454-2.993-2.245-1.61.296-1.61-2.063-3.15-2.02-1.28-2.497-4.475-1.565-5.597-4.49-.879-2.185-3.186-4.047-4.56-5.866 0-2.071-1.42-3.507-2.62-5.064-3.056.287-2.68 4.473-5.762 5.482-4.396 3.264-6.336 10.104-12.307 10.73-1.33 1.202-3.359.68-4.813 1.646-3.272 2.21-7.807 1.444-11.114 3.646-1 .078-1.87-.096-2.619-.601-.618-3.202-2.829-5.7-2.35-9.33-.958-1.75-2.707-4.063-4.822-4.272-3.315.252-3.725 5.03-7.119 5.065-1.87.6-3.742 1.14-5.188 2.628-2.55.383-4.22 2.863-6.605 3.673-3.142-1.523-3.76-5.37-6.762-7.311-.688-2.994-4.918-3.246-4.96-6.667-.506-2.498-1.863-4.561-2.194-7.11.122-1.14-1.123-1.802-.174-2.854 3.533.418 8.294 2.027 11.322-.601 2.863-1.48 7.076-.801 8.381-4.856.253-1.645.531-3.803-1.2-4.856-.87-.252-2.246-.514-3.003.166-1.854 3.167-5.004 5.796-8.529 6.083a140.34 140.34 0 0 1-1.218-4.43l-.192-4.691c-1.287-1.958-.79-4.734-1.2-7.102-.375-.131-.13-.514-.2-.801 4.552-.14 9.816.349 14.343-.365 1.28-1.366.783-3.395 1.2-5.083-.957-1.993-3.733-.601-5.396-.435-1.41.356-3.116.6-4.56.217-1.837-1.514-2.29-3.794-4.188-5.064-2.41.896-1.87 3.76-2.784 5.665-.792.792-1.61 1.566-1.775 2.646-.496.26-.384.774-.409 1.2-.13 2.22-3.917 2.898-2.794 5.684-.035.644-.74 1.375-1.41 1.41-1.984.252-3.22-1.82-4.769-2.202-1.098-.757-1.219-1.94-1.977-2.872-2.715-.252-5.273-.766-7.18-3.046-.209-1.515.618-3.97-.783-5.24-.209-2.488 2.785-2.141 4.178-3.245 4.664-1.384 9.704-2.237 12.941-6.72 7.015-13.298 15.257-26.11 17.702-41.356 1.897-9.087 5.805-17.311 5.97-27.154.41-1.062 1.706-.601 2.42-.427 1.776 1.784 4.265 3.595 5.127 5.919m-134.699-3.673c1.28 1.088 3.882.252 4.396 2.027 0 1.68-1.828 2.646-2.01 4.256-1.907 3.63-6.337 6.18-6.964 10.357-.252 4.517 5.021 1.427 7.346 2.628 5.518 1.749 11.035-.731 16.501-.227 4.856-.626 10.21-.043 14.352-2.401 3.403-.896 7.66-.253 10.932 1 1.88 2.133 1.322 5.3 2.001 7.903 0 4.855-2.977 8.407-3.568 12.976-.217 1.132-.32 2.27-1.418 3.038-4.056.644-7.163-2.951-11.14-.801-.827.426-1.863.426-2.776.6-.218 0-.462-.052-.592.2-.253-.495-.444.262-.827 0-4.02-.626-8.077-1.262-12.516-1.018-1.696 1.854-2.2 4.195-2.768 6.519.313 1.349.696 3.168 2.351 3.42 1.95.218 3.315-.931 4.978-1.392 4.561-.21 8.956-.14 12.15 3.037.791 1.993.13 4.56.626 6.666.618 3.334 1.236 6.894.983 10.357-.86.296.044 1.349-.818 1.602-1.305 10.095.696 20.278.61 30.635-.288 8.868 2.445 18.45-.775 26.562-.783 1.784-.052 4.352-1.419 5.666-6.753 1.097-13.847-.557-20.896-.592-4.222.81-8.329-1.105-11.94-3.037-2.089.888-2.829-1.523-4.562-1.454 1.332-1.758 4.265-2.472 4.561-5.056-.209-1.323-.183-2.785-1.575-3.64-6.466-1.096-13.689-.416-20.53-.582-.992-.844-2.358-1.14-2.977-2.454-.427-3.725.983-7.476-.583-10.723.078-2.55 1.61-5.152.21-7.536-.619-2.82.286-5.527 0-8.521-1.638-1.41-3.49-2.202-5.606-2.411.044 1.862-.496 4.013-.583 6.084.923 9.12.68 18.746 1.001 28.172.087 2.628-1.41 5.16-3.568 6.3-2.28-.887-3.072 1.855-4.952 1.82-3.594-.35-6.744-1.62-9.982-2.63-.817-2.784-.113-6.204-.609-9.12l-.208-.217.208-.21c-.966-3.002.166-6.074-.208-9.33-.122-14.437.34-28.894-.384-43.393-.313-3.96-1.157-7.686 0-11.566.68-1.314.131-3.386 2.002-4.056 5.301-.427 10.444.626 15.5 1.436 1.497-.461 3.612.296 4.404-1.436.54-2.934-2.74-4.222-2.776-6.885-.365-.722-1.07-.505-1.628-.792-1.827.33-3.429 1.715-5.344 1.219-6.544 1.175-13.638.844-19.895 2.62-2.75.252-2.785-3.09-4.613-4.44-.774-1.608-.078-3.802-.583-5.49-4.352-4.482-3.838-12.211-2.402-17.833-.13-.583.166-1.01.418-1.436 3.194.766 5.353 4.177 9.156 3.464 7.528 1.13 15.77 1.062 23.263 1.618.297-.348.914-.27 1.201 0 4.856-.305 9.791-.217 14.525-.81.827-.513 2.063-.217 2.402-1.427-1.035-2.08-3.359-3.055-4.56-5.083-.836-1.148-2.01-2.15-2.985-3.246-.13-1.95.365-4.238-1-5.666-.793-1.48-1.655-3.202-.993-5.064 3.063-3.978 7.832-.94 12.314-1.82 1.192-.34 2.271-.887 3.612-1.018 4.342-.328 8.275.21 11.53 2.63m-193.862.21c.88.209 2.08-.505 2.585.583.913 8.746-.87 17.867 0 26.57 1.48 2.663 5.048 1.68 7.58 1.653 1.297-.713 2.28-1.731 2.985-3.046.287-2.881-1.27-4.952-1.619-7.52-.696-2.741-1.845-5.23-1.775-8.33.87-.538-.069-1.853.792-2.392 9.365 2.185 19.635 2.236 29.277 3.829 1.323.339 2.516.983 3.96 1.019.505.217.592-.427 1.01 0 8.712.513 15.091-4.813 24.082-3.664 4.281.835 11.044-1.393 12.114 4.265.21 1.758-1.07 2.819-1.166 4.464-.574 1.279-.86 2.629-.992 4.064-2.533 9.47-6.31 18.416-8.172 28.173-1.332 3.342-2.985 6.51-3.978 9.93-2.654 2.498-5.083 5.413-7.163 8.329-1.453.835-3.95-.174-4.56 1.819-.105 1.758-.13 3.455 1.583 4.464 4.047.514 9.095 1.019 12.507-1.218 1.584-.14 3.402.034 3.978 1.427.2 5.448-3.525 9.513-2.142 15.213-.356 10.896-.635 22.768 1.767 33.029-.287 1.488.662 3.472-.792 4.48-.817 1.776 1.001 5.197-1.609 5.667-1.254.035-2.576 1.219-3.777.209-6.188-3.168-14.047-.888-20.679-.418-5.03-2.29-12.193-.635-17.337-1.401-.252.079-.914-.087-1.375 0l-10.147.6c-.627.619-1.637.375-2.202 1.01-2.202.593-2.202-2.357-3.56-3.463l-.854-.81-.348-30.783c.48-3.56-.218-7.571.574-11-.574-4.1-3.95-6.632-7.18-8.903-1.575-.583-2.61.983-3.15 2.019-.375.818-.322 1.819-.618 2.672-1.332 5.84.026 12.037-.374 18.242 1.157 1.522.905 3.673 1.566 5.448.601 5.204-.453 10.183-.409 15.422.21.6.714 1.393.21 2.027.121 1.184-.079 2.707-.593 3.847-.496 1.105-.53 2.41-1.61 3.247-3.315.104-7.258-.157-10.739.217l-.209-.217c-4.213.217-9.974 1.688-13.09-2.028-1.297-1.602-3.49-2.646-3.82-4.848 1.453-3.803 4.734-6.475 7.963-8.755.95-.113 2.106.348 2.812-.375.661.33.888-.557 1.375-.635.287-4.378.287-9.165 0-13.56l.218-.21c-.305-3.376-.514-6.796-2.42-9.546-.2-.758-1.035-.122-1.366-.584-2.663 2.063-4.917 5.875-8.58 5.875-1.402.792-2.864 1.566-4.144 2.646-1.297 1.184-2.367 2.454-3.194 3.847h-.418c-1.61-9.912-9.45-17.275-8.746-28.181.817-1.854 3.567-.714 5.387-1.001 5.353-3.934 14.091.366 19.077-4.481 3.395-2.29 7.502-5.666 6.38-10.565-.374-2.585-1.332-5.065-3.568-6.676-2.94-1.471-4.396 2.532-7.18 1.444-.854-.096-2.402.166-3.386-.217-1.367-.758-3.368-.55-4.195-2.237.122-1.984-.069-4.308-.574-6.292-1.41-4.987-4.552-9.261-4.178-15.004 1.862-.845 3.23.722 5.18.217 5.386-.426 11.112.079 16.126-1.227 1.697-.845 2.263-2.237 2.985-3.838-.053-9.896-5.806-18.382-2.62-28.6 1.332-.391 2.402-.348 3.604.2 3.863 2.37 8.335 3.222 12.931 3.858zM336.576 220.904h-1.088c-.496 1.33-1.35 1.688-2.27 1.688-.584 0-1.263-.2-1.829-.4-2.506-.923-4.212-1.288-6.962-1.332-9.695 0-16.467 6.302-16.467 14.665 0 8.355 6.771 14.665 16.467 14.665 4.552 0 9.47-1.906 12.22-5.257l-1.21-1.444c-2.516 2.55-6.04 4.568-10.593 4.568-6.014 0-7.728-5.257-7.728-12.82 0-7.554 1.714-12.767 7.728-12.767 5.292 0 9.008 4.212 10.645 7.998h1.088v-9.564m550.724 28.563h16.197v-.983c-2.82-.078-3.882-.278-3.882-3.551v-7.755l.68-.53 6.978 8.816c.775 1 1.228 1.775 1.228 2.088 0 .854-1.357.896-2.27.932v.983h14.725v-.983c-1.81-.078-2.724-1.453-3.673-2.654l-11.192-14.108 7.737-6.553c1.35-1.123 3.951-2.611 6.405-2.611v-.975h-12.332v.975c1.228 0 3.604 0 3.604 1.332 0 .608-1.27 2.089-3.194 3.68l-8.694 7.269v-8.73c0-3.271 1.062-3.472 3.882-3.55v-.975h-16.197v.975c2.83.078 3.855.278 3.855 3.55v18.826c0 3.272-1.026 3.473-3.855 3.55v.982m-35.058 0h11.192v-.983c-3.003.052-5.005-.427-5.005-3.83V227.45l23.116 22.74h1.088v-23.803c0-2.454.966-3.707 3.463-3.83v-.974h-10.383v.975c2.794 0 4.734.453 4.734 3.829v11.846l-16.788-16.65h-11.418v.976c1.453.035 1.905.035 4.012 2.533v19.407c0 2.533-1.01 3.864-4.012 3.986v.983m-27.44-9.626l4.64-9.416 4.96 9.416h-9.6m-9.155 9.626h10.748v-.983c-1.906 0-4.1-.235-4.1-2.385 0-1.08 1.088-3.595 1.697-4.64h11.41l.601 1.176c.41.757 1.82 3.308 1.82 4.238 0 .73-.567 1.254-1.15 1.41-.548.165-1.444.2-2.507.2v.983h17.294v-.983c-1.67 0-2.907-.801-3.76-2.054-.88-1.254-1.654-2.83-2.785-4.926l-11.288-20.645h-1.54l-11.428 22.898c-1.41 2.785-1.74 4.369-5.013 4.726v.985m-30.034 0h12.872c1.228 0 3.646 0 5.144-.122 6.24-.487 11.201-2.358 11.201-7.841 0-2.516-2.358-4.813-4.596-5.71-1.549-.592-3.142-1.08-4.777-1.253.826-.191 1.723-.383 3.011-.932 2.62-1.08 4.447-2.924 4.447-5.596 0-2.628-1.13-3.725-2.419-4.7-2.124-1.653-5.979-1.731-10.278-1.731h-14.604v.975c2.83.078 3.855.278 3.855 3.55v18.826c0 3.272-1.026 3.473-3.855 3.55v.984m12.323-25.265c0-.67.321-1.191 1.74-1.191.688 0 2.037.034 2.95.748 1.41 1.105 1.82 2.924 1.82 4.813 0 4.518-2.446 5.405-4.735 5.405h-1.775v-9.775m0 11.192h1.976c3.098 0 6.092 1.54 6.092 6.432 0 3.56-1.14 6.23-5.787 6.23-2.046 0-2.28-.208-2.28-2.845v-9.817m-46.11 14.796h1.191c.218-.774.592-1.21 1.575-1.21 1.244 0 3.925 1.21 7.023 1.21 6.605-.096 11.235-3.804 11.235-9.261 0-3.106-1.897-6.092-5.727-7.876l-5.778-2.663c-2.185-1.01-4.29-2.011-4.29-4.525 0-2.142 2.062-3.395 4.377-3.395 4.23 0 7.467 3.769 8.241 7.154h1.228l-.27-8.765h-1.279c-.044.8-.784 1.123-1.54 1.123a4.655 4.655 0 0 1-1.559-.27c-1.584-.618-3.855-.854-4.874-.854-5.587 0-9.556 3.595-9.556 8.52 0 3.605 1.827 5.9 5.744 7.843l4.995 2.463c2.29 1.132 4.291 2.254 4.291 4.76 0 2.682-2.463 4.135-5.475 4.135-4.726 0-7.824-4.291-8.59-8.007h-1.235l.272 9.618m-25.352-.723h17.842v-.983c-3.412-.078-4.69-.688-4.69-3.508v-20.887c0-.888.277-.888 1.592-.888 4.316 0 6.954 2.332 7.66 5.97h1.087l-.366-7.59h-28.398l-.374 7.59h1.097c.68-3.638 3.325-5.97 7.65-5.97 1.314 0 1.584 0 1.584.888v20.887c0 2.82-1.27 3.43-4.683 3.508v.983m-39.87 0h11.184v-.983c-3.003.052-4.995-.427-4.995-3.83V227.45l23.115 22.74h1.097v-23.803c0-2.454.957-3.707 3.455-3.83v-.974H710.08v.975c2.776 0 4.743.453 4.743 3.829v11.846l-16.797-16.65h-11.419v.976c1.462.035 1.915.035 4.004 2.533v19.407c0 2.533-1 3.864-4.004 3.986v.983m-27.449-9.626l4.656-9.416 4.952 9.416h-9.608m-9.148 9.626h10.748v-.983c-1.914 0-4.099-.235-4.099-2.385 0-1.08 1.097-3.595 1.688-4.64h11.418l.584 1.176c.417.757 1.827 3.308 1.827 4.238 0 .73-.548 1.254-1.132 1.41-.557.165-1.462.2-2.497.2v.983h17.284v-.983c-1.688 0-2.916-.801-3.786-2.054-.86-1.254-1.627-2.83-2.776-4.926l-11.279-20.645h-1.54l-11.444 22.898c-1.393 2.785-1.706 4.369-4.996 4.726v.985m-37.188 0h16.196v-.983c-2.837-.078-3.873-.278-3.873-3.551v-8.973h11.75v8.973c0 3.272-1.045 3.473-3.864 3.55v.984h16.188v-.983c-2.81-.078-3.864-.278-3.864-3.551v-18.825c0-3.272 1.054-3.473 3.864-3.551v-.975h-16.188v.975c2.82.078 3.864.278 3.864 3.55v8.008h-11.75v-8.007c0-3.272 1.036-3.473 3.873-3.551v-.975h-16.196v.975c2.812.078 3.873.278 3.873 3.55v18.826c0 3.272-1.062 3.473-3.873 3.55v.984m-1.88-28.563h-1.088c-.505 1.33-1.357 1.688-2.263 1.688-.6 0-1.279-.2-1.827-.4-2.516-.923-4.239-1.288-6.972-1.332-9.686 0-16.476 6.302-16.476 14.665 0 8.355 6.79 14.665 16.476 14.665 4.552 0 9.47-1.906 12.202-5.257l-1.219-1.444c-2.498 2.55-6.022 4.568-10.565 4.568-6.015 0-7.737-5.257-7.737-12.82 0-7.554 1.723-12.767 7.737-12.767 5.257 0 9 4.212 10.644 7.998h1.088v-9.564m-51.296 4.264c0-1.488.183-2.158 2.506-2.158 3.882 0 5.831 2.523 5.831 5.892 0 4.403-3.237 6.049-7.37 6.049h-.967v-9.783m-12.324 24.299h16.206v-.983c-2.829-.078-3.882-.278-3.882-3.551v-8.564h1.366l8.746 13.099h10.558v-.983c-.636 0-1.097-.122-1.819-.844-.73-.731-1.688-2.02-3.42-4.396l-5.5-7.642c3.594-.888 7.231-3.272 7.231-6.91 0-3.603-3.046-5.857-6.745-6.614-2.132-.452-7.37-.496-12.428-.496h-10.313v.975c2.82.078 3.864.278 3.864 3.55v18.826c0 3.272-1.044 3.473-3.864 3.55v.983m-31.819 0h27.658l1.775-8.442-1.088-.261c-.183.618-1 2.48-2.314 3.847-3.055 3.186-5.379 3.237-10.052 3.237-3.465 0-3.647-.53-3.647-3.49v-8.833c5.014 0 6.693 2.054 7.285 6.17h1.088v-13.76h-1.088c-.592 4.117-2.27 6.18-7.285 6.18v-8.808c0-2.027.592-2.105 2.83-2.105h2.905c5.553 0 7.686 2.14 8.19 6.257h1.087v-7.876h-27.345v.975c2.812.078 3.864.278 3.864 3.55v18.826c0 3.272-1.053 3.473-3.864 3.55v.983m-42.462 0h9.957v-.983c-3.917 0-4.282-1.42-4.282-4.525v-18.903l10.714 24.412h1.48l11.287-24.412.087 19.878c0 3.272-1.027 3.473-3.855 3.55v.984h15.734v-.983c-2.81-.078-3.855-.278-3.855-3.551v-18.825c0-3.272 1.045-3.473 3.855-3.551v-.975h-12.559l-8.18 17.894-7.738-17.894H473.04v.975c2.263.078 3.508.313 3.508 3.099v17.667c0 4.734-1.288 5.16-3.508 5.16v.983m-37.919-9.626l4.621-9.416 4.97 9.416h-9.59m-9.157 9.626h10.75v-.983c-1.925 0-4.092-.235-4.092-2.385 0-1.08 1.08-3.595 1.68-4.64h11.418l.584 1.176c.417.757 1.81 3.308 1.81 4.238 0 .73-.539 1.254-1.113 1.41-.558.165-1.472.2-2.516.2v.983h17.302v-.983c-1.697 0-2.916-.801-3.795-2.054-.853-1.254-1.618-2.83-2.759-4.926l-11.288-20.645h-1.549l-11.419 22.898c-1.4 2.785-1.73 4.369-5.013 4.726v.985m-33.81 0h11.191v-.983c-3.02.052-5.005-.427-5.005-3.83V227.45l23.107 22.74h1.097v-23.803c0-2.454.957-3.707 3.464-3.83v-.974h-10.374v.975c2.768 0 4.726.453 4.726 3.829v11.846l-16.797-16.65h-11.41v.976c1.462.035 1.897.035 3.995 2.533v19.407c0 2.533-1.01 3.864-3.995 3.986v.983m-16.667 0h16.206v-.983c-2.829-.078-3.855-.278-3.855-3.551v-18.825c0-3.272 1.026-3.473 3.855-3.551v-.975h-16.206v.975c2.83.078 3.873.278 3.873 3.55v18.826c0 3.272-1.044 3.473-3.873 3.55v.984m-36.918 0h16.205v-.983c-2.82-.078-3.873-.278-3.873-3.551v-8.973h11.724v8.973c0 3.272-1.027 3.473-3.848 3.55v.984h16.206v-.983c-2.82-.078-3.882-.278-3.882-3.551v-18.825c0-3.272 1.062-3.473 3.882-3.551v-.975h-16.206v.975c2.82.078 3.848.278 3.848 3.55v8.008h-11.724v-8.007c0-3.272 1.053-3.473 3.873-3.551v-.975H338.57v.975c2.82.078 3.873.278 3.873 3.55v18.826c0 3.272-1.054 3.473-3.873 3.55v.984z"/></g></svg>