<?xml version="1.0" encoding="UTF-8"?>
<svg width="526.9" height="118.81" enable-background="new 0 204.5 543.5 139" version="1.1" viewBox="0 204.5 526.89502 118.812" xml:space="preserve" xmlns="http://www.w3.org/2000/svg" xmlns:cc="http://creativecommons.org/ns#" xmlns:dc="http://purl.org/dc/elements/1.1/" xmlns:rdf="http://www.w3.org/1999/02/22-rdf-syntax-ns#"><metadata><rdf:RDF><cc:Work rdf:about=""><dc:format>image/svg+xml</dc:format><dc:type rdf:resource="http://purl.org/dc/dcmitype/StillImage"/><dc:title/></cc:Work></rdf:RDF></metadata>
<g transform="translate(-11.552,-11.094)" fill="#e30613">
	<path d="m111.47 268.32v-24.623l-29.195-28.106h-41.541l-29.178 28.106v24.623l5.133 6.632-5.133 6.736v24.659l29.178 28.056h41.541l29.195-28.056v-24.659l-5.178-6.685 0.06-0.203zm-49.849 59.317h-0.26l-34.115-35.226 4.473-4.466 10.625 10.043h38.304l10.646-10.043 4.465 4.466zm-16.413-52.594v-0.091l16.153-15.058h0.26l16.156 15.058v0.091l-16.156 15.069h-0.26zm46.086-12.947-10.646-10.107h-38.304l-10.625 10.107-4.473-4.521 34.115-35.161h0.26l34.138 35.161z"/>
	<path d="m144.35 273.83v-7.302h12.03c3.072 0 4.482 0.496 4.482 3.757 0 2.999-1.455 3.545-4.351 3.545h-12.161m-8.411 13.55h8.411v-6.886h15.216c8.466 0 9.733-3.41 9.733-10.498 0-8.417-3.119-10.197-11.038-10.197h-22.323z"/>
	<path d="m210.6 259.83v17.335c0 9.305-5.601 10.549-13.761 10.549-2.283 0-4.602-0.035-6.857-0.035-8.738 0-14.82-0.347-14.82-10.904v-16.944h8.429v14.463c0.158 5.153 0.44 6.446 5.974 6.584l3.745 0.043 3.474-0.043c4.743 0 5.275-1.313 5.396-5.404v-15.643h8.42"/>
	<path d="m226.19 270.63v-4.763h14.625c1.704 0 3.214 0.251 3.214 2.305 0 2.256-1.555 2.458-3.368 2.458h-14.471m-8.412 16.752h26.605c5.833 0 9.151-1.526 9.151-7.965 0-4.527-1.773-5.441-5.891-6.103 1.116-0.297 2.304-0.579 3.176-1.36 1.418-1.205 1.64-3.296 1.64-5.015 0-5.647-3.455-7.137-8.495-7.137h-26.188v27.58zm8.412-6.26v-5.035h15.403c1.713 0 3.528 0.153 3.528 2.358 0 2.455-1.651 2.677-3.67 2.677z"/>
	<polygon points="261.8 259.8 270.19 259.8 270.19 280.47 289.22 280.47 289.22 287.38 261.8 287.38"/>
	<rect x="296.35" y="259.8" width="8.414" height="27.578"/>
	<path d="m346.66 276.86 0.035 1.176c0 7.731-2.176 9.168-10.354 9.508-2.148 0.091-4.255 0.117-6.402 0.117l-5.178-0.08c-7.041-0.08-12.447-0.276-13.052-8.96-0.17-1.929-0.258-3.82-0.258-5.748 0-7.996 1.278-12.484 10.088-13.11 2.584-0.202 5.229-0.202 7.83-0.202 3.42 0 6.892 0 10.312 0.355 5.778 0.633 6.569 4.724 6.703 9.644h-8.171c0-2.693-1.444-3.042-3.905-3.179-0.781-0.035-1.554-0.035-2.336-0.035h-2.316l-4.244 0.035c-5.479 0.056-5.516 2.016-5.516 7.188 0 5.583 0.276 7.067 6.305 7.235l3.25 0.08c1.447 0 2.852-0.045 4.281-0.045 2.867 0 4.688-0.246 4.688-3.979h8.24"/>
	<path d="m372.25 270.63v-4.763h14.66c1.688 0 3.184 0.251 3.184 2.305 0 2.256-1.531 2.458-3.361 2.458h-14.483m-8.383 16.752h26.588c5.832 0 9.172-1.526 9.172-7.965 0-4.527-1.795-5.441-5.941-6.103 1.15-0.297 2.336-0.579 3.205-1.36 1.449-1.205 1.662-3.296 1.662-5.015 0-5.647-3.481-7.137-8.498-7.137h-26.188zm8.383-6.26v-5.035h15.406c1.725 0 3.525 0.153 3.525 2.358 0 2.455-1.625 2.677-3.658 2.677z"/>
	<path d="m430.44 276.64h-11.85l5.948-10.85zm3.026 5.692 2.593 5.039h9.297l-15.06-27.578h-11.313l-15.354 27.578h9.308l2.738-5.039z"/>
	<polygon points="452.72 287.38 452.72 259.8 466.1 259.8 482.7 280.44 482.7 259.8 490.57 259.8 490.57 287.38 477.22 287.38 460.6 266.7 460.6 287.38"/>
	<polygon points="520.9 273.47 538.45 287.38 526.14 287.38 513.76 276.87 509.46 276.87 509.46 287.38 501.07 287.38 501.07 259.8 509.46 259.8 509.46 270.21 513.76 270.21 525.13 259.8 536.67 259.8"/>
</g>
</svg>
