<svg version="1.1" id="Layer_1" xmlns="http://www.w3.org/2000/svg" xmlns:xlink="http://www.w3.org/1999/xlink" x="0" y="0" viewBox="0 0 1920 639" style="enable-background:new 0 0 1920 639" xml:space="preserve"><style>.st0{fill-rule:evenodd;clip-rule:evenodd}.st0,.st3{fill:#fff}.st10{fill-rule:evenodd;clip-rule:evenodd;fill:#df171f}.st17{fill:none}</style><symbol id="Bank_of_Baroda_-_composite_logo__x28_reverse_x29_" viewBox="-266.1 -88.5 532.1 176.9"><path class="st0" d="m-180.6-41.3-62.5-.1.4 2.2 45.5 1.3c8.7.3 17.2.8 25.4 3.6 16.8 5.6 30.2 17.1 34.2 31.2 4.2 15.2-5.5 30-23.8 31.3 15.5 4.5 28.7 14.4 32.3 27 4.6 16.4-3.7 24.8-17.7 27.8 23.2.4 41.4-7.5 35.2-29.7-3.5-12.7-17.1-22.3-32.5-26.5 18.1-1.3 28-18.6 23.2-33.6-5-15.6-17.6-25.4-34.4-31-8.1-2.7-16.5-3.2-25.3-3.5"/><path class="st0" d="m-213.4-33.5-29.3-1.5c0 .8 0 .6-.1 1.3l74.3 22 .2 2.7-75.9-19.6c-.2.7-.3.5-.6 1.2l79.4 44-.8 2.2-81.1-41.9c-.5.7-.3.4-.8 1l94.4 88.1-1.2 2.4-96.6-87.4c-.5.3-.8.6-1.2.8l69.2 99.6h-2.9l-70.8-97.5c-.4.1-.8.3-1.2.4l41.1 97.3h-2.6L-264.3-15h-1.8l28.6 103.4 53.5-.2c25.3 1.4 45.3-5.4 38.7-29-3.5-12.7-16.8-22.5-32.2-26.7l-.1-.3c18.3-1.3 28.6-16 24.4-31.2-3.9-14.2-18-25.3-34.9-30.9-8.1-2.8-16.5-3.2-25.3-3.6M-72-41.1c4 0 14 .5 16.4 11.9 1.3 6.1.5 10.4-6 11.4v.1c5.3 1 8.6 4.7 9.7 9.9 2 9.6-3.4 11.6-10.6 11.6H-79l-9.5-44.9H-72zm.9 37.9h5.8c3.2 0 4.9-2.4 4.2-5.7-.9-4.4-4.1-5.7-6.1-5.7h-6.3l2.4 11.4zM-75-21.5h5.5c4.7 0 5.7-2.4 4.9-6.4-1.3-6.3-5.8-6.3-7.8-6.3h-5.2l2.6 12.7zM-25.4-19.6c1.2 5.7.8 10.5-10.3 10.5-3.4 0-6.3-.6-8.6-2.1-2.4-1.4-4.1-3.8-4.9-7.6h8.6c.5 2.5 1.3 4.8 4.3 4.8 3.2 0 3.1-1.9 2.6-4.6l-.5-2.4c-8.1.1-16.2-.3-18.4-10.7-1.2-5.5.1-10 6.2-10 3.8 0 6.7 1.6 9.2 4.8h.1l-.5-4.2h8.1c.2 1.9.4 3.9.8 5.8l3.3 15.7zm-9.9-6.4c-.7-3.4-1.4-10.4-6.6-10.4-2.9 0-2.6 2.7-2.2 5 1.2 5.6 4.4 5.2 8.8 5.4M-9.9-9.8h-8.8l-6.7-31.4h8.8l4.6 21.6c.6 2.8 1.6 5 4.3 5 2.8 0 2.8-2.2 2.2-5L-10-41.1h8.8L4.1-16c.9 4.4-2.2 6.9-6.4 6.9-3.3 0-5.9-1-8.2-3.8h-.1l.7 3.1zM11.7-41.1l3.6 17h.1l4.5-17h9.9l-6.2 17.4L35.5-9.8h-9.1L15.7-23h-.2l5.7 26.7h-8.7L2.9-41.1zM51.9-41.8c11.3 0 14.3 6.9 16.4 16.7 1.8 8.6 2.1 15.9-9.4 15.9-11.6 0-14.4-7.3-16.2-15.9-2.1-9.8-2.1-16.7 9.2-16.7m1.2 5.6c-3.2 0-3.6 2-1.6 11.6 1.4 6.5 2.4 9.8 6.1 9.8 3.7 0 3.3-3.3 2-9.8-2-9.5-3.3-11.6-6.5-11.6M91.5 3.9c-1 .1-2 .1-3.1.1-10.7 0-11-4.8-12.8-13.8h-4l-1.1-5.4h3.9l-5.5-26h8.8l5.5 26h4.1l1.1 5.4h-4.1l.8 3.8c.7 3.2 1.7 4.5 5.2 4.3l1.2 5.6zM111.4-41.1c4 0 14 .5 16.4 11.9 1.3 6.1.5 10.4-6 11.4v.1c5.3 1 8.6 4.7 9.7 9.9 2 9.6-3.4 11.6-10.6 11.6h-16.7l-9.5-44.9h16.7zm.8 37.9h5.8c3.2 0 4.9-2.4 4.2-5.7-.9-4.4-4.1-5.7-6.1-5.7h-6.3l2.4 11.4zm-3.8-18.3h5.5c4.7 0 5.7-2.4 4.9-6.4-1.3-6.3-5.8-6.3-7.8-6.3h-5.2l2.6 12.7zM157.9-19.6c1.2 5.7.8 10.5-10.3 10.5-3.4 0-6.3-.6-8.6-2.1-2.4-1.4-4-3.8-4.9-7.6h8.6c.5 2.5 1.3 4.8 4.3 4.8 3.2 0 3.1-1.9 2.6-4.6l-.5-2.4c-8.1.1-16.2-.3-18.4-10.7-1.2-5.5.1-10 6.2-10 3.8 0 6.7 1.6 9.2 4.8h.1l-.5-4.2h8.1c.2 1.9.4 3.9.8 5.8l3.3 15.7zM148-26c-.7-3.4-1.4-10.4-6.6-10.4-2.9 0-2.6 2.7-2.2 5 1.3 5.6 4.4 5.2 8.8 5.4M164.7-9.8 158-41.1h8.8l3.6 17.1c.7 3.1 1.7 7.6 9.3 7.1l1.7 7.8c-3.5 0-6.7-1.1-9.1-4.7h-.1l.9 4h-8.4zM188-41.8c11.3 0 14.3 6.9 16.4 16.7 1.8 8.6 2.1 15.9-9.4 15.9-11.6 0-14.4-7.3-16.2-15.9-2.2-9.8-2.1-16.7 9.2-16.7m1.2 5.6c-3.2 0-3.6 2-1.6 11.6 1.4 6.5 2.4 9.8 6.1 9.8 3.7 0 3.3-3.3 2-9.8-2.1-9.5-3.3-11.6-6.5-11.6M228.5-41.1 238 3.7h-8.8l-3.5-16.5h-.1c-1.2 2.7-3.2 3.6-6.4 3.6-8.8 0-10.6-9.8-12-16.1-1.4-6.5-3.8-16.5 5.2-16.5 3.4 0 6 1.1 8.3 4.1h.1l-.7-3.5h8.4zm-11.3 4.7c-3.2 0-3 3.3-1.4 11.2 1.3 6.3 2.2 10.6 6 10.6 3.6 0 2.6-4.3 1.3-10.6-1.7-7.9-2.9-11.2-5.9-11.2M261.3-19.6c1.2 5.7.8 10.5-10.3 10.5-3.4 0-6.3-.6-8.6-2.1-2.4-1.4-4-3.8-4.9-7.6h8.6c.5 2.5 1.3 4.8 4.3 4.8 3.2 0 3.1-1.9 2.6-4.6l-.5-2.4c-8.1.1-16.2-.3-18.4-10.7-1.2-5.5.1-10 6.2-10 3.8 0 6.7 1.6 9.2 4.8h.1l-.5-4.2h8.1c.2 1.9.4 3.9.8 5.8l3.3 15.7zm-9.9-6.4c-.7-3.4-1.4-10.4-6.6-10.4-2.9 0-2.6 2.7-2.2 5 1.3 5.6 4.4 5.2 8.8 5.4M174 26.9h7.6l-1.7-6.3h-7.6l1.7 6.3zM70.3 33.1h7.6l-1.7-6.3h-7.6l1.7 6.3zM-51 78.5h7.6l-1.7-6.3h-7.6l1.7 6.3zM44.1 69h71.3l-1.2-3.8H99.8l-2.4-9.1c2.2 2.2 4.9 3.2 8 3.2 4 0 7-2 6.1-5.4L106.4 34H98l4.4 17.1c.6 2.2.5 3.9-2.1 3.9-1.9 0-3.3-1.6-4.1-3.3l-2.1-8c-.4-1.6-2.7-11.4-3-13h-8.7L85 41.3c-2.4-2.2-4.8-3-8-3-4 0-7 2-6.1 5.4l5.6 21.6h-6.6L61 30.6h-8l8.9 34.7h-6.3l-8.9-34.7h-8l4.7 18.2h-6.5l1.1 3.9h6.4l3.2 12.6h-4.9l1.4 3.7zm47.3-3.8h-6.3l-4.9-18.9c-.6-2.2-.5-3.8 2.2-3.8s3.7 2.5 4.3 4.7l4.7 18zM19.6 30.6H7.7l1 3.9h10.4c2.6 0 6.5 1.5 7.8 6.7.8 3.3-.6 7.1-5.3 7.1h-7.8l1 4.3h9c3.2 0 5.7 2.7 6.6 6.3.7 2.7.5 6.4-4.2 6.4h-9.7l1 3.9h11.6c5.9 0 12.3-2.5 10.6-9.6-1.3-5.3-4-7.9-10.2-8.9 6.4-.9 7.7-5.2 6.4-10.3-2.3-9.4-12.3-9.8-16.3-9.8M-67.9 69l-7 8.6 5.8 4.3 7.4-12.9h2.2l-5.9 15.6 7 3.1 4.1-18.8h46.4L-9 65.2h-16.1l-2-8c2.2 2.4 4.8 3.3 8 3.3 8.7 0 6.8-8.2 5.5-13.3-1.3-5-3.5-12.3-11.9-12.3-1.7 0-3.2.3-4 1.1l.6 2.2c.2 0 .5-.2.8-.2 3.6 0 4.6 4.3 5.9 9.3 1.6 6.2 1.7 8.8-1.3 8.8-2.5 0-4-1.9-5.4-6.7l-4.7-19h-7.9l2.1 7.5c-2.3-2.4-4.8-3.2-8-3.2-8.7 0-6.7 8.7-5.4 13.8 1.3 5 3.4 12 11.8 12 3 0 4.9-.7 6.1-2.9L-33 65h-21.5l-8.9-34.7h-8l2.1 7.6c-2.3-2.4-6.3-3.2-9.5-3.2-8.7 0-6.9 8.8-5.6 14 1.3 5 3.6 11.8 12.1 11.8 3 0 6.4-.8 7.6-2.9l1.9 7.4h-19.4l1.2 3.8h13.1zM-74 54.2l6.2-8.1.5 1.8c1.3 5 2.3 8.4-2.3 8.5-2.1.1-3.5-.7-4.4-2.2m4.7-11.9-6.4 8.2c-.2-.8-.4-1.6-.7-2.5-1.6-6.2-1.5-8.8 2.3-8.8 2.3 0 3.7.9 4.8 3.1m27.7-11.7c2.1 7.6 2.1 7.5 2.1 7.5l-2.1-7.5zm-1.5 8.6c2.9 0 4.1 2.6 5.7 8.8 1.3 5 2.2 8.4-1.2 8.4-3.6 0-4.4-3.4-5.7-8.4-1.7-6.2-1.9-8.8 1.2-8.8M190.6 58l1.7 7.2h-23.6l-8.9-34.7h-8l2.1 7.6c-2.3-2.4-6.3-3.2-9.5-3.2-8.7 0-7.2 8.3-5.9 13.5 1.3 5 3.9 12.3 12.4 12.3 3 0 6.4-.8 7.6-2.9l1.9 7.4h-19.3l1.2 3.8h56.6l-7 8.6 5.8 4.3 7.4-12.9h2.2l-5.9 15.6 7 3.1 4.1-18.8H266l-1.2-3.8h-4.5l-8.9-34.7h-8l8.9 34.7h-6.9l-2.8-8.8h-11.1c-3.6 0-4.6-4.3-6.1-10.7-1.8-7.7-3.2-12.3 1.8-12.3.3 0 .9.1 1.6.4-.5 4.7 2.2 10.3 7.8 10.3 5.1 0 5.1-2.8 4.4-5.3-1-3.5-2.8-5.4-6.2-6.3 1.8-3.3 6.1-3.6 6.1-3.6l-8.6-4.7c-2 2.3-3.1 4.4-3.5 6.8-2.1-.6-4.4-.7-6.2-.7-10.3 0-8.6 10-6.8 16.8 1.8 7 4.8 13.1 13.3 13.1 3 0 6.4-.2 6.4-.2l1.5 5.3h-22.4l-8.9-34.7h-8l8.9 34.7h-6.4l-3-12.2h-8c.7 2.7-.6 3.7-4 3.7-3.1 0-4-.4-5.3-4.8-.9-3.8.2-4.5 3.9-4.4h6.4c4.7 0 5.5-1.8 3.9-8.7-2.1-7.8-5.9-8.3-10.6-8.3h-9.3c-8.1 0-8.4 3.6-6.6 9.5h9.2c-.8-3.1-2.7-6.2 2.7-6.2 3.2 0 4.3.8 5.5 5.3 1 3.2 1.3 4.9-3.7 4.9 0 0-4.3.1-6.4.1-5.5 0-4.6 4.6-3.6 8.4 1.9 7.1 3.3 8 11.4 8 5-.1 7.2-.6 7.9-2.5m-41.4-4.1 6.3-8.2.6 2.2c1.3 5 2.3 8.4-2.3 8.5-2.3.1-3.6-.9-4.6-2.5m4.1-12-6.3 8.2-.5-2.1c-1.6-6.2-1.5-8.8 2.3-8.8 2 0 3.4.8 4.5 2.7M74.2 81.1c-2-7.5-5.4-7.9-9.7-7.9h-8.4c-7 0-7.6 3-6.2 7.9h8.3c-.8-2.6-1.8-4.9 2.6-4.9 2.9 0 3.9.7 5 4.8l8.4.1z"/><pattern id="SVGID_1_" xlink:href="#Yellow" patternTransform="translate(-1062.3 -334.512) scale(.8899)"/><path style="fill-rule:evenodd;clip-rule:evenodd;fill:url(#SVGID_1_)" d="M-88.4-88.5H74.5v32.4H-88.4z"/><pattern id="SVGID_2_" xlink:href="#Red" patternTransform="translate(-1062.3 -334.512) scale(.8899)"/><path style="fill-rule:evenodd;clip-rule:evenodd;fill:url(#SVGID_2_)" d="M-88.4-88.5h27.2v32.4h-27.2z"/><path class="st3" d="M-88.6-49.5H259v.8H-88.6zM85-88.4h.8v32.3H85z"/><pattern id="SVGID_3_" xlink:href="#Dark_Blue" patternTransform="translate(-966.011 -426.815) scale(.8899)"/><path d="M-75.2-65.3c.1.2.2.2.3.4-.3.4-.2.9-.3 1.4-.2 0-.3.2-.3 1 0 .6 0 .9.4.9-.2.6 0 1.3.5 1.8.4.4 1.3.6 2.2.5 1.1 0 2.1-.4 1.9-1.1.1-.1.3-.1.3-.2.3-.6.3-1.2-.1-2-.1-1.3-.7-2.5-1.8-3.4.5-.2.9-.4 1.3-.7.3-.2.4-.5.6-1.2.4-1.3.7-2.7.5-4.3-.6-.6-1.4-1.1-2.2-1.4-.2-.1-.3 0-.4.1-.2-.6-.5-1.3-.7-1.9-.1-.1-.1-.1-.3-.1-.5-3.1-.9-6.2-.8-9.3.2-.3.4-.7.6-1-.6 0-1.4-.1-2 0 0 .3.2.6.3.9-.3 1.6-.4 3.2-.7 4.8-.2-1.7-.4-3.3-.7-4.9.1-.2.2-.4.2-.6-.7-.2-1.3-.1-1.6 0 .1.3.2.4.3.6 0 2.3-.1 4.6-.2 6.9-.4 1.5-.4 2.9-.4 4.3-1.6.7-2.6 1.5-3 2.4 1.5 3.6 3.5 5.6 6.1 6.1zm-3.1-5.3c-.3-.1-.5-.3-.7-.6.3-.1.5-.3.7-.5v1.1z" style="fill-rule:evenodd;clip-rule:evenodd;fill:url(#SVGID_3_)"/><pattern id="SVGID_4_" xlink:href="#White" patternTransform="translate(-966.012 -426.815) scale(.8899)"/><path d="M-73.3-61.7c.6.2.9.1 1.2-.1.2-.1 0-.4-.2-.3-.3.1-.6.3-1 .4zm-.1-1c.3-.1.7-.1.9 0 .1-.2 0-.3-.2-.4-.4.1-.7.2-.7.4zm2.1 1.6c-.9-.1-1.6.1-2.2.4-.4.2-.8.1-.9-.4-.1-.3-.2-.7-.2-1-.1 0-.1.1-.3.1-.2 0-.2-.2-.2-.5 0-.2-.1-.4.1-.5.1 0 .2 0 .2.1 0-.3.1-.5 0-.8-.1 0-.1 0-.1-.1 0-.2 0-.5.1-.6.3-.8 1.2-1.3 2-1.4.4-.1 1.1.2 1.2.7 0 .1 0 .1-.1.1-.9-.4-1.5.3-1.5.6 0 0 0 .1.1.1.5-.3.9-.7 1.8-.5.4.4.6.9.7 1.4-.2-.2-.4-.2-.6-.2.1-.7-1.1-.7-1.2.1.2-.1.5-.2.8-.2.1 0 .2.1.2.2v.3c.2-.2.5-.2.8 0 0 .2 0 .5.1.7-.3.1-.5.1-.5.2.2.1.4.1.7.1 0 .3 0 .6-.1.8-.3.4-.5.3-.9.3zm-6.6-5.9c.6-.4 1-1 .9-2.1 0-.2-.2-.4-.4-.5-.9-.5-1.5-1-2-1.7.8-.4 1.4-1 1.8-1.8-.3.1-.5-.1-.5-.4-1.3.5-2.1 1.3-2.8 2.2.7 1.7 1.6 3.2 3 4.3zm6.7-3.8v-.8c-.3-.4-.6-.8-.9-1.3-.1-.2 0-.5.3-.4.8.2 1.4.8 1.9 1.4.3 1.8-.1 2.8-.4 3.7 0 0-1-2.4-.9-2.6zm-3.6 5.7c.1 0 1.4-.9 2-1 0-.1 0-.2-.1-.3-.9.2-1.6.5-2 .9-.1.1 0 .4.1.4zm-2.7-1.7c.7.6 1.5.9 2.3 1.2.6-.5 1.3-.9 2.2-1.1.2-3-.1-5.8-1.2-8.3-1.2-.1-2.2 0-3.3.2-.2 0-.2.1-.2.3 0 .3 0 .6.1.9.6 0 1.2 0 1.9-.1.2 0 .3.4 0 .4-.4 0-.9.1-1.3.1-.3.4-.7.7-1 1.1.1.5.1 1 0 1.6.5.3.8.5 1.2.8.3 1.2 0 2.2-.7 2.9zm4.8.3c.1.1.3.2.4.3.4-.3.9-.5 1.3-.8.3-.2.4-.4.3-.8l-.3-.9c-.3 0-.5 0-.8.1v.5c0 .2-.3.1-.3 0 0-.4 0-.8-.1-1.2 0-.3.4-.2.4.1v.2h.7c-.4-1.5-1-3.3-2.1-5.7-.1-.2-.1-.3-.3-.3h-.6c.3 1 .6 2 .8 3 0-.1.1-.1.2-.1s.2.1.2.2-.1.2-.2.2-.1 0-.1-.1c.1.5.2.9.2 1.4 0-.1.1-.1.2-.1s.2.1.2.2-.1.2-.2.2-.1 0-.2-.1c.1.5.1 1 .1 1.5 0-.1.1-.1.2-.1s.2.1.2.2-.1.2-.2.2-.1 0-.2-.1c.2.6.2 1.3.2 2z" style="fill-rule:evenodd;clip-rule:evenodd;fill:url(#SVGID_4_)"/><pattern id="SVGID_5_" xlink:href="#Dark_Blue" patternTransform="matrix(.8899 0 0 .8884 -1062.3 -344.13)"/><path style="fill-rule:evenodd;clip-rule:evenodd;fill:url(#SVGID_5_)" d="M96.2-88.3h162.2v32.2H96.2z"/><pattern id="SVGID_6_" xlink:href="#White" patternTransform="translate(-1062.3 -334.512) scale(.8899)"/><path style="fill-rule:evenodd;clip-rule:evenodd;fill:url(#SVGID_6_)" d="M102.9-83.5h12.4V-62h-12.4z"/><pattern id="SVGID_7_" xlink:href="#White" patternTransform="translate(-1062.3 -334.512) scale(.8899)"/><path d="M116.8-83.4v8.2h4.7c5 .3 5.4 4.6-.1 5.1h-4.6v8.1c24.6 2 25.1-23.4 0-21.4z" style="fill-rule:evenodd;clip-rule:evenodd;fill:url(#SVGID_7_)"/><pattern id="SVGID_8_" xlink:href="#White" patternTransform="translate(-1062.3 -334.512) scale(.8899)"/><path d="M107-65.4c1.1 1.9 3.6 1.5 4.2-.1 1.9 0 3.1-.8 2.2-2.5 1.5-.8 1.1-1.6.4-2.3-.8-1 0-1.5.3-1.9v-9.5h-10.2v9.6c1.2.6 1.1 1.3.5 1.9-1 1.1-.7 1.8.4 2.2-.9 2.1.7 2.8 2.2 2.6z" style="fill-rule:evenodd;clip-rule:evenodd;fill:url(#SVGID_8_)"/><path class="st10" d="M109.4-68.5s0-.1 0 0c-.1-.1-.1-.1-.1 0h.1c-.1 0-.1 0 0 0zm0 0s-.1 0 0 0c-.1 0-.1 0 0 0-.1 0 0 0 0 0zM108.8-68.5c-.1 0-.1 0 0 0-.1 0 0-.1 0 0 .1-.1.1-.1.1 0h-.1zm0 0z"/><pattern id="SVGID_9_" xlink:href="#Red" patternTransform="translate(-966.012 -426.815) scale(.8899)"/><path d="m106.2-70.2.1.2h.1c.1 0 0 0 .1-.1v-.2s0-.1-.1-.1h-.1c0 .1-.1.1-.1.2zm2.5 1.7zm0 0zm0 0zm0 0zm.1 0h.1c0-.1-.1-.1-.1 0 0-.1-.1-.1 0 0-.1 0-.1 0 0 0zm-.1 0zm.8 0zm0 0zm0 0s-.1 0 0 0zm-.1 0zm0 0zm0 0c.1 0 .1 0 0 0 0-.1 0-.1 0 0l-.1-.1c0 .1 0 .1.1.1-.1 0 0 0 0 0zm.1 0zm-.4-.6h-.2.1c0 .1.1.1.1 0v.1h.1-.1c.1-.1 0-.1 0-.1zm-.4.6zm0 0c.1 0 .1 0 0 0h.2-.2c.1.1.1 0 0 0zm0 0c-.1 0-.1 0 0 0-.1 0-.1 0 0 0 0 0-.1 0 0 0H109h-.1c-.1-.1-.2-.1-.2 0 0-.1 0 0 0 0-.1 0-.1 0 0 0-.1 0-.1 0 0 0-.1 0 0 0 0 0zm.8 0zm-.1 0c.1 0 0 0 0 0 .1 0 .1 0 0 0 .1 0 .1 0 0 0 .1 0 .1 0 0 0 .1 0 .1 0 0 0 .1 0 .1 0 0 0 .1 0 .1 0 0 0 .1 0 .1 0 0 0 .1 0 .1 0 0 0 .1 0 .1 0 0 0 .1 0 .1 0 0 0h.1-.1c.1 0 .1-.1 0 0 0-.1 0-.1-.1-.1h-.1.1c0 .1.1.1.1.1h-.2.2c0 .1 0 0 0 0zm-1.6-.7c-.2-.4-.6-1-.7-1.4-.1-.1-.1-.1-.2.1-.4.4.1 1-.4 1.1.1.1.1.2.1.2.2-.1.3 0 .3.1.1 0 .2 0 .1.1l.2.2c0 .4-1.5.3-1.4 0 0-.1.1-.2.1-.2l-.1-.1.1-.1v-.1h.3c0-.1.1-.2.2-.2h-.1c-.1 0-.2-.1-.3-.2l-.1-.1c-.2-.7.5-.9.8-1.6.1-.2-.7-1.1-.8-1.3 0-.1-.3-.3-.2-.5.1-.2 0-.3.1-.4.3-.2.6 0 .7.3 0 .5.5 1.1.9 1.4-.1-.5-.3-1.3-.2-2.2 0-.1.3-1.2.3-1.4 0-.2.2-1.7.2-1.8 0 0 0-.4-.1-.3-.3 0-1.8-.2-1.4-.7.2-.3.5-.7.6-.8.1-.2-.6-.3-.4-.4.1-.1.5-.2.6-.3.1-.1-.1-.2.1-.3.2-.1 1.1-.1 1.1-.1s.3-.4.4-.5c.1-.1.5-.2.4-.7h.2s-.1.5.1.6c.2.1.2.6.5.6 1-.2 1.1.2 1 .3.4.1.9 0 .2.5-.1.1.9.8.9 1 0 .7-1.4.8-1.9.9-.3 3 .7 3.9.1 5.8 0-.1.2.2.3 0 .6-.9 2.3-1 2.5-.4 0 .2-.4.4-.6.4-.2 0-.5-.1-.7-.1-.3 0-.7.3-.6.5 0 .2.3.3.3.5.1 0 .4.3.5.6.2.5 0 .7-.3.9l.1.1c.2 0 .2 0 .2.1.1 0 .2 0 0 .1l.2.2c0 .3-1.3.2-1.2 0 0-.1.1-.1.1-.2l-.1-.1s.1 0 .1-.1v-.1h.2l.1-.1s0-.1-.2-.2-.1-.2-.1-.4c0-.1 0-.4-.3-.5l-.1-.1c-.1 0 0 .4-.2.5-.2.1-.4.6-.4.6l-.1.1c.2.1.4.3.5.4.3.3.5.7.5 1.2s-.2 1-.6 1.4c-.4.4-.9.6-1.5.6s-1.1-.2-1.5-.6c-.4-.4-.6-.8-.6-1.4 0-.5.2-.9.5-1.2.4 0 .6-.1.7-.2zm2.3.1c-.3.4-.1.5-.2.7 0 .1 0 .3-.1.4 0 .1 0 .1-.1.2-.2-.1-.3-.1-.5-.1.2 0 .3.1.5.1-.1-.1-.3-.1-.4-.1.1 0 .3.1.4.1-.1-.1-.3-.1-.4-.1.1 0 .3.1.4.1-.1-.1-.3-.1-.4-.1.2 0 .3 0 .5.1v.2c0 .1 0 .3-.1.4 0 0-.1 0-.1.1-.1-.1-.3-.1-.4-.1-.1 0-.2 0-.4.1l-.1-.1c-.1-.1-.2-.2-.1-.3v-.3c.2-.1.3-.1.5-.1-.1 0-.3.1-.5.1.1-.1.3-.1.4-.1-.1 0-.3.1-.4.1.1-.1.3-.1.4-.1-.1 0-.3.1-.4.1v-.1c.2-.1.3-.1.5-.1-.2 0-.3.1-.5.2 0-.1-.1-.2-.1-.3 0-.1-.2-.6-.2-.7 0-.1-.1-.2-.2-.3-.2.1-.3.2-.4.4-.3.3-.4.7-.4 1.1 0 .5.2.9.6 1.2.3.3.8.5 1.4.5.5 0 1-.2 1.4-.5.4-.3.6-.8.6-1.2 0-.4-.2-.8-.4-1.1-.5-.1-.6-.2-.8-.4zm-.9 1.1c.2 0 .4.1.6.2-.2-.2-.4-.2-.6-.2zm-.2 0c-.2 0-.4.1-.6.2.2-.1.4-.2.6-.2zm.1-.4zm0 .2s0-.1 0 0v-.1s-.1 0 0 .1c-.1-.1 0 0 0 0zm-.2-.2H108.6s.1.1.2.1c0-.1.1-.1.1-.1.1 0 .1 0 0 0zm.4-.9c.1-.6-.4-.7-.6-.5-.2.3.1.2.1.5v.1c.1-.1.2-.2.5-.1zm-.9-8.9s0 .1-.1.1.1.1.1.1l.1-.1s.1-.1 0-.1h-.1zm1.7.5c.2 0 .3 0 .3-.1h-.2c-.1 0-.1.1-.1.1zm-.4-.6c0 .1-.2.2-.2.3.1 0 .3-.4.2-.3zm0-.1c-.1-.1.1.3.2.2.1 0-.1-.1-.2-.2zm1 .2h.3c-.2-.1-.3 0-.4-.1 0 0 0 .1.1.1zm-2.9.3c-.1 0-.5-.1-.4 0 .1.2.2.1.4 0 .1.2 0 .1 0 0zm-1.1-.2c.1.2.5.2.6.2 0-.2-.4 0-.6-.2zm3.9.3c.2 0 .4 0 .5-.1.1-.1.4-.1.5-.2h-.3c-.1 0-.3 0-.3.1-.1 0 0 .1-.1.1s-.4.1-.3.1zm-2.1-2.1c0 .4.9.4 1 .1.2-.3-.2-.5-.4-.7-.1-.1-.6.2-.6.6zm1.1.2c.2-.1.5.3.9-.3-.3 0-.7 0-.9.3zm1.5.1c-.2 0-.5-.3-.8.1.2-.1.5.2.8-.1zm-2.8 0c-.2-.4-.7-.3-1-.2.6.5.8.1 1 .2zm2.7 1.3c-.1-.4-.5-1-.8-1 0 .1.3.6.3.7 0 .1.4.3.5.3zm-.6.1s-.2-1.2-.8-1.2c.1.3.2.7.2.8.2.2.4.3.6.4zm-1.3.3c.2-.1.4-.3.5-.6.1-.1.1-.4 0-.5-.2-.5-.6-.5-.9-.3-.3.1-.3.5-.2.9.2.3.6.5.6.5zm-1.4-.2s.6-.1.7-.3c.1-.1-.1-.6.1-.9-.6 0-.8 1.2-.8 1.2zm-.5-.1c.6.1.6-.7.9-1.1-.3-.2-.8.5-.8.7-.1.3-.1.4-.1.4zm4.5-.2c0-.1-.6-.8-.9-.8.1.2.2.9.9.8zm-5.1.2c.6.1.5-.6.6-.7-.1-.2-.7.5-.6.7zm5.1 6c-.1 0-.1.1 0 .2 0 .2.4.2.6.2.4 0 .7-.1.5-.1h-.4.5c.1 0 .1-.1 0-.1h-.5v-.1c.3 0 .7-.1.4-.1h-.4c1 0 .2-.1 0 0v-.1l.2-.1h-.4c-.3.1-.4.2-.5.2zm-5.4-.3c.1.1.2 0 .3 0 .2-.1.1-.4.1-.5 0-.4-.3-.6-.2-.4l.1.3h-.1l-.1-.4c0-.1-.1 0-.1 0l.1.4c0-.2-.2-.6-.2-.3l.1.3c-.2-.9-.1-.1 0 0l-.1-.1c-.1-.1-.1.2.1.4-.1.1 0 .2 0 .3zm.6.1c-.1.1-.4.3-.4.2v.1c.2-.1.4-.2.4-.3zm-.1-.2c-.1.1-.4.2-.4.2v.1c.2-.1.3-.2.4-.3zm4.6.9c-.1-.1-.2-.4-.2-.4h-.1c0 .2.1.3.3.4zm.2-.1s0-.1 0 0c-.1-.1-.2-.4-.1-.4h-.1c0 .1.1.3.2.4zm-1 .9c.1-.3.6-.7.6-.8 0-.1-.1-.2-.2-.3-.1 0-.5.4-.6.5 0 .2.1.4.2.6zm-1.6-3.8c-.1-1.1.3-1.7.5-2.6-.6 1-.7 1.8-.5 2.6zm-.3-.6c-.1-.9.3-1.3.5-2-.6.8-.8 1.4-.5 2zm-.4-.3c-.1-.8.3-1.2.5-1.7-.6.6-.7 1.2-.5 1.7zm-1.1 4.8s.2-.2.5-.1v-.1c-.2-.1-.4 0-.5.2zm.1-.4c.6-.1-.2-.8-.3-.9-.2-.1-.4.1-.2.2.1.1.2.4.2.4.1.1.2.3.3.3zm2.7 1.5c.2.1.4-.3.5-.4-.2.1-.2.4-.5.4zm-.3.3c.2 0 .2-.1.2-.1s-.2-.1-.1-.2c0-.2 0-.1-.1-.1 0 0-.1.3-.2.1-.1.1 0 .2 0 .3.1-.1.1 0 .2 0zm-3.3-1.2s-.1 0 0 0 .5.1.4.2v-.1c-.1-.1-.3-.2-.4-.1zm4.8.4c.1 0 .1 0 0 0 .1-.1.4-.3.4-.2v-.1c-.2 0-.3.1-.4.3zm-.1-.2c.1-.1.4-.3.4-.2v-.1c-.2.1-.3.2-.4.3zm-.2-.3c.1.1.4.3.4 0 0-.1 0-.2-.1-.3-.1-.1-.2-.1-.2-.1s-.3.2-.1.4zm-4.3-.1s.2.2.3.1c0-.1.2-.2.3-.4 0-.1 0-.2-.1-.3h-.1c-.2.3-.3.6-.4.6zm.7.2s.2-.2.5-.1v-.1c-.2 0-.5.1-.5.2zm.8 1c.3.1.1-.3.2-.5 0 0-.6-.2-.5-.5 0-.1-.6-.1-.4.2.1.3.3.7.7.8zm-.1-2.1c-.1 0 0 .9 0 .9-.1.4.6.7 1.2 1 .1-.3-.8-.5-1.1-1 0 0-.1-.4 0-.6 0-.1.3.1.3 0s-.4-.3-.4-.3zm2.5 1.4c.1.2.3 0 .1-.2-.2-.2-1-2.1-1.3-3-.3-.8-1.2-1.6-1.3-1.7-.1 0-.1.1.1.3.1.1.6.4.8 1.1.5 1.7 1.5 3.3 1.6 3.5zm-1 2.7s-.1.2 0 .4v-.4zm-.9 0s-.1.2 0 .4c.1-.2.1-.3 0-.4zm3.2-1.9s-.1-.2-.2-.2c.1.1.2.1.2.2zm.1-.1s-.1-.2-.2-.2l.2.2zm0-.1s-.1-.2-.2-.2l.2.2zm.1-.1s-.1-.2-.2-.2c.1.1.1.2.2.2zm-.5.4s.3.1.3 0H111.5zm-.1-.1h.2c.1-.1 0-.1-.1-.1v-.3c0-.1.1 0 .1-.1.2-.3-.3-.3-.3-.2.1.1.1.7.1.7zm-.3.8c.1 0 .1-.1.1-.1 0-.1-.1.1-.1.1zm1.1 0s-.1-.2-.2-.2c0 0 .1.2.2.2zm-1 0c.1 0 .1-.2.2-.2 0-.1-.1.1-.2.2zm.2 0s.1 0 .1-.1v-.2c-.1.1-.1.3-.1.3zm.2.1.1-.1v-.1c0-.1-.1-.1-.2-.1s-.1.1 0 .2c.1 0 .2.1.1.1zm.3-.1s-.1-.3-.2-.3v.2c.1.1.2.1.2.1zm.1 0c0-.1-.1-.2-.2-.2 0 0 .1.1.1.2 0-.1.1 0 .1 0zm-.5-.3c0-.1-.1-.1-.2 0 .1.1.1 0 .2 0zm.6 0s-.1-.1-.2 0c0 0 .1.1.2 0zm-.3 0s.1.1.2-.1c-.1 0-.2 0-.2.1zm-.3-.1c0 .1.2.1.2 0s0-.1-.1-.1l-.1.1zm.5.5h.1s.1 0 .1-.1h-.1l-.1.1c0-.1.1-.1 0 0zm-.9-.1s.1.1.1 0c.1 0 0 .1-.1 0zm.3.1c-.1 0-.1 0 0 0-.1 0-.1 0 0 0zm.6-.1s.1 0 0 0zm-.2 0zm0 0s-.1 0 0 0c0 .1 0 0 0 0zm-.3 0zm-.1.1s.2.1.2 0h-.2zm.5 0h-.2c0 .1.2 0 .2 0zm-5.6-1.4c0 .1-.1.2-.2.2.1-.1.1-.2.2-.2zm.1.1-.2.2c.1 0 .1-.2.2-.2zm0 .1-.2.2c.1 0 .2-.2.2-.2zm.1 0-.2.2c.1 0 .2-.1.2-.2zm-.2-.7c.2 0 .3 0 .5.1v.1c-.1 0-.4-.2-.5-.2zm-.4 1.7c.2 0 .1-.1.2-.2-.1 0-.2.2-.2.2zm1.2 0s-.1-.2-.2-.2c0 0 .1.2.2.2zm-1.1 0c.2 0 .1-.2.2-.3-.1 0-.2.2-.2.3zm.1.1s.1 0 .2-.1v-.2c-.1 0-.2.3-.2.3zm.4 0c.1 0 .1-.1.1-.1v-.1c0-.1-.1-.1-.2-.1s-.1.1 0 .2c0 .1.1.1.1.1zm.3 0s-.1-.3-.2-.3v.2c.1 0 .2 0 .2.1zm.2-.1c0-.1-.1-.3-.2-.2 0 0 .1.1.1.2h.1zm-.7-.3c-.1-.1-.2-.1-.2 0 .1.1.1 0 .2 0zm.7 0s-.1-.1-.2 0c0 0 .1.1.2 0zm-.4 0s.1.1.2-.1c0 0-.1 0-.2.1zm-.3-.1c0 .1.2.1.2 0s-.1-.1-.1-.2c.1.1-.1.1-.1.2zm.6.5h.1s.1 0 .1-.1h-.2c0 .1.1.1 0 .1 0 0-.1 0 0 0zm-1 0s.1.1.2.1c-.1-.1-.2-.1-.2-.1zm.3 0c-.1 0-.2 0 0 0-.1.1-.1 0 0 0 0 .1 0 0 0 0zm.7 0s.1 0 0 0c0-.1 0-.1 0 0 0-.1 0-.1 0 0zm-.3-.1s.1.1 0 0c.1 0 .1 0 0 0zm0 0c0 .1 0 .1 0 0 0 .1.1 0 0 0zm-.3 0s0 .1 0 0c0 .1 0 .1 0 0 0 .1.1.1 0 0zm-.1.2s.3.1.3 0c-.1 0-.2-.1-.3 0zm.6 0h-.3.3zm2.6 1.7c-.1-.1-.2-.1-.3-.1-.1 0-.2 0-.3.1.2.2.3.5.3.5 0-.1.1-.3.3-.5zm-.1-.7s-.1.2 0 .4v-.4zm-.2 0s-.1.2 0 .4v-.4zm-.3 0s-.1.2 0 .4c.1-.2.1-.3 0-.4zm.4-.8H109.5s-.1.1-.2.1c0-.1-.1-.1-.1-.1zm.2.3c.1.1.2-.1.2-.3 0-.1-.1-.2 0-.3l.1.1h.1v-.2c0-.1 0-.2-.1-.2 0 0-.1.1-.1 0 0-.3-.2-.4-.4-.4-.3-.1-.5.1-.5.1-.1 0-.2.2-.2.3 0 .1 0 .2-.1.1s-.1.2-.1.2h.1v-.1c.1-.1.1.1.1.3 0 .1.2.4.2.3.2 0 .6 0 .7.1zm-.3-.8s-.1 0 0 0c-.1 0-.1.1-.1.1s0-.1.1-.1zm0 0c.1 0 .1.1.1.1 0-.1 0-.1-.1-.1z" style="fill-rule:evenodd;clip-rule:evenodd;fill:url(#SVGID_9_)"/><pattern id="SVGID_10_" xlink:href="#Dark_Blue" patternTransform="translate(-966.011 -426.815) scale(.8899)"/><path d="M-3.9-76.6v-.2c-.2 0-.4-.2-.6-.4l-.6-1.2-2.2-5.2h-.2l-2.2 5.4c-.3.6-.4 1-.5 1.1-.1.1-.3.2-.5.2v.2h3v-.2h-.1c-.3 0-.5 0-.6-.1-.1 0-.1-.1-.1-.2v-.2c0-.1.1-.3.3-.7l1.3-3.4 1.2 3c.1.4.2.6.3.7 0 .1.1.2.1.3 0 .1 0 .2-.1.3 0 .1-.1.1-.2.2s-.3.1-.5.1v.2h2.2v.1zM0-83.2v-.2h-3.3v.2h.2c.2 0 .3 0 .4.1.1 0 .1.1.2.2 0 .1.1.3.1.6v4.4c0 .3 0 .6-.1.6 0 .1-.1.2-.2.2-.1.1-.2.1-.4.1h-.2v.2H0v-.2h-.2c-.2 0-.3 0-.4-.1-.1 0-.1-.1-.2-.2 0-.1-.1-.3-.1-.6v-4.4c0-.3 0-.6.1-.6 0-.1.1-.2.2-.2.1-.1.2-.1.4-.1H0zm1.9 6.4v.2h3.4v-.2H5c-.2 0-.3 0-.4-.1-.1 0-.1-.1-.2-.2 0-.1-.1-.3-.1-.6V-81c0-.6-.1-1.1-.2-1.4-.1-.4-.3-.6-.6-.8-.3-.2-.7-.3-1.1-.3-.5 0-1 .1-1.3.4-.3.3-.5.6-.5 1 0 .2.1.4.2.6.1.1.3.2.5.2s.3-.1.5-.2c.1-.1.2-.3.2-.5v-.2s-.1-.1-.1-.3c-.1-.1-.1-.2-.1-.3 0-.1 0-.2.1-.2.1-.1.3-.1.5-.1.1 0 .2 0 .3.1.1.1.1.2.2.3 0 .2.1.6.1 1.3v3.6c0 .3 0 .6-.1.6 0 .1-.1.2-.2.2-.1.1-.2.1-.4.1h-.4v.1zm7.6-4.6H7.3l-.3-.7c-.1-.2-.1-.4-.1-.5 0-.2.1-.3.2-.4.1-.1.3-.1.6-.1v-.2H5.6v.2c.2 0 .4.1.6.3.1.2.3.5.5 1L9-76.5h.1l2.3-5.5c.2-.5.4-.9.5-1 .1-.1.3-.2.4-.2v-.2h-3v.2h.1c.2 0 .4 0 .5.1.1.1.1.2.1.3v.2s-.1.2-.1.4l-.4.8zm-.1.3-.9 2.3-1-2.3h1.9zm9.2 4.5h-1.9v-.2c.3 0 .5-.1.6-.1.1-.1.1-.1.1-.2 0-.2-.1-.5-.4-1l-1.1-2-1.2 2.1c-.2.5-.4.8-.4.9 0 .1 0 .1.1.2s.2.1.4.1h.2v.2h-3v-.2c.2 0 .4-.1.5-.2.1-.1.3-.4.6-1l1.5-2.9v-1.4c0-.3 0-.5-.1-.6 0-.1-.1-.2-.2-.2-.1-.1-.3-.1-.4-.1h-.3v-.2h3.5v.2h-.4c-.2 0-.3 0-.4.1-.1.1-.2.1-.2.2s-.1.3-.1.6v1.6l1.4 2.4c.3.6.6 1 .7 1.1.1.1.3.2.5.2v.4zm3.5-4.8h-2.2l-.3-.7c-.1-.2-.1-.4-.1-.5 0-.2.1-.3.2-.4.1-.1.3-.1.6-.1v-.2h-2.1v.2c.2 0 .4.1.6.3.1.2.3.5.5 1l2.3 5.4h.1l2.3-5.5c.2-.5.4-.9.5-1 .1-.1.3-.2.4-.2v-.2h-3.1v.2h.2c.2 0 .4 0 .5.1.1.1.1.1.1.2v.2s-.1.2-.1.4l-.4.8zm-.2.3-.9 2.3-1-2.3h1.9z" style="fill-rule:evenodd;clip-rule:evenodd;fill:url(#SVGID_10_)"/><pattern id="SVGID_11_" xlink:href="#Dark_Blue" patternTransform="translate(-966.011 -426.815) scale(.8899)"/><path d="M-8.8-70.5v5h7.5v-1.2c-.6.5-1.5.7-2.4.7-1.6 0-2.9-.5-2.9-1.2 0-.8 1.8-2.1 2.9-2.1.8 0 1.6.1 2.4.4v-.7l1.8-1v5h8.8v-.9h-5c1.2-.6 1.9-1.3 2-1.8 0-.3-.4-.5-.8-.5-.7 0-1.7.9-2.6 2.3l-.6-.2c.8-1.8 2.3-3.1 3.7-3.1 1 0 1.8.5 1.8 1.1 0 .4-.4.9-1 1.2h2.4v-2.2l1.8-1v5h3c.3-.3.4-.5.4-.7 0-.5-.7-.9-1.6-1 .3-1.2 1.6-2.1 3.1-2.1.8 0 1.6.2 2.4.5v-.7l1.8-1v5H23v-4l1.8-1v5h1.9v1.1H-8.7c-.5.3-.7.7-.7 1 0 .6 1.1 1 2.5 1 2 0 3.9-.7 5.2-1.8l.6.2c-1.6 1.4-4 2.3-6.4 2.3-2 0-3.6-.8-3.6-1.7 0-.5.3-.9.7-1.1h-1.8v-1.1h1.7v-4l1.7-.7zm24.2 2c-.6 0-1 .2-1.2.4 1 .2 1.7.8 1.7 1.5 0 .4-.2.8-.5 1.1h2.9v-1.3c-.6-1-1.8-1.7-2.9-1.7zm-19.7.2c-.5 0-1 .2-1 .5 0 .5.8.9 1.9.9.7 0 1.4-.1 2.1-.4-1-.6-2.1-1-3-1z" style="fill-rule:evenodd;clip-rule:evenodd;fill:url(#SVGID_11_)"/><pattern id="SVGID_12_" xlink:href="#White" patternTransform="translate(-1062.3 -334.512) scale(.8899)"/><path style="fill-rule:evenodd;clip-rule:evenodd;fill:url(#SVGID_12_)" d="M161.6-73.4h50.5v.9h-50.5z"/><pattern id="SVGID_13_" xlink:href="#White" patternTransform="translate(-966.012 -426.815) scale(.8899)"/><path d="M202.3-63.9 183-64l-4.6 2.8c-.8.4-2.2.3-3.4-.2l1.1-1.8c.8.4 1.8.6 2.9.3.8-.3 1.7-.7 2.2-1.2h-6.8v-1h6.4v-.7h-5.5c-2.6.1-3.5-3.5-.2-3.7 1.7-.2 3.8.1 5.7.6v-.8h-1v-.8h5.1v.8h-1v2.2h-3.1c-.4-.5-.8-.8-1.4-.9l-1.7-.1c-.7.1-1.4.4-1.3 1.1.1.3.6.5 1.2.5h6.2v1.7h8.1v-1h-5.6c-1.2-.4-2.1-1.3-.4-2.3 1.2-.8 2.8-1 2.9-.3.2.4.2 1 .1 1.3h2.9v-2.2h-1.3v-.7h5.4v.8h-1.1v4.6h2.8v-4.6h-1.1v-.8h5.3v.8h-1.2v4.6h1.7v1.1z" style="fill-rule:evenodd;clip-rule:evenodd;fill:url(#SVGID_13_)"/><pattern id="SVGID_14_" xlink:href="#White" patternTransform="translate(-966.012 -426.815) scale(.8899)"/><path d="M171.9-83.5v1.5h.8v4.4h-.8v1.5h3.6c.5 0 1 0 1.4-.1.4-.1.7-.1.9-.3.7-.3 1.2-.8 1.5-1.3.3-.5.5-1.2.5-2s-.2-1.4-.5-2c-.3-.5-.8-1-1.5-1.3-.2-.1-.5-.2-.9-.3-.4-.1-.8-.1-1.4-.1h-3.6zm2.8 5.9V-82h.6c.8 0 1.4.2 1.8.6.4.4.6.9.6 1.6 0 .7-.2 1.3-.6 1.6-.4.4-1 .6-1.8.6h-.6zm5.5-5.9v1.5h.8v4.4h-.8v1.5h6.8v-2.6h-1.3l-.5 1.2h-2.3v-1.2h1.5v-1.6h-1.5v-1.6h2.3l.5 1.4h1.3v-2.9h-6.8v-.1zm7.2 0v1.5h.8v4.4h-.8v1.5h2.7l2.5-4-.1 2.6h-.8v1.5h3.5v-1.5h-.8v-5.9h-1.6L190-79v-3h.8v-1.5h-3.4zm7.9 0v1.5h.6l1.4 4.4h-.7v1.5h5.3v-1.5h-.7l1.4-4.4h.7v-1.5H200v1.5h.7l-.3 1h-2.1l-.3-1h.7v-1.5h-3.4zm3.2 3.7h1.5l-.7 2.3-.8-2.3z" style="fill-rule:evenodd;clip-rule:evenodd;fill:url(#SVGID_14_)"/></symbol><pattern y="-641" width="279.3" height="241.4" patternUnits="userSpaceOnUse" id="Dark_Blue" viewBox="0 -241.4 279.3 241.4" style="overflow:visible"><path class="st17" d="M0-241.4h279.3V0H0z"/><path style="fill:#20286d" d="M0-241.4h279.3V0H0z"/></pattern><pattern y="-641" width="279.3" height="241.4" patternUnits="userSpaceOnUse" id="Red" viewBox="0 -241.4 279.3 241.4" style="overflow:visible"><path class="st17" d="M0-241.4h279.3V0H0z"/><path style="fill:#e20613" d="M0-241.4h279.3V0H0z"/></pattern><pattern y="-641" width="279.3" height="241.4" patternUnits="userSpaceOnUse" id="White" viewBox="0 -241.4 279.3 241.4" style="overflow:visible"><path class="st17" d="M0-241.4h279.3V0H0z"/><path class="st3" d="M0-241.4h279.3V0H0z"/></pattern><pattern y="-641" width="279.3" height="241.4" patternUnits="userSpaceOnUse" id="Yellow" viewBox="0 -241.4 279.3 241.4" style="overflow:visible"><path class="st17" d="M0-241.4h279.3V0H0z"/><path style="fill:#ffec00" d="M0-241.4h279.3V0H0z"/></pattern><use xlink:href="#Bank_of_Baroda_-_composite_logo__x28_reverse_x29_" width="532.1" height="176.9" x="-266.1" y="-88.5" transform="matrix(3.6088 0 0 -3.6088 959.857 319.632)" style="overflow:visible"/></svg>
