<svg xmlns="http://www.w3.org/2000/svg" width="488.412" height="148.533" viewBox="0 0 366.309 111.4" xmlns:v="https://vecta.io/nano"><path d="M103.254 97.697l-.023-1.547-.09-1.051a3.99 3.99 0 0 0-.145-.707 2.39 2.39 0 0 0-.23-.523c-.148-.426-.418-.801-.816-1.125s-.91-.488-1.527-.488c-.602 0-1.102.156-1.5.477s-.687.688-.867 1.109c-.102.16-.176.344-.234.535a5.77 5.77 0 0 0-.145.711 8.61 8.61 0 0 0-.074 1.039l-.012 1.57.023 1.543.074 1.039a4.13 4.13 0 0 0 .133.703 2.81 2.81 0 0 0 .234.551c.145.422.422.797.828 1.125s.922.484 1.539.484 1.121-.164 1.512-.5.676-.687.855-1.062l.223-.547a3.44 3.44 0 0 0 .145-.707l.074-1.051.023-1.578m3.59 0l-.039 2.43a12.04 12.04 0 0 1-.133 1.504c-.066.391-.145.711-.246.953-.094.242-.219.496-.363.758a5.8 5.8 0 0 1-.82 1.109c-.348.387-.762.727-1.242 1.039-.48.305-1.02.559-1.613.758s-1.25.289-1.965.289c-.703 0-1.355-.094-1.969-.289a6.96 6.96 0 0 1-1.633-.758 6.31 6.31 0 0 1-1.246-1.039 5.75 5.75 0 0 1-.816-1.109c-.148-.262-.27-.516-.367-.758a4.15 4.15 0 0 1-.23-.953c-.059-.391-.105-.891-.137-1.504l-.051-2.43.051-2.43.137-1.496c.055-.395.133-.707.23-.941a6.55 6.55 0 0 1 .367-.746 5.46 5.46 0 0 1 .816-1.137c.351-.383.766-.723 1.246-1.023s1.023-.551 1.633-.746a6.43 6.43 0 0 1 1.969-.293c.715 0 1.371.098 1.965.293a7.33 7.33 0 0 1 1.613.746c.48.301.891.641 1.234 1.023s.617.766.828 1.137c.145.262.27.508.363.746.102.234.176.547.234.941a17.06 17.06 0 0 1 .133 1.496l.051 2.43m9.277 8.695v-7.391c0-.574-.172-1.031-.512-1.375s-.766-.512-1.27-.512-.93.172-1.27.512-.516.801-.516 1.375v7.391h-3.465V94.014h3.465v1.406c0-.019.008-.019.027 0 .324-.473.77-.844 1.328-1.133.563-.277 1.137-.422 1.723-.422.57 0 1.094.105 1.574.32a4.03 4.03 0 0 1 1.258.855 3.68 3.68 0 0 1 .832 1.266 4.18 4.18 0 0 1 .289 1.566v8.52zm9.645 0a5 5 0 0 1-1.355-.184 3.01 3.01 0 0 1-1.133-.586c-.324-.266-.586-.613-.785-1.027-.191-.414-.289-.914-.289-1.5v-14.09h3.465v13.602c0 .457.234.684.707.684h1.004v3.102zm3.222-12.378h3.469v12.379h-3.469zm0-5.008h3.469v2.957h-3.469zm13.188 17.386v-7.391c0-.574-.172-1.031-.516-1.375s-.762-.512-1.27-.512-.93.172-1.27.512-.512.801-.512 1.375v7.391h-3.469V94.014h3.469v1.406c0-.019.008-.019.023 0 .328-.473.77-.844 1.332-1.133.563-.277 1.137-.422 1.723-.422.57 0 1.094.105 1.574.32a4.17 4.17 0 0 1 1.258.855c.36.359.633.777.828 1.266s.293 1.012.293 1.566v8.52zm12.414-9.132c-.332-.437-.828-.656-1.477-.656-.637 0-1.121.223-1.453.668s-.508 1.023-.523 1.723h3.977c-.016-.719-.191-1.297-.523-1.734m-3.383 3.734c0 .508.074.93.219 1.27s.328.617.539.82a1.75 1.75 0 0 0 .695.43 2.3 2.3 0 0 0 .672.117 4.06 4.06 0 0 0 1.391-.242c.453-.164.895-.48 1.32-.949l2.27 1.902c-.129.23-.348.473-.66.734a6.6 6.6 0 0 1-1.059.719 6.69 6.69 0 0 1-1.273.535 4.23 4.23 0 0 1-1.281.211 10.42 10.42 0 0 1-2.391-.27 5.15 5.15 0 0 1-2.039-.977c-.594-.473-1.07-1.117-1.43-1.93s-.535-1.855-.535-3.129c0-1.074.141-1.988.426-2.742.285-.762.629-1.391 1.039-1.895.504-.617 1.105-1.062 1.805-1.328s1.383-.402 2.051-.402c.688 0 1.355.121 2.016.363a5.67 5.67 0 0 1 1.77 1.051 5.2 5.2 0 0 1 1.258 1.648c.316.645.477 1.363.477 2.16v1.902zm23.878-6.521c0-.504-.074-.895-.23-1.168a1.88 1.88 0 0 0-.598-.66c-.246-.164-.469-.27-.672-.32s-.469-.07-.793-.07h-3.078v4.441h3.148c.781 0 1.352-.219 1.699-.656s.523-.961.523-1.566m3.59.074c0 .621-.121 1.246-.363 1.879a5.26 5.26 0 0 1-1.102 1.738c-.493.523-1.086.945-1.793 1.277s-1.527.504-2.453.504h-3.25v6.445h-3.609V89.006h6.539a8.87 8.87 0 0 1 2.027.234c.668.156 1.344.492 2.027 1.012.57.438 1.043 1.031 1.414 1.77s.563 1.586.563 2.527m7.864 6.84h-2.148c-.52 0-.937.086-1.258.266s-.477.484-.477.906.168.73.5.914.785.281 1.355.281l.953-.047c.262-.035.469-.117.621-.246s.27-.324.344-.574.109-.598.109-1.039zm0 5.004v-1.074l-.023.023c-.23.438-.594.75-1.098.93a4.86 4.86 0 0 1-1.637.27c-.637 0-1.215-.09-1.746-.27a4.02 4.02 0 0 1-1.367-.77c-.383-.333-.68-.734-.891-1.195s-.32-.98-.32-1.551a3.78 3.78 0 0 1 .281-1.453c.188-.449.465-.844.832-1.187s.82-.609 1.367-.805 1.176-.293 1.891-.293h2.711v-1c0-.422-.133-.758-.402-1s-.777-.367-1.523-.367c-.652 0-1.137.078-1.457.23s-.613.43-.891.816l-2.344-1.754c.602-.816 1.293-1.363 2.078-1.648.777-.285 1.633-.426 2.563-.426.766 0 1.477.074 2.137.23s1.234.398 1.723.73a3.57 3.57 0 0 1 1.16 1.309c.285.539.426 1.188.426 1.953v8.301zm11.207 2.39c-.18.488-.406.902-.68 1.234-.281.332-.586.602-.918.809-.332.199-.691.348-1.074.438a5.06 5.06 0 0 1-1.16.137h-1.344v-3.102h1a1.63 1.63 0 0 0 .672-.148c.219-.098.395-.328.527-.684l.559-1.707-4.395-11.746h3.664l2.367 7.277h.027l2.367-7.277h3.664zm21.277-2.391v-7.391c0-.574-.172-1.031-.512-1.375s-.766-.512-1.27-.512c-.523 0-.949.172-1.281.512s-.504.801-.504 1.375v7.391h-3.465v-7.391c0-.574-.172-1.031-.512-1.375a1.74 1.74 0 0 0-1.27-.512c-.523 0-.949.172-1.285.512s-.5.801-.5 1.375v7.391h-3.465V94.014h3.465v1.406c0-.019.012-.019.031 0 .277-.473.668-.844 1.172-1.133a3.31 3.31 0 0 1 1.617-.422c.422 0 .793.047 1.109.137s.598.215.832.379.445.336.621.523l.516.574c.98-1.074 2.211-1.613 3.691-1.613a4.5 4.5 0 0 1 1.688.32 4.3 4.3 0 0 1 1.43.914 4.36 4.36 0 0 1 .992 1.453c.246.57.367 1.211.367 1.93v7.91zm12.539-9.132c-.336-.437-.828-.656-1.48-.656-.633 0-1.117.223-1.449.668s-.508 1.023-.527 1.723h3.98c-.016-.719-.191-1.297-.523-1.734m-3.383 3.734c0 .508.074.93.219 1.27s.328.617.539.82.445.348.695.43.477.117.672.117a4.07 4.07 0 0 0 1.391-.242c.457-.16.898-.48 1.32-.949l2.27 1.902c-.129.23-.352.473-.66.734a6.78 6.78 0 0 1-1.059.719 6.85 6.85 0 0 1-1.27.535c-.446.137-.875.211-1.285.211-.832 0-1.625-.09-2.391-.27a5.19 5.19 0 0 1-2.043-.977c-.59-.473-1.066-1.117-1.426-1.93s-.539-1.855-.539-3.129c0-1.074.145-1.988.43-2.742.285-.762.629-1.391 1.039-1.895.504-.617 1.105-1.062 1.805-1.328s1.387-.402 2.051-.402a5.81 5.81 0 0 1 2.016.363c.66.242 1.246.598 1.77 1.051a5.26 5.26 0 0 1 1.258 1.648c.316.645.477 1.363.477 2.16v1.902zm16.336 5.397v-7.391c0-.574-.172-1.031-.516-1.375a1.72 1.72 0 0 0-1.266-.512c-.508 0-.93.172-1.27.512s-.516.801-.516 1.375v7.391h-3.465V94.014h3.465v1.406c0-.019.008-.019.023 0 .328-.473.77-.844 1.332-1.133.563-.277 1.137-.422 1.723-.422.57 0 1.094.105 1.574.32a4.17 4.17 0 0 1 1.258.855c.36.359.633.777.832 1.266a4.26 4.26 0 0 1 .289 1.566v8.52zm9.597 0a3.68 3.68 0 0 1-1.309-.234 3.19 3.19 0 0 1-1.086-.668c-.309-.289-.551-.645-.73-1.051s-.27-.863-.27-1.367v-6.375h-1.172v-2.684h1.172v-3.762h3.465v3.762h1.711v2.684h-1.711v5.863c0 .273.059.469.172.57.113.109.285.16.512.16h1.027v3.102zm14.492-3.859c0 .617-.148 1.176-.437 1.66a4.1 4.1 0 0 1-1.176 1.246c-.488.34-1.062.605-1.719.793a7.57 7.57 0 0 1-2.09.281 10.13 10.13 0 0 1-1.5-.109 6.87 6.87 0 0 1-1.477-.391 7.22 7.22 0 0 1-1.453-.758c-.476-.321-.969-.727-1.453-1.23l2.004-1.93c.633.73 1.289 1.211 1.965 1.441a6.28 6.28 0 0 0 2.035.34c.523 0 .957-.102 1.309-.305s.523-.508.523-.914c0-.328-.121-.566-.355-.723s-.547-.258-.937-.305l-1.734-.195c-.555-.066-1.066-.184-1.539-.355s-.883-.406-1.23-.707-.625-.66-.82-1.086-.293-.91-.293-1.465c0-.637.133-1.199.402-1.684a3.92 3.92 0 0 1 1.074-1.246 4.66 4.66 0 0 1 1.566-.77c.597-.172 1.223-.254 1.891-.254 1.105 0 2.074.164 2.906.5s1.637.816 2.414 1.449l-1.684 1.879c-.586-.469-1.172-.793-1.758-.965s-1.121-.254-1.609-.254c-.539 0-.965.09-1.273.27s-.461.465-.461.855c0 .242.102.461.305.656s.535.32.988.371l1.684.168c.766.078 1.402.238 1.906.477s.906.52 1.207.852.516.711.637 1.125a4.56 4.56 0 0 1 .184 1.281" fill="#575759"/><path d="M366.308 32.685l-18.801 28.238c-2.508 3.766-5.582 6.656-9.867 8.875-6.516 3.391-13.738 3.348-13.738 3.348l4.41-7.113s3.02-.73 6.824-3.402c4.098-2.883 4.418-5.281 4.418-5.281l-3.004-1.512.117-23.242s6.996.516 7.605 5.836l1.219 10.652 12.219-14.543c2.398-2.852 8.598-1.855 8.598-1.855M320.777 51.51l1.047-2.953s-3.707-.312-7.102 1.949-1.645 5.559 2.57 4.629c2.16-.469 2.859-2.051 3.484-3.625m4.129-18.91c10.754.352 8.945 5.465 8.945 5.465l-8.691 23.523h-7.453l.207-2.652s-3.602 2.652-9.461 2.652-7.715-3.062-5.859-8.199c4.047-11.262 20.879-9.492 20.879-9.492a16.56 16.56 0 0 0 .488-2.078 7.94 7.94 0 0 0 .117-1.082c.008-.262-.019-.457-.086-.637s-.184-.344-.355-.512a2.84 2.84 0 0 0-.687-.484 4.94 4.94 0 0 0-.926-.355 6.86 6.86 0 0 0-.891-.176 7.48 7.48 0 0 0-.859-.062c-.343-.007-.789-.008-1.527.051a36.23 36.23 0 0 0-2.965.379c-1.199.199-2.574.484-4.039.871l-.309-4.73s3.703-2.48 13.473-2.48m-32.023 13.603c3.66-10.715-4.836-6.527-4.836-6.527l-4.832 14.105s6.375 2.047 9.668-7.578m1.047-13.586c7.703 0 11.805 4.328 8.879 12.805-6.18 17.922-21.824 16.238-21.824 16.238l-2.48 6.875c-1.75 4.859-12.145 4.57-12.145 4.57l14.113-38.398s5.75-2.09 13.457-2.09m-23.012.012c3.863 0 5.113 1.848 3.754 5.547l-7.781 21.172c-.48 1.301-1.719 2.168-3.109 2.168h-6.965l7.078-19.246a1.66 1.66 0 0 0-.988-2.125 1.64 1.64 0 0 0-.57-.102h-.305c-2.082 0-3.945 1.301-4.66 3.254L251.47 59.35c-.48 1.301-1.719 2.168-3.109 2.168h-6.965l7.074-19.246a1.66 1.66 0 0 0-.98-2.125c-.184-.066-.379-.102-.574-.102h-.551a4.97 4.97 0 0 0-4.66 3.254l-5.902 16.051a3.31 3.31 0 0 1-3.105 2.168h-6.965l10.617-28.887h9.277l.031.012-.953 2.586a18.15 18.15 0 0 1 9.98-2.598c3.047 0 4.656.867 4.824 2.598a22.98 22.98 0 0 1 11.41-2.598m-45.064 0c3.863 0 5.113 1.848 3.754 5.547l-7.781 21.172c-.48 1.301-1.719 2.168-3.109 2.168h-6.965l7.074-19.246a1.66 1.66 0 0 0-.98-2.125c-.184-.066-.379-.102-.574-.102h-.305a4.97 4.97 0 0 0-4.664 3.254l-5.898 16.051a3.32 3.32 0 0 1-3.109 2.168h-6.965l7.074-19.246a1.66 1.66 0 0 0-.98-2.125c-.184-.066-.379-.102-.574-.102h-.551a4.97 4.97 0 0 0-4.66 3.254L190.74 59.35a3.31 3.31 0 0 1-3.105 2.168h-6.965l10.617-28.887h9.273l.035.012-.953 2.586c3.004-1.812 6.469-2.715 9.977-2.598 3.051 0 4.66.867 4.828 2.598a22.99 22.99 0 0 1 11.41-2.598m-56.759 20.89c2.652-3.105 4.93-9.309 4.559-12.41s-3.395-3.102-6.047 0-4.934 9.305-4.562 12.41c.371 3.098 3.398 3.098 6.051 0m5.379-20.941c6.688 0 11.289 5.098 7.664 14.348s-9.887 14.602-19.078 14.602c-9.184 0-11.422-4.547-7.379-15.551 4.035-10.98 12.117-13.398 18.793-13.398m-15.646 2.136l-4.473 4.777s-3.402-2.344-6.75.012c-1.687 1.184-3.145 4.242-4.598 8.043-4.27 11.191 6.723 5.664 6.723 5.664l1.379 5.969s-4.516 2.383-11.375 2.383c-6.867 0-8.953-5.07-5.516-15.66 3.309-10.23 11.328-13.277 17.301-13.277 5.965 0 7.309 2.09 7.309 2.09m-34.703 9.112s1.758-5.418-2.031-5.418-5.281 5.418-5.281 5.418zm.945-11.242c8.395 0 7.586 6.91 7.047 9.75-.547 2.84-1.902 6.504-1.902 6.504h-15.707s-1.754 5.688 2.168 6.633c3.93.949 8.938-2.168 8.938-2.168l.543 5.555s-2.977 2.707-10.832 2.707-10.973-4.742-7.59-14.625c3.391-9.887 8.941-14.355 17.336-14.355m-34.591-4.376c1.672 1.164 2.086 3.465.922 5.137L68.203 66.728c-2.211 3.172-5.832 5.066-9.699 5.066H0l27.309-39.277 6.305 9.051L19.79 61.451h36.926c.484 0 .938-.234 1.211-.633l23.129-33.266h7.324a3.69 3.69 0 0 1 2.105.66M89.183.631c.098.223.059.523-.004.805-.25 1.117-.863 1.965-1.473 2.824l-4.832 6.992-28.281 40.871a3.35 3.35 0 0 1-.918.898c-1.562 1.035-3.672.605-4.703-.957l-12.23-18.477c-1.34-2.008-2.168-3.223-2.324-4.219s.355-1.77 1.301-2.387 2.32-1.07 15.273 4.246c8.23-7.492 16.465-14.98 24.387-22.934 2.191-2.199 4.359-4.434 6.941-6.125A20.93 20.93 0 0 1 85.066.65c.922-.426 1.867-.777 2.992-.605.469.07.969.234 1.125.586" fill="#177abd"/></svg>