<?xml version="1.0" encoding="UTF-8"?>
<svg width="165.25pt" height="165.25pt" version="1.1" viewBox="0 0 165.25 165.25" xmlns="http://www.w3.org/2000/svg" xmlns:cc="http://creativecommons.org/ns#" xmlns:dc="http://purl.org/dc/elements/1.1/" xmlns:rdf="http://www.w3.org/1999/02/22-rdf-syntax-ns#">
<metadata>
<rdf:RDF>
<cc:Work rdf:about="">
<dc:format>image/svg+xml</dc:format>
<dc:type rdf:resource="http://purl.org/dc/dcmitype/StillImage"/>
<dc:title/>
</cc:Work>
</rdf:RDF>
</metadata>
<path d="m0 0h165.25c0 55.08 0 110.16-0.01 165.24-55.08 0.01-110.16 0-165.24 0.01v-165.25m22.01 31.02c12.86 17.22 25.91 34.29 38.83 51.46-12.81 17.24-25.94 34.24-38.77 51.47 29.33 0.12 58.65 0 87.98 0.06 13.2-17.08 25.92-34.53 39.21-51.55l-0.25 0.01c-12.95-17.17-25.96-34.3-38.89-51.47-29.37 0.02-58.74-0.03-88.11 0.02z" fill="#790008"/>
<path d="m22.01 31.02c29.37-0.05 58.74 0 88.11-0.02 12.93 17.17 25.94 34.3 38.89 51.47-29.39 0.06-58.78 0.03-88.17 0.01-12.92-17.17-25.97-34.24-38.83-51.46z" fill="#fff"/>
<path d="m60.84 82.48c29.39 0.02 58.78 0.05 88.17-0.01l0.25-0.01c-13.29 17.02-26.01 34.47-39.21 51.55-29.33-0.06-58.65 0.06-87.98-0.06 12.83-17.23 25.96-34.23 38.77-51.47z" fill="#ed3024"/>
</svg>
