<?xml version="1.0" encoding="UTF-8"?>
<svg width="590.69pt" height="165.25pt" version="1.1" viewBox="0 0 590.69214 165.25" xmlns="http://www.w3.org/2000/svg" xmlns:cc="http://creativecommons.org/ns#" xmlns:dc="http://purl.org/dc/elements/1.1/" xmlns:rdf="http://www.w3.org/1999/02/22-rdf-syntax-ns#">
<metadata>
<rdf:RDF>
<cc:Work rdf:about="">
<dc:format>image/svg+xml</dc:format>
<dc:type rdf:resource="http://purl.org/dc/dcmitype/StillImage"/>
<dc:title/>
</cc:Work>
</rdf:RDF>
</metadata>
<path d="m0 0h165.25c0 55.08 0 110.16-0.01 165.24-55.08 0.01-110.16 0-165.24 0.01v-165.25m22.01 31.02c12.86 17.22 25.91 34.29 38.83 51.46-12.81 17.24-25.94 34.24-38.77 51.47 29.33 0.12 58.65 0 87.98 0.06 13.2-17.08 25.92-34.53 39.21-51.55l-0.25 0.01c-12.95-17.17-25.96-34.3-38.89-51.47-29.37 0.02-58.74-0.03-88.11 0.02z" fill="#790008"/>
<path d="m221.25 48.29c9.84-12.27 24.97-20.15 40.69-21.04 14.89-1.15 30.04 4.08 41.23 13.93-5.05 5.09-10.11 10.15-15.2 15.2-8.61-6.98-20.57-9.73-31.29-6.67-11.96 3.14-21.56 13.36-24.23 25.4-3.26 13.07 1.45 27.92 12.2 36.2 12.28 10.05 31.33 9.54 43.4-0.61 5.06 5.07 10.23 10.05 15.16 15.26-9.99 8.68-22.98 13.9-36.24 14.06-16.71 0.46-33.45-6.89-44.36-19.56-7.63-8.69-12.49-19.79-13.58-31.31-1.53-14.52 2.94-29.57 12.22-40.86z" fill="#790008"/>
<path d="m323.25 30.25c7.25 0 14.49 0.01 21.74-0.01 0.02 35.59 0 71.17 0.01 106.76-7.25 0-14.5 0.01-21.75-0.01 0.01-35.58 0-71.16 0-106.74z" fill="#790008"/>
<path d="m371 30c7.05-0.02 14.1 0.04 21.16-0.03 12.57 22.61 24.82 45.42 37.55 67.95 12.34-22.68 24.86-45.25 37.2-67.93 7.11 0.02 14.22 0 21.34 0.01-0.04 35.6 0.07 71.19-0.06 106.79-7.24-0.11-14.47 0.02-21.71-0.07 0.05-21.07 0-42.13 0.03-63.19-12.47 21.29-24.35 42.94-37.04 64.09-12.12-21.43-24.57-42.67-36.74-64.07 0.04 21.07 0.01 42.13 0.02 63.2-7.25 0-14.49-0.01-21.74 0.01-0.03-35.59 0-71.17-0.01-106.76z" fill="#790008"/>
<path d="m513.01 30.24c14.68 0.02 29.35 0 44.03 0.01 6.79 0.13 13.76 1.56 19.56 5.25 14.01 8.56 17.23 30.79 5.53 42.57-1.5 1.6-3.28 2.92-5.05 4.2 6.67 3.51 11.79 10.02 13.03 17.52 1.81 10.12-0.5 21.74-8.35 28.88-6.26 5.99-15.16 8.15-23.6 8.26-15.05 0.16-30.11 0.03-45.16 0.07 0.01-35.59-0.02-71.17 0.01-106.76m21.74 19.51c-0.01 7.75 0 15.5 0 23.25 6.4-0.02 12.81 0.03 19.22-0.01 3.73-0.07 7.76-0.85 10.49-3.6 3.88-4.12 3.98-11.07 0.53-15.49-2.65-3.19-7.03-4.18-11-4.16-6.42 0.01-12.83 0.01-19.24 0.01m0 42.76c0 8.24-0.01 16.49 0 24.74 7.07 0.01 14.14-0.01 21.21 0.02 3.31 0.1 6.79-0.83 9.27-3.12 4.94-4.76 5.03-13.63-0.01-18.35-2.72-2.58-6.62-3.25-10.23-3.3-6.75-0.01-13.5 0-20.24 0.01z" fill="#790008"/>
<path d="m22.01 31.02c29.37-0.05 58.74 0 88.11-0.02 12.93 17.17 25.94 34.3 38.89 51.47-29.39 0.06-58.78 0.03-88.17 0.01-12.92-17.17-25.97-34.24-38.83-51.46z" fill="#fff"/>
<path d="m60.84 82.48c29.39 0.02 58.78 0.05 88.17-0.01l0.25-0.01c-13.29 17.02-26.01 34.47-39.21 51.55-29.33-0.06-58.65 0.06-87.98-0.06 12.83-17.23 25.96-34.23 38.77-51.47z" fill="#ed3024"/>
</svg>
