<?xml version="1.0" encoding="UTF-8" standalone="no"?>
<svg
   xmlns:dc="http://purl.org/dc/elements/1.1/"
   xmlns:cc="http://creativecommons.org/ns#"
   xmlns:rdf="http://www.w3.org/1999/02/22-rdf-syntax-ns#"
   xmlns:svg="http://www.w3.org/2000/svg"
   xmlns="http://www.w3.org/2000/svg"
   xmlns:sodipodi="http://sodipodi.sourceforge.net/DTD/sodipodi-0.dtd"
   xmlns:inkscape="http://www.inkscape.org/namespaces/inkscape"
   width="32.3965"
   height="36.000397"
   viewBox="0 0 32.3965 36.000397"
   version="1.1"
   id="svg8"
   sodipodi:docname="sparebanken_vest icon.svg"
   style="fill:none"
   inkscape:version="0.92.5 (2060ec1f9f, 2020-04-08)">
  <metadata
     id="metadata14">
    <rdf:RDF>
      <cc:Work
         rdf:about="">
        <dc:format>image/svg+xml</dc:format>
        <dc:type
           rdf:resource="http://purl.org/dc/dcmitype/StillImage" />
        <dc:title></dc:title>
      </cc:Work>
    </rdf:RDF>
  </metadata>
  <defs
     id="defs12" />
  <sodipodi:namedview
     pagecolor="#ffffff"
     bordercolor="#666666"
     borderopacity="1"
     objecttolerance="10"
     gridtolerance="10"
     guidetolerance="10"
     inkscape:pageopacity="0"
     inkscape:pageshadow="2"
     inkscape:window-width="1920"
     inkscape:window-height="1043"
     id="namedview10"
     showgrid="false"
     inkscape:zoom="1.5152838"
     inkscape:cx="114.5"
     inkscape:cy="18.000395"
     inkscape:window-x="1920"
     inkscape:window-y="0"
     inkscape:window-maximized="1"
     inkscape:current-layer="svg8" />
  <path
     d="m 32.3962,11.0401 c 0.04,-1.3949696 0.003,-2.6249696 -0.098,-3.7029696 -0.006,-0.059 -0.015,-0.11 -0.021,-0.169 0.002,-0.002 0.003,-0.003 0.004,-0.005 -0.014,-0.145 -0.034,-0.277 -0.053,-0.412 l -0.167,0.293 c -0.8,1.399 -1.57,2.515 -2.498,3.6189696 -8.446,10.052 -14.94,10.561 -16.156,10.561 -0.661,0 -1.047,-0.11 -1.254,-0.202 -0.569,-0.252 -1.125,-1.055 -1.488,-2.149 -0.59,-1.774 -1.46103,-6.79 3.163,-15.0349696 0.288,-0.514 0.605,-1.038 0.941,-1.557 l 0.159,-0.245 c -0.122,0.037 -0.246,0.07 -0.368,0.108 v 0.001 c -0.853,0.268 -1.699,0.552 -2.537,0.852 -0.125,0.044 -0.246,0.096 -0.37,0.141 -3.86903,6.25 -5.73003,13.3999696 -5.36503,20.7089696 0.085,1.706 0.291,3.415 0.612,5.079 l 0.053,0.276 0.268,-0.085 c 1.261,-0.399 2.523,-0.852 3.75203,-1.348 8.471,-3.416 15.862,-9.06 21.411,-16.316 0.004,-0.138 0.008,-0.276 0.012,-0.413 z"
     id="path4"
     inkscape:connector-curvature="0"
     style="clip-rule:evenodd;fill:#ffffff;fill-rule:evenodd" />
  <path
     d="M 12.0235,2.9961904 C 8.18849,9.0741904 6.16249,16.3072 6.53749,23.8342 c 0.083,1.671 0.282,3.355 0.608,5.045 1.272,-0.403 2.517,-0.851 3.73401,-1.342 8.796,-3.548 16.122,-9.342 21.517,-16.497 -0.006,0.211 -0.01,0.417 -0.019,0.635 -0.155,3.532 -0.58,7.01 -1.254,10.411 -0.634,3.192 -2.615,5.967 -5.418,7.62 -4.876,2.876 -10.293,4.929 -16.06601,5.96 -3.637,0.65 -6.636,0.29 -7.65,-0.548 -1.014,-0.837 -1.9359998,-3.713 -1.98499978,-7.408 C -0.0755098,21.8462 0.91549,16.1382 2.81649,10.8072 c 1.094,-3.0660096 3.442,-5.5360096 6.457,-6.7620096 0.90601,-0.369 1.82401,-0.717 2.75001,-1.049 z m 7.2357,-2.15239596 c 6.002,-1.432 9.27,-0.8569999 10.738,0.35499596 1.052,0.869 1.956,2.717 2.284,5.964 -0.809,1.415 -1.591,2.547 -2.527,3.6610096 -8.543,10.167 -15.827,11.26 -17.702,10.427 -1.875,-0.832 -4.25601,-7.169 1.558,-17.5340096 0.299,-0.535 0.616,-1.059 0.949,-1.572 1.544,-0.486 3.11,-0.922 4.7,-1.30099596 z"
     id="path6"
     inkscape:connector-curvature="0"
     style="clip-rule:evenodd;fill:#dd1d1f;fill-rule:evenodd" />
</svg>
