<?xml version="1.0" encoding="UTF-8" standalone="no"?>
<!DOCTYPE svg PUBLIC "-//W3C//DTD SVG 1.1//EN" "http://www.w3.org/Graphics/SVG/1.1/DTD/svg11.dtd">
<svg width="100%" height="100%" viewBox="0 0 280 279" version="1.1" xmlns="http://www.w3.org/2000/svg" xmlns:xlink="http://www.w3.org/1999/xlink" xml:space="preserve" xmlns:serif="http://www.serif.com/" style="fill-rule:evenodd;clip-rule:evenodd;stroke-linejoin:round;stroke-miterlimit:2;">
    <g transform="matrix(1,0,0,1,-820.158,-263.641)">
        <g transform="matrix(1,0,0,1,604.836,236)">
            <g transform="matrix(3.05054,0,0,3.05054,215.322,26.6736)">
                <g id="Coming-Soon-LinkAja">
                    <g id="Group-26">
                        <g id="Group-30">
                            <g id="Group-3" transform="matrix(1,0,0,1,0,0.001586)">
                                <path id="Fill-1" d="M83.075,91.683L8.608,91.683C3.874,91.683 -0,87.823 -0,83.104L-0,8.894C-0,4.176 3.874,0.316 8.608,0.316L83.075,0.316C87.81,0.316 91.683,4.176 91.683,8.894L91.683,83.104C91.683,87.823 87.81,91.683 83.075,91.683" style="fill:rgb(232,37,41);"/>
                            </g>
                            <path id="Fill-4" d="M19.781,17.522L24.125,17.522C24.455,17.522 24.709,17.814 24.662,18.14L22.645,32.086C22.567,32.623 22.985,33.103 23.529,33.103L31.149,33.103C31.366,33.103 31.532,33.295 31.5,33.508L30.909,37.514C30.878,37.722 30.699,37.876 30.488,37.876L21.872,37.876C19.309,37.876 16.851,35.782 17.212,33.253L19.242,17.992C19.278,17.723 19.508,17.522 19.781,17.522" style="fill:rgb(254,254,254);"/>
                            <path id="Fill-6" d="M34.265,23.086L32.277,37.309C32.245,37.535 32.421,37.736 32.65,37.736L36.853,37.736C37.152,37.736 37.405,37.516 37.447,37.221L39.416,23.23C39.458,22.908 39.206,22.622 38.88,22.622L34.801,22.622C34.531,22.622 34.302,22.82 34.265,23.086" style="fill:rgb(254,254,254);"/>
                            <path id="Fill-8" d="M42.935,36.645C41.638,36.599 41.032,37.004 40.266,37.459C40.451,36.177 41.899,26.184 42.031,25.57C42.171,24.915 42.298,23.824 42.876,23.273C43.552,22.626 44.6,22.256 49.812,22.24C55.133,22.222 56.164,26.039 55.882,28.518C55.641,30.64 54.849,35.884 54.626,37.349C54.592,37.572 54.401,37.736 54.176,37.736L50.066,37.736C49.764,37.736 49.533,37.471 49.575,37.174C49.783,35.709 50.34,31.804 50.529,30.67C50.764,29.267 50.952,27.723 50.576,27.114C50.201,26.505 49.074,26.039 46.914,26.413L45.317,37.666C45.317,37.666 44.29,36.694 42.935,36.645" style="fill:rgb(254,254,254);"/>
                            <path id="Fill-10" d="M60.339,16.714L64.899,16.714C65.068,16.714 65.199,16.863 65.175,17.031L62.338,37.512C62.317,37.664 62.187,37.777 62.033,37.777L57.532,37.777C57.344,37.777 57.2,37.612 57.226,37.428L60.062,16.955C60.081,16.817 60.2,16.714 60.339,16.714" style="fill:rgb(254,254,254);"/>
                            <path id="Fill-12" d="M63.867,29.054L69.02,23.041C69.182,22.851 69.42,22.742 69.67,22.742L74.193,22.742C74.52,22.742 74.692,23.128 74.473,23.369L69.205,29.196L74.021,39.518C74.198,39.897 73.92,40.33 73.501,40.33L69.413,40.33C69.199,40.33 69.005,40.206 68.916,40.013L63.867,29.054Z" style="fill:rgb(254,254,254);"/>
                            <path id="Fill-14" d="M40.296,18.771C39.928,20.32 38.527,21.474 37.061,21.474C35.595,21.474 34.471,20.217 34.84,18.668C35.208,17.118 36.422,15.862 38.162,15.862C39.628,15.862 40.665,17.221 40.296,18.771" style="fill:rgb(254,254,254);"/>
                            <path id="Fill-16" d="M44.931,41.361C44.562,42.911 43.162,44.064 41.695,44.064C40.229,44.064 39.105,42.808 39.474,41.259C39.843,39.709 41.057,38.453 42.796,38.453C44.262,38.453 45.299,39.812 44.931,41.361" style="fill:rgb(254,254,254);"/>
                            <path id="Fill-18" d="M66.985,59.881C66.674,61.412 65.259,62.551 63.718,62.55C62.176,62.55 60.932,61.307 61.242,59.776C61.553,58.245 62.767,57.004 64.596,57.005C66.137,57.006 67.296,58.349 66.985,59.881" style="fill:rgb(254,254,254);"/>
                            <path id="Fill-20" d="M28.177,52.253L25.416,52.253C25.314,52.253 25.244,52.151 25.281,52.056L27.683,45.979C27.729,45.863 27.9,45.888 27.912,46.012L28.451,51.954C28.466,52.115 28.339,52.253 28.177,52.253M34.864,59.884L31.784,41.511C31.649,40.707 30.951,40.119 30.134,40.119L27.043,40.119C26.101,40.119 25.245,40.668 24.855,41.522L16.557,59.907C16.437,60.174 16.633,60.475 16.927,60.473L21.238,60.448C21.533,60.447 21.799,60.27 21.914,60L23.347,56.64C23.386,56.548 23.476,56.489 23.576,56.489L28.793,56.489C28.921,56.489 29.029,56.586 29.041,56.713L29.352,59.892C29.388,60.262 29.701,60.544 30.074,60.544L34.303,60.544C34.654,60.544 34.922,60.23 34.864,59.884" style="fill:rgb(254,254,254);"/>
                            <path id="Fill-22" d="M32.807,63.212L33.803,66.278C33.982,66.782 34.117,66.894 34.467,66.821C35.724,66.556 38.764,65.661 40.25,63.657C42.189,61.043 42.455,56.423 42.797,54.075C43.079,52.141 43.696,47.379 43.904,45.761C43.942,45.47 43.714,45.213 43.42,45.213L39.555,45.213C39.213,45.213 38.924,45.464 38.878,45.801C38.567,48.087 37.444,56.306 37.248,57.445C37.02,58.771 36.975,60.681 35.007,61.821C34.025,62.389 33.521,62.498 33.132,62.678C32.935,62.77 32.711,62.869 32.807,63.212" style="fill:rgb(254,254,254);"/>
                            <path id="Fill-24" d="M54.077,56.135C54.077,56.135 52.061,56.818 51.094,56.095C50.126,55.372 50.046,53.885 50.61,51.756C51.175,49.627 52.585,49.266 53.19,49.225C53.795,49.185 54.932,49.47 54.932,49.47L54.077,56.135ZM59.658,45.763C58.354,45.438 56.163,44.724 52.641,44.981C49.391,45.219 45.721,46.717 45.034,53.11C44.347,59.503 47.279,60.736 51.495,60.919C54.585,61.053 57.009,60.206 58.085,59.744C58.459,59.583 58.72,59.238 58.775,58.836L60.332,46.526C60.393,46.038 60.148,45.885 59.658,45.763Z" style="fill:rgb(254,254,254);"/>
                            <path id="Fill-26" d="M62.664,54.967L63.798,43.18C63.839,42.757 64.194,42.585 64.62,42.585L68.533,42.585C68.897,42.585 69.052,42.861 68.951,43.312L66.563,55.115C66.514,55.344 66.313,55.507 66.078,55.507L63.156,55.507C62.864,55.507 62.636,55.256 62.664,54.967" style="fill:rgb(254,254,254);"/>
                            <path id="Fill-28" d="M16.877,76.702C17.652,77.128 18.557,77.252 19.418,77.049C22.849,76.239 30.443,74.058 46.506,71.744C66.687,68.837 81.587,68.849 81.587,68.849L81.626,68.825C81.626,68.825 68.42,67.017 46.745,69.126C25.07,71.236 12.972,74.551 12.972,74.551L16.877,76.702Z" style="fill:rgb(254,254,254);"/>
                        </g>
                    </g>
                </g>
            </g>
        </g>
    </g>
</svg>
