<?xml version="1.0" encoding="utf-8"?>
<svg version="1.1" id="Layer_1" xmlns="http://www.w3.org/2000/svg" xmlns:xlink="http://www.w3.org/1999/xlink" x="0px" y="0px"
	 viewBox="0 0 194 20" style="enable-background:new 0 0 194 20;" fill="#46BEAA" xml:space="preserve">
	<path class="st0" d="M161.2,4.9c-0.7,0.6-1.3,1.3-1.9,2c2.9,2.9,5,7.4,5.7,12.6h2.8c-0.6-4.6-2.1-8.8-4.5-12.1
		C162.6,6.4,162,5.6,161.2,4.9z"/>
	<path class="st0" d="M157.8,8.8c-0.5,0.8-1,1.7-1.4,2.6c1.7,2.1,2.9,4.9,3.5,8h2.8c-0.5-3.4-1.8-6.5-3.6-9.1
		C158.7,9.8,158.3,9.3,157.8,8.8z"/>
	<path class="st0" d="M154.7,19.4h2.8c-0.4-1.9-1.1-3.7-2.1-5.3C154.9,15.8,154.7,17.6,154.7,19.4z"/>
	<path class="st0" d="M185.3,3.7c-0.4-0.3-0.7-0.5-1.1-0.8c-0.2,0.2-0.3,0.4-0.5,0.6c-2.2,2.5-4.8,6.3-6.1,11.7
		c-0.4-2.2-1-4.3-1.7-6.3c1.5-3.3,3.3-5.8,5-7.7c-0.5-0.2-0.9-0.3-1.4-0.5c-1.4,1.7-2.9,3.8-4.3,6.4c-0.9-2.2-2.1-4.2-3.4-6.1
		c-0.2-0.3-0.4-0.6-0.7-0.9c-1,0.2-2,0.4-3,0.7c2.3,2.7,4.2,6.1,5.5,10c-0.5,1.4-0.9,2.8-1.2,4.4c-0.9-4.2-2.6-8-4.8-11.2
		c-0.6-0.8-1.2-1.6-1.8-2.3c-0.9,0.4-1.7,0.9-2.5,1.4c3.7,3.7,6.3,9.4,7,16h2.9c0.2-2.2,0.6-4.3,1.1-6.1c0.5,2,0.9,4,1.1,6.1h2.8
		c0.8-7.2,3.9-12.1,6.5-15C184.8,4.2,185.1,4,185.3,3.7z"/>
	<path class="st0" d="M188.9,7.2c-0.3-0.3-0.6-0.7-0.9-1c-3,3.1-5.5,7.5-6.2,13.3h1.3c0.8-5.6,3.2-9.5,5.4-11.8
		C188.6,7.5,188.8,7.3,188.9,7.2z"/>
	<path class="st0" d="M186.8,19.4h1.4c0.6-3.5,2.1-6,3.5-7.8c-0.2-0.4-0.4-0.9-0.6-1.3C189.1,12.6,187.5,15.6,186.8,19.4z"/>
	<path class="st0" d="M193.1,16.3c-0.5,0.9-0.8,2-1.1,3.1h1.4C193.3,18.4,193.2,17.3,193.1,16.3z"/>
	<polygon class="st0" points="71.1,0.9 66.9,0.9 66.9,19.4 78.4,19.4 78.4,15.8 71.1,15.8 		"/>
	<polygon class="st0" points="101.5,0.9 99.9,0.9 99.9,19.4 109.9,19.4 109.9,18.1 101.5,18.1 		"/>
	<rect x="111.7" y="0.9" class="st0" width="1.5" height="18.6"/>
	<polygon class="st0" points="137.6,18.1 137.6,10.6 145.8,10.6 145.8,9.2 137.6,9.2 137.6,2.2 146.4,2.2 146.4,0.9 136.1,0.9 
		136.1,19.4 146.7,19.4 146.7,18.1 		"/>
	<polygon class="st0" points="131,18.1 130.7,18.1 120,0.9 117.2,0.9 117.2,19.4 118.7,19.4 118.7,2.2 119.1,2.2 129.9,19.4 
		132.5,19.4 132.5,0.9 131,0.9 		"/>
	<polygon class="st0" points="19.5,15.8 19.2,15.8 16.1,1.4 11.8,1.4 9,15.8 8.6,15.8 4.9,0.9 0.6,0.9 5.2,19.4 11.6,19.4 
		13.9,8.1 16.4,19.4 22.9,19.4 27,0.9 22.7,0.9 		"/>
	<path class="st0" d="M94.6,3.4c-2-1.9-4.6-2.8-7.6-2.7c0,0-6.9,0-6.9,0v18.8H87c1.7,0,3.1-0.3,4.4-0.8c2.4-1,4.2-2.8,5.1-5.1
		c0.5-1.3,0.7-2.6,0.6-3.9C97.1,7.4,96.3,5.1,94.6,3.4z M92.3,12.6c-0.5,1.4-1.5,2.4-2.9,2.9c-0.7,0.3-1.5,0.4-2.4,0.4h-2.8V4.3
		h2.8c0.9,0,1.7,0.1,2.4,0.4c1.4,0.5,2.4,1.4,2.9,2.8C92.9,8.9,92.9,11.1,92.3,12.6z"/>
	<path class="st0" d="M41.3,1.1C38.9,0,35,0,32.7,1.1c-2.4,1-4.1,2.9-5,5.3c-0.5,1.3-0.7,2.6-0.6,4c0,3.6,2.2,7.1,5.5,8.7
		c2.4,1.2,6.4,1.2,8.8,0c3.4-1.5,5.5-5.1,5.5-8.7c0.1-2.5-0.8-5.1-2.5-7C43.6,2.4,42.5,1.7,41.3,1.1z M37,16.1
		c-3.5,0-5.6-2.8-5.6-6c0-3.3,1.9-6,5.6-6c3.1,0,5.6,2.1,5.6,6C42.6,13.4,40.5,16.1,37,16.1z"/>
	<path class="st0" d="M63,10.8c0.7-1,1-2.4,0.9-3.8c0-1.4-0.3-2.5-0.9-3.4c-1.4-2.1-4-2.8-6.6-2.8c0,0-7.3,0-7.3,0v18.7h4.2v-5.8
		c0.1,0,3.1,0,3.2,0l3.9,5.8h4.8l-4.7-6.7C61.5,12.3,62.4,11.7,63,10.8z M59.2,8.8c-0.5,1-1.5,1.4-2.6,1.4h-3.3V4.3h3.3
		c0.6,0,1.1,0,1.6,0.3c0.4,0.2,0.8,0.6,1,1C59.7,6.5,59.7,7.9,59.2,8.8z"/>
</svg>
