<?xml version="1.0" encoding="UTF-8"?>
<svg class="icon" width="456.38" height="457.89" version="1.1" viewBox="0 0 456.384 915.776" xmlns="http://www.w3.org/2000/svg" xmlns:cc="http://creativecommons.org/ns#" xmlns:dc="http://purl.org/dc/elements/1.1/" xmlns:rdf="http://www.w3.org/1999/02/22-rdf-syntax-ns#">
<metadata>
<rdf:RDF>
<cc:Work rdf:about="">
<dc:format>image/svg+xml</dc:format>
<dc:type rdf:resource="http://purl.org/dc/dcmitype/StillImage"/>
<dc:title/>
</cc:Work>
</rdf:RDF>
</metadata>
<path d="m242.46 392.77a1619.2 1619.2 0 0 1 310.08 27.072c54.08 11.072 97.024 22.272 132.03 36.48l-457.98-456.32-454.78 454.78a833.22 833.22 0 0 1 151.04 -36.48 1798.4 1798.4 0 0 1 319.68 -25.6" fill="#fcd000"/>
<path d="m226.46 915.78 454.4-456.32c-63.552-4.8-151.04-4.8-260.74 3.136-116.03 7.936-195.58 19.2-241.66 33.344-41.28 12.8-60.416 30.336-57.152 51.2a30.336 30.336 0 0 0 9.536 20.672l11.2 9.536c15.872 11.072 25.6 15.936 28.544 19.2a48.448 48.448 0 0 1 15.872 47.68c-6.4 25.6-57.28 52.48-151.04 79.552l190.66 192" fill="#304793"/>
</svg>
