<?xml version="1.0" encoding="UTF-8"?>
<svg class="icon" width="448.1" height="150.65" version="1.1" viewBox="0 0 448.10001 301.29999" xmlns="http://www.w3.org/2000/svg" xmlns:cc="http://creativecommons.org/ns#" xmlns:dc="http://purl.org/dc/elements/1.1/" xmlns:rdf="http://www.w3.org/1999/02/22-rdf-syntax-ns#">
<metadata>
<rdf:RDF>
<cc:Work rdf:about="">
<dc:format>image/svg+xml</dc:format>
<dc:type rdf:resource="http://purl.org/dc/dcmitype/StillImage"/>
<dc:title/>
</cc:Work>
</rdf:RDF>
</metadata>
<path d="m-69.15 129.2c38.7 0 72.7 3.1 102 8.9 17.8 3.7 31.9 7.3 43.4 12l-150.7-150.1-149.6 149.6c13.1-4.7 29.8-8.9 49.7-12 31.9-5.8 67-8.4 105.2-8.4z" fill="#ffb100"/>
<path d="m-74.45 301.3 149.6-150.1c-20.9-1.6-49.7-1.6-85.8 1-38.2 2.6-64.3 6.3-79.5 11-13.6 4.2-19.9 9.9-18.8 16.7 0 2.1 1 4.7 3.1 6.8l3.7 3.1c5.2 3.7 8.4 5.2 9.4 6.3 4.7 4.2 6.3 9.4 5.2 15.7-2.1 8.4-18.8 17.3-49.7 26.2z" fill="#0035d9"/>
<path d="m157.65 167.3v-106.5c0-0.7-0.4-2.1-1.1-4.2s-0.7-3.7 0-4.8c1.1-0.7 4.9-0.2 11.7 1.6 5.7 1.1 8.7 2.1 9 3.2 0 1.1-0.9 2.1-2.6 3.2l-1.1 1.1v42.4h25.4c2.5-4.6 5.6-8.8 9.5-12.7h2.1c6.4 4.6 11.7 8.7 15.9 12.2 0.7 1.8 0.4 2.8-1.1 3.2h-51.9v61.5h35c2.8-4.6 6.2-8.5 10.1-11.7h1.6c8.5 4.9 13.8 8.7 15.9 11.1 0.7 1.4 0.5 2.5-0.5 3.2h-116.6c-0.7 0-3.7 0.2-9 0.5l-2.6-3.7c1.4 0 2.8 0.2 4.2 0.5h46.1zm161.8-73.1c8.5 2.5 13.3 6.7 14.3 12.7-0.4 4.9-2.5 7.9-6.4 9-4.6 0.7-7.1-1.2-7.4-5.8 0-0.7 0.2-1.8 0.5-3.2 1.1-2.1 0.3-5.8-2.1-11.1-0.7-0.7-0.4-1.3 1.1-1.6zm-3.8 32.3c-0.4-0.4 0-0.7 1.1-1.1 8.5 2.1 13.3 6.9 14.3 14.3-0.4 3.9-2.7 6.2-6.9 6.9-4.6 0.4-6.9-1.4-6.9-5.3 0-0.4 0.2-1.2 0.5-2.6 1.8-3.2 1.1-7.2-2.1-12.2zm-3.1-34.4-4.8 26.5h37.6v-26.5zm-5.3 29.7-5.3 29.1v0.5h38.2c2.5-6.7 4.1-16.6 4.8-29.7h-37.7zm15.3-64.7-4.2 2.1c-2.5 3.9-4.6 6.7-6.4 8.5-0.7 1.1-1.4 2.1-2.1 3.2h41.9v-0.5c4.2-5.7 7.2-9.2 9-10.6 0-0.4 0.5-0.4 1.6 0 8.8 5.3 14 9.2 15.4 11.7 0.4 1.4 0 2.1-1.1 2.1h-68.9c-7.4 8.8-14.8 16.6-22.3 23.3-1.1 0.7-1.4 0.4-1.1-1.1 8.1-15.5 14.3-31.3 18.6-47.2 0-0.4 0.7-0.7 2.1-1.1 1.8 1.1 3.7 1.9 5.8 2.7 5.3 1.8 9.2 3.2 11.7 4.2 0.4 1.5 0.4 2.3 0 2.7zm-19.6 97-4.8 3.7c-0.7 1.1-1.4 1.2-2.1 0.5-5.3-4.9-8.5-8.3-9.5-10.1-0.4 0-0.5-0.4-0.5-1.1 0.4-0.4 0.5-0.7 0.5-1.1 2.8-3.2 5.5-11.3 8-24.4h-11.1l-2.6-3.7c1.4 0.4 2.8 0.5 4.2 0.5h10.1c2.8-15.2 4.4-26.3 4.8-33.4 0-1.1 0.7-1.4 2.1-1.1 5.3 2.5 9 4.1 11.1 4.8h28.1l2.1-2.1c2.1-1.4 3.5-2.5 4.2-3.2h2.2c3.5 1.8 7.8 4.4 12.7 7.9 0.4 1.1 0.4 1.8 0 2.1-0.7 0.4-1.6 0.9-2.6 1.6-1.4 0.7-1.9 1.1-1.6 1.1v22.3h1.6c3.2-4.2 5.8-7.4 8-9.5h1.6c4.9 3.5 9 7.1 12.2 10.6 0.4 1.1 0.2 1.8-0.5 2.1h-23.3c0 5.7-0.4 11-1.1 15.9-0.4 4.9-0.9 9.5-1.6 13.8h0.5c2.5-3.9 5.1-7.1 8-9.5 0.3-0.4 0.9-0.4 1.6 0 4.6 2.8 8.7 6.2 12.2 10.1 0.4 1.4 0.2 2.1-0.5 2.1h-22.3c-3.9 14.5-12 21.6-24.4 21.2-1.4 0-1.9-0.2-1.6-0.5-1.8-6.7-5.8-11-12.2-12.7-1.1-1.1-0.9-1.6 0.5-1.6 10.6 3.2 18 1.1 22.3-6.4h-36.3zm-32.8-84.3c-0.7-0.7-1.1-1.9-1.1-3.7 0-4.2-2.5-8.5-7.4-12.7-0.7 0-0.9-0.2-0.5-0.5 0.4-0.4 0.9-0.7 1.6-1.1 11.3 1.1 18.2 4.8 20.7 11.1 0.7 4.2-0.9 7.4-4.8 9.5-3.9 1.8-6.8 1-8.5-2.6zm-11.7 31.8c-0.7-0.7-1.2-2.3-1.6-4.8 0-4.2-1.6-8.3-4.8-12.2-0.7 0-0.9-0.4-0.5-1.1 0.4-0.4 0.9-0.5 1.6-0.5 9.5 2.5 15.2 6.4 17 11.7 1.1 4.2 0 7.4-3.2 9.5-3.5 1.8-6.4 0.9-8.5-2.6zm29.7-29.7c-8.5 33.9-13.4 56.2-14.8 66.8-0.7 4.6 0.4 9.9 3.2 15.9 1.8 3.9 2.7 6.7 2.7 8.5-0.7 6-4.1 9.2-10.1 9.5-7.1-1.1-10.1-4.4-9-10.1 0.4-3.5 0.4-7.8 0-12.7-1.4-7.8-4.6-12-9.5-12.7-0.7-0.4-1.1-0.9-1.1-1.6 0.4-0.7 0.9-1.1 1.6-1.1 8.8 4.2 20.5-16.8 35-63.1 0-0.4 0.4-0.5 1.1-0.5 0.2 0.4 0.5 0.8 0.9 1.1zm196.3 37.1h-13.8v45c12-6.7 18.2-10.1 18.6-10.1-2.9-9.4-4.5-21.1-4.8-34.9zm-13.8-23.3v20.1h30.7v-20.1zm0-23.3v20.1h30.7v-20.1zm-12.7 95.9v-93.3l-1.1-11.7c0-0.7 0.4-0.9 1.1-0.5 8.5 2.8 13.8 4.9 15.9 6.4h26l1.6-1.6c2.1-2.5 3.5-3.7 4.2-3.7 5.3 1.8 9.5 4.2 12.7 7.4 0 1.1-1.1 2.5-3.2 4.2-1.1 0.7-1.4 1.1-1.1 1.1v45c-6.7 3.9-11 3.9-12.7 0v-2.7h-13.8c1.8 9.9 4.9 18.9 9.5 27 4.9-6.4 9-13.4 12.2-21.2 1.1-0.4 1.9-0.5 2.6-0.5 1.8 0.7 4.4 2.6 8 5.8 1.4 0.7 2.6 1.4 3.7 2.1v2.1c-0.7 0.4-1.6 0.5-2.7 0.5-1.1 0.4-1.8 0.5-2.1 0.5-1.8 1.4-3.5 2.7-5.3 3.7-5.3 3.9-10.1 7.2-14.3 10.1 7.1 11 15.5 18.2 25.4 21.7 0.7 1.1 0.9 1.9 0.5 2.7-7.1 1.8-12.2 5.3-15.4 10.6-1.1 0.4-2.1 0.4-3.2 0-8.1-9.2-13.8-18.4-17-27.6-3.2 3.2-8 7.8-14.3 13.8-6.7 6.7-11.5 11.7-14.3 14.8-1.8 0-2.6-0.2-2.6-0.5-0.7-1.1-2.3-3.4-4.8-6.9-1.8-2.1-2.8-3.5-3.2-4.2-0.7-1.1-0.5-2.1 0.5-3.2 1 0.2 3.3-0.5 7.2-1.9zm-25.5-6.9 22.8-11.7c0.7-0.4 1.2-0.2 1.6 0.5 0.4 0.4 0.4 0.9 0 1.6-13.4 13.1-23.7 23.5-30.7 31.3-1.1 0.7-2.3 0.7-3.7 0l-8-12.7c-0.4 0-0.2-0.7 0.5-2.1l4.8-3.2v-33.3h-15.4l-3.2-3.7c1.4 0.4 3 0.5 4.8 0.5h13.8v-18h-10.1l-2.6-3.7c1.4 0.4 3 0.5 4.8 0.5h20.7c1.8-2.5 4.1-5.1 6.9-7.9 0.3-0.4 0.9-0.4 1.6 0 4.9 4.2 8.1 7.4 9.5 9.5-0.4 0.7-0.7 1.2-1.1 1.6h-12.7c0 0.4-0.2 0.7-0.5 1.1h-0.5c-2.5 1.8-3.5 2.8-3.2 3.2v13.8h4.2c1.8-2.5 4.1-5.1 6.9-7.9 0.4-0.4 0.9-0.4 1.6 0 4.9 4.2 8.1 7.4 9.5 9.5-0.4 0.7-0.7 1.2-1.1 1.6h-21.2zm2.1-94.3-6.9 3.2c-1.1 1.8-2.5 4.2-4.2 7.4-2.1 3.5-3.5 6-4.2 7.4h17.5c0.4 0 1.8-1.6 4.2-4.8 1.1-1.8 1.9-3 2.7-3.7h1.6c4.2 3.5 7.4 6.7 9.5 9.5-0.4 1.1-0.7 1.6-1.1 1.6h-36.6c-4.9 8.1-10.6 15.7-17 22.8-0.7 0.7-1.4 0.9-2.1 0.5-0.4-0.4-0.4-1.1 0-2.1 6.4-10.2 11.5-26.7 15.4-49.3 0-0.4 0.9-0.7 2.6-1.1 2.8 0.7 9 2.6 18.6 5.8zm170.3 6.4h33.4c0.3-0.4 1.6-1.9 3.7-4.8 2.1-2.5 3.5-4.1 4.2-4.8h2.2c6.4 3.9 10.8 7.2 13.2 10.1 0.7 1.4 0.5 2.3-0.5 2.6h-57.8l-3.2-3.7c1.4 0.4 3 0.6 4.8 0.6zm29.7 94.8v-56.7h-31.3c-2.8 0.4-5.7 0.5-8.5 0.5l-3.2-3.7c1.4 0.4 3 0.5 4.8 0.5h49.3c0.7-0.7 1.9-2.3 3.7-4.8 2.1-3.2 3.9-5.3 5.3-6.4h2.1c0 0.4 0.4 0.7 1.1 1.1 8.5 5.3 13.2 8.8 14.3 10.6 0 1.4-0.5 2.1-1.6 2.1h-17c-0.7 1.1-1.6 1.9-2.7 2.6-1.4 1.1-2.1 1.9-2.1 2.6v37.6c0 6 0.2 11 0.5 14.8 0.3 2.5 0.5 4.4 0.5 5.8-0.4 3.5-6.2 6-17.5 7.4-1.1 0-1.8-0.5-2.1-1.6-2.5-6-7.3-9.9-14.3-11.7-0.7 0-0.9-0.2-0.5-0.5 0-0.7 0.3-1.1 1.1-1.1 7.1 2.2 13.1 2.3 18.1 0.9zm-51.5-48.2v60.9c-0.7 1.4-3.5 2.6-8.5 3.7-3.9 0.4-5.8-0.2-5.8-1.6v-59.9c-7.1 6-14.7 11.1-22.8 15.4-0.7 0.4-0.9-0.2-0.5-1.6 11.7-11.7 22.3-27.6 31.8-47.7h2.1c3.9 2.5 9 5.7 15.4 9.5 0.4 1.1 0.4 1.8 0 2.1-0.7 0.4-1.4 0.7-2.1 1.1-1.4 0.4-2.7 0.7-3.7 1.1-2.8 3.2-5.7 6.4-8.5 9.5 2.8 1.1 4.4 1.6 4.8 1.6 0.7 0.7 0.9 1.6 0.5 2.6-1.8 1.2-2.7 2.2-2.7 3.3zm-3.7-58.8c5.6 4.2 10.2 7.9 13.8 11.1 0.4 1.1 0.2 1.8-0.5 2.1-3.5 0-5.5 0.5-5.8 1.6-15.2 12-29.1 19.8-41.9 23.3-1.1-0.4-1.2-0.9-0.5-1.6 10.6-7.1 21.6-19.3 32.9-36.6 1 0.1 1.7 0.1 2 0.1zm-454.9 189.3h6c6.3 0 9.4-3.2 9.4-9.7 0-3.8-1.1-6.6-3.4-8.4-1-0.8-2.1-1.4-3.4-1.8-1.2-0.3-2.9-0.5-4.9-0.5h-3.7zm0-23.8h3.6c3.2 0 5.7-0.6 7.4-1.8 2.3-1.6 3.5-4.4 3.5-8.4 0-5.9-3.1-8.8-9.2-8.8h-5.3zm-8.8-22.7h17c4.2 0 7.5 0.9 10.1 2.7 2.9 2.1 4.4 5.4 4.4 9.7 0 4.5-1.8 7.8-5.3 9.7-1.1 0.6-2.7 1.2-4.8 1.8 2.2 0.4 4.1 1.1 5.5 1.9 3.7 2.2 5.6 5.7 5.6 10.7 0 4.9-1.9 8.6-5.6 11.1-2.5 1.7-5.5 2.6-8.9 2.6h-18.1c0.2-0.7 0.3-1.5 0.3-2.5v-45.6c0.2-0.7 0-1.5-0.2-2.1zm60.3 27c-1 0.5-1.7 0.9-2.2 1.1s-2.4 0.9-5.9 2.2c-2.7 1-4.6 2.3-5.6 3.7-1.1 1.5-1.6 3.2-1.6 5 0 2.1 0.6 3.7 1.8 5s2.7 1.9 4.7 1.9c3 0 5.4-1.2 7.2-3.7 1.1-1.6 1.6-3.2 1.6-5zm0.3 18.2c-1.6 1.9-3 3.2-4.3 4-2.3 1.4-4.9 2-7.9 2s-5.5-0.9-7.3-2.7c-2.3-2.1-3.4-5-3.4-8.6 0-4.3 1.6-7.5 4.8-9.6 1.4-0.9 2.8-1.6 4-2.1 1.3-0.5 4.1-1.4 8.6-2.8 1.9-0.6 3.2-1.3 4-2.1s1.2-2 1.2-3.4c0-1.7-0.7-3-2-4.1-1.3-1-3.1-1.6-5.2-1.6-1.8 0-3.5 0.3-4.9 0.9s-3.2 1.7-5.3 3.3l-1.3-5c2.7-1.3 5-2.1 6.9-2.6s4.2-0.7 6.7-0.7c4.1 0 7.2 0.8 9.4 2.4s3.3 3.8 3.3 6.7v23.3c0 2.2 0.8 3.3 2.3 3.3 0.6 0 1.5-0.4 2.6-1.1v4.3c-2 1.3-4 2-5.8 2-1.9 0-3.4-0.4-4.3-1.3-0.9-0.8-1.6-2.3-2.1-4.5zm17.5-34.1h7.8v5.5c1.2-1.8 2.4-3.2 3.6-4.1 2.3-1.6 5.1-2.4 8.6-2.4 4.5 0 7.9 1.4 10.2 4.1 1.5 1.7 2.2 4.2 2.2 7.3v26.4c0 0.8 0.1 1.6 0.3 2.4h-8.3c0.2-0.6 0.3-1.4 0.3-2.4v-25.2c0-2.2-0.7-3.9-2-5.2-1.3-1.2-3.2-1.8-5.6-1.8-3 0-5.3 0.8-6.8 2.5-1.6 1.8-2.4 4-2.4 6.8v23c0 0.9 0.1 1.7 0.3 2.4h-8.3c0.2-0.7 0.3-1.5 0.3-2.4v-34.5c0.1-0.8 0-1.6-0.2-2.4zm50 19.1v17.8c0 0.8 0.1 1.6 0.3 2.4h-8.3c0.2-0.7 0.3-1.5 0.3-2.4v-49.4c0-0.9-0.1-1.7-0.3-2.4h8.3c-0.2 0.7-0.3 1.6-0.3 2.4v28.6l12.9-14.1c0.5-0.5 0.9-1.2 1.4-2h6.2c-0.5 0.4-1.2 1.1-2.2 2.1l-12 12.5 18 22.7c0.6 0.8 1.3 1.5 1.9 2h-10c-0.5-0.8-1-1.5-1.5-2.2zm65.2-16.7c-1.4 0-2.7 0.4-4 1.1s-2.3 1.7-3 3c-2 3.2-3 7.5-3 12.9 0 5.6 1 10 3 13.2 0.8 1.2 1.8 2.2 3 2.9 1.3 0.7 2.6 1.1 3.9 1.1 1.4 0 2.7-0.4 3.9-1.1 1.3-0.7 2.3-1.7 3-2.9 2-3.3 3-7.6 3-13.1s-1-9.9-3-13.1c-1.5-2.6-3.8-3.9-6.8-4zm0-3.3c5.8 0 10.3 2 13.6 5.9 3 3.7 4.6 8.6 4.6 14.6 0 6.4-1.7 11.5-5.2 15.2-3.2 3.5-7.5 5.2-12.8 5.2-5.7 0-10.1-1.9-13.3-5.7-3.2-3.9-4.8-9-4.8-15.3 0-5.8 1.6-10.6 4.8-14.3 3-3.6 7.4-5.5 13.1-5.6zm26.9 4.5h-4.2v-3.6h4.2v-6.7c0-2.8 0.8-5 2.5-6.4 2.1-1.8 5.1-2.7 8.9-2.7 2.5 0 5.6 0.5 9.3 1.5l-1.5 4.4c-2.4-1.4-4.6-2.1-6.5-2.1-1.8 0-3 0.4-3.8 1.3s-1.2 2.3-1.2 4.1v6.6h11.2v3.6h-11.2v33.3c0 0.8 0.1 1.6 0.3 2.4h-8.3c0.2-0.7 0.3-1.6 0.3-2.4zm40.3 32.6 1.7-6c1.4 1.2 2.5 2.1 3.4 2.7 2.7 1.9 5.5 2.8 8.6 2.8s5.5-0.9 7.3-2.7c1.6-1.7 2.4-3.6 2.4-6 0-2.8-1.1-5-3.4-6.7-1-0.8-3.6-2.1-7.6-4.1-4.2-2-7.2-4-8.9-5.9-2-2.3-3.1-5-3.1-8.1 0-2.8 0.8-5.3 2.3-7.5 3-4.3 7.8-6.4 14.4-6.4 3.8 0 7.7 0.9 11.7 2.7l-1.6 5.3c-3.8-2.7-7.4-4-10.6-4-2.6 0-4.7 0.8-6.2 2.4-1.3 1.4-2 3.1-2 5.1s0.7 3.7 2 5c1.4 1.3 4.2 2.9 8.4 4.8 4.6 2.1 7.8 4.2 9.4 6.2 2.1 2.6 3.1 5.5 3.1 8.9 0 2.9-0.7 5.5-2.2 8-3 4.9-8.1 7.4-15.1 7.4-2.5 0-4.8-0.3-6.9-0.9-2.2-0.6-4.5-1.6-7.1-3zm37.9 3.1c0.2-0.8 0.3-1.6 0.3-2.4v-49.4c0-0.9-0.1-1.7-0.3-2.4h8.3c-0.2 0.7-0.3 1.5-0.3 2.4v17.7c1.6-2.1 3.4-3.7 5.2-4.6s4-1.4 6.6-1.4c4 0 7.1 1 9.3 3s3.3 4.8 3.3 8.4v26.4c0 0.8 0.1 1.6 0.3 2.4h-8.3c0.2-0.7 0.3-1.5 0.3-2.4v-23.9c0-2.9-0.6-5-1.8-6.4-1.2-1.3-3.1-2-5.7-2-3 0-5.3 0.8-6.8 2.5-1.6 1.8-2.3 4-2.3 6.6v23.2c0 0.9 0.1 1.7 0.3 2.4h-8.4zm61.8-23.4c-1 0.5-1.7 0.9-2.2 1.1s-2.4 0.9-5.9 2.2c-2.7 1-4.6 2.3-5.6 3.7-1.1 1.5-1.6 3.2-1.6 5 0 2.1 0.6 3.7 1.8 5s2.7 1.9 4.7 1.9c3 0 5.4-1.2 7.2-3.7 1.1-1.6 1.6-3.2 1.6-5zm0.2 18.2c-1.6 1.9-3 3.2-4.3 4-2.3 1.4-4.9 2-7.9 2s-5.5-0.9-7.3-2.7c-2.3-2.1-3.4-5-3.4-8.6 0-4.3 1.6-7.5 4.8-9.6 1.4-0.9 2.8-1.6 4-2.1 1.3-0.5 4.1-1.4 8.6-2.8 1.9-0.6 3.2-1.3 4-2.1s1.2-2 1.2-3.4c0-1.7-0.7-3-2-4.1-1.3-1-3.1-1.6-5.2-1.6-1.8 0-3.5 0.3-4.9 0.9s-3.2 1.7-5.3 3.3l-1.2-5c2.7-1.3 5-2.1 6.9-2.6s4.2-0.7 6.7-0.7c4 0 7.2 0.8 9.4 2.4s3.3 3.8 3.3 6.7v23.3c0 2.2 0.8 3.3 2.3 3.3 0.6 0 1.5-0.4 2.6-1.1v4.3c-2 1.3-4 2-5.8 2-1.9 0-3.4-0.4-4.3-1.3-1-0.8-1.7-2.3-2.2-4.5zm17.5-34.1h7.8v5.5c1.2-1.8 2.4-3.2 3.6-4.1 2.3-1.6 5.1-2.4 8.6-2.4 4.5 0 7.9 1.4 10.2 4.1 1.5 1.7 2.2 4.2 2.2 7.3v26.4c0 0.8 0.1 1.6 0.3 2.4h-8.3c0.2-0.6 0.3-1.4 0.3-2.4v-25.2c0-2.2-0.7-3.9-2-5.2-1.3-1.2-3.2-1.8-5.6-1.8-3 0-5.3 0.8-6.8 2.5-1.6 1.8-2.4 4-2.4 6.8v23c0 0.9 0.1 1.7 0.3 2.4h-8.3c0.2-0.7 0.3-1.5 0.3-2.4v-34.5c0.1-0.8 0-1.6-0.2-2.4zm58.3 3c-3.3 0-5.7 1.2-7.2 3.7-1.5 2.3-2.2 5.4-2.2 9.1 0 4.2 0.8 7.5 2.4 9.8s3.9 3.4 7 3.4c3.2 0 5.6-1.2 7.1-3.6 1.6-2.5 2.4-5.7 2.4-9.6 0-4-0.8-7.2-2.5-9.4s-4-3.3-7-3.4zm-15.7 40.1-1.9-5.7 8.4-6.2c-2.3-1.3-4.1-2.7-5.3-4.1-2.2-2.5-3.3-6-3.3-10.5 0-5.7 1.7-10.1 5-13.2 3.1-2.9 7.2-4.3 12.3-4.3 0.8 0 2.2 0.1 4 0.2 1.1-0.5 2-1.3 2.7-2.4s1.1-2.5 1.2-4.2h7.3c-0.2 1.8-0.8 3.2-1.6 4.2s-2.3 2.2-4.5 3.6c2.3 1.1 4.1 2.5 5.4 4.1 2.4 3.1 3.7 6.9 3.7 11.6 0 4.9-1.4 8.8-4.2 11.8-2.2 2.3-5.2 3.9-9.1 4.6-0.8 0.1-2.4 0.3-4.9 0.6-1.5 0.1-2.8 0.6-4 1.3l-7.1 4.4c6.8-1.6 11.9-2.4 15.4-2.4 4 0 7.5 0.6 10.5 1.8 1.5 0.6 2.7 1.5 3.5 2.6 0.9 1.1 1.3 2.3 1.3 3.7 0 2.6-1.4 4.6-4.2 6s-6.8 2.1-11.9 2.1c-5.3 0-11.7-1.1-19.2-3.3v-1.5c5.9 1.5 10.9 2.2 15.3 2.2 3 0 5.5-0.4 7.4-1.3s2.9-2 2.9-3.5c0-1.4-1-2.5-3-3.3s-4.8-1.2-8.2-1.2c-4.1-0.2-8.7 0.6-13.9 2.3zm40.8-3.8c0.2-0.8 0.3-1.6 0.3-2.4v-49.4c0-0.9-0.1-1.7-0.3-2.4h8.3c-0.2 0.7-0.3 1.5-0.3 2.4v17.7c1.6-2.1 3.4-3.7 5.2-4.6s4-1.4 6.6-1.4c4 0 7.1 1 9.3 3s3.3 4.8 3.3 8.4v26.4c0 0.8 0.1 1.6 0.3 2.4h-8.3c0.2-0.7 0.3-1.5 0.3-2.4v-23.9c0-2.9-0.6-5-1.8-6.4-1.2-1.3-3.1-2-5.7-2-3 0-5.3 0.8-6.8 2.5-1.6 1.8-2.3 4-2.3 6.6v23.2c0 0.9 0.1 1.7 0.3 2.4h-8.4zm61.8-23.4c-1 0.5-1.7 0.9-2.2 1.1s-2.4 0.9-5.9 2.2c-2.7 1-4.6 2.3-5.6 3.7-1.1 1.5-1.6 3.2-1.6 5 0 2.1 0.6 3.7 1.8 5s2.7 1.9 4.7 1.9c3 0 5.4-1.2 7.2-3.7 1.1-1.6 1.6-3.2 1.6-5zm0.2 18.2c-1.6 1.9-3 3.2-4.3 4-2.3 1.4-4.9 2-7.9 2s-5.5-0.9-7.3-2.7c-2.3-2.1-3.4-5-3.4-8.6 0-4.3 1.6-7.5 4.8-9.6 1.4-0.9 2.8-1.6 4-2.1 1.3-0.5 4.1-1.4 8.6-2.8 1.9-0.6 3.2-1.3 4-2.1s1.2-2 1.2-3.4c0-1.7-0.7-3-2-4.1-1.3-1-3.1-1.6-5.2-1.6-1.8 0-3.5 0.3-4.9 0.9s-3.2 1.7-5.3 3.3l-1.3-5c2.7-1.3 5-2.1 6.9-2.6s4.2-0.7 6.7-0.7c4 0 7.2 0.8 9.4 2.4s3.3 3.8 3.3 6.7v23.3c0 2.2 0.8 3.3 2.3 3.3 0.6 0 1.5-0.4 2.6-1.1v4.3c-2 1.3-4 2-5.8 2-1.9 0-3.4-0.4-4.3-1.3-0.8-0.8-1.6-2.3-2.1-4.5zm17.6-34.1h8.3c-0.2 0.8-0.3 1.6-0.3 2.5v34.4c0 0.8 0.1 1.6 0.3 2.4h-8.3c0.2-0.7 0.3-1.5 0.3-2.4v-34.4c0-1-0.1-1.8-0.3-2.5zm4.2-10.6c1.5 0 2.7 0.3 3.5 0.9s1.3 1.5 1.3 2.5c0 1.1-0.4 2-1.3 2.7-0.8 0.7-2 1-3.4 1-3.3 0-4.9-1.2-4.9-3.6 0-1.1 0.4-1.9 1.3-2.6 0.9-0.6 2-0.9 3.5-0.9z" fill="#231815"/>
</svg>
