<svg width="32" height="32" viewBox="0 0 32 32" fill="none" xmlns="http://www.w3.org/2000/svg">
    <path fill-rule="evenodd" clip-rule="evenodd" d="M12.2953 29.9217C12.2953 31.3589 10.9737 32.4166 9.69119 31.8395C3.98577 29.272 0 23.4213 0 16.6145C0 15.2971 0.149302 14.0155 0.431477 12.7866C0.777263 11.2806 2.57401 10.9315 3.63966 12.0259L11.664 20.2667C12.0682 20.6818 12.2953 21.2447 12.2953 21.8315V29.9217ZM8.32802 2.08351C7.19281 2.7317 7.09894 4.30019 8.01721 5.24323L14.4579 11.8582C15.3004 12.7234 17.0984 12.7234 17.9409 11.8582L24.3687 5.25678C25.2628 4.33853 25.203 2.8181 24.1269 2.1357C21.6594 0.570901 19.291 0 16.178 0C13.3294 0 10.6528 0.756087 8.32802 2.08351Z" fill="#00A0FF"/>
    <path fill-rule="evenodd" clip-rule="evenodd" d="M20.0608 29.8998C20.0608 31.337 21.3823 32.3947 22.6649 31.8176C28.3703 29.2501 32.356 23.3994 32.356 16.5926C32.356 15.2752 32.2067 13.9936 31.9246 12.7647C31.5788 11.2587 29.782 10.9096 28.7164 12.004L20.692 20.2448C20.2878 20.6599 20.0608 21.2228 20.0608 21.8096V29.8998Z" fill="#00A0FF"/>
</svg>
