<svg id="svg2364" xmlns="http://www.w3.org/2000/svg" width="600" height="600" viewBox="0 0 600 600">
  <defs>
    <style>
      .cls-1 {
        fill: #ea002a;
      }

      .cls-2 {
        fill: #fff;
      }
    </style>
  </defs>
  <path id="rect578" class="cls-1" d="M90,0H510a89.8,89.8,0,0,1,90,90V510a89.8,89.8,0,0,1-90,90H90A89.8,89.8,0,0,1,0,510V90A89.8,89.8,0,0,1,90,0Z"/>
  <path id="path6294" class="cls-2" d="M323.4,74.87c-15.23,0-30.46.69-45.65,1.85a499.66,499.66,0,0,0-57.82,7.71c-21.86,4.35-43.27,10-63.22,19.41-10.13,4.78-19.56,10.41-27.06,18.26-11.64,12.15-11.91,26.5-.08,38.52A85.72,85.72,0,0,0,145.37,173c14.92,9.3,31.78,14.92,49,19.61a407.47,407.47,0,0,0,54.9,10.72c7.11.91,14.26,1.59,21.6,2.38,11.78-36.63,23.49-73,35.21-109.39a1.54,1.54,0,0,0,.44.16c1.92,37,3.81,74,5.75,111.26,2.56.11,4.79.36,7,.3,14.41-.34,28.81-.56,43.16-1.24A463.36,463.36,0,0,0,428.14,199c21.38-4.1,42.31-9.5,62-18.24,11.66-5.22,22.71-11.25,31.06-20.55,7.38-8.21,10.54-17.31,6.35-27.66h0c-2.45-6.07-6.88-11-12.12-15.27-8.4-6.92-18.09-12-28.31-16.3-26.63-11.07-54.85-17.27-83.76-20.83-17.42-2.12-35-3.46-52.54-4.5q-13.72-.78-27.43-.75Zm-60.27,135.8a481.5,481.5,0,0,0-75.75,7.43c-24.15,4.47-47.66,10.7-69.73,20.89-14,6.5-27,14.25-36.84,25.65C71.9,275,68,286.53,72.36,299.53,76,310.34,84,318.45,93.43,325.42c16,11.72,34.46,19.23,53.77,25.25,20,6.22,40.55,10.22,61.42,13.07,3.27.43,6.52.75,9.79,1.08,16.57-51.5,33-102.72,49.61-154.15C266.14,210.67,264.65,210.64,263.13,210.67Zm49.57,1.24c2.66,51.45,5.27,102.5,7.9,153.76a26.21,26.21,0,0,0,4-.07c12.61-1.69,25.27-3.14,37.76-5.28,22.72-3.94,44.78-9.92,65.66-19,15.07-6.59,29.09-14.48,40-26.34,13.22-14.36,14.75-31.07,4.08-46.32-6.22-9-15-15.73-24.6-21.54h0c-18.1-10.92-38.14-17.85-58.88-23.27a418.55,418.55,0,0,0-60.74-10.67c-5-.54-9.91-.86-15.18-1.28Z"/>
  <g>
    <path class="cls-2" d="M142,495a21.08,21.08,0,0,1-8.59-8.38,25.13,25.13,0,0,1-3-12.5V448.2a25.09,25.09,0,0,1,3-12.49,21.1,21.1,0,0,1,8.59-8.39,26.74,26.74,0,0,1,12.86-3,27.06,27.06,0,0,1,12.91,3,21,21,0,0,1,8.64,8.39,25.08,25.08,0,0,1,3,12.49v25.93a25.12,25.12,0,0,1-3,12.5A21,21,0,0,1,167.8,495a27.06,27.06,0,0,1-12.91,3A26.74,26.74,0,0,1,142,495Zm25.41-8q4.73-4.74,4.73-12.55V448.1q0-7.82-4.73-12.6t-12.55-4.78q-7.72,0-12.45,4.78t-4.73,12.6v26.34q0,7.81,4.73,12.55t12.45,4.73Q162.7,491.72,167.44,487Z"/>
    <path class="cls-2" d="M240.58,425.16h5.24a.91.91,0,0,1,1,1v69.95a.91.91,0,0,1-1,1h-5.14a1.48,1.48,0,0,1-1.23-.72l-35.08-57.09c-.07-.21-.18-.29-.31-.26s-.21.16-.21.36l.11,56.68a.91.91,0,0,1-1,1h-5.25a.91.91,0,0,1-1-1V426.19a.91.91,0,0,1,1-1h5.14a1.51,1.51,0,0,1,1.24.72L239.14,483c.07.21.17.3.31.26s.2-.15.2-.36l-.1-56.68A.91.91,0,0,1,240.58,425.16Z"/>
    <path class="cls-2" d="M266.19,496.14V426.19a.91.91,0,0,1,1-1h5.25a.92.92,0,0,1,1,1v64.19a.36.36,0,0,0,.41.41h36.31a.92.92,0,0,1,1,1v4.32a.91.91,0,0,1-1,1h-43A.91.91,0,0,1,266.19,496.14Z"/>
    <path class="cls-2" d="M324.62,496.14V426.19a.91.91,0,0,1,1-1h5.24a.91.91,0,0,1,1,1v69.95a.91.91,0,0,1-1,1h-5.24A.91.91,0,0,1,324.62,496.14Z"/>
    <path class="cls-2" d="M395.19,425.16h5.24a.91.91,0,0,1,1,1v69.95a.91.91,0,0,1-1,1h-5.14a1.51,1.51,0,0,1-1.24-.72L359,439.36c-.07-.21-.18-.29-.31-.26s-.21.16-.21.36l.11,56.68a.91.91,0,0,1-1,1h-5.25a.91.91,0,0,1-1-1V426.19a.91.91,0,0,1,1-1h5.14a1.51,1.51,0,0,1,1.24.72L393.75,483c.06.21.17.3.3.26s.21-.15.21-.36l-.1-56.68A.91.91,0,0,1,395.19,425.16Z"/>
    <path class="cls-2" d="M464.93,431.54H427.08a.36.36,0,0,0-.41.41v25.41a.36.36,0,0,0,.41.41h26.54a.92.92,0,0,1,1,1v4.32a.91.91,0,0,1-1,1H427.08a.36.36,0,0,0-.41.41v25.82a.36.36,0,0,0,.41.41h37.85a.91.91,0,0,1,1,1v4.32a.91.91,0,0,1-1,1H420.39a.91.91,0,0,1-1-1V426.19a.91.91,0,0,1,1-1h44.54a.91.91,0,0,1,1,1v4.32A.91.91,0,0,1,464.93,431.54Z"/>
  </g>
</svg>
