<?xml version="1.0" encoding="UTF-8"?>
<svg preserveAspectRatio="xMidYMid" version="1.1" viewBox="0 0 256 160" xmlns="http://www.w3.org/2000/svg">
<path d="m50.042 6.6756e-4h63.779c8.9029 0 14.44 7.2566 12.363 16.189l-29.693 127.49c-2.0955 8.9014-11.009 16.164-19.918 16.164h-63.772c-8.8905 0-14.44-7.2629-12.363-16.164l29.706-127.49c2.0769-8.9325 10.986-16.189 19.9-16.189" fill="#E21836"/>
<path d="m108.51 6.6756e-4h73.344c8.9014 0 4.8875 7.2566 2.7935 16.189l-29.689 127.49c-2.0831 8.9014-1.4333 16.164-10.353 16.164h-73.344c-8.92 0-14.44-7.2629-12.345-16.164l29.687-127.49c2.108-8.9325 10.998-16.189 19.906-16.189" fill="#00447C"/>
<path d="m178.95 6.6756e-4h63.779c8.9154 0 14.453 7.2566 12.359 16.189l-29.689 127.49c-2.0955 8.9014-11.016 16.164-19.929 16.164h-63.749c-8.92 0-14.453-7.2629-12.363-16.164l29.693-127.49c2.0769-8.9325 10.98-16.189 19.9-16.189" fill="#007B84"/>
<path d="m66.698 40.856c-6.5587 0.066846-8.4956 0-9.1143-0.14613-0.23785 1.1302-4.6637 21.546-4.6761 21.563-0.95294 4.1304-1.6463 7.0748-4.0014 8.976-1.3369 1.1053-2.8977 1.6385-4.7072 1.6385-2.9086 0-4.603-1.4442-4.8875-4.1833l-0.054409-0.9405s0.88609-5.5326 0.88609-5.5637c0 0 4.645-18.605 5.4767-21.064 0.043527-0.13991 0.055964-0.21297 0.066846-0.27982-9.0413 0.079282-10.644 0-10.754-0.14613-0.060628 0.20054-0.28448 1.354-0.28448 1.354l-4.7429 20.969-0.40729 1.7784-0.78816 5.8171c0 1.7256 0.33889 3.134 1.0136 4.3248 2.1608 3.776 8.3246 4.3419 11.811 4.3419 4.4927 0 8.707-0.95449 11.555-2.6971 4.9435-2.921 6.2369-7.4867 7.3903-11.544l0.53477-2.0815s4.7849-19.323 5.5979-21.837c0.031092-0.13991 0.043528-0.21297 0.0855-0.27982zm16.28 15.588c-1.1535 0-3.2614 0.27982-5.1549 1.2079-0.68711 0.35288-1.3369 0.76018-2.0225 1.1659l0.61871-2.2339-0.33889-0.3762c-4.0154 0.81303-4.9139 0.92185-8.6231 1.4442l-0.31091 0.20676c-0.43061 3.5708-0.81303 6.2555-2.4096 13.274-0.60783 2.5868-1.239 5.1984-1.8717 7.779l0.171 0.32801c3.8009-0.20054 4.9544-0.20054 8.2578-0.14613l0.26738-0.2907c0.41973-2.1499 0.47414-2.6536 1.4038-7.0079 0.43683-2.0644 1.3478-6.6006 1.7971-8.2158 0.82547-0.38242 1.6401-0.75862 2.4173-0.75862 1.8515 0 1.6261 1.6152 1.5546 2.2588-0.079282 1.0804-0.75396 4.6092-1.4457 7.6391l-0.4617 1.9556c-0.32179 1.4442-0.67468 2.8479-0.99647 4.2797l0.13991 0.28604c3.7465-0.20054 4.8891-0.20054 8.0883-0.14613l0.3762-0.2907c0.57829-3.3578 0.74774-4.2564 1.7737-9.1454l0.51611-2.2463c1.0027-4.3963 1.5064-6.6255 0.74774-8.4412-0.80215-2.0349-2.7267-2.5261-4.4942-2.5261zm18.187 4.6029c-1.9914 0.38242-3.2614 0.63737-4.5237 0.80215-1.2514 0.20054-2.4717 0.38242-4.3963 0.6498l-0.15235 0.13836-0.13991 0.11037c-0.20054 1.4333-0.34045 2.6723-0.60628 4.1289-0.22541 1.5064-0.57208 3.2179-1.1364 5.6772-0.43683 1.8826-0.66224 2.5386-0.91097 3.2008-0.24251 0.66224-0.50989 1.3058-1.0011 3.1573l0.11504 0.171 0.096382 0.15701c1.7986-0.0855 2.9754-0.14613 4.1849-0.15701 1.2079-0.043528 2.4593 0 4.3963 0.010882l0.16945-0.13836 0.18188-0.15235c0.27982-1.6696 0.32179-2.1189 0.49279-2.9334 0.16945-0.87366 0.4617-2.0831 1.1784-5.3135 0.33889-1.5172 0.71665-3.0298 1.068-4.5782 0.36532-1.5421 0.74774-3.0609 1.1115-4.5782l-0.054409-0.18344-0.073064-0.16945zm0.042439-6.2061c-1.8095-1.068-4.9854-0.72908-7.123 0.74618-2.1313 1.4457-2.3738 3.4977-0.57052 4.5797 1.7784 1.0384 4.9668 0.72908 7.0856-0.75862 2.1266-1.4768 2.3925-3.5102 0.60783-4.5673zm10.943 24.734c3.661 0 7.4137-1.0089 10.238-4.003 2.1733-2.4282 3.1697-6.041 3.5148-7.5287 1.1239-4.931 0.24873-7.2333-0.85034-8.6355-1.6696-2.1375-4.6201-2.8231-7.681-2.8231-1.8406 0-6.2244 0.18188-9.6491 3.3392-2.4593 2.2774-3.5957 5.3679-4.2812 8.3308-0.69178 3.0189-1.4877 8.4537 3.5102 10.476 1.5421 0.66224 3.7651 0.84412 5.1984 0.84412zm-0.28604-11.095c0.84412-3.734 1.8406-6.868 4.3838-6.868 1.9929 0 2.1375 2.3318 1.2514 6.0783-0.15856 0.83168-0.88609 3.9237-1.8701 5.2404-0.68711 0.97159-1.5001 1.5608-2.3987 1.5608-0.26738 0-1.8577 0-1.8826-2.3614-0.012436-1.1659 0.22541-2.3567 0.51611-3.6501zm23.191 10.615l0.28604-0.2907c0.40574-2.1499 0.47258-2.6552 1.3711-7.0079 0.44926-2.0644 1.3789-6.6006 1.8157-8.2158 0.82702-0.38397 1.6276-0.76018 2.4298-0.76018 1.839 0 1.6152 1.6152 1.5421 2.2588-0.066847 1.082-0.74152 4.6092-1.4457 7.6391l-0.43683 1.9556c-0.33423 1.4457-0.69799 2.8479-1.0198 4.2812l0.13991 0.28604c3.7589-0.20054 4.858-0.20054 8.0759-0.14613l0.38864-0.2907c0.5643-3.3594 0.71665-4.2579 1.7737-9.1454l0.50368-2.2479c1.0073-4.3963 1.5172-6.6239 0.77106-8.4397-0.82547-2.0349-2.7624-2.5261-4.5051-2.5261-1.155 0-3.2739 0.27826-5.1564 1.2079-0.67312 0.35288-1.3478 0.75862-2.01 1.1659l0.57674-2.2339-0.30936-0.37776c-4.0139 0.81458-4.931 0.9234-8.6355 1.4457l-0.28448 0.20676c-0.44926 3.5708-0.81458 6.254-2.4111 13.274-0.60783 2.5868-1.239 5.1984-1.8701 7.779l0.16945 0.32801c3.8071-0.20054 4.9435-0.20054 8.2407-0.14613zm27.617 0.14535c0.23629-1.1535 1.6401-7.9904 1.6525-7.9904 0 0 1.1954-5.0165 1.2685-5.1984 0 0 0.3762-0.52233 0.7524-0.72908h0.55342c5.2217 0 11.118 0 15.74-3.3998 3.1449-2.3318 5.2948-5.7752 6.254-9.96 0.24873-1.026 0.43217-2.2463 0.43217-3.4666 0-1.6027-0.32179-3.1884-1.2514-4.4274-2.3567-3.2972-7.0499-3.3578-12.468-3.3827-0.0171 0-2.6707 0.024873-2.6707 0.024873-6.9349 0.0855-9.7159 0.060628-10.859-0.079282-0.096382 0.50523-0.27826 1.4038-0.27826 1.4038s-2.4842 11.513-2.4842 11.532c0 0-5.9446 24.478-6.2244 25.631 6.055-0.073064 8.5376-0.073064 9.5823 0.041973zm4.603-20.452s2.6412-11.49 2.6287-11.446l0.085499-0.58917 0.03731-0.44927 1.0555 0.10882s5.4471 0.46792 5.5746 0.48036c2.1499 0.83168 3.036 2.9754 2.4173 5.7736-0.5643 2.5572-2.223 4.7072-4.3543 5.7456-1.7551 0.87988-3.905 0.95294-6.1203 0.95294h-1.4333l0.10882-0.57674zm16.445 9.9045c-0.69799 2.9754-1.5001 8.4101 3.4729 10.347 1.5856 0.67468 3.0065 0.87521 4.4507 0.80215 1.525-0.082392 2.9381-0.84723 4.247-1.9479-0.11814 0.45237-0.23629 0.90475-0.35444 1.3587l0.22541 0.2907c3.577-0.15079 4.687-0.15079 8.5625-0.12126l0.35133-0.26738c0.56586-3.3267 1.0991-6.5571 2.5697-12.921 0.71665-3.0485 1.4317-6.0674 2.167-9.1035l-0.11504-0.33423c-4.0014 0.74152-5.0709 0.90009-8.92 1.4457l-0.29226 0.23785c-0.038864 0.30936-0.079282 0.60628-0.11659 0.90319-0.5985-0.96693-1.4659-1.7924-2.8044-2.307-1.7116-0.67312-5.7316 0.19432-9.1874 3.3407-2.4282 2.2463-3.5941 5.3243-4.2564 8.2764zm8.4039 0.18188c0.85656-3.6672 1.8406-6.7701 4.3901-6.7701 1.6121 0 2.4609 1.4877 2.2883 4.0247-0.1368 0.6327-0.28448 1.2996-0.46015 2.0536-0.25494 1.0897-0.53166 2.1702-0.80059 3.2521-0.2736 0.73997-0.59228 1.438-0.94206 1.9028-0.65602 0.92962-2.2168 1.5064-3.1153 1.5064-0.25495 0-1.8282 0-1.8826-2.3194-0.012437-1.155 0.22541-2.3443 0.52233-3.6501zm43.886-12.109l-0.30936-0.35288c-3.9594 0.80215-4.6761 0.92962-8.3137 1.4209l-0.26738 0.26738c-0.012435 0.043528-0.023318 0.11037-0.041972 0.171l-0.012437-0.060628c-2.708 6.2477-2.6287 4.8999-4.8331 9.8185-0.012437-0.22386-0.012437-0.36376-0.024872-0.60161l-0.55187-10.663-0.34666-0.35288c-4.1475 0.80215-4.2455 0.92962-8.0759 1.4209l-0.29847 0.26738c-0.041974 0.12747-0.041974 0.26738-0.066846 0.41973l0.024872 0.05441c0.4788 2.4469 0.36376 1.9012 0.84412 5.7627 0.22386 1.895 0.52233 3.8009 0.74618 5.6726 0.37776 3.1324 0.58918 4.6745 1.0509 9.4548-2.5868 4.2688-3.1993 5.884-5.6897 9.6304l0.0171 0.037309-1.7535 2.7733c-0.20054 0.29226-0.38242 0.49279-0.63737 0.57829-0.27982 0.13836-0.64358 0.16323-1.1488 0.16323h-0.97159l-1.4442 4.8036 4.9544 0.0855c2.9086-0.012436 4.7367-1.3727 5.7207-3.2008l3.1153-5.3383h-0.049746l0.32801-0.3762c2.0955-4.5113 18.036-31.856 18.036-31.856zm-52.29 63.088h-2.1018l7.779-25.729h2.5806l0.81925-2.6505 0.079282 2.9474c-0.096382 1.8219 1.3369 3.4371 5.102 3.1697h4.3543l1.4986-4.9544h-1.6385c-0.94206 0-1.3789-0.23785-1.3245-0.74774l-0.079283-2.9987h-8.0635v0.015546c-2.607 0.05441-10.392 0.25028-11.968 0.67001-1.9074 0.49124-3.9175 1.937-3.9175 1.937l0.78971-2.6536h-7.5427l-1.5717 5.2653-7.8831 26.123h-1.5297l-1.5001 4.9186h15.023l-0.50368 1.6401h7.4028l0.49124-1.6401h2.0769l1.6276-5.3119zm-6.1638-20.501c-1.2079 0.33423-3.4558 1.3478-3.4558 1.3478l1.9992-6.5758h5.9928l-1.4457 4.7911s-1.8515 0.10882-3.0904 0.43683zm0.11504 9.3942s-1.8826 0.23629-3.1215 0.51611c-1.2203 0.36998-3.5086 1.5359-3.5086 1.5359l2.0644-6.8431h6.0239l-1.4582 4.7911zm-3.3578 11.168h-6.0114l1.7427-5.7752h5.9928l-1.724 5.7752zm14.477-15.959h8.6651l-1.2452 4.0325h-8.7801l-1.3183 4.4087h7.6826l-5.8171 8.1909c-0.40729 0.60161-0.77261 0.81458-1.1784 0.98403-0.40729 0.20676-0.94206 0.44926-1.5608 0.44926h-2.1313l-1.4644 4.8284h5.5746c2.8977 0 4.6092-1.3183 5.8731-3.0485l3.989-5.4596 0.85656 5.5435c0.18188 1.0384 0.92807 1.6463 1.4333 1.8826 0.55808 0.27982 1.1348 0.76018 1.9494 0.83168 0.87366 0.037309 1.5048 0.066846 1.9245 0.066846h2.7391l1.6447-5.4036h-1.0804c-0.62027 0-1.6882-0.10416-1.8701-0.29847-0.18188-0.23629-0.18188-0.60006-0.27982-1.1535l-0.86899-5.556h-3.5584l1.5608-1.8577h8.763l1.3478-4.4087h-8.1132l1.2638-4.0325h8.0883l1.5001-4.973h-24.114l-1.4753 4.973zm-73.185 17.082l2.0225-6.7281h8.3122l1.5188-5.0041h-8.32l1.2701-4.1413h8.1303l1.5064-4.8455h-20.343l-1.4753 4.8455h4.6217l-1.2328 4.1413h-4.6341l-1.5359 5.0896h4.6201l-2.6956 8.9014c-0.36376 1.1784 0.171 1.6276 0.50989 2.1748 0.34666 0.53321 0.69799 0.88609 1.4877 1.0866 0.81458 0.18188 1.3727 0.2907 2.1313 0.2907h9.3708l1.6696-5.5435-4.1538 0.57052c-0.80215 0-3.0236-0.096382-2.7811-0.8379zm0.95341-32.208l-2.1064 3.8071c-0.45082 0.83168-0.85656 1.3478-1.2219 1.5856-0.32179 0.20054-0.95916 0.28448-1.8826 0.28448h-1.0991l-1.4691 4.8704h3.6501c1.7551 0 3.1029-0.64358 3.7465-0.96538 0.69178-0.36998 0.87366-0.15856 1.4084-0.67468l1.2328-1.068h11.398l1.5126-5.0709h-8.3433l1.4566-2.7687h-8.2826zm16.827 32.306c-0.19432-0.27982-0.054409-0.77261 0.24251-1.7986l3.1153-10.311h11.082c1.6152-0.023318 2.7811-0.041973 3.5397-0.096382 0.81458-0.085501 1.7007-0.3762 2.6661-0.89853 0.99647-0.5472 1.5064-1.1239 1.937-1.7862 0.48036-0.66068 1.2514-2.1064 1.9137-4.3356l3.9159-13.049-11.501 0.066846s-3.5413 0.52233-5.1005 1.0991c-1.5732 0.64358-3.8211 2.4406-3.8211 2.4406l1.0384-3.577h-7.1043l-9.946 32.986c-0.35288 1.2809-0.58918 2.2106-0.64358 2.7687-0.018655 0.60161 0.75862 1.197 1.2623 1.6463 0.59539 0.44927 1.4753 0.3762 2.3194 0.44927 0.88765 0.066846 2.1499 0.10882 3.8926 0.10882h5.4596l1.6758-5.6586-4.8875 0.4617c-0.52233 0-0.90008-0.27982-1.0571-0.51611zm5.3679-19.074h11.64l-0.73997 2.3194c-0.10416 0.054409-0.35288-0.11504-1.5375 0.024873h-10.08l0.71665-2.3443zm2.3318-7.779h11.738l-0.84412 2.7935s-5.5326-0.054409-6.4187 0.10882c-3.8988 0.67468-6.1762 2.7578-6.1762 2.7578l1.7007-5.6601zm8.8292 17.865c-0.096382 0.34666-0.24873 0.55808-0.4617 0.71665-0.23629 0.15235-0.61871 0.20676-1.1892 0.20676h-1.6587l0.097937-2.8246h-6.8991l-0.27982 13.809c-0.010882 0.99647 0.0855 1.5732 0.81458 2.0349 0.72908 0.57674 2.9754 0.6498 5.999 0.6498h4.3232l1.5608-5.1689-3.7636 0.20676-1.2514 0.073064c-0.171-0.073064-0.33423-0.13991-0.51611-0.32179-0.15856-0.15701-0.42595-0.060627-0.38242-1.0571l0.029536-3.5397 3.947-0.16323c2.1313 0 3.0423-0.69333 3.8195-1.354 0.74152-0.6327 0.98403-1.3602 1.2639-2.3443l0.66224-3.134h-5.4238l-0.69178 2.2106z" fill="#FEFEFE"/>
</svg>
