<?xml version="1.0" encoding="UTF-8"?>
<svg width="243.44" height="243.44" version="1.1" viewBox="0 0 243.43881 243.44179" xml:space="preserve" xmlns="http://www.w3.org/2000/svg" xmlns:cc="http://creativecommons.org/ns#" xmlns:dc="http://purl.org/dc/elements/1.1/" xmlns:rdf="http://www.w3.org/1999/02/22-rdf-syntax-ns#"><metadata><rdf:RDF><cc:Work rdf:about=""><dc:format>image/svg+xml</dc:format><dc:type rdf:resource="http://purl.org/dc/dcmitype/StillImage"/><dc:title/></cc:Work></rdf:RDF></metadata><g transform="matrix(1.3333 0 0 -1.3333 -.38385 246.94)"><path d="m182.87 93.912c0 50.419-40.871 91.292-91.29 91.292-50.42 0-91.289-40.873-91.289-91.292 0-48.509 37.432-88.232 85.178-91.289v70.663c-8.784 2.6735-15.278 10.696-15.278 20.626 0 11.461 9.5492 21.009 21.39 21.009 11.841 0 21.391-9.548 21.391-21.009 0-9.9301-6.492-17.952-15.661-20.626v-70.663c47.747 3.0566 85.56 42.78 85.56 91.289" fill="#00b6f0" fill-rule="evenodd"/></g></svg>
