<?xml version="1.0" encoding="UTF-8"?>
<svg width="709.33" height="248" version="1.1" viewBox="0 0 709.33331 248" xml:space="preserve" xmlns="http://www.w3.org/2000/svg" xmlns:cc="http://creativecommons.org/ns#" xmlns:dc="http://purl.org/dc/elements/1.1/" xmlns:rdf="http://www.w3.org/1999/02/22-rdf-syntax-ns#"><metadata><rdf:RDF><cc:Work rdf:about=""><dc:format>image/svg+xml</dc:format><dc:type rdf:resource="http://purl.org/dc/dcmitype/StillImage"/><dc:title/></cc:Work></rdf:RDF></metadata><g transform="matrix(1.3333 0 0 -1.3333 0 248)"><g transform="scale(.1)"><path d="m1828.7 939.12c0 504.19-408.71 912.92-912.9 912.92-504.2 0-912.89-408.73-912.89-912.92 0-485.09 374.32-882.32 851.78-912.89v706.63c-87.84 26.735-152.78 106.96-152.78 206.26 0 114.61 95.492 210.09 213.9 210.09 118.41 0 213.91-95.48 213.91-210.09 0-99.301-64.92-179.52-156.61-206.26v-706.63c477.47 30.566 855.6 427.8 855.6 912.89" fill="#00b6f0" fill-rule="evenodd"/><path d="m3122.2 1319.7c55.32 110.65 110.65 221.31 165.98 331.96-314.21 293.78-911.11 280.81-1105.7-139.73-51.86-112.1-50.05-236.33-0.58-366.9 23.89-63.02 66.85-141.6 135.09-197.92 34.87-28.789 168.84-95.141 277.15-144.24 101.33-45.938 240.82-78.914 304.86-169.48 73.19-103.49 27.99-231.28-141.77-254.55-95.13-13.031-236.73 26.516-447.76 196.8-74.41-97.305-148.81-194.6-223.22-291.9 709.83-619.03 1365-77.051 1211.5 404.66-39 122.36-119.24 216.46-218.64 288.27-153.75 111.04-314.27 141.14-421.43 187.84-200.78 87.52-172.45 333.88 105.98 318.84 176.21-9.51 232.82-59.83 358.53-163.67" fill="#271e79" fill-rule="evenodd"/><path d="m3122.2 1319.7c55.32 110.65 110.65 221.31 165.98 331.96-314.21 293.78-911.11 280.81-1105.7-139.73-51.86-112.1-50.05-236.33-0.58-366.9 23.89-63.02 66.85-141.6 135.09-197.92 34.87-28.789 168.84-95.141 277.15-144.24 101.33-45.938 240.82-78.914 304.86-169.48 73.19-103.49 27.99-231.28-141.77-254.55-95.13-13.031-236.73 26.516-447.76 196.8-74.41-97.305-148.81-194.6-223.22-291.9 709.83-619.03 1365-77.051 1211.5 404.66-39 122.36-119.24 216.46-218.64 288.27-153.75 111.04-314.27 141.14-421.43 187.84-200.78 87.52-172.45 333.88 105.98 318.84 176.21-9.51 232.82-59.83 358.53-163.67z" fill="none" stroke="#000" stroke-miterlimit="22.926" stroke-width=".9978"/><path d="m3482 1852.8h688.25c231.38 0 502.67-201.05 502.67-441.07 0-55.46 3.83-97.03 0.03-161.43-7.52-127.38-125.05-270.34-200.79-270.34 117.87 0 235.63-168.84 264.54-285.71 70.23-283.84-78.9-688.08-566.45-688.08h-688.25zm369.14-336.97h270.44c101.52 0 184.58-86.16 184.58-191.49v-27.43c0-90.23-71.16-164.05-158.13-164.05h-111.61v-341.42h130.22c117.66 0 213.92-99.86 213.92-221.92v-0.011c0-122.06-96.26-221.91-213.92-221.91h-315.5v1168.2" fill="#271e79" fill-rule="evenodd"/><path d="m3482 1852.8h688.25c231.38 0 502.67-201.05 502.67-441.07 0-55.46 3.83-97.03 0.03-161.43-7.52-127.38-125.05-270.34-200.79-270.34 117.87 0 235.63-168.84 264.54-285.71 70.23-283.84-78.9-688.08-566.45-688.08h-688.25zm369.14-336.97h270.44c101.52 0 184.58-86.16 184.58-191.49v-27.43c0-90.23-71.16-164.05-158.13-164.05h-111.61v-341.42h130.22c117.66 0 213.92-99.86 213.92-221.92v-0.011c0-122.06-96.26-221.91-213.92-221.91h-315.5v1168.2z" fill="none" stroke="#000" stroke-miterlimit="22.926" stroke-width=".9978"/><path d="m4920.7 1852.8h389.2v-1846.6h-389.2v1846.6" fill="#271e79" fill-rule="evenodd"/><path d="m4920.7 1852.8h389.2v-1846.6h-389.2z" fill="none" stroke="#000" stroke-miterlimit="22.926" stroke-width=".9978"/></g></g></svg>
