<?xml version="1.0" encoding="UTF-8"?>
<svg version="1.1" viewBox="0 0 119.41 121.61" xmlns="http://www.w3.org/2000/svg" xmlns:cc="http://creativecommons.org/ns#" xmlns:dc="http://purl.org/dc/elements/1.1/" xmlns:rdf="http://www.w3.org/1999/02/22-rdf-syntax-ns#">
<metadata>
<rdf:RDF>
<cc:Work rdf:about="">
<dc:format>image/svg+xml</dc:format>
<dc:type rdf:resource="http://purl.org/dc/dcmitype/StillImage"/>
<dc:title/>
</cc:Work>
</rdf:RDF>
</metadata>
<g transform="matrix(3.0897 0 0 -3.0897 82.767 94.714)" fill="#00a4e4">
<path d="m0 0s0.222 0.402 0.341-0.171c0 0 0.241-3.098-1.593-4.989-1.221-1.262-4.032-3.067-7.219-2.278 0 0 5.092 0.35 6.39 5.395l0.142 0.567s1.281 0.324 1.939 1.476m-6.188 29.472c-3e-3 -5e-3 -3e-3 -0.012-3e-3 -0.014-0.03-0.258 0.14-0.486 0.377-0.514 0.21-0.031 0.4 0.113 0.461 0.324 0.116-0.088 0.216-0.182 0.297-0.26-0.456-4e-3 -0.528-0.237-0.918-0.154-0.205 0.037-0.419 0.265-0.429 0.546 0.088 0.042 0.111 0.051 0.215 0.072m0.322 0.017c0.084-0.01 0.168-0.036 0.247-0.066 0.01-0.029 0.02-0.06 0.02-0.094 0-0.106-0.08-0.193-0.176-0.193-0.097 0-0.177 0.087-0.177 0.193 0 0.066 0.036 0.124 0.086 0.16m17.484-13.913c-0.01 0.059-0.018 0.113-0.031 0.173 0 0-0.066 0.32-0.261 0.827-0.032 0.084-0.062 0.156-0.091 0.219v1e-3c-0.012 0.033-0.026 0.062-0.037 0.088-0.351 0.812-0.99 1.951-2.113 3.061 0 0 1.184 0.093-0.119 1.53 0 0-2.156 2.531-6.301 4.448-2.229 1.028-4.723 0.603-4.488-1.884 0.162-1.744-1.464-2.411-2.745-2.25-1.503 0.188-2.408 1.419-2.167 2.432 0.252 1.085 0.822 1.923 1.668 2.572 0.572 0.444 0.974 0.754 2.015 0.966 0.633 0.134 1.464 0.336 1.689-0.381 0.434 0.23 1.205 1.677-1.301 1.7 0 0-0.378 0.811-1.221 0.645 0 0-2.494 2.445-5.27-0.587 0 0-1.092-0.43-1.152-0.014 0.248-0.194 0.649 0.399 0.101 0.604-0.261 0.1-0.562-0.176-0.609-0.439-0.037-0.203 0.023-0.649 0.57-0.732 0.149-0.027 0.411 0 0.411 0l-0.184-0.218c-0.828-0.356-1.632-0.077-1.786 0.51 0.192-0.113 0.408 0.031 0.473 0.245 0.068 0.219-0.091 0.524-0.411 0.572-0.451 0.066-0.665-0.459-0.568-0.918 0.147-0.711 0.859-1.217 1.777-1.092l-0.158-0.24s-0.921-1.148-1.665-2.454c-0.764-1.324-3.862-2.785-3.333 0.372 0.168 1-1.504 2.205-4.416 0.205-1.551-1.07-3.464-2.676-4.875-5.274 0 0-0.63-0.99 0.411-1.024 0 0-2.126-1.01-2.211-5.776l-8e-3 -1e-3s2e-3 -0.189 5e-3 -0.466c4e-3 -0.161 7e-3 -0.327 0.013-0.494 0.016-0.531 0.041-1.162 0.091-1.498 0 0 0.236-2.872 0.733-3.38 0 0 0.025-0.01 0.059-0.015 0.148-0.134 0.354-0.155 0.618 0.123 2e-3 1e-3 5e-3 4e-3 0.01 6e-3 5e-3 -0.036 0.638-3.258 1.973-5.957 1.062-2.137 3.036-5.272 2.262-6.034-0.768-0.758-1.852 0.751-1.685 0.146 0.361-1.285 1.68-1.47 2.39-0.91 1.836 1.449-0.85 4.926-1.686 9.349 1.75 0.753 1.682 3.527 1.682 3.527s2.508 0.06 3.279 3.028c0 0 3.022-0.866 4.461 1.772 0 0-4e-3 0.019-0.012 0.054 0.016 0.014 0.025 0.024 0.04 0.038 0.297-0.919 0.9-1.747 1.683-2.45 0 0-0.154-1.287-1.569-1.739 0 0-1.735 0.739-3.609 0-1.722-0.674-1.028-2.535 0.223-2.087-0.378 0.203-0.489 0.819 0.119 0.949 0.161-0.133 0.325-0.208 0.486-0.24v-8e-3c0.02 8e-3 1.554-0.275 2.614 0.146 0.077 0.023 0.152 0.055 0.226 0.102 6e-3 7e-3 0.02 8e-3 0.028 0.012l-6e-3 5e-3c0.099 0.063 0.193 0.145 0.283 0.247 0.393-0.024 0.637-0.623 0.097-0.901 1.049-0.228 1.425 0.877 0.992 1.471 0 0 0.248 0.162 0.521 0.392 0 0 0.327 0.321 0.577 0.696 0 0 1.025-0.816 2.934-1.274 0 0-0.995-1.655-2.471-1.975 0 0-2.094 0.682-3.51-0.196 0 0-0.765-0.404-0.644-1.249 0.091-0.632 0.596-1.076 1.352-0.969-0.31 0.149-0.988 0.919-0.125 1.252 0.15-0.238 0.36-0.366 0.597-0.423-2e-3 -5e-3 -5e-3 -0.01-5e-3 -0.01s1.315-0.307 2.932 0.371c0.065 0.021 0.124 0.045 0.178 0.076 0.019 8e-3 0.041 0.013 0.061 0.026 0 0-2e-3 3e-3 -2e-3 6e-3 0.104 0.069 0.186 0.148 0.217 0.245 0.411 0.074 1.005-0.128 0.783-0.917 0.491 0.075 1.288 0.974 0.116 1.685 0 0 0.697 0.342 1.253 0.844l0.836 0.854c1.643-0.242 2.899-1.803 2.899-3.706 0-1.562-1.334-3.406-2.748-3.78 0.052 0.016 0.104 0.028 0.148 0.044l-0.179-0.052c7e-3 3e-3 0.021 5e-3 0.031 8e-3 -0.219-0.049-0.467-0.075-0.771-0.061-1.451 0.05-0.593 1.74-0.593 1.74-0.212 0.024-0.451-0.047-0.658-0.282-0.23-0.266-0.314-0.783-0.24-1.3-0.074 0.022-0.141 0.044-0.199 0.069-1.279 0.547-1.178 1.509-1.178 1.509-0.342-0.145-0.594-0.587-0.442-1.313 0.208-0.972 1.441-1.394 2.425-1.513 0.594-0.567 1.486-1.16 3.58-0.82 0 0-0.93-4.863-7.096-4.652 0 0-1.881 0.702-1.817 2.254 0.086 2.099 1.535 2.845 1.535 2.845-0.537 0.059-1.828-0.062-2.421-1.811-0.258-0.782-0.203-2.07 0.517-2.959-2.329 0.618-4.088 2.383-3.383 4.786 0.114 0.384 0.342 0.782 0.643 1.102 1.754 1.653 4.362 0.651 4.362 0.651-0.1 0.569-0.847 1.353-2.139 1.43-1.354 0.079-3.891-0.748-4.078-3.816-0.175-2.842 1.622-4.89 6.086-5.521l0.058-0.056s2.713-1.918 6.551-0.892c0 0 7.735 1.595 6.085 10.406 0 0 1.819 5.865-1.993 9.238 2.359-1.927 5.187-0.806 5.187-0.806-0.205-5.344 2.089-6.023 2.089-6.023l0.073 0.044s-4.236-9.163-1.783-10.324c0.854-0.403 1.848-0.207 2.358 0.875 0.417 0.894-0.926-0.86-1.701-0.096-0.926 0.906 0.215 3.129 1.341 5.42 1.56 3.156 2.615 5.475 2.824 7.027 0 0 0.229-0.16 0.491-0.035 0.011-0.012 0.021-0.022 0.031-0.023 0.605 0.156 1.006 2.691 1.068 3.107 0.451 2.321 0.292 4.055 0.043 5.17" fill="#00a4e4"/>
</g>
</svg>
