<?xml version="1.0" encoding="UTF-8"?>
<svg enable-background="new 0 0 258.381 161.154" version="1.1" viewBox="0 0 1000 323.65" xml:space="preserve" xmlns="http://www.w3.org/2000/svg" xmlns:cc="http://creativecommons.org/ns#" xmlns:dc="http://purl.org/dc/elements/1.1/" xmlns:rdf="http://www.w3.org/1999/02/22-rdf-syntax-ns#"><metadata><rdf:RDF><cc:Work rdf:about=""><dc:format>image/svg+xml</dc:format><dc:type rdf:resource="http://purl.org/dc/dcmitype/StillImage"/><dc:title/></cc:Work></rdf:RDF></metadata>
<g transform="matrix(4.43 0 0 4.43 -81.166 -105.05)"><polygon points="116.14 95.719 97.858 95.719 109.3 24.995 127.58 24.995" fill="#00579f"/><path d="m182.44 26.724c-3.607-1.431-9.328-3.011-16.402-3.011-18.059 0-30.776 9.63-30.854 23.398-0.15 10.158 9.105 15.8 16.027 19.187 7.075 3.461 9.48 5.72 9.48 8.805-0.072 4.738-5.717 6.922-10.982 6.922-7.301 0-11.213-1.126-17.158-3.762l-2.408-1.13-2.559 15.876c4.289 1.954 12.191 3.688 20.395 3.764 19.188 0 31.68-9.481 31.828-24.153 0.073-8.051-4.814-14.22-15.35-19.261-6.396-3.236-10.313-5.418-10.313-8.729 0.075-3.01 3.313-6.093 10.533-6.093 5.945-0.151 10.313 1.278 13.622 2.708l1.654 0.751 2.487-15.272z" fill="#00579f"/><path d="m206.74 70.664c1.506-4.063 7.301-19.788 7.301-19.788-0.076 0.151 1.503-4.138 2.406-6.771l1.278 6.094s3.463 16.929 4.215 20.465h-15.2zm22.573-45.669h-14.145c-4.362 0-7.676 1.278-9.558 5.868l-27.163 64.855h19.188s3.159-8.729 3.838-10.609h23.479c0.525 2.483 2.182 10.609 2.182 10.609h16.932l-14.753-70.723z" fill="#00579f"/><path d="m82.584 24.995-17.909 48.227-1.957-9.781c-3.311-11.286-13.695-23.548-25.283-29.645l16.404 61.848h19.338l28.744-70.649h-19.337z" fill="#00579f"/><path d="m48.045 24.995h-29.422l-0.301 1.429c22.951 5.869 38.151 20.016 44.396 37.02l-6.396-32.504c-1.053-4.517-4.289-5.796-8.277-5.945z" fill="#faa61a"/></g>
</svg>
