<?xml version="1.0" encoding="UTF-8" standalone="no"?>
<!-- Created with Inkscape (http://www.inkscape.org/) -->

<svg
   xmlns:dc="http://purl.org/dc/elements/1.1/"
   xmlns:cc="http://creativecommons.org/ns#"
   xmlns:rdf="http://www.w3.org/1999/02/22-rdf-syntax-ns#"
   xmlns:svg="http://www.w3.org/2000/svg"
   xmlns="http://www.w3.org/2000/svg"
   xmlns:sodipodi="http://sodipodi.sourceforge.net/DTD/sodipodi-0.dtd"
   xmlns:inkscape="http://www.inkscape.org/namespaces/inkscape"
   id="svg3355"
   version="1.1"
   inkscape:version="0.91 r13725"
   xml:space="preserve"
   width="217.28751"
   height="109.6"
   viewBox="0 0 217.2875 109.6"
   sodipodi:docname="icon.svg"><metadata
     id="metadata3361"><rdf:RDF><cc:Work
         rdf:about=""><dc:format>image/svg+xml</dc:format><dc:type
           rdf:resource="http://purl.org/dc/dcmitype/StillImage" /><dc:title></dc:title></cc:Work></rdf:RDF></metadata><defs
     id="defs3359" /><sodipodi:namedview
     pagecolor="#ffffff"
     bordercolor="#666666"
     borderopacity="1"
     objecttolerance="10"
     gridtolerance="10"
     guidetolerance="10"
     inkscape:pageopacity="0"
     inkscape:pageshadow="2"
     inkscape:window-width="2560"
     inkscape:window-height="1390"
     id="namedview3357"
     showgrid="false"
     fit-margin-top="0"
     fit-margin-left="0"
     fit-margin-right="0"
     fit-margin-bottom="0"
     inkscape:zoom="1.2141414"
     inkscape:cx="108.644"
     inkscape:cy="13.235254"
     inkscape:window-x="0"
     inkscape:window-y="0"
     inkscape:window-maximized="1"
     inkscape:current-layer="g3363" /><g
     id="g3363"
     inkscape:groupmode="layer"
     inkscape:label="logo"
     transform="matrix(1.25,0,0,-1.25,-273.856,591.36475)"><g
       id="g3373"
       transform="translate(353.2578,437.5103)"><path
         d="m 0,0 0,-16.517 21.864,0 C 18.355,-27.558 8.007,-35.58 -4.183,-35.58 c -10.027,0 -21.439,5.449 -27.911,13.578 -3.012,-5.163 -6.2,-9.859 -9.55,-14.06 9.793,-9.919 24.079,-16.036 37.461,-16.036 24.173,0 43.84,19.667 43.84,43.84 L 39.657,0 0,0 Z"
         style="fill:#3c7ec9;fill-opacity:1;fill-rule:nonzero;stroke:none"
         id="path3375"
         inkscape:connector-curvature="0" /></g><g
       id="g3377"
       transform="translate(353.2578,472.8828)"><path
         d="m 0,0 c -1.381,0.133 -2.775,0.209 -4.183,0.209 -11.265,0 -21.496,-4.34 -30.406,-12.896 -6.807,-6.535 -12.814,-15.45 -18.365,-27.248 -10.957,-20.583 -23.533,-31.018 -37.379,-31.018 -15.064,0 -27.322,12.258 -27.322,27.322 0,15.065 12.258,27.322 27.322,27.322 5.477,0.001 10.757,-1.612 15.27,-4.661 l 9.247,13.686 c -7.255,4.901 -15.733,7.493 -24.517,7.493 -24.174,0 -43.84,-19.667 -43.84,-43.84 0,-24.173 19.666,-43.84 43.84,-43.84 11.211,0 21.724,4.183 31.246,12.43 7.621,6.601 14.625,15.866 20.817,27.541 l 0.183,0.364 c 9.724,20.743 20.814,30.827 33.904,30.827 1.417,0 2.813,-0.115 4.183,-0.328 L 0,0 Z"
         style="fill:#152d57;fill-opacity:1;fill-rule:nonzero;stroke:none"
         id="path3379"
         inkscape:connector-curvature="0" /></g></g></svg>