<?xml version="1.0" encoding="utf-8"?>
<!-- Generator: Adobe Illustrator 22.1.0, SVG Export Plug-In . SVG Version: 6.00 Build 0)  -->
<svg version="1.1" id="Capa_1" xmlns="http://www.w3.org/2000/svg" xmlns:xlink="http://www.w3.org/1999/xlink" x="0px" y="0px"
	 viewBox="0 0 200 200" style="enable-background:new 0 0 200 200;" xml:space="preserve">
<style type="text/css">
	.st0{fill:#0078BE;}
	.st1{fill-rule:evenodd;clip-rule:evenodd;fill:#FBBC1C;}
</style>
<path class="st0" d="M188,200H12c-6.6,0-12-5.4-12-12V12C0,5.4,5.4,0,12,0h176c6.6,0,12,5.4,12,12v176C200,194.6,194.6,200,188,200z
	"/>
<g>
	<path class="st1" d="M100,78c3.1,0,5.7-1.6,6.1-3.8l3.1-35.2c0-3.5-4.1-6.3-9.2-6.3c-5.1,0-9.2,2.9-9.2,6.3l3.1,35.2
		C94.2,76.4,96.9,78,100,78L100,78L100,78z"/>
	<path class="st1" d="M80.9,89c1.6-2.7,1.5-5.8-0.2-7.2l-29-20.3c-3-1.7-7.5,0.4-10.1,4.8c-2.6,4.4-2.1,9.4,0.9,11.1l32.1,14.9
		C76.6,93.1,79.4,91.7,80.9,89L80.9,89L80.9,89z"/>
	<path class="st1" d="M119,89c1.6,2.7,4.3,4.2,6.3,3.4l32.1-14.9c3-1.7,3.4-6.7,0.9-11.1c-2.6-4.4-7.1-6.5-10.1-4.8l-29,20.3
		C117.6,83.2,117.5,86.3,119,89L119,89L119,89z"/>
	<path class="st1" d="M100,122c3.1,0,5.7,1.6,6.1,3.8l3.1,35.2c0,3.5-4.1,6.3-9.2,6.3c-5.1,0-9.2-2.9-9.2-6.3l3.1-35.2
		C94.2,123.6,96.9,122,100,122L100,122L100,122z"/>
	<path class="st1" d="M119,111c1.6-2.7,4.3-4.2,6.3-3.4l32.1,14.9c3,1.7,3.4,6.7,0.9,11.1c-2.6,4.4-7.1,6.5-10.1,4.8l-29-20.3
		C117.6,116.8,117.5,113.7,119,111L119,111L119,111z"/>
	<path class="st1" d="M80.9,111c1.6,2.7,1.5,5.8-0.2,7.2l-29,20.3c-3,1.7-7.5-0.4-10.1-4.8c-2.6-4.4-2.1-9.4,0.9-11.2l32.1-14.9
		C76.6,106.8,79.4,108.3,80.9,111L80.9,111L80.9,111z"/>
</g>
</svg>
