<svg xmlns="http://www.w3.org/2000/svg" width="365" height="349" xmlns:v="https://vecta.io/nano"><path d="M182.5 0C283 0 365 78.4 365 174.5S283 349 182.5 349 0 270.6 0 174.5 82 0 182.5 0" fill="#fff"/><g fill="#059b4e"><path d="M182.2 15.9V17c45.4 0 86.6 17.7 116.4 46.2s48.3 67.8 48.3 111.2c0 43.3-18.5 82.6-48.3 111.2-29.8 28.5-71 46.2-116.4 46.2s-86.6-17.7-116.4-46.2C36 257 17.5 217.7 17.5 174.3 17.5 131 36 91.7 65.8 63.1c29.8-28.5 71-46.2 116.4-46.2v-1-1.1c-46 0-87.7 17.9-117.9 46.8s-49 68.8-49 112.8 18.8 83.9 49 112.8 72 46.8 117.9 46.8c46 0 87.7-17.9 117.9-46.8s49-68.8 49-112.8-18.8-83.9-49-112.8-72-46.8-117.9-46.8zM166.8 1.2c2.3 0 4.2 1.7 4.2 3.8s-1.9 3.8-4.2 3.8-4.3-1.7-4.2-3.8c0-2.1 1.9-3.8 4.2-3.8m-32.1 5.3c2.3-.4 4.5 1 4.9 3s-1.2 4.1-3.5 4.4-4.5-.9-4.9-3c-.4-2 1.2-4 3.5-4.4m-30.5 11c2.2-.8 4.6.2 5.4 2.1.8 2-.4 4.2-2.6 5s-4.6-.2-5.4-2.1c-.7-1.9.4-4.2 2.6-5m-28 16c2-1.1 4.6-.6 5.7 1.2s.4 4.2-1.6 5.3-4.6.6-5.7-1.2c-1.2-1.8-.4-4.2 1.6-5.3M51.6 53.6c1.8-1.5 4.4-1.4 5.8.2s1.2 4-.6 5.5-4.4 1.4-5.8-.2c-1.4-1.5-1.2-4 .6-5.5M31 78.1c1.4-1.8 4-2.1 5.7-.8s1.9 3.8.5 5.5c-1.5 1.8-4 2.1-5.8.8-1.7-1.3-1.9-3.7-.4-5.5m-15.2 27.3c1.1-2 3.6-2.8 5.5-1.8s2.6 3.4 1.5 5.4-3.6 2.8-5.5 1.8c-2-1.1-2.6-3.5-1.5-5.4M5.4 135c.7-2.1 3-3.3 5.1-2.7s3.2 2.9 2.5 5-3 3.3-5.1 2.7-3.2-2.9-2.5-5m-4.3 30.7c.3-2.2 2.3-3.8 4.5-3.5s3.7 2.3 3.4 4.5-2.4 3.8-4.5 3.5c-2.2-.2-3.7-2.3-3.4-4.5M2.6 197c-.1-2.2 1.6-4.1 3.8-4.2s4.1 1.6 4.2 3.9c.1 2.2-1.6 4.1-3.8 4.2s-4.1-1.7-4.2-3.9m7 30.1c-.5-2.2.8-4.3 2.9-4.8s4.3.9 4.8 3.1-.8 4.3-2.9 4.8-4.3-.9-4.8-3.1m12.5 28.7c-.9-2.1 0-4.4 2-5.2s4.4.2 5.3 2.2c.9 2.1 0 4.4-2 5.2s-4.3-.2-5.3-2.2m18 26c-1.3-1.9-.8-4.3 1-5.5 1.8-1.1 4.4-.6 5.7 1.3s.8 4.3-1 5.5c-1.9 1.2-4.4.6-5.7-1.3m22.2 22.6c-1.6-1.6-1.6-4.1-.1-5.5 1.6-1.4 4.2-1.3 5.8.3s1.6 4.1.1 5.5c-1.6 1.5-4.2 1.3-5.8-.3m26.4 18.4c-1.9-1.3-2.4-3.8-1.1-5.5s3.9-2 5.8-.7 2.4 3.8 1.1 5.4c-1.3 1.8-3.9 2.1-5.8.8m29.2 13.7c-2.1-1-3-3.3-2.1-5.2s3.4-2.6 5.5-1.7c2.1 1 3.1 3.3 2.1 5.2-.9 2-3.4 2.7-5.5 1.7m31.4 8.4c-2.3-.6-3.6-2.7-3-4.7s2.9-3.2 5.1-2.6c2.3.6 3.6 2.7 3 4.7-.5 2-2.9 3.2-5.1 2.6m32.4 2.9c-2.3-.2-4.1-2.1-3.9-4.1.2-2.1 2.3-3.6 4.6-3.4s4.1 2.1 3.9 4.1c-.2 2.1-2.3 3.6-4.6 3.4m32.5-2.8c-2.3.2-4.4-1.3-4.6-3.4s1.6-3.9 3.9-4.1 4.4 1.3 4.6 3.4c.2 2-1.5 3.9-3.9 4.1m31.3-8.1c-2.3.6-4.6-.6-5.1-2.6-.6-2 .8-4.1 3-4.7 2.3-.6 4.6.6 5.1 2.6.7 2-.7 4.2-3 4.7m29.5-13.3c-2.1 1-4.6.2-5.5-1.7s0-4.2 2.1-5.2 4.6-.2 5.5 1.7c1 2 0 4.3-2.1 5.2m26.2-18c-1.9 1.3-4.5 1-5.8-.7s-.8-4.1 1.1-5.4 4.5-1 5.8.7c1.3 1.6.8 4.1-1.1 5.4m22.7-22.6c-1.6 1.6-4.2 1.7-5.8.3-1.6-1.5-1.5-3.9.1-5.6 1.6-1.6 4.2-1.7 5.8-.3 1.6 1.5 1.6 4-.1 5.6m18.3-25.7a4.3 4.3 0 0 1-5.7 1.3c-1.8-1.2-2.2-3.6-1-5.5a4.3 4.3 0 0 1 5.7-1.3c1.9 1.2 2.3 3.6 1 5.5m12.5-28.6c-.9 2.1-3.3 3.1-5.3 2.2-2-.8-2.9-3.2-2-5.2.9-2.1 3.3-3.1 5.3-2.2 2.1.8 3 3.1 2 5.2m7.8-30.3c-.5 2.2-2.7 3.6-4.8 3.1s-3.4-2.6-2.9-4.8 2.7-3.6 4.8-3.1 3.4 2.6 2.9 4.8m1.5-31.2c-.1 2.2-2 4-4.2 3.9s-3.9-2-3.8-4.2 2-4 4.2-3.9 3.9 2 3.8 4.2"/><path d="M359.6 136.5c.3 2.2-1.2 4.2-3.4 4.5-2.1.3-4.2-1.3-4.5-3.5s1.2-4.2 3.4-4.5 4.2 1.3 4.5 3.5m-9.5-29.7c.7 2.1-.4 4.4-2.5 5s-4.4-.6-5.1-2.7.4-4.4 2.5-5 4.3.6 5.1 2.7m-15.5-27.5c1.1 2 .4 4.4-1.5 5.4s-4.4.2-5.5-1.8-.4-4.4 1.5-5.4 4.4-.2 5.5 1.8m-20.1-24.4c1.4 1.8 1.2 4.2-.5 5.5s-4.3.9-5.7-.8c-1.4-1.8-1.2-4.2.5-5.5s4.3-.9 5.7.8m-24.3-20.5c1.8 1.5 2 4 .6 5.5-1.4 1.6-4.1 1.6-5.8.2-1.8-1.5-2-4-.6-5.5 1.4-1.6 4-1.6 5.8-.2m-27.9-16.1c2 1.2 2.7 3.5 1.6 5.3s-3.7 2.3-5.7 1.1-2.7-3.5-1.6-5.3c1.1-1.7 3.7-2.2 5.7-1.1M232.1 7.1c2.2.8 3.3 3 2.6 5-.8 1.9-3.2 2.9-5.4 2.1s-3.3-3-2.6-5c.8-1.9 3.2-2.9 5.4-2.1"/></g><g fill="#06974c"><path d="M180.9 2.8h0c0 3-1.8 6.1-4.5 8.4-2.8 2.3-6.5 3.8-10 3.8-7.2 0-13.2-4.8-14.6-10.7-.2-.7-.9-1.1-1.5-.9-.7.2-1.1.9-.9 1.5 1.8 7.1 8.7 12.6 17 12.6 4.2 0 8.4-1.7 11.6-4.4s5.5-6.3 5.5-10.4h0c0-.7-.6-1.3-1.3-1.3s-1.3.7-1.3 1.4z"/><path d="M148.1 5c.1.5.1 1 .1 1.6 0 2.8-1.4 5.8-3.6 8.2-2.3 2.4-5.3 4.2-8.5 4.7-.9.2-1.8.2-2.7.2-6 0-11.5-3.5-13.6-8.3-.3-.6-1-.9-1.7-.6-.6.3-.9 1-.6 1.7 2.7 5.8 9 9.8 16 9.8a16.28 16.28 0 0 0 3.1-.3c3.8-.7 7.3-2.7 9.9-5.5s4.3-6.3 4.3-9.9c0-.7-.1-1.4-.2-2-.1-.7-.8-1.1-1.5-1s-1.2.7-1 1.4z"/><path d="M118.9 13.4c.4 1 .6 2.1.6 3.2 0 2.6-1 5.4-2.8 7.8a15 15 0 0 1-6.9 5.3c-1.8.6-3.5.9-5.3.9-5 0-9.7-2.4-12.3-6.1-.4-.6-1.2-.7-1.8-.3s-.7 1.2-.3 1.8c3.1 4.5 8.6 7.2 14.4 7.2 2 0 4.1-.3 6.2-1.1a17.72 17.72 0 0 0 8.1-6.2c2-2.7 3.3-6 3.3-9.3 0-1.4-.2-2.8-.8-4.2-.3-.7-1-1-1.6-.7-.7.3-1 1.1-.8 1.7z"/><path d="M89.8 27.4a10.02 10.02 0 0 1 1.4 5.1c0 2.4-.7 4.9-2 7.1s-3.1 4.1-5.3 5.4c-2.4 1.4-5.1 2-7.8 2-4 0-7.9-1.5-10.5-4.1-.5-.5-1.3-.5-1.8 0s-.5 1.3 0 1.8c3.2 3.1 7.7 4.9 12.3 4.9 3.1 0 6.2-.8 9-2.4 2.6-1.5 4.7-3.7 6.2-6.3s2.3-5.5 2.3-8.3c0-2.3-.5-4.5-1.8-6.5-.4-.6-1.2-.8-1.7-.4-.5.3-.6 1.1-.3 1.7z"/><path d="M63.5 45.7c1.7 1.9 2.5 4.4 2.5 7.2 0 4.1-1.9 8.5-5 11.1-2.9 2.4-6.5 3.6-10 3.6-3 0-6-.9-8.4-2.5-.6-.4-1.4-.2-1.7.3-.4.6-.2 1.4.3 1.7 2.8 2 6.3 2.9 9.8 2.9 4.1 0 8.3-1.3 11.6-4.2 3.8-3.2 5.9-8.2 5.9-13 0-3.2-1-6.4-3.2-8.9-.5-.5-1.3-.5-1.8-.1-.4.6-.5 1.4 0 1.9z"/><path d="M40.8 67.6c2.7 2.1 4.2 5.7 4.1 9.5 0 3.3-1.1 6.7-3.1 9.1-3 3.6-7.5 5.5-11.9 5.5-2.1 0-4.2-.4-6-1.3-.6-.3-1.4 0-1.6.6-.3.6 0 1.4.6 1.6 2.2 1 4.6 1.5 7.1 1.5 5.1 0 10.3-2.1 13.8-6.4 2.5-2.9 3.7-6.8 3.7-10.7 0-4.4-1.6-8.8-5.1-11.5-.5-.4-1.3-.3-1.7.2-.6.7-.5 1.5.1 1.9z"/><path d="M23.3 93.6c1.9 1 3.4 2.6 4.5 4.6 1 2 1.6 4.4 1.6 6.7s-.5 4.7-1.6 6.6c-2.7 4.9-8.1 7.6-13.3 7.6-1.2 0-2.4-.1-3.6-.4-.7-.2-1.3.2-1.5.9s.2 1.3.9 1.5c1.4.4 2.8.5 4.2.5 6.1 0 12.2-3.2 15.4-8.9 1.3-2.4 2-5.1 2-7.8s-.6-5.5-1.9-7.9c-1.2-2.4-3.1-4.4-5.5-5.7-.6-.3-1.3-.1-1.7.5-.4.7-.1 1.5.5 1.8z"/><path d="M10.6 121.5c2.5.8 4.6 2.6 6.1 4.9 1.5 2.4 2.3 5.2 2.3 8 0 1.4-.2 2.8-.6 4-2.1 6.1-8.1 10-14.1 10H3.2c-.7-.1-1.3.4-1.3 1.1-.1.7.4 1.3 1.1 1.3.4 0 .9.1 1.3.1 7.1 0 14-4.5 16.4-11.6.5-1.5.8-3.2.8-4.8 0-3.3-1-6.6-2.7-9.3s-4.3-5-7.4-6c-.6-.2-1.3.2-1.5.8-.3.6.1 1.3.7 1.5z"/><path d="M4.2 152.1c3 .4 5.7 2.2 7.7 4.8s3.2 5.9 3.2 9c0 .6 0 1.1-.1 1.6-.9 6.7-6.8 11.8-13.2 12.4-.7.1-1.1.6-1.1 1.3.1.7.6 1.1 1.3 1.1 7.5-.7 14.2-6.5 15.3-14.4.1-.7.1-1.3.1-2 0-3.7-1.4-7.5-3.7-10.5s-5.6-5.2-9.3-5.7c-.7-.1-1.3.4-1.3 1-.1.7.4 1.3 1.1 1.4z"/><path d="M3.4 182.6h.4c3.2 0 6.5 1.6 8.9 4.2 2.5 2.5 4.1 5.9 4.3 9.2h0v.6c0 6.5-4.7 12.2-10.6 13.8-.6.2-1 .8-.8 1.5.2.6.8 1 1.5.8 7-1.9 12.4-8.4 12.4-16.1v-.7h0c-.2-4-2.1-7.8-4.9-10.7S8 180.3 4 180.3h-.5c-.7 0-1.2.6-1.1 1.2-.2.6.4 1.1 1 1.1z"/><path d="M7.3 213.8l2.1-.2c3 0 6.1 1.3 8.6 3.3s4.5 4.9 5.1 7.8c.3 1.1.4 2.1.4 3.2 0 5.5-3.3 10.5-8.1 12.8-.6.3-.9 1-.6 1.6s1 .9 1.6.6c5.7-2.7 9.5-8.5 9.5-14.9 0-1.2-.1-2.5-.4-3.7-.8-3.5-3.1-6.7-6-9.1-2.9-2.3-6.5-3.8-10.1-3.8-.9 0-1.7.1-2.6.3-.6.1-1.1.8-.9 1.4s.8.8 1.4.7z"/><path d="M17.5 243c1.2-.5 2.6-.7 3.9-.7 2.7 0 5.6.9 8.1 2.5s4.5 3.8 5.6 6.2c.8 1.8 1.2 3.8 1.2 5.6 0 4.5-2.2 8.8-5.8 11.4-.5.4-.7 1.1-.3 1.7.4.5 1.1.7 1.7.3 4.3-3 6.9-8 6.9-13.3 0-2.2-.5-4.5-1.4-6.6-1.3-3-3.7-5.5-6.5-7.3s-6.1-2.9-9.4-2.9c-1.7 0-3.3.3-4.9.9-.6.3-.9 1-.7 1.6.3.6 1 .9 1.6.6z"/><path d="M34.2 268.7c1.7-1.1 3.8-1.6 6-1.6 2.4 0 5 .6 7.3 1.8 2.3 1.1 4.3 2.8 5.6 4.7 1.7 2.5 2.5 5.2 2.5 7.9 0 3.6-1.4 7-3.9 9.5-.5.5-.5 1.2 0 1.7s1.2.5 1.7 0c3-3 4.6-7.1 4.6-11.3 0-3.2-.9-6.5-2.9-9.3-1.6-2.3-3.9-4.2-6.5-5.5a18.88 18.88 0 0 0-8.4-2c-2.6 0-5.1.6-7.3 2-.6.4-.7 1.1-.4 1.7.3.5 1.1.7 1.7.4z"/><path d="M54.2 292.5c2-1.9 5-2.8 8.2-2.8 4.1 0 8.5 1.6 11.3 4.4s4.2 6.4 4.2 10c0 2.7-.8 5.3-2.3 7.4-.4.6-.2 1.3.3 1.7s1.3.2 1.7-.3c1.8-2.6 2.7-5.7 2.7-8.8 0-4.2-1.6-8.4-4.9-11.7s-8.3-5.1-13-5.1c-3.6 0-7.2 1-9.8 3.4a1.24 1.24 0 0 0-.1 1.7c.4.5 1.2.5 1.7.1z"/><path d="M78.3 312.8c2.1-2.8 6.2-4.4 10.4-4.4 3.2 0 6.5.9 9 2.6 4.1 2.9 6.2 7.3 6.2 11.7 0 1.8-.4 3.5-1.1 5.1-.3.6 0 1.4.6 1.6.6.3 1.4 0 1.6-.6.9-1.9 1.3-4 1.3-6.1 0-5.2-2.5-10.4-7.3-13.7-3-2.1-6.7-3.1-10.4-3.1-4.8 0-9.6 1.7-12.4 5.3-.4.5-.3 1.3.2 1.7.8.5 1.5.4 1.9-.1z"/><path d="M105.4 328.9c1-1.9 2.7-3.5 5-4.6 2.2-1.1 4.9-1.7 7.5-1.7 2.2 0 4.4.4 6.3 1.3 5.4 2.5 8.5 7.7 8.5 12.9a13.33 13.33 0 0 1-.3 2.8c-.2.7.3 1.4.9 1.5.7.2 1.4-.3 1.5-.9.3-1.1.4-2.2.4-3.4 0-6.1-3.7-12.2-10-15.1-2.3-1-4.8-1.5-7.4-1.5-3 0-6 .7-8.6 1.9-2.6 1.3-4.8 3.2-6.1 5.7-.3.6-.1 1.4.6 1.7s1.4 0 1.7-.6z"/><path d="M135.4 340.6c.7-2.4 2.6-4.6 5.1-6.1s5.7-2.4 8.7-2.4c1.2 0 2.5.1 3.6.5 6.7 1.8 11 7.7 11 13.5v.5c0 .7.5 1.3 1.2 1.3s1.3-.5 1.3-1.2v-.6c0-7.1-5.1-13.9-12.9-16-1.4-.4-2.8-.5-4.3-.5-3.5 0-7.1 1-10 2.8s-5.3 4.4-6.3 7.6c-.2.7.2 1.4.9 1.6.8.1 1.5-.3 1.7-1z"/><path d="M167.1 345.5c.3-2.9 2.1-5.6 4.9-7.7 2.7-2 6.3-3.3 9.6-3.3.4 0 .8 0 1.2.1 7.1.6 12.6 6 13.5 11.9.1.7.7 1.2 1.4 1.1s1.2-.7 1.1-1.4c-1.1-7.2-7.5-13.4-15.8-14.1-.5 0-.9-.1-1.4-.1-4 0-8 1.5-11.2 3.8-3.1 2.4-5.5 5.7-5.9 9.5-.1.7.4 1.3 1.1 1.4.8 0 1.4-.5 1.5-1.2z"/><path d="M198.7 344.5v-.8c0-2.9 1.6-6 4.1-8.3 2.5-2.4 5.9-4 9.3-4.3.4 0 .9-.1 1.3-.1 6.6 0 12.3 4.1 14.2 9.5.2.7 1 1 1.6.8.7-.2 1-1 .8-1.6-2.3-6.5-8.9-11.2-16.6-11.2-.5 0-1 0-1.6.1-4 .3-7.9 2.3-10.8 5s-4.9 6.3-4.9 10.2v1c.1.7.7 1.2 1.4 1.2.7-.2 1.2-.8 1.2-1.5z"/><path d="M231.3 339.3c-.2-.8-.3-1.6-.3-2.4 0-2.7 1.2-5.6 3.2-8s4.8-4.3 7.7-5.1c1.3-.3 2.7-.5 4-.5 5.5 0 10.6 2.9 13 7.2.3.6 1.1.8 1.7.5s.8-1.1.5-1.7c-2.9-5.2-8.9-8.5-15.3-8.5a18.16 18.16 0 0 0-4.6.6c-3.5.9-6.7 3.1-9 5.9s-3.8 6.2-3.8 9.6c0 1 .1 2.1.4 3.1.2.7.9 1.1 1.6.9s1.1-.9.9-1.6z"/><path d="M261 328.3a9.78 9.78 0 0 1-.9-4.1c0-2.5.9-5.1 2.4-7.5 1.5-2.3 3.7-4.3 6.1-5.4 2.1-1 4.4-1.4 6.6-1.4 4.5 0 8.8 1.9 11.5 5.1.5.5 1.3.6 1.8.2.5-.5.6-1.3.2-1.8-3.2-3.8-8.2-6-13.4-6-2.5 0-5.1.5-7.6 1.7-2.9 1.3-5.4 3.6-7.2 6.3-1.7 2.7-2.8 5.8-2.8 8.8 0 1.8.4 3.6 1.2 5.3.3.6 1.1.9 1.7.6.4-.4.7-1.2.4-1.8z"/><path d="M288.7 313.1c-1.3-1.7-1.9-3.8-1.9-6.1 0-4.4 2.4-9.3 6.1-11.9 2.7-1.9 5.8-2.8 8.9-2.8 3.5 0 7 1.2 9.5 3.3.5.4 1.3.4 1.8-.2.4-.5.4-1.3-.2-1.8-3.1-2.5-7.1-3.9-11.1-3.9-3.6 0-7.2 1-10.4 3.2-4.5 3.1-7.2 8.7-7.2 14 0 2.7.7 5.4 2.4 7.6.4.6 1.2.7 1.8.2.6-.3.8-1.1.3-1.6z"/><path d="M313 291.7c-2.2-2-3.3-5-3.3-8.2 0-3.7 1.5-7.6 4-10.2 3-3 7-4.5 11-4.5 2.6 0 5.1.6 7.3 1.9.6.3 1.4.1 1.7-.5s.1-1.4-.5-1.7c-2.6-1.5-5.5-2.2-8.5-2.2-4.6 0-9.3 1.7-12.8 5.2-3.1 3.1-4.8 7.6-4.8 12 0 3.8 1.3 7.5 4.1 10.1.5.5 1.3.4 1.8-.1s.5-1.3 0-1.8z"/><path d="M332.5 268c-3.2-2-5-6.1-5-10.4 0-2.8.8-5.7 2.3-7.9 2.9-4.2 7.8-6.5 12.7-6.5 1.7 0 3.3.3 4.8.8.6.2 1.3-.1 1.6-.8.2-.6-.1-1.3-.8-1.6-1.8-.6-3.7-1-5.7-1-5.6 0-11.2 2.6-14.7 7.6-1.9 2.7-2.8 6-2.8 9.3 0 4.9 2 9.8 6.2 12.5.6.4 1.3.2 1.7-.4.5-.5.3-1.3-.3-1.6z"/><path d="M347.7 242c-2.2-.9-4-2.6-5.2-4.8s-1.9-4.8-1.9-7.4a13.22 13.22 0 0 1 1.1-5.3c2.4-5.5 8.1-8.8 13.8-8.8.8 0 1.6.1 2.4.2.7.1 1.3-.3 1.4-1s-.3-1.3-1-1.4c-.9-.2-1.8-.2-2.8-.2-6.6 0-13.1 3.8-16 10.2-.9 2-1.3 4.2-1.3 6.4 0 3 .8 6 2.2 8.6 1.5 2.6 3.6 4.7 6.4 5.9.6.3 1.3 0 1.6-.7.2-.8-.1-1.5-.7-1.7z"/><path d="M358.6 211.3c-2.7-.6-5.2-2.4-6.9-4.9s-2.7-5.6-2.7-8.5a12.65 12.65 0 0 1 .3-2.8c1.6-6.6 7.9-11.2 14.3-11.2.7 0 1.2-.5 1.2-1.2s-.5-1.2-1.2-1.2c-7.5 0-14.7 5.2-16.6 13-.3 1.1-.4 2.3-.4 3.4 0 3.5 1.2 7 3.2 9.9s4.9 5.1 8.3 5.9c.7.1 1.3-.3 1.4-.9.2-.7-.3-1.4-.9-1.5z"/><path d="M361.2 182.1c-3.2-.1-6.3-1.9-8.5-4.6-2.3-2.6-3.7-6.1-3.7-9.4v-.6c.3-6.8 5.6-12.3 12-13.4.6-.1 1.1-.7 1-1.4-.1-.6-.7-1.1-1.4-1-7.4 1.3-13.5 7.7-13.9 15.6v.7c0 3.9 1.7 7.9 4.3 10.9s6.2 5.2 10.2 5.4c.7 0 1.2-.5 1.2-1.1-.1-.5-.6-1.1-1.2-1.1z"/><path d="M361.1 150.9c-.4.1-.8.1-1.2.1-3.1 0-6.3-1.5-8.8-3.8s-4.3-5.4-4.7-8.5c-.1-.6-.1-1.3-.1-1.9 0-6 4-11.4 9.4-13.3.6-.2.9-.9.7-1.5s-.9-.9-1.5-.7c-6.4 2.3-10.9 8.5-11 15.6 0 .7.1 1.5.2 2.2.5 3.8 2.6 7.3 5.5 9.9s6.6 4.4 10.4 4.4c.5 0 1 0 1.5-.1.7-.1 1.1-.7 1-1.3-.2-.7-.8-1.2-1.4-1.1z"/><path d="M353.5 121.2c-1 .3-2 .4-3 .4-2.8 0-5.9-1.1-8.4-2.9s-4.5-4.3-5.4-7a13.49 13.49 0 0 1-.7-4.4c0-5 2.7-9.7 7-12.1.6-.3.8-1.1.4-1.6-.3-.6-1.1-.8-1.6-.4-5 2.9-8.2 8.3-8.2 14.2 0 1.7.3 3.5.8 5.2 1.1 3.3 3.4 6.1 6.3 8.2s6.3 3.4 9.8 3.4c1.2 0 2.5-.2 3.7-.5.6-.2 1-.9.8-1.5-.2-.8-.9-1.2-1.5-1z"/><path d="M340.8 92.2c-1.5.8-3.2 1.1-4.9 1.1-2.6 0-5.3-.8-7.7-2.1a15.08 15.08 0 0 1-5.7-5.5c-1.2-2.2-1.8-4.5-1.8-6.8 0-4 1.8-7.9 4.8-10.5.5-.4.6-1.2.1-1.7-.4-.5-1.2-.6-1.7-.1-3.6 3-5.7 7.6-5.7 12.4 0 2.7.7 5.4 2.1 8 1.5 2.7 3.9 4.8 6.6 6.4 2.7 1.5 5.9 2.4 8.9 2.4 2.1 0 4.2-.4 6-1.4.6-.3.8-1 .5-1.6-.2-.6-.9-.9-1.5-.6z"/><path d="M322.4 66.6c-1.9 1.4-4.4 2.1-7 2.1-4.5 0-9.5-2.1-12.2-5.4-2.2-2.7-3.3-5.9-3.3-9s1-6.2 3-8.5c.4-.5.4-1.3-.2-1.7-.5-.4-1.3-.4-1.7.2-2.4 2.8-3.6 6.4-3.6 10.1s1.2 7.4 3.8 10.6c3.3 4 8.8 6.2 14.1 6.3 3.1 0 6.1-.8 8.5-2.6.5-.4.6-1.2.2-1.7-.3-.7-1.1-.9-1.6-.4z"/></g><g fill="#059b4e"><path d="M299.9 44.2c-2.1 2.3-5.6 3.5-9.3 3.5s-7.6-1.2-10.2-3.5c-3.4-2.9-5.1-6.9-5.1-10.9 0-2.2.5-4.4 1.6-6.3.3-.6.1-1.3-.5-1.7-.6-.3-1.3-.1-1.7.5-1.3 2.3-1.9 4.9-1.9 7.5 0 4.7 2 9.4 6 12.8 3.2 2.7 7.6 4 11.8 4s8.3-1.3 11.1-4.3c.5-.5.4-1.3-.1-1.7s-1.3-.4-1.7.1z"/><path d="M274.1 26.6c-1.1 1.7-2.7 3-4.7 3.9s-4.4 1.4-6.7 1.4c-2.7 0-5.5-.6-7.7-1.9-4.8-2.7-7.3-7.6-7.3-12.3 0-1.4.2-2.7.6-4 .2-.7-.1-1.4-.8-1.6s-1.4.1-1.6.8c-.5 1.5-.8 3.2-.8 4.8 0 5.6 3 11.3 8.6 14.5 2.7 1.5 5.8 2.2 8.9 2.2 2.7 0 5.4-.5 7.8-1.6s4.4-2.7 5.8-4.8c.4-.6.2-1.4-.4-1.7-.5-.4-1.3-.3-1.7.3z"/><path d="M245.4 11.7c-.9 2.2-2.7 4-5.1 5.3s-5.3 2-8.1 2c-1.7 0-3.4-.3-5-.8-6.1-2.2-9.8-7.8-9.7-13.2 0-.6 0-1.1.1-1.7.1-.7-.4-1.3-1.1-1.4s-1.3.4-1.4 1.1-.1 1.3-.1 2c0 6.6 4.4 13.1 11.4 15.6 1.9.7 3.8 1 5.8 1 3.3 0 6.5-.8 9.3-2.3s5.1-3.8 6.2-6.6c.3-.6-.1-1.4-.7-1.6-.6-.4-1.4 0-1.6.6z"/><path d="M213.9 5.1c-.5 2.7-2.4 5.1-5.1 6.9-2.6 1.8-6 2.8-9.2 2.8-.8 0-1.6-.1-2.4-.2-7-1.2-12-7-12.3-13 0-.7-.6-1.2-1.3-1.2s-1.2.6-1.2 1.3c.4 7.3 6.2 14 14.4 15.4.9.2 1.9.2 2.8.2 3.8 0 7.5-1.2 10.6-3.3s5.4-5 6.1-8.5c.1-.7-.3-1.4-1-1.5-.6 0-1.3.4-1.4 1.1zM200 1.4c2.3.4 3.8 2.4 3.4 4.5s-2.6 3.4-4.9 3-3.9-2.4-3.4-4.5c.4-2.1 2.6-3.4 4.9-3m-18 26.2v.7c42.1 0 80.4 16.4 108.1 42.9s44.9 63 44.9 103.3-17.2 76.8-44.9 103.3-66 42.9-108.1 42.9-80.4-16.4-108.1-42.9S29 214.8 29 174.5 46.2 97.7 73.9 71.2s66-42.9 108.1-42.9v-.7-.7c-42.5 0-81.1 16.6-109 43.3-28 26.7-45.3 63.6-45.3 104.3C27.7 215.1 45 252 73 278.8c28 26.7 66.5 43.3 109 43.3s81.1-16.6 109-43.3c28-26.7 45.3-63.6 45.3-104.3S319 96.9 291 70.2s-66.5-43.3-109-43.3zm0 49v.7c28 0 53.5 10.9 71.9 28.6 18.4 17.6 29.9 41.9 29.9 68.7s-11.4 51.1-29.9 68.7c-18.4 17.6-43.9 28.6-71.9 28.6s-53.5-10.9-71.9-28.6c-18.4-17.6-29.9-41.9-29.9-68.7s11.4-51.1 29.9-68.7C128.5 88.3 154 77.3 182 77.3v-.7-.7c-28.4 0-54.2 11.1-72.9 28.9-18.7 17.9-30.3 42.5-30.3 69.7s11.6 51.8 30.3 69.7 44.5 28.9 72.9 28.9 54.2-11.1 72.9-28.9c18.7-17.9 30.3-42.5 30.3-69.7s-11.6-51.8-30.3-69.7-44.5-28.9-72.9-28.9zM55.8 168.5c4 0 7.3 3.2 7.3 7 0 3.9-3.3 7-7.3 7s-7.3-3.2-7.3-7c-.1-3.8 3.2-7 7.3-7m253.3 3.5c4 0 7.3 3.2 7.3 7 0 3.9-3.3 7-7.3 7s-7.3-3.2-7.3-7c-.1-3.8 3.2-7 7.3-7M67.2 199.3l1.4 4.1L57 207l-3.5 1.3a3.51 3.51 0 0 0-1.7 1.9c-.3.8-.3 1.8.1 3s.9 2 1.7 2.4c.7.4 1.4.6 2.2.5s2-.4 3.7-.9l11.8-3.7 1.4 4.1-11.2 3.5-5.5 1.4c-1.1.1-2.2 0-3.1-.4s-1.8-1-2.5-1.9c-.8-.9-1.4-2.1-2-3.7-.7-1.9-.9-3.5-.8-4.6.1-1.2.5-2.1 1-3 .6-.8 1.2-1.5 2-1.9 1.1-.6 2.9-1.3 5.3-2.1zM53.8 228l20-9.7 2 3.7-9.2 14.3 13.3-6.5 1.9 3.6-20 9.7-2.1-3.9 8.9-14-13 6.3zm10.8 18.6l19-11.4 2.4 3.7-19 11.4zm9.1 12.3L88 247.5l-4.3-4.9 2.9-2.3 11.4 13-2.9 2.3-4.3-4.9-14.3 11.4zm11.8 12.3l14.7-16.2 12.5 10.4-2.5 2.7-9.1-7.6-3.3 3.6 8.5 7.1-2.5 2.7-8.5-7.1-4 4.4 9.4 7.8-2.5 2.7zm28.3-4.6l7.2 4c1.6.9 2.8 1.7 3.5 2.4.9.9 1.6 2.1 1.9 3.3.3 1.3.3 2.6 0 4s-1 3-2 4.7c-.9 1.5-1.9 2.7-3 3.6-1.3 1.1-2.7 1.8-4.1 2.1-1.1.3-2.3.2-3.6 0-1-.2-2.3-.7-3.7-1.5l-7.4-4.1zm2 5.3l-7.4 12.3 2.9 1.6c1.1.6 1.9 1 2.5 1.1.7.2 1.4.2 2.1.1.6-.1 1.3-.5 2.1-1.2s1.6-1.7 2.5-3.2c.9-1.4 1.4-2.6 1.6-3.5s.2-1.7 0-2.4-.6-1.3-1.3-1.9c-.5-.4-1.5-1.1-3.1-1.9zm21.8 6.7l8.5 2.8c1.7.5 2.9 1 3.7 1.4s1.4.9 1.9 1.6c.5.6.8 1.4 1 2.2s.1 1.7-.2 2.6-.9 1.7-1.8 2.3c-.8.6-1.8 1-2.8 1.1 1.2.8 1.9 1.7 2.3 2.8s.4 2.2-.1 3.4c-.3.9-.9 1.7-1.6 2.5-.8.7-1.6 1.2-2.6 1.5s-2 .3-3.2 0l-5.2-1.6-7.2-2.4zm3.1 4.8l-1.7 4.7 2.8.9 3.1.9c.8.2 1.4.1 2-.2s.9-.7 1.2-1.4c.2-.6.2-1.2 0-1.7s-.7-.9-1.4-1.2c-.4-.2-1.6-.6-3.6-1.3zm-2.9 8.1l-2 5.4 4 1.3 3 .9c.7.1 1.3 0 1.9-.3.5-.3 1-.8 1.2-1.5a3.34 3.34 0 0 0 .1-1.7c-.1-.5-.5-1-1-1.4s-1.8-.9-3.7-1.5zm34.2 17.3l-4.9-.8-1-5.1-8.8-1.5-2.7 4.5-4.7-.8 12.5-19.6 4.7.8zm-6.7-9.7l-1.6-8.3-4.4 7.3zm11.3 9.8l-.8-21.4 4.4-.2 9.7 14-.5-14.3 4.2-.1.8 21.4-4.5.2-9.5-13.7.5 14zm23.9-1.2l-3.9-21.1 4.4-.8 1.7 9.4 7.3-10.9 6-1-6.8 9.6 11.2 11.4-5.8 1-7.9-8.9-3 4.1 1.2 6.4zm24.9-16.1c-1-2-1.5-3.8-1.5-5.4a10.3 10.3 0 0 1 .6-3.5c.4-1.1 1-2.1 1.8-2.9 1-1.1 2.4-2 4-2.7 3-1.3 5.8-1.5 8.5-.5s4.8 3 6.3 6.2c1.5 3.1 1.8 6 .9 8.5-.9 2.6-2.9 4.5-5.8 5.8-3 1.3-5.9 1.5-8.5.6-2.7-1-4.8-3-6.3-6.1zm4.2-2c1.1 2.2 2.4 3.6 4 4.3s3.2.6 4.9-.1 2.7-1.9 3.2-3.5.2-3.5-.9-5.8c-1.1-2.2-2.4-3.6-4-4.3-1.6-.6-3.2-.6-4.9.2s-2.8 1.9-3.3 3.5c-.4 1.6-.1 3.5 1 5.7zm24.6.2l-12.2-18 12.9-8 2.1 3-9.1 5.6 2.9 4.3 7.9-4.9 2.1 3-7.9 4.9 5.2 7.6zm22.7-16.4L261.3 258l3.3-3 15.6 15.4zm8.9-7.8l-17.7-13.2 2.7-3.3 17.4 1.9-11.8-8.8 2.6-3.2 17.7 13.2-2.8 3.4-17.1-1.8 11.5 8.6zm-4.8-28.8l4-6.9c.9-1.6 1.7-2.7 2.4-3.4 1-.9 2.1-1.5 3.4-1.9 1.3-.3 2.7-.4 4.2-.1s3.2.9 5 1.8c1.6.9 2.9 1.8 3.8 2.8 1.1 1.2 1.9 2.5 2.3 3.8.3 1 .3 2.2 0 3.5-.2 1-.7 2.2-1.5 3.6l-4.1 7.1zm5.5-2l13 6.9 1.6-2.8c.6-1.1 1-1.8 1.1-2.4.2-.7.2-1.3.1-1.9s-.6-1.3-1.3-2-1.9-1.5-3.4-2.3-2.7-1.3-3.7-1.5-1.8-.2-2.5.1c-.7.2-1.4.6-1.9 1.3-.4.5-1.1 1.5-2 3zm24.3-6.1l-20.5-8.7 1.8-4 20.5 8.7zm9.3-27.2l-1.3 4.5-5.4.5-2.5 8.2 4.4 3-1.3 4.4-19.1-13.9 1.3-4.4zm-10.8 5.3l-8.8.6 7.1 5z"/><path d="M55 144.9c5.6.6 10.3-1.2 11.6-4.3.6-1.4.5-3.2-.1-5l1.8.7 1.9.7 3.9-2.6-4.3-1.6-13.1-4.8c2.1-5.2 3.8-8.3 7.5-14.8l5 2.6-4.3 7.3c-.5.8-.2 1.8.7 2.3 1 .5 2.3.7 3.7.5s2.4-.6 2.8-1.3c.2-.4-.2-1.1-.9-1.5l-.6-.3c-.7-.3-1-1-.7-1.3l2.3-4 4.2 2.2 1.7.9 4.2-2.1-4-2.1-12.3-6.5c2.2-3.8 1.3-2.8 4.1-6.7l11.5 7.7 1.6 1.1 4.4-1.6-3.8-2.5-11.5-7.7 2.3-3.1c2.4-3 4.8-5.8 7.4-8.6l1.6 1.4-3.2 3.4c-1.3 1.4-1.2 3.4.1 4.6 1.1.9 2.8 1.4 4.7 1.4 2 0 3.6-.5 4.4-1.4s1-2.3 1.8-3.2c.2-.2.5-.2.8.1 1.5 1.3 1.1 4.2-1 6.4-1.2-.2-2.2.2-2.9.9-.6.7-.5 1.8.3 2.5 1.4 1.2 4.2.6 6.1-1.5l5.5 2 .5-2.1-5.5-1.1c2.1-3.1 2-6.8-.2-8.6-.7-.6-2-1-3.6-1s-2.8.4-3.4.9c-1.2 1.3-1.7 3.1-2.9 4.3-.2.2-.8.1-1.2-.2-1-.9-1.1-2.2-.3-3.1l4.8-5.2-3.9-3.4c3.6-3.6 7.3-6.9 11.1-9.5l1.2 1.3c.7.8.6 2.1-.2 3-2.6 2.6-3.4 5.9-1.7 7.8 1.3 1.4 3.4 2.2 5.8 2.1 2.5-.1 4.9-.9 6.7-2.5 1.4-1.2 2.5-3.4 3-6.4l-3.5-.7c-.8 3-2.2 5.4-4.1 7-1.2 1-2.9.9-3.9-.1-1.4-1.6-.5-4.8 2.3-7.4.9-.8 1.1-2 .4-2.8l-3.2-3.5c5-4.9 10.5-7.5 16.6-11l1.2 2-5.6 3.2c-1.3.8-1.8 2.5-1 3.7.7 1.1 2.1 2 4.1 2.7 1.9.7 3.5.7 4.4.2 1.5-.9 2.4-2.3 3.9-3.2.5-.3 1.1-.2 1.4.2.8 1.3-.6 3.6-3.2 5-2.4 1.4-5.8 1.5-9.2.4l-.5 1.2c5.3 1.8 10.2 1.7 13.7-.3 2.8-1.6 4-4.7 2.6-6.9-.5-.8-1.8-1.6-3.5-2s-3.1-.4-3.9.1c-1.6.9-2.8 2.3-4.4 3.2-.6.4-1.4.3-1.6-.1-.6-1-.1-2.4 1.1-3.1l6.4-3.7-2.9-4.7 3.2-2.1 3.9-1.8-2.7-2.3c-9 4.1-17.5 9.2-25.3 15.1-4.9-1.7-6.2-2.3-7.4-2.6-2.9-1-5.8-.8-7.7.4a5.73 5.73 0 0 0-1.1 1.1l3.6 2c.3-.5.8-.9 1.3-1.2 1.1-.7 2.4-1 3.5-.7l6.5 2h0A139.89 139.89 0 0 0 73.6 92l-2.5 3.1c-9.9 12.7-16.9 25.9-21.6 40.6-1.3 4.8-2.5 9.4-3.4 14.1l3.2.3c.7-3.7 1.7-7.4 2.7-11.1.7-.3 1.4-.3 1.9-.1 1.7.9 2.2 3.5 1.1 6zm81.1-92l.3-.1h0l14.2-3.9 1.4 4.6c-2.3-1.2-4.9-1.6-7.1-.9-3.4.9-5.4 4.1-4.5 7.1.4 1.5 1.7 2.7 3.4 3.5 1.8.7 3.7.9 5.5.4 2.3-.6 4-1.7 4.8-3.1l.4 1.2.5 1.8 4.5 1.4-1.3-4.2-3.9-12.9.5-.2c2.3-.5 4.6-.9 6.9-1.2 3.9-.5 7.9-1 11.8-1.1l.5 6.4c-2.3-2.2-4.5-3.5-6-3.4-3.2.2-5.5 2.5-5.3 5.2.1 1.4 1 2.9 2.6 4.3s3.2 2.1 4.7 2c1.3-.1 2.8-.9 4.4-2.4l.1 1.7.1 1.9 4.1 2.3-.3-4.4-.3-3.8c1.3-1.7 3-2.7 4.6-2.8.8-.1 1.6.6 1.7 1.6.1 1.1-.7 2.9-2.2 5.8l3.7 2.1c1.3-2 1.9-4.3 1.7-6.4-.1-1.4-.9-2.9-2.2-4.2s-2.7-2-3.8-1.9c-1.4.1-2.7.6-3.9 1.3l-.4-5.3c3.8-.2 7.6-.2 11.4 0l-.1-.5-.4-2.8c-2.2-.1-4.4-.1-6.5-.1a138.32 138.32 0 0 0-18.3 1.2l-5.2.8c-.7.1-3 .5-3.3.5l-3.3.7c-5.1 1.1-10.1 2.5-15 4.1l-3.6 1 .2.2h-.1zm183.6 103.2l-3.8 1.8zm0 0c-1.5-11.7-4.1-20.7-8.6-31.2l-.9-2.2c-.4-.9-.8-1.7-1.2-2.5h0c-3.9-6.7-7-13.2-11.6-19.6v-.1l-.7-.9c-.3-.5-.7-.9-1-1.3.5-1 1.2-1.9 2.3-2.6 1.8-1.3 4.6-.5 6.3 1.7 2.4 3 3.2 8 2.4 13.8l1.1.3c1.8-7.2 1-13.6-2-17.5-2.3-2.9-6.3-3.8-9-1.9-1.2.9-2 2.5-2.4 4.5-4.8-6.3-10.2-11.7-16-17.2l-1.1 3.4c2.5 2.4 5 5 7.5 7.7l-1.6 1.4-3.2-3.4c-1.3-1.4-3.5-1.5-4.8-.4-1.1.9-1.8 2.5-2 4.4s.2 3.5 1 4.3c.9.9 2.3 1.2 3.2 2.1.2.2.1.5-.2.7-1.5 1.3-4.5.6-6.6-1.7.3-1.1.1-2.1-.6-2.9-.6-.7-1.8-.7-2.6 0-1.4 1.2-1 3.9.9 6l-2.6 5.1 2.1.7 1.7-5.1c3 2.3 6.8 2.6 9 .7.7-.6 1.2-1.8 1.4-3.3s-.1-2.7-.6-3.3c-1.2-1.3-3-1.9-4.2-3.2-.2-.2 0-.7.4-1.2 1-.8 2.4-.8 3.3 0l4.9 5.1 3.9-3.4c1.6 1.6 2.3 3.1 3.7 5l-11.2 8.1-1.6 1.1.3 4.5 3.7-2.7 11.2-8.1 3.3 4.9 6.5 11.1-2.1 1.1-3.2-5.5c-.8-1.3-2.5-1.8-3.9-1.1-1.1.6-2.2 1.9-3 3.8-.8 1.8-.9 3.4-.4 4.2.8 1.4 2.4 2.3 3.2 3.8.3.5.2 1.1-.2 1.3-1.4.7-3.7-.7-5.2-3.3-1.4-2.3-1.4-5.6-.1-8.8l-1.3-.5c-2 5-2.1 9.7-.2 13.1 1.6 2.8 4.8 4 7.1 2.7.9-.5 1.7-1.6 2.2-3.2s.5-2.9 0-3.7c-.9-1.6-2.3-2.7-3.2-4.3-.4-.6-.3-1.3.1-1.5 1.1-.6 2.5-.1 3.2 1.2l3.6 6.2 5-2.6 2.6 5.4 1.7 5.1c-.3.6-.9 1.1-1.4 1.2-1.6.5-3.7-1.2-4.5-3.8-4.7 2.9-7.3 7.2-6.2 10.3.5 1.4 1.7 2.8 3.4 3.8l-1.9.6-1.9.6-1.3 4.4 4.4-1.4 13.4-4.1 1.5 6.8-13.8 2.3-2 .3-1.9 4.2 4.5-.8 13.8-2.3.5 5.1zm-51.8-85.7l-.4-.3-16.2-10.4c-2.8-1.6-5.7-3-8.6-4.4l-.5-.3h0c-3.1-1.4-6.3-2.8-9.5-4l-.7-.3h0c-3.5-1.3-7-2.4-10.6-3.5v.3l-.3-.1.4 2.2.1 1.3c.7.2-.1-1.4.2.2l2.5.7-1.6 5c-1.2.7-2.4 1-3.4.8-1.8-.5-3.1-1.2-3.7-2 1.4-.5 2.6-1.5 3-2.9.4-1.3 0-2.9-1.1-4.5s-2.7-2.8-4.2-3.2c-1.7-.5-3.6-.3-5.7.5l1 3.2c2.2-.9 4.3-1.2 6-.7 1.4.4 2.2 1.6 1.9 2.8-.6 1.7-2 2.8-3.3 2.5-.9-.6-2.4-.8-4.2-.6l.5 3.4c1.3.3 3 .2 4.6-.2.4.7.4 1.5.2 2.3-.6 2-2.9 3.2-5 2.6-2.7-.8-4.7-3.6-5.2-7.3l-1.5.4c.8 5.4 3.5 9.6 7.2 10.6 4 1.2 7.6-2.7 6.3-6.7 1.1 1.6 2.4 2.7 3.6 3 .7.2 1.3.3 1.8.1l-1.2 3.6-.6 1.8 3 3.5 1.3-4.2 4.1-12.8 7.9 3-5.7 12.3-.8 1.7 2.5 3.8 1.9-4 5.7-12.3c3.2 1.4 2.5 1.1 5 2.3l-3.3 5.9c-.3 1.1-.2 2.6.5 4.5s1.5 3.2 2.5 3.6c1.1.6 2.5.7 3.7.5l-1 1.9-.9 1.7 2.3 4 2.2-3.9 2.1-3.7c3.2-.6 5.7-.6 7 0 .5.3.7.9.4 1.4-1.2 2.2-3.3 3.7-5.8 4.2l2.1 3.9c2.5-1.5 4.2-3.1 5-4.6.6-1.1.6-2.8.1-4.7s-1.4-3.3-2.3-3.8c-1.2-.6-2.8-.7-4.3-.3l2.3-4.2c3.7 2.3 7.1 4.7 10.2 7.2zM155 44.3l-4.3-6c-1.4-2-3.4-3.1-5.3-2.9-1.1.2-2 .5-2.6.9l2.7 3c.2-.4.9-.7 1.9-.9s2.4.8 3.5 2.4l2.8 3.2-.4.1c-5.6-3.3-9.2-5-11.2-4.7-1 .2-1.7.4-2.1.7l2.3 3.3c.4-.4 1.3-.7 2.7-.8 2-.3 4.7.5 7.8 2.3 1.4-.3 1.2-.4 2.2-.6zm-92.3 96.2c-.6 1.5-1.8 2.5-3.2 2.7-.4 0-.7-.4-.7-.7.6-2.8.2-5.1-.8-5.5-.8-.3-2.5-.1-5.2.6l2.4-6.1 7 2.6c.9 2.5 1.1 4.8.5 6.4zm19 .2c1.3-3 .2-6.2-2.4-7.2-1.1-.4-2.5-.3-4.1.3s-2.7 1.6-3.1 2.6c-.5 1.1-.4 2.7.3 4.2l3.2-1.5c-.8-1.2-1.1-2.5-.8-3.2s1-1.2 1.6-1c2.1.8 3 3.4 2.1 5.8-1.4 3.4-4.8 6-9.1 6.9l.4 1.3c5.9-1.3 10.3-4.3 11.9-8.2zm65.1-78.9c-1.6.5-3.3-.2-3.6-1.4-.4-1.4 0-3 1.3-4.1l5 4.3c-.8.6-1.7 1-2.7 1.2zm4.2-2l-5-4.4c.5-.3 1.3-.7 2.2-.9 2.2-.6 4.2 0 4.7 1.3.4 1.3-.4 2.9-1.9 4zm4.5-19.8l2.6-3.4-3.5-2.4-2.6 3.4zm13.3 16.9c-1.1.1-2-.7-2.1-1.8-.1-1.7 1.3-3.2 3.1-3.4 1.5-.1 3.3.5 4.8 1.8l-2.5 2.1c-.7.7-1.9 1.2-3.3 1.3zm68.8-6.6c2.6 1.1 5.7.5 7.7-1.6l-1.6-2.7c-1.8 1.5-3.9 2-5.4 1.4-1.9-.8-3-2.7-2.7-4.6l-1.4-.1c-.6 3.4.8 6.5 3.4 7.6zm-1.5 27.4l3.6-1-1.6-3.2-3.6 1zm8-6.9c-.5-.3-.7-1-.3-1.6l4.1-7.4 5.4 2.8-3.5 6.3c-2.9.3-4.8.3-5.7-.1zm48.5 16.6l4.6.8.3-4.4-4.6-.8zm7.7 48.7c-.5-1.5-.2-3 .7-4 .3-.2.8-.2 1 .1 1.4 2.5 3.2 4.1 4.3 3.7.8-.3 2-1.5 3.6-3.6l2.1 6.2-7.1 2.2c-2.4-1.3-4-3-4.6-4.6"/></g><path d="M155.2 44.4l-.3-.2-2.2.7.2.1z" fill="#04795f"/><g fill="#059b4e"><path d="M249.9 214.2l.9 1 1.1.7 1.3.4 1.6-.4.8-1.5-.1-1.6-.2-.7-.4-.7-.5-.5-.5-.4-.6-.3-.5-.2-.5-.2-.5-.2-.3-.1h-.4-.5l-.6.2-.5.4-.3.4-.1.5-.1.5.2 1.4zm-61.2-111.4l-1.2 2.1-.7 2.1.1 2.1 1.3 1.7h2.5l2.6-1.3 1-.9.8-.9.6-1 .4-1.1.3-1 .2-1 .1-.9v-.8l-.1-.6-.1-.6-.3-.6-.5-.5-.8-.4h-.7l-.7.1-.7.2-2.3 1.4z"/><path d="M182.5 84.1c52.1 0 94.5 40.6 94.5 90.4s-42.5 90.4-94.5 90.4S88 224.3 88 174.5s42.4-90.4 94.5-90.4z"/></g><g fill="#fff"><path d="M218.9 180.4s5.6 0 8.1-1.9 8.8-6.4 10.3-8.2c1.6-1.7 5.6-4.3 7.2-4.9s4.7-1.9 6.1-2.1c1.3-.2 3.6 0 3.6 0 1.4.8 2.9 4 .4 4.3-1.8.2-5.2-.2-8.8 1.9s-5.4 3-7.4 5.1-6.3 6-8.3 7.5-5.6 2.8-7.4 2.8-6.3-.4-5.4-2.6c1-2.1 1.6-1.9 1.6-1.9zm-80.3-55.6l15.2 17.6c2.6 3.5 4.9 8.2 5.4 11.2s5.8 14.1 5.8 14.1l3.7 5c1-.2 1.9.5 3 .4 2.4.7 2.1 1.3 1.3 2-1.4 1.9-1.6 4-1.2 5.6.3 1.6 3.6 6.6 4.6 9.6 1.1 3 3.4 3.1 3.4 3.1s1.7-2.7-2-10.5c-1.3-2.8-.2-3.2.4-4.2 1.6-2.5 4.6-.9 4.8-.1.3 1.2 1 9.9 4.1 9.9 3.2 0 10.5-6.3 14.2-7.3s9-1 10.5 1.5c1.6 2.5 4.6 5 4.6 8.5s-1.8 7-5.1 11.7-5.3 9.8-7.9 14.6l-3.2 7.1s-2.6-.5-1.6-5 2.1-7.6 4.2-10.1 4.1-7.3 6.9-12.6c2.7-5.3 1-8.6 1-8.6s-4.2-3-6.9-2c-2.6 1-10.5 5.5-14.2 8.1-3.7 2.5-5.3 4-5.8 10.1s0 21.2.5 24.7l2.1 14.6 2.1 8.1s-.5 5.5-2.6 3.5-2.6-10.6-3.7-13.1-1.4-5.8-.9-9.9c.5-4-1.2-7.8-1.2-7.8s-3.7-2.5-4.8 1.5c-1 4-1 9.1-1.6 13.1-.5 4-1.1 12.1-1.1 12.1s2 2.6-1.6 3c-1.8.2-3-.5-3.2-2.1-.2-1.5-.1-3.7-.7-6.5-1-5.6-7.2-28.3-8.8-33.3s-11.1-27.8-12.7-30.8-9-14.6-11.1-17.2c-2.1-2.5-3.7-5.6-6.9-4.5-3.2 1-6.3 7.1-7.9 14.1-1.6 7.1-1.6 17.7-1 20.7.5 3 1.5 10.4 1.5 10.4s-3.6 2.2-5.2-11.4-3.2-23.7-.5-30.3c2.6-6.6 5-10.8 8.4-13.6 3.5-2.8 4.3-3.1 8.4 2.5s12.1 15.6 14.3 20.7c2.1 5 9.5 17.2 11.1 20.2s3.7 10.1 3.7 10.1 4.3-10.4 4.3-17.4c0-7.1-3.2-11.3-5.9-17.9-2.6-6.6-7.2-18-8.8-21s-6.5-10.7-6.5-10.7l-4.8-7.1z"/><path d="M211.4 142.7l-1.9.9-1.4 1.2-1 1.6v1.9l1.5 1.5 2.4.4h1.1l1.1-.3.9-.5.8-.5.7-.6.5-.7.5-.6.4-.6.3-.4.2-.5.1-.6v-.6l-.3-.7-.5-.5-.5-.3-.7-.2-2.1-.3zm27.5 70.9l1.4 1.6 1.8 1.1 1.9.6 2.1-.5 1.1-1.9-.2-2.5-.4-1.1-.5-.9-.8-.8-.8-.7-.8-.5-.9-.4-.8-.3-.8-.3-.6-.1h-.5-.7l-.6.2-.6.4-.4.6-.2.6-.1.7.3 2.2zM220.3 195l.2 2.1.6 1.8 1.1 1.5 2 .8 2-.8 1.4-2 .3-1.1.2-1-.1-1-.2-1-.3-.9-.4-.7-.5-.8-.4-.6-.4-.4-.4-.3-.5-.4-.6-.2h-.8l-.6.2-.6.4-.5.5-1.1 1.8zm11.1-2.1l1.9.4h1.7l1.7-.7 1.1-1.5-.3-1.9-1.4-1.8-.9-.6-.9-.4-.9-.2-.9-.1-.9.1-.8.1-.7.2-.6.2-.5.2-.4.3-.4.4-.4.5-.1.7v.6l.2.5.3.5 1.4 1.5zM177 158.1l-2.1 1.3-1.7 1.5-1 1.8.2 2.2 2 1.3 2.8.2 1.4-.2 1.2-.4 1-.6.9-.7.8-.8.6-.7.6-.8.4-.7.3-.6.2-.5.1-.7-.2-.7-.4-.6-.6-.5-.6-.3-.8-.1-2.6-.1zm.8-45l.5 1.9.9 1.6 1.4 1.2 2 .3 1.6-1.5.7-2.2.1-1.1-.1-1-.3-.9-.4-.8-.4-.8-.5-.7-.5-.6-.5-.4-.4-.3-.5-.3-.6-.2-.7-.1-.7.3-.5.4-.4.5-.3.6-.5 2zm28.2 39.4l-1.7.8-1.3 1.1-.9 1.4v1.8l1.5 1.3 2.1.4h1l.9-.3.9-.4.7-.5.6-.5.5-.6.4-.5.4-.5.2-.4.2-.5.1-.5v-.6l-.3-.6-.4-.5-.5-.3-.6-.3-2-.2zm-6.1 9.4l-1.6.8-1.3 1.1-.9 1.4-.1 1.8 1.5 1.3 2.1.4 1-.1 1-.2.8-.4.7-.5.6-.5.5-.6.5-.5.3-.6.2-.4.2-.4.2-.6-.1-.6-.3-.6-.4-.5-.5-.3-.6-.2-1.9-.2zm39.6 39l2 .4h2l1.8-.6 1.2-1.6-.4-2-1.6-1.8-.9-.6-1-.4-1-.3h-1-.9l-.9.2-.8.2-.7.2-.5.2-.4.2-.5.4-.4.6-.1.7v.6l.3.6.3.5 1.6 1.6zm-50.5-44l.6 1.8.9 1.5 1.3 1.1 2 .4 1.6-1.1.9-2 .2-1.1-.1-.9-.3-.9-.4-.8-.4-.7-.5-.7-.6-.5-.5-.5-.4-.3-.4-.3-.5-.2-.7-.1-.7.2-.6.3-.4.4-.4.6-.6 1.8zm9-14.5l-.6 1.9-.1 1.8.4 1.8 1.5 1.4 2.1-.1 2-1.3.8-.8.5-.9.3-.9.1-1 .1-.8-.1-.9-.1-.8-.2-.7-.1-.5-.3-.4-.3-.5-.5-.4-.7-.3h-.7l-.6.1-.6.3-1.7 1.3zm-12-17.9l-1.9 1-1.6 1.3-1 1.7.1 2.1 1.8 1.2 2.6.3 1.3-.1 1-.4 1-.5.9-.6.7-.6.6-.7.5-.7.4-.7.3-.4.2-.5.1-.6-.2-.7-.3-.7-.6-.4-.6-.3-.7-.2-2.3-.1zm12 109.9l-.3 1.7.1 1.6.6 1.5 1.5 1.2 1.9-.3 1.6-1.4.5-.9.3-.8.2-.9v-.8l-.1-.8-.1-.7-.2-.7-.2-.6-.2-.4-.2-.4-.4-.4-.5-.3-.7-.2-.7.1-.5.2-.6.3-1.3 1.3zm-25.3-108.1l1 2 1.4 1.6 1.8 1.2 2.2-.1 1.4-1.9.3-2.6-.2-1.3-.3-1.1-.5-1-.6-.9-.7-.8-.7-.6-.7-.6-.7-.4-.5-.3-.6-.2-.6-.2-.8.1-.7.4-.5.6-.2.6-.2.7-.2 2.4zm46.2 7.5l-1.9.9-1.5 1.3-1 1.6v2l1.6 1.4 2.4.5 1.2-.1 1-.3 1-.4.8-.6.7-.6.6-.7.6-.6.4-.6.2-.5.2-.5.2-.6-.1-.6-.3-.7-.5-.5-.5-.3-.7-.3-2.2-.2zm-35.1 34.5l.1 1.9.6 1.8 1.1 1.4 1.8.8 2-.8 1.3-1.8.4-1.1.2-1-.1-.9-.2-.9-.3-.9-.4-.7-.4-.7-.4-.6-.3-.4-.4-.3-.5-.4-.6-.2h-.7l-.7.2-.5.4-.5.4-1.1 1.8zm40.7-43.5l-1.8.9-1.4 1.2-1 1.5v1.9l1.5 1.4 2.3.4h1.1l1-.3.9-.4.8-.6.7-.5.5-.7.5-.6.4-.6.3-.4.2-.5.1-.5-.1-.7-.2-.6-.5-.5-.6-.3-.6-.2-2.1-.3zm23 82.8l1.8.5 1.8-.1 1.6-.6 1.1-1.6-.4-1.9-1.3-1.7-.8-.7-.9-.4-1-.2-.8-.1h-.9l-.8.2-.7.2-.6.2-.4.2-.5.3-.4.4-.3.5-.1.7v.6l.2.5.3.5 1.4 1.6zm-84-58.2l.8 2.3 1.2 2 1.7 1.4 2.3.3 1.8-1.6.9-2.7.1-1.3-.2-1.3-.4-1.1-.5-1-.6-.9-.7-.8-.7-.7-.6-.6-.5-.4-.6-.3-.6-.2h-.8l-.8.2-.6.5-.4.5-.3.7-.6 2.5zm25.9 100.7l-.3 1.5.1 1.4.6 1.4 1.4 1 1.8-.3 1.4-1.2.5-.7.4-.8.1-.7v-.7-.7l-.2-.6-.2-.6-.2-.5-.1-.4-.3-.3-.3-.4-.5-.3-.7-.2-.6.1-.5.2-.5.3-1.2 1.1zm-12.1-102.4l-1.7 1.7-1.2 1.9-.5 2 .8 2 2.2.8 2.9-.5 1.2-.5 1-.7.9-.8.7-.9.5-.9.4-.9.4-.9.2-.8.1-.6v-.6l-.1-.7-.3-.6-.6-.5-.7-.3-.7-.1h-.8l-2.5.6zm34.9-26.9l.1 2.4.6 2.2 1.1 1.8 2 1.2 2.2-.9 1.5-2.2.4-1.3.1-1.2v-1.1l-.3-1.2-.3-1-.4-1-.4-.9-.4-.7-.4-.5-.4-.5-.5-.4-.6-.3-.8-.1-.8.2-.6.4-.5.6-1.2 2.1zm-29.2 14l-1.6 1.2-1.1 1.4-.7 1.7.5 1.9 1.9.9 2.4-.2 1.1-.3.9-.5.8-.6.7-.6.5-.8.4-.7.4-.6.2-.7.2-.5.1-.5-.1-.6-.2-.6-.5-.5-.6-.4-.6-.1-.6-.1-2.1.3z"/><path d="M204.3 132.8v2.4l.6 2.3 1.1 1.8 2 1.1 2.4-.8 1.7-2.1.6-1.3.2-1.2.1-1.2-.2-1.1-.3-1.1-.4-1-.4-.9-.5-.8-.3-.5-.4-.4-.5-.5-.7-.3h-.8l-.8.2-.6.3-.6.5-1.5 2.1zm24.2 71.6l.6 1.9 1.1 1.7 1.5 1.1 2.1.4 1.7-1.3.9-2.2.1-1.2-.2-1-.3-1-.5-.8-.5-.8-.6-.7-.6-.6-.6-.5-.4-.3-.5-.2-.6-.2-.7-.1-.7.2-.6.4-.4.4-.4.6-.6 2.1zm-2.4-92l-1.7 1.1-1.3 1.4-.7 1.6.2 1.9 1.7 1.2 2.4.2 1.1-.2.9-.4.8-.6.7-.6.6-.6.5-.7.4-.7.3-.6.2-.5.1-.5.1-.5-.1-.7-.4-.6-.5-.4-.6-.3-.6-.1h-2.1zm-33.7 61.8l-1.8 1.5-1.2 1.8-.7 1.9.6 2.1 2 1.1 2.8-.2 1.2-.4 1-.6.9-.7.7-.8.6-.9.5-.9.3-.8.3-.8.1-.6.1-.5v-.7l-.3-.6-.4-.6-.6-.4-.7-.2-.8-.1-2.4.3zm-3.9-58.5l-1.6.8-1.2 1.1-.8 1.4v1.8l1.4 1.3 2 .4h1.1l.9-.3.8-.4.6-.5.6-.6.5-.5.4-.6.3-.5.2-.5.2-.4.1-.5-.1-.6-.2-.6-.5-.5-.5-.3-.6-.2-1.8-.2zm-20.6 20.9l.7 2.1 1.1 1.8 1.6 1.3 2.2.3 1.7-1.5.8-2.5.1-1.2-.2-1.1-.3-1.1-.5-.9-.6-.9-.6-.7-.6-.6-.6-.6-.5-.3-.5-.3-.6-.2h-.8l-.7.2-.6.4-.4.5-.3.7-.6 2.3z"/></g><path d="M173.5 198.4c1.4 3 .9 4.7 1.3 7.3s.4 5.6 0 8.6-2.3 3.4-3.2 6.4-2.7 3-2.7 3-3.6-6-3.6-11.2v-11.6c1.8-5.6 3.5-12.9 8.2-2.5" fill="#059b4e"/></svg>