<?xml version="1.0" encoding="UTF-8"?>
<svg width="380.21" height="154.96" version="1.0" viewBox="-0.8625 -0.8625 57.124998 23.262503" xmlns="http://www.w3.org/2000/svg" xmlns:cc="http://creativecommons.org/ns#" xmlns:dc="http://purl.org/dc/elements/1.1/" xmlns:rdf="http://www.w3.org/1999/02/22-rdf-syntax-ns#">
<metadata>
<rdf:RDF>
<cc:Work rdf:about="">
<dc:format>image/svg+xml</dc:format>
<dc:type rdf:resource="http://purl.org/dc/dcmitype/StillImage"/>
<dc:title/>
</cc:Work>
</rdf:RDF>
</metadata>
<path d="m-0.8625-0.87187c0.81123 0.3425 1.3438 2.4375 1.3438 2.4375l5.0312 17.5c0.57999 2.19 2.415 3.3438 4.4688 3.3438h11.031c-0.78998-0.14125-1.6562-2.4688-1.6562-2.4688l-5.5938-17.406c-0.80502-2.6588-2.1625-3.4063-4.2188-3.4063zm46.688 0c-2.0612 0-3.395 0.7475-4.1875 3.4063l-5.625 17.406s-0.85752 2.3275-1.6562 2.4688h11.031c2.0638 0 3.8812-1.1538 4.4688-3.3438l5.0312-17.5s0.54873-2.095 1.375-2.4375zm-24.25 0.125v23.156h12.281v-23.156z" fill="#ed1a3a"/>
</svg>
