<?xml version="1.0" encoding="UTF-8"?>
<svg width="1012.5" height="191.36" version="1.0" viewBox="-0.8625 -0.8625 152.125 28.726847" xmlns="http://www.w3.org/2000/svg" xmlns:cc="http://creativecommons.org/ns#" xmlns:dc="http://purl.org/dc/elements/1.1/" xmlns:rdf="http://www.w3.org/1999/02/22-rdf-syntax-ns#">
<metadata>
<rdf:RDF>
<cc:Work rdf:about="">
<dc:format>image/svg+xml</dc:format>
<dc:type rdf:resource="http://purl.org/dc/dcmitype/StillImage"/>
<dc:title/>
</cc:Work>
</rdf:RDF>
</metadata>
<g transform="translate(-299.8 -518.86)">
<path d="m298.94 517.99c0.81123 0.3425 1.3438 2.4375 1.3438 2.4375l5.0312 17.5c0.57999 2.19 2.415 3.3438 4.4688 3.3438h11.031c-0.78998-0.14125-1.6562-2.4688-1.6562-2.4688l-5.5938-17.406c-0.80502-2.6588-2.1625-3.4062-4.2188-3.4062zm46.688 0c-2.0612 0-3.395 0.7475-4.1875 3.4062l-5.625 17.406s-0.85752 2.3275-1.6562 2.4688h11.031c2.0638 0 3.8812-1.1538 4.4688-3.3438l5.0312-17.5s0.54873-2.095 1.375-2.4375zm-24.25 0.125v23.156h12.281v-23.156z" fill="#ed1a3a"/>
<path d="m393.91 523.21-4.8438 0.46875v2.5625h-1.9688v2.5625h1.9688v7.9062c0 1.2438 0.23501 2.1762 0.65625 2.8125 0.44625 0.655 1.075 1.1588 1.9375 1.5312 0.86125 0.3875 2.085 0.5625 3.6562 0.5625 0.66625 0 1.5663-0.1175 2.7188-0.40625v-2.5c-0.5675 0.11125-1.055 0.1875-1.4688 0.1875-0.8725 0-1.5488-0.18125-2-0.5625-0.44875-0.375-0.65627-1.1062-0.65625-2.1875v-7.3438h3.8125v-2.5625h-3.8125zm-31.094 2.6875c-1.8562 0-3.425 0.34375-4.6875 1.0312-1.27 0.68375-2.21 1.6188-2.875 2.8125-0.66499 1.195-1 2.51-1 3.9062 1e-5 1.515 0.38125 2.94 1.1562 4.2188 0.77877 1.29 1.915 2.2262 3.375 2.8438 1.4488 0.61375 3.1362 0.90625 5.0625 0.90625 2.0462 0 4.1875-0.27 6.4688-0.84375v-2.8125c-2.0125 0.59875-3.8325 0.90625-5.4375 0.90625-1.2525 0-2.225-0.18875-2.9688-0.53125-0.74124-0.3425-1.3475-0.79375-1.7812-1.375-0.435-0.58125-0.6975-1.3888-0.8125-2.4062h11.062c-0.0425-3.3275-0.7275-5.5862-2.0938-6.8125-1.355-1.2212-3.1862-1.8438-5.4688-1.8438zm16.875 0c-2.4925 0-4.3463 0.4225-5.5625 1.2812-1.2175 0.84-1.8125 1.9238-1.8125 3.2188 0 1.09 0.37252 1.9512 1.1875 2.625 0.7975 0.69375 2.0638 1.3388 3.75 1.9062l1.625 0.53125c0.8275 0.26625 1.4275 0.56625 1.8438 0.84375 0.3975 0.29875 0.59375 0.66 0.59375 1.0938 0 0.48875-0.27497 0.86375-0.8125 1.1875-0.53375 0.32-1.2662 0.5-2.1562 0.5-1.6938 0-3.7262-0.42625-6.125-1.25v2.9688c2.2025 0.545 4.3625 0.8125 6.4688 0.8125 2.4725 0 4.3538-0.4825 5.6562-1.4375 1.2938-0.95125 1.9375-2.045 1.9375-3.3125 0-0.96375-0.35753-1.8-1.0625-2.5-0.72-0.69375-2.22-1.4062-4.5312-2.1562l-1.4062-0.46875c-0.83875-0.26-1.4137-0.51125-1.7188-0.78125-0.3275-0.28-0.50002-0.6175-0.5-0.96875 0-0.4575 0.24623-0.8125 0.75-1.0938 0.495-0.28625 1.25-0.4375 2.25-0.4375 1.285 0 2.8988 0.26 4.8438 0.78125v-2.8125c-2.0175-0.35875-3.7563-0.53125-5.2188-0.53125zm31.281 0c-1.3187 0-2.4775 0.2775-3.4375 0.8125-0.96126 0.5475-1.7338 1.3275-2.3438 2.4062v-2.875h-4.8438v20.5h4.8438v-7.0312c0.65123 0.55 1.23 0.95875 1.7188 1.1875 0.49876 0.23875 0.98625 0.435 1.5312 0.5625 0.53377 0.12375 1.1475 0.15625 1.7812 0.15625 2.3888 0 4.23-0.795 5.5625-2.375 1.3288-1.5725 2-3.52 2-5.875-3e-5 -2.2338-0.59-4.0375-1.7812-5.4062-1.1887-1.37-2.8712-2.0625-5.0312-2.0625zm15.875 0c-2.17 0-4.3425 0.35875-6.5312 1.0625v2.8125c1.92-0.8925 3.815-1.3438 5.6562-1.3438 0.93373 0 1.7075 0.15625 2.3125 0.46875 0.61623 0.3225 0.90625 0.95 0.90625 1.875v1.3438h-1.2812c-3.23 0-5.555 0.48625-7 1.4688-1.4312 0.995-2.1562 2.2425-2.1562 3.7188 3e-5 1.2088 0.4825 2.215 1.4375 3.0625 0.96503 0.83125 2.2462 1.25 3.8438 1.25 0.61997 0 1.195-0.0662 1.75-0.1875 0.54874-0.1275 1.0875-0.28125 1.5938-0.53125 0.50752-0.2525 1.1362-0.65125 1.8438-1.2188h0.1875c0.34 0.8 0.85875 1.3125 1.5 1.5625 0.64376 0.25625 1.4125 0.375 2.3125 0.375 0.78872 0 1.6938-0.10875 2.7188-0.375l-0.0625-2.2812c-0.26874 0.03-0.50625 0.0312-0.6875 0.0312-0.29872 0-0.6025-0.095-0.90625-0.28125-0.29876-0.175-0.4375-0.6475-0.4375-1.4688v-6.6562c1e-5 -1.2588-0.3225-2.1838-0.9375-2.8125-0.62627-0.63125-1.4575-1.1012-2.5-1.4062-1.045-0.3-2.245-0.46875-3.5625-0.46875zm19.094 0c-3.1162 0-5.5188 0.73625-7.125 2.1875-1.6138 1.4512-2.4063 3.3462-2.4062 5.6562 0 2.2138 0.75502 4.0975 2.2812 5.625 1.5212 1.5062 3.81 2.25 6.8438 2.25 1.7088 0 3.5525-0.20375 5.5312-0.65625v-2.8125c-1.5038 0.4875-2.955 0.75-4.375 0.75-0.98 0-1.8712-0.20875-2.6562-0.59375-0.7825-0.38875-1.3825-0.9975-1.8125-1.8438-0.4425-0.845-0.65628-1.7662-0.65625-2.75 0-1.265 0.36872-2.4412 1.125-3.5 0.75625-1.0625 1.9537-1.5625 3.5938-1.5625 1.1575 0 2.7138 0.265 4.6562 0.8125v-2.9688c-1.8862-0.40375-3.55-0.59375-5-0.59375zm-83.281 2.5625c0.85872 0 1.5588 0.28625 2.0938 0.875 0.54122 0.58625 0.8125 1.5512 0.8125 2.9062h-6.3125c0.15123-1.2412 0.5275-2.1662 1.125-2.8125 0.60123-0.645 1.3588-0.96875 2.2812-0.96875zm46.531 0.65625c1.1062 0 1.9388 0.4325 2.5312 1.25 0.59999 0.815 0.90625 1.9362 0.90625 3.3438-1e-5 1.3788-0.3125 2.5825-0.9375 3.6562-0.62497 1.065-1.5575 1.5938-2.8438 1.5938-0.60249 0-1.2025-0.11375-1.7812-0.34375-0.58374-0.23625-1.2075-0.675-1.875-1.3125v-5.9062c0.58873-0.70625 1.2125-1.255 1.9062-1.6562 0.69999-0.40875 1.41-0.625 2.0938-0.625zm18.875 5.3438h1.125v3.0312c-0.58878 0.4525-1.1688 0.77375-1.75 1-0.58001 0.23625-1.1575 0.375-1.7188 0.375-0.62501 0-1.155-0.19625-1.625-0.5625-0.45125-0.3675-0.6875-0.8275-0.6875-1.4062-2e-5 -0.70125 0.39375-1.2862 1.1562-1.75 0.76748-0.46125 1.93-0.6875 3.5-0.6875z" fill="#2d373c"/>
</g>
</svg>
