<?xml version="1.0" encoding="utf-8"?>
<!-- Generator: Adobe Illustrator 24.1.0, SVG Export Plug-In . SVG Version: 6.00 Build 0)  -->
<svg version="1.1" id="Layer_1" xmlns="http://www.w3.org/2000/svg" xmlns:xlink="http://www.w3.org/1999/xlink" x="0px" y="0px"
	 viewBox="0 0 188.5 90.7" style="enable-background:new 0 0 188.5 90.7;" xml:space="preserve">
<style type="text/css">
	.st0{fill:#0EE06E;}
	.st1{fill:none;}
	.st2{font-family:'TrustlySans-Medium';}
	.st3{font-size:15px;}
</style>
<path class="st0" d="M176.2,90.8H12c-6.6,0-12-5.4-12-12V12.2c0-6.6,5.4-12,12-12h164.2c6.6,0,12,5.4,12,12v66.6
	C188.2,85.4,182.8,90.8,176.2,90.8z"/>
<rect x="12.7" y="63.5" class="st1" width="161.3" height="32.2"/>
<text transform="matrix(1 0 0 1 15.744 74.4678)"><tspan x="0" y="0" class="st2 st3">Instant</tspan><tspan x="49.4" y="0" class="st2 st3"> </tspan><tspan x="53.1" y="0" class="st2 st3">Bank</tspan><tspan x="89.4" y="0" class="st2 st3"> </tspan><tspan x="93.1" y="0" class="st2 st3">Payment</tspan></text>
<g>
	<g>
		<path d="M68.5,47.9V27.6h-7.3v-4.8H81v4.8h-7.3v20.3H68.5z"/>
		<path d="M80.2,47.9V29.7H85v2.9c1.1-2.4,2.6-2.9,4.2-2.9h1.9v4.9h-1.6c-2.3,0-4.3,1.3-4.3,5.3v8.1H80.2z"/>
		<path d="M93.4,41.3V29.7h5v10.4c0,2.1,1,3.7,3.2,3.7c2.1,0,3.4-1.6,3.4-3.7V29.7h5v18.3h-4.8v-2.3c-1.2,1.8-3,2.7-5.3,2.7
			C95.9,48.4,93.4,45.6,93.4,41.3z"/>
		<path d="M112,42.8l4.3-1c0.2,1.4,1.3,2.5,3.5,2.5c1.7,0,2.6-0.7,2.6-1.6c0-0.7-0.4-1.2-2.1-1.6l-2.9-0.6c-3.7-0.8-5.2-2.5-5.2-5.6
			c0-3.1,2.6-5.7,7.4-5.7c5.2,0,7.2,3.1,7.4,5.1l-4.4,1c-0.2-1.1-1-2.2-3.2-2.2c-1.4,0-2.4,0.6-2.4,1.5c0,0.8,0.5,1.2,1.4,1.4l4.2,1
			c3.2,0.7,4.7,2.6,4.7,5.3c0,2.9-2.3,5.9-7.6,5.9C114.2,48.3,112.3,44.8,112,42.8z"/>
		<path d="M137.1,47.9c-3.2,0-5.4-1.8-5.4-5.3V34h-3.1v-4.4h3.1v-4.1l5-1.4v5.5h3.7V34h-3.7v7.7c0,1.3,0.7,1.9,2,1.9h1.9v4.4H137.1z
			"/>
		<path d="M143.4,47.9V22.8h5v25.2H143.4z"/>
		<path d="M163.5,29.7h5.3l-7.6,24.8h-5.3l2.1-6.6h-2.8l-5-18.3h5.3l3.8,14.1L163.5,29.7z"/>
	</g>
	<polygon points="18.3,33.8 30,33.8 30,24.4 39.4,33.8 30,43.2 30,47.9 41.4,47.9 41.4,33.8 51.8,33.8 51.8,22.8 18.3,22.8 	"/>
</g>
</svg>
