<svg xmlns="http://www.w3.org/2000/svg" width="2500" height="707" viewBox="0 0 697.484 197.333"><path fill="#B30738" d="M98.672 0C44.173 0 0 44.166 0 98.665c0 54.496 44.173 98.668 98.672 98.668 54.492 0 98.668-44.172 98.668-98.668C197.34 44.166 153.164 0 98.672 0zM21.216 98.665c0-38.824 28.563-70.938 65.817-76.549v36.239l-16.136.055c-12.131 0-19.489 8.907-19.489 21.027v37.98c0 12.127 9.94 21.48 22.063 21.48l13.499.004.062 36.378c-37.253-5.62-65.816-37.798-65.816-76.614zm53.634 18.99s-1.078-.111-1.616-1.047c-.526-.918-.383-1.406-.383-1.406V82.253s-.053-1.166.586-1.874c.6-.673 1.713-.701 1.713-.701h46.579s.743-.104 1.602.367c.736.394 1.151 1.947 1.151 1.947v33.813s-.415.938-.81 1.267c-.377.321-1.141.572-1.141.572l-12.326.024-35.355-.013zm35.154 57.687l-.07-36.695h14.535c12.131 0 21.037-9.103 21.037-21.229v-37.98c0-12.12-9.664-20.971-21.787-20.971l-13.785.014-.007-36.455c37.446 5.453 66.194 37.687 66.194 76.64 0 38.938-28.689 71.22-66.117 76.676z"/><path fill="#231F20" d="M659.243 188.834l.436-.997c.292-.301 2.03-.75 2.739-1.636.672-.883 15.127-33.59 15.127-33.59l.886-.224 13.272 30.479c.885 2.008 1.486 3.363 1.995 3.855.533.467 1.862 1.037 2.756 1.117.53.041.222.813.222.813l-14.583-.02s-.967-.739 0-1.114c.592-.23 2.937-.943 3.315-2.431.16-.659-.15-2.219-.82-3.998-.464-1.252-1.787-4.005-2.525-4.529-.664-.465-3.41-.216-5.932-.29-2.296-.066-5.34-.153-6.3.367-1.208.648-2.53 5.672-2.816 6.455-.265.756 0 2.521.666 3.042 1.114.869 3.337 1.556 4.145 1.783l.224.886-12.807.032zm22.077-14.943c.373-.484-1.002-3.207-2.299-6.082-.96-2.145-2.59-6.31-3.112-6.15-.37.108-1.703 3.408-2.739 5.78-1.119 2.56-2.474 5.768-1.935 6.298.32.324 2.823.526 4.898.45 2.378-.083 4.852.157 5.187-.296zm-405.886 7.173c.775-3.8-.078-6.305-2.296-8.16-1.058-.883-3.873-2.222-6.162-2.222-3.153 0-5.226-.298-5.226 3.216l.035 8.575c0 4.811 6.008 4.299 6.008 4.299 4.896 0 7.048-2.823 7.64-5.708zm94.837 6.374c.055.066 1.857-.449 2.68-1.709.43-.666.96-1.577.96-3.85v-22.692c0-1.41-.436-2.768-1.037-3.339-.579-.572-1.503-1.172-3.555-1.329 0 0-1.566-.97 0-1.406l13.711-.031s1.266.395.158.99c-.992.524-1.864.15-2.658 1.042-.551.62-.886 1.83-.907 3.758v11.21c0 .446.435 1.102.592 1.116.736.074 1.186-.837 1.56-1.036 1.486-1.263 3.775-3.734 5.855-5.711 3.725-3.545 5.606-5.39 6.228-6.232.816-1.105.973-2.666.526-3.188-.526-.59-1.636-.59-2.599-.89 0 0-.89-.594.143-.959h12.238s.444 1.109-.223 1.405c-1.693.157-2.317.516-3.333 1.04-.976.497-3 1.912-4.744 3.631 0 0-8.945 7.696-8.607 8.606.52 1.403 5.684 7.453 9.194 12.3 1.506 2.09 3 4.692 3.858 5.347.83.6 2.145 1.853 3.262 1.853 1.295 0 .67 1.185.67 1.185s-6.963-.26-8.157-.15c-.82.074-1.8-1.412-1.8-1.412-2.718-3.556-10.516-14.455-11.098-15.128-.3-.22-3.49 2.153-3.565 4.16v6.595c0 1.982.463 2.988 1.036 3.565.966.957 3.405 1.257 3.405 1.184 1.127.296.376 1.043.376 1.043h-14.755c0 .002-.516-.744.586-.968zm-45.713.015c1-.384 2.825-1.529 3.53-2.314.666-.785 1.175-1.472 1.175-4.305 0 0-.15-17.2-.15-19.722 0-2.076-.73-4.823-1.695-5.561-.974-.748-2.125-1.21-3.34-1.259 0 0-.958-1.04.078-1.264h9.267l21.955 24.251s.85 1.06 1.328.817l.203-1.179c.097-1.859.021-16.123.021-16.123 0-1.533.293-3.236-.744-4.426-1.328-1.517-3.97-1.786-4.748-2.075-.593-.221-.593-.89.073-1.109h11.717c.816.07.23.89.23.89-1.337.37-2.638.662-3.262 1.48-.742.962-1.126 2.407-1.126 5.243v28.254h-.98s-24.109-26.192-25.56-27.637c-.659-.667-.885.22-.885 1.113 0 .886-.066 18.017-.066 18.017 0 2.94.59 4.744 2.466 5.73.729.385 2.616.857 3.461 1.014.367.078.552 1.141.552 1.141H324.56c-.002-.003-.359-.84-.002-.976zm-39.994 1.063l.436-1.002c.3-.296 2.044-.743 2.745-1.632.666-.894 15.121-33.594 15.121-33.594l.9-.224 13.274 30.48c.883 2.002 1.469 3.363 1.996 3.854.524.471 1.853 1.039 2.74 1.116.537.043.23.814.23.814l-14.766.369s-.512-.813.45-1.183c.599-.23 2.676-1.262 3.039-2.748.171-.663-.15-2.223-.816-3.998-.465-1.256-1.773-4.009-2.515-4.529-.664-.466-3.417-.218-5.935-.292-2.303-.073-5.345-.154-6.298.37-1.214.65-2.542 5.666-2.822 6.447-.265.762 0 2.523.663 3.04 1.123.872 3.34 1.563 4.155 1.782l.22.891-12.817.039zm22.092-14.945c.36-.489-1.008-3.203-2.296-6.078-.976-2.152-2.595-6.319-3.122-6.159-.374.12-1.704 3.41-2.747 5.782-1.122 2.571-2.466 5.77-1.922 6.308.321.314 2.824.512 4.895.445 2.376-.086 4.857.16 5.192-.298zm-32.995-11.328c.028-2.39-1.37-4.596-2.903-5.876-.887-.739-2.588-1.63-4.518-1.63-2.672 0-4.43.367-4.43 2.892l-.025 9.413c-.22 2.225 5.108 1.661 5.108 1.661 4.466 0 6.688-.616 6.768-6.46zm-22.477 25.171c1.782-.492 3.091-.93 3.639-1.612.59-.739.795-1.208.823-3.214v-23.757c-.013-1.424-.38-2.24-1.2-3.132-1.595-1.74-3.488-.596-3.775-1.258-.223-.495-.157-1.389-.157-1.389h14.956c4.281 0 7.114.185 9.665 1.466 1.929.966 4.231 3.258 4.231 6.716 0 4.78-3.858 6.475-5.41 7.588 2.965.816 7.855 2.526 7.855 8.087 0 5.778-3.188 9.418-6.227 10.377-2.086.67-4.689 1.065-7.661 1.088h-16.74v-.96zm214.979.317c0 .105 1.852-.593 2.668-1.257.587-.485 1.037-1.465 1.037-3.788l.077-22.464c0-1.878-.235-2.746-.894-3.786-.67-1.022-2.302-1.257-4.225-1.557 0 0-1.402-1.036-.415-1.462-.108-.018 10.404.056 15.467.129 5.195.083 10.372-.422 10.903-.073.67.449.314 5.441.443 6.378.07.516-.331 1.573-.816 1.632-.593.074-.735-.987-.735-1.632 0-1.337-1.132-2.882-1.41-3.262-.715-.948-2.08-1.137-2.738-1.137h-7.982c-.708 0-.912-.014-1.152.247-.182.24-.488.83-.516 1.56v9.855c0 .594.029 1.434.366 1.56.828.293 6.154.224 6.154.224.9 0 1.936-.894 2.236-1.406.458-.803 1.225-1.769 1.627-2.973.227-.662 1.406-1.185 1.406.302 0 .935.157 11.568.157 11.568-.6.817-1.113-.222-1.113-.222-.402-2.063-.76-2.809-1.417-3.483-.62-.676-1.56-1.486-2.896-1.486l-4.591-.066c-1.706-.154-1.779 1.699-1.856 2.365l-.074 9.497c.074.957.3 2.24.894 2.81.6.523 2.117 1.597 4.148 1.782.977.077.3 1.166.3 1.166h-15.43c0-.001-.743-.498.377-1.021zm-36.933-30.324c3.283-3.136 8.034-4.498 12.831-4.521 4.798 0 8.775.75 12.08 3.925 3.55 3.415 5.395 7.64 5.424 13.351 0 5.784-1.866 10.501-5.569 13.939-3.283 3.048-7.916 4.858-12.612 4.883-5.006 0-9.804-1.35-13.119-4.737-3.339-3.438-4.57-8.046-4.597-13.499 0-5.68 1.965-9.874 5.562-13.341zm4.598 25.802c2.943 3.347 4.975 4.075 9.042 4.075 2.823 0 5.663-1.66 7.865-4.29 1.853-2.226 2.745-6.158 2.745-11.947 0-5.815-1.607-9.688-3.781-12.381-2.523-3.117-5.254-3.828-8.381-3.853-3.178 0-6.374.814-8.458 3.185-2.27 2.589-3.3 6.724-3.332 12.386 0 5.608 2.663 10.974 4.3 12.825zm186.053 4.23c0 .077 2.373-.743 3.265-2.073.552-.84.91-1.633.91-4.452l-.316-22.17c-.15-1.71-1.437-2.903-1.999-3.193-.74-.37-1.953-.283-2.602-.814 0 0-1.484-1.105-.224-1.336-.095.038 8.974-.293 9.096.038.99.632 15.155 16.35 21.017 23.1 1.93 2.293 2.668 1.923 2.588-.3l.08-16.605c0-2.375-1.19-3.198-1.702-3.565-1.083-.77-2.086-1.333-3.863-1.645 0 0-1.48-.502 0-.986h11.645c.817-.039.817.631 0 .851-1.036 0-2.285.838-2.958 1.625-.68.79-1.015 2.555-1.015 5.37l-.035 27.114c-.067 1.264-1.26.598-1.26.598s-22.09-24.105-24.722-27.05c-.035-.029-.408-.762-1.05-.297-.4.285-.45.427-.408 1.088l.066 18.174c0 2.923 1.005 4.525 1.862 5.411.552.575 1.46 1.054 3.413 1.259 1.186-.069.971 1.176.971 1.176l-13.569.011c.002.003-.233-1.037.81-1.33zm-20.612.362c.52-.14 1.642-.757 2.302-1.253.622-.5.97-1.486.994-3.574l.111-22.9c-.076-1.486-.076-3.266-.812-4.005-1.081-1.077-2.289-1.535-4.49-1.645 0 0-.928-.502 0-.986H612.1c1.179.191-.157.986-.157.986-1.18.015-2.132.637-2.59 1.202-.675.808-.648 2.472-.75 3.708v23.64c0 2.062.688 3.277 1.345 3.797.617.471 1.367.855 3.555 1.04 1.408.22 0 .958 0 .958l-14.234-.01c-1.116-.358 0-.958 0-.958zM553 187.662c-.094.011 2.215-1.5 2.735-2.079.524-.545.966-1.462.966-3.779l.15-22.102c0-1.904-.387-2.973-.82-3.705-.516-.893-1.723-1.029-3.705-1.183 0 0-2.823-.672-.223-1.338h13.865c1.492.072.233.951.233.951-1.12.015-2.012.387-2.57 1.069-.497.635-.988 1.766-.88 3.73v7.818s-.108 1.857 1.514 1.78c2.383-.106 13.034.202 14.678.077 1.936-.147 2.302-1.333 2.302-2.227.076-2.22 0-7.22 0-7.22 0-1.906-.51-3.357-1.077-3.957-.58-.565-1.853-.908-3.842-1.069-1.385-.205-.422-.986-.422-.986l14.757.014s.743.837-.443.987c-1.19-.077-1.674.464-2.268 1.054-.579.576-.865 1.804-.865 3.73l.021 23.539c0 1.932.38 2.547.967 3.118.57.517 1.207 1.418 3.18 1.633 1.037.146 1.487 1.182.3 1.256l-13.498.3s-1.779-.816.224-1.486c0 .077 1.556-.515 2.156-1.479.388-.65.666-2.372.666-3.562 0 0 .077-8.227.077-9.497 0-.882-.3-2.068-1.487-1.85 0 0-14.468-.037-15.647-.15-.816-.068-1.34.37-1.34 1.93v9.344c0 1.926 1.034 3.506 1.632 4.079.58.547 1.65 1.077 3.64 1.262 1.705.224.435 1.11.435 1.11l-15.773-.012c.002-.001-.904-.8.362-1.1zm-14.765-33.221c1.881.977 3.413 1.772 4.233 1.706.508-.053.925-1.085 1.102-1.706.826-1.117 1.12.886 1.12.818l.66 10.003s-.66.974-1.33 0c-.701-2.373-2.56-4.985-3.854-6.374-1.93-2.079-5.418-4.162-9.127-4.229-4.218-.073-7.146 1.66-9.34 4.375-1.856 2.3-2.966 6.16-2.966 10.163 0 4.737 2.01 10.236 4.825 12.901 2.73 2.589 5.655 3.898 9.492 3.929 2.76 0 4.32-.75 6.671-2.079 1.33-.725 3.133-2.686 4.742-4.221.96-.816 1.486.297 1.486.297.15.81-2.916 4.012-5.411 6.004-1.86 1.486-6.678 3.193-9.123 3.193-5.732 0-9.044-.3-14.091-4.825-2.851-2.56-4.444-7.86-4.476-12.94 0-5.192 1.653-9.549 4.926-13.09 3.447-3.705 7.93-5.552 13.511-5.552 1.926 0 5.105.662 6.95 1.627M392.579 52.27c.231-.437.292.372 1.389 1.573 1.1 1.194.422 1.563 1.078 2.526.653.978.66.458.495 1.57-.153 1.103-.372.88-1.353 1.682-.97.791-.15.436-1.107-.534-.945-.976-.115-2.373-1.06-3.199-.956-.824-1.028-.824-.798-2.152.24-1.33 1.122-1.023 1.356-1.467zm-3.748 3.656c.45-.29 1.247 1.053 1.825 2.466.565 1.412.573 1.112 1.072 2.676.502 1.566.36.82-.914 2.281-1.28 1.473-2.976 1.298-4.696 2.833-1.724 1.535-2.467 1.081-4.027 2.174-1.566 1.091-1.342.726-2.665.192-1.328-.534-1.246-.911-.346-2.009.894-1.096.75-.506 1.418-1.088.672-.589-.803-.677-.064-1.263.75-.579.664.23 1.864-1.081 1.203-1.323.845-1.553 1.293-2.359.45-.806.98-1.761 2.254-2.344 1.264-.573 2.544-2.188 2.986-2.478zm9.745-31.56c.443-.213 1.41-.199 2.44-.043.607.098-.45-.156 2.152-.269 1.328-.056 2.065.618 3.245 1.298 2.76 1.597 4.698 2.156 5.29 3.029.507.736.895 2.18.7 3.265-.158.882-.248 2.585-1.378 3.533-.966.824-1.532 1.574-2.016 2.052-.456.44-.286 1.768-1.071 2.055-.96.362-1.695-.31-2.875-.325-1.267-.022-2.237.708-2.603.331-.265-.273-.551-.726-1.015-1.044-.442-.304-1.099-.084-1.179-.61-.136-.82-1.165-2.994-1.957-3.796-.294-.3.449-1.859.034-2.373-.443-.527-.36-1.34-.43-1.856-.065-.54-.06-.991-.052-1.556.008-.516-.683-1.344-.348-2.003.23-.436.572-1.45 1.063-1.688zm-11.995 9.322c-.272-1.41 1.352-1.015 2.838-1.815 1.496-.799.746-.586 1.182.6.433 1.194-.447.076-.837 1.699-.38 1.622-.38 1.329-1.43 2.059-1.044.718-.894-.084-1.395-.908-.508-.825-.071-.225-.358-1.635zm-17.772-8.941c-.3-.694 1.521-3.095 6.325-9.103 4.27-5.335 13.14-8.876 16.782-10.156.778-.279 3.353-1.029 4.24-1.217.67-.137 3.367-.252 4-.468 1.267-.425 3.392-.272 3.783-.471.924-.443 1.901-.694 2.975-.925 1.235-.261 2.809.405 3.925.195 2.167-.401 3.872.834 5.084 1.472 4.19 2.2 8.763 9.954 10.487 14.343 1.724 4.389 5.269 16.722 5.889 26.801.401 6.473.157 23.393-.091 25.985-.45 4.616-.638 15.456-.96 17.529-.383 2.501-.673 6.81-1.58 8.352-1.678 2.85-8.492 7.934-9.964 9.274-1.196 1.101-6.35 5.586-6.949 5.548-.744-.053-1.609-1.578-3.224-3.15-2.875-2.815-10.368-5.46-13.532-7.198-3.105-1.716-13.286-2.662-19.506-3.054-4.438-.275-11.238-.872-11.458-1.395-.244-.586-.736-.383-1.409-.393-.607-.004-.667.74-.816 1.026-.235.442.293.226.059 1.486-.244 1.256.356.446.492 1.486.143 1.044.587.6.203 1.557-.374.96 1.542 1.65 1.895 2.69.426 1.235.405 2.818-.918 2.875-1.437.065-2.693.631-4.225.097-1.113-.387-4.918-3.835-5.11-5.991-.172-1.834-.423-6.081-.573-7.406-.272-2.365-1.16-8.6-1.41-11.713-.268-3.116-.564-2.452.04-3.705.607-1.249-.945-1.437-.41-3.109.388-1.19-.107-3.467.58-4.95.307-.667-.49-.667-.43-1.343.092-.894.172-1.48.402-2.363.185-.68.091-1.482.035-2.742-.06-1.259-.052-1.777.485-2.663.321-.547-.292-.82-.206-1.921.049-.643.82-6.44 1.137-8.653.33-2.205.813-8.093 1.222-8.868 1.137-2.132 1.787-6.935 2.253-8.639.493-1.794 2.065-3.401 2.43-4.784.157-.586 1.115-1.091 1.493-.861.51.307.721 1.864.715 2.449-.014.865-.586 4.608-.956 5.393-.464.957-.953 4.42-1.022 4.952-.143.923-.178 1.995-.258 2.658-.088.667-.538 1.553-.77 2.285-.182.608.148 1.835-.032 2.443-.227.812-.157 1.336-.54 1.992-.36.635.205 1.26-.022 1.78-.286.638.279 1.262-.168 1.992-.47.763.312.935.053 1.926-.315 1.19-.259 2.149-.559 2.731-.3.59.559 1.368.265 2.453-.387 1.476-.122 9.856-.351 11.545-.248 1.695-.164 7.026.037 7.996.143.666.2 1.999.793 1.926.736-.08.865-2.477 1.58-2.341.45.08.157 1.447.272 2.366.207 1.71.07.255.478 3.266.272 2.007-.069 5.33.216 6.374.279 1.04.125 1.995 1.235 2.009.959.014.6-.733 1.356-1.681.748-.96.797-1.099 1.41-.653.515.378 4.14.345 5.328.143 1.535-.275 2.602-1.543 3.66-2.328 1.266-.945 6.206-5.624 8.68-7.741 1.12-.956 4.204-4.613 5.404-5.785 1.988-1.936 5.062-5.135 5.54-5.704.38-.44.538-1.032.1-1.852-.257-.495-.658-.6-1.18-.308-1.28.715-2.915 2.848-4.19 3.653-2.225 1.4-5.027 3.296-6.57 4.211-1.71 1.009-4.175 2.167-5.735 3.036-2.017 1.13-4.28 1.859-4.62 2.02-.742.366-1.007.583-1.698.049-.586-.446-.407-.181.171-2.069.39-1.256-.606-2.624.8-4.431.9-1.173 1.752-4.196 3.182-5.955.508-.635 3.268-4.075 3.833-4.993.458-.728 1.364-1.133 1.5-1.38.458-.898 1.023-1.993 1.288-2.14.935-.488 1.874-1.877 2.016-2.048.314-.353.43-.583.241-1.177-.077-.226-.55-1.053-1.113-.383-.593.73-1.703.938-2.153 1.232-.836.538-.614 1.549-1.431 1.609-1.2.094-1.088-1.864-.935-2.523.191-.778-.43-.973-.053-1.786.88-1.859.622-2.062.852-2.425.223-.372.428-.087.892-.656.301-.373-.279-.89.088-1.336.763-.887.98-1.948 1.737-2.425.82-.503 2.25-2.412 2.4-2.924.189-.635.251-1.28.47-1.926.08-.224-.764-.339-1.099-.75-.366-.45-.063-.744.088-1.557.084-.44-.795-.977-.788-1.562.007-.67-.07-.963-.88-.9-.816.062-2.595 1.905-4.018 2.174-1.493.275-2.667-.779-1.902-2.244.94-1.829 3.16-4.476 3.61-5 .668-.75.54-1.461.472-2.205-.07-.761-.758-2.449-.985-4.239-.13-1.036-1.26-4.877-1.49-5.341-.143-.296-.478-1.218.388-1.553.374-.146 1.11.678 1.615 1.424.772 1.128 1.962 3.21 2.318 3.956.449.925.879 1.87 1.081 2.6.14.527.499 1.49 1.243 1.577.728.076 1.186.01 1.636-.429.761-.743 4.707-2.293 6.399-2.885.816-.283 1.266-.429 2.138.105.498.296 1.095 2.012 1.388 2.159.6.317.886.237.729.68-.102.29 0 .142-.747 1.028-.757.875-.097 1.183-.84 2.365-.762 1.17-1.376 2.784-1.682 3.517-.294.718-.974 1.026-1.494 1.546-.607.586-.395 1.399-.687 1.545-.93.45-.908.307-1.2.949-.3.656-.464 1.688.265 3.038.356.667 1.022.82 1.158 1.344.273.994.957.974 1.323 1.494.621.904.506.847.865 1.424.662 1.04.579.603 1.399 1.196.51.372.938 1.57 1.517 2.17.963.974 2.201 1.727 3.081 2.777.708.842.73 1.267.642 2.007-.135 1.248.142.52-.314 1.398-.335.66-.02 1.557-.028 2-.006.82-.013 1.405-.537 2.145-.534.73-2.031 2.638-2.338 3.374-.255.611-.463 1.249-.163 1.549.4.419.728.604 1.252.244.949-.667 3.761-5.283 6.168-8.37 1.287-1.64 3.93-6.023 4.538-7.198.618-1.207 2.485-3.479 2.86-3.964.224-.292.887-.286 1.03.234.122.46-.083.963.052 1.266.206.398.736.154.812.817.06.67.13.966-.094 1.328-.17.287.415.44.067 1.04-.308.52.055 1.557-.772 2.51-1.178 1.357-4.075 5.2-5.27 6.75-1.65 2.128-6.462 7.84-7.205 8.502-.408.346-.9 1.127-.687 1.618.359.82 1.737 3.127 2.546 3.803 1.043.869 3.224 2.181 4.194 2.201 1.137.014 1.887-.321 2.302-.641 1.79-1.389 3.228-4.404 3.842-5.879.85-2.047 2.23-6.266 2.31-6.922.126-1.04-.345-2.16-.265-2.529.105-.454.742-.359.886.091.185.593.35 1.706.485 2.445.237 1.233-1.636 7.533-1.964 9.675-.401 2.589-3.527 7.005-3.796 7.659-.158.362-.088.955-.831 1.015-.865.084-1.18-.161-1.695-.308-1.923-.545-3.538-1.897-4.77-3.025-1.25-1.123-4.172-4.713-4.54-5.313-.264-.447-1.234-1.12-1.684-.75-.816.658-2.03 2.48-2.631 2.923-.46.34-1.36.694-1.867 1.233-.75.806-1.646 1.835-2.54 2.634-.67.596-3.523 2.701-4.046 3.213-.82.807-1.801 2.122-2.4 2.56-.6.44-2.609 1.668-3.21 2.335-.672.733-1.622 2.23-2.404 2.558-.52.212-1.193 1.091-.685 1.542.514.45 2.23-.33 3.337-.543.882-.168 2.226-.199 3.195-.259.586-.049 1.137-.67 2.52-1.085 1.2-.353 2.002.171 2.522.031.646-.174 1.043-.429 2.086-.715 1.16-.314 2.74-.111 3.405-.397.478-.213.458-.363 1.35-.949.58-.38 1.355-.028 1.997-.195a42.124 42.124 0 0 0 3.868-1.214c1.23-.45 5.203-1.416 5.795-1.482.565-.063 1.418-1.313 2.383-1.672 1.229-.457 3.566-.037 4.525-.613.572-.343 1.88.411 2.494 1.513.802 1.417-.102 2.143-.322 2.955-.592 2.038-1.15 2.952-1.823 3.682-.684.728-.922 2.058-2.03 2.351-1.278.314-1.944.502-3.333-.123-2.501-1.145-3.851-.048-5.324-.358-2.2-.475-3.046.627-4.082.533-.516-.035-2.181-.313-2.663-.025-1.44.834-2.598.632-3.565.918-.81.237-1.116 1.022-.68 1.399.764.648 3.31 1.297 5.39 1.172 3.325-.192 5.764.516 7.1.61 1.99.133 3.388 1.221 4.355 1.235 1.09.01 1.547.534 2.652.844.736.21 1.622.471 2.438.399.894-.063 1.567.61 1.917.466 1.342-.498 1.346-.38 2.082-.565.593-.136 1.8-1.689 2.616-2.258 1.052-.732 3.224-2.78 3.674-4.032.47-1.276.621-1.839 1.078-3.469.4-1.367-.192-1.475.346-3.691.477-1.915-.008-5.031.377-6.214.237-.75.164-1.11.388-1.776.314-.896.006-1.563-.049-1.919-.066-.45.614-1.406.614-1.995.007-.514-.573-.97-.189-2 .475-1.301.101-2.669.475-3.105.378-.442-.421-1.186-.195-1.856.346-1.001.373-5.115.156-7.25-.253-2.669.147-6.298.244-7.63.046-.676-.871-1.19-.571-1.779.415-.802-.043-2.072-.179-3.109-.184-1.385-.621-3.93-.68-5.485-.097-2.665-2.586-18.156-4.172-22.116-2.22-5.585-8.158-11.429-10.583-12.494-2.316-1.022-5.32-.882-7.235-.907-1.486-.02-6.755.812-11.434 2.302-4.158 1.33-8.6 3.388-10.05 4.247-1.713 1.015-3.66 3.363-4.948 4.675-1.372 1.433-1.73 3.133-2.114 3.901-1.054 2.139.014 4.815.234 5.554.352 1.262.038 2.152-.478 2.368-1.159.478-.666.507-2.822.775-.703.088-1.997-.537-2.063-1.057-.161-1.286-1.289-3.428-1.861-4.76M696.726 51.7c-1.24.677-5.023 4.896-5.99 5.328-.935.419-2.28-.611-3.1-.477-2.16.338-7.3 1.57-10.917 2.232-3.033.555-8.088 2.439-9.438 3.144-.966.502-1.002 1.19-.463 1.695 1.835 1.724 3.373 2.554 4.252 3.681.593.764-.314 1.103-.551 2.363-.293 1.531-1.288 8.788-.823 12.723.415 3.433 2.213 13.77 2.69 16.618.408 2.522.772 5.97 1.093 7.267.454 1.818-.206 5.034-.88 5.77-2.48 2.687-6.378 6.654-7.42 7.013-1.57.544-3.633.471-5.098-.73-1.908-1.564-2.616-4.4-3.188-5.881-.985-2.555-3.79-4.498-5.782-5.928-3.49-2.529-11.168-6.426-12.318-9.179-.164-.39-.43-1.196.39-1.48 1.538-.54 2.275 1.364 3.305 2.114 1.94 1.428 3.603 1.821 5.006 2.279 2.201.729 6.147 1.702 7.082 2.012 2.24.744 3.392 1.085 5.104.513 1.159-.39 3.085-4.036 3.183-5.596.216-3.768-.643-8.224-.55-10.073.277-5.32.158-6.315.717-10.355.411-2.959-.38-5.187-.286-6.517.111-1.654.125-4.075.579-5.248.377-.991-.837-.939-1.695-.687-4.09 1.207-5.998 3.105-9.533 4.766-2.459 1.155-6.855 3.847-8.649 4.482-1.245.458-2.247 2.195-2.976 1.518-.827-.764-1.999-.54-2.715-1.884-1.054-1.957.636-3.765 1.985-4.564 1.775-1.053 3.399-.4 8.844-3.073 5.435-2.673 11.325-6.228 15.714-7.948 4.292-1.692 15.986-5.199 17.696-5.561 1.695-.37 5.41-.705 6.004-.966 2.302-1.009 4.382-.98 5.12-1.117 1.023-.198 2.51.172 3.403.255 1.078.11 1.392.843.205 1.492zm-46.195-12.778c1.57-.799 1.993 1.057 2.515 1.065 1.545.017 2.944.195 4.888-.45 1.482-.509 10.869-5.205 14.056-5.984 5.464-1.322 13.083-3.464 15.741-3.29.897.06.96.68.06 1.19-1 .573-1.28 1.985-2.103 2.784-.534.524-.314 2.146-.78 2.729-.537.718-1.342 1.098-2.302 1.085-1.493-.014-1.636-.014-2.587-.028-1.1-.014-3.294 1.385-4.096 1.576-.293.07-1.05-.568-1.765-.76-1.697-.46-8.138 2.1-10.632 3.197-2.602 1.158-7.228 3.436-9.546 5.886-.9.949-1.821 2.721-3.28 1.884-1.336-.757-1.88-3.803-2.234-5.137-.31-1.16-.153-4.617 2.065-5.747zm-8.36-36.533c1.403.238 3.992 6.563 5.443 9.395.464.922.771 2.394 1.05 4.753.136 1.112 1.145 3.199.886 5.715-.122 1.252.244 3.514-.195 4.58-.314.74-1.5 1.461-1.506 2.505-.015.614-.988 1.985-1.589 2.567-.949.912-1.529 3.33-2.135 4.124-1.124 1.461-3.977 1.413-6.015 1.993-1.494.432-3.29 1.377-4.854 2.462-1.56 1.096-4.375 2.069-6.327 3.401-1.494 1.02-4.56 4.093-5.461 4.822-.624.498-1.69 1.343-.694 2.212 1.029.904 3.917.415 7.821 2.168 2.578 1.158 4.846 2.735 6.154 4.887 1.089 1.786.551 3.349-.641 4.068-.96.578-1.613 2.302-3.67 4.022-1.044.879-1.802 3.115-3.465 4.543-1.274 1.095-5.88 6-7.637 7.312-.966.736-.953 1.946.635 2.526 1.472.538 6.043 3.762 7.55 5.945 1.602 2.31 2.31 7.295 2.603 11.357.191 2.672-1.644 6.722-2.414 9.527-.381 1.395-.66 1.993-2.466 1.668-.461-.082-1.28-1.173-2.045-1.954-1.095-1.116-2.623-1.57-3.376-2.404-.88-.976-2.094-1.531-2.708-2.476-.729-1.119-.645-6.249-.265-8.52.314-1.923.614-3.276 1.093-4.728.387-1.176 1.137-5.048-.3-5.335-.82-.15-3.88 1.514-5.513 2.307-1.814.882-3.879 2.096-4.779 3.126-1.007 1.141-1.587 2.717-1.747 3.904-.156 1.158-.976 1.96-1.5 1.681-1.099-.604-2.188-.088-2.966.111-1.103.283-1.84-.732-3.092-1.225-2.142-.841-1.162-.192-3.02-1.741-1.166-.978-3.776-4.804-2.788-7.504.533-1.48.02-2.156 1.527-3.541 3.646-3.384 5.07-5.268 8.771-9.295 1.948-2.121 5.252-5.565 7.278-7.239.81-.68 1.566-1.887 2.18-3.307.381-.88 2.52-2.478 1.151-3.392-1.472-.977-3.366-1.085-4.437-.645-1.037.43-1.717-.767-2.945-1.443-1.102-.608-2.33.216-3.174-.405-1.029-.758-1.539-1.284-2.488-1.954-.892-.631-2.553-1.539-1.745-3.21.608-1.249.105-3.035 1.452-4.054 1.727-1.309 2.916-2.627 4.123-3.649 2.317-1.97 8.702-9.37 12.982-14.28 4.505-5.17 12.797-17.46 16.02-20.758.68-.692.387-2.307 3.828-4.097 2.087-1.082 3.733-.81 5.41-.525M542.345 18.718c.271 1.256-.827 5.918-2.136 9.898-1.308 3.973-1.609 5.302-2.774 8.923-.516 1.61-1.56.865-2.159 1.532-.673.728.82-.587-2.03 2.191-1.723 1.681-5.362 3.929-6.357 5.031-.516.586-1.623.279-1.839-.834-.129-.732-.125-1.412-.185-2.892-.042-1.256 1.065-2.809 1.309-3.461.38-1.037 1.001-3.102 1.015-4.434.027-2.519 2.732-5.886 4.84-8.378 2.096-2.49 10.316-7.576 10.316-7.576zM529.193 58.17c1.116-.81 1.022 1.344 2.065 1.134.652-.129 1.2-.935 1.643-1.451.374-.45.94-.768 1.323 1.12.209 1.04.401 2.02-.185 2.739-.9 1.091-6.04 2.955-6.926 3.317-.632.254-.83.526-1.103-.754-.349-1.628 1.58-2.497 1.671-3.233.15-1.354.597-2.219 1.512-2.872zm11.12 22.79c1.04.16 3.72-1.358 4.843-2.23.807-.642 1.55.308 1.1 1.117-.492.868-2.265 2.933-2.637 3.893-.226.558-.83.95-1.274.795a20.344 20.344 0 0 1-2.879-1.29c-1.032-.59-.107-2.436.848-2.286zm-23.855 1.56c.352-.817 2.425 1.587 3.747 1.9 1.424.332 3.033 1.002 4.798 1.465 2.43.632 5.01 2.06 6.848 3.34 1.26.875 2.944 1.217 4.41 2.717.543.558.352 1.332-.098 1.846-.517.596-.83 1.322-1.804 1.977-2.529 1.71-10.951 6.16-12.074 7.107-1.431 1.215-4.152.541-5.039-.285-.773-.727-1.593-1.839-1.81-3.35-.34-2.377-.497-6.818-.327-8.96.162-2.022.205-5.107 1.349-7.758zm-27.032 1.224c.007-.52 2.677-1.744 4.163-2.466 1.445-.698 2.76-1.301 4.019-1.434.636-.07 1.35.481 1.1 1.276-.384 1.25-6.154 6.81-8.178 9.005-.43.468-1.252-1.2-1.302-2.236-.063-1.19.183-3.019.198-4.145zm-4.595-12.347c.827-.094 1.165 1.091.493 2.078-.45.663-1.704 1.015-2.004.64-.492-.618-.055-1.18.688-1.7.66-.443.23-.948.823-1.018zm6.633-21.834c1.48-.125 1.524.572 1.622.684.368.457 1.17 2.33 1.745 2.982.51.6.91 1.288 1.755 1.58.444.146.493 2.153.404 3.043-.091.952-2.427 1.346-3.579 2.242-.75.59-1.186 1.054-1.647 1.689-.606.802-.756 1.245-1.584 1.975-.68.607.15 3.796-.36 5.254-.23.662.66.6 1.404.611.362.006.491-.691.97-1.099.604-.509 2.247-1.685 3.066-2.177.604-.37-.177-2.383.695-2.589.6-.14.639 2.047 1.009 2.899.285.67 1.245 3.157.98 4.158-.239.887-.401 1.87-.695 2.442-.306.578-3.883 2.117-3.524 3.65.213.892 2.861-.36 4.219-.244 1.035.09 3.011-.115 3.931-.098.879.01 2.596 1.327 3.583 3.078.512.896-3.133 4.089-5.043 6.535-1.88 2.417-9.206 8.614-10.702 10.076-.772.754-.265 3.483-.865 3.844-.723.436-1.35.007-2.143.192-.596.144-1.625.548-1.946 1.24-.3.662-.364 1.185.209 1.48.728.377 8.477-3.525 12.217-6.877 3.918-3.52 9.28-8.925 11.251-11.423 1.5-1.9.932-9.975 2.665-17.877.79-3.633 2.548-15.365 3.8-20.905 1.44-6.329 6.392-16.156 7.327-17.609.372-.579-.028-1.155.32-1.695.38-.586.53-1.032 1.853-.422.538.251 1.393 1.276 1.91 1.067 1.165-.495-.6.503 3.597-3.594 4.196-4.092 8.226-6.116 10.466-7.793 2.236-1.679 3.74-3.583 4.86-4.085.917-.412 1.789-.018 2.132.921.363.962.45 2.376-.048 4.141-.312 1.11-1.132 2.663-2.133 5.006-.395.928-1.609 5.628-2.466 8.192-.873 2.553-1.895 8.666-2.501 9.741-.9 1.611.163 2.006-.475 3.767-.212.57-1.392 3.265-2.135 4.784-.764 1.549-2.97 6.409-3.42 6.845-.564.559-.17 1.745.13 2.223.352.593 2.39 1.858 3.782 5.233.429 1.037.293 2.114-.559 3.242-.6.812-3.03 1.58-4.396 2.25-1.786.861-8.942 4.476-11.331 6.451-.524.432-1.395.321-1.179-.46.386-1.403-.08-5.698.458-7.18.787-2.178.456-1.323 2.267-3.82.963-1.333 2.965-6.183 5.139-8.596.209-.234.652-1.477-.049-1.929-.592-.378-1.329.401-2.084.639-.442.142-.533 1.252-1.05 1.472-.798.329-1.566-.495-2.296.119-.526.44-1.486 2.554-1.677 3.98-.08.59-1.09 1.367-1.358 1.759-.304.443-.109 2.366-.272 3.701-.195 1.611-1.717 5.726-2.09 7.449-.234 1.11-.69 3.58-.573 5.023.06.824.43 1.395 1.015 1.274.674-.14 1.138-1.28 1.798-1.377.82-.143 3.475-.182 4.653.125.552.142 1.557.833 3.333.481 1.015-.195 2.585-.628 3.781-.614 1.186.01 6.958.006 9.406.035.887.014 5.88-2.446 7.44-3.161 1.29-.594 4.394-3.51 6.51-5.701 1.203-1.235 4.025-2.09 5.498-1.407.75.35.285 2.547-.859 3.395-.894.657-3.052 1.81-4.102 2.54-1.677 1.17-4.362 4.494-5.635 6.664-.6 1.036-2.565 3.82-3.545 5.585-.195.343-.203 1.218.572 2.006.721.75 6.849 2.38 9.723 3.374.26.091.663.604 1.256.388.401-.147.966-.353 1.029.681.025.495 4.047.61 4.503.949 1.547 1.123 7.445 2.446 9.36 3.667.73.45.957.639 1.61 1.42.435.528 1.548.499 1.398 1.274-.164.82-11.531 3.631-15.591 3.436-3.497-.16-7.1-.596-10.425-1.751-2.944-1.019-8.593-5.293-9.407-5.3-1.336-.014-1.192.286-2.09 1.159-.247.243-.712 1.067-1.356 1.688-.744.73-3.367 3.3-3.897 4.023-.757 1.029-2.537 1.431-3.654 2.324-.824.662-2.4 2.417-3.373 3.066-1.787 1.204-4.026 2.694-5.362 3.27-1.365.582-3.761-.296-5.77-.59-2.223-.318-4.934-2.645-5.941-4.668-.608-1.186-.58-4.162-.894-5.93-.206-1.187.736-4.836-.014-5.32-1.022-.682-1.567.093-2.072.634-.823.875-1.814 2.571-4.424 4.389-1.159.799-1.165 1.36-2.476 2.634-.977.953-3.253 2.306-4.854 3.638-1.574 1.313-4.409 2.112-6.248 2.443-.673.119-2.522 1.266-3.58 1.73-.966.44-4.047 1.511-5.948 2.076-1.19.355-1.752-2.236-2.024-4.02-.273-1.786.415-3.625 1.466-4.2 1.738-.974 4.49-4.17 5.99-5.781.38-.411-.395-1.378-1.095-1.34-2.442.115-3.989-.939-3.989-.939 1.788-.279 4.812-.372 5.877-1.706.167-.209.672-.659.672-1.256.015-.869-.265-1.078-.341-1.629-.074-.423.499-1.151.307-1.556-.21-.443-.63-1.494-1.388-1.043-1.557.914-4.233 3.58-4.948 4.969-.45.882-.544 1.841-.544 1.841-.45.444-1.256.06-1.256.06-1.422 1.465-3.681 3.953-4.797 4.903-.837.712-1.975 1.225-2.903.777-1.096-.526-1.832-2.832-2.324-3.579-.435-.67.172-1.625.845-2.065 1.008-.648 3.645-2.023 4.395-2.686.824-.719 4.348-4.236 5.172-4.885 1.315-1.06 3.143-2.246 4.186-3.36.75-.806-.178-1.79-.721-1.339-.45.36-1.114.203-1.407-.46-.716-1.68-2.218-5.806-2.2-7.36.005-.963.02-1.497.397-2.362 1.143-2.651 4.932-7.61 6.106-8.516 1.116-.877.45-1.707.109-2.367-.444-.823-2.632-3.516-2.544-4.48.132-1.423 2.251-2.7 4.35-4.162 2.082-1.464 4.182-3.069 5.655-3.195zm7.085-22.199c.53-1.102 4.162-1.354 5.792-1.036 1.465.29 3.23 3.182 3.79 4.56.362.896.98 2.781.7 3.489-.38.96-1.916.956-3.42 1.367-.533.14-1.928.643-2.902 1.148-1.27.648-2.815 2.01-3.368 2.546-.6.582-1.6.851-2.086.719-.292-.08-.279-.925.248-1.48.972-1.029 2.19-3.898 1.912-5.01-.15-.573-.73-.824-.782-2.603-.027-.891-.325-2.772.116-3.7zm-.499-19.921c.594-.146 1.003.869 1.916 1.28.663.307.95.907 1.615.911.914.014.942 1.426 1.46 1.874.435.372 1.022 1.779 1.528 2.236.579.524.802 1.2 1.381 1.646.636.49.824 2.157.043 3.11-.6.728-1.564 1.727-2.844 2.11-1.194.352-3.803.45-5.265 1.347-1.2.726-3.416 2.48-4.651 3.792-2.324 2.488-4.964 6.824-7.078 10.501-1.445 2.492-6.815 11.684-8.409 15.292-.666 1.507-4.088 8.823-5.32 11.482-1.6 3.461-5.506 11.004-6.305 13.028-1.078 2.728-.45 5.023-1.186 6.06-.672.952-2.016.865-2.811.261-.813-.604-2.094-1.818-2.414-3.063-.272-1.116.306-3.712.663-5.027.223-.886.708-1.486 1.423-1.835.444-.216 1.203-.01 1.853-.273.499-.202 2.637-3.74 3.702-5.732 1.403-2.628 5.122-10.501 6-12.361.528-1.138 2.673-5.959 4.247-8.904.987-1.839 5.812-15.108 8.15-18.345.537-.739 3.023-6.004 4.546-8.376 1.359-2.132 6.854-10.805 7.756-11.014M288.695 93.602c.436 0 .729.37.869 1.114.195 1.032.066 1.028.195 1.911.142.882-.195 1.106-.02 1.835.212.886.122 1.377.191 2.282.136 1.55.185 2.94-.115 3.897-.314.948.053 1.248.046 2.205-.017.878-.53 2.263-.632 3.59-.091 1.102.994 2.23.98 3.545-.006.808-.366.802-1.109.725-.806-.088-1.759-.614-2.045-1.278-.286-.666-1.145-2.881-1.13-3.687.01-.883.265-2.495.408-3.525.163-1.102-.11-2.418-.104-3.462.02-1.247 1.5-2.556 1.52-3.805.014-1.246-.279-1.392-.258-2.94.022-1.542.615-2.417 1.204-2.407zm12.096-57.123c-.06-.82 2.872-2.62 4.31-3.555 1.328-.865 2.354-2.072 3.488-2.68 1.626-.857 3.099-.588 4.047-.537 1.473.091 3.257-.694 4.048.269.715.896.506 1.626.257 2.655-.195.806-4.427 7.445-6.45 9.838-2.1 2.52-7.307 8.49-7.82 8.803-.598.362-1.073-.516-1.223-1.776-.143-1.107-.293-2.038-.05-2.575.3-.659-.065-1.082-.198-1.685-.136-.67-.802-3.105-.674-4.937.084-1.328.363-2.65.265-3.82zM265.76 57.661c.192-.45 2.149-1.445 3.032-2.163.622-.509 2.157-1.521 2.75-2.027 1.71-1.462 1.488-1.183 3.045-2.244.737-.506 1.77-.865 1.904.681.15 1.841-.065 5.146-.007 6.325.056 1.176-.244 1.465-.324 2.421-.069.817.279 1.257.346 1.77.076.515-.109.662-.237 1.61-.08.59.348 1.48-.178 2.498-.524 1.029-3.354 3.269-4.24 3.555-.885.282-.272-1.326-1.73-2.373-1.466-1.05-1.81-2.526-2.46-3.562-.795-1.288-.564-1.915-1.502-3.039-.95-1.101-.93-2.211-.4-3.452zM247.24 39.88c.904-.283 2.676 3.167 4.406 5.035 1.738 1.862 4.333 4.215 4.868 4.688.579.524 1.954 2.6 2.474 2.61.272 0 1.946-1.44 3.332-2.39 1.486-1.008 4.846-3.3 5.869-3.977.824-.545 3.384-2.408 4.957-3.615 1.584-1.204 5.012-3.433 5.127-3.754.068-.192-.067-.956.47-2.421.328-.896-.387-1.295-.422-1.483-.07-.363.38-1.458.464-2.045.164-1.095-.105-3.356.045-3.823.378-1.173.513-3.622.565-4.333.171-2.01-.066-2.871.191-3.674.865-2.676.95-4.838.75-6.827-.162-1.679-.557-1.839-.093-4.41.428-2.318 2.54-4.794 3.496-5.906.631-.737 2.546-.859 3.991.557.544.534 1.829 1.124 3.06 2.394 1.2 1.217 3.433 3.98 4.211 4.679 1.235 1.123 3.62 4.166 5.147 6.091 1.158 1.472 1.782 4.137 1.922 5.1.203 1.447-.111 3.377.876 3.565 1.414.276 4.18-2.108 8.6-2.941 2.932-.548 7.722-.415 10.883-.38 1.4.021 4.124-.112 4.35.547.415 1.196-.306 4.835-2.114 8.89-1.587 3.583-2.46 4.27-4.266 6.563-1.49 1.901-1.71 3.091-4.421 6.638-2.617 3.427-7.822 8.433-6.807 9.403.873.827 3.454-.405 3.884 1.517.349 1.55-1.357 2.554-1.965 4.09-.844 2.138-.337 3.68-2.261 4.604-1.766.855-2.801.558-3.911 1.284-1.337.861-.83 3.077-1.678 4.682-1.504 2.847-.729 5.572-1.646 7.874-1.386 3.461-1.051 2.108-2.188 5.711-.243.775-.798 4.734-1.113 6.127-.265 1.182-1.17 2.131-1.197 2.557-.112 1.214-.708 4.35-.656 4.7.069.446-.756 1.029-.681 1.829.066.735-.721 2.591-.859 3.886-.537 5.101-.082 5.779.115 8.608.199 2.832-.335 3.451-.641 4.203-.266.682-1.333.845-2.07 1.058-.806.226-.75 1.091-1.256 1.256-.6.203-1.445-.432-1.732.059-.572.991-1.178 2.236-1.915 2.3-.76.069-1.022-.384-1.238-1.553-.05-.31-.793-.387-.93-1.04-.215-1.042-.448-.403-1.38-2.123-.785-1.438-.115-1.944-.207-3.232-.06-.997-1.388-1.897-1.05-3.46.178-.84-.046-2.543-.223-3.946-.2-1.622-.26-2.752-.26-3.164.016-.75-.233-.02-.04-2.355.17-2.055-.472-3.75-.465-4.34.007-.74-.28-1.256-.865-1.266-.472-.004-.715.261-.96 1.438-.257 1.176-.285 3.527-.142 4.943.137 1.33.96 5.02 1.022 6.197.08 1.566-.083.81-.042 2.937.022 1.04.514 3.621.88 5.039.38 1.417 1.2 1.357 1.465 2.345.28 1.029.565 1.922.93 2.511.46.761 2.26 1.198 2.037 1.64-.283.541-1.05 1.605-1.644 1.671-1.185.13-3.353-2.316-3.781-3.39-.772-1.92-1.295-8.8-1.697-11.302-.697-4.221-1.42-6.074-1.928-10.759-.528-4.866-1.7-17.552-1.665-20.242.02-1.765-1.144-2.369-1.787-2.4-.775-.043-1.76.781-1.823 1.622-.067 1.026.17 3.448-.914 3.884-.886.356-7.18-1.413-12.075-4.634-8-5.275-10.84-18.372-12.163-20.881-1.8-3.398-1.846-10.48-1.48-11.851.384-1.409.922-3.007 2.264-3.415"/></svg>