<svg xmlns="http://www.w3.org/2000/svg" width="157" height="136" fill-rule="evenodd"><path fill="#fff" d="M3.726 4.207v128.854h89.39l29.787-8.1 20.276-17.577 9.918-27.647V47.794L138.264 22.13l-25.87-14.572-24.926-2.09z"/><path d="M6.37 6.37v122.727h74.564c45.026 0 69.52-20.974 69.52-61.52 0-41.668-26.55-61.207-69.52-61.207H6.37zM80.935 0c66.03 0 75.9 42.342 75.9 67.576 0 43.782-26.95 67.893-75.9 67.893H0V0h80.935zM16.642 119.34h23.87V76.847h-23.87zm26.733-63.88c0 8.194-6.64 14.837-14.834 14.837A14.84 14.84 0 0 1 13.705 55.46c0-8.188 6.646-14.834 14.836-14.834A14.84 14.84 0 0 1 43.375 55.46" fill="#0a0b09"/><path d="M52.373 48.55v13.848h4.25c2.945 0 5.665-.85 5.665-7.033 0-6.04-3.027-6.815-5.665-6.815h-4.25zm70.906-6.888h6.876v20.736h10.19c-2.794-37.626-32.394-45.755-59.29-45.755H52.38v25.033h4.245c7.74 0 12.547 5.248 12.547 13.69 0 8.71-4.693 13.908-12.547 13.908H52.38v50.09h28.676c43.73 0 58.947-20.307 59.484-50.09h-17.26V41.66zm-19.157 15.407h4.974l-2.275-7.806h-.413l-2.287 7.806zM93.392 69.28l8.326-27.62h9.782l8.324 27.62h-7.158l-1.56-5.343h-8.994l-1.565 5.343h-7.156zM90.1 62.397v6.875h-17v-27.6h16.46v6.873h-9.584v3.2h9.064v6.87h-9.064v3.783H90.1z" fill="#d50172"/></svg>