<?xml version="1.0" encoding="UTF-8"?>
<svg width="400" height="277.38" version="1.1" viewBox="0 0 105.83334 73.390968" xmlns="http://www.w3.org/2000/svg" xmlns:cc="http://creativecommons.org/ns#" xmlns:dc="http://purl.org/dc/elements/1.1/" xmlns:rdf="http://www.w3.org/1999/02/22-rdf-syntax-ns#">
<metadata>
<rdf:RDF>
<cc:Work rdf:about="">
<dc:format>image/svg+xml</dc:format>
<dc:type rdf:resource="http://purl.org/dc/dcmitype/StillImage"/>
<dc:title/>
</cc:Work>
</rdf:RDF>
</metadata>
<g transform="translate(0 -223.61)">
<path d="m51.182 281.98 29.263-29.186-7.3386-7.2566-9.119 9.119z" fill="#000002"/>
<path d="m51.182 223.61-29.181 29.181 29.181 29.186 12.805-27.323 9.119-9.1142z" fill="#fc0"/>
<path d="m7.6763 295.1c-0.54522 1.0856-1.6839 1.901-3.3919 1.901-2.6585 0-4.2845-1.7659-4.2845-4.2507 0-2.3208 1.3558-4.2989 4.1011-4.2989 2.6923 0 3.9033 1.6163 3.9564 3.223h-2.755c-0.22678-0.8492-0.7575-1.0181-1.1338-1.0181-0.48732 0-1.3124 0.33787-1.3124 2.0458 0 1.708 0.82504 2.0457 1.3124 2.0457 0.29432 0 0.6996-0.12044 0.98427-0.59829 0.09166-0.1446 0.19299-0.37152 0.21711-0.56451h2.6874c0 0.52109-0.16886 1.1097-0.38116 1.515" fill="#000002"/>
<path d="m11.57 297c-2.012 0-3.334-1.211-3.334-3.1892 0-2.0023 1.404-3.1458 3.334-3.1458 1.9492 0 3.3967 1.1773 3.3967 3.1892 0 2.0265-1.4619 3.1458-3.3967 3.1458m0.03855-4.5933c-0.70443 0-0.77198 0.97461-0.77198 1.4812 0 0.51143 0.0772 1.4716 0.77198 1.4716 0.68996 0 0.76716-0.97465 0.76716-1.4716 0-0.50663-0.0772-1.4812-0.76716-1.4812" fill="#000002"/>
<path d="m30.112 296.74v-3.1989c0-0.55488-0.17853-0.78162-0.57415-0.78162-0.39564 0-0.65618 0.36185-0.65618 0.82503v3.1555h-2.5234v-3.1893c0-0.55484-0.17853-0.76712-0.57415-0.76712-0.41012 0-0.67066 0.34732-0.67066 0.81058v3.1458h-2.4752v-3.1893c0-0.55484-0.17853-0.76712-0.57415-0.76712-0.41011 0-0.67066 0.34732-0.67066 0.81058v3.1458h-2.4752v-3.1893c0-0.55484-0.17853-0.76712-0.57898-0.76712-0.40528 0-0.66583 0.34732-0.66583 0.81058v3.1458h-2.4752v-5.7319h2.2484l0.05791 0.5066c0.37151-0.46318 1.0084-0.80091 1.7997-0.80091 0.79128 0 1.5922 0.38115 1.8624 0.88295 0.30878-0.47768 1.0759-0.87332 1.8913-0.87332 0.93603 0 1.5584 0.47284 1.8527 0.90707 0.27019-0.43423 1.018-0.90707 1.8093-0.90707 0.99392 0 1.5295 0.4053 1.901 0.90707 0.57415-0.77196 1.3365-0.90707 1.7997-0.90707 1.7611 0 2.1808 1.1435 2.1808 2.4221v3.5945z" fill="#000002"/>
<path d="m36.172 297c-2.012 0-3.3388-1.211-3.3388-3.1892 0-2.0023 1.404-3.1458 3.3388-3.1458 1.9444 0 3.3919 1.1773 3.3919 3.1892 0 2.0265-1.4571 3.1458-3.3919 3.1458m0.03396-4.5933c-0.70444 0-0.77198 0.97461-0.77198 1.4812 0 0.51143 0.082 1.4716 0.77198 1.4716 0.68995 0 0.76715-0.97465 0.76715-1.4716 0-0.50663-0.0772-1.4812-0.76715-1.4812" fill="#000002"/>
<path d="m43.573 296.73v-3.1796c0-0.55484-0.2364-0.77195-0.63206-0.77195-0.41011 0-0.67066 0.35222-0.67066 0.81541v3.1361h-2.4751v-5.7223h2.287l0.01926 0.57414c0.47766-0.57414 1.1194-0.86845 1.7997-0.86845 0.82505 0 2.1808 0.47284 2.1808 1.9444v4.0722z" fill="#000002"/>
<path d="m54.323 296.73-2.5909-0.014s-0.33773-1.0036-0.47283-1.6404c-0.22678-0.76716-0.2509-1.0952-0.2509-1.0952s-0.01 0.32807-0.22678 1.0952c-0.12069 0.58863-0.47285 1.6549-0.47285 1.6549h-2.6102l-1.7225-5.7223h2.6923s0.30881 0.98427 0.41975 1.5392c0.16887 0.63205 0.20266 1.0036 0.20266 1.0036s0.0336-0.36185 0.21711-1.0036c0.12545-0.59346 0.4294-1.5392 0.4294-1.5392h2.2629s0.30398 0.94569 0.42942 1.5392c0.19299 0.67546 0.21231 1.0036 0.21231 1.0036s0.0242-0.31826 0.21712-1.0036c0.11092-0.54521 0.41492-1.5392 0.41492-1.5392h2.5668z" fill="#000002"/>
<path d="m58.207 294.26c0.0143 0.57414 0.26052 1.0711 0.93119 1.0711 0.3136 0 0.70925-0.1593 0.82505-0.50659h2.3738c-0.0435 0.24614-0.18336 0.54038-0.30398 0.73337-0.63688 0.95049-1.8431 1.4233-2.9962 1.4233-2.1181 0-3.3822-1.2545-3.4401-3.0493-0.0435-1.597 0.88296-3.2713 3.2568-3.2713 2.1953 0 3.527 1.3461 3.527 3.5994zm0.89742-2.1374c-0.48731 0-0.81541 0.38118-0.85883 0.86848h1.6839c-0.0483-0.46318-0.37634-0.86848-0.82505-0.86848" fill="#000002"/>
<path d="m66.709 296.73-0.0676-0.51143c-0.41976 0.42939-1.2882 0.76716-1.9444 0.76716-0.41975 0-1.3702-0.0774-1.8672-0.74304-0.39564-0.54521-0.43907-1.4282-0.0917-1.9927 0.47766-0.7575 1.5729-1.0374 2.6585-1.1773 0.39564-0.0434 0.9505-0.16876 0.9505-0.51626 0-0.27519-0.14474-0.51142-0.50662-0.51142-0.36186 0-0.6803 0.3039-0.6803 0.68995h-2.3545l0.0144-0.0676c0.24607-1.3655 1.2448-2.0554 2.9384-2.0554 2.8611 0 3.1989 0.99393 3.2134 2.7116l0.0193 1.6067c0.0144 1.0952 0.0676 1.3461 0.18336 1.7997zm-0.31844-2.533s-0.3281 0.10118-0.63206 0.18801c-0.19299 0.0578-0.67549 0.14951-0.67549 0.53559 0 0.19292 0.15441 0.42939 0.49697 0.41493 0.64171-0.021 0.81058-0.39564 0.81058-0.96014z" fill="#000002"/>
<path d="m69.521 288.65h2.4752v8.0768h-2.4752z" fill="#000002"/>
<path d="m75.056 296.92c-1.6404 0-2.0795-0.79125-2.0795-2.3159v-2.012h-0.75751v-1.5826h0.75751v-2.3545h2.4751v2.3545h0.97463v1.5826h-0.97463v1.5584c0 0.55488 0.18336 0.90707 0.73821 0.90707 0.0868 0 0.20265-0.014 0.31361-0.035 0.0579-0.014 0.0579-0.0245 0.0579-0.0245v1.6163c-0.46319 0.21217-0.99393 0.30391-1.5054 0.30391" fill="#000002"/>
<path d="m83.185 296.73h-2.48v-3.1699c0-0.55485-0.24607-0.78162-0.64653-0.78162-0.39564 0-0.65619 0.36668-0.65619 0.82987v3.1217h-2.5765v-8.0768h2.398v2.9287c0.37634-0.46318 1.0856-0.86845 1.79-0.86845 0.8347 0 2.1712 0.47284 2.1712 1.9444z" fill="#000002"/>
<path d="m88.768 292.46c0.71408-0.21218 1.1918-0.86365 1.1918-1.7176 0-1.3027-0.93604-2.0844-2.4944-2.0844h-3.1072v8.0865h3.1941c1.7321 0 2.7646-0.85882 2.7646-2.3063 0-1.2738-0.95532-1.8479-1.5488-1.9782m-3.7007 0.40527h2.4848c0.76715 0 2.0554 0.20272 2.0554 1.5633 0 1.4571-1.2882 1.6742-2.0554 1.6742h-2.4848zm2.4848-0.65134h-2.4848v-2.9142h2.398c0.66582 0 1.7852 0.18802 1.7852 1.4619 0 0.93602-0.6031 1.4523-1.6984 1.4523" fill="#000002"/>
<path d="m95.725 296.14-0.0772 0.0105-0.25573 0.0175c-0.13508 0-0.32327-0.0532-0.32327-0.52593v-3.1458c0-1.0952-0.69961-1.6742-2.0265-1.6742-1.293 0-2.0747 0.63691-2.1905 1.8045l-0.01 0.0676h0.67548l5e-3 -0.0532c0.034-0.28465 0.12545-0.53072 0.26536-0.71891 0.2509-0.33297 0.67548-0.50659 1.2207-0.50659 1.2979 0 1.3992 0.81057 1.3992 1.0615v0.16876c0 0.36186-0.23157 0.46318-0.57898 0.50177-0.82989 0.11589-1.8624 0.299-2.4655 0.65617-0.25573 0.14005-0.47285 0.35222-0.58382 0.55971-0.24606 0.43905-0.26052 1.1242-0.0336 1.626 0.26053 0.57897 0.87812 0.8974 1.7273 0.8974 0.88295 0 1.5488-0.38114 1.9541-1.0711v0.0819c0.0144 0.5838 0.29432 0.86845 0.85401 0.86845l0.45354-0.0819-0.01-0.0483zm-1.3172-2.4751v0.83953c0 0.46318-0.35221 1.7755-1.901 1.7755-0.74304 0-1.2593-0.44869-1.2593-1.0952 0-0.85399 0.65135-1.0325 1.3461-1.2207 0.53074-0.14005 1.2931-0.25559 1.8141-0.299" fill="#000002"/>
<path d="m98.509 290.82c-0.78645 0-1.4668 0.42943-1.7948 1.0663v-0.90707h-0.66584v5.7657h0.66584v-3.2182c0-1.2641 0.70926-2.1084 1.7756-2.1084 0.93601 0 1.3944 0.55967 1.3944 1.708v3.6186h0.66101v-3.6186c0-0.56934 0-2.3063-2.0361-2.3063" fill="#000002"/>
<path d="m103.39 293.14c0.0723-0.0725 2.2677-2.1664 2.2677-2.1664h-0.89743s-2.6971 2.5765-2.8949 2.7647v-5.0854h-0.66583v8.0865h0.66583v-2.176c0.0385-0.035 0.9312-0.84915 1.0277-0.93602 0.0772 0.11589 2.1278 3.112 2.1278 3.112h0.81057s-2.3835-3.5125-2.4414-3.5994" fill="#000002"/>
</g>
</svg>
