<svg width="64" height="60" viewBox="0 0 64 60" fill="none" xmlns="http://www.w3.org/2000/svg">
<path d="M45.9362 0.000913255H13.5292C9.94234 0.00574896 6.50378 1.44561 3.96757 4.00475C1.43137 6.56388 0.0045526 10.0334 0 13.6524V46.3476C0.00431301 49.9668 1.43104 53.4365 3.96727 55.9958C6.5035 58.5552 9.94218 59.9952 13.5292 60H45.9362C49.5232 59.9954 52.962 58.5555 55.4981 55.9961C58.0342 53.4366 59.4607 49.9668 59.4645 46.3476V13.6524C59.4607 10.0332 58.0342 6.56336 55.4981 4.00395C52.962 1.44454 49.5232 0.00459542 45.9362 0" fill="white"/>
<path d="M46.0377 2.32861H13.4305C10.4822 2.33296 7.65582 3.5165 5.57085 5.61984C3.48588 7.72317 2.31241 10.5747 2.30762 13.5495V46.4447C2.31241 49.4195 3.48588 52.2711 5.57085 54.3744C7.65582 56.4777 10.4822 57.6613 13.4305 57.6656H46.0377C48.9862 57.6622 51.8129 56.4789 53.8978 54.3753C55.9827 52.2717 57.1555 49.4196 57.1589 46.4447V13.5495C57.1541 10.575 55.9808 7.72376 53.8963 5.62048C51.8117 3.5172 48.9858 2.33345 46.0377 2.32861Z" fill="#005ABE"/>
<path d="M23.6447 24.9272H20.8808C20.4341 24.9385 19.9983 25.0692 19.618 25.306C19.2378 25.5428 18.9266 25.8772 18.7163 26.275L18.9934 24.7983H15.6163L14.1157 33.2871H17.4973L18.431 27.9133H22.0689C22.0689 27.9133 21.6044 30.5742 21.397 31.7657C21.1896 32.9573 21.9929 33.2469 22.3932 33.2469H24.1619L25.3129 26.6459C25.3045 26.1992 25.1275 25.7726 24.8181 25.453C24.5086 25.1334 24.0899 24.945 23.6475 24.9263" fill="white"/>
<path d="M13.1784 24.7949L12.5444 28.4381L15.1137 24.7949H13.1784Z" fill="white"/>
<path d="M17.1879 11.5H5.87655L5.38477 14.3125H9.33333L7.7503 23.376H11.1564L12.7467 14.3125H16.6952L17.1879 11.5Z" fill="white"/>
<path d="M14.7531 23.3776C14.5399 23.3842 14.3281 23.3415 14.1338 23.2526C13.9396 23.1638 13.7681 23.0312 13.6325 22.8651C13.497 22.6989 13.401 22.5036 13.3519 22.2942C13.3028 22.0848 13.302 21.8668 13.3494 21.657L14.2188 16.6936C14.3129 16.222 14.5614 15.796 14.9244 15.4841C15.2874 15.1722 15.7438 14.9925 16.2202 14.9739H21.7654C21.9785 14.9667 22.1904 15.0092 22.3846 15.0979C22.5788 15.1866 22.7502 15.3192 22.8855 15.4854C23.0208 15.6517 23.1163 15.8472 23.1647 16.0567C23.2131 16.2662 23.2131 16.4841 23.1646 16.6936L22.3006 21.657C22.2056 22.1291 21.9563 22.5553 21.5925 22.8673C21.2288 23.1792 20.7717 23.359 20.2946 23.3776H14.7531ZM19.5285 20.5952L20.0248 17.7627H16.9936L16.501 20.5952H19.5285Z" fill="white"/>
<path d="M37.0687 20.5959L37.5659 17.7633H41.9555L42.4427 14.98H36.7952C36.3181 14.998 35.8609 15.1772 35.497 15.4889C35.133 15.8006 34.8834 16.2267 34.7883 16.6987L33.9208 21.6622C33.8732 21.8722 33.8741 22.0904 33.9233 22.3C33.9726 22.5096 34.0688 22.705 34.2047 22.8711C34.3406 23.0372 34.5124 23.1697 34.707 23.2582C34.9017 23.3468 35.1138 23.3891 35.3272 23.3819H40.818L41.3025 20.6004L37.0687 20.5959Z" fill="white"/>
<path d="M30.1629 20.5955H26.4498L27.4306 14.9759H24.4701L23.3055 21.6573C23.2577 21.8669 23.2582 22.0848 23.307 22.2942C23.3559 22.5036 23.4517 22.6989 23.5872 22.8651C23.7226 23.0312 23.894 23.1638 24.0883 23.2525C24.2825 23.3413 24.4943 23.3838 24.7074 23.377H27.5945C28.05 23.348 28.4935 23.2172 28.8927 22.994C29.2919 22.7709 29.637 22.461 29.903 22.0867C29.903 22.0867 30.2335 23.0599 30.7081 23.2746C31.3374 23.4229 31.9845 23.4799 32.6298 23.4437L34.1123 14.9731H31.15L30.1629 20.5955Z" fill="white"/>
<path d="M51.51 15.0163H48.7478C48.3356 15.032 47.9367 15.1677 47.5993 15.407C47.2618 15.6463 47.0002 15.979 46.846 16.3651L47.6411 11.8008H44.5275L42.5044 23.3764H45.6216L46.5589 18.0044H49.936C49.936 18.0044 49.4723 20.6634 49.2649 21.8568C49.0575 23.0502 49.8599 23.3371 50.2511 23.3371H51.7599L52.9128 16.736C52.9604 16.5263 52.9597 16.3082 52.9107 16.0988C52.8617 15.8893 52.7657 15.694 52.6301 15.5279C52.4945 15.3617 52.3229 15.2292 52.1285 15.1405C51.9342 15.0518 51.7222 15.0094 51.509 15.0163" fill="white"/>
<path d="M46.9797 32.9884L47.8691 27.9233H42.8682L41.9798 32.9884H46.9797ZM40.4076 36.1071C40.1209 36.1154 39.8361 36.0575 39.5749 35.9378C39.3138 35.818 39.0833 35.6396 38.901 35.4162C38.7186 35.1927 38.5894 34.9302 38.5231 34.6486C38.4568 34.367 38.4552 34.0739 38.5184 33.7916L39.6867 27.121C39.8135 26.485 40.1489 25.9107 40.6389 25.4906C41.1288 25.0705 41.7448 24.8292 42.3873 24.8056H49.4413C49.7281 24.7968 50.013 24.8544 50.2743 24.9741C50.5356 25.0937 50.7663 25.2721 50.9486 25.4957C51.1309 25.7193 51.26 25.982 51.3261 26.2638C51.3921 26.5455 51.3933 26.8388 51.3295 27.121L50.1621 33.7916C50.0342 34.4263 49.6989 34.9994 49.21 35.4192C48.721 35.839 48.1067 36.0812 47.4652 36.1071H40.4076Z" fill="white"/>
<path d="M33.5716 32.9881H28.5671L29.4537 27.9223H37.5654L38.0998 24.8037H28.9728C28.331 24.828 27.7159 25.0697 27.2268 25.4897C26.7377 25.9098 26.4031 26.4837 26.2768 27.1191L25.1085 33.7895C25.0448 34.0716 25.0459 34.3646 25.1118 34.6462C25.1777 34.9277 25.3067 35.1903 25.4888 35.4138C25.671 35.6372 25.9014 35.8156 26.1625 35.9353C26.4236 36.0549 26.7083 36.1126 26.9949 36.104H34.057C34.6987 36.079 35.3135 35.8373 35.8028 35.4176C36.292 34.9979 36.6273 34.4245 36.7549 33.7895L37.4695 29.695H34.1476L33.5716 32.9881Z" fill="white"/>
<path d="M27.7703 40.208L23.3617 49.3739H20.5651L20.2337 43.8265L17.5639 49.3739H14.7519L14.2148 40.208H16.2072L16.555 47.3974L19.9837 40.208H22.006L22.3537 47.3974L25.7825 40.208H27.7703Z" fill="#FFDC00"/>
<path d="M36.0948 49.3748H34.1504L36.0776 40.208H38.021L36.0948 49.3748Z" fill="#FFDC00"/>
<path d="M39.2849 49.3748H37.3433L39.2704 40.208H41.2139L39.2849 49.3748Z" fill="#FFDC00"/>
<path d="M52.7162 49.3756H51.1522C50.6372 49.4099 50.1208 49.3365 49.6353 49.16C49.4872 49.0737 49.3676 48.9452 49.2917 48.7906C49.2158 48.6359 49.1869 48.4621 49.2087 48.291C49.2144 48.0008 49.2515 47.7122 49.3192 47.4302L50.8361 40.2114H52.7796L52.2897 42.4913H54.1697L53.8075 44.1488H51.9582L51.4058 46.7631C51.3662 46.9363 51.3399 47.1123 51.327 47.2895C51.3171 47.3597 51.3293 47.4313 51.3618 47.4942C51.3942 47.5572 51.4454 47.6083 51.5081 47.6404C51.7467 47.7087 51.9951 47.7356 52.2426 47.7199H53.064L52.7162 49.3756Z" fill="#FFDC00"/>
<path d="M11.2947 45.1028H7.83524C7.86625 44.928 7.9167 44.7573 7.98559 44.5938C8.03129 44.4758 8.10873 44.373 8.2092 44.2969C8.30968 44.2209 8.42921 44.1747 8.55432 44.1634C8.72993 44.14 8.90697 44.1293 9.0841 44.1315H10.6327C11.1381 44.1315 11.3908 44.2908 11.3908 44.6094C11.3908 44.641 11.3606 44.8058 11.3002 45.1037L11.2947 45.1028ZM13.0064 42.6959C12.5223 42.5133 12.0051 42.4372 11.4895 42.4729H8.70646C8.06598 42.4311 7.42842 42.5907 6.88163 42.9298C6.42218 43.307 6.12047 43.845 6.03667 44.4367L5.42085 47.4183C5.37859 47.6011 5.34839 47.7631 5.33028 47.9045C5.31011 48.0335 5.29951 48.164 5.29858 48.2946C5.29065 48.472 5.32157 48.6489 5.38915 48.8128C5.45844 48.9519 5.56889 49.0659 5.70521 49.139C5.89227 49.236 6.09615 49.2956 6.30564 49.3144C6.62045 49.3498 6.93709 49.366 7.25383 49.3629H11.9776L12.3254 47.7181H8.34059C8.09228 47.7338 7.84322 47.7028 7.60613 47.6267C7.54363 47.5922 7.49293 47.5394 7.46061 47.4753C7.4283 47.4113 7.41587 47.3389 7.42499 47.2676C7.43039 47.096 7.45162 46.9253 7.48839 46.7577V46.7531H8.30981V46.7577H12.828L13.3179 44.4303C13.3851 44.1426 13.4222 43.8485 13.4284 43.553C13.4481 43.3832 13.4182 43.2113 13.3424 43.0584C13.2666 42.9055 13.1483 42.7783 13.0019 42.6923" fill="#FFDC00"/>
<path d="M28.3071 47.7167C28.0227 47.7167 27.8805 47.5949 27.8805 47.3512C27.8815 47.2752 27.8973 47.2002 27.9272 47.1304C27.957 47.0606 28.0003 46.9975 28.0544 46.9446C28.1139 46.8835 28.1854 46.8356 28.2643 46.8041C28.3432 46.7726 28.4278 46.7582 28.5126 46.7619H30.6137V46.7573H31.4288L31.225 47.7195L28.3071 47.7167ZM33.8767 43.0301C33.8038 42.8877 33.6872 42.7729 33.5443 42.703C33.3555 42.6129 33.1527 42.5563 32.9448 42.5357C32.6379 42.5008 32.3291 42.4849 32.0202 42.4882H27.3109L26.9631 44.1458H30.9479C31.1955 44.1302 31.4439 44.1574 31.6824 44.2262C31.7449 44.2582 31.796 44.3092 31.8284 44.3719C31.8609 44.4347 31.8732 44.5061 31.8635 44.5762C31.8506 44.7528 31.8243 44.9281 31.7847 45.1007H30.2279H28.7037C28.326 45.0954 27.9485 45.1192 27.5744 45.1719C27.3067 45.2072 27.0502 45.3024 26.8237 45.4506C26.6144 45.5992 26.4501 45.8036 26.3491 46.0409C26.2112 46.3646 26.1054 46.7013 26.0331 47.046L25.9543 47.4289C25.8864 47.7109 25.8493 47.9996 25.8438 48.2897C25.8363 48.4758 25.8713 48.6612 25.9461 48.8315C26.0188 48.9741 26.1354 49.0889 26.2785 49.1587C26.4676 49.249 26.6707 49.3055 26.8789 49.3259C27.1859 49.3609 27.4947 49.3767 27.8036 49.3734H32.828L33.8713 44.4318C33.9388 44.1497 33.9758 43.8611 33.9817 43.571C33.9888 43.3848 33.9535 43.1995 33.8785 43.0292" fill="#FFDC00"/>
<path d="M46.7896 45.1038H43.3301C43.3607 44.929 43.4108 44.7582 43.4795 44.5948C43.5252 44.4769 43.6025 44.3742 43.7028 44.2981C43.8031 44.2221 43.9224 44.1758 44.0473 44.1644C44.223 44.141 44.4 44.1303 44.5771 44.1324H46.1258C46.6311 44.1324 46.8841 44.2917 46.8847 44.6103C46.8847 44.642 46.853 44.8068 46.7896 45.1047V45.1038ZM48.4967 42.6969C48.0126 42.5142 47.4954 42.4382 46.9798 42.4739H44.1986C43.5581 42.432 42.9205 42.5917 42.3737 42.9308C41.9143 43.308 41.6126 43.846 41.5288 44.4376L40.9121 47.4193C40.8698 47.6021 40.8396 47.7641 40.8215 47.9054C40.8014 48.0345 40.7908 48.1649 40.7898 48.2956C40.7818 48.4729 40.8128 48.6499 40.8804 48.8138C40.9497 48.9529 41.0601 49.0669 41.1964 49.14C41.3835 49.237 41.5874 49.2966 41.7969 49.3154C42.1117 49.3507 42.4283 49.3669 42.7451 49.3638H47.4688L47.8166 47.719H43.8318C43.5835 47.7348 43.3344 47.7038 43.0973 47.6277C43.0348 47.5932 42.984 47.5405 42.9516 47.4764C42.9193 47.4123 42.907 47.3398 42.9162 47.2685C42.9216 47.097 42.9428 46.9263 42.9796 46.7587V46.7541H43.801V46.7587H48.3201L48.81 44.4313C48.8773 44.1436 48.9144 43.8495 48.9205 43.554C48.9402 43.3842 48.9103 43.2123 48.8345 43.0594C48.7588 42.9065 48.6404 42.7793 48.494 42.6932" fill="#FFDC00"/>
<path d="M61.2773 2.51429H60.4686V4.91913H60.2712V2.51429H59.4634V2.33154H61.2746L61.2773 2.51429Z" fill="#005ABE"/>
<path d="M64.0003 4.9182H63.8055V2.61737L62.8556 4.20912H62.823L61.873 2.61737V4.9182H61.6782V2.32861H61.9201L62.8366 3.86099L63.753 2.32861H63.9994L64.0003 4.9182Z" fill="#005ABE"/>
</svg>
