<?xml version="1.0" encoding="UTF-8"?>
<!DOCTYPE svg PUBLIC "-//W3C//DTD SVG 1.1//EN" "http://www.w3.org/Graphics/SVG/1.1/DTD/svg11.dtd">
<!-- Creator: CorelDRAW X7 -->
<svg xmlns="http://www.w3.org/2000/svg" xml:space="preserve" width="100%" height="100%" version="1.1" style="shape-rendering:geometricPrecision; text-rendering:geometricPrecision; image-rendering:optimizeQuality; fill-rule:evenodd; clip-rule:evenodd"
viewBox="0 0 5000 1249"
 xmlns:xlink="http://www.w3.org/1999/xlink">
 <defs>
  <style type="text/css">
   <![CDATA[
    .fil0 {fill:black;fill-rule:nonzero}
   ]]>
  </style>
 </defs>
 <g id="Layer_x0020_1">
  <metadata id="CorelCorpID_0Corel-Layer"/>
  <path class="fil0" d="M3834 185l111 0 0 880 -111 0 0 -880zm-221 0l110 0 0 880 -110 0 0 -880zm855 607c0,154 -99,201 -202,201 -79,0 -126,-41 -126,-103 0,-90 128,-120 328,-139l0 41zm100 28l1 -152c2,-185 -76,-269 -259,-269 -126,0 -253,79 -262,220l114 0c5,-81 57,-130 149,-130 83,0 148,39 148,159l0 16c-267,29 -442,75 -442,229 0,120 102,188 225,188 116,0 183,-37 223,-105 1,30 4,60 9,89l111 0c-14,-62 -18,-136 -17,-246l0 1zm399 -411c-86,3 -151,43 -184,117l0 -114 -108 0 0 653 110 0 0 -343c0,-145 51,-200 153,-200 21,1 41,2 62,6l0 -118c-11,-1 -22,-1 -33,-1l0 0zm-2188 -160l-111 0 0 163 -103 0 0 89 103 0 0 400c0,136 29,164 154,164l81 0 0 -93 -56 0c-63,0 -68,-17 -68,-84l0 -387 124 0 0 -89 -124 0 0 -163zm-533 312l-102 -23c-83,-19 -144,-57 -144,-135 0,-99 119,-129 187,-129 88,0 190,35 219,136l120 0c-35,-169 -175,-240 -333,-240 -142,0 -318,71 -318,240 0,146 120,214 241,240l110 23c111,26 189,62 189,156 0,87 -74,148 -205,148 -137,0 -220,-63 -243,-185l-121 0c23,175 154,289 361,289 175,0 335,-92 335,-264 0,-177 -162,-228 -296,-257l0 1zm791 120c10,-132 100,-185 197,-185 118,0 184,92 188,185l-385 0zm197 -280c-178,0 -317,132 -317,339 0,193 114,341 320,341 159,0 264,-93 292,-205l-112 0c-28,64 -82,108 -179,108 -97,0 -198,-68 -201,-208l502 0c14,-208 -104,-374 -304,-374l-1 -1zm-1757 -88l-1166 594 -102 51 -209 107 0 128 208 -106 178 -91 860 -438c37,280 -160,537 -440,574 -22,3 -45,5 -68,5 -87,0 -173,-23 -250,-66l-6 4 -110 55c279,203 670,141 873,-139 77,-106 119,-234 119,-366 0,-16 0,-32 -2,-48 -3,-46 21,-89 62,-110l53 -28 0 -126zm-208 -149l-178 90 -859 438c-37,-280 161,-537 441,-574 109,-14 220,7 316,61l102 -52 15 -8c-279,-203 -670,-140 -873,139 -78,107 -119,235 -119,367 0,16 0,32 1,48 4,45 -20,89 -61,110l-54 27 0 128 158 -81 51 -26 51 -25 905 -462 102 -52 210 -107 0 -128 -208 107z"/>
 </g>
</svg>
