<?xml version="1.0" encoding="UTF-8"?>
<svg width="209.27" height="215.43" version="1.1" viewBox="0 0 209.26816 215.42508" xmlns="http://www.w3.org/2000/svg" xmlns:cc="http://creativecommons.org/ns#" xmlns:dc="http://purl.org/dc/elements/1.1/" xmlns:rdf="http://www.w3.org/1999/02/22-rdf-syntax-ns#">
<metadata>
<rdf:RDF>
<cc:Work rdf:about="">
<dc:format>image/svg+xml</dc:format>
<dc:type rdf:resource="http://purl.org/dc/dcmitype/StillImage"/>
<dc:title>National Australia Bank</dc:title>
</cc:Work>
</rdf:RDF>
</metadata>
<defs>
<style>.cls-1{fill:#231f20;}.cls-2{fill:url(#b);}.cls-3{fill:url(#a);}</style>
<linearGradient id="b" x1="288.81" x2="288.81" y1="-812.74" y2="-1199.4" gradientTransform="matrix(.55419 0 0 -.5573 -55.447 -452.98)" gradientUnits="userSpaceOnUse">
<stop stop-color="#db382a" offset="0"/>
<stop stop-color="#9d2c26" offset="1"/>
</linearGradient>
<linearGradient id="a" x1="289.68" x2="289.68" y1="-826.48" y2="-1185.3" gradientTransform="matrix(.55419 0 0 -.5573 -55.447 -452.98)" gradientUnits="userSpaceOnUse">
<stop stop-color="#e1524d" offset="0"/>
<stop stop-color="#ce352b" offset="1"/>
</linearGradient>
</defs>
<title>National Australia Bank</title>
<path class="cls-2" d="m131.72 1.6791-35.585 44.066c-0.28264 0.061303-50.797-24.772-50.797-24.772-1.4963-0.73006-2.7709-0.79136-3.5302-0.17276-0.75924 0.6186-1.0197 1.8781-0.65948 3.5166l12.026 55.334c-0.12746 0.25636-50.825 24.588-50.825 24.588-1.5074 0.71892-2.3387 1.6719-2.3498 2.6639-0.011084 0.992 0.8202 1.9673 2.3165 2.6973l50.431 25.006c0.12192 0.25636-12.497 55.384-12.497 55.384-0.37685 1.6719-0.15517 2.8868 0.62624 3.5221 0.78141 0.63532 2.0283 0.59074 3.5302-0.13375l50.797-24.153c0.28818 0.0557 35.341 44.45 35.341 44.45 1.0308 1.332 2.1392 1.9227 3.1146 1.7053 0.97537-0.21735 1.7291-1.2316 2.1059-2.8701l12.813-55.078c0.22722-0.18948 56.677 0 56.677 0 1.6626 0 2.8319-0.49042 3.2697-1.3988s0.10529-2.1344-0.91442-3.4385l-34.914-44.512c0-0.30652 35.429-44.467 35.429-44.467 1.0419-1.3041 1.391-2.5246 0.96429-3.4274-0.42672-0.90282-1.5905-1.4211-3.2586-1.4378l-14.409-0.10031a3.6632 3.6837 0 0 0 -2.649 1.1592l-53.025 56.839c-0.48215 0.5573-0.93658 0.7635-1.2192 0.5573s-0.25493-0.58517 0.24938-1.2372c1.0585-1.3319 30.453-37.228 45.266-55.284a1.2192 1.2261 0 0 0 0.21613 -1.3097 1.4354 1.4434 0 0 0 -1.258 -0.75793l-18.604-0.12818c-1.8676 0-3.3528 1.3765-3.907 1.9673-8.6121 9.2122-51.595 55.201-52.476 56.215-0.48769 0.5573-0.94212 0.7635-1.2192 0.5573-0.27709-0.2062-0.25493-0.58516 0.24939-1.2372l44.568-54.426c1.064-1.3041 1.6958-2.1679 1.4797-3.3104-0.11638-0.60746-12.043-54.755-12.153-55.306-0.3713-1.6329-1.1084-2.6639-2.0782-2.898-0.96983-0.23407-2.0893 0.32881-3.1422 1.6273z" fill="url(#b)" stroke-width=".55574"/>
<path class="cls-3" d="m200.48 62.887h-9.4212c-2.2168 0-3.2919 0.94741-4.5887 2.3072-17.956 18.803-48.259 50.58-49.068 51.411-3.6189 3.8064-6.3566 1.6719-2.8984-2.5078 1.1416-1.3932 24.811-30.312 39.392-48.714 0.61515-0.78022 1.3245-2.9593-0.69274-2.9593h-13.971c-1.5074 0-2.0283 0.20063-3.3972 1.6329-17.956 18.82-49.245 51.779-50.06 52.626-3.6189 3.7896-6.4951 1.5604-3.037-2.6639 1.1693-1.4211 27.056-33.438 41.476-51.701 1.3023-1.6719 1.6072-2.4131 1.1084-4.581l-10.951-48.675c-0.36023-1.6719-1.5517-1.9338-2.6102-0.6186l-32.326 39.886a4.1232 4.1463 0 0 1 -4.7217 1.0477l-45.998-22.504c-1.5296-0.74678-2.4772 0-2.1225 1.6719l10.834 50.291a4.101 4.124 0 0 1 -2.1225 4.3637l-46.17 22.136c-1.5296 0.73564-1.5406 1.9561 0 2.7029l45.848 22.849a4.0678 4.0906 0 0 1 2.0616 4.3748l-11.594 50.157c-0.37685 1.644 0.55419 2.4242 2.0893 1.6719l46.336-21.818a4.0622 4.085 0 0 1 4.694 1.1146l31.744 40.36c1.0474 1.332 2.2168 1.07 2.649-0.59074l11.926-50.051a4.101 4.124 0 0 1 3.7962 -2.9983l51.157 0.20063c1.6626 0 2.2168-1.1146 1.186-2.4242l-31.478-40.588a4.1065 4.1296 0 0 1 0.0388 -4.8541l32.054-40.098c1.0474-1.3375 0.53203-2.4298-1.1638-2.4577z" fill="url(#a)" stroke-width=".55574"/>
</svg>
