<?xml version="1.0" encoding="UTF-8"?>
<svg width="554.15" height="215.43" version="1.1" viewBox="0 0 554.14557 215.42508" xmlns="http://www.w3.org/2000/svg" xmlns:cc="http://creativecommons.org/ns#" xmlns:dc="http://purl.org/dc/elements/1.1/" xmlns:rdf="http://www.w3.org/1999/02/22-rdf-syntax-ns#">
<metadata>
<rdf:RDF>
<cc:Work rdf:about="">
<dc:format>image/svg+xml</dc:format>
<dc:type rdf:resource="http://purl.org/dc/dcmitype/StillImage"/>
<dc:title>National Australia Bank</dc:title>
</cc:Work>
</rdf:RDF>
</metadata>
<defs>
<style>.cls-1{fill:#231f20;}.cls-2{fill:url(#b);}.cls-3{fill:url(#a);}</style>
<linearGradient id="b" x1="288.81" x2="288.81" y1="-812.74" y2="-1199.4" gradientTransform="matrix(1,0,0,-1,0,-712.82)" gradientUnits="userSpaceOnUse">
<stop stop-color="#db382a" offset="0"/>
<stop stop-color="#9d2c26" offset="1"/>
</linearGradient>
<linearGradient id="a" x1="289.68" x2="289.68" y1="-826.48" y2="-1185.3" gradientTransform="matrix(1,0,0,-1,0,-712.82)" gradientUnits="userSpaceOnUse">
<stop stop-color="#e1524d" offset="0"/>
<stop stop-color="#ce352b" offset="1"/>
</linearGradient>
</defs>
<title>National Australia Bank</title>
<g class="logos logos--lender logos--lender--au logos--lender--au--nab" transform="matrix(.55419 0 0 .5573 -55.447 -55.723)">
<path class="cls-1" d="m585 221.41c-1.13-6.24-3.45-18.73-3.45-18.73l-53.92 2.94v27.9s13.55 1.67 15.14 1.91v146.17h49.37v-119.6c14.71-15.59 23.66-22.18 39.34-22.18 17.23 0 24.9 12 24.9 38.68v103.12h49.42v-111.88c0-46.88-22.32-71.74-64.62-71.74-22.32 0.07-38.09 6.59-56.18 23.41z" fill="#231f20"/>
<path class="cls-1" d="m1018.6 240.25c19.88 0 30 17.05 30 50.71 0 24.7-7.29 54.11-42.06 54.11a77.93 77.93 0 0 1 -28.59 -5.69v-75.64c13.87-16.14 26.51-23.49 40.65-23.49zm-106.65-103.91v27.94s16.38 2 18.13 2.29v207.23c24.54 7.47 51.12 11.56 73.4 11.56 61.29 0 96.44-36.26 96.44-99.46 0-53.67-27.71-87.07-72.29-87.07-19.13 0-34.74 6.07-49.74 18.61v-83.53z" fill="#231f20"/>
<path class="cls-1" d="m746.17 209.35-2.71 1 8.93 37.65 3.46-1.42c15.39-6.15 33.84-9.83 49.41-9.83 27.44 0 32.68 10 32.68 28.63v5.82h-17.53c-59.37 0-89.4 19.93-89.4 59.24 0 35 23.23 55.83 62.25 55.83 20.21 0 36.9-6.18 52.17-18.62 1 4.84 2.81 13.86 2.81 13.86l55.14-1.73v-28s-12.8-1.23-16.74-1.59v-88.79c0-42.57-24.62-63.33-75.3-63.33-21.49 0-45.85 4.25-65.17 11.28zm34.2 118.76c0-9.74 4.07-22.63 39.33-22.63h18.22v27.73c-11.91 10.58-22.67 15.44-34.63 15.44-14.78 0-22.92-7.28-22.92-20.54z" fill="#231f20"/>
<path class="cls-2" d="m337.73 103-64.21 79.07c-0.51 0.11-91.66-44.45-91.66-44.45-2.7-1.31-5-1.42-6.37-0.31s-1.84 3.37-1.19 6.31l21.7 99.29c-0.23 0.46-91.71 44.12-91.71 44.12-2.72 1.29-4.22 3-4.24 4.78s1.48 3.53 4.18 4.84l91 44.87c0.22 0.46-22.55 99.38-22.55 99.38-0.68 3-0.28 5.18 1.13 6.32s3.66 1.06 6.37-0.24l91.66-43.34c0.52 0.1 63.77 79.76 63.77 79.76 1.86 2.39 3.86 3.45 5.62 3.06s3.12-2.21 3.8-5.15l23.12-98.83c0.41-0.34 102.27 0 102.27 0 3 0 5.11-0.88 5.9-2.51s0.19-3.83-1.65-6.17l-63-79.87c0-0.55 63.93-79.79 63.93-79.79 1.88-2.34 2.51-4.53 1.74-6.15s-2.87-2.55-5.88-2.58l-26-0.18a6.61 6.61 0 0 0 -4.78 2.08l-95.68 101.99c-0.87 1-1.69 1.37-2.2 1s-0.46-1.05 0.45-2.22c1.91-2.39 54.95-66.8 81.68-99.2a2.2 2.2 0 0 0 0.39 -2.35 2.59 2.59 0 0 0 -2.27 -1.36l-33.57-0.23c-3.37 0-6.05 2.47-7.05 3.53-15.54 16.53-93.1 99.05-94.69 100.87-0.88 1-1.7 1.37-2.2 1s-0.46-1.05 0.45-2.22l80.42-97.66c1.92-2.34 3.06-3.89 2.67-5.94-0.21-1.09-21.73-98.25-21.93-99.24-0.67-2.93-2-4.78-3.75-5.2s-3.77 0.59-5.67 2.92z" fill="url(#b)"/>
<path class="cls-3" d="m461.81 212.83h-17c-4 0-5.94 1.7-8.28 4.14-32.4 33.74-87.08 90.76-88.54 92.25-6.53 6.83-11.47 3-5.23-4.5 2.06-2.5 44.77-54.39 71.08-87.41 1.11-1.4 2.39-5.31-1.25-5.31h-25.21c-2.72 0-3.66 0.36-6.13 2.93-32.4 33.77-88.86 92.91-90.33 94.43-6.53 6.8-11.72 2.8-5.48-4.78 2.11-2.55 48.82-60 74.84-92.77 2.35-3 2.9-4.33 2-8.22l-19.76-87.34c-0.65-3-2.8-3.47-4.71-1.11l-58.33 71.57a7.44 7.44 0 0 1 -8.52 1.88l-83-40.38c-2.76-1.34-4.47 0-3.83 3l19.55 90.24a7.4 7.4 0 0 1 -3.83 7.83l-83.31 39.72c-2.76 1.32-2.78 3.51 0 4.85l82.73 41a7.34 7.34 0 0 1 3.72 7.85l-20.92 90c-0.68 2.95 1 4.35 3.77 3l83.61-39.15a7.33 7.33 0 0 1 8.47 2l57.28 72.42c1.89 2.39 4 1.92 4.78-1.06l21.52-89.81a7.4 7.4 0 0 1 6.85 -5.38l92.31 0.36c3 0 4-2 2.14-4.35l-56.8-72.83a7.41 7.41 0 0 1 0.07 -8.71l57.84-71.95c1.89-2.4 0.96-4.36-2.1-4.41z" fill="url(#a)"/>
</g>
</svg>
