<?xml version="1.0" encoding="UTF-8"?>
<svg width="925.86" height="605.2" version="1.1" viewBox="0 0 925.85988 605.19776" xml:space="preserve" xmlns="http://www.w3.org/2000/svg" xmlns:cc="http://creativecommons.org/ns#" xmlns:dc="http://purl.org/dc/elements/1.1/" xmlns:rdf="http://www.w3.org/1999/02/22-rdf-syntax-ns#"><metadata><rdf:RDF><cc:Work rdf:about=""><dc:format>image/svg+xml</dc:format><dc:type rdf:resource="http://purl.org/dc/dcmitype/StillImage"/><dc:title/></cc:Work></rdf:RDF></metadata><defs><clipPath id="a"><path d="m0 595.28h841.89v-595.28h-841.89v595.28z"/></clipPath></defs><g transform="matrix(1.25 0 0 -1.25 -64.492 701.93)"><path d="m51.593 77.39h740.69v484.16h-740.69v-484.16z"/><g clip-path="url(#a)"><g transform="translate(272.86 394.53)"><path d="m0 0-5.146-18.501h-27.83l5.286 18.501h27.69zm-45.578-62.609 6.546 22.912h30.333c15.928 0 25.729 7.229 30.14 22.667l2.451 8.453c5.636 19.604-3.554 31.733-23.769 31.733h-132.08l-24.504-85.765h110.88z" fill="#f8ff13"/></g><g transform="translate(343.46 394.41)"><path d="m0 0h10.261v-27.322h-25.756l15.495 27.322zm-35.438-62.486 8.129 14.335h37.57v-14.335h24.751v85.765h-48.518l-50.603-85.765h28.671z" fill="#f8ff13"/></g><g transform="translate(429.81 394.53)"><path d="m0 0h27.69l-5.145-18.501h-27.83l5.285 18.501zm49.377-16.295 2.205 7.718c5.636 19.849-3.554 31.733-23.77 31.733h-46.925l-24.505-85.765h25.73l6.757 23.647h15.932l7.207-23.647h26.465l-7.688 25.22c9.267 2.868 15.368 9.723 18.592 21.094" fill="#f8ff13"/></g><g transform="translate(503.68 331.92)"><path d="m 0,0 24.504,85.765 -25.73,0 L -25.729,0 0,0 Z" fill="#f8ff13"/></g><g transform="translate(342.5 319.67)"><path d="m0 0-29.022-34.289-11.9 34.289h-111.25l-24.504-85.765h110.88l13.531 47.471 9.013-26.52h16.541l23.929 28.084-14.128-49.035h25.73l24.504 85.765h-33.326z" fill="#f8ff13"/></g><g transform="translate(408.19 269.07)"><path d="m0 0 15.496 27.322h10.262v-27.322h-25.758zm1.988 50.602-50.601-85.765h28.67l8.129 14.335h37.572v-14.335h24.748v85.765h-48.518z" fill="#f8ff13"/></g><g transform="translate(545.56 295.17)"><path d="m0 0 6.984 24.504h-78.047l-6.984-24.504h28.164l-17.504-61.261h25.73l17.504 61.261h24.153z" fill="#f8ff13"/></g><g transform="translate(579.74 295.17)"><path d="m0 0h38.962l7.105 24.504h-41.535c-15.928 0-25.729-7.229-30.139-22.667l-9.067-31.364c-5.758-20.094 3.554-31.734 23.77-31.734h32.345l6.983 24.504h-38.961l10.537 36.757z" fill="#f8ff13"/></g><g transform="translate(692.22 319.67)"><path d="m0 0-8.752-30.63h-29.405l8.752 30.63h-25.73l-24.504-85.765h25.73l8.751 30.63h29.405l-8.751-30.63h25.73l24.503 85.765h-25.729z" fill="#f8ff13"/></g><g transform="translate(611.49 345.29)"><path d="m0 0h-7.81l9.291 32.604h-4.673l-4.332-14.25c-2.166-6.916-3.497-10.925-3.991-12.027-1.025-2.357-2.356-4.057-3.989-5.101-1.635-1.046-3.839-1.492-6.612-1.34l-2.166 0.171 2.052 7.239h1.709c1.064 0 1.901 0.674 2.509 2.023s1.862 5.197 3.762 11.543l5.757 19.038h19.892l-11.399-39.9z"/></g><g transform="translate(645.98 376.47)"><path d="m0 0c0.342 1.215-0.076 1.824-1.254 1.824h-2.85c-0.989 0-1.634-0.627-1.938-1.881l-6.44-22.458c-0.343-1.178 0.093-1.767 1.31-1.767h2.85c0.95 0 1.596 0.627 1.938 1.881l6.384 22.401zm1.368-22.629c-0.912-3.155-2.166-5.415-3.762-6.783s-3.705-2.052-6.327-2.052h-4.731c-3.002 0-5.054 0.93-6.155 2.793-1.104 1.861-1.255 4.198-0.456 7.011l6.212 21.831c0.913 3.154 2.166 5.415 3.762 6.783s3.705 2.052 6.327 2.052h4.731c3.002 0 5.053-0.932 6.156-2.793 1.102-1.862 1.254-4.199 0.456-7.011l-6.213-21.831z"/></g><g transform="translate(684 377.89)"><path d="m0 0h-6.669l-9.349-32.604h-7.808l9.291 32.604h-6.669l2.052 7.296h21.26l-2.108-7.296z"/></g><g transform="translate(706.06 376.47)"><path d="m0 0c0.342 1.215-0.076 1.824-1.254 1.824h-2.85c-0.989 0-1.634-0.627-1.938-1.881l-6.44-22.458c-0.343-1.178 0.093-1.767 1.31-1.767h2.85c0.95 0 1.596 0.627 1.938 1.881l6.384 22.401zm1.368-22.629c-0.912-3.155-2.166-5.415-3.762-6.783s-3.705-2.052-6.327-2.052h-4.731c-3.002 0-5.054 0.93-6.155 2.793-1.104 1.861-1.255 4.198-0.456 7.011l6.212 21.831c0.913 3.154 2.166 5.415 3.762 6.783s3.705 2.052 6.327 2.052h4.731c3.002 0 5.053-0.932 6.156-2.793 1.102-1.862 1.254-4.199 0.456-7.011l-6.213-21.831z"/></g></g></g></svg>
