<svg xmlns="http://www.w3.org/2000/svg" width="240" height="34" fill="none" xmlns:v="https://vecta.io/nano"><g fill="#100e29"><path d="M130.771 30.121c6.526 0 11.498-2.686 11.498-7.439 0-3.685-2.763-6.716-8.667-7.405l-5.489-.62c-2.21-.275-3.557-1.412-3.557-2.962 0-2.067 2.176-3.41 5.421-3.41 3.729 0 6.18 1.929 6.353 4.891h5.006c-.034-5.201-4.523-8.542-11.255-8.542-6.837 0-10.876 3.134-10.876 7.474 0 4.202 3.349 6.578 7.837 7.095l5.456.654c2.796.31 4.384 1.55 4.384 3.272 0 1.963-2.313 3.237-6.007 3.237-4.385 0-7.182-2.101-7.32-5.235h-5.248c.138 5.476 4.972 8.989 12.464 8.989zm60.367-24.758l-11.247 24.031h5.52l2.949-6.42h12.174l2.949 6.42h5.452l-2.996-6.42c-1.055-2.262-3.321-3.708-5.811-3.708h-1.309-8.778l4.389-9.578 2.194 4.789a4.1 4.1 0 0 0 3.725 2.395h2.743l-5.37-11.509h-6.584zm-87.831 0l11.247 24.031h-5.521l-2.949-6.42H93.911l-2.949 6.42H85.51l2.995-6.42c1.055-2.262 3.321-3.708 5.812-3.708h1.308 8.779l-4.389-9.578-2.195 4.789a4.1 4.1 0 0 1-3.725 2.395h-2.743l5.37-11.509h6.584z"/><path d="M82.629 20.831c-.979 5.542-6.508 9.29-13.992 9.29-8.779 0-14.882-5.235-14.882-12.743S59.858 4.634 68.637 4.634c7.586 0 13.18 3.756 14.058 9.288l-5.369.168c-.814-3.277-4.235-5.495-8.688-5.495-5.589 0-9.464 3.616-9.464 8.783 0 5.097 3.875 8.679 9.464 8.679 4.34 0 7.743-2.171 8.627-5.394l5.365.168zm93.676 0c-.98 5.542-6.508 9.29-13.993 9.29-8.778 0-14.882-5.235-14.882-12.743s6.104-12.744 14.882-12.744c7.586 0 13.18 3.756 14.058 9.288l-5.369.168c-.815-3.277-4.235-5.495-8.689-5.495-5.589 0-9.464 3.616-9.464 8.783 0 5.097 3.875 8.679 9.464 8.679 4.341 0 7.743-2.171 8.627-5.394l5.366.168z" fill-rule="evenodd"/><path d="M240 17.377c0-7.312-5.666-12.015-14.879-12.015H213.86v3.742h5.289 5.767c5.938 0 9.794 3.124 9.794 8.273 0 5.012-3.719 8.274-9.794 8.274h-5.767v-8.813-.248c0-2.793-2.262-5.056-5.053-5.056h-.236v17.859h11.261c9.077 0 14.879-4.566 14.879-12.015z"/></g><path fill-rule="evenodd" d="M9.8 0C4.388 0 0 4.32 0 9.649v14.703C0 29.68 4.388 34 9.8 34h23.8c4.639 0 8.4-3.703 8.4-8.27 0-.554-.418-1.012-.957-1.142C37.574 23.753 35 20.672 35 17s2.574-6.753 6.043-7.588c.539-.13.957-.588.957-1.142C42 3.703 38.239 0 33.6 0H9.8z" fill="#2d2a48"/><path d="M48 17a5 5 0 1 1-10 0 5 5 0 1 1 10 0z" fill="#e93435"/><path d="M17.609 7c3.413 0 6.113.939 8.1 2.817 2.015 1.854 3.022 4.244 3.022 7.17v.512H11.86c.084 1.463.713 2.683 1.889 3.658 1.175.951 2.602 1.427 4.281 1.427.867 0 1.595-.085 2.182-.256 1.343-.317 2.336-.902 2.98-1.756h5.288c-.224 1.195-.895 2.244-2.014 3.146-1.091.902-2.364 1.598-3.819 2.085-1.287.439-2.826.659-4.616.659-3.357 0-6.127-.902-8.31-2.707-2.154-1.829-3.232-4.171-3.232-7.024 0-2.878 1.035-5.219 3.106-7.024C11.692 7.902 14.364 7 17.609 7zm0 3.622c-1.399 0-2.588.317-3.567.951s-1.651 1.537-2.014 2.707h11.08c-.392-1.171-1.063-2.073-2.014-2.707s-2.112-.951-3.483-.951z" fill="#fff"/></svg>