<svg xmlns="http://www.w3.org/2000/svg" width="170" height="25"><path d="M30.2 12.5L18.2.6v7.9h-4.7c-2.5 0-4 1.8-4 4s1.5 4 4 4h4.7v7.9z" fill="#8cc83c"/><path d="M15.9 24.4v-5.6h-2.4c-1.8 0-3.5-.7-4.6-1.9s-1.7-2.7-1.7-4.5c0-3.6 2.7-6.3 6.4-6.3H16V.3c-.8-.2-1.7-.3-2.8-.3C7.9 0 0 2.7 0 12.5S7.9 25 13.2 25c1.1 0 2-.1 2.7-.3z" fill="#282364"/><path d="M160.4 6.9V18h3v-3.2l.6-.7 2.4 3.9h3.6l-4.1-6.3 3.9-4.8h-3.7l-2.7 3.8V6.9zM147.3 18V6.9h3l3.7 6.3V6.9h2.9V18h-3l-3.6-6.1V18zM128 15.5h-1.6v-2h1.6c.5 0 1.1.2 1.1 1-.1.8-.8 1-1.1 1m-1.6-6h1.3c.4 0 .9.2.9.9s-.5.9-.9.9h-1.3zm3.4 2.5s1.7-.4 1.7-2.5-1.9-2.6-3.4-2.6h-4.7V18h4.8c1.5 0 3.9-.5 3.9-3.1.1-2.4-2.3-2.9-2.3-2.9m8.7 1.8l1-3.2 1 3.2zm2.3-6.9H138L134 18h3.1l.6-1.8h3.5l.6 1.8h3.1z" fill="#8cc83c"/><path d="M81.2 15.1c-.3.2-.8.2-1.2.2-1.5 0-2.7-1-2.7-2.8s1.3-2.8 2.7-2.8c.4 0 .9.1 1.2.3V7c-.3-.1-.8-.1-1.2-.1-3.3 0-5.8 2.2-5.8 5.7 0 3.7 2.6 5.7 5.8 5.7.4 0 .9 0 1.2-.1zm-37 0c-.3.2-.8.2-1.2.2-1.5 0-2.7-1-2.7-2.8s1.3-2.8 2.7-2.8c.4 0 .9.1 1.2.3V7c-.3-.1-.8-.1-1.2-.1-3.3 0-5.8 2.2-5.8 5.7 0 3.7 2.6 5.7 5.8 5.7.4 0 .9 0 1.2-.1zm8.6.3c-1.5 0-2.6-1.2-2.6-2.9s1.1-2.9 2.6-2.9c1.6 0 2.6 1.1 2.6 2.9 0 1.6-1 2.9-2.6 2.9m0-8.6c-3.4 0-5.7 2.4-5.7 5.7s2.4 5.7 5.7 5.7c3.5 0 5.7-2.6 5.7-5.7 0-3.5-2.4-5.7-5.7-5.7m36.8 8.6c-1.5 0-2.6-1.2-2.6-2.9s1.1-2.9 2.6-2.9c1.6 0 2.6 1.1 2.6 2.9.1 1.6-1 2.9-2.6 2.9m0-8.6c-3.4 0-5.7 2.4-5.7 5.7s2.4 5.7 5.7 5.7c3.5 0 5.7-2.6 5.7-5.7.1-3.5-2.3-5.7-5.7-5.7M61.3 18.1V6.9h3l3.7 6.3V6.9h3v11.2h-3.1l-3.6-6.2v6.2zm40.7-6h-1V9.6h1.1c.9 0 1.4.6 1.4 1.2.1.9-.8 1.3-1.5 1.3m2.7 2.1s1.9-.7 1.9-3.3c0-3.3-2.5-3.9-3.9-3.9h-4.5v11.1h2.8v-3.4h.7l2.1 3.4h3.4zm9.5 1.2h-1.3V9.6h1.4c1.2 0 2.3 1.1 2.3 2.9 0 2.5-1.7 2.9-2.4 2.9m-.4-8.5h-3.9V18h4.1c1.8 0 5.7-.8 5.7-5.5 0-4.2-3.2-5.6-5.9-5.6" fill="#282364"/></svg>