<?xml version="1.0" encoding="UTF-8" standalone="no"?>
<!DOCTYPE svg PUBLIC "-//W3C//DTD SVG 1.1//EN" "http://www.w3.org/Graphics/SVG/1.1/DTD/svg11.dtd">
<svg xmlns="http://www.w3.org/2000/svg" version="1.1" viewBox="0.00 0.00 2070.00 1013.00">
<path fill="#ff0000" d="
  M 218.71 80.50
  C 195.59 80.50 185.13 97.91 182.08 119.00
  Q 180.88 127.32 179.67 136.75
  Q 178.23 148.02 176.07 152.99
  C 165.59 177.14 135.47 184.16 115.89 166.73
  Q 100.50 153.03 103.01 131.71
  Q 104.34 120.46 106.72 104.95
  C 112.52 67.11 129.20 29.05 164.67 12.26
  Q 182.91 3.62 205.75 3.41
  C 206.43 3.40 207.05 3.82 207.73 3.82
  Q 542.12 3.80 876.50 3.82
  Q 886.73 3.82 897.24 5.94
  C 945.67 15.69 968.94 59.02 975.34 104.28
  Q 977.29 118.08 979.31 132.75
  C 983.20 160.95 955.27 184.87 928.14 174.28
  Q 913.31 168.50 906.70 154.03
  Q 904.22 148.62 902.83 138.12
  Q 901.47 127.89 899.91 117.83
  C 896.75 97.50 886.36 80.52 863.82 80.52
  Q 541.80 80.54 218.71 80.50
  Z"
/>
<path fill="#1d1d1b" d="
  M 144.88 378.39
  C 144.81 379.80 144.98 381.17 144.81 382.56
  Q 132.59 479.73 119.95 580.00
  Q 111.52 646.83 103.97 713.58
  Q 102.55 726.11 100.83 729.95
  C 95.04 742.81 81.12 749.99 67.57 750.89
  C 57.65 751.55 49.10 750.63 40.48 745.42
  C 30.23 739.23 25.58 725.35 27.02 714.14
  Q 52.92 511.27 80.85 292.22
  C 83.02 275.17 98.37 263.25 114.70 261.95
  C 121.82 261.38 130.16 261.28 137.08 262.07
  Q 154.67 264.09 168.47 276.05
  Q 174.27 281.06 180.57 290.95
  Q 191.61 308.25 201.09 328.64
  Q 227.81 386.07 250.68 443.75
  Q 283.91 527.56 315.30 611.26
  Q 315.65 612.20 315.98 611.26
  Q 320.55 598.41 325.49 585.51
  C 340.60 546.05 356.92 504.58 373.24 462.28
  Q 399.59 394.00 431.48 325.75
  Q 440.31 306.84 452.13 288.81
  Q 457.59 280.48 463.22 275.70
  Q 477.07 263.91 494.56 262.02
  C 500.93 261.32 507.55 261.59 513.96 261.70
  C 524.76 261.88 536.45 266.41 543.32 274.92
  C 549.36 282.41 549.94 289.74 551.12 298.92
  Q 577.49 503.34 604.33 710.44
  Q 605.51 719.54 604.70 724.15
  Q 603.48 731.15 599.52 737.73
  Q 596.19 743.26 590.15 746.56
  C 581.19 751.46 571.93 752.16 561.96 751.12
  C 547.41 749.61 531.45 740.01 528.87 724.58
  Q 527.01 713.45 525.14 694.45
  C 522.96 672.25 520.38 649.68 517.69 628.33
  Q 502.29 506.06 487.12 384.40
  Q 486.77 381.63 486.67 378.50
  Q 486.62 377.13 486.04 378.37
  C 479.07 393.29 471.36 408.58 464.74 423.69
  Q 445.86 466.80 434.38 499.27
  Q 411.58 563.77 387.86 629.02
  Q 380.06 650.50 368.54 686.81
  Q 366.22 694.12 362.99 702.98
  Q 360.13 710.84 356.72 715.70
  C 346.80 729.83 330.32 737.82 312.92 736.67
  C 293.62 735.40 275.68 722.55 269.31 703.99
  Q 258.75 673.21 248.51 642.70
  Q 232.90 596.16 207.43 526.37
  Q 204.60 518.59 200.32 507.68
  Q 193.60 490.52 187.08 472.44
  C 175.31 439.79 161.85 411.24 145.43 378.27
  Q 144.93 377.28 144.88 378.39
  Z"
/>
<path fill="#1d1d1b" d="
  M 965.25 485.47
  C 1001.37 504.66 1027.51 539.25 1036.29 578.84
  Q 1040.23 596.60 1039.47 612.50
  Q 1037.42 655.73 1012.07 690.96
  C 987.43 725.20 948.53 746.91 906.49 750.23
  Q 899.18 750.81 886.96 750.80
  Q 784.05 750.71 682.70 750.72
  C 664.31 750.72 648.36 738.55 644.60 720.80
  Q 643.64 716.27 643.65 704.87
  Q 643.86 503.92 643.65 301.39
  Q 643.63 286.95 651.45 276.49
  Q 662.65 261.52 684.19 261.58
  Q 767.66 261.78 854.43 261.53
  Q 865.48 261.49 874.09 262.22
  C 920.61 266.14 961.83 293.94 984.00 335.06
  Q 999.67 364.14 1000.31 398.62
  C 1000.92 431.30 988.53 460.95 965.05 484.14
  A 0.83 0.83 0.0 0 0 965.25 485.47
  Z
  M 884.59 336.93
  Q 871.34 332.46 859.48 332.46
  Q 789.19 332.50 718.06 332.44
  Q 717.72 332.44 717.72 332.79
  L 717.72 675.55
  A 0.38 0.37 90.0 0 0 718.09 675.93
  Q 805.30 675.91 892.76 675.93
  C 894.07 675.93 894.96 676.66 896.33 676.66
  Q 925.08 676.79 945.96 658.52
  C 969.68 637.77 978.27 602.11 961.91 573.76
  C 946.98 547.91 917.29 535.42 887.96 535.32
  Q 845.58 535.18 805.96 535.36
  Q 797.22 535.40 792.01 533.86
  Q 784.18 531.55 777.94 525.84
  C 756.94 506.61 765.30 472.58 792.32 464.43
  Q 797.69 462.81 811.57 462.89
  Q 831.24 463.00 852.04 463.08
  Q 863.74 463.13 871.90 461.83
  C 888.72 459.15 905.08 451.38 916.08 438.56
  C 936.45 414.82 935.74 378.86 913.87 355.63
  Q 901.72 342.72 884.59 336.93
  Z"
/>
<path fill="#1d1d1b" d="
  M 1664.98 569.73
  Q 1657.55 593.65 1650.14 619.95
  Q 1647.29 630.06 1643.25 641.13
  Q 1642.09 644.30 1641.16 647.72
  Q 1637.71 660.41 1625.20 663.76
  Q 1617.31 665.88 1609.68 661.76
  C 1601.34 657.25 1597.31 648.79 1598.25 639.51
  Q 1598.71 634.98 1600.33 629.68
  C 1613.97 585.18 1628.83 540.68 1643.85 495.95
  Q 1661.52 443.28 1682.88 391.59
  Q 1690.22 373.84 1699.96 357.00
  Q 1704.66 348.89 1714.10 346.89
  Q 1730.67 343.38 1744.83 348.76
  C 1750.88 351.05 1753.88 356.08 1756.54 362.03
  Q 1765.66 382.45 1777.59 413.99
  Q 1799.54 472.03 1807.75 495.73
  Q 1829.04 557.21 1851.71 625.76
  Q 1853.19 630.22 1854.20 634.51
  C 1856.41 643.90 1852.44 652.78 1843.67 656.97
  Q 1837.99 659.68 1829.98 659.29
  Q 1819.01 658.75 1814.41 648.88
  Q 1811.65 642.97 1806.55 627.95
  Q 1796.64 598.77 1787.00 569.55
  A 0.55 0.54 -8.7 0 0 1786.48 569.17
  L 1665.73 569.18
  Q 1665.16 569.18 1664.98 569.73
  Z
  M 1705.13 452.88
  C 1697.16 475.42 1688.86 500.35 1680.55 526.10
  A 0.51 0.51 0.0 0 0 1681.03 526.77
  L 1772.27 526.77
  A 0.58 0.58 0.0 0 0 1772.82 526.01
  Q 1759.77 486.09 1745.68 446.75
  Q 1739.47 429.40 1732.11 411.72
  Q 1729.54 405.54 1727.29 399.23
  Q 1726.58 397.22 1725.82 399.21
  C 1723.69 404.84 1721.75 410.37 1719.46 415.88
  Q 1711.29 435.49 1705.13 452.88
  Z"
/>
<path fill="#1d1d1b" d="
  M 1490.12 595.23
  Q 1495.66 574.59 1499.99 555.64
  Q 1522.09 458.97 1542.27 362.06
  C 1543.78 354.84 1548.57 348.92 1555.85 346.83
  C 1564.32 344.40 1574.43 345.54 1581.21 351.63
  C 1589.62 359.19 1586.47 371.84 1584.43 381.68
  C 1571.34 444.78 1557.84 508.12 1542.40 571.10
  Q 1538.60 586.62 1534.58 599.70
  Q 1531.00 611.37 1526.52 625.28
  Q 1523.46 634.78 1518.88 644.01
  Q 1514.01 653.83 1504.05 657.10
  C 1491.14 661.35 1476.44 660.92 1465.84 652.10
  Q 1462.22 649.08 1460.17 644.43
  Q 1455.51 633.82 1452.51 623.48
  Q 1440.66 582.63 1433.85 555.60
  Q 1427.71 531.24 1421.44 506.85
  C 1417.06 489.80 1413.36 472.88 1409.69 455.67
  Q 1409.22 453.46 1408.68 455.65
  Q 1394.03 514.74 1379.30 573.55
  Q 1376.45 584.96 1373.57 594.23
  Q 1368.51 610.52 1362.77 627.70
  C 1360.99 633.03 1358.81 638.05 1356.54 643.13
  C 1351.18 655.15 1339.53 660.98 1326.48 659.95
  C 1315.32 659.08 1304.92 656.75 1299.54 646.53
  C 1295.27 638.42 1291.85 629.10 1289.21 619.97
  Q 1272.16 560.95 1269.31 548.50
  Q 1251.13 468.87 1235.50 391.24
  Q 1233.61 381.87 1232.02 373.22
  Q 1231.50 370.37 1231.46 367.76
  C 1231.43 365.47 1231.21 362.57 1231.84 360.41
  Q 1234.48 351.34 1242.45 348.18
  Q 1254.33 343.45 1265.69 348.57
  Q 1270.37 350.67 1273.17 355.71
  Q 1274.83 358.70 1276.12 365.07
  Q 1277.24 370.64 1278.37 376.22
  Q 1288.71 427.27 1298.77 477.20
  C 1304.57 505.98 1311.31 534.64 1317.85 563.24
  Q 1321.85 580.70 1326.61 598.57
  Q 1327.00 600.02 1327.41 598.58
  Q 1338.75 558.90 1349.55 518.63
  Q 1352.13 509.03 1354.50 499.29
  Q 1368.45 441.98 1380.88 387.65
  Q 1382.02 382.70 1383.08 378.15
  Q 1384.52 372.02 1386.43 368.59
  Q 1393.57 355.78 1406.91 353.69
  C 1419.26 351.76 1432.18 359.41 1435.13 371.34
  Q 1436.95 378.69 1438.37 385.05
  Q 1447.26 424.88 1456.17 465.98
  Q 1466.02 511.39 1478.30 557.48
  Q 1483.36 576.48 1489.12 595.25
  Q 1489.65 597.00 1490.12 595.23
  Z"
/>
<path fill="#1d1d1b" d="
  M 2070.00 356.79
  L 2070.00 377.02
  Q 2060.83 399.89 2050.37 422.23
  Q 2034.53 456.09 2022.02 479.58
  Q 2010.05 502.05 1995.13 525.21
  Q 1991.34 531.08 1986.42 535.90
  Q 1985.99 536.33 1985.99 536.94
  Q 1986.05 585.33 1986.05 637.18
  C 1986.05 646.47 1981.41 655.38 1972.17 658.47
  Q 1958.17 663.16 1947.99 652.55
  C 1942.89 647.23 1942.00 641.34 1941.99 633.41
  Q 1941.89 582.64 1942.05 536.42
  A 0.48 0.47 -18.3 0 0 1941.29 536.04
  Q 1939.58 537.29 1938.25 536.10
  Q 1938.18 536.04 1936.61 534.02
  Q 1928.09 523.12 1922.12 512.89
  Q 1913.67 498.44 1900.97 475.44
  Q 1896.41 467.18 1891.74 457.61
  Q 1874.11 421.49 1858.43 386.05
  C 1856.54 381.78 1855.25 377.24 1853.65 372.86
  Q 1852.68 370.21 1852.69 367.60
  Q 1852.76 351.67 1867.50 346.89
  C 1871.84 345.48 1878.88 345.20 1883.25 346.69
  Q 1891.19 349.41 1894.69 357.34
  Q 1905.64 382.18 1916.15 405.41
  C 1921.45 417.10 1927.27 429.46 1933.12 440.77
  Q 1941.78 457.48 1950.98 475.53
  C 1954.23 481.91 1958.07 488.29 1962.03 494.36
  Q 1962.23 494.67 1962.56 494.84
  Q 1962.98 495.05 1963.23 494.66
  C 1975.03 476.03 1984.69 456.32 1994.21 436.92
  C 2002.01 421.02 2008.72 404.72 2016.40 388.82
  C 2021.16 378.97 2025.26 368.81 2029.61 358.84
  C 2032.68 351.83 2038.51 345.98 2046.51 345.94
  Q 2049.59 345.92 2053.47 346.35
  Q 2064.58 347.57 2070.00 356.79
  Z"
/>
<path fill="#ff0000" d="
  M 0.00 918.61
  L 0.00 908.00
  Q 3.10 876.50 4.90 868.49
  Q 7.82 855.54 16.97 847.57
  C 40.77 826.83 76.30 842.09 80.18 872.07
  Q 81.04 878.79 79.34 890.14
  Q 78.01 899.04 77.09 907.82
  Q 75.97 918.55 83.06 925.95
  C 86.98 930.03 92.24 932.69 97.82 932.69
  Q 538.52 932.77 978.82 932.76
  Q 984.44 932.76 988.22 931.31
  C 998.48 927.38 1004.01 917.26 1002.56 906.25
  Q 1001.08 894.99 999.41 882.30
  C 997.28 866.07 1004.65 851.03 1018.73 843.02
  C 1030.01 836.60 1044.25 836.31 1055.64 842.55
  Q 1073.34 852.24 1075.90 873.82
  Q 1077.31 885.67 1078.72 896.16
  Q 1082.49 924.29 1074.30 949.44
  C 1063.91 981.39 1038.58 1003.90 1004.95 1008.14
  Q 997.73 1009.06 988.63 1009.05
  Q 541.54 1009.00 87.76 1009.04
  Q 75.80 1009.04 65.44 1006.55
  C 33.01 998.76 11.01 973.51 3.38 941.48
  Q 0.70 930.24 0.00 918.61
  Z"
/>
</svg>
