<?xml version="1.0" encoding="UTF-8" standalone="no"?>
<!-- Generator: Adobe Illustrator 24.0.0, SVG Export Plug-In . SVG Version: 6.00 Build 0)  -->

<svg
   xmlns:dc="http://purl.org/dc/elements/1.1/"
   xmlns:cc="http://creativecommons.org/ns#"
   xmlns:rdf="http://www.w3.org/1999/02/22-rdf-syntax-ns#"
   xmlns:svg="http://www.w3.org/2000/svg"
   xmlns="http://www.w3.org/2000/svg"
   xmlns:sodipodi="http://sodipodi.sourceforge.net/DTD/sodipodi-0.dtd"
   xmlns:inkscape="http://www.inkscape.org/namespaces/inkscape"
   version="1.1"
   id="Layer_1"
   x="0px"
   y="0px"
   viewBox="0 0 2188.9351 409"
   xml:space="preserve"
   sodipodi:docname="logo.svg"
   width="2188.9351"
   height="409"
   inkscape:version="0.92.5 (2060ec1f9f, 2020-04-08)"><metadata
   id="metadata115"><rdf:RDF><cc:Work
       rdf:about=""><dc:format>image/svg+xml</dc:format><dc:type
         rdf:resource="http://purl.org/dc/dcmitype/StillImage" /><dc:title></dc:title></cc:Work></rdf:RDF></metadata><defs
   id="defs113" /><sodipodi:namedview
   pagecolor="#ffffff"
   bordercolor="#666666"
   borderopacity="1"
   objecttolerance="10"
   gridtolerance="10"
   guidetolerance="10"
   inkscape:pageopacity="0"
   inkscape:pageshadow="2"
   inkscape:window-width="1848"
   inkscape:window-height="1016"
   id="namedview111"
   showgrid="false"
   inkscape:zoom="0.6491433"
   inkscape:cx="1094.4351"
   inkscape:cy="204.5"
   inkscape:window-x="72"
   inkscape:window-y="27"
   inkscape:window-maximized="1"
   inkscape:current-layer="Layer_1" />
<style
   type="text/css"
   id="style88">
	.st0{fill:#FFFFFF;}
	.st1{fill-rule:evenodd;clip-rule:evenodd;}
</style>
<rect
   class="st0"
   width="2386.2219"
   height="530.54407"
   id="rect90"
   x="-7.7868199"
   y="-4.5440907"
   style="fill:#ffffff;stroke-width:0.87561494" />
<path
   d="m 741.53513,224 h 82.5 c 11.6,0 21,9.5 21,21.1 0,11.7 -9.4,21.1 -21,21.1 h -99.5 c -1.6,0 -3.1,0.6 -4.2,1.6 l -30,25.9 c -4.6,4 -1.8,11.5 4.2,11.5 h 124.5 c 0,0 0.1,0 0.1,-0.1 0,-0.1 0.1,-0.1 0.1,-0.1 1.6,0.1 3.1,0.2 4.7,0.2 33,0 59.8,-26.9 59.8,-60.1 0,-31.5 -24.1,-57.4 -54.9,-59.9 0,0 -0.1,0 -0.1,-0.1 0,-0.1 0,-0.1 -0.1,-0.1 h -88.8 c -11.6,0 -21,-9.5 -21,-21.1 0,-11.7 9.4,-21.1 21,-21.1 h 99.3 c 1.6,0 3.2,-0.6 4.4,-1.7 l 27.9,-25.9 c 4.4,-4.1 1.5,-11.4 -4.4,-11.4 h -125.5 c 0,0 0,0 0,0 0,0 0,0 0,0 -0.5,0 -1.1,0 -1.6,0 -33,0 -59.8,26.9 -59.8,60.1 0,33.2 26.8,60.1 59.8,60.1 0.5,0 1,0 1.6,0 0,0 0,0 0,0 0,0 0,0 0,0 z"
   id="path92"
   inkscape:connector-curvature="0" />
<path
   d="m 1221.7351,103.7 c -3.6,0 -6.5,2.9 -6.5,6.6 v 188.4 c 0,3.6 2.9,6.6 6.5,6.6 h 151 c 1.8,0 3.5,-0.8 4.8,-2.1 l 18.9,-20.3 c 3.9,-4.2 1,-11.1 -4.8,-11.1 h -131.8 c -3.6,0 -6.5,-2.9 -6.5,-6.6 v -155 c 0,-3.6 -2.9,-6.6 -6.5,-6.6 h -25.1 z"
   id="path94"
   inkscape:connector-curvature="0" />
<path
   class="st1"
   d="m 979.93513,103.7 c 0,0 0,0 0,0 0,0.1 0,0.1 0,0 -19.3,0.9 -34.8,16.4 -35.7,35.7 0,0 0,0 0,0 0,0 0,0 0,0 0,0 0,0 0,0 v 126.7 c 0,0 0,0 0,0 0,0 0,0 0,0 0,0.5 0,1.1 0,1.6 0,20.1 15.8,36.5 35.7,37.3 0,0 0,0 0,0 v 0 0 c 0,0 0,0 0,0 h 136.99997 c 0,0 0,0 0,0 v 0 0 0 c 19.8,-0.9 35.7,-17.3 35.7,-37.3 0,-0.5 0,-1.1 0,-1.6 0,0 0,0 0,0 0,0 0,0 0,0 V 139.5 c 0,0 0,0 0,0 0,0 0,0 0,0 -0.8,-19.3 -16.3,-34.9 -35.6,-35.7 0,0 0,0 0,0 0,0 0,0 0,0 H 979.93513 Z m 25.59997,35.8 v 0 0 c -0.1,0 -0.1,0 0,0 -12.10002,0.5 -21.79997,10.3 -22.29997,22.5 0,0 0,0 0,0 0,0 0,0 0,0 v 79.7 c 0,0 0,0 0,0 0,0 0,0 0,0 0,0.3 0,0.7 0,1 0,12.6 9.89995,23 22.29997,23.5 0,0 0,0 0,0 v 0 0 0 h 85.9 v 0 0 0 c 0,0 0,0 0,0 12.4,-0.5 22.3,-10.9 22.3,-23.5 0,-0.3 0,-0.7 0,-1 v 0 0 0 c 0,0 0,0 0,0 V 162 c 0,0 0,0 0,0 0,0 0,0 0,0 -0.5,-12.2 -10.2,-21.9 -22.3,-22.5 0,0 0,0 0,0 v 0 0 0 z"
   id="path96"
   inkscape:connector-curvature="0"
   style="clip-rule:evenodd;fill-rule:evenodd" />
<path
   class="st1"
   d="m 1615.9351,298.7 c 0,3.6 2.9,6.6 6.5,6.6 h 25.6 c 3.6,0 6.5,-2.9 6.5,-6.6 V 142.8 c 0,0 0,0 0,0 v 0 0 c 0,0 0,0 0,0 0,-0.5 0,-1.1 0,-1.6 0,-20.1 -15.7,-36.5 -35.3,-37.3 0,0 0,0 0,0 0,0 0,0 0,0 h -131.5 c 0,0 0,0 0,0 0,0 0,0 0,0 -0.5,0 -1.1,0 -1.6,0 -20.4,0 -36.9,16.7 -36.9,37.4 0,0.5 0,1.1 0,1.6 0,0 0,0 0,0 0,0 0,0 0,0 v 155.9 c 0,3.6 2.9,6.6 6.5,6.6 h 25.6 c 3.6,0 6.5,-2.9 6.5,-6.6 v -64.9 c 0,-3.6 2.9,-6.6 6.5,-6.6 h 115.4 c 3.6,0 6.5,2.9 6.5,6.6 v 64.8 z m -128.3,-107.3 V 159 c 0,-12.6 10.1,-22.8 22.5,-22.8 h 83.4 c 12.4,0 22.5,10.2 22.5,22.8 v 32.4 c 0,3.6 -2.9,6.6 -6.5,6.6 h -115.4 c -3.6,0 -6.5,-2.9 -6.5,-6.6 z"
   id="path98"
   inkscape:connector-curvature="0"
   style="clip-rule:evenodd;fill-rule:evenodd" />
<path
   class="st1"
   d="m 2156.4351,305.3 c -3.6,0 -6.5,-2.9 -6.5,-6.6 v -64.9 c 0,-3.6 -2.9,-6.6 -6.5,-6.6 h -116.7 c -3.6,0 -6.5,2.9 -6.5,6.6 v 64.9 c 0,3.6 -2.9,6.6 -6.5,6.6 h -25.8 c -3.6,0 -6.5,-2.9 -6.5,-6.6 v -155.9 0 0 c 0,0 0,0 0,0 0,0 0,0 0,0 0,-0.5 0,-1.1 0,-1.6 0,-20.6 16.7,-37.4 37.3,-37.4 0.5,0 1.1,0 1.6,0 0,0 0,0 0,0 0,0 0,0 0,0 h 132.9 c 0,0 0,0 0,0 0,0 0,0 0,0 19.8,0.9 35.7,17.3 35.7,37.3 0,0.5 0,1.1 0,1.6 0,0 0,0 0,0 0,0 0,0 0,0 0,0 0,0 0,0 v 155.9 c 0,3.6 -2.9,6.6 -6.5,6.6 h -26 z m -136.2,-146.3 v 32.4 c 0,3.6 2.9,6.6 6.5,6.6 h 116.7 c 3.6,0 6.5,-2.9 6.5,-6.6 V 159 c 0,-12.6 -10.2,-22.8 -22.7,-22.8 h -84.3 c -12.6,0 -22.7,10.2 -22.7,22.8 z"
   id="path100"
   inkscape:connector-curvature="0"
   style="clip-rule:evenodd;fill-rule:evenodd" />
<path
   d="m 1750.9351,103.7 c 1.9,0 3.7,0.8 4.9,2.3 l 114.8,136.9 c 3.9,4.6 11.4,1.8 11.4,-4.3 V 110.3 c 0,-3.6 2.9,-6.6 6.5,-6.6 h 25.6 c 3.6,0 6.5,2.9 6.5,6.6 v 188.4 c 0,3.6 -2.9,6.6 -6.5,6.6 h -31.8 c -0.1,0 -0.2,-0.1 -0.2,-0.2 0,-0.1 0,-0.1 -0.1,-0.2 l -116.8,-135.9 c -3.9,-4.6 -11.4,-1.7 -11.4,4.3 v 125.5 c 0,3.6 -2.9,6.6 -6.5,6.6 h -25.8 c -3.6,0 -6.5,-2.9 -6.5,-6.6 V 110.3 c 0,-3.6 2.9,-6.6 6.5,-6.6 z"
   id="path102"
   inkscape:connector-curvature="0" />
<path
   d="m 84.835131,312.2 c 3.2,-3.2 7.499999,-5 11.999999,-5 h 416.5 c 7.6,0 11.4,9.2 6,14.5 l -82.3,82.3 c -3.2,3.2 -7.5,5 -12,5 H 8.5351311 c -7.59999976,0 -11.3999999,-9.2 -6,-14.5 z"
   id="path104"
   inkscape:connector-curvature="0" />
<path
   d="m 84.835131,5 c 3.2,-3.2 7.499999,-5 11.999999,-5 h 416.5 c 7.6,0 11.4,9.2000003 6,14.5 l -82.3,82.199999 c -3.2,3.2 -7.5,5.000001 -12,5.000001 H 8.5351311 c -7.59999976,0 -11.3999999,-9.2 -6,-14.5 z"
   id="path106"
   inkscape:connector-curvature="0" />
<path
   d="m 437.03513,157.6 c -3.2,-3.2 -7.5,-5 -12,-5 H 8.5351311 c -7.59999976,0 -11.3999999,9.2 -6,14.5 l 82.2999999,82.2 c 3.2,3.2 7.499999,5 11.999999,5 h 416.5 c 7.6,0 11.4,-9.2 6,-14.5 z"
   id="path108"
   inkscape:connector-curvature="0" />
</svg>