<svg xmlns="http://www.w3.org/2000/svg" height="41.1" width="36.086"  xmlns:v="https://vecta.io/nano"><defs><linearGradient id="A" y2="-10.755" x2="36.904" y1="52.904" x1="75.858" gradientUnits="userSpaceOnUse"><stop offset=".002" stop-color="#eb4e0e"/><stop offset=".876" stop-color="#f09f14"/></linearGradient></defs><path d="M8.943 1.6h16.7c.8 0 1.3.7 1.2 1.4l-1.3 6.1h-9c-1.7 0-3.1 1.2-3.5 2.8l-3.9 18.4h-6.3c-.8 0-1.3-.7-1.2-1.4l5.4-25.8c.2-.8 1-1.5 1.9-1.5zm19.5 1.8l-1.2 5.7h6c1.8 0 3.1 1.7 2.8 3.4l-5.4 25.8c-.3 1.6-1.8 2.8-3.5 2.8h-16.7c-1.8 0-3.1-1.7-2.8-3.4l1.2-5.7h-6c-1.8 0-3.1-1.7-2.8-3.4l5.4-25.8c.3-1.6 1.8-2.8 3.5-2.8h16.7c1.8 0 3.1 1.6 2.8 3.4zm-11.9 7.4h8.6l-3.8 18c-.2.9-1 1.5-1.9 1.5h-8.6l3.8-18c.2-.9 1-1.5 1.9-1.5zm3 21.2h-9l-1.3 6.1c-.2.7.4 1.4 1.2 1.4h16.7c.9 0 1.7-.6 1.9-1.5l5.4-25.8c.2-.7-.4-1.4-1.2-1.4h-6.4l-3.9 18.4c-.3 1.6-1.8 2.8-3.4 2.8z" fill-rule="evenodd" fill="url(#A)"/></svg>