<svg xmlns="http://www.w3.org/2000/svg" height="41.1" width="113.343"  xmlns:v="https://vecta.io/nano"><linearGradient y2="-10.755" x2="36.904" y1="52.904" x1="75.858" gradientUnits="userSpaceOnUse" id="A"><stop offset=".002" stop-color="#eb4e0e"/><stop offset=".876" stop-color="#f09f14"/></linearGradient><path d="M8.943 1.6h16.7c.8 0 1.3.7 1.2 1.4l-1.3 6.1h-9c-1.7 0-3.1 1.2-3.5 2.8l-3.9 18.4h-6.3c-.8 0-1.3-.7-1.2-1.4l5.4-25.8c.2-.8 1-1.5 1.9-1.5zm19.5 1.8l-1.2 5.7h6c1.8 0 3.1 1.7 2.8 3.4l-5.4 25.8c-.3 1.6-1.8 2.8-3.5 2.8h-16.7c-1.8 0-3.1-1.7-2.8-3.4l1.2-5.7h-6c-1.8 0-3.1-1.7-2.8-3.4l5.4-25.8c.3-1.6 1.8-2.8 3.5-2.8h16.7c1.8 0 3.1 1.6 2.8 3.4zm-11.9 7.4h8.6l-3.8 18c-.2.9-1 1.5-1.9 1.5h-8.6l3.8-18c.2-.9 1-1.5 1.9-1.5zm3 21.2h-9l-1.3 6.1c-.2.7.4 1.4 1.2 1.4h16.7c.9 0 1.7-.6 1.9-1.5l5.4-25.8c.2-.7-.4-1.4-1.2-1.4h-6.4l-3.9 18.4c-.3 1.6-1.8 2.8-3.4 2.8zm26-18.8h2.3c4.8 0 6.5-3.3 6.5-6 0-1.2-.4-2.3-1.3-3.2-.8-.8-2-1.3-3.2-1.3h-6.4l-3.4 15.4h4.4zm1.5-6.6h1.7c.3 0 .6.1.8.3s.3.5.3.8c0 .9-.8 1.7-1.7 1.7h-1.8zm14 11.9c5.2 0 8.2-4.9 8.2-9.7 0-3.6-2.5-6.2-6.4-6.2-5.3 0-8.2 4.9-8.2 9.7 0 3.6 2.5 6.2 6.4 6.2zm1.5-12.1c1.4 0 2.2 1.1 2.2 2.5 0 2.6-1.4 5.7-3.5 5.7-1.4 0-2.2-1.1-2.2-2.5.1-2.5 1.4-5.7 3.5-5.7zm12.8 6.5l1.6 5.3h4.8l-3.1-8.2 6.3-7.1h-5.3l-4.3 5.6 1.2-5.6h-4.4l-3.4 15.4h4.4l.8-3.7zm18.1 1.5l-.8 3.8h-9.7l3.4-15.4h9.7l-.9 3.8h-5.3l-.4 1.9h5.2l-.9 3.8h-5.2l-.4 2.1zm6.8-1.2l-1.1 5h-4.4l3.4-15.3h6.1c1.2-.1 2.4.4 3.3 1.2s1.4 2 1.4 3.3c0 2.3-1.2 4.3-3.3 5.3l1.1 5.5h-4.7l-.6-5zm3.1-6.6h-1.6l-.6 2.8h1.7c.4 0 .9-.1 1.2-.4s.5-.7.5-1.2c0-.3-.1-.6-.3-.8-.2-.3-.6-.4-.9-.4zm-53.6 22.3l3.8-6.8h5.8l-3.4 15.4h-4.3l1.8-8.3-4.6 8.3h-1.7l-1-8.3-1.8 8.3h-4.4l3.4-15.4h5.6zm7.5 8.6l7.9-15.4h5.3l1.1 15.4h-4.6v-2h-4l-.9 2zm9.7-10.9l-2.3 5.1h2.3zm7.3-4.5h10.7l-.9 3.8h-3.2l-2.5 11.6h-4.4l2.6-11.6h-3.2zm16.2 11.8c-1.3 0-2.2-1-2.2-2.5 0-2.6 1.4-5.7 3.5-5.7 1.2 0 1.9 1.1 2 2.4l4.1-1.1c-.4-2.4-2-5.2-5.9-5.2-5.2 0-8.2 4.7-8.2 9.7 0 3.8 2.7 6.2 6.4 6.2 2.6 0 4.9-1.5 6.1-3.8l-3.5-1.8c-.3 1-1.2 1.7-2.3 1.8zm17.3-6.2l1.2-5.5h4.4l-3.4 15.3h-4.4l1.3-6h-3.9l-1.3 6h-4.3l3.4-15.4h4.4l-1.2 5.5h3.8z" fill-rule="evenodd" fill="url(#A)"/></svg>