<?xml version="1.0" encoding="UTF-8" standalone="no"?>
<svg
   xmlns:dc="http://purl.org/dc/elements/1.1/"
   xmlns:cc="http://creativecommons.org/ns#"
   xmlns:rdf="http://www.w3.org/1999/02/22-rdf-syntax-ns#"
   xmlns:svg="http://www.w3.org/2000/svg"
   xmlns="http://www.w3.org/2000/svg"
   xmlns:sodipodi="http://sodipodi.sourceforge.net/DTD/sodipodi-0.dtd"
   xmlns:inkscape="http://www.inkscape.org/namespaces/inkscape"
   height="28.830473"
   width="15.171587"
   viewBox="0 0 15.169013 28.656496"
   version="1.1"
   id="svg4"
   sodipodi:docname="icon.svg"
   inkscape:version="0.92.3 (2405546, 2018-03-11)">
  <metadata
     id="metadata10">
    <rdf:RDF>
      <cc:Work
         rdf:about="">
        <dc:format>image/svg+xml</dc:format>
        <dc:type
           rdf:resource="http://purl.org/dc/dcmitype/StillImage" />
        <dc:title></dc:title>
      </cc:Work>
    </rdf:RDF>
  </metadata>
  <defs
     id="defs8" />
  <sodipodi:namedview
     pagecolor="#ffffff"
     bordercolor="#666666"
     borderopacity="1"
     objecttolerance="10"
     gridtolerance="10"
     guidetolerance="10"
     inkscape:pageopacity="0"
     inkscape:pageshadow="2"
     inkscape:window-width="2560"
     inkscape:window-height="1386"
     id="namedview6"
     showgrid="false"
     fit-margin-top="0"
     fit-margin-left="0"
     fit-margin-right="0"
     fit-margin-bottom="0"
     inkscape:zoom="12.677414"
     inkscape:cx="42.972637"
     inkscape:cy="-5.3028427"
     inkscape:window-x="0"
     inkscape:window-y="0"
     inkscape:window-maximized="1"
     inkscape:current-layer="svg4" />
  <path
     d="m 12.241502,15.231941 c -1.167477,-0.825432 -2.5083726,-1.372736 -3.92,-1.6 -1.73,-0.3 -2.8,-0.5 -3.52,-1 C 3.6929658,11.818016 3.0480476,10.516996 3.071502,9.1419408 2.75671,6.4836137 4.8132236,4.1378 7.4898806,4.1019918 c 2.6766574,-0.035808 4.7951874,2.2541522 4.5516214,4.919949 0.114606,1.0702882 -0.251701,2.1362422 -1,2.9100002 -0.42,0.48 -0.9,0.84 -1.5,1.14 1.08,0.3 2.1,0.78 3.05,1.44 0.36,-0.24 0.66,-0.48 0.95,-0.78 1.186456,-1.362537 1.764479,-3.150797 1.6,-4.9500002 -0.05241,-1.2931983 -0.430793,-2.5521775 -1.1,-3.66 -0.118803,-0.2524695 -0.289119,-0.4772868 -0.5,-0.66 l -0.8,-0.7 0.8,-1.2 c 0.54,-0.78 0.3,-1.86 -0.47,-2.4 -0.774411,-0.464985 -1.776212,-0.25591349 -2.3,0.48 l -0.8,1.2 c -0.6512453,-0.2306919 -1.3307734,-0.3719799 -2.02,-0.42 -4.1850717,-0.1643337 -7.72422925,3.0672648 -7.93999999,7.25 C -0.10886622,10.83418 0.72011582,12.941328 2.281502,14.441941 l -1.08,1.3 c -0.52999999,0.78 -0.29999999,1.86 0.48,2.4 0.78,0.54 1.85,0.3 2.4,-0.48 l 1,-1.4 c 0.9,0.18 2.5,0.42 2.5,0.42 2.7,0.3 4.72,2.33 4.42,5.03 -0.465917,3.56866 -4.7247392,5.1736 -7.43,2.8 -0.5347631,-0.506934 -1.3442673,-0.589117 -1.97,-0.2 -0.7142209,0.474709 -0.9030634,1.441403 -0.42,2.15 0.06,0.12 0.12,0.18 0.24,0.24 3.0564673,2.867648 7.866168,2.687846 10.7,-0.4 2.828301,-3.071088 2.6497,-7.848651 -0.4,-10.7 -0.12,-0.12 -0.3,-0.24 -0.42,-0.36 z"
     id="path2"
     inkscape:connector-curvature="0"
     style="fill:#6b6fff"
     sodipodi:nodetypes="ccccscccccccccccccccccscccccccccccc" />
</svg>
