<?xml version="1.0" encoding="UTF-8"?>
<svg class="icon" width="378.88" height="496.64" version="1.1" viewBox="0 0 378.88002 993.28001" xmlns="http://www.w3.org/2000/svg" xmlns:cc="http://creativecommons.org/ns#" xmlns:dc="http://purl.org/dc/elements/1.1/" xmlns:rdf="http://www.w3.org/1999/02/22-rdf-syntax-ns#">
<metadata>
<rdf:RDF>
<cc:Work rdf:about="">
<dc:format>image/svg+xml</dc:format>
<dc:type rdf:resource="http://purl.org/dc/dcmitype/StillImage"/>
<dc:title/>
</cc:Work>
</rdf:RDF>
</metadata>
<path d="m-189.44 993.28h522.24s61.44 0 81.92-20.48v-20.48h-81.92v-20.48h153.6s20.48-10.24 20.48-30.72h-174.08v-30.72h194.56s10.24 0 10.24-30.72h-573.44v-30.72h593.92v-30.72h-593.92v-30.72h604.16v-30.72h-604.16v-30.72h604.16v-30.72h-604.16v-30.72h593.92s10.24-30.72-20.48-30.72h-573.44v-30.72h563.2s0-30.72-20.48-30.72h-225.28v-20.48h174.08s0-30.72-30.72-30.72h-143.36v-30.72h81.92s40.96-10.24 61.44-30.72h-460.8v-30.72h501.76s20.48-20.48 20.48-30.72h-522.24v-30.72h552.96s10.24-10.24 10.24-30.72h-563.2v-30.72h563.2v-30.72h-563.2v-30.72h563.2v-20.48h-563.2v-30.72h552.96s0-30.72-10.24-30.72h-174.08v-30.72h163.84s0-30.72-20.48-30.72h-133.12v-30.72h81.92s0-30.72-61.44-30.72h-552.96z" fill="#dea014"/>
</svg>
