<svg xmlns="http://www.w3.org/2000/svg" viewBox="0 0 192.756 192.756" fill-rule="evenodd" xmlns:v="https://vecta.io/nano"><path fill="#fff" d="M0 0h192.756v192.756H0V0z"/><path fill="#fff22d" d="M21.85 15.406h148.897v164.782H21.85V15.406z"/><path d="M96.134 116.8l46.25 51.062 18.098-20.035L114.2 96.64l9.02-9.9.006-19.916 6.436-7.122.01 16.526 6.285 6.852 22.578-25.014 6.104 6.67c0-4.297-1.145-19.102-11.885-30.7-12.025-12.98-24.066-5.393-28.215-.8l-21.8 24.133 5.42 5.997-12.014 13.256-12-13.258 5.42-5.997-21.8-24.133c-4.148-4.592-16.186-12.178-28.216.8-10.74 11.59-11.64 26.398-11.64 30.7l5.86-6.68L56.337 83.07l6.3-6.932.004-16.446 6.436 7.122-.016 19.87 9.042 9.957-45.83 50.68 18.077 19.975L96.134 116.8zM19.562 11.34l153.627.017.004 170.058-153.616-.055-.015-170.02zm4.118 165.317L23.665 16.04l145.2.017-.12 160.654-145.057-.055z"/></svg>