<svg xmlns="http://www.w3.org/2000/svg" viewBox="0 0 75.228 85.318" width="76" height="86"><linearGradient id="A" gradientUnits="userSpaceOnUse" x1="2.482" y1="77.793" x2="73.968" y2="6.307"><stop offset="0" stop-color="#f3904a"/><stop offset=".999" stop-color="#aa437f"/></linearGradient><path d="M72.726 19.498L40.118.67a5.007 5.007 0 0 0-5.006 0L2.503 19.498A5.006 5.006 0 0 0 0 23.834v37.652c0 1.8.954 3.442 2.503 4.336L35.1 84.648a5.007 5.007 0 0 0 5.006 0l32.61-18.827a5.006 5.006 0 0 0 2.503-4.336v-37.65a5.003 5.003 0 0 0-2.502-4.336zm-56.488 13.75V55l-11.23 6.484v-37.65L37.615 5.008v13.007L18.742 28.9a5.007 5.007 0 0 0-2.504 4.336zm18.873 5.077a5.006 5.006 0 0 0-2.503 4.336v21.68L21.245 70.9V33.247L53.853 14.42v13.083L35.1 38.324zm35.1 23.162L37.615 80.31V42.66l32.608-18.826-.001 37.652z" fill="url(#A)"/></svg>