<svg xmlns="http://www.w3.org/2000/svg" viewBox="0 0 332.881 85.318"><g fill="#2d2d48"><path d="M113.29 21.183c6.547.16 11.477 1.997 14.79 5.51s4.97 8.847 4.97 15.995-1.656 12.482-4.97 15.995-8.244 5.352-14.79 5.513H98.41V21.183h14.88zm-2.047 39.52c3.09 0 5.752-.33 7.982-.994s4.067-1.716 5.512-3.162 2.51-3.314 3.193-5.603 1.023-5.04 1.023-8.254-.34-5.964-1.023-8.253-1.748-4.157-3.193-5.604-3.284-2.5-5.512-3.162-4.89-.994-7.982-.994h-8.737v36.026h8.737zm27.29-39.52l9.76 37.653h.12l10.482-37.653h5.12l10.543 37.653h.12l9.82-37.653h4.096l-11.868 43.014H172.4L161.486 25.7h-.12L150.52 64.197h-4.458l-11.928-43.014h4.398zm52.354 13.012c.843-2.7 2.107-5.07 3.795-7.14s3.805-3.714 6.357-4.94 5.51-1.837 8.885-1.837 6.326.613 8.856 1.837 4.64 2.873 6.325 4.94 2.952 4.45 3.796 7.14 1.265 5.523 1.265 8.494-.422 5.806-1.265 8.495-2.11 5.06-3.796 7.108-3.795 3.686-6.325 4.9-5.482 1.837-8.856 1.837-6.337-.612-8.885-1.837-4.67-2.86-6.357-4.9-2.952-4.418-3.795-7.108-1.265-5.522-1.265-8.495.42-5.802 1.265-8.494zm3.765 15.392c.622 2.27 1.586 4.298 2.892 6.085s2.98 3.224 5.03 4.31 4.498 1.626 7.35 1.626 5.292-.543 7.32-1.626 3.695-2.52 5-4.31 2.27-3.815 2.894-6.085a25.97 25.97 0 0 0 .932-6.898 25.86 25.86 0 0 0-.932-6.927c-.623-2.25-1.587-4.267-2.894-6.055s-2.972-3.223-5-4.307-4.468-1.626-7.32-1.626-5.3.54-7.35 1.626-3.726 2.52-5.03 4.307-2.27 3.806-2.892 6.055a25.787 25.787 0 0 0-.934 6.927 25.89 25.89 0 0 0 .934 6.898zm44.8-28.404v39.52h24.098v3.495h-28.194V21.183h4.096zm32.35 0v39.52h24.098v3.495h-28.194V21.183h4.096z"/><path d="M316.014 21.183l16.867 43.014h-4.398l-5.242-13.374h-19.58l-5.18 13.374h-4.337l17.3-43.014h4.58zm5.842 26.145l-8.313-22.05-8.615 22.05h16.928z"/></g><linearGradient id="A" gradientUnits="userSpaceOnUse" x1="2.482" y1="77.792" x2="73.968" y2="6.306"><stop offset="0" stop-color="#f3904a"/><stop offset=".999" stop-color="#aa437f"/></linearGradient><path d="M72.726 19.497L40.118.67a5.007 5.007 0 0 0-5.006 0L2.503 19.497A5.006 5.006 0 0 0 0 23.833v37.652c0 1.79.954 3.442 2.503 4.336L35.11 84.647a5.007 5.007 0 0 0 5.006 0L72.725 65.82a5.006 5.006 0 0 0 2.503-4.336V23.833a5.003 5.003 0 0 0-2.502-4.336zm-56.488 13.75V55l-11.23 6.484V23.833L37.615 5.007v13.007L18.742 28.9a5.007 5.007 0 0 0-2.504 4.336zm18.873 5.077a5.006 5.006 0 0 0-2.503 4.336v21.68l-11.363 6.56V33.246L53.853 14.42v13.083L35.11 38.323zm35.11 23.162L37.615 80.31V42.66l32.608-18.826-.001 37.652z" fill="url(#A)"/></svg>