<svg xmlns="http://www.w3.org/2000/svg" fill="#f0b90b" width="5092.011" height="1024" xmlns:v="https://vecta.io/nano"><path d="M230.997 512L116.053 626.987 0 512l116.011-116.011zM512 230.997l197.973 197.973 116.053-115.968L512 0 197.973 314.027l116.053 115.968zm395.989 164.992L793.003 512l116.011 116.011L1024.981 512zM512 793.003L314.027 594.005 197.973 710.016 512 1024l314.027-314.027-116.053-115.968zm0-165.973l116.011-116.053L512 396.032 395.989 512 512 626.987zm1220.011 11.947v-1.963c0-75.008-40.021-113.024-105.003-138.027 39.979-21.973 73.984-58.027 73.984-121.003v-1.963c0-88.021-70.997-145.024-185.003-145.024h-260.992v561.024h267.008c126.976.981 210.005-51.029 210.005-153.003zm-154.027-239.957c0 41.984-34.005 58.965-89.003 58.965h-113.963V338.987h121.984c52.011 0 80.981 20.992 80.981 58.027zm31.019 224c0 41.984-32.981 61.013-87.04 61.013h-146.944V560.981h142.976c63.019 0 91.008 23.04 91.008 61.013zm381.995 169.984V230.997h-123.989v561.024h123.989zm664.021 0V230.997h-122.027v346.027l-262.997-346.027h-114.005v561.024h122.027V436.011l272 356.992h104.96zm683.947 0l-240.939-564.992h-113.963L2743.04 793.003h127.019l50.987-125.995h237.013l50.987 125.995h130.005zm-224.981-235.008h-148.992L3040 376.021zm814.037 235.008V230.997h-122.027v346.027l-262.997-346.027h-114.005v561.024h122.027V436.011l272 356.992h104.96zm636.971-91.008l-78.976-78.976c-44.032 39.979-83.029 65.963-148.011 65.963-96 0-162.987-80-162.987-176v-2.987c0-96 67.968-174.976 162.987-174.976 55.979 0 100.011 23.979 144 62.976l78.976-91.008c-51.968-50.987-114.987-86.997-220.971-86.997-171.989 0-292.992 130.987-292.992 290.005V512c0 160.981 122.965 288.981 288 288.981 107.989 1.024 171.989-36.992 229.973-98.987zm527.019 91.008V683.008h-305.024V564.992h265.003V454.997h-265.003V340.992H5088V230.997h-422.997v561.024h427.008z"/></svg>