<?xml version="1.0" encoding="UTF-8"?>
<svg width="173.46" height="208.83" enable-background="new 0 0 530 270" version="1.1" viewBox="0 0 173.45799 208.827" xml:space="preserve" xmlns="http://www.w3.org/2000/svg" xmlns:cc="http://creativecommons.org/ns#" xmlns:dc="http://purl.org/dc/elements/1.1/" xmlns:rdf="http://www.w3.org/1999/02/22-rdf-syntax-ns#"><metadata><rdf:RDF><cc:Work rdf:about=""><dc:format>image/svg+xml</dc:format><dc:type rdf:resource="http://purl.org/dc/dcmitype/StillImage"/><dc:title/></cc:Work></rdf:RDF></metadata>
<polygon transform="translate(-352.46 -3.694)" points="423.96 117.73 439.19 3.694 454.42 117.73 525.91 110.05 463.35 146.21 494.05 212.52 439.19 164.02 384.34 212.52 415.02 146.21 352.46 110.05"/><polygon transform="translate(-352.46 -3.694)" points="424.87 118.87 439.19 11.604 453.51 118.87 521.11 111.62 462 145.78 491 208.43 439.19 162.63 387.38 208.43 416.38 145.78 357.27 111.62" fill="#e63312"/><polygon transform="translate(-352.46 -3.694)" points="462 145.78 453.51 118.87 424.87 118.87 416.41 145.81 439.19 162.63" clip-rule="evenodd" fill="#0075bf" fill-rule="evenodd"/><path d="m86.699 153.18c-10.18 0-18.468-8.288-18.468-18.482s8.288-18.473 18.468-18.473c10.199 0 18.487 8.279 18.487 18.473s-8.288 18.482-18.487 18.482z" clip-rule="evenodd" fill-rule="evenodd"/><path d="m86.699 152.13c-9.613 0-17.428-7.819-17.428-17.432 0-9.618 7.814-17.432 17.428-17.432 9.627 0 17.437 7.814 17.437 17.432 0 9.613-7.81 17.432-17.437 17.432z" clip-rule="evenodd" fill="#fff" fill-rule="evenodd"/><path d="m86.063 122.72-0.031 0.086 0.062 0.101-0.252-0.081zm0.176 0 0.166 0.07-0.191 0.117 0.055-0.101zm-0.388 0.238 0.293 0.05 0.464-0.243-0.368-0.48-0.298 0.067-0.188 0.216 0.515-0.132 0.183 0.248-0.156-0.101-0.551 0.183-0.066-0.02zm1.429-0.238-0.045 0.086 0.074 0.101-0.252-0.081zm0.171 0 0.026 0.01v-0.01l0.096 0.045 0.035 0.024-0.191 0.117 0.065-0.101zm-0.884 0.916 0.105 5e-3 0.355 0.034-0.036-0.546 0.065-0.222 0.601-0.036 0.122-0.065 0.031-0.041 0.01-0.072-0.086 0.026-0.419-0.106-0.288 0.08 0.683-0.14-0.103-0.182-0.687 0.096-0.071 0.712 0.061 0.218-0.102 0.146zm8.138 22.269-0.374-0.411-0.132-0.091-0.142-0.07-0.53-0.156-0.196-0.041-0.229-0.105-0.865-0.051-1.258-0.142-0.581-0.122-0.171-0.065-0.416 0.026-0.156 0.08-0.247-0.102-0.061 0.224 0.161 0.13 0.293-0.045 1.001 0.117c0.769 0.115 1.749 0.055 2.427 0.271l0.349 0.097 0.782 0.456 0.557 0.394 0.339-0.137zm4.635-0.942 0.146 0.259-0.103 0.07-0.313-0.284-0.07 0.051 0.202 0.517-0.324 0.132 0.067-0.142-0.401-0.202 0.103 0.368-0.354-5e-3h0.142l0.055-0.061-0.135-0.137-0.163-0.132-0.561-0.404c-0.521-0.03-1.091-0.096-1.562-0.142l-0.39-0.298-0.817-0.131-0.299-0.172 0.222-0.243 0.76-0.586c0.524 0.101 0.898 0.319 1.322 0.557l0.324 0.156 0.354 0.146c0.541 0.161 1.293 0.015 1.709 0.277l0.271 0.42-0.212-0.242-0.11 0.096zm-1.442 0.535-0.363-0.05-0.606-0.106-0.596-0.101 0.546-0.046 1.091 0.207 0.029 0.132zm-1.718 0.036 0.188 0.466-0.202 0.207-0.065-0.283-0.06 0.076-0.146-0.096 0.074 0.257-0.373 0.349 0.202-0.151-0.146-0.257-0.066 0.084-0.263-0.12 0.051 0.293-0.344 0.08-0.485-0.161-0.147-0.238-0.276-0.146-0.117-0.146-0.298-0.146-1.041-0.263c-0.611-0.06-1.274-0.029-1.87-0.142l-0.606-0.115-0.617 0.024-0.322-0.309-0.324-1.183-0.041-0.555 0.091-0.491 0.061-0.545 0.283-0.748 0.188 0.192 0.46 0.262 0.146 0.172 0.252 1.163 0.056 0.142-0.551 0.151 0.495 0.036 0.541 0.14 0.324 0.278 0.768 0.111 0.819 0.101 1.081 0.375 0.173 0.091 0.136 0.087 0.42 0.084 0.409 0.112 0.408 0.187 0.143 0.101 0.283 0.017 0.257 0.137 0.304 0.469zm-6.099 0.627-0.623-0.334-0.242-0.024 0.207 0.102 0.461 0.192 0.14 0.171-0.337-0.146-0.168-0.121-0.192-0.011-0.181-0.056 0.404 0.212-0.026 0.081 0.097 0.086v-0.086l0.055 0.269-0.459-0.132-0.616-0.02-0.344-0.259-0.476-0.197 0.284-0.5 0.637-0.137 0.308 0.101 0.166 0.117 0.151 0.157 0.507 0.12 0.111 0.081-0.046 0.077-0.097-0.077-0.485-0.12 0.097 0.056 0.601 0.257zm-2.558-1.663c5e-3 -1.076 0.05-2.178 0.085-3.27l0.021-0.016 0.01 0.011 0.031 0.181 0.181 1.351c0.082 0.52 0.224 0.991 0.243 1.516l-0.358 0.137zm0.996-0.555-0.283 0.061c-0.183-0.798-0.354-1.704-0.45-2.618-0.091-0.935-0.177-1.925-0.137-2.841l0.202-0.029 0.096 0.682c0.017 0.718 0.067 1.476 0.118 2.148 0.045 0.48 0.101 0.949 0.171 1.36zm-0.244-2.866c-0.091-0.778-0.069-1.639-0.03-2.427l0.011-0.318 0.162-0.495 0.221-0.161 0.197-0.188 0.117-0.349 0.01 0.01c0.07 1.638-0.172 2.796-0.334 4.276l-0.11 1.243c-0.162-0.465-0.183-1.03-0.244-1.591zm-1.146-2.77-0.38 0.435-0.191 0.207c0.394-1.151 0.92-2.238 1.264-3.467 0.171-0.601 0.354-1.207 0.52-1.851 0.168-0.656 0.243-1.349 0.259-2.116l0.015-0.016 0.015 5e-3 0.207 0.349 0.319 1.324 0.106 0.976 0.035 0.517 0.02 0.529-0.283 0.557-0.303 0.501-0.688 0.93zm0.248 1.052c0.02 0.895-0.051 1.753-0.067 2.643-0.024 1.031-0.115 2.043-0.171 2.992l-0.581-0.146-0.688-0.061c0.329-1.137 0.728-2.29 0.98-3.523 0.142-0.747 0.303-1.49 0.459-2.233l0.026-0.024zm-1.623 6.216 0.233-0.567h0.02l-0.207 0.577zm0.976 0.51-0.264 0.49-0.11 0.041-0.465 0.363 0.212-0.106-0.223-0.11 0.273-0.358v-0.097l-0.151 0.111-0.188 0.217-0.166 0.103 0.252-0.461-0.03-0.051-0.248 0.233-0.137 0.358-0.101-0.02v-0.082l0.062-0.051 0.156-0.435-0.252 0.229-0.067 0.156 0.021-0.349 0.142-0.171-0.173 0.101-0.086 0.101 0.016-0.152 0.243-0.162 0.135-0.142 0.604-0.029 0.332 0.046 0.283 0.08zm-1.178 0.793 0.051 0.021 0.126-0.046zm-0.894-0.812-1.173 0.056-0.279-1.173 1.255 0.11 0.115 0.178 0.288 0.212 0.167 0.178 0.105 0.081 0.214 0.161-0.229 0.171zm-1.072 0.468-0.021-0.074 0.132-0.051 1.203-0.142 0.122 0.03zm-0.591 0.168-0.87 0.146-0.414-0.016-0.581-0.102-0.224-0.156-0.12-0.414 0.02-0.04v-0.087l0.071-0.161-0.11-0.207-0.294 0.126-0.021 0.05-0.087 0.077-0.166 0.035-0.272-0.05-0.439-0.456-0.066-0.368 0.081-0.313 0.101-0.329-0.132-0.091-0.069-0.142-0.173 0.056-0.146 0.435 0.04 0.678 0.143 0.317 0.313 0.349 0.025 0.017 0.39 0.322 0.317 0.163 0.445 0.227 0.344 0.156 1.249 0.512 0.47 0.276 0.232 0.248h-0.021l-0.263-0.092 0.168 0.214v0.051l0.095 0.064-0.191-0.13-0.142-0.117 0.02 0.101-0.086-0.079 0.086 0.181-0.171-0.121v0.111l-0.071-0.056 0.025 0.161 0.07 0.173 0.046 0.738-0.07-0.683-0.151-0.365c-0.324-0.483-0.906-0.777-1.543-0.954l-0.52-0.162-1.173-0.444-0.48-0.449-0.268-0.36-0.127-0.339-0.029-0.322-0.021-0.44 0.298-0.91 0.42-0.565 0.51-0.567 0.531-0.716 0.409-0.243c0.404-0.217 0.905-0.395 1.444-0.444 0.27 0.966 0.502 1.98 0.77 2.956l0.071 0.426-0.749-0.087 0.188 0.298-0.087 0.036-0.231 0.121-0.096 0.02-0.192 0.208 0.207 0.166 0.293-0.222 0.784-0.146 0.308 1.258h-0.829l-0.436 0.036 0.063 0.115-0.293-0.015 0.423 0.404h0.097l1.071-0.197zm-0.258 1.375 0.197 0.349zm-1.285-10.179c-0.207-0.89-0.404-1.784-0.646-2.663l-0.167-0.662-0.156-0.667c-0.293-1.335-0.646-2.669-0.961-3.998l-5e-3 -0.031 0.637 0.112 0.258 0.322 0.091 0.233 0.375-0.071c0.783 0.329 1.485 0.718 2.426 0.875 0.05 0.935-0.082 1.92-0.097 2.957l-0.06 1.012c-0.021 0.637-0.046 1.289-0.138 1.931-0.06 0.469-0.11 0.939-0.161 1.395l-0.021 0.511 0.021 0.47 0.102 0.096 0.757 0.409v0.192c-0.545 0.051-1.05 0.156-1.586 0.228-0.223-0.882-0.456-1.757-0.669-2.651zm-2.082-8.527 0.151-0.161-0.08-0.192 0.192 0.192 0.241 0.176 0.173-0.142-0.253-0.075-0.232-0.354-0.07-0.238-0.091-0.313v-0.026h0.02l0.403 0.212 0.485 0.718 0.289 0.187-0.289 0.52-0.308-0.212-0.571-0.041zm-0.322-0.141-0.127 0.156-0.029-0.332 0.55 0.135zm-0.36-0.394h0.531l0.137 0.161-0.592 0.072zm-0.025-0.339 0.192-0.055 0.435 0.151 0.197 0.146-0.158 0.05-0.454-0.084-0.188 0.044zm0.729 0.016-0.214-0.112-0.546 0.041c-0.101-0.486 0.855-0.268 0.76 0.071zm-0.638-0.728 0.102 0.091 0.267 0.236-0.349-0.051zm2.022 1.51 0.074-0.01-0.084 0.511-0.305 0.39-0.182-0.062 0.152-0.166zm0.267 0.137h0.087l-0.051 0.233-0.102 0.183-0.081 0.161-0.096 0.111 0.016 0.06-0.208 0.163-0.046-0.096zm0.127 0.612 0.041-0.117 0.061-0.13 0.064-0.172 1.38 0.303 0.279 0.096 0.201 0.178 0.156-5e-3 -0.242-0.38 0.036-0.192h0.216l0.76 0.288-0.344 0.844-0.344 0.365-0.439-0.072-0.426-0.096-0.368-0.137-1.173-0.491zm2.077-0.749 1.021 0.319-0.026 0.065-1.036-0.308zm0.212-0.964 0.247-1.298 0.314-1.012 0.182-0.222 0.066-0.103 0.308-0.241h0.061l0.404-0.187h0.035l0.097 0.925 0.12 0.454-0.676 0.479-0.112-0.212-0.102 0.212 0.072 0.243-5e-3 0.603-0.097 0.642v0.257l-0.99-0.228zm1.846-1.462 0.227 0.279-0.363 0.317h-0.092l0.106-0.217-0.024-0.278zm0.353-1.854 0.01 0.015 0.132 0.904 0.091 0.298-0.314 0.202c-0.161-0.344-0.206-0.808-0.206-1.303zm-0.065-2.643 0.106-0.375 0.101-0.162 0.854-0.5 0.026-0.218 0.05 0.218 0.616 0.339 0.42 0.611 0.056 0.365 0.131 0.337c0 0.557-0.313 1.189-0.672 1.492l-0.702 0.217-0.607-0.323-0.358-0.497-0.228-0.883zm2.101 2.88 0.071-0.277 0.277 0.116zm-0.216-0.592 0.029-0.181 0.017-0.188 0.085 0.601-0.191 0.5-1.232 0.692-0.255-0.858-0.029-0.375 0.061-0.257 0.224 0.192 0.605 0.284 0.268-0.036 0.31-0.02 0.125-0.238zm0.848 1.037-0.526 0.445-1.137 0.87-0.242 0.238-0.236 0.435 0.313-0.228 0.899-0.824 0.064-0.05v0.011l0.582-0.451 0.329-0.241 0.056-0.036h-0.015l0.308-0.183 0.202-0.061 0.403-0.036-0.373 0.218-0.525 0.368-0.172 0.146-0.627 0.652-0.319 0.399-0.58 0.814c-0.374 0.556-0.732 1.127-1.213 1.592l-0.556-0.024 0.227-0.026 0.379-0.373 0.133-0.298-0.253 0.217-0.37 0.137-0.525-0.586 0.025-0.637 0.334-0.375 0.676-0.515 0.214-0.183 0.474-0.317 1.188-0.683v0.024l0.541-0.272h-0.029zm-0.051 4.883v-0.153l-0.02-0.156 0.02-0.084v-0.021l0.031 0.015 0.029 0.314-0.029 0.188zm-2.046 8.308-0.309 0.551-0.344 0.476-0.757 0.916-0.646 0.834-0.102 0.094-0.062-0.454c-0.051-0.454-0.061-1-0.051-1.485l0.253-0.834 0.103-0.258 0.579-1.214 0.541-0.879c0.365-0.57 0.75-1.143 1.082-1.768 0.252-0.476 0.456-0.956 0.697-1.438l0.48-0.939 0.454-0.637 0.058-0.025 5e-3 0.318-0.077 0.31c-0.252 1.015-0.561 1.971-0.889 2.926l-0.207 0.556-0.188 0.562-0.142 0.231-0.131 0.229-0.242 0.476-0.183 0.267-0.283 0.592 0.01 0.319 0.273-0.243 0.183-0.329c0.373-0.692 0.666-1.49 0.954-2.224 0.299-0.788 0.531-1.586 0.763-2.411l0.168-0.627 0.074-0.188-0.074 0.743-0.156 0.683-0.354 1.334c-0.25 0.865-0.558 1.673-0.921 2.433l-0.273 0.569zm-1.936 4.161 0.212-0.39 0.218-0.375 0.724-1.056 0.263-0.344 0.384-0.506 0.131-0.162-0.024 0.258-0.349 1.239-0.097 0.445 0.197-0.259 0.373-1.011 0.349-1.031 0.142-0.334 0.146-0.151 0.012 5e-3 -0.081 0.652-0.192 0.985-0.288 1.107-0.152 0.536c-0.177 0.49-0.368 1.02-0.56 1.541l-0.106 0.247-0.178 0.289-0.262-0.021-0.779-0.354-0.086-0.556zm-0.556-2.174 0.061 1.248-1.056-0.01-0.112 0.09 0.142 0.293 0.173 0.062 0.389-0.035 0.172 0.086 0.172 0.065 0.282 0.324 0.142 0.98 0.183 0.758-0.161-0.021-0.541-0.044-0.456-0.031c-0.313-1.173-0.602-2.36-0.895-3.543l0.476-0.132 0.829-0.11zm1.992-9.982-0.136-0.238 0.065-0.308zm0.015-0.769-0.298 0.062 0.176-0.163 0.197-0.151 0.395-0.162 0.03 0.015zm0.4 0.693 0.034-0.455 0.461-0.262 0.666 0.262-0.217 0.697zm-0.839 4.579-0.273 0.359-0.385 0.874c-0.263 0.653-0.515 1.364-0.777 2.032l-0.091 0.207-0.031-0.293c-0.02-0.526-0.02-1.072 0.01-1.572l0.067-0.571-0.012-0.434 0.076-0.355 0.092-0.344 0.06-0.161c0.162-0.5 0.431-0.914 0.692-1.314l0.779-0.974 1.142-1.043 0.714-0.596 0.19-0.217-0.075 0.257-0.454 0.602-0.865 1.239-0.39 0.676c-0.394 0.658-0.732 1.37-1.137 2.048l-0.313 0.733 0.137-0.163c0.529-0.895 1.056-1.834 1.621-2.714 0.283-0.469 0.591-0.935 0.956-1.363l0.697-1.031 0.217-0.36 0.122 0.279-0.102 0.238-0.303 0.712-0.456 0.87c-0.292 0.632-0.636 1.183-0.945 1.743l-0.479 0.864c-0.451 0.784-0.891 1.563-1.319 2.37l-0.156 0.162 0.101-0.258 0.575-1.269 0.324-0.874zm2.284-5.686 0.334-0.122h0.023l6e-3 0.026-0.07 0.081-0.253 0.455-0.324 0.036-1.02-0.086-0.324 0.101 0.224-0.212 0.545-0.305 0.299-0.07 0.288 0.202 0.145-0.055v5e-3zm-2.527 1.234v-0.627l0.015 0.01zm-0.911-0.122 0.012-0.202 0.161-0.373 0.05 0.373 0.07 0.591-0.061 0.389-0.201 0.339zm0.164 1.299 0.146-0.293 0.337-0.555 0.243-0.279 0.814 0.086 0.288 0.015 0.262 0.142 0.395 0.041-0.419 0.428-0.42 0.411-0.788 0.895-0.712 0.959-0.48 0.8-0.156 0.227c-0.017-0.52 0.05-1.046 0.125-1.536l0.183-0.678zm-0.88 5.291-0.051 1.278-0.01 0.512-0.052 0.47-0.197-0.051c0.091-0.824 0.178-1.652 0.278-2.481l0.02 5e-3zm0.18-0.464-0.263-0.056c0.021-0.961 0-1.887 0.051-2.699l0.02-0.678 0.026-0.632c0.026-0.505 0.026-0.996 0.056-1.537l0.334-0.216 5e-3 0.01 0.03 0.769 0.046 0.777-0.076 0.273-0.065 0.243-0.072 0.394v0.097l-0.02 0.06c-0.132 0.885-0.06 2.063-0.072 3.195zm5.908-10.892 0.077 0.202 0.191 0.98 0.097 0.505 0.105 0.476-0.192 0.034-1.173 0.163 0.01-0.057-0.024-0.065-0.015-0.221-0.035-0.209-0.188-0.166v0.166l0.036 0.567-0.017 0.738-0.176 0.02-0.248 0.086-0.364 0.036-0.363-0.096-0.294-0.146-0.615 0.142 0.433-0.759 0.692-0.96v0.01l0.319-0.375 0.426-0.45 0.181-0.115-0.344 0.606-0.161 0.163-0.146 0.116v0.045l0.267 0.106 0.305-0.449c0.272-0.471 0.616-0.996 1.02-1.264zm0.603 2.587-0.273 0.036-0.051-0.228 0.229-0.051zm0.061 0.127 0.07 0.051-0.313 0.111-0.991 0.439-0.223 0.096 0.11-0.142 0.178-0.096 0.743-0.334 0.415-0.125zm0.106 2.436c0.237 0.647 0.398 1.315 0.581 2.032l0.07 0.359-0.445 0.207-0.242-0.02-0.146-0.288c-0.222-0.48-0.697-1.911-0.895-2.416l-0.101-0.557v-0.635l0.858-0.188 0.091 0.419 0.031 0.264 0.03 0.277 0.039 0.223zm0.824 2.415h0.034l-0.106 0.238-0.767 0.202-0.229-0.156zm0.074 0.265 0.168 0.13-0.228 0.086-0.152 0.097-0.105 0.01-0.127 0.056h-0.115l-0.128 0.066-0.211 0.061-0.157-0.183 0.344-0.065 0.328-0.076zm0.203 0.338 1.158 0.399 0.678 0.258 0.116 0.074 0.196 0.113 0.061 0.055-0.161-0.066c-0.339-0.166-0.678-0.373-1.146-0.434l0.212 0.075 1.105 0.566 0.146 0.136-0.192-0.039c-0.368-0.259-0.731-0.563-1.298-0.642l0.161 0.125 0.729 0.314 0.207 0.14 0.218 0.147-0.405-0.075-0.304-0.156-0.716-0.188-0.38-0.056-0.322-0.105 0.19 0.14 0.057 0.051 0.534 0.066 0.344 0.156-0.575 0.02-0.737-0.02-0.512-0.211-0.065-0.163v-0.212l-0.05-0.151 0.115-0.036 0.066-0.034h0.136l0.192-0.081zm1.764 0.489 0.262 0.066 0.214 0.087 0.281 0.317-0.05 0.344-0.373 0.212-0.142 0.076-0.207 0.121 0.086-0.161 0.116-0.133 0.49-0.257-0.117-0.183-0.056-0.101-0.272-0.187-0.132-0.086-0.115-0.11zm0.757 0.163 0.334 0.202 0.344 0.024 0.202 0.196 0.067 0.128-0.128 0.05-0.339 0.272-0.439 0.203-0.293-0.021-0.272 5e-3 0.272-0.116 0.435-0.49-0.183-0.439zm1.089 0.767 0.349 0.197 0.444 1.392 0.11 0.281 0.061 1.063-0.02 1.142c0.01 0.623 0.151 1.188 0.121 1.851l-0.02 0.248-0.061-0.132-0.132-0.455 0.02-0.374-0.161-1.006-0.132-0.213 0.066-0.166-0.209-1.102 0.026-0.456-0.395-1.065 0.263-0.36-5e-3 -0.51-0.13-0.267-0.548 0.065-0.08 0.096-0.178 0.081zm-1.158 7.941 0.146-0.688-0.051-0.677 0.308-0.688 0.197-0.506-0.02-0.334-0.137-0.338 0.105-0.279 0.168-0.192 0.046-0.11 0.115-0.329 0.01-0.02 0.031 0.015-0.021 0.8 0.063 0.131 0.056 0.127 0.242 0.394v0.304l-0.071 0.216 0.021 0.406-0.157 0.298v0.444l-0.046 0.272-0.212 0.572-0.146 0.101-0.161 0.096v-0.196l0.183-0.94-0.087 0.524-0.178 0.197-0.045 0.101-0.085 0.521-0.699 0.197zm-1.38-1.91-0.097 0.247-0.03-0.692-0.141-0.713 0.131 0.223 0.05 0.111 0.036 0.132 0.092 0.166-0.077 0.319zm-0.712 1.066 0.105-0.515v-0.38l-0.252-1.137 0.039 0.122 0.137-0.051-0.121-1.026 0.197 0.188 0.106 0.332-0.051 0.243 0.222 0.511 0.096 0.986 0.259 0.389 0.07 0.136-0.132 0.865-0.242 0.146-0.121 0.192-0.015-0.294-0.076-0.178zm-0.122 0.434 0.04-0.024 0.167 0.575-0.268-0.029zm-0.253-0.758 0.056-0.834-0.137-0.505-0.298-0.698 0.298-0.854 0.076-0.408 5e-3 -0.021 0.046 0.137 0.075 0.253 0.05 0.117-0.06 0.313 0.04 0.404-0.04 0.242-0.041 0.587 0.101 0.319 0.097 0.646-0.126 0.621zm-0.798-0.314v-0.317l-0.046-0.137 0.056-0.125-0.298-0.704c-0.217-0.303-0.37-0.616-0.279-1.197l0.017-0.02 0.368 0.454 0.105 0.774 0.178 0.281 0.171 0.283-0.11 0.414 0.076 0.961 0.248 0.274-0.214 0.24-0.308-0.413-0.096-0.358zm0.262-6.498-0.055 0.222-0.166 0.303-0.467 0.358-0.02 0.339 0.029 0.178-0.115 0.47-0.288 0.405-0.092 0.13 0.051 0.633 0.142 0.151 5e-3 0.178 0.021 0.176-0.087 0.476v0.303l0.279 0.906 0.096 0.186-0.435-0.368-0.087-0.724-0.191-0.737-0.051-0.395 0.045-0.419 0.229-1.142 0.268-0.668 0.757-0.985 0.163-0.051zm0.233 1.025 0.02-0.08 0.01 5e-3 -0.202 0.651v-0.137zm-0.921 1.649 0.173-0.314 0.156-0.662v-0.02l0.02 4e-3c0.173 0.58-0.181 1.111-0.171 1.611l0.126 0.507 0.055 0.399-0.286-0.39-0.102-0.173zm0.243-1.695 0.233-0.097-0.128 0.658-0.115-0.071zm-0.509 1.396h0.024l0.38-0.773 0.055 0.041c-0.01 0.551-0.439 0.793-0.495 1.288l0.01-0.444 5e-3 0.02 0.031-0.061zm0.944-0.197-0.04 0.49-0.183 0.444v0.092l-0.029 0.101 0.01 0.479-0.087-0.844 0.163-0.596 0.061-1.168 0.268-0.49 0.172-0.085-0.03-0.031 1.021-0.242-0.445 0.03-0.839 0.688-0.021 0.029-0.084 0.426zm3.498-0.545-0.146 1.096-0.358 0.546 0.02 0.283-0.404-0.132 0.363 0.299-0.086 0.142-0.277-0.146-0.086-0.077 0.247 0.355-0.151 0.13-0.273-0.389-0.111 0.278-0.327-0.616 0.551-0.41-0.041-0.222-0.105-0.142v0.272l-0.127-5e-3 -0.465 0.045-0.223-0.04-0.171-0.024-0.041-0.229-0.065 0.293 0.166 0.229 0.399 0.197 0.015 0.232-0.424 0.455-0.04-0.284-0.128 0.229-0.337 0.034 0.327-0.332-0.298 0.084-0.183-0.091 0.416-0.268-0.436 0.056v-0.08c-0.262-0.324-0.476-0.754-0.485-1.29l0.202-0.995 0.146-0.277 0.238-0.232 0.536-0.086 0.51 0.151 0.552-0.126 0.616 0.171 0.173 0.178zm-0.132 3.309 0.101 0.146-0.051 0.531c0.021-0.48-0.439-0.692-0.317-1.183l0.102-0.324 0.125-0.808-0.039-0.101 0.181-0.36 0.082 0.192 0.182 0.601-0.178 0.577-0.247 0.531zm0.167-3.74-6e-3 -0.04 0.025 0.015 0.299 0.617-0.087 0.565 0.107 0.476 0.157 0.223-0.107 0.309-0.126-0.324-0.065-0.354 0.029-0.313zm1.102 2.476-0.096 0.339-0.268 0.334 0.056 0.586-0.112-0.132-0.08-0.151 0.02-0.976-0.07-0.176 0.116-0.451-0.137-0.241-0.111-0.219 0.132-0.439-0.101-0.717 0.034-5e-3 0.288 0.424 0.146 0.55-0.055 0.755zm-0.642-3.305 0.036-0.081 0.308 0.117-0.426 0.768-0.288-0.102 0.087-0.015 0.49-0.257zm-0.071 0.021-0.04 0.161 0.051 0.097-0.223 0.151-0.505-0.087zm-2.138-0.507 0.132-0.11zm0.198 0.137 0.303-0.151-0.151 0.299-0.373 0.105-0.349-0.132-0.855 0.041-0.515 0.374 0.758-0.688 0.425 0.031zm-3.746-6.013 0.178-0.091 0.688-0.137 0.029 0.101v0.017l-0.455 0.084-0.425 0.062zm-0.57 0.509-0.062-0.091 0.344-0.287h0.025l0.051 0.404 0.065 0.313 0.096 0.596 0.243 0.945c0.222 0.617 0.5 1.199 0.773 1.749l-0.081 0.243 0.105 0.137-0.056 0.197 0.426 0.227 0.115 0.273 0.097 0.293-0.183 0.161-0.263 0.339-0.541 0.945-0.105 0.197c0.041-2.294-0.137-4.498-1.051-5.928l0.01-0.178h0.01v-0.262zm0.607 9.856 0.01-0.121 0.069-0.415 0.063-0.217 0.029 5e-3 -0.085 0.49zm0.22-0.455 0.021-0.02h0.02l0.273 1.284 0.683 0.424 0.056 0.369 0.08 0.279-0.041 0.298-0.085-0.219-0.192-0.293-0.632-0.424-0.334-0.874zm1.76 3.089-0.041 0.142-0.101-0.162-0.061-0.606 0.092-0.803-0.219-0.375-0.166-0.637 0.12-0.697 0.058-0.729 0.166-0.332 0.081 0.151 0.061 0.681-0.173 0.411-0.051 0.742 0.123 0.309 0.293 0.662-0.01 0.323-0.072 0.637 0.188 0.358-0.01 0.961-0.232-0.218zm2.153-0.627 0.02-0.161-0.051-0.303 0.106-0.324-0.065-0.323 0.031-0.259-0.117-0.363-0.116 0.288-0.01 0.197 0.106 0.248-0.072 0.48 0.046 0.227-0.07 0.384 0.142 0.309-0.283 0.949-0.273 0.204-0.363 0.227 0.197-0.202 0.298-0.38-0.01-0.863 0.101-0.39 0.092-0.384-0.102-0.738 0.143-0.277-0.072-0.191-0.354 0.039-0.02 0.177 0.09 0.157 0.066 0.313 0.075 0.304-0.181 0.904-0.081-0.133-0.026-0.171 0.107-0.237-0.012-0.227 0.112-0.305-0.101-0.192-0.102-0.52-0.025-0.071-0.349-0.09-0.142-0.395 0.257-0.076 0.219-0.087 0.247 0.041 0.192-0.056 0.253 0.097 0.086-0.01 0.241 0.151 0.435-0.48-0.171 0.769 0.284 0.661 0.02 0.243-0.274 0.89-0.171-0.294 0.188-0.469-0.137-0.683-0.082-0.278-0.091-0.121-0.105-0.196-0.085 0.142 0.262 0.495 0.07 0.236 0.063 0.359-0.224 0.436 0.076 0.337 0.136 0.183 0.101 0.313 0.082 0.334-0.041 0.375-0.161 0.317-0.233 0.219-0.308 0.101-0.156 0.061-0.283-0.061 0.454-0.517 0.238-0.778zm2.628 0.571-0.082 0.162-0.23 0.408-0.77 0.587-0.222 0.223-0.252 0.202-0.137 0.024 0.096-0.096 0.142-0.126 0.024-0.117 0.39-0.403 0.101-0.248 0.041-0.142 0.222-0.181 0.146-0.209 0.117-0.293-0.031-0.979-0.069 0.652-0.319 0.646-0.036-0.293 0.173-0.299 0.041-0.601 0.091-0.264v-0.299l-0.057-0.206 0.071-0.277-0.056-0.238 0.092-0.334 0.089-0.04 0.092-0.102 0.192 0.541-0.01 0.627-0.015 0.445 0.187 0.762zm-17.648-18.443 0.262-0.167-0.247 0.197zm-0.219 1.273-0.105-0.682 0.132 0.425 0.045 0.455zm-0.308-1.218 0.137-0.09-0.046 0.061 0.142 0.435-0.122 0.05zm-0.06-0.454-0.385-0.616 0.128-0.708 0.02 0.091 0.03 0.476 0.258 0.839zm-0.161 0.865-0.444-0.021-0.233-0.161-0.076-1.192 0.05 0.692 0.067 0.394 0.384 0.243 0.241-0.021 0.142 6e-3zm21.55 19.735-0.222-0.055-0.501-0.046-0.455-0.051-0.469-0.091-0.36-0.202c-0.429-0.222-0.863-0.424-1.334-0.597l0.288-0.423 0.168-0.709 0.085-0.479-0.029-0.911c-0.077-0.909 0.01-1.805-0.041-2.648l-0.202-1.065-0.303-0.976-0.178-0.324-0.228-0.212-0.01-0.127-0.272-0.227-0.173-0.146-0.212-0.111-0.178-0.05-0.125-0.097-0.627-0.122-0.116-0.045-1.098-0.126-0.995-0.395-0.222-0.273-0.041-0.322-0.137-0.017c-0.161-0.591-0.267-1.188-0.413-1.748l-0.26-0.839-0.069-0.476-0.087-0.469-0.041-0.723 0.253-0.399v-0.096l-0.161-0.319-0.293-1.162-0.268-1.153-0.127-0.349-0.02-0.02-0.375-0.409-0.135-0.228-0.117-0.228-0.029-0.333-0.087-0.122 0.01-0.146-0.105-0.147-0.082-0.404-0.06-0.324-0.07-0.327-0.081-0.349-0.046-0.416 5e-3 -0.111-0.07-0.142-0.031-0.151-0.064-0.192-0.305-0.808-1.167-0.461h-0.01l-1.163 0.339-0.444 0.612-0.036 0.08-0.176 0.582-0.132 0.399-0.036 0.202-0.034 0.112 0.015 0.13-0.086 0.375v0.313l-0.051 0.45-0.065 0.177 0.056 0.167-0.086 0.156 0.03 0.248-0.091 0.384-0.086 0.123-0.02 0.125-0.192 0.213-0.122 0.212-0.304 0.724c-0.211 0.894-0.403 1.899-0.646 2.753l-0.161 0.511c-0.466-0.156-1.017-0.228-1.526-0.354l-0.081-0.238-0.304 0.061-0.363-0.106-0.182-0.106-0.354-0.582-0.294-0.178-0.471-0.226-0.389-0.269-0.024-0.13c-0.157-0.596-0.299-1.148-0.445-1.745l-0.056-0.267 0.056-0.111-0.046-0.228-0.166-0.697 0.638-0.308 0.176-0.536c-0.07-0.646-0.556-1.123-0.602-1.81l-0.021-0.414-0.146 0.181c-0.19 0.541 0.122 1.021 0.214 1.502l-0.151 0.57-0.304 0.142-0.062-0.738 0.036-0.373-0.137-0.168-0.131-0.176-0.476-0.901-0.183-0.282-0.029 0.202 0.085 0.692-0.046 0.682-0.05 0.202 0.103 0.106 0.089 0.171 0.349 0.668-0.079 0.161-0.592-0.409-0.046-0.86-0.329-0.808-0.232-0.116 0.112 0.227c0.171 0.511 0.085 1.355 0.101 1.966l0.323 0.586 0.829-5e-3 0.212 0.769 0.04 0.161 0.092 0.065 0.071 0.293c0.176 0.683 0.358 1.39 0.524 2.048l-0.079 0.116-0.021 0.319-0.02 0.146 0.08 0.166 0.112 0.318 0.142 0.334 0.171 0.137 0.096 0.329 0.077 0.354c0.181 0.692 0.332 1.363 0.515 2.062 0.576 2.299 1.142 4.584 1.688 6.878 0.105 0.461 0.253 0.92 0.319 1.39l-0.31 0.101-0.474 0.197-0.733 0.39-0.137 0.076c-0.587 0.409-1.041 1.097-1.409 1.738l-0.183 0.278-0.065 0.197-0.107 0.176-0.257 0.89 0.122 1.107-0.558 0.217 0.133 0.259-0.294 0.024-0.697 0.036-0.151 0.183 0.515 0.197 0.173-0.021 0.414 0.036 0.091 0.065h0.121l0.127 0.025 0.435-0.011-0.115 0.127 0.01 0.178 0.327 0.216 0.855-0.04 0.688 0.091-0.077 0.464 0.188 0.118 0.692 0.01h0.582l0.11 0.182 0.105 0.085 0.082 0.082 0.435 0.211 0.015 0.041 0.132 0.724 0.192 0.207 0.424 0.288 0.313 0.132 0.264 0.243 0.02-0.017h0.021l-0.051-0.142 0.08-0.395c0.183-0.844-0.308-1.445-0.676-1.834l-0.146-0.146 0.483-0.238 0.197 0.926 0.112 0.262 0.272-0.065-0.051-0.439-0.142-0.632-0.07-0.317 0.526-0.106 0.373 0.041 0.439-0.072 0.188 0.162 0.809-5e-3 0.353-0.106 0.467-0.12 0.379-0.178-0.066-0.132 0.319-0.075 0.439 0.056 0.248-0.031 0.57 0.071 0.288-0.071 0.379 0.046 0.516-0.024 0.658-0.156 0.161-0.102 0.252 0.056 0.293 0.015 0.279-0.075-0.137-0.183-0.967-0.096h-0.216l0.161-0.097 0.122-0.11 0.808 0.015 0.515 0.127 0.021 0.131 0.5 0.117c0.515 0.02 1.087 0.125 1.577 0.156l0.895 0.217-0.197 0.117-1.123 0.056-0.064 0.303 0.586 0.137h0.656l0.27-0.112 0.064-0.161 0.835-0.183-0.065-0.142 0.222-0.156 0.142-5e-3 0.202-0.056 0.187-0.192 0.38-0.02 0.363-0.224 0.425 0.036 0.445 0.087 0.435-0.067 0.222-0.135 0.404-0.158 0.01-0.101 0.359-0.683zm-7.884 2.416-0.212 0.063-0.168-0.072-0.339-0.065-0.373 0.243 0.373 0.115 0.012 0.178 0.762 0.142h0.572l0.267 0.08 0.512-0.13 0.116-0.219-0.714-0.181zm-1.027-2.825 0.319-0.156-0.618 0.187zm2.356-4.029 0.166 0.197 0.183-0.181zm-0.702-2.526 0.151 0.137-0.086-0.03 0.288 0.055 0.041 0.072zm0.288-0.156-0.603-0.015-0.106-0.062 0.229 0.278 0.666 0.303 0.072 0.072 0.091-0.103-0.081-0.222zm1.334 0.317-0.062 0.026 0.046-0.061 0.146-0.177v0.201l0.213-0.201 0.08 0.045zm0.529-0.368-0.398-0.06-0.277 0.176-0.127 0.395 0.051 0.081 0.076-0.081 0.57-0.07 0.178-0.288 0.091-0.248-0.03-0.01zm-1.08-0.026-0.103-0.151-0.201 0.182-0.162-0.03 0.37 0.045 0.327-0.024zm-6.055-6.241-0.163-0.026-0.12-0.329 0.222-0.322 0.021 0.015zm-0.1-0.708-0.395 0.228-0.026 0.368 0.44 0.279 0.439-0.257zm-0.027-6.08v-0.031l0.115 0.016zm0.464-0.273-0.074 0.036-0.137-0.031-0.138 0.031-0.327 0.031-0.117-0.051v0.13l0.146 5e-3 0.137 0.223h0.299l0.122-0.211 0.176-0.036z"/><polygon transform="translate(-352.46 -3.694)" points="439.2 109.25 439.19 19.499 426.33 116.12" fill="#ef7d00"/><polygon transform="translate(-352.46 -3.694)" points="414.55 143.43 411.68 129.4 362.06 113.19" fill="#ef7d00"/><polygon transform="translate(-352.46 -3.694)" points="466.78 129.34 516.32 113.19 456.55 119.62" fill="#ef7d00"/><polygon transform="translate(-352.46 -3.694)" points="462.2 148.91 456.38 161.58 487.96 204.35" fill="#ef7d00"/><polygon transform="translate(-352.46 -3.694)" points="421.98 161.54 390.42 204.35 436.34 163.65" fill="#ef7d00"/><polygon transform="translate(-352.46 -3.694)" points="461.52 147.44 440.98 162.6 455.57 160.52" fill="#ef7d00"/><polygon transform="translate(-352.46 -3.694)" points="437.4 162.6 416.89 147.46 422.73 160.5" fill="#ef7d00"/><polygon transform="translate(-352.46 -3.694)" points="415.9 143.99 423.41 120.03 412.98 129.81" fill="#ef7d00"/><polygon transform="translate(-352.46 -3.694)" points="462.5 143.98 454.98 120.02 465.4 129.81" fill="#ef7d00"/><polygon transform="translate(-352.46 -3.694)" points="426.18 117.83 452.22 117.83 439.2 110.78" fill="#ef7d00"/>
</svg>
