<?xml version="1.0" encoding="UTF-8"?>
<svg width="521.83" height="262.61" enable-background="new 0 0 530 270" version="1.1" viewBox="0 0 521.828 262.61301" xml:space="preserve" xmlns="http://www.w3.org/2000/svg" xmlns:cc="http://creativecommons.org/ns#" xmlns:dc="http://purl.org/dc/elements/1.1/" xmlns:rdf="http://www.w3.org/1999/02/22-rdf-syntax-ns#"><metadata><rdf:RDF><cc:Work rdf:about=""><dc:format>image/svg+xml</dc:format><dc:type rdf:resource="http://purl.org/dc/dcmitype/StillImage"/><dc:title/></cc:Work></rdf:RDF></metadata>
<g transform="translate(-4.086,-3.694)">
	<polygon points="4.086 110.08 352.46 110.05 439.22 138.07 525.91 110.03 525.91 212.54 4.086 212.54" fill="#0075bf"/>
	<polygon points="463.35 146.21 494.05 212.52 439.19 164.02 384.34 212.52 415.02 146.21 352.46 110.05 423.96 117.73 439.19 3.694 454.42 117.73 525.91 110.05"/>
	<polygon points="462 145.78 491 208.43 439.19 162.63 387.38 208.43 416.38 145.78 357.27 111.62 424.87 118.87 439.19 11.604 453.51 118.87 521.11 111.62" fill="#e63312"/>
	<polygon points="439.19 162.63 462 145.78 453.51 118.87 424.87 118.87 416.41 145.81" clip-rule="evenodd" fill="#0075bf" fill-rule="evenodd"/>
	<path d="m439.16 156.88c-10.18 0-18.468-8.288-18.468-18.482s8.288-18.473 18.468-18.473c10.199 0 18.487 8.279 18.487 18.473s-8.288 18.482-18.487 18.482z" clip-rule="evenodd" fill-rule="evenodd"/>
	<path d="m439.16 155.83c-9.613 0-17.428-7.819-17.428-17.432 0-9.618 7.814-17.432 17.428-17.432 9.627 0 17.437 7.814 17.437 17.432 0 9.613-7.81 17.432-17.437 17.432z" clip-rule="evenodd" fill="#fff" fill-rule="evenodd"/>
	<path d="m438.52 126.42-0.031 0.086 0.062 0.101-0.252-0.081zm0.176 0 0.166 0.07-0.191 0.117 0.055-0.101zm-0.388 0.238 0.293 0.05 0.464-0.243-0.368-0.48-0.298 0.067-0.188 0.216 0.515-0.132 0.183 0.248-0.156-0.101-0.551 0.183-0.066-0.02zm1.429-0.238-0.045 0.086 0.074 0.101-0.252-0.081zm0.171 0 0.026 0.01v-0.01l0.096 0.045 0.035 0.024-0.191 0.117 0.065-0.101zm-0.884 0.916 0.105 5e-3 0.355 0.034-0.036-0.546 0.065-0.222 0.601-0.036 0.122-0.065 0.031-0.041 0.01-0.072-0.086 0.026-0.419-0.106-0.288 0.08 0.683-0.14-0.103-0.182-0.687 0.096-0.071 0.712 0.061 0.218-0.102 0.146zm8.138 22.269-0.374-0.411-0.132-0.091-0.142-0.07-0.53-0.156-0.196-0.041-0.229-0.105-0.865-0.051-1.258-0.142-0.581-0.122-0.171-0.065-0.416 0.026-0.156 0.08-0.247-0.102-0.061 0.224 0.161 0.13 0.293-0.045 1.001 0.117c0.769 0.115 1.749 0.055 2.427 0.271l0.349 0.097 0.782 0.456 0.557 0.394 0.339-0.137zm4.635-0.942 0.146 0.259-0.103 0.07-0.313-0.284-0.07 0.051 0.202 0.517-0.324 0.132 0.067-0.142-0.401-0.202 0.103 0.368-0.354-5e-3h0.142l0.055-0.061-0.135-0.137-0.163-0.132-0.561-0.404c-0.521-0.03-1.091-0.096-1.562-0.142l-0.39-0.298-0.817-0.131-0.299-0.172 0.222-0.243 0.76-0.586c0.524 0.101 0.898 0.319 1.322 0.557l0.324 0.156 0.354 0.146c0.541 0.161 1.293 0.015 1.709 0.277l0.271 0.42-0.212-0.242-0.11 0.096zm-1.442 0.535-0.363-0.05-0.606-0.106-0.596-0.101 0.546-0.046 1.091 0.207 0.029 0.132zm-1.718 0.036 0.188 0.466-0.202 0.207-0.065-0.283-0.06 0.076-0.146-0.096 0.074 0.257-0.373 0.349 0.202-0.151-0.146-0.257-0.066 0.084-0.263-0.12 0.051 0.293-0.344 0.08-0.485-0.161-0.147-0.238-0.276-0.146-0.117-0.146-0.298-0.146-1.041-0.263c-0.611-0.06-1.274-0.029-1.87-0.142l-0.606-0.115-0.617 0.024-0.322-0.309-0.324-1.183-0.041-0.555 0.091-0.491 0.061-0.545 0.283-0.748 0.188 0.192 0.46 0.262 0.146 0.172 0.252 1.163 0.056 0.142-0.551 0.151 0.495 0.036 0.541 0.14 0.324 0.278 0.768 0.111 0.819 0.101 1.081 0.375 0.173 0.091 0.136 0.087 0.42 0.084 0.409 0.112 0.408 0.187 0.143 0.101 0.283 0.017 0.257 0.137 0.304 0.469zm-6.099 0.627-0.623-0.334-0.242-0.024 0.207 0.102 0.461 0.192 0.14 0.171-0.337-0.146-0.168-0.121-0.192-0.011-0.181-0.056 0.404 0.212-0.026 0.081 0.097 0.086v-0.086l0.055 0.269-0.459-0.132-0.616-0.02-0.344-0.259-0.476-0.197 0.284-0.5 0.637-0.137 0.308 0.101 0.166 0.117 0.151 0.157 0.507 0.12 0.111 0.081-0.046 0.077-0.097-0.077-0.485-0.12 0.097 0.056 0.601 0.257zm-2.558-1.663c5e-3 -1.076 0.05-2.178 0.085-3.27l0.021-0.016 0.01 0.011 0.031 0.181 0.181 1.351c0.082 0.52 0.224 0.991 0.243 1.516l-0.358 0.137zm0.996-0.555-0.283 0.061c-0.183-0.798-0.354-1.704-0.45-2.618-0.091-0.935-0.177-1.925-0.137-2.841l0.202-0.029 0.096 0.682c0.017 0.718 0.067 1.476 0.118 2.148 0.045 0.48 0.101 0.949 0.171 1.36zm-0.244-2.866c-0.091-0.778-0.069-1.639-0.03-2.427l0.011-0.318 0.162-0.495 0.221-0.161 0.197-0.188 0.117-0.349 0.01 0.01c0.07 1.638-0.172 2.796-0.334 4.276l-0.11 1.243c-0.162-0.465-0.183-1.03-0.244-1.591zm-1.146-2.77-0.38 0.435-0.191 0.207c0.394-1.151 0.92-2.238 1.264-3.467 0.171-0.601 0.354-1.207 0.52-1.851 0.168-0.656 0.243-1.349 0.259-2.116l0.015-0.016 0.015 5e-3 0.207 0.349 0.319 1.324 0.106 0.976 0.035 0.517 0.02 0.529-0.283 0.557-0.303 0.501-0.688 0.93zm0.248 1.052c0.02 0.895-0.051 1.753-0.067 2.643-0.024 1.031-0.115 2.043-0.171 2.992l-0.581-0.146-0.688-0.061c0.329-1.137 0.728-2.29 0.98-3.523 0.142-0.747 0.303-1.49 0.459-2.233l0.026-0.024zm-1.623 6.216 0.233-0.567h0.02l-0.207 0.577zm0.976 0.51-0.264 0.49-0.11 0.041-0.465 0.363 0.212-0.106-0.223-0.11 0.273-0.358v-0.097l-0.151 0.111-0.188 0.217-0.166 0.103 0.252-0.461-0.03-0.051-0.248 0.233-0.137 0.358-0.101-0.02v-0.082l0.062-0.051 0.156-0.435-0.252 0.229-0.067 0.156 0.021-0.349 0.142-0.171-0.173 0.101-0.086 0.101 0.016-0.152 0.243-0.162 0.135-0.142 0.604-0.029 0.332 0.046 0.283 0.08zm-1.178 0.793 0.051 0.021 0.126-0.046zm-0.894-0.812-1.173 0.056-0.279-1.173 1.255 0.11 0.115 0.178 0.288 0.212 0.167 0.178 0.105 0.081 0.214 0.161-0.229 0.171zm-1.072 0.468-0.021-0.074 0.132-0.051 1.203-0.142 0.122 0.03zm-0.591 0.168-0.87 0.146-0.414-0.016-0.581-0.102-0.224-0.156-0.12-0.414 0.02-0.04v-0.087l0.071-0.161-0.11-0.207-0.294 0.126-0.021 0.05-0.087 0.077-0.166 0.035-0.272-0.05-0.439-0.456-0.066-0.368 0.081-0.313 0.101-0.329-0.132-0.091-0.069-0.142-0.173 0.056-0.146 0.435 0.04 0.678 0.143 0.317 0.313 0.349 0.025 0.017 0.39 0.322 0.317 0.163 0.445 0.227 0.344 0.156 1.249 0.512 0.47 0.276 0.232 0.248h-0.021l-0.263-0.092 0.168 0.214v0.051l0.095 0.064-0.191-0.13-0.142-0.117 0.02 0.101-0.086-0.079 0.086 0.181-0.171-0.121v0.111l-0.071-0.056 0.025 0.161 0.07 0.173 0.046 0.738-0.07-0.683-0.151-0.365c-0.324-0.483-0.906-0.777-1.543-0.954l-0.52-0.162-1.173-0.444-0.48-0.449-0.268-0.36-0.127-0.339-0.029-0.322-0.021-0.44 0.298-0.91 0.42-0.565 0.51-0.567 0.531-0.716 0.409-0.243c0.404-0.217 0.905-0.395 1.444-0.444 0.27 0.966 0.502 1.98 0.77 2.956l0.071 0.426-0.749-0.087 0.188 0.298-0.087 0.036-0.231 0.121-0.096 0.02-0.192 0.208 0.207 0.166 0.293-0.222 0.784-0.146 0.308 1.258h-0.829l-0.436 0.036 0.063 0.115-0.293-0.015 0.423 0.404h0.097l1.071-0.197zm-0.258 1.375 0.197 0.349zm-1.285-10.179c-0.207-0.89-0.404-1.784-0.646-2.663l-0.167-0.662-0.156-0.667c-0.293-1.335-0.646-2.669-0.961-3.998l-5e-3 -0.031 0.637 0.112 0.258 0.322 0.091 0.233 0.375-0.071c0.783 0.329 1.485 0.718 2.426 0.875 0.05 0.935-0.082 1.92-0.097 2.957l-0.06 1.012c-0.021 0.637-0.046 1.289-0.138 1.931-0.06 0.469-0.11 0.939-0.161 1.395l-0.021 0.511 0.021 0.47 0.102 0.096 0.757 0.409v0.192c-0.545 0.051-1.05 0.156-1.586 0.228-0.223-0.882-0.456-1.757-0.669-2.651zm-2.082-8.527 0.151-0.161-0.08-0.192 0.192 0.192 0.241 0.176 0.173-0.142-0.253-0.075-0.232-0.354-0.07-0.238-0.091-0.313v-0.026h0.02l0.403 0.212 0.485 0.718 0.289 0.187-0.289 0.52-0.308-0.212-0.571-0.041zm-0.322-0.141-0.127 0.156-0.029-0.332 0.55 0.135zm-0.36-0.394h0.531l0.137 0.161-0.592 0.072zm-0.025-0.339 0.192-0.055 0.435 0.151 0.197 0.146-0.158 0.05-0.454-0.084-0.188 0.044zm0.729 0.016-0.214-0.112-0.546 0.041c-0.101-0.486 0.855-0.268 0.76 0.071zm-0.638-0.728 0.102 0.091 0.267 0.236-0.349-0.051zm2.022 1.51 0.074-0.01-0.084 0.511-0.305 0.39-0.182-0.062 0.152-0.166zm0.267 0.137h0.087l-0.051 0.233-0.102 0.183-0.081 0.161-0.096 0.111 0.016 0.06-0.208 0.163-0.046-0.096zm0.127 0.612 0.041-0.117 0.061-0.13 0.064-0.172 1.38 0.303 0.279 0.096 0.201 0.178 0.156-5e-3 -0.242-0.38 0.036-0.192h0.216l0.76 0.288-0.344 0.844-0.344 0.365-0.439-0.072-0.426-0.096-0.368-0.137-1.173-0.491zm2.077-0.749 1.021 0.319-0.026 0.065-1.036-0.308zm0.212-0.964 0.247-1.298 0.314-1.012 0.182-0.222 0.066-0.103 0.308-0.241h0.061l0.404-0.187h0.035l0.097 0.925 0.12 0.454-0.676 0.479-0.112-0.212-0.102 0.212 0.072 0.243-5e-3 0.603-0.097 0.642v0.257l-0.99-0.228zm1.846-1.462 0.227 0.279-0.363 0.317h-0.092l0.106-0.217-0.024-0.278zm0.353-1.854 0.01 0.015 0.132 0.904 0.091 0.298-0.314 0.202c-0.161-0.344-0.206-0.808-0.206-1.303zm-0.065-2.643 0.106-0.375 0.101-0.162 0.854-0.5 0.026-0.218 0.05 0.218 0.616 0.339 0.42 0.611 0.056 0.365 0.131 0.337c0 0.557-0.313 1.189-0.672 1.492l-0.702 0.217-0.607-0.323-0.358-0.497-0.228-0.883zm2.101 2.88 0.071-0.277 0.277 0.116zm-0.216-0.592 0.029-0.181 0.017-0.188 0.085 0.601-0.191 0.5-1.232 0.692-0.255-0.858-0.029-0.375 0.061-0.257 0.224 0.192 0.605 0.284 0.268-0.036 0.31-0.02 0.125-0.238zm0.848 1.037-0.526 0.445-1.137 0.87-0.242 0.238-0.236 0.435 0.313-0.228 0.899-0.824 0.064-0.05v0.011l0.582-0.451 0.329-0.241 0.056-0.036h-0.015l0.308-0.183 0.202-0.061 0.403-0.036-0.373 0.218-0.525 0.368-0.172 0.146-0.627 0.652-0.319 0.399-0.58 0.814c-0.374 0.556-0.732 1.127-1.213 1.592l-0.556-0.024 0.227-0.026 0.379-0.373 0.133-0.298-0.253 0.217-0.37 0.137-0.525-0.586 0.025-0.637 0.334-0.375 0.676-0.515 0.214-0.183 0.474-0.317 1.188-0.683v0.024l0.541-0.272h-0.029zm-0.051 4.883v-0.153l-0.02-0.156 0.02-0.084v-0.021l0.031 0.015 0.029 0.314-0.029 0.188zm-2.046 8.308-0.309 0.551-0.344 0.476-0.757 0.916-0.646 0.834-0.102 0.094-0.062-0.454c-0.051-0.454-0.061-1-0.051-1.485l0.253-0.834 0.103-0.258 0.579-1.214 0.541-0.879c0.365-0.57 0.75-1.143 1.082-1.768 0.252-0.476 0.456-0.956 0.697-1.438l0.48-0.939 0.454-0.637 0.058-0.025 5e-3 0.318-0.077 0.31c-0.252 1.015-0.561 1.971-0.889 2.926l-0.207 0.556-0.188 0.562-0.142 0.231-0.131 0.229-0.242 0.476-0.183 0.267-0.283 0.592 0.01 0.319 0.273-0.243 0.183-0.329c0.373-0.692 0.666-1.49 0.954-2.224 0.299-0.788 0.531-1.586 0.763-2.411l0.168-0.627 0.074-0.188-0.074 0.743-0.156 0.683-0.354 1.334c-0.25 0.865-0.558 1.673-0.921 2.433l-0.273 0.569zm-1.936 4.161 0.212-0.39 0.218-0.375 0.724-1.056 0.263-0.344 0.384-0.506 0.131-0.162-0.024 0.258-0.349 1.239-0.097 0.445 0.197-0.259 0.373-1.011 0.349-1.031 0.142-0.334 0.146-0.151 0.012 5e-3 -0.081 0.652-0.192 0.985-0.288 1.107-0.152 0.536c-0.177 0.49-0.368 1.02-0.56 1.541l-0.106 0.247-0.178 0.289-0.262-0.021-0.779-0.354-0.086-0.556zm-0.556-2.174 0.061 1.248-1.056-0.01-0.112 0.09 0.142 0.293 0.173 0.062 0.389-0.035 0.172 0.086 0.172 0.065 0.282 0.324 0.142 0.98 0.183 0.758-0.161-0.021-0.541-0.044-0.456-0.031c-0.313-1.173-0.602-2.36-0.895-3.543l0.476-0.132 0.829-0.11zm1.992-9.982-0.136-0.238 0.065-0.308zm0.015-0.769-0.298 0.062 0.176-0.163 0.197-0.151 0.395-0.162 0.03 0.015zm0.4 0.693 0.034-0.455 0.461-0.262 0.666 0.262-0.217 0.697zm-0.839 4.579-0.273 0.359-0.385 0.874c-0.263 0.653-0.515 1.364-0.777 2.032l-0.091 0.207-0.031-0.293c-0.02-0.526-0.02-1.072 0.01-1.572l0.067-0.571-0.012-0.434 0.076-0.355 0.092-0.344 0.06-0.161c0.162-0.5 0.431-0.914 0.692-1.314l0.779-0.974 1.142-1.043 0.714-0.596 0.19-0.217-0.075 0.257-0.454 0.602-0.865 1.239-0.39 0.676c-0.394 0.658-0.732 1.37-1.137 2.048l-0.313 0.733 0.137-0.163c0.529-0.895 1.056-1.834 1.621-2.714 0.283-0.469 0.591-0.935 0.956-1.363l0.697-1.031 0.217-0.36 0.122 0.279-0.102 0.238-0.303 0.712-0.456 0.87c-0.292 0.632-0.636 1.183-0.945 1.743l-0.479 0.864c-0.451 0.784-0.891 1.563-1.319 2.37l-0.156 0.162 0.101-0.258 0.575-1.269 0.324-0.874zm2.284-5.686 0.334-0.122h0.023l6e-3 0.026-0.07 0.081-0.253 0.455-0.324 0.036-1.02-0.086-0.324 0.101 0.224-0.212 0.545-0.305 0.299-0.07 0.288 0.202 0.145-0.055v5e-3zm-2.527 1.234v-0.627l0.015 0.01zm-0.911-0.122 0.012-0.202 0.161-0.373 0.05 0.373 0.07 0.591-0.061 0.389-0.201 0.339zm0.164 1.299 0.146-0.293 0.337-0.555 0.243-0.279 0.814 0.086 0.288 0.015 0.262 0.142 0.395 0.041-0.419 0.428-0.42 0.411-0.788 0.895-0.712 0.959-0.48 0.8-0.156 0.227c-0.017-0.52 0.05-1.046 0.125-1.536l0.183-0.678zm-0.88 5.291-0.051 1.278-0.01 0.512-0.052 0.47-0.197-0.051c0.091-0.824 0.178-1.652 0.278-2.481l0.02 5e-3zm0.18-0.464-0.263-0.056c0.021-0.961 0-1.887 0.051-2.699l0.02-0.678 0.026-0.632c0.026-0.505 0.026-0.996 0.056-1.537l0.334-0.216 5e-3 0.01 0.03 0.769 0.046 0.777-0.076 0.273-0.065 0.243-0.072 0.394v0.097l-0.02 0.06c-0.132 0.885-0.06 2.063-0.072 3.195zm5.908-10.892 0.077 0.202 0.191 0.98 0.097 0.505 0.105 0.476-0.192 0.034-1.173 0.163 0.01-0.057-0.024-0.065-0.015-0.221-0.035-0.209-0.188-0.166v0.166l0.036 0.567-0.017 0.738-0.176 0.02-0.248 0.086-0.364 0.036-0.363-0.096-0.294-0.146-0.615 0.142 0.433-0.759 0.692-0.96v0.01l0.319-0.375 0.426-0.45 0.181-0.115-0.344 0.606-0.161 0.163-0.146 0.116v0.045l0.267 0.106 0.305-0.449c0.272-0.471 0.616-0.996 1.02-1.264zm0.603 2.587-0.273 0.036-0.051-0.228 0.229-0.051zm0.061 0.127 0.07 0.051-0.313 0.111-0.991 0.439-0.223 0.096 0.11-0.142 0.178-0.096 0.743-0.334 0.415-0.125zm0.106 2.436c0.237 0.647 0.398 1.315 0.581 2.032l0.07 0.359-0.445 0.207-0.242-0.02-0.146-0.288c-0.222-0.48-0.697-1.911-0.895-2.416l-0.101-0.557v-0.635l0.858-0.188 0.091 0.419 0.031 0.264 0.03 0.277 0.039 0.223zm0.824 2.415h0.034l-0.106 0.238-0.767 0.202-0.229-0.156zm0.074 0.265 0.168 0.13-0.228 0.086-0.152 0.097-0.105 0.01-0.127 0.056h-0.115l-0.128 0.066-0.211 0.061-0.157-0.183 0.344-0.065 0.328-0.076zm0.203 0.338 1.158 0.399 0.678 0.258 0.116 0.074 0.196 0.113 0.061 0.055-0.161-0.066c-0.339-0.166-0.678-0.373-1.146-0.434l0.212 0.075 1.105 0.566 0.146 0.136-0.192-0.039c-0.368-0.259-0.731-0.563-1.298-0.642l0.161 0.125 0.729 0.314 0.207 0.14 0.218 0.147-0.405-0.075-0.304-0.156-0.716-0.188-0.38-0.056-0.322-0.105 0.19 0.14 0.057 0.051 0.534 0.066 0.344 0.156-0.575 0.02-0.737-0.02-0.512-0.211-0.065-0.163v-0.212l-0.05-0.151 0.115-0.036 0.066-0.034h0.136l0.192-0.081zm1.764 0.489 0.262 0.066 0.214 0.087 0.281 0.317-0.05 0.344-0.373 0.212-0.142 0.076-0.207 0.121 0.086-0.161 0.116-0.133 0.49-0.257-0.117-0.183-0.056-0.101-0.272-0.187-0.132-0.086-0.115-0.11zm0.757 0.163 0.334 0.202 0.344 0.024 0.202 0.196 0.067 0.128-0.128 0.05-0.339 0.272-0.439 0.203-0.293-0.021-0.272 5e-3 0.272-0.116 0.435-0.49-0.183-0.439zm1.089 0.767 0.349 0.197 0.444 1.392 0.11 0.281 0.061 1.063-0.02 1.142c0.01 0.623 0.151 1.188 0.121 1.851l-0.02 0.248-0.061-0.132-0.132-0.455 0.02-0.374-0.161-1.006-0.132-0.213 0.066-0.166-0.209-1.102 0.026-0.456-0.395-1.065 0.263-0.36-5e-3 -0.51-0.13-0.267-0.548 0.065-0.08 0.096-0.178 0.081zm-1.158 7.941 0.146-0.688-0.051-0.677 0.308-0.688 0.197-0.506-0.02-0.334-0.137-0.338 0.105-0.279 0.168-0.192 0.046-0.11 0.115-0.329 0.01-0.02 0.031 0.015-0.021 0.8 0.063 0.131 0.056 0.127 0.242 0.394v0.304l-0.071 0.216 0.021 0.406-0.157 0.298v0.444l-0.046 0.272-0.212 0.572-0.146 0.101-0.161 0.096v-0.196l0.183-0.94-0.087 0.524-0.178 0.197-0.045 0.101-0.085 0.521-0.699 0.197zm-1.38-1.91-0.097 0.247-0.03-0.692-0.141-0.713 0.131 0.223 0.05 0.111 0.036 0.132 0.092 0.166-0.077 0.319zm-0.712 1.066 0.105-0.515v-0.38l-0.252-1.137 0.039 0.122 0.137-0.051-0.121-1.026 0.197 0.188 0.106 0.332-0.051 0.243 0.222 0.511 0.096 0.986 0.259 0.389 0.07 0.136-0.132 0.865-0.242 0.146-0.121 0.192-0.015-0.294-0.076-0.178zm-0.122 0.434 0.04-0.024 0.167 0.575-0.268-0.029zm-0.253-0.758 0.056-0.834-0.137-0.505-0.298-0.698 0.298-0.854 0.076-0.408 5e-3 -0.021 0.046 0.137 0.075 0.253 0.05 0.117-0.06 0.313 0.04 0.404-0.04 0.242-0.041 0.587 0.101 0.319 0.097 0.646-0.126 0.621zm-0.798-0.314v-0.317l-0.046-0.137 0.056-0.125-0.298-0.704c-0.217-0.303-0.37-0.616-0.279-1.197l0.017-0.02 0.368 0.454 0.105 0.774 0.178 0.281 0.171 0.283-0.11 0.414 0.076 0.961 0.248 0.274-0.214 0.24-0.308-0.413-0.096-0.358zm0.262-6.498-0.055 0.222-0.166 0.303-0.467 0.358-0.02 0.339 0.029 0.178-0.115 0.47-0.288 0.405-0.092 0.13 0.051 0.633 0.142 0.151 5e-3 0.178 0.021 0.176-0.087 0.476v0.303l0.279 0.906 0.096 0.186-0.435-0.368-0.087-0.724-0.191-0.737-0.051-0.395 0.045-0.419 0.229-1.142 0.268-0.668 0.757-0.985 0.163-0.051zm0.233 1.025 0.02-0.08 0.01 5e-3 -0.202 0.651v-0.137zm-0.921 1.649 0.173-0.314 0.156-0.662v-0.02l0.02 4e-3c0.173 0.58-0.181 1.111-0.171 1.611l0.126 0.507 0.055 0.399-0.286-0.39-0.102-0.173zm0.243-1.695 0.233-0.097-0.128 0.658-0.115-0.071zm-0.509 1.396h0.024l0.38-0.773 0.055 0.041c-0.01 0.551-0.439 0.793-0.495 1.288l0.01-0.444 5e-3 0.02 0.031-0.061zm0.944-0.197-0.04 0.49-0.183 0.444v0.092l-0.029 0.101 0.01 0.479-0.087-0.844 0.163-0.596 0.061-1.168 0.268-0.49 0.172-0.085-0.03-0.031 1.021-0.242-0.445 0.03-0.839 0.688-0.021 0.029-0.084 0.426zm3.498-0.545-0.146 1.096-0.358 0.546 0.02 0.283-0.404-0.132 0.363 0.299-0.086 0.142-0.277-0.146-0.086-0.077 0.247 0.355-0.151 0.13-0.273-0.389-0.111 0.278-0.327-0.616 0.551-0.41-0.041-0.222-0.105-0.142v0.272l-0.127-5e-3 -0.465 0.045-0.223-0.04-0.171-0.024-0.041-0.229-0.065 0.293 0.166 0.229 0.399 0.197 0.015 0.232-0.424 0.455-0.04-0.284-0.128 0.229-0.337 0.034 0.327-0.332-0.298 0.084-0.183-0.091 0.416-0.268-0.436 0.056v-0.08c-0.262-0.324-0.476-0.754-0.485-1.29l0.202-0.995 0.146-0.277 0.238-0.232 0.536-0.086 0.51 0.151 0.552-0.126 0.616 0.171 0.173 0.178zm-0.132 3.309 0.101 0.146-0.051 0.531c0.021-0.48-0.439-0.692-0.317-1.183l0.102-0.324 0.125-0.808-0.039-0.101 0.181-0.36 0.082 0.192 0.182 0.601-0.178 0.577-0.247 0.531zm0.167-3.74-6e-3 -0.04 0.025 0.015 0.299 0.617-0.087 0.565 0.107 0.476 0.157 0.223-0.107 0.309-0.126-0.324-0.065-0.354 0.029-0.313zm1.102 2.476-0.096 0.339-0.268 0.334 0.056 0.586-0.112-0.132-0.08-0.151 0.02-0.976-0.07-0.176 0.116-0.451-0.137-0.241-0.111-0.219 0.132-0.439-0.101-0.717 0.034-5e-3 0.288 0.424 0.146 0.55-0.055 0.755zm-0.642-3.305 0.036-0.081 0.308 0.117-0.426 0.768-0.288-0.102 0.087-0.015 0.49-0.257zm-0.071 0.021-0.04 0.161 0.051 0.097-0.223 0.151-0.505-0.087zm-2.138-0.507 0.132-0.11zm0.198 0.137 0.303-0.151-0.151 0.299-0.373 0.105-0.349-0.132-0.855 0.041-0.515 0.374 0.758-0.688 0.425 0.031zm-3.746-6.013 0.178-0.091 0.688-0.137 0.029 0.101v0.017l-0.455 0.084-0.425 0.062zm-0.57 0.509-0.062-0.091 0.344-0.287h0.025l0.051 0.404 0.065 0.313 0.096 0.596 0.243 0.945c0.222 0.617 0.5 1.199 0.773 1.749l-0.081 0.243 0.105 0.137-0.056 0.197 0.426 0.227 0.115 0.273 0.097 0.293-0.183 0.161-0.263 0.339-0.541 0.945-0.105 0.197c0.041-2.294-0.137-4.498-1.051-5.928l0.01-0.178h0.01v-0.262zm0.607 9.856 0.01-0.121 0.069-0.415 0.063-0.217 0.029 5e-3 -0.085 0.49zm0.22-0.455 0.021-0.02h0.02l0.273 1.284 0.683 0.424 0.056 0.369 0.08 0.279-0.041 0.298-0.085-0.219-0.192-0.293-0.632-0.424-0.334-0.874zm1.76 3.089-0.041 0.142-0.101-0.162-0.061-0.606 0.092-0.803-0.219-0.375-0.166-0.637 0.12-0.697 0.058-0.729 0.166-0.332 0.081 0.151 0.061 0.681-0.173 0.411-0.051 0.742 0.123 0.309 0.293 0.662-0.01 0.323-0.072 0.637 0.188 0.358-0.01 0.961-0.232-0.218zm2.153-0.627 0.02-0.161-0.051-0.303 0.106-0.324-0.065-0.323 0.031-0.259-0.117-0.363-0.116 0.288-0.01 0.197 0.106 0.248-0.072 0.48 0.046 0.227-0.07 0.384 0.142 0.309-0.283 0.949-0.273 0.204-0.363 0.227 0.197-0.202 0.298-0.38-0.01-0.863 0.101-0.39 0.092-0.384-0.102-0.738 0.143-0.277-0.072-0.191-0.354 0.039-0.02 0.177 0.09 0.157 0.066 0.313 0.075 0.304-0.181 0.904-0.081-0.133-0.026-0.171 0.107-0.237-0.012-0.227 0.112-0.305-0.101-0.192-0.102-0.52-0.025-0.071-0.349-0.09-0.142-0.395 0.257-0.076 0.219-0.087 0.247 0.041 0.192-0.056 0.253 0.097 0.086-0.01 0.241 0.151 0.435-0.48-0.171 0.769 0.284 0.661 0.02 0.243-0.274 0.89-0.171-0.294 0.188-0.469-0.137-0.683-0.082-0.278-0.091-0.121-0.105-0.196-0.085 0.142 0.262 0.495 0.07 0.236 0.063 0.359-0.224 0.436 0.076 0.337 0.136 0.183 0.101 0.313 0.082 0.334-0.041 0.375-0.161 0.317-0.233 0.219-0.308 0.101-0.156 0.061-0.283-0.061 0.454-0.517 0.238-0.778zm2.628 0.571-0.082 0.162-0.23 0.408-0.77 0.587-0.222 0.223-0.252 0.202-0.137 0.024 0.096-0.096 0.142-0.126 0.024-0.117 0.39-0.403 0.101-0.248 0.041-0.142 0.222-0.181 0.146-0.209 0.117-0.293-0.031-0.979-0.069 0.652-0.319 0.646-0.036-0.293 0.173-0.299 0.041-0.601 0.091-0.264v-0.299l-0.057-0.206 0.071-0.277-0.056-0.238 0.092-0.334 0.089-0.04 0.092-0.102 0.192 0.541-0.01 0.627-0.015 0.445 0.187 0.762zm-17.648-18.443 0.262-0.167-0.247 0.197zm-0.219 1.273-0.105-0.682 0.132 0.425 0.045 0.455zm-0.308-1.218 0.137-0.09-0.046 0.061 0.142 0.435-0.122 0.05zm-0.06-0.454-0.385-0.616 0.128-0.708 0.02 0.091 0.03 0.476 0.258 0.839zm-0.161 0.865-0.444-0.021-0.233-0.161-0.076-1.192 0.05 0.692 0.067 0.394 0.384 0.243 0.241-0.021 0.142 6e-3zm21.55 19.735-0.222-0.055-0.501-0.046-0.455-0.051-0.469-0.091-0.36-0.202c-0.429-0.222-0.863-0.424-1.334-0.597l0.288-0.423 0.168-0.709 0.085-0.479-0.029-0.911c-0.077-0.909 0.01-1.805-0.041-2.648l-0.202-1.065-0.303-0.976-0.178-0.324-0.228-0.212-0.01-0.127-0.272-0.227-0.173-0.146-0.212-0.111-0.178-0.05-0.125-0.097-0.627-0.122-0.116-0.045-1.098-0.126-0.995-0.395-0.222-0.273-0.041-0.322-0.137-0.017c-0.161-0.591-0.267-1.188-0.413-1.748l-0.26-0.839-0.069-0.476-0.087-0.469-0.041-0.723 0.253-0.399v-0.096l-0.161-0.319-0.293-1.162-0.268-1.153-0.127-0.349-0.02-0.02-0.375-0.409-0.135-0.228-0.117-0.228-0.029-0.333-0.087-0.122 0.01-0.146-0.105-0.147-0.082-0.404-0.06-0.324-0.07-0.327-0.081-0.349-0.046-0.416 5e-3 -0.111-0.07-0.142-0.031-0.151-0.064-0.192-0.305-0.808-1.167-0.461h-0.01l-1.163 0.339-0.444 0.612-0.036 0.08-0.176 0.582-0.132 0.399-0.036 0.202-0.034 0.112 0.015 0.13-0.086 0.375v0.313l-0.051 0.45-0.065 0.177 0.056 0.167-0.086 0.156 0.03 0.248-0.091 0.384-0.086 0.123-0.02 0.125-0.192 0.213-0.122 0.212-0.304 0.724c-0.211 0.894-0.403 1.899-0.646 2.753l-0.161 0.511c-0.466-0.156-1.017-0.228-1.526-0.354l-0.081-0.238-0.304 0.061-0.363-0.106-0.182-0.106-0.354-0.582-0.294-0.178-0.471-0.226-0.389-0.269-0.024-0.13c-0.157-0.596-0.299-1.148-0.445-1.745l-0.056-0.267 0.056-0.111-0.046-0.228-0.166-0.697 0.638-0.308 0.176-0.536c-0.07-0.646-0.556-1.123-0.602-1.81l-0.021-0.414-0.146 0.181c-0.19 0.541 0.122 1.021 0.214 1.502l-0.151 0.57-0.304 0.142-0.062-0.738 0.036-0.373-0.137-0.168-0.131-0.176-0.476-0.901-0.183-0.282-0.029 0.202 0.085 0.692-0.046 0.682-0.05 0.202 0.103 0.106 0.089 0.171 0.349 0.668-0.079 0.161-0.592-0.409-0.046-0.86-0.329-0.808-0.232-0.116 0.112 0.227c0.171 0.511 0.085 1.355 0.101 1.966l0.323 0.586 0.829-5e-3 0.212 0.769 0.04 0.161 0.092 0.065 0.071 0.293c0.176 0.683 0.358 1.39 0.524 2.048l-0.079 0.116-0.021 0.319-0.02 0.146 0.08 0.166 0.112 0.318 0.142 0.334 0.171 0.137 0.096 0.329 0.077 0.354c0.181 0.692 0.332 1.363 0.515 2.062 0.576 2.299 1.142 4.584 1.688 6.878 0.105 0.461 0.253 0.92 0.319 1.39l-0.31 0.101-0.474 0.197-0.733 0.39-0.137 0.076c-0.587 0.409-1.041 1.097-1.409 1.738l-0.183 0.278-0.065 0.197-0.107 0.176-0.257 0.89 0.122 1.107-0.558 0.217 0.133 0.259-0.294 0.024-0.697 0.036-0.151 0.183 0.515 0.197 0.173-0.021 0.414 0.036 0.091 0.065h0.121l0.127 0.025 0.435-0.011-0.115 0.127 0.01 0.178 0.327 0.216 0.855-0.04 0.688 0.091-0.077 0.464 0.188 0.118 0.692 0.01h0.582l0.11 0.182 0.105 0.085 0.082 0.082 0.435 0.211 0.015 0.041 0.132 0.724 0.192 0.207 0.424 0.288 0.313 0.132 0.264 0.243 0.02-0.017h0.021l-0.051-0.142 0.08-0.395c0.183-0.844-0.308-1.445-0.676-1.834l-0.146-0.146 0.483-0.238 0.197 0.926 0.112 0.262 0.272-0.065-0.051-0.439-0.142-0.632-0.07-0.317 0.526-0.106 0.373 0.041 0.439-0.072 0.188 0.162 0.809-5e-3 0.353-0.106 0.467-0.12 0.379-0.178-0.066-0.132 0.319-0.075 0.439 0.056 0.248-0.031 0.57 0.071 0.288-0.071 0.379 0.046 0.516-0.024 0.658-0.156 0.161-0.102 0.252 0.056 0.293 0.015 0.279-0.075-0.137-0.183-0.967-0.096h-0.216l0.161-0.097 0.122-0.11 0.808 0.015 0.515 0.127 0.021 0.131 0.5 0.117c0.515 0.02 1.087 0.125 1.577 0.156l0.895 0.217-0.197 0.117-1.123 0.056-0.064 0.303 0.586 0.137h0.656l0.27-0.112 0.064-0.161 0.835-0.183-0.065-0.142 0.222-0.156 0.142-5e-3 0.202-0.056 0.187-0.192 0.38-0.02 0.363-0.224 0.425 0.036 0.445 0.087 0.435-0.067 0.222-0.135 0.404-0.158 0.01-0.101 0.359-0.683zm-7.884 2.416-0.212 0.063-0.168-0.072-0.339-0.065-0.373 0.243 0.373 0.115 0.012 0.178 0.762 0.142h0.572l0.267 0.08 0.512-0.13 0.116-0.219-0.714-0.181zm-1.027-2.825 0.319-0.156-0.618 0.187zm2.356-4.029 0.166 0.197 0.183-0.181zm-0.702-2.526 0.151 0.137-0.086-0.03 0.288 0.055 0.041 0.072zm0.288-0.156-0.603-0.015-0.106-0.062 0.229 0.278 0.666 0.303 0.072 0.072 0.091-0.103-0.081-0.222zm1.334 0.317-0.062 0.026 0.046-0.061 0.146-0.177v0.201l0.213-0.201 0.08 0.045zm0.529-0.368-0.398-0.06-0.277 0.176-0.127 0.395 0.051 0.081 0.076-0.081 0.57-0.07 0.178-0.288 0.091-0.248-0.03-0.01zm-1.08-0.026-0.103-0.151-0.201 0.182-0.162-0.03 0.37 0.045 0.327-0.024zm-6.055-6.241-0.163-0.026-0.12-0.329 0.222-0.322 0.021 0.015zm-0.1-0.708-0.395 0.228-0.026 0.368 0.44 0.279 0.439-0.257zm-0.027-6.08v-0.031l0.115 0.016zm0.464-0.273-0.074 0.036-0.137-0.031-0.138 0.031-0.327 0.031-0.117-0.051v0.13l0.146 5e-3 0.137 0.223h0.299l0.122-0.211 0.176-0.036z"/>
	<polygon points="439.2 109.25 439.19 19.499 426.33 116.12" fill="#ef7d00"/>
	<polygon points="414.55 143.43 411.68 129.4 362.06 113.19" fill="#ef7d00"/>
	<polygon points="466.78 129.34 516.32 113.19 456.55 119.62" fill="#ef7d00"/>
	<polygon points="462.2 148.91 456.38 161.58 487.96 204.35" fill="#ef7d00"/>
	<polygon points="421.98 161.54 390.42 204.35 436.34 163.65" fill="#ef7d00"/>
	<polygon points="461.52 147.44 440.98 162.6 455.57 160.52" fill="#ef7d00"/>
	<polygon points="437.4 162.6 416.89 147.46 422.73 160.5" fill="#ef7d00"/>
	<polygon points="415.9 143.99 423.41 120.03 412.98 129.81" fill="#ef7d00"/>
	<polygon points="462.5 143.98 454.98 120.02 465.4 129.81" fill="#ef7d00"/>
	<polygon points="426.18 117.83 452.22 117.83 439.2 110.78" fill="#ef7d00"/>
	<path d="m337.06 246.11c-0.517 0.418-1.087 0.742-1.714 0.983-0.622 0.233-1.27 0.355-1.936 0.355-0.637 0-1.144-0.224-1.507-0.673-0.363-0.44-0.495-0.966-0.39-1.577l1.209-6.829h5.7zm-28.379-1.704h-6.041l1.063-6.036h6.039zm72.329-9.826c0-2.719-0.668-4.972-2.017-6.763-1.344-1.793-3.053-2.683-5.101-2.683-1.784 0-3.284 0.52-4.528 1.561-1.233 1.043-2.001 2.423-2.304 4.142-0.101 0.579-0.132 1.176-0.081 1.793 0.076 0.602 0.223 1.192 0.454 1.748h4.115c-0.304-0.449-0.507-0.985-0.587-1.606-0.091-0.627-0.071-1.283 0.051-1.976 0.11-0.607 0.39-1.138 0.829-1.582 0.429-0.439 0.914-0.663 1.45-0.663 1.076 0 1.997 0.563 2.764 1.683 0.748 1.123 1.199 2.574 1.324 4.347h-105.97l-0.666 3.79h18.148l-0.476 2.664h-8.697l-0.658 3.751c0.553 0 0.987 0.197 1.315 0.602 0.308 0.399 0.425 0.895 0.308 1.471-0.09 0.592-0.354 1.087-0.753 1.506-0.409 0.41-0.849 0.622-1.319 0.622-1.087 0-1.95-0.707-2.587-2.104-0.646-1.404-0.89-3.144-0.738-5.226l-4.074 0.875c0.01 2.941 0.658 5.372 1.921 7.283 1.274 1.926 2.882 2.88 4.822 2.88 1.581 0 3.021-0.565 4.336-1.688 1.31-1.122 2.104-2.477 2.38-4.064l-0.171-1.161-0.824-0.996h4.079l-1.865 10.608h4.16l2.996-17.023h6.5l-1.061 6.036h-1.133l-1.273 0.398-0.668 0.94c-0.186 1.097 0.238 2.329 1.284 3.675 1.062 1.349 2.112 2.026 3.16 2.026l1.166-0.466 0.646-1.075 0.305-1.709h6.034l-1.27 7.197h4.161l3.002-17.023h5.832l-3.003 17.023h4.161l2.995-17.023h4.671l-1.202 6.829c-0.283 1.577 0.12 2.982 1.212 4.199 1.093 1.219 2.487 1.836 4.175 1.836 0.697 0 1.351-0.081 1.962-0.254 0.605-0.156 1.146-0.394 1.617-0.702l-0.905 5.115c-0.662 0.243-1.289 0.592-1.895 1.061-1.214 0.961-1.952 2.124-2.194 3.478-0.231 1.36 0.112 2.518 1.031 3.474 0.93 0.959 2.168 1.435 3.73 1.435l1.354-0.137 1.324-0.439-0.556-2.289-0.89 0.272-0.875 0.101c-0.637 0-1.146-0.217-1.51-0.666-0.365-0.439-0.495-0.971-0.385-1.583 0.102-0.606 0.414-1.133 0.95-1.582 0.521-0.445 1.102-0.656 1.738-0.656 1.158 0 2.603 0.718 4.316 2.153 1.709 1.444 3.659 3.531 5.849 6.291l2.587-1.96c-2.572-3.002-4.938-5.302-7.08-6.903-1.346-1.017-2.538-1.668-3.594-2.048h0.268l3.002-17.023h23.966l-0.464 2.664h-8.704l-0.656 3.751c0.556 0 0.99 0.197 1.31 0.602 0.317 0.399 0.424 0.895 0.327 1.471-0.11 0.592-0.358 1.087-0.762 1.506-0.421 0.41-0.844 0.622-1.324 0.622-1.087 0-1.942-0.707-2.584-2.104-0.636-1.404-0.89-3.144-0.738-5.226l-4.072 0.875c0 2.941 0.646 5.372 1.921 7.283 1.263 1.926 2.875 2.88 4.821 2.88 1.587 0 3.022-0.565 4.337-1.688 1.303-1.122 2.092-2.477 2.38-4.064l-0.178-1.161-0.817-0.996h4.084l-1.882 10.608h4.17l3.008-17.023h5.826l-3.002 17.023h3.786l3.002-17.023h3.331l0.662-3.79h-3.322zm-37.942-1.789c1.582 0 3.133-0.615 4.654-1.849 1.526-1.24 2.689-2.821 3.507-4.767l-2.88-0.956c-0.656 1.249-1.425 2.255-2.295 3.019-0.858 0.763-1.662 1.142-2.385 1.142-0.945 0-1.784-0.394-2.517-1.188-0.729-0.793-1.224-1.834-1.462-3.139l-3.067 1.334c0.354 1.906 1.133 3.457 2.306 4.635 1.183 1.183 2.558 1.769 4.139 1.769zm3.604-7.444-1.921-2.087-2.658 2.087 1.926 2.077zm-109.57 21.347c-0.516 0.582-1.103 1.048-1.745 1.375-0.642 0.329-1.257 0.507-1.829 0.507-0.753 0-1.359-0.273-1.839-0.8-0.476-0.52-0.651-1.137-0.531-1.829 0.11-0.666 0.5-1.243 1.137-1.724 0.647-0.49 1.344-0.733 2.127-0.733 0.586 0 1.127 0.158 1.639 0.461 0.525 0.304 0.96 0.722 1.313 1.248zm18.523-19.002c-2.127-1.704-4.538-2.558-7.223-2.558-2.587 0-4.75 0.57-6.51 1.707-1.759 1.133-2.8 2.645-3.129 4.534-0.106 0.557-0.116 1.093-0.055 1.603 0.067 0.521 0.192 0.98 0.405 1.399h4.246c-0.248-0.358-0.404-0.803-0.476-1.313-0.081-0.516-0.065-1.076 0.041-1.688 0.142-0.777 0.688-1.445 1.647-1.996 0.951-0.551 2.033-0.829 3.23-0.829 1.906 0 3.623 0.546 5.166 1.623 1.526 1.076 2.663 2.547 3.421 4.406h-28.718l-0.667 3.79h11.2l-0.5 2.832c-0.389-0.358-0.819-0.638-1.293-0.839-0.48-0.188-0.997-0.284-1.552-0.284-1.779 0-3.401 0.582-4.861 1.724-1.466 1.153-2.346 2.538-2.629 4.145-0.334 1.855 0.031 3.387 1.067 4.604 1.036 1.203 2.512 1.804 4.423 1.804 0.585 0 1.132-0.075 1.642-0.227 0.52-0.158 0.98-0.384 1.399-0.683l-0.707 3.947h4.164l1.598-9.077c0.678-0.667 1.395-1.173 2.147-1.531 0.754-0.364 1.487-0.545 2.18-0.545l0.839 0.545c0.197 0.358 0.252 0.799 0.161 1.325-0.137 0.776-0.637 1.57-1.495 2.38-0.865 0.803-1.952 1.466-3.266 1.995l1.476 3.418c1.901-0.865 3.478-2.002 4.762-3.396 1.274-1.406 2.041-2.872 2.305-4.396 0.293-1.608 0.029-2.988-0.759-4.142-0.803-1.146-1.899-1.724-3.315-1.724-0.757 0-1.496 0.128-2.238 0.401-0.743 0.257-1.401 0.637-1.987 1.137l0.603-3.413h13.358l-3.012 17.023h3.796l3.002-17.023h3.33l0.656-3.79h-3.32c-0.908-2.88-2.42-5.176-4.552-6.888zm-40.989 0.061 2.39 2.456 3.317-2.456-2.422-2.618zm-2.007 1.709c-0.546-1.33-1.142-2.387-1.82-3.166-0.666-0.771-1.314-1.161-1.952-1.161h-3.587l-0.596 3.416h1.496c0.495 0 0.98 0.183 1.425 0.563 0.445 0.373 0.788 0.878 1.031 1.515l1.971 3.952h-57.769l-0.328-1.309 0.044-1.349c0.173-0.946 0.699-1.744 1.588-2.396 0.89-0.651 1.89-0.976 3.002-0.976 2.224 0 4.224 0.505 5.998 1.536 1.774 1.026 3.108 2.457 4.009 4.291h4.539c-1.598-2.911-3.654-5.19-6.192-6.813-2.532-1.617-5.25-2.431-8.163-2.431-2.162 0-3.993 0.536-5.488 1.606-1.49 1.063-2.396 2.487-2.709 4.257-0.106 0.637-0.151 1.257-0.142 1.86 0.026 0.596 0.101 1.176 0.257 1.722h-3.532l-0.668 3.79h3.332l-3.002 17.023h4.154l3.002-17.023h9.952c0.274 0.668 0.445 1.306 0.541 1.916 0.082 0.612 0.082 1.163 0 1.663-0.106 0.556-0.404 1.082-0.925 1.563-0.515 0.485-1.041 0.729-1.572 0.729l-1.156-0.558c-0.399-0.39-0.729-0.89-0.971-1.521l-3.325 1.87c0.676 2.497 1.657 4.793 2.952 6.894 1.284 2.089 2.861 3.902 4.7 5.429l3.134-2.664c-1.042-1.024-1.952-2.031-2.74-3.017-0.789-0.98-1.426-1.936-1.931-2.851 1.344-0.222 2.542-0.89 3.608-2.006 1.041-1.103 1.709-2.391 1.966-3.867 0.116-0.666 0.151-1.288 0.106-1.89-0.051-0.596-0.183-1.163-0.395-1.689h5.995l-0.264 0.563c-0.07 0.262-0.151 0.642-0.248 1.146-0.197 1.138 0.163 2.138 1.072 3.018 0.925 0.869 2.067 1.31 3.452 1.31l0.445-0.046 0.551-0.12 1.552-3.413c-0.884 0-1.618-0.166-2.178-0.5-0.572-0.339-0.814-0.733-0.724-1.202l0.551-0.688 1.113-0.273c0.834 0 1.49 0.314 1.976 0.961 0.485 0.632 0.646 1.395 0.495 2.283-0.202 1.168-0.753 2.194-1.632 3.079-0.875 0.89-1.865 1.436-2.988 1.623-0.373-0.36-0.808-0.638-1.284-0.829-0.48-0.197-1-0.294-1.561-0.294-0.935 0-1.795 0.277-2.564 0.829-0.757 0.561-1.202 1.229-1.344 2.006-0.137 0.754 0.082 1.375 0.622 1.891 0.546 0.521 1.269 0.772 2.159 0.772 0.469 0 0.914-0.039 1.344-0.105l1.173-0.272c1.015 0.551 2.046 1.375 3.087 2.436 1.047 1.067 2.098 2.392 3.149 3.978l2.512-2.461c-0.435-1.132-1.015-2.183-1.748-3.135-0.733-0.964-1.582-1.798-2.533-2.526 1.471-0.778 2.704-1.788 3.699-3.038 0.997-1.248 1.613-2.567 1.865-3.952 0.118-0.666 0.137-1.264 0.067-1.798-0.082-0.517-0.243-0.931-0.49-1.24h16.148l-0.471 2.664h-5.539c-1.663 0-3.18 0.562-4.56 1.689-1.379 1.122-2.208 2.476-2.492 4.053-0.303 1.754-0.065 3.457 0.733 5.101 0.793 1.651 2.027 3.017 3.726 4.104l3.063-2.457c-1.284-0.976-2.209-2.041-2.81-3.224-0.586-1.189-0.798-2.326-0.596-3.442 0.106-0.576 0.38-1.071 0.839-1.471 0.455-0.404 0.959-0.602 1.476-0.602h5.5l-1.87 10.608h4.154l3.012-17.023h5.822l-3.002 17.023h4.166l3.002-17.023h3.334l0.663-3.79h-3.331z"/>
	<path d="m69.239 143.9-5.019-4.216-4.942 4.216 4.942 4.221zm194.97 0-5.019-4.216-4.938 4.216 4.938 4.221zm77.971 24.255c-0.774 0.788-1.674 1.4-2.726 1.851-1.041 0.464-2.097 0.692-3.169 0.692-1.648 0-3.083-0.339-4.362-0.991-1.258-0.662-2.122-1.552-2.607-2.68 1.744-0.242 3.18-0.858 4.326-1.849 1.137-0.99 1.709-2.117 1.709-3.346 0-1.041-0.217-2.017-0.617-2.952-0.414-0.93-1.016-1.699-1.779-2.314h9.226v11.589zm-62.188-17.24c-0.436-0.625-0.758-1.268-0.97-1.949-0.232-0.678-0.339-1.36-0.339-2.022 0-1.405 0.692-2.588 2.026-3.563 1.37-0.975 3.013-1.46 4.964-1.46 3.871 0 7.51 0.768 10.931 2.304 3.428 1.526 6.197 3.644 8.719 6.691h-25.331zm33.256 0c-4.072-4.659-8.37-8.036-13.291-10.451-4.918-2.416-9.927-3.63-15.016-3.63-3.776 0-6.808 0.789-9.084 2.392-2.283 1.587-3.421 3.719-3.421 6.349 0 0.964 0.106 1.875 0.329 2.759 0.212 0.899 0.534 1.753 0.975 2.582h-32.675v5.651h15.052v2.779h-9.31c-1.552 0-2.86 0.48-3.954 1.43-1.101 0.956-1.647 2.084-1.647 3.413 0 2.067 0.728 3.981 2.183 5.767 1.461 1.77 3.074 2.658 4.802 2.658 0.969 0 2.457-0.081 4.438-0.273 1.98-0.183 3.457-0.271 4.437-0.271 0.577 0 1.067 0.156 1.455 0.483l0.586 1.189c0 0.99-0.748 1.88-2.193 2.663-1.456 0.788-3.245 1.243-5.389 1.358-0.717-0.875-1.606-1.541-2.688-2.031-1.051-0.515-2.137-0.764-3.265-0.764-1.497 0-2.704 0.35-3.598 1.057-0.896 0.702-1.334 1.663-1.334 2.86 0 1.416 0.635 2.613 1.92 3.594 1.272 0.991 2.844 1.496 4.68 1.496h2.618c2.051 2.057 4.104 3.73 6.226 4.982 2.103 1.265 4.115 2.033 5.995 2.331l1.673-4.78c-1.644-0.618-3.079-1.284-4.286-2.022-1.218-0.713-2.209-1.446-2.988-2.188 2.765-0.859 4.979-2.097 6.646-3.654 1.683-1.577 2.512-3.219 2.512-4.901 0-2.038-0.61-3.706-1.855-5.024-1.238-1.341-2.789-1.997-4.675-1.997-0.974 0-2.421 0.097-4.336 0.293-1.909 0.178-3.346 0.274-4.325 0.274-0.627 0-1.158-0.173-1.608-0.502-0.435-0.327-0.646-0.743-0.646-1.238l0.394-0.772 0.909-0.329h13.237v-7.879h10.649v25.352h7.278v-25.352h26.083v2.229h-9.223c-1.546 0-2.881 0.476-3.993 1.425-1.122 0.936-1.683 2.082-1.683 3.411 0 1.855 1.051 3.726 3.158 5.605 2.113 1.885 4.216 2.832 6.303 2.832h6.091c0.727 0 1.344 0.19 1.864 0.579 0.506 0.395 0.764 0.865 0.764 1.396 0 0.863-0.551 1.582-1.668 2.142-1.123 0.556-2.521 0.845-4.226 0.845-2.527 0-4.771-0.561-6.753-1.647-1.99-1.102-3.375-2.558-4.153-4.377l-5.303 2.785c1.112 2.567 3.149 4.64 6.105 6.217 2.957 1.561 6.303 2.349 10.028 2.349 4.067 0 7.252-0.722 9.531-2.173 2.27-1.445 3.423-3.462 3.423-6.084 0-1.846-0.961-3.442-2.872-4.781-1.931-1.305-4.23-1.967-6.954-1.967l-5.079-0.064c-0.733 0-1.359-0.192-1.86-0.582-0.5-0.395-0.763-0.865-0.763-1.4l0.476-0.626c0.303-0.163 0.722-0.233 1.192-0.233h8.945c1.071 0 1.992-0.262 2.771-0.793 0.763-0.517 1.161-1.117 1.161-1.819v-5.267h12.015c0.728 0.444 1.298 1.056 1.713 1.819 0.395 0.763 0.606 1.597 0.606 2.512 0 0.834-0.637 1.556-1.921 2.204-1.283 0.631-2.841 1.02-4.689 1.147 0.288 3.387 1.829 6.242 4.608 8.54 2.79 2.342 6.096 3.493 9.927 3.493 1.026 0 2.041-0.142 3.053-0.445 1.026-0.283 1.972-0.696 2.842-1.228v7.309h7.271v-25.352h7.778v25.352h7.269v-25.352h3.462v-5.651h-54.709zm-111 17.175c-0.616 0.707-1.414 1.263-2.31 1.673-0.945 0.419-1.93 0.627-2.996 0.627-0.92 0-1.699-0.305-2.331-0.896-0.632-0.616-0.94-1.339-0.94-2.207v-10.721h8.577zm13.595-8.744c-1.02 0-2.072 0.191-3.154 0.591-1.096 0.39-2.152 0.961-3.164 1.714v-5.084h15.223v-5.651h-71.582v5.651h2.598v7.313c-0.48 0.37-1.007 0.648-1.593 0.829-0.58 0.183-1.167 0.278-1.748 0.278h-2.627c-0.713-0.358-1.391-0.646-2.033-0.834-0.625-0.188-1.162-0.273-1.587-0.273 1.486-0.459 2.689-1.248 3.599-2.39 0.889-1.137 1.344-2.416 1.344-3.811 0-2.148-1.142-4.06-3.426-5.718-2.274-1.646-4.867-2.48-7.773-2.48-2.087 0-4.012 0.269-5.786 0.81-1.764 0.55-3.26 1.298-4.464 2.298l4.291 4.524c1.017-0.707 2.038-1.243 3.048-1.633 1.021-0.398 1.981-0.605 2.911-0.605 1.072 0 1.992 0.281 2.759 0.817 0.779 0.536 1.163 1.204 1.163 1.987 0 1.116-0.646 2.147-1.961 3.097-1.315 0.956-2.745 1.421-4.296 1.421h-1.007l1.007 4.523h1.678c1.546 0 2.875 0.431 3.967 1.248 1.086 0.829 1.634 1.836 1.634 3.038 0 1.209-0.501 2.229-1.497 3.067-0.985 0.844-2.183 1.273-3.593 1.273-2.421 0-4.726-1.026-6.918-3.067-2.164-2.047-3.812-4.699-4.928-7.976l-4.944 2.548c1.259 4.301 3.452 7.824 6.567 10.577 3.127 2.745 6.539 4.115 10.224 4.115 3.391 0 6.292-1.128 8.718-3.36 2.437-2.27 3.639-4.954 3.639-8.104 0.875-0.079 1.608-0.171 2.214-0.257 0.606-0.082 1.091-0.178 1.42-0.303v12.397h7.278v-25.352h8.132v25.352h7.277v-25.352h7.946v10.721c0 2.517 0.991 4.604 2.991 6.271 1.976 1.651 4.509 2.466 7.552 2.466 0.637 0 1.395-0.127 2.293-0.369 0.904-0.248 1.901-0.592 3.012-1.046v7.309h7.278v-12.953c1.062-1.077 2.164-1.916 3.265-2.523 1.113-0.585 2.134-0.895 3.053-0.895 0.733 0 1.351 0.233 1.86 0.688 0.505 0.449 0.752 0.985 0.752 1.607 0 1.152-0.55 2.34-1.668 3.539-1.111 1.202-2.637 2.264-4.579 3.229l3.634 4.767c2.81-1.152 5.05-2.781 6.728-4.863 1.673-2.087 2.502-4.31 2.502-6.671 0-2.437-0.87-4.478-2.62-6.074-1.736-1.607-3.945-2.421-6.609-2.421zm-47.963-16.395c2.315 1.395 4.791 2.087 7.44 2.087 2.653 0 5.053-0.733 7.247-2.194 2.173-1.44 3.875-3.567 4.664-5.856l-7.555-0.021c-0.469 0.94-1.404 3.125-4.599 3.125-3.154 0-4.56-2.271-5.06-3.257h-7.61c1.188 2.912 3.149 4.725 5.473 6.116zm-83.115 26.014c-0.732 0.858-1.612 1.541-2.633 2.041-1.011 0.49-2.031 0.748-3.042 0.748-1.314 0-2.466-0.385-3.458-1.188-0.986-0.789-1.486-1.688-1.486-2.725 0-0.99 0.475-1.855 1.451-2.578 0.97-0.717 2.148-1.075 3.493-1.075 1.011 0 2.021 0.222 3.012 0.681 0.996 0.451 1.875 1.072 2.663 1.851zm-32.675 0.212c-0.405 0.52-0.915 1.005-1.537 1.461l-5.307-6.449 0.688-0.224 0.626-0.086c1.062 0 2.143 0.324 3.225 0.946 1.092 0.646 2.103 1.556 3.013 2.709-0.081 0.58-0.329 1.126-0.708 1.643zm-5.206 3.355-0.99 0.081c-1.395 0-2.679-0.471-3.846-1.425-1.167-0.94-1.749-1.977-1.749-3.099 0-0.536 0.177-1.026 0.541-1.485 0.379-0.456 0.839-0.81 1.435-1.058l5.59 6.757zm51.391-13.186c-1.305 0-2.558 0.191-3.766 0.591-1.229 0.39-2.258 0.961-3.128 1.714v-5.084h14.146v-5.651h-45.816c-1.789-4.219-2.876-7.808-5.175-10.392-2.304-2.582-5.418-3.689-7.41-3.689h-11.846v4.469h7.935c1.84 0 4.863 0.021 6.399 0.956 1.526 0.929 2.598 2.602 3.22 4.128 0 0-2.198-2.097-5.23-2.811-1.608-0.389-3.912-0.535-5.697-0.535h-6.627v4.463h7.273c1.708 0 3.366 0.299 4.983 0.895 1.627 0.607 3.038 1.436 4.261 2.517h-16.517v5.651h16.87v4.523c-0.859-0.747-1.91-1.319-3.124-1.709-1.213-0.408-2.466-0.586-3.78-0.586-3.103 0-5.746 0.91-7.965 2.714-2.204 1.819-3.306 4.023-3.306 6.581 0 2.855 1.132 5.211 3.382 7.075 2.259 1.865 5.1 2.775 8.536 2.775 1.274 0 2.436-0.132 3.498-0.425 1.066-0.289 1.986-0.697 2.759-1.233v5.636h7.268v-25.352h24.695v4.209c-0.784-0.541-1.618-0.949-2.522-1.238-0.89-0.288-1.834-0.444-2.795-0.444-3.098 0-5.762 0.87-7.955 2.579-2.203 1.717-3.31 3.774-3.31 6.17 0 2.76 1.101 5.054 3.27 6.858 2.184 1.8 4.938 2.689 8.289 2.689 1.011 0 1.951-0.112 2.799-0.334 0.84-0.232 1.587-0.571 2.225-1.031v5.894h7.268v-13.521c0.964-0.98 2.058-1.753 3.265-2.293 1.204-0.536 2.432-0.8 3.629-0.8 0.637 0 1.188 0.264 1.637 0.8 0.455 0.54 0.697 1.207 0.697 1.985 0 1.161-0.625 2.344-1.899 3.538-1.264 1.197-2.947 2.192-5.075 2.981l3.628 5.084c3.058-1.284 5.48-2.967 7.269-5.059 1.798-2.083 2.694-4.275 2.694-6.545 0-2.396-0.865-4.454-2.619-6.171-1.744-1.713-3.847-2.572-6.333-2.572zm92.202 22.951 4.949 4.211 5.002-4.211-5.002-4.227z" fill="#fff"/>
</g>
</svg>
