<?xml version="1.0" encoding="UTF-8" standalone="no"?>
<svg
   xmlns:dc="http://purl.org/dc/elements/1.1/"
   xmlns:cc="http://creativecommons.org/ns#"
   xmlns:rdf="http://www.w3.org/1999/02/22-rdf-syntax-ns#"
   xmlns:svg="http://www.w3.org/2000/svg"
   xmlns="http://www.w3.org/2000/svg"
   xmlns:sodipodi="http://sodipodi.sourceforge.net/DTD/sodipodi-0.dtd"
   xmlns:inkscape="http://www.inkscape.org/namespaces/inkscape"
   viewBox="0 0 57.200001 69.699997"
   version="1.1"
   id="svg8"
   sodipodi:docname="LOGO. (1).svg"
   width="57.200001"
   height="69.699997"
   inkscape:version="0.92.5 (2060ec1f9f, 2020-04-08)">
  <metadata
     id="metadata14">
    <rdf:RDF>
      <cc:Work
         rdf:about="">
        <dc:format>image/svg+xml</dc:format>
        <dc:type
           rdf:resource="http://purl.org/dc/dcmitype/StillImage" />
        <dc:title></dc:title>
      </cc:Work>
    </rdf:RDF>
  </metadata>
  <defs
     id="defs12" />
  <sodipodi:namedview
     pagecolor="#ffffff"
     bordercolor="#666666"
     borderopacity="1"
     objecttolerance="10"
     gridtolerance="10"
     guidetolerance="10"
     inkscape:pageopacity="0"
     inkscape:pageshadow="2"
     inkscape:window-width="1920"
     inkscape:window-height="1043"
     id="namedview10"
     showgrid="false"
     inkscape:zoom="1.5733333"
     inkscape:cx="25.022034"
     inkscape:cy="30.7"
     inkscape:window-x="1920"
     inkscape:window-y="0"
     inkscape:window-maximized="1"
     inkscape:current-layer="svg8" />
  <path
     d="m -46.8,-36 h 150 v 150 h -150 z"
     id="path2"
     inkscape:connector-curvature="0"
     style="fill:#ffffff" />
  <path
     d="m 56.9,20 c 0.2,-1.6 0.3,-3.2 0.3,-4.6 C 57.2,5.2 51.4,0 39.7,0 H 28.6 c 15.1,18 14,14.3 12.9,22.3 -0.5,3.3 -2.4,4.9 -5.7,4.9 H 34.2 A 11.38,11.38 0 0 0 22.9,37.4 l -0.5,4.7 h 11.3 c 2.9,0 4.4,1.3 4.4,3.9 0,0.6 0,0.7 -0.4,3.7 -0.5,3.3 -2.4,5 -5.7,5 H 17.1 L 20.1,32.8 7.3,18 0,69.7 h 29.9 c 13.3,0 20.8,-6.6 22.7,-19.9 0.2,-1.7 0.3,-3.2 0.3,-4.6 0,-6.1 -2.2,-9.6 -6.7,-10.4 5.9,-0.9 9.4,-5.9 10.7,-14.8 z"
     id="path4"
     inkscape:connector-curvature="0" />
  <path
     d="M 24.8,0.7 10.9,1 8.8,14.6 20.1,27.8 22.2,14.3 36.1,14 Z"
     id="path6"
     inkscape:connector-curvature="0"
     style="fill:#ffdd33" />
</svg>
