<?xml version="1.0" encoding="UTF-8" standalone="no"?>
<svg
   version="1.1"
   id="Слой_1"
   x="0px"
   y="0px"
   viewBox="0 0 250 43.118472"
   xml:space="preserve"
   class="img-svg replaced-svg"
   width="250"
   height="43.118469"
   xmlns="http://www.w3.org/2000/svg"
   xmlns:svg="http://www.w3.org/2000/svg"><defs
   id="defs220">
	
	
</defs>
<style
   type="text/css"
   id="style191">
	.st0{fill:#F2CD2C !important;}
</style>
<g
   id="g211"
   transform="scale(4.3554007)">
		<path
   class="st0"
   d="m 13,6.5 c 0,-0.1 0,-0.2 0,-0.4 h 0.7 c 0,0.1 0,0.2 0,0.3 0,0.5 0.4,0.7 1,0.7 0.9,0 1.4,-0.4 1.4,-1.1 C 16.1,5.6 15.8,5.4 14.9,5.3 13.9,5 13.5,4.7 13.5,4 c 0,-1.2 0.8,-1.9 2.1,-1.9 1.1,0 1.6,0.4 1.6,1.2 0,0.1 0,0.2 0,0.4 h -0.7 c 0,-0.1 0,-0.2 0,-0.3 0,-0.5 -0.3,-0.7 -0.9,-0.7 -0.8,0 -1.4,0.4 -1.4,1.1 0,0.4 0.3,0.5 1.1,0.7 1.1,0.2 1.6,0.6 1.6,1.3 0,1.3 -0.8,1.9 -2.1,1.9 C 13.6,7.8 13,7.3 13,6.5 Z"
   id="path193" />
		<path
   class="st0"
   d="m 19.1,2.3 h 3.5 L 22.5,3 h -2.8 l -0.3,1.7 h 2.4 L 21.7,5.4 H 19.3 L 19,7 h 2.9 l -0.1,0.7 h -3.6 z"
   id="path195" />
		<path
   class="st0"
   d="m 25.1,2.9 h -1.6 l 0.1,-0.7 h 3.9 L 27.4,2.9 H 25.8 L 25,7.7 h -0.7 z"
   id="path197" />
		<path
   class="st0"
   d="m 30,2.9 h -1.6 l 0.1,-0.7 h 3.9 l -0.1,0.7 h -1.6 l -0.8,4.7 h -0.7 z"
   id="path199" />
		<path
   class="st0"
   d="m 33.7,2.3 h 0.7 L 33.6,7 h 2.6 l -0.1,0.7 h -3.3 z"
   id="path201" />
		<path
   class="st0"
   d="m 38.4,2.3 h 3.5 L 41.8,3 H 39 l -0.3,1.7 h 2.4 L 41,5.2 H 38.6 L 38.3,7 h 2.9 l -0.1,0.7 h -3.6 z"
   id="path203" />
		<path
   class="st0"
   d="m 43.5,2.3 h 2.1 c 1.2,0 1.7,0.4 1.7,1.5 0,1.3 -0.8,2.1 -2.3,2.1 h -1 l -0.3,1.9 h -1.2 z m 1.6,2.5 c 0.6,0 1,-0.3 1,-0.9 0,-0.4 -0.2,-0.6 -0.7,-0.6 h -0.9 l -0.3,1.5 z"
   id="path205" />
		<path
   class="st0"
   d="M 49.8,2.3 H 51 l 0.9,5.4 H 50.7 L 50.6,6.6 H 48.9 L 48.4,7.7 H 47 Z m 0.6,3.3 -0.2,-2 -0.9,2 z"
   id="path207" />
		<path
   class="st0"
   d="M 53.9,5.4 52.7,2.3 H 54 l 0.7,2 1.4,-2 h 1.3 l -2.3,3.2 -0.4,2.2 h -1.2 z"
   id="path209" />
	</g><path
   class="st0"
   d="M 6.968641,17.857143 21.777003,3.9198606 V 10.888502 H 40.505227 C 36.585366,4.3554007 29.616725,0 21.777003,0 9.581881,0 0,9.5818815 0,21.777003 c 0,1.306621 0,2.613242 0.43554,3.919861 H 36.585366 L 21.777003,39.198606 v -6.96864 H 2.61324 c 3.919861,6.533101 10.888502,10.888502 19.163763,10.888502 11.759582,0 21.777004,-9.581883 21.777004,-21.777004 0,-1.306621 0,-2.613241 -0.43554,-3.919861 z"
   id="path213"
   style="stroke-width:4.3554" />
</svg>
