<?xml version="1.0" encoding="UTF-8"?>
<svg class="icon" width="512" height="499.51" version="1.1" viewBox="0 0 511.99805 999.01441" xmlns="http://www.w3.org/2000/svg" xmlns:cc="http://creativecommons.org/ns#" xmlns:dc="http://purl.org/dc/elements/1.1/" xmlns:rdf="http://www.w3.org/1999/02/22-rdf-syntax-ns#">
<metadata>
<rdf:RDF>
<cc:Work rdf:about="">
<dc:format>image/svg+xml</dc:format>
<dc:type rdf:resource="http://purl.org/dc/dcmitype/StillImage"/>
<dc:title/>
</cc:Work>
</rdf:RDF>
</metadata>
<path d="m469.32 129.12c-33.797-79.365-121.45-129.12-215.94-129.12-133.37 0-241.6 104.92-241.6 234.3 0 13.517-0.1024 27.059 3.4611 39.66 4.3776 15.59 8.4531 18.55 19.702 8.7552 59.766-51.932 136.17-86.088 221.58-86.088 26.885 0 52.956 3.2307 77.947 9.3389 11.96 2.8774 11.868 3.2358 22.339-3.2051 31.611-19.471 66.995-35.405 104.46-50.115 9.175-3.584 13.445-10.86 8.0384-23.521m-523.5 71.199c-85.985 7.6032-160.46 75.663-189.57 165.49-41.226 126.86 25.098 262.19 148.13 302.18 12.882 4.183 25.759 8.448 38.794 8.9549 16.184 0.67072 20.26-2.2477 14.459-15.98-30.956-72.929-39.808-156.15-13.44-237.37 8.3456-25.559 19.451-49.347 32.993-71.245 6.4-10.435 6.7072-10.25 3.8144-22.216-8.704-36.116-12.933-74.711-15.38-114.88-0.5632-9.769-6.1645-16.154-19.799-14.93zm-94.172 519.95c-19.297 84.111 22.446 175.93 98.852 231.43 107.92 78.423 257.13 57.144 333.19-47.508 7.9309-10.957 15.923-21.868 20.506-34.166 5.6115-15.176 4.0755-19.927-10.783-18.632-78.848 6.8403-160.76-10.414-229.89-60.631-21.688-15.754-40.934-33.725-57.569-53.34-7.9462-9.3696-7.6902-9.5744-19.912-10.527-37.069-2.8518-75.09-10.767-114.03-20.859-9.4822-2.4678-17.265 0.86016-20.362 14.228zm465.48 250.18c74.01 44.36 174.2 33.055 250.6-22.436 107.98-78.413 133.84-226.9 57.779-331.58-7.9923-10.941-15.892-21.955-26.112-30.049-12.733-10.025-17.766-10.056-21.074 4.4493-17.869 77.143-59.617 149.71-128.75 199.93-21.673 15.785-44.698 28.508-68.526 38.277-11.29 4.6285-11.448 4.3059-16.123 15.713-14.198 34.34-33.449 68.035-55.127 101.95-5.1968 8.2432-4.4902 16.676 7.3267 23.736zm381.74-365.33c65.055-56.689 85.258-155.49 56.1-245.31-41.236-126.85-174.45-197.37-297.49-157.37-12.887 4.1677-25.759 8.2688-36.654 15.549-13.491 8.9856-15.027 13.747-2.2886 21.407 67.912 40.822 124 102.95 150.37 184.17 8.3456 25.559 13.281 51.343 15.273 77.01 0.9216 12.262 0.50176 12.262 9.8765 20.224 28.303 24.084 54.42 52.844 80.02 83.907 6.2054 7.5674 14.459 9.4259 24.791 0.41984zm-447.51 189.41c-39.398 0-76.877-8.6989-110.46-24.253-3.5635-1.6333-6.6765-3.7222-6.6765-8.6374v-198.89c0-16.568 12.012-19.794 22.758-9.0317 29.732 29.722 59.459 59.407 89.19 89.103 6.1082 6.1133 4.9818 5.4579 11.141-0.53248 73.723-71.869 148.72-144.93 222.41-216.81 5.7037-5.4989 17.306-5.7754 20.352 2.345 12.216 32.43 21.181 66.913 21.181 103.72 0 145.58-124.31 262.98-269.9 262.98zm5.1814-533.05c39.511 0 76.877 8.6784 110.47 24.228 3.5686 1.6333 6.7226 3.7427 6.7226 8.6477v198.87c0 16.589-12.012 19.83-22.81 9.0419-29.732-29.706-59.453-59.412-89.129-89.114-5.1507-5.0176-5.545-5.0176-10.588-0.0256-73.661 73.129-148.64 144.93-222.98 217.4-5.7446 5.4733-17.306 5.7549-20.408-2.3296-12.221-32.44-21.181-66.929-21.181-103.76 0-145.54 124.32-262.95 269.9-262.95z"/>
</svg>
