<?xml version="1.0" encoding="UTF-8"?>
<svg width="121.49" height="122.67" version="1.1" viewBox="0 0 121.48682 122.67" xmlns="http://www.w3.org/2000/svg" xmlns:cc="http://creativecommons.org/ns#" xmlns:dc="http://purl.org/dc/elements/1.1/" xmlns:rdf="http://www.w3.org/1999/02/22-rdf-syntax-ns#">
<metadata>
<rdf:RDF>
<cc:Work rdf:about="">
<dc:format>image/svg+xml</dc:format>
<dc:type rdf:resource="http://purl.org/dc/dcmitype/StillImage"/>
<dc:title>EB_Logo_white</dc:title>
</cc:Work>
</rdf:RDF>
</metadata>
<defs>
<style>.a{fill:#2d6fc0;}</style>
</defs>
<title>EB_Logo_white</title>
<path class="a" d="m60.557 0c33.65 0 60.93 27.46 60.93 61.34s-27.28 61.33-60.93 61.33a61.34 61.34 0 0 1 0 -122.67zm-23.67 72.38c-0.27 0-0.54 0-0.81-0.08a11 11 0 0 1 -8 -5.37h20.1a8.32 8.32 0 0 1 0 -11.19h-20.08a11 11 0 0 1 8.73 -5.35h17.09s8.59-0.34 8.78-11.17h-25.44a22.181 22.181 0 0 0 0.32 44.36h25.12c-0.17-9.83-7.28-11-8.58-11.15h-17.23zm-9.53-50.21c3.1 5.93 9.06 9.89 10.74 10.93l0.45 0.26h41.38a11.2 11.2 0 1 1 0 22.39h-21.83a5.6 5.6 0 0 0 0 11.19h21.79a11.2 11.2 0 1 1 0 22.39h-41.42c-0.8 0.47-7.7 4.61-11.11 11.15h52.92a21.16 21.16 0 0 0 8.78 -2 23.58 23.58 0 0 0 7.11 -4.87 22.63 22.63 0 0 0 4.76 -7 22.24 22.24 0 0 0 -5.88 -25.35 21.46 21.46 0 0 0 7.61 -16.79 21.08 21.08 0 0 0 -1.84 -8.79 23.64 23.64 0 0 0 -4.93 -7.11 22.84 22.84 0 0 0 -7.16 -4.75 21.38 21.38 0 0 0 -8.45 -1.74z" fill="#2d6fc0"/>
</svg>
