<svg xmlns="http://www.w3.org/2000/svg" viewBox="0 0 588.53 122.68"><defs><style>.a{fill:#2d6fc0;}</style></defs><title>EB_Logo_white</title><path class="a" d="M185.27,102.4h37.95V97.93H190.51V78.72h28.14V74.25H190.51V58.43h31.54V53.87H185.27V102.4Zm65.8-48.53L229.53,102.4h5.24l4.36-9.71h31.06l4.37,9.71h5.63L258.55,53.87Zm2.82,4.56h1.55l12.91,29.9H241.07l12.82-29.9Zm32,7.09a10.1,10.1,0,0,0,4.37,8.73c2.43,1.85,5.44,2.62,8.64,3.3l12,2.23c3.39.68,6.59,1.27,8.83,2.92a7.31,7.31,0,0,1,2.71,6.11A7.57,7.57,0,0,1,319.69,95c-3,2.62-8.25,3.59-15.14,3.59a48.92,48.92,0,0,1-17.28-3.49l-1.84,4.46a47.74,47.74,0,0,0,19.22,3.69c7.28,0,14.17-1.07,18.53-4.56,2.82-2.23,4.56-5.53,4.56-10.19A11.91,11.91,0,0,0,324.35,80c-3.11-3.11-7.86-4.46-12.81-5.34L300.38,72.7c-2.72-.48-5.44-1-7.38-2.81a5.21,5.21,0,0,1-1.85-4.27,6.42,6.42,0,0,1,3.11-5.83c3.59-1.94,8.44-2.33,12.33-2.33a44.26,44.26,0,0,1,16.5,3.3l1.74-4A47,47,0,0,0,306,53c-4.36,0-10.67.68-15,3.49a10.05,10.05,0,0,0-5,9Zm71.53,36.88V90.75l21-36.88h-5.63L355,85.61h-.39L337.06,53.87h-5.92L352.2,91V102.4Z" transform="translate(-33.52 -36.52)"/><path class="a" d="M414,102.38c6.21,0,10.78-1.75,13.78-4.76a14.7,14.7,0,0,0,4.18-10.77,12.46,12.46,0,0,0-1.85-6.7,11,11,0,0,0-5.14-4.46V75.3a7.86,7.86,0,0,0,3.4-3.5,10.39,10.39,0,0,0,1.16-5A11,11,0,0,0,426,58.41c-2.92-3-7.19-4.56-12.91-4.56H388.93v48.53Zm6.41-15.24A4.75,4.75,0,0,1,419,90.63a6,6,0,0,1-4.47,1.56h-14V82.38h14.27c2,0,3.49.49,4.36,1.56a4.3,4.3,0,0,1,1.17,3.2Zm-2.53-19A3.65,3.65,0,0,1,416.69,71,5.22,5.22,0,0,1,413,72.1H400.58v-8H413a5.13,5.13,0,0,1,3.69,1.16,3.88,3.88,0,0,1,1.16,2.82Zm22.81-14.27v48.53H452.5V53.85Zm19.12,10.39h16.6v38.14H488V64.24h16.69V53.85H459.78V64.24ZM512.87,77.7c2.45,2.59,6,4,10.58,4.85l10.48,1.84c2.45.43,6.68,1.57,6.85,3.63.08.83-.06,2-2,3-7.09,3.78-19,1-25.81-2.33l-4.47,9.42c10.69,5.77,30.33,8.48,40-.49,5.29-5.1,6-13.22.78-18.66-3.1-3.22-8.13-4.71-13.59-5.63l-9.22-1.56a9,9,0,0,1-4.27-1.55c-1.51-1.22-1.35-4.55.77-5.79,6.23-3,17.88,0,23.78,2.71l4.18-9.31c-10-4.88-26.2-7.6-36.11-1.07C508.12,61.42,507.63,72.13,512.87,77.7Z" transform="translate(-33.52 -36.52)"/><path class="a" d="M583.17,75.29v27H589v-27Zm24.55-.49a14.24,14.24,0,0,0-10,3.79,14.17,14.17,0,0,0-.32,20.17,15.13,15.13,0,0,0,20.44.17A14.18,14.18,0,0,0,618.1,79a14.46,14.46,0,0,0-10.38-4.22Zm-8.6,14a8.86,8.86,0,0,1,2.38-6.33,8.37,8.37,0,0,1,6.22-2.54,9.08,9.08,0,0,1,5.95,15.36,8.23,8.23,0,0,1-5.95,2.38,8.06,8.06,0,0,1-6.17-2.48A8.91,8.91,0,0,1,599.12,88.81Z" transform="translate(-33.52 -36.52)"/><circle class="a" cx="530.92" cy="61.82" r="4.61"/><circle class="a" cx="552.22" cy="30.57" r="3.65"/><path class="a" d="M185.7,129H192v14.22h3.19V129h6.34v-2.8H185.7V129Zm31.82-2.8v6.57h-8.85v-6.57h-3.16v17h3.16v-7.66h8.85v7.66h3.17v-17Zm8,17h13.75V140.4H228.68v-4.59h9.13V133h-9.13v-4H238.9v-2.83H225.52v17Z" transform="translate(-33.52 -36.52)"/><path class="a" d="M259.53,143.19h13.75V140.4H262.69v-4.59h9.12V133h-9.12v-4H272.9v-2.83H259.53v17Zm25-17-7.56,17h3.33l1.37-3.13h9l1.39,3.13h3.44l-7.56-17Zm1.49,3.44h.31l3.13,7.66h-6.57l3.13-7.66Zm13.07.95a4.09,4.09,0,0,0,1,2.9,6,6,0,0,0,3.81,1.83l3.88.72a6.38,6.38,0,0,1,2.45.75,1.61,1.61,0,0,1,.72,1.36,2,2,0,0,1-.92,1.7c-.85.65-2.38.82-4.15.82a14.13,14.13,0,0,1-5.89-1.4l-1.12,2.59a15.16,15.16,0,0,0,7,1.67c2.72,0,5.07-.45,6.54-1.67a4.86,4.86,0,0,0,1.7-3.78,4.25,4.25,0,0,0-1.6-3.47,8.73,8.73,0,0,0-4.29-1.57l-3.51-.64a5,5,0,0,1-1.9-.65,1.21,1.21,0,0,1-.55-1.12,1.47,1.47,0,0,1,.65-1.26,6.51,6.51,0,0,1,3.57-.68,12.74,12.74,0,0,1,5.62,1.19l1.16-2.42a16.32,16.32,0,0,0-6.95-1.56c-2,0-4.22.37-5.54,1.43a3.93,3.93,0,0,0-1.74,3.26Zm19.2-4.39v17h3.2v-17Zm8,17H340V140.4H329.43v-4.59h9.13V133h-9.13v-4h10.22v-2.83H326.27v17Zm17.83-12.63a4.05,4.05,0,0,0,1,2.9,6,6,0,0,0,3.81,1.83l3.88.72a6.5,6.5,0,0,1,2.45.75,1.6,1.6,0,0,1,.71,1.36,2,2,0,0,1-.92,1.7c-.85.65-2.38.82-4.15.82a14.17,14.17,0,0,1-5.89-1.4l-1.12,2.59a15.18,15.18,0,0,0,7,1.67c2.73,0,5.08-.45,6.54-1.67a4.86,4.86,0,0,0,1.7-3.78,4.22,4.22,0,0,0-1.6-3.47,8.7,8.7,0,0,0-4.29-1.57l-3.5-.64a5,5,0,0,1-1.91-.65,1.23,1.23,0,0,1-.54-1.12,1.46,1.46,0,0,1,.64-1.26,6.55,6.55,0,0,1,3.58-.68,12.73,12.73,0,0,1,5.61,1.19l1.16-2.42a16.27,16.27,0,0,0-6.94-1.56c-2.05,0-4.22.37-5.55,1.43a4,4,0,0,0-1.74,3.26ZM361.43,129h6.29v14.22h3.2V129h6.33v-2.8H361.43Z" transform="translate(-33.52 -36.52)"/><path class="a" d="M404.29,143.19l3.71-12.9h.13l3.82,12.9H416l5.41-17H418l-4,13.41h-.17L410,126.17h-3.81l-3.74,13.41h-.17l-4-13.41h-3.44l5.45,17Zm26.31-17-7.56,17h3.34l1.36-3.13h9l1.39,3.13h3.44l-7.56-17Zm1.49,3.44h.31l3.13,7.66H429l3.13-7.66Zm20.7,13.58v-3.88L460,126.17H456.5l-5.14,9.74h-.21l-5.2-9.74h-3.61l7.25,13.17v3.85Z" transform="translate(-33.52 -36.52)"/><path class="a" d="M477,129h6.3v14.22h3.19V129h6.34v-2.8H477V129Zm35.53,5.71a8.69,8.69,0,0,0-2.69-6.29,9.3,9.3,0,0,0-12.73,0,8.73,8.73,0,0,0,0,12.59,9.3,9.3,0,0,0,12.73,0,8.72,8.72,0,0,0,2.69-6.3Zm-14.94,0a6,6,0,0,1,1.7-4.32,6,6,0,0,1,8.37,0,6,6,0,0,1,1.7,4.32,5.89,5.89,0,1,1-11.77,0Z" transform="translate(-33.52 -36.52)"/><path class="a" d="M526.22,129h6.3v14.22h3.19V129H542v-2.8H526.22V129Zm34.71,3.4a6.11,6.11,0,0,0-1.56-4.09,6.8,6.8,0,0,0-5.24-2.11H546v17h3.16v-4.6h5.21l2.62,4.6h3.54l-3.2-5.24a6.41,6.41,0,0,0,2.38-1.94,6,6,0,0,0,1.19-3.64ZM549.19,129H554a3.33,3.33,0,0,1,3.74,3.4,3.27,3.27,0,0,1-.85,2.31,3.6,3.6,0,0,1-2.86,1.13h-4.83V129Zm22.6-2.8-7.56,17h3.34l1.36-3.13h9l1.39,3.13h3.44l-7.55-17Zm1.5,3.44h.3l3.13,7.66h-6.57l3.14-7.66Zm13.47-3.44v17h6.81a9.09,9.09,0,0,0,6.6-2.45,8.8,8.8,0,0,0,0-12.12,9,9,0,0,0-6.6-2.45Zm6.67,2.83a5.82,5.82,0,0,1,4.43,1.6,6.28,6.28,0,0,1,.1,8.1,5.71,5.71,0,0,1-4.53,1.7h-3.5V129Zm13.48,14.19h13.75V140.4H610.07v-4.59h9.12V133h-9.12v-4h10.21v-2.83H606.91v17Z" transform="translate(-33.52 -36.52)"/><path class="a" d="M94.46,36.52c33.65,0,60.93,27.46,60.93,61.34s-27.28,61.33-60.93,61.33a61.34,61.34,0,0,1,0-122.67ZM70.79,108.9c-.27,0-.54,0-.81-.08a11,11,0,0,1-8-5.37H82.08a8.32,8.32,0,0,1,0-11.19H62a11,11,0,0,1,8.73-5.35l.41,0H87.82s8.59-.34,8.78-11.17H71.16a22.18,22.18,0,0,0,.32,44.36l.81,0H96.6v0c-.17-9.83-7.28-11-8.58-11.15H70.79ZM61.26,58.69c3.1,5.93,9.06,9.89,10.74,10.93l.45.26h41.38a11.2,11.2,0,1,1,0,22.39H92a5.6,5.6,0,0,0,0,11.19h21.79a11.2,11.2,0,1,1,0,22.39H72.37c-.8.47-7.7,4.61-11.11,11.15l0,0h52.92a21.16,21.16,0,0,0,8.78-2,23.58,23.58,0,0,0,7.11-4.87,22.63,22.63,0,0,0,4.76-7,22.24,22.24,0,0,0-5.88-25.35,21.46,21.46,0,0,0,7.61-16.79,21.08,21.08,0,0,0-1.84-8.79,23.64,23.64,0,0,0-4.93-7.11,22.84,22.84,0,0,0-7.16-4.75,21.38,21.38,0,0,0-8.45-1.74Z" transform="translate(-33.52 -36.52)"/></svg>