<?xml version="1.0" encoding="UTF-8"?>
<!DOCTYPE svg  PUBLIC '-//W3C//DTD SVG 1.1//EN'  'http://www.w3.org/Graphics/SVG/1.1/DTD/svg11.dtd' [
	<!ENTITY ns_flows "http://ns.adobe.com/Flows/1.0/">
	<!ENTITY ns_svg "http://www.w3.org/2000/svg">
	<!ENTITY ns_xlink "http://www.w3.org/1999/xlink">
]>
<svg width="516" height="259" enable-background="new -0.3168945 -0.0917969 516 259" version="1.1" viewBox="-0.3168945 -0.0917969 516 259" xml:space="preserve" xmlns="http://www.w3.org/2000/svg">
<rect width="515" height="258.31" fill="#fff" opacity="0"/>
<polygon points="7.957 249.73 249.4 249.73 249.4 8.3052 7.957 8.3052" fill="#f00"/>
<path d="m128.68 33.102c34.312 0 70.978 61.342 70.978 114.46 0 41.726-24.528 77.32-70.978 77.32-46.484 0-70.948-35.595-70.948-77.32 0-53.121 36.632-114.46 70.948-114.46" fill="#fff"/>
<polygon points="507.96 249.83 266.54 249.83 266.54 8.4082 507.96 8.4082" fill="#f00"/>
<polygon points="284.21 100.51 309.63 100.51 317.93 134.6 318.07 134.6 326.38 100.51 351.78 100.51 351.78 158.46 334.89 158.46 334.89 121.27 334.72 121.27 324.67 158.46 311.34 158.46 301.27 121.27 301.12 121.27 301.12 158.46 284.21 158.46" fill="#fff"/>
<polygon points="377.76 115.35 361.53 115.35 361.53 100.51 411.88 100.51 411.88 115.35 395.61 115.35 395.61 158.46 377.76 158.46" fill="#fff"/>
<path d="m454.99 122.07c-0.3252-2.0879-1.9648-8.5156-9.3193-8.5156-8.3828 0-11.067 8.1279-11.067 15.939 0 7.7988 2.6846 15.904 11.067 15.904 5.9824 0 8.3516-4.2188 9.3984-9.6885h17.544c0 11.693-9.5078 24.143-26.479 24.143-18.768 0-29.38-13.234-29.38-30.358 0-18.283 11.521-30.365 29.38-30.365 15.925 0.064453 24.7 8.4219 26.211 22.941h-17.355z" fill="#fff"/>
</svg>
