<?xml version="1.0" encoding="UTF-8"?>
<svg width="228.67" height="108.37" version="1.1" viewBox="0 0 228.66771 108.372" xml:space="preserve" xmlns="http://www.w3.org/2000/svg" xmlns:cc="http://creativecommons.org/ns#" xmlns:dc="http://purl.org/dc/elements/1.1/" xmlns:rdf="http://www.w3.org/1999/02/22-rdf-syntax-ns#"><metadata><rdf:RDF><cc:Work rdf:about=""><dc:format>image/svg+xml</dc:format><dc:type rdf:resource="http://purl.org/dc/dcmitype/StillImage"/><dc:title/></cc:Work></rdf:RDF></metadata><g transform="matrix(1.3333 0 0 -1.3333 -.33229 136.75)"><path d="m171.75 21.284h-171.5v22.25h171.5v-22.25" fill="#7b7979"/><path d="m0.24922 102.56h32.853v-14.034h-16.427v-4.7847h20.255v9.4097l8.9312-14.513-9.2504-13.716v6.2953h-19.772v-5.4148h16.14v-12.682h-32.73v49.44" fill="#ed1c24"/><path d="m37.667 101.29 18.875-23.444-18.875-24.184h17.375l8.875 11.5 10.25-11.5h15.25l-16.5 24.184 16.5 23.444h-17.875l-7.375-11.753-10.25 11.753h-16.25" fill="#0e8a4a"/><path d="m93.417 101.29v-47.628h16.25v47.628h-16.25" fill="#0e8a4a"/><path d="m116.92 101.29v-47.628h15.75v13.625l9.506-14.161h5.226l8.935 15.078v-15.078h15.416v48.164h-18.583l-8.833-18.753-9.917 18.753h-17.5" fill="#0e8a4a"/><text transform="matrix(.83522 0 0 -1 4.6668 24.457)" fill="#ffffff" font-family="NewsGothicMT" font-size="19.814px" font-weight="bold"><tspan x="0 58.952694 117.53705 178.18283" y="0">BANK</tspan></text>
<path d="m6.1668 39.184h5.2875c1.2258 0.0242 2.1879-0.2277 2.7984-0.6828 0.8473-0.6367 1.3141-1.5992 1.3141-2.8313 0-0.8949-0.2602-1.7031-0.7797-2.3375-0.3547-0.4156-0.8562-0.7773-1.525-1.0594 0.5359-0.1773 1.0004-0.4429 1.2984-0.7125 0.3833-0.3398 0.736-0.8308 0.9641-1.3765 0.2086-0.5203 0.3422-1.1031 0.3422-1.675 0-0.6508-0.1461-1.3133-0.4375-1.9391-0.3117-0.5961-0.7543-1.1336-1.3906-1.525-0.6606-0.3875-1.4453-0.5875-2.4266-0.5875h-5.4453zm2.4-2.275v-3.4719h2.6312c0.552 0.0067 1.0516 0.2016 1.4672 0.6047 0.2348 0.2625 0.4016 0.6437 0.4016 1.1594 0 0.5281-0.1559 0.9211-0.4672 1.2359-0.3226 0.3211-0.8008 0.4719-1.4672 0.4719zm0-5.7469v-4.4297h1.9734c0.9973 0.0082 1.7485 0.2071 2.1797 0.6219 0.4133 0.4164 0.6469 0.9609 0.6469 1.6359 0 0.6473-0.1969 1.143-0.5906 1.5547-0.3961 0.4156-0.9657 0.6172-1.7188 0.6172zm49.681 8.0219h2.4218l4.086-14.727h-2.3094l-0.9625 3.4719h-4.0563l-0.9656-3.4719h-2.3062zm1.2078-3.9516-1.4313-5.1484h2.8594zm44.78 3.9516h2.561l5.039-9.886v9.886h2.4v-14.727h-2.366l-5.234 10.27v-10.27h-2.4zm50.752 0h2.4v-6.5828l4.478 6.5828h2.68l-3.875-5.6985 4.167-9.0281h-2.386l-3.203 6.9406-1.861-2.7359v-4.2047h-2.4z" fill="none" stroke="#fff" stroke-miterlimit="10"/></g></svg>
