<?xml version="1.0" encoding="UTF-8" standalone="no"?>
<svg
   version="1.0"
   width="266.92163pt"
   height="266.93951pt"
   viewBox="0 0 266.92163 266.93951"
   preserveAspectRatio="xMidYMid meet"
   id="svg151"
   sodipodi:docname="icon.svg"
   inkscape:version="1.1.2 (0a00cf5339, 2022-02-04)"
   xmlns:inkscape="http://www.inkscape.org/namespaces/inkscape"
   xmlns:sodipodi="http://sodipodi.sourceforge.net/DTD/sodipodi-0.dtd"
   xmlns="http://www.w3.org/2000/svg"
   xmlns:svg="http://www.w3.org/2000/svg">
  <defs
     id="defs155" />
  <sodipodi:namedview
     id="namedview153"
     pagecolor="#ffffff"
     bordercolor="#666666"
     borderopacity="1.0"
     inkscape:pageshadow="2"
     inkscape:pageopacity="0.0"
     inkscape:pagecheckerboard="0"
     inkscape:document-units="pt"
     showgrid="false"
     inkscape:zoom="0.94375773"
     inkscape:cx="552.04846"
     inkscape:cy="69.933202"
     inkscape:window-width="2560"
     inkscape:window-height="1323"
     inkscape:window-x="1920"
     inkscape:window-y="272"
     inkscape:window-maximized="1"
     inkscape:current-layer="g149" />
  <g
     transform="matrix(0.1,0,0,-0.1,-0.07836727,267.9395)"
     fill="#000000"
     stroke="none"
     id="g149">
    <path
       d="M 177,2664 C 121,2647 55,2586 25,2525 5,2486 5,2458 2,1361 -1,113 -4,184 66,102 85,80 124,50 153,35 l 53,-25 1139,2 c 1074,3 1142,4 1176,21 52,26 99,75 125,132 l 24,50 v 1131 1130 l -26,52 c -14,29 -44,67 -66,86 -81,70 -11,66 -1242,65 -952,0 -1118,-3 -1159,-15 z m 1174,-623 c 16,-16 29,-40 29,-53 0,-20 17,-30 117,-75 106,-46 119,-50 137,-37 30,21 71,17 103,-10 22,-19 28,-32 27,-63 -1,-35 5,-43 79,-107 75,-66 81,-70 124,-67 59,3 93,-26 93,-78 0,-36 -31,-81 -57,-81 -7,0 -13,-2 -13,-4 0,-3 -5,-39 -11,-81 -10,-75 -10,-77 15,-102 69,-69 -18,-179 -105,-133 -26,14 -119,-34 -119,-61 0,-32 -23,-68 -50,-81 -26,-11 -29,-19 -44,-116 l -16,-104 25,-30 c 42,-49 29,-109 -28,-133 -58,-24 -117,16 -117,80 0,17 5,36 12,43 8,8 -5,37 -53,118 -55,92 -68,107 -93,110 -30,3 -76,39 -76,60 0,7 -23,15 -61,19 -55,6 -63,5 -85,-16 -55,-51 -143,-12 -144,64 -1,26 -9,38 -45,64 -39,29 -49,32 -89,27 -41,-6 -48,-4 -75,24 -34,33 -38,54 -18,92 12,23 9,32 -38,110 -44,73 -56,85 -85,91 -43,9 -80,51 -80,90 0,41 39,79 82,79 30,0 38,8 101,100 38,56 63,101 57,105 -5,3 -10,23 -10,44 0,38 24,71 63,84 22,8 85,-17 92,-36 5,-11 20,-11 93,-1 48,7 94,13 103,13 9,1 20,12 23,26 7,27 48,54 84,55 13,0 37,-13 53,-29 z"
       id="path99" />
    <path
       d="m 1118,1935 c -48,-7 -94,-15 -103,-18 -27,-11 -16,-42 34,-91 39,-38 54,-47 77,-44 25,2 35,14 66,74 47,90 43,95 -74,79 z"
       id="path101" />
    <path
       d="m 1376,1908 c 5,-8 47,-67 94,-131 71,-98 89,-116 112,-117 21,0 29,6 37,33 9,27 8,39 -9,72 -11,22 -20,44 -20,50 0,8 -128,70 -213,104 -6,2 -6,-2 -1,-11 z"
       id="path103" />
    <path
       d="m 1246,1858 c -46,-80 -48,-90 -32,-129 14,-34 17,-36 148,-72 140,-39 162,-43 156,-27 -1,5 -46,68 -98,140 -81,110 -99,130 -122,130 -21,0 -32,-9 -52,-42 z"
       id="path105" />
    <path
       d="m 826,1749 c -36,-54 -62,-100 -57,-103 5,-4 68,7 139,24 72,16 132,30 135,30 3,0 7,10 10,22 5,16 -5,35 -39,74 -40,48 -48,53 -83,51 -38,-1 -41,-5 -105,-98 z"
       id="path107" />
    <path
       d="m 1689,1723 c -9,-2 -21,-21 -27,-42 -17,-53 1,-88 48,-95 89,-13 190,-17 190,-8 0,15 -163,152 -180,151 -8,-1 -22,-3 -31,-6 z"
       id="path109" />
    <path
       d="m 922,1626 c -122,-29 -134,-33 -147,-60 -15,-28 -14,-32 37,-118 74,-125 80,-124 182,55 46,80 75,141 70,146 -5,5 -68,-5 -142,-23 z"
       id="path111" />
    <path
       d="m 1200,1639 c 0,-6 19,-53 42,-104 30,-68 47,-95 62,-98 12,-2 28,-7 37,-11 16,-7 169,105 169,124 0,15 -26,25 -162,64 -140,40 -148,41 -148,25 z"
       id="path113" />
    <path
       d="m 1046,1500 c -33,-58 -68,-119 -77,-135 -28,-47 -15,-56 64,-41 37,7 70,15 72,18 3,3 4,63 3,134 l -3,129 z"
       id="path115" />
    <path
       d="m 1157,1525 c -11,-118 -9,-175 7,-175 29,0 46,13 61,44 15,31 14,35 -23,117 l -39,84 z"
       id="path117" />
    <path
       d="m 1670,1533 c 0,-4 52,-60 116,-123 132,-132 137,-132 149,-11 6,64 5,68 -22,98 -27,29 -33,31 -136,38 -59,4 -107,3 -107,-2 z"
       id="path119" />
    <path
       d="m 1457,1443 c -65,-50 -76,-62 -76,-88 0,-24 8,-36 39,-57 34,-24 39,-25 45,-10 15,36 74,212 71,212 -2,0 -37,-26 -79,-57 z"
       id="path121" />
    <path
       d="m 1603,1493 c -18,-3 -28,-24 -59,-116 -20,-62 -39,-117 -41,-123 -2,-6 25,-32 60,-57 61,-44 66,-46 96,-34 27,10 37,9 60,-4 26,-15 30,-15 77,12 41,24 50,34 55,65 6,36 4,40 -104,150 -60,63 -112,113 -116,113 -3,-1 -16,-4 -28,-6 z"
       id="path123" />
    <path
       d="m 1162,1301 c -9,-5 -12,-26 -10,-66 l 3,-59 38,55 c 20,30 37,60 37,67 0,14 -48,16 -68,3 z"
       id="path125" />
    <path
       d="m 1032,1279 c -78,-15 -80,-24 -12,-74 65,-48 80,-42 80,30 0,60 2,58 -68,44 z"
       id="path127" />
    <path
       d="m 1362,1268 c 3,-7 13,-37 22,-65 10,-29 21,-53 26,-53 5,0 14,17 21,37 11,35 11,37 -22,64 -37,31 -54,37 -47,17 z"
       id="path129" />
    <path
       d="m 1234,1212 c -34,-48 -39,-61 -31,-80 10,-22 20,-26 89,-36 31,-4 39,-1 52,19 15,23 14,29 -7,87 -32,84 -49,86 -103,10 z"
       id="path131" />
    <path
       d="m 1471,1169 c -13,-38 10,-79 44,-79 34,0 85,12 85,19 0,4 -27,26 -59,49 l -59,41 z"
       id="path133" />
    <path
       d="m 1496,1034 c -9,-8 -16,-23 -16,-32 1,-23 113,-205 125,-204 6,1 17,46 25,100 16,100 16,100 -7,126 -18,21 -31,26 -67,26 -27,0 -51,-6 -60,-16 z"
       id="path135" />
    <path
       d="m 3510,1890 c -121,-21 -188,-83 -215,-204 -22,-95 -30,-317 -16,-443 27,-252 95,-307 375,-304 78,1 170,7 206,14 l 65,12 3,263 2,262 h -155 -155 v -80 -80 h 55 55 v -110 -110 h -84 c -143,0 -157,26 -158,298 0,194 8,246 48,283 25,24 29,24 205,23 h 179 v 77 c 0,90 8,84 -125,99 -102,11 -218,11 -285,0 z"
       id="path137" />
    <path
       d="m 7530,1887 c -100,-24 -149,-62 -170,-136 -19,-66 -30,-316 -21,-480 10,-175 30,-245 80,-280 46,-33 136,-53 246,-54 l 103,-1 44,-73 43,-72 113,-1 c 61,0 112,2 112,5 0,2 -29,48 -64,102 l -64,97 24,29 c 33,39 44,83 56,240 16,194 0,448 -34,515 -24,50 -68,85 -127,103 -56,17 -277,21 -341,6 z m 265,-188 c 19,-18 20,-35 23,-251 2,-128 1,-247 -3,-266 -11,-59 -34,-72 -126,-72 -44,0 -89,5 -99,10 -32,17 -40,76 -40,295 0,203 8,277 32,291 47,29 181,25 213,-7 z"
       id="path139" />
    <path
       d="m 4405,1878 c -7,-20 -245,-917 -245,-923 0,-3 47,-5 104,-5 91,0 105,2 109,18 3,9 13,50 22,90 l 17,72 h 142 143 l 12,-53 c 6,-30 16,-70 22,-90 l 10,-37 h 104 c 58,0 105,3 105,8 1,4 -54,215 -122,470 l -122,462 h -148 c -110,0 -150,-3 -153,-12 z m 199,-372 c 25,-104 46,-190 46,-192 0,-2 -43,-4 -95,-4 -52,0 -95,4 -95,9 0,9 78,346 86,370 2,8 6,12 9,10 2,-3 24,-89 49,-193 z"
       id="path141" />
    <path
       d="m 5070,1800 v -89 l 113,-3 112,-3 3,-377 2,-378 h 105 105 v 380 380 h 110 110 v 90 90 h -330 -330 z"
       id="path143" />
    <path
       d="M 5980,1420 V 950 h 280 280 v 85 85 h -175 -175 v 105 105 h 150 150 v 90 90 h -150 -150 v 100 100 h 175 175 v 90 90 h -280 -280 z"
       id="path145" />
    <path
       d="M 6830,1420 V 950 h 105 105 v 470 470 h -105 -105 z"
       id="path147" />
  </g>
</svg>
