<?xml version="1.0" encoding="UTF-8"?>
<svg class="icon" width="490.43" height="511.77" version="1.1" viewBox="0 0 490.43228 1023.5307" xmlns="http://www.w3.org/2000/svg" xmlns:cc="http://creativecommons.org/ns#" xmlns:dc="http://purl.org/dc/elements/1.1/" xmlns:rdf="http://www.w3.org/1999/02/22-rdf-syntax-ns#">
<metadata>
<rdf:RDF>
<cc:Work rdf:about="">
<dc:format>image/svg+xml</dc:format>
<dc:type rdf:resource="http://purl.org/dc/dcmitype/StillImage"/>
<dc:title/>
</cc:Work>
</rdf:RDF>
</metadata>
<path d="m606.9 406.6-113.44 109.69s-18.424 26.015-33.691 1.5353l-208.46-202.79s-18.338-24.309-32.113-2.9853l-209.99 213.45s-13.775 21.366 3.0706 30.493l205.3 204.45s16.888 27.294 32.199 5.928l213.06-213.41s6.0985-18.253 39.875-13.775h217.59s9.2544 219.63-159.41 356.79c0 0-219.08 218.14-519.44 83.887 0 0-289.7-100.65-286.63-474.24 0 0 7.6765-250.08 236.05-382.63 0 0 167.01-123.51 300.32-32.113zm-398.37-370.56s87.299-66.956 237.54-18.338c0 0 50.494 18.338 108.75 70.24l180.82 189.05-96.638 95.999-275.8-279s-46.059-56.422-154.72-57.957z" fill="#263c73"/>
</svg>
