<?xml version="1.0" encoding="UTF-8"?>
<svg version="1.0" viewBox="0 0 1063 194.11" xmlns="http://www.w3.org/2000/svg" xmlns:cc="http://creativecommons.org/ns#" xmlns:dc="http://purl.org/dc/elements/1.1/" xmlns:rdf="http://www.w3.org/1999/02/22-rdf-syntax-ns#">
<metadata>
<rdf:RDF>
<cc:Work rdf:about="">
<dc:format>image/svg+xml</dc:format>
<dc:type rdf:resource="http://purl.org/dc/dcmitype/StillImage"/>
<dc:title/>
</cc:Work>
</rdf:RDF>
</metadata>
<g transform="translate(-1558.6 -21.189)">
<g transform="translate(35.425 35.465)">
<path d="m1686.6 61.666-55.754-55.725c-11.539-11.585-25.464-10.832-30.376-10.021-43.815 7.2407-77.262 45.356-77.262 91.349 0 51.149 41.365 92.566 92.369 92.566 49.811 0 90.405-39.795 92.293-89.264 0.012-0.63718-0.1798-2.317-1.3786-3.0701-1.4829-0.92681-4.4139-0.57926-4.4139-0.57926h-35.74s-3.3944 0-4.4431 0.46341c-0.7007 0.34756-1.6507 1.0427-1.6507 1.0427l-43.549 43.676c-0.7128 0.69511-1.8653 0.69511-2.5664 0l-43.798-43.908c-0.7238-0.69511-0.7238-1.8536 0-2.5487l43.798-43.908c0.7011-0.69511 1.8536-0.69511 2.5664 0l40.177 40.258s2.0914 1.9116 4.072 2.375c1.8189 0.52133 4.5358-1.3323 4.5358-1.3323l21.12-21.375" fill="#3147a4" fill-rule="evenodd"/>
<path d="m1707 33.108-29.913-29.89c-33.412-32.265-72.013-10.021-72.013-10.021s16.405-8.8047 37.368 13.323l49.434 49.7 14.569-14.424s1.7549-2.2012 2.1604-4.2286c0.3883-1.8536-1.6043-4.4603-1.6043-4.4603" fill="#3147a4" fill-rule="evenodd"/>
<path d="m2333.6 157.94h26.148c3.7944 0 13.491-3.4756 13.491-12.744 0-8.2255-7.6523-10.079-9.112-10.774 4.3792-1.6219 6.8584-5.2712 6.8584-9.4419 0-8.6889-9.6157-11.411-14.14-11.411h-23.245v44.371m6.8297-39.332h11.602c10.502 0 12.031 4.8658 12.031 7.4145 0 2.8963-1.7665 6.6036-9.5518 6.6036h-14.082v-14.018m0 19.058h13.346c6.4066 0 12.761 0.75303 12.761 7.2407 0 3.4756-2.184 7.9938-8.9613 7.9938h-17.146v-15.234" fill-rule="evenodd"/>
<path d="m2406.6 130.66c-0.133-3.1859-4.0724-5.2712-8.8918-6.1981-2.3977-0.46341-4.5122-0.52134-6.5628-0.52134-3.5043 0-5.9029 0.63719-7.8607 1.3902-4.0201 1.6219-5.839 4.4603-6.3483 6.3139l-0.2145 2.7804h5.7578c0.139-1.4481 0.5909-5.9084 7.7968-5.9084 4.0725 0 9.4012 1.0427 9.923 3.3018v3.7652c0 1.6798-2.2652 2.317-3.0706 2.4329-3.6488 0.75303-7.2171 0.17377-14.128 1.8536-3.9622 0.98474-7.6059 3.0701-8.0346 8.3413-0.5213 6.3139 4.8194 10.021 13.341 10.021 5.0339 0 9.187-2.7225 12.176-4.6341 0.2029 2.1432 2.9078 4.6341 5.6883 4.6341 2.039 0 3.2786-0.17378 4.7267-0.57926v-3.9969c-0.4286 0.17378-0.9384 0.17378-1.3786 0.17378-1.5292 0-2.9195-0.98474-2.9195-1.8536v-21.317m-6.3431 16.914c0 1.0427-3.9969 6.4298-12.309 6.256-3.3537-0.0579-6.8468-1.5061-6.7138-5.503 0.081-2.375 2.5603-3.881 3.6437-4.2865 3.5738-1.3323 10.433-1.2164 15.379-2.8384v6.3718" fill-rule="evenodd"/>
<path d="m2413 125.56v31.975h6.1286v-16.972c-0.139-8.573 5.3871-11.238 10.502-11.238 4.217 0 7.7162 2.0274 7.6462 6.0243v22.186h6.123v-24.85c-0.817-4.692-4.1535-6.3139-6.053-7.1828-0.9268-0.34756-3.4992-0.75304-6.268-0.81097-2.7629-0.0579-5.7458 0.28963-7.5823 1.4482-1.4482 0.57926-3.0585 1.9695-4.2286 3.4756h-0.139v-4.0548h-6.1286" fill-rule="evenodd"/>
<path d="m2448.2 113.16v44.371h6.1341v-11.991l6.1054-5.0396 12.605 17.03h7.5248l-15.524-20.853 13.328-11.122h-7.8603l-16.179 13.381v-25.777h-6.1341" fill-rule="evenodd"/>
<path d="m1806.7 126.83c-3.1336-8.9785-10.421-14.539-21.653-14.424-6.6207 0.11586-12.471 2.7804-14.719 4.5762-6.192 4.9816-8.3992 12.454-8.4395 18.71-0.093 6.256 2.2475 13.728 8.4395 18.71 2.248 1.7957 8.0985 4.4603 14.719 4.5182 12.101 0.17378 20.419-7.4724 22.684-17.609h-6.9919c-2.7049 8.4572-7.5243 12.512-15.321 12.512-4.2285 0-8.5322-1.3902-11.446-4.2865-3.128-3.0701-5.2421-8.4572-5.0919-13.844-0.1502-5.3871 1.9639-10.774 5.0919-13.902 2.9139-2.8384 7.2176-4.2286 11.446-4.2286 7.3682 0 11.869 3.7073 14.21 9.2681h7.0725" fill-rule="evenodd"/>
<path d="m1811.6 157.53h6.1054v-20.737c0-2.7804 1.0426-3.6493 2.3578-4.7499 2.2354-1.5061 4.1238-2.4329 6.0414-2.7225 1.9639-0.34756 3.9913-0.0579 6.4701 0.81096 1.1645 0.46341 3.5047 1.564 3.2095 5.6188v21.78h6.1342v-24.271c0.145-0.98474-0.6548-5.8505-6.2676-7.4724-2.1836-0.81096-4.2981-1.1006-6.1981-1.1006s-3.6433 0.34756-5.1841 0.81096c-3.0529 1.0427-5.3065 2.7225-6.5632 3.939v-16.277h-6.1054v44.371" fill-rule="evenodd"/>
<path d="m1853.4 125.56h-6.1401v31.975h6.1401zm0-12.396h-6.1401v6.3139h6.1401z" fill-rule="evenodd"/>
<path d="m1859.2 125.56v31.975h6.1462v-16.972c-0.1506-8.573 5.3695-11.238 10.484-11.238 4.223 0 7.7273 2.0274 7.6522 6.0243v22.186h6.1286v-24.85c-0.811-4.692-4.1762-6.3139-6.0535-7.1828-0.9615-0.34756-3.5043-0.75304-6.2791-0.81097-2.7684-0.0579-5.7458 0.28963-7.5652 1.4482-1.4597 0.57926-3.058 1.9695-4.2457 3.4756h-0.1214v-4.0548h-6.1462" fill-rule="evenodd"/>
<path d="m1924.8 130.83c-0.1445-3.1859-4.0835-5.2712-8.8914-6.1401-2.4097-0.52133-4.5358-0.57926-6.5748-0.57926-3.4927 0-5.8913 0.63719-7.8603 1.3902-4.0145 1.6219-5.8389 4.4603-6.3486 6.3139l-0.2146 2.7804h5.7578c0.1506-1.4482 0.5969-5.9084 7.7968-5.9084 4.084 0 9.3901 1.0427 9.923 3.3018v3.7652c0 1.6798-2.2652 2.317-3.0761 2.4329-3.6202 0.75304-7.2116 0.17378-14.122 1.8536-3.9506 0.98474-7.5999 3.0701-8.0341 8.3413-0.4982 6.3139 4.8194 10.021 13.352 10.021 5.0224 0 9.1754-2.7804 12.176-4.6341 0.2261 2.1432 2.9078 4.6341 5.6767 4.6341 2.0274 0 3.273-0.17377 4.7328-0.57925v-3.9969c-0.4347 0.17378-0.9445 0.17378-1.3731 0.17378-1.5348 0-2.9195-0.98474-2.9195-1.8536v-21.317m-6.3426 16.914c0 1.0427-4.0089 6.4298-12.321 6.256-3.3481-0.0579-6.8584-1.5061-6.7133-5.503 0.081-2.317 2.5658-3.881 3.6433-4.2865 3.5858-1.3323 10.433-1.2164 15.391-2.8963v6.4298" fill-rule="evenodd"/>
<path d="m1997.9 126.83c-3.1451-8.9785-10.432-14.539-21.658-14.424-6.6383 0.11586-12.466 2.7804-14.731 4.5762-6.1749 4.9816-8.3701 12.454-8.4627 18.71-0.064 6.256 2.2878 13.728 8.4627 18.71 2.2651 1.7957 8.0925 4.4603 14.731 4.5182 12.095 0.17378 20.413-7.4724 22.661-17.609h-6.9919c-2.6933 8.4572-7.5016 12.512-15.316 12.512-4.2226 0-8.5323-1.3902-11.428-4.2865-3.1341-3.0701-5.2481-8.4572-5.1151-13.844-0.133-5.3871 1.981-10.774 5.1151-13.902 2.8962-2.8384 7.2059-4.2286 11.428-4.2286 7.3742 0 11.892 3.7073 14.209 9.2681h7.0957" fill-rule="evenodd"/>
<path d="m2034.8 141.78c0-14.25-10.258-17.088-17.262-17.088-6.9803 0-17.274 2.8384-17.274 17.088 0 14.25 10.293 17.146 17.274 17.146 7.0035 0 17.262-2.8963 17.262-17.146m-6.2444 0c0 5.2133-2.9194 12.049-11.018 12.049-8.0229 0-10.994-6.8352-10.994-12.049 0-5.2133 2.9714-11.991 10.994-11.991 8.0981 0 11.018 6.7773 11.018 11.991" fill-rule="evenodd"/>
<path d="m2038.8 125.56v31.975h6.111v-16.972c-0.1275-8.573 5.4047-11.238 10.496-11.238 4.2346 0 7.7273 2.0274 7.6639 6.0243v22.186h6.1169v-24.85c-0.8054-4.692-4.153-6.3139-6.0535-7.1828-0.9615-0.34756-3.4927-0.75304-6.2559-0.81097-2.7689-0.0579-5.781 0.28963-7.5767 1.4482-1.4714 0.57926-3.0701 1.9695-4.2458 3.4756h-0.145v-4.0548h-6.111" fill-rule="evenodd"/>
<path d="m2072.2 148.09c0 3.0121 0.7878 8.7468 9.6968 10.427 2.184 0.40548 4.7963 0.40548 7.3626 0.40548 2.5488-0.17377 5.0104-0.57926 6.9799-1.3323 4.0144-1.5061 6.337-4.5182 6.8584-7.6462 0.5097-3.128-0.7938-6.256-4.1647-7.9358-2.6937-1.3902-5.7462-1.9695-8.8163-2.4329-3.7999-0.75304-6.8413-1.3902-8.9558-2.375-2.1196-0.92681-2.7049-2.7225-1.8128-4.3444 0.95-1.7378 3.7017-3.4176 7.4205-3.4176 8.5438 0 8.7468 3.4176 8.7468 5.0975h5.9835c-0.075-3.5914-1.6043-9.8474-14.232-9.8474-7.4901 0-14.047 3.4756-14.047 9.5578 0 4.692 2.6127 6.8352 5.6072 7.7621 3.2847 1.2744 9.4016 2.2591 14.209 3.2438 3.0706 0.86889 4.1535 2.4329 4.1535 4.0548 0 1.6219-1.0829 3.128-2.3981 3.939-1.0195 0.57926-2.9079 1.0427-4.8194 1.4482-1.9695 0-3.9274 0-5.3871-0.34756-4.2865-1.1006-6.4122-3.128-6.6383-6.256h-5.7463" fill-rule="evenodd"/>
<path d="m2114.1 116.93h-6.1345v8.631h-5.3232v4.7499h5.3232v24.155c0 1.2164 1.3151 4.1127 5.5492 4.4603 2.3982 0.23171 4.0841 0 6.6268-0.34755v-4.5182c-3.4177 0.52133-6.0415 0.40548-6.0415-1.6219v-22.128h6.0415v-4.7499h-6.0415v-8.631" fill-rule="evenodd"/>
<path d="m2122.4 157.53h6.1286v-16.625c0-5.503 2.0969-8.5151 6.4182-10.137 1.6743-0.4634 3.5742-0.75303 5.8273-0.75303v-5.3292h-3.4292c-2.7744 0.17378-6.4182 2.2591-8.6889 5.9084h-0.1274v-5.0396h-6.1286v31.975" fill-rule="evenodd"/>
<path d="m2173.1 157.53v-31.975h-6.1109v17.378c0 4.1127-0.8689 8.9206-7.5193 10.832-1.5171 0.34755-2.9773 0.52133-4.2865 0.34755-1.3147-0.0579-2.4903-0.34755-3.4408-0.81096-1.8879-0.98474-2.9889-2.7804-2.9074-5.1554v-22.591h-6.123v25.487c0.7355 3.4756 3.2151 5.9084 6.0415 7.1828 0.9615 0.34755 3.4408 0.69511 6.1345 0.69511 2.7689 0 5.7579-0.34756 7.7274-1.3323 1.4773-0.57926 3.0529-1.9116 4.217-3.4756h0.1566v3.4176h6.1109" fill-rule="evenodd"/>
<path d="m2202.9 146.53c-0.2257 1.2164-0.9384 2.7804-1.8073 4.1127-0.8744 1.7378-3.881 3.3018-7.287 3.4756-3.3597 0.17378-7.1597-1.0427-9.4827-4.9237-1.2336-2.0853-1.6854-5.3292-1.3787-8.573 0.2841-3.2438 1.3036-6.3139 2.989-7.9358 2.5432-2.375 5.1786-3.1859 7.5072-3.3018 2.242-0.0579 4.1419 0.52133 5.2425 1.0427 2.5543 0.98474 3.4176 2.6067 4.084 5.9664h6.053c-0.4402-3.7652-1.7549-7.2407-4.7439-8.8627-2.6242-1.9116-6.6387-2.8963-10.792-2.8384-4.1419 0.11585-8.4516 1.3902-11.516 4.2865-3.8579 3.6493-5.3292 8.1675-5.4566 12.396-0.1683 4.2286 1.0774 8.1676 2.6182 10.832 2.3981 4.1707 7.7908 6.4877 13.404 6.7194 5.6244 0.23171 11.44-1.7378 14.424-5.9664 1.0426-1.4482 1.9115-3.7652 2.0621-6.4298h-5.92" fill-rule="evenodd"/>
<path d="m2220.9 116.93h-6.1053v8.631h-5.3408v4.7499h5.3408v24.155c0 1.2164 1.2975 4.1127 5.5321 4.4603 2.4153 0.23171 4.0835 0 6.6151-0.34755v-4.5182c-3.412 0.52133-6.0419 0.40548-6.0419-1.6219v-22.128h6.0419v-4.7499h-6.0419v-8.631" fill-rule="evenodd"/>
<path d="m2236.5 125.56h-6.1346v31.975h6.1346zm0-12.396h-6.1346v6.3139h6.1346z" fill-rule="evenodd"/>
<path d="m2274.4 141.78c0-14.25-10.27-17.088-17.274-17.088-6.9914 0-17.268 2.8384-17.268 17.088 0 14.25 10.276 17.146 17.268 17.146 7.003 0 17.274-2.8963 17.274-17.146m-6.256 0c0 5.2133-2.9079 12.049-11.018 12.049-7.9993 0-10.989-6.8352-10.989-12.049 0-5.2133 2.9895-11.991 10.989-11.991 8.1096 0 11.018 6.7773 11.018 11.991" fill-rule="evenodd"/>
<path d="m2278.3 125.56v31.975h6.1054v-16.972c-0.1334-8.573 5.4103-11.238 10.514-11.238 4.2165 0 7.7157 2.0274 7.6457 6.0243v22.186h6.1114v-24.85c-0.7822-4.692-4.1414-6.3139-6.0414-7.1828-0.95-0.34756-3.4992-0.75304-6.2564-0.81097-2.7745-0.0579-5.7695 0.28963-7.5823 1.4482-1.4713 0.57926-3.0585 1.9695-4.2402 3.4756h-0.1506v-4.0548h-6.1054" fill-rule="evenodd"/>
<path transform="translate(1523.2 137.95)" d="m285.56-125.75v8.9062h-38.156c-4.5011 0-8.1562 3.6693-8.1562 8.1875v56.656h46.312v10.594h18.219v-10.594h46.281v-56.656c0-4.5182-3.5872-8.1875-8.0938-8.1875h-38.312v-8.9062zm-28.062 17.312h28.062v48.031h-28.062zm46.156 0h28.25v48.031h-28.25z" fill-rule="evenodd" stroke="#231f20" stroke-width="1.3902"/>
<path transform="translate(1523.2 137.95)" d="m388.53-126.5c-4.4834 0-8.0625 3.5755-8.0625 8.0938v76.875h110.12v-76.875c1e-5 -4.5182-3.565-8.0938-8.0312-8.0938zm10.281 8.0625h73.719v69.094h-73.719zm3.8438 7.1562v8.2812h23.281v10.688h-21.969v8.375h21.969v19.812h-23.281v8.1875h65.875v-8.1875h-23.938v-19.812h22.562v-8.375h-22.562v-10.688h23.844v-8.2812zm45.188 30.438 4.6875 8.375c1e-5 -1e-6 1.3455 3.1814 4.0625 4.6875 2.2939 1.2744 5.9062 1 5.9062 1h5.6875v-7.75l-4.1562-0.0625-3.5625-6.25z" stroke="#231f20" stroke-width="1.3902"/>
<path d="m2120.1 30.096v-6.1981h13.259v6.1981h-13.259m13.259 14.481h-13.259v-5.8505h13.259v5.8505m24.485-14.481h-6.6327v-6.3718c0-4.6341-3.73-8.3992-8.37-8.3992h-22.742v-4.8658h-17.024v4.8658h-22.684v8.573h22.684v6.1981h-25.551v8.631h25.551v5.8505h-22.684v8.573h22.684v6.1981h-24.607v8.631h24.607v5.9084h-26.849v8.7468h26.814v6.0822h-17.615c-6.8932 0-13.283-2.0853-18.658-5.503 3.4639-5.0395 5.5085-11.122 5.5085-17.667l0.1043-22.939-10.566-0.05793c9.1059-5.8505 13.763-16.393 13.763-28.036 0-0.17378-34.762-0.05793-34.762-0.05793l-0.093 8.6889h20.13c-1.5524 9.7895-9.0772 17.609-18.728 19.521v8.4572h17.639v12.512c0 3.7652-1.0195 7.2407-2.6701 10.311-2.7689-3.939-4.75-8.4572-5.6884-13.381l-9.4711 0.11585c0.7591 7.8779 3.742 15.003 8.295 20.911-2.8092 1.9116-6.0414 3.2438-9.5865 3.6493v11.643c7.1652 0 13.792-2.375 19.121-6.4298 6.5688 4.4024 14.458 7.009 22.968 7.009h73.843l0.07-8.8047-36.546 0.05793v-6.0822h31.147v-8.7468h-31.147v-5.9084h31.147v-8.631h-31.147v-6.1981h31.465l-0.07-14.424h6.3486v-8.631" stroke="#231f20" stroke-width="1.3902"/>
<path transform="translate(1523.2 137.95)" d="m963.75-131.25c-7.0034 13.207-15.921 21.559-27.031 29.031l6.5625 11.5c12.999-7.2987 23.641-18.275 30.406-31.656zm25.656 6.3125v8.6875h70.281v-8.6875zm-11.812 9.2188c-6.9798 13.844-21.761 26.523-37.25 33.938l7.0938 11.125c3.4292-1.4481 6.9019-3.1776 10.094-5.0312v35.25h17.062l0.0625-48.406c5.1494-5.1554 9.693-11.409 13.406-17.781zm7.5312 17.719v8.75h45.469v35.156c0 2.7225-2.2292 4.9688-4.9688 4.9688h-20.156v8.6875h28.594c8.359-1e-6 15.062-6.757 15.062-15.156v-33.656h13.188v-8.75z" fill-rule="evenodd" stroke="#231f20" stroke-width="1.3902"/>
<path d="m2216.2 22.508v-9.2102h-34.698v9.2102h34.698m60.776 56.42c7.9414-5.5609 15.107-12.222 21.212-19.753l0.035-10.89h-78.165v9.7895h58.436c-5.3524 5.445-11.44 10.137-18.044 14.076-6.2212-3.1859-12.141-6.8932-17.65-11.238h-21.01c6.6388 7.1249 14.244 13.439 22.568 18.71-7.9303 2.7225-16.37 4.3444-25.134 4.692l0.023 12.744c14.829 0 28.847-3.2438 41.498-8.9206 12.987 5.445 27.196 8.573 42.072 8.7468v-12.975c-8.9846-0.69511-17.627-2.4329-25.841-4.9816m-29.582-48.542 0.023-10.543 24.526-0.11585v10.658c0.1391 3.939-1.1061 13.902 15.941 13.96h10.658v-8.0517l-2.8036-0.05793c-6.7658 0.46341-6.1689-2.4329-6.1689-4.4024v-12.628c0-4.4024-3.6433-7.9938-8.156-7.9938h-51.253l0.046 20.622c0 1.6219 0.614 4.8658-6.1517 4.4024l-2.989-0.05793v8.1675h10.363c17.696 0.98474 15.808-10.021 15.964-13.96m-25.852 34.582s-7.1828 6.9511-14.875 12.222l-0.07-44.661-31.24 0.17378v8.5151h13.827l-0.012 43.966c-4.8542 1.5061-8.7468 2.4329-8.7468 2.4329l8.77 10.89s8.6425-2.0853 17.76-6.7773c8.8047-4.5182 14.586-10.369 14.586-10.369v-16.393" fill-rule="evenodd" stroke="#231f20" stroke-width="1.3902"/>
<path d="m2394.4 28.127h28.488v-8.6889h-28.488v8.6889m0 17.146h28.488v-8.573h-28.488v8.573m34.234 34.698c6.1401-5.8505 11.099-12.917 14.505-20.795l-12.738-0.11585c-2.6354 5.0395-6.1573 9.5578-10.374 13.381-0.3536-0.46341-1.7494-2.2591-2.1085-2.7225-2.2823-3.0701-3.8579-6.3139-5.0919-10.427h-13.085c1.3787 4.4024 4.0604 10.774 6.1402 14.308 9.3145 15.003 23.396 23.634 37.756 23.923v-12.107c-4.9469-0.11585-10.253-2.2591-15.003-5.445m-20.344 0.11585c-3.3018 2.5487-10.769 4.5182-13.816 4.692l0.035-30.99h44.817l0.052-34.582c0-4.5761-3.6609-8.2834-8.2426-8.2834h-52.736l-0.012 74.782h-3.4061v11.759h8.4048c8.295 0 17.268-1.6219 24.926-4.5182l-0.023-12.86" fill-rule="evenodd" stroke="#231f20" stroke-width="1.3902"/>
<path d="m2353 82.983v-20.158h19.811v-8.573h-19.811v-9.7315h18.218v-8.631l-33.244 0.05793c2.3574-2.4908 4.5706-5.503 6.5864-8.3413l27.955-0.11585v-8.2255h-22.707c1.4134-2.6646 2.8615-5.3871 4.0085-8.1675l-12.721-4.5182c-4.5993 12.802-14.024 24.097-24.277 30.295l8.4048 10.021c1.2456-0.86889 2.5724-1.564 3.7596-2.4908h9.4767v9.8474h-12.5v8.573h12.738l-0.041 24.097c-2.8439 0.46341-5.7059 0.69511-8.6597 0.81096l8.4225 10.543c12.726-1.2164 24.398-5.9664 34.037-13.265l0.023-14.018c-5.711 5.0395-12.297 9.0944-19.48 11.991z" fill-rule="evenodd" stroke="#231f20" stroke-width="1.3902"/>
</g>
</g>
</svg>
