<?xml version="1.0" encoding="UTF-8"?>
<svg xmlns="http://www.w3.org/2000/svg" width="119" height="28" fill="none" viewBox="0 0 119 28">
    <title>Zepto logo</title>
    <path fill="currentColor" d="M16.828 0H.957A.945.945 0 000 .933v15.48c0 .832 1.03 1.248 1.634.66l15.871-15.48c.603-.588.176-1.593-.677-1.593zM28.708 27.067V2.253c0-.831-1.03-1.248-1.633-.66L1.634 26.407C1.03 26.995 1.458 28 2.31 28h25.441a.945.945 0 00.957-.933zM118.4 14.008c0-5.376-3.376-9.015-8.934-9.015-5.49 0-8.968 3.706-8.968 9.015 0 5.309 3.478 9.015 8.968 9.015 5.524 0 8.934-3.706 8.934-9.015zm-8.934 5.542c-2.864 0-4.569-1.97-4.569-5.542 0-3.573 1.705-5.543 4.569-5.543 2.83 0 4.569 1.97 4.569 5.543 0 3.572-1.739 5.542-4.569 5.542zM100.26 5.428h-3.479V.793H92.52v4.635H89.79v3.205h2.728v9.75c0 3.105 1.705 4.407 5.49 4.407.443 0 1.194-.034 2.251-.134v-3.205h-1.467c-1.466 0-2.012-.4-2.012-1.503V8.633h3.479V5.428zM82.107 4.993c-2.49 0-4.365.968-5.627 2.872V5.394h-4.126V28h4.297v-7.615c1.261 1.77 3.069 2.638 5.456 2.638 5.388 0 7.877-4.174 7.877-9.015 0-4.875-2.455-9.015-7.877-9.015zm-5.559 9.015c0-3.606 1.705-5.543 4.536-5.543 2.864 0 4.535 1.837 4.535 5.41 0 2.87-1.16 5.675-4.535 5.675-3.342 0-4.536-2.637-4.536-5.542zM70.931 14.308c0-5.242-3.069-9.315-8.695-9.315-5.49 0-8.696 3.806-8.696 9.015 0 5.208 3.274 9.015 8.764 9.015 3.81 0 6.69-1.846 7.877-4.81.12-.3.223-.611.307-.933h-4.126c-.716 1.636-2.046 2.47-4.024 2.47-2.592 0-4.262-1.468-4.57-4.44h13.163v-1.002zm-8.73-6.043c2.49 0 4.059 1.603 4.434 4.107h-8.832c.409-2.771 2.046-4.107 4.399-4.107zM47.39 19.35c-1.603 0-2.797 0-3.615.033.58-.7 1.33-1.569 2.216-2.637l6.957-8.581V5.394H38.592v3.272h5.388c1.602 0 2.796 0 3.614-.034-.58.702-1.33 1.57-2.216 2.638l-6.957 8.58v2.772h14.936V19.35H47.39z">
    </path>
</svg>