<svg xmlns="http://www.w3.org/2000/svg" width="200" height="156"><g transform="matrix(3.1437 0 0 3.1437 -3498.8 -2134.32)"><path d="M1176 710.77v-.763h-.2l-.23.524-.23-.524h-.2v.763h.14v-.575l.215.496h.146l.215-.497v.576zm-1.26 0v-.633h.255v-.13h-.65v.13h.255v.633z" fill="#0099df"/><path d="m1153.4 714.05h-17.202v-30.915h17.202z" fill="#6c6bbd"/><path d="M1137.3 698.6c0-6.27 2.936-11.857 7.51-15.457-3.344-2.633-7.564-4.204-12.15-4.204-10.858 0-19.66 8.803-19.66 19.66s8.8 19.66 19.66 19.66c4.586 0 8.806-1.57 12.15-4.204-4.572-3.6-7.51-9.186-7.51-15.457" fill="#eb001b"/><path d="M1176.6 698.6c0 10.86-8.8 19.66-19.66 19.66a19.58 19.58 0 0 1-12.151-4.204c4.574-3.6 7.5-9.186 7.5-15.457s-2.936-11.857-7.5-15.457a19.58 19.58 0 0 1 12.151-4.204c10.858 0 19.66 8.803 19.66 19.66" fill="#0099df"/><path d="M1159.2 722.78c.23 0 .557.044.8.143l-.35 1.07a1.84 1.84 0 0 0-.71-.131c-.743 0-1.114.48-1.114 1.343v2.928h-1.136v-5.22h1.125v.634c.295-.46.72-.765 1.376-.765m-4.197 1.17h-1.856v2.36c0 .524.185.874.754.874a2.11 2.11 0 0 0 1.004-.295l.328.97c-.36.25-.928.405-1.42.405-1.344 0-1.812-.72-1.812-1.934v-2.38h-1.06v-1.038h1.06v-1.584h1.146v1.584h1.856zm-14.536 1.114c.12-.754.58-1.268 1.388-1.268.73 0 1.2.46 1.32 1.268zm3.9.46c-.01-1.628-1.016-2.74-2.48-2.74-1.53 0-2.6 1.114-2.6 2.74 0 1.66 1.114 2.74 2.676 2.74.786 0 1.506-.196 2.14-.73l-.557-.84c-.436.35-.994.546-1.517.546-.73 0-1.398-.34-1.56-1.278h3.876l.023-.436m5-1.278a3.35 3.35 0 0 0-1.626-.449c-.622 0-.994.23-.994.613 0 .35.392.447.884.512l.535.076c1.136.165 1.824.645 1.824 1.563 0 .994-.874 1.704-2.38 1.704-.852 0-1.64-.22-2.26-.678l.535-.885c.382.295.95.546 1.737.546.775 0 1.2-.23 1.2-.634 0-.294-.295-.46-.917-.545l-.535-.076c-1.17-.165-1.803-.7-1.803-1.54 0-1.038.852-1.67 2.174-1.67.83 0 1.584.186 2.13.546zm14.006-.385a1.72 1.72 0 0 0-.651.122 1.56 1.56 0 0 0-.52.345 1.6 1.6 0 0 0-.345.531 1.79 1.79 0 0 0-.125.68 1.79 1.79 0 0 0 .125.681 1.6 1.6 0 0 0 .345.531c.146.147.32.262.52.345s.418.123.65.123.45-.04.65-.123a1.56 1.56 0 0 0 .523-.345 1.59 1.59 0 0 0 .349-.531 1.79 1.79 0 0 0 .125-.681c0-.247-.04-.475-.125-.68a1.59 1.59 0 0 0-.349-.531 1.56 1.56 0 0 0-.523-.345 1.74 1.74 0 0 0-.65-.122m0-1.08a2.94 2.94 0 0 1 1.125.211 2.73 2.73 0 0 1 .895.58 2.62 2.62 0 0 1 .59.873c.14.335.214.7.214 1.095s-.07.76-.214 1.095a2.66 2.66 0 0 1-.591.874 2.75 2.75 0 0 1-.895.58 2.96 2.96 0 0 1-1.125.2c-.405 0-.78-.07-1.125-.2a2.72 2.72 0 0 1-.891-.58 2.73 2.73 0 0 1-.59-.874 2.74 2.74 0 0 1-.214-1.095c0-.395.07-.76.214-1.095s.34-.626.6-.873a2.7 2.7 0 0 1 .891-.58 2.94 2.94 0 0 1 1.125-.211m-29.52 2.74c0-.918.6-1.67 1.584-1.67.94 0 1.572.72 1.572 1.67s-.634 1.67-1.572 1.67c-.982 0-1.584-.752-1.584-1.67m4.226 0v-2.6h-1.135v.634c-.36-.47-.906-.765-1.65-.765-1.464 0-2.6 1.146-2.6 2.74s1.146 2.74 2.6 2.74c.743 0 1.287-.295 1.65-.765v.634h1.135zm-6.4 2.6v-3.276c0-1.234-.786-2.064-2.053-2.075-.666-.01-1.355.196-1.835.93-.36-.58-.93-.93-1.726-.93-.556 0-1.102.164-1.53.775v-.644h-1.135v5.22h1.146v-2.894c0-.906.502-1.387 1.277-1.387.754 0 1.136.5 1.136 1.376v2.905h1.146v-2.894c0-.906.525-1.387 1.277-1.387.776 0 1.148.5 1.148 1.376v2.905zm35.73-.385v.13h.12c.026 0 .05-.006.064-.016a.06.06 0 0 0 .025-.05c0-.023-.01-.038-.025-.048s-.037-.016-.064-.016zm.12-.1a.22.22 0 0 1 .143.041c.034.028.05.065.05.113 0 .04-.013.072-.04.1s-.065.04-.114.048l.158.18h-.123l-.146-.18h-.047v.18h-.102v-.48zm-.03.646a.38.38 0 0 0 .156-.031.41.41 0 0 0 .128-.086.4.4 0 0 0 .086-.129.41.41 0 0 0-.086-.445c-.036-.038-.08-.065-.128-.085a.38.38 0 0 0-.156-.031.47.47 0 0 0-.16.03c-.06.02-.094.05-.13.085a.39.39 0 0 0-.116.286.39.39 0 0 0 .031.157.38.38 0 0 0 .085.129c.036.036.08.065.13.086s.102.03.16.03m0-.923a.51.51 0 0 1 .205.041c.065.026.12.064.17.1a.51.51 0 0 1 .112.165c.027.063.04.13.04.2a.51.51 0 0 1-.04.2c-.026.06-.065.118-.112.164a.54.54 0 0 1-.169.112.51.51 0 0 1-.205.041c-.075 0-.144-.014-.2-.04a.53.53 0 0 1-.17-.112c-.05-.047-.085-.1-.112-.164s-.04-.13-.04-.2a.51.51 0 0 1 .152-.365c.047-.048.104-.085.17-.1a.58.58 0 0 1 .21-.04" fill="#231f20"/></g></svg>