<?xml version="1.0" encoding="utf-8"?>
<!-- Generator: Adobe Illustrator 19.2.1, SVG Export Plug-In . SVG Version: 6.00 Build 0)  -->
<svg version="1.1" id="Layer_1" xmlns="http://www.w3.org/2000/svg" xmlns:xlink="http://www.w3.org/1999/xlink" x="0px" y="0px"
	 width="25px" height="25px" viewBox="0 0 25 25" style="enable-background:new 0 0 25 25;" xml:space="preserve">
<style type="text/css">
	.st0{fill:#FFB819;}
	.st1{fill:#231F20;}
	.st2{fill:#FFFFFF;}
	.st3{fill:#C11524;}
	.st4{fill-rule:evenodd;clip-rule:evenodd;fill:#006BB1;}
	.st5{fill-rule:evenodd;clip-rule:evenodd;fill:#F37121;}
	.st6{fill:#003887;}
	.st7{fill:#009DDF;}
	.st8{fill:url(#SVGID_1_);}
	.st9{fill:url(#SVGID_2_);}
	.st10{fill:url(#SVGID_3_);}
	.st11{fill:url(#SVGID_4_);}
	.st12{fill:url(#SVGID_5_);}
	.st13{fill:url(#SVGID_6_);}
	.st14{fill:#009BDE;}
	.st15{fill:#022169;}
	.st16{fill:#002F87;}
	.st17{fill:#F5921B;}
	.st18{fill:#0071BB;}
	.st19{fill:#2C9940;}
	.st20{fill:#226DBB;}
	.st21{fill:#D81928;}
	.st22{fill:#FF7404;}
	.st23{fill-rule:evenodd;clip-rule:evenodd;fill:#5269AF;}
	.st24{fill-rule:evenodd;clip-rule:evenodd;fill:#F9913C;}
	.st25{fill:#F14A43;}
	.st26{fill:#F46E40;}
	.st27{fill:#FA983C;}
	.st28{fill-rule:evenodd;clip-rule:evenodd;fill:#1A5EAB;}
	.st29{fill-rule:evenodd;clip-rule:evenodd;fill:#F8883E;}
	.st30{fill:#80726C;}
	.st31{fill:#FCFCFC;}
	.st32{fill:#CF4D16;}
	.st33{fill:#DF6210;}
	.st34{fill:#F14942;}
	.st35{fill-rule:evenodd;clip-rule:evenodd;fill:none;stroke:#FFFFFF;stroke-width:0.0623;}
	.st36{fill:#EB8341;}
	.st37{fill:#35A15B;}
	.st38{fill:#6B787F;}
	.st39{fill:url(#SVGID_7_);}
	.st40{fill:url(#SVGID_8_);}
	.st41{fill:#A40B34;}
	.st42{fill:#7C0023;}
	.st43{fill:url(#SVGID_9_);}
	.st44{fill:#6D8DA6;}
	.st45{fill:#242021;}
	.st46{fill:#231300;}
	.st47{fill:#5EBB57;}
	.st48{fill:#B04A4A;}
	.st49{fill:#E05145;}
	.st50{fill:#CF0A2C;}
	.st51{fill:#002856;}
	.st52{fill:#007078;}
</style>
<g>
	<path class="st17" d="M12.5,0C5.596,0,0,5.596,0,12.5S5.596,25,12.5,25S25,19.404,25,12.5S19.404,0,12.5,0z M18.178,13.94
		c0.644,0.742,0.713,1.595,0.485,2.494c-0.216,0.852-0.576,1.631-1.305,2.181c-0.555,0.419-1.196,0.593-1.878,0.636
		c-0.735,0.046-1.465-0.01-2.185-0.153c-0.255-0.051-0.345,0.03-0.399,0.262c-0.154,0.663-0.329,1.321-0.483,1.984
		c-0.05,0.214-0.11,0.318-0.365,0.237c-0.347-0.111-0.708-0.181-1.066-0.258c-0.194-0.042-0.235-0.125-0.181-0.323
		c0.183-0.666,0.335-1.34,0.514-2.007c0.058-0.219,0.042-0.339-0.218-0.376c-0.23-0.033-0.455-0.106-0.677-0.179
		c-0.204-0.068-0.29-0.012-0.339,0.201c-0.161,0.693-0.348,1.379-0.512,2.072c-0.044,0.184-0.127,0.229-0.3,0.183
		c-0.363-0.097-0.727-0.19-1.093-0.275c-0.187-0.043-0.246-0.124-0.192-0.322c0.182-0.677,0.336-1.361,0.522-2.036
		c0.068-0.247,0.009-0.34-0.24-0.398c-0.87-0.205-1.733-0.439-2.602-0.649c-0.186-0.045-0.239-0.105-0.157-0.287
		c0.206-0.453,0.403-0.91,0.596-1.368c0.073-0.172,0.164-0.217,0.353-0.156c0.299,0.096,0.608,0.164,0.917,0.224
		c0.358,0.069,0.616-0.107,0.703-0.458c0.566-2.267,1.132-4.534,1.696-6.802c0.118-0.476-0.054-0.811-0.506-1
		C8.918,7.217,8.544,7.159,8.179,7.071C8,7.027,7.941,6.967,7.995,6.78c0.113-0.39,0.221-0.783,0.299-1.181
		C8.34,5.36,8.44,5.332,8.652,5.387c0.855,0.223,1.716,0.426,2.57,0.652c0.224,0.059,0.326,0.024,0.381-0.218
		c0.152-0.674,0.339-1.339,0.49-2.013c0.048-0.215,0.139-0.27,0.337-0.218c0.363,0.095,0.728,0.188,1.093,0.277
		c0.165,0.04,0.23,0.1,0.176,0.296c-0.18,0.656-0.329,1.321-0.498,1.98c-0.055,0.214-0.04,0.346,0.227,0.377
		c0.23,0.027,0.456,0.1,0.681,0.165c0.189,0.054,0.276-0.001,0.321-0.198c0.151-0.653,0.326-1.301,0.476-1.954
		c0.056-0.244,0.148-0.312,0.398-0.228c0.336,0.113,0.685,0.19,1.033,0.261c0.205,0.042,0.233,0.135,0.182,0.322
		c-0.174,0.647-0.323,1.302-0.504,1.947c-0.081,0.287,0.003,0.408,0.28,0.509c0.815,0.299,1.57,0.696,2.185,1.341
		c1.171,1.23,0.637,3.822-1.07,4.341c-0.067,0.02-0.129,0.054-0.244,0.103C17.549,13.404,17.902,13.621,18.178,13.94z"/>
	<path class="st17" d="M15.301,9.214c-0.738-0.506-1.602-0.668-2.452-0.861c-0.11-0.025-0.168,0.026-0.195,0.135
		c-0.223,0.906-0.449,1.811-0.675,2.716c-0.033,0.131-0.032,0.246,0.131,0.286c0.699,0.17,1.395,0.36,2.124,0.382
		c0.182-0.019,0.365-0.026,0.544-0.059c0.506-0.093,0.914-0.323,1.117-0.83C16.169,10.301,15.967,9.671,15.301,9.214z"/>
	<path class="st17" d="M14.507,13.991c-0.868-0.495-1.831-0.701-2.791-0.92c-0.17-0.039-0.218,0.041-0.251,0.175
		c-0.247,1.004-0.492,2.009-0.746,3.012c-0.035,0.138-0.014,0.217,0.124,0.253c0.884,0.23,1.768,0.458,2.69,0.476
		c0.308,0.011,0.608-0.035,0.904-0.115c1.03-0.275,1.428-1.463,0.771-2.304C15.017,14.326,14.774,14.142,14.507,13.991z"/>
</g>
</svg>
