<?xml version="1.0" encoding="UTF-8" standalone="no"?>
<svg
   xmlns:dc="http://purl.org/dc/elements/1.1/"
   xmlns:cc="http://creativecommons.org/ns#"
   xmlns:rdf="http://www.w3.org/1999/02/22-rdf-syntax-ns#"
   xmlns:svg="http://www.w3.org/2000/svg"
   xmlns="http://www.w3.org/2000/svg"
   xmlns:sodipodi="http://sodipodi.sourceforge.net/DTD/sodipodi-0.dtd"
   xmlns:inkscape="http://www.inkscape.org/namespaces/inkscape"
   version="1.1"
   viewBox="0 0 84.099998 25.6"
   id="svg4"
   sodipodi:docname="logo.svg"
   width="84.099998"
   height="25.6"
   inkscape:version="1.0.1 (0767f8302a, 2020-10-17)">
  <metadata
     id="metadata10">
    <rdf:RDF>
      <cc:Work
         rdf:about="">
        <dc:format>image/svg+xml</dc:format>
        <dc:type
           rdf:resource="http://purl.org/dc/dcmitype/StillImage" />
        <dc:title></dc:title>
      </cc:Work>
    </rdf:RDF>
  </metadata>
  <defs
     id="defs8" />
  <sodipodi:namedview
     pagecolor="#ffffff"
     bordercolor="#666666"
     borderopacity="1"
     objecttolerance="10"
     gridtolerance="10"
     guidetolerance="10"
     inkscape:pageopacity="0"
     inkscape:pageshadow="2"
     inkscape:window-width="1864"
     inkscape:window-height="1016"
     id="namedview6"
     showgrid="false"
     fit-margin-top="0"
     fit-margin-left="0"
     fit-margin-right="0"
     fit-margin-bottom="0"
     inkscape:zoom="15.880952"
     inkscape:cx="42"
     inkscape:cy="12.8"
     inkscape:window-x="56"
     inkscape:window-y="27"
     inkscape:window-maximized="1"
     inkscape:current-layer="svg4" />
  <path
     fill="#40404c"
     d="M 7,13.7 H 6.3 V 0.2 C 6.3,0.2 5.1,0 3.2,0 1.2,0 0,0.2 0,0.2 V 25 c 0,0 1.2,0.3 3.2,0.3 2.1,0 3.1,-0.3 3.1,-0.3 V 18.1 H 7 l 3.5,6.9 c 0,0 1.3,0.3 3.3,0.3 2.2,0 3.5,-0.3 3.5,-0.3 l -4.8,-9.4 4.1,-8 c 0,0 -1.3,-0.3 -3.4,-0.3 -2.1,0 -3,0.3 -3,0.3 z M 19.1,8.4 c 0,0 -0.1,1.1 0.4,2.3 0.6,1.2 1.4,1.9 1.4,1.9 0,0 2,-0.7 4.1,-0.7 1.8,0 2.6,0.7 2.6,2 v 0.4 c -0.8,-0.1 -1.7,-0.1 -2.6,-0.1 -4.8,0 -7.2,1.6 -7.2,5.5 0,4 1.9,5.9 5.4,5.9 2.4,0 4,-0.7 4.8,-2.1 l 0.6,1.5 c 0,0 1,0.3 2.7,0.3 C 33,25.3 34,25 34,25 V 13.2 C 34,8.9 31.7,6.9 26.3,6.9 22.1,7 19.1,8.4 19.1,8.4 Z m 8.4,9.4 v 1 c 0,1.8 -0.6,3.1 -2,3.1 -1,0 -1.6,-0.5 -1.6,-2.1 0,-1.5 0.7,-2.1 2,-2.1 0.6,0 1.2,0 1.6,0.1 z m 8.8,-5 c 0,3.4 2.3,4.6 4.5,5.3 2,0.6 3.8,0.9 3.8,1.8 0,0.7 -0.6,1.1 -2.4,1.1 -2.4,0 -4.6,-0.7 -4.6,-0.7 -0.9,1 -1.4,2.2 -1.4,3.9 0,0 2.6,1.4 6.8,1.4 5.3,0 7.6,-2.3 7.6,-5.9 0,-3.3 -2.2,-4.6 -4.3,-5.3 -2.1,-0.7 -4.2,-0.9 -4.2,-1.8 0,-0.7 0.6,-1.1 2.2,-1.1 2.2,0 4.2,0.5 4.2,0.5 1.1,-1 1.4,-2.5 1.3,-3.9 0,0 -2.2,-1.1 -6.2,-1.1 -5,0 -7.3,2.1 -7.3,5.8 z m 16,0 c 0,3.4 2.3,4.6 4.5,5.3 2,0.6 3.8,0.9 3.8,1.8 0,0.7 -0.6,1.1 -2.4,1.1 -2.4,0 -4.6,-0.7 -4.6,-0.7 -0.9,1 -1.4,2.2 -1.4,3.9 0,0 2.6,1.4 6.8,1.4 5.3,0 7.6,-2.3 7.6,-5.9 0,-3.3 -2.2,-4.6 -4.3,-5.3 -2.1,-0.7 -4.2,-0.9 -4.2,-1.8 0,-0.7 0.6,-1.1 2.2,-1.1 2.2,0 4.2,0.5 4.2,0.5 1.1,-1 1.4,-2.5 1.3,-3.9 0,0 -2.2,-1.1 -6.2,-1.1 -5,0 -7.3,2.1 -7.3,5.8 z M 69.2,8.4 c 0,0 -0.1,1.1 0.4,2.3 0.6,1.2 1.4,1.9 1.4,1.9 0,0 2,-0.7 4.1,-0.7 1.7,0 2.6,0.7 2.6,2 v 0.4 c -0.8,-0.1 -1.8,-0.1 -2.6,-0.1 -4.8,0 -7.2,1.6 -7.2,5.5 0,4 1.9,5.9 5.4,5.9 2.4,0 4,-0.7 4.8,-2.1 l 0.6,1.5 c 0,0 1,0.3 2.7,0.3 1.7,0 2.7,-0.3 2.7,-0.3 V 13.2 C 84.1,8.9 81.8,6.9 76.4,6.9 72.2,7 69.2,8.4 69.2,8.4 Z m 8.5,9.4 v 1 c 0,1.8 -0.6,3.1 -2,3.1 -1,0 -1.6,-0.5 -1.6,-2.1 0,-1.5 0.7,-2.1 2,-2.1 0.5,0 1.1,0 1.6,0.1 z"
     id="path2" />
</svg>
