<?xml version="1.0" encoding="UTF-8"?>
<svg version="1.1" viewBox="0 0 512 512" xmlns="http://www.w3.org/2000/svg" xmlns:cc="http://creativecommons.org/ns#" xmlns:dc="http://purl.org/dc/elements/1.1/" xmlns:rdf="http://www.w3.org/1999/02/22-rdf-syntax-ns#">
<metadata>
<rdf:RDF>
<cc:Work rdf:about="">
<dc:format>image/svg+xml</dc:format>
<dc:type rdf:resource="http://purl.org/dc/dcmitype/StillImage"/>
<dc:title/>
</cc:Work>
</rdf:RDF>
</metadata>
<g transform="scale(.5)">
<path d="m686.17 341.23c-54.09 0-105.35 8.373-151.22 23.311 71.378 11.083 126.04 72.824 126.04 147.37 0 135.56-158.99 245.43-355.12 245.43-61.17 0-118.78-10.661-169.05-29.515 101.14 124.39 229.1 226.06 375.08 296.18 223.47-107.37 404.72-288.56 512.09-512-2.861-5.933-5.813-11.836-8.764-17.71-52.796-89.78-180.22-153.06-329.07-153.06z" fill="#d5ab44"/>
<path d="m337.29 680.18c52.254 0 101.83-7.77 146.49-21.775-67.042-12.77-118.12-70.355-120.98-140.38-0.09-1.958-0.15-3.976-0.15-6.114 0-135.56 159.02-245.46 355.15-245.46 61.199 0 118.81 10.723 169.08 29.546-101.1-124.3-229.01-225.91-374.96-296-223.35 107.31-404.54 288.41-511.91 511.7 46.712 97.852 180.07 168.48 337.29 168.48z" fill="#095caa"/>
</g>
</svg>
