<svg xmlns="http://www.w3.org/2000/svg" viewBox="0 0 199 40" fill-rule="evenodd" xmlns:v="https://vecta.io/nano"><path fill="#316e87" d="M13.062 0l-1.784 11.286 5.7 5.695 1.785-11.285z"/><path fill="#00b5a0" d="M0 13.07l5.692 5.696 11.277-1.784-5.692-5.697z"/><path fill="#316e87" d="M20.95 34.037l5.69 5.696 1.786-11.284-5.692-5.697z"/><path fill="#00b5a0" d="M34.012 20.966L22.735 22.75l5.692 5.697 11.276-1.786z"/><path fill="#fbb040" d="M20.95 5.696l1.786 11.285 5.69-5.696L26.642.001z"/><path fill="#f58220" d="M22.735 16.98l11.277 1.786 5.692-5.696-11.277-1.786z"/><path fill="#fbb040" d="M11.277 28.448l1.784 11.285 5.692-5.697-1.786-11.284z"/><path fill="#f58220" d="M0 26.663l11.278 1.785 5.7-5.696-11.276-1.785z"/><path d="M57.197 10.233c0 2.585-1.925 4.314-4.69 4.314-3.01 0-4.79-2.042-4.79-5.88 0-3.524 1.482-5.583 4.608-6.24l4.08-.873.297 1.844L53 4.156C50.88 4.6 49.875 5.588 49.694 7.5c.773-.94 1.925-1.482 3.274-1.482 2.518 0 4.23 1.73 4.23 4.216m-2.107.05c0-1.532-1.02-2.52-2.534-2.52-1.53 0-2.567.988-2.567 2.52s1.054 2.602 2.567 2.602 2.534-1.087 2.534-2.602m11.25-1.054v5.154H64.4v-1.07c-.493.757-1.448 1.186-2.764 1.186-2.008 0-3.274-1.103-3.274-2.635 0-1.466.987-2.62 3.652-2.62h2.27v-.13c0-1.203-.723-1.9-2.187-1.9-.988 0-2.008.33-2.666.872l-.807-1.498c.938-.725 2.304-1.087 3.72-1.087 2.533 0 3.998 1.202 3.998 3.738m-2.057 2.404v-1.02h-2.123c-1.4 0-1.776.527-1.776 1.17 0 .74.625 1.218 1.677 1.218 1.004 0 1.876-.46 2.222-1.367m4.603-6.044h2.056v3.574h4.428V5.588h2.056v8.793h-2.056v-3.474h-4.428v3.474h-2.056zm14.952 5.27h-1.596v3.524h-2.056V5.588h2.056v3.558H83.9l2.6-3.558h2.205L85.503 9.82l3.405 4.56H86.5zM62.133 20.03v15.733h-2.875v-13.26h-8.153v13.26H48.23V20.03zm5.147 15.734h2.875V20.03H67.28zm21.428-4.362c0 2.72-2.044 4.36-5.952 4.36H75.3V20.03h7.03c3.504 0 5.615 1.438 5.615 4.045 0 1.686-.854 2.877-2.313 3.507 1.977.54 3.077 1.842 3.077 3.82zM78.174 26.75h3.907c1.888 0 2.9-.765 2.9-2.226 0-1.483-1.01-2.247-2.9-2.247h-3.907v4.473zm7.592 4.428c0-1.574-1.08-2.293-3.1-2.293h-4.492v4.63h4.493c2.02 0 3.1-.764 3.1-2.337zm22.328 2.112v5.822H105.4v-3.35H93.338v3.35H90.62l.022-5.82h.673c2.134-.1 2.65-3.664 2.808-8.272l.18-5h11.52V33.29h2.27zm-13.117 0h7.974V22.503h-6.155l-.112 2.787c-.134 3.574-.494 6.743-1.707 8.002zm28.057.023v2.45h-11.792V20.03h11.477v2.45h-8.557v4.1h7.6v2.406h-7.6v4.338zM140.96 20.03v15.733h-2.92V29.02h-8.13v6.743H127V20.03h2.92v6.496h8.13V20.03zm19.072 0v15.733h-2.92V29.02h-8.13v6.743h-2.92V20.03h2.92v6.496h8.13V20.03zm5.125 0h2.874V31.2l8.446-11.17h2.717v15.733h-2.875v-11.15l-8.444 11.15h-2.718zm19.162-.001h2.873V31.2l8.446-11.17h2.717v15.732h-2.873v-11.15l-8.446 11.15h-2.717V20.03zm2.897-4.316h2.046c.02 1.124.74 1.73 2.042 1.73 1.28 0 2.045-.606 2.1-1.73h2.02c-.022 2.1-1.414 3.26-4.1 3.26-2.717 0-4.065-1.17-4.087-3.26z" fill="#2f4961"/></svg>