<?xml version="1.0" encoding="UTF-8"?>
<svg width="106.85" height="94.7" version="1.1" viewBox="0 0 106.84649 94.700149" xmlns="http://www.w3.org/2000/svg" xmlns:cc="http://creativecommons.org/ns#" xmlns:dc="http://purl.org/dc/elements/1.1/" xmlns:rdf="http://www.w3.org/1999/02/22-rdf-syntax-ns#">
<metadata>
<rdf:RDF>
<cc:Work rdf:about="">
<dc:format>image/svg+xml</dc:format>
<dc:type rdf:resource="http://purl.org/dc/dcmitype/StillImage"/>
<dc:title/>
</cc:Work>
</rdf:RDF>
</metadata>
<path d="m24.841 73.751-1.1685 1.981c-0.41676-1.3051-1.1724-2.6595-1.6593-3.6169-0.93479 1.9278-2.4162 1.9667-3.8417 1.9771 0.31549-4.6197-5.4893-9.2653-2.9381-14.535 0.50894-1.0547 0.17917-2.3442-0.92051-2.8969-3.895-1.9771-2.0916 6.2244-5.984 6.4709 0.74524-0.93016 1.027-2.8774 1.1386-3.046-0.82833 0.21535-2.8122 1.4737-3.7028-0.13881 2.2747-1.2376 2.929-3.0992 3.286-4.9686 0.45311-2.365 0.66084-3.4599 1.1217-4.4329 0.47908-1.0391 1.2477-1.9395 2.8914-4.0696-0.3895 0.0597-4.7713 0.98076-5.7529 0.52152 7.5731-4.6469 5.8658-10.557 17.418-15.826-3.0277-2.2469-6.1268-4.0385-3.9053-8.3338 3.164 3.7985 9.1765 2.4843 12.425 0.7187-3.2094-0.64216-7.3433-3.4651-8.3274-6.6097 1.2113-0.18681 2.7771 1.1235 3.6794 1.7345 0.43364-1.1598 0.60632-2.5103 2.0137-2.8035-1.8761 4.0177 1.8332 6.1064 5.3711 6.1232 0.54659 0 2.8355-0.22702 2.8355-0.22702-0.36353-0.75244-1.8436-2.8048-0.76731-3.6363 0.86468 0.81211 1.8955 1.4595 2.8368 2.1795 6.8785 5.3189-3.2705 10.251-7.4225 12.489-6.5163 3.5183-4.7726 7.7021-2.05 8.7723-0.01168 0.47611-0.30381 0.68497-0.75562 0.83157-1.9033 0.63567-3.6911-0.7213-5.2089-1.5918 0.09218 2.6257-0.08699 5.149 2.8161 6.5942l-2.002 0.73168c1.7216 1.3051 2.2448 1.9978 4.3182 2.2677-0.96855 0.46833-2.1695 0.46055-3.1978 0.55655 0.25966 0.72778 0.47389 1.7111 1.0179 2.3637-4.2429 0.50206-5.9398-1.9174-7.2511-1.8175-2.7979 0.20757-2.6239 5.4707 4.2624 5.4785l-0.71408 1.1766s1.3061 0.76152 2.4993 0.90811c-0.45701 0.36973-0.89974 0.86919-1.284 1.2506l1.0997 0.94573c-2.8096 0.50464-3.6067-2.483-5.4296-1.0417-2.7797 2.2015 3.351 6.8497 9.2298 6.1557-0.49466 0.63178-1.8735 1.5606-2.472 2.0445 4.7921 4.5224 2.4279 8.7788 4.3987 11.898-4.1287-0.27373-7.1888-3.3029-7.9042-6.5786m5.3854-5.0854c1.3295-1.056 2.4279-1.5827 2.3759-4.1293-1.9955 1.0171-7.6588 0.96389-10.024-2.291-0.66864-0.92367 0.04544-1.3894 0.6933-0.66162 1.6177 1.8344 4.6168 1.0028 5.7113 0.47222-0.17268-0.6279-0.65955-1.4504-1.0685-1.802 0.40897-0.40476 1.5658-1.0015 1.806-2.0342-0.6219-0.336-3.0238-0.576-3.0238-0.576 0.3869-0.36844 0.86728-0.88865 0.58035-2.2625-2.4538 0.75373-5.4854-0.26854-6.1748-1.178-0.67772-0.89124 0.01558-1.728 0.58165-1.1403 1.223 1.2856 7.2511 2.7555 9.4946 0.52281-0.83352-0.22832-1.7514-0.97297-1.9189-1.4322 2.0747-0.20757 3.7314-1.4322 3.8664-2.9578-1.1477 0-3.3159-0.083-4.0521-0.63827 0.99581-0.36714 1.6216-0.72779 1.9358-1.8396-3.795-0.22962-4.0949-3.046-4.1144-3.5131 2.4694 1.4244 6.8201 0.79394 5.6957-2.7152-2.0513-0.10898-4.1261-3.434 1.5281-6.4917 5.1374-2.7762 10.984-5.773 10.47-10.708-0.33756-3.1537-5.5412-5.3098-6.2008-6.9081-2.1708 1.0326-2.6109 2.2314-1.6307 4.2396 0 0-4.8349 0.48129-5.2166-2.4934-0.16748-1.3349 0.72446-2.5842 1.6813-3.5364-0.5414 0-4.1871-0.97427-5.2855 1.9926-2.0462-1.3933-3.7911-1.3427-5.1686 0.12713 2.1968 1.3051 3.5574 5.7717 7.1888 7.091-2.5837 1.4011-6.7603 0.81211-9.1986-3.4858-2.3058 3.4729-3.6327 6.9107 1.3113 10.581-9.0012 4.0956-8.9363 11.917-16.765 15.645 0.79587 2.1302 2.4707 2.1302 4.6025 1.7981-3.386 4.3965-0.50115 8.9942-5.858 10.875 0.49985 1.7916 1.5061 3.2199 3.4847 2.6971-0.56347 0.87698-0.93349 0.85752-1.8086 1.8214 2.929 1.8435 6.4033 0.50724 7.1901-5.4045 0.14152-1.0547 1.5969-0.39568 1.0919 0.63957-3.3393 6.9003 5.105 12.09 2.1176 17.152 2.6369-0.11027 4.6402-0.31394 5.7425-1.2052 0.53621 1.0625 0.85689 2.1146 0.74264 3.1511 1.4541-0.29449 1.9851-1.1585 2.0851-2.1392 0.95426 2.7749 4.3624 5.7444 9.8192 5.7444-2.894-4.1163-0.19994-8.2975-4.287-13.007" fill="#d0d5d6" fill-rule="evenodd"/>
<path d="m17.285 57.251c0.99321 1.0365 2.2007 1.1429 4.4883 0.99762-2.5135-0.30227-3.9235-0.9133-4.7986-2.5803-0.13113-0.85881-0.21552-1.7786-0.25317-2.7632-0.0766-2.6413 0.79327-5.7885 2.6213-9.2329-0.01298 2.1613 1.7034 5.5589 5.5269 6.1245-3.4405-1.5023-5.4594-4.8856-4.3598-8.1574 0.71667-1.1455 1.5255-2.326 2.4279-3.5248 0.45441-0.57989 0.89454-1.1377 1.3269-1.6579-0.4635 1.6709 1.5593 3.3963 2.9121 3.6843-0.73485-0.71481-2.3071-3.0383 1.3256-6.9211-1.0153 0.47741-2.1357 1.1559-2.9848 1.8214 6.6033-7.13 12.028-7.3284 14.522-10.914-3.6119 2.4662-13.171 3.7972-17.466 2.6322 2.3707 1.584 8.0846 1.4387 9.4803 1.1442-4.6597 4.5263-14.832 9.1991-16.593 13.36 2.4798-2.7165 4.0806-3.2147 6.2254-3.9152-1.6891 2.5194-3.2107 4.7364-4.2598 7.3064-2.7057 5.8729-6.3254 5.9468-6.563 10.792 1.2347-3.7544 3.7392-4.7053 5.4763-7.1715-0.3077 1.5749-0.44922 3.3185-0.39469 5.3358 0.06102 2.1911 0.49985 4.1163 1.197 5.8378-0.17657 2.3961 0.03765 6.4852 2.7849 9.1849-1.867-2.3624-2.2682-6.1998-2.102-7.6969 2.15 4.1475 8.2846 9.8737 11.249 13.724-2.9641-4.9505-10.232-10.735-11.789-17.41m67.877-19.903c2.137 0.70314 3.747 1.1987 6.2228 3.9152-1.7579-4.1604-11.938-8.8346-16.598-13.361 1.4022 0.29449 7.1135 0.44108 9.4842-1.1429-4.2909 1.165-13.854-0.16605-17.468-2.6322 2.4967 3.5857 7.9184 3.7855 14.523 10.914-0.8465-0.66552-1.9696-1.344-2.9861-1.8214 3.6301 3.8828 2.0617 6.2024 1.3256 6.9211 1.3541-0.288 3.3743-2.0108 2.9134-3.6843 0.43364 0.52021 0.87766 1.078 1.3269 1.6579 0.90882 1.1987 1.7112 2.3792 2.4266 3.5248 1.101 3.2718-0.9244 6.6551-4.3546 8.1574 3.8236-0.56433 5.5399-3.9632 5.5205-6.1245 1.828 3.4443 2.7044 6.5916 2.6213 9.2329-0.03246 0.98465-0.12204 1.9044-0.24928 2.7632-0.87896 1.667-2.2889 2.2794-4.7934 2.5803 2.2824 0.1453 3.4821 0.0389 4.487-0.99762-1.5619 6.6746-8.8286 12.457-11.794 17.41 2.9654-3.8504 9.0921-9.5766 11.249-13.724 0.16748 1.4971-0.235 5.3345-2.0968 7.6969 2.7421-2.6997 2.9563-6.7888 2.781-9.1862 0.6946-1.7228 1.1282-3.6454 1.1945-5.8365 0.06492-2.0173-0.08699-3.7609-0.39339-5.3358 1.7372 2.4662 4.2416 3.4171 5.4776 7.1715-0.235-4.8454-3.8547-4.9194-6.5656-10.792-1.0451-2.57-2.5629-4.787-4.2546-7.3064" fill="#d0d5d6" fill-rule="evenodd"/>
<path d="m97.388 60.086c0.10386 0.16865 0.37911 2.1159 1.1256 3.0474-3.895-0.24778-2.0864-8.4493-5.9827-6.4722-1.0997 0.55264-1.4282 1.8422-0.91661 2.8969 2.5486 5.2696-3.2588 9.9152-2.9329 14.535-1.4346-0.0104-2.9251-0.0493-3.8547-1.9771-0.48038 0.9574-1.2425 2.3118-1.6554 3.6169l-1.1659-1.981c-0.72186 3.2757-3.7807 6.3062-7.9055 6.5786 1.9592-3.1187-0.39339-7.3751 4.3974-11.898-0.59982-0.48-1.9747-1.4128-2.472-2.0445 5.8827 0.69406 12.013-3.9542 9.2272-6.1557-1.8189-1.4413-2.6213 1.5464-5.4244 1.0417l1.0984-0.94573c-0.383-0.384-0.83222-0.87957-1.2853-1.2506 1.197-0.14659 2.4993-0.90811 2.4993-0.90811l-0.71408-1.1766c6.8889-8e-3 7.0525-5.2709 4.2663-5.4785-1.31-0.0999-3.0147 2.3222-7.2537 1.8188 0.53621-0.65384 0.75562-1.6398 1.0192-2.365-1.0205-0.096-2.2344-0.0882-3.1978-0.55655 2.0734-0.27113 2.594-0.96259 4.3156-2.2677l-1.9955-0.73168c2.8978-1.4452 2.72-3.9697 2.807-6.5942-1.5112 0.87308-3.3068 2.2275-5.2024 1.5918-0.45182-0.1466-0.74653-0.35546-0.75822-0.83157 2.7226-1.0703 4.4571-5.2541-2.05-8.7723-4.1494-2.2378-14.304-7.1702-7.4225-12.49 0.93998-0.71871 1.9657-1.3661 2.8316-2.1782 1.0789 0.83157-0.39599 2.8839-0.76601 3.6363 0 0 2.2876 0.22962 2.8303 0.22962 3.547-0.0195 7.2628-2.1107 5.3828-6.1258 1.4074 0.29319 1.5736 1.6437 2.0033 2.8035 0.90493-0.61103 2.4733-1.9213 3.6872-1.7345-0.98542 3.1446-5.1141 5.9676-8.3261 6.6097 3.2432 1.7656 9.2583 3.0798 12.421-0.7187 2.2214 4.2954-0.87247 6.0869-3.9053 8.3364 11.551 5.2657 9.8478 11.174 17.423 15.823-0.97893 0.45924-5.3711-0.46443-5.7619-0.52152 1.6528 2.1302 2.4227 3.0305 2.9017 4.0696 0.4583 0.97297 0.66084 2.0653 1.114 4.4329 0.36224 1.8694 1.0166 3.731 3.2874 4.9661-0.88935 1.6151-2.8719 0.35675-3.6898 0.1414m-0.45052-11.744c2.1305 0.33081 3.8067 0.33081 4.6025-1.8006-7.8302-3.7258-7.7652-11.547-16.768-15.643 4.9479-3.6701 3.6145-7.1079 1.3178-10.582-2.4356 4.2992-6.6266 4.8882-9.1973 3.4871 3.6249-1.3194 4.9907-5.786 7.1849-7.091-1.3723-1.4698-3.129-1.5204-5.1673-0.12713-1.1088-2.9695-4.7441-1.9926-5.2907-1.9926 0.95167 0.95092 1.854 2.2015 1.6839 3.5364-0.37651 2.9747-5.2141 2.4947-5.2141 2.4947 0.97374-2.0095 0.5414-3.2082-1.6294-4.2409-0.66604 1.5996-5.8632 3.7544-6.1969 6.9068-0.52063 4.9362 5.327 7.933 10.464 10.709 5.6542 3.0577 3.5782 6.3827 1.5307 6.4917-1.136 3.5092 3.2185 4.1397 5.6905 2.7152-0.01168 0.46703-0.32328 3.2835-4.1183 3.5131 0.31939 1.1118 0.94388 1.4724 1.941 1.8422-0.74394 0.55265-2.9056 0.63568-4.0547 0.63568 0.13892 1.5256 1.7943 2.7477 3.8703 2.9539-0.16618 0.46054-1.0867 1.2078-1.9189 1.4361 2.2422 2.2326 8.2664 0.76281 9.4933-0.52281 0.56087-0.58768 1.2503 0.24908 0.58295 1.139-0.6946 0.9107-3.7236 1.933-6.1774 1.1792-0.28174 1.3738 0.19345 1.894 0.57645 2.2625 0 0-2.4006 0.24-3.0212 0.576 0.2324 1.0326 1.3996 1.6294 1.806 2.0342-0.40637 0.35157-0.89194 1.174-1.0659 1.802 1.0997 0.53059 4.1001 1.3609 5.7061-0.47222 0.65565-0.72778 1.3671-0.26335 0.70239 0.66162-2.3707 3.2549-8.0301 3.3068-10.03 2.291-0.05583 2.5466 1.0451 3.0733 2.3759 4.1306-4.0884 4.7079-1.3892 8.8891-4.2832 13.005 5.449 0 8.861-2.9695 9.8179-5.7444 0.10516 0.98075 0.62839 1.8448 2.0825 2.1392-0.11166-1.0365 0.21163-2.0886 0.73874-3.1511 1.1062 0.89125 3.1173 1.0949 5.7438 1.2052-2.9822-5.062 5.4633-10.251 2.1163-17.152-0.49726-1.0378 0.95686-1.6943 1.0971-0.63957 0.78289 5.9118 4.2611 7.248 7.1927 5.4045-0.88415-0.96389-1.2464-0.94443-1.8086-1.8214 1.9722 0.52281 2.9784-0.90551 3.486-2.6971-5.3595-1.8811-2.4759-6.48-5.8632-10.875m-54.514 21.529 1.6099-1.2208c0.28563-0.21795 0.46869-0.35546 0.79847-0.31265l2.2682 0.29708c0.12334 0.54487 0.48557 1.0768 0.48557 1.0768l-2.4123-0.50854c-0.34146-0.0402-0.44143-0.0234-0.76341 0.20627l-1.1412 0.8627c-0.22591 0.17903-0.2324 0.45665-0.10516 0.73297l0.18566 0.39828-0.79976 0.60324-0.30381-0.5747c-0.3103-0.61363-0.33107-1.1715 0.17787-1.5606m3.6859-4.2603-0.42066 0.22184c-0.28823 0.16735-0.43624 0.2426-0.68681-0.0727l-0.18306-0.22832c-0.08829-0.10768-0.11944-0.37881 0.06751-0.58119l1.7956-2.0951-1.6567-1.357 2.1098 0.77708 0.7712-0.9613c0.22591 0.1946 0.14671 0.74984 0.14671 0.74984 0.8543 0 3.3354 1.2311 3.4302 4.3174 0 0 0.55958 0.82897 1.275 0.87308l3.6548 0.21924c0.60372 0 2.1189-1.152 4.0663-0.061 0.49206-0.29838 1.0192-0.53449 1.5606-0.59416 1.7138-0.12714 2.977 1.0677 3.9183 2.269 0.68681 0.87049 1.6281 2.2041 1.6281 2.2041-0.40378 0.48-0.80496 0.64216-1.1386 0.52021-0.50894-0.25686-0.67123-0.66681-0.83092-1.2311-0.25577-0.89643-1.2438-1.6631-1.2438-1.6631 0.33367 0.60325 0.40508 1.2856 0.56477 1.9109-1.4269-1.4102-1.6982-3.1382-2.6953-3.373-0.44402-0.11027-0.95426 0.0765-1.4346 0.63178 0.50505 1.165 0.48038 2.5206 0.99451 3.4236 0.39209 0.67849 0.47259 0.73816 0.65046 0.88735 0.42195 0.30227 0.18047 0.84325 0.11685 1.2402l-0.5414 3.3911h-0.91012l0.59982-3.3198c0.18306-1.0093-2.6577-1.0093-4.1118-2.9371-1.2399 1.4452-4.7155 1.0832-6.2177 0.85751-0.60632-0.0882-1.1971-0.0519-1.532 0.54616-0.19345 0.3373-0.52322 0.23611-0.72187 0.18682l-2.7408-0.59157c-0.48168-0.11157-0.68941-0.0156-0.90363 0.42551l-0.55049 1.1351c-0.12074 0.26594-0.11555 0.45794 0.10257 0.6707l0.26226 0.27892c-0.1558 0.54746-0.65176 0.96-0.65176 0.96l-0.59982-0.672c-0.28953-0.33989-0.30381-0.83546-0.07271-1.3168l0.88675-1.8474c0.10386-0.20238 0.29082-0.42681 0.66734-0.42681l3.3925-0.0558-1.04-1.6891c-0.7751-1.27 0.50894-3.5286 0.31809-4.5963-0.09608 1.4322-1.8267 0.77708-2.0955 0.97297m14.115 7.8136-1.4632 3.6052h-0.91012l1.4619-3.491c0.1519-0.44887-0.13502-0.66163-0.49985-1.1559 0.5414 0.30746 0.9309 0.50465 1.5904 0.76022-0.05972 0.0986-0.12724 0.15697-0.17917 0.28151m-17.849-0.40864 1.6463-1.3946-0.25058-0.50335c-0.17917-0.35416-0.08309-0.38141 0.10906-0.52022l0.86468-0.64735c0.20254-0.16605 0.41286-0.14659 0.66344-0.0869l2.6083 0.61362h-2.7524c-0.64007 0.0415-0.82573 0.28671-1.0516 0.75503l-0.19085 0.38919-0.70888 1.453c-0.24149 0.50076-0.36483 1.1663 0.26616 1.9226l0.50115 0.59157-1.014 2.0549h0.85559l0.69979-1.4283c0.05583-0.0506 1.0945-0.99243 1.3113-1.9745-0.29602-0.24-0.51024-0.41124-0.34535-0.75373l0.31939-0.67848c0.10127-0.22703 0.13892-0.32043 0.44143-0.25816l2.742 0.59286c0.34146 0.0908 0.84261 0.2413 1.2074-0.30746 0.37781-0.5747 0.42715-0.51113 1.297-0.42292l1.3983 0.1466c1.9111 0.18162 3.8184-0.29838 4.5623-0.88606 0.25966 0.59417 0.7764 1.0482 1.0192 1.5088 0.08829 0.16995-0.05842 0.41254-0.17787 0.71351l-1.5697 3.7479h2.4201l1.371-3.4249c0.12724-0.32303 0.3103-0.58508 0.45571-0.71222l-0.78678 4.1371h2.3461l0.62579-4.0995c0.13632-0.90552 0.05583-1.2026-0.38041-1.5736-0.98153-0.82508-0.95816-2.5609-1.275-3.6156 0.16748-0.0947 0.35834-0.144 0.59074-0.11676 0.51284 0.0519 0.89584 1.3557 1.4996 2.1937 1.1996 1.6891 2.8472 3.5533 4.7272 0.92757-0.18306-0.29838-0.3843-0.57471-0.60891-0.83287l-0.52452-0.61232c-0.3051-0.34119-1.7631-2.0043-2.3668-2.605-1.3801-1.3842-3.4964-1.1754-4.339-0.50335-1.9111-0.99762-3.9261 0.0519-4.4026 0.013l-3.2899-0.19849c-0.14801-9e-3 -0.37781-0.061-0.53621-0.31524l0.60891-0.20108c-0.57256-2.3792-2.0111-4.3732-4.5233-4.7131 0 0-0.14671-0.75243-0.52842-0.89773l-0.75043 0.88476c-0.21163 0.0285-0.44403 0.0921-0.63228 0.17514l-3.2068-1.1909 2.4084 2.4298s-1.2503 1.7669-1.6047 2.1276c-0.235 0.32952-0.21163 0.58898 0.05063 0.90681l0.46869 0.61363c0.24278 0.31394 0.50505 0.30486 0.89065 0.10508l0.52842-0.27244c0.22591-0.19329 1.0023 0.18682 1.3308-0.11546-0.21292 0.69146-0.31419 1.3557-0.36613 1.8863l-2.1604-0.26076c-0.47389-0.061-0.68681 0-0.97764 0.22573l-1.8423 1.4179c-0.60242 0.46314-0.79068 1.261-0.41546 2.0355l0.74394 1.5542m7.0343-46.64c0.88026 0.60714 2.4356 1.2558 2.4356 1.2558v-1.0352l-3.425-1.3103s0 0.41903 0.98932 1.0897m2.4356-1.2493v-1.0249l-3.8872-1.3894s0.4622 0.49297 1.4515 1.1702c0.88026 0.60454 2.4356 1.2441 2.4356 1.2441m0-2.3377v-1.0378l-4.2559-1.5645s0.83092 0.67459 1.8202 1.3466c0.88026 0.60714 2.4356 1.2558 2.4356 1.2558" fill="#d0d5d6" fill-rule="evenodd"/>
<path d="m63.801 36.877h4.3546c-0.18306-0.62919-0.86078-1.2662-2.1292-1.2662-1.2035 0-1.9228 0.69276-2.2253 1.2662m-4.5532-16.692-4.2481 1.5645v1.0378s1.558-0.64736 2.4318-1.2558c0.99062-0.672 1.8163-1.3466 1.8163-1.3466m-0.82573 5.0997-3.4224 1.3103v1.0352s1.5541-0.64865 2.433-1.2558c0.98932-0.6707 0.98932-1.0897 0.98932-1.0897m0.4609-2.5738-3.8833 1.3894v1.0249s1.558-0.63957 2.433-1.2441c0.98932-0.67719 1.4502-1.1702 1.4502-1.1702m-18.076 12.9c-1.2672 0-1.9462 0.63697-2.1228 1.2662h4.3533c-0.3077-0.5734-1.0218-1.2662-2.2305-1.2662" fill="#d0d5d6" fill-rule="evenodd"/>
<path d="m53.422 19.672-6.9902-2.7594c0.59203-1.405 3.3341-2.6024 6.9902-2.6024 3.6561 0 6.3942 1.1974 6.9863 2.6024zm5.205 8.6231-4.7155 2.4752v-10.002l6.4033-2.1743zm5.5088 4.1708c-1.7683 0.30746-3.2834 2.4688-4.5298 4.4108l-0.14022 0.22573h-1.3269l-0.0013 0.22962c-0.14152 1.501-1.5658 3.5416-4.7181 3.5416-1.4554 0-2.5512-0.44498-3.3042-1.0521-0.65565-0.5306-1.0633-1.187-1.2633-1.811-0.0753-0.23222-0.12204-0.45665-0.14282-0.67849l-0.01039-0.22962h-1.3191l-0.14282-0.22573c-1.2516-1.942-2.768-4.1034-4.5272-4.4108l4.8077-2.7866 5.9048 3.2069 5.8996-3.2069zm6.4838 7.3557c-0.50375 1.3142-0.91142 2.7347-0.91142 4.1565v15.282h-1.7787c-0.80626-0.78097-1.4892-3.3898-1.4892-3.3898-0.44143 0.94314 0.06362 2.8385 0.5388 3.3898h-2.2915c-0.56607-0.76541-1.0581-3.4806-1.0581-3.4806-0.68421 0.78097-0.25058 2.8943 0.17398 3.4806h-1.5203c-0.09867-1.0845 0.21163-2.2677 0.21163-2.2677-0.79198-0.14659-1.6411-0.56691-1.6372-1.453 0.40118 0.37881 0.56347 0.37362 1.123 0.36324l0.64786-0.50983c-2.1487 0.0675-2.2448-2.2832-0.54789-3.386-1.6969 0.0545-2.9693-0.95351-2.3474-2.7606-1.2126-0.6253-1.6385-2.6698-0.74394-3.5676-0.64786-0.70313-0.75562-2.077-0.34146-3.0188-0.85559 0-1.8202-0.34378-2.3577-0.92756-0.04155 0.0195-0.08958 0.0337-0.13502 0.048 1.0711-0.43719 1.976-1.1144 2.5914-1.9589zm-0.90753 30.357c0 3.1888-1.4736 5.6069-3.9235 6.9522l0.88026-1.7864h-0.8504l-1.1269 2.2858c-1.1659 0.44238-2.4928 0.68368-3.9586 0.68368-4.474 0-5.6568 0.18291-7.3069 1.8305-1.6618-1.6476-2.842-1.8305-7.3069-1.8305-1.458 0-2.7771-0.23871-3.9443-0.672h0.03376l1.1256-2.2975h-0.8504l-0.98932 2.0082c-0.235-0.11157-0.4622-0.23092-0.68681-0.36195l0.81664-1.6463h-0.84261l-0.60632 1.2272c-1.9163-1.4115-3.0433-3.6104-3.0433-6.3931v-10.02h32.58zm-22.178-18.3 1.3749 0.16865c0.10257 0.75373-0.09478 2.029-0.58554 2.7386l-1.3295-0.3853c0.35314-0.84454 0.44402-1.6242 0.5401-2.5219zm-1.976-1.0067s1.2594-0.061 1.6151 0.0739c0.26486 0.10897 0.08569 0.54876-0.25187 0.50206-0.35834-0.0441-1.3632-0.576-1.3632-0.576zm-0.08569-5.0024-1.1295 4.1293 0.3856-6.6564 1.7553-1.4997 0.89195 1.9576-2.2552 6.4631 0.59333-4.3511c0.05842-0.30487-0.19085-0.3373-0.24149-0.0428zm-0.86858 6.8796c-0.59463 0.2413-1.1996-0.083-1.0127-0.46832 0.27394 0.25297 1.0426 0.12973 1.0426 0.12973zm-1.114 0.55136c0.27265 0.26594 1.1023 0.16605 1.1023 0.16605l0.03246 0.16346c-0.36223 0.4813-1.3658 0.26595-1.1347-0.32951zm-1.3009-2.6556c-0.31679-0.21146-0.17398-0.672 0.17787-0.672 0.383 9e-3 0.89584 0.44497 1.4048 0.66292 0 0-1.3282 0.17643-1.5827 9e-3zm1.2594 3.6558s0.38171 0.16346 0.86208 0.19979c-0.05583 0.26205-0.25707 0.51891-0.58424 0.44497-0.27005-0.0597-0.39209-0.39697-0.27784-0.64476zm0.89324-2.4921c-0.63877 0.20627-0.92051-0.25167-0.88935-0.64346 1.2477-0.45924 1.8034-0.16345 2.1708 0.0714 0.33756 0.21146 0.6141 0.81081 1.0685 1.1896-0.0766 0.50984-0.235 1.2519-0.41806 1.7488-1.2775-0.32951-1.3438-1.453-0.86468-2.1405-0.27005-0.31264-0.55308-0.39178-1.0672-0.22573zm5.5399 0.36584 1.3684 0.16216c0.13373 0.75503-0.12074 2.3468-0.63748 3.1096l-1.3944-0.40217c0.55698-0.73167 0.76211-2.0316 0.66344-2.8696zm2.3526 0.288 1.1295 0.1427c0.17787 0.93406 0.06232 2.5544-0.5362 3.4794l-1.3152-0.384c0.57775-0.77968 0.84521-2.3883 0.72187-3.2381zm2.0228 0.25038h0.02467c0.29342 0.0441 0.60242-4e-3 0.88416-0.12195 0.60891 0.87568 1.0854 2.8554 0.35444 4.0956-0.41416 3e-3 -0.82184-0.0675-1.2009-0.17384l-0.30381-0.0908c0.618-0.96129 0.52452-2.6491 0.24149-3.709zm1.7242-0.66551 0.79847-0.78227c0.81924 0.70962 1.8878 2.3014 1.5528 3.8102l-0.87247 0.79524c-0.17657 0.17514-0.36613 0.30616-0.55308 0.42162 0.5414-1.3505-0.1519-3.421-0.9257-4.2448zm4.6973 0.44886c-0.17527 0.23222-0.31939 0.50724-0.41027 0.80173l-0.97244 0.89514c0.19475-1.4231-0.75952-3.1044-1.6333-3.7894l1.0374-1.0132 0.20254 0.20627c-0.34535 0.90811 0.32977 2.6841 1.7761 2.8995zm-2.5837-6.877c-0.51154 0.97557-0.4596 2.1003 0.14022 3.12l-0.39858 0.39178c-1.7436-0.21405-2.4318-2.8138-2.4318-2.8138-0.03246 0.22703-0.05583 0.46444-0.05193 0.69146-1.0166-0.37621-1.6631-1.2778-1.6099-2.5168 0.3856 0.21665 0.81924 0.36713 1.2801 0.44886l0.11685-0.76281c-1.2178-0.21146-1.9293-0.97297-2.2032-1.8707-0.05453-8e-3 -0.10906-0.0169-0.16229-0.0272 0.21422 0.0195 0.42974 0.0363 0.65176 0.0363 0.72057 0 1.4074-0.11157 2.0513-0.29968 0.50505 0.72 1.4048 1.235 2.3071 1.3362-0.14282 0.59287-0.074 1.3414 0.3103 2.2664zm-9.9997-5.7976c0.84131 1.1507 2.2071 2.0017 3.8223 2.3377 0.13892 0.60713 0.4648 1.2688 1.1088 1.8071-0.26616 1.7864 0.50245 3.4547 2.4266 3.8997 0.19994 0.90811 0.76731 1.597 1.7138 1.9252l-1.3373 1.5438c-0.50894 0.59287-1.1763 0.78357-1.7307 0.71222l-5.9762-0.67849c0.25707-0.66422-0.42974-1.4335-2.3201-1.104l2.3487-6.5591-1.4346-3.0474-2.7148 2.3157-0.19994 6.8848-1.1516-0.56822c-1.5216-0.65124-1.9631 2.086-0.52063 2.0977l0.57126 6e-3c-0.03505 0.2854 0.04934 0.59156 0.27135 0.68756-0.27135 0.11546-0.35055 0.6266-0.01039 0.80563-0.34795 0.16345-0.3895 0.68237-0.11295 0.9094-0.30251 0.50335-0.34795 1.6035 0.69979 1.8785 0.853 0.22702 1.3918-0.69795 1.5723-1.2324l9.2947 2.8761c1.3191 0.37752 2.2539 0.16865 3.3471-0.79135l2.4266-2.1198c-0.30251 1.3855 0.19475 2.6361 1.2503 3.0486 0 0-0.1532 1.2402-0.10257 1.8032h-24.205v-15.282c0-1.4218-0.41027-2.8424-0.90233-4.1565zm-1.5697-21.228 6.3968 2.1743v10.002l-4.7103-2.4752zm15.542-1.1896c0-2.448-4.1131-4.6391-8.6481-4.6391-4.5389 0-8.652 2.1911-8.652 4.6391l0.09608 0.59416 1.8047 10.39-8.5741 4.9946c-0.91402 0.53578-2.0565 2.0121-2.202 3.4936h1.5645c0.25837-1.4802 1.432-3.1252 3.6236-3.0266 1.9799 0.10767 3.1484 1.3116 4.3143 3.0266l0.29991 0.45535 0.43234 0.67849h-12.612c0.9231 1.8564 1.8086 3.8283 1.8086 5.9676v26.2c0 6.7408 5.1842 9.949 10.796 9.949 4.3312 0 4.9154-0.1946 7.3069 2.1924 2.3837-2.387 2.9641-2.1924 7.3069-2.1924 5.61 0 10.793-3.2082 10.793-9.949v-26.2c0-2.1392 0.87637-4.1111 1.8021-5.9676h-12.618l0.43753-0.67849 0.30121-0.45535c1.1568-1.715 2.3318-2.9189 4.3117-3.0266 2.1812-0.0986 3.3613 1.5464 3.6184 3.0266h1.5632c-0.14022-1.4815-1.2892-2.9578-2.1981-3.4936l-8.5741-4.9946 1.8086-10.39 0.08958-0.59416z" fill="#d0d5d6" fill-rule="evenodd"/>
<path d="m68.971 49.699 0.01039-0.7667c-2.35-0.0545-2.8927-2.8307-2.8927-2.8307-0.68551 2.042 1.1101 3.5624 2.8823 3.5974m-2.9719 4.6936-0.23889-0.72649c-2.0033 0.51244-3.0368-2.6634-3.0368-2.6634-0.64656 2.3092 1.5943 3.9425 3.2757 3.3898m1.3931-2.9449c-2.3954 0.3801-3.3808-2.4065-3.3808-2.4065-0.26486 1.5165 0.71927 3.0538 2.3019 3.2186-0.35574 1.9784 1.4853 2.9942 3.0783 2.2884l-0.2298-0.68757c-1.384 0.45794-2.6823-0.90811-1.7696-2.413m-1.4346-7.9524 0.01947-0.76411c-3.1627-0.65513-2.8953-2.8294-2.8953-2.8294-0.68422 2.0484 1.1088 3.5611 2.8758 3.5935" fill="#d0d5d6" fill-rule="evenodd"/>
<polyline transform="translate(-6.0465 -112.66)" points="51.959 188 50.823 190.3 51.677 190.3 52.809 188 51.959 188" fill="#d0d5d6" fill-rule="evenodd"/>
<polyline transform="translate(-6.0465 -112.66)" points="53.666 188 52.535 190.3 53.394 190.3 54.517 188 53.666 188" fill="#d0d5d6" fill-rule="evenodd"/>
<polyline transform="translate(-6.0465 -112.66)" points="60.516 188 59.389 190.3 60.236 190.3 61.368 188 60.516 188" fill="#d0d5d6" fill-rule="evenodd"/>
<polyline transform="translate(-6.0465 -112.66)" points="62.235 188 61.096 190.3 61.952 190.3 63.079 188 62.235 188" fill="#d0d5d6" fill-rule="evenodd"/>
<polyline transform="translate(-6.0465 -112.66)" points="58.806 188 57.672 190.3 58.526 190.3 59.657 188 58.806 188" fill="#d0d5d6" fill-rule="evenodd"/>
<polyline transform="translate(-6.0465 -112.66)" points="68.81 190.3 69.66 190.3 70.792 188 69.939 188 68.81 190.3" fill="#d0d5d6" fill-rule="evenodd"/>
<polyline transform="translate(-6.0465 -112.66)" points="55.38 188 54.252 190.3 55.105 190.3 56.234 188 55.38 188" fill="#d0d5d6" fill-rule="evenodd"/>
<polyline transform="translate(-6.0465 -112.66)" points="57.089 188 55.959 190.3 56.817 190.3 57.945 188 57.089 188" fill="#d0d5d6" fill-rule="evenodd"/>
<path d="m47.168 63.006c-0.1558 0-0.29082 0.15438-0.29082 0.35156 0 0.18811 0.13502 0.34249 0.29082 0.34249 0.16359 0 0.29861-0.15438 0.29861-0.34249 0-0.19718-0.13502-0.35156-0.29861-0.35156m-0.34535-53.04 1.3438-2.8554 2.5019 1.3258 2.755-2.7191 2.7602 2.7191 2.4954-1.3258 1.336 2.8554 1.6567-0.25687c-0.42195 0.79784-0.74394 1.4945-1.0413 2.4714-1.8125-1.0586-4.5091-1.8733-7.207-1.8733-2.7031 0-5.3919 0.8147-7.2083 1.8733-0.30251-0.97686-0.6167-1.6735-1.0464-2.4714zm6.6033 1.2506c3.5094 0 6.3215 1.1624 7.8743 2.413 0 0 0.4648-2.7866 2.0358-5.232l-2.8264 0.31783-1.4801-3.1446-2.8459 1.4776-2.7576-2.736-2.7576 2.736-2.8524-1.4776-1.4814 3.1446-2.8251-0.31783c1.5762 2.4454 2.0345 5.232 2.0345 5.232 1.5515-1.2506 4.3662-2.413 7.8821-2.413z" fill="#d0d5d6" fill-rule="evenodd"/>
<path d="m56.311 5.5874c0.41287 0.035 0.7751-0.27373 0.81015-0.68368 0.04025-0.40605-0.55958-1.5036-0.55958-1.5036s-0.89844 0.96648-0.927 1.3803c-0.03765 0.40605 0.27005 0.7667 0.67642 0.80692m4.6337 1.6813c0.36872 0.19589 0.81405 0.048 1.0114-0.31654 0.19605-0.35676 0.06881-1.597 0.06881-1.597s-1.1971 0.53579-1.3918 0.90163c-0.18696 0.36194-0.05063 0.8134 0.3116 1.0119m-10.415-1.6813c0.41676-0.0402 0.72057-0.40087 0.68292-0.80692-0.03635-0.41384-0.9257-1.3803-0.9257-1.3803s-0.59853 1.0975-0.55958 1.5036c0.03116 0.40995 0.39858 0.71871 0.80236 0.68368m-4.6298 1.6813c0.36613-0.19849 0.50505-0.64995 0.3077-1.0119-0.19215-0.36584-1.3879-0.90163-1.3879-0.90163s-0.12334 1.2402 0.0753 1.597c0.19085 0.36454 0.64007 0.51243 1.0049 0.31654m51.275 26.011c0.30511 0.67848 0.91013 3.037-0.5388 4.835-1.6463-3.2938-3.9157-6.1129-5.7477-7.3297-0.40248-0.25816 0.21942-0.72129 1.3477-0.86919 3.4211-0.64605 7.4264 0.80173 9.331 1.3064-0.88675 0.66681-1.6112 0.9613-2.5136 1.0755 1.3853 1.1598 2.3915 2.1418 3.1095 3.2355-1.3464 0.3347-2.0981-0.51502-4.9882-2.2534m4.3091-0.55914c0.98802-0.35027 1.7514-1.2947 2.1305-2.1613-2.511-0.36455-9.1856-3.1628-14.67-0.88217 2.0539-1.9511 3.8976-2.2015 4.0702-5.005 0.85559 0.61232 2.2954 0.9574 3.1043-0.50335-0.56347-1.6722-1.9955-0.31784-2.1929-0.77838-0.28174-0.63568 1.8021 0.20108 2.2487-1.9693-1.6203-0.55654-2.1046 0.76541-2.3928 0.45925-0.26745-0.29319 1.0296-0.84844 0.074-2.5972-1.6878 0.98464-0.80756 2.0964-1.1633 2.2171-0.43364 0.17384-0.09348-1.1844-1.9553-1.1209-0.18306 1.9978 1.7527 2.064 1.4307 2.3818-0.37911 0.38919-0.88416-1.1507-2.2928-0.37103 0.02597 1.6151 1.3308 2.4999 2.6849 2.1198-0.21812 3.0694-3.0342 2.4973-5.1336 5.9533 4.4416 2.2755 6.4501 6.2465 9.1843 8.9864 0.90363-0.63567 2.4486-3.4858 2.4486-3.4858 2.9576 2.291 5.0401 0.0104 5.0401 0.0104-1.0192-1.0417-1.0568-1.8331-2.6161-3.2536m-48.884 54.44-1.9228-0.0727-0.22201 0.77189 0.24149 0.0104c0.0792 0 0.0792-0.14919 0.14801-0.23092 0.04025-0.0298 0.3882-0.0869 0.66474-0.0584l0.80626 0.061c-0.47648 0.98725-1.7177 1.9174-1.7021 2.5712 0.01947 0.34897 0.37262 0.42162 0.58165 0.40864 0.3882-0.0117 0.51284-0.2867 0.6141-0.70573 0.2324-0.97297 0.70499-1.7163 1.0451-2.8281l-0.23889 9e-3 -0.01558 0.0636m1.3126 1.1468 0.03246-0.59157h1.6722l-0.08699-0.66162c-0.45831 0.0143-1.1295 0.16475-1.7488 0.16865l-0.11295 1.2921c0.7751-0.0337 1.2801 0.30357 1.2801 1.1157 0 0.30097-0.19864 0.86789-0.54789 0.9094-0.0805 0.0117-0.18696-0.0169-0.23759-0.0571-0.16878-0.12583 0.05193-0.26205 0.05193-0.47221 0-0.26595-0.27524-0.36195-0.45701-0.32952-0.28823 0.0169-0.39339 0.20238-0.39339 0.432 0 0.47741 0.70629 0.60844 1.0127 0.60844 0.68422 0 1.4788-0.38141 1.4788-1.1585 0-1.021-1.1425-1.235-1.9436-1.2558m4.0092 0.528c-0.59333 0-0.67902-0.92757-0.67902-1.3764 0-0.12843 0.11815-0.30616 0.24798-0.30616 0.5427 0 0.6933 1.261 0.73615 1.6164-0.08828 0.0337-0.19345 0.0662-0.3051 0.0662m-0.37781-1.859c-0.59593 0-1.0893 0.44627-1.0893 1.056 0 0.96259 1.0335 1.2791 1.8008 0.9133 0.09478 0.74724-0.05713 1.2843-0.34146 1.3025-0.24278 0-0.20773-0.18162-0.24278-0.3334-0.06362-0.29319-0.29082-0.37103-0.52972-0.29319-0.24928 0.0713-0.28823 0.29448-0.24538 0.45794 0.11166 0.38011 0.58035 0.38919 0.80366 0.36065 0.98802-0.11286 1.3983-0.84194 1.3983-1.6528 0-0.94054-0.5375-1.811-1.5541-1.811m-8.221-0.19719c-0.08829 0.10768-0.49985 0.624-1.3879 1.283l0.07271 0.13362c0.09867-0.0545 0.25447-0.12714 0.52322-0.288l-0.52322 1.824c-0.02726 0.0999-0.14801 0.11157-0.20773 0.0999l-0.3129-0.0467-0.05713 0.21665 1.6982 0.30356 0.05063-0.21146-0.29212-0.0674c-0.08569-0.0247-0.14152-0.0843-0.12464-0.18292l0.7725-3.0318-0.21163-0.0324" fill="#d0d5d6" fill-rule="evenodd"/>
<path d="m62.184 88.935-1.506-4.8986c3.2068-0.66032 5.4426-1.3427 7.1472-2.0017v3.0564l2.646 1.0651c-2.2357 1.0184-5.0089 2.029-8.2872 2.7788m-8.7585 2.8618c-2.9965 0-5.9151-0.44757-8.4157-1.0599l1.5904-5.1308c1.0555 0.2426 3.6898 0.56562 6.8253 0.56562 3.1354 0 5.7606-0.32302 6.8227-0.56562l1.593 5.1308c-2.5084 0.61233-5.4322 1.0599-8.4157 1.0599m-17.059-5.6406 2.6525-1.0651v-3.0564c1.7034 0.65903 3.9404 1.3414 7.1472 2.0017l-1.5022 4.8986c-3.2731-0.74984-6.0515-1.7604-8.2976-2.7788m32.278-1.7034v-3.744c-2.8978 1.3258-6.5838 2.4026-11.325 2.8307l-0.21682 1.3375c0.40508 0.0558 0.91272 0.10638 1.5969 0.14789-1.7618 0.2439-4.0287 0.36065-5.2738 0.36065-1.2477 0-3.5133-0.11675-5.2751-0.36065 0.67902-0.0415 1.1867-0.0921 1.5917-0.14789l-0.21422-1.3375c-4.7441-0.42811-8.4365-1.5049-11.328-2.8307v3.744l-3.93 1.6138c2.9095 1.514 6.2618 2.7477 10.131 3.7453l-0.45571 1.5684c2.2201 0.64735 5.7619 1.309 9.4803 1.309 3.7145 0 7.2589-0.66163 9.4738-1.309l-0.45831-1.5684c3.8703-0.99762 7.2251-2.2314 10.136-3.7453l-3.9326-1.6138m-63.964-48.92c0.71797-1.0936 1.7177-2.0757 3.1147-3.2316-0.91272-0.11805-1.6281-0.41254-2.52-1.0794 1.9072-0.50465 5.9216-1.9524 9.3375-1.3064 1.1217 0.1479 1.7566 0.61103 1.3451 0.86919-1.8371 1.2169-4.1053 4.0359-5.7554 7.3271-1.4411-1.7955-0.83612-4.154-0.53101-4.8324-2.8862 1.7384-3.6405 2.5881-4.9907 2.2534m3.1043 0.4307s1.545 2.8502 2.446 3.4858c2.7369-2.7399 4.748-6.7109 9.1869-8.9864-2.1007-3.456-4.9219-2.8774-5.1258-5.9507 1.3438 0.37752 2.6538-0.51113 2.681-2.1224-1.4139-0.77189-1.915 0.76411-2.2967 0.37103-0.31679-0.32432 1.6177-0.384 1.432-2.3805-1.8644-0.0571-1.519 1.2934-1.9592 1.1196-0.34925-0.12454 0.52712-1.235-1.1646-2.2171-0.95037 1.7565 0.34925 2.3027 0.0792 2.5972-0.28563 0.30616-0.7751-1.0158-2.3902-0.45925 0.43624 2.1704 2.5265 1.3336 2.2435 1.9693-0.19734 0.46054-1.6255-0.89124-2.1864 0.78097 0.80106 1.4582 2.2461 1.1131 3.0939 0.50335 0.17787 2.8125 2.0202 3.0448 4.0793 5.0024-5.4841-2.2806-12.161 0.51633-14.679 0.88346 0.383 0.8653 1.1464 1.8097 2.1318 2.1522-1.5515 1.4348-1.5891 2.2223-2.6109 3.2588 0 0 2.0786 2.2832 5.0388-8e-3m43.233-2.086v1.6489c0.57256-0.68368 1.6696-0.55136 1.6696-0.55136v2.3741s-0.03635 1.1715-0.45182 1.6787h2.3798c-0.41416-0.50724-0.45311-1.6787-0.45311-1.6787v-2.3741s1.0971-0.13232 1.667 0.55136v-1.6489h-4.8116" fill="#d0d5d6" fill-rule="evenodd"/>
<path d="m105.52 34.586c-0.28823-0.29709-0.46221-0.56563-0.7011-0.94055-0.12334-0.192-0.25836-0.39437-0.41156-0.61621 0.41416-0.4813 0.7686-1.0365 1.0335-1.645l1.0633-2.4208-2.6161-0.37622c-0.44273-0.0649-1.1542-0.25167-1.9838-0.46962-1.606-0.42032-3.6626-0.96-5.9113-1.1948 0.76861-0.3373 1.4178-0.94184 1.8735-1.7617l0.42975-0.77449s-0.11425-1.0858-0.53751-1.427c0.16359-0.336 0.28434-0.70703 0.37002-1.1118l0.35445-1.7332-1.6722-0.5721c-0.25836-0.0908-0.52063-0.15438-0.77639-0.1959-0.0948-0.31783-0.235-0.65383-0.42585-1.0067l-0.99322-1.8188-1.7917 1.0482c-0.44532 0.26205-0.82184 0.55913-1.1269 0.89383-0.26745-0.0493-0.55308-0.0739-0.85429-0.0739 0 0-1.0192-0.11416-2.1513 0.29448l-1.445-1.4958-1.7086-1.824c-1.5969-1.7098-3.7625-2.2145-5.9723-1.3751-0.84261-0.83935-2.1578-1.5373-4.1975-1.5373-0.69071 0-1.297 0.083-1.6567 0.13103 0 0-2.8096 0.51113-4.387 2.0095l-1.9176-0.9107c-1.284 2.0186-3.4808 2.6608-3.4808 2.6608-0.14801-0.59027-0.40637-1.1429-0.7712-1.645l0.12594-0.71351c0-0.0208 0.42974-2.4324 1.7449-4.4744l2.285-3.5546-3.238 0.36325c0.0078-0.32173-0.0065-0.69925-0.05193-1.1494l-0.28952-2.7671-2.5382 1.1442c-0.28174 0.12714-0.51673 0.25038-0.73485 0.36844l-0.50115-1.0677-1.162 0.60324c-0.11685-0.288-0.26616-0.61102-0.47129-0.98464l-1.3399-2.4532-1.902 2.0484c-0.19475 0.21146-0.35834 0.40476-0.50245 0.59156l-1.1542-1.1468-1.1607 1.152c-0.14411-0.18681-0.30381-0.3801-0.49856-0.58897l-1.9059-2.0679-1.3438 2.4662c-0.20514 0.37622-0.35184 0.69535-0.46869 0.98335l-1.1594-0.60194-0.50375 1.0664c-0.21942-0.11806-0.45701-0.2413-0.73615-0.37103l-2.5473-1.1442-0.28174 2.7762c-0.04674 0.44757-0.05842 0.82378-0.05063 1.1429l-3.2432-0.36325 2.2928 3.5572c1.3191 2.0394 1.7397 4.4471 1.741 4.4653l0.12074 0.71351c-0.36872 0.50855-0.62579 1.0612-0.7738 1.6515 0 0-2.0734-0.88605-3.4613-2.6634l-1.9553 0.93146c-2.2318-1.5049-3.6145-2.0912-6.019-2.1587-2.041-0.0558-3.3562 0.69795-4.1962 1.536-2.2123-0.83676-4.3727-0.32951-5.9645 1.3764 0 0-1.0477 1.1364-1.7112 1.824-0.66344 0.69016-1.6385 1.2597-1.6385 1.2597s-1.3892-0.31135-2.8161 0.0182c-0.3051-0.336-0.68422-0.63438-1.1373-0.90032l-1.7956-1.0443-0.98802 1.8292c-0.18826 0.34897-0.32588 0.67978-0.41806 0.99632-0.25707 0.0415-0.51673 0.10508-0.77769 0.1959l-1.6606 0.5721 0.34795 1.7228c0.08309 0.41514 0.20384 0.78617 0.37002 1.1235-0.09607 0.18292-0.18176 0.38011-0.25317 0.58768l-0.28044 0.83676 0.42715 0.77448c0.45182 0.8186 1.0997 1.4257 1.8696 1.763-2.2487 0.23481-4.3065 0.77449-5.9164 1.1961-0.82573 0.21794-1.5411 0.40475-1.9825 0.47092l-2.6291 0.37881 0.59853 1.3518 0.47778 1.0755c0.27135 0.60195 0.62449 1.1572 1.04 1.6346-0.1545 0.22054-0.82054 1.2571-1.1114 1.5542l-1.3269 1.3518 1.2749 1.405c0.15839 0.17255 1.5865 1.6683 3.8989 1.6709 0.63098 0 1.2594-0.11027 1.8813-0.32951 0.6167 0.96389 1.3451 1.9382 2.0163 2.4182-1.2282 1.4439-2.6278 2.6945-4.6181 3.6415l-1.6644 0.79264 0.71278 1.8992c0.4674 1.1455 1.3723 2.4052 3.1264 2.8865-0.37522 1.1196-0.55698 2.1859-0.71537 3.1304-0.37522 2.2495-0.53361 3.181-2.5161 3.8763l-1.78 0.6227 0.50894 1.8136c0.41287 1.4776 1.0257 2.4558 1.6956 3.098l-1.1828 1.3012s2.8083 2.1016 5.5594 2.3585c0.03895 5e-3 2.3876 0.15438 3.4405-1.187 0.42195 1.5204 1.0893 2.9228 1.693 4.1968 1.2438 2.6128 1.9059 4.1617 1.0724 5.5719l-1.8787 3.1862 3.6976-0.15438c1.6138-0.0675 3.1147-0.16346 4.4104-0.48519 0 0.0713-0.0039 0.13622-0.01168 0.20238l-0.30251 2.736 3.2393-0.68238c0.34276-0.10249 0.65955-0.23481 0.95297-0.39308 2.0072 2.3429 5.4127 4.1734 10.006 4.1734h0.26875l-5.2803 2.1665 3.843 1.9991c2.5317 1.3168 5.3452 2.4208 8.5533 3.3548l-0.44792 1.536 1.9306 0.56432c1.114 0.32822 5.1387 1.3933 10.041 1.3933s8.9233-1.0677 10.04-1.3933l1.9254-0.56432-0.44662-1.5334c3.212-0.93665 6.0268-2.0406 8.5585-3.3574l3.8456-1.9991-5.2842-2.1665h0.26616c4.5896 0 7.9963-1.8305 10.002-4.1734 0.29082 0.15438 0.61151 0.29059 0.95037 0.39308l3.238 0.68238-0.29602-2.7334c-0.0065-0.0649-0.01039-0.13232-0.01039-0.20367 1.2944 0.32043 2.7966 0.41643 4.4091 0.48389l3.6924 0.15438-1.8722-3.1836c-0.83482-1.4128-0.17138-2.9604 1.0698-5.5732 0.60502-1.2714 1.2711-2.6763 1.6943-4.198 0.71278 0.54356 1.4762 0.86659 2.2409 1.0365 0 0 0.59203 0.17773 1.1594 0.192 1.6359 0.0493 2.4486-0.41384 3.573-1.1209l2.0384-1.2817-1.1932-1.3025c0.66863-0.64217 1.2814-1.619 1.6956-3.0889l0.51414-1.8188-1.7852-0.6227c-1.9838-0.69535-2.1396-1.6268-2.5174-3.875-0.16099-0.94573-0.33627-2.0121-0.71538-3.1317 1.7527-0.4826 2.6564-1.7436 3.1238-2.8865l0.71148-1.9018-1.6632-0.79005c-1.9916-0.94703-3.3899-2.1976-4.6194-3.6415 0.67383-0.4813 1.4022-1.4569 2.0228-2.4182 0.618 0.21924 1.2438 0.32692 1.8774 0.32951 2.3123 0 3.7444-1.4971 3.9002-1.6683l1.275-1.4037-1.3243-1.3544" fill="#fffffe" fill-rule="evenodd"/>
<path d="m53.426 80.148c-1.6606-1.6489-2.842-1.8305-7.3147-1.8305-5.3413 0-8.9727-3.1291-8.9727-8.1341v-10.015h32.571v10.015c0 5.005-3.6236 8.1341-8.9766 8.1341-4.474 0-5.6568 0.18162-7.3069 1.8305m-16.287-20.879v-15.278c0-1.4231-0.41157-2.8437-0.90493-4.154h11.864c1.0893 1.4932 3.064 2.4947 5.3283 2.4947 2.2565 0 4.2312-1.0015 5.3218-2.4947h11.867c-0.50375 1.3103-0.90882 2.7308-0.90882 4.154v15.278h-32.567" fill="#ffe52b" fill-rule="evenodd"/>
<path d="m39.024 82.038v3.0525l-2.6486 1.0651c2.2422 1.0184 5.0206 2.029 8.2911 2.7775l1.5048-4.8934c-3.2094-0.66292-5.4439-1.3466-7.1472-2.0017m14.402 4.1332c-3.1341 0-5.7697-0.32302-6.8227-0.56821l-1.5891 5.1334c2.4967 0.61233 5.4192 1.0599 8.4118 1.0599 2.9835 0 5.9048-0.44757 8.4131-1.0599l-1.5943-5.1334c-1.0581 0.24519-3.6833 0.56821-6.8188 0.56821m14.396-4.1332c-1.7034 0.65513-3.9365 1.3388-7.1447 2.0017l1.5073 4.8934c3.2744-0.74854 6.0476-1.7591 8.2846-2.7775l-2.6473-1.0651v-3.0525m-39.309-48.803c-3.6353 3.8828-2.0617 6.205-1.3269 6.9211-1.3541-0.29059-3.373-2.0134-2.9134-3.6817-0.43104 0.51632-0.86987 1.0755-1.3256 1.6528-0.90233 1.2013-1.7099 2.3805-2.4253 3.5222-1.1023 3.2744 0.91921 6.6564 4.3559 8.1548-3.8223-0.56043-5.536-3.958-5.5243-6.1194-1.8267 3.4456-2.6966 6.5903-2.6174 9.2316 0.03505 0.98075 0.11945 1.9005 0.24798 2.7632 0.87766 1.6644 2.2876 2.2755 4.7973 2.579-2.2837 0.144-3.4886 0.0376-4.4844-1.0002 1.5567 6.6746 8.8208 12.455 11.781 17.406-2.9602-3.8478-9.0921-9.5754-11.241-13.72-0.16618 1.4971 0.2337 5.3345 2.1007 7.6943-2.7472-2.6971-2.9602-6.7888-2.7836-9.181-0.6959-1.7228-1.136-3.648-1.1958-5.8378-0.05583-2.0147 0.08699-3.7596 0.39339-5.3319-1.7346 2.4649-4.2403 3.4158-5.475 7.1663 0.24019-4.8402 3.8573-4.9155 6.5617-10.787 1.049-2.5699 2.5694-4.7857 4.2572-7.3038-2.1422 0.70054-3.7444 1.2-6.2215 3.9126 1.7592-4.1578 11.928-8.8307 16.585-13.356-1.3957 0.29579-7.1083 0.43979-9.4777-1.1416 4.2961 1.1637 13.854-0.16605 17.464-2.6322-2.4928 3.5818-7.9159 3.7842-14.519 10.908 0.8504-0.66032 1.9708-1.3388 2.9874-1.8188m4.9622-0.41254c4.152-2.2391 14.297-7.1676 7.4199-12.484-0.93868-0.7213-1.9683-1.37-2.8368-2.1795-1.0737 0.82767 0.40378 2.88 0.7712 3.6324 0 0-2.2889 0.23092-2.8381 0.23092-3.5366-0.0156-7.2472-2.1081-5.3686-6.122-1.4074 0.2906-1.5814 1.6411-2.0111 2.8022-0.90363-0.61102-2.4707-1.9213-3.6794-1.7371 0.98283 3.1408 5.118 5.9702 8.3248 6.6123-3.2458 1.7643-9.257 3.0772-12.421-0.7213-2.2214 4.2915 0.87377 6.0869 3.9027 8.3351-11.543 5.2631-9.8413 11.168-17.414 15.817 0.98413 0.46054 5.3634-0.46443 5.7529-0.52021-1.645 2.1315-2.4123 3.0318-2.8927 4.0657-0.45831 0.97297-0.66734 2.0692-1.1217 4.4342-0.35704 1.8694-1.0088 3.731-3.2822 4.9674 0.89065 1.6112 2.8706 0.35287 3.6989 0.13751-0.11295 0.16865-0.39079 2.1133-1.1347 3.0474 3.8898-0.25038 2.089-8.4454 5.9827-6.4722 1.0971 0.55265 1.4269 1.8422 0.91921 2.8982-2.5551 5.2683 3.2536 9.9126 2.9368 14.53 1.4282-0.0117 2.9069-0.0493 3.8417-1.9771 0.48427 0.9613 1.2399 2.3118 1.6593 3.6169l1.1646-1.9797c0.71537 3.2744 3.7729 6.3036 7.9042 6.5734-1.9708-3.1148 0.3895-7.3712-4.3961-11.894 0.59463-0.48 1.9747-1.4089 2.4681-2.0406-5.8762 0.69017-12.007-3.9542-9.2246-6.1583 1.8215-1.44 2.6161 1.549 5.4257 1.0469l-1.0984-0.94832c0.3869-0.38011 0.82573-0.87827 1.2827-1.2506-1.1919-0.14529-2.4967-0.9081-2.4967-0.9081l0.71148-1.1754c-6.8824-8e-3 -7.059-5.2683-4.2624-5.4785 1.3152-0.096 3.0121 2.3222 7.2498 1.8201-0.5427-0.65384-0.75822-1.6372-1.0153-2.3676 1.0244-0.0934 2.2279-0.0843 3.1939-0.55395-2.0695-0.26854-2.594-0.96-4.3143-2.2651l2.002-0.73167c-2.9017-1.4452-2.7252-3.9671-2.8148-6.5942 1.5164 0.87309 3.3029 2.2262 5.2063 1.5957 0.45311-0.15178 0.74394-0.36065 0.75432-0.83286-2.7213-1.069-4.4623-5.2541 2.05-8.771m57.02 15.465c0.3051 1.5723 0.4596 3.3185 0.39339 5.3319-0.06492 2.1898-0.50115 4.115-1.1958 5.8378 0.17787 2.3922-0.03635 6.4839-2.781 9.181 1.8618-2.3624 2.2643-6.1972 2.1007-7.6943-2.1578 4.1449-8.2833 9.8724-11.247 13.72 2.9641-4.9505 10.231-10.734 11.789-17.406-1.0023 1.0378-2.2007 1.1442-4.4857 1.0015 2.5071-0.30486 3.9131-0.91589 4.7921-2.5803 0.13113-0.8627 0.21682-1.7825 0.25058-2.7645 0.08309-2.64-0.79198-5.7846-2.6187-9.2303 0.01818 2.1613-1.6969 5.5589-5.523 6.1219 3.4315-1.501 5.4555-4.883 4.3546-8.1574-0.71278-1.1416-1.5151-2.3209-2.424-3.5222-0.45052-0.5773-0.89324-1.1351-1.3269-1.6528 0.4596 1.6683-1.5593 3.3911-2.9134 3.6817 0.73615-0.71611 2.3045-3.0383-1.3243-6.9211 1.0179 0.48 2.1396 1.1585 2.9861 1.8188-6.602-7.1235-12.02-7.3245-14.523-10.908 3.6158 2.4662 13.175 3.7972 17.466 2.6322-2.3681 1.5814-8.082 1.4374-9.4803 1.1416 4.6558 4.525 14.833 9.1978 16.589 13.354-2.4746-2.7114-4.0845-3.2108-6.2177-3.91 1.6878 2.518 3.2056 4.7325 4.2507 7.3012 2.7109 5.8729 6.3293 5.9468 6.5669 10.791-1.236-3.7557-3.7405-4.704-5.4776-7.1689m7.2862 6.7005c-0.45441-2.3663-0.65825-3.4612-1.1178-4.4316-0.47519-1.0365-1.2451-1.9369-2.8992-4.0683 0.39209 0.0558 4.7804 0.98075 5.7606 0.52021-7.5744-4.6482-5.871-10.554-17.418-15.817 3.0329-2.2482 6.1242-4.0424 3.9066-8.3377-3.164 3.8011-9.1791 2.4882-12.421 0.72389 3.2133-0.64216 7.342-3.469 8.3248-6.6123-1.2139-0.18421-2.781 1.1261-3.6833 1.7345-0.42974-1.1585-0.59723-2.5103-2.0046-2.8035 1.88 4.0177-1.8345 6.1103-5.3815 6.1258-0.5414 0-2.829-0.23092-2.829-0.23092 0.36742-0.75243 1.8423-2.8048 0.76471-3.6324-0.86598 0.80951-1.8904 1.4582-2.8316 2.1795-6.8811 5.3163 3.2744 10.247 7.4225 12.484 6.5033 3.517 4.7713 7.6995 2.05 8.771 0.0078 0.47221 0.30251 0.68108 0.75562 0.83286 1.8942 0.63049 3.6872-0.72259 5.1998-1.5957-0.08699 2.6244 0.09478 5.149-2.8083 6.5942l1.9968 0.73167c-1.7229 1.3051-2.2409 1.9965-4.3104 2.2651 0.96076 0.46962 2.1734 0.46054 3.1939 0.55654-0.26226 0.72649-0.48427 1.7111-1.0192 2.365 4.2416 0.50205 5.9437-1.9161 7.2511-1.8201 2.7862 0.21016 2.6226 5.4707-4.2637 5.4785l0.71408 1.1779s-1.3022 0.76022-2.4993 0.90551c0.45441 0.37233 0.90233 0.86919 1.2853 1.2506l-1.0984 0.94832c2.8031 0.50206 3.6054-2.4869 5.4244-1.0469 2.7823 2.2041-3.3458 6.8484-9.2259 6.1583 0.49596 0.63049 1.8722 1.5606 2.472 2.0432-4.7895 4.5198-2.4369 8.7762-4.3961 11.895 4.1209-0.27373 7.1797-3.3029 7.9042-6.5773l1.1633 1.9797c0.41676-1.3051 1.1802-2.6556 1.6567-3.6169 0.9296 1.9278 2.4175 1.9667 3.8508 1.9771-0.32458-4.6171 5.4815-9.2614 2.9329-14.53-0.50894-1.0534-0.18047-2.3455 0.91661-2.8982 3.8976-1.9732 2.089 6.2218 5.9827 6.4722-0.74523-0.93406-1.0231-2.8787-1.1282-3.0474 0.82313 0.21536 2.7992 1.4776 3.6911-0.13881-2.2695-1.235-2.9225-3.0992-3.2848-4.966" fill="#fffffe" fill-rule="evenodd"/>
<path d="m58.746 39.837c-1.0893 1.4932-3.0666 2.4947-5.3205 2.4947-0.52452 0-1.0335-0.0571-1.5125-0.15179 0.13373 0.61622 0.45182 1.2506 1.1088 1.7994-0.26745 1.7864 0.50634 3.4586 2.4253 3.8984 0.20513 0.90941 0.76731 1.5996 1.7177 1.9252l-1.336 1.5438c-0.51543 0.59156-1.188 0.77967-1.7307 0.71221l-5.9736-0.67978c0.25836-0.66292-0.43234-1.4296-2.324-1.1001l2.3448-6.563-1.4294-3.0448-2.7109 2.3157-0.19994 6.8835-1.1672-0.56821c-1.5048-0.65384-1.9475 2.086-0.51543 2.0977l0.57775 6e-3c-0.03895 0.28152 0.05193 0.59287 0.27524 0.69276-0.27005 0.10897-0.35314 0.61881-0.01428 0.79784-0.34016 0.16475-0.3895 0.68497-0.11295 0.9094-0.29472 0.50725-0.35055 1.6022 0.6946 1.8798 0.86079 0.22443 1.4009-0.69795 1.5775-1.2337l9.296 2.8774c1.3074 0.37751 2.2526 0.16476 3.3445-0.79265l2.4266-2.1198c-0.3051 1.3855 0.19215 2.6361 1.2477 3.0486 0 0-0.16878 1.27-0.10257 1.798l3.251 5e-3h5.1219v-15.276c0-1.4244 0.40508-2.8463 0.90882-4.1566h-11.868m-13.923 25.705 0.18047 0.22703c0.25317 0.31135 0.39988 0.23741 0.68941 0.0714l0.42195-0.22313c0.26356-0.19849 1.9942 0.45924 2.0929-0.97687 0.19085 1.0729-1.0867 3.3302-0.31939 4.5924l1.0387 1.6995-3.3912 0.048c-0.37132 0-0.56477 0.22314-0.66734 0.42811l-0.88675 1.8383c-0.2298 0.4826-0.21422 0.98854 0.0779 1.3232l0.59982 0.67459s0.49076-0.41773 0.64916-0.9613l-0.26616-0.27373c-0.21942-0.21275-0.21942-0.40864-0.09867-0.67329l0.54659-1.1326c0.21163-0.44497 0.42455-0.53967 0.90623-0.4281l2.7408 0.59156c0.20254 0.048 0.52582 0.1466 0.72057-0.1881 0.33367-0.59546 0.9296-0.63438 1.5307-0.54357 1.5048 0.22573 4.9778 0.58508 6.2177-0.86011 1.4541 1.9291 4.2961 1.9291 4.1092 2.9384l-0.59982 3.3172h0.90493l0.54919-3.3898c0.06232-0.39438 0.3051-0.93795-0.12074-1.2415-0.17398-0.13622-0.25447-0.20368-0.65046-0.88346-0.51673-0.90422-0.48947-2.2573-0.98932-3.421 0.47259-0.55655 0.98413-0.74595 1.4307-0.64347 1.001 0.24519 1.2737 1.9719 2.6966 3.3821-0.16229-0.6266-0.2298-1.3142-0.56737-1.9096 0 0 0.98802 0.7654 1.2425 1.6605 0.16229 0.56302 0.32718 0.97167 0.83222 1.2311 0.33626 0.12195 0.73485-0.0402 1.136-0.52021 0 0-0.93868-1.3323-1.6255-2.2041-0.94128-1.1987-2.2007-2.3987-3.917-2.2599-0.5388 0.0454-1.062 0.29059-1.558 0.58508-1.9475-1.0897-3.4613 0.0636-4.065 0.0636l-3.6483-0.21665c-0.71927-0.0454-1.284-0.87698-1.284-0.87698-0.09348-3.085-2.5733-4.3148-3.4289-4.3148 0 0 0.0805-0.55654-0.14541-0.74983l-0.76341 0.9561-2.115-0.77059 1.658 1.357-1.7995 2.09c-0.18436 0.20627-0.1558 0.47611-0.06492 0.58767" fill="#fffffe" fill-rule="evenodd"/>
<path d="m42.428 69.876c-0.50894 0.39438-0.48817 0.94573-0.17917 1.5606l0.3064 0.56952 0.79717-0.60584-0.18047-0.39179c-0.12853-0.27502-0.12464-0.55524 0.10127-0.73167l1.1412-0.86141c0.32068-0.23351 0.42066-0.25816 0.76341-0.20886l2.4123 0.50724s-0.36353-0.53189-0.48817-1.0729l-2.2708-0.29968c-0.32198-0.0415-0.51543 0.0973-0.79717 0.30876l-1.606 1.2259m15.424 7.1546h0.91012l1.4619-3.6039c0.05193-0.12325 0.12074-0.18033 0.17657-0.28281-0.65695-0.25817-1.0413-0.44368-1.5891-0.75763 0.36742 0.49168 0.65435 0.70314 0.50245 1.1559l-1.4619 3.4884m-2.8524-50.417 3.4185-1.3103s0 0.41903-0.98542 1.0871c-0.87636 0.60713-2.433 1.2545-2.433 1.2545zm0-2.4973 3.8833-1.3855s-0.4648 0.49168-1.4502 1.1676c-0.87636 0.60195-2.433 1.2493-2.433 1.2493zm0-2.3468 4.2481-1.5646s-0.82963 0.672-1.8151 1.3466c-0.87636 0.60713-2.433 1.2532-2.433 1.2532zm3.6249 6.5436 1.6878-9.6999-6.3968 2.1717v10.005z" fill="#fffffe" fill-rule="evenodd"/>
<path d="m47.239 36.895 0.14282 0.22314h1.3165l0.01428 0.22962c0.01688 0.21924 0.06492 0.44627 0.13892 0.67589 0.20384 0.62789 0.60891 1.283 1.2633 1.8136 0.75562 0.60844 1.8488 1.0521 3.3042 1.0521 3.1523 0 4.5766-2.0394 4.7142-3.5416l0.0078-0.22962h1.323l0.14022-0.22314c1.2438-1.9446 2.7615-4.1046 4.5285-4.4108l-4.8116-2.7892-5.8996 3.2069-5.9035-3.2069-4.8051 2.7892c1.7592 0.30617 3.2757 2.4662 4.5259 4.4108" fill="#fffffe" fill-rule="evenodd"/>
<path d="m51.846 24.117v1.0314s-1.5541-0.64476-2.4292-1.2493c-0.99322-0.67719-1.4541-1.1676-1.4541-1.1676zm0-2.3468v1.0352s-1.5541-0.64606-2.4292-1.2532c-0.99322-0.67589-1.8241-1.3466-1.8241-1.3466zm0 5.8768s-1.5541-0.64865-2.4292-1.2532c-0.99322-0.6694-0.99322-1.0897-0.99322-1.0897l3.4224 1.3103zm1.0763 3.1434v-10.005l-6.3903-2.173 1.6813 9.7012zm0.50115-16.456c-3.6561 0-6.3955 1.1974-6.9902 2.5998l6.9902 2.7594 6.985-2.7594c-0.59333-1.4024-3.3302-2.5998-6.985-2.5998m0.0026-4.0035c2.694 0 5.3893 0.8147 7.2044 1.8733 0.29472-0.97557 0.61281-1.6709 1.0413-2.4688l-1.6567 0.25427-1.336-2.8554-2.4993 1.3271-2.7537-2.7204-2.7576 2.7204-2.498-1.3271-1.3477 2.8554-1.6528-0.25427c0.43234 0.79784 0.74524 1.4932 1.0477 2.4688 1.8176-1.0586 4.5052-1.8733 7.2083-1.8733m45.613 21.987c0.90493-0.11675 1.6294-0.41513 2.5148-1.078-1.9085-0.50725-5.9099-1.9511-9.3258-1.3038-1.1295 0.1479-1.754 0.60584-1.3516 0.8666 1.8345 1.2156 4.1014 4.0346 5.749 7.3258 1.4476-1.7955 0.84001-4.1565 0.5375-4.8324 2.8888 1.7397 3.6431 2.5855 4.9856 2.2547-0.71408-1.0949-1.7242-2.0796-3.1095-3.2329m-88.822 5.8106c1.6489-3.2912 3.917-6.1103 5.7554-7.3258 0.40897-0.26076-0.22461-0.7187-1.3464-0.8666-3.4198-0.64735-7.429 0.79654-9.3375 1.3038 0.89454 0.66292 1.6099 0.9613 2.52 1.078-1.3905 1.1559-2.3967 2.138-3.1108 3.2329 1.349 0.33081 2.1007-0.51503 4.9855-2.256-0.29861 0.67978-0.90882 3.0383 0.53361 4.8337" fill="#fffffe" fill-rule="evenodd"/>
<path d="m24.849 73.756-1.1646 1.9797c-0.41936-1.3051-1.175-2.6556-1.6593-3.6169-0.93479 1.9278-2.4136 1.9667-3.8417 1.9771 0.31679-4.6171-5.4919-9.2614-2.9368-14.53 0.50894-1.0534 0.17787-2.3455-0.91921-2.8982-3.8937-1.9732-2.0929 6.2218-5.9827 6.4722 0.74394-0.93406 1.0218-2.8787 1.1347-3.0474-0.82833 0.21536-2.8083 1.4776-3.6989-0.13751 2.2734-1.2363 2.9251-3.0979 3.2834-4.9674 0.45311-2.365 0.66214-3.4612 1.1204-4.4316 0.48038-1.0365 1.2477-1.9369 2.8927-4.0683-0.3895 0.0558-4.7687 0.98075-5.7542 0.52021 7.5744-4.6482 5.8697-10.554 17.416-15.817-3.0277-2.2482-6.1229-4.0424-3.9027-8.3351 3.164 3.7985 9.1752 2.4856 12.421 0.7213-3.2068-0.64216-7.342-3.469-8.3235-6.6123 1.2074-0.18421 2.7745 1.1261 3.6755 1.7371 0.43364-1.1624 0.60632-2.5116 2.0137-2.8022-1.8787 4.0138 1.8319 6.1064 5.3686 6.122 0.54919 0 2.8381-0.23092 2.8381-0.23092-0.36742-0.75243-1.8449-2.8048-0.7712-3.6324 0.86858 0.80951 1.8981 1.4582 2.8368 2.1795 6.8772 5.3163-3.2705 10.247-7.4225 12.484-6.5098 3.517-4.7687 7.702-2.0474 8.771-0.01039 0.47221-0.30121 0.68108-0.75432 0.83286-1.9033 0.63049-3.6898-0.72389-5.2063-1.5957 0.08958 2.627-0.08958 5.149 2.8148 6.5942l-2.002 0.72778c1.7203 1.309 2.2448 2.0004 4.3143 2.269-0.96595 0.46962-2.1669 0.46054-3.1939 0.55654 0.25836 0.72779 0.47259 1.7111 1.0153 2.365-4.2377 0.50205-5.9346-1.9161-7.2498-1.8201-2.7966 0.21016-2.62 5.4707 4.2624 5.4785l-0.71408 1.1779s1.3035 0.76022 2.4993 0.90551c-0.45701 0.36973-0.89584 0.87049-1.2827 1.2506l1.0997 0.94832c-2.8109 0.50206-3.6054-2.4869-5.427-1.0469-2.7823 2.2041 3.3484 6.8484 9.2246 6.1583-0.49336 0.63179-1.8735 1.5606-2.4681 2.0432 4.7856 4.5198 2.4253 8.7762 4.3948 11.895-4.13-0.27633-7.1862-3.3029-7.9029-6.5773m5.3841-5.0854c1.3308-1.0534 2.4318-1.5801 2.3759-4.1293-1.9968 1.0197-7.6562 0.96519-10.02-2.2871-0.66993-0.92627 0.04674-1.3907 0.69071-0.66292 1.6177 1.8344 4.6181 1.0041 5.7113 0.47481-0.17268-0.63308-0.65955-1.453-1.0685-1.8045 0.40897-0.40216 1.5684-1.0015 1.8034-2.0329-0.6193-0.3347-3.0199-0.576-3.0199-0.576 0.3856-0.37233 0.86598-0.88865 0.57905-2.2625-2.4538 0.75373-5.4828-0.26984-6.1735-1.1766-0.67642-0.89254 0.01428-1.728 0.58424-1.1364 1.2204 1.2804 7.2472 2.7516 9.4881 0.52022-0.83092-0.22962-1.7514-0.97427-1.915-1.4348 2.0734-0.20757 3.7275-1.4309 3.8651-2.9552-1.1477 0-3.3159-0.083-4.0534-0.63827 0.99451-0.36713 1.6229-0.72648 1.9371-1.8396-3.7924-0.22963-4.0936-3.0448-4.1144-3.5105 2.4694 1.4231 6.8201 0.78876 5.6957-2.7152-2.0552-0.11027-4.1261-3.4326 1.5255-6.4839 5.14-2.7814 10.981-5.7782 10.464-10.709-0.33626-3.1576-5.5373-5.3098-6.1969-6.9068-2.1708 1.0326-2.607 2.2314-1.6268 4.2383 0 0-4.8375 0.48-5.2192-2.4934-0.16489-1.3336 0.72576-2.5816 1.6839-3.5338-0.544 0-4.1871-0.97427-5.2855 1.9914-2.0423-1.3933-3.7885-1.3414-5.1647 0.12843 2.1942 1.3012 3.5535 5.7691 7.1836 7.0871-2.5824 1.3985-6.7578 0.8134-9.1934-3.4832-2.3058 3.4703-3.6327 6.9081 1.3113 10.577-8.9999 4.093-8.9337 11.913-16.761 15.64 0.79457 2.1289 2.4681 2.1289 4.6012 1.7955-3.3847 4.3939-0.49985 8.9929-5.8593 10.873 0.50375 1.7916 1.5099 3.2238 3.4847 2.6997-0.56087 0.87438-0.9309 0.85751-1.806 1.8188 2.929 1.8435 6.402 0.50854 7.1888-5.4045 0.13892-1.0573 1.5943-0.39567 1.0919 0.64087-3.3393 6.8964 5.1037 12.086 2.1163 17.146 2.6343-0.11027 4.6402-0.31654 5.7373-1.2026 0.5388 1.0599 0.86079 2.112 0.74524 3.1485 1.4554-0.29449 1.9838-1.1546 2.0838-2.1431 0.95556 2.7801 4.3624 5.7483 9.814 5.7483-2.8927-4.1176-0.19864-8.2988-4.2845-13.005" fill="#1a1919" fill-rule="evenodd"/>
<path d="m17.296 57.259c0.99581 1.0378 2.2007 1.1442 4.4844 1.0015-2.5097-0.30486-3.9196-0.91589-4.7986-2.5803-0.12724-0.8627-0.21163-1.7825-0.24668-2.7632-0.0792-2.6413 0.79068-5.786 2.6174-9.2316-0.01168 2.16 1.7008 5.5576 5.5243 6.1219-3.4367-1.501-5.4581-4.883-4.3559-8.1574 0.71537-1.1416 1.5229-2.3209 2.4253-3.5222 0.45311-0.5773 0.89454-1.1351 1.3256-1.6528-0.4596 1.667 1.5593 3.3911 2.9095 3.6804-0.73095-0.71481-2.3045-3.037 1.3282-6.9198-1.014 0.48-2.1344 1.1585-2.9848 1.8188 6.5994-7.1235 12.026-7.3245 14.519-10.908-3.6093 2.4662-13.168 3.7972-17.464 2.6322 2.3694 1.5814 8.082 1.4374 9.4777 1.1416-4.6571 4.525-14.826 9.1978-16.586 13.356 2.4759-2.7152 4.0806-3.2121 6.2228-3.9114-1.6878 2.518-3.2081 4.7325-4.2572 7.3025-2.7044 5.8716-6.3215 5.9468-6.5617 10.79 1.2347-3.7531 3.7379-4.7053 5.475-7.1689-0.3064 1.5723-0.44922 3.3185-0.39469 5.3319 0.06102 2.1898 0.50115 4.115 1.197 5.8378-0.17657 2.3922 0.03635 6.4839 2.7836 9.181-1.867-2.3598-2.2669-6.1972-2.1007-7.6943 2.1487 4.1449 8.2807 9.8724 11.243 13.72-2.9628-4.9505-10.227-10.731-11.784-17.406m67.861-19.894c2.1318 0.69924 3.7405 1.1961 6.2164 3.9114-1.754-4.1578-11.934-8.8307-16.59-13.356 1.3983 0.29319 7.1122 0.43979 9.4803-1.1416-4.2909 1.165-13.85-0.16605-17.464-2.6322 2.4967 3.5831 7.9184 3.7842 14.52 10.908-0.8465-0.66032-1.9683-1.3388-2.9861-1.8188 3.6288 3.8828 2.0604 6.205 1.3243 6.9211 1.3541-0.29059 3.373-2.0147 2.9134-3.6817 0.43364 0.51762 0.87637 1.0755 1.3269 1.6528 0.90882 1.2013 1.7112 2.3805 2.424 3.5222 1.101 3.2744-0.9231 6.6564-4.352 8.1574 3.8236-0.56302 5.5386-3.9619 5.5192-6.1219 1.828 3.4456 2.7031 6.5903 2.62 9.2316-0.03376 0.98075-0.11944 1.9005-0.24798 2.7632-0.88156 1.6644-2.2915 2.2755-4.796 2.5803 2.2863 0.14271 3.4847 0.0363 4.487-1.0015-1.558 6.6746-8.8221 12.455-11.789 17.406 2.9667-3.8478 9.0895-9.5754 11.247-13.72 0.16618 1.4971-0.23759 5.3345-2.1007 7.6943 2.7459-2.6971 2.9589-6.7888 2.781-9.1836 0.6946-1.7202 1.1308-3.6454 1.1958-5.8352 0.06621-2.0134-0.08829-3.7596-0.39339-5.3319 1.7372 2.4649 4.2403 3.4158 5.4776 7.1689-0.23759-4.8428-3.856-4.918-6.5669-10.79-1.0451-2.5699-2.5616-4.7844-4.2481-7.3025" fill="#1a1919" fill-rule="evenodd"/>
<path d="m97.374 60.093c0.10516 0.16865 0.383 2.1133 1.1282 3.0474-3.8937-0.25038-2.0877-8.4454-5.9827-6.4722-1.0971 0.55265-1.4256 1.8448-0.91661 2.8982 2.546 5.2683-3.2575 9.9126-2.9316 14.53-1.4346-0.0104-2.9225-0.0493-3.8508-1.9771-0.47778 0.9613-1.2412 2.3118-1.658 3.6143l-1.1646-1.9771c-0.72316 3.2744-3.782 6.3036-7.9029 6.5773 1.9592-3.1187-0.39599-7.3751 4.3987-11.895-0.60372-0.4826-1.9786-1.4128-2.4746-2.0432 5.8801 0.69017 12.008-3.9542 9.2259-6.1583-1.8202-1.44-2.6213 1.549-5.4244 1.0469l1.0984-0.94832c-0.383-0.38011-0.83092-0.87827-1.2853-1.2506 1.197-0.14529 2.4993-0.90551 2.4993-0.90551l-0.71408-1.1779c6.885-8e-3 7.0499-5.2683 4.2637-5.4785-1.3074-0.096-3.0095 2.3222-7.2511 1.8201 0.53491-0.65384 0.75692-1.6372 1.0192-2.365-1.0205-0.096-2.2331-0.0869-3.1965-0.55654 2.0721-0.26854 2.5901-0.96 4.313-2.2651l-1.9942-0.73167c2.9004-1.4452 2.7187-3.9671 2.807-6.5942-1.5138 0.87309-3.3068 2.2262-5.2011 1.5957-0.45311-0.15178-0.74783-0.36065-0.75692-0.83286 2.7226-1.069 4.4558-5.2541-2.0487-8.771-4.1481-2.2365-14.304-7.1676-7.4225-12.484 0.94128-0.7213 1.9631-1.37 2.829-2.1795 1.0802 0.82767-0.39469 2.88-0.76211 3.6324 0 0 2.2876 0.23092 2.829 0.23092 3.547-0.0156 7.2615-2.1081 5.3815-6.1258 1.4074 0.29319 1.5749 1.645 2.0046 2.8035 0.90233-0.60843 2.4694-1.9187 3.6833-1.7345-0.98542 3.1434-5.1141 5.9702-8.3248 6.6123 3.2419 1.7643 9.2583 3.0772 12.421-0.7213 2.2175 4.2928-0.87377 6.0869-3.9066 8.3351 11.547 5.2605 9.8426 11.168 17.418 15.817-0.98023 0.46054-5.3686-0.46443-5.7606-0.52021 1.6541 2.1315 2.424 3.0318 2.8992 4.0683 0.4596 0.97038 0.66344 2.0653 1.1178 4.4316 0.36223 1.8694 1.0153 3.731 3.2848 4.9674-0.89195 1.6151-2.868 0.35287-3.6911 0.13751m-0.44922-11.743c2.1305 0.3334 3.8067 0.3334 4.6012-1.7942-7.8302-3.7271-7.7627-11.547-16.761-15.64 4.9466-3.6688 3.6119-7.1066 1.3152-10.577-2.433 4.2966-6.6214 4.8817-9.1921 3.4832 3.621-1.318 4.9881-5.786 7.1823-7.0884-1.3723-1.4711-3.1251-1.5204-5.1699-0.12973-1.1049-2.963-4.7415-1.9888-5.2881-1.9888 0.95556 0.95222 1.8579 2.1989 1.6865 3.5338-0.37651 2.9734-5.2153 2.4934-5.2153 2.4934 0.97634-2.0069 0.5427-3.2056-1.6294-4.2383-0.66344 1.597-5.8567 3.7492-6.1943 6.9055-0.52063 4.9323 5.327 7.9291 10.462 10.71 5.6503 3.0512 3.5782 6.3736 1.532 6.4839-1.136 3.5066 3.2146 4.1384 5.6905 2.7152-0.01168 0.46573-0.32588 3.2809-4.1196 3.5118 0.32068 1.1118 0.94647 1.4711 1.9397 1.8383-0.74134 0.55525-2.9056 0.63827-4.0508 0.63827 0.13503 1.5243 1.793 2.7477 3.8677 2.9552-0.16489 0.45924-1.0867 1.2052-1.9163 1.4348 2.2409 2.2314 8.2651 0.76021 9.492-0.52022 0.56087-0.59157 1.2451 0.24389 0.57775 1.1338-0.6933 0.9094-3.7197 1.933-6.1748 1.1792-0.28174 1.3725 0.19085 1.8928 0.57905 2.2625 0 0-2.4006 0.2387-3.0225 0.576 0.2337 1.0314 1.3983 1.6307 1.8073 2.0329-0.40897 0.35157-0.89454 1.1715-1.0698 1.8045 1.101 0.5293 4.0988 1.3583 5.71-0.47481 0.65176-0.72778 1.3632-0.26335 0.6972 0.66162-2.3655 3.2536-8.0275 3.3068-10.026 2.2884-0.05583 2.5492 1.0477 3.0733 2.3759 4.1293-4.0923 4.7066-1.3879 8.8878-4.2806 13.005 5.4477 0 8.8545-2.9721 9.8114-5.7483 0.10776 0.98854 0.63098 1.8486 2.0825 2.1431-0.11166-1.0391 0.21292-2.0886 0.74134-3.1485 1.1023 0.88605 3.1134 1.0923 5.7425 1.2026-2.9809-5.0608 5.4594-10.25 2.1111-17.146-0.49466-1.0365 0.95946-1.6956 1.0997-0.64087 0.78288 5.9131 4.2598 7.248 7.1914 5.4045-0.88156-0.9613-1.2464-0.94443-1.8099-1.8188 1.9735 0.52411 2.9784-0.90811 3.4847-2.6997-5.3556-1.8798-2.4707-6.4787-5.8606-10.874m-54.497 21.526 1.606-1.2208c0.28823-0.21665 0.47518-0.35546 0.80106-0.31395l2.2669 0.29968c0.12464 0.54097 0.48817 1.0729 0.48817 1.0729l-2.4123-0.50724c-0.34276-0.0402-0.44273-0.0247-0.76341 0.20627l-1.1412 0.864c-0.2285 0.17643-0.2337 0.45665-0.10516 0.73167l0.18436 0.39698-0.79717 0.60324-0.3064-0.57211c-0.309-0.61492-0.32977-1.1702 0.17917-1.5606m3.6833-4.259-0.41806 0.22184c-0.28952 0.16735-0.43624 0.24129-0.68941-0.0714l-0.18047-0.22962c-0.09088-0.10767-0.11944-0.37751 0.06492-0.58378l1.7956-2.09-1.6541-1.357 2.1072 0.77578 0.7712-0.96129c0.22591 0.19329 0.14671 0.74854 0.14671 0.74854 0.85429 0 3.3341 1.2311 3.4289 4.3174 0 0 0.56347 0.82897 1.2762 0.87178l3.6535 0.22055c0.60502 0 2.1189-1.1533 4.0663-0.0636 0.49076-0.29449 1.0192-0.53189 1.558-0.59287 1.7164-0.12713 2.9757 1.069 3.917 2.2703 0.68681 0.86919 1.6281 2.2015 1.6281 2.2015-0.40508 0.48-0.80236 0.64216-1.1386 0.52021-0.50505-0.25946-0.66993-0.66811-0.83222-1.2311-0.25707-0.89514-1.2425-1.6605-1.2425-1.6605 0.33626 0.60065 0.40508 1.283 0.56737 1.9096-1.4294-1.4102-1.6969-3.1369-2.6966-3.3743-0.44273-0.11027-0.95816 0.0791-1.4346 0.63178 0.50375 1.1676 0.47648 2.5206 0.99321 3.4249 0.39339 0.67589 0.47518 0.73816 0.65046 0.88346 0.42195 0.30356 0.18306 0.84713 0.11944 1.2415l-0.5414 3.3911h-0.91142l0.59982-3.3185c0.18436-1.0106-2.6551-1.0106-4.1092-2.9384-1.2399 1.4478-4.7129 1.0858-6.2177 0.86011-0.60502-0.0908-1.1971-0.0519-1.5307 0.54486-0.19475 0.33341-0.52192 0.23352-0.72057 0.18681l-2.7408-0.59156c-0.48168-0.11157-0.69071-0.0169-0.90493 0.42551l-0.54789 1.1338c-0.12074 0.26595-0.11295 0.46054 0.10516 0.67459l0.25837 0.27762c-0.1571 0.54357-0.65046 0.95741-0.65046 0.95741l-0.59723-0.6733c-0.29212-0.33859-0.3077-0.83157-0.0779-1.3116l0.88675-1.8512c0.10646-0.20497 0.29602-0.42811 0.66734-0.42811l3.3912-0.0519-1.0387-1.6904c-0.7725-1.2675 0.51024-3.526 0.31939-4.5937-0.09737 1.4322-1.8293 0.77838-2.0968 0.97298m14.113 7.8097-1.4645 3.6052h-0.90752l1.4619-3.491c0.1519-0.45146-0.13502-0.66162-0.50245-1.1546 0.544 0.30617 0.93219 0.50725 1.5891 0.75763-0.05583 0.10248-0.12464 0.15956-0.17657 0.28281m-17.844-0.40865 1.6463-1.3946-0.25058-0.49946c-0.17917-0.35805-0.08309-0.37881 0.10646-0.52151l0.86987-0.64735c0.19994-0.16476 0.41287-0.1453 0.65695-0.0869l2.6109 0.61232h-2.7537c-0.63618 0.0428-0.82054 0.28541-1.0503 0.75763l-0.18955 0.38529-0.70758 1.4543c-0.24019 0.49946-0.36613 1.1676 0.26616 1.92l0.49985 0.59546-1.014 2.0497h0.85429l0.70109-1.4218c0.05583-0.0519 1.0919-0.99632 1.3113-1.9758-0.29861-0.24389-0.51284-0.41384-0.34665-0.75503l0.31809-0.67978c0.10386-0.22573 0.14022-0.31784 0.44402-0.25816l2.7382 0.59157c0.34146 0.0947 0.84261 0.24389 1.2087-0.30617 0.37392-0.5721 0.42585-0.51113 1.2957-0.42421l1.3983 0.14789c1.9111 0.18162 3.8184-0.29578 4.5623-0.88476 0.25966 0.59416 0.7764 1.0456 1.0192 1.5075 0.08829 0.17124-0.05972 0.41254-0.17787 0.71352l-1.5697 3.7453h2.4201l1.3697-3.4184c0.12724-0.32691 0.3116-0.58767 0.45311-0.7187l-0.78548 4.1371h2.3487l0.62319-4.0929c0.13762-0.90941 0.05583-1.2039-0.38171-1.5775-0.97893-0.82509-0.95686-2.5596-1.2724-3.6117 0.16618-0.096 0.35834-0.144 0.58944-0.11676 0.51284 0.0454 0.89714 1.3518 1.5009 2.1924 1.2009 1.6878 2.842 3.5507 4.7207 0.92627-0.18176-0.29838-0.37781-0.57211-0.60502-0.83157l-0.52452-0.61492c-0.3051-0.33989-1.7592-2.0017-2.3668-2.6011-1.3762-1.3881-3.4938-1.1754-4.3377-0.50335-1.9085-1.0002-3.9235 0.0506-4.4 0.0117l-3.2886-0.19848c-0.14931-0.0104-0.37781-0.0597-0.5375-0.31654l0.61151-0.19979c-0.57256-2.3779-2.0098-4.3706-4.522-4.7118 0 0-0.14671-0.75114-0.53101-0.89643l-0.74913 0.88346c-0.21292 0.0285-0.44273 0.0947-0.63098 0.17643l-3.2068-1.1922 2.4084 2.4298s-1.2503 1.7669-1.6047 2.1289c-0.23759 0.32952-0.21422 0.58768 0.05063 0.90422l0.4661 0.61232c0.24279 0.31784 0.50505 0.30487 0.89065 0.10898l0.52842-0.27373c0.2298-0.1933 1.001 0.18681 1.3334-0.11676-0.21292 0.69276-0.31809 1.357-0.36613 1.885l-2.163-0.25816c-0.47129-0.0636-0.68551 0-0.97374 0.22314l-1.8436 1.4192c-0.60112 0.46184-0.78808 1.2571-0.41806 2.0329l0.74653 1.5542m7.0369-46.625c0.87507 0.60454 2.4292 1.2532 2.4292 1.2532v-1.0326l-3.4224-1.3103s0 0.42033 0.99322 1.0897m2.4292-1.2454v-1.0314l-3.8833-1.3855s0.4609 0.49168 1.4541 1.1676c0.87507 0.60195 2.4292 1.2493 2.4292 1.2493m0-2.3429v-1.0352l-4.2533-1.5646s0.83092 0.672 1.8241 1.3466c0.87507 0.60713 2.4292 1.2532 2.4292 1.2532" fill="#1a1919" fill-rule="evenodd"/>
<path d="m63.799 36.895h4.3494c-0.17917-0.63178-0.85559-1.2688-2.1266-1.2688-1.1996 0-1.9228 0.69535-2.2227 1.2688m-4.5519-16.69-4.2481 1.5646v1.0352s1.5567-0.64606 2.433-1.2532c0.98932-0.6746 1.8151-1.3466 1.8151-1.3466m-0.82703 5.0984-3.4211 1.3103v1.0326s1.5567-0.64865 2.433-1.2532c0.98802-0.6694 0.98802-1.0897 0.98802-1.0897m0.4622-2.5725-3.8833 1.3855v1.0314s1.558-0.64476 2.433-1.2493c0.98802-0.67589 1.4502-1.1676 1.4502-1.1676m-18.071 12.895c-1.2685 0-1.9436 0.63697-2.1253 1.2688h4.3546c-0.3103-0.5747-1.0218-1.2688-2.2292-1.2688" fill="#1a1919" fill-rule="evenodd"/>
<path d="m53.423 19.693-6.9902-2.7594c0.59463-1.4024 3.3341-2.5998 6.9902-2.5998 3.6548 0 6.3916 1.1974 6.985 2.5998zm5.2011 8.6205-4.709 2.4765v-10.005l6.3994-2.1717zm5.5088 4.1708c-1.767 0.30617-3.2847 2.4662-4.5285 4.4108l-0.13892 0.22314h-1.3269l-0.0052 0.22962c-0.13762 1.5023-1.5619 3.5416-4.7142 3.5416-1.4541 0-2.5486-0.44497-3.3042-1.0521-0.65435-0.53059-1.0607-1.1857-1.2633-1.8136-0.074-0.22702-0.12204-0.45665-0.14152-0.67589l-0.01168-0.22962h-1.3165l-0.14282-0.22314c-1.2503-1.9446-2.7667-4.1046-4.5259-4.4108l4.8051-2.7892 5.9048 3.2069 5.8983-3.2069zm6.4825 7.3531c-0.50505 1.3103-0.91012 2.7321-0.91012 4.1566v15.276h-1.7774c-0.80885-0.78227-1.4905-3.3846-1.4905-3.3846-0.44273 0.93795 0.06492 2.8346 0.5375 3.3846h-2.2889c-0.56866-0.7667-1.0594-3.4794-1.0594-3.4794-0.68422 0.77968-0.25058 2.8917 0.17397 3.4794h-1.5216c-0.09478-1.0845 0.21552-2.2677 0.21552-2.2677-0.79587-0.1466-1.6424-0.56433-1.6411-1.4491 0.40378 0.37622 0.56736 0.36973 1.1243 0.35806l0.64656-0.50854c-2.1448 0.07-2.2448-2.2832-0.544-3.3834-1.7008 0.0545-2.9693-0.95611-2.3513-2.7594-1.2087-0.624-1.6346-2.6685-0.74134-3.5689-0.64656-0.70054-0.75432-2.077-0.34016-3.0175-0.85559 0-1.8202-0.34119-2.3577-0.92498-0.04155 0.0195-0.09088 0.0324-0.13502 0.048 1.0711-0.43719 1.9786-1.1157 2.5914-1.9589zm-0.90623 30.346c0 3.1862-1.4736 5.6082-3.9248 6.9483l0.88026-1.7838h-0.8504l-1.1269 2.2858c-1.1659 0.44238-2.4928 0.68368-3.9547 0.68368-4.474 0-5.6568 0.18162-7.3069 1.8292-1.6606-1.6476-2.8407-1.8292-7.3069-1.8292-1.4541 0-2.7771-0.23741-3.9378-0.6746h0.02856l1.1282-2.2949h-0.8478l-0.98932 2.0082c-0.23759-0.11157-0.4648-0.23092-0.68551-0.36324l0.81275-1.645h-0.84521l-0.60372 1.226c-1.9163-1.4089-3.0407-3.6091-3.0407-6.3905v-10.018h32.571zm-22.171-18.296 1.371 0.17124c0.10386 0.74984-0.09218 2.0251-0.58165 2.736l-1.3308-0.3827c0.35444-0.84195 0.44273-1.6281 0.5414-2.5245zm-1.9786-1.0041s1.262-0.0597 1.6177 0.0739c0.26226 0.10897 0.08309 0.55005-0.25577 0.50075-0.35444-0.0428-1.3619-0.5747-1.3619-0.5747zm-0.08309-4.9985-1.1321 4.1241 0.3869-6.6538 1.754-1.4997 0.89324 1.9576-2.2565 6.4618 0.59593-4.3498c0.05583-0.30227-0.19085-0.3373-0.24149-0.0402zm-0.86988 6.877c-0.59203 0.23611-1.1983-0.0856-1.0114-0.46833 0.27394 0.24908 1.0413 0.12714 1.0413 0.12714zm-1.114 0.55005c0.27524 0.26335 1.1036 0.16346 1.1036 0.16346l0.02986 0.16606c-0.36223 0.48129-1.3632 0.26335-1.1334-0.32952zm-1.2996-2.6582c-0.31679-0.21146-0.17398-0.66941 0.17787-0.66941 0.383 9e-3 0.89844 0.44498 1.4048 0.66163 0 0-1.3282 0.18032-1.5827 8e-3zm1.2594 3.6597s0.37911 0.15827 0.86208 0.19718c-0.05583 0.26336-0.26096 0.51763-0.58424 0.44498-0.27005-0.0597-0.39209-0.39568-0.27784-0.64216zm0.89194-2.4934c-0.63748 0.20627-0.91791-0.25427-0.89065-0.64605 1.2503-0.45406 1.8073-0.16087 2.1721 0.0713 0.33497 0.21275 0.6154 0.8134 1.0659 1.1896-0.07271 0.51243-0.2311 1.2519-0.41416 1.7475-1.2775-0.32692-1.3438-1.453-0.86858-2.1366-0.26616-0.31265-0.54919-0.39178-1.0646-0.22573zm5.5386 0.36584 1.3671 0.16216c0.13502 0.75113-0.12074 2.3468-0.63618 3.1083l-1.3944-0.40345c0.55828-0.73038 0.76211-2.029 0.66344-2.867zm2.3526 0.288 1.1282 0.14011c0.18047 0.93664 0.06232 2.557-0.5362 3.478l-1.3113-0.38011c0.57386-0.78227 0.84521-2.3909 0.71927-3.238zm2.0215 0.25038h0.02467c0.29342 0.0441 0.60242-6e-3 0.88416-0.12195 0.60891 0.87308 1.0867 2.854 0.35444 4.0904-0.41416 8e-3 -0.82184-0.0649-1.2009-0.17254l-0.30381-0.0908c0.618-0.95741 0.52842-2.6478 0.24149-3.7051zm1.7242-0.66552 0.80236-0.78357c0.81405 0.71092 1.8839 2.3001 1.5502 3.8089l-0.87377 0.80043c-0.17917 0.17254-0.36613 0.30227-0.55568 0.41773 0.544-1.3466-0.14931-3.4223-0.9231-4.2435zm4.6934 0.44757c-0.17268 0.23351-0.31549 0.50595-0.40637 0.80173l-0.97244 0.89124c0.19475-1.4192-0.76082-3.1018-1.6333-3.7855l1.0335-1.0132 0.20643 0.20757c-0.34535 0.90551 0.32977 2.6854 1.7722 2.8982zm-2.5798-6.8731c-0.51154 0.97427-0.4596 2.0977 0.14282 3.1174l-0.40118 0.39309c-1.7436-0.21795-2.4318-2.8151-2.4318-2.8151-0.03505 0.23351-0.05583 0.46184-0.05193 0.69405-1.0166-0.37621-1.6606-1.2804-1.6086-2.5168 0.3843 0.21405 0.81794 0.36584 1.2762 0.44497l0.11944-0.75892c-1.2178-0.21276-1.9293-0.97297-2.1994-1.872-0.05842-5e-3 -0.11036-0.0195-0.16618-0.0233 0.21812 0.0182 0.42974 0.035 0.65176 0.035 0.72316 0 1.4074-0.11157 2.0513-0.30098 0.50505 0.72 1.4048 1.2363 2.3045 1.3362-0.14022 0.58897-0.07141 1.3388 0.3129 2.2664zm-9.9971-5.7963c0.84131 1.1494 2.2058 2.0017 3.8223 2.3351 0.13632 0.60713 0.4648 1.2714 1.1062 1.8071-0.26616 1.7864 0.50245 3.4547 2.4266 3.8984 0.19994 0.90941 0.76731 1.5996 1.7125 1.9252l-1.336 1.5438c-0.50894 0.59156-1.1763 0.77967-1.7307 0.71221l-5.9736-0.67978c0.25836-0.66292-0.42974-1.4296-2.3201-1.1001l2.3487-6.563-1.4333-3.0448-2.7161 2.3157-0.19864 6.8835-1.1542-0.56821c-1.5177-0.65384-1.9592 2.086-0.51803 2.0977l0.57256 6e-3c-0.03635 0.28152 0.04804 0.59287 0.27005 0.68757-0.27005 0.11416-0.35314 0.624-0.01039 0.80562-0.34406 0.16216-0.39079 0.68238-0.11295 0.90681-0.30251 0.50725-0.34795 1.6022 0.69979 1.8798 0.85559 0.22443 1.3918-0.69795 1.5697-1.2337l9.2947 2.8774c1.3178 0.37751 2.2526 0.16476 3.3445-0.79265l2.4266-2.1198c-0.3051 1.3855 0.19475 2.6361 1.2516 3.0486 0 0-0.1532 1.2454-0.10516 1.8032h-24.195v-15.276c0-1.4244-0.41157-2.8463-0.90103-4.1566zm-1.5697-21.224 6.3942 2.1717v10.005l-4.7103-2.4765zm15.537-1.1909c0-2.4454-4.1105-4.6339-8.6455-4.6339-4.5376 0-8.6481 2.1885-8.6481 4.6339l0.09348 0.59935 1.806 10.386-8.5728 4.9933c-0.91142 0.53319-2.0526 2.0095-2.1981 3.4936h1.5645c0.25836-1.4828 1.4307-3.1278 3.6171-3.0253 1.9786 0.10378 3.151 1.3064 4.3156 3.0253l0.29991 0.45276 0.43104 0.67589h-12.605c0.9257 1.859 1.8073 3.8309 1.8073 5.9702v26.19c0 6.7395 5.179 9.9477 10.789 9.9477 4.3312 0 4.9154-0.19719 7.3069 2.1924 2.3837-2.3896 2.9654-2.1924 7.3069-2.1924 5.6035 0 10.788-3.2082 10.788-9.9477v-26.19c0-2.1392 0.87766-4.1111 1.8034-5.9702h-12.614l0.43364-0.67589 0.30121-0.45276c1.1594-1.7189 2.3357-2.9215 4.3156-3.0253 2.1799-0.10249 3.3575 1.5425 3.6158 3.0253h1.5606c-0.13892-1.4841-1.2866-2.9604-2.1968-3.4936l-8.5715-4.9933 1.8086-10.386 0.08828-0.59935z" fill="#1a1919" fill-rule="evenodd"/>
<path d="m68.965 49.708 0.01298-0.76541c-2.3526-0.0558-2.8901-2.8268-2.8901-2.8268-0.68941 2.0406 1.1062 3.5611 2.8771 3.5922m-2.9706 4.6936-0.235-0.72389c-2.0059 0.51243-3.0433-2.6634-3.0433-2.6634-0.64137 2.3066 1.5969 3.9412 3.2783 3.3872m1.3944-2.9436c-2.3967 0.37881-3.3808-2.4065-3.3808-2.4065-0.26486 1.5165 0.71797 3.0551 2.3045 3.2173-0.35834 1.981 1.4814 2.9942 3.0744 2.2897l-0.2298-0.69017c-1.384 0.46444-2.6823-0.90421-1.7683-2.4104m-1.4346-7.9485 0.02207-0.7667c-3.1627-0.65124-2.8991-2.8268-2.8991-2.8268-0.68292 2.0484 1.1127 3.5611 2.8771 3.5935" fill="#1a1919" fill-rule="evenodd"/>
<polyline transform="translate(-6.0465 -112.66)" points="51.962 188.01 50.829 190.3 51.68 190.3 52.809 188.01 51.962 188.01" fill="#1a1919" fill-rule="evenodd"/>
<polyline transform="translate(-6.0465 -112.66)" points="53.667 188.01 52.539 190.3 53.397 190.3 54.518 188.01 53.667 188.01" fill="#1a1919" fill-rule="evenodd"/>
<polyline transform="translate(-6.0465 -112.66)" points="60.516 188.01 59.389 190.3 60.238 190.3 61.368 188.01 60.516 188.01" fill="#1a1919" fill-rule="evenodd"/>
<polyline transform="translate(-6.0465 -112.66)" points="62.231 188.01 61.096 190.3 61.952 190.3 63.076 188.01 62.231 188.01" fill="#1a1919" fill-rule="evenodd"/>
<polyline transform="translate(-6.0465 -112.66)" points="58.806 188.01 57.675 190.3 58.526 190.3 59.657 188.01 58.806 188.01" fill="#1a1919" fill-rule="evenodd"/>
<polyline transform="translate(-6.0465 -112.66)" points="68.807 190.3 69.66 190.3 70.79 188.01 69.938 188.01 68.807 190.3" fill="#1a1919" fill-rule="evenodd"/>
<polyline transform="translate(-6.0465 -112.66)" points="55.383 188.01 54.254 190.3 55.106 190.3 56.237 188.01 55.383 188.01" fill="#1a1919" fill-rule="evenodd"/>
<polyline transform="translate(-6.0465 -112.66)" points="57.089 188.01 55.959 190.3 56.817 190.3 57.945 188.01 57.089 188.01" fill="#1a1919" fill-rule="evenodd"/>
<path d="m47.169 63.016c-0.1532 0-0.29082 0.15178-0.29082 0.34637 0 0.18941 0.13762 0.34508 0.29082 0.34508 0.16229 0 0.29991-0.15567 0.29991-0.34508 0-0.19459-0.13762-0.34637-0.29991-0.34637m-0.34665-53.027 1.3477-2.854l2.498 1.3258 2.7576-2.7204 2.7576 2.7204 2.4954-1.3258 1.3321 2.854 1.6606-0.25427c-0.42585 0.79784-0.74653 1.4906-1.0413 2.4688-1.8151-1.0586-4.5104-1.8733-7.2044-1.8733-2.7031 0-5.3919 0.8147-7.2083 1.8733-0.30251-0.97817-0.618-1.6709-1.0477-2.4688zm6.6033 1.2506c3.5094 0 6.3189 1.1611 7.8717 2.4104 0 0 0.4648-2.784 2.0371-5.2281l-2.829 0.31654-1.4775-3.1446-2.8446 1.4776-2.7576-2.7347-2.7576 2.7347-2.8498-1.4776-1.4801 3.1446-2.8264-0.31654c1.5749 2.4441 2.0345 5.2281 2.0345 5.2281 1.5489-1.2493 4.3662-2.4104 7.8795-2.4104z" fill="#1a1919" fill-rule="evenodd"/>
<path d="m56.311 5.6134c0.41027 0.0337 0.7751-0.27633 0.81015-0.68109 0.04025-0.40865-0.55958-1.5049-0.55958-1.5049s-0.89844 0.96519-0.927 1.3777c-0.03895 0.40476 0.27005 0.7667 0.67642 0.80822m4.6337 1.6774c0.36483 0.19719 0.81015 0.0519 1.0075-0.31394 0.19864-0.35936 0.06881-1.5996 0.06881-1.5996s-1.1932 0.53837-1.3905 0.90421c-0.18696 0.36065-0.05063 0.81081 0.31419 1.0093m-10.415-1.6774c0.41806-0.0415 0.72057-0.40346 0.68422-0.80822-0.03765-0.41254-0.927-1.3777-0.927-1.3777s-0.59853 1.0962-0.55958 1.5049c0.03246 0.40476 0.39858 0.71482 0.80236 0.68109m-4.6259 1.6774c0.36353-0.19849 0.50245-0.64865 0.3077-1.0093-0.19215-0.36584-1.3879-0.90421-1.3879-0.90421s-0.12724 1.2402 0.07271 1.5996c0.19085 0.36583 0.64267 0.51113 1.0075 0.31394m51.258 26.004c0.30381 0.67849 0.91012 3.0344-0.5362 4.8324-1.6476-3.2912-3.9144-6.1103-5.749-7.3258-0.40118-0.26076 0.22201-0.7187 1.3516-0.8666 3.4159-0.64735 7.4173 0.79654 9.3258 1.3038-0.88805 0.66292-1.6086 0.9613-2.5148 1.0729 1.3853 1.1611 2.3954 2.1431 3.1095 3.2381-1.3425 0.33081-2.0968-0.51633-4.9869-2.2547m4.3091-0.55913c0.98673-0.35027 1.7501-1.2908 2.1305-2.1613-2.5122-0.36065-9.183-3.1602-14.668-0.88086 2.0539-1.9485 3.8989-2.2002 4.0741-5.0024 0.8517 0.61232 2.2915 0.9574 3.1017-0.50335-0.56606-1.6683-1.9929-0.31784-2.1942-0.77579-0.27914-0.63956 1.8021 0.1959 2.2461-1.9719-1.6177-0.55524-2.102 0.76541-2.3902 0.45924-0.26745-0.29189 1.027-0.84843 0.074-2.5959-1.6839 0.98465-0.80756 2.0951-1.1633 2.2197-0.43104 0.16994-0.09218-1.1844-1.9527-1.1235-0.18306 2.0004 1.7488 2.0614 1.432 2.3805-0.383 0.38659-0.88805-1.1494-2.2941-0.37103 0.02467 1.6151 1.3321 2.5012 2.6836 2.1198-0.22071 3.0681-3.0342 2.496-5.1336 5.9507 4.4416 2.2755 6.4513 6.2426 9.1843 8.9864 0.90233-0.63957 2.4447-3.4845 2.4447-3.4845 2.9576 2.2884 5.0375 9e-3 5.0375 9e-3 -1.0179-1.0417-1.0542-1.8344-2.6122-3.2549m-48.871 54.424-1.9254-0.0713-0.21942 0.76929 0.24149 0.013c0.0805 0 0.0805-0.15048 0.1506-0.23221 0.03765-0.0298 0.3869-0.0869 0.66214-0.0584l0.80626 0.061c-0.47389 0.98725-1.7164 1.9161-1.7008 2.5712 0.01818 0.34897 0.37262 0.41773 0.58424 0.40864 0.3882-0.0143 0.50894-0.2867 0.61021-0.70702 0.235-0.97168 0.70499-1.7111 1.0451-2.8255l-0.23889 8e-3 -0.01558 0.0636m1.3165 1.1481 0.02856-0.59286h1.6722l-0.08829-0.66162c-0.45701 0.0156-1.1282 0.16475-1.7436 0.16865l-0.11685 1.2921c0.7751-0.0337 1.2801 0.30357 1.2801 1.1144 0 0.30227-0.19864 0.8666-0.54789 0.90941-0.0805 0.0117-0.18696-0.0156-0.23759-0.0558-0.16748-0.12583 0.05193-0.26464 0.05193-0.47221 0-0.26984-0.27524-0.36454-0.45831-0.33081-0.28693 0.0182-0.3895 0.20497-0.3895 0.43329 0 0.47611 0.70758 0.60844 1.0101 0.60844 0.68681 0 1.4788-0.38141 1.4788-1.1585 0-1.0223-1.1451-1.2324-1.9397-1.2545m4.0079 0.52671c-0.59593 0-0.68162-0.92757-0.68162-1.3777 0-0.12714 0.11425-0.30617 0.24798-0.30617 0.5427 0 0.692 1.2623 0.73615 1.6177-0.08828 0.0337-0.19345 0.0662-0.30251 0.0662m-0.38041-1.859c-0.59982 0-1.0919 0.44627-1.0919 1.056 0 0.96259 1.0348 1.2791 1.8021 0.91459 0.09348 0.74725-0.05842 1.283-0.34146 1.3012-0.24149 0-0.20643-0.18162-0.24149-0.336-0.06362-0.29059-0.29342-0.36843-0.52972-0.29059-0.25058 0.0727-0.28823 0.29319-0.24538 0.46054 0.11166 0.37751 0.57905 0.3853 0.80366 0.35805 0.98413-0.11156 1.397-0.84194 1.397-1.6528 0-0.93925-0.5388-1.811-1.5528-1.811m-8.2184-0.19719c-0.08958 0.11027-0.50245 0.624-1.3892 1.2856l0.074 0.12843c0.09737-0.0519 0.25447-0.12454 0.52192-0.2854l-0.52192 1.8253c-0.02986 0.0986-0.1506 0.10767-0.20903 0.0986l-0.3103-0.0441-0.05842 0.21406 1.6982 0.30356 0.05193-0.21535-0.29342-0.0636c-0.08699-0.0247-0.14022-0.0869-0.12594-0.18552l0.7738-3.0292-0.21163-0.0324" fill="#1a1919" fill-rule="evenodd"/>
<path d="m62.18 88.934-1.506-4.8934c3.2094-0.66292 5.4426-1.344 7.1472-2.0017v3.0525l2.646 1.0651c-2.2357 1.0184-5.0089 2.029-8.2872 2.7775m-8.7546 2.8631c-2.9926 0-5.9151-0.44757-8.4118-1.0599l1.5891-5.1334c1.0529 0.24519 3.6885 0.56821 6.8227 0.56821 3.1354 0 5.7606-0.32302 6.8188-0.56821l1.5943 5.1334c-2.5084 0.61233-5.4296 1.0599-8.4131 1.0599m-17.051-5.6406 2.6486-1.0651v-3.0525c1.7047 0.65773 3.9378 1.3388 7.1472 2.0017l-1.5048 4.8934c-3.2705-0.74854-6.0515-1.7591-8.2911-2.7775m32.266-1.6995v-3.7453c-2.8966 1.3271-6.5838 2.4026-11.324 2.8281l-0.21552 1.3388c0.40248 0.0571 0.91402 0.10638 1.5943 0.15049-1.7566 0.24-4.0261 0.35675-5.2699 0.35675-1.2464 0-3.5133-0.11675-5.2725-0.35675 0.67902-0.0441 1.1867-0.0934 1.5891-0.15049l-0.21422-1.3388c-4.7415-0.42551-8.4326-1.501-11.321-2.8281v3.7453l-3.93 1.6112c2.9095 1.5126 6.2592 2.7464 10.131 3.7427l-0.45831 1.5684c2.2175 0.64864 5.7606 1.3142 9.4764 1.3142 3.7145 0 7.255-0.66552 9.4725-1.3142l-0.45701-1.5684c3.8664-0.99632 7.2238-2.23 10.133-3.7427l-3.9339-1.6112m-63.947-48.907c0.71797-1.0949 1.7229-2.077 3.1173-3.2329-0.91272-0.11675-1.6281-0.41513-2.5226-1.078 1.9085-0.50725 5.9216-1.9511 9.3375-1.3038 1.1217 0.1479 1.7553 0.60584 1.3438 0.864-1.8358 1.2182-4.104 4.0372-5.7529 7.3271-1.4424-1.7968-0.83222-4.1526-0.53361-4.8311-2.8849 1.7397-3.6366 2.5855-4.9894 2.2547m3.1069 0.432s1.545 2.845 2.4421 3.4832c2.7382-2.7425 4.7493-6.7096 9.1869-8.9851-2.1007-3.4547-4.9193-2.8748-5.1284-5.9507 1.349 0.3814 2.6538-0.50854 2.681-2.1198-1.4113-0.77448-1.915 0.76541-2.2954 0.37103-0.31549-0.32432 1.6164-0.38011 1.4333-2.378-1.8631-0.0584-1.5216 1.2908-1.9592 1.1209-0.34925-0.12714 0.52582-1.2363-1.1646-2.2197-0.94907 1.7552 0.34925 2.3027 0.0805 2.5959-0.28693 0.30617-0.7751-1.0145-2.3915-0.45924 0.43883 2.1678 2.5291 1.3323 2.2448 1.9719-0.19864 0.45795-1.6255-0.89254-2.1864 0.77579 0.80366 1.4608 2.2461 1.1157 3.0913 0.50594 0.18176 2.8112 2.0215 3.0461 4.0806 4.9998-5.4841-2.2794-12.157 0.51762-14.678 0.88475 0.3882 0.8666 1.149 1.8071 2.137 2.1496-1.5567 1.4335-1.593 2.2223-2.6109 3.2627 0 0 2.0747 2.2794 5.0362-9e-3m43.221-2.09v1.6502c0.56866-0.68367 1.667-0.54875 1.667-0.54875v2.3728s-0.03765 1.1728-0.45311 1.6748h2.3798c-0.41416-0.50205-0.45311-1.6748-0.45311-1.6748v-2.3728s1.0971-0.13492 1.667 0.54875v-1.6502h-4.8077" fill="#1a1919" fill-rule="evenodd"/>
</svg>
