<svg width="1024" height="768" viewBox="0 0 1024 768" fill="none" xmlns="http://www.w3.org/2000/svg">
<path d="M242.483 420.794C251.175 420.794 259.378 418.223 265.377 413.694C268.682 411.123 271.253 408.062 273.09 404.512C274.926 400.716 275.906 396.554 275.906 392.024C275.906 383.699 273.09 377.21 267.091 372.436C262.194 368.273 255.583 365.702 248.605 363.009C247.87 362.642 247.013 362.397 246.278 362.03C241.259 360.193 236.607 358.357 233.668 356.398C231.71 354.929 230.363 353.337 230.363 350.521C230.485 344.278 236.484 342.074 241.626 342.074C247.135 342.074 253.746 344.89 259.868 349.909L263.296 352.725L275.049 337.422L271.743 334.851C262.684 327.505 252.277 323.71 241.626 323.71C233.424 323.71 225.711 326.403 219.957 331.423C214.08 336.565 210.775 343.421 210.775 351.011C210.775 355.296 211.754 359.336 213.468 362.764C215.182 365.947 217.386 368.641 220.569 371.089C225.956 375.374 232.567 378.067 239.545 380.638C239.912 380.761 240.402 380.883 240.892 381.128C245.911 382.965 250.196 384.678 252.889 386.637C255.338 388.351 256.195 390.31 256.195 393.248C256.195 395.942 255.216 398.023 253.012 399.615C250.686 401.328 246.891 402.308 242.606 402.308C238.933 402.308 235.138 401.451 231.587 399.737C227.914 398.023 224.486 395.33 221.915 392.146L218.732 388.106L206 403.165L208.571 405.981C217.508 415.53 229.628 420.794 242.483 420.794Z" fill="#23063C"/>
<path d="M355.1 373.204C353.392 369.202 350.829 365.443 347.656 362.29C344.483 359.137 340.821 356.591 336.672 354.893C332.278 353.074 327.763 352.104 323.125 352.104C318.365 352.104 313.85 353.074 309.578 354.893C305.428 356.591 301.645 359.137 298.472 362.29C295.299 365.443 292.736 369.081 291.027 373.204C289.197 377.569 288.342 382.056 288.342 386.664V438.321L306.649 444.384V417.1C307.503 417.707 308.48 418.07 309.578 418.556C313.85 420.374 318.365 421.223 323.125 421.223C327.763 421.223 332.278 420.374 336.672 418.556C340.699 416.858 344.483 414.311 347.656 411.159C350.829 408.006 353.392 404.247 355.1 400.124C356.931 395.88 357.907 391.393 357.907 386.664C357.907 382.056 356.931 377.569 355.1 373.204ZM323.125 403.034C313.972 403.034 306.649 395.758 306.649 386.664C306.649 377.69 313.972 370.293 323.125 370.293C332.156 370.293 339.601 377.69 339.601 386.664C339.601 395.758 332.156 403.034 323.125 403.034Z" fill="#23063C"/>
<path d="M400.582 421.03C408.662 421.03 416.375 417.847 422.129 412.093C428.005 406.339 431.188 398.626 431.188 390.424V352.104H412.824V390.424C412.824 397.279 407.315 402.666 400.582 402.666C393.726 402.666 388.339 397.279 388.339 390.424V352.104H369.975V390.424C369.975 398.626 373.158 406.339 378.912 412.093C384.666 417.847 392.379 421.03 400.582 421.03Z" fill="#23063C"/>
<path d="M443.799 420.959H471.682C483.718 420.959 493.489 411.157 493.489 399.083C493.489 387.01 483.718 377.088 471.682 377.088H466.678C465.01 377.088 463.58 375.773 463.58 373.98C463.58 372.306 465.01 370.872 466.678 370.872H491.582V352.104H466.678C454.643 352.104 444.872 361.906 444.872 373.98C444.872 386.053 454.643 395.856 466.678 395.856H471.682C473.351 395.856 474.781 397.29 474.781 399.083C474.781 400.757 473.47 402.191 471.682 402.191H443.799V420.959Z" fill="#23063C"/>
<path d="M558.689 363.034C552.813 357.157 544.977 353.852 536.652 353.852C532.245 353.852 527.96 354.831 524.043 356.545V323L505.679 329.121V382.255C505.556 383.112 505.556 384.091 505.556 384.948H505.679V421.676H524.043V383.231C524.9 376.987 530.286 372.212 536.652 372.212C543.753 372.212 549.385 377.966 549.385 384.945V421.673H567.749V384.945C567.749 376.742 564.566 368.907 558.689 363.03V363.034Z" fill="#23063C"/>
<path d="M599.692 373.045V421.669H610.087H620.482V406.394V391.118L629.683 390.896C637.335 390.718 639.37 390.541 642.068 389.741C653.127 386.5 661.576 378.684 665.203 368.382C667.724 361.233 667.768 354.483 665.336 347.067C662.46 338.408 654.764 330.459 645.696 326.774C640.255 324.598 638.441 324.42 618.403 324.42H599.692V373.045ZM634.593 345.291C638.176 345.913 641.095 347.423 643.218 349.732C645.519 352.263 646.271 354.305 646.315 357.725C646.315 360.078 646.094 361.055 645.032 363.009C643.44 365.94 640.786 368.16 637.556 369.27C635.522 370.025 633.929 370.158 627.781 370.158H620.482V357.503V344.847H626.144C629.24 344.847 633.045 345.069 634.593 345.291Z" fill="#0ABF56"/>
<path fill-rule="evenodd" clip-rule="evenodd" d="M677.752 373.342C679.466 369.302 682.037 365.507 685.22 362.324C688.403 359.141 692.076 356.57 696.238 354.856C700.646 353.019 705.175 352.04 709.828 352.04C714.602 352.04 719.132 353.019 723.417 354.856C727.579 356.57 731.375 359.141 734.558 362.324C737.741 365.507 740.312 369.18 742.026 373.342C743.862 377.75 744.719 382.279 744.719 386.932V421.823H726.355V417.661C725.498 418.273 724.519 418.64 723.417 419.13C719.132 420.966 714.602 421.823 709.828 421.823C705.175 421.823 700.646 420.966 696.238 419.13C692.198 417.416 688.403 414.845 685.22 411.662C682.037 408.479 679.466 404.684 677.752 400.521C675.915 396.236 674.936 391.706 674.936 386.932C674.936 382.279 675.915 377.75 677.752 373.342ZM726.355 386.932C726.355 396.114 719.01 403.459 709.828 403.459C700.768 403.459 693.3 396.114 693.3 386.932C693.3 377.872 700.768 370.404 709.828 370.404C719.01 370.404 726.355 377.872 726.355 386.932Z" fill="#0ABF56"/>
<path d="M818 390.385V352.065H799.636V390.385C799.636 397.24 794.127 402.627 787.393 402.627C780.537 402.627 775.151 397.24 775.151 390.385V352.065H756.787V390.385C756.787 398.587 759.97 406.3 765.724 412.054C771.478 417.808 779.191 420.991 787.393 420.991C791.495 420.991 795.501 420.171 799.205 418.611C798.673 419.904 797.871 421.018 796.716 422.212C794.763 424.253 792.635 425.382 789.682 426.033L787.511 426.51V435.802V445.094L790.03 444.834C794.328 444.4 797.585 443.444 801.84 441.317C805.27 439.667 806.573 438.668 809.656 435.585C812.437 432.812 818 425.535 818 418.611V390.385Z" fill="#0ABF56"/>
</svg>
