<?xml version="1.0" encoding="UTF-8" standalone="no"?>
<svg
   xmlns:dc="http://purl.org/dc/elements/1.1/"
   xmlns:cc="http://creativecommons.org/ns#"
   xmlns:rdf="http://www.w3.org/1999/02/22-rdf-syntax-ns#"
   xmlns:svg="http://www.w3.org/2000/svg"
   xmlns="http://www.w3.org/2000/svg"
   xmlns:sodipodi="http://sodipodi.sourceforge.net/DTD/sodipodi-0.dtd"
   xmlns:inkscape="http://www.inkscape.org/namespaces/inkscape"
   width="261.92001"
   height="224.52507"
   viewBox="0 0 261.92001 224.52507"
   version="1.1"
   id="svg25"
   sodipodi:docname="logo.svg"
   style="fill:none"
   inkscape:version="0.92.5 (2060ec1f9f, 2020-04-08)">
  <metadata
     id="metadata29">
    <rdf:RDF>
      <cc:Work
         rdf:about="">
        <dc:format>image/svg+xml</dc:format>
        <dc:type
           rdf:resource="http://purl.org/dc/dcmitype/StillImage" />
      </cc:Work>
    </rdf:RDF>
  </metadata>
  <sodipodi:namedview
     pagecolor="#ffffff"
     bordercolor="#666666"
     borderopacity="1"
     objecttolerance="10"
     gridtolerance="10"
     guidetolerance="10"
     inkscape:pageopacity="0"
     inkscape:pageshadow="2"
     inkscape:window-width="1920"
     inkscape:window-height="1009"
     id="namedview27"
     showgrid="false"
     inkscape:zoom="0.76787377"
     inkscape:cx="254.82418"
     inkscape:cy="106.42098"
     inkscape:window-x="0"
     inkscape:window-y="0"
     inkscape:window-maximized="1"
     inkscape:current-layer="svg25" />
  <g
     clip-path="url(#clip0)"
     id="g18"
     transform="translate(0,-0.2319335)">
    <path
       d="m 197.648,68.8237 c -4.833,-2.8481 -11.115,-2.8481 -16.43,0 L 143.524,90.6592 117.912,104.9 80.219,126.735 c -4.8325,2.848 -11.1147,2.848 -16.4304,0 L 33.8273,109.646 c -4.8325,-2.848 -8.2152,-8.069 -8.2152,-13.7653 V 62.1781 c 0,-5.6962 2.8995,-10.9177 8.2152,-13.7658 l 29.478,-16.6139 c 4.8325,-2.8481 11.1147,-2.8481 16.4304,0 l 29.4783,16.6139 c 4.832,2.8481 8.215,8.0696 8.215,13.7658 V 84.0136 L 143.041,69.2984 V 47.463 c 0,-5.6963 -2.899,-10.9178 -8.215,-13.7659 L 80.219,2.36801 c -4.8325,-2.848102 -11.1147,-2.848102 -16.4304,0 L 8.2152,33.6971 C 2.89948,36.5452 0,41.7667 0,47.463 v 63.133 c 0,5.696 2.89948,10.918 8.2152,13.766 l 55.5734,31.329 c 4.8324,2.848 11.1147,2.848 16.4304,0 l 37.693,-21.361 25.612,-14.715 37.694,-21.3609 c 4.832,-2.8481 11.114,-2.8481 16.43,0 l 29.478,16.6139 c 4.832,2.848 8.215,8.07 8.215,13.766 v 33.702 c 0,5.697 -2.899,10.918 -8.215,13.766 l -29.478,17.089 c -4.833,2.848 -11.115,2.848 -16.43,0 L 151.74,176.577 c -4.833,-2.848 -8.216,-8.07 -8.216,-13.766 v -21.835 l -25.612,14.715 v 21.835 c 0,5.696 2.9,10.918 8.215,13.766 l 55.574,31.329 c 4.832,2.848 11.114,2.848 16.43,0 l 55.574,-31.329 c 4.832,-2.848 8.215,-8.07 8.215,-13.766 v -63.133 c 0,-5.696 -2.9,-10.917 -8.215,-13.765 z"
       id="path16"
       inkscape:connector-curvature="0"
       style="fill:#8247e5" />
  </g>
  <defs
     id="defs23">
    <clipPath
       id="clip0">
      <rect
         width="1024"
         height="225"
         id="rect20"
         x="0"
         y="0"
         style="fill:#ffffff" />
    </clipPath>
  </defs>
</svg>
