<svg xmlns="http://www.w3.org/2000/svg" width="328" height="94" viewBox="0 0 328.3 94.5"><path d="M305.9 20.5c.4.4.7.8 1.1 1.3l.9 1.1c.4.4.8.9 1.1 1.3s.7.8 1 1.2l1.2 1.5 1.1 1.4 1.1 1.2.9 1.1 1.3 1.5c.4.4.7.9 1.1 1.3.3.4.7.7 1 1.1.2.2.3.4.5.6.2.3.5.5.7.8.2.2.4.5.6.7s.5.5.6.8c.3.4.7.7 1 1.2.2.3.5.5.7.8l1.3 1.6c.2.3.5.5.7.8l.9 1.1c.2.3.5.5.7.8l.9 1.2c.3.4.7.8 1.1 1.2.3.3.5.6.7.9.3.3.2.6-.1.9l-1.3 1.5c-.3.4-.7.8-1 1.1-.4.4-.7.9-1.1 1.3-.3.4-.7.8-1 1.2-.4.4-.7.9-1 1.3s-.7.8-1 1.2c-.2.3-.5.6-.7.9l-.9 1.1c-.3.3-.5.6-.8.9l-1.3 1.5c-.3.4-.7.8-1 1.2-.4.4-.8.9-1.1 1.3-.2.3-.5.6-.7.9-.3.4-.7.8-1 1.2s-.7.8-1 1.2c-.5.5-.9 1.1-1.4 1.6l-1.5 1.8c-.4.4-.8.9-1.1 1.3s-.6.8-1 1.2c-.3.4-.7.8-1 1.2s-.7.8-1 1.2c0 0-.1 0-.2.1V20.7c-.1-.2 0-.2 0-.2z" fill="#7fb642"/><path d="M0 21.1h10.2v5.3c.3-.3.6-.6.9-.8 1.4-1.4 3-2.5 4.7-3.4 1.7-.8 3.6-1.4 5.5-1.6 2.5-.3 5-.1 7.5.5 1.5.4 3 .8 4.4 1.5 1.8.8 3.3 2 4.6 3.6 1.6 1.9 2.7 4 3.4 6.4a52.28 52.28 0 0 1 1.2 5.4l.5 4.2.2 6.7c0 2-.2 4-.4 6-.2 2.9-.8 5.6-1.7 8.3-1 2.9-2.5 5.5-4.8 7.6-1.4 1.3-3.1 2.1-5 2.6a25.39 25.39 0 0 1-5.4.9c-2.8.2-5.5.2-8.2-.8-1.9-.7-3.7-1.8-5.2-3.2-.5-.5-1.1-.9-1.6-1.5v25.7H.2L0 21.1zm32.1 26.2c.2-2.3 0-4.7-.5-6.9-.4-2.1-1.1-4.1-2.2-5.9-1.2-1.9-2.8-3.3-4.9-4-1.6-.6-3.2-.5-4.8-.3-3.1.5-5.3 2.2-6.8 4.9-1.8 3.2-2.3 6.7-2.4 10.2-.1 2 .1 4 .2 6 .1 1.3.3 2.7.5 4 .5 2.3 1.3 4.5 2.8 6.4 1.5 2 3.6 3 6 3.2 1.3.1 2.6 0 3.9-.2 2.7-.4 4.6-1.9 5.9-4.3 1.5-2.7 1.9-5.8 2.2-8.8.2-1.4.1-2.9.1-4.3zm49.3 26.4v-4.5l-2.2 1.6c-1.5 1-3 2-4.7 2.4a26.29 26.29 0 0 1-3.9.6c-1.8.2-3.6.3-5.4.3-2.5 0-4.9-.5-7.3-1.5-2-.9-3.8-2.1-5.2-3.8-1.5-1.7-2.4-3.7-2.9-5.9l-.5-3.4c-.3-2.2 0-4.4.7-6.5 1-3.1 3-5.4 5.7-7.1 2.2-1.4 4.6-2.3 7.2-2.6l3-.2 15.2-.1v-4.3c-.1-1-.2-2.1-.5-3.1-.7-2.5-2.4-4-4.8-4.9-1.6-.6-3.3-.8-5-1-2.3-.3-4.5 0-6.6.8-1.5.5-2.9 1.3-4.1 2.4-.5.5-1 .9-1.5 1.5-.3.3-.5.2-.7 0-.5-.4-.9-.9-1.4-1.3l-3.7-3.5-1.2-1.1c-.2-.2-.3-.3-.1-.6 1.8-2.4 4.2-4 7-5.2 2-.9 4.2-1.4 6.4-1.8.9-.2 1.7-.2 2.6-.2 1-.1 2-.1 3-.1 2.3 0 4.6.3 6.9.6 2.3.4 4.4 1 6.4 2.1 3.3 1.8 5.7 4.4 7 7.9.7 1.9 1 3.8 1 5.7v36.9c-3.5-.1-6.9-.1-10.4-.1zm-.2-23.2H68.8c-2 0-3.9.4-5.6 1.4-1.5.9-2.6 2-3.2 3.7-.5 1.5-.4 3-.1 4.5.2 1.2.8 2.2 1.6 3 1.4 1.3 3.2 1.8 5 2 1 .1 2 .1 3 .2 1.3.2 2.6 0 3.9-.2 1.9-.3 3.6-1 5.1-2.3 1-.9 1.9-1.9 2.2-3.2s.4-2.6.5-3.9v-5.2zm178.4.3l.8 4.6c.7 2.7 1.9 5.2 4.1 7.1 1.3 1.1 2.9 1.8 4.6 2.2 1.5.3 3.1.6 4.6.5 3.6-.1 6.9-1.2 9.7-3.4.9-.7 1.7-1.4 2.6-2.1l3.3 3.3c1 1 2 1.9 3 2.9.2.2.2.4 0 .6-1.4 1.7-3.1 3.1-4.9 4.2-2.1 1.3-4.4 2.1-6.8 2.7-1.2.3-2.5.5-3.8.6-2.1.2-4.1.3-6.2.2-3-.1-6-.7-8.8-1.9-2.6-1.2-4.8-2.8-6.6-4.9-2.1-2.4-3.5-5.1-4.4-8.2-.6-1.8-1.1-3.7-1.2-5.6-.1-1.6-.3-3.2-.3-4.8-.1-1.5-.1-2.9 0-4.4.2-2.6.5-5.1 1.3-7.6.5-1.7 1.1-3.4 1.9-5.1.7-1.6 1.7-3.1 2.9-4.4 2.1-2.4 4.6-4.2 7.6-5.3 1.7-.6 3.4-1.1 5.2-1.2s3.6-.3 5.4-.2c4.1.2 7.9 1.3 11.3 3.6 1.7 1.2 3.2 2.7 4.4 4.5 2 2.8 3.2 5.9 3.9 9.2.3 1.5.5 2.9.7 4.4.1 1.1.2 2.2.2 3.3 0 .6.1 1.2.1 1.9 0 1.1-.1 2.1-.2 3.2l-34.4.1zm.2-7.9h23.4c-.1-.9-.1-1.8-.3-2.7-.3-1.4-.7-2.8-1.2-4.1-.9-2.2-2.3-4.1-4.5-5.3-3.1-1.7-6.4-1.9-9.7-.9s-5.4 3.4-6.6 6.6c-.4 1.2-.7 2.5-1 3.7 0 .9 0 1.8-.1 2.7zM132.4 21.1H144c0 .2 0 .3-.1.5l-3 8.2-2.3 6.1-3.7 10-2.7 7.2-3.7 10-2.8 7.5-3.4 9-3.1 7.7c-1.6 3.4-4.4 5.7-8.1 6.6-1 .2-2 .3-3 .4-1.4.1-2.8 0-4.2 0h-4.8v-9.6h6.4c2.7-.1 5.1-1.6 6-4.2 1.1-2.9 2.1-5.9 3.1-8.9.2-.6-.2-1-.3-1.5l-2.4-6.7-3.4-9.3-8.1-21.9L96.7 22c-.1-.1-.1-.3-.2-.5h10.9c.3 0 .4.2.4.4l1.8 5.4 3.8 11.1L117 49l3 8.7c0 .1.1.2.2.3l12.2-36.9zm99.8 52.5v-33c0-2.7-.8-5.2-2.6-7.4-1.5-1.9-3.6-2.9-5.9-3.1-1.1-.1-2.2-.2-3.3-.1-2.9.3-5.4 1.4-7.1 3.9-1.2 1.7-1.8 3.6-2.1 5.7-.1.7-.1 1.4-.1 2.1v31.8h-10.8V21h10.3v5.3l2-1.7c2.4-1.8 5-3 8-3.6 2-.4 4-.5 6-.4 2.3.1 4.6.6 6.7 1.6s3.9 2.4 5.5 4.1c1.6 1.9 2.8 4.1 3.4 6.6.5 2 .7 4 .7 6l.1 10.5.1 19.2v5h-10.9zM148.1.1h11V59c0 1.6.4 3.2 1.6 4.4.7.7 1.6 1.1 2.6 1.1l4.7.1c.4 0 .9 0 1.3-.1v9.1H161c-2.9-.1-5.5-1-7.7-2.8-2.7-2.1-4.2-5-4.8-8.3-.3-1.6-.4-3.3-.4-4.9V.1zM176.9 21h10.5v52.5h-10.5V21zm10.6-10.1H177V0h10.5v10.9z" fill="#31393c"/></svg>