<svg xmlns="http://www.w3.org/2000/svg" width="2048" height="1792"><rect id="backgroundrect" width="100%" height="100%" x="0" y="0" fill="none" stroke="none"/><g class="currentLayer"><title>Layer 1</title><path d="M960 0l960 384v128h-128q0 26-20.5 45t-48.5 19h-1526q-28 0-48.5-19t-20.5-45h-128v-128zm-704 640h256v768h128v-768h256v768h128v-768h256v768h128v-768h256v768h59q28 0 48.5 19t20.5 45v64h-1664v-64q0-26 20.5-45t48.5-19h59v-768zm1595 960q28 0 48.5 19t20.5 45v128h-1920v-128q0-26 20.5-45t48.5-19h1782z" id="svg_1" class="selected" fill="#c0ccda" fill-opacity="1"/></g></svg>