<?xml version="1.0" encoding="UTF-8"?>
<svg width="20" height="20" fill="none" version="1.1" viewBox="0 0 20.000025 20.000025" xmlns="http://www.w3.org/2000/svg" xmlns:cc="http://creativecommons.org/ns#" xmlns:dc="http://purl.org/dc/elements/1.1/" xmlns:rdf="http://www.w3.org/1999/02/22-rdf-syntax-ns#">
<metadata>
<rdf:RDF>
<cc:Work rdf:about="">
<dc:format>image/svg+xml</dc:format>
<dc:type rdf:resource="http://purl.org/dc/dcmitype/StillImage"/>
<dc:title/>
</cc:Work>
</rdf:RDF>
</metadata>
<path d="m0.54262 4.9656c-0.7235-0.72349-0.7235-1.8965 0-2.62l1.803-1.803c0.7235-0.72349 1.8965-0.72349 2.62 0l3.4918 3.4917c0.34743 0.34743 0.54257 0.81866 0.54257 1.31v1.803c0 1.0231-0.82942 1.8526-1.8526 1.8526h-1.803c-0.49135 0-0.96257-0.1952-1.31-0.54263z" clip-rule="evenodd" fill="url(#d)" fill-rule="evenodd"/>
<path d="m15.034 0.54262c0.7236-0.7235 1.8966-0.7235 2.62 0l1.8031 1.803c0.7235 0.7235 0.7235 1.8965 0 2.62l-3.4917 3.4918c-0.3475 0.34743-0.8187 0.54257-1.3101 0.54257h-1.803c-1.0232 0-1.8526-0.82942-1.8526-1.8526v-1.803c0-0.49135 0.1952-0.96257 0.5426-1.31z" clip-rule="evenodd" fill="url(#c)" fill-rule="evenodd"/>
<path d="m4.9657 19.457c-0.7235 0.7235-1.8965 0.7235-2.62 0l-1.803-1.8031c-0.72349-0.7234-0.72349-1.8964 6e-6 -2.62l3.4917-3.4917c0.34743-0.3474 0.81866-0.5426 1.31-0.5426h1.803c1.0232 0 1.8526 0.8294 1.8526 1.8526v1.8031c0 0.4913-0.1952 0.9625-0.54263 1.31z" clip-rule="evenodd" fill="url(#b)" fill-rule="evenodd"/>
<path d="m19.457 15.034c0.7235 0.7236 0.7235 1.8966 0 2.6201l-1.803 1.803c-0.7235 0.7235-1.8965 0.7235-2.6201 0l-3.4917-3.4917c-0.3474-0.3475-0.5426-0.8187-0.5426-1.31v-1.8031c0-1.0232 0.8295-1.8526 1.8526-1.8526h1.8031c0.4913 0 0.9625 0.1952 1.31 0.5426z" clip-rule="evenodd" fill="url(#a)" fill-rule="evenodd"/>
<defs>
<linearGradient id="d" x1="-2.3338" x2="5.2221" y1="5.2221" y2="12.778" gradientUnits="userSpaceOnUse">
<stop offset="0"/>
<stop stop-color="#646464" offset="1"/>
</linearGradient>
<linearGradient id="c" x1="14.778" x2="7.2221" y1="-2.3338" y2="5.2221" gradientUnits="userSpaceOnUse">
<stop stop-color="#CFEA06" offset="0"/>
<stop stop-color="#BAD10C" offset="1"/>
</linearGradient>
<linearGradient id="b" x1="5.2221" x2="12.778" y1="22.334" y2="14.778" gradientUnits="userSpaceOnUse">
<stop offset="0"/>
<stop stop-color="#646464" offset="1"/>
</linearGradient>
<linearGradient id="a" x1="22.334" x2="14.778" y1="14.778" y2="7.2221" gradientUnits="userSpaceOnUse">
<stop offset="0"/>
<stop stop-color="#646464" offset="1"/>
</linearGradient>
</defs>
</svg>
