<svg xmlns="http://www.w3.org/2000/svg" xmlns:xlink="http://www.w3.org/1999/xlink" width="169.1" height="207.32" fill-rule="evenodd" stroke-linejoin="round" stroke-miterlimit="2" xmlns:v="https://vecta.io/nano"><style><![CDATA[.B{fill-rule:nonzero}]]></style><path d="M168.98 146.34h-14.9L91.94 38.71l7.45-12.91zM91.93 12.9l-7.45 12.9-7.45-12.89L84.49 0z" fill="#a71916" class="B"/><path d="M69.58 51.61l54.7 94.73h14.89L77.03 38.71l-7.45-12.9-7.44 12.9-54.69 94.73L0 146.34h109.45l-39.82-69-7.45 12.91 24.93 43.19H22.34z" fill="#d89b29" class="B"/><g fill="#a71a17" class="B"><path d="M.22 196.49h5.3l.01.01v1.01l-.01.01H1.24v3.81h3.61l.01.01v1.01l-.01.01H1.24v4.83l-.01.01H.22l-.01-.01zm6.93 0h1.01l.01.01v10.68l-.01.01H7.15l-.01-.01zm3.55 0h1.26c.04.04 1.34 2.16 3.91 6.37l1.65 2.71h.01v-9.06l.02-.02h.99l.02.02v10.65l-.02.02h-1.21c-.07-.08-.25-.37-.55-.88l-3.91-6.39-1.12-1.81v9.06l-.02.02H10.7l-.02-.02v-10.65z"/><use xlink:href="#B"/><path d="M30.95 196.49h1.26c.04.04 1.34 2.16 3.91 6.37l1.65 2.71h.01v-9.06l.02-.02h.99l.02.02v10.65l-.02.02h-1.21c-.07-.08-.25-.37-.55-.88l-3.91-6.39L32 198.1v9.06l-.02.02h-1.03l-.02-.02v-10.65zm14.64 0h.09c1.24 0 2.35.5 3.35 1.51.44.52.72.92.83 1.2l-.91.45a4.94 4.94 0 0 0-.5-.76c-.81-.92-1.75-1.38-2.8-1.38h-.04c-1.1 0-2.06.49-2.87 1.47-.63.85-.95 1.79-.95 2.81v.07c0 1.19.41 2.23 1.23 3.14.76.76 1.64 1.15 2.62 1.15 1.08 0 2.02-.48 2.84-1.42.2-.27.36-.52.48-.75l.9.47c-.11.29-.41.72-.88 1.27-.98.97-2.1 1.45-3.36 1.45-1.34 0-2.52-.56-3.54-1.68-.87-1.09-1.31-2.3-1.31-3.63v-.07c0-1.47.51-2.75 1.53-3.86.98-.96 2.08-1.44 3.29-1.44zm6.02 0h1.01l.01.01v10.68l-.01.01h-1.01l-.01-.01z"/><use xlink:href="#B" x="34.07"/><path d="M65.01 196.49h1.01l.01.01v9.66h4.58v1.02h-5.59l-.01-.01zm10.7 0h1.01l.01.01v10.68l-.01.01h-1.01l-.01-.01z"/><use xlink:href="#C"/><use xlink:href="#C" x="10.38"/><path d="M104.39 196.49h.04c1.24 0 2.36.47 3.34 1.42.37.39.62.71.74.93a5.55 5.55 0 0 1 .84 2.96v.06c0 1.47-.52 2.76-1.56 3.87-.99.96-2.12 1.45-3.4 1.45-1.25 0-2.36-.47-3.35-1.42-.44-.48-.71-.83-.8-1.04-.52-.89-.78-1.83-.78-2.83v-.1c0-1.3.43-2.49 1.29-3.56l.75-.72c.9-.68 1.87-1.02 2.89-1.02zm-3.9 5.31v.07c0 1.18.42 2.23 1.26 3.15.78.76 1.67 1.14 2.67 1.14 1.16 0 2.16-.52 3-1.55.61-.84.91-1.76.91-2.75v-.06c0-1.19-.42-2.24-1.26-3.15-.78-.76-1.67-1.14-2.67-1.14-1.11 0-2.07.47-2.89 1.41-.68.86-1.02 1.82-1.02 2.88zm10.91-5.31l.45 1.12 3.16 8.1h.01l2.66-6.84.93-2.37.01-.01h1.12l.02.01h.01l-4.18 10.55-.07.12h-1.03c-.02 0-.23-.54-.65-1.63l-3.58-9.06.01-.01h1.13z"/><use xlink:href="#B" x="100.19"/><path d="M129.98 196.49h6.74l.01.01v1.01l-.01.01h-2.86v9.66l-.01.01h-1.01l-.01-.01v-9.66h-2.86l-.01-.01zm8.12 0h1.01l.01.01v10.68l-.01.01h-1.01l-.01-.01zm7.92 0h.04c1.24 0 2.36.47 3.34 1.42.37.39.62.71.74.93a5.55 5.55 0 0 1 .84 2.96v.06c0 1.47-.52 2.76-1.56 3.87-.99.96-2.12 1.45-3.4 1.45-1.25 0-2.36-.47-3.35-1.42-.44-.48-.71-.83-.8-1.04-.52-.89-.78-1.83-.78-2.83v-.1c0-1.3.43-2.49 1.29-3.56l.75-.72c.9-.68 1.86-1.02 2.89-1.02zm-3.9 5.31v.07c0 1.18.42 2.23 1.26 3.15.78.76 1.67 1.14 2.67 1.14 1.16 0 2.16-.52 3-1.55.61-.84.91-1.76.91-2.75v-.06c0-1.19-.42-2.24-1.26-3.15-.78-.76-1.67-1.14-2.67-1.14-1.11 0-2.07.47-2.89 1.41-.68.86-1.02 1.82-1.02 2.88z"/><use xlink:href="#C" x="73.66"/><path d="M165.87 196.36h.12c.5 0 .99.13 1.48.39a4.96 4.96 0 0 1 .5.34l.32.3c.19.21.32.39.39.52.07.1.12.2.16.29v.01l-.93.42c-.06-.15-.19-.33-.38-.54-.45-.47-.98-.71-1.59-.71h-.01c-.6 0-1.1.18-1.5.54-.15.15-.25.26-.3.35-.21.34-.31.7-.31 1.1 0 .42.12.74.37.97.19.18.4.32.66.43.44.21 1.13.43 2.09.65.25.07.46.15.63.24.21.1.42.25.64.44l.33.36c.09.12.16.22.2.32.23.44.35.89.35 1.36v.02l.01.03-.01.03v.02a3.17 3.17 0 0 1-.4 1.52 2.97 2.97 0 0 1-1.57 1.34 3.46 3.46 0 0 1-1.19.22h-.12c-.48 0-.97-.12-1.47-.36-.16-.08-.33-.19-.52-.33a3.66 3.66 0 0 1-.73-.74c-.16-.22-.28-.43-.39-.63l-.13-.29c.02-.01.33-.14.94-.39.1.24.22.46.37.66.05.08.16.21.32.37.2.19.37.32.51.39a2.39 2.39 0 0 0 1.15.31h.04c.47 0 .92-.14 1.33-.42.09-.06.2-.15.33-.29.19-.22.33-.47.42-.75a2.14 2.14 0 0 0 .1-.65v-.02c0-.51-.17-.94-.52-1.3-.18-.16-.32-.26-.43-.3a1.37 1.37 0 0 0-.31-.13l-.75-.2c-.81-.21-1.42-.43-1.85-.66-.94-.5-1.41-1.23-1.41-2.2v-.06c0-.61.18-1.19.55-1.72.06-.09.16-.21.32-.38.18-.17.33-.29.46-.37a2.45 2.45 0 0 1 .69-.33c.34-.12.7-.17 1.04-.17z"/></g><path d="M31.19 172.47H18.67l-.07.07v3.05l.07.07h9.13l-.38 1.66c-.43 1.35-.87 2.34-1.3 2.98-.31.74-1.09 1.77-2.34 3.05-2.37 2.18-5.04 3.29-8 3.29-3.5 0-6.55-1.51-9.13-4.52-2.08-2.65-3.1-5.61-3.1-8.85v-.23c0-3.24 1.02-6.2 3.1-8.88 2.6-3 5.63-4.49 9.04-4.49h.17c3.13 0 5.92 1.25 8.38 3.76 1.16 1.32 1.91 2.39 2.23 3.22h.02c.1 0 1.06-.47 2.86-1.4l-.12-.29c-.59-1.18-1.49-2.42-2.68-3.76-3.13-3.15-6.69-4.73-10.62-4.73h-.26c-2.63 0-5.16.74-7.59 2.22-.9.5-2.01 1.42-3.31 2.77-2.94 3.38-4.42 7.24-4.42 11.59v.26c0 2.93.73 5.75 2.2 8.45.57 1.09 1.47 2.3 2.74 3.65 3.07 2.94 6.56 4.42 10.48 4.42 3.19 0 6.17-1.02 8.94-3.07 2.81-2.2 4.76-5.13 5.87-8.8.45-1.89.68-3.69.68-5.42zm10.34 14.17V156.5l-.02-.03h-3.15l-.02.03v33.29l.02.03h14.05v-3.19H41.53zm45.86-22.81c-.36-.71-1.14-1.68-2.29-2.91-3.08-2.96-6.56-4.45-10.44-4.45h-.14c-3.2 0-6.2 1.06-8.99 3.17-.47.35-1.25 1.07-2.32 2.23-2.68 3.36-4.04 7.07-4.04 11.12v.31c0 3.13.81 6.08 2.44 8.85.29.68 1.13 1.77 2.49 3.26 3.08 2.94 6.58 4.42 10.46 4.42 3.98 0 7.52-1.51 10.6-4.52 3.22-3.46 4.85-7.48 4.85-12.07v-.17c.01-3.32-.87-6.4-2.62-9.24zm-.55 9.4c0 3.08-.95 5.94-2.86 8.57-2.62 3.22-5.73 4.83-9.35 4.83-3.1 0-5.87-1.2-8.31-3.57-2.63-2.84-3.95-6.11-3.95-9.8v-.23c0-3.31 1.06-6.29 3.19-8.99 2.56-2.93 5.58-4.38 9.02-4.38 3.1 0 5.87 1.18 8.31 3.55 2.63 2.84 3.95 6.13 3.95 9.84zm28.66 1.4c-.97-1.25-1.96-2.1-2.94-2.53v-.03c2.22-1.8 3.33-4.07 3.33-6.81v-.59c0-1.75-.47-3.29-1.44-4.64-1.87-2.37-4.43-3.57-7.67-3.57H96.77l-.07.07v33.22l.07.07h3.2l8.23-.03c.92 0 2.13-.28 3.62-.87 3.41-1.71 5.13-4.49 5.13-8.35v-1.07c-.01-1.91-.5-3.52-1.45-4.87zm-15.62-14.96h6.95a7.65 7.65 0 0 1 2.1.29c2.51.81 3.78 2.37 3.78 4.69v.59c0 .97-.21 1.84-.61 2.6-1.21 1.97-3.07 2.96-5.54 2.96h-6.67v-11.13zm13.87 20.87c0 2.29-.85 3.97-2.53 5.06-1.18.68-2.25 1-3.24 1l-7.86.03h-.24v-12.64h7.29a9.06 9.06 0 0 1 2.49.33c2.72.87 4.09 2.58 4.09 5.11zm35.75 8.5l-12-30.85-.73-1.73h-3.31l-13.01 33.32h.03l.03.03h3.31c.07-.1.31-.66.71-1.71l2.41-6.13h16.26c.09.09.45.97 1.13 2.67l2.03 5.18h3.41l.05-.03zm-21.32-10.27l6.91-17.75h.02l6.93 17.75zm30.06 7.87V156.5l-.02-.03h-3.15l-.02.03v33.29l.02.03h14.03v-3.19h-10.86z" fill="#20090a" class="B"/><defs ><path id="B" d="M25.29 196.49c.02 0 .1.18.23.55l3.85 9.89.1.24-.01.01h-1.1c-.03-.03-.25-.59-.65-1.66l-.36-.85h-5.21c-.02.03-.28.69-.77 1.96l-.23.55h-1.06l-.01-.01h-.01l4.17-10.68zm-.54 1.46l-2.21 5.69h4.44z"/><path id="C" d="M79.26 196.49h1.26c.04.04 1.34 2.16 3.91 6.37l1.65 2.71h.01v-9.06l.02-.02h.99l.02.02v10.65l-.02.02h-1.21c-.07-.08-.25-.37-.55-.88l-3.91-6.39-1.12-1.81v9.06l-.02.02h-1.03l-.02-.02v-10.65z"/></defs></svg>