<?xml version="1.0" encoding="UTF-8"?>
<svg width="614.6" height="526.54" version="1.1" viewBox="0 0 122.92128 105.21466" xmlns="http://www.w3.org/2000/svg" xmlns:cc="http://creativecommons.org/ns#" xmlns:dc="http://purl.org/dc/elements/1.1/" xmlns:rdf="http://www.w3.org/1999/02/22-rdf-syntax-ns#">
<metadata>
<rdf:RDF>
<cc:Work rdf:about="">
<dc:format>image/svg+xml</dc:format>
<dc:type rdf:resource="http://purl.org/dc/dcmitype/StillImage"/>
<dc:title/>
</cc:Work>
</rdf:RDF>
</metadata>
<path d="m83.47-0.046671h5.547c0.464 0.143 0.957 0.08 1.43 0.163 6.31 0.614 12.565 2.508 17.907 5.97 2.153 1.391 4.115 3.066 5.892 4.91 1.362 1.541 2.665 3.148 3.724 4.917 0.685 1.048 1.214 2.184 1.775 3.3 1.625 3.484 2.596 7.256 2.98 11.075 0.105 0.617 0.057 1.247 0.167 1.864 0.059 0.75 8e-3 1.503 0.023 2.256-0.02 0.869 0.063 1.745-0.083 2.606-0.087 2.225-0.428 4.433-0.843 6.62-0.229 1.304-0.632 2.568-0.891 3.865-2.626 10.512-5.256 21.025-7.884 31.537-0.43 1.948-0.956 3.873-1.425 5.812-0.323 1.244-0.637 2.524-1.36 3.608-0.528 0.85-1.223 1.584-1.986 2.227-1.825 1.457-4.176 2.14-6.49 2.162-0.983-0.088-1.975-0.215-2.912-0.543-0.978-0.385-1.963-0.85-2.675-1.647-1.032-0.91-1.591-2.278-1.676-3.634-0.114-0.852 0.124-1.701 0.334-2.52 1.246-4.983 2.49-9.966 3.738-14.948 0.543-2.104 1.012-4.226 1.553-6.33 1.813-7.257 3.631-14.514 5.443-21.773 0.44-1.777 0.712-3.593 0.84-5.418-0.031-1.406 0.08-2.819-0.102-4.216-0.186-1.748-0.58-3.484-1.265-5.108-0.6-1.577-1.524-3.016-2.635-4.28-0.315-0.477-0.825-0.756-1.206-1.168a4.845 4.845 0 0 0 -0.57 -0.508c-1.172-0.892-2.423-1.707-3.793-2.26-1.191-0.587-2.462-0.999-3.746-1.33-1.777-0.509-3.61-0.838-5.458-0.924-0.825-0.149-1.665-0.056-2.496-0.087-0.655-0.031-1.294 0.142-1.947 0.123a34.801 34.801 0 0 0 -8.95 2.054c-1.902 0.662-3.703 1.568-5.474 2.517-2.108 1.254-4.155 2.635-5.962 4.3-0.624 0.636-1.263 1.258-1.888 1.893-1.218 1.421-2.363 2.943-3.086 4.683-0.78 2.54-1.438 5.117-2.154 7.677-0.87 3.311-1.763 6.615-2.595 9.936-1.004 3.756-1.915 7.538-2.977 11.28-0.48 1.569-0.964 3.138-1.45 4.706-0.222 0.858-0.402 1.742-0.813 2.535-1.292 2.83-4.097 4.855-7.14 5.385-2.073 0.404-4.324 0.125-6.129-1.012-0.525-0.405-1.095-0.78-1.476-1.334-0.8-0.934-1.251-2.124-1.414-3.334-0.023-0.57-0.247-1.16-1e-3 -1.713 2.478-8.123 4.447-16.389 6.614-24.598 1.205-4.63 2.406-9.261 3.755-13.852 0.298-1.124 0.788-2.186 1.322-3.215 1.456-3.052 3.464-5.815 5.716-8.327 0.883-0.88 1.762-1.765 2.647-2.644 1.404-1.195 2.79-2.418 4.315-3.46 0.764-0.629 1.64-1.093 2.45-1.656 3.237-2.053 6.71-3.72 10.313-5.024 0.89-0.296 1.756-0.668 2.667-0.9 1.915-0.567 3.85-1.076 5.817-1.422 1.523-0.319 3.073-0.46 4.613-0.67 0.456-0.052 0.927 0.021 1.37-0.126z" fill="#00579c"/>
<path d="m19.022 15.748c0.54-0.019 1.07-0.146 1.61-0.138 1.408 0.128 2.84 0.336 4.129 0.952 0.881 0.475 1.762 1.037 2.305 1.905 0.78 0.987 0.833 2.338 0.587 3.523-0.695 2.695-1.326 5.41-2.057 8.097-0.809 3.255-1.625 6.509-2.438 9.763-0.605 2.476-1.285 4.932-1.88 7.41-0.704 2.824-1.417 5.644-2.116 8.47-0.607 2.228-1.143 4.476-1.707 6.717-0.638 2.409-1.14 4.873-1.175 7.373-0.12 0.65-0.09 1.31 7e-3 1.96 0.039 2.615 0.627 5.217 1.715 7.595 0.528 0.96 1.048 1.935 1.75 2.783 0.543 0.609 1.035 1.269 1.68 1.777 0.714 0.55 1.38 1.17 2.175 1.608 0.832 0.53 1.717 0.964 2.609 1.384 2.007 0.79 4.087 1.406 6.214 1.775 1.981 0.285 3.99 0.479 5.992 0.319 5.015-0.302 9.944-1.742 14.393-4.067 2.64-1.336 5.059-3.083 7.266-5.045 1.25-1.208 2.447-2.484 3.408-3.939 0.585-0.89 1.214-1.787 1.485-2.832 2.636-9.106 4.868-18.32 7.31-27.476 0.501-1.807 1.106-3.583 1.635-5.382 0.504-1.661 1.287-3.264 2.45-4.566 0.617-0.828 1.468-1.441 2.325-1.999 1.843-1.182 4.098-1.63 6.263-1.423 1.038 0.125 2.077 0.379 3 0.887 1.148 0.537 2.152 1.426 2.74 2.557 0.578 1.066 0.59 2.351 0.334 3.51-1.644 5.477-3.105 11.007-4.516 16.548-1.946 7.455-3.818 14.932-5.964 22.334-0.185 0.67-0.464 1.31-0.76 1.938-0.511 1.232-1.181 2.392-1.87 3.533-1.224 1.998-2.62 3.895-4.22 5.608-0.653 0.819-1.457 1.499-2.174 2.26-1.432 1.309-2.913 2.574-4.486 3.718-2.471 1.828-5.14 3.377-7.888 4.747-1.274 0.57-2.53 1.18-3.839 1.672-1.136 0.493-2.332 0.827-3.494 1.251-1.798 0.583-3.632 1.03-5.474 1.441-0.7 0.138-1.41 0.227-2.107 0.377-1.074 0.192-2.163 0.272-3.239 0.438-0.552 0.099-1.126-0.025-1.665 0.15h-5.547a2.556 2.556 0 0 0 -0.629 -0.102c-0.794-0.015-1.571-0.203-2.363-0.246-2.396-0.325-4.774-0.808-7.075-1.554-2.592-0.75-5.063-1.873-7.433-3.153-1.71-0.978-3.32-2.118-4.849-3.359-0.471-0.428-0.99-0.807-1.423-1.28-0.683-0.719-1.445-1.366-2.062-2.148-4.13-4.69-6.724-10.652-7.582-16.828-0.172-0.978-0.2-1.976-0.372-2.953v-5.662c0.101-0.377 0.092-0.768 0.132-1.151 0.29-2.777 0.704-5.555 1.464-8.247 1.176-4.627 2.287-9.272 3.504-13.888 0.926-3.717 1.856-7.432 2.786-11.148 0.875-3.263 1.648-6.554 2.484-9.827 0.22-0.81 0.346-1.654 0.717-2.413 0.423-0.867 0.874-1.749 1.578-2.424 0.347-0.335 0.672-0.693 1.037-1.009 1.502-1.229 3.403-1.915 5.32-2.121z" fill="#da251c"/>
</svg>
