<?xml version="1.0" encoding="UTF-8"?>
<svg width="2500" height="526.54" version="1.1" viewBox="0 0 500.00498 105.21466" xmlns="http://www.w3.org/2000/svg" xmlns:cc="http://creativecommons.org/ns#" xmlns:dc="http://purl.org/dc/elements/1.1/" xmlns:rdf="http://www.w3.org/1999/02/22-rdf-syntax-ns#">
<metadata>
<rdf:RDF>
<cc:Work rdf:about="">
<dc:format>image/svg+xml</dc:format>
<dc:type rdf:resource="http://purl.org/dc/dcmitype/StillImage"/>
<dc:title/>
</cc:Work>
</rdf:RDF>
</metadata>
<path d="m83.47-0.046671h5.547c0.464 0.143 0.957 0.08 1.43 0.163 6.31 0.614 12.565 2.508 17.907 5.97 2.153 1.391 4.115 3.066 5.892 4.91 1.362 1.541 2.665 3.148 3.724 4.917 0.685 1.048 1.214 2.184 1.775 3.3 1.625 3.484 2.596 7.256 2.98 11.075 0.105 0.617 0.057 1.247 0.167 1.864 0.059 0.75 8e-3 1.503 0.023 2.256-0.02 0.869 0.063 1.745-0.083 2.606-0.087 2.225-0.428 4.433-0.843 6.62-0.229 1.304-0.632 2.568-0.891 3.865-2.626 10.512-5.256 21.025-7.884 31.537-0.43 1.948-0.956 3.873-1.425 5.812-0.323 1.244-0.637 2.524-1.36 3.608-0.528 0.85-1.223 1.584-1.986 2.227-1.825 1.457-4.176 2.14-6.49 2.162-0.983-0.088-1.975-0.215-2.912-0.543-0.978-0.385-1.963-0.85-2.675-1.647-1.032-0.91-1.591-2.278-1.676-3.634-0.114-0.852 0.124-1.701 0.334-2.52 1.246-4.983 2.49-9.966 3.738-14.948 0.543-2.104 1.012-4.226 1.553-6.33 1.813-7.257 3.631-14.514 5.443-21.773 0.44-1.777 0.712-3.593 0.84-5.418-0.031-1.406 0.08-2.819-0.102-4.216-0.186-1.748-0.58-3.484-1.265-5.108-0.6-1.577-1.524-3.016-2.635-4.28-0.315-0.477-0.825-0.756-1.206-1.168a4.845 4.845 0 0 0 -0.57 -0.508c-1.172-0.892-2.423-1.707-3.793-2.26-1.191-0.587-2.462-0.999-3.746-1.33-1.777-0.509-3.61-0.838-5.458-0.924-0.825-0.149-1.665-0.056-2.496-0.087-0.655-0.031-1.294 0.142-1.947 0.123a34.801 34.801 0 0 0 -8.95 2.054c-1.902 0.662-3.703 1.568-5.474 2.517-2.108 1.254-4.155 2.635-5.962 4.3-0.624 0.636-1.263 1.258-1.888 1.893-1.218 1.421-2.363 2.943-3.086 4.683-0.78 2.54-1.438 5.117-2.154 7.677-0.87 3.311-1.763 6.615-2.595 9.936-1.004 3.756-1.915 7.538-2.977 11.28-0.48 1.569-0.964 3.138-1.45 4.706-0.222 0.858-0.402 1.742-0.813 2.535-1.292 2.83-4.097 4.855-7.14 5.385-2.073 0.404-4.324 0.125-6.129-1.012-0.525-0.405-1.095-0.78-1.476-1.334-0.8-0.934-1.251-2.124-1.414-3.334-0.023-0.57-0.247-1.16-1e-3 -1.713 2.478-8.123 4.447-16.389 6.614-24.598 1.205-4.63 2.406-9.261 3.755-13.852 0.298-1.124 0.788-2.186 1.322-3.215 1.456-3.052 3.464-5.815 5.716-8.327 0.883-0.88 1.762-1.765 2.647-2.644 1.404-1.195 2.79-2.418 4.315-3.46 0.764-0.629 1.64-1.093 2.45-1.656 3.237-2.053 6.71-3.72 10.313-5.024 0.89-0.296 1.756-0.668 2.667-0.9 1.915-0.567 3.85-1.076 5.817-1.422 1.523-0.319 3.073-0.46 4.613-0.67 0.456-0.052 0.927 0.021 1.37-0.126z" fill="#00579c"/>
<path d="m19.022 15.748c0.54-0.019 1.07-0.146 1.61-0.138 1.408 0.128 2.84 0.336 4.129 0.952 0.881 0.475 1.762 1.037 2.305 1.905 0.78 0.987 0.833 2.338 0.587 3.523-0.695 2.695-1.326 5.41-2.057 8.097-0.809 3.255-1.625 6.509-2.438 9.763-0.605 2.476-1.285 4.932-1.88 7.41-0.704 2.824-1.417 5.644-2.116 8.47-0.607 2.228-1.143 4.476-1.707 6.717-0.638 2.409-1.14 4.873-1.175 7.373-0.12 0.65-0.09 1.31 7e-3 1.96 0.039 2.615 0.627 5.217 1.715 7.595 0.528 0.96 1.048 1.935 1.75 2.783 0.543 0.609 1.035 1.269 1.68 1.777 0.714 0.55 1.38 1.17 2.175 1.608 0.832 0.53 1.717 0.964 2.609 1.384 2.007 0.79 4.087 1.406 6.214 1.775 1.981 0.285 3.99 0.479 5.992 0.319 5.015-0.302 9.944-1.742 14.393-4.067 2.64-1.336 5.059-3.083 7.266-5.045 1.25-1.208 2.447-2.484 3.408-3.939 0.585-0.89 1.214-1.787 1.485-2.832 2.636-9.106 4.868-18.32 7.31-27.476 0.501-1.807 1.106-3.583 1.635-5.382 0.504-1.661 1.287-3.264 2.45-4.566 0.617-0.828 1.468-1.441 2.325-1.999 1.843-1.182 4.098-1.63 6.263-1.423 1.038 0.125 2.077 0.379 3 0.887 1.148 0.537 2.152 1.426 2.74 2.557 0.578 1.066 0.59 2.351 0.334 3.51-1.644 5.477-3.105 11.007-4.516 16.548-1.946 7.455-3.818 14.932-5.964 22.334-0.185 0.67-0.464 1.31-0.76 1.938-0.511 1.232-1.181 2.392-1.87 3.533-1.224 1.998-2.62 3.895-4.22 5.608-0.653 0.819-1.457 1.499-2.174 2.26-1.432 1.309-2.913 2.574-4.486 3.718-2.471 1.828-5.14 3.377-7.888 4.747-1.274 0.57-2.53 1.18-3.839 1.672-1.136 0.493-2.332 0.827-3.494 1.251-1.798 0.583-3.632 1.03-5.474 1.441-0.7 0.138-1.41 0.227-2.107 0.377-1.074 0.192-2.163 0.272-3.239 0.438-0.552 0.099-1.126-0.025-1.665 0.15h-5.547a2.556 2.556 0 0 0 -0.629 -0.102c-0.794-0.015-1.571-0.203-2.363-0.246-2.396-0.325-4.774-0.808-7.075-1.554-2.592-0.75-5.063-1.873-7.433-3.153-1.71-0.978-3.32-2.118-4.849-3.359-0.471-0.428-0.99-0.807-1.423-1.28-0.683-0.719-1.445-1.366-2.062-2.148-4.13-4.69-6.724-10.652-7.582-16.828-0.172-0.978-0.2-1.976-0.372-2.953v-5.662c0.101-0.377 0.092-0.768 0.132-1.151 0.29-2.777 0.704-5.555 1.464-8.247 1.176-4.627 2.287-9.272 3.504-13.888 0.926-3.717 1.856-7.432 2.786-11.148 0.875-3.263 1.648-6.554 2.484-9.827 0.22-0.81 0.346-1.654 0.717-2.413 0.423-0.867 0.874-1.749 1.578-2.424 0.347-0.335 0.672-0.693 1.037-1.009 1.502-1.229 3.403-1.915 5.32-2.121z" fill="#da251c"/>
<path d="m207.33 38.968c0.06 0.062 0.06 0.062 0 0z" fill="#fff"/>
<path d="m155.7 22.861c3.808-8e-3 7.615 0 11.422-4e-3 -1.836 8.745-3.682 17.486-5.514 26.231-0.358 1.747-0.835 3.502-0.758 5.3-0.05 0.98 0.142 1.984 0.624 2.846 0.436 0.784 1.22 1.324 2.054 1.619 0.769 0.308 1.604 0.37 2.417 0.486 1.053 0.084 2.11 0.014 3.15-0.166 1.306-0.164 2.54-0.717 3.602-1.481 1.512-1.22 2.335-3.052 2.916-4.857 0.345-1.12 0.546-2.274 0.8-3.414 1.865-8.834 3.718-17.672 5.576-26.504 0.134-0.095 0.312-0.047 0.469-0.062 3.678 0.013 7.355-0.01 11.032 0.01-0.429 2.338-0.978 4.652-1.44 6.981-1.007 4.758-2.005 9.517-3.01 14.274-0.492 2.283-0.927 4.58-1.458 6.855-0.566 2.407-1.326 4.776-2.379 7.016a18.705 18.705 0 0 1 -3.632 4.905c-3.273 3.038-7.491 5.009-11.896 5.703-0.774 0.128-1.551 0.26-2.338 0.261-1.105 0.182-2.229 0.065-3.344 0.102-0.618 0.04-1.22-0.15-1.838-0.115-2.293-0.25-4.588-0.79-6.635-1.88a12.6 12.6 0 0 1 -4.27 -3.614c-1.376-1.926-2.043-4.337-1.937-6.696-0.028-1.129 0.01-2.254 0.173-3.373 0.33-2.665 0.98-5.273 1.508-7.902 1.417-6.69 2.803-13.385 4.225-20.073 0.136-0.821 0.387-1.62 0.48-2.448h2e-3zm83.274-3e-3c3.627 0 7.253-1e-3 10.88 1e-3 -0.613 2.949-1.24 5.893-1.86 8.84h-10.876a912.26 912.26 0 0 0 1.856 -8.84zm110.11 0.065c0.124-0.106 0.306-0.048 0.466-0.068 7.31 8e-3 14.62 0 21.93 3e-3 0.475 7e-3 0.957-0.038 1.43 0.068 2.265 0.096 4.552 0.463 6.658 1.341 1.787 0.774 3.395 2.172 4.051 4.048a9.385 9.385 0 0 1 0.403 4.365c-0.091 1.164-0.376 2.3-0.7 3.418-0.423 1.155-0.96 2.283-1.684 3.281-0.497 0.782-1.247 1.35-1.87 2.022a14.547 14.547 0 0 1 -4.632 2.575c1.234 0.347 2.444 0.872 3.436 1.699 0.46 0.44 0.967 0.846 1.313 1.389 0.876 1.247 1.384 2.77 1.305 4.301 0.045 1.048-0.104 2.091-0.333 3.11-0.549 2.169-1.49 4.243-2.81 6.05-0.704 1.008-1.624 1.832-2.49 2.693-1.632 1.402-3.52 2.523-5.576 3.172-1.605 0.572-3.292 0.873-4.981 1.049-0.69 0.023-1.366 0.172-2.058 0.119-1.427 0.214-2.879 0.038-4.315 0.129-1.036 0.167-2.09 0.056-3.133 0.088-5.283 5e-3 -10.567-0.01-15.85 7e-3 3.143-14.953 6.278-29.912 9.44-44.86m9.136 9.12c-0.05 0.462-0.155 0.918-0.261 1.372-0.492 2.31-0.962 4.625-1.467 6.932 3.016 0.022 6.031 4e-3 9.048 0.01 1.345 0.04 2.72-0.142 3.96-0.69 0.883-0.377 1.652-1.035 2.123-1.875 0.409-0.773 0.763-1.627 0.712-2.52 0-0.537 0.053-1.108-0.241-1.586-0.266-0.615-0.852-1-1.446-1.256a6.576 6.576 0 0 0 -2.625 -0.407c-3.268 0.011-6.537-0.026-9.803 0.02m-3.565 16.96c-0.068 0.676-0.269 1.33-0.396 1.995-0.279 1.37-0.57 2.738-0.863 4.106-0.22 1.2-0.543 2.38-0.72 3.59 3.207 0.054 6.415 5e-3 9.623 0.026 1.631-0.102 3.31-0.3 4.788-1.054 1.368-0.777 2.203-2.256 2.493-3.77 0.38-1.333 0.212-2.994-0.937-3.907-1.313-0.889-2.96-1.085-4.509-1.008-3.16 0.013-6.32-0.027-9.479 0.021zm114.47-26.142c3.566 0 7.132-0.01 10.699 5e-3 -0.045 0.275-0.095 0.55-0.146 0.823-0.525 2.404-1.008 4.816-1.53 7.22-1.009 4.954-2.103 9.891-3.1 14.848 0.635-0.36 1.055-0.975 1.63-1.413 0.546-0.42 0.96-0.988 1.522-1.392 0.497-0.44 0.935-0.941 1.47-1.339 0.336-0.308 0.632-0.663 1.002-0.939 0.507-0.388 0.893-0.912 1.404-1.298 0.467-0.357 0.829-0.83 1.296-1.187 0.383-0.296 0.702-0.664 1.054-0.997 0.63-0.48 1.142-1.097 1.768-1.583 0.363-0.284 0.635-0.67 1.006-0.949 1.169-0.065 2.344-4e-3 3.517-0.025 3.096-0.014 6.193 0.03 9.29-0.024v0.083c-4.23 3.775-8.459 7.552-12.686 11.33-0.488 0.362-0.853 0.863-1.37 1.182 0.492 1.442 1.112 2.836 1.633 4.268 1.796 4.547 3.553 9.108 5.354 13.653 0.314 0.93 0.75 1.81 1.044 2.746-4.033 0.02-8.067 5e-3 -12.1 7e-3 -1.592-4.39-3.196-8.778-4.8-13.164-0.402 0.267-0.745 0.607-1.113 0.911-0.988 0.848-1.977 1.696-2.966 2.542-0.283 0.251-0.665 0.47-0.757 0.859-0.626 2.913-1.218 5.834-1.852 8.744-3.565 4e-3 -7.13 8e-3 -10.693 0 0.048-0.5 0.164-0.986 0.261-1.475 2.557-12.103 5.091-24.212 7.642-36.317 0.513-2.37 0.969-4.755 1.521-7.119zm-200.43 10.62c0.737-0.082 1.483-0.017 2.225-0.037 0.759 0.023 1.527-0.062 2.28 0.072 1.882 0.218 3.8 0.55 5.5 1.426 1.02 0.412 1.917 1.08 2.745 1.794 0.38 0.261 0.681 0.618 0.959 0.985 0.677 0.692 1.17 1.542 1.587 2.411 0.873 1.621 1.154 3.479 1.287 5.29-0.029 0.795 0.06 1.599-0.08 2.387-0.05 1.119-0.278 2.218-0.479 3.317-0.311 1.304-0.621 2.613-1.1 3.867-0.34 0.81-0.616 1.648-1.033 2.422-0.792 1.554-1.736 3.036-2.891 4.345-0.505 0.47-0.86 1.08-1.417 1.5-0.337 0.235-0.61 0.543-0.91 0.817-0.442 0.354-0.916 0.666-1.345 1.033-3.247 2.283-7.183 3.535-11.14 3.672-1.33 0.182-2.67 0.023-3.999-0.043-1.099-0.135-2.197-0.314-3.264-0.62-1.143-0.373-2.314-0.751-3.31-1.439-2.088-1.241-3.665-3.264-4.52-5.524-0.776-2.081-0.872-4.33-0.76-6.525 0.102-0.608 0.061-1.231 0.213-1.833 0.673-4.48 2.325-8.928 5.343-12.366 0.492-0.449 0.82-1.05 1.369-1.44 0.358-0.247 0.63-0.592 0.957-0.879 1.577-1.226 3.253-2.373 5.137-3.073 2.103-0.904 4.378-1.333 6.646-1.56m-0.65 8.421a7.596 7.596 0 0 0 -2.414 0.827c-0.758 0.401-1.325 1.046-1.92 1.645-1.58 1.825-2.382 4.16-2.919 6.477-0.26 1.308-0.526 2.632-0.465 3.971-0.056 0.984 0.121 1.968 0.469 2.888 0.382 1.025 1.151 1.96 2.202 2.338 1.318 0.565 2.825 0.488 4.186 0.108 0.947-0.327 1.885-0.78 2.578-1.523 0.442-0.459 0.93-0.88 1.285-1.417 1.657-2.303 2.39-5.129 2.777-7.903 0.207-1.371 0.19-2.783-0.178-4.127-0.303-1.057-0.868-2.126-1.864-2.674-1.12-0.66-2.473-0.761-3.738-0.61zm-52.941-7.792c1.73-0.346 3.515-0.45 5.269-0.24 1.674 0.155 3.388 0.581 4.73 1.643 1.494 1.075 2.138 2.954 2.28 4.726-0.022 1.087 0.124 2.185-0.063 3.266-0.209 1.94-0.7 3.834-1.074 5.746-0.938 4.366-1.827 8.743-2.762 13.11-0.357 1.76-0.75 3.512-1.095 5.271-0.037 0.188-0.264 0.13-0.393 0.148-3.528-7e-3 -7.057-1e-3 -10.584-3e-3 0.93-4.336 1.814-8.682 2.742-13.019 0.41-2.035 0.883-4.057 1.237-6.104 0.213-1.385 0.438-2.787 0.323-4.192-0.104-0.635-0.286-1.358-0.868-1.72a2.959 2.959 0 0 0 -1.384 -0.56c-1.276-0.265-2.615-0.065-3.817 0.404-0.712 0.36-1.406 0.812-1.912 1.434-1.442 1.69-2.014 3.896-2.522 6.007-1.01 4.886-2.051 9.764-3.07 14.647-0.239 1.03-0.409 2.076-0.68 3.098-3.6 8e-3 -7.199 9e-3 -10.797-1e-3 0.027-0.435 0.117-0.862 0.222-1.283 2.123-10.084 4.234-20.17 6.367-30.25 0.11-0.537 0.19-1.08 0.343-1.607 3.558 6e-3 7.118 9e-3 10.677 2e-3 -0.289 1.408-0.626 2.81-0.87 4.225 0.7-0.567 1.24-1.306 1.964-1.846 1.627-1.432 3.629-2.419 5.737-2.902m-7.774 4.86c0.06 0.062 0.06 0.062 0 0zm100.35-4.092c2.253-0.942 4.735-1.245 7.158-1.07 1.069 0.102 2.145 0.253 3.163 0.611 1.171 0.392 2.29 1.04 3.043 2.04 1.034 1.348 1.326 3.097 1.39 4.755 0.05 0.69-0.132 1.364-0.113 2.053-0.232 2.21-0.793 4.366-1.219 6.542-1.138 5.382-2.269 10.765-3.401 16.147-0.099 0.612-0.298 1.204-0.36 1.82-3.629-2e-3 -7.257 6e-3 -10.885-3e-3 -4e-3 -0.658 0.24-1.28 0.336-1.925 1-4.759 2.002-9.518 3.005-14.275 0.279-1.367 0.55-2.735 0.73-4.119 0.053-0.568 0.187-1.13 0.153-1.705-0.028-0.563 0.05-1.134-0.049-1.69-0.178-0.49-0.354-1.049-0.821-1.34-0.488-0.363-1.098-0.493-1.685-0.582-0.725-0.142-1.467-0.069-2.181 0.08-0.706 0.078-1.35 0.399-1.968 0.726-0.483 0.254-0.837 0.675-1.22 1.05-0.668 0.647-1.038 1.517-1.447 2.334-0.96 2.237-1.275 4.671-1.825 7.026-0.854 4.142-1.751 8.277-2.599 12.422-0.151 0.662-0.305 1.325-0.387 2-3.634-1e-3 -7.267 9e-3 -10.9-5e-3 2.3-11.052 4.645-22.096 6.955-33.145 3.557 0.026 7.115 0 10.671 0.016-0.257 1.448-0.634 2.873-0.869 4.324 1.454-1.72 3.27-3.151 5.325-4.087zm92-0.348c1.758-0.468 3.58-0.615 5.385-0.76 0.9 0.01 1.802-9e-3 2.704 8e-3 0.43 0.056 0.861 0.119 1.3 0.102 1.322 0.1 2.624 0.37 3.9 0.73 1.172 0.38 2.285 0.948 3.249 1.718 0.763 0.7 1.462 1.517 1.814 2.509 0.57 1.354 0.58 2.853 0.503 4.296-0.25 2.35-0.705 4.676-1.22 6.983-0.58 2.797-1.172 5.592-1.763 8.387-0.294 1.508-0.682 3-0.863 4.528-0.037 0.576-0.02 1.155-0.016 1.733 0.044 0.625 0.229 1.362 0.86 1.642-0.113 0.43-0.151 0.88-0.274 1.307-0.135 0.103-0.32 0.046-0.465 0.067-3.564-8e-3 -7.128 0-10.69-5e-3 0.024-0.616-0.057-1.242 0.07-1.852 0.077-0.494 0.025-0.996 0.021-1.494a20.4 20.4 0 0 1 -5.928 3.463c-1.669 0.557-3.421 0.937-5.187 0.853-1.81 0.07-3.693-0.175-5.295-1.067-0.43-0.191-0.811-0.472-1.159-0.784-0.548-0.54-1.127-1.074-1.473-1.773-0.53-0.88-0.785-1.896-0.867-2.912-0.161-0.695 0.057-1.391 0.066-2.088 0.3-2.301 1.127-4.555 2.539-6.41 0.375-0.552 0.903-0.97 1.354-1.454 0.553-0.616 1.263-1.058 1.951-1.506 1.804-1.113 3.837-1.782 5.907-2.194a98.7 98.7 0 0 1 4.926 -0.906c2.094-0.374 4.287-0.633 6.158-1.727 0.453-0.228 0.732-0.698 0.882-1.166 0.07-0.464 0.212-0.915 0.25-1.383a2.239 2.239 0 0 0 -0.678 -1.385c-0.285-0.304-0.71-0.395-1.081-0.54-1.086-0.26-2.226-0.344-3.325-0.125-1.339 0.161-2.65 0.722-3.593 1.698-0.488 0.555-0.849 1.198-1.173 1.856-3.35-4e-3 -6.701 7e-3 -10.052-6e-3 0.775-2.055 1.796-4.05 3.285-5.685 0.744-0.733 1.445-1.523 2.327-2.1 1.682-1.227 3.635-2.059 5.65-2.558m2.774 18.97c-1.877 0.448-3.894 0.616-5.549 1.693-1.08 0.627-1.712 1.861-1.79 3.086-0.096 0.76-0.015 1.611 0.49 2.226 0.468 0.646 1.245 1 2.019 1.108 1.485 0.135 3.006-0.171 4.348-0.817 0.897-0.539 1.825-1.12 2.421-2.006 0.682-0.829 1.105-1.842 1.327-2.887 0.257-1.222 0.526-2.44 0.763-3.666-1.276 0.603-2.656 0.96-4.029 1.262zm42.556-19.328c2.697-0.606 5.563-0.567 8.209 0.263 0.91 0.339 1.82 0.781 2.482 1.512 0.954 0.874 1.486 2.124 1.689 3.385 0.39 2.277 0.055 4.596-0.377 6.842-1.522 7.198-3.026 14.402-4.545 21.6-3.635 0-7.27 9e-3 -10.904-4e-3 0.467-2.548 1.06-5.071 1.57-7.611 0.555-2.584 1.081-5.173 1.64-7.755 0.437-2.223 0.963-4.448 1.064-6.716 0.103-0.413 0.051-0.835-0.03-1.246-0.034-0.536-0.196-1.088-0.58-1.479-0.392-0.43-0.96-0.646-1.515-0.757-1.243-0.301-2.557-0.11-3.744 0.318a5.6 5.6 0 0 0 -2.65 2.209c-1.121 1.68-1.634 3.669-2.052 5.62-1.208 5.81-2.461 11.61-3.653 17.424-3.625-2e-3 -7.252 3e-3 -10.877-3e-3 2.11-10.05 4.217-20.102 6.34-30.15 0.177-1 0.465-1.979 0.593-2.988 3.558 0 7.117 0 10.675-2e-3 -0.036 0.71-0.276 1.39-0.397 2.087-0.132 0.753-0.33 1.491-0.468 2.242 0.437-0.325 0.67-0.843 1.106-1.17a6.45 6.45 0 0 0 0.807 -0.707c1.6-1.404 3.53-2.451 5.617-2.914zm-208.52 0.466c3.634-3e-3 7.269-4e-3 10.903-2e-3 -2.172 10.227-4.3 20.461-6.466 30.689-0.13 0.823-0.399 1.62-0.483 2.45-3.631-1e-3 -7.264 9e-3 -10.895-4e-3 1.934-9.285 3.905-18.561 5.851-27.844 0.359-1.763 0.77-3.516 1.09-5.289zm175.7 43.709c0.361-0.084 0.732-0.086 1.097 3e-3 0.541 0.015 1.078 0.085 1.617 0.157-0.115 1.059-0.404 2.092-0.602 3.139-0.66-0.027-1.322-0.092-1.978-0.02-0.366 0.082-0.753 0.227-0.95 0.564-0.491 0.808-0.51 1.778-0.77 2.665 1 0.01 2.004-6e-3 3.007 7e-3 -0.18 0.93-0.378 1.858-0.574 2.786-0.997 0.01-1.993-0.015-2.987 0.017-0.603 2.57-1.087 5.167-1.651 7.745-0.466 2.238-0.938 4.473-1.413 6.709-1.242 0.012-2.482-0.01-3.723 0.012 0.901-4.212 1.767-8.432 2.663-12.646 0.083-0.61 0.307-1.195 0.339-1.812-0.865-0.047-1.73-0.016-2.593-0.023 0.168-0.936 0.441-1.85 0.56-2.795 0.881-6e-3 1.766 0.024 2.65-0.023 0.346-1.278 0.48-2.62 1.031-3.839 0.368-0.676 0.853-1.3 1.475-1.763 0.814-0.577 1.811-0.848 2.802-0.883zm14.29 0.248c1.326-2e-3 2.653-0.01 3.98 2e-3 -0.09 1.014-0.405 1.988-0.574 2.988-1.442 6.844-2.893 13.688-4.319 20.536-1.326-2e-3 -2.65 0.01-3.975-7e-3 0.02-0.493 0.142-0.974 0.26-1.45 1.528-7.36 3.115-14.708 4.628-22.07zm39.317-2e-3c1.218 2e-3 2.437-0.01 3.656 6e-3 -1.567 7.56-3.178 15.11-4.761 22.667-0.106 0.27-0.048 0.63-0.25 0.84-1.177 0.037-2.354 5e-3 -3.529 0.016 0.182-0.675 0.302-1.363 0.435-2.047-0.807 0.65-1.587 1.346-2.524 1.805-1.04 0.571-2.24 0.823-3.422 0.782-1.556 0.044-3.146-0.575-4.182-1.752-0.443-0.56-0.78-1.196-1.068-1.845-0.289-0.783-0.367-1.62-0.46-2.442-0.06-0.615 0.107-1.217 0.116-1.83 0.275-2.034 0.914-4.032 1.969-5.795a9.495 9.495 0 0 1 1.37 -1.76c0.23-0.38 0.62-0.6 0.933-0.905 1.86-1.73 4.599-2.424 7.064-1.822 0.802 0.259 1.602 0.639 2.173 1.28 0.293 0.316 0.529 0.68 0.796 1.02 0.508-2.611 1.091-5.211 1.63-7.819 0.015-0.133 0.032-0.266 0.054-0.399m-7.332 9.104a5.248 5.248 0 0 0 -3.005 1.963 8.655 8.655 0 0 0 -1.306 2.576c-0.378 1.242-0.67 2.54-0.584 3.847 0.116 0.927 0.392 1.913 1.104 2.566 0.563 0.378 1.216 0.69 1.912 0.682 0.576-0.013 1.171 0.06 1.735-0.11 0.998-0.27 1.933-0.821 2.607-1.611 1.41-1.769 1.98-4.062 2.136-6.278-0.044-0.854-0.114-1.778-0.637-2.49-0.571-0.825-1.618-1.227-2.597-1.194-0.457 0.015-0.918-0.037-1.365 0.049zm15.214-9.102c1.255 0 2.513-0.012 3.77 4e-3a57.916 57.916 0 0 1 -0.78 3.756c-1.248 6e-3 -2.494-0.013-3.74 0.01 0.228-1.262 0.57-2.5 0.75-3.77zm-81.094 5.326c1.415-0.078 2.865-0.098 4.24 0.31 2.097 0.585 3.878 2.191 4.617 4.248 0.736 2.153 0.552 4.499-3e-3 6.67-0.359 1.39-1.046 2.674-1.912 3.813-0.507 0.606-1.009 1.228-1.655 1.692-1.917 1.614-4.475 2.308-6.95 2.224-1.193-0.042-2.403-0.218-3.503-0.699a4.101 4.101 0 0 1 -1.313 -0.74c-1.771-1.2-2.744-3.36-2.757-5.467a2.74 2.74 0 0 1 0.011 -1.295 11.198 11.198 0 0 1 1.943 -6.373 10.074 10.074 0 0 1 5.23 -3.95c0.675-0.177 1.35-0.368 2.052-0.433m0.323 2.7c-0.768 0.123-1.556 0.273-2.225 0.687-0.615 0.37-1.223 0.794-1.634 1.39-0.954 1.164-1.543 2.586-1.908 4.033-0.208 0.885-0.387 1.789-0.335 2.702-0.06 1.303 0.293 2.694 1.232 3.64 0.392 0.31 0.814 0.598 1.292 0.762 2.325 0.87 5.112 0.121 6.742-1.735 0.581-0.743 1.16-1.51 1.486-2.405 0.512-1.173 0.683-2.453 0.818-3.715 0.058-1.188-0.01-2.44-0.613-3.496-0.648-1.054-1.844-1.69-3.058-1.805-0.593-0.107-1.202-0.167-1.797-0.058zm93.103-2.266c1.56-0.097 3.17-0.085 4.666 0.43 0.8 0.294 1.623 0.74 2.054 1.51 0.287 0.472 0.492 1.013 0.47 1.575 0.088 1.435-0.414 2.81-0.653 4.208-0.414 1.93-0.806 3.863-1.224 5.793-0.095 0.472-0.17 0.96-0.044 1.435 0.472 0.19 0.99 0.087 1.487 0.133-0.207 0.913-0.391 1.83-0.592 2.743-1.141 0.284-2.358 0.393-3.497 0.048-0.441-0.164-0.878-0.42-1.09-0.855-0.303-0.416-0.212-0.944-0.231-1.421-1.7 1.735-4.12 2.862-6.576 2.707-1.2-0.058-2.502-0.372-3.324-1.308-0.44-0.44-0.71-1.037-0.846-1.637-0.094-1.082-0.067-2.207 0.37-3.218a5.65 5.65 0 0 1 2.03 -2.838c0.913-0.664 1.984-1.063 3.067-1.358 1.06-0.248 2.132-0.47 3.22-0.57 1.19-0.211 2.471-0.313 3.484-1.045 0.607-0.379 0.77-1.188 0.662-1.85-0.067-0.578-0.536-1.049-1.083-1.196-0.873-0.32-1.813-0.188-2.719-0.2-0.847 0.123-1.71 0.404-2.34 1.009a3.34 3.34 0 0 0 -0.82 1.79c-1.183 0-2.366 8e-3 -3.549-4e-3 0.06-0.528 0.214-1.041 0.416-1.531 0.284-0.618 0.573-1.255 1.077-1.729 1.396-1.605 3.493-2.46 5.585-2.621m0.344 9.846c-1.367 0.323-2.806 0.33-4.126 0.842-0.671 0.28-1.298 0.769-1.556 1.47-0.3 0.715-0.522 1.626-0.047 2.319 0.192 0.363 0.6 0.51 0.958 0.662 1.122 0.306 2.32 0.078 3.4-0.294 1.3-0.53 2.44-1.546 2.959-2.868 0.27-0.896 0.456-1.817 0.623-2.737-0.737 0.211-1.451 0.494-2.21 0.606zm-47.047-8.922c1.177-0.655 2.556-0.908 3.893-0.854 1.08 0.104 2.224 0.21 3.147 0.838 0.394 0.362 0.843 0.719 1.018 1.247 0.2 0.444 0.264 0.928 0.323 1.407 0.12 0.633-0.092 1.258-0.085 1.893-0.176 1.273-0.497 2.52-0.743 3.78-0.587 2.795-1.19 5.59-1.757 8.389-0.034 0.185-0.269 0.123-0.39 0.143-1.123-0.02-2.246 0.032-3.365-8e-3 0.208-1.328 0.551-2.631 0.795-3.953 0.257-1.158 0.475-2.322 0.739-3.476 0.286-1.535 0.688-3.048 0.918-4.592 0.13-0.93-0.336-2.01-1.295-2.283-1.102-0.315-2.31-0.197-3.371 0.213a4.929 4.929 0 0 0 -2.401 2.136c-0.585 1.018-0.78 2.188-0.998 3.324-0.631 2.874-1.196 5.764-1.84 8.635-1.248 0.015-2.495-0.011-3.74 0.015 1.026-4.777 2.001-9.565 3.023-14.343 0.195-0.981 0.398-1.962 0.634-2.933 1.185 6e-3 2.373-7e-3 3.56 4e-3 -0.042 0.734-0.289 1.434-0.415 2.154 0.7-0.677 1.468-1.307 2.35-1.736zm33.075-0.42c1.255 0 2.511-6e-3 3.769 0-1.172 5.76-2.437 11.498-3.602 17.257-1.257 0.01-2.512 9e-3 -3.77 0 1.163-5.76 2.434-11.498 3.603-17.257z" fill="#da251c"/>
</svg>
