<?xml version="1.0" encoding="UTF-8" standalone="no"?>
<!-- Creator: CorelDRAW 2021.5 -->

<svg
   xml:space="preserve"
   width="4.7326999mm"
   height="3.6540337mm"
   version="1.1"
   style="clip-rule:evenodd;fill-rule:evenodd;image-rendering:optimizeQuality;shape-rendering:geometricPrecision;text-rendering:geometricPrecision"
   viewBox="0 0 473.26999 365.40337"
   id="svg8"
   sodipodi:docname="icon.svg"
   inkscape:version="1.3.2 (1:1.3.2+202311252150+091e20ef0f)"
   xmlns:inkscape="http://www.inkscape.org/namespaces/inkscape"
   xmlns:sodipodi="http://sodipodi.sourceforge.net/DTD/sodipodi-0.dtd"
   xmlns="http://www.w3.org/2000/svg"
   xmlns:svg="http://www.w3.org/2000/svg"><sodipodi:namedview
   id="namedview8"
   pagecolor="#ffffff"
   bordercolor="#000000"
   borderopacity="0.25"
   inkscape:showpageshadow="2"
   inkscape:pageopacity="0.0"
   inkscape:pagecheckerboard="0"
   inkscape:deskcolor="#d1d1d1"
   inkscape:document-units="mm"
   inkscape:zoom="14.072917"
   inkscape:cx="40.752035"
   inkscape:cy="6.8216135"
   inkscape:window-width="1920"
   inkscape:window-height="956"
   inkscape:window-x="0"
   inkscape:window-y="27"
   inkscape:window-maximized="1"
   inkscape:current-layer="Слой_x0020_1" />
 <defs
   id="defs1">
  <style
   type="text/css"
   id="style1">
   <![CDATA[
    .fil1 {fill:#00B1EB}
    .fil2 {fill:#06639B}
    .fil3 {fill:#292B5B}
    .fil0 {fill:#292B5B;fill-rule:nonzero}
   ]]>
  </style>
 </defs>
 <g
   id="Слой_x0020_1"
   inkscape:label="Слой 1"
   inkscape:groupmode="layer"
   transform="translate(-192.59,-2.33)">
  <metadata
   id="CorelCorpID_0Corel-Layer" />
  
  
  
  
  
  
  
  <path
   class="fil1"
   d="m 192.59,322.05 c 0,24.96 20.6,45.99 45.74,45.68 H 341.07 L 397.1,158.48 c 5.04,-19.75 22.94,-34.35 44.26,-34.35 h 224.5 V 48 c 0,-25.13 -20.31,-45.52 -45.4,-45.67 h -308.8 c -21.32,0 -39.22,14.61 -44.27,34.35 l -73.14,273.14 c -1.09,4.06 -1.66,8.02 -1.66,12.23 z"
   id="path6" />
  <path
   class="fil2"
   d="m 665.86,245.93 v -121.8 h -224.5 c -21.32,0 -39.22,14.6 -44.26,34.35 l -56.03,209.25 h 81.19 81.27 l 23.39,-87.45 c 5.04,-19.75 22.95,-34.35 44.26,-34.35 z"
   id="path7" />
  <path
   class="fil3"
   d="m 665.86,245.93 h -94.41 -0.27 c -21.31,0 -39.22,14.6 -44.26,34.35 l -23.39,87.45 h 40.53 c 25.36,0 50.78,0 76.12,0 25.23,0 45.68,-20.45 45.68,-45.67 z"
   id="path8" />
 </g>
</svg>
