<?xml version="1.0" encoding="UTF-8"?>
<svg width="126.22" height="62.673" enable-background="new 0 0 358.333 79.861" version="1.0" viewBox="0 0 126.218 62.673" xml:space="preserve" xmlns="http://www.w3.org/2000/svg" xmlns:cc="http://creativecommons.org/ns#" xmlns:dc="http://purl.org/dc/elements/1.1/" xmlns:rdf="http://www.w3.org/1999/02/22-rdf-syntax-ns#"><metadata><rdf:RDF><cc:Work rdf:about=""><dc:format>image/svg+xml</dc:format><dc:type rdf:resource="http://purl.org/dc/dcmitype/StillImage"/><dc:title/></cc:Work></rdf:RDF></metadata>
<rect x="63.549" y=".0039997" width="62.669" height="62.668" fill="#6d1f80"/>
<path d="m95.152 10.647-14.905 13.502-5.625 22.021 10.646 5.015h8.485v-8.81s-14.881 7.853-11.001-9.74c1.331-6.015 8.563-14.11 12.401-15.972 3.84 1.861 11.068 9.957 12.4 15.972 3.886 17.593-10.995 9.74-10.995 9.74v8.81h8.483l10.644-5.015-5.624-22.021z" fill="#f9b200"/>
<rect y="5.502" width="63.56" height="2.197" fill="#b18ebc"/>
<rect width="63.56" height="2.2" fill="#b18ebc"/>
<rect y="10.993" width="63.56" height="2.202" fill="#b18ebc"/>
<rect y="16.492" width="63.56" height="2.2" fill="#b18ebc"/>
<rect y="21.993" width="63.56" height="2.2" fill="#b18ebc"/>
<rect y="27.49" width="63.56" height="2.197" fill="#b18ebc"/>
<rect y="32.985" width="63.56" height="2.2" fill="#b18ebc"/>
<rect y="38.482" width="63.56" height="2.202" fill="#b18ebc"/>
<rect y="43.984" width="63.56" height="2.196" fill="#b18ebc"/>
<rect y="49.481" width="63.56" height="2.199" fill="#b18ebc"/>
<polyline transform="translate(-4.891 -9.331)" points="4.891 66.507 4.891 64.308 68.451 64.308 68.451 66.507 4.891 66.507" fill="#b18ebc"/>
<polyline transform="translate(-4.891 -9.331)" points="4.891 69.807 68.451 69.807 68.451 72.004 4.891 72.004" fill="#b18ebc"/>
</svg>
