<?xml version="1.0" encoding="UTF-8"?>
<svg width="347.85" height="62.673" enable-background="new 0 0 358.333 79.861" version="1.0" viewBox="0 0 347.84899 62.673" xml:space="preserve" xmlns="http://www.w3.org/2000/svg" xmlns:cc="http://creativecommons.org/ns#" xmlns:dc="http://purl.org/dc/elements/1.1/" xmlns:rdf="http://www.w3.org/1999/02/22-rdf-syntax-ns#"><metadata><rdf:RDF><cc:Work rdf:about=""><dc:format>image/svg+xml</dc:format><dc:type rdf:resource="http://purl.org/dc/dcmitype/StillImage"/><dc:title/></cc:Work></rdf:RDF></metadata>
<path d="m145.65 59.827c0 0.803-0.377 1.445-1.118 1.939-0.75 0.499-1.696 0.747-2.847 0.747h-4.803v-4.347h2.766v2.912c0.866 0 1.583-0.105 2.153-0.317 0.564-0.216 0.849-0.532 0.849-0.957 0-0.548-0.52-1.055-1.55-1.526-0.292-0.129-0.902-0.357-1.836-0.694-1.027-0.369-1.731-0.686-2.104-0.95-0.156-0.123-0.273-0.246-0.351-0.369-0.079-0.126-0.122-0.27-0.122-0.437 0-0.516 0.316-0.938 0.943-1.276 0.627-0.331 1.512-0.501 2.662-0.501h4.453v1.436h-4.53c-0.159 0-0.25 0.072-0.286 0.217 0 0.157 0.479 0.425 1.436 0.799 0.242 0.089 0.491 0.179 0.744 0.264 0.423 0.145 0.731 0.262 0.933 0.363 1.739 0.653 2.608 1.555 2.608 2.697" fill="#6d1f80"/>
<path d="m145.65 59.827c0 0.803-0.377 1.445-1.118 1.939-0.75 0.499-1.696 0.747-2.847 0.747h-4.803v-4.347h2.766v2.912c0.866 0 1.583-0.105 2.153-0.317 0.564-0.216 0.849-0.532 0.849-0.957 0-0.548-0.52-1.055-1.55-1.526-0.292-0.129-0.902-0.357-1.836-0.694-1.027-0.369-1.731-0.686-2.104-0.95-0.156-0.123-0.273-0.246-0.351-0.369-0.079-0.126-0.122-0.27-0.122-0.437 0-0.516 0.316-0.938 0.943-1.276 0.627-0.331 1.512-0.501 2.662-0.501h4.453v1.436h-4.53c-0.159 0-0.25 0.072-0.286 0.217 0 0.157 0.479 0.425 1.436 0.799 0.242 0.089 0.491 0.179 0.744 0.264 0.423 0.145 0.731 0.262 0.933 0.363 1.739 0.653 2.608 1.555 2.608 2.697z" fill="#6d1f80"/>
<path d="m155.52 62.467h-2.765v-0.808c-0.387 0.328-0.853 0.565-1.396 0.714-0.521 0.121-1.103 0.186-1.732 0.186-0.89 0-1.618-0.214-2.172-0.639-0.564-0.423-0.848-1.023-0.848-1.779v-6.09h2.767v6.053c0 0.196 0.03 0.359 0.083 0.51 0.056 0.143 0.156 0.269 0.294 0.378 0.29 0.179 0.729 0.266 1.326 0.266 0.427 0 0.817-0.114 1.171-0.348 0.337-0.208 0.507-0.467 0.507-0.769v-6.09h2.765z" fill="#6d1f80"/>
<path d="m155.52 62.467h-2.765v-0.808c-0.387 0.328-0.853 0.565-1.396 0.714-0.521 0.121-1.103 0.186-1.732 0.186-0.89 0-1.618-0.214-2.172-0.639-0.564-0.423-0.848-1.023-0.848-1.779v-6.09h2.767v6.053c0 0.196 0.03 0.359 0.083 0.51 0.056 0.143 0.156 0.269 0.294 0.378 0.29 0.179 0.729 0.266 1.326 0.266 0.427 0 0.817-0.114 1.171-0.348 0.337-0.208 0.507-0.467 0.507-0.769v-6.09h2.765z" fill="#6d1f80"/>
<path d="m164.03 62.515h-2.763v-4.685c0-0.812-0.249-1.407-0.753-1.779-0.468-0.375-1.344-0.564-2.632-0.564h-1.068v-1.436h2.553c0.784 0 1.464 0.072 2.05 0.214 0.581 0.141 1.07 0.359 1.458 0.655 0.768 0.561 1.155 1.339 1.155 2.342z" fill="#6d1f80"/>
<path d="m164.03 62.515h-2.763v-4.685c0-0.812-0.249-1.407-0.753-1.779-0.468-0.375-1.344-0.564-2.632-0.564h-1.068v-1.436h2.553c0.784 0 1.464 0.072 2.05 0.214 0.581 0.141 1.07 0.359 1.458 0.655 0.768 0.561 1.155 1.339 1.155 2.342z" fill="#6d1f80"/>
<path d="m174.48 62.515h-2.767v-6.056c0-0.738-0.56-1.107-1.681-1.107-1.134 0-1.701 0.375-1.701 1.122v1.021h2.054v1.656h-2.054v3.363h-2.763v-6.161c0-0.768 0.421-1.368 1.264-1.793 0.837-0.429 1.905-0.645 3.2-0.645 1.281 0 2.338 0.219 3.178 0.655 0.411 0.217 0.724 0.473 0.938 0.769 0.221 0.295 0.332 0.636 0.332 1.014z" fill="#6d1f80"/>
<path d="m174.48 62.515h-2.767v-6.056c0-0.738-0.56-1.107-1.681-1.107-1.134 0-1.701 0.375-1.701 1.122v1.021h2.054v1.656h-2.054v3.363h-2.763v-6.161c0-0.768 0.421-1.368 1.264-1.793 0.837-0.429 1.905-0.645 3.2-0.645 1.281 0 2.338 0.219 3.178 0.655 0.411 0.217 0.724 0.473 0.938 0.769 0.221 0.295 0.332 0.636 0.332 1.014z" fill="#6d1f80"/>
<path d="m182.51 62.515h-2.757v-4.685c0-0.812-0.255-1.407-0.759-1.779-0.466-0.375-1.342-0.564-2.63-0.564h-1.068v-1.436h2.55c0.785 0 1.465 0.072 2.048 0.214 0.583 0.141 1.066 0.359 1.461 0.655 0.771 0.561 1.155 1.339 1.155 2.342z" fill="#6d1f80"/>
<path d="m182.51 62.515h-2.757v-4.685c0-0.812-0.255-1.407-0.759-1.779-0.466-0.375-1.342-0.564-2.63-0.564h-1.068v-1.436h2.55c0.785 0 1.465 0.072 2.048 0.214 0.583 0.141 1.066 0.359 1.461 0.655 0.771 0.561 1.155 1.339 1.155 2.342z" fill="#6d1f80"/>
<path d="m192.27 60.434c0 0.654-0.313 1.163-0.952 1.53-0.635 0.363-1.5 0.551-2.58 0.551h-4.706v-1.436h2.771c0.432 0 0.798-3e-3 1.094-0.021 0.293-0.012 0.548-0.043 0.756-0.091 0.35-0.078 0.535-0.223 0.574-0.444 0-0.308-0.255-0.642-0.75-0.991-0.238-0.167-0.516-0.333-0.838-0.506-0.328-0.168-0.711-0.347-1.162-0.54-0.455-0.192-0.824-0.372-1.117-0.535-0.297-0.167-0.57-0.341-0.814-0.52-0.56-0.424-0.853-0.885-0.853-1.374 0-0.28 0.082-0.541 0.24-0.781 0.152-0.237 0.404-0.454 0.751-0.654 0.68-0.378 1.648-0.57 2.917-0.57h4.151v1.436h-3.34c-0.396 0-0.773 0.021-1.151 0.061-0.372 0.039-0.565 0.182-0.565 0.425 0 0.34 0.437 0.733 1.315 1.167l1.477 0.649c0.908 0.387 1.562 0.756 1.963 1.108 0.544 0.453 0.819 0.962 0.819 1.536" fill="#6d1f80"/>
<path d="m192.27 60.434c0 0.654-0.313 1.163-0.952 1.53-0.635 0.363-1.5 0.551-2.58 0.551h-4.706v-1.436h2.771c0.432 0 0.798-3e-3 1.094-0.021 0.293-0.012 0.548-0.043 0.756-0.091 0.35-0.078 0.535-0.223 0.574-0.444 0-0.308-0.255-0.642-0.75-0.991-0.238-0.167-0.516-0.333-0.838-0.506-0.328-0.168-0.711-0.347-1.162-0.54-0.455-0.192-0.824-0.372-1.117-0.535-0.297-0.167-0.57-0.341-0.814-0.52-0.56-0.424-0.853-0.885-0.853-1.374 0-0.28 0.082-0.541 0.24-0.781 0.152-0.237 0.404-0.454 0.751-0.654 0.68-0.378 1.648-0.57 2.917-0.57h4.151v1.436h-3.34c-0.396 0-0.773 0.021-1.151 0.061-0.372 0.039-0.565 0.182-0.565 0.425 0 0.34 0.437 0.733 1.315 1.167l1.477 0.649c0.908 0.387 1.562 0.756 1.963 1.108 0.544 0.453 0.819 0.962 0.819 1.536z" fill="#6d1f80"/>
<path d="m197.66 62.515h-4.154v-9.24c0-0.19 0.062-0.396 0.19-0.606 0.128-0.217 0.34-0.445 0.618-0.697 0.284-0.249 0.431-0.479 0.431-0.678 0-0.428-0.691-0.644-2.06-0.644l-2.234 0.046v-1.303l3.324-0.038c2.552 0 3.829 0.521 3.829 1.567 0 0.407-0.224 0.819-0.668 1.248-0.208 0.204-0.369 0.419-0.487 0.642-0.121 0.223-0.184 0.445-0.184 0.664v7.604h1.395z" fill="#6d1f80"/>
<path d="m197.66 62.515h-4.154v-9.24c0-0.19 0.062-0.396 0.19-0.606 0.128-0.217 0.34-0.445 0.618-0.697 0.284-0.249 0.431-0.479 0.431-0.678 0-0.428-0.691-0.644-2.06-0.644l-2.234 0.046v-1.303l3.324-0.038c2.552 0 3.829 0.521 3.829 1.567 0 0.407-0.224 0.819-0.668 1.248-0.208 0.204-0.369 0.419-0.487 0.642-0.121 0.223-0.184 0.445-0.184 0.664v7.604h1.395z" fill="#6d1f80"/>
<path d="m207.78 62.515h-2.763v-6.088c0-0.194-0.029-0.364-0.084-0.513-0.059-0.149-0.15-0.272-0.282-0.375-0.255-0.218-0.691-0.322-1.318-0.322-0.407 0-0.806 0.117-1.189 0.342-0.341 0.232-0.511 0.492-0.511 0.777v6.179h-2.77v-8.476h2.77v0.772c0.821-0.597 1.807-0.896 2.966-0.896 1.043 0 1.833 0.195 2.373 0.582 0.538 0.387 0.809 0.974 0.809 1.753v6.265z" fill="#6d1f80"/>
<path d="m207.78 62.515h-2.763v-6.088c0-0.194-0.029-0.364-0.084-0.513-0.059-0.149-0.15-0.272-0.282-0.375-0.255-0.218-0.691-0.322-1.318-0.322-0.407 0-0.806 0.117-1.189 0.342-0.341 0.232-0.511 0.492-0.511 0.777v6.179h-2.77v-8.476h2.77v0.772c0.821-0.597 1.807-0.896 2.966-0.896 1.043 0 1.833 0.195 2.373 0.582 0.538 0.387 0.809 0.974 0.809 1.753v6.265z" fill="#6d1f80"/>
<path d="m232 60.132c0 0.727-0.346 1.313-1.028 1.749-0.632 0.422-1.591 0.634-2.87 0.634h-0.847l-1.354-0.674-1.45 0.674h-0.824c-1.205 0-2.164-0.212-2.877-0.634-0.68-0.437-1.018-1.022-1.018-1.749v-6.081h2.893v5.946c0 0.719 0.52 1.082 1.57 1.082h0.22v-7.028h2.895v7.028h0.211c1.058 0 1.585-0.363 1.585-1.082v-5.946h2.895v6.081z" fill="#6d1f80"/>
<path d="m232 60.132c0 0.727-0.346 1.313-1.028 1.749-0.632 0.422-1.591 0.634-2.87 0.634h-0.847l-1.354-0.674-1.45 0.674h-0.824c-1.205 0-2.164-0.212-2.877-0.634-0.68-0.437-1.018-1.022-1.018-1.749v-6.081h2.893v5.946c0 0.719 0.52 1.082 1.57 1.082h0.22v-7.028h2.895v7.028h0.211c1.058 0 1.585-0.363 1.585-1.082v-5.946h2.895v6.081z" fill="#6d1f80"/>
<path d="m240.36 62.515h-2.766v-4.685c0-0.812-0.246-1.407-0.747-1.779-0.472-0.375-1.351-0.564-2.632-0.564h-1.077v-1.436h2.56c0.783 0 1.459 0.072 2.043 0.214 0.583 0.141 1.072 0.359 1.461 0.655 0.771 0.561 1.158 1.339 1.158 2.342z" fill="#6d1f80"/>
<path d="m240.36 62.515h-2.766v-4.685c0-0.812-0.246-1.407-0.747-1.779-0.472-0.375-1.351-0.564-2.632-0.564h-1.077v-1.436h2.56c0.783 0 1.459 0.072 2.043 0.214 0.583 0.141 1.072 0.359 1.461 0.655 0.771 0.561 1.158 1.339 1.158 2.342z" fill="#6d1f80"/>
<path d="m256.02 62.515h-2.595v-0.856c-0.389 0.333-0.833 0.571-1.324 0.714-0.499 0.12-1.051 0.185-1.659 0.185-0.831 0-1.513-0.21-2.042-0.633-0.535-0.424-0.797-1.016-0.797-1.783v-2.863c0-1.198-0.794-1.793-2.382-1.793h-0.845v5.593h1.255v1.436h-3.855v-8.464h4.017c1.418 0 2.508 0.24 3.27 0.709 0.759 0.477 1.137 1.121 1.137 1.951v3.393c0 0.195 0.026 0.36 0.082 0.509 0.05 0.144 0.139 0.27 0.261 0.378 0.141 0.089 0.311 0.156 0.51 0.202 0.211 0.044 0.46 0.064 0.751 0.064 0.412 0 0.775-0.11 1.118-0.337 0.337-0.228 0.505-0.486 0.505-0.778v-6.091h2.595v8.464z" fill="#6d1f80"/>
<path d="m256.02 62.515h-2.595v-0.856c-0.389 0.333-0.833 0.571-1.324 0.714-0.499 0.12-1.051 0.185-1.659 0.185-0.831 0-1.513-0.21-2.042-0.633-0.535-0.424-0.797-1.016-0.797-1.783v-2.863c0-1.198-0.794-1.793-2.382-1.793h-0.845v5.593h1.255v1.436h-3.855v-8.464h4.017c1.418 0 2.508 0.24 3.27 0.709 0.759 0.477 1.137 1.121 1.137 1.951v3.393c0 0.195 0.026 0.36 0.082 0.509 0.05 0.144 0.139 0.27 0.261 0.378 0.141 0.089 0.311 0.156 0.51 0.202 0.211 0.044 0.46 0.064 0.751 0.064 0.412 0 0.775-0.11 1.118-0.337 0.337-0.228 0.505-0.486 0.505-0.778v-6.091h2.595v8.464z" fill="#6d1f80"/>
<rect x="247.79" y="51.241" width="8.329" height="1.283" fill="#6d1f80"/>
<rect x="247.79" y="51.241" width="8.329" height="1.283" fill="#6d1f80"/>
<path d="m266.46 58.897c0 1.239-0.339 2.153-1.026 2.738-0.689 0.584-1.78 0.879-3.286 0.879h-4.594v-4.953c0-0.37 0.217-0.715 0.647-1.041 0.454-0.298 0.683-0.563 0.683-0.793v-0.24h-1.521v-1.436h4.283v1.5c0 0.19-0.05 0.378-0.154 0.554-0.106 0.176-0.282 0.36-0.525 0.554-0.199 0.179-0.359 0.359-0.475 0.544-0.123 0.188-0.179 0.373-0.179 0.548v3.329h0.779c0.987 0 1.667-0.158 2.045-0.475 0.378-0.319 0.56-0.885 0.56-1.706 0-0.474-0.158-0.873-0.483-1.187-0.249-0.319-0.657-0.521-1.228-0.611v-1.272c0.656-0.04 1.107-0.202 1.351-0.485 0.111-0.123 0.196-0.296 0.264-0.511 0.062-0.216 0.097-0.479 0.097-0.781h2.763c0 0.363-0.038 0.686-0.135 0.96-0.088 0.276-0.243 0.514-0.456 0.719-0.363 0.36-0.875 0.605-1.553 0.729 0.327 0.076 0.626 0.19 0.887 0.343 0.267 0.158 0.488 0.354 0.666 0.588 0.394 0.444 0.59 0.949 0.59 1.506" fill="#6d1f80"/>
<path d="m266.46 58.897c0 1.239-0.339 2.153-1.026 2.738-0.689 0.584-1.78 0.879-3.286 0.879h-4.594v-4.953c0-0.37 0.217-0.715 0.647-1.041 0.454-0.298 0.683-0.563 0.683-0.793v-0.24h-1.521v-1.436h4.283v1.5c0 0.19-0.05 0.378-0.154 0.554-0.106 0.176-0.282 0.36-0.525 0.554-0.199 0.179-0.359 0.359-0.475 0.544-0.123 0.188-0.179 0.373-0.179 0.548v3.329h0.779c0.987 0 1.667-0.158 2.045-0.475 0.378-0.319 0.56-0.885 0.56-1.706 0-0.474-0.158-0.873-0.483-1.187-0.249-0.319-0.657-0.521-1.228-0.611v-1.272c0.656-0.04 1.107-0.202 1.351-0.485 0.111-0.123 0.196-0.296 0.264-0.511 0.062-0.216 0.097-0.479 0.097-0.781h2.763c0 0.363-0.038 0.686-0.135 0.96-0.088 0.276-0.243 0.514-0.456 0.719-0.363 0.36-0.875 0.605-1.553 0.729 0.327 0.076 0.626 0.19 0.887 0.343 0.267 0.158 0.488 0.354 0.666 0.588 0.394 0.444 0.59 0.949 0.59 1.506z" fill="#6d1f80"/>
<path d="m271.56 62.514c-1.226 0-2.222-0.211-2.982-0.633-0.707-0.433-1.059-1.01-1.059-1.736 0-0.548 0.205-1.011 0.623-1.39 0.203-0.185 0.435-0.345 0.688-0.491 0.263-0.141 0.547-0.259 0.869-0.354-0.366-0.07-0.678-0.159-0.932-0.264-0.26-0.108-0.492-0.243-0.694-0.413-0.369-0.334-0.554-0.747-0.554-1.237 0-0.554 0.284-1.019 0.865-1.385 0.574-0.372 1.314-0.56 2.229-0.56h1.178v1.388c-0.993 0-1.488 0.279-1.488 0.833 0 0.319 0.202 0.551 0.596 0.7 0.182 0.064 0.409 0.12 0.672 0.157 0.26 0.039 0.552 0.056 0.865 0.056h1.611v-3.134h2.781v8.463h-5.268m2.486-1.435v-2.462h-1.461c-0.663 0-1.217 0.118-1.656 0.347-0.215 0.11-0.372 0.243-0.478 0.393-0.103 0.143-0.149 0.33-0.149 0.557 0 0.378 0.208 0.674 0.627 0.885 0.428 0.188 1.02 0.281 1.764 0.281h1.353z" fill="#6d1f80"/>
<path d="m271.56 62.514c-1.226 0-2.222-0.211-2.982-0.633-0.707-0.433-1.059-1.01-1.059-1.736 0-0.548 0.205-1.011 0.623-1.39 0.203-0.185 0.435-0.345 0.688-0.491 0.263-0.141 0.547-0.259 0.869-0.354-0.366-0.07-0.678-0.159-0.932-0.264-0.26-0.108-0.492-0.243-0.694-0.413-0.369-0.334-0.554-0.747-0.554-1.237 0-0.554 0.284-1.019 0.865-1.385 0.574-0.372 1.314-0.56 2.229-0.56h1.178v1.388c-0.993 0-1.488 0.279-1.488 0.833 0 0.319 0.202 0.551 0.596 0.7 0.182 0.064 0.409 0.12 0.672 0.157 0.26 0.039 0.552 0.056 0.865 0.056h1.611v-3.134h2.781v8.463h-5.268m2.486-1.435v-2.462h-1.461c-0.663 0-1.217 0.118-1.656 0.347-0.215 0.11-0.372 0.243-0.478 0.393-0.103 0.143-0.149 0.33-0.149 0.557 0 0.378 0.208 0.674 0.627 0.885 0.428 0.188 1.02 0.281 1.764 0.281h1.353z" fill="#6d1f80"/>
<path d="m277.36 51.654h-0.724c-0.68 0-1.014 0.172-1.014 0.524v0.33h-2.938v-0.521c0-0.974 0.972-1.462 2.915-1.462h1.761z" fill="#6d1f80"/>
<path d="m277.36 51.654h-0.724c-0.68 0-1.014 0.172-1.014 0.524v0.33h-2.938v-0.521c0-0.974 0.972-1.462 2.915-1.462h1.761z" fill="#6d1f80"/>
<path d="m213.15 62.514c-1.185 0-2.147-0.211-2.892-0.633-0.686-0.433-1.033-1.01-1.033-1.736 0-0.548 0.207-1.011 0.611-1.39 0.197-0.185 0.422-0.345 0.674-0.491 0.249-0.141 0.527-0.259 0.832-0.354-0.352-0.07-0.65-0.159-0.899-0.264-0.252-0.108-0.472-0.243-0.669-0.413-0.363-0.334-0.549-0.747-0.549-1.237 0-0.554 0.283-1.019 0.849-1.385 0.563-0.372 1.278-0.56 2.159-0.56h1.143v1.388c-0.965 0-1.444 0.279-1.444 0.833 0 0.319 0.193 0.551 0.58 0.7 0.179 0.064 0.396 0.12 0.649 0.157 0.253 0.039 0.537 0.056 0.845 0.056h1.562v-3.134h2.698v8.463h-5.116m2.416-1.435v-2.462h-1.415c-0.645 0-1.184 0.118-1.616 0.347-0.201 0.11-0.355 0.243-0.455 0.393-0.102 0.143-0.149 0.33-0.149 0.557 0 0.378 0.202 0.674 0.604 0.885 0.421 0.188 0.992 0.281 1.713 0.281h1.318z" fill="#6d1f80"/>
<path d="m213.15 62.514c-1.185 0-2.147-0.211-2.892-0.633-0.686-0.433-1.033-1.01-1.033-1.736 0-0.548 0.207-1.011 0.611-1.39 0.197-0.185 0.422-0.345 0.674-0.491 0.249-0.141 0.527-0.259 0.832-0.354-0.352-0.07-0.65-0.159-0.899-0.264-0.252-0.108-0.472-0.243-0.669-0.413-0.363-0.334-0.549-0.747-0.549-1.237 0-0.554 0.283-1.019 0.849-1.385 0.563-0.372 1.278-0.56 2.159-0.56h1.143v1.388c-0.965 0-1.444 0.279-1.444 0.833 0 0.319 0.193 0.551 0.58 0.7 0.179 0.064 0.396 0.12 0.649 0.157 0.253 0.039 0.537 0.056 0.845 0.056h1.562v-3.134h2.698v8.463h-5.116m2.416-1.435v-2.462h-1.415c-0.645 0-1.184 0.118-1.616 0.347-0.201 0.11-0.355 0.243-0.455 0.393-0.102 0.143-0.149 0.33-0.149 0.557 0 0.378 0.202 0.674 0.604 0.885 0.421 0.188 0.992 0.281 1.713 0.281h1.318z" fill="#6d1f80"/>
<rect x="63.549" y=".0039997" width="62.669" height="62.668" fill="#6d1f80"/>
<path d="m95.152 10.647-14.905 13.502-5.625 22.021 10.646 5.015h8.485v-8.81s-14.881 7.853-11.001-9.74c1.331-6.015 8.563-14.11 12.401-15.972 3.84 1.861 11.068 9.957 12.4 15.972 3.886 17.593-10.995 9.74-10.995 9.74v8.81h8.483l10.644-5.015-5.624-22.021z" fill="#f9b200"/>
<rect y="5.502" width="63.56" height="2.197" fill="#b18ebc"/>
<rect width="63.56" height="2.2" fill="#b18ebc"/>
<rect y="10.993" width="63.56" height="2.202" fill="#b18ebc"/>
<rect y="16.492" width="63.56" height="2.2" fill="#b18ebc"/>
<rect y="21.993" width="63.56" height="2.2" fill="#b18ebc"/>
<rect y="27.49" width="63.56" height="2.197" fill="#b18ebc"/>
<rect y="32.985" width="63.56" height="2.2" fill="#b18ebc"/>
<rect y="38.482" width="63.56" height="2.202" fill="#b18ebc"/>
<rect y="43.984" width="63.56" height="2.196" fill="#b18ebc"/>
<rect y="49.481" width="63.56" height="2.199" fill="#b18ebc"/>
<polyline transform="translate(-4.891 -9.331)" points="4.891 66.507 4.891 64.308 68.451 64.308 68.451 66.507 4.891 66.507" fill="#b18ebc"/>
<polyline transform="translate(-4.891 -9.331)" points="4.891 69.807 68.451 69.807 68.451 72.004 4.891 72.004" fill="#b18ebc"/>
<path d="m137.22 43.648c0.82 0.494 1.891 0.75 3.193 0.771 0.53 0.011 0.971-0.062 1.337-0.223 0.381-0.146 0.576-0.452 0.585-0.911 0-0.279-0.074-0.507-0.219-0.686-0.153-0.179-0.365-0.326-0.63-0.431-0.259-0.115-0.543-0.226-0.864-0.319-0.316-0.106-0.655-0.212-1.015-0.319-0.329-0.114-0.657-0.255-0.98-0.425-0.332-0.165-0.628-0.369-0.895-0.612-0.577-0.481-0.876-1.233-0.885-2.262 0-0.703 0.158-1.287 0.473-1.755 0.3-0.467 0.693-0.833 1.178-1.104 0.489-0.261 1.03-0.454 1.61-0.568 0.581-0.098 1.16-0.146 1.746-0.146 1.149 0.012 2.138 0.152 2.957 0.425l-0.196 2.382c-0.827-0.354-1.694-0.533-2.598-0.533-0.189 0-0.401 5e-3 -0.634 0.017-0.238 0.019-0.462 0.063-0.69 0.129-0.489 0.127-0.744 0.44-0.763 0.938 0 0.234 0.081 0.422 0.25 0.565 0.156 0.145 0.368 0.273 0.633 0.366 0.264 0.092 0.563 0.186 0.896 0.288 0.323 0.102 0.655 0.207 0.979 0.319 0.362 0.1 0.7 0.231 1.017 0.397 0.328 0.17 0.616 0.376 0.872 0.621 0.265 0.241 0.474 0.551 0.628 0.921 0.143 0.366 0.218 0.819 0.218 1.354-0.033 1.47-0.548 2.484-1.554 3.037-0.993 0.552-2.156 0.82-3.492 0.806-1.163 0-2.306-0.163-3.418-0.495z" fill="#6d1f80"/>
<rect x="146.98" y="34.875" width="2.988" height="11.597" fill="#6d1f80"/>
<path d="m155.25 34.875h3.673l4.334 11.597h-3.286l-0.837-2.487h-4.223l-0.888 2.487h-3.047zm2.038 2.399h-0.042l-1.493 4.521h2.908z" fill="#6d1f80"/>
<polygon transform="translate(-4.891 -9.331)" points="176.25 51.918 176.28 51.918 178.78 44.206 183.33 44.206 183.33 55.803 180.4 55.803 180.45 46.885 180.42 46.885 177.55 55.803 174.79 55.803 172.04 46.885 172.01 46.885 172.08 55.803 169.14 55.803 169.14 44.206 173.87 44.206" fill="#6d1f80"/>
<path d="m194.42 46.225c-0.407 0.111-0.876 0.212-1.4 0.296-0.53 0.104-1.175 0.162-1.938 0.168-0.748 0-1.5-0.111-2.25-0.328-0.762-0.215-1.458-0.554-2.091-1.021-1.362-0.913-2.065-2.452-2.106-4.622 0.018-2.03 0.629-3.551 1.83-4.565 1.186-0.999 2.72-1.497 4.606-1.497 1.148 0.021 2.261 0.224 3.331 0.602l-0.24 2.516c-0.947-0.564-1.925-0.843-2.938-0.843-1.072 0.011-1.916 0.369-2.54 1.075-0.636 0.691-0.961 1.597-0.97 2.713 9e-3 1.154 0.363 2.056 1.06 2.71 0.682 0.658 1.58 0.99 2.699 0.99 1.022-0.01 1.957-0.214 2.805-0.609z" fill="#6d1f80"/>
<path d="m195.23 40.671c0.011-3.944 1.892-5.951 5.645-6.016 3.747 0.064 5.628 2.071 5.64 6.016-0.023 3.934-1.904 5.938-5.64 6.018-3.745-0.081-5.623-2.084-5.645-6.018m3.081 0c0 0.998 0.206 1.865 0.618 2.59 0.398 0.761 1.047 1.147 1.945 1.156 0.918-9e-3 1.576-0.396 1.967-1.156 0.395-0.725 0.588-1.592 0.588-2.59 0-1.052-0.193-1.937-0.588-2.654-0.391-0.712-1.049-1.078-1.967-1.087-0.898 9e-3 -1.547 0.375-1.945 1.087-0.412 0.717-0.618 1.602-0.618 2.654" fill="#6d1f80"/>
<polygon transform="translate(-4.891 -9.331)" points="220 51.918 220.03 51.918 222.53 44.206 227.08 44.206 227.08 55.803 224.16 55.803 224.2 46.885 224.18 46.885 221.3 55.803 218.54 55.803 215.79 46.885 215.76 46.885 215.83 55.803 212.9 55.803 212.9 44.206 217.62 44.206" fill="#6d1f80"/>
<polygon transform="translate(-4.891 -9.331)" points="236.14 51.918 236.16 51.918 238.66 44.206 243.21 44.206 243.21 55.803 240.29 55.803 240.34 46.885 240.3 46.885 237.43 55.803 234.68 55.803 231.92 46.885 231.89 46.885 231.97 55.803 229.03 55.803 229.03 44.206 233.75 44.206" fill="#6d1f80"/>
<polygon transform="translate(-4.891 -9.331)" points="253.08 46.384 248.15 46.384 248.15 48.792 252.81 48.792 252.81 50.969 248.15 50.969 248.15 53.625 253.26 53.625 253.26 55.803 245.16 55.803 245.16 44.206 253.08 44.206" fill="#6d1f80"/>
<path d="m249.74 34.875h5.349c1.029 0 1.891 0.238 2.576 0.709 0.686 0.476 1.034 1.211 1.051 2.204 0 1.567-0.72 2.542-2.161 2.914v0.042c0.237 0.063 0.439 0.161 0.597 0.293 0.142 0.132 0.259 0.313 0.355 0.535 0.105 0.212 0.203 0.464 0.305 0.75 0.098 0.285 0.209 0.616 0.338 0.982l1.095 3.167h-3.123l-0.649-2.093c-0.276-0.972-0.563-1.643-0.856-2.01-0.299-0.33-0.715-0.492-1.251-0.479h-0.627v4.582h-2.997v-11.596m2.995 4.837h0.841c0.138 0 0.275-0.014 0.413-0.032 0.126 0 0.258-0.011 0.393-0.02 0.273-0.021 0.527-0.07 0.753-0.152 0.231-0.082 0.425-0.217 0.577-0.396 0.133-0.193 0.208-0.445 0.208-0.762-0.017-0.542-0.246-0.896-0.708-1.058-0.446-0.161-0.992-0.238-1.636-0.238h-0.841z" fill="#6d1f80"/>
<path d="m269.97 46.225c-0.407 0.111-0.873 0.212-1.399 0.296-0.531 0.104-1.173 0.162-1.939 0.168-0.75 0-1.498-0.111-2.252-0.328-0.761-0.215-1.458-0.554-2.091-1.021-1.364-0.913-2.065-2.452-2.104-4.622 0.019-2.03 0.631-3.551 1.828-4.565 1.184-0.999 2.723-1.497 4.609-1.497 1.148 0.021 2.258 0.224 3.334 0.602l-0.243 2.516c-0.946-0.564-1.925-0.843-2.936-0.843-1.072 0.011-1.922 0.369-2.546 1.075-0.633 0.691-0.958 1.597-0.969 2.713 0.011 1.154 0.363 2.056 1.061 2.71 0.678 0.658 1.578 0.99 2.697 0.99 1.022-0.01 1.96-0.214 2.81-0.609z" fill="#6d1f80"/>
<rect x="271.33" y="34.875" width="2.991" height="11.597" fill="#6d1f80"/>
<path d="m279.6 34.875h3.677l4.334 11.597h-3.291l-0.835-2.487h-4.225l-0.89 2.487h-3.039zm2.042 2.399h-0.041l-1.494 4.522h2.906z" fill="#6d1f80"/>
<polygon transform="translate(-4.891 -9.331)" points="296.58 53.532 301.23 53.532 301.23 55.803 293.6 55.803 293.6 44.206 296.58 44.206" fill="#6d1f80"/>
<path d="m301.74 34.876h5.275c1.097 0 1.99 0.237 2.684 0.712 0.689 0.488 1.041 1.228 1.053 2.227-0.021 1.415-0.706 2.317-2.048 2.709v0.033c1.559 0.298 2.344 1.148 2.358 2.558-0.015 0.674-0.144 1.235-0.393 1.678-0.264 0.443-0.618 0.791-1.058 1.031-0.437 0.247-0.915 0.411-1.427 0.504-0.535 0.098-1.069 0.145-1.607 0.145h-4.838v-11.597m2.993 4.585h0.896c0.549 8e-3 1.041-0.079 1.478-0.27 0.421-0.179 0.642-0.504 0.651-0.974-0.01-0.523-0.224-0.854-0.637-1.001-0.19-0.085-0.406-0.133-0.647-0.149-0.263-9e-3 -0.536-0.015-0.814-0.015h-0.926v2.409m-1e-3 4.833h0.943c0.305 0 0.603-0.026 0.901-0.073 0.131-0.021 0.276-0.049 0.411-0.079 0.129-0.022 0.246-0.059 0.345-0.103 0.232-0.099 0.417-0.236 0.557-0.415 0.123-0.171 0.186-0.401 0.186-0.688 0-0.319-0.067-0.574-0.208-0.769-0.135-0.184-0.319-0.324-0.548-0.424-0.23-0.104-0.484-0.162-0.759-0.185-0.272-9e-3 -0.56-0.018-0.851-0.018h-0.978v2.754z" fill="#6d1f80"/>
<path d="m315.98 34.875h3.674l4.335 11.597h-3.292l-0.833-2.487h-4.221l-0.894 2.487h-3.044zm2.039 2.399h-0.041l-1.494 4.521h2.909z" fill="#6d1f80"/>
<polygon transform="translate(-4.891 -9.331)" points="337.62 52.075 337.65 52.075 337.6 44.206 340.32 44.206 340.32 55.803 336.59 55.803 332.66 47.859 332.63 47.859 332.72 55.803 330 55.803 330 44.206 333.82 44.206" fill="#6d1f80"/>
<polygon transform="translate(-4.891 -9.331)" points="345.39 48.944 345.43 48.944 348.81 44.206 352.42 44.206 348.26 49.604 352.74 55.803 348.92 55.803 345.43 50.532 345.39 50.532 345.39 55.803 342.4 55.803 342.4 44.206 345.39 44.206" fill="#6d1f80"/>
</svg>
