<?xml version="1.0" encoding="UTF-8"?>
<svg version="1.1" viewBox="0 0 123.63 29.276" xmlns="http://www.w3.org/2000/svg" xmlns:cc="http://creativecommons.org/ns#" xmlns:dc="http://purl.org/dc/elements/1.1/" xmlns:rdf="http://www.w3.org/1999/02/22-rdf-syntax-ns#">
<metadata>
<rdf:RDF>
<cc:Work rdf:about="">
<dc:format>image/svg+xml</dc:format>
<dc:type rdf:resource="http://purl.org/dc/dcmitype/StillImage"/>
<dc:title/>
</cc:Work>
</rdf:RDF>
</metadata>
<g transform="translate(-.035)" fill-rule="evenodd">
<path d="m56.91 12.318h-8.65v-3.316h7.69v-2.843h-7.69v-3.316h8.65v-2.843h-11.535v15.16h11.535zm15.225 2.842v-15.16h-2.884v9.95l-5.767-9.95h-2.884v15.16h2.884v-10.422l5.766 10.422h2.884zm36.032 0v-15.16h-2.883v9.95l-5.768-9.95h-2.884v15.16h2.884v-10.422l5.768 10.422zm-29.457-12.317h7.69v-2.843h-10.575v15.196h2.884v-6.194h6.729v-2.78h-6.73v-3.38zm14.105 12.353v-15.196h-2.78v15.196zm24.783-15.196c-3.005 0-5.588 1.398-5.588 4.248 0 2.849 2.025 3.948 5.234 4.71 2.322 0.54 3.141 1.302 3.141 2.603 0 1.19-1.092 1.704-2.526 1.704-1.593 0-3.145-0.473-3.3-2.332h-3.21c0.296 3.253 2.754 4.263 6.51 4.263 3.095 0 5.803-1.032 5.803-3.949 0-2.49-1.547-4.06-5.007-4.846-2.503-0.583-3.345-1.234-3.345-2.535 0-1.256 0.944-1.497 2.196-1.497 1.639 0 2.975 0 2.72 2.215h3.209c-0.342-2.76-2.082-4.584-5.837-4.584z" fill="#397dda"/>
<path d="m8.838 0-8.803 13.169 8.803 13.169h10.562l1.76-3.293h-9.68l-5.722-8.23h14.522l-1.76-3.292h-12.763l5.722-8.23h9.682l-1.76-3.293z" fill="#27283f"/>
<path d="m21.883 11.523 4.565 8.226-3.652 6.589h4.562l3.647-6.58-4.56-8.235zm0.83-11.523 9.712 18.107 2.312-4.311-7.4-13.796z" fill="#397dda"/>
<path d="m49.991 22.175c0 0.717-0.238 1.266-0.715 1.648s-1.156 0.573-2.036 0.573h-0.725v2.57h-1.14v-6.867h2.008c0.871 0 1.523 0.175 1.957 0.526 0.434 0.35 0.651 0.867 0.651 1.55zm-3.476 1.277h0.606c0.585 0 1.014-0.1 1.287-0.3 0.274-0.2 0.41-0.514 0.41-0.94 0-0.394-0.122-0.689-0.367-0.883s-0.626-0.291-1.144-0.291h-0.792zm8.154 3.513-0.224-0.723h-0.038c-0.255 0.316-0.51 0.532-0.768 0.646-0.257 0.114-0.588 0.171-0.992 0.171-0.518 0-0.923-0.137-1.213-0.413-0.291-0.276-0.437-0.665-0.437-1.17 0-0.535 0.202-0.939 0.606-1.211 0.404-0.273 1.019-0.421 1.845-0.446l0.911-0.029v-0.277c0-0.332-0.079-0.58-0.236-0.744-0.157-0.165-0.401-0.247-0.732-0.247-0.27 0-0.53 0.04-0.777 0.118a5.92 5.92 0 0 0 -0.716 0.277l-0.362-0.79c0.286-0.147 0.6-0.258 0.94-0.335s0.66-0.115 0.963-0.115c0.67 0 1.177 0.144 1.519 0.432 0.341 0.288 0.512 0.74 0.512 1.357v3.5h-0.801zm-1.669-0.751c0.407 0 0.734-0.112 0.98-0.336s0.37-0.538 0.37-0.942v-0.45l-0.678 0.028c-0.527 0.018-0.911 0.105-1.151 0.26s-0.36 0.392-0.36 0.712c0 0.232 0.07 0.41 0.21 0.538 0.14 0.126 0.35 0.19 0.629 0.19zm3.338-4.443h1.22l1.073 2.945c0.163 0.42 0.27 0.814 0.325 1.183h0.038c0.028-0.172 0.08-0.381 0.157-0.627s0.48-1.413 1.211-3.501h1.212l-2.256 5.885c-0.41 1.08-1.093 1.62-2.05 1.62-0.248 0-0.49-0.026-0.725-0.08v-0.873c0.168 0.037 0.36 0.056 0.577 0.056 0.54 0 0.92-0.308 1.14-0.925l0.195-0.489zm10.586 5.194h-1.126v-3.203c0-0.398-0.076-0.694-0.229-0.89-0.152-0.196-0.39-0.293-0.715-0.293-0.432 0-0.75 0.138-0.951 0.415-0.202 0.277-0.303 0.738-0.303 1.383v2.588h-1.12v-5.194h0.877l0.157 0.68h0.057c0.147-0.247 0.359-0.438 0.637-0.572 0.278-0.135 0.584-0.202 0.918-0.202 0.81 0 1.348 0.272 1.612 0.817h0.076c0.156-0.257 0.375-0.457 0.658-0.601s0.607-0.216 0.973-0.216c0.63 0 1.088 0.156 1.376 0.47 0.287 0.313 0.431 0.79 0.431 1.432v3.386h-1.12v-3.203c0-0.398-0.077-0.694-0.232-0.89-0.154-0.196-0.393-0.293-0.717-0.293-0.436 0-0.755 0.133-0.956 0.401-0.202 0.268-0.303 0.679-0.303 1.233zm7.3 0.094c-0.82 0-1.461-0.235-1.924-0.707-0.462-0.47-0.694-1.12-0.694-1.946 0-0.849 0.215-1.516 0.644-2.001 0.43-0.486 1.019-0.728 1.77-0.728 0.695 0 1.245 0.208 1.65 0.624 0.403 0.417 0.605 0.99 0.605 1.72v0.596h-3.515c0.016 0.504 0.154 0.892 0.415 1.162 0.26 0.271 0.628 0.407 1.102 0.407 0.311 0 0.601-0.03 0.87-0.087a4.61 4.61 0 0 0 0.865 -0.289v0.897c-0.273 0.128-0.55 0.22-0.83 0.272-0.28 0.054-0.599 0.08-0.958 0.08zm-0.205-4.546c-0.356 0-0.641 0.111-0.856 0.333-0.214 0.223-0.342 0.547-0.384 0.973h2.394c-6e-3 -0.43-0.111-0.754-0.315-0.975-0.203-0.22-0.483-0.331-0.839-0.331zm8.273 4.452h-1.125v-3.193c0-0.401-0.082-0.7-0.246-0.898-0.163-0.197-0.423-0.295-0.78-0.295-0.473 0-0.82 0.137-1.039 0.413-0.22 0.275-0.329 0.737-0.329 1.385v2.588h-1.12v-5.194h0.877l0.157 0.68h0.058c0.158-0.247 0.384-0.438 0.677-0.572 0.292-0.135 0.616-0.202 0.972-0.202 1.266 0 1.898 0.634 1.898 1.902zm3.629-0.798c0.273 0 0.547-0.042 0.82-0.127v0.831a2.289 2.289 0 0 1 -0.48 0.134 3.35 3.35 0 0 1 -0.607 0.054c-1.062 0-1.593-0.55-1.593-1.653v-2.8h-0.72v-0.488l0.773-0.404 0.381-1.099h0.692v1.156h1.502v0.836h-1.502v2.78c0 0.266 0.067 0.463 0.202 0.59s0.313 0.19 0.532 0.19zm8.76-1.066c0 0.61-0.225 1.09-0.673 1.437-0.448 0.348-1.067 0.521-1.855 0.521s-1.434-0.12-1.936-0.361v-1.062c0.318 0.147 0.656 0.263 1.013 0.348 0.358 0.084 0.69 0.127 1 0.127 0.45 0 0.784-0.085 0.998-0.254a0.822 0.822 0 0 0 0.322 -0.681 0.848 0.848 0 0 0 -0.295 -0.653c-0.198-0.178-0.604-0.39-1.221-0.634-0.636-0.254-1.084-0.543-1.345-0.869-0.26-0.326-0.391-0.717-0.391-1.174 0-0.573 0.207-1.024 0.62-1.353s0.968-0.493 1.664-0.493a4.95 4.95 0 0 1 1.993 0.432l-0.362 0.916c-0.62-0.257-1.173-0.385-1.66-0.385-0.368 0-0.648 0.079-0.839 0.237a0.774 0.774 0 0 0 -0.286 0.627c0 0.179 0.038 0.331 0.115 0.458 0.076 0.127 0.201 0.247 0.376 0.36 0.175 0.112 0.49 0.26 0.945 0.446 0.511 0.21 0.886 0.405 1.125 0.587 0.238 0.181 0.413 0.386 0.524 0.615 0.112 0.228 0.167 0.498 0.167 0.808zm0.533-3.33h1.22l1.074 2.945c0.162 0.42 0.27 0.814 0.324 1.183h0.038c0.029-0.172 0.081-0.381 0.158-0.627 0.076-0.246 0.48-1.413 1.21-3.501h1.212l-2.255 5.885c-0.41 1.08-1.094 1.62-2.051 1.62-0.248 0-0.49-0.026-0.725-0.08v-0.873c0.169 0.037 0.361 0.056 0.577 0.056 0.54 0 0.92-0.308 1.14-0.925l0.195-0.489zm9.685 3.715c0 0.507-0.188 0.896-0.563 1.167-0.375 0.27-0.912 0.406-1.612 0.406-0.702 0-1.266-0.105-1.692-0.314v-0.954c0.62 0.282 1.196 0.423 1.73 0.423 0.69 0 1.035-0.205 1.035-0.615a0.483 0.483 0 0 0 -0.114 -0.33 1.353 1.353 0 0 0 -0.377 -0.272 6.533 6.533 0 0 0 -0.73 -0.319c-0.607-0.232-1.018-0.463-1.232-0.695-0.215-0.232-0.322-0.532-0.322-0.902 0-0.445 0.182-0.79 0.546-1.036 0.364-0.245 0.86-0.368 1.485-0.368 0.62 0 1.207 0.123 1.76 0.37l-0.362 0.832c-0.57-0.232-1.048-0.347-1.436-0.347-0.591 0-0.887 0.166-0.887 0.497 0 0.163 0.077 0.301 0.232 0.414 0.154 0.112 0.49 0.267 1.008 0.465 0.436 0.166 0.752 0.318 0.95 0.455 0.196 0.138 0.342 0.297 0.438 0.477 0.095 0.18 0.143 0.395 0.143 0.646zm3.28 0.68c0.274 0 0.547-0.041 0.82-0.126v0.831a2.289 2.289 0 0 1 -0.479 0.134 3.35 3.35 0 0 1 -0.608 0.054c-1.061 0-1.592-0.55-1.592-1.653v-2.8h-0.72v-0.488l0.772-0.404 0.382-1.099h0.691v1.156h1.502v0.836h-1.502v2.78c0 0.266 0.068 0.463 0.203 0.59s0.312 0.19 0.531 0.19zm4.282 0.893c-0.82 0-1.461-0.235-1.924-0.707-0.462-0.47-0.694-1.12-0.694-1.946 0-0.849 0.215-1.516 0.644-2.001 0.43-0.486 1.019-0.728 1.77-0.728 0.695 0 1.245 0.208 1.65 0.624 0.403 0.417 0.605 0.99 0.605 1.72v0.596h-3.515c0.016 0.504 0.155 0.892 0.415 1.162 0.26 0.271 0.628 0.407 1.102 0.407 0.311 0 0.601-0.03 0.87-0.087a4.61 4.61 0 0 0 0.866 -0.289v0.897c-0.274 0.128-0.55 0.22-0.83 0.272-0.28 0.054-0.6 0.08-0.959 0.08zm-0.205-4.546c-0.356 0-0.641 0.111-0.856 0.333-0.214 0.223-0.342 0.547-0.384 0.973h2.394c-6e-3 -0.43-0.111-0.754-0.314-0.975-0.204-0.22-0.484-0.331-0.84-0.331zm8.078 4.452h-1.125v-3.203c0-0.398-0.077-0.694-0.23-0.89-0.152-0.196-0.39-0.293-0.715-0.293-0.432 0-0.749 0.138-0.95 0.415-0.203 0.277-0.304 0.738-0.304 1.383v2.588h-1.12v-5.194h0.877l0.157 0.68h0.058c0.146-0.247 0.358-0.438 0.636-0.572 0.278-0.135 0.584-0.202 0.918-0.202 0.81 0 1.348 0.272 1.612 0.817h0.076c0.156-0.257 0.375-0.457 0.658-0.601s0.608-0.216 0.973-0.216c0.63 0 1.088 0.156 1.376 0.47 0.288 0.313 0.431 0.79 0.431 1.432v3.386h-1.12v-3.203c0-0.398-0.077-0.694-0.231-0.89-0.155-0.196-0.394-0.293-0.718-0.293-0.436 0-0.754 0.133-0.956 0.401s-0.303 0.679-0.303 1.233z" fill="#27283f"/>
</g>
</svg>
