<svg id="Layer_1" data-name="Layer 1" xmlns="http://www.w3.org/2000/svg" width="600" height="600" viewBox="0 0 600 600">
  <defs>
    <style>
      .cls-1 {
        fill: #fff;
      }

      .cls-2 {
        fill: #010101;
      }

      .cls-3 {
        fill: #9b9e9f;
      }
    </style>
  </defs>
  <path id="rect578" class="cls-1" d="M90,0H510a89.8,89.8,0,0,1,90,90V510a89.8,89.8,0,0,1-90,90H90A89.8,89.8,0,0,1,0,510V90A89.8,89.8,0,0,1,90,0Z"/>
  <path id="rect578-2" data-name="rect578" class="cls-1" d="M90,0H510a89.75,89.75,0,0,1,90,90V510a89.75,89.75,0,0,1-90,90H90A89.75,89.75,0,0,1,0,510V90A89.75,89.75,0,0,1,90,0Z"/>
  <g>
    <path class="cls-2" d="M341.65,328.63c0-22.3,0-44.6-.06-66.89,0-2.3.7-2.72,2.81-2.71,13.08.09,26.17.05,39.26.05a69.7,69.7,0,0,1,67.11,50.4c11.76,40.81-15.66,82.72-57.87,88.39a71.14,71.14,0,0,1-9.12.59c-13.24.06-26.49,0-39.74.08-2.08,0-2.45-.6-2.44-2.53Q341.71,362.32,341.65,328.63Zm28.2,0v40.18c0,.87-.22,1.77,1.24,1.72,6.8-.23,13.64.5,20.4-.78,19.05-3.6,33.38-20.18,33.86-39.22.52-20.42-12.68-37.76-32.15-42.35-7.06-1.66-14.22-.87-21.34-1.16-1.77-.07-2.05.54-2.05,2.15C369.88,302.28,369.85,315.43,369.85,328.59Z"/>
    <path class="cls-3" d="M265.26,290.67c3.65-12.61,8.46-24.71,15.48-35.85,18.29-29,44.35-46.79,77.89-53.77a120.49,120.49,0,0,1,32.79-2.26c28.11,1.89,53.3,11.32,74.81,29.86a63.38,63.38,0,0,1,9.06,8.95c2.12,2.73,4.41,3.51,7.73,3.45,10.59-.17,20.05,8,21.78,18.47a22.55,22.55,0,0,1-16.92,25.73c-16.59,4.18-31.7-10.78-27.43-27.33.66-2.55-.41-3.86-1.83-5.38a97,97,0,0,0-31.41-22.27,100.74,100.74,0,0,0-52.33-8.81c-40.42,4.15-68.55,25.22-84,62.91-1.15,2.81-2,5.75-3,8.63a153.24,153.24,0,0,0-5.44,28c-.27,2.54.24,3.89,2.44,5.39a24.49,24.49,0,0,1-23.25,42.75c-9-3.7-14.26-10.5-15.25-20.19-1-10.1,3.06-17.92,11.47-23.53.88-.59,2-.84,2-2.34A172.73,172.73,0,0,1,265.26,290.67Z"/>
    <path class="cls-2" d="M199.11,298.77a44.37,44.37,0,0,0-63.89-.22c-16.81,17.18-16.82,44,.17,61.54a44.22,44.22,0,0,0,63.72-.28c2.31,3.78,4.6,7.52,6.88,11.27s4.5,7.57,6.9,11.26c.87,1.35.83,2.05-.45,3.1-26,21.23-64.21,21.48-90.28.26-18.58-15.12-27.8-34.85-27.25-58.84.74-32.08,24-60.68,55.53-67.81,22.57-5.12,43.24-.54,61.63,13.76,1.45,1.13,1.78,1.93.71,3.61C208.14,283.81,203.66,291.29,199.11,298.77Z"/>
    <path class="cls-2" d="M265.26,290.67a172.73,172.73,0,0,0-5.33,32.42c-.08,1.5-1.16,1.75-2,2.34-8.41,5.61-12.51,13.43-11.47,23.53,1,9.69,6.27,16.49,15.25,20.19a24.49,24.49,0,0,0,23.25-42.75c-2.2-1.5-2.71-2.85-2.44-5.39a153.24,153.24,0,0,1,5.44-28c15.94,5.18,26.91,15.78,32.41,31.42,6.93,19.7,5.07,38.75-7.94,55.53C287.15,412.5,236.72,405,221.5,366.66c-10-25.23-1.45-56.63,24.79-70.37A47.7,47.7,0,0,1,265.26,290.67Z"/>
    <path class="cls-2" d="M469.05,346.3c0-16.53,0-33.05,0-49.58,0-1.84.39-2.41,2.32-2.37,7.47.12,14.94.09,22.41,0,1.59,0,2.2.28,2.19,2.06q-.07,50.06,0,100.12c0,1.59-.43,2-2,2-7.62-.08-15.25-.1-22.88,0-1.79,0-2-.59-2-2.17C469.07,379.67,469.05,363,469.05,346.3Z"/>
  </g>
</svg>
