<svg id="Layer_1" data-name="Layer 1" xmlns="http://www.w3.org/2000/svg" viewBox="0 0 45 60"><title>IconLogo</title><path d="M35.17,46.47l.62-.62a2.7,2.7,0,0,0,0-3.81l-3.17-3.17,1.27-1.27,3.16,3.17a4.48,4.48,0,0,1,0,6.34L27,57.23a4.48,4.48,0,0,1-6.34,0L2.86,39.5a4.46,4.46,0,0,1,0-6.32l8.24-8.25,1.27,1.27L9.83,28.73,31.37,50.27l2.54-2.53-5.07-5.07L30.1,41.4ZM30.1,51.54,8.57,30,4.12,34.44a2.68,2.68,0,0,0,0,3.79L21.88,56a2.69,2.69,0,0,0,3.8,0Zm-12-48.77a4.48,4.48,0,0,1,6.34,0L42.15,20.5a4.49,4.49,0,0,1,0,6.34L32,37a4.48,4.48,0,0,1-6.34,0L7.93,19.23a4.48,4.48,0,0,1,0-6.34ZM19.33,4,9.21,14.15a2.71,2.71,0,0,0,0,3.81L26.94,35.71a2.7,2.7,0,0,0,3.81,0L40.86,25.58a2.7,2.7,0,0,0,0-3.81L23.13,4A2.69,2.69,0,0,0,19.33,4ZM20,8.46,21.24,7.2,25,11l-1.27,1.26Z"/></svg>