<svg id="Layer_1" data-name="Layer 1" xmlns="http://www.w3.org/2000/svg" viewBox="0 0 200 60"><defs><style>.cls-1{fill:#d90000;}</style></defs><title>FullLogo</title><path class="cls-1" d="M60.9,22.53H57.3v3.23H49V2.83h-3.6V29.36H60.9Z"/><path class="cls-1" d="M63.56,22.91A6.17,6.17,0,0,0,70,29.36h6.06V25.94H70a3,3,0,0,1-3-3V22H77.2V17.23a6.82,6.82,0,0,0-13.64,0Zm6.82-9.09a3.4,3.4,0,0,1,3.41,3.41v1.51H67V17.23A3.39,3.39,0,0,1,70.38,13.82Z"/><path class="cls-1" d="M85.16,10.78H79.1V14.2h2.65V29.36h3.41V15.71a5.27,5.27,0,0,1,3.6-1.89,3,3,0,0,1,2.84,3V29.36H95V15.71a5.27,5.27,0,0,1,3.61-1.89,3,3,0,0,1,2.84,3V29.36h3.41V16.85c0-3.79-2.65-6.44-5.5-6.44-3.22,0-5.11,3-5.11,3a5.7,5.7,0,0,0-4.74-3,5.33,5.33,0,0,0-4.36,2.27Z"/><path class="cls-1" d="M114.34,29.36h8V16.85a5.77,5.77,0,0,0-6.06-6.07h-4.93V14.2h4.93a2.58,2.58,0,0,1,2.65,2.65V18h-4.55a5.36,5.36,0,0,0-5.68,5.68A5.37,5.37,0,0,0,114.34,29.36Zm0-8h4.55v4.54h-4.55a2.27,2.27,0,0,1,0-4.54Z"/><path class="cls-1" d="M131.4,10.78h-6.06V14.2H128V29.36h3.41V15.71a5.38,5.38,0,0,1,3.79-1.89,3,3,0,0,1,3,3V29.36h3.41V16.85c0-3.79-2.65-6.44-5.68-6.44a5.7,5.7,0,0,0-4.55,2.27Z"/><path class="cls-1" d="M160.39,10.41a3.89,3.89,0,0,1-4,4H147.7v15h3.6V18h5.11a7.58,7.58,0,1,0,0-15.16H144.66v3.6h11.75A3.88,3.88,0,0,1,160.39,10.41Z"/><path class="cls-1" d="M170.81,29.36h8V16.85a5.77,5.77,0,0,0-6.06-6.07h-4.93V14.2h4.93a2.58,2.58,0,0,1,2.65,2.65V18h-4.55a5.36,5.36,0,0,0-5.68,5.68A5.37,5.37,0,0,0,170.81,29.36Zm0-8h4.55v4.54h-4.55a2.27,2.27,0,0,1,0-4.54Z"/><path class="cls-1" d="M189.42,23.86l-4.2-13.08h-4.93V14.2h2.46l5.12,15-.76,2.46a2.93,2.93,0,0,1-3,2.27h-1.14v3.41h1.14c3.41,0,5.31-1.89,6.44-5.68l6.26-20.85h-3.6Z"/><path d="M48.52,50H46V43.68h2.52a1.27,1.27,0,0,1,.91.37,1.23,1.23,0,0,1,.37.88h0v3.8A1.26,1.26,0,0,1,48.52,50ZM46,54.43V51.26h2.52a2.44,2.44,0,0,0,1.79-.72h0a2.46,2.46,0,0,0,.74-1.81h0v-3.8a2.46,2.46,0,0,0-.74-1.79h0a2.44,2.44,0,0,0-1.79-.72H45.37a.56.56,0,0,0-.64.63h0V54.43a.56.56,0,0,0,.19.46.67.67,0,0,0,.45.16h0a.71.71,0,0,0,.46-.15.61.61,0,0,0,.17-.47Z"/><path d="M58.64,44.31h0a1.88,1.88,0,0,0-.15-.74,2.21,2.21,0,0,0-.41-.6,1.85,1.85,0,0,0-.61-.4,1.88,1.88,0,0,0-.74-.15H54.22c-.44,0-.65.21-.65.63h0v7.58a.58.58,0,0,0,.19.47.68.68,0,0,0,.46.16h0a.64.64,0,0,0,.45-.16.57.57,0,0,0,.18-.47h0v-7h1.88a.63.63,0,0,1,.46.18.68.68,0,0,1,.17.45h0a.54.54,0,0,0,.2.46.64.64,0,0,0,.45.16h0a.68.68,0,0,0,.45-.15A.58.58,0,0,0,58.64,44.31Z"/><path d="M67.48,48.49h0v-3.3a2.77,2.77,0,0,0-2.77-2.77H64a2.76,2.76,0,0,0-2,.81h0a2.7,2.7,0,0,0-.81,2h0v3.3a2.69,2.69,0,0,0,.81,2h0a2.72,2.72,0,0,0,2,.79h.76a2.69,2.69,0,0,0,2-.79h0A2.69,2.69,0,0,0,67.48,48.49Zm-1.26-3.3v3.3a1.46,1.46,0,0,1-.44,1.07,1.44,1.44,0,0,1-1.07.44H64a1.52,1.52,0,0,1-1.52-1.51h0v-3.3A1.52,1.52,0,0,1,64,43.68h.76a1.5,1.5,0,0,1,1.51,1.51Z"/><path d="M72.53,51.26h1.91a.59.59,0,0,0,.46-.19.67.67,0,0,0,.17-.44h0a.69.69,0,0,0-.16-.45.61.61,0,0,0-.47-.18H72.53a1.17,1.17,0,0,1-.89-.37,1.19,1.19,0,0,1-.37-.9h0v-3.8a1.19,1.19,0,0,1,.37-.88,1.21,1.21,0,0,1,.89-.37h1.91a.57.57,0,0,0,.46-.2.63.63,0,0,0,.17-.43h0a.71.71,0,0,0-.16-.46.64.64,0,0,0-.47-.17H72.53a2.45,2.45,0,0,0-1.79.74A2.41,2.41,0,0,0,70,44.93h0v3.8a2.42,2.42,0,0,0,.74,1.81h0a2.47,2.47,0,0,0,1.79.72Z"/><path d="M82.65,46.21H78.86V44.93a1.25,1.25,0,0,1,1.26-1.25h1.26a1.26,1.26,0,0,1,.9.37,1.23,1.23,0,0,1,.37.88h0Zm-3.79,2.52V47.47h4.42a.56.56,0,0,0,.63-.63h0V44.93a2.46,2.46,0,0,0-.74-1.79h0a2.44,2.44,0,0,0-1.79-.72H80.12a2.45,2.45,0,0,0-1.8.74h0a2.35,2.35,0,0,0-.74,1.77h0v3.8a2.42,2.42,0,0,0,.74,1.81h0a2.47,2.47,0,0,0,1.8.72h3.16a.56.56,0,0,0,.46-.19.67.67,0,0,0,.17-.44h0a.69.69,0,0,0-.16-.45.58.58,0,0,0-.47-.18H80.12a1.19,1.19,0,0,1-.9-.37,1.22,1.22,0,0,1-.36-.9Z"/><path d="M92.36,43.1h0a.61.61,0,0,1,.36.56h0a.65.65,0,0,1-.18.46.55.55,0,0,1-.43.2h0a.66.66,0,0,1-.3-.07h0a4.87,4.87,0,0,0-2.15-.55h0a3.12,3.12,0,0,0-1.77.49h0a.42.42,0,0,0-.19.37h0a.37.37,0,0,0,.19.36h0l4,2.64a1.58,1.58,0,0,1,.59.67,2,2,0,0,1,.19.83h0a1.82,1.82,0,0,1-.2.83,1.62,1.62,0,0,1-.56.63h0a4.42,4.42,0,0,1-2.48.72h0a5.24,5.24,0,0,1-2.61-.68h0A.57.57,0,0,1,86.5,50h0a.65.65,0,0,1,.19-.46.57.57,0,0,1,.44-.2h0a.75.75,0,0,1,.33.09h0a4.09,4.09,0,0,0,2,.54h0a3,3,0,0,0,1.76-.52h0a.47.47,0,0,0,.22-.43h0a.5.5,0,0,0-.22-.42h0l-4-2.65a1.28,1.28,0,0,1-.51-.62,1.83,1.83,0,0,1-.17-.8h0a1.77,1.77,0,0,1,.19-.8,1.37,1.37,0,0,1,.49-.59h0a4.18,4.18,0,0,1,2.48-.72h0A6,6,0,0,1,92.36,43.1Z"/><path d="M101.21,43.1h0a.62.62,0,0,1,.35.56h0a.65.65,0,0,1-.18.46.53.53,0,0,1-.43.2h0a.66.66,0,0,1-.3-.07h0a4.83,4.83,0,0,0-2.14-.55h0a3.13,3.13,0,0,0-1.78.49h0a.43.43,0,0,0-.18.37h0a.38.38,0,0,0,.18.36h0l4,2.64a1.67,1.67,0,0,1,.6.67,2,2,0,0,1,.18.83h0a1.94,1.94,0,0,1-.19.83,1.73,1.73,0,0,1-.57.63h0a4.42,4.42,0,0,1-2.48.72h0a5.24,5.24,0,0,1-2.61-.68h0a.57.57,0,0,1-.35-.54h0a.65.65,0,0,1,.19-.46.57.57,0,0,1,.44-.2h0a.82.82,0,0,1,.34.09h0a4.05,4.05,0,0,0,2,.54h0a3,3,0,0,0,1.76-.52h0a.47.47,0,0,0,.22-.43h0a.5.5,0,0,0-.22-.42h0L96,46a1.36,1.36,0,0,1-.52-.62,1.83,1.83,0,0,1-.17-.8h0a1.77,1.77,0,0,1,.19-.8,1.32,1.32,0,0,1,.5-.59h0a4.18,4.18,0,0,1,2.48-.72h0A6,6,0,0,1,101.21,43.1Z"/><path d="M105.39,50.63h0V43.05a.56.56,0,0,0-.2-.47.69.69,0,0,0-.43-.16h0a.65.65,0,0,0-.46.17.56.56,0,0,0-.19.46h0v7.58a.56.56,0,0,0,.2.47.64.64,0,0,0,.45.16h0a.64.64,0,0,0,.45-.16A.57.57,0,0,0,105.39,50.63Zm-1.28-11.37h0a.58.58,0,0,0,.19.44.62.62,0,0,0,.46.18h0a.6.6,0,0,0,.44-.18.61.61,0,0,0,.19-.44h0a.68.68,0,0,0-.19-.47.6.6,0,0,0-.44-.18h0a.62.62,0,0,0-.46.18A.64.64,0,0,0,104.11,39.26Z"/><path d="M114.23,50.63h0v-5.7a2.46,2.46,0,0,0-.74-1.79h0a2.44,2.44,0,0,0-1.79-.72h-3.15c-.44,0-.65.21-.65.63h0v7.58a.56.56,0,0,0,.2.47.64.64,0,0,0,.45.16h0a.66.66,0,0,0,.46-.16.6.6,0,0,0,.17-.47h0v-7h2.52a1.26,1.26,0,0,1,.9.37,1.23,1.23,0,0,1,.37.88h0v5.7a.58.58,0,0,0,.19.47.61.61,0,0,0,.44.16h0a.66.66,0,0,0,.46-.16A.6.6,0,0,0,114.23,50.63Z"/><path d="M121.82,43.68V50h-2.54a1.19,1.19,0,0,1-.9-.37,1.22,1.22,0,0,1-.36-.9h0v-3.8a1.25,1.25,0,0,1,1.26-1.25h2.54Zm-2.54,7.58h2.54v1.26a1.25,1.25,0,0,1-.37.91,1.23,1.23,0,0,1-.91.37H118a.58.58,0,0,0-.47.18.72.72,0,0,0-.15.45h0a.63.63,0,0,0,.16.44.59.59,0,0,0,.46.18h2.52a2.45,2.45,0,0,0,1.81-.74h0a2.42,2.42,0,0,0,.72-1.79h0V43.05a.55.55,0,0,0-.62-.63h-3.17a2.45,2.45,0,0,0-1.79.74,2.41,2.41,0,0,0-.74,1.77h0v3.8a2.42,2.42,0,0,0,.74,1.81h0a2.47,2.47,0,0,0,1.79.72Zm80.2-5.81"/><path d="M135.71,51.26h1.91a.59.59,0,0,0,.46-.19.72.72,0,0,0,.16-.44h0a.68.68,0,0,0-.15-.45.61.61,0,0,0-.47-.18h-1.91a1.19,1.19,0,0,1-.9-.37,1.22,1.22,0,0,1-.36-.9h0v-3.8a1.25,1.25,0,0,1,1.26-1.25h1.91a.57.57,0,0,0,.46-.2.67.67,0,0,0,.16-.43h0a.71.71,0,0,0-.15-.46.64.64,0,0,0-.47-.17h-1.91a2.45,2.45,0,0,0-1.79.74,2.41,2.41,0,0,0-.74,1.77h0v3.8a2.42,2.42,0,0,0,.74,1.81h0a2.47,2.47,0,0,0,1.79.72Z"/><path d="M147.09,48.49h0v-3.3a2.78,2.78,0,0,0-2.78-2.77h-.76a2.79,2.79,0,0,0-2,.81h0a2.7,2.7,0,0,0-.81,2h0v3.3a2.69,2.69,0,0,0,.81,2h0a2.72,2.72,0,0,0,2,.79h.76a2.65,2.65,0,0,0,2-.79h0A2.7,2.7,0,0,0,147.09,48.49Zm-1.26-3.3v3.3A1.5,1.5,0,0,1,144.31,50h-.76a1.44,1.44,0,0,1-1.07-.44,1.43,1.43,0,0,1-.44-1.07h0v-3.3a1.44,1.44,0,0,1,.44-1.07,1.48,1.48,0,0,1,1.07-.44h.76a1.5,1.5,0,0,1,1.08.44,1.48,1.48,0,0,1,.44,1.07Z"/><path d="M150.88,43.68h2.52v7a.58.58,0,0,0,.19.47.64.64,0,0,0,.45.16h0a.66.66,0,0,0,.46-.16.6.6,0,0,0,.17-.47h0v-7h1.26a1.25,1.25,0,0,1,1.26,1.25h0v5.7a.58.58,0,0,0,.19.47.68.68,0,0,0,.46.16h0a.64.64,0,0,0,.45-.16.57.57,0,0,0,.18-.47h0v-5.7a2.46,2.46,0,0,0-.74-1.79h0a2.47,2.47,0,0,0-1.8-.72h-5.68c-.44,0-.65.21-.65.63h0v7.58a.56.56,0,0,0,.2.47.64.64,0,0,0,.45.16h0a.64.64,0,0,0,.45-.16.57.57,0,0,0,.18-.47h0Z"/><path d="M164.77,50h-2.51V43.68h2.51a1.27,1.27,0,0,1,.91.37,1.23,1.23,0,0,1,.37.88h0v3.8A1.26,1.26,0,0,1,164.77,50Zm-2.51,4.43V51.26h2.51a2.44,2.44,0,0,0,1.8-.72h0a2.46,2.46,0,0,0,.74-1.81h0v-3.8a2.46,2.46,0,0,0-.74-1.79h0a2.44,2.44,0,0,0-1.8-.72h-3.14c-.44,0-.65.21-.65.63h0V54.43a.54.54,0,0,0,.2.46.64.64,0,0,0,.45.16h0a.68.68,0,0,0,.45-.15.58.58,0,0,0,.18-.47Z"/><path d="M174.89,43.68v5A1.26,1.26,0,0,1,173.62,50h-1.26a1.19,1.19,0,0,1-.9-.37,1.22,1.22,0,0,1-.36-.9h0v-3.8a1.25,1.25,0,0,1,1.26-1.25h2.53Zm.61,6.75h0a2.43,2.43,0,0,0,1,.78h0a.48.48,0,0,0,.26.07h0a.56.56,0,0,0,.45-.2.69.69,0,0,0,.18-.47h0a.59.59,0,0,0-.41-.55h0a1.52,1.52,0,0,1-.63-.55,1.38,1.38,0,0,1-.24-.78h0V43.05a.56.56,0,0,0-.63-.63h-3.16a2.45,2.45,0,0,0-1.8.74,2.41,2.41,0,0,0-.74,1.77h0v3.8a2.42,2.42,0,0,0,.74,1.81h0a2.47,2.47,0,0,0,1.8.72h1.26a2.58,2.58,0,0,0,1.88-.83Z"/><path d="M185,50.63h0v-5.7a2.46,2.46,0,0,0-.74-1.79h0a2.44,2.44,0,0,0-1.79-.72h-3.15a.56.56,0,0,0-.64.63h0v7.58a.58.58,0,0,0,.19.47.67.67,0,0,0,.45.16h0a.66.66,0,0,0,.46-.16.6.6,0,0,0,.17-.47h0v-7h2.52a1.27,1.27,0,0,1,.91.37,1.23,1.23,0,0,1,.37.88h0v5.7a.61.61,0,0,0,.18.47.64.64,0,0,0,.45.16h0a.64.64,0,0,0,.45-.16A.6.6,0,0,0,185,50.63Z"/><path d="M187.42,43.23l2.44,8-.67,2.14a.56.56,0,0,1-.55.45H188a.57.57,0,0,0-.47.18.67.67,0,0,0-.16.45h0a.6.6,0,0,0,.17.44.57.57,0,0,0,.46.18h.63a1.75,1.75,0,0,0,1.11-.37,1.67,1.67,0,0,0,.63-1h0l3.29-10.49a1.51,1.51,0,0,0,0-.22h0a.56.56,0,0,0-.2-.44.71.71,0,0,0-.47-.17h0a.56.56,0,0,0-.59.44h0l-1.94,6.22-1.89-6.22a.63.63,0,0,0-.61-.44h0a.69.69,0,0,0-.46.17.55.55,0,0,0-.19.44h0a.79.79,0,0,0,0,.22Z"/><path d="M34.15,46.47l.62-.62a2.7,2.7,0,0,0,0-3.81l-3.17-3.17,1.27-1.27,3.17,3.17a4.48,4.48,0,0,1,0,6.34L25.92,57.23a4.48,4.48,0,0,1-6.34,0L1.83,39.5a4.48,4.48,0,0,1,0-6.32l8.24-8.25,1.27,1.27L8.81,28.73,30.34,50.27l2.54-2.53-5.07-5.07,1.27-1.27Zm-5.07,5.07L7.54,30,3.1,34.44a2.67,2.67,0,0,0,0,3.79L20.85,56a2.69,2.69,0,0,0,3.8,0ZM17,2.77a4.48,4.48,0,0,1,6.34,0L41.12,20.5a4.48,4.48,0,0,1,0,6.34L31,37a4.48,4.48,0,0,1-6.34,0L6.9,19.23a4.49,4.49,0,0,1,0-6.34ZM18.3,4,8.18,14.15a2.7,2.7,0,0,0,0,3.81L25.92,35.71a2.69,2.69,0,0,0,3.8,0L39.84,25.58a2.7,2.7,0,0,0,0-3.81L22.1,4A2.69,2.69,0,0,0,18.3,4Zm.64,4.42L20.21,7.2,24,11l-1.27,1.26Z"/></svg>