<?xml version="1.0" encoding="utf-8"?>
<!-- Generator: Adobe Illustrator 23.1.1, SVG Export Plug-In . SVG Version: 6.00 Build 0)  -->
<svg version="1.1" id="Layer_1" xmlns="http://www.w3.org/2000/svg" xmlns:xlink="http://www.w3.org/1999/xlink" x="0px" y="0px"
	 viewBox="0 0 332.9 106.4" style="enable-background:new 0 0 332.9 106.4;" xml:space="preserve">
<style type="text/css">
	.st0{fill:#10357F;}
	.st1{fill:#FFFFFF;}
	.st2{fill:#00AEEF;}
	.st3{fill:#ED1C24;}
	.st4{fill:#FDB913;}
</style>
<g>
	<path class="st0" d="M87.5,11.4c5,0,9.1,4.1,9.1,9.1v61c0,5-4.1,9.1-9.1,9.1h-61c-5,0-9.1-4.1-9.1-9.1v-61c0-5,4.1-9.1,9.1-9.1
		H87.5"/>
	<path class="st1" d="M87.5,15.4h-61c-2.8,0-5,2.3-5,5v61c0,2.8,2.3,5,5,5h61c2.8,0,5-2.3,5-5v-61C92.5,17.7,90.3,15.4,87.5,15.4"/>
	<path class="st0" d="M57,17.3l0.2,0.4c0,0,0.8,1.3,2.8,2.6c2,1.3,5,2.6,9.6,2.6c1.3,0,2.8-0.1,4.4-0.4l0.3,0l0.1,0.2
		c1.1,3.6,4.4,5.4,7.4,6.3c3,0.9,5.8,0.9,5.8,0.9h0.6l-0.3,0.5c0,0-0.7,1-1.4,2.8C85.7,35,85,37.7,85,41v27.9c0,0.2,0,0.4,0,0.6
		c0,3.8-0.2,8-6.1,9.4c-6,1.4-18.5,4.4-19.6,4.6c-1.2,0.3-2.1,1.4-2.1,1.4L57,85.3l-0.2-0.3c0,0-0.9-1.1-2.1-1.4
		C53.6,83.3,41,80.3,35,78.9c-5.9-1.4-6.1-5.6-6.1-9.4c0-0.2,0-0.4,0-0.6V41c0-3.4-0.7-6-1.4-7.8c-0.7-1.8-1.4-2.8-1.4-2.8l-0.3-0.5
		h0.6c0,0,2.8,0,5.8-0.9c3.1-0.9,6.3-2.8,7.4-6.3l0.1-0.2l0.3,0c1.6,0.3,3.1,0.4,4.4,0.4c4.5,0,7.6-1.3,9.6-2.6
		c2-1.3,2.8-2.6,2.8-2.6L57,17.3z"/>
	<path class="st1" d="M82.2,33.2c-0.1,0-0.2,0-0.4-0.1c-0.9-0.2-2.5-0.6-4.4-1.3c-1.8-0.7-3.8-2-4.9-4.2c0,0-0.3-0.6-0.5-1
		C72,26.4,72,26.3,72,26.3s-0.2,0-0.3,0.1c-0.2,0-1.1,0.2-1.1,0.2c-0.8,0.1-1.5,0.2-2.2,0.2c-4,0-7.4-1.5-9.3-2.6
		c-1.2-0.7-1.9-1.3-1.9-1.3s-0.8,0.6-1.9,1.3c-2,1.1-5.4,2.6-9.3,2.6c-0.7,0-1.5,0-2.2-0.2c0,0-0.9-0.2-1.1-0.2
		c-0.1,0-0.3-0.1-0.3-0.1s-0.1,0.2-0.1,0.3c-0.1,0.3-0.5,1-0.5,1c-1.1,2.2-3.1,3.5-4.9,4.2c-1.9,0.7-3.6,1.1-4.5,1.3
		c-0.2,0-0.3,0.1-0.4,0.1c-0.1,0-0.3,0-0.3,0s0,0.1,0.1,0.2c0,0.1,0.1,0.3,0.2,0.4c0.2,0.6,0.6,1.6,0.8,2.8c0,0,0.3,1.9,0.3,3.7v2.8
		h14.6c0.9-4.4,4.9-7.7,9.6-7.7c4.7,0,8.6,3.3,9.6,7.7h14.6v-2.8c0-1.8,0.3-3.7,0.3-3.7c0.2-1.3,0.6-2.2,0.8-2.8
		c0.1-0.1,0.1-0.3,0.2-0.4c0-0.1,0.1-0.2,0.1-0.2S82.3,33.2,82.2,33.2"/>
	<path class="st2" d="M47.4,47.2H32.9v19c0,0.5,0,3.3,0,3.9c0,4,1.6,4.6,4.9,5.4c2.4,0.6,7.2,1.7,10.5,2.5c1.6,0.4,3.1,0.7,4.3,1
		c1.1,0.3,2,0.5,2,0.5c0,0,0.2,0,0.4,0.1l0-24.8C51.2,53.9,48.2,51,47.4,47.2"/>
	<path class="st3" d="M59.1,54.7v24.8c0.3,0,0.4-0.1,0.4-0.1c0.1,0,0.9-0.2,2-0.5c1.1-0.3,2.6-0.6,4.3-1c3.3-0.8,8-1.9,10.5-2.5
		c3.3-0.8,4.9-1.5,4.9-5.4c0-0.6,0-3.3,0-3.9v-19H66.6C65.8,51,62.8,53.9,59.1,54.7"/>
	<path class="st4" d="M64.4,46.8l1.6-1.6l-1.6-1.6l-2.5,0.7c-0.1-0.7-0.4-1.3-0.8-1.8l2.3-1.3v-2.3h-2.3l-1.3,2.3
		c-0.5-0.4-1.2-0.6-1.8-0.8l0.7-2.5L57,36.2l-1.6,1.6l0.7,2.5c-0.7,0.1-1.3,0.4-1.8,0.8l-1.3-2.3h-2.3v2.3l2.3,1.3
		c-0.4,0.5-0.6,1.2-0.8,1.8l-2.5-0.7L48,45.2l1.6,1.6l2.5-0.7c0.1,0.7,0.4,1.3,0.8,1.8l-2.3,1.3v2.3h2.3l1.3-2.3
		c0.5,0.4,1.2,0.6,1.8,0.8l-0.7,2.6l1.6,1.6l1.6-1.6L57.9,50c0.7-0.1,1.3-0.4,1.8-0.8l1.3,2.3h2.3v-2.3l-2.3-1.3
		c0.4-0.5,0.6-1.2,0.8-1.8L64.4,46.8z"/>
	<path class="st0" d="M41.7,56.2l0.3-1.3l-1.1-0.2c0,0-0.2-0.3-0.4-0.5h1.3c0,0-0.2-0.2-0.2-0.3c0-0.1-0.2-0.1-0.4-0.1h-1.6
		c0.1-0.1,0.1-0.6,0.2-0.7c0-0.1,0.2-0.4,0.7-0.5c0.7-0.1,1.3-0.2,1.3-0.2s0.3-0.5,0.9-0.5h1.6c0.8,0,1,0.6,1.1,1.4
		c0.1,0.4,0.3,1.7,0.4,3h6.4L52,58.7l-4.5,0.1l0,0.4l4.3,0.6L51,62l-3.6-0.8l-0.1,0.3l3.2,1.7L49.1,65l-2.2-1.6l-0.2,0.2l1.5,2.2
		l-0.6,0.4l1.3,1.8l0.7-1.3l1.3,0l0.3,1.6l-0.6,1.2l-0.2-1.1l-0.4,0L49,70l0.3,0.5l0.7,0l-0.6,0.7h-0.6L47.9,70l0.4-0.9l-1.6-2.3
		l-1.1,0.7l2.3,4.9l-1.6,1L44.6,69l0.7,5.1l-1.6,1l-1.6-1l0.7-5.1l-1.6,4.5l-1.6-1l2.3-4.9l-1.1-0.7l-1.6,2.3l0.4,0.9l-0.9,1.3h-0.6
		l-0.6-0.7l0.7,0l0.3-0.5l-1-1.5l-0.4,0l-0.2,1.1l-0.6-1.2l0.3-1.6l1.3,0l0.7,1.3l1.3-1.8l-0.6-0.4l1.5-2.2l-0.2-0.2L38.4,65
		L37,63.2l3.2-1.7l-0.1-0.3L36.5,62l-0.7-2.2l4.3-0.6l0-0.4l-4.5-0.1l-0.4-2.6H41.7z"/>
	<path class="st0" d="M77.8,65.2l0.5-0.9l-0.7-0.8l-3.5-0.5c0-0.4,0-0.9,0-1.4c0.4,0.2,0.9,0.4,1.4,0.6c0.9-0.7,2.4-1.9,2.4-1.9
		l0-3.2L76.7,58l0,1.4l-1.3,0.8c0,0-0.4-0.2-1.3-0.6c-0.4-0.4-1-1-1-1l0.1-0.6c0,0,1,0,1.2,0c0.2,0,0.6,0.3,0.6,0.3l0.5-1.8h-1.8
		c-0.3,0-0.2-0.3-0.2-0.5c0.1-0.3,0.1-0.6,0.6-0.6h1.7c0,0,0.3-0.8,0.4-1.2c0.1-0.4-0.2-0.8-0.5-0.8c-0.3,0-0.7,0-1.1,0
		c0-0.2-0.4-0.9-0.8-0.9h-0.9l-0.5-0.4l-4.6,0l0.6,0.8l-2.1,2c0,0-0.5,1.2-0.5,2l1.8-0.9l-0.1,0.5L65.5,58c0,0.6,0.3,1.2,0.4,1.8
		l1.3-1.1l0,0.5l-1.1,1.4l0.6,1.3l0.9-1.1l0.1,0.7l-1.1,2.3c0,0-1,0.3-1.5,1.2c-1.8,0.2-2.4-1.7-1.4-3.1c2.7-3.9,0.2-5.6,0.2-5.6
		h-1.3v1.2c0,0,0.9,0,1,1.2c0.1,1.6-1.8,2.4-1.9,4.6c-0.2,1.5,0.7,3,2.9,3.2c0,0.2,0,0.4,0.1,0.7c0,0.2,0.1,0.4,0.2,0.6
		c0.2,0.7,0.6,1.8,0.6,1.8s-0.5,1.6-1.3,1.9c1.1,1.4,2.5,3.3,2.5,3.3l4.1,0L70.1,73l-1.8-0.1l-0.8-1.6l1.8-2.4c0.1,0,0.1,0,0.2,0
		c0.5,0,1.4,0,1.8,0c0.6,0,0.6,0.4,0.6,0.5c-0.1,0.7-0.2,1.2-0.2,1.2h4.3l1.4-2.9L76,67.8l-0.8,1l-1.2,0c0,0,0.1-0.4,0.5-1.5
		c0.1-0.3-0.1-0.8-0.7-0.8c-0.2,0-0.9,0-1.5,0c0.3-0.4,0.7-1.2,1.1-1.7l2.2,0l-0.1,0.5L77.8,65.2z"/>
	<polygon class="st4" points="57,31.8 59.4,33.5 58.5,30.7 60.9,28.9 57.9,28.9 57,26.1 56.1,28.9 53.1,28.9 55.5,30.7 54.6,33.5 	
		"/>
	<polygon class="st4" points="42.9,36.6 45.4,38.4 44.4,35.5 46.8,33.8 43.9,33.8 42.9,30.9 42,33.8 39,33.8 41.4,35.5 40.5,38.4 	
		"/>
	<polygon class="st4" points="71,36.6 68.6,38.4 69.6,35.5 67.1,33.8 70.1,33.8 71,30.9 72,33.8 75,33.8 72.5,35.5 73.5,38.4 	"/>
	<path class="st0" d="M308.4,53.7c-2.3-2.5-5.2-4.3-8.6-5.6c2.5-1.3,4.5-2.7,6.2-4.7c2.3-2.8,3.7-6.8,3.7-10.9
		c0-6.1-2.4-11.7-7.2-15.4c-4.8-3.7-12-5.7-21.4-5.7h-21.7V90h21.4c9.8,0,17.8-1.5,23.5-5.4c5.7-3.8,8.9-9.9,8.9-17.8
		C313.1,61.5,311.4,57,308.4,53.7 M291.8,40.4c-2.5,1.8-6.5,2.9-11.9,2.8l-6.7,0V22.9l7.5,0c5.6,0,9.3,1.1,11.6,2.8
		c2.2,1.7,3.2,3.9,3.2,7.1C295.5,36.2,294.3,38.6,291.8,40.4 M273.2,54.5l8,0c6.1,0,10.7,1.2,13.6,3.2c2.9,2.1,4.4,5.2,4.4,9.3
		c0,4-1.5,6.7-4.4,8.7c-2.9,2-7.4,2.9-13.3,2.9l-8.4,0V54.5z"/>
	<path class="st0" d="M163.6,17.5c-5.2-4-12.7-6-21.7-6h-23.6v79.1l10.6-3.9c0.1,0,1-0.4,1.8-1.3c0.9-0.9,1.7-2.4,1.7-4.4V59.1
		l7.5,0c9.3,0,17.2-1.9,22.9-6c5.7-4.1,9-10.4,8.9-18.4C171.8,27.4,168.9,21.4,163.6,17.5 M157.4,35c0,4.4-1.5,7.3-4.3,9.3
		c-2.8,2-7.1,3-12.6,3l-8.1,0v-24l8.9,0c5.6,0,9.7,1.1,12.3,3C156.1,28.3,157.4,31,157.4,35"/>
	<path class="st0" d="M232.6,11.4v54.4L195,14.5c-0.1-0.2-0.6-0.8-1.2-1.4c-0.8-0.7-1.9-1.7-3.5-1.7h-9.8V90h13.3V33.7l39.3,53.7
		c0.1,0.2,0.6,0.8,1.4,1.4c0.9,0.7,2.3,1.2,4.1,1.2h7.3V11.4H232.6z"/>
</g>
</svg>
