<svg xmlns="http://www.w3.org/2000/svg" width="1257" height="311" fill-rule="nonzero"><path d="M310.272 155.557c0 85.52-69.304 154.853-154.824 154.853S.596 241.077.596 155.557 69.928.704 155.448.704s154.824 69.332 154.824 154.852" fill="#ee3023"/><path d="M156.672 241.902c-42.532.145-86.8-36.16-87-94.482-.142-38.55 20.683-75.677 47.255-97.697 25.946-21.45 61.48-35.25 93.685-35.363 4.154 0 8.507.34 11.152 1.25-28.165 5.832-50.584 32.063-50.498 61.793 0 .995.085 2.048.198 2.532 47.14 11.494 68.536 39.944 68.678 79.3.114 39.375-30.953 82.504-83.472 82.675" fill="#fff"/><path d="M410.273 219.683l-47.34-112.974h30.925l29.53 75.022 28.62-75.022h29.53l-45.946 112.974zm153.657-57.07c0-4.694-.54-9.16-1.65-13.4-1.08-4.24-2.73-7.88-4.922-10.925-2.2-3.073-4.836-5.5-7.966-7.283-3.13-1.82-6.8-2.73-11-2.73s-7.9.9-11 2.73c-3.13 1.792-5.804 4.2-7.966 7.283-2.2 3.044-3.84 6.686-4.922 10.925-1.1 4.24-1.65 8.706-1.65 13.4 0 4.865.54 9.388 1.65 13.542 1.08 4.154 2.674 7.795 4.78 10.925a23.47 23.47 0 0 0 7.994 7.425c3.186 1.792 6.913 2.703 11.124 2.703s7.88-.9 11-2.703c3.13-1.82 5.775-4.296 7.966-7.425s3.84-6.77 4.922-10.925c1.1-4.154 1.65-8.677 1.65-13.542m28.592.124c0 7.368-1.138 14.595-3.386 21.707-2.276 7.112-5.633 13.457-10.1 19.1-4.438 5.633-10.07 10.157-16.87 13.6s-14.737 5.15-23.784 5.15c-9.075 0-17.013-1.707-23.784-5.15-6.8-3.442-12.433-7.966-16.9-13.6-4.438-5.633-7.795-11.977-10.07-19.1-2.248-7.112-3.386-14.34-3.386-21.707 0-7.34 1.138-14.5 3.386-21.565 2.276-7.027 5.633-13.314 10.07-18.862 4.467-5.548 10.1-9.986 16.9-13.343 6.77-3.357 14.7-5.064 23.784-5.064 9.047 0 16.956 1.707 23.67 5.064s12.347 7.795 16.87 13.343c4.552 5.548 7.937 11.835 10.213 18.862 2.248 7.055 3.386 14.225 3.386 21.565m87.305-31.162c-5.605-2.2-10.8-3.3-15.647-3.3-4.95 0-9.246.968-12.802 2.845-3.585 1.877-6.543 4.4-8.876 7.624s-4.068 6.828-5.235 10.84a43.78 43.78 0 0 0-1.764 12.347c0 4.694.512 9.2 1.536 13.514.996 4.296 2.56 8.08 4.666 11.295a24.83 24.83 0 0 0 7.909 7.767c3.186 1.934 6.97 2.93 11.323 2.93 3.585 0 7.226-.995 10.953-2.93 3.727-1.963 6.373-4.296 7.938-6.942v-56zm2.333 88.1l-1.166-8.65c-2.646 2.96-6.145 5.576-10.526 7.824-4.353 2.276-9.502 3.414-15.42 3.414-7.767 0-14.652-1.65-20.54-4.922-5.946-3.272-10.925-7.653-14.965-13.115s-7.14-11.807-9.246-19.004c-2.077-7.17-3.13-14.68-3.13-22.504a72.97 72.97 0 0 1 3.243-21.565c2.2-7.027 5.5-13.314 9.93-18.862 4.467-5.548 10.014-9.986 16.728-13.343 6.686-3.357 14.566-5.064 23.585-5.064 5.918 0 12.32 1.1 19.175 3.272V63.35h29.047v156.332H682.17zM790.704 166.7l-9.673.826-9.417 1.536c-6.316 1.25-10.67 3.386-13.115 6.43-2.418 3.073-3.642 6.373-3.642 9.986 0 3.727 1.366 6.743 4.125 9.02 2.76 2.247 6.63 3.385 11.664 3.385a26.82 26.82 0 0 0 10.982-2.333c3.528-1.565 6.572-3.528 9.075-5.86v-23zm2.333 52.888l-1.138-8.45c-3.158 3.47-7.14 6.202-12.006 8.165s-10.185 2.96-16 2.96c-4.865 0-9.56-.826-13.997-2.475a36.44 36.44 0 0 1-11.892-7.027c-3.442-3.044-6.23-6.77-8.336-11.238-2.134-4.467-3.186-9.502-3.186-15.135 0-5.605 1.08-10.583 3.3-14.88a32.48 32.48 0 0 1 8.933-10.896c3.755-2.96 8.08-5.377 12.945-7.255 4.836-1.877 9.957-3.3 15.278-4.24 3.755-.768 7.88-1.338 12.347-1.736l11.18-1.053v-1.65c0-6.26-1.593-10.697-4.836-13.37-3.215-2.646-7.653-3.983-13.286-3.983-3.3 0-6.458.398-9.445 1.195-2.987.768-5.633 1.736-7.994 2.902-2.36 1.195-4.438 2.36-6.26 3.528-1.792 1.166-3.243 2.22-4.353 3.158l-9.616-20.37c1.252-1.1 3.158-2.418 5.747-3.983s5.7-3.1 9.388-4.58c3.67-1.48 7.795-2.73 12.404-3.755s9.588-1.536 14.88-1.536c6.26 0 11.977.826 17.127 2.475s9.616 4.2 13.37 7.738c3.727 3.5 6.657 7.938 8.8 13.343 2.105 5.377 3.158 11.892 3.158 19.545V219.6h-26.515zM909.34 89.127c-.94-.454-2.76-1.138-5.5-1.992-2.76-.853-6.373-1.28-10.925-1.28-4.04 0-7.454 1.224-10.185 3.642s-4.097 6.373-4.097 11.835v5.377h24.38v23.443H878.87v89.53h-29.076v-89.53H834.8V106.71h14.993v-6.088c0-7.34.94-13.542 2.817-18.635 1.878-5.064 4.495-9.218 7.852-12.404 3.357-3.215 7.312-5.576 11.835-7.055 4.552-1.48 9.474-2.22 14.794-2.22 7.027 0 12.83.654 17.44 1.992s7.312 2.22 8.08 2.703l-3.272 24.125zm79.233 73.485c0-4.694-.57-9.16-1.65-13.4s-2.73-7.88-4.922-10.925c-2.2-3.073-4.837-5.5-7.966-7.283-3.13-1.82-6.8-2.73-11-2.73s-7.9.9-11 2.73c-3.13 1.792-5.804 4.2-7.994 7.283-2.162 3.044-3.812 6.686-4.922 10.925-1.08 4.24-1.62 8.706-1.62 13.4 0 4.865.54 9.388 1.62 13.542 1.1 4.154 2.703 7.795 4.808 10.925s4.78 5.605 7.966 7.425c3.215 1.792 6.942 2.703 11.152 2.703s7.88-.9 11-2.703c3.13-1.82 5.775-4.296 7.966-7.425s3.84-6.77 4.922-10.925 1.65-8.677 1.65-13.542m28.592.124c0 7.368-1.138 14.595-3.414 21.707-2.247 7.112-5.605 13.457-10.07 19.1-4.438 5.633-10.07 10.157-16.87 13.6s-14.737 5.15-23.784 5.15c-9.076 0-17.013-1.707-23.784-5.15-6.8-3.442-12.433-7.966-16.9-13.6-4.438-5.633-7.795-11.977-10.07-19.1s-3.386-14.34-3.386-21.707a69.71 69.71 0 0 1 3.386-21.565c2.276-7.027 5.633-13.314 10.07-18.862 4.467-5.548 10.1-9.986 16.9-13.343 6.77-3.357 14.7-5.064 23.784-5.064 9.047 0 16.956 1.707 23.67 5.064s12.347 7.795 16.87 13.343c4.552 5.548 7.938 11.835 10.185 18.862a69.74 69.74 0 0 1 3.414 21.565m90.204 56.947v-64.44c0-8.592-1.792-15.25-5.377-19.943-3.613-4.666-8.592-7.027-15.022-7.027-4.524 0-8.706 1.166-12.518 3.528-3.84 2.333-7.17 4.922-9.986 7.738v80.143h-29.047V106.708h26.487l1.394 8.905c4.552-3.727 9.645-6.63 15.363-8.65 5.7-2.048 11.437-3.044 17.212-3.044 5.946 0 11.408.882 16.416 2.674 5.007 1.82 9.303 4.666 12.888 8.563 3.613 3.898 6.373 9 8.336 15.22 1.935 6.26 2.93 13.77 2.93 22.504v66.8h-29.076zm119.5-70.073c-.313-3.898-1.138-7.312-2.475-10.185-1.337-2.902-2.987-5.235-4.95-7.027-1.963-1.82-4.068-3.13-6.344-4-2.304-.853-4.6-1.28-6.97-1.28-5.036 0-9.815 1.877-14.367 5.633s-7.226 9.36-8.023 16.87h43.13zm-43.813 20.853c.626 9.53 3.585 16.416 8.933 20.626 5.32 4.2 12.233 6.344 20.683 6.344 3.926 0 7.625-.37 11.067-1.053 3.442-.7 6.515-1.594 9.2-2.703 2.674-1.082 4.95-2.2 6.828-3.272 1.878-1.1 3.272-2.134 4.24-3.072l7.738 23.7c-1.1.768-2.873 1.82-5.292 3.158s-5.434 2.56-9.02 3.755c-3.585 1.166-7.824 2.162-12.66 3.044-4.836.853-10.157 1.28-15.932 1.28-7.37 0-14.34-1.166-20.996-3.5-6.63-2.36-12.46-6.003-17.44-10.925-5.007-4.922-9-11.04-11.95-18.38-2.987-7.34-4.467-16.103-4.467-26.26 0-9.53 1.365-17.98 4.097-25.32s6.487-13.514 11.238-18.52c4.78-4.98 10.327-8.82 16.643-11.494 6.344-2.646 13.087-3.983 20.285-3.983s13.827 1.195 19.943 3.528c6.088 2.333 11.35 5.975 15.818 10.896 4.438 4.922 7.966 11.295 10.526 19.118 2.6 7.795 3.87 17.1 3.87 27.88v5.15h-73.344z" fill="#ee3023"/></svg>