<?xml version="1.0" encoding="UTF-8"?>
<svg class="icon" width="452.66" height="454.99" version="1.1" viewBox="0 0 452.65729 909.97028" xmlns="http://www.w3.org/2000/svg" xmlns:cc="http://creativecommons.org/ns#" xmlns:dc="http://purl.org/dc/elements/1.1/" xmlns:rdf="http://www.w3.org/1999/02/22-rdf-syntax-ns#">
<metadata>
<rdf:RDF>
<cc:Work rdf:about="">
<dc:format>image/svg+xml</dc:format>
<dc:type rdf:resource="http://purl.org/dc/dcmitype/StillImage"/>
<dc:title/>
</cc:Work>
</rdf:RDF>
</metadata>
<path d="m143.38 166.71c43.52-19.456 87.04-38.4 130.05-57.856-12.288-31.232-24.064-62.976-36.352-94.208-23.552-11.776-52.224-15.872-94.208-14.336-29.184 9.728-57.856 19.456-87.04 29.184 39.424 40.96 78.848 64.512 87.552 137.22zm325.63-93.696c-28.672-30.208-79.36-50.688-130.05-57.856l21.504 50.688c23.04 21.504 64.512 10.752 108.54 7.168zm-463.36 209.92c16.896-19.456 33.792-38.4 50.688-57.856-2.56-21.504-4.608-43.52-7.168-65.024-12.288-32.256-19.456-38.4-50.688-50.688-19.456-2.56-38.4-4.608-57.856-7.168-25.6 22.528-43.52 30.208-57.856 65.024-2.56 21.504-4.608 43.52-7.168 65.024 38.4 41.984 58.88 56.832 130.05 50.688zm376.32-116.22c-7.168 53.248-14.336 105.98-21.504 159.23 101.38-35.328 219.65-14.336 304.13 21.504-9.216-67.072-39.424-97.28-57.856-152.06-39.936-28.16-84.992-38.912-159.23-36.352-22.016 3.072-43.52 5.632-65.536 7.68zm-412.67 340.48v7.168c138.75 37.888 343.55-157.18 311.3-318.46-192 99.84-184.32 137.22-311.3 311.3zm-166.4-224.26c-14.848 52.736-30.208 94.208-29.184 166.4 33.792 19.456 67.584 38.4 101.38 57.856 21.504-43.52 43.52-87.04 65.024-130.05-68.096-18.944-96.256-50.688-137.22-94.208zm876.03 173.57c-77.312-32.256-128.51-61.44-253.44-57.856-231.94 78.848-310.27 208.38-209.92 499.2 57.856 27.648 126.46 1.536 180.74-14.336-201.22-226.3 9.728-473.09 246.27-267.78 2.56 4.608 4.608 9.728 7.168 14.336 15.36-54.272 30.208-100.35 29.184-173.57zm-846.85 238.59c4.608 2.56 9.728 4.608 14.336 7.168 2.56-36.352 4.608-72.192 7.168-108.54l-72.192-29.184a17642 17642 0 0 0 50.688 130.56zm260.61-101.38c-50.688 4.608-101.38 9.728-152.06 14.336-11.776 99.84 0 135.17 0 202.75 49.664 37.376 97.28 74.752 173.57 87.04-19.968-97.28-64-146.94-21.504-304.13z" fill="#f7b706"/>
<path d="m461.85 622.9-29.184 21.504c-29.184 16.384-37.888 39.424-43.52 79.36 15.872 37.376 27.648 57.344 57.856 79.36 21.504 2.56 43.52 4.608 65.024 7.168l57.856-57.856c2.56-24.064 4.608-48.128 7.168-72.192-12.288-14.336-24.064-29.184-36.352-43.52-26.112-4.096-52.736-9.216-78.848-13.824z" fill="#f7b706"/>
</svg>
