<svg xmlns="http://www.w3.org/2000/svg" height="205" width="170"><g fill="#7182ef" fill-rule="evenodd"><path d="M147.74 132.736l-25.25 47.018c-9.636 18.206-22.462 25.295-45.738 25.257L32 204.938v-29.624l44.982.075c11.14.017 13.104-1.057 17.644-9.764l24.425-46c2.935-5.69 5.064-9.847 5.054-15.964-.014-7.526-2.412-12.06-5.725-18.333l-1.056-2.02-23.167-43.745c-5.193-9.8-6.868-9.803-17.698-9.82L32 29.678V.062L78.92.14c21.128.034 33.45 7.598 43.883 26.983l24.57 45.5c5.72 10.845 8.62 18.59 8.64 30.863.016 9.587-2.54 18.608-8.272 29.24z" opacity=".302"/><path d="M133.742 132.736l-25.25 47.018C98.856 197.96 86.03 205.05 62.754 205.01L32 204.96v-29.623l30.986.05c11.14.017 13.104-1.057 17.645-9.764l24.425-46c2.935-5.69 5.063-9.847 5.053-15.964-.013-7.526-2.4-12.06-5.725-18.333l-1.056-2.02-23.166-43.745c-5.195-9.8-6.868-9.803-17.697-9.82L32 29.7V.085L64.923.14c21.128.034 33.45 7.598 43.883 26.983l24.57 45.5c5.72 10.845 8.62 18.59 8.64 30.863.015 9.587-2.54 18.608-8.274 29.24z" opacity=".302"/><path d="M133.742 132.736l-25.25 47.018C98.856 197.96 86.03 205.05 62.754 205.01L32 204.97V175.36l16.99.028c11.138.017 13.104-1.057 17.644-9.764l24.426-46c2.934-5.69 5.062-9.847 5.053-15.964-.013-7.526-2.4-12.06-5.726-18.333l-1.056-2.02-23.166-43.745c-5.194-9.8-6.867-9.803-17.697-9.82L32 29.723V.093L64.923.14c21.128.034 33.45 7.598 43.883 26.983l24.57 45.5c5.72 10.845 8.62 18.59 8.64 30.863.015 9.587-2.54 18.608-8.274 29.24z" opacity=".302"/></g><path d="M161.372 72.632l-24.57-45.5C126.372 7.737 114.05.173 92.922.14L15.907.013C4.17-.005-.01 7.642.001 14.797L.3 190.054C.303 197.2 4.5 204.87 16.246 204.89l74.508.122c23.275.038 36.1-7.05 45.734-25.257l25.25-47.018c5.735-10.633 8.29-19.654 8.274-29.24-.02-12.272-2.92-20.018-8.64-30.863zM90.986 175.39l-58.826-.097-.242-145.637 58.546.096c10.83.018 12.503.02 17.698 9.82l24.22 45.766c3.315 6.273 5.712 10.807 5.725 18.333.01 6.117-2.117 10.273-5.053 15.964l-24.423 46c-4.54 8.707-6.505 9.78-17.644 9.764z" fill="#6fe6ff" fill-rule="evenodd"/></svg>