<svg xmlns="http://www.w3.org/2000/svg" height="100%" width="100%" viewBox="0 0 124 22"><path d="M68.68 18.77H61.3c-1.292 0-1.49-.062-2.035-1.106L56.702 12.8a3.38 3.38 0 0 1-.565-1.751 3.84 3.84 0 0 1 .6-2.013l2.587-4.82c.528-.983.65-1.05 1.857-1.05h7.5a1.58 1.58 0 0 0 1.7-1.585c.01-.444-.168-.872-.493-1.176s-.764-.453-1.207-.4H61.1a4.7 4.7 0 0 0-4.775 2.771L53.58 7.894c-.58.953-.876 2.05-.854 3.165a6.03 6.03 0 0 0 .823 2.994l2.74 5.147a4.69 4.69 0 0 0 4.655 2.744h7.736c.44.033.874-.12 1.197-.42s.505-.723.503-1.165c.012-.445-.167-.873-.492-1.177s-.765-.453-1.208-.41zM95.853.1h-15.66a1.59 1.59 0 0 0-1.471 2.413 1.59 1.59 0 0 0 1.471.759h6.127v17.084a1.71 1.71 0 0 0 1.704 1.591 1.71 1.71 0 0 0 1.704-1.591V3.272h6.125A1.59 1.59 0 0 0 97.324.859 1.59 1.59 0 0 0 95.853.1zm-54.2 12.46a1.59 1.59 0 0 0 1.471-2.415 1.59 1.59 0 0 0-1.471-.759H29.5a1.54 1.54 0 0 0-1.706 1.59v9.38a1.54 1.54 0 0 0 1.706 1.586h12.147a1.59 1.59 0 0 0 1.482-2.418 1.59 1.59 0 0 0-1.482-.754H31.2v-6.21h10.445zM29.5 3.174h12.147A1.59 1.59 0 0 0 43.118.761a1.59 1.59 0 0 0-1.471-.759H29.5a1.59 1.59 0 0 0-1.471 2.413 1.59 1.59 0 0 0 1.471.759zm-12.273 4.58l-2.616-4.87A4.7 4.7 0 0 0 9.929 0H1.7C1.256-.05.81.095.484.4S-.02 1.14 0 1.586v18.77c-.02.447.157.88.484 1.186s.772.452 1.216.4h7.96c2.488 0 3.858-.762 4.89-2.714L17.26 14.2a6.18 6.18 0 0 0-.031-6.436zM9.69 18.77H3.406V3.17H9.66c1.157 0 1.336 0 1.888 1.05l2.47 4.678.11.218a3.8 3.8 0 0 1 .608 1.963 3.5 3.5 0 0 1-.541 1.709l-2.618 4.93c-.487.936-.698 1.053-1.888 1.053zm114.21 1.107l-3.51-12.23-1.435-4.847c-.648-1.83-2.3-2.8-4.786-2.8h-1.346c-2.484 0-4.138.968-4.79 2.8l-1.43 4.85-3.506 12.215a1.45 1.45 0 0 0 1.062 2.014 1.62 1.62 0 0 0 2.168-1l1.752-6.106h10.84l1.757 6.12c.202.658.812 1.105 1.5 1.1.226-.003.45-.04.664-.11a1.45 1.45 0 0 0 1.062-2.005zm-5.9-8.28h-9.022l1.1-3.84 1.1-3.56c.3-.86.588-1.023 1.848-1.023h.943c1.26 0 1.552.162 1.844 1.015l1.092 3.564z" fill="#3a9cf2"/></svg>