<svg xmlns="http://www.w3.org/2000/svg" width="400" height="97.849"><g transform="matrix(2.508309 0 0 2.494232 .000049 0)" fill-rule="nonzero"><g fill="#0086cd"><path d="M40.7 32c-6.544-.188-11.752-5.548-11.752-12.095S34.166 7.998 40.7 7.8z"/><circle cx="12.09" cy="19.92" r="12.09"/><path d="M53.06 12.92A6.66 6.66 0 0 1 57.93 15a7 7 0 0 1 0 9.89A6.61 6.61 0 0 1 53 26.93a6.78 6.78 0 0 1-5-2.06A6.62 6.62 0 0 1 46 20a7 7 0 0 1 7.08-7z"/></g><path d="M91.26 0h3.93v29.53h-3.93zm43.54 1.08a2.78 2.78 0 0 0-2 .85 2.74 2.74 0 0 0-.85 2 2.8 2.8 0 0 0 .81 2.07 2.79 2.79 0 0 0 2.06.85 2.71 2.71 0 0 0 2-.85 2.79 2.79 0 0 0 .89-2 2.72 2.72 0 0 0-.86-2 2.77 2.77 0 0 0-2.05-.92zM78.66 9.83a10 10 0 0 0-5.23 1.5l-1.16-1h-3.7v28.9h3.7V27.68A10 10 0 0 0 78.66 30a10.1 10.1 0 1 0 0-20.19zm-.38 16.7a6.76 6.76 0 0 1-6-3.62V17a6.76 6.76 0 0 1 6-3.62 6.6 6.6 0 1 1 0 13.19zm54.56-16.2h3.93v19.22h-3.93zm16.54-.5a10.1 10.1 0 1 0 10.09 10.09 10.12 10.12 0 0 0-10.1-10.1zm0 16.7a6.5 6.5 0 0 1-6.4-6.6 6.4 6.4 0 1 1 12.79 0 6.49 6.49 0 0 1-6.39 6.6zM113 11.33a10 10 0 0 0-5.23-1.5 10.1 10.1 0 1 0 0 20.19 10 10 0 0 0 6.39-2.34v1.85h3.7v-19.2h-3.7zm-4.85 15.2a6.6 6.6 0 1 1 0-13.19 6.77 6.77 0 0 1 6 3.62v5.95a6.77 6.77 0 0 1-5.97 3.62zm20.9-.6a3.47 3.47 0 0 1-3.47-3.47v-8.54h3.47v-3.6h-3.47V4h-3.93v18.13a7.4 7.4 0 0 0 7.4 7.4z" fill="#7c7c7b"/></g></svg>