<?xml version="1.0" encoding="utf-8"?>
<!-- Generator: Adobe Illustrator 22.1.0, SVG Export Plug-In . SVG Version: 6.00 Build 0)  -->
<svg version="1.1" id="Layer_1" xmlns="http://www.w3.org/2000/svg" xmlns:xlink="http://www.w3.org/1999/xlink" x="0px" y="0px"
	 viewBox="0 0 223 178.1" style="enable-background:new 0 0 223 178.1;" xml:space="preserve">
<style type="text/css">
	.st0{fill:url(#SVGID_1_);}
	.st1{fill:url(#SVGID_2_);}
	.st2{fill:url(#SVGID_3_);}
</style>
<g>
	<linearGradient id="SVGID_1_" gradientUnits="userSpaceOnUse" x1="202.9764" y1="262.9089" x2="127.4398" y2="72.4716">
		<stop  offset="0" style="stop-color:#283663"/>
		<stop  offset="0.9901" style="stop-color:#C4CADA"/>
	</linearGradient>
	<path class="st0" d="M216.8,126.7c8.3-8.3,8.3-21.8,0-30.1l-30-30L126.1,5.9c-1-1-2.2-2-3.4-2.8c-8.2-5-19-3.9-26.1,3.2L51.3,51.5
		c-8.3,8.3-8.3,21.8,0,30.1l90.2,90.2c8.3,8.3,21.8,8.3,30.1,0L216.8,126.7z"/>
	<linearGradient id="SVGID_2_" gradientUnits="userSpaceOnUse" x1="-32.8738" y1="184.0915" x2="166.2439" y2="37.713">
		<stop  offset="9.900990e-03" style="stop-color:#345491"/>
		<stop  offset="1" style="stop-color:#E7EBF4"/>
	</linearGradient>
	<path class="st1" d="M209.3,89.1c-12.4-12.4-32.6-12.4-45,0l-52.8,52.8l-10.7,10.7l-19.2,19.2c-8.3,8.3-21.8,8.3-30.1,0l-26.9-27
		L6.3,126.7c-8.3-8.3-8.3-21.8,0-30.1L96.6,6.2c7.7-7.7,19.9-8.2,28.2-1.7c0.7,0.5,1.3,1.1,1.9,1.7l60.2,60.2l-0.1,0.1L209.3,89.1z"
		/>
	
		<radialGradient id="SVGID_3_" cx="125.0731" cy="-22.8687" r="166.652" gradientTransform="matrix(0.6671 0.6977 -0.5735 0.5483 25.2423 -83.6952)" gradientUnits="userSpaceOnUse">
		<stop  offset="0" style="stop-color:#FFFFFF"/>
		<stop  offset="0.5518" style="stop-color:#EEF1F7;stop-opacity:0.4426"/>
		<stop  offset="0.9901" style="stop-color:#E7EBF4;stop-opacity:0"/>
	</radialGradient>
	<path class="st2" d="M181.8,61.4c-2.1,0.3-4.4,0.4-6.9,0.4c-30.9,0-30.9-23.7-61.7-23.7c-30.9,0-30.9,23.7-61.7,23.7
		c-3.6,0-6.7-0.3-9.6-0.9L96.6,6.2c7.7-7.7,19.9-8.3,28.2-1.7c0.7,0.5,1.3,1.1,1.9,1.7L181.8,61.4z"/>
</g>
</svg>
