<svg xmlns="http://www.w3.org/2000/svg" width="42.71" height="40.998" fill="#2a9f30" fill-rule="evenodd"><path d="M5.503 5.333l7.492 4.307L29.748 0c.856.366 1.683.787 2.478 1.258l-19.23 11.104-8.988-5.176c.464-.646.963-1.264 1.495-1.853zM2.826 9.02l10.17 5.846L34.26 2.628a21.471 21.471 0 0 1 1.892 1.62L12.995 17.57 1.77 11.115a21.17 21.17 0 0 1 1.055-2.096zM.96 13.295l12.036 6.92L37.762 5.972a21.6 21.6 0 0 1 1.415 1.902L12.995 22.92.37 15.66a21.39 21.39 0 0 1 .588-2.365zm-.9 4.9l12.946 7.457L40.34 9.855a21.264 21.264 0 0 1 2.37 9.788 21.36 21.36 0 0 1-21.355 21.355A21.36 21.36 0 0 1 0 19.643a21.34 21.34 0 0 1 .049-1.458z" style="mix-blend-mode:darken"/></svg>