<?xml version="1.0" encoding="utf-8"?>
<!-- Generator: Adobe Illustrator 20.0.0, SVG Export Plug-In . SVG Version: 6.00 Build 0)  -->
<svg version="1.1" id="Слой_1" xmlns="http://www.w3.org/2000/svg" xmlns:xlink="http://www.w3.org/1999/xlink" x="0px" y="0px"
	 viewBox="0 0 242 61" style="enable-background:new 0 0 242 61;" xml:space="preserve">
<style type="text/css">
	.st0{fill:#1A9F29;}
</style>
<path class="st0" d="M63.3,28.2c1,1.1,2.2,1.9,3.7,2.5c1.5,0.6,3.2,0.9,5.3,0.9c1,0,2-0.1,2.8-0.2c0.9-0.1,1.6-0.3,2.3-0.6
	c0.7-0.2,1.3-0.5,1.9-0.7c0.5-0.3,1-0.5,1.4-0.7L80,27.9c-0.4,0.2-0.8,0.4-1.2,0.6c-0.4,0.2-0.8,0.3-1.3,0.5c-0.5,0.1-1,0.3-1.6,0.3
	c-0.6,0.1-1.3,0.1-2.1,0.1c-1.5,0-2.8-0.3-3.7-0.9c-1-0.6-1.7-1.4-2.3-2.3c-0.5-1-0.9-2.2-1.1-3.5c-0.2-1.4-0.3-2.8-0.3-4.4
	c0-1.2,0.1-2.5,0.2-3.8c0.1-1.3,0.4-2.4,0.9-3.4c0.5-1,1.1-1.8,2-2.5c0.9-0.6,2.1-1,3.6-1c1.4,0,2.6,0.4,3.6,1.1
	c1,0.7,1.6,1.9,1.9,3.4h1.6V7.2c-0.5-0.2-1-0.4-1.6-0.6c-0.6-0.2-1.2-0.3-1.9-0.4c-0.7-0.1-1.3-0.1-2-0.2c-0.6,0-1.2-0.1-1.7-0.1
	c-2.2,0-4,0.3-5.6,0.9c-1.5,0.6-2.8,1.5-3.8,2.6c-1,1.1-1.7,2.5-2.2,4.1c-0.5,1.6-0.7,3.5-0.7,5.5c0,1.9,0.2,3.7,0.7,5.2
	C61.7,25.9,62.4,27.2,63.3,28.2z"/>
<path class="st0" d="M161.1,30.8c1.2-0.1,2.4-0.5,3.3-1c1-0.6,1.8-1.4,2.3-2.5c0.6-1.1,0.9-2.6,0.9-4.5c0-1.4-0.2-2.5-0.6-3.5
	c-0.4-1-1-1.7-1.9-2.4c-0.9-0.6-2-1-3.4-1.3c-1.4-0.3-3.1-0.4-5.1-0.4h-2.1V9.3c0-0.6,0.1-1,0.4-1.2c0.3-0.2,0.8-0.2,1.6-0.2h3
	c0.9,0,1.7,0,2.3,0.1c0.6,0.1,1.1,0.2,1.4,0.5c0.4,0.3,0.7,0.7,0.9,1.2c0.2,0.5,0.5,1.2,0.7,2.1h1.3V6.3h-17h-1.4v0.8
	c0.1,0,0.2,0.1,0.5,0.1c0.3,0.1,0.5,0.2,0.6,0.3c0.1,0.1,0.2,0.3,0.3,0.6c0,0.3,0.1,0.6,0.1,1v5v9.1v5c0,0.4,0,0.8-0.1,1
	c0,0.3-0.1,0.5-0.3,0.6c-0.1,0.1-0.3,0.3-0.6,0.3c-0.3,0.1-0.4,0.1-0.5,0.1V31h9.3C158.5,31,159.8,31,161.1,30.8z M155,29
	c-0.2-0.2-0.3-0.4-0.3-0.7c0-0.3-0.1-0.7-0.1-1.2V16.7h2.1c1.9,0,3.3,0.5,4.1,1.5s1.2,2.6,1.2,4.8c0,1.5-0.1,2.6-0.4,3.5
	c-0.3,0.9-0.6,1.5-1.1,2c-0.5,0.4-1,0.7-1.5,0.9c-0.6,0.1-1.2,0.2-1.8,0.2c-0.6-0.1-1.1-0.1-1.4-0.2C155.5,29.3,155.2,29.2,155,29z"
	/>
<path class="st0" d="M134.8,30.2c-0.1,0-0.2-0.1-0.5-0.1c-0.3-0.1-0.5-0.2-0.6-0.3c-0.1-0.1-0.2-0.3-0.3-0.6c0-0.3-0.1-0.6-0.1-1
	v-6.9h2.5c1.3,0,2.5-0.1,3.7-0.3c1.2-0.2,2.2-0.6,3.1-1.1c0.9-0.6,1.6-1.3,2.1-2.4c0.5-1,0.8-2.4,0.8-4.1c0-1.6-0.3-2.9-0.7-3.8
	c-0.5-0.9-1.2-1.7-2-2.2c-0.8-0.5-1.8-0.8-2.9-0.9c-1.1-0.1-2.2-0.2-3.4-0.2h-8.4h-1.4v0.8c0.1,0,0.2,0.1,0.5,0.1
	c0.3,0.1,0.5,0.2,0.6,0.3c0.1,0.1,0.2,0.3,0.3,0.6c0,0.3,0.1,0.6,0.1,1v19c0,0.4,0,0.8-0.1,1c0,0.3-0.1,0.5-0.3,0.6
	c-0.1,0.1-0.3,0.3-0.6,0.3c-0.3,0.1-0.4,0.1-0.5,0.1v0.8h8.1L134.8,30.2L134.8,30.2z M133.4,9.1c0-0.2,0-0.4,0.1-0.6
	c0-0.2,0.1-0.3,0.2-0.4c0.1-0.1,0.3-0.2,0.6-0.2c0.3,0,0.6-0.1,1.1-0.1c0.6,0,1.2,0.1,1.8,0.2c0.6,0.2,1,0.5,1.5,0.9
	c0.4,0.4,0.7,1,1,1.7c0.2,0.7,0.3,1.6,0.3,2.6c0,2.1-0.3,3.7-0.9,4.8c-0.6,1.1-1.7,1.7-3.2,1.7h-2.5L133.4,9.1L133.4,9.1z"/>
<path class="st0" d="M123.4,25.3h-1.6c-0.2,1-0.4,1.7-0.6,2.3c-0.2,0.6-0.4,1-0.8,1.3c-0.3,0.3-0.8,0.5-1.4,0.5
	c-0.6,0.1-1.4,0.1-2.5,0.1c-1,0-1.8,0-2.3-0.1c-0.6-0.1-1-0.2-1.3-0.4c-0.3-0.2-0.5-0.5-0.5-0.8c-0.1-0.4-0.1-0.8-0.1-1.4V19h3.3
	c0.3,0,0.6,0,1,0s0.8,0.1,1.2,0.1c0.4,0,0.8,0.1,1.2,0.2c0.4,0.1,0.7,0.2,1,0.4v-3.2c-0.3,0.2-0.6,0.3-1,0.4
	c-0.4,0.1-0.8,0.2-1.2,0.2c-0.4,0.1-0.8,0.1-1.2,0.1c-0.4,0-0.7,0-1,0h-3.3V9c0-0.5,0.1-0.9,0.2-1.1c0.2-0.2,0.5-0.2,1-0.2h2.7
	c0.9,0,1.7,0,2.3,0.1c0.6,0.1,1.1,0.2,1.4,0.5c0.4,0.3,0.7,0.7,0.9,1.2c0.2,0.5,0.5,1.2,0.7,2.1h1.3V6.3H107h-1.4v0.8
	c0.1,0,0.2,0.1,0.5,0.1c0.3,0.1,0.5,0.2,0.6,0.3c0.1,0.1,0.2,0.3,0.3,0.6c0,0.3,0.1,0.6,0.1,1v19c0,0.4,0,0.8-0.1,1
	c0,0.3-0.1,0.5-0.3,0.6c-0.1,0.1-0.3,0.3-0.6,0.3c-0.3,0.1-0.4,0.1-0.5,0.1v0.8h17.8V25.3z"/>
<path class="st0" d="M96.2,30.8c1.2-0.1,2.4-0.5,3.3-1c1-0.6,1.8-1.4,2.4-2.5c0.6-1.1,0.9-2.6,0.9-4.5c0-1.4-0.2-2.5-0.6-3.5
	c-0.4-1-1-1.7-1.9-2.4c-0.9-0.6-2-1-3.4-1.3c-1.4-0.3-3.1-0.4-5.1-0.4h-2.1V9.3c0-0.6,0.1-1,0.4-1.2c0.3-0.2,0.8-0.2,1.6-0.2h3
	c0.9,0,1.7,0,2.3,0.1c0.6,0.1,1.1,0.2,1.4,0.5c0.4,0.3,0.7,0.7,0.9,1.2c0.2,0.5,0.5,1.2,0.7,2.1h1.3V6.3h-17h-1.4v0.8
	c0.1,0,0.2,0.1,0.5,0.1c0.3,0.1,0.5,0.2,0.6,0.3s0.2,0.3,0.3,0.6c0,0.3,0.1,0.6,0.1,1v0.5V14V23v3.7c0,0,0,0,0,0.1v1.3
	c0,0.4,0,0.7-0.1,1c0,0.3-0.1,0.5-0.3,0.6c-0.1,0.1-0.3,0.3-0.6,0.3c-0.3,0.1-0.4,0.1-0.5,0.1V31h9.3C93.7,31,94.9,31,96.2,30.8z
	 M90.1,29c-0.2-0.2-0.3-0.4-0.3-0.7c0-0.3-0.1-0.7-0.1-1.2V16.7h2.1c1.9,0,3.3,0.5,4.1,1.5c0.8,1,1.2,2.6,1.2,4.8
	c0,1.5-0.1,2.6-0.4,3.5c-0.3,0.9-0.6,1.5-1.1,2c-0.5,0.4-1,0.7-1.5,0.9c-0.6,0.1-1.2,0.2-1.8,0.2c-0.6-0.1-1-0.1-1.4-0.2
	C90.6,29.3,90.3,29.2,90.1,29z"/>
<rect x="60.5" y="38" class="st0" width="181.3" height="2.4"/>
<path class="st0" d="M227.3,21.7c0.5,0.7,0.9,1.3,1.4,1.9c0.4,0.6,0.9,1.2,1.3,1.8c0.4,0.6,0.8,1.2,1.3,1.8c0.5,0.7,0.9,1.3,1.3,2
	c0.4,0.6,0.7,1.3,1,1.9l8.4,0.1c-0.9-0.9-1.7-1.8-2.6-2.7c-0.8-0.9-1.5-1.7-2-2.2c-0.8-0.9-1.5-1.7-2.1-2.4
	c-0.7-0.8-1.3-1.5-1.9-2.2c-0.6-0.7-1.2-1.5-1.7-2.2s-1.1-1.6-1.6-2.4l0.4-0.5c0.6-0.8,1.3-1.6,2.1-2.6c0.8-1,1.6-2,2.5-2.9
	c0.9-1,1.7-1.9,2.6-2.7c0.9-0.8,1.6-1.4,2.3-1.9h-5.8c-0.2,0.5-0.5,1.1-0.9,1.8c-0.4,0.7-0.8,1.5-1.4,2.3c-0.5,0.8-1.1,1.7-1.6,2.6
	c-0.6,0.9-1.1,1.7-1.7,2.5c-0.6,0.8-1.1,1.6-1.6,2.2c-0.5,0.7-0.9,1.2-1.2,1.7C226.3,20.3,226.8,21,227.3,21.7z"/>
<path class="st0" d="M226.6,30.2c-0.1,0-0.2-0.1-0.5-0.1c-0.3-0.1-0.5-0.2-0.6-0.3c-0.1-0.1-0.2-0.3-0.3-0.6c0-0.3-0.1-0.6-0.1-1
	v-19c0-0.4,0-0.8,0.1-1c0-0.3,0.1-0.5,0.3-0.6c0.1-0.1,0.3-0.2,0.6-0.3c0.3-0.1,0.4-0.1,0.5-0.1V6.3h-6.7h-1.4v0.8
	c0.1,0,0.2,0.1,0.5,0.1c0.3,0.1,0.5,0.2,0.6,0.3c0.1,0.1,0.2,0.3,0.3,0.6c0,0.3,0.1,0.6,0.1,1v19c0,0.4,0,0.8-0.1,1
	c0,0.3-0.1,0.5-0.3,0.6c-0.1,0.1-0.3,0.3-0.6,0.3c-0.3,0.1-0.4,0.1-0.5,0.1v0.8h8.1V30.2z"/>
<path class="st0" d="M172.8,28c0.3-1.4,0.9-3.4,1.7-5.9h7.9l1.1,3.2c0.5,1.4,0.9,2.6,1.1,3.6c0.3,1,0.5,1.7,0.5,2.2h6.3
	c-0.3-0.5-0.6-1.2-1-2c-0.4-0.8-0.9-2-1.4-3.5l-5.7-16.2c-0.3-0.7-0.4-1.3-0.5-1.8c-0.1-0.5-0.1-0.9-0.2-1.2h-7.1v0.8
	c0.1,0,0.2,0.1,0.5,0.1c0.3,0.1,0.5,0.2,0.6,0.3c0.1,0.1,0.2,0.3,0.3,0.6c0,0.2,0,0.3,0,0.5c0,0.6-0.1,1.2-0.3,1.6l-4,9.8
	c-0.7,1.8-1.4,3.4-1.9,4.6c-0.5,1.2-1,2.3-1.3,3.1c-0.4,0.8-0.7,1.5-1,2c-0.3,0.5-0.5,0.9-0.7,1.3h4.5
	C172.3,30.4,172.5,29.4,172.8,28z M178.5,10.4l3.3,10H175L178.5,10.4z"/>
<path class="st0" d="M200.9,30.2h-0.2c-0.1,0-0.2-0.1-0.5-0.1c-0.3-0.1-0.5-0.2-0.6-0.3c-0.1-0.1-0.2-0.3-0.3-0.6
	c0-0.3-0.1-0.6-0.1-1v-9.5h9.6v9.4c0,0.4,0,0.8-0.1,1c0,0.3-0.1,0.5-0.3,0.6c-0.1,0.1-0.3,0.3-0.6,0.3c-0.3,0.1-0.4,0.1-0.5,0.1v0.8
	h8.1v-0.8c-0.1,0-0.2-0.1-0.5-0.1c-0.3-0.1-0.5-0.2-0.6-0.3c-0.1-0.1-0.2-0.3-0.3-0.6c0-0.3-0.1-0.6-0.1-1v-4.9V23V14v-0.1V9
	c0-0.4,0-0.8,0.1-1c0-0.3,0.1-0.5,0.3-0.6c0.1-0.1,0.3-0.2,0.6-0.3c0.3-0.1,0.4-0.1,0.5-0.1V6.3h-6.7h-1.2v0.8
	c0.1,0,0.2,0.1,0.5,0.1c0.3,0.1,0.5,0.2,0.6,0.3c0.1,0.1,0.2,0.3,0.3,0.6c0,0.3,0.1,0.6,0.1,1V17h-9.6V9.1c0-0.4,0-0.8,0.1-1
	c0-0.3,0.1-0.5,0.3-0.6c0.1-0.1,0.3-0.2,0.6-0.3c0.3-0.1,0.4-0.1,0.5-0.1V6.3h-6.7h-1.4v0.8c0.1,0,0.2,0.1,0.5,0.1
	c0.3,0.1,0.5,0.2,0.6,0.3s0.2,0.3,0.3,0.6c0,0.3,0.1,0.6,0.1,1v0.6v17.1v0.1v1.3c0,0.4,0,0.7-0.1,1c0,0.3-0.1,0.5-0.3,0.6
	c-0.1,0.1-0.3,0.3-0.6,0.3c-0.3,0.1-0.4,0.1-0.5,0.1V31h8.1V30.2z"/>
<path class="st0" d="M44,8.9c-0.5-0.7-1-1.4-1.5-2.1L14.8,22.7L1.4,15c-0.3,0.9-0.5,1.7-0.6,2.6l14.1,8.1L44,8.9z"/>
<path class="st0" d="M14.8,28.7L0.4,20.4c-0.1,0.5-0.1,1.1-0.1,1.6c0,13.1,10.6,23.8,23.8,23.8c13.1,0,23.8-10.6,23.8-23.8
	c0-3.9-0.9-7.6-2.6-10.8L14.8,28.7z"/>
<path class="st0" d="M40.6,4.8c-0.7-0.7-1.4-1.2-2.1-1.8L14.8,16.7L3.4,10.2c-0.4,0.7-0.8,1.5-1.2,2.3l12.5,7.2L40.6,4.8z"/>
<path class="st0" d="M36.1,1.4c-0.9-0.5-1.8-1-2.8-1.4L14.8,10.7L6.5,6C5.9,6.6,5.4,7.3,4.8,8l9.9,5.7L36.1,1.4z"/>
<g>
	<path class="st0" d="M162,58.5l1.9-9.8h3.1c1.8,0,2.6,0.9,2.6,2.3c0,1.3-0.8,2-2.3,2.5c1,0.4,1.6,1.1,1.6,2.1
		c0,1.8-1.2,2.8-3.6,2.8H162z M163.2,57.6h2.3c1.5,0,2.4-0.8,2.4-2c0-0.9-0.8-1.8-2.3-1.8h-1.8L163.2,57.6z M164.1,53h2
		c1.7,0,2.6-0.8,2.6-2c0-1-0.6-1.5-1.8-1.5h-2L164.1,53z"/>
	<path class="st0" d="M175.7,56.7c-0.6,1.1-1.3,1.9-2.7,1.9c-1.6,0-2.7-1.3-2.7-3.1c0-2.2,1.4-4.1,3.3-4.1c1.4,0,2.1,0.8,2.5,2
		l-0.9,0.2c-0.3-0.9-0.8-1.4-1.6-1.4c-1.3,0-2.4,1.4-2.4,3.4c0,1.4,0.7,2.1,1.9,2.1c1.1,0,1.5-0.6,1.9-1.3L175.7,56.7z"/>
	<path class="st0" d="M177.8,55.1c0,0.2,0,0.4,0,0.5c0,1.4,0.7,2.2,1.8,2.2c1,0,1.6-0.7,2.2-1.6l0.8,0.4c-0.8,1.2-1.6,2-3.1,2
		c-1.6,0-2.6-1.2-2.6-3c0-2.4,1.4-4.2,3.4-4.2c1.6,0,2.5,1,2.5,2.8c0,0.3-0.1,0.6-0.1,0.9H177.8z M181.9,54.3c0.1-0.2,0-0.3,0-0.4
		c0-0.8-0.5-1.6-1.6-1.6c-1.3,0-1.9,0.8-2.3,2.1H181.9z"/>
	<path class="st0" d="M185.1,51.6h3.9l-0.1,0.8h-3l-1.2,6.1h-0.9L185.1,51.6z"/>
	<path class="st0" d="M188.2,57.7l2.9-6.1h1.4l0.8,6.1h0.7l-0.4,2.1h-0.7l0.1-1.3h-4.7l-0.4,1.3h-0.7l0.4-2.1H188.2z M192.3,57.7
		l-0.5-5.2h-0.2l-2.4,5.2H192.3z"/>
	<path class="st0" d="M199.7,54.4c0-0.3,0.1-0.6,0.1-0.8c0-0.8-0.6-1.3-1.5-1.3c-0.6,0-1.1,0.3-1.5,0.8l-0.6-0.6
		c0.6-0.5,1.3-1,2.3-1c1.4,0,2.3,0.9,2.3,2c0,0.2-0.1,0.6-0.1,1.1l-0.5,2.3c-0.2,0.8-0.2,1.3-0.2,1.7h-0.9c-0.1-0.2-0.1-0.5-0.1-0.8
		c-0.6,0.5-1.2,0.9-2,0.9c-1.1,0-2-0.9-2-2c0-1.4,1.3-2.3,3.7-2.3H199.7z M199.5,55.1h-0.7c-1.9,0-2.9,0.5-2.9,1.5
		c0,0.7,0.5,1.2,1.2,1.2c0.7,0,1.3-0.4,2-0.9L199.5,55.1z"/>
	<path class="st0" d="M208,52.4c0.6-0.6,1.2-1,2-1c1.5,0,2.3,1,2.3,2.9c0,2.5-1.5,4.3-3.3,4.3c-0.9,0-1.5-0.4-2-0.9l-0.7,3.5h-0.9
		l1.9-9.7h0.8L208,52.4z M207.2,56.8c0.4,0.6,0.9,1,1.8,1c1.3,0,2.5-1.5,2.5-3.6c0-1.3-0.6-2-1.6-2c-0.7,0-1.4,0.3-1.9,1.2
		L207.2,56.8z"/>
	<path class="st0" d="M216.2,55.3l-2.2,3.2h-1l2.3-3.2c-0.9-0.3-1.4-1-1.4-1.8c0-0.9,0.8-1.9,2.4-1.9h3.3l-1.4,6.9h-0.9l0.6-3.2
		H216.2z M218.4,52.3h-2.2c-1,0-1.5,0.6-1.5,1.1c0,0.7,0.4,1,1.2,1h2L218.4,52.3z"/>
	<path class="st0" d="M220.5,57.7l2.9-6.1h1.4l0.8,6.1h0.7l-0.4,2.1h-0.7l0.1-1.3h-4.7l-0.4,1.3h-0.7l0.4-2.1H220.5z M224.5,57.7
		l-0.5-5.2h-0.2l-2.4,5.2H224.5z"/>
	<path class="st0" d="M227.1,55.6c0-2.4,1.5-4.2,3.3-4.2c1.5,0,2.4,1.2,2.4,3c0,2.3-1.5,4.2-3.3,4.2
		C228.1,58.6,227.1,57.5,227.1,55.6z M228,55.8c0,1.3,0.7,2,1.6,2c1.2,0,2.4-1.5,2.4-3.5c0-1.3-0.7-2.1-1.6-2.1
		C229.2,52.2,228,53.7,228,55.8z"/>
	<path class="st0" d="M240.8,52.4l-3,6.1h-0.9l-0.9-6.1l-1.2,6.1h-0.9l1.4-6.9h1.5l0.8,6l2.9-6h1.5l-1.4,6.9h-0.9L240.8,52.4z"/>
</g>
</svg>
