<svg xmlns="http://www.w3.org/2000/svg" width="146.38" height="40.998" fill-rule="evenodd"><path d="M5.503 5.333l7.492 4.307L29.748 0c.856.366 1.683.787 2.478 1.258l-19.23 11.104-8.988-5.176c.464-.646.963-1.264 1.495-1.853zM2.826 9.02l10.17 5.846L34.26 2.628a21.471 21.471 0 0 1 1.892 1.62L12.995 17.57 1.77 11.115a21.17 21.17 0 0 1 1.055-2.096zM.96 13.295l12.036 6.92L37.762 5.972a21.6 21.6 0 0 1 1.415 1.902L12.995 22.92.37 15.66a21.39 21.39 0 0 1 .588-2.365zm-.9 4.9l12.946 7.457L40.34 9.855a21.264 21.264 0 0 1 2.37 9.788 21.36 21.36 0 0 1-21.355 21.355A21.36 21.36 0 0 1 0 19.643a21.34 21.34 0 0 1 .049-1.458z" style="mix-blend-mode:darken" fill="#2a9f30"/><path d="M60.12 38.24c4.68 0 7.4-2.92 7.4-7.3 0-4.16-2.36-7.28-7.08-7.28-4.48 0-7.36 2.8-7.36 7.24 0 4.38 2.48 7.34 7.04 7.34zm.06-1.76c-3.36 0-4.94-2.58-4.94-5.6 0-3.1 1.64-5.48 5.08-5.48 3.3 0 5.02 2.38 5.02 5.52s-1.58 5.56-5.16 5.56zm9.8 1.52h2.1v-4.64h5.14V38h2.1V27.08h-2.1v4.62h-5.14v-4.62h-2.1zm11.48.34c1.4-.4 2.4-1.08 3.02-2.16.72-1.34 1.1-3.66 1.4-7.46h3.1V38h2.08V27.08h-7.02c-.12 3.76-.5 6.78-1.1 7.9-.48.88-1.36 1.32-2.1 1.6zm15.12-.16c1.74 0 2.86-.86 3.54-1.38.2.98 1.3 1.32 2.42 1.32a4.21 4.21 0 0 0 .5-.04l.08-1.6c-.56-.02-1.14-.16-1.14-.84v-5.7c0-2.22-1.44-3.14-4.06-3.14-1.6 0-2.82.32-3.84.74l.44 1.58c.94-.32 1.9-.52 3.06-.52 1.6 0 2.36.4 2.36 1.9v1.18l-2.38.04c-1.9.02-4.34.58-4.34 3.34 0 2.02 1.34 3.12 3.36 3.12zm.54-1.66c-1.06 0-1.86-.5-1.86-1.6 0-1.12.86-1.76 2.36-1.8l2.32-.1v2.52c-.78.5-1.84.98-2.82.98zM110 25.2c1.36 0 2.56-.7 3.26-1.84l-.88-1c-.78.9-1.58 1.2-2.38 1.2-.78 0-1.6-.3-2.36-1.2l-.9 1c.7 1.14 1.92 1.84 3.26 1.84zM105.12 38h2.1l4.66-6.62.94-1.52-.06 1.5V38h2.1V27.08h-2.1l-4.66 6.66-.94 1.48.06-1.46v-6.68h-2.1zm12.7 0h2.1v-4.64h5.14V38h2.1V27.08h-2.1v4.62h-5.14v-4.62h-2.1z" fill="#f59624"/><path d="M60.56 18.24c1.96 0 3.08-.3 4.14-.7l-.5-1.68c-.94.3-1.96.5-3.3.5-3.14 0-5.62-1.68-5.62-5.54 0-3.78 2.4-5.34 5.24-5.32 1.6 0 2.42.26 3.54.62l.62-1.64c-.88-.42-2.12-.82-4.2-.82-4.64 0-7.4 2.9-7.4 7.36 0 4.34 2.66 7.22 7.48 7.22zm10.56-.06c3.02 0 5.28-1.74 5.28-5.64 0-3.32-1.66-4.62-4.28-4.62-1.54 0-2.8.48-3.72.98.12-.96.38-2.24.96-2.8.66-.64 3.36-1.12 6.4-1.64l-.34-1.88c-3.42.64-6.36 1.34-7.46 2.38-1.26 1.18-1.68 4.7-1.68 6.94 0 4.4 1.84 6.28 4.84 6.28zm.16-1.68c-2 0-2.98-1.52-2.98-4.78a25.67 25.67 0 0 1 .04-1.24c.98-.5 1.98-.94 3.24-.94 1.98 0 2.72 1.34 2.72 3.08 0 1.88-.66 3.88-3.02 3.88zm12.22 1.74c1.42 0 2.72-.24 3.68-.6l-.36-1.62c-1.08.32-1.96.48-3 .48-1.92 0-3.56-.58-3.58-3.46h7.18v-.74c0-3.56-1.28-5.5-4.34-5.5-2.74 0-4.94 1.62-4.94 5.94 0 4.22 2.1 5.5 5.36 5.5zm-3.2-6.66c.14-2.14 1.22-3.2 2.66-3.2 1.6 0 2.3 1.26 2.3 3.2zm9.42 10.82h2.08v-4.34c.48.06 1.22.16 1.9.16 2.94 0 5.58-1.5 5.58-5.96 0-3.64-1.76-5.44-4.34-5.44-1.34 0-2.2.46-3.14 1.12v-.86h-2.08zm3.94-5.86c-.74 0-1.6-.16-1.86-.2V9.42c.56-.3 1.42-.82 2.56-.82 2.1 0 2.8 1.78 2.8 3.76 0 2.44-1 4.18-3.5 4.18zm12.46 1.64c3.02 0 5.28-1.74 5.28-5.64 0-3.32-1.66-4.62-4.28-4.62-1.54 0-2.8.48-3.72.98.12-.96.38-2.24.96-2.8.66-.64 3.36-1.12 6.4-1.64l-.34-1.88c-3.42.64-6.36 1.34-7.46 2.38-1.26 1.18-1.68 4.7-1.68 6.94 0 4.4 1.84 6.28 4.84 6.28zm.16-1.68c-2 0-2.98-1.52-2.98-4.78a25.67 25.67 0 0 1 .04-1.24c.98-.5 1.98-.94 3.24-.94 1.98 0 2.72 1.34 2.72 3.08 0 1.88-.66 3.88-3.02 3.88zm10.02 1.68c1.74 0 2.86-.86 3.54-1.38.2.98 1.3 1.32 2.42 1.32a4.21 4.21 0 0 0 .5-.04l.08-1.6c-.56-.02-1.14-.16-1.14-.84v-5.7c0-2.22-1.44-3.14-4.06-3.14-1.6 0-2.82.32-3.84.74l.44 1.58c.94-.32 1.9-.52 3.06-.52 1.6 0 2.36.4 2.36 1.9v1.18l-2.38.04c-1.9.02-4.34.58-4.34 3.34 0 2.02 1.34 3.12 3.36 3.12zm.54-1.66c-1.06 0-1.86-.5-1.86-1.6 0-1.12.86-1.76 2.36-1.8l2.32-.1v2.52c-.78.5-1.84.98-2.82.98zm8 1.48h2.1v-4.64h5.14V18h2.1V7.08h-2.1v4.62h-5.14V7.08h-2.1zm21.18.18l.36-1.56c-.88-.24-1.76-.88-2.72-1.98l-2.08-2.4 4.36-5.16h-2.36l-4.26 5.32 3.02 3.72c1.44 1.76 2.66 2 3.68 2.06zm-8.88-.18h2.1V7.08h-2.1z" fill="#2a9f30"/></svg>