<?xml version="1.0" encoding="UTF-8"?>
<svg width="351.01" height="70.812" version="1.1" viewBox="0 0 351.01093 70.811997" xml:space="preserve" xmlns="http://www.w3.org/2000/svg" xmlns:cc="http://creativecommons.org/ns#" xmlns:dc="http://purl.org/dc/elements/1.1/" xmlns:rdf="http://www.w3.org/1999/02/22-rdf-syntax-ns#"><metadata><rdf:RDF><cc:Work rdf:about=""><dc:format>image/svg+xml</dc:format><dc:type rdf:resource="http://purl.org/dc/dcmitype/StillImage"/><dc:title/></cc:Work></rdf:RDF></metadata><defs><clipPath id="a"><path d="M 0,271.365 H 271.365 V 0 H 0 Z"/></clipPath></defs><g transform="matrix(1.3333 0 0 -1.3333 -7.6479 284.85)"><g transform="translate(5.7363 213.64)"><path d="m0 0h126.95l-14.801-53.109h-112.15z" fill="#ed1c24" fill-rule="evenodd"/></g><g transform="translate(268.99 213.64)"><path d="m0 0-14.982-53.109h-136.13l14.8 53.109z" fill="#2e3192" fill-rule="evenodd"/></g><g clip-path="url(#a)"><g transform="translate(237.92 190.1)"><path d="m0 0c0.329 0.897 0.661 1.622 0.971 2.146 0.313 0.532 0.632 0.923 0.959 1.187 0.326 0.253 0.678 0.419 1.048 0.498 0.367 0.073 0.786 0.107 1.251 0.099 0.834 0 1.482-0.117 1.938-0.348 0.446-0.221 0.742-0.576 0.865-1.044 0.138-0.456 0.124-1.048-0.016-1.751-0.138-0.7-0.304-1.229-0.492-1.612-0.181-0.375-0.425-0.65-0.722-0.823-0.286-0.165-0.661-0.267-1.119-0.328-1.59-0.219-3.179-0.43-4.768-0.641-0.553-0.068-1.105-0.182-1.666-0.362-0.566-0.181-1.125-0.456-1.668-0.811-0.543-0.351-1.056-0.84-1.547-1.442-0.48-0.604-0.924-1.36-1.321-2.28-0.393-0.912-0.735-2.021-1.004-3.305-0.32-1.566-0.448-2.902-0.389-4.013 0.061-1.109 0.281-2.016 0.669-2.712 0.389-0.697 0.909-1.214 1.573-1.544 0.664-0.325 1.429-0.485 2.311-0.485 0.51 0 1.054 0.057 1.648 0.181 0.604 0.12 1.212 0.328 1.851 0.626 0.626 0.294 1.25 0.691 1.871 1.197 0.611 0.504 1.173 1.127 1.704 1.88-0.071-0.475-0.136-0.954-0.179-1.437-0.042-0.478-0.062-0.957-0.087-1.437h4.434c-0.041 0.671-6e-3 1.453 0.077 2.343 0.091 0.888 0.247 1.926 0.464 3.095 0.434 2.223 0.865 4.433 1.297 6.642 0.428 2.198 0.857 4.389 1.282 6.576 0.206 0.99 0.321 1.93 0.369 2.82 0.037 0.89-0.019 1.709-0.205 2.451-0.173 0.74-0.503 1.384-0.955 1.921-0.473 0.542-1.105 0.971-1.923 1.269-0.814 0.299-1.842 0.458-3.08 0.458-0.714 9e-3 -1.431-0.049-2.147-0.166-0.738-0.115-1.445-0.343-2.148-0.677-0.707-0.342-1.377-0.833-2.037-1.5-0.647-0.659-1.258-1.531-1.823-2.621-0.555-1.081-1.06-2.436-1.496-4.05zm5.488-7.678c-0.177-0.896-0.43-1.703-0.754-2.41-0.313-0.716-0.692-1.342-1.107-1.869-0.418-0.532-0.866-0.971-1.338-1.324-0.466-0.351-0.941-0.61-1.427-0.789-0.485-0.172-0.941-0.259-1.393-0.259-0.553 0-1.007 0.154-1.365 0.444-0.357 0.292-0.593 0.714-0.711 1.267-0.118 0.558-0.105 1.246 0.056 2.049 0.162 0.792 0.389 1.426 0.655 1.913 0.263 0.479 0.597 0.846 0.992 1.096 0.394 0.242 0.852 0.404 1.385 0.478 0.869 0.148 1.748 0.299 2.629 0.45 0.45 0.068 0.908 0.176 1.375 0.332 0.468 0.157 0.946 0.422 1.438 0.809-0.147-0.73-0.29-1.458-0.435-2.187m-26.597-10.883h4.413c0.411 1.939 0.823 3.884 1.232 5.811 0.408 1.928 0.815 3.851 1.222 5.771 0.367 1.731 0.845 3.2 1.415 4.412 0.57 1.207 1.257 2.134 2.04 2.778 0.776 0.64 1.664 0.959 2.661 0.969 0.4 0 0.793-0.082 1.152-0.229 0.371-0.139 0.731-0.331 1.084-0.558 0.561 2.704 1.118 5.396 1.674 8.084-0.231 0.094-0.478 0.166-0.756 0.197-0.266 0.03-0.525 0.046-0.774 0.046-0.613 0-1.184-0.115-1.709-0.344-0.539-0.234-1.056-0.584-1.552-1.056-0.501-0.479-1.014-1.082-1.545-1.813-0.531-0.736-1.09-1.603-1.701-2.606h-0.046c0.363 1.715 0.725 3.422 1.088 5.132h-4.186c-0.938-4.368-1.883-8.763-2.829-13.177-0.955-4.444-1.916-8.917-2.883-13.417m-21.839-10.125h4.455c0.497 2.203 0.995 4.41 1.486 6.6 0.493 2.188 0.985 4.37 1.475 6.549h0.047c0.104-0.813 0.328-1.52 0.692-2.117 0.35-0.605 0.835-1.076 1.432-1.415 0.599-0.328 1.316-0.498 2.134-0.506 1.071 8e-3 2.142 0.359 3.197 1.038 1.053 0.691 2.066 1.666 3.015 2.945 0.957 1.263 1.82 2.786 2.572 4.555 0.761 1.753 1.381 3.724 1.853 5.897 0.503 2.327 0.736 4.361 0.725 6.091-0.025 1.739-0.249 3.174-0.694 4.324-0.456 1.147-1.075 2.012-1.871 2.58-0.804 0.581-1.742 0.865-2.824 0.865-0.598 0.013-1.192-0.099-1.786-0.318-0.596-0.225-1.226-0.653-1.889-1.269-0.659-0.611-1.393-1.498-2.203-2.66h-0.045c0.269 1.187 0.535 2.376 0.804 3.56h-4.198c-1.367-5.992-2.746-12.034-4.135-18.129-1.403-6.143-2.816-12.341-4.242-18.59m9.573 23.396c0.286 1.268 0.648 2.375 1.083 3.33 0.431 0.953 0.91 1.757 1.429 2.395 0.523 0.638 1.062 1.116 1.627 1.444 0.562 0.315 1.113 0.481 1.659 0.481 0.56 0 1.049-0.166 1.469-0.481 0.42-0.328 0.75-0.804 0.985-1.444 0.248-0.638 0.368-1.442 0.377-2.395 8e-3 -0.955-0.133-2.062-0.4-3.33-0.29-1.267-0.638-2.388-1.067-3.345-0.431-0.961-0.908-1.768-1.442-2.428-0.526-0.649-1.071-1.136-1.641-1.468-0.568-0.327-1.135-0.493-1.701-0.493-0.553 0-1.036 0.166-1.459 0.493-0.422 0.332-0.752 0.819-0.984 1.468-0.236 0.66-0.352 1.467-0.354 2.428-4e-3 0.957 0.132 2.078 0.419 3.345m-14.688-13.271h4.413c0.702 3.051 1.401 6.087 2.097 9.111 0.696 3.013 1.386 6.017 2.073 9.01 0.399 1.727 0.584 3.177 0.558 4.354-0.014 1.176-0.195 2.119-0.534 2.822-0.326 0.704-0.766 1.21-1.316 1.526-0.555 0.309-1.167 0.464-1.838 0.458-1.208-8e-3 -2.367-0.439-3.478-1.295-1.113-0.853-2.163-2.067-3.142-3.642 0.024 1.007-0.079 1.869-0.3 2.613-0.213 0.727-0.576 1.303-1.072 1.704-0.505 0.409-1.174 0.612-2.013 0.62-0.64-8e-3 -1.261-0.141-1.891-0.389-0.632-0.265-1.227-0.599-1.807-1.034-0.573-0.427-1.088-0.912-1.57-1.442-0.471-0.53-0.878-1.073-1.218-1.627h-0.046c0.311 1.271 0.621 2.542 0.931 3.809h-4.196c-1.082-4.368-2.169-8.766-3.261-13.181-1.099-4.442-2.209-8.92-3.321-13.419h4.425c0.595 2.438 1.192 4.872 1.782 7.292 0.59 2.417 1.178 4.819 1.765 7.221 0.253 1.038 0.568 1.946 0.915 2.712 0.369 0.762 0.753 1.403 1.186 1.904 0.433 0.509 0.874 0.878 1.338 1.135 0.46 0.245 0.922 0.365 1.392 0.365 0.309 8e-3 0.6-0.067 0.874-0.203 0.274-0.148 0.49-0.388 0.67-0.732 0.17-0.334 0.263-0.804 0.284-1.388 0.017-0.592-0.089-1.318-0.29-2.208-0.64-2.659-1.284-5.333-1.925-8.01-0.646-2.685-1.295-5.381-1.944-8.088h4.413c0.579 2.438 1.157 4.872 1.731 7.292 0.572 2.417 1.143 4.819 1.713 7.221 0.247 1.038 0.553 1.946 0.906 2.712 0.352 0.762 0.744 1.403 1.16 1.904 0.417 0.509 0.859 0.878 1.319 1.135 0.446 0.245 0.898 0.365 1.354 0.365 0.323 8e-3 0.625-0.067 0.911-0.203 0.275-0.15 0.506-0.388 0.688-0.732 0.172-0.334 0.28-0.804 0.292-1.388 0.023-0.592-0.068-1.322-0.275-2.208-0.62-2.659-1.245-5.333-1.867-8.008-0.626-2.687-1.255-5.383-1.886-8.088m-33.046 13.421c0.448 1.744 1.001 3.209 1.64 4.41 0.644 1.202 1.37 2.118 2.157 2.739 0.788 0.624 1.646 0.939 2.546 0.939 0.905 0 1.587-0.315 2.057-0.939 0.481-0.621 0.725-1.537 0.758-2.739 0.035-1.201-0.168-2.666-0.608-4.41-0.438-1.742-0.979-3.22-1.627-4.438-0.645-1.214-1.361-2.153-2.167-2.787-0.796-0.638-1.651-0.961-2.563-0.961s-1.612 0.323-2.084 0.961c-0.472 0.634-0.729 1.569-0.748 2.787-0.021 1.214 0.189 2.696 0.639 4.438m-4.522 0c-0.653-2.503-1.003-4.675-1.061-6.489-0.062-1.83 0.149-3.33 0.633-4.496 0.48-1.177 1.178-2.055 2.125-2.605 0.944-0.565 2.089-0.845 3.423-0.845 1.332 0 2.621 0.28 3.841 0.845 1.23 0.55 2.388 1.428 3.458 2.605 1.077 1.166 2.053 2.666 2.925 4.496 0.878 1.814 1.626 3.986 2.262 6.489 0.611 2.497 0.937 4.639 0.961 6.427 0.038 1.798-0.19 3.258-0.679 4.4-0.482 1.132-1.189 1.977-2.122 2.515-0.921 0.539-2.044 0.821-3.353 0.812-1.304 9e-3 -2.57-0.273-3.778-0.812-1.208-0.538-2.337-1.383-3.404-2.515-1.072-1.14-2.045-2.602-2.923-4.4-0.879-1.788-1.655-3.926-2.308-6.427m-0.562 3.462c0.286 1.743 0.402 3.229 0.338 4.465-0.064 1.234-0.263 2.256-0.597 3.063-0.331 0.813-0.768 1.451-1.294 1.903-0.525 0.464-1.111 0.789-1.743 0.98-0.642 0.19-1.297 0.29-1.984 0.281-1.302 9e-3 -2.559-0.273-3.773-0.812-1.216-0.538-2.367-1.383-3.439-2.515-1.086-1.14-2.076-2.602-2.978-4.396-0.912-1.788-1.693-3.93-2.378-6.431-0.686-2.503-1.084-4.675-1.177-6.489-0.096-1.83 0.072-3.33 0.506-4.496 0.42-1.177 1.083-2.055 1.976-2.605 0.88-0.565 1.964-0.845 3.238-0.845 1.096-0.018 2.173 0.152 3.214 0.489 1.054 0.344 2.055 0.94 3.047 1.801 0.976 0.848 1.918 2.05 2.83 3.582 0.91 1.525 1.764 3.474 2.59 5.826h-4.532c-0.378-1.119-0.84-2.09-1.378-2.895-0.552-0.816-1.146-1.445-1.782-1.887-0.637-0.443-1.285-0.659-1.944-0.667-0.912 0-1.597 0.323-2.061 0.961-0.475 0.634-0.706 1.569-0.713 2.787-3e-3 1.214 0.226 2.696 0.698 4.438 0.471 1.744 1.04 3.209 1.697 4.41 0.655 1.202 1.384 2.118 2.19 2.739 0.796 0.624 1.647 0.939 2.547 0.939 0.596 8e-3 1.097-0.128 1.5-0.414 0.401-0.294 0.671-0.775 0.847-1.453 0.163-0.677 0.169-1.599 0.043-2.759z" fill="#fff"/></g><g transform="translate(108.05 171.38)"><path d="m0 0h5.171c1.838 6.168 3.674 12.324 5.503 18.466 1.828 6.135 3.653 12.257 5.473 18.373h-5.315c-0.644-2.159-1.289-4.317-1.933-6.468-0.645-2.155-1.291-4.32-1.935-6.475h-0.06c-0.098 0.819-0.355 1.527-0.769 2.133-0.413 0.6-0.97 1.074-1.682 1.408-0.713 0.333-1.563 0.506-2.566 0.506-1.284 0-2.577-0.355-3.874-1.036-1.299-0.684-2.546-1.674-3.746-2.946-1.21-1.283-2.305-2.82-3.3-4.605-0.997-1.79-1.844-3.795-2.509-6.011-0.714-2.379-1.104-4.461-1.18-6.259-0.079-1.792 0.113-3.286 0.578-4.492 0.462-1.2 1.153-2.103 2.067-2.702 0.916-0.604 2.009-0.907 3.278-0.911 0.813-2e-3 1.63 0.11 2.475 0.364 0.837 0.253 1.701 0.713 2.582 1.36 0.878 0.648 1.778 1.547 2.702 2.714h0.062c-0.342-1.144-0.682-2.284-1.022-3.419m-5.982 13.494c0.389 1.297 0.869 2.44 1.431 3.421 0.561 0.981 1.174 1.8 1.833 2.461 0.659 0.659 1.341 1.152 2.045 1.488 0.705 0.333 1.394 0.499 2.07 0.499 0.669 0 1.26-0.164 1.757-0.499 0.497-0.336 0.874-0.829 1.141-1.488 0.268-0.661 0.385-1.48 0.357-2.461-0.025-0.981-0.233-2.124-0.618-3.421-0.388-1.299-0.868-2.437-1.425-3.414-0.562-0.985-1.17-1.81-1.835-2.477-0.664-0.664-1.338-1.157-2.037-1.491-0.701-0.335-1.389-0.505-2.06-0.505-0.679 0-1.268 0.168-1.775 0.505-0.505 0.332-0.894 0.827-1.154 1.491-0.263 0.665-0.379 1.492-0.353 2.477 0.027 0.977 0.232 2.115 0.623 3.414m-22.17 3.046c9e-3 0.033 0.021 0.066 0.031 0.103 0.038 0.141 0.17 0.437 0.392 0.878 0.226 0.454 0.528 0.96 0.915 1.535 0.386 0.577 0.869 1.141 1.415 1.685 0.552 0.551 1.174 1.007 1.878 1.372 0.7 0.362 1.469 0.567 2.312 0.567 0.77 0 1.401-0.162 1.877-0.48 0.472-0.315 0.821-0.721 1.058-1.22 0.239-0.499 0.386-1.022 0.448-1.571 0.061-0.56 0.067-1.083 0.021-1.575-0.045-0.487-0.118-0.886-0.216-1.191-0.012-0.037-0.02-0.07-0.03-0.103zm7.082-8.387c-0.739-1.17-1.57-2.066-2.499-2.662-0.926-0.596-1.931-0.91-3.006-0.902-0.906 6e-3 -1.62 0.237-2.15 0.663-0.527 0.425-0.906 0.977-1.123 1.643-0.22 0.68-0.313 1.387-0.288 2.139 0.028 0.758 0.144 1.462 0.346 2.125 0.01 0.034 0.021 0.068 0.029 0.103h15.626c0.082 0.268 0.163 0.537 0.246 0.809 1.035 3.431 1.532 6.346 1.5 8.759-0.031 2.404-0.624 4.238-1.78 5.501-1.156 1.266-2.895 1.906-5.228 1.916-1.609 7e-3 -3.15-0.279-4.63-0.84-1.475-0.558-2.87-1.433-4.166-2.605-1.307-1.183-2.492-2.697-3.565-4.544-1.072-1.843-2.006-4.046-2.789-6.612-0.782-2.553-1.192-4.77-1.248-6.622-0.055-1.855 0.214-3.377 0.796-4.558 0.586-1.191 1.446-2.073 2.584-2.636 1.144-0.568 2.518-0.845 4.137-0.849 1.63-3e-3 3.209 0.311 4.736 0.944 1.523 0.632 2.975 1.619 4.349 2.972 1.379 1.361 2.652 3.109 3.82 5.256zm-34.491 17.185h-46.751v-4.385h45.393l-0.752-2.435-44.641 0.021v-4.409h43.285l-0.754-2.436h-42.531v-4.385h41.175l-0.904-2.923h-40.255l-6e-3 -4.384 38.906-2e-3h5.875l4.386 13.345c2.337 0 4.677-7e-3 7.02 0 0.46 0 0.849-0.089 1.175-0.284 0.315-0.191 0.548-0.516 0.68-0.99 0.133-0.466 0.149-1.117 0.046-1.95-0.103-0.821-0.342-1.873-0.73-3.138-0.29-0.951-0.537-1.764-0.741-2.462-0.203-0.696-0.365-1.312-0.485-1.829-0.124-0.527-0.213-1.003-0.267-1.426-0.051-0.433-0.081-0.853-0.071-1.266h6.431c-0.109 0.474-0.136 1.061-0.073 1.757 0.063 0.698 0.179 1.438 0.339 2.213 0.16 0.771 0.342 1.511 0.531 2.21 0.188 0.686 0.349 1.258 0.491 1.718 0.226 0.723 0.445 1.491 0.654 2.318 0.211 0.823 0.371 1.637 0.503 2.445 0.132 0.819 0.194 1.579 0.188 2.272-8e-3 0.695-0.119 1.277-0.326 1.751-0.208 0.471-0.541 0.779-1.011 0.923 0.01 0.034 0.022 0.068 0.032 0.103 1.441 0.738 2.664 1.82 3.671 3.263 1.001 1.438 1.83 3.262 2.499 5.453 0.228 0.75 0.432 1.559 0.594 2.435 0.162 0.881 0.229 1.745 0.211 2.616-0.018 0.866-0.167 1.648-0.474 2.374-0.298 0.709-0.803 1.281-1.494 1.711-0.689 0.428-1.62 0.665-2.809 0.667-5.22 8e-3 -10.434 0-15.643 0zm7.092 4.023c2.483 0 4.968-8e-3 7.458 0 0.363 0 0.701-0.053 1.027-0.194 0.319-0.138 0.582-0.376 0.785-0.708 0.205-0.336 0.306-0.796 0.314-1.382 6e-3 -0.582-0.123-1.328-0.395-2.219-0.259-0.846-0.573-1.564-0.918-2.155-0.345-0.59-0.718-1.063-1.101-1.427-0.385-0.363-0.766-0.626-1.145-0.787-0.379-0.164-0.73-0.239-1.064-0.239h-7.772c0.94 3.036 1.875 6.077 2.811 9.111" fill="#fff"/></g></g></g></svg>
