<?xml version="1.0" encoding="UTF-8"?>
<svg width="33.17" height="33.175" version="1.1" viewBox="0 0 33.16982 33.175071" xmlns="http://www.w3.org/2000/svg" xmlns:cc="http://creativecommons.org/ns#" xmlns:dc="http://purl.org/dc/elements/1.1/" xmlns:rdf="http://www.w3.org/1999/02/22-rdf-syntax-ns#">
<metadata>
<rdf:RDF>
<cc:Work rdf:about="">
<dc:format>image/svg+xml</dc:format>
<dc:type rdf:resource="http://purl.org/dc/dcmitype/StillImage"/>
<dc:title>Recurso 1</dc:title>
</cc:Work>
</rdf:RDF>
</metadata>
<defs>
<style>.cls-1{fill:#2c4090;}.cls-2,.cls-4,.cls-6{fill:#cf4238;}.cls-2,.cls-4{stroke:#d33741;}.cls-2,.cls-3,.cls-4{stroke-miterlimit:3.86;fill-rule:evenodd;}.cls-2{stroke-width:0.5px;}.cls-3{fill:#fff;stroke:#fff;}.cls-3,.cls-4{stroke-width:0.51px;}.cls-5{fill:#262424;}</style>
</defs>
<title>Recurso 1</title>
<path class="cls-2" d="m4.5616 9.755c6.05-8.33 18-11.87 24.18-6.93 6 4.81 5.34 12.92-0.71 21.25s-17.66 10.93-22.76 7.15c-6.37-4.75-6.76-13.14-0.71-21.47z" fill="#cf4238" fill-rule="evenodd" stroke="#d33741" stroke-miterlimit="3.86" stroke-width=".5px"/>
<path class="cls-3" d="m1.2616 26.275 12.55-24.17a18.47 18.47 0 0 1 9.11 -1.82l5.55 23.48c-1.78 2.54-3.62 4.69-6.31 5.89l-0.8-5h-12.79l-3.2 6.65a11.78 11.78 0 0 1 -4.11 -5.03z" fill="#fff" fill-rule="evenodd" stroke="#fff" stroke-miterlimit="3.86" stroke-width=".51px"/>
<polygon class="cls-4" transform="translate(.0016403 .005036)" points="11.65 19.42 20.54 19.42 17.87 6.81" fill="#cf4238" fill-rule="evenodd" stroke="#d33741" stroke-miterlimit="3.86" stroke-width=".51px"/>
<path class="cls-6" d="m27.912 28.625a1.21 1.21 0 0 1 0.54 0.14 1 1 0 0 1 0.4 0.4 1.08 1.08 0 0 1 0.15 0.54 1.14 1.14 0 0 1 -0.14 0.54 1 1 0 0 1 -0.41 0.41 1.11 1.11 0 0 1 -1.08 0 1 1 0 0 1 -0.4 -0.41 1 1 0 0 1 -0.15 -0.54 1.08 1.08 0 0 1 0.15 -0.54 1 1 0 0 1 0.41 -0.4 1.13 1.13 0 0 1 0.53 -0.14zm0 0.18a0.88 0.88 0 0 0 -0.44 0.12 0.77 0.77 0 0 0 -0.34 0.33 1 1 0 0 0 -0.13 0.45 0.81 0.81 0 0 0 0.13 0.45 0.83 0.83 0 0 0 0.33 0.34 1 1 0 0 0 0.45 0.12 0.89 0.89 0 0 0 0.45 -0.12 0.8 0.8 0 0 0 0.34 -0.34 0.89 0.89 0 0 0 0.12 -0.45 1 1 0 0 0 -0.12 -0.45 0.83 0.83 0 0 0 -0.34 -0.33 1 1 0 0 0 -0.45 -0.12zm-0.48 1.5v-1.16h0.41a1.05 1.05 0 0 1 0.3 0 0.26 0.26 0 0 1 0.14 0.11 0.29 0.29 0 0 1 0.06 0.17 0.33 0.33 0 0 1 -0.09 0.23 0.4 0.4 0 0 1 -0.25 0.1l0.1 0.06a1.47 1.47 0 0 1 0.18 0.24l0.14 0.22h-0.23l-0.11-0.18a1.05 1.05 0 0 0 -0.19 -0.27 0.24 0.24 0 0 0 -0.15 0h-0.11v0.49zm0.2-0.66h0.23a0.39 0.39 0 0 0 0.22 0 0.18 0.18 0 0 0 0.06 -0.13 0.17 0.17 0 0 0 0 -0.1 0.18 0.18 0 0 0 -0.08 -0.06 0.66 0.66 0 0 0 -0.19 0h-0.21z" fill="#cf4238"/>
</svg>
