<?xml version="1.0" encoding="UTF-8"?>
<svg width="84.18" height="33.175" version="1.1" viewBox="0 0 84.179979 33.175071" xmlns="http://www.w3.org/2000/svg" xmlns:cc="http://creativecommons.org/ns#" xmlns:dc="http://purl.org/dc/elements/1.1/" xmlns:rdf="http://www.w3.org/1999/02/22-rdf-syntax-ns#">
<metadata>
<rdf:RDF>
<cc:Work rdf:about="">
<dc:format>image/svg+xml</dc:format>
<dc:type rdf:resource="http://purl.org/dc/dcmitype/StillImage"/>
<dc:title>Recurso 1</dc:title>
</cc:Work>
</rdf:RDF>
</metadata>
<defs>
<style>.cls-1{fill:#2c4090;}.cls-2,.cls-4,.cls-6{fill:#cf4238;}.cls-2,.cls-4{stroke:#d33741;}.cls-2,.cls-3,.cls-4{stroke-miterlimit:3.86;fill-rule:evenodd;}.cls-2{stroke-width:0.5px;}.cls-3{fill:#fff;stroke:#fff;}.cls-3,.cls-4{stroke-width:0.51px;}.cls-5{fill:#262424;}</style>
</defs>
<title>Recurso 1</title>
<polygon class="cls-1" transform="translate(.0016403 .005036)" points="39.59 13.26 38.03 13.26 38.03 5.84 41.02 5.84 41.02 7.34 39.53 7.34 39.53 8.49 41.02 8.49 41.02 10.13 39.59 10.13" fill="#2c4090"/>
<path class="cls-1" d="m45.672 7.675h1.18v0.58s0.23-0.71 0.85-0.6v1.64a0.73 0.73 0 0 0 -0.82 0.73v3.22h-1.22z" fill="#2c4090"/>
<path class="cls-1" d="m48.382 7.675h1.08v0.33s0 0.09 0.09 0a0.94 0.94 0 0 1 0.76 -0.46 1.25 1.25 0 0 1 0.8 0.46s0 0.06 0.09 0.05a0.08 0.08 0 0 0 0.06 -0.05 1 1 0 0 1 0.81 -0.46c0.53 0 1 0.64 1 1.27v4.43h-1.07v-3.9s0-0.56-0.39-0.56-0.4 0.59-0.4 0.59v3.87h-1v-3.9s0.06-0.56-0.35-0.56-0.34 0.56-0.34 0.56v3.9h-1.13z" fill="#2c4090"/>
<path class="cls-1" d="m60.682 9.845h-1v-0.49s0-0.61-0.36-0.61-0.38 0.62-0.38 0.62v2.23s0 0.5 0.38 0.5 0.35-0.45 0.35-0.45v-0.51h1v1.25s-0.05 0.93-1.44 0.93-1.41-1.05-1.41-1.05v-3.26a1.37 1.37 0 0 1 1.45 -1.41c1.47 0 1.39 1.16 1.39 1.16z" fill="#2c4090"/>
<rect class="cls-1" x="61.462" y="7.655" width="1.27" height="5.61" fill="#2c4090"/>
<rect class="cls-1" x="61.492" y="5.845" width="1.24" height="1.43" fill="#2c4090"/>
<path class="cls-1" d="m69.332 9.575h1v-1.07s0-0.94-1.37-0.94a1.23 1.23 0 0 0 -1.36 1.19s-0.13 1.39 0.58 1.89a7.53 7.53 0 0 1 1.1 1s0.28 0.82-0.32 0.82-0.42-0.86-0.42-0.86h-0.94v1s0 0.78 1.33 0.78 1.46-0.73 1.46-1 0.18-1.45-0.51-1.9c0 0-1.27-0.83-1.27-1.24s0-0.66 0.39-0.66 0.34 0.26 0.33 0.99z" fill="#2c4090"/>
<path class="cls-1" d="m75.162 13.005v0.25h0.91v-7.37h-1.07v2.32s-0.35-0.8-1-0.63c-0.91 0.22-0.82 1.68-0.82 1.68v3s0 0.81 0.62 1a1.71 1.71 0 0 0 1.36 -0.25zm-0.84-1.5v-1.9s-0.06-0.55 0.35-0.55 0.32 0.58 0.32 0.58v1.94s0.07 0.47-0.33 0.47-0.34-0.54-0.34-0.54z" fill="#2c4090"/>
<path class="cls-1" d="m78.872 11.375v0.63s0.07 0.43-0.31 0.42-0.34-0.35-0.34-0.35v-1.18h1.72v-1.73s0.06-1.61-1.38-1.61-1.5 1.6-1.5 1.6v3s0 1.11 1.47 1.11 1.47-0.78 1.47-0.78v-1.11zm-0.69-2s0-0.45 0.4-0.45a0.43 0.43 0 0 1 0.42 0.4v0.68h-0.83z" fill="#2c4090"/>
<rect class="cls-1" x="80.912" y="5.885" width="1.22" height="7.38" fill="#2c4090"/>
<path class="cls-1" d="m39.532 29.735h3.13l-0.48-13h-3.91l-6.51 13h3.13l1.44-2.73h3.2zm-1.65-5.37 1.21-2.74 0.13 2.74z" fill="#2c4090"/>
<path class="cls-1" d="m45.382 16.755h3l-0.37 3.87s0 0.07 0.15 0a3.79 3.79 0 0 1 2.84 0.07c1.06 0.69 1.12 1.19 1 2s-1 7-1 7h-3.08l0.83-6.35s0.11-0.69-0.34-0.69-0.61 0.58-0.61 0.58l-0.93 6.47h-3z" fill="#2c4090"/>
<path class="cls-1" d="m62.672 20.605h3l-0.07 0.3a0.14 0.14 0 0 0 0.23 0 1.94 1.94 0 0 1 2.2 -0.17l-0.33 2.64s-2.29-0.2-2.51 1.56-0.53 4.81-0.53 4.81h-3.15z" fill="#2c4090"/>
<path class="cls-1" d="m68.882 20.605h3l-0.07 0.3a0.13 0.13 0 0 0 0.22 0 2 2 0 0 1 2.21 -0.17l-0.33 2.64s-2.29-0.2-2.51 1.56-0.53 4.81-0.53 4.81h-3.14z" fill="#2c4090"/>
<path class="cls-1" d="m59.902 27.875a13.3 13.3 0 0 0 0.71 -4.15c0-0.74-0.06-3.49-3.06-3.42s-3.77 1.55-4.19 2.27c-0.57 1-0.72 4.61-0.72 4.61 0.09 1.05 0.85 2.87 3.58 2.87s3.18-1.23 3.68-2.18zm-3.71-0.24c-0.63-0.08-0.44-1.07-0.44-1.07l0.41-2.77s0.25-1 0.91-0.93 0.49 1.07 0.49 1.07a26.46 26.46 0 0 1 -0.45 2.93c-0.2 0.59-0.28 0.84-0.92 0.77z" fill="#2c4090"/>
<path class="cls-1" d="m81.222 27.875a13.33 13.33 0 0 0 0.72 -4.15c0-0.74-0.07-3.49-3.06-3.42s-3.78 1.55-4.2 2.27c-0.57 1-0.71 4.61-0.71 4.61 0.08 1.05 0.84 2.87 3.58 2.87s3.17-1.23 3.67-2.18zm-3.7-0.24c-0.64-0.08-0.44-1.07-0.44-1.07l0.41-2.77s0.25-1 0.91-0.93 0.48 1.07 0.48 1.07a26.46 26.46 0 0 1 -0.45 2.93c-0.19 0.59-0.28 0.84-0.91 0.77z" fill="#2c4090"/>
<path class="cls-2" d="m4.5616 9.755c6.05-8.33 18-11.87 24.18-6.93 6 4.81 5.34 12.92-0.71 21.25s-17.66 10.93-22.76 7.15c-6.37-4.75-6.76-13.14-0.71-21.47z" fill="#cf4238" fill-rule="evenodd" stroke="#d33741" stroke-miterlimit="3.86" stroke-width=".5px"/>
<path class="cls-3" d="m1.2616 26.275 12.55-24.17a18.47 18.47 0 0 1 9.11 -1.82l5.55 23.48c-1.78 2.54-3.62 4.69-6.31 5.89l-0.8-5h-12.79l-3.2 6.65a11.78 11.78 0 0 1 -4.11 -5.03z" fill="#fff" fill-rule="evenodd" stroke="#fff" stroke-miterlimit="3.86" stroke-width=".51px"/>
<polygon class="cls-4" transform="translate(.0016403 .005036)" points="17.87 6.81 11.65 19.42 20.54 19.42" fill="#cf4238" fill-rule="evenodd" stroke="#d33741" stroke-miterlimit="3.86" stroke-width=".51px"/>
<path class="cls-1" d="m43.372 7.565a1.61 1.61 0 0 0 -1.71 1.84h1.22s-0.08-0.57 0.27-0.6 0.39 0.22 0.39 0.22v0.44a4.39 4.39 0 0 0 -1.06 0.56 2 2 0 0 0 -0.86 2.64c0.63 1.33 2.11 0.25 2.11 0.25v0.36h1.2v-4.27a1.37 1.37 0 0 0 -1.56 -1.44zm0.17 4.1c0 0.35-0.2 0.59-0.68 0.56s-0.51-0.51-0.25-0.93a1.44 1.44 0 0 1 0.93 -0.62z" fill="#2c4090"/>
<path class="cls-1" d="m55.582 7.565a1.62 1.62 0 0 0 -1.71 1.84h1.22s-0.07-0.57 0.28-0.6 0.38 0.22 0.38 0.22v0.44a4.25 4.25 0 0 0 -1 0.56 2 2 0 0 0 -0.86 2.64c0.63 1.33 2.11 0.25 2.11 0.25v0.36h1.2v-4.27a1.38 1.38 0 0 0 -1.62 -1.44zm0.29 4.1c0 0.35-0.2 0.59-0.67 0.56s-0.52-0.51-0.26-0.93a1.44 1.44 0 0 1 0.93 -0.62z" fill="#2c4090"/>
<path class="cls-1" d="m65.352 7.565a1.62 1.62 0 0 0 -1.71 1.84h1.22s-0.07-0.57 0.28-0.6 0.38 0.22 0.38 0.22v0.44a4.25 4.25 0 0 0 -1 0.56 2 2 0 0 0 -0.86 2.64c0.63 1.33 2.11 0.25 2.11 0.25v0.36h1.2v-4.27a1.38 1.38 0 0 0 -1.62 -1.44zm0.29 4.1c0 0.35-0.2 0.59-0.67 0.56s-0.51-0.51-0.26-0.93a1.44 1.44 0 0 1 0.93 -0.62z" fill="#2c4090"/>
<path class="cls-6" d="m27.912 28.625a1.21 1.21 0 0 1 0.54 0.14 1 1 0 0 1 0.4 0.4 1.08 1.08 0 0 1 0.15 0.54 1.14 1.14 0 0 1 -0.14 0.54 1 1 0 0 1 -0.41 0.41 1.11 1.11 0 0 1 -1.08 0 1 1 0 0 1 -0.4 -0.41 1 1 0 0 1 -0.15 -0.54 1.08 1.08 0 0 1 0.15 -0.54 1 1 0 0 1 0.41 -0.4 1.13 1.13 0 0 1 0.53 -0.14zm0 0.18a0.88 0.88 0 0 0 -0.44 0.12 0.77 0.77 0 0 0 -0.34 0.33 1 1 0 0 0 -0.13 0.45 0.81 0.81 0 0 0 0.13 0.45 0.83 0.83 0 0 0 0.33 0.34 1 1 0 0 0 0.45 0.12 0.89 0.89 0 0 0 0.45 -0.12 0.8 0.8 0 0 0 0.34 -0.34 0.89 0.89 0 0 0 0.12 -0.45 1 1 0 0 0 -0.12 -0.45 0.83 0.83 0 0 0 -0.34 -0.33 1 1 0 0 0 -0.45 -0.12zm-0.48 1.5v-1.16h0.41a1.05 1.05 0 0 1 0.3 0 0.26 0.26 0 0 1 0.14 0.11 0.29 0.29 0 0 1 0.06 0.17 0.33 0.33 0 0 1 -0.09 0.23 0.4 0.4 0 0 1 -0.25 0.1l0.1 0.06a1.47 1.47 0 0 1 0.18 0.24l0.14 0.22h-0.23l-0.11-0.18a1.05 1.05 0 0 0 -0.19 -0.27 0.24 0.24 0 0 0 -0.15 0h-0.11v0.49zm0.2-0.66h0.23a0.39 0.39 0 0 0 0.22 0 0.18 0.18 0 0 0 0.06 -0.13 0.17 0.17 0 0 0 0 -0.1 0.18 0.18 0 0 0 -0.08 -0.06 0.66 0.66 0 0 0 -0.19 0h-0.21z" fill="#cf4238"/>
<path class="cls-1" d="m83.082 29.545a1 1 0 0 1 0.53 0.14 1 1 0 0 1 0.41 0.4 1 1 0 0 1 0 1.08 0.91 0.91 0 0 1 -0.4 0.4 1 1 0 0 1 -1.08 0 0.93 0.93 0 0 1 -0.41 -0.4 1.14 1.14 0 0 1 -0.14 -0.54 1 1 0 0 1 0.15 -0.54 1 1 0 0 1 0.4 -0.4 1.09 1.09 0 0 1 0.54 -0.14zm0 0.18a1 1 0 0 0 -0.45 0.12 0.9 0.9 0 0 0 -0.34 0.33 1 1 0 0 0 -0.12 0.45 0.89 0.89 0 0 0 0.12 0.45 0.8 0.8 0 0 0 0.34 0.34 0.89 0.89 0 0 0 0.45 0.12 0.92 0.92 0 0 0 0.45 -0.12 0.83 0.83 0 0 0 0.33 -0.34 0.89 0.89 0 0 0 0.12 -0.45 1 1 0 0 0 -0.12 -0.45 0.77 0.77 0 0 0 -0.34 -0.33 0.88 0.88 0 0 0 -0.44 -0.12zm-0.48 1.5v-1.16h0.4a1.05 1.05 0 0 1 0.3 0 0.33 0.33 0 0 1 0.15 0.11 0.27 0.27 0 0 1 0.06 0.17 0.3 0.3 0 0 1 -0.1 0.22 0.34 0.34 0 0 1 -0.24 0.11l0.1 0.06a1.54 1.54 0 0 1 0.17 0.24l0.14 0.22h-0.23l-0.1-0.18a0.87 0.87 0 0 0 -0.2 -0.27 0.21 0.21 0 0 0 -0.15 0h-0.11v0.49zm0.19-0.66h0.21a0.43 0.43 0 0 0 0.23 0 0.18 0.18 0 0 0 0.06 -0.13 0.17 0.17 0 0 0 0 -0.1l-0.08-0.06h-0.41z" fill="#2c4090"/>
</svg>
