<svg xmlns="http://www.w3.org/2000/svg" width="68.536" height="112" fill="none" xmlns:v="https://vecta.io/nano"><path d="M55.571 18.666h12.965V0L54.579.015C24.369.572 0 25.421 0 56c0 30.909 24.902 55.971 55.571 56h12.965V93.331H55.571c-5.627-.021-11.175-1.333-16.224-3.835s-9.467-6.13-12.919-10.607-5.848-9.688-7.007-15.236-1.049-11.29.321-16.79c2.09 7.969 6.737 15.018 13.219 20.047s14.43 7.756 22.61 7.756h12.965V56H55.571c-10.158 0-18.426-8.429-18.426-18.666s8.268-18.668 18.426-18.668z" fill="#0057ff"/></svg>