<svg xmlns="http://www.w3.org/2000/svg" width="402" height="112" fill="none" xmlns:v="https://vecta.io/nano"><path d="M55.571 18.666h12.965V0L54.579.015C24.369.572 0 25.421 0 56c0 30.909 24.902 55.971 55.571 56h12.965V93.331H55.571c-5.627-.021-11.175-1.333-16.224-3.835s-9.467-6.13-12.919-10.607-5.848-9.688-7.007-15.236-1.049-11.29.321-16.79c2.09 7.969 6.737 15.018 13.219 20.047s14.43 7.756 22.61 7.756h12.965V56H55.571c-10.158 0-18.426-8.429-18.426-18.666s8.268-18.668 18.426-18.668z" fill="#0057ff"/><path d="M105.585 63.557V48.44c0-10.702 6.434-16.853 18.321-16.853 5.042 0 9.224 1.403 12.477 4.147s4.911 6.82 4.911 12.379v.669H130.94v-.669c0-4.816-3.384-7.024-7.698-7.024-4.912 0-7.368 2.208-7.368 6.623V64.3c0 4.415 2.456 6.622 7.368 6.622 4.445 0 7.698-2.007 7.698-7.023v-.669h10.354v.669c0 5.55-1.659 9.697-4.911 12.441s-7.435 4.079-12.477 4.079c-11.887-.006-18.321-6.145-18.321-16.862zm41.681-7.156c0-7.693 5.51-12.969 15.332-12.969s15.267 5.285 15.267 12.969v10.77c0 7.689-5.443 13.042-15.267 13.042s-15.332-5.35-15.332-13.042zm21.172 10.434v-9.951c0-2.876-2.123-4.884-5.849-4.884-3.916 0-5.908 2.14-5.908 4.884v9.965c0 2.744 1.992 4.816 5.908 4.816 3.726-.014 5.849-2.086 5.849-4.83zm16.791 12.576V44.228h9.427v35.183zm18.336 0V44.228h5.376l2.588 3.278a14.17 14.17 0 0 1 4.672-3.067 14.09 14.09 0 0 1 5.483-1.016c7.634 0 12.147 5.152 12.147 13.715v22.273h-9.439v-21.74c0-3.746-1.991-5.685-4.846-5.685-2.457 0-4.647 1.137-6.572 3.345v24.08zm41.002-2.809c-2.787-2.411-4.246-5.485-4.314-9.299h9.161c.585 3.009 2.986 4.483 7.236 4.483 2.854 0 4.58-.937 4.58-2.476 0-1.27-.997-2.14-3.053-2.676l-8.564-2.208c-5.642-1.473-8.497-4.615-8.497-9.496 0-7.156 5.177-11.495 14.139-11.495 8.563 0 14.331 4.751 14.603 12.241h-9.093c-.731-2.541-2.787-3.811-6.107-3.811-2.925 0-4.387.869-4.387 2.54 0 .938.93 1.675 2.787 2.14l9.161 2.343c5.443 1.403 8.163 4.681 8.163 9.697 0 7.292-5.642 11.639-14.601 11.639-4.642-.011-8.344-1.217-11.214-3.622zm33.58 2.809V32.589h20.842c8.298 0 13.276 5.685 13.276 14.716s-4.972 14.649-13.276 14.649h-10.547v17.457zm10.289-26.488h8.629c2.588 0 4.779-1.872 4.779-5.618s-2.191-5.685-4.779-5.685h-8.623zm51.646 26.488l-2.588-3.278c-2.855 2.742-6.373 4.08-10.556 4.08-3.317 0-6.104-.938-8.362-2.741-2.258-1.875-3.386-4.484-3.384-7.829 0-7.288 4.712-11.435 14.071-11.435h6.836v-1.94c0-2.876-1.659-4.282-5.046-4.282s-5.042 1.137-5.042 3.478h-9.228c0-7.289 4.914-12.04 14.27-12.04s14.472 4.751 14.472 12.175v23.812zm-3.983-10.637v-3.879h-6.836c-3.12 0-4.647 1.138-4.647 3.478 0 2.063 1.462 3.478 4.314 3.478 2.922 0 5.311-1.002 7.169-3.077zm17.987 10.637V44.228h9.427v35.183zm42.547 0l-2.588-3.277c-1.356 1.325-2.958 2.368-4.715 3.068s-3.633 1.043-5.522 1.011c-7.169 0-12.413-4.421-12.413-12.91V56.268c0-4.214 1.196-7.424 3.51-9.567 2.322-2.205 5.308-3.277 8.894-3.277s6.505.937 8.774 2.876V32.256H402v47.158zm-4.051-11.106V55.337c-2.19-2.208-4.513-3.345-6.835-3.345a4.82 4.82 0 0 0-1.9.371c-.602.25-1.149.62-1.607 1.087a4.92 4.92 0 0 0-1.059 1.633c-.241.61-.358 1.263-.345 1.919v9.632a4.94 4.94 0 0 0 .344 1.92 4.92 4.92 0 0 0 1.059 1.633c.458.467 1.005.837 1.607 1.087a4.83 4.83 0 0 0 1.901.371c2.322.006 4.645-1.132 6.835-3.34z" fill="#101417"/></svg>