<?xml version="1.0" encoding="UTF-8" standalone="no"?>
<!-- Generator: Adobe Illustrator 22.1.0, SVG Export Plug-In . SVG Version: 6.00 Build 0)  -->

<svg
   version="1.1"
   id="Calque_1"
   x="0px"
   y="0px"
   viewBox="0 0 257.11796 114.24997"
   xml:space="preserve"
   sodipodi:docname="logo.svg"
   width="257.11795"
   height="114.24996"
   inkscape:version="1.3.1 (9b9bdc1480, 2023-11-25, custom)"
   xmlns:inkscape="http://www.inkscape.org/namespaces/inkscape"
   xmlns:sodipodi="http://sodipodi.sourceforge.net/DTD/sodipodi-0.dtd"
   xmlns:xlink="http://www.w3.org/1999/xlink"
   xmlns="http://www.w3.org/2000/svg"
   xmlns:svg="http://www.w3.org/2000/svg"><defs
   id="defs2" /><sodipodi:namedview
   id="namedview2"
   pagecolor="#ffffff"
   bordercolor="#000000"
   borderopacity="0.25"
   inkscape:showpageshadow="2"
   inkscape:pageopacity="0.0"
   inkscape:pagecheckerboard="0"
   inkscape:deskcolor="#d1d1d1"
   showgrid="false"
   inkscape:zoom="3.0991266"
   inkscape:cx="135.36072"
   inkscape:cy="80.022545"
   inkscape:window-width="1850"
   inkscape:window-height="1016"
   inkscape:window-x="70"
   inkscape:window-y="27"
   inkscape:window-maximized="1"
   inkscape:current-layer="g2" />
<style
   type="text/css"
   id="style1">
	.st0{clip-path:url(#SVGID_2_);fill:#39A8E5;}
	.st1{clip-path:url(#SVGID_2_);fill:#ffffff;}
</style>
<g
   id="g2"
   transform="translate(-0.88203967,-41.4)">
	<defs
   id="defs1">
		<rect
   id="SVGID_1_"
   x="-28.4"
   y="-21.6"
   width="352.70001"
   height="306.79999" />
	</defs>
	<clipPath
   id="SVGID_2_">
		<use
   xlink:href="#SVGID_1_"
   style="overflow:visible"
   id="use1" />
	</clipPath>
	<path
   class="st0"
   d="m 59.1,44.5 56,25.5 h 85.8 L 208,57.7 c 4.3,-7.4 -0.9,-16.3 -8.7,-16.3 H 59.7 c -1.9,0 -2.3,2.3 -0.6,3.1 m 3.9,110.8 73.2,-1.4 c 8.9,-0.2 19.3,-5.3 24.1,-13.5 l 11,-19.1 -112,30.3 c 2.3,1 3.3,2.3 3.7,3.7 M 254.8,80.9 H 115.1 L 1.5,152.8 c -1.4,1.1 -0.2,3.2 1.4,2.8 L 255.7,87.1 c 1.2,-0.3 2.3,-1.4 2.3,-3.1 0,-1.9 -1.6,-3.1 -3.2,-3.1"
   clip-path="url(#SVGID_2_)"
   id="path1"
   transform="translate(0.55662025)" />
	
</g>
</svg>
