<?xml version="1.0" encoding="utf-8"?>
<!-- Generator: Adobe Illustrator 22.1.0, SVG Export Plug-In . SVG Version: 6.00 Build 0)  -->
<svg version="1.1" id="Calque_1" xmlns="http://www.w3.org/2000/svg" xmlns:xlink="http://www.w3.org/1999/xlink" x="0px" y="0px"
	 viewBox="0 0 263.3 263.3" style="enable-background:new 0 0 263.3 263.3;" xml:space="preserve">
<style type="text/css">
	.st0{clip-path:url(#SVGID_2_);fill:#39A8E5;}
	.st1{clip-path:url(#SVGID_2_);fill:#ffffff;}
</style>
<g>
	<defs>
		<rect id="SVGID_1_" x="-28.4" y="-21.6" width="352.7" height="306.8"/>
	</defs>
	<clipPath id="SVGID_2_">
		<use xlink:href="#SVGID_1_"  style="overflow:visible;"/>
	</clipPath>
	<path class="st0" d="M59.1,44.5l56,25.5h85.8l7.1-12.3c4.3-7.4-0.9-16.3-8.7-16.3H59.7C57.8,41.4,57.4,43.7,59.1,44.5 M63,155.3
		l73.2-1.4c8.9-0.2,19.3-5.3,24.1-13.5l11-19.1l-112,30.3C61.6,152.6,62.6,153.9,63,155.3 M254.8,80.9H115.1L1.5,152.8
		c-1.4,1.1-0.2,3.2,1.4,2.8l252.8-68.5c1.2-0.3,2.3-1.4,2.3-3.1C258,82.1,256.4,80.9,254.8,80.9"/>
	<path class="st1" d="M118.2,158.5l19.8,22h6.1v-31.3h-6.4v21.5l-19.4-21.5h-6.4v31.3h6.4V158.5z M198.3,138.7H217l3.7-6h-18v-25.2
		H196v29C196,137.8,196.8,138.7,198.3,138.7 M45.9,190.7c-3.8,0-8,0.1-11.3,0.2v31.3h6.6v-9.3c1.6,0,3.8,0,5.1,0
		c10,0,17.2-2.5,17.2-11.3C63.6,193.8,57.4,190.7,45.9,190.7 M55.4,205c-1.9,1.9-5.6,1.9-9.5,1.9c-1.4,0-3.1,0-4.7,0v-10
		c1.6,0,3.3,0,4.7,0c5.1,0,7.9,0.2,9.7,2c0.6,0.6,1.1,1.8,1.1,2.8C56.7,203.1,56.3,204.1,55.4,205 M210.4,181.1
		c9.1,0,15.4-4.7,15.4-14.2v-17.7h-6.6v17.2c0,5.6-2.8,8.8-8.8,8.8c-5.9,0-8.8-3.2-8.8-8.8v-17.2H195v17.7
		C195,176.3,201.3,181.1,210.4,181.1 M169.4,180.5c4.3,0,8.2-1.3,10.9-3.1l1.2,1.6c0.8,1.2,2.4,1.5,4.1,1.5h5.4l-6.1-7.1
		c2.3-2.5,3.4-5.7,3.4-8.8c0-8.9-7.3-15.9-18.9-15.9c-11.5,0-18.9,7.1-18.9,15.9C150.5,173.4,157.9,180.5,169.4,180.5 M169.4,154.5
		c6.9,0,12.1,4.1,12.1,10c0,5.9-5.2,10-12.1,10c-6.8,0-12-4.1-12-10C157.4,158.6,162.5,154.5,169.4,154.5 M77.7,174.8h19.2l1.9,3.7
		c0.9,1.9,1.8,2,4.2,2h3.9l-16.4-31.6h-6.4l-16.4,31.6h7.1L77.7,174.8z M87.3,155.7l6.6,13.1H80.7L87.3,155.7z M85.1,190.3
		c-11.8,0-18.9,7.3-18.9,16.3c0,9,7.1,16.3,18.9,16.3c11.8,0,18.9-7.3,18.9-16.3C104,197.6,97,190.3,85.1,190.3 M85.1,216.9
		c-7.1,0-12.1-4.1-12.1-10.3c0-6.3,5-10.3,12.1-10.3c7,0,12,4.1,12,10.3C97.1,212.8,92.1,216.9,85.1,216.9 M58.6,164.4L58.6,164.4
		c3.7-1.1,5.9-3.5,5.9-7.2c0-5.7-4.9-8.2-14.4-8.2c-4.6,0-11.4,0-15.6,0.2v31.3c5,0.2,10.5,0.2,15.1,0.2c9.3,0,15.8-2.1,15.8-8.9
		C65.5,168.1,62.7,165.3,58.6,164.4 M41.2,154.6h10c4,0,6.5,0.9,6.5,3.4c0,3.2-2.6,3.8-7.5,3.8h-9.1V154.6z M50.7,175h-9.5v-7.5H52
		c3.7,0,6.5,0.8,6.5,3.7C58.6,174.4,55.3,175,50.7,175 M211.7,190.9h-6.6v29c0,1.3,0.8,2.2,2.3,2.2h22.4v-6h-18V190.9z M233.6,220
		c0,1.3,0.8,2.2,2.3,2.2h25.5v-6h-21.1v-6.9h18.9v-6h-18.9v-6.3h21.1v-6h-27.7V220z M233.6,178.2c0,1.3,0.8,2.2,2.3,2.2h25.5v-6
		h-21.1v-6.9h18.9v-6h-18.9v-6.3h21.1v-6h-27.7V178.2z M254.3,136.7c0.9,1.9,1.8,2,4.2,2h3.9l-16.4-31.6h-6.4l-16.4,31.6h7.1
		l2.9-5.7h19.2L254.3,136.7z M236.2,127.2l6.6-13.1l6.6,13.1H236.2z M115.2,199.3c0-2.3,3-3.4,7.1-3.4c3.2,0,7.6,1.6,8.6,2.3l3.4-5
		c-2-1.3-7.5-2.8-11.8-2.8c-8,0-14.1,4.2-14.1,10c0,10.9,21.2,7.1,21.2,13.4c0,2.6-3.8,3.5-7,3.5c-4.4,0-9.4-1.5-12.5-3.9l-3.4,5
		c4.2,2.9,10.6,4.5,15.3,4.5c7.9,0,14.5-3.7,14.5-9.8C136.4,201.9,115.2,205.1,115.2,199.3 M168,190.9h-30.5v6h11.9v25.2h6.6v-25.2
		H168V190.9z M179.1,190.6l-16.4,31.6h7.1l2.9-5.7h19.2l1.9,3.7c0.9,1.9,1.8,2,4.2,2h3.9l-16.4-31.6H179.1z M175.7,210.6l6.6-13.1
		l6.6,13.1H175.7z"/>
</g>
</svg>
