<svg xmlns="http://www.w3.org/2000/svg" width="310" height="310" viewBox="0 0 309.676 309.705"><path d="M309.676 154.852c0 85.52-69.304 154.853-154.824 154.853S0 240.373 0 154.852 69.332 0 154.852 0s154.824 69.332 154.824 154.852" fill="#ee3023"/><path d="M156.076 241.198c-42.532.145-86.8-36.16-87-94.482-.142-38.55 20.683-75.677 47.255-97.697 25.946-21.45 61.48-35.25 93.685-35.363 4.154 0 8.507.34 11.152 1.25C193.004 20.74 170.585 46.97 170.67 76.7c0 .995.085 2.048.198 2.532 47.14 11.494 68.536 39.944 68.678 79.3.114 39.375-30.953 82.504-83.472 82.675" fill="#fff"/></svg>