<?xml version="1.0" encoding="UTF-8"?>
<svg enable-background="new 0 0 809 229" version="1.1" viewBox="0 0 809 229" xml:space="preserve" xmlns="http://www.w3.org/2000/svg" xmlns:cc="http://creativecommons.org/ns#" xmlns:dc="http://purl.org/dc/elements/1.1/" xmlns:rdf="http://www.w3.org/1999/02/22-rdf-syntax-ns#"><metadata><rdf:RDF><cc:Work rdf:about=""><dc:format>image/svg+xml</dc:format><dc:type rdf:resource="http://purl.org/dc/dcmitype/StillImage"/><dc:title/></cc:Work></rdf:RDF></metadata><style type="text/css">
	.st0{fill-rule:evenodd;clip-rule:evenodd;fill:#4DB45E;}
	.st1{fill-rule:evenodd;clip-rule:evenodd;fill:url(#a);}
</style><path class="st0" d="m218 0v0.1c-0.1 0-31.6-0.1-40 30-7.7 27.6-29.4 103.8-30 105.9h-6s-22.2-77.9-30-106c-8.4-30.1-40-30-40-30h-72v229h72v-136h6l42 136h50l42-135.9h6v135.9h72v-229h-72z"/><path class="st0" d="m481 0s-21.1 1.9-31 24l-51 112h-6v-136h-72v229h68s22.1-2 32-24l50-112h6v136h72v-229h-68z"/><path class="st0" d="M581,104v125h72v-73h78c34,0,62.8-21.7,73.5-52H581z"/><linearGradient id="a" x1="570.92" x2="809" y1="47" y2="47" gradientUnits="userSpaceOnUse"><stop stop-color="#00B4E6" offset=".3"/><stop stop-color="#088CCB" offset="1"/></linearGradient><path class="st1" d="m731 0h-160.1c8 43.6 40.7 78.6 83 90 9.6 2.6 19.7 4 30.1 4h123.4c1.1-5.2 1.6-10.5 1.6-16 0-43.1-34.9-78-78-78z"/></svg>
