<?xml version="1.0" encoding="UTF-8"?>
<svg width="111px" height="30px" viewBox="0 0 111 30" version="1.1" xmlns="http://www.w3.org/2000/svg" xmlns:xlink="http://www.w3.org/1999/xlink">
    <!-- Generator: Sketch 51.1 (57501) - http://www.bohemiancoding.com/sketch -->
    <title>Group</title>
    <desc>Created with Sketch.</desc>
    <defs></defs>
    <g id="Page-1" stroke="none" stroke-width="1" fill="none" fill-rule="evenodd">
        <g id="Group" fill-rule="nonzero">
            <rect id="Rectangle" fill="#FFFFFF" x="0" y="0" width="111" height="30"></rect>
            <g id="HSBC_MASTERBRAND_LOGO_RGB">
                <rect id="Rectangle-path" fill="#FFFFFF" x="14.8604651" y="0" width="29.6511628" height="29.6511628"></rect>
                <polygon id="Shape" fill="#DB0011" points="59.3372093 14.8604651 44.5116279 0 44.5116279 29.6860465"></polygon>
                <polygon id="Shape" fill="#DB0011" points="29.6860465 14.8604651 44.5116279 0 14.8604651 0"></polygon>
                <polygon id="Shape" fill="#DB0011" points="0 14.8604651 14.8604651 29.6860465 14.8604651 0"></polygon>
                <polygon id="Shape" fill="#DB0011" points="29.6860465 14.8604651 14.8604651 29.6860465 44.5116279 29.6860465"></polygon>
                <polygon id="Shape" fill="#000000" points="72.3488372 15.7325581 66.9767442 15.7325581 66.9767442 21.0348837 64.2906977 21.0348837 64.2906977 8.61627907 66.9767442 8.61627907 66.9767442 13.7093023 72.3488372 13.7093023 72.3488372 8.61627907 75.0348837 8.61627907 75.0348837 21.0348837 72.3488372 21.0348837"></polygon>
                <path d="M81.5232558,21.2790698 C78.8372093,21.2790698 76.6395349,20.1976744 76.6046512,17.2325581 L79.2906977,17.2325581 C79.3255814,18.5581395 80.0930233,19.3604651 81.5581395,19.3604651 C82.6395349,19.3604651 83.8953488,18.8023256 83.8953488,17.5813953 C83.8953488,16.6046512 83.0581395,16.3255814 81.6627907,15.9069767 L80.755814,15.6627907 C78.8023256,15.1046512 76.8488372,14.3372093 76.8488372,12.1046512 C76.8488372,9.34883721 79.4302326,8.40697674 81.7674419,8.40697674 C84.1744186,8.40697674 86.2674419,9.24418605 86.3023256,12 L83.6162791,12 C83.5116279,10.8837209 82.8488372,10.2209302 81.5930233,10.2209302 C80.5813953,10.2209302 79.6046512,10.744186 79.6046512,11.8604651 C79.6046512,12.7674419 80.4418605,13.0465116 82.1860465,13.6046512 L83.2325581,13.9186047 C85.3604651,14.5813953 86.7209302,15.3139535 86.7209302,17.4069767 C86.6860465,20.1976744 83.9651163,21.2790698 81.5232558,21.2790698 Z" id="Shape" fill="#000000"></path>
                <path d="M88.2209302,8.65116279 L92.5465116,8.65116279 C93.3488372,8.61627907 94.1860465,8.65116279 94.9883721,8.79069767 C96.4883721,9.13953488 97.6395349,10.1162791 97.6395349,11.7906977 C97.6395349,13.3953488 96.627907,14.1976744 95.1627907,14.5813953 C96.8372093,14.8953488 98.0930233,15.7325581 98.0930233,17.5813953 C98.0930233,20.4069767 95.3023256,21.0348837 93.1395349,21.0348837 L88.255814,21.0348837 L88.2209302,8.65116279 Z M92.5465116,13.8139535 C93.7325581,13.8139535 94.9534884,13.5697674 94.9534884,12.1395349 C94.9534884,10.8488372 93.8372093,10.5 92.7209302,10.5 L90.8372093,10.5 L90.8372093,13.8139535 L92.5465116,13.8139535 Z M92.7906977,19.1860465 C94.0465116,19.1860465 95.2674419,18.9069767 95.2674419,17.372093 C95.2674419,15.8372093 94.2209302,15.5581395 92.9302326,15.5581395 L90.8023256,15.5581395 L90.8023256,19.1860465 L92.7906977,19.1860465 Z" id="Shape" fill="#000000"></path>
                <path d="M105.069767,21.2790698 C101.05814,21.2790698 99.2790698,18.7325581 99.2790698,14.9302326 C99.2790698,11.127907 101.267442,8.37209302 105.209302,8.37209302 C107.686047,8.37209302 110.093023,9.48837209 110.162791,12.2790698 L107.372093,12.2790698 C107.232558,11.0232558 106.395349,10.3953488 105.209302,10.3953488 C102.767442,10.3953488 102.034884,13.0116279 102.034884,15 C102.034884,16.9883721 102.767442,19.2906977 105.104651,19.2906977 C106.325581,19.2906977 107.232558,18.627907 107.406977,17.372093 L110.197674,17.372093 C109.918605,20.2325581 107.651163,21.2790698 105.069767,21.2790698 Z" id="Shape" fill="#000000"></path>
            </g>
        </g>
    </g>
</svg>