<?xml version="1.0" encoding="UTF-8"?>
<svg width="376.42" height="122.16" version="1.1" viewBox="0 0 301.13 97.73" xmlns="http://www.w3.org/2000/svg" xmlns:cc="http://creativecommons.org/ns#" xmlns:dc="http://purl.org/dc/elements/1.1/" xmlns:rdf="http://www.w3.org/1999/02/22-rdf-syntax-ns#">
<metadata>
<rdf:RDF>
<cc:Work rdf:about="">
<dc:format>image/svg+xml</dc:format>
<dc:type rdf:resource="http://purl.org/dc/dcmitype/StillImage"/>
</cc:Work>
</rdf:RDF>
</metadata>
<path d="m165.45 97.382c-3.7558-1.0831-5.8971-3.3977-7.046-7.6162-0.67149-2.4657-0.69352-12.033-0.0337-14.631 1.6137-6.3522 5.3161-8.9605 12.208-8.6 4.7681 0.24939 7.626 2.378 8.9903 6.6962 0.51215 1.621 0.97652 5.427 0.97752 8.0118l6.7e-4 1.9202h-7.5566c-6.6423 0-7.4814-0.044-7.6226 0.32382-0.30246 0.78822 0.27149 5.9048 0.82265 6.9848 0.83826 1.6425 1.5149 1.8652 3.0619 2.0937 1.9217 0.28376 3.9125-2.2406 4.0133-5.42l6.8462 0.0438c0 1.6623-0.96715 5.0353-1.9664 6.5317-1.128 1.6893-2.3762 2.6862-4.2198 3.3702-1.5795 0.58608-6.8268 0.76601-8.4753 0.29061zm7.7908-20.258c-0.39463-3.8125-1.3045-5.3105-3.3667-5.543-1.6395-0.1848-2.9721 0.49378-3.6749 1.8714-0.61981 1.2149-1.1861 4.9375-0.78866 5.1846l7.9865-4e-3zm17.503 20.431c-0.29134-0.0622-1.2424-0.36272-2.1134-0.66783-3.3417-1.1705-4.86-3.3217-5.1039-7.2315l-0.14071-2.2554h6.6349l0.17591 1.4079c0.0968 0.77437 0.41105 1.7946 0.69845 2.2672 0.92535 1.5216 3.1738 2.0358 5.2572 1.2022 1.4093-0.56388 1.9819-1.4943 1.9856-3.2263 4e-3 -2.1155-0.69089-2.664-5.7713-4.5519-5.666-2.1054-7.3293-3.3502-8.2729-6.1911-0.60202-1.8125-0.41035-5.4627 0.36556-6.9613 0.82337-1.5902 2.9355-3.3661 4.8817-4.1047 1.4475-0.54926 2.1226-0.63286 5.1109-0.63286 4.4594 0 6.0288 0.4666 7.9844 2.3738 1.5465 1.5082 2.2124 3.1998 2.2124 5.6199v1.4086h-6.5153l-0.31889-1.544c-0.40842-1.9773-1.1607-2.7253-2.91-2.8934-2.5636-0.24632-4.2655 1.3333-3.9524 3.6683 0.25534 1.9036 0.901 2.339 6.1071 4.1179 4.949 1.6911 6.4929 2.755 7.6362 5.2621 0.84105 1.8443 0.84895 5.7624 0.0154 7.6032-1.6771 3.7033-5.2872 5.5364-10.778 5.473-1.4625-0.0169-2.8975-0.0817-3.1888-0.1438zm25.834-0.0196c-3.6733-0.68829-6.5194-3.4966-7.615-7.5138-0.68433-2.5092-0.67532-12.866 0.0134-15.315 1.6211-5.7651 5.0058-8.2359 11.269-8.2262 5.4809 8e-3 8.8409 2.511 10.062 7.4944 0.27865 1.1366 0.80483 6.562 0.82048 8.4598l7e-3 0.72834h-15.361l9.8e-4 1.6553c4e-3 3.8294 0.93978 6.6525 2.4815 7.4828 1.2838 0.69136 2.9867 0.4157 3.9261-0.63556 0.68029-0.76138 1.6782-3.4899 1.6782-4.5211l6.5865-0.089c0.35049 0.30718 0.0846 1.309-0.22368 2.7636-0.86486 4.0803-3.0744 6.5818-6.6266 7.5019-1.4827 0.3841-5.4643 0.50592-7.0182 0.21474zm7.193-19.954c-0.24397-4.3147-1.3871-6.0733-3.9463-6.0707-2.2234 9.7e-4 -3.6396 1.8931-3.9544 5.28l-0.1724 1.855 3.8115 0.0785c2.0963 0.0431 3.9277 0.0673 4.0697 0.0539 0.14202-0.0137 0.22839-0.55205 0.19194-1.1966zm62.543 19.873c-3.3298-0.6588-6.0362-3.2806-7.0969-6.8752-1.0835-3.672-1.0272-13.066 0.10011-16.689 1.0172-3.2682 3.0394-5.5824 5.8073-6.6456 2.2826-0.87684 6.5598-1.0104 8.9649-0.27985 2.3708 0.72011 4.0264 2.0198 5.0722 3.9817 1.21 2.2702 1.6332 4.2413 1.8127 8.4423l0.16127 3.7741h-15.244l0.12271 2.9796c0.18074 4.3887 1.1615 6.2239 3.4648 6.4835 2.1882 0.24664 3.5227-1.0797 4.1827-4.1573l0.28588-1.333h6.5774l-3e-3 0.9932c-0.0107 3.3587-2.1178 7.0401-4.834 8.4454-2.0705 1.0712-6.3675 1.4745-9.3738 0.87971zm7.412-21.115c-0.35309-2.6745-0.92711-3.8708-2.1315-4.4424-1.1616-0.5512-3.0376-0.39926-3.8213 0.30951-0.99857 0.90308-1.628 2.5229-1.7588 4.5263l-0.12484 1.9127 7.8632-0.0459c0.15131-0.11883 0.14103-0.99015-0.0266-2.2603zm-165.62 0.85149v-19.744l9.0712 0.0794c8.736 0.07646 9.1264 0.10172 10.567 0.68388 2.0105 0.81263 3.6591 2.3229 4.5865 4.2016 0.66872 1.3547 0.77979 1.9193 0.88235 4.4852 0.12926 3.2352-0.2586 5.1843-1.3878 6.973-0.84661 1.3411-2.2901 2.5535-3.5014 2.9409-1.559 0.49858-1.5745 0.69906-0.0817 1.0572 0.79692 0.19117 1.7584 0.66685 2.2883 1.1321 1.841 1.6165 2.326 3.4292 2.6017 9.7251 0.22243 5.0795 0.504 6.8134 1.2323 7.5887l0.58407 0.62172h-4.2973-4.2973l-0.41009-0.98146c-0.29292-0.70106-0.47379-2.5361-0.63306-6.4227-0.12271-2.9927-0.35173-5.8583-0.50907-6.3682-0.69622-2.2559-2.0414-2.9134-5.9605-2.9134h-2.7894v8.3428 8.3428h-3.9728-3.9728zm13.747-2.7608c1.3971-0.4007 2.6301-1.3736 3.0426-2.4008 1.0014-2.4933 0.71715-5.6944-0.64315-7.2437-0.96221-1.0959-2.3221-1.5044-5.6113-1.6857l-2.5898-0.1427v5.8653 5.8652h2.4516c1.3484 0 2.8559-0.11589 3.3499-0.25762zm93.3-7.2205 7.2834-0.0418 0.0852 4.2022 0.92279-1.3703c1.5649-2.3238 3.5913-3.5224 5.9549-3.5224h1.3328v7.0949l-2.0526 0.0994c-2.4441 0.11843-3.7831 0.7044-4.949 2.1659l-0.81157 1.0174-0.0781 10.04-0.0781 10.04h-7.6569c0-9.8928 0.0473-19.833 0.0473-29.726zm25.071 29.669-2.0197-7.6145c-1.0795-4.0696-2.167-8.392-2.437-9.4117-1.1913-4.4988-3.2288-12.407-3.2288-12.557l7.8604-0.0187 2.0944 10.592c1.152 5.8255 2.165 10.592 2.2512 10.591 0.13834-6.7e-4 0.97734-4.2235 3.4465-17.347l0.69763-3.7079 7.5282-8e-3c-0.0773 0.25899-1.7361 6.8207-3.5707 14.177-1.8346 7.3563-3.4536 13.822-3.5978 14.368l-0.26219 0.9932-8.7621-0.0568zm-3.9304-52.583h1.6908c2.5667 0 3.7216-0.92237 4.2292-3.3779 0.11977-0.57911-0.96956-4.8247-4.0318-15.714-3.1106-11.062-4.1256-15.052-3.8547-15.052l7.3758 0.01069c0.21412 2.68e-4 1.8796 8.059 3.6132 16.322 0.86026 4.1004 0.94814 4.423 1.1482 4.2156 0.0585-0.06068 0.95984-4.6368 2.0029-10.169 1.0431-5.5324 2.053-10.263 2.1284-10.339h7.0345c0.13205 0.34433-0.42652 2.8906-3.0594 12.982-0.41806 1.6023-1.435 5.5354-2.2598 8.7401-2.6206 10.182-3.3401 12.412-4.6819 14.512-1.6264 2.5452-3.7774 3.3594-8.8856 3.3636l-2.4499 0.0014zm-76.809-3.7398c-1.4222-0.46932-2.3764-1.1345-3.5472-2.4729l-1.2185-1.3929v3.3016h-7.151l0.0852-39.57 7.4726-0.0066 0.0734 12.298c0.11843 0 0.56536-0.37106 0.9932-0.82458 1.5953-1.691 2.6939-2.1794 5.1788-2.3022 2.0582-0.10172 2.4422-0.04104 3.9137 0.61939 2.4574 1.1028 3.746 2.8585 4.6589 6.3478 1.028 3.9291 1.1565 11.296 0.27724 15.892-0.71395 3.7314-2.4085 6.4017-4.7958 7.5574-1.2838 0.62148-4.7556 0.94549-5.9406 0.55442zm1.5964-6.0391c1.5511-0.91625 2.1116-3.4761 2.107-9.6216-3e-3 -4.436-0.44083-7.3443-1.275-8.4753-0.26862-0.36418-0.98412-0.83724-1.59-1.0512-0.96895-0.34225-1.2362-0.34225-2.2186 0-2.2188 0.77296-2.9392 3.1228-2.9611 9.6589-0.0199 5.9411 0.62573 8.6588 2.2744 9.5736 0.86728 0.48128 2.7803 0.4372 3.6633-0.08448zm20.924 5.8449c-1.9823-0.5327-3.4302-1.4328-4.8564-3.019-2.0328-2.261-2.8177-5.5736-2.8236-11.918-0.01-9.5017 2.2748-14.059 7.7796-15.525 2.1092-0.56164 6.1229-0.46995 8.255 0.1886 1.4828 0.45798 2.0568 0.81582 3.2955 2.0546 2.2848 2.2848 2.9474 4.4671 3.3292 10.965l0.18286 3.112h-15.511l0.14845 2.4499c0.19797 3.2674 0.60693 4.7424 1.6493 5.9482 0.78491 0.908 0.99249 1.0041 2.168 1.0041 0.8148 0 1.5767-0.18132 2.0414-0.48583 0.82926-0.54336 1.7424-2.3822 1.9494-3.9258l0.18382-1.2069h6.7084c0.34669 0.30735-0.012 1.4184-0.32072 2.8723-0.91354 4.31-3.4179 6.8816-7.4225 7.6219-2.1252 0.39286-5.005 0.33506-6.7565-0.13562zm7.6743-19.956c0-2.311-0.51108-4.0202-1.4968-5.0059-0.86108-0.86108-0.96147-0.89212-2.5203-0.77937-1.4098 0.10199-1.7207 0.22627-2.3623 0.94434-0.83937 0.9394-1.2224 2.1125-1.4684 4.4968l-0.1708 1.6553h8.0187zm35.488 19.603c-1.4773-0.44936-2.4026-1.136-2.9753-2.2079-0.58872-1.1018-0.59983-1.2947-0.67859-11.78l-0.0801-10.66h-3.9451v-5.2031l3.8404 0.03849 4e-3 -8.5604h7.6261l0.0509 8.5311c1.4567-0.01203 2.9134-0.02432 4.3701-0.03649v5.2305h-4.5025v8.6162c0 9.4203 0.10693 10.205 1.4611 10.72 1.044 0.29665 2.0143 0.21587 3.0887 0.21587l0.0473 5.4831c-5.5502 0.07125-6.7036 0.27154-8.3067-0.38626zm-116.53-19.744v-19.869h7.8131l0.0682 16.619 0.0682 16.619h7.0166 7.0166v3.1782 3.1782h-10.991-10.991zm25.812 19.726 0.0107-29.796h7.4159l0.13683 29.796zm66.798-29.758 7.1069-0.03796 0.0283 4.3038 0.83818-1.2987c0.7963-1.2338 2.523-2.8221 3.6567-3.2958 0.48908-0.20434 1.5486-0.37154 2.3544-0.37154h1.4652v7.0846l-2.185 0.1191c-3.0794 0.1678-4.917 1.2912-5.4908 3.3569-0.15613 0.56211-0.26741 4.8878-0.26827 10.429l-9.7e-4 9.4685h-7.5041c0.0705-9.9193-0.0728-19.839 0-29.758zm-66.919-10.235h7.6807v6.3564h-7.6807z" fill="#393e42"/>
<path d="m34.669 0.96844 34.721 35.597-0.029689 26.988-34.713-35.82-33.904 36.822 0.27371-29.095z" fill="#393e42"/>
<path d="m78.272 37.561 33.763-35.716 0.27437 27.121-34.774 34.643z" fill="#393e42"/>
<path d="m11.123 63.859 24.433-22.656 22.734 22.55z" fill="#da251c"/>
<path d="m89.226 64.163 23.183-22.15-0.50074 21.999z" fill="#393e42"/>
<path d="m-0.14324 71.477c37.993-0.01807 75.987-0.07227 113.97 0.0271 0.24104 8.383 0.0904 16.775 0.0804 25.167-38.033 0.04517-76.077 0.1355-114.11-0.0542 0-8.383-0.1406-16.766 0.060259-25.14z" fill="#393e42"/>
</svg>
