<?xml version="1.0" encoding="UTF-8" standalone="no"?>
<svg
   xmlns:dc="http://purl.org/dc/elements/1.1/"
   xmlns:cc="http://creativecommons.org/ns#"
   xmlns:rdf="http://www.w3.org/1999/02/22-rdf-syntax-ns#"
   xmlns:svg="http://www.w3.org/2000/svg"
   xmlns="http://www.w3.org/2000/svg"
   xmlns:sodipodi="http://sodipodi.sourceforge.net/DTD/sodipodi-0.dtd"
   xmlns:inkscape="http://www.inkscape.org/namespaces/inkscape"
   width="376.41843"
   height="122.16279"
   viewBox="0 0 301.13474 97.730231"
   version="1.1"
   id="svg2"
   inkscape:version="0.48.3.1 r9886"
   sodipodi:docname="Liberty_Reserve_logo.svg">
  <metadata
     id="metadata62">
    <rdf:RDF>
      <cc:Work
         rdf:about="">
        <dc:format>image/svg+xml</dc:format>
        <dc:type
           rdf:resource="http://purl.org/dc/dcmitype/StillImage" />
      </cc:Work>
    </rdf:RDF>
  </metadata>
  <defs
     id="defs60" />
  <sodipodi:namedview
     pagecolor="#ffffff"
     bordercolor="#666666"
     borderopacity="1"
     objecttolerance="10"
     gridtolerance="10"
     guidetolerance="10"
     inkscape:pageopacity="0"
     inkscape:pageshadow="2"
     inkscape:window-width="1215"
     inkscape:window-height="776"
     id="namedview58"
     showgrid="false"
     inkscape:zoom="3.2603774"
     inkscape:cx="78.930418"
     inkscape:cy="61.10485"
     inkscape:window-x="65"
     inkscape:window-y="24"
     inkscape:window-maximized="1"
     inkscape:current-layer="svg2"
     fit-margin-top="0"
     fit-margin-left="0"
     fit-margin-right="0"
     fit-margin-bottom="0" />
  <path
     style="fill:#393e42;fill-opacity:1"
     d="m 165.44959,97.382442 c -3.75581,-1.08311 -5.89714,-3.39774 -7.04596,-7.6162 -0.67149,-2.4657 -0.69352,-12.03305 -0.0337,-14.63051 1.61368,-6.3522 5.31612,-8.960495 12.20767,-8.600022 4.76808,0.249392 7.62595,2.378012 8.99027,6.696192 0.51215,1.621 0.97652,5.42696 0.97752,8.01179 l 6.7e-4,1.92017 -7.5566,0 c -6.64229,0 -7.48143,-0.044 -7.62257,0.32382 -0.30246,0.78822 0.27149,5.90484 0.82265,6.98477 0.83826,1.64247 1.51489,1.86521 3.0619,2.09366 1.92168,0.28376 3.9125,-2.24059 4.01326,-5.42002 l 6.84625,0.0438 c 0,1.66226 -0.96715,5.03532 -1.96637,6.53166 -1.12805,1.68926 -2.37625,2.68616 -4.21982,3.37023 -1.57954,0.58608 -6.82679,0.76601 -8.47528,0.29061 z m 7.79076,-20.25758 c -0.39463,-3.81248 -1.30454,-5.31052 -3.36672,-5.54296 -1.63953,-0.1848 -2.97207,0.49378 -3.67488,1.87141 -0.61981,1.21493 -1.18606,4.93751 -0.78866,5.18456 l 7.98649,-0.004 z m 17.50261,20.43134 c -0.29134,-0.0622 -1.24239,-0.36272 -2.11345,-0.66783 -3.34173,-1.1705 -4.86002,-3.3217 -5.10394,-7.23148 l -0.14071,-2.2554 6.63493,0 0.17591,1.40794 c 0.0968,0.77437 0.41105,1.7946 0.69845,2.26717 0.92535,1.52163 3.17381,2.03579 5.25716,1.20219 1.40929,-0.56388 1.98189,-1.49428 1.98559,-3.22634 0.004,-2.11554 -0.69089,-2.66402 -5.77126,-4.55186 -5.66599,-2.10544 -7.3293,-3.35021 -8.2729,-6.19114 -0.60202,-1.81254 -0.41035,-5.46273 0.36556,-6.96132 0.82337,-1.59021 2.93546,-3.36611 4.88173,-4.10466 1.44748,-0.549259 2.12256,-0.632855 5.11086,-0.632855 4.45943,0 6.02885,0.466595 7.98438,2.373765 1.54648,1.50824 2.21242,3.19983 2.21242,5.61986 l 0,1.40862 -6.51532,0 -0.31889,-1.54395 c -0.40842,-1.97733 -1.16066,-2.72529 -2.90997,-2.89337 -2.5636,-0.24632 -4.26553,1.33329 -3.95236,3.66831 0.25534,1.90363 0.901,2.33899 6.10714,4.11794 4.94895,1.69107 6.49294,2.75503 7.6362,5.26206 0.84105,1.84431 0.84895,5.76245 0.0154,7.60316 -1.67714,3.70327 -5.28722,5.53642 -10.77805,5.47299 -1.4625,-0.0169 -2.89746,-0.0817 -3.18881,-0.1438 z m 25.83396,-0.0196 c -3.67326,-0.68829 -6.51937,-3.49659 -7.61497,-7.51378 -0.68433,-2.50924 -0.67532,-12.86619 0.0134,-15.31528 1.62107,-5.76507 5.00577,-8.235929 11.26861,-8.226172 5.4809,0.008 8.8409,2.511002 10.0625,7.494352 0.27865,1.13665 0.80483,6.56204 0.82048,8.45984 l 0.007,0.72834 -15.36141,0 9.8e-4,1.65532 c 0.004,3.82939 0.93978,6.65251 2.48152,7.4828 1.2838,0.69136 2.98671,0.4157 3.92611,-0.63556 0.68029,-0.76138 1.67822,-3.48988 1.67822,-4.52111 l 6.5865,-0.089 c 0.35049,0.30718 0.0846,1.30905 -0.22368,2.76359 -0.86486,4.08033 -3.07441,6.58175 -6.62656,7.50193 -1.48273,0.3841 -5.46428,0.50592 -7.01825,0.21474 z m 7.19301,-19.95446 c -0.24397,-4.3147 -1.38712,-6.07326 -3.94632,-6.07073 -2.22343,9.7e-4 -3.63963,1.89313 -3.95441,5.28003 l -0.1724,1.85498 3.81148,0.0785 c 2.09631,0.0431 3.92768,0.0673 4.06971,0.0539 0.14202,-0.0137 0.22839,-0.55205 0.19194,-1.19664 z m 62.5432,19.8728 c -3.32983,-0.6588 -6.0362,-3.28062 -7.09689,-6.87519 -1.08353,-3.67196 -1.02715,-13.06646 0.10011,-16.68854 1.0172,-3.26818 3.03944,-5.58235 5.80733,-6.64562 2.28261,-0.876836 6.55985,-1.010356 8.9649,-0.27985 2.37082,0.72011 4.02644,2.01981 5.07216,3.98174 1.20998,2.27017 1.63324,4.24133 1.81272,8.44226 l 0.16127,3.77414 -15.2442,0 0.12271,2.97959 c 0.18074,4.38871 1.16146,6.22386 3.46479,6.48348 2.18823,0.24664 3.52269,-1.07969 4.18271,-4.15728 l 0.28588,-1.33301 6.57742,0 -0.003,0.9932 c -0.0107,3.35866 -2.1178,7.04008 -4.83398,8.44536 -2.07054,1.07124 -6.36746,1.4745 -9.37385,0.87971 z m 7.41199,-21.11465 c -0.35309,-2.67452 -0.92711,-3.87082 -2.1315,-4.44236 -1.16158,-0.5512 -3.03763,-0.39926 -3.82134,0.30951 -0.99857,0.90308 -1.62798,2.52286 -1.75883,4.52632 l -0.12484,1.91269 7.86322,-0.0459 c 0.15131,-0.11883 0.14103,-0.99015 -0.0266,-2.26029 z m -165.61965,0.85149 0,-19.744388 9.07117,0.0794 c 8.73604,0.07646 9.12643,0.101721 10.56682,0.683881 2.01053,0.812627 3.65914,2.322884 4.58653,4.201638 0.66872,1.354728 0.77979,1.919349 0.88235,4.485229 0.12926,3.2352 -0.2586,5.18426 -1.38777,6.97301 -0.84661,1.34112 -2.29006,2.55347 -3.50144,2.94086 -1.55903,0.49858 -1.57452,0.69906 -0.0817,1.05721 0.79692,0.19117 1.75839,0.66685 2.28828,1.13208 1.84103,1.61646 2.32597,3.42919 2.60168,9.72509 0.22243,5.07948 0.504,6.81344 1.23231,7.5887 l 0.58407,0.62172 -4.29731,0 -4.29731,0 -0.41009,-0.98146 c -0.29292,-0.70106 -0.47379,-2.53608 -0.63306,-6.42267 -0.12271,-2.99267 -0.35173,-5.85834 -0.50907,-6.36818 -0.69622,-2.2559 -2.04136,-2.91337 -5.96053,-2.91337 l -2.78945,0 0,8.34283 0,8.34285 -3.97278,0 -3.97277,0 z m 13.74711,-2.76078 c 1.39709,-0.4007 2.63007,-1.37358 3.04263,-2.40081 1.00136,-2.4933 0.71715,-5.694425 -0.64315,-7.243718 -0.96221,-1.095894 -2.32212,-1.504407 -5.61129,-1.68566 l -2.58975,-0.142702 0,5.86526 0,5.86525 2.45163,0 c 1.34838,0 2.85587,-0.11589 3.34993,-0.25762 z m 93.30038,-7.22048 7.28344,-0.0418 0.0852,4.20218 0.92279,-1.37026 c 1.56493,-2.32378 3.59132,-3.522428 5.95487,-3.522428 l 1.33277,0 c 0,2.364968 0,4.729948 0,7.094918 l -2.05261,0.0994 c -2.44411,0.11843 -3.78313,0.7044 -4.94896,2.1659 l -0.81157,1.01739 -0.0781,10.04018 -0.0781,10.04019 c -2.55231,0 -5.1046,0 -7.65688,0 0,-9.8928 0.0473,-19.83289 0.0473,-29.72568 z m 25.07125,29.66892 -2.01973,-7.61449 c -1.07946,-4.06957 -2.16701,-8.39202 -2.43703,-9.41171 -1.19134,-4.49876 -3.22885,-12.40721 -3.22885,-12.55749 l 7.86044,-0.0187 2.09443,10.59187 c 1.15195,5.82553 2.16501,10.59155 2.25125,10.59116 0.13834,-6.7e-4 0.97734,-4.2235 3.44647,-17.3471 l 0.69763,-3.70791 7.5282,-0.008 c -0.0773,0.25899 -1.73613,6.82071 -3.57073,14.17698 -1.83458,7.35626 -3.45359,13.82197 -3.5978,14.36822 l -0.26219,0.9932 -8.76209,-0.0568 z m -3.93038,-52.582702 1.69084,0 c 2.56674,0 3.72157,-0.922368 4.22925,-3.377922 0.11977,-0.579112 -0.96956,-4.824705 -4.03177,-15.714358 -3.11057,-11.061668 -4.12556,-15.052225 -3.85468,-15.051824 l 7.37575,0.01069 c 0.21412,2.68e-4 1.87962,8.058962 3.61322,16.321847 0.86026,4.100365 0.94814,4.423023 1.14816,4.215559 0.0585,-0.06068 0.95984,-4.636837 2.00294,-10.169201 1.04309,-5.532378 2.05295,-10.262929 2.12841,-10.338799 l 7.0345,0 c 0.13205,0.344326 -0.42652,2.890573 -3.05937,12.981794 -0.41806,1.602344 -1.435,5.535399 -2.25982,8.740115 -2.62063,10.182006 -3.3401,12.41205 -4.68189,14.511877 -1.62644,2.545232 -3.77735,3.359449 -8.88565,3.363633 l -2.44989,0.0014 z m -76.8088,-3.739832 c -1.42219,-0.469318 -2.3764,-1.134537 -3.54715,-2.472878 l -1.21846,-1.392902 0,3.301559 -7.15101,0 0.0852,-39.570391 7.47262,-0.0066 0.0734,12.297565 c 0.11843,0 0.56536,-0.37106 0.9932,-0.824578 1.59526,-1.691006 2.69386,-2.179385 5.17883,-2.302238 2.05818,-0.10172 2.44224,-0.04104 3.91369,0.619386 2.45745,1.102832 3.74598,2.858452 4.65891,6.347786 1.02799,3.929096 1.15651,11.296199 0.27724,15.891813 -0.71395,3.731377 -2.40849,6.401721 -4.79576,7.557392 -1.28384,0.621483 -4.75556,0.945492 -5.94064,0.554423 z m 1.59645,-6.039136 c 1.55107,-0.916246 2.11165,-3.47606 2.10705,-9.621648 -0.003,-4.436016 -0.44083,-7.344339 -1.27499,-8.475268 -0.26862,-0.364175 -0.98412,-0.837236 -1.59002,-1.051237 -0.96895,-0.342253 -1.23615,-0.342253 -2.21862,0 -2.21884,0.772956 -2.93922,3.122753 -2.96108,9.658929 -0.0199,5.941104 0.62573,8.658792 2.27437,9.573634 0.86728,0.481281 2.78029,0.437198 3.66329,-0.08448 z m 20.9241,5.844891 c -1.98231,-0.532702 -3.43021,-1.432801 -4.85636,-3.01904 -2.0328,-2.260975 -2.81766,-5.573587 -2.82365,-11.917804 -0.01,-9.501683 2.27485,-14.059335 7.77956,-15.525152 2.10921,-0.561642 6.12288,-0.469947 8.25503,0.188603 1.48278,0.457983 2.05675,0.815823 3.29547,2.054567 2.28478,2.284754 2.94742,4.467107 3.32924,10.964532 l 0.18286,3.112005 -15.51124,0 0.14845,2.449888 c 0.19797,3.267432 0.60693,4.742379 1.6493,5.948228 0.78491,0.907999 0.99249,1.004133 2.16801,1.004133 0.8148,0 1.5767,-0.18132 2.04145,-0.485826 0.82926,-0.543356 1.74236,-2.382184 1.9494,-3.925783 l 0.18382,-1.206918 6.70838,0 c 0.34669,0.307354 -0.012,1.418446 -0.32072,2.872287 -0.91354,4.309954 -3.41792,6.881598 -7.42251,7.621886 -2.12519,0.392859 -5.00496,0.335062 -6.75649,-0.13562 z m 7.6743,-19.955995 c 0,-2.310953 -0.51108,-4.020151 -1.49685,-5.005917 -0.86108,-0.861083 -0.96147,-0.89212 -2.5203,-0.779371 -1.4098,0.101987 -1.72073,0.226271 -2.36232,0.944342 -0.83937,0.939398 -1.22245,2.112512 -1.46845,4.496847 l -0.1708,1.655331 8.01872,0 z m 35.48846,19.603379 c -1.47729,-0.449361 -2.40256,-1.135994 -2.97528,-2.207882 -0.58872,-1.101816 -0.59983,-1.29467 -0.67859,-11.780449 l -0.0801,-10.660293 -3.94506,0 0,-5.203129 3.84035,0.03849 0.004,-8.560401 7.6261,0 0.0509,8.531087 c 1.45669,-0.01203 2.91337,-0.02432 4.37006,-0.03649 0,1.743483 0,3.486967 0,5.230451 l -4.50249,0 0,8.616192 c 0,9.42032 0.10693,10.204824 1.46112,10.719696 1.04397,0.296647 2.01426,0.215871 3.08866,0.215871 l 0.0473,5.483122 c -5.55017,0.07125 -6.70361,0.271544 -8.30672,-0.386257 z m -116.53318,-19.743826 0,-19.868897 7.81313,0 0.0682,16.619416 0.0682,16.61947 7.01659,0 7.01659,0 0,3.178224 0,3.178223 -10.99137,0 -10.99135,0 z m 25.81216,19.726476 0.0107,-29.795894 7.41586,0 0.13683,29.795894 z m 66.79769,-29.757973 7.10694,-0.03796 0.0283,4.303846 0.83818,-1.298667 c 0.7963,-1.233812 2.523,-2.822081 3.65667,-3.29577 0.48908,-0.204336 1.54857,-0.371541 2.35442,-0.371541 l 1.4652,0 0,7.084585 -2.18504,0.119097 c -3.07943,0.167805 -4.917,1.291249 -5.49078,3.356923 -0.15613,0.562109 -0.26741,4.887836 -0.26827,10.428956 l -9.7e-4,9.468506 -7.5041,0 c 0.0705,-9.919324 -0.0728,-19.838649 0,-29.757973 z M 154.32581,0 l 7.6807,0 0,6.356447 -7.6807,0 z"
     id="path2996"
     inkscape:connector-curvature="0"
     sodipodi:nodetypes="cssssccssssccssccsssccscssccsssssssssssccsssssssscssssscccscccssccssscscscssssssccssscccsccssssccsccsssssssssscccssssccccccsssccccssccccsccssccccccssccscsccscccccccccscsccssscccsscccsccsssssssssssssssscssssscccsssscccsssccssccccccccccccccccccscccccccccccccccccccccccccsccccccsccccccccccccccc" />
  <path
     d="M 34.668512,0.9684431 69.389441,36.565468 69.359752,63.553629 34.646678,27.733822 0.74307228,64.556227 1.016783,35.461596 z"
     id="path6"
     inkscape:connector-curvature="0"
     style="fill:#393e42"
     sodipodi:nodetypes="ccccccc" />
  <path
     d="M 78.272148,37.561187 112.03526,1.845336 112.30963,28.966363 77.536057,63.608941 z"
     id="path8"
     inkscape:connector-curvature="0"
     style="fill:#393e42"
     sodipodi:nodetypes="ccccc" />
  <path
     d="M 11.12259,63.858765 35.555241,41.202971 58.289256,63.75261 z"
     id="path30"
     inkscape:connector-curvature="0"
     style="fill:#da251c"
     sodipodi:nodetypes="cccc" />
  <path
     d="M 89.225741,64.162552 112.4087,42.012818 111.90796,64.012211 z"
     id="path32"
     style="fill:#393e42;fill-opacity:1"
     inkscape:connector-curvature="0"
     sodipodi:nodetypes="cccc" />
  <path
     d="m -0.14324203,71.476795 c 37.99332503,-0.01807 75.98664903,-0.07227 113.96992203,0.0271 0.24104,8.383027 0.0904,16.775087 0.0804,25.167147 -38.033493,0.04517 -76.077034,0.135502 -114.11053107,-0.0542 0,-8.383026 -0.14060443,-16.766053 0.060259,-25.140046 z"
     id="path50"
     inkscape:connector-curvature="0"
     style="fill:#393e42" />
</svg>
