<?xml version="1.0" encoding="UTF-8"?>
<svg width="447px" height="576px" viewBox="0 0 447 576" version="1.1" xmlns="http://www.w3.org/2000/svg" xmlns:xlink="http://www.w3.org/1999/xlink">
    <!-- Generator: Sketch 53.2 (72643) - https://sketchapp.com -->
    <title>Artboard</title>
    <desc>Created with Sketch.</desc>
    <defs>
        <polygon id="path-1" points="0.0548602007 0.260751575 444.808498 0.260751575 444.808498 387.900495 0.0548602007 387.900495"></polygon>
    </defs>
    <g id="Artboard" stroke="none" stroke-width="1" fill="none" fill-rule="evenodd">
        <g id="Group-11">
            <g id="Group-3" transform="translate(2.000000, 0.000000)">
                <mask id="mask-2" fill="white">
                    <use xlink:href="#path-1"></use>
                </mask>
                <g id="Clip-2"></g>
                <path d="M94.5976027,0.260751575 L410.157178,51.418434 L407.615706,73.1194268 C407.615706,73.1194268 433.955817,71.5682875 433.955817,74.6705662 C433.813793,78.8064392 430.346927,82.0448352 426.211803,81.9012389 L426.211803,81.9012389 L430.346927,90.1670016 C432.725445,90.7069836 435.195158,90.7069836 437.573676,90.1670016 C439.273472,90.0159264 440.804335,89.0735756 441.707305,87.6241503 C442.224569,88.1401995 444.248777,86.5890602 444.809395,87.6241503 C444.809395,88.1401995 443.257603,91.243974 443.257603,91.7600232 C443.257603,93.3111626 443.774867,92.7951133 440.716131,93.8287076 C437.657395,94.8623019 438.648569,94.8623019 437.098272,94.8623019 C435.547974,94.8623019 433.997676,96.9309863 430.897081,96.9309863 C427.279221,96.9309863 426.246188,97.4485314 421.577355,97.4485314 C419.035884,97.4485314 420.027058,95.897392 419.035884,94.90568 C415.418024,91.8034013 422.653743,92.8369956 426.262633,92.8369956 L427.297161,91.8034013 C427.297161,91.2858563 429.363228,91.2858563 430.913526,89.7347169 L426.779897,81.4689541 C422.46089,80.6552417 418.00285,81.0127367 413.867726,82.5040442 C410.767131,84.5727286 399.922522,89.2171719 399.922522,95.9392743 C399.922522,99.041553 382.876723,166.213216 364.805365,235.461042 C345.17474,310.905947 325.03582,387.900495 325.03582,387.900495 L249.530195,350.611823 C249.530195,350.611823 250.564723,367.149332 245.912335,371.277726 C243.589131,374.276795 239.869613,375.845884 236.102255,375.415095 C234.034693,375.415095 234.551957,371.795271 231.451362,366.090309 C229.545258,357.852967 227.132355,349.741271 224.223118,341.803087 C220.606753,335.089959 213.895773,328.885402 213.895773,335.089959 C213.895773,341.294517 214.413037,350.077825 214.413037,356.282382 C214.413037,362.486939 211.312442,368.684018 211.312442,376.432235 C211.312442,384.178957 207.694583,380.052059 205.635991,375.397145 C203.577399,370.743727 208.177462,354.731243 206.15176,354.731243 C204.127553,354.731243 199.442275,346.46548 197.374713,343.880746 C194.309997,339.294639 192.689435,333.893323 192.72382,328.376832 C192.484623,323.617212 189.102971,319.601003 184.455068,318.55993 C181.913596,318.55993 180.837208,324.764487 180.837208,327.341742 C182.078044,327.96848 183.285991,328.659537 184.455068,329.410426 C184.972332,329.927971 186.005365,328.376832 186.996539,329.410426 C187.513803,329.927971 189.064101,330.44402 189.538011,331.47911 C190.055275,331.99516 189.020746,332.512705 189.538011,333.547795 C190.850606,337.424895 191.886629,341.390248 192.638606,345.415432 C193.15587,347.48262 195.180078,347.48262 196.256466,349.03376 C197.289499,350.969318 197.987656,353.063431 198.324027,355.230838 C198.324027,355.230838 199.357061,361.945461 199.874325,367.098475 C200.146412,368.981681 200.318335,370.876853 200.391589,372.778008 C199.874325,372.260463 198.841292,373.295553 197.850118,370.709324 C196.601807,368.396825 195.564288,365.976629 194.748027,363.478651 C194.232258,361.927512 195.782556,359.342778 195.265292,357.274094 C194.948355,354.773125 194.250198,352.333483 193.19773,350.043421 C193.459352,348.676265 193.459352,347.273209 193.19773,345.906052 C192.520502,341.86591 191.482984,337.894575 190.097134,334.038415 C189.581365,333.522366 189.064101,335.073506 188.546837,335.073506 C186.996539,334.038415 187.513803,334.555961 186.479275,333.522366 C186.220643,333.257611 186.04872,332.919561 185.98892,332.554587 L184.954392,331.520993 C184.954392,331.003448 185.471656,331.003448 184.954392,330.487398 C183.961723,329.738005 182.927195,329.046948 181.853797,328.418714 C180.303499,328.418714 176.168375,326.867575 174.102308,326.867575 C171.559342,326.867575 170.484449,317.542789 170.484449,314.999938 C170.484449,312.457086 0.0548602007,227.687396 0.0548602007,227.687396 L61.5465124,80.8676446 L76.0089806,82.4187839 L20.7783184,218.845752 L143.627074,280.846452 L177.711198,296.867911 L177.711198,288.602149 C176.67667,285.49987 173.576074,279.277363 172.543041,275.166919 C171.765649,271.416961 171.765649,267.548835 172.543041,263.798877 C172.631245,260.1626 172.976586,256.536793 173.576074,252.948381 C175.126372,247.777418 178.226967,243.132974 179.77876,238.478061 C181.152649,234.968926 182.191663,231.33564 182.879355,227.627564 C183.137987,225.051805 183.137987,222.456601 182.879355,219.880842 C182.46076,218.558559 181.55181,217.447184 180.337884,216.777068 C179.820619,216.261018 177.794917,218.845752 175.177201,225.042831 C173.92291,228.116689 172.363643,231.058918 170.526308,233.824643 C167.984837,237.962011 171.043573,238.995606 170.526308,241.055315 C170.009044,243.115025 170.009044,249.328557 169.493275,251.905812 C168.913221,253.032145 168.5619,254.263184 168.458746,255.525635 C168.083506,257.848605 167.386843,260.107255 166.391185,262.238763 C164.840887,265.858587 168.934151,267.927271 167.425713,270.513501 C166.391185,272.580689 169.493275,274.131829 168.458746,276.193034 C167.838328,277.68135 167.838328,279.35664 168.458746,280.846452 C169.079165,281.824702 169.599419,282.864279 170.009044,283.948731 C171.043573,286.017415 172.076606,288.602149 172.076606,288.602149 C172.076606,288.602149 174.144168,292.221972 173.626904,291.145 C170.741586,290.422531 167.808429,289.904986 164.849857,289.593861 C163.453542,289.622281 162.061713,289.447273 160.714733,289.077811 C159.6817,288.560266 154.005248,285.974037 154.005248,285.974037 L142.62693,280.846452 L146.24479,267.927271 C146.24479,267.927271 151.930211,259.145459 148.786262,256.059634 C145.310425,249.478136 146.325519,241.421785 151.327733,235.909781 C157.222452,229.705223 160.859746,221.698233 161.656573,213.175194 C161.288807,203.973063 162.143937,194.763454 164.198044,185.785693 C166.739516,178.038971 168.848937,168.213094 171.424793,161.499966 C173.966265,155.295409 173.966265,140.832568 176.075686,140.832568 C178.185108,140.832568 178.143248,136.179149 178.143248,150.157353 L178.143248,157.388026 C178.143248,168.238522 177.10872,176.504285 179.176282,172.893436 C180.512797,168.1398 181.54882,163.306886 182.276877,158.423116 C182.794141,155.234081 183.644787,152.10787 184.819843,149.09833 L199.280817,149.09833 L199.280817,155.302888 C199.280817,155.820433 198.765047,165.637335 200.315345,167.170525 C200.831114,168.205615 200.315345,172.334009 202.382907,173.885148 C203.41594,174.401197 196.180221,186.286784 197.730519,187.320378 C198.430171,189.161702 198.94893,191.067344 199.280817,193.008886 C199.170188,195.826964 198.648439,198.615126 197.730519,201.282128 C197.730519,201.799673 195.189047,201.282128 194.629924,202.833267 C194.0708,204.384407 194.629924,205.935546 194.11266,206.453091 C194.11266,206.970636 193.59689,208.521776 194.11266,208.995942 C194.504345,209.823117 194.849686,210.672729 195.147188,211.538794 C195.147188,212.056339 196.180221,212.056339 196.697486,212.573884 C197.21475,213.607478 196.180221,214.641073 196.697486,215.676163 L196.697486,224.051118 C196.355134,225.056293 196.355134,226.148223 196.697486,227.153397 C196.697486,227.153397 196.180221,230.255676 197.21475,230.255676 C197.730519,229.739627 197.730519,227.712824 197.730519,227.712824 C197.730519,226.161685 198.247783,226.161685 198.247783,225.64414 C198.500435,225.158007 198.675348,224.634478 198.765047,224.093001 L198.765047,222.024316 C198.765047,221.508267 199.280817,217.370898 199.280817,217.370898 L199.280817,214.26862 C199.798081,212.71748 199.280817,212.71748 199.280817,211.166341 C199.280817,209.615202 200.315345,208.064062 199.798081,207.028972 C199.506559,206.161411 199.161218,205.3118 198.765047,204.486121 L198.247783,202.934981 L196.697486,201.901387 L196.697486,199.722014 C197.21475,197.65333 196.180221,203.341838 196.697486,201.273153 C197.21475,200.239559 197.730519,197.65333 198.247783,196.619735 C199.280817,194.076884 197.730519,196.10219 198.247783,195.068596 C200.315345,191.448772 198.247783,193.517457 203.406971,190.415178 C208.567653,187.311403 208.059359,178.013542 208.059359,178.013542 C209.763639,177.691946 211.49184,177.51993 213.227516,177.495997 L214.777813,177.495997 C215.293583,177.495997 214.777813,179.047136 215.293583,181.115821 C215.492415,182.593666 216.021639,184.008688 216.84388,185.251694 C217.361144,187.320378 216.84388,187.794545 217.361144,188.871518 C217.057663,190.753228 216.88574,192.654383 216.84388,194.560026 C216.742221,196.67508 217.095037,198.788638 217.878409,200.757104 C219.428706,202.824293 221.496268,203.859383 222.012037,202.824293 C222.381298,197.805901 222.032967,192.759089 220.979004,187.837923 C220.856415,186.980833 220.682997,186.131221 220.46174,185.295072 C220.46174,184.777527 219.945971,182.75222 219.945971,181.157703 C219.945971,180.124109 219.428706,178.055424 219.428706,177.537879 C219.428706,177.02183 220.46174,173.918056 219.428706,173.918056 C218.394178,173.918056 218.911442,173.918056 217.361144,174.435601 C215.810847,174.953146 215.293583,176.978452 215.293583,176.978452 L213.743285,176.978452 C210.64269,176.462403 209.092392,177.495997 208.584098,176.978452 C207.884445,174.280038 207.536114,171.502347 207.551064,168.714185 C207.376151,165.426428 207.03081,162.149141 206.516536,158.897283 C205.999272,158.379738 204.966238,153.735295 203.975064,153.21775 C203.149833,152.942523 202.258823,152.942523 201.433593,153.21775 C200.677131,153.639564 199.981964,154.161596 199.366031,154.768889 L199.366031,148.606214 L184.979807,148.606214 C184.979807,148.606214 184.979807,146.537529 186.014335,137.239668 C187.047369,127.940311 188.080402,117.598385 188.080402,113.504394 L188.080402,111.43571 C187.047369,107.298341 184.464037,103.687492 184.464037,111.951759 C184.118696,120.102346 182.374051,128.131773 179.303355,135.687033 C178.270322,137.755717 184.464037,116.57227 177.235793,111.401306 C170.009044,106.230343 160.714733,108.858455 146.24479,108.858455 C131.265058,108.858455 119.387415,106.789771 116.811559,106.789771 C114.235703,106.789771 136.433215,104.721086 136.433215,104.721086 C136.433215,104.721086 160.707258,105.756176 166.391185,105.756176 C172.076606,105.756176 181.370917,105.238631 179.303355,102.653898 C177.235793,100.067668 149.345385,98.5165289 146.261235,98.5165289 C143.177084,98.5165289 116.312235,102.136353 111.144078,102.136353 C105.97592,102.136353 96.6816094,97.4829347 90.4878936,97.4829347 C85.7936462,96.9743644 81.3281311,95.189881 77.5772181,92.3194506 C77.5772181,92.3194506 72.4165358,89.7765992 73.9593585,87.6660325 C74.4751278,86.6324382 77.0599538,86.1148932 79.6432849,85.5973481 C80.6778134,85.5973481 80.6778134,85.5973481 82.7453753,84.5637538 C114.761937,76.2905121 87.9045625,83.0126145 83.7784087,80.4263851 C77.5772181,77.3241064 79.1275157,74.2218277 80.6778134,70.6109787 C82.228111,67.0001298 111.668817,62.3452159 116.829499,62.3452159 C121.988686,62.3452159 133.875298,58.7253922 140.069014,58.7253922 C146.261235,58.7253922 162.791265,55.6231135 170.018014,55.6231135 C177.244763,55.6231135 183.963218,54.5895192 186.03078,56.6582036 C191.188472,58.3589225 196.622736,59.0604503 202.043546,58.7253922 C208.207362,57.8832597 214.413037,57.3657146 220.632168,57.1742529 L220.632168,63.3713313 C218.089201,63.8888763 212.888155,62.337737 212.37089,63.8888763 L207.202733,64.9224706 C207.719997,64.9224706 205.652435,66.47361 205.652435,66.991155 C205.135171,69.5340064 211.328887,66.991155 211.328887,66.991155 C211.328887,66.991155 215.464011,67.5087 215.97978,66.991155 C216.497044,65.4400157 217.530078,66.991155 221.656231,66.991155 C223.266328,66.9687181 224.859981,67.3217257 226.308619,68.0247493 L226.308619,84.4874683 C226.824389,83.4523782 234.568402,87.0303197 235.62685,86.5561527 C236.144114,86.5561527 231.493221,86.5561527 232.010486,88.6233413 L230.975957,90.6920257 C231.493221,92.7607101 234.076553,92.7607101 234.076553,93.2348771 C235.111081,94.2699671 239.761974,91.6837377 242.33783,92.7188278 C244.396422,92.9805919 246.480429,92.9805919 248.539021,92.7188278 C253.189914,93.2348771 261.968456,95.2616792 262.484225,93.2348771 C262.484225,93.2348771 264.034522,93.2348771 264.551787,92.7188278 C264.551787,92.2012828 263.518753,91.1676885 264.034522,90.6501434 C264.551787,89.0990041 267.136613,88.581459 267.136613,88.581459 C268.419308,88.8133072 269.737884,88.4423501 270.711118,87.5732932 C272.77868,86.5382031 272.77868,88.0893425 274.846241,87.5732932 L277.946837,86.0221539 C281.564696,84.9870638 284.148027,86.5382031 282.59773,84.4710146 C281.564696,82.9183794 281.564696,82.4023302 278.97987,82.9183794 C278.205469,83.5466133 277.350338,84.0671499 276.438399,84.4710146 L268.694385,84.4710146 C264.560757,84.9870638 264.043492,87.5643185 261.467636,87.5643185 C259.026328,87.6151755 256.599971,87.9621999 254.240887,88.5979128 C254.240887,88.0818635 245.46384,91.1422599 244.430807,87.5643185 C243.396278,85.4956341 240.812947,86.5307242 238.745385,87.0467734 C237.712352,87.0467734 237.195088,86.0131791 236.677823,86.0131791 C235.127526,86.0131791 227.358098,82.3933554 227.358098,83.9444947 C227.102456,85.5150794 226.757114,87.0677146 226.325064,88.5979128 C226.325064,89.1154578 224.774767,90.1505479 224.774767,90.6665972 C224.182753,91.8602415 223.001716,92.6470296 221.674171,92.7352815 C219.790492,92.9940541 217.879904,92.9940541 215.99772,92.7352815 C214.447422,92.7352815 212.895629,94.2864209 211.345332,92.2177365 C210.829563,91.7016872 211.345332,91.7016872 210.829563,90.6665972 C210.829563,90.6665972 210.312298,87.5643185 210.312298,87.0467734 C209.279265,86.5307242 210.312298,87.0467734 205.153111,86.0131791 C203.311292,86.7102196 201.408178,87.2292604 199.46769,87.5643185 C196.367094,87.5643185 191.198937,89.1154578 186.555519,89.1154578 C184.489452,89.1154578 182.42189,88.0818635 180.354328,88.0818635 C177.812857,88.0818635 170.542753,89.6330029 167.959422,89.6330029 C165.878405,89.8259604 163.777954,89.6509524 161.758231,89.1154578 C160.206439,88.5979128 158.140372,88.0818635 158.656141,87.5643185 C159.69067,85.4956341 162.274001,86.5307242 165.367121,85.4956341 C166.400155,84.9795848 168.467716,85.4956341 169.50075,85.4956341 C171.214001,85.2353658 172.957151,85.2353658 174.668907,85.4956341 L188.614111,85.4956341 C190.165904,85.4956341 190.681673,83.9444947 192.231971,83.9444947 C194.695703,84.1598892 197.123556,84.6804258 199.45872,85.4956341 C200.852044,85.5195668 202.237894,85.693079 203.593843,86.0131791 C205.353439,86.1403217 207.089114,86.4873461 208.762001,87.0467734 C209.795034,85.4956341 209.279265,85.4956341 210.312298,85.4956341 C211.345332,84.9795848 211.345332,86.0131791 212.37986,85.4956341 C213.412894,84.9795848 212.897124,86.0131791 214.447422,86.0131791 L217.548017,86.0131791 C219.098315,86.0131791 218.581051,85.4956341 219.615579,85.4956341 C220.442305,85.1037358 221.289961,84.7582072 222.157051,84.4620398 C223.190084,84.9795848 224.223118,83.9444947 225.257646,83.9444947 L225.257646,67.9574385 C225.77491,67.4398935 228.358241,68.4749836 228.875506,67.9574385 C231.416977,67.4398935 233.009134,65.8887541 235.076696,66.9238442 C237.184623,67.8497413 239.498857,68.2057405 241.786181,67.9574385 C244.329148,67.9574385 245.404041,68.4749836 245.404041,67.9574385 C245.404041,67.9574385 247.947007,67.9574385 247.947007,65.8887541 C247.947007,63.8200697 246.395215,65.3712091 243.294619,63.8200697 C240.194024,62.2689304 238.126462,64.3376148 236.06787,63.8200697 C233.318596,63.5598014 230.549887,63.5598014 227.799118,63.8200697 L225.257646,63.8200697 C223.357522,63.7482716 221.463379,63.5762552 219.581195,63.3040205 L219.581195,57.1069421 C232.493365,57.6244871 251.597757,58.6580814 254.182583,58.6580814 C258.833476,58.6580814 289.817004,57.1069421 289.817004,57.1069421 C281.370348,54.1482597 272.378024,53.0892369 263.475399,54.0046634 C253.315492,55.189333 243.032997,54.8408128 232.976245,52.9695733 L215.455041,52.9695733 C200.992573,52.9695733 219.590165,48.8337003 219.590165,48.8337003 C223.181114,49.3347916 226.810934,49.5083039 230.433278,49.3512454 L253.157024,49.3512454 C257.290653,49.3512454 286.199144,50.3848397 286.199144,50.3848397 C286.199144,50.3848397 299.10982,50.3848397 303.762208,49.8672946 C308.930365,49.3512454 322.358305,49.3512454 322.358305,49.3512454 L388.442546,57.1069421 C388.442546,57.1069421 392.57767,61.7603601 388.95981,63.3040205 C385.341951,65.3712091 376.047639,63.8200697 372.42978,66.9238442 C368.294656,70.0261229 361.067907,66.9238442 364.169997,73.6369719 C367.070265,77.801265 372.053044,79.9955961 377.080673,79.32548 C379.148235,79.32548 388.94187,81.3926686 388.94187,77.2567956 C389.921084,73.2136619 391.885492,69.4771662 394.661676,66.3808707 L386.908693,95.3200152 C383.814078,93.1959864 380.287412,91.7824602 376.581348,91.1841422 C372.963489,91.1841422 369.354599,100.508928 370.904897,103.051779 C373.467298,105.060632 376.236007,106.791267 379.16468,108.213767 L379.681944,113.902276 C379.681944,113.902276 340.429663,110.799997 334.778626,110.799997 C329.619439,110.799997 320.316158,115.453415 315.156971,113.342848 C308.112609,110.41109 300.579389,108.831531 292.950489,108.68943 C282.611185,109.353563 272.231516,109.006539 261.959486,107.65434 C254.215472,105.585656 250.597613,100.941213 250.597613,104.034516 C250.597613,107.65434 252.665175,109.20548 257.308593,109.20548 C261.950516,109.20548 268.153201,109.20548 271.253797,112.825303 C274.354392,116.445127 282.614175,120.055976 282.614175,116.445127 C282.614175,112.834278 299.661469,119.547406 302.2448,115.927582 C304.829626,112.307758 313.606673,118.471929 313.606673,115.411533 C313.606673,112.351136 321.350686,118.504837 326.001579,118.504837 C330.652472,118.504837 345.623235,119.539927 349.723974,119.539927 C353.824713,119.539927 347.656412,123.6758 350.241238,123.6758 C354.898111,125.496182 359.755312,126.751154 364.711181,127.413791 C372.455195,127.413791 379.690914,122.242828 377.106088,128.964931 C374.522757,135.687033 371.93793,141.884111 371.93793,141.884111 C371.93793,141.884111 369.871864,138.264288 365.228445,141.884111 C359.351666,144.966945 352.748325,146.396925 346.124054,146.02148 C341.471666,146.02148 328.559496,147.572619 324.943131,143.478629 C320.808007,139.34126 314.614292,134.695321 312.030961,138.823715 C308.667248,143.106176 302.546787,144.014123 298.085757,140.892399 C292.250837,137.75123 285.983867,135.489588 279.488165,134.179272 C274.837272,134.179272 263.992663,126.948599 258.833476,126.948599 C253.674288,126.948599 248.506131,127.464648 246.438569,125.39746 C244.339613,123.418523 241.569409,122.310139 238.685586,122.293685 C236.144114,122.293685 231.458837,121.260091 231.458837,123.844825 C231.458837,126.948599 234.559432,136.247956 234.559432,141.927489 C234.559432,147.607023 234.559432,170.349089 236.626994,167.24681 C238.694556,164.144532 239.727589,167.764355 239.727589,175.512573 C239.727589,183.260791 238.177292,188.947803 238.177292,192.567627 C238.177292,196.187451 236.10973,198.256135 236.10973,201.892412 C236.10973,205.52869 240.244854,216.878782 240.244854,218.422442 C243.937462,226.329214 244.832957,235.25911 242.786325,243.743259 C239.68573,261.315858 243.303589,257.696034 244.336623,266.995391 C245.371151,275.777203 246.404185,269.064075 246.404185,263.375567 C246.404185,258.204604 246.921449,254.050782 246.921449,244.767878 C246.167977,233.911399 246.514813,223.005558 247.954482,212.217885 C250.022044,206.011832 251.055078,214.285073 251.055078,216.353758 C251.055078,218.422442 247.437218,236.503611 250.539308,243.743259 C253.639904,250.98141 253.08078,252.007526 255.698496,257.696034 C258.316211,263.384542 256.21576,269.064075 253.630934,269.064075 C250.530338,269.064075 251.563372,275.777203 251.563372,282.499305 L251.563372,302.038875 C251.563372,306.174748 250.013074,311.854281 250.013074,313.906512 C250.013074,315.957246 243.303589,316.449363 247.471603,322.688324 C251.639616,328.927284 247.471603,331.470136 247.471603,331.470136 C247.471603,331.470136 246.438569,337.158644 254.182583,339.743377 C261.409332,342.286229 312.539255,366.097788 312.539255,366.097788 L395.69471,60.200246 L102.866355,15.2740453 L76.0089806,82.4531872 L61.5465124,80.8676446 L94.5976027,0.260751575 Z" id="Fill-1" fill="#40A347" mask="url(#mask-2)"></path>
            </g>
            <text id="always-with-you" font-family="MyriadPro-Regular, Myriad Pro" font-size="28.3358" font-weight="normal" fill="#40A347">
                <tspan x="252.040392" y="563">al</tspan>
                <tspan x="272.385496" y="563" letter-spacing="-0.1133432">w</tspan>
                <tspan x="293.013958" y="563" letter-spacing="-0.2266864">a</tspan>
                <tspan x="306.218441" y="563" letter-spacing="-0.1700148">y</tspan>
                <tspan x="319.224573" y="563">s with </tspan>
                <tspan x="395.051174" y="563" letter-spacing="-0.283358">y</tspan>
                <tspan x="407.83062" y="563">ou</tspan>
            </text>
            <path d="M45.6584834,419.867177 L92.8570346,419.867177 L92.8570346,441.564311 L45.6584834,441.564311 L45.6584834,503.561463 C45.6584834,503.561463 45.1446324,510.274893 49.2524701,512.884591 C55.5389768,515.257995 62.4670546,515.257995 68.7535613,512.884591 C70.8817361,510.898528 72.0133964,508.055528 71.833697,505.137751 L71.833697,489.636593 L98,489.636593 L98,513.367646 C98,513.367646 97.486149,531.4456 81.5790447,533.513917 C67.2654725,535.049825 52.8494272,535.396788 38.4794205,534.547327 C33.1270534,534.206347 27.8949809,532.800549 23.0861672,530.41219 C19.5664363,528.346864 17.2674729,524.684314 16.9244105,520.597033 L16.9244105,441.055831 L0,441.055831 L0,418.841244 L15.9071043,418.841244 L15.9071043,393 L45.1446324,393" id="Fill-5" fill="#40A347"></path>
            <path d="M118.518397,531.951238 L118.518397,417.071944 L146.988309,417.071944 L146.988309,438.390248 C148.170435,433.612889 150.092701,429.052205 152.686186,424.873709 C157.061102,420.80355 162.411383,417.940144 168.215637,416.560353 C172.129089,415.713218 176.103969,415.191094 180.102821,415 L199.249069,415 C204.752173,415.121879 210.118936,416.73941 214.780018,419.681059 C221.952182,423.691031 227.46128,430.146107 230.309469,437.878656 C231.863163,449.816786 230.309469,533 230.309469,533 L200.777293,533 L200.777293,453.986254 C200.715864,449.159241 198.870009,444.527837 195.597813,440.990334 C190.821364,437.425748 184.981152,435.591543 179.033065,435.788656 C172.578567,435.383897 166.103093,436.088088 159.885319,437.869628 C155.02347,439.396878 150.942213,442.759838 148.500052,447.249802 C146.946357,453.491214 146.42796,457.125016 146.42796,457.125016 C146.946357,459.204483 147.463257,532.497437 147.463257,532.497437 L118,532.497437" id="Fill-7" fill="#40A347"></path>
            <path d="M251.007394,418.055432 L279.925884,418.055432 L279.925884,436.0753 C282.317324,432.527378 285.085416,429.246295 288.183826,426.291681 C293.673676,422.457539 300.088714,420.148408 306.768306,419.601313 C316.951357,417.830333 327.412413,418.536936 337.262157,421.662984 C340.820919,423.329613 344.269077,425.21985 347.5872,427.323262 C352.069655,429.772521 355.679235,433.551505 357.912243,438.136971 C358.429392,439.167061 357.912243,438.651271 358.429392,438.136971 C361.231861,433.374109 364.910194,429.180703 369.271583,425.777381 C376.064768,422.02672 383.708409,420.075363 391.471621,420.108159 C400.248207,420.108159 419.357308,421.138249 425.548149,426.798527 C429.060577,429.463941 432.194858,432.589988 434.865798,436.091698 C437.230334,440.562379 438.638295,445.472822 439,450.512959 L439,536 L408.014409,536 L408.014409,459.257544 C408.014409,459.257544 408.014409,442.774613 394.072313,441.228732 C379.613068,440.198642 370.355205,440.712942 365.670971,445.866374 C362.704091,448.944718 360.880618,452.942839 360.503966,457.195874 L360.503966,535.476756 L330.552673,535.476756 L330.552673,451.569882 C327.259958,444.225087 320.031831,439.418994 311.968193,439.210292 C306.337846,438.746677 300.674617,439.614278 295.443342,441.744523 C289.679971,444.374159 284.698302,448.449798 280.984097,453.571924 C279.443112,458.039623 278.742121,462.754782 278.916996,467.477395 L278.916996,534.428777 L250,534.428777 L250,417" id="Fill-9" fill="#40A347"></path>
        </g>
    </g>
</svg>