<svg width="241.6" height="257.9" xmlns="http://www.w3.org/2000/svg">

 <g>
  <title>background</title>
  <rect fill="none" id="canvas_background" height="259.9" width="243.6" y="-1" x="-1"/>
 </g>
 <g>
  <title>Layer 1</title>
  <g id="svg_1">
   <g id="g3043">
    <path d="m137.250002,240.649998c-0.5,0.3 -1,0.6 -1.6,0.9c-1.6,0.7 -3.2,0.9 -4.6,0.9c-1.5,0 -3.9,-0.1 -6.3,-1.9c-3.4,-2.4 -4.9,-6.5 -4.9,-10.1c0,-7.4 6,-11 10.9,-11c1.7,0 3.5,0.4 4.9,1.3c2.4,1.6 3,3.6 3.3,4.7l-11.2,4.5l-3.7,0.3c1.2,6.1 5.3,9.6 9.8,9.6c2.4,0 4.2,-0.9 5.8,-1.7l-2.4,2.5zm-4.5,-14.2c0.9,-0.3 1.4,-0.6 1.4,-1.3c0,-1.9 -2.1,-4.1 -4.7,-4.1c-1.9,0 -5.5,1.5 -5.5,6.6c0,0.8 0.1,1.7 0.1,2.5l8.7,-3.7" fill="#1476C6" id="path8"/>
    <path d="m118.750002,241.649998l-8.4,0c1.1,-1.4 1.3,-1.6 1.3,-2.5l0,-7.8c0,-3.7 0.1,-9 0.2,-14c0,-2.4 0.2,-5.5 0.3,-7.7l-3.7,0l3.6,-1.7l6.8,0c-1.5,0.9 -2,1.1 -2.1,2.8c-0.4,3.7 -0.4,9.5 -0.4,16.3l0,11c0,1.9 0.3,2.2 1.9,2.3c0.8,0.1 1.6,0.2 2.4,0.2l-1.9,1.1" fill="#1476C6" id="path10"/>
    <path d="m103.050002,221.749998c1.1,0.9 3.4,2.8 3.4,6.5c0,3.5 -2,5.2 -4,6.8c-0.6,0.6 -1.3,1.3 -1.3,2.3c0,1 0.7,1.6 1.2,2l1.7,1.3c2.1,1.8 4,3.4 4,6.7c0,4.5 -4.3,9 -12.6,9c-6.9,0 -10.3,-3.3 -10.3,-6.8c0,-1.7 0.9,-4.2 3.7,-5.8c3,-1.8 7,-2.1 9.1,-2.2c-0.7,-0.9 -1.4,-1.8 -1.4,-3.2c0,-0.8 0.2,-1.3 0.5,-1.9c-0.5,0 -1.1,0.1 -1.5,0.1c-5.1,0 -7.9,-3.8 -7.9,-7.5c0,-2.2 1,-4.6 3.1,-6.4c2.7,-2.2 6,-2.6 8.5,-2.6l9.8,0l-3.1,1.7l-2.9,0l0,0zm-3.4,21.2c-0.4,0 -0.6,0 -1.1,0c-0.4,0 -3,0.1 -5,0.8c-1.1,0.4 -4.1,1.5 -4.1,4.9c0,3.4 3.3,5.8 8.4,5.8c4.6,0 7,-2.2 7,-5.2c0,-2.4 -1.6,-3.7 -5.2,-6.3m1.4,-9c1.1,-1.1 1.2,-2.6 1.2,-3.5c0,-3.4 -2.1,-8.8 -6,-8.8c-1.2,0 -2.6,0.6 -3.3,1.6c-0.8,1 -1.1,2.3 -1.1,3.5c0,3.2 1.9,8.5 6,8.5c1.1,0 2.4,-0.6 3.2,-1.3" fill="#1476C6" id="path12"/>
    <path d="m73.550002,242.349998c-7.6,0 -11.6,-5.9 -11.6,-11.3c0,-6.3 5.1,-11.6 12.4,-11.6c7,0 11.4,5.5 11.4,11.3c-0.1,5.6 -4.5,11.6 -12.2,11.6m5.9,-3.9c1.1,-1.5 1.4,-3.4 1.4,-5.3c0,-4.2 -2,-12.2 -7.9,-12.2c-1.6,0 -3.1,0.6 -4.3,1.6c-1.9,1.7 -2.2,3.8 -2.2,5.8c0,4.7 2.3,12.5 8.1,12.5c1.9,0 3.8,-0.9 4.9,-2.4" fill="#1476C6" id="path14"/>
    <path d="m48.150002,242.349998c-7.6,0 -11.6,-5.9 -11.6,-11.3c0,-6.3 5.1,-11.6 12.4,-11.6c7,0 11.4,5.5 11.4,11.3c-0.1,5.6 -4.5,11.6 -12.2,11.6m5.9,-3.9c1.1,-1.5 1.4,-3.4 1.4,-5.3c0,-4.2 -2,-12.2 -7.9,-12.2c-1.6,0 -3.2,0.6 -4.3,1.6c-1.9,1.7 -2.2,3.8 -2.2,5.8c0,4.7 2.3,12.5 8.1,12.5c1.9,0 3.8,-0.9 4.9,-2.4" fill="#1476C6" id="path16"/>
    <path d="m33.350002,240.649998l-6.4,1.5c-2.6,0.4 -4.9,0.8 -7.4,0.8c-12.4,0 -17.1,-9.1 -17.1,-16.2c0,-8.7 6.7,-16.7 18.1,-16.7c2.4,0 4.7,0.4 6.8,0.9c3.4,0.9 4.9,2.1 5.9,2.8l-3.7,3.5l-1.6,0.4l1.1,-1.8c-1.5,-1.5 -4.3,-4.2 -9.6,-4.2c-7.1,0 -12.4,5.4 -12.4,13.2c0,8.4 6.1,16.3 15.8,16.3c2.9,0 4.3,-0.6 5.7,-1.1l0,-7.2l-6.8,0.4l3.6,-1.9l9.5,0l-1.2,1.1c-0.3,0.3 -0.4,0.4 -0.4,0.7c0,0.4 -0.1,1.7 -0.1,2.1l0,5.4" fill="#1476C6" id="path18"/>
    <path d="m157.750002,241.649998l-3.4,0l-5,-21.6l2.7,0l4.1,19.4l4.2,-19.4l3.4,0l4.4,19.4l4,-19.4l2.6,0l-4.9,21.6l-3.4,0l-4.3,-19.2l-4.4,19.2" fill="#1476C6" id="path20"/>
    <path d="m190.550002,226.649998c0,-3.5 -1.6,-4.9 -5.1,-4.9c-2.8,0 -4.4,1.5 -4.8,4l-2.5,-0.3c0.5,-3.5 3.3,-5.9 7.3,-5.9c4.8,0 7.5,2.1 7.5,6.8l0,11c0,1.9 0.1,3.2 0.4,4.2l-2.5,0c-0.2,-0.6 -0.3,-1.7 -0.3,-2.3c-1,1.5 -3.4,2.8 -5.7,2.8c-4,0 -7.1,-2.4 -7.1,-7.2c0,-4.4 3.2,-6.9 7.7,-6.9c2.2,0 4,0.4 5.1,0.9l0,-2.2l0,0zm0,4.7c-1.2,-0.6 -2.9,-1.1 -5.2,-1.1c-3,0 -5.2,1.5 -5.2,4.7c0,3.3 2,5 4.8,5c2.5,0 4.7,-1.8 5.6,-3.7l0,-4.9" fill="#1476C6" id="path22"/>
    <path d="m197.850002,241.649998l2.5,0l0,-30.8l-2.5,0l0,30.8z" fill="#1476C6" id="path24"/>
    <path d="m205.550002,241.649998l2.5,0l0,-30.8l-2.5,0l0,30.8z" fill="#1476C6" id="path26"/>
    <path d="m220.150002,239.849998c2.6,0 4.6,-1.6 5,-5.6l2.5,0.4c-0.6,5.2 -3.6,7.6 -7.5,7.6c-5.1,0 -8.2,-3.8 -8.2,-11.5c0,-6.9 2.6,-11.1 7.9,-11.1c5.6,0 7.8,4.6 7.8,10.9l0,0.8l-13.2,0c0.1,5.9 2.3,8.5 5.7,8.5m4.9,-10.7l0,0c-0.1,-4.1 -1.7,-7.2 -5.2,-7.2c-3.4,0 -5.2,2.8 -5.4,7.2l10.6,0" fill="#1476C6" id="path28"/>
    <path d="m239.150002,241.549998c-0.5,0.2 -1.5,0.4 -2.6,0.4c-3.2,0 -4.2,-1.6 -4.2,-4.7l0,-15l-2.8,0l0,-2.2l2.8,0l0,-7l2.5,-1l0,8l4.3,0l0,2.2l-4.3,0l0,14.6c0,2.1 0.4,2.6 2.1,2.6c0.9,0 1.6,-0.2 2.2,-0.5l0,2.6" fill="#1476C6" id="path30"/>
   </g>
   <g id="g3025">
    <path d="m92.250002,85.049998c-10.6,-14.6 -25.3,-27.4 -42,-36.3c-2.5,-1.4 -5.4,-2.1 -8.3,-2.1c-6.5,0 -12.4,3.5 -15.5,9.3c-4.6,8.5 -1.3,19.2 7.2,23.7c25.7,13.8 42.3,40 44.3,70.4c0,0 0,-0.1 0,-0.1c-0.3,-3.4 0.3,-6.7 1.8,-9.8c0.2,-0.4 0.5,-0.9 0.8,-1.4c8,-13.2 12.3,-28.4 12.3,-44c0,-3.3 -0.3,-6.5 -0.6,-9.7" fill="#1476C6" id="path34"/>
    <path d="m194.050002,52.049998c-3.1,-13.6 -7.7,-26.8 -13.7,-39.4c-3.2,-6.7 -10.1,-11.1 -17.5,-11.1c-2.9,0 -5.7,0.6 -8.3,1.9c-9.7,4.6 -13.8,16.2 -9.2,25.8c9.8,20.8 14.7,42.7 14.7,65.5c0,22.8 -4.9,44.7 -14.5,65.1c-0.1,0.3 -1.8,3.9 -1.8,8.1c0,1.2 0.1,2.9 0.5,4.5c1.3,5.5 4.8,10.5 10.6,13.2c2.6,1.2 5.4,1.9 8.3,1.9c7.1,0 13.6,-3.9 17,-10.1c3.9,-7.3 7.8,-16.8 11.2,-29.1c1.1,-3.7 2,-7.2 2.8,-10.9c3.1,-13.9 4.8,-28.1 4.8,-42.7c-0.1,-14.4 -1.8,-28.9 -4.9,-42.7" fill="#47AE33" id="path36"/>
    <path d="m112.150002,31.749998c-0.3,-0.6 -0.7,-1.1 -1.1,-1.6c-1.3,-1.7 -2.8,-3.1 -4.6,-4.2c-2.9,-1.9 -6.4,-3 -10,-3c-3,0 -4.5,0.4 -6.6,1.2c-2.2,0.9 -4.5,2.1 -6.6,4.3c-2.1,2.2 -3.3,4.4 -4.2,6.8c-1.8,4.7 -1.5,10.8 1.5,15.8c6.4,10.3 10.2,22.1 11.6,34.2c0.4,3.2 0.6,6.5 0.6,9.7c0,15.6 -4.2,30.8 -12.3,44c-0.3,0.5 -0.5,0.9 -0.8,1.4c-1.6,3.1 -2.1,6.6 -1.8,9.9c0.5,5.6 3.6,10.9 8.8,14.1c1.3,0.8 2.8,1.4 4.2,1.9c1.7,0.5 3.5,0.8 5.3,0.8c6.5,0 12.4,-3.3 15.8,-8.9c10.2,-16.7 16.1,-35.7 17.4,-55.2c0.2,-2.6 0.3,-5.3 0.3,-7.9c0.1,-22.6 -6,-44.4 -17.5,-63.3" fill="#ED114C" id="path38"/>
    <path d="m145.450002,159.849998c9.7,-20.4 14.6,-42.3 14.6,-65.1c0,-7.8 -0.5,-13.5 -0.9,-17.2c-12.7,-20.3 -31.1,-38.5 -52.7,-51.7c0,0 0.5,0.3 0.5,0.4c1.5,1.1 2.7,2.2 4.1,3.9c0.3,0.4 0.8,1 1.1,1.6c11.5,19 17.5,40.7 17.5,63c0,2.7 -0.1,5.3 -0.3,7.9c9.2,17.5 14.2,37.4 14.2,58.3c0,1.7 0,4.3 0,6.3c0.1,-2.2 0.6,-4.5 1.4,-6.5c0.3,-0.3 0.4,-0.6 0.5,-0.9" fill="#FBBF16" id="path40"/>
   </g>
  </g>
 </g>
</svg>