<svg xmlns="http://www.w3.org/2000/svg" viewBox="0 0 140 35.7" width="140" height="36" fill="#0072b8"><path d="M122 0c2.6 0 5.3.5 7.7 1.9.2.2.7.2 1 .5L129 3.8l-2.4-2.4-4.1 3.8-2.4-2.6-7.7 7 4.8 5.3-1.9 1.7 4.8 5.3-1.9 1.7 7 7.7 4.1-3.8 3.4 4.1c-.7.5-1.7 1-2.4 1.7-2.6 1.4-5.5 2.4-8.9 2.4-9.6 0-17.5-7.9-17.5-17.5C105 7.9 112.7 0 122 0zm-3.1 16.6l4.3-3.9 3.6 4.3-3.8 3.6zm3.1 7.1l4.1-3.8 3.8 4.3-4 3.6zm-6-14.3l4.3-3.9 3.6 4.3-4 3.6zm7.7-2l3.1-2.8 2.7 3.1-2.9 2.6zm5.5 12.8l3.4-2.9 2.6 3.1-3.4 2.9zm2.6 6.4l3.4-2.9 2.9 3.2-3.1 2.8zm1.5-14.6l2.1-1.9 2 2.1-2.2 2zm-2.6-6.2l2.1-1.7 1.9 1.9-2.1 1.9zm5.2 12.4l2.2-1.6 1.9 1.6-2.2 2.2zm-9.3-4.8l3.3-2.6 2.7 3.1-3.4 2.9zM7.9 14.6L5.3 24.7H3.1L0 10.6h2.2l2.2 10.5h.2l2.6-10.5h1.9l2.6 10.5h.3l2.2-10.5h2.4l-3.1 14.1h-2.2zm17 7.7V24c-.7.5-2.2.7-3.4.7-3.4 0-4.8-2.2-4.8-5.3 0-2.9 1.7-5.3 4.6-5.3 2.4 0 4.1 1.7 4.1 4.8v.7h-6.7c0 2.4 1 3.4 2.9 3.4a3.84 3.84 0 0 0 3.3-.7zm-6-3.6h4.6c0-2.2-1-2.9-2.2-2.9-1.4-.2-2.1.8-2.4 2.9zm10.3-3.6c.5-.2 1.7-.7 2.6-.7 2.4 0 3.8 1.7 3.8 5 0 3.8-1.9 5.5-4.8 5.5-1 0-2.6-.2-4.1-1V9.8l2.3-.4zm0 7.9c.5.2 1.4.2 1.9.2 1.7 0 2.6-.7 2.6-4.3 0-2.6-.7-3.4-2.2-3.4-.7 0-1.4.2-2.2.5-.1.6-.1 7-.1 7zm15.6-1.4l4.3-11.3h2.4v14.1h-2.2V14.2h-.2L45 24.5h-1.2l-4-10.1h-.2v10.1h-1.9V10.3H40zm9.1-2.2c0-3.4 1.9-5.3 4.6-5.3 2.6 0 4.6 1.9 4.6 5.3s-1.9 5.3-4.6 5.3c-2.6 0-4.6-1.9-4.6-5.3zm7 0c0-2.6-1-3.8-2.4-3.8s-2.4 1-2.4 3.8c0 2.6 1 3.8 2.4 3.8 1.2.1 2.4-.9 2.4-3.8zm3.8-3.8c.7-.5 2.9-1.7 5-1.7 2.4 0 3.1 1 3.1 2.9V24h-2.2v-7c0-1.7-.7-1.9-1.9-1.9-.7 0-1.9.2-2.4.7v7.9h-2.2c.6.8.6-8.1.6-8.1zm18.7 6.7V24c-.7.5-2.2.7-3.4.7-3.4 0-4.8-2.2-4.8-5.3 0-2.9 1.7-5.3 4.6-5.3 2.4 0 4.1 1.7 4.1 4.8v.7h-6.7c0 2.4 1 3.4 2.9 3.4 1.2.3 2.1 0 3.3-.7zm-6.2-3.6h4.6c0-2.2-1-2.9-2.2-2.9-1.2-.2-2.2.8-2.4 2.9zm14.1-4.1h2.2l-3.8 10.1c-1 2.6-2.2 4.3-4.6 4.3v-1.7c1.4 0 2.2-1 2.6-2.6l-3.8-10.1h2.2l2.6 7.4z"/></svg>