<svg width="104" height="40" viewBox="0 0 104 40" fill="none" xmlns="http://www.w3.org/2000/svg">
    <path fill-rule="evenodd" clip-rule="evenodd"
          d="M104 13.4239C104 10.5147 98.7466 10.2004 96.4877 10.2004C91.4946 10.2004 86.2043 11.7523 81.9738 14.4574C77.7355 17.1682 75.3047 20.5312 75.3047 23.6848C75.3047 25.0198 75.9763 29.3761 84.6181 29.3761C90.15 29.3761 95.257 27.8106 101.176 24.2996C101.318 24.2149 101.408 24.0589 101.411 23.8889C101.415 23.7186 101.332 23.559 101.193 23.4683L100.186 22.812C100.049 22.722 99.8764 22.7133 99.7309 22.7886C95.129 25.1697 91.1032 26.3273 87.4236 26.3273C84.1241 26.3273 81.9919 25.3511 81.9919 23.8401C81.9919 22.9074 82.128 22.1038 82.4179 21.3371C87.864 21.0449 104 19.6487 104 13.4239ZM94.8331 12.4022C96.3392 12.4022 97.3122 12.8634 97.3122 13.5769C97.3122 16.9125 90.3951 18.9613 83.2943 19.3442C84.9399 16.8445 89.8555 12.4022 94.8331 12.4022Z"
          fill="#CC0000"/>
    <path fill-rule="evenodd" clip-rule="evenodd"
          d="M73.8545 23.4683L72.845 22.812C72.7079 22.7223 72.5347 22.7133 72.3902 22.7892C67.7907 25.1697 63.7649 26.3273 60.0829 26.3273C56.7834 26.3273 54.6519 25.3511 54.6519 23.8404C54.6519 22.9033 54.7876 22.0998 55.0769 21.3371C60.5233 21.0453 76.662 19.6487 76.662 13.4239C76.662 10.5147 71.4049 10.2004 69.1453 10.2004C64.152 10.2004 58.862 11.7523 54.6324 14.4574C50.3945 17.1682 47.9644 20.5312 47.9644 23.6848C47.9644 25.0201 48.636 29.3761 57.2778 29.3761C62.8114 29.3761 67.9187 27.8109 73.8381 24.2992C73.9805 24.2149 74.0697 24.0589 74.073 23.8889C74.0764 23.7183 73.9932 23.5586 73.8545 23.4683ZM67.4909 12.4022C68.9997 12.4022 69.975 12.8637 69.975 13.5769C69.975 16.9121 63.0569 18.9613 55.9544 19.3442C57.6003 16.8445 62.5153 12.4022 67.4909 12.4022Z"
          fill="#CC0000"/>
    <path fill-rule="evenodd" clip-rule="evenodd"
          d="M49.6113 15.7974C52.0749 15.7974 53.0971 13.6241 53.0971 12.4601C53.0971 11.6392 52.6299 10.6606 50.4035 10.6606C47.5689 10.6606 43.6215 13.0538 38.6519 17.7803L40.1695 14.8463C40.8653 13.4748 40.946 12.9146 40.946 12.6127C40.946 11.7222 40.3528 10.6606 37.5275 10.6606C33.8308 10.6606 28.2299 14.4665 26.3839 15.933C26.2646 16.0277 26.1965 16.1766 26.2009 16.3329C26.2056 16.4888 26.2823 16.6328 26.407 16.7198L27.3437 17.374C27.4982 17.4818 27.6997 17.4838 27.8558 17.3794C28.7346 16.7911 31.7499 14.8724 33.6428 14.8724C34.3316 14.8724 34.545 15.2523 34.545 15.3905C34.545 15.7998 34.1315 16.7603 33.739 17.4319L28.066 28.0639C27.9795 28.2028 27.8575 28.4076 27.8575 28.6616C27.8575 29.7697 30.5957 29.839 30.6231 29.839C32.7654 29.839 33.3817 29.7245 33.621 29.2791L34.91 26.824C37.4343 22.642 42.3483 15.6421 46.9505 15.6421C47.3631 15.6421 47.7901 15.679 48.2422 15.7181C48.6933 15.7569 49.1598 15.7974 49.6113 15.7974Z"
          fill="#CC0000"/>
    <path fill-rule="evenodd" clip-rule="evenodd"
          d="M26.1871 12.9484C26.1033 12.8004 25.9502 12.7091 25.7849 12.7091H18.6185L20.813 8.01472C21.74 5.95117 22.8943 3.38295 27.0806 3.38295C27.89 3.38295 28.6823 3.58977 29.4484 3.79024C30.1961 3.98568 30.9026 4.17008 31.6105 4.17008C33.1495 4.17008 34.0919 2.63497 34.0919 1.79897C34.0919 0.692569 32.8468 0.057373 30.6761 0.057373C27.7948 0.057373 24.7094 1.05434 22.7857 1.98572C15.9735 5.2216 14.0343 8.69878 11.9155 12.7091H5.86277C5.68749 12.7091 5.52729 12.8112 5.44786 12.9731L4.65758 14.5812C4.58385 14.7311 4.59055 14.9108 4.67501 15.0544C4.7598 15.1983 4.91062 15.2857 5.0725 15.2857H10.8092L0.0442799 39.0747C-0.0378312 39.2564 -0.00364615 39.4716 0.129407 39.6165L0.346583 39.8515C0.435062 39.9472 0.55672 40.0001 0.682736 40.0001C0.706196 40.0001 0.729991 39.9984 0.754122 39.9944L5.14388 39.2872C5.29068 39.2638 5.41803 39.1688 5.48607 39.0322L17.365 15.2857H24.9206C25.0892 15.2857 25.245 15.191 25.3275 15.0377L26.1918 13.4293C26.2726 13.2797 26.2706 13.0963 26.1871 12.9484Z"
          fill="#CC0000"/>
</svg>
