<svg xmlns="http://www.w3.org/2000/svg" width="1301.93" height="221.753" viewBox="166 407 1301.93 221.753" fill="none" xmlns:v="https://vecta.io/nano"><path d="M514.281 594.371v33.82h11.367c10.055 0 15.961-6.258 15.961-16.922 0-10.64-5.929-16.898-15.961-16.898zm4.219 3.797h6.867c7.688 0 11.93 4.687 11.93 13.148 0 8.391-4.266 13.078-11.93 13.078H518.5zm59.698 30.023v-33.82h-4.219v33.82zm62.206-13.992v-3.211h-13.758v3.703h9.539v.609c0 5.672-4.125 9.563-10.125 9.563-6.89 0-11.156-5.274-11.156-13.781 0-8.368 4.195-13.383 11.156-13.383 4.758 0 8.297 2.601 9.703 7.172h4.43c-1.265-6.727-6.82-11.063-14.133-11.063-9.468 0-15.492 6.727-15.492 17.297 0 10.758 6.047 17.648 15.492 17.648 9.024 0 14.344-5.414 14.344-14.554zm36.753 13.992v-33.82h-4.219v33.82zm46.456 0v-30.023h10.664v-3.797H708.73v3.797h10.664v30.023zm59.534 0h4.43l-12.469-33.82h-4.172l-12.469 33.82h4.43l3.398-9.68h13.453zm-10.195-28.688h.14l5.414 15.422h-10.968zm66.143 24.891h-16.312v-30.023h-4.219v33.82h20.531zm90.709 3.797h4.429l-12.468-33.82h-4.172l-12.469 33.82h4.43l3.398-9.68h13.453zm-10.196-28.688h.141l5.414 15.422h-10.969zm73.199 14.696v-3.211h-13.758v3.703h9.539v.609c0 5.672-4.125 9.563-10.125 9.563-6.891 0-11.156-5.274-11.156-13.781 0-8.368 4.195-13.383 11.156-13.383 4.758 0 8.297 2.601 9.703 7.172h4.43c-1.266-6.727-6.821-11.063-14.133-11.063-9.469 0-15.492 6.727-15.492 17.297 0 10.758 6.047 17.648 15.492 17.648 9.023 0 14.344-5.414 14.344-14.554zm53.483 10.195h-16.73v-11.625h15.87v-3.75h-15.87v-10.851h16.73v-3.797h-20.95v33.82h20.95zm73.88 3.797v-14.648h14.98v-3.75h-14.98v-11.625h16.32v-3.797h-20.53v33.82zm52.48 0v-33.82h-4.22v33.82zm37.86 0V601.73h.21l18.51 26.461h4.11v-33.82h-4.18v26.554h-.21l-18.51-26.554h-4.1v33.82zm78.49 0h4.43l-12.47-33.82h-4.17l-12.47 33.82h4.43l3.4-9.68h13.45zm-10.19-28.688h.14l5.41 15.422h-10.97zm49.78 28.688V601.73h.21l18.52 26.461h4.1v-33.82h-4.17v26.554h-.21l-18.52-26.554h-4.1v33.82zm70.43.562c7.48 0 12.5-3.726 14.04-10.406h-4.26c-1.22 4.125-4.78 6.516-9.75 6.516-6.68 0-10.92-5.297-10.92-13.594 0-8.226 4.29-13.57 10.89-13.57 4.83 0 8.7 2.906 9.78 7.336h4.26c-1.07-6.75-6.68-11.227-14.04-11.227-9.25 0-15.23 6.844-15.23 17.461 0 10.711 5.91 17.484 15.23 17.484zm67.11-4.359h-16.74v-11.625h15.87v-3.75h-15.87v-10.851h16.74v-3.797h-20.95v33.82h20.95zM602.824 519.998H542.15v-33.77h57.242v-21.523H542.15v-32.286h60.674v-23.1h-88.691v133.872h88.691zm14.031 23.193h30.244l29.502-46.851h.743l29.316 46.851h31.914l-43.232-66.611v-.65l43.789-66.611h-31.265l-28.667 48.242h-.742l-28.389-48.242h-32.934l42.212 66.055v.742zm197.63 0c28.574 0 46.294-14.751 46.294-38.315 0-17.72-13.359-30.987-31.543-32.378v-.743c14.194-2.133 25.142-14.379 25.142-29.038 0-20.503-15.772-33.398-40.914-33.398h-58.261v133.872zM783.22 430.193h23.008c13.081 0 20.596 6.123 20.596 16.885 0 11.318-8.535 17.905-23.472 17.905H783.22zm0 92.124v-38.872h23.472c16.514 0 25.513 6.68 25.513 19.204 0 12.803-8.721 19.668-24.864 19.668zm182.137 20.874h29.78l-46.572-133.872H915.63l-46.479 133.872h28.76l10.205-32.471h47.036zm-34.048-108.267h.649l17.163 54.829h-34.975zm70.621 70.044c.84 25.235 22.08 40.542 54 40.542 33.49 0 53.99-16.606 53.99-42.768 0-20.318-12.34-31.729-40.64-37.388l-14.19-2.876c-15.77-3.154-22.27-8.257-22.27-16.514 0-9.834 9.28-16.328 23.11-16.328 14.1 0 24.02 6.865 24.95 18.277h26.44c-.46-24.585-20.13-40.913-51.39-40.913-29.78 0-51.12 16.235-51.12 40.727 0 19.946 13.08 32.749 39.8 38.037l14.1 2.783c16.79 3.433 23.1 8.443 23.1 17.256 0 9.834-10.21 17.071-25.14 17.071-15.22 0-26.54-6.68-28.3-17.906zm214.79 15.03h-60.67v-33.77h57.24v-21.523h-57.24v-32.286h60.67v-23.1h-88.69v133.872h88.69zm36.49 24.306a14.93 14.93 0 0 0 14.93-14.936c0-8.35-6.68-14.937-14.93-14.937-8.35 0-14.94 6.587-14.94 14.937 0 8.257 6.59 14.936 14.94 14.936zm66.54-1.113V409.319h-28.02v133.872zM1403.36 407c-39.71 0-64.57 26.626-64.57 69.301 0 42.583 24.86 69.209 64.57 69.209 39.61 0 64.57-26.626 64.57-69.209 0-42.675-24.96-69.301-64.57-69.301zm0 23.378c21.89 0 35.9 17.813 35.9 45.923 0 28.018-14.01 45.738-35.9 45.738-21.99 0-36-17.72-36-45.738 0-28.11 14.1-45.923 36-45.923z" fill="#000f97"/><path d="M236.435 469.227l.488.841.967-.102a58.51 58.51 0 0 1 6.197-.326c2.122 0 4.186.109 6.192.326l.97.105.489-.844 7.476-12.889 17.09 5.501-1.494 14.79-.097.954.826.488c3.592 2.122 6.916 4.574 10.03 7.305l.72.632.877-.389 13.606-6.03 10.612 14.593-9.946 11.08-.644.717.385.883a62.439 62.439 0 0 1 3.81 11.81l.203.952.953.202 14.584 3.092v18.03l-14.535 3.144-.95.206-.2.951c-.869 4.126-2.173 8.042-3.81 11.806l-.384.883.644.717 9.946 11.08-10.612 14.593-13.607-6.031-.876-.388-.721.632c-3.113 2.731-6.438 5.183-10.029 7.305l-.829.49.1.957 1.546 14.791-17.145 5.601-7.473-12.884-.488-.841-.967.102a58.496 58.496 0 0 1-6.197.326c-2.094 0-4.153-.055-6.196-.27l-.97-.102-.487.845-7.42 12.881-17.144-5.551 1.494-14.791.097-.955-.826-.487c-3.6-2.128-6.92-4.523-10.018-7.296l-.723-.646-.886.393-13.606 6.03-10.612-14.592 9.946-11.081.652-.726-.4-.89a58.77 58.77 0 0 1-3.858-11.793l-.203-.952-.952-.203-14.53-3.091V523.08l14.535-3.144.95-.205.2-.952c.869-4.126 2.174-8.042 3.81-11.805l.384-.884-.644-.717-9.946-11.08 10.612-14.592 13.607 6.03.886.393.722-.647c3.098-2.772 6.418-5.167 10.018-7.295l.829-.49-.1-.957-1.546-14.791 17.146-5.601zm126.456-48.318l.488.845.97-.104c1.59-.171 3.193-.229 4.879-.229 1.65 0 3.254.114 4.879.288l.973.104.487-.848 5.738-9.973 13.102 4.233-1.18 11.419-.1.971.848.485c2.804 1.602 5.449 3.555 7.875 5.692l.721.636.879-.39 10.511-4.666 8.059 11.082-7.67 8.583-.639.714.38.879c1.27 2.944 2.305 6.052 2.993 9.265l.203.949.95.203 11.263 2.414v13.819l-11.206 2.413-.947.204-.204.948c-.692 3.23-1.669 6.328-2.983 9.242l-.402.892.654.728 7.667 8.525-8.062 11.135-10.508-4.665-.879-.39-.721.636a51.869 51.869 0 0 1-7.894 5.703l-.827.49.099.955 1.18 11.425-13.054 4.284-5.791-9.92-.471-.807-.931.067c-1.668.119-3.275.233-4.933.233-1.685 0-3.289-.058-4.879-.228l-.972-.104-.488.847-5.737 9.973-13.043-4.231 1.18-11.42.1-.972-.848-.484a44.912 44.912 0 0 1-7.86-5.679l-.723-.655-.892.396-10.511 4.666-8.118-11.143 7.67-8.581.638-.715-.379-.879c-1.27-2.944-2.305-6.052-2.993-9.265l-.204-.949-.949-.203-11.263-2.414V463.58l11.263-2.414.949-.203.204-.949c.692-3.23 1.669-6.328 2.983-9.242l.402-.893-.654-.727-7.667-8.525 8.062-11.135 10.508 4.664.892.396.723-.654c2.406-2.177 5.049-4.075 7.879-5.75l.827-.489-.099-.956-1.18-11.425 13.049-4.282zm-7.39 123.527l.484.826.952-.091a38.202 38.202 0 0 1 3.652-.171c1.264 0 2.402.058 3.514.27l1.045.199.534-.921 4.193-7.248 9.31 3.04-.88 8.338-.103.977.854.485c2.087 1.185 4.08 2.662 5.918 4.271l.722.631.877-.39 7.662-3.417 5.751 7.936-5.599 6.272-.655.734.412.894c1.015 2.198 1.753 4.521 2.267 6.918l.203.949.95.204 8.239 1.761v9.786l-8.239 1.762-.926.198-.22.922c-.576 2.419-1.321 4.763-2.287 6.98l-.384.881.64.717 5.599 6.272-5.753 7.939-7.723-3.421-.89-.394-.723.653c-1.752 1.582-3.744 3.007-5.867 4.27l-.826.491.101.956.88 8.337-9.31 3.04-4.193-7.247-.483-.833-.958.091a39.099 39.099 0 0 1-7.304 0l-.958-.091-.482.833-4.193 7.247-9.312-3.04.882-8.398.101-.964-.837-.488c-2.038-1.189-4.036-2.671-5.874-4.279l-.723-.632-.876.391-7.667 3.419-5.802-7.943 5.595-6.268.64-.717-.384-.881c-.975-2.238-1.77-4.572-2.279-6.948l-.204-.949-.95-.203-8.239-1.762v-9.786l8.239-1.762.927-.198.219-.921c.576-2.42 1.321-4.764 2.287-6.981l.386-.885-.646-.718-5.649-6.271 5.804-7.992 7.664 3.417.891.398.725-.655c1.752-1.582 3.744-3.007 5.867-4.27l.826-.491-.101-.956-.88-8.337 9.317-3.042z" stroke="#000f97" stroke-width="3"/><g fill="#000f97"><path d="M360.165 445.17l-6.412 2.634 2.182 5.31 6.411-2.634zm18.568 42.575l-6.412 2.634 2.181 5.309 6.412-2.634z"/><path d="M362.347 478.611c.555 1.281 1.207 2.304 1.957 3.069.739.741 1.537 1.269 2.392 1.585a6.265 6.265 0 0 0 2.612.32 9.133 9.133 0 0 0 2.685-.668 17.139 17.139 0 0 0 2.381-1.196c.758-.485 1.381-1.017 1.869-1.595.513-.587.844-1.231.992-1.93s.049-1.471-.298-2.315a2.94 2.94 0 0 0-1.42-1.549c-.661-.338-1.451-.565-2.369-.681-.903-.151-1.898-.206-2.984-.166l-3.333.15-5.321.184c-1.829-.003-3.561-.191-5.194-.565a13.499 13.499 0 0 1-4.459-1.954c-1.314-.94-2.338-2.303-3.073-4.091s-1.011-3.486-.832-5.098a10.21 10.21 0 0 1 1.581-4.522c.874-1.404 2.068-2.663 3.583-3.779 1.53-1.15 3.287-2.133 5.273-2.949 2.185-.898 4.273-1.465 6.264-1.703s3.83-.108 5.514.39c1.699.462 3.229 1.328 4.592 2.596 1.387 1.258 2.564 2.922 3.53 4.991l-8.677 3.564c-.512-.892-1.081-1.572-1.708-2.04-.613-.502-1.269-.828-1.968-.976a5.242 5.242 0 0 0-2.199-.054 9.79 9.79 0 0 0-2.304.642c-1.713.703-2.901 1.554-3.565 2.552-.649.963-.769 1.941-.361 2.934.255.62.708 1.087 1.358 1.4s1.423.533 2.317.659c.918.116 1.925.166 3.021.151l3.386-.128 5.352-.11c1.854-.007 3.592.164 5.215.512s3.077.956 4.36 1.821c1.299.831 2.275 2.04 2.927 3.629.877 2.135 1.197 4.15.961 6.046a11.44 11.44 0 0 1-1.934 5.146c-1.042 1.56-2.427 2.956-4.155 4.188-1.718 1.257-3.632 2.319-5.742 3.185a20.077 20.077 0 0 1-6.139 1.478c-2.057.149-4.021-.075-5.89-.671-1.855-.63-3.572-1.666-5.15-3.106s-2.894-3.338-3.947-5.69zm-100.688 51.417c3.033.872 5.357 2.342 6.973 4.41 1.613 2.021 2.42 4.525 2.42 7.512 0 2.664-.759 5.007-2.274 7.029-1.467 1.975-3.596 3.514-6.384 4.617-2.741 1.103-5.969 1.654-9.685 1.654h-25.757v-48.584h25.021c5.431 0 9.734 1.148 12.914 3.445 3.229 2.251 4.845 5.307 4.845 9.166 0 2.481-.711 4.686-2.129 6.616-1.418 1.883-3.4 3.262-5.944 4.135zm-21.572-4.273h9.611c2.544 0 4.403-.368 5.578-1.103s1.761-1.906 1.761-3.514c0-1.7-.587-2.941-1.761-3.722s-3.034-1.171-5.578-1.171h-9.611zm10.932 19.916c2.692 0 4.6-.39 5.724-1.172 1.174-.827 1.761-2.159 1.761-3.997s-.587-3.147-1.761-3.928c-1.124-.827-3.032-1.24-5.724-1.24h-10.932v10.337z"/><path d="M238.911 499.191h-11.959v9.717h11.959z"/><path d="M228.959 506.314H217v9.717h11.959zm0 39.481H217v9.716h11.959z"/><path d="M238.911 550.765h-11.959v11.959h11.959zm20.181 0h-10.464v11.959h10.464zm0-51.574h-10.464v9.717h10.464zm118.677 74.37l-14.553 8.335a4.63 4.63 0 0 0-4.431 0l-14.552-8.335c-1.376-.788-3.111-.275-3.875 1.145s-.267 3.211 1.11 4l14.847 8.504c.429 2.269 2.363 3.981 4.685 3.981s4.257-1.713 4.685-3.981l14.847-8.504c1.377-.788 1.873-2.579 1.11-4s-2.497-1.933-3.873-1.145z"/></g></svg>