<?xml version="1.0" encoding="utf-8"?>
<!-- Generator: Adobe Illustrator 19.2.1, SVG Export Plug-In . SVG Version: 6.00 Build 0)  -->
<svg version="1.1" id="Layer_1" xmlns="http://www.w3.org/2000/svg" xmlns:xlink="http://www.w3.org/1999/xlink" x="0px" y="0px"
	 width="50.222px" height="12px" viewBox="0 0 50.222 12" style="enable-background:new 0 0 50.222 12;" xml:space="preserve">
<style type="text/css">
	.st0{fill:#FFB819;}
	.st1{fill:#231F20;}
	.st2{fill:#FFFFFF;}
	.st3{fill:#C11524;}
	.st4{fill-rule:evenodd;clip-rule:evenodd;fill:#006BB1;}
	.st5{fill-rule:evenodd;clip-rule:evenodd;fill:#F37121;}
	.st6{fill:#003887;}
	.st7{fill:#009DDF;}
	.st8{fill:url(#SVGID_1_);}
	.st9{fill:url(#SVGID_2_);}
	.st10{fill:url(#SVGID_3_);}
	.st11{fill:url(#SVGID_4_);}
	.st12{fill:url(#SVGID_5_);}
	.st13{fill:url(#SVGID_6_);}
	.st14{fill:#009BDE;}
	.st15{fill:#022169;}
	.st16{fill:#002F87;}
	.st17{fill:#F5921B;}
	.st18{fill:#0071BB;}
	.st19{fill:#2C9940;}
	.st20{fill:#226DBB;}
	.st21{fill:#D81928;}
	.st22{fill:#FF7404;}
	.st23{fill-rule:evenodd;clip-rule:evenodd;fill:#5269AF;}
	.st24{fill-rule:evenodd;clip-rule:evenodd;fill:#F9913C;}
	.st25{fill:#F14A43;}
	.st26{fill:#F46E40;}
	.st27{fill:#FA983C;}
	.st28{fill-rule:evenodd;clip-rule:evenodd;fill:#1A5EAB;}
	.st29{fill-rule:evenodd;clip-rule:evenodd;fill:#F8883E;}
	.st30{fill:#80726C;}
	.st31{fill:#FCFCFC;}
	.st32{fill:#CF4D16;}
	.st33{fill:#DF6210;}
	.st34{fill:#F14942;}
	.st35{fill-rule:evenodd;clip-rule:evenodd;fill:none;stroke:#FFFFFF;stroke-width:0.0623;}
	.st36{fill:#EB8341;}
	.st37{fill:#35A15B;}
	.st38{fill:#6B787F;}
	.st39{fill:url(#SVGID_7_);}
	.st40{fill:url(#SVGID_8_);}
	.st41{fill:#A40B34;}
	.st42{fill:#7C0023;}
	.st43{fill:url(#SVGID_9_);}
	.st44{fill:#6D8DA6;}
	.st45{fill:#242021;}
	.st46{fill:#231300;}
	.st47{fill:#5EBB57;}
	.st48{fill:#B04A4A;}
	.st49{fill:#E05145;}
	.st50{fill:#CF0A2C;}
	.st51{fill:#002856;}
	.st52{fill:#007078;}
</style>
<g>
	<path class="st32" d="M49.632,0.889h-0.766c-0.49,0-0.855,0.325-1.137,0.721l-0.758,1.066L46.97,2.677l0,0l-1.642,2.307
		l-1.424-1.999c-0.007-0.01-0.01-0.019-0.017-0.03l-0.959-1.343c-0.283-0.396-0.651-0.72-1.141-0.72h-0.711
		c-0.49,0-0.808,0.324-0.524,0.719l0.965,1.346c0.002,0.003,0.005,0.005,0.007,0.008L44.27,6.79v2.669v0.975v0.686
		c0,0.485,0.402,0.881,0.892,0.88l0.332-0.001c0.491,0,0.892-0.398,0.892-0.883v-0.683V9.459V6.786l2.926-4.073
		c0.009-0.012,0.021-0.023,0.03-0.035l0.765-1.069C50.39,1.213,50.123,0.889,49.632,0.889z"/>
	<path class="st33" d="M17.617,6.095l2.756-2.617c0.013-0.011,1.948-1.849,1.948-1.849c0.348-0.331-0.026-0.74-0.504-0.74H20.77
		c-0.477,0-0.718,0.272-1.066,0.604l-2.04,1.951c-0.002,0.002-0.003,0.003-0.005,0.006l-1.313,1.255V3.281h-0.006
		c0.001-0.019,0.006-0.038,0.006-0.057V1.771c0-0.485-0.39-0.882-0.867-0.882h-0.39c-0.477,0-0.867,0.397-0.867,0.882v1.454
		c0,0.019,0.004,0.038,0.006,0.057h-0.006v6.166v0.059v1.611c0,0.485,0.39,0.882,0.867,0.882h0.39c0.477,0,0.867-0.397,0.867-0.882
		V9.507V9.447V7.609l1.87,1.898h0.002l1.841,1.87C20.398,11.72,20.63,12,21.107,12h1.049c0.477,0,0.68-0.574,0.343-0.916
		L17.617,6.095z"/>
	<path class="st32" d="M42.49,10.9h0.005l-3.58-8.78h-0.002l-0.168-0.412c-0.183-0.451-0.737-0.819-1.23-0.819H37.16
		c-0.493,0-1.046,0.369-1.228,0.82L35.766,2.12H35.76l-3.566,8.734h0.001l-0.135,0.328C31.876,11.632,32.129,12,32.622,12h0.798
		c0.493,0,0.725-0.372,0.896-0.827l0.12-0.319h0.005l0.721-1.891h4.359l0.059,0.152l0.044,0.09l0.643,1.695h0.002l0.103,0.273
		C40.545,11.628,40.846,12,41.34,12h0.706c0.493,0,0.746-0.368,0.56-0.817L42.49,10.9z M38.365,7.183h-2.053
		c-0.247,0-0.372-0.184-0.279-0.408l1.134-2.742c0.093-0.225,0.245-0.225,0.339,0l1.139,2.743
		C38.737,6.999,38.612,7.183,38.365,7.183z"/>
	<path class="st32" d="M33.506,5.812c0.182-0.433,0.272-0.929,0.272-1.484c0-0.55-0.09-1.043-0.272-1.474
		c-0.181-0.431-0.456-0.799-0.819-1.094c-0.721-0.586-1.772-0.872-3.108-0.872h-0.575h-0.402h-1.914c-0.5,0-0.91,0.397-0.91,0.882
		v1.203v0.75v5.794v0.175v1.426c0,0.485,0.41,0.882,0.91,0.882h0.356c0.5,0,0.91-0.397,0.91-0.882V9.692V9.517V7.774h1.625
		c1.336,0,2.386-0.284,3.107-0.868C33.049,6.613,33.324,6.244,33.506,5.812z M31.394,5.057c-0.083,0.206-0.203,0.377-0.364,0.518
		l0.002-0.002L31.03,5.575c-0.323,0.281-0.804,0.434-1.451,0.434h-0.84h-0.049h-0.281c-0.25,0-0.455-0.198-0.455-0.441V3.095
		c0-0.242,0.205-0.441,0.455-0.441h0.281h0.049h0.84c0.648,0,1.129,0.153,1.451,0.435c0.161,0.141,0.281,0.311,0.364,0.517
		c0.082,0.206,0.124,0.446,0.124,0.722C31.518,4.607,31.475,4.849,31.394,5.057z"/>
	<path class="st33" d="M11.827,1.649C10.819,0.554,9.447-0.003,7.786,0C6.117-0.003,4.742,0.554,3.733,1.649
		C2.989,2.452,2.519,3.469,2.326,4.67v0.003l-0.09,0.946v0.006c-0.006,0.12-0.013,0.243-0.013,0.378c0,0.199,0.009,0.392,0.021,0.58
		v0.006l0.123,0.946v0.003c0.213,1.11,0.665,2.059,1.367,2.818c1.01,1.09,2.384,1.647,4.053,1.644
		c1.661,0.003,3.033-0.554,4.041-1.649c1.002-1.087,1.506-2.558,1.506-4.348C13.333,4.21,12.831,2.736,11.827,1.649z M10.182,9.094
		c-0.299,0.369-0.64,0.638-1.035,0.817c-0.395,0.179-0.845,0.27-1.361,0.27c-0.517,0-0.968-0.091-1.364-0.27
		C6.024,9.732,5.681,9.46,5.38,9.091C5.026,8.66,4.776,8.121,4.626,7.485L4.487,6.559C4.482,6.504,4.479,6.387,4.478,6.261
		C4.475,6.129,4.473,5.982,4.473,5.862c0-0.103,0.002-0.188,0.003-0.223l0.108-0.926C4.725,3.99,4.99,3.384,5.38,2.906L5.378,2.909
		H5.38c0.301-0.372,0.644-0.642,1.042-0.82c0.396-0.179,0.847-0.27,1.364-0.27c0.516,0,0.967,0.091,1.361,0.27
		c0.395,0.178,0.736,0.448,1.035,0.817c0.597,0.738,0.907,1.775,0.907,3.097C11.089,7.321,10.779,8.355,10.182,9.094z"/>
	<polygon class="st33" points="7.757,5.333 0.444,5.333 1.132,4 8.444,4 	"/>
	<polygon class="st33" points="6.386,8 0,8 0.725,6.667 7.111,6.667 	"/>
</g>
</svg>
