<?xml version="1.0" encoding="UTF-8"?>
<svg enable-background="new 0 0 50.222 12" version="1.1" viewBox="0 0 50.222 12" xml:space="preserve" xmlns="http://www.w3.org/2000/svg">
<style type="text/css">
	.st0{fill:#FFB819;}
	.st1{fill:#231F20;}
	.st2{fill:#FFFFFF;}
	.st3{fill:#C11524;}
	.st4{fill-rule:evenodd;clip-rule:evenodd;fill:#006BB1;}
	.st5{fill-rule:evenodd;clip-rule:evenodd;fill:#F37121;}
	.st6{fill:#003887;}
	.st7{fill:#009DDF;}
	.st8{fill:url(#SVGID_1_);}
	.st9{fill:url(#SVGID_2_);}
	.st10{fill:url(#SVGID_3_);}
	.st11{fill:url(#SVGID_4_);}
	.st12{fill:url(#SVGID_5_);}
	.st13{fill:url(#SVGID_6_);}
	.st14{fill:#009BDE;}
	.st15{fill:#022169;}
	.st16{fill:#002F87;}
	.st17{fill:#F5921B;}
	.st18{fill:#0071BB;}
	.st19{fill:#2C9940;}
	.st20{fill:#226DBB;}
	.st21{fill:#D81928;}
	.st22{fill:#FF7404;}
	.st23{fill-rule:evenodd;clip-rule:evenodd;fill:#5269AF;}
	.st24{fill-rule:evenodd;clip-rule:evenodd;fill:#F9913C;}
	.st25{fill:#F14A43;}
	.st26{fill:#F46E40;}
	.st27{fill:#FA983C;}
	.st28{fill-rule:evenodd;clip-rule:evenodd;fill:#1A5EAB;}
	.st29{fill-rule:evenodd;clip-rule:evenodd;fill:#F8883E;}
	.st30{fill:#80726C;}
	.st31{fill:#FCFCFC;}
	.st32{fill:#CF4D16;}
	.st33{fill:#DF6210;}
	.st34{fill:#F14942;}
	.st35{fill-rule:evenodd;clip-rule:evenodd;fill:none;stroke:#FFFFFF;stroke-width:0.0623;}
	.st36{fill:#EB8341;}
	.st37{fill:#35A15B;}
	.st38{fill:#6B787F;}
	.st39{fill:url(#SVGID_7_);}
	.st40{fill:url(#SVGID_8_);}
	.st41{fill:#A40B34;}
	.st42{fill:#7C0023;}
	.st43{fill:url(#SVGID_9_);}
	.st44{fill:#6D8DA6;}
	.st45{fill:#242021;}
	.st46{fill:#231300;}
	.st47{fill:#5EBB57;}
	.st48{fill:#B04A4A;}
	.st49{fill:#E05145;}
	.st50{fill:#CF0A2C;}
	.st51{fill:#002856;}
	.st52{fill:#007078;}
</style>

	<path class="st32" d="m49.632 0.889h-0.766c-0.49 0-0.855 0.325-1.137 0.721l-0.758 1.066-1e-3 1e-3 -1.642 2.307-1.424-1.999c-7e-3 -0.01-0.01-0.019-0.017-0.03l-0.959-1.343c-0.283-0.396-0.651-0.72-1.141-0.72h-0.711c-0.49 0-0.808 0.324-0.524 0.719l0.965 1.346c2e-3 3e-3 5e-3 5e-3 7e-3 8e-3l2.746 3.825v4.33c0 0.485 0.402 0.881 0.892 0.88l0.332-1e-3c0.491 0 0.892-0.398 0.892-0.883v-4.33l2.926-4.073c9e-3 -0.012 0.021-0.023 0.03-0.035l0.765-1.069c0.283-0.396 0.016-0.72-0.475-0.72z"/>
	<path class="st33" d="m17.617 6.095 2.756-2.617c0.013-0.011 1.948-1.849 1.948-1.849 0.348-0.331-0.026-0.74-0.504-0.74h-1.047c-0.477 0-0.718 0.272-1.066 0.604l-2.04 1.951c-2e-3 2e-3 -3e-3 3e-3 -5e-3 6e-3l-1.313 1.255v-1.424h-6e-3c1e-3 -0.019 6e-3 -0.038 6e-3 -0.057v-1.453c0-0.485-0.39-0.882-0.867-0.882h-0.39c-0.477 0-0.867 0.397-0.867 0.882v1.454c0 0.019 4e-3 0.038 6e-3 0.057h-6e-3v7.836c0 0.485 0.39 0.882 0.867 0.882h0.39c0.477 0 0.867-0.397 0.867-0.882v-3.509l1.87 1.898h2e-3l1.841 1.87c0.339 0.343 0.571 0.623 1.048 0.623h1.049c0.477 0 0.68-0.574 0.343-0.916l-4.882-4.989z"/>
	<path class="st32" d="m42.49 10.9h5e-3l-3.58-8.78h-2e-3l-0.168-0.412c-0.183-0.451-0.737-0.819-1.23-0.819h-0.355c-0.493 0-1.046 0.369-1.228 0.82l-0.166 0.411h-6e-3l-3.566 8.734h1e-3l-0.135 0.328c-0.184 0.45 0.069 0.818 0.562 0.818h0.798c0.493 0 0.725-0.372 0.896-0.827l0.12-0.319h5e-3l0.721-1.891h4.359l0.059 0.152 0.044 0.09 0.643 1.695h2e-3l0.103 0.273c0.173 0.455 0.474 0.827 0.968 0.827h0.706c0.493 0 0.746-0.368 0.56-0.817l-0.116-0.283zm-4.125-3.717h-2.053c-0.247 0-0.372-0.184-0.279-0.408l1.134-2.742c0.093-0.225 0.245-0.225 0.339 0l1.139 2.743c0.092 0.223-0.033 0.407-0.28 0.407z"/>
	<path class="st32" d="m33.506 5.812c0.182-0.433 0.272-0.929 0.272-1.484 0-0.55-0.09-1.043-0.272-1.474-0.181-0.431-0.456-0.799-0.819-1.094-0.721-0.586-1.772-0.872-3.108-0.872h-2.891c-0.5 0-0.91 0.397-0.91 0.882v9.348c0 0.485 0.41 0.882 0.91 0.882h0.356c0.5 0 0.91-0.397 0.91-0.882v-3.344h1.625c1.336 0 2.386-0.284 3.107-0.868 0.363-0.293 0.638-0.662 0.82-1.094zm-2.112-0.755c-0.083 0.206-0.203 0.377-0.364 0.518l2e-3 -2e-3 -2e-3 2e-3c-0.323 0.281-0.804 0.434-1.451 0.434h-1.17c-0.25 0-0.455-0.198-0.455-0.441v-2.473c0-0.242 0.205-0.441 0.455-0.441h1.17c0.648 0 1.129 0.153 1.451 0.435 0.161 0.141 0.281 0.311 0.364 0.517 0.082 0.206 0.124 0.446 0.124 0.722 0 0.279-0.043 0.521-0.124 0.729z"/>
	<path class="st33" d="m11.827 1.649c-1.008-1.095-2.38-1.652-4.041-1.649-1.669-3e-3 -3.044 0.554-4.053 1.649-0.744 0.803-1.214 1.82-1.407 3.021v3e-3l-0.09 0.946v6e-3c-6e-3 0.12-0.013 0.243-0.013 0.378 0 0.199 9e-3 0.392 0.021 0.58v6e-3l0.123 0.946v3e-3c0.213 1.11 0.665 2.059 1.367 2.818 1.01 1.09 2.384 1.647 4.053 1.644 1.661 3e-3 3.033-0.554 4.041-1.649 1.002-1.087 1.506-2.558 1.506-4.348-1e-3 -1.793-0.503-3.267-1.507-4.354zm-1.645 7.445c-0.299 0.369-0.64 0.638-1.035 0.817s-0.845 0.27-1.361 0.27c-0.517 0-0.968-0.091-1.364-0.27-0.398-0.179-0.741-0.451-1.042-0.82-0.354-0.431-0.604-0.97-0.754-1.606l-0.139-0.926c-5e-3 -0.055-8e-3 -0.172-9e-3 -0.298-3e-3 -0.132-5e-3 -0.279-5e-3 -0.399 0-0.103 2e-3 -0.188 3e-3 -0.223l0.108-0.926c0.141-0.723 0.406-1.329 0.796-1.807l-2e-3 3e-3h2e-3c0.301-0.372 0.644-0.642 1.042-0.82 0.396-0.179 0.847-0.27 1.364-0.27 0.516 0 0.967 0.091 1.361 0.27 0.395 0.178 0.736 0.448 1.035 0.817 0.597 0.738 0.907 1.775 0.907 3.097 0 1.318-0.31 2.352-0.907 3.091z"/>
	<polygon class="st33" points="7.757 5.333 0.444 5.333 1.132 4 8.444 4"/>
	<polygon class="st33" points="6.386 8 0 8 0.725 6.667 7.111 6.667"/>

</svg>
