<?xml version="1.0" encoding="UTF-8"?>
<svg class="icon" width="512" height="511.96" version="1.1" viewBox="0 0 512 1023.9184" xmlns="http://www.w3.org/2000/svg" xmlns:cc="http://creativecommons.org/ns#" xmlns:dc="http://purl.org/dc/elements/1.1/" xmlns:rdf="http://www.w3.org/1999/02/22-rdf-syntax-ns#">
<metadata>
<rdf:RDF>
<cc:Work rdf:about="">
<dc:format>image/svg+xml</dc:format>
<dc:type rdf:resource="http://purl.org/dc/dcmitype/StillImage"/>
<dc:title/>
</cc:Work>
</rdf:RDF>
</metadata>
<path d="m475.44 47.646a519.94 519.94 0 0 0 -434.86 0c-9.344 3.968-15.957 13.227-15.957 22.486 0 9.301 5.29 18.56 13.269 21.205 83.797 31.787 159.57 111.28 159.57 205.36l1.366 723.29a456.24 456.24 0 0 0 119.68 0v-723.29c0-94.08 75.818-173.57 158.29-205.36 9.259-2.645 14.592-11.947 14.592-21.205 0-9.259-6.656-18.518-15.957-22.486zm-450.82 137.77v782.93c30.592 15.83 63.829 27.776 98.389 37.035v-662.36c0-72.832-41.216-133.8-98.39-157.61zm368.34 157.57v662.36c34.56-9.258 67.797-21.205 98.39-37.077v-782.89c-57.174 23.893-98.39 84.82-98.39 157.65zm-648.96 168.32c0 165.55 79.787 312.62 200.79 406.66v-365.65a33.408 33.408 0 0 0 -23.894 -10.582c-29.27 1.323-53.205 23.894-61.184 52.992-1.365 4.011-5.333 7.979-9.344 7.979-3.968 0-6.656-3.968-7.936-5.29-18.645-22.529-29.27-53.035-29.27-86.102 0-33.11 10.625-63.573 29.27-86.187 1.28-1.28 3.968-5.248 7.936-5.248 4.01 0 7.979 3.968 9.344 7.936 7.979 30.507 31.915 51.67 61.184 54.358a41.259 41.259 0 0 0 23.893 -11.947v-364.33c-121 92.756-200.79 239.78-200.79 405.42zm990.76 30.421c-29.27 1.366-53.206 23.894-62.507 52.992-1.323 3.968-3.968 7.979-7.979 7.979s-7.978-4.01-7.978-5.333a135.72 135.72 0 0 1 -30.592 -86.059c0-33.152 11.946-63.573 30.592-86.144 0-1.28 3.968-5.29 7.978-5.29s6.656 3.967 7.979 7.978c9.301 30.421 33.28 51.627 62.507 54.272 14.634-1.28 26.581-11.904 33.237-25.173-14.635-141.74-87.765-266.24-194.13-349.7v808.06c101.03-79.488 172.88-196.05 191.49-328.53 1.28-7.936 2.645-14.549 2.645-19.882-6.656-14.55-18.603-25.174-33.237-25.174z" fill="#d71920"/>
</svg>
