<?xml version="1.0" encoding="UTF-8"?>
<svg width="152.36" height="125.99" version="1.1" viewBox="0 0 152.35668 125.98742" xmlns="http://www.w3.org/2000/svg" xmlns:cc="http://creativecommons.org/ns#" xmlns:dc="http://purl.org/dc/elements/1.1/" xmlns:rdf="http://www.w3.org/1999/02/22-rdf-syntax-ns#">
<metadata>
<rdf:RDF>
<cc:Work rdf:about="">
<dc:format>image/svg+xml</dc:format>
<dc:type rdf:resource="http://purl.org/dc/dcmitype/StillImage"/>
<dc:title>Asset 1</dc:title>
</cc:Work>
</rdf:RDF>
</metadata>
<defs>
<style>.cls-1{fill:#f16522;}.cls-1,.cls-3{fill-rule:evenodd;}.cls-2{fill:none;stroke:#fff;stroke-width:0.61px;}.cls-3{fill:#231f20;}</style>
</defs>
<title>Asset 1</title>
<path class="cls-1" d="m83.592 125.68h-60.79v-1.63l44.77-1.75c8.49-0.33 16.74-0.77 24.73-3.47 16.37-5.42 29.4-16.49 33.25-30.18 4.11-14.68-5.35-29-23.17-30.2 15.09-4.39 28-13.9 31.4-26.12 4.45-15.89-3.6-23.9-17.2-26.85 22.62-0.35 40.31 7.2 34.29 28.68-3.43 12.22-16.6 21.54-31.62 25.6 17.62 1.3 27.29 18 22.62 32.47-4.87 15.12-17.15 24.52-33.52 29.93-8 2.71-16.24 3.14-24.73 3.48" fill="#f16522" fill-rule="evenodd"/>
<path class="cls-2" d="m83.592 125.68h-60.79v-1.63l44.77-1.75c8.49-0.33 16.74-0.77 24.73-3.47 16.37-5.42 29.4-16.49 33.25-30.18 4.11-14.68-5.35-29-23.17-30.2 15.09-4.39 28-13.9 31.4-26.12 4.45-15.89-3.6-23.9-17.2-26.85 22.62-0.35 40.31 7.2 34.29 28.68-3.43 12.22-16.6 21.54-31.62 25.6 17.62 1.3 27.29 18 22.62 32.47-4.87 15.12-17.15 24.52-33.52 29.93-8 2.71-16.24 3.14-24.73 3.48" fill="none" stroke="#fff" stroke-width=".61px"/>
<path class="cls-1" d="m51.682 118.08-28.69 1.34a11.48 11.48 0 0 0 -0.12 -1.66l72.49-20.76v-1.17l-73.46 17.57a10.51 10.51 0 0 0 -0.59 -1.53l77.19-42.56-0.51-1.17-79 40.08a9.52 9.52 0 0 0 -0.95 -1.31l91.84-85.91-0.8-1-94.46 84a13.91 13.91 0 0 0 -1.16 -0.86l67-97-1.19-0.32-69.83 95.54q-0.57-0.19-1.17-0.36l38.36-93.87-1-0.13-43.27 93.18h-1.6-0.36l27.86-99.86 52.05 0.16c24.62-1.39 44.07 5.2 37.67 28-3.43 12.24-16.31 21.73-31.31 25.8l-0.09 0.32c17.82 1.24 27.86 15.49 23.75 30.16-3.84 13.69-17.56 24.4-33.92 29.82-8 2.71-16.24 3.15-24.73 3.47" fill="#f16522" fill-rule="evenodd"/>
<path class="cls-2" d="m51.682 118.08-28.69 1.34a11.48 11.48 0 0 0 -0.12 -1.66l72.49-20.76v-1.17l-73.46 17.57a10.51 10.51 0 0 0 -0.59 -1.53l77.19-42.56-0.51-1.17-79 40.08a9.52 9.52 0 0 0 -0.95 -1.31l91.84-85.91-0.8-1-94.46 84a13.91 13.91 0 0 0 -1.16 -0.86l67-97-1.19-0.32-69.83 95.54q-0.57-0.19-1.17-0.36l38.36-93.87-1-0.13-43.27 93.18h-1.6-0.36l27.86-99.86 52.05 0.16c24.62-1.39 44.07 5.2 37.67 28-3.43 12.24-16.31 21.73-31.31 25.8l-0.09 0.32c17.82 1.24 27.86 15.49 23.75 30.16-3.84 13.69-17.56 24.4-33.92 29.82-8 2.71-16.24 3.15-24.73 3.47" fill="none" stroke="#fff" stroke-width=".61px"/>
</svg>
