<svg xmlns="http://www.w3.org/2000/svg" width="345.369" height="287.796" fill="#f16522" fill-rule="evenodd" xmlns:v="https://vecta.io/nano"><path d="M189.442 287.681l-138.439.115 1-4.879 100.88-2.89c19.339-.734 38.126-1.755 56.315-7.956 37.271-12.44 66.973-37.819 75.714-69.244 9.368-33.679-12.178-66.452-52.768-69.279 34.387-10.065 63.708-31.863 71.514-59.922 10.137-36.434-8.202-54.846-39.178-61.599 51.519-.802 91.81 16.511 78.095 65.801-7.805 28.061-37.813 49.4-71.998 58.72 40.126 2.989 62.136 41.214 51.498 74.518-11.08 34.679-39.053 56.22-76.325 68.66-18.182 6.201-36.969 7.222-56.309 7.957m-72.663-17.435l-64.968 3.227c-.026-1.661.063-1.28-.126-2.889l164.564-48.676.547-5.947-168.11 43.457c-.52-1.593-.567-1.156-1.26-2.656l175.961-97.424-1.781-4.863-179.783 92.95c-1.084-1.535-.609-.885-1.874-2.27L249.126 49.829l-2.562-5.291L32.252 238.246l-2.754-1.88L182.845 15.629l-6.457.052L19.443 231.767l-2.754-.817 91.128-215.654h-5.795L3.972 229.305c-1.208-.011-3.972.011-3.972.011L63.453.117 181.97.482c56.063-3.214 100.344 11.918 85.78 64.296-7.805 28.056-37.125 49.852-71.305 59.173l-.208.744c40.589 2.833 63.457 35.518 54.096 69.191-8.748 31.42-39.979 55.966-77.251 68.405-18.189 6.202-36.971 7.222-56.304 7.957"/></svg>