<?xml version="1.0" encoding="UTF-8"?>
<svg width="495.69" height="167.62" version="1.1" viewBox="0 0 495.69319 167.62094" xmlns="http://www.w3.org/2000/svg" xmlns:cc="http://creativecommons.org/ns#" xmlns:dc="http://purl.org/dc/elements/1.1/" xmlns:rdf="http://www.w3.org/1999/02/22-rdf-syntax-ns#">
<metadata>
<rdf:RDF>
<cc:Work rdf:about="">
<dc:format>image/svg+xml</dc:format>
<dc:type rdf:resource="http://purl.org/dc/dcmitype/StillImage"/>
<dc:title>Asset 1</dc:title>
</cc:Work>
</rdf:RDF>
</metadata>
<defs>
<style>.cls-1{fill:#f16522;}.cls-1,.cls-3{fill-rule:evenodd;}.cls-2{fill:none;stroke:#fff;stroke-width:0.61px;}.cls-3{fill:#231f20;}</style>
</defs>
<title>Asset 1</title>
<g transform="translate(-.0082603 .0024234)" data-name="Layer 2">
<g data-name="Layer 1">
<path class="cls-1" d="m383.4 49.73c-2.67 0.06-15.61 0.41-16.87-0.41-3.66-2.38 3-9.28 3.28-12.08-2.23 0.59-7.6 7.5-8.95 9.93-0.84 1.49-3.44 10.72-4 13.5l0.09 1 135.14 0.11 3-11c0.76-2.76 0-10.27-1.3-12.17-0.83 0.26-4.19 4.28-4.24 4.36-0.62 1.16 1.55 4.73 1.56 6.67h-36.83c-0.86-4-0.23-7.36-2.08-11-0.29 0.48-1.69 1.81-2.12 2.32a14.37 14.37 0 0 0 -2.18 2.67c0.66 1.75 1.91 3.68 1.78 6h-59.4c-0.22-2 5.47-19.79 5.75-22.77-1.36 0.2-4.59 2-6.16 2.73-1.75 0.82-1.63 2.73-2.62 6.23-0.68 2.38-3 12.48-3.85 13.8" fill="#f16522" fill-rule="evenodd"/>
<path class="cls-2" d="m383.4 49.73c-2.67 0.06-15.61 0.41-16.87-0.41-3.66-2.38 3-9.28 3.28-12.08-2.23 0.59-7.6 7.5-8.95 9.93-0.84 1.49-3.44 10.72-4 13.5l0.09 1 135.14 0.11 3-11c0.76-2.76 0-10.27-1.3-12.17-0.83 0.26-4.19 4.28-4.24 4.36-0.62 1.16 1.55 4.73 1.56 6.67h-36.83c-0.86-4-0.23-7.36-2.08-11-0.29 0.48-1.69 1.81-2.12 2.32a14.37 14.37 0 0 0 -2.18 2.67c0.66 1.75 1.91 3.68 1.78 6h-59.4c-0.22-2 5.47-19.79 5.75-22.77-1.36 0.2-4.59 2-6.16 2.73-1.75 0.82-1.63 2.73-2.62 6.23-0.68 2.38-3 12.48-3.85 13.8" fill="none" stroke="#fff" stroke-width=".61px"/>
<path class="cls-1" d="m338.63 49.74h-59.73c-0.64-1.52-1.16-3-1.66-4.55a43.53 43.53 0 0 0 -1.45 -5.07l-9.72 10.63c0.28 1.64 1.92 3.32 1.87 7.68-0.06 5.36-2.95 9.29-7.63 11.53-1.32 0.63-5.66 2.59-6.34 3.35 2.12 1.26 15.91 1.77 22-11.42 13.55-0.34 30.23-0.06 44.12 0h19.45c0.48-0.6 0.33-0.41 0.57-1.19l2.57-9.79c0.89-3.3 0-9.49-1.32-12.15-0.62 0.16-0.69 0.37-1.14 0.87l-3.03 3.37c-0.63 1.24 1.57 4.71 1.44 6.72" fill="#f16522" fill-rule="evenodd"/>
<path class="cls-2" d="m338.63 49.74h-59.73c-0.64-1.52-1.16-3-1.66-4.55a43.53 43.53 0 0 0 -1.45 -5.07l-9.72 10.63c0.28 1.64 1.92 3.32 1.87 7.68-0.06 5.36-2.95 9.29-7.63 11.53-1.32 0.63-5.66 2.59-6.34 3.35 2.12 1.26 15.91 1.77 22-11.42 13.55-0.34 30.23-0.06 44.12 0h19.45c0.48-0.6 0.33-0.41 0.57-1.19l2.57-9.79c0.89-3.3 0-9.49-1.32-12.15-0.62 0.16-0.69 0.37-1.14 0.87l-3.03 3.37c-0.63 1.24 1.57 4.71 1.44 6.72" fill="none" stroke="#fff" stroke-width=".61px"/>
<path class="cls-1" d="m232.52 61.7 12.6 0.14c0 2.68-3.67 5.45-5.5 6.63-1.18 0.77-2.58 1.55-3.85 2.22l-4 2.12c4.74 1.88 16.81-2.22 20.76-7.08 2.15-2.64 2.71-6.25 3.77-10.23 0.87-3.28 2.85-8.36 1.66-11.94-2.76-8.28-11.48-7.66-17.72-2.12-3.25 2.88-3.77 4.59-5.06 9.15l-2.2 8.3a6.27 6.27 0 0 0 -0.54 2.66zm8.32-12.05c-0.51-2.48 2.79-5.48 4.92-6 3.89-0.93 4.81 3.14 3.59 6.07h-3.25z" fill="#f16522" fill-rule="evenodd"/>
<path class="cls-2" d="m232.52 61.7 12.6 0.14c0 2.68-3.67 5.45-5.5 6.63-1.18 0.77-2.58 1.55-3.85 2.22l-4 2.12c4.74 1.88 16.81-2.22 20.76-7.08 2.15-2.64 2.71-6.25 3.77-10.23 0.87-3.28 2.85-8.36 1.66-11.94-2.76-8.28-11.48-7.66-17.72-2.12-3.25 2.88-3.77 4.59-5.06 9.15l-2.2 8.3a6.27 6.27 0 0 0 -0.54 2.66zm8.32-12.05c-0.51-2.48 2.79-5.48 4.92-6 3.89-0.93 4.81 3.14 3.59 6.07h-3.25z" fill="none" stroke="#fff" stroke-width=".61px"/>
<path class="cls-1" d="m225.4 49.7c-1.19 0-11.42-0.21-12 0.21a99.76 99.76 0 0 0 -3.28 11.82c4.46 0.24 11 0.08 15.56 0.08 2.58 0 1.9 0.23 2.53-2.07l3-11.19c0.57-3.35-1.21-12.61-4.33-14.27-0.77 0.46-1.93 2.33-2.55 3.2s-2.29 2.24-1.55 3.57c1.35 2.38 3.53 5 2.62 8.65" fill="#f16522" fill-rule="evenodd"/>
<path class="cls-2" d="m225.4 49.7c-1.19 0-11.42-0.21-12 0.21a99.76 99.76 0 0 0 -3.28 11.82c4.46 0.24 11 0.08 15.56 0.08 2.58 0 1.9 0.23 2.53-2.07l3-11.19c0.57-3.35-1.21-12.61-4.33-14.27-0.77 0.46-1.93 2.33-2.55 3.2s-2.29 2.24-1.55 3.57c1.35 2.38 3.53 5 2.62 8.65" fill="none" stroke="#fff" stroke-width=".61px"/>
<path class="cls-1" d="m198.6 61.77h4.38c2 0 1.68 0.48 2.61-3.16l3.7-13.78c0.87-3.15 1.6-6 2.47-9.19 0.5-1.83 2.38-7.94 2.37-9.32-1.14 0.69-2.77 1.36-4.08 2.06-0.86 0.45-1.34 0.68-2.19 1.1-1.05 0.52-1 0.8-1.31 1.92-0.88 3.34-1.92 6.82-2.74 10.06-0.71 2.82-5.37 18.89-5.21 20.26" fill="#f16522" fill-rule="evenodd"/>
<path class="cls-2" d="m198.6 61.77h4.38c2 0 1.68 0.48 2.61-3.16l3.7-13.78c0.87-3.15 1.6-6 2.47-9.19 0.5-1.83 2.38-7.94 2.37-9.32-1.14 0.69-2.77 1.36-4.08 2.06-0.86 0.45-1.34 0.68-2.19 1.1-1.05 0.52-1 0.8-1.31 1.92-0.88 3.34-1.92 6.82-2.74 10.06-0.71 2.82-5.37 18.89-5.21 20.26" fill="none" stroke="#fff" stroke-width=".61px"/>
<path class="cls-1" d="m373.94 42.11-2.24 1.07c0.78 0.87 1.77 2.18 3.1 1.83 1.15-0.29 2.66-0.93 3.85-1.32s2.92-0.6 3.5-1.66a10 10 0 0 0 1.2 -3.87c-1.87 0.76-4.16 2.61-6.37 1.71-0.62-1.51 0.24-3.16 2.1-2.77 1.21 0.25 1 0.69 2-0.08a16.83 16.83 0 0 0 1.56 -1.42c-1.86-3.24-7.67-1.33-8.93 2.48-0.77 2.33-0.25 2.22 0.24 4" fill="#f16522" fill-rule="evenodd"/>
<path class="cls-2" d="m373.94 42.11-2.24 1.07c0.78 0.87 1.77 2.18 3.1 1.83 1.15-0.29 2.66-0.93 3.85-1.32s2.92-0.6 3.5-1.66a10 10 0 0 0 1.2 -3.87c-1.87 0.76-4.16 2.61-6.37 1.71-0.62-1.51 0.24-3.16 2.1-2.77 1.21 0.25 1 0.69 2-0.08a16.83 16.83 0 0 0 1.56 -1.42c-1.86-3.24-7.67-1.33-8.93 2.48-0.77 2.33-0.25 2.22 0.24 4" fill="none" stroke="#fff" stroke-width=".61px"/>
<path class="cls-1" d="m327.64 73.8c0.88-0.2 4.68-3.27 5.37-4a20.16 20.16 0 0 0 -3 -4.34 41.6 41.6 0 0 0 -4.55 3.54c-1.23 1-0.71 1.32 0.24 2.43a23.18 23.18 0 0 0 1.94 2.34" fill="#f16522" fill-rule="evenodd"/>
<path class="cls-2" d="m327.64 73.8c0.88-0.2 4.68-3.27 5.37-4a20.16 20.16 0 0 0 -3 -4.34 41.6 41.6 0 0 0 -4.55 3.54c-1.23 1-0.71 1.32 0.24 2.43a23.18 23.18 0 0 0 1.94 2.34" fill="none" stroke="#fff" stroke-width=".61px"/>
<path class="cls-1" d="m449.21 30.25a14.32 14.32 0 0 0 3.31 4.13c0.78-0.6 4.59-3.58 4.94-4.36a16.28 16.28 0 0 0 -2.83 -4.12c-0.85 0.59-4.95 3.56-5.42 4.35" fill="#f16522" fill-rule="evenodd"/>
<path class="cls-2" d="m449.21 30.25a14.32 14.32 0 0 0 3.31 4.13c0.78-0.6 4.59-3.58 4.94-4.36a16.28 16.28 0 0 0 -2.83 -4.12c-0.85 0.59-4.95 3.56-5.42 4.35" fill="none" stroke="#fff" stroke-width=".61px"/>
<path class="cls-1" d="m477.06 69.79a11.52 11.52 0 0 0 3.11 4l5.21-4a18.23 18.23 0 0 0 -3.1 -4.4 51.73 51.73 0 0 0 -5.22 4.34" fill="#f16522" fill-rule="evenodd"/>
<path class="cls-2" d="m477.06 69.79a11.52 11.52 0 0 0 3.11 4l5.21-4a18.23 18.23 0 0 0 -3.1 -4.4 51.73 51.73 0 0 0 -5.22 4.34" fill="none" stroke="#fff" stroke-width=".61px"/>
<path class="cls-1" d="m83.6 125.68h-60.79v-1.63l44.77-1.75c8.49-0.33 16.74-0.77 24.73-3.47 16.37-5.42 29.4-16.49 33.25-30.18 4.11-14.68-5.35-29-23.17-30.2 15.09-4.39 28-13.9 31.4-26.12 4.45-15.89-3.6-23.9-17.2-26.85 22.62-0.35 40.31 7.2 34.29 28.68-3.43 12.22-16.6 21.54-31.62 25.6 17.62 1.3 27.29 18 22.62 32.47-4.87 15.12-17.15 24.52-33.52 29.93-8 2.71-16.24 3.14-24.73 3.48" fill="#f16522" fill-rule="evenodd"/>
<path class="cls-2" d="m83.6 125.68h-60.79v-1.63l44.77-1.75c8.49-0.33 16.74-0.77 24.73-3.47 16.37-5.42 29.4-16.49 33.25-30.18 4.11-14.68-5.35-29-23.17-30.2 15.09-4.39 28-13.9 31.4-26.12 4.45-15.89-3.6-23.9-17.2-26.85 22.62-0.35 40.31 7.2 34.29 28.68-3.43 12.22-16.6 21.54-31.62 25.6 17.62 1.3 27.29 18 22.62 32.47-4.87 15.12-17.15 24.52-33.52 29.93-8 2.71-16.24 3.14-24.73 3.48" fill="none" stroke="#fff" stroke-width=".61px"/>
<path class="cls-1" d="m51.69 118.08-28.69 1.34a11.48 11.48 0 0 0 -0.12 -1.66l72.49-20.76v-1.17l-73.46 17.57a10.51 10.51 0 0 0 -0.59 -1.53l77.19-42.56-0.51-1.17-79 40.08a9.52 9.52 0 0 0 -0.95 -1.31l91.84-85.91-0.8-1-94.46 84a13.91 13.91 0 0 0 -1.16 -0.86l67-97-1.19-0.32-69.83 95.54q-0.57-0.19-1.17-0.36l38.36-93.87-1-0.13-43.27 93.18h-1.6-0.36l27.86-99.86 52.05 0.16c24.62-1.39 44.07 5.2 37.67 28-3.43 12.24-16.31 21.73-31.31 25.8l-0.09 0.32c17.82 1.24 27.86 15.49 23.75 30.16-3.84 13.69-17.56 24.4-33.92 29.82-8 2.71-16.24 3.15-24.73 3.47" fill="#f16522" fill-rule="evenodd"/>
<path class="cls-2" d="m51.69 118.08-28.69 1.34a11.48 11.48 0 0 0 -0.12 -1.66l72.49-20.76v-1.17l-73.46 17.57a10.51 10.51 0 0 0 -0.59 -1.53l77.19-42.56-0.51-1.17-79 40.08a9.52 9.52 0 0 0 -0.95 -1.31l91.84-85.91-0.8-1-94.46 84a13.91 13.91 0 0 0 -1.16 -0.86l67-97-1.19-0.32-69.83 95.54q-0.57-0.19-1.17-0.36l38.36-93.87-1-0.13-43.27 93.18h-1.6-0.36l27.86-99.86 52.05 0.16c24.62-1.39 44.07 5.2 37.67 28-3.43 12.24-16.31 21.73-31.31 25.8l-0.09 0.32c17.82 1.24 27.86 15.49 23.75 30.16-3.84 13.69-17.56 24.4-33.92 29.82-8 2.71-16.24 3.15-24.73 3.47" fill="none" stroke="#fff" stroke-width=".61px"/>
<path class="cls-3" d="m186.25 167.28h-2.59l3.4-19.13h2.6zm15.45 0h-2.28l1.66-9.33a2.88 2.88 0 0 0 0.06 -0.67 2 2 0 0 0 -0.63 -1.57 2.35 2.35 0 0 0 -1.73 -0.6 4.8 4.8 0 0 0 -3.29 1.17 5.25 5.25 0 0 0 -1.62 3.11l-1.4 7.89h-2.3l2.46-13.82h2.16l-0.41 2.31a6 6 0 0 1 2 -1.87 6.2 6.2 0 0 1 3.11 -0.75c2.66 0 4 1.15 4 3.47v0.55c0 0.13-0.06 0.38-0.11 0.73zm14.13-2.11a5.44 5.44 0 0 1 -2.24 1.91 7 7 0 0 1 -2.78 0.53 5.11 5.11 0 0 1 -3.89 -1.47 5.65 5.65 0 0 1 -1.41 -4.06 10 10 0 0 1 0.17 -1.73 9.33 9.33 0 0 1 2.66 -5.28 7 7 0 0 1 5 -2 5.35 5.35 0 0 1 2.68 0.66 2.89 2.89 0 0 1 1.48 1.63l1.29-7.25h2.29l-3.4 19.13h-2.22zm0.86-4.86a8.48 8.48 0 0 0 0.14 -1.4 4.05 4.05 0 0 0 -0.92 -2.78 3.48 3.48 0 0 0 -2.7 -1 4.4 4.4 0 0 0 -3.33 1.39 7.21 7.21 0 0 0 -1.8 3.91 4.79 4.79 0 0 0 -0.08 0.65v0.67a4.1 4.1 0 0 0 0.93 2.84 3.31 3.31 0 0 0 2.58 1 4.55 4.55 0 0 0 3.42 -1.44 7.28 7.28 0 0 0 1.79 -3.86m7.56-9.38 0.49-2.78h2.23l-0.5 2.78zm-0.64 16.35h-2.27l2.46-13.86h2.27zm13.13-5 0.37-2.18a4 4 0 0 1 -1.21 0.44c-0.51 0.13-1.2 0.23-2.08 0.36a7.2 7.2 0 0 0 -3.06 0.82 2.63 2.63 0 0 0 -1.24 1.91v0.34a1.41 1.41 0 0 0 0.62 1.19 3 3 0 0 0 1.73 0.43 5.61 5.61 0 0 0 3.3 -0.94 3.58 3.58 0 0 0 1.59 -2.37m-0.36 3.24a6.83 6.83 0 0 1 -2.3 1.49 7.85 7.85 0 0 1 -3.07 0.57 4.82 4.82 0 0 1 -3 -0.78 2.75 2.75 0 0 1 -1 -2.28 5.88 5.88 0 0 1 0.07 -0.89 4.31 4.31 0 0 1 1.83 -2.93 9.85 9.85 0 0 1 4.21 -1.38 20.91 20.91 0 0 0 3.25 -0.6 1.87 1.87 0 0 0 1.25 -1.33c0-0.25 0.05-0.42 0.05-0.52a1.45 1.45 0 0 0 -0.7 -1.37 4.05 4.05 0 0 0 -2 -0.42 5 5 0 0 0 -2.77 0.66 2.91 2.91 0 0 0 -1.23 2h-2.29a5.06 5.06 0 0 1 2 -3.31 7.55 7.55 0 0 1 4.64 -1.33 7 7 0 0 1 3.57 0.68 2.52 2.52 0 0 1 1.1 2.32 7.06 7.06 0 0 1 -0.13 1.24l-1.19 6.8-0.08 0.46v0.39a0.55 0.55 0 0 0 0.62 0.62l0.71-0.16-0.33 1.78a2.64 2.64 0 0 1 -0.67 0.26 4.3 4.3 0 0 1 -0.87 0.11c-0.66 0-1.11-0.15-1.32-0.48a2.79 2.79 0 0 1 -0.33 -1.58m12.24-17.4-0.56 3.11a5.35 5.35 0 0 1 -1.28 2.73 3.05 3.05 0 0 1 -2.37 1.07l0.24-1.35a1.56 1.56 0 0 0 1.28 -0.68 4.47 4.47 0 0 0 0.72 -1.87h-1.6l0.54-3zm12.29 15.22a4.5 4.5 0 0 1 -2.16 3.13 8.38 8.38 0 0 1 -4.54 1.14 6.5 6.5 0 0 1 -3.79 -1 3.47 3.47 0 0 1 -1.37 -3v-0.75h2.35a2.47 2.47 0 0 0 0.81 2.08 4.24 4.24 0 0 0 2.52 0.62 5.38 5.38 0 0 0 2.54 -0.51 2.06 2.06 0 0 0 1.15 -1.57v-0.34a1.39 1.39 0 0 0 -0.85 -1.26 12.53 12.53 0 0 0 -3 -0.87 8.6 8.6 0 0 1 -3.15 -1.16 2.59 2.59 0 0 1 -1.1 -2.2 4 4 0 0 1 0.07 -0.73 4 4 0 0 1 2 -2.8 7.19 7.19 0 0 1 3.94 -1.06c3.33 0 5 1.18 5 3.57v0.37a1.77 1.77 0 0 0 -0.05 0.37l-2.3 0.1a1.88 1.88 0 0 0 -0.61 -1.71 3.32 3.32 0 0 0 -2.23 -0.64c-2 0-3.07 0.59-3.27 1.75v0.34a1.29 1.29 0 0 0 0.77 1.1 11.79 11.79 0 0 0 3 0.9 9.58 9.58 0 0 1 3.29 1.22 2.45 2.45 0 0 1 1.06 2.13 5 5 0 0 1 -0.08 0.82m12.4 3.91h-2.6l3.41-19.13h2.59zm15.45 0h-2.28l1.66-9.33a3.73 3.73 0 0 0 0.05 -0.67 2.06 2.06 0 0 0 -0.62 -1.57 2.38 2.38 0 0 0 -1.73 -0.6 4.81 4.81 0 0 0 -3.3 1.17 5.25 5.25 0 0 0 -1.62 3.11l-1.4 7.89h-2.3l2.46-13.82h2.16l-0.41 2.31a6.1 6.1 0 0 1 2 -1.87 6.2 6.2 0 0 1 3.11 -0.75c2.66 0 4 1.15 4 3.47a3.82 3.82 0 0 1 0 0.55c0 0.15-0.05 0.38-0.11 0.73zm7.17-3.29a4.92 4.92 0 0 0 0 0.51 0.6 0.6 0 0 0 0.33 0.59 2.71 2.71 0 0 0 1.08 0.16h1.21l-0.35 2h-1.92a4 4 0 0 1 -2.12 -0.4 1.71 1.71 0 0 1 -0.6 -1.49v-0.37a4.79 4.79 0 0 1 0.1 -0.71l1.59-8.82h-2.4l0.35-2h2.37l0.73-4.15h2.28l-0.74 4.15h2.82l-0.35 2h-2.79zm17.46-1.12a7.47 7.47 0 0 1 -2.63 3.49 7.1 7.1 0 0 1 -4.17 1.22 5.63 5.63 0 0 1 -4.13 -1.44 5.47 5.47 0 0 1 -1.47 -4.06 6.44 6.44 0 0 1 0.06 -0.81c0-0.31 0.08-0.66 0.14-1a8.84 8.84 0 0 1 2.76 -5.11 7.28 7.28 0 0 1 5 -2 4.92 4.92 0 0 1 3.82 1.48 6 6 0 0 1 1.37 4.23 13.14 13.14 0 0 1 -0.21 2.12h-10.57a14 14 0 0 0 0.09 1.91 2.84 2.84 0 0 0 0.45 1.25 3.35 3.35 0 0 0 3.07 1.41 4.55 4.55 0 0 0 2.55 -0.69 4.29 4.29 0 0 0 1.59 -2zm-9.63-3.88h8.07a3.69 3.69 0 0 0 0 -0.56 3.27 3.27 0 0 0 -0.91 -2.4 3.31 3.31 0 0 0 -2.44 -0.95 4.39 4.39 0 0 0 -3.29 1.4 7 7 0 0 0 -1.46 2.51m13.62 8.26h-2.28l2.46-13.82h2.13l-0.54 3.06a9 9 0 0 1 2.55 -2.61 5.84 5.84 0 0 1 2.93 -0.76h0.3l-0.43 2.4h-0.32a5.08 5.08 0 0 0 -3.77 1.46 7.57 7.57 0 0 0 -1.93 4.16zm18.33 0 1.68-9.42c0.05-0.35 0.09-0.58 0.1-0.73a3.82 3.82 0 0 0 0 -0.55c0-2.32-1.33-3.47-4-3.47a6.21 6.21 0 0 0 -3.12 0.75 6 6 0 0 0 -2 1.87l0.41-2.31h-2.16l-2.46 13.82h2.29l1.41-7.89a5.25 5.25 0 0 1 1.62 -3.11 4.77 4.77 0 0 1 3.3 -1.17 2.37 2.37 0 0 1 1.72 0.6 2 2 0 0 1 0.62 1.57 3.73 3.73 0 0 1 0 0.67l-1.66 9.33zm13-5 0.38-2.18a4.18 4.18 0 0 1 -1.22 0.44c-0.5 0.13-1.19 0.23-2.08 0.36a7.24 7.24 0 0 0 -3.06 0.82 2.62 2.62 0 0 0 -1.23 1.91v0.34a1.41 1.41 0 0 0 0.62 1.19 3 3 0 0 0 1.73 0.43 5.61 5.61 0 0 0 3.3 -0.94 3.55 3.55 0 0 0 1.59 -2.37m-0.35 3.24a6.87 6.87 0 0 1 -2.31 1.49 7.85 7.85 0 0 1 -3.07 0.57 4.82 4.82 0 0 1 -3 -0.78 2.75 2.75 0 0 1 -1 -2.28 4.89 4.89 0 0 1 0.08 -0.89 4.27 4.27 0 0 1 1.82 -2.93 9.9 9.9 0 0 1 4.21 -1.38 21.45 21.45 0 0 0 3.26 -0.6 1.85 1.85 0 0 0 1.24 -1.33 3.86 3.86 0 0 0 0.06 -0.52 1.46 1.46 0 0 0 -0.71 -1.37 4 4 0 0 0 -2 -0.42 4.92 4.92 0 0 0 -2.76 0.66 2.88 2.88 0 0 0 -1.23 2h-2.3a5.1 5.1 0 0 1 2 -3.31 7.54 7.54 0 0 1 4.65 -1.33 7 7 0 0 1 3.56 0.68 2.52 2.52 0 0 1 1.11 2.32 7.2 7.2 0 0 1 -0.14 1.24l-1.18 6.8-0.09 0.46v0.39a0.54 0.54 0 0 0 0.62 0.62l0.7-0.16-0.32 1.78a2.75 2.75 0 0 1 -0.68 0.26 4.13 4.13 0 0 1 -0.86 0.11c-0.67 0-1.11-0.15-1.32-0.48a2.79 2.79 0 0 1 -0.33 -1.58m9.06-1.53a4.92 4.92 0 0 0 0 0.51 0.6 0.6 0 0 0 0.32 0.59 2.8 2.8 0 0 0 1.09 0.16h1.21l-0.35 2h-1.92a4 4 0 0 1 -2.12 -0.4 1.69 1.69 0 0 1 -0.61 -1.49v-0.36a5.41 5.41 0 0 1 0.11 -0.71l1.59-8.82h-2.4l0.35-2h2.37l0.73-4.15h2.27l-0.73 4.15h2.81l-0.35 2h-2.79zm7.81-13.09 0.49-2.78h2.27l-0.49 2.78zm-0.64 16.35h-2.26l2.45-13.86h2.27zm17.58-6.91a8.8 8.8 0 0 1 -2.77 5.25 7.56 7.56 0 0 1 -5.28 2 5.71 5.71 0 0 1 -4.17 -1.45 5.58 5.58 0 0 1 -1.47 -4.1 9.34 9.34 0 0 1 0.16 -1.69 9.05 9.05 0 0 1 2.79 -5.3 7.68 7.68 0 0 1 5.29 -2 5.71 5.71 0 0 1 4.15 1.44 5.32 5.32 0 0 1 1.47 4 9.74 9.74 0 0 1 -0.17 1.8m-2.42 0c0.05-0.35 0.08-0.58 0.1-0.71a4.81 4.81 0 0 0 0 -0.64 4.07 4.07 0 0 0 -1 -2.84 3.34 3.34 0 0 0 -2.58 -1.07 4.66 4.66 0 0 0 -3.38 1.46 7 7 0 0 0 -1.89 3.8 7.74 7.74 0 0 0 -0.11 1.29 4.23 4.23 0 0 0 0.93 2.87 3.29 3.29 0 0 0 2.59 1.08 4.66 4.66 0 0 0 3.4 -1.46 6.79 6.79 0 0 0 1.87 -3.78m15.47 6.91h-2.23l1.66-9.33a3 3 0 0 0 0.05 -0.67 2 2 0 0 0 -0.62 -1.57 2.38 2.38 0 0 0 -1.73 -0.6 4.76 4.76 0 0 0 -3.29 1.17 5.14 5.14 0 0 0 -1.62 3.11l-1.41 7.89h-2.29l2.46-13.82h2.16l-0.41 2.31a5.92 5.92 0 0 1 2 -1.87 6.17 6.17 0 0 1 3.11 -0.75c2.66 0 4 1.15 4 3.47a3.82 3.82 0 0 1 0 0.55c0 0.15 0 0.38-0.1 0.73zm13-5 0.38-2.18a4.18 4.18 0 0 1 -1.22 0.44c-0.5 0.13-1.19 0.23-2.08 0.36a7.24 7.24 0 0 0 -3.06 0.82 2.62 2.62 0 0 0 -1.23 1.91v0.34a1.41 1.41 0 0 0 0.62 1.19 3 3 0 0 0 1.73 0.43 5.6 5.6 0 0 0 3.29 -0.94 3.53 3.53 0 0 0 1.6 -2.37m-0.35 3.24a6.87 6.87 0 0 1 -2.31 1.49 7.83 7.83 0 0 1 -3.06 0.57 4.85 4.85 0 0 1 -3 -0.78 2.78 2.78 0 0 1 -1 -2.28 4.89 4.89 0 0 1 0.08 -0.89 4.27 4.27 0 0 1 1.82 -2.93 9.9 9.9 0 0 1 4.21 -1.38 21.45 21.45 0 0 0 3.26 -0.6 1.85 1.85 0 0 0 1.24 -1.33c0-0.25 0.06-0.42 0.06-0.52a1.46 1.46 0 0 0 -0.71 -1.37 4 4 0 0 0 -2 -0.42 4.92 4.92 0 0 0 -2.76 0.66 2.92 2.92 0 0 0 -1.24 2h-2.29a5.06 5.06 0 0 1 2 -3.31 7.56 7.56 0 0 1 4.65 -1.33 7 7 0 0 1 3.56 0.68 2.52 2.52 0 0 1 1.11 2.32 7.2 7.2 0 0 1 -0.14 1.24l-1.18 6.8-0.09 0.46v0.39a0.55 0.55 0 0 0 0.62 0.62l0.7-0.16-0.32 1.78a2.75 2.75 0 0 1 -0.68 0.26 4.13 4.13 0 0 1 -0.86 0.11 1.49 1.49 0 0 1 -1.33 -0.48 2.89 2.89 0 0 1 -0.32 -1.58m8.86-17.4h2.26l-3.4 19.13h-2.26zm14.52 10.36-1.19 6.64h6.38a4.29 4.29 0 0 0 2.81 -0.93 4 4 0 0 0 1.44 -2.51l0.05-0.4v-0.22q0-2.52-3.75-2.52zm5 8.77h-9.19l3.41-19.13h8.53a6.25 6.25 0 0 1 3.74 1 3.27 3.27 0 0 1 1.34 2.8 5.84 5.84 0 0 1 -0.08 0.93 5.45 5.45 0 0 1 -1.31 2.73 5.3 5.3 0 0 1 -2.42 1.56 3.42 3.42 0 0 1 3.06 3.67 7.15 7.15 0 0 1 -0.09 1 6.35 6.35 0 0 1 -2.38 3.95 7.22 7.22 0 0 1 -4.61 1.49m-4.65-10.93h5.19a5.76 5.76 0 0 0 3.17 -0.75 3.36 3.36 0 0 0 1.39 -2.38 4 4 0 0 0 0.08 -0.75c0-1.47-1.06-2.22-3.18-2.22h-5.51zm23.12 6 0.38-2.18a4.18 4.18 0 0 1 -1.22 0.44c-0.5 0.13-1.19 0.23-2.08 0.36a7.2 7.2 0 0 0 -3.06 0.82 2.62 2.62 0 0 0 -1.23 1.91v0.34a1.41 1.41 0 0 0 0.62 1.19 3 3 0 0 0 1.73 0.43 5.63 5.63 0 0 0 3.3 -0.94 3.55 3.55 0 0 0 1.59 -2.37m-0.35 3.24a6.78 6.78 0 0 1 -2.31 1.49 7.85 7.85 0 0 1 -3.07 0.57 4.82 4.82 0 0 1 -3 -0.78 2.75 2.75 0 0 1 -1 -2.28 4.89 4.89 0 0 1 0.08 -0.89 4.27 4.27 0 0 1 1.82 -2.93 9.9 9.9 0 0 1 4.22 -1.38 21.48 21.48 0 0 0 3.25 -0.6 1.85 1.85 0 0 0 1.24 -1.33 3.86 3.86 0 0 0 0.06 -0.52 1.47 1.47 0 0 0 -0.7 -1.37 4.07 4.07 0 0 0 -2 -0.42 5 5 0 0 0 -2.77 0.66 2.9 2.9 0 0 0 -1.22 2h-2.3a5.1 5.1 0 0 1 2 -3.31 7.56 7.56 0 0 1 4.65 -1.33 7 7 0 0 1 3.56 0.68 2.52 2.52 0 0 1 1.11 2.32 7.2 7.2 0 0 1 -0.14 1.24l-1.18 6.8-0.08 0.46v0.39a0.54 0.54 0 0 0 0.62 0.62l0.7-0.16-0.32 1.78a2.75 2.75 0 0 1 -0.68 0.26 4.13 4.13 0 0 1 -0.86 0.11 1.49 1.49 0 0 1 -1.33 -0.48 2.89 2.89 0 0 1 -0.32 -1.58m16.85 1.73h-2.28l1.66-9.33a3 3 0 0 0 0 -0.67 2.06 2.06 0 0 0 -0.61 -1.57 2.4 2.4 0 0 0 -1.73 -0.6 4.79 4.79 0 0 0 -3.3 1.17 5.19 5.19 0 0 0 -1.62 3.11l-1.4 7.89h-2.3l2.46-13.82h2.16l-0.41 2.31a6 6 0 0 1 2 -1.87 6.17 6.17 0 0 1 3.11 -0.75c2.66 0 4 1.15 4 3.47a2.76 2.76 0 0 1 0 0.55c0 0.15-0.05 0.38-0.1 0.73zm7-19.13h2.29l-2 11.33 7.44-6.06h3.08l-6.45 5 4.39 8.82h-2.9l-3.5-7.24-2.52 2-0.93 5.26h-2.24z" fill="#231f20" fill-rule="evenodd"/>
<path class="cls-1" d="m196.72 103.53h4.83c4.16 0 5 2.13 4.28 5.61-1.18 5.5-5.14 5.55-6.89 5.55h-4.61zm3.44-16h5.1c2.79 0 4.31 2.12 3.7 5-0.82 3.81-3.6 5-5.41 5h-5.55zm-0.76 33.23c3.51 0 12.32-0.43 14.45-10.39 1.15-5.38 0.42-9.13-5.27-10v-0.11a10.48 10.48 0 0 0 8.6 -8.64c1.79-8.38-3-10.18-9.33-10.18h-14.67l-8.41 39.27zm32.32-13.27c-0.65 3-1.24 9.1-5.79 9.1-2.52 0-2.33-2.41-1.92-4.37 1.06-4.89 3.83-4.55 7.71-4.73m8.75-5.54-2.94 13.7c-0.36 1.69-0.51 3.44-0.71 5.11h-7.18l0.45-3.63h-0.09c-2.25 2.82-4.79 4.19-8.13 4.19-5.37 0-6.49-4-5.47-8.76 1.94-9.1 9.1-9.47 16.26-9.35l0.45-2.14c0.5-2.34 0.53-4-2.26-4s-3.34 2-3.81 4.19h-7.56c0.71-3.33 2.21-5.44 4.29-6.7a14.1 14.1 0 0 1 7.61 -1.79c9.82 0 10.18 4.19 9.11 9.2m13.68-8.66h-7.73l-5.88 27.47h7.73l4-18.92c0.53-2.46 1.38-4.35 3.84-4.35s2.5 1.89 2 4.35l-4 18.92h7.73l4.72-22c0.81-3.81-1.95-6-5.63-6a8.72 8.72 0 0 0 -7.29 3.22h-0.1zm19 27.47h-7.73l8.41-39.27h7.73l-5 23.39h0.11l9.44-11.59h8.06l-10.46 12.24 5.45 15.23h-8.71l-4-15h-0.11zm36.55-4.35c-2.85 0-3.18-1.78-1.38-10.16 1.22-5.72 2.11-8.6 5.39-8.6s2.95 2.88 1.73 8.6c-1.79 8.38-2.89 10.16-5.74 10.16m-1.05 4.91c10 0 12.58-6 14.43-14.64 1.6-7.51 1.88-13.93-8.31-13.93s-12.67 6.42-14.28 13.93c-1.84 8.6-1.82 14.64 8.16 14.64m34.92-40-1.05 4.89c-3.08-0.22-4 1-4.59 3.76l-0.71 3.31h3.62l-1 4.73h-3.62l-4.87 22.74h-7.73l4.89-22.77h-3.45l1-4.73h3.51c1.64-7.89 1.87-12.07 11.3-12.07 0.93 0 1.8 0 2.72 0.11m14.87 22.24h4.82c4.17 0 5 2.13 4.29 5.61-1.18 5.5-5.14 5.55-6.89 5.55h-4.6zm3.44-16h5.08c2.8 0 4.31 2.12 3.69 5-0.81 3.81-3.59 5-5.4 5h-5.54zm-0.76 33.23c3.51 0 12.31-0.43 14.45-10.39 1.15-5.38 0.42-9.13-5.27-10v-0.11c4.69-0.87 7.63-4.13 8.59-8.64 1.8-8.38-3-10.18-9.33-10.18h-14.6l-8.42 39.27zm32.31-13.27c-0.64 3-1.23 9.1-5.78 9.1-2.52 0-2.34-2.41-1.92-4.37 1.05-4.89 3.83-4.55 7.7-4.73m8.76-5.54-2.94 13.7c-0.36 1.69-0.52 3.44-0.71 5.11h-7.18l0.45-3.63h-0.11c-2.25 2.82-4.79 4.19-8.13 4.19-5.38 0-6.5-4-5.47-8.76 1.94-9.1 9.1-9.47 16.26-9.35l0.45-2.14c0.5-2.34 0.53-4-2.26-4s-3.34 2-3.81 4.19h-7.56c0.71-3.33 2.21-5.44 4.28-6.7a14.14 14.14 0 0 1 7.62 -1.79c9.82 0 10.18 4.19 9.11 9.2m5.95-8.66-5.88 27.47h7.7l3.2-15c0.58-2.71 1.53-6.63 8.23-6.2l1.47-6.85a8.88 8.88 0 0 0 -8.05 4.08h-0.11l0.76-3.54zm21.6 23.12c-2.85 0-3.17-1.78-1.38-10.16 1.22-5.72 2.12-8.6 5.4-8.6s2.95 2.88 1.73 8.6c-1.8 8.38-2.9 10.16-5.75 10.16m-1 4.91c-10 0-10-6-8.16-14.64 1.61-7.51 4.08-13.93 14.27-13.93s9.92 6.42 8.31 13.93c-1.84 8.6-4.45 14.64-14.42 14.64m25.77-4.73c-2.79 0-2.66-2.89-1.18-9.8 1.17-5.5 1.94-9.3 5.28-9.3 3.17 0 2.3 3.8 1.13 9.3-1.48 6.91-2.59 9.8-5.23 9.8m10 4.17 8.41-39.27h-7.73l-3.08 14.42h-0.15c-1.09-2.35-2.83-3.16-5.63-3.16-7.78 0-9.39 8.54-10.58 14.09s-3.38 14.48 4.62 14.48a8.32 8.32 0 0 0 7.3 -3.6h0.11l-0.65 3zm20.21-13.27c-0.64 3-1.23 9.1-5.78 9.1-2.52 0-2.34-2.41-1.92-4.37 1.05-4.89 3.83-4.55 7.7-4.73m8.75-5.54-2.93 13.7c-0.36 1.69-0.52 3.44-0.71 5.11h-7.18l0.45-3.63h-0.14c-2.25 2.82-4.79 4.19-8.13 4.19-5.37 0-6.5-4-5.47-8.76 1.94-9.1 9.09-9.47 16.25-9.35l0.46-2.14c0.5-2.34 0.53-4-2.27-4s-3.33 2-3.8 4.19h-7.56c0.71-3.33 2.2-5.44 4.28-6.7a14.16 14.16 0 0 1 7.62 -1.79c9.81 0 10.18 4.19 9.1 9.2" fill="#f16522" fill-rule="evenodd"/>
<path class="cls-2" d="m196.72 103.53h4.83c4.16 0 5 2.13 4.28 5.61-1.18 5.5-5.14 5.55-6.89 5.55h-4.61zm3.44-16h5.1c2.79 0 4.31 2.12 3.7 5-0.82 3.81-3.6 5-5.41 5h-5.55zm-0.76 33.23c3.51 0 12.32-0.43 14.45-10.39 1.15-5.38 0.42-9.13-5.27-10v-0.11a10.48 10.48 0 0 0 8.6 -8.64c1.79-8.38-3-10.18-9.33-10.18h-14.67l-8.41 39.27zm32.32-13.27c-0.65 3-1.24 9.1-5.79 9.1-2.52 0-2.33-2.41-1.92-4.37 1.06-4.89 3.83-4.55 7.71-4.73m8.75-5.54-2.94 13.7c-0.36 1.69-0.51 3.44-0.71 5.11h-7.18l0.45-3.63h-0.09c-2.25 2.82-4.79 4.19-8.13 4.19-5.37 0-6.49-4-5.47-8.76 1.94-9.1 9.1-9.47 16.26-9.35l0.45-2.14c0.5-2.34 0.53-4-2.26-4s-3.34 2-3.81 4.19h-7.56c0.71-3.33 2.21-5.44 4.29-6.7a14.1 14.1 0 0 1 7.61 -1.79c9.82 0 10.18 4.19 9.11 9.2m13.68-8.66h-7.73l-5.88 27.47h7.73l4-18.92c0.53-2.46 1.38-4.35 3.84-4.35s2.5 1.89 2 4.35l-4 18.92h7.73l4.72-22c0.81-3.81-1.95-6-5.63-6a8.72 8.72 0 0 0 -7.29 3.22h-0.1zm19 27.47h-7.73l8.41-39.27h7.73l-5 23.39h0.11l9.44-11.59h8.06l-10.46 12.24 5.45 15.23h-8.71l-4-15h-0.11zm36.55-4.35c-2.85 0-3.18-1.78-1.38-10.16 1.22-5.72 2.11-8.6 5.39-8.6s2.95 2.88 1.73 8.6c-1.79 8.38-2.89 10.16-5.74 10.16m-1.05 4.91c10 0 12.58-6 14.43-14.64 1.6-7.51 1.88-13.93-8.31-13.93s-12.67 6.42-14.28 13.93c-1.84 8.6-1.82 14.64 8.16 14.64m34.92-40-1.05 4.89c-3.08-0.22-4 1-4.59 3.76l-0.71 3.31h3.62l-1 4.73h-3.62l-4.87 22.74h-7.73l4.89-22.77h-3.45l1-4.73h3.51c1.64-7.89 1.87-12.07 11.3-12.07 0.93 0 1.8 0 2.72 0.11m14.87 22.24h4.82c4.17 0 5 2.13 4.29 5.61-1.18 5.5-5.14 5.55-6.89 5.55h-4.6zm3.44-16h5.08c2.8 0 4.31 2.12 3.69 5-0.81 3.81-3.59 5-5.4 5h-5.54zm-0.76 33.23c3.51 0 12.31-0.43 14.45-10.39 1.15-5.38 0.42-9.13-5.27-10v-0.11c4.69-0.87 7.63-4.13 8.59-8.64 1.8-8.38-3-10.18-9.33-10.18h-14.6l-8.42 39.27zm32.31-13.27c-0.64 3-1.23 9.1-5.78 9.1-2.52 0-2.34-2.41-1.92-4.37 1.05-4.89 3.83-4.55 7.7-4.73m8.76-5.54-2.94 13.7c-0.36 1.69-0.52 3.44-0.71 5.11h-7.18l0.45-3.63h-0.11c-2.25 2.82-4.79 4.19-8.13 4.19-5.38 0-6.5-4-5.47-8.76 1.94-9.1 9.1-9.47 16.26-9.35l0.45-2.14c0.5-2.34 0.53-4-2.26-4s-3.34 2-3.81 4.19h-7.56c0.71-3.33 2.21-5.44 4.28-6.7a14.14 14.14 0 0 1 7.62 -1.79c9.82 0 10.18 4.19 9.11 9.2m5.95-8.66-5.88 27.47h7.7l3.2-15c0.58-2.71 1.53-6.63 8.23-6.2l1.47-6.85a8.88 8.88 0 0 0 -8.05 4.08h-0.11l0.76-3.54zm21.6 23.12c-2.85 0-3.17-1.78-1.38-10.16 1.22-5.72 2.12-8.6 5.4-8.6s2.95 2.88 1.73 8.6c-1.8 8.38-2.9 10.16-5.75 10.16m-1 4.91c-10 0-10-6-8.16-14.64 1.61-7.51 4.08-13.93 14.27-13.93s9.92 6.42 8.31 13.93c-1.84 8.6-4.45 14.64-14.42 14.64m25.77-4.73c-2.79 0-2.66-2.89-1.18-9.8 1.17-5.5 1.94-9.3 5.28-9.3 3.17 0 2.3 3.8 1.13 9.3-1.48 6.91-2.59 9.8-5.23 9.8m10 4.17 8.41-39.27h-7.73l-3.08 14.42h-0.15c-1.09-2.35-2.83-3.16-5.63-3.16-7.78 0-9.39 8.54-10.58 14.09s-3.38 14.48 4.62 14.48a8.32 8.32 0 0 0 7.3 -3.6h0.11l-0.65 3zm20.21-13.27c-0.64 3-1.23 9.1-5.78 9.1-2.52 0-2.34-2.41-1.92-4.37 1.05-4.89 3.83-4.55 7.7-4.73m8.75-5.54-2.93 13.7c-0.36 1.69-0.52 3.44-0.71 5.11h-7.18l0.45-3.63h-0.14c-2.25 2.82-4.79 4.19-8.13 4.19-5.37 0-6.5-4-5.47-8.76 1.94-9.1 9.09-9.47 16.25-9.35l0.46-2.14c0.5-2.34 0.53-4-2.27-4s-3.33 2-3.8 4.19h-7.56c0.71-3.33 2.2-5.44 4.28-6.7a14.16 14.16 0 0 1 7.62 -1.79c9.81 0 10.18 4.19 9.1 9.2" fill="none" stroke="#fff" stroke-width=".61px"/>
</g>
</g>
</svg>
