<?xml version="1.0" encoding="UTF-8" standalone="no"?>
<!-- Created with Inkscape (http://www.inkscape.org/) -->

<svg
   version="1.1"
   id="svg2"
   xml:space="preserve"
   width="906.66669"
   height="288"
   viewBox="0 0 906.66669 288"
   xmlns="http://www.w3.org/2000/svg"
   xmlns:svg="http://www.w3.org/2000/svg"><defs
     id="defs6" /><g
     id="g8"
     transform="matrix(1.3333333,0,0,-1.3333333,0,288)"><g
       id="g10"
       transform="scale(0.1)"><path
         d="m 3039.02,2.07031 h 1772.7 v 557.699 h -1772.7 z"
         style="fill:#ffe000;fill-opacity:1;fill-rule:evenodd;stroke:none"
         id="path12" /><path
         d="m 3039.02,2.07031 h 468.242 v 557.699 H 3039.02 Z"
         style="fill:#ec1c24;fill-opacity:1;fill-rule:evenodd;stroke:none"
         id="path14" /><path
         d="M 1421.17,2.37891 382.621,1.51953 l 7.5,36.60157 756.789,21.6797 c 145.08,5.5078 286.02,13.168 422.47,59.6872 279.6,93.321 502.42,283.711 568,519.461 70.28,252.653 -91.36,498.511 -395.86,519.721 257.97,75.51 477.93,239.03 536.49,449.53 76.05,273.32 -61.53,411.45 -293.91,462.11 386.49,6.02 688.75,-123.86 585.86,-493.63 -58.55,-210.51 -283.67,-370.59 -540.12,-440.51 301.02,-22.42 466.14,-309.182 386.33,-559.022 C 2333.05,316.988 2123.2,155.391 1843.59,62.0703 1707.19,15.5508 1566.25,7.89063 1421.17,2.37891"
         style="fill:#f16522;fill-opacity:1;fill-rule:evenodd;stroke:none"
         id="path16" /><path
         d="M 876.051,133.16 388.672,108.949 c -0.192,12.461 0.469,9.602 -0.942,21.672 l 1234.54,365.16 4.1,44.61 L 365.23,214.379 c -3.902,11.949 -4.25,8.672 -9.449,19.922 L 1675.82,965.16 1662.46,1001.64 313.75,304.34 c -8.129,11.519 -4.57,6.64 -14.059,17.031 L 1868.91,1786.72 1849.69,1826.41 241.949,373.238 c -7.648,5.391 -12.57,9.301 -20.66,14.102 L 1371.68,2043.28 1323.24,2042.89 145.859,421.84 c -6.558,2.262 -13.91,4.25 -20.66,6.129 L 808.828,2045.78 H 765.352 L 29.8008,440.309 C 20.7383,440.391 0,440.23 0,440.23 l 476.02,1719.42 889.1,-2.74 c 420.58,24.11 752.77,-89.41 643.51,-482.34 -58.55,-210.47 -278.51,-373.98 -534.92,-443.91 l -1.56,-5.58 C 1776.64,1203.83 1948.2,958.629 1877.97,706.02 1812.34,470.309 1578.05,286.172 1298.44,192.852 1161.99,146.328 1021.09,138.672 876.051,133.16"
         style="fill:#f16522;fill-opacity:1;fill-rule:evenodd;stroke:none"
         id="path18" /><path
         d="m 3036.45,643.789 h 3762.62 v 13.9102 H 3036.45 Z"
         style="fill:#231f20;fill-opacity:1;fill-rule:nonzero;stroke:none"
         id="path20" /><path
         d="m 3214.61,775.43 c 42.69,0 149.92,5.351 175.9,127.461 14.02,66.058 5.11,112.109 -64.14,122.109 l 0.27,1.33 c 56.99,10.66 92.85,50.7 104.61,106.09 21.84,102.78 -36.87,124.77 -113.59,124.77 H 3138.87 L 3036.45,775.43 Z m 9.22,407.69 h 62.07 c 34.02,0 52.54,-26.01 45.04,-61.36 -9.92,-46.72 -43.79,-61.41 -65.78,-61.41 h -67.39 z m -41.8,-196.831 h 58.71 c 50.71,0 61.17,-26.019 52.11,-68.707 -14.33,-67.383 -62.5,-68.051 -83.87,-68.051 h -56.01 z"
         style="fill:#f16522;fill-opacity:1;fill-rule:evenodd;stroke:none"
         id="path22" /><path
         d="m 3714.53,1006.33 c 13.01,61.37 8.59,112.73 -110.82,112.73 -36.01,0 -68.01,-5.97 -92.77,-21.99 -25.28,-15.35 -43.48,-41.37 -52.15,-82.07 h 92.07 c 5.7,26.68 13.59,51.37 46.33,51.37 33.98,0 33.63,-20.67 27.5,-49.38 l -5.51,-26.01 c -87.15,1.321 -174.22,-3.359 -197.85,-114.769 -12.54,-58.75 1.17,-107.461 66.56,-107.461 40.7,0 71.56,16.719 98.99,51.41 h 1.32 l -5.5,-44.73 h 87.42 c 2.38,20.699 4.26,42.031 8.67,62.73 z m -106.56,-68.092 c -7.81,-36.679 -15,-111.398 -70.39,-111.398 -30.7,0 -28.44,29.371 -23.36,53.359 12.77,60.031 46.6,56.051 93.75,58.039"
         style="fill:#f16522;fill-opacity:1;fill-rule:evenodd;stroke:none"
         id="path24" /><path
         d="m 3881.09,1112.42 h -94.1 l -71.6,-336.99 h 94.1 l 49.3,232.23 c 6.41,30.04 16.72,53.36 46.76,53.36 30,0 30.39,-23.32 23.98,-53.36 L 3880.2,775.43 h 94.1 l 57.42,270.27 c 9.92,46.68 -23.79,73.36 -68.48,73.36 -35.35,0 -63.01,-10.66 -88.04,-40.7 h -1.37 z"
         style="fill:#f16522;fill-opacity:1;fill-rule:evenodd;stroke:none"
         id="path26" /><path
         d="m 4112.93,775.43 39.02,183.519 h 1.33 l 48.4,-183.519 h 106.09 l -66.36,186.84 127.34,150.15 h -98.13 L 4155.7,970.27 h -1.32 l 60.97,286.92 h -94.1 L 4018.87,775.43 Z"
         style="fill:#f16522;fill-opacity:1;fill-rule:evenodd;stroke:none"
         id="path28" /><path
         d="m 4545.12,768.75 c 121.44,0 153.2,74.102 175.62,179.488 19.57,92.072 22.97,170.822 -101.17,170.822 -124.1,0 -154.18,-78.75 -173.75,-170.822 -22.38,-105.386 -22.15,-179.488 99.3,-179.488 m 12.77,60.078 c -34.69,0 -38.67,22.031 -16.84,124.762 14.89,70.08 25.75,105.43 65.75,105.43 40.04,0 35.9,-35.35 20.97,-105.43 -21.83,-102.731 -35.19,-124.762 -69.88,-124.762"
         style="fill:#f16522;fill-opacity:1;fill-rule:evenodd;stroke:none"
         id="path30" /><path
         d="m 4970.2,1259.22 c -11.22,0.66 -21.72,1.33 -33.05,1.33 -114.77,0 -117.7,-51.37 -137.62,-148.13 h -42.69 l -12.35,-58.08 h 42.07 l -59.29,-278.91 h 94.06 l 59.29,278.91 h 44.03 l 12.34,58.08 h -44.02 l 8.63,40.67 c 7.27,34.02 18.4,48.71 55.86,46.05 z"
         style="fill:#f16522;fill-opacity:1;fill-rule:evenodd;stroke:none"
         id="path32" /><path
         d="m 5183.83,775.43 c 42.69,0 149.92,5.351 175.86,127.461 14.06,66.058 5.15,112.109 -64.1,122.109 l 0.27,1.33 c 56.99,10.66 92.81,50.7 104.61,106.09 21.87,102.78 -36.88,124.77 -113.59,124.77 H 5108.05 L 5005.66,775.43 Z m 9.22,407.69 h 62.07 c 34.02,0 52.54,-26.01 45,-61.36 -9.92,-46.72 -43.75,-61.41 -65.78,-61.41 h -67.35 z m -41.8,-196.831 h 58.67 c 50.74,0 61.21,-26.019 52.15,-68.707 -14.34,-67.383 -62.5,-68.051 -83.87,-68.051 h -56.05 z"
         style="fill:#f16522;fill-opacity:1;fill-rule:evenodd;stroke:none"
         id="path34" /><path
         d="m 5683.71,1006.33 c 13.09,61.37 8.63,112.73 -110.78,112.73 -36.05,0 -68.01,-5.97 -92.77,-21.99 -25.28,-15.35 -43.48,-41.37 -52.15,-82.07 h 92.07 c 5.7,26.68 13.59,51.37 46.29,51.37 34.06,0 33.67,-20.67 27.58,-49.38 l -5.55,-26.01 c -87.15,1.321 -174.18,-3.359 -197.89,-114.769 -12.46,-58.75 1.17,-107.461 66.6,-107.461 40.66,0 71.6,16.719 98.98,51.41 h 1.33 l -5.51,-44.73 h 87.43 c 2.38,20.699 4.25,42.031 8.67,62.73 z m -106.52,-68.092 c -7.81,-36.679 -15,-111.398 -70.39,-111.398 -30.71,0 -28.44,29.371 -23.36,53.359 12.77,60.031 46.6,56.051 93.75,58.039"
         style="fill:#f16522;fill-opacity:1;fill-rule:evenodd;stroke:none"
         id="path36" /><path
         d="m 5756.21,1112.42 -71.64,-336.99 h 94.1 l 38.99,183.519 c 7.11,33.352 18.63,81.361 100.27,76.051 l 17.85,84.06 c -38.05,0 -72.46,-11.33 -98.05,-50 h -1.32 l 9.21,43.36 z"
         style="fill:#f16522;fill-opacity:1;fill-rule:evenodd;stroke:none"
         id="path38" /><path
         d="m 6006.45,768.75 c 121.44,0 153.16,74.102 175.62,179.488 19.53,92.072 22.93,170.822 -101.17,170.822 -124.1,0 -154.18,-78.75 -173.75,-170.822 C 5884.73,842.852 5885,768.75 6006.45,768.75 m 12.77,60.078 c -34.73,0 -38.71,22.031 -16.84,124.762 14.85,70.08 25.71,105.43 65.74,105.43 40.04,0 35.86,-35.35 20.98,-105.43 -21.83,-102.731 -35.19,-124.762 -69.88,-124.762"
         style="fill:#f16522;fill-opacity:1;fill-rule:evenodd;stroke:none"
         id="path40" /><path
         d="m 6441.45,775.43 102.42,481.76 h -94.1 l -37.58,-176.8 h -1.37 c -13.2,28.67 -34.45,38.67 -68.48,38.67 -94.76,0 -114.33,-104.72 -128.79,-172.771 -14.76,-69.41 -41.09,-177.539 56.33,-177.539 36.02,0 64.5,11.371 88.79,44.059 h 1.33 l -7.97,-37.379 z m -121.18,51.41 c -34.02,0 -32.54,35.351 -14.49,120.07 14.3,67.43 23.6,114.11 64.26,114.11 38.71,0 28.12,-46.68 13.79,-114.11 -18.01,-84.719 -31.53,-120.07 -63.56,-120.07"
         style="fill:#f16522;fill-opacity:1;fill-rule:evenodd;stroke:none"
         id="path42" /><path
         d="m 6794.02,1006.33 c 13.05,61.37 8.64,112.73 -110.82,112.73 -36.01,0 -68,-5.97 -92.77,-21.99 -25.27,-15.35 -43.48,-41.37 -52.15,-82.07 h 92.11 c 5.66,26.68 13.59,51.37 46.29,51.37 34.02,0 33.63,-20.67 27.5,-49.38 l -5.51,-26.01 c -87.11,1.321 -174.18,-3.359 -197.85,-114.769 -12.5,-58.75 1.17,-107.461 66.56,-107.461 40.71,0 71.6,16.719 98.99,51.41 h 1.33 l -5.47,-44.73 h 87.38 c 2.38,20.699 4.26,42.031 8.67,62.73 z m -106.56,-68.092 c -7.77,-36.679 -15,-111.398 -70.39,-111.398 -30.66,0 -28.44,29.371 -23.32,53.359 12.77,60.031 46.6,56.051 93.71,58.039"
         style="fill:#f16522;fill-opacity:1;fill-rule:evenodd;stroke:none"
         id="path44" /><path
         d="m 5708.91,1506.21 h 81.32 l -18.28,-67.73 h -81.33 z m -1033.32,66.8 h 81.32 l -18.28,-67.74 H 4657.3 Z M 3439.69,2060 h 81.36 l -18.32,-67.73 h -81.36 z m 954.8,-101.45 h 765.63 l -12.78,-40.89 h -155 l -25.46,-98.17 c 23.9,23.4 52.77,33.91 86.36,33.91 42.74,0 75,-21.13 65.47,-58.05 l -54.92,-213.75 h -90 l 47.19,183.67 c 6.13,23.75 5.78,42.23 -22.97,42.23 -20.67,0 -34.96,-17.38 -43.6,-35.98 l -22.34,-86.05 c -4.49,-17.42 -29.34,-122.54 -31.91,-139.92 h -93.21 l 28.48,114.06 c -25.27,-23.75 -51.68,-32.19 -85.51,-32.19 -42.77,0 -75,21.1 -65.51,58.05 l 60.32,232.19 h -71.33 l -95.7,-372.5 h -85.51 l 95.74,372.5 h -67.62 l -95.74,-372.5 h -85.47 l 50.28,195.62 h -69.5 l 11.6,41.68 h 68.6 l 34.72,135.2 h -53.08 z m 507.78,-40.89 h -67.58 l -52.81,-203.17 c -6.14,-23.75 -5.47,-41.17 23.24,-41.17 28.75,0 39.65,27.07 45.78,50.86 z m -770.43,-371.8 H 4004.1 l 10.78,42.19 h 111.33 c 28.13,0 69.69,15.82 84.02,71.68 9.11,35.35 -6.13,76.29 -56.95,76.29 h -83.59 l 11.17,46.09 h 96.91 c 34.34,0 60.71,29.22 70.63,67.97 7.54,29.26 5.78,68.44 -45.12,68.44 H 4099.3 l 10.78,42.18 h 125.04 c 63.4,0 132.22,-27.3 113.86,-103.4 -13.67,-56.64 -42.81,-85.03 -109.57,-95.74 69.14,-9.37 82.78,-55.35 68.71,-110.11 -26.01,-101.18 -133.47,-105.59 -176.28,-105.59 m -873.52,412.69 -74.77,92.43 62.35,45.7 79.76,-138.13 h 24.14 l -63.86,167.93 75.39,33.52 43.98,-201.45 h 498.36 l -12.77,-40.89 h -173.2 l -21.22,-86.37 c 23.25,25.86 51.76,35.82 86.22,35.82 93.2,0 72.77,-88.09 58.71,-142.93 -13.87,-53.87 -37.27,-131.64 -127.89,-131.64 -17.86,0 -33.99,3.59 -43.13,11.84 l 6.37,24.1 c 2.3,-0.43 5.66,-2.19 8.44,-2.19 38.94,0 49.53,46.6 63.2,99.92 17.26,67.03 18.67,95 -13.87,95 -27.19,0 -43.24,-20.19 -58.51,-71.56 l -50.67,-204.18 -85.04,0.15 22.07,81.1 c -24.53,-25.86 -51.72,-34.84 -86.17,-34.84 -93.2,0 -71.95,92.96 -57.85,147.85 13.83,53.82 36.48,129.22 127.11,129.22 32.58,0 52.89,-7.93 65.55,-30.63 l 20.15,79.34 h -230.66 l -95.67,-372.19 h -85.5 l 22.54,81.25 c -24.54,-25.86 -67.39,-34.06 -101.84,-34.06 -93.2,0 -74.65,94.96 -60.55,149.88 13.83,53.83 39.18,127.23 129.85,127.23 32.54,0 68.51,-8.75 81.17,-31.45 l 20.15,79.34 h -208.55 l 12.73,40.89 z m -65.78,-158.63 66.8,-86.72 5.35,19.57 c 13.67,53.32 24.29,90.47 -24.26,90.94 -23.09,0.24 -37.58,-8.55 -47.89,-23.79 m 51.13,-128.79 -68.28,88.44 c -2.46,-8.28 -4.8,-17.19 -7.19,-26.56 -17.22,-67.03 -16.52,-94.53 24.61,-94.53 24.1,0 39.03,10 50.86,32.65 m 296.64,-125.51 c 22.54,81.29 22.07,81.1 22.07,81.1 z m -15.93,92.15 c 30.62,0 43.55,27.97 60.78,95 13.71,53.32 23.82,90.28 -13.17,90.28 -38.94,0 -47.81,-36.96 -61.52,-90.28 -17.23,-67.03 -18.67,-95 13.91,-95 m 2362.53,202.85 18.17,77.04 h -253.09 l -95.66,-372.19 h -85.55 l 22.58,81.25 c -24.53,-25.86 -67.38,-34.06 -101.88,-34.06 -93.16,0 -77.85,89.64 -63.75,144.53 13.87,53.83 42.43,132.58 133.05,132.58 32.58,0 68.56,-8.75 81.21,-31.45 l 20.16,79.34 h -207.27 l 12.82,40.89 h 608.24 l -74.77,92.43 62.35,45.7 79.76,-138.13 h 24.1 l -63.83,167.93 75.36,33.52 44.02,-201.45 h 574.22 l -12.77,-40.89 h -47.97 l -95.75,-372.5 h -85.46 l 95.7,372.5 h -74.22 l -29.77,-94.57 H 6327.5 c -38.95,0 -49.69,-46.57 -65.62,-115.32 -19.18,-82.61 -34.03,-132.34 19.72,-132.34 3.63,0 9.65,1.52 17.11,4.02 -5.62,50.86 23.59,110.16 83.79,110.16 54.96,0 55.08,-30.16 47.58,-56.68 -10.47,-37.42 -29.65,-57.54 -66.68,-67.97 19.06,-35.94 65.08,-38.75 65.08,-38.75 l -92,-50.47 c -21.05,25 -33.75,47.11 -37.5,72.62 -22.57,-6.02 -47.5,-7.77 -66.48,-7.77 -110.47,0 -92.03,107.89 -73.44,180.93 19.14,75.08 51.84,140.94 142.46,140.94 32.54,0 69.1,-2.11 69.1,-2.11 l 16.29,57.31 h -240.86 l -95.74,-372.5 h -85.51 l 95.75,372.5 h -68.52 l -34.1,-131.33 h -85.82 c 7.23,28.87 -6.09,39.49 -42.5,39.49 -33.09,0 -42.89,-4.65 -56.45,-51.72 -9.76,-40.27 1.72,-48.75 41.61,-47.77 h 68.32 c 50.11,0 59.14,-18.91 41.44,-93.4 -22.07,-83.95 -63.05,-88.87 -114.3,-88.83 h -99.96 c -87.34,-0.04 -90.62,39.1 -70.86,102.5 h 98.68 c -9.11,-33.44 -28.87,-66.44 28.47,-66.44 34.53,0 46.14,8.32 59.46,56.52 10.82,34.77 13.39,52.81 -39.3,52.81 0,0 -46.64,0.82 -68.99,0.78 -58.59,0 -49.29,49.57 -38.67,90.63 20.74,75.86 35.59,85.58 122.93,85.58 53.56,0 77.35,-5.82 84.92,-25.86 m -445,-43.94 67.62,-87.85 6.6,23.94 c 13.71,53.32 24.34,90.47 -24.22,90.94 -24.72,0.24 -39.57,-9.84 -50,-27.03 m 51.33,-129.06 -67.65,87.58 -5.9,-22.19 c -17.27,-67.03 -16.53,-94.53 24.61,-94.53 22.77,0 37.38,8.9 48.94,29.14 m -775.74,420.62 c -21.02,-80.66 -58.01,-85.12 -104.26,-85.08 h -90.19 c -75.35,-0.04 -81.37,32.23 -66.17,85.08 h 89.06 c -8.48,-27.46 -19.57,-52.58 27.89,-52.58 31.21,0 41.64,7.54 53.63,51.06 z"
         style="fill:#f16522;fill-opacity:1;fill-rule:evenodd;stroke:none"
         id="path46" /><path
         d="m 3266.13,401.172 c 2.07,3.09 3.13,3.558 5.2,6.598 -4.45,7.46 -4.03,16.101 -5.08,23.32 -3.59,0.43 -5.94,3.398 -5.59,16.41 0.24,9.84 0.28,15.738 6.92,15.781 -3.24,10.508 0.7,21.797 8.83,30.86 6.13,6.839 23,9.449 38.47,8.91 18.79,-0.672 36.06,-6.68 31.88,-18.481 2.19,-1.05 4.92,-1.41 5.78,-3.199 4.96,-10.082 5.27,-21.492 -1.02,-33.711 -2.07,-23.051 -12.54,-42.461 -31.4,-58.172 7.77,-4.097 15.27,-7.457 22.54,-12.457 5.07,-3.511 7.26,-9.261 10.82,-21.09 6.91,-23.171 12.85,-46.453 8.47,-73.281 -10.9,-10.59 -23.32,-18.949 -37.22,-24.14 -4.18,-1.571 -5.94,0.699 -7.03,2.339 -3.91,-10.82 -8.05,-21.679 -12.5,-32.5 -1.49,-0.859 -2.54,-1.211 -4.81,-1.48 -7.97,-53.719 -16.33,-106.719 -13.75,-160.4298 3.59,-5.8984 7.19,-11.7578 10.78,-17.6601 -10.94,-0.3477 -23.87,-1.0196 -34.76,0.5117 0.35,4.8398 3.08,11.0078 5.04,16.0078 -5.12,27.3125 -7.47,54.8904 -12.58,82.1914 -4.18,-28.441 -7.15,-56.6016 -11.29,-85.0391 2.15,-3.1211 2.97,-6.6015 3.79,-10.2304 -12.82,-3.4414 -21.72,-1.8008 -26.96,0.7812 1.61,4.5703 3.01,7.0274 5.12,10 0.2,39.2893 -1.25,78.5473 -3.4,117.8473 -6.36,25.59 -7.5,50.082 -6.29,74.063 -26.91,11.957 -44.18,25.976 -51.75,42.066 22.89,59.922 56.91,94.461 101.79,104.184 m -52.93,-91.293 c -4.72,-1.758 -9.1,-5.617 -12.11,-10.039 4.3,-2.461 8.79,-5.781 11.37,-9.102 1.02,5.864 1.06,13.282 0.74,19.141"
         style="fill:#2e3191;fill-opacity:1;fill-rule:evenodd;stroke:none"
         id="path48" /><path
         d="m 3298.4,461.559 c 9.69,3.832 15.9,1.601 21.05,-2.297 2.62,-1.992 0.2,-6.211 -2.73,-4.731 -5.74,2.969 -10.9,6.797 -18.32,7.028 m -1.92,-15.86 c 5.36,-1.558 11.49,-2.461 14.97,0.512 1.79,-4.02 -0.63,-5.859 -3.99,-6.172 -4.61,-0.43 -11.01,2.031 -10.98,5.66 m 37.11,26.371 c -15.19,-2.34 -26.75,2.379 -38.2,7.231 -7.62,3.238 -12.97,0.969 -15.04,-6.531 -1.64,-5.891 -2.65,-11.95 -4.02,-17.969 -1.33,0.508 -2.35,2.347 -4.96,2.109 -3.28,-0.308 -3.71,-3.39 -4.18,-8.59 -0.24,-2.89 -1.1,-7.07 1.95,-8.441 1.25,-0.539 2.85,0.43 3.16,1.641 0.75,-4.532 1.25,-9.02 0.79,-13.282 -1.02,-0.148 -2.35,-0.078 -2.58,-1.09 -0.71,-3.519 -0.35,-7.847 1.05,-11.128 5.9,-13.442 21.02,-22.54 34.69,-24.34 7.66,-0.981 18.59,3.519 20.47,11.84 0.51,2.101 -0.55,2.07 -2.5,1.281 -15.63,-6.403 -25.04,4.969 -26.56,10.398 -0.24,0.852 0.74,2.461 1.48,2.102 9.14,-4.41 15.78,-11.25 31.33,-9.332 6.33,7.691 11.17,16.293 12.81,24.691 -3.12,-2.66 -6.4,-3.949 -9.8,-4.14 1.29,-11.961 -18.83,-11.68 -20.51,0.968 3.94,-2.457 8.4,-3.398 13.28,-3.16 2.3,0.121 3.75,1.25 3.75,3.473 v 5.98 c 4.02,-2.621 8.01,-3.75 14.02,0.739 0.28,4.101 0.75,8.21 1.02,12.308 -5.7,0.942 -8.71,1.793 -9.02,4.184 3.32,1.519 7.34,2.066 12.03,1.519 0.78,5.899 0.27,9.809 -1.33,13.707 -2.38,5.782 -7.23,4.774 -13.13,3.832 M 3219.3,371.762 c 9.57,-7.114 17.65,-18.012 15.15,-36.492 -0.5,-3.711 -3.43,-7.071 -6.52,-8.981 -14.69,-8.988 -25.78,-17.738 -33.95,-28.75 13.29,-7.027 23.25,-17.5 30.98,-30.309 -5.66,1.211 -8.55,-1.21 -8.67,-7.429 -21.49,7.738 -35.74,22.347 -48.52,38.359 11.96,28.789 28.44,53.871 51.53,73.602 m 115.35,-66.492 c 0.55,-4.29 0.39,-8.59 -0.55,-12.93 -5.15,-7.461 -10.7,-14.328 -14.92,-22.418 -1.72,-3.242 -0.39,-8.981 4.69,-7.461 14.25,4.258 24.06,13.559 33.47,23.277 4.34,30.742 -1.4,48.09 -7.46,64.102 0,0 -15.78,-40.231 -15.23,-44.57 m -61.84,98.48 c 0.86,-0.309 23.79,-15.352 33.83,-16.871 -0.39,-1.801 -0.78,-3.559 -1.13,-5.32 -15.35,2.742 -27.07,7.851 -34.73,16.14 -1.72,1.789 1.17,6.36 2.03,6.051 m -46.91,-28.281 c 11.52,10.66 25.15,16.332 39.57,20.152 10.7,-8.902 22.89,-15.351 37.19,-18.199 3.75,-52.223 -1.88,-100.543 -21.14,-143.203 -20.07,-1.879 -38.47,0.582 -56.17,3.902 -2.58,0.508 -4.26,1.098 -4.22,4.891 0.08,5.508 0.75,10.816 1.57,16.25 11.09,-0.352 21.4,-0.711 33.28,-1.102 3.86,-0.109 5.74,6.219 0.74,6.68 -7.74,0.75 -14.77,1.488 -22.15,2.23 -5.78,6.41 -11.6,12.809 -17.42,19.219 1.01,8.672 1.01,17.813 0.43,27.191 7.93,4.879 14.37,9.25 20.15,13.36 5.32,19.41 0.28,35.23 -11.83,48.629 m 83.59,4.019 c 2.58,1.723 5.16,3.481 7.74,5.203 7.73,-4.57 15.58,-8.953 23.2,-13.75 4.69,-2.972 6.45,-7.543 5.16,-13.75 -1.1,-5.472 -2.66,-10.711 -4.65,-15.742 -4.85,-0.238 -9.42,0.539 -13.91,1.442 v 8.828 c 0,3.832 -5.82,1.832 -5.94,-0.239 -0.43,-6.601 -0.82,-13.199 -1.21,-19.8 -0.35,-5.352 6.06,-3.239 6.41,1.332 0.12,1.367 0.27,2.769 0.39,4.136 3.94,-0.238 7.89,-0.468 11.84,-0.699 -6.02,-26.57 -16.72,-57.187 -35.63,-97.859 -1.17,-2.61 -2.23,-4.641 -5.16,-4.68 -3.12,-0.039 -6.52,-0.32 -9.61,0.11 5.94,16.679 10.83,34.218 14.15,51.179 0.46,-1.25 1.68,-2.187 3.08,-2.187 1.84,0 3.36,1.558 3.36,3.468 0,1.918 -1.52,3.481 -3.36,3.481 -0.94,0 -1.76,-0.391 -2.38,-1.051 1.44,7.77 2.62,15.578 3.55,23.391 0.55,-1.25 1.72,-2.102 3.09,-2.102 1.84,0 3.36,1.563 3.36,3.473 0,1.918 -1.52,3.437 -3.36,3.437 -1.09,0 -2.03,-0.55 -2.66,-1.371 0.98,8.563 1.64,17.153 2.11,25.782 0.55,-1.09 1.68,-1.872 2.97,-1.872 1.84,0 3.32,1.563 3.32,3.473 0,1.918 -1.48,3.481 -3.32,3.481 -1.17,0 -2.19,-0.622 -2.81,-1.563 0.51,11.441 0.58,22.93 0.27,34.449"
         style="fill:#ffffff;fill-opacity:1;fill-rule:evenodd;stroke:none"
         id="path50" /><path
         d="m 4913.59,1.51953 h 12.0703 v 557.27 H 4913.59 Z"
         style="fill:#231f20;fill-opacity:1;fill-rule:nonzero;stroke:none"
         id="path52" /><path
         d="M 5027.34,3.85938 H 6800 v 555.16 H 5027.34 Z"
         style="fill:#162b76;fill-opacity:1;fill-rule:evenodd;stroke:none"
         id="path54" /><path
         d="m 5817.03,261.828 h 868.117 V 276.91 H 5817.03 Z"
         style="fill:#c9d4d9;fill-opacity:1;fill-rule:evenodd;stroke:none"
         id="path56" /><path
         d="m 6516.37,423.828 -331.84,-0.238 -78.98,48.172 c -14.3,6.25 -38.64,5.187 -58.28,-2.582 l 19.02,-30.86 c 13.44,7.11 30.47,10.981 49.73,5.7 13.36,-4.329 28.43,-11.95 37.34,-19.961 l -117.38,0.082 -0.28,-17.301 h 110 v -12.192 h -94.49 c -45.08,1.762 -60.94,-59.527 -3.28,-63.828 28.98,-2.929 64.73,1.879 97.5,10.981 l 0.27,-13.36 h -17.5 l 0.32,-13.441 87.61,-0.551 0.12,13.992 h -17.34 v 38.039 h -53.21 c -6.95,-8.55 -13.12,-13.468 -24.1,-16.281 l -29.3,-0.937 c -11.64,1.047 -24.57,6.207 -22.92,18.238 2.07,5.59 10.46,9.379 21.32,9.262 h 106.49 v 29.289 l 139.65,-0.781 v -16.641 h -96.02 c -20.16,-6.051 -35.35,-22.18 -6.99,-39.609 21.17,-14.141 48.4,-16.321 50.62,-5.5 3.44,6.992 2.93,16.601 1.76,22.96 h 50.63 V 328.051 H 6315 l -0.2,-12.742 93.44,-0.309 -0.15,13.16 -19.77,-0.039 v 79.5 h 48.87 v -79.5 l -19.18,0.039 V 315 h 90.78 l -0.39,13.121 h -20.59 v 79.5 l 28.95,0.578 z"
         style="fill:#ffffff;fill-opacity:1;fill-rule:evenodd;stroke:none"
         id="path58" /><path
         d="M 5994.88,87.0703 V 112.34 h 13.17 v 75.711 h -13.17 v 25.23 h 61.64 c 9.03,0 16.76,-0.511 23.28,-1.519 6.49,-1.024 11.76,-2.582 15.79,-4.614 11.52,-5.937 19.96,-13.519 25.39,-22.738 5.47,-9.211 8.16,-20.621 8.16,-34.25 0,-13.48 -2.73,-24.851 -8.16,-34.109 -5.47,-9.289 -13.95,-16.8713 -25.39,-22.8127 -4.03,-2.0274 -9.3,-3.5899 -15.79,-4.6094 -6.52,-1.0078 -14.25,-1.5586 -23.28,-1.5586 z M 6042.7,188.051 V 112.34 h 10.03 c 13.44,0 23.6,3.172 30.47,9.57 6.92,6.41 10.39,15.789 10.39,28.25 0,12.461 -3.43,21.91 -10.31,28.32 -6.91,6.399 -17.07,9.571 -30.55,9.571 z M 6136.17,87.0703 V 112.34 h 13.17 v 75.711 h -13.17 v 25.23 h 116.56 v -45.39 h -22.53 l -7.93,20.16 h -38.99 v -20.512 h 25.63 v -28.051 h -25.63 V 112.34 h 38.99 l 7.93,24.539 h 22.53 V 87.0703 Z m 125.39,0 V 112.34 h 13.17 v 75.711 h -13.17 v 25.23 h 46.17 l 43.32,-69.57 -1.05,44.34 h -13.91 v 25.23 h 59.73 v -25.23 h -12.97 V 87.0703 h -28.12 l -47.85,76.0897 0.7,-50.82 h 13.71 V 87.0703 Z m 134.61,0 V 112.34 h 10.98 l 24.18,75.711 h -12.81 v 25.23 h 91.52 v -25.23 h -12.62 l 23.99,-75.711 h 11.17 V 87.0703 h -56.84 V 112.34 h 11.56 l -5.23,17 h -35.59 l -4.84,-17 h 11.37 V 87.0703 Z m 55.59,64.6917 h 25.12 l -12.7,39.957 z"
         style="fill:#ffffff;fill-opacity:1;fill-rule:evenodd;stroke:none"
         id="path60" /><path
         d="m 5142.15,87.6211 h 213.906 v 369.609 H 5142.15 Z"
         style="fill:#c9d4d9;fill-opacity:1;fill-rule:evenodd;stroke:none"
         id="path62" /><path
         d="M 5381.52,89.1797 V 230.078 l 80.59,-0.348 c 86.05,5.891 93.59,79.961 -0.94,87.848 h -79.65 V 457.23 c 423.01,33.79 431.41,-403.2808 0,-368.0503"
         style="fill:#c9d4d9;fill-opacity:1;fill-rule:evenodd;stroke:none"
         id="path64" /><path
         d="m 5212.42,398.52 c 19.03,32.691 61.29,25.582 72.23,-1.411 32.54,0.59 52.97,-13.871 38.51,-42.5 25.16,-13.871 18.95,-27.73 6.92,-39.531 -14.57,-17.148 -0.51,-24.957 5.94,-33.168 V 119.648 h -175.86 v 165.864 c 20.54,9.918 18.24,21.91 7.89,32.218 -16.37,18.75 -11.72,31.801 6.83,38.321 -16.13,33.64 12.5,47 37.54,42.469"
         style="fill:#ffffff;fill-opacity:1;fill-rule:evenodd;stroke:none"
         id="path66" /><path
         d="m 5254.1,345.621 c 0.16,-0.152 0.24,-0.312 0.24,-0.543 0,-0.469 -0.43,-0.859 -0.98,-0.898 -0.59,-0.039 -1.06,0.351 -1.06,0.82 -0.03,0.27 0.08,0.469 0.28,0.66 l 0.04,0.039 c 0.31,0.039 0.43,0.082 0.43,0.082 0.47,0 0.78,-0.121 0.78,-0.121 z m -0.82,-0.391 c 0,0 -0.19,-0.109 -0.19,-0.191 0,-0.078 0.07,-0.16 0.07,-0.16 0,0 0.32,0.082 0.32,0.16 0,0.082 -0.08,0.191 -0.2,0.191"
         style="fill:#e82629;fill-opacity:1;fill-rule:evenodd;stroke:none"
         id="path68" /><path
         d="m 5243.01,345.621 c -0.2,-0.152 -0.24,-0.312 -0.24,-0.543 -0.04,-0.469 0.39,-0.859 0.94,-0.898 0.59,-0.039 1.06,0.351 1.09,0.82 0,0.27 -0.11,0.469 -0.31,0.66 l -0.04,0.039 c -0.27,0.039 -0.43,0.082 -0.66,0.082 0,0 -0.55,-0.121 -0.74,-0.121 z m 0.78,-0.391 c 0,0 0.19,-0.109 0.19,-0.191 0,-0.078 -0.07,-0.16 -0.07,-0.16 0,0 -0.28,0.082 -0.28,0.16 0,0.082 0.08,0.191 0.16,0.191"
         style="fill:#e82629;fill-opacity:1;fill-rule:evenodd;stroke:none"
         id="path70" /><path
         d="m 5199.22,315.898 2.42,3.321 c 0,0 0.12,0.742 1.25,0.742 1.17,0 0.78,-0.43 1.25,-0.941 0.47,-0.5 0.59,-2.379 0.47,-3.122 -0.12,-0.699 -0.47,-1.449 -1.02,-1.878 -0.58,-0.391 -1.4,-0.071 -2.54,-0.071 -1.13,0 -1.91,0.891 -1.91,1.442 z m 42.34,29.223 c 0.16,0 0.32,0.078 0.47,0.109 z m 0.47,0.109 0.2,0.04 z m 0.2,0.079 h 0.04 l 0.07,0.043 z m 0.19,0.082 c 0.16,0.039 0.35,0.121 0.51,0.16 z m 0.55,0.16 c 0.51,0.148 1.05,0.23 1.56,0.039 0.24,-0.078 0.59,-0.199 0.9,-0.36 0.23,-0.109 0.47,-0.269 0.51,-0.429 -0.08,-0.071 -0.32,-0.153 -0.51,-0.231 -0.12,-0.039 -0.27,-0.082 -0.39,-0.121 -0.31,-0.148 -0.82,-0.269 -1.33,-0.269 -0.43,0 -0.9,0.082 -1.33,0.269 h -0.11 c -0.24,0.121 -0.82,0.352 -0.86,0.512 l 0.04,0.078 z m -1.52,-0.512 0.11,0.039 z m 13.98,0.082 c -0.16,0 -0.31,0.078 -0.47,0.109 z m -0.47,0.109 c 0,0 -0.12,0.04 -0.19,0.04 z m -0.19,0.079 h -0.04 l -0.12,0.082 z m -0.2,0.082 c -0.16,0.039 -0.31,0.121 -0.51,0.16 z m -0.55,0.16 1.57,-0.512 0.03,-0.039 c -0.07,-0.199 -0.66,-0.43 -0.89,-0.551 h -0.08 c -0.43,-0.187 -0.9,-0.269 -1.37,-0.269 -0.51,0 -1.01,0.121 -1.33,0.269 -0.11,0.039 -0.23,0.082 -0.39,0.121 -0.19,0.078 -0.39,0.16 -0.47,0.231 0,0.16 0.24,0.32 0.47,0.429 0.32,0.161 0.67,0.282 0.9,0.36 0.55,0.191 1.06,0.109 1.56,-0.039 m 1.53,-0.512 -0.12,0.039 z m -6.8,-9.769 c -1.02,-0.071 -2.11,0.121 -2.38,0.511 -0.24,0.27 -0.59,0.547 -0.98,0.739 h 0.23 c 1.02,0 1.29,0.628 2.39,0.628 0,0 0.58,-0.429 0.7,-0.507 0.16,0.078 0.63,0.507 0.63,0.507 1.21,0 1.48,-0.628 2.46,-0.628 h 0.23 c -0.35,-0.192 -0.66,-0.469 -0.9,-0.739 -0.39,-0.511 -1.79,-0.551 -2.38,-0.511 m -7.19,9.808 v 0.043 z m 0.9,0.902 0.08,-0.121 c 0.55,0.192 1.01,0.313 1.48,0.27 0.51,-0.039 1.02,-0.231 1.72,-0.738 l 0.12,0.16 c -0.74,0.469 -1.29,0.699 -1.84,0.738 -0.5,0.039 -0.97,-0.078 -1.56,-0.309 m -1.05,-0.781 -0.08,0.031 c -0.31,0.04 -0.59,0.122 -0.63,0.282 l 0.2,0.039 c 0,-0.082 0.19,-0.16 0.19,-0.16 l 0.28,-0.039 v 0.039 c -0.16,0.078 -0.32,0.16 -0.32,0.269 l 0.16,0.039 c 0,-0.078 0.12,-0.148 0.24,-0.148 l 0.19,-0.082 c -0.16,0.082 -0.27,0.152 -0.31,0.269 l 0.15,0.043 c 0.04,-0.082 0.12,-0.121 0.24,-0.191 0.08,-0.039 0.16,-0.039 0.16,-0.039 -0.04,0 -0.12,0.109 -0.2,0.23 l 0.16,0.078 c 0.04,-0.121 0.11,-0.199 0.23,-0.199 l 0.12,-0.07 c -0.08,0.031 -0.16,0.109 -0.2,0.191 l 0.12,0.078 c 0.08,-0.078 0.16,-0.16 0.23,-0.199 0.08,-0.039 0.16,-0.039 0.16,-0.039 0,0 -0.08,0.078 -0.16,0.16 l 0.16,0.078 c 0.12,-0.16 0.23,-0.16 0.23,-0.16 h 0.16 c 0.55,0.16 1.13,0.242 1.68,0.039 0.23,-0.078 0.59,-0.187 0.94,-0.347 0.31,-0.192 0.58,-0.391 0.58,-0.621 v -0.04 c -0.07,-0.121 -0.35,-0.199 -0.58,-0.281 -0.16,-0.039 -0.28,-0.109 -0.39,-0.148 -0.35,-0.16 -0.86,-0.281 -1.41,-0.281 -0.47,0 -0.98,0.082 -1.41,0.281 l -0.07,0.039 c -0.28,0.109 -0.9,0.351 -0.98,0.582 v 0.117 l -0.31,0.039 c -0.2,0 -0.43,0.121 -0.47,0.274 l 0.15,0.039 c 0,-0.121 0.16,-0.161 0.16,-0.161 0.31,-0.031 0.51,-0.031 0.51,-0.031 z m 14.02,-0.121 v 0.043 z m -0.86,0.781 h -0.04 l 0.12,-0.078 c -0.08,-0.082 -0.16,-0.16 -0.16,-0.16 0,0 0.08,0 0.16,0.039 0,0 0.15,0.121 0.23,0.199 l 0.16,-0.078 c -0.08,-0.082 -0.16,-0.16 -0.24,-0.191 l 0.08,0.031 c 0.16,0.039 0.24,0.117 0.28,0.238 l 0.15,-0.078 c -0.04,-0.082 -0.11,-0.16 -0.19,-0.23 l -0.08,-0.039 0.19,0.039 0.04,0.039 c 0.12,0.07 0.2,0.109 0.24,0.191 l 0.15,-0.043 c 0,-0.078 -0.04,-0.117 -0.11,-0.187 -0.08,0 -0.12,-0.039 -0.12,-0.039 l -0.08,-0.043 h 0.04 l 0.2,0.082 h 0.03 c 0.08,0.07 0.16,0.109 0.16,0.148 l 0.16,-0.039 c 0,0 0,-0.07 -0.04,-0.109 -0.04,-0.039 -0.08,-0.082 -0.16,-0.121 l -0.08,-0.039 h -0.04 l -0.03,-0.039 0.11,0.039 h 0.04 c 0,0 0.12,0 0.2,0.039 h 0.04 l 0.04,0.039 c 0,0 0.07,0.043 0.07,0.082 l 0.2,-0.039 -0.04,-0.043 -0.04,-0.078 h -0.04 l -0.08,-0.082 -0.15,-0.039 -0.08,-0.04 h -0.16 l -0.11,-0.031 h 0.19 l 0.27,0.031 h 0.12 l 0.16,0.079 0.04,0.082 h 0.04 l 0.11,-0.039 -0.04,-0.043 v -0.039 l -0.03,-0.04 c 0,0 -0.04,-0.031 -0.08,-0.07 l -0.12,-0.039 -0.16,-0.043 -0.35,-0.039 v -0.117 c -0.08,-0.231 -0.66,-0.473 -0.97,-0.582 l -0.04,-0.039 c -0.47,-0.199 -0.98,-0.281 -1.45,-0.281 -0.55,0 -1.05,0.121 -1.4,0.281 -0.12,0.039 -0.24,0.109 -0.36,0.148 -0.27,0.082 -0.54,0.16 -0.62,0.281 v 0.04 c 0,0.23 0.27,0.429 0.62,0.621 0.32,0.16 0.67,0.269 0.9,0.347 0.59,0.203 1.13,0.121 1.68,-0.039 0,0 0.28,0 0.39,0.16 -0.51,0.192 -0.97,0.313 -1.44,0.27 -0.47,-0.039 -1.02,-0.231 -1.72,-0.738 l -0.12,0.16 c 0.74,0.469 1.33,0.699 1.84,0.738 0.5,0.039 0.97,-0.078 1.6,-0.309 z m -27.15,-12.621 c -4.18,-7.258 -9.96,-17.968 -11.68,-23.898 -1.13,-1.289 -1.05,-1.57 -3.86,1.25 -7.27,7.262 1.17,16.441 -7.5,18.75 1.01,0.969 1.48,3.629 2.46,3.672 4.21,-0.981 4.76,0.777 4.45,1.047 1.8,0.429 3.67,-0.079 0.9,2.23 -0.59,0.473 3.79,3.242 3.83,4.063 0.27,6.949 -25.12,4.378 -23.75,0.507 0.46,-1.289 2.3,-2.808 2.5,-3.238 0.35,-0.742 -2.43,-1.141 -1.8,-1.723 0.55,-0.507 2.03,-0.937 2.46,-1.25 0.39,-0.308 -0.66,-0.859 0.27,-1.168 0.9,-0.281 4.61,-0.39 4.61,-0.39 0.28,-1.531 2.27,-2.781 2.85,-3.871 l -1.52,-0.309 c -1.33,-0.238 -3.44,-2.539 -4.3,-3.949 -0.5,-0.859 -1.48,-1.133 -1.64,-1.91 -2.58,-12.27 9.34,-15.43 14.61,-27.781 1.53,-3.508 -11.76,-19.25 -13.51,-21.911 -0.86,-1.289 -4.5,-5.121 -2.85,-8.129 1.64,-2.96 -0.12,-5.781 1.56,-6.75 5.35,-3.25 10.43,-0.39 11.37,5.43 -0.55,8.981 9.37,18.668 16.01,23.981 -2.54,-9.141 -5.66,-22.813 -2.73,-37.731 0.46,-2.269 4.49,-21.449 5.04,-24.73 0.58,-3.321 3.12,-29.102 3.39,-30.86 0.12,-0.859 0.08,-6.129 -1.99,-5.351 -4.65,-0.508 -30.23,-3.949 -24.72,-11.449 3.35,-4.61 9.25,-11.36 10.07,-13.161 1.41,-2.929 -9.8,-4.449 -7.22,-6.839 2.15,-1.989 8.12,-3.711 9.8,-5.04 1.68,-1.281 -2.54,-3.39 1.13,-4.64 3.64,-1.289 18.56,-1.719 18.56,-1.719 0,0 4.84,-6.57 7.03,-8.949 1.25,-1.332 8.2,-3.902 6.99,-11.641 l 2.66,-0.082 c 0,0 -1.52,8.68 1.56,10.473 3.4,1.949 4.14,9.687 8.16,9.848 16.92,-3.911 19.18,3.242 18.01,4.449 7.19,1.679 14.77,-0.508 3.64,8.793 -2.39,1.988 15.27,13.199 15.39,16.437 0.39,11.289 -24.69,14.071 -32.62,15.121 -5.59,52.418 12.54,66.45 1.91,99.77 -0.47,-1.25 2.89,3.16 4.89,0.39 10.78,-14.96 40.11,-16.371 43.71,-7.23 0.58,3.359 -6.37,6.762 -9.5,6.762 -3.63,0 -9.37,-1.172 -11.44,-1.532 -4.84,-0.781 -11.52,4.731 -10.55,9.461 0.63,2.969 4.92,4.918 5.2,8.547 1.48,-0.226 6.68,4.571 8.44,10.473 3.71,8.75 -0.55,12.5 -4.34,15.391 0.82,0.628 0.98,2.308 1.84,2.308 3.59,-0.82 4.06,0.699 3.82,0.93 1.53,0.39 3.13,-0.07 0.78,1.922 -0.5,0.429 3.25,2.769 3.29,3.468 0.19,5.981 -21.61,3.75 -20.43,0.469 0.39,-1.129 1.99,-2.461 2.14,-2.808 0.32,-0.621 -2.07,-0.942 -1.52,-1.442 0.43,-0.429 1.72,-0.82 2.07,-1.097 0.39,-0.274 -0.55,-0.704 0.24,-0.981 0.78,-0.269 3.94,-0.391 3.94,-0.391 0,0 0.94,-1.75 2.27,-2.378 0.5,-0.352 -0.71,-0.864 -3.56,-3.012 -2.81,-2.11 -1.95,-3.551 -1.36,-6.789 0.42,-2.352 0.27,-7.582 -4.38,-8.75 -0.62,-0.16 -0.94,-1.762 -1.64,-1.68 -1.95,0.231 -0.82,6.359 -4.22,8.899 -3.36,2.539 -7.5,10.121 -7.5,10.121 l -1.33,1.757 c 3.28,1.993 6.21,4.454 8.64,7.262 4.92,5.668 7.81,12.86 7.81,20.43 0,9.14 -4.14,17.461 -10.78,23.48 -6.64,6.02 -15.82,9.77 -25.9,9.77 -10.08,0 -19.26,-3.75 -25.9,-9.77 -6.64,-6.019 -10.74,-14.34 -10.74,-23.48 0,-7.77 2.97,-15.039 8.04,-20.82 2.39,-2.731 5.24,-5.071 8.44,-7.032 m 38.44,2.703 c -5,6.719 -2.34,8.981 -2.97,11.329 -0.62,2.218 -0.59,4.609 -1.13,6.402 -0.55,1.598 -0.59,1.879 -2.11,4.058 l 0.12,-0.191 c -2.66,-1.328 -5.43,-2.187 -8.25,-2.539 0.08,0.121 0.16,0.27 0.24,0.43 2.65,0.39 5.23,1.25 7.77,2.5 -0.08,0.121 -0.19,0.269 -0.31,0.429 -0.04,0.082 -0.12,0.161 -0.2,0.231 l 0.08,-0.07 c -2.34,-1.098 -4.72,-1.84 -7.19,-2.192 v 0.082 c 0,0.11 0,0.231 -0.03,0.352 2.38,0.347 4.72,1.09 6.99,2.109 -0.16,0.231 -0.32,0.508 -0.43,0.699 v -0.039 c -2.19,-0.98 -4.46,-1.64 -6.8,-1.953 -0.08,0.152 -0.12,0.274 -0.23,0.391 2.34,0.312 4.61,0.98 6.83,1.91 -0.12,0.281 -0.23,0.473 -0.35,0.711 -2.34,-0.981 -4.77,-1.61 -7.27,-1.84 -0.19,0.121 -0.39,0.27 -0.62,0.352 2.66,0.199 5.23,0.82 7.73,1.878 l 0.04,-0.121 c -0.43,1.211 -0.19,2.153 0.32,3.629 0.74,1.992 0.19,5.782 -1.76,7.313 -0.47,0.39 -0.9,0.738 -1.33,1.129 -2.46,-1.289 -4.41,-1.95 -6.33,-1.989 -1.87,-0.043 -3.71,0.469 -6.05,1.559 -0.39,-0.43 -0.78,-0.82 -1.14,-1.09 -1.6,-1.289 -2.73,-2.93 -2.26,-5.941 0.31,-1.719 0.08,-3.168 -0.35,-4.449 l 0.08,0.152 c 2.77,-1.25 5.5,-1.91 8.24,-2.07 -0.24,-0.122 -0.47,-0.231 -0.67,-0.352 -2.54,0.199 -5.11,0.859 -7.73,1.988 -0.08,-0.187 -0.16,-0.468 -0.27,-0.66 2.42,-1.129 4.88,-1.879 7.26,-2.148 -0.08,-0.121 -0.16,-0.231 -0.23,-0.391 -2.39,0.313 -4.81,1.012 -7.19,2.152 -0.12,-0.242 -0.24,-0.472 -0.35,-0.671 2.46,-1.211 4.88,-1.95 7.3,-2.301 0,-0.117 0,-0.199 0,-0.309 v -0.082 c -2.46,0.313 -4.96,1.094 -7.46,2.301 -0.15,-0.309 -0.31,-0.578 -0.47,-0.899 l 0.16,0.239 c 2.66,-1.367 5.31,-2.188 7.97,-2.578 0.04,-0.121 0.11,-0.313 0.19,-0.43 -2.77,0.309 -5.58,1.211 -8.4,2.66 -0.78,-1.531 -1.56,-3.012 -1.91,-4.922 -0.39,-2.269 -2.89,-9.539 -2.89,-11.289 0,-1.488 -2.07,-3.711 -3.4,-5.469 -2.81,1.758 -5.35,3.86 -7.46,6.289 -4.57,5.231 -7.3,11.829 -7.3,18.86 0,8.289 3.75,15.82 9.76,21.289 6.02,5.473 14.34,8.871 23.48,8.871 9.14,0 17.46,-3.398 23.47,-8.871 6.02,-5.469 9.77,-13 9.77,-21.289 0,-6.91 -2.62,-13.391 -7.07,-18.512 -2.23,-2.578 -4.88,-4.848 -7.89,-6.637 m -15.27,18.079 c 3.32,0.32 6.52,1.332 9.57,2.929 l 0.27,-0.347 c -3.48,-1.832 -7.15,-2.93 -10.94,-3.082 0.43,0.07 0.78,0.269 1.1,0.5 m -2.89,-0.5 c -3.56,0.109 -7.23,1.089 -10.9,3.082 l 0.23,0.347 c 3.24,-1.75 6.45,-2.687 9.61,-2.969 0.31,-0.191 0.7,-0.39 1.06,-0.46 m 1.01,-6.18 c 0.24,0 0.43,-0.11 0.43,-0.309 0,-0.152 -0.19,-0.312 -0.43,-0.312 0,0 -0.43,0.16 -0.43,0.312 0,0.199 0.16,0.309 0.16,0.309 z m 0.04,2.621 c 0.47,0 0.86,-0.43 0.86,-0.941 0,-0.5 -0.39,-0.93 -0.86,-0.93 -0.47,0 -0.86,0.43 -0.86,0.93 0,0.511 0.39,0.941 0.86,0.941 m -2.66,-3.633 c -0.74,0.121 -1.71,0.781 -2.54,0.781 -1.01,-0.039 -2.18,-0.507 -3.16,-0.738 0.59,0.43 1.95,1.289 3.05,1.359 1.01,0.04 2.5,-0.582 2.73,-0.699 0.71,-0.351 1.06,-0.742 -0.08,-0.703 m 5.9,-14.027 c 0,0 0.08,-1.36 0.08,-1.403 1.21,-8.789 -7.69,-10.628 -10.51,-7.269 -3.94,4.691 1.21,3.051 1.33,7.82 0,0.071 0.08,1.281 -0.08,1.871 2.42,-1.679 5.24,-2.699 9.18,-1.019 m -14.45,-153.629 c -0.24,-0.121 -0.82,1.449 -1.95,1.84 -1.14,0.429 1.56,1.25 1.56,1.25 l 2.07,-1.063 c 0,0 0.94,-1.32 0.12,-1.828 -0.79,-0.512 -1.61,-0.121 -1.8,-0.199 m 27.81,8.168 c 2.58,0.23 4.69,-0.391 5.59,-1.918 0,0 -0.9,0.308 -3.01,0.777 -2.11,0.512 -2.58,1.141 -2.58,1.141 m -6.68,-9.809 c -0.74,2.379 -3.79,4.098 -2.73,4.61 2.42,1.129 4.68,-6.211 2.73,-4.61 m 1.21,-2.07 c -2.42,-0.981 2.31,5.348 4.18,3.59 0.82,-0.781 -2.65,-1.52 -4.18,-3.59 m 15.86,4.18 c 0.98,0.738 7.78,-0.121 5.63,-0.621 -3.83,-0.899 -5.16,-0.821 -6.37,-1.571 -0.66,-0.39 -0.04,1.571 0.74,2.192 m -49.72,5.078 c -2.15,0.781 -8.13,-1.52 -6.57,0.312 1.68,1.918 4.07,0.668 5.35,1.367 3.21,1.68 1.22,-0.589 1.22,-1.679 m -18.17,-3.707 c 0.94,3.117 8.63,4.097 10.82,3.867 -1.25,-3.758 -6.95,-1.449 -10.82,-3.867 m 67.38,4.957 c 2.62,0.781 6.14,-0.16 8.64,-2.379 2.34,-2.07 7.73,-1.02 8.24,-4.11 0,0 -1.88,-0.269 -4.45,0.04 -1.76,0.199 -4.3,0.781 -5.04,1.019 -2.27,0.66 -0.43,1.481 -2.27,2.461 -1.83,0.98 -6.52,2.539 -5.12,2.969 m -37.38,-36.559 c -0.12,6.828 15.67,6.481 17.03,1.32 2.82,-4.761 -3.59,-9.289 -6.79,-11.832 -0.82,-0.628 -10.16,4.102 -10.24,10.512 m 19.69,4.531 c 3.32,-2.191 8.75,4.879 16.05,-4.851 -5,-0.86 -12.97,-1.641 -16.05,4.851 m 25.66,1.168 c -2.97,0.121 -8.4,-4.961 -13.24,1.871 3.52,-2.5 8.56,3.68 13.24,-1.871 m -47.42,-0.66 c -3.9,-6.179 -11.68,-4.539 -16.56,-3.168 8.51,8.91 13.01,1.289 16.56,3.168 m 45.7,22.102 c -1.4,-7.223 -8.98,-17.379 -13.71,-16.36 0.47,1.637 6.02,9.528 4.93,12.34 0.46,1.289 6.52,4.528 8.78,4.02 m -9.64,3.129 c 0.7,-0.629 -4.26,-20.899 -13.36,-21.09 1.99,4.801 3.4,11.32 2.69,14.64 2.5,3.211 6.99,4.649 10.67,6.45 m -23.01,3.91 c 3.87,-2 7.11,-5.789 9.37,-9.969 1.25,-2.383 1.29,-6.133 0.32,-8.902 -3.21,-9.18 -10.4,-8.321 -14.89,-5.981 -4.49,2.352 -5.43,8.364 -3.24,15.391 2.15,7.031 9.18,9.301 8.44,9.461 m -23.44,-2.469 c 0,0 10.23,-1.832 11.56,-5.351 0.9,-0.969 -1.48,-11.09 1.25,-15.782 -9.49,-0.148 -12.81,21.133 -12.81,21.133 m -9.69,-2.652 c 10.78,2.07 10.24,-12.27 15.75,-18.129 -5.86,-3.281 -13.21,8.789 -14.11,12.621 -1.29,3.828 -1.64,5.508 -1.64,5.508 m 77.27,-2.188 c -0.7,-1.64 -10.04,-14.492 -15,-13.121 1.6,1.988 4.1,14.25 15,13.121 m -86.72,2.149 c 10.39,1.05 9.1,-9.84 10.51,-11.91 -1.41,-2.782 -11.72,9.921 -10.51,11.91 m 87.93,103.48 c -1.33,0.469 -1.09,2.418 -0.86,3.391 0.66,2.777 7.03,3.359 9.53,3.48 7.19,0.309 12.07,-1.953 8.09,-1.801 l -6.8,0.04 c -0.19,-0.192 -0.16,-0.309 0.12,-0.579 l 4.53,-0.082 3.51,-0.199 c 1.06,-0.269 1.02,-0.969 0.51,-0.969 l -8.36,0.539 c 0.2,-0.07 -0.5,-0.23 0.2,-0.89 4.57,0.148 12.65,-1.18 6.17,-1.102 l -6.25,0.121 c 0,0 -0.16,-0.589 -0.23,-0.781 -0.04,-0.238 0.19,-0.039 0.39,-0.078 16.36,-0.699 3.12,-1.172 -0.08,-0.59 -0.43,0.078 -0.31,-0.66 -0.04,-1.129 l 2.97,-0.941 c 1.21,-0.5 -3.44,-0.461 -7.66,0.16 -2.42,0.352 -4.69,1.09 -5.74,1.41 m -93.44,-5.512 c 0.9,1.012 3.36,-0.117 4.46,-0.628 3.08,-1.442 0.93,-6.872 0.89,-9.18 -0.07,-6.52 -4.72,-10.231 -3.98,-6.641 l 1.95,5.903 c -0.15,0.199 -0.58,0.308 -0.97,0.117 l -2.39,-6.918 c -0.27,-0.93 -1.13,-0.66 -0.93,-0.27 l 2.03,7.379 c -0.2,-0.148 -0.75,0.43 -0.78,-0.039 -0.4,-4.019 -4.26,-10.23 -3.05,-5.109 l 1.83,5.578 c -0.03,-0.192 -0.19,0.238 -0.46,0.359 -0.28,0.11 -0.67,-0.039 -0.71,-0.238 -3.55,-15.313 -2.34,-2.191 -0.7,0.391 0.19,0.347 -0.12,0.277 -0.74,0.199 l -1.99,-2.27 c -0.94,-0.902 -1.06,4.098 1.68,7.11 1.6,1.718 3.16,3.48 3.86,4.257 m 11.14,1.993 c -0.2,-0.27 -0.28,-0.391 -0.51,-0.621 -0.71,1.992 -5.94,5.39 -6.72,4.14 l 0.78,1.211 c 2.97,-0.82 5.16,-2.269 6.45,-4.73 m -2.74,-3.442 c -0.19,-0.269 -0.27,-0.39 -0.47,-0.66 -0.9,1.91 -6.44,4.883 -7.11,3.59 l 0.63,1.25 c 3.04,-0.578 5.39,-1.828 6.95,-4.18 m 78.67,15.43 c 0.31,-0.149 0.47,-0.188 0.82,-0.348 -2.07,-0.941 -5,-6.172 -3.51,-6.722 l -1.41,0.511 c 0.43,2.809 1.64,5 4.1,6.559 m 4.18,-1.91 c 0.31,-0.16 0.47,-0.199 0.82,-0.309 -1.95,-1.14 -4.29,-6.57 -2.77,-6.961 l -1.49,0.352 c 0.16,2.859 1.14,5.16 3.44,6.918 m -17.38,16.371 c 2.07,-5.32 9.8,-11.84 10.31,-13.399 0.51,-1.562 -1.72,-4.222 -3.44,-4.691 -1.71,-0.469 -8.59,6.09 -9.8,8.75 -1.17,2.621 1.41,6.52 2.93,9.34 m -27.46,-65.711 c -1.49,-19.41 5.27,-29.879 8.05,-44.25 -8.95,16.441 -11.88,31.172 -8.05,44.25 m -5.82,-9.719 c -1.49,-14.961 5.27,-23.051 8.05,-34.109 -8.95,12.66 -11.84,24.027 -8.05,34.109 m -6.29,-5.711 c -1.49,-13.16 5.31,-20.269 8.08,-30.039 -8.94,11.18 -11.87,21.18 -8.08,30.039 m -18.75,82.539 c 0,0 3.91,-3.238 8.75,-2.258 l -0.39,-1.531 c -2.7,-0.699 -7.35,1.211 -9.18,2.5 z m 2.5,-7.148 c 10.51,-1.211 -2.85,-14.211 -5.74,-16.168 -3.32,-2.262 -6.1,1.289 -4.1,4.258 1.52,2.3 3.51,6.558 4.25,7.34 1.72,1.878 2.42,4.929 5.59,4.57 m 46.21,26.488 c 4.14,1.332 6.88,-4.848 8.52,-6.957 -3.99,1.258 -4.34,5.828 -8.52,6.957 m -5.62,4.223 c 3.71,0 3.59,-2 3.59,-1.84 0,0.16 -3.01,-1.289 -2.23,-4.223 0.74,-2.968 -0.7,-2.5 -1.36,-2.34 -0.63,0.153 -1.22,5.622 -3.72,0.981 -1.28,1.91 -0.66,4.019 0.36,5.5 0.82,1.141 1.71,1.922 3.36,1.922 m -57.62,-20.75 c -0.12,0.32 -0.2,0.429 -0.31,0.75 2.22,-0.512 8.2,1.719 7.46,2.969 l 0.7,-1.219 c -2.31,-1.832 -4.84,-2.813 -7.85,-2.5 m 84.06,6.801 c 0.23,0.269 0.31,0.386 0.55,0.628 0.62,-2 5.82,-5.468 6.64,-4.261 l -0.78,-1.168 c -2.97,0.859 -5.16,2.34 -6.41,4.801 m -2.11,-2.383 c 0.24,0.23 0.31,0.39 0.55,0.621 0.66,-1.988 5.86,-5.5 6.68,-4.25 l -0.78,-1.18 c -2.97,0.86 -5.16,2.352 -6.45,4.809 m -4.26,-5.508 c 1.33,2.187 6.1,4.488 6.68,0.309 0.16,-1.25 -0.7,-3.75 -2.22,-5 -1.57,-1.25 -3.79,-2.34 -3.79,-2.34 0,0 -3.09,3.121 -0.67,7.031 m -73.36,-1.051 c -0.27,0.11 4.03,2.969 4.65,2.301 0.59,-2.422 4.26,-4.102 4.42,-6.441 0.07,-1.61 -0.59,-3.641 -1.92,-4.77 -0.94,-0.859 -1.52,-0.59 -2.07,0.199 -2.03,2.891 -4.33,8.391 -5.08,8.711 m 11.21,3.199 c 0,0 3.91,-3.199 8.79,-2.269 l -0.39,-1.52 c -2.73,-0.699 -7.38,1.25 -9.22,2.5 z m 13.83,16.871 c 4.69,1.02 1.21,-4.878 3.83,-8.199 0,0 -10.04,-3.871 -8.55,-8.98 -0.63,-1.332 -9.65,-1.68 -7.35,4.219 2.15,4.25 6.25,11.789 12.07,12.96 m -0.86,-35.89 c -1.95,0.351 -0.39,14.68 -0.54,15.351 -1.37,6.047 10.04,12.539 20.82,16.789 1.68,-4.449 -14.53,-8.468 -19.18,-16.949 -0.16,-0.23 -1.02,-6.953 0.66,-9.883 0.82,-1.367 5,1.403 5,0.043 -0.04,-1.992 -6.72,-5.203 -6.76,-5.351 m 42.43,24.289 c 2.57,4.141 4.64,0.82 1.95,-4.098 -3.87,-3.511 -17.35,-36.91 -22.62,-51.293 -5.27,-14.367 -20.55,-28.039 -23.05,-28.668 -2.5,-0.66 -1.56,2.461 2.43,5.629 1.36,1.051 10.5,7.531 14.14,19.641 8.32,27.461 25.23,55.672 27.15,58.789 m -17.66,45.82 c 0.16,0.082 -1.95,3.481 0.39,6.289 0.98,-2.066 0.86,-4.758 -0.39,-6.289 m -13.91,0 c 0.16,0.082 -1.91,3.481 0.39,6.289 0.98,-2.066 0.86,-4.758 -0.39,-6.289 m 54.92,-32.769 c -0.46,-0.821 -1.75,-2.731 -2.93,-2.66 l -0.31,0.32 c 1.14,0.582 2.15,1.601 2.78,2.808 z m 0.94,-1.68 c -0.47,-0.82 -1.76,-2.73 -2.93,-2.621 l -0.31,0.281 c 1.13,0.578 2.15,1.602 2.77,2.852 z m 0.67,-1.328 c -0.51,-0.863 -1.8,-2.731 -2.97,-2.652 l -0.28,0.269 c 1.1,0.621 2.15,1.641 2.74,2.852 z m 0.74,-1.094 c -0.51,-0.859 -1.8,-2.738 -2.97,-2.656 l -0.27,0.308 c 1.09,0.59 2.14,1.61 2.73,2.821 z m -8.79,5.551 -0.16,0.699 c 0.75,0.121 4.73,0.582 4.53,-0.078 -0.19,-0.699 -1.01,-0.59 -1.01,-0.59 z m -0.31,-0.75 c 0,0 3.75,0.75 4.14,-0.508 1.01,-1.211 -0.74,-1.211 -1.37,-1.601 -0.62,-0.348 0.31,-2.461 0.59,-4.68 0.23,-2.231 1.56,-0.75 2.07,-1.61 3.12,-5.582 -4.61,-5.109 -5.04,-4.058 -0.82,2.109 -0.39,12.457 -0.39,12.457 m -5.71,13.32 c 2.23,0.242 1.96,-2.109 2.23,-2.5 -0.27,-0.621 -2.46,2.071 -2.23,2.5 m 18.48,-0.429 c -0.16,-0.348 -2.15,-3.079 -3.2,-2.809 0.35,0.43 0.86,3.051 3.2,2.809 m -16.45,0.429 c 2.31,0.473 2.15,-2.57 3.36,-3.828 -1.28,-0.699 -2.85,1.879 -3,2.699 -0.28,0.782 -0.36,1.129 -0.36,1.129 m 2.04,0.59 c 0,0 2.22,-0.391 2.46,-1.129 0.19,-0.199 -0.32,-2.39 0.27,-3.359 -2.03,-0.039 -2.73,4.488 -2.73,4.488 m 5,0.551 c 0.82,-0.43 1.52,-1.25 1.99,-2.149 0.27,-0.511 0.31,-1.293 0.08,-1.921 -0.67,-1.911 -2.19,-1.719 -3.17,-1.25 -0.97,0.511 -1.17,1.8 -0.7,3.281 0.47,1.488 1.95,2 1.8,2.039 m 4.92,-0.86 c 0.15,-0.121 -0.9,-4.46 -2.85,-4.5 0.43,1.02 0.7,2.43 0.58,3.129 0.51,0.661 1.49,1.02 2.27,1.371 m 2.03,-0.671 c -0.31,-1.52 -1.91,-3.707 -2.89,-3.469 0.08,0.351 1.25,2.031 1.01,2.609 0.12,0.321 1.41,0.981 1.88,0.86 m -9.73,-4.719 c -0.82,-1.289 -2.5,-0.942 -3.51,-0.668 1.79,1.918 2.77,0.277 3.51,0.668 m 10.12,0.148 c -0.66,0.043 -1.8,-1.047 -2.85,0.391 0.74,-0.5 1.83,0.82 2.85,-0.391 m -5.47,-0.226 c 0.7,-0.473 1.84,1.008 3.4,-1.063 -1.05,-0.148 -2.73,-0.308 -3.4,1.063 m -4.22,-0.981 c 0,1.489 3.36,1.367 3.64,0.27 0.62,-0.973 -0.75,-1.949 -1.45,-2.5 -0.16,-0.11 -2.15,0.859 -2.19,2.23 m 7.97,7.77 c 0.59,0.199 1.33,-0.031 1.84,-0.461 0.5,-0.469 1.64,-0.238 1.76,-0.899 0,0 -0.4,-0.043 -0.94,0 -0.39,0.039 -0.9,0.188 -1.06,0.231 -0.5,0.156 -0.11,0.308 -0.5,0.508 -0.4,0.23 -1.37,0.55 -1.1,0.621 m -14.33,-1.012 c 0.19,0.621 1.83,0.859 2.3,0.82 -0.27,-0.82 -1.48,-0.308 -2.3,-0.82 m 3.86,0.781 c -0.47,0.16 -1.76,-0.351 -1.4,0.078 0.39,0.391 0.86,0.122 1.13,0.274 0.7,0.348 0.27,-0.121 0.27,-0.352 m 10.59,-1.09 c 0.23,0.149 1.68,-0.039 1.21,-0.121 -0.82,-0.199 -1.13,-0.199 -1.37,-0.347 -0.15,-0.082 0,0.308 0.16,0.468 m -3.36,-0.902 c -0.55,-0.199 0.47,1.172 0.86,0.781 0.19,-0.16 -0.55,-0.347 -0.86,-0.781 m -0.27,0.434 c -0.16,0.508 -0.82,0.898 -0.59,0.968 0.51,0.282 0.98,-1.281 0.59,-0.968 m -4.5,0.347 c 0,0 -0.19,0.313 -0.43,0.43 -0.23,0.082 0.36,0.231 0.36,0.231 l 0.42,-0.192 c 0,0 0.2,-0.308 0,-0.387 -0.15,-0.121 -0.31,-0.043 -0.31,-0.043 z m -1.87,1.762 c 0,0 3.75,1.168 4.02,0.27 -1.44,-0.391 -2.46,-0.743 -4.02,-0.27 m 8.75,-0.082 c -1.53,-0.469 -2.58,-0.117 -3.99,0.27 0.24,0.902 4.11,-0.231 3.99,-0.27 m -96.84,-24.609 c -0.39,1.09 -1.48,3.629 -2.85,3.711 l -0.39,-0.27 c 1.17,-0.902 2.11,-2.351 2.54,-3.91 z m 1.45,1.84 -0.71,-0.469 c -0.39,1.558 -1.36,2.969 -2.5,3.898 l 0.4,0.242 c 1.36,-0.082 2.42,-2.582 2.81,-3.671 m 1.01,1.48 -0.66,-0.469 c -0.43,1.559 -1.41,2.969 -2.54,3.91 l 0.39,0.231 c 1.37,-0.082 2.42,-2.582 2.81,-3.672 m 1.1,1.172 -0.67,-0.512 c -0.43,1.61 -1.4,3.012 -2.54,3.949 l 0.39,0.231 c 1.37,-0.07 2.47,-2.57 2.82,-3.668 m -3.28,-12.262 c 2.96,-0.32 5.5,0.621 7.85,2.5 l -0.71,1.211 c 0.75,-1.25 -5.23,-3.48 -7.46,-2.973 0.12,-0.308 0.2,-0.429 0.32,-0.738 m -7.23,29.488 c 2.58,0.274 2.26,-2.457 2.62,-2.968 -0.36,-0.66 -2.93,2.5 -2.62,2.968 m 21.52,-0.507 c -0.19,-0.43 -2.5,-3.629 -3.75,-3.282 0.39,0.512 1.02,3.551 3.75,3.282 m -19.18,0.507 c 2.7,0.512 2.54,-3.046 3.91,-4.488 -1.45,-0.82 -3.28,2.18 -3.48,3.16 -0.35,0.942 -0.43,1.328 -0.43,1.328 m 2.39,0.661 c 0,0 2.57,-0.469 2.89,-1.329 0.19,-0.23 -0.39,-2.73 0.31,-3.902 -2.38,-0.039 -3.2,5.231 -3.2,5.231 m 5.82,0.632 c 0.97,-0.511 1.79,-1.453 2.34,-2.5 0.31,-0.589 0.31,-1.492 0.08,-2.191 -0.82,-2.27 -2.58,-2.07 -3.71,-1.48 -1.1,0.582 -1.33,2.07 -0.78,3.82 0.5,1.762 2.26,2.308 2.07,2.351 m 5.74,-0.98 c 0.15,-0.16 -1.1,-5.191 -3.32,-5.231 0.47,1.168 0.82,2.809 0.66,3.629 0.59,0.821 1.72,1.172 2.66,1.602 m 2.38,-0.781 c -0.35,-1.801 -2.23,-4.301 -3.4,-4.059 0.12,0.43 1.49,2.379 1.21,3.078 0.12,0.321 1.64,1.141 2.19,0.981 m -11.33,-5.469 c -0.97,-1.52 -2.93,-1.133 -4.1,-0.781 2.07,2.191 3.2,0.308 4.1,0.781 m 11.72,0.16 c -0.7,0.039 -2.07,-1.25 -3.24,0.469 0.86,-0.629 2.11,0.93 3.24,-0.469 m -6.33,-0.281 c 0.82,-0.539 2.15,1.211 3.99,-1.211 -1.25,-0.188 -3.24,-0.43 -3.99,1.211 m -4.92,-1.129 c 0,1.68 3.91,1.598 4.26,0.309 0.7,-1.168 -0.9,-2.301 -1.68,-2.93 -0.23,-0.149 -2.54,1.019 -2.58,2.621 m 9.3,9.059 c 0.66,0.199 1.52,-0.04 2.15,-0.579 0.58,-0.55 1.91,-0.281 2.03,-1.019 0,0 -0.47,-0.082 -1.1,0 -0.43,0.039 -1.09,0.199 -1.25,0.238 -0.58,0.192 -0.11,0.391 -0.58,0.621 -0.43,0.239 -1.6,0.668 -1.25,0.739 m -16.72,-1.25 c 0.23,0.781 2.15,1.058 2.7,0.98 -0.32,-0.941 -1.72,-0.352 -2.7,-0.98 m 4.49,0.941 c -0.51,0.199 -1.99,-0.391 -1.6,0.078 0.43,0.473 1.02,0.16 1.33,0.352 0.78,0.429 0.27,-0.161 0.27,-0.43 m 12.35,-1.25 c 0.23,0.199 1.91,-0.039 1.4,-0.16 -0.97,-0.231 -1.29,-0.192 -1.56,-0.391 -0.2,-0.07 -0.04,0.391 0.16,0.551 m -3.95,-1.051 c -0.59,-0.238 0.59,1.32 1.06,0.891 0.19,-0.192 -0.67,-0.391 -1.06,-0.891 m -0.27,0.5 c -0.2,0.59 -0.94,1.02 -0.67,1.18 0.59,0.269 1.14,-1.57 0.67,-1.18 m -5.24,0.43 c 0,0 -0.23,0.359 -0.51,0.43 -0.27,0.121 0.4,0.32 0.4,0.32 l 0.5,-0.238 c 0,0 0.24,-0.352 0.04,-0.473 -0.19,-0.109 -0.39,-0.039 -0.39,-0.039 z m -2.18,2.031 c -0.08,0.039 4.37,1.367 4.68,0.32 -1.64,-0.472 -2.85,-0.863 -4.68,-0.32 m 10.19,-0.109 c -1.8,-0.512 -3.01,-0.121 -4.65,0.308 0.31,1.059 4.77,-0.269 4.65,-0.308 m 45.55,30.187 c -2.39,-1.168 -4.22,-1.789 -6.02,-1.828 -1.76,-0.043 -3.51,0.43 -5.74,1.481 2.62,3.007 5.9,8.437 5.9,8.199 0,-0.461 2.5,-4.641 5.86,-7.852 m -3.13,-12.5 c 0.16,0.082 -1.95,3.481 0.39,6.289 0.98,-2.066 0.86,-4.758 -0.39,-6.289 m -3.47,0 c 0.15,0.082 -1.96,3.481 0.39,6.289 0.97,-2.066 0.86,-4.758 -0.39,-6.289 m -3.48,0 c 0.16,0.082 -1.91,3.481 0.39,6.289 0.98,-2.066 0.86,-4.758 -0.39,-6.289 m 6.37,-14.371 c 0.78,0.121 1.75,0.781 2.57,0.781 1.02,-0.039 2.19,-0.507 3.13,-0.738 -0.59,0.43 -1.91,1.289 -3.05,1.359 -1.01,0.04 -2.46,-0.582 -2.73,-0.699 -0.67,-0.351 -1.06,-0.742 0.08,-0.703 m 3.32,6.211 c 1.05,0.902 4.1,-2.379 3.59,-4.418 -0.23,-1.09 -0.9,-3.672 0,-4.41 0.23,-0.191 0.66,0.629 1.25,0.937 0.59,0.352 0.98,0.231 1.02,0.043 0.07,-0.312 0.27,-1.601 0.19,-2.621 -0.04,-1.05 -0.35,-2.808 -1.01,-2.851 -0.71,-0.078 -1.1,1.25 -1.18,0.39 -0.54,-4.488 -3.59,-6.168 -6.17,-7.339 -4.92,-2.149 -9.18,1.171 -9.14,1.011 -1.13,0.821 -2.62,2.93 -3.67,4.688 -0.63,1.011 -0.74,3.011 -1.33,2.383 -1.48,-1.641 -1.6,2.66 -1.68,4.097 0,0.16 0.31,0.821 1.13,0.352 0.12,-0.071 0.55,-1.051 0.71,-1.129 1.87,-1.094 1.6,2.226 1.56,4.566 -0.04,2.461 2.7,6.293 3.91,4.731 1.87,-2.418 9.41,-1.641 10.82,-0.43 m -5.51,-14.18 c -0.59,-0.039 -0.98,0.192 -1.33,0.27 -0.94,0.242 -1.13,0.633 -0.58,0.98 0.78,0.27 0.42,-0.859 1.91,-1.25 m -0.04,0 c 1.13,0.352 1.21,1.602 1.95,1.289 0.55,-0.347 0.28,-0.777 -0.66,-1.019 -0.35,-0.078 -0.7,-0.309 -1.29,-0.27"
         style="fill:#ec1c24;fill-opacity:1;fill-rule:evenodd;stroke:none"
         id="path72" /><path
         d="m 3969.77,205.738 v -3.199 c -3.95,-0.66 -7.47,-2.93 -10.55,-6.758 -2.27,-2.851 -5.59,-9.531 -10,-20.121 L 3911.8,87.0703 h -2.66 l -37.26,92.2307 c -4.46,11.09 -7.47,17.609 -8.99,19.57 -1.52,1.949 -4.37,3.16 -8.59,3.668 v 3.199 h 52.03 v -3.199 h -1.76 c -4.69,0 -7.89,-0.629 -9.61,-1.879 -1.21,-0.859 -1.84,-2.109 -1.84,-3.75 0,-1.012 0.24,-2.262 0.63,-3.672 0.47,-1.359 1.91,-5.117 4.34,-11.207 l 23.16,-57.73 21.45,51.359 c 2.57,6.219 4.18,10.43 4.72,12.5 0.63,2.11 0.9,3.91 0.9,5.43 0,1.68 -0.43,3.211 -1.29,4.5 -0.86,1.32 -2.11,2.301 -3.75,3 -2.3,0.98 -5.35,1.449 -9.14,1.449 v 3.199 z m 66.56,-112.8474 v -3.1601 h -56.76 v 3.1601 h 3.55 c 3.17,0 5.71,0.6289 7.62,1.8008 1.41,0.8203 2.46,2.1875 3.21,4.1406 0.62,1.328 0.89,4.918 0.89,10.777 v 76.25 c 0,5.942 -0.27,9.653 -0.89,11.129 -0.59,1.492 -1.76,2.782 -3.56,3.871 -1.8,1.129 -4.22,1.68 -7.27,1.68 h -3.55 v 3.199 h 56.76 v -3.199 h -3.63 c -3.13,0 -5.67,-0.59 -7.58,-1.758 -1.41,-0.82 -2.5,-2.191 -3.28,-4.14 -0.59,-1.371 -0.9,-4.961 -0.9,-10.782 v -76.25 c 0,-5.937 0.31,-9.6481 0.9,-11.1285 0.62,-1.4922 1.83,-2.7813 3.63,-3.9102 1.8,-1.1289 4.22,-1.6797 7.23,-1.6797 z m 31.87,109.6484 v 3.199 h 57.74 v -3.199 h -3.52 c -3.2,0 -5.78,-0.59 -7.69,-1.758 -1.33,-0.82 -2.39,-2.191 -3.21,-4.14 -0.58,-1.371 -0.9,-4.961 -0.9,-10.782 v -56.757 c 0,-11.133 -1.01,-19.223 -3.12,-24.262 -2.07,-5.0705 -5.74,-9.2502 -11.09,-12.6486 -5.28,-3.4414 -11.68,-5.1211 -19.14,-5.1211 -9.15,0 -16.53,2.5781 -22.15,7.7305 -5.67,5.1211 -8.48,10.7892 -8.48,17.0002 0,4.019 1.13,7.219 3.44,9.719 2.3,2.46 5.12,3.71 8.4,3.71 3.28,0 6.01,-1.089 8.24,-3.32 2.19,-2.262 3.32,-4.961 3.32,-8.238 0,-1.563 -0.2,-2.973 -0.59,-4.184 -0.19,-0.578 -1.01,-1.988 -2.5,-4.289 -1.48,-2.308 -2.18,-3.949 -2.18,-4.969 0,-1.4409 0.66,-2.73 2.07,-3.8198 2.03,-1.6094 4.68,-2.4297 7.93,-2.4297 2.3,0 4.18,0.6679 5.7,1.9179 1.44,1.25 2.54,3.2032 3.16,5.8636 0.59,2.617 0.9,10 0.9,22.109 v 61.988 c 0,5.942 -0.31,9.653 -0.9,11.129 -0.62,1.492 -1.83,2.782 -3.63,3.871 -1.8,1.129 -4.18,1.68 -7.23,1.68 z m 131.76,-79.769 h -38.36 l -4.57,-11.321 c -1.48,-3.75 -2.23,-6.84 -2.23,-9.301 0,-3.2769 1.22,-5.6675 3.68,-7.1871 1.44,-0.9414 5,-1.6015 10.62,-2.0703 v -3.1601 h -36.09 v 3.1601 c 3.87,0.6289 7.11,2.3789 9.61,5.1992 2.5,2.8082 5.62,8.6292 9.26,17.5002 l 38.86,92.531 h 1.53 l 39.14,-95.109 c 3.75,-9.032 6.83,-14.6917 9.21,-17.0315 1.84,-1.8008 4.42,-2.7813 7.74,-3.0899 v -3.1601 h -52.54 v 3.1601 h 2.15 c 4.22,0 7.19,0.6289 8.87,1.9102 1.17,0.8984 1.79,2.1875 1.79,3.9101 0,1.0586 -0.19,2.1091 -0.51,3.1681 -0.11,0.543 -0.89,2.652 -2.42,6.441 z m -2.73,6.332 -16.18,39.918 -16.67,-39.918 z m 159.29,76.636 h -33.16 v -3.199 c 4.84,-0.269 8.2,-1.129 10,-2.578 1.41,-1.012 2.11,-2.301 2.11,-3.832 0,-2.77 -2.46,-8.43 -7.27,-16.988 l -19.57,-35 -19.65,38.398 c -4.25,8.281 -6.36,13.441 -6.36,15.473 0,1.09 0.58,2.109 1.83,3.078 1.29,0.98 3.48,1.449 6.64,1.449 h 2.31 v 3.199 h -52.03 v -3.199 c 3.47,-0.039 6.25,-0.937 8.32,-2.699 2.07,-1.75 5.62,-7.5 10.74,-17.301 l 25.55,-49.687 v -23.243 c 0,-5.859 -0.32,-9.449 -0.9,-10.777 -0.82,-1.9531 -1.88,-3.3203 -3.28,-4.1406 -1.88,-1.1719 -4.42,-1.8008 -7.62,-1.8008 h -5.66 v -3.1601 h 60.89 v 3.1601 h -6.05 c -2.89,0 -5.2,0.5508 -6.95,1.6797 -1.72,1.1289 -2.89,2.418 -3.44,3.8281 -0.63,1.4805 -0.9,5.1916 -0.9,11.2106 v 28.051 l 23.55,41.949 c 5.75,10.661 9.97,17.231 12.66,19.61 1.92,1.722 4.69,2.812 8.24,3.32 z m 59.81,-82.968 h -38.36 l -4.57,-11.321 c -1.49,-3.75 -2.23,-6.84 -2.23,-9.301 0,-3.2769 1.21,-5.6675 3.67,-7.1871 1.45,-0.9414 5,-1.6015 10.67,-2.0703 v -3.1601 h -36.13 v 3.1601 c 3.86,0.6289 7.1,2.3789 9.6,5.1992 2.5,2.8082 5.63,8.6292 9.3,17.5002 l 38.83,92.531 h 1.52 l 39.18,-95.109 c 3.75,-9.032 6.8,-14.6917 9.22,-17.0315 1.8,-1.8008 4.38,-2.7813 7.7,-3.0899 v -3.1601 h -52.54 v 3.1601 h 2.15 c 4.21,0 7.18,0.6289 8.86,1.9102 1.18,0.8984 1.8,2.1875 1.8,3.9101 0,1.0586 -0.16,2.1091 -0.51,3.1681 -0.11,0.543 -0.9,2.652 -2.38,6.441 z m -2.74,6.332 -16.17,39.918 -16.64,-39.918 z"
         style="fill:#2e3191;fill-opacity:1;fill-rule:evenodd;stroke:none"
         id="path74" /><path
         d="m 3885.39,311.719 v 85.703 h 128.05 V 376.52 c -10.82,7.929 -25.71,12.539 -40.55,12.539 -28.05,0 -50.66,-9.411 -50.66,-20.86 0,-13.59 31.05,-35.347 50.66,-35.539 13.16,0 27.03,2.5 40.55,7.301 V 328.48 l 30.39,-16.761 v 85.703 h 150.31 v -14.613 h -84.45 c 21.29,-11.09 33.47,-22.579 33.79,-31.329 0,-4.601 -6.1,-8.359 -13.52,-8.359 -12.81,0 -29.73,15.859 -43.91,39.688 l -10.15,-3.161 c 13.55,-31.328 39.88,-53.046 64.22,-53.238 16.87,0 30.74,8.36 30.39,18.789 0,7.731 -6.06,15.461 -16.88,20.891 h 40.51 v -37.61 l 30.43,-16.761 v 85.703 h 52.03 c 4.38,-4.801 6.76,-9.184 6.76,-12.543 0,-7.93 -11.52,-15.039 -27.03,-16.68 5.7,-20.5 28.36,-35.347 54.02,-35.539 13.87,0 28.05,2.93 40.55,8.36 v -12.54 l 30.43,-16.761 v 85.703 h 49.29 V 328.48 l 30.4,-16.761 v 85.703 h 32.1 v 18.828 h -606.05 c -7.77,5.629 -12.15,11.871 -11.8,17.73 0,9.809 18.91,17.782 42.23,17.782 33.75,0 67.19,-11.723 89.49,-31.371 l 10.16,4.179 c -28.05,24.879 -68.91,39.731 -109.81,39.731 -34.45,0 -62.5,-13.211 -62.5,-29.262 0,-7.969 4.42,-14.84 11.84,-18.789 H 3825.9 V 397.422 H 3855 V 328.48 Z m 414.84,34.531 c -9.45,0 -17.57,2.891 -20.27,7.301 17.23,3.988 28.71,13.988 28.71,25.078 0,6.449 -3.05,12.93 -8.44,18.793 h 50.67 v -22.973 c -10.12,-16.91 -30.39,-28.199 -50.67,-28.199 m -337.5,3.129 c -9.45,0 -17.22,3.742 -16.87,8.351 0,8.168 14.53,14.809 32.11,14.61 11.8,0 23.98,-2.07 35.47,-6.25 -17.27,-10.66 -35.47,-16.711 -50.71,-16.711"
         style="fill:#2e3191;fill-opacity:1;fill-rule:evenodd;stroke:none"
         id="path76" /></g></g></svg>
