<svg xmlns="http://www.w3.org/2000/svg" xmlns:xlink="http://www.w3.org/1999/xlink" width="729.362" height="103.915" viewBox="0 0 729.362 103.915">
  <defs>
    <linearGradient id="linear-gradient" y1="0.377" x2="1.659" y2="0.572" gradientUnits="objectBoundingBox">
      <stop offset="0" stop-color="#5223bc"/>
      <stop offset="1" stop-color="#dff34f"/>
    </linearGradient>
  </defs>
  <g id="Paysecure_logo_purple_horizontal" data-name="Paysecure logo purple horizontal" transform="translate(-247 -2629.296)">
    <g id="Group_11246" data-name="Group 11246" transform="translate(-134 1724.763)">
      <g id="Group_11240" data-name="Group 11240" transform="translate(0 3.533)">
        <path id="Path_34191" data-name="Path 34191" d="M48.168.064A48.471,48.471,0,1,1-.3,48.535,48.471,48.471,0,0,1,48.168.064Z" transform="translate(381.303 900.936)" fill="#dff34f"/>
        <path id="Union_17" data-name="Union 17" d="M-1791.985,54.949l45.449-45.474-45.416.014v-15l56.036-.017v0h15.022v15h-.017l.017,56.057h-15l-.014-45.464-45.47,45.495Z" transform="translate(2198.985 919.46)" fill="url(#linear-gradient)"/>
      </g>
    </g>
    <path id="Path_34220" data-name="Path 34220" d="M6.4.948H20.59V-19.728h22.1c14.494,0,27.974-10.845,27.974-25.136C70.659-59.966,57.888-70,42.685-70H6.4ZM56.469-44.864c0,6.689-5.98,11.858-13.784,11.858H20.59v-23.92h22.1C50.59-56.925,56.469-51.858,56.469-44.864ZM143.836.948V-49.729H131.269L129.85-43.04c-5.169-5.27-12.669-8.21-21.183-8.21-16.926,0-29.494,11.453-29.494,26.96,0,15.3,12.669,26.758,29.494,26.758,8.615,0,16.014-3.041,21.183-8.21L131.269.948ZM93.362-24.289c0-8.412,7.7-14.494,18.345-14.494s17.94,5.98,17.94,14.494c0,8.412-7.2,14.19-17.94,14.19C101.065-10.1,93.362-16.079,93.362-24.289ZM193.6,20.915l25.44-70.644h-14.9l-13.379,37.1h-9.021l-13.48-37.1h-15L171.709.948H185.8l-7.2,19.967Zm81.59-34.359c0-21.893-35.575-10.946-35.575-21.791,0-3.345,4.054-5.777,9.629-5.777,6.689,0,10.338,2.838,10.946,6.892h14.19c-.811-10.541-9.831-17.129-25.035-17.129-14.8,0-23.92,7.2-23.92,16.115,0,20.372,35.474,10.541,35.474,21.69,0,3.243-4.358,5.777-10.135,5.777-7.2,0-11.656-2.635-12.467-7.095h-14.19c1.115,10.541,11.453,17.23,26.656,17.23C265.563,2.468,275.192-4.322,275.192-13.444Zm69.63-7.4a19.668,19.668,0,0,0,.2-3.446c0-16.115-12.973-26.96-30.3-26.96-17.534,0-30.508,11.453-30.508,26.96,0,15.3,13.075,26.758,30.508,26.758,13.886,0,24.73-6.689,28.582-17.028H328.909c-2.635,3.649-7.5,5.879-13.581,5.879-8.514,0-15-4.865-16.521-12.163Zm-46.015-7.095c1.52-7.095,7.7-11.858,15.913-11.858,8.311,0,14.291,4.662,15.71,11.858Zm69.934,3.649c0-8.21,7.095-14.088,16.825-14.088,7.6,0,13.277,3.142,15.609,8.311h14.7c-2.737-12.973-14.7-21.183-30.3-21.183-17.838,0-31.014,11.453-31.014,26.96,0,15.3,13.277,26.758,31.014,26.758,15.71,0,27.771-8.412,30.406-21.284h-14.7c-2.331,5.27-8.007,8.311-15.71,8.311C375.938-10.505,368.742-16.181,368.742-24.289Zm104.8-1.824c0,9.021-6.284,15.406-15.2,15.406-9.021,0-15.406-6.284-15.406-15.406V-49.729h-14.19v23.616c0,16.825,10.642,28.582,25.845,28.582a23.079,23.079,0,0,0,19.055-9.933L474.961.948h12.771V-49.729h-14.19Zm68.009-25.136c-10.845,0-19.257,5.676-23.92,14.7l-1.52-13.176H503.442V.948h14.19V-13.444c0-14.19,8.818-22.8,23.92-22.8ZM609.56-20.843a19.662,19.662,0,0,0,.2-3.446c0-16.115-12.973-26.96-30.3-26.96-17.534,0-30.508,11.453-30.508,26.96,0,15.3,13.075,26.758,30.508,26.758,13.885,0,24.73-6.689,28.582-17.028H593.647c-2.635,3.649-7.5,5.879-13.582,5.879-8.514,0-15-4.865-16.521-12.163Zm-46.015-7.095c1.52-7.095,7.7-11.858,15.913-11.858,8.311,0,14.291,4.662,15.71,11.858Z" transform="translate(366.6 2712.296)" fill="#5223bc"/>
  </g>
</svg>
