<svg id="ic_jio" xmlns="http://www.w3.org/2000/svg" width="30" height="30" viewBox="0 0 30 30">
  <path id="Path_1" data-name="Path 1" d="M15,0A15,15,0,1,0,30,15,15,15,0,0,0,15,0Z" fill="#2b3990"/>
  <path id="Path_2" data-name="Path 2" d="M32.942,52.2h-.5c-.949,0-1.461.542-1.461,1.611v5.151c0,1.325-.452,1.792-1.506,1.792a2.511,2.511,0,0,1-2.033-1.024A1.735,1.735,0,0,0,26.3,61.463c0,1.386,1.3,2.229,3.69,2.229,2.922,0,4.458-1.461,4.458-4.684V53.8C34.448,52.728,33.92,52.2,32.942,52.2Zm4.518,2.605h-.346c-.843,0-1.491.392-1.491,1.611v5.527c0,1.22.617,1.611,1.521,1.611h.346c.843,0,1.446-.422,1.446-1.611V56.417C38.951,55.167,38.363,54.806,37.46,54.806Zm-.2-4.006a1.545,1.545,0,0,0-1.747,1.551c0,.964.693,1.566,1.792,1.566a1.548,1.548,0,0,0,1.747-1.566C39.071,51.387,38.378,50.8,37.264,50.8Zm7.3,3.916c-2.831,0-4.714,1.792-4.714,4.473,0,2.741,1.807,4.5,4.669,4.5,2.831,0,4.7-1.762,4.7-4.488A4.33,4.33,0,0,0,44.568,54.716Zm-.03,6.446A1.968,1.968,0,1,1,46.405,59.2,1.871,1.871,0,0,1,44.538,61.161Z" transform="translate(-22.339 -43.149)" fill="#fff"/>
</svg>
