<?xml version="1.0" encoding="UTF-8"?>
<svg version="1.1" viewBox="0 0 885.83 121.61" xmlns="http://www.w3.org/2000/svg" xmlns:cc="http://creativecommons.org/ns#" xmlns:dc="http://purl.org/dc/elements/1.1/" xmlns:rdf="http://www.w3.org/1999/02/22-rdf-syntax-ns#">
<metadata>
<rdf:RDF>
<cc:Work rdf:about="">
<dc:format>image/svg+xml</dc:format>
<dc:type rdf:resource="http://purl.org/dc/dcmitype/StillImage"/>
<dc:title/>
</cc:Work>
</rdf:RDF>
</metadata>
<g transform="translate(35.353 -490.11)">
<g transform="matrix(2.4718 0 0 2.4718 -851.59 -703.6)" fill="#00a4e4">
<g transform="matrix(1.25 0 0 -1.25 363.71 521.25)">
<path d="m0 0s0.222 0.402 0.341-0.171c0 0 0.241-3.098-1.593-4.989-1.221-1.262-4.032-3.067-7.219-2.278 0 0 5.092 0.35 6.39 5.395l0.142 0.567s1.281 0.324 1.939 1.476m-6.188 29.472c-3e-3 -5e-3 -3e-3 -0.012-3e-3 -0.014-0.03-0.258 0.14-0.486 0.377-0.514 0.21-0.031 0.4 0.113 0.461 0.324 0.116-0.088 0.216-0.182 0.297-0.26-0.456-4e-3 -0.528-0.237-0.918-0.154-0.205 0.037-0.419 0.265-0.429 0.546 0.088 0.042 0.111 0.051 0.215 0.072m0.322 0.017c0.084-0.01 0.168-0.036 0.247-0.066 0.01-0.029 0.02-0.06 0.02-0.094 0-0.106-0.08-0.193-0.176-0.193-0.097 0-0.177 0.087-0.177 0.193 0 0.066 0.036 0.124 0.086 0.16m17.484-13.913c-0.01 0.059-0.018 0.113-0.031 0.173 0 0-0.066 0.32-0.261 0.827-0.032 0.084-0.062 0.156-0.091 0.219v1e-3c-0.012 0.033-0.026 0.062-0.037 0.088-0.351 0.812-0.99 1.951-2.113 3.061 0 0 1.184 0.093-0.119 1.53 0 0-2.156 2.531-6.301 4.448-2.229 1.028-4.723 0.603-4.488-1.884 0.162-1.744-1.464-2.411-2.745-2.25-1.503 0.188-2.408 1.419-2.167 2.432 0.252 1.085 0.822 1.923 1.668 2.572 0.572 0.444 0.974 0.754 2.015 0.966 0.633 0.134 1.464 0.336 1.689-0.381 0.434 0.23 1.205 1.677-1.301 1.7 0 0-0.378 0.811-1.221 0.645 0 0-2.494 2.445-5.27-0.587 0 0-1.092-0.43-1.152-0.014 0.248-0.194 0.649 0.399 0.101 0.604-0.261 0.1-0.562-0.176-0.609-0.439-0.037-0.203 0.023-0.649 0.57-0.732 0.149-0.027 0.411 0 0.411 0l-0.184-0.218c-0.828-0.356-1.632-0.077-1.786 0.51 0.192-0.113 0.408 0.031 0.473 0.245 0.068 0.219-0.091 0.524-0.411 0.572-0.451 0.066-0.665-0.459-0.568-0.918 0.147-0.711 0.859-1.217 1.777-1.092l-0.158-0.24s-0.921-1.148-1.665-2.454c-0.764-1.324-3.862-2.785-3.333 0.372 0.168 1-1.504 2.205-4.416 0.205-1.551-1.07-3.464-2.676-4.875-5.274 0 0-0.63-0.99 0.411-1.024 0 0-2.126-1.01-2.211-5.776l-8e-3 -1e-3s2e-3 -0.189 5e-3 -0.466c4e-3 -0.161 7e-3 -0.327 0.013-0.494 0.016-0.531 0.041-1.162 0.091-1.498 0 0 0.236-2.872 0.733-3.38 0 0 0.025-0.01 0.059-0.015 0.148-0.134 0.354-0.155 0.618 0.123 2e-3 1e-3 5e-3 4e-3 0.01 6e-3 5e-3 -0.036 0.638-3.258 1.973-5.957 1.062-2.137 3.036-5.272 2.262-6.034-0.768-0.758-1.852 0.751-1.685 0.146 0.361-1.285 1.68-1.47 2.39-0.91 1.836 1.449-0.85 4.926-1.686 9.349 1.75 0.753 1.682 3.527 1.682 3.527s2.508 0.06 3.279 3.028c0 0 3.022-0.866 4.461 1.772 0 0-4e-3 0.019-0.012 0.054 0.016 0.014 0.025 0.024 0.04 0.038 0.297-0.919 0.9-1.747 1.683-2.45 0 0-0.154-1.287-1.569-1.739 0 0-1.735 0.739-3.609 0-1.722-0.674-1.028-2.535 0.223-2.087-0.378 0.203-0.489 0.819 0.119 0.949 0.161-0.133 0.325-0.208 0.486-0.24v-8e-3c0.02 8e-3 1.554-0.275 2.614 0.146 0.077 0.023 0.152 0.055 0.226 0.102 6e-3 7e-3 0.02 8e-3 0.028 0.012l-6e-3 5e-3c0.099 0.063 0.193 0.145 0.283 0.247 0.393-0.024 0.637-0.623 0.097-0.901 1.049-0.228 1.425 0.877 0.992 1.471 0 0 0.248 0.162 0.521 0.392 0 0 0.327 0.321 0.577 0.696 0 0 1.025-0.816 2.934-1.274 0 0-0.995-1.655-2.471-1.975 0 0-2.094 0.682-3.51-0.196 0 0-0.765-0.404-0.644-1.249 0.091-0.632 0.596-1.076 1.352-0.969-0.31 0.149-0.988 0.919-0.125 1.252 0.15-0.238 0.36-0.366 0.597-0.423-2e-3 -5e-3 -5e-3 -0.01-5e-3 -0.01s1.315-0.307 2.932 0.371c0.065 0.021 0.124 0.045 0.178 0.076 0.019 8e-3 0.041 0.013 0.061 0.026 0 0-2e-3 3e-3 -2e-3 6e-3 0.104 0.069 0.186 0.148 0.217 0.245 0.411 0.074 1.005-0.128 0.783-0.917 0.491 0.075 1.288 0.974 0.116 1.685 0 0 0.697 0.342 1.253 0.844l0.836 0.854c1.643-0.242 2.899-1.803 2.899-3.706 0-1.562-1.334-3.406-2.748-3.78 0.052 0.016 0.104 0.028 0.148 0.044l-0.179-0.052c7e-3 3e-3 0.021 5e-3 0.031 8e-3 -0.219-0.049-0.467-0.075-0.771-0.061-1.451 0.05-0.593 1.74-0.593 1.74-0.212 0.024-0.451-0.047-0.658-0.282-0.23-0.266-0.314-0.783-0.24-1.3-0.074 0.022-0.141 0.044-0.199 0.069-1.279 0.547-1.178 1.509-1.178 1.509-0.342-0.145-0.594-0.587-0.442-1.313 0.208-0.972 1.441-1.394 2.425-1.513 0.594-0.567 1.486-1.16 3.58-0.82 0 0-0.93-4.863-7.096-4.652 0 0-1.881 0.702-1.817 2.254 0.086 2.099 1.535 2.845 1.535 2.845-0.537 0.059-1.828-0.062-2.421-1.811-0.258-0.782-0.203-2.07 0.517-2.959-2.329 0.618-4.088 2.383-3.383 4.786 0.114 0.384 0.342 0.782 0.643 1.102 1.754 1.653 4.362 0.651 4.362 0.651-0.1 0.569-0.847 1.353-2.139 1.43-1.354 0.079-3.891-0.748-4.078-3.816-0.175-2.842 1.622-4.89 6.086-5.521l0.058-0.056s2.713-1.918 6.551-0.892c0 0 7.735 1.595 6.085 10.406 0 0 1.819 5.865-1.993 9.238 2.359-1.927 5.187-0.806 5.187-0.806-0.205-5.344 2.089-6.023 2.089-6.023l0.073 0.044s-4.236-9.163-1.783-10.324c0.854-0.403 1.848-0.207 2.358 0.875 0.417 0.894-0.926-0.86-1.701-0.096-0.926 0.906 0.215 3.129 1.341 5.42 1.56 3.156 2.615 5.475 2.824 7.027 0 0 0.229-0.16 0.491-0.035 0.011-0.012 0.021-0.022 0.031-0.023 0.605 0.156 1.006 2.691 1.068 3.107 0.451 2.321 0.292 4.055 0.043 5.17" fill="#00a4e4"/>
</g>
<g transform="matrix(1.25 0 0 -1.25 404.6 519.71)">
<path d="m0 0-7.428 8.538-2.042-1.801v-6.737h-4.033v19.718h4.033v-7.925l9.05 7.935 5.801-0.01-9.866-8.571 9.665-11.147z" fill="#00a4e4"/>
</g>
<g transform="matrix(1.25 0 0 -1.25 418.55 505.44)">
<path d="m0 0h4.805c1.003 0 1.783 0.214 2.317 0.643 0.474 0.386 0.693 0.964 0.693 1.83 0 0.709-0.23 1.188-0.743 1.551-0.532 0.372-1.295 0.559-2.267 0.559h-4.805zm8.577-11.415-0.427 0.69c-0.414 0.664-0.624 1.457-0.624 2.353v1.741c0 1.645-0.38 2.21-0.493 2.348-0.342 0.361-1.133 0.558-2.228 0.558h-4.805v-7.69h-4.035v19.718h8.84c6.126 0 7.041-3.616 7.041-5.774 0-1.453-0.459-2.724-1.367-3.767-0.154-0.176-0.314-0.336-0.487-0.491l-0.03-0.03 0.03-0.026c0.441-0.41 0.783-0.904 1.022-1.467 0.335-0.836 0.519-1.842 0.545-2.984 0.011-0.774 0.022-1.445 0.041-1.864v-0.016l0.03-0.03 0.025-0.567c7e-3 -0.171 0.052-0.308 0.14-0.419l1.827-2.283z" fill="#00a4e4"/>
</g>
<g transform="matrix(1.25 0 0 -1.25 445.77 519.7)">
<path d="m0 0c-2.816 0-4.931 0.835-6.282 2.479-1.19 1.402-1.792 3.402-1.792 5.939v11.297h4.037v-11.297c0-1.524 0.322-2.701 0.957-3.512 0.646-0.828 1.656-1.23 3.08-1.23 1.612 0 2.719 0.38 3.374 1.159 0.633 0.722 0.954 1.931 0.954 3.583v11.297h4.03v-11.297c0-2.574-0.657-4.605-1.951-6.035-1.401-1.582-3.557-2.383-6.407-2.383" fill="#00a4e4"/>
</g>
<g transform="matrix(1.25 0 0 -1.25 475.42 519.71)">
<path d="m0 0-0.442 0.617-8.556 11.902v-12.519h-4.033v19.718h3.588l8.963-12.447v12.447h4.007v-19.718z" fill="#00a4e4"/>
</g>
<g transform="matrix(1.25 0 0 -1.25 514.64 519.71)">
<path d="m0 0v15.998h-6.213v3.72h16.463v-3.72h-6.217v-15.998z" fill="#00a4e4"/>
</g>
<g transform="matrix(1.25 0 0 -1.25 545.45 519.71)">
<path d="m0 0v8.332h-8.298v-8.332h-4.032v19.718h4.032v-7.66h8.298v7.66h4.031v-19.718z" fill="#00a4e4"/>
</g>
<path d="m578.09 495.06h5.0325v24.648h-5.0325z"/>
<g transform="matrix(1.25 0 0 -1.25 601.15 504.63)">
<path d="m0 0h4.484c0.984 0 1.752 0.188 2.282 0.558 0.515 0.353 0.734 0.8 0.734 1.487 0 0.669-0.212 1.078-0.741 1.415-0.544 0.307-1.35 0.48-2.275 0.48h-4.484zm0-8.338h4.484c1.176 0 2.079 0.203 2.683 0.609 0.627 0.409 0.905 0.969 0.905 1.804 0 0.787-0.273 1.291-0.912 1.685-0.613 0.338-1.511 0.514-2.676 0.514h-4.484zm-4.037-3.72v19.718h8.521c1.947 0 3.563-0.43 4.8-1.279 1.493-1.041 2.248-2.562 2.248-4.523 0-1.358-0.469-2.51-1.396-3.421-0.015-0.019-0.021-0.03-0.033-0.038l-0.033-0.029 0.035-0.027c0.736-0.626 1.284-1.413 1.624-2.34 0.257-0.652 0.383-1.301 0.383-1.928 0-2.054-0.851-3.66-2.531-4.779-1.357-0.901-3.072-1.354-5.097-1.354z" fill="#00a4e4"/>
</g>
<g transform="matrix(1.25 0 0 -1.25 657.63 519.71)">
<path d="m0 0-0.432 0.613-8.564 11.906v-12.519h-4.038v19.718h3.596l0.438-0.615 8.529-11.835v12.45h4.003v-19.718z" fill="#00a4e4"/>
</g>
<g transform="matrix(1.25 0 0 -1.25 681.88 519.71)">
<path d="m0 0-7.428 8.538-2.041-1.801v-6.737h-4.033v19.718h4.033v-7.924l9.058 7.934 5.786-0.01-9.859-8.571 9.659-11.147z" fill="#00a4e4"/>
</g>
<g transform="matrix(1.25 0 0 -1.25 494.2 519.71)">
<path d="m0 0c-2.996 0-5.441 1.005-7.26 2.997-1.666 1.794-2.511 4.14-2.511 6.958 0 1.964 0.455 3.768 1.353 5.358 0.955 1.785 2.399 3.127 4.297 3.986 1.243 0.543 2.64 0.819 4.15 0.819 2.189 0 4.117-0.611 5.739-1.818 1.664-1.193 2.687-2.829 3.051-4.867l0.066-0.362h-4.072c-0.337 1.047-0.882 1.845-1.662 2.438-0.832 0.631-1.85 0.937-3.122 0.937-1.342 0-2.447-0.339-3.384-1.04-0.958-0.715-1.612-1.66-1.995-2.894-0.278-0.808-0.419-1.668-0.419-2.557 0-1.881 0.505-3.395 1.499-4.486l0.035-0.043c1.02-1.179 2.414-1.752 4.264-1.752 1.719 0 2.998 0.457 3.912 1.4 0.652 0.687 1.047 1.504 1.212 2.501l9e-3 0.043h-6.415v3.678h10.38v-11.289h-3.873v1.441l-0.057-0.038c-0.147-0.093-0.308-0.183-0.474-0.271-1.409-0.761-2.995-1.139-4.723-1.139" fill="#00a4e4"/>
</g>
<g transform="matrix(1.25 0 0 -1.25 560.87 510.91)">
<path d="m0 0h5.112l-2.53 6.27zm7.954-7.034-1.349 3.343h-8.126l-1.377-3.343h-4.296l8.201 19.718h3.149l8.084-19.718z" fill="#00a4e4"/>
</g>
<g transform="matrix(1.25 0 0 -1.25 625.08 510.91)">
<path d="m0 0h5.112l-2.531 6.27zm7.954-7.034-1.351 3.343h-8.124l-1.378-3.343h-4.294l8.195 19.718h3.152l8.085-19.718z" fill="#00a4e4"/>
</g>
</g>
</g>
</svg>
