<?xml version="1.0" encoding="UTF-8"?>
<svg width="2110.9" height="2490.9" preserveAspectRatio="xMidYMid" version="1.1" viewBox="0 0 255.02 300.9" xmlns="http://www.w3.org/2000/svg" xmlns:cc="http://creativecommons.org/ns#" xmlns:dc="http://purl.org/dc/elements/1.1/" xmlns:rdf="http://www.w3.org/1999/02/22-rdf-syntax-ns#">
<metadata>
<rdf:RDF>
<cc:Work rdf:about="">
<dc:format>image/svg+xml</dc:format>
<dc:type rdf:resource="http://purl.org/dc/dcmitype/StillImage"/>
<dc:title/>
</cc:Work>
</rdf:RDF>
</metadata>
<path d="m217.13 22.676c-13.934-15.882-39.122-22.691-71.345-22.691h-93.52a13.393 13.393 0 0 0-13.227 11.294l-38.94 246.97c-0.774 4.87 2.997 9.28 7.933 9.28h57.736l14.5-91.971-0.45 2.88c1.033-6.501 6.593-11.296 13.177-11.296h27.436c53.898 0 96.101-21.892 108.43-85.221 0.366-1.873 0.683-3.696 0.957-5.477-1.556-0.824-1.556-0.824 0 0 3.671-23.407-0.025-39.34-12.686-53.765" fill="#27346a"/>
<path d="m102.36 68.009a11.737 11.737 0 0 1 5.053-1.14h73.318c8.682 0 16.78 0.565 24.18 1.756a101.6 101.6 0 0 1 6.177 1.182 89.928 89.928 0 0 1 8.59 2.347c3.638 1.215 7.026 2.63 10.14 4.287 3.67-23.416-0.026-39.34-12.687-53.765-13.942-15.882-39.122-22.691-71.345-22.691h-93.528c-6.585 0-12.187 4.794-13.219 11.294l-38.94 246.96c-0.774 4.878 2.997 9.282 7.925 9.282h57.744l30.083-190.77a11.717 11.717 0 0 1 6.509-8.74z" fill="#27346a"/>
<path d="m228.86 81.918c-12.328 63.32-54.53 85.221-108.43 85.221h-27.444c-6.584 0-12.145 4.795-13.168 11.296l-18.039 114.36c-0.674 4.262 2.622 8.124 6.934 8.124h48.67a11.71 11.71 0 0 0 11.563-9.88l0.474-2.48 9.173-58.136 0.591-3.213a11.71 11.71 0 0 1 11.562-9.88h7.284c47.147 0 84.064-19.154 94.852-74.55 4.503-23.15 2.173-42.478-9.739-56.054-3.613-4.112-8.1-7.508-13.327-10.28-0.283 1.79-0.59 3.604-0.957 5.477z" fill="#2790c3"/>
<path d="m216.92 71.297" fill="#1f264f"/>
</svg>
