<?xml version="1.0" encoding="UTF-8"?>
<svg version="1.1" viewBox="0 0 415.44 145.16" xmlns="http://www.w3.org/2000/svg" xmlns:cc="http://creativecommons.org/ns#" xmlns:dc="http://purl.org/dc/elements/1.1/" xmlns:rdf="http://www.w3.org/1999/02/22-rdf-syntax-ns#">
<title>BDO</title>
<metadata>
<rdf:RDF>
<cc:Work rdf:about="">
<dc:format>image/svg+xml</dc:format>
<dc:type rdf:resource="http://purl.org/dc/dcmitype/StillImage"/>
<dc:title>BDO</dc:title>
</cc:Work>
</rdf:RDF>
</metadata>
<g transform="translate(-95.969 -382.94)">
<path d="m95.969 386.94 0.75 136.62 92.938-0.53125c9.7781-0.99094 20.78-3.3267 28.469-9.3125 4.2219-3.2868 8.4309-7.6366 11.188-13.219v22.781l68.188-0.5c55.136-3.6968 73.809-41.746 73.531-66.688-0.28926-26.002-17.532-65.96-79.594-68.906l-62.125-0.25v83.094c-3.6715-8.1125-11.564-16.008-28.531-20.719 12.869-7.3417 18.666-18.794 17.312-30.812-1.2879-11.434-6.1542-26.995-36-31.062l-86.125-0.5zm68.438 18.031c17.114 3.0803 20.52 12.77 20.562 20.094 0.0461 7.96-4.4523 18.377-20.562 19.188l-36.625-0.125v-38.906l36.625-0.25zm97.969 0.125 19.969 0.28125c39.433-0.48228 52.175 27.456 52.031 50-0.11937 18.725-7.6485 49.861-52.031 49.75l-20.469-0.25 0.5-99.781zm-87.25 57.094c17.437 1.7749 23.958 11.93 24.375 21.219 0.36773 8.1854-3.4678 20.271-23.875 21.844h-47.719v-42.562l47.219-0.5z" fill="#0b2972"/>
<path d="m430.69 382.94c-44.571 0-80.688 32.513-80.688 72.594s36.117 72.562 80.688 72.562 80.719-32.482 80.719-72.562-36.148-72.594-80.719-72.594zm0.4375 16.375c25.718 0 46.562 24.95 46.562 55.719s-20.845 55.719-46.562 55.719-46.562-24.95-46.562-55.719 20.845-55.719 46.562-55.719z" fill="#ffb20c"/>
</g>
</svg>
