<?xml version="1.0" encoding="UTF-8" standalone="no"?>
<!-- Generator: Adobe Illustrator 25.4.1, SVG Export Plug-In . SVG Version: 6.00 Build 0)  -->

<svg
   xmlns:dc="http://purl.org/dc/elements/1.1/"
   xmlns:cc="http://creativecommons.org/ns#"
   xmlns:rdf="http://www.w3.org/1999/02/22-rdf-syntax-ns#"
   xmlns:svg="http://www.w3.org/2000/svg"
   xmlns="http://www.w3.org/2000/svg"
   xmlns:sodipodi="http://sodipodi.sourceforge.net/DTD/sodipodi-0.dtd"
   xmlns:inkscape="http://www.inkscape.org/namespaces/inkscape"
   version="1.1"
   id="Capa_1"
   x="0px"
   y="0px"
   viewBox="0 0 160.80383 160.80084"
   xml:space="preserve"
   sodipodi:docname="icon.svg"
   width="160.80383"
   height="160.80084"
   inkscape:version="0.92.5 (2060ec1f9f, 2020-04-08)"><metadata
   id="metadata118"><rdf:RDF><cc:Work
       rdf:about=""><dc:format>image/svg+xml</dc:format><dc:type
         rdf:resource="http://purl.org/dc/dcmitype/StillImage" /><dc:title></dc:title></cc:Work></rdf:RDF></metadata><defs
   id="defs116" /><sodipodi:namedview
   pagecolor="#ffffff"
   bordercolor="#666666"
   borderopacity="1"
   objecttolerance="10"
   gridtolerance="10"
   guidetolerance="10"
   inkscape:pageopacity="0"
   inkscape:pageshadow="2"
   inkscape:window-width="1848"
   inkscape:window-height="1016"
   id="namedview114"
   showgrid="false"
   inkscape:zoom="2.1914026"
   inkscape:cx="282.73902"
   inkscape:cy="56.465622"
   inkscape:window-x="72"
   inkscape:window-y="27"
   inkscape:window-maximized="1"
   inkscape:current-layer="g111" />
<style
   type="text/css"
   id="style87">
	.st0{fill:#191E23;}
</style>
<g
   id="g111"
   transform="translate(-88.6,-52.899157)">
	<g
   id="g105">
		<path
   class="st0"
   d="m 167.7,52.9 h -12.6 c -2.7,0.1 -4.8,2.4 -4.8,5.1 v 37.3 c 0,2.8 2.3,5.1 5.1,5.1 h 13.4 c 6,0 11.9,1.6 17.1,4.8 9.9,5.9 16.1,16.6 16.1,28.2 v 70.1 c 0,1.1 0.8,2 1.9,2 0.3,0 0.7,-0.1 1,-0.2 27.5,-13.7 44.8,-41.9 44.5,-72.7 -0.9,-44.5 -37.3,-79.9 -81.7,-79.7 z"
   id="path89"
   inkscape:connector-curvature="0"
   style="fill:#191e23" />
		<path
   class="st0"
   d="M 182.4,166.3 H 169 c -18.2,0 -32.9,-14.8 -33,-33 V 57.8 c -0.1,-2.7 -2.4,-4.9 -5.1,-4.9 H 93.7 c -2.8,0 -5.1,2.3 -5.1,5.1 v 75.3 c 0,44.4 36,80.4 80.4,80.4 h 13.9 c 2.7,-0.1 4.9,-2.4 4.9,-5.1 v -37.3 c 0,-2.8 -2.3,-5.1 -5.1,-5.1 z"
   id="path91"
   inkscape:connector-curvature="0"
   style="fill:#191e23" />
		
		
		
		
		
		
	</g>
	<g
   id="g109">
		
	</g>
</g>
</svg>