<?xml version="1.0" encoding="UTF-8" standalone="no"?>
<!-- Generator: Adobe Illustrator 25.4.1, SVG Export Plug-In . SVG Version: 6.00 Build 0)  -->

<svg
   xmlns:dc="http://purl.org/dc/elements/1.1/"
   xmlns:cc="http://creativecommons.org/ns#"
   xmlns:rdf="http://www.w3.org/1999/02/22-rdf-syntax-ns#"
   xmlns:svg="http://www.w3.org/2000/svg"
   xmlns="http://www.w3.org/2000/svg"
   xmlns:sodipodi="http://sodipodi.sourceforge.net/DTD/sodipodi-0.dtd"
   xmlns:inkscape="http://www.inkscape.org/namespaces/inkscape"
   version="1.1"
   id="Capa_1"
   x="0px"
   y="0px"
   viewBox="0 0 626.2 160.80084"
   xml:space="preserve"
   sodipodi:docname="logo.svg"
   width="626.20001"
   height="160.80084"
   inkscape:version="0.92.5 (2060ec1f9f, 2020-04-08)"><metadata
   id="metadata103"><rdf:RDF><cc:Work
       rdf:about=""><dc:format>image/svg+xml</dc:format><dc:type
         rdf:resource="http://purl.org/dc/dcmitype/StillImage" /></cc:Work></rdf:RDF></metadata><defs
   id="defs101" /><sodipodi:namedview
   pagecolor="#ffffff"
   bordercolor="#666666"
   borderopacity="1"
   objecttolerance="10"
   gridtolerance="10"
   guidetolerance="10"
   inkscape:pageopacity="0"
   inkscape:pageshadow="2"
   inkscape:window-width="1848"
   inkscape:window-height="1016"
   id="namedview99"
   showgrid="false"
   inkscape:zoom="2.1914026"
   inkscape:cx="291.75001"
   inkscape:cy="80.399997"
   inkscape:window-x="72"
   inkscape:window-y="27"
   inkscape:window-maximized="1"
   inkscape:current-layer="Capa_1" />
<style
   type="text/css"
   id="style72">
	.st0{fill:#191E23;}
</style>
<g
   id="g96"
   transform="translate(-88.6,-52.899157)">
	<g
   id="g90">
		<path
   class="st0"
   d="m 167.7,52.9 h -12.6 c -2.7,0.1 -4.8,2.4 -4.8,5.1 v 37.3 c 0,2.8 2.3,5.1 5.1,5.1 h 13.4 c 6,0 11.9,1.6 17.1,4.8 9.9,5.9 16.1,16.6 16.1,28.2 v 70.1 c 0,1.1 0.8,2 1.9,2 0.3,0 0.7,-0.1 1,-0.2 27.5,-13.7 44.8,-41.9 44.5,-72.7 -0.9,-44.5 -37.3,-79.9 -81.7,-79.7 z"
   id="path74"
   inkscape:connector-curvature="0"
   style="fill:#191e23" />
		<path
   class="st0"
   d="M 182.4,166.3 H 169 c -18.2,0 -32.9,-14.8 -33,-33 V 57.8 c -0.1,-2.7 -2.4,-4.9 -5.1,-4.9 H 93.7 c -2.8,0 -5.1,2.3 -5.1,5.1 v 75.3 c 0,44.4 36,80.4 80.4,80.4 h 13.9 c 2.7,-0.1 4.9,-2.4 4.9,-5.1 v -37.3 c 0,-2.8 -2.3,-5.1 -5.1,-5.1 z"
   id="path76"
   inkscape:connector-curvature="0"
   style="fill:#191e23" />
		<path
   class="st0"
   d="m 632.2,99 c -29.6,0 -42.9,20.1 -42.9,46.9 0,26.8 15.7,42.9 40.2,42.9 29.7,0 42.5,-19.8 42.5,-46.9 C 672,114.7 656.8,99 632.2,99 Z m 10.2,67 c -3.5,2.4 -7.7,3.7 -11.9,3.5 -10,0 -15.9,-8.5 -15.9,-23.8 -0.3,-7 1.2,-13.9 4.5,-20.1 3.5,-2.6 7.7,-3.9 12.1,-3.8 10.6,0 15.8,8.6 15.8,21.4 0.2,7.8 -1.3,15.6 -4.6,22.8 z"
   id="path78"
   inkscape:connector-curvature="0"
   style="fill:#191e23" />
		<path
   class="st0"
   d="m 549,135.6 c -12.4,-2.3 -15.1,-3.9 -15.1,-8 0,-1.5 0.6,-2.9 1.5,-4 4.3,-1.6 8.8,-2.4 13.4,-2.3 9.1,0 18.2,1.7 26.8,4.9 v -21.1 c -8.8,-4.2 -18.5,-6.2 -28.2,-6.1 -19.2,0 -37.7,10 -37.7,28.5 0,17.3 10.2,22.4 28.8,25.7 14.1,2.5 17,4.7 17,9 0.1,1.6 -0.4,3.2 -1.3,4.5 l -0.4,0.4 c -2,0.9 -4.1,1.4 -6.2,1.5 -2.5,0.3 -5,0.5 -7.6,0.5 -10,0 -19.9,-2.3 -28.9,-6.7 v 20.8 c 10,3.7 20.5,5.6 31.1,5.8 22.8,0 37.1,-7.6 37.1,-27.3 0.4,-16.6 -9.8,-22.4 -30.3,-26.1 z"
   id="path80"
   inkscape:connector-curvature="0"
   style="fill:#191e23" />
		<path
   class="st0"
   d="m 366,131.4 c 8.9,-4.5 14.7,-13.6 15,-23.6 C 381,89 366.5,79.1 336.2,79.1 h -43.5 v 108.2 h 50.7 c 26.8,0 40.6,-10.3 40.6,-30.5 0.4,-11.6 -7,-21.9 -18,-25.4 z M 319.1,99.9 c 4.4,-0.1 9.6,-0.1 15.6,-0.1 13.8,0 20.1,4.1 20.1,13.4 0.1,2.7 -0.6,5.3 -2.1,7.6 -1.4,2.5 -3.8,4.3 -6.7,4.8 -3.5,0.5 -7.1,0.8 -10.7,0.8 -6,0 -11.7,0 -15.9,-0.3 z m 37.4,63.3 c -0.6,1.9 -1.7,3.6 -3.1,5 -2.1,0.9 -4.4,1.2 -6.7,1.1 -2.5,0 -5,0 -7.5,0 -8,0 -14.9,0 -19.6,0 v -25.1 h 18.8 c 13.4,0 19.2,4 19.2,12.9 0,2.1 -0.4,4.1 -1.1,6.1 z"
   id="path82"
   inkscape:connector-curvature="0"
   style="fill:#191e23" />
		<polygon
   class="st0"
   points="427.3,187.3 401.7,187.3 401.7,100.5 427.3,100.5 "
   id="polygon84"
   style="fill:#191e23" />
		<path
   class="st0"
   d="m 474.2,79.1 -24.4,1.8 v 82.2 c 0,16 7.8,25.5 26.8,25.5 6.1,0.1 12.1,-0.6 18,-2.1 v -20.1 c -3.8,0 -7.4,0.7 -12.5,0.7 -5.2,0 -7.6,-2.7 -7.6,-6.7 v -40.5 h 21.4 V 101 h -21.4 z"
   id="path86"
   inkscape:connector-curvature="0"
   style="fill:#191e23" />
		<polygon
   class="st0"
   points="428.2,87.2 400.9,87.2 400.9,68.8 428.2,66.3 "
   id="polygon88"
   style="fill:#191e23" />
	</g>
	<g
   id="g94">
		<path
   class="st0"
   d="m 709.9,100.1 c 1.6,0.8 2.8,2.1 3.6,3.6 0.8,1.6 1.3,3.4 1.3,5.6 0,2.3 -0.4,4.3 -1.3,6 -0.9,1.7 -2.1,3 -3.8,3.9 -1.6,0.9 -3.6,1.3 -5.8,1.3 -2.1,0 -4,-0.4 -5.6,-1.3 -1.6,-0.8 -2.8,-2.1 -3.6,-3.6 -0.8,-1.5 -1.3,-3.4 -1.3,-5.6 0,-3.5 1,-6.2 2.9,-8.2 1.9,-2 4.6,-3 8,-3 2.1,0 4,0.4 5.6,1.3 z m 3,9.3 c 0,-2.7 -0.8,-4.9 -2.3,-6.5 -1.5,-1.6 -3.6,-2.3 -6.3,-2.3 -3,0 -5.3,0.8 -6.9,2.3 -1.4,1.7 -2.1,4 -2.1,7 0,2.7 0.8,4.9 2.3,6.5 1.5,1.6 3.6,2.3 6.3,2.3 2.9,0 5.2,-0.8 6.9,-2.3 1.4,-1.8 2.1,-4.1 2.1,-7 z m -4.1,0.7 c -0.4,0.6 -1.1,1 -1.9,1.2 l 2.6,3.7 h -2.7 l -2.4,-3.4 h -2.3 v 3.4 h -2.5 v -11.1 h 5.1 c 3.2,0 4.8,1.2 4.8,3.6 0,1.1 -0.2,2 -0.7,2.6 z m -6.7,-0.3 c 0.5,0 1.3,0 2.3,0 1,0 1.8,-0.1 2.3,-0.3 0.3,-0.4 0.5,-0.9 0.5,-1.5 0,-1.2 -0.9,-1.7 -2.8,-1.7 -1.1,0 -1.8,0 -2.3,0 z"
   id="path92"
   inkscape:connector-curvature="0"
   style="fill:#191e23" />
	</g>
</g>
</svg>