<svg id="Layer_1" data-name="Layer 1" xmlns="http://www.w3.org/2000/svg" width="600" height="600" viewBox="0 0 600 600">
  <defs>
    <style>
      .cls-1 {
        fill: #fff;
      }

      .cls-2 {
        fill: #37c800;
      }

      .cls-3 {
        fill: #caff64;
      }

      .cls-4 {
        fill: #ff00be;
      }

      .cls-5 {
        fill: #8200ff;
      }
    </style>
  </defs>
  <path id="rect578" class="cls-1" d="M90,0H510a89.8,89.8,0,0,1,90,90V510a89.8,89.8,0,0,1-90,90H90A89.8,89.8,0,0,1,0,510V90A89.8,89.8,0,0,1,90,0Z"/>
  <path id="rect578-2" data-name="rect578" class="cls-1" d="M90,0H510a89.75,89.75,0,0,1,90,90V510a89.75,89.75,0,0,1-90,90H90A89.75,89.75,0,0,1,0,510V90A89.75,89.75,0,0,1,90,0Z"/>
  <g>
    <path class="cls-2" d="M505.69,300c0,113.6-92.09,205.69-205.69,205.69S94.31,413.6,94.31,300,186.4,94.31,300,94.31,505.69,186.4,505.69,300"/>
    <path class="cls-3" d="M462.7,220.73c34.51,70.83,31.42,163.74-58.43,207.52s-232.46,21.86-267-49,46.24-180.43,136.1-224.21,154.79-5.17,189.3,65.67"/>
    <path class="cls-4" d="M427.88,376.85c-25.59,43.32-136.43,50.5-196.44,15S185,291.73,210.56,248.41s79.71-70.58,139.72-35.11,103.2,120.24,77.6,163.55"/>
    <path class="cls-5" d="M374.37,276.28c8,31.61-1.32,71.48-44.88,82.53s-104.84-10.92-112.85-42.53,40.27-60.89,83.82-71.93,65.89.32,73.91,31.93"/>
    <path class="cls-1" d="M331.14,300.85A31.14,31.14,0,1,1,300,269.71a31.14,31.14,0,0,1,31.14,31.14"/>
  </g>
</svg>
