<?xml version="1.0" encoding="UTF-8" standalone="no"?>
<svg
   xmlns:dc="http://purl.org/dc/elements/1.1/"
   xmlns:cc="http://creativecommons.org/ns#"
   xmlns:rdf="http://www.w3.org/1999/02/22-rdf-syntax-ns#"
   xmlns:svg="http://www.w3.org/2000/svg"
   xmlns="http://www.w3.org/2000/svg"
   xmlns:sodipodi="http://sodipodi.sourceforge.net/DTD/sodipodi-0.dtd"
   xmlns:inkscape="http://www.inkscape.org/namespaces/inkscape"
   sodipodi:docname="UPI Logo.svg"
   inkscape:version="1.0 (4035a4fb49, 2020-05-01)"
   id="svg347"
   version="1.1"
   viewBox="0 0 130.54 46.118"
   height="46.118mm"
   width="130.53999mm">
  <defs
     id="defs341">
    <clipPath
       id="clipPath28"
       clipPathUnits="userSpaceOnUse">
      <path
         id="path26"
         d="M 0,216 H 432 V 0 H 0 Z" />
    </clipPath>
  </defs>
  <sodipodi:namedview
     inkscape:window-maximized="0"
     inkscape:window-y="0"
     inkscape:window-x="122"
     inkscape:window-height="1030"
     inkscape:window-width="1375"
     showgrid="false"
     inkscape:document-rotation="0"
     inkscape:current-layer="layer1"
     inkscape:document-units="mm"
     inkscape:cy="704.43148"
     inkscape:cx="-205.74726"
     inkscape:zoom="0.5"
     inkscape:pageshadow="2"
     inkscape:pageopacity="0.0"
     borderopacity="1.0"
     bordercolor="#666666"
     pagecolor="#ffffff"
     id="base" />
  <metadata
     id="metadata344">
    <rdf:RDF>
      <cc:Work
         rdf:about="">
        <dc:format>image/svg+xml</dc:format>
        <dc:type
           rdf:resource="http://purl.org/dc/dcmitype/StillImage" />
        <dc:title></dc:title>
      </cc:Work>
    </rdf:RDF>
  </metadata>
  <g
     id="layer1"
     inkscape:groupmode="layer"
     inkscape:label="Layer 1">
    <g
       id="g22"
       transform="matrix(0.35277777,0,0,-0.35277777,-10.926321,61.158633)">
      <g
         id="g24"
         clip-path="url(#clipPath28)">
        <g
           id="g30"
           transform="translate(33.9766,61.0674)">
          <path
             d="M 0,0 H 2.77 L 0.196,-10.751 c -0.382,-1.595 -0.31,-2.796 0.218,-3.597 0.526,-0.802 1.505,-1.203 2.936,-1.203 1.422,0 2.588,0.401 3.499,1.203 0.912,0.801 1.559,2.002 1.941,3.597 L 11.363,0 h 2.806 l -2.637,-11.017 c -0.573,-2.394 -1.594,-4.186 -3.056,-5.374 -1.463,-1.19 -3.381,-1.784 -5.754,-1.784 -2.375,0 -4.004,0.593 -4.891,1.778 -0.888,1.184 -1.043,2.978 -0.468,5.38 z"
             style="fill:#696a6a;fill-opacity:1;fill-rule:nonzero;stroke:none"
             id="path32" />
        </g>
        <g
           id="g34"
           transform="translate(47.7734,43.3633)">
          <path
             d="M 0,0 4.406,18.405 12.778,7.582 C 13.002,7.277 13.228,6.95 13.451,6.603 13.674,6.256 13.902,5.866 14.136,5.43 l 2.939,12.274 h 2.593 L 15.265,-0.687 6.717,10.329 C 6.488,10.626 6.275,10.94 6.076,11.271 5.875,11.602 5.694,11.949 5.528,12.311 L 2.581,0 Z"
             style="fill:#696a6a;fill-opacity:1;fill-rule:nonzero;stroke:none"
             id="path36" />
        </g>
        <g
           id="g38"
           transform="translate(67.2119,43.3633)">
          <path
             d="M 0,0 4.238,17.704 H 7.042 L 2.805,0 Z"
             style="fill:#696a6a;fill-opacity:1;fill-rule:nonzero;stroke:none"
             id="path40" />
        </g>
        <g
           id="g42"
           transform="translate(74.0488,43.3633)">
          <path
             d="m 0,0 4.238,17.704 h 9.63 L 13.283,15.262 H 6.458 L 5.401,10.848 h 6.825 L 11.622,8.321 H 4.796 L 2.805,0 Z"
             style="fill:#696a6a;fill-opacity:1;fill-rule:nonzero;stroke:none"
             id="path44" />
        </g>
        <g
           id="g46"
           transform="translate(86.7686,43.3633)">
          <path
             d="M 0,0 4.238,17.704 H 7.042 L 2.805,0 Z"
             style="fill:#696a6a;fill-opacity:1;fill-rule:nonzero;stroke:none"
             id="path48" />
        </g>
        <g
           id="g50"
           transform="translate(93.6055,43.3633)">
          <path
             d="m 0,0 4.238,17.704 h 9.63 L 13.283,15.262 H 6.458 L 5.395,10.824 H 12.22 L 11.616,8.296 H 4.791 l -1.37,-5.72 h 6.825 L 9.63,0 Z"
             style="fill:#696a6a;fill-opacity:1;fill-rule:nonzero;stroke:none"
             id="path52" />
        </g>
        <g
           id="g54"
           transform="translate(109.8818,45.9639)">
          <path
             d="m 0,0 h 2.358 c 1.296,0 2.29,0.089 2.981,0.266 0.691,0.177 1.325,0.476 1.906,0.895 0.789,0.571 1.448,1.283 1.978,2.134 0.529,0.85 0.93,1.841 1.2,2.97 0.269,1.129 0.343,2.117 0.221,2.966 -0.123,0.852 -0.441,1.563 -0.956,2.136 -0.387,0.418 -0.898,0.718 -1.536,0.896 -0.639,0.176 -1.679,0.265 -3.125,0.265 H 4.013 2.999 Z m -3.427,-2.601 4.238,17.705 h 3.783 c 2.46,0 4.16,-0.126 5.102,-0.38 0.94,-0.255 1.717,-0.681 2.328,-1.277 0.811,-0.782 1.327,-1.786 1.549,-3.01 C 13.794,9.211 13.716,7.812 13.34,6.24 12.964,4.668 12.373,3.275 11.567,2.062 10.763,0.848 9.766,-0.153 8.58,-0.943 7.683,-1.54 6.721,-1.965 5.699,-2.22 4.674,-2.473 3.146,-2.601 1.11,-2.601 H 0.355 Z"
             style="fill:#696a6a;fill-opacity:1;fill-rule:nonzero;stroke:none"
             id="path56" />
        </g>
        <g
           id="g58"
           transform="translate(136.8799,53.666)">
          <path
             d="M 0,0 H 0.72 C 2.275,0 3.354,0.175 3.956,0.521 4.559,0.867 4.964,1.48 5.174,2.359 5.4,3.302 5.283,3.968 4.821,4.354 4.359,4.741 3.387,4.936 1.902,4.936 h -0.72 z m -0.741,-2.356 -1.902,-7.947 H -5.271 L -1.032,7.401 H 3.211 C 4.468,7.401 5.377,7.331 5.937,7.19 6.495,7.05 6.956,6.817 7.32,6.494 7.763,6.083 8.054,5.529 8.194,4.832 8.333,4.134 8.303,3.366 8.103,2.529 7.901,1.69 7.563,0.916 7.087,0.206 6.611,-0.503 6.053,-1.06 5.415,-1.462 4.897,-1.785 4.326,-2.015 3.7,-2.151 3.073,-2.289 2.132,-2.356 0.875,-2.356 H 0.322 Z"
             style="fill:#696a6a;fill-opacity:1;fill-rule:nonzero;stroke:none"
             id="path60" />
        </g>
        <g
           id="g62"
           transform="translate(148.4458,50.3164)">
          <path
             d="M 0,0 H 4.809 L 4.006,4.04 C 3.968,4.297 3.932,4.593 3.901,4.928 3.872,5.263 3.852,5.636 3.839,6.047 3.653,5.66 3.466,5.299 3.279,4.964 3.093,4.63 2.912,4.322 2.734,4.04 Z M 6.092,-6.953 5.225,-2.394 H -1.612 L -4.707,-6.953 H -7.652 L 5.109,11.452 9.05,-6.953 Z"
             style="fill:#696a6a;fill-opacity:1;fill-rule:nonzero;stroke:none"
             id="path64" />
        </g>
        <g
           id="g66"
           transform="translate(161.5161,43.3633)">
          <path
             d="m 0,0 1.938,8.103 -3.512,9.601 h 2.947 l 2.18,-6.01 c 0.05,-0.154 0.11,-0.355 0.179,-0.605 0.07,-0.25 0.138,-0.519 0.202,-0.81 0.176,0.282 0.357,0.55 0.538,0.799 0.181,0.25 0.364,0.479 0.549,0.689 l 5.133,5.937 H 12.96 L 4.72,8.103 2.781,0 Z"
             style="fill:#696a6a;fill-opacity:1;fill-rule:nonzero;stroke:none"
             id="path68" />
        </g>
        <g
           id="g70"
           transform="translate(188.2803,52.1074)">
          <path
             d="M 0,0 C 0.001,0.137 0.041,0.515 0.119,1.136 0.179,1.652 0.226,2.08 0.26,2.419 0.093,2.015 -0.104,1.611 -0.33,1.209 -0.557,0.806 -0.817,0.395 -1.114,-0.025 l -6.773,-9.433 -2.21,9.626 c -0.094,0.396 -0.166,0.779 -0.214,1.149 -0.048,0.371 -0.081,0.738 -0.097,1.102 -0.096,-0.372 -0.218,-0.76 -0.367,-1.168 -0.149,-0.407 -0.327,-0.833 -0.536,-1.276 l -3.938,-8.719 h -2.58 l 8.495,18.455 2.418,-11.175 c 0.035,-0.177 0.086,-0.472 0.148,-0.883 0.062,-0.411 0.135,-0.919 0.22,-1.523 0.286,0.508 0.698,1.152 1.24,1.934 0.144,0.21 0.254,0.371 0.328,0.484 L 2.667,9.711 2.422,-8.744 h -2.606 z"
             style="fill:#696a6a;fill-opacity:1;fill-rule:nonzero;stroke:none"
             id="path72" />
        </g>
        <g
           id="g74"
           transform="translate(192.9419,43.3633)">
          <path
             d="m 0,0 4.239,17.704 h 9.63 L 13.284,15.262 H 6.458 L 5.396,10.824 h 6.825 L 11.617,8.296 H 4.791 L 3.422,2.576 h 6.825 L 9.629,0 Z"
             style="fill:#696a6a;fill-opacity:1;fill-rule:nonzero;stroke:none"
             id="path76" />
        </g>
        <g
           id="g78"
           transform="translate(205.791,43.3633)">
          <path
             d="M 0,0 4.406,18.405 12.778,7.582 C 13.002,7.277 13.228,6.95 13.451,6.603 13.674,6.256 13.902,5.866 14.136,5.43 l 2.939,12.274 h 2.594 L 15.265,-0.687 6.717,10.329 C 6.488,10.626 6.275,10.94 6.076,11.271 5.875,11.602 5.694,11.949 5.528,12.311 L 2.581,0 Z"
             style="fill:#696a6a;fill-opacity:1;fill-rule:nonzero;stroke:none"
             id="path80" />
        </g>
        <g
           id="g82"
           transform="translate(234.4102,58.625)">
          <path
             d="M 0,0 -3.653,-15.262 H -6.458 L -2.806,0 h -4.585 l 0.585,2.442 H 5.146 L 4.562,0 Z"
             style="fill:#696a6a;fill-opacity:1;fill-rule:nonzero;stroke:none"
             id="path84" />
        </g>
        <g
           id="g86"
           transform="translate(237.3213,46.9072)">
          <path
             d="M 0,0 2.494,1.063 C 2.519,0.274 2.763,-0.329 3.229,-0.744 3.695,-1.16 4.368,-1.367 5.25,-1.367 c 0.832,0 1.552,0.238 2.156,0.714 0.605,0.475 1.004,1.112 1.195,1.91 C 8.85,2.298 8.229,3.225 6.744,4.038 6.536,4.159 6.376,4.248 6.266,4.305 4.591,5.256 3.529,6.117 3.081,6.887 2.634,7.657 2.542,8.598 2.808,9.71 c 0.345,1.443 1.103,2.612 2.272,3.507 1.169,0.895 2.527,1.343 4.076,1.343 1.273,0 2.278,-0.252 3.013,-0.756 0.736,-0.505 1.156,-1.228 1.26,-2.171 L 10.96,10.472 c -0.214,0.556 -0.496,0.963 -0.846,1.222 -0.351,0.258 -0.795,0.387 -1.328,0.387 -0.754,0 -1.402,-0.203 -1.943,-0.604 C 6.305,11.073 5.952,10.533 5.789,9.855 5.535,8.791 6.272,7.8 8.001,6.881 8.134,6.809 8.238,6.751 8.313,6.711 9.826,5.906 10.81,5.117 11.261,4.347 11.713,3.576 11.802,2.615 11.525,1.463 11.124,-0.215 10.291,-1.547 9.025,-2.534 7.759,-3.521 6.249,-4.015 4.498,-4.015 c -1.471,0 -2.592,0.346 -3.364,1.04 C 0.36,-2.282 -0.018,-1.291 0,0"
             style="fill:#696a6a;fill-opacity:1;fill-rule:nonzero;stroke:none"
             id="path88" />
        </g>
        <g
           id="g90"
           transform="translate(258.0459,43.3633)">
          <path
             d="M 0,0 4.238,17.704 H 7.043 L 2.805,0 Z"
             style="fill:#696a6a;fill-opacity:1;fill-rule:nonzero;stroke:none"
             id="path92" />
        </g>
        <g
           id="g94"
           transform="translate(264.8828,43.3633)">
          <path
             d="M 0,0 4.406,18.405 12.778,7.582 C 13.002,7.277 13.228,6.95 13.451,6.603 13.674,6.256 13.902,5.866 14.136,5.43 l 2.939,12.274 h 2.593 L 15.265,-0.687 6.717,10.329 c -0.229,0.297 -0.443,0.611 -0.642,0.942 -0.2,0.331 -0.382,0.678 -0.548,1.04 L 2.581,0 Z"
             style="fill:#696a6a;fill-opacity:1;fill-rule:nonzero;stroke:none"
             id="path96" />
        </g>
        <g
           id="g98"
           transform="translate(293.502,58.625)">
          <path
             d="M 0,0 -3.654,-15.262 H -6.458 L -2.806,0 h -4.585 l 0.585,2.442 H 5.146 L 4.562,0 Z"
             style="fill:#696a6a;fill-opacity:1;fill-rule:nonzero;stroke:none"
             id="path100" />
        </g>
        <g
           id="g102"
           transform="translate(296.5557,43.3633)">
          <path
             d="m 0,0 4.238,17.704 h 9.63 L 13.284,15.262 H 6.459 L 5.396,10.824 h 6.825 L 11.616,8.296 H 4.791 L 3.422,2.576 h 6.825 L 9.63,0 Z"
             style="fill:#696a6a;fill-opacity:1;fill-rule:nonzero;stroke:none"
             id="path104" />
        </g>
        <g
           id="g106"
           transform="translate(314.6416,53.5225)">
          <path
             d="M 0,0 H 0.508 C 1.992,0 3.021,0.176 3.593,0.531 4.165,0.886 4.561,1.514 4.775,2.418 5.009,3.393 4.913,4.081 4.484,4.479 4.059,4.88 3.138,5.079 1.724,5.079 H 1.216 Z m -0.712,-2.237 -1.897,-7.922 h -2.628 l 4.239,17.704 h 3.913 c 1.147,0 2.019,-0.076 2.614,-0.23 C 6.125,7.162 6.605,6.909 6.968,6.553 7.4,6.127 7.68,5.573 7.81,4.896 7.937,4.22 7.904,3.478 7.712,2.673 7.373,1.254 6.773,0.143 5.913,-0.66 5.053,-1.461 3.951,-1.944 2.608,-2.104 l 4.014,-8.055 H 3.45 l -3.844,7.922 z"
             style="fill:#696a6a;fill-opacity:1;fill-rule:nonzero;stroke:none"
             id="path108" />
        </g>
        <g
           id="g110"
           transform="translate(322.9258,43.3633)">
          <path
             d="m 0,0 4.238,17.704 h 9.63 L 13.284,15.262 H 6.458 L 5.401,10.848 h 6.826 L 11.622,8.321 H 4.797 L 2.805,0 Z"
             style="fill:#696a6a;fill-opacity:1;fill-rule:nonzero;stroke:none"
             id="path112" />
        </g>
        <g
           id="g114"
           transform="translate(340.0449,50.3164)">
          <path
             d="M 0,0 H 4.81 L 4.007,4.04 C 3.968,4.297 3.933,4.593 3.902,4.928 3.873,5.263 3.853,5.636 3.84,6.047 3.653,5.66 3.466,5.299 3.28,4.964 3.094,4.63 2.912,4.322 2.734,4.04 Z M 6.093,-6.953 5.226,-2.394 H -1.611 L -4.706,-6.953 H -7.652 L 5.109,11.452 9.051,-6.953 Z"
             style="fill:#696a6a;fill-opacity:1;fill-rule:nonzero;stroke:none"
             id="path116" />
        </g>
        <g
           id="g118"
           transform="translate(367.3555,56.7627)">
          <path
             d="m 0,0 c -0.627,0.693 -1.341,1.213 -2.143,1.56 -0.8,0.345 -1.688,0.52 -2.663,0.52 -1.885,0 -3.569,-0.621 -5.048,-1.862 -1.481,-1.242 -2.457,-2.85 -2.93,-4.826 -0.457,-1.911 -0.258,-3.486 0.596,-4.727 0.854,-1.242 2.158,-1.864 3.909,-1.864 1.023,0 2.039,0.186 3.051,0.557 1.012,0.371 2.033,0.931 3.06,1.682 l -0.779,-3.254 c -0.887,-0.556 -1.808,-0.972 -2.761,-1.245 -0.954,-0.274 -1.949,-0.411 -2.986,-0.411 -1.32,0 -2.488,0.221 -3.501,0.665 -1.014,0.443 -1.843,1.095 -2.484,1.959 -0.638,0.846 -1.047,1.843 -1.222,2.993 -0.178,1.148 -0.111,2.372 0.199,3.671 0.311,1.297 0.83,2.516 1.555,3.657 0.724,1.141 1.619,2.143 2.681,3.005 1.066,0.871 2.206,1.529 3.42,1.978 1.215,0.446 2.468,0.671 3.757,0.671 1.014,0 1.944,-0.152 2.791,-0.455 C -0.651,3.973 0.131,3.516 0.85,2.901 Z"
             style="fill:#696a6a;fill-opacity:1;fill-rule:nonzero;stroke:none"
             id="path120" />
        </g>
        <g
           id="g122"
           transform="translate(367.627,43.3633)">
          <path
             d="m 0,0 4.238,17.704 h 9.63 L 13.283,15.262 H 6.459 L 5.396,10.824 h 6.825 L 11.616,8.296 H 4.791 L 3.422,2.576 h 6.825 L 9.63,0 Z"
             style="fill:#696a6a;fill-opacity:1;fill-rule:nonzero;stroke:none"
             id="path124" />
        </g>
        <g
           id="g126"
           transform="translate(316.4629,76.4951)">
          <path
             d="M 0,0 H -19.283 L 7.535,96.855 h 19.284 z"
             style="fill:#66686c;fill-opacity:1;fill-rule:nonzero;stroke:none"
             id="path128" />
        </g>
        <g
           id="g130"
           transform="translate(306.4521,170.2881)">
          <path
             d="m 0,0 c -1.337,1.843 -3.399,2.773 -6.2,2.773 h -106.036 l -5.252,-18.97 h 19.294 v 0.011 h 77.169 l -5.614,-20.272 h -77.171 l 0.007,0.042 h -19.286 l -16.007,-57.787 h 19.296 l 10.742,38.786 h 86.746 c 2.709,0 5.259,0.924 7.657,2.772 2.393,1.85 3.968,4.131 4.723,6.855 L 0.809,-6.996 C 1.593,-4.181 1.322,-1.845 0,0"
             style="fill:#66686c;fill-opacity:1;fill-rule:nonzero;stroke:none"
             id="path132" />
        </g>
        <g
           id="g134"
           transform="translate(156.1196,82.541)">
          <path
             d="m 0,0 c -1.065,-3.835 -4.557,-6.488 -8.538,-6.488 h -99.491 c -2.711,0 -4.726,0.924 -6.051,2.77 -1.324,1.848 -1.608,4.134 -0.851,6.857 l 24.276,87.387 h 19.301 l -21.683,-78.05 h 77.206 l 21.683,78.05 h 19.297 z"
             style="fill:#66686c;fill-opacity:1;fill-rule:nonzero;stroke:none"
             id="path136" />
        </g>
        <g
           id="g138"
           transform="translate(376.5859,173.1689)">
          <path
             d="m 0,0 24.414,-48.553 -51.322,-48.54 z"
             style="fill:#27803b;fill-opacity:1;fill-rule:nonzero;stroke:none"
             id="path140" />
        </g>
        <g
           id="g142"
           transform="translate(359.4717,173.1689)">
          <path
             d="m 0,0 24.396,-48.553 -51.343,-48.54 z"
             style="fill:#e9661c;fill-opacity:1;fill-rule:nonzero;stroke:none"
             id="path144" />
        </g>
      </g>
    </g>
  </g>
</svg>
