<?xml version="1.0" encoding="UTF-8"?>
<svg version="1.1" viewBox="0 0 885.83 220.93" xmlns="http://www.w3.org/2000/svg" xmlns:cc="http://creativecommons.org/ns#" xmlns:dc="http://purl.org/dc/elements/1.1/" xmlns:rdf="http://www.w3.org/1999/02/22-rdf-syntax-ns#">
<metadata>
<rdf:RDF>
<cc:Work rdf:about="">
<dc:format>image/svg+xml</dc:format>
<dc:type rdf:resource="http://purl.org/dc/dcmitype/StillImage"/>
<dc:title/>
</cc:Work>
</rdf:RDF>
</metadata>
<g transform="translate(12.291 -426.17)">
<g transform="matrix(6.1791 0 0 6.1791 -419.43 -2321.7)">
<g transform="matrix(0 1.25 1.25 0 207.97 462.7)">
<path d="m0 0c7.284 0 13.19-5.909 13.19-13.199s-5.906-13.2-13.19-13.2-13.19 5.91-13.19 13.2 5.906 13.199 13.19 13.199" fill="#fff"/>
</g>
<g transform="matrix(0 1.25 1.25 0 199.79 471.24)">
<path d="m0 0c-0.311-0.616-0.633-1.252-0.633-2.222 0-0.857 0.316-1.546 0.622-2.207 0.322-0.7 0.653-1.422 0.653-2.38 0-0.845-0.295-1.484-0.609-2.16-0.324-0.699-0.659-1.422-0.659-2.392 0-0.856 0.311-1.546 0.611-2.213 0.315-0.701 0.643-1.425 0.643-2.387l-4e-3 -0.151c0.121 0.098 0.242 0.199 0.36 0.302-0.03 0.962-0.355 1.685-0.671 2.384-0.296 0.664-0.578 1.285-0.578 2.065 0 0.891 0.303 1.546 0.624 2.239 0.317 0.682 0.644 1.388 0.644 2.313 0 1.038-0.348 1.796-0.687 2.529-0.302 0.656-0.588 1.278-0.588 2.058 0 0.883 0.289 1.453 0.595 2.058 0.334 0.662 0.679 1.346 0.682 2.463-0.121 0.104-0.245 0.21-0.371 0.311 7e-3 -0.095 0.011-0.194 0.011-0.295 0-1.042-0.328-1.689-0.645-2.315" fill="#99877d"/>
</g>
<g transform="matrix(0 1.25 1.25 0 197.01 471.3)">
<path d="m0 0c0-0.857 0.317-1.544 0.622-2.207 0.321-0.699 0.651-1.421 0.651-2.38 0-0.845-0.294-1.484-0.608-2.158-0.323-0.7-0.658-1.424-0.658-2.393 0-0.856 0.312-1.546 0.611-2.214 0.267-0.593 0.541-1.203 0.619-1.961 0.109 0.103 0.215 0.205 0.321 0.312-0.113 0.686-0.363 1.247-0.611 1.797-0.298 0.664-0.58 1.287-0.58 2.066 0 0.89 0.304 1.546 0.624 2.24 0.316 0.681 0.643 1.386 0.643 2.311 0 1.039-0.348 1.797-0.684 2.53-0.303 0.657-0.588 1.278-0.588 2.057 0 0.885 0.288 1.454 0.593 2.059 0.269 0.533 0.543 1.079 0.643 1.855-0.109 0.111-0.22 0.217-0.332 0.322-0.055-0.869-0.348-1.45-0.632-2.014-0.312-0.616-0.634-1.25-0.634-2.222" fill="#99877d"/>
</g>
<g transform="matrix(0 1.25 1.25 0 197.01 472.15)">
<path d="m0 0c0-0.857 0.317-1.544 0.624-2.207 0.319-0.699 0.649-1.421 0.649-2.38 0-0.845-0.295-1.484-0.608-2.158-0.323-0.7-0.658-1.424-0.658-2.393 0-0.856 0.311-1.546 0.611-2.214 0.196-0.435 0.395-0.875 0.519-1.38 0.095 0.105 0.191 0.21 0.284 0.318-0.127 0.434-0.302 0.827-0.476 1.21-0.295 0.664-0.578 1.287-0.578 2.066 0 0.89 0.305 1.546 0.625 2.24 0.315 0.681 0.643 1.386 0.643 2.311 0 1.039-0.349 1.797-0.687 2.53-0.301 0.657-0.588 1.278-0.588 2.057 0 0.885 0.29 1.454 0.595 2.059 0.193 0.382 0.389 0.772 0.519 1.247-0.094 0.11-0.19 0.22-0.288 0.326-0.121-0.555-0.339-0.988-0.553-1.41-0.312-0.616-0.633-1.25-0.633-2.222" fill="#99877d"/>
</g>
<g transform="matrix(0 1.25 1.25 0 197.01 473)">
<path d="m0 0c0-0.857 0.316-1.544 0.621-2.207 0.322-0.699 0.653-1.421 0.653-2.38 0-0.845-0.295-1.484-0.609-2.158-0.324-0.7-0.658-1.424-0.658-2.393 0-0.856 0.31-1.546 0.611-2.214 0.117-0.261 0.236-0.528 0.339-0.806 0.089 0.107 0.175 0.217 0.26 0.329-0.086 0.214-0.178 0.421-0.271 0.625-0.297 0.664-0.579 1.287-0.579 2.066 0 0.89 0.304 1.546 0.625 2.24 0.317 0.681 0.641 1.386 0.641 2.311 0 1.039-0.345 1.797-0.683 2.53-0.304 0.657-0.59 1.278-0.59 2.057 0 0.885 0.29 1.454 0.594 2.059 0.107 0.212 0.216 0.427 0.314 0.655-0.086 0.114-0.17 0.223-0.258 0.331-0.111-0.296-0.245-0.561-0.377-0.823-0.312-0.616-0.633-1.25-0.633-2.222" fill="#99877d"/>
</g>
<g transform="matrix(0 1.25 1.25 0 197.01 473.86)">
<path d="m0 0c0-0.857 0.316-1.544 0.622-2.207 0.32-0.699 0.651-1.421 0.651-2.38 0-0.845-0.294-1.484-0.608-2.158-0.324-0.7-0.658-1.424-0.658-2.393 0-0.856 0.31-1.546 0.61-2.214 0.034-0.077 0.069-0.151 0.102-0.23 0.083 0.114 0.164 0.227 0.244 0.344l-0.017 0.034c-0.299 0.664-0.579 1.287-0.579 2.066 0 0.89 0.304 1.546 0.624 2.24 0.317 0.681 0.642 1.386 0.642 2.311 0 1.039-0.349 1.797-0.683 2.53-0.304 0.657-0.59 1.278-0.59 2.057 0 0.885 0.289 1.454 0.594 2.059l0.04 0.079c-0.076 0.113-0.153 0.228-0.234 0.338-0.041-0.085-0.085-0.17-0.127-0.254-0.311-0.616-0.633-1.25-0.633-2.222" fill="#99877d"/>
</g>
<g transform="matrix(0 1.25 1.25 0 194.25 475.49)">
<path d="m0 0c0.32-0.7 0.651-1.419 0.651-2.38 0-0.845-0.293-1.484-0.608-2.158-0.323-0.701-0.659-1.424-0.659-2.392 0-0.696 0.206-1.285 0.443-1.839 0.081 0.126 0.158 0.253 0.233 0.381-0.182 0.455-0.317 0.92-0.317 1.458 0 0.889 0.305 1.545 0.625 2.239 0.318 0.682 0.645 1.386 0.645 2.311 0 1.039-0.349 1.797-0.686 2.53-0.304 0.657-0.589 1.277-0.589 2.057 0 0.624 0.144 1.091 0.336 1.526-0.073 0.123-0.148 0.249-0.226 0.368-0.252-0.52-0.47-1.093-0.47-1.894 0-0.855 0.315-1.544 0.622-2.207" fill="#99877d"/>
</g>
<g transform="matrix(0 1.25 1.25 0 191.36 444.71)">
<path d="m0 0c0-7.904 6.406-14.311 14.302-14.311 7.898 0 14.301 6.407 14.301 14.311 0 7.903-6.403 14.312-14.301 14.312-7.896 0-14.302-6.409-14.302-14.312m26.32 0c0-6.643-5.38-12.026-12.018-12.026-6.637 0-12.018 5.383-12.018 12.026s5.381 12.027 12.018 12.027c6.638 0 12.018-5.384 12.018-12.027" fill="#eb222f"/>
</g>
<g transform="matrix(0 1.25 1.25 0 199.72 458.16)">
<path d="m0 0c0.444-0.088 0.916-0.545 1.115-0.793 0.447-0.561 2.711-4.264 3.231-4.68 0.524-0.418 1.291-0.489 1.882-0.489l4.348-2e-3v0.577c-0.387 0-1.03-1e-3 -1.132-1e-3 -0.388-3e-3 -0.987 0.217-1.461 0.675-0.799 0.764-1.798 2.534-2.642 3.691-0.707 0.971-1.671 1.031-2.505 1.031h-2.973" fill="#08a94d"/>
</g>
<g transform="matrix(0 1.25 1.25 0 192.28 463.26)">
<path d="m0 0c-0.515 0.411-2.843 4.226-3.289 4.776-0.445 0.55-1.129 1.188-1.985 1.188h-4.871c0.684 0 1.21-0.383 1.856-0.88 0.735-0.565 2.123-3.131 3.015-4.398 0.891-1.269 1.779-1.71 2.876-1.71h8.893v0.571h-4.647c-0.582 0-1.334 0.042-1.848 0.453" fill="#08a94d"/>
</g>
<g transform="matrix(0 1.25 1.25 0 188.65 456.96)">
<path d="m0 0c-0.891-1.166-2.808-3.542-3.186-3.817-0.376-0.274-1.06-0.89-1.881-0.89h4.519c0.651 0 1.818 0.309 2.637 1.44 0.824 1.129 2.021 2.718 2.501 3.197 0.48 0.481 1.341 0.923 2.574 0.923h4.367v0.562h-8.698c-1.408 0-1.942-0.249-2.833-1.415" fill="#08a94d"/>
</g>
<path d="m65.889 462.68v1.427h99.301v-1.427z" fill="#eb222f"/>
<g transform="matrix(0 1.25 1.25 0 155.61 467.68)">
<path d="m0 0v-1.221l0.492 3e-3v1.251l-0.492-6e-3" fill="#99877d"/>
</g>
<g transform="matrix(0 1.25 1.25 0 164.54 467.37)">
<path d="m0 0v-1.864l0.641 0.013v1.975l-0.641-0.015" fill="#99877d"/>
</g>
<g transform="matrix(0 1.25 1.25 0 137.95 468.15)">
<path d="m0 0c0.109-0.078 0.128-0.182 0.132-0.372l-4e-3 -1.281 0.415 2e-3v1.423c-2e-3 0.435-0.08 0.511-0.381 0.723l-0.108 0.07-0.187 0.132-0.04 0.03-0.019-0.599 0.192-0.128" fill="#99877d"/>
</g>
<g transform="matrix(0 1.25 1.25 0 127.83 467.74)">
<path d="M 0,0 0.495,0.009 0.508,3.738 0.015,3.731 0,3.661" fill="#99877d"/>
</g>
<g transform="matrix(0 1.25 1.25 0 156.67 470.23)">
<path d="m0 0v-0.495l1.359 0.011 0.327 6e-3 -3e-3 -2e-3c0.148-4e-3 0.27 0.039 0.363 0.125 0.158 0.149 0.163 0.374 0.163 0.385v0.57l-0.522-6e-3v-0.375l-0.041-0.1c-0.033-0.031-0.088-0.049-0.157-0.049l-0.143-3e-3 -1.346-0.012" fill="#99877d"/>
</g>
<g transform="matrix(0 1.25 1.25 0 154.79 469.03)">
<path d="m0 0v-0.494l2.314-0.017 0.327 5e-3 -2e-3 -1e-3c0.148-4e-3 0.27 0.037 0.363 0.123 0.159 0.149 0.164 0.376 0.164 0.385v0.715l-0.523-4e-3v-0.52l-0.04-0.1c-0.033-0.033-0.088-0.05-0.158-0.05l-0.144-2e-3 -2.301 0.015" fill="#99877d"/>
</g>
<g transform="matrix(0 1.25 1.25 0 158.37 467.43)">
<path d="m0 0v-1.871l2.401 0.023v1.497c-3e-3 0.297-0.267 0.427-0.528 0.424l-1.873-0.018zm0.49-0.49c0.102 1e-3 1.067 9e-3 1.067 9e-3 0.35 3e-3 0.35-0.039 0.351-0.28v-0.545c-0.104-1e-3 -1.343-0.013-1.418-0.013" fill="#99877d"/>
</g>
<g transform="matrix(0 1.25 1.25 0 158.11 468.62)">
<path d="m0 0 1e-3 -1.407 0.493 4e-3v1.463l-0.494-5e-3" fill="#99877d"/>
</g>
<g transform="matrix(0 1.25 1.25 0 157.7 470.64)">
<path d="m0 0v-0.484l1.117 0.373 0.396 0.128h-2e-3c0.251 0.079 0.379 0.165 0.379 0.424v0.382l-0.481-7e-3 5e-3 -0.104c-2e-3 -0.149-0.033-0.214-0.35-0.323l-1.064-0.368" fill="#99877d"/>
</g>
<g transform="matrix(0 1.25 1.25 0 153.76 468.65)">
<path d="m0 0 0.437-3e-3 -2e-3 1.522-0.45-4e-3 -4e-3 -1.515" fill="#99877d"/>
</g>
<g transform="matrix(0 1.25 1.25 0 155.66 469.82)">
<path d="m0 0 1e-3 -1.895 0.5 5e-3 -1e-3 1.897-0.5-6e-3" fill="#99877d"/>
</g>
<g transform="matrix(0 1.25 1.25 0 158.32 470.64)">
<path d="m0 0 0.429-0.097c0.206-0.087 0.154-0.244 0.153-0.252l-0.011-0.029 0.471 6e-3v0.34c0 0.282-0.253 0.3-0.256 0.3l-0.765 0.167-0.033 6e-3 -2e-3 -0.437" fill="#99877d"/>
</g>
<g transform="matrix(0 1.25 1.25 0 154.79 467.36)">
<path d="m0 0v-0.512l0.997-0.424c0.093-0.048 0.089-0.214 0.089-0.214v-0.021l0.465 5e-3v0.325c0 0.21-0.197 0.262-0.207 0.263l-1.304 0.604-0.04 0.018" fill="#99877d"/>
</g>
<g transform="matrix(0 1.25 1.25 0 161.47 467.3)">
<path d="m0 0v-0.48l1.013-0.375c0.08-0.036 0.076-0.171 0.076-0.171l-2e-3 -0.045 0.517 0.013-1e-3 0.326c-1e-3 0.209-0.216 0.255-0.225 0.256l-1.304 0.53-0.074 0.028" fill="#99877d"/>
</g>
<g transform="matrix(0 1.25 1.25 0 161.16 469.01)">
<path d="m0 0 0.639-0.264c0.167-0.071 0.234-0.136 0.23-0.22l6e-3 -0.23 0.539 0.014v0.326c-5e-3 0.381-0.391 0.524-0.408 0.528l-0.954 0.387-0.073 0.029-2e-3 -0.559" fill="#99877d"/>
</g>
<g transform="matrix(0 1.25 1.25 0 161.14 470.16)">
<path d="m0 0v-0.528l2.275 0.03v0.637l-2.275-0.032" fill="#99877d"/>
</g>
<g transform="matrix(0 1.25 1.25 0 164.43 469.39)">
<path d="m0 0v-0.527l2.045 0.049c0.212 6e-3 0.222-8e-3 0.223-0.045l-6e-3 -1.191 0.646 0.016 9e-3 1.375c-3e-3 0.116-0.048 0.497-0.549 0.487l-0.323-0.01-2.045-0.044" fill="#99877d"/>
</g>
<g transform="matrix(0 1.25 1.25 0 164.66 469.01)">
<path d="m0 0v-2.012l0.634 0.014v2.122l-0.634-0.015" fill="#99877d"/>
</g>
<g transform="matrix(0 1.25 1.25 0 136.86 467.38)">
<path d="m0 0 1e-3 -0.563 2.19 0.014v0.664l-2.192-8e-3" fill="#99877d"/>
</g>
<g transform="matrix(0 1.25 1.25 0 137.96 469.36)">
<path d="m0 0c0.107-0.08 0.128-0.183 0.129-0.372l-1e-3 -1.036 0.413 1e-3 3e-3 1.179c-3e-3 0.434-0.082 0.508-0.383 0.72l-0.109 0.071-0.187 0.134-0.041 0.027-0.019-0.597 0.195-0.127" fill="#99877d"/>
</g>
<g transform="matrix(0 1.25 1.25 0 135.54 467.39)">
<path d="m0 0v-0.537l0.738-0.309c0.178-0.091 0.201-0.152 0.2-0.204l6e-3 -0.284 0.618 7e-3 -1e-3 0.399c-4e-3 0.426-0.395 0.594-0.412 0.602l-1.149 0.494" fill="#99877d"/>
</g>
<g transform="matrix(0 1.25 1.25 0 134.96 468.67)">
<path d="m0 0v-0.495l1.371-0.013v0.521l-1.371 0.014" fill="#99877d"/>
</g>
<g transform="matrix(0 1.25 1.25 0 136.88 470.33)">
<path d="m0 0v-0.593l2.164-9e-3v0.731l-2.164-0.021" fill="#99877d"/>
</g>
<g transform="matrix(0 1.25 1.25 0 138.97 471.08)">
<path d="m0 0v-3.886l0.494 3e-3v3.943l-0.494-5e-3" fill="#99877d"/>
</g>
<g transform="matrix(0 1.25 1.25 0 132.43 469.44)">
<path d="m0 0v-3.66l0.494 8e-3v3.715l-0.494-8e-3" fill="#99877d"/>
</g>
<g transform="matrix(0 1.25 1.25 0 132.2 468.65)">
<path d="m0 0v-3.288l0.395-1e-3v3.335l-0.395 4e-3" fill="#99877d"/>
</g>
<g transform="matrix(0 1.25 1.25 0 130.48 467.39)">
<path d="m0 0v-0.517l2.083-5e-3v0.589l-2.083-0.013" fill="#99877d"/>
</g>
<g transform="matrix(0 1.25 1.25 0 130.48 470.3)">
<path d="m0 0v-0.52l1.348 0.021 0.21 3e-3c0.14 1e-3 0.14-7e-3 0.143-0.098v-0.228l0.042 3e-3 0.453 5e-3v0.491c-1e-3 0.153-0.07 0.407-0.51 0.4l-0.324-3e-3 -1.362-0.022" fill="#99877d"/>
</g>
<g transform="matrix(0 1.25 1.25 0 128.2 472.64)">
<path d="m0 0c0 0.109-0.095 0.237-0.249 0.333l-0.188 0.102v0.483l0.04-0.027 0.269-0.173 0.054-0.039c0.354-0.244 0.369-0.254 0.37-0.652v-0.289l-0.292-2e-3 -4e-3 0.264" fill="#99877d"/>
</g>
<g transform="matrix(0 1.25 1.25 0 128.72 469.89)">
<path d="m0 0c5e-3 1e-3 7e-3 0.366 7e-3 0.499l0.04-0.027 0.27-0.174c0.405-0.283 0.417-0.323 0.392-0.599v-0.375l-0.292-3e-3 -2e-3 0.199c0 0.194-0.064 0.239-0.178 0.318l-0.135 0.089-0.102 0.073" fill="#99877d"/>
</g>
<g transform="matrix(0 1.25 1.25 0 131.5 470.02)">
<path d="m0 0 0.118 0.114 0.017 0.017c0.114 0.116 0.178 0.181 0.178 0.375l2e-3 0.306 0.291 4e-3v-0.397c0.025-0.268 0.014-0.31-0.391-0.722l-0.27-0.259-0.04-0.039c0 0.132-2e-3 0.495-7e-3 0.495l0.103 0.106" fill="#99877d"/>
</g>
<g transform="matrix(0 1.25 1.25 0 127.9 471.13)">
<path d="m0 0-0.044-0.031c0 0.069 4e-3 0.466 4e-3 0.491l0.043 0.028c0.143 0.106 0.155 0.246 0.157 0.416v0.263l0.334 3e-3 1e-3 -0.4c-3e-3 -0.418-0.069-0.478-0.381-0.698" fill="#99877d"/>
</g>
<g transform="matrix(0 1.25 1.25 0 131.63 472.1)">
<path d="m0 0 0.183 0.103c0.158 0.107 0.254 0.239 0.256 0.349 0 0 2e-3 0.195 2e-3 0.258l0.293 6e-3 1e-3 -0.297c-4e-3 -0.393-0.016-0.404-0.367-0.656l-0.056-0.041-0.268-0.179-0.043-0.034c0 0.069-1e-3 0.465-1e-3 0.491" fill="#99877d"/>
</g>
<g transform="matrix(0 1.25 1.25 0 131.87 471.14)">
<path d="m0 0-0.055 0.037c7e-3 3e-3 4e-3 0.345 4e-3 0.477l0.04-0.026 0.114-0.071c0.31-0.207 0.383-0.271 0.386-0.691 0 0 0-0.325-1e-3 -0.394l-0.334-5e-3v0.268c-2e-3 0.198-0.027 0.316-0.154 0.405" fill="#99877d"/>
</g>
<g transform="matrix(0 1.25 1.25 0 151.64 470.38)">
<path d="m0 0v-3.298l0.544 0.012-1e-3 3.38-0.543-0.012" fill="#99877d"/>
</g>
<g transform="matrix(0 1.25 1.25 0 147.96 469.41)">
<path d="m0 0v-0.515l2.02 0.039 0.326 6e-3c0.17 4e-3 0.305 0.055 0.402 0.15 0.134 0.133 0.149 0.311 0.149 0.38v1.09l-0.571-0.01-1e-3 -0.869c0-0.039-2e-3 -0.11-0.183-0.144l-0.13-5e-3 -2.012-0.039" fill="#99877d"/>
</g>
<g transform="matrix(0 1.25 1.25 0 151.63 467.4)">
<path d="m0 0v-3.48l1.828 0.036v3.137c0.034 0.282-0.25 0.422-0.55 0.414h1e-3l-1.279-0.026zm0.54-0.507c0.117 1e-3 0.418 0.011 0.418 0.011 0.339 6e-3 0.337-0.05 0.337-0.238v-2.123c-0.129-2e-3 -0.656-0.014-0.755-0.016" fill="#99877d"/>
</g>
<g transform="matrix(0 1.25 1.25 0 150.09 469.39)">
<path d="m0 0v-0.543l2.099 0.532 0.402 0.107c0.22 0.065 0.421 0.169 0.421 0.476v0.774l-0.578-0.01 3e-3 -0.557c-1e-3 -0.085-0.104-0.154-0.307-0.205l-2.04-0.51" fill="#99877d"/>
</g>
<g transform="matrix(0 1.25 1.25 0 143.96 469.44)">
<path d="m0 0v-0.539l2.049 0.738 0.396 0.126h-1e-3c0.269 0.081 0.423 0.187 0.421 0.473v0.431h-0.061l-0.525-7e-3 6e-3 -0.204 4e-3 -0.063c-1e-3 -0.074-1e-3 -0.074-0.167-0.126l-0.149-0.048-1.973-0.725" fill="#99877d"/>
</g>
<g transform="matrix(0 1.25 1.25 0 145.39 470.12)">
<path d="m0 0 0.103-0.404h0.487c0.208-0.033 0.193-0.172 0.192-0.178l-8e-3 -0.059 0.536 0.116-0.08 0.345c-0.052 0.223-0.25 0.257-0.347 0.242l-0.828 5e-3h-0.072" fill="#99877d"/>
</g>
<g transform="matrix(0 1.25 1.25 0 142.43 470.32)">
<path d="m0 0 0.081-0.485 1.213-0.013 0.329 6e-3h-4e-3c0.156-4e-3 0.287 0.041 0.386 0.13 0.165 0.155 0.172 0.377 0.172 0.402v0.957l-0.574-8e-3 -1e-3 -0.766-0.03-0.081c-0.028-0.028-0.076-0.043-0.141-0.043l-0.142-2e-3h-1.304" fill="#99877d"/>
</g>
<g transform="matrix(0 1.25 1.25 0 143.42 467.39)">
<path d="m0 0v-0.536l0.04-0.013c0.734-0.24 2.654-0.866 2.752-0.914 0.2-0.095 0.224-0.165 0.222-0.225l5e-3 -0.681 0.594 4e-3v0.796c-6e-3 0.42-0.404 0.585-0.422 0.592l-3.191 1.094" fill="#99877d"/>
</g>
<g transform="matrix(0 1.25 1.25 0 140.45 469.86)">
<path d="m0 0v0.612l-0.737-0.01s-0.088-0.023-0.088 0.177l3e-3 2.544 0.028 0.096 0.558 0.045v0.567l-0.688-0.024s-0.507-0.054-0.507-0.507v-3.122s0-0.382 0.606-0.381" fill="#99877d"/>
</g>
<g transform="matrix(0 1.25 1.25 0 70.444 467.42)">
<path d="m0 0v-1.072s1.741-1.274 1.824-1.335h-1.824v-0.909h4.458v0.909h-1.951c0.085 0.059 1.951 1.387 1.951 1.387v1.162l-2.394-1.781-2.064 1.695" fill="#99877d"/>
</g>
<g transform="matrix(0 1.25 1.25 0 76.497 468.95)">
<path d="m0 0c0.68 0 0.984 0.402 1.232 1.003l0.027 0.07c0.126 0.334 0.259 0.678 0.666 0.676 0.307 0 0.617-0.187 0.617-0.545 0-0.381-0.324-0.665-0.624-0.771l-0.04-0.011 0.582-0.598 0.015 0.011c0.573 0.342 0.877 0.82 0.877 1.383 0 0.893-0.601 1.47-1.53 1.47-0.884 0-1.145-0.616-1.356-1.114-0.149-0.355-0.267-0.635-0.557-0.635-0.287 0-0.479 0.268-0.479 0.516 0 0.257 0.117 0.466 0.351 0.642l0.031 0.019-0.639 0.433-0.014-0.014c-0.315-0.284-0.5-0.847-0.5-1.227 0-0.743 0.576-1.308 1.341-1.308" fill="#99877d"/>
</g>
<g transform="matrix(0 1.25 1.25 0 82.062 467.42)">
<path d="m0 0v-0.881h4.458v0.911l-4.458-2e-3" fill="#99877d"/>
</g>
<g transform="matrix(0 1.25 1.25 0 87.568 467.42)">
<path d="m0 0v-1.072s1.741-1.274 1.824-1.335h-1.824v-0.909h4.458v0.909h-1.951c0.085 0.059 1.951 1.388 1.951 1.388v1.163l-2.394-1.783-2.064 1.695" fill="#99877d"/>
</g>
<g transform="matrix(0 1.25 1.25 0 99.305 467.28)">
<path d="m0 0v-0.641h4.575v0.909h-2.967c0.08 0.059 3.054 2.302 3.054 2.302v0.656h-4.545v-0.912s2.843 2e-3 2.938 2e-3c-0.079-0.06-3.055-2.302-3.055-2.302" fill="#99877d"/>
</g>
<g transform="matrix(0 1.25 1.25 0 115.24 467.28)">
<path d="m0 0v-0.641h4.575v0.909h-2.967c0.08 0.059 3.054 2.302 3.054 2.302v0.656h-4.545v-0.911h2.938c-0.079-0.059-3.055-2.301-3.055-2.301" fill="#99877d"/>
</g>
<g transform="matrix(0 1.25 1.25 0 124.74 467.42)">
<path d="m0 0v-1.071s1.741-1.275 1.824-1.336h-1.824v-0.909h4.458v0.909h-1.951c0.085 0.06 1.951 1.389 1.951 1.389v1.161l-2.394-1.782-2.064 1.695" fill="#99877d"/>
</g>
<g transform="matrix(0 1.25 1.25 0 73.809 467.28)">
<path d="m0 0v-0.682l4.575-1.738v0.962l-0.928 0.363v1.499l0.928 0.34v0.968l-4.575-1.693zm1.375-0.375c0.102 0.037 1.47 0.504 1.521 0.523v-0.984c-0.063 0.02-1.43 0.434-1.521 0.461" fill="#99877d"/>
</g>
<g transform="matrix(0 1.25 1.25 0 87.529 470.2)">
<path d="m0 0c0.669 0 1.305 0.256 1.743 0.701 0.401 0.406 0.613 0.928 0.613 1.51 0 1.257-1.01 2.204-2.348 2.204-0.659 0-1.289-0.256-1.729-0.702-0.403-0.407-0.615-0.929-0.615-1.51 0-1.234 1.025-2.203 2.336-2.203m1.115 1.438c-0.3-0.302-0.749-0.5-1.143-0.499-0.684-1e-3 -1.412 0.51-1.412 1.272 0 0.309 0.12 0.595 0.349 0.828 0.271 0.275 0.666 0.439 1.055 0.439 0.678 1e-3 1.495-0.569 1.495-1.275 0-0.342-0.186-0.605-0.344-0.765" fill="#99877d"/>
</g>
<g transform="matrix(0 1.25 1.25 0 93.965 467.42)">
<path d="m0 0v-0.021h4.458v0.909h-1.739c0.102 0.06 1.739 1.046 1.739 1.046v1.096l-1.868-1.252c-0.121 0.61-0.719 0.89-1.233 0.89-0.105 0-0.204-8e-3 -0.297-0.024-0.279-0.044-0.506-0.151-0.678-0.326-0.253-0.258-0.382-0.646-0.382-1.152zm0.751 0.985c0 0.314 0.052 0.504 0.17 0.623 0.072 0.074 0.169 0.119 0.294 0.139l0.156 0.012c0.462 0 0.659-0.235 0.659-0.787v-0.084h-1.279" fill="#99877d"/>
</g>
<g transform="matrix(0 1.25 1.25 0 104.69 467.42)">
<path d="m0 0v-0.019h4.458v1.38c0 0.895-0.474 1.43-1.27 1.43-0.08 0-0.16-7e-3 -0.241-0.017-0.402-0.064-0.777-0.296-0.876-0.718-0.193 0.266-0.557 0.365-0.842 0.365-0.108 0-0.209-4e-3 -0.3-0.022-0.253-0.039-0.449-0.133-0.6-0.285-0.22-0.223-0.329-0.565-0.329-1.039zm2.539 1.01c0 0.299 0.014 0.576 0.174 0.736 0.065 0.066 0.151 0.109 0.264 0.128l0.133 8e-3c0.565 0 0.613-0.397 0.613-0.838v-0.155h-1.184zm-1.8-0.029c0 0.222 0.043 0.367 0.136 0.459 0.063 0.063 0.148 0.104 0.261 0.121l0.142 0.011c0.412 0 0.559-0.158 0.559-0.604v-0.079h-1.098" fill="#99877d"/>
</g>
<g transform="matrix(0 1.25 1.25 0 111.62 467.28)">
<path d="m0 0v-0.681l4.575-1.739v0.961l-0.928 0.362v1.503l0.928 0.338v0.966l-4.575-1.69zm1.375-0.375c0.102 0.034 1.47 0.505 1.521 0.522v-0.983c-0.063 0.02-1.43 0.434-1.521 0.461" fill="#99877d"/>
</g>
<g transform="matrix(0 1.25 1.25 0 70.612 452.59)">
<path d="m0 0c0.457 1.268 0.133 1.742 0.119 1.761l-0.027 0.04-1.106-0.268 0.052-0.084c1e-3 -4e-3 0.183-0.345-0.136-1.284-0.308-0.885-0.298-1.661 0.027-2.306 0.514-1.016 1.616-1.333 1.663-1.344l9e-3 -4e-3h0.754v1.116h2.723v-0.649h1.2v2.963c0 0.356 3e-3 0.692-0.242 0.979-0.286 0.33-0.681 0.357-1.129 0.357h-1.641c-0.609 0-1.071-0.121-1.503-0.728-0.514-0.727-0.532-2.035-0.52-2.503-0.22 0.229-0.637 0.843-0.243 1.954m2.539 0.037h1.094c0.143 0 0.288-0.016 0.364-0.11 0.053-0.067 0.081-0.187 0.081-0.368v-0.676h-2.671c0.012 0.152 0.059 0.512 0.209 0.751 0.253 0.403 0.593 0.403 0.923 0.403" fill="#99877d"/>
</g>
<g transform="matrix(0 1.25 1.25 0 88.447 453.53)">
<path d="m0 0c-1.469 0-2.127-1.054-2.127-2.099 0-1.558 1.262-2.235 1.275-2.241l0.054-0.028 0.677 1-0.074 0.037c-7e-3 3e-3 -0.702 0.358-0.733 1.135-8e-3 0.247 0.079 0.48 0.242 0.655 0.184 0.195 0.45 0.299 0.767 0.299h4.443v1.242" fill="#99877d"/>
</g>
<g transform="matrix(0 1.25 1.25 0 103.45 453.53)">
<path d="m0 0c-1.469 0-2.127-1.056-2.127-2.099 0-1.557 1.262-2.235 1.275-2.241l0.054-0.027 0.677 1-0.074 0.036c-7e-3 4e-3 -0.702 0.359-0.733 1.135-8e-3 0.247 0.079 0.482 0.242 0.656 0.184 0.194 0.45 0.298 0.767 0.298h4.443v1.242" fill="#99877d"/>
</g>
<g transform="matrix(0 1.25 1.25 0 108.4 458)">
<path d="m0 0c0 0.617-0.9 0.617-0.9 0 0-0.614 0.9-0.614 0.9 0m-3.898-1.859v2.025c-1e-3 0.357-1e-3 0.693 0.244 0.98 0.284 0.33 0.679 0.355 1.129 0.355h2.123c0.82 0 1.437-0.644 1.437-1.501 0-0.842-0.631-1.499-1.437-1.499-0.829 0-1.453 0.642-1.453 1.499 0 0.109 4e-3 0.19 8e-3 0.244h-0.5c-0.242 0-0.331-0.049-0.366-0.09-0.053-0.067-0.079-0.188-0.079-0.37v-3.047h-0.932l-9e-3 3e-3c-0.045 0.012-1.084 0.309-1.611 1.277-0.338 0.617-0.385 1.365-0.143 2.22 0.246 0.853-7e-3 1.336-0.01 1.34l-0.039 0.072 0.075 0.031 0.935 0.365 0.053 0.022 0.031-0.051c0.346-0.572 0.23-1.367 0.071-1.936-0.363-1.301 0.232-1.797 0.473-1.939" fill="#99877d"/>
</g>
<g transform="matrix(0 1.25 1.25 0 140.34 458)">
<path d="m0 0c0 0.616-0.9 0.616-0.9 0s0.9-0.616 0.9 0m-3.898-1.861v2.027c-1e-3 0.356-1e-3 0.692 0.244 0.979 0.284 0.329 0.679 0.354 1.129 0.354h2.123c0.82 0 1.437-0.644 1.437-1.499 0-0.842-0.631-1.501-1.437-1.501-0.829 0-1.453 0.643-1.453 1.501 0 0.11 4e-3 0.19 8e-3 0.243h-0.5c-0.242 0-0.331-0.049-0.366-0.091-0.053-0.067-0.079-0.188-0.079-0.369v-3.047h-0.932l-9e-3 3e-3c-0.045 0.011-1.084 0.306-1.611 1.277-0.338 0.617-0.385 1.364-0.143 2.22 0.246 0.854-7e-3 1.336-0.01 1.34l-0.039 0.071 1.063 0.418 0.031-0.051c0.346-0.571 0.23-1.367 0.071-1.936-0.363-1.299 0.232-1.796 0.473-1.939" fill="#99877d"/>
</g>
<g transform="matrix(0 1.25 1.25 0 115.42 450.88)">
<path d="m0 0c-0.017-1.739 1.073-2.786 1.085-2.796l0.019-0.02h1.075l0.014 0.054c0.113 0.392 0.242 0.815 0.308 1.001 0.142-0.145 0.488-0.405 1.139-0.405h3.013v1.256h-2.836c-0.173 0-0.461 0-0.715 0.187-0.252 0.183-0.375 0.59-0.378 0.594l-0.014 0.051h-0.824l-0.017-0.045c-7e-3 -0.02-0.18-0.473-0.245-0.723-0.054-0.214-0.095-0.357-0.125-0.443-0.106 0.188-0.298 0.618-0.298 1.288 0 0.016 0.037 1.622 1.361 1.622h4.091v1.259h-4.349c-1.38 0-2.286-1.131-2.304-2.88" fill="#99877d"/>
</g>
<g transform="matrix(0 1.25 1.25 0 122.57 458)">
<path d="m0 0c0 0.616-0.9 0.616-0.9 0s0.9-0.616 0.9 0m-4.901 3.372c0.096-0.107 0.157-0.193 0.194-0.248 0.049 0.034 0.126 0.08 0.219 0.129 0.319 0.191 0.735 0.293 1.176 0.293h4.267v-1.26h-1.936c-0.308 0-1.538-0.725-1.538-1.87 0-0.376 0.293-0.693 0.638-0.693h0.078c-9e-3 0.063-0.019 0.158-0.019 0.277 0 0.871 0.596 1.5 1.42 1.5 0.82 0 1.437-0.644 1.437-1.5s-0.617-1.499-1.437-1.499h-1.479c-0.899 0-1.807 0.655-1.807 1.915 0 1.017 0.59 1.661 0.89 1.92h-0.338c-1.11 0-1.36-1.138-1.36-1.539 0-1.345 0.915-1.776 0.954-1.795l0.064-0.029-0.491-1.13-0.065 0.031c-0.015 6e-3 -1.663 0.791-1.663 2.923 0 0.689 0.181 1.146 0.234 1.266-0.014 0.031-0.053 0.1-0.152 0.214-0.407 0.45-0.816 0.476-0.822 0.476l-0.066 2e-3v1.445l0.077-6e-3c0.036-6e-3 0.87-0.096 1.525-0.822" fill="#99877d"/>
</g>
<g transform="matrix(0 1.25 1.25 0 127.45 448.23)">
<path d="m0 0h-0.01l-9e-3 -3e-3c-0.021-6e-3 -2.072-0.53-2.107-2.898-0.017-2.242 2.084-2.875 2.105-2.88l0.01-6e-3h0.923l-0.015 0.094c-1e-3 8e-3 -0.156 0.972-0.156 2.502 0 1.619 0.293 3.08 0.297 3.095l0.019 0.096zm-0.222-1.331c-0.066-0.318-0.188-1.012-0.188-1.769 0-0.623 0.043-1.026 0.075-1.244-0.226 0.178-0.636 0.615-0.623 1.44 0.025 0.928 0.49 1.394 0.736 1.573" fill="#99877d"/>
</g>
<g transform="matrix(0 1.25 1.25 0 131.83 450.88)">
<path d="m0 0c-0.017-1.741 1.073-2.787 1.085-2.796l0.019-0.02h1.075l0.014 0.052c0.113 0.392 0.242 0.815 0.308 1.003 0.142-0.145 0.488-0.406 1.139-0.406h3.013v1.258h-2.836c-0.173 0-0.461 0-0.715 0.185-0.252 0.183-0.375 0.592-0.378 0.595l-0.014 0.051h-0.824l-0.017-0.047c-7e-3 -0.019-0.18-0.471-0.245-0.723-0.054-0.214-0.095-0.355-0.125-0.444-0.106 0.19-0.298 0.621-0.298 1.291 0 0.015 0.037 1.622 1.361 1.622h4.091v1.258h-4.349c-1.38 0-2.286-1.13-2.304-2.879" fill="#99877d"/>
</g>
<g transform="matrix(0 1.25 1.25 0 150.27 452.19)">
<path d="m0 0c0-0.598 0.885-0.598 0.885 0 0 0.599-0.885 0.599-0.885 0m0.402 5.007h5.2v-1.257h-5.26l3.171-2.266h2.089v-1.241h-3.755c4e-3 -0.056 8e-3 -0.138 8e-3 -0.243 0-0.867-0.633-1.517-1.469-1.517-0.807 0-1.436 0.666-1.436 1.517 0 0.848 0.617 1.484 1.436 1.484h1.092l-0.264 0.151-2.185 1.601v0.37c0 0.382 0 0.74 0.26 1.044 0.285 0.331 0.657 0.357 1.113 0.357" fill="#99877d"/>
</g>
<g transform="matrix(0 1.25 1.25 0 160.15 452.19)">
<path d="m0 0c0-0.599 0.885-0.599 0.885 0 0 0.6-0.885 0.6-0.885 0m-0.971 3.829h5.2c0.45 0 0.845-0.025 1.13-0.358 0.245-0.287 0.243-0.622 0.243-0.978v-2.644c0-0.356 2e-3 -0.691-0.244-0.979-0.284-0.328-0.679-0.354-1.129-0.354h-0.353c-0.74 0-1.102 0.432-1.238 0.652-0.158-0.262-0.638-0.838-1.834-0.852-1.274 0-1.854 0.872-1.854 1.684 0 0.851 0.629 1.518 1.436 1.518 0.82 0 1.437-0.652 1.437-1.518l-3e-3 -0.113c0.098 0.055 0.255 0.195 0.33 0.56 0.094 0.466 0.047 0.969 0.046 0.974l-6e-3 0.08h1.096v-0.703c0-0.549 0.048-1.041 0.607-1.041 0.426 0 0.507 0.108 0.507 0.675v1.678c0 0.116-9e-3 0.263-0.081 0.352-0.077 0.095-0.22 0.106-0.362 0.106h-4.928" fill="#99877d"/>
</g>
<g transform="matrix(0 1.25 1.25 0 81.634 456.74)">
<path d="m0 0c0-0.654 0.968-0.654 0.968 0 0 0.655-0.968 0.655-0.968 0m0.473 1.544c0.414 7e-3 0.781-0.141 1.067-0.427 0.308-0.306 0.498-0.768 0.498-1.202 0-0.714-0.405-1.433-1.307-1.433h-0.603c0.071-0.109 0.227-0.318 0.557-0.685 0.468-0.508 0.87-0.867 1.088-1.058 0.172-0.151 0.185-0.163 0.185-0.205v-1.155h-3.754c4e-3 -0.053 8e-3 -0.135 8e-3 -0.241 0-0.855-0.632-1.499-1.469-1.499-0.808 0-1.436 0.658-1.436 1.499 0 0.837 0.615 1.467 1.436 1.467h2.928l0.562-0.024c-0.157 0.151-0.44 0.442-0.843 0.925-0.387 0.476-0.565 0.849-0.62 0.976h-3.383v1.224h3.223c0.047 0.331 0.344 1.793 1.863 1.838m-4.117-6.457c0-0.6 0.886-0.6 0.886 0 0 0.597-0.886 0.597-0.886 0" fill="#99877d"/>
</g>
<g transform="matrix(0 1.25 1.25 0 93.492 454.26)">
<path d="m0 0c0-0.617 0.901-0.617 0.901 0 0 0.614-0.901 0.614-0.901 0m0.114 3.013h3.833v-1.26h-3.818c-0.979 0-1.713-0.76-1.713-1.771 0-1.272 0.892-1.838 1.778-1.838 0.49 0 0.859 0.119 1.06 0.204-0.304 0.078-0.868 0.217-0.868 0.217-0.79 0.194-1.261 0.731-1.261 1.435 0 0.567 0.416 1.365 1.341 1.365 0.964 0 1.324-0.837 1.324-1.365 0-0.235-0.072-0.437-0.116-0.543 0.136-0.047 0.458-0.15 0.882-0.234 0.709-0.151 1.11-0.184 1.321-0.184h0.07v-1.257h-0.328c-0.563 0-1.062-0.189-1.592-0.393-0.648-0.247-1.317-0.503-2.177-0.438-1.67 0.127-2.573 1.657-2.573 3.029-8e-3 0.878 0.271 1.633 0.807 2.192 0.519 0.542 1.239 0.841 2.03 0.841" fill="#99877d"/>
</g>
<g transform="matrix(0 1.25 1.25 0 146.55 458)">
<path d="m0 0c0 0.614-0.9 0.614-0.9 0 0-0.615 0.9-0.615 0.9 0m-0.402 1.517c0.806 0 1.437-0.666 1.437-1.517 0-0.856-0.617-1.499-1.437-1.499h-6.395l-1.495 0.067 1.648-0.968v-0.745l-2.278-0.727c-0.02-0.014-0.093-0.055-0.181-0.087-0.1-0.037-0.115-0.061-0.125-0.094l-0.075-0.072h-1.324v0.585c0 0.097 0.049 0.196 0.149 0.302 0.091 0.09 0.228 0.146 0.236 0.148l1.574 0.549-1.959 1.171v1.127h8.79c-0.01 0.058-0.018 0.139-0.018 0.243 0 0.865 0.624 1.517 1.453 1.517" fill="#99877d"/>
</g>
</g>
</g>
</svg>
