<?xml version="1.0" encoding="UTF-8" standalone="no"?>
<svg
   xmlns:dc="http://purl.org/dc/elements/1.1/"
   xmlns:cc="http://creativecommons.org/ns#"
   xmlns:rdf="http://www.w3.org/1999/02/22-rdf-syntax-ns#"
   xmlns:svg="http://www.w3.org/2000/svg"
   xmlns="http://www.w3.org/2000/svg"
   id="svg8"
   version="1.1"
   viewBox="0 0 11.377083 11.37708"
   height="11.37708mm"
   width="11.377083mm">
  <defs
     id="defs2" />
  <metadata
     id="metadata5">
    <rdf:RDF>
      <cc:Work
         rdf:about="">
        <dc:format>image/svg+xml</dc:format>
        <dc:type
           rdf:resource="http://purl.org/dc/dcmitype/StillImage" />
        <dc:title></dc:title>
      </cc:Work>
    </rdf:RDF>
  </metadata>
  <g
     transform="translate(-25.161082,-137.85312)"
     id="layer1">
    <path
       id="path839"
       d="m 30.849624,149.2302 c 3.141689,0 5.688541,-2.54685 5.688541,-5.68854 0,-3.14169 -2.546852,-5.68854 -5.688541,-5.68854 -3.141695,0 -5.688542,2.54685 -5.688542,5.68854 0,3.14169 2.546847,5.68854 5.688542,5.68854 z"
       style="fill:#3a4550;stroke-width:0.26458332" />
    <path
       id="path841"
       d="m 34.270713,144.95385 h -6.80239 c -0.238681,0 -0.437579,-0.19892 -0.437579,-0.4376 0,-0.23865 0.198898,-0.43756 0.437579,-0.43756 h 6.80239 c 0.23868,0 0.437567,0.19891 0.437567,0.43756 0,0.23868 -0.198887,0.4376 -0.437567,0.4376 z"
       style="fill:#ffffff;stroke-width:0.26458332" />
    <path
       id="path843"
       d="m 28.681734,146.34627 -1.511647,-1.51164 c -0.179009,-0.17902 -0.179009,-0.43757 0,-0.61659 0.179012,-0.17901 0.437581,-0.17901 0.61659,0 l 1.511642,1.51165 c 0.179017,0.17901 0.179017,0.43756 0,0.61658 -0.159121,0.15912 -0.437568,0.15912 -0.616585,0 z"
       style="fill:#ffffff;stroke-width:0.26458332" />
    <path
       id="path845"
       d="m 27.408654,142.40792 h 6.802369 c 0.23868,0 0.437594,0.19892 0.437594,0.4376 0,0.23868 -0.198914,0.43756 -0.437594,0.43756 h -6.802369 c -0.238681,0 -0.437581,-0.19888 -0.437581,-0.43756 0,-0.23868 0.1989,-0.4376 0.437581,-0.4376 z"
       style="fill:#ffffff;stroke-width:0.26458332" />
    <path
       id="path847"
       d="m 32.997749,141.03553 1.511618,1.51162 c 0.179017,0.17901 0.179017,0.43759 0,0.61661 -0.178991,0.17899 -0.437568,0.17899 -0.616585,0 l -1.511644,-1.51165 c -0.178991,-0.17901 -0.178991,-0.43759 0,-0.61658 0.179017,-0.17902 0.457491,-0.17902 0.616611,0 z"
       style="fill:#ffffff;stroke-width:0.26458332" />
  </g>
</svg>
