<svg width="250" height="43" viewBox="0 0 250 43" fill="none" xmlns="http://www.w3.org/2000/svg">
<path d="M66.229 28.6416V30.0699H55.028V14.2832H65.8531V15.7116H56.757V21.3497H64.951V22.778H56.757V28.6416H66.229Z" fill="#3A4550"/>
<path d="M81.1888 25.8602H72.3933L70.514 30.0699H68.7849L76.0017 14.2832H77.6556L84.8724 30.0699H83.0682L81.1888 25.8602ZM80.5874 24.507L76.8286 16.0122L73.0699 24.507H80.5874Z" fill="#3A4550"/>
<path d="M89.5332 29.6189C88.4808 29.243 87.6538 28.7168 87.0524 28.1154L87.729 26.8374C88.3304 27.4388 89.0821 27.8899 89.9842 28.1906C90.9615 28.5664 91.9388 28.7168 92.9161 28.7168C94.3444 28.7168 95.3968 28.4913 96.0734 27.965C96.75 27.4388 97.1259 26.7622 97.1259 25.9353C97.1259 25.3339 96.9003 24.8077 96.5244 24.4318C96.1486 24.0559 95.6975 23.7552 95.0961 23.5297C94.5699 23.3042 93.743 23.0787 92.7657 22.8531C91.5629 22.5524 90.6608 22.2517 89.9091 21.951C89.1573 21.6503 88.6311 21.2745 88.1049 20.6731C87.5786 20.0717 87.3531 19.3199 87.3531 18.3427C87.3531 17.5157 87.5787 16.8392 87.9545 16.1626C88.4056 15.486 89.007 14.9598 89.9091 14.5839C90.8112 14.208 91.8636 13.9825 93.1416 13.9825C94.0437 13.9825 94.9458 14.1329 95.7727 14.3584C96.5996 14.5839 97.3514 14.9598 98.0279 15.4108L97.4266 16.764C96.75 16.3129 96.0734 16.0122 95.3217 15.7867C94.5699 15.5612 93.8182 15.486 93.1416 15.486C91.7884 15.486 90.736 15.7867 89.9842 16.3129C89.3077 16.8392 88.9318 17.5157 88.9318 18.3427C88.9318 18.9441 89.1573 19.4703 89.5332 19.8462C89.9091 20.222 90.3601 20.5227 90.9615 20.7482C91.5629 20.9738 92.3147 21.1993 93.2919 21.4248C94.4196 21.7255 95.3968 22.0262 96.0734 22.2517C96.75 22.5524 97.4265 22.9283 97.8776 23.5297C98.4038 24.1311 98.6293 24.8829 98.6293 25.785C98.6293 26.6119 98.4038 27.2885 97.9528 27.965C97.5017 28.6416 96.9003 29.1678 95.9982 29.5437C95.0961 29.9196 94.0437 30.1451 92.6905 30.1451C91.7884 30.2203 90.6608 29.9948 89.5332 29.6189Z" fill="#3A4550"/>
<path d="M108.628 24.5822V30.0699H106.974V24.5822L100.659 14.2832H102.463L107.876 23.1539L113.288 14.2832H114.942L108.628 24.5822Z" fill="#3A4550"/>
<path d="M121.257 17.2902H116.22V14.2832H129.977V17.2902H124.941V30.0699H121.257V17.2902Z" fill="#3A4550"/>
<path d="M143.133 30.0699L140.051 25.7098H139.9H136.743V30.0699H133.059V14.2832H139.9C141.329 14.2832 142.531 14.5088 143.509 14.9598C144.561 15.4109 145.313 16.0874 145.914 16.9144C146.441 17.7413 146.741 18.7937 146.741 19.9213C146.741 21.1241 146.441 22.1014 145.914 22.9283C145.388 23.7553 144.561 24.4318 143.509 24.8829L147.042 29.9948H143.133V30.0699ZM142.156 17.9668C141.554 17.5157 140.727 17.2902 139.675 17.2902H136.668V22.778H139.675C140.802 22.778 141.629 22.5525 142.156 22.0262C142.757 21.5752 142.983 20.8986 142.983 19.9965C143.058 19.0944 142.757 18.4178 142.156 17.9668Z" fill="#3A4550"/>
<path d="M161.175 26.6871H153.808L152.379 30.0699H148.621L155.687 14.2832H159.295L166.362 30.0699H162.528L161.175 26.6871ZM159.972 23.9056L157.491 17.8916L155.01 23.9056H159.972Z" fill="#3A4550"/>
<path d="M183.652 14.2832V30.0699H180.645L172.752 20.4476V30.0699H169.143V14.2832H172.15L179.969 23.9056V14.2832H183.652Z" fill="#3A4550"/>
<path d="M190.042 29.8444C188.839 29.5437 187.937 29.0927 187.26 28.4913L188.538 25.7098C189.215 26.236 190.042 26.6119 190.944 26.9126C191.846 27.2133 192.823 27.3636 193.726 27.3636C194.778 27.3636 195.53 27.2133 196.056 26.9126C196.582 26.6119 196.808 26.1608 196.808 25.7098C196.808 25.3339 196.657 25.0332 196.357 24.8077C196.056 24.5822 195.68 24.3566 195.229 24.2063C194.778 24.0559 194.177 23.9056 193.35 23.6801C192.147 23.3794 191.17 23.0787 190.418 22.8531C189.666 22.6276 188.99 22.1014 188.463 21.5C187.937 20.8986 187.636 19.9965 187.636 18.9441C187.636 18.042 187.862 17.215 188.388 16.4633C188.914 15.7115 189.666 15.1101 190.643 14.6591C191.621 14.208 192.899 13.9825 194.327 13.9825C195.304 13.9825 196.281 14.1329 197.259 14.3584C198.236 14.5839 199.063 14.9598 199.815 15.4108L198.687 18.1923C197.259 17.3654 195.755 16.9143 194.327 16.9143C193.274 16.9143 192.523 17.0647 192.072 17.4406C191.621 17.7413 191.32 18.1923 191.32 18.7185C191.32 19.2448 191.621 19.6958 192.147 19.9213C192.748 20.222 193.575 20.4476 194.703 20.6731C195.906 20.9738 196.883 21.2745 197.635 21.5C198.386 21.8007 199.063 22.2517 199.589 22.8531C200.115 23.4545 200.416 24.2815 200.416 25.3339C200.416 26.236 200.191 27.0629 199.664 27.8147C199.138 28.5664 198.386 29.1678 197.409 29.6189C196.432 30.0699 195.154 30.2954 193.726 30.2954C192.448 30.3706 191.245 30.1451 190.042 29.8444Z" fill="#3A4550"/>
<path d="M207.708 17.215V21.3497H215V24.2815H207.708V30.0699H204.024V14.2832H215.977V17.215H207.708Z" fill="#3A4550"/>
<path d="M231.764 27.1381V30.0699H219.51V14.2832H231.463V17.215H223.194V20.6731H230.561V23.5297H223.194V27.2133H231.764V27.1381Z" fill="#3A4550"/>
<path d="M245.897 30.0699L242.815 25.7098H242.664H239.507V30.0699H235.823V14.2832H242.664C244.093 14.2832 245.295 14.5088 246.273 14.9598C247.325 15.4109 248.077 16.0874 248.678 16.9144C249.205 17.7413 249.505 18.7937 249.505 19.9213C249.505 21.1241 249.205 22.1014 248.678 22.9283C248.152 23.7553 247.325 24.4318 246.273 24.8829L249.806 29.9948H245.897V30.0699ZM244.995 17.9668C244.393 17.5157 243.566 17.2902 242.514 17.2902H239.507V22.778H242.514C243.642 22.778 244.469 22.5525 244.995 22.0262C245.596 21.5752 245.822 20.8986 245.822 19.9965C245.822 19.0944 245.521 18.4178 244.995 17.9668Z" fill="#3A4550"/>
<path d="M21.5 43C33.3741 43 43 33.3741 43 21.5C43 9.62588 33.3741 0 21.5 0C9.62588 0 0 9.62588 0 21.5C0 33.3741 9.62588 43 21.5 43Z" fill="#3A4550"/>
<path d="M34.4301 26.8374H8.72028C7.81818 26.8374 7.06644 26.0856 7.06644 25.1835C7.06644 24.2815 7.81818 23.5297 8.72028 23.5297H34.4301C35.3322 23.5297 36.0839 24.2815 36.0839 25.1835C36.0839 26.0856 35.3322 26.8374 34.4301 26.8374Z" fill="white"/>
<path d="M13.3064 32.1001L7.59309 26.3868C6.91652 25.7102 6.91652 24.733 7.59309 24.0564C8.26967 23.3798 9.24694 23.3798 9.92351 24.0564L15.6368 29.7697C16.3134 30.4463 16.3134 31.4235 15.6368 32.1001C15.0354 32.7015 13.983 32.7015 13.3064 32.1001Z" fill="white"/>
<path d="M8.49476 17.215H34.2045C35.1066 17.215 35.8584 17.9668 35.8584 18.8689C35.8584 19.771 35.1066 20.5227 34.2045 20.5227H8.49476C7.59266 20.5227 6.84091 19.771 6.84091 18.8689C6.84091 17.9668 7.59266 17.215 8.49476 17.215Z" fill="white"/>
<path d="M29.6189 12.028L35.3321 17.7412C36.0087 18.4178 36.0087 19.3951 35.3321 20.0717C34.6556 20.7482 33.6783 20.7482 33.0017 20.0717L27.2884 14.3584C26.6119 13.6818 26.6119 12.7045 27.2884 12.028C27.965 11.3514 29.0175 11.3514 29.6189 12.028Z" fill="white"/>
</svg>
