<?xml version="1.0" encoding="UTF-8" standalone="no"?>
<svg
   viewBox="0 0 119.44 159.14001"
   version="1.1"
   id="svg83"
   sodipodi:docname="ubankconnect_icon.svg"
   width="119.44"
   height="159.14"
   inkscape:version="1.2.2 (732a01da63, 2022-12-09, custom)"
   xmlns:inkscape="http://www.inkscape.org/namespaces/inkscape"
   xmlns:sodipodi="http://sodipodi.sourceforge.net/DTD/sodipodi-0.dtd"
   xmlns:xlink="http://www.w3.org/1999/xlink"
   xmlns="http://www.w3.org/2000/svg"
   xmlns:svg="http://www.w3.org/2000/svg">
  <sodipodi:namedview
     id="namedview85"
     pagecolor="#ffffff"
     bordercolor="#000000"
     borderopacity="0.25"
     inkscape:showpageshadow="2"
     inkscape:pageopacity="0.0"
     inkscape:pagecheckerboard="0"
     inkscape:deskcolor="#d1d1d1"
     showgrid="false"
     inkscape:zoom="1.9691899"
     inkscape:cx="436.22"
     inkscape:cy="79.728219"
     inkscape:window-width="1860"
     inkscape:window-height="1043"
     inkscape:window-x="0"
     inkscape:window-y="0"
     inkscape:window-maximized="1"
     inkscape:current-layer="svg83" />
  <defs
     id="defs32">
    <style
       id="style25">.cls-1{fill:url(#linear-gradient);}.cls-2{fill:#00adee;}.cls-3{fill:#1f315c;}.cls-4{fill:#07090e;}.cls-5{mix-blend-mode:overlay;}.cls-6{isolation:isolate;}</style>
    <linearGradient
       id="linear-gradient"
       x1="-2.5699999"
       y1="22.799999"
       x2="85.879997"
       y2="136.50999"
       gradientUnits="userSpaceOnUse">
      <stop
         offset="0"
         stop-color="#3958a8"
         id="stop27" />
      <stop
         offset="1"
         stop-color="#1f315c"
         id="stop29" />
    </linearGradient>
    <linearGradient
       inkscape:collect="always"
       xlink:href="#linear-gradient"
       id="linearGradient191"
       gradientUnits="userSpaceOnUse"
       x1="-2.5699999"
       y1="22.799999"
       x2="85.879997"
       y2="136.50999" />
    <linearGradient
       inkscape:collect="always"
       xlink:href="#linear-gradient"
       id="linearGradient193"
       gradientUnits="userSpaceOnUse"
       x1="-2.5699999"
       y1="22.799999"
       x2="85.879997"
       y2="136.50999" />
  </defs>
  <g
     class="cls-6"
     id="g81">
    <g
       id="Layer_1">
      <g
         id="g78">
        <g
           id="g42">
          <path
             class="cls-3"
             d="m 40.39,48.59 c 5.92,-1.51 12.36,-2.28 19.32,-2.28 V 40.9 c 0,-6.8 -1.72,-11.97 -5.16,-15.52 -3.28,-3.39 -8.04,-5.1 -14.19,-5.26 0,0.17 0.03,0.32 0.03,0.5 v 27.96 z"
             id="path34" />
          <path
             class="cls-2"
             d="m 95.73,62.77 c -7.81,0 -14.51,4.71 -17.45,11.44 -1.02,2.34 -1.61,4.9 -1.61,7.62 0,2.72 0.58,5.28 1.61,7.62 2.94,6.73 9.64,11.44 17.45,11.44 10.52,0 19.05,-8.53 19.05,-19.05 0,-10.52 -8.53,-19.05 -19.05,-19.05 z"
             id="path36" />
          <path
             class="cls-2"
             d="m 95.73,62.77 c -7.81,0 -14.51,4.71 -17.45,11.44 -1.02,2.34 -1.61,4.9 -1.61,7.62 0,2.72 0.58,5.28 1.61,7.62 2.94,6.73 9.64,11.44 17.45,11.44 10.52,0 19.05,-8.53 19.05,-19.05 0,-10.52 -8.53,-19.05 -19.05,-19.05 z"
             id="path38" />
          <path
             class="cls-1"
             d="m 118.8,95.33 c -4.67,7.94 -13.21,13.34 -23.07,13.34 -5.83,0 -11.33,-1.95 -15.84,-5.27 -0.06,6.12 -0.88,11.15 -2.5,15.02 -1.68,4.03 -4.06,7.02 -7.13,9 -3.07,1.97 -6.59,2.96 -10.54,2.96 -6,0 -10.9,-2.19 -14.71,-6.59 -2.2,-2.53 -3.68,-6.05 -4.61,-10.34 -0.68,-3.14 -1.1,-6.65 -1.1,-10.74 0,-3.55 0.34,-6.6 0.85,-9.4 0.09,-0.49 0.14,-1.04 0.24,-1.51 0.41,-1.82 0.89,-3.53 1.54,-5.01 1.76,-4.02 4.17,-6.99 7.24,-8.89 3.07,-1.9 6.59,-2.85 10.54,-2.85 3.6,0 6.77,0.92 9.6,2.56 1.76,1.02 3.42,2.26 4.88,3.92 1.35,1.53 2.37,3.53 3.24,5.75 h 0.14 c -0.53,-1.75 -0.91,-3.56 -0.91,-5.48 0,-2.71 0.58,-5.28 1.61,-7.62 2.94,-6.73 9.64,-11.44 17.45,-11.44 4.93,0 9.38,1.92 12.77,5 -3.81,-5.08 -8.48,-9.32 -14.06,-12.7 -1.1,-0.66 -2.17,-1.36 -3.34,-1.95 -8.93,-4.53 -19.39,-6.8 -31.39,-6.8 -6.96,0 -13.39,0.77 -19.32,2.28 V 20.64 c 0,-0.18 -0.03,-0.32 -0.03,-0.5 C 40.26,13.67 38.57,8.69 35.22,5.27 31.79,1.76 26.78,0 20.19,0 13.6,0 8.78,1.76 5.27,5.27 1.76,8.78 0,13.91 0,20.64 v 82.09 c 0,11.56 2.49,21.59 7.46,30.08 4.98,8.49 11.93,15 20.85,19.53 1.73,0.88 3.57,1.6 5.42,2.31 7.67,2.95 16.3,4.49 25.97,4.49 8.92,0 17.08,-1.28 24.47,-3.84 7.39,-2.56 13.68,-6.29 18.88,-11.2 5.19,-4.9 9.18,-10.87 11.96,-17.89 2.78,-7.02 4.17,-14.85 4.17,-23.49 0,-2.56 -0.17,-5 -0.4,-7.4 z"
             id="path40"
             style="fill:url(#linearGradient191)" />
        </g>
        <g
           id="g68">
          <path
             class="cls-4"
             d="m 198.56,66.49 v 53.34 h -11.1 l -0.99,-6.72 c -1.91,2.73 -4.29,4.79 -7.16,6.19 -2.86,1.4 -6.09,2.1 -9.67,2.1 -6.31,0 -11.18,-1.9 -14.61,-5.7 -3.43,-3.8 -5.14,-8.89 -5.14,-15.28 V 66.47 h 13.38 v 31.67 c 0,4.05 0.93,6.98 2.8,8.79 1.87,1.81 4.52,2.72 7.95,2.72 3.43,0 6.14,-1.12 8.15,-3.36 2.01,-2.24 3.01,-5.27 3.01,-9.08 V 66.48 h 13.38 z"
             id="path44" />
          <path
             class="cls-2"
             d="m 254.88,69.61 c 3.78,2.28 6.75,5.51 8.91,9.7 2.16,4.19 3.24,9.01 3.24,14.46 0,5.45 -1.08,10.22 -3.24,14.4 -2.16,4.19 -5.13,7.42 -8.91,9.7 -3.78,2.28 -8.06,3.42 -12.85,3.42 -4.79,0 -9.2,-1.14 -13,-3.42 -3.8,-2.28 -6.53,-5.29 -8.21,-9.03 l -0.7,10.98 h -5.49 V 37.74 h 6.54 v 40.08 c 1.67,-3.58 4.39,-6.42 8.15,-8.5 3.76,-2.08 7.96,-3.13 12.59,-3.13 4.87,0 9.19,1.14 12.97,3.42 z m -0.06,39.67 c 3.51,-3.91 5.26,-9.09 5.26,-15.51 0,-6.42 -1.73,-11.66 -5.2,-15.57 -3.47,-3.91 -8.12,-5.87 -13.96,-5.87 -5.84,0 -10.3,1.9 -13.73,5.7 -3.43,3.8 -5.14,8.91 -5.14,15.34 0,6.43 1.73,11.81 5.2,15.8 3.47,3.99 8.06,5.99 13.79,5.99 5.73,0 10.28,-1.96 13.79,-5.87 z"
             id="path46" />
          <path
             class="cls-2"
             d="m 329.79,67.66 v 52.17 h -6.31 v -10.98 c -1.68,3.66 -4.39,6.65 -8.15,8.97 -3.76,2.32 -8.11,3.48 -13.06,3.48 -4.95,0 -9.06,-1.14 -12.79,-3.42 -3.74,-2.28 -6.67,-5.51 -8.79,-9.7 -2.12,-4.19 -3.18,-8.99 -3.18,-14.4 0,-5.41 1.08,-10.22 3.24,-14.43 2.16,-4.21 5.13,-7.45 8.91,-9.73 3.78,-2.28 8.1,-3.42 12.97,-3.42 4.87,0 9.18,1.08 12.94,3.24 3.76,2.16 6.44,5.07 8.03,8.73 l 0.58,-10.52 h 5.61 z m -12.45,41.57 c 3.51,-3.95 5.26,-9.24 5.26,-15.86 0,-6.62 -1.71,-11.59 -5.14,-15.37 -3.43,-3.78 -8,-5.67 -13.73,-5.67 -5.73,0 -10.52,1.98 -14.02,5.93 -3.5,3.95 -5.26,9.12 -5.26,15.51 0,6.39 1.75,11.65 5.26,15.54 3.51,3.9 8.1,5.84 13.79,5.84 5.69,0 10.34,-1.98 13.85,-5.93 z"
             id="path48" />
          <path
             class="cls-2"
             d="m 385.93,71.72 c 3.54,3.68 5.32,8.99 5.32,15.92 v 32.19 h -6.84 V 89.1 c 0,-11.18 -4.54,-16.77 -13.61,-16.77 -4.87,0 -8.8,1.47 -11.8,4.41 -3,2.94 -4.5,6.69 -4.5,11.25 v 31.73 h -6.78 V 67.66 h 5.61 l 0.93,8.12 c 1.6,-2.88 4.01,-5.2 7.24,-6.95 3.23,-1.75 6.68,-2.63 10.34,-2.63 5.84,0 10.54,1.84 14.08,5.52 z"
             id="path50" />
          <path
             class="cls-2"
             d="m 432.62,86.94 18.05,32.89 h -7.54 l -15.31,-27.99 -11.86,12.33 v 15.66 h -6.89 V 37.74 h 6.89 v 57.9 l 27.05,-27.99 h 8.3 l -18.7,19.28 z"
             id="path52" />
          <path
             class="cls-4"
             d="m 462.44,78.26 c 2.36,-4.27 5.69,-7.58 9.99,-9.93 4.3,-2.36 9.2,-3.53 14.69,-3.53 7.32,0 13.42,1.92 18.29,5.76 4.87,3.84 7.67,8.97 8.41,15.39 h -13.67 c -0.78,-3.04 -2.33,-5.36 -4.64,-6.98 -2.31,-1.62 -5.15,-2.43 -8.5,-2.43 -4.4,0 -7.93,1.49 -10.6,4.47 -2.67,2.98 -4,7.02 -4,12.12 0,5.1 1.29,8.92 3.89,11.92 2.59,3 6.12,4.5 10.6,4.5 3.5,0 6.44,-0.86 8.79,-2.57 2.36,-1.71 3.85,-3.93 4.47,-6.66 h 13.67 c -0.78,6.31 -3.61,11.4 -8.5,15.28 -4.89,3.88 -10.92,5.81 -18.08,5.81 -5.57,0 -10.51,-1.18 -14.81,-3.53 -4.31,-2.36 -7.64,-5.69 -9.99,-9.99 -2.36,-4.3 -3.53,-9.26 -3.53,-14.87 0,-5.61 1.18,-10.49 3.53,-14.75 z"
             id="path54" />
          <path
             class="cls-4"
             d="m 525.89,78.55 c 2.47,-4.3 5.92,-7.67 10.34,-10.11 4.42,-2.43 9.45,-3.65 15.1,-3.65 5.65,0 10.69,1.22 15.13,3.65 4.44,2.43 7.9,5.8 10.37,10.11 2.48,4.3 3.71,9.16 3.71,14.58 0,5.42 -1.24,10.17 -3.71,14.49 -2.47,4.32 -5.92,7.7 -10.34,10.14 -4.42,2.44 -9.48,3.65 -15.16,3.65 -5.68,0 -10.68,-1.22 -15.1,-3.65 -4.42,-2.43 -7.87,-5.8 -10.34,-10.11 -2.48,-4.3 -3.71,-9.14 -3.71,-14.52 0,-5.38 1.24,-10.27 3.71,-14.58 z m 14.34,26.26 c 2.88,3.08 6.58,4.62 11.1,4.62 4.52,0 8.39,-1.54 11.28,-4.62 2.88,-3.08 4.33,-7.01 4.33,-11.8 0,-4.79 -1.44,-8.71 -4.33,-11.77 -2.88,-3.06 -6.64,-4.59 -11.28,-4.59 -4.64,0 -8.27,1.53 -11.13,4.59 -2.86,3.06 -4.29,6.98 -4.29,11.77 0,4.79 1.44,8.72 4.32,11.8 z"
             id="path56" />
          <path
             class="cls-4"
             d="m 635.91,70.66 c 3.6,3.91 5.4,9.3 5.4,16.15 v 33.01 H 627.87 V 89.91 c 0,-8.68 -3.54,-13.03 -10.63,-13.03 -3.82,0 -6.77,1.11 -8.85,3.33 -2.08,2.22 -3.13,5.22 -3.13,9 v 30.62 H 592 V 66.49 h 11.1 l 0.99,6.43 c 1.67,-2.45 4.05,-4.42 7.13,-5.9 3.08,-1.48 6.41,-2.22 9.99,-2.22 6.19,0 11.09,1.96 14.69,5.87 z"
             id="path58" />
          <path
             class="cls-4"
             d="m 699.3,70.66 c 3.6,3.91 5.4,9.3 5.4,16.15 v 33.01 H 691.26 V 89.91 c 0,-8.68 -3.54,-13.03 -10.63,-13.03 -3.82,0 -6.77,1.11 -8.85,3.33 -2.08,2.22 -3.13,5.22 -3.13,9 v 30.62 H 655.39 V 66.49 h 11.1 l 0.99,6.43 c 1.67,-2.45 4.05,-4.42 7.13,-5.9 3.08,-1.48 6.41,-2.22 9.99,-2.22 6.19,0 11.09,1.96 14.69,5.87 z"
             id="path60" />
          <path
             class="cls-4"
             d="m 760.55,116.38 c -4.79,3.35 -10.5,5.03 -17.12,5.03 -5.49,0 -10.33,-1.2 -14.52,-3.59 -4.19,-2.4 -7.44,-5.74 -9.76,-10.05 -2.32,-4.31 -3.48,-9.26 -3.48,-14.87 0,-5.61 1.18,-10.58 3.53,-14.81 2.35,-4.23 5.61,-7.5 9.76,-9.82 4.15,-2.32 8.85,-3.48 14.11,-3.48 5.26,0 9.77,1.1 13.76,3.3 3.99,2.2 7.08,5.21 9.26,9.03 2.18,3.82 3.27,8.2 3.27,13.15 0,2.65 -0.2,4.85 -0.58,6.6 h -39.96 c 0.15,4.05 1.57,7.31 4.24,9.79 2.67,2.47 6.12,3.71 10.37,3.71 3.19,0 5.95,-0.63 8.27,-1.9 2.31,-1.27 3.9,-3.03 4.76,-5.29 h 13.03 c -1.17,5.45 -4.15,9.85 -8.94,13.2 z m -4.79,-28.51 c -0.08,-3.74 -1.32,-6.69 -3.71,-8.85 -2.39,-2.16 -5.5,-3.24 -9.32,-3.24 -3.82,0 -7.11,1.1 -9.64,3.3 -2.53,2.2 -3.87,5.13 -4.03,8.79 z"
             id="path62" />
          <path
             class="cls-4"
             d="m 780.92,78.26 c 2.36,-4.27 5.69,-7.58 9.99,-9.93 4.3,-2.36 9.2,-3.53 14.69,-3.53 7.32,0 13.42,1.92 18.29,5.76 4.87,3.84 7.67,8.97 8.41,15.39 h -13.67 c -0.78,-3.04 -2.33,-5.36 -4.64,-6.98 -2.31,-1.62 -5.15,-2.43 -8.5,-2.43 -4.4,0 -7.93,1.49 -10.6,4.47 -2.67,2.98 -4,7.02 -4,12.12 0,5.1 1.29,8.92 3.89,11.92 2.59,3 6.12,4.5 10.6,4.5 3.5,0 6.44,-0.86 8.79,-2.57 2.36,-1.71 3.85,-3.93 4.47,-6.66 h 13.67 c -0.78,6.31 -3.61,11.4 -8.5,15.28 -4.89,3.88 -10.92,5.81 -18.08,5.81 -5.57,0 -10.51,-1.18 -14.81,-3.53 -4.31,-2.36 -7.64,-5.69 -9.99,-9.99 -2.36,-4.3 -3.53,-9.26 -3.53,-14.87 0,-5.61 1.18,-10.49 3.53,-14.75 z"
             id="path64" />
          <path
             class="cls-4"
             d="m 872.44,77.47 h -10.17 v 42.36 H 848.89 V 77.47 H 838.73 V 66.49 h 10.16 V 52.47 h 13.38 v 14.02 h 10.17 z"
             id="path66" />
        </g>
        <g
           class="cls-5"
           id="g76">
          <path
             class="cls-3"
             d="m 40.39,48.59 c 5.92,-1.51 12.36,-2.28 19.32,-2.28 V 40.9 c 0,-6.8 -1.72,-11.97 -5.16,-15.52 -3.28,-3.39 -8.04,-5.1 -14.19,-5.26 0,0.17 0.03,0.32 0.03,0.5 v 27.96 z"
             id="path70" />
          <path
             class="cls-2"
             d="m 95.73,62.77 c -7.81,0 -14.51,4.71 -17.45,11.44 -1.02,2.34 -1.61,4.9 -1.61,7.62 0,2.72 0.58,5.28 1.61,7.62 2.94,6.73 9.64,11.44 17.45,11.44 10.52,0 19.05,-8.53 19.05,-19.05 0,-10.52 -8.53,-19.05 -19.05,-19.05 z"
             id="path72" />
          <path
             class="cls-1"
             d="m 118.8,95.33 c -4.67,7.94 -13.21,13.34 -23.07,13.34 -5.83,0 -11.33,-1.95 -15.84,-5.27 -0.06,6.12 -0.88,11.15 -2.5,15.02 -1.68,4.03 -4.06,7.02 -7.13,9 -3.07,1.97 -6.59,2.96 -10.54,2.96 -6,0 -10.9,-2.19 -14.71,-6.59 -2.2,-2.53 -3.68,-6.05 -4.61,-10.34 -0.68,-3.14 -1.1,-6.65 -1.1,-10.74 0,-3.55 0.34,-6.6 0.85,-9.4 0.09,-0.49 0.14,-1.04 0.24,-1.51 0.41,-1.82 0.89,-3.53 1.54,-5.01 1.76,-4.02 4.17,-6.99 7.24,-8.89 3.07,-1.9 6.59,-2.85 10.54,-2.85 3.6,0 6.77,0.92 9.6,2.56 1.76,1.02 3.42,2.26 4.88,3.92 1.35,1.53 2.37,3.53 3.24,5.75 h 0.14 c -0.53,-1.75 -0.91,-3.56 -0.91,-5.48 0,-2.71 0.58,-5.28 1.61,-7.62 2.94,-6.73 9.64,-11.44 17.45,-11.44 4.93,0 9.38,1.92 12.77,5 -3.81,-5.08 -8.48,-9.32 -14.06,-12.7 -1.1,-0.66 -2.17,-1.36 -3.34,-1.95 -8.93,-4.53 -19.39,-6.8 -31.39,-6.8 -6.96,0 -13.39,0.77 -19.32,2.28 V 20.64 c 0,-0.18 -0.03,-0.32 -0.03,-0.5 C 40.26,13.67 38.57,8.69 35.22,5.27 31.79,1.76 26.78,0 20.19,0 13.6,0 8.78,1.76 5.27,5.27 1.76,8.78 0,13.91 0,20.64 v 82.09 c 0,11.56 2.49,21.59 7.46,30.08 4.98,8.49 11.93,15 20.85,19.53 1.73,0.88 3.57,1.6 5.42,2.31 7.67,2.95 16.3,4.49 25.97,4.49 8.92,0 17.08,-1.28 24.47,-3.84 7.39,-2.56 13.68,-6.29 18.88,-11.2 5.19,-4.9 9.18,-10.87 11.96,-17.89 2.78,-7.02 4.17,-14.85 4.17,-23.49 0,-2.56 -0.17,-5 -0.4,-7.4 z"
             id="path74"
             style="fill:url(#linearGradient193)" />
        </g>
      </g>
    </g>
  </g>
</svg>
