<svg xmlns="http://www.w3.org/2000/svg" xmlns:xlink="http://www.w3.org/1999/xlink" viewBox="0 0 872.44 159.14"><defs><style>.cls-1{fill:url(#linear-gradient);}.cls-2{fill:#00adee;}.cls-3{fill:#1f315c;}.cls-4{fill:#07090e;}.cls-5{mix-blend-mode:overlay;}.cls-6{isolation:isolate;}</style><linearGradient id="linear-gradient" x1="-2.57" y1="22.8" x2="85.88" y2="136.51" gradientUnits="userSpaceOnUse"><stop offset="0" stop-color="#3958a8"/><stop offset="1" stop-color="#1f315c"/></linearGradient></defs><g class="cls-6"><g id="Layer_1"><g><g><path class="cls-3" d="M40.39,48.59c5.92-1.51,12.36-2.28,19.32-2.28v-5.41c0-6.8-1.72-11.97-5.16-15.52-3.28-3.39-8.04-5.1-14.19-5.26,0,.17,.03,.32,.03,.5v27.96Z"/><path class="cls-2" d="M95.73,62.77c-7.81,0-14.51,4.71-17.45,11.44-1.02,2.34-1.61,4.9-1.61,7.62s.58,5.28,1.61,7.62c2.94,6.73,9.64,11.44,17.45,11.44,10.52,0,19.05-8.53,19.05-19.05s-8.53-19.05-19.05-19.05Z"/><path class="cls-2" d="M95.73,62.77c-7.81,0-14.51,4.71-17.45,11.44-1.02,2.34-1.61,4.9-1.61,7.62s.58,5.28,1.61,7.62c2.94,6.73,9.64,11.44,17.45,11.44,10.52,0,19.05-8.53,19.05-19.05s-8.53-19.05-19.05-19.05Z"/><path class="cls-1" d="M118.8,95.33c-4.67,7.94-13.21,13.34-23.07,13.34-5.83,0-11.33-1.95-15.84-5.27-.06,6.12-.88,11.15-2.5,15.02-1.68,4.03-4.06,7.02-7.13,9-3.07,1.97-6.59,2.96-10.54,2.96-6,0-10.9-2.19-14.71-6.59-2.2-2.53-3.68-6.05-4.61-10.34-.68-3.14-1.1-6.65-1.1-10.74,0-3.55,.34-6.6,.85-9.4,.09-.49,.14-1.04,.24-1.51,.41-1.82,.89-3.53,1.54-5.01,1.76-4.02,4.17-6.99,7.24-8.89,3.07-1.9,6.59-2.85,10.54-2.85,3.6,0,6.77,.92,9.6,2.56,1.76,1.02,3.42,2.26,4.88,3.92,1.35,1.53,2.37,3.53,3.24,5.75h.14c-.53-1.75-.91-3.56-.91-5.48,0-2.71,.58-5.28,1.61-7.62,2.94-6.73,9.64-11.44,17.45-11.44,4.93,0,9.38,1.92,12.77,5-3.81-5.08-8.48-9.32-14.06-12.7-1.1-.66-2.17-1.36-3.34-1.95-8.93-4.53-19.39-6.8-31.39-6.8-6.96,0-13.39,.77-19.32,2.28V20.64c0-.18-.03-.32-.03-.5-.09-6.47-1.78-11.45-5.13-14.87C31.79,1.76,26.78,0,20.19,0S8.78,1.76,5.27,5.27C1.76,8.78,0,13.91,0,20.64V102.73c0,11.56,2.49,21.59,7.46,30.08,4.98,8.49,11.93,15,20.85,19.53,1.73,.88,3.57,1.6,5.42,2.31,7.67,2.95,16.3,4.49,25.97,4.49,8.92,0,17.08-1.28,24.47-3.84,7.39-2.56,13.68-6.29,18.88-11.2,5.19-4.9,9.18-10.87,11.96-17.89,2.78-7.02,4.17-14.85,4.17-23.49,0-2.56-.17-5-.4-7.4Z"/></g><g><path class="cls-4" d="M198.56,66.49v53.34h-11.1l-.99-6.72c-1.91,2.73-4.29,4.79-7.16,6.19-2.86,1.4-6.09,2.1-9.67,2.1-6.31,0-11.18-1.9-14.61-5.7-3.43-3.8-5.14-8.89-5.14-15.28v-33.95h13.38v31.67c0,4.05,.93,6.98,2.8,8.79s4.52,2.72,7.95,2.72,6.14-1.12,8.15-3.36c2.01-2.24,3.01-5.27,3.01-9.08v-30.73h13.38Z"/><path class="cls-2" d="M254.88,69.61c3.78,2.28,6.75,5.51,8.91,9.7,2.16,4.19,3.24,9.01,3.24,14.46s-1.08,10.22-3.24,14.4c-2.16,4.19-5.13,7.42-8.91,9.7-3.78,2.28-8.06,3.42-12.85,3.42s-9.2-1.14-13-3.42c-3.8-2.28-6.53-5.29-8.21-9.03l-.7,10.98h-5.49V37.74h6.54v40.08c1.67-3.58,4.39-6.42,8.15-8.5,3.76-2.08,7.96-3.13,12.59-3.13,4.87,0,9.19,1.14,12.97,3.42Zm-.06,39.67c3.51-3.91,5.26-9.09,5.26-15.51s-1.73-11.66-5.2-15.57c-3.47-3.91-8.12-5.87-13.96-5.87s-10.3,1.9-13.73,5.7c-3.43,3.8-5.14,8.91-5.14,15.34s1.73,11.81,5.2,15.8,8.06,5.99,13.79,5.99,10.28-1.96,13.79-5.87Z"/><path class="cls-2" d="M329.79,67.66v52.17h-6.31v-10.98c-1.68,3.66-4.39,6.65-8.15,8.97-3.76,2.32-8.11,3.48-13.06,3.48s-9.06-1.14-12.79-3.42c-3.74-2.28-6.67-5.51-8.79-9.7-2.12-4.19-3.18-8.99-3.18-14.4s1.08-10.22,3.24-14.43,5.13-7.45,8.91-9.73c3.78-2.28,8.1-3.42,12.97-3.42s9.18,1.08,12.94,3.24c3.76,2.16,6.44,5.07,8.03,8.73l.58-10.52h5.61Zm-12.45,41.57c3.51-3.95,5.26-9.24,5.26-15.86s-1.71-11.59-5.14-15.37c-3.43-3.78-8-5.67-13.73-5.67s-10.52,1.98-14.02,5.93-5.26,9.12-5.26,15.51,1.75,11.65,5.26,15.54c3.51,3.9,8.1,5.84,13.79,5.84s10.34-1.98,13.85-5.93Z"/><path class="cls-2" d="M385.93,71.72c3.54,3.68,5.32,8.99,5.32,15.92v32.19h-6.84v-30.73c0-11.18-4.54-16.77-13.61-16.77-4.87,0-8.8,1.47-11.8,4.41-3,2.94-4.5,6.69-4.5,11.25v31.73h-6.78v-52.06h5.61l.93,8.12c1.6-2.88,4.01-5.2,7.24-6.95,3.23-1.75,6.68-2.63,10.34-2.63,5.84,0,10.54,1.84,14.08,5.52Z"/><path class="cls-2" d="M432.62,86.94l18.05,32.89h-7.54l-15.31-27.99-11.86,12.33v15.66h-6.89V37.74h6.89v57.9l27.05-27.99h8.3l-18.7,19.28Z"/><path class="cls-4" d="M462.44,78.26c2.36-4.27,5.69-7.58,9.99-9.93,4.3-2.36,9.2-3.53,14.69-3.53,7.32,0,13.42,1.92,18.29,5.76,4.87,3.84,7.67,8.97,8.41,15.39h-13.67c-.78-3.04-2.33-5.36-4.64-6.98s-5.15-2.43-8.5-2.43c-4.4,0-7.93,1.49-10.6,4.47-2.67,2.98-4,7.02-4,12.12s1.29,8.92,3.89,11.92c2.59,3,6.12,4.5,10.6,4.5,3.5,0,6.44-.86,8.79-2.57,2.36-1.71,3.85-3.93,4.47-6.66h13.67c-.78,6.31-3.61,11.4-8.5,15.28-4.89,3.88-10.92,5.81-18.08,5.81-5.57,0-10.51-1.18-14.81-3.53-4.31-2.36-7.64-5.69-9.99-9.99-2.36-4.3-3.53-9.26-3.53-14.87s1.18-10.49,3.53-14.75Z"/><path class="cls-4" d="M525.89,78.55c2.47-4.3,5.92-7.67,10.34-10.11,4.42-2.43,9.45-3.65,15.1-3.65s10.69,1.22,15.13,3.65c4.44,2.43,7.9,5.8,10.37,10.11,2.48,4.3,3.71,9.16,3.71,14.58s-1.24,10.17-3.71,14.49c-2.47,4.32-5.92,7.7-10.34,10.14s-9.48,3.65-15.16,3.65-10.68-1.22-15.1-3.65c-4.42-2.43-7.87-5.8-10.34-10.11-2.48-4.3-3.71-9.14-3.71-14.52s1.24-10.27,3.71-14.58Zm14.34,26.26c2.88,3.08,6.58,4.62,11.1,4.62s8.39-1.54,11.28-4.62c2.88-3.08,4.33-7.01,4.33-11.8s-1.44-8.71-4.33-11.77c-2.88-3.06-6.64-4.59-11.28-4.59s-8.27,1.53-11.13,4.59c-2.86,3.06-4.29,6.98-4.29,11.77s1.44,8.72,4.32,11.8Z"/><path class="cls-4" d="M635.91,70.66c3.6,3.91,5.4,9.3,5.4,16.15v33.01h-13.44v-29.91c0-8.68-3.54-13.03-10.63-13.03-3.82,0-6.77,1.11-8.85,3.33-2.08,2.22-3.13,5.22-3.13,9v30.62h-13.26v-53.34h11.1l.99,6.43c1.67-2.45,4.05-4.42,7.13-5.9,3.08-1.48,6.41-2.22,9.99-2.22,6.19,0,11.09,1.96,14.69,5.87Z"/><path class="cls-4" d="M699.3,70.66c3.6,3.91,5.4,9.3,5.4,16.15v33.01h-13.44v-29.91c0-8.68-3.54-13.03-10.63-13.03-3.82,0-6.77,1.11-8.85,3.33-2.08,2.22-3.13,5.22-3.13,9v30.62h-13.26v-53.34h11.1l.99,6.43c1.67-2.45,4.05-4.42,7.13-5.9,3.08-1.48,6.41-2.22,9.99-2.22,6.19,0,11.09,1.96,14.69,5.87Z"/><path class="cls-4" d="M760.55,116.38c-4.79,3.35-10.5,5.03-17.12,5.03-5.49,0-10.33-1.2-14.52-3.59-4.19-2.4-7.44-5.74-9.76-10.05s-3.48-9.26-3.48-14.87,1.18-10.58,3.53-14.81,5.61-7.5,9.76-9.82c4.15-2.32,8.85-3.48,14.11-3.48s9.77,1.1,13.76,3.3c3.99,2.2,7.08,5.21,9.26,9.03,2.18,3.82,3.27,8.2,3.27,13.15,0,2.65-.2,4.85-.58,6.6h-39.96c.15,4.05,1.57,7.31,4.24,9.79,2.67,2.47,6.12,3.71,10.37,3.71,3.19,0,5.95-.63,8.27-1.9,2.31-1.27,3.9-3.03,4.76-5.29h13.03c-1.17,5.45-4.15,9.85-8.94,13.2Zm-4.79-28.51c-.08-3.74-1.32-6.69-3.71-8.85s-5.5-3.24-9.32-3.24-7.11,1.1-9.64,3.3c-2.53,2.2-3.87,5.13-4.03,8.79h26.7Z"/><path class="cls-4" d="M780.92,78.26c2.36-4.27,5.69-7.58,9.99-9.93,4.3-2.36,9.2-3.53,14.69-3.53,7.32,0,13.42,1.92,18.29,5.76,4.87,3.84,7.67,8.97,8.41,15.39h-13.67c-.78-3.04-2.33-5.36-4.64-6.98s-5.15-2.43-8.5-2.43c-4.4,0-7.93,1.49-10.6,4.47-2.67,2.98-4,7.02-4,12.12s1.29,8.92,3.89,11.92c2.59,3,6.12,4.5,10.6,4.5,3.5,0,6.44-.86,8.79-2.57,2.36-1.71,3.85-3.93,4.47-6.66h13.67c-.78,6.31-3.61,11.4-8.5,15.28-4.89,3.88-10.92,5.81-18.08,5.81-5.57,0-10.51-1.18-14.81-3.53-4.31-2.36-7.64-5.69-9.99-9.99-2.36-4.3-3.53-9.26-3.53-14.87s1.18-10.49,3.53-14.75Z"/><path class="cls-4" d="M872.44,77.47h-10.17v42.36h-13.38v-42.36h-10.16v-10.98h10.16v-14.02h13.38v14.02h10.17v10.98Z"/></g><g class="cls-5"><path class="cls-3" d="M40.39,48.59c5.92-1.51,12.36-2.28,19.32-2.28v-5.41c0-6.8-1.72-11.97-5.16-15.52-3.28-3.39-8.04-5.1-14.19-5.26,0,.17,.03,.32,.03,.5v27.96Z"/><path class="cls-2" d="M95.73,62.77c-7.81,0-14.51,4.71-17.45,11.44-1.02,2.34-1.61,4.9-1.61,7.62s.58,5.28,1.61,7.62c2.94,6.73,9.64,11.44,17.45,11.44,10.52,0,19.05-8.53,19.05-19.05s-8.53-19.05-19.05-19.05Z"/><path class="cls-1" d="M118.8,95.33c-4.67,7.94-13.21,13.34-23.07,13.34-5.83,0-11.33-1.95-15.84-5.27-.06,6.12-.88,11.15-2.5,15.02-1.68,4.03-4.06,7.02-7.13,9-3.07,1.97-6.59,2.96-10.54,2.96-6,0-10.9-2.19-14.71-6.59-2.2-2.53-3.68-6.05-4.61-10.34-.68-3.14-1.1-6.65-1.1-10.74,0-3.55,.34-6.6,.85-9.4,.09-.49,.14-1.04,.24-1.51,.41-1.82,.89-3.53,1.54-5.01,1.76-4.02,4.17-6.99,7.24-8.89,3.07-1.9,6.59-2.85,10.54-2.85,3.6,0,6.77,.92,9.6,2.56,1.76,1.02,3.42,2.26,4.88,3.92,1.35,1.53,2.37,3.53,3.24,5.75h.14c-.53-1.75-.91-3.56-.91-5.48,0-2.71,.58-5.28,1.61-7.62,2.94-6.73,9.64-11.44,17.45-11.44,4.93,0,9.38,1.92,12.77,5-3.81-5.08-8.48-9.32-14.06-12.7-1.1-.66-2.17-1.36-3.34-1.95-8.93-4.53-19.39-6.8-31.39-6.8-6.96,0-13.39,.77-19.32,2.28V20.64c0-.18-.03-.32-.03-.5-.09-6.47-1.78-11.45-5.13-14.87C31.79,1.76,26.78,0,20.19,0S8.78,1.76,5.27,5.27C1.76,8.78,0,13.91,0,20.64V102.73c0,11.56,2.49,21.59,7.46,30.08,4.98,8.49,11.93,15,20.85,19.53,1.73,.88,3.57,1.6,5.42,2.31,7.67,2.95,16.3,4.49,25.97,4.49,8.92,0,17.08-1.28,24.47-3.84,7.39-2.56,13.68-6.29,18.88-11.2,5.19-4.9,9.18-10.87,11.96-17.89,2.78-7.02,4.17-14.85,4.17-23.49,0-2.56-.17-5-.4-7.4Z"/></g></g></g></g></svg>