<svg xmlns="http://www.w3.org/2000/svg" viewBox="0 0 800 800" xmlns:v="https://vecta.io/nano"><g fill="#04ab61"><path d="M354.9,200c-36.5,0-66.2,29.6-66.2,66.2h245.6c36.5,0,66.2-29.6,66.2-66.2H354.9z"/><path d="M288.8,266.2c0-36.5,29.6-66.2,66.2-66.2v245.6c0,36.5-29.6,66.2-66.2,66.2V266.2z"/></g><g fill="#fbb016"><path d="M375.9 288.2v66.2h77.2c36.5 0 66.2-29.6 66.2-66.2h0-143.4z" fill-rule="evenodd"/><path d="M199.5,354.4c0-36.5,29.6-66.2,66.2-66.2v245.6c0,36.5-29.6,66.2-66.2,66.2V354.4z"/></g></svg>