<svg width="36" height="36" viewBox="0 0 36 36" fill="none" xmlns="http://www.w3.org/2000/svg">
<path fill-rule="evenodd" clip-rule="evenodd" d="M17.934 35.9936C27.8387 35.9936 35.8681 27.9643 35.8681 18.0596C35.8681 8.15484 27.8387 0.125488 17.934 0.125488C8.02935 0.125488 0 8.15484 0 18.0596C0 27.9643 8.02935 35.9936 17.934 35.9936ZM10.7309 25.3073C15.0594 29.6358 22.0773 29.6358 26.4058 25.3073L18.5514 17.4528C21.2287 20.1004 25.5452 20.0912 28.2112 17.4253L18.5237 7.73779C15.8578 10.4037 15.8486 14.7203 18.4961 17.3976L10.7309 9.63231C6.40238 13.9608 6.40238 20.9787 10.7309 25.3073Z" fill="#1F2933"/>
</svg>
