<?xml version="1.0" encoding="UTF-8"?>
<svg enable-background="new 0 0 72.5 33.4" version="1.1" viewBox="0 0 72.5 33.4" xml:space="preserve" xmlns="http://www.w3.org/2000/svg">
<style type="text/css">
	.st0{fill:#91CBEA;}
	.st1{fill:#37557E;}
	.st2{fill:#FFFFFF;}
</style>
<g>
	<title>icon-4-confirmation</title>
	<desc>Created with Sketch.</desc>
			<path class="st0" d="m61.5 19.8h-50.3c-5.4 0-9.8-4.4-9.8-9.8s4.4-9.8 9.8-9.8h50.3c5.4 0 9.8 4.4 9.8 9.8s-4.4 9.8-9.8 9.8z"/>
			<path class="st1" d="m72.5 19.5c-0.7-1.7-2.2-2.5-3.5-2.6 1.8-1.8 2.8-4.3 2.8-7 0-5.5-4.5-10-10-10h-51.2c-5.5 0-10 4.5-10 10s4.5 10 10 10h42.9c-0.1 1.1 0.9 2.6 2.1 4.5 1.6 2.4 3.5 5.4 3.5 8.3v0.6h11.1v-0.6c0-0.7 0.5-2.2 0.9-3.7 0.6-2 1.3-4.1 1.3-5.5l0.1-4zm-61.9-0.7c-4.9 0-8.8-3.9-8.8-8.8s3.9-8.8 8.8-8.8h51.2c4.9 0 8.8 3.9 8.8 8.8 0 2.4-1 4.6-2.6 6.2-0.9-0.5-1.9-0.6-2.5-0.6-0.6-0.7-1.6-1-3-1.1v-4.5c0-1.2-1-2.2-2.2-2.2s-2.2 1-2.2 2.2v8.8h-1.8c-0.3-0.1-0.5-0.2-0.8-0.2-0.4 0-0.7 0-1 0.2h-43.9zm60.8 4.8c0 1.2-0.7 3.3-1.2 5.1-0.4 1.4-0.8 2.6-0.9 3.5h-9c-0.2-3.1-2.1-6-3.7-8.4-1.1-1.7-2.3-3.5-1.7-4 0.1-0.1 0.2-0.1 0.3-0.2h0.3c0.3 0 0.5 0.1 0.8 0.3 0.7 0.4 1.5 1.2 1.9 1.6v1.2c0 0.2 0.1 0.4 0.4 0.5h0.2c0.3 0 0.5-0.2 0.5-0.5v-12.7c0-0.5 0.4-1 0.9-1.1h0.2c0.6 0 1.1 0.5 1.1 1.1v9.5c0 0.2 0.1 0.4 0.4 0.5h0.2c0.3 0 0.6-0.2 0.6-0.5v-3.8c1.3 0.1 1.9 0.4 2.2 0.7v3.2 0.1c0 0.2 0.2 0.3 0.3 0.4h0.2c0.3 0 0.6-0.2 0.6-0.5v-2.7c0.4 0 0.9 0.1 1.3 0.3 0.3 0.1 0.6 0.4 0.9 0.7v2.9c0 0.2 0.1 0.4 0.4 0.5h0.2c0.3 0 0.6-0.2 0.6-0.5v-2.5c0.7 0.1 1.7 0.5 2.2 1.7v3.6z"/>
			<path class="st1" d="m57.4 13.8c0.2-0.2 0.2-0.6 0-0.8-0.8-0.8-1.2-1.8-1.2-2.9 0-2.2 1.8-4.1 4.1-4.1s4.1 1.8 4.1 4.1c0 1.1-0.4 2.1-1.2 2.9-0.2 0.2-0.2 0.6 0 0.8 0.1 0.1 0.2 0.2 0.4 0.2s0.3-0.1 0.4-0.2c1-1 1.5-2.3 1.5-3.6 0-2.8-2.3-5.2-5.2-5.2-2.8 0-5.2 2.3-5.2 5.2 0 1.4 0.5 2.7 1.5 3.6 0.2 0.3 0.6 0.3 0.8 0z"/>
		<path class="st2" d="m56.6 23.9c-1.1-1.7-2.3-3.5-1.7-4 0.2-0.1 0.3-0.2 0.6-0.2 0.9 0.1 2.2 1.3 2.7 1.9v1.2c0 0.3 0.2 0.5 0.5 0.5s0.5-0.2 0.5-0.5v-12.8c0-0.6 0.5-1.1 1.1-1.1s1.1 0.5 1.1 1.1v9.5c0 0.3 0.2 0.5 0.5 0.5s0.6-0.2 0.6-0.5v-3.9c1.3 0.1 1.9 0.4 2.2 0.7v3.1c0 0.3 0.2 0.5 0.5 0.5s0.6-0.2 0.6-0.5v-2.8c0.7 0 1.7 0.2 2.2 1v2.9c0 0.3 0.2 0.5 0.5 0.5s0.6-0.2 0.6-0.5v-2.5c0.7 0.1 1.7 0.5 2.2 1.7v3.8c0 1.2-0.7 3.3-1.2 5.1-0.4 1.4-0.8 2.6-0.9 3.5h-9c-0.2-2.9-2.1-5.8-3.6-8.2z"/>
			<path class="st1" d="m17.9 11.3c0 1.1-0.9 1.9-2.1 1.9h-2.7v-6.5h2.5c1.1 0 2 0.7 2 1.9 0 0.5-0.2 1-0.6 1.3 0.6 0.3 0.9 0.8 0.9 1.4zm-3.3-3.2v1.1h1.1c0.3 0 0.6-0.2 0.6-0.6 0-0.3-0.2-0.6-0.6-0.6h-1.1zm1.8 3.1c0-0.4-0.2-0.6-0.6-0.6h-1.2v1.2h1.2c0.4 0 0.6-0.2 0.6-0.6z"/>
			<path class="st1" d="m23 12.2h-2.4l-0.3 1h-1.6l2.2-6.5h1.9l2.2 6.5h-1.6l-0.4-1zm-0.4-1.4l-0.8-2.4-0.8 2.4h1.6z"/>
			<path class="st1" d="m29.9 11.8v1.4h-3.8v-6.5h1.5v5.1h2.3z"/>
			<path class="st1" d="m30.4 10c0-1.9 1.5-3.4 3.4-3.4s3.4 1.5 3.4 3.4-1.5 3.4-3.4 3.4c-1.8 0-3.4-1.5-3.4-3.4zm5.3 0c0-1.2-0.8-1.9-1.9-1.9s-1.9 0.8-1.9 1.9 0.8 1.9 1.9 1.9 1.9-0.8 1.9-1.9z"/>
			<path class="st1" d="M42.6,8.2h-1.7v5.1h-1.5V8.2h-1.7V6.7h4.8V8.2z"/>
			<path class="st1" d="m43.1 10c0-1.9 1.5-3.4 3.4-3.4s3.4 1.5 3.4 3.4-1.5 3.4-3.4 3.4-3.4-1.5-3.4-3.4zm5.3 0c0-1.2-0.8-1.9-1.9-1.9s-1.9 0.8-1.9 1.9 0.8 1.9 1.9 1.9 1.9-0.8 1.9-1.9z"/>
</g>
</svg>
