<svg width="147" height="43" viewBox="0 0 147 43" fill="none" xmlns="http://www.w3.org/2000/svg">
<g clip-path="url(#clip0_4600_95383)">
<path d="M32.4242 0.246094C29.0323 0.246094 25.5818 1.67325 23.3805 3.9351L24.6297 6.43355L24.1017 6.85564C21.7679 2.83162 17.477 0.246094 12.9097 0.246094C5.77208 0.246094 0.00102087 6.49223 0.00102087 13.8097V29.5745C-0.00515619 29.709 0.0167504 29.8433 0.0653339 29.9688C0.113917 30.0943 0.188114 30.2084 0.283203 30.3036C0.378292 30.3989 0.492178 30.4733 0.617615 30.5221C0.743052 30.5709 0.877293 30.5931 1.01177 30.5872H6.18849C6.43948 30.5872 6.6802 30.4875 6.85768 30.31C7.03516 30.1325 7.13487 29.8918 7.13487 29.6408V13.6904C7.13487 10.062 9.33616 7.08845 13.0838 7.08845C16.593 7.08845 19.0915 9.70426 19.0915 13.5712V26.6597C19.0827 26.7893 19.1006 26.9193 19.1442 27.0416C19.1878 27.164 19.2561 27.2761 19.3449 27.3709C19.4336 27.4657 19.541 27.5412 19.6602 27.5927C19.7794 27.6443 19.908 27.6707 20.0379 27.6704H24.9856C25.1155 27.6707 25.244 27.6443 25.3633 27.5927C25.4825 27.5412 25.5898 27.4657 25.6786 27.3709C25.7674 27.2761 25.8357 27.164 25.8793 27.0416C25.9229 26.9193 25.9408 26.7893 25.932 26.6597V13.5712C25.932 9.70426 28.5497 7.08845 32.0589 7.08845C35.8065 7.08845 37.8886 10.062 37.8886 13.6904V29.6351C37.9004 29.8935 38.0127 30.1371 38.2015 30.3139C38.3903 30.4907 38.6407 30.5867 38.8993 30.5815H44.0098C44.1444 30.5877 44.2789 30.5657 44.4045 30.517C44.5302 30.4683 44.6443 30.394 44.7396 30.2987C44.8349 30.2034 44.9093 30.0893 44.958 29.9636C45.0067 29.8379 45.0286 29.7035 45.0224 29.5689V13.8097C45.0224 6.49223 39.4899 0.246094 32.4109 0.246094" fill="#2FF19E"/>
<path d="M63.067 24.5188C57.9566 24.5188 54.383 20.8884 54.383 15.7723C54.383 10.5975 57.9509 6.90846 63.067 6.90846C68.2438 6.90846 71.9328 10.5975 71.9328 15.7723C71.9328 20.8828 68.2438 24.5188 63.067 24.5188ZM78.7146 0.840245H74.0072C73.8775 0.83114 73.7473 0.848874 73.6247 0.892341C73.5021 0.935807 73.3898 1.00407 73.2948 1.09288C73.1998 1.18168 73.1241 1.28912 73.0724 1.40848C73.0208 1.52784 72.9943 1.65657 72.9946 1.78663V2.44153L74.6603 5.05923L74.2117 5.5097C71.4634 2.38853 67.5359 0.240234 63.0595 0.240234C54.612 0.240234 47.6523 7.14127 47.6523 15.7609C47.6628 19.8441 49.2894 23.7571 52.1765 26.6445C55.0635 29.5319 58.9763 31.159 63.0595 31.17C67.5699 31.17 71.5258 29.0368 74.2741 25.9156L74.6527 26.2317L73.0022 28.9763V29.5706C73.0009 29.7039 73.0262 29.8362 73.0767 29.9596C73.1271 30.083 73.2017 30.1952 73.296 30.2894C73.3903 30.3837 73.5024 30.4583 73.6258 30.5087C73.7492 30.5591 73.8815 30.5845 74.0148 30.5832H78.7146C78.849 30.5891 78.9833 30.567 79.1087 30.5182C79.2341 30.4694 79.348 30.3949 79.4431 30.2997C79.5382 30.2044 79.6124 30.0904 79.661 29.9648C79.7096 29.8393 79.7315 29.705 79.7253 29.5706V1.79231C79.7253 1.19798 79.3089 0.845923 78.7146 0.845923" fill="#2FF19E"/>
<path d="M130.224 24.5188C125.113 24.5188 121.54 20.8884 121.54 15.7723C121.54 10.5975 125.107 6.90846 130.224 6.90846C135.4 6.90846 139.089 10.5975 139.089 15.7723C139.089 20.8828 135.4 24.5188 130.224 24.5188ZM145.871 0.840245H141.171C141.042 0.83114 140.911 0.848874 140.789 0.892341C140.666 0.935807 140.554 1.00407 140.459 1.09288C140.364 1.18168 140.288 1.28912 140.237 1.40848C140.185 1.52784 140.158 1.65657 140.159 1.78663V2.44153L141.824 5.05923L141.376 5.5097C138.628 2.38853 134.7 0.240234 130.224 0.240234C121.776 0.240234 114.816 7.14127 114.816 15.7609C114.827 19.8441 116.453 23.7571 119.341 26.6445C122.228 29.5319 126.14 31.159 130.224 31.17C134.734 31.17 138.69 29.0368 141.438 25.9156L141.817 26.2317L140.151 28.9687V29.563C140.15 29.6963 140.175 29.8286 140.226 29.952C140.276 30.0754 140.351 30.1876 140.445 30.2819C140.539 30.3761 140.651 30.4507 140.775 30.5011C140.898 30.5516 141.03 30.5769 141.164 30.5756H145.864C145.998 30.5816 146.132 30.5594 146.258 30.5106C146.383 30.4618 146.497 30.3874 146.592 30.2921C146.687 30.1968 146.761 30.0828 146.81 29.9573C146.859 29.8317 146.88 29.6975 146.874 29.563V1.79231C146.874 1.19798 146.458 0.845923 145.864 0.845923" fill="#2FF19E"/>
<path d="M110.903 0.840332H106.086C105.312 0.840332 104.895 1.25674 104.895 1.67315V16.1888C104.895 20.7106 101.92 23.864 97.3395 23.864C93.1167 23.864 90.3797 20.7106 90.3797 16.1888V1.67315C90.3797 1.25674 89.7248 0.840332 89.3084 0.840332H84.1336C83.9175 0.854947 83.7141 0.947383 83.561 1.10051C83.4078 1.25364 83.3154 1.45708 83.3008 1.67315V16.1301C83.3008 23.864 89.369 30.5871 97.3395 30.5871C100.944 30.5868 104.424 29.2741 107.131 26.8943L107.398 27.1366L105.255 30.0514V31.1871C105.255 34.1606 100.794 35.8263 98.176 35.8263H96.5104C95.9161 35.8263 95.4391 36.2427 95.4391 36.7727V41.533C95.4391 42.0081 95.9161 42.4794 96.5104 42.4794H98.176C106.148 42.4794 111.978 37.8383 111.978 29.0937V1.67315C111.978 1.25674 111.562 0.840332 110.907 0.840332" fill="#2FF19E"/>
</g>
<defs>
<clipPath id="clip0_4600_95383">
<rect width="146.879" height="42.239" fill="white" transform="translate(0 0.246094)"/>
</clipPath>
</defs>
</svg>
