<?xml version="1.0" encoding="utf-8"?>
<!-- Generator: Adobe Illustrator 16.0.0, SVG Export Plug-In . SVG Version: 6.00 Build 0)  -->
<!DOCTYPE svg PUBLIC "-//W3C//DTD SVG 1.1//EN" "http://www.w3.org/Graphics/SVG/1.1/DTD/svg11.dtd">
<svg version="1.1" xmlns="http://www.w3.org/2000/svg" xmlns:xlink="http://www.w3.org/1999/xlink" x="0px" y="0px" width="990px"
	 height="300px" viewBox="0 0 990 300" enable-background="new 0 0 990 300" xml:space="preserve">
<g id="Layer_1">
	<path id="Combined-Shape" fill="#036CB5" d="M824.042,54.0391c15.6006,0,30.4434,3.5742,43.7627,9.9678
		c2.0889,0.9424,4.1914,2.0703,6.2734,3.1992l-9.1328,8.0898l-13.6914-14.1074L827.6621,81.877l-13.8926-14.8613l-43.3818,38.5605
		l27.7744,30.2832l-10.8428,9.4023l27.4023,30.2832l-10.8438,9.3984l39.1973,43.0742l23.1992-21.0674l20.1777,22.5771
		c-3.999,3.0098-8.375,6.0254-13.126,8.6543c-14.4629,8.0869-31.209,12.7803-49.0918,12.7803
		c-54.9922,0-99.6982-44.1924-99.6982-98.5459C724.3418,98.4297,769.0557,54.0391,824.042,54.0391z M805.7734,146.3926
		l23.7842-21.0674l21.3145,23.5107l-23.7891,21.0654L805.7734,146.3926z M822.7119,187.0215l23.5908-21.2539l21.502,23.5088
		l-23.7852,21.0684L822.7119,187.0215z M788.8496,106.3311l23.7773-21.0674l21.3096,23.5107l-23.7852,21.0664L788.8496,106.3311z
		 M832.4121,95.042l17.6963-15.7988l15.9863,17.4932l-17.6963,15.9854L832.4121,95.042z M864,167.457l17.6904-15.7998
		l15.9854,17.6758l-17.6973,15.8096L864,167.457z M879.5996,203.0098l17.6973-15.8027l15.9727,17.4922l-17.6904,15.9834
		L879.5996,203.0098z M886.8311,121.751l11.7949-10.5342l10.6514,11.666l-11.793,10.5303L886.8311,121.751z M871.6094,86.9541
		l11.7959-10.7188l10.6592,11.8477l-11.8047,10.5332L871.6094,86.9541z M901.8604,156.5508l11.7949-10.5332L924.5,157.6797
		L912.5176,168.21L901.8604,156.5508z M848.7773,130.4053l17.6973-15.7998l15.9785,17.4893l-17.6895,15.8027L848.7773,130.4053z"/>
	<g>
		<g id="Group-27" transform="translate(0.000000, 2.608752)">
			<g id="Clip-26">
			</g>
			<defs>
				<filter id="Adobe_OpacityMaskFilter" filterUnits="userSpaceOnUse" x="65.5" y="92.3454" width="103.9951" height="90.915">
					<feColorMatrix  type="matrix" values="1 0 0 0 0  0 1 0 0 0  0 0 1 0 0  0 0 0 1 0"/>
				</filter>
			</defs>
			<mask maskUnits="userSpaceOnUse" x="65.5" y="92.3454" width="103.9951" height="90.915" id="mask-2_2_">
				<g filter="url(#Adobe_OpacityMaskFilter)">
					<polygon id="path-1_2_" fill="#FFFFFF" points="65.5,92.3454 65.5,183.2604 169.4951,183.2604 169.4951,92.3454 					"/>
				</g>
			</mask>
			<polygon id="Fill-25" mask="url(#mask-2_2_)" fill="#036CB5" points="117.6899,119.2663 116.7925,119.2663 99.9438,183.2604 
				86.1724,183.2604 65.5,92.3454 79.7886,92.3454 94.0806,160.1832 94.9731,160.1832 111.5581,92.3454 122.918,92.3454 
				140.6548,160.1832 141.5479,160.1832 154.5649,92.3454 169.4951,92.3454 148.8174,183.2604 135.0356,183.2604 			"/>
		</g>
		<path id="Fill-28" fill="#036CB5" d="M187.6235,147.165h29.2144c-0.6338-13.46-7.145-18.8408-14.0327-18.8408
			C195.022,128.3242,189.021,134.3496,187.6235,147.165 M227.0444,171.2793v9.7471c-5.7407,3.333-13.3926,5.8994-22.585,5.8994
			c-21.4307,0-30.2344-13.3359-30.2344-33.5938c0-19.499,9.8228-33.6045,28.9629-33.6045c15.9453,0,25.7764,10.3936,25.7764,31.29
			v4.7451h-41.5967c0,15.3828,6.2485,22.1807,19.396,22.1807C213.6519,177.9434,220.0317,175.5029,227.0444,171.2793"/>
		<path id="Fill-30" fill="#036CB5" d="M258.6426,176.6436c4.084,1.7949,8.5532,2.0605,11.7485,2.0605
			c9.4399,0,16.5776-5.9072,16.5776-26.6748c0-16.2852-5.8687-21.543-14.4141-21.543c-5.1079,0-8.8066,1.415-13.9121,4.2305
			V176.6436z M258.7769,125.2305c3.8184-2.0449,10.3247-4.7471,17.2178-4.7471c15.8237,0,24.374,11.0273,24.374,31.5459
			c0,23.9805-11.4858,35.6494-29.9775,35.6494c-6.7681,0-17.2305-2.1807-24.8906-6.293V91.8906l13.2764-3.2012V125.2305z"/>
		<polygon id="Fill-32" fill="#036CB5" points="357.7979,166.5781 358.437,166.5781 385.7373,94.8975 401.5679,94.8975 
			401.5679,185.8193 387.7876,185.8193 387.7876,119.9043 386.6372,119.9043 360.6035,185.8193 352.4448,185.8193 
			326.4053,121.4453 325.2612,121.4453 325.2612,185.8193 313.7764,185.8193 313.7764,94.8975 329.2202,94.8975 		"/>
		<path id="Fill-34" fill="#036CB5" d="M457.8691,153.3281c0-17.3096-7.0127-24.6152-15.689-24.6152
			c-8.4185,0-15.6978,7.3057-15.6978,24.6152c0,17.5693,6.6431,24.6152,15.6978,24.6152S457.8691,170.8975,457.8691,153.3281
			 M413.0898,153.3281c0-22.4482,12.2524-33.6006,29.0903-33.6006c16.8481,0,29.0938,11.1523,29.0938,33.6006
			c0,21.9229-11.6104,33.5977-29.0938,33.5977C424.7002,186.9258,413.0898,175.251,413.0898,153.3281"/>
		<path id="Fill-36" fill="#036CB5" d="M481.3662,129.2236c5.7412-3.4678,17.8682-9.4961,32.5381-9.4961
			c15.3105,0,21.042,6.0283,21.042,19.2324v46.4258h-13.2607v-43.4727c0-10.1279-4.9678-11.9229-11.4834-11.9229
			c-5.0977,0-11.6133,2.3115-15.5654,4.6191v50.7764h-13.2705V129.2236L481.3662,129.2236z"/>
		<path id="Fill-38" fill="#036CB5" d="M563.0342,147.165h29.2168c-0.6279-13.46-7.1426-18.8408-14.0332-18.8408
			C570.4326,128.3242,564.4434,134.3496,563.0342,147.165 M602.4561,171.2793v9.7471c-5.7383,3.333-13.3945,5.8994-22.583,5.8994
			c-21.4238,0-30.2334-13.3359-30.2334-33.5938c0-19.499,9.8193-33.6045,28.9609-33.6045c15.9551,0,25.7842,10.3936,25.7842,31.29
			v4.7451h-41.6016c0,15.3828,6.2529,22.1807,19.3955,22.1807C589.0615,177.9434,595.4512,175.5029,602.4561,171.2793"/>
		<path id="Fill-40" fill="#036CB5" d="M657.3828,119.7275h13.6563l-23.0967,64.1064
			c-6.3887,17.6973-14.1631,26.9307-28.834,26.9307v-10.5078c8.6816,0,14.0322-6.9277,17.1016-16.4229l-24.5-64.1064h14.0381
			l16.3311,47.1875h0.7656L657.3828,119.7275z"/>
		<g>
			<path id="Sapienti-sat" fill="#B6B6B6" d="M203.3213,244.9658v-5.5371c4.7314,2.4023,9.2339,3.6084,13.5,3.6084
				c3.5532,0,6.2754-0.6514,8.1772-1.9668c1.9023-1.3066,2.855-3.0732,2.855-5.3066c0-2.2324-0.7822-3.9072-2.3472-5.0215
				c-1.561-1.1123-4.479-2.4902-8.7471-4.1221c-1.4814-0.5566-2.4277-0.9189-2.855-1.0918
				c-0.4204-0.168-1.2446-0.5156-2.4722-1.0283c-1.2241-0.5117-2.0269-0.9014-2.4058-1.1572
				c-0.3818-0.2646-1.0239-0.6523-1.9346-1.1602c-0.9077-0.5205-1.52-0.9785-1.8389-1.3789
				c-0.3135-0.4121-0.7495-0.9326-1.2993-1.5537c-0.5483-0.6191-0.9194-1.2344-1.1104-1.8613
				c-0.1885-0.6211-0.3706-1.3398-0.5376-2.1572c-0.1675-0.8184-0.2534-1.6953-0.2534-2.6396c0-3.6484,1.3433-6.5801,4.0249-8.8145
				c2.686-2.2266,6.3916-3.3428,11.1265-3.3428c4.1821,0,8.3481,0.7705,12.4858,2.3164v5.8525
				c-4.0137-1.9766-8.0283-2.9551-12.0435-2.9551c-2.8311,0-4.9443,0.5908-6.3389,1.791s-2.0928,2.7881-2.0928,4.7646
				c0,2.1035,0.6982,3.6982,2.0928,4.7949c1.3945,1.1006,3.8896,2.3125,7.4824,3.6387c6.1675,2.2744,10.416,4.333,12.7383,6.1807
				c2.3262,1.8389,3.4878,4.5928,3.4878,8.2344c0,3.8223-1.5952,6.9463-4.7861,9.3701s-7.5737,3.6367-13.1538,3.6367
				C211.9644,248.0596,207.3779,247.0244,203.3213,244.9658z M267.8198,247.085h-6.021l-0.4448-3.7324
				c-3.6372,3.0068-7.2695,4.5107-10.9038,4.5107c-3.0415,0-5.3979-0.8242-7.0659-2.4805
				c-1.6724-1.6514-2.5059-3.7373-2.5059-6.2754c0-1.332,0.2422-2.6045,0.729-3.8281c0.4868-1.2246,1.29-2.4111,2.4087-3.5693
				c1.1196-1.1602,2.8096-2.0908,5.0698-2.8018c2.2603-0.7119,4.9775-1.0635,8.1479-1.0635h3.9312v-1.7373
				c0-2.874-0.5283-4.8311-1.5854-5.8877c-1.0591-1.0518-2.833-1.5771-5.3252-1.5771c-3.0425,0-6.7837,1.2598-11.2192,3.7979
				v-5.1475c4.5645-2.1016,9.042-3.1611,13.4365-3.1611c4.2666,0,7.228,0.8848,8.8735,2.6475
				c1.6504,1.7549,2.4746,4.4189,2.4746,7.9717V247.085L267.8198,247.085z M261.2285,232.3477h-3.3623
				c-6.9316,0-10.3955,2.083-10.3955,6.2461c0,1.4639,0.4629,2.5146,1.394,3.1836c0.9316,0.667,2.0938,0.9961,3.4897,0.9961
				c1.771,0,3.4844-0.4297,5.1323-1.29c1.6479-0.8525,2.8965-1.8389,3.7417-2.9551V232.3477z M278.1201,259.9609v-41.1211
				c1.8604-1.4199,4.0547-2.5615,6.5928-3.418c2.5371-0.8516,5.0264-1.29,7.481-1.29c8.7866,0,13.1841,5.3877,13.1841,16.1611
				c0,5.5771-1.1406,9.8467-3.4243,12.8018c-2.2813,2.9639-5.5532,4.4375-9.8252,4.4375c-2.959,0-5.4312-0.751-7.4155-2.2432
				v14.6719H278.1201L278.1201,259.9609z M284.6494,221.0205v19.5078c0.8452,0.8115,1.9106,1.416,3.2002,1.8262
				c1.29,0.4072,2.4214,0.6104,3.3921,0.6104c2.3228,0,4.1528-0.9063,5.4844-2.7295c1.3311-1.8271,1.9937-5.1406,1.9937-9.9424
				c0-3.9043-0.6826-6.7656-2.0566-8.5576c-1.3735-1.8086-3.1611-2.7051-5.3589-2.7051
				C288.8145,219.0303,286.5962,219.6914,284.6494,221.0205z M320.4971,214.4629v32.6221h-6.5923v-31.0166L320.4971,214.4629z
				 M312.8896,204.9971c0-1.1582,0.4326-2.1738,1.2979-3.0586c0.8691-0.8789,1.873-1.3203,3.0098-1.3203
				c1.144,0,2.1475,0.4414,3.0156,1.3203c0.8662,0.8848,1.2988,1.9004,1.2988,3.0586s-0.4326,2.1807-1.2988,3.0635
				c-0.8682,0.8711-1.8716,1.3125-3.0156,1.3125c-1.1367,0-2.1406-0.4414-3.0098-1.3125
				C313.3223,207.1777,312.8896,206.1553,312.8896,204.9971z M345.187,243.3525c3.0449,0,6.4009-1.1162,10.0786-3.3428v4.8906
				c-3.3794,1.9766-7.1201,2.9629-11.2192,2.9629c-5.1558,0-8.9473-1.4814-11.3774-4.4434
				c-2.4307-2.9629-3.6455-7.1006-3.6455-12.4209c0-5.0654,1.2476-9.1455,3.7378-12.2246c2.4961-3.0889,6.043-4.6426,10.6489-4.6426
				c4.0605,0,7.2046,1.334,9.4497,3.9971c2.2388,2.6641,3.3555,6.5625,3.3555,11.71v2.3848h-20.6626
				c0,3.8203,0.7822,6.6338,2.3438,8.4248C339.4609,242.458,341.8911,243.3525,345.187,243.3525z M343.2197,218.4512
				c-1.9829,0-3.6543,0.7949-5.0068,2.376c-1.3501,1.5898-2.1973,3.9541-2.5347,7.0771h14.5156
				c-0.1704-3.1709-0.9077-5.5352-2.2188-7.1006C346.6675,219.2334,345.082,218.4512,343.2197,218.4512z M364.6138,247.085v-28.1846
				c5.1978-3.1777,10.5864-4.7686,16.167-4.7686c3.7612,0,6.4424,0.7783,8.0483,2.3242c1.6064,1.5459,2.4092,3.9893,2.4092,7.333
				v23.2959h-6.5913v-21.8145c0-2.3584-0.4868-3.9482-1.458-4.7588c-0.9727-0.8203-2.3872-1.2246-4.248-1.2246
				c-2.5342,0-5.1133,0.7754-7.7319,2.3184v25.4795H364.6138z M407.8145,215.6855h10.0161l-1.5854,4.377h-8.4307v16.9854
				c0,4.292,1.8179,6.4365,5.4512,6.4365c1.3945,0,2.8096-0.2979,4.2515-0.9004v4.1152c-1.9878,0.7744-4.356,1.1641-7.1025,1.1641
				c-3.1699,0-5.4937-0.9141-6.9741-2.7432c-1.478-1.8154-2.2183-4.21-2.2183-7.1777v-26.5088l6.5923-4.832V215.6855z
				 M430.7344,214.4629v32.6221h-6.5947v-31.0166L430.7344,214.4629z M423.127,204.9971c0-1.1582,0.4336-2.1738,1.2949-3.0586
				c0.8662-0.8789,1.8696-1.3203,3.0137-1.3203c1.1396,0,2.146,0.4414,3.0093,1.3203c0.8682,0.8848,1.3013,1.9004,1.3013,3.0586
				s-0.4331,2.1807-1.3013,3.0635c-0.8633,0.8711-1.8696,1.3125-3.0093,1.3125c-1.144,0-2.1475-0.4414-3.0137-1.3125
				C423.5605,207.1777,423.127,206.1553,423.127,204.9971z M475.6123,216.7119v5.1416c-3.1704-2.1426-6.3828-3.2109-9.6338-3.2109
				c-1.6484,0-3.0005,0.3213-4.0601,0.9668c-1.0547,0.6387-1.5835,1.6729-1.5835,3.0811c0,1.3379,0.5796,2.3965,1.7417,3.1895
				c1.1631,0.7959,2.9912,1.6006,5.4868,2.4102c1.3945,0.4727,2.4385,0.8398,3.1343,1.0957c0.6997,0.2637,1.6162,0.6934,2.7593,1.29
				c1.1401,0.6035,1.9976,1.1982,2.5669,1.8037c0.5708,0.6025,1.0879,1.3916,1.5542,2.3818
				c0.4648,0.9863,0.6943,2.0771,0.6943,3.2793c0,2.9629-1.1724,5.3213-3.5142,7.0811c-2.3462,1.7588-5.4863,2.6416-9.4136,2.6416
				c-4.397,0-8.0547-0.9443-10.9688-2.8379v-5.0156c3.7178,2.2266,7.1206,3.3428,10.2085,3.3428c4.645,0,6.9707-1.54,6.9707-4.6328
				c0-0.5977-0.1377-1.1602-0.4121-1.6719c-0.2749-0.5146-0.5913-0.9326-0.9497-1.2559c-0.3608-0.3213-0.9429-0.6846-1.7461-1.0986
				c-0.8037-0.3994-1.4775-0.6982-2.0278-0.8945c-0.5483-0.1914-1.4146-0.5029-2.5967-0.9307
				c-1.7344-0.6445-3.1074-1.2002-4.123-1.6748c-1.0156-0.4756-2.0264-1.085-3.0415-1.833
				c-1.0161-0.751-1.7568-1.6475-2.2183-2.6738c-0.4639-1.0264-0.6968-2.2529-0.6968-3.667c0-1.8027,0.4214-3.3428,1.2666-4.627
				c0.8447-1.2959,1.9458-2.2178,3.2954-2.7734c1.3525-0.5596,2.5889-0.9482,3.7085-1.1563c1.1216-0.2217,2.23-0.3311,3.3311-0.3311
				C468.9375,214.1318,472.3589,214.9922,475.6123,216.7119z M510.6338,247.085h-6.0205l-0.4463-3.7324
				c-3.6367,3.0068-7.2676,4.5107-10.9004,4.5107c-3.0425,0-5.3989-0.8242-7.0684-2.4805
				c-1.6714-1.6514-2.5039-3.7373-2.5039-6.2754c0-1.332,0.2422-2.6045,0.7295-3.8281c0.4854-1.2246,1.2886-2.4111,2.4087-3.5693
				c1.1226-1.1602,2.8086-2.0908,5.0693-2.8018c2.2622-0.7119,4.979-1.0635,8.144-1.0635h3.9346v-1.7373
				c0-2.874-0.5313-4.8311-1.582-5.8877c-1.0635-1.0518-2.8369-1.5771-5.3262-1.5771c-3.0449,0-6.7861,1.2598-11.2222,3.7979
				v-5.1475c4.5654-2.1016,9.0425-3.1611,13.437-3.1611c4.2705,0,7.2246,0.8848,8.874,2.6475
				c1.6475,1.7549,2.4727,4.4189,2.4727,7.9717V247.085L510.6338,247.085z M504.0469,232.3477h-3.3633
				c-6.9316,0-10.3975,2.083-10.3975,6.2461c0,1.4639,0.4653,2.5146,1.394,3.1836c0.9316,0.667,2.0903,0.9961,3.4878,0.9961
				c1.7734,0,3.4805-0.4297,5.1348-1.29c1.6475-0.8525,2.8965-1.8389,3.7441-2.9551V232.3477L504.0469,232.3477z M527.2139,215.6855
				h10.0146l-1.5889,4.377h-8.4258v16.9854c0,4.292,1.8154,6.4365,5.4453,6.4365c1.3965,0,2.8076-0.2979,4.251-0.9004v4.1152
				c-1.9873,0.7744-4.3506,1.1641-7.1055,1.1641c-3.1641,0-5.4873-0.9141-6.9668-2.7432c-1.4805-1.8154-2.2227-4.21-2.2227-7.1777
				v-26.5088l6.5986-4.832V215.6855z"/>
		</g>
	</g>
	<rect fill="none" width="990" height="300"/>
</g>
<g id="Слой_1">
</g>
</svg>
