<svg xmlns="http://www.w3.org/2000/svg" width="2500" height="945" viewBox="0 0 64.3 24.318"><path d="M33.606 6.652c-.75.239-1.475.53-2.169.873.609.35 1.249.656 1.914.913a13.95 13.95 0 0 1 3.769-.879 12.218 12.218 0 0 1-3.514-.907zM28.342 9.539c.467.329.951.635 1.452.918a13.819 13.819 0 0 1 1.644-1.107 15.776 15.776 0 0 1-1.603-.912c-.521.337-1.02.706-1.493 1.101zM33.684 4.803a17.612 17.612 0 0 1 4.188-.635C34.935 3.987 32.399 2.352 31.021 0l-1.534.84a10.21 10.21 0 0 0 4.197 3.963zM33.606 10.222c-.72.306-1.404.678-2.043 1.109.685.291 1.393.538 2.121.741a10.355 10.355 0 0 1 4.17-1.115 15.882 15.882 0 0 1-4.248-.735zM29.793 6.417c.57-.323 1.161-.615 1.77-.874a11.914 11.914 0 0 1-3.627-3.854l-1.535.841a13.618 13.618 0 0 0 3.392 3.887zM26.937 8.438c.448-.391.917-.758 1.405-1.102a15.227 15.227 0 0 1-3.397-4.007l-1.536.841a17.029 17.029 0 0 0 3.528 4.268zM.816 21.383v1.754H0v-3.91h.816v1.481h1.525v-1.481h.817v3.91h-.817v-1.754zM6.692 21.688c0-1.045-.703-1.525-1.481-1.525-.778 0-1.481.479-1.481 1.525s.703 1.525 1.481 1.525c.779 0 1.481-.48 1.481-1.525zM9.845 23.137h-.762v-1.759c0-.212-.011-.572-.496-.572-.337 0-.599.229-.599.67v1.661h-.762V20.24h.729v.425h.011c.103-.174.321-.501.871-.501.566 0 1.007.332 1.007.97v2.003zM12.372 20.239v.431h-.011c-.093-.191-.311-.507-.85-.507-.637 0-1.204.49-1.204 1.492 0 1.013.55 1.498 1.247 1.498.458 0 .648-.212.773-.436l.011.011v.349c0 .468-.196.665-.604.665-.441 0-.501-.147-.534-.294h-.828c.033.616.665.872 1.263.872 1.427 0 1.465-.833 1.465-1.334v-2.745h-.728zM16.053 22.429h1.944v.708h-2.761v-3.91h.817zM19.99 22.287c-.06.207-.278.315-.49.315-.615 0-.659-.49-.681-.708h1.988v-.136c0-1.323-.79-1.596-1.362-1.596-1.269 0-1.388 1.116-1.388 1.465 0 1.193.626 1.585 1.443 1.585.496 0 1.073-.229 1.274-.926h-.784zM24.107 21.688c0-1.045-.703-1.525-1.481-1.525-.779 0-1.481.479-1.481 1.525s.703 1.525 1.481 1.525c.778 0 1.481-.48 1.481-1.525zM27.151 23.137h-.762v-1.759c0-.212-.011-.572-.496-.572-.337 0-.599.229-.599.67v1.661h-.762V20.24h.73v.425h.011c.104-.174.321-.501.871-.501.566 0 1.007.332 1.007.97v2.003zM29.678 20.239v.431h-.011c-.093-.191-.311-.507-.85-.507-.637 0-1.204.49-1.204 1.492 0 1.013.55 1.498 1.247 1.498.458 0 .648-.212.773-.436l.011.011v.349c0 .468-.196.665-.604.665-.441 0-.501-.147-.534-.294h-.828c.033.616.665.872 1.263.872 1.427 0 1.465-.833 1.465-1.334v-2.745h-.728zM32.542 23.137h1.655c.801 0 1.013-.136 1.236-.354.207-.201.338-.495.338-.806 0-.387-.125-.768-.604-.947.163-.082.479-.24.479-.801 0-.403-.245-1.002-1.204-1.002h-1.9v3.91zM38.652 21.002c0-.713-.746-.839-1.154-.839-.594 0-1.209.125-1.296 1.013h.735c.022-.169.087-.403.468-.403.196 0 .501.016.501.337 0 .164-.147.212-.267.229l-.686.104c-.485.071-.844.359-.844.926 0 .599.447.844.882.844.517 0 .762-.24.937-.419.016.164.027.207.071.343h.822v-.115c-.093-.033-.169-.109-.169-.452v-1.568zM41.843 23.137h-.762v-1.759c0-.212-.011-.572-.496-.572-.337 0-.599.229-.599.67v1.661h-.763V20.24h.729v.425h.011c.104-.174.321-.501.871-.501.566 0 1.007.332 1.007.97v2.003zM44.098 21.361l1.023-1.122h-.936l-.959 1.1v-2.292h-.762v4.09h.762V21.43l1.007 1.707h.915zM46.935 23.137h1.655c.801 0 1.013-.136 1.236-.354.207-.201.338-.495.338-.806 0-.387-.125-.768-.604-.947.163-.082.479-.24.479-.801 0-.403-.245-1.002-1.204-1.002h-1.9v3.91zM52.293 22.287c-.06.207-.278.315-.49.315-.615 0-.659-.49-.681-.708h1.988v-.136c0-1.323-.79-1.596-1.361-1.596-1.269 0-1.389 1.116-1.389 1.465 0 1.193.626 1.585 1.443 1.585.496 0 1.073-.229 1.274-.926h-.784zM53.502 20.239h.729v.501h.011c.158-.294.333-.577.795-.577.049 0 .098.006.147.011v.773c-.065-.011-.147-.011-.218-.011-.594 0-.703.37-.703.691v1.509h-.762v-2.897zM58.136 23.137h-.762v-1.759c0-.212-.011-.572-.496-.572-.337 0-.599.229-.599.67v1.661h-.763v-4.09h.763v1.568h.011c.098-.24.425-.452.838-.452.566 0 1.007.332 1.007.97v2.004zM61.082 21.002c0-.713-.746-.839-1.154-.839-.594 0-1.209.125-1.296 1.013h.735c.022-.169.087-.403.468-.403.196 0 .501.016.501.337 0 .164-.147.212-.267.229l-.687.104c-.484.071-.844.359-.844.926 0 .599.446.844.882.844.518 0 .763-.24.937-.419.017.164.027.207.071.343h.822v-.115c-.093-.033-.169-.109-.169-.452v-1.568zM64.3 19.047h-.762v1.568h-.011a.93.93 0 0 0-.838-.452c-.637 0-1.204.49-1.204 1.492 0 .795.359 1.558 1.22 1.558.316 0 .654-.114.839-.441h.011v.365h.745v-4.09z"/><path d="M38.415 10.939v1.75c-3.167 0-5.932 1.689-7.394 4.185l-1.534-.84c1.759-3.037 5.101-5.094 8.928-5.095z" fill="#c6c7c9"/><path d="M26.402 14.344l1.535.841c2.069-3.542 5.991-5.937 10.479-5.937v-1.75c-5.149 0-9.646 2.763-12.014 6.846z" fill="#c6c7c9"/><path d="M24.944 13.545c2.66-4.556 7.701-7.637 13.471-7.637v-1.75c-6.43 0-12.048 3.449-15.006 8.546l1.535.841z" fill="#c6c7c9"/><path d="M5.908 21.688c0 .37-.109.882-.697.882s-.697-.512-.697-.882c0-.371.109-.882.697-.882s.697.511.697.882zM11.092 21.704c0-.675.316-.882.599-.882.425 0 .653.381.653.85 0 .397-.131.838-.648.838-.451 0-.604-.435-.604-.806zM18.841 21.399c.043-.381.234-.61.593-.61.245 0 .545.142.588.61h-1.181zM23.323 21.688c0 .37-.109.882-.697.882s-.697-.512-.697-.882c0-.371.109-.882.697-.882s.697.511.697.882zM28.398 21.704c0-.675.316-.882.599-.882.425 0 .653.381.653.85 0 .397-.131.838-.648.838-.451 0-.604-.435-.604-.806zM33.326 21.416h1.04c.294 0 .588.131.588.474 0 .397-.229.571-.626.571h-1.002v-1.045zM33.326 19.902h.937c.371 0 .599.098.599.419 0 .311-.256.436-.577.436h-.958v-.855zM37.906 22.097c0 .354-.343.571-.681.571-.147 0-.354-.082-.354-.348 0-.316.234-.387.518-.436.315-.049.441-.098.517-.158v.371zM47.719 21.416h1.04c.294 0 .588.131.588.474 0 .397-.229.571-.626.571h-1.002v-1.045zM47.719 19.902h.937c.37 0 .599.098.599.419 0 .311-.256.436-.577.436h-.958v-.855zM51.144 21.399c.043-.381.234-.61.593-.61.245 0 .545.142.588.61h-1.181zM60.336 22.097c0 .354-.343.571-.681.571-.147 0-.354-.082-.354-.348 0-.316.234-.387.517-.436.316-.049.441-.098.518-.158v.371zM62.269 21.71c0-.458.164-.888.648-.888.523 0 .653.468.653.931 0 .43-.19.833-.675.833-.49 0-.626-.533-.626-.876z" fill="#fff"/></svg>