<svg xmlns="http://www.w3.org/2000/svg" xmlns:xlink="http://www.w3.org/1999/xlink" width="640" height="84" xmlns:v="https://vecta.io/nano"><path d="M370.968 18.333V5.936h4.835c1.65 0 2.916.288 3.798.865s1.324 1.423 1.324 2.538c0 .573-.172 1.09-.516 1.552s-.853.816-1.524 1.06c.749.176 1.351.52 1.805 1.031s.682 1.123.682 1.833c0 1.138-.418 2.009-1.255 2.612s-2.019.905-3.546.905h-5.603zm2.12-7.139h2.738c1.985 0 2.979-.58 2.979-1.741s-.939-1.761-2.818-1.799h-2.898v3.54zm0 1.696v3.735h3.506c.886 0 1.548-.164 1.987-.493s.659-.791.659-1.387c0-1.237-.909-1.856-2.727-1.856h-3.425zm16.062 3.942c.757 0 1.417-.229 1.982-.688s.879-1.031.939-1.719h2.005c-.038.71-.282 1.387-.732 2.028s-1.053 1.153-1.805 1.535a5.21 5.21 0 0 1-2.39.573c-1.688 0-3.03-.563-4.027-1.69s-1.495-2.667-1.495-4.623v-.355c0-1.207.222-2.28.665-3.22s1.079-1.669 1.907-2.188 1.809-.779 2.939-.779c1.39 0 2.545.416 3.466 1.249s1.411 1.914 1.472 3.243h-2.005c-.061-.802-.364-1.461-.91-1.977s-1.221-.773-2.022-.773c-1.077 0-1.912.388-2.504 1.163s-.888 1.896-.888 3.363v.401c0 1.429.294 2.528.882 3.3s1.43 1.157 2.521 1.157zm12.454 1.73c-1.68 0-3.047-.552-4.102-1.655s-1.581-2.58-1.581-4.429v-.389c0-1.23.235-2.328.705-3.294s1.126-1.722 1.971-2.269a4.95 4.95 0 0 1 2.744-.819c1.611 0 2.864.531 3.758 1.592s1.341 2.582 1.341 4.56v.882h-8.398c.03 1.222.388 2.209 1.071 2.962s1.552 1.128 2.606 1.128c.748 0 1.382-.153 1.901-.458a4.77 4.77 0 0 0 1.364-1.214l1.294 1.008c-1.037 1.597-2.595 2.395-4.674 2.395zm-3.963-15.943c0-.345.104-.635.315-.869s.521-.351.934-.351.726.117.939.351.32.524.32.869-.106.633-.32.863-.527.345-.939.345-.724-.115-.934-.345-.315-.518-.315-.863zm3.701 4.829c-.855 0-1.574.312-2.154.934s-.939 1.495-1.077 2.618h6.21v-.16c-.062-1.077-.352-1.912-.871-2.503s-1.222-.889-2.108-.889zm1.225-4.806a1.27 1.27 0 0 1 .315-.875c.21-.238.521-.357.934-.357s.726.119.939.357.32.53.32.875-.106.633-.32.863-.527.345-.939.345-.724-.115-.934-.345-.315-.518-.315-.863z"/><use xlink:href="#B"/><use xlink:href="#C"/><path d="M454.665 18.333h-2.119V13.04h-5.694v5.293h-2.132V5.936h2.132v5.374h5.694V5.936h2.119v12.397z"/><use xlink:href="#D"/><use xlink:href="#C" x="38.841"/><path d="M492.463 7.654h-4.158v10.678h-2.12V7.654h-4.079V5.936h10.357v1.718zm6.118 9.178c.757 0 1.417-.229 1.982-.688s.879-1.031.939-1.719h2.005c-.038.71-.282 1.387-.732 2.028s-1.053 1.153-1.805 1.535a5.21 5.21 0 0 1-2.39.573c-1.688 0-3.03-.563-4.027-1.69s-1.495-2.667-1.495-4.623v-.355c0-1.207.222-2.28.665-3.22s1.079-1.669 1.907-2.188 1.809-.779 2.939-.779c1.39 0 2.545.416 3.466 1.249s1.411 1.914 1.472 3.243h-2.005c-.061-.802-.364-1.461-.91-1.977s-1.221-.773-2.022-.773c-1.077 0-1.912.388-2.504 1.163s-.888 1.896-.888 3.363v.401c0 1.429.294 2.528.882 3.3s1.429 1.157 2.521 1.157z"/><use xlink:href="#D" x="47.824"/><path d="M528.439 13.051h-1.546v5.282h-2.132V5.936h2.132v5.248h1.386l4.171-5.248h2.566l-4.904 5.958 5.316 6.439h-2.692l-4.297-5.282zm24.784-7.115v12.397h-2.131V7.688h-4.217l-.252 4.64c-.137 2.131-.494 3.655-1.071 4.572s-1.491 1.394-2.744 1.432h-.848v-1.868l.607-.046c.688-.076 1.181-.473 1.479-1.191s.488-2.047.572-3.987l.229-5.305h8.376z"/><use xlink:href="#E"/><path d="M577.089 18.333h-2.131v-4.491c-.933.245-1.887.367-2.864.367-1.551 0-2.733-.397-3.547-1.192s-1.228-1.925-1.243-3.391V5.924h2.12v3.77c.038 1.849.928 2.773 2.67 2.773.978 0 1.932-.122 2.864-.367V5.936h2.131v12.397zm5.706-12.397v10.667h4.537V5.936h2.119v10.667h4.525V5.936h2.132v12.397h-15.445V5.936h2.132zm21.803 12.626c-1.68 0-3.047-.552-4.102-1.655s-1.581-2.58-1.581-4.429v-.389c0-1.23.235-2.328.705-3.294s1.126-1.722 1.971-2.269a4.95 4.95 0 0 1 2.744-.819c1.611 0 2.864.531 3.758 1.592s1.341 2.582 1.341 4.56v.882h-8.398c.03 1.222.388 2.209 1.071 2.962s1.552 1.128 2.606 1.128c.748 0 1.382-.153 1.901-.458a4.77 4.77 0 0 0 1.364-1.214l1.294 1.008c-1.038 1.597-2.596 2.395-4.674 2.395zm-.263-11.114c-.855 0-1.574.312-2.154.934s-.939 1.495-1.077 2.618h6.21v-.16c-.062-1.077-.352-1.912-.871-2.503s-1.222-.889-2.108-.889z"/><use xlink:href="#B" x="197.184"/><use xlink:href="#E" x="72.664"/><path d="M56.256 57.121L39.748 52.6a23.25 23.25 0 0 0 23.236 22.727c11.552 0 21.131-8.426 22.94-19.468l-.049.177-7.373-2.021c-.956 7.723-7.537 13.703-15.519 13.703-4.747 0-8.998-2.119-11.864-5.459l5.137-5.138zm29.977-5.014v-.034c0-12.839-10.409-23.247-23.251-23.247-11.673 0-21.336 8.602-22.996 19.814l7.421 2.033c.709-7.981 7.409-14.242 15.575-14.242 4.906 0 9.28 2.262 12.146 5.793l-5.37 5.371 16.475 4.512z" fill="#030303"/><defs><path id="A" d="M50.303 2.684l-.02 11.942c-1.77.623-3.539 1.341-5.221 2.208v-7.29C26.401 16.023 12.283 32.197 8.727 52.039h13.322c.001 1.773.097 3.516.337 5.223H6.963c-2.984 0-5.402 2.42-5.402 5.403v5.937H39.67c-3.219-4.621-5.112-10.238-5.112-16.297 0-15.768 12.783-28.552 28.552-28.552s28.552 12.784 28.552 28.552c0 6.059-1.893 11.676-5.112 16.297h37.869v-5.937c0-2.983-2.419-5.403-5.405-5.403H103.59c.24-1.707.338-3.449.34-5.223h13.81C114.178 32.153 100.005 15.954 81.284 9.5v7.523c-1.813-.956-3.409-1.598-5.221-2.267V2.665a60.65 60.65 0 0 0-12.829-1.368 60.88 60.88 0 0 0-12.931 1.387"/><path id="B" d="M421.839 15.525l4.216-9.59h2.647v12.397h-2.12V9.315l-4.01 9.017h-1.467l-4.09-9.212v9.212h-2.12V5.936h2.75l4.194 9.589z"/><path id="C" d="M437.249 18.562c-1.68 0-3.047-.552-4.102-1.655s-1.581-2.58-1.581-4.429v-.389c0-1.23.235-2.328.705-3.294s1.126-1.722 1.971-2.269 1.759-.819 2.744-.819c1.611 0 2.864.531 3.758 1.592s1.341 2.582 1.341 4.56v.882h-8.398c.03 1.222.388 2.209 1.071 2.962s1.552 1.128 2.606 1.128c.748 0 1.382-.153 1.901-.458s.975-.71 1.364-1.214l1.294 1.008c-1.037 1.597-2.596 2.395-4.674 2.395zm-.263-11.114c-.855 0-1.574.312-2.154.934s-.939 1.495-1.077 2.618h6.21v-.16c-.062-1.077-.352-1.912-.871-2.503s-1.222-.889-2.108-.889z"/><path id="D" d="M467.543 5.936v12.397h-2.131v-4.824h-3.196l-2.922 4.824h-2.292l3.117-5.145c-.795-.29-1.404-.739-1.828-1.346s-.636-1.315-.636-2.125c0-1.13.424-2.041 1.271-2.732s1.982-1.041 3.403-1.048h5.214zm-7.757 3.803c0 .604.207 1.09.619 1.461s.958.56 1.639.567h3.368V7.654h-3.048c-.786 0-1.413.193-1.879.579a1.86 1.86 0 0 0-.699 1.506z"/><path id="E" d="M560.682 15.228l2.887-9.292h2.269l-4.983 14.311c-.771 2.062-1.998 3.093-3.678 3.093l-.401-.034-.79-.149v-1.719l.572.046c.718 0 1.277-.145 1.679-.436s.731-.821.991-1.592l.47-1.261-4.423-12.259h2.314l3.093 9.292z"/></defs><clipPath id="F"><use xlink:href="#A"/></clipPath><linearGradient id="G" gradientUnits="userSpaceOnUse" x1="122.782" y1="71.062" x2="2.288" y2="-2.076"><stop offset="0" stop-color="#e56625"/><stop offset="1" stop-color="#f78c20"/></linearGradient><path clip-path="url(#F)" fill="url(#G)" d="M91.341 123.098L-28.292 50.482 34.639-53.2l119.634 72.617z"/><path d="M159.943 5.808l16.343 46.141L192.54 5.808h17.216v63.62h-13.151V52.037l1.311-30.019-17.171 47.41h-9.001l-17.128-47.366 1.311 29.975v17.391h-13.108V5.808h17.124zm75.2 63.62h-13.108V5.808h13.108v63.62zm63.88 0h-13.108l-25.518-41.859v41.859h-13.109V5.808h13.109l25.562 41.946V5.808h13.064v63.62zm49.725-27.571h-25.17v17.04h29.539v10.531h-42.646V5.808h42.559v10.619h-29.452v15.162h25.17v10.268z" fill="#010101"/><path d="M363.399 60.482c-1.181 0-2.21.44-3.086 1.318-.885.881-1.323 1.909-1.323 3.088s.438 2.198 1.323 3.067c.876.871 1.905 1.303 3.086 1.303 1.173 0 2.203-.432 3.084-1.303s1.319-1.892 1.319-3.067-.438-2.207-1.319-3.088c-.879-.876-1.911-1.318-3.084-1.318zm39.207-9.11c0-4.552-1.511-8.343-4.538-11.366s-6.809-4.539-11.353-4.539-8.438 1.622-11.684 4.869-4.867 7.145-4.867 11.698c0 4.729 1.665 8.784 5.001 12.161s7.297 5.063 11.896 5.063c1.719 0 3.384-.245 5.003-.743s2.931-1.033 3.942-1.615 1.969-1.254 2.869-2.014 1.494-1.296 1.767-1.615a14.02 14.02 0 0 0 .61-.742l-4.39-4.389-1.023 1.252c-.679.815-1.841 1.648-3.481 2.508a11.22 11.22 0 0 1-5.297 1.287c-2.616 0-4.878-.834-6.782-2.508s-3.028-3.652-3.38-5.939h25.344l.363-3.368zm-25.409-2.374c.569-2.287 1.686-4.15 3.349-5.596 1.66-1.44 3.713-2.16 6.153-2.16 2.487 0 4.552.72 6.203 2.16s2.676 3.309 3.069 5.596h-18.774zm56.815-12.837h-7.788l-7.423 10.46-7.461-10.46h-7.755l11.153 15.541-12.177 16.9h7.791l8.449-11.817 8.446 11.817h7.756l-12.148-16.9zm25.99 23.232c-.656.816-1.741 1.649-3.249 2.508a9.61 9.61 0 0 1-4.835 1.289c-2.751 0-5.129-1.047-7.144-3.135s-3.02-4.646-3.02-7.675 1.002-5.579 3.02-7.671 4.393-3.135 7.144-3.135c1.716 0 3.329.438 4.835 1.317s2.485 1.58 2.938 2.098.786.951 1.007 1.303l4.393-4.388-1.421-1.553c-.947-1.076-2.508-2.162-4.687-3.251s-4.537-1.632-7.063-1.632c-4.555 0-8.51 1.683-11.863 5.05s-5.031 7.322-5.031 11.863 1.677 8.492 5.031 11.851 7.31 5.029 11.863 5.029c1.563 0 3.114-.244 4.654-.742s2.793-1.033 3.76-1.617a19.74 19.74 0 0 0 2.771-2.01c.885-.761 1.453-1.299 1.718-1.617a14.38 14.38 0 0 0 .593-.744l-4.386-4.389-1.028 1.251zm25.997-23.926a12.84 12.84 0 0 0-3.337.445c-1.102.297-2.012.627-2.736.992a14.89 14.89 0 0 0-2.03 1.22l-1.253.973-.444.428V26.909h-6.733v41.692h6.733V51.045c0-2.992.764-5.318 2.291-6.98s3.58-2.489 6.154-2.489c2.222 0 4.074.768 5.562 2.31s2.229 3.477 2.229 5.807v18.91h6.764V49.689c0-4.334-1.222-7.787-3.663-10.36-2.447-2.576-5.627-3.862-9.537-3.862zm31.765 0c-1.585 0-3.116.214-4.604.645s-2.679.919-3.576 1.469a19.09 19.09 0 0 0-2.56 1.862l-1.556 1.452-.542.68 4.389 4.388.892-1.154c.528-.727 1.488-1.449 2.888-2.162s2.954-1.07 4.671-1.07c1.978 0 3.602.582 4.869 1.748s1.895 2.605 1.895 4.322l-11.846 2.045c-2.926.484-5.229 1.629-6.917 3.434-1.681 1.805-2.523 4.037-2.523 6.7 0 2.463 1.091 4.651 3.271 6.565s4.918 2.873 8.22 2.873a13.19 13.19 0 0 0 3.331-.43c1.1-.285 2.013-.611 2.737-.975.729-.364 1.407-.771 2.029-1.223l1.254-.975.444-.428V68.6h6.769V47.646c0-3.434-1.267-6.319-3.795-8.665-2.536-2.341-5.779-3.514-9.74-3.514zm6.762 18.252c0 3.035-.771 5.373-2.32 7.014-1.556 1.638-3.705 2.457-6.455 2.457-1.76 0-3.161-.405-4.209-1.221s-1.57-1.76-1.57-2.841c0-1.164.377-2.132 1.126-2.901s1.729-1.266 2.938-1.485l10.492-1.685-.002.662h0zm29.395-18.252c-1.122 0-2.24.148-3.352.445s-2.023.627-2.74.989c-.71.364-1.393.771-2.03 1.223l-1.253.973-.426.428v-3.364h-6.769V68.6h6.769V51.045c0-2.992.764-5.318 2.291-6.98s3.58-2.493 6.158-2.493c2.196 0 4.042.77 5.525 2.311s2.226 3.477 2.226 5.809v18.91h6.769V49.689c0-4.334-1.218-7.787-3.647-10.36s-5.605-3.862-9.521-3.862zm42.195 4.061l-1.12-.991c-.729-.684-1.903-1.362-3.531-2.045s-3.346-1.024-5.15-1.024c-4.091 0-7.646 1.579-10.655 4.736-3.021 3.159-4.523 6.991-4.523 11.502s1.504 8.345 4.523 11.502c3.011 3.155 6.564 4.733 10.655 4.733a12.85 12.85 0 0 0 3.367-.446c1.098-.294 2.014-.626 2.737-.99a15.27 15.27 0 0 0 2.03-1.221c.628-.45 1.039-.772 1.237-.974l.43-.43v2.771c0 2.971-.884 5.392-2.657 7.263s-4.029 2.806-6.781 2.806c-1.229 0-2.418-.181-3.563-.545s-2.081-.771-2.81-1.222a14.28 14.28 0 0 1-2.06-1.554c-.65-.582-1.075-.988-1.271-1.219s-.34-.414-.429-.545l-4.424 4.389.56.693c.354.483.937 1.059 1.753 1.717a25.54 25.54 0 0 0 2.836 1.965c1.077.65 2.455 1.207 4.128 1.682 1.667.473 3.432.709 5.278.709 4.556 0 8.392-1.563 11.521-4.688 3.121-3.123 4.684-6.963 4.684-11.516V36.161h-6.765v3.367zm-2.722 19.37c-1.815 1.957-3.943 2.937-6.383 2.937s-4.581-.979-6.404-2.937-2.738-4.357-2.738-7.193.912-5.236 2.738-7.195 3.96-2.938 6.404-2.938c2.438 0 4.566.979 6.383 2.938s2.724 4.358 2.724 7.195-.909 5.234-2.724 7.193zm30.083-23.431c-4.538 0-8.435 1.622-11.684 4.869-3.242 3.243-4.864 7.145-4.864 11.698 0 4.729 1.665 8.784 5.001 12.161 3.33 3.377 7.296 5.063 11.893 5.063a16.91 16.91 0 0 0 5.004-.743c1.617-.494 2.93-1.033 3.943-1.615s1.97-1.254 2.869-2.014 1.492-1.296 1.769-1.615a11.34 11.34 0 0 0 .604-.742l-4.388-4.389-1.021 1.252c-.683.815-1.843 1.648-3.479 2.508-1.644.857-3.406 1.287-5.302 1.287-2.615 0-4.876-.834-6.779-2.508s-3.03-3.652-3.38-5.939h25.342l.367-3.368c0-4.552-1.515-8.343-4.543-11.366s-6.808-4.539-11.352-4.539zm-9.518 13.531c.57-2.287 1.686-4.15 3.348-5.596 1.66-1.44 3.714-2.16 6.154-2.16 2.488 0 4.554.72 6.204 2.16s2.676 3.309 3.068 5.596h-18.774z" fill="#ea7624"/></svg>