<svg width="202" height="57" viewBox="0 0 202 57" fill="none" xmlns="http://www.w3.org/2000/svg">
<path fill-rule="evenodd" clip-rule="evenodd" d="M75.3485 28.739C77.7895 28.739 79.2835 27.22 79.2835 24.785C79.2835 22.349 77.7895 20.916 75.3775 20.916H71.2405V28.739H75.3485ZM68.3965 18.452H75.8075C79.5135 18.452 82.1845 20.945 82.1845 24.785C82.1845 28.625 79.5135 31.203 75.8075 31.203H71.2405V38.682H68.3965V18.452V18.452ZM88.3305 36.79C90.6865 36.79 92.2085 34.327 92.2085 32.177V31.719H91.4915C89.3935 31.719 85.6025 31.862 85.6025 34.469C85.6025 35.645 86.5225 36.791 88.3315 36.791L88.3305 36.79ZM91.5485 29.627H92.1805V29.37C92.1805 26.991 90.8305 26.189 88.9915 26.189C86.7515 26.189 84.9415 27.593 84.9415 27.593L83.7925 25.559C83.7925 25.559 85.8895 23.839 89.2215 23.839C92.8985 23.839 94.9665 25.845 94.9665 29.513V38.683H92.3815V37.307C92.3815 36.647 92.4385 36.16 92.4385 36.16H92.3815C92.3815 36.16 91.2035 39.026 87.7285 39.026C85.2295 39.026 82.7875 37.507 82.7875 34.613C82.7875 29.828 89.1075 29.627 91.5485 29.627V29.627ZM97.4945 41.69C97.4945 41.69 98.2985 42.293 99.1895 42.293C100.309 42.293 101.257 41.49 101.803 40.172L102.521 38.51L96.4315 24.183H99.5625L103.21 33.668C103.498 34.413 103.756 35.416 103.756 35.416H103.813C103.813 35.416 104.043 34.441 104.302 33.696L107.835 24.183H110.851L104.043 41.29C103.153 43.525 101.372 44.699 99.3335 44.699C97.6955 44.699 96.5185 43.811 96.5185 43.811L97.4945 41.691V41.69ZM118.29 18.452H121.106L130.125 31.604C130.872 32.694 131.82 34.527 131.82 34.527H131.877C131.877 34.527 131.677 32.722 131.677 31.604V18.452H134.52V38.682H131.733L122.686 25.558C121.938 24.441 120.991 22.608 120.991 22.608H120.933C120.933 22.608 121.134 24.412 121.134 25.558V38.682H118.291V18.452H118.29ZM150.06 28.739C152.502 28.739 153.996 27.22 153.996 24.785C153.996 22.349 152.502 20.916 150.089 20.916H145.953V28.739H150.06ZM143.109 18.452H150.519C154.226 18.452 156.897 20.945 156.897 24.785C156.897 28.625 154.226 31.203 150.52 31.203H145.953V38.682H143.109V18.452V18.452ZM159.08 18.452H161.866V34.241C161.866 35.988 162.556 36.304 163.416 36.304C163.676 36.304 163.906 36.275 163.906 36.275V38.739C163.906 38.739 163.475 38.796 162.986 38.796C161.406 38.796 159.079 38.366 159.079 34.728V18.452H159.08ZM171.517 36.79C173.873 36.79 175.395 34.327 175.395 32.177V31.719H174.677C172.58 31.719 168.788 31.862 168.788 34.469C168.788 35.645 169.708 36.791 171.518 36.791L171.517 36.79ZM174.734 29.627H175.366V29.37C175.366 26.991 174.016 26.189 172.178 26.189C169.938 26.189 168.128 27.593 168.128 27.593L166.978 25.559C166.978 25.559 169.076 23.839 172.408 23.839C176.084 23.839 178.153 25.845 178.153 29.513V38.683H175.567V37.307C175.567 36.647 175.625 36.16 175.625 36.16H175.567C175.567 36.16 174.389 39.026 170.914 39.026C168.415 39.026 165.973 37.507 165.973 34.613C165.973 29.828 172.293 29.627 174.734 29.627V29.627ZM180.65 41.69C180.65 41.69 181.455 42.293 182.345 42.293C183.465 42.293 184.414 41.49 184.959 40.172L185.677 38.51L179.588 24.183H182.718L186.367 33.668C186.655 34.413 186.913 35.416 186.913 35.416H186.97C186.97 35.416 187.2 34.441 187.459 33.696L190.992 24.183H194.008L187.2 41.29C186.31 43.525 184.528 44.699 182.49 44.699C180.852 44.699 179.674 43.811 179.674 43.811L180.651 41.691L180.65 41.69Z" fill="black"/>
<mask id="mask0" mask-type="alpha" maskUnits="userSpaceOnUse" x="196" y="18" width="6" height="6">
<path d="M196.597 18.452H201.802V23.761H196.596L196.597 18.452Z" fill="black"/>
</mask>
<g mask="url(#mask0)">
<path fill-rule="evenodd" clip-rule="evenodd" d="M199.181 23.367C197.966 23.367 197.029 22.381 197.029 21.103C197.029 19.839 197.966 18.846 199.181 18.846C200.425 18.846 201.377 19.839 201.377 21.103C201.377 22.381 200.425 23.367 199.181 23.367ZM199.181 18.452C197.753 18.452 196.597 19.628 196.597 21.103C196.597 22.593 197.753 23.761 199.181 23.761C200.638 23.761 201.802 22.593 201.802 21.103C201.802 19.628 200.638 18.453 199.181 18.453" fill="black"/>
</g>
<path fill-rule="evenodd" clip-rule="evenodd" d="M199.266 21.056H198.773V20.106H199.266C199.549 20.106 199.732 20.274 199.732 20.571C199.732 20.874 199.549 21.056 199.266 21.056ZM199.718 21.426C199.692 21.3747 199.662 21.3252 199.63 21.278V21.265C199.873 21.204 200.123 20.962 200.123 20.571C200.123 20.099 199.799 19.789 199.333 19.789H198.394V22.417H198.773V21.352H199.279L199.805 22.417H200.225L199.718 21.427V21.426Z" fill="black"/>
<mask id="mask1" mask-type="alpha" maskUnits="userSpaceOnUse" x="0" y="0" width="8" height="57">
<path d="M0 0.5H7.57V56.7H0V0.5Z" fill="white"/>
</mask>
<g mask="url(#mask1)">
<path fill-rule="evenodd" clip-rule="evenodd" d="M2.37141 56.701C2.04955 56.7017 1.73093 56.6368 1.43503 56.5102C1.13914 56.3835 0.872194 56.1978 0.650531 55.9645C0.428869 55.7311 0.25715 55.455 0.145881 55.153C0.0346128 54.8509 -0.0138658 54.5294 0.00341143 54.208L2.83641 2.73501C2.85314 2.42458 2.93099 2.1205 3.06549 1.84022C3.19999 1.55994 3.3885 1.30897 3.6202 1.1017C3.85191 0.894426 4.12225 0.734935 4.41573 0.63237C4.7092 0.529805 5.02004 0.486183 5.33041 0.504008C5.64074 0.520632 5.94476 0.598232 6.22509 0.732375C6.50543 0.866517 6.75659 1.05457 6.96423 1.2858C7.17188 1.51703 7.33193 1.7869 7.43525 2.08C7.53858 2.3731 7.58314 2.68368 7.56641 2.99401L4.73641 54.466C4.70265 55.0704 4.43858 55.639 3.9985 56.0547C3.55843 56.4704 2.97579 56.7017 2.37041 56.701" fill="#006E00"/>
</g>
<mask id="mask2" mask-type="alpha" maskUnits="userSpaceOnUse" x="2" y="0" width="49" height="33">
<path d="M5.18658 0.5C4.79226 0.502007 4.40466 0.602375 4.05892 0.79201C3.71318 0.981644 3.42022 1.25455 3.20658 1.586C3.03825 1.84709 2.92312 2.13885 2.8678 2.44453C2.81248 2.75022 2.81805 3.06382 2.8842 3.36734C2.95035 3.67087 3.07578 3.95835 3.25328 4.2133C3.43078 4.46824 3.65688 4.68563 3.91858 4.853L47.2166 32.62C47.4782 32.7885 47.7705 32.9038 48.0767 32.9593C48.3829 33.0148 48.697 33.0094 49.0012 32.9435C49.3053 32.8776 49.5935 32.7524 49.8492 32.575C50.1049 32.3977 50.3232 32.1717 50.4916 31.91C50.6599 31.6489 50.775 31.3572 50.8304 31.0515C50.8857 30.7458 50.8801 30.4322 50.814 30.1287C50.7478 29.8251 50.6224 29.5376 50.4449 29.2827C50.2674 29.0278 50.0413 28.8104 49.7796 28.643L6.48158 0.876C6.10397 0.632739 5.66477 0.502298 5.21558 0.5H5.18558H5.18658Z" fill="white"/>
</mask>
<g mask="url(#mask2)">
<path fill-rule="evenodd" clip-rule="evenodd" d="M5.18658 0.5C4.79226 0.502007 4.40466 0.602375 4.05892 0.79201C3.71318 0.981644 3.42022 1.25455 3.20658 1.586C3.03825 1.84709 2.92312 2.13885 2.8678 2.44453C2.81248 2.75022 2.81805 3.06382 2.8842 3.36734C2.95035 3.67087 3.07578 3.95835 3.25328 4.2133C3.43078 4.46824 3.65688 4.68563 3.91858 4.853L47.2166 32.62C47.4782 32.7885 47.7705 32.9038 48.0767 32.9593C48.3829 33.0148 48.697 33.0094 49.0012 32.9435C49.3053 32.8776 49.5935 32.7524 49.8492 32.575C50.1049 32.3977 50.3232 32.1717 50.4916 31.91C50.6599 31.6489 50.775 31.3572 50.8304 31.0515C50.8857 30.7458 50.8801 30.4322 50.814 30.1287C50.7478 29.8251 50.6224 29.5376 50.4449 29.2827C50.2674 29.0278 50.0413 28.8104 49.7796 28.643L6.48158 0.876C6.10397 0.632739 5.66477 0.502298 5.21558 0.5H5.18558H5.18658Z" fill="url(#paint0_linear)"/>
</g>
<path fill-rule="evenodd" clip-rule="evenodd" d="M2.37214 56.701C1.93693 56.7015 1.51001 56.5821 1.13817 56.3559C0.766325 56.1298 0.463931 55.8056 0.26414 55.419C0.121652 55.1431 0.0350047 54.8418 0.0091637 54.5324C-0.0166773 54.223 0.0187961 53.9115 0.113551 53.6158C0.208306 53.3201 0.36048 53.046 0.561352 52.8093C0.762224 52.5725 1.00785 52.3777 1.28414 52.236L47.4131 28.531C47.9716 28.2438 48.6212 28.1896 49.2195 28.3805C49.8178 28.5713 50.3161 28.9915 50.6051 29.549C50.7477 29.8251 50.8344 30.1265 50.8602 30.4361C50.8859 30.7458 50.8503 31.0574 50.7554 31.3532C50.6604 31.6491 50.508 31.9232 50.3068 32.16C50.1057 32.3968 49.8597 32.5915 49.5831 32.733L3.45514 56.438C3.12029 56.6108 2.74895 56.701 2.37214 56.701" fill="#69D720"/>
<mask id="mask3" mask-type="alpha" maskUnits="userSpaceOnUse" x="2" y="0" width="14" height="36">
<path d="M2.83108 0.5H15.8601V35.117H2.83008L2.83108 0.5Z" fill="white"/>
</mask>
<g mask="url(#mask3)">
<path fill-rule="evenodd" clip-rule="evenodd" d="M13.4881 35.117C12.9706 35.1168 12.4674 34.9471 12.0553 34.634C11.6433 34.3209 11.345 33.8815 11.2061 33.383L2.91714 3.49499C2.77229 2.89671 2.86591 2.26553 3.17818 1.73504C3.49045 1.20456 3.99687 0.816382 4.59028 0.652666C5.18368 0.488951 5.8175 0.562541 6.35761 0.857865C6.89771 1.15319 7.30172 1.64707 7.48414 2.23499L15.7741 32.122C15.8716 32.4737 15.8862 32.8432 15.817 33.2015C15.7477 33.5598 15.5965 33.8972 15.3751 34.1873C15.1537 34.4774 14.8681 34.7123 14.5407 34.8736C14.2133 35.0349 13.8531 35.1182 13.4881 35.117" fill="#69D720"/>
</g>
<path fill-rule="evenodd" clip-rule="evenodd" d="M2.36778 56.701C1.96269 56.7008 1.56443 56.5966 1.21115 56.3984C0.857877 56.2001 0.561411 55.9145 0.350152 55.5689C0.138893 55.2233 0.0199165 54.8292 0.00461783 54.4244C-0.0106808 54.0196 0.0782109 53.6176 0.262779 53.257L11.3828 31.672C11.6709 31.1141 12.1686 30.6932 12.7665 30.5017C13.3645 30.3101 14.0141 30.3634 14.5728 30.65C14.8493 30.7914 15.0952 30.986 15.2964 31.2227C15.4977 31.4593 15.6502 31.7333 15.7453 32.029C15.8404 32.3247 15.8763 32.6362 15.8508 32.9458C15.8253 33.2554 15.739 33.5569 15.5968 33.833L4.47678 55.418C4.27691 55.8048 3.97436 56.129 3.60233 56.3552C3.23029 56.5813 2.80315 56.7006 2.36778 56.7" fill="#69D720"/>
<path fill-rule="evenodd" clip-rule="evenodd" d="M13.4883 35.116C12.8859 35.1161 12.3061 34.8866 11.867 34.4741C11.428 34.0616 11.1627 33.4973 11.1253 32.896C11.1068 32.5857 11.1495 32.2749 11.2512 31.9811C11.3528 31.6874 11.5114 31.4166 11.7177 31.1841C11.9241 30.9517 12.1742 30.7622 12.4538 30.6264C12.7334 30.4907 13.037 30.4114 13.3473 30.393L48.3553 28.272C49.6483 28.2 50.7853 29.186 50.8633 30.489C50.9005 31.1153 50.6874 31.7307 50.2709 32.1999C49.8544 32.6691 49.2686 32.9537 48.6423 32.991L13.6343 35.111C13.5857 35.1142 13.537 35.1158 13.4883 35.116" fill="#69D720"/>
<defs>
<linearGradient id="paint0_linear" x1="46.6883" y1="30.5691" x2="21.7646" y2="-3.9495" gradientUnits="userSpaceOnUse">
<stop stop-color="#5BBC1D"/>
<stop offset="1" stop-color="#006E00"/>
</linearGradient>
</defs>
</svg>
