<?xml version="1.0" encoding="UTF-8"?>
<svg width="80px" height="80px" viewBox="0 0 80 80" version="1.1" xmlns="http://www.w3.org/2000/svg" xmlns:xlink="http://www.w3.org/1999/xlink">
    <!-- Generator: Sketch 52.6 (67491) - http://www.bohemiancoding.com/sketch -->
    <title>Group 33</title>
    <desc>Created with Sketch.</desc>
    <g id="Page-1" stroke="none" stroke-width="1" fill="none" fill-rule="evenodd">
        <g id="Group-33">
            <g id="Group-32-Copy" fill="#FFFFFF" fill-rule="nonzero">
                <rect id="Rectangle" x="0" y="0" width="80" height="80"></rect>
            </g>
            <g id="IMG_2414-(1)-Copy" transform="translate(20.000000, 9.000000)" fill="#000000">
                <path d="M20.4795572,0 C21.0639493,0.188496333 21.3218015,0.631761486 21.1064704,1.35695631 C20.8371703,2.26412887 20.8622468,3.17727681 20.8606114,4.09802979 C20.8567954,6.23450264 20.8611565,8.37097549 20.839896,10.5074483 C20.8349897,11.0131835 21.0296054,11.3450891 21.461903,11.5841046 C21.857676,11.8030211 22.2370948,12.0512713 22.621965,12.2897436 C23.2052669,12.6504398 23.4702059,13.1893112 23.4772927,13.8585546 C23.4876504,14.8450369 23.4865602,15.8320623 23.4903761,16.8190878 C23.4909213,16.9266448 23.4903761,17.0342018 23.4903761,17.1694628 C23.9384828,17.2226981 24.3680547,17.274847 24.7981717,17.3248229 C25.095274,17.3595888 25.3940118,17.3824039 25.6894788,17.4285774 C25.8819139,17.4584543 25.9604143,17.4090216 25.9914874,17.204772 C26.1266826,16.3133527 26.2804126,15.4246495 26.4330524,14.500094 C26.8048392,14.5734283 27.1837128,14.6435033 27.5598608,14.722813 C28.6403321,14.9509642 29.7213486,15.1791154 30.8001845,15.4154148 C31.2330272,15.5104778 31.4265526,15.7348265 31.3753093,16.1780916 C31.3093471,16.7506425 31.182329,17.3161315 31.0803875,17.8843365 C31.0553109,18.0244866 31.0253281,18.1640933 30.9926196,18.3265153 C32.034931,18.6442973 33.060343,18.9566471 34.1130121,19.2776884 C34.4112048,18.3487872 34.7028557,17.4405282 35.0026838,16.5051083 C36.6610056,17.249859 38.3073343,17.9886342 40,18.7491382 C39.1337694,21.1914422 38.1350694,23.5685603 37.2034218,26 C32.3800059,23.4419907 27.1417369,22.7591668 21.8249675,22.4077053 C21.8249675,22.3821741 21.8249675,22.3566429 21.8244224,22.3305685 C22.3668386,22.2376784 22.9076194,22.1268621 23.4533065,22.0562439 C24.0191638,21.9829096 24.5899275,21.9280446 25.1596008,21.901427 C25.7194616,21.8753526 26.2815029,21.8959948 26.842454,21.8959948 C26.8451797,21.8590561 26.8484505,21.8221173 26.8511762,21.7851785 C26.4641255,21.7140171 26.0787101,21.6352506 25.690569,21.5727806 C23.4696608,21.2142574 21.2323982,21.1028979 18.9875037,21.1990473 C16.5534449,21.303345 14.1570009,21.6852266 11.7970814,22.2876543 C9.05447226,22.9878612 6.41107896,23.9651087 3.84455068,25.1520381 C3.75460226,25.1938658 3.66247327,25.2297182 3.53600034,25.2834966 C2.6921206,23.1361595 1.852602,20.9991434 1,18.8300775 C2.65995723,18.0842404 4.30519562,17.344922 5.98041682,16.5920231 C6.24044953,17.5046278 6.49612111,18.4014792 6.75833438,19.3195161 C7.13884346,19.2108727 7.49427601,19.1109208 7.84861827,19.0071663 C8.5000629,18.8170403 9.14769153,18.6138771 9.8034973,18.4389612 C10.0101061,18.3835531 10.0313666,18.2944655 9.99429698,18.1130309 C9.82148698,17.2661555 9.65903468,16.4165639 9.48840525,15.5474166 C11.1341888,15.2258321 12.7647083,14.9075068 14.4181239,14.5848359 C14.5396905,15.5615402 14.6579863,16.5170591 14.7800981,17.4964795 C15.6081687,17.3889225 16.4133434,17.2846249 17.2250598,17.179784 C17.2250598,16.1911288 17.2724871,15.2312642 17.2114312,14.2784614 C17.153101,13.3712889 17.4611062,12.7243173 18.293538,12.2359652 C18.8550342,11.9067756 19.3909087,11.5341287 19.9300541,11.1680003 C20.0036483,11.1180244 20.067975,10.9963437 20.067975,10.9072561 C20.0685201,8.47201387 20.0608882,6.03677162 20.0538013,3.60207258 C20.0521659,3.05885548 20.0587076,2.51563838 20.0379922,1.9729645 C20.0309054,1.79152999 19.9851134,1.59542862 19.9000713,1.43626601 C19.6765631,1.01744563 19.7806852,0.619267493 19.9742106,0.248793431 C20.0401728,0.122223847 20.2707678,0.0814825648 20.4261333,0.0010864342 C20.4430327,0 20.4615675,0 20.4795572,0 Z" id="Path"></path>
                <path d="M39.9396832,43.640301 C39.7073519,43.4864126 39.5174657,43.3609553 39.3280263,43.2345953 C38.4969949,42.6786115 37.6753462,42.1154071 37.0047129,41.3522833 C36.3653549,40.6243597 35.8457369,39.8395741 35.7420814,38.8490023 C35.7027638,38.4721789 35.7523576,38.0863297 35.7563787,37.7045421 C35.7626338,37.0515319 35.7653145,36.398973 35.7679953,35.7459628 C35.7693356,35.4088525 35.7800586,35.0712909 35.7644209,34.7346319 C35.7452089,34.3275723 35.5414722,34.0085134 35.2354203,33.7562448 C34.8904977,33.4719349 34.5402135,33.193943 34.1912697,32.9145973 C34.164909,32.8933868 34.1318465,32.8807508 34.0684021,32.8460019 C34.0684021,32.948895 34.0684021,33.0201981 34.0684021,33.0919525 C34.0701893,39.1084915 34.0692957,45.1250305 34.0746572,51.1415695 C34.0768912,53.4426745 34.0934224,55.7437796 34.1032518,58.0448846 C34.1054858,58.6189198 33.895494,59.0607284 33.3986624,59.3870079 C31.7794916,60.4515905 30.1755118,61.5396399 28.5639365,62.6164073 C28.3740503,62.7432185 28.1747815,62.8555886 27.9384291,63 C27.9384291,52.1077719 27.9384291,41.2620262 27.9384291,30.39507 C27.3647494,30.3183515 26.8165368,30.2452432 26.245091,30.1689759 C26.245091,33.7088598 26.245091,37.2257282 26.245091,40.759294 C25.7008995,40.8396229 25.1853027,40.7732839 24.6929389,40.6013441 C23.2958233,40.1139557 22.3924119,39.1572303 22.0711691,37.6801727 C22.0238093,37.4622018 22.0028101,37.2338513 22.0028101,37.0100137 C21.998789,33.3925087 22.0001293,29.7750037 22.0005761,26.1574987 C22.0005761,26.113724 22.005044,26.069498 22.0086184,26 C22.3352226,26.0338464 22.6497635,26.0649851 22.9634108,26.0997341 C24.6545149,26.286115 26.3331088,26.5505684 27.9991926,26.9016685 C31.0498819,27.5438479 34.006745,28.4703371 36.7531695,29.9780822 C37.7280676,30.5133068 38.6296919,31.1861736 39.5554429,31.8107528 C39.8373681,32.000744 39.9606824,32.3013002 39.961576,32.6469849 C39.967831,34.9783261 39.9731925,37.3096673 39.9812348,39.6410084 C39.9852559,40.7990072 39.9973193,41.9570059 40,43.1145533 C39.9991064,43.2743084 39.9638099,43.4345148 39.9396832,43.640301 Z" id="Path"></path>
                <path d="M17.9843692,26 C17.9901697,26.8296997 18.0004321,27.6250732 17.9999859,28.4204468 C17.9982011,31.0016846 17.9964164,33.583374 17.986154,36.1646118 C17.9781225,38.2341187 17.9571515,40.3031738 17.9428733,42.3726807 C17.93975,42.8116943 17.7920604,43.1969604 17.5109595,43.5262207 C15.9336708,45.3744141 14.0922364,46.878894 11.902326,47.9285522 C10.5548262,48.5744263 9.14352086,49.0138916 7.6737644,49.263208 C7.22846478,49.3386353 6.78316517,49.4167725 6.33608078,49.4781982 C6.15581921,49.5030396 6.11432335,49.5838867 6.11476955,49.7577759 C6.12057004,54.0630005 6.12057004,58.3677734 6.12146243,62.672998 C6.12146243,62.7628784 6.12146243,62.8527588 6.12146243,63 C5.9889434,62.9381226 5.8662406,62.9105713 5.7823565,62.8374023 C3.91415059,61.2118774 2.36541815,59.3320679 1.31597456,57.057959 C0.789914188,55.9179687 0.405296682,54.7296509 0.204064089,53.4880371 C0.137135289,53.0756714 0.147397705,52.6484009 0.144274361,52.2274536 C0.121964761,49.0143433 0.107240424,45.8012329 0.0862694004,42.5876709 C0.0710988723,40.2399414 0.0514664242,37.8926636 0.0318339761,35.5449341 C0.024248712,34.6569702 0.012201528,33.769458 0.000154343898,32.8819458 C-0.00609234414,32.4185425 0.177292569,32.0680542 0.547185739,31.7857666 C3.08155631,29.8517578 5.92379937,28.5762695 8.96682883,27.7271484 C10.654327,27.2565186 12.3703814,26.9209351 14.0962521,26.6363892 C15.3696841,26.4254639 16.6422237,26.2190552 17.9843692,26 Z M6.08487468,47.899646 C6.11878527,47.9050659 6.13529438,47.9131958 6.14734156,47.9086792 C6.39007001,47.8187988 6.62967512,47.7189819 6.87552691,47.6381348 C8.16546799,47.2149292 9.32645958,46.58396 10.2634628,45.564563 C11.1701249,44.5781372 11.7323269,43.4390503 11.7876547,42.0813599 C11.8171033,41.3537354 11.7921166,40.6234009 11.7921166,39.8944214 C11.7921166,37.4563599 11.7921166,35.01875 11.7921166,32.5806885 C11.7921166,31.9262329 11.7863161,31.2713257 11.7947937,30.6168701 C11.8005942,30.1615967 11.9857639,29.8052368 12.3610114,29.5279175 C12.8036339,29.2004639 13.2194848,28.8355225 13.6411362,28.4791626 C13.6906636,28.4376099 13.700926,28.3481812 13.7294823,28.2813354 C13.6647844,28.2610107 13.5956247,28.2140381 13.5367273,28.2248779 C12.7282274,28.3694092 11.904557,28.4610962 11.1174743,28.6860229 C9.67181219,29.0988403 8.43318319,29.8797607 7.48234803,31.0802734 C6.4967099,32.3241455 6.05765697,33.768103 6.04204025,35.3434937 C6.03267022,36.2901733 6.10584571,37.2377563 6.10807667,38.1853394 C6.11209239,40.2692993 6.09290614,42.3528076 6.08621326,44.4367676 C6.08175134,45.587146 6.08487468,46.7375244 6.08487468,47.899646 Z" id="Shape" fill-rule="nonzero"></path>
                <path d="M22.0004789,6 C22.0004789,5.69727097 21.9994013,5.2981976 22.0004789,4.89912422 C22.0037117,3.94701544 22.0155652,2.99443439 22.0074833,2.04232561 C22.0053281,1.75565397 22.1454151,1.58374544 22.4342097,1.48362289 C23.2219295,1.21064726 24.0279684,1.00190119 24.8824989,1.00001208 C25.7510381,0.998122976 26.5511502,1.2177314 27.2294945,1.69614717 C28.3733584,2.50326716 29.6944863,2.92028703 31.121757,3.11958758 C31.7386785,3.20554184 32.3582939,3.27496644 33,3.40531467 C32.587821,3.64995373 32.1815688,3.90214921 31.7629243,4.13734275 C30.5560212,4.81553134 29.2580615,5.30858767 27.8733557,5.63965327 C27.3501848,5.76480646 26.8959797,5.68357496 26.4213004,5.49891497 C25.9013622,5.29630849 25.3749585,5.08661787 24.8270029,4.96477061 C24.03174,4.78813932 23.3286112,5.0285279 22.7149225,5.48899717 C22.4697703,5.67271261 22.214381,5.84698252 22.0004789,6 Z" id="Path"></path>
            </g>
        </g>
    </g>
</svg>