<?xml version="1.0" encoding="UTF-8"?>
<svg width="235px" height="140px" viewBox="0 0 235 140" version="1.1" xmlns="http://www.w3.org/2000/svg" xmlns:xlink="http://www.w3.org/1999/xlink">
    <!-- Generator: Sketch 52.6 (67491) - http://www.bohemiancoding.com/sketch -->
    <title>Group 32</title>
    <desc>Created with Sketch.</desc>
    <g id="Page-1" stroke="none" stroke-width="1" fill="none" fill-rule="evenodd">
        <g id="Group-32">
            <rect id="Rectangle" fill="#FFFFFF" fill-rule="nonzero" x="0" y="0" width="235" height="140"></rect>
            <g id="Group-14-Copy-3" transform="translate(9.000000, 53.000000)" fill="#000000">
                <g id="IMG_2414-(1)">
                    <path d="M10.9103132,0 C11.1872252,0.0897170048 11.3094075,0.300694169 11.2073737,0.645859014 C11.0797668,1.07763826 11.0916493,1.51226156 11.0908743,1.95050457 C11.0890661,2.96738347 11.0911326,3.98426237 11.0810584,5.00114128 C11.0787336,5.24185174 11.1709515,5.39982607 11.375794,5.51358826 C11.5633296,5.61778409 11.7431157,5.73594165 11.925485,5.84944529 C12.2018803,6.02112279 12.3274206,6.27760483 12.3307787,6.59613898 C12.3356867,7.06566659 12.33517,7.53545275 12.3369782,8.00523891 C12.3372365,8.0564319 12.3369782,8.10762489 12.3369782,8.17200395 C12.5493119,8.19734189 12.7528628,8.22216274 12.9566721,8.24594938 C13.0974529,8.2624966 13.2390087,8.27335572 13.3790146,8.29533251 C13.4701992,8.30955279 13.5073963,8.2860247 13.5221202,8.18880973 C13.5861819,7.76452845 13.6590263,7.34153992 13.731354,6.90148706 C13.9075238,6.93639137 14.0870516,6.96974437 14.2652879,7.00749274 C14.7772651,7.11608393 15.2895006,7.22467511 15.8007028,7.33714456 C16.0058037,7.38239089 16.0975049,7.48917222 16.0732235,7.70014938 C16.0419675,7.97266155 15.9817805,8.24181257 15.9334759,8.51225634 C15.9215935,8.57896235 15.9073863,8.64540982 15.8918874,8.7227164 C16.3857827,8.87396841 16.8716702,9.02263492 17.3704734,9.17543823 C17.5117709,8.73331697 17.6499685,8.30102062 17.7920409,7.85579675 C18.5778303,8.21026941 19.3579368,8.56189802 20.16,8.92386865 C19.74954,10.0863115 19.2763098,11.2177282 18.8348522,12.375 C16.5492951,11.1574859 14.0671615,10.832488 11.5478308,10.6652059 C11.5478308,10.653054 11.5478308,10.6409022 11.5475724,10.6284917 C11.8045943,10.5842796 12.0608412,10.5315353 12.3194129,10.4979238 C12.5875422,10.4630195 12.8579964,10.4369059 13.1279339,10.4242369 C13.3932218,10.4118265 13.6595429,10.4216514 13.9253474,10.4216514 C13.926639,10.4040699 13.9281889,10.3864885 13.9294804,10.3689071 C13.7460779,10.335037 13.5634503,10.2975472 13.3795312,10.2678139 C12.3271623,10.0971706 11.2670441,10.0441677 10.2033094,10.0899312 C9.04994003,10.1395728 7.91439426,10.3213338 6.79615549,10.6080663 C5.4965807,10.9413378 4.24401895,11.40647 3.0278794,11.9714028 C2.98525768,11.9913111 2.94160272,12.0083755 2.88167401,12.033972 C2.48180484,11.011922 2.08400218,9.99478459 1.68,8.96239266 C2.46656435,8.6074029 3.24615423,8.25551574 4.03995136,7.89716482 C4.16316686,8.33152957 4.28431585,8.75839636 4.4085646,9.19534661 C4.58886736,9.14363653 4.75728771,9.09606324 4.92519143,9.04668011 C5.23387596,8.95618745 5.5407523,8.85948958 5.85150333,8.77623634 C5.94940412,8.7498642 5.95947834,8.70746192 5.94191303,8.62110607 C5.86002768,8.21802593 5.78305028,7.81365303 5.70219818,7.39997232 C6.48204638,7.24691045 7.2546618,7.09539989 8.03812639,6.94182093 C8.09573028,7.40669463 8.15178429,7.86148486 8.2096465,8.32765132 C8.60202457,8.27645833 8.98355349,8.22681664 9.36818216,8.17691641 C9.36818216,7.7063546 9.39065543,7.24949596 9.36172433,6.79599847 C9.33408479,6.36421923 9.48003187,6.05628565 9.87447645,5.8238488 C10.1405393,5.66716723 10.3944614,5.48980162 10.6499333,5.31553862 C10.6848056,5.29175198 10.7152866,5.23383668 10.7152866,5.19143441 C10.7155449,4.03235276 10.7119285,2.87327111 10.7085705,1.71444801 C10.7077955,1.45589756 10.7108953,1.19734712 10.7010794,0.93905522 C10.6977213,0.852699371 10.676023,0.75936266 10.6357261,0.683607379 C10.5298176,0.484264985 10.5791554,0.294747509 10.6708567,0.118416104 C10.7021126,0.0581738504 10.8113792,0.0387825669 10.8849985,0.000517100892 C10.8930062,0 10.9017889,0 10.9103132,0 Z" id="Path"></path>
                    <path d="M20.9662226,22.2082759 C20.836117,22.1224935 20.7297808,22.0525595 20.6236947,21.9821224 C20.1583172,21.672199 19.6981939,21.3582506 19.3226392,20.9328606 C18.9645987,20.5270924 18.6736127,20.0896274 18.6155656,19.5374506 C18.5935477,19.327397 18.6213202,19.1123122 18.6235721,18.8994914 C18.6270749,18.5354823 18.6285761,18.1717248 18.6300773,17.8077158 C18.630828,17.6197995 18.6368328,17.4316318 18.6280757,17.2439671 C18.617317,17.0170589 18.5032244,16.8392051 18.3318354,16.6985824 C18.1386787,16.5400989 17.9425195,16.3851372 17.747111,16.2294208 C17.732349,16.2175974 17.713834,16.2105537 17.6783052,16.1911835 C17.6783052,16.2485394 17.6783052,16.2882861 17.6783052,16.3282843 C17.679306,19.6820983 17.6788056,23.0359123 17.681808,26.3897262 C17.6830591,27.6724368 17.6923166,28.9551474 17.697821,30.237858 C17.699072,30.5578438 17.5814766,30.8041222 17.3032509,30.986001 C16.3965153,31.5794339 15.4982866,32.1859479 14.5958044,32.786173 C14.4894682,32.8568617 14.3778776,32.9195004 14.2455203,33 C14.2455203,26.9283188 14.2455203,20.8825484 14.2455203,14.8249546 C13.9242596,14.7821892 13.6172606,14.7414362 13.297251,14.6989224 C13.297251,16.6721685 13.297251,18.632585 13.297251,20.6023092 C12.9925037,20.6470871 12.7037695,20.6101076 12.4280458,20.5142628 C11.6456611,20.2425767 11.1397506,19.7092669 10.9598547,18.8859071 C10.9333332,18.764403 10.9215736,18.6371131 10.9215736,18.5123387 C10.9193218,16.4958241 10.9200724,14.4793095 10.9203226,12.4627949 C10.9203226,12.4383934 10.9228247,12.4137404 10.9248263,12.375 C11.1077247,12.3938671 11.2838676,12.4112248 11.4595101,12.430595 C12.4065283,12.5344898 13.346541,12.6819047 14.2795479,12.8776193 C15.9879338,13.2355909 17.6437772,13.752046 19.1817749,14.592512 C19.7277178,14.8908636 20.2326275,15.2659414 20.751048,15.6141021 C20.9089261,15.7200093 20.9779821,15.8875491 20.9784825,16.080245 C20.9819854,17.3798102 20.9849878,18.6793753 20.9894915,19.9789405 C20.9917433,20.6244466 20.9984988,21.2699526 21,21.9152071 C20.9994996,22.0042598 20.9797336,22.093564 20.9662226,22.2082759 Z" id="Path"></path>
                    <path d="M10.0712467,12.375 C10.074495,12.8375015 10.080242,13.2808685 10.0799921,13.7242355 C10.0789926,15.1631012 10.0779932,16.6022186 10.0722462,18.0410843 C10.0677486,19.1946945 10.0560048,20.348053 10.0480091,21.5016632 C10.04626,21.7463837 9.96355385,21.9611435 9.80613731,22.1446838 C8.92285562,23.1749268 7.89165236,24.0135727 6.66530257,24.5986862 C5.91070265,24.9587173 5.12037168,25.2036896 4.29730807,25.3426666 C4.04794028,25.3847122 3.79857249,25.4282684 3.54820524,25.4625092 C3.44725876,25.4763565 3.42402108,25.5214233 3.42427095,25.6183548 C3.42751922,28.0182266 3.42751922,30.4178467 3.42801896,32.8177185 C3.42801896,32.8678207 3.42801896,32.917923 3.42801896,33 C3.3538083,32.9655075 3.28509474,32.9501495 3.23811964,32.9093628 C2.19192433,32.0032425 1.32463416,30.9553757 0.736945753,29.6877136 C0.442351945,29.0522461 0.226966142,28.3898392 0.11427589,27.6977234 C0.0767957617,27.4678574 0.0825427146,27.2296829 0.080793642,26.9950333 C0.0683002659,25.2039413 0.0600546377,23.4128494 0.0483108642,21.6215057 C0.0398153685,20.3128052 0.0288211975,19.0043564 0.0178270266,17.6956558 C0.0135792787,17.200676 0.00683285566,16.7059479 8.64325829e-05,16.2112198 C-0.00341171272,15.9529037 0.0992838386,15.7575302 0.306424014,15.600174 C1.72567154,14.5220947 3.31732765,13.8110962 5.02142414,13.3377686 C5.96642311,13.0754242 6.9274136,12.8883591 7.89390117,12.729744 C8.60702307,12.6121674 9.31964525,12.4971085 10.0712467,12.375 Z M3.40752982,24.5825729 C3.42651975,24.5855942 3.43576485,24.590126 3.44251127,24.5876083 C3.57843921,24.5375061 3.71261807,24.4818649 3.85029507,24.4367981 C4.57266207,24.2008896 5.22281736,23.8491669 5.74753916,23.2809219 C6.25526996,22.7310562 6.57010304,22.0960922 6.60108661,21.3392715 C6.61757787,20.93367 6.60358529,20.5265579 6.60358529,20.1202011 C6.60358529,18.7611465 6.60358529,17.4023437 6.60358529,16.0432892 C6.60358529,15.6784744 6.60033701,15.3134079 6.60508449,14.9485931 C6.60833277,14.694809 6.71202779,14.4961624 6.92216638,14.3415756 C7.17003496,14.1590424 7.40291149,13.9556122 7.6390363,13.7569656 C7.66677159,13.7338028 7.67251854,13.6839523 7.68851007,13.6466904 C7.65227928,13.6353607 7.61354981,13.6091766 7.5805673,13.6152191 C7.12780735,13.6957855 6.6665519,13.7468948 6.2257856,13.8722763 C5.41621483,14.1023941 4.72258259,14.5377045 4.1901149,15.2069092 C3.63815754,15.9002838 3.3922879,16.7051926 3.38354254,17.5833664 C3.37829532,18.1110764 3.4192736,18.6392899 3.42052293,19.1675034 C3.42277174,20.3291702 3.41202744,21.4905853 3.40827942,22.6522522 C3.40578075,23.2935104 3.40752982,23.9347687 3.40752982,24.5825729 Z" id="Shape" fill-rule="nonzero"></path>
                    <path d="M11.7602194,3.3 C11.7602194,3.15014913 11.7597257,2.95260781 11.7602194,2.75506649 C11.7617006,2.28377265 11.7671317,1.81224502 11.7634287,1.34095118 C11.7624412,1.19904871 11.8266265,1.11395399 11.958947,1.06439333 C12.3198659,0.929270392 12.6891783,0.825941087 13.0807086,0.82500598 C13.4786575,0.824070873 13.8452543,0.932777043 14.1560593,1.16959285 C14.680157,1.56911725 15.2854737,1.77554208 15.9394232,1.87419585 C16.2220854,1.91674321 16.5059819,1.95110839 16.8,2.01563076 C16.6111471,2.1367271 16.4250097,2.26156386 16.2331944,2.37798466 C15.6802133,2.71368801 15.0855118,2.9577509 14.4510648,3.12162837 C14.2113574,3.1835792 14.0032489,3.1433696 13.7857595,3.05196291 C13.5475332,2.9516727 13.3063446,2.84787584 13.0552813,2.78756145 C12.6909063,2.70012896 12.3687455,2.81912131 12.0875645,3.0470536 C11.9752402,3.13799274 11.8582255,3.22425635 11.7602194,3.3 Z" id="Path"></path>
                </g>
                <g id="Group-10" transform="translate(30.000000, 12.000000)">
                    <path d="M3.13413416,7.33024271 L4.201956,7.33024271 C5.19999056,7.33024271 5.94676047,7.13474924 6.44228812,6.74375643 C6.93781577,6.35276363 7.18557587,5.78358353 7.18557587,5.03619906 C7.18557587,4.28189436 6.97794592,3.72482447 6.5626798,3.36497269 C6.14741367,3.0051209 5.49660719,2.82519771 4.61024083,2.82519771 L3.13413416,2.82519771 L3.13413416,7.33024271 Z M10.4725946,4.94459215 C10.4725946,6.57159328 9.9627952,7.81595472 8.94318105,8.67771379 C7.92356691,9.53947286 6.47366278,9.97034594 4.59342517,9.97034594 L3.21436073,9.97034594 L3.21436073,15.3476957 L0,15.3476957 L0,0.229070085 L4.8422789,0.229070085 C6.68104068,0.229070085 8.0791008,0.62374982 9.0365012,1.41312113 C9.9939016,2.20249244 10.4725946,3.37963768 10.4725946,4.94459215 Z M22.903313,15.3476957 L21.8022843,11.7456154 L16.2659794,11.7456154 L15.1649506,15.3476957 L11.6956714,15.3476957 L17.0553962,0.15271339 L20.9920933,0.15271339 L26.3725923,15.3476957 L22.903313,15.3476957 Z M21.0216315,9.08644669 C19.9991856,5.81519533 19.4236337,3.96520249 19.2949586,3.53641267 C19.1662834,3.10762286 19.0741255,2.76874566 19.0184822,2.51977093 C18.7889536,3.40501443 18.1316768,5.59388446 17.0466321,9.08644669 L21.0216315,9.08644669 Z M33.3288413,6.4543865 L36.5031705,0.229070085 L39.9793211,0.229070085 L34.9316173,9.46363414 L34.9316173,15.3476957 L31.7260652,15.3476957 L31.7260652,9.56704471 L26.6783615,0.229070085 L30.1753274,0.229070085 L33.3288413,6.4543865 Z M48.5377282,15.3476957 L44.888061,3.48650309 L44.7947456,3.48650309 C44.926079,5.8994285 44.9917447,7.5091703 44.9917447,8.31577679 L44.9917447,15.3476957 L42.1197054,15.3476957 L42.1197054,0.229070085 L46.4951588,0.229070085 L50.0826158,11.790372 L50.144826,11.790372 L53.9500189,0.229070085 L58.3254722,0.229070085 L58.3254722,15.3476957 L55.3290125,15.3476957 L55.3290125,8.1916841 C55.3290125,7.85387455 55.3341966,7.46436529 55.344565,7.02314464 C55.3549335,6.581924 55.4015907,5.40994924 55.4845381,3.50718521 L55.3912227,3.50718521 L51.4823461,15.3476957 L48.5377282,15.3476957 Z M71.1677781,15.3476957 L62.4533563,15.3476957 L62.4533563,0.229070085 L71.1677781,0.229070085 L71.1677781,2.85569861 L65.6617538,2.85569861 L65.6617538,6.17517796 L70.7848403,6.17517796 L70.7848403,8.80180648 L65.6617538,8.80180648 L65.6617538,12.700385 L71.1677781,12.700385 L71.1677781,15.3476957 Z M88.1379679,15.3476957 L84.0509867,15.3476957 L77.4537277,3.91048644 L77.3603703,3.91048644 C77.4917629,5.9304497 77.5574582,7.37128926 77.5574582,8.23304833 L77.5574582,15.3476957 L74.6841237,15.3476957 L74.6841237,0.229070085 L78.7399858,0.229070085 L85.3268717,11.5525277 L85.399483,11.5525277 C85.295752,9.587717 85.2438873,8.19858221 85.2438873,7.38508164 L85.2438873,0.229070085 L88.1379679,0.229070085 L88.1379679,15.3476957 Z M98.0800364,15.3476957 L94.8603201,15.3476957 L94.8603201,2.89706283 L90.737006,2.89706283 L90.737006,0.229070085 L102.20335,0.229070085 L102.20335,2.89706283 L98.0800364,2.89706283 L98.0800364,15.3476957 Z M113.82258,11.1617942 C113.82258,12.5298204 113.331084,13.6076431 112.348077,14.3952945 C111.365071,15.1829459 109.997506,15.5767657 108.24534,15.5767657 C106.63114,15.5767657 105.203215,15.2727645 103.961523,14.6647529 L103.961523,11.6799834 C104.98247,12.1359921 105.846468,12.4572662 106.553543,12.6438152 C107.260618,12.8303642 107.907322,12.9236373 108.493677,12.9236373 C109.197303,12.9236373 109.737086,12.7889095 110.113043,12.5194498 C110.488999,12.2499901 110.676975,11.8492611 110.676975,11.317251 C110.676975,11.0201544 110.594197,10.7558805 110.428638,10.5244216 C110.263079,10.2929626 110.019918,10.0701435 109.699147,9.85595757 C109.378377,9.64177165 108.724774,9.29977023 107.738318,8.82994306 C106.813947,8.394662 106.12068,7.97666027 105.658494,7.57592532 C105.196309,7.17519038 104.827256,6.70882481 104.551324,6.17681463 C104.275393,5.64480444 104.137429,5.02298369 104.137429,4.3113337 C104.137429,2.97094441 104.590985,1.91730368 105.49811,1.15037991 C106.405235,0.383456134 107.65898,0 109.259384,0 C110.045789,0 110.795966,0.0932731137 111.509939,0.279822139 C112.223912,0.466371165 112.970641,0.728917707 113.750148,1.06746964 L112.71541,3.56514133 C111.90831,3.23349862 111.24091,3.00204311 110.713191,2.87076787 C110.185472,2.73949263 109.666383,2.673856 109.15591,2.673856 C108.54886,2.673856 108.083233,2.81549295 107.759013,3.0987711 C107.434793,3.38204925 107.272686,3.75168714 107.272686,4.20769587 C107.272686,4.49097402 107.338219,4.73797504 107.469286,4.94870635 C107.600354,5.15943766 107.809024,5.36325668 108.095303,5.56016954 C108.381582,5.7570824 109.059329,6.11117478 110.128564,6.62245729 C111.542713,7.29956116 112.511908,7.97838216 113.036178,8.65894064 C113.560448,9.33949912 113.82258,10.1737753 113.82258,11.1617942 Z M128.580513,15.3476957 L125.360796,15.3476957 L125.360796,2.89706283 L121.237482,2.89706283 L121.237482,0.229070085 L132.703827,0.229070085 L132.703827,2.89706283 L128.580513,2.89706283 L128.580513,15.3476957 Z M138.513441,6.94845923 L139.560325,6.94845923 C140.586277,6.94845923 141.343516,6.7779632 141.832064,6.43696603 C142.320612,6.09596886 142.564883,5.56012419 142.564883,4.82941597 C142.564883,4.10566687 142.315378,3.59069927 141.816361,3.28449773 C141.317344,2.97829618 140.544402,2.82519771 139.497512,2.82519771 L138.513441,2.82519771 L138.513441,6.94845923 Z M138.528756,9.54636259 L138.528756,15.3476957 L135.302865,15.3476957 L135.302865,0.229070085 L139.735864,0.229070085 C141.803219,0.229070085 143.332901,0.603067912 144.324954,1.35107479 C145.317007,2.09908166 145.813026,3.23486308 145.813026,4.75845312 C145.813026,5.64778849 145.566751,6.43887145 145.074193,7.13172574 C144.581635,7.82458004 143.884433,8.36748011 142.982567,8.76044225 C145.27192,12.15922 146.763447,14.3549492 147.45719,15.3476957 L143.877491,15.3476957 L140.245762,9.54636259 L138.528756,9.54636259 Z M161.981226,0.229070085 L161.981226,10.0259123 C161.981226,11.1443734 161.730296,12.1247382 161.228429,12.9670361 C160.726562,13.809334 160.001461,14.4548559 159.053104,14.9036212 C158.104748,15.3523865 156.983351,15.5767657 155.688879,15.5767657 C153.736787,15.5767657 152.220825,15.0779534 151.140944,14.0803136 C150.061064,13.0826739 149.521132,11.7174123 149.521132,9.98448798 L149.521132,0.229070085 L152.729606,0.229070085 L152.729606,9.49775269 C152.729606,10.6645424 152.964961,11.5206356 153.435678,12.066058 C153.906395,12.6114804 154.685143,12.8841876 155.771946,12.8841876 C156.824137,12.8841876 157.58731,12.6097545 158.061488,12.06088 C158.535667,11.5120055 158.772752,10.6507343 158.772752,9.47704055 L158.772752,0.229070085 L161.981226,0.229070085 Z M174.976417,11.1617942 C174.976417,12.5298204 174.484921,13.6076431 173.501915,14.3952945 C172.518908,15.1829459 171.151343,15.5767657 169.399177,15.5767657 C167.784977,15.5767657 166.357053,15.2727645 165.11536,14.6647529 L165.11536,11.6799834 C166.136307,12.1359921 167.000305,12.4572662 167.70738,12.6438152 C168.414455,12.8303642 169.06116,12.9236373 169.647514,12.9236373 C170.35114,12.9236373 170.890923,12.7889095 171.26688,12.5194498 C171.642837,12.2499901 171.830812,11.8492611 171.830812,11.317251 C171.830812,11.0201544 171.748034,10.7558805 171.582475,10.5244216 C171.416916,10.2929626 171.173755,10.0701435 170.852985,9.85595757 C170.532214,9.64177165 169.878611,9.29977023 168.892155,8.82994306 C167.967785,8.394662 167.274517,7.97666027 166.812331,7.57592532 C166.350146,7.17519038 165.981093,6.70882481 165.705161,6.17681463 C165.42923,5.64480444 165.291266,5.02298369 165.291266,4.3113337 C165.291266,2.97094441 165.744822,1.91730368 166.651947,1.15037991 C167.559072,0.383456134 168.812817,0 170.413221,0 C171.199626,0 171.949804,0.0932731137 172.663777,0.279822139 C173.37775,0.466371165 174.124478,0.728917707 174.903985,1.06746964 L173.869247,3.56514133 C173.062147,3.23349862 172.394747,3.00204311 171.867028,2.87076787 C171.339309,2.73949263 170.82022,2.673856 170.309747,2.673856 C169.702697,2.673856 169.23707,2.81549295 168.91285,3.0987711 C168.588631,3.38204925 168.426523,3.75168714 168.426523,4.20769587 C168.426523,4.49097402 168.492056,4.73797504 168.623123,4.94870635 C168.754191,5.15943766 168.962861,5.36325668 169.24914,5.56016954 C169.535419,5.7570824 170.213166,6.11117478 171.282401,6.62245729 C172.69655,7.29956116 173.665746,7.97838216 174.190016,8.65894064 C174.714286,9.33949912 174.976417,10.1737753 174.976417,11.1617942 Z M183.848293,15.3476957 L180.628577,15.3476957 L180.628577,2.89706283 L176.505263,2.89706283 L176.505263,0.229070085 L187.971607,0.229070085 L187.971607,2.89706283 L183.848293,2.89706283 L183.848293,15.3476957 Z" id="PAYMENTS-TRUST"></path>
                </g>
            </g>
        </g>
    </g>
</svg>