<svg width="275" height="172" viewBox="0 0 275 172" fill="none" xmlns="http://www.w3.org/2000/svg">
<path d="M242.1 171.8H32.2C14.2 171.8 -0.400024 157.2 -0.400024 139.2V32.3C-0.400024 14.3 14.2 -0.299988 32.2 -0.299988H242.1C260.1 -0.299988 274.7 14.3 274.7 32.3V139.2C274.7 157.2 260.1 171.8 242.1 171.8Z" fill="#2722FF"/>
<path d="M154.6 93.9C149.9 93.9 146.4 90.6 145.9 86H164.4C166.5 77.8 161.9 71.7 153.7 71.7C146.8 71.7 141.1 77.7 141.1 85C141.1 92.6 146.9 98.3 154.5 98.3C160.3 98.3 164.7 95.3 166.7 90.8L162.8 88.4C161.7 91.7 158.8 93.9 154.6 93.9ZM153.8 76C158.1 76 160.6 78.5 160.5 82.2H146.2C147 78.3 149.8 76 153.8 76Z" fill="white"/>
<path d="M183 71.7C179.6 71.7 176.8 73.3 174.8 75.4V72.4H170.3V97.5H174.8V84.3C174.8 79.9 177.8 76.1 182.7 76.1C186.8 76.1 189.3 78.7 189.3 82.5V97.5H193.8V82.1C193.8 75.4 189.6 71.7 183 71.7Z" fill="white"/>
<path d="M235.7 98.3C241.5 98.3 245.9 95.3 247.9 90.8L244 88.4C242.8 91.7 239.9 93.9 235.7 93.9C231 93.9 227.5 90.6 227 86H245.5C247.6 77.8 243 71.7 234.8 71.7C227.9 71.7 222.2 77.7 222.2 85C222.3 92.6 228.1 98.3 235.7 98.3ZM234.9 76C239.2 76 241.7 78.5 241.6 82.2H227.3C228.1 78.3 230.9 76 234.9 76Z" fill="white"/>
<path d="M208.4 76C211.3 76 213.8 76.8 216.7 79L216.8 78.6L219.2 72L215.5 70.8L214.8 73.5C213 72.5 210.8 71.8 208.4 71.8C202.3 71.8 199 74.6 199 78.8C199 83 202.7 85 208.3 86.8C212.9 88.2 214.2 89.6 214.2 90.9C214.2 93 212.1 94.2 209.2 94.2C205.4 94.2 202.2 92.3 200.5 89.4L197 92.3C199.1 95.7 203.3 98.4 208.9 98.4C215.5 98.4 218.7 94.9 218.7 90.5C218.7 87.6 216.7 85.2 209.3 82.7C205.9 81.5 203.5 80.9 203.5 78.7C203.7 77.1 204.8 76 208.4 76Z" fill="white"/>
<path d="M127.3 76C130.2 76 132.7 76.8 135.6 79L135.7 78.6L138.1 72L134.4 70.8L133.7 73.5C131.9 72.5 129.7 71.8 127.3 71.8C121.2 71.8 117.9 74.6 117.9 78.8C117.9 83 121.6 85 127.2 86.8C131.8 88.2 133.1 89.6 133.1 90.9C133.1 93 131 94.2 128.1 94.2C124.3 94.2 121.1 92.3 119.4 89.4L115.9 92.3C118 95.7 122.2 98.4 127.8 98.4C134.4 98.4 137.6 94.9 137.6 90.5C137.6 87.6 135.6 85.2 128.2 82.7C124.8 81.5 122.4 80.9 122.4 78.7C122.6 77.1 123.7 76 127.3 76Z" fill="white"/>
<path d="M28.5 77.1C29 77.3 29.3 77.7 29.3 78.4L28.7 85.1L28.5 87.4L26.4 108.8H31L32.4 93.9C32.4 93.9 32.4 94 32.5 94C32.8 94.5 33.2 94.9 33.7 95.3C35.8 97.2 38.4 98.3 41.4 98.3C48.7 98.3 54.2 92.6 54.2 85C54.2 77.4 48.7 71.7 41.4 71.7C38.2 71.7 35.4 73.1 33.3 75.2C33.3 74.9 33.2 74.8 33.1 74.5C32.9 74 32.5 73.6 32.1 73.3C31.6 72.9 31 72.7 30.2 72.6C29.9 72.6 29.6 72.5 29.3 72.5H26.9V77H28C28.2 77 28.4 77 28.5 77.1ZM41.1 76.2C45.9 76.2 49.3 79.9 49.3 85.1C49.3 90.3 45.9 94 41.1 94C36.3 94 32.9 90.3 32.9 85.1C32.9 79.9 36.4 76.2 41.1 76.2Z" fill="#BDBDFA"/>
<path d="M107.7 71.9V80.1C107.7 84.7 104.6 88.7 99.4 88.7C95.1 88.7 92.6 86 92.6 82.1V71.9H87.9V82.5C87.9 89.4 92.2 93.3 99.2 93.3C102.7 93.3 105.6 91.7 107.7 89.4C107.7 91.6 107.6 93.8 106.8 95.9C106.1 97.7 105 99.1 103.3 100.1C103.1 100.2 102.9 100.3 102.7 100.5C101.8 101 100.9 101.3 99.9 101.6C98.8 101.9 97.7 102.1 96.5 102.2C95.1 102.3 93.8 102.5 92.4 102.7C90.9 102.9 89.5 103 88 103.1H87.9L87.7 107.8C87.8 107.8 88.2 107.8 88.3 107.8C89.3 107.7 90.3 107.6 91.3 107.6C92 107.5 92.7 107.5 93.4 107.4C94.2 107.3 95 107.2 95.9 107.1C96.9 107 97.9 106.9 98.8 106.7C100.3 106.5 101.7 106.1 103.2 105.6C104.7 105 106.1 104.3 107.4 103.3C109.3 101.8 110.8 99.8 111.6 97.6C112.3 95.9 112.4 93.9 112.4 92V73.5V71.9H107.7Z" fill="#BDBDFA"/>
<path d="M83.3 93L82.8 92.9C82.3 92.7 82 92.3 82 91.6L82.6 85L82.8 82.7L83.8 72.4H79.3L79 76.2L78.9 76.1C78.6 75.6 78.2 75.2 77.8 74.8C75.7 73 73.1 71.8 70.2 71.8C63 71.8 57.6 77.5 57.6 85C57.6 92.5 63 98.2 70.2 98.2C73.3 98.2 76.1 96.9 78.2 94.8C78.2 95.1 78.3 95.2 78.4 95.5C78.6 96 78.9 96.4 79.4 96.7C79.9 97.1 80.5 97.3 81.2 97.4C81.5 97.4 81.8 97.5 82.1 97.5H84.5V93H83.3ZM70.4 93.9C65.7 93.9 62.3 90.2 62.3 85.1C62.3 80 65.7 76.3 70.4 76.3C75.1 76.3 78.5 80 78.5 85.1C78.4 90.2 75 93.9 70.4 93.9Z" fill="#BDBDFA"/>
</svg>
