<?xml version="1.0" encoding="UTF-8"?>
<!DOCTYPE svg  PUBLIC '-//W3C//DTD SVG 1.0//EN'  'http://www.w3.org/TR/2001/REC-SVG-20010904/DTD/svg10.dtd'>
<svg width="865" height="768" version="1.0" viewBox="-2.17329459 -2.17329459 86.45283618 76.78974218" xmlns="http://www.w3.org/2000/svg">
<path d="m2.0338 71.262l-0.265 1.1038h-1.3225l1.385-4.765h1.6962l1.4225 4.765h-1.3788l-0.305-1.1038h-1.2325zm1.055-0.94625l-0.21625-0.8575c-0.07125-0.26875-0.1675-0.6575-0.235-0.93875h-0.01375c-0.0725 0.28125-0.14375 0.67875-0.2125 0.94625l-0.20625 0.85h0.88375z" fill="#58595b"/>
<path d="m5.6412 71.093c0.29 0.14625 0.76625 0.29625 1.2375 0.29625 0.43875 0 0.6525-0.15 0.6525-0.39 0-0.2325-0.21375-0.365-0.75125-0.55-0.805-0.28125-1.3362-0.72875-1.3362-1.4362 0-0.84125 0.7075-1.4912 1.91-1.4912 0.5725 0 0.975 0.10625 1.2925 0.24875l-0.2675 1.0162c-0.20625-0.09125-0.56-0.225-1.0412-0.225-0.38625 0-0.6 0.14125-0.6 0.35125 0 0.24125 0.25625 0.34125 0.855 0.56625 0.85875 0.3125 1.245 0.7725 1.245 1.4362 0 0.82125-0.6425 1.5275-2.0375 1.5275-0.57 0-1.13-0.155-1.3975-0.29625l0.23875-1.0538z" fill="#58595b"/>
<path d="m10.802 72.366h-1.2812v-4.7662h1.2812v4.7662z" fill="#58595b"/>
<path d="m12.931 71.262l-0.26875 1.1038h-1.3225l1.385-4.765h1.7l1.4188 4.765h-1.3788l-0.305-1.1038h-1.2288zm1.055-0.94625l-0.22-0.8575c-0.0725-0.26875-0.16375-0.6575-0.23125-0.93875h-0.0175c-0.06875 0.28125-0.14 0.67875-0.21 0.94625l-0.205 0.85h0.88375z" fill="#58595b"/>
<path d="m21.425 72.244c-0.1875 0.085-0.6325 0.19875-1.2062 0.19875-1.7788 0-2.565-1.1175-2.565-2.3838 0-1.6812 1.2325-2.5375 2.6512-2.5375 0.55375 0 0.9975 0.10625 1.195 0.21l-0.25 1.0062c-0.20875-0.085-0.5-0.17-0.88-0.17-0.7375 0-1.3712 0.4325-1.3712 1.4088 0 0.8675 0.5125 1.4062 1.3912 1.4062 0.31 0 0.6575-0.06375 0.8575-0.14375l0.1775 1.005z" fill="#58595b"/>
<path d="m26.356 69.932c0 1.5362-0.91625 2.5112-2.3875 2.5112-1.4762 0-2.2925-1.11-2.2925-2.4325 0-1.385 0.91125-2.4888 2.3688-2.4888 1.535 0 2.3112 1.1375 2.3112 2.41m-3.33 0.0575c0 0.89125 0.38875 1.4412 1.005 1.4412 0.6125 0 0.97625-0.6 0.97625-1.4538 0-0.8225-0.3675-1.4438-0.985-1.4438-0.6075 0-0.99625 0.58125-0.99625 1.4562" fill="#58595b"/>
<path d="m31.064 70.661c-0.0125-0.5425-0.0275-1.1812-0.02-1.9225h-0.01875c-0.15125 0.62875-0.3475 1.3438-0.50125 1.8662l-0.47625 1.6612h-0.9975l-0.40375-1.6538c-0.1175-0.51625-0.2675-1.2212-0.3725-1.8738h-0.0125c-0.03125 0.6725-0.06 1.38-0.08 1.9225l-0.06875 1.705h-1.175l0.28875-4.765h1.7188l0.3175 1.28c0.12625 0.53 0.2675 1.165 0.36625 1.7462h0.03c0.1325-0.58125 0.29125-1.2525 0.43375-1.7525l0.35125-1.2738h1.6825l0.24125 4.765h-1.245l-0.05875-1.705z" fill="#58595b"/>
<path d="m37.181 70.661c-0.01125-0.5425-0.02875-1.1812-0.02125-1.9225h-0.02c-0.14875 0.62875-0.34875 1.3438-0.5025 1.8662l-0.47375 1.6612h-0.99625l-0.405-1.6538c-0.11875-0.51625-0.27-1.2212-0.37375-1.8738h-0.015c-0.025 0.6725-0.0575 1.38-0.0775 1.9225l-0.0725 1.705h-1.1725l0.29125-4.765h1.7175l0.32 1.28c0.125 0.53 0.26875 1.165 0.3675 1.7462h0.02625c0.13375-0.58125 0.2925-1.2525 0.43125-1.7525l0.35375-1.2738h1.685l0.23875 4.765h-1.245l-0.05625-1.705z" fill="#58595b"/>
<path d="m42.26 70.443h-1.7138v0.87625h1.9162v1.0462h-3.1938v-4.765h3.0938v1.04h-1.8162v0.77h1.7138v1.0325z" fill="#58595b"/>
<path d="m43.17 67.666c0.36-0.05875 0.90625-0.10125 1.5412-0.10125 0.7275 0 1.2525 0.10125 1.6112 0.36625 0.305 0.235 0.47625 0.57375 0.47625 1.04 0 0.59625-0.45 1.0188-0.8225 1.1538v0.02875c0.3175 0.13375 0.4875 0.43625 0.61 0.84625 0.14625 0.49 0.30375 1.1812 0.395 1.3662h-1.3112c-0.07-0.1425-0.18875-0.50875-0.32875-1.0938-0.12875-0.575-0.305-0.69625-0.70125-0.69625h-0.2075v1.79h-1.2625v-4.7zm1.2625 1.9975h0.335c0.47875 0 0.75625-0.23875 0.75625-0.5925 0-0.36125-0.23125-0.5575-0.65875-0.56625-0.2375 0-0.36625 0.015-0.4325 0.02875v1.13z" fill="#58595b"/>
<path d="m51.046 72.244c-0.1825 0.085-0.63 0.19875-1.2025 0.19875-1.78 0-2.5662-1.1175-2.5662-2.3838 0-1.6812 1.23-2.5375 2.6525-2.5375 0.55 0 0.99625 0.10625 1.195 0.21l-0.24875 1.0062c-0.2125-0.085-0.50125-0.17-0.88375-0.17-0.735 0-1.3725 0.4325-1.3725 1.4088 0 0.8675 0.5175 1.4062 1.3912 1.4062 0.31501 0 0.65876-0.06375 0.85876-0.14375l0.17625 1.005z" fill="#58595b"/>
<path d="m53.012 72.366h-1.28v-4.7662h1.28v4.7662z" fill="#58595b"/>
<path d="m55.141 71.262l-0.26875 1.1038h-1.3238l1.3862-4.765h1.695l1.4225 4.765h-1.3788l-0.305-1.1038h-1.2275zm1.05-0.94625l-0.21875-0.8575c-0.06875-0.26875-0.16-0.6575-0.2325-0.93875h-0.01375c-0.07 0.28125-0.14125 0.67875-0.2125 0.94625l-0.2075 0.85h0.885z" fill="#58595b"/>
<path d="m58.661 67.601h1.2775v3.6975h1.83v1.0675h-3.1075v-4.765z" fill="#58595b"/>
<path d="m63.795 67.666c0.28625-0.0525 0.91625-0.10125 1.5062-0.10125 0.6775 0 1.08 0.0425 1.4575 0.23375 0.3625 0.16875 0.6375 0.51625 0.6375 0.975 0 0.4025-0.215 0.79375-0.77625 1.0038v0.015c0.5875 0.1625 0.93375 0.59375 0.93375 1.16 0 0.44625-0.21375 0.7975-0.53 1.0362-0.36125 0.27125-0.9525 0.4325-1.9725 0.4325-0.57875 0-0.995-0.0425-1.2562-0.0825v-4.6725zm1.2625 1.765h0.25625c0.54375 0 0.80625-0.19 0.80625-0.495 0-0.2825-0.21375-0.4575-0.64625-0.4575-0.21375 0-0.33 0.01125-0.41625 0.02625v0.92625zm0 2.0375c0.0925 0.01375 0.2025 0.01375 0.37125 0.01375 0.4225 0 0.7825-0.17125 0.7825-0.58875 0-0.4025-0.3675-0.5575-0.84875-0.5575h-0.305v1.1325z" fill="#58595b"/>
<path d="m69.47 71.262l-0.26875 1.1038h-1.3238l1.3862-4.765h1.7l1.4212 4.765h-1.3825l-0.3-1.1038h-1.2325zm1.0538-0.94625l-0.21875-0.8575c-0.07125-0.26875-0.1625-0.6575-0.2325-0.93875h-0.0125c-0.0725 0.28125-0.14375 0.67875-0.21375 0.94625l-0.20625 0.85h0.88375z" fill="#58595b"/>
<path d="m72.992 72.366v-4.765h1.5062l0.755 1.4625c0.2625 0.475 0.5375 1.11 0.74625 1.6675h0.025c-0.06875-0.62875-0.1025-1.2912-0.1025-2.0075v-1.1225h1.1688v4.765h-1.3425l-0.80625-1.585c-0.2675-0.5075-0.57875-1.145-0.805-1.7238h-0.0225c0.03 0.64125 0.0425 1.365 0.0425 2.135v1.1738h-1.165z" fill="#58595b"/>
<path d="m77.976 67.601h1.2638v2.0225h0.0175c0.0975-0.1775 0.2025-0.355 0.31-0.5225l0.91125-1.5h1.5688l-1.5138 2.0288 1.5725 2.7362h-1.48l-1.005-1.9312-0.38125 0.49v1.4412h-1.2638v-4.765z" fill="#58595b"/>
<path d="m66.126 24.123v-12.232l5.16 0.055c2.17 0.01375 2.475 3.5662 2.275 8.4675-0.04625 1.1775-0.53375 2.4312-1.3525 3.71h7.49c0.81751-3.4 0.98876-7.345 0.81751-11.788-0.1725-4.2075-2.4062-11.547-6.5912-11.534l-15.188-0.0575v23.379h7.3888z" fill="#0071bc" fill-rule="evenodd"/>
<path d="m73.129 39.226c0.99875 1.39 1.5987 3.6012 1.5325 6.7588-0.035 1.6988-1.8625 5.2975-3.5862 5.2975h-5.0625v-12.056h-7.275v-0.6725 23.56h14.094c6.56 0 11.145-7.865 7.9888-22.888h-7.6912z" fill="#0071bc" fill-rule="evenodd"/>
<path d="m80.639 38.517c-0.02875-0.11125-0.0625-0.27375-0.115-0.46625h-21.83v0.46625h21.945z" fill="#0071bc" fill-rule="evenodd"/>
<path d="m80.311 37.329c-0.04875-0.1125-0.11625-0.2725-0.16125-0.46375h-21.489v0.46375h21.65z" fill="#0071bc" fill-rule="evenodd"/>
<path d="m79.925 36.149c-0.045-0.1525-0.12875-0.31-0.1575-0.47125h-21.068v0.47125h21.225z" fill="#0071bc" fill-rule="evenodd"/>
<path d="m79.562 34.963c-0.08-0.14875-0.115-0.31125-0.19375-0.455h-20.605v0.455h20.799z" fill="#0071bc" fill-rule="evenodd"/>
<path d="m79.018 33.788c-0.03625-0.1625-0.115-0.31875-0.1925-0.4675h-20.098v0.4675h20.29z" fill="#0071bc" fill-rule="evenodd"/>
<path d="m78.451 32.512c-0.115-0.16-0.19625-0.31125-0.2725-0.47125h-19.485v0.47125h19.758z" fill="#0071bc" fill-rule="evenodd"/>
<path d="m77.688 31.326c-0.11-0.16-0.2675-0.3075-0.38625-0.4675h-18.63v0.4675h19.016z" fill="#0071bc" fill-rule="evenodd"/>
<path d="m77.665 30.141c0.0825-0.115 0.15125-0.27375 0.22625-0.47h-19.176v0.47h18.95z" fill="#0071bc" fill-rule="evenodd"/>
<path d="m78.166 28.954c0.08125-0.11375 0.14875-0.26375 0.1925-0.45375h-19.674v0.45375h19.481z" fill="#0071bc" fill-rule="evenodd"/>
<path d="m78.72 27.778c0.0725-0.15625 0.115-0.315 0.15-0.46625h-20.143v0.46625h19.993z" fill="#0071bc" fill-rule="evenodd"/>
<path d="m79.122 26.594c0.06625-0.16 0.1075-0.31 0.14375-0.4675h-20.566v0.4675h20.422z" fill="#0071bc" fill-rule="evenodd"/>
<path d="m79.516 25.317c0.035-0.15875 0.0775-0.305 0.11375-0.465h-20.915v0.465h20.801z" fill="#0071bc" fill-rule="evenodd"/>
<path d="m39.861 39.326c2.0738 9.2388 5.6725 12.54 14.207 8.26v13.29c-3.6937 3.78-10.611 2.385-13.666-0.76-4.795-4.9388-6.8488-11.801-7.9862-20.79h7.445z" fill="#0071bc" fill-rule="evenodd"/>
<path d="m39.668 24.992h-7.3975c0-0.26125 0-0.555 0.05625-0.70125h7.4888c2.12-10.499 7.2975-13.495 14.254-9.08l0.11251-13.122-0.36375-0.28c-8.5125-4.05-14.026-1.195-17.749 7.5462-1.79 4.2237-3.2112 9.215-3.7988 14.936v0.70125h7.3975z" fill="#0071bc" fill-rule="evenodd"/>
<path d="m39.69 38.622c0-0.15875-0.04875-0.305-0.04875-0.46625h-7.3588c0.02875 0.1925 0.02875 0.35375 0.075 0.46625h7.3325z" fill="#0071bc" fill-rule="evenodd"/>
<path d="m39.536 37.442c-0.02875-0.16-0.02875-0.30625-0.02875-0.46625h-7.3262c0.0325 0.19375 0.0325 0.3525 0.0325 0.46625h7.3225z" fill="#0071bc" fill-rule="evenodd"/>
<path d="m39.425 36.262c0-0.15125-0.0425-0.30625-0.0425-0.46625h-7.33c0.04625 0.19375 0.04625 0.35375 0.04625 0.46625h7.3262z" fill="#0071bc" fill-rule="evenodd"/>
<path d="m39.404 35.081c0-0.145-0.03-0.30625-0.03-0.45125h-7.2975c0 0.19375 0.045 0.33875 0.045 0.45125h7.2825z" fill="#0071bc" fill-rule="evenodd"/>
<path d="m39.291 33.447h-7.2838v0.465h7.2838v-0.465z" fill="#0071bc" fill-rule="evenodd"/>
<path d="m39.304 32.173h-7.3312v0.47h7.3312v-0.47z" fill="#0071bc" fill-rule="evenodd"/>
<path d="m39.279 30.997h-7.3262v0.465h7.3262v-0.465z" fill="#0071bc" fill-rule="evenodd"/>
<path d="m39.291 30.282c0.03625-0.14625 0.03625-0.3075 0.03625-0.4675h-7.37v0.4675h7.3338z" fill="#0071bc" fill-rule="evenodd"/>
<path d="m39.328 29.102c0-0.14875 0-0.30625 0.0325-0.45375h-7.4025c0 0.1475 0 0.305-0.04125 0.45375h7.4112z" fill="#0071bc" fill-rule="evenodd"/>
<path d="m39.452 27.929c0-0.155 0.04125-0.315 0.04125-0.465h-7.4412c-0.045 0.15-0.045 0.31-0.045 0.465h7.445z" fill="#0071bc" fill-rule="evenodd"/>
<path d="m39.536 26.752c0-0.1625 0.0525-0.3075 0.0525-0.4675h-7.49c0 0.16 0 0.305-0.03625 0.4675h7.4738z" fill="#0071bc" fill-rule="evenodd"/>
<path d="m39.701 25.479c0.03125-0.15875 0.03125-0.305 0.03125-0.46375h-7.5125c0 0.15875 0 0.305-0.03375 0.46375h7.515z" fill="#0071bc" fill-rule="evenodd"/>
<path d="m3.895 39.326h7.6938l-3.75 22.788h-7.8388l3.895-22.788z" fill="#0071bc" fill-rule="evenodd"/>
<path d="m11.69 38.656h-7.6512 7.6938-0.0425z" fill="#0071bc" fill-rule="evenodd"/>
<path d="m19.974 39.326h7.3862l4.3362 22.788h-7.2288l-4.4938-22.788z" fill="#0071bc" fill-rule="evenodd"/>
<path d="m27.215 38.656h-7.2862 7.2862z" fill="#0071bc" fill-rule="evenodd"/>
<path d="m24.912 24.291h-7.3675l-1.6812-9.5238-1.6575 9.5238h-7.395l4.2325-23.585h9.71l4.1588 23.585z" fill="#0071bc" fill-rule="evenodd"/>
<path d="m27.271 38.622l-0.0825-0.46625h-23.15l-0.075 0.46625h23.308z" fill="#0071bc" fill-rule="evenodd"/>
<path d="m27.09 37.442l-0.0775-0.46625h-22.734l-0.0825 0.46625h22.894z" fill="#0071bc" fill-rule="evenodd"/>
<path d="m26.819 36.262l-0.08125-0.46625h-22.23l-0.115 0.46625h22.426z" fill="#0071bc" fill-rule="evenodd"/>
<path d="m26.72 35.081l-0.07125-0.45125h-21.848l-0.06875 0.45125h21.988z" fill="#0071bc" fill-rule="evenodd"/>
<path d="m26.451 33.912l-0.0775-0.465h-21.414l-0.08 0.465h21.571z" fill="#0071bc" fill-rule="evenodd"/>
<path d="m26.271 32.643l-0.08-0.47h-20.996l-0.06625 0.47h21.142z" fill="#0071bc" fill-rule="evenodd"/>
<path d="m26.091 31.462l-0.08125-0.465h-20.562l-0.0825 0.465h20.726z" fill="#0071bc" fill-rule="evenodd"/>
<path d="m25.908 30.282l-0.07875-0.4675h-20.175l-0.1175 0.4675h20.371z" fill="#0071bc" fill-rule="evenodd"/>
<path d="m25.634 29.102l-0.08-0.45375h-19.752l-0.08125 0.45375h19.914z" fill="#0071bc" fill-rule="evenodd"/>
<path d="m25.456 27.929l-0.08125-0.465h-19.246l-0.0825 0.465h19.41z" fill="#0071bc" fill-rule="evenodd"/>
<path d="m25.275 26.752l-0.08-0.4675h-18.831l-0.0775 0.4675h18.989z" fill="#0071bc" fill-rule="evenodd"/>
<path d="m25.178 25.479l-0.07625-0.46375h-18.451l-0.08375 0.43125h7.4825v0.0325h3.7338l-0.03625-0.0325 0.03625 0.0325h7.395l-0.02875-0.0325h-7.4025 7.4025l0.02875 0.0325z" fill="#0071bc" fill-rule="evenodd"/>
<path d="m6.5662 25.479h7.4825v-0.0325h-7.4825v0.0325z" fill="#0071bc" fill-rule="evenodd"/>
<path d="m6.5375 25.479h0.02875-0.02875z" fill="#0071bc" fill-rule="evenodd"/>
</svg>
