<svg xmlns="http://www.w3.org/2000/svg" width="567" height="128" fill="none" xmlns:v="https://vecta.io/nano"><path d="M70.5 33.75l-1.5.02v.002l1.5-.022zm-9.125-22.125l-1.047 1.074.008.008 1.04-1.081zM1.75 4V2.5H.25V4h1.5zm0 90H.25v1.5h1.5V94zm17 0v1.5h1.5V94h-1.5zm0-30.625v-1.5h-1.5v1.5h1.5zM62.375 55l-1.061-1.061-.006.006-.006.006L62.375 55zm-12-12.25l-1.147-.966-.01.012-.01.012 1.167.943zM18.75 47.5h-1.5V49h1.5v-1.5zm0-27.5v-1.5h-1.5V20h1.5zm31.5 3.75l1.161-.95-.011-.013-.011-.013-1.139.976zM72 33.73c-.064-4.816-.74-8.981-2.282-12.779-1.545-3.805-3.929-7.163-7.303-10.407l-2.079 2.163c3.126 3.005 5.242 6.023 6.603 9.374 1.364 3.358 2.001 7.131 2.062 11.69l3-.04zm-9.577-23.179c-2.684-2.618-5.606-4.652-9.274-6.019C49.496 3.171 45.182 2.5 39.75 2.5v3c5.193 0 9.129.642 12.351 1.843 3.208 1.196 5.785 2.974 8.226 5.356l2.095-2.147zM39.75 2.5h-38v3h38v-3zM.25 4v90h3V4h-3zm1.5 91.5h17v-3h-17v3zm18.5-1.5V63.375h-3V94h3zm-1.5-29.125h21v-3h-21v3zm21 0c9.531 0 17.59-2.586 23.697-8.826l-2.144-2.098c-5.393 5.51-12.584 7.924-21.553 7.924v3zm23.686-8.814C68.74 50.757 72.13 42.608 72 33.728l-3 .044c.119 8.12-2.99 15.471-7.686 20.167l2.121 2.121zM49.208 41.808C46.911 44.651 43.246 46 40.25 46v3c3.754 0 8.339-1.651 11.292-5.307l-2.334-1.885zM40.25 46h-21.5v3h21.5v-3zm-20 1.5V20h-3v27.5h3zm-1.5-26h21.5v-3h-21.5v3zm21.5 0c4.367 0 6.995 1.049 8.861 3.226l2.278-1.952C48.755 19.701 45.133 18.5 40.25 18.5v3zm8.839 3.2c1.934 2.364 2.661 5.955 2.661 9.05h3c0-3.404-.773-7.814-3.339-10.95l-2.322 1.9zm2.661 9.05c0 2.788-.827 6.02-2.522 8.034l2.295 1.932c2.305-2.737 3.228-6.754 3.228-9.966h-3zM138.297 94v1.5h1.5V94h-1.5zm-8.875-62l.971-1.143-.002-.002-.969 1.145zm-47.625 3.75l-1.032-1.089-1.042.987.94 1.084 1.134-.982zM91.547 47l-1.134.982.993 1.146 1.135-1.005L91.547 47zm29.875 2l.209 1.485 1.62-.228-.368-1.594-1.461.337zm-31.625 6.625l.622 1.365-.622-1.365zm33.625 30.125h1.5v-4.006l-2.631 3.021 1.131.985zm0 8.25h-1.5v1.5h1.5V94zm-4.25-20l1.248.832.007-.01-1.255-.822zm-14.75-8.25l-.316-1.466-.006.001.322 1.465zm17-3.5h1.5v-1.807l-1.777.333.277 1.474zM139.797 94V53.75h-3V94h3zm0-40.25c0-8.771-2.333-16.889-9.404-22.893l-1.942 2.287c6.179 5.246 8.346 12.378 8.346 20.607h3zm-9.406-22.895c-5.112-4.325-12.947-7.73-20.719-7.73v3c6.977 0 14.142 3.095 18.781 7.02l1.938-2.29zm-20.719-7.73c-12.556 0-21.539 4.556-28.907 11.536l2.063 2.178c6.882-6.52 15.149-10.714 26.843-10.714v-3zM80.663 36.732l9.75 11.25 2.267-1.965-9.75-11.25-2.267 1.965zm11.878 11.391c4.116-3.646 9.642-5.998 15.881-5.998v-3c-7.012 0-13.236 2.648-17.87 6.752l1.989 2.246zm15.881-5.998c3.656 0 6.303.825 8.129 2.092 1.81 1.255 2.924 3.016 3.409 5.12l2.923-.675c-.639-2.77-2.15-5.197-4.622-6.911-2.454-1.702-5.745-2.627-9.839-2.627v3zm12.791 5.39c-4.394.619-10.237 1.315-16.006 2.336-5.758 1.02-11.601 2.389-16.032 4.409l1.244 2.73c4.069-1.855 9.601-3.173 15.311-4.185 5.7-1.01 11.42-1.689 15.901-2.32l-.418-2.971zM89.175 54.26c-4.494 2.049-7.716 4.901-9.798 8.468-2.074 3.553-2.955 7.708-2.955 12.272h3c0-4.186.807-7.781 2.545-10.759 1.73-2.964 4.446-5.424 8.452-7.251l-1.244-2.73zM76.422 75c0 6.667 2.286 12.301 6.486 16.263 4.191 3.954 10.149 6.112 17.264 6.112v-3c-6.511 0-11.678-1.967-15.205-5.294-3.519-3.319-5.545-8.123-5.545-14.081h-3zm23.75 22.375c5.295 0 9.644-.605 13.572-2.276 3.939-1.676 7.333-4.373 10.809-8.364l-2.262-1.97c-3.274 3.759-6.317 6.125-9.722 7.574-3.416 1.454-7.317 2.037-12.397 2.037v3zm21.75-11.625V94h3v-8.25h-3zm1.5 9.75h14.875v-3h-14.875v3zm-5.498-22.332c-2.73 4.095-7.643 7.082-13.627 7.082v3c7.015 0 12.853-3.513 16.123-8.418l-2.496-1.664zm-13.627 7.082c-4.95 0-8.125-2.957-8.125-6.5h-3c0 5.707 5.075 9.5 11.125 9.5v-3zm-8.125-6.5c0-1.643.811-2.952 2.331-4.049 1.56-1.126 3.772-1.944 6.24-2.486l-.643-2.93c-2.656.583-5.319 1.515-7.353 2.983-2.074 1.497-3.575 3.625-3.575 6.482h3zm8.566-6.534l16.96-3.492-.553-2.949c-4.02.754-10.662 2.132-17.039 3.508l.632 2.933zm15.184-4.966c0 3.633.076 7.751-2.005 10.928l2.51 1.644c2.668-4.073 2.495-9.205 2.495-12.572h-3zm75.64-35.75V25h-1.053l-.358.991 1.411.509zm-17.25 47.875l-1.415.495 1.395 3.987 1.432-3.974-1.412-.508zM161.562 26.5l1.416-.495-.351-1.005h-1.065v1.5zm-17 0V25H142.4l.758 2.026 1.404-.526zm26 69.5l1.414.501.183-.515-.192-.511-1.405.526zm-6.124 10.25l.814 1.259.017-.01.016-.011-.847-1.238zm-8.626 1.625v-1.5h-1.5v1.5h1.5zm0 16.125h-1.5v1.5h1.5V124zm17.5-3.375l.895 1.204.006-.004-.901-1.2zm10.376-17.5l-1.405-.527h0l1.405.527zm28.75-76.625l1.404.527.76-2.027h-2.164v1.5zm-18.287-.509l-17.25 47.875 2.823 1.017 17.25-47.875-2.823-1.017zM179.728 73.88l-16.75-47.875-2.831.991 16.75 47.875 2.831-.991zM161.562 25h-17v3h17v-3zm-18.404 2.026l26 69.5 2.809-1.051-26-69.5-2.809 1.051zm25.991 68.474c-2.113 5.965-3.608 8.179-5.559 9.513l1.695 2.476c2.799-1.916 4.554-4.952 6.691-10.987l-2.827-1.002zm-5.526 9.492c-1.714 1.108-3.918 1.384-7.811 1.384v3c3.858 0 6.904-.224 9.44-1.866l-1.629-2.518zm-9.311 2.884V124h3v-16.125h-3zm1.5 17.625c8.142 0 13.554-.074 18.395-3.671l-1.789-2.408c-3.909 2.903-8.247 3.079-16.606 3.079v3zm18.401-3.675c5.411-4.059 8.288-11.263 10.879-18.173l-2.809-1.054c-2.659 7.09-5.282 13.386-9.87 16.827l1.8 2.4zm10.879-18.173l28.75-76.625-2.809-1.054-28.75 76.625 2.809 1.054zM212.438 25h-16.876v3h16.876v-3zm8.726 23v-1.5h-1.5V48h1.5zm0 13.125h-1.5v1.5h1.5v-1.5zm37.5 0v1.5h1.5v-1.5h-1.5zm0-13.125h1.5v-1.5h-1.5V48zm-39 0v13.125h3V48h-3zm1.5 14.625h37.5v-3h-37.5v3zm39-1.5V48h-3v13.125h3zm-1.5-14.625h-37.5v3h37.5v-3zm16.25 47.5h-1.5v1.5h1.5V94zm0-91.875v-1.5h-1.5v1.5h1.5zm17 0h1.5v-1.5h-1.5v1.5zm0 91.875v1.5h1.5V94h-1.5zm-15.5 0V2.125h-3V94h3zm-1.5-90.375h17v-3h-17v3zm15.5-1.5V94h3V2.125h-3zm1.5 90.375h-17v3h17v-3zm73.703-7.875l1.143.972.012-.015.012-.015-1.167-.942zm0-48.75l-1.152.96.005.006 1.147-.966zm-51.75 0l-1.144-.97-.006.007-.006.007 1.156.956zm0 48.75l-1.159.952.007.009.008.009 1.144-.97zm38.25-10.375l-1.19-.913-.01.013-.009.013 1.209.887zm-24.75 0l1.21-.887-.01-.013-.009-.013-1.191.913zm0-28.125l1.191.913.009-.013.01-.013-1.21-.887zm24.75 0l-1.209.887.009.013.01.013 1.19-.913zm-12.375 51.25c10.495 0 20.316-3.893 27.018-11.778l-2.286-1.943c-6.047 7.115-14.977 10.722-24.732 10.722v3zm27.042-11.808c5.977-7.405 8.708-15.367 8.708-25.317h-3c0 9.3-2.518 16.588-8.042 23.433l2.334 1.884zm8.708-25.317c0-9.411-2.46-17.898-8.727-25.341l-2.295 1.932c5.732 6.807 8.022 14.57 8.022 23.409h3zm-8.722-25.335c-6.587-7.904-16.671-11.79-27.028-11.79v3c9.643 0 18.81 3.614 24.723 10.71l2.305-1.921zm-27.028-11.79c-10.242 0-20.44 4.016-27.019 11.78l2.289 1.94c5.92-6.986 15.222-10.72 24.73-10.72v-3zm-27.031 11.794c-5.621 6.798-8.594 15.521-8.594 25.331h3c0-9.19 2.777-17.217 7.906-23.419l-2.312-1.912zm-8.594 25.331c0 9.544 2.589 18.02 8.591 25.327l2.318-1.904c-5.498-6.693-7.909-14.467-7.909-23.423h-3zm8.606 25.345c6.578 7.762 16.649 11.78 27.019 11.78v-3c-9.63 0-18.808-3.732-24.73-10.72l-2.289 1.94zm41.769-25.345c0 4.977-.979 9.714-3.565 13.087l2.381 1.825c3.163-4.127 4.184-9.64 4.184-14.913h-3zm-3.584 13.113c-2.415 3.293-6.547 5.137-11.166 5.137v3c5.382 0 10.5-2.156 13.585-6.363l-2.419-1.774zM339.742 78.5c-4.618 0-8.75-1.844-11.165-5.137l-2.419 1.774c3.085 4.207 8.203 6.363 13.584 6.363v-3zm-11.184-5.163c-2.575-3.358-3.441-8.078-3.441-13.087h-3c0 5.241.884 10.77 4.06 14.913l2.381-1.825zm-3.441-13.087c0-5.017.869-9.858 3.441-13.212l-2.381-1.825c-3.179 4.146-4.06 9.805-4.06 15.038h3zm3.46-13.238c2.4-3.273 6.517-5.012 11.165-5.012v-3c-5.351 0-10.485 2.011-13.584 6.238l2.419 1.774zM339.742 42c4.649 0 8.765 1.739 11.166 5.012l2.419-1.774c-3.1-4.227-8.233-6.238-13.585-6.238v3zm11.185 5.038c2.583 3.369 3.565 8.227 3.565 13.212h3c0-5.265-1.018-10.907-4.184-15.038l-2.381 1.825zM434.641 26.5V25h-1.5v1.5h1.5zm0 4.25l-.905 1.197 2.405 1.818V30.75h-1.5zm-42.75 4.625l-1.168-.942-.008.011 1.176.932zm0 49.75l1.171-.937-.006-.008-.006-.008-1.159.952zm40.625 6.25h1.5v-2.684l-2.287 1.407.787 1.278zm0 7h-1.5v.027l.001.027 1.499-.053zm-4.125 8.375l.9 1.2.007-.006-.907-1.194zm-18 .875l-.9 1.2.017.013.018.012.865-1.225zm-3.625-4l1.32-.711-.681-1.265-1.293.626.654 1.35zm-15.75 7.625l-.654-1.35-1.449.702.802 1.396 1.301-.748zm12.75 11.5l-.657 1.348.027.014.028.012.602-1.374zm33.25-1.375l-.732-1.309-.005.002.737 1.307zm12.5-94.875h1.5V25h-1.5v1.5zm-44.125 48.25l1.253-.824-.006-.009-.006-.009-1.241.842zm.25-29l1.241.842.006-.009.006-.009-1.253-.824zm24.25-1.25l-1.145.969.005.007.006.007 1.134-.982zm0 31.5l1.102 1.017.007-.008.007-.008L429.891 76zm3.25-49.5v4.25h3V26.5h-3zm2.404 3.053c-5.391-4.076-12.335-6.428-19.529-6.428v3c6.555 0 12.861 2.148 17.72 5.822l1.809-2.393zm-19.529-6.428c-9.745 0-19.209 3.77-25.293 11.308l2.335 1.884c5.416-6.712 13.952-10.192 22.958-10.192v-3zm-25.301 11.318c-5.502 6.943-8.199 16.168-8.199 25.807h3c0-9.111 2.552-17.636 7.55-23.943l-2.351-1.863zm-8.199 25.807c0 9.475 2.178 18.477 8.216 25.827l2.318-1.904c-5.463-6.65-7.534-14.897-7.534-23.923h-3zm8.203 25.812c5.813 7.266 15.138 11.313 24.422 11.313v-3c-8.467 0-16.892-3.703-22.079-10.187l-2.343 1.874zm24.422 11.313c6.724 0 13.008-1.551 18.161-4.722l-1.573-2.555c-4.597 2.829-10.313 4.278-16.588 4.278v3zm15.875-6v7h3v-7h-3zm.001 7.054c.056 1.572-.171 2.817-.696 3.903-.527 1.092-1.409 2.138-2.838 3.224l1.815 2.388c1.696-1.289 2.939-2.68 3.725-4.307.787-1.632 1.061-3.387.992-5.315l-2.998.107zm-3.526 7.121c-2.174 1.63-5.83 2.7-9.475 2.7v3c4.104 0 8.448-1.18 11.275-3.3l-1.8-2.4zm-9.475 2.7c-1.959 0-4.985-.597-6.76-1.85l-1.73 2.45c2.474 1.747 6.198 2.4 8.49 2.4v-3zm-6.725-1.825c-1.394-1.045-2.466-2.14-3.205-3.511l-2.641 1.422c1.012 1.879 2.439 3.284 4.046 4.489l1.8-2.4zm-5.179-4.15l-15.75 7.625 1.307 2.7 15.75-7.625-1.307-2.7zm-16.397 9.723c3.054 5.31 8.307 9.622 13.394 12.1l1.314-2.696c-4.664-2.272-9.411-6.21-12.107-10.9l-2.601 1.496zm13.449 12.126c4.182 1.829 10.136 3.126 14.727 3.126v-3c-4.159 0-9.705-1.203-13.524-2.874l-1.203 2.748zm14.727 3.126c5.975 0 12.655-.507 19.861-4.568l-1.473-2.614c-6.544 3.689-12.613 4.182-18.388 4.182v3zm19.856-4.566c4.467-2.495 7.809-5.751 10.023-9.809 2.209-4.05 3.246-8.81 3.246-14.25h-3c0 5.06-.964 9.3-2.88 12.813-1.911 3.504-4.818 6.373-8.852 8.628l1.463 2.618zm13.269-24.059V26.5h-3v72.125h3zM449.516 25h-14.875v3h14.875v-3zm-31.625 54.25c-4.443 0-8.743-1.513-11.247-5.324l-2.507 1.648c3.246 4.939 8.697 6.676 13.754 6.676v-3zm-11.259-5.342c-2.125-3.131-3.116-8.019-3.116-13.658h-3c0 5.861 1.008 11.473 3.633 15.342l2.483-1.684zm-3.116-13.658c0-5.578 1.219-10.495 3.366-13.658l-2.483-1.684c-2.603 3.837-3.883 9.42-3.883 15.342h3zm3.378-13.676c2.507-3.815 6.31-5.324 11.622-5.324v-3c-5.939 0-10.886 1.741-14.129 6.676l2.507 1.648zm11.622-5.324c4.295 0 7.83 1.383 10.23 4.219l2.29-1.938c-3.1-3.664-7.566-5.281-12.52-5.281v3zm10.241 4.232c2.919 3.368 4.384 8.826 4.384 14.768h3c0-6.308-1.536-12.6-5.117-16.732l-2.267 1.965zm4.384 14.768c0 5.959-1.473 11.52-4.367 14.749l2.233 2.003c3.606-4.021 5.134-10.46 5.134-16.751h-3zm-4.353 14.733c-2.655 2.877-6.343 4.267-10.897 4.267v3c5.195 0 9.757-1.609 13.102-5.233l-2.205-2.035zm39.446-72.858v-1.5h-1.5v1.5h1.5zm0 15h-1.5v1.5h1.5v-1.5zm17 0v1.5h1.5v-1.5h-1.5zm0-15h1.5v-1.5h-1.5v1.5zm-17 24.375V25h-1.5v1.5h1.5zm0 67.5h-1.5v1.5h1.5V94zm17 0v1.5h1.5V94h-1.5zm0-67.5h1.5V25h-1.5v1.5zm-18.5-24.375v15h3v-15h-3zm1.5 16.5h17v-3h-17v3zm18.5-1.5v-15h-3v15h3zm-1.5-16.5h-17v3h17v-3zm-18.5 25.875V94h3V26.5h-3zm1.5 69h17v-3h-17v3zm18.5-1.5V26.5h-3V94h3zm-1.5-69h-17v3h17v-3zm79.157 22.125l.383 1.45 1.38-.365-.296-1.396-1.467.311zm-12.75-18l-.78 1.281.008.005.772-1.286zm-43.125 6.75l-1.143-.971h-.001l1.144.971zm0 48.875l1.178-.928-.003-.005-1.175.932zm44.875 5.375l.883 1.212.007-.005-.89-1.207zm11-16.625l1.448.39.413-1.534-1.555-.324-.306 1.468zm-17.375-3.625l.306-1.468-1.342-.28-.399 1.312 1.435.437zm-4.25 7.25l-1.001-1.118-.003.003 1.004 1.115zm-20.75-2.875l1.209-.887-.009-.013-.01-.013-1.19.913zm0-28.125l1.19.913.01-.013.009-.013-1.209-.887zm20.375-2.5l-.972 1.143.014.012.014.011.944-1.166zm5 8l-1.44.42.409 1.404 1.414-.374-.383-1.45zm18.467-4.811c-1.841-8.679-6.858-15.022-13.446-18.975l-1.543 2.572c5.912 3.547 10.395 9.204 12.054 17.025l2.935-.623zm-13.437-18.97c-6.038-3.675-10.948-4.719-18.405-4.719v3c7.043 0 11.382.956 16.845 4.281l1.56-2.563zm-18.405-4.719c-11.666 0-19.968 3.925-26.643 11.779l2.286 1.943c6.074-7.147 13.523-10.721 24.357-10.721v-3zm-26.644 11.779c-5.895 6.943-8.606 15.557-8.606 25.346h3c0-9.211 2.538-17.097 7.893-23.404l-2.287-1.942zm-8.606 25.346c0 9.554 2.594 17.891 8.574 25.432l2.351-1.864c-5.519-6.959-7.925-14.622-7.925-23.568h-3zm8.571 25.428c6.334 8.05 14.806 11.697 26.429 11.697v-3c-10.877 0-18.406-3.352-24.072-10.553l-2.357 1.855zm26.429 11.697c4.386 0 7.948-.349 11.213-1.293 3.281-.949 6.187-2.478 9.295-4.745l-1.767-2.424c-2.892 2.109-5.486 3.455-8.361 4.287-2.891.836-6.142 1.175-10.38 1.175v3zm20.515-6.043c5.554-4.099 9.73-10.653 11.558-17.442l-2.897-.78c-1.672 6.212-5.496 12.157-10.442 15.808l1.781 2.414zm10.416-19.3l-17.375-3.625-.613 2.937 17.375 3.625.613-2.937zm-19.116-2.593c-.838 2.752-1.732 4.704-3.816 6.569l2.001 2.236c2.666-2.386 3.772-4.934 4.685-7.931l-2.87-.873zm-3.819 6.572c-2.097 1.888-5.025 2.49-7.996 2.49v3c3.278 0 7.1-.648 10.003-3.26l-2.007-2.23zm-7.996 2.49c-4.549 0-8.089-1.793-10.541-5.137l-2.419 1.774c3.048 4.156 7.508 6.363 12.96 6.363v-3zm-10.56-5.163c-2.574-3.358-3.44-8.078-3.44-13.087h-3c0 5.241.883 10.77 4.059 14.913l2.381-1.825zm-3.44-13.087c0-5.017.869-9.858 3.44-13.212l-2.381-1.825c-3.178 4.146-4.059 9.805-4.059 15.038h3zm3.459-13.238c2.436-3.321 5.962-5.012 10.541-5.012v-3c-5.422 0-9.896 2.059-12.96 6.238l2.419 1.774zM533.766 42c2.793 0 5.442.889 7.653 2.768l1.943-2.286c-2.789-2.371-6.14-3.482-9.596-3.482v3zm7.681 2.791c2.315 1.874 3.684 4.443 4.504 7.254l2.88-.84c-.93-3.189-2.561-6.37-5.497-8.746l-1.887 2.332zm6.327 8.284l17-4.5-.767-2.9-17 4.5.767 2.9z" fill="#0082c9"/></svg>