<svg xmlns="http://www.w3.org/2000/svg" xmlns:xlink="http://www.w3.org/1999/xlink" width="900pt" height="314.003pt" viewBox="0 0 900 314.003" version="1.1">
    <defs>
        <clipPath id="py-logo-clip">
            <path d="M 208 0 L 552 0 L 552 314 L 208 314 Z M 208 0 "/>
        </clipPath>
    </defs>
    <g id="py-logo">
        <g clip-path="url(#py-logo-clip)" clip-rule="nonzero">
            <path class="py-logo-symbol" style="fill: #ff4800;" d="M 229 25.5 C 230.1 50.6 251.8 146.4 251.8 146.4 C 259.8 165.8 266.6 146.4 266.6 146.4 C 292.9 67.7 239.2 22.1 239.2 22.1 C 225.6 14.1 229 25.5 229 25.5 M 540.3 11.8 C 540.3 11.8 566.6 30.1 540.3 33.5 C 540.3 33.5 442.2 44.9 369.2 113.3 C 369.2 113.3 259.8 209.1 218.7 314 C 218.7 314 205 314 209.6 293.5 C 214.2 273 241.5 182.9 363.5 72.3 C 363.5 72.3 481 -34.9 540.3 11.8 "/>
        </g>
        <g id="py-logo-text">
            <path class="py-logo-text" d="M 41.3 163.6 C 45.7 164.5 49.6 165 55.3 165 C 77.6 165 92.7 150.6 92.7 132.3 C 92.7 115.9 81.1 110 66 110 C 59.4 110 54.4 110.4 51.2 111.3 Z M 28.8 92.4 C 38.1 90.1 52.1 88.7 65.8 88.7 C 80.2 88.7 95.2 91.7 105.3 99.7 C 114.2 106.5 119.4 116.6 119.4 130.3 C 119.4 148.5 110.8 163.4 99.8 172.1 C 87.5 181.9 69.9 186.7 51.6 186.7 C 46.1 186.7 41.3 186 37.2 185.6 L 26 243.8 L 0 243.8 Z M 28.8 92.4 "/>
            <path class="py-logo-text" d="M 190 151.7 C 187.3 151 183.8 150.6 179.1 150.6 C 154.6 150.6 135.4 178.2 135.4 203.6 C 135.4 215.2 139.8 224.8 151.4 224.8 C 164 224.8 179.1 209.3 184.3 181 Z M 179.3 243.8 C 179.3 237.2 180.2 228.3 181.1 218.9 L 180.7 218.9 C 169.7 239.2 154.8 246.3 140.7 246.3 C 120.8 246.3 107.8 230.8 107.8 208.4 C 107.8 170.5 134.3 130 186.1 130 C 198.2 130 211.2 132.3 219.9 135.1 L 208.3 193.1 C 205.1 209.5 203.3 230.6 203.7 243.8 Z M 179.3 243.8 "/>
            <path class="py-logo-text" d="M 371.1 199.7 C 371.1 215 379.1 225.8 392.8 225.8 C 412.7 225.8 425.9 198.3 425.9 176.2 C 425.9 164.8 420.7 150.6 404.7 150.6 C 383.4 150.6 371.1 178.9 371.1 199.7 M 453.3 176 C 453.3 213.9 427 246.3 389.1 246.3 C 361 246.3 343.7 226.9 343.7 200.4 C 343.7 162.7 370 130 407.9 130 C 437.8 130 453.3 151.5 453.3 176 "/>
            <path class="py-logo-text" d="M 458.3 243.8 L 472.7 167.1 C 475.5 153.8 477.1 142.1 478.4 132.6 L 502.2 132.6 L 499.7 152.4 L 500.1 152.4 C 510.4 137.6 524.6 130 540.1 130 C 556.1 130 568.4 139.6 568.4 160.6 C 568.4 165.7 567.5 173.4 566.4 178.9 L 554.2 243.8 L 527.5 243.8 L 539.4 181 C 540.1 176.9 540.8 172.1 540.8 167.7 C 540.8 158.4 537.3 151.7 526.8 151.7 C 514.7 151.7 499.2 166.4 494.4 192.4 L 484.8 243.8 Z M 458.3 243.8 "/>
            <path class="py-logo-text" d="M 639.2 149.9 C 622.5 149.9 611.6 164.8 608.4 178.2 C 635.8 178.5 653.4 174.8 653.4 161.4 C 653.4 154.3 647.7 149.9 639.2 149.9 M 664.6 237.4 C 653.6 243.1 638.7 246.3 625.3 246.3 C 594.4 246.3 579.6 227.4 579.6 200.2 C 579.6 166.6 604.2 130 642.6 130 C 664.6 130 678.5 142.6 678.5 161.4 C 678.5 189.9 648.6 199 605.6 198.1 C 605.2 202 606.1 209.5 608.6 213.9 C 612.9 221.4 620.9 225.3 631.4 225.3 C 644 225.3 654.1 222.1 662.1 218 Z M 664.6 237.4 "/>
            <path class="py-logo-text" d="M 742.6 149.9 C 726 149.9 715 164.8 711.8 178.2 C 739.2 178.5 756.8 174.8 756.8 161.4 C 756.8 154.3 751.1 149.9 742.6 149.9 M 768 237.4 C 757 243.1 742.2 246.3 728.7 246.3 C 697.9 246.3 683 227.4 683 200.2 C 683 166.6 707.7 130 746.1 130 C 768 130 782 142.6 782 161.4 C 782 189.9 752 199 709.1 198.1 C 708.6 202 709.5 209.5 712 213.9 C 716.4 221.4 724.4 225.3 734.9 225.3 C 747.5 225.3 757.5 222.1 765.5 218 Z M 768 237.4 "/>
            <path class="py-logo-text" d="M 783.5 243.8 L 796.6 175.3 C 799.5 159.5 801.1 142.4 802.2 132.6 L 825.3 132.6 C 824.6 140.1 823.9 147.9 822.8 155.9 L 823.5 155.9 C 831.1 141 843.1 130 858.2 130 C 860.3 130 862.3 130.3 864.2 130.3 L 858.9 156.3 C 857.5 156.1 855.7 156.1 853.9 156.1 C 834.9 156.1 822.8 175.3 818.5 199 L 810 243.8 Z M 783.5 243.8 "/>
            <path class="py-logo-text" d="M 884.4 142.7 L 886.3 142.7 C 888.3 142.7 889.6 141.6 889.6 139.9 C 889.6 138 888.3 137.2 886.2 137.2 C 885.3 137.2 884.7 137.3 884.4 137.4 Z M 882.5 136 C 883.4 135.8 884.8 135.7 886.1 135.7 C 888.1 135.7 889.5 136.1 890.4 136.9 C 891.1 137.6 891.5 138.6 891.5 139.8 C 891.5 141.7 890.3 143 888.8 143.5 L 888.8 143.5 C 889.9 143.9 890.6 145 890.9 146.5 C 891.4 148.5 891.8 150 892.1 150.6 L 890.1 150.6 C 889.8 150.1 889.5 148.9 889.1 147 C 888.7 145 887.9 144.2 886.2 144.2 L 884.4 144.2 L 884.4 150.6 L 882.5 150.6 Z M 882.5 136 "/>
            <path class="py-logo-text" d="M 886.8 130 C 879.6 130 873.7 135.9 873.7 143.2 C 873.7 150.5 879.6 156.4 886.8 156.4 C 894.1 156.4 900 150.5 900 143.2 C 900 135.9 894.1 130 886.8 130 M 886.8 132.1 C 893 132.1 897.9 137 897.9 143.2 C 897.9 149.4 893 154.3 886.8 154.3 C 880.7 154.3 875.7 149.4 875.7 143.2 C 875.7 137 880.7 132.1 886.8 132.1 "/>
        </g>
    </g>
    <style>
        #py-logo .py-logo-symbol {
        }

        #py-logo-text{
            fill: #333;
        }

        #py-logo #py-logo-text {
        
        }

        #py-logo.inverted #py-logo-text,
        .py-logo-inverted #py-logo-text {
            fill: #fff;
        }
    </style>

</svg>
