<svg xmlns="http://www.w3.org/2000/svg" viewBox="0 0 277.217 69.019"><g id="eff8a62a-da66-45a5-8b44-778643d853f0" data-name="Layer 2"><g id="be64e198-5fdc-4856-a2f9-10d613f6b756" data-name="Слой 1"><path d="M237.6,54.9a14.14,14.14,0,0,1-14.121,14.121H186.513V63.931h36.961a9.033,9.033,0,1,0,0-18.065H191.926v6.477h31.722v5.1H186.826V40.766h36.648a9.032,9.032,0,1,0,0-18.064H191.926V29.19h31.722v5.088H186.826V17.6h36.648a14.122,14.122,0,0,1,8.073,25.709A14.128,14.128,0,0,1,237.6,54.9Z" style="fill:#ff0606"/><path d="M277.217,17.875H240.984V0h36.233Zm-35.233-1h34.233V1H241.984Z" style="fill:#ff0606"/><path d="M248.972,12.964V5.044h2.892a2.778,2.778,0,0,1,1.944.677,2.259,2.259,0,0,1,.744,1.747,2.263,2.263,0,0,1-.75,1.751,2.76,2.76,0,0,1-1.938.685h-1.62v3.06Zm1.272-4.188h1.6a1.451,1.451,0,0,0,1.032-.349,1.234,1.234,0,0,0,.371-.947,1.256,1.256,0,0,0-.371-.954,1.44,1.44,0,0,0-1.032-.354h-1.6Z" style="fill:#ff0606"/><path d="M260.924,12.964l-.564-1.32H256.8l-.564,1.32h-1.356l3.492-8.052h.433l3.491,8.052Zm-1.02-2.412-1.32-3.276-1.332,3.276Z" style="fill:#ff0606"/><path d="M269.228,5.044l-2.735,4.728v3.192H265.22V9.772l-2.736-4.728H263.9l1.956,3.444,1.969-3.444Z" style="fill:#ff0606"/><path d="M0,69.016V18.52H19.815q8.493,0,14,4.782a15.855,15.855,0,0,1,5.509,12.586A15.933,15.933,0,0,1,33.74,48.435a20.36,20.36,0,0,1-13.925,4.9H13.159V69.016ZM13.159,41.855h6.733a5.94,5.94,0,0,0,4.4-1.645,5.839,5.839,0,0,0,1.645-4.322A5.716,5.716,0,0,0,24.291,31.6,6.026,6.026,0,0,0,19.892,30H13.159Z"/><path d="M44.045,69.016V18.52H57.2V57.157H78.09V69.016Z"/><path d="M118.366,69.016l-1.837-4.208H98.4l-1.836,4.208H82.407L105.359,17.6h4.207l22.953,51.414Zm-6.5-14.766L107.5,42.544,103.063,54.25Z"/><path d="M168.076,17.6h13.16V69.019h-4.208l-27.39-25.634V69.016H136.479V17.6h4.207l27.39,26.166Z"/></g></g></svg>