<svg xmlns="http://www.w3.org/2000/svg" width="181" height="183.886"><g transform="translate(0 .001)"><defs><linearGradient id="A" x1="0" y1="0" x2="219.96" y2="0" gradientUnits="userSpaceOnUse"><stop offset="0"/><stop offset="1" stop-color="rgba(0,0,0,0)" stop-opacity="0"/></linearGradient></defs><path d="M0 0h194.964a25 25 0 0 1 24.996 24.995 25 25 0 0 1-24.996 24.996H0z" transform="rotate(315 179.3 74.268)" fill="url(#A)"/><defs><linearGradient id="B" x1="0" y1="0" x2="69.987" y2="0" gradientUnits="userSpaceOnUse"><stop offset="0" stop-color="hsla(0, 0%, 0%, 0.8)" stop-opacity=".8"/><stop offset="1" stop-color="rgba(0,0,0,0)" stop-opacity="0"/></linearGradient></defs><path d="M0 0h44.992a25 25 0 0 1 24.995 24.995 25 25 0 0 1-24.995 24.996H0z" transform="rotate(45 17.675 42.669)" fill="url(#B)"/><defs><linearGradient id="C" x1="0" y1="0" x2="74.986" y2="0" gradientUnits="userSpaceOnUse"><stop offset="0" stop-color="hsla(0, 0%, 0%, 0.8)" stop-opacity=".8"/><stop offset="1" stop-color="rgba(0,0,0,0)" stop-opacity="0"/></linearGradient></defs><path d="M0 0h49.99a25 25 0 0 1 24.995 24.995 25 25 0 0 1-24.995 24.996H0z" transform="rotate(45 -55.145 218.469)" fill="url(#C)"/></g></svg>