<?xml version="1.0" encoding="UTF-8"?> <svg xmlns="http://www.w3.org/2000/svg" width="566" height="185"> <path d="M 302.159 121.14 L 282.316 121.14 L 269.085 103.285 L 255.843 121.14 L 236 121.14 L 259.154 89.886 L 237.606 60.809 L 257.457 60.809 L 269.085 76.496 L 280.702 60.809 L 300.555 60.809 L 279.007 89.886 Z M 339.835 107.574 C 349.302 107.574 356.902 100.43 356.902 90.974 C 356.902 81.808 349.787 74.367 339.768 74.367 C 329.682 74.367 322.767 82.279 322.767 90.975 C 322.767 98.874 328.988 107.574 339.835 107.574 Z M 341.091 59.025 C 358.776 59.025 373.117 73.32 373.117 90.959 C 373.117 108.604 358.776 122.901 341.091 122.901 C 335.085 122.91 329.198 121.224 324.112 118.04 L 324.112 142.5 L 308.15 142.5 L 308.15 60.801 L 324.112 60.801 L 324.112 63.876 C 329.199 60.695 335.085 59.013 341.091 59.025 Z M 412.652 107.574 C 421.81 107.574 429.236 100.134 429.236 90.974 C 429.236 81.808 421.81 74.367 412.653 74.367 C 403.487 74.367 396.06 81.808 396.06 90.975 C 396.06 100.134 403.487 107.574 412.653 107.574 Z M 430.035 60.801 L 445.997 60.801 L 445.997 121.133 L 430.035 121.133 L 430.035 117.186 C 424.696 120.914 418.332 122.91 411.812 122.901 C 394.187 122.901 379.905 108.604 379.905 90.959 C 379.905 73.32 394.187 59.025 411.812 59.025 C 418.584 59.025 424.868 61.136 430.035 64.739 Z M 519.104 83.869 L 549.072 83.869 C 546.408 78.264 540.704 74.392 534.092 74.392 C 527.472 74.392 521.768 78.264 519.105 83.869 Z M 565.379 97.294 L 549.442 97.286 L 549.45 97.277 L 518.737 97.277 C 521.214 103.328 527.162 107.593 534.093 107.593 C 537.882 107.593 541.386 106.319 544.174 104.173 L 563.17 104.173 C 558.154 115.226 547.022 122.919 534.093 122.919 C 516.468 122.919 502.186 108.632 502.177 90.993 C 502.177 73.354 516.459 59.051 534.085 59.051 C 551.718 59.049 566 73.345 566 90.985 C 566 93.145 565.79 95.249 565.378 97.294 Z M 497.355 120.404 C 497.355 120.404 487.605 122.901 481.491 122.901 C 471.916 122.901 463.457 114.265 463.457 102.787 L 463.456 75.031 L 457.138 75.031 L 457.138 60.785 L 463.472 60.785 L 463.607 42.5 L 479.569 42.5 L 479.695 60.785 L 494.305 60.785 L 494.305 75.03 L 479.712 75.03 C 479.712 77.56 479.727 100.139 479.727 100.139 C 479.727 103.579 480.569 109.776 493.907 106.807 L 497.355 120.403 Z" fill="hsl(0, 0%, 0%)"></path> <g transform="translate(0.459 0.541)"> <g> <defs> <linearGradient id="idp966KNHmkg-359775855" gradientTransform="rotate(180, 0.5, 0.5)"> <stop offset="0" stop-color="black" stop-opacity="1"></stop> <stop offset="1" stop-color="rgba(0,0,0,0)" stop-opacity="0"></stop> </linearGradient> </defs> <path d="M 0 0 L 194.964 0 C 208.769 0 219.96 11.191 219.96 24.995 L 219.96 24.995 C 219.96 38.8 208.769 49.991 194.964 49.991 L 0 49.991 Z" transform="translate(-14.538 63.448) rotate(-45 109.98 24.995)" fill="url(#idp966KNHmkg-359775855)"></path> </g> <g> <defs> <linearGradient id="idU0DFPHKTYg1921951763" gradientTransform="rotate(180, 0.5, 0.5)"> <stop offset="0" stop-color="hsla(0, 0%, 0%, 0.8)" stop-opacity="0.8"></stop> <stop offset="1" stop-color="rgba(0,0,0,0)" stop-opacity="0"></stop> </linearGradient> </defs> <path d="M 0 0 L 44.992 0 C 58.796 0 69.987 11.191 69.987 24.995 L 69.987 24.995 C 69.987 38.8 58.796 49.991 44.992 49.991 L 0 49.991 Z" transform="translate(7.425 17.423) rotate(45 34.994 24.995)" fill="url(#idU0DFPHKTYg1921951763)"></path> </g> <g> <defs> <linearGradient id="idAbAlqjIqWg1921951763" gradientTransform="rotate(180, 0.5, 0.5)"> <stop offset="0" stop-color="hsla(0, 0%, 0%, 0.8)" stop-opacity="0.8"></stop> <stop offset="1" stop-color="rgba(0,0,0,0)" stop-opacity="0"></stop> </linearGradient> </defs> <path d="M 0 0 L 49.991 0 C 63.795 0 74.986 11.191 74.986 24.995 L 74.986 24.995 C 74.986 38.8 63.795 49.991 49.991 49.991 L 0 49.991 Z" transform="translate(109.674 122.172) rotate(45 37.493 24.995)" fill="url(#idAbAlqjIqWg1921951763)"></path> </g> </g> </svg> 