<?xml version="1.0" encoding="utf-8"?>
<!-- Generator: Adobe Illustrator 25.0.1, SVG Export Plug-In . SVG Version: 6.00 Build 0)  -->
<svg version="1.1" id="Layer_1" xmlns="http://www.w3.org/2000/svg" xmlns:xlink="http://www.w3.org/1999/xlink" x="0px" y="0px"
	 viewBox="0 0 76.13 16.72" style="enable-background:new 0 0 76.13 16.72;" xml:space="preserve">
<style type="text/css">
	.st0{clip-path:url(#SVGID_2_);fill:#8A8887;}
	.st1{clip-path:url(#SVGID_2_);fill-rule:evenodd;clip-rule:evenodd;fill:#01765D;}
</style>
<g>
	<defs>
		<rect id="SVGID_1_" y="0" width="76.13" height="16.72"/>
	</defs>
	<clipPath id="SVGID_2_">
		<use xlink:href="#SVGID_1_"  style="overflow:visible;"/>
	</clipPath>
	<path class="st0" d="M7.39,9.13h-4.2C3.35,7.06,4.1,6.3,5.32,6.3C6.8,6.3,7.39,7.37,7.39,9V9.13z M10.46,9.82
		c0-3.46-1.94-5.5-5.21-5.5C1.88,4.32,0,6.85,0,10.13c0,3.4,1.94,5.69,5.64,5.69c1.81,0,3.25-0.61,4.38-1.47l-1.28-1.64
		c-1,0.65-1.83,0.94-2.81,0.94c-1.48,0-2.53-0.61-2.74-2.7h7.21C10.41,10.64,10.46,10.19,10.46,9.82"/>
	<path class="st0" d="M24.04,4.32c-1.41,0-2.4,0.63-3.23,1.78c-0.43-1.15-1.37-1.78-2.6-1.78c-1.37,0-2.35,0.59-3.15,1.68
		l-0.23-1.35h-2.52v10.84h2.91V8c0.53-0.96,1.06-1.52,1.86-1.52c0.59,0,1.06,0.35,1.06,1.6v7.41h2.9V8
		c0.55-0.96,1.08-1.52,1.88-1.52c0.57,0,1.06,0.35,1.06,1.6v7.41h2.91v-7.9C26.91,5.55,25.74,4.32,24.04,4.32"/>
	<path class="st0" d="M48.6,4.34c-1.27,0-2.31,0.9-2.82,2.41l-0.27-2.11h-2.52v10.84h2.9V9.9c0.39-1.76,1-2.74,2.33-2.74
		c0.37,0,0.63,0.06,0.96,0.14l0.49-2.8C49.31,4.4,48.99,4.34,48.6,4.34"/>
	<path class="st0" d="M54.1,13.73c-0.9,0-1.39-0.55-1.39-1.51c0-1.19,0.78-1.76,2.35-1.76h0.96v2.07
		C55.57,13.3,54.94,13.73,54.1,13.73 M58.87,12.48V8.1c0-2.46-1.29-3.79-4.3-3.79c-1.23,0-2.66,0.27-4.01,0.8l0.66,1.94
		c1.1-0.37,2.15-0.57,2.86-0.57c1.37,0,1.94,0.43,1.94,1.78V8.8h-1.25c-3.21,0-4.99,1.29-4.99,3.66c0,1.96,1.35,3.36,3.52,3.36
		c1.29,0,2.48-0.45,3.25-1.62c0.45,1.07,1.27,1.45,2.5,1.58l0.61-1.92C59.13,13.67,58.87,13.36,58.87,12.48"/>
	<path class="st0" d="M63.78,15.82c0.73,0,1.39-0.16,1.86-0.37l-0.59-2.07c-0.17,0.08-0.35,0.12-0.57,0.12
		c-0.41,0-0.59-0.25-0.59-0.72V0l-2.9,0.33v12.54C60.98,14.75,62.02,15.82,63.78,15.82"/>
	<path class="st0" d="M71.18,13.65c-1.19,0-1.96-0.86-1.96-3.58c0-2.54,0.86-3.6,2.15-3.6c0.78,0,1.33,0.39,1.86,1.02v4.85
		C72.68,13.2,72.04,13.65,71.18,13.65 M73.23,0v5.42c-0.66-0.65-1.56-1.1-2.6-1.1c-2.76,0-4.44,2.39-4.44,5.75
		c0,3.46,1.39,5.75,4.11,5.75c1.45,0,2.46-0.72,3.09-1.66l0.19,1.33h2.56V0.33L73.23,0z"/>
	<polygon class="st1" points="40.43,7.47 33.02,7.47 34.95,5.55 36.06,6.66 39.62,6.66 34.95,1.99 27.58,9.35 34.95,16.72 
		39.62,12.05 36.06,12.05 34.95,13.16 33.02,11.24 40.43,11.24 41.91,9.76 31.54,9.76 31.14,9.35 31.54,8.95 41.91,8.95 	"/>
</g>
</svg>
