<?xml version="1.0" encoding="UTF-8"?>
<svg class="icon" width="348.38" height="348.27" version="1.1" viewBox="0 0 348.37692 696.5451" xmlns="http://www.w3.org/2000/svg" xmlns:cc="http://creativecommons.org/ns#" xmlns:dc="http://purl.org/dc/elements/1.1/" xmlns:rdf="http://www.w3.org/1999/02/22-rdf-syntax-ns#">
<metadata>
<rdf:RDF>
<cc:Work rdf:about="">
<dc:format>image/svg+xml</dc:format>
<dc:type rdf:resource="http://purl.org/dc/dcmitype/StillImage"/>
<dc:title/>
</cc:Work>
</rdf:RDF>
</metadata>
<path d="m529.01 338.59-0.21183-8.6715-0.63956-8.7247-0.64161-8.7779-0.8514-8.6449-1.0622-8.4852-1.275-8.5651-1.7028-8.2745-1.6496-8.2704-1.9699-8.3011-1.9126-8.0862-2.3444-8.0596-2.5531-7.8713-2.764-7.8488-2.8724-7.8743-3.032-7.6328-3.4598-7.6871-3.3493-7.6349-3.8302-7.422-3.778-7.4466-4.0451-7.2358-4.2539-7.2082-4.6796-7.2358-4.6857-7.0219-4.8924-7.023-5.1063-6.8091-5.3222-6.8091-5.3181-6.5706-5.7479-6.8357-5.9587-6.3844-5.9577-6.5696-6.3803-6.3588-6.3343-6.1695-6.5932-6.1726-6.6003-5.7172-6.5952-5.7745-6.7589-5.4788-6.8111-5.3458-7.0178-5.1063-7.0209-4.8709-7.026-4.6806-7.2338-4.4933-7.2348-4.2293-7.4466-4.2037-7.4497-3.8579-7.4517-3.5908-7.6072-3.644-7.6584-3.1651-7.8191-3.2183-7.8713-3.0044-7.8733-2.5296-7.8784-2.5532-8.081-2.3679l-8.0892-2.1008-8.299-1.9156-8.297-1.6752-8.3011-1.4899-8.5119-1.3027-8.4586-1.0653-8.5119-1.0356-8.6725-0.63855-8.7237-0.42569-8.7257-0.42672h-17.876l-8.9355 0.42672-8.9386 0.42569-8.7268 0.63855-8.5119 1.0356-8.4576 1.0653-8.4586 1.3027-8.5651 1.4899-8.2448 1.6752-8.298 1.9156-8.0882 2.1008-8.0841 2.3679-7.8201 2.5532-7.9296 2.5296-7.8743 3.0044-7.6062 3.2183-7.6103 3.1651-7.7116 3.644-7.3944 3.5908-7.4456 3.8579-7.2399 4.2037-7.2297 4.2293-7.2419 4.4933-7.0199 4.6806-6.9656 4.8709-6.8111 5.1063-6.8623 5.3458-6.8091 5.4788-6.7569 5.7745-6.3864 5.7172-6.5962 6.1726-6.3824 6.1695-6.3312 6.3588-5.9587 6.5696-6.0109 6.3844-5.6906 6.8357-5.5361 6.5706-5.1073 6.8091-5.1083 6.8091-4.8382 7.023-4.9467 7.0219-4.4698 7.2358-4.257 7.2082-4.039 7.2358-3.9929 7.4466-3.6194 7.422-3.4045 7.6349-3.4056 7.6871-3.2439 7.6328-2.7138 7.8743-2.7107 7.8488-2.6074 7.8713-2.2891 8.0596-2.1285 8.0862-1.9648 8.3011-1.6547 8.2704-1.5401 8.2745-1.2239 8.5651-1.0632 8.4852-0.85037 8.6449-0.85036 8.7779-0.43082 8.7247-0.20977 8.6715-0.21183 8.9376 0.21183 8.9099 0.20977 8.9652 0.43082 8.7247 0.85036 8.6715 0.85037 8.7237 1.0632 8.5119 1.2239 8.4873 1.5401 8.3246 1.6547 8.299 1.9648 8.2448 2.1285 8.3277 2.2891 8.034 2.6074 7.8713 2.7107 8.0606 2.7138 7.686 3.2439 7.8488 3.4056 7.6605 3.4045 7.6615 3.6194 7.4476 3.9929 7.421 4.039 7.3954 4.257 7.2614 4.4698 7.2348 4.9467 7.2082 4.8382 7.0496 5.1083 6.7835 5.1073 6.9943 5.5361 6.6239 5.6906 6.8091 6.0109 6.5973 5.9587 6.543 6.3312 6.3844 6.3824 6.1972 6.5962 6.145 6.3864 5.9577 6.7569 5.5064 6.8091 5.532 6.8623 5.3232 6.8111 5.0797 6.9656 4.8935 7.0199 4.6806 7.2419 4.5251 7.2297 4.2017 7.2399 4.2017 7.4456 3.8579 7.3944 3.8036 7.7116 3.4322 7.6103 3.4045 7.6062 2.9778 7.8743 2.9809 7.9296 2.7394 7.8201 2.3669 8.0841 2.3413 8.0882 2.1008 8.298 1.9412 8.2448 1.7028 8.5651 1.4623 8.4586 1.2781 8.4576 1.3282 8.5119 0.7726 8.7268 0.69175 8.9386 0.39909 8.9355 0.4257h8.9376l12.558-0.18625 12.289-0.42467 12.18-1.0653 12.078-1.3313 11.863-1.6741 11.491-2.1274 11.707-2.5808 11.276-2.7128 11.065-3.4056 11.066-3.6174 10.801-4.0175 10.636-4.2815 10.374-4.9211 10.43-5.0531 10.269-5.533 9.9455-5.7479 6.8101-4.2559 6.5952-4.2283 6.3864-4.2836 5.9587-4.4401 5.9055-4.2293 5.531-4.4698 5.2639-4.4944 5.1094-4.4432 4.6857-4.7082 4.7307-4.4678 4.2017-4.6294 4.0994-4.7072 3.778-4.8413 3.6194-4.7092 3.1886-4.8945 3.1907-4.9211 2.767-4.8679 2.5532-4.8668 2.3383-4.8668 2.1336-5.1626 1.9136-5.0797 1.492-5.0797 1.4869-5.1073 1.0663-5.3202 0.85242-5.1339 0.63547-5.2659 0.21592-5.3478 0.20978-5.3192-0.20978-5.5064-0.21592-5.3202-0.63547-5.532-0.85242-5.533-1.0663-4.4698-1.0653-4.653-1.274-4.257-1.2802-4.4688-1.7018-4.2017-1.7048-4.0983-1.9105-4.0421-2.1285-4.0185-2.3403-3.8036-2.3413-3.8302-2.764-3.8579-2.7691-3.5887-2.9788-3.3779-2.9256-3.4322-3.4578-3.4035-3.4056-3.4056-3.6194-3.1661-3.8261-3.0065-4.0462-2.9522-3.9377-2.9522-4.3091-2.7916-4.4667-2.7414-4.6294-2.5542-4.8965-2.766-4.8965-2.3413-5.1053-2.3127-5.3192-2.3679-5.533-2.1285-5.6875-2.1551-5.8032-2.1008-5.9567-1.9146-6.1705-1.9156-15.854-5.533 5.0019-2.9512 4.8924-3.1927 4.6786-3.1917 4.257-3.4322 4.0994-3.5908 3.778-3.6184 3.4015-3.8016 3.1907-4.0441 2.9819-4.0155 2.5552-4.2836 2.5542-4.4688 1.9126-4.4688 1.9146-4.6274 1.491-4.7093 1.0622-4.8679 1.0653-5.1605 0.4257-5.9045 0.20977-5.532-0.20977-5.7725-0.4257-5.6937-1.0653-5.534-1.4879-5.5576-1.7028-5.2936-2.1295-5.5054-2.5532-5.3212-2.9778-5.3447-3.4056-5.269-3.777-5.1063-4.3091-5.135-4.6816-5.1073-5.1084-4.8648-5.3202-4.8965-5.9055-5.1339-5.9587-4.8413-6.2217-4.4688-6.3834-4.2825-6.4878-4.0165-6.8101-3.8548-7.024-3.3544-7.2358-3.4035-7.4486-3.0065-7.6605-2.9522-7.8733-2.6053-8.0862-2.2881-8.296-2.1019-8.4627-2.1551-8.7759-1.7018-8.8352-1.4899-10.263-1.4623-10.167-1.3037-10.634-1.0376-10.646-0.90563-10.85-0.76952-11.064-0.69278-11.066-0.42467-11.384-0.21387-11.491-0.18522-11.756 0.18522h-11.864l-12.13 0.42569-12.342 0.63957-12.504 0.69073-12.607 0.63957-12.715 1.0366v109.91l10.161-1.3293 10.214-1.2761 10.216-0.82786 10.43-0.85036 10.213-0.60887 10.426-0.45333 10.424-0.26708h20.961l10.425 0.47788 10.644 0.42468 10.688 0.85241 10.589 0.82581 10.636 1.0908 10.856 1.2505 10.854 1.3037 8.7216 1.4879 8.3021 1.6772 7.5551 1.9146 7.289 1.9166 6.6474 2.3659 6.0662 2.3403 5.7459 2.5532 5.1083 2.7404 2.3383 1.3047 2.1285 1.4633 2.1274 1.6741 1.9177 1.4899 1.9126 1.756 1.493 1.6762 1.7018 1.7018 1.273 1.6762 1.2802 1.9422 1.273 1.9146 1.0653 1.9146 0.85241 2.1285 0.63548 1.9156 0.64059 2.1008 0.42467 2.1008 0.42774 2.3679v3.8302l-0.42774 1.9422-0.42467 2.1008-1.7007 4.655-2.3444 5.3202-1.4879 2.1008-1.7007 2.1817-1.8645 1.888-2.3925 1.4633-2.3403 1.4889-2.5532 1.2771-2.768 1.0642-2.9799 0.878-3.1917 0.63854-3.6164 0.61091-3.6143 0.24048h-8.0923l-4.257-0.24048-4.4115-0.61091-4.9497-0.63854-12.714-1.5176-12.5-1.2761-12.558-1.0632-12.342-0.85139-12.132-0.61092-12.073-0.42672-12.128-0.21284-11.863-0.21285-11.707 0.21285-11.705 0.21284-11.703 0.42672-11.489 0.61092-11.278 0.85139-11.227 1.0632-11.119 1.2761-11.013 1.5176v112.01l15.483-1.7529 15.108-1.6516 14.895-1.3016 14.895-1.0366 14.256-0.64059 14.207-0.60887 13.777-0.26708h13.617l13.41 0.45025 13.19 0.4257 12.769 0.85139 12.553 1.2525 12.348 1.3006 12.127 1.6516 11.598 1.9678 11.493 2.1019 9.1514 1.7018 8.5119 2.1285 8.0831 2.1008 7.4486 2.3403 6.9656 2.7936 6.4427 2.767 2.9758 1.4889 2.7148 1.4633 2.767 1.4889 2.5542 1.7304 2.3935 1.7018 2.285 1.6752 2.1316 1.889 1.8594 1.756 1.9668 1.9156 1.7007 1.9146 1.4388 1.8614 1.492 2.1817 1.275 2.1019 1.0653 2.0998 1.1185 2.1285 0.63547 2.3403 0.85242 2.1551 0.37146 2.3147 0.42467 2.3669 0.48095 2.5265v1.9156l0.20978 2.1008-0.20978 2.1551v1.888l-0.48095 2.1008-0.42467 1.9156-0.64162 2.1817-0.58226 1.9156-0.90358 2.1008-1.012 1.9412-1.1174 2.1029-1.2218 2.1551-2.7701 4.2283-3.3493 4.2559-2.1776 2.5532-2.5532 2.3137-2.6084 2.3147-2.768 2.1807-2.6616 2.1019-3.028 2.1008-2.9297 1.9422-3.1886 1.9146-3.1917 1.8911-3.4056 1.7273-3.6184 1.7284-3.6204 1.6762-3.8251 1.4899-4.0451 1.4889-3.9919 1.2525-4.3081 1.2771-4.258 1.3006-4.4678 1.0653-4.4156 1.0622-4.9456 0.82785-9.791 1.7018-10.212 1.4879-10.853 1.0386-11.387 0.90256-11.915 0.42569h-19.153l-6.5972-0.26606-6.5962-0.37146-6.541-0.42569-6.4427-0.69073-6.3772-0.82377-6.1214-0.85139-6.3834-1.0663-6.1163-1.2771-6.1726-1.4623-5.9577-1.5432-5.9597-1.6762-5.9587-1.7018-5.9577-2.1008-5.7418-2.1285-5.7479-2.1551-5.7479-2.4989-5.6886-2.6084-5.534-2.5532-5.5862-2.9522-5.269-3.0065-5.3181-3.1375-5.3703-3.2459-5.269-3.3769-5.0531-3.5918-5.1083-3.8313-5.1063-3.8558-5.1083-4.0165-4.8965-4.257-4.8945-4.2293-4.6775-4.4944-4.8965-4.6284-4.4688-4.6816-4.4688-4.9211-4.4708-4.8413-4.2037-4.9211-4.0932-4.8945-3.8313-5.0807-3.8323-5.1329-3.6184-5.1073-3.3503-5.3202-3.4045-5.0807-3.2449-5.532-2.9236-5.3202-2.766-5.5074-2.766-5.533-2.5542-5.533-2.502-5.7438-2.4457-5.4798-2.0773-5.9853-1.9668-5.6926-1.8061-6.0396-1.7038-5.9045-1.491-5.9311-1.491-6.1716-1.272-6.1971-1.0673-6.145-1.0663-6.3844-0.6897-6.3302-0.79614-6.4376-0.42467-6.3302-0.42774-6.6239-0.21387-6.5962v-13.193l0.21387-6.544 0.42774-6.5952 0.42467-6.3844 0.79614-6.3844 0.6897-6.3834 1.0663-6.145 1.0673-6.3568 1.272-5.9587 1.491-6.1982 1.491-5.9321 1.7038-6.1705 1.8061-5.6937 1.9668-5.9853 2.0773-5.7428 2.4457-5.7479 2.502-5.7172 2.5542-5.533 2.766-5.5074 2.766-5.5054 2.9236-5.5852 3.2449-5.267 3.4045-5.3488 3.3503-5.1308 3.6184-5.269 3.8323-5.1329 3.8313-5.1084 4.0932-4.8668 4.2037-4.8955 4.4708-4.8392 4.4688-4.8945 4.4688-4.7359 4.8965-4.6274 4.8914-4.4954 4.8433-4.2559 4.9446-4.2304 5.1104-4.0421 5.05-3.8036 5.1094-3.8579 5.1073-3.5908 5.3212-3.4301 5.2629-3.38 5.3764-3.1641 5.533-2.9799 5.4788-2.9788 5.5872-2.7936 5.4788-2.5521 5.7438-2.3413 5.7469-2.3413 5.7479-2.1275 5.9567-2.1029 5.7438-1.7273 6.1736-1.7028 5.9055-1.6782 6.2238-1.2761 6.1142-1.2505 6.1726-1.1154 6.1214-1.0642 6.3772-0.85139 6.6003-0.63752 6.3834-0.4257 6.5962-0.42569 6.5972-0.18829 6.6003-0.1842 6.5942 0.1842 6.5952 0.18829 6.5973 0.42569 6.3844 0.4257 6.3844 0.63752 6.3302 0.85139 6.1204 1.0642 6.2217 1.1154 6.1204 1.2505 6.1685 1.2761 5.9587 1.6782 6.0119 1.7028 5.9045 1.7273 5.7479 2.1029 5.9587 2.1275 5.531 2.3413 5.7448 2.3413 5.5381 2.5521 5.5279 2.7936 5.4829 2.9788 5.3713 2.9799 5.4808 3.1641 5.1063 3.38 5.3734 3.4301 5.0019 3.5908 5.1063 3.8579 4.8934 3.8036 5.1063 4.0421 4.8934 4.2304 4.7379 4.2559 4.8402 4.4954 4.7338 4.6274 4.4125 4.7359 4.4729 4.6284 4.4698 4.8934 4.2549 4.9211 4.0431 4.8668 3.777 5.0807 3.8814 5.1083 3.6215 5.1339 3.4045 5.2915 3.1886 5.3212 3.0883 5.3458 3.1927 5.4808 2.7639 5.3458 2.766 5.7182 2.5532 5.5606 2.5532 5.7203 2.3956 5.7172 2.0763 5.7469 1.9156 5.9311 1.9136 5.9587 1.7018 5.9587 1.5421 5.9577 1.492 6.1705 1.2228 6.1726 1.0632 6.1163 0.85139 6.3854 0.84934 6.3834 0.64161 6.3844 0.68767 6.3844 0.42774 6.5952 0.16066 6.544v6.6494l-1.2761 28.01 5.531 3.4311 5.534 3.1927 5.534 3.6174 5.3202 3.5908 5.1063 3.8292 5.1094 3.8313 5.1073 3.8057 4.8914 4.2805 4.8924 4.2836 4.8955 4.2038 4.4688 4.4657 4.5772 4.4452 4.52 4.8924 4.2017 4.654 4.3102 5.1339 4.257 5.1083 3.1927-11.703 2.764-11.679 2.3434-11.916 1.8583-11.678 0.90461-5.9577 0.58737-6.1716 0.6365-5.9577 0.63752-5.9055 0.21387-6.1982 0.42672-6.1439v-6.1439l0.26401-6.1982z"/>
</svg>
