<?xml version="1.0" encoding="UTF-8" standalone="no"?>
<svg
   xmlns:dc="http://purl.org/dc/elements/1.1/"
   xmlns:cc="http://creativecommons.org/ns#"
   xmlns:rdf="http://www.w3.org/1999/02/22-rdf-syntax-ns#"
   xmlns:svg="http://www.w3.org/2000/svg"
   xmlns="http://www.w3.org/2000/svg"
   version="1.0"
   id="svg2"
   height="126.31422"
   width="134.95604">
  <defs
     id="defs4">
    <clipPath
       clipPathUnits="userSpaceOnUse"
       id="clipPath2420">
      <path
         d="M 4108.11,2.08594 V 7014.58 H 841.895 V 2.08594 Z"
         id="path2422" />
    </clipPath>
  </defs>
  <metadata
     id="metadata7">
    <rdf:RDF>
      <cc:Work
         rdf:about="">
        <dc:format>image/svg+xml</dc:format>
        <dc:type
           rdf:resource="http://purl.org/dc/dcmitype/StillImage" />
        <dc:title></dc:title>
      </cc:Work>
    </rdf:RDF>
  </metadata>
  <g
     transform="translate(-439.46141,-436.18488)"
     id="layer1">
    <path
       d="m 506.95008,473.13374 c 5.93932,0 12.70011,5.15606 12.70011,12.27719 0,4.01313 -1.2793,7.11191 -3.16136,9.94258 -1.20617,1.80432 -2.1258,3.88137 -2.50524,5.38465 -0.40843,1.69761 -1.30367,5.80758 3.7213,5.87609 3.26874,0.0823 11.3141,-2.76282 17.81271,-10.59936 4.99994,-6.29439 7.97224,-14.27651 7.97224,-22.98326 0,-20.34694 -16.33907,-36.84675 -36.53976,-36.84675 -20.20596,0 -36.57468,16.49981 -36.57468,36.84675 0,8.70675 2.96768,16.68887 7.9729,22.98326 6.50849,7.83654 14.54858,10.6817 17.8127,10.59936 5.02498,-0.0685 4.11524,-4.17848 3.72592,-5.87609 -0.36956,-1.50328 -1.2938,-3.58033 -2.50986,-5.38465 -1.87744,-2.83067 -3.16136,-5.92945 -3.16136,-9.94258 0.0145,-7.12113 6.76607,-12.27719 12.73438,-12.27719 m 64.63562,37.24067 c -1.49801,-1.24043 -4.12512,-3.05003 -9.519,-3.88203 -7.48608,-1.11857 -14.16518,0.63701 -18.18754,2.23251 -5.28716,2.09221 -11.80091,6.84907 -16.3002,13.04597 -4.74764,6.54735 -7.20414,16.43196 -4.84909,26.73421 0.666,2.89917 1.38602,4.53354 2.4611,6.56646 1.40578,2.76281 5.11193,6.62047 8.35696,7.31612 2.56321,0.5303 4.56714,-0.944 5.55,-2.05795 6.53681,-7.57303 31.31057,-36.9001 33.99565,-40.64512 2.637,-3.7213 0.91435,-7.29701 -1.50788,-9.31017 m -101.57986,-1.64952 c -4.02235,-1.5955 -10.69619,-3.35108 -18.18227,-2.23251 -5.39454,0.832 -8.04536,2.6416 -9.52427,3.88203 -2.42223,2.01316 -4.15871,5.58887 -1.50788,9.31017 2.67059,3.74502 27.43908,33.07209 33.97655,40.64512 0.98286,1.11395 2.98679,2.58825 5.55527,2.05795 3.26413,-0.69565 6.95578,-4.55331 8.3563,-7.31612 1.09023,-2.03292 1.7951,-3.66729 2.48086,-6.56646 2.34978,-10.30225 -0.14558,-20.18686 -4.84908,-26.73421 -4.50456,-6.1969 -11.02755,-10.95376 -16.30548,-13.04597"
       style="fill:#007dba;fill-opacity:1;fill-rule:nonzero;stroke:none;stroke-width:0.43916929"
       id="path2426" />
  </g>
</svg>
