<?xml version="1.0" encoding="UTF-8"?>
<svg version="1.0" viewBox="0 0 400 126.31" xmlns="http://www.w3.org/2000/svg" xmlns:cc="http://creativecommons.org/ns#" xmlns:dc="http://purl.org/dc/elements/1.1/" xmlns:rdf="http://www.w3.org/1999/02/22-rdf-syntax-ns#">
<metadata>
<rdf:RDF>
<cc:Work rdf:about="">
<dc:format>image/svg+xml</dc:format>
<dc:type rdf:resource="http://purl.org/dc/dcmitype/StillImage"/>
<dc:title/>
</cc:Work>
</rdf:RDF>
</metadata>
<g transform="translate(-174.42 -436.18)">
<g transform="matrix(0 .43917 -.43917 0 602.84 351.98)" fill="#007dba">
<path d="m275.86 218.34c0-13.524 11.74-28.918 27.956-28.918 9.138 0 16.194 2.913 22.64 7.1985 4.1085 2.7465 8.838 4.8405 12.261 5.7045 3.8655 0.93 13.224 2.9685 13.38-8.4735 0.1875-7.443-6.291-25.762-24.135-40.56-14.332-11.385-32.508-18.153-52.334-18.153-46.33 0-83.901 37.204-83.901 83.202 0 46.01 37.57 83.282 83.901 83.282 19.826 0 38.001-6.7575 52.334-18.154 17.844-14.82 24.322-33.128 24.135-40.56-0.156-11.442-9.5145-9.3705-13.38-8.484-3.423 0.8415-8.1525 2.946-12.261 5.715-6.4455 4.275-13.502 7.1985-22.64 7.1985-16.215-0.033-27.956-15.406-27.956-28.996m84.798-147.18c-2.8245 3.411-6.945 9.393-8.8395 21.675-2.547 17.046 1.4505 32.254 5.0835 41.414 4.764 12.039 15.596 26.871 29.706 37.116 14.908 10.81 37.416 16.404 60.874 11.042 6.6015-1.5165 10.323-3.156 14.952-5.604 6.291-3.201 15.075-11.64 16.659-19.029 1.2075-5.8365-2.1495-10.4-4.686-12.638-17.244-14.884-84.022-71.295-92.55-77.409-8.4735-6.0045-16.616-2.082-21.2 3.4335m-3.756 231.3c-3.633 9.159-7.6305 24.356-5.0835 41.402 1.8945 12.284 6.015 18.32 8.8395 21.687 4.584 5.5155 12.726 9.4695 21.2 3.4335 8.5275-6.081 75.306-62.48 92.55-77.366 2.5365-2.238 5.8935-6.801 4.686-12.65-1.584-7.4325-10.368-15.838-16.659-19.028-4.629-2.4825-8.3505-4.0875-14.952-5.649-23.458-5.3505-45.966 0.3315-60.874 11.042-14.11 10.257-24.942 25.11-29.706 37.128"/>
<path d="m417.98 401.71v69.525l-37.569-28.532v77.244l36.174 27.524c14.376 10.29 28.886 11.286 38.955 11.286h5.6925c6.579 0 10.156-4.0755 10.156-10.124v-146.92c0-5.925-3.2685-9.924-9.957-9.924h-33.46c-6.735 0-9.9915 3.999-9.9915 9.924m-132.72 395.78c-6.291 1.107-9.393 5.3715-9.393 10.92v19.648c0 20.446 10.844 38.49 27.225 48.602 0 0 29.984 18.752 63.73 39.764v-133.4zm0.5655-219.73c-6.6915 0-9.9585 3.987-9.9585 9.957v39.996c0 5.925 3.267 9.924 9.9585 9.924h75.804l-68.151 37.912c-12.56 7.5765-17.334 20.336-17.612 35.222v29.562c0 5.871 3.267 9.8805 9.9585 9.8805h81.042v-49.688l13.546-7.6425v57.33h81.021c6.6885 0 10.012-4.0095 10.012-9.8805v-40.095c0-5.958-3.324-9.9015-10.012-9.9015l-76.281 0.0225 68.704-38.268c12.494-7.4985 17.268-20.302 17.589-35.088v-29.286c0-5.97-3.324-9.957-10.012-9.957h-81.021v49.332l-13.546 7.6215v-56.954zm94.588 202.89v65.88c9.2145-1.683 77.732-13.834 81.718-14.554 6.1695-1.119 9.315-4.962 9.315-10.599v-45.324c0-4.152-1.3065-6.246-3.6765-8.196-1.6515-1.329-4.155-1.8825-7.821-1.2615zm78.772 193.42c3.0675 1.7942 6.291 1.7942 8.3835 0.69795 2.448-1.2627 3.8775-4.0758 3.8775-7.111v-47.073c0-5.9355-3.201-11.242-7.986-14.199l-83.048-51.946v70.466c38.776 24.19 77.876 48.557 78.772 49.166m-129.98-426.76v-66.234l37.612 28.564v-77.222l-37.048-28.166c-11.452-8.6955-21.708-10.71-30.78-10.71h-12.903c-6.6135 0-10.224 3.9975-10.224 10.089v143.68c0 5.9265 3.267 9.891 9.9585 9.891h33.46c6.6675 0 9.924-3.9645 9.924-9.891"/>
</g>
</g>
</svg>
