<svg width="165" height="48" viewBox="0 0 165 48" fill="none" xmlns="http://www.w3.org/2000/svg">
<g clip-path="url(#clip0_842:1311)">
<path d="M-0.34082 2.82764H3.31322L6.41374 16.4751L9.88452 3.17546H12.8541L16.3249 16.4751L19.4254 2.82764H23.0832L18.2211 21.3784H14.7354L11.3693 8.8454L8.00327 21.3784H4.5063L-0.34082 2.82764Z" fill="black"/>
<path d="M25.2788 21.3784V2.82764H32.0633C35.2162 2.82764 37.363 4.44709 37.363 7.83558C37.363 9.33161 36.701 10.6444 35.5341 11.254C37.3106 11.9721 38.3167 13.427 38.3167 15.787C38.3167 19.4148 36.0091 21.3784 32.1942 21.3784H25.2788ZM28.7234 10.0347H31.8763C33.2564 10.0347 34.0493 9.53357 34.0493 8.02259C34.0493 6.5116 33.3012 6.01043 31.8052 6.01043H28.7309L28.7234 10.0347ZM28.7234 18.1956H31.8763C34.0231 18.1956 34.8683 17.2979 34.8683 15.7084C34.8683 14.1189 34.0193 13.2175 31.8763 13.2175H28.7234V18.1956Z" fill="black"/>
<path d="M48.7886 22.7023V1.49609H50.3781V22.7023H48.7886Z" fill="black"/>
<path d="M62.3052 21.3784V2.82764H68.7717C72.2388 2.82764 74.2734 4.86223 74.2734 8.12731C74.2734 11.3924 72.2388 13.427 68.768 13.427H64.6352V21.3784H62.3052ZM64.6352 11.2203H68.9027C70.8101 11.2203 71.8685 10.1357 71.8685 8.14601C71.8685 6.1563 70.8101 5.07168 68.9027 5.07168H64.6352V11.2203Z" fill="black"/>
<path d="M73.6934 21.3784L80.1076 2.82764H82.3516L88.7621 21.3784H86.432L84.7901 16.4228H77.684L76.0421 21.3784H73.6934ZM78.4096 14.2124H84.0197L81.2109 5.86457L78.4096 14.2124Z" fill="black"/>
<path d="M87.1992 2.82764H89.7724L93.7967 11.0558L97.836 2.82764H100.409L94.9748 13.3746V21.3784H92.6448V13.3746L87.1992 2.82764Z" fill="black"/>
<path d="M102.649 21.3784V2.82764H105.514L110.466 17.5186L115.414 2.82764H118.275V21.3784H115.945V7.85428L111.3 21.3185H109.658L104.983 7.85428V21.3784H102.649Z" fill="black"/>
<path d="M122.647 21.3784V2.82764H133.191V5.07168H124.981V10.3826H133.191V12.6079H124.981V19.153H133.191V21.3784H122.647Z" fill="black"/>
<path d="M136.452 21.3784V2.82764H139.182L147.556 17.3241V2.82764H149.886V21.3784H147.16L138.786 6.93797V21.3784H136.452Z" fill="black"/>
<path d="M152.292 5.05298V2.82764H165.326V5.07168H159.974V21.3784H157.644V5.05298H152.292Z" fill="black"/>
</g>
<path d="M49 45.0087H49.9725V44.002H50.092C50.3138 44.3603 50.7403 45.1452 52.0029 45.1452C53.6408 45.1452 54.784 43.8314 54.784 41.7499C54.784 39.6854 53.6408 38.3716 51.9858 38.3716C50.7062 38.3716 50.3138 39.1565 50.092 39.4977H50.0067V36.273H49V45.0087ZM49.9896 41.7328C49.9896 40.2655 50.6379 39.2759 51.8664 39.2759C53.146 39.2759 53.7773 40.3508 53.7773 41.7328C53.7773 43.1319 53.129 44.2409 51.8664 44.2409C50.655 44.2409 49.9896 43.2172 49.9896 41.7328Z" fill="#A6A6B0"/>
<path d="M56.7376 47.4656C57.6461 47.4656 58.2859 46.9836 58.6656 45.9642L61.4552 38.474L60.3547 38.4569L58.5461 43.6779H58.4779L56.6693 38.4569H55.5774L58.0002 45.0428L57.8125 45.5547C57.4456 46.5528 56.9935 46.6466 56.2598 46.459L56.0039 47.3462C56.1063 47.3974 56.3963 47.4656 56.7376 47.4656Z" fill="#A6A6B0"/>
<path d="M67.8886 45.0087H68.9806L70.9086 38.0474H70.9768L72.9048 45.0087H73.9968L76.3854 36.273H75.3105L73.4849 43.3878H73.3996L71.5399 36.273H70.3455L68.4858 43.3878H68.4005L66.5748 36.273H65.4999L67.8886 45.0087Z" fill="#A6A6B0"/>
<path d="M78.5736 41.0674C78.5736 39.9242 79.303 39.2759 80.2969 39.2759C81.2438 39.2759 81.8154 39.8731 81.8154 40.9138V45.0087H82.822V40.8456C82.822 39.1607 81.9263 38.3716 80.5869 38.3716C79.5547 38.3716 78.9661 38.8024 78.6589 39.4806H78.5736V36.273H77.567V45.0087H78.5736V41.0674Z" fill="#A6A6B0"/>
<path d="M84.6637 45.0087H85.6703V38.4569H84.6637V45.0087ZM85.1755 37.365C85.5679 37.365 85.8921 37.0578 85.8921 36.6825C85.8921 36.3071 85.5679 36 85.1755 36C84.7831 36 84.4589 36.3071 84.4589 36.6825C84.4589 37.0578 84.7831 37.365 85.1755 37.365Z" fill="#A6A6B0"/>
<path d="M90.3634 38.4569H88.9643V36.8872H87.9577V38.4569H86.9681V39.31H87.9577V43.4049C87.9577 44.548 88.879 45.094 89.7321 45.094C90.1075 45.094 90.3463 45.0258 90.4828 44.9746L90.2781 44.0703C90.1928 44.0873 90.0563 44.1215 89.8345 44.1215C89.3909 44.1215 88.9643 43.985 88.9643 43.1319V39.31H90.3634V38.4569Z" fill="#A6A6B0"/>
<path d="M94.5542 45.1452C95.8851 45.1452 96.8576 44.4798 97.1647 43.4902L96.1922 43.2172C95.9363 43.8997 95.3434 44.2409 94.5542 44.2409C93.3727 44.2409 92.558 43.4774 92.5111 42.074H97.2671V41.6475C97.2671 39.2076 95.8168 38.3716 94.4519 38.3716C92.6774 38.3716 91.5002 39.7707 91.5002 41.784C91.5002 43.7973 92.6604 45.1452 94.5542 45.1452ZM92.5111 41.2039C92.5793 40.1844 93.3002 39.2759 94.4519 39.2759C95.5438 39.2759 96.2434 40.0949 96.2434 41.2039H92.5111Z" fill="#A6A6B0"/>
<path d="M98.9349 45.0087H102.091C104.156 45.0087 105.009 44.002 105.009 42.6883C105.009 41.3063 104.053 40.5555 103.252 40.5043V40.419C104.002 40.2143 104.668 39.7195 104.668 38.5934C104.668 37.3138 103.815 36.273 101.989 36.273H98.9349V45.0087ZM99.9927 44.0703V41.0333H102.143C103.286 41.0333 104.002 41.801 104.002 42.6883C104.002 43.4561 103.473 44.0703 102.091 44.0703H99.9927ZM99.9927 40.1119V37.2114H101.989C103.149 37.2114 103.661 37.8256 103.661 38.5934C103.661 39.5148 102.91 40.1119 101.955 40.1119H99.9927Z" fill="#A6A6B0"/>
<path d="M107.805 36.273H106.747V45.0087H107.805V36.273Z" fill="#A6A6B0"/>
<path d="M109.448 37.2114H112.195V45.0087H113.253V37.2114H116V36.273H109.448V37.2114Z" fill="#A6A6B0"/>
<defs>
<clipPath id="clip0_842:1311">
<rect width="165" height="24" fill="white"/>
</clipPath>
</defs>
</svg>
