<svg xmlns="http://www.w3.org/2000/svg" width="150" height="150" fill="none" xmlns:v="https://vecta.io/nano"><g clip-path="url(#A)"><rect width="150" height="150" rx="50" fill="#212121"/><path d="M135 100.577V74.493l-6.522-6.631h-2.174V46.199L101.522 21H48.478L23.696 46.199v21.663h-2.174L15 74.493v26.084l6.522 6.631h1.304l-6.522 42.883h7.391l6.087-38.904 23.044 23.431h13.478L75 125.334l9.13 9.284h13.478l23.043-23.431 6.087 38.904h7.391l-6.521-42.883h1.304zm-40.435 26.967h-7.826l-10-10.168h-3.478l-10 10.168h-7.826l-23.043-23.431 12.174-8.841 19.13 19.453h22.609l19.131-19.452 12.174 8.841zM48.478 88.64V57.694l12.174-.884c3.478-.442 10.435-2.211 14.348-4.863 4.348 2.653 11.304 3.979 14.783 4.863l11.739.884V88.64l-18.261 18.568H67.174zm79.565 8.842l-2.608 2.21h-1.305l-15.652-11.494V50.62l-17.826-1.326c-5.217-.884-10.435-2.653-12.174-3.979v-.442h-6.957v.442c-1.739 1.326-6.957 3.095-11.739 3.537L41.522 50.62v37.578L25.87 99.692h-1.304l-2.609-2.653V76.704l2.609-2.653h6.522V47.968l20.435-20.778h46.957l20.435 20.778v26.084h6.522l2.608 2.653z" fill="#fff"/></g><defs><clipPath id="A"><rect width="150" height="150" rx="50" fill="#fff"/></clipPath></defs></svg>