<?xml version="1.0" encoding="UTF-8" standalone="no"?>
<svg
   xmlns:dc="http://purl.org/dc/elements/1.1/"
   xmlns:cc="http://creativecommons.org/ns#"
   xmlns:rdf="http://www.w3.org/1999/02/22-rdf-syntax-ns#"
   xmlns:svg="http://www.w3.org/2000/svg"
   xmlns="http://www.w3.org/2000/svg"
   xmlns:sodipodi="http://sodipodi.sourceforge.net/DTD/sodipodi-0.dtd"
   xmlns:inkscape="http://www.inkscape.org/namespaces/inkscape"
   id="master-artboard"
   viewBox="0 0 168.063 239.74783"
   version="1.1"
   x="0px"
   y="0px"
   width="168.063"
   height="239.74783"
   inkscape:version="0.91 r13725"
   sodipodi:docname="icon.svg">
  <sodipodi:namedview
     pagecolor="#ffffff"
     bordercolor="#666666"
     borderopacity="1"
     objecttolerance="10"
     gridtolerance="10"
     guidetolerance="10"
     inkscape:pageopacity="0"
     inkscape:pageshadow="2"
     inkscape:window-width="2560"
     inkscape:window-height="1390"
     id="namedview17"
     showgrid="false"
     fit-margin-top="0"
     fit-margin-left="0"
     fit-margin-right="0"
     fit-margin-bottom="0"
     inkscape:zoom="2.738596"
     inkscape:cx="92.072435"
     inkscape:cy="127.37232"
     inkscape:window-x="0"
     inkscape:window-y="0"
     inkscape:window-maximized="1"
     inkscape:current-layer="master-artboard" />
  <rect
     id="ee-background"
     x="-1.8183025"
     y="-2.2165234"
     width="173.63176"
     height="243.74124"
     style="fill:#ffffff;fill-opacity:0" />
  <defs
     id="defs4">
    <clipPath
       id="clipPath20"
       clipPathUnits="userSpaceOnUse">
      <path
         id="path18"
         d="m 0,2834.646 2834.646,0 L 2834.646,0 0,0 Z"
         inkscape:connector-curvature="0" />
    </clipPath>
  </defs>
  <metadata
     id="metadata8">
    <rdf:RDF>
      <cc:Work
         rdf:about="">
        <dc:format>image/svg+xml</dc:format>
        <dc:type
           rdf:resource="http://purl.org/dc/dcmitype/StillImage" />
        <dc:title></dc:title>
      </cc:Work>
    </rdf:RDF>
  </metadata>
  <g
     transform="matrix(0.34572187,0,0,-0.34572187,0.01785184,176.54123)"
     id="g58">
    <path
       id="path60"
       style="fill:#5bc23c;fill-opacity:1;fill-rule:nonzero;stroke:none"
       d="m 0,0 0,-73.856 c 0,0 119.866,-108.969 248.207,-108.969 128.341,0 237.812,108.969 237.812,108.969 l 0,72.645 C 486.03,-0.539 369.888,-72.932 249.72,-72.797 126.901,-72.659 0,0 0,0"
       inkscape:connector-curvature="0" />
  </g>
  <g
     transform="matrix(0.34572187,0,0,-0.34572187,168.0274,82.625453)"
     id="g62">
    <path
       id="path64"
       style="fill:#32ac4c;fill-opacity:1;fill-rule:nonzero;stroke:none"
       d="m 0,0 0,2.949 -0.074,0 c -3.723,130.985 -110.998,236.045 -242.884,236.045 -131.886,0 -239.161,-105.06 -242.883,-236.045 l -0.178,0 0,-236.45 c 0,0 107.507,-66.301 253.707,-66.301 C -93.68,-299.802 0,-232.301 0,-232.301 L 0,-8.134 c 0.022,1.359 0.103,2.703 0.103,4.067 C 0.103,-2.703 0.022,-1.359 0,0"
       inkscape:connector-curvature="0" />
  </g>
  <g
     transform="matrix(0.34572187,0,0,-0.34572187,87.136419,126.78066)"
     id="g66">
    <path
       id="path68"
       style="fill:#ffffff;fill-opacity:1;fill-rule:nonzero;stroke:none"
       d="m 0,0 c 49.399,0 89.445,40.046 89.445,89.445 0,49.399 -40.046,89.445 -89.445,89.445 -49.399,0 -89.445,-40.046 -89.445,-89.445 C -89.445,40.046 -49.399,0 0,0"
       inkscape:connector-curvature="0" />
  </g>
  <g
     transform="matrix(0.34572187,0,0,-0.34572187,130.43724,179.63078)"
     id="g70">
    <path
       id="path72"
       style="fill:#ffffff;fill-opacity:1;fill-rule:nonzero;stroke:none"
       d="m 0,0 c -5.654,77.442 -59.553,138.186 -125.248,138.186 -66.402,0 -120.74,-62.064 -125.4,-140.699 -74.391,20.376 -127.214,50.799 -127.214,50.799 l 0,-40.089 c 0,0 132.749,-74.154 252.522,-74.154 119.773,0 234.602,70.299 234.602,70.299 l 0.052,43.944 C 109.314,48.286 51.373,14.915 0,0"
       inkscape:connector-curvature="0" />
  </g>
</svg>
