<?xml version="1.0" encoding="UTF-8"?>
<svg version="1.1" viewBox="0 0 168.06 239.75" xmlns="http://www.w3.org/2000/svg" xmlns:cc="http://creativecommons.org/ns#" xmlns:dc="http://purl.org/dc/elements/1.1/" xmlns:rdf="http://www.w3.org/1999/02/22-rdf-syntax-ns#">
<rect x="-1.8183" y="-2.2165" width="173.63" height="243.74" fill-opacity="0"/>
<metadata>
<rdf:RDF>
<cc:Work rdf:about="">
<dc:format>image/svg+xml</dc:format>
<dc:type rdf:resource="http://purl.org/dc/dcmitype/StillImage"/>
<dc:title/>
</cc:Work>
</rdf:RDF>
</metadata>
<g transform="matrix(.34572 0 0 -.34572 .017852 176.54)">
<path d="m0 0v-73.856s119.87-108.97 248.21-108.97 237.81 108.97 237.81 108.97v72.645c0.011 0.672-116.13-71.721-236.3-71.586-122.82 0.138-249.72 72.797-249.72 72.797" fill="#5bc23c"/>
</g>
<g transform="matrix(.34572 0 0 -.34572 168.03 82.625)">
<path d="m0 0v2.949h-0.074c-3.723 130.98-111 236.04-242.88 236.04s-239.16-105.06-242.88-236.04h-0.178v-236.45s107.51-66.301 253.71-66.301c138.63 0 232.31 67.501 232.31 67.501v224.17c0.022 1.359 0.103 2.703 0.103 4.067s-0.081 2.708-0.103 4.067" fill="#32ac4c"/>
</g>
<g transform="matrix(.34572 0 0 -.34572 87.136 126.78)">
<path d="m0 0c49.399 0 89.445 40.046 89.445 89.445s-40.046 89.445-89.445 89.445-89.445-40.046-89.445-89.445 40.046-89.445 89.445-89.445" fill="#fff"/>
</g>
<g transform="matrix(.34572 0 0 -.34572 130.44 179.63)">
<path d="m0 0c-5.654 77.442-59.553 138.19-125.25 138.19-66.402 0-120.74-62.064-125.4-140.7-74.391 20.376-127.21 50.799-127.21 50.799v-40.089s132.75-74.154 252.52-74.154 234.6 70.299 234.6 70.299l0.052 43.944s-57.941-33.371-109.31-48.286" fill="#fff"/>
</g>
</svg>
