<?xml version="1.0" encoding="UTF-8"?>
<svg version="1.1" viewBox="0 0 142 50" xmlns="http://www.w3.org/2000/svg" xmlns:xlink="http://www.w3.org/1999/xlink">
<title>logo@3x</title>
<desc>Created with Sketch.</desc>
<defs>
<polygon id="a" points="11.888 49.823 11.888 0.47735 0.61461 0.47735 0.61461 49.823"/>
</defs>
<g fill="none" fill-rule="evenodd">
<path d="m62 23v-22h11.064c5.1472 0 7.9359 3.225 7.9359 7.0786 0 3.8432-2.8297 7.1069-7.9359 7.1069h-6.0266v7.8145h-5.0375zm13.869-14.921c0-1.8412-1.4909-2.9598-3.4807-2.9598h-5.3506v5.9331h5.3506c1.9898 0 3.4807-1.1425 3.4807-2.9733z" fill="#FF7226"/>
<path d="m99.378 23-1.4022-3.729h-9.9101l-1.4577 3.729h-5.6074l8.9383-22h6.1638l8.8978 22h-5.6224zm-6.3573-17.322-3.6098 9.4753h7.2196l-3.6098-9.4753z" fill="#FF7226"/>
<polygon points="112.65 23 112.65 14 104 1 109.45 1 115.05 9.8289 120.55 1 126 1 117.43 14 117.43 23" fill="#FF7226"/>
<path d="m62 50v-22h11.372c4.0986 0 6.195 2.671 6.195 5.6028 0 2.7798-1.6769 4.6241-3.7109 5.0546 2.3041 0.35008 4.1436 2.6219 4.1436 5.4032 0 3.3012-2.1691 5.9395-6.2836 5.9395h-11.716zm12.884-15.566c0-1.3824-0.97274-2.3969-2.5291-2.3969h-5.7609v4.7745h5.7609c1.5564 0 2.5291-0.99512 2.5291-2.3776zm0.41813 8.9636c0-1.378-0.97274-2.5608-2.7832-2.5608h-5.925v5.1097h5.925c1.7509 0 2.7832-0.96533 2.7832-2.5489z" fill="#3681C7"/>
<path d="m82 38.5c0-6.7082 4.8364-11.5 11.477-11.5 6.6569 0 11.523 4.7918 11.523 11.5 0 6.6949-4.8661 11.5-11.523 11.5-6.6406 0-11.477-4.8051-11.477-11.5m18.18 0c0-4.1628-2.6476-7.3061-6.703-7.3061s-6.6718 3.1432-6.6718 7.3061c0 4.1347 2.6164 7.3061 6.6718 7.3061s6.703-3.1713 6.703-7.3061" fill="#3681C7"/>
<polygon points="121.45 50 115.99 41.942 110.51 50 105 50 112.89 38.718 105.48 28 111.01 28 115.99 35.523 120.93 28 126.51 28 119.11 38.684 127 50" fill="#3681C7"/>
<polygon points="0 24.5 7.1256 12.251 11.111 5.396 14.313 10.779 11.873 14.971 6.3314 24.5 11.873 34.031 17.415 43.558 17.487 43.558 28.789 24.441 17.487 5.4417 17.415 5.4417 14.214 0.063361 14.251 0 20.525 0 28.501 0 42.752 0 49.877 12.251 57 24.5 49.877 36.751 42.752 49 28.501 49 26.774 49 30 43.558 39.585 43.558 45.127 34.031 50.67 24.5 45.127 14.971 39.585 5.4417 28.501 5.4417 23.764 5.4417 35.073 24.443 23.746 43.558 23.759 43.558 20.52 49 14.251 49 7.1256 36.751" fill="#3681C7"/>
<g transform="translate(130)">
<mask id="b" fill="white">
<use xlink:href="#a"/>
</mask>
<path d="m0.93383 7.8198 6.929-2.889c0.17044-0.0645 0.28022-0.0945 0.35822-0.0945s0.18633 0.048 0.32644 0.1125c0.69911 0.3225 1.2263 0.8055 1.5224 1.194 0.34233 0.4185 0.559 0.888 0.66733 1.242l1.1512-0.354c-0.063556-0.357-0.29611-1.0515-0.88544-1.743-0.80889-0.9705-2.1291-1.6635-4.7089-2.6805l-5.3603-2.13v1.5l4.4128 1.5525c0.54456 0.1935 1.118 0.3525 1.5701 0.4995v0.03c-0.45211 0.129-1.0429 0.3255-1.5398 0.501l-4.4431 1.7115v1.548zm3.0304 6.2445c-0.949-0.111-2.223-0.741-2.223-2.1765 0-1.599 1.352-1.9845 2.223-1.971v4.1475zm0.97789-5.4675c-0.14011-0.0165-0.35822-0.051-0.637-0.051-1.3823 0-3.5418 0.6795-3.5418 3.2295 0 2.2725 1.7853 3.66 4.0531 3.66 2.2707 0 3.7917-1.4355 3.7917-3.8385 0-1.245-0.247-2.1-0.46511-2.5995l-0.97933 0.2415c0.21811 0.5355 0.38856 1.1475 0.38856 2.1645 0 1.4205-0.75978 2.6445-2.6101 2.679v-5.4855zm3.5114 15.231v-1.419h-4.5211c-0.234 0-0.46656-0.0345-0.637-0.099-0.76267-0.2415-1.3982-0.966-1.3982-1.902 0-1.341 1.0097-1.8075 2.2216-1.8075h4.3348v-1.422h-4.4893c-2.5798 0-3.2009 1.677-3.2009 2.7585 0 1.2915 0.69767 2.1975 1.4127 2.5845v0.03l-1.2422 0.081v1.26c0.62111-0.048 1.2581-0.0645 2.0352-0.0645h5.4846zm-6.6647 5.5845c0-1.6815 1.6149-2.343 2.8889-2.343 1.6943 0 2.9207 1.0185 2.9207 2.373 0 1.389-1.2422 2.3715-2.8903 2.3715-1.4286 0-2.9192-0.7245-2.9192-2.4015zm-1.0256-0.0345c0 2.1615 1.4748 3.8715 3.9924 3.8715 2.3776 0 3.8682-1.629 3.8682-3.744 0-1.887-1.2119-3.888-3.9924-3.888-2.2996 0-3.8682 1.518-3.8682 3.7605zm7.6902 16.767v-1.3905h-4.537c-0.234 0-0.46656-0.03-0.66733-0.111-0.68467-0.228-1.3679-0.8715-1.3679-1.758 0-1.083 0.871-1.632 2.067-1.632h4.5052v-1.3875h-4.6468c-0.24844 0-0.49544-0.048-0.68178-0.1125-0.66878-0.2415-1.2437-0.8715-1.2437-1.677 0-1.1475 0.871-1.6965 2.3154-1.6965h4.2568v-1.3875h-4.4272c-2.6116 0-3.263 1.536-3.263 2.565 0 0.7425 0.18489 1.26 0.52722 1.7295 0.23256 0.3195 0.56044 0.627 0.97933 0.8715v0.03c-0.88544 0.3405-1.5066 1.1475-1.5066 2.2125 0 1.2885 0.66733 2.0145 1.3823 2.4495v0.051l-1.2119 0.066v1.242c0.62111-0.048 1.2581-0.0645 2.0352-0.0645h5.4846zm-5.8803 2.724c0-0.594-0.41889-0.966-0.97933-0.966-0.57344 0-0.97933 0.3855-0.97933 0.9495 0 0.5655 0.40589 0.9705 0.97933 0.9705 0.56044 0 0.97933-0.3885 0.97933-0.954z" fill="#FF7226" mask="url(#b)"/>
</g>
</g>
</svg>
