<?xml version="1.0" encoding="UTF-8" standalone="no"?>
<svg
   xmlns:dc="http://purl.org/dc/elements/1.1/"
   xmlns:cc="http://creativecommons.org/ns#"
   xmlns:rdf="http://www.w3.org/1999/02/22-rdf-syntax-ns#"
   xmlns:svg="http://www.w3.org/2000/svg"
   xmlns="http://www.w3.org/2000/svg"
   xmlns:sodipodi="http://sodipodi.sourceforge.net/DTD/sodipodi-0.dtd"
   xmlns:inkscape="http://www.inkscape.org/namespaces/inkscape"
   version="1.1"
   id="Layer_2"
   x="0"
   y="0"
   viewBox="0 0 35.799999 35.799999"
   xml:space="preserve"
   sodipodi:docname="icon.svg"
   width="35.799999"
   height="35.799999"
   inkscape:version="0.92.3 (2405546, 2018-03-11)"><metadata
     id="metadata15"><rdf:RDF><cc:Work
         rdf:about=""><dc:format>image/svg+xml</dc:format><dc:type
           rdf:resource="http://purl.org/dc/dcmitype/StillImage" /><dc:title></dc:title></cc:Work></rdf:RDF></metadata><defs
     id="defs13" /><sodipodi:namedview
     pagecolor="#ffffff"
     bordercolor="#666666"
     borderopacity="1"
     objecttolerance="10"
     gridtolerance="10"
     guidetolerance="10"
     inkscape:pageopacity="0"
     inkscape:pageshadow="2"
     inkscape:window-width="1920"
     inkscape:window-height="1132"
     id="namedview11"
     showgrid="false"
     fit-margin-top="0"
     fit-margin-left="0"
     fit-margin-right="0"
     fit-margin-bottom="0"
     inkscape:zoom="3.6818182"
     inkscape:cx="59.217847"
     inkscape:cy="-2.0035981"
     inkscape:window-x="1920"
     inkscape:window-y="0"
     inkscape:window-maximized="1"
     inkscape:current-layer="Layer_2" /><style
     id="style2">.st0{fill:#5f259f}</style><circle
     style="fill:#5f259f"
     transform="rotate(-76.714)"
     class="st0"
     cx="-13.307274"
     cy="21.53454"
     r="17.9"
     id="circle4" /><path
     style="fill:#ffffff"
     inkscape:connector-curvature="0"
     d="m 26.02408,13.228426 c 0,-0.7 -0.6,-1.3 -1.3,-1.3 h -2.4 l -5.5,-6.3000001 c -0.5,-0.6 -1.3,-0.8 -2.1,-0.6 l -1.9,0.6 c -0.3,0.1 -0.4,0.5 -0.2,0.7 l 6,5.7000001 H 9.5240792 c -0.3,0 -0.5,0.2 -0.5,0.5 v 1 c 0,0.7 0.6,1.3 1.3000008,1.3 h 1.4 v 4.8 c 0,3.6 1.9,5.7 5.1,5.7 1,0 1.8,-0.1 2.8,-0.5 v 3.2 c 0,0.9 0.7,1.6 1.6,1.6 h 1.4 c 0.3,0 0.6,-0.3 0.6,-0.6 v -14.3 h 2.3 c 0.3,0 0.5,-0.2 0.5,-0.5 z m -6.4,8.6 c -0.6,0.3 -1.4,0.4 -2,0.4 -1.6,0 -2.4,-0.8 -2.4,-2.6 v -4.8 h 4.4 z"
     id="path8" /></svg>