<?xml version="1.0" encoding="UTF-8" standalone="no"?>
<svg
   xmlns:dc="http://purl.org/dc/elements/1.1/"
   xmlns:cc="http://creativecommons.org/ns#"
   xmlns:rdf="http://www.w3.org/1999/02/22-rdf-syntax-ns#"
   xmlns:svg="http://www.w3.org/2000/svg"
   xmlns="http://www.w3.org/2000/svg"
   xmlns:sodipodi="http://sodipodi.sourceforge.net/DTD/sodipodi-0.dtd"
   xmlns:inkscape="http://www.inkscape.org/namespaces/inkscape"
   version="1.1"
   id="Layer_2"
   x="0"
   y="0"
   viewBox="0 0 131.82408 35.799999"
   xml:space="preserve"
   sodipodi:docname="logo.svg"
   width="131.82408"
   height="35.799999"
   inkscape:version="0.92.3 (2405546, 2018-03-11)"><metadata
     id="metadata15"><rdf:RDF><cc:Work
         rdf:about=""><dc:format>image/svg+xml</dc:format><dc:type
           rdf:resource="http://purl.org/dc/dcmitype/StillImage" /><dc:title></dc:title></cc:Work></rdf:RDF></metadata><defs
     id="defs13" /><sodipodi:namedview
     pagecolor="#ffffff"
     bordercolor="#666666"
     borderopacity="1"
     objecttolerance="10"
     gridtolerance="10"
     guidetolerance="10"
     inkscape:pageopacity="0"
     inkscape:pageshadow="2"
     inkscape:window-width="1920"
     inkscape:window-height="1132"
     id="namedview11"
     showgrid="false"
     fit-margin-top="0"
     fit-margin-left="0"
     fit-margin-right="0"
     fit-margin-bottom="0"
     inkscape:zoom="3.6818182"
     inkscape:cx="59.217847"
     inkscape:cy="-2.0035983"
     inkscape:window-x="1920"
     inkscape:window-y="0"
     inkscape:window-maximized="1"
     inkscape:current-layer="Layer_2" /><style
     id="style2">.st0{fill:#5f259f}</style><g
     id="g828"
     transform="translate(0.02407858,-6.0715739)"><circle
       id="circle4"
       r="17.9"
       cy="24"
       cx="17.9"
       class="st0"
       transform="rotate(-76.714,17.87,24.001)"
       style="fill:#5f259f" /><path
       id="path6"
       d="m 90.5,34.2 v -6.5 c 0,-1.6 -0.6,-2.4 -2.1,-2.4 -0.6,0 -1.3,0.1 -1.7,0.2 V 35 c 0,0.3 -0.3,0.6 -0.6,0.6 h -2.3 c -0.3,0 -0.6,-0.3 -0.6,-0.6 V 23.9 c 0,-0.4 0.3,-0.7 0.6,-0.8 1.5,-0.5 3,-0.8 4.6,-0.8 3.6,0 5.6,1.9 5.6,5.4 v 7.4 c 0,0.3 -0.3,0.6 -0.6,0.6 H 92 c -0.9,0 -1.5,-0.7 -1.5,-1.5 z m 9,-3.9 -0.1,0.9 c 0,1.2 0.8,1.9 2.1,1.9 1,0 1.9,-0.3 2.9,-0.8 0.1,0 0.2,-0.1 0.3,-0.1 0.2,0 0.3,0.1 0.4,0.2 0.1,0.1 0.3,0.4 0.3,0.4 0.2,0.3 0.4,0.7 0.4,1 0,0.5 -0.3,1 -0.7,1.2 -1.1,0.6 -2.4,0.9 -3.8,0.9 -1.6,0 -2.9,-0.4 -3.9,-1.2 -1,-0.9 -1.6,-2.1 -1.6,-3.6 v -3.9 c 0,-3.1 2,-5 5.4,-5 3.3,0 5.2,1.8 5.2,5 v 2.4 c 0,0.3 -0.3,0.6 -0.6,0.6 h -6.3 z m -0.1,-2.2 h 3.8 v -1 c 0,-1.2 -0.7,-2 -1.9,-2 -1.2,0 -1.9,0.7 -1.9,2 z m 25.5,2.2 -0.1,0.9 c 0,1.2 0.8,1.9 2.1,1.9 1,0 1.9,-0.3 2.9,-0.8 0.1,0 0.2,-0.1 0.3,-0.1 0.2,0 0.3,0.1 0.4,0.2 0.1,0.1 0.3,0.4 0.3,0.4 0.2,0.3 0.4,0.7 0.4,1 0,0.5 -0.3,1 -0.7,1.2 -1.1,0.6 -2.4,0.9 -3.8,0.9 -1.6,0 -2.9,-0.4 -3.9,-1.2 -1,-0.9 -1.6,-2.1 -1.6,-3.6 v -3.9 c 0,-3.1 2,-5 5.4,-5 3.3,0 5.2,1.8 5.2,5 v 2.4 c 0,0.3 -0.3,0.6 -0.6,0.6 h -6.3 z m -0.1,-2.2 h 3.8 v -1 c 0,-1.2 -0.7,-2 -1.9,-2 -1.2,0 -1.9,0.7 -1.9,2 z M 66,35.7 h 1.4 c 0.3,0 0.6,-0.3 0.6,-0.6 v -7.4 c 0,-3.4 -1.8,-5.4 -4.8,-5.4 -0.9,0 -1.9,0.2 -2.5,0.4 V 19 c 0,-0.8 -0.7,-1.5 -1.5,-1.5 h -1.4 c -0.3,0 -0.6,0.3 -0.6,0.6 v 17 c 0,0.3 0.3,0.6 0.6,0.6 h 2.3 c 0.3,0 0.6,-0.3 0.6,-0.6 v -9.4 c 0.5,-0.2 1.2,-0.3 1.7,-0.3 1.5,0 2.1,0.7 2.1,2.4 v 6.5 c 0.1,0.7 0.7,1.4 1.5,1.4 z M 81.1,27.3 V 31 c 0,3.1 -2.1,5 -5.6,5 -3.4,0 -5.6,-1.9 -5.6,-5 v -3.7 c 0,-3.1 2.1,-5 5.6,-5 3.5,0 5.6,1.9 5.6,5 z m -3.5,0 c 0,-1.2 -0.7,-2 -2,-2 -1.3,0 -2,0.7 -2,2 V 31 c 0,1.2 0.7,1.9 2,1.9 1.3,0 2,-0.7 2,-1.9 z M 55.3,25.6 c 0,3.2 -2.4,5.4 -5.6,5.4 -0.8,0 -1.5,-0.1 -2.2,-0.4 v 4.5 c 0,0.3 -0.3,0.6 -0.6,0.6 H 44.6 C 44.3,35.7 44,35.4 44,35.1 V 19.2 c 0,-0.4 0.3,-0.7 0.6,-0.8 1.5,-0.5 3,-0.8 4.6,-0.8 3.6,0 6.1,2.2 6.1,5.6 z M 51.7,23 c 0,-1.6 -1.1,-2.4 -2.6,-2.4 -0.9,0 -1.5,0.3 -1.5,0.3 v 6.6 c 0.6,0.3 0.9,0.4 1.6,0.4 1.5,0 2.6,-0.9 2.6,-2.4 V 23 Z m 68.2,2.6 c 0,3.2 -2.4,5.4 -5.6,5.4 -0.8,0 -1.5,-0.1 -2.2,-0.4 v 4.5 c 0,0.3 -0.3,0.6 -0.6,0.6 h -2.3 c -0.3,0 -0.6,-0.3 -0.6,-0.6 V 19.2 c 0,-0.4 0.3,-0.7 0.6,-0.8 1.5,-0.5 3,-0.8 4.6,-0.8 3.6,0 6.1,2.2 6.1,5.6 z M 116.3,23 c 0,-1.6 -1.1,-2.4 -2.6,-2.4 -0.9,0 -1.5,0.3 -1.5,0.3 v 6.6 c 0.6,0.3 0.9,0.4 1.6,0.4 1.5,0 2.6,-0.9 2.6,-2.4 V 23 Z"
       class="st0"
       inkscape:connector-curvature="0"
       style="fill:#5f259f" /><path
       id="path8"
       d="M 26,19.3 C 26,18.6 25.4,18 24.7,18 h -2.4 l -5.5,-6.3 c -0.5,-0.6 -1.3,-0.8 -2.1,-0.6 l -1.9,0.6 c -0.3,0.1 -0.4,0.5 -0.2,0.7 l 6,5.7 H 9.5 C 9.2,18.1 9,18.3 9,18.6 v 1 c 0,0.7 0.6,1.3 1.3,1.3 h 1.4 v 4.8 c 0,3.6 1.9,5.7 5.1,5.7 1,0 1.8,-0.1 2.8,-0.5 v 3.2 c 0,0.9 0.7,1.6 1.6,1.6 h 1.4 c 0.3,0 0.6,-0.3 0.6,-0.6 V 20.8 h 2.3 c 0.3,0 0.5,-0.2 0.5,-0.5 z m -6.4,8.6 c -0.6,0.3 -1.4,0.4 -2,0.4 -1.6,0 -2.4,-0.8 -2.4,-2.6 v -4.8 h 4.4 z"
       inkscape:connector-curvature="0"
       style="fill:#ffffff" /></g></svg>