<svg xmlns="http://www.w3.org/2000/svg" width="293.644" height="29.708" viewBox="0 0 293.644 29.708"><path d="M255.523,139.245c-4.826,3.561-11.82,5.454-17.844,5.454a32.289,32.289,0,0,1-21.8-8.315c-.452-.408-.049-.965.494-.649a43.875,43.875,0,0,0,21.809,5.786,43.394,43.394,0,0,0,16.635-3.4c.816-.346,1.5.537.7,1.127" transform="translate(-204.005 -114.991)" fill="#192330" fill-rule="evenodd"/><path d="M269.726,136.657c-.617-.79-4.08-.375-5.635-.189-.471.057-.545-.355-.119-.653,2.762-1.94,7.287-1.38,7.813-.73s-.139,5.192-2.727,7.357c-.4.333-.777.155-.6-.284.583-1.455,1.887-4.711,1.269-5.5" transform="translate(-216.2 -114.695)" fill="#192330" fill-rule="evenodd"/><path d="M264.21,117.146v-1.885a.466.466,0,0,1,.478-.477h8.448a.471.471,0,0,1,.487.476v1.617a2.662,2.662,0,0,1-.636,1.187l-4.376,6.247a9.377,9.377,0,0,1,4.818,1.035.858.858,0,0,1,.448.736v2.012c0,.277-.3.6-.622.43a9.731,9.731,0,0,0-8.926.016c-.294.157-.6-.16-.6-.437v-1.911a2.278,2.278,0,0,1,.315-1.3l5.07-7.274H264.7a.469.469,0,0,1-.488-.474" transform="translate(-216.209 -109.692)" fill="#192330" fill-rule="evenodd"/><path d="M284.774,114.407c3.815,0,5.877,3.276,5.877,7.439,0,4.024-2.279,7.217-5.877,7.217-3.742,0-5.783-3.276-5.783-7.357,0-4.108,2.063-7.3,5.783-7.3m.023,2.693c-1.895,0-2.015,2.581-2.015,4.191s-.024,5.052,1.992,5.052c1.992,0,2.087-2.776,2.087-4.468a12.219,12.219,0,0,0-.384-3.5,1.609,1.609,0,0,0-1.68-1.276" transform="translate(-220.087 -109.596)" fill="#192330" fill-rule="evenodd"/><path d="M252.768,122.442a5.044,5.044,0,0,1-.481,2.727,2.087,2.087,0,0,1-1.779,1.168c-.985,0-1.562-.751-1.562-1.864,0-2.189,1.963-2.587,3.822-2.587Zm2.591,6.267a.55.55,0,0,1-.607.06,6.718,6.718,0,0,1-1.473-1.713,5.1,5.1,0,0,1-4.237,1.868,3.647,3.647,0,0,1-3.847-4.006,4.364,4.364,0,0,1,2.741-4.2,17.753,17.753,0,0,1,4.832-.891,4.542,4.542,0,0,0-.312-2.2,1.8,1.8,0,0,0-1.443-.668,1.957,1.957,0,0,0-2.057,1.511c-.051.286-.263.525-.484.5l-2.462-.267a.453.453,0,0,1-.384-.537c.573-3.022,3.3-3.935,5.748-3.935a5.827,5.827,0,0,1,3.871,1.28c1.25,1.168,1.13,2.727,1.13,4.424v4a3.509,3.509,0,0,0,.97,2.382.485.485,0,0,1-.008.683c-.525.44-1.977,1.7-1.977,1.7" transform="translate(-211.501 -109.553)" fill="#192330" fill-rule="evenodd"/><path d="M207.6,122.442a5.044,5.044,0,0,1-.48,2.727,2.087,2.087,0,0,1-1.779,1.168c-.985,0-1.563-.751-1.563-1.864,0-2.189,1.964-2.587,3.822-2.587Zm2.592,6.267a.549.549,0,0,1-.607.06,6.7,6.7,0,0,1-1.473-1.713,5.1,5.1,0,0,1-4.237,1.868,3.648,3.648,0,0,1-3.848-4.006,4.365,4.365,0,0,1,2.741-4.2,17.758,17.758,0,0,1,4.832-.891,4.544,4.544,0,0,0-.311-2.2,1.8,1.8,0,0,0-1.443-.668,1.956,1.956,0,0,0-2.057,1.511c-.053.286-.263.525-.485.5l-2.462-.267a.452.452,0,0,1-.383-.537c.572-3.022,3.3-3.935,5.748-3.935a5.826,5.826,0,0,1,3.871,1.28c1.25,1.168,1.13,2.727,1.13,4.424v4a3.512,3.512,0,0,0,.97,2.382.485.485,0,0,1-.008.683c-.525.44-1.977,1.7-1.977,1.7" transform="translate(-200.026 -109.553)" fill="#192330" fill-rule="evenodd"/><path d="M222.527,121.318c0-1.527-.072-3.636,1.776-3.636,1.822,0,1.583,2.165,1.583,3.636l0,6.994a.482.482,0,0,0,.462.473h2.568a.484.484,0,0,0,.5-.474v-6.993a7.994,7.994,0,0,1,.239-2.526,1.7,1.7,0,0,1,1.536-1.082,1.34,1.34,0,0,1,1.511,1.138,16.871,16.871,0,0,1,.072,2.47v6.994a.482.482,0,0,0,.461.473H235.8a.484.484,0,0,0,.5-.474l0-8.325c0-1.415.167-3.026-.647-4.136a3.8,3.8,0,0,0-6.526,1c-.72-1.666-1.728-2.443-3.334-2.443a3.391,3.391,0,0,0-3.383,2.443h-.048v-1.684a.48.48,0,0,0-.48-.48h-2.4a.48.48,0,0,0-.48.48v13.139a.48.48,0,0,0,.48.48h2.567a.48.48,0,0,0,.48-.48Z" transform="translate(-204.847 -109.596)" fill="#192330" fill-rule="evenodd"/><path d="M300.726,128.306a.481.481,0,0,1-.48.48h-2.566a.481.481,0,0,1-.48-.48v-13.14a.48.48,0,0,1,.48-.48h2.373a.473.473,0,0,1,.48.375v2.011h.049c.72-1.8,1.727-2.665,3.5-2.665a3.37,3.37,0,0,1,3,1.555c.671,1.055.671,2.831.671,4.108v8.3a.487.487,0,0,1-.492.415h-2.577a.485.485,0,0,1-.457-.415l0-7.971c0-2.668-1.021-2.745-1.611-2.745a1.758,1.758,0,0,0-1.478,1.035,5.951,5.951,0,0,0-.418,2.518Z" transform="translate(-224.713 -109.596)" fill="#192330" fill-rule="evenodd"/><g transform="translate(91.017)"><path d="M322.6,134.467a.491.491,0,0,1-.556-.556V115.2a.491.491,0,0,1,.556-.556h1.223a.732.732,0,0,1,.789.556l-.01.89a6.936,6.936,0,0,1,4.7-1.863,5.14,5.14,0,0,1,4.254,1.96,8.337,8.337,0,0,1,1.557,5.325,8.536,8.536,0,0,1-1.64,5.477,5.3,5.3,0,0,1-4.365,2.058,6.191,6.191,0,0,1-4.309-1.641v6.506a.492.492,0,0,1-.557.556Zm5.867-7.645q3.837,0,3.836-5.172a6.683,6.683,0,0,0-.931-3.92,3.292,3.292,0,0,0-2.849-1.279,6.208,6.208,0,0,0-3.726,1.279v7.757A6.136,6.136,0,0,0,328.463,126.822Z" transform="translate(-322.04 -109.55)" fill="#58a733"/><path d="M346.02,129.1a4.383,4.383,0,0,1-3.156-1.126,4.394,4.394,0,0,1,.264-6.256,5.874,5.874,0,0,1,3.892-1.209,14.98,14.98,0,0,1,3.5.473v-1.836a2.742,2.742,0,0,0-.681-2.113,3.474,3.474,0,0,0-2.322-.612,12.891,12.891,0,0,0-3.753.556,4,4,0,0,1-.806.195c-.222,0-.334-.166-.334-.5v-.75a.728.728,0,0,1,.556-.834,9.4,9.4,0,0,1,2.183-.626,14.9,14.9,0,0,1,2.627-.236,5.791,5.791,0,0,1,3.892,1.1,4.226,4.226,0,0,1,1.251,3.35v9.509a.491.491,0,0,1-.556.556h-1.2a.559.559,0,0,1-.612-.529l-.139-.918a7.6,7.6,0,0,1-2.21,1.335A6.562,6.562,0,0,1,346.02,129.1Zm.667-2.086a5.645,5.645,0,0,0,1.919-.361,7.261,7.261,0,0,0,1.919-1.056v-2.836a12.565,12.565,0,0,0-2.947-.361q-3.142,0-3.142,2.418a2.167,2.167,0,0,0,.584,1.626A2.288,2.288,0,0,0,346.687,127.016Z" transform="translate(-327.03 -109.55)" fill="#58a733"/><path d="M361.635,134.943a5.888,5.888,0,0,1-1.585-.195.727.727,0,0,1-.459-.278,1.034,1.034,0,0,1-.125-.556v-.723q0-.529.417-.529a2.335,2.335,0,0,1,.417.056,4.031,4.031,0,0,0,.75.056,2.408,2.408,0,0,0,1.626-.515,4.35,4.35,0,0,0,1.071-1.821l.528-1.418-5.366-13.235a2.108,2.108,0,0,1-.195-.667c0-.222.13-.334.389-.334h1.668a.988.988,0,0,1,.612.139,1.474,1.474,0,0,1,.334.612l3.892,10.788,3.753-10.788a1.483,1.483,0,0,1,.334-.612.988.988,0,0,1,.612-.139h1.557c.26,0,.389.112.389.334a2.11,2.11,0,0,1-.195.667l-6.117,15.571a6.727,6.727,0,0,1-1.752,2.753A3.864,3.864,0,0,1,361.635,134.943Z" transform="translate(-331.357 -109.692)" fill="#58a733"/><path d="M379.659,128.74a.491.491,0,0,1-.556-.556V115.2a.491.491,0,0,1,.556-.556h1.223a.727.727,0,0,1,.431.112.636.636,0,0,1,.208.417l.167.889a9.2,9.2,0,0,1,5.2-1.835,3.493,3.493,0,0,1,3.5,1.975,9.409,9.409,0,0,1,5.505-1.975,3.869,3.869,0,0,1,2.947,1.085,4.312,4.312,0,0,1,1.029,3.086v9.787a.492.492,0,0,1-.556.556h-1.64a.492.492,0,0,1-.556-.556v-9.008a3.294,3.294,0,0,0-.528-2.057,2,2,0,0,0-1.668-.668,7.812,7.812,0,0,0-4.087,1.252,3.063,3.063,0,0,1,.028.417v10.065a.492.492,0,0,1-.556.556h-1.64a.492.492,0,0,1-.556-.556v-9.008a3.3,3.3,0,0,0-.528-2.057,2,2,0,0,0-1.668-.668,7.519,7.519,0,0,0-4.059,1.223v10.51a.492.492,0,0,1-.556.556Z" transform="translate(-336.537 -109.55)" fill="#58a733"/><path d="M417.147,129.157a6.705,6.705,0,0,1-5.171-1.89,9.633,9.633,0,0,1,0-11.08,6.221,6.221,0,0,1,4.893-1.96,5.344,5.344,0,0,1,4.059,1.488,5.863,5.863,0,0,1,1.418,4.212,12.076,12.076,0,0,1-.139,1.807.77.77,0,0,1-.181.445.6.6,0,0,1-.4.111h-8.73a5.022,5.022,0,0,0,1.182,3.531,4.718,4.718,0,0,0,3.489,1.14,11.135,11.135,0,0,0,1.6-.111,13.15,13.15,0,0,0,1.933-.473l.333-.1a.888.888,0,0,1,.25-.042c.241,0,.362.166.362.5v.779a.9.9,0,0,1-.111.514,1.233,1.233,0,0,1-.473.32,9.6,9.6,0,0,1-1.988.583A12.218,12.218,0,0,1,417.147,129.157Zm2.67-8.7a6.77,6.77,0,0,0,.028-.724,3.66,3.66,0,0,0-.793-2.558,3,3,0,0,0-2.321-.862,3.545,3.545,0,0,0-2.725,1.043,4.9,4.9,0,0,0-1.111,3.1Z" transform="translate(-344.443 -109.55)" fill="#58a733"/><path d="M430.274,128.74a.492.492,0,0,1-.556-.556V115.2a.492.492,0,0,1,.556-.556H431.5a.723.723,0,0,1,.43.112.633.633,0,0,1,.209.417l.167,1.029a9.147,9.147,0,0,1,5.56-1.975,4.15,4.15,0,0,1,3.086,1.07,4.234,4.234,0,0,1,1.057,3.1v9.787a.492.492,0,0,1-.557.556h-1.64a.492.492,0,0,1-.556-.556v-8.87a3.273,3.273,0,0,0-.6-2.169,2.345,2.345,0,0,0-1.876-.7,7.654,7.654,0,0,0-4.309,1.418v10.315a.492.492,0,0,1-.557.556Z" transform="translate(-349.395 -109.55)" fill="#58a733"/><path d="M454.822,127.732q-3.949,0-3.948-3.948V115.61h-2a.491.491,0,0,1-.556-.556v-.695a.606.606,0,0,1,.125-.417.829.829,0,0,1,.486-.195l2.03-.251.362-3.448a.536.536,0,0,1,.583-.556h1.168a.492.492,0,0,1,.556.556v3.392h3.615a.492.492,0,0,1,.556.556v1.056a.492.492,0,0,1-.556.556h-3.615v8.035a1.891,1.891,0,0,0,.459,1.446,2.332,2.332,0,0,0,1.571.417,7.617,7.617,0,0,0,1.307-.14,3.651,3.651,0,0,1,.556-.084.34.34,0,0,1,.306.125.744.744,0,0,1,.083.4v.751a1.055,1.055,0,0,1-.111.542.791.791,0,0,1-.445.292A8.629,8.629,0,0,1,454.822,127.732Z" transform="translate(-354.12 -108.348)" fill="#58a733"/><path d="M476.579,129.157a10.793,10.793,0,0,1-4.2-.778,1.092,1.092,0,0,1-.459-.306.886.886,0,0,1-.125-.528v-.779q0-.5.333-.5a2.675,2.675,0,0,1,.7.167,12.483,12.483,0,0,0,3.81.583,3.426,3.426,0,0,0,2.071-.528,1.788,1.788,0,0,0,.71-1.529,1.442,1.442,0,0,0-.431-1.085,4.638,4.638,0,0,0-1.571-.834l-2.363-.89q-3.086-1.14-3.086-3.892a3.545,3.545,0,0,1,1.4-2.92,5.764,5.764,0,0,1,3.684-1.112,10.067,10.067,0,0,1,3.531.64.969.969,0,0,1,.473.292.884.884,0,0,1,.139.542v.75q0,.5-.361.5a2.5,2.5,0,0,1-.64-.139,10.351,10.351,0,0,0-3-.445q-2.669,0-2.669,1.808a1.486,1.486,0,0,0,.445,1.14,5.777,5.777,0,0,0,1.751.918l2.169.835a5.689,5.689,0,0,1,2.363,1.515,3.441,3.441,0,0,1,.723,2.266,3.8,3.8,0,0,1-1.473,3.142A6.135,6.135,0,0,1,476.579,129.157Z" transform="translate(-360.085 -109.55)" fill="#58a733"/><path d="M494.3,129.157a6.706,6.706,0,0,1-5.172-1.89,9.636,9.636,0,0,1,0-11.08,6.222,6.222,0,0,1,4.893-1.96,5.346,5.346,0,0,1,4.059,1.488,5.863,5.863,0,0,1,1.417,4.212,12.076,12.076,0,0,1-.139,1.807.77.77,0,0,1-.181.445.6.6,0,0,1-.4.111h-8.73a5.022,5.022,0,0,0,1.182,3.531,4.719,4.719,0,0,0,3.49,1.14,11.15,11.15,0,0,0,1.6-.111,13.142,13.142,0,0,0,1.932-.473c.13-.037.241-.069.333-.1a.887.887,0,0,1,.251-.042c.24,0,.361.166.361.5v.779a.9.9,0,0,1-.111.514,1.236,1.236,0,0,1-.472.32,9.615,9.615,0,0,1-1.988.583A12.228,12.228,0,0,1,494.3,129.157Zm2.669-8.7a6.758,6.758,0,0,0,.028-.724,3.663,3.663,0,0,0-.792-2.558,3,3,0,0,0-2.322-.862,3.542,3.542,0,0,0-2.724,1.043,4.9,4.9,0,0,0-1.112,3.1Z" transform="translate(-364.043 -109.55)" fill="#58a733"/><path d="M507.426,128.845a.492.492,0,0,1-.556-.557V115.3a.491.491,0,0,1,.556-.556h1.223a.727.727,0,0,1,.431.112.635.635,0,0,1,.208.417l.195,1.557a9.551,9.551,0,0,1,1.418-1.279,4.94,4.94,0,0,1,1.376-.695,5.032,5.032,0,0,1,1.516-.222q.334,0,.667.028a.465.465,0,0,1,.473.5v1.5a.442.442,0,0,1-.5.5,4.141,4.141,0,0,1-.487-.028,4.394,4.394,0,0,0-.514-.028,5.716,5.716,0,0,0-3.809,1.335v9.842a.492.492,0,0,1-.557.557Z" transform="translate(-368.996 -109.655)" fill="#58a733"/><path d="M524.82,128.882a1.116,1.116,0,0,1-.57-.112,1.321,1.321,0,0,1-.375-.639l-4.921-12.345q-.056-.167-.125-.333a.8.8,0,0,1-.069-.306c0-.24.139-.362.417-.362h1.64a1.114,1.114,0,0,1,.584.112,1.417,1.417,0,0,1,.361.639l3.81,10.843,3.809-10.843a1.41,1.41,0,0,1,.362-.639,1.111,1.111,0,0,1,.583-.112h1.529c.278,0,.417.122.417.362a.8.8,0,0,1-.069.306q-.069.167-.125.333l-4.893,12.345a1.329,1.329,0,0,1-.376.639,1.116,1.116,0,0,1-.57.112Z" transform="translate(-372.016 -109.692)" fill="#58a733"/><path d="M540.46,111.295a1.709,1.709,0,0,1-1.265-.459,1.823,1.823,0,0,1,0-2.418,1.971,1.971,0,0,1,2.53,0,1.823,1.823,0,0,1,0,2.418A1.709,1.709,0,0,1,540.46,111.295Zm-.834,15.853a.492.492,0,0,1-.557-.556V113.607a.492.492,0,0,1,.557-.557h1.64a.492.492,0,0,1,.556.557v12.984a.491.491,0,0,1-.556.556Z" transform="translate(-377.091 -107.958)" fill="#58a733"/><path d="M552.909,129.084a6.5,6.5,0,0,1-5.018-1.877,9.293,9.293,0,0,1,.055-10.9,6.58,6.58,0,0,1,5.074-1.932,8.528,8.528,0,0,1,2.947.528.911.911,0,0,1,.431.278.943.943,0,0,1,.125.556v.75q0,.556-.362.556a1.944,1.944,0,0,1-.445-.084,8.18,8.18,0,0,0-2.308-.334,4.251,4.251,0,0,0-3.364,1.182,5.672,5.672,0,0,0-1.029,3.768v.361a5.511,5.511,0,0,0,1.043,3.712,4.175,4.175,0,0,0,3.295,1.182,8.931,8.931,0,0,0,2.5-.389,1.972,1.972,0,0,1,.417-.083q.362,0,.362.556v.751a.726.726,0,0,1-.557.834A7.988,7.988,0,0,1,552.909,129.084Z" transform="translate(-378.975 -109.588)" fill="#58a733"/><path d="M568.656,129.157a6.707,6.707,0,0,1-5.172-1.89,9.637,9.637,0,0,1,0-11.08,6.223,6.223,0,0,1,4.894-1.96,5.345,5.345,0,0,1,4.059,1.488,5.863,5.863,0,0,1,1.418,4.212,12.069,12.069,0,0,1-.139,1.807.772.772,0,0,1-.181.445.6.6,0,0,1-.4.111H564.4a5.026,5.026,0,0,0,1.182,3.531,4.721,4.721,0,0,0,3.49,1.14,11.15,11.15,0,0,0,1.6-.111,13.142,13.142,0,0,0,1.932-.473c.13-.037.241-.069.334-.1a.882.882,0,0,1,.25-.042c.241,0,.362.166.362.5v.779a.9.9,0,0,1-.111.514,1.241,1.241,0,0,1-.473.32,9.612,9.612,0,0,1-1.988.583A12.225,12.225,0,0,1,568.656,129.157Zm2.669-8.7a6.561,6.561,0,0,0,.028-.724,3.663,3.663,0,0,0-.792-2.558,3,3,0,0,0-2.321-.862,3.544,3.544,0,0,0-2.725,1.043,4.9,4.9,0,0,0-1.112,3.1Z" transform="translate(-382.933 -109.55)" fill="#58a733"/><path d="M584.815,129.157a10.79,10.79,0,0,1-4.2-.778,1.093,1.093,0,0,1-.459-.306.886.886,0,0,1-.125-.528v-.779q0-.5.333-.5a2.674,2.674,0,0,1,.7.167,12.482,12.482,0,0,0,3.809.583,3.429,3.429,0,0,0,2.071-.528,1.788,1.788,0,0,0,.709-1.529,1.443,1.443,0,0,0-.431-1.085,4.646,4.646,0,0,0-1.571-.834l-2.363-.89q-3.086-1.14-3.086-3.892a3.545,3.545,0,0,1,1.4-2.92,5.763,5.763,0,0,1,3.684-1.112,10.07,10.07,0,0,1,3.531.64.967.967,0,0,1,.473.292.884.884,0,0,1,.139.542v.75q0,.5-.361.5a2.489,2.489,0,0,1-.64-.139,10.351,10.351,0,0,0-3-.445q-2.67,0-2.669,1.808a1.483,1.483,0,0,0,.445,1.14,5.778,5.778,0,0,0,1.751.918l2.169.835a5.685,5.685,0,0,1,2.363,1.515,3.441,3.441,0,0,1,.724,2.266,3.8,3.8,0,0,1-1.474,3.142A6.131,6.131,0,0,1,584.815,129.157Z" transform="translate(-387.582 -109.55)" fill="#58a733"/></g></svg>