<svg width="280" height="56" viewBox="0 0 280 56" fill="none" xmlns="http://www.w3.org/2000/svg">
<g clip-path="url(#clip0_1978_10756)">
<path d="M134.245 23.6567C137.072 23.6567 139.969 23.1047 142.503 22.133V10.8556H137.287V18.9877C136.564 19.2484 135.584 19.3788 134.534 19.3788C130.801 19.3788 125.873 17.8877 125.873 11.8599C125.873 6.57765 130.295 4.40609 134.822 4.40609C137.397 4.40609 139.971 5.02334 141.89 6.1906V1.52155C139.534 0.58245 136.818 0.0629883 134.099 0.0629883C127.143 0.0629883 120.293 3.62792 120.293 11.8578C120.293 20.1875 127.106 23.6547 134.247 23.6547L134.245 23.6567Z" fill="white"/>
<path d="M154.359 14.9076L157.873 6.83863C158.088 6.38435 158.237 5.93008 158.452 5.15191C158.669 5.92804 158.816 6.38232 158.995 6.83863L162.547 14.9076H154.359ZM161.423 0.519531H155.481L145.154 23.2027H150.807L152.655 18.99H164.249L166.097 23.2027H171.75L161.423 0.519531Z" fill="white"/>
<path d="M178.387 23.2006H183.822V4.92579H191.577V0.519531H170.596V4.92579H178.387V23.2006Z" fill="white"/>
<path d="M195.111 23.2006H213.193V18.9248H200.549V13.9033H211.892V9.62539H200.549V4.79745H212.977V0.519531H195.111V23.2006Z" fill="white"/>
<path d="M120.986 55.5455H139.067V51.2655H126.422V46.244H137.765V41.9661H126.422V37.1382H138.85V32.8623H120.986V55.5455Z" fill="white"/>
<path d="M140.408 55.5455H146.823L152.946 47.2809L159.071 55.5455H165.447L156.354 43.7812L164.905 32.8623H158.526L152.946 40.2814L147.366 32.8623H140.951L149.506 43.7812L140.408 55.5455Z" fill="white"/>
<path d="M173.346 43.8139V37.1383H177.731C180.487 37.1383 182.842 37.8187 182.842 40.4771C182.842 43.1335 180.487 43.8118 177.731 43.8118H173.346V43.8139ZM167.91 55.5456H173.346V48.0918H177.477C183.6 48.0918 188.418 46.3399 188.418 40.4771C188.418 34.6102 183.6 32.8604 177.477 32.8604H167.908V55.5435L167.91 55.5456Z" fill="white"/>
<path d="M197.131 43.5552V37.1384H202.347C204.668 37.1384 206.625 38.0143 206.625 40.3468C206.625 42.6487 204.668 43.5552 202.347 43.5552H197.131ZM191.695 55.5436H197.131V47.605H201.118L207.966 55.5436H214.233L206.696 46.9878C209.74 46.1138 212.203 44.1358 212.203 40.247C212.203 34.5105 207.058 32.8584 202.128 32.8584H191.691V55.5416L191.695 55.5436Z" fill="white"/>
<path d="M217.24 55.5455H235.321V51.2655H222.676V46.244H234.019V41.9661H222.676V37.1382H235.106V32.8623H217.24V55.5455Z" fill="white"/>
<path d="M248.04 55.9999C253.368 55.9999 257.934 54.413 257.934 49.3243C257.934 41.2553 244.092 42.7139 244.092 38.7925C244.092 37.3991 245.433 36.7187 248.223 36.6841C251.05 36.6535 253.876 37.3665 256.014 38.7273V34.1581C253.874 33.056 250.794 32.4082 247.786 32.4082C242.785 32.4082 238.51 34.482 238.51 38.8556C238.51 46.892 252.352 45.3051 252.352 49.5504C252.352 51.172 250.576 51.722 247.642 51.722C244.744 51.722 241.556 51.0416 238.654 49.3243V53.9587C241.263 55.2543 244.527 55.9999 248.038 55.9999H248.04Z" fill="white"/>
<path d="M270.106 55.9999C275.435 55.9999 280.001 54.413 280.001 49.3243C280.001 41.2553 266.158 42.7139 266.158 38.7925C266.158 37.3991 267.499 36.7187 270.289 36.6841C273.116 36.6535 275.943 37.3665 278.08 38.7273V34.1581C275.94 33.056 272.862 32.4082 269.852 32.4082C264.852 32.4082 260.576 34.482 260.576 38.8556C260.576 46.892 274.418 45.3051 274.418 49.5504C274.418 51.172 272.642 51.722 269.708 51.722C266.808 51.722 263.62 51.0416 260.72 49.3243V53.9587C263.33 55.2543 266.591 55.9999 270.104 55.9999H270.106Z" fill="white"/>
<path d="M99.6366 44.6555C93.9834 44.6555 91.7299 44.6555 86.0767 44.6555C79.56 44.5638 72.8664 36.6008 70.3202 33.5227H94.2354C96.3162 33.537 98.2264 32.2658 99.0737 30.575C99.9699 28.8659 99.8845 26.7595 98.8339 25.1217C97.8586 23.5307 95.8915 22.4674 93.8696 22.5855C86.1336 22.5896 78.0542 22.5855 70.3202 22.5855C74.7277 17.4439 78.0644 11.4548 85.8776 11.4548C91.5734 11.4548 93.9855 11.4548 99.6346 11.4568C100.279 11.4548 100.923 11.3427 101.522 11.1207C103.321 10.4688 104.603 8.90228 104.977 7.19519C105.402 5.36383 104.822 3.33895 103.372 1.99242C102.406 1.08184 101.039 0.515521 99.6407 0.519595C93.9042 0.519595 88.1718 0.515521 82.4353 0.521632C79.438 0.535892 76.6033 1.71334 74.2035 3.27376C66.3232 7.83484 57.7601 22.6303 55.0413 22.5855C54.9823 22.5855 38.5106 22.5855 28.5657 22.5855C27.948 22.5855 27.3201 22.5611 26.7145 22.6935C25.2596 22.9746 23.9936 23.8607 23.2275 25.0097C22.0997 26.674 21.9941 28.8578 22.9308 30.6158C23.7782 32.274 25.6497 33.5227 27.694 33.5329C33.0789 33.537 38.4638 33.5329 43.8487 33.5329C43.1213 35.5741 41.9874 37.4971 40.4898 39.1533C38.2383 41.663 35.1069 43.5392 31.6321 44.297C28.5921 44.9753 25.3266 44.7716 22.4106 43.7347C18.9623 42.5288 16.0463 40.2105 14.1097 37.3647C11.5554 33.6368 10.6512 29.0391 11.4985 24.7265C12.228 20.9273 14.3373 17.3216 17.554 14.7834C20.7586 12.2166 25.1194 10.8314 29.3907 11.2083C33.8409 11.5546 37.9883 13.7628 40.7153 16.9448C41.9264 18.4237 44.0824 19.2589 46.086 18.8393C47.7869 18.5133 49.2215 17.3807 49.9571 15.967C50.8532 14.2863 50.8166 12.2248 49.8555 10.5727C49.5141 9.96361 49.0142 9.45026 48.5387 8.92672C45.4114 5.55328 41.3371 2.88264 36.761 1.38944C30.7928 -0.600812 24.018 -0.456178 18.1555 1.77241C11.9598 4.07842 6.8736 8.54375 3.77675 13.9054C1.23669 18.2791 -0.0455282 23.2313 -0.000823187 28.1672C0.0377857 33.0664 1.38503 37.9636 3.97183 42.27C5.82709 45.3664 8.32245 48.1532 11.338 50.3757C14.8677 52.9934 19.1248 54.8105 23.6197 55.5173C27.9642 56.212 32.4998 55.8494 36.6533 54.4988C40.9328 53.1176 44.7896 50.7138 47.8316 47.6562C50.7536 44.6799 54.7182 38.424 54.8401 33.5329L55.2038 33.5288C57.7866 33.5288 65.104 46.5276 72.2283 51.4309C74.6038 53.0647 77.1113 54.7494 80.07 55.3483C81.6895 55.7007 83.364 55.5723 85.014 55.5968H97.9114C98.647 55.5866 99.3846 55.6212 100.12 55.5744C101.791 55.4359 103.304 54.4845 104.166 53.195C105.483 51.2741 105.412 48.6503 103.973 46.8006C103.008 45.5192 101.358 44.6555 99.6325 44.6636L99.6366 44.6555Z" fill="#DB3E3D"/>
</g>
<defs>
<clipPath id="clip0_1978_10756">
<rect width="280" height="56" fill="white"/>
</clipPath>
</defs>
</svg>