<?xml version="1.0" encoding="UTF-8"?>
<svg viewBox="0 0 143.49 40" xmlns="http://www.w3.org/2000/svg">
<defs>
<style>.cls-1{fill:#00364d;}.cls-2{fill:#009a61;}.cls-3{fill:#fff;}</style>
</defs>
<title>advcash</title>
<path class="cls-1" d="M9.17,27A6.29,6.29,0,0,1,5,28.62a4.67,4.67,0,0,1-5-4.77,4.05,4.05,0,0,1,2.57-4,11.88,11.88,0,0,1,3.85-.92L9,18.72v-.55c0-1.65-1.1-2.39-2.94-2.39a8.6,8.6,0,0,0-3.85,1.1L.92,14.5A12.49,12.49,0,0,1,6.61,13c4,0,5.87,1.83,5.87,5.32V24.4a11.36,11.36,0,0,0,.37,3.85H9.72Zm-2.39-5.5a3.91,3.91,0,0,0-2.2.55,1.93,1.93,0,0,0-.92,1.65,2,2,0,0,0,2.2,2,4.9,4.9,0,0,0,2.94-1.1V21.47Z"/>
<path class="cls-1" d="m14.68 21.1c0-4.77 3.49-7.89 8.07-7.89a7.53 7.53 0 0 1 2 0.18v-7.15h3.67v21.47a13.41 13.41 0 0 1-5.5 1.1c-4.57-0.19-8.24-2.75-8.24-7.71zm10.09 4.22v-8.81a5.66 5.66 0 0 0-1.83-0.18 4.48 4.48 0 0 0-4.59 4.77 4.24 4.24 0 0 0 4.59 4.59c0.55-0.19 1.28-0.19 1.83-0.37z"/>
<path class="cls-1" d="m29.72 13.58h3.85l3.67 10.09 3.67-10.09h3.67l-6.05 14.86h-2.75z"/>
<path class="cls-2" d="M45.14,21.1A7.72,7.72,0,0,1,53,13.21a10.07,10.07,0,0,1,4,.92v3.12a6.2,6.2,0,0,0-3.67-1.1c-2.75,0-4.4,2-4.4,4.77,0,3.12,1.65,4.77,4.22,4.77a7,7,0,0,0,3.49-.92l1.1,2.57a10,10,0,0,1-5.14,1.47A7.37,7.37,0,0,1,45.14,21.1Z"/>
<path class="cls-2" d="M67.52,27a6.29,6.29,0,0,1-4.22,1.65,4.67,4.67,0,0,1-5-4.77,4.05,4.05,0,0,1,2.57-4,11.88,11.88,0,0,1,3.85-.92l2.57-.18v-.55c0-1.65-1.1-2.39-2.94-2.39a8.6,8.6,0,0,0-3.85,1.1L59.27,14.5A12.49,12.49,0,0,1,65,13c4,0,5.87,1.83,5.87,5.32V24.4a11.36,11.36,0,0,0,.37,3.85H68.07Zm-2.39-5.5a3.91,3.91,0,0,0-2.2.55A1.93,1.93,0,0,0,62,23.67a2,2,0,0,0,2.2,2,4.9,4.9,0,0,0,2.94-1.1V21.47Z"/>
<path class="cls-2" d="M73.76,24.4a7.53,7.53,0,0,0,4,1.28c1.47,0,2.57-.37,2.57-1.65,0-2.57-7-1.65-7-6.42,0-2.57,2.2-4.4,5.69-4.4a15.77,15.77,0,0,1,4.4.73v3.12a10.88,10.88,0,0,0-4.22-.92c-1.28,0-2,.37-2,1.28,0,2.39,7,1.47,7,6.61,0,3.3-2.75,4.59-6.06,4.59a10.94,10.94,0,0,1-5.5-1.47Z"/>
<path class="cls-2" d="M86.24,6.24h3.67v9a8,8,0,0,1,5-2c2.39,0,4.77,1.1,4.77,5.32v9.72H96V19.63c0-1.83-.37-3.3-2.2-3.3A6.08,6.08,0,0,0,90.09,18V28.26H86.42v-22Z"/>
<circle class="cls-2" cx="123.49" cy="20" r="20"/>
<polygon class="cls-3" points="112.84 30.64 123.12 8.07 123.85 15.96 117.06 30.46"/>
<polygon class="cls-1" points="113.58 21.1 133.03 21.1 130.83 23.85 115.41 23.85"/>
<polygon class="cls-1" points="110.28 16.15 135.96 16.15 133.76 18.9 112.11 18.9"/>
<polygon class="cls-3" points="133.39 30.64 123.12 8.07 122.39 15.96 129.17 30.46"/>
</svg>
