<svg xmlns="http://www.w3.org/2000/svg" viewBox="0 0 314 90.8" xmlns:v="https://vecta.io/nano"><g fill="#00a8e0"><path d="M1.4 25.3v20.3 20.3l33-19a1.5 1.5 0 0 0 0-2.6l-33-19zm76.1-5.6L46.9 2C44.2.4 39.2.4 36.5 2L5.8 19.8 37.3 38c6.8 3.9 9.6 8.7 9.6 16.6v36.3l30.6-17.7c2.7-1.6 5.2-5.9 5.2-9V28.7c0-3.1-2.5-7.4-5.2-9M249 26.2h5.2v40.7H249zm64.4 36.4c-1.9.3-3.5.5-4.9.5-3.7 0-5.3-2-5.3-6.3V42.6h9.1v-4.8h-9.1V26.2H298v31.1c0 7.1 3.1 10.6 9.5 10.6 2 0 4.1-.3 6.4-.8l-.5-4.5z"/><path d="M227.7 63c-3 0-5.6-.7-7.9-2.2V43.9c3-.5 5.8-.7 8.2-.7 5.8 0 9 3.6 9 9.7-.1 6-3.1 10.1-9.3 10.1m1.4-24.5c-4.9 0-9.3.5-14.5 1.7v39.9h5.2V65.9c2.1 1.2 5.5 2 8.6 2 8.9 0 13.8-6.4 13.8-15-.1-8.7-5.6-14.4-13.1-14.4M128.5 63.1c-2.5 0-5.2-.2-8.2-.7V45.6c2.3-1.5 5-2.2 7.9-2.2 6.2 0 9.3 4 9.3 10.1-.1 6.1-3.3 9.6-9 9.6m.3-24.6c-3.1 0-6.5.7-8.6 2V26.2H115v39.9c5.2 1.2 9.7 1.7 14.5 1.7 7.6 0 13.1-5.7 13.1-14.4 0-8.6-4.9-14.9-13.8-14.9"/><path d="M207.8 39.6h-5.4-.5l-7.1 9-7-9h-.7-5.4l10 13-11.2 14.2.2.1h5.7l8.3-10.6 8.3 10.6h5.8l.2-.1-11.2-14.4zm-45.3 23.3c-5.7 0-9.5-4-9.5-9.9 0-5.8 3.8-9.7 9.5-9.7s9.5 3.8 9.5 9.7c.1 5.9-3.7 9.9-9.5 9.9m0-24.4c-4.4 0-7.9 1.3-10.6 4s-4.1 6.2-4.1 10.6 1.4 8 4.1 10.7 6.2 4.1 10.6 4.1 7.9-1.3 10.6-4.1c2.7-2.7 4.1-6.3 4.1-10.7s-1.4-7.9-4.1-10.6c-2.6-2.7-6.2-4-10.6-4m121 21.1c-2.1 2.4-5 3.4-8 3.4-6.2 0-9.3-3.6-9.3-9.6 0-6.1 3.2-10.1 9-10.1 2.5 0 5.2.2 8.2.7v15.6zm6.5 3.5c-.9 0-1.3-.5-1.3-1.6V40.1c-5.2-1.2-9.7-1.7-14.5-1.7-7.6 0-13.1 6.2-13.1 14.8h0 0c0 8.8 5 14.5 13.8 14.5 3.8 0 6.8-1.3 9.3-3.7.7 2.5 2.8 3.7 4.7 3.7 1.3 0 2.5-.2 3.6-.7l-.8-4.2c-.5.2-1 .3-1.7.3"/></g><path fill="#006bb5" d="M1.4 25.3L21.9 54l12.5-7.2c.5-.3.7-.8.7-1.3s-.2-1-.7-1.3l-33-18.9z"/></svg>