<svg xmlns="http://www.w3.org/2000/svg" width="702.667" height="288" fill="#003d7c" xmlns:v="https://vecta.io/nano"><path d="M298.838 205.783l-.552 7.67c-3.167.745-6.265 1.12-9.323 1.12-7.631 0-13.417-2.104-17.407-6.312-3.979-4.208-5.984-9.312-5.984-15.323 0-6.24 2.12-11.677 6.353-16.286 4.229-4.62 10.027-6.923 17.396-6.923 2.699 0 5.265.303 7.693.928l-1.167 7.686c-2.609-.837-5.12-1.26-7.527-1.26-4.511 0-7.859 1.423-10.057 4.276-2.197 2.86-3.292 6.328-3.292 10.407 0 4.172 1.303 7.796 3.912 10.859s6.265 4.589 10.975 4.589c2.749 0 5.739-.48 8.979-1.432m37.605-13.608c0-4.647-1.183-8.407-3.557-11.297-2.38-2.885-5.317-4.323-8.797-4.323-3.239 0-5.989 1.454-8.26 4.354-2.265 2.912-3.396 6.584-3.396 11.032 0 4.615 1.199 8.369 3.579 11.266s5.317 4.349 8.776 4.349c3.24 0 6.005-1.458 8.255-4.38 2.271-2.918 3.401-6.595 3.401-11m9.188-.969c0 6.817-2.084 12.458-6.251 16.948-4.187 4.484-9.344 6.724-15.495 6.724-5.864 0-10.771-2.057-14.713-6.167-3.959-4.136-5.927-9.36-5.927-15.713 0-6.813 2.088-12.458 6.265-16.948 4.161-4.48 9.328-6.724 15.473-6.724 5.86 0 10.765 2.052 14.719 6.151 3.953 4.115 5.928 9.36 5.928 15.73m43.088 22.476h-8.224c0-.911-3.052-5.713-9.151-14.427-6.385-9.161-10.032-15.437-10.923-18.812h-.531c.541 4.854.828 9.26.828 13.187 0 5.489.151 12.167.464 20.052h-8.188c.328-6.885.5-14.437.5-22.687 0-8.095-.172-14.985-.5-20.677h9.885c0 1.177 2.74 5.874 8.229 14.088 5.833 8.724 9.193 14.646 10.063 17.745h.5c-.541-4.943-.808-9.385-.808-13.312a376.23 376.23 0 0 0-.463-18.521h8.317c-.307 5.51-.459 12.401-.459 20.677 0 8.354.152 15.911.459 22.687m45.324 0h-8.219c0-.911-3.068-5.713-9.156-14.427-6.396-9.161-10.041-15.437-10.927-18.812h-.537c.557 4.854.839 9.26.839 13.187 0 5.489.152 12.167.469 20.052h-8.204c.339-6.885.5-14.437.5-22.687 0-8.095-.161-14.985-.5-20.677h9.896c0 1.177 2.74 5.874 8.224 14.088 5.839 8.724 9.199 14.646 10.057 17.745h.5c-.531-4.943-.796-9.385-.796-13.312 0-6.021-.161-12.188-.464-18.521h8.317c-.301 5.51-.468 12.401-.468 20.677 0 8.354.167 15.911.468 22.687m38.194-7.333l-.261 7.328H443.63c.296-6.703.437-14.265.437-22.681 0-8.079-.141-14.974-.437-20.677h27.052l-.371 7.297c-6.656-.36-12.703-.527-18.119-.527.213 3.073.337 6.724.337 10.918 4.631 0 9.589-.126 14.876-.366v6.959c-5.188-.224-10.147-.344-14.876-.344a290.5 290.5 0 0 0 .261 12.667c6.077 0 12.568-.193 19.443-.573m38.396-.568l-.563 7.67c-3.141.745-6.256 1.12-9.323 1.12-7.609 0-13.417-2.104-17.401-6.312-3.975-4.208-5.98-9.312-5.98-15.323 0-6.24 2.109-11.677 6.355-16.286 4.219-4.62 10.016-6.923 17.385-6.923 2.724 0 5.276.303 7.703.928l-1.167 7.686c-2.619-.837-5.129-1.26-7.525-1.26-4.511 0-7.86 1.423-10.057 4.276-2.197 2.86-3.297 6.328-3.297 10.407 0 4.172 1.292 7.796 3.917 10.859 2.599 3.063 6.249 4.589 10.973 4.589 2.751 0 5.751-.48 8.98-1.432m36.974-35.463l-.24 7.161c-4.443-.333-8.619-.5-12.547-.5l-.077 14.016c0 8 .12 15.557.369 22.687h-9.317c.281-7.063.421-14.624.421-22.687l-.131-14.016c-3.129 0-7.427.178-12.885.536l.261-7.197zm41.521 0l-.308 22.38c0 14.74-6.031 22.115-18.104 22.115-5.979 0-10.473-1.637-13.495-4.902-3.011-3.26-4.525-9.12-4.525-17.583l-.303-22.01h9.427c-.281 7.51-.432 14.744-.432 21.713 0 6.099.781 10.292 2.333 12.557s3.953 3.391 7.193 3.391c3.391 0 5.848-1.126 7.348-3.38 1.511-2.245 2.271-6.469 2.271-12.636 0-6.771-.14-13.984-.432-21.645zm58.905 43.364h-9.687c0-3.787-.24-10.14-.708-19.099l-.729-16.765h-.5c-.219 1.328-.808 3.797-1.761 7.385-.957 3.599-2.739 8.896-5.375 15.906s-3.959 11.192-3.959 12.572h-7.348c0-1.421-1.261-5.656-3.776-12.687-2.532-7.037-4.172-11.969-4.943-14.786-.787-2.823-1.407-5.62-1.876-8.391h-.509c-.011 2.77-.281 8.724-.819 17.844l-.76 18.02h-8.797c0-.672.808-7.343 2.417-20.014 1.599-12.683 2.421-20.459 2.421-23.349h12.875c0 2.484 1.365 7.973 4.079 16.458 2.724 8.468 4.079 13.906 4.079 16.282h.515c0-2.391 1.532-7.839 4.631-16.319s4.656-13.948 4.656-16.421h12.776c0 4.598.521 12.786 1.552 24.593l1.547 18.771m-506.337-33.094h1.807v24.714c-.719.423-1.24 1.183-1.24 2.093v20.297c-.749.683-1.233 1.656-1.233 2.756v20.249c-.772.864-1.24 1.99-1.24 3.235v17.525c0 .215.036.412.068.62h9.765l.052-.62v-17.525c0-1.245-.469-2.371-1.24-3.251V230.45c0-1.1-.479-2.073-1.224-2.756v-20.297c0-.91-.515-1.67-1.244-2.093V180.59h1.807a5.22 5.22 0 0 0 5.208-5.208v-1.792h12.776v1.792c0 2.181 1.787 3.968 3.98 3.968h6.072c2.183 0 3.969-1.787 3.969-3.968v-1.792h5.76v18.542h-1.781c-2.88 0-5.219 2.344-5.219 5.199v6.083a5.22 5.22 0 0 0 5.219 5.204h6.057c2.871 0 5.219-2.339 5.219-5.204v-6.083c0-.98-.291-1.891-.78-2.672l4.837-4.828c.063.006.131.036.193.036h3.036c1.089 0 1.989-.891 1.989-1.989v-3.041c0-1.079-.9-1.985-1.989-1.985h-3.036a1.99 1.99 0 0 0-1.979 1.985v3.041c0 .068.025.131.036.203l-4.828 4.828c-.781-.479-1.699-.776-2.699-.776h-1.796v-19.266l21.62-21.62a4.44 4.44 0 0 0 2.145.563h6.068c.781 0 1.495-.203 2.151-.563l5.369 5.374c-.005.057-.041.12-.041.193v3.031c0 1.1.901 1.985 1.989 1.985h3.021a1.99 1.99 0 0 0 1.995-1.985v-3.031c0-.073-.027-.136-.036-.203l8.828-8.833c.083 0 .145.036.197.036h3.047c1.1 0 1.991-.885 1.991-1.984v-3.032c0-1.099-.891-1.984-1.991-1.984h-3.047c-1.072 0-1.979.885-1.979 1.984v3.032c0 .077.036.129.036.203l-8.833 8.833c-.068-.01-.12-.041-.208-.041h-3.021c-.063 0-.129.031-.208.041l-5.369-5.369a4.33 4.33 0 0 0 .572-2.141v-6.083c0-2.464-2-4.464-4.463-4.464h-1.797v-3.011h.271c1.109 0 2-.901 2-1.984v-3.041c0-1.089-.891-1.985-2-1.985h-3.02c-1.1 0-1.991.896-1.991 1.985v3.041c0 1.083.891 1.984 1.991 1.984h.281v3.011h-1.803c-2.464 0-4.464 2-4.464 4.464v6.083c0 .781.219 1.505.568 2.136l-21.62 21.62h-6.489v-1.808a3.98 3.98 0 0 0-3.969-3.968h-6.072c-2.193 0-3.98 1.781-3.98 3.968v1.808h-12.776v-1.808a5.23 5.23 0 0 0-5.208-5.208h-6.077a5.22 5.22 0 0 0-5.199 5.208v6.079c0 2.875 2.339 5.208 5.199 5.208"/><path d="M3.052 119.783h3.031c1.094 0 1.98-.901 1.98-1.991v-3.031c0-.068-.021-.131-.036-.183l8.843-8.849c.068.011.12.048.199.048h3.036a2 2 0 0 0 1.984-1.995v-.287h3.5v1.801c0 2.188 1.787 3.975 3.975 3.975h6.068c.634 0 1.239-.167 1.781-.443l15.738 15.739c-.463.787-.76 1.704-.76 2.699v6.068c0 .995.297 1.905.76 2.692L38.323 150.85a5.15 5.15 0 0 0-2.692-.771h-1.787v-2.265h.266c1.093 0 1.995-.885 1.995-1.984v-3.032c0-1.099-.901-1.984-1.995-1.984h-3.027c-1.099 0-1.99.885-1.99 1.984v3.032c0 1.099.891 1.984 1.99 1.984h.287v2.265h-1.807a5.19 5.19 0 0 0-2.693.771l-4.822-4.812c.005-.079.041-.131.041-.208v-3.032c0-1.099-.895-1.984-1.984-1.984h-3.036a1.98 1.98 0 0 0-1.985 1.984v3.032a1.98 1.98 0 0 0 1.985 1.984h3.036c.063 0 .131-.036.188-.036l4.833 4.828c-.485.781-.776 1.697-.776 2.687v6.063c0 .989.291 1.917.776 2.698l-4.828 4.833c-.062-.01-.125-.046-.193-.046h-3.036a1.99 1.99 0 0 0-1.985 1.984v3.036a1.99 1.99 0 0 0 1.985 1.995h3.036c1.089 0 1.984-.896 1.984-1.995v-3.036c0-.073-.031-.115-.041-.178l4.833-4.844c.786.48 1.698.771 2.682.771h6.068c2.869 0 5.208-2.344 5.208-5.219v-6.063a5.08 5.08 0 0 0-.776-2.687l14.844-14.828a5.2 5.2 0 0 0 2.686.765h6.063a5.22 5.22 0 0 0 5.218-5.208v-1.803h26.792v1.803c0 .635.178 1.239.453 1.781l-16.65 16.656a3.83 3.83 0 0 0-1.792-.453H71.62a3.98 3.98 0 0 0-3.974 3.973v6.063a3.81 3.81 0 0 0 .443 1.792l-5.739 5.74c-.073-.01-.131-.046-.199-.046H59.11c-1.088 0-1.99.9-1.99 1.984v3.036a2 2 0 0 0 1.99 1.995h3.041a2 2 0 0 0 1.985-1.995v-3.036c0-.073-.038-.115-.043-.188l5.73-5.744c.552.276 1.151.452 1.797.452h6.057c2.187 0 3.984-1.801 3.984-3.989v-6.063c0-.64-.178-1.239-.443-1.781l16.645-16.651a3.82 3.82 0 0 0 1.792.443h1.792v47.828h-4.531v-1.812c0-2.866-2.339-5.208-5.22-5.208H85.63c-2.871 0-5.215 2.343-5.215 5.208v1.812H46.614a1.23 1.23 0 0 0-1.229 1.234v5.766h-1.802c-2.876 0-5.209 2.339-5.209 5.199v1.818h-2.27v-.287a2 2 0 0 0-1.995-1.995h-3.027a1.99 1.99 0 0 0-1.99 1.995v3.032c0 1.088.891 1.984 1.99 1.984h3.027a2 2 0 0 0 1.995-1.984v-.272h2.27v1.792c0 2.865 2.333 5.204 5.209 5.204h6.067c.99 0 1.902-.297 2.693-.767l4.818 4.833c0 .063-.042.12-.042.193v3.036a2 2 0 0 0 1.99 1.984h3.041a2 2 0 0 0 1.985-1.984v-3.036a1.99 1.99 0 0 0-1.985-1.984h-3.041c-.068 0-.131.03-.192.03l-4.834-4.817c.485-.797.777-1.713.777-2.693v-6.083c0-2.86-2.339-5.199-5.209-5.199h-1.796v-4.53h32.561v1.796a5.22 5.22 0 0 0 5.215 5.209h6.067c2.881 0 5.22-2.333 5.22-5.209V187.6h4.531v17.703c-.729.423-1.234 1.188-1.234 2.093v20.302c-.761.678-1.244 1.651-1.244 2.751v20.233c-.756.88-1.234 2.005-1.234 3.251v17.525c0 .215.036.412.068.62h9.766c.02-.208.062-.405.062-.62v-17.525c0-1.245-.474-2.371-1.24-3.235V230.45c0-1.1-.489-2.073-1.234-2.751v-20.302c0-.905-.511-1.67-1.235-2.093v-68h1.797a3.97 3.97 0 0 0 3.969-3.968v-1.803h5.776v51.317h-.281c-1.09 0-1.99.906-1.99 1.985v3.041a2 2 0 0 0 1.99 1.989h.281v15.438c-.729.423-1.229 1.188-1.229 2.093v20.302c-.761.678-1.251 1.651-1.251 2.751v20.233c-.749.88-1.229 2.005-1.229 3.251v17.525c0 .215.043.412.063.62h9.767c.025-.208.067-.405.067-.62v-17.525c0-1.245-.479-2.371-1.239-3.235V230.45c0-1.1-.48-2.073-1.24-2.751v-20.302c0-.905-.51-1.67-1.229-2.093v-15.438h.271a2 2 0 0 0 1.989-1.989v-3.041c0-1.079-.9-1.985-1.989-1.985h-.271v-51.317h11.536v4.541h-1.802a5.2 5.2 0 0 0-5.198 5.199v6.077c0 2.871 2.324 5.209 5.198 5.209h1.802v16.281h-.281c-1.088 0-1.989.9-1.989 1.984v3.036a2 2 0 0 0 1.989 1.995h.281v29.448c-.719.423-1.239 1.188-1.239 2.093v20.302c-.751.678-1.24 1.651-1.24 2.751v20.249c-.76.864-1.229 1.99-1.229 3.235v17.525c0 .215.032.412.057.62h9.765c.032-.208.063-.405.063-.62v-17.525c0-1.245-.479-2.371-1.24-3.251V230.45c0-1.1-.479-2.073-1.239-2.751v-20.302c0-.905-.5-1.67-1.218-2.093v-29.448h.27c1.088 0 1.995-.896 1.995-1.995v-3.036c0-1.084-.907-1.984-1.995-1.984h-.27V152.56h1.787a5.22 5.22 0 0 0 5.219-5.209v-1.801h11.547v1.801a5.22 5.22 0 0 0 5.208 5.209h6.068c2.875 0 5.197-2.339 5.197-5.209v-6.077a5.16 5.16 0 0 0-.76-2.688l14.833-14.833c.781.489 1.708.776 2.697.776h6.057c2.871 0 5.219-2.339 5.219-5.203v-6.079c0-2.875-2.348-5.219-5.219-5.219h-6.057c-2.88 0-5.219 2.344-5.219 5.219v6.079a5.08 5.08 0 0 0 .781 2.687l-14.844 14.824a5.18 5.18 0 0 0-2.687-.761h-6.068c-2.869 0-5.208 2.333-5.208 5.199v1.807h-11.547v-1.807c0-2.865-2.339-5.199-5.219-5.199h-1.787v-5.26l7.948-7.973c.547.28 1.156.447 1.787.447h6.077c2.177 0 3.969-1.785 3.969-3.963v-6.079a3.75 3.75 0 0 0-.448-1.781l7.963-7.968h24.021v.287a2 2 0 0 0 1.989 1.995h3.037a2.01 2.01 0 0 0 1.989-1.995v-.287h16.276v1.801c0 2.876 2.349 5.213 5.208 5.213h6.068c.989 0 1.905-.296 2.687-.771l4.839 4.828c-.009.063-.041.125-.041.193v3.031a2.01 2.01 0 0 0 1.989 1.991h3.021a2 2 0 0 0 1.995-1.991v-3.031a2 2 0 0 0-1.995-1.989h-3.021c-.067 0-.129.036-.208.041l-4.812-4.817c.463-.792.755-1.704.755-2.699V99.22c0-.985-.292-1.891-.755-2.688l4.812-4.812c.079 0 .141.031.208.031h3.021a1.99 1.99 0 0 0 1.995-1.995v-3.021a1.99 1.99 0 0 0-1.995-1.989h-3.021a2 2 0 0 0-1.989 1.989v3.021c0 .079.032.14.041.203l-4.817 4.828c-.803-.473-1.719-.776-2.708-.776h-6.068c-2.859 0-5.208 2.349-5.208 5.209v1.812h-4.541V82.475h1.817a5.21 5.21 0 0 0 5.203-5.197v-6.079a5.22 5.22 0 0 0-5.203-5.208h-6.073a5.12 5.12 0 0 0-2.692.771l-4.819-4.823c0-.079.032-.125.032-.199v-3.041c0-.073-.032-.14-.032-.192l8.828-8.844c.063.011.131.041.199.041h3.031c1.089 0 1.989-.891 1.989-1.979v-3.037a2 2 0 0 0-1.989-1.989h-3.031a1.99 1.99 0 0 0-1.984 1.989v3.037c0 .061.025.119.036.197l-8.839 8.828c-.057 0-.136-.041-.197-.041h-3.037c-1.099 0-1.989.896-1.989 1.989v3.041c0 1.084.891 1.975 1.989 1.975h3.037c.061 0 .14-.032.197-.041l4.823 4.828c-.479.791-.771 1.703-.771 2.697v6.079c0 2.869 2.339 5.197 5.219 5.197h1.781v18.557h-9.26v-.292c0-1.083-.907-1.984-1.989-1.984h-.287V91.75h.287a2 2 0 0 0 1.989-1.995v-3.021a2 2 0 0 0-1.989-1.989h-3.037a1.99 1.99 0 0 0-1.989 1.989v3.021a1.99 1.99 0 0 0 1.989 1.995h.271v7.005h-.271c-1.099 0-1.989.901-1.989 1.984v.292h-21.541l6.219-6.213c.536.276 1.135.432 1.787.432h6.067c2.183 0 3.969-1.787 3.969-3.964V85.21c0-2.172-1.787-3.964-3.969-3.964H174V68.475h1.807a5.22 5.22 0 0 0 5.199-5.224v-6.068c0-2.88-2.328-5.213-5.199-5.213H174v-2.265h.281a2 2 0 0 0 1.995-1.979v-3.037c0-1.093-.907-1.989-1.995-1.989h-3.031c-1.1 0-1.991.896-1.991 1.989v3.037a1.99 1.99 0 0 0 1.991 1.979h.28v2.265h-1.791c-2.871 0-5.209 2.333-5.209 5.213v6.068a5.23 5.23 0 0 0 5.209 5.224h1.791v12.771h-1.791a1.41 1.41 0 0 0-.267.027l-7.9-7.917c-.12-.115-.251-.203-.407-.255a1.04 1.04 0 0 0-.469-.104h-7.719V71.2a5.23 5.23 0 0 0-5.208-5.208h-1.807V40.439h1.807c2.86 0 5.208-2.349 5.208-5.219v-6.068a5.22 5.22 0 0 0-5.208-5.203h-1.807v-2.281h.296c1.089 0 1.98-.891 1.98-1.98v-3.047c0-1.079-.891-1.973-1.98-1.973h-3.047a2 2 0 0 0-1.989 1.973v3.047a2 2 0 0 0 1.989 1.98h.281v2.281h-1.801c-2.86 0-5.199 2.333-5.199 5.203v6.068c0 2.869 2.339 5.219 5.199 5.219h1.801v25.552h-1.801c-.991 0-1.901.292-2.688.776l-4.828-4.828c0-.079.047-.125.047-.199v-3.041c0-1.093-.907-1.989-1.995-1.989h-3.032a2 2 0 0 0-1.989 1.989v3.041c0 1.084.901 1.975 1.989 1.975h3.032c.068 0 .131-.032.197-.041l4.828 4.828a5.27 5.27 0 0 0-.76 2.697v6.079c0 .984.292 1.891.76 2.687l-1.728 1.724c-.543-.287-1.131-.443-1.781-.443h-6.068c-2.187 0-3.969 1.792-3.969 3.964v6.077a3.98 3.98 0 0 0 3.969 3.964h6.068c2.181 0 3.979-1.787 3.979-3.964V85.21a3.82 3.82 0 0 0-.448-1.776l1.729-1.719c.787.468 1.697.76 2.688.76h6.077c2.86 0 5.208-2.328 5.208-5.197v-1.819h7.215l6.837 6.865c-.771.719-1.271 1.744-1.271 2.885v6.077c0 .641.172 1.24.433 1.772l-8.308 8.328-8.344 8.333c-.541-.267-1.129-.448-1.771-.448h-6.077a3.99 3.99 0 0 0-3.969 3.973v6.079c0 .635.161 1.239.443 1.771l-7.959 7.964H117.94V91.751h.271c1.089 0 1.989-.885 1.989-1.995v-3.021c0-1.099-.9-1.989-1.989-1.989h-.271V39.199h1.787a4 4 0 0 0 3.979-3.979v-6.068a4 4 0 0 0-3.979-3.975h-1.787V7.663h.271a2 2 0 0 0 1.989-1.989V2.631c0-1.077-.9-1.979-1.989-1.979h-3.031c-1.09 0-1.99.901-1.99 1.979v3.043a2 2 0 0 0 1.99 1.989h.281v17.515h-1.808a4 4 0 0 0-3.968 3.975v6.068c0 .645.176 1.249.448 1.781l-5.745 5.744c-.068-.016-.126-.047-.193-.047h-3.031c-1.093 0-1.995.896-1.995 1.989v3.037c0 1.088.902 1.979 1.995 1.979h3.031a1.99 1.99 0 0 0 1.991-1.979v-3.037c0-.072-.032-.135-.043-.203l5.74-5.74c.531.281 1.141.453 1.771.453h1.808v19.776h-4.537v-1.792c0-2.88-2.348-5.213-5.208-5.213h-6.063c-2.885 0-5.219 2.333-5.219 5.213v6.068c0 2.875 2.333 5.224 5.219 5.224h6.063c2.86 0 5.208-2.349 5.208-5.224v-1.797h4.537v23.292h-.281c-1.09 0-1.99.891-1.99 1.989v3.021c0 1.109.9 1.995 1.99 1.995h.281v37.308h-5.776v-1.792c0-2.193-1.781-3.98-3.969-3.98h-1.797V110.51h1.797c2.86 0 5.208-2.337 5.208-5.213V99.22c0-2.86-2.348-5.209-5.208-5.209h-6.063c-.995 0-1.911.303-2.703.776L75.88 73.721V53.215h1.797c2.187 0 3.984-1.792 3.984-3.969v-6.083c0-2.172-1.797-3.964-3.984-3.964H75.88v-3.505h.292a1.99 1.99 0 0 0 1.979-1.984v-3.047c0-1.089-.891-1.98-1.979-1.98H73.13c-1.095 0-1.991.891-1.991 1.98v3.047c0 1.088.896 1.984 1.991 1.984h.276v3.505H71.62c-2.193 0-3.974 1.792-3.974 3.964v6.083c0 2.177 1.781 3.969 3.974 3.969h1.787v19.781h-4.532v-1.797c0-2.864-2.339-5.208-5.218-5.208h-6.063a5.15 5.15 0 0 0-2.686.771l-4.828-4.828c.004-.079.041-.12.041-.193V58.7a2 2 0 0 0-1.994-1.989H45.1c-1.098 0-1.989.896-1.989 1.989v3.041c0 1.084.891 1.975 1.989 1.975h3.027c.077 0 .14-.032.213-.041l4.812 4.828c-.463.791-.76 1.703-.76 2.697v6.079a5.2 5.2 0 0 0 5.203 5.197h6.063c2.88 0 5.218-2.328 5.218-5.197V75.46h5.256l21.077 21.073c-.479.797-.77 1.703-.77 2.688v1.812H81.661V99.22a4 4 0 0 0-3.984-3.969H71.62a3.99 3.99 0 0 0-3.974 3.969v6.077a3.98 3.98 0 0 0 3.974 3.975h6.057c2.187 0 3.984-1.787 3.984-3.975v-1.801h12.776v1.801c0 2.876 2.333 5.213 5.219 5.213h1.792v12.776h-1.792c-2.192 0-3.99 1.787-3.99 3.98v1.796H68.874v-1.796c0-2.885-2.339-5.224-5.218-5.224h-6.063c-.984 0-1.9.301-2.686.781l-15.745-15.751c.276-.536.443-1.124.443-1.776V99.22a3.99 3.99 0 0 0-3.973-3.969h-1.787v-3.5h.266c1.093 0 1.995-.885 1.995-1.995v-3.021a2 2 0 0 0-1.995-1.989h-3.027a1.99 1.99 0 0 0-1.99 1.989v3.021a1.99 1.99 0 0 0 1.99 1.995h.287v3.5h-1.807a3.99 3.99 0 0 0-3.975 3.969v1.812h-3.5v-.292a2 2 0 0 0-1.984-1.984h-3.036a1.99 1.99 0 0 0-1.985 1.984v3.043c0 .072.027.129.027.208l-8.823 8.823c-.079-.005-.136-.041-.204-.041H3.052a1.99 1.99 0 0 0-1.99 1.989v3.031a1.99 1.99 0 0 0 1.99 1.991m213.641 143.718h15.077l-7.536-21.199zm15.937 2.427h-16.797l-3.136 8.749h-2.932l13.251-36.014h2.432l13.249 36.014h-2.932zm21.025 9.056c-6.677 0-10.724-4.756-10.724-12.495s4.047-12.495 10.724-12.495c3.339 0 5.464.859 8.041 3.739l-1.765 1.62c-2.072-2.328-3.692-3.083-6.276-3.083-2.781 0-5.005 1.063-6.473 3.235-1.213 1.776-1.672 3.697-1.672 6.984s.459 5.208 1.672 6.979c1.468 2.178 3.692 3.24 6.473 3.24 2.584 0 4.204-.813 6.276-3.09l1.765 1.62c-2.577 2.885-4.703 3.745-8.041 3.745m23.662-22.712c-5.968 0-6.88 5.156-6.88 10.219 0 5.057.912 10.219 6.88 10.219s6.88-5.161 6.88-10.219-.911-10.219-6.88-10.219m6.88 19.271c-2.176 2.833-4.452 3.443-7.233 3.443-2.579 0-4.704-.86-5.969-2.126-2.479-2.479-3.135-6.525-3.135-10.369s.656-7.891 3.135-10.371c1.265-1.265 3.391-2.124 5.969-2.124 2.781 0 5.057.604 7.233 3.437v-3.136h2.579v36.016h-2.579zm28.266.254c-1.819 2.125-4.199 3.188-7.183 3.188-2.683 0-4.855-.756-6.475-2.328-1.671-1.62-2.531-3.896-2.531-6.776v-15.584h2.579v15.125c0 4.708 2.328 7.287 6.729 7.287s6.88-2.636 6.88-7.287v-15.125h2.577v24.385h-2.577zm12.38-21.5h2.577v24.385h-2.577zm-.308-11.635h3.188v3.187h-3.188zm21.797 13.61c-4.197 0-6.521 3.49-6.521 7.385v15.02h-2.583v-24.38h2.583v3.234c1.412-2.276 4.245-3.536 7.131-3.536 2.375 0 4.099.552 5.864 2.323l-1.869 1.874c-1.468-1.468-2.577-1.921-4.604-1.921m11.578-1.974h2.578v24.385h-2.578zm-.308-11.635h3.188v3.187h-3.188zm28.88 20.891c0-4.704-2.328-7.281-6.729-7.281s-6.88 2.63-6.88 7.281v15.13h-2.577v-24.385h2.577v2.885c1.823-2.124 4.199-3.192 7.183-3.192 2.683 0 4.86.76 6.479 2.333 1.667 1.615 2.527 3.891 2.527 6.776v15.583h-2.579zm20.115-7.281c-5.968 0-6.875 5.156-6.875 10.219 0 5.057.907 10.219 6.875 10.219 5.975 0 6.88-5.161 6.88-10.219s-.905-10.219-6.88-10.219m-.505 34.348c-3.64 0-5.515-.962-8.041-3.239l1.719-1.719c1.923 1.771 3.24 2.681 6.323 2.681 5.109 0 7.385-3.593 7.385-8.452v-4.35c-2.172 2.833-4.448 3.443-7.233 3.443-2.579 0-4.704-.86-5.969-2.126-2.479-2.479-3.136-6.525-3.136-10.369s.657-7.891 3.136-10.371c1.265-1.265 3.391-2.124 5.969-2.124 2.785 0 5.061.604 7.233 3.437v-3.136h2.584v25.751c0 6.12-3.647 10.572-9.969 10.572m43.582-45.831c-2.631 0-4.604 1.975-4.604 4.652 0 1.823.713 3.291 3.541 6.63l.812-.558c.756-.452 1.213-.812 1.267-.858 1.869-1.266 3.64-2.683 3.64-5.057 0-2.781-2.021-4.808-4.656-4.808m-8.849 23.776c0 4.704 3.391 7.996 8.396 7.996 2.885 0 5.969-.761 9.615-4l-10.927-13.204c-3.391 2.328-7.084 4.552-7.084 9.208m19.527 5.871c-1.365 1.364-5.161 4.552-11.079 4.552-6.631 0-11.183-4.15-11.183-10.271 0-5.719 4.047-8.297 8.251-11.183-1.875-2.27-3.995-4.855-3.995-7.989 0-4.047 3.281-7.183 7.328-7.183s7.339 3.188 7.339 7.235c0 2.984-1.876 4.907-4.152 6.473 0 0-1.869 1.318-2.681 1.824l10.323 12.494c1.62-2.428 2.125-4.401 2.125-8.958h2.681c0 4.505-.859 8.145-3.14 10.979l5.161 6.27h-3.489zm42.566-29.346h-10.172v15.885h10.172c5.011 0 8.448-2.531 8.448-7.943s-3.437-7.943-8.448-7.943m.303 18.318h-10.475v15.27h-2.728v-36.02h13.203c6.224 0 10.875 3.749 10.875 10.374 0 6.579-4.651 10.375-10.875 10.375m24.27 3.638c-4.151 0-6.229 1.626-6.229 4.91 0 3.235 1.928 4.756 6.375 4.756 2.229 0 4.303-.203 6.073-1.874.912-.86 1.365-2.428 1.365-4.652v-3.14zm7.584 9.208c-2.073 2.079-3.996 2.735-7.439 2.735-3.64 0-5.613-.609-7.181-2.224-1.161-1.167-1.771-2.937-1.771-4.755 0-4.459 3.187-7.037 8.5-7.037h7.891v-2.729c0-3.896-1.871-5.973-6.881-5.973-3.437 0-5.156.864-6.724 3.088l-1.875-1.615c2.073-2.885 4.604-3.749 8.599-3.749 6.475 0 9.459 2.885 9.459 7.995v16.697h-2.577zm15.312 11.89c-1.213 1.167-2.984 1.568-4.604 1.568h-1.208v-2.276h.957c2.781 0 3.589-.912 4.453-3.339l1.969-5.412-8.901-24.385h2.833l7.333 21.35 7.333-21.35h2.833l-11.328 31.01c-.459 1.318-1.011 2.276-1.672 2.833m50.986-24.587c0-4.704-2.328-7.281-6.729-7.281-4.249 0-6.885 2.63-6.885 6.828v15.583h-2.577v-15.13c0-4.704-2.323-7.281-6.724-7.281-4.407 0-6.88 2.63-6.88 7.281v15.13h-2.584v-24.385h2.584v2.885c1.823-2.124 4.249-3.192 7.233-3.192 3.641 0 6.371 1.572 7.839 4.453 1.823-2.881 4.652-4.453 8.297-4.453 2.683 0 4.859.864 6.427 2.333 1.667 1.615 2.527 3.891 2.527 6.776v15.583h-2.527zm26.683-3.182c-1.063-2.584-3.495-4.099-6.323-4.099s-5.261 1.515-6.323 4.099c-.557 1.568-.709 2.224-.86 4.599h14.365c-.152-2.328-.204-3.134-.86-4.599m-5.563 16.286c2.88 0 4.651-.86 6.724-2.932l1.927 1.515c-2.479 2.48-4.755 3.745-8.801 3.745-6.729 0-10.375-4.355-10.375-12.495 0-7.896 3.645-12.5 9.765-12.5s9.765 4.405 9.765 11.891v1.161H614.55c0 6.224 2.729 9.615 7.943 9.615m33.527-13.104c0-4.704-2.328-7.281-6.729-7.281-4.407 0-6.885 2.63-6.885 7.281v15.13h-2.579v-24.385h2.579v2.885c1.823-2.124 4.203-3.192 7.187-3.192 2.683 0 4.86.76 6.475 2.333 1.672 1.615 2.531 3.891 2.531 6.776v15.583h-2.577zm12.681 8.755V252.22h-3.339v-1.922h3.339v-7.791h2.579v7.791h5.516v1.922h-5.516v16.135c0 2.584 1.167 4.047 3.745 4.047h1.771v2.275h-2.229c-3.844 0-5.865-2.675-5.865-6.369m23.312 6.677c-4.251 0-7.391-1.115-9.865-3.49l1.771-1.776c1.871 1.973 4.552 2.99 7.991 2.99 4.807 0 7.333-1.672 7.333-4.959 0-2.577-1.417-3.744-4.652-4.093l-4.047-.36c-4.907-.401-7.333-2.531-7.333-6.375 0-4.249 3.437-6.927 8.751-6.927 3.391 0 6.375.957 8.552 2.578l-1.719 1.719c-1.876-1.364-4.152-2.072-6.833-2.072-4.047 0-6.224 1.672-6.224 4.703 0 2.579 1.52 3.746 4.957 4.099l3.948.355c4.048.407 7.131 1.62 7.131 6.375 0 4.448-3.74 7.235-9.76 7.235"/></svg>