<svg xmlns="http://www.w3.org/2000/svg" width="47.208" height="43.512" fill="none" xmlns:v="https://vecta.io/nano"><path d="M7.683 26.534c-1.299.596-2.418 2.305-2.418 3.737v11.661a1.82 1.82 0 0 0 .378 1.184 1.15 1.15 0 0 0 .885.396h.02a2.09 2.09 0 0 0 .842-.22l12.043-5.525c1.299-.596 2.414-2.315 2.414-3.745v-6.579c0-.949-8.29-3.585-8.29-3.585z" fill="url(#A)"/><path d="M0 17.392c0 1.911 1.469 4.199 3.208 4.995l18.646 8.564v-4.307L0 16.622z" fill="url(#B)"/><path d="M5.11 8.12L2.798 7.07c-.757-.39-1.248-1.155-1.291-2.008V3.525c0-.776.586-1.151 1.295-.83l2.311 1.048a2.4 2.4 0 0 1 1.291 2.006v1.545c0 .584-.337.943-.806.943-.151-.002-.315-.04-.489-.117zM0 2.133v10.536l21.854 10.013V12.495c0-1.911-1.468-4.199-3.204-4.995L2.891.277C2.533.103 2.143.008 1.743 0 .667 0 0 .816 0 2.133z" fill="url(#B)"/><path d="M25.361 27.441v6.579c0 1.43 1.113 3.149 2.41 3.745l12.043 5.525c.263.131.551.208.844.22l.02-.006a1.15 1.15 0 0 0 .887-.398c.261-.335.394-.752.374-1.176V30.271c0-1.432-1.117-3.141-2.416-3.737l-5.874-2.678c.002.002-8.288 2.636-8.288 3.585z" fill="url(#C)"/><path d="M25.354 26.643v4.308l18.648-8.559c1.737-.796 3.204-3.085 3.204-4.997v-.768z" fill="url(#D)"/><path d="M40.815 7.284l-.014-1.541c.042-.852.535-1.614 1.289-2.006l2.311-1.048c.705-.335 1.297.05 1.297.826V5.06c-.045.852-.537 1.614-1.291 2.006L42.11 8.11a1.14 1.14 0 0 1-.491.121c-.467.002-.804-.36-.804-.947zM44.316.277L28.56 7.5c-1.735.796-3.204 3.084-3.204 4.995v10.187l21.852-10.013V2.133C47.208.82 46.538 0 45.469 0c-.402.008-.794.103-1.153.277z" fill="url(#D)"/><defs><linearGradient id="A" x1="5.263" y1="33.685" x2="21.847" y2="33.685" gradientUnits="userSpaceOnUse"><stop stop-color="#f8951d"/><stop offset=".5" stop-color="#f26424"/><stop offset="1" stop-color="#e15c25"/></linearGradient><linearGradient id="B" x1="0" y1="11.341" x2="21.854" y2="11.341" gradientUnits="userSpaceOnUse"><stop stop-color="#f8951d"/><stop offset=".5" stop-color="#f26424"/><stop offset="1" stop-color="#e15c25"/></linearGradient><linearGradient id="C" x1="25.362" y1="33.685" x2="41.942" y2="33.685" gradientUnits="userSpaceOnUse"><stop stop-color="#f8951d"/><stop offset=".5" stop-color="#f26424"/><stop offset="1" stop-color="#e15c25"/></linearGradient><linearGradient id="D" x1="25.354" y1="11.341" x2="47.207" y2="11.341" gradientUnits="userSpaceOnUse"><stop stop-color="#f8951d"/><stop offset=".5" stop-color="#f26424"/><stop offset="1" stop-color="#e15c25"/></linearGradient></defs></svg>