<svg xmlns="http://www.w3.org/2000/svg" width="159" height="43.512" fill="none" xmlns:v="https://vecta.io/nano"><path d="M59.96 4.157l3.236-.228 3.305-.087c1.186-.002 2.367.111 3.529.335 1.153.216 2.254.659 3.236 1.305.992.679 1.798 1.6 2.341 2.678.606 1.137.905 2.61.905 4.418s-.299 3.276-.905 4.399a7.33 7.33 0 0 1-2.341 2.678c-.959.657-2.042 1.113-3.181 1.337a17.81 17.81 0 0 1-3.46.335 23.28 23.28 0 0 1-.858-.016l-.751-.053v8.029l-1.285.141-1.218.032c-.394 0-.798-.01-1.218-.032l-1.357-.141zm5.08 12.869a4.68 4.68 0 0 0 .784.071h.883a6.34 6.34 0 0 0 1.705-.228 3.97 3.97 0 0 0 1.481-.749c.446-.372.796-.842 1.026-1.374.273-.668.404-1.384.38-2.103a5.48 5.48 0 0 0-.38-2.175 3.73 3.73 0 0 0-1.026-1.426c-.434-.36-.937-.622-1.481-.766-.555-.151-1.127-.228-1.705-.228l-.711.018-.955.087v8.872zm14.786-13.18a14.85 14.85 0 0 1 2.466-.206 14.72 14.72 0 0 1 2.434.206v18.262c-.01.582.034 1.165.123 1.739a2.56 2.56 0 0 0 .378 1.03c.162.236.398.412.669.503a3.27 3.27 0 0 0 1.044.141 5.72 5.72 0 0 0 .61-.034 5.36 5.36 0 0 0 .642-.105 10.75 10.75 0 0 1 .38 2.782v.505c-.002.172-.026.343-.071.507-.436.127-.881.208-1.337.244l-1.444.069c-1.782 0-3.216-.493-4.296-1.477s-1.618-2.592-1.612-4.818zm20.383 13.598c.02-.467-.077-.933-.278-1.355a2.1 2.1 0 0 0-.766-.818 3.22 3.22 0 0 0-1.204-.4 11.04 11.04 0 0 0-1.579-.105c-1.37.018-2.725.265-4.014.731a9.37 9.37 0 0 1-.731-1.703 6.57 6.57 0 0 1-.242-1.913c.996-.343 2.02-.598 3.06-.766.943-.156 1.899-.238 2.854-.244 2.41 0 4.296.578 5.653 1.739s2.035 3.014 2.032 5.567v10.435c-.971.293-1.959.537-2.957.729a20.42 20.42 0 0 1-3.931.335c-1.091.008-2.182-.097-3.252-.311a6.99 6.99 0 0 1-2.537-1.044c-.699-.473-1.261-1.121-1.636-1.873a6.27 6.27 0 0 1-.576-2.82c-.034-.982.216-1.953.711-2.8.463-.743 1.095-1.363 1.846-1.81a8.17 8.17 0 0 1 2.523-.974 13.25 13.25 0 0 1 2.782-.293l2.224.103zm0 3.583l-.903-.119c-.287-.036-.58-.053-.868-.053-.939-.047-1.87.162-2.695.608-.677.418-1.064 1.174-1.008 1.967a2.23 2.23 0 0 0 .384 1.392 2.26 2.26 0 0 0 .921.711 3.77 3.77 0 0 0 1.145.279l1.061.052c.351 0 .699-.03 1.044-.087l.903-.156zm9.666-5.981h-2.263l-.173-.695 6.504-8.314h.798v5.252h4.201c.063.311.111.624.14.941l.034.869-.034.941-.14 1.004h-4.199v7.062a6.94 6.94 0 0 0 .175 1.741 2.6 2.6 0 0 0 .505 1.042 1.66 1.66 0 0 0 .817.523c.373.101.759.147 1.145.139.345.002.691-.028 1.028-.085l.887-.158c.159.448.27.905.335 1.376a9.13 9.13 0 0 1 .105 1.269l-.02.642-.051.507c-1.084.256-2.191.384-3.306.38-2.109 0-3.719-.491-4.832-1.477s-1.672-2.594-1.674-4.818z" fill="#000"/><path d="M130.318 29.687a9.36 9.36 0 0 1-3.813-.711c-1.034-.444-1.95-1.121-2.677-1.984a8.61 8.61 0 0 1-1.598-2.975c-.369-1.19-.549-2.432-.539-3.678-.01-1.262.172-2.517.539-3.725.324-1.101.867-2.123 1.598-3.01.725-.866 1.643-1.553 2.677-2.008a9.15 9.15 0 0 1 3.813-.725c1.313-.032 2.614.218 3.826.729 1.044.454 1.972 1.141 2.713 2.006.737.881 1.281 1.907 1.598 3.012.357 1.208.531 2.464.523 3.723.01 1.246-.166 2.485-.523 3.68a8.29 8.29 0 0 1-1.598 2.975 7.35 7.35 0 0 1-2.713 1.982c-1.214.499-2.517.741-3.826.709zm0-3.755c1.295 0 2.228-.479 2.798-1.444s.854-2.349.854-4.159-.284-3.195-.854-4.159-1.503-1.444-2.798-1.442c-1.28 0-2.201.481-2.769 1.442s-.852 2.349-.852 4.159.284 3.194.852 4.159 1.491 1.448 2.769 1.444zm12.219-14.643c.321-.069.646-.123.974-.156a9.74 9.74 0 0 1 1.076-.053c.348-.002.699.014 1.043.053l.941.156c.085.161.149.329.19.505l.159.697.12.711.09.592a7.9 7.9 0 0 1 .835-1.042 5.98 5.98 0 0 1 1.129-.941c.45-.285.933-.509 1.442-.671a5.78 5.78 0 0 1 1.774-.261c2.04 0 3.577.556 4.609 1.674s1.547 2.866 1.547 5.25v11.479a14.67 14.67 0 0 1-4.94 0V19.109c0-1.25-.19-2.212-.57-2.886s-1.05-1.008-2.01-1.004a4.52 4.52 0 0 0-1.216.174 2.55 2.55 0 0 0-1.131.667c-.372.402-.651.883-.818 1.408a7.42 7.42 0 0 0-.311 2.365v9.427c-1.636.279-3.305.279-4.937 0z" fill="#f26424"/><path d="M7.683 26.534c-1.299.596-2.418 2.305-2.418 3.737v11.661a1.82 1.82 0 0 0 .378 1.184 1.15 1.15 0 0 0 .885.396h.02a2.09 2.09 0 0 0 .842-.22l12.043-5.525c1.299-.596 2.414-2.315 2.414-3.745v-6.579c0-.949-8.29-3.585-8.29-3.585z" fill="url(#A)"/><path d="M0 17.392c0 1.911 1.469 4.199 3.208 4.995l18.646 8.564v-4.307L0 16.622z" fill="url(#B)"/><path d="M5.11 8.12L2.798 7.07c-.757-.39-1.248-1.155-1.291-2.008V3.525c0-.776.586-1.151 1.295-.83l2.311 1.048a2.4 2.4 0 0 1 1.291 2.006v1.545c0 .584-.337.943-.806.943-.151-.002-.315-.04-.489-.117zM0 2.133v10.536l21.854 10.013V12.495c0-1.911-1.468-4.199-3.204-4.995L2.891.277C2.533.103 2.143.008 1.743 0 .667 0 0 .816 0 2.133z" fill="url(#B)"/><path d="M25.361 27.441v6.579c0 1.43 1.113 3.149 2.41 3.745l12.043 5.525c.263.131.551.208.844.22l.02-.006a1.15 1.15 0 0 0 .887-.398c.261-.335.394-.752.374-1.176V30.271c0-1.432-1.117-3.141-2.416-3.737l-5.874-2.678c.002.002-8.288 2.636-8.288 3.585z" fill="url(#C)"/><path d="M25.354 26.643v4.308l18.648-8.559c1.737-.796 3.204-3.085 3.204-4.997v-.768z" fill="url(#D)"/><path d="M40.815 7.284l-.014-1.541c.042-.852.535-1.614 1.289-2.006l2.311-1.048c.705-.335 1.297.05 1.297.826V5.06c-.045.852-.537 1.614-1.291 2.006L42.11 8.11a1.14 1.14 0 0 1-.491.121c-.467.002-.804-.36-.804-.947zM44.316.277L28.56 7.5c-1.735.796-3.204 3.084-3.204 4.995v10.187l21.852-10.013V2.133C47.208.82 46.538 0 45.469 0c-.402.008-.794.103-1.153.277z" fill="url(#D)"/><path d="M62.868 35.469c.337.281.505.667.505 1.161s-.168.877-.505 1.16-.798.422-1.386.422h-1.121v1.372h-.648v-4.537h1.77c.584 0 1.048.143 1.384.422zm-.467 1.915c.214-.174.323-.426.323-.755s-.109-.58-.323-.757-.531-.261-.941-.261h-1.103v2.034h1.103c.412.002.725-.085.941-.261zm4.59 1.066h-2.412l-.499 1.133h-.667l2.054-4.537h.642l2.06 4.537h-.679zm-.228-.521l-.978-2.222-.978 2.222zm3.545.086v1.569h-.642v-1.582l-1.8-2.955h.693l1.452 2.392 1.458-2.392h.642zm6.586 1.568l-.008-3.305-1.638 2.755h-.299l-1.638-2.735v3.285h-.622v-4.537h.533l1.891 3.189 1.865-3.189h.533l.008 4.537zm5.275-.564v.564h-3.291v-4.537h3.2v.565h-2.553v1.392h2.273v.551h-2.273v1.464zm4.951-3.973v4.537h-.531L83.866 36.2v3.383h-.648v-4.537h.533l2.721 3.383v-3.383zm2.261.564h-1.557v-.565h3.755v.565h-1.557v3.973h-.64zm4.982 3.868c-.317-.107-.566-.244-.749-.412l.24-.505c.174.154.394.281.665.378a2.45 2.45 0 0 0 .834.145c.374 0 .656-.063.842-.192s.279-.295.279-.509c0-.154-.049-.283-.15-.378s-.228-.172-.376-.224-.361-.111-.632-.174l-.826-.246a1.37 1.37 0 0 1-.537-.38c-.148-.17-.224-.4-.224-.689a1.16 1.16 0 0 1 .192-.655c.127-.194.321-.35.58-.465s.582-.176.966-.176c.267 0 .531.036.788.105s.481.168.669.297l-.214.519a2.33 2.33 0 0 0-.61-.275c-.218-.063-.428-.095-.634-.095-.368 0-.644.067-.828.202s-.275.307-.275.519a.49.49 0 0 0 .154.378 1.05 1.05 0 0 0 .386.226 5.9 5.9 0 0 0 .624.172c.341.083.616.164.824.248a1.42 1.42 0 0 1 .535.374c.151.168.224.394.224.681a1.15 1.15 0 0 1-.196.651c-.131.198-.327.353-.59.465s-.588.172-.97.172a3.14 3.14 0 0 1-.992-.156zm6.982-.459v.564h-3.291v-4.537h3.2v.565h-2.553v1.392h2.274v.551h-2.274v1.464zm4.085.564l-.979-1.394-.285.014h-1.121v1.38h-.647v-4.537h1.77c.588 0 1.05.141 1.386.422s.505.667.505 1.16c0 .351-.085.648-.259.893s-.418.426-.739.537l1.078 1.525zm-.343-2.196c.214-.178.323-.43.323-.758s-.109-.58-.323-.757-.531-.261-.941-.261h-1.103v2.04h1.103c.412.002.725-.085.941-.263zm5.961-2.341l-1.989 4.537h-.641l-1.997-4.537h.701l1.632 3.727 1.646-3.727zm.578 0h.647v4.537h-.647zm2.81 4.288a2.22 2.22 0 0 1-.859-.83c-.208-.352-.311-.749-.311-1.19s.103-.838.311-1.19a2.23 2.23 0 0 1 .861-.83c.366-.202.781-.301 1.232-.301a2.56 2.56 0 0 1 .972.178 2 2 0 0 1 .753.531l-.422.408c-.342-.36-.768-.537-1.277-.537-.339 0-.642.075-.915.226a1.65 1.65 0 0 0-.638.624c-.153.263-.23.562-.23.891s.078.624.23.891a1.63 1.63 0 0 0 .638.624c.271.151.576.228.915.228.505 0 .931-.182 1.277-.545l.422.408c-.208.234-.459.41-.756.533s-.62.182-.975.182c-.455.002-.863-.099-1.228-.301zm7.178-.315v.564h-3.292v-4.537h3.201v.565h-2.553v1.392h2.273v.551h-2.273v1.464zm5.951-3.551c.336.281.505.667.505 1.16s-.169.877-.505 1.161-.799.422-1.387.422h-1.121v1.372h-.647v-4.537h1.77c.584 0 1.048.143 1.385.422zm-.468 1.915c.214-.174.323-.426.323-.755s-.109-.58-.323-.757-.531-.261-.941-.261h-1.103v2.034h1.103c.412.002.725-.085.941-.261zm4.957 2.2l-.978-1.394-.285.014h-1.121v1.38h-.648v-4.537h1.771c.588 0 1.049.141 1.386.422s.505.667.505 1.16c0 .351-.085.648-.259.893s-.418.426-.739.537l1.077 1.525zm-.342-2.196c.214-.178.323-.43.323-.758s-.109-.58-.323-.757-.531-.261-.941-.261h-1.103v2.04h1.103c.412.002.725-.085.941-.263zm2.832 1.947a2.23 2.23 0 0 1-.868-.834c-.212-.357-.313-.749-.313-1.186s.105-.832.313-1.186.499-.632.868-.834.78-.301 1.237-.301a2.53 2.53 0 0 1 1.232.301 2.22 2.22 0 0 1 .862.83c.208.353.311.749.311 1.19s-.103.838-.311 1.19a2.21 2.21 0 0 1-.862.83 2.52 2.52 0 0 1-1.232.301c-.457.002-.869-.099-1.237-.301zm2.134-.503a1.66 1.66 0 0 0 .628-.624c.153-.267.23-.562.23-.891s-.077-.624-.23-.891a1.66 1.66 0 0 0-.628-.624c-.263-.151-.564-.226-.897-.226s-.633.075-.905.226a1.65 1.65 0 0 0-.633.624c-.153.267-.23.563-.23.891s.077.624.23.891a1.65 1.65 0 0 0 .633.624c.272.151.573.228.905.228s.632-.075.897-.228zm6.298-3.785l-1.988 4.537h-.642l-1.996-4.537h.701l1.632 3.727 1.646-3.727zm.577 0h.647v4.537h-.647zm2.01 0h1.913c.477 0 .905.095 1.278.287s.659.456.865.798a2.26 2.26 0 0 1 .307 1.184c0 .446-.103.84-.307 1.184a2.1 2.1 0 0 1-.865.8c-.373.19-.799.285-1.278.285h-1.913zm1.872 3.973c.368 0 .691-.069.968-.212s.495-.343.646-.6.225-.554.225-.891-.075-.634-.225-.891a1.55 1.55 0 0 0-.646-.6c-.279-.144-.602-.212-.968-.212h-1.224v3.408zm6.773 0v.564h-3.292v-4.537h3.201v.565h-2.553v1.392h2.274v.551h-2.274v1.464zm4.083.564l-.978-1.394-.285.014h-1.121v1.38h-.648v-4.537h1.771c.588 0 1.049.141 1.386.422s.505.667.505 1.16c0 .351-.085.648-.259.893s-.418.426-.739.537L159 39.583zm-.34-2.196c.214-.178.323-.43.323-.758s-.109-.58-.323-.757-.531-.261-.941-.261h-1.103v2.04h1.103c.41.002.723-.085.941-.263z" fill="#000"/><defs><linearGradient id="A" x1="5.263" y1="33.685" x2="21.847" y2="33.685" gradientUnits="userSpaceOnUse"><stop stop-color="#f8951d"/><stop offset=".5" stop-color="#f26424"/><stop offset="1" stop-color="#e15c25"/></linearGradient><linearGradient id="B" x1="0" y1="11.341" x2="21.854" y2="11.341" gradientUnits="userSpaceOnUse"><stop stop-color="#f8951d"/><stop offset=".5" stop-color="#f26424"/><stop offset="1" stop-color="#e15c25"/></linearGradient><linearGradient id="C" x1="25.362" y1="33.685" x2="41.942" y2="33.685" gradientUnits="userSpaceOnUse"><stop stop-color="#f8951d"/><stop offset=".5" stop-color="#f26424"/><stop offset="1" stop-color="#e15c25"/></linearGradient><linearGradient id="D" x1="25.354" y1="11.341" x2="47.207" y2="11.341" gradientUnits="userSpaceOnUse"><stop stop-color="#f8951d"/><stop offset=".5" stop-color="#f26424"/><stop offset="1" stop-color="#e15c25"/></linearGradient></defs></svg>