<?xml version="1.0" encoding="UTF-8"?>
<svg width="2500" height="2500" version="1.1" viewBox="0 0 192.756 192.756" xmlns="http://www.w3.org/2000/svg" xmlns:cc="http://creativecommons.org/ns#" xmlns:dc="http://purl.org/dc/elements/1.1/" xmlns:rdf="http://www.w3.org/1999/02/22-rdf-syntax-ns#">
<metadata>
<rdf:RDF>
<cc:Work rdf:about="">
<dc:format>image/svg+xml</dc:format>
<dc:type rdf:resource="http://purl.org/dc/dcmitype/StillImage"/>
<dc:title/>
</cc:Work>
</rdf:RDF>
</metadata>
<g clip-rule="evenodd" fill-rule="evenodd">
<path d="m0 0h192.76v192.76h-192.76z" fill="#fff"/>
<path d="m126.72 86.966c-1.439-0.038-2.748-1.851-2.617-3.214 0.262-3.008 2.785-5.793 5.887-5.812 1.645 0 2.598 1.869 2.561 3.289-0.04 2.896-3.478 5.831-5.831 5.737z"/>
<path d="m64.545 98.553s-0.766-0.992-2.168 0.859c-1.383 1.83-7.119 9.455-8.689 10.352-1.588 0.896-3.644 0.859-4.055-0.803-0.393-1.664 0.056-3.457 1.626-4.746 1.569-1.309 1.7 0.299 1.308 0.672-0.411 0.355-0.542 2.916 1.514 1.252 2.074-1.664 6.018-7.717 8.073-10.035 2.075-2.335 6.69-5.381 9.25-0.99 0 0 3.588-2.467 7.325-2.467 3.719 0 6.148 3.139 2.953 8.783 0 0-4.447 8.035-4.934 9.418-0.485 1.383-1.121 3.682 2.28 1.607 3.42-2.057 4.504-3.047 4.504-3.047s2.373-7.008 7.568-12.594c5.214-5.606 10.577-5.644 13.493-1.29l10.109-18.892s0.316-1.401 2.111-1.177c1.793 0.224 2.467 0.093 3.139-0.037 0.672-0.131 1.701 0.486 0.711 2.335l-16.146 30.178s-2.391 4.168-0.279 4.168 4.803-1.738 7.324-5.25c2.504-3.496 8.428-13.212 8.428-13.212s0.188-1.084 1.701-1.084c1.531 0 3.773 0.188 4.129 0.188 0.375 0 1.346 0.13 0.506 1.382-0.861 1.252-8.84 14.033-9.344 14.93-0.486 0.898-1.064 2.561 0.355 3.047 1.438 0.504 4.541-1.121 6.24-4.26 1.701-3.141 4.934-9.773 9.924-13.754 4.988-3.999 9.922-3.587 12.201 0.935l1.309-2.111s0.355-0.897 1.793-1.028c1.439-0.13 3.365-0.13 3.365-0.13s1.307-0.093 0.484 1.345c-0.803 1.439-7.27 12.856-8.016 14.651-0.766 1.793-0.822 2.691-0.318 2.971 0.486 0.262 2.057-0.318 3.625-2.654 1.57-2.336 8.223-10.893 9.662-12.818 1.42-1.924 4.297-3.625 6.277-3.625 1.963 0 3.234 1.065 3.365 3.308 0 0 7.305-3.756 10.912-3.756 3.588 0 4.336 2.953 1.57 8.464-2.785 5.514-5.215 10.354-5.215 12.109 0 1.758 1.215 2.02 1.926 2.02 0.729 0 2.877-1.439 3.961-3.234 1.066-1.793-0.279-1.793-0.729-1.887-0.449-0.074-2.561-1.027-0.617-2.822 1.926-1.793 5.195-1.98 5.195 1.084 0 3.047-3.494 8.971-8.297 10.633-4.803 1.664-7.848-1.662-7.848-4.223s1.961-4.803 2.857-6.373c0.898-1.568 3.738-6.689 4.037-7.492 0.318-0.805 0.598-3.85-1.607-3.85s-4.26 0.598-7.082 4.616c0 0 1.252 0.486 2.41 0.486 1.178 0 0.953 0.131 0.543 0.99-0.412 0.859-1.439 2.652-1.439 2.652s-0.447 0.711-1.252 0.711c-0.803 0-2.691 0.057-2.691 0.057s-4.67 8.428-5.475 10.127c-0.803 1.721-1.178 1.627-2.299 1.533s-2.598-0.094-3.307-0.037c-0.729 0.037-1.271 0-0.412-1.533 0.861-1.531 7.588-13.1 8.223-14.443 0.617-1.346 0.748-3.141-0.635-3.141-1.402 0-3.102 1.832-4.393 3.719-1.307 1.887-8.932 12.016-9.828 13.156-0.896 1.121-3.682 3.363-6.074 3.363-2.373 0-2.559-2.205-2.559-3.141 0-0.951-0.674-1.494-1.514-0.951-0.859 0.541-5.83 3.998-9.287 3.998s-4.094-2.916-3.588-5.121c0 0-3.963 2.244-5.477 3.365-1.531 1.121-4.186 2.559-5.568 1.756-1.4-0.803-1.756-2.018-1.439-3.812 0.318-1.793-0.484-1.346-1.213-0.99-0.711 0.355-7.85 5.568-10.148 5.568-2.26 0-2.671-1.568-2.223-3.195 0.45-1.607-0.317-1.346-1.252-0.803-0.934 0.541-6.11 3.904-9.567 3.904-3.438 0-3.363-2.914-3.363-3.588 0-0.672-0.262-2.297-1.962-0.822-1.719 1.496-4.223 4.447-7.007 4.447s-4.037-2.857-2.374-6.633 5.158-10.408 5.158-10.408 1.121-3.326-0.542-4.186c-1.663-0.822-3.363-0.207-3.363-0.207l-3.14 5.906h1.663s1.383-0.168 0.804 1.047c-0.58 1.195-0.99 2.018-1.084 2.373a0.967 0.967 0 0 1 -0.972 0.766h-2.074l-5.568 10.129s-0.449 1.568-1.57 1.568-3.326 0-4.223 0.057c-0.897 0.037-1.252-0.672-0.486-1.887 0.767-1.215 7.849-13.828 8.447-15.043 0.579-1.198 1.345-2.768 0.354-3.403zm-45.24 8.109s3.98 1.027 3.98-2.057c0-3.064-2.803-2.521-3.495-2.521s-5.27 0.672-5.27 5.736c0 5.4 4.167 7.998 9.157 7.998s13.398-1.104 22.91-18.91c0 0-2.953-4.523-2.261-10.727 0 0-2.934-0.896-5.812 0.056-2.859 0.972-6.017 3.364-5.064 7.176 0.972 3.812 5.961 1.028 5.961-0.953s2.187-1.084 2.187 0.486c0 1.569-0.28 4.037-2.747 6.054-2.448 2.057-7.101 0.486-8.39-0.879-1.308-1.344-2.542-2.858-2.542-5.53 0-2.654 0.149-10.184 16.481-9.698 0 0 3.271-12.034 25.003-12.034 0 0 3.083-0.262 0.822 1.644-2.261 1.925-9.493 8.895-13.66 16.333 0 0 1.775 2.672 1.775 5.344s-2.392 7.083-8.278 6.055c0 0-5.12 9.848-9.082 14.295-3.961 4.428-11.287 7.381-17.155 7.381-5.886 0-15.323-2.748-15.323-14.707 0-11.604 11.362-12.221 14.09-11.398 2.728 0.822 6.97 3.55 6.97 7.716 0 4.168-3.345 6.766-6.279 6.766-2.953 0-3.98-1.645-4.391-2.262-0.409-0.616-0.465-1.569 0.413-1.364z"/>
<path d="m142.28 101.37h-3.232s-1.625-0.055-1.943 0.859c-0.299 0.936-1.064 2.111-1.064 2.111s-0.822 0.973 0.447 0.973h3.439s-3.887 6.092-8.242 6.092c-4.354 0-2.764-5.494-1.027-8.857 2.15-4.186 6.186-7.213 9.213-7.213s3.849 2.299 2.409 6.035zm-40.045 0.654h-3.215s-1.625-0.057-1.924 0.859c-0.318 0.936-1.084 2.111-1.084 2.111s-0.822 0.973 0.467 0.973h3.4s-3.867 6.092-8.221 6.092-2.766-5.494-1.028-8.857c2.167-4.186 6.204-7.213 9.212-7.213 3.011 0 3.833 2.299 2.393 6.035zm-48.211-15.621s-2.261-1.72-4.709-2.56c0 0 2.261-7.494 11.436-8.633 0 0 3.868-0.822 1.364 1.495-2.504 2.316-6.839 7.38-8.091 9.698zm-1.794 2.148s-2.504 3.14-2.859 3.925c0 0-0.953-1.663-1.065-5.606 1.308 0.299 2.616 0.916 3.924 1.681zm-0.243 7.737s2.149-3.513 2.915-4.354c0 0 1.14 0.598 1.14 2.261s-2.205 4.036-4.055 2.093z" fill="#fff"/>
</g>
</svg>
