<?xml version="1.0" encoding="UTF-8"?>
<svg width="81.507" height="70" version="1.0" viewBox="0 0 271.68999 230.64223" xmlns="http://www.w3.org/2000/svg" xmlns:cc="http://creativecommons.org/ns#" xmlns:dc="http://purl.org/dc/elements/1.1/" xmlns:rdf="http://www.w3.org/1999/02/22-rdf-syntax-ns#">
<metadata>
<rdf:RDF>
<cc:Work rdf:about="">
<dc:format>image/svg+xml</dc:format>
<dc:type rdf:resource="http://purl.org/dc/dcmitype/StillImage"/>
<dc:title/>
</cc:Work>
</rdf:RDF>
</metadata>
<path d="m135.93-1.3462c13.86 23.81 27.84 47.55 41.55 71.45-22.16 39.09-44 78.37-66.91 117.03-8.79 14.84-17.34 29.82-26.03 44.71-28.18 0.17-56.36 0.16-84.54 0.12 0.86-1.93 1.71-3.87 2.75-5.71 44.37-75.88 88.91-151.66 133.18-227.6z" fill="#ae285d"/>
<path d="m135.94 143.81c28.28-0.01 56.56-0.21 84.84 0.26 16.84 29.36 34.22 58.4 50.91 87.84-28.28 0.14-56.55 0.03-84.83 0.01-16.83-29.46-34.41-58.47-50.92-88.11z" fill="#ae285d"/>
</svg>
