<?xml version="1.0" encoding="UTF-8"?>
<svg width="294.53" height="70" version="1.0" viewBox="0 0 981.77002 230.64223" xmlns="http://www.w3.org/2000/svg" xmlns:cc="http://creativecommons.org/ns#" xmlns:dc="http://purl.org/dc/elements/1.1/" xmlns:rdf="http://www.w3.org/1999/02/22-rdf-syntax-ns#">
<metadata>
<rdf:RDF>
<cc:Work rdf:about="">
<dc:format>image/svg+xml</dc:format>
<dc:type rdf:resource="http://purl.org/dc/dcmitype/StillImage"/>
<dc:title/>
</cc:Work>
</rdf:RDF>
</metadata>
<g transform="translate(-6.34 -11.816)" fill="#ae285d">
<path d="m142.27 10.47c13.86 23.81 27.84 47.55 41.55 71.45-22.16 39.09-44 78.37-66.91 117.03-8.79 14.84-17.34 29.82-26.03 44.71-28.18 0.17-56.36 0.16-84.54 0.12 0.86-1.93 1.71-3.87 2.75-5.71 44.37-75.88 88.91-151.66 133.18-227.6z"/>
<path d="m755.46 69c15.58 29.04 31.15 58.07 46.71 87.12-5.49 0.11-10.98-0.17-16.46 0.02-3.68-6.4-6.87-13.07-10.47-19.51-13.84-0.41-27.69-0.13-41.54-0.16-3.34 6.63-6.98 13.09-10.52 19.6-5.41-0.05-10.82 0.11-16.22 0.06 15.94-29.17 31.93-58.32 48.5-87.13m-14.83 55.05c9.44 0.13 18.89 0.11 28.34 0.19-4.73-8.8-8.99-17.85-14.06-26.46-4.86 8.71-9.62 17.46-14.28 26.27z"/>
<path d="m811.25 68.66c23.52 20.44 47.04 40.89 70.27 61.67 0.64-18.75-0.08-37.5 0.49-56.25 5.03 0.1 10.06 0.18 15.09 0.27-0.16 28.88-0.08 57.77-0.11 86.65-15.45-12.85-30.29-26.42-45.55-39.51-8.49-7.26-16.9-14.6-25.01-22.27-0.2 18.99 0.09 37.99-0.32 56.98-5 0.02-10-0.11-14.99-0.07 0.04-29.16-0.21-58.31 0.13-87.47z"/>
<path d="m314.14 156.01c16.25-29.01 32.08-58.25 48.7-87.04 15.48 29.07 31.05 58.1 46.71 87.07-5.57 0.13-11.13 0.12-16.7 0.01-3.38-6.49-6.84-12.94-10.07-19.51-13.89-0.18-27.77-0.03-41.66-0.03-3.62 6.55-6.89 13.31-10.8 19.7-5.4-0.15-10.79-0.04-16.18-0.2m33.73-31.88c9.49-0.04 18.99 0.09 28.49 0.06-4.78-8.75-8.98-17.81-14.11-26.37-4.83 8.76-9.6 17.53-14.38 26.31z"/>
<path d="m545.39 76.49c7.94-3.91 17.24-4.42 25.83-2.69 7.44 1.57 13.42 6.86 17.96 12.72-4.03 2.04-8.03 4.11-11.99 6.28-5.34-8.35-18.05-11.01-25.8-4.5-4.11 2.94-3.78 10.18 0.86 12.42 10.4 5.73 23.05 6.96 32.27 14.89 9.4 7.97 9.04 23.9 0.33 32.26-9.35 9.48-24.16 11.54-36.59 7.99-10.41-2.63-18.24-12.2-19.63-22.72 5.03-1.1 10.11-2.01 15.2-2.8 0.61 4.93 2.48 10.36 7.13 12.84 7.36 3.95 18.03 2.96 23.11-4.17 3.58-4.85 2.52-12.3-2.37-15.85-10.22-6.85-23.79-7.27-32.96-15.9-4.84-4.12-6.85-11-5.2-17.11 1.31-6.23 6.4-10.84 11.85-13.66z"/>
<path d="m414.41 74.65c5.71-0.75 11.48-0.49 17.22-0.43 6.14 9.14 12.27 18.28 18.42 27.41 6.47-9.02 12.76-18.17 19.14-27.25 5.89-0.19 11.78-0.29 17.67-0.11-9.34 12.99-18.74 25.95-28.1 38.93 9.53 14.45 19.93 28.33 29.24 42.93-5.61 0.03-11.22-0.02-16.83-0.07-7.14-10.27-14.23-20.58-21.37-30.85-7.38 10.31-14.82 20.57-22.11 30.94-5.68 0.11-11.37 0.03-17.05 0.04 9.88-14.48 20.28-28.59 30.55-42.8-8.83-12.98-17.83-25.84-26.78-38.74z"/>
<path d="m500.7 74.29c5.06-0.15 10.11-0.14 15.17-0.03 0.03 27.29 0.01 54.58 0.01 81.87-5.14 0.01-10.27 0-15.41 0 0.19-27.28 0.1-54.56 0.23-81.84z"/>
<path d="m648.34 74.22c12.98 0.56 26.98-1.79 38.94 4.57 11.66 6.24 14.35 24.75 3.6 33.13 6.77 2.67 13.32 7.7 15.1 15.11 2.85 9.09-2.18 19.15-10.13 23.86-14.49 7.96-31.56 4.25-47.29 5.33-0.49-27.33-0.18-54.66-0.22-82m15.06 11.78c0.03 7.8 0.01 15.59-0.04 23.38 5.64-0.23 11.89 0.11 16.7-3.37 4.91-4.37 4.73-13.42-0.69-17.31-4.74-3-10.59-2.66-15.97-2.7m0.09 34.09c-0.06 7.95-0.03 15.91 0.12 23.86 7.57-0.4 15.72 1 22.7-2.75 6.19-3.04 7.33-12.98 1.58-17.04-6.93-5.38-16.23-3.9-24.4-4.07z"/>
<path d="m914.58 74.22c5.04-0.04 10.08-0.02 15.13-0.01 0.02 10.78-0.1 21.57 0.13 32.36 12.42-10.93 25.08-21.58 37.57-32.42 6.9 0.04 13.8 0.07 20.7 0.05-14.9 12.22-29.68 24.57-44.32 37.09 14.4 15.2 29.32 29.89 44.05 44.77-6.84-0.07-13.69 0.47-20.5-0.32-11.72-11.96-23.36-23.99-34.97-36.05-0.85 1.12-1.69 2.24-2.52 3.36-0.3 11.03-0.03 22.05-0.22 33.08-5.07-0.03-10.14 0.1-15.2 0.07 0.04-27.32 0.11-54.65 0.15-81.98z"/>
<path d="m142.28 155.63c28.28-0.01 56.56-0.21 84.84 0.26 16.84 29.36 34.22 58.4 50.91 87.84-28.28 0.14-56.55 0.03-84.83 0.01-16.83-29.46-34.41-58.47-50.92-88.11z"/>
</g>
</svg>
