<?xml version="1.0" encoding="UTF-8" standalone="no"?>
<svg
   viewBox="0 0 271.81946 251.16567"
   version="1.1"
   id="svg37"
   sodipodi:docname="icon.svg"
   width="271.81946"
   height="251.16566"
   inkscape:version="1.3 (1:1.3+202307231459+0e150ed6c4)"
   xmlns:inkscape="http://www.inkscape.org/namespaces/inkscape"
   xmlns:sodipodi="http://sodipodi.sourceforge.net/DTD/sodipodi-0.dtd"
   xmlns="http://www.w3.org/2000/svg"
   xmlns:svg="http://www.w3.org/2000/svg">
  <defs
     id="defs37" />
  <sodipodi:namedview
     id="namedview37"
     pagecolor="#ffffff"
     bordercolor="#666666"
     borderopacity="1.0"
     inkscape:showpageshadow="2"
     inkscape:pageopacity="0.0"
     inkscape:pagecheckerboard="0"
     inkscape:deskcolor="#d1d1d1"
     inkscape:zoom="1.0776"
     inkscape:cx="328.97179"
     inkscape:cy="125.2784"
     inkscape:window-width="1920"
     inkscape:window-height="1136"
     inkscape:window-x="0"
     inkscape:window-y="0"
     inkscape:window-maximized="1"
     inkscape:current-layer="Layer_1-2" />
  <g
     id="Layer_2"
     data-name="Layer 2"
     transform="translate(-0.00974409,-0.00218231)">
    <g
       id="Layer_1-2"
       data-name="Layer 1">
      <path
         d="M 74.49,124.64 A 18.34,18.34 0 0 0 91.73,144 h 1 A 18.3,18.3 0 1 0 74.44,124.65 Z"
         fill="#0033ad"
         id="path1" />
      <path
         d="m 6.25,120 a 5.91,5.91 0 1 0 5.57,6.24 A 5.9,5.9 0 0 0 6.25,120 Z"
         fill="#0033ad"
         id="path2" />
      <path
         d="m 73.33,18.43 a 5.92,5.92 0 1 0 -8,-2.62 5.93,5.93 0 0 0 8,2.62 z"
         fill="#0033ad"
         id="path3" />
      <path
         d="M 91.9,50.81 A 9.14,9.14 0 1 0 79.62,46.76 9.14,9.14 0 0 0 91.9,50.81 Z"
         fill="#0033ad"
         id="path4" />
      <path
         d="M 29.41,73.08 A 7.53,7.53 0 1 0 27.25,62.66 7.53,7.53 0 0 0 29.41,73.08 Z"
         fill="#0033ad"
         id="path5" />
      <path
         d="m 40.54,116.67 a 9.14,9.14 0 1 0 8.61,9.65 9.15,9.15 0 0 0 -8.61,-9.65 z"
         fill="#0033ad"
         id="path6" />
      <path
         d="m 30.41,178.12 a 7.53,7.53 0 1 0 10.12,3.33 7.53,7.53 0 0 0 -10.12,-3.33 z"
         fill="#0033ad"
         id="path7" />
      <path
         d="m 65.94,97.78 a 10.76,10.76 0 1 0 -3.1,-14.9 10.75,10.75 0 0 0 3.1,14.9 z"
         fill="#0033ad"
         id="path8" />
      <path
         d="M 178.66,50.09 A 9.15,9.15 0 1 0 176,37.42 a 9.14,9.14 0 0 0 2.66,12.67 z"
         fill="#0033ad"
         id="path9" />
      <path
         d="m 197.42,17.81 a 5.92,5.92 0 1 0 -1.71,-8.19 5.92,5.92 0 0 0 1.71,8.19 z"
         fill="#0033ad"
         id="path10" />
      <path
         d="m 180.1,107.22 a 18.305139,18.305139 0 1 0 -2.1,36.55 c 0.35,0 0.71,0 1.06,0 a 18.3,18.3 0 0 0 13.64,-30.49 18.08,18.08 0 0 0 -12.6,-6.06 z"
         fill="#0033ad"
         id="path11" />
      <path
         d="M 97.91,96.51 A 18.23,18.23 0 0 0 114.27,106.58 18.31,18.31 0 0 0 130.61,80 18.24,18.24 0 0 0 114.25,70 18.31,18.31 0 0 0 97.91,96.51 Z"
         fill="#0033ad"
         id="path12" />
      <path
         d="m 241.41,73.06 a 7.53,7.53 0 1 0 -10.12,-3.34 7.54,7.54 0 0 0 10.12,3.34 z"
         fill="#0033ad"
         id="path13" />
      <path
         d="M 195,78.89 A 10.76,10.76 0 1 0 209.45,83.66 10.75,10.75 0 0 0 195,78.89 Z"
         fill="#0033ad"
         id="path14" />
      <path
         d="m 135.22,15.05 a 7.53,7.53 0 1 0 -7.09,-7.94 7.53,7.53 0 0 0 7.09,7.94 z"
         fill="#0033ad"
         id="path15" />
      <path
         d="M 135.14,62.44 A 10.76,10.76 0 1 0 125,51.08 10.77,10.77 0 0 0 135.14,62.44 Z"
         fill="#0033ad"
         id="path16" />
      <path
         d="m 76.84,172.28 a 10.76,10.76 0 1 0 -14.45,-4.76 10.76,10.76 0 0 0 14.45,4.76 z"
         fill="#0033ad"
         id="path17" />
      <path
         d="m 142.09,78.14 a 18.3,18.3 0 1 0 15.33,-8.27 18.32,18.32 0 0 0 -15.33,8.27 z"
         fill="#0033ad"
         id="path18" />
      <path
         d="m 173.91,154.67 a 18.3,18.3 0 1 0 -16.34,26.54 18.5,18.5 0 0 0 8.24,-2 18.31,18.31 0 0 0 8.1,-24.54 z"
         fill="#0033ad"
         id="path19" />
      <path
         d="m 205.89,153.39 a 10.76,10.76 0 1 0 3.09,14.9 10.78,10.78 0 0 0 -3.09,-14.9 z"
         fill="#0033ad"
         id="path20" />
      <path
         d="m 240.93,125.9 a 9.14,9.14 0 1 0 -9.65,8.61 9.15,9.15 0 0 0 9.65,-8.61 z"
         fill="#0033ad"
         id="path21" />
      <path
         d="m 266.25,119.39 a 5.92,5.92 0 1 0 5.57,6.25 5.93,5.93 0 0 0 -5.57,-6.25 z"
         fill="#0033ad"
         id="path22" />
      <path
         d="m 242.41,178.09 a 7.53,7.53 0 1 0 2.17,10.43 7.53,7.53 0 0 0 -2.17,-10.43 z"
         fill="#0033ad"
         id="path23" />
      <path
         d="m 74.41,233.36 a 5.92,5.92 0 1 0 1.7,8.2 5.92,5.92 0 0 0 -1.7,-8.2 z"
         fill="#0033ad"
         id="path24" />
      <path
         d="m 198.49,232.74 a 5.92,5.92 0 1 0 7.95,2.62 5.91,5.91 0 0 0 -7.95,-2.62 z"
         fill="#0033ad"
         id="path25" />
      <path
         d="m 129.73,173 a 18.3,18.3 0 1 0 -15.32,8.27 18.21,18.21 0 0 0 15.32,-8.27 z"
         fill="#0033ad"
         id="path26" />
      <path
         d="m 93.16,201.09 a 9.14,9.14 0 1 0 2.64,12.66 9.15,9.15 0 0 0 -2.64,-12.66 z"
         fill="#0033ad"
         id="path27" />
      <path
         d="m 135.83,236.12 a 7.53,7.53 0 1 0 7.09,7.95 7.53,7.53 0 0 0 -7.09,-7.95 z"
         fill="#0033ad"
         id="path28" />
      <path
         d="M 135.91,188.74 A 10.76,10.76 0 1 0 146,200.09 10.75,10.75 0 0 0 135.91,188.74 Z"
         fill="#0033ad"
         id="path29" />
      <path
         d="m 179.92,200.36 a 9.15,9.15 0 1 0 12.29,4 9.13,9.13 0 0 0 -12.29,-4 z"
         fill="#0033ad"
         id="path30" />
    </g>
  </g>
</svg>
