<?xml version="1.0" encoding="UTF-8"?>
<svg id="Layer_1" data-name="Layer 1" xmlns="http://www.w3.org/2000/svg" viewBox="0 0 256 256">
  <defs>
    <style>
      .cls-1 {
        fill: #95c93d;
      }

      .cls-1, .cls-2 {
        stroke-width: 0px;
      }

      .cls-2 {
        fill: #353735;
      }
    </style>
  </defs>
  <rect class="cls-2" x="-17.27" y="-23.2" width="286.91" height="305.38"/>
  <path class="cls-1" d="m164.52,160.28h-74.02v-14.1h23.48c10.04,0,18.21-8.16,18.21-18.18s-8.17-18.18-18.21-18.18h-23.48v-14.1h74.02c10.04,0,18.21-8.16,18.21-18.18s-8.17-18.18-18.21-18.18h-66.96c-10.04,0-18.21,8.16-18.21,18.18v7.05h-7c-10.04,0-18.21,8.16-18.21,18.18s8.17,18.18,18.21,18.18h7v14.1h-7c-10.04,0-18.21,8.16-18.21,18.18s8.17,18.18,18.21,18.18h7v7.05c0,10.03,8.17,18.18,18.21,18.18h66.96c10.04,0,18.21-8.16,18.21-18.18s-8.17-18.18-18.21-18.18Zm7.06,18.18c0,3.89-3.17,7.05-7.06,7.05h-66.96c-3.89,0-7.06-3.16-7.06-7.05v-7.05h74.02c3.89,0,7.06,3.16,7.06,7.05Zm-81.08-43.42v-14.1h23.48c3.89,0,7.06,3.16,7.06,7.05s-3.17,7.05-7.06,7.05h-23.48Zm0-50.47v-7.05c0-3.89,3.17-7.05,7.06-7.05h66.96c3.89,0,7.06,3.16,7.06,7.05s-3.17,7.05-7.06,7.05h-74.02Zm-11.15,61.6v14.1h-7c-3.89,0-7.06-3.16-7.06-7.05s3.17-7.05,7.06-7.05h7Zm0-50.47v14.1h-7c-3.89,0-7.06-3.16-7.06-7.05s3.17-7.05,7.06-7.05h7Z"/>
</svg>