<svg width="36" height="36" xmlns="http://www.w3.org/2000/svg" enable-background="new 0 0 244 36">

 <g>
  <title>Layer 1</title>
  <path id="svg_1" d="m30.17688,26.465l-19.382,0l0,-3.697l6.149,0c2.629,0 4.768,-2.139 4.768,-4.768s-2.139,-4.768 -4.768,-4.768l-6.149,0l0,-3.697l19.382,0c2.629,0 4.768,-2.139 4.768,-4.768s-2.139,-4.767 -4.768,-4.767l-17.533,0c-2.629,0 -4.768,2.139 -4.768,4.768l0,1.849l-1.834,0c-2.629,-0.001 -4.768,2.138 -4.768,4.767s2.139,4.768 4.768,4.768l1.834,0l0,3.697l-1.834,0c-2.629,0 -4.768,2.139 -4.768,4.767s2.139,4.768 4.768,4.768l1.834,0l0,1.849c0,2.628 2.138,4.767 4.767,4.767l17.534,0c2.629,0 4.768,-2.139 4.768,-4.768s-2.139,-4.767 -4.768,-4.767zm1.848,4.767c0,1.019 -0.829,1.849 -1.849,1.849l-17.533,0c-1.019,0 -1.849,-0.829 -1.849,-1.849l0,-1.849l19.382,0c1.02,0.001 1.849,0.83 1.849,1.849zm-21.23,-11.383l0,-3.697l6.149,0c1.019,0 1.849,0.829 1.849,1.849s-0.829,1.849 -1.849,1.849l-6.149,0l0,-0.001zm0,-13.233l0,-1.848c0,-1.019 0.829,-1.849 1.849,-1.849l17.533,0c1.019,0 1.849,0.829 1.849,1.849s-0.829,1.849 -1.849,1.849l-19.382,0l0,-0.001zm-2.919,16.152l0,3.697l-1.834,0c-1.019,0 -1.849,-0.829 -1.849,-1.849c0,-1.019 0.829,-1.849 1.849,-1.849l1.834,0l0,0.001zm0,-13.233l0,3.697l-1.834,0c-1.019,0 -1.849,-0.829 -1.849,-1.849s0.829,-1.849 1.849,-1.849l1.834,0l0,0.001z" opacity="undefined" fill="#92d400"/>
 </g>
</svg>