<svg enable-background="new 0 0 244 36" viewBox="0 0 244 36" xmlns="http://www.w3.org/2000/svg"><path d="m28.903 26.465h-19.382v-3.697h6.149c2.629 0 4.768-2.139 4.768-4.768s-2.139-4.768-4.768-4.768h-6.149v-3.697h19.382c2.629 0 4.768-2.139 4.768-4.768s-2.139-4.767-4.768-4.767h-17.533c-2.629 0-4.768 2.139-4.768 4.768v1.849h-1.834c-2.629-.001-4.768 2.138-4.768 4.767s2.139 4.768 4.768 4.768h1.834v3.697h-1.834c-2.629 0-4.768 2.139-4.768 4.767s2.139 4.768 4.768 4.768h1.834v1.849c0 2.628 2.138 4.767 4.767 4.767h17.534c2.629 0 4.768-2.139 4.768-4.768s-2.139-4.767-4.768-4.767zm1.848 4.767c0 1.019-.829 1.849-1.849 1.849h-17.533c-1.019 0-1.849-.829-1.849-1.849v-1.849h19.382c1.02.001 1.849.83 1.849 1.849zm-21.23-11.383v-3.697h6.149c1.019 0 1.849.829 1.849 1.849s-.829 1.849-1.849 1.849h-6.149zm0-13.233v-1.848c0-1.019.829-1.849 1.849-1.849h17.533c1.019 0 1.849.829 1.849 1.849s-.829 1.849-1.849 1.849h-19.382zm-2.919 16.152v3.697h-1.834c-1.019 0-1.849-.829-1.849-1.849 0-1.019.829-1.849 1.849-1.849h1.834zm0-13.233v3.697h-1.834c-1.019 0-1.849-.829-1.849-1.849s.829-1.849 1.849-1.849h1.834zm84.541 2.837c-1.358 0-2.514.427-3.434 1.269-.775.722-1.289 1.661-1.528 2.79h9.924c-.24-1.13-.754-2.069-1.53-2.793-.92-.84-2.075-1.266-3.432-1.266zm95.348-8.222h-3.043v5.651h-3.22v2.76h3.22v13.701h3.043v-13.701h3.63v-2.76h-3.63zm-11.316 5.863c-.793-.308-1.748-.465-2.837-.465-1.113 0-2.12.283-2.992.843-.578.371-1.103.803-1.563 1.287v-1.877h-3.044v16.461h3.044v-9.43c0-1.309.432-2.395 1.284-3.228.857-.818 1.915-1.232 3.145-1.232 1.203 0 2.193.4 2.943 1.189.756.795 1.139 1.885 1.139 3.24v9.462h3.044v-9.525c0-2.189-.691-3.978-2.052-5.317-.6-.622-1.31-1.095-2.111-1.408zm-16.652-.212h3.043v16.461h-3.043v-1.89c-1.297 1.422-3.084 2.142-5.313 2.142-2.361 0-4.315-.834-5.807-2.478-1.441-1.615-2.171-3.635-2.171-6.005 0-2.368.73-4.388 2.169-6.002 1.494-1.646 3.501-2.481 5.967-2.481 2.124 0 3.857.73 5.155 2.171zm.127 8.23c0-1.614-.451-2.963-1.341-4.011-.931-1.109-2.168-1.649-3.783-1.649-1.598 0-2.858.541-3.852 1.655-.927 1.046-1.398 2.393-1.398 4.005s.471 2.96 1.399 4.006c.994 1.113 2.253 1.654 3.851 1.654 1.615 0 2.852-.539 3.782-1.647.891-1.048 1.342-2.398 1.342-4.013zm64.01-8.23h3.043v16.461h-3.043v-1.89c-1.297 1.422-3.084 2.142-5.313 2.142-2.361 0-4.315-.834-5.807-2.478-1.441-1.615-2.171-3.635-2.171-6.005 0-2.368.73-4.388 2.169-6.002 1.494-1.646 3.501-2.481 5.967-2.481 2.124 0 3.857.73 5.155 2.171zm.126 8.23c0-1.614-.451-2.963-1.341-4.011-.931-1.109-2.168-1.649-3.783-1.649-1.598 0-2.858.541-3.852 1.655-.927 1.046-1.398 2.393-1.398 4.005s.471 2.96 1.399 4.006c.994 1.113 2.253 1.654 3.851 1.654 1.615 0 2.852-.539 3.782-1.647.891-1.048 1.342-2.398 1.342-4.013zm17.292-8.23-4.945 12.365-4.839-12.323-.017-.042h-3.356l6.578 15.898-3.025 6.814h3.301l9.593-22.62.039-.092zm-34.267 2.228c1.46 1.614 2.201 3.634 2.201 6.003 0 2.37-.741 4.39-2.202 6.005-1.47 1.644-3.466 2.478-5.934 2.478-2.125 0-3.858-.73-5.155-2.17v8.168h-3.044v-22.712h3.044v1.89c1.298-1.422 3.085-2.143 5.313-2.143 2.362.001 4.306.835 5.777 2.481zm-.843 6.002c0-1.611-.471-2.959-1.399-4.006-.994-1.113-2.254-1.654-3.851-1.654-1.614 0-2.852.539-3.782 1.647-.89 1.049-1.342 2.399-1.342 4.013s.451 2.964 1.341 4.012c.931 1.11 2.168 1.649 3.783 1.649 1.598 0 2.858-.542 3.852-1.655.928-1.046 1.398-2.394 1.398-4.006zm-107.833-6.008c1.443 1.575 2.175 3.596 2.175 6.008v1.285h-13.175c.209 1.199.741 2.214 1.579 3.017.941.901 2.158 1.358 3.618 1.358 2.008 0 3.407-.808 4.278-2.471l.095-.181h3.284l-.175.459c-.568 1.484-1.482 2.704-2.718 3.624-1.243.924-2.856 1.392-4.795 1.392-2.464 0-4.501-.832-6.054-2.473-1.507-1.594-2.271-3.616-2.271-6.01 0-2.412.731-4.433 2.173-6.006 1.534-1.644 3.551-2.477 5.995-2.477 2.442.001 4.458.833 5.991 2.475zm41.837-2.01c-.793-.308-1.748-.465-2.837-.465-1.113 0-2.12.283-2.992.843-.578.371-1.103.803-1.563 1.287v-8.191h-3.044v22.775h3.044v-9.43c0-1.309.432-2.395 1.284-3.228.857-.818 1.915-1.232 3.145-1.232 1.203 0 2.193.4 2.943 1.189.756.795 1.139 1.885 1.139 3.24v9.462h3.044v-9.525c0-2.189-.691-3.978-2.052-5.317-.6-.622-1.311-1.095-2.111-1.408zm-61.93.021c-1.396-.604-3.132-.647-4.531-.117-1.382.519-2.464 1.353-3.216 2.483-.501-.816-1.151-1.476-1.932-1.964-.945-.589-1.988-.888-3.099-.888-1.87 0-3.37.65-4.46 1.933v-1.68h-3.044v16.461h3.044v-9.777c0-1.286.39-2.309 1.16-3.041.741-.721 1.645-1.072 2.763-1.072 1.047 0 1.883.355 2.555 1.084.678.774 1.021 1.783 1.021 2.997v9.809h3.044v-9.777c0-1.305.379-2.299 1.161-3.041.73-.711 1.66-1.072 2.763-1.072 1.047 0 1.883.355 2.555 1.084.678.774 1.021 1.783 1.021 2.997v9.809h3.044v-9.872c0-1.974-.626-3.646-1.863-4.97-.575-.598-1.243-1.064-1.986-1.386zm39.753 2.782c.657-.295 1.476-.444 2.435-.444.932 0 1.768.265 2.484.787.722.528 1.257 1.221 1.59 2.061l.084.214h3.246l-.137-.439c-.504-1.621-1.439-2.943-2.777-3.93-1.4-1.006-3.081-1.516-4.996-1.516-2.402 0-4.387.833-5.9 2.477-1.463 1.594-2.204 3.614-2.204 6.006s.742 4.413 2.205 6.007c1.513 1.643 3.498 2.476 5.9 2.476 1.916 0 3.598-.51 4.999-1.518 1.337-.986 2.27-2.307 2.774-3.928l.137-.438h-3.246l-.084.214c-.333.841-.868 1.535-1.59 2.062-.717.522-1.552.787-2.484.787-1.743 0-3.125-.557-4.106-1.657-.968-1.067-1.459-2.414-1.459-4.004 0-1.589.492-2.937 1.462-4.006.448-.51 1.009-.917 1.667-1.211zm-9.511-2.731c-1.225.567-2.167 1.367-2.803 2.382v-2.666h-3.044v16.461h3.044v-7.283c0-1.725.486-3.227 1.443-4.464 1.015-1.294 2.291-1.923 3.901-1.923h.622v-3.043h-.496c-1.035 0-1.932.18-2.667.536zm-52.651 7.946c0-2.412-.732-4.434-2.175-6.008-1.533-1.642-3.549-2.475-5.992-2.475-2.444 0-4.461.833-5.995 2.477-1.442 1.573-2.173 3.593-2.173 6.006 0 2.394.764 4.416 2.271 6.01 1.554 1.641 3.591 2.473 6.054 2.473 1.939 0 3.552-.469 4.795-1.392 1.236-.92 2.151-2.139 2.718-3.624l.175-.459h-3.284l-.095.181c-.871 1.663-2.27 2.471-4.278 2.471-1.46 0-2.677-.457-3.618-1.358-.839-.803-1.37-1.818-1.579-3.017h13.175v-1.285zm-13.13-1.6c.239-1.13.753-2.068 1.528-2.79.92-.842 2.076-1.269 3.434-1.269s2.512.426 3.431 1.266c.776.724 1.291 1.663 1.53 2.793z" fill="#92d400"/></svg>