<?xml version="1.0" encoding="UTF-8"?><svg id="Layer_1" xmlns="http://www.w3.org/2000/svg" viewBox="0 0 677 100"><defs><style>.cls-1{fill:#353735;}.cls-2{fill:#95c93d;}</style></defs><g><path class="cls-1" d="M129.24,26.52c-6.8,0-12.41,2.32-16.67,6.88-4.01,4.37-6.04,9.98-6.04,16.68s2.13,12.27,6.32,16.69c4.32,4.56,9.99,6.87,16.84,6.87,5.39,0,9.88-1.3,13.34-3.87,3.44-2.56,5.98-5.94,7.56-10.07l.49-1.27h-9.13l-.26,.5c-2.42,4.62-6.31,6.86-11.9,6.86-4.06,0-7.45-1.27-10.06-3.77-2.33-2.23-3.81-5.05-4.39-8.38h36.65v-3.57c0-6.7-2.03-12.32-6.05-16.69-4.26-4.56-9.87-6.87-16.67-6.87Zm-13.8,19.12c.67-3.14,2.1-5.74,4.25-7.75,2.56-2.34,5.77-3.52,9.55-3.52s6.99,1.18,9.54,3.52c2.16,2.01,3.59,4.62,4.26,7.76h-27.6Z"/><path class="cls-1" d="M214.28,27.87h0c-3.88-1.68-8.71-1.8-12.6-.32-3.85,1.44-6.85,3.76-8.95,6.9-1.39-2.27-3.2-4.1-5.37-5.45-2.63-1.64-5.53-2.47-8.62-2.47-5.2,0-9.37,1.81-12.41,5.37v-4.67h-8.47v45.73h8.47v-27.16c0-3.57,1.09-6.42,3.23-8.45,2.06-2,4.58-2.98,7.69-2.98,2.91,0,5.24,.99,7.11,3.01,1.88,2.15,2.84,4.95,2.84,8.33v27.25h8.47v-27.16c0-3.62,1.06-6.39,3.23-8.45,2.03-1.98,4.62-2.98,7.68-2.98s5.24,.99,7.11,3.01c1.88,2.15,2.84,4.95,2.84,8.33v27.25h8.47v-27.42c0-5.48-1.74-10.13-5.18-13.81-1.6-1.66-3.46-2.96-5.53-3.85Z"/><path class="cls-1" d="M253.5,26.52c-6.8,0-12.41,2.32-16.67,6.88-4.01,4.37-6.04,9.98-6.04,16.68s2.13,12.27,6.32,16.69c4.32,4.56,9.99,6.87,16.84,6.87,5.39,0,9.88-1.3,13.34-3.87,3.44-2.56,5.98-5.94,7.56-10.07l.49-1.27h-9.13l-.26,.5c-2.42,4.62-6.31,6.86-11.9,6.86-4.06,0-7.45-1.27-10.06-3.77-2.33-2.23-3.81-5.05-4.39-8.38h36.65v-3.57c0-6.7-2.03-12.32-6.05-16.69-4.26-4.56-9.87-6.87-16.67-6.87Zm-13.8,19.12c.67-3.14,2.1-5.74,4.25-7.75,2.56-2.34,5.77-3.52,9.55-3.52s6.99,1.18,9.54,3.52c2.16,2.01,3.59,4.62,4.26,7.76h-27.6Z"/><path class="cls-1" d="M298.39,28.01c-3.41,1.57-6.03,3.8-7.8,6.62v-7.4h-8.47v45.73h8.47v-20.23c0-4.79,1.35-8.96,4.01-12.4,2.82-3.59,6.37-5.34,10.85-5.34h1.73v-8.46h-1.38c-2.88,0-5.38,.5-7.42,1.49Z"/><path class="cls-1" d="M324.85,35.6c1.83-.82,4.11-1.23,6.77-1.23s4.92,.74,6.91,2.19c2.01,1.47,3.5,3.39,4.42,5.73l.23,.59h9.03l-.38-1.22c-1.4-4.5-4-8.17-7.72-10.92-3.89-2.79-8.57-4.21-13.9-4.21-6.68,0-12.2,2.32-16.41,6.88-4.07,4.43-6.13,10.04-6.13,16.68s2.06,12.26,6.13,16.69c4.21,4.56,9.73,6.88,16.41,6.88,5.33,0,10.01-1.42,13.9-4.22,3.72-2.74,6.31-6.41,7.71-10.91l.38-1.22h-9.03l-.23,.59c-.93,2.34-2.41,4.26-4.42,5.73-1.99,1.45-4.32,2.19-6.91,2.19-4.85,0-8.69-1.55-11.42-4.6-2.69-2.96-4.06-6.71-4.06-11.12s1.37-8.16,4.07-11.13c1.25-1.41,2.81-2.54,4.64-3.36Z"/><path class="cls-1" d="M386.53,27.81c-2.21-.86-4.86-1.29-7.89-1.29s-5.9,.79-8.32,2.34c-1.61,1.03-3.07,2.23-4.35,3.58V9.69h-8.47v63.26h8.47v-26.19c0-3.64,1.2-6.65,3.57-8.97,2.38-2.27,5.33-3.42,8.75-3.42s6.1,1.11,8.19,3.3c2.1,2.21,3.17,5.24,3.17,9v26.28h8.47v-26.46c0-6.08-1.92-11.05-5.71-14.77-1.67-1.73-3.64-3.04-5.87-3.91Z"/><path class="cls-1" d="M440.91,32.55c-3.61-4-8.43-6.03-14.34-6.03-6.86,0-12.44,2.32-16.6,6.89-4,4.48-6.03,10.09-6.03,16.67s2.03,12.19,6.04,16.68c4.15,4.57,9.58,6.88,16.15,6.88,6.2,0,11.17-2,14.78-5.95v5.25h8.46V27.23h-8.46v5.33Zm-3.38,6.39c2.47,2.91,3.73,6.66,3.73,11.14s-1.26,8.23-3.73,11.15c-2.59,3.08-6.03,4.58-10.52,4.58s-7.95-1.5-10.71-4.6c-2.58-2.91-3.89-6.65-3.89-11.13s1.31-8.22,3.89-11.13c2.76-3.09,6.27-4.6,10.71-4.6s7.93,1.5,10.52,4.58Z"/><path class="cls-1" d="M487.22,27.81c-2.21-.86-4.86-1.29-7.89-1.29s-5.9,.79-8.32,2.34c-1.61,1.03-3.07,2.23-4.35,3.58v-5.22h-8.47v45.73h8.47v-26.19c0-3.64,1.2-6.65,3.57-8.97,2.38-2.27,5.33-3.42,8.75-3.42s6.1,1.11,8.19,3.3c2.1,2.21,3.17,5.24,3.17,9v26.28h8.47v-26.46c0-6.08-1.92-11.05-5.71-14.77-1.67-1.73-3.64-3.04-5.87-3.91Z"/><polygon class="cls-1" points="518.7 11.53 510.23 11.53 510.23 27.23 501.28 27.23 501.28 34.89 510.23 34.89 510.23 72.95 518.7 72.95 518.7 34.89 528.79 34.89 528.79 27.23 518.7 27.23 518.7 11.53"/><path class="cls-1" d="M556.37,26.52c-6.2,0-11.17,2-14.78,5.95v-5.25h-8.47v63.09h8.47v-22.69c3.61,4,8.43,6.03,14.34,6.03,6.86,0,12.42-2.32,16.5-6.88,4.06-4.48,6.12-10.1,6.12-16.68s-2.06-12.19-6.12-16.67c-4.09-4.57-9.5-6.89-16.07-6.89Zm13.72,23.56c0,4.48-1.31,8.22-3.89,11.13-2.77,3.09-6.27,4.6-10.71,4.6s-7.93-1.5-10.52-4.58c-2.48-2.91-3.73-6.66-3.73-11.14s1.26-8.23,3.73-11.15c2.59-3.08,6.03-4.58,10.52-4.58s7.95,1.5,10.71,4.59c2.58,2.91,3.89,6.65,3.89,11.13Z"/><path class="cls-1" d="M619.3,32.55c-3.61-4-8.43-6.03-14.34-6.03-6.86,0-12.44,2.32-16.6,6.89-4,4.48-6.03,10.09-6.03,16.67s2.03,12.19,6.04,16.68c4.15,4.57,9.58,6.88,16.15,6.88,6.2,0,11.17-2,14.78-5.95v5.25h8.46V27.23h-8.46v5.33Zm-3.38,6.39c2.48,2.91,3.73,6.66,3.73,11.14s-1.26,8.23-3.73,11.15c-2.59,3.08-6.03,4.58-10.52,4.58s-7.95-1.5-10.71-4.6c-2.58-2.91-3.89-6.65-3.89-11.13s1.31-8.22,3.89-11.13c2.76-3.09,6.27-4.6,10.71-4.6s7.93,1.5,10.52,4.58Z"/><polygon class="cls-1" points="667.74 27.23 653.99 61.57 640.53 27.34 640.48 27.23 631.15 27.23 649.44 71.39 641.03 90.31 650.21 90.31 676.89 27.48 677 27.23 667.74 27.23"/></g><path class="cls-2" d="M80.39,73.51H26.48v-10.27h17.1c7.31,0,13.26-5.94,13.26-13.24s-5.95-13.24-13.26-13.24H26.48v-10.27h53.91c7.31,0,13.26-5.94,13.26-13.24S87.7,0,80.39,0H31.62c-7.31,0-13.26,5.94-13.26,13.24v5.14h-5.1C5.95,18.38,0,24.32,0,31.62s5.95,13.24,13.26,13.24h5.1v10.27h-5.1c-7.31,0-13.26,5.94-13.26,13.24s5.95,13.24,13.26,13.24h5.1v5.14c0,7.3,5.95,13.24,13.26,13.24h48.77c7.31,0,13.26-5.94,13.26-13.24s-5.95-13.24-13.26-13.24Zm5.14,13.24c0,2.83-2.31,5.14-5.14,5.14H31.62c-2.84,0-5.14-2.3-5.14-5.14v-5.14h53.91c2.84,0,5.14,2.3,5.14,5.14ZM26.48,55.14v-10.27h17.1c2.84,0,5.14,2.3,5.14,5.14s-2.31,5.14-5.14,5.14H26.48Zm0-36.76v-5.14c0-2.83,2.31-5.14,5.14-5.14h48.77c2.84,0,5.14,2.3,5.14,5.14s-2.31,5.14-5.14,5.14H26.48Zm-8.12,44.86v10.27h-5.1c-2.84,0-5.14-2.3-5.14-5.14s2.31-5.14,5.14-5.14h5.1Zm0-36.76v10.27h-5.1c-2.84,0-5.14-2.3-5.14-5.14s2.31-5.14,5.14-5.14h5.1Z"/></svg>