<svg xmlns="http://www.w3.org/2000/svg" viewBox="0 0 493.48 180.93"><defs><style>.cls-1{fill:#32a8ff;}.cls-2{fill:#163d80;}.cls-3{fill:#fad13f;}.cls-4{fill:#f32623;}</style></defs><title>gumballpaylogo</title><g id="Layer_2" data-name="Layer 2"><g id="Layer_1-2" data-name="Layer 1"><path class="cls-1" d="M28.4,153.57q-8.52,0-14-2.31a17.63,17.63,0,0,1-8.67-7.85Q2.55,137.88,1.27,128A199.57,199.57,0,0,1,0,103.19Q0,85.12,2.24,73.82T8.67,56.48A21.37,21.37,0,0,1,19,48.18a40.37,40.37,0,0,1,13.9-2.24q8.07,0,12.18,2.61t4.11,6.06a24.48,24.48,0,0,1-.67,5.68c-.45,1.89-.92,3.59-1.42,5.08a12.72,12.72,0,0,0-4.63-2.17,22.86,22.86,0,0,0-6-.82,17.76,17.76,0,0,0-9.27,2.17,14.34,14.34,0,0,0-5.61,6.8,41.14,41.14,0,0,0-2.76,12.19q-.75,7.54-.75,18.31,0,11.36.52,18.39a48,48,0,0,0,1.72,10.69c.8,2.44,1.89,4.08,3.29,4.93a9.6,9.6,0,0,0,5.08,1.27,11.28,11.28,0,0,0,2.47-.22,5.81,5.81,0,0,0,1.5-.53,3.79,3.79,0,0,0,.82-.6V102.3H26.61V91.53q0-3,3.59-3h19L49,148.94a25.07,25.07,0,0,1-5.61,2.54,40.7,40.7,0,0,1-7,1.57A58.38,58.38,0,0,1,28.4,153.57Z"/><path class="cls-1" d="M79.08,153.57q-9,0-13.83-2.69a14.66,14.66,0,0,1-6.8-7.69,33.43,33.43,0,0,1-1.94-12V80.32a2.7,2.7,0,0,1,.67-2.09c.45-.4,1.89-.65,4.34-.75s6.55-.15,12.33-.15V132.2a16.71,16.71,0,0,0,.37,3.81,4.17,4.17,0,0,0,1.42,2.39,5,5,0,0,0,3.14.82,10.28,10.28,0,0,0,3-.45,6.93,6.93,0,0,0,2.69-1.49v-57a2.7,2.7,0,0,1,.68-2.09c.45-.4,1.81-.65,4.11-.75s6.28-.15,12-.15v70.56a45.18,45.18,0,0,1-9.5,3.89A43,43,0,0,1,79.08,153.57Z"/><path class="cls-1" d="M110.62,152.08V80.77a51.34,51.34,0,0,1,10.32-3.51,54.64,54.64,0,0,1,12.71-1.42q9,0,13.3,4.56t5.68,13.08A133.21,133.21,0,0,1,154,114v35.13a2.42,2.42,0,0,1-.82,2.09c-.55.4-2,.65-4.34.75s-6.2.15-11.59.15V96a17.6,17.6,0,0,0-.29-3.74,2.36,2.36,0,0,0-1.2-1.64,6.25,6.25,0,0,0-2.69-.45,8.92,8.92,0,0,0-3,.52A13.12,13.12,0,0,0,127.37,92v57.11a2.42,2.42,0,0,1-.82,2.09c-.55.4-2,.65-4.27.75S116.1,152.08,110.62,152.08Zm26.61,0V89.14q0-3.73,4.19-6.73a34.14,34.14,0,0,1,10.39-4.78,43,43,0,0,1,11.88-1.79q7.63,0,11.22,2.39a10.93,10.93,0,0,1,4.63,7,49.64,49.64,0,0,1,1.05,11v52.92a2.42,2.42,0,0,1-.82,2.09c-.55.4-2,.65-4.34.75s-6.2.15-11.59.15V96.62c0-2.3-.29-3.89-.89-4.79s-1.75-1.34-3.44-1.34a14.11,14.11,0,0,0-2.92.3,8.16,8.16,0,0,0-2.61,1v57.26a2.88,2.88,0,0,1-.6,2.09q-.6.6-4.11.75T137.23,152.08Z"/><path class="cls-1" d="M189.41,152.08V50.42a2.75,2.75,0,0,1,.9-2.24,5.26,5.26,0,0,1,3.28-.75h14.65a44.17,44.17,0,0,1,9.27,1,21.83,21.83,0,0,1,8.08,3.52,17.8,17.8,0,0,1,5.75,7.1q2.17,4.56,2.17,11.88a34.27,34.27,0,0,1-2.09,12.79,20.74,20.74,0,0,1-5.24,7.92,12.3,12.3,0,0,1-6.42,3.21,29.47,29.47,0,0,1,5.68,1.27,15.88,15.88,0,0,1,5.6,3.29,16.59,16.59,0,0,1,4.26,6.43A29.12,29.12,0,0,1,237,116.5a63.38,63.38,0,0,1-1,11.29,38.73,38.73,0,0,1-3.07,9.71,27.3,27.3,0,0,1-5.38,7.7,22.66,22.66,0,0,1-7.85,5.09A29.23,29.23,0,0,1,209,152.08Zm17-63.39h2.84a3.69,3.69,0,0,0,3.07-1.79,13.6,13.6,0,0,0,1.94-5,36.27,36.27,0,0,0,.67-7.4,34.84,34.84,0,0,0-.67-7.92A6.31,6.31,0,0,0,212.43,63a4.15,4.15,0,0,0-2.54-.9h-3.44Zm0,48.89h3a4.3,4.3,0,0,0,3.14-1.35,10.92,10.92,0,0,0,2.32-3.88,29.76,29.76,0,0,0,1.49-6.13,57.36,57.36,0,0,0,.53-8.23,57,57,0,0,0-.45-8.07,13.48,13.48,0,0,0-1.35-4.56,4.53,4.53,0,0,0-2.24-2.09,8.61,8.61,0,0,0-3.14-.52h-3.29Z"/><path class="cls-1" d="M262.66,153.57a42.19,42.19,0,0,1-8-.74,14.74,14.74,0,0,1-11.51-10.17q-1.72-4.64-1.72-12.41a45.39,45.39,0,0,1,1.42-12.48,18.87,18.87,0,0,1,3.89-7.55,12.72,12.72,0,0,1,5.53-3.66,20.8,20.8,0,0,1,6.35-1,34.8,34.8,0,0,1,4.64.44,11.58,11.58,0,0,1,4.93,1.8V97.51a7.05,7.05,0,0,0-.6-3.14,3.83,3.83,0,0,0-1.94-1.79,9.41,9.41,0,0,0-3.74-.6,52.27,52.27,0,0,0-9.19.9A55.18,55.18,0,0,0,244,95.12a17.35,17.35,0,0,1-1.79-5.23,28.07,28.07,0,0,1-.45-4.49,9.24,9.24,0,0,1,.52-2.91,4.47,4.47,0,0,1,1.57-2.32c1.1-.79,3.59-1.72,7.48-2.76a58,58,0,0,1,14.8-1.57q10.31,0,14.57,4t4.26,14.21v24.51q0,9-.15,16.82t-.59,13.38a31.7,31.7,0,0,1-9.27,3.51A54.71,54.71,0,0,1,262.66,153.57Zm1.19-13.75a7.55,7.55,0,0,0,2.25-.37,3.61,3.61,0,0,0,1.79-1.12c.1-1.1.17-2.77.23-5s.07-4.66.07-7.25v-7a3.55,3.55,0,0,0-1.87-1,10.34,10.34,0,0,0-2-.22,4.45,4.45,0,0,0-2.16.52,4.1,4.1,0,0,0-1.65,1.87,12.92,12.92,0,0,0-1.05,3.66,38.25,38.25,0,0,0-.37,5.91,38.68,38.68,0,0,0,.23,4.55,11.6,11.6,0,0,0,.74,3.14,3.42,3.42,0,0,0,1.5,1.8A4.8,4.8,0,0,0,263.85,139.82Z"/><path class="cls-1" d="M293.9,152.08V49.52c0-2.48.45-4.23,1.35-5.23s2.56-1.59,5-1.79,5.9-.3,10.39-.3V149.09a2.67,2.67,0,0,1-.68,2.09c-.44.4-1.84.65-4.18.75S299.48,152.08,293.9,152.08Z"/><path class="cls-1" d="M320.51,152.08V49.52c0-2.48.45-4.23,1.35-5.23s2.56-1.59,5-1.79,5.9-.3,10.39-.3V149.09a2.67,2.67,0,0,1-.68,2.09c-.44.4-1.84.65-4.18.75S326.09,152.08,320.51,152.08Z"/><path class="cls-2" d="M346.67,152.08V50.42a3.88,3.88,0,0,1,.53-2.32c.35-.44,1.17-.67,2.46-.67h10.77c1.49,0,2.49,1,3,3v98.67a2.51,2.51,0,0,1-.75,2.09c-.5.4-1.89.65-4.19.75S352.25,152.08,346.67,152.08Zm4.94-40.36c-1.7,0-2.69-.3-3-.9a8.19,8.19,0,0,1-.45-3.29V50.42c.2-2,1.09-3,2.69-3h12.86a42.84,42.84,0,0,1,15.92,2.62,18.59,18.59,0,0,1,9.86,9.27q3.38,6.65,3.37,18.91,0,10.17-2.47,16.67a25.31,25.31,0,0,1-6.58,10.16,23.66,23.66,0,0,1-9.12,5.16,35.5,35.5,0,0,1-10.24,1.5Zm11.81-15.4h3a5.63,5.63,0,0,0,4-1.57q1.65-1.57,2.62-5.91a62,62,0,0,0,1-12.7,38.8,38.8,0,0,0-.67-7.93,10.22,10.22,0,0,0-2.09-4.71,4.92,4.92,0,0,0-3.82-1.57h-4Z"/><path class="cls-2" d="M418.58,153.57a42.19,42.19,0,0,1-8-.74,15.55,15.55,0,0,1-6.8-3.14,15.79,15.79,0,0,1-4.71-7,36.69,36.69,0,0,1-1.72-12.41,45.39,45.39,0,0,1,1.42-12.48,19,19,0,0,1,3.89-7.55,12.72,12.72,0,0,1,5.53-3.66,20.8,20.8,0,0,1,6.35-1,34.8,34.8,0,0,1,4.64.44,11.53,11.53,0,0,1,4.93,1.8V97.51a7.05,7.05,0,0,0-.6-3.14,3.83,3.83,0,0,0-1.94-1.79,9.41,9.41,0,0,0-3.74-.6,52.27,52.27,0,0,0-9.19.9,55.18,55.18,0,0,0-8.75,2.24,17.35,17.35,0,0,1-1.79-5.23,28.07,28.07,0,0,1-.45-4.49,9,9,0,0,1,.53-2.91,4.45,4.45,0,0,1,1.56-2.32c1.1-.79,3.59-1.72,7.48-2.76A58.05,58.05,0,0,1,422,75.84q10.32,0,14.58,4t4.26,14.21v24.51q0,9-.15,16.82t-.6,13.38a31.48,31.48,0,0,1-9.27,3.51A54.65,54.65,0,0,1,418.58,153.57Zm1.2-13.75a7.54,7.54,0,0,0,2.24-.37,3.57,3.57,0,0,0,1.79-1.12c.1-1.1.18-2.77.23-5s.07-4.66.07-7.25v-7a3.55,3.55,0,0,0-1.87-1,10.25,10.25,0,0,0-2-.22,4.46,4.46,0,0,0-2.17.52,4.1,4.1,0,0,0-1.65,1.87,13,13,0,0,0-1,3.66,38.08,38.08,0,0,0-.38,5.91,38.68,38.68,0,0,0,.23,4.55,11.58,11.58,0,0,0,.75,3.14,3.36,3.36,0,0,0,1.49,1.8A4.82,4.82,0,0,0,419.78,139.82Z"/><path class="cls-2" d="M455.51,180.93q-8.22,0-11-2.16a6.56,6.56,0,0,1-2.77-5.31,24.76,24.76,0,0,1,.53-4.86,12.37,12.37,0,0,1,1.57-4.26,11.91,11.91,0,0,0,4.11,1.79,23,23,0,0,0,6.05.75,5.9,5.9,0,0,0,4.71-2.54q2-2.55,2.77-9.87l-16.3-72.8a5.35,5.35,0,0,1,0-3.14q.45-.9,4.11-1t12.34-.15L466,103.19q.9,4.94,1.57,10.17t1.12,9.79c.3,3,.65,6.46,1,10.24q.45-5.67.9-10.16c.3-3,.64-6.26,1-9.79s.8-7,1.2-10.25L475.69,82a5.64,5.64,0,0,1,1.2-3.29c.59-.6,2.11-1,4.56-1.12s6.45-.23,12-.23l-16.74,78.19A74.93,74.93,0,0,1,472,170.84q-2.62,5.61-6.51,7.85A19.81,19.81,0,0,1,455.51,180.93Z"/><circle class="cls-1" cx="97.82" cy="57.98" r="9.98"/><circle class="cls-3" cx="134.42" cy="57.98" r="9.98"/><circle class="cls-4" cx="116.12" cy="43.24" r="9.98"/><path class="cls-2" d="M154.29,15.9c-.63-.65-1.25-1.23-1.85-1.79l0,0h0A53.88,53.88,0,0,0,82.18,12h-.06l-1.71,1.49c-.71.62-1.42,1.28-2.15,2A53.8,53.8,0,0,0,64.91,70.77h6.34a47.91,47.91,0,0,1,11.21-51c.62-.61,1.25-1.2,1.9-1.77h0c-.65.57-1.28,1.16-1.9,1.77a94,94,0,0,0,34.19,6.4A94.13,94.13,0,0,0,150,20.1a48,48,0,0,1,10.89,50.67h6.34A53.86,53.86,0,0,0,154.29,15.9Z"/></g></g></svg>