<?xml version="1.0" encoding="utf-8"?>
<!-- Generator: Adobe Illustrator 19.0.0, SVG Export Plug-In . SVG Version: 6.00 Build 0)  -->
<svg version="1.1" id="layer" xmlns="http://www.w3.org/2000/svg" xmlns:xlink="http://www.w3.org/1999/xlink" x="0px" y="0px"
	 viewBox="-153 -46 652 652" style="enable-background:new -153 -46 652 652;" xml:space="preserve">
<style type="text/css">
	.st0{fill:#EF809F;}
	.st1{fill:#FFFFFF;}
</style>
<g>
	<path class="st0" d="M504.7,525.5H-168c-21.4-0.2-38.7-17.6-38.7-39.1V64.6c0-21.6,17.5-39.1,39.1-39.1h671.9
		c21.6,0,39.1,17.5,39.1,39.1v421.9C543.3,507.9,526.1,525.3,504.7,525.5"/>
	<path class="st1" d="M18.4,472.4c17,0,30-11.4,30-28.1c0-15.5-11-22.2-24.5-26.2c-8.6-2.5-14-4.4-14-10.5c0-5.1,3.7-9.1,9.6-9.1
		c5,0,8.7,2.9,11.4,7.3l14.1-8.9c-4.4-9.7-14.3-14.7-25-14.7c-17,0-27.8,12.2-27.8,26.4c0,11.3,6.8,20,23.5,24.9
		c9.1,2.6,14.9,4.4,14.9,11.6c0,6.8-4.9,11-12,11c-7.6,0-13.4-4.9-16.9-9.4L-10,458.4C-3.7,467,6.5,472.4,18.4,472.4 M87.1,472.4
		c-18,0-32.6-14.4-32.6-31.9s14.6-31.9,32.6-31.9c18,0,32.6,14.4,32.6,31.9S105.1,472.4,87.1,472.4 M87.1,456.4
		c8.7,0,15.6-6.9,15.6-15.9c0-9-6.9-15.9-15.6-15.9c-8.8,0-15.6,6.9-15.6,15.9C71.5,449.6,78.4,456.4,87.1,456.4 M161.8,399.3v-16
		h-2.5c-20.7,0-30.9,13.8-30.9,30v57.5h17v-25.2c0-8.4,6.5-14.4,15.9-14.6v-16.2c-6.7,0-12.1,2-15.9,6v-6.5
		C145.4,403.7,152.3,398.9,161.8,399.3 M198.9,472.4c-18,0-32.6-14.4-32.6-31.9s14.6-31.9,32.6-31.9c18,0,32.6,14.4,32.6,31.9
		S216.9,472.4,198.9,472.4 M198.9,456.4c8.8,0,15.6-6.9,15.6-15.9c0-9-6.9-15.9-15.6-15.9c-8.7,0-15.6,6.9-15.6,15.9
		C183.3,449.6,190.2,456.4,198.9,456.4 M257.2,417.2v-6.9h-16.5v60.5h17v-27.6c0-10,5.9-15.6,16.1-15.6v-18.2
		C266.1,409.1,260.6,411.7,257.2,417.2 M300.6,439.9v-14.8c3.8,4,9.1,6,15.9,6V415c-9.2-0.2-15.9-6.4-15.9-14.6v-9.5h-17v50
		c0,16.2,10.1,30,30.9,30h2.5v-16C307.5,455.2,300.6,450.5,300.6,439.9 M337.3,471.8c6.2,0,11.4-5.1,11.4-11.4
		c0-6.2-5.1-11.4-11.4-11.4s-11.4,5.1-11.4,11.4C325.9,466.7,331,471.8,337.3,471.8"/>
	<path class="st1" d="M141.4,257.9c5.3,5.2,5.4,13.7,0.2,19l-1,1.1c-5.2,5.3-13.7,5.4-19,0.2l-30-29.7c-8.3-8.3-9.4-18.5-4.2-23.9
		l1-1.1c4.3-4.5,11.4-4.9,16.3-1.1c2.3,1.8,5.7,1.4,7.6-0.9c1.8-2.3,1.4-5.7-0.9-7.6c-9.3-7.3-22.6-6.4-30.8,2l-1,1.1
		c-9.7,10-7.8,26.9,4.3,39L114,286c9.7,9.3,25,9.1,34.4-0.5l1.1-1.1c9.2-9.6,9-24.8-0.5-34.2c-2.1-2.1-5.5-2.1-7.6,0.1
		C139.2,252.4,139.2,255.8,141.4,257.9 M123.4,96.8l12.3,101c0.3,2.9,3,5.1,6,4.7c2.9-0.3,5.1-3,4.7-6L134.1,95.1l-0.1-0.6
		c-2.1-8.4,3.1-17.8,10.1-19.3c3.9-0.8,8-0.1,11.3,2.1c3.3,2.2,5.6,5.6,6.4,9.5l21.4,91.4c0.7,2.9,3.6,4.7,6.5,4
		c2.9-0.7,4.7-3.6,4-6.5l-21.3-91.1c-1.3-6.6-5.3-12.5-11-16.3c-5.7-3.8-12.8-5.1-19.5-3.7C128.7,67.4,120.1,82.8,123.4,96.8"/>
	<path class="st1" d="M236.2,215.4l24.3-121c2.8-13-4.9-26.1-17.8-29.9c-14.4-3.6-28.9,4.8-32.6,19l-26.9,92.1
		c-0.8,2.9,0.8,5.9,3.7,6.7c2.9,0.8,5.9-0.8,6.7-3.7l26.9-92.2c2.3-8.5,10.9-13.6,19.3-11.5c7.2,2.2,11.7,9.7,10.1,17.3l-24.3,121.1
		c-0.6,2.9,1.3,5.8,4.2,6.4C232.8,220.2,235.7,218.3,236.2,215.4 M175.1,332c-38.5,0-70.6-28.2-70.6-68.3c0-3-2.4-5.4-5.4-5.4
		c-3,0-5.4,2.4-5.4,5.4c0,46.4,37.3,79.1,81.4,79.1c3,0,5.4-2.4,5.4-5.4C180.5,334.4,178.1,332,175.1,332 M156.1,237.7
		c-0.8,3-2.7,5.7-5.3,7.4l-1.2,0.7c-6.2,4.2-14.6,2.6-18.8-3.6l-23.6-35.1c-6.4-9.8-5.6-20,0.6-24.3l1.1-0.8c8-4.6,14.7-1.1,21.6,9
		l19.7,29.4c1.7,2.5,5,3.1,7.5,1.5c2.5-1.6,3.1-5,1.5-7.5L139.5,185c-9.8-14.2-21.8-20.5-36.3-12.1l-1.5,1
		c-11.6,7.9-13,24.9-3.5,39.2l23.6,35.2c7.6,11.1,22.6,14,33.7,6.5l1.2-0.8c4.7-3.2,8.1-8,9.7-13.5c0.8-2.9-0.9-5.8-3.8-6.6
		C159.8,233.1,156.9,234.8,156.1,237.7"/>
	<path class="st1" d="M191.8,255.5c-11.2,6.3-18.2,18-19,35.9c-0.2,3,2.1,5.5,5.1,5.7c3,0.1,5.5-2.1,5.7-5.1
		c0.8-16.2,7.1-24.9,17.2-28.7c5.4-2,11.3-2.4,16.5-1.9l1.3,0.2c6.9,1.3,9.1-9,2.2-10.6l-41.5-9.3c-19.4-5.3-22.4-12.5-18.8-24.5
		c1.6-5.2,4.7-7.9,9.6-9c3.2-0.7,6.7-0.6,10.1,0c1,0.2,1.7,0.3,2,0.4l63,14.7l1.2,0.4c1,0.4,2.1,1.2,3.2,2.3c4.2,4.5,6.6,13,5.4,27
		c-4.1,49-26.9,79.4-81.1,78.9c-3,0-5.4,2.4-5.4,5.3c0,3,2.4,5.4,5.3,5.4c60.8,0.5,87.4-34.8,91.9-88.8c1.4-16.8-1.7-28.3-8.2-35.2
		c-3.6-3.8-7.4-5.6-10.3-6l-62.3-14.5c-0.4-0.1-1.4-0.4-2.8-0.6c-4.7-0.8-9.6-0.9-14.4,0.1c-8.4,1.9-14.8,7.2-17.5,16.4
		c-5.2,17.3,0.3,30.9,26.5,38L191.8,255.5z"/>
</g>
</svg>
