<?xml version="1.0" encoding="UTF-8" standalone="no"?>
<svg
   xmlns:dc="http://purl.org/dc/elements/1.1/"
   xmlns:cc="http://creativecommons.org/ns#"
   xmlns:rdf="http://www.w3.org/1999/02/22-rdf-syntax-ns#"
   xmlns:svg="http://www.w3.org/2000/svg"
   xmlns="http://www.w3.org/2000/svg"
   xmlns:sodipodi="http://sodipodi.sourceforge.net/DTD/sodipodi-0.dtd"
   xmlns:inkscape="http://www.inkscape.org/namespaces/inkscape"
   width="600"
   height="600"
   viewBox="0 0 158.74999 158.75"
   version="1.1"
   id="svg2364"
   inkscape:version="1.0 (4035a4fb49, 2020-05-01)"
   sodipodi:docname="CU.svg">
  <defs
     id="defs2358" />
  <sodipodi:namedview
     showborder="false"
     inkscape:snap-smooth-nodes="true"
     inkscape:snap-bbox-midpoints="true"
     inkscape:snap-bbox-edge-midpoints="true"
     inkscape:bbox-nodes="true"
     inkscape:bbox-paths="true"
     inkscape:snap-bbox="true"
     inkscape:snap-intersection-paths="true"
     inkscape:object-paths="true"
     inkscape:snap-global="true"
     id="base"
     pagecolor="#cccccc"
     bordercolor="#666666"
     borderopacity="1.0"
     inkscape:pageopacity="0"
     inkscape:pageshadow="2"
     inkscape:zoom="0.11313709"
     inkscape:cx="643.27683"
     inkscape:cy="690.00251"
     inkscape:document-units="px"
     inkscape:current-layer="layer1"
     inkscape:document-rotation="0"
     showgrid="false"
     units="px"
     borderlayer="false"
     inkscape:showpageshadow="false"
     inkscape:window-width="1366"
     inkscape:window-height="703"
     inkscape:window-x="0"
     inkscape:window-y="0"
     inkscape:window-maximized="1" />
  <metadata
     id="metadata2361">
    <rdf:RDF>
      <cc:Work
         rdf:about="">
        <dc:format>image/svg+xml</dc:format>
        <dc:type
           rdf:resource="http://purl.org/dc/dcmitype/StillImage" />
        <dc:title></dc:title>
      </cc:Work>
    </rdf:RDF>
  </metadata>
  <g
     inkscape:label="Layer 1"
     inkscape:groupmode="layer"
     id="layer1">
    <path
       d="M 23.812498,-2e-7 H 134.93751 c 13.19212,0 23.8125,10.6203742 23.8125,23.8124952 V 134.9375 c 0,13.19212 -10.62038,23.8125 -23.8125,23.8125 H 23.812498 C 10.620375,158.75 10e-7,148.12962 10e-7,134.9375 V 23.812495 C 10e-7,10.620374 10.620375,-2e-7 23.812498,-2e-7 Z"
       style="fill:#d61a0c;fill-opacity:1;stroke:none;stroke-width:0.340479;font-variation-settings:normal;opacity:1;vector-effect:none;stroke-linecap:butt;stroke-linejoin:miter;stroke-miterlimit:4;stroke-dasharray:none;stroke-dashoffset:0;stroke-opacity:1;stop-color:#000000;stop-opacity:1"
       id="rect578" />
    <g
       transform="translate(-53.43629,25.305771)"
       id="g551" />
    <path
       transform="scale(0.26458332)"
       d="M 1.2402344 524.99609 C 8.3406775 567.66779 45.252381 600 90 600 L 510 600 C 554.74761 600 591.65932 567.66779 598.75977 524.99609 L 1.2402344 524.99609 z "
       style="opacity:1;fill:#e08600;fill-opacity:1;stroke-width:5.77618"
       id="fullLogo-4" />
    <path
       sodipodi:nodetypes="ccccccccccccsccc"
       style="opacity:1;fill:#ffffff;stroke-width:2.43493"
       d="M 92.189438,70.170319 109.66739,46.488416 H 91.713925 L 75.534787,69.162968 V 46.488416 H 59.833905 V 95.73734 h 15.70041 V 73.062788 l 27.927195,36.014602 c -7.243569,4.43752 -15.587016,6.75335 -24.081489,6.68415 -24.869507,0.49821 -45.160001,-19.792497 -44.66155,-44.662004 0.04935,-24.630188 20.02999,-44.570699 44.660225,-44.570699 24.630224,0 44.610804,19.940511 44.660214,44.570699 0.0842,9.981039 -3.14222,19.708519 -9.17464,27.660769 z"
       data-name="fullLogo"
       id="fullLogo-5" />
    <path
       transform="scale(0.26458332)"
       d="M 0 499.99414 L 0 510 C 0 515.11237 0.42901512 520.12089 1.2402344 524.99609 L 598.75977 524.99609 C 599.57099 520.12089 600 515.11237 600 510 L 600 499.99414 L 0 499.99414 z "
       style="opacity:1;fill:#ffffff;fill-opacity:1;stroke-width:1.29165"
       id="fullLogo-3-3" />
  </g>
</svg>
