<svg xmlns="http://www.w3.org/2000/svg" width="88.3" height="67.6"><path d="M8.2 0v21.9c0 7.2 5.7 13 12.7 13s12.7-5.8 12.7-13V0h8.2v21.9c0 11.8-9.4 21.4-20.9 21.4S0 33.7 0 21.9V0zm38.7 43.6L56 14c1.3-4.1 5.6-6.4 9.6-5.1 2.4.8 4.3 2.7 5 5.1l9.1 29.7h8.6l-9.9-32.2C76.9 6.3 73 2.3 68.1.8c-8.4-2.7-17.3 2.1-19.9 10.7l-9.9 32.2h8.6z" fill="#c4231e"/><path d="M32.7 50.9c3.1 0 5.1 2.4 5.1 6.3 0 3.8-2 6.3-5.1 6.3-1.7 0-3.1-.8-3.8-2h-.2v5.9h-2V51.1h1.9v2h.2c.8-1.4 2.2-2.2 3.9-2.2zm-.5 10.7c2.2 0 3.5-1.7 3.5-4.4 0-2.8-1.3-4.4-3.5-4.4s-3.5 1.7-3.5 4.4 1.3 4.4 3.5 4.4zm12.3.1c2 0 3.4-1.3 3.4-3v-1.1l-3.2.2c-1.8.1-2.6.8-2.6 1.9 0 1.3 1 2 2.4 2zm-.4 1.7c-2.3 0-4.1-1.4-4.1-3.6s1.6-3.4 4.4-3.6l3.4-.2v-1.1c0-1.5-.9-2.3-2.7-2.3-1.4 0-2.4.5-2.7 1.5h-2c.3-2 2.2-3.3 4.8-3.3 3 0 4.6 1.5 4.6 4.1v8.3H48v-1.8h-.2c-.8 1.3-2.1 2-3.7 2zm10.3 4.2c-.2 0-.6 0-.9-.1v-1.7c.2 0 .5.1.8.1 1.1 0 1.7-.5 2.2-1.9l.2-.7-4.5-12.1h2.2l3.3 9.9h.2l3.3-9.9h2.2L58.7 64c-1.1 2.7-2.1 3.6-4.3 3.6z" fill-rule="evenodd"/><path d="M21.084 10.22l-8 8 7.9 7.9 7.9-7.9z" fill="none" stroke="#c4231e" stroke-width="2.304"/><path d="M18.19 18.028l2.687-2.687 2.687 2.687-2.687 2.687z"/><path d="M63.19 26.5l-8 8 7.9 7.9 7.9-7.9z" fill="none" stroke="#c4231e" stroke-width="2.304"/><path d="M60.296 34.31l2.687-2.687 2.687 2.687-2.687 2.687z"/></svg>