<?xml version="1.0" encoding="UTF-8" standalone="no"?>
<svg
   xmlns:dc="http://purl.org/dc/elements/1.1/"
   xmlns:cc="http://creativecommons.org/ns#"
   xmlns:rdf="http://www.w3.org/1999/02/22-rdf-syntax-ns#"
   xmlns:svg="http://www.w3.org/2000/svg"
   xmlns="http://www.w3.org/2000/svg"
   xmlns:sodipodi="http://sodipodi.sourceforge.net/DTD/sodipodi-0.dtd"
   xmlns:inkscape="http://www.inkscape.org/namespaces/inkscape"
   sodipodi:docname="EN.svg"
   inkscape:version="1.0 (4035a4f, 2020-05-01)"
   id="svg2364"
   version="1.1"
   viewBox="0 0 158.74999 158.75"
   height="600"
   width="600">
  <defs
     id="defs2358" />
  <sodipodi:namedview
     inkscape:window-maximized="1"
     inkscape:window-y="23"
     inkscape:window-x="0"
     inkscape:window-height="1035"
     inkscape:window-width="1920"
     inkscape:showpageshadow="false"
     borderlayer="true"
     units="px"
     showgrid="false"
     inkscape:document-rotation="0"
     inkscape:current-layer="layer1"
     inkscape:document-units="px"
     inkscape:cy="314.15827"
     inkscape:cx="157.23752"
     inkscape:zoom="0.22627417"
     inkscape:pageshadow="2"
     inkscape:pageopacity="0"
     borderopacity="1.0"
     bordercolor="#666666"
     pagecolor="#cccccc"
     id="base"
     inkscape:snap-global="false"
     inkscape:object-paths="true"
     inkscape:snap-intersection-paths="true"
     inkscape:snap-bbox="true"
     inkscape:bbox-paths="true"
     inkscape:bbox-nodes="true"
     inkscape:snap-bbox-edge-midpoints="true"
     inkscape:snap-bbox-midpoints="true"
     inkscape:snap-smooth-nodes="true"
     showborder="false" />
  <metadata
     id="metadata2361">
    <rdf:RDF>
      <cc:Work
         rdf:about="">
        <dc:format>image/svg+xml</dc:format>
        <dc:type
           rdf:resource="http://purl.org/dc/dcmitype/StillImage" />
        <dc:title></dc:title>
      </cc:Work>
    </rdf:RDF>
  </metadata>
  <g
     id="layer1"
     inkscape:groupmode="layer"
     inkscape:label="Layer 1">
    <path
       id="rect578"
       style="fill:#ffffff;fill-opacity:1;stroke:none;stroke-width:0.379078"
       d="M 23.812498,-2e-7 H 134.93751 c 13.19212,0 23.8125,10.6203742 23.8125,23.8124952 V 134.9375 c 0,13.19212 -10.62038,23.8125 -23.8125,23.8125 H 23.812498 C 10.620375,158.75 10e-7,148.12962 10e-7,134.9375 V 23.812495 C 10e-7,10.620374 10.620375,-2e-7 23.812498,-2e-7 Z" />
    <g
       style="stroke-width:0.389351"
       transform="matrix(2.5683776,0,0,2.5683776,-487.71715,-418.27428)"
       id="g6172">
      <path
         class="fil2"
         d="m 200.9,166.64685 h 35.32935 c -3.47847,1.30392 -14.06793,8.47367 -16.71266,13.29415 h -18.58571 l -0.031,-13.29415 z"
         id="path16"
         style="fill:#f5821f;fill-rule:nonzero;stroke-width:0.10274"
         inkscape:connector-curvature="0" />
      <path
         id="path32"
         style="fill:#008061;fill-rule:nonzero;stroke-width:0.10274"
         d="m 237.08338,196.6557 c 0.16478,-1.08986 1.70838,-0.79753 1.70838,-0.17503 v 7.1729 h 3.03585 v -8.43556 c 0,-1.7886 -2.52134,-2.50798 -4.72361,-0.93338 l -0.0206,2.37108 z m 2.7e-4,6.99689 h -3.02585 v -9.95149 h 3.02585 z m -12.95676,-9.95149 -1.22438,6.72642 -1.19403,-6.72642 h -2.74746 l 1.56398,9.95255 h 4.0444 l 1.89357,-9.95255 z m -14.56165,0 v 7.81384 h 2.44902 v 2.13871 h -5.59815 v -9.95255 z m 17.56665,9.95255 v -9.95255 h 5.59836 v 2.2168 h -2.44929 v 1.86454 h 2.44929 v 1.86586 h -2.44929 v 1.86664 h 2.44929 v 2.13871 z m -14.33524,0 v -9.95255 h 5.5878 v 2.2168 h -2.43873 v 1.86454 h 2.43873 v 1.86586 h -2.43873 v 1.86664 h 2.43873 v 2.13871 z m -13.02864,0 v -9.95255 h 5.59844 v 2.2168 h -2.44926 v 1.86454 h 2.44926 v 1.86586 h -2.44926 v 1.86664 h 2.44926 v 2.13871 z" />
      <path
         id="path34"
         style="fill:#ed1b2d;fill-rule:nonzero;stroke-width:0.10274"
         d="m 230.47676,192.30151 c 0.30865,-3.80879 5.52619,-10.02865 10.57909,-11.66187 v -14.69372 c -13.90314,6.22005 -22.93881,15.62714 -24.89401,26.31849 l 14.3149,0.0371 z m -1.42017,12.43772 c -0.50428,4.81426 -0.52488,10.67699 -0.52488,16.83519 h -15.3131 c 0,-6.1582 0.2573,-12.02093 0.76146,-16.83519 h 15.07651 z" />
    </g>
  </g>
</svg>
