<svg xmlns="http://www.w3.org/2000/svg" width="33.332" height="32.651" fill="#f58220" xmlns:v="https://vecta.io/nano"><path d="M16.687 32.644c2.184.004 4.379-.589 6.223-1.77 1.116-.647 2.112-1.514 2.928-2.513.542-.582.933-1.27 1.351-1.942.693-1.345 1.207-2.798 1.347-4.313a12.48 12.48 0 0 0-.449-5.05c-.358-1.237-.926-2.409-1.642-3.479-.985-1.454-2.257-2.739-3.778-3.623l-.983-.64c-.509-.352-1.333-.794-1.937-.323-.614.605-.586 1.557-.639 2.369l-.019 17.245c-.036.483.114 1.068-.381 1.35-.512.311-1.087.513-1.685.607-.491.141-.954-.072-1.433-.162-.409-.142-.854-.319-1.153-.604-.433-.382-.173-1.055-.244-1.59l-.011-17.64c-.086-.631-.155-1.403-.745-1.78-.273-.139-.577-.12-.856-.002-.669.196-1.237.761-1.804 1.097a11.11 11.11 0 0 0-2.662 2.157c-.677.684-1.214 1.487-1.71 2.312-.707 1.288-1.247 2.673-1.491 4.125a12.14 12.14 0 0 0-.062 4.072c.318 2.057 1.208 4.018 2.5 5.644 1.279 1.629 3.037 2.824 4.931 3.633 1.404.519 2.896.839 4.4.82zm.045-26.93c.161-.006.328.018.483-.023.098-.006.187-.08.291-.061.067-.054.142-.109.227-.112.078-.048.201-.031.24-.136.086-.03.156-.08.234-.123.075-.036.13-.115.201-.163.11-.047.145-.172.25-.225.054-.067.101-.138.169-.195.067-.099.136-.195.176-.31.069-.053.081-.147.127-.219.036-.08.084-.151.102-.236.036-.074.069-.15.058-.235.039-.103.011-.222.084-.315l-.007-.714c-.077-.098-.039-.227-.076-.338a.5.5 0 0 0-.077-.235c-.059-.23-.211-.42-.317-.627-.052-.07-.08-.142-.156-.189-.073-.102-.182-.17-.24-.284-.105-.006-.158-.114-.238-.166-.056-.059-.145-.085-.207-.133-.075-.031-.112-.11-.206-.106-.133-.056-.261-.139-.408-.166-.08-.038-.147-.092-.243-.069-.105-.002-.207-.025-.313-.025-.181-.022-.365.003-.544.01-.11.041-.242-.024-.337.065-.115.056-.245.062-.356.128-.072.055-.172.051-.227.125-.097.018-.164.099-.256.131l-.229.2c-.099-.013-.115.114-.185.165s-.091.14-.16.192c-.131.147-.244.316-.32.499-.012.087-.091.137-.094.228-.04.085-.077.157-.096.247s.005.197-.062.279c.01.216-.043.433 0 .648-.004.115-.009.23.05.333-.013.142.048.27.108.394-.009.1.078.135.092.223.032.075.052.154.104.22.045.15.174.242.266.359.06.054.077.148.159.186.058.063.101.138.189.169.05.081.157.1.215.178.092.084.235.07.308.179.065.045.165.036.224.077.065.035.151.057.22.09.1.007.18.078.282.061.156.048.332.01.495.023z"/><path d="M22.567.894c.299-.658 1.091-1.161 1.764-.659 1.332.849 2.342 2.137 3.495 3.214C29.33 4.91 30.7 6.544 31.639 8.431c.978 1.933 1.554 4.06 1.625 6.228.228 2.19-.14 4.435-.793 6.528-1.342 3.936-4.114 7.424-7.79 9.415-5.085 2.872-11.671 2.681-16.632-.363C3.327 27.42.264 22.106.023 16.629c-.127-2.516.271-5.062 1.283-7.38.976-2.318 2.604-4.304 4.42-6.027C6.754 2.188 7.706 1.046 8.927.246c.518-.398 1.352-.324 1.629.305.613.971 1.036 2.176 1.001 3.356-.152 1.945-1.855 3.137-3.214 4.293-1.611 1.327-2.735 3.134-3.666 4.985-.842 1.805-1.284 3.783-1.22 5.807.011 4.336 2.15 8.635 5.659 11.203 2.301 1.611 5.088 2.542 7.914 2.45 3.863-.049 7.563-2.053 9.89-5.1a14.22 14.22 0 0 0 2.92-9.537c-.092-2.07-.738-4.079-1.7-5.876-.895-1.616-2.11-3.072-3.541-4.233-1.068-.994-2.374-1.93-2.718-3.421-.258-1.227.162-2.481.686-3.584z"/></svg>