<svg xmlns="http://www.w3.org/2000/svg" width="221.741" height="46.085" xmlns:v="https://vecta.io/nano"><path d="M0 46.085h221.741V0H0v46.085z" fill="#00836c"/><path d="M55.805 23.04a23.22 23.22 0 0 1-23.219 23.22c-12.82 0-23.215-10.395-23.215-23.22 0-12.815 10.395-23.215 23.215-23.215 12.827 0 23.219 10.4 23.219 23.215m8.036 8.018l.067-3.035-.011-11.515c-.117-.997-.01-2.019-.1-3.014l-.061-2.214c-.078-.259-.044-.545-.099-.822-.13-.39.118-.427.447-.337l3.319.039c.729-.065 1.486-.009 2.216-.067.023.523-.075 1.01-.079 1.525l-.099 2.43-.045 1.989-.051 5.754.017 5.808.055 3.522.099 2.859.102 1.665-1.286-.072c-1.01-.013-2.028-.053-3.039 0-.475-.022-.909.066-1.386.046-.388.17-.271-.179-.271-.442.061-.29.052-.606.099-.9l.092-2.51.013-.706zm15.828 2.056a27.96 27.96 0 0 0 3.622.166c1.461.014 2.921-.295 4.189-1.011.957-.539 1.798-1.343 2.386-2.285.371-.507.632-1.072.875-1.653.443-1.182.742-2.463.839-3.744.137-1.25.139-2.539.065-3.801-.073-1.181-.315-2.35-.743-3.451-.353-.813-.787-1.593-1.411-2.239-.527-.609-1.192-1.103-1.914-1.48-.475-.202-.971-.458-1.496-.564-1.687-.48-3.47-.411-5.206-.32l-1.206.071-.055 15.632.055 4.678zm-5.565-1.8l.058-7.334c.08-1.477-.041-2.958 0-4.441l-.092-6.807c-.092-.622-.021-1.279-.097-1.9.014-.2-.292-.883.132-.705.748.116 1.531.217 2.315.222a27.99 27.99 0 0 0 2.647.083c.733-.101 1.527-.077 2.275-.149l3.364-.164a15.89 15.89 0 0 1 3.739.205c.885.129 1.762.402 2.602.692a10.32 10.32 0 0 1 2.461 1.374c.985.755 1.853 1.687 2.482 2.74a11.03 11.03 0 0 1 1.326 3.449c.217.793.298 1.609.357 2.429.086.944.073 1.91.01 2.853-.085.735-.112 1.492-.289 2.217a12.16 12.16 0 0 1-.512 1.898c-.396 1.265-1.056 2.434-1.879 3.472-.523.581-1.044 1.176-1.689 1.633-1.034.872-2.268 1.462-3.535 1.919-.806.232-1.609.487-2.447.59-1.851.343-3.754.302-5.614.191l-2.509-.116c-1.155-.113-2.367-.202-3.511-.049l-1.822.249c.032-.492.14-.968.136-1.471l.092-3.08zm32.385 1.759c.805.054 1.599.189 2.434.09.55-.112 1.12-.224 1.61-.504a3.42 3.42 0 0 0 .641-.446c.238-.166.478-.446.668-.715.207-.224.321-.564.494-.835a7.25 7.25 0 0 0 .39-1.411l.076-1.45c-.123-.323.001-.764-.159-1.089-.113-.487-.268-.974-.581-1.38-.144-.239-.296-.459-.52-.62-.169-.251-.498-.395-.726-.594-.282-.08-.503-.296-.806-.324-.38-.124-.778-.271-1.194-.24-.56-.173-1.21-.062-1.807-.095-.526-.147-.591.169-.519.62v8.993zm0-11.971c.857.002 1.739.042 2.541-.202.405-.132.867-.266 1.239-.544.404-.234.712-.544 1.008-.894a4.2 4.2 0 0 0 .666-1.336c.113-.291.16-.618.192-.934.058-.53.121-1.071 0-1.583-.025-.375-.106-.726-.293-1.042-.194-.475-.52-.82-.905-1.148-.326-.289-.72-.42-1.121-.615-.995-.282-2.093-.371-3.122-.202-.4-.016-.123.574-.205.842v7.658zm-5.429 9.956l.047-4.835.017-6.648-.048-3.174-.084-3.883-.112-1.662c.039-.24-.134-.643.031-.764l3.311.067 3.84-.05c1.276.002 2.578-.093 3.835.113.492.087 1.001.135 1.462.323.579.123 1.097.382 1.628.635.292.214.667.374.951.635a4.88 4.88 0 0 1 1.198 1.289c.297.455.515.96.622 1.499.109.613.167 1.262.041 1.883-.055.592-.213 1.187-.504 1.701-.248.622-.691 1.155-1.161 1.651-.428.419-.935.751-1.413 1.061-.468.273-1.002.482-1.529.669l-.836.222c.319.043.624.155.938.238.406.092.758.318 1.161.436.586.323 1.161.622 1.652 1.054.593.462 1.079 1.054 1.474 1.7.373.729.669 1.539.737 2.379a7.28 7.28 0 0 1-.384 3.387c-.218.635-.55 1.216-.969 1.742-.317.381-.651.771-1.058 1.048-.488.444-1.075.755-1.66 1.057a10.77 10.77 0 0 1-2.207.656c-.944.116-1.881.192-2.84.156l-3.883-.072c-.871-.001-1.716-.03-2.578 0-.565.076-1.178.033-1.755.072-.302.004-.055-.511-.105-.741l.097-1.622c.067-.739.047-1.483.082-2.223zm22.845 0c.083-3.345.052-6.695.059-10.044l-.082-7.519c-.062-.466-.01-.985-.064-1.457.015-.437-.07-.832-.07-1.255a2.86 2.86 0 0 1-.044-.69 32.45 32.45 0 0 0 2.026.036c.589.073 1.246.01 1.861.031.622-.075 1.274.002 1.897-.062.377-.087.093.379.176.599-.085.525-.071 1.063-.094 1.62-.071.605-.004 1.243-.06 1.855-.086.567.004 1.185-.048 1.77l-.06 4.066.06 9.358c.022.724-.007 1.459.034 2.177.084.703-.001 1.451.088 2.155-.03.621.091 1.183.089 1.79.078.319-.455.056-.656.122-.445-.027-.887-.054-1.346-.039-.627-.059-1.278-.007-1.914-.025-.363.067-.812-.017-1.164.061-.307-.021-.657.061-.909.01.03-.444.052-.873.106-1.291.027-.688.074-1.36.06-2.056.058-.38.05-.811.052-1.211zm21.978 2.786c.591.01 1.178-.05 1.751-.122.262-.121.596-.071.86-.227.262-.079.49-.224.714-.393.367-.204.603-.561.812-.89.106-.228.197-.45.266-.684.21-.634.163-1.341.165-2.018-.032-.271-.069-.555-.161-.795-.035-.294-.214-.525-.309-.797-.198-.259-.372-.582-.666-.759-.166-.19-.479-.316-.71-.456-.403-.177-.812-.27-1.239-.361-.344-.088-.732-.072-1.102-.12-.251-.014-.641-.129-.513.266l.05 6.072c.019.326-.002.686.048.966.009.106-.027.249.035.318zm4.406-12.945c.029-.465-.025-.952-.179-1.358-.091-.276-.247-.54-.424-.764a2.63 2.63 0 0 0-.555-.464c-.224-.119-.403-.245-.656-.3-.269-.1-.57-.151-.86-.215-.538-.106-1.105-.1-1.665-.092-.091.321-.058.702-.067 1.064-.083.249-.053.565-.082.851l-.05 4.937c.531.014 1.052-.035 1.571-.066.325-.089.685-.065.992-.198.304-.074.53-.23.766-.451a3.26 3.26 0 0 0 .409-.474c.302-.396.413-.871.585-1.324.057-.384.215-.756.215-1.147zm-1.618 4.341l2.203.182c.361.025.669.158 1.018.222l.678.249c.271.102.517.259.785.389.183.199.431.341.603.536.197.203.338.433.495.673l.245.585a7.03 7.03 0 0 1 .221.926c.098.675.083 1.39.02 2.075-.088.399-.153.81-.315 1.182-.135.282-.218.609-.453.822-.225.443-.632.759-.985 1.094-.354.246-.729.467-1.11.64-.267.085-.501.259-.785.279-.238.128-.521.14-.779.227-.403.041-.8.182-1.218.175l-4.714.03c-1.086-.006-2.195.011-3.266-.009l.085-1.085c.077-.514.016-1.073.097-1.582l.024-5.191-.075-2.014-.062-3.618-.05-2.51-.019-3.544 2.93.074 2.16.055c1.235.033 2.489-.047 3.704.161.355.094.752.111 1.087.271.45.107.895.309 1.285.545.216.07.41.264.608.383.3.21.489.501.759.747.083.231.264.414.337.654.126.205.178.447.244.66.101.424.121.906.107 1.369-.064.252-.035.51-.142.744-.047.276-.186.547-.328.803-.131.308-.342.545-.552.797-.109.17-.302.282-.431.438-.244.129-.474.357-.73.458-.2.134-.438.278-.692.333-.199.131-.433.196-.672.256-.317.087-.647.214-.988.241-.432.115-.884.15-1.331.189v.048.042h0zm18 2.728c-.096-.354-.186-.742-.394-1.062-.03-.245-.186-.416-.224-.656l-.235-.648-.386-1.16c-.144-.33-.234-.678-.424-.974-.021-.257-.24-.408-.235-.679-.17-.317-.289-.664-.413-.989-.122-.126-.138-.6-.266-.236-.068.202-.178.339-.27.528l-.528 1.265c-.133.194-.134.461-.265.638-.046.272-.195.479-.244.761-.163.287-.266.627-.379.916l-.401 1.143c-.11.199-.162.441-.236.659-.01.148-.28.532.091.444l1.564.05h3.244zm7.555 7.463c-.852-.019-1.678.047-2.525.037l-2.376.058-.254-.861-.199-.676c-.24-.546-.419-1.143-.574-1.721-.106-.422-.272-.821-.38-1.243l-.261-.774c-.071-.151-.129-.375-.249-.437h-6.623a5.63 5.63 0 0 0-.312.92l-.728 2.02-.672 1.926a10.1 10.1 0 0 1-.292.847l-1.801-.058c-.156-.113-.681.063-.673-.096.043-.157.147-.362.219-.541l.643-1.562.668-1.693c.279-.527.432-1.102.684-1.645l.778-1.848c.131-.485.376-.948.54-1.415.199-.377.268-.798.498-1.159l.658-1.715.688-1.629.507-1.381.971-2.445c.13-.439.351-.856.464-1.316.209-.419.375-.865.561-1.292.099-.128.32.059.499.034.503.046 1.039.002 1.534-.066.589.283.597 1.552.987 2.181l.993 2.506c.231.545.387 1.12.686 1.627l.946 2.494c.095.306.325.549.371.872l.501 1.342c.196.509.361 1.019.608 1.454l.659 1.72c.14.363.266.762.459 1.109.33.523.408 1.142.696 1.692a10.12 10.12 0 0 0 .421 1.123c.087.208.145.399.276.54l.341.91c-.003.054.098.09.063.161zm19.041-19.458l-.127 1.454-.116 1.91-.084 3.644c-.092.992-.022 2.02-.044 3.027.102 1.181.001 2.384.086 3.565l.129 3.202.081 2.048c-.025.219.045.563 0 .701-.483-.024-.881-.124-1.388-.095-.411-.04-.722.068-1.09.095-.196-.125-.287-.385-.491-.525-.182-.193-.311-.41-.506-.569-.111-.223-.341-.331-.454-.544l-1.408-1.593-.764-.853c-.281-.237-.439-.574-.728-.815l-1.253-1.393c-.216-.153-.333-.407-.539-.56-.193-.246-.448-.452-.616-.732-.506-.423-.888-.938-1.346-1.433-.377-.324-.69-.712-.994-1.084-.213-.261-.517-.439-.694-.728-.302-.241-.498-.592-.786-.856-.479-.396-.861-.906-1.269-1.369-.246-.142-.395-.39-.595-.58l.028 9.184.076 3.926c.043.198.151.67-.178.516-.419-.085-.84-.097-1.319-.081l-.959.09V15.973c.517-.032.907.065 1.371.085.319.083.746.082 1.085.025l.745-.11c.335.451.739.841 1.123 1.245l2.133 2.42c.588.546 1.031 1.223 1.617 1.775l1.55 1.709 1.65 1.848c.617.582 1.106 1.282 1.718 1.873l1.858 2.085c.286.498.151-.226.175-.455l-.062-4.79-.07-5.906c-.036-.577-.005-1.16-.015-1.739a5.4 5.4 0 0 0 1.355.116c.414-.02.751-.047 1.117-.18zm20.174 19.552h-5.446l-1.014-1.558-1.043-1.59-.697-1.041c-.191-.382-.502-.702-.675-1.086-.283-.36-.521-.752-.793-1.136l-.506-.742c-.205-.269-.368-.583-.604-.849-.133-.245-.349-.467-.493-.707l.015 6.621c.121.364-.025.814.09 1.186l.101.902-1.331-.058c-.435-.074-.908-.018-1.363-.037-.383.002-.767-.006-1.149.005-.262.07-.588.072-.9.09l.025-4.901.048-4.235c.091-.875.014-1.768.074-2.646l-.035-6.362c-.107-.323-.03-.715-.086-1.058-.084-.3.016-.411.301-.307.579.091 1.188.136 1.787.171.557.074 1.136-.034 1.707-.035l.97-.116-.106 1.479c-.079.246-.026.535-.08.793l-.036 1.983-.032 4.648c.186-.273.417-.465.639-.719l.905-1.068 1.143-1.399c.322-.28.523-.637.817-.94l.755-.92.8-1.031c.243-.263.436-.546.654-.827.175-.247.403-.469.557-.741.168-.157.313-.384.442-.576.224-.194.331-.546.58-.682.439.095.986.076 1.455.116.581-.013 1.256.048 1.748-.095.438-.122.067.197-.099.354l-1.184 1.327c-.346.329-.64.704-.978 1.044l-1.284 1.422-1.342 1.449-1.661 1.792c-.208.257-.472.461-.664.732.372.615.838 1.172 1.23 1.78l2.241 3.183.662.924.747 1.013 1.214 1.799c.363.425.639.916.979 1.367l.914 1.282z" fill="#fff"/><g fill="#f58220"><path d="M32.418 40.418c2.184.004 4.379-.589 6.223-1.77 1.116-.647 2.112-1.514 2.928-2.513.542-.582.933-1.27 1.351-1.942.693-1.345 1.207-2.798 1.347-4.313a12.48 12.48 0 0 0-.449-5.05c-.358-1.237-.926-2.409-1.642-3.479-.985-1.454-2.257-2.739-3.778-3.623l-.983-.64c-.509-.352-1.333-.794-1.937-.323-.614.605-.586 1.557-.639 2.369l-.019 17.245c-.036.483.114 1.068-.381 1.35-.512.311-1.087.513-1.685.607-.491.141-.954-.072-1.433-.162-.409-.142-.854-.319-1.153-.604-.433-.382-.173-1.055-.244-1.59l-.011-17.64c-.086-.631-.155-1.403-.745-1.78-.273-.139-.577-.12-.856-.002-.669.196-1.237.761-1.804 1.097a11.11 11.11 0 0 0-2.662 2.157c-.677.684-1.214 1.487-1.71 2.312-.707 1.288-1.247 2.673-1.491 4.125a12.14 12.14 0 0 0-.062 4.072c.318 2.057 1.208 4.018 2.5 5.644 1.279 1.629 3.037 2.824 4.931 3.633 1.404.519 2.896.839 4.4.82zm.045-26.931c.161-.006.328.018.483-.023.098-.006.187-.08.291-.061.067-.054.142-.109.227-.112.078-.048.201-.031.24-.136.086-.03.156-.08.234-.123.075-.036.13-.115.201-.163.11-.047.145-.172.25-.225.054-.067.101-.138.169-.195.067-.099.136-.195.176-.31.069-.053.081-.147.127-.219.036-.08.084-.151.102-.236.036-.074.069-.15.058-.235.039-.103.011-.222.084-.315l-.007-.714c-.077-.098-.039-.227-.076-.338a.5.5 0 0 0-.077-.235c-.059-.23-.211-.42-.317-.627-.052-.07-.08-.142-.156-.189-.073-.102-.182-.17-.24-.284-.105-.006-.158-.114-.238-.166-.056-.059-.145-.085-.207-.133-.075-.031-.112-.11-.206-.106-.133-.056-.261-.139-.408-.166-.08-.038-.147-.092-.243-.069-.105-.002-.207-.025-.313-.025-.181-.022-.365.003-.544.01-.11.041-.242-.024-.337.065-.115.056-.245.062-.356.128-.072.055-.172.051-.227.125-.097.018-.164.099-.256.131l-.229.2c-.099-.013-.115.114-.185.165s-.091.14-.16.192c-.131.147-.244.316-.32.499-.012.087-.091.137-.094.228-.04.085-.077.157-.096.247s.005.197-.062.279c.01.216-.043.433 0 .648-.004.115-.009.23.05.333-.013.142.048.27.108.394-.009.1.078.135.092.223.032.075.052.154.104.22.045.15.174.242.266.359.06.054.077.148.159.186.058.063.101.138.189.169.05.081.157.1.215.178.092.084.235.07.308.179.065.045.165.036.224.077.065.035.151.057.22.09.1.007.18.078.282.061.156.048.332.01.495.023z"/><path d="M38.298 8.668c.299-.658 1.091-1.161 1.764-.659 1.332.849 2.342 2.137 3.495 3.214 1.504 1.461 2.874 3.094 3.814 4.982.978 1.933 1.554 4.06 1.625 6.228.228 2.19-.14 4.435-.793 6.528-1.342 3.936-4.114 7.424-7.79 9.415-5.085 2.872-11.671 2.681-16.632-.363-4.722-2.818-7.786-8.133-8.027-13.609-.127-2.516.271-5.062 1.283-7.38.976-2.318 2.604-4.304 4.42-6.027 1.029-1.035 1.98-2.177 3.201-2.977.518-.398 1.352-.324 1.629.305.613.971 1.036 2.176 1.001 3.356-.152 1.945-1.855 3.137-3.214 4.293-1.611 1.327-2.735 3.134-3.666 4.985-.842 1.805-1.284 3.783-1.22 5.807.011 4.336 2.15 8.635 5.659 11.203 2.301 1.611 5.088 2.542 7.914 2.45 3.863-.049 7.563-2.053 9.89-5.1a14.22 14.22 0 0 0 2.92-9.537c-.092-2.07-.738-4.079-1.7-5.876-.895-1.616-2.11-3.072-3.541-4.233-1.068-.994-2.374-1.93-2.718-3.421-.258-1.227.162-2.481.686-3.584z"/></g></svg>