<?xml version="1.0" encoding="UTF-8"?>
<svg width="707.03" height="707" version="1.1" viewBox="0 0 197.25547 197.333" xmlns="http://www.w3.org/2000/svg" xmlns:cc="http://creativecommons.org/ns#" xmlns:dc="http://purl.org/dc/elements/1.1/" xmlns:rdf="http://www.w3.org/1999/02/22-rdf-syntax-ns#">
<metadata>
<rdf:RDF>
<cc:Work rdf:about="">
<dc:format>image/svg+xml</dc:format>
<dc:type rdf:resource="http://purl.org/dc/dcmitype/StillImage"/>
<dc:title/>
</cc:Work>
</rdf:RDF>
</metadata>
<path d="m98.63 0c-54.499 0-98.672 44.166-98.672 98.665 0 54.496 44.173 98.668 98.672 98.668 54.492 0 98.668-44.172 98.668-98.668 0-54.499-44.176-98.665-98.668-98.665zm-77.456 98.665c0-38.824 28.563-70.938 65.817-76.549v36.239l-16.136 0.055c-12.131 0-19.489 8.907-19.489 21.027v37.98c0 12.127 9.94 21.48 22.063 21.48l13.499 4e-3 0.062 36.378c-37.253-5.62-65.816-37.798-65.816-76.614zm53.634 18.99s-1.078-0.111-1.616-1.047c-0.526-0.918-0.383-1.406-0.383-1.406v-32.949s-0.053-1.166 0.586-1.874c0.6-0.673 1.713-0.701 1.713-0.701h46.579s0.743-0.104 1.602 0.367c0.736 0.394 1.151 1.947 1.151 1.947v33.813s-0.415 0.938-0.81 1.267c-0.377 0.321-1.141 0.572-1.141 0.572l-12.326 0.024zm35.154 57.687-0.07-36.695h14.535c12.131 0 21.037-9.103 21.037-21.229v-37.98c0-12.12-9.664-20.971-21.787-20.971l-13.785 0.014-7e-3 -36.455c37.446 5.453 66.194 37.687 66.194 76.64 0 38.938-28.689 71.22-66.117 76.676z" fill="#b30738"/>
</svg>
