<?xml version="1.0" encoding="UTF-8" standalone="no"?>
<svg
   width="54.920898"
   height="53"
   viewBox="0 0 54.920898 53"
   fill="none"
   version="1.1"
   id="svg105"
   sodipodi:docname="Logo-footer.svg"
   inkscape:version="1.1.2 (0a00cf5339, 2022-02-04)"
   xmlns:inkscape="http://www.inkscape.org/namespaces/inkscape"
   xmlns:sodipodi="http://sodipodi.sourceforge.net/DTD/sodipodi-0.dtd"
   xmlns="http://www.w3.org/2000/svg"
   xmlns:svg="http://www.w3.org/2000/svg">
  <sodipodi:namedview
     id="namedview107"
     pagecolor="#ffffff"
     bordercolor="#666666"
     borderopacity="1.0"
     inkscape:pageshadow="2"
     inkscape:pageopacity="0.0"
     inkscape:pagecheckerboard="0"
     showgrid="false"
     inkscape:zoom="7.4578755"
     inkscape:cx="136.5"
     inkscape:cy="26.549116"
     inkscape:window-width="2560"
     inkscape:window-height="1323"
     inkscape:window-x="1920"
     inkscape:window-y="272"
     inkscape:window-maximized="1"
     inkscape:current-layer="g93" />
  <g
     clip-path="url(#clip0_89_646)"
     id="g93">
    <path
       d="m 40.0556,43.9804 c 2.5364,-3.4627 4.0276,-7.6899 4.0276,-12.2575 0,-11.7499 -9.8658,-21.2707 -22.0416,-21.2707 -4.7399,0 -9.1202,1.4455 -12.71504,3.8996 V 0 H 8.26143 C 3.70133,0 0,3.57188 0,7.97248 V 31.7293 C 0,43.4793 9.86579,53 22.0416,53 c 0.2063,0 0.4127,-0.0128 0.6191,-0.0128 h 23.9987 c 4.5668,0 8.2615,-3.5719 8.2615,-7.9725 V 43.9868 H 40.0556 Z M 9.34653,31.7293 c 0,-6.7583 5.69847,-12.251 12.70167,-12.251 7.0033,0 12.6951,5.4927 12.6951,12.251 0,6.7583 -5.6985,12.2575 -12.6951,12.2575 -6.9966,0 -12.70167,-5.4992 -12.70167,-12.2575 z"
       fill="url(#paint0_linear_89_646)"
       id="path75"
       style="fill:url(#paint0_linear_89_646)" />
    <path
       d="M 71.5901,43.4665 V 9.18673 c 0,-3.94449 3.3152,-7.14376 7.4027,-7.14376 V 21.926 c 1.5377,-3.5398 6.3375,-6.0002 11.2504,-6.0002 10.2988,0 16.9288,6.9703 16.9288,17.4803 0,10.5101 -6.63,17.5382 -16.9288,17.5382 -4.9129,0 -9.7659,-2.4541 -11.2504,-5.9424 v 5.5955 c -4.0875,0 -7.4027,-3.1993 -7.4027,-7.1438 z m 17.7611,-20.397 c -6.038,0 -10.3584,4.285 -10.3584,10.3944 -0.06,6.1673 4.2006,10.3431 10.3584,10.3431 6.1578,0 10.4183,-4.1115 10.4183,-10.4009 0,-6.2893 -4.2006,-10.343 -10.4183,-10.343 z"
       fill="#002880"
       id="path77" />
    <path
       d="m 116.818,2.16492 c 2.543,0 4.261,1.59963 4.261,4.11151 0,2.51188 -1.718,4.16937 -4.261,4.16937 -2.543,0 -4.32,-1.65749 -4.32,-4.16937 0,-2.51188 1.658,-4.11151 4.32,-4.11151 z"
       fill="#002880"
       id="path79" />
    <path
       d="m 113.09,50.6102 v -27.136 c 0,-3.9445 3.316,-7.1438 7.403,-7.1438 v 27.136 c 0,3.9445 -3.315,7.1438 -7.403,7.1438 z"
       fill="#002880"
       id="path81" />
    <path
       d="m 138.307,9.07751 v 7.25299 h 7.696 v 6.739 h -7.696 v 15.3668 c 0,2.8074 2.357,5.0816 5.266,5.0816 h 2.43 v 7.0859 h -3.076 c -8.467,0 -12.016,-3.3727 -12.016,-11.7692 V 23.0695 h -5.272 v -6.739 h 5.272 l 0.486,-1.9723 c 0.759,-3.0964 3.622,-5.28069 6.917,-5.28069 z"
       fill="#002880"
       id="path83" />
    <path
       d="M 151.162,50.6102 V 9.19307 c 0,-3.94448 3.315,-7.14375 7.403,-7.14375 V 43.4664 c 0,3.9445 -3.315,7.1438 -7.403,7.1438 z"
       fill="#2f71ff"
       id="path85" />
    <path
       d="m 192.423,45.0082 c -1.538,3.482 -6.331,5.9425 -11.311,5.9425 -10.238,0 -16.929,-6.9703 -16.929,-17.5382 0,-10.5679 6.631,-17.4804 16.929,-17.4804 4.913,0 9.766,2.4541 11.311,6.0003 v -5.602 c 4.087,0 7.402,3.1993 7.402,7.1438 v 19.9987 c 0,3.9444 -3.315,7.1437 -7.402,7.1437 v -5.5955 z m -10.359,-1.2013 c 6.158,0 10.419,-4.1693 10.359,-10.343 0,-6.1095 -4.381,-10.3944 -10.419,-10.3944 -6.038,0 -10.418,4.1115 -10.418,10.343 0,6.2315 4.261,10.4008 10.478,10.4008 z"
       fill="#2f71ff"
       id="path87" />
    <path
       d="M 206.928,50.6102 V 9.19307 c 0,-3.94448 3.316,-7.14375 7.403,-7.14375 V 21.9323 c 1.538,-3.5397 6.331,-6.0002 11.251,-6.0002 10.298,0 16.929,6.9703 16.929,17.4804 0,10.51 -6.631,17.5381 -16.929,17.5381 -4.913,0 -9.766,-2.454 -11.251,-5.9424 0,3.0901 -2.596,5.5955 -5.798,5.5955 h -1.598 z M 224.69,23.0759 c -6.038,0 -10.359,4.2849 -10.359,10.3944 -0.06,6.1673 4.201,10.343 10.359,10.343 6.157,0 10.418,-4.1115 10.418,-10.4008 0,-6.2894 -4.201,-10.3431 -10.418,-10.3431 z"
       fill="#2f71ff"
       id="path89" />
    <path
       d="m 245.473,45.2974 16.989,-21.9967 h -16.576 c 0,-3.8481 3.235,-6.9703 7.223,-6.9703 h 19.538 v 5.602 L 256.011,43.6399 H 273 c 0,3.8481 -3.235,6.9703 -7.223,6.9703 h -20.304 z"
       fill="#2f71ff"
       id="path91" />
  </g>
  <defs
     id="defs103">
    <linearGradient
       id="paint0_linear_89_646"
       x1="7.9418898"
       y1="-0.66169697"
       x2="34.561001"
       y2="59.1749"
       gradientUnits="userSpaceOnUse">
      <stop
         stop-color="#42DFFF"
         id="stop95" />
      <stop
         offset="1"
         stop-color="#2F71FF"
         id="stop97" />
    </linearGradient>
    <clipPath
       id="clip0_89_646">
      <rect
         width="273"
         height="53"
         fill="#ffffff"
         id="rect100"
         x="0"
         y="0" />
    </clipPath>
  </defs>
</svg>
