<svg width="273" height="53" viewBox="0 0 273 53" fill="none" xmlns="http://www.w3.org/2000/svg">
<g clip-path="url(#clip0_89_646)">
<path d="M40.0556 43.9804C42.592 40.5177 44.0832 36.2905 44.0832 31.7229C44.0832 19.973 34.2174 10.4522 22.0416 10.4522C17.3017 10.4522 12.9214 11.8977 9.32656 14.3518V0H8.26143C3.70133 0 0 3.57188 0 7.97248V31.7293C0 43.4793 9.86579 53 22.0416 53C22.2479 53 22.4543 52.9872 22.6607 52.9872H46.6594C51.2262 52.9872 54.9209 49.4153 54.9209 45.0147V43.9868H40.0556V43.9804ZM9.34653 31.7293C9.34653 24.971 15.045 19.4783 22.0482 19.4783C29.0515 19.4783 34.7433 24.971 34.7433 31.7293C34.7433 38.4876 29.0448 43.9868 22.0482 43.9868C15.0516 43.9868 9.34653 38.4876 9.34653 31.7293Z" fill="url(#paint0_linear_89_646)"/>
<path d="M71.5901 43.4665V9.18673C71.5901 5.24224 74.9053 2.04297 78.9928 2.04297V21.926C80.5305 18.3862 85.3303 15.9258 90.2432 15.9258C100.542 15.9258 107.172 22.8961 107.172 33.4061C107.172 43.9162 100.542 50.9443 90.2432 50.9443C85.3303 50.9443 80.4773 48.4902 78.9928 45.0019V50.5974C74.9053 50.5974 71.5901 47.3981 71.5901 43.4536V43.4665ZM89.3512 23.0695C83.3132 23.0695 78.9928 27.3545 78.9928 33.4639C78.9328 39.6312 83.1934 43.807 89.3512 43.807C95.509 43.807 99.7695 39.6955 99.7695 33.4061C99.7695 27.1168 95.5689 23.0631 89.3512 23.0631V23.0695Z" fill="#002880"/>
<path d="M116.818 2.16492C119.361 2.16492 121.079 3.76455 121.079 6.27643C121.079 8.78831 119.361 10.4458 116.818 10.4458C114.275 10.4458 112.498 8.78831 112.498 6.27643C112.498 3.76455 114.156 2.16492 116.818 2.16492V2.16492Z" fill="#002880"/>
<path d="M113.09 50.6102V23.4742C113.09 19.5297 116.406 16.3304 120.493 16.3304V43.4664C120.493 47.4109 117.178 50.6102 113.09 50.6102Z" fill="#002880"/>
<path d="M138.307 9.07751V16.3305H146.003V23.0695H138.307V38.4363C138.307 41.2437 140.664 43.5179 143.573 43.5179H146.003V50.6038H142.927C134.46 50.6038 130.911 47.2311 130.911 38.8346V23.0695H125.639V16.3305H130.911L131.397 14.3582C132.156 11.2618 135.019 9.07751 138.314 9.07751H138.307Z" fill="#002880"/>
<path d="M151.162 50.6102V9.19307C151.162 5.24859 154.477 2.04932 158.565 2.04932V43.4664C158.565 47.4109 155.25 50.6102 151.162 50.6102Z" fill="#2F71FF"/>
<path d="M192.423 45.0082C190.885 48.4902 186.092 50.9507 181.112 50.9507C170.874 50.9507 164.183 43.9804 164.183 33.4125C164.183 22.8446 170.814 15.9321 181.112 15.9321C186.025 15.9321 190.878 18.3862 192.423 21.9324V16.3304C196.51 16.3304 199.825 19.5297 199.825 23.4742V43.4729C199.825 47.4173 196.51 50.6166 192.423 50.6166V45.0211V45.0082ZM182.064 43.8069C188.222 43.8069 192.483 39.6376 192.423 33.4639C192.423 27.3544 188.042 23.0695 182.004 23.0695C175.966 23.0695 171.586 27.181 171.586 33.4125C171.586 39.644 175.847 43.8133 182.064 43.8133V43.8069Z" fill="#2F71FF"/>
<path d="M206.928 50.6102V9.19307C206.928 5.24859 210.244 2.04932 214.331 2.04932V21.9323C215.869 18.3926 220.662 15.9321 225.582 15.9321C235.88 15.9321 242.511 22.9024 242.511 33.4125C242.511 43.9225 235.88 50.9506 225.582 50.9506C220.669 50.9506 215.816 48.4966 214.331 45.0082C214.331 48.0983 211.735 50.6037 208.533 50.6037H206.935L206.928 50.6102ZM224.69 23.0759C218.652 23.0759 214.331 27.3608 214.331 33.4703C214.271 39.6376 218.532 43.8133 224.69 43.8133C230.847 43.8133 235.108 39.7018 235.108 33.4125C235.108 27.1231 230.907 23.0694 224.69 23.0694V23.0759Z" fill="#2F71FF"/>
<path d="M245.473 45.2974L262.462 23.3007H245.886C245.886 19.4526 249.121 16.3304 253.109 16.3304H272.647V21.9324L256.011 43.6399H273C273 47.488 269.765 50.6102 265.777 50.6102H245.473V45.2974Z" fill="#2F71FF"/>
</g>
<defs>
<linearGradient id="paint0_linear_89_646" x1="7.94189" y1="-0.661697" x2="34.561" y2="59.1749" gradientUnits="userSpaceOnUse">
<stop stop-color="#42DFFF"/>
<stop offset="1" stop-color="#2F71FF"/>
</linearGradient>
<clipPath id="clip0_89_646">
<rect width="273" height="53" fill="white"/>
</clipPath>
</defs>
</svg>
