<?xml version="1.0" encoding="UTF-8"?>
<svg xmlns="http://www.w3.org/2000/svg" version="1.1" viewBox="0 0 154.7 43.8">
  <defs>
    <style>
      .cls-1 {
        fill: #5e9c47;
      }

      .cls-2 {
        fill: #012233;
      }
    </style>
  </defs>
  <!-- Generator: Adobe Illustrator 28.6.0, SVG Export Plug-In . SVG Version: 1.2.0 Build 709)  -->
  <g>
    <g id="Layer_1">
      <g>
        <g>
          <path class="cls-2" d="M65.9,12.4h-9.5v-7.2h28.6v7.2h-9.4v26h-9.7V12.4h0Z"/>
          <path class="cls-2" d="M89,5.2h16.5c8,0,11.5,4,11.5,8.6s-1.9,6.1-4.5,7.2c2.5.9,5.4,3.2,5.4,7.5s-4.1,9.9-12.3,9.9h-16.6V5.2ZM103.9,18c2.7,0,3.8-1.4,3.8-3.2s-1.5-3.1-3.8-3.1h-5.3v6.2h5.4ZM98.4,31.8h5c3.2,0,4.6-1.4,4.6-3.8s-1.3-3.5-4.4-3.5h-5.1v7.3h0Z"/>
          <path class="cls-2" d="M122.7,38.3V5.2h11.6c3.5,7.5,8.5,17.5,9.9,21.6h.2c-.4-3.4-.4-9.3-.4-14.6v-7.1h8.9v33.1h-11.1c-2.8-6-8.8-18.4-10.4-22.8h-.1c.3,3.1.3,9.5.3,15.4v7.4s-8.9,0-8.9,0Z"/>
        </g>
        <g>
          <path class="cls-1" d="M32,8.9l-4.1-4.8h-7.6l-2.1-3.7h-5.4l-2.7,4.7,2.7,4.7h5.4l2.1-3.7h6.7l4.1,4.8h19.5v-2s-18.6,0-18.6,0ZM17,7.9h-3.1l-1.6-2.7,1.6-2.7h3.1l1.6,2.7-1.6,2.7Z"/>
          <path class="cls-1" d="M29.4,28.4h-9.2l-4.2-5.5h-4.9l-2.1-3.7H3.6l-2.7,4.7,2.7,4.7h5.4l2.1-3.7h3.9l4.2,5.5h11l3.8-3.8h16.5v-2h-17.4l-3.8,3.8ZM7.8,26.6h-3.1l-1.6-2.7,1.6-2.7h3.1l1.6,2.7-1.6,2.7Z"/>
          <path class="cls-1" d="M36.1,37.3h-13.6l-2.1-3.7h-5.4l-2.7,4.7,2.7,4.7h5.4l2.1-3.7h14.5l4.6-5.6h9v-2h-9.9l-4.6,5.6ZM19.2,41h-3.1l-1.6-2.7,1.6-2.7h3.1l1.6,2.7-1.6,2.7Z"/>
          <path class="cls-1" d="M28.9,12.8h-5.4l-2.7,4.7,2.7,4.7h5.4l2.1-3.7h19.5v-2h-19.5l-2.2-3.7ZM27.8,20.2h-3.1l-1.6-2.7,1.6-2.7h3.1l1.6,2.7-1.6,2.7Z"/>
        </g>
      </g>
    </g>
  </g>
</svg>