<?xml version="1.0" encoding="UTF-8"?> <svg xmlns="http://www.w3.org/2000/svg" width="70" height="55" viewBox="0 0 71 55" fill="none"><path d="M43.0643 19.2487C43.1291 20.2304 43.0111 21.2155 42.7164 22.1541L38.3237 35.7885H18.3192L12.2802 54.3245C12.2286 54.4832 12.1372 54.626 12.0147 54.7394C11.8923 54.8528 11.7429 54.933 11.5807 54.9724C11.4185 55.0117 11.249 55.009 11.0882 54.9643C10.9274 54.9197 10.7807 54.8347 10.662 54.7174L0.812172 44.9892C0.451918 44.6334 0.197637 44.1845 0.0777174 43.6926C-0.0422017 43.2007 -0.0230338 42.6852 0.133074 42.2035L0.907585 39.8126L8.20373 17.3817C8.26734 17.174 8.33095 16.9682 8.40952 16.7774C9.00954 15.2936 10.0386 14.0224 11.3649 13.1266C12.6913 12.2308 14.2548 11.751 15.8553 11.7487H34.6719C38.9617 11.7543 42.7931 14.9646 43.0643 19.2487Z" fill="#9BB4D8"></path><path d="M66.1688 7.34292C65.9817 8.05944 65.875 8.6132 65.6618 9.29604L59.3852 28.6346L58.6893 30.7654C58.364 31.8012 57.8052 32.7485 57.0561 33.5342C56.1005 34.5706 54.8534 35.2933 53.4791 35.6071C52.9485 35.7343 52.4046 35.7972 51.859 35.7942H21.5407C20.5903 35.7942 18.5324 35.6071 17.6962 35.2535C16.0339 34.5822 14.6856 33.3094 13.9197 31.6885C13.1539 30.0677 13.0267 28.2179 13.5635 26.5075L17.6962 13.7691L20.536 5.0306C20.5922 4.84352 20.6633 4.67515 20.7231 4.48994C21.2578 3.16492 22.1759 2.02973 23.3598 1.2298C24.5436 0.429865 25.9394 0.00164069 27.3682 0H59.5405C64.6347 0.00935403 67.1958 3.24024 66.1688 7.34292Z" fill="#7593E6"></path><path fill-rule="evenodd" clip-rule="evenodd" d="M21.1291 35.7213C20.0953 35.6877 18.3539 35.5043 17.6014 35.1862C15.9392 34.5149 14.5909 33.2421 13.825 31.6213C13.0591 30.0004 12.932 28.1506 13.4688 26.4402L17.6014 13.7019L18.2581 11.6814H34.5772C38.8669 11.687 42.6983 14.8973 42.9696 19.1815C43.0343 20.1631 42.9164 21.1482 42.6216 22.0868L38.229 35.7213H21.1291Z" fill="#3560D6"></path><path d="M32.8796 31.6598C32.8813 32.3015 32.7286 32.9342 32.4344 33.5045C32.367 33.643 32.2901 33.7768 32.2043 33.9048C29.1949 39.0615 24.7956 43.2677 19.509 46.0426C18.3306 46.6813 17.1077 47.234 15.8497 47.6964C14.4327 48.2396 12.9752 48.6705 11.4907 48.9854C9.45232 49.4373 7.37448 49.6879 5.28711 49.7337C6.55532 49.6265 7.77968 49.2184 8.85858 48.5433C9.93749 47.8682 10.8398 46.9455 11.4907 45.8518C11.9077 45.1859 12.2064 44.453 12.3737 43.6854C12.5488 43.048 12.6344 42.3894 12.6282 41.7285C12.6254 40.02 12.078 38.3569 11.0653 36.9808C10.0526 35.6048 8.62747 34.5875 6.99703 34.0769C9.96633 35.0756 13.1278 35.3669 16.2296 34.9278C19.3314 34.4887 22.2878 33.3312 24.8632 31.5476C26.1098 30.6845 27.2524 29.68 28.2681 28.5543C28.2961 28.5144 28.3281 28.4774 28.3635 28.4439C28.5482 28.2565 28.7684 28.1079 29.0113 28.0067C29.2541 27.9055 29.5147 27.8538 29.7778 27.8546C30.0415 27.8509 30.3027 27.9052 30.543 28.0136C30.5516 28.0125 30.5603 28.0134 30.5684 28.0164C30.5766 28.0193 30.5839 28.0241 30.5898 28.0305C30.701 28.0783 30.8075 28.1366 30.9078 28.2045C31.5101 28.5575 32.0093 29.0624 32.3553 29.6687C32.7013 30.2751 32.8821 30.9617 32.8796 31.6598V31.6598Z" fill="#9BB4D8"></path></svg>