<?xml version="1.0" encoding="UTF-8"?>
<svg fill="none" version="1.1" viewBox="0 0 25.792 35.858" xmlns="http://www.w3.org/2000/svg" xmlns:xlink="http://www.w3.org/1999/xlink">
  <defs>
    <clipPath id="b">
      <rect x=".11274" y="-.054533" width="25.792" height="36.099" d="M 0.11273682,-0.05453338 H 25.905103 V 36.044897 H 0.11273682 Z" fill="#4d4d4d"/>
    </clipPath>
    <clipPath id="a">
      <rect x=".20207" y=".053017" width="25.792" height="36.099" fill="#4d4d4d"/>
    </clipPath>
  </defs>
  <path transform="translate(-.20207 -.053017)" d="m35.07 5.6502v21.581h17.47l-3.3859 3.2007h-17.29v-21.904zm51.509 21.581h16.488c1.603 0 2.797-0.3395 3.549-1.0346s1.129-1.7459 1.129-3.1522c0-1.5357-0.393-2.6188-1.194-3.2169-0.377-0.2425-0.851-0.4203-1.44-0.5496-0.589-0.1294-1.308-0.194-2.159-0.194h-16.357v8.1473zm0-11.332h15.457c1.554 0 2.634-0.2263 3.206-0.6627 0.867-0.4365 1.309-1.3741 1.309-2.8128 0-1.2286-0.377-2.1176-1.145-2.6834-0.769-0.56579-1.898-0.84059-3.403-0.84059h-15.408v6.9995zm14.427-10.249c5.806 0 8.718 2.1176 8.718 6.3529 0 2.4895-0.605 4.2191-1.816 5.2052 1.996 0.9699 3.01 2.9098 3.01 5.8357 0 1.3578-0.196 2.5379-0.572 3.524-0.377 1.0022-0.998 1.7943-1.849 2.3924-0.687 0.5173-1.554 0.8891-2.617 1.1316s-2.306 0.3556-3.729 0.3556h-18.778v-24.797h0.3598zm-41.957 11.203h13.429c1.6357 0 2.8298-0.1617 3.5986-0.5173v0.0323c0.5234-0.2586 0.916-0.6466 1.145-1.1315 0.2453-0.5012 0.3598-1.0831 0.3598-1.7621v-1.2124c0-0.6789-0.1145-1.2608-0.3598-1.7135-0.229-0.4688-0.6216-0.84056-1.145-1.0992-0.3926-0.17781-0.8833-0.3233-1.4722-0.42029-0.5888-0.08083-1.2922-0.14549-2.1428-0.14549h-13.429v7.9695zm13.544-11.203c1.4721 0 2.7643 0.14549 3.8439 0.43646 1.0796 0.29098 1.9465 0.72744 2.5845 1.3256 0.6052 0.61428 1.0795 1.4225 1.423 2.4571 0.3435 1.0346 0.5235 2.2793 0.5235 3.7503 0 4.3323-2.7808 6.4985-8.3586 6.4985h-13.544v6.757l-3.2878 3.6695v-10.426h-0.0164 0.0164v-14.468zm-72.675 4.5262v15.47l13.037 10.265 13.037-10.265v-15.47l-13.037 10.265v-20.53z" clip-path="url(#a)" fill="#313131"/>
  <path transform="translate(-.11274 .054533)" d="m23.219 10.961s-7.2911-0.84292-7.2911-0.84292" clip-path="url(#b)" fill="#000"/>
</svg>
