<svg width="111" height="36" viewBox="0 0 111 36" fill="none" xmlns="http://www.w3.org/2000/svg" xmlns:xlink="http://www.w3.org/1999/xlink">
<path d="M35.1516 5.73866V27.3193H52.6211L49.2352 30.52H31.9456V8.61608L35.1516 5.73866ZM86.6605 27.3193H103.149C104.752 27.3193 105.946 26.9798 106.698 26.2847C107.45 25.5896 107.827 24.5388 107.827 23.1325C107.827 21.5968 107.434 20.5137 106.633 19.9156C106.256 19.6731 105.782 19.4953 105.193 19.366C104.604 19.2366 103.885 19.172 103.034 19.172H86.6768V27.3193H86.6605ZM86.6605 15.9874H102.118C103.672 15.9874 104.752 15.7611 105.324 15.3247C106.191 14.8882 106.633 13.9506 106.633 12.5119C106.633 11.2833 106.256 10.3943 105.488 9.82847C104.719 9.26268 103.59 8.98788 102.085 8.98788H86.6768V15.9874H86.6605ZM101.088 5.73866C106.894 5.73866 109.806 7.85631 109.806 12.0916C109.806 14.5811 109.201 16.3107 107.99 17.2968C109.986 18.2667 111 20.2066 111 23.1325C111 24.4903 110.804 25.6704 110.428 26.6565C110.051 27.6587 109.43 28.4508 108.579 29.0489C107.892 29.5662 107.025 29.938 105.962 30.1805C104.899 30.423 103.656 30.5361 102.233 30.5361H83.8143H83.4545V5.73866H83.8143H101.088ZM59.1313 16.9412H72.5606C74.1963 16.9412 75.3904 16.7795 76.1592 16.4239V16.4562C76.6826 16.1976 77.0752 15.8096 77.3042 15.3247C77.5495 14.8235 77.664 14.2416 77.664 13.5626V12.3502C77.664 11.6713 77.5495 11.0894 77.3042 10.6367C77.0752 10.1679 76.6826 9.79614 76.1592 9.53749C75.7666 9.35968 75.2759 9.21419 74.687 9.1172C74.0982 9.03637 73.3948 8.97171 72.5442 8.97171H59.1149V16.9412H59.1313ZM72.6751 5.73866C74.1472 5.73866 75.4394 5.88415 76.519 6.17512C77.5986 6.4661 78.4655 6.90256 79.1035 7.50067C79.7087 8.11495 80.183 8.92321 80.5265 9.95779C80.87 10.9924 81.05 12.2371 81.05 13.7081C81.05 18.0404 78.2692 20.2066 72.6914 20.2066H59.1477V26.9636L55.8599 30.6331V20.3844V20.2066H55.8435C55.8435 20.2066 55.8435 20.2066 55.8599 20.2066V5.73866H72.6751ZM0 10.2649V25.7351L13.0367 36L26.0734 25.7351V10.2649L13.0367 20.5299V0L0 10.2649Z" fill="#313131"/>
</svg>
