<svg width="1051" height="771" viewBox="0 0 1051 771" fill="none" xmlns="http://www.w3.org/2000/svg">
<rect width="1051" height="771" rx="20" fill="#252422"/>
<path d="M319.655 358.354V412.671C319.655 420.175 313.539 426.244 305.977 426.244H237.565C217.41 426.244 207.087 404.425 220.481 391.16L219.345 390.033L182.855 426.244H169.177C161.616 426.244 155.5 420.175 155.5 412.671V358.354C155.5 350.851 161.616 344.781 169.177 344.781H210.235C230.365 344.781 240.687 366.6 227.319 379.866L228.455 380.993L264.971 344.756H306.029C313.59 344.756 319.706 350.825 319.706 358.329M431.01 360.224V344.756H363.861V361.709L406.081 361.376L360.739 410.751V426.219H433.306V409.445L385.461 409.598L431.01 360.224ZM581.41 342.784C568.274 342.784 559.087 348.648 555.294 358.252H553.152C550.855 347.829 541.977 342.784 530.494 342.784C519.655 342.784 508.997 347.009 504.868 357.125V344.73H482.7V426.193H505.203V376.818C505.203 364.936 511.939 360.198 519.164 360.198H520.145C527.216 360.198 533.926 363.45 533.926 374.872V426.193H556.429L556.274 376.665C556.274 364.936 563.165 360.198 570.39 360.198H571.371C578.442 360.198 585.152 363.63 585.152 374.693V426.193H607.655V370.314C607.655 348.802 593.694 342.784 581.384 342.784M705.023 385.321C705.023 411.545 690.081 428.165 670.055 428.165C655.603 428.165 646.726 421.148 643.629 413.67V458H621.126V344.781H643.629V357.97C646.906 350.159 656.274 342.809 670.055 342.809C689.926 342.809 705.023 359.097 705.023 385.346M681.694 385.346C681.694 370.032 675.629 359.43 662.648 359.43H661.823C648.687 359.43 642.623 370.032 642.623 385.346C642.623 400.661 648.687 411.57 661.823 411.57H662.648C675.448 411.57 681.694 400.661 681.694 385.346ZM715.732 426.244H738.235V313H715.732V426.244ZM808.223 398.868H830.39C826.442 416.795 811.681 428.37 790.158 428.191C764.377 428.037 748.945 410.93 748.945 385.654C748.945 359.097 765.539 342.809 789.668 342.809C813.797 342.809 829.9 358.789 829.9 385.346V389.905H771.294V390.724C771.629 402.94 779.164 411.903 790.339 411.903H790.984C800.661 411.903 806.261 405.885 808.223 398.868ZM771.603 376.383H807.552C806.726 366.293 800.481 357.97 789.977 357.97H788.997C778.313 357.97 772.403 366.6 771.603 376.383ZM891.371 344.295C878.571 344.295 869.848 347.726 864.945 361.069V344.781H842.932V426.244H865.435V385.679C865.435 372.004 875.448 366.626 886.623 366.626C890.081 366.626 892.377 366.959 895.5 367.599V344.474C894.855 344.474 893.048 344.32 891.397 344.32M445.642 391.8V426.219H468.119V369.469C455.706 369.469 445.642 379.456 445.642 391.774M445.642 367.061H468.119V344.756H445.642V367.061Z" fill="white"/>
</svg>
