<svg width="47" height="21" viewBox="0 0 47 21" fill="none" xmlns="http://www.w3.org/2000/svg">
<g clip-path="url(#clip0_171_7960)">
<path d="M20.2489 7.86184C20.2489 8.96139 20.2545 10.1004 20.2883 11.1559C19.9982 10.3699 19.4761 9.01211 18.5164 6.50966L17.7586 4.5293H15.6553V14.9795H17.4093V11.5296C17.4093 10.2215 17.4093 9.04402 17.3802 8.0177C17.6995 8.89474 18.3004 10.5033 19.4798 13.6592L19.9728 14.9795H22.002V4.5293H20.2489V7.86184Z" fill="#1A4DBE"/>
<path d="M26.2359 11.3784L26.9871 10.3455L28.9872 14.9785H31.1177L28.2754 8.71068L31.1131 4.5293H28.8989L28.8492 4.60254C28.3243 5.41478 27.6191 6.5613 26.9984 7.57072C26.712 8.04025 26.4519 8.46279 26.235 8.81115V4.5293H24.3457V14.9823H26.235" fill="#1A4DBE"/>
<path d="M32.917 6.25707H36.1962V8.97268H32.917V10.5267H36.1962V13.2893H32.917V14.9795H38.0815V4.5293H32.917V6.25707Z" fill="#1A4DBE"/>
<path d="M8.14347 14.9795H13.308V13.2893H10.0309V10.5239H13.3061V8.96892H10.0309V6.25425H13.3061V4.5293H8.1416L8.14347 14.9795Z" fill="#1A4DBE"/>
<path d="M0 14.9786H3.19824C3.82996 14.9792 4.44579 14.7807 4.95822 14.4113C5.47065 14.0419 5.85363 13.5204 6.05275 12.9209C6.25185 12.3214 6.25695 11.6744 6.06734 11.0718C5.8777 10.4692 5.50299 9.94175 4.99645 9.56431C5.5062 9.01218 5.78801 8.28753 5.78521 7.53605C5.78372 6.7396 5.46668 5.97617 4.90347 5.41298C4.34029 4.8498 3.57685 4.53274 2.78039 4.53125H0.00187841L0 14.9786ZM1.83012 6.25902H2.5109C2.8865 6.25902 3.27431 6.29188 3.52503 6.55105C3.65269 6.67634 3.75355 6.82625 3.8215 6.9917C3.88946 7.15715 3.92309 7.33469 3.92035 7.51354V7.5586C3.92035 7.93217 3.77195 8.29042 3.50782 8.55455C3.24365 8.81872 2.8854 8.96712 2.51184 8.96712H1.83012V6.25902ZM4.33726 11.9954C4.33726 12.371 4.18795 12.6396 3.92411 12.9034C3.66021 13.1676 3.30219 13.3162 2.92877 13.3166H1.83012V10.5381H2.92877C3.30231 10.5381 3.66056 10.6865 3.92473 10.9506C4.18886 11.2148 4.33726 11.573 4.33726 11.9466V11.9954Z" fill="#1A4DBE"/>
<path d="M40.4219 14.9796H42.283V10.523H43.4333C43.7933 10.524 44.1386 10.667 44.3938 10.9212C44.6487 11.1836 44.7913 11.5348 44.7919 11.9006V14.9786H46.6653V11.8593C46.6659 11.457 46.5822 11.059 46.4194 10.6912C46.2564 10.3233 46.0181 9.99381 45.7197 9.72396C46.1584 9.31093 46.4629 8.77558 46.5935 8.18734C46.7239 7.59911 46.6749 6.9852 46.4521 6.42533C46.2293 5.86546 45.8434 5.38548 45.3443 5.04772C44.8456 4.70996 44.2564 4.53002 43.6538 4.53126H40.4219V14.9796ZM44.7881 7.56143C44.7867 7.93453 44.6379 8.29194 44.374 8.55575C44.1103 8.81959 43.7527 8.96846 43.3797 8.96994H42.2868V6.23931H43.3864C43.7617 6.23931 44.1788 6.35387 44.4428 6.61491C44.7065 6.87595 44.7919 7.11446 44.7919 7.5539L44.7881 7.56143Z" fill="#1A4DBE"/>
</g>
<defs>
<clipPath id="clip0_171_7960">
<rect width="46.6667" height="10.5" fill="white" transform="translate(0 4.5)"/>
</clipPath>
</defs>
</svg>
