<?xml version="1.0" encoding="UTF-8" standalone="no"?>
<svg
   xmlns:dc="http://purl.org/dc/elements/1.1/"
   xmlns:cc="http://creativecommons.org/ns#"
   xmlns:rdf="http://www.w3.org/1999/02/22-rdf-syntax-ns#"
   xmlns:svg="http://www.w3.org/2000/svg"
   xmlns="http://www.w3.org/2000/svg"
   xml:space="preserve"
   style="enable-background:new 0 0 809 229;"
   viewBox="0 0 809 229"
   height="229px"
   width="809px"
   y="0px"
   x="0px"
   id="Layer_1"
   version="1.1"><metadata
     id="metadata30"><rdf:RDF><cc:Work
         rdf:about=""><dc:format>image/svg+xml</dc:format><dc:type
           rdf:resource="http://purl.org/dc/dcmitype/StillImage" /><dc:title></dc:title></cc:Work></rdf:RDF></metadata><defs
     id="defs28" /><style
     id="style3"
     type="text/css">
	.st0{fill-rule:evenodd;clip-rule:evenodd;fill:#4DB45E;}
	.st1{fill-rule:evenodd;clip-rule:evenodd;fill:url(#SVGID_1_);}
</style><g
     id="g5"><path
       id="path7"
       d="M218,0l0,0.1c-0.1,0-31.6-0.1-40,30c-7.7,27.6-29.4,103.8-30,105.9h-6c0,0-22.2-77.9-30-106   C103.6-0.1,72,0,72,0H0v229h72V93h3h3l42,136h50l42-135.9h6V229h72V0H218z"
       class="st0" /></g><g
     id="g9"><path
       id="path11"
       d="M481,0c0,0-21.1,1.9-31,24l-51,112h-6V0h-72v229l68,0v0c0,0,22.1-2,32-24l50-112h6v136h72V0H481z"
       class="st0" /></g><g
     id="g13"><path
       id="path15"
       d="M581,104v125h72v-73h78c34,0,62.8-21.7,73.5-52H581z"
       class="st0" /></g><g
     id="g17"><linearGradient
       y2="47"
       x2="809"
       y1="47"
       x1="570.9194"
       gradientUnits="userSpaceOnUse"
       id="SVGID_1_"><stop
         id="stop20"
         style="stop-color:#00B4E6"
         offset="0.3" /><stop
         id="stop22"
         style="stop-color:#088CCB"
         offset="1" /></linearGradient><path
       id="path24"
       d="M731,0H570.9c8,43.6,40.7,78.6,83,90l0,0c9.6,2.6,19.7,4,30.1,4h123.4c1.1-5.2,1.6-10.5,1.6-16   C809,34.9,774.1,0,731,0z"
       class="st1" /></g></svg>