<svg xmlns="http://www.w3.org/2000/svg" viewBox="0 0 311.8 311.8" enable-background="new 0 0 311.8 311.8"><path d="M155.9 0c-86.1 0-155.9 69.8-155.9 155.9 0 86.1 69.8 155.9 155.9 155.9 86.1 0 155.9-69.8 155.9-155.9 0-86.1-69.8-155.9-155.9-155.9zm-59.5 246.8c-6.4 2-13.3-1.5-15.3-7.9s1.5-13.2 7.9-15.3c6.4-2 13.3 1.5 15.3 7.9 2.1 6.4-1.4 13.2-7.9 15.3zm39.7 20.4c-8 2.6-16.5-1.8-19.1-9.9-2.5-8 1.9-16.5 9.9-19 8-2.6 16.5 1.8 19.1 9.9 2.6 7.9-1.9 16.5-9.9 19zm52.8 2.8c-11.1 3.5-23-2.6-26.5-13.7s2.6-23.1 13.7-26.6 23 2.6 26.5 13.7c3.6 11.2-2.6 23.1-13.7 26.6zm39-34.2c-8.1 2.6-16.7-1.9-19.2-9.9-2.6-8.1 1.9-16.7 10-19.2 8-2.6 16.7 1.9 19.2 9.9 2.5 8.1-2 16.7-10 19.2zm11.4-30.8c-4.6-5.2-11.8-7.7-19-6.2l7-20-23.7-66v67.7h-19.9v-9.9c-6.6 8.3-14.9 12.4-25.1 12.4-11 0-19.8-4.1-26.6-12.3-2.6-3.2-4.6-6.8-6-10.7-2.3 6.7-6.3 12.1-12 16.3-6.1 4.4-13.3 6.7-21.7 6.7-10.1 0-18.1-3.4-24.1-10.3v36.5h-19.8v-100.8h19.9v8.9c2.5-3.3 5-5.8 7.7-7.4 4.5-2.7 9.8-4 16.1-4 7.4 0 14.1 2 20 6 7 4.7 11.7 10.8 14.3 18.4.7-2.1 1.6-4.2 2.7-6.2 3-5.5 7.1-9.9 12.6-13.2 5.5-3.3 11.7-5 18.5-5 5.7 0 10.8 1.3 15.2 4 2.7 1.6 5.5 4.1 8.4 7.5v-9.1h39.3l14.6 42.9 16.8-42.9h21.1l-36.3 96.7zm-151.3-82.5c-6.8 0-12.1 2.8-15.9 8.4-2.6 3.9-3.9 8.6-3.9 14.3 0 6.7 1.8 12.1 5.4 15.9 3.6 3.8 8.2 5.7 13.8 5.7 6.9 0 12.2-2.7 15.9-8.1 2.6-3.9 4-8.5 4-13.7 0-6.9-1.8-12.3-5.5-16.4-3.6-4-8.2-6.1-13.8-6.1zm76.2.2c-6.2 0-11.1 2.4-14.6 7.2-3.1 4.3-4.7 9.3-4.7 15.1 0 6.9 2.1 12.4 6.3 16.6 3.5 3.6 7.8 5.4 12.8 5.4 5.9 0 10.9-2.5 14.8-7.4 3.4-4.4 5.1-9.4 5.1-15.2 0-5.7-1.5-10.6-4.5-14.6-3.7-4.7-8.8-7.1-15.2-7.1z" fill="#00933A"/></svg>