<?xml version="1.0" encoding="UTF-8"?>
<svg width="1003.4" height="343.2" version="1.1" viewBox="-4.1793204 -4.1793204 407.305 139.2295" xmlns="http://www.w3.org/2000/svg" xmlns:cc="http://creativecommons.org/ns#" xmlns:dc="http://purl.org/dc/elements/1.1/" xmlns:rdf="http://www.w3.org/1999/02/22-rdf-syntax-ns#">
<metadata>
<rdf:RDF>
<cc:Work rdf:about="">
<dc:format>image/svg+xml</dc:format>
<dc:type rdf:resource="http://purl.org/dc/dcmitype/StillImage"/>
<dc:title/>
</cc:Work>
</rdf:RDF>
</metadata>
<path d="m27.477 15.266c-4.5288 0-8.4138 0.95625-11.656 2.9062-1.915 1.1438-3.7888 2.9438-5.5938 5.375v-6.4688h-14.406v73.125h14.406v-26.5c4.3462 5.01 10.201 7.5312 17.531 7.5312 6.0788 0 11.33-1.635 15.75-4.875 4.14-3.0212 7.04-6.9488 8.7188-11.781 0.99875 2.8525 2.4288 5.4325 4.3125 7.75 4.8625 5.9288 11.29 8.9062 19.281 8.9062 7.3675 0 13.436-2.9962 18.188-9v7.1562h14.406v-49.188l17.219 47.969-5.0625 14.5c5.17-1.1012 10.4 0.75125 13.781 4.5312l26.375-70.125h-15.312l-12.219 31.094-10.594-31.094h-28.594v6.625c-2.1-2.4675-4.1412-4.29-6.0938-5.4688-3.2425-1.9512-6.9362-2.9375-11.062-2.9375-4.9738 0-9.4312 1.225-13.406 3.6562-3.9425 2.3575-6.9888 5.5462-9.125 9.5625-0.78 1.4462-1.4275 2.9438-1.9688 4.4688-1.8412-5.5038-5.28-9.975-10.344-13.375-4.31-2.91-9.1538-4.3438-14.531-4.3438zm-2.875 12.094c4.0125 0 7.3488 1.4862 10 4.4688 2.6525 2.985 3.9688 6.965 3.9688 11.938 0 3.8288-0.96 7.14-2.875 9.9375-2.69 3.94-6.5188 5.9062-11.531 5.9062-4.05 0-7.3838-1.3888-10-4.1875-2.615-2.8-3.9375-6.6325-3.9375-11.531 0-4.1262 0.9375-7.605 2.8125-10.406 2.7625-4.0875 6.6262-6.125 11.562-6.125zm55.25 0.0937c4.6775 0 8.3438 1.7575 11.031 5.2188 2.21 2.8738 3.3438 6.3688 3.3438 10.531s-1.25 7.8338-3.7188 11c-2.835 3.61-6.435 5.4062-10.781 5.4062-3.6112 0-6.7025-1.2925-9.2812-3.9062-3.0562-3.0575-4.5625-7.09-4.5625-12.062 0-4.1612 1.0962-7.8062 3.3438-10.938 2.5412-3.5 6.0925-5.25 10.625-5.25zm42.312 60.438c-1.092 7e-3 -2.2182 0.15125-3.3125 0.5-5.8425 1.8612-9.0475 8.1225-7.1875 13.969 1.86 5.8425 8.095 9.0475 13.938 7.1875 5.8425-1.8612 9.0788-8.095 7.2188-13.937-1.5102-4.747-5.9242-7.7496-10.656-7.7188zm-94.188 12.344c-0.87017 6e-3 -1.7527 0.12828-2.625 0.40625-4.6575 1.4825-7.23 6.4662-5.75 11.125 1.4838 4.6575 6.4375 7.235 11.094 5.75 4.6538-1.4812 7.2312-6.4688 5.75-11.125-1.2066-3.7832-4.698-6.1813-8.4688-6.1562zm64.344 4.1875c-1.509 0.01-3.0494 0.23711-4.5625 0.71875-8.0725 2.5712-12.505 11.214-9.9375 19.281 2.5725 8.0762 11.178 12.51 19.25 9.9375 8.0688-2.5688 12.54-11.175 9.9688-19.25-2.0851-6.5569-8.1798-10.731-14.719-10.688zm-36.906 6.375c-1.0842 7e-3 -2.1933 0.18508-3.2812 0.53125-5.7962 1.8462-9.0025 8.0438-7.1562 13.844 1.8438 5.7975 8.0488 9 13.844 7.1562 5.8012-1.8488 9.0038-8.0462 7.1562-13.844-1.5011-4.7125-5.8644-7.719-10.562-7.6875z" fill="#0d933a"/>
<path d="m243.6 15.519h-14.421v-11.012h14.421zm-35.015-19.739v27.101c-2.5775-2.7275-5.12-4.6212-7.625-5.6912-3.0925-1.2888-6.315-1.9338-9.6688-1.9338-6.7025 0-12.632 2.3938-17.788 7.1825-5.6012 5.1938-8.3975 12.286-8.3975 21.271 0 7.8838 2.1525 14.272 6.4612 19.172 4.8612 5.5612 11.345 8.3412 19.448 8.3412 4.275 0 8.0512-0.90125 11.328-2.7062 2.1-1.1425 4.18-3.13 6.2425-5.965v6.85h14.421v-73.622zm-3.425 58.539c-2.6888 3.5362-6.2238 5.3038-10.609 5.3038-3.8288 0-7.1088-1.3988-9.8338-4.1975-2.8725-2.9112-4.31-6.7975-4.31-11.659 0-3.8312 0.94125-7.2 2.82-10.114 2.7238-4.1962 6.535-6.2975 11.435-6.2975 4.0512 0 7.385 1.5475 10.001 4.6425 2.6175 3.0575 3.9212 6.9425 3.9212 11.658 0 4.125-1.14 7.68-3.425 10.664m38.44 15.084h-14.421v-52.324h14.421zm145.77-40.5v25.084c0 1.3262 0.31125 2.21 0.93625 2.6525 0.70125 0.47875 1.7488 0.71875 3.1512 0.71875h9.6712v12.045h-18.676c-3.3538 0-5.8375-0.82875-7.46-2.485-1.3625-1.44-2.0438-3.9412-2.0438-7.515v-61.124h14.421v18.524h13.759v12.1zm-15.8-11.824h-16.631l-14.641 20.056v-38.661h-14.42v35.857c-1.0438-3.4175-2.6925-6.4988-4.9562-9.2412-5.4138-6.5562-12.764-9.8338-22.046-9.8338-5.4525 0-10.315 1.215-14.586 3.645-2.0238 1.1538-3.815 2.5412-5.385 4.15v-6.1412h-16.421c-3.0575 0.2775-5.7888 1.035-8.2175 2.275-2.0275 1.0312-3.9088 2.5662-5.625 4.5988-1.7262 2.035-2.5838 4.845-2.5838 8.4225v37.112h14.431v-35.354c0.23125-0.82625 0.65875-1.5812 1.2888-2.2738 0.545-0.54875 1.3088-1.0675 2.2875-1.5488 0.97875-0.4825 2.2488-0.7225 3.8125-0.7225h6.5475c-2.1138 4.2212-3.1738 8.8012-3.1738 13.739 0 7.8088 2.3562 14.199 7.0712 19.172 5.6 5.9288 12.744 8.8925 21.438 8.8925 6.4825 0 12.322-2.0225 17.515-6.0762 3.2062-2.5038 5.8375-5.8025 7.9-9.8912l-13.15-3.645c-0.92 1.7325-2.1725 3.13-3.7575 4.1988-2.5412 1.73-5.3238 2.5962-8.3412 2.5962-4.3475 0-7.8812-1.5825-10.609-4.7512-1.5838-1.8038-2.615-4.1438-3.0938-7.0162h39.655v22.764h14.42v-21.715l14.586 21.715h16.686l-17.848-27.239zm-85.402 21.328c0.55125-2.7612 1.5275-4.9725 2.9288-6.6312 2.505-2.9075 5.8188-4.3638 9.9462-4.3638 4.3088 0 7.77 1.4562 10.386 4.3638 1.51 1.6588 2.5038 3.87 2.9838 6.6312z" fill="#004d86"/>
</svg>
