<svg id="Capa_1" data-name="Capa 1" xmlns="http://www.w3.org/2000/svg" viewBox="0 0 73 14.45"><defs><style>.cls-1{opacity:0.8;}.cls-2,.cls-3{fill:#009ee2;}.cls-3{opacity:0.9;}.cls-4{fill:#fff;}.cls-5{fill:#1d1d1b;}</style></defs><title>addonlogo</title><g class="cls-1"><polygon class="cls-2" points="5.49 0.04 15 1.04 10.35 3.17 0.07 2 5.49 0.04"/><path class="cls-2" d="M10.35,3.28h0L0.07,2.11a0,0,0,0,1,0,0,0,0,0,0,1,0,0l5.41-2h0l9.51,1a0,0,0,0,1,0,0,0,0,0,0,1,0,0L10.37,3.28h0ZM0.23,2.06L10.35,3.2l4.51-2.06-9.37-1Z" transform="translate(0 -0.07)"/></g><polygon class="cls-2" points="15.03 11.11 15 1.04 10.35 3.17 10.29 14.41 15.03 11.11"/><path class="cls-2" d="M10.29,14.53h0a0,0,0,0,1,0,0L10.31,3.24a0,0,0,0,1,0,0L15,1.08h0a0,0,0,0,1,0,0l0,10.07a0,0,0,0,1,0,0l-4.73,3.3h0Zm0.1-11.26L10.33,14.41,15,11.17l0-10Z" transform="translate(0 -0.07)"/><polygon class="cls-3" points="0.07 12.46 10.29 14.41 10.35 3.17 0.07 2 0.07 12.46"/><path class="cls-2" d="M10.29,14.53h0l-10.23-2a0,0,0,0,1,0,0V2.08A0,0,0,0,1,0,2h0L10.36,3.2a0,0,0,0,1,0,0L10.33,14.49a0,0,0,0,1,0,0h0Zm-10.18-2,10.14,1.94L10.31,3.28,0.11,2.12V12.5Z" transform="translate(0 -0.07)"/><path class="cls-4" d="M5.22,13.54h0a0,0,0,0,1,0,0,12.27,12.27,0,0,0,.19-1.33c0-.72-0.06-0.88-0.15-0.89a1,1,0,0,0-.41.09l-0.15.05a0.7,0.7,0,0,1-.51-0.06,0.74,0.74,0,0,1-.36-0.49,0.73,0.73,0,0,1,.29-1,0.81,0.81,0,0,1,.73.12,0.43,0.43,0,0,0,.43.21A0.55,0.55,0,0,0,5.38,9.7c0-.32-0.21-1.55-0.21-1.56L4.86,6.24A0.43,0.43,0,0,1,5,5.82,0.54,0.54,0,0,1,5.59,6L5.68,6a0.77,0.77,0,0,0,.65.11,0.41,0.41,0,0,0,.24-0.33,1,1,0,0,0-.3-1A0.76,0.76,0,0,0,5.67,4.8l-0.11.07a0.33,0.33,0,0,1-.48,0,1.65,1.65,0,0,1-.16-1.16c0.07-.28.17-0.79,0.17-0.8L5.16,2.7h0s0-.07.17-0.18l0.09-.06a1,1,0,0,1,.65-0.25H6.19a1.09,1.09,0,0,1,.4.05l0.08,0a1.29,1.29,0,0,0,.82.06A1.62,1.62,0,0,0,7.9,2.21l-0.06,0A2.75,2.75,0,0,0,7,2.12a0.71,0.71,0,0,1-.41-0.06,0.09,0.09,0,0,1,0-.07A0.49,0.49,0,0,1,7,1.76L7.86,1.6l0.71-.23,0.25-.1-0.41,0-0.5,0A0.28,0.28,0,0,1,7.63,1s0-.11.21-0.15A3.21,3.21,0,0,1,8.9.87,0.21,0.21,0,0,1,9.06,1s0,0,.12,0A1.1,1.1,0,0,0,9.81.83,1.65,1.65,0,0,0,10.18.54a0,0,0,0,1,.06,0,0,0,0,0,1,0,.05,1.76,1.76,0,0,1-.39.3,1.17,1.17,0,0,1-.68.16C9,1.05,9,1,9,1A0.15,0.15,0,0,0,8.88.94a3.17,3.17,0,0,0-1,0A0.17,0.17,0,0,0,7.71,1a0.26,0.26,0,0,0,.21.09l0.49,0,0.44,0a0.07,0.07,0,0,1,.07.06,0.44,0.44,0,0,1-.33.18l-0.72.24L7,1.83A0.52,0.52,0,0,0,6.62,2h0A0.66,0.66,0,0,0,7,2a3,3,0,0,1,.89.06A0.14,0.14,0,0,1,8,2.21a0.6,0.6,0,0,1-.47.2,1.36,1.36,0,0,1-.87-0.07l-0.08,0a1,1,0,0,0-.37-0.05H6.05a0.91,0.91,0,0,0-.6.23l-0.09.06-0.12.09a0,0,0,0,1,0,0l-0.09.26S5.06,3.45,5,3.74a1.59,1.59,0,0,0,.14,1.1c0.12,0.13.22,0.08,0.38,0l0.12-.08a0.84,0.84,0,0,1,.7.07,1.1,1.1,0,0,1,.32,1,0.48,0.48,0,0,1-.29.39A0.86,0.86,0,0,1,5.64,6.1L5.55,6a0.47,0.47,0,0,0-.47-0.15,0.36,0.36,0,0,0-.14.34l0.31,1.9c0,0.05.19,1.25,0.21,1.57a0.6,0.6,0,0,1-.18.59,0.5,0.5,0,0,1-.53-0.22A0.76,0.76,0,0,0,4.1,10a0.68,0.68,0,0,0-.23.88,0.66,0.66,0,0,0,.32.45,0.62,0.62,0,0,0,.44.06l0.15-.05a1.06,1.06,0,0,1,.44-0.09c0.19,0,.26.32,0.22,1a12,12,0,0,1-.19,1.34A0,0,0,0,1,5.22,13.54Z" transform="translate(0 -0.07)"/><path class="cls-4" d="M5.22,13.58h0l0,0a0.07,0.07,0,0,1,0-.05h0v0a11.43,11.43,0,0,0,.18-1.31c0-.78-0.09-0.85-0.13-0.86a1,1,0,0,0-.39.09h0l-0.12,0-0.17,0a0.74,0.74,0,0,1-.74-0.6,1,1,0,0,1,.06-0.8,0.42,0.42,0,0,1,.25-0.21,1.16,1.16,0,0,1,.28,0,0.7,0.7,0,0,1,.49.17,0.66,0.66,0,0,0,.34.22h0a0.53,0.53,0,0,0,.13-0.5c0-.31-0.2-1.52-0.21-1.56L4.83,6.24A0.46,0.46,0,0,1,5,5.79a0.36,0.36,0,0,1,.15,0,0.82,0.82,0,0,1,.43.2l0,0,0,0a0.84,0.84,0,0,0,.44.14,0.48,0.48,0,0,0,.18,0,0.37,0.37,0,0,0,.22-0.31,1,1,0,0,0-.28-0.93,0.65,0.65,0,0,0-.37-0.09,0.51,0.51,0,0,0-.21,0l-0.11.07a0.56,0.56,0,0,1-.3.13A0.3,0.3,0,0,1,5,4.9a1.07,1.07,0,0,1-.19-0.59,2,2,0,0,1,0-.61C5,3.43,5,2.92,5.05,2.92h0L5.12,2.7h0c0-.07,0-0.12.18-0.22l0.07,0h0a1,1,0,0,1,.67-0.25H6.19a1.11,1.11,0,0,1,.4.06l0.08,0a1.41,1.41,0,0,0,.5.1,1.22,1.22,0,0,0,.3,0l0.36-.11h0a1.68,1.68,0,0,0-.55-0.06H6.86a0.49,0.49,0,0,1-.31-0.07,0.12,0.12,0,0,1,0-.09c0-.12.17-0.21,0.51-0.27l0.83-.15,0.71-.23h0L8.7,1.28l-0.25,0H8.39l-0.48,0A0.3,0.3,0,0,1,7.6,1c0-.06,0-0.14.24-0.18a3.08,3.08,0,0,1,.55,0,2.39,2.39,0,0,1,.52,0,0.25,0.25,0,0,1,.18.11H9.18A1.08,1.08,0,0,0,9.8.8,1.67,1.67,0,0,0,10.15.53h0a0.08,0.08,0,0,1,.1,0,0.07,0.07,0,0,1,0,0,0.07,0.07,0,0,1,0,.05,1.79,1.79,0,0,1-.39.3,1.2,1.2,0,0,1-.69.17A0.21,0.21,0,0,1,9,1a0.13,0.13,0,0,0-.09,0,2.23,2.23,0,0,0-.48,0,3,3,0,0,0-.53,0,0.31,0.31,0,0,0-.11,0,0.38,0.38,0,0,0,.18.06l0.49,0h0l0.42,0A0.1,0.1,0,0,1,9,1.25c0,0.08-.1.12-0.35,0.22L7.9,1.7h0l-0.09,0L7,1.86A0.76,0.76,0,0,0,6.66,2a0.55,0.55,0,0,0,.2,0H7.28a1.64,1.64,0,0,1,.6.07L8,2.13H8v0a0.1,0.1,0,0,1,0,.08c0,0.09-.13.14-0.5,0.23a1.38,1.38,0,0,1-.34,0,1.52,1.52,0,0,1-.55-0.11l-0.08,0a1,1,0,0,0-.36,0H6a0.9,0.9,0,0,0-.55.23l0,0-0.06,0-0.1.07a0.07,0.07,0,0,1,0,0L5.19,3C5.18,3,5.08,3.51,5,3.74a1.57,1.57,0,0,0,.13,1.07,0.17,0.17,0,0,0,.12.07,0.45,0.45,0,0,0,.21-0.1h0L5.62,4.7a0.67,0.67,0,0,1,.28,0,0.77,0.77,0,0,1,.46.13,1.13,1.13,0,0,1,.33,1.06,0.51,0.51,0,0,1-.31.41,0.61,0.61,0,0,1-.23,0,1,1,0,0,1-.53-0.16l0,0,0,0A0.73,0.73,0,0,0,5.18,5.9l-0.09,0A0.33,0.33,0,0,0,5,6.22l0.31,1.9s0.19,1.24.21,1.57a0.63,0.63,0,0,1-.19.62,0.22,0.22,0,0,1-.12,0,0.77,0.77,0,0,1-.44-0.26A0.54,0.54,0,0,0,4.35,10a1,1,0,0,0-.25,0,0.29,0.29,0,0,0-.16.14,0.94,0.94,0,0,0,0,.7,0.6,0.6,0,0,0,.6.5l0.13,0,0.15,0h0a1.26,1.26,0,0,1,.4-0.1H5.23c0.21,0,.29.32,0.25,1a12.12,12.12,0,0,1-.19,1.35A0.07,0.07,0,0,1,5.22,13.58Zm0-2.33h0c0.16,0,.22.32,0.18,0.92a11.48,11.48,0,0,1-.18,1.32v0h0a12.07,12.07,0,0,0,.19-1.34c0-.62,0-0.92-0.2-0.93h0a1.21,1.21,0,0,0-.38.09h0l-0.15.05-0.15,0a0.66,0.66,0,0,1-.66-0.55,1,1,0,0,1,.05-0.74,0.35,0.35,0,0,1,.2-0.17,1.1,1.1,0,0,1,.26,0,0.6,0.6,0,0,1,.43.14,0.74,0.74,0,0,0,.4.24l0.09,0A0.58,0.58,0,0,0,5.43,9.7c0-.33-0.21-1.55-0.21-1.57L4.91,6.23h0a0.38,0.38,0,0,1,.15-0.38l0.12,0A0.75,0.75,0,0,1,5.56,6l0,0,0,0a0.93,0.93,0,0,0,.49.15,0.55,0.55,0,0,0,.2,0,0.45,0.45,0,0,0,.27-0.36,1.07,1.07,0,0,0-.31-1,0.7,0.7,0,0,0-.42-0.11,0.62,0.62,0,0,0-.25,0l-0.11.07h0a0.48,0.48,0,0,1-.25.11,0.23,0.23,0,0,1-.17-0.09,1,1,0,0,1-.17-0.53,1.92,1.92,0,0,1,0-.59C5,3.46,5.12,3,5.13,2.94h0l0.09-.26h0v0l0,0,0.13-.09,0.06,0,0,0a0.94,0.94,0,0,1,.62-0.24H6.19a1,1,0,0,1,.38.05l0.08,0a1.47,1.47,0,0,0,.53.11,1.31,1.31,0,0,0,.32,0,0.71,0.71,0,0,0,.45-0.18v0l0,0a1,1,0,0,1-.43.15,1.29,1.29,0,0,1-.32,0,1.46,1.46,0,0,1-.52-0.11l-0.08,0a1.05,1.05,0,0,0-.38-0.05H6a1,1,0,0,0-.6.24h0l-0.07,0a0.24,0.24,0,0,0-.16.14h0v0l-0.08.22S5,3.45,4.94,3.73A1.65,1.65,0,0,0,5.1,4.86,0.24,0.24,0,0,0,5.28,5a0.51,0.51,0,0,0,.26-0.11l0.11-.07a0.58,0.58,0,0,1,.24,0,0.71,0.71,0,0,1,.41.11,1.06,1.06,0,0,1,.31,1,0.43,0.43,0,0,1-.26.36,0.54,0.54,0,0,1-.2,0,0.91,0.91,0,0,1-.48-0.15l0,0,0,0h0a0.77,0.77,0,0,0-.39-0.19l-0.12,0a0.4,0.4,0,0,0-.16.39L5.2,8.14s0.19,1.25.21,1.56a0.58,0.58,0,0,1-.16.56c-0.1.06-.24,0-0.47-0.22a0.64,0.64,0,0,0-.44-0.15,1.1,1.1,0,0,0-.26,0,0.37,0.37,0,0,0-.21.18,1,1,0,0,0-.05.75,0.68,0.68,0,0,0,.67.56l0.15,0,0.11,0h0A1.18,1.18,0,0,1,5.18,11.24ZM7.27,2.08a1.79,1.79,0,0,1,.58.06l0.05,0h0l-0.06,0a1.63,1.63,0,0,0-.57-0.07H6.86a0.48,0.48,0,0,1-.26,0,0.05,0.05,0,0,1,0,0A0.52,0.52,0,0,1,7,1.8l0.75-.14,0.09,0h0l0.7-.23a0.84,0.84,0,0,0,.31-0.15l-0.06,0-0.25.1h0l-0.71.24h0L7,1.79C6.63,1.86,6.58,1.95,6.58,2a0.06,0.06,0,0,0,0,0,0.46,0.46,0,0,0,.26.05H7.27ZM8.39,0.85a3,3,0,0,0-.54,0A0.18,0.18,0,0,0,7.66,1a0.27,0.27,0,0,0,.25.14l0.48,0H8.46l0.36,0H8.89l0,0-0.4,0h0l-0.5,0A0.25,0.25,0,0,1,7.67,1s0-.07.17-0.1a3.07,3.07,0,0,1,.54,0,2.29,2.29,0,0,1,.49,0A0.18,0.18,0,0,1,9,1s0,0,.16,0A1.15,1.15,0,0,0,9.84.86,1.72,1.72,0,0,0,10.22.57h0a1.65,1.65,0,0,1-.37.29A1.13,1.13,0,0,1,9.18,1C9.07,1,9,1,9,1A0.18,0.18,0,0,0,8.89.9,2.33,2.33,0,0,0,8.39.85Z" transform="translate(0 -0.07)"/><path class="cls-4" d="M7.94,10.09h0a1.08,1.08,0,0,1-.74-0.4,0.88,0.88,0,0,1,0-1.05,0.36,0.36,0,0,0-.07-0.47,0.64,0.64,0,0,0-.37-0.1c-0.12,0-3,.07-3.24.06A0.68,0.68,0,0,1,3,7.76a0.29,0.29,0,0,1,.12-0.37,1.45,1.45,0,0,0,.16-0.2,0.79,0.79,0,0,0-.22-0.81,0.7,0.7,0,0,0-.58-0.23A0.73,0.73,0,0,0,2,6.53a0.74,0.74,0,0,0,.07.59l0,0.06a0.48,0.48,0,0,1,.08.48c-0.08.17-.12,0.17-0.31,0.15L1.7,7.8A13.33,13.33,0,0,1,.06,7.33a0,0,0,0,1,0,0,0,0,0,0,1,.05,0,13.66,13.66,0,0,0,1.62.46l0.18,0c0.17,0,.17,0,0.22-0.1A0.41,0.41,0,0,0,2,7.23l0-.07A0.81,0.81,0,0,1,1.92,6.5a0.81,0.81,0,0,1,.56-0.43,0.78,0.78,0,0,1,.65.26,0.83,0.83,0,0,1,.22.89,1.55,1.55,0,0,1-.17.21C3.07,7.56,3,7.62,3.08,7.72A0.6,0.6,0,0,0,3.56,8C3.78,8.05,6.77,8,6.8,8a0.72,0.72,0,0,1,.43.13,0.44,0.44,0,0,1,.07.57,0.8,0.8,0,0,0-.05,1,1,1,0,0,0,.68.38,0.36,0.36,0,0,0,.29-0.11,0.74,0.74,0,0,0,.14-0.85l0,0C8.18,8.78,8,8.53,8.22,8.36a0.87,0.87,0,0,1,.73,0L9,8.36c0.2,0,1.22.46,1.27,0.48h0a0.66,0.66,0,0,0,.18-0.12,2,2,0,0,0,.28-0.34,0.53,0.53,0,0,1,.29-0.28h0a0.21,0.21,0,0,1,.25.21,6.67,6.67,0,0,1-.08.82V9.21a0.42,0.42,0,0,0,.07.44h0c0.13,0,.22.08,0.36-0.23a1,1,0,0,0,.13-0.79l0-.08A0.9,0.9,0,0,1,11.64,8a0.83,0.83,0,0,1,.59-0.39l0.45-.1a2.1,2.1,0,0,0,.52-0.12A0.53,0.53,0,0,0,13.58,7a0.49,0.49,0,0,0,0-.28l0-.13a1.29,1.29,0,0,1,.1-0.9,0.56,0.56,0,0,1,.33-0.33,0.17,0.17,0,0,1,.14,0,0.77,0.77,0,0,1,.12.62,1.27,1.27,0,0,1-.08.41,0.3,0.3,0,0,0,0,.07l0,0.08a0.23,0.23,0,0,0,0,.21l0,0c0.08,0.05.12,0.09,0.25,0s0.44-.46.44-0.46l0.12-.13a0,0,0,0,1,.06,0,0,0,0,0,1,0,.05l-0.12.13s-0.28.32-.45,0.47a0.23,0.23,0,0,1-.35,0l0,0a0.26,0.26,0,0,1,0-.29l0-.07a0.45,0.45,0,0,1,0-.09A1.2,1.2,0,0,0,14.11,6,0.66,0.66,0,0,0,14,5.4a0.09,0.09,0,0,0-.08,0,0.5,0.5,0,0,0-.28.29,1.21,1.21,0,0,0-.1.85l0,0.13a0.56,0.56,0,0,1,0,.31,0.6,0.6,0,0,1-.43.44,2.15,2.15,0,0,1-.54.13h0l-0.44.1a0.77,0.77,0,0,0-.54.34,0.85,0.85,0,0,0,.11.55l0,0.08a1.06,1.06,0,0,1-.13.84c-0.16.35-.29,0.33-0.46,0.27h0a0.45,0.45,0,0,1-.12-0.52V9.12a7.69,7.69,0,0,0,.08-0.8,0.14,0.14,0,0,0-.17-0.14h0a0.67,0.67,0,0,0-.23.25,2,2,0,0,1-.3.36,0.31,0.31,0,0,1-.27.14l0,0C10.11,8.84,9.18,8.47,9,8.43l-0.07,0a0.82,0.82,0,0,0-.65,0c-0.15.13,0,.34,0.12,0.56L8.43,9a0.82,0.82,0,0,1-.15.94A0.44,0.44,0,0,1,7.94,10.09Z" transform="translate(0 -0.07)"/><path class="cls-4" d="M7.94,10.13h0a1.11,1.11,0,0,1-.76-0.42,0.91,0.91,0,0,1,0-1.09,0.33,0.33,0,0,0-.06-0.43A0.62,0.62,0,0,0,6.8,8.09s-2.61.06-3.16,0.06H3.56A0.71,0.71,0,0,1,3,7.77,0.32,0.32,0,0,1,3.1,7.37a1.42,1.42,0,0,0,.16-0.2A0.71,0.71,0,0,0,3,6.4a0.66,0.66,0,0,0-.51-0.22h0A0.7,0.7,0,0,0,2,6.54a0.7,0.7,0,0,0,.07.57l0,0v0a0.51,0.51,0,0,1,.09.51A0.22,0.22,0,0,1,2,7.86H1.84l-0.14,0A13.22,13.22,0,0,1,0,7.36l0,0a0.07,0.07,0,0,1,0-.05,0.07,0.07,0,0,1,.09,0,13.7,13.7,0,0,0,1.61.46l0.18,0H2s0,0,.09-0.09A0.39,0.39,0,0,0,2,7.24H2l0-.05a0.84,0.84,0,0,1-.07-0.68A0.83,0.83,0,0,1,2.48,6H2.53a0.8,0.8,0,0,1,.62.27,0.86,0.86,0,0,1,.22.93,1.49,1.49,0,0,1-.16.2h0c-0.11.12-.15,0.17-0.1,0.25A0.57,0.57,0,0,0,3.56,8H3.63L6.52,8H6.8a0.73,0.73,0,0,1,.45.14,0.47,0.47,0,0,1,.08.61,0.77,0.77,0,0,0-.05.92,1,1,0,0,0,.66.36h0a0.33,0.33,0,0,0,.25-0.1,0.71,0.71,0,0,0,.14-0.81l0,0C8.16,8.8,8,8.52,8.2,8.33a0.46,0.46,0,0,1,.31-0.1,1.85,1.85,0,0,1,.44.07H9L9,8.33c0.21,0,1.26.47,1.27,0.48h0a0.84,0.84,0,0,0,.15-0.11,2,2,0,0,0,.28-0.34,0.53,0.53,0,0,1,.32-0.29,0.25,0.25,0,0,1,.28.24,5.58,5.58,0,0,1-.08.83V9.21a0.43,0.43,0,0,0,0,.4h0l0.11,0s0.11,0,.21-0.24a1,1,0,0,0,.13-0.76l0-.08a0.91,0.91,0,0,1-.11-0.62,0.85,0.85,0,0,1,.61-0.41l0.44-.1h0a2.07,2.07,0,0,0,.51-0.12,0.5,0.5,0,0,0,.36-0.36,0.46,0.46,0,0,0,0-.26h0l0-.13a1.32,1.32,0,0,1,.1-0.93,0.58,0.58,0,0,1,.36-0.35h0a0.19,0.19,0,0,1,.12,0,0.83,0.83,0,0,1,.13.65,1.3,1.3,0,0,1-.08.41h0a0.24,0.24,0,0,0,0,.06l0,0.08a0.26,0.26,0,0,0,0,.18l0,0a0.17,0.17,0,0,0,.09,0,0.22,0.22,0,0,0,.12-0.07,5.58,5.58,0,0,0,.43-0.44v0h0l0.12-.13a0.07,0.07,0,0,1,.1,0,0.07,0.07,0,0,1,0,.1l-0.12.13s-0.28.31-.45,0.47a0.35,0.35,0,0,1-.22.11A0.29,0.29,0,0,1,14,6.83l0,0a0.29,0.29,0,0,1,0-.33l0-.07a0.48,0.48,0,0,1,0-.09A1.18,1.18,0,0,0,14.07,6,0.65,0.65,0,0,0,14,5.42h0a0.47,0.47,0,0,0-.26.28,1.18,1.18,0,0,0-.09.83l0,0.11h0a0.59,0.59,0,0,1,0,.33,0.63,0.63,0,0,1-.45.47,2.19,2.19,0,0,1-.55.13l-0.44.1a0.74,0.74,0,0,0-.52.32,0.83,0.83,0,0,0,.11.52l0,0.08a1.08,1.08,0,0,1-.13.87,0.41,0.41,0,0,1-.34.33,0.5,0.5,0,0,1-.16,0h0A0.47,0.47,0,0,1,11.1,9.2l0-.15a6.66,6.66,0,0,0,.07-0.72,0.11,0.11,0,0,0-.14-0.11,0.87,0.87,0,0,0-.19.23v0a2,2,0,0,1-.3.35,0.46,0.46,0,0,1-.26.15h0l0,0C10,8.82,9.16,8.5,9,8.46H8.92a1.75,1.75,0,0,0-.4-0.07,0.33,0.33,0,0,0-.22.06c-0.13.11,0,.3,0.13,0.51L8.45,9a0.85,0.85,0,0,1-.16,1A0.47,0.47,0,0,1,7.94,10.13ZM6.8,8a0.69,0.69,0,0,1,.39.11,0.39,0.39,0,0,1,.07.52,0.85,0.85,0,0,0,0,1,1,1,0,0,0,.71.39h0a0.41,0.41,0,0,0,.31-0.13A0.78,0.78,0,0,0,8.4,9l0-.05c-0.14-.22-0.28-0.45-0.11-0.6a0.38,0.38,0,0,1,.26-0.08,1.8,1.8,0,0,1,.42.07H9c0.17,0,1,.37,1.24.47h0a0.38,0.38,0,0,0,.23-0.13,1.92,1.92,0,0,0,.29-0.34v0a0.53,0.53,0,0,1,.25-0.25,0.17,0.17,0,0,1,.2.17,6,6,0,0,1-.07.74l0,0.15a0.43,0.43,0,0,0,.1.48h0a0.45,0.45,0,0,0,.14,0,0.34,0.34,0,0,0,.28-0.29,1,1,0,0,0,.13-0.82l0-.08A0.87,0.87,0,0,1,11.68,8a0.79,0.79,0,0,1,.56-0.36l0.44-.1h0a2.11,2.11,0,0,0,.53-0.13A0.57,0.57,0,0,0,13.63,7a0.52,0.52,0,0,0,0-.3h0l0-.12a1.25,1.25,0,0,1,.1-0.88,0.52,0.52,0,0,1,.3-0.31,0.12,0.12,0,0,1,.1,0,0.68,0.68,0,0,1,.1.59,1.23,1.23,0,0,1-.08.39h0a0.43,0.43,0,0,0,0,.08l0,0.07a0.23,0.23,0,0,0,0,.26l0,0a0.24,0.24,0,0,0,.14.06,0.29,0.29,0,0,0,.18-0.09c0.17-.15.44-0.46,0.45-0.46l0.12-.13h0l-0.12.13h0a5.64,5.64,0,0,1-.43.45,0.27,0.27,0,0,1-.17.09,0.22,0.22,0,0,1-.13-0.06l0,0a0.24,0.24,0,0,1,0-.25l0-.07a0.28,0.28,0,0,1,0-.07h0A1.25,1.25,0,0,0,14.15,6,0.76,0.76,0,0,0,14,5.36a0.14,0.14,0,0,0-.11,0,0.53,0.53,0,0,0-.31.32,1.25,1.25,0,0,0-.1.88l0,0.12h0a0.52,0.52,0,0,1,0,.3,0.56,0.56,0,0,1-.4.41,2.13,2.13,0,0,1-.53.12h0l-0.43.1a0.82,0.82,0,0,0-.57.37,0.87,0.87,0,0,0,.11.57l0,0.08a1,1,0,0,1-.13.81,0.35,0.35,0,0,1-.27.28,0.4,0.4,0,0,1-.13,0h0a0.42,0.42,0,0,1-.09-0.47V9.12a5.76,5.76,0,0,0,.08-0.81,0.18,0.18,0,0,0-.22-0.18,0.56,0.56,0,0,0-.27.27,2,2,0,0,1-.29.35,0.74,0.74,0,0,1-.19.13h0c-0.1,0-1.08-.43-1.26-0.47l-0.07,0h0A1.8,1.8,0,0,0,8.51,8.3a0.4,0.4,0,0,0-.27.08c-0.18.15,0,.39,0.11,0.61L8.39,9a0.78,0.78,0,0,1-.15.89,0.39,0.39,0,0,1-.31.12,1,1,0,0,1-.7-0.39,0.84,0.84,0,0,1,0-1A0.4,0.4,0,0,0,7.2,8.14,0.66,0.66,0,0,0,6.8,8H6.52l-2.89.05H3.56a0.64,0.64,0,0,1-.51-0.34c-0.07-.12,0-0.21.11-0.32h0a1.43,1.43,0,0,0,.16-0.2,0.8,0.8,0,0,0-.22-0.86A0.73,0.73,0,0,0,2.53,6.1h0A0.78,0.78,0,0,0,2,6.52,0.78,0.78,0,0,0,2,7.14l0,0.05h0a0.44,0.44,0,0,1,.08.44A0.15,0.15,0,0,1,2,7.78H1.88l-0.17,0A13.45,13.45,0,0,1,.07,7.29h0a13.59,13.59,0,0,0,1.63.46l0.14,0H2c0.07,0,.1,0,0.16-0.14a0.45,0.45,0,0,0-.08-0.45v0l0,0A0.77,0.77,0,0,1,2,6.52a0.75,0.75,0,0,1,.52-0.4h0a0.72,0.72,0,0,1,.56.25,0.82,0.82,0,0,1,.22.85,1.47,1.47,0,0,1-.17.21C3,7.54,3,7.62,3,7.74a0.65,0.65,0,0,0,.52.34H3.64Z" transform="translate(0 -0.07)"/><path class="cls-4" d="M12.64,12.86a0,0,0,0,1,0,0c0-.05-0.13-1.32-0.11-1.69,0-.05,0-0.1,0-0.15,0-.28,0-0.41.13-0.43a0.23,0.23,0,0,1,.16,0,0.12,0.12,0,0,0,.09,0,0.4,0.4,0,0,0,.27-0.31,1.38,1.38,0,0,0,.12-0.7,0.43,0.43,0,0,0-.18-0.44H13a0.45,0.45,0,0,0-.15.26v0a0.29,0.29,0,0,1-.15.25,0.19,0.19,0,0,1-.16,0,0.21,0.21,0,0,1-.06-0.2c0-.18.1-2,0.1-2l0.15-1.87a0.74,0.74,0,0,0,0-.26,0.09,0.09,0,0,0-.11.06,0.44,0.44,0,0,1-.29.32,0.24,0.24,0,0,1-.17-0.06A0.64,0.64,0,0,1,12,5.21a1,1,0,0,1,.21-0.74,0.35,0.35,0,0,1,.4-0.1,0.05,0.05,0,0,0,0,0,0.32,0.32,0,0,0,.07-0.18c0-.14,0-1.3,0-1.65S12.57,2.2,12.52,2.2L12,2.16l-1.14-.08H10.75a0.2,0.2,0,0,1-.16,0,0.08,0.08,0,0,1,0-.08,0.3,0.3,0,0,1,.33-0.12,0.49,0.49,0,0,0,.35-0.07,0,0,0,0,0,0,0,0.72,0.72,0,0,0-.33-0.06,5.49,5.49,0,0,0-.95,0,0.13,0.13,0,0,0-.09.08h0a0.13,0.13,0,0,1,.08.12,0.1,0.1,0,0,1-.12,0H9.75a10.46,10.46,0,0,1-1.2-.12l-0.7-.12C7.48,1.63,7.13,1.57,7,1.53a5.79,5.79,0,0,0-1-.13H5.83c-0.12,0-.14,0-0.15,0a0.2,0.2,0,0,0,0,0c0,0.09,0,.17-0.34.21a1.77,1.77,0,0,1-1.2-.13,0.11,0.11,0,0,1,0-.11,0.38,0.38,0,0,1,.3-0.07,0.68,0.68,0,0,0,.25,0l0.06,0,0,0-0.14,0c-0.31,0-1.33-.12-1.47-0.13H2.86a0,0,0,0,1,0,0,0,0,0,0,1,0,0h0.3c0.15,0,1.17.08,1.48,0.13s0.22,0,.23.09,0,0.06-.09.1l-0.06,0a0.67,0.67,0,0,1-.29,0,0.5,0.5,0,0,0-.24,0,0,0,0,0,0,0,0,1.66,1.66,0,0,0,1.12.09c0.27,0,.28-0.09.28-0.14a0.22,0.22,0,0,1,0-.05c0-.09.11-0.09,0.23-0.09H5.94A5.78,5.78,0,0,1,7,1.46c0.14,0,.51.1,0.86,0.15l0.7,0.12a10.29,10.29,0,0,0,1.19.12H9.89l0,0a0.08,0.08,0,0,1,0-.08A0.2,0.2,0,0,1,10,1.59a5.54,5.54,0,0,1,1,0,0.57,0.57,0,0,1,.39.09,0.11,0.11,0,0,1,0,.09,0.41,0.41,0,0,1-.42.13c-0.18,0-.22,0-0.26.07h0.19L12,2.09l0.54,0c0.1,0,.21.07,0.24,0.41a16.26,16.26,0,0,1,0,1.67,0.31,0.31,0,0,1-.11.23,0.14,0.14,0,0,1-.12,0,0.27,0.27,0,0,0-.31.09,1,1,0,0,0-.19.69,0.58,0.58,0,0,0,.13.43,0.15,0.15,0,0,0,.11,0,0.38,0.38,0,0,0,.22-0.26,0.17,0.17,0,0,1,.2-0.11s0.09,0,.08.34L12.67,7.51c0,0.07-.08,1.84-0.1,2a0.15,0.15,0,0,0,0,.13,0.11,0.11,0,0,0,.09,0,0.28,0.28,0,0,0,.09-0.2v0A0.51,0.51,0,0,1,13,9.13a0.17,0.17,0,0,1,.13,0,0.49,0.49,0,0,1,.24.5,1.45,1.45,0,0,1-.12.73,0.49,0.49,0,0,1-.32.35,0.19,0.19,0,0,1-.16,0,0.16,0.16,0,0,0-.1,0,0.48,0.48,0,0,0-.07.36v0.15c0,0.36.11,1.66,0.11,1.68a0,0,0,0,1,0,0h0Z" transform="translate(0 -0.07)"/><path class="cls-4" d="M12.65,12.89h0a0.07,0.07,0,0,1-.07-0.06c0-.05-0.13-1.33-0.11-1.69,0,0,0-.08,0-0.12v0c0-.29,0-0.43.16-0.46h0a0.29,0.29,0,0,1,.14,0,0.12,0.12,0,0,0,.07,0,0.37,0.37,0,0,0,.25-0.29,1.36,1.36,0,0,0,.11-0.68,0.41,0.41,0,0,0-.15-0.41h0a0.42,0.42,0,0,0-.14.24v0a0.31,0.31,0,0,1-.17.28,0.22,0.22,0,0,1-.19,0,0.24,0.24,0,0,1-.07-0.23c0-.1,0-0.74.09-1.91V7.51l0.15-1.87a1,1,0,0,0,0-.23,0.05,0.05,0,0,0-.05,0,0.47,0.47,0,0,1-.32.34h0a0.27,0.27,0,0,1-.18-0.07A0.67,0.67,0,0,1,12,5.21a1,1,0,0,1,.22-0.76,0.38,0.38,0,0,1,.43-0.11h0a0.23,0.23,0,0,0,.06-0.15c0-.14,0-1.3,0-1.65s-0.1-.31-0.14-0.31l-0.33,0H12l-1.15-.08H10.75A0.22,0.22,0,0,1,10.56,2a0.11,0.11,0,0,1,0-.11,0.33,0.33,0,0,1,.36-0.13,0.39,0.39,0,0,0,.31,0h0a0.68,0.68,0,0,0-.31,0l-0.63,0a1.28,1.28,0,0,0-.3,0,0.12,0.12,0,0,0-.07,0,0.14,0.14,0,0,1,.07.15A0.12,0.12,0,0,1,9.87,2H9.75a10.43,10.43,0,0,1-1.2-.12l-0.7-.12C7.48,1.66,7.13,1.6,7,1.56a6,6,0,0,0-1-.13H5.71v0c0,0.12-.06.2-0.37,0.24a4.83,4.83,0,0,1-.57,0A0.79,0.79,0,0,1,4.1,1.57a0.14,0.14,0,0,1,0-.14,0.38,0.38,0,0,1,.32-0.09h0a0.72,0.72,0,0,0,.23,0h0c-0.3,0-1.3-.12-1.47-0.13H2.85a0.07,0.07,0,0,1-.07-0.06,0.07,0.07,0,0,1,0,0L2.85,1H3.15c0.15,0,1.17.08,1.49,0.13,0.17,0,.24,0,0.26.11a0.14,0.14,0,0,1-.11.13h0l0,0a0.68,0.68,0,0,1-.3,0l-0.2,0h0a0.77,0.77,0,0,0,.54.12,4.52,4.52,0,0,0,.55,0c0.25,0,.25-0.07.25-0.11a0.25,0.25,0,0,1,0-.06A0.21,0.21,0,0,1,5.83,1.3H6a6.1,6.1,0,0,1,1,.13c0.14,0,.52.1,0.85,0.15H7.93L8.57,1.7a10.43,10.43,0,0,0,1.18.12h0a0.12,0.12,0,0,1,0-.08,0.23,0.23,0,0,1,.17-0.17,1.41,1.41,0,0,1,.35,0l0.64,0a0.56,0.56,0,0,1,.41.1,0.14,0.14,0,0,1,0,.12,0.42,0.42,0,0,1-.45.16,0.33,0.33,0,0,0-.21,0h0.15L11.76,2H12l0.54,0c0.16,0,.24.15,0.27,0.44a16.31,16.31,0,0,1,0,1.68,0.33,0.33,0,0,1-.13.25,0.17,0.17,0,0,1-.15,0,0.24,0.24,0,0,0-.28.08,0.93,0.93,0,0,0-.18.67,0.56,0.56,0,0,0,.12.4,0.12,0.12,0,0,0,.09,0,0.36,0.36,0,0,0,.19-0.24,0.19,0.19,0,0,1,.2-0.14h0c0.06,0,.12.06,0.11,0.37L12.7,7.52c0,0.08-.08,1.84-0.1,2a0.12,0.12,0,0,0,0,.1h0.06a0.36,0.36,0,0,0,.07-0.17v0A0.54,0.54,0,0,1,13,9.1a0.21,0.21,0,0,1,.16,0,0.51,0.51,0,0,1,.26.53,1.48,1.48,0,0,1-.12.75,0.52,0.52,0,0,1-.34.37H12.87a0.27,0.27,0,0,1-.13,0h0a0.13,0.13,0,0,0-.08,0,0.83,0.83,0,0,0,0,.33v0.15c0,0.3.07,1.25,0.1,1.65v0a0.07,0.07,0,0,1,0,0l0,0h0Zm0-2.31h0c-0.09,0-.09.12-0.11,0.4v0s0,0.08,0,.12c0,0.36.1,1.63,0.11,1.68h0v0c0-.4-0.12-1.36-0.1-1.66V11c0-.25,0-0.37.1-0.39a0.18,0.18,0,0,1,.12,0h0a0.17,0.17,0,0,0,.13,0,0.46,0.46,0,0,0,.3-0.33,1.42,1.42,0,0,0,.12-0.72,0.47,0.47,0,0,0-.21-0.47,0.14,0.14,0,0,0-.11,0,0.48,0.48,0,0,0-.18.29v0a0.27,0.27,0,0,1-.11.22h0a0.12,0.12,0,0,1-.08,0,0.17,0.17,0,0,1,0-.16c0-.18.1-1.93,0.1-2l0.15-1.87a0.37,0.37,0,0,0-.05-0.3,0.14,0.14,0,0,0-.17.09,0.4,0.4,0,0,1-.25.29h0a0.18,0.18,0,0,1-.12-0.05A0.61,0.61,0,0,1,12,5.21a1,1,0,0,1,.2-0.71,0.35,0.35,0,0,1,.24-0.12l0.11,0a0.11,0.11,0,0,0,.09,0,0.29,0.29,0,0,0,.1-0.21,16.23,16.23,0,0,0,0-1.67c0-.36-0.15-0.37-0.21-0.38L12,2.12H11.76L10.85,2H10.63V2c0-.09.11-0.09,0.29-0.09a0.41,0.41,0,0,0,.39-0.11,0.08,0.08,0,0,0,0-.07,0.58,0.58,0,0,0-.37-0.08l-0.64,0a1.31,1.31,0,0,0-.33,0,0.17,0.17,0,0,0-.12.12,0,0,0,0,0,0,0l0,0,0,0h0a0.1,0.1,0,0,0-.06-0.09,0,0,0,0,1,0,0A0.16,0.16,0,0,1,10,1.63a1.42,1.42,0,0,1,.32,0l0.64,0a0.6,0.6,0,0,1,.36.07,0.07,0.07,0,0,1,0,.06,0.4,0.4,0,0,1-.38.1c-0.18,0-.25,0-0.3.1a0,0,0,0,0,0,0,0.19,0.19,0,0,0,.14,0h0.09L12,2.13h0.21l0.33,0c0.09,0,.17.06,0.2,0.37a16.44,16.44,0,0,1,0,1.66,0.3,0.3,0,0,1-.09.2H12.59a0.32,0.32,0,0,0-.36.1,1,1,0,0,0-.2.72,0.61,0.61,0,0,0,.15.46,0.2,0.2,0,0,0,.15.06,0.42,0.42,0,0,0,.26-0.3,0.11,0.11,0,0,1,.12-0.08h0a0.75,0.75,0,0,1,0,.28L12.62,7.51V7.6c-0.05,1.17-.08,1.82-0.09,1.92a0.18,0.18,0,0,0,0,.17,0.16,0.16,0,0,0,.13,0,0.26,0.26,0,0,0,.12-0.23v0A0.47,0.47,0,0,1,13,9.17a0.13,0.13,0,0,1,.1,0,0.44,0.44,0,0,1,.2.46,1.41,1.41,0,0,1-.12.71,0.43,0.43,0,0,1-.29.33,0.16,0.16,0,0,1-.12,0A0.24,0.24,0,0,0,12.66,10.59ZM6,1.37A6.13,6.13,0,0,1,7,1.5c0.15,0,.51.1,0.86,0.15l0.7,0.12a10.38,10.38,0,0,0,1.19.12H9.87a0.09,0.09,0,0,0,.06,0H9.75a10,10,0,0,1-1.19-.12L7.92,1.65H7.86C7.53,1.59,7.15,1.53,7,1.49a6,6,0,0,0-1-.13H5.83c-0.13,0-.18,0-0.19.07a0.19,0.19,0,0,0,0,0c0,0.09-.05.14-0.31,0.17a4.58,4.58,0,0,1-.56,0,0.75,0.75,0,0,1-.6-0.15,0.07,0.07,0,0,1,0-.07,0.34,0.34,0,0,1,.26-0.05,0.67,0.67,0,0,0,.27,0l0,0h0l0.08-.05-0.05,0h0l-0.06,0a0.65,0.65,0,0,1-.26,0h0a0.38,0.38,0,0,0-.27.06,0.08,0.08,0,0,0,0,.08,0.77,0.77,0,0,0,.61.15,4.79,4.79,0,0,0,.56,0c0.31,0,.32-0.11.32-0.18h0a0.2,0.2,0,0,1,0,0c0-.05.07-0.06,0.18-0.06H6ZM3,1.08H3.15c0.13,0,1.16.08,1.48,0.13l0.14,0,0.06,0a0.39,0.39,0,0,0-.2-0.06c-0.3,0-1.31-.12-1.48-0.13H3Z" transform="translate(0 -0.07)"/><path class="cls-2" d="M18,6.46h1.08L21,11H20l-0.41-1H17.6l-0.42,1h-1Zm0.53,0.92h0L17.87,9.26h1.4Z" transform="translate(0 -0.07)"/><path class="cls-2" d="M21.63,6.46h1.31a3.65,3.65,0,0,1,1.94.46,1.74,1.74,0,0,1,.61.69,2.55,2.55,0,0,1,.22,1.13,2.48,2.48,0,0,1-.22,1.11,1.78,1.78,0,0,1-.61.71,2.51,2.51,0,0,1-.88.36,5.09,5.09,0,0,1-1.06.1H21.63V6.46Zm1,3.85h0.54a1.6,1.6,0,0,0,1.1-.41,1.48,1.48,0,0,0,.48-1.15,1.49,1.49,0,0,0-.48-1.16,1.62,1.62,0,0,0-1.1-.41H22.59v3.13Z" transform="translate(0 -0.07)"/><path class="cls-2" d="M26.59,6.46H27.9a3.65,3.65,0,0,1,1.94.46,1.74,1.74,0,0,1,.61.69,2.55,2.55,0,0,1,.22,1.13,2.48,2.48,0,0,1-.22,1.11,1.78,1.78,0,0,1-.61.71,2.51,2.51,0,0,1-.88.36,5.1,5.1,0,0,1-1.06.1H26.59V6.46Zm1,3.85h0.54a1.6,1.6,0,0,0,1.1-.41,1.48,1.48,0,0,0,.48-1.15,1.49,1.49,0,0,0-.48-1.16,1.62,1.62,0,0,0-1.1-.41H27.55v3.13Z" transform="translate(0 -0.07)"/><path class="cls-2" d="M31.31,8.73a2.37,2.37,0,0,1,.6-1.7,2.28,2.28,0,0,1,1.74-.65A2.32,2.32,0,0,1,35.4,7a2.36,2.36,0,0,1,.6,1.7,2.45,2.45,0,0,1-.6,1.7,2.29,2.29,0,0,1-1.75.67,2.27,2.27,0,0,1-1.74-.67A2.39,2.39,0,0,1,31.31,8.73Zm1,0a2,2,0,0,0,.31,1.13,1.15,1.15,0,0,0,1,.52,1.3,1.3,0,0,0,.63-0.14,1.13,1.13,0,0,0,.41-0.38A2.12,2.12,0,0,0,35,8.73a2,2,0,0,0-.31-1.12,1.17,1.17,0,0,0-1-.51,1.15,1.15,0,0,0-1,.51A2,2,0,0,0,32.31,8.73Z" transform="translate(0 -0.07)"/><path class="cls-2" d="M36.83,6.46H38l1.83,3.42h0V6.46h0.92V11H39.6L37.77,7.62h0V11H36.83V6.46Z" transform="translate(0 -0.07)"/><path class="cls-5" d="M41.87,6.46h1.18a1.25,1.25,0,0,1,1.48,1.3,1.15,1.15,0,0,1-.44,1A1.71,1.71,0,0,1,43,9.06H42.34v2H41.87V6.46Zm0.47,2.2h0.33a4,4,0,0,0,.52,0,1.55,1.55,0,0,0,.45-0.11,0.68,0.68,0,0,0,.31-0.28,0.94,0.94,0,0,0,.11-0.48,0.83,0.83,0,0,0-.95-0.9H42.34V8.66Z" transform="translate(0 -0.07)"/><path class="cls-5" d="M46.26,6.46h0.54L48.69,11H48.2L47.68,9.81H45.28L44.77,11H44.29Zm-0.8,3h2.07l-1-2.52Z" transform="translate(0 -0.07)"/><path class="cls-5" d="M50.06,9.09L48.28,6.46h0.55L50.29,8.7l1.5-2.23h0.51L50.53,9.09V11H50.06V9.09Z" transform="translate(0 -0.07)"/><path class="cls-5" d="M53,6.46h0.73l1.75,4,1.76-4H57.9V11H57.43V6.91h0L55.67,11h-0.4l-1.8-4.12h0V11H53V6.46Z" transform="translate(0 -0.07)"/><path class="cls-5" d="M59.08,6.46h2.35V6.86H59.56V8.49h1.78V8.88H59.56v1.76h2V11H59.08V6.46Z" transform="translate(0 -0.07)"/><path class="cls-5" d="M62.45,6.46H63l2.44,4h0v-4H66V11H65.33l-2.4-3.94h0V11H62.45V6.46Z" transform="translate(0 -0.07)"/><path class="cls-5" d="M68,6.86H66.57V6.46h3.3V6.86H68.46V11H68V6.86Z" transform="translate(0 -0.07)"/><path class="cls-5" d="M70.39,10.45a1.88,1.88,0,0,0,1.06.27,1.25,1.25,0,0,0,.77-0.23,0.85,0.85,0,0,0,.31-0.71,0.69,0.69,0,0,0-.34-0.56A2.39,2.39,0,0,0,71.83,9l-0.41-.21L71,8.55a2.14,2.14,0,0,1-.36-0.26,0.91,0.91,0,0,1-.34-0.71,1,1,0,0,1,.45-0.88,1.82,1.82,0,0,1,1.07-.31l0.44,0a2.87,2.87,0,0,1,.5.12l-0.08.41a2,2,0,0,0-.87-0.17,2,2,0,0,0-.36,0,1.07,1.07,0,0,0-.34.14,0.67,0.67,0,0,0-.34.62,0.51,0.51,0,0,0,.1.3,1,1,0,0,0,.25.24,2.73,2.73,0,0,0,.36.21l0.4,0.22a2.78,2.78,0,0,1,.75.5,1.13,1.13,0,0,1,.25.34,1.08,1.08,0,0,1,.09.45,1.11,1.11,0,0,1-.5,1,2,2,0,0,1-1.07.3,2.56,2.56,0,0,1-1.08-.21Z" transform="translate(0 -0.07)"/></svg>