<svg width="171" height="21" viewBox="0 0 171 21" fill="none" xmlns="http://www.w3.org/2000/svg">
<path d="M26.6566 0.0432632L22.2871 8.73916L21.3087 7.12112C20.1065 7.7095 18.1 8.51419 15.538 8.89491V20.9999H9.73404V8.89491C3.82232 8.00368 0.165827 4.69838 0 4.54263L3.83889 0C3.83889 0 6.81547 2.6131 11.4752 3.00246C14.4103 3.24474 16.7982 2.52657 18.1746 1.94684L17.2626 0.441284L26.6566 0.0432632Z" fill="#56FF9B"/>
<path d="M33.1641 6.88727H39.2333V20.9997H42.5747V6.88727H48.644V3.83289H33.1641V6.88727Z" fill="black"/>
<path d="M67.0651 13.2816C67.3719 12.797 67.5958 12.2692 67.745 11.6981C67.8942 11.1271 67.9689 10.5214 67.9689 9.88108C67.9689 8.93794 67.8196 8.08998 67.5211 7.34585C67.2226 6.60173 66.7666 5.96143 66.1614 5.44228C65.5561 4.92312 64.785 4.5251 63.8564 4.24821C62.9277 3.97133 61.8333 3.83289 60.573 3.83289H52.207V20.9997H55.5402V16.111H60.5896L60.6808 16.1196L63.7734 20.9997H67.8611L64.2792 15.5053C64.9011 15.2544 65.4483 14.9429 65.9126 14.5622C66.3769 14.1814 66.7583 13.7575 67.0651 13.2729V13.2816ZM64.2129 11.2049C64.0554 11.603 63.8149 11.9404 63.4998 12.2173C63.1847 12.4942 62.7868 12.7105 62.3142 12.8662C61.8416 13.022 61.286 13.0999 60.6559 13.0999H55.5402V6.86131H60.6559C61.9245 6.86131 62.878 7.12089 63.5081 7.6487C64.1383 8.17651 64.4533 8.91198 64.4533 9.87242C64.4533 10.3656 64.3704 10.8069 64.2129 11.2049Z" fill="black"/>
<path d="M77.5322 3.83289L69.8047 20.9997H73.3202L74.5971 18.1097H84.2067L85.525 20.9997H89.0323L81.0726 3.83289H77.5322ZM75.8656 15.2457L79.3314 7.44969L82.8884 15.2457H75.8656Z" fill="black"/>
<path d="M105.148 11.1617L94.8917 3.83289H91.5586V20.9997H94.8917V7.55352L105.148 14.8563V20.9997H108.481V3.83289H105.148V11.1617Z" fill="black"/>
<path d="M112.488 6.79209H121.542L119.967 8.80815L112.488 18.8019V20.9997H126.409V18.0319H116.908L118.549 15.9033L126.409 5.58937V3.83289H112.488V6.79209Z" fill="black"/>
<path d="M133.682 3.83289H130.324V20.9997H133.682V3.83289Z" fill="black"/>
<path d="M137.586 20.9997H140.927V14.242H150.587V11.378H140.927V6.88727H152.303V3.83289H137.586V20.9997Z" fill="black"/>
<path d="M167.218 3.83289L162.218 13.5931L157.152 3.83289H153.371L160.568 16.7513V20.9997H163.901V16.7253L170.998 3.83289H167.218Z" fill="black"/>
</svg>
