<svg width="129" height="32" viewBox="0 0 129 32" fill="none" xmlns="http://www.w3.org/2000/svg">
<g clip-path="url(#clip0_3_5465)">
<path d="M32.7734 11.9257V8.35771H43.8646V11.9257H32.7734ZM35.2406 23.9993V7.64091C35.2406 5.83611 35.775 4.39611 36.847 3.31451C37.919 2.23291 39.4454 1.69531 41.4262 1.69531C42.1014 1.69531 42.751 1.76571 43.375 1.90331C43.999 2.04091 44.5302 2.26171 44.9654 2.55931L43.7462 5.91931C43.487 5.74011 43.199 5.60251 42.8822 5.50331C42.5654 5.40411 42.2294 5.35291 41.871 5.35291C41.1958 5.35291 40.6774 5.54491 40.3094 5.93211C39.9414 6.31931 39.759 6.89851 39.759 7.67291V9.16091L39.8774 11.1545V23.9993H35.2406Z" fill="white"/>
<path d="M65.1037 7.76562C66.3709 7.76562 67.5069 8.01842 68.5085 8.52402C69.5101 9.02962 70.2973 9.80403 70.8733 10.844C71.4493 11.884 71.7373 13.2184 71.7373 14.844V24.0024H67.0973V15.5576C67.0973 14.268 66.8157 13.3176 66.2493 12.7032C65.6829 12.0888 64.8861 11.7816 63.8557 11.7816C63.1229 11.7816 62.4637 11.9352 61.8781 12.2424C61.2925 12.5496 60.8381 13.02 60.5085 13.6536C60.1821 14.2872 60.0189 15.1 60.0189 16.092V24.0024H55.3789V8.00242H59.8109V12.4344L58.9789 11.0968C59.5549 10.0248 60.3773 9.20242 61.4461 8.62962C62.5181 8.05362 63.7373 7.76562 65.1037 7.76562Z" fill="white"/>
<path d="M77.404 5.77276C76.5528 5.77276 75.8584 5.52636 75.3208 5.03036C74.7864 4.53436 74.5176 3.91996 74.5176 3.18716C74.5176 2.45436 74.7864 1.83996 75.3208 1.34396C75.8552 0.847963 76.5496 0.601562 77.404 0.601562C78.2552 0.601562 78.9496 0.835163 79.4872 1.29916C80.0216 1.76636 80.2904 2.36476 80.2904 3.09756C80.2904 3.87196 80.028 4.50876 79.5032 5.01436C78.9752 5.51996 78.2776 5.77276 77.404 5.77276ZM75.084 24.0032V8.00316H79.724V24.0032H75.084Z" fill="white"/>
<path d="M90.6426 24.2346C89.1354 24.2346 87.7786 23.8986 86.569 23.2234C85.3594 22.5482 84.4026 21.5978 83.6986 20.369C82.9946 19.1402 82.6426 17.681 82.6426 15.9978C82.6426 14.3338 82.9946 12.8842 83.6986 11.6554C84.4026 10.4266 85.3594 9.46981 86.569 8.78501C87.7786 8.10021 89.1354 7.75781 90.6426 7.75781C92.0506 7.75781 93.2538 8.05541 94.2554 8.65061C95.257 9.24581 96.025 10.1482 96.5594 11.3578C97.0938 12.5674 97.3626 14.113 97.3626 15.9978C97.3626 17.8602 97.0842 19.4026 96.5306 20.6218C95.9738 21.841 95.193 22.7466 94.1818 23.3418C93.1706 23.937 91.9898 24.2346 90.6426 24.2346ZM91.4458 20.4298C92.1978 20.4298 92.8826 20.2506 93.497 19.8954C94.1114 19.537 94.601 19.0282 94.969 18.3626C95.337 17.7002 95.5194 16.9098 95.5194 15.9978C95.5194 15.0666 95.337 14.273 94.969 13.617C94.601 12.961 94.1114 12.4586 93.497 12.1002C92.8826 11.7418 92.1978 11.5658 91.4458 11.5658C90.6714 11.5658 89.977 11.745 89.3626 12.1002C88.7482 12.4586 88.2554 12.961 87.8906 13.617C87.5226 14.2698 87.3402 15.0634 87.3402 15.9978C87.3402 16.9098 87.5226 17.697 87.8906 18.3626C88.2586 19.0282 88.7482 19.537 89.3626 19.8954C89.977 20.2506 90.6714 20.4298 91.4458 20.4298ZM95.4298 29.7674V20.7562L95.7274 16.0266L95.6378 11.2682V7.99781H100.07V29.7674H95.4298Z" fill="white"/>
<path d="M104.146 23.9969V1.92969H108.786V23.9969H104.146Z" fill="white"/>
<path d="M114.914 30.0064C114.082 30.0064 113.26 29.8784 112.447 29.6192C111.634 29.36 110.968 29.0048 110.453 28.5472L112.149 25.2448C112.508 25.5616 112.917 25.8112 113.384 25.9872C113.848 26.1664 114.312 26.256 114.767 26.256C115.423 26.256 115.941 26.1024 116.328 25.7952C116.716 25.488 117.068 24.976 117.384 24.2624L118.216 22.3008L118.575 21.7952L124.312 8H128.773L121.548 24.9824C121.032 26.272 120.444 27.2832 119.778 28.016C119.112 28.7488 118.38 29.264 117.576 29.5616C116.773 29.8592 115.887 30.0064 114.914 30.0064ZM117.65 24.624L110.514 8H115.301L120.834 21.3824L117.65 24.624Z" fill="white"/>
<path d="M0.773438 16.4736V5.1264C0.773438 2.2944 3.06784 0 5.89984 0H17.2502C20.6742 0 22.3894 4.1408 19.967 6.5632L7.33664 19.1936C4.91424 21.616 0.773438 19.9008 0.773438 16.4736Z" fill="url(#paint0_linear_3_5465)"/>
<path d="M0.773438 28.1455V15.9983L14.8566 11.6719H17.2502C20.6742 11.6719 22.3894 15.8127 19.967 18.2351L7.33664 30.8655C4.91424 33.2879 0.773438 31.5727 0.773438 28.1455Z" fill="url(#paint1_linear_3_5465)"/>
<path d="M7.33664 19.1919L14.8566 11.6719H5.47104C2.87584 11.6719 0.773438 13.7743 0.773438 16.3695V16.4719C0.773438 19.8991 4.91424 21.6143 7.33664 19.1919Z" fill="#816CA5"/>
<path d="M49.6208 5.77276C48.7664 5.77276 48.0752 5.52636 47.5376 5.03036C47.0032 4.53436 46.7344 3.91996 46.7344 3.18716C46.7344 2.45436 47.0032 1.83996 47.5376 1.34396C48.072 0.847963 48.7664 0.601562 49.6208 0.601562C50.472 0.601562 51.1664 0.835163 51.704 1.29916C52.2384 1.76636 52.5072 2.36476 52.5072 3.09756C52.5072 3.87196 52.2448 4.50876 51.72 5.01436C51.192 5.51996 50.4944 5.77276 49.6208 5.77276ZM47.304 24.0032V8.00316H51.944V24.0032H47.304Z" fill="white"/>
</g>
<defs>
<linearGradient id="paint0_linear_3_5465" x1="-0.595138" y1="15.7476" x2="16.5921" y2="-1.43971" gradientUnits="userSpaceOnUse">
<stop offset="1.06556e-08" stop-color="#3E256A"/>
<stop offset="1" stop-color="#816CA5"/>
</linearGradient>
<linearGradient id="paint1_linear_3_5465" x1="-0.0533788" y1="27.5395" x2="17.3487" y2="10.1374" gradientUnits="userSpaceOnUse">
<stop offset="2.23767e-07" stop-color="#290F54"/>
<stop offset="1" stop-color="#593D88"/>
</linearGradient>
<clipPath id="clip0_3_5465">
<rect width="128" height="32" fill="white" transform="translate(0.773438)"/>
</clipPath>
</defs>
</svg>
