<?xml version="1.0" encoding="utf-8"?>
<svg viewBox="0 0 232 37" fill="none" xmlns="http://www.w3.org/2000/svg">
<path fill-rule="evenodd" clip-rule="evenodd" d="M6.37185 26.0596C3.24539 23.25 1.2842 19.1646 1.293 14.6835C1.30619 6.45488 7.88011 0 15.9007 0C19.3042 0 22.4834 1.16028 25.0383 3.1252L6.37185 26.0596Z" fill="#99C044"/>
<path d="M43.9064 9.3134L41.1933 12.6253C39.7642 11.6873 38.7352 11.2161 38.1108 11.2161C37.6271 11.2161 37.2093 11.4206 36.862 11.8251C36.5102 12.2297 36.3387 12.7142 36.3387 13.2743C36.3387 14.3813 37.2445 15.346 39.0518 16.155C40.3754 16.7863 41.378 17.3553 42.0595 17.8621C42.7367 18.3689 43.304 19.0757 43.7613 19.9782C44.2186 20.8806 44.4472 21.8586 44.4472 22.9122C44.4472 24.846 43.7437 26.5264 42.341 27.9534C40.9382 29.3804 39.2805 30.0962 37.3676 30.0962C35.2701 30.0962 33.199 28.9981 31.1543 26.802L34.0213 23.0811C35.3053 24.5571 36.5102 25.295 37.6271 25.295C38.1504 25.295 38.656 25.0372 39.1397 24.517C39.6234 23.9969 39.8653 23.4546 39.8653 22.8855C39.8653 21.7119 38.7484 20.6761 36.519 19.7781C35.2438 19.2625 34.3423 18.7779 33.8059 18.3245C33.2694 17.871 32.8209 17.2175 32.4559 16.3506C32.0909 15.4882 31.9106 14.6036 31.9106 13.7011C31.9106 11.7006 32.4955 10.078 33.6695 8.82884C34.8392 7.58409 36.3739 6.95728 38.2647 6.95728C40.5029 6.95728 42.3849 7.73969 43.9064 9.30895V9.3134Z" fill="white"/>
<path d="M46.7158 7.46411H58.1267V11.8607H51.0867V16.3418H58.1267V20.6717H51.0867V25.2728H58.1267V29.6694H46.7158V7.46411Z" fill="white"/>
<path d="M75.8305 8.53979V14.0167C73.667 12.5541 71.7674 11.825 70.1404 11.825C68.5134 11.825 67.2118 12.4518 66.2356 13.7055C65.2595 14.9591 64.7714 16.6484 64.7714 18.7689C64.7714 20.7783 65.2858 22.3831 66.3104 23.5879C67.335 24.7926 68.7113 25.3927 70.4262 25.3927C71.9301 25.3927 73.7286 24.7126 75.8261 23.3567V28.798C73.478 29.6782 71.5212 30.1139 69.9557 30.1139C67.2602 30.1139 64.9736 29.0025 63.0916 26.7842C61.2096 24.5659 60.2686 21.8585 60.2686 18.6622C60.2686 15.4659 61.2272 12.6563 63.1444 10.4069C65.0616 8.15303 67.3921 7.02832 70.136 7.02832C71.9037 7.02832 73.8033 7.53066 75.8261 8.53535L75.8305 8.53979Z" fill="white"/>
<path d="M78.3726 7.49512H82.6203V21.1251C82.6203 22.392 82.9369 23.4101 83.5657 24.1791C84.1945 24.9482 85.0212 25.335 86.0502 25.335C87.2287 25.335 88.1433 24.9482 88.7941 24.1702C89.4449 23.3967 89.7703 22.2987 89.7703 20.885V7.49512H94.0049V21.9253C94.0049 23.1922 93.7102 24.5081 93.121 25.8729C92.5318 27.2376 91.6259 28.2823 90.3991 29.007C89.1767 29.7316 87.8091 30.0917 86.292 30.0917C83.5481 30.0917 81.543 29.2381 80.2722 27.5355C79.0014 25.8329 78.3682 24.0413 78.3682 22.1609V7.49512H78.3726Z" fill="white"/>
<path d="M96.7969 7.49512H103.353C105.345 7.49512 106.919 8.07748 108.08 9.24665C109.237 10.4158 109.817 11.994 109.817 13.9856C109.817 15.1192 109.553 16.3017 109.021 17.5286C108.489 18.7556 107.513 19.7158 106.084 20.4138L111.651 29.6471H106.722L101.572 21.0762H101.089V29.6471H96.8013V7.49512H96.7969ZM101.115 11.4427V17.213H102.043C104.285 17.213 105.402 16.195 105.402 14.1589C105.402 13.3276 105.112 12.6652 104.527 12.1762C103.942 11.6872 103.138 11.4427 102.1 11.4427H101.111H101.115Z" fill="white"/>
<path d="M113.365 7.49512H117.617V29.6604H113.365V7.49512Z" fill="white"/>
<path d="M120.023 7.49512H133.58V12.2029H128.959V29.6604H124.614V12.2074H120.023V7.49956V7.49512Z" fill="white"/>
<path d="M135.405 7.49951H140.176L143.861 14.3723L147.603 7.49951H152.387L146.024 19.2979V29.6648H141.763V19.2979L135.4 7.49951H135.405Z" fill="white"/>
<path d="M159.291 7.50854H165.157C167.611 7.50854 169.286 8.06868 170.183 9.19339C171.085 10.3181 171.533 11.634 171.533 13.141C171.533 14.0968 171.37 14.9059 171.041 15.5638C170.715 16.2217 170.187 16.8886 169.462 17.5643C170.851 18.0933 171.836 18.8713 172.417 19.9026C172.993 20.934 173.283 22.0365 173.283 23.2056C173.283 25.2461 172.65 26.8332 171.384 27.9712C170.117 29.1093 168.332 29.6783 166.036 29.6783H159.295V7.50854H159.291ZM163.631 11.225V16.0884H164.625C165.359 16.0884 165.975 15.8305 166.476 15.3193C166.973 14.8036 167.224 14.1679 167.224 13.4122C167.224 12.8032 166.977 12.2875 166.489 11.8607C166.001 11.4384 165.39 11.225 164.656 11.225H163.631ZM163.631 19.8537V25.9663H165.188C167.567 25.9663 168.758 25.0061 168.758 23.0901C168.758 22.0498 168.468 21.2541 167.888 20.6939C167.307 20.1338 166.481 19.8582 165.403 19.8582H163.636L163.631 19.8537Z" fill="white"/>
<path d="M181.514 7.41968H184.852L193 29.7184H188.664L187.064 25.3351H179.386L177.821 29.7184H173.507L181.514 7.41968ZM183.185 14.7237L180.833 21.2986H185.586L183.185 14.7237Z" fill="white"/>
<path d="M208.461 7.41968H212.713V29.6428H208.483L199.27 15.2527V29.6428H194.926V7.41968H199.222L208.465 21.7031V7.41968H208.461Z" fill="white"/>
<path d="M215.409 7.49512H219.719V16.8574H219.78L226.398 7.49512H231.683L224.089 18.0799L232 29.6649H226.825L219.78 19.2891H219.719V29.6649H215.409V7.49512Z" fill="white"/>
<path fill-rule="evenodd" clip-rule="evenodd" d="M18.6708 10.9404C21.7973 13.75 23.7585 17.8354 23.7497 22.3165C23.7321 30.5451 17.1625 37 9.13753 37C5.73404 37 2.55481 35.8397 0 33.8748L18.6708 10.9404Z" fill="#00A1D3"/>
</svg>
