<svg xmlns="http://www.w3.org/2000/svg" width="390" height="99" overflow="visible" viewBox="0 0 175 45"><g transform="matrix(1.0003 0 0 1 -.025001 0)"><path d="M175 45H0V0h175v45z" opacity="0"/><g transform="matrix(1.106 0 0 1.1051 -10.243 -2.2278)" fill-rule="evenodd"><path d="M9.252 13.3c1.204 0 2.043.255 2.564.776.583.583.844 1.546.844 3.122v19.685c0 2.724-.57 3.94-3.94 3.94h-.462v1.208h15.145V40.83l-.457-.006c-3.338-.04-3.9-1.248-3.9-3.94V17.187c0-1.57.26-2.53.843-3.112.526-.53 1.38-.786 2.6-.786h.905v-1.225H8.257v1.225h.995zM57.7 31.978s-.263-1.23-.3-1.917v-9c-.06-5.243.656-7.853-3.928-7.833V12.06h10.545v1.178c-4.72-.02-4.127 2.6-4.154 7.833v20.994l-1.5-.016-22.77-23.83s.256 1.227.294 1.916v14.723c-.13 5.37.536 6.02 3.996 5.957v1.227H28.877v-1.227c3.465.004 4.146-.457 4.142-6.395v.355-14.5l-.028-2.303c.13-2.98-.972-4.7-4.333-4.682v-1.2h10.12L57.7 31.978zm38.162-20.49H94.7l-.054.398c-.08.594-.313 1.6-1 1.6-.193 0-.674-.1-1.216-.34-2.354-1.02-5.404-1.648-7.972-1.648-4.997 0-9.53 1.8-12.768 5.042-2.974 2.988-4.6 7.055-4.578 11.45.02 4.2 1.676 7.673 5.064 10.592 3.413 2.92 7.237 4.165 12.794 4.165 4.63 0 7.28-.665 11.346-2.848l.712-.386v-7.855c0-3.348.4-3.87 3.134-3.98l.443-.017v-1.167H87.307v1.167l.443.017c3.034.118 3.607.662 3.607 3.43v7.28c-2.25 1.485-3.887 2.05-5.95 2.05-3.053 0-5.77-1.18-7.856-3.264-2.443-2.445-3.635-6.006-3.635-10.03 0-4.335 1.154-8.033 3.532-10.4 1.893-1.893 4.407-2.944 7.275-2.944 2.562 0 5.538 1.1 7.58 2.718 1.66 1.36 2.52 2.674 3.17 4.847l.1.33h1.136l-.846-10.186z" fill="#091c5a"/><g fill="#fff"><path d="M154.15 41.94c.74-.112 1.525-.095 2.115-.637 2.5.384 5.034-.234 7-1.61 1.035-.835 1.968-1.804 2.723-2.863.664-.932 1.188-1.8 1.527-2.845a13.23 13.23 0 0 0 .604-2.002c.713-3.244.338-6.872-.718-9.957-.193-.573-.414-1.128-.654-1.657-1.318-2.724-3.112-5.663-5.874-7.386a11.8 11.8 0 0 1-3.867-4.025c-.478-.43-.936-1-1.554-1.103.17.28.355.552.4.878l-.036.046c-.656.02-1.17-.328-1.62-.748l.495-.45c-.187-.095-.4-.13-.608-.18-1.89-.215-3.443.657-5.12 1.077l-.026.093c1.03.458 1.244 1.592 1.843 2.36.148-.178.4-.048.608-.064.3.017.58.233.87.157.01-.25-.132-.45-.177-.673.177-.084.392-.01.6 0 .542.317 1.41-.056 1.75.673-.618.04-1.198.17-1.778.3.038.234.272.42.253.655-.496-.206-1.02-.336-1.573-.4l-.028.083c.702.823 1.666 1.31 2.65 1.6 1.414.327 2.658-.346 4.023-.112 3.352 1.535 6.215 5.046 7.46 8.378.06.16.12.322.175.487 1.043 3.043 1.24 6.783.196 9.957-.556 1.32-1.168 2.566-2.15 3.64-.37.457-.78.864-1.227 1.208-1.405 1.094-3.137 1.577-4.923 1.087-.112-.077-.337-.096-.3-.29a17.19 17.19 0 0 0 .171-.796c.295-1.52.433-3.12.353-4.72l-.006-.205c-.1-2.323-.562-4.41-1.415-6.42-.548-1.153-1.198-2.4-2.017-3.538-.978-1.345-2.19-2.507-3.75-3.087-.955-.253-2.134-.3-2.854.494-.515.45-.73 1.058-.655 1.724-.805.5-1.7.785-2.695.87-.24.02-.488.1-.74.107a4.14 4.14 0 0 1-.698-.027c-1.185-.146-2.384-.786-3.295-1.516l-.066-1.46c-.522-.27-.955-.786-.99-1.395l.046-.046c.3.093.56.242.833.4-.122-.73-.263-1.45-.626-2.087-.338-.14-.675-.253-.992-.422-.365-.24-.6-.683-.654-1.084.327.318.897.206 1.15.542-.44-1.3-.448-2.79-1.17-3.978-.365-.88-1.32-1.282-1.975-1.927-.253-.3-.355-.74-.813-.788-.375-.093-.403-.513-.468-.786.233.028.43.187.625.224-.542-1.44-1.02-3.04-2.488-3.958l-.252.16a15.89 15.89 0 0 1-1.75.141c.253-.374.7-.534 1.057-.704-.412-.308-.75-.382-1.266-.466-.3.298-.84.45-1.224.533l-.048-.038c-.01-.337-.086-.748.42-.833-.487-.234-1.294-.14-1.8 0-.14.365-.54.693-.512 1.125-.29.3-.495.702-.796.917-.01-.72.298-1.385.43-1.993-.42.16-.85.384-1.262.58-.663-.384-1.363-.767-2.074-1.058-.064-.028-.206-.055-.178.066.61.44.373 1.264.438 1.89l-.384-.317c-.187-.477-.727-.823-.82-1.347-.637.122-1.044.3-1.634.543l-.08.047c.44 0 .813.345 1.028.693-.664.036-1.254-.225-1.91-.292-.065-.064-.122-.14-.225-.13-.327.122-.61.355-.897.58-.646.637-1.302 1.34-1.6 2.182.216.036.487.027.646.158-.355.215-.664.58-1 .786-.122.487-.103 1.04-.132 1.573-.272.413-.636.776-.813 1.237-.58 1.878-.73 3.967-.646 6.1-.188.18-.432.292-.608.432l.02 1.908h.046c.084-.4.562-.625.852-.897h.094c-.047.43-.103.86-.112 1.3l-.542.45c-.544.478-.085 1.198-.13 1.798.038.157.064.392.177.43.066-.234.27-.402.403-.61.233-.055.44-.244.654-.27-.122.468-.28.926-.468 1.375-.1.06-.195.138-.285.234a.68.68 0 0 0-.193.346c.423 2.217 1.085 4.407 1.842 6.494-.513.87-.805 1.896-1.233 2.795a4.85 4.85 0 0 0-.168.384c-.43 1.088-.56 2.305-1.096 3.35-.217-.148-.45-.263-.692-.365-1.012-.337-2.182-.122-2.92.656-.656-.122-1.33-.01-1.845.337-.37.275-.654.6-.818 1a2.03 2.03 0 0 0-.146.891c-.42.29-.645.737-.785 1.188-.196 1 .16 2.062.74 2.84h46.647z"/><path d="M147.96 20.896c-.01.243-.187.516-.028.72.225-.253.6-.244.9-.355.832-.075 1.628.186 2.404.375-.195-.3-.327-.654-.542-.936-.432-.112-1.086.187-1.16-.45-.263-.225-.676-.064-.945-.048-.263.19-.478.42-.628.692z"/><path d="M119.35 12.816z"/><path d="M122.76 21.134l.562-.542c.048 0 .084.01.112.048l-.047 1.038c.27.253.608.337.963.356.03-.28.244-.477.366-.72.103-.196.038-.487.243-.628l.064.066c.067.308.05.655.208.926l.064.468c.412.02.785-.094 1.104-.243-.02-.355.104-.646.158-.974.086-.113-.103-.318.132-.308.13.28.365.57.496.87.542-.552.767-1.272.898-2.02-.158-.217-.402-.217-.6-.356-1.6-.515-3.632-.62-5.167.177-.1.638.032 1.34.434 1.844zm-14.88 17.562c-.057.722 0 1.398.045 2.1.15.234.423.506.692.525l.05-.478c.1-.666-.244-1.372.13-1.933.262.084.522.215.75.337.1-.618-.047-1.338-.637-1.712l-1.03 1.152zm2.32-1.01c-.365 1.094-.637 2.446-.195 3.597.25-.167.514-.327.737-.56-.045-.88-.167-1.82.356-2.55.458.14.77.58.945 1.012.3-.395.413-.937.3-1.462.02-.4-.45-.316-.675-.486.076-.346.065-.747.43-.943l-1.123.112c-.3.4-.607.814-.767 1.282zm2.3 3.23c.048.086 0 .234.094.253.14-.785.777-1.295 1.124-1.987.167-.234.157-.562.43-.74.366 0 .628.263.984.3.112.084-.058.158-.066.25-.074.638-.318 1.166-.27 1.82h.064c.496-.522.833-1.1 1.198-1.7l.064-.532c.084-.637-.608-1.048-1.057-1.3l.402-.515-.56-.197c-.656.066-1.246.337-1.704.853-.57 1.047-.662 2.23-.7 3.502zm2.52-5.554c.215.066.4-.112.625-.018.862.317 1.76.645 2.406 1.366l.768 1.955.384-1.206-.253-.656c-.215-.468-.805-.43-1.208-.45-.167-.187.01-.403.067-.58.195-.664-.62-.628-.946-.897.02-.403-.468-.263-.74-.3l-.093-.112c-.055-.084-.195-.084-.27-.02-.02-.027-.056-.046-.036-.094l-.208.048c-.3.253-.486.58-.495.963zm.55-2.15c.028.12.103.243.196.317.422-.112.823-.4 1.3-.225.628.552 1.282 1.132 2.042 1.433l.27-.048c.17.058.355.066.468.253.104.253-.157.403-.243.608.422.3.253.862.516 1.235l.674-.898c-.158-.394.01-1.067-.6-1.104-.205-.104-.346-.3-.337-.544-.4-.365-.897-.523-1.3-.897-.327-.263-.523-.666-.945-.76-.3-.158-.606-.243-.943-.317-.63-.093-.685.654-1.098.946zm.9-1.843l.113.178c.467-.03.9-.234 1.35-.225.308.188.7.18 1.028.337.253.346.525.74.897.974.76.1 1.18.926 1.442 1.524v-.3c.112-.4-.01-.87-.16-1.234-.187-.188-.458-.3-.654-.48-.038-.12-.01-.178.028-.3-.3-.3-.72-.478-1.076-.72-.496-.72-1.45-.524-2.2-.72l-.758.946zm-.01-6.867l.24.964c.262-.58.78-.84 1.237-1.318-.263-.18-.6-.263-.88-.32v-.017c-.206.205-.524.4-.598.7zm1.7 3.08l.42-.43c.422-.43.768-.927.833-1.48-.3-.178-.692-.057-.982.046-.105.6-.262 1.2-.272 1.863zm.3 1.32c.647.038 1.273.167 1.798-.195l.523-1.686c-.167-.01-.337-.084-.495-.028a4.1 4.1 0 0 1-1.826 1.91zm.2-5.972c.42.62 1.123 1.3 1.844 1.506-.084-.785-.757-1.33-1.104-2.002l-.02-.225c-.27-.263-.6-.44-.88-.58-.045.45.077.882.16 1.302zm2.28 6.047c.496.086 1.03 0 1.487-.142.666-.157 1.03-.888 1.255-1.458h-.833l-.9.88c-.354.188-.693.47-1 .72zm-.1-6.897c.14.73.448 1.394.87 2.022l.112-1.395-.983-.627zm3.07 3.64c.056-.468-.14-1-.193-1.487-.282-.188-.676-.17-.965-.355.018.74.597 1.365 1.158 1.842zm-.86 4.756c.6-.188 1.16-.394 1.702-.694.346-.494.87-.946.945-1.525-.43.12-.805-.018-1.206.18-.243.44-.394.936-.86 1.253-.074.317-.42.534-.58.787zm.92 1.15l.702.916c.375.122.843.084 1.17-.13l-.253-.833c-.495.2-1.084.13-1.62.048zM125.13 25l.27 1.236c.654-.534.787-1.3.77-2.134-.375.43-.594.693-1.042.898zm1.84 2.18c.01.177.057.346.16.487.73.26.804 1.15 1.48 1.487.44.196.943-.048 1.328-.225-.3-.327-.62-.554-.898-.9-.197-.084-.394-.206-.384-.45l-1.685-.4zm.58 4.418c.32.365.75.552 1.198.654-.074-.103.048 0 .066-.065l-.563-1.233c-.28.007-.57.064-.832.046a2.59 2.59 0 0 0 .13.598zm1-5.766c-.263-.608-.373-1.347-.447-2.02-.28.336-.57.552-.833.897-.122.693.867.863 1.28 1.123zm1.15-.635c.337.44 1.076.3 1.5.158-.198-.337-.832-.533-.944-.898a8.07 8.07 0 0 0-.403-1.862c-.328.795-.723 1.74-.143 2.602zm.58 1.983c.937.684 1.853 1.478 3.163 1.188.094-.066.253-.057.272-.178-.385-.244-.795-.43-1.2-.654l-.448-.656h-.206c-.506.17-1.05.233-1.592.3zm.02 7.6h.064c.563-.45 1.227-.6 1.9-.787.18.065.066.262.225.338.403-.17.9-.13 1.3-.272.497.02.9.03 1.3.244.317.42.917.375 1.33.654l-.066-.654c-.87-1.02-2.228-1.096-3.48-1.076l-.03-.132a2.23 2.23 0 0 0-.916.198c-.402.017-.786.215-1.17.336-.18.356-.32.785-.45 1.15zm.75-11.5c.365.478.907.842 1.525.72-.317-.3-.683-.638-.702-1.077.094-.833-.823-.898-1.272-1.33.148.563.13 1.2.45 1.686zm-.1 13.158h.1c.497-.3 1.218-.076 1.705-.404.27-.14.3.234.478.337.458.28.514 1.122 1.16.927.776.402.58 1.35.608 2.04l.72-.45c-.066-.365.14-.807-.095-1.124-.177-.4-.663-.44-.897-.767.28-.478-.355-.7-.487-1.048l.038-.048 1 .13c.34.206.46.58.563.927.777.13.964 1 1.236 1.572.16-.384.224-.796.384-1.17.01-.3-.403-.3-.608-.45-.058-.477-.272-.928-.692-1.217-.862-.215-1.62-.693-2.564-.693l-.787.244c-.43.103-.9-.028-1.216.27-.5.037-.526.572-.646.92zm.5-3.858l.18.084 1.17-.534c.626-.178 1.113.534 1.638.085.196-.14.363.065.514.178.225.412.75.384 1.142.496-.196-.533-.44-1.264-1.123-1.35-.27-.12-.6-.1-.852-.27-.72-.795-1.188.654-1.975.3-.28.3-.626.6-.693 1.012zm.18 4.56c.3.25.607.683 1.074.626.583.272.34 1.038.657 1.44l.336-.3-.028-.018.048-.047.02.028c.093-.282-.04-.778-.198-1.105-.215-.148-.468.01-.673-.13-.03-.3-.216-.45-.43-.636-.15-.112-.347.038-.515.028l-.3.114zm1.17-11.4c.3.516.907.834 1.385 1.2.392.18.907.224 1.33.13a8.53 8.53 0 0 1-1.104-1.096c-.13-.187-.16-.42-.337-.6-.442.085-.936.076-1.273.365zm.5-3.35c.432.532 1.096.318 1.704.336v-.064l-.936-.788c-.263.085-.542.318-.768.516zm-17.22-8.825l.542 1.685c-.01-.955.43-1.75.337-2.723l.403-.6-.853.262c-.224.43-.4.862-.43 1.376zm.37-2.92l.738-.43V9.1c-.3.188-.48.506-.72.76l-.018.767zm15.18 1.705c-.18.234-.45.3-.673.337.392-.72.58-1.724.27-2.538.207-.074.432-.1.628-.224l-.02-.018.516-.45c.683-.468.42-1.356.674-2.02-.337-.525-.44-1.16-.927-1.602l.03-.017c-.385-.487-1.077-.432-1.603-.675-.692-.234-1.225.243-1.72.563-.215.036-.084.317-.318.308l-.384 1.104c-.927-.132-1.927-.027-2.667.496-.394-.3-.87-.346-1.33-.477-.336-.065-.72.057-.962-.132-.355-.4-.432-1.132-1.04-1.234-.214-.075-.26-.308-.26-.515-.403-.065-.76-.25-1.153-.337-.597-.272-1.074.16-1.524.45-.196.085-.42.112-.607.226-.337.523-.656 1.057-.87 1.636.066.477.27.9.516 1.3.215.6.888 1.086 1.46 1.33-.27.926-.27 2.03 0 2.967l-.046.035c-.1 0-.185.018-.26-.026h-.012c.13.894.552 1.676 1.232 2.347.244.086.188.375.292.563.064.083.073.26.045.336a7.34 7.34 0 0 0-3.93.982c-.3.15-.167.563-.195.852.823-.542 1.712-.945 2.694-1.122.42-.028.898-.13 1.3-.02l.047.805c-1.113.58-2.33.917-3.285 1.872.02.3-.036.627.048.87l.852-.694c.822-.625 1.683-1.16 2.63-1.506.253.3.516.618.853.804a6.35 6.35 0 0 1 1.843-.804c.347-.206.897-.02 1.122-.43l.16-.852c-.03-.02-.046-.055-.094-.045-.44-.253-.73-.692-.692-1.208-.15.074-.317.122-.496.13-.15-.038-.3-.074-.355-.225-.01-.188-.104-.468.083-.608.608-.375 1.395-.394 2.163-.336.57.074 1.395.045 1.6.72-.026.196-.01.4-.205.542-.206.112-.44-.01-.628-.093-.148.458-.4.974-.917 1.122l.067.544c.064.244.083.645.468.56.9.215 1.674.674 2.45 1.17.262-.263.468-.563.654-.833 1.385.467 2.584 1.506 3.725 2.47l.048-.786c-1.086-.964-2.294-1.647-3.548-2.18.048-.253.104-.497.112-.767 1.5.083 2.9.542 4.128 1.264l-.02-.674c-1.3-.692-2.704-1.15-4.25-1.17a.47.47 0 0 1-.064-.29c.75-.122 1.28-.898 1.46-1.573.382-.44.936-.917.805-1.57l.055-.167c.05-.165.092-.336.036-.488zm1.3 2.404l.767-.244.083-.43c.217-.627-.24-1.095-.468-1.592l-.382 2.266zm1.93 2.966c.365.4.72 1.048 1.368.85-.048-.27-.198-.494-.3-.738-.17-.198-.225-.76-.562-.56-.253-.17-.317-.45-.478-.675-.073.346-.027.777-.037 1.124zm.14 2.74c.14.198.18.45.317.628.253.167.628.14.936.112.28-.065.46.243.72.064-.326-.205-.522-.58-.833-.85-.366-.3-.757-.037-1.14.046zm.5 4.354c.645.384 1.467.76 2.328.628.093-.048.253-.038.27-.15-.533-.188-1.093-.72-1.653-.833-.3-.477-.712.122-1.105.084.01.113.12.198.16.272zm1.94 8.263l.14.3c.14.974.757 1.87.42 2.938.28.196.366.523.543.785h.047c.215-.813.066-1.656-.047-2.47.084-.74-.665-1.17-1.104-1.553zm.16-9.583c.487.375 1.264.412 1.824.225-.355-.196-.747-.4-1.04-.674l-.785.45zm2.3 2.874c-.048.394.215.72.496.917.103-.234.27-.43.3-.692a1.71 1.71 0 0 0-.673-1.038c-.066.26-.14.512-.112.813zm.04 4.266c-.066.44.42.497.626.74.17.205-.112.346-.112.542.355.458.56.983.56 1.592.14-.57.356-1.115.433-1.704-.038-.4-.692-.327-.6-.785.186-.468-.038-.927-.16-1.347-.038-.067-.122-.198-.195-.16-.172.384-.592.654-.563 1.122zm1.28-2.227l.486.945c.216-.026.354-.234.523-.382.132-.394-.215-.647-.317-.965-.086-.225 0-.524-.16-.72-.12-.074-.263-.196-.403-.16l-.13 1.283zm.62-2.487c.384.233.823.57 1.028.98.33.955.853 1.816 1.236 2.742l.43 1.86c.066.166.028.494.3.467l.224-2.134c-.233-.308-.544-.44-.833-.628v-.064c.038-.16.17-.347.366-.317.083-.096.336-.188.225-.356-.487-.486-.46-1.325-1.237-1.476-.27-.112-.337-.392-.363-.654-.366-.307-.9-.413-1.368-.42zm.46 5.07c.478.438.3 1.075.272 1.665-.074.356.375.15.516.337.3.43.12 1.058.017 1.526.254-.385.544-.722.74-1.142-.01-.16.195-.234.188-.43.083-.272-.234-.15-.365-.18-.112-.028-.234-.103-.198-.252.244-.47.02-1.03-.074-1.497-.112-.385.048-.898-.13-1.235-.3.412-1.2.506-.965 1.208zm.86-6.645l2.34 2.504c.02-.363-.028-.702-.047-1.058-.132-.25-.375-.44-.58-.626-.663-.066-1-.96-1.712-.82zm2.18 4.46c.02.084.057.158.093.243.365.6.7 1.216.965 1.862-.075-.7.394-1.554-.225-2.086-.084-.225-.365-.15-.543-.132l-.3.113zm2.26 6.837c.263.12.6-.096.852-.244.234-.057.43.074.6.196.074.15 0 .3.026.43.563.16 1.114.365 1.6.692l.157-.158c.038-.403-.28-.7-.58-.916-.196-.115-.488-.048-.626-.227.093-.148.093-.373.083-.542-.3 0-.506-.094-.76-.244-.157-.046-.3-.177-.43 0-.467.32-.495.786-.944 1.013zm.65-11.778c.233-.064.478-.132.674-.3.625-.57 1.534-.188 2.263-.197-.14-.253-.337-.504-.514-.72-.262-.103-.506-.225-.805-.225-.637-.373-1.066.253-1.554.56-.13.255-.195.628-.064.88zm.01 1.925c0-.026 0-.056.028-.064.084.075-.01.252.13.3.243-.12.468-.3.692-.447.628 0 1.002-.608 1.618-.608 1.03.186 2.05.392 2.948.897-.064-.608-.6-1.16-1.12-1.433-.3-.103-.535.058-.75.225-.628.395-.3-.57-.74-.6-.57.18-1.16.375-1.796.32-.375.14-.638.484-1.058.448-.02.3-.066.684.047.963zm.44 2.1c.195.205.522.167.805.205l.813-.317c.01-.15-.243-.2-.188-.355.225-.253.535-.076.814-.18.395-.055.797-.448 1.188-.158-.01.046.02.113-.017.158-.124.3.084.468.308.58.46.086.9.507 1.348.318-.046-.383-.15-.738-.244-1.104-.383-.066-.654-.384-1-.516-.16.15-.365.263-.562.244-.72-.168-1.582-.617-2.3-.158-.263.317-.73.224-1.086.363a4.15 4.15 0 0 0 .142.92zm.3 5.562c-.057.16-.215.422.074.496.6.02 1.367-.3 1.836.178.158.123.083.374.074.534l.785.656c.076-.394.215-.75.225-1.172a1.31 1.31 0 0 0-.476-.786c-.516 0-.816-.603-1.368-.526-.3-.067-.54.2-.833.2-.13.13-.205.3-.317.43zm.23-4.412c.12.25.263.664.496.692.552-.243 1.356-.394 1.975-.13.206.037.206.27.16.422.317.187.702.335 1.038.542l-.093-.56c-.02-.6-.787-.666-.834-1.266-.627-.205-1.33-.27-1.993-.1-.217.197-.524.17-.787.226-.017.074.028.12.038.187zm.17 3.033c.365-.103.597-.506 1-.542.6.01 1.133.25 1.506.767.227.15.18.534.468.534-.084-.46.066-.88.048-1.35-.395-.654-1.365-.15-1.73-.917l-.692.046c-.496.122-.364.703-.432 1.096-.056.122-.168.215-.158.365zm3.42 4.093c.3.58.93 1.02.993 1.686.15-.18.253-.384.356-.58-.01-.188-.226-.188-.3-.337-.084-.243.048-.458.085-.675-.12-.347-.412-.674-.74-.88l-.384.785zm1.16-1.478l.673.917c.3-.46.3-1.132.177-1.686-.064-.103-.187-.27-.355-.196-.254.263-.3.664-.495.965zM151.23 9.04c.244.122.478.234.767.252.198-.102.45-.177.694-.112.346.225.767-.047 1.168-.028-.354-.336-.758-.542-1.168-.738-.525.1-.945.484-1.46.626zm3.67.88c.494.046.85.485 1.187.853.422.064.74.363.992.673l-.16-.497c-.112-.497-.42-.88-.738-1.272-.45.028-.9.065-1.282.243z"/></g><path d="M119.97 5.814l.27.028c.73.365 1.9.552 1.975 1.6-.737.3-1.45.685-2.038 1.282-.45-.46-1.358-.206-1.507-1 .14-.758.4-1.7 1.3-1.9zm.7 4.746c.85-.074 1.674.045 2.555-.028.215.093.44.28.542.496-.028 1-.337 1.975-.384 3.013-.383.16-.758.478-.85.9-.347.102-.656.3-.993.467-.15-.317-.122-.795.142-1.056.364-.516 1.3-.394 1.233-1.208.244-.394.01-.9.02-1.3-.094-.308-.187.103-.337.093-.3.064-.608.084-.87-.064-.198-.208-.44-.375-.497-.656-.262-.13-.57-.337-.7-.6l.14-.036zm1.03 6.102c.4.055.823-.122 1.17.074-.075.13-.27.187-.43.225l-.627.3c-.234-.058-.103-.432-.112-.6zm1.64-7.816c.4-.13.833-.4 1.263-.27-.3.3-.552.7-.785 1.084l-1.282-.027c.138-.336.493-.617.804-.787zm3.76-.308c.532-.093.504.6 1 .628.085.112.207.214.16.382-.28.112-.692.057-1.012.13-.42-.234-.148-.964-.814-.917-.036-.055-.112-.168-.018-.206.207-.073.476-.046.694-.018zm-.35 2.51c.233-.33.6-.355.926-.422l2.424.047c.103.093-.093.177-.093.3-.15.14-.366.178-.497.3-.317.01-.3.382-.515.542-.347.346-.85.188-1.254.13-.14-.103-.3-.244-.365-.403l-.112.112c.14.525.103 1.106.205 1.638l.58.385c.01.86 1.02.627 1.46 1.105-.103.308-.3.57-.532.833-.356-.347-.76-.573-1.2-.72-.037-.506-.6-.804-.9-1.058l-.25-2.742.1-.047zm.88 5.773h1.124l-.14.6-1.124-.478c-.026-.093.075-.12.14-.112zm2.02-10.602l.833-.263c.478.224.927.506 1.366.823.347.638.3 1.497.13 2.208-.253.282-.805 0-1 .45h-.038c-.3-.88-1.188-1.664-2.003-2.068.13-.448.272-.887.72-1.15z" fill="#f60"/><path d="M149.17 41.873h4.993c.74-.112 1.525-.094 2.114-.638 2.5.385 5.035-.233 7-1.608 1.037-.838 1.97-1.806 2.722-2.863.664-.932 1.19-1.803 1.528-2.846.252-.645.452-1.314.603-2.003.713-3.243.34-6.87-.715-9.958l-.656-1.655c-1.318-2.724-3.1-5.662-5.874-7.386a11.82 11.82 0 0 1-3.867-4.025c-.478-.432-.937-1.002-1.554-1.105.17.28.355.552.403.88l-.038.047c-.654.02-1.17-.327-1.62-.75l.497-.448c-.188-.093-.403-.132-.61-.177-1.89-.215-3.444.654-5.118 1.076l-.028.093c1.028.458 1.243 1.6 1.843 2.36.15-.18.403-.048.608-.067.3.02.58.234.87.16.01-.252-.13-.448-.177-.672.177-.086.394-.01.6 0 .542.317 1.413-.058 1.75.672-.618.04-1.198.168-1.778.31.037.234.27.422.253.656-.497-.208-1.02-.336-1.573-.403l-.026.083c.702.824 1.664 1.31 2.647 1.602 1.413.327 2.657-.346 4.022-.112 3.353 1.535 6.215 5.046 7.46 8.378a15.49 15.49 0 0 1 .175.485c1.043 3.043 1.24 6.786.196 9.958-.556 1.322-1.168 2.566-2.15 3.64-.37.455-.782.862-1.228 1.208-1.405 1.094-3.137 1.575-4.92 1.084-.11-.073-.338-.093-.3-.29a16.18 16.18 0 0 0 .172-.795c.297-1.523.432-3.123.354-4.72-.004-.07-.005-.138-.008-.206-.098-2.322-.56-4.41-1.415-6.42-.546-1.153-1.197-2.4-2.016-3.54-.977-1.346-2.19-2.51-3.75-3.09-.955-.253-2.135-.3-2.854.497-.516.45-.73 1.057-.656 1.72-.805.512-1.7.788-2.695.87-.24.02-.49.108-.738.107a4.01 4.01 0 0 1-.697-.029c-1.188-.146-2.386-.783-3.297-1.516l-.066-1.458c-.523-.272-.953-.788-.99-1.395l.048-.047c.3.093.56.243.83.403-.122-.73-.26-1.45-.626-2.087-.337-.14-.676-.252-.993-.422a1.6 1.6 0 0 1-.653-1.086c.326.32.897.207 1.15.544-.44-1.3-.45-2.79-1.17-3.978-.365-.88-1.32-1.282-1.975-1.93-.253-.308-.355-.738-.814-.786-.374-.093-.403-.515-.468-.785.234.027.43.187.628.224-.544-1.442-1.02-3.04-2.5-3.958l-.253.158c-.57.086-1.18.122-1.75.14.253-.375.702-.533 1.058-.703-.413-.308-.75-.383-1.267-.468-.3.3-.84.45-1.223.533l-.046-.036c-.01-.336-.088-.75.418-.833-.486-.234-1.29-.14-1.788 0-.14.365-.54.692-.514 1.122-.288.3-.494.702-.795.918-.008-.72.297-1.386.43-1.993-.42.158-.85.382-1.26.58-.665-.384-1.365-.768-2.075-1.057-.066-.03-.207-.057-.18.064.608.44.373 1.263.438 1.89l-.384-.317c-.187-.478-.728-.824-.82-1.35-.637.122-1.044.29-1.634.544l-.082.046c.44 0 .813.346 1.03.692-.664.038-1.254-.225-1.908-.29-.066-.066-.12-.14-.226-.13-.328.122-.607.356-.898.58-.645.635-1.3 1.34-1.61 2.18.216.038.487.03.646.16-.354.215-.664.58-1.01.786-.12.487-.103 1.04-.13 1.573-.27.41-.636.776-.814 1.234-.58 1.88-.73 3.968-.645 6.102-.188.177-.432.292-.608.43l.02 1.91h.046c.086-.403.563-.627.852-.898h.094c-.046.43-.103.86-.112 1.3l-.543.45c-.54.477-.083 1.196-.13 1.795.04.16.065.394.18.432.064-.234.27-.403.4-.608.234-.058.44-.244.654-.272a9.77 9.77 0 0 1-.468 1.375c-.09.06-.195.14-.285.234-.095.103-.17.22-.19.348.42 2.218 1.082 4.407 1.84 6.494-.516.87-.807 1.895-1.236 2.794-.06.126-.116.253-.168.384-.43 1.09-.56 2.304-1.096 3.35-.215-.15-.448-.263-.69-.366-1.013-.336-2.182-.12-2.92.655-.656-.122-1.33-.01-1.846.336-.368.278-.654.612-.817 1.003a2.03 2.03 0 0 0-.145.889c-.422.3-.647.74-.786 1.188-.197 1.012.158 2.063.738 2.84h41.656z" fill="#fff"/><g fill="#f60"><path d="M167.42 21.958l-.656-1.655c-1.318-2.724-3.1-5.662-5.874-7.386a11.82 11.82 0 0 1-3.867-4.025c-.478-.432-.937-1.002-1.554-1.105.17.28.355.552.403.88l-.038.047c-.654.02-1.17-.327-1.62-.75l.497-.448c-.188-.093-.403-.132-.6-.177-1.9-.215-3.444.654-5.118 1.076l-.028.093c1.028.458 1.243 1.6 1.843 2.36.15-.18.403-.048.608-.067.3.02.58.234.87.16.01-.252-.13-.448-.177-.672.177-.086.394-.01.6 0 .542.317 1.413-.058 1.75.672-.618.04-1.198.168-1.778.3.037.234.27.422.253.656-.497-.208-1.02-.336-1.573-.403l-.026.083c.702.824 1.664 1.3 2.647 1.602 1.413.327 2.657-.346 4.022-.112 3.353 1.535 6.215 5.046 7.46 8.378a15.49 15.49 0 0 1 .175.485c1.043 3.043 1.24 6.786.196 9.958-.556 1.322-1.168 2.566-2.15 3.64-.37.455-.782.862-1.228 1.208-1.405 1.094-3.137 1.575-4.92 1.084-.1-.073-.338-.093-.3-.3a16.18 16.18 0 0 0 .172-.795 19.75 19.75 0 0 0 .354-4.72c-.004-.07-.005-.138-.008-.206-.098-2.322-.56-4.4-1.415-6.42-.546-1.153-1.197-2.4-2.016-3.54-.977-1.346-2.2-2.5-3.75-3.1-.955-.253-2.135-.3-2.854.497-.516.45-.73 1.057-.656 1.72-.805.512-1.7.788-2.695.87-.24.02-.5.108-.738.107a4.01 4.01 0 0 1-.697-.029c-1.188-.146-2.386-.783-3.297-1.516l-.066-1.458c-.523-.272-.953-.788-1-1.395l.048-.047c.3.093.56.243.83.403-.122-.73-.26-1.45-.626-2.087-.337-.14-.676-.252-.993-.422a1.6 1.6 0 0 1-.653-1.086c.326.32.897.207 1.15.544-.44-1.3-.45-2.8-1.17-3.978-.365-.88-1.32-1.282-1.975-1.93-.253-.308-.355-.738-.814-.786-.374-.093-.403-.515-.468-.785.234.027.43.187.628.224-.544-1.442-1.02-3.04-2.5-3.958l-.253.158a15.17 15.17 0 0 1-1.75.14c.253-.375.702-.533 1.058-.703-.413-.308-.75-.383-1.267-.468-.3.3-.84.45-1.223.533l-.046-.036c-.01-.336-.088-.75.418-.833-.486-.234-1.3-.14-1.788 0-.14.365-.54.692-.514 1.122-.288.3-.494.702-.795.918-.008-.72.297-1.386.43-1.993-.42.158-.85.382-1.26.58-.665-.384-1.365-.768-2.075-1.057-.066-.03-.207-.057-.18.064.608.44.373 1.263.438 1.9l-.384-.317c-.187-.478-.728-.824-.82-1.35-.637.122-1.044.3-1.634.544l-.082.046c.44 0 .813.346 1.03.692-.664.038-1.254-.225-1.908-.3-.066-.066-.12-.14-.226-.13-.328.122-.607.356-.898.58-.645.635-1.3 1.34-1.6 2.18.216.038.487.03.646.16-.354.215-.664.58-1 .786-.12.487-.103 1.04-.13 1.573-.27.4-.636.776-.814 1.234-.58 1.88-.73 3.968-.645 6.102-.188.177-.432.292-.608.43l.02 1.9h.046c.086-.403.563-.627.852-.898h.094c-.046.43-.103.86-.112 1.3l-.543.45c-.54.477-.083 1.196-.13 1.795.04.16.065.394.18.432.064-.234.27-.403.4-.608.234-.058.44-.244.654-.272a9.77 9.77 0 0 1-.468 1.375c-.1.06-.195.14-.285.234-.095.103-.17.22-.2.348.42 2.218 1.082 4.407 1.84 6.494-.516.87-.807 1.895-1.236 2.794-.06.126-.116.253-.168.384-.43 1.1-.56 2.304-1.096 3.35-.215-.15-.448-.263-.7-.366-1.013-.336-2.182-.12-2.92.655-.656-.122-1.33-.01-1.846.336-.368.278-.654.612-.817 1.003a2.03 2.03 0 0 0-.145.889c-.422.3-.647.74-.786 1.188-.197 1.012.158 2.063.738 2.84h16.537c-.243-.3-.468-.692-.638-1.038-.354-.535-.1-1.292-.15-1.9.337-.68.68-1.364 1.064-2.03l.236-.395.76-.3c.402 0 .74-.3 1.123-.188.515.516.515-.514 1.012-.56 1.16-.15 2.3-.038 2.965.945 0 .13.208.13.16.253-.15.045-.3-.048-.45-.048-.7-.177-1.545-.628-2.246-.225-.027.168-.063.34-.097.507a5.2 5.2 0 0 0-.082.522c.458.13.842.46 1.188.814.234-.458.73-.664 1.17-.814.384.084.805.094 1.124.337.6.544.3 1.47.244 2.162.532.3 1.122.47 1.664.758-.253.227-.588.32-.897.432l-.898-.18c-.103-.074-.282-.074-.32-.205-.3.317-.664.74-.85 1.15h12.82c-.17-.384-.365-.683-.6-1.038-.263-.562-.158-1.33-.187-1.93l1.198-1.825c.654-.01 1.395-.253 2.105-.13a.78.78 0 0 0 .103-.055c.295-.204.385-.678.824-.62.785-.214 1.385.142 1.975.497a1.07 1.07 0 0 1-.06.122c-.247.395-.7-.046-1.046.073-.14.15.066.327.093.497.122.167-.122.148-.205.177-.196.028-.4-.02-.562-.177-.037-.048-.01-.103-.083-.112-.17.28-.413.533-.478.85.214.207.504.412.608.675.215.3-.17.542-.243.814-.028.055-.114.055-.14 0-.198-.112-.365-.394-.58-.32-.188.834.065 1.667-.047 2.5.365.086.795-.02 1.188 0l.16-1.76c.167-1.14.843-2.096 1.638-2.968.86-.587 1.413.573 2.048.975.104.02.067.13.112.196-.01.188-.205.262-.336.32-.394.14-.684-.3-.927-.544-.233.253-.337.6-.608.787l.093.027c.3.3.608.637.676 1.05-.038.373-.225.738-.563.927a9.39 9.39 0 0 1-.625-1.35c.01.02-.01.028-.03.048-.516.14-.653.72-.74 1.188.028.46-.318.646-.226 1.104h6.674c.74-.112 1.525-.094 2.114-.638 2.5.385 5.035-.233 7-1.608a14.62 14.62 0 0 0 2.722-2.863c.664-.932 1.2-1.803 1.528-2.846.252-.645.452-1.314.603-2.003.712-3.24.338-6.867-.716-9.954zm-42.95 17.37c.365-.234.955-.3 1.038-.833-.148-.113-.28-.254-.45-.3l-.384.112c.028-.225.15-.477.227-.72l1.234-.402c-.17.56-.234 1.263-.3 1.9.112.955.253 1.975.74 2.77h-1.33c-.15-.88-1.068-1.517-.785-2.545z"/><path d="M127.34 38.204h.074l.897.815.13-.028-.13 2.882h-.972c-.198-.926-.525-1.9-.487-2.9.168-.253.28-.572.488-.77zm2 .9c.18-.233.253-.628.608-.673.253.007.487.045.676.224.327.4.007.937-.112 1.348-.132.627-.358 1.28-.563 1.87h-.945l.336-2.77zm14.2-.29c.206.263.27.618.58.852.272-.374.337-.955.206-1.432l-.27-.272c.347-.083.7-.112 1.058-.177-.15.496-.433.945-.384 1.525.01.843.15 1.686.224 2.564h-1.03c-.374-.824-.75-1.6-.72-2.564.112-.17.187-.366.337-.496z"/></g><g fill="#fff"><path d="M147.97 20.832c-.01.243-.187.513-.03.72.227-.253.6-.244.9-.356.833-.076 1.628.187 2.404.375-.196-.3-.327-.656-.543-.936-.43-.113-1.086.187-1.16-.45-.262-.224-.673-.064-.945-.046-.263.187-.477.42-.627.693z"/><path d="M119.37 12.75z"/><path d="M122.77 21.07l.562-.542c.048 0 .085.01.112.045l-.046 1.04c.27.253.606.336.962.356.03-.28.244-.478.366-.72.103-.196.038-.486.243-.625l.066.064c.064.3.046.656.206.926l.063.468c.413.02.788-.093 1.105-.244-.02-.355.104-.645.158-.97.086-.113-.103-.32.13-.3.132.28.365.57.497.87.542-.552.77-1.272.897-2.022-.158-.214-.4-.214-.6-.355-1.6-.514-3.63-.617-5.164.178-.103.634.028 1.336.432 1.843zM107.9 38.632c-.057.72 0 1.397.046 2.1.15.234.423.506.694.523l.046-.478c.112-.664-.243-1.37.132-1.93.262.083.524.215.75.336.112-.617-.048-1.34-.638-1.714l-1.03 1.155zm2.3-1.012c-.365 1.096-.636 2.445-.196 3.6.253-.17.514-.33.738-.562-.046-.88-.168-1.82.356-2.55.458.14.768.58.944 1 .3-.392.413-.936.292-1.458.02-.413-.45-.318-.674-.487.074-.347.064-.747.43-.945l-1.122.112c-.3.413-.608.813-.768 1.282zm2.32 3.234c.047.083 0 .234.095.253.14-.787.775-1.296 1.123-2 .167-.23.16-.56.43-.738.364 0 .627.262.983.3.112.085-.058.16-.067.253-.074.638-.317 1.164-.27 1.82h.065c.496-.525.833-1.1 1.198-1.7l.064-.532c.086-.637-.606-1.048-1.058-1.3l.403-.516-.562-.196c-.655.065-1.245.337-1.703.853-.57 1.046-.663 2.23-.7 3.503zm2.52-5.554c.214.064.4-.112.625-.02.862.32 1.76.646 2.406 1.366l.768 1.957.384-1.2-.253-.653c-.216-.468-.805-.43-1.208-.45-.168-.188.01-.403.066-.58.196-.665-.618-.628-.945-.9.02-.4-.468-.263-.74-.3l-.093-.112c-.056-.086-.196-.086-.272-.02-.017-.028-.055-.047-.036-.093l-.205.046c-.292.253-.488.58-.497.965zm.54-2.153a.62.62 0 0 0 .196.318c.422-.112.826-.404 1.3-.225.628.552 1.282 1.132 2.04 1.43l.272-.046c.167.055.354.064.466.253.104.253-.158.4-.24.607.42.3.253.86.514 1.235l.673-.897c-.157-.394.01-1.067-.606-1.105a.59.59 0 0 1-.34-.542c-.4-.365-.897-.524-1.3-.9-.33-.26-.525-.663-.945-.757-.3-.16-.6-.244-.945-.317-.63-.096-.685.653-1.098.944zm.9-1.844l.112.18c.468-.03.888-.234 1.347-.226.308.187.7.177 1.03.337.253.347.525.738.897.972.76.112 1.18.93 1.44 1.526v-.3c.112-.403-.01-.872-.157-1.237-.188-.187-.46-.308-.656-.475-.038-.122-.01-.18.028-.3-.3-.3-.72-.478-1.077-.722-.496-.72-1.45-.522-2.208-.72l-.756.946zm-.02-6.865l.24.965c.26-.58.778-.843 1.236-1.32-.263-.178-.6-.263-.88-.318v-.02c-.207.204-.525.4-.598.7zm1.7 3.08l.42-.43c.422-.432.77-.93.833-1.48-.3-.177-.692-.055-.98.048-.103.606-.263 1.205-.272 1.862zm.3 1.32c.646.036 1.274.167 1.798-.198l.525-1.684c-.17-.01-.34-.086-.497-.028-.346.766-1.038 1.525-1.826 1.9zm.2-5.97c.42.617 1.124 1.308 1.843 1.506-.083-.787-.757-1.33-1.104-2.002l-.02-.225c-.27-.262-.6-.44-.88-.58-.045.45.077.878.16 1.3zm2.28 6.045c.496.084 1.03 0 1.488-.14.664-.16 1.03-.9 1.254-1.46h-.833l-.897.88c-.355.186-.692.467-1.012.72zm-.1-6.897c.14.73.45 1.395.872 2.022l.1-1.395-.983-.627zm3.06 3.64c.057-.468-.14-1.012-.194-1.487-.28-.188-.673-.17-.964-.355.02.737.597 1.365 1.158 1.842zm-.84 4.755c.6-.187 1.16-.393 1.704-.692.346-.497.87-.945.945-1.525-.433.12-.805-.02-1.208.178-.243.44-.394.937-.86 1.254-.075.316-.42.532-.58.785zm.9 1.15l.702.917c.375.12.843.085 1.17-.13l-.25-.832c-.497.185-1.087.13-1.62.045zm1.17-6.625l.27 1.234c.655-.532.8-1.3.77-2.132-.374.43-.6.692-1.042.898zm1.86 2.18c.01.18.055.347.157.487.73.263.805 1.15 1.48 1.487.438.198.945-.046 1.327-.225-.3-.327-.616-.552-.897-.897-.196-.084-.395-.206-.384-.45L127 27.114zm.57 4.42c.317.363.747.552 1.196.653-.074-.102.048 0 .066-.064l-.562-1.236c-.28.01-.572.067-.833.048a2.58 2.58 0 0 0 .133.599zm1-5.765c-.263-.608-.37-1.35-.448-2.02-.28.337-.57.553-.833.897-.122.692.87.86 1.28 1.124zm1.14-.638c.34.442 1.077.292 1.5.16-.197-.337-.83-.535-.943-.897-.064-.646-.196-1.275-.403-1.862-.327.794-.723 1.74-.143 2.6zm.6 1.984c.936.683 1.854 1.48 3.162 1.188.094-.064.254-.057.272-.177-.384-.243-.795-.432-1.188-.656l-.448-.654h-.206c-.506.167-1.048.235-1.592.3zm0 7.6h.067c.56-.45 1.225-.6 1.9-.786.18.066.066.263.226.337.402-.167.9-.13 1.3-.27.496.018.9.027 1.3.242.32.422.917.374 1.33.656l-.067-.656c-.87-1.02-2.226-1.094-3.48-1.075l-.028-.13a2.23 2.23 0 0 0-.917.196c-.4.02-.786.215-1.17.336-.18.356-.32.8-.45 1.152zm.76-11.5c.364.478.907.844 1.525.722-.317-.3-.684-.638-.702-1.077.094-.833-.823-.9-1.272-1.33.15.562.13 1.2.45 1.685zm-.1 13.157h.112c.495-.308 1.216-.073 1.703-.4.27-.14.3.234.477.337.46.28.516 1.122 1.16.926.775.402.58 1.347.608 2.04l.72-.448c-.066-.365.14-.805-.094-1.123-.178-.402-.665-.44-.9-.766.282-.478-.355-.704-.487-1.05l.04-.046.992.13c.337.205.46.58.562.927.775.13.962 1 1.234 1.57.16-.383.225-.796.384-1.17.01-.3-.402-.3-.608-.45-.055-.478-.27-.926-.692-1.215-.86-.218-1.618-.693-2.563-.693l-.786.242c-.432.104-.9-.027-1.218.27-.488.038-.524.572-.646.917zm.5-3.855l.18.085 1.17-.534c.625-.177 1.112.534 1.638.084.195-.14.365.066.513.18.228.4.75.383 1.144.494-.197-.532-.44-1.262-1.124-1.347-.27-.12-.6-.1-.85-.27-.72-.795-1.188.656-1.977.3-.28.307-.626.6-.692 1zm.18 4.558c.3.253.608.684 1.077.627.58.27.336 1.04.653 1.442l.337-.3-.028-.02.047-.046.02.026c.093-.28-.038-.775-.198-1.104-.214-.15-.466.01-.673-.13-.028-.3-.215-.45-.43-.635-.15-.114-.347.036-.516.026l-.3.115zm1.16-11.408c.308.514.907.833 1.385 1.188a2.22 2.22 0 0 0 1.329.13 8.58 8.58 0 0 1-1.104-1.094c-.132-.188-.16-.423-.337-.6-.44.085-.937.075-1.273.366zm.53-3.35c.43.533 1.095.318 1.703.337v-.066l-.936-.786c-.262.083-.542.317-.767.515zM116.1 13.48l.542 1.685c-.01-.955.432-1.752.338-2.724l.4-.6-.852.263c-.224.43-.4.86-.43 1.376zm.36-2.92l.74-.43V9.034c-.3.187-.478.507-.72.757l-.018.77zm15.18 1.703c-.178.233-.45.3-.674.336.394-.72.58-1.72.272-2.536.205-.074.43-.112.626-.224l-.02-.02.515-.45c.683-.468.42-1.356.673-2.02-.336-.523-.44-1.16-.926-1.6l.028-.02c-.384-.487-1.076-.43-1.6-.673-.694-.234-1.227.243-1.724.56-.215.038-.083.318-.317.308l-.385 1.105c-.926-.13-1.927-.028-2.666.496-.395-.3-.87-.346-1.33-.477-.337-.067-.72.055-.963-.132-.355-.4-.432-1.132-1.04-1.234-.215-.076-.26-.3-.26-.516-.403-.067-.76-.253-1.15-.337-.6-.272-1.076.16-1.525.45-.198.083-.422.112-.6.224-.336.525-.653 1.058-.87 1.638.067.477.272.897.516 1.3.215.608.9 1.086 1.46 1.33a5.51 5.51 0 0 0 0 2.965l-.045.038c-.088 0-.186.017-.26-.028h-.012c.134.894.554 1.678 1.234 2.35.244.084.187.375.3.56a.44.44 0 0 1 .048.337 7.35 7.35 0 0 0-3.932.983c-.3.15-.168.56-.196.852.824-.544 1.712-.945 2.695-1.124.42-.026.897-.13 1.3-.02l.046.807c-1.112.58-2.33.917-3.283 1.872.018.3-.038.625.046.87l.853-.692c.823-.628 1.684-1.16 2.628-1.507.254.3.516.62.853.805.57-.366 1.2-.637 1.844-.805.346-.206.9-.02 1.123-.43l.158-.852c-.026-.02-.046-.057-.093-.048-.44-.253-.73-.692-.692-1.206-.15.074-.317.122-.496.13-.148-.036-.3-.074-.355-.225-.01-.186-.104-.467.085-.606.607-.375 1.394-.394 2.16-.338.57.076 1.394.047 1.592.72-.028.197-.01.413-.207.543-.206.112-.44-.01-.627-.095-.15.46-.402.974-.916 1.124l.064.542c.064.244.084.646.468.56.9.217 1.676.675 2.452 1.17.263-.26.468-.56.654-.833 1.387.47 2.583 1.508 3.727 2.473l.045-.787c-1.086-.965-2.292-1.647-3.547-2.18.048-.253.104-.497.114-.77a9.21 9.21 0 0 1 4.125 1.263l-.02-.673c-1.3-.693-2.704-1.15-4.247-1.17-.058-.084-.076-.206-.066-.3.75-.12 1.28-.897 1.46-1.573.385-.44.937-.917.806-1.57l.055-.17c.05-.16.1-.333.037-.485zm1.3 2.407l.767-.244.086-.43c.215-.628-.244-1.096-.47-1.592l-.384 2.265zm1.94 2.964c.365.403.72 1.048 1.367.852-.048-.272-.198-.497-.3-.74-.168-.196-.226-.758-.562-.56-.253-.168-.317-.45-.478-.674-.073.347-.027.777-.037 1.123zm.12 2.742c.14.196.18.45.318.628.253.167.628.14.938.112.28-.066.458.242.72.065-.327-.206-.523-.58-.83-.853-.366-.288-.76-.035-1.144.048zm.5 4.354c.646.383 1.466.758 2.328.627.093-.046.253-.037.27-.15-.534-.188-1.094-.72-1.654-.833-.3-.477-.712.122-1.105.084.01.1.12.195.16.27zm1.95 8.262l.14.3c.142.974.757 1.87.42 2.938.28.198.365.525.544.787h.046c.215-.813.066-1.656-.046-2.47.084-.74-.666-1.17-1.106-1.553zm.15-9.582c.486.375 1.263.4 1.824.225-.355-.196-.748-.413-1.04-.674l-.785.45zm2.32 2.87c-.046.394.215.72.496.92.103-.233.27-.432.3-.693a1.73 1.73 0 0 0-.674-1.04c-.064.262-.14.515-.1.814zm.03 4.27c-.067.44.42.496.625.74.17.206-.112.347-.112.543.356.458.563.98.563 1.6.14-.57.354-1.113.43-1.702-.038-.413-.692-.327-.6-.786.188-.468-.037-.926-.16-1.35-.036-.064-.122-.196-.195-.157-.17.382-.6.654-.562 1.122zm1.28-2.228l.486.945c.215-.028.355-.234.523-.384.13-.393-.216-.646-.317-.965-.085-.225 0-.523-.16-.72-.122-.076-.26-.198-.4-.16l-.13 1.283zm.63-2.5c.385.234.824.57 1.03.983.327.955.85 1.814 1.234 2.74l.43 1.858c.067.17.03.496.292.468l.224-2.134c-.234-.3-.542-.44-.833-.626v-.066c.038-.158.17-.347.365-.317.083-.094.337-.187.225-.356-.487-.486-.46-1.323-1.234-1.474-.272-.112-.337-.394-.365-.654-.366-.3-.908-.413-1.37-.423zm.44 5.073c.476.44.3 1.076.27 1.666-.074.356.374.148.515.337.3.43.122 1.058.02 1.525.253-.385.542-.72.738-1.143-.008-.158.197-.234.188-.43.083-.27-.234-.15-.366-.177-.112-.028-.233-.103-.195-.253.24-.468.018-1.03-.076-1.497-.112-.384.048-.9-.132-1.236-.3.414-1.2.507-.963 1.2zm.88-6.645l2.34 2.504c.02-.366-.028-.702-.046-1.058-.13-.253-.375-.44-.582-.628-.664-.064-1-.96-1.712-.818zm2.18 4.46c.02.086.058.16.096.243.364.6.7 1.218.964 1.863-.076-.693.392-1.553-.227-2.087-.083-.226-.362-.15-.542-.132l-.3.113zm2.24 6.836c.262.122.6-.093.852-.243.234-.056.43.076.6.197.074.15 0 .3.028.43.56.158 1.112.365 1.608.692l.158-.16c.038-.402-.28-.693-.58-.918-.195-.112-.487-.046-.626-.224.094-.15.094-.375.084-.543-.3 0-.506-.095-.757-.243-.16-.047-.3-.18-.432 0-.467.317-.495.786-.944 1zm.66-11.776c.233-.067.477-.132.673-.3.628-.57 1.535-.187 2.266-.196-.14-.253-.34-.506-.516-.72-.263-.103-.506-.224-.805-.224-.637-.375-1.066.253-1.554.56-.132.253-.196.627-.064.88zm.02 1.927c0-.03 0-.058.028-.065.086.074-.01.254.132.3.243-.122.468-.3.692-.45.627 0 1.002-.6 1.618-.6 1.03.188 2.05.395 2.948.898-.064-.606-.6-1.16-1.122-1.43-.3-.103-.535.056-.75.225-.626.394-.3-.57-.738-.6-.572.177-1.162.375-1.798.317-.374.142-.637.487-1.058.45-.017.3-.063.686.047.965zm.42 2.086c.196.208.523.17.805.208l.814-.32c.01-.147-.243-.187-.187-.355.225-.253.532-.074.814-.177.392-.057.795-.448 1.188-.16-.012.048.017.112-.02.16-.12.3.084.468.3.58.46.084.888.506 1.347.317-.046-.384-.148-.737-.242-1.104-.384-.065-.656-.383-1-.515-.158.15-.366.262-.562.243-.72-.17-1.583-.618-2.312-.16-.262.32-.73.225-1.086.365.02.318.058.628.143.917zm.32 5.564c-.056.16-.215.42.076.496.598.018 1.366-.3 1.834.177.16.122.083.375.073.534l.786.655c.075-.395.217-.75.227-1.17-.066-.3-.216-.6-.478-.785-.516 0-.814-.603-1.368-.53-.3-.064-.542.193-.833.193-.13.13-.205.3-.317.43zm.22-4.413c.12.253.263.665.496.692.552-.24 1.358-.392 1.975-.13.205.036.205.27.16.42.317.187.7.337 1.038.542l-.094-.562c-.02-.608-.785-.663-.833-1.263-.627-.205-1.33-.272-1.993-.112-.215.196-.525.17-.785.225-.02.075.026.123.036.187zm.16 3.033c.365-.104.6-.505.993-.543a1.83 1.83 0 0 1 1.507.77c.224.147.177.53.468.53-.086-.458.064-.878.045-1.348-.4-.654-1.365-.148-1.73-.917l-.692.047c-.497.123-.365.703-.43 1.097-.057.12-.17.214-.16.363zm3.44 4.093c.3.58.927 1.02 1 1.684.15-.177.253-.383.355-.58-.01-.187-.225-.187-.308-.337-.086-.243.045-.458.083-.674-.122-.346-.413-.673-.74-.88l-.382.787zm1.16-1.478l.673.918c.3-.458.3-1.133.177-1.685-.064-.104-.187-.272-.354-.196-.253.26-.3.664-.496.963zm-2.76-25.616c.243.122.477.234.77.253.195-.103.45-.18.692-.112.346.225.767-.047 1.17-.028-.356-.337-.76-.544-1.17-.74-.525.1-.945.486-1.46.627zm3.66.878c.496.047.853.487 1.188.852.42.064.74.365 1 .673l-.157-.495c-.112-.497-.423-.88-.74-1.274-.45.03-.9.068-1.282.244z"/></g><path d="M119.98 5.75l.272.03c.728.365 1.907.552 1.975 1.6-.74.3-1.452.683-2.042 1.282-.448-.458-1.356-.206-1.507-1 .142-.76.412-1.715 1.302-1.9zm.7 4.746c.852-.076 1.675.045 2.555-.03a1.12 1.12 0 0 1 .542.495c-.03 1-.337 1.976-.383 3.014-.384.158-.76.478-.853.898-.346.103-.656.308-.993.467-.147-.317-.12-.795.142-1.058.365-.514 1.3-.394 1.236-1.208.243-.392.01-.898.017-1.3-.093-.3-.187.103-.336.093-.3.064-.607.083-.87-.067-.197-.206-.438-.375-.496-.654-.263-.13-.57-.336-.702-.608l.14-.034zm1.02 6.1c.4.058.823-.122 1.17.076-.073.132-.27.187-.43.225l-.628.3c-.233-.055-.102-.43-.1-.6zm1.65-7.813c.4-.13.833-.4 1.263-.272-.308.3-.55.7-.785 1.086l-1.282-.028c.14-.338.496-.617.804-.786zm3.75-.308c.533-.093.504.6 1 .625.086.112.208.215.16.384-.282.112-.693.058-1 .13-.422-.234-.15-.964-.814-.917-.037-.057-.1-.17-.02-.206.206-.074.48-.046.693-.017zm-.33 2.506c.234-.328.6-.355.927-.42l2.424.045c.103.095-.094.18-.094.3-.15.14-.365.18-.496.3-.318.01-.3.384-.514.544-.347.346-.853.186-1.255.13-.14-.104-.3-.244-.366-.403l-.112.112c.14.525.104 1.105.208 1.638l.58.384c.01.86 1.02.626 1.46 1.104-.103.3-.3.57-.533.833-.355-.346-.76-.57-1.188-.72-.038-.503-.6-.804-.897-1.056l-.253-2.743.1-.048zm.88 5.775h1.124l-.14.6-1.125-.477c-.026-.093.076-.12.142-.112zm2.02-10.602l.833-.262c.478.224.926.504 1.366.823.346.636.3 1.497.13 2.208-.253.28-.805 0-1 .45h-.04c-.308-.88-1.188-1.667-2.002-2.067.13-.45.272-.9.72-1.15z" fill="#f60"/></g></g></svg>