<svg width="467" height="64" xmlns="http://www.w3.org/2000/svg"><g fill-rule="nonzero" fill="none"><path d="M98.7329072 26v12.0458522h16.1360058c-2.58927 8.0540512-10.226565 13.9043267-19.2232519 13.9043267-7.3993507 0-15.8207556-3.9729483-20.5977042-9.9035956C72.8261437 45.8131446 70.4718048 49.239366 68 52.303418 75.2276698 59.537875 85.7704896 64 95.6456611 64 113.485426 64 128 49.6541243 128 32.0239183V26H98.7329072z" fill="#1A80C3"/><path d="M99 .15292237C97.9811407.05362214 96.9522433 0 95.913308 0c-8.3124867 0-15.8610799 3.16767777-22.434981 9.41068409-5.021019 4.77038371-9.4558175 11.27852171-13.5513308 19.88983881-8.0836198 15.0251198-17.3627681 22.6404555-27.5804715 22.6404555-11.1161064 0-20.1593612-8.9469519-20.1593612-19.9414749 0-10.995516 9.0432548-19.9434609 20.160365-19.9434609 4.0393004-.000993 7.9360609 1.1767079 11.2666768 3.4020263l6.8228441-9.99059749C45.0847757 1.89166964 38.828076 0 32.3465247 0 14.5109658 0 0 14.3548432 0 31.9995035 0 49.6431708 14.5109658 64 32.3465247 64c8.2733384 0 16.0287148-3.0534825 23.0563346-9.0730633 5.6222966-4.8190408 10.7908745-11.5823804 15.3591787-20.1033343l.1345095-.2661246c7.1751787-15.1403082 15.3581749-22.5014352 25.0157567-22.5014352 1.0469658 0 2.0768669.0853982 3.086692.2403066V.15292237H99z" fill="#002F5E"/><g fill="#002F5E"><path d="M179.124 41.14c-2.152 2.151-5.608 3.542-8.807 3.542-8.786 0-11.968-6.099-12.017-11.807-.029-3.453 1.195-6.685 3.361-8.871 2.136-2.155 5.048-3.246 8.656-3.246 3.276 0 6.269 1.164 8.428 3.274l.964.944 6.887-6.652-1.013-1c-4.213-4.153-9.492-6.349-15.267-6.349-6.43 0-11.914 2.096-15.86 6.062-3.95 3.973-6.197 9.752-6.164 15.855.054 9.899 5.854 21.46 22.023 21.46 6.212 0 11.666-2.14 15.769-6.186l.99-.975-6.965-7.043-.985.992zM213.087 10.977c-14.712 0-21.412 11.357-21.412 21.91 0 10.685 6.621 21.468 21.412 21.468 14.587 0 21.236-10.803 21.354-21.507.066-6.113-2.168-11.917-6.135-15.926-3.847-3.89-9.109-5.945-15.219-5.945zm0 33.872c-10.296 0-11.334-9.099-11.408-11.886-.093-3.704 1.134-7.143 3.365-9.433 2.008-2.06 4.714-3.104 8.042-3.104 3.296 0 5.974 1.021 7.956 3.037 2.22 2.258 3.456 5.705 3.393 9.456-.1 5.768-3.134 11.93-11.348 11.93zM242.679 11.754h10.06v41.71h-10.06zM288.009 33.289l-17.017-21.535h-8.013v41.711h10.116V29.861l18.404 23.604h6.626V11.7h-10.116z"/><g><path d="M325.496 37.501h9.956v4.828c-2.301 1.705-4.49 2.409-7.401 2.409-8.86 0-12.017-6.007-12.017-11.627 0-7.753 4.83-12.963 12.017-12.963 3.205 0 6.715 1.377 8.941 3.509l.992.949 6.485-6.643-.983-.97c-4.152-4.094-9.635-6.351-15.436-6.351-6.815 0-12.516 2.388-16.483 6.903-3.536 4.023-5.484 9.552-5.484 15.565 0 10.269 5.772 21.245 21.968 21.245 6.748 0 12.165-2.45 16.564-7.484l.343-.393V28.164h-19.461v9.337h-.001zM392.906 21.204h12.347v32.261h10.118V21.204h12.348v-9.45h-34.813zM466.763 21.649v-9.895h-31.919v41.711h31.919V43.459h-21.859v-6.014h21.08V27.83h-21.08v-6.181zM377.505 11.754h-9.804l-18.71 41.711h10.988l12.622-28.676 12.562 28.676h11.051z"/></g></g></g></svg>