<svg width="231" height="32" viewBox="0 0 231 32" fill="none" xmlns="http://www.w3.org/2000/svg">
<path d="M34.4171 27.9883C30.2018 27.9883 27.0634 25.0722 26.6591 20.9478H43.2521C45.0912 13.6373 41.0101 8.16602 33.6997 8.16602C27.5109 8.16602 22.4395 13.5074 22.4395 20.0499C22.4395 26.8219 27.5975 31.9337 34.4128 31.9337C39.5709 31.9337 43.5163 29.289 45.3107 25.2527L41.8619 23.0988C40.7864 26.0149 38.185 27.9883 34.4171 27.9883ZM33.6953 11.9786C37.5079 11.9786 39.7499 14.2205 39.6604 17.5394H26.8786C27.6466 14.0415 30.157 11.9829 33.6997 11.9829L33.6953 11.9786Z" fill="#2722FF"/>
<path d="M59.8394 8.16602C56.8353 8.16602 54.3234 9.55622 52.5304 11.4863V8.83874H48.4883V31.261H52.5304V19.4666C52.5304 15.5212 55.2213 12.1129 59.6157 12.1129C63.2926 12.1129 65.4912 14.4443 65.4912 17.8079V31.261H69.5333V17.4499C69.5261 11.4849 65.8045 8.16602 59.8394 8.16602Z" fill="#2722FF"/>
<path d="M106.986 31.9352C112.143 31.9352 116.09 29.2904 117.884 25.2541L114.432 23.1002C113.355 26.0149 110.754 27.9883 106.988 27.9883C102.772 27.9883 99.6252 25.0722 99.2297 20.9463H115.823C117.66 13.6373 113.581 8.16602 106.27 8.16602C100.081 8.16602 95.01 13.5074 95.01 20.0499C95.0143 26.8233 100.171 31.9352 106.986 31.9352ZM106.264 11.9844C110.077 11.9844 112.319 14.2263 112.229 17.5452H99.4477C100.216 14.043 102.728 11.9844 106.264 11.9844Z" fill="#2722FF"/>
<path d="M82.5893 12.0127C85.1878 12.0127 87.4327 12.6854 89.9893 14.7036L90.1091 14.3181L92.2616 8.43538L88.9412 7.36133L88.3349 9.75051C86.7036 8.89734 84.7475 8.20729 82.6341 8.20729C77.2075 8.20729 74.2019 10.7192 74.2019 14.4856C74.2019 18.2087 77.4761 20.0464 82.5431 21.6618C86.669 22.9177 87.8354 24.1275 87.8354 25.2939C87.8354 27.1778 85.9963 28.2533 83.3963 28.2533C80.0327 28.2533 77.1628 26.5499 75.6369 23.9485L72.5432 26.5051C74.4199 29.554 78.1935 31.9764 83.2159 31.9764C89.1347 31.9764 92.006 28.8366 92.006 24.8897C92.006 22.2912 90.2564 20.1373 83.5753 17.9387C80.5712 16.908 78.3783 16.3247 78.3783 14.3961C78.3769 12.9987 79.3195 12.0127 82.5893 12.0127Z" fill="#2722FF"/>
<path d="M10.049 12.0003C12.6475 12.0003 14.8923 12.6731 17.449 14.6912L17.5688 14.3058L19.7169 8.42451L16.3966 7.3418L15.7917 9.73098C14.1604 8.87781 12.2043 8.1892 10.0894 8.1892C4.66433 8.1892 1.65871 10.6996 1.65871 14.4675C1.65871 18.1891 4.93284 20.0283 9.99993 21.6423C14.1258 22.8982 15.2922 24.108 15.2922 25.2744C15.2922 27.1511 13.453 28.2338 10.8517 28.2338C7.48947 28.2338 4.61956 26.5303 3.09366 23.9289L0 26.4856C1.8767 29.5345 5.6503 31.9569 10.6726 31.9569C16.5915 31.9569 19.4628 28.817 19.4628 24.8716C19.4628 22.2731 17.7132 20.1178 11.0321 17.9206C8.02649 16.8884 5.83509 16.3052 5.83509 14.378C5.83364 12.9921 6.77633 12.0003 10.049 12.0003Z" fill="#2722FF"/>
<path d="M153.524 20.081C153.524 26.866 148.667 32.0009 142.19 32.0009C139.312 32.0009 136.793 30.7406 134.86 28.8062V31.3282H130.818V0.0175781H134.86V11.3557C136.793 9.4213 139.312 8.16246 142.19 8.16246C148.667 8.16246 153.524 13.2902 153.524 20.081ZM149.297 20.081C149.297 15.4484 146.238 12.1209 142.01 12.1209C137.782 12.1209 134.724 15.4412 134.724 20.081C134.724 24.7207 137.783 28.0425 142.01 28.0425C146.237 28.0425 149.297 24.7135 149.297 20.081Z" fill="#2722FF"/>
<path d="M178.9 27.259C178.745 27.2604 178.59 27.2355 178.444 27.1854C178.002 27.0309 177.741 26.6354 177.741 26.0551L178.237 20.1203L178.445 18.0459L179.346 8.82838H175.33L175.024 12.2714L175.016 12.2599L174.952 12.1602C174.663 11.7381 174.324 11.3532 173.941 11.014C172.096 9.36252 169.782 8.31445 167.168 8.31445C160.746 8.31445 155.932 13.3974 155.932 20.1305C155.932 26.8635 160.746 31.945 167.168 31.945C169.97 31.945 172.43 30.7396 174.332 28.8788C174.35 29.0851 174.398 29.2876 174.477 29.4793C174.49 29.5125 174.492 29.5226 174.492 29.5212C174.691 29.9326 174.984 30.2919 175.346 30.5707C175.833 30.922 176.4 31.1454 176.996 31.2203C177.259 31.2581 177.524 31.2769 177.79 31.2766H179.931V27.259H178.9ZM167.342 28.0198C163.156 28.0198 160.124 24.7211 160.124 20.129C160.124 15.5369 163.156 12.2368 167.342 12.2368C171.529 12.2368 174.56 15.5369 174.56 20.129C174.56 24.7211 171.533 28.0198 167.342 28.0198Z" fill="#2722FF"/>
<path d="M195.522 8.16602C192.518 8.16602 190.006 9.55622 188.213 11.4863V8.83874H184.171V31.261H188.213V19.4666C188.213 15.5212 190.904 12.1129 195.298 12.1129C198.975 12.1129 201.172 14.4443 201.172 17.8079V31.261H205.214V17.4499C205.209 11.4849 201.487 8.16602 195.522 8.16602Z" fill="#2722FF"/>
<path d="M217.913 19.6837L229.522 8.83637H224.233L213.924 18.5173V0H209.89V31.2471H213.924V21.3872L224.861 31.2471H230.733L217.913 19.6837Z" fill="#2722FF"/>
</svg>
