<?xml version="1.0" encoding="UTF-8"?>
<svg version="1.1" viewBox="0 0 217.29 109.6" xml:space="preserve" xmlns="http://www.w3.org/2000/svg" xmlns:cc="http://creativecommons.org/ns#" xmlns:dc="http://purl.org/dc/elements/1.1/" xmlns:rdf="http://www.w3.org/1999/02/22-rdf-syntax-ns#"><metadata><rdf:RDF><cc:Work rdf:about=""><dc:format>image/svg+xml</dc:format><dc:type rdf:resource="http://purl.org/dc/dcmitype/StillImage"/><dc:title/></cc:Work></rdf:RDF></metadata><g transform="matrix(1.25 0 0 -1.25 -273.86 591.36)"><g transform="translate(353.26 437.51)"><path d="m0 0v-16.517h21.864c-3.509-11.041-13.857-19.063-26.047-19.063-10.027 0-21.439 5.449-27.911 13.578-3.012-5.163-6.2-9.859-9.55-14.06 9.793-9.919 24.079-16.036 37.461-16.036 24.173 0 43.84 19.667 43.84 43.84v8.258h-39.657z" fill="#3c7ec9"/></g><g transform="translate(353.26 472.88)"><path d="m0 0c-1.381 0.133-2.775 0.209-4.183 0.209-11.265 0-21.496-4.34-30.406-12.896-6.807-6.535-12.814-15.45-18.365-27.248-10.957-20.583-23.533-31.018-37.379-31.018-15.064 0-27.322 12.258-27.322 27.322 0 15.065 12.258 27.322 27.322 27.322 5.477 1e-3 10.757-1.612 15.27-4.661l9.247 13.686c-7.255 4.901-15.733 7.493-24.517 7.493-24.174 0-43.84-19.667-43.84-43.84s19.666-43.84 43.84-43.84c11.211 0 21.724 4.183 31.246 12.43 7.621 6.601 14.625 15.866 20.817 27.541l0.183 0.364c9.724 20.743 20.814 30.827 33.904 30.827 1.417 0 2.813-0.115 4.183-0.328v16.637z" fill="#152d57"/></g></g></svg>
