<svg width="242" height="44" viewBox="0 0 242 44" fill="none" xmlns="http://www.w3.org/2000/svg">
<path fill-rule="evenodd" clip-rule="evenodd" d="M183 3.19995V34H189.8V3.19995H183ZM155.23 27.52H144.71L144.79 27.48L147.39 25.2C148.59 24.1333 149.417 23.4 149.87 23C150.35 22.5733 150.99 21.9466 151.79 21.12C152.617 20.2666 153.177 19.5733 153.47 19.04C153.764 18.48 154.044 17.8133 154.31 17.04C154.577 16.24 154.71 15.4133 154.71 14.56C154.71 12.0266 153.804 9.87995 151.99 8.11995C150.204 6.35995 147.79 5.47995 144.75 5.47995C141.63 5.47995 139.057 6.41328 137.03 8.27995C135.03 10.1466 133.977 12.64 133.87 15.76H140.71C141.004 13.2266 142.244 11.96 144.43 11.96C145.604 11.96 146.457 12.2533 146.99 12.84C147.55 13.4 147.83 14.08 147.83 14.88C147.83 15.7066 147.484 16.5066 146.79 17.28C146.124 18.0533 144.444 19.6266 141.75 22L133.55 29.16V34H155.23V27.52ZM79.2802 14.72C77.3869 12.56 75.0535 11.48 72.2802 11.48C69.6402 11.48 67.5469 12.48 66.0002 14.48V12H59.2002V44H66.0002V31.64C67.6002 33.56 69.6802 34.52 72.2402 34.52C75.0669 34.52 77.4269 33.44 79.3202 31.28C81.2135 29.12 82.1602 26.36 82.1602 23C82.1602 19.64 81.2002 16.88 79.2802 14.72ZM107.118 12H100.318V14.48C98.7713 12.48 96.678 11.48 94.038 11.48C91.2647 11.48 88.918 12.56 86.998 14.72C85.1047 16.88 84.158 19.64 84.158 23C84.158 26.36 85.1047 29.12 86.998 31.28C88.8913 33.44 91.2513 34.52 94.078 34.52C96.638 34.52 98.7047 33.56 100.278 31.64V34H107.078L107.118 12ZM95.678 28.04C94.3447 28.04 93.238 27.5866 92.358 26.68C91.478 25.7466 91.038 24.52 91.038 23C91.038 21.5066 91.478 20.2933 92.358 19.36C93.238 18.4266 94.3447 17.96 95.678 17.96C97.0113 17.96 98.118 18.4266 98.998 19.36C99.878 20.2933 100.318 21.5066 100.318 23C100.318 24.52 99.878 25.7466 98.998 26.68C98.118 27.5866 97.0113 28.04 95.678 28.04ZM125.321 12H132.561L118.521 44H111.281L117.001 30.96L108.721 12H115.961L120.601 23.48L125.321 12ZM170.722 11.48C173.496 11.48 175.829 12.56 177.722 14.72C179.642 16.88 180.602 19.64 180.602 23C180.602 26.36 179.656 29.12 177.762 31.28C175.869 33.44 173.509 34.52 170.682 34.52C168.122 34.52 166.042 33.56 164.442 31.64V44H157.642V12H164.442V14.48C165.989 12.48 168.082 11.48 170.722 11.48ZM208.341 12H215.141L215.101 34H208.301V31.64C206.728 33.56 204.661 34.52 202.101 34.52C199.275 34.52 196.915 33.44 195.021 31.28C193.128 29.12 192.181 26.36 192.181 23C192.181 19.64 193.128 16.88 195.021 14.72C196.941 12.56 199.288 11.48 202.061 11.48C204.701 11.48 206.795 12.48 208.341 14.48V12ZM200.381 26.68C201.261 27.5866 202.368 28.04 203.701 28.04C205.035 28.04 206.141 27.5866 207.021 26.68C207.901 25.7466 208.341 24.52 208.341 23C208.341 21.5066 207.901 20.2933 207.021 19.36C206.141 18.4266 205.035 17.96 203.701 17.96C202.368 17.96 201.261 18.4266 200.381 19.36C199.501 20.2933 199.061 21.5066 199.061 23C199.061 24.52 199.501 25.7466 200.381 26.68ZM240.584 12H233.344L228.624 23.48L223.984 12H216.744L225.024 30.96L219.304 44H226.544L240.584 12ZM75.5578 22.7529C76.1474 23.0849 76.1474 23.9151 75.5578 24.2471L67.3265 28.8831C66.737 29.2152 66 28.8001 66 28.136V18.864C66 18.1999 66.737 17.7848 67.3265 18.1169L75.5578 22.7529ZM173.958 22.7529C174.548 23.0849 174.548 23.9151 173.958 24.2471L165.727 28.8831C165.137 29.2152 164.4 28.8001 164.4 28.136V18.864C164.4 18.1999 165.137 17.7848 165.727 18.1169L173.958 22.7529Z" fill="white"/>
<circle cx="20" cy="22" r="20" fill="#FC4A33"/>
<path d="M34.4273 20.9921C35.1909 21.4401 35.1909 22.5599 34.4273 23.0079L15.9582 33.8423C15.1946 34.2903 14.2401 33.7304 14.2401 32.8345L14.2401 29.9268C14.2401 29.2841 14.7529 28.763 15.3855 28.763H17.5903C18.2229 28.763 18.7357 28.242 18.7357 27.5993V25.2717C18.7357 24.629 18.2229 24.1079 17.5903 24.1079H15.3855C14.7529 24.1079 14.2401 23.5869 14.2401 22.9442V20.6166C14.2401 19.9739 14.7529 19.4528 15.3855 19.4528H17.5903C18.2229 19.4528 18.7357 18.9318 18.7357 18.2891V15.9615C18.7357 15.3188 18.2229 14.7977 17.5903 14.7977H15.3855C14.7529 14.7977 14.2401 14.2767 14.2401 13.634L14.2401 11.1655C14.2401 10.2696 15.1946 9.70972 15.9582 10.1577L34.4273 20.9921Z" fill="white"/>
<path d="M13.5815 15.9615C13.5815 15.3188 13.0687 14.7977 12.4361 14.7977H10.1454C9.5128 14.7977 9 15.3188 9 15.9615V18.2891C9 18.9318 9.5128 19.4528 10.1454 19.4528H12.4361C13.0687 19.4528 13.5815 18.9318 13.5815 18.2891V15.9615Z" fill="white"/>
<path d="M13.5815 25.2717C13.5815 24.629 13.0687 24.1079 12.4361 24.1079H10.1454C9.5128 24.1079 9 24.629 9 25.2717V27.5993C9 28.242 9.5128 28.763 10.1454 28.763H12.4361C13.0687 28.763 13.5815 28.242 13.5815 27.5993V25.2717Z" fill="white"/>
</svg>
