<?xml version="1.0" encoding="UTF-8" standalone="no"?>
<svg
   width="271.655"
   height="245.78348"
   viewBox="0 0 271.655 245.78348"
   fill="none"
   version="1.1"
   id="svg97"
   sodipodi:docname="Frame 6356482_icon.svg"
   inkscape:version="1.1.2 (0a00cf5339, 2022-02-04)"
   xmlns:inkscape="http://www.inkscape.org/namespaces/inkscape"
   xmlns:sodipodi="http://sodipodi.sourceforge.net/DTD/sodipodi-0.dtd"
   xmlns="http://www.w3.org/2000/svg"
   xmlns:svg="http://www.w3.org/2000/svg">
  <defs
     id="defs101" />
  <sodipodi:namedview
     id="namedview99"
     pagecolor="#ffffff"
     bordercolor="#666666"
     borderopacity="1.0"
     inkscape:pageshadow="2"
     inkscape:pageopacity="0.0"
     inkscape:pagecheckerboard="0"
     showgrid="false"
     inkscape:snap-global="false"
     inkscape:zoom="0.89216202"
     inkscape:cx="-69.494104"
     inkscape:cy="122.17512"
     inkscape:window-width="1920"
     inkscape:window-height="998"
     inkscape:window-x="0"
     inkscape:window-y="1200"
     inkscape:window-maximized="1"
     inkscape:current-layer="svg97" />
  <path
     fill-rule="evenodd"
     clip-rule="evenodd"
     d="m 199.72,5.683275 c 7.58,-7.5777 19.87,-7.5777 27.44,0 l 38.81,38.8079 c 7.58,7.5778 7.58,19.8638 0,27.4418 l -38.81,38.807995 c -7.57,7.577 -19.86,7.577 -27.44,0 -7.58,-7.578 -7.58,-19.863995 0,-27.441995 l 5.69,-5.683 h -4.9 c -25.01,0 -45.28,20.271 -45.28,45.276005 0,46.43799 -37.64,84.08399 -84.08,84.08399 H 19.4 c -10.71,0 -19.4,-8.68799 -19.4,-19.404 0,-10.717 8.69,-19.40399 19.4,-19.40399 h 51.75 c 25,0 45.27,-20.27101 45.27,-45.276 0,-46.438005 37.65,-84.084005 84.09,-84.084005 h 4.9 l -5.69,-5.6833 c -7.58,-7.5778 -7.58,-19.8637 0,-27.4414 z M 0,58.211975 c 0,-10.7166 8.69,-19.404 19.4,-19.404 h 51.75 v 19.404 c 0,-19.404 0,-19.404 0.01,-19.404 h 0.02 l 0.04,1e-4 0.1,5e-4 0.24,0.0025 c 0.18,0.0026 0.41,0.0071 0.69,0.015 0.55,0.0158 1.28,0.0451 2.18,0.0993 1.78,0.108 4.22,0.3164 7.14,0.7195 5.79,0.7988 13.75,2.401 22.33,5.6736 10.02,3.8177 15.04,15.0305 11.22,25.0435 -3.82,10.013 -15.03,15.036 -25.04,11.218 -5.16,-1.965 -10.12,-2.981 -13.82,-3.492 -1.82,-0.251 -3.26,-0.37 -4.18,-0.426 -0.46,-0.028 -0.78,-0.039 -0.94,-0.044 -0.04,-0.001 -0.07,-0.002 -0.09,-0.002 H 19.4 c -10.71,0 -19.4,-8.688 -19.4,-19.404 z m 199.72,76.831005 c 7.58,-7.578 19.87,-7.578 27.44,0 l 38.81,38.80799 c 3.64,3.63901 5.68,8.57401 5.68,13.721 0,5.146 -2.04,10.081 -5.68,13.72 l -38.81,38.80801 c -7.57,7.57799 -19.86,7.57799 -27.44,0 -7.58,-7.577 -7.58,-19.863 0,-27.441 l 5.69,-5.683 h -4.9 v -19.40401 c 0,19.404 -0.01,19.404 -0.01,19.404 h -0.01 -0.02 -0.04 l -0.09,-10e-4 -0.24,-0.003 c -0.19,-0.002 -0.42,-0.007 -0.69,-0.015 -0.56,-0.015 -1.29,-0.045 -2.18,-0.099 -1.79,-0.108 -4.23,-0.316 -7.15,-0.72 -5.79,-0.799 -13.75,-2.402 -22.34,-5.677 -10.01,-3.818 -15.03,-15.031 -11.21,-25.044 3.81,-10.013 15.03,-15.035 25.04,-11.216 5.16,1.966 10.12,2.983 13.82,3.494 1.82,0.252 3.27,0.371 4.18,0.426 0.46,0.028 0.78,0.04 0.94,0.044 0.04,0.002 0.07,0.002 0.1,0.003 h 4.8 l -5.69,-5.684 c -7.58,-7.577 -7.58,-19.863 0,-27.441 z"
     fill="#faf8d4"
     id="path95" />
</svg>
