<svg xmlns="http://www.w3.org/2000/svg" height="147.656" width="232.031" fill="#333333" stroke-width=".501" stroke-linejoin="bevel" fill-rule="evenodd" overflow="visible" viewBox="0 0 74.25 47.25" xmlns:v="https://vecta.io/nano"><path d="M51 35.564V35.2H5.25v-5.243H0V0h63.749v5.243h5.25v12.283c1.414 1.936 2.251 4.325 2.251 6.908l-.001.42c1.864 2.073 3.001 4.819 3.001 7.83v2.88c0 6.45-5.208 11.686-11.625 11.686S51 42.014 51 35.564zm12.564 10.721v-2.436c-.31.026-.624.039-.94.039-.154 0-.307-.003-.459-.009l.001 2.406zm-3.261-.597l-.001-2.044c-.478-.102-.945-.234-1.398-.396l.001 2.44zm6.197 0v-2.497c-.453.17-.92.309-1.398.419v2.078zm-8.853-1.553l-.001-1.425a11.18 11.18 0 0 1-1.398-.836l.001 2.261zm11.508 0v-2.373c-.443.322-.91.613-1.398.868v1.505zm2.994-11.451a9.56 9.56 0 0 0-.959-4.185C70.599 34.393 65.644 39 59.625 39c-1.797 0-3.498-.41-5.017-1.142 1.696 2.647 4.654 4.4 8.016 4.4 5.257 0 9.525-4.29 9.525-9.574zM54.71 41.832l-.001-1.262a11.03 11.03 0 0 1-1.117-1.322l.001 2.584zm17.101 0v-2.639h-.116c-.306.429-.639.835-1 1.216v1.423zm-18.908-3.409l-.001-.256a11.21 11.21 0 0 1-.7-1.501l.001 1.757zm20.298 0v-2.198c-.19.574-.425 1.126-.7 1.654v.544zm-12.637-.388v-2.436c-.31.026-.624.039-.94.039-.154 0-.307-.003-.459-.009l.001 2.406zm-3.261-.597l-.001-2.044c-.478-.102-.945-.234-1.398-.396l.001 2.44zm6.197 0v-2.497c-.453.17-.92.309-1.398.419v2.078zm-8.853-1.553l-.001-1.425a11.18 11.18 0 0 1-1.398-.836l.001 2.261zm11.508 0v-2.373c-.443.322-.91.613-1.398.868v1.505zm2.994-11.451c0-5.284-4.268-9.573-9.525-9.573s-9.525 4.289-9.525 9.573 4.268 9.574 9.525 9.574 9.525-4.29 9.525-9.574zM51.71 33.582l-.001-1.262a11.03 11.03 0 0 1-1.117-1.322l.001 2.584zm17.101 0v-2.639h-.116c-.306.429-.639.835-1 1.216v1.423zm-20.513-3.625H7.5v2.996h41.941c-.51-.928-.899-1.934-1.143-2.996zm1.605.216l-.001-.256a11.21 11.21 0 0 1-.7-1.501l.001 1.757zm20.298 0v-2.198c-.19.574-.425 1.126-.7 1.654v.544zm-13.813-.494v-2.531h1.584v-5.095c-.555.147-1.453.114-1.584.098v-2.45c1.601.049 2.858-.572 3.446-1.339H61.5v8.786h1.518v2.531zM48 27.314v-2.88c0-6.449 5.207-11.684 11.625-11.684.637 0 1.263.052 1.873.152V9.501c-3.585-.846-6.41-3.669-7.26-7.254H9.509A9.8 9.8 0 0 1 2.25 9.501v10.957a9.8 9.8 0 0 1 7.259 7.254h38.497L48 27.314zM18.889 15.093c0-6.362 5.814-11.526 12.976-11.526s12.976 5.164 12.976 11.526-5.814 11.526-12.976 11.526-12.976-5.164-12.976-11.526zm22.274.15c0-3.658-2.155-5.732-4.768-5.732-2.793 0-4.785 2.319-4.785 5.732 0 3.658 2.205 5.732 4.785 5.732 2.368 0 4.768-1.796 4.768-5.732zM31.06 20.828v-2.531h-1.518V9.511h-1.666c-.588.767-1.845 1.388-3.446 1.339v2.45c.131.016 1.029.049 1.584-.098v5.095H24.43v2.531zm4.175-5.585c-.016-2.221.261-3.381 1.16-3.381.816 0 1.143.915 1.143 3.381 0 2.319-.229 3.38-1.143 3.38-.947 0-1.143-1.143-1.16-3.38zm31.514-.04V7.49h-3v6.018a11.62 11.62 0 0 1 3 1.695z"/></svg>