<?xml version="1.0" encoding="UTF-8"?>
<svg width="301.81" height="121.52" version="1.1" viewBox="0 0 607.4355 121.51741" xmlns="http://www.w3.org/2000/svg" xmlns:cc="http://creativecommons.org/ns#" xmlns:dc="http://purl.org/dc/elements/1.1/" xmlns:rdf="http://www.w3.org/1999/02/22-rdf-syntax-ns#">
<metadata>
<rdf:RDF>
<cc:Work rdf:about="">
<dc:format>image/svg+xml</dc:format>
<dc:type rdf:resource="http://purl.org/dc/dcmitype/StillImage"/>
<dc:title>Пиастрикс Лого Piastrix Logo</dc:title>
</cc:Work>
</rdf:RDF>
</metadata>
<defs>
<style>#logo_1 {stroke-width:4;stroke-dasharray: 245;stroke-dashoffset: 245;animation:draw_1 4s forwards;}
      @keyframes draw_1 {75% {stroke-width: 3;stroke-dashoffset:0;}
        100% {stroke-dashoffset:0;stroke-width: 0;fill:rgba(255,64,129,1);}}
      #logo_2 {stroke-width:4;stroke-dasharray:145;stroke-dashoffset:145;animation: draw_2 4s forwards;}
      @keyframes draw_2 {75% {stroke-width:3;stroke-dashoffset: 0;}
        100% {stroke-dashoffset: 0;stroke-width: 0;fill: rgba(255, 216, 0, 1);}}
      #logo_3 {stroke-width:2;stroke-dasharray: 469;stroke-dashoffset: 469;animation: draw_3 4s forwards;}
      @keyframes draw_3 {75% {stroke-width: 3;stroke-dashoffset: 0;}
        100% {stroke-dashoffset: 0;stroke-width: 0;fill:rgba(3, 169, 244, 1);}}</style>
</defs>
<title>Пиастрикс Лого Piastrix Logo</title>
<g transform="translate(2.6955 -59.526)" fill="rgba(255, 64, 129, 1)" stroke="#ff4081" stroke-dasharray="245" stroke-dashoffset="245" stroke-width="4">
<path class="cls-2" d="m99.53 97.24q-12.19-19.24-14.2-39.92-17.73-14.4-56.54-14.14a74.9 74.9 0 0 0 4.62 30.82h-0.26a60.66 60.66 0 0 0 11.06 17.24 0.74 0.74 0 0 0 0.26 0.51 37.49 37.49 0 0 0 5.4 4.88q17.07 13.08 40.45 16.2a30.79 30.79 0 0 1 9.21 -15.59z"/>
<path class="cls-2" d="m49.86 157.81h-0.26q-11.05 16.71-14.14 47.81 17 2.57 31.36-1.54a60.33 60.33 0 0 0 22.36 -12.34v-0.26l1.54-1.54h0.28q15.37-16.26 20.5-40.46a30.79 30.79 0 0 1 -12.5 -7.27q-23.57 15.37-49.14 15.6z"/>
<path class="cls-2" d="m44.72 103.07a59.11 59.11 0 0 1 -4.88 -4.37q-18 4.88-39.84 22.36a70.91 70.91 0 0 0 22.88 21.33 55.18 55.18 0 0 0 24.67 7.2h2.31q23-0.22 44-13.81a30.56 30.56 0 0 1 -4.36 -14.71q-25.71-3.43-44.78-18z"/>
<path class="cls-2" d="m136.62 93.9q12.15-18.72 13.74-38.64v-0.51a44.27 44.27 0 0 0 0.26 -4.88 54.89 54.89 0 0 0 -7.45 -27q-7.17-12.82-21.28-22.87h-0.06q-14.14 10-21.33 22.88a54.89 54.89 0 0 0 -7.45 27 44.27 44.27 0 0 0 0.26 4.88v0.51q1.53 19.21 12.92 37.31a30.55 30.55 0 0 1 30.4 1.33z"/>
<path class="cls-2" d="m147.53 184.8v-0.26q-2.4-18.94-13.31-37.15a30.58 30.58 0 0 1 -14 3.38h-0.6q-5.62 26.59-22.72 44.57a0.23 0.23 0 0 0 -0.26 0.26 0.23 0.23 0 0 1 -0.26 0.26q3.86 19.79 23.9 44a74.54 74.54 0 0 0 21.08 -23.13 55.83 55.83 0 0 0 6.94 -21.59 2.76 2.76 0 0 1 -0.51 -1.54 29.92 29.92 0 0 0 -0.26 -8.8z"/>
</g>
<g transform="translate(2.6955 -59.526)" fill="rgba(255, 216, 0, 1)" stroke="#ffd800" stroke-dasharray="145" stroke-dashoffset="145" stroke-width="4">
<path class="cls-3" d="m112.32 98.35c-0.39 0.13-0.8 0.23-1.18 0.4a22.48 22.48 0 0 0 -13.61 24.9c0.12 0.67 0.24 1.34 0.41 2s0.38 1.33 0.61 2a23.75 23.75 0 0 0 8.45 11.15c0.33 0.22 0.65 0.44 1 0.65a23 23 0 0 0 2.26 1.23c0.54 0.27 1.09 0.53 1.66 0.76a23 23 0 0 0 8.4 1.63c0.27 0 0.52-0.07 0.78-0.08v-0.08a25.64 25.64 0 0 0 8.83 -2 23 23 0 0 0 -13.78 -43.62c-0.33 0.07-0.65 0.12-1 0.2a22.76 22.76 0 0 0 -2.83 0.86z"/>
</g>
<g transform="translate(2.6955 -59.526)" fill="rgba(3, 169, 244, 1)" stroke="#03a9f4" stroke-dasharray="469" stroke-dashoffset="469" stroke-width="2">
<path class="cls-1" d="m198.82 79.08h-12.22v-2h35.16c18.38 0 32.57 6.3 32.57 24.06 0 17.4-16.41 24.06-31.34 24.06-4.2 0-9.13-0.86-11.6-2.1v38.9h12.61v2h-37.4v-2h12.21zm12.59 41.58a18.2 18.2 0 0 0 9.5 2.59c8.14 0 20.11-4.32 20.11-21 0-16.16-7.4-23.19-22.09-23.19h-7.53z"/>
<path class="cls-1" d="m271.92 115.35h-9.87v-2h9.87c3.95 0 7.9-0.24 10.36-2.71v51.36h9.87v2h-30.1v-2h9.87zm5.18-33.19a6.29 6.29 0 1 1 -6.29 6.3 6.32 6.32 0 0 1 6.3 -6.3z"/>
<path class="cls-1" d="m343.67 157.3c0 2.35 0.37 5.43 3.7 5.43 2.84 0 4.56-2.35 6.42-4.94l1.36 1c-2.34 4.07-5.55 6.66-10.86 6.66-5.8 0-10-3.33-10.86-7.65h-0.25c-4.2 5.55-9.75 7.65-17.89 7.65-9.62 0-15.42-4.81-15.42-13.2 0-13.82 18.38-17.27 31.09-17.27h2.34v-15.19c0-5.79-5.43-7.15-10.12-7.15-3.58 0-12 1.36-12 5.8 0 3 4.07 1.61 4.07 7.16 0 3-2.47 5.18-5.68 5.18-3.45 0-5.43-2.71-5.43-6.91 0-6.3 6.66-13.2 19-13.2 9.38 0 20.48 4.81 20.48 14.31zm-12.46-20.36c-9 0-20.23 0.25-20.23 13.45 0 6.91 1.11 12.09 9 12.09 9.25 0 13.33-6.91 13.33-9.38v-16.16z"/>
<path class="cls-1" d="m362.86 146.08h1.6c1 6.29 4.19 17.39 17.15 17.39 6.79 0 12-4.44 12-11.47 0-9.75-7.4-9.87-13.94-10.61-8-0.86-15.79-2-15.79-14.81 0-8.89 5.8-15.91 15.42-15.91 6.66 0 11.23 4.32 12.46 4.32 0.74 0 0.86-0.86 0.86-2.59v-1h1.73l0.49 14.68h-1.6c-0.86-7-4.57-13.45-14.31-13.45-6.29 0-11.35 3.45-11.35 9.87s4.81 8.64 13 9.13l4.19 0.25c10 0.62 14.07 6 14.07 14.56 0 11.47-7.65 19-17.15 19-9.75 0-12.71-5.3-15.18-5.3-1.6 0-1.23 2-1.48 4.56h-1.93z"/>
<path class="cls-1" d="m417.17 115.35h-10.73v-2c12.83 0.25 17.52-5.18 19.62-17.27h1.48v17.27h17v2h-17v41.46c0 5.06 2.09 6.66 6 6.66 6.17 0 8.89-5.68 9.62-7.77l1.85 0.37c-0.86 3-4.44 9.38-13.57 9.38-8.63 0-14.31-2.84-14.31-11z"/>
<path class="cls-1" d="m463.13 115.35h-10.36v-2h10.36c4 0 7.9-0.24 10.37-2.71v14.56h0.25c1.48-5.55 5.8-14.56 15.91-14.56 4.57 0 8.15 3 8.15 7.28 0 3.21-2 5.8-5.68 5.8-4.07 0-5.43-2.1-5.43-5.43a5.93 5.93 0 0 1 2.71 -5.31 2.77 2.77 0 0 0 -1.73 -0.37c-5.06 0-14.19 8-14.19 24.06v25.33h11.22v2h-32v-2h10.36z"/>
<path class="cls-1" d="m515.38 115.35h-9.87v-2h9.87c4 0 7.9-0.24 10.37-2.71v51.36h9.87v2h-30.11v-2h9.87zm5.18-33.19a6.29 6.29 0 1 1 -6.29 6.3 6.32 6.32 0 0 1 6.3 -6.3z"/>
<path class="cls-1" d="m576.64 131 6-8c1.48-2 3.09-4.44 3.09-5.43 0-1.61-1.73-2.22-5.43-2.22h-2.59v-2h22.83v2h-3.7c-4.81 0-6.91 1.6-10.24 5.8l-9 11.47 18 29.37h8.14v2h-30.18v-2h9.62l-12.34-20.11-9 11.85c-2 2.59-3 4.93-3 6.29 0 1.11 0.62 2 3 2h5.55v2h-24.06v-2h3.08c6.17 0 8.39-2.34 13.45-8.89l10-13-15.05-24.8h-8.89v-2h28.62v2h-7.4z"/>
</g>
</svg>
